<?xml version="1.0" encoding="utf-8" standalone="no"?>
<!DOCTYPE svg PUBLIC "-//W3C//DTD SVG 1.1//EN"
  "http://www.w3.org/Graphics/SVG/1.1/DTD/svg11.dtd">
<svg xmlns:xlink="http://www.w3.org/1999/xlink" width="997.117031pt" height="785.88pt" viewBox="0 0 997.117031 785.88" xmlns="http://www.w3.org/2000/svg" version="1.1">
 <metadata>
  <rdf:RDF xmlns:dc="http://purl.org/dc/elements/1.1/" xmlns:cc="http://creativecommons.org/ns#" xmlns:rdf="http://www.w3.org/1999/02/22-rdf-syntax-ns#">
   <cc:Work>
    <dc:type rdf:resource="http://purl.org/dc/dcmitype/StillImage"/>
    <dc:date>2025-02-07T15:26:50.639629</dc:date>
    <dc:format>image/svg+xml</dc:format>
    <dc:creator>
     <cc:Agent>
      <dc:title>Matplotlib v3.9.2, https://matplotlib.org/</dc:title>
     </cc:Agent>
    </dc:creator>
   </cc:Work>
  </rdf:RDF>
 </metadata>
 <defs>
  <style type="text/css">*{stroke-linejoin: round; stroke-linecap: butt}</style>
 </defs>
 <g id="figure_1">
  <g id="patch_1">
   <path d="M 0 785.88 
L 997.117031 785.88 
L 997.117031 0 
L 0 0 
L 0 785.88 
z
" style="fill: none"/>
  </g>
  <g id="axes_1">
   <g id="patch_2">
    <path d="M 97.117031 706.32 
L 989.917031 706.32 
L 989.917031 41.04 
L 97.117031 41.04 
L 97.117031 706.32 
z
" style="fill: none"/>
   </g>
   <g id="PathCollection_1"/>
   <g id="PathCollection_2"/>
   <g id="PathCollection_3"/>
   <g id="PathCollection_4"/>
   <g id="PathCollection_5">
    <path d="M 457.853395 423.335479 
L 466.853395 423.335479 
L 466.853395 414.335479 
L 457.853395 414.335479 
z
" clip-path="url(#p7ad78fd0d4)" style="fill: #4caf50"/>
    <path d="M 620.180668 306.982159 
L 629.180668 306.982159 
L 629.180668 297.982159 
L 620.180668 297.982159 
z
" clip-path="url(#p7ad78fd0d4)" style="fill: #4caf50"/>
    <path d="M 782.50794 191.399374 
L 791.50794 191.399374 
L 791.50794 182.399374 
L 782.50794 182.399374 
z
" clip-path="url(#p7ad78fd0d4)" style="fill: #4caf50"/>
    <path d="M 877.463308 123.423399 
L 886.463308 123.423399 
L 886.463308 114.423399 
L 877.463308 114.423399 
z
" clip-path="url(#p7ad78fd0d4)" style="fill: #4caf50"/>
    <path d="M 943.918622 75.78 
L 952.918622 75.78 
L 952.918622 66.78 
L 943.918622 66.78 
z
" clip-path="url(#p7ad78fd0d4)" style="fill: #4caf50"/>
    <path d="M 787.00794 346.546031 
L 791.50794 337.546031 
L 782.50794 337.546031 
z
" clip-path="url(#p7ad78fd0d4)" style="fill: #ae81ff"/>
    <path d="M 949.335213 237.33997 
L 953.835213 228.33997 
L 944.835213 228.33997 
z
" clip-path="url(#p7ad78fd0d4)" style="fill: #ae81ff"/>
    <path d="M 137.698849 509.365216 
L 133.198849 518.365216 
L 142.198849 518.365216 
z
" clip-path="url(#p7ad78fd0d4)" style="fill: #ef5350"/>
    <path d="M 300.026122 392.138451 
L 295.526122 401.138451 
L 304.526122 401.138451 
z
" clip-path="url(#p7ad78fd0d4)" style="fill: #ef5350"/>
    <path d="M 462.353395 275.274454 
L 457.853395 284.274454 
L 466.853395 284.274454 
z
" clip-path="url(#p7ad78fd0d4)" style="fill: #ef5350"/>
    <path d="M 557.308762 210.621667 
L 552.808762 219.621667 
L 561.808762 219.621667 
z
" clip-path="url(#p7ad78fd0d4)" style="fill: #ef5350"/>
    <path d="M 566.868814 207.441778 
L 562.368814 216.441778 
L 571.368814 216.441778 
z
" clip-path="url(#p7ad78fd0d4)" style="fill: #ef5350"/>
    <path d="M 137.698849 515.324115 
L 133.198849 524.324115 
L 142.198849 524.324115 
z
" clip-path="url(#p7ad78fd0d4)" style="fill: #ef5350"/>
    <path d="M 300.026122 396.534282 
L 295.526122 405.534282 
L 304.526122 405.534282 
z
" clip-path="url(#p7ad78fd0d4)" style="fill: #ef5350"/>
    <path d="M 462.353395 281.057083 
L 457.853395 290.057083 
L 466.853395 290.057083 
z
" clip-path="url(#p7ad78fd0d4)" style="fill: #ef5350"/>
    <path d="M 557.308762 212.324156 
L 552.808762 221.324156 
L 561.808762 221.324156 
z
" clip-path="url(#p7ad78fd0d4)" style="fill: #ef5350"/>
    <path d="M 566.868814 206.67402 
L 562.368814 215.67402 
L 571.368814 215.67402 
z
" clip-path="url(#p7ad78fd0d4)" style="fill: #ef5350"/>
    <path d="M 300.026122 682.443961 
L 303.844499 676.08 
L 300.026122 669.716039 
L 296.207746 676.08 
z
" clip-path="url(#p7ad78fd0d4)" style="fill: #ffa726"/>
    <path d="M 462.353395 565.314423 
L 466.171772 558.950461 
L 462.353395 552.5865 
L 458.535018 558.950461 
z
" clip-path="url(#p7ad78fd0d4)" style="fill: #ffa726"/>
    <path d="M 624.680668 449.813819 
L 628.499044 443.449858 
L 624.680668 437.085897 
L 620.862291 443.449858 
z
" clip-path="url(#p7ad78fd0d4)" style="fill: #ffa726"/>
    <path d="M 787.00794 332.954491 
L 790.826317 326.59053 
L 787.00794 320.226569 
L 783.189564 326.59053 
z
" clip-path="url(#p7ad78fd0d4)" style="fill: #ffa726"/>
    <path d="M 876.409164 269.082953 
L 880.227541 262.718991 
L 876.409164 256.35503 
L 872.590787 262.718991 
z
" clip-path="url(#p7ad78fd0d4)" style="fill: #ffa726"/>
   </g>
   <g id="PolyCollection_1"/>
   <g id="PolyCollection_2"/>
   <g id="PolyCollection_3"/>
   <g id="PolyCollection_4"/>
   <g id="PolyCollection_5"/>
   <g id="PolyCollection_6"/>
   <g id="PolyCollection_7"/>
   <g id="PolyCollection_8"/>
   <g id="PolyCollection_9"/>
   <g id="PolyCollection_10"/>
   <g id="matplotlib.axis_1">
    <g id="xtick_1">
     <g id="line2d_1">
      <path d="M 137.698849 706.32 
L 137.698849 41.04 
" clip-path="url(#p7ad78fd0d4)" style="fill: none; stroke-dasharray: 1.48,0.64; stroke-dashoffset: 0; stroke: #838383; stroke-opacity: 0.25; stroke-width: 0.4"/>
     </g>
     <g id="line2d_2"/>
     <g id="text_1">
      <!-- 64 -->
      <g style="fill: #838383" transform="translate(117.898849 734.24) scale(0.33 -0.33)">
       <defs>
        <path id="IBMPlexSans-Regular-36" d="M 1926 -77 
Q 1581 -77 1302 41 
Q 1024 160 829 381 
Q 634 602 531 922 
Q 429 1242 429 1638 
Q 429 2138 576 2576 
Q 723 3014 956 3376 
Q 1190 3738 1472 4016 
Q 1754 4294 2022 4467 
L 2714 4467 
Q 2355 4205 2073 3955 
Q 1792 3706 1581 3434 
Q 1370 3162 1222 2851 
Q 1075 2541 986 2150 
L 1018 2138 
Q 1178 2413 1430 2595 
Q 1683 2778 2093 2778 
Q 2381 2778 2624 2682 
Q 2867 2586 3040 2406 
Q 3213 2227 3312 1971 
Q 3411 1715 3411 1402 
Q 3411 1075 3305 803 
Q 3200 531 3005 336 
Q 2810 141 2534 32 
Q 2259 -77 1926 -77 
z
M 1920 390 
Q 2362 390 2608 633 
Q 2854 877 2854 1331 
L 2854 1382 
Q 2854 1837 2608 2080 
Q 2362 2323 1920 2323 
Q 1478 2323 1232 2080 
Q 986 1837 986 1382 
L 986 1331 
Q 986 877 1232 633 
Q 1478 390 1920 390 
z
" transform="scale(0.015625)"/>
        <path id="IBMPlexSans-Regular-34" d="M 2400 0 
L 2400 877 
L 243 877 
L 243 1350 
L 2112 4467 
L 2912 4467 
L 2912 1325 
L 3558 1325 
L 3558 877 
L 2912 877 
L 2912 0 
L 2400 0 
z
M 749 1325 
L 2400 1325 
L 2400 4051 
L 2368 4051 
L 749 1325 
z
" transform="scale(0.015625)"/>
       </defs>
       <use xlink:href="#IBMPlexSans-Regular-36"/>
       <use xlink:href="#IBMPlexSans-Regular-34" x="59.999985"/>
      </g>
     </g>
    </g>
    <g id="xtick_2">
     <g id="line2d_3">
      <path d="M 300.026122 706.32 
L 300.026122 41.04 
" clip-path="url(#p7ad78fd0d4)" style="fill: none; stroke-dasharray: 1.48,0.64; stroke-dashoffset: 0; stroke: #838383; stroke-opacity: 0.25; stroke-width: 0.4"/>
     </g>
     <g id="line2d_4"/>
     <g id="text_2">
      <!-- 128 -->
      <g style="fill: #838383" transform="translate(270.326122 734.24) scale(0.33 -0.33)">
       <defs>
        <path id="IBMPlexSans-Regular-31" d="M 563 0 
L 563 474 
L 1811 474 
L 1811 4070 
L 1766 4070 
L 640 3021 
L 326 3360 
L 1510 4467 
L 2349 4467 
L 2349 474 
L 3501 474 
L 3501 0 
L 563 0 
z
" transform="scale(0.015625)"/>
        <path id="IBMPlexSans-Regular-32" d="M 3411 0 
L 480 0 
L 480 550 
L 1939 1894 
Q 2253 2182 2464 2505 
Q 2675 2829 2675 3155 
L 2675 3232 
Q 2675 3603 2470 3833 
Q 2266 4064 1850 4064 
Q 1645 4064 1491 4006 
Q 1338 3949 1226 3846 
Q 1114 3744 1040 3606 
Q 966 3469 922 3309 
L 442 3494 
Q 506 3693 618 3881 
Q 730 4070 899 4217 
Q 1069 4365 1309 4454 
Q 1549 4544 1875 4544 
Q 2202 4544 2458 4448 
Q 2714 4352 2886 4179 
Q 3059 4006 3152 3769 
Q 3245 3533 3245 3245 
Q 3245 2982 3171 2758 
Q 3098 2534 2970 2332 
Q 2842 2131 2659 1939 
Q 2477 1747 2266 1555 
L 1062 474 
L 3411 474 
L 3411 0 
z
" transform="scale(0.015625)"/>
        <path id="IBMPlexSans-Regular-38" d="M 1920 -77 
Q 1536 -77 1248 22 
Q 960 122 765 294 
Q 570 467 470 704 
Q 371 941 371 1216 
Q 371 1677 620 1945 
Q 870 2214 1274 2323 
L 1274 2374 
Q 922 2496 714 2768 
Q 506 3040 506 3424 
Q 506 3936 877 4240 
Q 1248 4544 1920 4544 
Q 2592 4544 2963 4240 
Q 3334 3936 3334 3424 
Q 3334 3040 3126 2768 
Q 2918 2496 2566 2374 
L 2566 2323 
Q 2970 2214 3219 1945 
Q 3469 1677 3469 1216 
Q 3469 941 3369 704 
Q 3270 467 3075 294 
Q 2880 122 2592 22 
Q 2304 -77 1920 -77 
z
M 1920 390 
Q 2387 390 2643 598 
Q 2899 806 2899 1190 
L 2899 1325 
Q 2899 1709 2643 1917 
Q 2387 2125 1920 2125 
Q 1453 2125 1197 1917 
Q 941 1709 941 1325 
L 941 1190 
Q 941 806 1197 598 
Q 1453 390 1920 390 
z
M 1920 2573 
Q 2342 2573 2560 2752 
Q 2778 2931 2778 3277 
L 2778 3373 
Q 2778 3718 2560 3897 
Q 2342 4077 1920 4077 
Q 1498 4077 1280 3897 
Q 1062 3718 1062 3373 
L 1062 3277 
Q 1062 2931 1280 2752 
Q 1498 2573 1920 2573 
z
" transform="scale(0.015625)"/>
       </defs>
       <use xlink:href="#IBMPlexSans-Regular-31"/>
       <use xlink:href="#IBMPlexSans-Regular-32" x="59.999985"/>
       <use xlink:href="#IBMPlexSans-Regular-38" x="119.999969"/>
      </g>
     </g>
    </g>
    <g id="xtick_3">
     <g id="line2d_5">
      <path d="M 462.353395 706.32 
L 462.353395 41.04 
" clip-path="url(#p7ad78fd0d4)" style="fill: none; stroke-dasharray: 1.48,0.64; stroke-dashoffset: 0; stroke: #838383; stroke-opacity: 0.25; stroke-width: 0.4"/>
     </g>
     <g id="line2d_6"/>
     <g id="text_3">
      <!-- 256 -->
      <g style="fill: #838383" transform="translate(432.653395 734.24) scale(0.33 -0.33)">
       <defs>
        <path id="IBMPlexSans-Regular-35" d="M 3187 3994 
L 1229 3994 
L 1101 2291 
L 1146 2291 
Q 1306 2515 1507 2649 
Q 1709 2784 2061 2784 
Q 2349 2784 2592 2688 
Q 2835 2592 3014 2416 
Q 3194 2240 3293 1984 
Q 3392 1728 3392 1402 
Q 3392 1075 3289 803 
Q 3187 531 2992 336 
Q 2797 141 2518 32 
Q 2240 -77 1888 -77 
Q 1606 -77 1392 -13 
Q 1178 51 1011 160 
Q 845 269 720 403 
Q 595 538 493 685 
L 896 992 
Q 979 858 1072 749 
Q 1165 640 1277 563 
Q 1389 486 1536 444 
Q 1683 403 1888 403 
Q 2349 403 2585 646 
Q 2822 890 2822 1331 
L 2822 1395 
Q 2822 1837 2585 2080 
Q 2349 2323 1888 2323 
Q 1581 2323 1405 2211 
Q 1229 2099 1088 1946 
L 634 2010 
L 794 4467 
L 3187 4467 
L 3187 3994 
z
" transform="scale(0.015625)"/>
       </defs>
       <use xlink:href="#IBMPlexSans-Regular-32"/>
       <use xlink:href="#IBMPlexSans-Regular-35" x="59.999985"/>
       <use xlink:href="#IBMPlexSans-Regular-36" x="119.999969"/>
      </g>
     </g>
    </g>
    <g id="xtick_4">
     <g id="line2d_7">
      <path d="M 624.680668 706.32 
L 624.680668 41.04 
" clip-path="url(#p7ad78fd0d4)" style="fill: none; stroke-dasharray: 1.48,0.64; stroke-dashoffset: 0; stroke: #838383; stroke-opacity: 0.25; stroke-width: 0.4"/>
     </g>
     <g id="line2d_8"/>
     <g id="text_4">
      <!-- 512 -->
      <g style="fill: #838383" transform="translate(594.980668 734.24) scale(0.33 -0.33)">
       <use xlink:href="#IBMPlexSans-Regular-35"/>
       <use xlink:href="#IBMPlexSans-Regular-31" x="59.999985"/>
       <use xlink:href="#IBMPlexSans-Regular-32" x="119.999969"/>
      </g>
     </g>
    </g>
    <g id="xtick_5">
     <g id="line2d_9">
      <path d="M 787.00794 706.32 
L 787.00794 41.04 
" clip-path="url(#p7ad78fd0d4)" style="fill: none; stroke-dasharray: 1.48,0.64; stroke-dashoffset: 0; stroke: #838383; stroke-opacity: 0.25; stroke-width: 0.4"/>
     </g>
     <g id="line2d_10"/>
     <g id="text_5">
      <!-- 1024 -->
      <g style="fill: #838383" transform="translate(747.40794 734.24) scale(0.33 -0.33)">
       <defs>
        <path id="IBMPlexSans-Regular-30" d="M 1920 -77 
Q 1120 -77 752 531 
Q 384 1139 384 2234 
Q 384 3328 752 3936 
Q 1120 4544 1920 4544 
Q 2720 4544 3088 3936 
Q 3456 3328 3456 2234 
Q 3456 1139 3088 531 
Q 2720 -77 1920 -77 
z
M 1920 390 
Q 2182 390 2368 499 
Q 2554 608 2669 806 
Q 2784 1005 2838 1273 
Q 2893 1542 2893 1869 
L 2893 2598 
Q 2893 2925 2838 3193 
Q 2784 3462 2669 3660 
Q 2554 3859 2368 3968 
Q 2182 4077 1920 4077 
Q 1658 4077 1472 3968 
Q 1286 3859 1171 3660 
Q 1056 3462 1001 3193 
Q 947 2925 947 2598 
L 947 1869 
Q 947 1542 1001 1273 
Q 1056 1005 1171 806 
Q 1286 608 1472 499 
Q 1658 390 1920 390 
z
" transform="scale(0.015625)"/>
       </defs>
       <use xlink:href="#IBMPlexSans-Regular-31"/>
       <use xlink:href="#IBMPlexSans-Regular-30" x="59.999985"/>
       <use xlink:href="#IBMPlexSans-Regular-32" x="119.999969"/>
       <use xlink:href="#IBMPlexSans-Regular-34" x="179.999954"/>
      </g>
     </g>
    </g>
    <g id="xtick_6">
     <g id="line2d_11">
      <path d="M 949.335213 706.32 
L 949.335213 41.04 
" clip-path="url(#p7ad78fd0d4)" style="fill: none; stroke-dasharray: 1.48,0.64; stroke-dashoffset: 0; stroke: #838383; stroke-opacity: 0.25; stroke-width: 0.4"/>
     </g>
     <g id="line2d_12"/>
     <g id="text_6">
      <!-- 2048 -->
      <g style="fill: #838383" transform="translate(909.735213 734.24) scale(0.33 -0.33)">
       <use xlink:href="#IBMPlexSans-Regular-32"/>
       <use xlink:href="#IBMPlexSans-Regular-30" x="59.999985"/>
       <use xlink:href="#IBMPlexSans-Regular-34" x="119.999969"/>
       <use xlink:href="#IBMPlexSans-Regular-38" x="179.999954"/>
      </g>
     </g>
    </g>
    <g id="xtick_7">
     <g id="line2d_13"/>
    </g>
    <g id="xtick_8">
     <g id="line2d_14"/>
    </g>
    <g id="xtick_9">
     <g id="line2d_15"/>
    </g>
    <g id="xtick_10">
     <g id="line2d_16"/>
    </g>
    <g id="xtick_11">
     <g id="line2d_17"/>
    </g>
    <g id="xtick_12">
     <g id="line2d_18"/>
    </g>
    <g id="xtick_13">
     <g id="line2d_19"/>
    </g>
    <g id="xtick_14">
     <g id="line2d_20"/>
    </g>
    <g id="xtick_15">
     <g id="line2d_21"/>
    </g>
    <g id="xtick_16">
     <g id="line2d_22"/>
    </g>
    <g id="xtick_17">
     <g id="line2d_23"/>
    </g>
    <g id="xtick_18">
     <g id="line2d_24"/>
    </g>
    <g id="xtick_19">
     <g id="line2d_25"/>
    </g>
    <g id="text_7">
     <!-- Nodes -->
     <g style="fill: #838383" transform="translate(491.620781 771.48) scale(0.36 -0.36)">
      <defs>
       <path id="IBMPlexSans-Regular-4e" d="M 1677 2726 
L 1139 3718 
L 1120 3718 
L 1120 0 
L 595 0 
L 595 4467 
L 1216 4467 
L 2848 1741 
L 3386 749 
L 3405 749 
L 3405 4467 
L 3930 4467 
L 3930 0 
L 3309 0 
L 1677 2726 
z
" transform="scale(0.015625)"/>
       <path id="IBMPlexSans-Regular-6f" d="M 1792 -77 
Q 1459 -77 1184 44 
Q 909 166 713 393 
Q 518 621 409 937 
Q 301 1254 301 1651 
Q 301 2042 409 2362 
Q 518 2682 713 2909 
Q 909 3136 1184 3257 
Q 1459 3379 1792 3379 
Q 2125 3379 2397 3257 
Q 2669 3136 2867 2909 
Q 3066 2682 3174 2362 
Q 3283 2042 3283 1651 
Q 3283 1254 3174 937 
Q 3066 621 2867 393 
Q 2669 166 2397 44 
Q 2125 -77 1792 -77 
z
M 1792 378 
Q 2208 378 2470 634 
Q 2733 890 2733 1414 
L 2733 1888 
Q 2733 2413 2470 2669 
Q 2208 2925 1792 2925 
Q 1376 2925 1113 2669 
Q 851 2413 851 1888 
L 851 1414 
Q 851 890 1113 634 
Q 1376 378 1792 378 
z
" transform="scale(0.015625)"/>
       <path id="IBMPlexSans-Regular-64" d="M 2656 538 
L 2630 538 
Q 2330 -77 1664 -77 
Q 1357 -77 1107 44 
Q 858 166 682 390 
Q 506 614 413 934 
Q 320 1254 320 1651 
Q 320 2048 413 2368 
Q 506 2688 682 2912 
Q 858 3136 1107 3257 
Q 1357 3379 1664 3379 
Q 2010 3379 2256 3228 
Q 2502 3078 2630 2765 
L 2656 2765 
L 2656 4736 
L 3168 4736 
L 3168 0 
L 2656 0 
L 2656 538 
z
M 1805 384 
Q 1978 384 2134 429 
Q 2291 474 2406 560 
Q 2522 646 2589 771 
Q 2656 896 2656 1056 
L 2656 2285 
Q 2656 2419 2589 2537 
Q 2522 2656 2406 2739 
Q 2291 2822 2134 2870 
Q 1978 2918 1805 2918 
Q 1370 2918 1120 2646 
Q 870 2374 870 1933 
L 870 1370 
Q 870 928 1120 656 
Q 1370 384 1805 384 
z
" transform="scale(0.015625)"/>
       <path id="IBMPlexSans-Regular-65" d="M 1786 -77 
Q 1446 -77 1174 44 
Q 902 166 707 393 
Q 512 621 406 937 
Q 301 1254 301 1651 
Q 301 2042 406 2362 
Q 512 2682 707 2909 
Q 902 3136 1174 3257 
Q 1446 3379 1786 3379 
Q 2118 3379 2380 3257 
Q 2643 3136 2828 2921 
Q 3014 2707 3113 2412 
Q 3213 2118 3213 1766 
L 3213 1523 
L 838 1523 
L 838 1370 
Q 838 1158 905 976 
Q 973 794 1097 659 
Q 1222 525 1404 448 
Q 1587 371 1818 371 
Q 2131 371 2364 518 
Q 2598 666 2726 941 
L 3091 678 
Q 2931 339 2592 131 
Q 2253 -77 1786 -77 
z
M 1786 2950 
Q 1574 2950 1401 2876 
Q 1229 2803 1104 2668 
Q 979 2534 908 2352 
Q 838 2170 838 1952 
L 838 1907 
L 2662 1907 
L 2662 1978 
Q 2662 2419 2422 2684 
Q 2182 2950 1786 2950 
z
" transform="scale(0.015625)"/>
       <path id="IBMPlexSans-Regular-73" d="M 1536 -77 
Q 1075 -77 764 99 
Q 454 275 230 570 
L 595 864 
Q 787 621 1024 489 
Q 1261 358 1574 358 
Q 1901 358 2083 499 
Q 2266 640 2266 896 
Q 2266 1088 2141 1225 
Q 2016 1363 1690 1414 
L 1427 1453 
Q 1197 1485 1005 1552 
Q 813 1619 669 1731 
Q 525 1843 445 2009 
Q 365 2176 365 2406 
Q 365 2650 454 2832 
Q 544 3014 701 3136 
Q 858 3258 1075 3318 
Q 1293 3379 1542 3379 
Q 1946 3379 2218 3238 
Q 2490 3098 2694 2848 
L 2355 2541 
Q 2246 2694 2035 2819 
Q 1824 2944 1504 2944 
Q 1184 2944 1021 2806 
Q 858 2669 858 2432 
Q 858 2189 1021 2080 
Q 1184 1971 1491 1920 
L 1747 1882 
Q 2298 1798 2528 1564 
Q 2758 1331 2758 954 
Q 2758 474 2432 198 
Q 2106 -77 1536 -77 
z
" transform="scale(0.015625)"/>
      </defs>
      <use xlink:href="#IBMPlexSans-Regular-4e"/>
      <use xlink:href="#IBMPlexSans-Regular-6f" x="70.699982"/>
      <use xlink:href="#IBMPlexSans-Regular-64" x="126.699966"/>
      <use xlink:href="#IBMPlexSans-Regular-65" x="184.699951"/>
      <use xlink:href="#IBMPlexSans-Regular-73" x="239.599945"/>
     </g>
    </g>
   </g>
   <g id="matplotlib.axis_2">
    <g id="ytick_1">
     <g id="line2d_26">
      <path d="M 97.117031 629.931397 
L 989.917031 629.931397 
" clip-path="url(#p7ad78fd0d4)" style="fill: none; stroke-dasharray: 1.48,0.64; stroke-dashoffset: 0; stroke: #838383; stroke-opacity: 0.25; stroke-width: 0.4"/>
     </g>
     <g id="line2d_27"/>
     <g id="text_8">
      <!-- 0.1 -->
      <g style="fill: #838383" transform="translate(45.04 642.141397) scale(0.33 -0.33)">
       <defs>
        <path id="IBMPlexSans-Regular-2e" d="M 870 -77 
Q 666 -77 573 25 
Q 480 128 480 294 
L 480 378 
Q 480 544 573 646 
Q 666 749 870 749 
Q 1075 749 1168 646 
Q 1261 544 1261 378 
L 1261 294 
Q 1261 128 1168 25 
Q 1075 -77 870 -77 
z
" transform="scale(0.015625)"/>
       </defs>
       <use xlink:href="#IBMPlexSans-Regular-30"/>
       <use xlink:href="#IBMPlexSans-Regular-2e" x="59.999985"/>
       <use xlink:href="#IBMPlexSans-Regular-31" x="87.199982"/>
      </g>
     </g>
    </g>
    <g id="ytick_2">
     <g id="line2d_28">
      <path d="M 97.117031 242.900809 
L 989.917031 242.900809 
" clip-path="url(#p7ad78fd0d4)" style="fill: none; stroke-dasharray: 1.48,0.64; stroke-dashoffset: 0; stroke: #838383; stroke-opacity: 0.25; stroke-width: 0.4"/>
     </g>
     <g id="line2d_29"/>
     <g id="text_9">
      <!-- 1 -->
      <g style="fill: #838383" transform="translate(73.817031 255.110809) scale(0.33 -0.33)">
       <use xlink:href="#IBMPlexSans-Regular-31"/>
      </g>
     </g>
    </g>
    <g id="ytick_3">
     <g id="line2d_30"/>
    </g>
    <g id="ytick_4">
     <g id="line2d_31"/>
    </g>
    <g id="ytick_5">
     <g id="line2d_32"/>
    </g>
    <g id="ytick_6">
     <g id="line2d_33"/>
    </g>
    <g id="ytick_7">
     <g id="line2d_34"/>
    </g>
    <g id="ytick_8">
     <g id="line2d_35"/>
    </g>
    <g id="ytick_9">
     <g id="line2d_36"/>
    </g>
    <g id="ytick_10">
     <g id="line2d_37"/>
    </g>
    <g id="ytick_11">
     <g id="line2d_38"/>
    </g>
    <g id="ytick_12">
     <g id="line2d_39"/>
    </g>
    <g id="ytick_13">
     <g id="line2d_40"/>
    </g>
    <g id="ytick_14">
     <g id="line2d_41"/>
    </g>
    <g id="ytick_15">
     <g id="line2d_42"/>
    </g>
    <g id="text_10">
     <!-- EFLOPS -->
     <g style="fill: #838383" transform="translate(33.84 437.360625) rotate(-90) scale(0.36 -0.36)">
      <defs>
       <path id="IBMPlexSans-Regular-45" d="M 595 0 
L 595 4467 
L 3322 4467 
L 3322 3994 
L 1133 3994 
L 1133 2496 
L 3194 2496 
L 3194 2022 
L 1133 2022 
L 1133 474 
L 3322 474 
L 3322 0 
L 595 0 
z
" transform="scale(0.015625)"/>
       <path id="IBMPlexSans-Regular-46" d="M 595 0 
L 595 4467 
L 3258 4467 
L 3258 3994 
L 1133 3994 
L 1133 2496 
L 3072 2496 
L 3072 2022 
L 1133 2022 
L 1133 0 
L 595 0 
z
" transform="scale(0.015625)"/>
       <path id="IBMPlexSans-Regular-4c" d="M 595 0 
L 595 4467 
L 1133 4467 
L 1133 474 
L 3034 474 
L 3034 0 
L 595 0 
z
" transform="scale(0.015625)"/>
       <path id="IBMPlexSans-Regular-4f" d="M 2266 -77 
Q 1830 -77 1481 73 
Q 1133 224 886 515 
Q 640 806 505 1238 
Q 371 1670 371 2234 
Q 371 2797 505 3225 
Q 640 3654 886 3948 
Q 1133 4243 1481 4393 
Q 1830 4544 2266 4544 
Q 2694 4544 3046 4393 
Q 3398 4243 3644 3948 
Q 3891 3654 4025 3225 
Q 4160 2797 4160 2234 
Q 4160 1670 4025 1238 
Q 3891 806 3644 515 
Q 3398 224 3046 73 
Q 2694 -77 2266 -77 
z
M 2266 403 
Q 2554 403 2797 505 
Q 3040 608 3216 800 
Q 3392 992 3488 1261 
Q 3584 1530 3584 1862 
L 3584 2605 
Q 3584 2938 3488 3206 
Q 3392 3475 3216 3667 
Q 3040 3859 2797 3961 
Q 2554 4064 2266 4064 
Q 1978 4064 1734 3961 
Q 1491 3859 1315 3667 
Q 1139 3475 1043 3206 
Q 947 2938 947 2605 
L 947 1862 
Q 947 1530 1043 1261 
Q 1139 992 1315 800 
Q 1491 608 1734 505 
Q 1978 403 2266 403 
z
" transform="scale(0.015625)"/>
       <path id="IBMPlexSans-Regular-50" d="M 595 0 
L 595 4467 
L 2374 4467 
Q 2976 4467 3299 4124 
Q 3622 3782 3622 3187 
Q 3622 2592 3299 2249 
Q 2976 1907 2374 1907 
L 1133 1907 
L 1133 0 
L 595 0 
z
M 1133 2381 
L 2374 2381 
Q 2694 2381 2870 2547 
Q 3046 2714 3046 3021 
L 3046 3354 
Q 3046 3661 2870 3827 
Q 2694 3994 2374 3994 
L 1133 3994 
L 1133 2381 
z
" transform="scale(0.015625)"/>
       <path id="IBMPlexSans-Regular-53" d="M 1850 -77 
Q 1306 -77 922 131 
Q 538 339 269 704 
L 666 1037 
Q 902 723 1190 560 
Q 1478 397 1869 397 
Q 2349 397 2601 627 
Q 2854 858 2854 1242 
Q 2854 1562 2662 1734 
Q 2470 1907 2029 2010 
L 1664 2093 
Q 1050 2234 726 2518 
Q 403 2803 403 3322 
Q 403 3616 512 3846 
Q 621 4077 816 4230 
Q 1011 4384 1283 4464 
Q 1555 4544 1882 4544 
Q 2387 4544 2748 4358 
Q 3110 4173 3360 3814 
L 2957 3520 
Q 2771 3776 2508 3923 
Q 2246 4070 1856 4070 
Q 1427 4070 1180 3888 
Q 934 3706 934 3341 
Q 934 3021 1142 2857 
Q 1350 2694 1773 2598 
L 2138 2515 
Q 2797 2368 3091 2067 
Q 3386 1766 3386 1267 
Q 3386 960 3280 710 
Q 3174 461 2976 288 
Q 2778 115 2493 19 
Q 2208 -77 1850 -77 
z
" transform="scale(0.015625)"/>
      </defs>
      <use xlink:href="#IBMPlexSans-Regular-45"/>
      <use xlink:href="#IBMPlexSans-Regular-46" x="58.299988"/>
      <use xlink:href="#IBMPlexSans-Regular-4c" x="114.199982"/>
      <use xlink:href="#IBMPlexSans-Regular-4f" x="164.299973"/>
      <use xlink:href="#IBMPlexSans-Regular-50" x="235.09996"/>
      <use xlink:href="#IBMPlexSans-Regular-53" x="295.699951"/>
     </g>
    </g>
   </g>
   <g id="line2d_43"/>
   <g id="line2d_44"/>
   <g id="line2d_45">
    <path d="M 462.353395 418.835479 
L 624.680668 302.482159 
L 787.00794 186.899374 
L 881.963308 118.923399 
L 948.418622 71.28 
" clip-path="url(#p7ad78fd0d4)" style="fill: none; stroke: #4caf50; stroke-width: 2.25; stroke-linecap: round"/>
   </g>
   <g id="line2d_46">
    <path d="M 787.00794 342.046031 
L 949.335213 232.83997 
" clip-path="url(#p7ad78fd0d4)" style="fill: none; stroke-dasharray: 9,3.375; stroke-dashoffset: 0; stroke: #ae81ff; stroke-width: 2.25"/>
   </g>
   <g id="line2d_47">
    <path d="M 137.698849 513.865216 
L 300.026122 396.638451 
L 462.353395 279.774454 
L 557.308762 215.121667 
L 566.868814 211.941778 
" clip-path="url(#p7ad78fd0d4)" style="fill: none; stroke: #ef5350; stroke-width: 2.25; stroke-linecap: round"/>
   </g>
   <g id="line2d_48">
    <path d="M 137.698849 519.824115 
L 300.026122 401.034282 
L 462.353395 285.557083 
L 557.308762 216.824156 
L 566.868814 211.17402 
" clip-path="url(#p7ad78fd0d4)" style="fill: none; stroke-dasharray: 9,3.375; stroke-dashoffset: 0; stroke: #ef5350; stroke-width: 2.25"/>
   </g>
   <g id="line2d_49">
    <path d="M 300.026122 676.08 
L 462.353395 558.950461 
L 624.680668 443.449858 
L 787.00794 326.59053 
L 876.409164 262.718991 
" clip-path="url(#p7ad78fd0d4)" style="fill: none; stroke: #ffa726; stroke-width: 2.25; stroke-linecap: round"/>
   </g>
   <g id="line2d_50">
    <path d="M 462.353395 418.835479 
L 624.680668 302.482159 
L 787.00794 186.899374 
L 881.963308 118.923399 
L 948.418622 71.28 
" clip-path="url(#p7ad78fd0d4)" style="fill: none; stroke: #4caf50; stroke-width: 2.25; stroke-linecap: round"/>
   </g>
   <g id="line2d_51">
    <path d="M 787.00794 342.046031 
L 949.335213 232.83997 
" clip-path="url(#p7ad78fd0d4)" style="fill: none; stroke-dasharray: 9,3.375; stroke-dashoffset: 0; stroke: #ae81ff; stroke-width: 2.25"/>
   </g>
   <g id="line2d_52">
    <path d="M 137.698849 513.865216 
L 300.026122 396.638451 
L 462.353395 279.774454 
L 557.308762 215.121667 
L 566.868814 211.941778 
" clip-path="url(#p7ad78fd0d4)" style="fill: none; stroke: #ef5350; stroke-width: 2.25; stroke-linecap: round"/>
   </g>
   <g id="line2d_53">
    <path d="M 137.698849 519.824115 
L 300.026122 401.034282 
L 462.353395 285.557083 
L 557.308762 216.824156 
L 566.868814 211.17402 
" clip-path="url(#p7ad78fd0d4)" style="fill: none; stroke-dasharray: 9,3.375; stroke-dashoffset: 0; stroke: #ef5350; stroke-width: 2.25"/>
   </g>
   <g id="line2d_54">
    <path d="M 300.026122 676.08 
L 462.353395 558.950461 
L 624.680668 443.449858 
L 787.00794 326.59053 
L 876.409164 262.718991 
" clip-path="url(#p7ad78fd0d4)" style="fill: none; stroke: #ffa726; stroke-width: 2.25; stroke-linecap: round"/>
   </g>
   <g id="patch_3">
    <path d="M 97.117031 706.32 
L 97.117031 41.04 
" style="fill: none"/>
   </g>
   <g id="patch_4">
    <path d="M 989.917031 706.32 
L 989.917031 41.04 
" style="fill: none"/>
   </g>
   <g id="patch_5">
    <path d="M 97.117031 706.32 
L 989.917031 706.32 
" style="fill: none"/>
   </g>
   <g id="patch_6">
    <path d="M 97.117031 41.04 
L 989.917031 41.04 
" style="fill: none"/>
   </g>
   <g id="text_11">
    <!-- 7B Model -->
    <g style="fill: #838383" transform="translate(466.800469 33.84) scale(0.36 -0.36)">
     <defs>
      <path id="IBMPlexSans-Regular-37" d="M 1120 0 
L 2829 4006 
L 922 4006 
L 922 3174 
L 442 3174 
L 442 4467 
L 3373 4467 
L 3373 3994 
L 1696 0 
L 1120 0 
z
" transform="scale(0.015625)"/>
      <path id="IBMPlexSans-Regular-42" d="M 595 4467 
L 2432 4467 
Q 2989 4467 3305 4153 
Q 3622 3840 3622 3315 
Q 3622 3066 3552 2893 
Q 3482 2720 3373 2608 
Q 3264 2496 3136 2441 
Q 3008 2387 2899 2368 
L 2899 2330 
Q 3021 2323 3171 2265 
Q 3322 2208 3456 2083 
Q 3590 1958 3683 1763 
Q 3776 1568 3776 1293 
Q 3776 1018 3689 781 
Q 3603 544 3449 371 
Q 3296 198 3085 99 
Q 2874 0 2624 0 
L 595 0 
L 595 4467 
z
M 1133 474 
L 2458 474 
Q 2803 474 3001 650 
Q 3200 826 3200 1165 
L 3200 1382 
Q 3200 1722 3001 1898 
Q 2803 2074 2458 2074 
L 1133 2074 
L 1133 474 
z
M 1133 2534 
L 2368 2534 
Q 2688 2534 2867 2694 
Q 3046 2854 3046 3155 
L 3046 3373 
Q 3046 3674 2867 3834 
Q 2688 3994 2368 3994 
L 1133 3994 
L 1133 2534 
z
" transform="scale(0.015625)"/>
      <path id="IBMPlexSans-Regular-20" transform="scale(0.015625)"/>
      <path id="IBMPlexSans-Regular-4d" d="M 4077 3763 
L 4045 3763 
L 3667 3014 
L 2598 1069 
L 1530 3014 
L 1152 3763 
L 1120 3763 
L 1120 0 
L 595 0 
L 595 4467 
L 1312 4467 
L 2592 2061 
L 2624 2061 
L 3910 4467 
L 4602 4467 
L 4602 0 
L 4077 0 
L 4077 3763 
z
" transform="scale(0.015625)"/>
      <path id="IBMPlexSans-Regular-6c" d="M 1088 0 
Q 819 0 681 150 
Q 544 301 544 531 
L 544 4736 
L 1056 4736 
L 1056 448 
L 1542 448 
L 1542 0 
L 1088 0 
z
" transform="scale(0.015625)"/>
     </defs>
     <use xlink:href="#IBMPlexSans-Regular-37"/>
     <use xlink:href="#IBMPlexSans-Regular-42" x="59.999985"/>
     <use xlink:href="#IBMPlexSans-Regular-20" x="125.299973"/>
     <use xlink:href="#IBMPlexSans-Regular-4d" x="148.899963"/>
     <use xlink:href="#IBMPlexSans-Regular-6f" x="230.099945"/>
     <use xlink:href="#IBMPlexSans-Regular-64" x="286.09993"/>
     <use xlink:href="#IBMPlexSans-Regular-65" x="344.099915"/>
     <use xlink:href="#IBMPlexSans-Regular-6c" x="398.999908"/>
    </g>
   </g>
   <g id="legend_1">
    <g id="PathCollection_6">
     <defs>
      <path id="m65106d6a44" d="M -4.5 4.5 
L 4.5 4.5 
L 4.5 -4.5 
L -4.5 -4.5 
z
" style="stroke: #4caf50; stroke-width: 1.5"/>
     </defs>
     <g>
      <use xlink:href="#m65106d6a44" x="740.045156" y="423.7575" style="fill: #4caf50; stroke: #4caf50; stroke-width: 1.5"/>
     </g>
    </g>
    <g id="text_12">
     <!-- ALPS -->
     <g style="fill: #838383" transform="translate(799.445156 432.42) scale(0.33 -0.33)">
      <defs>
       <path id="IBMPlexSans-Regular-41" d="M 3392 0 
L 2944 1318 
L 1139 1318 
L 691 0 
L 147 0 
L 1709 4467 
L 2394 4467 
L 3955 0 
L 3392 0 
z
M 2054 3968 
L 2022 3968 
L 1267 1792 
L 2810 1792 
L 2054 3968 
z
" transform="scale(0.015625)"/>
      </defs>
      <use xlink:href="#IBMPlexSans-Regular-41"/>
      <use xlink:href="#IBMPlexSans-Regular-4c" x="64.099991"/>
      <use xlink:href="#IBMPlexSans-Regular-50" x="114.199982"/>
      <use xlink:href="#IBMPlexSans-Regular-53" x="174.799973"/>
     </g>
    </g>
    <g id="PathCollection_7">
     <defs>
      <path id="m39f408beac" d="M -0 4.5 
L 4.5 -4.5 
L -4.5 -4.5 
z
" style="stroke: #ae81ff; stroke-width: 1.5"/>
     </defs>
     <g>
      <use xlink:href="#m39f408beac" x="740.045156" y="471.2775" style="fill: #ae81ff; stroke: #ae81ff; stroke-width: 1.5"/>
     </g>
    </g>
    <g id="text_13">
     <!-- Frontier -->
     <g style="fill: #838383" transform="translate(799.445156 479.94) scale(0.33 -0.33)">
      <defs>
       <path id="IBMPlexSans-Regular-72" d="M 544 0 
L 544 3302 
L 1056 3302 
L 1056 2694 
L 1088 2694 
Q 1178 2931 1408 3116 
Q 1638 3302 2042 3302 
L 2240 3302 
L 2240 2790 
L 1939 2790 
Q 1523 2790 1289 2633 
Q 1056 2477 1056 2240 
L 1056 0 
L 544 0 
z
" transform="scale(0.015625)"/>
       <path id="IBMPlexSans-Regular-6e" d="M 544 0 
L 544 3302 
L 1056 3302 
L 1056 2765 
L 1082 2765 
Q 1203 3046 1424 3212 
Q 1645 3379 2016 3379 
Q 2528 3379 2825 3049 
Q 3123 2720 3123 2118 
L 3123 0 
L 2611 0 
L 2611 2029 
Q 2611 2918 1862 2918 
Q 1709 2918 1565 2880 
Q 1421 2842 1305 2765 
Q 1190 2688 1123 2569 
Q 1056 2451 1056 2291 
L 1056 0 
L 544 0 
z
" transform="scale(0.015625)"/>
       <path id="IBMPlexSans-Regular-74" d="M 1274 0 
Q 1005 0 867 150 
Q 730 301 730 544 
L 730 2854 
L 186 2854 
L 186 3302 
L 493 3302 
Q 659 3302 720 3369 
Q 781 3437 781 3603 
L 781 4218 
L 1242 4218 
L 1242 3302 
L 1965 3302 
L 1965 2854 
L 1242 2854 
L 1242 448 
L 1914 448 
L 1914 0 
L 1274 0 
z
" transform="scale(0.015625)"/>
       <path id="IBMPlexSans-Regular-69" d="M 800 4077 
Q 634 4077 560 4157 
Q 486 4237 486 4365 
L 486 4448 
Q 486 4576 560 4656 
Q 634 4736 800 4736 
Q 966 4736 1040 4656 
Q 1114 4576 1114 4448 
L 1114 4365 
Q 1114 4237 1040 4157 
Q 966 4077 800 4077 
z
M 544 3302 
L 1056 3302 
L 1056 0 
L 544 0 
L 544 3302 
z
" transform="scale(0.015625)"/>
      </defs>
      <use xlink:href="#IBMPlexSans-Regular-46"/>
      <use xlink:href="#IBMPlexSans-Regular-72" x="55.899994"/>
      <use xlink:href="#IBMPlexSans-Regular-6f" x="92.599991"/>
      <use xlink:href="#IBMPlexSans-Regular-6e" x="148.599976"/>
      <use xlink:href="#IBMPlexSans-Regular-74" x="205.399963"/>
      <use xlink:href="#IBMPlexSans-Regular-69" x="240.499954"/>
      <use xlink:href="#IBMPlexSans-Regular-65" x="265.499939"/>
      <use xlink:href="#IBMPlexSans-Regular-72" x="320.399933"/>
     </g>
    </g>
    <g id="PathCollection_8">
     <defs>
      <path id="m4bd5d3b58f" d="M 0 -4.5 
L -4.5 4.5 
L 4.5 4.5 
z
" style="stroke: #ef5350; stroke-width: 1.5"/>
     </defs>
     <g>
      <use xlink:href="#m4bd5d3b58f" x="740.045156" y="518.7975" style="fill: #ef5350; stroke: #ef5350; stroke-width: 1.5"/>
     </g>
    </g>
    <g id="text_14">
     <!-- PDX -->
     <g style="fill: #838383" transform="translate(799.445156 527.46) scale(0.33 -0.33)">
      <defs>
       <path id="IBMPlexSans-Regular-44" d="M 595 4467 
L 2093 4467 
Q 2509 4467 2848 4326 
Q 3187 4186 3427 3907 
Q 3667 3629 3795 3209 
Q 3923 2790 3923 2234 
Q 3923 1677 3795 1257 
Q 3667 838 3427 560 
Q 3187 282 2848 141 
Q 2509 0 2093 0 
L 595 0 
L 595 4467 
z
M 2093 474 
Q 2368 474 2598 566 
Q 2829 659 2995 838 
Q 3162 1018 3254 1277 
Q 3347 1536 3347 1869 
L 3347 2598 
Q 3347 2931 3254 3190 
Q 3162 3450 2995 3629 
Q 2829 3808 2598 3901 
Q 2368 3994 2093 3994 
L 1133 3994 
L 1133 474 
L 2093 474 
z
" transform="scale(0.015625)"/>
       <path id="IBMPlexSans-Regular-58" d="M 3770 0 
L 3123 0 
L 1952 1875 
L 1939 1875 
L 768 0 
L 154 0 
L 1613 2272 
L 192 4467 
L 838 4467 
L 1958 2688 
L 1971 2688 
L 3117 4467 
L 3731 4467 
L 2298 2291 
L 3770 0 
z
" transform="scale(0.015625)"/>
      </defs>
      <use xlink:href="#IBMPlexSans-Regular-50"/>
      <use xlink:href="#IBMPlexSans-Regular-44" x="60.599991"/>
      <use xlink:href="#IBMPlexSans-Regular-58" x="127.699982"/>
     </g>
    </g>
    <g id="PathCollection_9">
     <defs>
      <path id="m0aa09c74a6" d="M -0 6.363961 
L 3.818377 0 
L 0 -6.363961 
L -3.818377 -0 
z
" style="stroke: #ffa726; stroke-width: 1.5"/>
     </defs>
     <g>
      <use xlink:href="#m0aa09c74a6" x="740.045156" y="566.3175" style="fill: #ffa726; stroke: #ffa726; stroke-width: 1.5"/>
     </g>
    </g>
    <g id="text_15">
     <!-- Leonardo -->
     <g style="fill: #838383" transform="translate(799.445156 574.98) scale(0.33 -0.33)">
      <defs>
       <path id="IBMPlexSans-Regular-61" d="M 2944 0 
Q 2656 0 2531 153 
Q 2406 307 2374 538 
L 2342 538 
Q 2234 230 1984 76 
Q 1734 -77 1389 -77 
Q 864 -77 573 192 
Q 282 461 282 922 
Q 282 1389 624 1638 
Q 966 1888 1690 1888 
L 2342 1888 
L 2342 2214 
Q 2342 2566 2150 2752 
Q 1958 2938 1562 2938 
Q 1261 2938 1059 2803 
Q 858 2669 723 2445 
L 416 2733 
Q 550 3002 844 3190 
Q 1139 3379 1587 3379 
Q 2189 3379 2521 3084 
Q 2854 2790 2854 2266 
L 2854 448 
L 3232 448 
L 3232 0 
L 2944 0 
z
M 1472 358 
Q 1664 358 1824 403 
Q 1984 448 2099 531 
Q 2214 614 2278 723 
Q 2342 832 2342 960 
L 2342 1504 
L 1664 1504 
Q 1222 1504 1020 1376 
Q 819 1248 819 1005 
L 819 870 
Q 819 627 995 492 
Q 1171 358 1472 358 
z
" transform="scale(0.015625)"/>
      </defs>
      <use xlink:href="#IBMPlexSans-Regular-4c"/>
      <use xlink:href="#IBMPlexSans-Regular-65" x="50.099991"/>
      <use xlink:href="#IBMPlexSans-Regular-6f" x="104.999985"/>
      <use xlink:href="#IBMPlexSans-Regular-6e" x="160.999969"/>
      <use xlink:href="#IBMPlexSans-Regular-61" x="217.799957"/>
      <use xlink:href="#IBMPlexSans-Regular-72" x="271.199951"/>
      <use xlink:href="#IBMPlexSans-Regular-64" x="307.899948"/>
      <use xlink:href="#IBMPlexSans-Regular-6f" x="365.899933"/>
     </g>
    </g>
    <g id="line2d_55">
     <path d="M 707.045156 610.95 
L 740.045156 610.95 
L 773.045156 610.95 
" style="fill: none; stroke: #838383; stroke-width: 2.25; stroke-linecap: round"/>
    </g>
    <g id="text_16">
     <!-- SEQ=512 -->
     <g style="fill: #838383" transform="translate(799.445156 622.5) scale(0.33 -0.33)">
      <defs>
       <path id="IBMPlexSans-Regular-51" d="M 3251 -1050 
L 2592 -1050 
Q 2323 -1050 2188 -899 
Q 2054 -749 2054 -525 
L 2054 -70 
Q 1670 -32 1356 134 
Q 1043 301 825 592 
Q 608 883 489 1296 
Q 371 1709 371 2234 
Q 371 2797 505 3225 
Q 640 3654 886 3948 
Q 1133 4243 1481 4393 
Q 1830 4544 2266 4544 
Q 2694 4544 3046 4393 
Q 3398 4243 3644 3948 
Q 3891 3654 4025 3225 
Q 4160 2797 4160 2234 
Q 4160 1203 3731 624 
Q 3302 45 2566 -58 
L 2566 -602 
L 3251 -602 
L 3251 -1050 
z
M 2266 403 
Q 2554 403 2797 505 
Q 3040 608 3216 800 
Q 3392 992 3488 1261 
Q 3584 1530 3584 1862 
L 3584 2605 
Q 3584 2938 3488 3206 
Q 3392 3475 3216 3667 
Q 3040 3859 2797 3961 
Q 2554 4064 2266 4064 
Q 1978 4064 1734 3961 
Q 1491 3859 1315 3667 
Q 1139 3475 1043 3206 
Q 947 2938 947 2605 
L 947 1862 
Q 947 1530 1043 1261 
Q 1139 992 1315 800 
Q 1491 608 1734 505 
Q 1978 403 2266 403 
z
" transform="scale(0.015625)"/>
       <path id="IBMPlexSans-Regular-3d" d="M 429 2381 
L 429 2816 
L 3411 2816 
L 3411 2381 
L 429 2381 
z
M 429 1101 
L 429 1536 
L 3411 1536 
L 3411 1101 
L 429 1101 
z
" transform="scale(0.015625)"/>
      </defs>
      <use xlink:href="#IBMPlexSans-Regular-53"/>
      <use xlink:href="#IBMPlexSans-Regular-45" x="58.099991"/>
      <use xlink:href="#IBMPlexSans-Regular-51" x="116.399979"/>
      <use xlink:href="#IBMPlexSans-Regular-3d" x="187.199966"/>
      <use xlink:href="#IBMPlexSans-Regular-35" x="247.199951"/>
      <use xlink:href="#IBMPlexSans-Regular-31" x="307.199936"/>
      <use xlink:href="#IBMPlexSans-Regular-32" x="367.199921"/>
     </g>
    </g>
    <g id="line2d_56">
     <path d="M 707.045156 658.47 
L 740.045156 658.47 
L 773.045156 658.47 
" style="fill: none; stroke-dasharray: 8.325,3.6; stroke-dashoffset: 0; stroke: #838383; stroke-width: 2.25"/>
    </g>
    <g id="text_17">
     <!-- SEQ=1024 -->
     <g style="fill: #838383" transform="translate(799.445156 670.02) scale(0.33 -0.33)">
      <use xlink:href="#IBMPlexSans-Regular-53"/>
      <use xlink:href="#IBMPlexSans-Regular-45" x="58.099991"/>
      <use xlink:href="#IBMPlexSans-Regular-51" x="116.399979"/>
      <use xlink:href="#IBMPlexSans-Regular-3d" x="187.199966"/>
      <use xlink:href="#IBMPlexSans-Regular-31" x="247.199951"/>
      <use xlink:href="#IBMPlexSans-Regular-30" x="307.199936"/>
      <use xlink:href="#IBMPlexSans-Regular-32" x="367.199921"/>
      <use xlink:href="#IBMPlexSans-Regular-34" x="427.199905"/>
     </g>
    </g>
   </g>
  </g>
 </g>
 <defs>
  <clipPath id="p7ad78fd0d4">
   <rect x="97.117031" y="41.04" width="892.8" height="665.28"/>
  </clipPath>
 </defs>
</svg>
