<?xml version="1.0" encoding="utf-8" standalone="no"?>
<!DOCTYPE svg PUBLIC "-//W3C//DTD SVG 1.1//EN"
  "http://www.w3.org/Graphics/SVG/1.1/DTD/svg11.dtd">
<svg xmlns:xlink="http://www.w3.org/1999/xlink" width="317.220465pt" height="229.269865pt" viewBox="0 0 317.220465 229.269865" xmlns="http://www.w3.org/2000/svg" version="1.1">
 <metadata>
  <rdf:RDF xmlns:dc="http://purl.org/dc/elements/1.1/" xmlns:cc="http://creativecommons.org/ns#" xmlns:rdf="http://www.w3.org/1999/02/22-rdf-syntax-ns#">
   <cc:Work>
    <dc:type rdf:resource="http://purl.org/dc/dcmitype/StillImage"/>
    <dc:date>2025-04-30T15:48:28.901092</dc:date>
    <dc:format>image/svg+xml</dc:format>
    <dc:creator>
     <cc:Agent>
      <dc:title>Matplotlib v3.10.1, https://matplotlib.org/</dc:title>
     </cc:Agent>
    </dc:creator>
   </cc:Work>
  </rdf:RDF>
 </metadata>
 <defs>
  <style type="text/css">*{stroke-linejoin: round; stroke-linecap: butt}</style>
 </defs>
 <g id="figure_1">
  <g id="patch_1">
   <path d="M 0 229.269865 
L 317.220465 229.269865 
L 317.220465 0 
L 0 0 
L 0 229.269865 
z
" style="fill: none"/>
  </g>
  <g id="axes_1">
   <g id="patch_2">
    <path d="M 43.644375 192.009865 
L 310.020465 192.009865 
L 310.020465 28.442513 
L 43.644375 28.442513 
L 43.644375 192.009865 
z
" style="fill: none"/>
   </g>
   <g id="matplotlib.axis_1">
    <g id="xtick_1">
     <g id="line2d_1">
      <path d="M 55.752379 192.009865 
L 55.752379 28.442513 
" clip-path="url(#p6e4fc90d62)" style="fill: none; stroke-dasharray: 1.48,0.64; stroke-dashoffset: 0; stroke: #838383; stroke-opacity: 0.25; stroke-width: 0.4"/>
     </g>
     <g id="text_1">
      <!-- 0 -->
      <g style="fill: #838383" transform="translate(52.152379 204.389865) scale(0.12 -0.12)">
       <defs>
        <path id="IBMPlexSans-Regular-30" d="M 1920 -77 
Q 1120 -77 752 531 
Q 384 1139 384 2234 
Q 384 3328 752 3936 
Q 1120 4544 1920 4544 
Q 2720 4544 3088 3936 
Q 3456 3328 3456 2234 
Q 3456 1139 3088 531 
Q 2720 -77 1920 -77 
z
M 1920 390 
Q 2182 390 2368 499 
Q 2554 608 2669 806 
Q 2784 1005 2838 1273 
Q 2893 1542 2893 1869 
L 2893 2598 
Q 2893 2925 2838 3193 
Q 2784 3462 2669 3660 
Q 2554 3859 2368 3968 
Q 2182 4077 1920 4077 
Q 1658 4077 1472 3968 
Q 1286 3859 1171 3660 
Q 1056 3462 1001 3193 
Q 947 2925 947 2598 
L 947 1869 
Q 947 1542 1001 1273 
Q 1056 1005 1171 806 
Q 1286 608 1472 499 
Q 1658 390 1920 390 
z
" transform="scale(0.015625)"/>
       </defs>
       <use xlink:href="#IBMPlexSans-Regular-30"/>
      </g>
     </g>
    </g>
    <g id="xtick_2">
     <g id="line2d_2">
      <path d="M 119.478716 192.009865 
L 119.478716 28.442513 
" clip-path="url(#p6e4fc90d62)" style="fill: none; stroke-dasharray: 1.48,0.64; stroke-dashoffset: 0; stroke: #838383; stroke-opacity: 0.25; stroke-width: 0.4"/>
     </g>
     <g id="text_2">
      <!-- 5 -->
      <g style="fill: #838383" transform="translate(115.878716 204.389865) scale(0.12 -0.12)">
       <defs>
        <path id="IBMPlexSans-Regular-35" d="M 3187 3994 
L 1229 3994 
L 1101 2291 
L 1146 2291 
Q 1306 2515 1507 2649 
Q 1709 2784 2061 2784 
Q 2349 2784 2592 2688 
Q 2835 2592 3014 2416 
Q 3194 2240 3293 1984 
Q 3392 1728 3392 1402 
Q 3392 1075 3289 803 
Q 3187 531 2992 336 
Q 2797 141 2518 32 
Q 2240 -77 1888 -77 
Q 1606 -77 1392 -13 
Q 1178 51 1011 160 
Q 845 269 720 403 
Q 595 538 493 685 
L 896 992 
Q 979 858 1072 749 
Q 1165 640 1277 563 
Q 1389 486 1536 444 
Q 1683 403 1888 403 
Q 2349 403 2585 646 
Q 2822 890 2822 1331 
L 2822 1395 
Q 2822 1837 2585 2080 
Q 2349 2323 1888 2323 
Q 1581 2323 1405 2211 
Q 1229 2099 1088 1946 
L 634 2010 
L 794 4467 
L 3187 4467 
L 3187 3994 
z
" transform="scale(0.015625)"/>
       </defs>
       <use xlink:href="#IBMPlexSans-Regular-35"/>
      </g>
     </g>
    </g>
    <g id="xtick_3">
     <g id="line2d_3">
      <path d="M 183.205054 192.009865 
L 183.205054 28.442513 
" clip-path="url(#p6e4fc90d62)" style="fill: none; stroke-dasharray: 1.48,0.64; stroke-dashoffset: 0; stroke: #838383; stroke-opacity: 0.25; stroke-width: 0.4"/>
     </g>
     <g id="text_3">
      <!-- 10 -->
      <g style="fill: #838383" transform="translate(176.005054 204.389865) scale(0.12 -0.12)">
       <defs>
        <path id="IBMPlexSans-Regular-31" d="M 563 0 
L 563 474 
L 1811 474 
L 1811 4070 
L 1766 4070 
L 640 3021 
L 326 3360 
L 1510 4467 
L 2349 4467 
L 2349 474 
L 3501 474 
L 3501 0 
L 563 0 
z
" transform="scale(0.015625)"/>
       </defs>
       <use xlink:href="#IBMPlexSans-Regular-31"/>
       <use xlink:href="#IBMPlexSans-Regular-30" transform="translate(59.999985 0)"/>
      </g>
     </g>
    </g>
    <g id="xtick_4">
     <g id="line2d_4">
      <path d="M 246.931391 192.009865 
L 246.931391 28.442513 
" clip-path="url(#p6e4fc90d62)" style="fill: none; stroke-dasharray: 1.48,0.64; stroke-dashoffset: 0; stroke: #838383; stroke-opacity: 0.25; stroke-width: 0.4"/>
     </g>
     <g id="text_4">
      <!-- 15 -->
      <g style="fill: #838383" transform="translate(239.731391 204.389865) scale(0.12 -0.12)">
       <use xlink:href="#IBMPlexSans-Regular-31"/>
       <use xlink:href="#IBMPlexSans-Regular-35" transform="translate(59.999985 0)"/>
      </g>
     </g>
    </g>
    <g id="text_5">
     <!-- draw -->
     <g style="fill: #838383" transform="translate(163.338045 219.669865) scale(0.12 -0.12)">
      <defs>
       <path id="IBMPlexSans-Regular-64" d="M 2656 538 
L 2630 538 
Q 2330 -77 1664 -77 
Q 1357 -77 1107 44 
Q 858 166 682 390 
Q 506 614 413 934 
Q 320 1254 320 1651 
Q 320 2048 413 2368 
Q 506 2688 682 2912 
Q 858 3136 1107 3257 
Q 1357 3379 1664 3379 
Q 2010 3379 2256 3228 
Q 2502 3078 2630 2765 
L 2656 2765 
L 2656 4736 
L 3168 4736 
L 3168 0 
L 2656 0 
L 2656 538 
z
M 1805 384 
Q 1978 384 2134 429 
Q 2291 474 2406 560 
Q 2522 646 2589 771 
Q 2656 896 2656 1056 
L 2656 2285 
Q 2656 2419 2589 2537 
Q 2522 2656 2406 2739 
Q 2291 2822 2134 2870 
Q 1978 2918 1805 2918 
Q 1370 2918 1120 2646 
Q 870 2374 870 1933 
L 870 1370 
Q 870 928 1120 656 
Q 1370 384 1805 384 
z
" transform="scale(0.015625)"/>
       <path id="IBMPlexSans-Regular-72" d="M 544 0 
L 544 3302 
L 1056 3302 
L 1056 2694 
L 1088 2694 
Q 1178 2931 1408 3116 
Q 1638 3302 2042 3302 
L 2240 3302 
L 2240 2790 
L 1939 2790 
Q 1523 2790 1289 2633 
Q 1056 2477 1056 2240 
L 1056 0 
L 544 0 
z
" transform="scale(0.015625)"/>
       <path id="IBMPlexSans-Regular-61" d="M 2944 0 
Q 2656 0 2531 153 
Q 2406 307 2374 538 
L 2342 538 
Q 2234 230 1984 76 
Q 1734 -77 1389 -77 
Q 864 -77 573 192 
Q 282 461 282 922 
Q 282 1389 624 1638 
Q 966 1888 1690 1888 
L 2342 1888 
L 2342 2214 
Q 2342 2566 2150 2752 
Q 1958 2938 1562 2938 
Q 1261 2938 1059 2803 
Q 858 2669 723 2445 
L 416 2733 
Q 550 3002 844 3190 
Q 1139 3379 1587 3379 
Q 2189 3379 2521 3084 
Q 2854 2790 2854 2266 
L 2854 448 
L 3232 448 
L 3232 0 
L 2944 0 
z
M 1472 358 
Q 1664 358 1824 403 
Q 1984 448 2099 531 
Q 2214 614 2278 723 
Q 2342 832 2342 960 
L 2342 1504 
L 1664 1504 
Q 1222 1504 1020 1376 
Q 819 1248 819 1005 
L 819 870 
Q 819 627 995 492 
Q 1171 358 1472 358 
z
" transform="scale(0.015625)"/>
       <path id="IBMPlexSans-Regular-77" d="M 198 3302 
L 698 3302 
L 1050 1875 
L 1402 429 
L 1414 429 
L 1818 1875 
L 2234 3302 
L 2688 3302 
L 3117 1875 
L 3526 429 
L 3539 429 
L 3878 1875 
L 4237 3302 
L 4717 3302 
L 3840 0 
L 3206 0 
L 2746 1587 
L 2458 2592 
L 2445 2592 
L 2163 1587 
L 1702 0 
L 1082 0 
L 198 3302 
z
" transform="scale(0.015625)"/>
      </defs>
      <use xlink:href="#IBMPlexSans-Regular-64"/>
      <use xlink:href="#IBMPlexSans-Regular-72" transform="translate(57.999985 0)"/>
      <use xlink:href="#IBMPlexSans-Regular-61" transform="translate(94.699982 0)"/>
      <use xlink:href="#IBMPlexSans-Regular-77" transform="translate(148.099976 0)"/>
     </g>
    </g>
   </g>
   <g id="matplotlib.axis_2">
    <g id="ytick_1">
     <g id="line2d_5">
      <path d="M 43.644375 159.792053 
L 310.020465 159.792053 
" clip-path="url(#p6e4fc90d62)" style="fill: none; stroke-dasharray: 1.48,0.64; stroke-dashoffset: 0; stroke: #838383; stroke-opacity: 0.25; stroke-width: 0.4"/>
     </g>
     <g id="text_6">
      <!-- 5.8 -->
      <g style="fill: #838383" transform="translate(22.48 164.232053) scale(0.12 -0.12)">
       <defs>
        <path id="IBMPlexSans-Regular-2e" d="M 870 -77 
Q 666 -77 573 25 
Q 480 128 480 294 
L 480 378 
Q 480 544 573 646 
Q 666 749 870 749 
Q 1075 749 1168 646 
Q 1261 544 1261 378 
L 1261 294 
Q 1261 128 1168 25 
Q 1075 -77 870 -77 
z
" transform="scale(0.015625)"/>
        <path id="IBMPlexSans-Regular-38" d="M 1920 -77 
Q 1536 -77 1248 22 
Q 960 122 765 294 
Q 570 467 470 704 
Q 371 941 371 1216 
Q 371 1677 620 1945 
Q 870 2214 1274 2323 
L 1274 2374 
Q 922 2496 714 2768 
Q 506 3040 506 3424 
Q 506 3936 877 4240 
Q 1248 4544 1920 4544 
Q 2592 4544 2963 4240 
Q 3334 3936 3334 3424 
Q 3334 3040 3126 2768 
Q 2918 2496 2566 2374 
L 2566 2323 
Q 2970 2214 3219 1945 
Q 3469 1677 3469 1216 
Q 3469 941 3369 704 
Q 3270 467 3075 294 
Q 2880 122 2592 22 
Q 2304 -77 1920 -77 
z
M 1920 390 
Q 2387 390 2643 598 
Q 2899 806 2899 1190 
L 2899 1325 
Q 2899 1709 2643 1917 
Q 2387 2125 1920 2125 
Q 1453 2125 1197 1917 
Q 941 1709 941 1325 
L 941 1190 
Q 941 806 1197 598 
Q 1453 390 1920 390 
z
M 1920 2573 
Q 2342 2573 2560 2752 
Q 2778 2931 2778 3277 
L 2778 3373 
Q 2778 3718 2560 3897 
Q 2342 4077 1920 4077 
Q 1498 4077 1280 3897 
Q 1062 3718 1062 3373 
L 1062 3277 
Q 1062 2931 1280 2752 
Q 1498 2573 1920 2573 
z
" transform="scale(0.015625)"/>
       </defs>
       <use xlink:href="#IBMPlexSans-Regular-35"/>
       <use xlink:href="#IBMPlexSans-Regular-2e" transform="translate(59.999985 0)"/>
       <use xlink:href="#IBMPlexSans-Regular-38" transform="translate(87.199982 0)"/>
      </g>
     </g>
    </g>
    <g id="ytick_2">
     <g id="line2d_6">
      <path d="M 43.644375 110.226189 
L 310.020465 110.226189 
" clip-path="url(#p6e4fc90d62)" style="fill: none; stroke-dasharray: 1.48,0.64; stroke-dashoffset: 0; stroke: #838383; stroke-opacity: 0.25; stroke-width: 0.4"/>
     </g>
     <g id="text_7">
      <!-- 6.0 -->
      <g style="fill: #838383" transform="translate(22.48 114.666189) scale(0.12 -0.12)">
       <defs>
        <path id="IBMPlexSans-Regular-36" d="M 1926 -77 
Q 1581 -77 1302 41 
Q 1024 160 829 381 
Q 634 602 531 922 
Q 429 1242 429 1638 
Q 429 2138 576 2576 
Q 723 3014 956 3376 
Q 1190 3738 1472 4016 
Q 1754 4294 2022 4467 
L 2714 4467 
Q 2355 4205 2073 3955 
Q 1792 3706 1581 3434 
Q 1370 3162 1222 2851 
Q 1075 2541 986 2150 
L 1018 2138 
Q 1178 2413 1430 2595 
Q 1683 2778 2093 2778 
Q 2381 2778 2624 2682 
Q 2867 2586 3040 2406 
Q 3213 2227 3312 1971 
Q 3411 1715 3411 1402 
Q 3411 1075 3305 803 
Q 3200 531 3005 336 
Q 2810 141 2534 32 
Q 2259 -77 1926 -77 
z
M 1920 390 
Q 2362 390 2608 633 
Q 2854 877 2854 1331 
L 2854 1382 
Q 2854 1837 2608 2080 
Q 2362 2323 1920 2323 
Q 1478 2323 1232 2080 
Q 986 1837 986 1382 
L 986 1331 
Q 986 877 1232 633 
Q 1478 390 1920 390 
z
" transform="scale(0.015625)"/>
       </defs>
       <use xlink:href="#IBMPlexSans-Regular-36"/>
       <use xlink:href="#IBMPlexSans-Regular-2e" transform="translate(59.999985 0)"/>
       <use xlink:href="#IBMPlexSans-Regular-30" transform="translate(87.199982 0)"/>
      </g>
     </g>
    </g>
    <g id="ytick_3">
     <g id="line2d_7">
      <path d="M 43.644375 60.660325 
L 310.020465 60.660325 
" clip-path="url(#p6e4fc90d62)" style="fill: none; stroke-dasharray: 1.48,0.64; stroke-dashoffset: 0; stroke: #838383; stroke-opacity: 0.25; stroke-width: 0.4"/>
     </g>
     <g id="text_8">
      <!-- 6.2 -->
      <g style="fill: #838383" transform="translate(22.48 65.100325) scale(0.12 -0.12)">
       <defs>
        <path id="IBMPlexSans-Regular-32" d="M 3411 0 
L 480 0 
L 480 550 
L 1939 1894 
Q 2253 2182 2464 2505 
Q 2675 2829 2675 3155 
L 2675 3232 
Q 2675 3603 2470 3833 
Q 2266 4064 1850 4064 
Q 1645 4064 1491 4006 
Q 1338 3949 1226 3846 
Q 1114 3744 1040 3606 
Q 966 3469 922 3309 
L 442 3494 
Q 506 3693 618 3881 
Q 730 4070 899 4217 
Q 1069 4365 1309 4454 
Q 1549 4544 1875 4544 
Q 2202 4544 2458 4448 
Q 2714 4352 2886 4179 
Q 3059 4006 3152 3769 
Q 3245 3533 3245 3245 
Q 3245 2982 3171 2758 
Q 3098 2534 2970 2332 
Q 2842 2131 2659 1939 
Q 2477 1747 2266 1555 
L 1062 474 
L 3411 474 
L 3411 0 
z
" transform="scale(0.015625)"/>
       </defs>
       <use xlink:href="#IBMPlexSans-Regular-36"/>
       <use xlink:href="#IBMPlexSans-Regular-2e" transform="translate(59.999985 0)"/>
       <use xlink:href="#IBMPlexSans-Regular-32" transform="translate(87.199982 0)"/>
      </g>
     </g>
    </g>
    <g id="text_9">
     <!-- beta -->
     <g style="fill: #838383" transform="translate(16.08 122.310564) rotate(-90) scale(0.12 -0.12)">
      <defs>
       <path id="IBMPlexSans-Regular-62" d="M 544 4736 
L 1056 4736 
L 1056 2765 
L 1082 2765 
Q 1210 3078 1456 3228 
Q 1702 3379 2048 3379 
Q 2355 3379 2604 3257 
Q 2854 3136 3030 2912 
Q 3206 2688 3299 2368 
Q 3392 2048 3392 1651 
Q 3392 1254 3299 934 
Q 3206 614 3030 390 
Q 2854 166 2604 44 
Q 2355 -77 2048 -77 
Q 1376 -77 1082 538 
L 1056 538 
L 1056 0 
L 544 0 
L 544 4736 
z
M 1907 384 
Q 2342 384 2592 656 
Q 2842 928 2842 1370 
L 2842 1933 
Q 2842 2374 2592 2646 
Q 2342 2918 1907 2918 
Q 1734 2918 1577 2870 
Q 1421 2822 1305 2739 
Q 1190 2656 1123 2537 
Q 1056 2419 1056 2285 
L 1056 1056 
Q 1056 896 1123 771 
Q 1190 646 1305 560 
Q 1421 474 1577 429 
Q 1734 384 1907 384 
z
" transform="scale(0.015625)"/>
       <path id="IBMPlexSans-Regular-65" d="M 1786 -77 
Q 1446 -77 1174 44 
Q 902 166 707 393 
Q 512 621 406 937 
Q 301 1254 301 1651 
Q 301 2042 406 2362 
Q 512 2682 707 2909 
Q 902 3136 1174 3257 
Q 1446 3379 1786 3379 
Q 2118 3379 2380 3257 
Q 2643 3136 2828 2921 
Q 3014 2707 3113 2412 
Q 3213 2118 3213 1766 
L 3213 1523 
L 838 1523 
L 838 1370 
Q 838 1158 905 976 
Q 973 794 1097 659 
Q 1222 525 1404 448 
Q 1587 371 1818 371 
Q 2131 371 2364 518 
Q 2598 666 2726 941 
L 3091 678 
Q 2931 339 2592 131 
Q 2253 -77 1786 -77 
z
M 1786 2950 
Q 1574 2950 1401 2876 
Q 1229 2803 1104 2668 
Q 979 2534 908 2352 
Q 838 2170 838 1952 
L 838 1907 
L 2662 1907 
L 2662 1978 
Q 2662 2419 2422 2684 
Q 2182 2950 1786 2950 
z
" transform="scale(0.015625)"/>
       <path id="IBMPlexSans-Regular-74" d="M 1274 0 
Q 1005 0 867 150 
Q 730 301 730 544 
L 730 2854 
L 186 2854 
L 186 3302 
L 493 3302 
Q 659 3302 720 3369 
Q 781 3437 781 3603 
L 781 4218 
L 1242 4218 
L 1242 3302 
L 1965 3302 
L 1965 2854 
L 1242 2854 
L 1242 448 
L 1914 448 
L 1914 0 
L 1274 0 
z
" transform="scale(0.015625)"/>
      </defs>
      <use xlink:href="#IBMPlexSans-Regular-62"/>
      <use xlink:href="#IBMPlexSans-Regular-65" transform="translate(57.999985 0)"/>
      <use xlink:href="#IBMPlexSans-Regular-74" transform="translate(112.899979 0)"/>
      <use xlink:href="#IBMPlexSans-Regular-61" transform="translate(147.999969 0)"/>
     </g>
    </g>
   </g>
   <g id="line2d_8">
    <path d="M 55.752379 110.226189 
L 68.497647 110.226189 
L 81.242914 110.226189 
L 93.988181 110.226189 
L 106.733449 110.226189 
L 119.478716 110.226189 
L 132.223984 110.226189 
L 144.969251 110.226189 
L 157.714519 110.226189 
L 170.459786 110.226189 
L 183.205054 110.226189 
L 195.950321 110.226189 
L 208.695588 110.226189 
L 221.440856 110.226189 
L 234.186123 110.226189 
L 246.931391 110.226189 
L 259.676658 110.226189 
L 272.421926 110.226189 
L 285.167193 110.226189 
L 297.912461 110.226189 
" clip-path="url(#p6e4fc90d62)" style="fill: none; stroke: #ffa726; stroke-width: 1.5; stroke-linecap: round"/>
   </g>
  </g>
  <g id="text_10">
   <!-- Train -->
   <g style="fill: #838383" transform="translate(156.040156 17.856) scale(0.144 -0.144)">
    <defs>
     <path id="IBMPlexSans-Regular-54" d="M 2099 3994 
L 2099 0 
L 1562 0 
L 1562 3994 
L 141 3994 
L 141 4467 
L 3520 4467 
L 3520 3994 
L 2099 3994 
z
" transform="scale(0.015625)"/>
     <path id="IBMPlexSans-Regular-69" d="M 800 4077 
Q 634 4077 560 4157 
Q 486 4237 486 4365 
L 486 4448 
Q 486 4576 560 4656 
Q 634 4736 800 4736 
Q 966 4736 1040 4656 
Q 1114 4576 1114 4448 
L 1114 4365 
Q 1114 4237 1040 4157 
Q 966 4077 800 4077 
z
M 544 3302 
L 1056 3302 
L 1056 0 
L 544 0 
L 544 3302 
z
" transform="scale(0.015625)"/>
     <path id="IBMPlexSans-Regular-6e" d="M 544 0 
L 544 3302 
L 1056 3302 
L 1056 2765 
L 1082 2765 
Q 1203 3046 1424 3212 
Q 1645 3379 2016 3379 
Q 2528 3379 2825 3049 
Q 3123 2720 3123 2118 
L 3123 0 
L 2611 0 
L 2611 2029 
Q 2611 2918 1862 2918 
Q 1709 2918 1565 2880 
Q 1421 2842 1305 2765 
Q 1190 2688 1123 2569 
Q 1056 2451 1056 2291 
L 1056 0 
L 544 0 
z
" transform="scale(0.015625)"/>
    </defs>
    <use xlink:href="#IBMPlexSans-Regular-54"/>
    <use xlink:href="#IBMPlexSans-Regular-72" transform="translate(57.199997 0)"/>
    <use xlink:href="#IBMPlexSans-Regular-61" transform="translate(93.899994 0)"/>
    <use xlink:href="#IBMPlexSans-Regular-69" transform="translate(147.299988 0)"/>
    <use xlink:href="#IBMPlexSans-Regular-6e" transform="translate(172.299973 0)"/>
   </g>
  </g>
 </g>
 <defs>
  <clipPath id="p6e4fc90d62">
   <rect x="43.644375" y="28.442513" width="266.37609" height="163.567352"/>
  </clipPath>
 </defs>
</svg>
