<?xml version="1.0" encoding="utf-8" standalone="no"?>
<!DOCTYPE svg PUBLIC "-//W3C//DTD SVG 1.1//EN"
  "http://www.w3.org/Graphics/SVG/1.1/DTD/svg11.dtd">
<svg xmlns:xlink="http://www.w3.org/1999/xlink" width="223.65pt" height="174.26pt" viewBox="0 0 223.65 174.26" xmlns="http://www.w3.org/2000/svg" version="1.1">
 <metadata>
  <rdf:RDF xmlns:dc="http://purl.org/dc/elements/1.1/" xmlns:cc="http://creativecommons.org/ns#" xmlns:rdf="http://www.w3.org/1999/02/22-rdf-syntax-ns#">
   <cc:Work>
    <dc:type rdf:resource="http://purl.org/dc/dcmitype/StillImage"/>
    <dc:date>2025-04-30T16:02:27.545481</dc:date>
    <dc:format>image/svg+xml</dc:format>
    <dc:creator>
     <cc:Agent>
      <dc:title>Matplotlib v3.10.1, https://matplotlib.org/</dc:title>
     </cc:Agent>
    </dc:creator>
   </cc:Work>
  </rdf:RDF>
 </metadata>
 <defs>
  <style type="text/css">*{stroke-linejoin: round; stroke-linecap: butt}</style>
 </defs>
 <g id="figure_1">
  <g id="patch_1">
   <path d="M 0 174.26 
L 223.65 174.26 
L 223.65 0 
L 0 0 
L 0 174.26 
z
" style="fill: none"/>
  </g>
  <g id="axes_1">
   <g id="patch_2">
    <path d="M 7.2 48.78 
L 216.45 48.78 
L 216.45 7.2 
L 7.2 7.2 
L 7.2 48.78 
z
" style="fill: none"/>
   </g>
   <g id="matplotlib.axis_1">
    <g id="xtick_1"/>
    <g id="xtick_2"/>
    <g id="xtick_3"/>
    <g id="xtick_4"/>
    <g id="xtick_5"/>
   </g>
   <g id="matplotlib.axis_2"/>
   <g id="line2d_1">
    <path d="M 7.2 48.78 
L 216.45 48.78 
" style="fill: none; stroke: #482475; stroke-opacity: 0.9; stroke-linecap: round"/>
   </g>
   <g id="text_1">
    <!-- 0 -->
    <g style="fill: #482475" transform="translate(7.2 47.862) scale(0.12 -0.12)">
     <defs>
      <path id="IBMPlexSans-Bold-30" d="M 1920 -77 
Q 1043 -77 620 531 
Q 198 1139 198 2234 
Q 198 3328 620 3936 
Q 1043 4544 1920 4544 
Q 2797 4544 3219 3936 
Q 3642 3328 3642 2234 
Q 3642 1139 3219 531 
Q 2797 -77 1920 -77 
z
M 1920 736 
Q 2304 736 2451 1017 
Q 2598 1299 2598 1811 
L 2598 2656 
Q 2598 3168 2451 3449 
Q 2304 3731 1920 3731 
Q 1536 3731 1389 3449 
Q 1242 3168 1242 2656 
L 1242 1811 
Q 1242 1299 1389 1017 
Q 1536 736 1920 736 
z
" transform="scale(0.015625)"/>
     </defs>
     <use xlink:href="#IBMPlexSans-Bold-30"/>
    </g>
   </g>
  </g>
  <g id="axes_2">
   <g id="patch_3">
    <path d="M 7.2 59.175 
L 216.45 59.175 
L 216.45 17.595 
L 7.2 17.595 
L 7.2 59.175 
z
" style="fill: none"/>
   </g>
   <g id="matplotlib.axis_3">
    <g id="xtick_6"/>
    <g id="xtick_7"/>
    <g id="xtick_8"/>
    <g id="xtick_9"/>
    <g id="xtick_10"/>
   </g>
   <g id="matplotlib.axis_4"/>
   <g id="FillBetweenPolyCollection_1">
    <defs>
     <path id="mb849060945" d="M 89.67713 -121.578552 
L 89.67713 -115.085 
L 89.898079 -115.085 
L 90.119029 -115.085 
L 90.339978 -115.085 
L 90.560928 -115.085 
L 90.781878 -115.085 
L 91.002827 -115.085 
L 91.223777 -115.085 
L 91.444727 -115.085 
L 91.665676 -115.085 
L 91.886626 -115.085 
L 92.107575 -115.085 
L 92.328525 -115.085 
L 92.549475 -115.085 
L 92.770424 -115.085 
L 92.991374 -115.085 
L 93.212324 -115.085 
L 93.433273 -115.085 
L 93.654223 -115.085 
L 93.875172 -115.085 
L 94.096122 -115.085 
L 94.317072 -115.085 
L 94.538021 -115.085 
L 94.758971 -115.085 
L 94.979921 -115.085 
L 95.20087 -115.085 
L 95.42182 -115.085 
L 95.642769 -115.085 
L 95.863719 -115.085 
L 96.084669 -115.085 
L 96.305618 -115.085 
L 96.526568 -115.085 
L 96.747518 -115.085 
L 96.968467 -115.085 
L 97.189417 -115.085 
L 97.410367 -115.085 
L 97.631316 -115.085 
L 97.852266 -115.085 
L 98.073215 -115.085 
L 98.294165 -115.085 
L 98.515115 -115.085 
L 98.736064 -115.085 
L 98.957014 -115.085 
L 99.177964 -115.085 
L 99.398913 -115.085 
L 99.619863 -115.085 
L 99.840812 -115.085 
L 100.061762 -115.085 
L 100.282712 -115.085 
L 100.503661 -115.085 
L 100.724611 -115.085 
L 100.945561 -115.085 
L 101.16651 -115.085 
L 101.38746 -115.085 
L 101.608409 -115.085 
L 101.829359 -115.085 
L 102.050309 -115.085 
L 102.271258 -115.085 
L 102.492208 -115.085 
L 102.713158 -115.085 
L 102.934107 -115.085 
L 103.155057 -115.085 
L 103.376006 -115.085 
L 103.596956 -115.085 
L 103.817906 -115.085 
L 104.038855 -115.085 
L 104.259805 -115.085 
L 104.480755 -115.085 
L 104.701704 -115.085 
L 104.922654 -115.085 
L 105.143603 -115.085 
L 105.364553 -115.085 
L 105.585503 -115.085 
L 105.806452 -115.085 
L 106.027402 -115.085 
L 106.248352 -115.085 
L 106.469301 -115.085 
L 106.690251 -115.085 
L 106.9112 -115.085 
L 107.13215 -115.085 
L 107.3531 -115.085 
L 107.574049 -115.085 
L 107.794999 -115.085 
L 108.015949 -115.085 
L 108.236898 -115.085 
L 108.457848 -115.085 
L 108.678797 -115.085 
L 108.899747 -115.085 
L 109.120697 -115.085 
L 109.341646 -115.085 
L 109.562596 -115.085 
L 109.783546 -115.085 
L 110.004495 -115.085 
L 110.225445 -115.085 
L 110.446394 -115.085 
L 110.667344 -115.085 
L 110.888294 -115.085 
L 111.109243 -115.085 
L 111.330193 -115.085 
L 111.551143 -115.085 
L 111.772092 -115.085 
L 111.993042 -115.085 
L 112.213991 -115.085 
L 112.434941 -115.085 
L 112.655891 -115.085 
L 112.87684 -115.085 
L 113.09779 -115.085 
L 113.31874 -115.085 
L 113.539689 -115.085 
L 113.760639 -115.085 
L 113.981588 -115.085 
L 114.202538 -115.085 
L 114.423488 -115.085 
L 114.644437 -115.085 
L 114.865387 -115.085 
L 115.086337 -115.085 
L 115.307286 -115.085 
L 115.528236 -115.085 
L 115.749185 -115.085 
L 115.970135 -115.085 
L 116.191085 -115.085 
L 116.412034 -115.085 
L 116.632984 -115.085 
L 116.853934 -115.085 
L 117.074883 -115.085 
L 117.295833 -115.085 
L 117.516783 -115.085 
L 117.737732 -115.085 
L 117.958682 -115.085 
L 118.179631 -115.085 
L 118.400581 -115.085 
L 118.621531 -115.085 
L 118.84248 -115.085 
L 119.06343 -115.085 
L 119.28438 -115.085 
L 119.505329 -115.085 
L 119.726279 -115.085 
L 119.947228 -115.085 
L 120.168178 -115.085 
L 120.389128 -115.085 
L 120.610077 -115.085 
L 120.831027 -115.085 
L 121.051977 -115.085 
L 121.272926 -115.085 
L 121.493876 -115.085 
L 121.714825 -115.085 
L 121.935775 -115.085 
L 122.156725 -115.085 
L 122.377674 -115.085 
L 122.598624 -115.085 
L 122.819574 -115.085 
L 123.040523 -115.085 
L 123.261473 -115.085 
L 123.482422 -115.085 
L 123.703372 -115.085 
L 123.924322 -115.085 
L 124.145271 -115.085 
L 124.366221 -115.085 
L 124.587171 -115.085 
L 124.80812 -115.085 
L 125.02907 -115.085 
L 125.250019 -115.085 
L 125.470969 -115.085 
L 125.691919 -115.085 
L 125.912868 -115.085 
L 126.133818 -115.085 
L 126.354768 -115.085 
L 126.575717 -115.085 
L 126.796667 -115.085 
L 127.017616 -115.085 
L 127.238566 -115.085 
L 127.459516 -115.085 
L 127.680465 -115.085 
L 127.901415 -115.085 
L 128.122365 -115.085 
L 128.343314 -115.085 
L 128.564264 -115.085 
L 128.785213 -115.085 
L 129.006163 -115.085 
L 129.227113 -115.085 
L 129.448062 -115.085 
L 129.669012 -115.085 
L 129.889962 -115.085 
L 130.110911 -115.085 
L 130.331861 -115.085 
L 130.55281 -115.085 
L 130.77376 -115.085 
L 130.99471 -115.085 
L 131.215659 -115.085 
L 131.436609 -115.085 
L 131.657559 -115.085 
L 131.878508 -115.085 
L 132.099458 -115.085 
L 132.320407 -115.085 
L 132.541357 -115.085 
L 132.762307 -115.085 
L 132.983256 -115.085 
L 133.204206 -115.085 
L 133.425156 -115.085 
L 133.646105 -115.085 
L 133.646105 -122.131703 
L 133.646105 -122.131703 
L 133.425156 -122.794425 
L 133.204206 -123.489689 
L 132.983256 -124.215891 
L 132.762307 -124.97114 
L 132.541357 -125.753298 
L 132.320407 -126.560012 
L 132.099458 -127.388765 
L 131.878508 -128.23692 
L 131.657559 -129.101779 
L 131.436609 -129.980629 
L 131.215659 -130.870801 
L 130.99471 -131.769711 
L 130.77376 -132.674908 
L 130.55281 -133.584102 
L 130.331861 -134.495187 
L 130.110911 -135.406259 
L 129.889962 -136.315604 
L 129.669012 -137.22169 
L 129.448062 -138.123134 
L 129.227113 -139.018656 
L 129.006163 -139.907032 
L 128.785213 -140.787022 
L 128.564264 -141.6573 
L 128.343314 -142.516378 
L 128.122365 -143.362528 
L 127.901415 -144.193704 
L 127.680465 -145.007481 
L 127.459516 -145.800992 
L 127.238566 -146.57089 
L 127.017616 -147.313321 
L 126.796667 -148.023923 
L 126.575717 -148.697845 
L 126.354768 -149.329791 
L 126.133818 -149.914089 
L 125.912868 -150.444781 
L 125.691919 -150.915742 
L 125.470969 -151.32081 
L 125.250019 -151.65394 
L 125.02907 -151.90936 
L 124.80812 -152.081747 
L 124.587171 -152.166391 
L 124.366221 -152.159361 
L 124.145271 -152.057665 
L 123.924322 -151.859384 
L 123.703372 -151.563796 
L 123.482422 -151.171467 
L 123.261473 -150.684318 
L 123.040523 -150.105662 
L 122.819574 -149.4402 
L 122.598624 -148.693992 
L 122.377674 -147.874388 
L 122.156725 -146.989933 
L 121.935775 -146.050239 
L 121.714825 -145.06583 
L 121.493876 -144.047967 
L 121.272926 -143.00846 
L 121.051977 -141.959459 
L 120.831027 -140.913248 
L 120.610077 -139.882031 
L 120.389128 -138.877728 
L 120.168178 -137.911779 
L 119.947228 -136.994959 
L 119.726279 -136.137217 
L 119.505329 -135.347532 
L 119.28438 -134.633801 
L 119.06343 -134.002741 
L 118.84248 -133.459834 
L 118.621531 -133.009289 
L 118.400581 -132.654033 
L 118.179631 -132.395737 
L 117.958682 -132.234857 
L 117.737732 -132.170701 
L 117.516783 -132.201514 
L 117.295833 -132.324585 
L 117.074883 -132.536356 
L 116.853934 -132.832548 
L 116.632984 -133.208287 
L 116.412034 -133.658233 
L 116.191085 -134.176702 
L 115.970135 -134.757789 
L 115.749185 -135.395466 
L 115.528236 -136.083688 
L 115.307286 -136.816462 
L 115.086337 -137.587918 
L 114.865387 -138.392348 
L 114.644437 -139.224238 
L 114.423488 -140.078276 
L 114.202538 -140.949347 
L 113.981588 -141.83251 
L 113.760639 -142.722972 
L 113.539689 -143.616041 
L 113.31874 -144.507085 
L 113.09779 -145.391483 
L 112.87684 -146.264582 
L 112.655891 -147.121655 
L 112.434941 -147.957873 
L 112.213991 -148.768291 
L 111.993042 -149.547841 
L 111.772092 -150.291351 
L 111.551143 -150.993578 
L 111.330193 -151.649256 
L 111.109243 -152.253167 
L 110.888294 -152.800221 
L 110.667344 -153.285558 
L 110.446394 -153.704648 
L 110.225445 -154.053405 
L 110.004495 -154.328297 
L 109.783546 -154.526457 
L 109.562596 -154.645777 
L 109.341646 -154.685 
L 109.120697 -154.643781 
L 108.899747 -154.522738 
L 108.678797 -154.323469 
L 108.457848 -154.048551 
L 108.236898 -153.701504 
L 108.015949 -153.286732 
L 107.794999 -152.809437 
L 107.574049 -152.275507 
L 107.3531 -151.691385 
L 107.13215 -151.063926 
L 106.9112 -150.400231 
L 106.690251 -149.707491 
L 106.469301 -148.992818 
L 106.248352 -148.263089 
L 106.027402 -147.524794 
L 105.806452 -146.783912 
L 105.585503 -146.045794 
L 105.364553 -145.315085 
L 105.143603 -144.595655 
L 104.922654 -143.89058 
L 104.701704 -143.202133 
L 104.480755 -142.531815 
L 104.259805 -141.880409 
L 104.038855 -141.248054 
L 103.817906 -140.634351 
L 103.596956 -140.038467 
L 103.376006 -139.459265 
L 103.155057 -138.895435 
L 102.934107 -138.34562 
L 102.713158 -137.808544 
L 102.492208 -137.283128 
L 102.271258 -136.768589 
L 102.050309 -136.264523 
L 101.829359 -135.770967 
L 101.608409 -135.288438 
L 101.38746 -134.817946 
L 101.16651 -134.360981 
L 100.945561 -133.919479 
L 100.724611 -133.495763 
L 100.503661 -133.092467 
L 100.282712 -132.712434 
L 100.061762 -132.358613 
L 99.840812 -132.033938 
L 99.619863 -131.741203 
L 99.398913 -131.48294 
L 99.177964 -131.261296 
L 98.957014 -131.077924 
L 98.736064 -130.93388 
L 98.515115 -130.829544 
L 98.294165 -130.76455 
L 98.073215 -130.737747 
L 97.852266 -130.747175 
L 97.631316 -130.790069 
L 97.410367 -130.862888 
L 97.189417 -130.961361 
L 96.968467 -131.080563 
L 96.747518 -131.215003 
L 96.526568 -131.358739 
L 96.305618 -131.505491 
L 96.084669 -131.648786 
L 95.863719 -131.782089 
L 95.642769 -131.898949 
L 95.42182 -131.99314 
L 95.20087 -132.058798 
L 94.979921 -132.090544 
L 94.758971 -132.083601 
L 94.538021 -132.033893 
L 94.317072 -131.938123 
L 94.096122 -131.793837 
L 93.875172 -131.59946 
L 93.654223 -131.354318 
L 93.433273 -131.058634 
L 93.212324 -130.713501 
L 92.991374 -130.320843 
L 92.770424 -129.883349 
L 92.549475 -129.404399 
L 92.328525 -128.887971 
L 92.107575 -128.338548 
L 91.886626 -127.761002 
L 91.665676 -127.160491 
L 91.444727 -126.542344 
L 91.223777 -125.911956 
L 91.002827 -125.274676 
L 90.781878 -124.635721 
L 90.560928 -124.000078 
L 90.339978 -123.372433 
L 90.119029 -122.757107 
L 89.898079 -122.157999 
L 89.67713 -121.578552 
z
" style="stroke: #414487; stroke-width: 1.25"/>
    </defs>
    <g>
     <use xlink:href="#mb849060945" x="0" y="174.26" style="fill: #414487; fill-opacity: 0.7; stroke: #414487; stroke-width: 1.25"/>
    </g>
   </g>
   <g id="line2d_2">
    <path d="M 7.2 59.175 
L 216.45 59.175 
" style="fill: none; stroke: #414487; stroke-opacity: 0.9; stroke-linecap: round"/>
   </g>
   <g id="text_2">
    <!-- 1 -->
    <g style="fill: #414487" transform="translate(7.2 58.257) scale(0.12 -0.12)">
     <defs>
      <path id="IBMPlexSans-Bold-31" d="M 602 0 
L 602 774 
L 1805 774 
L 1805 3770 
L 1747 3770 
L 838 2579 
L 224 3059 
L 1293 4467 
L 2765 4467 
L 2765 774 
L 3712 774 
L 3712 0 
L 602 0 
z
" transform="scale(0.015625)"/>
     </defs>
     <use xlink:href="#IBMPlexSans-Bold-31"/>
    </g>
   </g>
  </g>
  <g id="axes_3">
   <g id="patch_4">
    <path d="M 7.2 69.57 
L 216.45 69.57 
L 216.45 27.99 
L 7.2 27.99 
L 7.2 69.57 
z
" style="fill: none"/>
   </g>
   <g id="matplotlib.axis_5">
    <g id="xtick_11"/>
    <g id="xtick_12"/>
    <g id="xtick_13"/>
    <g id="xtick_14"/>
    <g id="xtick_15"/>
   </g>
   <g id="matplotlib.axis_6"/>
   <g id="FillBetweenPolyCollection_2">
    <defs>
     <path id="me988a2913a" d="M 66.05064 -107.572862 
L 66.05064 -104.69 
L 66.510813 -104.69 
L 66.970985 -104.69 
L 67.431158 -104.69 
L 67.89133 -104.69 
L 68.351503 -104.69 
L 68.811675 -104.69 
L 69.271848 -104.69 
L 69.73202 -104.69 
L 70.192192 -104.69 
L 70.652365 -104.69 
L 71.112537 -104.69 
L 71.57271 -104.69 
L 72.032882 -104.69 
L 72.493055 -104.69 
L 72.953227 -104.69 
L 73.4134 -104.69 
L 73.873572 -104.69 
L 74.333745 -104.69 
L 74.793917 -104.69 
L 75.254089 -104.69 
L 75.714262 -104.69 
L 76.174434 -104.69 
L 76.634607 -104.69 
L 77.094779 -104.69 
L 77.554952 -104.69 
L 78.015124 -104.69 
L 78.475297 -104.69 
L 78.935469 -104.69 
L 79.395642 -104.69 
L 79.855814 -104.69 
L 80.315987 -104.69 
L 80.776159 -104.69 
L 81.236331 -104.69 
L 81.696504 -104.69 
L 82.156676 -104.69 
L 82.616849 -104.69 
L 83.077021 -104.69 
L 83.537194 -104.69 
L 83.997366 -104.69 
L 84.457539 -104.69 
L 84.917711 -104.69 
L 85.377884 -104.69 
L 85.838056 -104.69 
L 86.298228 -104.69 
L 86.758401 -104.69 
L 87.218573 -104.69 
L 87.678746 -104.69 
L 88.138918 -104.69 
L 88.599091 -104.69 
L 89.059263 -104.69 
L 89.519436 -104.69 
L 89.979608 -104.69 
L 90.439781 -104.69 
L 90.899953 -104.69 
L 91.360125 -104.69 
L 91.820298 -104.69 
L 92.28047 -104.69 
L 92.740643 -104.69 
L 93.200815 -104.69 
L 93.660988 -104.69 
L 94.12116 -104.69 
L 94.581333 -104.69 
L 95.041505 -104.69 
L 95.501678 -104.69 
L 95.96185 -104.69 
L 96.422022 -104.69 
L 96.882195 -104.69 
L 97.342367 -104.69 
L 97.80254 -104.69 
L 98.262712 -104.69 
L 98.722885 -104.69 
L 99.183057 -104.69 
L 99.64323 -104.69 
L 100.103402 -104.69 
L 100.563575 -104.69 
L 101.023747 -104.69 
L 101.483919 -104.69 
L 101.944092 -104.69 
L 102.404264 -104.69 
L 102.864437 -104.69 
L 103.324609 -104.69 
L 103.784782 -104.69 
L 104.244954 -104.69 
L 104.705127 -104.69 
L 105.165299 -104.69 
L 105.625472 -104.69 
L 106.085644 -104.69 
L 106.545817 -104.69 
L 107.005989 -104.69 
L 107.466161 -104.69 
L 107.926334 -104.69 
L 108.386506 -104.69 
L 108.846679 -104.69 
L 109.306851 -104.69 
L 109.767024 -104.69 
L 110.227196 -104.69 
L 110.687369 -104.69 
L 111.147541 -104.69 
L 111.607714 -104.69 
L 112.067886 -104.69 
L 112.528058 -104.69 
L 112.988231 -104.69 
L 113.448403 -104.69 
L 113.908576 -104.69 
L 114.368748 -104.69 
L 114.828921 -104.69 
L 115.289093 -104.69 
L 115.749266 -104.69 
L 116.209438 -104.69 
L 116.669611 -104.69 
L 117.129783 -104.69 
L 117.589955 -104.69 
L 118.050128 -104.69 
L 118.5103 -104.69 
L 118.970473 -104.69 
L 119.430645 -104.69 
L 119.890818 -104.69 
L 120.35099 -104.69 
L 120.811163 -104.69 
L 121.271335 -104.69 
L 121.731508 -104.69 
L 122.19168 -104.69 
L 122.651852 -104.69 
L 123.112025 -104.69 
L 123.572197 -104.69 
L 124.03237 -104.69 
L 124.492542 -104.69 
L 124.952715 -104.69 
L 125.412887 -104.69 
L 125.87306 -104.69 
L 126.333232 -104.69 
L 126.793405 -104.69 
L 127.253577 -104.69 
L 127.713749 -104.69 
L 128.173922 -104.69 
L 128.634094 -104.69 
L 129.094267 -104.69 
L 129.554439 -104.69 
L 130.014612 -104.69 
L 130.474784 -104.69 
L 130.934957 -104.69 
L 131.395129 -104.69 
L 131.855302 -104.69 
L 132.315474 -104.69 
L 132.775647 -104.69 
L 133.235819 -104.69 
L 133.695991 -104.69 
L 134.156164 -104.69 
L 134.616336 -104.69 
L 135.076509 -104.69 
L 135.536681 -104.69 
L 135.996854 -104.69 
L 136.457026 -104.69 
L 136.917199 -104.69 
L 137.377371 -104.69 
L 137.837544 -104.69 
L 138.297716 -104.69 
L 138.757888 -104.69 
L 139.218061 -104.69 
L 139.678233 -104.69 
L 140.138406 -104.69 
L 140.598578 -104.69 
L 141.058751 -104.69 
L 141.518923 -104.69 
L 141.979096 -104.69 
L 142.439268 -104.69 
L 142.899441 -104.69 
L 143.359613 -104.69 
L 143.819785 -104.69 
L 144.279958 -104.69 
L 144.74013 -104.69 
L 145.200303 -104.69 
L 145.660475 -104.69 
L 146.120648 -104.69 
L 146.58082 -104.69 
L 147.040993 -104.69 
L 147.501165 -104.69 
L 147.961338 -104.69 
L 148.42151 -104.69 
L 148.881682 -104.69 
L 149.341855 -104.69 
L 149.802027 -104.69 
L 150.2622 -104.69 
L 150.722372 -104.69 
L 151.182545 -104.69 
L 151.642717 -104.69 
L 152.10289 -104.69 
L 152.563062 -104.69 
L 153.023235 -104.69 
L 153.483407 -104.69 
L 153.943579 -104.69 
L 154.403752 -104.69 
L 154.863924 -104.69 
L 155.324097 -104.69 
L 155.784269 -104.69 
L 156.244442 -104.69 
L 156.704614 -104.69 
L 157.164787 -104.69 
L 157.624959 -104.69 
L 157.624959 -107.211697 
L 157.624959 -107.211697 
L 157.164787 -107.484763 
L 156.704614 -107.775975 
L 156.244442 -108.085146 
L 155.784269 -108.411936 
L 155.324097 -108.75585 
L 154.863924 -109.116241 
L 154.403752 -109.492326 
L 153.943579 -109.883193 
L 153.483407 -110.28782 
L 153.023235 -110.705094 
L 152.563062 -111.133828 
L 152.10289 -111.572789 
L 151.642717 -112.020711 
L 151.182545 -112.476321 
L 150.722372 -112.938356 
L 150.2622 -113.405579 
L 149.802027 -113.876789 
L 149.341855 -114.350827 
L 148.881682 -114.826582 
L 148.42151 -115.302979 
L 147.961338 -115.778977 
L 147.501165 -116.253548 
L 147.040993 -116.725655 
L 146.58082 -117.194233 
L 146.120648 -117.658153 
L 145.660475 -118.116199 
L 145.200303 -118.567031 
L 144.74013 -119.009162 
L 144.279958 -119.440928 
L 143.819785 -119.860471 
L 143.359613 -120.265725 
L 142.899441 -120.65441 
L 142.439268 -121.024038 
L 141.979096 -121.37193 
L 141.518923 -121.695242 
L 141.058751 -121.991004 
L 140.598578 -122.256167 
L 140.138406 -122.487666 
L 139.678233 -122.682485 
L 139.218061 -122.837736 
L 138.757888 -122.950731 
L 138.297716 -123.019071 
L 137.837544 -123.040723 
L 137.377371 -123.014098 
L 136.917199 -122.938122 
L 136.457026 -122.8123 
L 135.996854 -122.636766 
L 135.536681 -122.41232 
L 135.076509 -122.140453 
L 134.616336 -121.823354 
L 134.156164 -121.463897 
L 133.695991 -121.065615 
L 133.235819 -120.63266 
L 132.775647 -120.16974 
L 132.315474 -119.682049 
L 131.855302 -119.175178 
L 131.395129 -118.655028 
L 130.934957 -118.127703 
L 130.474784 -117.599405 
L 130.014612 -117.076328 
L 129.554439 -116.564552 
L 129.094267 -116.06994 
L 128.634094 -115.598043 
L 128.173922 -115.154015 
L 127.713749 -114.742534 
L 127.253577 -114.367744 
L 126.793405 -114.033199 
L 126.333232 -113.74183 
L 125.87306 -113.495927 
L 125.412887 -113.297125 
L 124.952715 -113.14642 
L 124.492542 -113.044184 
L 124.03237 -112.990198 
L 123.572197 -112.983697 
L 123.112025 -113.023421 
L 122.651852 -113.107672 
L 122.19168 -113.234379 
L 121.731508 -113.401164 
L 121.271335 -113.605409 
L 120.811163 -113.844317 
L 120.35099 -114.11498 
L 119.890818 -114.414433 
L 119.430645 -114.739704 
L 118.970473 -115.087854 
L 118.5103 -115.456017 
L 118.050128 -115.841417 
L 117.589955 -116.241389 
L 117.129783 -116.653377 
L 116.669611 -117.074939 
L 116.209438 -117.503731 
L 115.749266 -117.937489 
L 115.289093 -118.37401 
L 114.828921 -118.811123 
L 114.368748 -119.246666 
L 113.908576 -119.678455 
L 113.448403 -120.104266 
L 112.988231 -120.521813 
L 112.528058 -120.928739 
L 112.067886 -121.322609 
L 111.607714 -121.700914 
L 111.147541 -122.061088 
L 110.687369 -122.400526 
L 110.227196 -122.716621 
L 109.767024 -123.006801 
L 109.306851 -123.268574 
L 108.846679 -123.499586 
L 108.386506 -123.697671 
L 107.926334 -123.860908 
L 107.466161 -123.987675 
L 107.005989 -124.076702 
L 106.545817 -124.127109 
L 106.085644 -124.138445 
L 105.625472 -124.110712 
L 105.165299 -124.044374 
L 104.705127 -123.940361 
L 104.244954 -123.800051 
L 103.784782 -123.625246 
L 103.324609 -123.418129 
L 102.864437 -123.181217 
L 102.404264 -122.917298 
L 101.944092 -122.629366 
L 101.483919 -122.320545 
L 101.023747 -121.994018 
L 100.563575 -121.652953 
L 100.103402 -121.300432 
L 99.64323 -120.939387 
L 99.183057 -120.572544 
L 98.722885 -120.202378 
L 98.262712 -119.831079 
L 97.80254 -119.460532 
L 97.342367 -119.092307 
L 96.882195 -118.727666 
L 96.422022 -118.367577 
L 95.96185 -118.012746 
L 95.501678 -117.663654 
L 95.041505 -117.320598 
L 94.581333 -116.983748 
L 94.12116 -116.653193 
L 93.660988 -116.328998 
L 93.200815 -116.011255 
L 92.740643 -115.700128 
L 92.28047 -115.39589 
L 91.820298 -115.09896 
L 91.360125 -114.809921 
L 90.899953 -114.529528 
L 90.439781 -114.258715 
L 89.979608 -113.998575 
L 89.519436 -113.750346 
L 89.059263 -113.515372 
L 88.599091 -113.295067 
L 88.138918 -113.090864 
L 87.678746 -112.904164 
L 87.218573 -112.736283 
L 86.758401 -112.588386 
L 86.298228 -112.461443 
L 85.838056 -112.356167 
L 85.377884 -112.272972 
L 84.917711 -112.21193 
L 84.457539 -112.172742 
L 83.997366 -112.154717 
L 83.537194 -112.156759 
L 83.077021 -112.17737 
L 82.616849 -112.214661 
L 82.156676 -112.26638 
L 81.696504 -112.329944 
L 81.236331 -112.402483 
L 80.776159 -112.480899 
L 80.315987 -112.561922 
L 79.855814 -112.642182 
L 79.395642 -112.718275 
L 78.935469 -112.786836 
L 78.475297 -112.844616 
L 78.015124 -112.888544 
L 77.554952 -112.915796 
L 77.094779 -112.923856 
L 76.634607 -112.910561 
L 76.174434 -112.874151 
L 75.714262 -112.813294 
L 75.254089 -112.727114 
L 74.793917 -112.615195 
L 74.333745 -112.477587 
L 73.873572 -112.314789 
L 73.4134 -112.12773 
L 72.953227 -111.917735 
L 72.493055 -111.686492 
L 72.032882 -111.435998 
L 71.57271 -111.168513 
L 71.112537 -110.886504 
L 70.652365 -110.592587 
L 70.192192 -110.289469 
L 69.73202 -109.979893 
L 69.271848 -109.666582 
L 68.811675 -109.352191 
L 68.351503 -109.039259 
L 67.89133 -108.730172 
L 67.431158 -108.427126 
L 66.970985 -108.132103 
L 66.510813 -107.846849 
L 66.05064 -107.572862 
z
" style="stroke: #355f8d; stroke-width: 1.25"/>
    </defs>
    <g>
     <use xlink:href="#me988a2913a" x="0" y="174.26" style="fill: #355f8d; fill-opacity: 0.7; stroke: #355f8d; stroke-width: 1.25"/>
    </g>
   </g>
   <g id="line2d_3">
    <path d="M 7.2 69.57 
L 216.45 69.57 
" style="fill: none; stroke: #355f8d; stroke-opacity: 0.9; stroke-linecap: round"/>
   </g>
   <g id="text_3">
    <!-- 2 -->
    <g style="fill: #355f8d" transform="translate(7.2 68.652) scale(0.12 -0.12)">
     <defs>
      <path id="IBMPlexSans-Bold-32" d="M 3526 0 
L 365 0 
L 365 877 
L 1741 2054 
Q 1926 2214 2054 2345 
Q 2182 2477 2262 2601 
Q 2342 2726 2377 2848 
Q 2413 2970 2413 3110 
L 2413 3200 
Q 2413 3328 2361 3424 
Q 2310 3520 2227 3584 
Q 2144 3648 2038 3680 
Q 1933 3712 1824 3712 
Q 1664 3712 1545 3661 
Q 1427 3610 1340 3523 
Q 1254 3437 1196 3325 
Q 1139 3213 1107 3085 
L 269 3405 
Q 346 3635 480 3843 
Q 614 4051 816 4208 
Q 1018 4365 1293 4454 
Q 1568 4544 1914 4544 
Q 2278 4544 2560 4441 
Q 2842 4339 3037 4160 
Q 3232 3981 3334 3734 
Q 3437 3488 3437 3200 
Q 3437 2912 3341 2675 
Q 3245 2438 3081 2230 
Q 2918 2022 2700 1836 
Q 2483 1651 2246 1459 
L 1414 806 
L 3526 806 
L 3526 0 
z
" transform="scale(0.015625)"/>
     </defs>
     <use xlink:href="#IBMPlexSans-Bold-32"/>
    </g>
   </g>
  </g>
  <g id="axes_4">
   <g id="patch_5">
    <path d="M 7.2 79.965 
L 216.45 79.965 
L 216.45 38.385 
L 7.2 38.385 
L 7.2 79.965 
z
" style="fill: none"/>
   </g>
   <g id="matplotlib.axis_7">
    <g id="xtick_16"/>
    <g id="xtick_17"/>
    <g id="xtick_18"/>
    <g id="xtick_19"/>
    <g id="xtick_20"/>
   </g>
   <g id="matplotlib.axis_8"/>
   <g id="FillBetweenPolyCollection_3">
    <defs>
     <path id="m9ad5c977df" d="M 41.099384 -95.899617 
L 41.099384 -94.295 
L 41.80784 -94.295 
L 42.516296 -94.295 
L 43.224752 -94.295 
L 43.933208 -94.295 
L 44.641665 -94.295 
L 45.350121 -94.295 
L 46.058577 -94.295 
L 46.767033 -94.295 
L 47.475489 -94.295 
L 48.183945 -94.295 
L 48.892401 -94.295 
L 49.600857 -94.295 
L 50.309313 -94.295 
L 51.017769 -94.295 
L 51.726225 -94.295 
L 52.434681 -94.295 
L 53.143137 -94.295 
L 53.851593 -94.295 
L 54.56005 -94.295 
L 55.268506 -94.295 
L 55.976962 -94.295 
L 56.685418 -94.295 
L 57.393874 -94.295 
L 58.10233 -94.295 
L 58.810786 -94.295 
L 59.519242 -94.295 
L 60.227698 -94.295 
L 60.936154 -94.295 
L 61.64461 -94.295 
L 62.353066 -94.295 
L 63.061522 -94.295 
L 63.769979 -94.295 
L 64.478435 -94.295 
L 65.186891 -94.295 
L 65.895347 -94.295 
L 66.603803 -94.295 
L 67.312259 -94.295 
L 68.020715 -94.295 
L 68.729171 -94.295 
L 69.437627 -94.295 
L 70.146083 -94.295 
L 70.854539 -94.295 
L 71.562995 -94.295 
L 72.271451 -94.295 
L 72.979907 -94.295 
L 73.688364 -94.295 
L 74.39682 -94.295 
L 75.105276 -94.295 
L 75.813732 -94.295 
L 76.522188 -94.295 
L 77.230644 -94.295 
L 77.9391 -94.295 
L 78.647556 -94.295 
L 79.356012 -94.295 
L 80.064468 -94.295 
L 80.772924 -94.295 
L 81.48138 -94.295 
L 82.189836 -94.295 
L 82.898292 -94.295 
L 83.606749 -94.295 
L 84.315205 -94.295 
L 85.023661 -94.295 
L 85.732117 -94.295 
L 86.440573 -94.295 
L 87.149029 -94.295 
L 87.857485 -94.295 
L 88.565941 -94.295 
L 89.274397 -94.295 
L 89.982853 -94.295 
L 90.691309 -94.295 
L 91.399765 -94.295 
L 92.108221 -94.295 
L 92.816678 -94.295 
L 93.525134 -94.295 
L 94.23359 -94.295 
L 94.942046 -94.295 
L 95.650502 -94.295 
L 96.358958 -94.295 
L 97.067414 -94.295 
L 97.77587 -94.295 
L 98.484326 -94.295 
L 99.192782 -94.295 
L 99.901238 -94.295 
L 100.609694 -94.295 
L 101.31815 -94.295 
L 102.026606 -94.295 
L 102.735063 -94.295 
L 103.443519 -94.295 
L 104.151975 -94.295 
L 104.860431 -94.295 
L 105.568887 -94.295 
L 106.277343 -94.295 
L 106.985799 -94.295 
L 107.694255 -94.295 
L 108.402711 -94.295 
L 109.111167 -94.295 
L 109.819623 -94.295 
L 110.528079 -94.295 
L 111.236535 -94.295 
L 111.944992 -94.295 
L 112.653448 -94.295 
L 113.361904 -94.295 
L 114.07036 -94.295 
L 114.778816 -94.295 
L 115.487272 -94.295 
L 116.195728 -94.295 
L 116.904184 -94.295 
L 117.61264 -94.295 
L 118.321096 -94.295 
L 119.029552 -94.295 
L 119.738008 -94.295 
L 120.446464 -94.295 
L 121.15492 -94.295 
L 121.863377 -94.295 
L 122.571833 -94.295 
L 123.280289 -94.295 
L 123.988745 -94.295 
L 124.697201 -94.295 
L 125.405657 -94.295 
L 126.114113 -94.295 
L 126.822569 -94.295 
L 127.531025 -94.295 
L 128.239481 -94.295 
L 128.947937 -94.295 
L 129.656393 -94.295 
L 130.364849 -94.295 
L 131.073305 -94.295 
L 131.781762 -94.295 
L 132.490218 -94.295 
L 133.198674 -94.295 
L 133.90713 -94.295 
L 134.615586 -94.295 
L 135.324042 -94.295 
L 136.032498 -94.295 
L 136.740954 -94.295 
L 137.44941 -94.295 
L 138.157866 -94.295 
L 138.866322 -94.295 
L 139.574778 -94.295 
L 140.283234 -94.295 
L 140.991691 -94.295 
L 141.700147 -94.295 
L 142.408603 -94.295 
L 143.117059 -94.295 
L 143.825515 -94.295 
L 144.533971 -94.295 
L 145.242427 -94.295 
L 145.950883 -94.295 
L 146.659339 -94.295 
L 147.367795 -94.295 
L 148.076251 -94.295 
L 148.784707 -94.295 
L 149.493163 -94.295 
L 150.201619 -94.295 
L 150.910076 -94.295 
L 151.618532 -94.295 
L 152.326988 -94.295 
L 153.035444 -94.295 
L 153.7439 -94.295 
L 154.452356 -94.295 
L 155.160812 -94.295 
L 155.869268 -94.295 
L 156.577724 -94.295 
L 157.28618 -94.295 
L 157.994636 -94.295 
L 158.703092 -94.295 
L 159.411548 -94.295 
L 160.120005 -94.295 
L 160.828461 -94.295 
L 161.536917 -94.295 
L 162.245373 -94.295 
L 162.953829 -94.295 
L 163.662285 -94.295 
L 164.370741 -94.295 
L 165.079197 -94.295 
L 165.787653 -94.295 
L 166.496109 -94.295 
L 167.204565 -94.295 
L 167.913021 -94.295 
L 168.621477 -94.295 
L 169.329933 -94.295 
L 170.03839 -94.295 
L 170.746846 -94.295 
L 171.455302 -94.295 
L 172.163758 -94.295 
L 172.872214 -94.295 
L 173.58067 -94.295 
L 174.289126 -94.295 
L 174.997582 -94.295 
L 175.706038 -94.295 
L 176.414494 -94.295 
L 177.12295 -94.295 
L 177.831406 -94.295 
L 178.539862 -94.295 
L 179.248318 -94.295 
L 179.956775 -94.295 
L 180.665231 -94.295 
L 181.373687 -94.295 
L 182.082143 -94.295 
L 182.082143 -95.741281 
L 182.082143 -95.741281 
L 181.373687 -95.906256 
L 180.665231 -96.083365 
L 179.956775 -96.272654 
L 179.248318 -96.474073 
L 178.539862 -96.687474 
L 177.831406 -96.91261 
L 177.12295 -97.149138 
L 176.414494 -97.396624 
L 175.706038 -97.654551 
L 174.997582 -97.922328 
L 174.289126 -98.199295 
L 173.58067 -98.484742 
L 172.872214 -98.777915 
L 172.163758 -99.078029 
L 171.455302 -99.384279 
L 170.746846 -99.695852 
L 170.03839 -100.011929 
L 169.329933 -100.331696 
L 168.621477 -100.654342 
L 167.913021 -100.979063 
L 167.204565 -101.305052 
L 166.496109 -101.631495 
L 165.787653 -101.957562 
L 165.079197 -102.282391 
L 164.370741 -102.605073 
L 163.662285 -102.924637 
L 162.953829 -103.240032 
L 162.245373 -103.550111 
L 161.536917 -103.853618 
L 160.828461 -104.149174 
L 160.120005 -104.435271 
L 159.411548 -104.710272 
L 158.703092 -104.972412 
L 157.994636 -105.21981 
L 157.28618 -105.450483 
L 156.577724 -105.662378 
L 155.869268 -105.853396 
L 155.160812 -106.021434 
L 154.452356 -106.16443 
L 153.7439 -106.280409 
L 153.035444 -106.367535 
L 152.326988 -106.424165 
L 151.618532 -106.448904 
L 150.910076 -106.440653 
L 150.201619 -106.398657 
L 149.493163 -106.322551 
L 148.784707 -106.212389 
L 148.076251 -106.068676 
L 147.367795 -105.892377 
L 146.659339 -105.684932 
L 145.950883 -105.448242 
L 145.242427 -105.184658 
L 144.533971 -104.896951 
L 143.825515 -104.588272 
L 143.117059 -104.262111 
L 142.408603 -103.922231 
L 141.700147 -103.572616 
L 140.991691 -103.217395 
L 140.283234 -102.860775 
L 139.574778 -102.506971 
L 138.866322 -102.160128 
L 138.157866 -101.824259 
L 137.44941 -101.503176 
L 136.740954 -101.200429 
L 136.032498 -100.919261 
L 135.324042 -100.662556 
L 134.615586 -100.432809 
L 133.90713 -100.232098 
L 133.198674 -100.062069 
L 132.490218 -99.923928 
L 131.781762 -99.818447 
L 131.073305 -99.745974 
L 130.364849 -99.706453 
L 129.656393 -99.69945 
L 128.947937 -99.72419 
L 128.239481 -99.779589 
L 127.531025 -99.8643 
L 126.822569 -99.976752 
L 126.114113 -100.115195 
L 125.405657 -100.277747 
L 124.697201 -100.462428 
L 123.988745 -100.667203 
L 123.280289 -100.890014 
L 122.571833 -101.128809 
L 121.863377 -101.381567 
L 121.15492 -101.646314 
L 120.446464 -101.921136 
L 119.738008 -102.204186 
L 119.029552 -102.493683 
L 118.321096 -102.787907 
L 117.61264 -103.085195 
L 116.904184 -103.383925 
L 116.195728 -103.682507 
L 115.487272 -103.979366 
L 114.778816 -104.27293 
L 114.07036 -104.561616 
L 113.361904 -104.843828 
L 112.653448 -105.11794 
L 111.944992 -105.382307 
L 111.236535 -105.63526 
L 110.528079 -105.875124 
L 109.819623 -106.100223 
L 109.111167 -106.30891 
L 108.402711 -106.499583 
L 107.694255 -106.670718 
L 106.985799 -106.820897 
L 106.277343 -106.948839 
L 105.568887 -107.053433 
L 104.860431 -107.133767 
L 104.151975 -107.189153 
L 103.443519 -107.219148 
L 102.735063 -107.223577 
L 102.026606 -107.202532 
L 101.31815 -107.156386 
L 100.609694 -107.08578 
L 99.901238 -106.991614 
L 99.192782 -106.875025 
L 98.484326 -106.737364 
L 97.77587 -106.580159 
L 97.067414 -106.405084 
L 96.358958 -106.213914 
L 95.650502 -106.008486 
L 94.942046 -105.790659 
L 94.23359 -105.562273 
L 93.525134 -105.325112 
L 92.816678 -105.080875 
L 92.108221 -104.831146 
L 91.399765 -104.577377 
L 90.691309 -104.320877 
L 89.982853 -104.062801 
L 89.274397 -103.804159 
L 88.565941 -103.545819 
L 87.857485 -103.288523 
L 87.149029 -103.03291 
L 86.440573 -102.779536 
L 85.732117 -102.528899 
L 85.023661 -102.281469 
L 84.315205 -102.037716 
L 83.606749 -101.798128 
L 82.898292 -101.563241 
L 82.189836 -101.33365 
L 81.48138 -101.110026 
L 80.772924 -100.89312 
L 80.064468 -100.683763 
L 79.356012 -100.48286 
L 78.647556 -100.291381 
L 77.9391 -100.110334 
L 77.230644 -99.940751 
L 76.522188 -99.783653 
L 75.813732 -99.640019 
L 75.105276 -99.510757 
L 74.39682 -99.396661 
L 73.688364 -99.298384 
L 72.979907 -99.2164 
L 72.271451 -99.150978 
L 71.562995 -99.102152 
L 70.854539 -99.069707 
L 70.146083 -99.053156 
L 69.437627 -99.051742 
L 68.729171 -99.06443 
L 68.020715 -99.089918 
L 67.312259 -99.126653 
L 66.603803 -99.17285 
L 65.895347 -99.226522 
L 65.186891 -99.285518 
L 64.478435 -99.34756 
L 63.769979 -99.410286 
L 63.061522 -99.471302 
L 62.353066 -99.528228 
L 61.64461 -99.578748 
L 60.936154 -99.620658 
L 60.227698 -99.65191 
L 59.519242 -99.670657 
L 58.810786 -99.675289 
L 58.10233 -99.664463 
L 57.393874 -99.637129 
L 56.685418 -99.592548 
L 55.976962 -99.5303 
L 55.268506 -99.45029 
L 54.56005 -99.352736 
L 53.851593 -99.238164 
L 53.143137 -99.107384 
L 52.434681 -98.961465 
L 51.726225 -98.801705 
L 51.017769 -98.629598 
L 50.309313 -98.446795 
L 49.600857 -98.255063 
L 48.892401 -98.056247 
L 48.183945 -97.852231 
L 47.475489 -97.644897 
L 46.767033 -97.43609 
L 46.058577 -97.227585 
L 45.350121 -97.02106 
L 44.641665 -96.818066 
L 43.933208 -96.620013 
L 43.224752 -96.42815 
L 42.516296 -96.243557 
L 41.80784 -96.067137 
L 41.099384 -95.899617 
z
" style="stroke: #2a788e; stroke-width: 1.25"/>
    </defs>
    <g>
     <use xlink:href="#m9ad5c977df" x="0" y="174.26" style="fill: #2a788e; fill-opacity: 0.7; stroke: #2a788e; stroke-width: 1.25"/>
    </g>
   </g>
   <g id="line2d_4">
    <path d="M 7.2 79.965 
L 216.45 79.965 
" style="fill: none; stroke: #2a788e; stroke-opacity: 0.9; stroke-linecap: round"/>
   </g>
   <g id="text_4">
    <!-- 3 -->
    <g style="fill: #2a788e" transform="translate(7.2 79.047) scale(0.12 -0.12)">
     <defs>
      <path id="IBMPlexSans-Bold-33" d="M 1677 2701 
Q 2035 2701 2198 2838 
Q 2362 2976 2362 3181 
L 2362 3226 
Q 2362 3469 2205 3616 
Q 2048 3763 1760 3763 
Q 1491 3763 1254 3625 
Q 1018 3488 851 3232 
L 250 3795 
Q 378 3962 525 4099 
Q 672 4237 857 4336 
Q 1043 4435 1273 4489 
Q 1504 4544 1792 4544 
Q 2150 4544 2441 4461 
Q 2733 4378 2941 4221 
Q 3149 4064 3261 3846 
Q 3373 3629 3373 3360 
Q 3373 3149 3305 2976 
Q 3238 2803 3120 2675 
Q 3002 2547 2848 2467 
Q 2694 2387 2522 2355 
L 2522 2317 
Q 2720 2278 2889 2192 
Q 3059 2106 3184 1971 
Q 3309 1837 3379 1654 
Q 3450 1472 3450 1242 
Q 3450 941 3328 697 
Q 3206 454 2982 281 
Q 2758 109 2444 16 
Q 2131 -77 1754 -77 
Q 1414 -77 1152 -6 
Q 890 64 694 182 
Q 499 301 355 454 
Q 211 608 102 781 
L 813 1331 
Q 960 1056 1174 880 
Q 1389 704 1754 704 
Q 2080 704 2262 867 
Q 2445 1030 2445 1312 
L 2445 1350 
Q 2445 1626 2237 1763 
Q 2029 1901 1664 1901 
L 1261 1901 
L 1261 2701 
L 1677 2701 
z
" transform="scale(0.015625)"/>
     </defs>
     <use xlink:href="#IBMPlexSans-Bold-33"/>
    </g>
   </g>
  </g>
  <g id="axes_5">
   <g id="patch_6">
    <path d="M 7.2 90.36 
L 216.45 90.36 
L 216.45 48.78 
L 7.2 48.78 
L 7.2 90.36 
z
" style="fill: none"/>
   </g>
   <g id="matplotlib.axis_9">
    <g id="xtick_21"/>
    <g id="xtick_22"/>
    <g id="xtick_23"/>
    <g id="xtick_24"/>
    <g id="xtick_25"/>
   </g>
   <g id="matplotlib.axis_10"/>
   <g id="FillBetweenPolyCollection_4">
    <defs>
     <path id="mf43e2a4076" d="M 16.711364 -85.068794 
L 16.711364 -83.9 
L 17.66728 -83.9 
L 18.623196 -83.9 
L 19.579111 -83.9 
L 20.535027 -83.9 
L 21.490943 -83.9 
L 22.446859 -83.9 
L 23.402775 -83.9 
L 24.358691 -83.9 
L 25.314607 -83.9 
L 26.270523 -83.9 
L 27.226439 -83.9 
L 28.182355 -83.9 
L 29.138271 -83.9 
L 30.094187 -83.9 
L 31.050103 -83.9 
L 32.006019 -83.9 
L 32.961935 -83.9 
L 33.917851 -83.9 
L 34.873767 -83.9 
L 35.829683 -83.9 
L 36.785598 -83.9 
L 37.741514 -83.9 
L 38.69743 -83.9 
L 39.653346 -83.9 
L 40.609262 -83.9 
L 41.565178 -83.9 
L 42.521094 -83.9 
L 43.47701 -83.9 
L 44.432926 -83.9 
L 45.388842 -83.9 
L 46.344758 -83.9 
L 47.300674 -83.9 
L 48.25659 -83.9 
L 49.212506 -83.9 
L 50.168422 -83.9 
L 51.124338 -83.9 
L 52.080254 -83.9 
L 53.036169 -83.9 
L 53.992085 -83.9 
L 54.948001 -83.9 
L 55.903917 -83.9 
L 56.859833 -83.9 
L 57.815749 -83.9 
L 58.771665 -83.9 
L 59.727581 -83.9 
L 60.683497 -83.9 
L 61.639413 -83.9 
L 62.595329 -83.9 
L 63.551245 -83.9 
L 64.507161 -83.9 
L 65.463077 -83.9 
L 66.418993 -83.9 
L 67.374909 -83.9 
L 68.330825 -83.9 
L 69.286741 -83.9 
L 70.242656 -83.9 
L 71.198572 -83.9 
L 72.154488 -83.9 
L 73.110404 -83.9 
L 74.06632 -83.9 
L 75.022236 -83.9 
L 75.978152 -83.9 
L 76.934068 -83.9 
L 77.889984 -83.9 
L 78.8459 -83.9 
L 79.801816 -83.9 
L 80.757732 -83.9 
L 81.713648 -83.9 
L 82.669564 -83.9 
L 83.62548 -83.9 
L 84.581396 -83.9 
L 85.537312 -83.9 
L 86.493228 -83.9 
L 87.449143 -83.9 
L 88.405059 -83.9 
L 89.360975 -83.9 
L 90.316891 -83.9 
L 91.272807 -83.9 
L 92.228723 -83.9 
L 93.184639 -83.9 
L 94.140555 -83.9 
L 95.096471 -83.9 
L 96.052387 -83.9 
L 97.008303 -83.9 
L 97.964219 -83.9 
L 98.920135 -83.9 
L 99.876051 -83.9 
L 100.831967 -83.9 
L 101.787883 -83.9 
L 102.743799 -83.9 
L 103.699714 -83.9 
L 104.65563 -83.9 
L 105.611546 -83.9 
L 106.567462 -83.9 
L 107.523378 -83.9 
L 108.479294 -83.9 
L 109.43521 -83.9 
L 110.391126 -83.9 
L 111.347042 -83.9 
L 112.302958 -83.9 
L 113.258874 -83.9 
L 114.21479 -83.9 
L 115.170706 -83.9 
L 116.126622 -83.9 
L 117.082538 -83.9 
L 118.038454 -83.9 
L 118.99437 -83.9 
L 119.950286 -83.9 
L 120.906201 -83.9 
L 121.862117 -83.9 
L 122.818033 -83.9 
L 123.773949 -83.9 
L 124.729865 -83.9 
L 125.685781 -83.9 
L 126.641697 -83.9 
L 127.597613 -83.9 
L 128.553529 -83.9 
L 129.509445 -83.9 
L 130.465361 -83.9 
L 131.421277 -83.9 
L 132.377193 -83.9 
L 133.333109 -83.9 
L 134.289025 -83.9 
L 135.244941 -83.9 
L 136.200857 -83.9 
L 137.156772 -83.9 
L 138.112688 -83.9 
L 139.068604 -83.9 
L 140.02452 -83.9 
L 140.980436 -83.9 
L 141.936352 -83.9 
L 142.892268 -83.9 
L 143.848184 -83.9 
L 144.8041 -83.9 
L 145.760016 -83.9 
L 146.715932 -83.9 
L 147.671848 -83.9 
L 148.627764 -83.9 
L 149.58368 -83.9 
L 150.539596 -83.9 
L 151.495512 -83.9 
L 152.451428 -83.9 
L 153.407344 -83.9 
L 154.363259 -83.9 
L 155.319175 -83.9 
L 156.275091 -83.9 
L 157.231007 -83.9 
L 158.186923 -83.9 
L 159.142839 -83.9 
L 160.098755 -83.9 
L 161.054671 -83.9 
L 162.010587 -83.9 
L 162.966503 -83.9 
L 163.922419 -83.9 
L 164.878335 -83.9 
L 165.834251 -83.9 
L 166.790167 -83.9 
L 167.746083 -83.9 
L 168.701999 -83.9 
L 169.657915 -83.9 
L 170.613831 -83.9 
L 171.569746 -83.9 
L 172.525662 -83.9 
L 173.481578 -83.9 
L 174.437494 -83.9 
L 175.39341 -83.9 
L 176.349326 -83.9 
L 177.305242 -83.9 
L 178.261158 -83.9 
L 179.217074 -83.9 
L 180.17299 -83.9 
L 181.128906 -83.9 
L 182.084822 -83.9 
L 183.040738 -83.9 
L 183.996654 -83.9 
L 184.95257 -83.9 
L 185.908486 -83.9 
L 186.864402 -83.9 
L 187.820317 -83.9 
L 188.776233 -83.9 
L 189.732149 -83.9 
L 190.688065 -83.9 
L 191.643981 -83.9 
L 192.599897 -83.9 
L 193.555813 -83.9 
L 194.511729 -83.9 
L 195.467645 -83.9 
L 196.423561 -83.9 
L 197.379477 -83.9 
L 198.335393 -83.9 
L 199.291309 -83.9 
L 200.247225 -83.9 
L 201.203141 -83.9 
L 202.159057 -83.9 
L 203.114973 -83.9 
L 204.070889 -83.9 
L 205.026804 -83.9 
L 205.98272 -83.9 
L 206.938636 -83.9 
L 206.938636 -84.885182 
L 206.938636 -84.885182 
L 205.98272 -84.999395 
L 205.026804 -85.122413 
L 204.070889 -85.254352 
L 203.114973 -85.395264 
L 202.159057 -85.545136 
L 201.203141 -85.703889 
L 200.247225 -85.871378 
L 199.291309 -86.047393 
L 198.335393 -86.231663 
L 197.379477 -86.423857 
L 196.423561 -86.623593 
L 195.467645 -86.830439 
L 194.511729 -87.043922 
L 193.555813 -87.263536 
L 192.599897 -87.488744 
L 191.643981 -87.718983 
L 190.688065 -87.953675 
L 189.732149 -88.192222 
L 188.776233 -88.434014 
L 187.820317 -88.678424 
L 186.864402 -88.924811 
L 185.908486 -89.172513 
L 184.95257 -89.420841 
L 183.996654 -89.669073 
L 183.040738 -89.916446 
L 182.084822 -90.162146 
L 181.128906 -90.405299 
L 180.17299 -90.644961 
L 179.217074 -90.880113 
L 178.261158 -91.10965 
L 177.305242 -91.332383 
L 176.349326 -91.547034 
L 175.39341 -91.752245 
L 174.437494 -91.94658 
L 173.481578 -92.12854 
L 172.525662 -92.296582 
L 171.569746 -92.449137 
L 170.613831 -92.58464 
L 169.657915 -92.701555 
L 168.701999 -92.798415 
L 167.746083 -92.873851 
L 166.790167 -92.926632 
L 165.834251 -92.955701 
L 164.878335 -92.960214 
L 163.922419 -92.939569 
L 162.966503 -92.89344 
L 162.010587 -92.821798 
L 161.054671 -92.724938 
L 160.098755 -92.603486 
L 159.142839 -92.458409 
L 158.186923 -92.291009 
L 157.231007 -92.10292 
L 156.275091 -91.896084 
L 155.319175 -91.672732 
L 154.363259 -91.435349 
L 153.407344 -91.186638 
L 152.451428 -90.929476 
L 151.495512 -90.666867 
L 150.539596 -90.401893 
L 149.58368 -90.137664 
L 148.627764 -89.877262 
L 147.671848 -89.623696 
L 146.715932 -89.379852 
L 145.760016 -89.148447 
L 144.8041 -88.931992 
L 143.848184 -88.732753 
L 142.892268 -88.552729 
L 141.936352 -88.393623 
L 140.980436 -88.25683 
L 140.02452 -88.143429 
L 139.068604 -88.05418 
L 138.112688 -87.989527 
L 137.156772 -87.949612 
L 136.200857 -87.934286 
L 135.244941 -87.943135 
L 134.289025 -87.975498 
L 133.333109 -88.0305 
L 132.377193 -88.107074 
L 131.421277 -88.203999 
L 130.465361 -88.319925 
L 129.509445 -88.453404 
L 128.553529 -88.602917 
L 127.597613 -88.766903 
L 126.641697 -88.943779 
L 125.685781 -89.131961 
L 124.729865 -89.329882 
L 123.773949 -89.536002 
L 122.818033 -89.748817 
L 121.862117 -89.966867 
L 120.906201 -90.188737 
L 119.950286 -90.413054 
L 118.99437 -90.638487 
L 118.038454 -90.863741 
L 117.082538 -91.08755 
L 116.126622 -91.308674 
L 115.170706 -91.525888 
L 114.21479 -91.737983 
L 113.258874 -91.943761 
L 112.302958 -92.142033 
L 111.347042 -92.331623 
L 110.391126 -92.511369 
L 109.43521 -92.680135 
L 108.479294 -92.836818 
L 107.523378 -92.980362 
L 106.567462 -93.109772 
L 105.611546 -93.224127 
L 104.65563 -93.322604 
L 103.699714 -93.404485 
L 102.743799 -93.46918 
L 101.787883 -93.516238 
L 100.831967 -93.545359 
L 99.876051 -93.556402 
L 98.920135 -93.549391 
L 97.964219 -93.524517 
L 97.008303 -93.482131 
L 96.052387 -93.422743 
L 95.096471 -93.347003 
L 94.140555 -93.255696 
L 93.184639 -93.149715 
L 92.228723 -93.030046 
L 91.272807 -92.897747 
L 90.316891 -92.753921 
L 89.360975 -92.599699 
L 88.405059 -92.436214 
L 87.449143 -92.264586 
L 86.493228 -92.085904 
L 85.537312 -91.901209 
L 84.581396 -91.71149 
L 83.62548 -91.517672 
L 82.669564 -91.320619 
L 81.713648 -91.121131 
L 80.757732 -90.919954 
L 79.801816 -90.717782 
L 78.8459 -90.515274 
L 77.889984 -90.313062 
L 76.934068 -90.111763 
L 75.978152 -89.911996 
L 75.022236 -89.714393 
L 74.06632 -89.519607 
L 73.110404 -89.328324 
L 72.154488 -89.141266 
L 71.198572 -88.959196 
L 70.242656 -88.782913 
L 69.286741 -88.613251 
L 68.330825 -88.451067 
L 67.374909 -88.297229 
L 66.418993 -88.1526 
L 65.463077 -88.018022 
L 64.507161 -87.894292 
L 63.551245 -87.782138 
L 62.595329 -87.682203 
L 61.639413 -87.595015 
L 60.683497 -87.520967 
L 59.727581 -87.460299 
L 58.771665 -87.413078 
L 57.815749 -87.379184 
L 56.859833 -87.3583 
L 55.903917 -87.349905 
L 54.948001 -87.353275 
L 53.992085 -87.367484 
L 53.036169 -87.391415 
L 52.080254 -87.423775 
L 51.124338 -87.463111 
L 50.168422 -87.507835 
L 49.212506 -87.556255 
L 48.25659 -87.606598 
L 47.300674 -87.657051 
L 46.344758 -87.705791 
L 45.388842 -87.751025 
L 44.432926 -87.79102 
L 43.47701 -87.824142 
L 42.521094 -87.848887 
L 41.565178 -87.86391 
L 40.609262 -87.868052 
L 39.653346 -87.860359 
L 38.69743 -87.840099 
L 37.741514 -87.806777 
L 36.785598 -87.760135 
L 35.829683 -87.700154 
L 34.873767 -87.627052 
L 33.917851 -87.541267 
L 32.961935 -87.443448 
L 32.006019 -87.334429 
L 31.050103 -87.215212 
L 30.094187 -87.086935 
L 29.138271 -86.950849 
L 28.182355 -86.808285 
L 27.226439 -86.660626 
L 26.270523 -86.509277 
L 25.314607 -86.355638 
L 24.358691 -86.201076 
L 23.402775 -86.046902 
L 22.446859 -85.894352 
L 21.490943 -85.744563 
L 20.535027 -85.598568 
L 19.579111 -85.457275 
L 18.623196 -85.321469 
L 17.66728 -85.191802 
L 16.711364 -85.068794 
z
" style="stroke: #21918c; stroke-width: 1.25"/>
    </defs>
    <g>
     <use xlink:href="#mf43e2a4076" x="0" y="174.26" style="fill: #21918c; fill-opacity: 0.7; stroke: #21918c; stroke-width: 1.25"/>
    </g>
   </g>
   <g id="line2d_5">
    <path d="M 7.2 90.36 
L 216.45 90.36 
" style="fill: none; stroke: #21918c; stroke-opacity: 0.9; stroke-linecap: round"/>
   </g>
   <g id="text_5">
    <!-- 4 -->
    <g style="fill: #21918c" transform="translate(7.2 89.442) scale(0.12 -0.12)">
     <defs>
      <path id="IBMPlexSans-Bold-34" d="M 2157 0 
L 2157 858 
L 192 858 
L 192 1677 
L 1933 4467 
L 3072 4467 
L 3072 1600 
L 3635 1600 
L 3635 858 
L 3072 858 
L 3072 0 
L 2157 0 
z
M 960 1600 
L 2157 1600 
L 2157 3475 
L 2093 3475 
L 960 1600 
z
" transform="scale(0.015625)"/>
     </defs>
     <use xlink:href="#IBMPlexSans-Bold-34"/>
    </g>
   </g>
  </g>
  <g id="axes_6">
   <g id="patch_7">
    <path d="M 7.2 100.755 
L 216.45 100.755 
L 216.45 59.175 
L 7.2 59.175 
L 7.2 100.755 
z
" style="fill: none"/>
   </g>
   <g id="matplotlib.axis_11">
    <g id="xtick_26"/>
    <g id="xtick_27"/>
    <g id="xtick_28"/>
    <g id="xtick_29"/>
    <g id="xtick_30"/>
   </g>
   <g id="matplotlib.axis_12"/>
   <g id="line2d_6">
    <path d="M 7.2 100.755 
L 216.45 100.755 
" style="fill: none; stroke: #482475; stroke-opacity: 0.9; stroke-linecap: round"/>
   </g>
   <g id="text_6">
    <!-- 5 -->
    <g style="fill: #482475" transform="translate(7.2 99.837) scale(0.12 -0.12)">
     <defs>
      <path id="IBMPlexSans-Bold-35" d="M 3341 3629 
L 1312 3629 
L 1216 2214 
L 1267 2214 
Q 1331 2374 1411 2505 
Q 1491 2637 1600 2729 
Q 1709 2822 1862 2873 
Q 2016 2925 2227 2925 
Q 2515 2925 2764 2829 
Q 3014 2733 3200 2550 
Q 3386 2368 3494 2102 
Q 3603 1837 3603 1504 
Q 3603 1165 3491 873 
Q 3379 582 3158 371 
Q 2938 160 2618 41 
Q 2298 -77 1888 -77 
Q 1562 -77 1312 -6 
Q 1062 64 870 182 
Q 678 301 537 454 
Q 397 608 294 781 
L 992 1331 
Q 1139 1069 1344 886 
Q 1549 704 1894 704 
Q 2240 704 2416 902 
Q 2592 1101 2592 1427 
L 2592 1478 
Q 2592 1786 2413 1965 
Q 2234 2144 1920 2144 
Q 1658 2144 1488 2038 
Q 1318 1933 1229 1830 
L 442 1939 
L 608 4467 
L 3341 4467 
L 3341 3629 
z
" transform="scale(0.015625)"/>
     </defs>
     <use xlink:href="#IBMPlexSans-Bold-35"/>
    </g>
   </g>
  </g>
  <g id="axes_7">
   <g id="patch_8">
    <path d="M 7.2 111.15 
L 216.45 111.15 
L 216.45 69.57 
L 7.2 69.57 
L 7.2 111.15 
z
" style="fill: none"/>
   </g>
   <g id="matplotlib.axis_13">
    <g id="xtick_31"/>
    <g id="xtick_32"/>
    <g id="xtick_33"/>
    <g id="xtick_34"/>
    <g id="xtick_35"/>
   </g>
   <g id="matplotlib.axis_14"/>
   <g id="line2d_7">
    <path d="M 7.2 111.15 
L 216.45 111.15 
" style="fill: none; stroke: #482475; stroke-opacity: 0.9; stroke-linecap: round"/>
   </g>
   <g id="text_7">
    <!-- 6 -->
    <g style="fill: #482475" transform="translate(7.2 110.232) scale(0.12 -0.12)">
     <defs>
      <path id="IBMPlexSans-Bold-36" d="M 1946 -77 
Q 1549 -77 1235 48 
Q 922 173 707 406 
Q 493 640 381 966 
Q 269 1293 269 1696 
Q 269 2163 413 2582 
Q 557 3002 784 3357 
Q 1011 3712 1296 3993 
Q 1581 4275 1869 4467 
L 3194 4467 
Q 2784 4173 2457 3907 
Q 2131 3642 1891 3373 
Q 1651 3104 1494 2825 
Q 1338 2547 1274 2227 
L 1331 2208 
Q 1389 2336 1469 2457 
Q 1549 2579 1667 2672 
Q 1786 2765 1946 2822 
Q 2106 2880 2317 2880 
Q 2592 2880 2832 2781 
Q 3072 2682 3248 2502 
Q 3424 2323 3523 2064 
Q 3622 1805 3622 1491 
Q 3622 1146 3504 858 
Q 3386 570 3165 362 
Q 2944 154 2637 38 
Q 2330 -77 1946 -77 
z
M 1946 672 
Q 2266 672 2445 848 
Q 2624 1024 2624 1350 
L 2624 1466 
Q 2624 1792 2445 1968 
Q 2266 2144 1946 2144 
Q 1626 2144 1446 1968 
Q 1267 1792 1267 1466 
L 1267 1350 
Q 1267 1024 1446 848 
Q 1626 672 1946 672 
z
" transform="scale(0.015625)"/>
     </defs>
     <use xlink:href="#IBMPlexSans-Bold-36"/>
    </g>
   </g>
  </g>
  <g id="axes_8">
   <g id="patch_9">
    <path d="M 7.2 121.545 
L 216.45 121.545 
L 216.45 79.965 
L 7.2 79.965 
L 7.2 121.545 
z
" style="fill: none"/>
   </g>
   <g id="matplotlib.axis_15">
    <g id="xtick_36"/>
    <g id="xtick_37"/>
    <g id="xtick_38"/>
    <g id="xtick_39"/>
    <g id="xtick_40"/>
   </g>
   <g id="matplotlib.axis_16"/>
   <g id="line2d_8">
    <path d="M 7.2 121.545 
L 216.45 121.545 
" style="fill: none; stroke: #482475; stroke-opacity: 0.9; stroke-linecap: round"/>
   </g>
   <g id="text_8">
    <!-- 7 -->
    <g style="fill: #482475" transform="translate(7.2 120.627) scale(0.12 -0.12)">
     <defs>
      <path id="IBMPlexSans-Bold-37" d="M 1062 0 
L 2560 3686 
L 1165 3686 
L 1165 2874 
L 352 2874 
L 352 4467 
L 3514 4467 
L 3514 3635 
L 2074 0 
L 1062 0 
z
" transform="scale(0.015625)"/>
     </defs>
     <use xlink:href="#IBMPlexSans-Bold-37"/>
    </g>
   </g>
  </g>
  <g id="axes_9">
   <g id="patch_10">
    <path d="M 7.2 131.94 
L 216.45 131.94 
L 216.45 90.36 
L 7.2 90.36 
L 7.2 131.94 
z
" style="fill: none"/>
   </g>
   <g id="matplotlib.axis_17">
    <g id="xtick_41">
     <g id="text_9">
      <!-- −5.0 -->
      <g style="fill: #838383" transform="translate(8.186548 149.58) scale(0.11 -0.11)">
       <defs>
        <path id="IBMPlexSans-Regular-2212" d="M 429 1734 
L 429 2170 
L 3411 2170 
L 3411 1734 
L 429 1734 
z
" transform="scale(0.015625)"/>
        <path id="IBMPlexSans-Regular-35" d="M 3187 3994 
L 1229 3994 
L 1101 2291 
L 1146 2291 
Q 1306 2515 1507 2649 
Q 1709 2784 2061 2784 
Q 2349 2784 2592 2688 
Q 2835 2592 3014 2416 
Q 3194 2240 3293 1984 
Q 3392 1728 3392 1402 
Q 3392 1075 3289 803 
Q 3187 531 2992 336 
Q 2797 141 2518 32 
Q 2240 -77 1888 -77 
Q 1606 -77 1392 -13 
Q 1178 51 1011 160 
Q 845 269 720 403 
Q 595 538 493 685 
L 896 992 
Q 979 858 1072 749 
Q 1165 640 1277 563 
Q 1389 486 1536 444 
Q 1683 403 1888 403 
Q 2349 403 2585 646 
Q 2822 890 2822 1331 
L 2822 1395 
Q 2822 1837 2585 2080 
Q 2349 2323 1888 2323 
Q 1581 2323 1405 2211 
Q 1229 2099 1088 1946 
L 634 2010 
L 794 4467 
L 3187 4467 
L 3187 3994 
z
" transform="scale(0.015625)"/>
        <path id="IBMPlexSans-Regular-2e" d="M 870 -77 
Q 666 -77 573 25 
Q 480 128 480 294 
L 480 378 
Q 480 544 573 646 
Q 666 749 870 749 
Q 1075 749 1168 646 
Q 1261 544 1261 378 
L 1261 294 
Q 1261 128 1168 25 
Q 1075 -77 870 -77 
z
" transform="scale(0.015625)"/>
        <path id="IBMPlexSans-Regular-30" d="M 1920 -77 
Q 1120 -77 752 531 
Q 384 1139 384 2234 
Q 384 3328 752 3936 
Q 1120 4544 1920 4544 
Q 2720 4544 3088 3936 
Q 3456 3328 3456 2234 
Q 3456 1139 3088 531 
Q 2720 -77 1920 -77 
z
M 1920 390 
Q 2182 390 2368 499 
Q 2554 608 2669 806 
Q 2784 1005 2838 1273 
Q 2893 1542 2893 1869 
L 2893 2598 
Q 2893 2925 2838 3193 
Q 2784 3462 2669 3660 
Q 2554 3859 2368 3968 
Q 2182 4077 1920 4077 
Q 1658 4077 1472 3968 
Q 1286 3859 1171 3660 
Q 1056 3462 1001 3193 
Q 947 2925 947 2598 
L 947 1869 
Q 947 1542 1001 1273 
Q 1056 1005 1171 806 
Q 1286 608 1472 499 
Q 1658 390 1920 390 
z
" transform="scale(0.015625)"/>
       </defs>
       <use xlink:href="#IBMPlexSans-Regular-2212"/>
       <use xlink:href="#IBMPlexSans-Regular-35" transform="translate(59.999985 0)"/>
       <use xlink:href="#IBMPlexSans-Regular-2e" transform="translate(119.999969 0)"/>
       <use xlink:href="#IBMPlexSans-Regular-30" transform="translate(147.199966 0)"/>
      </g>
     </g>
    </g>
    <g id="xtick_42">
     <g id="text_10">
      <!-- −2.5 -->
      <g style="fill: #838383" transform="translate(54.282438 149.58) scale(0.11 -0.11)">
       <defs>
        <path id="IBMPlexSans-Regular-32" d="M 3411 0 
L 480 0 
L 480 550 
L 1939 1894 
Q 2253 2182 2464 2505 
Q 2675 2829 2675 3155 
L 2675 3232 
Q 2675 3603 2470 3833 
Q 2266 4064 1850 4064 
Q 1645 4064 1491 4006 
Q 1338 3949 1226 3846 
Q 1114 3744 1040 3606 
Q 966 3469 922 3309 
L 442 3494 
Q 506 3693 618 3881 
Q 730 4070 899 4217 
Q 1069 4365 1309 4454 
Q 1549 4544 1875 4544 
Q 2202 4544 2458 4448 
Q 2714 4352 2886 4179 
Q 3059 4006 3152 3769 
Q 3245 3533 3245 3245 
Q 3245 2982 3171 2758 
Q 3098 2534 2970 2332 
Q 2842 2131 2659 1939 
Q 2477 1747 2266 1555 
L 1062 474 
L 3411 474 
L 3411 0 
z
" transform="scale(0.015625)"/>
       </defs>
       <use xlink:href="#IBMPlexSans-Regular-2212"/>
       <use xlink:href="#IBMPlexSans-Regular-32" transform="translate(59.999985 0)"/>
       <use xlink:href="#IBMPlexSans-Regular-2e" transform="translate(119.999969 0)"/>
       <use xlink:href="#IBMPlexSans-Regular-35" transform="translate(147.199966 0)"/>
      </g>
     </g>
    </g>
    <g id="xtick_43">
     <g id="text_11">
      <!-- 0.0 -->
      <g style="fill: #838383" transform="translate(103.678327 149.58) scale(0.11 -0.11)">
       <use xlink:href="#IBMPlexSans-Regular-30"/>
       <use xlink:href="#IBMPlexSans-Regular-2e" transform="translate(59.999985 0)"/>
       <use xlink:href="#IBMPlexSans-Regular-30" transform="translate(87.199982 0)"/>
      </g>
     </g>
    </g>
    <g id="xtick_44">
     <g id="text_12">
      <!-- 2.5 -->
      <g style="fill: #838383" transform="translate(149.774216 149.58) scale(0.11 -0.11)">
       <use xlink:href="#IBMPlexSans-Regular-32"/>
       <use xlink:href="#IBMPlexSans-Regular-2e" transform="translate(59.999985 0)"/>
       <use xlink:href="#IBMPlexSans-Regular-35" transform="translate(87.199982 0)"/>
      </g>
     </g>
    </g>
    <g id="xtick_45">
     <g id="text_13">
      <!-- 5.0 -->
      <g style="fill: #838383" transform="translate(195.870105 149.58) scale(0.11 -0.11)">
       <use xlink:href="#IBMPlexSans-Regular-35"/>
       <use xlink:href="#IBMPlexSans-Regular-2e" transform="translate(59.999985 0)"/>
       <use xlink:href="#IBMPlexSans-Regular-30" transform="translate(87.199982 0)"/>
      </g>
     </g>
    </g>
    <g id="text_14">
     <!-- sldf -->
     <g style="fill: #262626" transform="translate(101.84625 164.66) scale(0.12 -0.12)">
      <defs>
       <path id="IBMPlexSans-Regular-73" d="M 1536 -77 
Q 1075 -77 764 99 
Q 454 275 230 570 
L 595 864 
Q 787 621 1024 489 
Q 1261 358 1574 358 
Q 1901 358 2083 499 
Q 2266 640 2266 896 
Q 2266 1088 2141 1225 
Q 2016 1363 1690 1414 
L 1427 1453 
Q 1197 1485 1005 1552 
Q 813 1619 669 1731 
Q 525 1843 445 2009 
Q 365 2176 365 2406 
Q 365 2650 454 2832 
Q 544 3014 701 3136 
Q 858 3258 1075 3318 
Q 1293 3379 1542 3379 
Q 1946 3379 2218 3238 
Q 2490 3098 2694 2848 
L 2355 2541 
Q 2246 2694 2035 2819 
Q 1824 2944 1504 2944 
Q 1184 2944 1021 2806 
Q 858 2669 858 2432 
Q 858 2189 1021 2080 
Q 1184 1971 1491 1920 
L 1747 1882 
Q 2298 1798 2528 1564 
Q 2758 1331 2758 954 
Q 2758 474 2432 198 
Q 2106 -77 1536 -77 
z
" transform="scale(0.015625)"/>
       <path id="IBMPlexSans-Regular-6c" d="M 1088 0 
Q 819 0 681 150 
Q 544 301 544 531 
L 544 4736 
L 1056 4736 
L 1056 448 
L 1542 448 
L 1542 0 
L 1088 0 
z
" transform="scale(0.015625)"/>
       <path id="IBMPlexSans-Regular-64" d="M 2656 538 
L 2630 538 
Q 2330 -77 1664 -77 
Q 1357 -77 1107 44 
Q 858 166 682 390 
Q 506 614 413 934 
Q 320 1254 320 1651 
Q 320 2048 413 2368 
Q 506 2688 682 2912 
Q 858 3136 1107 3257 
Q 1357 3379 1664 3379 
Q 2010 3379 2256 3228 
Q 2502 3078 2630 2765 
L 2656 2765 
L 2656 4736 
L 3168 4736 
L 3168 0 
L 2656 0 
L 2656 538 
z
M 1805 384 
Q 1978 384 2134 429 
Q 2291 474 2406 560 
Q 2522 646 2589 771 
Q 2656 896 2656 1056 
L 2656 2285 
Q 2656 2419 2589 2537 
Q 2522 2656 2406 2739 
Q 2291 2822 2134 2870 
Q 1978 2918 1805 2918 
Q 1370 2918 1120 2646 
Q 870 2374 870 1933 
L 870 1370 
Q 870 928 1120 656 
Q 1370 384 1805 384 
z
" transform="scale(0.015625)"/>
       <path id="IBMPlexSans-Regular-66" d="M 723 2854 
L 186 2854 
L 186 3302 
L 723 3302 
L 723 3968 
Q 723 4314 902 4525 
Q 1082 4736 1446 4736 
L 1946 4736 
L 1946 4288 
L 1235 4288 
L 1235 3302 
L 1946 3302 
L 1946 2854 
L 1235 2854 
L 1235 0 
L 723 0 
L 723 2854 
z
" transform="scale(0.015625)"/>
      </defs>
      <use xlink:href="#IBMPlexSans-Regular-73"/>
      <use xlink:href="#IBMPlexSans-Regular-6c" transform="translate(48.699997 0)"/>
      <use xlink:href="#IBMPlexSans-Regular-64" transform="translate(75.899994 0)"/>
      <use xlink:href="#IBMPlexSans-Regular-66" transform="translate(133.899979 0)"/>
     </g>
    </g>
   </g>
   <g id="matplotlib.axis_18"/>
   <g id="line2d_9">
    <path d="M 7.2 131.94 
L 216.45 131.94 
" style="fill: none; stroke: #482475; stroke-opacity: 0.9; stroke-linecap: round"/>
   </g>
   <g id="text_15">
    <!-- 8 -->
    <g style="fill: #482475" transform="translate(7.2 131.022) scale(0.12 -0.12)">
     <defs>
      <path id="IBMPlexSans-Bold-38" d="M 1920 -77 
Q 1523 -77 1212 22 
Q 902 122 691 294 
Q 480 467 368 704 
Q 256 941 256 1222 
Q 256 1651 493 1923 
Q 730 2195 1133 2304 
L 1133 2355 
Q 806 2477 598 2726 
Q 390 2976 390 3366 
Q 390 3622 489 3840 
Q 589 4058 784 4214 
Q 979 4371 1264 4457 
Q 1549 4544 1920 4544 
Q 2291 4544 2576 4457 
Q 2861 4371 3056 4214 
Q 3251 4058 3350 3840 
Q 3450 3622 3450 3366 
Q 3450 2976 3242 2726 
Q 3034 2477 2707 2355 
L 2707 2304 
Q 3110 2195 3347 1923 
Q 3584 1651 3584 1222 
Q 3584 941 3472 704 
Q 3360 467 3149 294 
Q 2938 122 2627 22 
Q 2317 -77 1920 -77 
z
M 1920 659 
Q 2240 659 2409 809 
Q 2579 960 2579 1229 
L 2579 1357 
Q 2579 1626 2409 1776 
Q 2240 1926 1920 1926 
Q 1600 1926 1430 1776 
Q 1261 1626 1261 1357 
L 1261 1229 
Q 1261 960 1430 809 
Q 1600 659 1920 659 
z
M 1920 2630 
Q 2227 2630 2387 2774 
Q 2547 2918 2547 3168 
L 2547 3270 
Q 2547 3520 2387 3664 
Q 2227 3808 1920 3808 
Q 1613 3808 1453 3664 
Q 1293 3520 1293 3270 
L 1293 3168 
Q 1293 2918 1453 2774 
Q 1613 2630 1920 2630 
z
" transform="scale(0.015625)"/>
     </defs>
     <use xlink:href="#IBMPlexSans-Bold-38"/>
    </g>
   </g>
  </g>
 </g>
</svg>
