<?xml version="1.0" encoding="utf-8" standalone="no"?>
<!DOCTYPE svg PUBLIC "-//W3C//DTD SVG 1.1//EN"
  "http://www.w3.org/Graphics/SVG/1.1/DTD/svg11.dtd">
<svg xmlns:xlink="http://www.w3.org/1999/xlink" width="223.65pt" height="174.26pt" viewBox="0 0 223.65 174.26" xmlns="http://www.w3.org/2000/svg" version="1.1">
 <metadata>
  <rdf:RDF xmlns:dc="http://purl.org/dc/elements/1.1/" xmlns:cc="http://creativecommons.org/ns#" xmlns:rdf="http://www.w3.org/1999/02/22-rdf-syntax-ns#">
   <cc:Work>
    <dc:type rdf:resource="http://purl.org/dc/dcmitype/StillImage"/>
    <dc:date>2025-04-30T15:48:27.543564</dc:date>
    <dc:format>image/svg+xml</dc:format>
    <dc:creator>
     <cc:Agent>
      <dc:title>Matplotlib v3.10.1, https://matplotlib.org/</dc:title>
     </cc:Agent>
    </dc:creator>
   </cc:Work>
  </rdf:RDF>
 </metadata>
 <defs>
  <style type="text/css">*{stroke-linejoin: round; stroke-linecap: butt}</style>
 </defs>
 <g id="figure_1">
  <g id="patch_1">
   <path d="M 0 174.26 
L 223.65 174.26 
L 223.65 0 
L 0 0 
L 0 174.26 
z
" style="fill: none"/>
  </g>
  <g id="axes_1">
   <g id="patch_2">
    <path d="M 7.2 48.78 
L 216.45 48.78 
L 216.45 7.2 
L 7.2 7.2 
L 7.2 48.78 
z
" style="fill: none"/>
   </g>
   <g id="matplotlib.axis_1">
    <g id="xtick_1"/>
    <g id="xtick_2"/>
   </g>
   <g id="matplotlib.axis_2"/>
   <g id="line2d_1">
    <path d="M 7.2 48.78 
L 216.45 48.78 
" style="fill: none; stroke: #482475; stroke-opacity: 0.9; stroke-linecap: round"/>
   </g>
   <g id="text_1">
    <!-- 0 -->
    <g style="fill: #482475" transform="translate(7.2 47.862) scale(0.12 -0.12)">
     <defs>
      <path id="IBMPlexSans-Bold-30" d="M 1920 -77 
Q 1043 -77 620 531 
Q 198 1139 198 2234 
Q 198 3328 620 3936 
Q 1043 4544 1920 4544 
Q 2797 4544 3219 3936 
Q 3642 3328 3642 2234 
Q 3642 1139 3219 531 
Q 2797 -77 1920 -77 
z
M 1920 736 
Q 2304 736 2451 1017 
Q 2598 1299 2598 1811 
L 2598 2656 
Q 2598 3168 2451 3449 
Q 2304 3731 1920 3731 
Q 1536 3731 1389 3449 
Q 1242 3168 1242 2656 
L 1242 1811 
Q 1242 1299 1389 1017 
Q 1536 736 1920 736 
z
" transform="scale(0.015625)"/>
     </defs>
     <use xlink:href="#IBMPlexSans-Bold-30"/>
    </g>
   </g>
  </g>
  <g id="axes_2">
   <g id="patch_3">
    <path d="M 7.2 59.175 
L 216.45 59.175 
L 216.45 17.595 
L 7.2 17.595 
L 7.2 59.175 
z
" style="fill: none"/>
   </g>
   <g id="matplotlib.axis_3">
    <g id="xtick_3"/>
    <g id="xtick_4"/>
   </g>
   <g id="matplotlib.axis_4"/>
   <g id="FillBetweenPolyCollection_1">
    <defs>
     <path id="mb4c3b5b8db" d="M 56.464716 -115.737466 
L 56.464716 -115.085 
L 56.698973 -115.085 
L 56.933231 -115.085 
L 57.167488 -115.085 
L 57.401745 -115.085 
L 57.636002 -115.085 
L 57.87026 -115.085 
L 58.104517 -115.085 
L 58.338774 -115.085 
L 58.573031 -115.085 
L 58.807289 -115.085 
L 59.041546 -115.085 
L 59.275803 -115.085 
L 59.51006 -115.085 
L 59.744318 -115.085 
L 59.978575 -115.085 
L 60.212832 -115.085 
L 60.447089 -115.085 
L 60.681347 -115.085 
L 60.915604 -115.085 
L 61.149861 -115.085 
L 61.384118 -115.085 
L 61.618376 -115.085 
L 61.852633 -115.085 
L 62.08689 -115.085 
L 62.321147 -115.085 
L 62.555405 -115.085 
L 62.789662 -115.085 
L 63.023919 -115.085 
L 63.258176 -115.085 
L 63.492434 -115.085 
L 63.726691 -115.085 
L 63.960948 -115.085 
L 64.195205 -115.085 
L 64.429463 -115.085 
L 64.66372 -115.085 
L 64.897977 -115.085 
L 65.132234 -115.085 
L 65.366492 -115.085 
L 65.600749 -115.085 
L 65.835006 -115.085 
L 66.069263 -115.085 
L 66.303521 -115.085 
L 66.537778 -115.085 
L 66.772035 -115.085 
L 67.006292 -115.085 
L 67.24055 -115.085 
L 67.474807 -115.085 
L 67.709064 -115.085 
L 67.943321 -115.085 
L 68.177579 -115.085 
L 68.411836 -115.085 
L 68.646093 -115.085 
L 68.88035 -115.085 
L 69.114608 -115.085 
L 69.348865 -115.085 
L 69.583122 -115.085 
L 69.817379 -115.085 
L 70.051637 -115.085 
L 70.285894 -115.085 
L 70.520151 -115.085 
L 70.754408 -115.085 
L 70.988666 -115.085 
L 71.222923 -115.085 
L 71.45718 -115.085 
L 71.691437 -115.085 
L 71.925695 -115.085 
L 72.159952 -115.085 
L 72.394209 -115.085 
L 72.628466 -115.085 
L 72.862724 -115.085 
L 73.096981 -115.085 
L 73.331238 -115.085 
L 73.565495 -115.085 
L 73.799753 -115.085 
L 74.03401 -115.085 
L 74.268267 -115.085 
L 74.502524 -115.085 
L 74.736782 -115.085 
L 74.971039 -115.085 
L 75.205296 -115.085 
L 75.439553 -115.085 
L 75.673811 -115.085 
L 75.908068 -115.085 
L 76.142325 -115.085 
L 76.376582 -115.085 
L 76.61084 -115.085 
L 76.845097 -115.085 
L 77.079354 -115.085 
L 77.313611 -115.085 
L 77.547869 -115.085 
L 77.782126 -115.085 
L 78.016383 -115.085 
L 78.25064 -115.085 
L 78.484898 -115.085 
L 78.719155 -115.085 
L 78.953412 -115.085 
L 79.187669 -115.085 
L 79.421927 -115.085 
L 79.656184 -115.085 
L 79.890441 -115.085 
L 80.124698 -115.085 
L 80.358956 -115.085 
L 80.593213 -115.085 
L 80.82747 -115.085 
L 81.061727 -115.085 
L 81.295985 -115.085 
L 81.530242 -115.085 
L 81.764499 -115.085 
L 81.998756 -115.085 
L 82.233014 -115.085 
L 82.467271 -115.085 
L 82.701528 -115.085 
L 82.935785 -115.085 
L 83.170043 -115.085 
L 83.4043 -115.085 
L 83.638557 -115.085 
L 83.872814 -115.085 
L 84.107072 -115.085 
L 84.341329 -115.085 
L 84.575586 -115.085 
L 84.809843 -115.085 
L 85.044101 -115.085 
L 85.278358 -115.085 
L 85.512615 -115.085 
L 85.746872 -115.085 
L 85.98113 -115.085 
L 86.215387 -115.085 
L 86.449644 -115.085 
L 86.683901 -115.085 
L 86.918159 -115.085 
L 87.152416 -115.085 
L 87.386673 -115.085 
L 87.62093 -115.085 
L 87.855188 -115.085 
L 88.089445 -115.085 
L 88.323702 -115.085 
L 88.557959 -115.085 
L 88.792217 -115.085 
L 89.026474 -115.085 
L 89.260731 -115.085 
L 89.494988 -115.085 
L 89.729246 -115.085 
L 89.963503 -115.085 
L 90.19776 -115.085 
L 90.432017 -115.085 
L 90.666275 -115.085 
L 90.900532 -115.085 
L 91.134789 -115.085 
L 91.369046 -115.085 
L 91.603304 -115.085 
L 91.837561 -115.085 
L 92.071818 -115.085 
L 92.306075 -115.085 
L 92.540333 -115.085 
L 92.77459 -115.085 
L 93.008847 -115.085 
L 93.243104 -115.085 
L 93.477362 -115.085 
L 93.711619 -115.085 
L 93.945876 -115.085 
L 94.180133 -115.085 
L 94.414391 -115.085 
L 94.648648 -115.085 
L 94.882905 -115.085 
L 95.117162 -115.085 
L 95.35142 -115.085 
L 95.585677 -115.085 
L 95.819934 -115.085 
L 96.054191 -115.085 
L 96.288449 -115.085 
L 96.522706 -115.085 
L 96.756963 -115.085 
L 96.99122 -115.085 
L 97.225478 -115.085 
L 97.459735 -115.085 
L 97.693992 -115.085 
L 97.928249 -115.085 
L 98.162507 -115.085 
L 98.396764 -115.085 
L 98.631021 -115.085 
L 98.865278 -115.085 
L 99.099536 -115.085 
L 99.333793 -115.085 
L 99.56805 -115.085 
L 99.802307 -115.085 
L 100.036565 -115.085 
L 100.270822 -115.085 
L 100.505079 -115.085 
L 100.739336 -115.085 
L 100.973594 -115.085 
L 101.207851 -115.085 
L 101.442108 -115.085 
L 101.676365 -115.085 
L 101.910623 -115.085 
L 102.14488 -115.085 
L 102.379137 -115.085 
L 102.613394 -115.085 
L 102.847652 -115.085 
L 103.081909 -115.085 
L 103.081909 -115.723991 
L 103.081909 -115.723991 
L 102.847652 -115.803556 
L 102.613394 -115.889529 
L 102.379137 -115.982011 
L 102.14488 -116.081062 
L 101.910623 -116.186704 
L 101.676365 -116.298915 
L 101.442108 -116.417633 
L 101.207851 -116.542754 
L 100.973594 -116.674133 
L 100.739336 -116.811585 
L 100.505079 -116.954893 
L 100.270822 -117.103808 
L 100.036565 -117.258063 
L 99.802307 -117.417378 
L 99.56805 -117.58148 
L 99.333793 -117.750113 
L 99.099536 -117.923062 
L 98.865278 -118.100173 
L 98.631021 -118.281375 
L 98.396764 -118.46671 
L 98.162507 -118.656351 
L 97.928249 -118.850629 
L 97.693992 -119.050055 
L 97.459735 -119.255337 
L 97.225478 -119.46739 
L 96.99122 -119.687346 
L 96.756963 -119.916551 
L 96.522706 -120.15656 
L 96.288449 -120.40912 
L 96.054191 -120.676148 
L 95.819934 -120.959705 
L 95.585677 -121.261965 
L 95.35142 -121.585173 
L 95.117162 -121.931612 
L 94.882905 -122.303564 
L 94.648648 -122.703276 
L 94.414391 -123.132922 
L 94.180133 -123.594579 
L 93.945876 -124.090199 
L 93.711619 -124.621594 
L 93.477362 -125.190411 
L 93.243104 -125.798126 
L 93.008847 -126.446028 
L 92.77459 -127.135202 
L 92.540333 -127.866511 
L 92.306075 -128.640577 
L 92.071818 -129.45774 
L 91.837561 -130.318026 
L 91.603304 -131.221093 
L 91.369046 -132.166172 
L 91.134789 -133.152005 
L 90.900532 -134.17677 
L 90.666275 -135.23801 
L 90.432017 -136.332568 
L 90.19776 -137.456521 
L 89.963503 -138.605133 
L 89.729246 -139.772827 
L 89.494988 -140.95318 
L 89.260731 -142.13894 
L 89.026474 -143.322082 
L 88.792217 -144.493893 
L 88.557959 -145.645088 
L 88.323702 -146.765964 
L 88.089445 -147.846577 
L 87.855188 -148.876949 
L 87.62093 -149.847291 
L 87.386673 -150.748239 
L 87.152416 -151.571093 
L 86.918159 -152.308055 
L 86.683901 -152.952445 
L 86.449644 -153.498905 
L 86.215387 -153.943563 
L 85.98113 -154.284171 
L 85.746872 -154.520184 
L 85.512615 -154.652812 
L 85.278358 -154.685 
L 85.044101 -154.621379 
L 84.809843 -154.468152 
L 84.575586 -154.232943 
L 84.341329 -153.924602 
L 84.107072 -153.552978 
L 83.872814 -153.128661 
L 83.638557 -152.66271 
L 83.4043 -152.166368 
L 83.170043 -151.65078 
L 82.935785 -151.126719 
L 82.701528 -150.604328 
L 82.467271 -150.092888 
L 82.233014 -149.600618 
L 81.998756 -149.13451 
L 81.764499 -148.700208 
L 81.530242 -148.301925 
L 81.295985 -147.942412 
L 81.061727 -147.622957 
L 80.82747 -147.343442 
L 80.593213 -147.102422 
L 80.358956 -146.897247 
L 80.124698 -146.724211 
L 79.890441 -146.578726 
L 79.656184 -146.455503 
L 79.421927 -146.348757 
L 79.187669 -146.252408 
L 78.953412 -146.16028 
L 78.719155 -146.066296 
L 78.484898 -145.964652 
L 78.25064 -145.849981 
L 78.016383 -145.717491 
L 77.782126 -145.56307 
L 77.547869 -145.383377 
L 77.313611 -145.175888 
L 77.079354 -144.938921 
L 76.845097 -144.671632 
L 76.61084 -144.373974 
L 76.376582 -144.046644 
L 76.142325 -143.690992 
L 75.908068 -143.308929 
L 75.673811 -142.902806 
L 75.439553 -142.4753 
L 75.205296 -142.029282 
L 74.971039 -141.5677 
L 74.736782 -141.093458 
L 74.502524 -140.609314 
L 74.268267 -140.117792 
L 74.03401 -139.621102 
L 73.799753 -139.121096 
L 73.565495 -138.619228 
L 73.331238 -138.116545 
L 73.096981 -137.613695 
L 72.862724 -137.110954 
L 72.628466 -136.608264 
L 72.394209 -136.105294 
L 72.159952 -135.601498 
L 71.925695 -135.096188 
L 71.691437 -134.58861 
L 71.45718 -134.078011 
L 71.222923 -133.56371 
L 70.988666 -133.045155 
L 70.754408 -132.521978 
L 70.520151 -131.994033 
L 70.285894 -131.461421 
L 70.051637 -130.924508 
L 69.817379 -130.383925 
L 69.583122 -129.840554 
L 69.348865 -129.295514 
L 69.114608 -128.750123 
L 68.88035 -128.205868 
L 68.646093 -127.664356 
L 68.411836 -127.127274 
L 68.177579 -126.596341 
L 67.943321 -126.073266 
L 67.709064 -125.559708 
L 67.474807 -125.057238 
L 67.24055 -124.567315 
L 67.006292 -124.091256 
L 66.772035 -123.630223 
L 66.537778 -123.185213 
L 66.303521 -122.757051 
L 66.069263 -122.346394 
L 65.835006 -121.95373 
L 65.600749 -121.579389 
L 65.366492 -121.223552 
L 65.132234 -120.886261 
L 64.897977 -120.567429 
L 64.66372 -120.266849 
L 64.429463 -119.984205 
L 64.195205 -119.719079 
L 63.960948 -119.470958 
L 63.726691 -119.239239 
L 63.492434 -119.023235 
L 63.258176 -118.822182 
L 63.023919 -118.635241 
L 62.789662 -118.461507 
L 62.555405 -118.300018 
L 62.321147 -118.14976 
L 62.08689 -118.009684 
L 61.852633 -117.878715 
L 61.618376 -117.75577 
L 61.384118 -117.639775 
L 61.149861 -117.529682 
L 60.915604 -117.424486 
L 60.681347 -117.323248 
L 60.447089 -117.225109 
L 60.212832 -117.129307 
L 59.978575 -117.035189 
L 59.744318 -116.942224 
L 59.51006 -116.850007 
L 59.275803 -116.758264 
L 59.041546 -116.666848 
L 58.807289 -116.575737 
L 58.573031 -116.48502 
L 58.338774 -116.394889 
L 58.104517 -116.305621 
L 57.87026 -116.217559 
L 57.636002 -116.131097 
L 57.401745 -116.046654 
L 57.167488 -115.964662 
L 56.933231 -115.885543 
L 56.698973 -115.809692 
L 56.464716 -115.737466 
z
" style="stroke: #414487; stroke-width: 1.25"/>
    </defs>
    <g>
     <use xlink:href="#mb4c3b5b8db" x="0" y="174.26" style="fill: #414487; fill-opacity: 0.7; stroke: #414487; stroke-width: 1.25"/>
    </g>
   </g>
   <g id="line2d_2">
    <path d="M 7.2 59.175 
L 216.45 59.175 
" style="fill: none; stroke: #414487; stroke-opacity: 0.9; stroke-linecap: round"/>
   </g>
   <g id="text_2">
    <!-- 1 -->
    <g style="fill: #414487" transform="translate(7.2 58.257) scale(0.12 -0.12)">
     <defs>
      <path id="IBMPlexSans-Bold-31" d="M 602 0 
L 602 774 
L 1805 774 
L 1805 3770 
L 1747 3770 
L 838 2579 
L 224 3059 
L 1293 4467 
L 2765 4467 
L 2765 774 
L 3712 774 
L 3712 0 
L 602 0 
z
" transform="scale(0.015625)"/>
     </defs>
     <use xlink:href="#IBMPlexSans-Bold-31"/>
    </g>
   </g>
  </g>
  <g id="axes_3">
   <g id="patch_4">
    <path d="M 7.2 69.57 
L 216.45 69.57 
L 216.45 27.99 
L 7.2 27.99 
L 7.2 69.57 
z
" style="fill: none"/>
   </g>
   <g id="matplotlib.axis_5">
    <g id="xtick_5"/>
    <g id="xtick_6"/>
   </g>
   <g id="matplotlib.axis_6"/>
   <g id="FillBetweenPolyCollection_2">
    <defs>
     <path id="m014c1c8c6e" d="M 43.001842 -105.045477 
L 43.001842 -104.69 
L 43.475692 -104.69 
L 43.949541 -104.69 
L 44.423391 -104.69 
L 44.897241 -104.69 
L 45.371091 -104.69 
L 45.844941 -104.69 
L 46.318791 -104.69 
L 46.792641 -104.69 
L 47.266491 -104.69 
L 47.740341 -104.69 
L 48.214191 -104.69 
L 48.688041 -104.69 
L 49.161891 -104.69 
L 49.635741 -104.69 
L 50.109591 -104.69 
L 50.58344 -104.69 
L 51.05729 -104.69 
L 51.53114 -104.69 
L 52.00499 -104.69 
L 52.47884 -104.69 
L 52.95269 -104.69 
L 53.42654 -104.69 
L 53.90039 -104.69 
L 54.37424 -104.69 
L 54.84809 -104.69 
L 55.32194 -104.69 
L 55.79579 -104.69 
L 56.26964 -104.69 
L 56.74349 -104.69 
L 57.217339 -104.69 
L 57.691189 -104.69 
L 58.165039 -104.69 
L 58.638889 -104.69 
L 59.112739 -104.69 
L 59.586589 -104.69 
L 60.060439 -104.69 
L 60.534289 -104.69 
L 61.008139 -104.69 
L 61.481989 -104.69 
L 61.955839 -104.69 
L 62.429689 -104.69 
L 62.903539 -104.69 
L 63.377388 -104.69 
L 63.851238 -104.69 
L 64.325088 -104.69 
L 64.798938 -104.69 
L 65.272788 -104.69 
L 65.746638 -104.69 
L 66.220488 -104.69 
L 66.694338 -104.69 
L 67.168188 -104.69 
L 67.642038 -104.69 
L 68.115888 -104.69 
L 68.589738 -104.69 
L 69.063588 -104.69 
L 69.537438 -104.69 
L 70.011287 -104.69 
L 70.485137 -104.69 
L 70.958987 -104.69 
L 71.432837 -104.69 
L 71.906687 -104.69 
L 72.380537 -104.69 
L 72.854387 -104.69 
L 73.328237 -104.69 
L 73.802087 -104.69 
L 74.275937 -104.69 
L 74.749787 -104.69 
L 75.223637 -104.69 
L 75.697487 -104.69 
L 76.171336 -104.69 
L 76.645186 -104.69 
L 77.119036 -104.69 
L 77.592886 -104.69 
L 78.066736 -104.69 
L 78.540586 -104.69 
L 79.014436 -104.69 
L 79.488286 -104.69 
L 79.962136 -104.69 
L 80.435986 -104.69 
L 80.909836 -104.69 
L 81.383686 -104.69 
L 81.857536 -104.69 
L 82.331386 -104.69 
L 82.805235 -104.69 
L 83.279085 -104.69 
L 83.752935 -104.69 
L 84.226785 -104.69 
L 84.700635 -104.69 
L 85.174485 -104.69 
L 85.648335 -104.69 
L 86.122185 -104.69 
L 86.596035 -104.69 
L 87.069885 -104.69 
L 87.543735 -104.69 
L 88.017585 -104.69 
L 88.491435 -104.69 
L 88.965285 -104.69 
L 89.439134 -104.69 
L 89.912984 -104.69 
L 90.386834 -104.69 
L 90.860684 -104.69 
L 91.334534 -104.69 
L 91.808384 -104.69 
L 92.282234 -104.69 
L 92.756084 -104.69 
L 93.229934 -104.69 
L 93.703784 -104.69 
L 94.177634 -104.69 
L 94.651484 -104.69 
L 95.125334 -104.69 
L 95.599183 -104.69 
L 96.073033 -104.69 
L 96.546883 -104.69 
L 97.020733 -104.69 
L 97.494583 -104.69 
L 97.968433 -104.69 
L 98.442283 -104.69 
L 98.916133 -104.69 
L 99.389983 -104.69 
L 99.863833 -104.69 
L 100.337683 -104.69 
L 100.811533 -104.69 
L 101.285383 -104.69 
L 101.759233 -104.69 
L 102.233082 -104.69 
L 102.706932 -104.69 
L 103.180782 -104.69 
L 103.654632 -104.69 
L 104.128482 -104.69 
L 104.602332 -104.69 
L 105.076182 -104.69 
L 105.550032 -104.69 
L 106.023882 -104.69 
L 106.497732 -104.69 
L 106.971582 -104.69 
L 107.445432 -104.69 
L 107.919282 -104.69 
L 108.393131 -104.69 
L 108.866981 -104.69 
L 109.340831 -104.69 
L 109.814681 -104.69 
L 110.288531 -104.69 
L 110.762381 -104.69 
L 111.236231 -104.69 
L 111.710081 -104.69 
L 112.183931 -104.69 
L 112.657781 -104.69 
L 113.131631 -104.69 
L 113.605481 -104.69 
L 114.079331 -104.69 
L 114.553181 -104.69 
L 115.02703 -104.69 
L 115.50088 -104.69 
L 115.97473 -104.69 
L 116.44858 -104.69 
L 116.92243 -104.69 
L 117.39628 -104.69 
L 117.87013 -104.69 
L 118.34398 -104.69 
L 118.81783 -104.69 
L 119.29168 -104.69 
L 119.76553 -104.69 
L 120.23938 -104.69 
L 120.71323 -104.69 
L 121.18708 -104.69 
L 121.660929 -104.69 
L 122.134779 -104.69 
L 122.608629 -104.69 
L 123.082479 -104.69 
L 123.556329 -104.69 
L 124.030179 -104.69 
L 124.504029 -104.69 
L 124.977879 -104.69 
L 125.451729 -104.69 
L 125.925579 -104.69 
L 126.399429 -104.69 
L 126.873279 -104.69 
L 127.347129 -104.69 
L 127.820978 -104.69 
L 128.294828 -104.69 
L 128.768678 -104.69 
L 129.242528 -104.69 
L 129.716378 -104.69 
L 130.190228 -104.69 
L 130.664078 -104.69 
L 131.137928 -104.69 
L 131.611778 -104.69 
L 132.085628 -104.69 
L 132.559478 -104.69 
L 133.033328 -104.69 
L 133.507178 -104.69 
L 133.981028 -104.69 
L 134.454877 -104.69 
L 134.928727 -104.69 
L 135.402577 -104.69 
L 135.876427 -104.69 
L 136.350277 -104.69 
L 136.824127 -104.69 
L 137.297977 -104.69 
L 137.297977 -105.006516 
L 137.297977 -105.006516 
L 136.824127 -105.045587 
L 136.350277 -105.087729 
L 135.876427 -105.132972 
L 135.402577 -105.181323 
L 134.928727 -105.232764 
L 134.454877 -105.287256 
L 133.981028 -105.344736 
L 133.507178 -105.405117 
L 133.033328 -105.468291 
L 132.559478 -105.534127 
L 132.085628 -105.602477 
L 131.611778 -105.673176 
L 131.137928 -105.74605 
L 130.664078 -105.820917 
L 130.190228 -105.897602 
L 129.716378 -105.975937 
L 129.242528 -106.055777 
L 128.768678 -106.13701 
L 128.294828 -106.219568 
L 127.820978 -106.303443 
L 127.347129 -106.388697 
L 126.873279 -106.475477 
L 126.399429 -106.564025 
L 125.925579 -106.654688 
L 125.451729 -106.747928 
L 124.977879 -106.84432 
L 124.504029 -106.944558 
L 124.030179 -107.049453 
L 123.556329 -107.159917 
L 123.082479 -107.276962 
L 122.608629 -107.401679 
L 122.134779 -107.535219 
L 121.660929 -107.678778 
L 121.18708 -107.833567 
L 120.71323 -108.000796 
L 120.23938 -108.181648 
L 119.76553 -108.377256 
L 119.29168 -108.588687 
L 118.81783 -108.816926 
L 118.34398 -109.062857 
L 117.87013 -109.327259 
L 117.39628 -109.610795 
L 116.92243 -109.914009 
L 116.44858 -110.23732 
L 115.97473 -110.581023 
L 115.50088 -110.945283 
L 115.02703 -111.330132 
L 114.553181 -111.735461 
L 114.079331 -112.16101 
L 113.605481 -112.606355 
L 113.131631 -113.070887 
L 112.657781 -113.553795 
L 112.183931 -114.054035 
L 111.710081 -114.57031 
L 111.236231 -115.101039 
L 110.762381 -115.644336 
L 110.288531 -116.197988 
L 109.814681 -116.759442 
L 109.340831 -117.325801 
L 108.866981 -117.893825 
L 108.393131 -118.459954 
L 107.919282 -119.020335 
L 107.445432 -119.570866 
L 106.971582 -120.107257 
L 106.497732 -120.625098 
L 106.023882 -121.119944 
L 105.550032 -121.587404 
L 105.076182 -122.023244 
L 104.602332 -122.423482 
L 104.128482 -122.784498 
L 103.654632 -123.103127 
L 103.180782 -123.376751 
L 102.706932 -123.603382 
L 102.233082 -123.781726 
L 101.759233 -123.911231 
L 101.285383 -123.99212 
L 100.811533 -124.025402 
L 100.337683 -124.012852 
L 99.863833 -123.956984 
L 99.389983 -123.860995 
L 98.916133 -123.728686 
L 98.442283 -123.564374 
L 97.968433 -123.372786 
L 97.494583 -123.158937 
L 97.020733 -122.928008 
L 96.546883 -122.685219 
L 96.073033 -122.4357 
L 95.599183 -122.184366 
L 95.125334 -121.935806 
L 94.651484 -121.694181 
L 94.177634 -121.463132 
L 93.703784 -121.245717 
L 93.229934 -121.044354 
L 92.756084 -120.860791 
L 92.282234 -120.696099 
L 91.808384 -120.550674 
L 91.334534 -120.424271 
L 90.860684 -120.316044 
L 90.386834 -120.224609 
L 89.912984 -120.148113 
L 89.439134 -120.084315 
L 88.965285 -120.03068 
L 88.491435 -119.984462 
L 88.017585 -119.942805 
L 87.543735 -119.902826 
L 87.069885 -119.861705 
L 86.596035 -119.816762 
L 86.122185 -119.765524 
L 85.648335 -119.705786 
L 85.174485 -119.635653 
L 84.700635 -119.553577 
L 84.226785 -119.458376 
L 83.752935 -119.349241 
L 83.279085 -119.225727 
L 82.805235 -119.087745 
L 82.331386 -118.935523 
L 81.857536 -118.76958 
L 81.383686 -118.590677 
L 80.909836 -118.399771 
L 80.435986 -118.197962 
L 79.962136 -117.986444 
L 79.488286 -117.76645 
L 79.014436 -117.539208 
L 78.540586 -117.305892 
L 78.066736 -117.067593 
L 77.592886 -116.825281 
L 77.119036 -116.579788 
L 76.645186 -116.331791 
L 76.171336 -116.081811 
L 75.697487 -115.830215 
L 75.223637 -115.577223 
L 74.749787 -115.322931 
L 74.275937 -115.067329 
L 73.802087 -114.810328 
L 73.328237 -114.55179 
L 72.854387 -114.291555 
L 72.380537 -114.029472 
L 71.906687 -113.765425 
L 71.432837 -113.499353 
L 70.958987 -113.231274 
L 70.485137 -112.961296 
L 70.011287 -112.689626 
L 69.537438 -112.416576 
L 69.063588 -112.14256 
L 68.589738 -111.868087 
L 68.115888 -111.59375 
L 67.642038 -111.320217 
L 67.168188 -111.048208 
L 66.694338 -110.778483 
L 66.220488 -110.511822 
L 65.746638 -110.249005 
L 65.272788 -109.990798 
L 64.798938 -109.737938 
L 64.325088 -109.491118 
L 63.851238 -109.250977 
L 63.377388 -109.018094 
L 62.903539 -108.79298 
L 62.429689 -108.576072 
L 61.955839 -108.367739 
L 61.481989 -108.168272 
L 61.008139 -107.977895 
L 60.534289 -107.796758 
L 60.060439 -107.624944 
L 59.586589 -107.462471 
L 59.112739 -107.30929 
L 58.638889 -107.165295 
L 58.165039 -107.030317 
L 57.691189 -106.90413 
L 57.217339 -106.786451 
L 56.74349 -106.676943 
L 56.26964 -106.575219 
L 55.79579 -106.480843 
L 55.32194 -106.393334 
L 54.84809 -106.312173 
L 54.37424 -106.236811 
L 53.90039 -106.166672 
L 53.42654 -106.101168 
L 52.95269 -106.039704 
L 52.47884 -105.981693 
L 52.00499 -105.926562 
L 51.53114 -105.87377 
L 51.05729 -105.822814 
L 50.58344 -105.773241 
L 50.109591 -105.724653 
L 49.635741 -105.676722 
L 49.161891 -105.629185 
L 48.688041 -105.581856 
L 48.214191 -105.534619 
L 47.740341 -105.487431 
L 47.266491 -105.440313 
L 46.792641 -105.393349 
L 46.318791 -105.346673 
L 45.844941 -105.300462 
L 45.371091 -105.254924 
L 44.897241 -105.210289 
L 44.423391 -105.166795 
L 43.949541 -105.12468 
L 43.475692 -105.084172 
L 43.001842 -105.045477 
z
" style="stroke: #355f8d; stroke-width: 1.25"/>
    </defs>
    <g>
     <use xlink:href="#m014c1c8c6e" x="0" y="174.26" style="fill: #355f8d; fill-opacity: 0.7; stroke: #355f8d; stroke-width: 1.25"/>
    </g>
   </g>
   <g id="line2d_3">
    <path d="M 7.2 69.57 
L 216.45 69.57 
" style="fill: none; stroke: #355f8d; stroke-opacity: 0.9; stroke-linecap: round"/>
   </g>
   <g id="text_3">
    <!-- 2 -->
    <g style="fill: #355f8d" transform="translate(7.2 68.652) scale(0.12 -0.12)">
     <defs>
      <path id="IBMPlexSans-Bold-32" d="M 3526 0 
L 365 0 
L 365 877 
L 1741 2054 
Q 1926 2214 2054 2345 
Q 2182 2477 2262 2601 
Q 2342 2726 2377 2848 
Q 2413 2970 2413 3110 
L 2413 3200 
Q 2413 3328 2361 3424 
Q 2310 3520 2227 3584 
Q 2144 3648 2038 3680 
Q 1933 3712 1824 3712 
Q 1664 3712 1545 3661 
Q 1427 3610 1340 3523 
Q 1254 3437 1196 3325 
Q 1139 3213 1107 3085 
L 269 3405 
Q 346 3635 480 3843 
Q 614 4051 816 4208 
Q 1018 4365 1293 4454 
Q 1568 4544 1914 4544 
Q 2278 4544 2560 4441 
Q 2842 4339 3037 4160 
Q 3232 3981 3334 3734 
Q 3437 3488 3437 3200 
Q 3437 2912 3341 2675 
Q 3245 2438 3081 2230 
Q 2918 2022 2700 1836 
Q 2483 1651 2246 1459 
L 1414 806 
L 3526 806 
L 3526 0 
z
" transform="scale(0.015625)"/>
     </defs>
     <use xlink:href="#IBMPlexSans-Bold-32"/>
    </g>
   </g>
  </g>
  <g id="axes_4">
   <g id="patch_5">
    <path d="M 7.2 79.965 
L 216.45 79.965 
L 216.45 38.385 
L 7.2 38.385 
L 7.2 79.965 
z
" style="fill: none"/>
   </g>
   <g id="matplotlib.axis_7">
    <g id="xtick_7"/>
    <g id="xtick_8"/>
   </g>
   <g id="matplotlib.axis_8"/>
   <g id="FillBetweenPolyCollection_3">
    <defs>
     <path id="m6098532f83" d="M 29.74239 -94.552133 
L 29.74239 -94.295 
L 30.458105 -94.295 
L 31.17382 -94.295 
L 31.889535 -94.295 
L 32.605249 -94.295 
L 33.320964 -94.295 
L 34.036679 -94.295 
L 34.752394 -94.295 
L 35.468109 -94.295 
L 36.183824 -94.295 
L 36.899539 -94.295 
L 37.615254 -94.295 
L 38.330968 -94.295 
L 39.046683 -94.295 
L 39.762398 -94.295 
L 40.478113 -94.295 
L 41.193828 -94.295 
L 41.909543 -94.295 
L 42.625258 -94.295 
L 43.340972 -94.295 
L 44.056687 -94.295 
L 44.772402 -94.295 
L 45.488117 -94.295 
L 46.203832 -94.295 
L 46.919547 -94.295 
L 47.635262 -94.295 
L 48.350977 -94.295 
L 49.066691 -94.295 
L 49.782406 -94.295 
L 50.498121 -94.295 
L 51.213836 -94.295 
L 51.929551 -94.295 
L 52.645266 -94.295 
L 53.360981 -94.295 
L 54.076696 -94.295 
L 54.79241 -94.295 
L 55.508125 -94.295 
L 56.22384 -94.295 
L 56.939555 -94.295 
L 57.65527 -94.295 
L 58.370985 -94.295 
L 59.0867 -94.295 
L 59.802414 -94.295 
L 60.518129 -94.295 
L 61.233844 -94.295 
L 61.949559 -94.295 
L 62.665274 -94.295 
L 63.380989 -94.295 
L 64.096704 -94.295 
L 64.812419 -94.295 
L 65.528133 -94.295 
L 66.243848 -94.295 
L 66.959563 -94.295 
L 67.675278 -94.295 
L 68.390993 -94.295 
L 69.106708 -94.295 
L 69.822423 -94.295 
L 70.538138 -94.295 
L 71.253852 -94.295 
L 71.969567 -94.295 
L 72.685282 -94.295 
L 73.400997 -94.295 
L 74.116712 -94.295 
L 74.832427 -94.295 
L 75.548142 -94.295 
L 76.263857 -94.295 
L 76.979571 -94.295 
L 77.695286 -94.295 
L 78.411001 -94.295 
L 79.126716 -94.295 
L 79.842431 -94.295 
L 80.558146 -94.295 
L 81.273861 -94.295 
L 81.989575 -94.295 
L 82.70529 -94.295 
L 83.421005 -94.295 
L 84.13672 -94.295 
L 84.852435 -94.295 
L 85.56815 -94.295 
L 86.283865 -94.295 
L 86.99958 -94.295 
L 87.715294 -94.295 
L 88.431009 -94.295 
L 89.146724 -94.295 
L 89.862439 -94.295 
L 90.578154 -94.295 
L 91.293869 -94.295 
L 92.009584 -94.295 
L 92.725299 -94.295 
L 93.441013 -94.295 
L 94.156728 -94.295 
L 94.872443 -94.295 
L 95.588158 -94.295 
L 96.303873 -94.295 
L 97.019588 -94.295 
L 97.735303 -94.295 
L 98.451017 -94.295 
L 99.166732 -94.295 
L 99.882447 -94.295 
L 100.598162 -94.295 
L 101.313877 -94.295 
L 102.029592 -94.295 
L 102.745307 -94.295 
L 103.461022 -94.295 
L 104.176736 -94.295 
L 104.892451 -94.295 
L 105.608166 -94.295 
L 106.323881 -94.295 
L 107.039596 -94.295 
L 107.755311 -94.295 
L 108.471026 -94.295 
L 109.186741 -94.295 
L 109.902455 -94.295 
L 110.61817 -94.295 
L 111.333885 -94.295 
L 112.0496 -94.295 
L 112.765315 -94.295 
L 113.48103 -94.295 
L 114.196745 -94.295 
L 114.912459 -94.295 
L 115.628174 -94.295 
L 116.343889 -94.295 
L 117.059604 -94.295 
L 117.775319 -94.295 
L 118.491034 -94.295 
L 119.206749 -94.295 
L 119.922464 -94.295 
L 120.638178 -94.295 
L 121.353893 -94.295 
L 122.069608 -94.295 
L 122.785323 -94.295 
L 123.501038 -94.295 
L 124.216753 -94.295 
L 124.932468 -94.295 
L 125.648183 -94.295 
L 126.363897 -94.295 
L 127.079612 -94.295 
L 127.795327 -94.295 
L 128.511042 -94.295 
L 129.226757 -94.295 
L 129.942472 -94.295 
L 130.658187 -94.295 
L 131.373902 -94.295 
L 132.089616 -94.295 
L 132.805331 -94.295 
L 133.521046 -94.295 
L 134.236761 -94.295 
L 134.952476 -94.295 
L 135.668191 -94.295 
L 136.383906 -94.295 
L 137.09962 -94.295 
L 137.815335 -94.295 
L 138.53105 -94.295 
L 139.246765 -94.295 
L 139.96248 -94.295 
L 140.678195 -94.295 
L 141.39391 -94.295 
L 142.109625 -94.295 
L 142.825339 -94.295 
L 143.541054 -94.295 
L 144.256769 -94.295 
L 144.972484 -94.295 
L 145.688199 -94.295 
L 146.403914 -94.295 
L 147.119629 -94.295 
L 147.835344 -94.295 
L 148.551058 -94.295 
L 149.266773 -94.295 
L 149.982488 -94.295 
L 150.698203 -94.295 
L 151.413918 -94.295 
L 152.129633 -94.295 
L 152.845348 -94.295 
L 153.561062 -94.295 
L 154.276777 -94.295 
L 154.992492 -94.295 
L 155.708207 -94.295 
L 156.423922 -94.295 
L 157.139637 -94.295 
L 157.855352 -94.295 
L 158.571067 -94.295 
L 159.286781 -94.295 
L 160.002496 -94.295 
L 160.718211 -94.295 
L 161.433926 -94.295 
L 162.149641 -94.295 
L 162.865356 -94.295 
L 163.581071 -94.295 
L 164.296786 -94.295 
L 165.0125 -94.295 
L 165.728215 -94.295 
L 166.44393 -94.295 
L 167.159645 -94.295 
L 167.87536 -94.295 
L 168.591075 -94.295 
L 169.30679 -94.295 
L 170.022505 -94.295 
L 170.738219 -94.295 
L 171.453934 -94.295 
L 172.169649 -94.295 
L 172.169649 -94.517712 
L 172.169649 -94.517712 
L 171.453934 -94.545179 
L 170.738219 -94.574738 
L 170.022505 -94.606379 
L 169.30679 -94.64007 
L 168.591075 -94.675758 
L 167.87536 -94.713368 
L 167.159645 -94.752804 
L 166.44393 -94.793949 
L 165.728215 -94.83667 
L 165.0125 -94.880816 
L 164.296786 -94.926226 
L 163.581071 -94.972728 
L 162.865356 -95.02015 
L 162.149641 -95.068322 
L 161.433926 -95.117084 
L 160.718211 -95.166294 
L 160.002496 -95.215836 
L 159.286781 -95.265629 
L 158.571067 -95.315636 
L 157.855352 -95.365873 
L 157.139637 -95.416417 
L 156.423922 -95.467415 
L 155.708207 -95.51909 
L 154.992492 -95.571743 
L 154.276777 -95.625762 
L 153.561062 -95.681616 
L 152.845348 -95.739858 
L 152.129633 -95.801116 
L 151.413918 -95.86609 
L 150.698203 -95.935537 
L 149.982488 -96.010264 
L 149.266773 -96.091108 
L 148.551058 -96.178925 
L 147.835344 -96.274569 
L 147.119629 -96.378879 
L 146.403914 -96.492659 
L 145.688199 -96.616664 
L 144.972484 -96.751589 
L 144.256769 -96.898053 
L 143.541054 -97.056591 
L 142.825339 -97.227652 
L 142.109625 -97.411591 
L 141.39391 -97.608666 
L 140.678195 -97.819044 
L 139.96248 -98.042799 
L 139.246765 -98.279914 
L 138.53105 -98.530284 
L 137.815335 -98.793716 
L 137.09962 -99.06993 
L 136.383906 -99.358552 
L 135.668191 -99.659115 
L 134.952476 -99.971041 
L 134.236761 -100.29364 
L 133.521046 -100.62609 
L 132.805331 -100.967427 
L 132.089616 -101.316528 
L 131.373902 -101.672098 
L 130.658187 -102.032661 
L 129.942472 -102.396548 
L 129.226757 -102.761898 
L 128.511042 -103.126659 
L 127.795327 -103.488599 
L 127.079612 -103.845326 
L 126.363897 -104.194311 
L 125.648183 -104.532927 
L 124.932468 -104.858488 
L 124.216753 -105.168301 
L 123.501038 -105.459717 
L 122.785323 -105.730196 
L 122.069608 -105.977365 
L 121.353893 -106.199077 
L 120.638178 -106.393477 
L 119.922464 -106.559051 
L 119.206749 -106.694679 
L 118.491034 -106.799672 
L 117.775319 -106.873802 
L 117.059604 -106.917324 
L 116.343889 -106.930976 
L 115.628174 -106.915974 
L 114.912459 -106.873992 
L 114.196745 -106.807121 
L 113.48103 -106.717831 
L 112.765315 -106.608906 
L 112.0496 -106.483381 
L 111.333885 -106.344466 
L 110.61817 -106.195468 
L 109.902455 -106.039712 
L 109.186741 -105.880458 
L 108.471026 -105.720821 
L 107.755311 -105.563706 
L 107.039596 -105.411734 
L 106.323881 -105.267193 
L 105.608166 -105.131992 
L 104.892451 -105.007625 
L 104.176736 -104.895156 
L 103.461022 -104.795208 
L 102.745307 -104.707974 
L 102.029592 -104.63323 
L 101.313877 -104.570363 
L 100.598162 -104.518418 
L 99.882447 -104.476133 
L 99.166732 -104.442003 
L 98.451017 -104.414328 
L 97.735303 -104.391278 
L 97.019588 -104.370952 
L 96.303873 -104.351432 
L 95.588158 -104.330845 
L 94.872443 -104.307409 
L 94.156728 -104.279477 
L 93.441013 -104.245577 
L 92.725299 -104.204443 
L 92.009584 -104.15503 
L 91.293869 -104.096535 
L 90.578154 -104.028399 
L 89.862439 -103.950302 
L 89.146724 -103.862156 
L 88.431009 -103.764085 
L 87.715294 -103.656408 
L 86.99958 -103.539603 
L 86.283865 -103.414287 
L 85.56815 -103.281175 
L 84.852435 -103.141052 
L 84.13672 -102.994738 
L 83.421005 -102.843058 
L 82.70529 -102.686816 
L 81.989575 -102.526764 
L 81.273861 -102.363588 
L 80.558146 -102.197893 
L 79.842431 -102.030189 
L 79.126716 -101.860889 
L 78.411001 -101.690309 
L 77.695286 -101.518673 
L 76.979571 -101.346123 
L 76.263857 -101.172733 
L 75.548142 -100.998519 
L 74.832427 -100.823463 
L 74.116712 -100.647525 
L 73.400997 -100.470662 
L 72.685282 -100.292844 
L 71.969567 -100.114067 
L 71.253852 -99.93437 
L 70.538138 -99.753834 
L 69.822423 -99.572598 
L 69.106708 -99.390857 
L 68.390993 -99.208859 
L 67.675278 -99.026909 
L 66.959563 -98.845358 
L 66.243848 -98.664599 
L 65.528133 -98.485056 
L 64.812419 -98.307178 
L 64.096704 -98.131424 
L 63.380989 -97.958261 
L 62.665274 -97.788148 
L 61.949559 -97.621533 
L 61.233844 -97.458843 
L 60.518129 -97.300478 
L 59.802414 -97.146807 
L 59.0867 -96.998166 
L 58.370985 -96.854852 
L 57.65527 -96.717122 
L 56.939555 -96.585192 
L 56.22384 -96.459236 
L 55.508125 -96.339384 
L 54.79241 -96.225722 
L 54.076696 -96.118294 
L 53.360981 -96.017096 
L 52.645266 -95.92208 
L 51.929551 -95.833154 
L 51.213836 -95.750179 
L 50.498121 -95.67297 
L 49.782406 -95.601303 
L 49.066691 -95.534907 
L 48.350977 -95.473476 
L 47.635262 -95.416667 
L 46.919547 -95.364109 
L 46.203832 -95.315405 
L 45.488117 -95.270141 
L 44.772402 -95.227893 
L 44.056687 -95.188237 
L 43.340972 -95.150754 
L 42.625258 -95.115042 
L 41.909543 -95.080724 
L 41.193828 -95.047454 
L 40.478113 -95.014925 
L 39.762398 -94.982876 
L 39.046683 -94.951094 
L 38.330968 -94.91942 
L 37.615254 -94.887745 
L 36.899539 -94.856015 
L 36.183824 -94.824225 
L 35.468109 -94.792416 
L 34.752394 -94.760668 
L 34.036679 -94.729096 
L 33.320964 -94.697842 
L 32.605249 -94.667064 
L 31.889535 -94.636934 
L 31.17382 -94.607625 
L 30.458105 -94.579305 
L 29.74239 -94.552133 
z
" style="stroke: #2a788e; stroke-width: 1.25"/>
    </defs>
    <g>
     <use xlink:href="#m6098532f83" x="0" y="174.26" style="fill: #2a788e; fill-opacity: 0.7; stroke: #2a788e; stroke-width: 1.25"/>
    </g>
   </g>
   <g id="line2d_4">
    <path d="M 7.2 79.965 
L 216.45 79.965 
" style="fill: none; stroke: #2a788e; stroke-opacity: 0.9; stroke-linecap: round"/>
   </g>
   <g id="text_4">
    <!-- 3 -->
    <g style="fill: #2a788e" transform="translate(7.2 79.047) scale(0.12 -0.12)">
     <defs>
      <path id="IBMPlexSans-Bold-33" d="M 1677 2701 
Q 2035 2701 2198 2838 
Q 2362 2976 2362 3181 
L 2362 3226 
Q 2362 3469 2205 3616 
Q 2048 3763 1760 3763 
Q 1491 3763 1254 3625 
Q 1018 3488 851 3232 
L 250 3795 
Q 378 3962 525 4099 
Q 672 4237 857 4336 
Q 1043 4435 1273 4489 
Q 1504 4544 1792 4544 
Q 2150 4544 2441 4461 
Q 2733 4378 2941 4221 
Q 3149 4064 3261 3846 
Q 3373 3629 3373 3360 
Q 3373 3149 3305 2976 
Q 3238 2803 3120 2675 
Q 3002 2547 2848 2467 
Q 2694 2387 2522 2355 
L 2522 2317 
Q 2720 2278 2889 2192 
Q 3059 2106 3184 1971 
Q 3309 1837 3379 1654 
Q 3450 1472 3450 1242 
Q 3450 941 3328 697 
Q 3206 454 2982 281 
Q 2758 109 2444 16 
Q 2131 -77 1754 -77 
Q 1414 -77 1152 -6 
Q 890 64 694 182 
Q 499 301 355 454 
Q 211 608 102 781 
L 813 1331 
Q 960 1056 1174 880 
Q 1389 704 1754 704 
Q 2080 704 2262 867 
Q 2445 1030 2445 1312 
L 2445 1350 
Q 2445 1626 2237 1763 
Q 2029 1901 1664 1901 
L 1261 1901 
L 1261 2701 
L 1677 2701 
z
" transform="scale(0.015625)"/>
     </defs>
     <use xlink:href="#IBMPlexSans-Bold-33"/>
    </g>
   </g>
  </g>
  <g id="axes_5">
   <g id="patch_6">
    <path d="M 7.2 90.36 
L 216.45 90.36 
L 216.45 48.78 
L 7.2 48.78 
L 7.2 90.36 
z
" style="fill: none"/>
   </g>
   <g id="matplotlib.axis_9">
    <g id="xtick_9"/>
    <g id="xtick_10"/>
   </g>
   <g id="matplotlib.axis_10"/>
   <g id="FillBetweenPolyCollection_4">
    <defs>
     <path id="mbe47637bbe" d="M 16.711364 -84.111516 
L 16.711364 -83.9 
L 17.66728 -83.9 
L 18.623196 -83.9 
L 19.579111 -83.9 
L 20.535027 -83.9 
L 21.490943 -83.9 
L 22.446859 -83.9 
L 23.402775 -83.9 
L 24.358691 -83.9 
L 25.314607 -83.9 
L 26.270523 -83.9 
L 27.226439 -83.9 
L 28.182355 -83.9 
L 29.138271 -83.9 
L 30.094187 -83.9 
L 31.050103 -83.9 
L 32.006019 -83.9 
L 32.961935 -83.9 
L 33.917851 -83.9 
L 34.873767 -83.9 
L 35.829683 -83.9 
L 36.785598 -83.9 
L 37.741514 -83.9 
L 38.69743 -83.9 
L 39.653346 -83.9 
L 40.609262 -83.9 
L 41.565178 -83.9 
L 42.521094 -83.9 
L 43.47701 -83.9 
L 44.432926 -83.9 
L 45.388842 -83.9 
L 46.344758 -83.9 
L 47.300674 -83.9 
L 48.25659 -83.9 
L 49.212506 -83.9 
L 50.168422 -83.9 
L 51.124338 -83.9 
L 52.080254 -83.9 
L 53.036169 -83.9 
L 53.992085 -83.9 
L 54.948001 -83.9 
L 55.903917 -83.9 
L 56.859833 -83.9 
L 57.815749 -83.9 
L 58.771665 -83.9 
L 59.727581 -83.9 
L 60.683497 -83.9 
L 61.639413 -83.9 
L 62.595329 -83.9 
L 63.551245 -83.9 
L 64.507161 -83.9 
L 65.463077 -83.9 
L 66.418993 -83.9 
L 67.374909 -83.9 
L 68.330825 -83.9 
L 69.286741 -83.9 
L 70.242656 -83.9 
L 71.198572 -83.9 
L 72.154488 -83.9 
L 73.110404 -83.9 
L 74.06632 -83.9 
L 75.022236 -83.9 
L 75.978152 -83.9 
L 76.934068 -83.9 
L 77.889984 -83.9 
L 78.8459 -83.9 
L 79.801816 -83.9 
L 80.757732 -83.9 
L 81.713648 -83.9 
L 82.669564 -83.9 
L 83.62548 -83.9 
L 84.581396 -83.9 
L 85.537312 -83.9 
L 86.493228 -83.9 
L 87.449143 -83.9 
L 88.405059 -83.9 
L 89.360975 -83.9 
L 90.316891 -83.9 
L 91.272807 -83.9 
L 92.228723 -83.9 
L 93.184639 -83.9 
L 94.140555 -83.9 
L 95.096471 -83.9 
L 96.052387 -83.9 
L 97.008303 -83.9 
L 97.964219 -83.9 
L 98.920135 -83.9 
L 99.876051 -83.9 
L 100.831967 -83.9 
L 101.787883 -83.9 
L 102.743799 -83.9 
L 103.699714 -83.9 
L 104.65563 -83.9 
L 105.611546 -83.9 
L 106.567462 -83.9 
L 107.523378 -83.9 
L 108.479294 -83.9 
L 109.43521 -83.9 
L 110.391126 -83.9 
L 111.347042 -83.9 
L 112.302958 -83.9 
L 113.258874 -83.9 
L 114.21479 -83.9 
L 115.170706 -83.9 
L 116.126622 -83.9 
L 117.082538 -83.9 
L 118.038454 -83.9 
L 118.99437 -83.9 
L 119.950286 -83.9 
L 120.906201 -83.9 
L 121.862117 -83.9 
L 122.818033 -83.9 
L 123.773949 -83.9 
L 124.729865 -83.9 
L 125.685781 -83.9 
L 126.641697 -83.9 
L 127.597613 -83.9 
L 128.553529 -83.9 
L 129.509445 -83.9 
L 130.465361 -83.9 
L 131.421277 -83.9 
L 132.377193 -83.9 
L 133.333109 -83.9 
L 134.289025 -83.9 
L 135.244941 -83.9 
L 136.200857 -83.9 
L 137.156772 -83.9 
L 138.112688 -83.9 
L 139.068604 -83.9 
L 140.02452 -83.9 
L 140.980436 -83.9 
L 141.936352 -83.9 
L 142.892268 -83.9 
L 143.848184 -83.9 
L 144.8041 -83.9 
L 145.760016 -83.9 
L 146.715932 -83.9 
L 147.671848 -83.9 
L 148.627764 -83.9 
L 149.58368 -83.9 
L 150.539596 -83.9 
L 151.495512 -83.9 
L 152.451428 -83.9 
L 153.407344 -83.9 
L 154.363259 -83.9 
L 155.319175 -83.9 
L 156.275091 -83.9 
L 157.231007 -83.9 
L 158.186923 -83.9 
L 159.142839 -83.9 
L 160.098755 -83.9 
L 161.054671 -83.9 
L 162.010587 -83.9 
L 162.966503 -83.9 
L 163.922419 -83.9 
L 164.878335 -83.9 
L 165.834251 -83.9 
L 166.790167 -83.9 
L 167.746083 -83.9 
L 168.701999 -83.9 
L 169.657915 -83.9 
L 170.613831 -83.9 
L 171.569746 -83.9 
L 172.525662 -83.9 
L 173.481578 -83.9 
L 174.437494 -83.9 
L 175.39341 -83.9 
L 176.349326 -83.9 
L 177.305242 -83.9 
L 178.261158 -83.9 
L 179.217074 -83.9 
L 180.17299 -83.9 
L 181.128906 -83.9 
L 182.084822 -83.9 
L 183.040738 -83.9 
L 183.996654 -83.9 
L 184.95257 -83.9 
L 185.908486 -83.9 
L 186.864402 -83.9 
L 187.820317 -83.9 
L 188.776233 -83.9 
L 189.732149 -83.9 
L 190.688065 -83.9 
L 191.643981 -83.9 
L 192.599897 -83.9 
L 193.555813 -83.9 
L 194.511729 -83.9 
L 195.467645 -83.9 
L 196.423561 -83.9 
L 197.379477 -83.9 
L 198.335393 -83.9 
L 199.291309 -83.9 
L 200.247225 -83.9 
L 201.203141 -83.9 
L 202.159057 -83.9 
L 203.114973 -83.9 
L 204.070889 -83.9 
L 205.026804 -83.9 
L 205.98272 -83.9 
L 206.938636 -83.9 
L 206.938636 -84.079822 
L 206.938636 -84.079822 
L 205.98272 -84.101876 
L 205.026804 -84.125546 
L 204.070889 -84.150801 
L 203.114973 -84.17759 
L 202.159057 -84.205843 
L 201.203141 -84.23547 
L 200.247225 -84.266361 
L 199.291309 -84.298392 
L 198.335393 -84.331423 
L 197.379477 -84.365304 
L 196.423561 -84.399877 
L 195.467645 -84.434984 
L 194.511729 -84.470468 
L 193.555813 -84.506182 
L 192.599897 -84.541993 
L 191.643981 -84.577792 
L 190.688065 -84.613497 
L 189.732149 -84.649062 
L 188.776233 -84.684483 
L 187.820317 -84.719807 
L 186.864402 -84.755132 
L 185.908486 -84.790616 
L 184.95257 -84.826479 
L 183.996654 -84.863004 
L 183.040738 -84.900541 
L 182.084822 -84.939498 
L 181.128906 -84.980345 
L 180.17299 -85.023605 
L 179.217074 -85.069847 
L 178.261158 -85.119678 
L 177.305242 -85.173731 
L 176.349326 -85.232654 
L 175.39341 -85.297099 
L 174.437494 -85.367708 
L 173.481578 -85.445099 
L 172.525662 -85.529857 
L 171.569746 -85.62252 
L 170.613831 -85.723571 
L 169.657915 -85.833432 
L 168.701999 -85.952453 
L 167.746083 -86.080915 
L 166.790167 -86.219023 
L 165.834251 -86.366906 
L 164.878335 -86.524622 
L 163.922419 -86.692157 
L 162.966503 -86.869429 
L 162.010587 -87.056293 
L 161.054671 -87.252539 
L 160.098755 -87.457894 
L 159.142839 -87.672027 
L 158.186923 -87.894538 
L 157.231007 -88.124962 
L 156.275091 -88.362756 
L 155.319175 -88.607296 
L 154.363259 -88.857868 
L 153.407344 -89.113655 
L 152.451428 -89.37373 
L 151.495512 -89.63705 
L 150.539596 -89.902445 
L 149.58368 -90.168621 
L 148.627764 -90.434154 
L 147.671848 -90.697503 
L 146.715932 -90.957013 
L 145.760016 -91.210938 
L 144.8041 -91.457457 
L 143.848184 -91.694705 
L 142.892268 -91.920806 
L 141.936352 -92.133906 
L 140.980436 -92.332216 
L 140.02452 -92.514053 
L 139.068604 -92.677882 
L 138.112688 -92.822359 
L 137.156772 -92.94637 
L 136.200857 -93.049068 
L 135.244941 -93.129899 
L 134.289025 -93.188631 
L 133.333109 -93.225364 
L 132.377193 -93.24054 
L 131.421277 -93.234941 
L 130.465361 -93.209676 
L 129.509445 -93.166159 
L 128.553529 -93.10608 
L 127.597613 -93.031367 
L 126.641697 -92.944141 
L 125.685781 -92.846665 
L 124.729865 -92.741289 
L 123.773949 -92.630395 
L 122.818033 -92.516338 
L 121.862117 -92.401392 
L 120.906201 -92.287694 
L 119.950286 -92.177198 
L 118.99437 -92.071634 
L 118.038454 -91.97247 
L 117.082538 -91.880887 
L 116.126622 -91.797762 
L 115.170706 -91.723657 
L 114.21479 -91.658821 
L 113.258874 -91.603198 
L 112.302958 -91.556445 
L 111.347042 -91.517955 
L 110.391126 -91.486888 
L 109.43521 -91.462208 
L 108.479294 -91.442721 
L 107.523378 -91.427116 
L 106.567462 -91.41401 
L 105.611546 -91.40199 
L 104.65563 -91.389653 
L 103.699714 -91.375644 
L 102.743799 -91.358693 
L 101.787883 -91.337644 
L 100.831967 -91.311478 
L 99.876051 -91.279336 
L 98.920135 -91.24053 
L 97.964219 -91.194552 
L 97.008303 -91.141072 
L 96.052387 -91.079941 
L 95.096471 -91.011175 
L 94.140555 -90.934943 
L 93.184639 -90.851553 
L 92.228723 -90.761424 
L 91.272807 -90.665072 
L 90.316891 -90.563077 
L 89.360975 -90.456062 
L 88.405059 -90.344672 
L 87.449143 -90.229544 
L 86.493228 -90.111292 
L 85.537312 -89.990488 
L 84.581396 -89.867647 
L 83.62548 -89.743216 
L 82.669564 -89.617569 
L 81.713648 -89.491001 
L 80.757732 -89.363735 
L 79.801816 -89.235919 
L 78.8459 -89.10764 
L 77.889984 -88.97893 
L 76.934068 -88.849778 
L 75.978152 -88.720148 
L 75.022236 -88.589984 
L 74.06632 -88.459229 
L 73.110404 -88.327837 
L 72.154488 -88.195781 
L 71.198572 -88.063062 
L 70.242656 -87.92972 
L 69.286741 -87.795833 
L 68.330825 -87.661524 
L 67.374909 -87.526958 
L 66.418993 -87.392343 
L 65.463077 -87.257924 
L 64.507161 -87.12398 
L 63.551245 -86.990817 
L 62.595329 -86.858764 
L 61.639413 -86.72816 
L 60.683497 -86.599356 
L 59.727581 -86.472703 
L 58.771665 -86.348545 
L 57.815749 -86.227217 
L 56.859833 -86.10904 
L 55.903917 -85.994312 
L 54.948001 -85.88331 
L 53.992085 -85.776285 
L 53.036169 -85.673458 
L 52.080254 -85.575019 
L 51.124338 -85.481125 
L 50.168422 -85.391898 
L 49.212506 -85.307425 
L 48.25659 -85.227752 
L 47.300674 -85.152891 
L 46.344758 -85.082812 
L 45.388842 -85.017446 
L 44.432926 -84.956684 
L 43.47701 -84.900379 
L 42.521094 -84.848347 
L 41.565178 -84.800367 
L 40.609262 -84.756187 
L 39.653346 -84.715528 
L 38.69743 -84.678082 
L 37.741514 -84.643528 
L 36.785598 -84.611529 
L 35.829683 -84.581744 
L 34.873767 -84.553831 
L 33.917851 -84.527458 
L 32.961935 -84.502308 
L 32.006019 -84.478083 
L 31.050103 -84.454518 
L 30.094187 -84.431376 
L 29.138271 -84.408459 
L 28.182355 -84.385612 
L 27.226439 -84.362718 
L 26.270523 -84.339703 
L 25.314607 -84.316537 
L 24.358691 -84.293225 
L 23.402775 -84.269809 
L 22.446859 -84.246363 
L 21.490943 -84.222983 
L 20.535027 -84.199787 
L 19.579111 -84.176905 
L 18.623196 -84.154475 
L 17.66728 -84.132634 
L 16.711364 -84.111516 
z
" style="stroke: #21918c; stroke-width: 1.25"/>
    </defs>
    <g>
     <use xlink:href="#mbe47637bbe" x="0" y="174.26" style="fill: #21918c; fill-opacity: 0.7; stroke: #21918c; stroke-width: 1.25"/>
    </g>
   </g>
   <g id="line2d_5">
    <path d="M 7.2 90.36 
L 216.45 90.36 
" style="fill: none; stroke: #21918c; stroke-opacity: 0.9; stroke-linecap: round"/>
   </g>
   <g id="text_5">
    <!-- 4 -->
    <g style="fill: #21918c" transform="translate(7.2 89.442) scale(0.12 -0.12)">
     <defs>
      <path id="IBMPlexSans-Bold-34" d="M 2157 0 
L 2157 858 
L 192 858 
L 192 1677 
L 1933 4467 
L 3072 4467 
L 3072 1600 
L 3635 1600 
L 3635 858 
L 3072 858 
L 3072 0 
L 2157 0 
z
M 960 1600 
L 2157 1600 
L 2157 3475 
L 2093 3475 
L 960 1600 
z
" transform="scale(0.015625)"/>
     </defs>
     <use xlink:href="#IBMPlexSans-Bold-34"/>
    </g>
   </g>
  </g>
  <g id="axes_6">
   <g id="patch_7">
    <path d="M 7.2 100.755 
L 216.45 100.755 
L 216.45 59.175 
L 7.2 59.175 
L 7.2 100.755 
z
" style="fill: none"/>
   </g>
   <g id="matplotlib.axis_11">
    <g id="xtick_11"/>
    <g id="xtick_12"/>
   </g>
   <g id="matplotlib.axis_12"/>
   <g id="line2d_6">
    <path d="M 7.2 100.755 
L 216.45 100.755 
" style="fill: none; stroke: #482475; stroke-opacity: 0.9; stroke-linecap: round"/>
   </g>
   <g id="text_6">
    <!-- 5 -->
    <g style="fill: #482475" transform="translate(7.2 99.837) scale(0.12 -0.12)">
     <defs>
      <path id="IBMPlexSans-Bold-35" d="M 3341 3629 
L 1312 3629 
L 1216 2214 
L 1267 2214 
Q 1331 2374 1411 2505 
Q 1491 2637 1600 2729 
Q 1709 2822 1862 2873 
Q 2016 2925 2227 2925 
Q 2515 2925 2764 2829 
Q 3014 2733 3200 2550 
Q 3386 2368 3494 2102 
Q 3603 1837 3603 1504 
Q 3603 1165 3491 873 
Q 3379 582 3158 371 
Q 2938 160 2618 41 
Q 2298 -77 1888 -77 
Q 1562 -77 1312 -6 
Q 1062 64 870 182 
Q 678 301 537 454 
Q 397 608 294 781 
L 992 1331 
Q 1139 1069 1344 886 
Q 1549 704 1894 704 
Q 2240 704 2416 902 
Q 2592 1101 2592 1427 
L 2592 1478 
Q 2592 1786 2413 1965 
Q 2234 2144 1920 2144 
Q 1658 2144 1488 2038 
Q 1318 1933 1229 1830 
L 442 1939 
L 608 4467 
L 3341 4467 
L 3341 3629 
z
" transform="scale(0.015625)"/>
     </defs>
     <use xlink:href="#IBMPlexSans-Bold-35"/>
    </g>
   </g>
  </g>
  <g id="axes_7">
   <g id="patch_8">
    <path d="M 7.2 111.15 
L 216.45 111.15 
L 216.45 69.57 
L 7.2 69.57 
L 7.2 111.15 
z
" style="fill: none"/>
   </g>
   <g id="matplotlib.axis_13">
    <g id="xtick_13"/>
    <g id="xtick_14"/>
   </g>
   <g id="matplotlib.axis_14"/>
   <g id="line2d_7">
    <path d="M 7.2 111.15 
L 216.45 111.15 
" style="fill: none; stroke: #482475; stroke-opacity: 0.9; stroke-linecap: round"/>
   </g>
   <g id="text_7">
    <!-- 6 -->
    <g style="fill: #482475" transform="translate(7.2 110.232) scale(0.12 -0.12)">
     <defs>
      <path id="IBMPlexSans-Bold-36" d="M 1946 -77 
Q 1549 -77 1235 48 
Q 922 173 707 406 
Q 493 640 381 966 
Q 269 1293 269 1696 
Q 269 2163 413 2582 
Q 557 3002 784 3357 
Q 1011 3712 1296 3993 
Q 1581 4275 1869 4467 
L 3194 4467 
Q 2784 4173 2457 3907 
Q 2131 3642 1891 3373 
Q 1651 3104 1494 2825 
Q 1338 2547 1274 2227 
L 1331 2208 
Q 1389 2336 1469 2457 
Q 1549 2579 1667 2672 
Q 1786 2765 1946 2822 
Q 2106 2880 2317 2880 
Q 2592 2880 2832 2781 
Q 3072 2682 3248 2502 
Q 3424 2323 3523 2064 
Q 3622 1805 3622 1491 
Q 3622 1146 3504 858 
Q 3386 570 3165 362 
Q 2944 154 2637 38 
Q 2330 -77 1946 -77 
z
M 1946 672 
Q 2266 672 2445 848 
Q 2624 1024 2624 1350 
L 2624 1466 
Q 2624 1792 2445 1968 
Q 2266 2144 1946 2144 
Q 1626 2144 1446 1968 
Q 1267 1792 1267 1466 
L 1267 1350 
Q 1267 1024 1446 848 
Q 1626 672 1946 672 
z
" transform="scale(0.015625)"/>
     </defs>
     <use xlink:href="#IBMPlexSans-Bold-36"/>
    </g>
   </g>
  </g>
  <g id="axes_8">
   <g id="patch_9">
    <path d="M 7.2 121.545 
L 216.45 121.545 
L 216.45 79.965 
L 7.2 79.965 
L 7.2 121.545 
z
" style="fill: none"/>
   </g>
   <g id="matplotlib.axis_15">
    <g id="xtick_15"/>
    <g id="xtick_16"/>
   </g>
   <g id="matplotlib.axis_16"/>
   <g id="line2d_8">
    <path d="M 7.2 121.545 
L 216.45 121.545 
" style="fill: none; stroke: #482475; stroke-opacity: 0.9; stroke-linecap: round"/>
   </g>
   <g id="text_8">
    <!-- 7 -->
    <g style="fill: #482475" transform="translate(7.2 120.627) scale(0.12 -0.12)">
     <defs>
      <path id="IBMPlexSans-Bold-37" d="M 1062 0 
L 2560 3686 
L 1165 3686 
L 1165 2874 
L 352 2874 
L 352 4467 
L 3514 4467 
L 3514 3635 
L 2074 0 
L 1062 0 
z
" transform="scale(0.015625)"/>
     </defs>
     <use xlink:href="#IBMPlexSans-Bold-37"/>
    </g>
   </g>
  </g>
  <g id="axes_9">
   <g id="patch_10">
    <path d="M 7.2 131.94 
L 216.45 131.94 
L 216.45 90.36 
L 7.2 90.36 
L 7.2 131.94 
z
" style="fill: none"/>
   </g>
   <g id="matplotlib.axis_17">
    <g id="xtick_17">
     <g id="text_9">
      <!-- 0 -->
      <g style="fill: #838383" transform="translate(66.990465 149.58) scale(0.11 -0.11)">
       <defs>
        <path id="IBMPlexSans-Regular-30" d="M 1920 -77 
Q 1120 -77 752 531 
Q 384 1139 384 2234 
Q 384 3328 752 3936 
Q 1120 4544 1920 4544 
Q 2720 4544 3088 3936 
Q 3456 3328 3456 2234 
Q 3456 1139 3088 531 
Q 2720 -77 1920 -77 
z
M 1920 390 
Q 2182 390 2368 499 
Q 2554 608 2669 806 
Q 2784 1005 2838 1273 
Q 2893 1542 2893 1869 
L 2893 2598 
Q 2893 2925 2838 3193 
Q 2784 3462 2669 3660 
Q 2554 3859 2368 3968 
Q 2182 4077 1920 4077 
Q 1658 4077 1472 3968 
Q 1286 3859 1171 3660 
Q 1056 3462 1001 3193 
Q 947 2925 947 2598 
L 947 1869 
Q 947 1542 1001 1273 
Q 1056 1005 1171 806 
Q 1286 608 1472 499 
Q 1658 390 1920 390 
z
" transform="scale(0.015625)"/>
       </defs>
       <use xlink:href="#IBMPlexSans-Regular-30"/>
      </g>
     </g>
    </g>
    <g id="xtick_18">
     <g id="text_10">
      <!-- 5 -->
      <g style="fill: #838383" transform="translate(142.610804 149.58) scale(0.11 -0.11)">
       <defs>
        <path id="IBMPlexSans-Regular-35" d="M 3187 3994 
L 1229 3994 
L 1101 2291 
L 1146 2291 
Q 1306 2515 1507 2649 
Q 1709 2784 2061 2784 
Q 2349 2784 2592 2688 
Q 2835 2592 3014 2416 
Q 3194 2240 3293 1984 
Q 3392 1728 3392 1402 
Q 3392 1075 3289 803 
Q 3187 531 2992 336 
Q 2797 141 2518 32 
Q 2240 -77 1888 -77 
Q 1606 -77 1392 -13 
Q 1178 51 1011 160 
Q 845 269 720 403 
Q 595 538 493 685 
L 896 992 
Q 979 858 1072 749 
Q 1165 640 1277 563 
Q 1389 486 1536 444 
Q 1683 403 1888 403 
Q 2349 403 2585 646 
Q 2822 890 2822 1331 
L 2822 1395 
Q 2822 1837 2585 2080 
Q 2349 2323 1888 2323 
Q 1581 2323 1405 2211 
Q 1229 2099 1088 1946 
L 634 2010 
L 794 4467 
L 3187 4467 
L 3187 3994 
z
" transform="scale(0.015625)"/>
       </defs>
       <use xlink:href="#IBMPlexSans-Regular-35"/>
      </g>
     </g>
    </g>
    <g id="text_11">
     <!-- sldf -->
     <g style="fill: #262626" transform="translate(101.84625 164.66) scale(0.12 -0.12)">
      <defs>
       <path id="IBMPlexSans-Regular-73" d="M 1536 -77 
Q 1075 -77 764 99 
Q 454 275 230 570 
L 595 864 
Q 787 621 1024 489 
Q 1261 358 1574 358 
Q 1901 358 2083 499 
Q 2266 640 2266 896 
Q 2266 1088 2141 1225 
Q 2016 1363 1690 1414 
L 1427 1453 
Q 1197 1485 1005 1552 
Q 813 1619 669 1731 
Q 525 1843 445 2009 
Q 365 2176 365 2406 
Q 365 2650 454 2832 
Q 544 3014 701 3136 
Q 858 3258 1075 3318 
Q 1293 3379 1542 3379 
Q 1946 3379 2218 3238 
Q 2490 3098 2694 2848 
L 2355 2541 
Q 2246 2694 2035 2819 
Q 1824 2944 1504 2944 
Q 1184 2944 1021 2806 
Q 858 2669 858 2432 
Q 858 2189 1021 2080 
Q 1184 1971 1491 1920 
L 1747 1882 
Q 2298 1798 2528 1564 
Q 2758 1331 2758 954 
Q 2758 474 2432 198 
Q 2106 -77 1536 -77 
z
" transform="scale(0.015625)"/>
       <path id="IBMPlexSans-Regular-6c" d="M 1088 0 
Q 819 0 681 150 
Q 544 301 544 531 
L 544 4736 
L 1056 4736 
L 1056 448 
L 1542 448 
L 1542 0 
L 1088 0 
z
" transform="scale(0.015625)"/>
       <path id="IBMPlexSans-Regular-64" d="M 2656 538 
L 2630 538 
Q 2330 -77 1664 -77 
Q 1357 -77 1107 44 
Q 858 166 682 390 
Q 506 614 413 934 
Q 320 1254 320 1651 
Q 320 2048 413 2368 
Q 506 2688 682 2912 
Q 858 3136 1107 3257 
Q 1357 3379 1664 3379 
Q 2010 3379 2256 3228 
Q 2502 3078 2630 2765 
L 2656 2765 
L 2656 4736 
L 3168 4736 
L 3168 0 
L 2656 0 
L 2656 538 
z
M 1805 384 
Q 1978 384 2134 429 
Q 2291 474 2406 560 
Q 2522 646 2589 771 
Q 2656 896 2656 1056 
L 2656 2285 
Q 2656 2419 2589 2537 
Q 2522 2656 2406 2739 
Q 2291 2822 2134 2870 
Q 1978 2918 1805 2918 
Q 1370 2918 1120 2646 
Q 870 2374 870 1933 
L 870 1370 
Q 870 928 1120 656 
Q 1370 384 1805 384 
z
" transform="scale(0.015625)"/>
       <path id="IBMPlexSans-Regular-66" d="M 723 2854 
L 186 2854 
L 186 3302 
L 723 3302 
L 723 3968 
Q 723 4314 902 4525 
Q 1082 4736 1446 4736 
L 1946 4736 
L 1946 4288 
L 1235 4288 
L 1235 3302 
L 1946 3302 
L 1946 2854 
L 1235 2854 
L 1235 0 
L 723 0 
L 723 2854 
z
" transform="scale(0.015625)"/>
      </defs>
      <use xlink:href="#IBMPlexSans-Regular-73"/>
      <use xlink:href="#IBMPlexSans-Regular-6c" transform="translate(48.699997 0)"/>
      <use xlink:href="#IBMPlexSans-Regular-64" transform="translate(75.899994 0)"/>
      <use xlink:href="#IBMPlexSans-Regular-66" transform="translate(133.899979 0)"/>
     </g>
    </g>
   </g>
   <g id="matplotlib.axis_18"/>
   <g id="line2d_9">
    <path d="M 7.2 131.94 
L 216.45 131.94 
" style="fill: none; stroke: #482475; stroke-opacity: 0.9; stroke-linecap: round"/>
   </g>
   <g id="text_12">
    <!-- 8 -->
    <g style="fill: #482475" transform="translate(7.2 131.022) scale(0.12 -0.12)">
     <defs>
      <path id="IBMPlexSans-Bold-38" d="M 1920 -77 
Q 1523 -77 1212 22 
Q 902 122 691 294 
Q 480 467 368 704 
Q 256 941 256 1222 
Q 256 1651 493 1923 
Q 730 2195 1133 2304 
L 1133 2355 
Q 806 2477 598 2726 
Q 390 2976 390 3366 
Q 390 3622 489 3840 
Q 589 4058 784 4214 
Q 979 4371 1264 4457 
Q 1549 4544 1920 4544 
Q 2291 4544 2576 4457 
Q 2861 4371 3056 4214 
Q 3251 4058 3350 3840 
Q 3450 3622 3450 3366 
Q 3450 2976 3242 2726 
Q 3034 2477 2707 2355 
L 2707 2304 
Q 3110 2195 3347 1923 
Q 3584 1651 3584 1222 
Q 3584 941 3472 704 
Q 3360 467 3149 294 
Q 2938 122 2627 22 
Q 2317 -77 1920 -77 
z
M 1920 659 
Q 2240 659 2409 809 
Q 2579 960 2579 1229 
L 2579 1357 
Q 2579 1626 2409 1776 
Q 2240 1926 1920 1926 
Q 1600 1926 1430 1776 
Q 1261 1626 1261 1357 
L 1261 1229 
Q 1261 960 1430 809 
Q 1600 659 1920 659 
z
M 1920 2630 
Q 2227 2630 2387 2774 
Q 2547 2918 2547 3168 
L 2547 3270 
Q 2547 3520 2387 3664 
Q 2227 3808 1920 3808 
Q 1613 3808 1453 3664 
Q 1293 3520 1293 3270 
L 1293 3168 
Q 1293 2918 1453 2774 
Q 1613 2630 1920 2630 
z
" transform="scale(0.015625)"/>
     </defs>
     <use xlink:href="#IBMPlexSans-Bold-38"/>
    </g>
   </g>
  </g>
 </g>
</svg>
