<?xml version="1.0" encoding="utf-8" standalone="no"?>
<!DOCTYPE svg PUBLIC "-//W3C//DTD SVG 1.1//EN"
  "http://www.w3.org/Graphics/SVG/1.1/DTD/svg11.dtd">
<svg xmlns:xlink="http://www.w3.org/1999/xlink" width="223.65pt" height="174.26pt" viewBox="0 0 223.65 174.26" xmlns="http://www.w3.org/2000/svg" version="1.1">
 <metadata>
  <rdf:RDF xmlns:dc="http://purl.org/dc/elements/1.1/" xmlns:cc="http://creativecommons.org/ns#" xmlns:rdf="http://www.w3.org/1999/02/22-rdf-syntax-ns#">
   <cc:Work>
    <dc:type rdf:resource="http://purl.org/dc/dcmitype/StillImage"/>
    <dc:date>2025-04-30T15:48:27.590269</dc:date>
    <dc:format>image/svg+xml</dc:format>
    <dc:creator>
     <cc:Agent>
      <dc:title>Matplotlib v3.10.1, https://matplotlib.org/</dc:title>
     </cc:Agent>
    </dc:creator>
   </cc:Work>
  </rdf:RDF>
 </metadata>
 <defs>
  <style type="text/css">*{stroke-linejoin: round; stroke-linecap: butt}</style>
 </defs>
 <g id="figure_1">
  <g id="patch_1">
   <path d="M 0 174.26 
L 223.65 174.26 
L 223.65 0 
L 0 0 
L 0 174.26 
z
" style="fill: none"/>
  </g>
  <g id="axes_1">
   <g id="patch_2">
    <path d="M 7.2 48.78 
L 216.45 48.78 
L 216.45 7.2 
L 7.2 7.2 
L 7.2 48.78 
z
" style="fill: none"/>
   </g>
   <g id="matplotlib.axis_1">
    <g id="xtick_1"/>
    <g id="xtick_2"/>
   </g>
   <g id="matplotlib.axis_2"/>
   <g id="line2d_1">
    <path d="M 7.2 48.78 
L 216.45 48.78 
" style="fill: none; stroke: #21918c; stroke-opacity: 0.9; stroke-linecap: round"/>
   </g>
   <g id="text_1">
    <!-- 0 -->
    <g style="fill: #21918c" transform="translate(7.2 47.862) scale(0.12 -0.12)">
     <defs>
      <path id="IBMPlexSans-Bold-30" d="M 1920 -77 
Q 1043 -77 620 531 
Q 198 1139 198 2234 
Q 198 3328 620 3936 
Q 1043 4544 1920 4544 
Q 2797 4544 3219 3936 
Q 3642 3328 3642 2234 
Q 3642 1139 3219 531 
Q 2797 -77 1920 -77 
z
M 1920 736 
Q 2304 736 2451 1017 
Q 2598 1299 2598 1811 
L 2598 2656 
Q 2598 3168 2451 3449 
Q 2304 3731 1920 3731 
Q 1536 3731 1389 3449 
Q 1242 3168 1242 2656 
L 1242 1811 
Q 1242 1299 1389 1017 
Q 1536 736 1920 736 
z
" transform="scale(0.015625)"/>
     </defs>
     <use xlink:href="#IBMPlexSans-Bold-30"/>
    </g>
   </g>
  </g>
  <g id="axes_2">
   <g id="patch_3">
    <path d="M 7.2 59.175 
L 216.45 59.175 
L 216.45 17.595 
L 7.2 17.595 
L 7.2 59.175 
z
" style="fill: none"/>
   </g>
   <g id="matplotlib.axis_3">
    <g id="xtick_3"/>
    <g id="xtick_4"/>
   </g>
   <g id="matplotlib.axis_4"/>
   <g id="line2d_2">
    <path d="M 7.2 59.175 
L 216.45 59.175 
" style="fill: none; stroke: #21918c; stroke-opacity: 0.9; stroke-linecap: round"/>
   </g>
   <g id="text_2">
    <!-- 1 -->
    <g style="fill: #21918c" transform="translate(7.2 58.257) scale(0.12 -0.12)">
     <defs>
      <path id="IBMPlexSans-Bold-31" d="M 602 0 
L 602 774 
L 1805 774 
L 1805 3770 
L 1747 3770 
L 838 2579 
L 224 3059 
L 1293 4467 
L 2765 4467 
L 2765 774 
L 3712 774 
L 3712 0 
L 602 0 
z
" transform="scale(0.015625)"/>
     </defs>
     <use xlink:href="#IBMPlexSans-Bold-31"/>
    </g>
   </g>
  </g>
  <g id="axes_3">
   <g id="patch_4">
    <path d="M 7.2 69.57 
L 216.45 69.57 
L 216.45 27.99 
L 7.2 27.99 
L 7.2 69.57 
z
" style="fill: none"/>
   </g>
   <g id="matplotlib.axis_5">
    <g id="xtick_5"/>
    <g id="xtick_6"/>
   </g>
   <g id="matplotlib.axis_6"/>
   <g id="line2d_3">
    <path d="M 7.2 69.57 
L 216.45 69.57 
" style="fill: none; stroke: #21918c; stroke-opacity: 0.9; stroke-linecap: round"/>
   </g>
   <g id="text_3">
    <!-- 2 -->
    <g style="fill: #21918c" transform="translate(7.2 68.652) scale(0.12 -0.12)">
     <defs>
      <path id="IBMPlexSans-Bold-32" d="M 3526 0 
L 365 0 
L 365 877 
L 1741 2054 
Q 1926 2214 2054 2345 
Q 2182 2477 2262 2601 
Q 2342 2726 2377 2848 
Q 2413 2970 2413 3110 
L 2413 3200 
Q 2413 3328 2361 3424 
Q 2310 3520 2227 3584 
Q 2144 3648 2038 3680 
Q 1933 3712 1824 3712 
Q 1664 3712 1545 3661 
Q 1427 3610 1340 3523 
Q 1254 3437 1196 3325 
Q 1139 3213 1107 3085 
L 269 3405 
Q 346 3635 480 3843 
Q 614 4051 816 4208 
Q 1018 4365 1293 4454 
Q 1568 4544 1914 4544 
Q 2278 4544 2560 4441 
Q 2842 4339 3037 4160 
Q 3232 3981 3334 3734 
Q 3437 3488 3437 3200 
Q 3437 2912 3341 2675 
Q 3245 2438 3081 2230 
Q 2918 2022 2700 1836 
Q 2483 1651 2246 1459 
L 1414 806 
L 3526 806 
L 3526 0 
z
" transform="scale(0.015625)"/>
     </defs>
     <use xlink:href="#IBMPlexSans-Bold-32"/>
    </g>
   </g>
  </g>
  <g id="axes_4">
   <g id="patch_5">
    <path d="M 7.2 79.965 
L 216.45 79.965 
L 216.45 38.385 
L 7.2 38.385 
L 7.2 79.965 
z
" style="fill: none"/>
   </g>
   <g id="matplotlib.axis_7">
    <g id="xtick_7"/>
    <g id="xtick_8"/>
   </g>
   <g id="matplotlib.axis_8"/>
   <g id="line2d_4">
    <path d="M 7.2 79.965 
L 216.45 79.965 
" style="fill: none; stroke: #21918c; stroke-opacity: 0.9; stroke-linecap: round"/>
   </g>
   <g id="text_4">
    <!-- 3 -->
    <g style="fill: #21918c" transform="translate(7.2 79.047) scale(0.12 -0.12)">
     <defs>
      <path id="IBMPlexSans-Bold-33" d="M 1677 2701 
Q 2035 2701 2198 2838 
Q 2362 2976 2362 3181 
L 2362 3226 
Q 2362 3469 2205 3616 
Q 2048 3763 1760 3763 
Q 1491 3763 1254 3625 
Q 1018 3488 851 3232 
L 250 3795 
Q 378 3962 525 4099 
Q 672 4237 857 4336 
Q 1043 4435 1273 4489 
Q 1504 4544 1792 4544 
Q 2150 4544 2441 4461 
Q 2733 4378 2941 4221 
Q 3149 4064 3261 3846 
Q 3373 3629 3373 3360 
Q 3373 3149 3305 2976 
Q 3238 2803 3120 2675 
Q 3002 2547 2848 2467 
Q 2694 2387 2522 2355 
L 2522 2317 
Q 2720 2278 2889 2192 
Q 3059 2106 3184 1971 
Q 3309 1837 3379 1654 
Q 3450 1472 3450 1242 
Q 3450 941 3328 697 
Q 3206 454 2982 281 
Q 2758 109 2444 16 
Q 2131 -77 1754 -77 
Q 1414 -77 1152 -6 
Q 890 64 694 182 
Q 499 301 355 454 
Q 211 608 102 781 
L 813 1331 
Q 960 1056 1174 880 
Q 1389 704 1754 704 
Q 2080 704 2262 867 
Q 2445 1030 2445 1312 
L 2445 1350 
Q 2445 1626 2237 1763 
Q 2029 1901 1664 1901 
L 1261 1901 
L 1261 2701 
L 1677 2701 
z
" transform="scale(0.015625)"/>
     </defs>
     <use xlink:href="#IBMPlexSans-Bold-33"/>
    </g>
   </g>
  </g>
  <g id="axes_5">
   <g id="patch_6">
    <path d="M 7.2 90.36 
L 216.45 90.36 
L 216.45 48.78 
L 7.2 48.78 
L 7.2 90.36 
z
" style="fill: none"/>
   </g>
   <g id="matplotlib.axis_9">
    <g id="xtick_9"/>
    <g id="xtick_10"/>
   </g>
   <g id="matplotlib.axis_10"/>
   <g id="line2d_5">
    <path d="M 7.2 90.36 
L 216.45 90.36 
" style="fill: none; stroke: #21918c; stroke-opacity: 0.9; stroke-linecap: round"/>
   </g>
   <g id="text_5">
    <!-- 4 -->
    <g style="fill: #21918c" transform="translate(7.2 89.442) scale(0.12 -0.12)">
     <defs>
      <path id="IBMPlexSans-Bold-34" d="M 2157 0 
L 2157 858 
L 192 858 
L 192 1677 
L 1933 4467 
L 3072 4467 
L 3072 1600 
L 3635 1600 
L 3635 858 
L 3072 858 
L 3072 0 
L 2157 0 
z
M 960 1600 
L 2157 1600 
L 2157 3475 
L 2093 3475 
L 960 1600 
z
" transform="scale(0.015625)"/>
     </defs>
     <use xlink:href="#IBMPlexSans-Bold-34"/>
    </g>
   </g>
  </g>
  <g id="axes_6">
   <g id="patch_7">
    <path d="M 7.2 100.755 
L 216.45 100.755 
L 216.45 59.175 
L 7.2 59.175 
L 7.2 100.755 
z
" style="fill: none"/>
   </g>
   <g id="matplotlib.axis_11">
    <g id="xtick_11"/>
    <g id="xtick_12"/>
   </g>
   <g id="matplotlib.axis_12"/>
   <g id="FillBetweenPolyCollection_1">
    <defs>
     <path id="m4e39ae0518" d="M 115.377084 -74.597604 
L 115.377084 -73.505 
L 115.62325 -73.505 
L 115.869416 -73.505 
L 116.115581 -73.505 
L 116.361747 -73.505 
L 116.607913 -73.505 
L 116.854079 -73.505 
L 117.100244 -73.505 
L 117.34641 -73.505 
L 117.592576 -73.505 
L 117.838742 -73.505 
L 118.084907 -73.505 
L 118.331073 -73.505 
L 118.577239 -73.505 
L 118.823404 -73.505 
L 119.06957 -73.505 
L 119.315736 -73.505 
L 119.561902 -73.505 
L 119.808067 -73.505 
L 120.054233 -73.505 
L 120.300399 -73.505 
L 120.546565 -73.505 
L 120.79273 -73.505 
L 121.038896 -73.505 
L 121.285062 -73.505 
L 121.531228 -73.505 
L 121.777393 -73.505 
L 122.023559 -73.505 
L 122.269725 -73.505 
L 122.51589 -73.505 
L 122.762056 -73.505 
L 123.008222 -73.505 
L 123.254388 -73.505 
L 123.500553 -73.505 
L 123.746719 -73.505 
L 123.992885 -73.505 
L 124.239051 -73.505 
L 124.485216 -73.505 
L 124.731382 -73.505 
L 124.977548 -73.505 
L 125.223714 -73.505 
L 125.469879 -73.505 
L 125.716045 -73.505 
L 125.962211 -73.505 
L 126.208376 -73.505 
L 126.454542 -73.505 
L 126.700708 -73.505 
L 126.946874 -73.505 
L 127.193039 -73.505 
L 127.439205 -73.505 
L 127.685371 -73.505 
L 127.931537 -73.505 
L 128.177702 -73.505 
L 128.423868 -73.505 
L 128.670034 -73.505 
L 128.9162 -73.505 
L 129.162365 -73.505 
L 129.408531 -73.505 
L 129.654697 -73.505 
L 129.900862 -73.505 
L 130.147028 -73.505 
L 130.393194 -73.505 
L 130.63936 -73.505 
L 130.885525 -73.505 
L 131.131691 -73.505 
L 131.377857 -73.505 
L 131.624023 -73.505 
L 131.870188 -73.505 
L 132.116354 -73.505 
L 132.36252 -73.505 
L 132.608686 -73.505 
L 132.854851 -73.505 
L 133.101017 -73.505 
L 133.347183 -73.505 
L 133.593348 -73.505 
L 133.839514 -73.505 
L 134.08568 -73.505 
L 134.331846 -73.505 
L 134.578011 -73.505 
L 134.824177 -73.505 
L 135.070343 -73.505 
L 135.316509 -73.505 
L 135.562674 -73.505 
L 135.80884 -73.505 
L 136.055006 -73.505 
L 136.301172 -73.505 
L 136.547337 -73.505 
L 136.793503 -73.505 
L 137.039669 -73.505 
L 137.285834 -73.505 
L 137.532 -73.505 
L 137.778166 -73.505 
L 138.024332 -73.505 
L 138.270497 -73.505 
L 138.516663 -73.505 
L 138.762829 -73.505 
L 139.008995 -73.505 
L 139.25516 -73.505 
L 139.501326 -73.505 
L 139.747492 -73.505 
L 139.993658 -73.505 
L 140.239823 -73.505 
L 140.485989 -73.505 
L 140.732155 -73.505 
L 140.97832 -73.505 
L 141.224486 -73.505 
L 141.470652 -73.505 
L 141.716818 -73.505 
L 141.962983 -73.505 
L 142.209149 -73.505 
L 142.455315 -73.505 
L 142.701481 -73.505 
L 142.947646 -73.505 
L 143.193812 -73.505 
L 143.439978 -73.505 
L 143.686144 -73.505 
L 143.932309 -73.505 
L 144.178475 -73.505 
L 144.424641 -73.505 
L 144.670806 -73.505 
L 144.916972 -73.505 
L 145.163138 -73.505 
L 145.409304 -73.505 
L 145.655469 -73.505 
L 145.901635 -73.505 
L 146.147801 -73.505 
L 146.393967 -73.505 
L 146.640132 -73.505 
L 146.886298 -73.505 
L 147.132464 -73.505 
L 147.37863 -73.505 
L 147.624795 -73.505 
L 147.870961 -73.505 
L 148.117127 -73.505 
L 148.363292 -73.505 
L 148.609458 -73.505 
L 148.855624 -73.505 
L 149.10179 -73.505 
L 149.347955 -73.505 
L 149.594121 -73.505 
L 149.840287 -73.505 
L 150.086453 -73.505 
L 150.332618 -73.505 
L 150.578784 -73.505 
L 150.82495 -73.505 
L 151.071116 -73.505 
L 151.317281 -73.505 
L 151.563447 -73.505 
L 151.809613 -73.505 
L 152.055778 -73.505 
L 152.301944 -73.505 
L 152.54811 -73.505 
L 152.794276 -73.505 
L 153.040441 -73.505 
L 153.286607 -73.505 
L 153.532773 -73.505 
L 153.778939 -73.505 
L 154.025104 -73.505 
L 154.27127 -73.505 
L 154.517436 -73.505 
L 154.763602 -73.505 
L 155.009767 -73.505 
L 155.255933 -73.505 
L 155.502099 -73.505 
L 155.748264 -73.505 
L 155.99443 -73.505 
L 156.240596 -73.505 
L 156.486762 -73.505 
L 156.732927 -73.505 
L 156.979093 -73.505 
L 157.225259 -73.505 
L 157.471425 -73.505 
L 157.71759 -73.505 
L 157.963756 -73.505 
L 158.209922 -73.505 
L 158.456088 -73.505 
L 158.702253 -73.505 
L 158.948419 -73.505 
L 159.194585 -73.505 
L 159.44075 -73.505 
L 159.686916 -73.505 
L 159.933082 -73.505 
L 160.179248 -73.505 
L 160.425413 -73.505 
L 160.671579 -73.505 
L 160.917745 -73.505 
L 161.163911 -73.505 
L 161.410076 -73.505 
L 161.656242 -73.505 
L 161.902408 -73.505 
L 162.148574 -73.505 
L 162.394739 -73.505 
L 162.640905 -73.505 
L 162.887071 -73.505 
L 163.133236 -73.505 
L 163.379402 -73.505 
L 163.625568 -73.505 
L 163.871734 -73.505 
L 164.117899 -73.505 
L 164.364065 -73.505 
L 164.364065 -74.1745 
L 164.364065 -74.1745 
L 164.117899 -74.247788 
L 163.871734 -74.324734 
L 163.625568 -74.404971 
L 163.379402 -74.488087 
L 163.133236 -74.573635 
L 162.887071 -74.661146 
L 162.640905 -74.750153 
L 162.394739 -74.840203 
L 162.148574 -74.930884 
L 161.902408 -75.021842 
L 161.656242 -75.112801 
L 161.410076 -75.203589 
L 161.163911 -75.294152 
L 160.917745 -75.38457 
L 160.671579 -75.475075 
L 160.425413 -75.566057 
L 160.179248 -75.658073 
L 159.933082 -75.751848 
L 159.686916 -75.848273 
L 159.44075 -75.9484 
L 159.194585 -76.053428 
L 158.948419 -76.164689 
L 158.702253 -76.283628 
L 158.456088 -76.411781 
L 158.209922 -76.550744 
L 157.963756 -76.70215 
L 157.71759 -76.867633 
L 157.471425 -77.048795 
L 157.225259 -77.247174 
L 156.979093 -77.464212 
L 156.732927 -77.701217 
L 156.486762 -77.959339 
L 156.240596 -78.239534 
L 155.99443 -78.542544 
L 155.748264 -78.868873 
L 155.502099 -79.218769 
L 155.255933 -79.592215 
L 155.009767 -79.988917 
L 154.763602 -80.408309 
L 154.517436 -80.849553 
L 154.27127 -81.311553 
L 154.025104 -81.792971 
L 153.778939 -82.292253 
L 153.532773 -82.807652 
L 153.286607 -83.337268 
L 153.040441 -83.879083 
L 152.794276 -84.431005 
L 152.54811 -84.990912 
L 152.301944 -85.556702 
L 152.055778 -86.126335 
L 151.809613 -86.697888 
L 151.563447 -87.269598 
L 151.317281 -87.839903 
L 151.071116 -88.40748 
L 150.82495 -88.971279 
L 150.578784 -89.530546 
L 150.332618 -90.084832 
L 150.086453 -90.634006 
L 149.840287 -91.17824 
L 149.594121 -91.717991 
L 149.347955 -92.253972 
L 149.10179 -92.787106 
L 148.855624 -93.318473 
L 148.609458 -93.849245 
L 148.363292 -94.380615 
L 148.117127 -94.91372 
L 147.870961 -95.449564 
L 147.624795 -95.98894 
L 147.37863 -96.532354 
L 147.132464 -97.079966 
L 146.886298 -97.63153 
L 146.640132 -98.186357 
L 146.393967 -98.743294 
L 146.147801 -99.300717 
L 145.901635 -99.856548 
L 145.655469 -100.408292 
L 145.409304 -100.953092 
L 145.163138 -101.487805 
L 144.916972 -102.009088 
L 144.670806 -102.51351 
L 144.424641 -102.997657 
L 144.178475 -103.458259 
L 143.932309 -103.892309 
L 143.686144 -104.297179 
L 143.439978 -104.670736 
L 143.193812 -105.011436 
L 142.947646 -105.318414 
L 142.701481 -105.591544 
L 142.455315 -105.831483 
L 142.209149 -106.039694 
L 141.962983 -106.218433 
L 141.716818 -106.370721 
L 141.470652 -106.500284 
L 141.224486 -106.611468 
L 140.97832 -106.709131 
L 140.732155 -106.798517 
L 140.485989 -106.885111 
L 140.239823 -106.974474 
L 139.993658 -107.072079 
L 139.747492 -107.183138 
L 139.501326 -107.312425 
L 139.25516 -107.464113 
L 139.008995 -107.641621 
L 138.762829 -107.847469 
L 138.516663 -108.083171 
L 138.270497 -108.349137 
L 138.024332 -108.644617 
L 137.778166 -108.967671 
L 137.532 -109.315176 
L 137.285834 -109.682869 
L 137.039669 -110.065418 
L 136.793503 -110.456537 
L 136.547337 -110.849116 
L 136.301172 -111.235392 
L 136.055006 -111.607129 
L 135.80884 -111.95582 
L 135.562674 -112.272891 
L 135.316509 -112.549913 
L 135.070343 -112.778803 
L 134.824177 -112.952021 
L 134.578011 -113.06274 
L 134.331846 -113.105 
L 134.08568 -113.073831 
L 133.839514 -112.965348 
L 133.593348 -112.77681 
L 133.347183 -112.506648 
L 133.101017 -112.154461 
L 132.854851 -111.720981 
L 132.608686 -111.20801 
L 132.36252 -110.618331 
L 132.116354 -109.955606 
L 131.870188 -109.224256 
L 131.624023 -108.429331 
L 131.377857 -107.576384 
L 131.131691 -106.671338 
L 130.885525 -105.720363 
L 130.63936 -104.729766 
L 130.393194 -103.705888 
L 130.147028 -102.655016 
L 129.900862 -101.583317 
L 129.654697 -100.496775 
L 129.408531 -99.401152 
L 129.162365 -98.301963 
L 128.9162 -97.204451 
L 128.670034 -96.113581 
L 128.423868 -95.034037 
L 128.177702 -93.970218 
L 127.931537 -92.926244 
L 127.685371 -91.905949 
L 127.439205 -90.912886 
L 127.193039 -89.950314 
L 126.946874 -89.021195 
L 126.700708 -88.128175 
L 126.454542 -87.273572 
L 126.208376 -86.459353 
L 125.962211 -85.687116 
L 125.716045 -84.958074 
L 125.469879 -84.273033 
L 125.223714 -83.632382 
L 124.977548 -83.036088 
L 124.731382 -82.48369 
L 124.485216 -81.974312 
L 124.239051 -81.506673 
L 123.992885 -81.079114 
L 123.746719 -80.689628 
L 123.500553 -80.335901 
L 123.254388 -80.015355 
L 123.008222 -79.725201 
L 122.762056 -79.462491 
L 122.51589 -79.22418 
L 122.269725 -79.007179 
L 122.023559 -78.808412 
L 121.777393 -78.624873 
L 121.531228 -78.453675 
L 121.285062 -78.292095 
L 121.038896 -78.137614 
L 120.79273 -77.987953 
L 120.546565 -77.841097 
L 120.300399 -77.695313 
L 120.054233 -77.549168 
L 119.808067 -77.401528 
L 119.561902 -77.251561 
L 119.315736 -77.098727 
L 119.06957 -76.942764 
L 118.823404 -76.78367 
L 118.577239 -76.62168 
L 118.331073 -76.457235 
L 118.084907 -76.290958 
L 117.838742 -76.123614 
L 117.592576 -75.956083 
L 117.34641 -75.789317 
L 117.100244 -75.624316 
L 116.854079 -75.462087 
L 116.607913 -75.303618 
L 116.361747 -75.149848 
L 116.115581 -75.001644 
L 115.869416 -74.859779 
L 115.62325 -74.724918 
L 115.377084 -74.597604 
z
" style="stroke: #2a788e; stroke-width: 1.25"/>
    </defs>
    <g>
     <use xlink:href="#m4e39ae0518" x="0" y="174.26" style="fill: #2a788e; fill-opacity: 0.7; stroke: #2a788e; stroke-width: 1.25"/>
    </g>
   </g>
   <g id="line2d_6">
    <path d="M 7.2 100.755 
L 216.45 100.755 
" style="fill: none; stroke: #2a788e; stroke-opacity: 0.9; stroke-linecap: round"/>
   </g>
   <g id="text_6">
    <!-- 5 -->
    <g style="fill: #2a788e" transform="translate(7.2 99.837) scale(0.12 -0.12)">
     <defs>
      <path id="IBMPlexSans-Bold-35" d="M 3341 3629 
L 1312 3629 
L 1216 2214 
L 1267 2214 
Q 1331 2374 1411 2505 
Q 1491 2637 1600 2729 
Q 1709 2822 1862 2873 
Q 2016 2925 2227 2925 
Q 2515 2925 2764 2829 
Q 3014 2733 3200 2550 
Q 3386 2368 3494 2102 
Q 3603 1837 3603 1504 
Q 3603 1165 3491 873 
Q 3379 582 3158 371 
Q 2938 160 2618 41 
Q 2298 -77 1888 -77 
Q 1562 -77 1312 -6 
Q 1062 64 870 182 
Q 678 301 537 454 
Q 397 608 294 781 
L 992 1331 
Q 1139 1069 1344 886 
Q 1549 704 1894 704 
Q 2240 704 2416 902 
Q 2592 1101 2592 1427 
L 2592 1478 
Q 2592 1786 2413 1965 
Q 2234 2144 1920 2144 
Q 1658 2144 1488 2038 
Q 1318 1933 1229 1830 
L 442 1939 
L 608 4467 
L 3341 4467 
L 3341 3629 
z
" transform="scale(0.015625)"/>
     </defs>
     <use xlink:href="#IBMPlexSans-Bold-35"/>
    </g>
   </g>
  </g>
  <g id="axes_7">
   <g id="patch_8">
    <path d="M 7.2 111.15 
L 216.45 111.15 
L 216.45 69.57 
L 7.2 69.57 
L 7.2 111.15 
z
" style="fill: none"/>
   </g>
   <g id="matplotlib.axis_13">
    <g id="xtick_13"/>
    <g id="xtick_14"/>
   </g>
   <g id="matplotlib.axis_14"/>
   <g id="FillBetweenPolyCollection_2">
    <defs>
     <path id="m5106ac39fe" d="M 81.537023 -63.665139 
L 81.537023 -63.11 
L 82.025945 -63.11 
L 82.514868 -63.11 
L 83.00379 -63.11 
L 83.492713 -63.11 
L 83.981635 -63.11 
L 84.470558 -63.11 
L 84.95948 -63.11 
L 85.448402 -63.11 
L 85.937325 -63.11 
L 86.426247 -63.11 
L 86.91517 -63.11 
L 87.404092 -63.11 
L 87.893014 -63.11 
L 88.381937 -63.11 
L 88.870859 -63.11 
L 89.359782 -63.11 
L 89.848704 -63.11 
L 90.337626 -63.11 
L 90.826549 -63.11 
L 91.315471 -63.11 
L 91.804394 -63.11 
L 92.293316 -63.11 
L 92.782238 -63.11 
L 93.271161 -63.11 
L 93.760083 -63.11 
L 94.249006 -63.11 
L 94.737928 -63.11 
L 95.22685 -63.11 
L 95.715773 -63.11 
L 96.204695 -63.11 
L 96.693618 -63.11 
L 97.18254 -63.11 
L 97.671463 -63.11 
L 98.160385 -63.11 
L 98.649307 -63.11 
L 99.13823 -63.11 
L 99.627152 -63.11 
L 100.116075 -63.11 
L 100.604997 -63.11 
L 101.093919 -63.11 
L 101.582842 -63.11 
L 102.071764 -63.11 
L 102.560687 -63.11 
L 103.049609 -63.11 
L 103.538531 -63.11 
L 104.027454 -63.11 
L 104.516376 -63.11 
L 105.005299 -63.11 
L 105.494221 -63.11 
L 105.983143 -63.11 
L 106.472066 -63.11 
L 106.960988 -63.11 
L 107.449911 -63.11 
L 107.938833 -63.11 
L 108.427755 -63.11 
L 108.916678 -63.11 
L 109.4056 -63.11 
L 109.894523 -63.11 
L 110.383445 -63.11 
L 110.872368 -63.11 
L 111.36129 -63.11 
L 111.850212 -63.11 
L 112.339135 -63.11 
L 112.828057 -63.11 
L 113.31698 -63.11 
L 113.805902 -63.11 
L 114.294824 -63.11 
L 114.783747 -63.11 
L 115.272669 -63.11 
L 115.761592 -63.11 
L 116.250514 -63.11 
L 116.739436 -63.11 
L 117.228359 -63.11 
L 117.717281 -63.11 
L 118.206204 -63.11 
L 118.695126 -63.11 
L 119.184048 -63.11 
L 119.672971 -63.11 
L 120.161893 -63.11 
L 120.650816 -63.11 
L 121.139738 -63.11 
L 121.62866 -63.11 
L 122.117583 -63.11 
L 122.606505 -63.11 
L 123.095428 -63.11 
L 123.58435 -63.11 
L 124.073273 -63.11 
L 124.562195 -63.11 
L 125.051117 -63.11 
L 125.54004 -63.11 
L 126.028962 -63.11 
L 126.517885 -63.11 
L 127.006807 -63.11 
L 127.495729 -63.11 
L 127.984652 -63.11 
L 128.473574 -63.11 
L 128.962497 -63.11 
L 129.451419 -63.11 
L 129.940341 -63.11 
L 130.429264 -63.11 
L 130.918186 -63.11 
L 131.407109 -63.11 
L 131.896031 -63.11 
L 132.384953 -63.11 
L 132.873876 -63.11 
L 133.362798 -63.11 
L 133.851721 -63.11 
L 134.340643 -63.11 
L 134.829565 -63.11 
L 135.318488 -63.11 
L 135.80741 -63.11 
L 136.296333 -63.11 
L 136.785255 -63.11 
L 137.274178 -63.11 
L 137.7631 -63.11 
L 138.252022 -63.11 
L 138.740945 -63.11 
L 139.229867 -63.11 
L 139.71879 -63.11 
L 140.207712 -63.11 
L 140.696634 -63.11 
L 141.185557 -63.11 
L 141.674479 -63.11 
L 142.163402 -63.11 
L 142.652324 -63.11 
L 143.141246 -63.11 
L 143.630169 -63.11 
L 144.119091 -63.11 
L 144.608014 -63.11 
L 145.096936 -63.11 
L 145.585858 -63.11 
L 146.074781 -63.11 
L 146.563703 -63.11 
L 147.052626 -63.11 
L 147.541548 -63.11 
L 148.03047 -63.11 
L 148.519393 -63.11 
L 149.008315 -63.11 
L 149.497238 -63.11 
L 149.98616 -63.11 
L 150.475083 -63.11 
L 150.964005 -63.11 
L 151.452927 -63.11 
L 151.94185 -63.11 
L 152.430772 -63.11 
L 152.919695 -63.11 
L 153.408617 -63.11 
L 153.897539 -63.11 
L 154.386462 -63.11 
L 154.875384 -63.11 
L 155.364307 -63.11 
L 155.853229 -63.11 
L 156.342151 -63.11 
L 156.831074 -63.11 
L 157.319996 -63.11 
L 157.808919 -63.11 
L 158.297841 -63.11 
L 158.786763 -63.11 
L 159.275686 -63.11 
L 159.764608 -63.11 
L 160.253531 -63.11 
L 160.742453 -63.11 
L 161.231375 -63.11 
L 161.720298 -63.11 
L 162.20922 -63.11 
L 162.698143 -63.11 
L 163.187065 -63.11 
L 163.675987 -63.11 
L 164.16491 -63.11 
L 164.653832 -63.11 
L 165.142755 -63.11 
L 165.631677 -63.11 
L 166.1206 -63.11 
L 166.609522 -63.11 
L 167.098444 -63.11 
L 167.587367 -63.11 
L 168.076289 -63.11 
L 168.565212 -63.11 
L 169.054134 -63.11 
L 169.543056 -63.11 
L 170.031979 -63.11 
L 170.520901 -63.11 
L 171.009824 -63.11 
L 171.498746 -63.11 
L 171.987668 -63.11 
L 172.476591 -63.11 
L 172.965513 -63.11 
L 173.454436 -63.11 
L 173.943358 -63.11 
L 174.43228 -63.11 
L 174.921203 -63.11 
L 175.410125 -63.11 
L 175.899048 -63.11 
L 176.38797 -63.11 
L 176.876892 -63.11 
L 177.365815 -63.11 
L 177.854737 -63.11 
L 178.34366 -63.11 
L 178.832582 -63.11 
L 178.832582 -63.440864 
L 178.832582 -63.440864 
L 178.34366 -63.477148 
L 177.854737 -63.515291 
L 177.365815 -63.555125 
L 176.876892 -63.596462 
L 176.38797 -63.639101 
L 175.899048 -63.682828 
L 175.410125 -63.727432 
L 174.921203 -63.77271 
L 174.43228 -63.818479 
L 173.943358 -63.864581 
L 173.454436 -63.910899 
L 172.965513 -63.957362 
L 172.476591 -64.003952 
L 171.987668 -64.050716 
L 171.498746 -64.097769 
L 171.009824 -64.145297 
L 170.520901 -64.19356 
L 170.031979 -64.242897 
L 169.543056 -64.293715 
L 169.054134 -64.346493 
L 168.565212 -64.401776 
L 168.076289 -64.460162 
L 167.587367 -64.522297 
L 167.098444 -64.588863 
L 166.609522 -64.660568 
L 166.1206 -64.738129 
L 165.631677 -64.822262 
L 165.142755 -64.913664 
L 164.653832 -65.013006 
L 164.16491 -65.12091 
L 163.675987 -65.237943 
L 163.187065 -65.364602 
L 162.698143 -65.501305 
L 162.20922 -65.648376 
L 161.720298 -65.806043 
L 161.231375 -65.97443 
L 160.742453 -66.153552 
L 160.253531 -66.343311 
L 159.764608 -66.5435 
L 159.275686 -66.753801 
L 158.786763 -66.973792 
L 158.297841 -67.20295 
L 157.808919 -67.44066 
L 157.319996 -67.686227 
L 156.831074 -67.938885 
L 156.342151 -68.19781 
L 155.853229 -68.462138 
L 155.364307 -68.73098 
L 154.875384 -69.003439 
L 154.386462 -69.278631 
L 153.897539 -69.5557 
L 153.408617 -69.833846 
L 152.919695 -70.112335 
L 152.430772 -70.390526 
L 151.94185 -70.66788 
L 151.452927 -70.943982 
L 150.964005 -71.218548 
L 150.475083 -71.491434 
L 149.98616 -71.762636 
L 149.497238 -72.032292 
L 149.008315 -72.300668 
L 148.519393 -72.568146 
L 148.03047 -72.835202 
L 147.541548 -73.102379 
L 147.052626 -73.370257 
L 146.563703 -73.639411 
L 146.074781 -73.910382 
L 145.585858 -74.183626 
L 145.096936 -74.459485 
L 144.608014 -74.738141 
L 144.119091 -75.019589 
L 143.630169 -75.30361 
L 143.141246 -75.589752 
L 142.652324 -75.877318 
L 142.163402 -76.16537 
L 141.674479 -76.45274 
L 141.185557 -76.738049 
L 140.696634 -77.019745 
L 140.207712 -77.296136 
L 139.71879 -77.565446 
L 139.229867 -77.825871 
L 138.740945 -78.075634 
L 138.252022 -78.313053 
L 137.7631 -78.536599 
L 137.274178 -78.744958 
L 136.785255 -78.937085 
L 136.296333 -79.112252 
L 135.80741 -79.270091 
L 135.318488 -79.410615 
L 134.829565 -79.534245 
L 134.340643 -79.641807 
L 133.851721 -79.73453 
L 133.362798 -79.814021 
L 132.873876 -79.88223 
L 132.384953 -79.941407 
L 131.896031 -79.994042 
L 131.407109 -80.042793 
L 130.918186 -80.090417 
L 130.429264 -80.13968 
L 129.940341 -80.193273 
L 129.451419 -80.253725 
L 128.962497 -80.323313 
L 128.473574 -80.403981 
L 127.984652 -80.497265 
L 127.495729 -80.604223 
L 127.006807 -80.725383 
L 126.517885 -80.860704 
L 126.028962 -81.009552 
L 125.54004 -81.170694 
L 125.051117 -81.342307 
L 124.562195 -81.522015 
L 124.073273 -81.706932 
L 123.58435 -81.893731 
L 123.095428 -82.078716 
L 122.606505 -82.257922 
L 122.117583 -82.427206 
L 121.62866 -82.582357 
L 121.139738 -82.719203 
L 120.650816 -82.833711 
L 120.161893 -82.922088 
L 119.672971 -82.980874 
L 119.184048 -83.007017 
L 118.695126 -82.997939 
L 118.206204 -82.95158 
L 117.717281 -82.86644 
L 117.228359 -82.741583 
L 116.739436 -82.576641 
L 116.250514 -82.371799 
L 115.761592 -82.127761 
L 115.272669 -81.845708 
L 114.783747 -81.527253 
L 114.294824 -81.174378 
L 113.805902 -80.789378 
L 113.31698 -80.374796 
L 112.828057 -79.933368 
L 112.339135 -79.467965 
L 111.850212 -78.98154 
L 111.36129 -78.477086 
L 110.872368 -77.957597 
L 110.383445 -77.426038 
L 109.894523 -76.885319 
L 109.4056 -76.338281 
L 108.916678 -75.787678 
L 108.427755 -75.236173 
L 107.938833 -74.68633 
L 107.449911 -74.140609 
L 106.960988 -73.601366 
L 106.472066 -73.070845 
L 105.983143 -72.551172 
L 105.494221 -72.04435 
L 105.005299 -71.552248 
L 104.516376 -71.07659 
L 104.027454 -70.618936 
L 103.538531 -70.180675 
L 103.049609 -69.763004 
L 102.560687 -69.366912 
L 102.071764 -68.99317 
L 101.582842 -68.642313 
L 101.093919 -68.314637 
L 100.604997 -68.010188 
L 100.116075 -67.728766 
L 99.627152 -67.469926 
L 99.13823 -67.232987 
L 98.649307 -67.017048 
L 98.160385 -66.821006 
L 97.671463 -66.643583 
L 97.18254 -66.483348 
L 96.693618 -66.338752 
L 96.204695 -66.20816 
L 95.715773 -66.089884 
L 95.22685 -65.982219 
L 94.737928 -65.883475 
L 94.249006 -65.792011 
L 93.760083 -65.706264 
L 93.271161 -65.624772 
L 92.782238 -65.546202 
L 92.293316 -65.469364 
L 91.804394 -65.393226 
L 91.315471 -65.316927 
L 90.826549 -65.239773 
L 90.337626 -65.161249 
L 89.848704 -65.081005 
L 89.359782 -64.998855 
L 88.870859 -64.914763 
L 88.381937 -64.828831 
L 87.893014 -64.741284 
L 87.404092 -64.652448 
L 86.91517 -64.562737 
L 86.426247 -64.472628 
L 85.937325 -64.382647 
L 85.448402 -64.293343 
L 84.95948 -64.205276 
L 84.470558 -64.118997 
L 83.981635 -64.035031 
L 83.492713 -63.953869 
L 83.00379 -63.875949 
L 82.514868 -63.801653 
L 82.025945 -63.7313 
L 81.537023 -63.665139 
z
" style="stroke: #355f8d; stroke-width: 1.25"/>
    </defs>
    <g>
     <use xlink:href="#m5106ac39fe" x="0" y="174.26" style="fill: #355f8d; fill-opacity: 0.7; stroke: #355f8d; stroke-width: 1.25"/>
    </g>
   </g>
   <g id="line2d_7">
    <path d="M 7.2 111.15 
L 216.45 111.15 
" style="fill: none; stroke: #355f8d; stroke-opacity: 0.9; stroke-linecap: round"/>
   </g>
   <g id="text_7">
    <!-- 6 -->
    <g style="fill: #355f8d" transform="translate(7.2 110.232) scale(0.12 -0.12)">
     <defs>
      <path id="IBMPlexSans-Bold-36" d="M 1946 -77 
Q 1549 -77 1235 48 
Q 922 173 707 406 
Q 493 640 381 966 
Q 269 1293 269 1696 
Q 269 2163 413 2582 
Q 557 3002 784 3357 
Q 1011 3712 1296 3993 
Q 1581 4275 1869 4467 
L 3194 4467 
Q 2784 4173 2457 3907 
Q 2131 3642 1891 3373 
Q 1651 3104 1494 2825 
Q 1338 2547 1274 2227 
L 1331 2208 
Q 1389 2336 1469 2457 
Q 1549 2579 1667 2672 
Q 1786 2765 1946 2822 
Q 2106 2880 2317 2880 
Q 2592 2880 2832 2781 
Q 3072 2682 3248 2502 
Q 3424 2323 3523 2064 
Q 3622 1805 3622 1491 
Q 3622 1146 3504 858 
Q 3386 570 3165 362 
Q 2944 154 2637 38 
Q 2330 -77 1946 -77 
z
M 1946 672 
Q 2266 672 2445 848 
Q 2624 1024 2624 1350 
L 2624 1466 
Q 2624 1792 2445 1968 
Q 2266 2144 1946 2144 
Q 1626 2144 1446 1968 
Q 1267 1792 1267 1466 
L 1267 1350 
Q 1267 1024 1446 848 
Q 1626 672 1946 672 
z
" transform="scale(0.015625)"/>
     </defs>
     <use xlink:href="#IBMPlexSans-Bold-36"/>
    </g>
   </g>
  </g>
  <g id="axes_8">
   <g id="patch_9">
    <path d="M 7.2 121.545 
L 216.45 121.545 
L 216.45 79.965 
L 7.2 79.965 
L 7.2 121.545 
z
" style="fill: none"/>
   </g>
   <g id="matplotlib.axis_15">
    <g id="xtick_15"/>
    <g id="xtick_16"/>
   </g>
   <g id="matplotlib.axis_16"/>
   <g id="FillBetweenPolyCollection_3">
    <defs>
     <path id="mb5590cb786" d="M 48.501535 -53.093716 
L 48.501535 -52.715 
L 49.228431 -52.715 
L 49.955326 -52.715 
L 50.682222 -52.715 
L 51.409118 -52.715 
L 52.136014 -52.715 
L 52.86291 -52.715 
L 53.589805 -52.715 
L 54.316701 -52.715 
L 55.043597 -52.715 
L 55.770493 -52.715 
L 56.497389 -52.715 
L 57.224284 -52.715 
L 57.95118 -52.715 
L 58.678076 -52.715 
L 59.404972 -52.715 
L 60.131868 -52.715 
L 60.858763 -52.715 
L 61.585659 -52.715 
L 62.312555 -52.715 
L 63.039451 -52.715 
L 63.766347 -52.715 
L 64.493242 -52.715 
L 65.220138 -52.715 
L 65.947034 -52.715 
L 66.67393 -52.715 
L 67.400826 -52.715 
L 68.127721 -52.715 
L 68.854617 -52.715 
L 69.581513 -52.715 
L 70.308409 -52.715 
L 71.035305 -52.715 
L 71.7622 -52.715 
L 72.489096 -52.715 
L 73.215992 -52.715 
L 73.942888 -52.715 
L 74.669784 -52.715 
L 75.396679 -52.715 
L 76.123575 -52.715 
L 76.850471 -52.715 
L 77.577367 -52.715 
L 78.304263 -52.715 
L 79.031158 -52.715 
L 79.758054 -52.715 
L 80.48495 -52.715 
L 81.211846 -52.715 
L 81.938742 -52.715 
L 82.665637 -52.715 
L 83.392533 -52.715 
L 84.119429 -52.715 
L 84.846325 -52.715 
L 85.573221 -52.715 
L 86.300116 -52.715 
L 87.027012 -52.715 
L 87.753908 -52.715 
L 88.480804 -52.715 
L 89.2077 -52.715 
L 89.934595 -52.715 
L 90.661491 -52.715 
L 91.388387 -52.715 
L 92.115283 -52.715 
L 92.842179 -52.715 
L 93.569074 -52.715 
L 94.29597 -52.715 
L 95.022866 -52.715 
L 95.749762 -52.715 
L 96.476658 -52.715 
L 97.203553 -52.715 
L 97.930449 -52.715 
L 98.657345 -52.715 
L 99.384241 -52.715 
L 100.111137 -52.715 
L 100.838032 -52.715 
L 101.564928 -52.715 
L 102.291824 -52.715 
L 103.01872 -52.715 
L 103.745616 -52.715 
L 104.472511 -52.715 
L 105.199407 -52.715 
L 105.926303 -52.715 
L 106.653199 -52.715 
L 107.380095 -52.715 
L 108.10699 -52.715 
L 108.833886 -52.715 
L 109.560782 -52.715 
L 110.287678 -52.715 
L 111.014574 -52.715 
L 111.741469 -52.715 
L 112.468365 -52.715 
L 113.195261 -52.715 
L 113.922157 -52.715 
L 114.649053 -52.715 
L 115.375948 -52.715 
L 116.102844 -52.715 
L 116.82974 -52.715 
L 117.556636 -52.715 
L 118.283532 -52.715 
L 119.010427 -52.715 
L 119.737323 -52.715 
L 120.464219 -52.715 
L 121.191115 -52.715 
L 121.91801 -52.715 
L 122.644906 -52.715 
L 123.371802 -52.715 
L 124.098698 -52.715 
L 124.825594 -52.715 
L 125.552489 -52.715 
L 126.279385 -52.715 
L 127.006281 -52.715 
L 127.733177 -52.715 
L 128.460073 -52.715 
L 129.186968 -52.715 
L 129.913864 -52.715 
L 130.64076 -52.715 
L 131.367656 -52.715 
L 132.094552 -52.715 
L 132.821447 -52.715 
L 133.548343 -52.715 
L 134.275239 -52.715 
L 135.002135 -52.715 
L 135.729031 -52.715 
L 136.455926 -52.715 
L 137.182822 -52.715 
L 137.909718 -52.715 
L 138.636614 -52.715 
L 139.36351 -52.715 
L 140.090405 -52.715 
L 140.817301 -52.715 
L 141.544197 -52.715 
L 142.271093 -52.715 
L 142.997989 -52.715 
L 143.724884 -52.715 
L 144.45178 -52.715 
L 145.178676 -52.715 
L 145.905572 -52.715 
L 146.632468 -52.715 
L 147.359363 -52.715 
L 148.086259 -52.715 
L 148.813155 -52.715 
L 149.540051 -52.715 
L 150.266947 -52.715 
L 150.993842 -52.715 
L 151.720738 -52.715 
L 152.447634 -52.715 
L 153.17453 -52.715 
L 153.901426 -52.715 
L 154.628321 -52.715 
L 155.355217 -52.715 
L 156.082113 -52.715 
L 156.809009 -52.715 
L 157.535905 -52.715 
L 158.2628 -52.715 
L 158.989696 -52.715 
L 159.716592 -52.715 
L 160.443488 -52.715 
L 161.170384 -52.715 
L 161.897279 -52.715 
L 162.624175 -52.715 
L 163.351071 -52.715 
L 164.077967 -52.715 
L 164.804863 -52.715 
L 165.531758 -52.715 
L 166.258654 -52.715 
L 166.98555 -52.715 
L 167.712446 -52.715 
L 168.439342 -52.715 
L 169.166237 -52.715 
L 169.893133 -52.715 
L 170.620029 -52.715 
L 171.346925 -52.715 
L 172.073821 -52.715 
L 172.800716 -52.715 
L 173.527612 -52.715 
L 174.254508 -52.715 
L 174.981404 -52.715 
L 175.7083 -52.715 
L 176.435195 -52.715 
L 177.162091 -52.715 
L 177.888987 -52.715 
L 178.615883 -52.715 
L 179.342779 -52.715 
L 180.069674 -52.715 
L 180.79657 -52.715 
L 181.523466 -52.715 
L 182.250362 -52.715 
L 182.977258 -52.715 
L 183.704153 -52.715 
L 184.431049 -52.715 
L 185.157945 -52.715 
L 185.884841 -52.715 
L 186.611737 -52.715 
L 187.338632 -52.715 
L 188.065528 -52.715 
L 188.792424 -52.715 
L 189.51932 -52.715 
L 190.246216 -52.715 
L 190.973111 -52.715 
L 191.700007 -52.715 
L 192.426903 -52.715 
L 193.153799 -52.715 
L 193.153799 -52.929971 
L 193.153799 -52.929971 
L 192.426903 -52.953616 
L 191.700007 -52.978519 
L 190.973111 -53.004586 
L 190.246216 -53.031711 
L 189.51932 -53.059777 
L 188.792424 -53.088665 
L 188.065528 -53.118254 
L 187.338632 -53.148429 
L 186.611737 -53.179088 
L 185.884841 -53.210145 
L 185.157945 -53.241533 
L 184.431049 -53.273219 
L 183.704153 -53.305197 
L 182.977258 -53.337501 
L 182.250362 -53.370203 
L 181.523466 -53.403419 
L 180.79657 -53.437306 
L 180.069674 -53.472069 
L 179.342779 -53.507951 
L 178.615883 -53.545238 
L 177.888987 -53.584254 
L 177.162091 -53.625354 
L 176.435195 -53.668921 
L 175.7083 -53.71536 
L 174.981404 -53.76509 
L 174.254508 -53.818535 
L 173.527612 -53.87612 
L 172.800716 -53.938259 
L 172.073821 -54.00535 
L 171.346925 -54.077765 
L 170.620029 -54.155842 
L 169.893133 -54.23988 
L 169.166237 -54.330132 
L 168.439342 -54.426799 
L 167.712446 -54.530026 
L 166.98555 -54.639897 
L 166.258654 -54.756435 
L 165.531758 -54.8796 
L 164.804863 -55.009287 
L 164.077967 -55.145329 
L 163.351071 -55.287497 
L 162.624175 -55.435506 
L 161.897279 -55.589015 
L 161.170384 -55.747635 
L 160.443488 -55.910932 
L 159.716592 -56.078436 
L 158.989696 -56.249648 
L 158.2628 -56.424049 
L 157.535905 -56.601107 
L 156.809009 -56.780289 
L 156.082113 -56.961074 
L 155.355217 -57.14296 
L 154.628321 -57.325479 
L 153.901426 -57.508209 
L 153.17453 -57.690784 
L 152.447634 -57.872903 
L 151.720738 -58.054346 
L 150.993842 -58.234972 
L 150.266947 -58.41473 
L 149.540051 -58.593656 
L 148.813155 -58.771876 
L 148.086259 -58.949592 
L 147.359363 -59.127081 
L 146.632468 -59.304669 
L 145.905572 -59.482724 
L 145.178676 -59.661625 
L 144.45178 -59.841743 
L 143.724884 -60.023411 
L 142.997989 -60.206903 
L 142.271093 -60.3924 
L 141.544197 -60.579976 
L 140.817301 -60.769567 
L 140.090405 -60.960964 
L 139.36351 -61.153798 
L 138.636614 -61.34754 
L 137.909718 -61.541497 
L 137.182822 -61.734833 
L 136.455926 -61.926576 
L 135.729031 -62.115649 
L 135.002135 -62.300898 
L 134.275239 -62.481127 
L 133.548343 -62.655136 
L 132.821447 -62.821764 
L 132.094552 -62.979926 
L 131.367656 -63.128661 
L 130.64076 -63.267164 
L 129.913864 -63.394824 
L 129.186968 -63.511251 
L 128.460073 -63.616302 
L 127.733177 -63.710095 
L 127.006281 -63.793018 
L 126.279385 -63.865728 
L 125.552489 -63.929141 
L 124.825594 -63.984415 
L 124.098698 -64.032922 
L 123.371802 -64.076216 
L 122.644906 -64.115987 
L 121.91801 -64.154015 
L 121.191115 -64.192116 
L 120.464219 -64.232086 
L 119.737323 -64.275638 
L 119.010427 -64.324346 
L 118.283532 -64.379587 
L 117.556636 -64.442483 
L 116.82974 -64.513859 
L 116.102844 -64.594196 
L 115.375948 -64.683601 
L 114.649053 -64.781788 
L 113.922157 -64.888068 
L 113.195261 -65.001353 
L 112.468365 -65.12017 
L 111.741469 -65.242696 
L 111.014574 -65.366794 
L 110.287678 -65.490067 
L 109.560782 -65.609919 
L 108.833886 -65.723621 
L 108.10699 -65.828384 
L 107.380095 -65.921429 
L 106.653199 -66.000066 
L 105.926303 -66.061752 
L 105.199407 -66.104163 
L 104.472511 -66.125239 
L 103.745616 -66.123235 
L 103.01872 -66.096748 
L 102.291824 -66.044742 
L 101.564928 -65.966553 
L 100.838032 -65.861892 
L 100.111137 -65.730824 
L 99.384241 -65.573757 
L 98.657345 -65.391404 
L 97.930449 -65.184752 
L 97.203553 -64.955025 
L 96.476658 -64.703644 
L 95.749762 -64.432186 
L 95.022866 -64.142352 
L 94.29597 -63.835926 
L 93.569074 -63.514754 
L 92.842179 -63.180709 
L 92.115283 -62.835679 
L 91.388387 -62.481548 
L 90.661491 -62.120185 
L 89.934595 -61.753433 
L 89.2077 -61.383112 
L 88.480804 -61.011004 
L 87.753908 -60.638861 
L 87.027012 -60.268395 
L 86.300116 -59.901275 
L 85.573221 -59.539124 
L 84.846325 -59.183508 
L 84.119429 -58.835929 
L 83.392533 -58.497812 
L 82.665637 -58.170491 
L 81.938742 -57.855194 
L 81.211846 -57.553029 
L 80.48495 -57.264963 
L 79.758054 -56.991814 
L 79.031158 -56.73423 
L 78.304263 -56.492681 
L 77.577367 -56.267453 
L 76.850471 -56.058636 
L 76.123575 -55.866127 
L 75.396679 -55.689635 
L 74.669784 -55.528683 
L 73.942888 -55.382622 
L 73.215992 -55.250649 
L 72.489096 -55.131821 
L 71.7622 -55.02508 
L 71.035305 -54.929278 
L 70.308409 -54.843201 
L 69.581513 -54.765597 
L 68.854617 -54.695202 
L 68.127721 -54.63077 
L 67.400826 -54.571091 
L 66.67393 -54.51502 
L 65.947034 -54.461494 
L 65.220138 -54.40955 
L 64.493242 -54.358337 
L 63.766347 -54.307131 
L 63.039451 -54.255333 
L 62.312555 -54.20248 
L 61.585659 -54.148239 
L 60.858763 -54.092406 
L 60.131868 -54.034897 
L 59.404972 -53.975739 
L 58.678076 -53.915059 
L 57.95118 -53.853072 
L 57.224284 -53.790063 
L 56.497389 -53.726377 
L 55.770493 -53.662397 
L 55.043597 -53.598537 
L 54.316701 -53.535219 
L 53.589805 -53.472866 
L 52.86291 -53.411889 
L 52.136014 -53.35267 
L 51.409118 -53.295562 
L 50.682222 -53.240874 
L 49.955326 -53.18887 
L 49.228431 -53.139764 
L 48.501535 -53.093716 
z
" style="stroke: #414487; stroke-width: 1.25"/>
    </defs>
    <g>
     <use xlink:href="#mb5590cb786" x="0" y="174.26" style="fill: #414487; fill-opacity: 0.7; stroke: #414487; stroke-width: 1.25"/>
    </g>
   </g>
   <g id="line2d_8">
    <path d="M 7.2 121.545 
L 216.45 121.545 
" style="fill: none; stroke: #414487; stroke-opacity: 0.9; stroke-linecap: round"/>
   </g>
   <g id="text_8">
    <!-- 7 -->
    <g style="fill: #414487" transform="translate(7.2 120.627) scale(0.12 -0.12)">
     <defs>
      <path id="IBMPlexSans-Bold-37" d="M 1062 0 
L 2560 3686 
L 1165 3686 
L 1165 2874 
L 352 2874 
L 352 4467 
L 3514 4467 
L 3514 3635 
L 2074 0 
L 1062 0 
z
" transform="scale(0.015625)"/>
     </defs>
     <use xlink:href="#IBMPlexSans-Bold-37"/>
    </g>
   </g>
  </g>
  <g id="axes_9">
   <g id="patch_10">
    <path d="M 7.2 131.94 
L 216.45 131.94 
L 216.45 90.36 
L 7.2 90.36 
L 7.2 131.94 
z
" style="fill: none"/>
   </g>
   <g id="matplotlib.axis_17">
    <g id="xtick_17">
     <g id="text_9">
      <!-- −5 -->
      <g style="fill: #838383" transform="translate(67.640837 149.58) scale(0.11 -0.11)">
       <defs>
        <path id="IBMPlexSans-Regular-2212" d="M 429 1734 
L 429 2170 
L 3411 2170 
L 3411 1734 
L 429 1734 
z
" transform="scale(0.015625)"/>
        <path id="IBMPlexSans-Regular-35" d="M 3187 3994 
L 1229 3994 
L 1101 2291 
L 1146 2291 
Q 1306 2515 1507 2649 
Q 1709 2784 2061 2784 
Q 2349 2784 2592 2688 
Q 2835 2592 3014 2416 
Q 3194 2240 3293 1984 
Q 3392 1728 3392 1402 
Q 3392 1075 3289 803 
Q 3187 531 2992 336 
Q 2797 141 2518 32 
Q 2240 -77 1888 -77 
Q 1606 -77 1392 -13 
Q 1178 51 1011 160 
Q 845 269 720 403 
Q 595 538 493 685 
L 896 992 
Q 979 858 1072 749 
Q 1165 640 1277 563 
Q 1389 486 1536 444 
Q 1683 403 1888 403 
Q 2349 403 2585 646 
Q 2822 890 2822 1331 
L 2822 1395 
Q 2822 1837 2585 2080 
Q 2349 2323 1888 2323 
Q 1581 2323 1405 2211 
Q 1229 2099 1088 1946 
L 634 2010 
L 794 4467 
L 3187 4467 
L 3187 3994 
z
" transform="scale(0.015625)"/>
       </defs>
       <use xlink:href="#IBMPlexSans-Regular-2212"/>
       <use xlink:href="#IBMPlexSans-Regular-35" transform="translate(59.999985 0)"/>
      </g>
     </g>
    </g>
    <g id="xtick_18">
     <g id="text_10">
      <!-- 0 -->
      <g style="fill: #838383" transform="translate(146.546156 149.58) scale(0.11 -0.11)">
       <defs>
        <path id="IBMPlexSans-Regular-30" d="M 1920 -77 
Q 1120 -77 752 531 
Q 384 1139 384 2234 
Q 384 3328 752 3936 
Q 1120 4544 1920 4544 
Q 2720 4544 3088 3936 
Q 3456 3328 3456 2234 
Q 3456 1139 3088 531 
Q 2720 -77 1920 -77 
z
M 1920 390 
Q 2182 390 2368 499 
Q 2554 608 2669 806 
Q 2784 1005 2838 1273 
Q 2893 1542 2893 1869 
L 2893 2598 
Q 2893 2925 2838 3193 
Q 2784 3462 2669 3660 
Q 2554 3859 2368 3968 
Q 2182 4077 1920 4077 
Q 1658 4077 1472 3968 
Q 1286 3859 1171 3660 
Q 1056 3462 1001 3193 
Q 947 2925 947 2598 
L 947 1869 
Q 947 1542 1001 1273 
Q 1056 1005 1171 806 
Q 1286 608 1472 499 
Q 1658 390 1920 390 
z
" transform="scale(0.015625)"/>
       </defs>
       <use xlink:href="#IBMPlexSans-Regular-30"/>
      </g>
     </g>
    </g>
    <g id="text_11">
     <!-- sldb -->
     <g style="fill: #262626" transform="translate(100.310625 164.66) scale(0.12 -0.12)">
      <defs>
       <path id="IBMPlexSans-Regular-73" d="M 1536 -77 
Q 1075 -77 764 99 
Q 454 275 230 570 
L 595 864 
Q 787 621 1024 489 
Q 1261 358 1574 358 
Q 1901 358 2083 499 
Q 2266 640 2266 896 
Q 2266 1088 2141 1225 
Q 2016 1363 1690 1414 
L 1427 1453 
Q 1197 1485 1005 1552 
Q 813 1619 669 1731 
Q 525 1843 445 2009 
Q 365 2176 365 2406 
Q 365 2650 454 2832 
Q 544 3014 701 3136 
Q 858 3258 1075 3318 
Q 1293 3379 1542 3379 
Q 1946 3379 2218 3238 
Q 2490 3098 2694 2848 
L 2355 2541 
Q 2246 2694 2035 2819 
Q 1824 2944 1504 2944 
Q 1184 2944 1021 2806 
Q 858 2669 858 2432 
Q 858 2189 1021 2080 
Q 1184 1971 1491 1920 
L 1747 1882 
Q 2298 1798 2528 1564 
Q 2758 1331 2758 954 
Q 2758 474 2432 198 
Q 2106 -77 1536 -77 
z
" transform="scale(0.015625)"/>
       <path id="IBMPlexSans-Regular-6c" d="M 1088 0 
Q 819 0 681 150 
Q 544 301 544 531 
L 544 4736 
L 1056 4736 
L 1056 448 
L 1542 448 
L 1542 0 
L 1088 0 
z
" transform="scale(0.015625)"/>
       <path id="IBMPlexSans-Regular-64" d="M 2656 538 
L 2630 538 
Q 2330 -77 1664 -77 
Q 1357 -77 1107 44 
Q 858 166 682 390 
Q 506 614 413 934 
Q 320 1254 320 1651 
Q 320 2048 413 2368 
Q 506 2688 682 2912 
Q 858 3136 1107 3257 
Q 1357 3379 1664 3379 
Q 2010 3379 2256 3228 
Q 2502 3078 2630 2765 
L 2656 2765 
L 2656 4736 
L 3168 4736 
L 3168 0 
L 2656 0 
L 2656 538 
z
M 1805 384 
Q 1978 384 2134 429 
Q 2291 474 2406 560 
Q 2522 646 2589 771 
Q 2656 896 2656 1056 
L 2656 2285 
Q 2656 2419 2589 2537 
Q 2522 2656 2406 2739 
Q 2291 2822 2134 2870 
Q 1978 2918 1805 2918 
Q 1370 2918 1120 2646 
Q 870 2374 870 1933 
L 870 1370 
Q 870 928 1120 656 
Q 1370 384 1805 384 
z
" transform="scale(0.015625)"/>
       <path id="IBMPlexSans-Regular-62" d="M 544 4736 
L 1056 4736 
L 1056 2765 
L 1082 2765 
Q 1210 3078 1456 3228 
Q 1702 3379 2048 3379 
Q 2355 3379 2604 3257 
Q 2854 3136 3030 2912 
Q 3206 2688 3299 2368 
Q 3392 2048 3392 1651 
Q 3392 1254 3299 934 
Q 3206 614 3030 390 
Q 2854 166 2604 44 
Q 2355 -77 2048 -77 
Q 1376 -77 1082 538 
L 1056 538 
L 1056 0 
L 544 0 
L 544 4736 
z
M 1907 384 
Q 2342 384 2592 656 
Q 2842 928 2842 1370 
L 2842 1933 
Q 2842 2374 2592 2646 
Q 2342 2918 1907 2918 
Q 1734 2918 1577 2870 
Q 1421 2822 1305 2739 
Q 1190 2656 1123 2537 
Q 1056 2419 1056 2285 
L 1056 1056 
Q 1056 896 1123 771 
Q 1190 646 1305 560 
Q 1421 474 1577 429 
Q 1734 384 1907 384 
z
" transform="scale(0.015625)"/>
      </defs>
      <use xlink:href="#IBMPlexSans-Regular-73"/>
      <use xlink:href="#IBMPlexSans-Regular-6c" transform="translate(48.699997 0)"/>
      <use xlink:href="#IBMPlexSans-Regular-64" transform="translate(75.899994 0)"/>
      <use xlink:href="#IBMPlexSans-Regular-62" transform="translate(133.899979 0)"/>
     </g>
    </g>
   </g>
   <g id="matplotlib.axis_18"/>
   <g id="FillBetweenPolyCollection_4">
    <defs>
     <path id="m3c6d720f0e" d="M 16.711364 -42.617859 
L 16.711364 -42.32 
L 17.66728 -42.32 
L 18.623196 -42.32 
L 19.579111 -42.32 
L 20.535027 -42.32 
L 21.490943 -42.32 
L 22.446859 -42.32 
L 23.402775 -42.32 
L 24.358691 -42.32 
L 25.314607 -42.32 
L 26.270523 -42.32 
L 27.226439 -42.32 
L 28.182355 -42.32 
L 29.138271 -42.32 
L 30.094187 -42.32 
L 31.050103 -42.32 
L 32.006019 -42.32 
L 32.961935 -42.32 
L 33.917851 -42.32 
L 34.873767 -42.32 
L 35.829683 -42.32 
L 36.785598 -42.32 
L 37.741514 -42.32 
L 38.69743 -42.32 
L 39.653346 -42.32 
L 40.609262 -42.32 
L 41.565178 -42.32 
L 42.521094 -42.32 
L 43.47701 -42.32 
L 44.432926 -42.32 
L 45.388842 -42.32 
L 46.344758 -42.32 
L 47.300674 -42.32 
L 48.25659 -42.32 
L 49.212506 -42.32 
L 50.168422 -42.32 
L 51.124338 -42.32 
L 52.080254 -42.32 
L 53.036169 -42.32 
L 53.992085 -42.32 
L 54.948001 -42.32 
L 55.903917 -42.32 
L 56.859833 -42.32 
L 57.815749 -42.32 
L 58.771665 -42.32 
L 59.727581 -42.32 
L 60.683497 -42.32 
L 61.639413 -42.32 
L 62.595329 -42.32 
L 63.551245 -42.32 
L 64.507161 -42.32 
L 65.463077 -42.32 
L 66.418993 -42.32 
L 67.374909 -42.32 
L 68.330825 -42.32 
L 69.286741 -42.32 
L 70.242656 -42.32 
L 71.198572 -42.32 
L 72.154488 -42.32 
L 73.110404 -42.32 
L 74.06632 -42.32 
L 75.022236 -42.32 
L 75.978152 -42.32 
L 76.934068 -42.32 
L 77.889984 -42.32 
L 78.8459 -42.32 
L 79.801816 -42.32 
L 80.757732 -42.32 
L 81.713648 -42.32 
L 82.669564 -42.32 
L 83.62548 -42.32 
L 84.581396 -42.32 
L 85.537312 -42.32 
L 86.493228 -42.32 
L 87.449143 -42.32 
L 88.405059 -42.32 
L 89.360975 -42.32 
L 90.316891 -42.32 
L 91.272807 -42.32 
L 92.228723 -42.32 
L 93.184639 -42.32 
L 94.140555 -42.32 
L 95.096471 -42.32 
L 96.052387 -42.32 
L 97.008303 -42.32 
L 97.964219 -42.32 
L 98.920135 -42.32 
L 99.876051 -42.32 
L 100.831967 -42.32 
L 101.787883 -42.32 
L 102.743799 -42.32 
L 103.699714 -42.32 
L 104.65563 -42.32 
L 105.611546 -42.32 
L 106.567462 -42.32 
L 107.523378 -42.32 
L 108.479294 -42.32 
L 109.43521 -42.32 
L 110.391126 -42.32 
L 111.347042 -42.32 
L 112.302958 -42.32 
L 113.258874 -42.32 
L 114.21479 -42.32 
L 115.170706 -42.32 
L 116.126622 -42.32 
L 117.082538 -42.32 
L 118.038454 -42.32 
L 118.99437 -42.32 
L 119.950286 -42.32 
L 120.906201 -42.32 
L 121.862117 -42.32 
L 122.818033 -42.32 
L 123.773949 -42.32 
L 124.729865 -42.32 
L 125.685781 -42.32 
L 126.641697 -42.32 
L 127.597613 -42.32 
L 128.553529 -42.32 
L 129.509445 -42.32 
L 130.465361 -42.32 
L 131.421277 -42.32 
L 132.377193 -42.32 
L 133.333109 -42.32 
L 134.289025 -42.32 
L 135.244941 -42.32 
L 136.200857 -42.32 
L 137.156772 -42.32 
L 138.112688 -42.32 
L 139.068604 -42.32 
L 140.02452 -42.32 
L 140.980436 -42.32 
L 141.936352 -42.32 
L 142.892268 -42.32 
L 143.848184 -42.32 
L 144.8041 -42.32 
L 145.760016 -42.32 
L 146.715932 -42.32 
L 147.671848 -42.32 
L 148.627764 -42.32 
L 149.58368 -42.32 
L 150.539596 -42.32 
L 151.495512 -42.32 
L 152.451428 -42.32 
L 153.407344 -42.32 
L 154.363259 -42.32 
L 155.319175 -42.32 
L 156.275091 -42.32 
L 157.231007 -42.32 
L 158.186923 -42.32 
L 159.142839 -42.32 
L 160.098755 -42.32 
L 161.054671 -42.32 
L 162.010587 -42.32 
L 162.966503 -42.32 
L 163.922419 -42.32 
L 164.878335 -42.32 
L 165.834251 -42.32 
L 166.790167 -42.32 
L 167.746083 -42.32 
L 168.701999 -42.32 
L 169.657915 -42.32 
L 170.613831 -42.32 
L 171.569746 -42.32 
L 172.525662 -42.32 
L 173.481578 -42.32 
L 174.437494 -42.32 
L 175.39341 -42.32 
L 176.349326 -42.32 
L 177.305242 -42.32 
L 178.261158 -42.32 
L 179.217074 -42.32 
L 180.17299 -42.32 
L 181.128906 -42.32 
L 182.084822 -42.32 
L 183.040738 -42.32 
L 183.996654 -42.32 
L 184.95257 -42.32 
L 185.908486 -42.32 
L 186.864402 -42.32 
L 187.820317 -42.32 
L 188.776233 -42.32 
L 189.732149 -42.32 
L 190.688065 -42.32 
L 191.643981 -42.32 
L 192.599897 -42.32 
L 193.555813 -42.32 
L 194.511729 -42.32 
L 195.467645 -42.32 
L 196.423561 -42.32 
L 197.379477 -42.32 
L 198.335393 -42.32 
L 199.291309 -42.32 
L 200.247225 -42.32 
L 201.203141 -42.32 
L 202.159057 -42.32 
L 203.114973 -42.32 
L 204.070889 -42.32 
L 205.026804 -42.32 
L 205.98272 -42.32 
L 206.938636 -42.32 
L 206.938636 -42.482364 
L 206.938636 -42.482364 
L 205.98272 -42.500298 
L 205.026804 -42.519213 
L 204.070889 -42.539043 
L 203.114973 -42.559712 
L 202.159057 -42.581137 
L 201.203141 -42.603234 
L 200.247225 -42.625914 
L 199.291309 -42.649095 
L 198.335393 -42.6727 
L 197.379477 -42.696664 
L 196.423561 -42.720937 
L 195.467645 -42.74549 
L 194.511729 -42.770313 
L 193.555813 -42.795427 
L 192.599897 -42.820877 
L 191.643981 -42.846741 
L 190.688065 -42.873129 
L 189.732149 -42.900183 
L 188.776233 -42.928075 
L 187.820317 -42.95701 
L 186.864402 -42.98722 
L 185.908486 -43.018963 
L 184.95257 -43.052518 
L 183.996654 -43.088182 
L 183.040738 -43.126263 
L 182.084822 -43.167077 
L 181.128906 -43.210937 
L 180.17299 -43.258154 
L 179.217074 -43.309024 
L 178.261158 -43.363824 
L 177.305242 -43.422806 
L 176.349326 -43.486192 
L 175.39341 -43.55417 
L 174.437494 -43.626883 
L 173.481578 -43.704435 
L 172.525662 -43.78688 
L 171.569746 -43.874228 
L 170.613831 -43.966436 
L 169.657915 -44.063414 
L 168.701999 -44.165026 
L 167.746083 -44.271088 
L 166.790167 -44.381376 
L 165.834251 -44.495624 
L 164.878335 -44.613536 
L 163.922419 -44.734782 
L 162.966503 -44.859009 
L 162.010587 -44.985848 
L 161.054671 -45.114915 
L 160.098755 -45.245821 
L 159.142839 -45.378182 
L 158.186923 -45.51162 
L 157.231007 -45.645777 
L 156.275091 -45.78032 
L 155.319175 -45.91495 
L 154.363259 -46.04941 
L 153.407344 -46.18349 
L 152.451428 -46.317036 
L 151.495512 -46.449956 
L 150.539596 -46.58222 
L 149.58368 -46.713862 
L 148.627764 -46.844982 
L 147.671848 -46.975739 
L 146.715932 -47.106346 
L 145.760016 -47.237057 
L 144.8041 -47.36816 
L 143.848184 -47.499956 
L 142.892268 -47.632747 
L 141.936352 -47.766813 
L 140.980436 -47.902397 
L 140.02452 -48.03968 
L 139.068604 -48.178769 
L 138.112688 -48.319677 
L 137.156772 -48.462312 
L 136.200857 -48.606465 
L 135.244941 -48.751808 
L 134.289025 -48.897895 
L 133.333109 -49.044161 
L 132.377193 -49.18994 
L 131.421277 -49.334477 
L 130.465361 -49.476949 
L 129.509445 -49.616486 
L 128.553529 -49.752204 
L 127.597613 -49.883233 
L 126.641697 -50.008741 
L 125.685781 -50.127976 
L 124.729865 -50.240283 
L 123.773949 -50.345142 
L 122.818033 -50.442182 
L 121.862117 -50.531207 
L 120.906201 -50.612206 
L 119.950286 -50.685363 
L 118.99437 -50.75106 
L 118.038454 -50.80987 
L 117.082538 -50.862547 
L 116.126622 -50.91001 
L 115.170706 -50.953317 
L 114.21479 -50.993636 
L 113.258874 -51.032212 
L 112.302958 -51.070327 
L 111.347042 -51.109259 
L 110.391126 -51.150238 
L 109.43521 -51.1944 
L 108.479294 -51.242747 
L 107.523378 -51.296105 
L 106.567462 -51.355085 
L 105.611546 -51.420055 
L 104.65563 -51.491112 
L 103.699714 -51.568067 
L 102.743799 -51.650436 
L 101.787883 -51.737442 
L 100.831967 -51.828028 
L 99.876051 -51.920872 
L 98.920135 -52.014423 
L 97.964219 -52.106936 
L 97.008303 -52.196516 
L 96.052387 -52.281168 
L 95.096471 -52.358852 
L 94.140555 -52.427532 
L 93.184639 -52.485237 
L 92.228723 -52.530104 
L 91.272807 -52.560428 
L 90.316891 -52.574702 
L 89.360975 -52.571647 
L 88.405059 -52.550236 
L 87.449143 -52.509713 
L 86.493228 -52.449591 
L 85.537312 -52.369657 
L 84.581396 -52.26996 
L 83.62548 -52.150792 
L 82.669564 -52.012669 
L 81.713648 -51.856303 
L 80.757732 -51.682579 
L 79.801816 -51.492519 
L 78.8459 -51.287261 
L 77.889984 -51.06803 
L 76.934068 -50.836115 
L 75.978152 -50.592847 
L 75.022236 -50.339587 
L 74.06632 -50.077709 
L 73.110404 -49.808592 
L 72.154488 -49.533612 
L 71.198572 -49.254142 
L 70.242656 -48.971544 
L 69.286741 -48.68717 
L 68.330825 -48.402357 
L 67.374909 -48.11843 
L 66.418993 -47.836692 
L 65.463077 -47.558423 
L 64.507161 -47.284868 
L 63.551245 -47.017233 
L 62.595329 -46.756669 
L 61.639413 -46.504261 
L 60.683497 -46.261015 
L 59.727581 -46.027845 
L 58.771665 -45.805553 
L 57.815749 -45.594822 
L 56.859833 -45.396201 
L 55.903917 -45.210092 
L 54.948001 -45.03675 
L 53.992085 -44.876271 
L 53.036169 -44.728593 
L 52.080254 -44.5935 
L 51.124338 -44.470627 
L 50.168422 -44.359466 
L 49.212506 -44.259385 
L 48.25659 -44.169637 
L 47.300674 -44.089381 
L 46.344758 -44.017699 
L 45.388842 -43.953623 
L 44.432926 -43.89615 
L 43.47701 -43.844268 
L 42.521094 -43.796975 
L 41.565178 -43.7533 
L 40.609262 -43.712323 
L 39.653346 -43.673189 
L 38.69743 -43.635124 
L 37.741514 -43.597445 
L 36.785598 -43.559568 
L 35.829683 -43.521016 
L 34.873767 -43.481418 
L 33.917851 -43.44051 
L 32.961935 -43.398133 
L 32.006019 -43.354225 
L 31.050103 -43.308818 
L 30.094187 -43.262021 
L 29.138271 -43.214017 
L 28.182355 -43.165047 
L 27.226439 -43.115397 
L 26.270523 -43.065388 
L 25.314607 -43.015364 
L 24.358691 -42.965675 
L 23.402775 -42.916673 
L 22.446859 -42.868694 
L 21.490943 -42.822057 
L 20.535027 -42.777051 
L 19.579111 -42.733932 
L 18.623196 -42.692917 
L 17.66728 -42.654182 
L 16.711364 -42.617859 
z
" style="stroke: #482475; stroke-width: 1.25"/>
    </defs>
    <g>
     <use xlink:href="#m3c6d720f0e" x="0" y="174.26" style="fill: #482475; fill-opacity: 0.7; stroke: #482475; stroke-width: 1.25"/>
    </g>
   </g>
   <g id="line2d_9">
    <path d="M 7.2 131.94 
L 216.45 131.94 
" style="fill: none; stroke: #482475; stroke-opacity: 0.9; stroke-linecap: round"/>
   </g>
   <g id="text_12">
    <!-- 8 -->
    <g style="fill: #482475" transform="translate(7.2 131.022) scale(0.12 -0.12)">
     <defs>
      <path id="IBMPlexSans-Bold-38" d="M 1920 -77 
Q 1523 -77 1212 22 
Q 902 122 691 294 
Q 480 467 368 704 
Q 256 941 256 1222 
Q 256 1651 493 1923 
Q 730 2195 1133 2304 
L 1133 2355 
Q 806 2477 598 2726 
Q 390 2976 390 3366 
Q 390 3622 489 3840 
Q 589 4058 784 4214 
Q 979 4371 1264 4457 
Q 1549 4544 1920 4544 
Q 2291 4544 2576 4457 
Q 2861 4371 3056 4214 
Q 3251 4058 3350 3840 
Q 3450 3622 3450 3366 
Q 3450 2976 3242 2726 
Q 3034 2477 2707 2355 
L 2707 2304 
Q 3110 2195 3347 1923 
Q 3584 1651 3584 1222 
Q 3584 941 3472 704 
Q 3360 467 3149 294 
Q 2938 122 2627 22 
Q 2317 -77 1920 -77 
z
M 1920 659 
Q 2240 659 2409 809 
Q 2579 960 2579 1229 
L 2579 1357 
Q 2579 1626 2409 1776 
Q 2240 1926 1920 1926 
Q 1600 1926 1430 1776 
Q 1261 1626 1261 1357 
L 1261 1229 
Q 1261 960 1430 809 
Q 1600 659 1920 659 
z
M 1920 2630 
Q 2227 2630 2387 2774 
Q 2547 2918 2547 3168 
L 2547 3270 
Q 2547 3520 2387 3664 
Q 2227 3808 1920 3808 
Q 1613 3808 1453 3664 
Q 1293 3520 1293 3270 
L 1293 3168 
Q 1293 2918 1453 2774 
Q 1613 2630 1920 2630 
z
" transform="scale(0.015625)"/>
     </defs>
     <use xlink:href="#IBMPlexSans-Bold-38"/>
    </g>
   </g>
  </g>
 </g>
</svg>
