<?xml version="1.0" encoding="utf-8" standalone="no"?>
<!DOCTYPE svg PUBLIC "-//W3C//DTD SVG 1.1//EN"
  "http://www.w3.org/Graphics/SVG/1.1/DTD/svg11.dtd">
<svg xmlns:xlink="http://www.w3.org/1999/xlink" width="223.65pt" height="174.404375pt" viewBox="0 0 223.65 174.404375" xmlns="http://www.w3.org/2000/svg" version="1.1">
 <metadata>
  <rdf:RDF xmlns:dc="http://purl.org/dc/elements/1.1/" xmlns:cc="http://creativecommons.org/ns#" xmlns:rdf="http://www.w3.org/1999/02/22-rdf-syntax-ns#">
   <cc:Work>
    <dc:type rdf:resource="http://purl.org/dc/dcmitype/StillImage"/>
    <dc:date>2025-04-30T15:48:27.494220</dc:date>
    <dc:format>image/svg+xml</dc:format>
    <dc:creator>
     <cc:Agent>
      <dc:title>Matplotlib v3.10.1, https://matplotlib.org/</dc:title>
     </cc:Agent>
    </dc:creator>
   </cc:Work>
  </rdf:RDF>
 </metadata>
 <defs>
  <style type="text/css">*{stroke-linejoin: round; stroke-linecap: butt}</style>
 </defs>
 <g id="figure_1">
  <g id="patch_1">
   <path d="M 0 174.404375 
L 223.65 174.404375 
L 223.65 0 
L 0 0 
L 0 174.404375 
z
" style="fill: none"/>
  </g>
  <g id="axes_1">
   <g id="patch_2">
    <path d="M 7.2 48.78 
L 216.45 48.78 
L 216.45 7.2 
L 7.2 7.2 
L 7.2 48.78 
z
" style="fill: none"/>
   </g>
   <g id="matplotlib.axis_1">
    <g id="xtick_1"/>
    <g id="xtick_2"/>
   </g>
   <g id="matplotlib.axis_2"/>
   <g id="line2d_1">
    <path d="M 7.2 48.78 
L 216.45 48.78 
" style="fill: none; stroke: #482475; stroke-opacity: 0.9; stroke-linecap: round"/>
   </g>
   <g id="text_1">
    <!-- 0 -->
    <g style="fill: #482475" transform="translate(7.2 47.862) scale(0.12 -0.12)">
     <defs>
      <path id="IBMPlexSans-Bold-30" d="M 1920 -77 
Q 1043 -77 620 531 
Q 198 1139 198 2234 
Q 198 3328 620 3936 
Q 1043 4544 1920 4544 
Q 2797 4544 3219 3936 
Q 3642 3328 3642 2234 
Q 3642 1139 3219 531 
Q 2797 -77 1920 -77 
z
M 1920 736 
Q 2304 736 2451 1017 
Q 2598 1299 2598 1811 
L 2598 2656 
Q 2598 3168 2451 3449 
Q 2304 3731 1920 3731 
Q 1536 3731 1389 3449 
Q 1242 3168 1242 2656 
L 1242 1811 
Q 1242 1299 1389 1017 
Q 1536 736 1920 736 
z
" transform="scale(0.015625)"/>
     </defs>
     <use xlink:href="#IBMPlexSans-Bold-30"/>
    </g>
   </g>
  </g>
  <g id="axes_2">
   <g id="patch_3">
    <path d="M 7.2 59.175 
L 216.45 59.175 
L 216.45 17.595 
L 7.2 17.595 
L 7.2 59.175 
z
" style="fill: none"/>
   </g>
   <g id="matplotlib.axis_3">
    <g id="xtick_3"/>
    <g id="xtick_4"/>
   </g>
   <g id="matplotlib.axis_4"/>
   <g id="FillBetweenPolyCollection_1">
    <defs>
     <path id="m829414cebe" d="M 56.464716 -115.491886 
L 56.464716 -115.229375 
L 56.698973 -115.229375 
L 56.933231 -115.229375 
L 57.167488 -115.229375 
L 57.401745 -115.229375 
L 57.636002 -115.229375 
L 57.87026 -115.229375 
L 58.104517 -115.229375 
L 58.338774 -115.229375 
L 58.573031 -115.229375 
L 58.807289 -115.229375 
L 59.041546 -115.229375 
L 59.275803 -115.229375 
L 59.51006 -115.229375 
L 59.744318 -115.229375 
L 59.978575 -115.229375 
L 60.212832 -115.229375 
L 60.447089 -115.229375 
L 60.681347 -115.229375 
L 60.915604 -115.229375 
L 61.149861 -115.229375 
L 61.384118 -115.229375 
L 61.618376 -115.229375 
L 61.852633 -115.229375 
L 62.08689 -115.229375 
L 62.321147 -115.229375 
L 62.555405 -115.229375 
L 62.789662 -115.229375 
L 63.023919 -115.229375 
L 63.258176 -115.229375 
L 63.492434 -115.229375 
L 63.726691 -115.229375 
L 63.960948 -115.229375 
L 64.195205 -115.229375 
L 64.429463 -115.229375 
L 64.66372 -115.229375 
L 64.897977 -115.229375 
L 65.132234 -115.229375 
L 65.366492 -115.229375 
L 65.600749 -115.229375 
L 65.835006 -115.229375 
L 66.069263 -115.229375 
L 66.303521 -115.229375 
L 66.537778 -115.229375 
L 66.772035 -115.229375 
L 67.006292 -115.229375 
L 67.24055 -115.229375 
L 67.474807 -115.229375 
L 67.709064 -115.229375 
L 67.943321 -115.229375 
L 68.177579 -115.229375 
L 68.411836 -115.229375 
L 68.646093 -115.229375 
L 68.88035 -115.229375 
L 69.114608 -115.229375 
L 69.348865 -115.229375 
L 69.583122 -115.229375 
L 69.817379 -115.229375 
L 70.051637 -115.229375 
L 70.285894 -115.229375 
L 70.520151 -115.229375 
L 70.754408 -115.229375 
L 70.988666 -115.229375 
L 71.222923 -115.229375 
L 71.45718 -115.229375 
L 71.691437 -115.229375 
L 71.925695 -115.229375 
L 72.159952 -115.229375 
L 72.394209 -115.229375 
L 72.628466 -115.229375 
L 72.862724 -115.229375 
L 73.096981 -115.229375 
L 73.331238 -115.229375 
L 73.565495 -115.229375 
L 73.799753 -115.229375 
L 74.03401 -115.229375 
L 74.268267 -115.229375 
L 74.502524 -115.229375 
L 74.736782 -115.229375 
L 74.971039 -115.229375 
L 75.205296 -115.229375 
L 75.439553 -115.229375 
L 75.673811 -115.229375 
L 75.908068 -115.229375 
L 76.142325 -115.229375 
L 76.376582 -115.229375 
L 76.61084 -115.229375 
L 76.845097 -115.229375 
L 77.079354 -115.229375 
L 77.313611 -115.229375 
L 77.547869 -115.229375 
L 77.782126 -115.229375 
L 78.016383 -115.229375 
L 78.25064 -115.229375 
L 78.484898 -115.229375 
L 78.719155 -115.229375 
L 78.953412 -115.229375 
L 79.187669 -115.229375 
L 79.421927 -115.229375 
L 79.656184 -115.229375 
L 79.890441 -115.229375 
L 80.124698 -115.229375 
L 80.358956 -115.229375 
L 80.593213 -115.229375 
L 80.82747 -115.229375 
L 81.061727 -115.229375 
L 81.295985 -115.229375 
L 81.530242 -115.229375 
L 81.764499 -115.229375 
L 81.998756 -115.229375 
L 82.233014 -115.229375 
L 82.467271 -115.229375 
L 82.701528 -115.229375 
L 82.935785 -115.229375 
L 83.170043 -115.229375 
L 83.4043 -115.229375 
L 83.638557 -115.229375 
L 83.872814 -115.229375 
L 84.107072 -115.229375 
L 84.341329 -115.229375 
L 84.575586 -115.229375 
L 84.809843 -115.229375 
L 85.044101 -115.229375 
L 85.278358 -115.229375 
L 85.512615 -115.229375 
L 85.746872 -115.229375 
L 85.98113 -115.229375 
L 86.215387 -115.229375 
L 86.449644 -115.229375 
L 86.683901 -115.229375 
L 86.918159 -115.229375 
L 87.152416 -115.229375 
L 87.386673 -115.229375 
L 87.62093 -115.229375 
L 87.855188 -115.229375 
L 88.089445 -115.229375 
L 88.323702 -115.229375 
L 88.557959 -115.229375 
L 88.792217 -115.229375 
L 89.026474 -115.229375 
L 89.260731 -115.229375 
L 89.494988 -115.229375 
L 89.729246 -115.229375 
L 89.963503 -115.229375 
L 90.19776 -115.229375 
L 90.432017 -115.229375 
L 90.666275 -115.229375 
L 90.900532 -115.229375 
L 91.134789 -115.229375 
L 91.369046 -115.229375 
L 91.603304 -115.229375 
L 91.837561 -115.229375 
L 92.071818 -115.229375 
L 92.306075 -115.229375 
L 92.540333 -115.229375 
L 92.77459 -115.229375 
L 93.008847 -115.229375 
L 93.243104 -115.229375 
L 93.477362 -115.229375 
L 93.711619 -115.229375 
L 93.945876 -115.229375 
L 94.180133 -115.229375 
L 94.414391 -115.229375 
L 94.648648 -115.229375 
L 94.882905 -115.229375 
L 95.117162 -115.229375 
L 95.35142 -115.229375 
L 95.585677 -115.229375 
L 95.819934 -115.229375 
L 96.054191 -115.229375 
L 96.288449 -115.229375 
L 96.522706 -115.229375 
L 96.756963 -115.229375 
L 96.99122 -115.229375 
L 97.225478 -115.229375 
L 97.459735 -115.229375 
L 97.693992 -115.229375 
L 97.928249 -115.229375 
L 98.162507 -115.229375 
L 98.396764 -115.229375 
L 98.631021 -115.229375 
L 98.865278 -115.229375 
L 99.099536 -115.229375 
L 99.333793 -115.229375 
L 99.56805 -115.229375 
L 99.802307 -115.229375 
L 100.036565 -115.229375 
L 100.270822 -115.229375 
L 100.505079 -115.229375 
L 100.739336 -115.229375 
L 100.973594 -115.229375 
L 101.207851 -115.229375 
L 101.442108 -115.229375 
L 101.676365 -115.229375 
L 101.910623 -115.229375 
L 102.14488 -115.229375 
L 102.379137 -115.229375 
L 102.613394 -115.229375 
L 102.847652 -115.229375 
L 103.081909 -115.229375 
L 103.081909 -115.486465 
L 103.081909 -115.486465 
L 102.847652 -115.518476 
L 102.613394 -115.553067 
L 102.379137 -115.590275 
L 102.14488 -115.630127 
L 101.910623 -115.672631 
L 101.676365 -115.717778 
L 101.442108 -115.765542 
L 101.207851 -115.815883 
L 100.973594 -115.868741 
L 100.739336 -115.924044 
L 100.505079 -115.981701 
L 100.270822 -116.041615 
L 100.036565 -116.103678 
L 99.802307 -116.167776 
L 99.56805 -116.2338 
L 99.333793 -116.301648 
L 99.099536 -116.371231 
L 98.865278 -116.44249 
L 98.631021 -116.515394 
L 98.396764 -116.589961 
L 98.162507 -116.66626 
L 97.928249 -116.744426 
L 97.693992 -116.824662 
L 97.459735 -116.907255 
L 97.225478 -116.992571 
L 96.99122 -117.081068 
L 96.756963 -117.173285 
L 96.522706 -117.26985 
L 96.288449 -117.371464 
L 96.054191 -117.478899 
L 95.819934 -117.592984 
L 95.585677 -117.714595 
L 95.35142 -117.844633 
L 95.117162 -117.984018 
L 94.882905 -118.133668 
L 94.648648 -118.294487 
L 94.414391 -118.467349 
L 94.180133 -118.653091 
L 93.945876 -118.852497 
L 93.711619 -119.066296 
L 93.477362 -119.295152 
L 93.243104 -119.539659 
L 93.008847 -119.800333 
L 92.77459 -120.077613 
L 92.540333 -120.371846 
L 92.306075 -120.683281 
L 92.071818 -121.012055 
L 91.837561 -121.35818 
L 91.603304 -121.721517 
L 91.369046 -122.101757 
L 91.134789 -122.498394 
L 90.900532 -122.910694 
L 90.666275 -123.33767 
L 90.432017 -123.778051 
L 90.19776 -124.230258 
L 89.963503 -124.692387 
L 89.729246 -125.162193 
L 89.494988 -125.637093 
L 89.260731 -126.114167 
L 89.026474 -126.590189 
L 88.792217 -127.061651 
L 88.557959 -127.524819 
L 88.323702 -127.975789 
L 88.089445 -128.410559 
L 87.855188 -128.825115 
L 87.62093 -129.21552 
L 87.386673 -129.578004 
L 87.152416 -129.909069 
L 86.918159 -130.205575 
L 86.683901 -130.464837 
L 86.449644 -130.684698 
L 86.215387 -130.8636 
L 85.98113 -131.000639 
L 85.746872 -131.095596 
L 85.512615 -131.148957 
L 85.278358 -131.161907 
L 85.044101 -131.13631 
L 84.809843 -131.074661 
L 84.575586 -130.980028 
L 84.341329 -130.855971 
L 84.107072 -130.706454 
L 83.872814 -130.535735 
L 83.638557 -130.348266 
L 83.4043 -130.148569 
L 83.170043 -129.941129 
L 82.935785 -129.73028 
L 82.701528 -129.520103 
L 82.467271 -129.314332 
L 82.233014 -129.116274 
L 81.998756 -128.928742 
L 81.764499 -128.754006 
L 81.530242 -128.593762 
L 81.295985 -128.449117 
L 81.061727 -128.320589 
L 80.82747 -128.208129 
L 80.593213 -128.111158 
L 80.358956 -128.028609 
L 80.124698 -127.95899 
L 79.890441 -127.900456 
L 79.656184 -127.850879 
L 79.421927 -127.807931 
L 79.187669 -127.769166 
L 78.953412 -127.7321 
L 78.719155 -127.694287 
L 78.484898 -127.653391 
L 78.25064 -127.607255 
L 78.016383 -127.55395 
L 77.782126 -127.491821 
L 77.547869 -127.419523 
L 77.313611 -127.336043 
L 77.079354 -127.240702 
L 76.845097 -127.133162 
L 76.61084 -127.013404 
L 76.376582 -126.881707 
L 76.142325 -126.738615 
L 75.908068 -126.584897 
L 75.673811 -126.421499 
L 75.439553 -126.249497 
L 75.205296 -126.070048 
L 74.971039 -125.884336 
L 74.736782 -125.693531 
L 74.502524 -125.498743 
L 74.268267 -125.300985 
L 74.03401 -125.101149 
L 73.799753 -124.899978 
L 73.565495 -124.698058 
L 73.331238 -124.49581 
L 73.096981 -124.293495 
L 72.862724 -124.091224 
L 72.628466 -123.888974 
L 72.394209 -123.68661 
L 72.159952 -123.483914 
L 71.925695 -123.28061 
L 71.691437 -123.076393 
L 71.45718 -122.87096 
L 71.222923 -122.664038 
L 70.988666 -122.455404 
L 70.754408 -122.244911 
L 70.520151 -122.032499 
L 70.285894 -121.81821 
L 70.051637 -121.60219 
L 69.817379 -121.384693 
L 69.583122 -121.166076 
L 69.348865 -120.946786 
L 69.114608 -120.727355 
L 68.88035 -120.508382 
L 68.646093 -120.290511 
L 68.411836 -120.074424 
L 68.177579 -119.86081 
L 67.943321 -119.650357 
L 67.709064 -119.443734 
L 67.474807 -119.241572 
L 67.24055 -119.044458 
L 67.006292 -118.852922 
L 66.772035 -118.667432 
L 66.537778 -118.488388 
L 66.303521 -118.316123 
L 66.069263 -118.1509 
L 65.835006 -117.992917 
L 65.600749 -117.842306 
L 65.366492 -117.69914 
L 65.132234 -117.563435 
L 64.897977 -117.435157 
L 64.66372 -117.314223 
L 64.429463 -117.200505 
L 64.195205 -117.093835 
L 63.960948 -116.994007 
L 63.726691 -116.900778 
L 63.492434 -116.813871 
L 63.258176 -116.73298 
L 63.023919 -116.657767 
L 62.789662 -116.587868 
L 62.555405 -116.522895 
L 62.321147 -116.46244 
L 62.08689 -116.406083 
L 61.852633 -116.353389 
L 61.618376 -116.303924 
L 61.384118 -116.257255 
L 61.149861 -116.21296 
L 60.915604 -116.170636 
L 60.681347 -116.129904 
L 60.447089 -116.090419 
L 60.212832 -116.051875 
L 59.978575 -116.014008 
L 59.744318 -115.976604 
L 59.51006 -115.939502 
L 59.275803 -115.90259 
L 59.041546 -115.865811 
L 58.807289 -115.829153 
L 58.573031 -115.792654 
L 58.338774 -115.756391 
L 58.104517 -115.720476 
L 57.87026 -115.685045 
L 57.636002 -115.650258 
L 57.401745 -115.616284 
L 57.167488 -115.583295 
L 56.933231 -115.551463 
L 56.698973 -115.520945 
L 56.464716 -115.491886 
z
" style="stroke: #2a788e; stroke-width: 1.25"/>
    </defs>
    <g>
     <use xlink:href="#m829414cebe" x="0" y="174.404375" style="fill: #2a788e; fill-opacity: 0.7; stroke: #2a788e; stroke-width: 1.25"/>
    </g>
   </g>
   <g id="line2d_2">
    <path d="M 7.2 59.175 
L 216.45 59.175 
" style="fill: none; stroke: #2a788e; stroke-opacity: 0.9; stroke-linecap: round"/>
   </g>
   <g id="text_2">
    <!-- 1 -->
    <g style="fill: #2a788e" transform="translate(7.2 58.257) scale(0.12 -0.12)">
     <defs>
      <path id="IBMPlexSans-Bold-31" d="M 602 0 
L 602 774 
L 1805 774 
L 1805 3770 
L 1747 3770 
L 838 2579 
L 224 3059 
L 1293 4467 
L 2765 4467 
L 2765 774 
L 3712 774 
L 3712 0 
L 602 0 
z
" transform="scale(0.015625)"/>
     </defs>
     <use xlink:href="#IBMPlexSans-Bold-31"/>
    </g>
   </g>
  </g>
  <g id="axes_3">
   <g id="patch_4">
    <path d="M 7.2 69.57 
L 216.45 69.57 
L 216.45 27.99 
L 7.2 27.99 
L 7.2 69.57 
z
" style="fill: none"/>
   </g>
   <g id="matplotlib.axis_5">
    <g id="xtick_5"/>
    <g id="xtick_6"/>
   </g>
   <g id="matplotlib.axis_6"/>
   <g id="FillBetweenPolyCollection_2">
    <defs>
     <path id="m0c3cdf8418" d="M 43.001842 -104.977397 
L 43.001842 -104.834375 
L 43.475692 -104.834375 
L 43.949541 -104.834375 
L 44.423391 -104.834375 
L 44.897241 -104.834375 
L 45.371091 -104.834375 
L 45.844941 -104.834375 
L 46.318791 -104.834375 
L 46.792641 -104.834375 
L 47.266491 -104.834375 
L 47.740341 -104.834375 
L 48.214191 -104.834375 
L 48.688041 -104.834375 
L 49.161891 -104.834375 
L 49.635741 -104.834375 
L 50.109591 -104.834375 
L 50.58344 -104.834375 
L 51.05729 -104.834375 
L 51.53114 -104.834375 
L 52.00499 -104.834375 
L 52.47884 -104.834375 
L 52.95269 -104.834375 
L 53.42654 -104.834375 
L 53.90039 -104.834375 
L 54.37424 -104.834375 
L 54.84809 -104.834375 
L 55.32194 -104.834375 
L 55.79579 -104.834375 
L 56.26964 -104.834375 
L 56.74349 -104.834375 
L 57.217339 -104.834375 
L 57.691189 -104.834375 
L 58.165039 -104.834375 
L 58.638889 -104.834375 
L 59.112739 -104.834375 
L 59.586589 -104.834375 
L 60.060439 -104.834375 
L 60.534289 -104.834375 
L 61.008139 -104.834375 
L 61.481989 -104.834375 
L 61.955839 -104.834375 
L 62.429689 -104.834375 
L 62.903539 -104.834375 
L 63.377388 -104.834375 
L 63.851238 -104.834375 
L 64.325088 -104.834375 
L 64.798938 -104.834375 
L 65.272788 -104.834375 
L 65.746638 -104.834375 
L 66.220488 -104.834375 
L 66.694338 -104.834375 
L 67.168188 -104.834375 
L 67.642038 -104.834375 
L 68.115888 -104.834375 
L 68.589738 -104.834375 
L 69.063588 -104.834375 
L 69.537438 -104.834375 
L 70.011287 -104.834375 
L 70.485137 -104.834375 
L 70.958987 -104.834375 
L 71.432837 -104.834375 
L 71.906687 -104.834375 
L 72.380537 -104.834375 
L 72.854387 -104.834375 
L 73.328237 -104.834375 
L 73.802087 -104.834375 
L 74.275937 -104.834375 
L 74.749787 -104.834375 
L 75.223637 -104.834375 
L 75.697487 -104.834375 
L 76.171336 -104.834375 
L 76.645186 -104.834375 
L 77.119036 -104.834375 
L 77.592886 -104.834375 
L 78.066736 -104.834375 
L 78.540586 -104.834375 
L 79.014436 -104.834375 
L 79.488286 -104.834375 
L 79.962136 -104.834375 
L 80.435986 -104.834375 
L 80.909836 -104.834375 
L 81.383686 -104.834375 
L 81.857536 -104.834375 
L 82.331386 -104.834375 
L 82.805235 -104.834375 
L 83.279085 -104.834375 
L 83.752935 -104.834375 
L 84.226785 -104.834375 
L 84.700635 -104.834375 
L 85.174485 -104.834375 
L 85.648335 -104.834375 
L 86.122185 -104.834375 
L 86.596035 -104.834375 
L 87.069885 -104.834375 
L 87.543735 -104.834375 
L 88.017585 -104.834375 
L 88.491435 -104.834375 
L 88.965285 -104.834375 
L 89.439134 -104.834375 
L 89.912984 -104.834375 
L 90.386834 -104.834375 
L 90.860684 -104.834375 
L 91.334534 -104.834375 
L 91.808384 -104.834375 
L 92.282234 -104.834375 
L 92.756084 -104.834375 
L 93.229934 -104.834375 
L 93.703784 -104.834375 
L 94.177634 -104.834375 
L 94.651484 -104.834375 
L 95.125334 -104.834375 
L 95.599183 -104.834375 
L 96.073033 -104.834375 
L 96.546883 -104.834375 
L 97.020733 -104.834375 
L 97.494583 -104.834375 
L 97.968433 -104.834375 
L 98.442283 -104.834375 
L 98.916133 -104.834375 
L 99.389983 -104.834375 
L 99.863833 -104.834375 
L 100.337683 -104.834375 
L 100.811533 -104.834375 
L 101.285383 -104.834375 
L 101.759233 -104.834375 
L 102.233082 -104.834375 
L 102.706932 -104.834375 
L 103.180782 -104.834375 
L 103.654632 -104.834375 
L 104.128482 -104.834375 
L 104.602332 -104.834375 
L 105.076182 -104.834375 
L 105.550032 -104.834375 
L 106.023882 -104.834375 
L 106.497732 -104.834375 
L 106.971582 -104.834375 
L 107.445432 -104.834375 
L 107.919282 -104.834375 
L 108.393131 -104.834375 
L 108.866981 -104.834375 
L 109.340831 -104.834375 
L 109.814681 -104.834375 
L 110.288531 -104.834375 
L 110.762381 -104.834375 
L 111.236231 -104.834375 
L 111.710081 -104.834375 
L 112.183931 -104.834375 
L 112.657781 -104.834375 
L 113.131631 -104.834375 
L 113.605481 -104.834375 
L 114.079331 -104.834375 
L 114.553181 -104.834375 
L 115.02703 -104.834375 
L 115.50088 -104.834375 
L 115.97473 -104.834375 
L 116.44858 -104.834375 
L 116.92243 -104.834375 
L 117.39628 -104.834375 
L 117.87013 -104.834375 
L 118.34398 -104.834375 
L 118.81783 -104.834375 
L 119.29168 -104.834375 
L 119.76553 -104.834375 
L 120.23938 -104.834375 
L 120.71323 -104.834375 
L 121.18708 -104.834375 
L 121.660929 -104.834375 
L 122.134779 -104.834375 
L 122.608629 -104.834375 
L 123.082479 -104.834375 
L 123.556329 -104.834375 
L 124.030179 -104.834375 
L 124.504029 -104.834375 
L 124.977879 -104.834375 
L 125.451729 -104.834375 
L 125.925579 -104.834375 
L 126.399429 -104.834375 
L 126.873279 -104.834375 
L 127.347129 -104.834375 
L 127.820978 -104.834375 
L 128.294828 -104.834375 
L 128.768678 -104.834375 
L 129.242528 -104.834375 
L 129.716378 -104.834375 
L 130.190228 -104.834375 
L 130.664078 -104.834375 
L 131.137928 -104.834375 
L 131.611778 -104.834375 
L 132.085628 -104.834375 
L 132.559478 -104.834375 
L 133.033328 -104.834375 
L 133.507178 -104.834375 
L 133.981028 -104.834375 
L 134.454877 -104.834375 
L 134.928727 -104.834375 
L 135.402577 -104.834375 
L 135.876427 -104.834375 
L 136.350277 -104.834375 
L 136.824127 -104.834375 
L 137.297977 -104.834375 
L 137.297977 -104.961721 
L 137.297977 -104.961721 
L 136.824127 -104.977441 
L 136.350277 -104.994396 
L 135.876427 -105.012599 
L 135.402577 -105.032052 
L 134.928727 -105.052749 
L 134.454877 -105.074673 
L 133.981028 -105.097799 
L 133.507178 -105.122093 
L 133.033328 -105.14751 
L 132.559478 -105.173998 
L 132.085628 -105.201498 
L 131.611778 -105.229943 
L 131.137928 -105.259262 
L 130.664078 -105.289385 
L 130.190228 -105.320238 
L 129.716378 -105.351755 
L 129.242528 -105.383877 
L 128.768678 -105.41656 
L 128.294828 -105.449776 
L 127.820978 -105.483522 
L 127.347129 -105.517823 
L 126.873279 -105.552738 
L 126.399429 -105.588364 
L 125.925579 -105.624841 
L 125.451729 -105.662355 
L 124.977879 -105.701137 
L 124.504029 -105.741467 
L 124.030179 -105.783669 
L 123.556329 -105.828113 
L 123.082479 -105.875205 
L 122.608629 -105.925383 
L 122.134779 -105.979111 
L 121.660929 -106.03687 
L 121.18708 -106.099147 
L 120.71323 -106.16643 
L 120.23938 -106.239193 
L 119.76553 -106.317893 
L 119.29168 -106.40296 
L 118.81783 -106.494789 
L 118.34398 -106.593736 
L 117.87013 -106.700114 
L 117.39628 -106.814191 
L 116.92243 -106.936185 
L 116.44858 -107.066265 
L 115.97473 -107.20455 
L 115.50088 -107.351105 
L 115.02703 -107.505944 
L 114.553181 -107.669022 
L 114.079331 -107.840236 
L 113.605481 -108.019415 
L 113.131631 -108.206313 
L 112.657781 -108.400605 
L 112.183931 -108.60187 
L 111.710081 -108.809586 
L 111.236231 -109.023118 
L 110.762381 -109.241706 
L 110.288531 -109.464461 
L 109.814681 -109.690354 
L 109.340831 -109.918221 
L 108.866981 -110.146758 
L 108.393131 -110.374533 
L 107.919282 -110.599994 
L 107.445432 -110.821493 
L 106.971582 -111.037303 
L 106.497732 -111.245649 
L 106.023882 -111.444744 
L 105.550032 -111.63282 
L 105.076182 -111.808175 
L 104.602332 -111.969205 
L 104.128482 -112.114455 
L 103.654632 -112.242651 
L 103.180782 -112.35274 
L 102.706932 -112.443922 
L 102.233082 -112.515676 
L 101.759233 -112.567781 
L 101.285383 -112.600326 
L 100.811533 -112.613716 
L 100.337683 -112.608667 
L 99.863833 -112.586189 
L 99.389983 -112.547569 
L 98.916133 -112.494337 
L 98.442283 -112.428228 
L 97.968433 -112.351145 
L 97.494583 -112.265106 
L 97.020733 -112.172194 
L 96.546883 -112.074512 
L 96.073033 -111.974121 
L 95.599183 -111.873 
L 95.125334 -111.772995 
L 94.651484 -111.675781 
L 94.177634 -111.582821 
L 93.703784 -111.495347 
L 93.229934 -111.414331 
L 92.756084 -111.340477 
L 92.282234 -111.274215 
L 91.808384 -111.215706 
L 91.334534 -111.164849 
L 90.860684 -111.121306 
L 90.386834 -111.084518 
L 89.912984 -111.053741 
L 89.439134 -111.028073 
L 88.965285 -111.006493 
L 88.491435 -110.987898 
L 88.017585 -110.971138 
L 87.543735 -110.955053 
L 87.069885 -110.938508 
L 86.596035 -110.920426 
L 86.122185 -110.899811 
L 85.648335 -110.875776 
L 85.174485 -110.847559 
L 84.700635 -110.814537 
L 84.226785 -110.776234 
L 83.752935 -110.732325 
L 83.279085 -110.682631 
L 82.805235 -110.627116 
L 82.331386 -110.565871 
L 81.857536 -110.499107 
L 81.383686 -110.427127 
L 80.909836 -110.350319 
L 80.435986 -110.269124 
L 79.962136 -110.184022 
L 79.488286 -110.095511 
L 79.014436 -110.004082 
L 78.540586 -109.910211 
L 78.066736 -109.814335 
L 77.592886 -109.716844 
L 77.119036 -109.618073 
L 76.645186 -109.518294 
L 76.171336 -109.417719 
L 75.697487 -109.316492 
L 75.223637 -109.214704 
L 74.749787 -109.112393 
L 74.275937 -109.009555 
L 73.802087 -108.906154 
L 73.328237 -108.802135 
L 72.854387 -108.697433 
L 72.380537 -108.591987 
L 71.906687 -108.485751 
L 71.432837 -108.378701 
L 70.958987 -108.270843 
L 70.485137 -108.162221 
L 70.011287 -108.052918 
L 69.537438 -107.94306 
L 69.063588 -107.832813 
L 68.589738 -107.722382 
L 68.115888 -107.612007 
L 67.642038 -107.501954 
L 67.168188 -107.392515 
L 66.694338 -107.283995 
L 66.220488 -107.176708 
L 65.746638 -107.070967 
L 65.272788 -106.96708 
L 64.798938 -106.865346 
L 64.325088 -106.766041 
L 63.851238 -106.669423 
L 63.377388 -106.575726 
L 62.903539 -106.485154 
L 62.429689 -106.397884 
L 61.955839 -106.314064 
L 61.481989 -106.233812 
L 61.008139 -106.157216 
L 60.534289 -106.084338 
L 60.060439 -106.015211 
L 59.586589 -105.949842 
L 59.112739 -105.888212 
L 58.638889 -105.830277 
L 58.165039 -105.77597 
L 57.691189 -105.725201 
L 57.217339 -105.677854 
L 56.74349 -105.633795 
L 56.26964 -105.592868 
L 55.79579 -105.554897 
L 55.32194 -105.519689 
L 54.84809 -105.487035 
L 54.37424 -105.456714 
L 53.90039 -105.428494 
L 53.42654 -105.40214 
L 52.95269 -105.377411 
L 52.47884 -105.35407 
L 52.00499 -105.331889 
L 51.53114 -105.310649 
L 51.05729 -105.290148 
L 50.58344 -105.270202 
L 50.109591 -105.250654 
L 49.635741 -105.231369 
L 49.161891 -105.212244 
L 48.688041 -105.193201 
L 48.214191 -105.174196 
L 47.740341 -105.155211 
L 47.266491 -105.136253 
L 46.792641 -105.117358 
L 46.318791 -105.098579 
L 45.844941 -105.079986 
L 45.371091 -105.061665 
L 44.897241 -105.043706 
L 44.423391 -105.026207 
L 43.949541 -105.009263 
L 43.475692 -104.992965 
L 43.001842 -104.977397 
z
" style="stroke: #21918c; stroke-width: 1.25"/>
    </defs>
    <g>
     <use xlink:href="#m0c3cdf8418" x="0" y="174.404375" style="fill: #21918c; fill-opacity: 0.7; stroke: #21918c; stroke-width: 1.25"/>
    </g>
   </g>
   <g id="line2d_3">
    <path d="M 7.2 69.57 
L 216.45 69.57 
" style="fill: none; stroke: #21918c; stroke-opacity: 0.9; stroke-linecap: round"/>
   </g>
   <g id="text_3">
    <!-- 2 -->
    <g style="fill: #21918c" transform="translate(7.2 68.652) scale(0.12 -0.12)">
     <defs>
      <path id="IBMPlexSans-Bold-32" d="M 3526 0 
L 365 0 
L 365 877 
L 1741 2054 
Q 1926 2214 2054 2345 
Q 2182 2477 2262 2601 
Q 2342 2726 2377 2848 
Q 2413 2970 2413 3110 
L 2413 3200 
Q 2413 3328 2361 3424 
Q 2310 3520 2227 3584 
Q 2144 3648 2038 3680 
Q 1933 3712 1824 3712 
Q 1664 3712 1545 3661 
Q 1427 3610 1340 3523 
Q 1254 3437 1196 3325 
Q 1139 3213 1107 3085 
L 269 3405 
Q 346 3635 480 3843 
Q 614 4051 816 4208 
Q 1018 4365 1293 4454 
Q 1568 4544 1914 4544 
Q 2278 4544 2560 4441 
Q 2842 4339 3037 4160 
Q 3232 3981 3334 3734 
Q 3437 3488 3437 3200 
Q 3437 2912 3341 2675 
Q 3245 2438 3081 2230 
Q 2918 2022 2700 1836 
Q 2483 1651 2246 1459 
L 1414 806 
L 3526 806 
L 3526 0 
z
" transform="scale(0.015625)"/>
     </defs>
     <use xlink:href="#IBMPlexSans-Bold-32"/>
    </g>
   </g>
  </g>
  <g id="axes_4">
   <g id="patch_5">
    <path d="M 7.2 79.965 
L 216.45 79.965 
L 216.45 38.385 
L 7.2 38.385 
L 7.2 79.965 
z
" style="fill: none"/>
   </g>
   <g id="matplotlib.axis_7">
    <g id="xtick_7"/>
    <g id="xtick_8"/>
   </g>
   <g id="matplotlib.axis_8"/>
   <g id="FillBetweenPolyCollection_3">
    <defs>
     <path id="ma068d0ffb1" d="M 29.74239 -94.542829 
L 29.74239 -94.439375 
L 30.458105 -94.439375 
L 31.17382 -94.439375 
L 31.889535 -94.439375 
L 32.605249 -94.439375 
L 33.320964 -94.439375 
L 34.036679 -94.439375 
L 34.752394 -94.439375 
L 35.468109 -94.439375 
L 36.183824 -94.439375 
L 36.899539 -94.439375 
L 37.615254 -94.439375 
L 38.330968 -94.439375 
L 39.046683 -94.439375 
L 39.762398 -94.439375 
L 40.478113 -94.439375 
L 41.193828 -94.439375 
L 41.909543 -94.439375 
L 42.625258 -94.439375 
L 43.340972 -94.439375 
L 44.056687 -94.439375 
L 44.772402 -94.439375 
L 45.488117 -94.439375 
L 46.203832 -94.439375 
L 46.919547 -94.439375 
L 47.635262 -94.439375 
L 48.350977 -94.439375 
L 49.066691 -94.439375 
L 49.782406 -94.439375 
L 50.498121 -94.439375 
L 51.213836 -94.439375 
L 51.929551 -94.439375 
L 52.645266 -94.439375 
L 53.360981 -94.439375 
L 54.076696 -94.439375 
L 54.79241 -94.439375 
L 55.508125 -94.439375 
L 56.22384 -94.439375 
L 56.939555 -94.439375 
L 57.65527 -94.439375 
L 58.370985 -94.439375 
L 59.0867 -94.439375 
L 59.802414 -94.439375 
L 60.518129 -94.439375 
L 61.233844 -94.439375 
L 61.949559 -94.439375 
L 62.665274 -94.439375 
L 63.380989 -94.439375 
L 64.096704 -94.439375 
L 64.812419 -94.439375 
L 65.528133 -94.439375 
L 66.243848 -94.439375 
L 66.959563 -94.439375 
L 67.675278 -94.439375 
L 68.390993 -94.439375 
L 69.106708 -94.439375 
L 69.822423 -94.439375 
L 70.538138 -94.439375 
L 71.253852 -94.439375 
L 71.969567 -94.439375 
L 72.685282 -94.439375 
L 73.400997 -94.439375 
L 74.116712 -94.439375 
L 74.832427 -94.439375 
L 75.548142 -94.439375 
L 76.263857 -94.439375 
L 76.979571 -94.439375 
L 77.695286 -94.439375 
L 78.411001 -94.439375 
L 79.126716 -94.439375 
L 79.842431 -94.439375 
L 80.558146 -94.439375 
L 81.273861 -94.439375 
L 81.989575 -94.439375 
L 82.70529 -94.439375 
L 83.421005 -94.439375 
L 84.13672 -94.439375 
L 84.852435 -94.439375 
L 85.56815 -94.439375 
L 86.283865 -94.439375 
L 86.99958 -94.439375 
L 87.715294 -94.439375 
L 88.431009 -94.439375 
L 89.146724 -94.439375 
L 89.862439 -94.439375 
L 90.578154 -94.439375 
L 91.293869 -94.439375 
L 92.009584 -94.439375 
L 92.725299 -94.439375 
L 93.441013 -94.439375 
L 94.156728 -94.439375 
L 94.872443 -94.439375 
L 95.588158 -94.439375 
L 96.303873 -94.439375 
L 97.019588 -94.439375 
L 97.735303 -94.439375 
L 98.451017 -94.439375 
L 99.166732 -94.439375 
L 99.882447 -94.439375 
L 100.598162 -94.439375 
L 101.313877 -94.439375 
L 102.029592 -94.439375 
L 102.745307 -94.439375 
L 103.461022 -94.439375 
L 104.176736 -94.439375 
L 104.892451 -94.439375 
L 105.608166 -94.439375 
L 106.323881 -94.439375 
L 107.039596 -94.439375 
L 107.755311 -94.439375 
L 108.471026 -94.439375 
L 109.186741 -94.439375 
L 109.902455 -94.439375 
L 110.61817 -94.439375 
L 111.333885 -94.439375 
L 112.0496 -94.439375 
L 112.765315 -94.439375 
L 113.48103 -94.439375 
L 114.196745 -94.439375 
L 114.912459 -94.439375 
L 115.628174 -94.439375 
L 116.343889 -94.439375 
L 117.059604 -94.439375 
L 117.775319 -94.439375 
L 118.491034 -94.439375 
L 119.206749 -94.439375 
L 119.922464 -94.439375 
L 120.638178 -94.439375 
L 121.353893 -94.439375 
L 122.069608 -94.439375 
L 122.785323 -94.439375 
L 123.501038 -94.439375 
L 124.216753 -94.439375 
L 124.932468 -94.439375 
L 125.648183 -94.439375 
L 126.363897 -94.439375 
L 127.079612 -94.439375 
L 127.795327 -94.439375 
L 128.511042 -94.439375 
L 129.226757 -94.439375 
L 129.942472 -94.439375 
L 130.658187 -94.439375 
L 131.373902 -94.439375 
L 132.089616 -94.439375 
L 132.805331 -94.439375 
L 133.521046 -94.439375 
L 134.236761 -94.439375 
L 134.952476 -94.439375 
L 135.668191 -94.439375 
L 136.383906 -94.439375 
L 137.09962 -94.439375 
L 137.815335 -94.439375 
L 138.53105 -94.439375 
L 139.246765 -94.439375 
L 139.96248 -94.439375 
L 140.678195 -94.439375 
L 141.39391 -94.439375 
L 142.109625 -94.439375 
L 142.825339 -94.439375 
L 143.541054 -94.439375 
L 144.256769 -94.439375 
L 144.972484 -94.439375 
L 145.688199 -94.439375 
L 146.403914 -94.439375 
L 147.119629 -94.439375 
L 147.835344 -94.439375 
L 148.551058 -94.439375 
L 149.266773 -94.439375 
L 149.982488 -94.439375 
L 150.698203 -94.439375 
L 151.413918 -94.439375 
L 152.129633 -94.439375 
L 152.845348 -94.439375 
L 153.561062 -94.439375 
L 154.276777 -94.439375 
L 154.992492 -94.439375 
L 155.708207 -94.439375 
L 156.423922 -94.439375 
L 157.139637 -94.439375 
L 157.855352 -94.439375 
L 158.571067 -94.439375 
L 159.286781 -94.439375 
L 160.002496 -94.439375 
L 160.718211 -94.439375 
L 161.433926 -94.439375 
L 162.149641 -94.439375 
L 162.865356 -94.439375 
L 163.581071 -94.439375 
L 164.296786 -94.439375 
L 165.0125 -94.439375 
L 165.728215 -94.439375 
L 166.44393 -94.439375 
L 167.159645 -94.439375 
L 167.87536 -94.439375 
L 168.591075 -94.439375 
L 169.30679 -94.439375 
L 170.022505 -94.439375 
L 170.738219 -94.439375 
L 171.453934 -94.439375 
L 172.169649 -94.439375 
L 172.169649 -94.52898 
L 172.169649 -94.52898 
L 171.453934 -94.540031 
L 170.738219 -94.551924 
L 170.022505 -94.564654 
L 169.30679 -94.578209 
L 168.591075 -94.592568 
L 167.87536 -94.6077 
L 167.159645 -94.623566 
L 166.44393 -94.640121 
L 165.728215 -94.657309 
L 165.0125 -94.67507 
L 164.296786 -94.69334 
L 163.581071 -94.71205 
L 162.865356 -94.731129 
L 162.149641 -94.750511 
L 161.433926 -94.77013 
L 160.718211 -94.789929 
L 160.002496 -94.809861 
L 159.286781 -94.829895 
L 158.571067 -94.850014 
L 157.855352 -94.870226 
L 157.139637 -94.890562 
L 156.423922 -94.911081 
L 155.708207 -94.931871 
L 154.992492 -94.953056 
L 154.276777 -94.974789 
L 153.561062 -94.997262 
L 152.845348 -95.020694 
L 152.129633 -95.045341 
L 151.413918 -95.071482 
L 150.698203 -95.099423 
L 149.982488 -95.129489 
L 149.266773 -95.162015 
L 148.551058 -95.197347 
L 147.835344 -95.235828 
L 147.119629 -95.277796 
L 146.403914 -95.323574 
L 145.688199 -95.373466 
L 144.972484 -95.427751 
L 144.256769 -95.486679 
L 143.541054 -95.550464 
L 142.825339 -95.619289 
L 142.109625 -95.693294 
L 141.39391 -95.772584 
L 140.678195 -95.857227 
L 139.96248 -95.947252 
L 139.246765 -96.042652 
L 138.53105 -96.143385 
L 137.815335 -96.249373 
L 137.09962 -96.360504 
L 136.383906 -96.476628 
L 135.668191 -96.597555 
L 134.952476 -96.723054 
L 134.236761 -96.852848 
L 133.521046 -96.986605 
L 132.805331 -97.123937 
L 132.089616 -97.264393 
L 131.373902 -97.407452 
L 130.658187 -97.55252 
L 129.942472 -97.698925 
L 129.226757 -97.845919 
L 128.511042 -97.992675 
L 127.795327 -98.138297 
L 127.079612 -98.281821 
L 126.363897 -98.422231 
L 125.648183 -98.558469 
L 124.932468 -98.689454 
L 124.216753 -98.814103 
L 123.501038 -98.93135 
L 122.785323 -99.040174 
L 122.069608 -99.139619 
L 121.353893 -99.228822 
L 120.638178 -99.307036 
L 119.922464 -99.373653 
L 119.206749 -99.428221 
L 118.491034 -99.470463 
L 117.775319 -99.500288 
L 117.059604 -99.517799 
L 116.343889 -99.523291 
L 115.628174 -99.517256 
L 114.912459 -99.500365 
L 114.196745 -99.47346 
L 113.48103 -99.437536 
L 112.765315 -99.393711 
L 112.0496 -99.343208 
L 111.333885 -99.287317 
L 110.61817 -99.22737 
L 109.902455 -99.164704 
L 109.186741 -99.10063 
L 108.471026 -99.036402 
L 107.755311 -98.973189 
L 107.039596 -98.912045 
L 106.323881 -98.853891 
L 105.608166 -98.799494 
L 104.892451 -98.749457 
L 104.176736 -98.704206 
L 103.461022 -98.663994 
L 102.745307 -98.628897 
L 102.029592 -98.598824 
L 101.313877 -98.573531 
L 100.598162 -98.552631 
L 99.882447 -98.535618 
L 99.166732 -98.521886 
L 98.451017 -98.510752 
L 97.735303 -98.501478 
L 97.019588 -98.4933 
L 96.303873 -98.485446 
L 95.588158 -98.477164 
L 94.872443 -98.467734 
L 94.156728 -98.456496 
L 93.441013 -98.442857 
L 92.725299 -98.426307 
L 92.009584 -98.406427 
L 91.293869 -98.382892 
L 90.578154 -98.355478 
L 89.862439 -98.324057 
L 89.146724 -98.288593 
L 88.431009 -98.249135 
L 87.715294 -98.205813 
L 86.99958 -98.158818 
L 86.283865 -98.108399 
L 85.56815 -98.054843 
L 84.852435 -97.998466 
L 84.13672 -97.939599 
L 83.421005 -97.878572 
L 82.70529 -97.81571 
L 81.989575 -97.751315 
L 81.273861 -97.685664 
L 80.558146 -97.618999 
L 79.842431 -97.551525 
L 79.126716 -97.48341 
L 78.411001 -97.414779 
L 77.695286 -97.345723 
L 76.979571 -97.2763 
L 76.263857 -97.206539 
L 75.548142 -97.136447 
L 74.832427 -97.066015 
L 74.116712 -96.995229 
L 73.400997 -96.92407 
L 72.685282 -96.852527 
L 71.969567 -96.780599 
L 71.253852 -96.7083 
L 70.538138 -96.635664 
L 69.822423 -96.562746 
L 69.106708 -96.489625 
L 68.390993 -96.416401 
L 67.675278 -96.343196 
L 66.959563 -96.270151 
L 66.243848 -96.197425 
L 65.528133 -96.125188 
L 64.812419 -96.053621 
L 64.096704 -95.982909 
L 63.380989 -95.913239 
L 62.665274 -95.844797 
L 61.949559 -95.777761 
L 61.233844 -95.712305 
L 60.518129 -95.648589 
L 59.802414 -95.586762 
L 59.0867 -95.526958 
L 58.370985 -95.469298 
L 57.65527 -95.413884 
L 56.939555 -95.360803 
L 56.22384 -95.310127 
L 55.508125 -95.261906 
L 54.79241 -95.216175 
L 54.076696 -95.172953 
L 53.360981 -95.132237 
L 52.645266 -95.094009 
L 51.929551 -95.058231 
L 51.213836 -95.024847 
L 50.498121 -94.993783 
L 49.782406 -94.964948 
L 49.066691 -94.938235 
L 48.350977 -94.913519 
L 47.635262 -94.890663 
L 46.919547 -94.869517 
L 46.203832 -94.849921 
L 45.488117 -94.83171 
L 44.772402 -94.814712 
L 44.056687 -94.798757 
L 43.340972 -94.783676 
L 42.625258 -94.769308 
L 41.909543 -94.755501 
L 41.193828 -94.742115 
L 40.478113 -94.729027 
L 39.762398 -94.716133 
L 39.046683 -94.703346 
L 38.330968 -94.690602 
L 37.615254 -94.677858 
L 36.899539 -94.665092 
L 36.183824 -94.652302 
L 35.468109 -94.639504 
L 34.752394 -94.62673 
L 34.036679 -94.614028 
L 33.320964 -94.601453 
L 32.605249 -94.58907 
L 31.889535 -94.576948 
L 31.17382 -94.565156 
L 30.458105 -94.553761 
L 29.74239 -94.542829 
z
" style="stroke: #44bf70; stroke-width: 1.25"/>
    </defs>
    <g>
     <use xlink:href="#ma068d0ffb1" x="0" y="174.404375" style="fill: #44bf70; fill-opacity: 0.7; stroke: #44bf70; stroke-width: 1.25"/>
    </g>
   </g>
   <g id="line2d_4">
    <path d="M 7.2 79.965 
L 216.45 79.965 
" style="fill: none; stroke: #44bf70; stroke-opacity: 0.9; stroke-linecap: round"/>
   </g>
   <g id="text_4">
    <!-- 3 -->
    <g style="fill: #44bf70" transform="translate(7.2 79.047) scale(0.12 -0.12)">
     <defs>
      <path id="IBMPlexSans-Bold-33" d="M 1677 2701 
Q 2035 2701 2198 2838 
Q 2362 2976 2362 3181 
L 2362 3226 
Q 2362 3469 2205 3616 
Q 2048 3763 1760 3763 
Q 1491 3763 1254 3625 
Q 1018 3488 851 3232 
L 250 3795 
Q 378 3962 525 4099 
Q 672 4237 857 4336 
Q 1043 4435 1273 4489 
Q 1504 4544 1792 4544 
Q 2150 4544 2441 4461 
Q 2733 4378 2941 4221 
Q 3149 4064 3261 3846 
Q 3373 3629 3373 3360 
Q 3373 3149 3305 2976 
Q 3238 2803 3120 2675 
Q 3002 2547 2848 2467 
Q 2694 2387 2522 2355 
L 2522 2317 
Q 2720 2278 2889 2192 
Q 3059 2106 3184 1971 
Q 3309 1837 3379 1654 
Q 3450 1472 3450 1242 
Q 3450 941 3328 697 
Q 3206 454 2982 281 
Q 2758 109 2444 16 
Q 2131 -77 1754 -77 
Q 1414 -77 1152 -6 
Q 890 64 694 182 
Q 499 301 355 454 
Q 211 608 102 781 
L 813 1331 
Q 960 1056 1174 880 
Q 1389 704 1754 704 
Q 2080 704 2262 867 
Q 2445 1030 2445 1312 
L 2445 1350 
Q 2445 1626 2237 1763 
Q 2029 1901 1664 1901 
L 1261 1901 
L 1261 2701 
L 1677 2701 
z
" transform="scale(0.015625)"/>
     </defs>
     <use xlink:href="#IBMPlexSans-Bold-33"/>
    </g>
   </g>
  </g>
  <g id="axes_5">
   <g id="patch_6">
    <path d="M 7.2 90.36 
L 216.45 90.36 
L 216.45 48.78 
L 7.2 48.78 
L 7.2 90.36 
z
" style="fill: none"/>
   </g>
   <g id="matplotlib.axis_9">
    <g id="xtick_9"/>
    <g id="xtick_10"/>
   </g>
   <g id="matplotlib.axis_10"/>
   <g id="FillBetweenPolyCollection_4">
    <defs>
     <path id="m42c40e667d" d="M 16.711364 -84.129476 
L 16.711364 -84.044375 
L 17.66728 -84.044375 
L 18.623196 -84.044375 
L 19.579111 -84.044375 
L 20.535027 -84.044375 
L 21.490943 -84.044375 
L 22.446859 -84.044375 
L 23.402775 -84.044375 
L 24.358691 -84.044375 
L 25.314607 -84.044375 
L 26.270523 -84.044375 
L 27.226439 -84.044375 
L 28.182355 -84.044375 
L 29.138271 -84.044375 
L 30.094187 -84.044375 
L 31.050103 -84.044375 
L 32.006019 -84.044375 
L 32.961935 -84.044375 
L 33.917851 -84.044375 
L 34.873767 -84.044375 
L 35.829683 -84.044375 
L 36.785598 -84.044375 
L 37.741514 -84.044375 
L 38.69743 -84.044375 
L 39.653346 -84.044375 
L 40.609262 -84.044375 
L 41.565178 -84.044375 
L 42.521094 -84.044375 
L 43.47701 -84.044375 
L 44.432926 -84.044375 
L 45.388842 -84.044375 
L 46.344758 -84.044375 
L 47.300674 -84.044375 
L 48.25659 -84.044375 
L 49.212506 -84.044375 
L 50.168422 -84.044375 
L 51.124338 -84.044375 
L 52.080254 -84.044375 
L 53.036169 -84.044375 
L 53.992085 -84.044375 
L 54.948001 -84.044375 
L 55.903917 -84.044375 
L 56.859833 -84.044375 
L 57.815749 -84.044375 
L 58.771665 -84.044375 
L 59.727581 -84.044375 
L 60.683497 -84.044375 
L 61.639413 -84.044375 
L 62.595329 -84.044375 
L 63.551245 -84.044375 
L 64.507161 -84.044375 
L 65.463077 -84.044375 
L 66.418993 -84.044375 
L 67.374909 -84.044375 
L 68.330825 -84.044375 
L 69.286741 -84.044375 
L 70.242656 -84.044375 
L 71.198572 -84.044375 
L 72.154488 -84.044375 
L 73.110404 -84.044375 
L 74.06632 -84.044375 
L 75.022236 -84.044375 
L 75.978152 -84.044375 
L 76.934068 -84.044375 
L 77.889984 -84.044375 
L 78.8459 -84.044375 
L 79.801816 -84.044375 
L 80.757732 -84.044375 
L 81.713648 -84.044375 
L 82.669564 -84.044375 
L 83.62548 -84.044375 
L 84.581396 -84.044375 
L 85.537312 -84.044375 
L 86.493228 -84.044375 
L 87.449143 -84.044375 
L 88.405059 -84.044375 
L 89.360975 -84.044375 
L 90.316891 -84.044375 
L 91.272807 -84.044375 
L 92.228723 -84.044375 
L 93.184639 -84.044375 
L 94.140555 -84.044375 
L 95.096471 -84.044375 
L 96.052387 -84.044375 
L 97.008303 -84.044375 
L 97.964219 -84.044375 
L 98.920135 -84.044375 
L 99.876051 -84.044375 
L 100.831967 -84.044375 
L 101.787883 -84.044375 
L 102.743799 -84.044375 
L 103.699714 -84.044375 
L 104.65563 -84.044375 
L 105.611546 -84.044375 
L 106.567462 -84.044375 
L 107.523378 -84.044375 
L 108.479294 -84.044375 
L 109.43521 -84.044375 
L 110.391126 -84.044375 
L 111.347042 -84.044375 
L 112.302958 -84.044375 
L 113.258874 -84.044375 
L 114.21479 -84.044375 
L 115.170706 -84.044375 
L 116.126622 -84.044375 
L 117.082538 -84.044375 
L 118.038454 -84.044375 
L 118.99437 -84.044375 
L 119.950286 -84.044375 
L 120.906201 -84.044375 
L 121.862117 -84.044375 
L 122.818033 -84.044375 
L 123.773949 -84.044375 
L 124.729865 -84.044375 
L 125.685781 -84.044375 
L 126.641697 -84.044375 
L 127.597613 -84.044375 
L 128.553529 -84.044375 
L 129.509445 -84.044375 
L 130.465361 -84.044375 
L 131.421277 -84.044375 
L 132.377193 -84.044375 
L 133.333109 -84.044375 
L 134.289025 -84.044375 
L 135.244941 -84.044375 
L 136.200857 -84.044375 
L 137.156772 -84.044375 
L 138.112688 -84.044375 
L 139.068604 -84.044375 
L 140.02452 -84.044375 
L 140.980436 -84.044375 
L 141.936352 -84.044375 
L 142.892268 -84.044375 
L 143.848184 -84.044375 
L 144.8041 -84.044375 
L 145.760016 -84.044375 
L 146.715932 -84.044375 
L 147.671848 -84.044375 
L 148.627764 -84.044375 
L 149.58368 -84.044375 
L 150.539596 -84.044375 
L 151.495512 -84.044375 
L 152.451428 -84.044375 
L 153.407344 -84.044375 
L 154.363259 -84.044375 
L 155.319175 -84.044375 
L 156.275091 -84.044375 
L 157.231007 -84.044375 
L 158.186923 -84.044375 
L 159.142839 -84.044375 
L 160.098755 -84.044375 
L 161.054671 -84.044375 
L 162.010587 -84.044375 
L 162.966503 -84.044375 
L 163.922419 -84.044375 
L 164.878335 -84.044375 
L 165.834251 -84.044375 
L 166.790167 -84.044375 
L 167.746083 -84.044375 
L 168.701999 -84.044375 
L 169.657915 -84.044375 
L 170.613831 -84.044375 
L 171.569746 -84.044375 
L 172.525662 -84.044375 
L 173.481578 -84.044375 
L 174.437494 -84.044375 
L 175.39341 -84.044375 
L 176.349326 -84.044375 
L 177.305242 -84.044375 
L 178.261158 -84.044375 
L 179.217074 -84.044375 
L 180.17299 -84.044375 
L 181.128906 -84.044375 
L 182.084822 -84.044375 
L 183.040738 -84.044375 
L 183.996654 -84.044375 
L 184.95257 -84.044375 
L 185.908486 -84.044375 
L 186.864402 -84.044375 
L 187.820317 -84.044375 
L 188.776233 -84.044375 
L 189.732149 -84.044375 
L 190.688065 -84.044375 
L 191.643981 -84.044375 
L 192.599897 -84.044375 
L 193.555813 -84.044375 
L 194.511729 -84.044375 
L 195.467645 -84.044375 
L 196.423561 -84.044375 
L 197.379477 -84.044375 
L 198.335393 -84.044375 
L 199.291309 -84.044375 
L 200.247225 -84.044375 
L 201.203141 -84.044375 
L 202.159057 -84.044375 
L 203.114973 -84.044375 
L 204.070889 -84.044375 
L 205.026804 -84.044375 
L 205.98272 -84.044375 
L 206.938636 -84.044375 
L 206.938636 -84.116724 
L 206.938636 -84.116724 
L 205.98272 -84.125597 
L 205.026804 -84.135121 
L 204.070889 -84.145281 
L 203.114973 -84.15606 
L 202.159057 -84.167427 
L 201.203141 -84.179347 
L 200.247225 -84.191776 
L 199.291309 -84.204663 
L 198.335393 -84.217952 
L 197.379477 -84.231584 
L 196.423561 -84.245494 
L 195.467645 -84.259619 
L 194.511729 -84.273895 
L 193.555813 -84.288264 
L 192.599897 -84.302673 
L 191.643981 -84.317076 
L 190.688065 -84.331441 
L 189.732149 -84.34575 
L 188.776233 -84.360001 
L 187.820317 -84.374213 
L 186.864402 -84.388426 
L 185.908486 -84.402702 
L 184.95257 -84.417131 
L 183.996654 -84.431827 
L 183.040738 -84.446929 
L 182.084822 -84.462603 
L 181.128906 -84.479037 
L 180.17299 -84.496442 
L 179.217074 -84.515047 
L 178.261158 -84.535096 
L 177.305242 -84.556844 
L 176.349326 -84.580551 
L 175.39341 -84.606479 
L 174.437494 -84.634888 
L 173.481578 -84.666025 
L 172.525662 -84.700126 
L 171.569746 -84.737408 
L 170.613831 -84.778064 
L 169.657915 -84.822265 
L 168.701999 -84.870152 
L 167.746083 -84.921837 
L 166.790167 -84.977403 
L 165.834251 -85.036902 
L 164.878335 -85.100357 
L 163.922419 -85.167762 
L 162.966503 -85.239085 
L 162.010587 -85.314268 
L 161.054671 -85.393224 
L 160.098755 -85.475846 
L 159.142839 -85.562 
L 158.186923 -85.651524 
L 157.231007 -85.744232 
L 156.275091 -85.839905 
L 155.319175 -85.938293 
L 154.363259 -86.039107 
L 153.407344 -86.142019 
L 152.451428 -86.246657 
L 151.495512 -86.3526 
L 150.539596 -86.459379 
L 149.58368 -86.566471 
L 148.627764 -86.673305 
L 147.671848 -86.77926 
L 146.715932 -86.88367 
L 145.760016 -86.985833 
L 144.8041 -87.085017 
L 143.848184 -87.180471 
L 142.892268 -87.27144 
L 141.936352 -87.357178 
L 140.980436 -87.436965 
L 140.02452 -87.510124 
L 139.068604 -87.576039 
L 138.112688 -87.634167 
L 137.156772 -87.684062 
L 136.200857 -87.725381 
L 135.244941 -87.757902 
L 134.289025 -87.781532 
L 133.333109 -87.796311 
L 132.377193 -87.802417 
L 131.421277 -87.800164 
L 130.465361 -87.789999 
L 129.509445 -87.772491 
L 128.553529 -87.748319 
L 127.597613 -87.718259 
L 126.641697 -87.683165 
L 125.685781 -87.643946 
L 124.729865 -87.60155 
L 123.773949 -87.556933 
L 122.818033 -87.511044 
L 121.862117 -87.464797 
L 120.906201 -87.419052 
L 119.950286 -87.374596 
L 118.99437 -87.332123 
L 118.038454 -87.292226 
L 117.082538 -87.255379 
L 116.126622 -87.221934 
L 115.170706 -87.192119 
L 114.21479 -87.166033 
L 113.258874 -87.143654 
L 112.302958 -87.124844 
L 111.347042 -87.109358 
L 110.391126 -87.096858 
L 109.43521 -87.086929 
L 108.479294 -87.079088 
L 107.523378 -87.07281 
L 106.567462 -87.067537 
L 105.611546 -87.062701 
L 104.65563 -87.057737 
L 103.699714 -87.052101 
L 102.743799 -87.045281 
L 101.787883 -87.036812 
L 100.831967 -87.026284 
L 99.876051 -87.013353 
L 98.920135 -86.99774 
L 97.964219 -86.979241 
L 97.008303 -86.957724 
L 96.052387 -86.933129 
L 95.096471 -86.905461 
L 94.140555 -86.874791 
L 93.184639 -86.84124 
L 92.228723 -86.804978 
L 91.272807 -86.766212 
L 90.316891 -86.725175 
L 89.360975 -86.682119 
L 88.405059 -86.637303 
L 87.449143 -86.590983 
L 86.493228 -86.543405 
L 85.537312 -86.494802 
L 84.581396 -86.445378 
L 83.62548 -86.395315 
L 82.669564 -86.344763 
L 81.713648 -86.29384 
L 80.757732 -86.242636 
L 79.801816 -86.191211 
L 78.8459 -86.1396 
L 77.889984 -86.087815 
L 76.934068 -86.035852 
L 75.978152 -85.983697 
L 75.022236 -85.931327 
L 74.06632 -85.87872 
L 73.110404 -85.825856 
L 72.154488 -85.772725 
L 71.198572 -85.719328 
L 70.242656 -85.665679 
L 69.286741 -85.611811 
L 68.330825 -85.557774 
L 67.374909 -85.503633 
L 66.418993 -85.449473 
L 65.463077 -85.395391 
L 64.507161 -85.3415 
L 63.551245 -85.287924 
L 62.595329 -85.234794 
L 61.639413 -85.182247 
L 60.683497 -85.130425 
L 59.727581 -85.079468 
L 58.771665 -85.029514 
L 57.815749 -84.9807 
L 56.859833 -84.933153 
L 55.903917 -84.886993 
L 54.948001 -84.842333 
L 53.992085 -84.799273 
L 53.036169 -84.757902 
L 52.080254 -84.718297 
L 51.124338 -84.68052 
L 50.168422 -84.64462 
L 49.212506 -84.610634 
L 48.25659 -84.578578 
L 47.300674 -84.548459 
L 46.344758 -84.520264 
L 45.388842 -84.493964 
L 44.432926 -84.469518 
L 43.47701 -84.446864 
L 42.521094 -84.42593 
L 41.565178 -84.406626 
L 40.609262 -84.388851 
L 39.653346 -84.372492 
L 38.69743 -84.357426 
L 37.741514 -84.343524 
L 36.785598 -84.330649 
L 35.829683 -84.318666 
L 34.873767 -84.307435 
L 33.917851 -84.296824 
L 32.961935 -84.286705 
L 32.006019 -84.276959 
L 31.050103 -84.267478 
L 30.094187 -84.258167 
L 29.138271 -84.248947 
L 28.182355 -84.239754 
L 27.226439 -84.230543 
L 26.270523 -84.221284 
L 25.314607 -84.211963 
L 24.358691 -84.202584 
L 23.402775 -84.193163 
L 22.446859 -84.183729 
L 21.490943 -84.174323 
L 20.535027 -84.16499 
L 19.579111 -84.155784 
L 18.623196 -84.146759 
L 17.66728 -84.137972 
L 16.711364 -84.129476 
z
" style="stroke: #bddf26; stroke-width: 1.25"/>
    </defs>
    <g>
     <use xlink:href="#m42c40e667d" x="0" y="174.404375" style="fill: #bddf26; fill-opacity: 0.7; stroke: #bddf26; stroke-width: 1.25"/>
    </g>
   </g>
   <g id="line2d_5">
    <path d="M 7.2 90.36 
L 216.45 90.36 
" style="fill: none; stroke: #bddf26; stroke-opacity: 0.9; stroke-linecap: round"/>
   </g>
   <g id="text_5">
    <!-- 4 -->
    <g style="fill: #bddf26" transform="translate(7.2 89.442) scale(0.12 -0.12)">
     <defs>
      <path id="IBMPlexSans-Bold-34" d="M 2157 0 
L 2157 858 
L 192 858 
L 192 1677 
L 1933 4467 
L 3072 4467 
L 3072 1600 
L 3635 1600 
L 3635 858 
L 3072 858 
L 3072 0 
L 2157 0 
z
M 960 1600 
L 2157 1600 
L 2157 3475 
L 2093 3475 
L 960 1600 
z
" transform="scale(0.015625)"/>
     </defs>
     <use xlink:href="#IBMPlexSans-Bold-34"/>
    </g>
   </g>
  </g>
  <g id="axes_6">
   <g id="patch_7">
    <path d="M 7.2 100.755 
L 216.45 100.755 
L 216.45 59.175 
L 7.2 59.175 
L 7.2 100.755 
z
" style="fill: none"/>
   </g>
   <g id="matplotlib.axis_11">
    <g id="xtick_11"/>
    <g id="xtick_12"/>
   </g>
   <g id="matplotlib.axis_12"/>
   <g id="FillBetweenPolyCollection_5">
    <defs>
     <path id="m06732b6b51" d="M 29.345197 -73.747795 
L 29.345197 -73.649375 
L 30.064436 -73.649375 
L 30.783676 -73.649375 
L 31.502916 -73.649375 
L 32.222155 -73.649375 
L 32.941395 -73.649375 
L 33.660635 -73.649375 
L 34.379874 -73.649375 
L 35.099114 -73.649375 
L 35.818354 -73.649375 
L 36.537593 -73.649375 
L 37.256833 -73.649375 
L 37.976073 -73.649375 
L 38.695312 -73.649375 
L 39.414552 -73.649375 
L 40.133791 -73.649375 
L 40.853031 -73.649375 
L 41.572271 -73.649375 
L 42.29151 -73.649375 
L 43.01075 -73.649375 
L 43.72999 -73.649375 
L 44.449229 -73.649375 
L 45.168469 -73.649375 
L 45.887709 -73.649375 
L 46.606948 -73.649375 
L 47.326188 -73.649375 
L 48.045428 -73.649375 
L 48.764667 -73.649375 
L 49.483907 -73.649375 
L 50.203147 -73.649375 
L 50.922386 -73.649375 
L 51.641626 -73.649375 
L 52.360865 -73.649375 
L 53.080105 -73.649375 
L 53.799345 -73.649375 
L 54.518584 -73.649375 
L 55.237824 -73.649375 
L 55.957064 -73.649375 
L 56.676303 -73.649375 
L 57.395543 -73.649375 
L 58.114783 -73.649375 
L 58.834022 -73.649375 
L 59.553262 -73.649375 
L 60.272502 -73.649375 
L 60.991741 -73.649375 
L 61.710981 -73.649375 
L 62.430221 -73.649375 
L 63.14946 -73.649375 
L 63.8687 -73.649375 
L 64.587939 -73.649375 
L 65.307179 -73.649375 
L 66.026419 -73.649375 
L 66.745658 -73.649375 
L 67.464898 -73.649375 
L 68.184138 -73.649375 
L 68.903377 -73.649375 
L 69.622617 -73.649375 
L 70.341857 -73.649375 
L 71.061096 -73.649375 
L 71.780336 -73.649375 
L 72.499576 -73.649375 
L 73.218815 -73.649375 
L 73.938055 -73.649375 
L 74.657294 -73.649375 
L 75.376534 -73.649375 
L 76.095774 -73.649375 
L 76.815013 -73.649375 
L 77.534253 -73.649375 
L 78.253493 -73.649375 
L 78.972732 -73.649375 
L 79.691972 -73.649375 
L 80.411212 -73.649375 
L 81.130451 -73.649375 
L 81.849691 -73.649375 
L 82.568931 -73.649375 
L 83.28817 -73.649375 
L 84.00741 -73.649375 
L 84.72665 -73.649375 
L 85.445889 -73.649375 
L 86.165129 -73.649375 
L 86.884368 -73.649375 
L 87.603608 -73.649375 
L 88.322848 -73.649375 
L 89.042087 -73.649375 
L 89.761327 -73.649375 
L 90.480567 -73.649375 
L 91.199806 -73.649375 
L 91.919046 -73.649375 
L 92.638286 -73.649375 
L 93.357525 -73.649375 
L 94.076765 -73.649375 
L 94.796005 -73.649375 
L 95.515244 -73.649375 
L 96.234484 -73.649375 
L 96.953724 -73.649375 
L 97.672963 -73.649375 
L 98.392203 -73.649375 
L 99.111442 -73.649375 
L 99.830682 -73.649375 
L 100.549922 -73.649375 
L 101.269161 -73.649375 
L 101.988401 -73.649375 
L 102.707641 -73.649375 
L 103.42688 -73.649375 
L 104.14612 -73.649375 
L 104.86536 -73.649375 
L 105.584599 -73.649375 
L 106.303839 -73.649375 
L 107.023079 -73.649375 
L 107.742318 -73.649375 
L 108.461558 -73.649375 
L 109.180797 -73.649375 
L 109.900037 -73.649375 
L 110.619277 -73.649375 
L 111.338516 -73.649375 
L 112.057756 -73.649375 
L 112.776996 -73.649375 
L 113.496235 -73.649375 
L 114.215475 -73.649375 
L 114.934715 -73.649375 
L 115.653954 -73.649375 
L 116.373194 -73.649375 
L 117.092434 -73.649375 
L 117.811673 -73.649375 
L 118.530913 -73.649375 
L 119.250153 -73.649375 
L 119.969392 -73.649375 
L 120.688632 -73.649375 
L 121.407871 -73.649375 
L 122.127111 -73.649375 
L 122.846351 -73.649375 
L 123.56559 -73.649375 
L 124.28483 -73.649375 
L 125.00407 -73.649375 
L 125.723309 -73.649375 
L 126.442549 -73.649375 
L 127.161789 -73.649375 
L 127.881028 -73.649375 
L 128.600268 -73.649375 
L 129.319508 -73.649375 
L 130.038747 -73.649375 
L 130.757987 -73.649375 
L 131.477227 -73.649375 
L 132.196466 -73.649375 
L 132.915706 -73.649375 
L 133.634945 -73.649375 
L 134.354185 -73.649375 
L 135.073425 -73.649375 
L 135.792664 -73.649375 
L 136.511904 -73.649375 
L 137.231144 -73.649375 
L 137.950383 -73.649375 
L 138.669623 -73.649375 
L 139.388863 -73.649375 
L 140.108102 -73.649375 
L 140.827342 -73.649375 
L 141.546582 -73.649375 
L 142.265821 -73.649375 
L 142.985061 -73.649375 
L 143.7043 -73.649375 
L 144.42354 -73.649375 
L 145.14278 -73.649375 
L 145.862019 -73.649375 
L 146.581259 -73.649375 
L 147.300499 -73.649375 
L 148.019738 -73.649375 
L 148.738978 -73.649375 
L 149.458218 -73.649375 
L 150.177457 -73.649375 
L 150.896697 -73.649375 
L 151.615937 -73.649375 
L 152.335176 -73.649375 
L 153.054416 -73.649375 
L 153.773656 -73.649375 
L 154.492895 -73.649375 
L 155.212135 -73.649375 
L 155.931374 -73.649375 
L 156.650614 -73.649375 
L 157.369854 -73.649375 
L 158.089093 -73.649375 
L 158.808333 -73.649375 
L 159.527573 -73.649375 
L 160.246812 -73.649375 
L 160.966052 -73.649375 
L 161.685292 -73.649375 
L 162.404531 -73.649375 
L 163.123771 -73.649375 
L 163.843011 -73.649375 
L 164.56225 -73.649375 
L 165.28149 -73.649375 
L 166.00073 -73.649375 
L 166.719969 -73.649375 
L 167.439209 -73.649375 
L 168.158448 -73.649375 
L 168.877688 -73.649375 
L 169.596928 -73.649375 
L 170.316167 -73.649375 
L 171.035407 -73.649375 
L 171.754647 -73.649375 
L 172.473886 -73.649375 
L 172.473886 -73.737628 
L 172.473886 -73.737628 
L 171.754647 -73.74848 
L 171.035407 -73.760149 
L 170.316167 -73.772631 
L 169.596928 -73.785912 
L 168.877688 -73.799969 
L 168.158448 -73.814772 
L 167.439209 -73.830282 
L 166.719969 -73.846455 
L 166.00073 -73.863236 
L 165.28149 -73.880567 
L 164.56225 -73.898387 
L 163.843011 -73.916631 
L 163.123771 -73.935232 
L 162.404531 -73.954126 
L 161.685292 -73.973256 
L 160.966052 -73.992568 
L 160.246812 -74.012023 
L 159.527573 -74.031593 
L 158.808333 -74.051269 
L 158.089093 -74.071063 
L 157.369854 -74.091011 
L 156.650614 -74.111177 
L 155.931374 -74.131652 
L 155.212135 -74.152562 
L 154.492895 -74.174063 
L 153.773656 -74.196344 
L 153.054416 -74.219627 
L 152.335176 -74.24416 
L 151.615937 -74.270223 
L 150.896697 -74.298114 
L 150.177457 -74.328152 
L 149.458218 -74.360667 
L 148.738978 -74.395997 
L 148.019738 -74.434478 
L 147.300499 -74.476441 
L 146.581259 -74.522202 
L 145.862019 -74.572062 
L 145.14278 -74.626297 
L 144.42354 -74.685153 
L 143.7043 -74.748849 
L 142.985061 -74.817568 
L 142.265821 -74.891459 
L 141.546582 -74.970636 
L 140.827342 -75.055176 
L 140.108102 -75.145123 
L 139.388863 -75.240487 
L 138.669623 -75.341242 
L 137.950383 -75.447327 
L 137.231144 -75.558648 
L 136.511904 -75.675072 
L 135.792664 -75.796425 
L 135.073425 -75.922488 
L 134.354185 -76.052992 
L 133.634945 -76.187612 
L 132.915706 -76.325962 
L 132.196466 -76.467584 
L 131.477227 -76.611948 
L 130.757987 -76.758445 
L 130.038747 -76.906382 
L 129.319508 -77.054985 
L 128.600268 -77.203397 
L 127.881028 -77.350684 
L 127.161789 -77.495846 
L 126.442549 -77.637824 
L 125.723309 -77.775518 
L 125.00407 -77.907804 
L 124.28483 -78.033557 
L 123.56559 -78.151671 
L 122.846351 -78.261089 
L 122.127111 -78.360822 
L 121.407871 -78.449982 
L 120.688632 -78.527801 
L 119.969392 -78.593659 
L 119.250153 -78.6471 
L 118.530913 -78.687849 
L 117.811673 -78.715829 
L 117.092434 -78.73116 
L 116.373194 -78.734169 
L 115.653954 -78.72538 
L 114.934715 -78.705507 
L 114.215475 -78.675442 
L 113.496235 -78.636229 
L 112.776996 -78.589045 
L 112.057756 -78.535167 
L 111.338516 -78.475946 
L 110.619277 -78.412771 
L 109.900037 -78.347033 
L 109.180797 -78.280098 
L 108.461558 -78.213266 
L 107.742318 -78.147749 
L 107.023079 -78.084635 
L 106.303839 -78.024876 
L 105.584599 -77.969258 
L 104.86536 -77.918396 
L 104.14612 -77.872723 
L 103.42688 -77.832486 
L 102.707641 -77.797751 
L 101.988401 -77.768409 
L 101.269161 -77.744188 
L 100.549922 -77.724673 
L 99.830682 -77.70932 
L 99.111442 -77.697484 
L 98.392203 -77.68844 
L 97.672963 -77.681408 
L 96.953724 -77.67558 
L 96.234484 -77.670142 
L 95.515244 -77.664301 
L 94.796005 -77.657303 
L 94.076765 -77.648453 
L 93.357525 -77.637131 
L 92.638286 -77.622802 
L 91.919046 -77.605028 
L 91.199806 -77.583472 
L 90.480567 -77.557897 
L 89.761327 -77.528171 
L 89.042087 -77.494253 
L 88.322848 -77.456193 
L 87.603608 -77.414119 
L 86.884368 -77.368227 
L 86.165129 -77.318765 
L 85.445889 -77.266022 
L 84.72665 -77.210315 
L 84.00741 -77.151973 
L 83.28817 -77.091325 
L 82.568931 -77.028692 
L 81.849691 -76.964373 
L 81.130451 -76.89864 
L 80.411212 -76.831732 
L 79.691972 -76.763851 
L 78.972732 -76.695164 
L 78.253493 -76.625797 
L 77.534253 -76.555846 
L 76.815013 -76.485374 
L 76.095774 -76.414421 
L 75.376534 -76.343009 
L 74.657294 -76.271148 
L 73.938055 -76.198843 
L 73.218815 -76.1261 
L 72.499576 -76.052934 
L 71.780336 -75.979372 
L 71.061096 -75.905455 
L 70.341857 -75.831247 
L 69.622617 -75.756831 
L 68.903377 -75.682308 
L 68.184138 -75.607804 
L 67.464898 -75.53346 
L 66.745658 -75.459434 
L 66.026419 -75.385895 
L 65.307179 -75.313022 
L 64.587939 -75.241 
L 63.8687 -75.170014 
L 63.14946 -75.100247 
L 62.430221 -75.031877 
L 61.710981 -74.965074 
L 60.991741 -74.899997 
L 60.272502 -74.836792 
L 59.553262 -74.775594 
L 58.834022 -74.716519 
L 58.114783 -74.659671 
L 57.395543 -74.605137 
L 56.676303 -74.552987 
L 55.957064 -74.503275 
L 55.237824 -74.456039 
L 54.518584 -74.411299 
L 53.799345 -74.369059 
L 53.080105 -74.329307 
L 52.360865 -74.292012 
L 51.641626 -74.257126 
L 50.922386 -74.224585 
L 50.203147 -74.194307 
L 49.483907 -74.166195 
L 48.764667 -74.140134 
L 48.045428 -74.115998 
L 47.326188 -74.093644 
L 46.606948 -74.072923 
L 45.887709 -74.053674 
L 45.168469 -74.035733 
L 44.449229 -74.018932 
L 43.72999 -74.003106 
L 43.01075 -73.988092 
L 42.29151 -73.973736 
L 41.572271 -73.959894 
L 40.853031 -73.946438 
L 40.133791 -73.933253 
L 39.414552 -73.920246 
L 38.695312 -73.90734 
L 37.976073 -73.894483 
L 37.256833 -73.881639 
L 36.537593 -73.868795 
L 35.818354 -73.855957 
L 35.099114 -73.843146 
L 34.379874 -73.830398 
L 33.660635 -73.817763 
L 32.941395 -73.805299 
L 32.222155 -73.793068 
L 31.502916 -73.781137 
L 30.783676 -73.769574 
L 30.064436 -73.75844 
L 29.345197 -73.747795 
z
" style="stroke: #7ad151; stroke-width: 1.25"/>
    </defs>
    <g>
     <use xlink:href="#m06732b6b51" x="0" y="174.404375" style="fill: #7ad151; fill-opacity: 0.7; stroke: #7ad151; stroke-width: 1.25"/>
    </g>
   </g>
   <g id="line2d_6">
    <path d="M 7.2 100.755 
L 216.45 100.755 
" style="fill: none; stroke: #7ad151; stroke-opacity: 0.9; stroke-linecap: round"/>
   </g>
   <g id="text_6">
    <!-- 5 -->
    <g style="fill: #7ad151" transform="translate(7.2 99.837) scale(0.12 -0.12)">
     <defs>
      <path id="IBMPlexSans-Bold-35" d="M 3341 3629 
L 1312 3629 
L 1216 2214 
L 1267 2214 
Q 1331 2374 1411 2505 
Q 1491 2637 1600 2729 
Q 1709 2822 1862 2873 
Q 2016 2925 2227 2925 
Q 2515 2925 2764 2829 
Q 3014 2733 3200 2550 
Q 3386 2368 3494 2102 
Q 3603 1837 3603 1504 
Q 3603 1165 3491 873 
Q 3379 582 3158 371 
Q 2938 160 2618 41 
Q 2298 -77 1888 -77 
Q 1562 -77 1312 -6 
Q 1062 64 870 182 
Q 678 301 537 454 
Q 397 608 294 781 
L 992 1331 
Q 1139 1069 1344 886 
Q 1549 704 1894 704 
Q 2240 704 2416 902 
Q 2592 1101 2592 1427 
L 2592 1478 
Q 2592 1786 2413 1965 
Q 2234 2144 1920 2144 
Q 1658 2144 1488 2038 
Q 1318 1933 1229 1830 
L 442 1939 
L 608 4467 
L 3341 4467 
L 3341 3629 
z
" transform="scale(0.015625)"/>
     </defs>
     <use xlink:href="#IBMPlexSans-Bold-35"/>
    </g>
   </g>
  </g>
  <g id="axes_7">
   <g id="patch_8">
    <path d="M 7.2 111.15 
L 216.45 111.15 
L 216.45 69.57 
L 7.2 69.57 
L 7.2 111.15 
z
" style="fill: none"/>
   </g>
   <g id="matplotlib.axis_13">
    <g id="xtick_13"/>
    <g id="xtick_14"/>
   </g>
   <g id="matplotlib.axis_14"/>
   <g id="FillBetweenPolyCollection_6">
    <defs>
     <path id="mac5018553e" d="M 41.742666 -63.365225 
L 41.742666 -63.254375 
L 42.22968 -63.254375 
L 42.716694 -63.254375 
L 43.203708 -63.254375 
L 43.690722 -63.254375 
L 44.177736 -63.254375 
L 44.66475 -63.254375 
L 45.151764 -63.254375 
L 45.638778 -63.254375 
L 46.125792 -63.254375 
L 46.612806 -63.254375 
L 47.09982 -63.254375 
L 47.586834 -63.254375 
L 48.073848 -63.254375 
L 48.560862 -63.254375 
L 49.047876 -63.254375 
L 49.53489 -63.254375 
L 50.021904 -63.254375 
L 50.508918 -63.254375 
L 50.995932 -63.254375 
L 51.482946 -63.254375 
L 51.96996 -63.254375 
L 52.456974 -63.254375 
L 52.943988 -63.254375 
L 53.431002 -63.254375 
L 53.918016 -63.254375 
L 54.40503 -63.254375 
L 54.892044 -63.254375 
L 55.379058 -63.254375 
L 55.866072 -63.254375 
L 56.353086 -63.254375 
L 56.8401 -63.254375 
L 57.327114 -63.254375 
L 57.814128 -63.254375 
L 58.301142 -63.254375 
L 58.788156 -63.254375 
L 59.27517 -63.254375 
L 59.762184 -63.254375 
L 60.249198 -63.254375 
L 60.736212 -63.254375 
L 61.223226 -63.254375 
L 61.71024 -63.254375 
L 62.197254 -63.254375 
L 62.684268 -63.254375 
L 63.171282 -63.254375 
L 63.658296 -63.254375 
L 64.14531 -63.254375 
L 64.632324 -63.254375 
L 65.119338 -63.254375 
L 65.606352 -63.254375 
L 66.093366 -63.254375 
L 66.58038 -63.254375 
L 67.067394 -63.254375 
L 67.554408 -63.254375 
L 68.041422 -63.254375 
L 68.528436 -63.254375 
L 69.01545 -63.254375 
L 69.502464 -63.254375 
L 69.989478 -63.254375 
L 70.476492 -63.254375 
L 70.963506 -63.254375 
L 71.45052 -63.254375 
L 71.937534 -63.254375 
L 72.424548 -63.254375 
L 72.911562 -63.254375 
L 73.398576 -63.254375 
L 73.88559 -63.254375 
L 74.372604 -63.254375 
L 74.859618 -63.254375 
L 75.346632 -63.254375 
L 75.833646 -63.254375 
L 76.32066 -63.254375 
L 76.807674 -63.254375 
L 77.294688 -63.254375 
L 77.781702 -63.254375 
L 78.268716 -63.254375 
L 78.75573 -63.254375 
L 79.242744 -63.254375 
L 79.729758 -63.254375 
L 80.216772 -63.254375 
L 80.703786 -63.254375 
L 81.1908 -63.254375 
L 81.677814 -63.254375 
L 82.164828 -63.254375 
L 82.651842 -63.254375 
L 83.138856 -63.254375 
L 83.62587 -63.254375 
L 84.112884 -63.254375 
L 84.599898 -63.254375 
L 85.086912 -63.254375 
L 85.573926 -63.254375 
L 86.06094 -63.254375 
L 86.547954 -63.254375 
L 87.034968 -63.254375 
L 87.521982 -63.254375 
L 88.008996 -63.254375 
L 88.49601 -63.254375 
L 88.983024 -63.254375 
L 89.470038 -63.254375 
L 89.957052 -63.254375 
L 90.444066 -63.254375 
L 90.93108 -63.254375 
L 91.418094 -63.254375 
L 91.905108 -63.254375 
L 92.392122 -63.254375 
L 92.879136 -63.254375 
L 93.36615 -63.254375 
L 93.853164 -63.254375 
L 94.340178 -63.254375 
L 94.827192 -63.254375 
L 95.314206 -63.254375 
L 95.80122 -63.254375 
L 96.288234 -63.254375 
L 96.775248 -63.254375 
L 97.262262 -63.254375 
L 97.749276 -63.254375 
L 98.23629 -63.254375 
L 98.723304 -63.254375 
L 99.210318 -63.254375 
L 99.697332 -63.254375 
L 100.184346 -63.254375 
L 100.67136 -63.254375 
L 101.158374 -63.254375 
L 101.645388 -63.254375 
L 102.132402 -63.254375 
L 102.619416 -63.254375 
L 103.10643 -63.254375 
L 103.593444 -63.254375 
L 104.080458 -63.254375 
L 104.567472 -63.254375 
L 105.054486 -63.254375 
L 105.5415 -63.254375 
L 106.028514 -63.254375 
L 106.515528 -63.254375 
L 107.002542 -63.254375 
L 107.489556 -63.254375 
L 107.976569 -63.254375 
L 108.463583 -63.254375 
L 108.950597 -63.254375 
L 109.437611 -63.254375 
L 109.924625 -63.254375 
L 110.411639 -63.254375 
L 110.898653 -63.254375 
L 111.385667 -63.254375 
L 111.872681 -63.254375 
L 112.359695 -63.254375 
L 112.846709 -63.254375 
L 113.333723 -63.254375 
L 113.820737 -63.254375 
L 114.307751 -63.254375 
L 114.794765 -63.254375 
L 115.281779 -63.254375 
L 115.768793 -63.254375 
L 116.255807 -63.254375 
L 116.742821 -63.254375 
L 117.229835 -63.254375 
L 117.716849 -63.254375 
L 118.203863 -63.254375 
L 118.690877 -63.254375 
L 119.177891 -63.254375 
L 119.664905 -63.254375 
L 120.151919 -63.254375 
L 120.638933 -63.254375 
L 121.125947 -63.254375 
L 121.612961 -63.254375 
L 122.099975 -63.254375 
L 122.586989 -63.254375 
L 123.074003 -63.254375 
L 123.561017 -63.254375 
L 124.048031 -63.254375 
L 124.535045 -63.254375 
L 125.022059 -63.254375 
L 125.509073 -63.254375 
L 125.996087 -63.254375 
L 126.483101 -63.254375 
L 126.970115 -63.254375 
L 127.457129 -63.254375 
L 127.944143 -63.254375 
L 128.431157 -63.254375 
L 128.918171 -63.254375 
L 129.405185 -63.254375 
L 129.892199 -63.254375 
L 130.379213 -63.254375 
L 130.866227 -63.254375 
L 131.353241 -63.254375 
L 131.840255 -63.254375 
L 132.327269 -63.254375 
L 132.814283 -63.254375 
L 133.301297 -63.254375 
L 133.788311 -63.254375 
L 134.275325 -63.254375 
L 134.762339 -63.254375 
L 135.249353 -63.254375 
L 135.736367 -63.254375 
L 136.223381 -63.254375 
L 136.710395 -63.254375 
L 137.197409 -63.254375 
L 137.684423 -63.254375 
L 138.171437 -63.254375 
L 138.658451 -63.254375 
L 138.658451 -63.368962 
L 138.658451 -63.368962 
L 138.171437 -63.382682 
L 137.684423 -63.397391 
L 137.197409 -63.413091 
L 136.710395 -63.429777 
L 136.223381 -63.447445 
L 135.736367 -63.466083 
L 135.249353 -63.485681 
L 134.762339 -63.506225 
L 134.275325 -63.527702 
L 133.788311 -63.550097 
L 133.301297 -63.573395 
L 132.814283 -63.597584 
L 132.327269 -63.622651 
L 131.840255 -63.648585 
L 131.353241 -63.675376 
L 130.866227 -63.703021 
L 130.379213 -63.731519 
L 129.892199 -63.760874 
L 129.405185 -63.791101 
L 128.918171 -63.822223 
L 128.431157 -63.854277 
L 127.944143 -63.887316 
L 127.457129 -63.92141 
L 126.970115 -63.956652 
L 126.483101 -63.993157 
L 125.996087 -64.03107 
L 125.509073 -64.070561 
L 125.022059 -64.111832 
L 124.535045 -64.155115 
L 124.048031 -64.200674 
L 123.561017 -64.248804 
L 123.074003 -64.299828 
L 122.586989 -64.354099 
L 122.099975 -64.411996 
L 121.612961 -64.47392 
L 121.125947 -64.540293 
L 120.638933 -64.611555 
L 120.151919 -64.688156 
L 119.664905 -64.770559 
L 119.177891 -64.85923 
L 118.690877 -64.954635 
L 118.203863 -65.057234 
L 117.716849 -65.167475 
L 117.229835 -65.285785 
L 116.742821 -65.412563 
L 116.255807 -65.54817 
L 115.768793 -65.692914 
L 115.281779 -65.847043 
L 114.794765 -66.010725 
L 114.307751 -66.184037 
L 113.820737 -66.366949 
L 113.333723 -66.559304 
L 112.846709 -66.760809 
L 112.359695 -66.971016 
L 111.872681 -67.189311 
L 111.385667 -67.414905 
L 110.898653 -67.646824 
L 110.411639 -67.883912 
L 109.924625 -68.124828 
L 109.437611 -68.368057 
L 108.950597 -68.61192 
L 108.463583 -68.854595 
L 107.976569 -69.09414 
L 107.489556 -69.328522 
L 107.002542 -69.555654 
L 106.515528 -69.773429 
L 106.028514 -69.979769 
L 105.5415 -70.172662 
L 105.054486 -70.350212 
L 104.567472 -70.510683 
L 104.080458 -70.652543 
L 103.593444 -70.774502 
L 103.10643 -70.875552 
L 102.619416 -70.954993 
L 102.132402 -71.012458 
L 101.645388 -71.047931 
L 101.158374 -71.061749 
L 100.67136 -71.054605 
L 100.184346 -71.027533 
L 99.697332 -70.981889 
L 99.210318 -70.919322 
L 98.723304 -70.841735 
L 98.23629 -70.751244 
L 97.749276 -70.650125 
L 97.262262 -70.540759 
L 96.775248 -70.425577 
L 96.288234 -70.307001 
L 95.80122 -70.187385 
L 95.314206 -70.068959 
L 94.827192 -69.953782 
L 94.340178 -69.843692 
L 93.853164 -69.740268 
L 93.36615 -69.644803 
L 92.879136 -69.558278 
L 92.392122 -69.481354 
L 91.905108 -69.414367 
L 91.418094 -69.357335 
L 90.93108 -69.309975 
L 90.444066 -69.27173 
L 89.957052 -69.241795 
L 89.470038 -69.219161 
L 88.983024 -69.202653 
L 88.49601 -69.190977 
L 88.008996 -69.182767 
L 87.521982 -69.176628 
L 87.034968 -69.171186 
L 86.547954 -69.165122 
L 86.06094 -69.157209 
L 85.573926 -69.146349 
L 85.086912 -69.131584 
L 84.599898 -69.112125 
L 84.112884 -69.087352 
L 83.62587 -69.05682 
L 83.138856 -69.020252 
L 82.651842 -68.977533 
L 82.164828 -68.928688 
L 81.677814 -68.873869 
L 81.1908 -68.813327 
L 80.703786 -68.74739 
L 80.216772 -68.676443 
L 79.729758 -68.600897 
L 79.242744 -68.521173 
L 78.75573 -68.437684 
L 78.268716 -68.350813 
L 77.781702 -68.260908 
L 77.294688 -68.168269 
L 76.807674 -68.073148 
L 76.32066 -67.975748 
L 75.833646 -67.876222 
L 75.346632 -67.774686 
L 74.859618 -67.67122 
L 74.372604 -67.565884 
L 73.88559 -67.458724 
L 73.398576 -67.349787 
L 72.911562 -67.239128 
L 72.424548 -67.126818 
L 71.937534 -67.012957 
L 71.45052 -66.897675 
L 70.963506 -66.78114 
L 70.476492 -66.663556 
L 69.989478 -66.545163 
L 69.502464 -66.426238 
L 69.01545 -66.307087 
L 68.528436 -66.188043 
L 68.041422 -66.069455 
L 67.554408 -65.951685 
L 67.067394 -65.835099 
L 66.58038 -65.720058 
L 66.093366 -65.606913 
L 65.606352 -65.495997 
L 65.119338 -65.387622 
L 64.632324 -65.282069 
L 64.14531 -65.179591 
L 63.658296 -65.080407 
L 63.171282 -64.984701 
L 62.684268 -64.892621 
L 62.197254 -64.804282 
L 61.71024 -64.719764 
L 61.223226 -64.639117 
L 60.736212 -64.562357 
L 60.249198 -64.489476 
L 59.762184 -64.420437 
L 59.27517 -64.355183 
L 58.788156 -64.293633 
L 58.301142 -64.235688 
L 57.814128 -64.18123 
L 57.327114 -64.130128 
L 56.8401 -64.082236 
L 56.353086 -64.037397 
L 55.866072 -63.995445 
L 55.379058 -63.956203 
L 54.892044 -63.919492 
L 54.40503 -63.885124 
L 53.918016 -63.852913 
L 53.431002 -63.82267 
L 52.943988 -63.794209 
L 52.456974 -63.767349 
L 51.96996 -63.741913 
L 51.482946 -63.717733 
L 50.995932 -63.694654 
L 50.508918 -63.672529 
L 50.021904 -63.651229 
L 49.53489 -63.630638 
L 49.047876 -63.610655 
L 48.560862 -63.591201 
L 48.073848 -63.572209 
L 47.586834 -63.553635 
L 47.09982 -63.535447 
L 46.612806 -63.517633 
L 46.125792 -63.500195 
L 45.638778 -63.483146 
L 45.151764 -63.466515 
L 44.66475 -63.450334 
L 44.177736 -63.434647 
L 43.690722 -63.419499 
L 43.203708 -63.404938 
L 42.716694 -63.39101 
L 42.22968 -63.377759 
L 41.742666 -63.365225 
z
" style="stroke: #22a884; stroke-width: 1.25"/>
    </defs>
    <g>
     <use xlink:href="#mac5018553e" x="0" y="174.404375" style="fill: #22a884; fill-opacity: 0.7; stroke: #22a884; stroke-width: 1.25"/>
    </g>
   </g>
   <g id="line2d_7">
    <path d="M 7.2 111.15 
L 216.45 111.15 
" style="fill: none; stroke: #22a884; stroke-opacity: 0.9; stroke-linecap: round"/>
   </g>
   <g id="text_7">
    <!-- 6 -->
    <g style="fill: #22a884" transform="translate(7.2 110.232) scale(0.12 -0.12)">
     <defs>
      <path id="IBMPlexSans-Bold-36" d="M 1946 -77 
Q 1549 -77 1235 48 
Q 922 173 707 406 
Q 493 640 381 966 
Q 269 1293 269 1696 
Q 269 2163 413 2582 
Q 557 3002 784 3357 
Q 1011 3712 1296 3993 
Q 1581 4275 1869 4467 
L 3194 4467 
Q 2784 4173 2457 3907 
Q 2131 3642 1891 3373 
Q 1651 3104 1494 2825 
Q 1338 2547 1274 2227 
L 1331 2208 
Q 1389 2336 1469 2457 
Q 1549 2579 1667 2672 
Q 1786 2765 1946 2822 
Q 2106 2880 2317 2880 
Q 2592 2880 2832 2781 
Q 3072 2682 3248 2502 
Q 3424 2323 3523 2064 
Q 3622 1805 3622 1491 
Q 3622 1146 3504 858 
Q 3386 570 3165 362 
Q 2944 154 2637 38 
Q 2330 -77 1946 -77 
z
M 1946 672 
Q 2266 672 2445 848 
Q 2624 1024 2624 1350 
L 2624 1466 
Q 2624 1792 2445 1968 
Q 2266 2144 1946 2144 
Q 1626 2144 1446 1968 
Q 1267 1792 1267 1466 
L 1267 1350 
Q 1267 1024 1446 848 
Q 1626 672 1946 672 
z
" transform="scale(0.015625)"/>
     </defs>
     <use xlink:href="#IBMPlexSans-Bold-36"/>
    </g>
   </g>
  </g>
  <g id="axes_8">
   <g id="patch_9">
    <path d="M 7.2 121.545 
L 216.45 121.545 
L 216.45 79.965 
L 7.2 79.965 
L 7.2 121.545 
z
" style="fill: none"/>
   </g>
   <g id="matplotlib.axis_15">
    <g id="xtick_15"/>
    <g id="xtick_16"/>
   </g>
   <g id="matplotlib.axis_16"/>
   <g id="FillBetweenPolyCollection_7">
    <defs>
     <path id="m7361205d31" d="M 53.444759 -53.020425 
L 53.444759 -52.859375 
L 53.707475 -52.859375 
L 53.970191 -52.859375 
L 54.232907 -52.859375 
L 54.495622 -52.859375 
L 54.758338 -52.859375 
L 55.021054 -52.859375 
L 55.28377 -52.859375 
L 55.546486 -52.859375 
L 55.809201 -52.859375 
L 56.071917 -52.859375 
L 56.334633 -52.859375 
L 56.597349 -52.859375 
L 56.860065 -52.859375 
L 57.12278 -52.859375 
L 57.385496 -52.859375 
L 57.648212 -52.859375 
L 57.910928 -52.859375 
L 58.173644 -52.859375 
L 58.436359 -52.859375 
L 58.699075 -52.859375 
L 58.961791 -52.859375 
L 59.224507 -52.859375 
L 59.487223 -52.859375 
L 59.749939 -52.859375 
L 60.012654 -52.859375 
L 60.27537 -52.859375 
L 60.538086 -52.859375 
L 60.800802 -52.859375 
L 61.063518 -52.859375 
L 61.326233 -52.859375 
L 61.588949 -52.859375 
L 61.851665 -52.859375 
L 62.114381 -52.859375 
L 62.377097 -52.859375 
L 62.639812 -52.859375 
L 62.902528 -52.859375 
L 63.165244 -52.859375 
L 63.42796 -52.859375 
L 63.690676 -52.859375 
L 63.953392 -52.859375 
L 64.216107 -52.859375 
L 64.478823 -52.859375 
L 64.741539 -52.859375 
L 65.004255 -52.859375 
L 65.266971 -52.859375 
L 65.529686 -52.859375 
L 65.792402 -52.859375 
L 66.055118 -52.859375 
L 66.317834 -52.859375 
L 66.58055 -52.859375 
L 66.843265 -52.859375 
L 67.105981 -52.859375 
L 67.368697 -52.859375 
L 67.631413 -52.859375 
L 67.894129 -52.859375 
L 68.156845 -52.859375 
L 68.41956 -52.859375 
L 68.682276 -52.859375 
L 68.944992 -52.859375 
L 69.207708 -52.859375 
L 69.470424 -52.859375 
L 69.733139 -52.859375 
L 69.995855 -52.859375 
L 70.258571 -52.859375 
L 70.521287 -52.859375 
L 70.784003 -52.859375 
L 71.046718 -52.859375 
L 71.309434 -52.859375 
L 71.57215 -52.859375 
L 71.834866 -52.859375 
L 72.097582 -52.859375 
L 72.360297 -52.859375 
L 72.623013 -52.859375 
L 72.885729 -52.859375 
L 73.148445 -52.859375 
L 73.411161 -52.859375 
L 73.673877 -52.859375 
L 73.936592 -52.859375 
L 74.199308 -52.859375 
L 74.462024 -52.859375 
L 74.72474 -52.859375 
L 74.987456 -52.859375 
L 75.250171 -52.859375 
L 75.512887 -52.859375 
L 75.775603 -52.859375 
L 76.038319 -52.859375 
L 76.301035 -52.859375 
L 76.56375 -52.859375 
L 76.826466 -52.859375 
L 77.089182 -52.859375 
L 77.351898 -52.859375 
L 77.614614 -52.859375 
L 77.87733 -52.859375 
L 78.140045 -52.859375 
L 78.402761 -52.859375 
L 78.665477 -52.859375 
L 78.928193 -52.859375 
L 79.190909 -52.859375 
L 79.453624 -52.859375 
L 79.71634 -52.859375 
L 79.979056 -52.859375 
L 80.241772 -52.859375 
L 80.504488 -52.859375 
L 80.767203 -52.859375 
L 81.029919 -52.859375 
L 81.292635 -52.859375 
L 81.555351 -52.859375 
L 81.818067 -52.859375 
L 82.080783 -52.859375 
L 82.343498 -52.859375 
L 82.606214 -52.859375 
L 82.86893 -52.859375 
L 83.131646 -52.859375 
L 83.394362 -52.859375 
L 83.657077 -52.859375 
L 83.919793 -52.859375 
L 84.182509 -52.859375 
L 84.445225 -52.859375 
L 84.707941 -52.859375 
L 84.970656 -52.859375 
L 85.233372 -52.859375 
L 85.496088 -52.859375 
L 85.758804 -52.859375 
L 86.02152 -52.859375 
L 86.284236 -52.859375 
L 86.546951 -52.859375 
L 86.809667 -52.859375 
L 87.072383 -52.859375 
L 87.335099 -52.859375 
L 87.597815 -52.859375 
L 87.86053 -52.859375 
L 88.123246 -52.859375 
L 88.385962 -52.859375 
L 88.648678 -52.859375 
L 88.911394 -52.859375 
L 89.174109 -52.859375 
L 89.436825 -52.859375 
L 89.699541 -52.859375 
L 89.962257 -52.859375 
L 90.224973 -52.859375 
L 90.487688 -52.859375 
L 90.750404 -52.859375 
L 91.01312 -52.859375 
L 91.275836 -52.859375 
L 91.538552 -52.859375 
L 91.801268 -52.859375 
L 92.063983 -52.859375 
L 92.326699 -52.859375 
L 92.589415 -52.859375 
L 92.852131 -52.859375 
L 93.114847 -52.859375 
L 93.377562 -52.859375 
L 93.640278 -52.859375 
L 93.902994 -52.859375 
L 94.16571 -52.859375 
L 94.428426 -52.859375 
L 94.691141 -52.859375 
L 94.953857 -52.859375 
L 95.216573 -52.859375 
L 95.479289 -52.859375 
L 95.742005 -52.859375 
L 96.004721 -52.859375 
L 96.267436 -52.859375 
L 96.530152 -52.859375 
L 96.792868 -52.859375 
L 97.055584 -52.859375 
L 97.3183 -52.859375 
L 97.581015 -52.859375 
L 97.843731 -52.859375 
L 98.106447 -52.859375 
L 98.369163 -52.859375 
L 98.631879 -52.859375 
L 98.894594 -52.859375 
L 99.15731 -52.859375 
L 99.420026 -52.859375 
L 99.682742 -52.859375 
L 99.945458 -52.859375 
L 100.208174 -52.859375 
L 100.470889 -52.859375 
L 100.733605 -52.859375 
L 100.996321 -52.859375 
L 101.259037 -52.859375 
L 101.521753 -52.859375 
L 101.784468 -52.859375 
L 102.047184 -52.859375 
L 102.3099 -52.859375 
L 102.572616 -52.859375 
L 102.835332 -52.859375 
L 103.098047 -52.859375 
L 103.360763 -52.859375 
L 103.623479 -52.859375 
L 103.886195 -52.859375 
L 104.148911 -52.859375 
L 104.411626 -52.859375 
L 104.674342 -52.859375 
L 104.937058 -52.859375 
L 105.199774 -52.859375 
L 105.46249 -52.859375 
L 105.725206 -52.859375 
L 105.725206 -53.046174 
L 105.725206 -53.046174 
L 105.46249 -53.067605 
L 105.199774 -53.090391 
L 104.937058 -53.11455 
L 104.674342 -53.140119 
L 104.411626 -53.167161 
L 104.148911 -53.195768 
L 103.886195 -53.226065 
L 103.623479 -53.258215 
L 103.360763 -53.292415 
L 103.098047 -53.328896 
L 102.835332 -53.367919 
L 102.572616 -53.409764 
L 102.3099 -53.454722 
L 102.047184 -53.503078 
L 101.784468 -53.555103 
L 101.521753 -53.611033 
L 101.259037 -53.671054 
L 100.996321 -53.735287 
L 100.733605 -53.803776 
L 100.470889 -53.876474 
L 100.208174 -53.953243 
L 99.945458 -54.033844 
L 99.682742 -54.11795 
L 99.420026 -54.20515 
L 99.15731 -54.294973 
L 98.894594 -54.386903 
L 98.631879 -54.480419 
L 98.369163 -54.575021 
L 98.106447 -54.670275 
L 97.843731 -54.765847 
L 97.581015 -54.861553 
L 97.3183 -54.957389 
L 97.055584 -55.053574 
L 96.792868 -55.150571 
L 96.530152 -55.249114 
L 96.267436 -55.350215 
L 96.004721 -55.455159 
L 95.742005 -55.565495 
L 95.479289 -55.683004 
L 95.216573 -55.809661 
L 94.953857 -55.947581 
L 94.691141 -56.098958 
L 94.428426 -56.265996 
L 94.16571 -56.450836 
L 93.902994 -56.655479 
L 93.640278 -56.881713 
L 93.377562 -57.131048 
L 93.114847 -57.404651 
L 92.852131 -57.703303 
L 92.589415 -58.027359 
L 92.326699 -58.376726 
L 92.063983 -58.750857 
L 91.801268 -59.148753 
L 91.538552 -59.568982 
L 91.275836 -60.009705 
L 91.01312 -60.46871 
L 90.750404 -60.943453 
L 90.487688 -61.431096 
L 90.224973 -61.92855 
L 89.962257 -62.432514 
L 89.699541 -62.939505 
L 89.436825 -63.445895 
L 89.174109 -63.947934 
L 88.911394 -64.441777 
L 88.648678 -64.923505 
L 88.385962 -65.389153 
L 88.123246 -65.83474 
L 87.86053 -66.256306 
L 87.597815 -66.649957 
L 87.335099 -67.011925 
L 87.072383 -67.338631 
L 86.809667 -67.626767 
L 86.546951 -67.873381 
L 86.284236 -68.075969 
L 86.02152 -68.232572 
L 85.758804 -68.341863 
L 85.496088 -68.403232 
L 85.233372 -68.416854 
L 84.970656 -68.383733 
L 84.707941 -68.305728 
L 84.445225 -68.185544 
L 84.182509 -68.026699 
L 83.919793 -67.83345 
L 83.657077 -67.610696 
L 83.394362 -67.363846 
L 83.131646 -67.098671 
L 82.86893 -66.821131 
L 82.606214 -66.537196 
L 82.343498 -66.252662 
L 82.080783 -65.972974 
L 81.818067 -65.703064 
L 81.555351 -65.447209 
L 81.292635 -65.208918 
L 81.029919 -64.990848 
L 80.767203 -64.794765 
L 80.504488 -64.621531 
L 80.241772 -64.471138 
L 79.979056 -64.342766 
L 79.71634 -64.234884 
L 79.453624 -64.145359 
L 79.190909 -64.071598 
L 78.928193 -64.010692 
L 78.665477 -63.959563 
L 78.402761 -63.915109 
L 78.140045 -63.874338 
L 77.87733 -63.834482 
L 77.614614 -63.793092 
L 77.351898 -63.748105 
L 77.089182 -63.69789 
L 76.826466 -63.64126 
L 76.56375 -63.577463 
L 76.301035 -63.506149 
L 76.038319 -63.427316 
L 75.775603 -63.341248 
L 75.512887 -63.24843 
L 75.250171 -63.149473 
L 74.987456 -63.045034 
L 74.72474 -62.935736 
L 74.462024 -62.82211 
L 74.199308 -62.704542 
L 73.936592 -62.583234 
L 73.673877 -62.458192 
L 73.411161 -62.32922 
L 73.148445 -62.195937 
L 72.885729 -62.057805 
L 72.623013 -61.914171 
L 72.360297 -61.764312 
L 72.097582 -61.607495 
L 71.834866 -61.443025 
L 71.57215 -61.270299 
L 71.309434 -61.088854 
L 71.046718 -60.898403 
L 70.784003 -60.698865 
L 70.521287 -60.490377 
L 70.258571 -60.273303 
L 69.995855 -60.048226 
L 69.733139 -59.815928 
L 69.470424 -59.577368 
L 69.207708 -59.333645 
L 68.944992 -59.08596 
L 68.682276 -58.835577 
L 68.41956 -58.583781 
L 68.156845 -58.331841 
L 67.894129 -58.080972 
L 67.631413 -57.832306 
L 67.368697 -57.586869 
L 67.105981 -57.345565 
L 66.843265 -57.109165 
L 66.58055 -56.878305 
L 66.317834 -56.653491 
L 66.055118 -56.435105 
L 65.792402 -56.223421 
L 65.529686 -56.018622 
L 65.266971 -55.820817 
L 65.004255 -55.630064 
L 64.741539 -55.446383 
L 64.478823 -55.26978 
L 64.216107 -55.100256 
L 63.953392 -54.937825 
L 63.690676 -54.782517 
L 63.42796 -54.634384 
L 63.165244 -54.493503 
L 62.902528 -54.359972 
L 62.639812 -54.233901 
L 62.377097 -54.115408 
L 62.114381 -54.004607 
L 61.851665 -53.901592 
L 61.588949 -53.806431 
L 61.326233 -53.71915 
L 61.063518 -53.639722 
L 60.800802 -53.56806 
L 60.538086 -53.504007 
L 60.27537 -53.447331 
L 60.012654 -53.397726 
L 59.749939 -53.354812 
L 59.487223 -53.318139 
L 59.224507 -53.287193 
L 58.961791 -53.26141 
L 58.699075 -53.240182 
L 58.436359 -53.222876 
L 58.173644 -53.208847 
L 57.910928 -53.197452 
L 57.648212 -53.188067 
L 57.385496 -53.1801 
L 57.12278 -53.173008 
L 56.860065 -53.166302 
L 56.597349 -53.159561 
L 56.334633 -53.152437 
L 56.071917 -53.144657 
L 55.809201 -53.136029 
L 55.546486 -53.126432 
L 55.28377 -53.11582 
L 55.021054 -53.104211 
L 54.758338 -53.091678 
L 54.495622 -53.078342 
L 54.232907 -53.06436 
L 53.970191 -53.049914 
L 53.707475 -53.035202 
L 53.444759 -53.020425 
z
" style="stroke: #355f8d; stroke-width: 1.25"/>
    </defs>
    <g>
     <use xlink:href="#m7361205d31" x="0" y="174.404375" style="fill: #355f8d; fill-opacity: 0.7; stroke: #355f8d; stroke-width: 1.25"/>
    </g>
   </g>
   <g id="line2d_8">
    <path d="M 7.2 121.545 
L 216.45 121.545 
" style="fill: none; stroke: #355f8d; stroke-opacity: 0.9; stroke-linecap: round"/>
   </g>
   <g id="text_8">
    <!-- 7 -->
    <g style="fill: #355f8d" transform="translate(7.2 120.627) scale(0.12 -0.12)">
     <defs>
      <path id="IBMPlexSans-Bold-37" d="M 1062 0 
L 2560 3686 
L 1165 3686 
L 1165 2874 
L 352 2874 
L 352 4467 
L 3514 4467 
L 3514 3635 
L 2074 0 
L 1062 0 
z
" transform="scale(0.015625)"/>
     </defs>
     <use xlink:href="#IBMPlexSans-Bold-37"/>
    </g>
   </g>
  </g>
  <g id="axes_9">
   <g id="patch_10">
    <path d="M 7.2 131.94 
L 216.45 131.94 
L 216.45 90.36 
L 7.2 90.36 
L 7.2 131.94 
z
" style="fill: none"/>
   </g>
   <g id="matplotlib.axis_17">
    <g id="xtick_17">
     <g id="text_9">
      <!-- 0 -->
      <g style="fill: #838383" transform="translate(66.990465 149.58) scale(0.11 -0.11)">
       <defs>
        <path id="IBMPlexSans-Regular-30" d="M 1920 -77 
Q 1120 -77 752 531 
Q 384 1139 384 2234 
Q 384 3328 752 3936 
Q 1120 4544 1920 4544 
Q 2720 4544 3088 3936 
Q 3456 3328 3456 2234 
Q 3456 1139 3088 531 
Q 2720 -77 1920 -77 
z
M 1920 390 
Q 2182 390 2368 499 
Q 2554 608 2669 806 
Q 2784 1005 2838 1273 
Q 2893 1542 2893 1869 
L 2893 2598 
Q 2893 2925 2838 3193 
Q 2784 3462 2669 3660 
Q 2554 3859 2368 3968 
Q 2182 4077 1920 4077 
Q 1658 4077 1472 3968 
Q 1286 3859 1171 3660 
Q 1056 3462 1001 3193 
Q 947 2925 947 2598 
L 947 1869 
Q 947 1542 1001 1273 
Q 1056 1005 1171 806 
Q 1286 608 1472 499 
Q 1658 390 1920 390 
z
" transform="scale(0.015625)"/>
       </defs>
       <use xlink:href="#IBMPlexSans-Regular-30"/>
      </g>
     </g>
    </g>
    <g id="xtick_18">
     <g id="text_10">
      <!-- 5 -->
      <g style="fill: #838383" transform="translate(142.610804 149.58) scale(0.11 -0.11)">
       <defs>
        <path id="IBMPlexSans-Regular-35" d="M 3187 3994 
L 1229 3994 
L 1101 2291 
L 1146 2291 
Q 1306 2515 1507 2649 
Q 1709 2784 2061 2784 
Q 2349 2784 2592 2688 
Q 2835 2592 3014 2416 
Q 3194 2240 3293 1984 
Q 3392 1728 3392 1402 
Q 3392 1075 3289 803 
Q 3187 531 2992 336 
Q 2797 141 2518 32 
Q 2240 -77 1888 -77 
Q 1606 -77 1392 -13 
Q 1178 51 1011 160 
Q 845 269 720 403 
Q 595 538 493 685 
L 896 992 
Q 979 858 1072 749 
Q 1165 640 1277 563 
Q 1389 486 1536 444 
Q 1683 403 1888 403 
Q 2349 403 2585 646 
Q 2822 890 2822 1331 
L 2822 1395 
Q 2822 1837 2585 2080 
Q 2349 2323 1888 2323 
Q 1581 2323 1405 2211 
Q 1229 2099 1088 1946 
L 634 2010 
L 794 4467 
L 3187 4467 
L 3187 3994 
z
" transform="scale(0.015625)"/>
       </defs>
       <use xlink:href="#IBMPlexSans-Regular-35"/>
      </g>
     </g>
    </g>
    <g id="text_11">
     <!-- logdet -->
     <g style="fill: #262626" transform="translate(94.785 164.66) scale(0.12 -0.12)">
      <defs>
       <path id="IBMPlexSans-Regular-6c" d="M 1088 0 
Q 819 0 681 150 
Q 544 301 544 531 
L 544 4736 
L 1056 4736 
L 1056 448 
L 1542 448 
L 1542 0 
L 1088 0 
z
" transform="scale(0.015625)"/>
       <path id="IBMPlexSans-Regular-6f" d="M 1792 -77 
Q 1459 -77 1184 44 
Q 909 166 713 393 
Q 518 621 409 937 
Q 301 1254 301 1651 
Q 301 2042 409 2362 
Q 518 2682 713 2909 
Q 909 3136 1184 3257 
Q 1459 3379 1792 3379 
Q 2125 3379 2397 3257 
Q 2669 3136 2867 2909 
Q 3066 2682 3174 2362 
Q 3283 2042 3283 1651 
Q 3283 1254 3174 937 
Q 3066 621 2867 393 
Q 2669 166 2397 44 
Q 2125 -77 1792 -77 
z
M 1792 378 
Q 2208 378 2470 634 
Q 2733 890 2733 1414 
L 2733 1888 
Q 2733 2413 2470 2669 
Q 2208 2925 1792 2925 
Q 1376 2925 1113 2669 
Q 851 2413 851 1888 
L 851 1414 
Q 851 890 1113 634 
Q 1376 378 1792 378 
z
" transform="scale(0.015625)"/>
       <path id="IBMPlexSans-Regular-67" d="M 3328 -365 
Q 3328 -877 2928 -1117 
Q 2528 -1357 1728 -1357 
Q 954 -1357 614 -1145 
Q 275 -934 275 -544 
Q 275 -275 416 -124 
Q 557 26 800 96 
L 800 166 
Q 506 307 506 627 
Q 506 877 666 1008 
Q 826 1139 1075 1203 
L 1075 1229 
Q 781 1370 617 1632 
Q 454 1894 454 2240 
Q 454 2490 544 2701 
Q 634 2912 797 3062 
Q 960 3213 1187 3296 
Q 1414 3379 1696 3379 
Q 2048 3379 2323 3251 
L 2323 3309 
Q 2323 3501 2412 3625 
Q 2502 3750 2707 3750 
L 3200 3750 
L 3200 3302 
L 2573 3302 
L 2573 3091 
Q 2752 2938 2851 2723 
Q 2950 2509 2950 2240 
Q 2950 1990 2860 1779 
Q 2771 1568 2608 1417 
Q 2445 1267 2214 1184 
Q 1984 1101 1702 1101 
Q 1542 1101 1382 1133 
Q 1216 1088 1081 1001 
Q 947 915 947 762 
Q 947 614 1088 563 
Q 1229 512 1453 512 
L 2157 512 
Q 2771 512 3049 278 
Q 3328 45 3328 -365 
z
M 2848 -403 
Q 2848 -205 2697 -86 
Q 2547 32 2163 32 
L 1062 32 
Q 755 -109 755 -416 
Q 755 -634 918 -787 
Q 1082 -941 1472 -941 
L 1946 -941 
Q 2374 -941 2611 -806 
Q 2848 -672 2848 -403 
z
M 1702 1510 
Q 2029 1510 2221 1667 
Q 2413 1824 2413 2150 
L 2413 2330 
Q 2413 2656 2221 2813 
Q 2029 2970 1702 2970 
Q 1376 2970 1184 2813 
Q 992 2656 992 2330 
L 992 2150 
Q 992 1824 1184 1667 
Q 1376 1510 1702 1510 
z
" transform="scale(0.015625)"/>
       <path id="IBMPlexSans-Regular-64" d="M 2656 538 
L 2630 538 
Q 2330 -77 1664 -77 
Q 1357 -77 1107 44 
Q 858 166 682 390 
Q 506 614 413 934 
Q 320 1254 320 1651 
Q 320 2048 413 2368 
Q 506 2688 682 2912 
Q 858 3136 1107 3257 
Q 1357 3379 1664 3379 
Q 2010 3379 2256 3228 
Q 2502 3078 2630 2765 
L 2656 2765 
L 2656 4736 
L 3168 4736 
L 3168 0 
L 2656 0 
L 2656 538 
z
M 1805 384 
Q 1978 384 2134 429 
Q 2291 474 2406 560 
Q 2522 646 2589 771 
Q 2656 896 2656 1056 
L 2656 2285 
Q 2656 2419 2589 2537 
Q 2522 2656 2406 2739 
Q 2291 2822 2134 2870 
Q 1978 2918 1805 2918 
Q 1370 2918 1120 2646 
Q 870 2374 870 1933 
L 870 1370 
Q 870 928 1120 656 
Q 1370 384 1805 384 
z
" transform="scale(0.015625)"/>
       <path id="IBMPlexSans-Regular-65" d="M 1786 -77 
Q 1446 -77 1174 44 
Q 902 166 707 393 
Q 512 621 406 937 
Q 301 1254 301 1651 
Q 301 2042 406 2362 
Q 512 2682 707 2909 
Q 902 3136 1174 3257 
Q 1446 3379 1786 3379 
Q 2118 3379 2380 3257 
Q 2643 3136 2828 2921 
Q 3014 2707 3113 2412 
Q 3213 2118 3213 1766 
L 3213 1523 
L 838 1523 
L 838 1370 
Q 838 1158 905 976 
Q 973 794 1097 659 
Q 1222 525 1404 448 
Q 1587 371 1818 371 
Q 2131 371 2364 518 
Q 2598 666 2726 941 
L 3091 678 
Q 2931 339 2592 131 
Q 2253 -77 1786 -77 
z
M 1786 2950 
Q 1574 2950 1401 2876 
Q 1229 2803 1104 2668 
Q 979 2534 908 2352 
Q 838 2170 838 1952 
L 838 1907 
L 2662 1907 
L 2662 1978 
Q 2662 2419 2422 2684 
Q 2182 2950 1786 2950 
z
" transform="scale(0.015625)"/>
       <path id="IBMPlexSans-Regular-74" d="M 1274 0 
Q 1005 0 867 150 
Q 730 301 730 544 
L 730 2854 
L 186 2854 
L 186 3302 
L 493 3302 
Q 659 3302 720 3369 
Q 781 3437 781 3603 
L 781 4218 
L 1242 4218 
L 1242 3302 
L 1965 3302 
L 1965 2854 
L 1242 2854 
L 1242 448 
L 1914 448 
L 1914 0 
L 1274 0 
z
" transform="scale(0.015625)"/>
      </defs>
      <use xlink:href="#IBMPlexSans-Regular-6c"/>
      <use xlink:href="#IBMPlexSans-Regular-6f" transform="translate(27.199997 0)"/>
      <use xlink:href="#IBMPlexSans-Regular-67" transform="translate(83.199982 0)"/>
      <use xlink:href="#IBMPlexSans-Regular-64" transform="translate(135.999969 0)"/>
      <use xlink:href="#IBMPlexSans-Regular-65" transform="translate(193.999954 0)"/>
      <use xlink:href="#IBMPlexSans-Regular-74" transform="translate(248.899948 0)"/>
     </g>
    </g>
   </g>
   <g id="matplotlib.axis_18"/>
   <g id="FillBetweenPolyCollection_8">
    <defs>
     <path id="m718899a6b8" d="M 58.675993 -42.870415 
L 58.675993 -42.464375 
L 58.792185 -42.464375 
L 58.908377 -42.464375 
L 59.024569 -42.464375 
L 59.14076 -42.464375 
L 59.256952 -42.464375 
L 59.373144 -42.464375 
L 59.489336 -42.464375 
L 59.605528 -42.464375 
L 59.72172 -42.464375 
L 59.837911 -42.464375 
L 59.954103 -42.464375 
L 60.070295 -42.464375 
L 60.186487 -42.464375 
L 60.302679 -42.464375 
L 60.41887 -42.464375 
L 60.535062 -42.464375 
L 60.651254 -42.464375 
L 60.767446 -42.464375 
L 60.883638 -42.464375 
L 60.999829 -42.464375 
L 61.116021 -42.464375 
L 61.232213 -42.464375 
L 61.348405 -42.464375 
L 61.464597 -42.464375 
L 61.580788 -42.464375 
L 61.69698 -42.464375 
L 61.813172 -42.464375 
L 61.929364 -42.464375 
L 62.045556 -42.464375 
L 62.161748 -42.464375 
L 62.277939 -42.464375 
L 62.394131 -42.464375 
L 62.510323 -42.464375 
L 62.626515 -42.464375 
L 62.742707 -42.464375 
L 62.858898 -42.464375 
L 62.97509 -42.464375 
L 63.091282 -42.464375 
L 63.207474 -42.464375 
L 63.323666 -42.464375 
L 63.439857 -42.464375 
L 63.556049 -42.464375 
L 63.672241 -42.464375 
L 63.788433 -42.464375 
L 63.904625 -42.464375 
L 64.020816 -42.464375 
L 64.137008 -42.464375 
L 64.2532 -42.464375 
L 64.369392 -42.464375 
L 64.485584 -42.464375 
L 64.601776 -42.464375 
L 64.717967 -42.464375 
L 64.834159 -42.464375 
L 64.950351 -42.464375 
L 65.066543 -42.464375 
L 65.182735 -42.464375 
L 65.298926 -42.464375 
L 65.415118 -42.464375 
L 65.53131 -42.464375 
L 65.647502 -42.464375 
L 65.763694 -42.464375 
L 65.879885 -42.464375 
L 65.996077 -42.464375 
L 66.112269 -42.464375 
L 66.228461 -42.464375 
L 66.344653 -42.464375 
L 66.460844 -42.464375 
L 66.577036 -42.464375 
L 66.693228 -42.464375 
L 66.80942 -42.464375 
L 66.925612 -42.464375 
L 67.041804 -42.464375 
L 67.157995 -42.464375 
L 67.274187 -42.464375 
L 67.390379 -42.464375 
L 67.506571 -42.464375 
L 67.622763 -42.464375 
L 67.738954 -42.464375 
L 67.855146 -42.464375 
L 67.971338 -42.464375 
L 68.08753 -42.464375 
L 68.203722 -42.464375 
L 68.319913 -42.464375 
L 68.436105 -42.464375 
L 68.552297 -42.464375 
L 68.668489 -42.464375 
L 68.784681 -42.464375 
L 68.900872 -42.464375 
L 69.017064 -42.464375 
L 69.133256 -42.464375 
L 69.249448 -42.464375 
L 69.36564 -42.464375 
L 69.481831 -42.464375 
L 69.598023 -42.464375 
L 69.714215 -42.464375 
L 69.830407 -42.464375 
L 69.946599 -42.464375 
L 70.062791 -42.464375 
L 70.178982 -42.464375 
L 70.295174 -42.464375 
L 70.411366 -42.464375 
L 70.527558 -42.464375 
L 70.64375 -42.464375 
L 70.759941 -42.464375 
L 70.876133 -42.464375 
L 70.992325 -42.464375 
L 71.108517 -42.464375 
L 71.224709 -42.464375 
L 71.3409 -42.464375 
L 71.457092 -42.464375 
L 71.573284 -42.464375 
L 71.689476 -42.464375 
L 71.805668 -42.464375 
L 71.921859 -42.464375 
L 72.038051 -42.464375 
L 72.154243 -42.464375 
L 72.270435 -42.464375 
L 72.386627 -42.464375 
L 72.502819 -42.464375 
L 72.61901 -42.464375 
L 72.735202 -42.464375 
L 72.851394 -42.464375 
L 72.967586 -42.464375 
L 73.083778 -42.464375 
L 73.199969 -42.464375 
L 73.316161 -42.464375 
L 73.432353 -42.464375 
L 73.548545 -42.464375 
L 73.664737 -42.464375 
L 73.780928 -42.464375 
L 73.89712 -42.464375 
L 74.013312 -42.464375 
L 74.129504 -42.464375 
L 74.245696 -42.464375 
L 74.361887 -42.464375 
L 74.478079 -42.464375 
L 74.594271 -42.464375 
L 74.710463 -42.464375 
L 74.826655 -42.464375 
L 74.942847 -42.464375 
L 75.059038 -42.464375 
L 75.17523 -42.464375 
L 75.291422 -42.464375 
L 75.407614 -42.464375 
L 75.523806 -42.464375 
L 75.639997 -42.464375 
L 75.756189 -42.464375 
L 75.872381 -42.464375 
L 75.988573 -42.464375 
L 76.104765 -42.464375 
L 76.220956 -42.464375 
L 76.337148 -42.464375 
L 76.45334 -42.464375 
L 76.569532 -42.464375 
L 76.685724 -42.464375 
L 76.801915 -42.464375 
L 76.918107 -42.464375 
L 77.034299 -42.464375 
L 77.150491 -42.464375 
L 77.266683 -42.464375 
L 77.382875 -42.464375 
L 77.499066 -42.464375 
L 77.615258 -42.464375 
L 77.73145 -42.464375 
L 77.847642 -42.464375 
L 77.963834 -42.464375 
L 78.080025 -42.464375 
L 78.196217 -42.464375 
L 78.312409 -42.464375 
L 78.428601 -42.464375 
L 78.544793 -42.464375 
L 78.660984 -42.464375 
L 78.777176 -42.464375 
L 78.893368 -42.464375 
L 79.00956 -42.464375 
L 79.125752 -42.464375 
L 79.241943 -42.464375 
L 79.358135 -42.464375 
L 79.474327 -42.464375 
L 79.590519 -42.464375 
L 79.706711 -42.464375 
L 79.822903 -42.464375 
L 79.939094 -42.464375 
L 80.055286 -42.464375 
L 80.171478 -42.464375 
L 80.28767 -42.464375 
L 80.403862 -42.464375 
L 80.520053 -42.464375 
L 80.636245 -42.464375 
L 80.752437 -42.464375 
L 80.868629 -42.464375 
L 80.984821 -42.464375 
L 81.101012 -42.464375 
L 81.217204 -42.464375 
L 81.333396 -42.464375 
L 81.449588 -42.464375 
L 81.56578 -42.464375 
L 81.681971 -42.464375 
L 81.798163 -42.464375 
L 81.798163 -42.871441 
L 81.798163 -42.871441 
L 81.681971 -42.912675 
L 81.56578 -42.953244 
L 81.449588 -42.992304 
L 81.333396 -43.029019 
L 81.217204 -43.062594 
L 81.101012 -43.092331 
L 80.984821 -43.11767 
L 80.868629 -43.138235 
L 80.752437 -43.153873 
L 80.636245 -43.164685 
L 80.520053 -43.17105 
L 80.403862 -43.173638 
L 80.28767 -43.173405 
L 80.171478 -43.171585 
L 80.055286 -43.169662 
L 79.939094 -43.169336 
L 79.822903 -43.172474 
L 79.706711 -43.181057 
L 79.590519 -43.19712 
L 79.474327 -43.222687 
L 79.358135 -43.259704 
L 79.241943 -43.309978 
L 79.125752 -43.375112 
L 79.00956 -43.456458 
L 78.893368 -43.55507 
L 78.777176 -43.671671 
L 78.660984 -43.806644 
L 78.544793 -43.960025 
L 78.428601 -44.131524 
L 78.312409 -44.320568 
L 78.196217 -44.526353 
L 78.080025 -44.747925 
L 77.963834 -44.984267 
L 77.847642 -45.234403 
L 77.73145 -45.497506 
L 77.615258 -45.773001 
L 77.499066 -46.060668 
L 77.382875 -46.360714 
L 77.266683 -46.673829 
L 77.150491 -47.001211 
L 77.034299 -47.344542 
L 76.918107 -47.705939 
L 76.801915 -48.087847 
L 76.685724 -48.492907 
L 76.569532 -48.923786 
L 76.45334 -49.382987 
L 76.337148 -49.872644 
L 76.220956 -50.394329 
L 76.104765 -50.948866 
L 75.988573 -51.536179 
L 75.872381 -52.155183 
L 75.756189 -52.803727 
L 75.639997 -53.478594 
L 75.523806 -54.175555 
L 75.407614 -54.889488 
L 75.291422 -55.614545 
L 75.17523 -56.344361 
L 75.059038 -57.072294 
L 74.942847 -57.791686 
L 74.826655 -58.496123 
L 74.710463 -59.179698 
L 74.594271 -59.837241 
L 74.478079 -60.464535 
L 74.361887 -61.058488 
L 74.245696 -61.61726 
L 74.129504 -62.140359 
L 74.013312 -62.628675 
L 73.89712 -63.08448 
L 73.780928 -63.511374 
L 73.664737 -63.914188 
L 73.548545 -64.298844 
L 73.432353 -64.672175 
L 73.316161 -65.041709 
L 73.199969 -65.415411 
L 73.083778 -65.801412 
L 72.967586 -66.207705 
L 72.851394 -66.64184 
L 72.735202 -67.110612 
L 72.61901 -67.619771 
L 72.502819 -68.173745 
L 72.386627 -68.775412 
L 72.270435 -69.425915 
L 72.154243 -70.124543 
L 72.038051 -70.868673 
L 71.921859 -71.653792 
L 71.805668 -72.473586 
L 71.689476 -73.320101 
L 71.573284 -74.183962 
L 71.457092 -75.054652 
L 71.3409 -75.920818 
L 71.224709 -76.770611 
L 71.108517 -77.592026 
L 70.992325 -78.373234 
L 70.876133 -79.102898 
L 70.759941 -79.770448 
L 70.64375 -80.366322 
L 70.527558 -80.882147 
L 70.411366 -81.310882 
L 70.295174 -81.646905 
L 70.178982 -81.886053 
L 70.062791 -82.02563 
L 69.946599 -82.064375 
L 69.830407 -82.002406 
L 69.714215 -81.841148 
L 69.598023 -81.58325 
L 69.481831 -81.232495 
L 69.36564 -80.7937 
L 69.249448 -80.272628 
L 69.133256 -79.675884 
L 69.017064 -79.010815 
L 68.900872 -78.285402 
L 68.784681 -77.508141 
L 68.668489 -76.687914 
L 68.552297 -75.833841 
L 68.436105 -74.955128 
L 68.319913 -74.060884 
L 68.203722 -73.159943 
L 68.08753 -72.260665 
L 67.971338 -71.370747 
L 67.855146 -70.497033 
L 67.738954 -69.645348 
L 67.622763 -68.820349 
L 67.506571 -68.025417 
L 67.390379 -67.262592 
L 67.274187 -66.532549 
L 67.157995 -65.834635 
L 67.041804 -65.166955 
L 66.925612 -64.526507 
L 66.80942 -63.909367 
L 66.693228 -63.310902 
L 66.577036 -62.726015 
L 66.460844 -62.149402 
L 66.344653 -61.575805 
L 66.228461 -61.000254 
L 66.112269 -60.418284 
L 65.996077 -59.826117 
L 65.879885 -59.220801 
L 65.763694 -58.600305 
L 65.647502 -57.963564 
L 65.53131 -57.31048 
L 65.415118 -56.641884 
L 65.298926 -55.959455 
L 65.182735 -55.26562 
L 65.066543 -54.563429 
L 64.950351 -53.856417 
L 64.834159 -53.148465 
L 64.717967 -52.443659 
L 64.601776 -51.746161 
L 64.485584 -51.060086 
L 64.369392 -50.389394 
L 64.2532 -49.737806 
L 64.137008 -49.108721 
L 64.020816 -48.505165 
L 63.904625 -47.92975 
L 63.788433 -47.384644 
L 63.672241 -46.871558 
L 63.556049 -46.391752 
L 63.439857 -45.946039 
L 63.323666 -45.534808 
L 63.207474 -45.158053 
L 63.091282 -44.815406 
L 62.97509 -44.506178 
L 62.858898 -44.229399 
L 62.742707 -43.983863 
L 62.626515 -43.768173 
L 62.510323 -43.580783 
L 62.394131 -43.420037 
L 62.277939 -43.284203 
L 62.161748 -43.171507 
L 62.045556 -43.080153 
L 61.929364 -43.008344 
L 61.813172 -42.954295 
L 61.69698 -42.916235 
L 61.580788 -42.892416 
L 61.464597 -42.881109 
L 61.348405 -42.880601 
L 61.232213 -42.889196 
L 61.116021 -42.905211 
L 60.999829 -42.926984 
L 60.883638 -42.952875 
L 60.767446 -42.981283 
L 60.651254 -43.010661 
L 60.535062 -43.03954 
L 60.41887 -43.066553 
L 60.302679 -43.090465 
L 60.186487 -43.110198 
L 60.070295 -43.124861 
L 59.954103 -43.13377 
L 59.837911 -43.136465 
L 59.72172 -43.132716 
L 59.605528 -43.122525 
L 59.489336 -43.106117 
L 59.373144 -43.083916 
L 59.256952 -43.056524 
L 59.14076 -43.024682 
L 59.024569 -42.989236 
L 58.908377 -42.951093 
L 58.792185 -42.911182 
L 58.675993 -42.870415 
z
" style="stroke: #414487; stroke-width: 1.25"/>
    </defs>
    <g>
     <use xlink:href="#m718899a6b8" x="0" y="174.404375" style="fill: #414487; fill-opacity: 0.7; stroke: #414487; stroke-width: 1.25"/>
    </g>
   </g>
   <g id="line2d_9">
    <path d="M 7.2 131.94 
L 216.45 131.94 
" style="fill: none; stroke: #414487; stroke-opacity: 0.9; stroke-linecap: round"/>
   </g>
   <g id="text_12">
    <!-- 8 -->
    <g style="fill: #414487" transform="translate(7.2 131.022) scale(0.12 -0.12)">
     <defs>
      <path id="IBMPlexSans-Bold-38" d="M 1920 -77 
Q 1523 -77 1212 22 
Q 902 122 691 294 
Q 480 467 368 704 
Q 256 941 256 1222 
Q 256 1651 493 1923 
Q 730 2195 1133 2304 
L 1133 2355 
Q 806 2477 598 2726 
Q 390 2976 390 3366 
Q 390 3622 489 3840 
Q 589 4058 784 4214 
Q 979 4371 1264 4457 
Q 1549 4544 1920 4544 
Q 2291 4544 2576 4457 
Q 2861 4371 3056 4214 
Q 3251 4058 3350 3840 
Q 3450 3622 3450 3366 
Q 3450 2976 3242 2726 
Q 3034 2477 2707 2355 
L 2707 2304 
Q 3110 2195 3347 1923 
Q 3584 1651 3584 1222 
Q 3584 941 3472 704 
Q 3360 467 3149 294 
Q 2938 122 2627 22 
Q 2317 -77 1920 -77 
z
M 1920 659 
Q 2240 659 2409 809 
Q 2579 960 2579 1229 
L 2579 1357 
Q 2579 1626 2409 1776 
Q 2240 1926 1920 1926 
Q 1600 1926 1430 1776 
Q 1261 1626 1261 1357 
L 1261 1229 
Q 1261 960 1430 809 
Q 1600 659 1920 659 
z
M 1920 2630 
Q 2227 2630 2387 2774 
Q 2547 2918 2547 3168 
L 2547 3270 
Q 2547 3520 2387 3664 
Q 2227 3808 1920 3808 
Q 1613 3808 1453 3664 
Q 1293 3520 1293 3270 
L 1293 3168 
Q 1293 2918 1453 2774 
Q 1613 2630 1920 2630 
z
" transform="scale(0.015625)"/>
     </defs>
     <use xlink:href="#IBMPlexSans-Bold-38"/>
    </g>
   </g>
  </g>
 </g>
</svg>
