<?xml version="1.0" encoding="utf-8" standalone="no"?>
<!DOCTYPE svg PUBLIC "-//W3C//DTD SVG 1.1//EN"
  "http://www.w3.org/Graphics/SVG/1.1/DTD/svg11.dtd">
<svg xmlns:xlink="http://www.w3.org/1999/xlink" width="223.65pt" height="174.26pt" viewBox="0 0 223.65 174.26" xmlns="http://www.w3.org/2000/svg" version="1.1">
 <metadata>
  <rdf:RDF xmlns:dc="http://purl.org/dc/elements/1.1/" xmlns:cc="http://creativecommons.org/ns#" xmlns:rdf="http://www.w3.org/1999/02/22-rdf-syntax-ns#">
   <cc:Work>
    <dc:type rdf:resource="http://purl.org/dc/dcmitype/StillImage"/>
    <dc:date>2025-04-30T16:02:27.596825</dc:date>
    <dc:format>image/svg+xml</dc:format>
    <dc:creator>
     <cc:Agent>
      <dc:title>Matplotlib v3.10.1, https://matplotlib.org/</dc:title>
     </cc:Agent>
    </dc:creator>
   </cc:Work>
  </rdf:RDF>
 </metadata>
 <defs>
  <style type="text/css">*{stroke-linejoin: round; stroke-linecap: butt}</style>
 </defs>
 <g id="figure_1">
  <g id="patch_1">
   <path d="M 0 174.26 
L 223.65 174.26 
L 223.65 0 
L 0 0 
L 0 174.26 
z
" style="fill: none"/>
  </g>
  <g id="axes_1">
   <g id="patch_2">
    <path d="M 7.2 48.78 
L 216.45 48.78 
L 216.45 7.2 
L 7.2 7.2 
L 7.2 48.78 
z
" style="fill: none"/>
   </g>
   <g id="matplotlib.axis_1">
    <g id="xtick_1"/>
    <g id="xtick_2"/>
    <g id="xtick_3"/>
    <g id="xtick_4"/>
    <g id="xtick_5"/>
   </g>
   <g id="matplotlib.axis_2"/>
   <g id="line2d_1">
    <path d="M 7.2 48.78 
L 216.45 48.78 
" style="fill: none; stroke: #21918c; stroke-opacity: 0.9; stroke-linecap: round"/>
   </g>
   <g id="text_1">
    <!-- 0 -->
    <g style="fill: #21918c" transform="translate(7.2 47.862) scale(0.12 -0.12)">
     <defs>
      <path id="IBMPlexSans-Bold-30" d="M 1920 -77 
Q 1043 -77 620 531 
Q 198 1139 198 2234 
Q 198 3328 620 3936 
Q 1043 4544 1920 4544 
Q 2797 4544 3219 3936 
Q 3642 3328 3642 2234 
Q 3642 1139 3219 531 
Q 2797 -77 1920 -77 
z
M 1920 736 
Q 2304 736 2451 1017 
Q 2598 1299 2598 1811 
L 2598 2656 
Q 2598 3168 2451 3449 
Q 2304 3731 1920 3731 
Q 1536 3731 1389 3449 
Q 1242 3168 1242 2656 
L 1242 1811 
Q 1242 1299 1389 1017 
Q 1536 736 1920 736 
z
" transform="scale(0.015625)"/>
     </defs>
     <use xlink:href="#IBMPlexSans-Bold-30"/>
    </g>
   </g>
  </g>
  <g id="axes_2">
   <g id="patch_3">
    <path d="M 7.2 59.175 
L 216.45 59.175 
L 216.45 17.595 
L 7.2 17.595 
L 7.2 59.175 
z
" style="fill: none"/>
   </g>
   <g id="matplotlib.axis_3">
    <g id="xtick_6"/>
    <g id="xtick_7"/>
    <g id="xtick_8"/>
    <g id="xtick_9"/>
    <g id="xtick_10"/>
   </g>
   <g id="matplotlib.axis_4"/>
   <g id="line2d_2">
    <path d="M 7.2 59.175 
L 216.45 59.175 
" style="fill: none; stroke: #21918c; stroke-opacity: 0.9; stroke-linecap: round"/>
   </g>
   <g id="text_2">
    <!-- 1 -->
    <g style="fill: #21918c" transform="translate(7.2 58.257) scale(0.12 -0.12)">
     <defs>
      <path id="IBMPlexSans-Bold-31" d="M 602 0 
L 602 774 
L 1805 774 
L 1805 3770 
L 1747 3770 
L 838 2579 
L 224 3059 
L 1293 4467 
L 2765 4467 
L 2765 774 
L 3712 774 
L 3712 0 
L 602 0 
z
" transform="scale(0.015625)"/>
     </defs>
     <use xlink:href="#IBMPlexSans-Bold-31"/>
    </g>
   </g>
  </g>
  <g id="axes_3">
   <g id="patch_4">
    <path d="M 7.2 69.57 
L 216.45 69.57 
L 216.45 27.99 
L 7.2 27.99 
L 7.2 69.57 
z
" style="fill: none"/>
   </g>
   <g id="matplotlib.axis_5">
    <g id="xtick_11"/>
    <g id="xtick_12"/>
    <g id="xtick_13"/>
    <g id="xtick_14"/>
    <g id="xtick_15"/>
   </g>
   <g id="matplotlib.axis_6"/>
   <g id="line2d_3">
    <path d="M 7.2 69.57 
L 216.45 69.57 
" style="fill: none; stroke: #21918c; stroke-opacity: 0.9; stroke-linecap: round"/>
   </g>
   <g id="text_3">
    <!-- 2 -->
    <g style="fill: #21918c" transform="translate(7.2 68.652) scale(0.12 -0.12)">
     <defs>
      <path id="IBMPlexSans-Bold-32" d="M 3526 0 
L 365 0 
L 365 877 
L 1741 2054 
Q 1926 2214 2054 2345 
Q 2182 2477 2262 2601 
Q 2342 2726 2377 2848 
Q 2413 2970 2413 3110 
L 2413 3200 
Q 2413 3328 2361 3424 
Q 2310 3520 2227 3584 
Q 2144 3648 2038 3680 
Q 1933 3712 1824 3712 
Q 1664 3712 1545 3661 
Q 1427 3610 1340 3523 
Q 1254 3437 1196 3325 
Q 1139 3213 1107 3085 
L 269 3405 
Q 346 3635 480 3843 
Q 614 4051 816 4208 
Q 1018 4365 1293 4454 
Q 1568 4544 1914 4544 
Q 2278 4544 2560 4441 
Q 2842 4339 3037 4160 
Q 3232 3981 3334 3734 
Q 3437 3488 3437 3200 
Q 3437 2912 3341 2675 
Q 3245 2438 3081 2230 
Q 2918 2022 2700 1836 
Q 2483 1651 2246 1459 
L 1414 806 
L 3526 806 
L 3526 0 
z
" transform="scale(0.015625)"/>
     </defs>
     <use xlink:href="#IBMPlexSans-Bold-32"/>
    </g>
   </g>
  </g>
  <g id="axes_4">
   <g id="patch_5">
    <path d="M 7.2 79.965 
L 216.45 79.965 
L 216.45 38.385 
L 7.2 38.385 
L 7.2 79.965 
z
" style="fill: none"/>
   </g>
   <g id="matplotlib.axis_7">
    <g id="xtick_16"/>
    <g id="xtick_17"/>
    <g id="xtick_18"/>
    <g id="xtick_19"/>
    <g id="xtick_20"/>
   </g>
   <g id="matplotlib.axis_8"/>
   <g id="line2d_4">
    <path d="M 7.2 79.965 
L 216.45 79.965 
" style="fill: none; stroke: #21918c; stroke-opacity: 0.9; stroke-linecap: round"/>
   </g>
   <g id="text_4">
    <!-- 3 -->
    <g style="fill: #21918c" transform="translate(7.2 79.047) scale(0.12 -0.12)">
     <defs>
      <path id="IBMPlexSans-Bold-33" d="M 1677 2701 
Q 2035 2701 2198 2838 
Q 2362 2976 2362 3181 
L 2362 3226 
Q 2362 3469 2205 3616 
Q 2048 3763 1760 3763 
Q 1491 3763 1254 3625 
Q 1018 3488 851 3232 
L 250 3795 
Q 378 3962 525 4099 
Q 672 4237 857 4336 
Q 1043 4435 1273 4489 
Q 1504 4544 1792 4544 
Q 2150 4544 2441 4461 
Q 2733 4378 2941 4221 
Q 3149 4064 3261 3846 
Q 3373 3629 3373 3360 
Q 3373 3149 3305 2976 
Q 3238 2803 3120 2675 
Q 3002 2547 2848 2467 
Q 2694 2387 2522 2355 
L 2522 2317 
Q 2720 2278 2889 2192 
Q 3059 2106 3184 1971 
Q 3309 1837 3379 1654 
Q 3450 1472 3450 1242 
Q 3450 941 3328 697 
Q 3206 454 2982 281 
Q 2758 109 2444 16 
Q 2131 -77 1754 -77 
Q 1414 -77 1152 -6 
Q 890 64 694 182 
Q 499 301 355 454 
Q 211 608 102 781 
L 813 1331 
Q 960 1056 1174 880 
Q 1389 704 1754 704 
Q 2080 704 2262 867 
Q 2445 1030 2445 1312 
L 2445 1350 
Q 2445 1626 2237 1763 
Q 2029 1901 1664 1901 
L 1261 1901 
L 1261 2701 
L 1677 2701 
z
" transform="scale(0.015625)"/>
     </defs>
     <use xlink:href="#IBMPlexSans-Bold-33"/>
    </g>
   </g>
  </g>
  <g id="axes_5">
   <g id="patch_6">
    <path d="M 7.2 90.36 
L 216.45 90.36 
L 216.45 48.78 
L 7.2 48.78 
L 7.2 90.36 
z
" style="fill: none"/>
   </g>
   <g id="matplotlib.axis_9">
    <g id="xtick_21"/>
    <g id="xtick_22"/>
    <g id="xtick_23"/>
    <g id="xtick_24"/>
    <g id="xtick_25"/>
   </g>
   <g id="matplotlib.axis_10"/>
   <g id="line2d_5">
    <path d="M 7.2 90.36 
L 216.45 90.36 
" style="fill: none; stroke: #21918c; stroke-opacity: 0.9; stroke-linecap: round"/>
   </g>
   <g id="text_5">
    <!-- 4 -->
    <g style="fill: #21918c" transform="translate(7.2 89.442) scale(0.12 -0.12)">
     <defs>
      <path id="IBMPlexSans-Bold-34" d="M 2157 0 
L 2157 858 
L 192 858 
L 192 1677 
L 1933 4467 
L 3072 4467 
L 3072 1600 
L 3635 1600 
L 3635 858 
L 3072 858 
L 3072 0 
L 2157 0 
z
M 960 1600 
L 2157 1600 
L 2157 3475 
L 2093 3475 
L 960 1600 
z
" transform="scale(0.015625)"/>
     </defs>
     <use xlink:href="#IBMPlexSans-Bold-34"/>
    </g>
   </g>
  </g>
  <g id="axes_6">
   <g id="patch_7">
    <path d="M 7.2 100.755 
L 216.45 100.755 
L 216.45 59.175 
L 7.2 59.175 
L 7.2 100.755 
z
" style="fill: none"/>
   </g>
   <g id="matplotlib.axis_11">
    <g id="xtick_26"/>
    <g id="xtick_27"/>
    <g id="xtick_28"/>
    <g id="xtick_29"/>
    <g id="xtick_30"/>
   </g>
   <g id="matplotlib.axis_12"/>
   <g id="FillBetweenPolyCollection_1">
    <defs>
     <path id="m43599b46ce" d="M 87.28606 -74.999616 
L 87.28606 -73.505 
L 87.530033 -73.505 
L 87.774005 -73.505 
L 88.017977 -73.505 
L 88.26195 -73.505 
L 88.505922 -73.505 
L 88.749895 -73.505 
L 88.993867 -73.505 
L 89.23784 -73.505 
L 89.481812 -73.505 
L 89.725784 -73.505 
L 89.969757 -73.505 
L 90.213729 -73.505 
L 90.457702 -73.505 
L 90.701674 -73.505 
L 90.945646 -73.505 
L 91.189619 -73.505 
L 91.433591 -73.505 
L 91.677564 -73.505 
L 91.921536 -73.505 
L 92.165509 -73.505 
L 92.409481 -73.505 
L 92.653453 -73.505 
L 92.897426 -73.505 
L 93.141398 -73.505 
L 93.385371 -73.505 
L 93.629343 -73.505 
L 93.873316 -73.505 
L 94.117288 -73.505 
L 94.36126 -73.505 
L 94.605233 -73.505 
L 94.849205 -73.505 
L 95.093178 -73.505 
L 95.33715 -73.505 
L 95.581123 -73.505 
L 95.825095 -73.505 
L 96.069067 -73.505 
L 96.31304 -73.505 
L 96.557012 -73.505 
L 96.800985 -73.505 
L 97.044957 -73.505 
L 97.288929 -73.505 
L 97.532902 -73.505 
L 97.776874 -73.505 
L 98.020847 -73.505 
L 98.264819 -73.505 
L 98.508792 -73.505 
L 98.752764 -73.505 
L 98.996736 -73.505 
L 99.240709 -73.505 
L 99.484681 -73.505 
L 99.728654 -73.505 
L 99.972626 -73.505 
L 100.216599 -73.505 
L 100.460571 -73.505 
L 100.704543 -73.505 
L 100.948516 -73.505 
L 101.192488 -73.505 
L 101.436461 -73.505 
L 101.680433 -73.505 
L 101.924406 -73.505 
L 102.168378 -73.505 
L 102.41235 -73.505 
L 102.656323 -73.505 
L 102.900295 -73.505 
L 103.144268 -73.505 
L 103.38824 -73.505 
L 103.632212 -73.505 
L 103.876185 -73.505 
L 104.120157 -73.505 
L 104.36413 -73.505 
L 104.608102 -73.505 
L 104.852075 -73.505 
L 105.096047 -73.505 
L 105.340019 -73.505 
L 105.583992 -73.505 
L 105.827964 -73.505 
L 106.071937 -73.505 
L 106.315909 -73.505 
L 106.559882 -73.505 
L 106.803854 -73.505 
L 107.047826 -73.505 
L 107.291799 -73.505 
L 107.535771 -73.505 
L 107.779744 -73.505 
L 108.023716 -73.505 
L 108.267689 -73.505 
L 108.511661 -73.505 
L 108.755633 -73.505 
L 108.999606 -73.505 
L 109.243578 -73.505 
L 109.487551 -73.505 
L 109.731523 -73.505 
L 109.975496 -73.505 
L 110.219468 -73.505 
L 110.46344 -73.505 
L 110.707413 -73.505 
L 110.951385 -73.505 
L 111.195358 -73.505 
L 111.43933 -73.505 
L 111.683302 -73.505 
L 111.927275 -73.505 
L 112.171247 -73.505 
L 112.41522 -73.505 
L 112.659192 -73.505 
L 112.903165 -73.505 
L 113.147137 -73.505 
L 113.391109 -73.505 
L 113.635082 -73.505 
L 113.879054 -73.505 
L 114.123027 -73.505 
L 114.366999 -73.505 
L 114.610972 -73.505 
L 114.854944 -73.505 
L 115.098916 -73.505 
L 115.342889 -73.505 
L 115.586861 -73.505 
L 115.830834 -73.505 
L 116.074806 -73.505 
L 116.318779 -73.505 
L 116.562751 -73.505 
L 116.806723 -73.505 
L 117.050696 -73.505 
L 117.294668 -73.505 
L 117.538641 -73.505 
L 117.782613 -73.505 
L 118.026585 -73.505 
L 118.270558 -73.505 
L 118.51453 -73.505 
L 118.758503 -73.505 
L 119.002475 -73.505 
L 119.246448 -73.505 
L 119.49042 -73.505 
L 119.734392 -73.505 
L 119.978365 -73.505 
L 120.222337 -73.505 
L 120.46631 -73.505 
L 120.710282 -73.505 
L 120.954255 -73.505 
L 121.198227 -73.505 
L 121.442199 -73.505 
L 121.686172 -73.505 
L 121.930144 -73.505 
L 122.174117 -73.505 
L 122.418089 -73.505 
L 122.662062 -73.505 
L 122.906034 -73.505 
L 123.150006 -73.505 
L 123.393979 -73.505 
L 123.637951 -73.505 
L 123.881924 -73.505 
L 124.125896 -73.505 
L 124.369868 -73.505 
L 124.613841 -73.505 
L 124.857813 -73.505 
L 125.101786 -73.505 
L 125.345758 -73.505 
L 125.589731 -73.505 
L 125.833703 -73.505 
L 126.077675 -73.505 
L 126.321648 -73.505 
L 126.56562 -73.505 
L 126.809593 -73.505 
L 127.053565 -73.505 
L 127.297538 -73.505 
L 127.54151 -73.505 
L 127.785482 -73.505 
L 128.029455 -73.505 
L 128.273427 -73.505 
L 128.5174 -73.505 
L 128.761372 -73.505 
L 129.005345 -73.505 
L 129.249317 -73.505 
L 129.493289 -73.505 
L 129.737262 -73.505 
L 129.981234 -73.505 
L 130.225207 -73.505 
L 130.469179 -73.505 
L 130.713151 -73.505 
L 130.957124 -73.505 
L 131.201096 -73.505 
L 131.445069 -73.505 
L 131.689041 -73.505 
L 131.933014 -73.505 
L 132.176986 -73.505 
L 132.420958 -73.505 
L 132.664931 -73.505 
L 132.908903 -73.505 
L 133.152876 -73.505 
L 133.396848 -73.505 
L 133.640821 -73.505 
L 133.884793 -73.505 
L 134.128765 -73.505 
L 134.372738 -73.505 
L 134.61671 -73.505 
L 134.860683 -73.505 
L 135.104655 -73.505 
L 135.348628 -73.505 
L 135.5926 -73.505 
L 135.836572 -73.505 
L 135.836572 -76.084899 
L 135.836572 -76.084899 
L 135.5926 -76.418351 
L 135.348628 -76.780187 
L 135.104655 -77.170544 
L 134.860683 -77.589186 
L 134.61671 -78.035472 
L 134.372738 -78.508315 
L 134.128765 -79.006165 
L 133.884793 -79.52699 
L 133.640821 -80.068265 
L 133.396848 -80.626984 
L 133.152876 -81.199668 
L 132.908903 -81.782398 
L 132.664931 -82.370855 
L 132.420958 -82.960377 
L 132.176986 -83.54602 
L 131.933014 -84.122643 
L 131.689041 -84.684995 
L 131.445069 -85.227813 
L 131.201096 -85.745927 
L 130.957124 -86.234368 
L 130.713151 -86.688485 
L 130.469179 -87.10405 
L 130.225207 -87.477366 
L 129.981234 -87.805369 
L 129.737262 -88.085717 
L 129.493289 -88.316869 
L 129.249317 -88.498146 
L 129.005345 -88.629779 
L 128.761372 -88.712937 
L 128.5174 -88.749736 
L 128.273427 -88.743224 
L 128.029455 -88.69735 
L 127.785482 -88.616913 
L 127.54151 -88.507488 
L 127.297538 -88.375338 
L 127.053565 -88.22731 
L 126.809593 -88.070717 
L 126.56562 -87.913211 
L 126.321648 -87.762644 
L 126.077675 -87.626933 
L 125.833703 -87.513914 
L 125.589731 -87.431204 
L 125.345758 -87.386065 
L 125.101786 -87.385276 
L 124.857813 -87.435013 
L 124.613841 -87.540745 
L 124.369868 -87.707138 
L 124.125896 -87.937983 
L 123.881924 -88.23613 
L 123.637951 -88.60345 
L 123.393979 -89.040807 
L 123.150006 -89.548053 
L 122.906034 -90.12404 
L 122.662062 -90.766644 
L 122.418089 -91.472815 
L 122.174117 -92.238635 
L 121.930144 -93.059389 
L 121.686172 -93.929651 
L 121.442199 -94.843382 
L 121.198227 -95.794029 
L 120.954255 -96.774633 
L 120.710282 -97.777942 
L 120.46631 -98.796524 
L 120.222337 -99.822874 
L 119.978365 -100.849521 
L 119.734392 -101.86913 
L 119.49042 -102.874594 
L 119.246448 -103.859115 
L 119.002475 -104.816279 
L 118.758503 -105.74011 
L 118.51453 -106.625124 
L 118.270558 -107.466356 
L 118.026585 -108.259386 
L 117.782613 -109.000343 
L 117.538641 -109.685907 
L 117.294668 -110.313287 
L 117.050696 -110.880206 
L 116.806723 -111.384864 
L 116.562751 -111.825902 
L 116.318779 -112.202365 
L 116.074806 -112.513649 
L 115.830834 -112.759465 
L 115.586861 -112.939793 
L 115.342889 -113.054839 
L 115.098916 -113.105 
L 114.854944 -113.090834 
L 114.610972 -113.013034 
L 114.366999 -112.872408 
L 114.123027 -112.669876 
L 113.879054 -112.406461 
L 113.635082 -112.083298 
L 113.391109 -111.701651 
L 113.147137 -111.262931 
L 112.903165 -110.768726 
L 112.659192 -110.220838 
L 112.41522 -109.621318 
L 112.171247 -108.972508 
L 111.927275 -108.27709 
L 111.683302 -107.538124 
L 111.43933 -106.75909 
L 111.195358 -105.943929 
L 110.951385 -105.097072 
L 110.707413 -104.223464 
L 110.46344 -103.328577 
L 110.219468 -102.418416 
L 109.975496 -101.499504 
L 109.731523 -100.578863 
L 109.487551 -99.663973 
L 109.243578 -98.762716 
L 108.999606 -97.883313 
L 108.755633 -97.034231 
L 108.511661 -96.224095 
L 108.267689 -95.461568 
L 108.023716 -94.755236 
L 107.779744 -94.113469 
L 107.535771 -93.544291 
L 107.291799 -93.055231 
L 107.047826 -92.653181 
L 106.803854 -92.344257 
L 106.559882 -92.133658 
L 106.315909 -92.025541 
L 106.071937 -92.022905 
L 105.827964 -92.127486 
L 105.583992 -92.339679 
L 105.340019 -92.658472 
L 105.096047 -93.081409 
L 104.852075 -93.604575 
L 104.608102 -94.222609 
L 104.36413 -94.928746 
L 104.120157 -95.714883 
L 103.876185 -96.571675 
L 103.632212 -97.488662 
L 103.38824 -98.454408 
L 103.144268 -99.456672 
L 102.900295 -100.482599 
L 102.656323 -101.518913 
L 102.41235 -102.552136 
L 102.168378 -103.568802 
L 101.924406 -104.555673 
L 101.680433 -105.499954 
L 101.436461 -106.389496 
L 101.192488 -107.212981 
L 100.948516 -107.960094 
L 100.704543 -108.621669 
L 100.460571 -109.189805 
L 100.216599 -109.657963 
L 99.972626 -110.021019 
L 99.728654 -110.275302 
L 99.484681 -110.418587 
L 99.240709 -110.450067 
L 98.996736 -110.370301 
L 98.752764 -110.181123 
L 98.508792 -109.885553 
L 98.264819 -109.487668 
L 98.020847 -108.992474 
L 97.776874 -108.405773 
L 97.532902 -107.734009 
L 97.288929 -106.984133 
L 97.044957 -106.163463 
L 96.800985 -105.279546 
L 96.557012 -104.340043 
L 96.31304 -103.352614 
L 96.069067 -102.324821 
L 95.825095 -101.264045 
L 95.581123 -100.177418 
L 95.33715 -99.071766 
L 95.093178 -97.953567 
L 94.849205 -96.82892 
L 94.605233 -95.703527 
L 94.36126 -94.582684 
L 94.117288 -93.471269 
L 93.873316 -92.373756 
L 93.629343 -91.294213 
L 93.385371 -90.236314 
L 93.141398 -89.203354 
L 92.897426 -88.198255 
L 92.653453 -87.223586 
L 92.409481 -86.281568 
L 92.165509 -85.374096 
L 91.921536 -84.50274 
L 91.677564 -83.668767 
L 91.433591 -82.873146 
L 91.189619 -82.116562 
L 90.945646 -81.399429 
L 90.701674 -80.721902 
L 90.457702 -80.08389 
L 90.213729 -79.485071 
L 89.969757 -78.924908 
L 89.725784 -78.402666 
L 89.481812 -77.917427 
L 89.23784 -77.468115 
L 88.993867 -77.053508 
L 88.749895 -76.672262 
L 88.505922 -76.32293 
L 88.26195 -76.003982 
L 88.017977 -75.713825 
L 87.774005 -75.450822 
L 87.530033 -75.213309 
L 87.28606 -74.999616 
z
" style="stroke: #2a788e; stroke-width: 1.25"/>
    </defs>
    <g>
     <use xlink:href="#m43599b46ce" x="0" y="174.26" style="fill: #2a788e; fill-opacity: 0.7; stroke: #2a788e; stroke-width: 1.25"/>
    </g>
   </g>
   <g id="line2d_6">
    <path d="M 7.2 100.755 
L 216.45 100.755 
" style="fill: none; stroke: #2a788e; stroke-opacity: 0.9; stroke-linecap: round"/>
   </g>
   <g id="text_6">
    <!-- 5 -->
    <g style="fill: #2a788e" transform="translate(7.2 99.837) scale(0.12 -0.12)">
     <defs>
      <path id="IBMPlexSans-Bold-35" d="M 3341 3629 
L 1312 3629 
L 1216 2214 
L 1267 2214 
Q 1331 2374 1411 2505 
Q 1491 2637 1600 2729 
Q 1709 2822 1862 2873 
Q 2016 2925 2227 2925 
Q 2515 2925 2764 2829 
Q 3014 2733 3200 2550 
Q 3386 2368 3494 2102 
Q 3603 1837 3603 1504 
Q 3603 1165 3491 873 
Q 3379 582 3158 371 
Q 2938 160 2618 41 
Q 2298 -77 1888 -77 
Q 1562 -77 1312 -6 
Q 1062 64 870 182 
Q 678 301 537 454 
Q 397 608 294 781 
L 992 1331 
Q 1139 1069 1344 886 
Q 1549 704 1894 704 
Q 2240 704 2416 902 
Q 2592 1101 2592 1427 
L 2592 1478 
Q 2592 1786 2413 1965 
Q 2234 2144 1920 2144 
Q 1658 2144 1488 2038 
Q 1318 1933 1229 1830 
L 442 1939 
L 608 4467 
L 3341 4467 
L 3341 3629 
z
" transform="scale(0.015625)"/>
     </defs>
     <use xlink:href="#IBMPlexSans-Bold-35"/>
    </g>
   </g>
  </g>
  <g id="axes_7">
   <g id="patch_8">
    <path d="M 7.2 111.15 
L 216.45 111.15 
L 216.45 69.57 
L 7.2 69.57 
L 7.2 111.15 
z
" style="fill: none"/>
   </g>
   <g id="matplotlib.axis_13">
    <g id="xtick_31"/>
    <g id="xtick_32"/>
    <g id="xtick_33"/>
    <g id="xtick_34"/>
    <g id="xtick_35"/>
   </g>
   <g id="matplotlib.axis_14"/>
   <g id="FillBetweenPolyCollection_2">
    <defs>
     <path id="m4fc00595c2" d="M 63.90466 -64.136668 
L 63.90466 -63.11 
L 64.386132 -63.11 
L 64.867605 -63.11 
L 65.349078 -63.11 
L 65.83055 -63.11 
L 66.312023 -63.11 
L 66.793495 -63.11 
L 67.274968 -63.11 
L 67.75644 -63.11 
L 68.237913 -63.11 
L 68.719385 -63.11 
L 69.200858 -63.11 
L 69.68233 -63.11 
L 70.163803 -63.11 
L 70.645276 -63.11 
L 71.126748 -63.11 
L 71.608221 -63.11 
L 72.089693 -63.11 
L 72.571166 -63.11 
L 73.052638 -63.11 
L 73.534111 -63.11 
L 74.015583 -63.11 
L 74.497056 -63.11 
L 74.978528 -63.11 
L 75.460001 -63.11 
L 75.941473 -63.11 
L 76.422946 -63.11 
L 76.904419 -63.11 
L 77.385891 -63.11 
L 77.867364 -63.11 
L 78.348836 -63.11 
L 78.830309 -63.11 
L 79.311781 -63.11 
L 79.793254 -63.11 
L 80.274726 -63.11 
L 80.756199 -63.11 
L 81.237671 -63.11 
L 81.719144 -63.11 
L 82.200616 -63.11 
L 82.682089 -63.11 
L 83.163562 -63.11 
L 83.645034 -63.11 
L 84.126507 -63.11 
L 84.607979 -63.11 
L 85.089452 -63.11 
L 85.570924 -63.11 
L 86.052397 -63.11 
L 86.533869 -63.11 
L 87.015342 -63.11 
L 87.496814 -63.11 
L 87.978287 -63.11 
L 88.45976 -63.11 
L 88.941232 -63.11 
L 89.422705 -63.11 
L 89.904177 -63.11 
L 90.38565 -63.11 
L 90.867122 -63.11 
L 91.348595 -63.11 
L 91.830067 -63.11 
L 92.31154 -63.11 
L 92.793012 -63.11 
L 93.274485 -63.11 
L 93.755957 -63.11 
L 94.23743 -63.11 
L 94.718903 -63.11 
L 95.200375 -63.11 
L 95.681848 -63.11 
L 96.16332 -63.11 
L 96.644793 -63.11 
L 97.126265 -63.11 
L 97.607738 -63.11 
L 98.08921 -63.11 
L 98.570683 -63.11 
L 99.052155 -63.11 
L 99.533628 -63.11 
L 100.015101 -63.11 
L 100.496573 -63.11 
L 100.978046 -63.11 
L 101.459518 -63.11 
L 101.940991 -63.11 
L 102.422463 -63.11 
L 102.903936 -63.11 
L 103.385408 -63.11 
L 103.866881 -63.11 
L 104.348353 -63.11 
L 104.829826 -63.11 
L 105.311298 -63.11 
L 105.792771 -63.11 
L 106.274244 -63.11 
L 106.755716 -63.11 
L 107.237189 -63.11 
L 107.718661 -63.11 
L 108.200134 -63.11 
L 108.681606 -63.11 
L 109.163079 -63.11 
L 109.644551 -63.11 
L 110.126024 -63.11 
L 110.607496 -63.11 
L 111.088969 -63.11 
L 111.570441 -63.11 
L 112.051914 -63.11 
L 112.533387 -63.11 
L 113.014859 -63.11 
L 113.496332 -63.11 
L 113.977804 -63.11 
L 114.459277 -63.11 
L 114.940749 -63.11 
L 115.422222 -63.11 
L 115.903694 -63.11 
L 116.385167 -63.11 
L 116.866639 -63.11 
L 117.348112 -63.11 
L 117.829585 -63.11 
L 118.311057 -63.11 
L 118.79253 -63.11 
L 119.274002 -63.11 
L 119.755475 -63.11 
L 120.236947 -63.11 
L 120.71842 -63.11 
L 121.199892 -63.11 
L 121.681365 -63.11 
L 122.162837 -63.11 
L 122.64431 -63.11 
L 123.125782 -63.11 
L 123.607255 -63.11 
L 124.088728 -63.11 
L 124.5702 -63.11 
L 125.051673 -63.11 
L 125.533145 -63.11 
L 126.014618 -63.11 
L 126.49609 -63.11 
L 126.977563 -63.11 
L 127.459035 -63.11 
L 127.940508 -63.11 
L 128.42198 -63.11 
L 128.903453 -63.11 
L 129.384926 -63.11 
L 129.866398 -63.11 
L 130.347871 -63.11 
L 130.829343 -63.11 
L 131.310816 -63.11 
L 131.792288 -63.11 
L 132.273761 -63.11 
L 132.755233 -63.11 
L 133.236706 -63.11 
L 133.718178 -63.11 
L 134.199651 -63.11 
L 134.681123 -63.11 
L 135.162596 -63.11 
L 135.644069 -63.11 
L 136.125541 -63.11 
L 136.607014 -63.11 
L 137.088486 -63.11 
L 137.569959 -63.11 
L 138.051431 -63.11 
L 138.532904 -63.11 
L 139.014376 -63.11 
L 139.495849 -63.11 
L 139.977321 -63.11 
L 140.458794 -63.11 
L 140.940266 -63.11 
L 141.421739 -63.11 
L 141.903212 -63.11 
L 142.384684 -63.11 
L 142.866157 -63.11 
L 143.347629 -63.11 
L 143.829102 -63.11 
L 144.310574 -63.11 
L 144.792047 -63.11 
L 145.273519 -63.11 
L 145.754992 -63.11 
L 146.236464 -63.11 
L 146.717937 -63.11 
L 147.19941 -63.11 
L 147.680882 -63.11 
L 148.162355 -63.11 
L 148.643827 -63.11 
L 149.1253 -63.11 
L 149.606772 -63.11 
L 150.088245 -63.11 
L 150.569717 -63.11 
L 151.05119 -63.11 
L 151.532662 -63.11 
L 152.014135 -63.11 
L 152.495607 -63.11 
L 152.97708 -63.11 
L 153.458553 -63.11 
L 153.940025 -63.11 
L 154.421498 -63.11 
L 154.90297 -63.11 
L 155.384443 -63.11 
L 155.865915 -63.11 
L 156.347388 -63.11 
L 156.82886 -63.11 
L 157.310333 -63.11 
L 157.791805 -63.11 
L 158.273278 -63.11 
L 158.754751 -63.11 
L 159.236223 -63.11 
L 159.717696 -63.11 
L 159.717696 -64.332737 
L 159.717696 -64.332737 
L 159.236223 -64.489333 
L 158.754751 -64.65928 
L 158.273278 -64.842698 
L 157.791805 -65.039545 
L 157.310333 -65.249603 
L 156.82886 -65.472458 
L 156.347388 -65.707494 
L 155.865915 -65.953876 
L 155.384443 -66.210553 
L 154.90297 -66.476249 
L 154.421498 -66.749473 
L 153.940025 -67.028524 
L 153.458553 -67.31151 
L 152.97708 -67.596362 
L 152.495607 -67.880868 
L 152.014135 -68.162696 
L 151.532662 -68.439436 
L 151.05119 -68.70864 
L 150.569717 -68.967863 
L 150.088245 -69.214715 
L 149.606772 -69.446907 
L 149.1253 -69.662303 
L 148.643827 -69.858969 
L 148.162355 -70.035216 
L 147.680882 -70.189655 
L 147.19941 -70.321225 
L 146.717937 -70.429238 
L 146.236464 -70.513401 
L 145.754992 -70.57384 
L 145.273519 -70.611112 
L 144.792047 -70.626207 
L 144.310574 -70.620548 
L 143.829102 -70.595973 
L 143.347629 -70.554715 
L 142.866157 -70.499368 
L 142.384684 -70.432854 
L 141.903212 -70.358371 
L 141.421739 -70.279347 
L 140.940266 -70.199378 
L 140.458794 -70.122175 
L 139.977321 -70.051497 
L 139.495849 -69.991088 
L 139.014376 -69.944616 
L 138.532904 -69.915612 
L 138.051431 -69.907407 
L 137.569959 -69.923083 
L 137.088486 -69.965415 
L 136.607014 -70.036835 
L 136.125541 -70.139384 
L 135.644069 -70.274689 
L 135.162596 -70.44393 
L 134.681123 -70.647831 
L 134.199651 -70.886642 
L 133.718178 -71.160143 
L 133.236706 -71.46765 
L 132.755233 -71.808023 
L 132.273761 -72.179689 
L 131.792288 -72.580672 
L 131.310816 -73.008618 
L 130.829343 -73.460837 
L 130.347871 -73.934347 
L 129.866398 -74.425914 
L 129.384926 -74.932107 
L 128.903453 -75.449342 
L 128.42198 -75.973936 
L 127.940508 -76.50216 
L 127.459035 -77.030282 
L 126.977563 -77.554621 
L 126.49609 -78.071585 
L 126.014618 -78.577716 
L 125.533145 -79.069723 
L 125.051673 -79.544515 
L 124.5702 -79.999224 
L 124.088728 -80.431226 
L 123.607255 -80.838156 
L 123.125782 -81.217913 
L 122.64431 -81.568669 
L 122.162837 -81.88886 
L 121.681365 -82.177189 
L 121.199892 -82.432604 
L 120.71842 -82.654296 
L 120.236947 -82.841677 
L 119.755475 -82.994362 
L 119.274002 -83.112155 
L 118.79253 -83.195025 
L 118.311057 -83.243092 
L 117.829585 -83.256608 
L 117.348112 -83.235941 
L 116.866639 -83.181564 
L 116.385167 -83.094043 
L 115.903694 -82.974031 
L 115.422222 -82.822262 
L 114.940749 -82.639555 
L 114.459277 -82.426811 
L 113.977804 -82.185022 
L 113.496332 -81.915281 
L 113.014859 -81.618789 
L 112.533387 -81.296877 
L 112.051914 -80.95101 
L 111.570441 -80.582814 
L 111.088969 -80.194084 
L 110.607496 -79.786802 
L 110.126024 -79.363151 
L 109.644551 -78.925528 
L 109.163079 -78.476547 
L 108.681606 -78.019045 
L 108.200134 -77.556083 
L 107.718661 -77.090937 
L 107.237189 -76.627086 
L 106.755716 -76.168193 
L 106.274244 -75.718081 
L 105.792771 -75.280699 
L 105.311298 -74.860088 
L 104.829826 -74.46033 
L 104.348353 -74.085506 
L 103.866881 -73.739636 
L 103.385408 -73.426622 
L 102.903936 -73.150188 
L 102.422463 -72.913813 
L 101.940991 -72.720671 
L 101.459518 -72.573562 
L 100.978046 -72.474857 
L 100.496573 -72.426435 
L 100.015101 -72.429633 
L 99.533628 -72.485197 
L 99.052155 -72.593247 
L 98.570683 -72.753244 
L 98.08921 -72.963972 
L 97.607738 -73.223531 
L 97.126265 -73.529343 
L 96.644793 -73.878163 
L 96.16332 -74.266115 
L 95.681848 -74.688731 
L 95.200375 -75.141008 
L 94.718903 -75.617471 
L 94.23743 -76.112254 
L 93.755957 -76.619185 
L 93.274485 -77.131877 
L 92.793012 -77.643831 
L 92.31154 -78.148534 
L 91.830067 -78.639565 
L 91.348595 -79.110694 
L 90.867122 -79.555982 
L 90.38565 -79.969869 
L 89.904177 -80.347259 
L 89.422705 -80.683592 
L 88.941232 -80.9749 
L 88.45976 -81.217862 
L 87.978287 -81.409826 
L 87.496814 -81.548838 
L 87.015342 -81.633638 
L 86.533869 -81.663651 
L 86.052397 -81.638966 
L 85.570924 -81.560298 
L 85.089452 -81.428943 
L 84.607979 -81.246723 
L 84.126507 -81.015927 
L 83.645034 -80.739243 
L 83.163562 -80.419691 
L 82.682089 -80.060555 
L 82.200616 -79.665316 
L 81.719144 -79.237586 
L 81.237671 -78.781052 
L 80.756199 -78.299416 
L 80.274726 -77.796353 
L 79.793254 -77.275463 
L 79.311781 -76.74024 
L 78.830309 -76.194045 
L 78.348836 -75.64008 
L 77.867364 -75.081375 
L 77.385891 -74.520776 
L 76.904419 -73.960942 
L 76.422946 -73.404337 
L 75.941473 -72.853237 
L 75.460001 -72.309728 
L 74.978528 -71.775709 
L 74.497056 -71.252904 
L 74.015583 -70.742859 
L 73.534111 -70.246954 
L 73.052638 -69.766404 
L 72.571166 -69.302268 
L 72.089693 -68.855449 
L 71.608221 -68.426701 
L 71.126748 -68.016635 
L 70.645276 -67.625719 
L 70.163803 -67.254287 
L 69.68233 -66.902537 
L 69.200858 -66.570545 
L 68.719385 -66.258262 
L 68.237913 -65.965524 
L 67.75644 -65.692062 
L 67.274968 -65.437502 
L 66.793495 -65.201381 
L 66.312023 -64.983153 
L 65.83055 -64.782196 
L 65.349078 -64.597827 
L 64.867605 -64.429309 
L 64.386132 -64.27586 
L 63.90466 -64.136668 
z
" style="stroke: #355f8d; stroke-width: 1.25"/>
    </defs>
    <g>
     <use xlink:href="#m4fc00595c2" x="0" y="174.26" style="fill: #355f8d; fill-opacity: 0.7; stroke: #355f8d; stroke-width: 1.25"/>
    </g>
   </g>
   <g id="line2d_7">
    <path d="M 7.2 111.15 
L 216.45 111.15 
" style="fill: none; stroke: #355f8d; stroke-opacity: 0.9; stroke-linecap: round"/>
   </g>
   <g id="text_7">
    <!-- 6 -->
    <g style="fill: #355f8d" transform="translate(7.2 110.232) scale(0.12 -0.12)">
     <defs>
      <path id="IBMPlexSans-Bold-36" d="M 1946 -77 
Q 1549 -77 1235 48 
Q 922 173 707 406 
Q 493 640 381 966 
Q 269 1293 269 1696 
Q 269 2163 413 2582 
Q 557 3002 784 3357 
Q 1011 3712 1296 3993 
Q 1581 4275 1869 4467 
L 3194 4467 
Q 2784 4173 2457 3907 
Q 2131 3642 1891 3373 
Q 1651 3104 1494 2825 
Q 1338 2547 1274 2227 
L 1331 2208 
Q 1389 2336 1469 2457 
Q 1549 2579 1667 2672 
Q 1786 2765 1946 2822 
Q 2106 2880 2317 2880 
Q 2592 2880 2832 2781 
Q 3072 2682 3248 2502 
Q 3424 2323 3523 2064 
Q 3622 1805 3622 1491 
Q 3622 1146 3504 858 
Q 3386 570 3165 362 
Q 2944 154 2637 38 
Q 2330 -77 1946 -77 
z
M 1946 672 
Q 2266 672 2445 848 
Q 2624 1024 2624 1350 
L 2624 1466 
Q 2624 1792 2445 1968 
Q 2266 2144 1946 2144 
Q 1626 2144 1446 1968 
Q 1267 1792 1267 1466 
L 1267 1350 
Q 1267 1024 1446 848 
Q 1626 672 1946 672 
z
" transform="scale(0.015625)"/>
     </defs>
     <use xlink:href="#IBMPlexSans-Bold-36"/>
    </g>
   </g>
  </g>
  <g id="axes_8">
   <g id="patch_9">
    <path d="M 7.2 121.545 
L 216.45 121.545 
L 216.45 79.965 
L 7.2 79.965 
L 7.2 121.545 
z
" style="fill: none"/>
   </g>
   <g id="matplotlib.axis_15">
    <g id="xtick_36"/>
    <g id="xtick_37"/>
    <g id="xtick_38"/>
    <g id="xtick_39"/>
    <g id="xtick_40"/>
   </g>
   <g id="matplotlib.axis_16"/>
   <g id="FillBetweenPolyCollection_3">
    <defs>
     <path id="m8384c57ba2" d="M 40.033742 -53.349905 
L 40.033742 -52.715 
L 40.756208 -52.715 
L 41.478675 -52.715 
L 42.201142 -52.715 
L 42.923609 -52.715 
L 43.646075 -52.715 
L 44.368542 -52.715 
L 45.091009 -52.715 
L 45.813475 -52.715 
L 46.535942 -52.715 
L 47.258409 -52.715 
L 47.980876 -52.715 
L 48.703342 -52.715 
L 49.425809 -52.715 
L 50.148276 -52.715 
L 50.870742 -52.715 
L 51.593209 -52.715 
L 52.315676 -52.715 
L 53.038142 -52.715 
L 53.760609 -52.715 
L 54.483076 -52.715 
L 55.205543 -52.715 
L 55.928009 -52.715 
L 56.650476 -52.715 
L 57.372943 -52.715 
L 58.095409 -52.715 
L 58.817876 -52.715 
L 59.540343 -52.715 
L 60.26281 -52.715 
L 60.985276 -52.715 
L 61.707743 -52.715 
L 62.43021 -52.715 
L 63.152676 -52.715 
L 63.875143 -52.715 
L 64.59761 -52.715 
L 65.320077 -52.715 
L 66.042543 -52.715 
L 66.76501 -52.715 
L 67.487477 -52.715 
L 68.209943 -52.715 
L 68.93241 -52.715 
L 69.654877 -52.715 
L 70.377343 -52.715 
L 71.09981 -52.715 
L 71.822277 -52.715 
L 72.544744 -52.715 
L 73.26721 -52.715 
L 73.989677 -52.715 
L 74.712144 -52.715 
L 75.43461 -52.715 
L 76.157077 -52.715 
L 76.879544 -52.715 
L 77.602011 -52.715 
L 78.324477 -52.715 
L 79.046944 -52.715 
L 79.769411 -52.715 
L 80.491877 -52.715 
L 81.214344 -52.715 
L 81.936811 -52.715 
L 82.659278 -52.715 
L 83.381744 -52.715 
L 84.104211 -52.715 
L 84.826678 -52.715 
L 85.549144 -52.715 
L 86.271611 -52.715 
L 86.994078 -52.715 
L 87.716545 -52.715 
L 88.439011 -52.715 
L 89.161478 -52.715 
L 89.883945 -52.715 
L 90.606411 -52.715 
L 91.328878 -52.715 
L 92.051345 -52.715 
L 92.773811 -52.715 
L 93.496278 -52.715 
L 94.218745 -52.715 
L 94.941212 -52.715 
L 95.663678 -52.715 
L 96.386145 -52.715 
L 97.108612 -52.715 
L 97.831078 -52.715 
L 98.553545 -52.715 
L 99.276012 -52.715 
L 99.998479 -52.715 
L 100.720945 -52.715 
L 101.443412 -52.715 
L 102.165879 -52.715 
L 102.888345 -52.715 
L 103.610812 -52.715 
L 104.333279 -52.715 
L 105.055746 -52.715 
L 105.778212 -52.715 
L 106.500679 -52.715 
L 107.223146 -52.715 
L 107.945612 -52.715 
L 108.668079 -52.715 
L 109.390546 -52.715 
L 110.113012 -52.715 
L 110.835479 -52.715 
L 111.557946 -52.715 
L 112.280413 -52.715 
L 113.002879 -52.715 
L 113.725346 -52.715 
L 114.447813 -52.715 
L 115.170279 -52.715 
L 115.892746 -52.715 
L 116.615213 -52.715 
L 117.33768 -52.715 
L 118.060146 -52.715 
L 118.782613 -52.715 
L 119.50508 -52.715 
L 120.227546 -52.715 
L 120.950013 -52.715 
L 121.67248 -52.715 
L 122.394947 -52.715 
L 123.117413 -52.715 
L 123.83988 -52.715 
L 124.562347 -52.715 
L 125.284813 -52.715 
L 126.00728 -52.715 
L 126.729747 -52.715 
L 127.452214 -52.715 
L 128.17468 -52.715 
L 128.897147 -52.715 
L 129.619614 -52.715 
L 130.34208 -52.715 
L 131.064547 -52.715 
L 131.787014 -52.715 
L 132.50948 -52.715 
L 133.231947 -52.715 
L 133.954414 -52.715 
L 134.676881 -52.715 
L 135.399347 -52.715 
L 136.121814 -52.715 
L 136.844281 -52.715 
L 137.566747 -52.715 
L 138.289214 -52.715 
L 139.011681 -52.715 
L 139.734148 -52.715 
L 140.456614 -52.715 
L 141.179081 -52.715 
L 141.901548 -52.715 
L 142.624014 -52.715 
L 143.346481 -52.715 
L 144.068948 -52.715 
L 144.791415 -52.715 
L 145.513881 -52.715 
L 146.236348 -52.715 
L 146.958815 -52.715 
L 147.681281 -52.715 
L 148.403748 -52.715 
L 149.126215 -52.715 
L 149.848682 -52.715 
L 150.571148 -52.715 
L 151.293615 -52.715 
L 152.016082 -52.715 
L 152.738548 -52.715 
L 153.461015 -52.715 
L 154.183482 -52.715 
L 154.905948 -52.715 
L 155.628415 -52.715 
L 156.350882 -52.715 
L 157.073349 -52.715 
L 157.795815 -52.715 
L 158.518282 -52.715 
L 159.240749 -52.715 
L 159.963215 -52.715 
L 160.685682 -52.715 
L 161.408149 -52.715 
L 162.130616 -52.715 
L 162.853082 -52.715 
L 163.575549 -52.715 
L 164.298016 -52.715 
L 165.020482 -52.715 
L 165.742949 -52.715 
L 166.465416 -52.715 
L 167.187883 -52.715 
L 167.910349 -52.715 
L 168.632816 -52.715 
L 169.355283 -52.715 
L 170.077749 -52.715 
L 170.800216 -52.715 
L 171.522683 -52.715 
L 172.245149 -52.715 
L 172.967616 -52.715 
L 173.690083 -52.715 
L 174.41255 -52.715 
L 175.135016 -52.715 
L 175.857483 -52.715 
L 176.57995 -52.715 
L 177.302416 -52.715 
L 178.024883 -52.715 
L 178.74735 -52.715 
L 179.469817 -52.715 
L 180.192283 -52.715 
L 180.91475 -52.715 
L 181.637217 -52.715 
L 182.359683 -52.715 
L 183.08215 -52.715 
L 183.804617 -52.715 
L 183.804617 -53.45479 
L 183.804617 -53.45479 
L 183.08215 -53.551867 
L 182.359683 -53.65759 
L 181.637217 -53.772102 
L 180.91475 -53.895447 
L 180.192283 -54.027563 
L 179.469817 -54.16827 
L 178.74735 -54.317258 
L 178.024883 -54.474085 
L 177.302416 -54.638165 
L 176.57995 -54.80877 
L 175.857483 -54.985032 
L 175.135016 -55.165939 
L 174.41255 -55.35035 
L 173.690083 -55.536999 
L 172.967616 -55.724515 
L 172.245149 -55.911433 
L 171.522683 -56.096221 
L 170.800216 -56.277297 
L 170.077749 -56.453065 
L 169.355283 -56.621936 
L 168.632816 -56.782361 
L 167.910349 -56.932866 
L 167.187883 -57.07208 
L 166.465416 -57.19877 
L 165.742949 -57.31187 
L 165.020482 -57.410507 
L 164.298016 -57.494031 
L 163.575549 -57.562035 
L 162.853082 -57.614373 
L 162.130616 -57.651171 
L 161.408149 -57.672836 
L 160.685682 -57.680061 
L 159.963215 -57.673816 
L 159.240749 -57.655342 
L 158.518282 -57.626135 
L 157.795815 -57.587926 
L 157.073349 -57.542657 
L 156.350882 -57.492447 
L 155.628415 -57.439566 
L 154.905948 -57.386392 
L 154.183482 -57.335374 
L 153.461015 -57.288998 
L 152.738548 -57.249737 
L 152.016082 -57.220019 
L 151.293615 -57.202184 
L 150.571148 -57.198445 
L 149.848682 -57.210858 
L 149.126215 -57.241284 
L 148.403748 -57.291364 
L 147.681281 -57.362492 
L 146.958815 -57.455794 
L 146.236348 -57.572111 
L 145.513881 -57.71199 
L 144.791415 -57.87567 
L 144.068948 -58.063085 
L 143.346481 -58.273862 
L 142.624014 -58.507326 
L 141.901548 -58.762514 
L 141.179081 -59.038184 
L 140.456614 -59.332836 
L 139.734148 -59.644733 
L 139.011681 -59.971923 
L 138.289214 -60.312266 
L 137.566747 -60.663466 
L 136.844281 -61.023097 
L 136.121814 -61.38864 
L 135.399347 -61.757509 
L 134.676881 -62.127089 
L 133.954414 -62.494764 
L 133.231947 -62.857951 
L 132.50948 -63.214126 
L 131.787014 -63.560853 
L 131.064547 -63.895811 
L 130.34208 -64.216811 
L 129.619614 -64.521818 
L 128.897147 -64.808969 
L 128.17468 -65.076578 
L 127.452214 -65.323154 
L 126.729747 -65.547398 
L 126.00728 -65.748209 
L 125.284813 -65.924682 
L 124.562347 -66.076107 
L 123.83988 -66.201957 
L 123.117413 -66.301884 
L 122.394947 -66.375708 
L 121.67248 -66.423403 
L 120.950013 -66.44509 
L 120.227546 -66.441021 
L 119.50508 -66.41157 
L 118.782613 -66.357219 
L 118.060146 -66.27855 
L 117.33768 -66.176236 
L 116.615213 -66.051032 
L 115.892746 -65.903774 
L 115.170279 -65.735372 
L 114.447813 -65.546813 
L 113.725346 -65.339158 
L 113.002879 -65.113546 
L 112.280413 -64.8712 
L 111.557946 -64.613431 
L 110.835479 -64.341645 
L 110.113012 -64.057348 
L 109.390546 -63.762154 
L 108.668079 -63.457793 
L 107.945612 -63.14611 
L 107.223146 -62.829073 
L 106.500679 -62.508769 
L 105.778212 -62.187406 
L 105.055746 -61.867302 
L 104.333279 -61.550883 
L 103.610812 -61.240661 
L 102.888345 -60.939225 
L 102.165879 -60.649217 
L 101.443412 -60.373304 
L 100.720945 -60.114155 
L 99.998479 -59.874406 
L 99.276012 -59.656623 
L 98.553545 -59.463268 
L 97.831078 -59.296657 
L 97.108612 -59.158921 
L 96.386145 -59.051961 
L 95.663678 -58.977412 
L 94.941212 -58.936601 
L 94.218745 -58.930511 
L 93.496278 -58.959747 
L 92.773811 -59.024506 
L 92.051345 -59.124557 
L 91.328878 -59.259219 
L 90.606411 -59.427356 
L 89.883945 -59.62737 
L 89.161478 -59.85721 
L 88.439011 -60.114388 
L 87.716545 -60.396 
L 86.994078 -60.698761 
L 86.271611 -61.019046 
L 85.549144 -61.352938 
L 84.826678 -61.696285 
L 84.104211 -62.044764 
L 83.381744 -62.393945 
L 82.659278 -62.739362 
L 81.936811 -63.076585 
L 81.214344 -63.401292 
L 80.491877 -63.709334 
L 79.769411 -63.996806 
L 79.046944 -64.260104 
L 78.324477 -64.49598 
L 77.602011 -64.701585 
L 76.879544 -64.874506 
L 76.157077 -65.012795 
L 75.43461 -65.114981 
L 74.712144 -65.180077 
L 73.989677 -65.207579 
L 73.26721 -65.197445 
L 72.544744 -65.150079 
L 71.822277 -65.066296 
L 71.09981 -64.947289 
L 70.377343 -64.794582 
L 69.654877 -64.60999 
L 68.93241 -64.395567 
L 68.209943 -64.153563 
L 67.487477 -63.88637 
L 66.76501 -63.59648 
L 66.042543 -63.286445 
L 65.320077 -62.958832 
L 64.59761 -62.616194 
L 63.875143 -62.261036 
L 63.152676 -61.895793 
L 62.43021 -61.522808 
L 61.707743 -61.144317 
L 60.985276 -60.762436 
L 60.26281 -60.379158 
L 59.540343 -59.996343 
L 58.817876 -59.615719 
L 58.095409 -59.238881 
L 57.372943 -58.867295 
L 56.650476 -58.502298 
L 55.928009 -58.145104 
L 55.205543 -57.796804 
L 54.483076 -57.458374 
L 53.760609 -57.130672 
L 53.038142 -56.814449 
L 52.315676 -56.510345 
L 51.593209 -56.218895 
L 50.870742 -55.940532 
L 50.148276 -55.675585 
L 49.425809 -55.424287 
L 48.703342 -55.186775 
L 47.980876 -54.963093 
L 47.258409 -54.753196 
L 46.535942 -54.556955 
L 45.813475 -54.374164 
L 45.091009 -54.20454 
L 44.368542 -54.047736 
L 43.646075 -53.903341 
L 42.923609 -53.770893 
L 42.201142 -53.649885 
L 41.478675 -53.539771 
L 40.756208 -53.439977 
L 40.033742 -53.349905 
z
" style="stroke: #414487; stroke-width: 1.25"/>
    </defs>
    <g>
     <use xlink:href="#m8384c57ba2" x="0" y="174.26" style="fill: #414487; fill-opacity: 0.7; stroke: #414487; stroke-width: 1.25"/>
    </g>
   </g>
   <g id="line2d_8">
    <path d="M 7.2 121.545 
L 216.45 121.545 
" style="fill: none; stroke: #414487; stroke-opacity: 0.9; stroke-linecap: round"/>
   </g>
   <g id="text_8">
    <!-- 7 -->
    <g style="fill: #414487" transform="translate(7.2 120.627) scale(0.12 -0.12)">
     <defs>
      <path id="IBMPlexSans-Bold-37" d="M 1062 0 
L 2560 3686 
L 1165 3686 
L 1165 2874 
L 352 2874 
L 352 4467 
L 3514 4467 
L 3514 3635 
L 2074 0 
L 1062 0 
z
" transform="scale(0.015625)"/>
     </defs>
     <use xlink:href="#IBMPlexSans-Bold-37"/>
    </g>
   </g>
  </g>
  <g id="axes_9">
   <g id="patch_10">
    <path d="M 7.2 131.94 
L 216.45 131.94 
L 216.45 90.36 
L 7.2 90.36 
L 7.2 131.94 
z
" style="fill: none"/>
   </g>
   <g id="matplotlib.axis_17">
    <g id="xtick_41">
     <g id="text_9">
      <!-- −5.0 -->
      <g style="fill: #838383" transform="translate(15.435825 149.58) scale(0.11 -0.11)">
       <defs>
        <path id="IBMPlexSans-Regular-2212" d="M 429 1734 
L 429 2170 
L 3411 2170 
L 3411 1734 
L 429 1734 
z
" transform="scale(0.015625)"/>
        <path id="IBMPlexSans-Regular-35" d="M 3187 3994 
L 1229 3994 
L 1101 2291 
L 1146 2291 
Q 1306 2515 1507 2649 
Q 1709 2784 2061 2784 
Q 2349 2784 2592 2688 
Q 2835 2592 3014 2416 
Q 3194 2240 3293 1984 
Q 3392 1728 3392 1402 
Q 3392 1075 3289 803 
Q 3187 531 2992 336 
Q 2797 141 2518 32 
Q 2240 -77 1888 -77 
Q 1606 -77 1392 -13 
Q 1178 51 1011 160 
Q 845 269 720 403 
Q 595 538 493 685 
L 896 992 
Q 979 858 1072 749 
Q 1165 640 1277 563 
Q 1389 486 1536 444 
Q 1683 403 1888 403 
Q 2349 403 2585 646 
Q 2822 890 2822 1331 
L 2822 1395 
Q 2822 1837 2585 2080 
Q 2349 2323 1888 2323 
Q 1581 2323 1405 2211 
Q 1229 2099 1088 1946 
L 634 2010 
L 794 4467 
L 3187 4467 
L 3187 3994 
z
" transform="scale(0.015625)"/>
        <path id="IBMPlexSans-Regular-2e" d="M 870 -77 
Q 666 -77 573 25 
Q 480 128 480 294 
L 480 378 
Q 480 544 573 646 
Q 666 749 870 749 
Q 1075 749 1168 646 
Q 1261 544 1261 378 
L 1261 294 
Q 1261 128 1168 25 
Q 1075 -77 870 -77 
z
" transform="scale(0.015625)"/>
        <path id="IBMPlexSans-Regular-30" d="M 1920 -77 
Q 1120 -77 752 531 
Q 384 1139 384 2234 
Q 384 3328 752 3936 
Q 1120 4544 1920 4544 
Q 2720 4544 3088 3936 
Q 3456 3328 3456 2234 
Q 3456 1139 3088 531 
Q 2720 -77 1920 -77 
z
M 1920 390 
Q 2182 390 2368 499 
Q 2554 608 2669 806 
Q 2784 1005 2838 1273 
Q 2893 1542 2893 1869 
L 2893 2598 
Q 2893 2925 2838 3193 
Q 2784 3462 2669 3660 
Q 2554 3859 2368 3968 
Q 2182 4077 1920 4077 
Q 1658 4077 1472 3968 
Q 1286 3859 1171 3660 
Q 1056 3462 1001 3193 
Q 947 2925 947 2598 
L 947 1869 
Q 947 1542 1001 1273 
Q 1056 1005 1171 806 
Q 1286 608 1472 499 
Q 1658 390 1920 390 
z
" transform="scale(0.015625)"/>
       </defs>
       <use xlink:href="#IBMPlexSans-Regular-2212"/>
       <use xlink:href="#IBMPlexSans-Regular-35" transform="translate(59.999985 0)"/>
       <use xlink:href="#IBMPlexSans-Regular-2e" transform="translate(119.999969 0)"/>
       <use xlink:href="#IBMPlexSans-Regular-30" transform="translate(147.199966 0)"/>
      </g>
     </g>
    </g>
    <g id="xtick_42">
     <g id="text_10">
      <!-- −2.5 -->
      <g style="fill: #838383" transform="translate(58.059234 149.58) scale(0.11 -0.11)">
       <defs>
        <path id="IBMPlexSans-Regular-32" d="M 3411 0 
L 480 0 
L 480 550 
L 1939 1894 
Q 2253 2182 2464 2505 
Q 2675 2829 2675 3155 
L 2675 3232 
Q 2675 3603 2470 3833 
Q 2266 4064 1850 4064 
Q 1645 4064 1491 4006 
Q 1338 3949 1226 3846 
Q 1114 3744 1040 3606 
Q 966 3469 922 3309 
L 442 3494 
Q 506 3693 618 3881 
Q 730 4070 899 4217 
Q 1069 4365 1309 4454 
Q 1549 4544 1875 4544 
Q 2202 4544 2458 4448 
Q 2714 4352 2886 4179 
Q 3059 4006 3152 3769 
Q 3245 3533 3245 3245 
Q 3245 2982 3171 2758 
Q 3098 2534 2970 2332 
Q 2842 2131 2659 1939 
Q 2477 1747 2266 1555 
L 1062 474 
L 3411 474 
L 3411 0 
z
" transform="scale(0.015625)"/>
       </defs>
       <use xlink:href="#IBMPlexSans-Regular-2212"/>
       <use xlink:href="#IBMPlexSans-Regular-32" transform="translate(59.999985 0)"/>
       <use xlink:href="#IBMPlexSans-Regular-2e" transform="translate(119.999969 0)"/>
       <use xlink:href="#IBMPlexSans-Regular-35" transform="translate(147.199966 0)"/>
      </g>
     </g>
    </g>
    <g id="xtick_43">
     <g id="text_11">
      <!-- 0.0 -->
      <g style="fill: #838383" transform="translate(103.982643 149.58) scale(0.11 -0.11)">
       <use xlink:href="#IBMPlexSans-Regular-30"/>
       <use xlink:href="#IBMPlexSans-Regular-2e" transform="translate(59.999985 0)"/>
       <use xlink:href="#IBMPlexSans-Regular-30" transform="translate(87.199982 0)"/>
      </g>
     </g>
    </g>
    <g id="xtick_44">
     <g id="text_12">
      <!-- 2.5 -->
      <g style="fill: #838383" transform="translate(146.606052 149.58) scale(0.11 -0.11)">
       <use xlink:href="#IBMPlexSans-Regular-32"/>
       <use xlink:href="#IBMPlexSans-Regular-2e" transform="translate(59.999985 0)"/>
       <use xlink:href="#IBMPlexSans-Regular-35" transform="translate(87.199982 0)"/>
      </g>
     </g>
    </g>
    <g id="xtick_45">
     <g id="text_13">
      <!-- 5.0 -->
      <g style="fill: #838383" transform="translate(189.229461 149.58) scale(0.11 -0.11)">
       <use xlink:href="#IBMPlexSans-Regular-35"/>
       <use xlink:href="#IBMPlexSans-Regular-2e" transform="translate(59.999985 0)"/>
       <use xlink:href="#IBMPlexSans-Regular-30" transform="translate(87.199982 0)"/>
      </g>
     </g>
    </g>
    <g id="text_14">
     <!-- sldb -->
     <g style="fill: #262626" transform="translate(100.310625 164.66) scale(0.12 -0.12)">
      <defs>
       <path id="IBMPlexSans-Regular-73" d="M 1536 -77 
Q 1075 -77 764 99 
Q 454 275 230 570 
L 595 864 
Q 787 621 1024 489 
Q 1261 358 1574 358 
Q 1901 358 2083 499 
Q 2266 640 2266 896 
Q 2266 1088 2141 1225 
Q 2016 1363 1690 1414 
L 1427 1453 
Q 1197 1485 1005 1552 
Q 813 1619 669 1731 
Q 525 1843 445 2009 
Q 365 2176 365 2406 
Q 365 2650 454 2832 
Q 544 3014 701 3136 
Q 858 3258 1075 3318 
Q 1293 3379 1542 3379 
Q 1946 3379 2218 3238 
Q 2490 3098 2694 2848 
L 2355 2541 
Q 2246 2694 2035 2819 
Q 1824 2944 1504 2944 
Q 1184 2944 1021 2806 
Q 858 2669 858 2432 
Q 858 2189 1021 2080 
Q 1184 1971 1491 1920 
L 1747 1882 
Q 2298 1798 2528 1564 
Q 2758 1331 2758 954 
Q 2758 474 2432 198 
Q 2106 -77 1536 -77 
z
" transform="scale(0.015625)"/>
       <path id="IBMPlexSans-Regular-6c" d="M 1088 0 
Q 819 0 681 150 
Q 544 301 544 531 
L 544 4736 
L 1056 4736 
L 1056 448 
L 1542 448 
L 1542 0 
L 1088 0 
z
" transform="scale(0.015625)"/>
       <path id="IBMPlexSans-Regular-64" d="M 2656 538 
L 2630 538 
Q 2330 -77 1664 -77 
Q 1357 -77 1107 44 
Q 858 166 682 390 
Q 506 614 413 934 
Q 320 1254 320 1651 
Q 320 2048 413 2368 
Q 506 2688 682 2912 
Q 858 3136 1107 3257 
Q 1357 3379 1664 3379 
Q 2010 3379 2256 3228 
Q 2502 3078 2630 2765 
L 2656 2765 
L 2656 4736 
L 3168 4736 
L 3168 0 
L 2656 0 
L 2656 538 
z
M 1805 384 
Q 1978 384 2134 429 
Q 2291 474 2406 560 
Q 2522 646 2589 771 
Q 2656 896 2656 1056 
L 2656 2285 
Q 2656 2419 2589 2537 
Q 2522 2656 2406 2739 
Q 2291 2822 2134 2870 
Q 1978 2918 1805 2918 
Q 1370 2918 1120 2646 
Q 870 2374 870 1933 
L 870 1370 
Q 870 928 1120 656 
Q 1370 384 1805 384 
z
" transform="scale(0.015625)"/>
       <path id="IBMPlexSans-Regular-62" d="M 544 4736 
L 1056 4736 
L 1056 2765 
L 1082 2765 
Q 1210 3078 1456 3228 
Q 1702 3379 2048 3379 
Q 2355 3379 2604 3257 
Q 2854 3136 3030 2912 
Q 3206 2688 3299 2368 
Q 3392 2048 3392 1651 
Q 3392 1254 3299 934 
Q 3206 614 3030 390 
Q 2854 166 2604 44 
Q 2355 -77 2048 -77 
Q 1376 -77 1082 538 
L 1056 538 
L 1056 0 
L 544 0 
L 544 4736 
z
M 1907 384 
Q 2342 384 2592 656 
Q 2842 928 2842 1370 
L 2842 1933 
Q 2842 2374 2592 2646 
Q 2342 2918 1907 2918 
Q 1734 2918 1577 2870 
Q 1421 2822 1305 2739 
Q 1190 2656 1123 2537 
Q 1056 2419 1056 2285 
L 1056 1056 
Q 1056 896 1123 771 
Q 1190 646 1305 560 
Q 1421 474 1577 429 
Q 1734 384 1907 384 
z
" transform="scale(0.015625)"/>
      </defs>
      <use xlink:href="#IBMPlexSans-Regular-73"/>
      <use xlink:href="#IBMPlexSans-Regular-6c" transform="translate(48.699997 0)"/>
      <use xlink:href="#IBMPlexSans-Regular-64" transform="translate(75.899994 0)"/>
      <use xlink:href="#IBMPlexSans-Regular-62" transform="translate(133.899979 0)"/>
     </g>
    </g>
   </g>
   <g id="matplotlib.axis_18"/>
   <g id="FillBetweenPolyCollection_4">
    <defs>
     <path id="m71489ee3f2" d="M 16.711364 -42.758771 
L 16.711364 -42.32 
L 17.66728 -42.32 
L 18.623196 -42.32 
L 19.579111 -42.32 
L 20.535027 -42.32 
L 21.490943 -42.32 
L 22.446859 -42.32 
L 23.402775 -42.32 
L 24.358691 -42.32 
L 25.314607 -42.32 
L 26.270523 -42.32 
L 27.226439 -42.32 
L 28.182355 -42.32 
L 29.138271 -42.32 
L 30.094187 -42.32 
L 31.050103 -42.32 
L 32.006019 -42.32 
L 32.961935 -42.32 
L 33.917851 -42.32 
L 34.873767 -42.32 
L 35.829683 -42.32 
L 36.785598 -42.32 
L 37.741514 -42.32 
L 38.69743 -42.32 
L 39.653346 -42.32 
L 40.609262 -42.32 
L 41.565178 -42.32 
L 42.521094 -42.32 
L 43.47701 -42.32 
L 44.432926 -42.32 
L 45.388842 -42.32 
L 46.344758 -42.32 
L 47.300674 -42.32 
L 48.25659 -42.32 
L 49.212506 -42.32 
L 50.168422 -42.32 
L 51.124338 -42.32 
L 52.080254 -42.32 
L 53.036169 -42.32 
L 53.992085 -42.32 
L 54.948001 -42.32 
L 55.903917 -42.32 
L 56.859833 -42.32 
L 57.815749 -42.32 
L 58.771665 -42.32 
L 59.727581 -42.32 
L 60.683497 -42.32 
L 61.639413 -42.32 
L 62.595329 -42.32 
L 63.551245 -42.32 
L 64.507161 -42.32 
L 65.463077 -42.32 
L 66.418993 -42.32 
L 67.374909 -42.32 
L 68.330825 -42.32 
L 69.286741 -42.32 
L 70.242656 -42.32 
L 71.198572 -42.32 
L 72.154488 -42.32 
L 73.110404 -42.32 
L 74.06632 -42.32 
L 75.022236 -42.32 
L 75.978152 -42.32 
L 76.934068 -42.32 
L 77.889984 -42.32 
L 78.8459 -42.32 
L 79.801816 -42.32 
L 80.757732 -42.32 
L 81.713648 -42.32 
L 82.669564 -42.32 
L 83.62548 -42.32 
L 84.581396 -42.32 
L 85.537312 -42.32 
L 86.493228 -42.32 
L 87.449143 -42.32 
L 88.405059 -42.32 
L 89.360975 -42.32 
L 90.316891 -42.32 
L 91.272807 -42.32 
L 92.228723 -42.32 
L 93.184639 -42.32 
L 94.140555 -42.32 
L 95.096471 -42.32 
L 96.052387 -42.32 
L 97.008303 -42.32 
L 97.964219 -42.32 
L 98.920135 -42.32 
L 99.876051 -42.32 
L 100.831967 -42.32 
L 101.787883 -42.32 
L 102.743799 -42.32 
L 103.699714 -42.32 
L 104.65563 -42.32 
L 105.611546 -42.32 
L 106.567462 -42.32 
L 107.523378 -42.32 
L 108.479294 -42.32 
L 109.43521 -42.32 
L 110.391126 -42.32 
L 111.347042 -42.32 
L 112.302958 -42.32 
L 113.258874 -42.32 
L 114.21479 -42.32 
L 115.170706 -42.32 
L 116.126622 -42.32 
L 117.082538 -42.32 
L 118.038454 -42.32 
L 118.99437 -42.32 
L 119.950286 -42.32 
L 120.906201 -42.32 
L 121.862117 -42.32 
L 122.818033 -42.32 
L 123.773949 -42.32 
L 124.729865 -42.32 
L 125.685781 -42.32 
L 126.641697 -42.32 
L 127.597613 -42.32 
L 128.553529 -42.32 
L 129.509445 -42.32 
L 130.465361 -42.32 
L 131.421277 -42.32 
L 132.377193 -42.32 
L 133.333109 -42.32 
L 134.289025 -42.32 
L 135.244941 -42.32 
L 136.200857 -42.32 
L 137.156772 -42.32 
L 138.112688 -42.32 
L 139.068604 -42.32 
L 140.02452 -42.32 
L 140.980436 -42.32 
L 141.936352 -42.32 
L 142.892268 -42.32 
L 143.848184 -42.32 
L 144.8041 -42.32 
L 145.760016 -42.32 
L 146.715932 -42.32 
L 147.671848 -42.32 
L 148.627764 -42.32 
L 149.58368 -42.32 
L 150.539596 -42.32 
L 151.495512 -42.32 
L 152.451428 -42.32 
L 153.407344 -42.32 
L 154.363259 -42.32 
L 155.319175 -42.32 
L 156.275091 -42.32 
L 157.231007 -42.32 
L 158.186923 -42.32 
L 159.142839 -42.32 
L 160.098755 -42.32 
L 161.054671 -42.32 
L 162.010587 -42.32 
L 162.966503 -42.32 
L 163.922419 -42.32 
L 164.878335 -42.32 
L 165.834251 -42.32 
L 166.790167 -42.32 
L 167.746083 -42.32 
L 168.701999 -42.32 
L 169.657915 -42.32 
L 170.613831 -42.32 
L 171.569746 -42.32 
L 172.525662 -42.32 
L 173.481578 -42.32 
L 174.437494 -42.32 
L 175.39341 -42.32 
L 176.349326 -42.32 
L 177.305242 -42.32 
L 178.261158 -42.32 
L 179.217074 -42.32 
L 180.17299 -42.32 
L 181.128906 -42.32 
L 182.084822 -42.32 
L 183.040738 -42.32 
L 183.996654 -42.32 
L 184.95257 -42.32 
L 185.908486 -42.32 
L 186.864402 -42.32 
L 187.820317 -42.32 
L 188.776233 -42.32 
L 189.732149 -42.32 
L 190.688065 -42.32 
L 191.643981 -42.32 
L 192.599897 -42.32 
L 193.555813 -42.32 
L 194.511729 -42.32 
L 195.467645 -42.32 
L 196.423561 -42.32 
L 197.379477 -42.32 
L 198.335393 -42.32 
L 199.291309 -42.32 
L 200.247225 -42.32 
L 201.203141 -42.32 
L 202.159057 -42.32 
L 203.114973 -42.32 
L 204.070889 -42.32 
L 205.026804 -42.32 
L 205.98272 -42.32 
L 206.938636 -42.32 
L 206.938636 -42.858075 
L 206.938636 -42.858075 
L 205.98272 -42.929323 
L 205.026804 -43.007002 
L 204.070889 -43.091229 
L 203.114973 -43.182052 
L 202.159057 -43.279441 
L 201.203141 -43.38328 
L 200.247225 -43.493359 
L 199.291309 -43.609367 
L 198.335393 -43.730893 
L 197.379477 -43.85742 
L 196.423561 -43.988323 
L 195.467645 -44.122876 
L 194.511729 -44.260255 
L 193.555813 -44.39954 
L 192.599897 -44.539733 
L 191.643981 -44.679765 
L 190.688065 -44.81851 
L 189.732149 -44.954805 
L 188.776233 -45.08747 
L 187.820317 -45.215323 
L 186.864402 -45.337208 
L 185.908486 -45.452018 
L 184.95257 -45.558712 
L 183.996654 -45.656346 
L 183.040738 -45.744092 
L 182.084822 -45.82126 
L 181.128906 -45.887315 
L 180.17299 -45.941897 
L 179.217074 -45.984836 
L 178.261158 -46.016158 
L 177.305242 -46.036095 
L 176.349326 -46.045089 
L 175.39341 -46.043789 
L 174.437494 -46.033046 
L 173.481578 -46.013904 
L 172.525662 -45.987588 
L 171.569746 -45.955485 
L 170.613831 -45.919125 
L 169.657915 -45.880159 
L 168.701999 -45.840333 
L 167.746083 -45.801459 
L 166.790167 -45.765391 
L 165.834251 -45.733991 
L 164.878335 -45.709105 
L 163.922419 -45.69253 
L 162.966503 -45.685989 
L 162.010587 -45.691105 
L 161.054671 -45.709374 
L 160.098755 -45.742144 
L 159.142839 -45.790595 
L 158.186923 -45.85572 
L 157.231007 -45.938312 
L 156.275091 -46.03895 
L 155.319175 -46.157992 
L 154.363259 -46.295564 
L 153.407344 -46.451564 
L 152.451428 -46.625654 
L 151.495512 -46.817269 
L 150.539596 -47.025616 
L 149.58368 -47.24969 
L 148.627764 -47.488277 
L 147.671848 -47.739975 
L 146.715932 -48.003205 
L 145.760016 -48.276233 
L 144.8041 -48.557188 
L 143.848184 -48.844088 
L 142.892268 -49.134864 
L 141.936352 -49.427381 
L 140.980436 -49.719474 
L 140.02452 -50.008964 
L 139.068604 -50.293694 
L 138.112688 -50.571552 
L 137.156772 -50.840497 
L 136.200857 -51.098583 
L 135.244941 -51.343984 
L 134.289025 -51.575008 
L 133.333109 -51.790122 
L 132.377193 -51.98796 
L 131.421277 -52.167334 
L 130.465361 -52.327248 
L 129.509445 -52.466891 
L 128.553529 -52.585648 
L 127.597613 -52.683088 
L 126.641697 -52.758963 
L 125.685781 -52.813196 
L 124.729865 -52.845872 
L 123.773949 -52.857225 
L 122.818033 -52.847618 
L 121.862117 -52.817535 
L 120.906201 -52.767562 
L 119.950286 -52.698371 
L 118.99437 -52.61071 
L 118.038454 -52.505386 
L 117.082538 -52.383258 
L 116.126622 -52.245228 
L 115.170706 -52.092232 
L 114.21479 -51.925241 
L 113.258874 -51.745258 
L 112.302958 -51.553319 
L 111.347042 -51.350495 
L 110.391126 -51.1379 
L 109.43521 -50.916696 
L 108.479294 -50.688099 
L 107.523378 -50.453387 
L 106.567462 -50.213908 
L 105.611546 -49.971083 
L 104.65563 -49.726413 
L 103.699714 -49.48148 
L 102.743799 -49.237946 
L 101.787883 -48.997553 
L 100.831967 -48.762114 
L 99.876051 -48.533503 
L 98.920135 -48.313644 
L 97.964219 -48.104495 
L 97.008303 -47.908023 
L 96.052387 -47.726189 
L 95.096471 -47.560915 
L 94.140555 -47.414057 
L 93.184639 -47.28738 
L 92.228723 -47.182518 
L 91.272807 -47.100947 
L 90.316891 -47.043952 
L 89.360975 -47.012595 
L 88.405059 -47.007682 
L 87.449143 -47.029739 
L 86.493228 -47.078985 
L 85.537312 -47.155314 
L 84.581396 -47.258276 
L 83.62548 -47.387069 
L 82.669564 -47.540534 
L 81.713648 -47.717156 
L 80.757732 -47.915077 
L 79.801816 -48.13211 
L 78.8459 -48.36576 
L 77.889984 -48.613261 
L 76.934068 -48.871606 
L 75.978152 -49.137593 
L 75.022236 -49.407875 
L 74.06632 -49.679007 
L 73.110404 -49.947502 
L 72.154488 -50.209891 
L 71.198572 -50.462775 
L 70.242656 -50.702881 
L 69.286741 -50.927116 
L 68.330825 -51.132617 
L 67.374909 -51.316791 
L 66.418993 -51.477355 
L 65.463077 -51.612365 
L 64.507161 -51.720242 
L 63.551245 -51.799782 
L 62.595329 -51.850165 
L 61.639413 -51.870952 
L 60.683497 -51.862079 
L 59.727581 -51.823837 
L 58.771665 -51.756848 
L 57.815749 -51.662043 
L 56.859833 -51.540622 
L 55.903917 -51.394026 
L 54.948001 -51.223892 
L 53.992085 -51.032021 
L 53.036169 -50.820337 
L 52.080254 -50.590851 
L 51.124338 -50.345625 
L 50.168422 -50.086743 
L 49.212506 -49.816278 
L 48.25659 -49.53627 
L 47.300674 -49.248704 
L 46.344758 -48.95549 
L 45.388842 -48.658452 
L 44.432926 -48.359315 
L 43.47701 -48.059699 
L 42.521094 -47.76111 
L 41.565178 -47.464945 
L 40.609262 -47.172481 
L 39.653346 -46.884884 
L 38.69743 -46.603207 
L 37.741514 -46.328392 
L 36.785598 -46.061276 
L 35.829683 -45.80259 
L 34.873767 -45.552965 
L 33.917851 -45.312935 
L 32.961935 -45.082941 
L 32.006019 -44.863333 
L 31.050103 -44.654375 
L 30.094187 -44.456246 
L 29.138271 -44.269048 
L 28.182355 -44.092805 
L 27.226439 -43.927471 
L 26.270523 -43.772933 
L 25.314607 -43.629015 
L 24.358691 -43.495482 
L 23.402775 -43.372051 
L 22.446859 -43.258391 
L 21.490943 -43.15413 
L 20.535027 -43.058862 
L 19.579111 -42.972155 
L 18.623196 -42.893553 
L 17.66728 -42.822585 
L 16.711364 -42.758771 
z
" style="stroke: #482475; stroke-width: 1.25"/>
    </defs>
    <g>
     <use xlink:href="#m71489ee3f2" x="0" y="174.26" style="fill: #482475; fill-opacity: 0.7; stroke: #482475; stroke-width: 1.25"/>
    </g>
   </g>
   <g id="line2d_9">
    <path d="M 7.2 131.94 
L 216.45 131.94 
" style="fill: none; stroke: #482475; stroke-opacity: 0.9; stroke-linecap: round"/>
   </g>
   <g id="text_15">
    <!-- 8 -->
    <g style="fill: #482475" transform="translate(7.2 131.022) scale(0.12 -0.12)">
     <defs>
      <path id="IBMPlexSans-Bold-38" d="M 1920 -77 
Q 1523 -77 1212 22 
Q 902 122 691 294 
Q 480 467 368 704 
Q 256 941 256 1222 
Q 256 1651 493 1923 
Q 730 2195 1133 2304 
L 1133 2355 
Q 806 2477 598 2726 
Q 390 2976 390 3366 
Q 390 3622 489 3840 
Q 589 4058 784 4214 
Q 979 4371 1264 4457 
Q 1549 4544 1920 4544 
Q 2291 4544 2576 4457 
Q 2861 4371 3056 4214 
Q 3251 4058 3350 3840 
Q 3450 3622 3450 3366 
Q 3450 2976 3242 2726 
Q 3034 2477 2707 2355 
L 2707 2304 
Q 3110 2195 3347 1923 
Q 3584 1651 3584 1222 
Q 3584 941 3472 704 
Q 3360 467 3149 294 
Q 2938 122 2627 22 
Q 2317 -77 1920 -77 
z
M 1920 659 
Q 2240 659 2409 809 
Q 2579 960 2579 1229 
L 2579 1357 
Q 2579 1626 2409 1776 
Q 2240 1926 1920 1926 
Q 1600 1926 1430 1776 
Q 1261 1626 1261 1357 
L 1261 1229 
Q 1261 960 1430 809 
Q 1600 659 1920 659 
z
M 1920 2630 
Q 2227 2630 2387 2774 
Q 2547 2918 2547 3168 
L 2547 3270 
Q 2547 3520 2387 3664 
Q 2227 3808 1920 3808 
Q 1613 3808 1453 3664 
Q 1293 3520 1293 3270 
L 1293 3168 
Q 1293 2918 1453 2774 
Q 1613 2630 1920 2630 
z
" transform="scale(0.015625)"/>
     </defs>
     <use xlink:href="#IBMPlexSans-Bold-38"/>
    </g>
   </g>
  </g>
 </g>
</svg>
