<?xml version="1.0" encoding="utf-8" standalone="no"?>
<!DOCTYPE svg PUBLIC "-//W3C//DTD SVG 1.1//EN"
  "http://www.w3.org/Graphics/SVG/1.1/DTD/svg11.dtd">
<svg xmlns:xlink="http://www.w3.org/1999/xlink" width="223.65pt" height="174.26pt" viewBox="0 0 223.65 174.26" xmlns="http://www.w3.org/2000/svg" version="1.1">
 <metadata>
  <rdf:RDF xmlns:dc="http://purl.org/dc/elements/1.1/" xmlns:cc="http://creativecommons.org/ns#" xmlns:rdf="http://www.w3.org/1999/02/22-rdf-syntax-ns#">
   <cc:Work>
    <dc:type rdf:resource="http://purl.org/dc/dcmitype/StillImage"/>
    <dc:date>2025-04-30T15:48:27.639030</dc:date>
    <dc:format>image/svg+xml</dc:format>
    <dc:creator>
     <cc:Agent>
      <dc:title>Matplotlib v3.10.1, https://matplotlib.org/</dc:title>
     </cc:Agent>
    </dc:creator>
   </cc:Work>
  </rdf:RDF>
 </metadata>
 <defs>
  <style type="text/css">*{stroke-linejoin: round; stroke-linecap: butt}</style>
 </defs>
 <g id="figure_1">
  <g id="patch_1">
   <path d="M 0 174.26 
L 223.65 174.26 
L 223.65 0 
L 0 0 
L 0 174.26 
z
" style="fill: none"/>
  </g>
  <g id="axes_1">
   <g id="patch_2">
    <path d="M 7.2 48.78 
L 216.45 48.78 
L 216.45 7.2 
L 7.2 7.2 
L 7.2 48.78 
z
" style="fill: none"/>
   </g>
   <g id="matplotlib.axis_1">
    <g id="xtick_1"/>
    <g id="xtick_2"/>
   </g>
   <g id="matplotlib.axis_2"/>
   <g id="line2d_1">
    <path d="M 7.2 48.78 
L 216.45 48.78 
" style="fill: none; stroke: #482475; stroke-opacity: 0.9; stroke-linecap: round"/>
   </g>
   <g id="text_1">
    <!-- 0 -->
    <g style="fill: #482475" transform="translate(7.2 47.862) scale(0.12 -0.12)">
     <defs>
      <path id="IBMPlexSans-Bold-30" d="M 1920 -77 
Q 1043 -77 620 531 
Q 198 1139 198 2234 
Q 198 3328 620 3936 
Q 1043 4544 1920 4544 
Q 2797 4544 3219 3936 
Q 3642 3328 3642 2234 
Q 3642 1139 3219 531 
Q 2797 -77 1920 -77 
z
M 1920 736 
Q 2304 736 2451 1017 
Q 2598 1299 2598 1811 
L 2598 2656 
Q 2598 3168 2451 3449 
Q 2304 3731 1920 3731 
Q 1536 3731 1389 3449 
Q 1242 3168 1242 2656 
L 1242 1811 
Q 1242 1299 1389 1017 
Q 1536 736 1920 736 
z
" transform="scale(0.015625)"/>
     </defs>
     <use xlink:href="#IBMPlexSans-Bold-30"/>
    </g>
   </g>
  </g>
  <g id="axes_2">
   <g id="patch_3">
    <path d="M 7.2 59.175 
L 216.45 59.175 
L 216.45 17.595 
L 7.2 17.595 
L 7.2 59.175 
z
" style="fill: none"/>
   </g>
   <g id="matplotlib.axis_3">
    <g id="xtick_3"/>
    <g id="xtick_4"/>
   </g>
   <g id="matplotlib.axis_4"/>
   <g id="FillBetweenPolyCollection_1">
    <defs>
     <path id="maa55994a59" d="M 56.464716 -115.347511 
L 56.464716 -115.085 
L 56.698973 -115.085 
L 56.933231 -115.085 
L 57.167488 -115.085 
L 57.401745 -115.085 
L 57.636002 -115.085 
L 57.87026 -115.085 
L 58.104517 -115.085 
L 58.338774 -115.085 
L 58.573031 -115.085 
L 58.807289 -115.085 
L 59.041546 -115.085 
L 59.275803 -115.085 
L 59.51006 -115.085 
L 59.744318 -115.085 
L 59.978575 -115.085 
L 60.212832 -115.085 
L 60.447089 -115.085 
L 60.681347 -115.085 
L 60.915604 -115.085 
L 61.149861 -115.085 
L 61.384118 -115.085 
L 61.618376 -115.085 
L 61.852633 -115.085 
L 62.08689 -115.085 
L 62.321147 -115.085 
L 62.555405 -115.085 
L 62.789662 -115.085 
L 63.023919 -115.085 
L 63.258176 -115.085 
L 63.492434 -115.085 
L 63.726691 -115.085 
L 63.960948 -115.085 
L 64.195205 -115.085 
L 64.429463 -115.085 
L 64.66372 -115.085 
L 64.897977 -115.085 
L 65.132234 -115.085 
L 65.366492 -115.085 
L 65.600749 -115.085 
L 65.835006 -115.085 
L 66.069263 -115.085 
L 66.303521 -115.085 
L 66.537778 -115.085 
L 66.772035 -115.085 
L 67.006292 -115.085 
L 67.24055 -115.085 
L 67.474807 -115.085 
L 67.709064 -115.085 
L 67.943321 -115.085 
L 68.177579 -115.085 
L 68.411836 -115.085 
L 68.646093 -115.085 
L 68.88035 -115.085 
L 69.114608 -115.085 
L 69.348865 -115.085 
L 69.583122 -115.085 
L 69.817379 -115.085 
L 70.051637 -115.085 
L 70.285894 -115.085 
L 70.520151 -115.085 
L 70.754408 -115.085 
L 70.988666 -115.085 
L 71.222923 -115.085 
L 71.45718 -115.085 
L 71.691437 -115.085 
L 71.925695 -115.085 
L 72.159952 -115.085 
L 72.394209 -115.085 
L 72.628466 -115.085 
L 72.862724 -115.085 
L 73.096981 -115.085 
L 73.331238 -115.085 
L 73.565495 -115.085 
L 73.799753 -115.085 
L 74.03401 -115.085 
L 74.268267 -115.085 
L 74.502524 -115.085 
L 74.736782 -115.085 
L 74.971039 -115.085 
L 75.205296 -115.085 
L 75.439553 -115.085 
L 75.673811 -115.085 
L 75.908068 -115.085 
L 76.142325 -115.085 
L 76.376582 -115.085 
L 76.61084 -115.085 
L 76.845097 -115.085 
L 77.079354 -115.085 
L 77.313611 -115.085 
L 77.547869 -115.085 
L 77.782126 -115.085 
L 78.016383 -115.085 
L 78.25064 -115.085 
L 78.484898 -115.085 
L 78.719155 -115.085 
L 78.953412 -115.085 
L 79.187669 -115.085 
L 79.421927 -115.085 
L 79.656184 -115.085 
L 79.890441 -115.085 
L 80.124698 -115.085 
L 80.358956 -115.085 
L 80.593213 -115.085 
L 80.82747 -115.085 
L 81.061727 -115.085 
L 81.295985 -115.085 
L 81.530242 -115.085 
L 81.764499 -115.085 
L 81.998756 -115.085 
L 82.233014 -115.085 
L 82.467271 -115.085 
L 82.701528 -115.085 
L 82.935785 -115.085 
L 83.170043 -115.085 
L 83.4043 -115.085 
L 83.638557 -115.085 
L 83.872814 -115.085 
L 84.107072 -115.085 
L 84.341329 -115.085 
L 84.575586 -115.085 
L 84.809843 -115.085 
L 85.044101 -115.085 
L 85.278358 -115.085 
L 85.512615 -115.085 
L 85.746872 -115.085 
L 85.98113 -115.085 
L 86.215387 -115.085 
L 86.449644 -115.085 
L 86.683901 -115.085 
L 86.918159 -115.085 
L 87.152416 -115.085 
L 87.386673 -115.085 
L 87.62093 -115.085 
L 87.855188 -115.085 
L 88.089445 -115.085 
L 88.323702 -115.085 
L 88.557959 -115.085 
L 88.792217 -115.085 
L 89.026474 -115.085 
L 89.260731 -115.085 
L 89.494988 -115.085 
L 89.729246 -115.085 
L 89.963503 -115.085 
L 90.19776 -115.085 
L 90.432017 -115.085 
L 90.666275 -115.085 
L 90.900532 -115.085 
L 91.134789 -115.085 
L 91.369046 -115.085 
L 91.603304 -115.085 
L 91.837561 -115.085 
L 92.071818 -115.085 
L 92.306075 -115.085 
L 92.540333 -115.085 
L 92.77459 -115.085 
L 93.008847 -115.085 
L 93.243104 -115.085 
L 93.477362 -115.085 
L 93.711619 -115.085 
L 93.945876 -115.085 
L 94.180133 -115.085 
L 94.414391 -115.085 
L 94.648648 -115.085 
L 94.882905 -115.085 
L 95.117162 -115.085 
L 95.35142 -115.085 
L 95.585677 -115.085 
L 95.819934 -115.085 
L 96.054191 -115.085 
L 96.288449 -115.085 
L 96.522706 -115.085 
L 96.756963 -115.085 
L 96.99122 -115.085 
L 97.225478 -115.085 
L 97.459735 -115.085 
L 97.693992 -115.085 
L 97.928249 -115.085 
L 98.162507 -115.085 
L 98.396764 -115.085 
L 98.631021 -115.085 
L 98.865278 -115.085 
L 99.099536 -115.085 
L 99.333793 -115.085 
L 99.56805 -115.085 
L 99.802307 -115.085 
L 100.036565 -115.085 
L 100.270822 -115.085 
L 100.505079 -115.085 
L 100.739336 -115.085 
L 100.973594 -115.085 
L 101.207851 -115.085 
L 101.442108 -115.085 
L 101.676365 -115.085 
L 101.910623 -115.085 
L 102.14488 -115.085 
L 102.379137 -115.085 
L 102.613394 -115.085 
L 102.847652 -115.085 
L 103.081909 -115.085 
L 103.081909 -115.34209 
L 103.081909 -115.34209 
L 102.847652 -115.374101 
L 102.613394 -115.408692 
L 102.379137 -115.4459 
L 102.14488 -115.485752 
L 101.910623 -115.528256 
L 101.676365 -115.573403 
L 101.442108 -115.621167 
L 101.207851 -115.671508 
L 100.973594 -115.724366 
L 100.739336 -115.779669 
L 100.505079 -115.837326 
L 100.270822 -115.89724 
L 100.036565 -115.959303 
L 99.802307 -116.023401 
L 99.56805 -116.089425 
L 99.333793 -116.157273 
L 99.099536 -116.226856 
L 98.865278 -116.298115 
L 98.631021 -116.371019 
L 98.396764 -116.445586 
L 98.162507 -116.521885 
L 97.928249 -116.600051 
L 97.693992 -116.680287 
L 97.459735 -116.76288 
L 97.225478 -116.848196 
L 96.99122 -116.936693 
L 96.756963 -117.02891 
L 96.522706 -117.125475 
L 96.288449 -117.227089 
L 96.054191 -117.334524 
L 95.819934 -117.448609 
L 95.585677 -117.57022 
L 95.35142 -117.700258 
L 95.117162 -117.839643 
L 94.882905 -117.989293 
L 94.648648 -118.150112 
L 94.414391 -118.322974 
L 94.180133 -118.508716 
L 93.945876 -118.708122 
L 93.711619 -118.921921 
L 93.477362 -119.150777 
L 93.243104 -119.395284 
L 93.008847 -119.655958 
L 92.77459 -119.933238 
L 92.540333 -120.227471 
L 92.306075 -120.538906 
L 92.071818 -120.86768 
L 91.837561 -121.213805 
L 91.603304 -121.577142 
L 91.369046 -121.957382 
L 91.134789 -122.354019 
L 90.900532 -122.766319 
L 90.666275 -123.193295 
L 90.432017 -123.633676 
L 90.19776 -124.085883 
L 89.963503 -124.548012 
L 89.729246 -125.017818 
L 89.494988 -125.492718 
L 89.260731 -125.969792 
L 89.026474 -126.445814 
L 88.792217 -126.917276 
L 88.557959 -127.380444 
L 88.323702 -127.831414 
L 88.089445 -128.266184 
L 87.855188 -128.68074 
L 87.62093 -129.071145 
L 87.386673 -129.433629 
L 87.152416 -129.764694 
L 86.918159 -130.0612 
L 86.683901 -130.320462 
L 86.449644 -130.540323 
L 86.215387 -130.719225 
L 85.98113 -130.856264 
L 85.746872 -130.951221 
L 85.512615 -131.004582 
L 85.278358 -131.017532 
L 85.044101 -130.991935 
L 84.809843 -130.930286 
L 84.575586 -130.835653 
L 84.341329 -130.711596 
L 84.107072 -130.562079 
L 83.872814 -130.39136 
L 83.638557 -130.203891 
L 83.4043 -130.004194 
L 83.170043 -129.796754 
L 82.935785 -129.585905 
L 82.701528 -129.375728 
L 82.467271 -129.169957 
L 82.233014 -128.971899 
L 81.998756 -128.784367 
L 81.764499 -128.609631 
L 81.530242 -128.449387 
L 81.295985 -128.304742 
L 81.061727 -128.176214 
L 80.82747 -128.063754 
L 80.593213 -127.966783 
L 80.358956 -127.884234 
L 80.124698 -127.814615 
L 79.890441 -127.756081 
L 79.656184 -127.706504 
L 79.421927 -127.663556 
L 79.187669 -127.624791 
L 78.953412 -127.587725 
L 78.719155 -127.549912 
L 78.484898 -127.509016 
L 78.25064 -127.46288 
L 78.016383 -127.409575 
L 77.782126 -127.347446 
L 77.547869 -127.275148 
L 77.313611 -127.191668 
L 77.079354 -127.096327 
L 76.845097 -126.988787 
L 76.61084 -126.869029 
L 76.376582 -126.737332 
L 76.142325 -126.59424 
L 75.908068 -126.440522 
L 75.673811 -126.277124 
L 75.439553 -126.105122 
L 75.205296 -125.925673 
L 74.971039 -125.739961 
L 74.736782 -125.549156 
L 74.502524 -125.354368 
L 74.268267 -125.15661 
L 74.03401 -124.956774 
L 73.799753 -124.755603 
L 73.565495 -124.553683 
L 73.331238 -124.351435 
L 73.096981 -124.14912 
L 72.862724 -123.946849 
L 72.628466 -123.744599 
L 72.394209 -123.542235 
L 72.159952 -123.339539 
L 71.925695 -123.136235 
L 71.691437 -122.932018 
L 71.45718 -122.726585 
L 71.222923 -122.519663 
L 70.988666 -122.311029 
L 70.754408 -122.100536 
L 70.520151 -121.888124 
L 70.285894 -121.673835 
L 70.051637 -121.457815 
L 69.817379 -121.240318 
L 69.583122 -121.021701 
L 69.348865 -120.802411 
L 69.114608 -120.58298 
L 68.88035 -120.364007 
L 68.646093 -120.146136 
L 68.411836 -119.930049 
L 68.177579 -119.716435 
L 67.943321 -119.505982 
L 67.709064 -119.299359 
L 67.474807 -119.097197 
L 67.24055 -118.900083 
L 67.006292 -118.708547 
L 66.772035 -118.523057 
L 66.537778 -118.344013 
L 66.303521 -118.171748 
L 66.069263 -118.006525 
L 65.835006 -117.848542 
L 65.600749 -117.697931 
L 65.366492 -117.554765 
L 65.132234 -117.41906 
L 64.897977 -117.290782 
L 64.66372 -117.169848 
L 64.429463 -117.05613 
L 64.195205 -116.94946 
L 63.960948 -116.849632 
L 63.726691 -116.756403 
L 63.492434 -116.669496 
L 63.258176 -116.588605 
L 63.023919 -116.513392 
L 62.789662 -116.443493 
L 62.555405 -116.37852 
L 62.321147 -116.318065 
L 62.08689 -116.261708 
L 61.852633 -116.209014 
L 61.618376 -116.159549 
L 61.384118 -116.11288 
L 61.149861 -116.068585 
L 60.915604 -116.026261 
L 60.681347 -115.985529 
L 60.447089 -115.946044 
L 60.212832 -115.9075 
L 59.978575 -115.869633 
L 59.744318 -115.832229 
L 59.51006 -115.795127 
L 59.275803 -115.758215 
L 59.041546 -115.721436 
L 58.807289 -115.684778 
L 58.573031 -115.648279 
L 58.338774 -115.612016 
L 58.104517 -115.576101 
L 57.87026 -115.54067 
L 57.636002 -115.505883 
L 57.401745 -115.471909 
L 57.167488 -115.43892 
L 56.933231 -115.407088 
L 56.698973 -115.37657 
L 56.464716 -115.347511 
z
" style="stroke: #2a788e; stroke-width: 1.25"/>
    </defs>
    <g>
     <use xlink:href="#maa55994a59" x="0" y="174.26" style="fill: #2a788e; fill-opacity: 0.7; stroke: #2a788e; stroke-width: 1.25"/>
    </g>
   </g>
   <g id="line2d_2">
    <path d="M 7.2 59.175 
L 216.45 59.175 
" style="fill: none; stroke: #2a788e; stroke-opacity: 0.9; stroke-linecap: round"/>
   </g>
   <g id="text_2">
    <!-- 1 -->
    <g style="fill: #2a788e" transform="translate(7.2 58.257) scale(0.12 -0.12)">
     <defs>
      <path id="IBMPlexSans-Bold-31" d="M 602 0 
L 602 774 
L 1805 774 
L 1805 3770 
L 1747 3770 
L 838 2579 
L 224 3059 
L 1293 4467 
L 2765 4467 
L 2765 774 
L 3712 774 
L 3712 0 
L 602 0 
z
" transform="scale(0.015625)"/>
     </defs>
     <use xlink:href="#IBMPlexSans-Bold-31"/>
    </g>
   </g>
  </g>
  <g id="axes_3">
   <g id="patch_4">
    <path d="M 7.2 69.57 
L 216.45 69.57 
L 216.45 27.99 
L 7.2 27.99 
L 7.2 69.57 
z
" style="fill: none"/>
   </g>
   <g id="matplotlib.axis_5">
    <g id="xtick_5"/>
    <g id="xtick_6"/>
   </g>
   <g id="matplotlib.axis_6"/>
   <g id="FillBetweenPolyCollection_2">
    <defs>
     <path id="mbdc6327e55" d="M 43.001842 -104.833022 
L 43.001842 -104.69 
L 43.475692 -104.69 
L 43.949541 -104.69 
L 44.423391 -104.69 
L 44.897241 -104.69 
L 45.371091 -104.69 
L 45.844941 -104.69 
L 46.318791 -104.69 
L 46.792641 -104.69 
L 47.266491 -104.69 
L 47.740341 -104.69 
L 48.214191 -104.69 
L 48.688041 -104.69 
L 49.161891 -104.69 
L 49.635741 -104.69 
L 50.109591 -104.69 
L 50.58344 -104.69 
L 51.05729 -104.69 
L 51.53114 -104.69 
L 52.00499 -104.69 
L 52.47884 -104.69 
L 52.95269 -104.69 
L 53.42654 -104.69 
L 53.90039 -104.69 
L 54.37424 -104.69 
L 54.84809 -104.69 
L 55.32194 -104.69 
L 55.79579 -104.69 
L 56.26964 -104.69 
L 56.74349 -104.69 
L 57.217339 -104.69 
L 57.691189 -104.69 
L 58.165039 -104.69 
L 58.638889 -104.69 
L 59.112739 -104.69 
L 59.586589 -104.69 
L 60.060439 -104.69 
L 60.534289 -104.69 
L 61.008139 -104.69 
L 61.481989 -104.69 
L 61.955839 -104.69 
L 62.429689 -104.69 
L 62.903539 -104.69 
L 63.377388 -104.69 
L 63.851238 -104.69 
L 64.325088 -104.69 
L 64.798938 -104.69 
L 65.272788 -104.69 
L 65.746638 -104.69 
L 66.220488 -104.69 
L 66.694338 -104.69 
L 67.168188 -104.69 
L 67.642038 -104.69 
L 68.115888 -104.69 
L 68.589738 -104.69 
L 69.063588 -104.69 
L 69.537438 -104.69 
L 70.011287 -104.69 
L 70.485137 -104.69 
L 70.958987 -104.69 
L 71.432837 -104.69 
L 71.906687 -104.69 
L 72.380537 -104.69 
L 72.854387 -104.69 
L 73.328237 -104.69 
L 73.802087 -104.69 
L 74.275937 -104.69 
L 74.749787 -104.69 
L 75.223637 -104.69 
L 75.697487 -104.69 
L 76.171336 -104.69 
L 76.645186 -104.69 
L 77.119036 -104.69 
L 77.592886 -104.69 
L 78.066736 -104.69 
L 78.540586 -104.69 
L 79.014436 -104.69 
L 79.488286 -104.69 
L 79.962136 -104.69 
L 80.435986 -104.69 
L 80.909836 -104.69 
L 81.383686 -104.69 
L 81.857536 -104.69 
L 82.331386 -104.69 
L 82.805235 -104.69 
L 83.279085 -104.69 
L 83.752935 -104.69 
L 84.226785 -104.69 
L 84.700635 -104.69 
L 85.174485 -104.69 
L 85.648335 -104.69 
L 86.122185 -104.69 
L 86.596035 -104.69 
L 87.069885 -104.69 
L 87.543735 -104.69 
L 88.017585 -104.69 
L 88.491435 -104.69 
L 88.965285 -104.69 
L 89.439134 -104.69 
L 89.912984 -104.69 
L 90.386834 -104.69 
L 90.860684 -104.69 
L 91.334534 -104.69 
L 91.808384 -104.69 
L 92.282234 -104.69 
L 92.756084 -104.69 
L 93.229934 -104.69 
L 93.703784 -104.69 
L 94.177634 -104.69 
L 94.651484 -104.69 
L 95.125334 -104.69 
L 95.599183 -104.69 
L 96.073033 -104.69 
L 96.546883 -104.69 
L 97.020733 -104.69 
L 97.494583 -104.69 
L 97.968433 -104.69 
L 98.442283 -104.69 
L 98.916133 -104.69 
L 99.389983 -104.69 
L 99.863833 -104.69 
L 100.337683 -104.69 
L 100.811533 -104.69 
L 101.285383 -104.69 
L 101.759233 -104.69 
L 102.233082 -104.69 
L 102.706932 -104.69 
L 103.180782 -104.69 
L 103.654632 -104.69 
L 104.128482 -104.69 
L 104.602332 -104.69 
L 105.076182 -104.69 
L 105.550032 -104.69 
L 106.023882 -104.69 
L 106.497732 -104.69 
L 106.971582 -104.69 
L 107.445432 -104.69 
L 107.919282 -104.69 
L 108.393131 -104.69 
L 108.866981 -104.69 
L 109.340831 -104.69 
L 109.814681 -104.69 
L 110.288531 -104.69 
L 110.762381 -104.69 
L 111.236231 -104.69 
L 111.710081 -104.69 
L 112.183931 -104.69 
L 112.657781 -104.69 
L 113.131631 -104.69 
L 113.605481 -104.69 
L 114.079331 -104.69 
L 114.553181 -104.69 
L 115.02703 -104.69 
L 115.50088 -104.69 
L 115.97473 -104.69 
L 116.44858 -104.69 
L 116.92243 -104.69 
L 117.39628 -104.69 
L 117.87013 -104.69 
L 118.34398 -104.69 
L 118.81783 -104.69 
L 119.29168 -104.69 
L 119.76553 -104.69 
L 120.23938 -104.69 
L 120.71323 -104.69 
L 121.18708 -104.69 
L 121.660929 -104.69 
L 122.134779 -104.69 
L 122.608629 -104.69 
L 123.082479 -104.69 
L 123.556329 -104.69 
L 124.030179 -104.69 
L 124.504029 -104.69 
L 124.977879 -104.69 
L 125.451729 -104.69 
L 125.925579 -104.69 
L 126.399429 -104.69 
L 126.873279 -104.69 
L 127.347129 -104.69 
L 127.820978 -104.69 
L 128.294828 -104.69 
L 128.768678 -104.69 
L 129.242528 -104.69 
L 129.716378 -104.69 
L 130.190228 -104.69 
L 130.664078 -104.69 
L 131.137928 -104.69 
L 131.611778 -104.69 
L 132.085628 -104.69 
L 132.559478 -104.69 
L 133.033328 -104.69 
L 133.507178 -104.69 
L 133.981028 -104.69 
L 134.454877 -104.69 
L 134.928727 -104.69 
L 135.402577 -104.69 
L 135.876427 -104.69 
L 136.350277 -104.69 
L 136.824127 -104.69 
L 137.297977 -104.69 
L 137.297977 -104.817346 
L 137.297977 -104.817346 
L 136.824127 -104.833066 
L 136.350277 -104.850021 
L 135.876427 -104.868224 
L 135.402577 -104.887677 
L 134.928727 -104.908374 
L 134.454877 -104.930298 
L 133.981028 -104.953424 
L 133.507178 -104.977718 
L 133.033328 -105.003135 
L 132.559478 -105.029623 
L 132.085628 -105.057123 
L 131.611778 -105.085568 
L 131.137928 -105.114887 
L 130.664078 -105.14501 
L 130.190228 -105.175863 
L 129.716378 -105.20738 
L 129.242528 -105.239502 
L 128.768678 -105.272185 
L 128.294828 -105.305401 
L 127.820978 -105.339147 
L 127.347129 -105.373448 
L 126.873279 -105.408363 
L 126.399429 -105.443989 
L 125.925579 -105.480466 
L 125.451729 -105.51798 
L 124.977879 -105.556762 
L 124.504029 -105.597092 
L 124.030179 -105.639294 
L 123.556329 -105.683738 
L 123.082479 -105.73083 
L 122.608629 -105.781008 
L 122.134779 -105.834736 
L 121.660929 -105.892495 
L 121.18708 -105.954772 
L 120.71323 -106.022055 
L 120.23938 -106.094818 
L 119.76553 -106.173518 
L 119.29168 -106.258585 
L 118.81783 -106.350414 
L 118.34398 -106.449361 
L 117.87013 -106.555739 
L 117.39628 -106.669816 
L 116.92243 -106.79181 
L 116.44858 -106.92189 
L 115.97473 -107.060175 
L 115.50088 -107.20673 
L 115.02703 -107.361569 
L 114.553181 -107.524647 
L 114.079331 -107.695861 
L 113.605481 -107.87504 
L 113.131631 -108.061938 
L 112.657781 -108.25623 
L 112.183931 -108.457495 
L 111.710081 -108.665211 
L 111.236231 -108.878743 
L 110.762381 -109.097331 
L 110.288531 -109.320086 
L 109.814681 -109.545979 
L 109.340831 -109.773846 
L 108.866981 -110.002383 
L 108.393131 -110.230158 
L 107.919282 -110.455619 
L 107.445432 -110.677118 
L 106.971582 -110.892928 
L 106.497732 -111.101274 
L 106.023882 -111.300369 
L 105.550032 -111.488445 
L 105.076182 -111.6638 
L 104.602332 -111.82483 
L 104.128482 -111.97008 
L 103.654632 -112.098276 
L 103.180782 -112.208365 
L 102.706932 -112.299547 
L 102.233082 -112.371301 
L 101.759233 -112.423406 
L 101.285383 -112.455951 
L 100.811533 -112.469341 
L 100.337683 -112.464292 
L 99.863833 -112.441814 
L 99.389983 -112.403194 
L 98.916133 -112.349962 
L 98.442283 -112.283853 
L 97.968433 -112.20677 
L 97.494583 -112.120731 
L 97.020733 -112.027819 
L 96.546883 -111.930137 
L 96.073033 -111.829746 
L 95.599183 -111.728625 
L 95.125334 -111.62862 
L 94.651484 -111.531406 
L 94.177634 -111.438446 
L 93.703784 -111.350972 
L 93.229934 -111.269956 
L 92.756084 -111.196102 
L 92.282234 -111.12984 
L 91.808384 -111.071331 
L 91.334534 -111.020474 
L 90.860684 -110.976931 
L 90.386834 -110.940143 
L 89.912984 -110.909366 
L 89.439134 -110.883698 
L 88.965285 -110.862118 
L 88.491435 -110.843523 
L 88.017585 -110.826763 
L 87.543735 -110.810678 
L 87.069885 -110.794133 
L 86.596035 -110.776051 
L 86.122185 -110.755436 
L 85.648335 -110.731401 
L 85.174485 -110.703184 
L 84.700635 -110.670162 
L 84.226785 -110.631859 
L 83.752935 -110.58795 
L 83.279085 -110.538256 
L 82.805235 -110.482741 
L 82.331386 -110.421496 
L 81.857536 -110.354732 
L 81.383686 -110.282752 
L 80.909836 -110.205944 
L 80.435986 -110.124749 
L 79.962136 -110.039647 
L 79.488286 -109.951136 
L 79.014436 -109.859707 
L 78.540586 -109.765836 
L 78.066736 -109.66996 
L 77.592886 -109.572469 
L 77.119036 -109.473698 
L 76.645186 -109.373919 
L 76.171336 -109.273344 
L 75.697487 -109.172117 
L 75.223637 -109.070329 
L 74.749787 -108.968018 
L 74.275937 -108.86518 
L 73.802087 -108.761779 
L 73.328237 -108.65776 
L 72.854387 -108.553058 
L 72.380537 -108.447612 
L 71.906687 -108.341376 
L 71.432837 -108.234326 
L 70.958987 -108.126468 
L 70.485137 -108.017846 
L 70.011287 -107.908543 
L 69.537438 -107.798685 
L 69.063588 -107.688438 
L 68.589738 -107.578007 
L 68.115888 -107.467632 
L 67.642038 -107.357579 
L 67.168188 -107.24814 
L 66.694338 -107.13962 
L 66.220488 -107.032333 
L 65.746638 -106.926592 
L 65.272788 -106.822705 
L 64.798938 -106.720971 
L 64.325088 -106.621666 
L 63.851238 -106.525048 
L 63.377388 -106.431351 
L 62.903539 -106.340779 
L 62.429689 -106.253509 
L 61.955839 -106.169689 
L 61.481989 -106.089437 
L 61.008139 -106.012841 
L 60.534289 -105.939963 
L 60.060439 -105.870836 
L 59.586589 -105.805467 
L 59.112739 -105.743837 
L 58.638889 -105.685902 
L 58.165039 -105.631595 
L 57.691189 -105.580826 
L 57.217339 -105.533479 
L 56.74349 -105.48942 
L 56.26964 -105.448493 
L 55.79579 -105.410522 
L 55.32194 -105.375314 
L 54.84809 -105.34266 
L 54.37424 -105.312339 
L 53.90039 -105.284119 
L 53.42654 -105.257765 
L 52.95269 -105.233036 
L 52.47884 -105.209695 
L 52.00499 -105.187514 
L 51.53114 -105.166274 
L 51.05729 -105.145773 
L 50.58344 -105.125827 
L 50.109591 -105.106279 
L 49.635741 -105.086994 
L 49.161891 -105.067869 
L 48.688041 -105.048826 
L 48.214191 -105.029821 
L 47.740341 -105.010836 
L 47.266491 -104.991878 
L 46.792641 -104.972983 
L 46.318791 -104.954204 
L 45.844941 -104.935611 
L 45.371091 -104.91729 
L 44.897241 -104.899331 
L 44.423391 -104.881832 
L 43.949541 -104.864888 
L 43.475692 -104.84859 
L 43.001842 -104.833022 
z
" style="stroke: #21918c; stroke-width: 1.25"/>
    </defs>
    <g>
     <use xlink:href="#mbdc6327e55" x="0" y="174.26" style="fill: #21918c; fill-opacity: 0.7; stroke: #21918c; stroke-width: 1.25"/>
    </g>
   </g>
   <g id="line2d_3">
    <path d="M 7.2 69.57 
L 216.45 69.57 
" style="fill: none; stroke: #21918c; stroke-opacity: 0.9; stroke-linecap: round"/>
   </g>
   <g id="text_3">
    <!-- 2 -->
    <g style="fill: #21918c" transform="translate(7.2 68.652) scale(0.12 -0.12)">
     <defs>
      <path id="IBMPlexSans-Bold-32" d="M 3526 0 
L 365 0 
L 365 877 
L 1741 2054 
Q 1926 2214 2054 2345 
Q 2182 2477 2262 2601 
Q 2342 2726 2377 2848 
Q 2413 2970 2413 3110 
L 2413 3200 
Q 2413 3328 2361 3424 
Q 2310 3520 2227 3584 
Q 2144 3648 2038 3680 
Q 1933 3712 1824 3712 
Q 1664 3712 1545 3661 
Q 1427 3610 1340 3523 
Q 1254 3437 1196 3325 
Q 1139 3213 1107 3085 
L 269 3405 
Q 346 3635 480 3843 
Q 614 4051 816 4208 
Q 1018 4365 1293 4454 
Q 1568 4544 1914 4544 
Q 2278 4544 2560 4441 
Q 2842 4339 3037 4160 
Q 3232 3981 3334 3734 
Q 3437 3488 3437 3200 
Q 3437 2912 3341 2675 
Q 3245 2438 3081 2230 
Q 2918 2022 2700 1836 
Q 2483 1651 2246 1459 
L 1414 806 
L 3526 806 
L 3526 0 
z
" transform="scale(0.015625)"/>
     </defs>
     <use xlink:href="#IBMPlexSans-Bold-32"/>
    </g>
   </g>
  </g>
  <g id="axes_4">
   <g id="patch_5">
    <path d="M 7.2 79.965 
L 216.45 79.965 
L 216.45 38.385 
L 7.2 38.385 
L 7.2 79.965 
z
" style="fill: none"/>
   </g>
   <g id="matplotlib.axis_7">
    <g id="xtick_7"/>
    <g id="xtick_8"/>
   </g>
   <g id="matplotlib.axis_8"/>
   <g id="FillBetweenPolyCollection_3">
    <defs>
     <path id="me0df7f23e8" d="M 29.74239 -94.398454 
L 29.74239 -94.295 
L 30.458105 -94.295 
L 31.17382 -94.295 
L 31.889535 -94.295 
L 32.605249 -94.295 
L 33.320964 -94.295 
L 34.036679 -94.295 
L 34.752394 -94.295 
L 35.468109 -94.295 
L 36.183824 -94.295 
L 36.899539 -94.295 
L 37.615254 -94.295 
L 38.330968 -94.295 
L 39.046683 -94.295 
L 39.762398 -94.295 
L 40.478113 -94.295 
L 41.193828 -94.295 
L 41.909543 -94.295 
L 42.625258 -94.295 
L 43.340972 -94.295 
L 44.056687 -94.295 
L 44.772402 -94.295 
L 45.488117 -94.295 
L 46.203832 -94.295 
L 46.919547 -94.295 
L 47.635262 -94.295 
L 48.350977 -94.295 
L 49.066691 -94.295 
L 49.782406 -94.295 
L 50.498121 -94.295 
L 51.213836 -94.295 
L 51.929551 -94.295 
L 52.645266 -94.295 
L 53.360981 -94.295 
L 54.076696 -94.295 
L 54.79241 -94.295 
L 55.508125 -94.295 
L 56.22384 -94.295 
L 56.939555 -94.295 
L 57.65527 -94.295 
L 58.370985 -94.295 
L 59.0867 -94.295 
L 59.802414 -94.295 
L 60.518129 -94.295 
L 61.233844 -94.295 
L 61.949559 -94.295 
L 62.665274 -94.295 
L 63.380989 -94.295 
L 64.096704 -94.295 
L 64.812419 -94.295 
L 65.528133 -94.295 
L 66.243848 -94.295 
L 66.959563 -94.295 
L 67.675278 -94.295 
L 68.390993 -94.295 
L 69.106708 -94.295 
L 69.822423 -94.295 
L 70.538138 -94.295 
L 71.253852 -94.295 
L 71.969567 -94.295 
L 72.685282 -94.295 
L 73.400997 -94.295 
L 74.116712 -94.295 
L 74.832427 -94.295 
L 75.548142 -94.295 
L 76.263857 -94.295 
L 76.979571 -94.295 
L 77.695286 -94.295 
L 78.411001 -94.295 
L 79.126716 -94.295 
L 79.842431 -94.295 
L 80.558146 -94.295 
L 81.273861 -94.295 
L 81.989575 -94.295 
L 82.70529 -94.295 
L 83.421005 -94.295 
L 84.13672 -94.295 
L 84.852435 -94.295 
L 85.56815 -94.295 
L 86.283865 -94.295 
L 86.99958 -94.295 
L 87.715294 -94.295 
L 88.431009 -94.295 
L 89.146724 -94.295 
L 89.862439 -94.295 
L 90.578154 -94.295 
L 91.293869 -94.295 
L 92.009584 -94.295 
L 92.725299 -94.295 
L 93.441013 -94.295 
L 94.156728 -94.295 
L 94.872443 -94.295 
L 95.588158 -94.295 
L 96.303873 -94.295 
L 97.019588 -94.295 
L 97.735303 -94.295 
L 98.451017 -94.295 
L 99.166732 -94.295 
L 99.882447 -94.295 
L 100.598162 -94.295 
L 101.313877 -94.295 
L 102.029592 -94.295 
L 102.745307 -94.295 
L 103.461022 -94.295 
L 104.176736 -94.295 
L 104.892451 -94.295 
L 105.608166 -94.295 
L 106.323881 -94.295 
L 107.039596 -94.295 
L 107.755311 -94.295 
L 108.471026 -94.295 
L 109.186741 -94.295 
L 109.902455 -94.295 
L 110.61817 -94.295 
L 111.333885 -94.295 
L 112.0496 -94.295 
L 112.765315 -94.295 
L 113.48103 -94.295 
L 114.196745 -94.295 
L 114.912459 -94.295 
L 115.628174 -94.295 
L 116.343889 -94.295 
L 117.059604 -94.295 
L 117.775319 -94.295 
L 118.491034 -94.295 
L 119.206749 -94.295 
L 119.922464 -94.295 
L 120.638178 -94.295 
L 121.353893 -94.295 
L 122.069608 -94.295 
L 122.785323 -94.295 
L 123.501038 -94.295 
L 124.216753 -94.295 
L 124.932468 -94.295 
L 125.648183 -94.295 
L 126.363897 -94.295 
L 127.079612 -94.295 
L 127.795327 -94.295 
L 128.511042 -94.295 
L 129.226757 -94.295 
L 129.942472 -94.295 
L 130.658187 -94.295 
L 131.373902 -94.295 
L 132.089616 -94.295 
L 132.805331 -94.295 
L 133.521046 -94.295 
L 134.236761 -94.295 
L 134.952476 -94.295 
L 135.668191 -94.295 
L 136.383906 -94.295 
L 137.09962 -94.295 
L 137.815335 -94.295 
L 138.53105 -94.295 
L 139.246765 -94.295 
L 139.96248 -94.295 
L 140.678195 -94.295 
L 141.39391 -94.295 
L 142.109625 -94.295 
L 142.825339 -94.295 
L 143.541054 -94.295 
L 144.256769 -94.295 
L 144.972484 -94.295 
L 145.688199 -94.295 
L 146.403914 -94.295 
L 147.119629 -94.295 
L 147.835344 -94.295 
L 148.551058 -94.295 
L 149.266773 -94.295 
L 149.982488 -94.295 
L 150.698203 -94.295 
L 151.413918 -94.295 
L 152.129633 -94.295 
L 152.845348 -94.295 
L 153.561062 -94.295 
L 154.276777 -94.295 
L 154.992492 -94.295 
L 155.708207 -94.295 
L 156.423922 -94.295 
L 157.139637 -94.295 
L 157.855352 -94.295 
L 158.571067 -94.295 
L 159.286781 -94.295 
L 160.002496 -94.295 
L 160.718211 -94.295 
L 161.433926 -94.295 
L 162.149641 -94.295 
L 162.865356 -94.295 
L 163.581071 -94.295 
L 164.296786 -94.295 
L 165.0125 -94.295 
L 165.728215 -94.295 
L 166.44393 -94.295 
L 167.159645 -94.295 
L 167.87536 -94.295 
L 168.591075 -94.295 
L 169.30679 -94.295 
L 170.022505 -94.295 
L 170.738219 -94.295 
L 171.453934 -94.295 
L 172.169649 -94.295 
L 172.169649 -94.384605 
L 172.169649 -94.384605 
L 171.453934 -94.395656 
L 170.738219 -94.407549 
L 170.022505 -94.420279 
L 169.30679 -94.433834 
L 168.591075 -94.448193 
L 167.87536 -94.463325 
L 167.159645 -94.479191 
L 166.44393 -94.495746 
L 165.728215 -94.512934 
L 165.0125 -94.530695 
L 164.296786 -94.548965 
L 163.581071 -94.567675 
L 162.865356 -94.586754 
L 162.149641 -94.606136 
L 161.433926 -94.625755 
L 160.718211 -94.645554 
L 160.002496 -94.665486 
L 159.286781 -94.68552 
L 158.571067 -94.705639 
L 157.855352 -94.725851 
L 157.139637 -94.746187 
L 156.423922 -94.766706 
L 155.708207 -94.787496 
L 154.992492 -94.808681 
L 154.276777 -94.830414 
L 153.561062 -94.852887 
L 152.845348 -94.876319 
L 152.129633 -94.900966 
L 151.413918 -94.927107 
L 150.698203 -94.955048 
L 149.982488 -94.985114 
L 149.266773 -95.01764 
L 148.551058 -95.052972 
L 147.835344 -95.091453 
L 147.119629 -95.133421 
L 146.403914 -95.179199 
L 145.688199 -95.229091 
L 144.972484 -95.283376 
L 144.256769 -95.342304 
L 143.541054 -95.406089 
L 142.825339 -95.474914 
L 142.109625 -95.548919 
L 141.39391 -95.628209 
L 140.678195 -95.712852 
L 139.96248 -95.802877 
L 139.246765 -95.898277 
L 138.53105 -95.99901 
L 137.815335 -96.104998 
L 137.09962 -96.216129 
L 136.383906 -96.332253 
L 135.668191 -96.45318 
L 134.952476 -96.578679 
L 134.236761 -96.708473 
L 133.521046 -96.84223 
L 132.805331 -96.979562 
L 132.089616 -97.120018 
L 131.373902 -97.263077 
L 130.658187 -97.408145 
L 129.942472 -97.55455 
L 129.226757 -97.701544 
L 128.511042 -97.8483 
L 127.795327 -97.993922 
L 127.079612 -98.137446 
L 126.363897 -98.277856 
L 125.648183 -98.414094 
L 124.932468 -98.545079 
L 124.216753 -98.669728 
L 123.501038 -98.786975 
L 122.785323 -98.895799 
L 122.069608 -98.995244 
L 121.353893 -99.084447 
L 120.638178 -99.162661 
L 119.922464 -99.229278 
L 119.206749 -99.283846 
L 118.491034 -99.326088 
L 117.775319 -99.355913 
L 117.059604 -99.373424 
L 116.343889 -99.378916 
L 115.628174 -99.372881 
L 114.912459 -99.35599 
L 114.196745 -99.329085 
L 113.48103 -99.293161 
L 112.765315 -99.249336 
L 112.0496 -99.198833 
L 111.333885 -99.142942 
L 110.61817 -99.082995 
L 109.902455 -99.020329 
L 109.186741 -98.956255 
L 108.471026 -98.892027 
L 107.755311 -98.828814 
L 107.039596 -98.76767 
L 106.323881 -98.709516 
L 105.608166 -98.655119 
L 104.892451 -98.605082 
L 104.176736 -98.559831 
L 103.461022 -98.519619 
L 102.745307 -98.484522 
L 102.029592 -98.454449 
L 101.313877 -98.429156 
L 100.598162 -98.408256 
L 99.882447 -98.391243 
L 99.166732 -98.377511 
L 98.451017 -98.366377 
L 97.735303 -98.357103 
L 97.019588 -98.348925 
L 96.303873 -98.341071 
L 95.588158 -98.332789 
L 94.872443 -98.323359 
L 94.156728 -98.312121 
L 93.441013 -98.298482 
L 92.725299 -98.281932 
L 92.009584 -98.262052 
L 91.293869 -98.238517 
L 90.578154 -98.211103 
L 89.862439 -98.179682 
L 89.146724 -98.144218 
L 88.431009 -98.10476 
L 87.715294 -98.061438 
L 86.99958 -98.014443 
L 86.283865 -97.964024 
L 85.56815 -97.910468 
L 84.852435 -97.854091 
L 84.13672 -97.795224 
L 83.421005 -97.734197 
L 82.70529 -97.671335 
L 81.989575 -97.60694 
L 81.273861 -97.541289 
L 80.558146 -97.474624 
L 79.842431 -97.40715 
L 79.126716 -97.339035 
L 78.411001 -97.270404 
L 77.695286 -97.201348 
L 76.979571 -97.131925 
L 76.263857 -97.062164 
L 75.548142 -96.992072 
L 74.832427 -96.92164 
L 74.116712 -96.850854 
L 73.400997 -96.779695 
L 72.685282 -96.708152 
L 71.969567 -96.636224 
L 71.253852 -96.563925 
L 70.538138 -96.491289 
L 69.822423 -96.418371 
L 69.106708 -96.34525 
L 68.390993 -96.272026 
L 67.675278 -96.198821 
L 66.959563 -96.125776 
L 66.243848 -96.05305 
L 65.528133 -95.980813 
L 64.812419 -95.909246 
L 64.096704 -95.838534 
L 63.380989 -95.768864 
L 62.665274 -95.700422 
L 61.949559 -95.633386 
L 61.233844 -95.56793 
L 60.518129 -95.504214 
L 59.802414 -95.442387 
L 59.0867 -95.382583 
L 58.370985 -95.324923 
L 57.65527 -95.269509 
L 56.939555 -95.216428 
L 56.22384 -95.165752 
L 55.508125 -95.117531 
L 54.79241 -95.0718 
L 54.076696 -95.028578 
L 53.360981 -94.987862 
L 52.645266 -94.949634 
L 51.929551 -94.913856 
L 51.213836 -94.880472 
L 50.498121 -94.849408 
L 49.782406 -94.820573 
L 49.066691 -94.79386 
L 48.350977 -94.769144 
L 47.635262 -94.746288 
L 46.919547 -94.725142 
L 46.203832 -94.705546 
L 45.488117 -94.687335 
L 44.772402 -94.670337 
L 44.056687 -94.654382 
L 43.340972 -94.639301 
L 42.625258 -94.624933 
L 41.909543 -94.611126 
L 41.193828 -94.59774 
L 40.478113 -94.584652 
L 39.762398 -94.571758 
L 39.046683 -94.558971 
L 38.330968 -94.546227 
L 37.615254 -94.533483 
L 36.899539 -94.520717 
L 36.183824 -94.507927 
L 35.468109 -94.495129 
L 34.752394 -94.482355 
L 34.036679 -94.469653 
L 33.320964 -94.457078 
L 32.605249 -94.444695 
L 31.889535 -94.432573 
L 31.17382 -94.420781 
L 30.458105 -94.409386 
L 29.74239 -94.398454 
z
" style="stroke: #44bf70; stroke-width: 1.25"/>
    </defs>
    <g>
     <use xlink:href="#me0df7f23e8" x="0" y="174.26" style="fill: #44bf70; fill-opacity: 0.7; stroke: #44bf70; stroke-width: 1.25"/>
    </g>
   </g>
   <g id="line2d_4">
    <path d="M 7.2 79.965 
L 216.45 79.965 
" style="fill: none; stroke: #44bf70; stroke-opacity: 0.9; stroke-linecap: round"/>
   </g>
   <g id="text_4">
    <!-- 3 -->
    <g style="fill: #44bf70" transform="translate(7.2 79.047) scale(0.12 -0.12)">
     <defs>
      <path id="IBMPlexSans-Bold-33" d="M 1677 2701 
Q 2035 2701 2198 2838 
Q 2362 2976 2362 3181 
L 2362 3226 
Q 2362 3469 2205 3616 
Q 2048 3763 1760 3763 
Q 1491 3763 1254 3625 
Q 1018 3488 851 3232 
L 250 3795 
Q 378 3962 525 4099 
Q 672 4237 857 4336 
Q 1043 4435 1273 4489 
Q 1504 4544 1792 4544 
Q 2150 4544 2441 4461 
Q 2733 4378 2941 4221 
Q 3149 4064 3261 3846 
Q 3373 3629 3373 3360 
Q 3373 3149 3305 2976 
Q 3238 2803 3120 2675 
Q 3002 2547 2848 2467 
Q 2694 2387 2522 2355 
L 2522 2317 
Q 2720 2278 2889 2192 
Q 3059 2106 3184 1971 
Q 3309 1837 3379 1654 
Q 3450 1472 3450 1242 
Q 3450 941 3328 697 
Q 3206 454 2982 281 
Q 2758 109 2444 16 
Q 2131 -77 1754 -77 
Q 1414 -77 1152 -6 
Q 890 64 694 182 
Q 499 301 355 454 
Q 211 608 102 781 
L 813 1331 
Q 960 1056 1174 880 
Q 1389 704 1754 704 
Q 2080 704 2262 867 
Q 2445 1030 2445 1312 
L 2445 1350 
Q 2445 1626 2237 1763 
Q 2029 1901 1664 1901 
L 1261 1901 
L 1261 2701 
L 1677 2701 
z
" transform="scale(0.015625)"/>
     </defs>
     <use xlink:href="#IBMPlexSans-Bold-33"/>
    </g>
   </g>
  </g>
  <g id="axes_5">
   <g id="patch_6">
    <path d="M 7.2 90.36 
L 216.45 90.36 
L 216.45 48.78 
L 7.2 48.78 
L 7.2 90.36 
z
" style="fill: none"/>
   </g>
   <g id="matplotlib.axis_9">
    <g id="xtick_9"/>
    <g id="xtick_10"/>
   </g>
   <g id="matplotlib.axis_10"/>
   <g id="FillBetweenPolyCollection_4">
    <defs>
     <path id="m0bc87d1736" d="M 16.711364 -83.985101 
L 16.711364 -83.9 
L 17.66728 -83.9 
L 18.623196 -83.9 
L 19.579111 -83.9 
L 20.535027 -83.9 
L 21.490943 -83.9 
L 22.446859 -83.9 
L 23.402775 -83.9 
L 24.358691 -83.9 
L 25.314607 -83.9 
L 26.270523 -83.9 
L 27.226439 -83.9 
L 28.182355 -83.9 
L 29.138271 -83.9 
L 30.094187 -83.9 
L 31.050103 -83.9 
L 32.006019 -83.9 
L 32.961935 -83.9 
L 33.917851 -83.9 
L 34.873767 -83.9 
L 35.829683 -83.9 
L 36.785598 -83.9 
L 37.741514 -83.9 
L 38.69743 -83.9 
L 39.653346 -83.9 
L 40.609262 -83.9 
L 41.565178 -83.9 
L 42.521094 -83.9 
L 43.47701 -83.9 
L 44.432926 -83.9 
L 45.388842 -83.9 
L 46.344758 -83.9 
L 47.300674 -83.9 
L 48.25659 -83.9 
L 49.212506 -83.9 
L 50.168422 -83.9 
L 51.124338 -83.9 
L 52.080254 -83.9 
L 53.036169 -83.9 
L 53.992085 -83.9 
L 54.948001 -83.9 
L 55.903917 -83.9 
L 56.859833 -83.9 
L 57.815749 -83.9 
L 58.771665 -83.9 
L 59.727581 -83.9 
L 60.683497 -83.9 
L 61.639413 -83.9 
L 62.595329 -83.9 
L 63.551245 -83.9 
L 64.507161 -83.9 
L 65.463077 -83.9 
L 66.418993 -83.9 
L 67.374909 -83.9 
L 68.330825 -83.9 
L 69.286741 -83.9 
L 70.242656 -83.9 
L 71.198572 -83.9 
L 72.154488 -83.9 
L 73.110404 -83.9 
L 74.06632 -83.9 
L 75.022236 -83.9 
L 75.978152 -83.9 
L 76.934068 -83.9 
L 77.889984 -83.9 
L 78.8459 -83.9 
L 79.801816 -83.9 
L 80.757732 -83.9 
L 81.713648 -83.9 
L 82.669564 -83.9 
L 83.62548 -83.9 
L 84.581396 -83.9 
L 85.537312 -83.9 
L 86.493228 -83.9 
L 87.449143 -83.9 
L 88.405059 -83.9 
L 89.360975 -83.9 
L 90.316891 -83.9 
L 91.272807 -83.9 
L 92.228723 -83.9 
L 93.184639 -83.9 
L 94.140555 -83.9 
L 95.096471 -83.9 
L 96.052387 -83.9 
L 97.008303 -83.9 
L 97.964219 -83.9 
L 98.920135 -83.9 
L 99.876051 -83.9 
L 100.831967 -83.9 
L 101.787883 -83.9 
L 102.743799 -83.9 
L 103.699714 -83.9 
L 104.65563 -83.9 
L 105.611546 -83.9 
L 106.567462 -83.9 
L 107.523378 -83.9 
L 108.479294 -83.9 
L 109.43521 -83.9 
L 110.391126 -83.9 
L 111.347042 -83.9 
L 112.302958 -83.9 
L 113.258874 -83.9 
L 114.21479 -83.9 
L 115.170706 -83.9 
L 116.126622 -83.9 
L 117.082538 -83.9 
L 118.038454 -83.9 
L 118.99437 -83.9 
L 119.950286 -83.9 
L 120.906201 -83.9 
L 121.862117 -83.9 
L 122.818033 -83.9 
L 123.773949 -83.9 
L 124.729865 -83.9 
L 125.685781 -83.9 
L 126.641697 -83.9 
L 127.597613 -83.9 
L 128.553529 -83.9 
L 129.509445 -83.9 
L 130.465361 -83.9 
L 131.421277 -83.9 
L 132.377193 -83.9 
L 133.333109 -83.9 
L 134.289025 -83.9 
L 135.244941 -83.9 
L 136.200857 -83.9 
L 137.156772 -83.9 
L 138.112688 -83.9 
L 139.068604 -83.9 
L 140.02452 -83.9 
L 140.980436 -83.9 
L 141.936352 -83.9 
L 142.892268 -83.9 
L 143.848184 -83.9 
L 144.8041 -83.9 
L 145.760016 -83.9 
L 146.715932 -83.9 
L 147.671848 -83.9 
L 148.627764 -83.9 
L 149.58368 -83.9 
L 150.539596 -83.9 
L 151.495512 -83.9 
L 152.451428 -83.9 
L 153.407344 -83.9 
L 154.363259 -83.9 
L 155.319175 -83.9 
L 156.275091 -83.9 
L 157.231007 -83.9 
L 158.186923 -83.9 
L 159.142839 -83.9 
L 160.098755 -83.9 
L 161.054671 -83.9 
L 162.010587 -83.9 
L 162.966503 -83.9 
L 163.922419 -83.9 
L 164.878335 -83.9 
L 165.834251 -83.9 
L 166.790167 -83.9 
L 167.746083 -83.9 
L 168.701999 -83.9 
L 169.657915 -83.9 
L 170.613831 -83.9 
L 171.569746 -83.9 
L 172.525662 -83.9 
L 173.481578 -83.9 
L 174.437494 -83.9 
L 175.39341 -83.9 
L 176.349326 -83.9 
L 177.305242 -83.9 
L 178.261158 -83.9 
L 179.217074 -83.9 
L 180.17299 -83.9 
L 181.128906 -83.9 
L 182.084822 -83.9 
L 183.040738 -83.9 
L 183.996654 -83.9 
L 184.95257 -83.9 
L 185.908486 -83.9 
L 186.864402 -83.9 
L 187.820317 -83.9 
L 188.776233 -83.9 
L 189.732149 -83.9 
L 190.688065 -83.9 
L 191.643981 -83.9 
L 192.599897 -83.9 
L 193.555813 -83.9 
L 194.511729 -83.9 
L 195.467645 -83.9 
L 196.423561 -83.9 
L 197.379477 -83.9 
L 198.335393 -83.9 
L 199.291309 -83.9 
L 200.247225 -83.9 
L 201.203141 -83.9 
L 202.159057 -83.9 
L 203.114973 -83.9 
L 204.070889 -83.9 
L 205.026804 -83.9 
L 205.98272 -83.9 
L 206.938636 -83.9 
L 206.938636 -83.972349 
L 206.938636 -83.972349 
L 205.98272 -83.981222 
L 205.026804 -83.990746 
L 204.070889 -84.000906 
L 203.114973 -84.011685 
L 202.159057 -84.023052 
L 201.203141 -84.034972 
L 200.247225 -84.047401 
L 199.291309 -84.060288 
L 198.335393 -84.073577 
L 197.379477 -84.087209 
L 196.423561 -84.101119 
L 195.467645 -84.115244 
L 194.511729 -84.12952 
L 193.555813 -84.143889 
L 192.599897 -84.158298 
L 191.643981 -84.172701 
L 190.688065 -84.187066 
L 189.732149 -84.201375 
L 188.776233 -84.215626 
L 187.820317 -84.229838 
L 186.864402 -84.244051 
L 185.908486 -84.258327 
L 184.95257 -84.272756 
L 183.996654 -84.287452 
L 183.040738 -84.302554 
L 182.084822 -84.318228 
L 181.128906 -84.334662 
L 180.17299 -84.352067 
L 179.217074 -84.370672 
L 178.261158 -84.390721 
L 177.305242 -84.412469 
L 176.349326 -84.436176 
L 175.39341 -84.462104 
L 174.437494 -84.490513 
L 173.481578 -84.52165 
L 172.525662 -84.555751 
L 171.569746 -84.593033 
L 170.613831 -84.633689 
L 169.657915 -84.67789 
L 168.701999 -84.725777 
L 167.746083 -84.777462 
L 166.790167 -84.833028 
L 165.834251 -84.892527 
L 164.878335 -84.955982 
L 163.922419 -85.023387 
L 162.966503 -85.09471 
L 162.010587 -85.169893 
L 161.054671 -85.248849 
L 160.098755 -85.331471 
L 159.142839 -85.417625 
L 158.186923 -85.507149 
L 157.231007 -85.599857 
L 156.275091 -85.69553 
L 155.319175 -85.793918 
L 154.363259 -85.894732 
L 153.407344 -85.997644 
L 152.451428 -86.102282 
L 151.495512 -86.208225 
L 150.539596 -86.315004 
L 149.58368 -86.422096 
L 148.627764 -86.52893 
L 147.671848 -86.634885 
L 146.715932 -86.739295 
L 145.760016 -86.841458 
L 144.8041 -86.940642 
L 143.848184 -87.036096 
L 142.892268 -87.127065 
L 141.936352 -87.212803 
L 140.980436 -87.29259 
L 140.02452 -87.365749 
L 139.068604 -87.431664 
L 138.112688 -87.489792 
L 137.156772 -87.539687 
L 136.200857 -87.581006 
L 135.244941 -87.613527 
L 134.289025 -87.637157 
L 133.333109 -87.651936 
L 132.377193 -87.658042 
L 131.421277 -87.655789 
L 130.465361 -87.645624 
L 129.509445 -87.628116 
L 128.553529 -87.603944 
L 127.597613 -87.573884 
L 126.641697 -87.53879 
L 125.685781 -87.499571 
L 124.729865 -87.457175 
L 123.773949 -87.412558 
L 122.818033 -87.366669 
L 121.862117 -87.320422 
L 120.906201 -87.274677 
L 119.950286 -87.230221 
L 118.99437 -87.187748 
L 118.038454 -87.147851 
L 117.082538 -87.111004 
L 116.126622 -87.077559 
L 115.170706 -87.047744 
L 114.21479 -87.021658 
L 113.258874 -86.999279 
L 112.302958 -86.980469 
L 111.347042 -86.964983 
L 110.391126 -86.952483 
L 109.43521 -86.942554 
L 108.479294 -86.934713 
L 107.523378 -86.928435 
L 106.567462 -86.923162 
L 105.611546 -86.918326 
L 104.65563 -86.913362 
L 103.699714 -86.907726 
L 102.743799 -86.900906 
L 101.787883 -86.892437 
L 100.831967 -86.881909 
L 99.876051 -86.868978 
L 98.920135 -86.853365 
L 97.964219 -86.834866 
L 97.008303 -86.813349 
L 96.052387 -86.788754 
L 95.096471 -86.761086 
L 94.140555 -86.730416 
L 93.184639 -86.696865 
L 92.228723 -86.660603 
L 91.272807 -86.621837 
L 90.316891 -86.5808 
L 89.360975 -86.537744 
L 88.405059 -86.492928 
L 87.449143 -86.446608 
L 86.493228 -86.39903 
L 85.537312 -86.350427 
L 84.581396 -86.301003 
L 83.62548 -86.25094 
L 82.669564 -86.200388 
L 81.713648 -86.149465 
L 80.757732 -86.098261 
L 79.801816 -86.046836 
L 78.8459 -85.995225 
L 77.889984 -85.94344 
L 76.934068 -85.891477 
L 75.978152 -85.839322 
L 75.022236 -85.786952 
L 74.06632 -85.734345 
L 73.110404 -85.681481 
L 72.154488 -85.62835 
L 71.198572 -85.574953 
L 70.242656 -85.521304 
L 69.286741 -85.467436 
L 68.330825 -85.413399 
L 67.374909 -85.359258 
L 66.418993 -85.305098 
L 65.463077 -85.251016 
L 64.507161 -85.197125 
L 63.551245 -85.143549 
L 62.595329 -85.090419 
L 61.639413 -85.037872 
L 60.683497 -84.98605 
L 59.727581 -84.935093 
L 58.771665 -84.885139 
L 57.815749 -84.836325 
L 56.859833 -84.788778 
L 55.903917 -84.742618 
L 54.948001 -84.697958 
L 53.992085 -84.654898 
L 53.036169 -84.613527 
L 52.080254 -84.573922 
L 51.124338 -84.536145 
L 50.168422 -84.500245 
L 49.212506 -84.466259 
L 48.25659 -84.434203 
L 47.300674 -84.404084 
L 46.344758 -84.375889 
L 45.388842 -84.349589 
L 44.432926 -84.325143 
L 43.47701 -84.302489 
L 42.521094 -84.281555 
L 41.565178 -84.262251 
L 40.609262 -84.244476 
L 39.653346 -84.228117 
L 38.69743 -84.213051 
L 37.741514 -84.199149 
L 36.785598 -84.186274 
L 35.829683 -84.174291 
L 34.873767 -84.16306 
L 33.917851 -84.152449 
L 32.961935 -84.14233 
L 32.006019 -84.132584 
L 31.050103 -84.123103 
L 30.094187 -84.113792 
L 29.138271 -84.104572 
L 28.182355 -84.095379 
L 27.226439 -84.086168 
L 26.270523 -84.076909 
L 25.314607 -84.067588 
L 24.358691 -84.058209 
L 23.402775 -84.048788 
L 22.446859 -84.039354 
L 21.490943 -84.029948 
L 20.535027 -84.020615 
L 19.579111 -84.011409 
L 18.623196 -84.002384 
L 17.66728 -83.993597 
L 16.711364 -83.985101 
z
" style="stroke: #bddf26; stroke-width: 1.25"/>
    </defs>
    <g>
     <use xlink:href="#m0bc87d1736" x="0" y="174.26" style="fill: #bddf26; fill-opacity: 0.7; stroke: #bddf26; stroke-width: 1.25"/>
    </g>
   </g>
   <g id="line2d_5">
    <path d="M 7.2 90.36 
L 216.45 90.36 
" style="fill: none; stroke: #bddf26; stroke-opacity: 0.9; stroke-linecap: round"/>
   </g>
   <g id="text_5">
    <!-- 4 -->
    <g style="fill: #bddf26" transform="translate(7.2 89.442) scale(0.12 -0.12)">
     <defs>
      <path id="IBMPlexSans-Bold-34" d="M 2157 0 
L 2157 858 
L 192 858 
L 192 1677 
L 1933 4467 
L 3072 4467 
L 3072 1600 
L 3635 1600 
L 3635 858 
L 3072 858 
L 3072 0 
L 2157 0 
z
M 960 1600 
L 2157 1600 
L 2157 3475 
L 2093 3475 
L 960 1600 
z
" transform="scale(0.015625)"/>
     </defs>
     <use xlink:href="#IBMPlexSans-Bold-34"/>
    </g>
   </g>
  </g>
  <g id="axes_6">
   <g id="patch_7">
    <path d="M 7.2 100.755 
L 216.45 100.755 
L 216.45 59.175 
L 7.2 59.175 
L 7.2 100.755 
z
" style="fill: none"/>
   </g>
   <g id="matplotlib.axis_11">
    <g id="xtick_11"/>
    <g id="xtick_12"/>
   </g>
   <g id="matplotlib.axis_12"/>
   <g id="FillBetweenPolyCollection_5">
    <defs>
     <path id="md4fde4bb7f" d="M 29.345197 -73.60342 
L 29.345197 -73.505 
L 30.064436 -73.505 
L 30.783676 -73.505 
L 31.502916 -73.505 
L 32.222155 -73.505 
L 32.941395 -73.505 
L 33.660635 -73.505 
L 34.379874 -73.505 
L 35.099114 -73.505 
L 35.818354 -73.505 
L 36.537593 -73.505 
L 37.256833 -73.505 
L 37.976073 -73.505 
L 38.695312 -73.505 
L 39.414552 -73.505 
L 40.133791 -73.505 
L 40.853031 -73.505 
L 41.572271 -73.505 
L 42.29151 -73.505 
L 43.01075 -73.505 
L 43.72999 -73.505 
L 44.449229 -73.505 
L 45.168469 -73.505 
L 45.887709 -73.505 
L 46.606948 -73.505 
L 47.326188 -73.505 
L 48.045428 -73.505 
L 48.764667 -73.505 
L 49.483907 -73.505 
L 50.203147 -73.505 
L 50.922386 -73.505 
L 51.641626 -73.505 
L 52.360865 -73.505 
L 53.080105 -73.505 
L 53.799345 -73.505 
L 54.518584 -73.505 
L 55.237824 -73.505 
L 55.957064 -73.505 
L 56.676303 -73.505 
L 57.395543 -73.505 
L 58.114783 -73.505 
L 58.834022 -73.505 
L 59.553262 -73.505 
L 60.272502 -73.505 
L 60.991741 -73.505 
L 61.710981 -73.505 
L 62.430221 -73.505 
L 63.14946 -73.505 
L 63.8687 -73.505 
L 64.587939 -73.505 
L 65.307179 -73.505 
L 66.026419 -73.505 
L 66.745658 -73.505 
L 67.464898 -73.505 
L 68.184138 -73.505 
L 68.903377 -73.505 
L 69.622617 -73.505 
L 70.341857 -73.505 
L 71.061096 -73.505 
L 71.780336 -73.505 
L 72.499576 -73.505 
L 73.218815 -73.505 
L 73.938055 -73.505 
L 74.657294 -73.505 
L 75.376534 -73.505 
L 76.095774 -73.505 
L 76.815013 -73.505 
L 77.534253 -73.505 
L 78.253493 -73.505 
L 78.972732 -73.505 
L 79.691972 -73.505 
L 80.411212 -73.505 
L 81.130451 -73.505 
L 81.849691 -73.505 
L 82.568931 -73.505 
L 83.28817 -73.505 
L 84.00741 -73.505 
L 84.72665 -73.505 
L 85.445889 -73.505 
L 86.165129 -73.505 
L 86.884368 -73.505 
L 87.603608 -73.505 
L 88.322848 -73.505 
L 89.042087 -73.505 
L 89.761327 -73.505 
L 90.480567 -73.505 
L 91.199806 -73.505 
L 91.919046 -73.505 
L 92.638286 -73.505 
L 93.357525 -73.505 
L 94.076765 -73.505 
L 94.796005 -73.505 
L 95.515244 -73.505 
L 96.234484 -73.505 
L 96.953724 -73.505 
L 97.672963 -73.505 
L 98.392203 -73.505 
L 99.111442 -73.505 
L 99.830682 -73.505 
L 100.549922 -73.505 
L 101.269161 -73.505 
L 101.988401 -73.505 
L 102.707641 -73.505 
L 103.42688 -73.505 
L 104.14612 -73.505 
L 104.86536 -73.505 
L 105.584599 -73.505 
L 106.303839 -73.505 
L 107.023079 -73.505 
L 107.742318 -73.505 
L 108.461558 -73.505 
L 109.180797 -73.505 
L 109.900037 -73.505 
L 110.619277 -73.505 
L 111.338516 -73.505 
L 112.057756 -73.505 
L 112.776996 -73.505 
L 113.496235 -73.505 
L 114.215475 -73.505 
L 114.934715 -73.505 
L 115.653954 -73.505 
L 116.373194 -73.505 
L 117.092434 -73.505 
L 117.811673 -73.505 
L 118.530913 -73.505 
L 119.250153 -73.505 
L 119.969392 -73.505 
L 120.688632 -73.505 
L 121.407871 -73.505 
L 122.127111 -73.505 
L 122.846351 -73.505 
L 123.56559 -73.505 
L 124.28483 -73.505 
L 125.00407 -73.505 
L 125.723309 -73.505 
L 126.442549 -73.505 
L 127.161789 -73.505 
L 127.881028 -73.505 
L 128.600268 -73.505 
L 129.319508 -73.505 
L 130.038747 -73.505 
L 130.757987 -73.505 
L 131.477227 -73.505 
L 132.196466 -73.505 
L 132.915706 -73.505 
L 133.634945 -73.505 
L 134.354185 -73.505 
L 135.073425 -73.505 
L 135.792664 -73.505 
L 136.511904 -73.505 
L 137.231144 -73.505 
L 137.950383 -73.505 
L 138.669623 -73.505 
L 139.388863 -73.505 
L 140.108102 -73.505 
L 140.827342 -73.505 
L 141.546582 -73.505 
L 142.265821 -73.505 
L 142.985061 -73.505 
L 143.7043 -73.505 
L 144.42354 -73.505 
L 145.14278 -73.505 
L 145.862019 -73.505 
L 146.581259 -73.505 
L 147.300499 -73.505 
L 148.019738 -73.505 
L 148.738978 -73.505 
L 149.458218 -73.505 
L 150.177457 -73.505 
L 150.896697 -73.505 
L 151.615937 -73.505 
L 152.335176 -73.505 
L 153.054416 -73.505 
L 153.773656 -73.505 
L 154.492895 -73.505 
L 155.212135 -73.505 
L 155.931374 -73.505 
L 156.650614 -73.505 
L 157.369854 -73.505 
L 158.089093 -73.505 
L 158.808333 -73.505 
L 159.527573 -73.505 
L 160.246812 -73.505 
L 160.966052 -73.505 
L 161.685292 -73.505 
L 162.404531 -73.505 
L 163.123771 -73.505 
L 163.843011 -73.505 
L 164.56225 -73.505 
L 165.28149 -73.505 
L 166.00073 -73.505 
L 166.719969 -73.505 
L 167.439209 -73.505 
L 168.158448 -73.505 
L 168.877688 -73.505 
L 169.596928 -73.505 
L 170.316167 -73.505 
L 171.035407 -73.505 
L 171.754647 -73.505 
L 172.473886 -73.505 
L 172.473886 -73.593253 
L 172.473886 -73.593253 
L 171.754647 -73.604105 
L 171.035407 -73.615774 
L 170.316167 -73.628256 
L 169.596928 -73.641537 
L 168.877688 -73.655594 
L 168.158448 -73.670397 
L 167.439209 -73.685907 
L 166.719969 -73.70208 
L 166.00073 -73.718861 
L 165.28149 -73.736192 
L 164.56225 -73.754012 
L 163.843011 -73.772256 
L 163.123771 -73.790857 
L 162.404531 -73.809751 
L 161.685292 -73.828881 
L 160.966052 -73.848193 
L 160.246812 -73.867648 
L 159.527573 -73.887218 
L 158.808333 -73.906894 
L 158.089093 -73.926688 
L 157.369854 -73.946636 
L 156.650614 -73.966802 
L 155.931374 -73.987277 
L 155.212135 -74.008187 
L 154.492895 -74.029688 
L 153.773656 -74.051969 
L 153.054416 -74.075252 
L 152.335176 -74.099785 
L 151.615937 -74.125848 
L 150.896697 -74.153739 
L 150.177457 -74.183777 
L 149.458218 -74.216292 
L 148.738978 -74.251622 
L 148.019738 -74.290103 
L 147.300499 -74.332066 
L 146.581259 -74.377827 
L 145.862019 -74.427687 
L 145.14278 -74.481922 
L 144.42354 -74.540778 
L 143.7043 -74.604474 
L 142.985061 -74.673193 
L 142.265821 -74.747084 
L 141.546582 -74.826261 
L 140.827342 -74.910801 
L 140.108102 -75.000748 
L 139.388863 -75.096112 
L 138.669623 -75.196867 
L 137.950383 -75.302952 
L 137.231144 -75.414273 
L 136.511904 -75.530697 
L 135.792664 -75.65205 
L 135.073425 -75.778113 
L 134.354185 -75.908617 
L 133.634945 -76.043237 
L 132.915706 -76.181587 
L 132.196466 -76.323209 
L 131.477227 -76.467573 
L 130.757987 -76.61407 
L 130.038747 -76.762007 
L 129.319508 -76.91061 
L 128.600268 -77.059022 
L 127.881028 -77.206309 
L 127.161789 -77.351471 
L 126.442549 -77.493449 
L 125.723309 -77.631143 
L 125.00407 -77.763429 
L 124.28483 -77.889182 
L 123.56559 -78.007296 
L 122.846351 -78.116714 
L 122.127111 -78.216447 
L 121.407871 -78.305607 
L 120.688632 -78.383426 
L 119.969392 -78.449284 
L 119.250153 -78.502725 
L 118.530913 -78.543474 
L 117.811673 -78.571454 
L 117.092434 -78.586785 
L 116.373194 -78.589794 
L 115.653954 -78.581005 
L 114.934715 -78.561132 
L 114.215475 -78.531067 
L 113.496235 -78.491854 
L 112.776996 -78.44467 
L 112.057756 -78.390792 
L 111.338516 -78.331571 
L 110.619277 -78.268396 
L 109.900037 -78.202658 
L 109.180797 -78.135723 
L 108.461558 -78.068891 
L 107.742318 -78.003374 
L 107.023079 -77.94026 
L 106.303839 -77.880501 
L 105.584599 -77.824883 
L 104.86536 -77.774021 
L 104.14612 -77.728348 
L 103.42688 -77.688111 
L 102.707641 -77.653376 
L 101.988401 -77.624034 
L 101.269161 -77.599813 
L 100.549922 -77.580298 
L 99.830682 -77.564945 
L 99.111442 -77.553109 
L 98.392203 -77.544065 
L 97.672963 -77.537033 
L 96.953724 -77.531205 
L 96.234484 -77.525767 
L 95.515244 -77.519926 
L 94.796005 -77.512928 
L 94.076765 -77.504078 
L 93.357525 -77.492756 
L 92.638286 -77.478427 
L 91.919046 -77.460653 
L 91.199806 -77.439097 
L 90.480567 -77.413522 
L 89.761327 -77.383796 
L 89.042087 -77.349878 
L 88.322848 -77.311818 
L 87.603608 -77.269744 
L 86.884368 -77.223852 
L 86.165129 -77.17439 
L 85.445889 -77.121647 
L 84.72665 -77.06594 
L 84.00741 -77.007598 
L 83.28817 -76.94695 
L 82.568931 -76.884317 
L 81.849691 -76.819998 
L 81.130451 -76.754265 
L 80.411212 -76.687357 
L 79.691972 -76.619476 
L 78.972732 -76.550789 
L 78.253493 -76.481422 
L 77.534253 -76.411471 
L 76.815013 -76.340999 
L 76.095774 -76.270046 
L 75.376534 -76.198634 
L 74.657294 -76.126773 
L 73.938055 -76.054468 
L 73.218815 -75.981725 
L 72.499576 -75.908559 
L 71.780336 -75.834997 
L 71.061096 -75.76108 
L 70.341857 -75.686872 
L 69.622617 -75.612456 
L 68.903377 -75.537933 
L 68.184138 -75.463429 
L 67.464898 -75.389085 
L 66.745658 -75.315059 
L 66.026419 -75.24152 
L 65.307179 -75.168647 
L 64.587939 -75.096625 
L 63.8687 -75.025639 
L 63.14946 -74.955872 
L 62.430221 -74.887502 
L 61.710981 -74.820699 
L 60.991741 -74.755622 
L 60.272502 -74.692417 
L 59.553262 -74.631219 
L 58.834022 -74.572144 
L 58.114783 -74.515296 
L 57.395543 -74.460762 
L 56.676303 -74.408612 
L 55.957064 -74.3589 
L 55.237824 -74.311664 
L 54.518584 -74.266924 
L 53.799345 -74.224684 
L 53.080105 -74.184932 
L 52.360865 -74.147637 
L 51.641626 -74.112751 
L 50.922386 -74.08021 
L 50.203147 -74.049932 
L 49.483907 -74.02182 
L 48.764667 -73.995759 
L 48.045428 -73.971623 
L 47.326188 -73.949269 
L 46.606948 -73.928548 
L 45.887709 -73.909299 
L 45.168469 -73.891358 
L 44.449229 -73.874557 
L 43.72999 -73.858731 
L 43.01075 -73.843717 
L 42.29151 -73.829361 
L 41.572271 -73.815519 
L 40.853031 -73.802063 
L 40.133791 -73.788878 
L 39.414552 -73.775871 
L 38.695312 -73.762965 
L 37.976073 -73.750108 
L 37.256833 -73.737264 
L 36.537593 -73.72442 
L 35.818354 -73.711582 
L 35.099114 -73.698771 
L 34.379874 -73.686023 
L 33.660635 -73.673388 
L 32.941395 -73.660924 
L 32.222155 -73.648693 
L 31.502916 -73.636762 
L 30.783676 -73.625199 
L 30.064436 -73.614065 
L 29.345197 -73.60342 
z
" style="stroke: #7ad151; stroke-width: 1.25"/>
    </defs>
    <g>
     <use xlink:href="#md4fde4bb7f" x="0" y="174.26" style="fill: #7ad151; fill-opacity: 0.7; stroke: #7ad151; stroke-width: 1.25"/>
    </g>
   </g>
   <g id="line2d_6">
    <path d="M 7.2 100.755 
L 216.45 100.755 
" style="fill: none; stroke: #7ad151; stroke-opacity: 0.9; stroke-linecap: round"/>
   </g>
   <g id="text_6">
    <!-- 5 -->
    <g style="fill: #7ad151" transform="translate(7.2 99.837) scale(0.12 -0.12)">
     <defs>
      <path id="IBMPlexSans-Bold-35" d="M 3341 3629 
L 1312 3629 
L 1216 2214 
L 1267 2214 
Q 1331 2374 1411 2505 
Q 1491 2637 1600 2729 
Q 1709 2822 1862 2873 
Q 2016 2925 2227 2925 
Q 2515 2925 2764 2829 
Q 3014 2733 3200 2550 
Q 3386 2368 3494 2102 
Q 3603 1837 3603 1504 
Q 3603 1165 3491 873 
Q 3379 582 3158 371 
Q 2938 160 2618 41 
Q 2298 -77 1888 -77 
Q 1562 -77 1312 -6 
Q 1062 64 870 182 
Q 678 301 537 454 
Q 397 608 294 781 
L 992 1331 
Q 1139 1069 1344 886 
Q 1549 704 1894 704 
Q 2240 704 2416 902 
Q 2592 1101 2592 1427 
L 2592 1478 
Q 2592 1786 2413 1965 
Q 2234 2144 1920 2144 
Q 1658 2144 1488 2038 
Q 1318 1933 1229 1830 
L 442 1939 
L 608 4467 
L 3341 4467 
L 3341 3629 
z
" transform="scale(0.015625)"/>
     </defs>
     <use xlink:href="#IBMPlexSans-Bold-35"/>
    </g>
   </g>
  </g>
  <g id="axes_7">
   <g id="patch_8">
    <path d="M 7.2 111.15 
L 216.45 111.15 
L 216.45 69.57 
L 7.2 69.57 
L 7.2 111.15 
z
" style="fill: none"/>
   </g>
   <g id="matplotlib.axis_13">
    <g id="xtick_13"/>
    <g id="xtick_14"/>
   </g>
   <g id="matplotlib.axis_14"/>
   <g id="FillBetweenPolyCollection_6">
    <defs>
     <path id="mebbbe0a0ec" d="M 41.742666 -63.22085 
L 41.742666 -63.11 
L 42.22968 -63.11 
L 42.716694 -63.11 
L 43.203708 -63.11 
L 43.690722 -63.11 
L 44.177736 -63.11 
L 44.66475 -63.11 
L 45.151764 -63.11 
L 45.638778 -63.11 
L 46.125792 -63.11 
L 46.612806 -63.11 
L 47.09982 -63.11 
L 47.586834 -63.11 
L 48.073848 -63.11 
L 48.560862 -63.11 
L 49.047876 -63.11 
L 49.53489 -63.11 
L 50.021904 -63.11 
L 50.508918 -63.11 
L 50.995932 -63.11 
L 51.482946 -63.11 
L 51.96996 -63.11 
L 52.456974 -63.11 
L 52.943988 -63.11 
L 53.431002 -63.11 
L 53.918016 -63.11 
L 54.40503 -63.11 
L 54.892044 -63.11 
L 55.379058 -63.11 
L 55.866072 -63.11 
L 56.353086 -63.11 
L 56.8401 -63.11 
L 57.327114 -63.11 
L 57.814128 -63.11 
L 58.301142 -63.11 
L 58.788156 -63.11 
L 59.27517 -63.11 
L 59.762184 -63.11 
L 60.249198 -63.11 
L 60.736212 -63.11 
L 61.223226 -63.11 
L 61.71024 -63.11 
L 62.197254 -63.11 
L 62.684268 -63.11 
L 63.171282 -63.11 
L 63.658296 -63.11 
L 64.14531 -63.11 
L 64.632324 -63.11 
L 65.119338 -63.11 
L 65.606352 -63.11 
L 66.093366 -63.11 
L 66.58038 -63.11 
L 67.067394 -63.11 
L 67.554408 -63.11 
L 68.041422 -63.11 
L 68.528436 -63.11 
L 69.01545 -63.11 
L 69.502464 -63.11 
L 69.989478 -63.11 
L 70.476492 -63.11 
L 70.963506 -63.11 
L 71.45052 -63.11 
L 71.937534 -63.11 
L 72.424548 -63.11 
L 72.911562 -63.11 
L 73.398576 -63.11 
L 73.88559 -63.11 
L 74.372604 -63.11 
L 74.859618 -63.11 
L 75.346632 -63.11 
L 75.833646 -63.11 
L 76.32066 -63.11 
L 76.807674 -63.11 
L 77.294688 -63.11 
L 77.781702 -63.11 
L 78.268716 -63.11 
L 78.75573 -63.11 
L 79.242744 -63.11 
L 79.729758 -63.11 
L 80.216772 -63.11 
L 80.703786 -63.11 
L 81.1908 -63.11 
L 81.677814 -63.11 
L 82.164828 -63.11 
L 82.651842 -63.11 
L 83.138856 -63.11 
L 83.62587 -63.11 
L 84.112884 -63.11 
L 84.599898 -63.11 
L 85.086912 -63.11 
L 85.573926 -63.11 
L 86.06094 -63.11 
L 86.547954 -63.11 
L 87.034968 -63.11 
L 87.521982 -63.11 
L 88.008996 -63.11 
L 88.49601 -63.11 
L 88.983024 -63.11 
L 89.470038 -63.11 
L 89.957052 -63.11 
L 90.444066 -63.11 
L 90.93108 -63.11 
L 91.418094 -63.11 
L 91.905108 -63.11 
L 92.392122 -63.11 
L 92.879136 -63.11 
L 93.36615 -63.11 
L 93.853164 -63.11 
L 94.340178 -63.11 
L 94.827192 -63.11 
L 95.314206 -63.11 
L 95.80122 -63.11 
L 96.288234 -63.11 
L 96.775248 -63.11 
L 97.262262 -63.11 
L 97.749276 -63.11 
L 98.23629 -63.11 
L 98.723304 -63.11 
L 99.210318 -63.11 
L 99.697332 -63.11 
L 100.184346 -63.11 
L 100.67136 -63.11 
L 101.158374 -63.11 
L 101.645388 -63.11 
L 102.132402 -63.11 
L 102.619416 -63.11 
L 103.10643 -63.11 
L 103.593444 -63.11 
L 104.080458 -63.11 
L 104.567472 -63.11 
L 105.054486 -63.11 
L 105.5415 -63.11 
L 106.028514 -63.11 
L 106.515528 -63.11 
L 107.002542 -63.11 
L 107.489556 -63.11 
L 107.976569 -63.11 
L 108.463583 -63.11 
L 108.950597 -63.11 
L 109.437611 -63.11 
L 109.924625 -63.11 
L 110.411639 -63.11 
L 110.898653 -63.11 
L 111.385667 -63.11 
L 111.872681 -63.11 
L 112.359695 -63.11 
L 112.846709 -63.11 
L 113.333723 -63.11 
L 113.820737 -63.11 
L 114.307751 -63.11 
L 114.794765 -63.11 
L 115.281779 -63.11 
L 115.768793 -63.11 
L 116.255807 -63.11 
L 116.742821 -63.11 
L 117.229835 -63.11 
L 117.716849 -63.11 
L 118.203863 -63.11 
L 118.690877 -63.11 
L 119.177891 -63.11 
L 119.664905 -63.11 
L 120.151919 -63.11 
L 120.638933 -63.11 
L 121.125947 -63.11 
L 121.612961 -63.11 
L 122.099975 -63.11 
L 122.586989 -63.11 
L 123.074003 -63.11 
L 123.561017 -63.11 
L 124.048031 -63.11 
L 124.535045 -63.11 
L 125.022059 -63.11 
L 125.509073 -63.11 
L 125.996087 -63.11 
L 126.483101 -63.11 
L 126.970115 -63.11 
L 127.457129 -63.11 
L 127.944143 -63.11 
L 128.431157 -63.11 
L 128.918171 -63.11 
L 129.405185 -63.11 
L 129.892199 -63.11 
L 130.379213 -63.11 
L 130.866227 -63.11 
L 131.353241 -63.11 
L 131.840255 -63.11 
L 132.327269 -63.11 
L 132.814283 -63.11 
L 133.301297 -63.11 
L 133.788311 -63.11 
L 134.275325 -63.11 
L 134.762339 -63.11 
L 135.249353 -63.11 
L 135.736367 -63.11 
L 136.223381 -63.11 
L 136.710395 -63.11 
L 137.197409 -63.11 
L 137.684423 -63.11 
L 138.171437 -63.11 
L 138.658451 -63.11 
L 138.658451 -63.224587 
L 138.658451 -63.224587 
L 138.171437 -63.238307 
L 137.684423 -63.253016 
L 137.197409 -63.268716 
L 136.710395 -63.285402 
L 136.223381 -63.30307 
L 135.736367 -63.321708 
L 135.249353 -63.341306 
L 134.762339 -63.36185 
L 134.275325 -63.383327 
L 133.788311 -63.405722 
L 133.301297 -63.42902 
L 132.814283 -63.453209 
L 132.327269 -63.478276 
L 131.840255 -63.50421 
L 131.353241 -63.531001 
L 130.866227 -63.558646 
L 130.379213 -63.587144 
L 129.892199 -63.616499 
L 129.405185 -63.646726 
L 128.918171 -63.677848 
L 128.431157 -63.709902 
L 127.944143 -63.742941 
L 127.457129 -63.777035 
L 126.970115 -63.812277 
L 126.483101 -63.848782 
L 125.996087 -63.886695 
L 125.509073 -63.926186 
L 125.022059 -63.967457 
L 124.535045 -64.01074 
L 124.048031 -64.056299 
L 123.561017 -64.104429 
L 123.074003 -64.155453 
L 122.586989 -64.209724 
L 122.099975 -64.267621 
L 121.612961 -64.329545 
L 121.125947 -64.395918 
L 120.638933 -64.46718 
L 120.151919 -64.543781 
L 119.664905 -64.626184 
L 119.177891 -64.714855 
L 118.690877 -64.81026 
L 118.203863 -64.912859 
L 117.716849 -65.0231 
L 117.229835 -65.14141 
L 116.742821 -65.268188 
L 116.255807 -65.403795 
L 115.768793 -65.548539 
L 115.281779 -65.702668 
L 114.794765 -65.86635 
L 114.307751 -66.039662 
L 113.820737 -66.222574 
L 113.333723 -66.414929 
L 112.846709 -66.616434 
L 112.359695 -66.826641 
L 111.872681 -67.044936 
L 111.385667 -67.27053 
L 110.898653 -67.502449 
L 110.411639 -67.739537 
L 109.924625 -67.980453 
L 109.437611 -68.223682 
L 108.950597 -68.467545 
L 108.463583 -68.71022 
L 107.976569 -68.949765 
L 107.489556 -69.184147 
L 107.002542 -69.411279 
L 106.515528 -69.629054 
L 106.028514 -69.835394 
L 105.5415 -70.028287 
L 105.054486 -70.205837 
L 104.567472 -70.366308 
L 104.080458 -70.508168 
L 103.593444 -70.630127 
L 103.10643 -70.731177 
L 102.619416 -70.810618 
L 102.132402 -70.868083 
L 101.645388 -70.903556 
L 101.158374 -70.917374 
L 100.67136 -70.91023 
L 100.184346 -70.883158 
L 99.697332 -70.837514 
L 99.210318 -70.774947 
L 98.723304 -70.69736 
L 98.23629 -70.606869 
L 97.749276 -70.50575 
L 97.262262 -70.396384 
L 96.775248 -70.281202 
L 96.288234 -70.162626 
L 95.80122 -70.04301 
L 95.314206 -69.924584 
L 94.827192 -69.809407 
L 94.340178 -69.699317 
L 93.853164 -69.595893 
L 93.36615 -69.500428 
L 92.879136 -69.413903 
L 92.392122 -69.336979 
L 91.905108 -69.269992 
L 91.418094 -69.21296 
L 90.93108 -69.1656 
L 90.444066 -69.127355 
L 89.957052 -69.09742 
L 89.470038 -69.074786 
L 88.983024 -69.058278 
L 88.49601 -69.046602 
L 88.008996 -69.038392 
L 87.521982 -69.032253 
L 87.034968 -69.026811 
L 86.547954 -69.020747 
L 86.06094 -69.012834 
L 85.573926 -69.001974 
L 85.086912 -68.987209 
L 84.599898 -68.96775 
L 84.112884 -68.942977 
L 83.62587 -68.912445 
L 83.138856 -68.875877 
L 82.651842 -68.833158 
L 82.164828 -68.784313 
L 81.677814 -68.729494 
L 81.1908 -68.668952 
L 80.703786 -68.603015 
L 80.216772 -68.532068 
L 79.729758 -68.456522 
L 79.242744 -68.376798 
L 78.75573 -68.293309 
L 78.268716 -68.206438 
L 77.781702 -68.116533 
L 77.294688 -68.023894 
L 76.807674 -67.928773 
L 76.32066 -67.831373 
L 75.833646 -67.731847 
L 75.346632 -67.630311 
L 74.859618 -67.526845 
L 74.372604 -67.421509 
L 73.88559 -67.314349 
L 73.398576 -67.205412 
L 72.911562 -67.094753 
L 72.424548 -66.982443 
L 71.937534 -66.868582 
L 71.45052 -66.7533 
L 70.963506 -66.636765 
L 70.476492 -66.519181 
L 69.989478 -66.400788 
L 69.502464 -66.281863 
L 69.01545 -66.162712 
L 68.528436 -66.043668 
L 68.041422 -65.92508 
L 67.554408 -65.80731 
L 67.067394 -65.690724 
L 66.58038 -65.575683 
L 66.093366 -65.462538 
L 65.606352 -65.351622 
L 65.119338 -65.243247 
L 64.632324 -65.137694 
L 64.14531 -65.035216 
L 63.658296 -64.936032 
L 63.171282 -64.840326 
L 62.684268 -64.748246 
L 62.197254 -64.659907 
L 61.71024 -64.575389 
L 61.223226 -64.494742 
L 60.736212 -64.417982 
L 60.249198 -64.345101 
L 59.762184 -64.276062 
L 59.27517 -64.210808 
L 58.788156 -64.149258 
L 58.301142 -64.091313 
L 57.814128 -64.036855 
L 57.327114 -63.985753 
L 56.8401 -63.937861 
L 56.353086 -63.893022 
L 55.866072 -63.85107 
L 55.379058 -63.811828 
L 54.892044 -63.775117 
L 54.40503 -63.740749 
L 53.918016 -63.708538 
L 53.431002 -63.678295 
L 52.943988 -63.649834 
L 52.456974 -63.622974 
L 51.96996 -63.597538 
L 51.482946 -63.573358 
L 50.995932 -63.550279 
L 50.508918 -63.528154 
L 50.021904 -63.506854 
L 49.53489 -63.486263 
L 49.047876 -63.46628 
L 48.560862 -63.446826 
L 48.073848 -63.427834 
L 47.586834 -63.40926 
L 47.09982 -63.391072 
L 46.612806 -63.373258 
L 46.125792 -63.35582 
L 45.638778 -63.338771 
L 45.151764 -63.32214 
L 44.66475 -63.305959 
L 44.177736 -63.290272 
L 43.690722 -63.275124 
L 43.203708 -63.260563 
L 42.716694 -63.246635 
L 42.22968 -63.233384 
L 41.742666 -63.22085 
z
" style="stroke: #22a884; stroke-width: 1.25"/>
    </defs>
    <g>
     <use xlink:href="#mebbbe0a0ec" x="0" y="174.26" style="fill: #22a884; fill-opacity: 0.7; stroke: #22a884; stroke-width: 1.25"/>
    </g>
   </g>
   <g id="line2d_7">
    <path d="M 7.2 111.15 
L 216.45 111.15 
" style="fill: none; stroke: #22a884; stroke-opacity: 0.9; stroke-linecap: round"/>
   </g>
   <g id="text_7">
    <!-- 6 -->
    <g style="fill: #22a884" transform="translate(7.2 110.232) scale(0.12 -0.12)">
     <defs>
      <path id="IBMPlexSans-Bold-36" d="M 1946 -77 
Q 1549 -77 1235 48 
Q 922 173 707 406 
Q 493 640 381 966 
Q 269 1293 269 1696 
Q 269 2163 413 2582 
Q 557 3002 784 3357 
Q 1011 3712 1296 3993 
Q 1581 4275 1869 4467 
L 3194 4467 
Q 2784 4173 2457 3907 
Q 2131 3642 1891 3373 
Q 1651 3104 1494 2825 
Q 1338 2547 1274 2227 
L 1331 2208 
Q 1389 2336 1469 2457 
Q 1549 2579 1667 2672 
Q 1786 2765 1946 2822 
Q 2106 2880 2317 2880 
Q 2592 2880 2832 2781 
Q 3072 2682 3248 2502 
Q 3424 2323 3523 2064 
Q 3622 1805 3622 1491 
Q 3622 1146 3504 858 
Q 3386 570 3165 362 
Q 2944 154 2637 38 
Q 2330 -77 1946 -77 
z
M 1946 672 
Q 2266 672 2445 848 
Q 2624 1024 2624 1350 
L 2624 1466 
Q 2624 1792 2445 1968 
Q 2266 2144 1946 2144 
Q 1626 2144 1446 1968 
Q 1267 1792 1267 1466 
L 1267 1350 
Q 1267 1024 1446 848 
Q 1626 672 1946 672 
z
" transform="scale(0.015625)"/>
     </defs>
     <use xlink:href="#IBMPlexSans-Bold-36"/>
    </g>
   </g>
  </g>
  <g id="axes_8">
   <g id="patch_9">
    <path d="M 7.2 121.545 
L 216.45 121.545 
L 216.45 79.965 
L 7.2 79.965 
L 7.2 121.545 
z
" style="fill: none"/>
   </g>
   <g id="matplotlib.axis_15">
    <g id="xtick_15"/>
    <g id="xtick_16"/>
   </g>
   <g id="matplotlib.axis_16"/>
   <g id="FillBetweenPolyCollection_7">
    <defs>
     <path id="m29eb06230c" d="M 53.444759 -52.87605 
L 53.444759 -52.715 
L 53.707475 -52.715 
L 53.970191 -52.715 
L 54.232907 -52.715 
L 54.495622 -52.715 
L 54.758338 -52.715 
L 55.021054 -52.715 
L 55.28377 -52.715 
L 55.546486 -52.715 
L 55.809201 -52.715 
L 56.071917 -52.715 
L 56.334633 -52.715 
L 56.597349 -52.715 
L 56.860065 -52.715 
L 57.12278 -52.715 
L 57.385496 -52.715 
L 57.648212 -52.715 
L 57.910928 -52.715 
L 58.173644 -52.715 
L 58.436359 -52.715 
L 58.699075 -52.715 
L 58.961791 -52.715 
L 59.224507 -52.715 
L 59.487223 -52.715 
L 59.749939 -52.715 
L 60.012654 -52.715 
L 60.27537 -52.715 
L 60.538086 -52.715 
L 60.800802 -52.715 
L 61.063518 -52.715 
L 61.326233 -52.715 
L 61.588949 -52.715 
L 61.851665 -52.715 
L 62.114381 -52.715 
L 62.377097 -52.715 
L 62.639812 -52.715 
L 62.902528 -52.715 
L 63.165244 -52.715 
L 63.42796 -52.715 
L 63.690676 -52.715 
L 63.953392 -52.715 
L 64.216107 -52.715 
L 64.478823 -52.715 
L 64.741539 -52.715 
L 65.004255 -52.715 
L 65.266971 -52.715 
L 65.529686 -52.715 
L 65.792402 -52.715 
L 66.055118 -52.715 
L 66.317834 -52.715 
L 66.58055 -52.715 
L 66.843265 -52.715 
L 67.105981 -52.715 
L 67.368697 -52.715 
L 67.631413 -52.715 
L 67.894129 -52.715 
L 68.156845 -52.715 
L 68.41956 -52.715 
L 68.682276 -52.715 
L 68.944992 -52.715 
L 69.207708 -52.715 
L 69.470424 -52.715 
L 69.733139 -52.715 
L 69.995855 -52.715 
L 70.258571 -52.715 
L 70.521287 -52.715 
L 70.784003 -52.715 
L 71.046718 -52.715 
L 71.309434 -52.715 
L 71.57215 -52.715 
L 71.834866 -52.715 
L 72.097582 -52.715 
L 72.360297 -52.715 
L 72.623013 -52.715 
L 72.885729 -52.715 
L 73.148445 -52.715 
L 73.411161 -52.715 
L 73.673877 -52.715 
L 73.936592 -52.715 
L 74.199308 -52.715 
L 74.462024 -52.715 
L 74.72474 -52.715 
L 74.987456 -52.715 
L 75.250171 -52.715 
L 75.512887 -52.715 
L 75.775603 -52.715 
L 76.038319 -52.715 
L 76.301035 -52.715 
L 76.56375 -52.715 
L 76.826466 -52.715 
L 77.089182 -52.715 
L 77.351898 -52.715 
L 77.614614 -52.715 
L 77.87733 -52.715 
L 78.140045 -52.715 
L 78.402761 -52.715 
L 78.665477 -52.715 
L 78.928193 -52.715 
L 79.190909 -52.715 
L 79.453624 -52.715 
L 79.71634 -52.715 
L 79.979056 -52.715 
L 80.241772 -52.715 
L 80.504488 -52.715 
L 80.767203 -52.715 
L 81.029919 -52.715 
L 81.292635 -52.715 
L 81.555351 -52.715 
L 81.818067 -52.715 
L 82.080783 -52.715 
L 82.343498 -52.715 
L 82.606214 -52.715 
L 82.86893 -52.715 
L 83.131646 -52.715 
L 83.394362 -52.715 
L 83.657077 -52.715 
L 83.919793 -52.715 
L 84.182509 -52.715 
L 84.445225 -52.715 
L 84.707941 -52.715 
L 84.970656 -52.715 
L 85.233372 -52.715 
L 85.496088 -52.715 
L 85.758804 -52.715 
L 86.02152 -52.715 
L 86.284236 -52.715 
L 86.546951 -52.715 
L 86.809667 -52.715 
L 87.072383 -52.715 
L 87.335099 -52.715 
L 87.597815 -52.715 
L 87.86053 -52.715 
L 88.123246 -52.715 
L 88.385962 -52.715 
L 88.648678 -52.715 
L 88.911394 -52.715 
L 89.174109 -52.715 
L 89.436825 -52.715 
L 89.699541 -52.715 
L 89.962257 -52.715 
L 90.224973 -52.715 
L 90.487688 -52.715 
L 90.750404 -52.715 
L 91.01312 -52.715 
L 91.275836 -52.715 
L 91.538552 -52.715 
L 91.801268 -52.715 
L 92.063983 -52.715 
L 92.326699 -52.715 
L 92.589415 -52.715 
L 92.852131 -52.715 
L 93.114847 -52.715 
L 93.377562 -52.715 
L 93.640278 -52.715 
L 93.902994 -52.715 
L 94.16571 -52.715 
L 94.428426 -52.715 
L 94.691141 -52.715 
L 94.953857 -52.715 
L 95.216573 -52.715 
L 95.479289 -52.715 
L 95.742005 -52.715 
L 96.004721 -52.715 
L 96.267436 -52.715 
L 96.530152 -52.715 
L 96.792868 -52.715 
L 97.055584 -52.715 
L 97.3183 -52.715 
L 97.581015 -52.715 
L 97.843731 -52.715 
L 98.106447 -52.715 
L 98.369163 -52.715 
L 98.631879 -52.715 
L 98.894594 -52.715 
L 99.15731 -52.715 
L 99.420026 -52.715 
L 99.682742 -52.715 
L 99.945458 -52.715 
L 100.208174 -52.715 
L 100.470889 -52.715 
L 100.733605 -52.715 
L 100.996321 -52.715 
L 101.259037 -52.715 
L 101.521753 -52.715 
L 101.784468 -52.715 
L 102.047184 -52.715 
L 102.3099 -52.715 
L 102.572616 -52.715 
L 102.835332 -52.715 
L 103.098047 -52.715 
L 103.360763 -52.715 
L 103.623479 -52.715 
L 103.886195 -52.715 
L 104.148911 -52.715 
L 104.411626 -52.715 
L 104.674342 -52.715 
L 104.937058 -52.715 
L 105.199774 -52.715 
L 105.46249 -52.715 
L 105.725206 -52.715 
L 105.725206 -52.901799 
L 105.725206 -52.901799 
L 105.46249 -52.92323 
L 105.199774 -52.946016 
L 104.937058 -52.970175 
L 104.674342 -52.995744 
L 104.411626 -53.022786 
L 104.148911 -53.051393 
L 103.886195 -53.08169 
L 103.623479 -53.11384 
L 103.360763 -53.14804 
L 103.098047 -53.184521 
L 102.835332 -53.223544 
L 102.572616 -53.265389 
L 102.3099 -53.310347 
L 102.047184 -53.358703 
L 101.784468 -53.410728 
L 101.521753 -53.466658 
L 101.259037 -53.526679 
L 100.996321 -53.590912 
L 100.733605 -53.659401 
L 100.470889 -53.732099 
L 100.208174 -53.808868 
L 99.945458 -53.889469 
L 99.682742 -53.973575 
L 99.420026 -54.060775 
L 99.15731 -54.150598 
L 98.894594 -54.242528 
L 98.631879 -54.336044 
L 98.369163 -54.430646 
L 98.106447 -54.5259 
L 97.843731 -54.621472 
L 97.581015 -54.717178 
L 97.3183 -54.813014 
L 97.055584 -54.909199 
L 96.792868 -55.006196 
L 96.530152 -55.104739 
L 96.267436 -55.20584 
L 96.004721 -55.310784 
L 95.742005 -55.42112 
L 95.479289 -55.538629 
L 95.216573 -55.665286 
L 94.953857 -55.803206 
L 94.691141 -55.954583 
L 94.428426 -56.121621 
L 94.16571 -56.306461 
L 93.902994 -56.511104 
L 93.640278 -56.737338 
L 93.377562 -56.986673 
L 93.114847 -57.260276 
L 92.852131 -57.558928 
L 92.589415 -57.882984 
L 92.326699 -58.232351 
L 92.063983 -58.606482 
L 91.801268 -59.004378 
L 91.538552 -59.424607 
L 91.275836 -59.86533 
L 91.01312 -60.324335 
L 90.750404 -60.799078 
L 90.487688 -61.286721 
L 90.224973 -61.784175 
L 89.962257 -62.288139 
L 89.699541 -62.79513 
L 89.436825 -63.30152 
L 89.174109 -63.803559 
L 88.911394 -64.297402 
L 88.648678 -64.77913 
L 88.385962 -65.244778 
L 88.123246 -65.690365 
L 87.86053 -66.111931 
L 87.597815 -66.505582 
L 87.335099 -66.86755 
L 87.072383 -67.194256 
L 86.809667 -67.482392 
L 86.546951 -67.729006 
L 86.284236 -67.931594 
L 86.02152 -68.088197 
L 85.758804 -68.197488 
L 85.496088 -68.258857 
L 85.233372 -68.272479 
L 84.970656 -68.239358 
L 84.707941 -68.161353 
L 84.445225 -68.041169 
L 84.182509 -67.882324 
L 83.919793 -67.689075 
L 83.657077 -67.466321 
L 83.394362 -67.219471 
L 83.131646 -66.954296 
L 82.86893 -66.676756 
L 82.606214 -66.392821 
L 82.343498 -66.108287 
L 82.080783 -65.828599 
L 81.818067 -65.558689 
L 81.555351 -65.302834 
L 81.292635 -65.064543 
L 81.029919 -64.846473 
L 80.767203 -64.65039 
L 80.504488 -64.477156 
L 80.241772 -64.326763 
L 79.979056 -64.198391 
L 79.71634 -64.090509 
L 79.453624 -64.000984 
L 79.190909 -63.927223 
L 78.928193 -63.866317 
L 78.665477 -63.815188 
L 78.402761 -63.770734 
L 78.140045 -63.729963 
L 77.87733 -63.690107 
L 77.614614 -63.648717 
L 77.351898 -63.60373 
L 77.089182 -63.553515 
L 76.826466 -63.496885 
L 76.56375 -63.433088 
L 76.301035 -63.361774 
L 76.038319 -63.282941 
L 75.775603 -63.196873 
L 75.512887 -63.104055 
L 75.250171 -63.005098 
L 74.987456 -62.900659 
L 74.72474 -62.791361 
L 74.462024 -62.677735 
L 74.199308 -62.560167 
L 73.936592 -62.438859 
L 73.673877 -62.313817 
L 73.411161 -62.184845 
L 73.148445 -62.051562 
L 72.885729 -61.91343 
L 72.623013 -61.769796 
L 72.360297 -61.619937 
L 72.097582 -61.46312 
L 71.834866 -61.29865 
L 71.57215 -61.125924 
L 71.309434 -60.944479 
L 71.046718 -60.754028 
L 70.784003 -60.55449 
L 70.521287 -60.346002 
L 70.258571 -60.128928 
L 69.995855 -59.903851 
L 69.733139 -59.671553 
L 69.470424 -59.432993 
L 69.207708 -59.18927 
L 68.944992 -58.941585 
L 68.682276 -58.691202 
L 68.41956 -58.439406 
L 68.156845 -58.187466 
L 67.894129 -57.936597 
L 67.631413 -57.687931 
L 67.368697 -57.442494 
L 67.105981 -57.20119 
L 66.843265 -56.96479 
L 66.58055 -56.73393 
L 66.317834 -56.509116 
L 66.055118 -56.29073 
L 65.792402 -56.079046 
L 65.529686 -55.874247 
L 65.266971 -55.676442 
L 65.004255 -55.485689 
L 64.741539 -55.302008 
L 64.478823 -55.125405 
L 64.216107 -54.955881 
L 63.953392 -54.79345 
L 63.690676 -54.638142 
L 63.42796 -54.490009 
L 63.165244 -54.349128 
L 62.902528 -54.215597 
L 62.639812 -54.089526 
L 62.377097 -53.971033 
L 62.114381 -53.860232 
L 61.851665 -53.757217 
L 61.588949 -53.662056 
L 61.326233 -53.574775 
L 61.063518 -53.495347 
L 60.800802 -53.423685 
L 60.538086 -53.359632 
L 60.27537 -53.302956 
L 60.012654 -53.253351 
L 59.749939 -53.210437 
L 59.487223 -53.173764 
L 59.224507 -53.142818 
L 58.961791 -53.117035 
L 58.699075 -53.095807 
L 58.436359 -53.078501 
L 58.173644 -53.064472 
L 57.910928 -53.053077 
L 57.648212 -53.043692 
L 57.385496 -53.035725 
L 57.12278 -53.028633 
L 56.860065 -53.021927 
L 56.597349 -53.015186 
L 56.334633 -53.008062 
L 56.071917 -53.000282 
L 55.809201 -52.991654 
L 55.546486 -52.982057 
L 55.28377 -52.971445 
L 55.021054 -52.959836 
L 54.758338 -52.947303 
L 54.495622 -52.933967 
L 54.232907 -52.919985 
L 53.970191 -52.905539 
L 53.707475 -52.890827 
L 53.444759 -52.87605 
z
" style="stroke: #355f8d; stroke-width: 1.25"/>
    </defs>
    <g>
     <use xlink:href="#m29eb06230c" x="0" y="174.26" style="fill: #355f8d; fill-opacity: 0.7; stroke: #355f8d; stroke-width: 1.25"/>
    </g>
   </g>
   <g id="line2d_8">
    <path d="M 7.2 121.545 
L 216.45 121.545 
" style="fill: none; stroke: #355f8d; stroke-opacity: 0.9; stroke-linecap: round"/>
   </g>
   <g id="text_8">
    <!-- 7 -->
    <g style="fill: #355f8d" transform="translate(7.2 120.627) scale(0.12 -0.12)">
     <defs>
      <path id="IBMPlexSans-Bold-37" d="M 1062 0 
L 2560 3686 
L 1165 3686 
L 1165 2874 
L 352 2874 
L 352 4467 
L 3514 4467 
L 3514 3635 
L 2074 0 
L 1062 0 
z
" transform="scale(0.015625)"/>
     </defs>
     <use xlink:href="#IBMPlexSans-Bold-37"/>
    </g>
   </g>
  </g>
  <g id="axes_9">
   <g id="patch_10">
    <path d="M 7.2 131.94 
L 216.45 131.94 
L 216.45 90.36 
L 7.2 90.36 
L 7.2 131.94 
z
" style="fill: none"/>
   </g>
   <g id="matplotlib.axis_17">
    <g id="xtick_17">
     <g id="text_9">
      <!-- 0 -->
      <g style="fill: #838383" transform="translate(66.990465 149.58) scale(0.11 -0.11)">
       <defs>
        <path id="IBMPlexSans-Regular-30" d="M 1920 -77 
Q 1120 -77 752 531 
Q 384 1139 384 2234 
Q 384 3328 752 3936 
Q 1120 4544 1920 4544 
Q 2720 4544 3088 3936 
Q 3456 3328 3456 2234 
Q 3456 1139 3088 531 
Q 2720 -77 1920 -77 
z
M 1920 390 
Q 2182 390 2368 499 
Q 2554 608 2669 806 
Q 2784 1005 2838 1273 
Q 2893 1542 2893 1869 
L 2893 2598 
Q 2893 2925 2838 3193 
Q 2784 3462 2669 3660 
Q 2554 3859 2368 3968 
Q 2182 4077 1920 4077 
Q 1658 4077 1472 3968 
Q 1286 3859 1171 3660 
Q 1056 3462 1001 3193 
Q 947 2925 947 2598 
L 947 1869 
Q 947 1542 1001 1273 
Q 1056 1005 1171 806 
Q 1286 608 1472 499 
Q 1658 390 1920 390 
z
" transform="scale(0.015625)"/>
       </defs>
       <use xlink:href="#IBMPlexSans-Regular-30"/>
      </g>
     </g>
    </g>
    <g id="xtick_18">
     <g id="text_10">
      <!-- 5 -->
      <g style="fill: #838383" transform="translate(142.610804 149.58) scale(0.11 -0.11)">
       <defs>
        <path id="IBMPlexSans-Regular-35" d="M 3187 3994 
L 1229 3994 
L 1101 2291 
L 1146 2291 
Q 1306 2515 1507 2649 
Q 1709 2784 2061 2784 
Q 2349 2784 2592 2688 
Q 2835 2592 3014 2416 
Q 3194 2240 3293 1984 
Q 3392 1728 3392 1402 
Q 3392 1075 3289 803 
Q 3187 531 2992 336 
Q 2797 141 2518 32 
Q 2240 -77 1888 -77 
Q 1606 -77 1392 -13 
Q 1178 51 1011 160 
Q 845 269 720 403 
Q 595 538 493 685 
L 896 992 
Q 979 858 1072 749 
Q 1165 640 1277 563 
Q 1389 486 1536 444 
Q 1683 403 1888 403 
Q 2349 403 2585 646 
Q 2822 890 2822 1331 
L 2822 1395 
Q 2822 1837 2585 2080 
Q 2349 2323 1888 2323 
Q 1581 2323 1405 2211 
Q 1229 2099 1088 1946 
L 634 2010 
L 794 4467 
L 3187 4467 
L 3187 3994 
z
" transform="scale(0.015625)"/>
       </defs>
       <use xlink:href="#IBMPlexSans-Regular-35"/>
      </g>
     </g>
    </g>
    <g id="text_11">
     <!-- sld -->
     <g style="fill: #262626" transform="translate(103.790625 164.66) scale(0.12 -0.12)">
      <defs>
       <path id="IBMPlexSans-Regular-73" d="M 1536 -77 
Q 1075 -77 764 99 
Q 454 275 230 570 
L 595 864 
Q 787 621 1024 489 
Q 1261 358 1574 358 
Q 1901 358 2083 499 
Q 2266 640 2266 896 
Q 2266 1088 2141 1225 
Q 2016 1363 1690 1414 
L 1427 1453 
Q 1197 1485 1005 1552 
Q 813 1619 669 1731 
Q 525 1843 445 2009 
Q 365 2176 365 2406 
Q 365 2650 454 2832 
Q 544 3014 701 3136 
Q 858 3258 1075 3318 
Q 1293 3379 1542 3379 
Q 1946 3379 2218 3238 
Q 2490 3098 2694 2848 
L 2355 2541 
Q 2246 2694 2035 2819 
Q 1824 2944 1504 2944 
Q 1184 2944 1021 2806 
Q 858 2669 858 2432 
Q 858 2189 1021 2080 
Q 1184 1971 1491 1920 
L 1747 1882 
Q 2298 1798 2528 1564 
Q 2758 1331 2758 954 
Q 2758 474 2432 198 
Q 2106 -77 1536 -77 
z
" transform="scale(0.015625)"/>
       <path id="IBMPlexSans-Regular-6c" d="M 1088 0 
Q 819 0 681 150 
Q 544 301 544 531 
L 544 4736 
L 1056 4736 
L 1056 448 
L 1542 448 
L 1542 0 
L 1088 0 
z
" transform="scale(0.015625)"/>
       <path id="IBMPlexSans-Regular-64" d="M 2656 538 
L 2630 538 
Q 2330 -77 1664 -77 
Q 1357 -77 1107 44 
Q 858 166 682 390 
Q 506 614 413 934 
Q 320 1254 320 1651 
Q 320 2048 413 2368 
Q 506 2688 682 2912 
Q 858 3136 1107 3257 
Q 1357 3379 1664 3379 
Q 2010 3379 2256 3228 
Q 2502 3078 2630 2765 
L 2656 2765 
L 2656 4736 
L 3168 4736 
L 3168 0 
L 2656 0 
L 2656 538 
z
M 1805 384 
Q 1978 384 2134 429 
Q 2291 474 2406 560 
Q 2522 646 2589 771 
Q 2656 896 2656 1056 
L 2656 2285 
Q 2656 2419 2589 2537 
Q 2522 2656 2406 2739 
Q 2291 2822 2134 2870 
Q 1978 2918 1805 2918 
Q 1370 2918 1120 2646 
Q 870 2374 870 1933 
L 870 1370 
Q 870 928 1120 656 
Q 1370 384 1805 384 
z
" transform="scale(0.015625)"/>
      </defs>
      <use xlink:href="#IBMPlexSans-Regular-73"/>
      <use xlink:href="#IBMPlexSans-Regular-6c" transform="translate(48.699997 0)"/>
      <use xlink:href="#IBMPlexSans-Regular-64" transform="translate(75.899994 0)"/>
     </g>
    </g>
   </g>
   <g id="matplotlib.axis_18"/>
   <g id="FillBetweenPolyCollection_8">
    <defs>
     <path id="md9dcd5e817" d="M 58.675993 -42.72604 
L 58.675993 -42.32 
L 58.792185 -42.32 
L 58.908377 -42.32 
L 59.024569 -42.32 
L 59.14076 -42.32 
L 59.256952 -42.32 
L 59.373144 -42.32 
L 59.489336 -42.32 
L 59.605528 -42.32 
L 59.72172 -42.32 
L 59.837911 -42.32 
L 59.954103 -42.32 
L 60.070295 -42.32 
L 60.186487 -42.32 
L 60.302679 -42.32 
L 60.41887 -42.32 
L 60.535062 -42.32 
L 60.651254 -42.32 
L 60.767446 -42.32 
L 60.883638 -42.32 
L 60.999829 -42.32 
L 61.116021 -42.32 
L 61.232213 -42.32 
L 61.348405 -42.32 
L 61.464597 -42.32 
L 61.580788 -42.32 
L 61.69698 -42.32 
L 61.813172 -42.32 
L 61.929364 -42.32 
L 62.045556 -42.32 
L 62.161748 -42.32 
L 62.277939 -42.32 
L 62.394131 -42.32 
L 62.510323 -42.32 
L 62.626515 -42.32 
L 62.742707 -42.32 
L 62.858898 -42.32 
L 62.97509 -42.32 
L 63.091282 -42.32 
L 63.207474 -42.32 
L 63.323666 -42.32 
L 63.439857 -42.32 
L 63.556049 -42.32 
L 63.672241 -42.32 
L 63.788433 -42.32 
L 63.904625 -42.32 
L 64.020816 -42.32 
L 64.137008 -42.32 
L 64.2532 -42.32 
L 64.369392 -42.32 
L 64.485584 -42.32 
L 64.601776 -42.32 
L 64.717967 -42.32 
L 64.834159 -42.32 
L 64.950351 -42.32 
L 65.066543 -42.32 
L 65.182735 -42.32 
L 65.298926 -42.32 
L 65.415118 -42.32 
L 65.53131 -42.32 
L 65.647502 -42.32 
L 65.763694 -42.32 
L 65.879885 -42.32 
L 65.996077 -42.32 
L 66.112269 -42.32 
L 66.228461 -42.32 
L 66.344653 -42.32 
L 66.460844 -42.32 
L 66.577036 -42.32 
L 66.693228 -42.32 
L 66.80942 -42.32 
L 66.925612 -42.32 
L 67.041804 -42.32 
L 67.157995 -42.32 
L 67.274187 -42.32 
L 67.390379 -42.32 
L 67.506571 -42.32 
L 67.622763 -42.32 
L 67.738954 -42.32 
L 67.855146 -42.32 
L 67.971338 -42.32 
L 68.08753 -42.32 
L 68.203722 -42.32 
L 68.319913 -42.32 
L 68.436105 -42.32 
L 68.552297 -42.32 
L 68.668489 -42.32 
L 68.784681 -42.32 
L 68.900872 -42.32 
L 69.017064 -42.32 
L 69.133256 -42.32 
L 69.249448 -42.32 
L 69.36564 -42.32 
L 69.481831 -42.32 
L 69.598023 -42.32 
L 69.714215 -42.32 
L 69.830407 -42.32 
L 69.946599 -42.32 
L 70.062791 -42.32 
L 70.178982 -42.32 
L 70.295174 -42.32 
L 70.411366 -42.32 
L 70.527558 -42.32 
L 70.64375 -42.32 
L 70.759941 -42.32 
L 70.876133 -42.32 
L 70.992325 -42.32 
L 71.108517 -42.32 
L 71.224709 -42.32 
L 71.3409 -42.32 
L 71.457092 -42.32 
L 71.573284 -42.32 
L 71.689476 -42.32 
L 71.805668 -42.32 
L 71.921859 -42.32 
L 72.038051 -42.32 
L 72.154243 -42.32 
L 72.270435 -42.32 
L 72.386627 -42.32 
L 72.502819 -42.32 
L 72.61901 -42.32 
L 72.735202 -42.32 
L 72.851394 -42.32 
L 72.967586 -42.32 
L 73.083778 -42.32 
L 73.199969 -42.32 
L 73.316161 -42.32 
L 73.432353 -42.32 
L 73.548545 -42.32 
L 73.664737 -42.32 
L 73.780928 -42.32 
L 73.89712 -42.32 
L 74.013312 -42.32 
L 74.129504 -42.32 
L 74.245696 -42.32 
L 74.361887 -42.32 
L 74.478079 -42.32 
L 74.594271 -42.32 
L 74.710463 -42.32 
L 74.826655 -42.32 
L 74.942847 -42.32 
L 75.059038 -42.32 
L 75.17523 -42.32 
L 75.291422 -42.32 
L 75.407614 -42.32 
L 75.523806 -42.32 
L 75.639997 -42.32 
L 75.756189 -42.32 
L 75.872381 -42.32 
L 75.988573 -42.32 
L 76.104765 -42.32 
L 76.220956 -42.32 
L 76.337148 -42.32 
L 76.45334 -42.32 
L 76.569532 -42.32 
L 76.685724 -42.32 
L 76.801915 -42.32 
L 76.918107 -42.32 
L 77.034299 -42.32 
L 77.150491 -42.32 
L 77.266683 -42.32 
L 77.382875 -42.32 
L 77.499066 -42.32 
L 77.615258 -42.32 
L 77.73145 -42.32 
L 77.847642 -42.32 
L 77.963834 -42.32 
L 78.080025 -42.32 
L 78.196217 -42.32 
L 78.312409 -42.32 
L 78.428601 -42.32 
L 78.544793 -42.32 
L 78.660984 -42.32 
L 78.777176 -42.32 
L 78.893368 -42.32 
L 79.00956 -42.32 
L 79.125752 -42.32 
L 79.241943 -42.32 
L 79.358135 -42.32 
L 79.474327 -42.32 
L 79.590519 -42.32 
L 79.706711 -42.32 
L 79.822903 -42.32 
L 79.939094 -42.32 
L 80.055286 -42.32 
L 80.171478 -42.32 
L 80.28767 -42.32 
L 80.403862 -42.32 
L 80.520053 -42.32 
L 80.636245 -42.32 
L 80.752437 -42.32 
L 80.868629 -42.32 
L 80.984821 -42.32 
L 81.101012 -42.32 
L 81.217204 -42.32 
L 81.333396 -42.32 
L 81.449588 -42.32 
L 81.56578 -42.32 
L 81.681971 -42.32 
L 81.798163 -42.32 
L 81.798163 -42.727066 
L 81.798163 -42.727066 
L 81.681971 -42.7683 
L 81.56578 -42.808869 
L 81.449588 -42.847929 
L 81.333396 -42.884644 
L 81.217204 -42.918219 
L 81.101012 -42.947956 
L 80.984821 -42.973295 
L 80.868629 -42.99386 
L 80.752437 -43.009498 
L 80.636245 -43.02031 
L 80.520053 -43.026675 
L 80.403862 -43.029263 
L 80.28767 -43.02903 
L 80.171478 -43.02721 
L 80.055286 -43.025287 
L 79.939094 -43.024961 
L 79.822903 -43.028099 
L 79.706711 -43.036682 
L 79.590519 -43.052745 
L 79.474327 -43.078312 
L 79.358135 -43.115329 
L 79.241943 -43.165603 
L 79.125752 -43.230737 
L 79.00956 -43.312083 
L 78.893368 -43.410695 
L 78.777176 -43.527296 
L 78.660984 -43.662269 
L 78.544793 -43.81565 
L 78.428601 -43.987149 
L 78.312409 -44.176193 
L 78.196217 -44.381978 
L 78.080025 -44.60355 
L 77.963834 -44.839892 
L 77.847642 -45.090028 
L 77.73145 -45.353131 
L 77.615258 -45.628626 
L 77.499066 -45.916293 
L 77.382875 -46.216339 
L 77.266683 -46.529454 
L 77.150491 -46.856836 
L 77.034299 -47.200167 
L 76.918107 -47.561564 
L 76.801915 -47.943472 
L 76.685724 -48.348532 
L 76.569532 -48.779411 
L 76.45334 -49.238612 
L 76.337148 -49.728269 
L 76.220956 -50.249954 
L 76.104765 -50.804491 
L 75.988573 -51.391804 
L 75.872381 -52.010808 
L 75.756189 -52.659352 
L 75.639997 -53.334219 
L 75.523806 -54.03118 
L 75.407614 -54.745113 
L 75.291422 -55.47017 
L 75.17523 -56.199986 
L 75.059038 -56.927919 
L 74.942847 -57.647311 
L 74.826655 -58.351748 
L 74.710463 -59.035323 
L 74.594271 -59.692866 
L 74.478079 -60.32016 
L 74.361887 -60.914113 
L 74.245696 -61.472885 
L 74.129504 -61.995984 
L 74.013312 -62.4843 
L 73.89712 -62.940105 
L 73.780928 -63.366999 
L 73.664737 -63.769813 
L 73.548545 -64.154469 
L 73.432353 -64.5278 
L 73.316161 -64.897334 
L 73.199969 -65.271036 
L 73.083778 -65.657037 
L 72.967586 -66.06333 
L 72.851394 -66.497465 
L 72.735202 -66.966237 
L 72.61901 -67.475396 
L 72.502819 -68.02937 
L 72.386627 -68.631037 
L 72.270435 -69.28154 
L 72.154243 -69.980168 
L 72.038051 -70.724298 
L 71.921859 -71.509417 
L 71.805668 -72.329211 
L 71.689476 -73.175726 
L 71.573284 -74.039587 
L 71.457092 -74.910277 
L 71.3409 -75.776443 
L 71.224709 -76.626236 
L 71.108517 -77.447651 
L 70.992325 -78.228859 
L 70.876133 -78.958523 
L 70.759941 -79.626073 
L 70.64375 -80.221947 
L 70.527558 -80.737772 
L 70.411366 -81.166507 
L 70.295174 -81.50253 
L 70.178982 -81.741678 
L 70.062791 -81.881255 
L 69.946599 -81.92 
L 69.830407 -81.858031 
L 69.714215 -81.696773 
L 69.598023 -81.438875 
L 69.481831 -81.08812 
L 69.36564 -80.649325 
L 69.249448 -80.128253 
L 69.133256 -79.531509 
L 69.017064 -78.86644 
L 68.900872 -78.141027 
L 68.784681 -77.363766 
L 68.668489 -76.543539 
L 68.552297 -75.689466 
L 68.436105 -74.810753 
L 68.319913 -73.916509 
L 68.203722 -73.015568 
L 68.08753 -72.11629 
L 67.971338 -71.226372 
L 67.855146 -70.352658 
L 67.738954 -69.500973 
L 67.622763 -68.675974 
L 67.506571 -67.881042 
L 67.390379 -67.118217 
L 67.274187 -66.388174 
L 67.157995 -65.69026 
L 67.041804 -65.02258 
L 66.925612 -64.382132 
L 66.80942 -63.764992 
L 66.693228 -63.166527 
L 66.577036 -62.58164 
L 66.460844 -62.005027 
L 66.344653 -61.43143 
L 66.228461 -60.855879 
L 66.112269 -60.273909 
L 65.996077 -59.681742 
L 65.879885 -59.076426 
L 65.763694 -58.45593 
L 65.647502 -57.819189 
L 65.53131 -57.166105 
L 65.415118 -56.497509 
L 65.298926 -55.81508 
L 65.182735 -55.121245 
L 65.066543 -54.419054 
L 64.950351 -53.712042 
L 64.834159 -53.00409 
L 64.717967 -52.299284 
L 64.601776 -51.601786 
L 64.485584 -50.915711 
L 64.369392 -50.245019 
L 64.2532 -49.593431 
L 64.137008 -48.964346 
L 64.020816 -48.36079 
L 63.904625 -47.785375 
L 63.788433 -47.240269 
L 63.672241 -46.727183 
L 63.556049 -46.247377 
L 63.439857 -45.801664 
L 63.323666 -45.390433 
L 63.207474 -45.013678 
L 63.091282 -44.671031 
L 62.97509 -44.361803 
L 62.858898 -44.085024 
L 62.742707 -43.839488 
L 62.626515 -43.623798 
L 62.510323 -43.436408 
L 62.394131 -43.275662 
L 62.277939 -43.139828 
L 62.161748 -43.027132 
L 62.045556 -42.935778 
L 61.929364 -42.863969 
L 61.813172 -42.80992 
L 61.69698 -42.77186 
L 61.580788 -42.748041 
L 61.464597 -42.736734 
L 61.348405 -42.736226 
L 61.232213 -42.744821 
L 61.116021 -42.760836 
L 60.999829 -42.782609 
L 60.883638 -42.8085 
L 60.767446 -42.836908 
L 60.651254 -42.866286 
L 60.535062 -42.895165 
L 60.41887 -42.922178 
L 60.302679 -42.94609 
L 60.186487 -42.965823 
L 60.070295 -42.980486 
L 59.954103 -42.989395 
L 59.837911 -42.99209 
L 59.72172 -42.988341 
L 59.605528 -42.97815 
L 59.489336 -42.961742 
L 59.373144 -42.939541 
L 59.256952 -42.912149 
L 59.14076 -42.880307 
L 59.024569 -42.844861 
L 58.908377 -42.806718 
L 58.792185 -42.766807 
L 58.675993 -42.72604 
z
" style="stroke: #414487; stroke-width: 1.25"/>
    </defs>
    <g>
     <use xlink:href="#md9dcd5e817" x="0" y="174.26" style="fill: #414487; fill-opacity: 0.7; stroke: #414487; stroke-width: 1.25"/>
    </g>
   </g>
   <g id="line2d_9">
    <path d="M 7.2 131.94 
L 216.45 131.94 
" style="fill: none; stroke: #414487; stroke-opacity: 0.9; stroke-linecap: round"/>
   </g>
   <g id="text_12">
    <!-- 8 -->
    <g style="fill: #414487" transform="translate(7.2 131.022) scale(0.12 -0.12)">
     <defs>
      <path id="IBMPlexSans-Bold-38" d="M 1920 -77 
Q 1523 -77 1212 22 
Q 902 122 691 294 
Q 480 467 368 704 
Q 256 941 256 1222 
Q 256 1651 493 1923 
Q 730 2195 1133 2304 
L 1133 2355 
Q 806 2477 598 2726 
Q 390 2976 390 3366 
Q 390 3622 489 3840 
Q 589 4058 784 4214 
Q 979 4371 1264 4457 
Q 1549 4544 1920 4544 
Q 2291 4544 2576 4457 
Q 2861 4371 3056 4214 
Q 3251 4058 3350 3840 
Q 3450 3622 3450 3366 
Q 3450 2976 3242 2726 
Q 3034 2477 2707 2355 
L 2707 2304 
Q 3110 2195 3347 1923 
Q 3584 1651 3584 1222 
Q 3584 941 3472 704 
Q 3360 467 3149 294 
Q 2938 122 2627 22 
Q 2317 -77 1920 -77 
z
M 1920 659 
Q 2240 659 2409 809 
Q 2579 960 2579 1229 
L 2579 1357 
Q 2579 1626 2409 1776 
Q 2240 1926 1920 1926 
Q 1600 1926 1430 1776 
Q 1261 1626 1261 1357 
L 1261 1229 
Q 1261 960 1430 809 
Q 1600 659 1920 659 
z
M 1920 2630 
Q 2227 2630 2387 2774 
Q 2547 2918 2547 3168 
L 2547 3270 
Q 2547 3520 2387 3664 
Q 2227 3808 1920 3808 
Q 1613 3808 1453 3664 
Q 1293 3520 1293 3270 
L 1293 3168 
Q 1293 2918 1453 2774 
Q 1613 2630 1920 2630 
z
" transform="scale(0.015625)"/>
     </defs>
     <use xlink:href="#IBMPlexSans-Bold-38"/>
    </g>
   </g>
  </g>
 </g>
</svg>
