<?xml version="1.0" encoding="utf-8" standalone="no"?>
<!DOCTYPE svg PUBLIC "-//W3C//DTD SVG 1.1//EN"
  "http://www.w3.org/Graphics/SVG/1.1/DTD/svg11.dtd">
<svg xmlns:xlink="http://www.w3.org/1999/xlink" width="324.420465pt" height="229.269865pt" viewBox="0 0 324.420465 229.269865" xmlns="http://www.w3.org/2000/svg" version="1.1">
 <metadata>
  <rdf:RDF xmlns:dc="http://purl.org/dc/elements/1.1/" xmlns:cc="http://creativecommons.org/ns#" xmlns:rdf="http://www.w3.org/1999/02/22-rdf-syntax-ns#">
   <cc:Work>
    <dc:type rdf:resource="http://purl.org/dc/dcmitype/StillImage"/>
    <dc:date>2025-04-30T15:48:27.946419</dc:date>
    <dc:format>image/svg+xml</dc:format>
    <dc:creator>
     <cc:Agent>
      <dc:title>Matplotlib v3.10.1, https://matplotlib.org/</dc:title>
     </cc:Agent>
    </dc:creator>
   </cc:Work>
  </rdf:RDF>
 </metadata>
 <defs>
  <style type="text/css">*{stroke-linejoin: round; stroke-linecap: butt}</style>
 </defs>
 <g id="figure_1">
  <g id="patch_1">
   <path d="M -0 229.269865 
L 324.420465 229.269865 
L 324.420465 0 
L -0 0 
L -0 229.269865 
z
" style="fill: none"/>
  </g>
  <g id="axes_1">
   <g id="patch_2">
    <path d="M 50.844375 192.009865 
L 317.220465 192.009865 
L 317.220465 28.442513 
L 50.844375 28.442513 
L 50.844375 192.009865 
z
" style="fill: none"/>
   </g>
   <g id="matplotlib.axis_1">
    <g id="xtick_1">
     <g id="line2d_1">
      <path d="M 62.952379 192.009865 
L 62.952379 28.442513 
" clip-path="url(#p62815bfe21)" style="fill: none; stroke-dasharray: 1.48,0.64; stroke-dashoffset: 0; stroke: #838383; stroke-opacity: 0.25; stroke-width: 0.4"/>
     </g>
     <g id="text_1">
      <!-- 0 -->
      <g style="fill: #838383" transform="translate(59.352379 204.389865) scale(0.12 -0.12)">
       <defs>
        <path id="IBMPlexSans-Regular-30" d="M 1920 -77 
Q 1120 -77 752 531 
Q 384 1139 384 2234 
Q 384 3328 752 3936 
Q 1120 4544 1920 4544 
Q 2720 4544 3088 3936 
Q 3456 3328 3456 2234 
Q 3456 1139 3088 531 
Q 2720 -77 1920 -77 
z
M 1920 390 
Q 2182 390 2368 499 
Q 2554 608 2669 806 
Q 2784 1005 2838 1273 
Q 2893 1542 2893 1869 
L 2893 2598 
Q 2893 2925 2838 3193 
Q 2784 3462 2669 3660 
Q 2554 3859 2368 3968 
Q 2182 4077 1920 4077 
Q 1658 4077 1472 3968 
Q 1286 3859 1171 3660 
Q 1056 3462 1001 3193 
Q 947 2925 947 2598 
L 947 1869 
Q 947 1542 1001 1273 
Q 1056 1005 1171 806 
Q 1286 608 1472 499 
Q 1658 390 1920 390 
z
" transform="scale(0.015625)"/>
       </defs>
       <use xlink:href="#IBMPlexSans-Regular-30"/>
      </g>
     </g>
    </g>
    <g id="xtick_2">
     <g id="line2d_2">
      <path d="M 126.678716 192.009865 
L 126.678716 28.442513 
" clip-path="url(#p62815bfe21)" style="fill: none; stroke-dasharray: 1.48,0.64; stroke-dashoffset: 0; stroke: #838383; stroke-opacity: 0.25; stroke-width: 0.4"/>
     </g>
     <g id="text_2">
      <!-- 5 -->
      <g style="fill: #838383" transform="translate(123.078716 204.389865) scale(0.12 -0.12)">
       <defs>
        <path id="IBMPlexSans-Regular-35" d="M 3187 3994 
L 1229 3994 
L 1101 2291 
L 1146 2291 
Q 1306 2515 1507 2649 
Q 1709 2784 2061 2784 
Q 2349 2784 2592 2688 
Q 2835 2592 3014 2416 
Q 3194 2240 3293 1984 
Q 3392 1728 3392 1402 
Q 3392 1075 3289 803 
Q 3187 531 2992 336 
Q 2797 141 2518 32 
Q 2240 -77 1888 -77 
Q 1606 -77 1392 -13 
Q 1178 51 1011 160 
Q 845 269 720 403 
Q 595 538 493 685 
L 896 992 
Q 979 858 1072 749 
Q 1165 640 1277 563 
Q 1389 486 1536 444 
Q 1683 403 1888 403 
Q 2349 403 2585 646 
Q 2822 890 2822 1331 
L 2822 1395 
Q 2822 1837 2585 2080 
Q 2349 2323 1888 2323 
Q 1581 2323 1405 2211 
Q 1229 2099 1088 1946 
L 634 2010 
L 794 4467 
L 3187 4467 
L 3187 3994 
z
" transform="scale(0.015625)"/>
       </defs>
       <use xlink:href="#IBMPlexSans-Regular-35"/>
      </g>
     </g>
    </g>
    <g id="xtick_3">
     <g id="line2d_3">
      <path d="M 190.405054 192.009865 
L 190.405054 28.442513 
" clip-path="url(#p62815bfe21)" style="fill: none; stroke-dasharray: 1.48,0.64; stroke-dashoffset: 0; stroke: #838383; stroke-opacity: 0.25; stroke-width: 0.4"/>
     </g>
     <g id="text_3">
      <!-- 10 -->
      <g style="fill: #838383" transform="translate(183.205054 204.389865) scale(0.12 -0.12)">
       <defs>
        <path id="IBMPlexSans-Regular-31" d="M 563 0 
L 563 474 
L 1811 474 
L 1811 4070 
L 1766 4070 
L 640 3021 
L 326 3360 
L 1510 4467 
L 2349 4467 
L 2349 474 
L 3501 474 
L 3501 0 
L 563 0 
z
" transform="scale(0.015625)"/>
       </defs>
       <use xlink:href="#IBMPlexSans-Regular-31"/>
       <use xlink:href="#IBMPlexSans-Regular-30" transform="translate(59.999985 0)"/>
      </g>
     </g>
    </g>
    <g id="xtick_4">
     <g id="line2d_4">
      <path d="M 254.131391 192.009865 
L 254.131391 28.442513 
" clip-path="url(#p62815bfe21)" style="fill: none; stroke-dasharray: 1.48,0.64; stroke-dashoffset: 0; stroke: #838383; stroke-opacity: 0.25; stroke-width: 0.4"/>
     </g>
     <g id="text_4">
      <!-- 15 -->
      <g style="fill: #838383" transform="translate(246.931391 204.389865) scale(0.12 -0.12)">
       <use xlink:href="#IBMPlexSans-Regular-31"/>
       <use xlink:href="#IBMPlexSans-Regular-35" transform="translate(59.999985 0)"/>
      </g>
     </g>
    </g>
    <g id="text_5">
     <!-- draw -->
     <g style="fill: #838383" transform="translate(170.538045 219.669865) scale(0.12 -0.12)">
      <defs>
       <path id="IBMPlexSans-Regular-64" d="M 2656 538 
L 2630 538 
Q 2330 -77 1664 -77 
Q 1357 -77 1107 44 
Q 858 166 682 390 
Q 506 614 413 934 
Q 320 1254 320 1651 
Q 320 2048 413 2368 
Q 506 2688 682 2912 
Q 858 3136 1107 3257 
Q 1357 3379 1664 3379 
Q 2010 3379 2256 3228 
Q 2502 3078 2630 2765 
L 2656 2765 
L 2656 4736 
L 3168 4736 
L 3168 0 
L 2656 0 
L 2656 538 
z
M 1805 384 
Q 1978 384 2134 429 
Q 2291 474 2406 560 
Q 2522 646 2589 771 
Q 2656 896 2656 1056 
L 2656 2285 
Q 2656 2419 2589 2537 
Q 2522 2656 2406 2739 
Q 2291 2822 2134 2870 
Q 1978 2918 1805 2918 
Q 1370 2918 1120 2646 
Q 870 2374 870 1933 
L 870 1370 
Q 870 928 1120 656 
Q 1370 384 1805 384 
z
" transform="scale(0.015625)"/>
       <path id="IBMPlexSans-Regular-72" d="M 544 0 
L 544 3302 
L 1056 3302 
L 1056 2694 
L 1088 2694 
Q 1178 2931 1408 3116 
Q 1638 3302 2042 3302 
L 2240 3302 
L 2240 2790 
L 1939 2790 
Q 1523 2790 1289 2633 
Q 1056 2477 1056 2240 
L 1056 0 
L 544 0 
z
" transform="scale(0.015625)"/>
       <path id="IBMPlexSans-Regular-61" d="M 2944 0 
Q 2656 0 2531 153 
Q 2406 307 2374 538 
L 2342 538 
Q 2234 230 1984 76 
Q 1734 -77 1389 -77 
Q 864 -77 573 192 
Q 282 461 282 922 
Q 282 1389 624 1638 
Q 966 1888 1690 1888 
L 2342 1888 
L 2342 2214 
Q 2342 2566 2150 2752 
Q 1958 2938 1562 2938 
Q 1261 2938 1059 2803 
Q 858 2669 723 2445 
L 416 2733 
Q 550 3002 844 3190 
Q 1139 3379 1587 3379 
Q 2189 3379 2521 3084 
Q 2854 2790 2854 2266 
L 2854 448 
L 3232 448 
L 3232 0 
L 2944 0 
z
M 1472 358 
Q 1664 358 1824 403 
Q 1984 448 2099 531 
Q 2214 614 2278 723 
Q 2342 832 2342 960 
L 2342 1504 
L 1664 1504 
Q 1222 1504 1020 1376 
Q 819 1248 819 1005 
L 819 870 
Q 819 627 995 492 
Q 1171 358 1472 358 
z
" transform="scale(0.015625)"/>
       <path id="IBMPlexSans-Regular-77" d="M 198 3302 
L 698 3302 
L 1050 1875 
L 1402 429 
L 1414 429 
L 1818 1875 
L 2234 3302 
L 2688 3302 
L 3117 1875 
L 3526 429 
L 3539 429 
L 3878 1875 
L 4237 3302 
L 4717 3302 
L 3840 0 
L 3206 0 
L 2746 1587 
L 2458 2592 
L 2445 2592 
L 2163 1587 
L 1702 0 
L 1082 0 
L 198 3302 
z
" transform="scale(0.015625)"/>
      </defs>
      <use xlink:href="#IBMPlexSans-Regular-64"/>
      <use xlink:href="#IBMPlexSans-Regular-72" transform="translate(57.999985 0)"/>
      <use xlink:href="#IBMPlexSans-Regular-61" transform="translate(94.699982 0)"/>
      <use xlink:href="#IBMPlexSans-Regular-77" transform="translate(148.099976 0)"/>
     </g>
    </g>
   </g>
   <g id="matplotlib.axis_2">
    <g id="ytick_1">
     <g id="line2d_5">
      <path d="M 50.844375 177.311818 
L 317.220465 177.311818 
" clip-path="url(#p62815bfe21)" style="fill: none; stroke-dasharray: 1.48,0.64; stroke-dashoffset: 0; stroke: #838383; stroke-opacity: 0.25; stroke-width: 0.4"/>
     </g>
     <g id="text_6">
      <!-- −7.5 -->
      <g style="fill: #838383" transform="translate(22.48 181.751818) scale(0.12 -0.12)">
       <defs>
        <path id="IBMPlexSans-Regular-2212" d="M 429 1734 
L 429 2170 
L 3411 2170 
L 3411 1734 
L 429 1734 
z
" transform="scale(0.015625)"/>
        <path id="IBMPlexSans-Regular-37" d="M 1120 0 
L 2829 4006 
L 922 4006 
L 922 3174 
L 442 3174 
L 442 4467 
L 3373 4467 
L 3373 3994 
L 1696 0 
L 1120 0 
z
" transform="scale(0.015625)"/>
        <path id="IBMPlexSans-Regular-2e" d="M 870 -77 
Q 666 -77 573 25 
Q 480 128 480 294 
L 480 378 
Q 480 544 573 646 
Q 666 749 870 749 
Q 1075 749 1168 646 
Q 1261 544 1261 378 
L 1261 294 
Q 1261 128 1168 25 
Q 1075 -77 870 -77 
z
" transform="scale(0.015625)"/>
       </defs>
       <use xlink:href="#IBMPlexSans-Regular-2212"/>
       <use xlink:href="#IBMPlexSans-Regular-37" transform="translate(59.999985 0)"/>
       <use xlink:href="#IBMPlexSans-Regular-2e" transform="translate(119.999969 0)"/>
       <use xlink:href="#IBMPlexSans-Regular-35" transform="translate(147.199966 0)"/>
      </g>
     </g>
    </g>
    <g id="ytick_2">
     <g id="line2d_6">
      <path d="M 50.844375 143.671785 
L 317.220465 143.671785 
" clip-path="url(#p62815bfe21)" style="fill: none; stroke-dasharray: 1.48,0.64; stroke-dashoffset: 0; stroke: #838383; stroke-opacity: 0.25; stroke-width: 0.4"/>
     </g>
     <g id="text_7">
      <!-- −5.0 -->
      <g style="fill: #838383" transform="translate(22.48 148.111785) scale(0.12 -0.12)">
       <use xlink:href="#IBMPlexSans-Regular-2212"/>
       <use xlink:href="#IBMPlexSans-Regular-35" transform="translate(59.999985 0)"/>
       <use xlink:href="#IBMPlexSans-Regular-2e" transform="translate(119.999969 0)"/>
       <use xlink:href="#IBMPlexSans-Regular-30" transform="translate(147.199966 0)"/>
      </g>
     </g>
    </g>
    <g id="ytick_3">
     <g id="line2d_7">
      <path d="M 50.844375 110.031752 
L 317.220465 110.031752 
" clip-path="url(#p62815bfe21)" style="fill: none; stroke-dasharray: 1.48,0.64; stroke-dashoffset: 0; stroke: #838383; stroke-opacity: 0.25; stroke-width: 0.4"/>
     </g>
     <g id="text_8">
      <!-- −2.5 -->
      <g style="fill: #838383" transform="translate(22.48 114.471752) scale(0.12 -0.12)">
       <defs>
        <path id="IBMPlexSans-Regular-32" d="M 3411 0 
L 480 0 
L 480 550 
L 1939 1894 
Q 2253 2182 2464 2505 
Q 2675 2829 2675 3155 
L 2675 3232 
Q 2675 3603 2470 3833 
Q 2266 4064 1850 4064 
Q 1645 4064 1491 4006 
Q 1338 3949 1226 3846 
Q 1114 3744 1040 3606 
Q 966 3469 922 3309 
L 442 3494 
Q 506 3693 618 3881 
Q 730 4070 899 4217 
Q 1069 4365 1309 4454 
Q 1549 4544 1875 4544 
Q 2202 4544 2458 4448 
Q 2714 4352 2886 4179 
Q 3059 4006 3152 3769 
Q 3245 3533 3245 3245 
Q 3245 2982 3171 2758 
Q 3098 2534 2970 2332 
Q 2842 2131 2659 1939 
Q 2477 1747 2266 1555 
L 1062 474 
L 3411 474 
L 3411 0 
z
" transform="scale(0.015625)"/>
       </defs>
       <use xlink:href="#IBMPlexSans-Regular-2212"/>
       <use xlink:href="#IBMPlexSans-Regular-32" transform="translate(59.999985 0)"/>
       <use xlink:href="#IBMPlexSans-Regular-2e" transform="translate(119.999969 0)"/>
       <use xlink:href="#IBMPlexSans-Regular-35" transform="translate(147.199966 0)"/>
      </g>
     </g>
    </g>
    <g id="ytick_4">
     <g id="line2d_8">
      <path d="M 50.844375 76.39172 
L 317.220465 76.39172 
" clip-path="url(#p62815bfe21)" style="fill: none; stroke-dasharray: 1.48,0.64; stroke-dashoffset: 0; stroke: #838383; stroke-opacity: 0.25; stroke-width: 0.4"/>
     </g>
     <g id="text_9">
      <!-- 0.0 -->
      <g style="fill: #838383" transform="translate(29.68 80.83172) scale(0.12 -0.12)">
       <use xlink:href="#IBMPlexSans-Regular-30"/>
       <use xlink:href="#IBMPlexSans-Regular-2e" transform="translate(59.999985 0)"/>
       <use xlink:href="#IBMPlexSans-Regular-30" transform="translate(87.199982 0)"/>
      </g>
     </g>
    </g>
    <g id="ytick_5">
     <g id="line2d_9">
      <path d="M 50.844375 42.751687 
L 317.220465 42.751687 
" clip-path="url(#p62815bfe21)" style="fill: none; stroke-dasharray: 1.48,0.64; stroke-dashoffset: 0; stroke: #838383; stroke-opacity: 0.25; stroke-width: 0.4"/>
     </g>
     <g id="text_10">
      <!-- 2.5 -->
      <g style="fill: #838383" transform="translate(29.68 47.191687) scale(0.12 -0.12)">
       <use xlink:href="#IBMPlexSans-Regular-32"/>
       <use xlink:href="#IBMPlexSans-Regular-2e" transform="translate(59.999985 0)"/>
       <use xlink:href="#IBMPlexSans-Regular-35" transform="translate(87.199982 0)"/>
      </g>
     </g>
    </g>
    <g id="text_11">
     <!-- sldb -->
     <g style="fill: #838383" transform="translate(16.08 121.740564) rotate(-90) scale(0.12 -0.12)">
      <defs>
       <path id="IBMPlexSans-Regular-73" d="M 1536 -77 
Q 1075 -77 764 99 
Q 454 275 230 570 
L 595 864 
Q 787 621 1024 489 
Q 1261 358 1574 358 
Q 1901 358 2083 499 
Q 2266 640 2266 896 
Q 2266 1088 2141 1225 
Q 2016 1363 1690 1414 
L 1427 1453 
Q 1197 1485 1005 1552 
Q 813 1619 669 1731 
Q 525 1843 445 2009 
Q 365 2176 365 2406 
Q 365 2650 454 2832 
Q 544 3014 701 3136 
Q 858 3258 1075 3318 
Q 1293 3379 1542 3379 
Q 1946 3379 2218 3238 
Q 2490 3098 2694 2848 
L 2355 2541 
Q 2246 2694 2035 2819 
Q 1824 2944 1504 2944 
Q 1184 2944 1021 2806 
Q 858 2669 858 2432 
Q 858 2189 1021 2080 
Q 1184 1971 1491 1920 
L 1747 1882 
Q 2298 1798 2528 1564 
Q 2758 1331 2758 954 
Q 2758 474 2432 198 
Q 2106 -77 1536 -77 
z
" transform="scale(0.015625)"/>
       <path id="IBMPlexSans-Regular-6c" d="M 1088 0 
Q 819 0 681 150 
Q 544 301 544 531 
L 544 4736 
L 1056 4736 
L 1056 448 
L 1542 448 
L 1542 0 
L 1088 0 
z
" transform="scale(0.015625)"/>
       <path id="IBMPlexSans-Regular-62" d="M 544 4736 
L 1056 4736 
L 1056 2765 
L 1082 2765 
Q 1210 3078 1456 3228 
Q 1702 3379 2048 3379 
Q 2355 3379 2604 3257 
Q 2854 3136 3030 2912 
Q 3206 2688 3299 2368 
Q 3392 2048 3392 1651 
Q 3392 1254 3299 934 
Q 3206 614 3030 390 
Q 2854 166 2604 44 
Q 2355 -77 2048 -77 
Q 1376 -77 1082 538 
L 1056 538 
L 1056 0 
L 544 0 
L 544 4736 
z
M 1907 384 
Q 2342 384 2592 656 
Q 2842 928 2842 1370 
L 2842 1933 
Q 2842 2374 2592 2646 
Q 2342 2918 1907 2918 
Q 1734 2918 1577 2870 
Q 1421 2822 1305 2739 
Q 1190 2656 1123 2537 
Q 1056 2419 1056 2285 
L 1056 1056 
Q 1056 896 1123 771 
Q 1190 646 1305 560 
Q 1421 474 1577 429 
Q 1734 384 1907 384 
z
" transform="scale(0.015625)"/>
      </defs>
      <use xlink:href="#IBMPlexSans-Regular-73"/>
      <use xlink:href="#IBMPlexSans-Regular-6c" transform="translate(48.699997 0)"/>
      <use xlink:href="#IBMPlexSans-Regular-64" transform="translate(75.899994 0)"/>
      <use xlink:href="#IBMPlexSans-Regular-62" transform="translate(133.899979 0)"/>
     </g>
    </g>
   </g>
   <g id="line2d_10">
    <path d="M 62.952379 76.39172 
L 75.697647 76.39172 
L 88.442914 76.39172 
L 101.188181 76.39172 
L 113.933449 76.39172 
L 126.678716 76.39172 
L 139.423984 76.39172 
L 152.169251 76.39172 
L 164.914519 76.39172 
L 177.659786 76.39172 
L 190.405054 76.39172 
L 203.150321 76.39172 
L 215.895588 76.39172 
L 228.640856 76.39172 
L 241.386123 76.39172 
L 254.131391 76.39172 
L 266.876658 76.39172 
L 279.621926 76.39172 
L 292.367193 76.39172 
L 305.112461 76.39172 
" clip-path="url(#p62815bfe21)" style="fill: none"/>
   </g>
   <g id="line2d_11">
    <path d="M 62.952379 76.39172 
L 75.697647 76.39172 
L 88.442914 76.39172 
L 101.188181 76.39172 
L 113.933449 76.39172 
L 126.678716 76.39172 
L 139.423984 76.39172 
L 152.169251 76.39172 
L 164.914519 76.39172 
L 177.659786 76.39172 
L 190.405054 76.39172 
L 203.150321 76.39172 
L 215.895588 76.39172 
L 228.640856 76.39172 
L 241.386123 76.39172 
L 254.131391 76.39172 
L 266.876658 76.39172 
L 279.621926 76.39172 
L 292.367193 76.39172 
L 305.112461 76.39172 
" clip-path="url(#p62815bfe21)" style="fill: none"/>
   </g>
   <g id="line2d_12">
    <path d="M 62.952379 76.39172 
L 75.697647 76.39172 
L 88.442914 76.39172 
L 101.188181 76.39172 
L 113.933449 76.39172 
L 126.678716 76.39172 
L 139.423984 76.39172 
L 152.169251 76.39172 
L 164.914519 76.39172 
L 177.659786 76.39172 
L 190.405054 76.39172 
L 203.150321 76.39172 
L 215.895588 76.39172 
L 228.640856 76.39172 
L 241.386123 76.39172 
L 254.131391 76.39172 
L 266.876658 76.39172 
L 279.621926 76.39172 
L 292.367193 76.39172 
L 305.112461 76.39172 
" clip-path="url(#p62815bfe21)" style="fill: none"/>
   </g>
   <g id="line2d_13">
    <path d="M 62.952379 76.39172 
L 75.697647 76.39172 
L 88.442914 76.39172 
L 101.188181 76.39172 
L 113.933449 76.39172 
L 126.678716 76.39172 
L 139.423984 76.39172 
L 152.169251 76.39172 
L 164.914519 76.39172 
L 177.659786 76.39172 
L 190.405054 76.39172 
L 203.150321 76.39172 
L 215.895588 76.39172 
L 228.640856 76.39172 
L 241.386123 76.39172 
L 254.131391 76.39172 
L 266.876658 76.39172 
L 279.621926 76.39172 
L 292.367193 76.39172 
L 305.112461 76.39172 
" clip-path="url(#p62815bfe21)" style="fill: none"/>
   </g>
   <g id="line2d_14">
    <path d="M 62.952379 76.39172 
L 75.697647 76.39172 
L 88.442914 76.39172 
L 101.188181 76.39172 
L 113.933449 76.39172 
L 126.678716 76.39172 
L 139.423984 76.39172 
L 152.169251 76.39172 
L 164.914519 76.39172 
L 177.659786 76.39172 
L 190.405054 76.39172 
L 203.150321 76.39172 
L 215.895588 76.39172 
L 228.640856 76.39172 
L 241.386123 76.39172 
L 254.131391 76.39172 
L 266.876658 76.39172 
L 279.621926 76.39172 
L 292.367193 76.39172 
L 305.112461 76.39172 
" clip-path="url(#p62815bfe21)" style="fill: none"/>
   </g>
   <g id="line2d_15">
    <path d="M 62.952379 76.39172 
L 75.697647 76.39172 
L 88.442914 76.39172 
L 101.188181 76.39172 
L 113.933449 76.39172 
L 126.678716 76.39172 
L 139.423984 76.39172 
L 152.169251 76.39172 
L 164.914519 76.39172 
L 177.659786 76.39172 
L 190.405054 76.39172 
L 203.150321 76.39172 
L 215.895588 76.39172 
L 228.640856 76.39172 
L 241.386123 76.39172 
L 254.131391 76.39172 
L 266.876658 76.39172 
L 279.621926 76.39172 
L 292.367193 76.39172 
L 305.112461 76.39172 
" clip-path="url(#p62815bfe21)" style="fill: none"/>
   </g>
   <g id="line2d_16">
    <path d="M 62.952379 76.39172 
L 75.697647 76.39172 
L 88.442914 76.39172 
L 101.188181 76.39172 
L 113.933449 76.39172 
L 126.678716 76.39172 
L 139.423984 76.39172 
L 152.169251 76.39172 
L 164.914519 76.39172 
L 177.659786 76.39172 
L 190.405054 76.39172 
L 203.150321 76.39172 
L 215.895588 76.39172 
L 228.640856 76.39172 
L 241.386123 76.39172 
L 254.131391 76.39172 
L 266.876658 76.39172 
L 279.621926 76.39172 
L 292.367193 76.39172 
L 305.112461 76.39172 
" clip-path="url(#p62815bfe21)" style="fill: none"/>
   </g>
   <g id="line2d_17">
    <path d="M 62.952379 76.39172 
L 75.697647 76.39172 
L 88.442914 76.39172 
L 101.188181 76.39172 
L 113.933449 76.39172 
L 126.678716 76.39172 
L 139.423984 76.39172 
L 152.169251 76.39172 
L 164.914519 76.39172 
L 177.659786 76.39172 
L 190.405054 76.39172 
L 203.150321 76.39172 
L 215.895588 76.39172 
L 228.640856 76.39172 
L 241.386123 76.39172 
L 254.131391 76.39172 
L 266.876658 76.39172 
L 279.621926 76.39172 
L 292.367193 76.39172 
L 305.112461 76.39172 
" clip-path="url(#p62815bfe21)" style="fill: none"/>
   </g>
   <g id="line2d_18">
    <path d="M 62.952379 76.39172 
L 75.697647 76.39172 
L 88.442914 76.39172 
L 101.188181 76.39172 
L 113.933449 76.39172 
L 126.678716 76.39172 
L 139.423984 76.39172 
L 152.169251 76.39172 
L 164.914519 76.39172 
L 177.659786 76.39172 
L 190.405054 76.39172 
L 203.150321 76.39172 
L 215.895588 76.39172 
L 228.640856 76.39172 
L 241.386123 76.39172 
L 254.131391 76.39172 
L 266.876658 76.39172 
L 279.621926 76.39172 
L 292.367193 76.39172 
L 305.112461 76.39172 
" clip-path="url(#p62815bfe21)" style="fill: none; stroke: #440154; stroke-width: 1.5; stroke-linecap: round"/>
   </g>
   <g id="line2d_19">
    <path d="M 62.952379 76.39172 
L 75.697647 76.39172 
L 88.442914 76.39172 
L 101.188181 76.39172 
L 113.933449 76.39172 
L 126.678716 76.39172 
L 139.423984 76.39172 
L 152.169251 76.39172 
L 164.914519 76.39172 
L 177.659786 76.39172 
L 190.405054 76.39172 
L 203.150321 76.39172 
L 215.895588 76.39172 
L 228.640856 76.39172 
L 241.386123 76.39172 
L 254.131391 76.39172 
L 266.876658 76.39172 
L 279.621926 76.39172 
L 292.367193 76.39172 
L 305.112461 76.39172 
" clip-path="url(#p62815bfe21)" style="fill: none"/>
   </g>
   <g id="line2d_20">
    <path d="M 62.952379 76.39172 
L 75.697647 76.39172 
L 88.442914 76.39172 
L 101.188181 76.39172 
L 113.933449 76.39172 
L 126.678716 76.39172 
L 139.423984 76.39172 
L 152.169251 76.39172 
L 164.914519 76.39172 
L 177.659786 76.39172 
L 190.405054 76.39172 
L 203.150321 76.39172 
L 215.895588 76.39172 
L 228.640856 76.39172 
L 241.386123 76.39172 
L 254.131391 76.39172 
L 266.876658 76.39172 
L 279.621926 76.39172 
L 292.367193 76.39172 
L 305.112461 76.39172 
" clip-path="url(#p62815bfe21)" style="fill: none"/>
   </g>
   <g id="line2d_21">
    <path d="M 62.952379 76.39172 
L 75.697647 76.39172 
L 88.442914 76.39172 
L 101.188181 76.39172 
L 113.933449 76.39172 
L 126.678716 76.39172 
L 139.423984 76.39172 
L 152.169251 76.39172 
L 164.914519 76.39172 
L 177.659786 76.39172 
L 190.405054 76.39172 
L 203.150321 76.39172 
L 215.895588 76.39172 
L 228.640856 76.39172 
L 241.386123 76.39172 
L 254.131391 76.39172 
L 266.876658 76.39172 
L 279.621926 76.39172 
L 292.367193 76.39172 
L 305.112461 76.39172 
" clip-path="url(#p62815bfe21)" style="fill: none"/>
   </g>
   <g id="line2d_22">
    <path d="M 62.952379 76.39172 
L 75.697647 76.39172 
L 88.442914 76.39172 
L 101.188181 76.39172 
L 113.933449 76.39172 
L 126.678716 76.39172 
L 139.423984 76.39172 
L 152.169251 76.39172 
L 164.914519 76.39172 
L 177.659786 76.39172 
L 190.405054 76.39172 
L 203.150321 76.39172 
L 215.895588 76.39172 
L 228.640856 76.39172 
L 241.386123 76.39172 
L 254.131391 76.39172 
L 266.876658 76.39172 
L 279.621926 76.39172 
L 292.367193 76.39172 
L 305.112461 76.39172 
" clip-path="url(#p62815bfe21)" style="fill: none"/>
   </g>
   <g id="line2d_23">
    <path d="M 62.952379 76.39172 
L 75.697647 76.39172 
L 88.442914 76.39172 
L 101.188181 76.39172 
L 113.933449 76.39172 
L 126.678716 76.39172 
L 139.423984 76.39172 
L 152.169251 76.39172 
L 164.914519 76.39172 
L 177.659786 76.39172 
L 190.405054 76.39172 
L 203.150321 76.39172 
L 215.895588 76.39172 
L 228.640856 76.39172 
L 241.386123 76.39172 
L 254.131391 76.39172 
L 266.876658 76.39172 
L 279.621926 76.39172 
L 292.367193 76.39172 
L 305.112461 76.39172 
" clip-path="url(#p62815bfe21)" style="fill: none"/>
   </g>
   <g id="line2d_24">
    <path d="M 62.952379 76.39172 
L 75.697647 76.39172 
L 88.442914 76.39172 
L 101.188181 76.39172 
L 113.933449 76.39172 
L 126.678716 76.39172 
L 139.423984 76.39172 
L 152.169251 76.39172 
L 164.914519 76.39172 
L 177.659786 76.39172 
L 190.405054 76.39172 
L 203.150321 76.39172 
L 215.895588 76.39172 
L 228.640856 76.39172 
L 241.386123 76.39172 
L 254.131391 76.39172 
L 266.876658 76.39172 
L 279.621926 76.39172 
L 292.367193 76.39172 
L 305.112461 76.39172 
" clip-path="url(#p62815bfe21)" style="fill: none"/>
   </g>
   <g id="line2d_25">
    <path d="M 62.952379 76.39172 
L 75.697647 76.39172 
L 88.442914 76.39172 
L 101.188181 76.39172 
L 113.933449 76.39172 
L 126.678716 76.39172 
L 139.423984 76.39172 
L 152.169251 76.39172 
L 164.914519 76.39172 
L 177.659786 76.39172 
L 190.405054 76.39172 
L 203.150321 76.39172 
L 215.895588 76.39172 
L 228.640856 76.39172 
L 241.386123 76.39172 
L 254.131391 76.39172 
L 266.876658 76.39172 
L 279.621926 76.39172 
L 292.367193 76.39172 
L 305.112461 76.39172 
" clip-path="url(#p62815bfe21)" style="fill: none"/>
   </g>
   <g id="line2d_26">
    <path d="M 62.952379 76.39172 
L 75.697647 76.39172 
L 88.442914 76.39172 
L 101.188181 76.39172 
L 113.933449 76.39172 
L 126.678716 76.39172 
L 139.423984 76.39172 
L 152.169251 76.39172 
L 164.914519 76.39172 
L 177.659786 76.39172 
L 190.405054 76.39172 
L 203.150321 76.39172 
L 215.895588 76.39172 
L 228.640856 76.39172 
L 241.386123 76.39172 
L 254.131391 76.39172 
L 266.876658 76.39172 
L 279.621926 76.39172 
L 292.367193 76.39172 
L 305.112461 76.39172 
" clip-path="url(#p62815bfe21)" style="fill: none"/>
   </g>
   <g id="line2d_27">
    <path d="M 62.952379 76.39172 
L 75.697647 76.39172 
L 88.442914 76.39172 
L 101.188181 76.39172 
L 113.933449 76.39172 
L 126.678716 76.39172 
L 139.423984 76.39172 
L 152.169251 76.39172 
L 164.914519 76.39172 
L 177.659786 76.39172 
L 190.405054 76.39172 
L 203.150321 76.39172 
L 215.895588 76.39172 
L 228.640856 76.39172 
L 241.386123 76.39172 
L 254.131391 76.39172 
L 266.876658 76.39172 
L 279.621926 76.39172 
L 292.367193 76.39172 
L 305.112461 76.39172 
" clip-path="url(#p62815bfe21)" style="fill: none; stroke: #472d7b; stroke-width: 1.5; stroke-linecap: round"/>
   </g>
   <g id="line2d_28">
    <path d="M 62.952379 76.39172 
L 75.697647 76.39172 
L 88.442914 76.39172 
L 101.188181 76.39172 
L 113.933449 76.39172 
L 126.678716 76.39172 
L 139.423984 76.39172 
L 152.169251 76.39172 
L 164.914519 76.39172 
L 177.659786 76.39172 
L 190.405054 76.39172 
L 203.150321 76.39172 
L 215.895588 76.39172 
L 228.640856 76.39172 
L 241.386123 76.39172 
L 254.131391 76.39172 
L 266.876658 76.39172 
L 279.621926 76.39172 
L 292.367193 76.39172 
L 305.112461 76.39172 
" clip-path="url(#p62815bfe21)" style="fill: none"/>
   </g>
   <g id="line2d_29">
    <path d="M 62.952379 76.39172 
L 75.697647 76.39172 
L 88.442914 76.39172 
L 101.188181 76.39172 
L 113.933449 76.39172 
L 126.678716 76.39172 
L 139.423984 76.39172 
L 152.169251 76.39172 
L 164.914519 76.39172 
L 177.659786 76.39172 
L 190.405054 76.39172 
L 203.150321 76.39172 
L 215.895588 76.39172 
L 228.640856 76.39172 
L 241.386123 76.39172 
L 254.131391 76.39172 
L 266.876658 76.39172 
L 279.621926 76.39172 
L 292.367193 76.39172 
L 305.112461 76.39172 
" clip-path="url(#p62815bfe21)" style="fill: none"/>
   </g>
   <g id="line2d_30">
    <path d="M 62.952379 76.39172 
L 75.697647 76.39172 
L 88.442914 76.39172 
L 101.188181 76.39172 
L 113.933449 76.39172 
L 126.678716 76.39172 
L 139.423984 76.39172 
L 152.169251 76.39172 
L 164.914519 76.39172 
L 177.659786 76.39172 
L 190.405054 76.39172 
L 203.150321 76.39172 
L 215.895588 76.39172 
L 228.640856 76.39172 
L 241.386123 76.39172 
L 254.131391 76.39172 
L 266.876658 76.39172 
L 279.621926 76.39172 
L 292.367193 76.39172 
L 305.112461 76.39172 
" clip-path="url(#p62815bfe21)" style="fill: none"/>
   </g>
   <g id="line2d_31">
    <path d="M 62.952379 76.39172 
L 75.697647 76.39172 
L 88.442914 76.39172 
L 101.188181 76.39172 
L 113.933449 76.39172 
L 126.678716 76.39172 
L 139.423984 76.39172 
L 152.169251 76.39172 
L 164.914519 76.39172 
L 177.659786 76.39172 
L 190.405054 76.39172 
L 203.150321 76.39172 
L 215.895588 76.39172 
L 228.640856 76.39172 
L 241.386123 76.39172 
L 254.131391 76.39172 
L 266.876658 76.39172 
L 279.621926 76.39172 
L 292.367193 76.39172 
L 305.112461 76.39172 
" clip-path="url(#p62815bfe21)" style="fill: none"/>
   </g>
   <g id="line2d_32">
    <path d="M 62.952379 76.39172 
L 75.697647 76.39172 
L 88.442914 76.39172 
L 101.188181 76.39172 
L 113.933449 76.39172 
L 126.678716 76.39172 
L 139.423984 76.39172 
L 152.169251 76.39172 
L 164.914519 76.39172 
L 177.659786 76.39172 
L 190.405054 76.39172 
L 203.150321 76.39172 
L 215.895588 76.39172 
L 228.640856 76.39172 
L 241.386123 76.39172 
L 254.131391 76.39172 
L 266.876658 76.39172 
L 279.621926 76.39172 
L 292.367193 76.39172 
L 305.112461 76.39172 
" clip-path="url(#p62815bfe21)" style="fill: none"/>
   </g>
   <g id="line2d_33">
    <path d="M 62.952379 76.39172 
L 75.697647 76.39172 
L 88.442914 76.39172 
L 101.188181 76.39172 
L 113.933449 76.39172 
L 126.678716 76.39172 
L 139.423984 76.39172 
L 152.169251 76.39172 
L 164.914519 76.39172 
L 177.659786 76.39172 
L 190.405054 76.39172 
L 203.150321 76.39172 
L 215.895588 76.39172 
L 228.640856 76.39172 
L 241.386123 76.39172 
L 254.131391 76.39172 
L 266.876658 76.39172 
L 279.621926 76.39172 
L 292.367193 76.39172 
L 305.112461 76.39172 
" clip-path="url(#p62815bfe21)" style="fill: none"/>
   </g>
   <g id="line2d_34">
    <path d="M 62.952379 76.39172 
L 75.697647 76.39172 
L 88.442914 76.39172 
L 101.188181 76.39172 
L 113.933449 76.39172 
L 126.678716 76.39172 
L 139.423984 76.39172 
L 152.169251 76.39172 
L 164.914519 76.39172 
L 177.659786 76.39172 
L 190.405054 76.39172 
L 203.150321 76.39172 
L 215.895588 76.39172 
L 228.640856 76.39172 
L 241.386123 76.39172 
L 254.131391 76.39172 
L 266.876658 76.39172 
L 279.621926 76.39172 
L 292.367193 76.39172 
L 305.112461 76.39172 
" clip-path="url(#p62815bfe21)" style="fill: none"/>
   </g>
   <g id="line2d_35">
    <path d="M 62.952379 76.39172 
L 75.697647 76.39172 
L 88.442914 76.39172 
L 101.188181 76.39172 
L 113.933449 76.39172 
L 126.678716 76.39172 
L 139.423984 76.39172 
L 152.169251 76.39172 
L 164.914519 76.39172 
L 177.659786 76.39172 
L 190.405054 76.39172 
L 203.150321 76.39172 
L 215.895588 76.39172 
L 228.640856 76.39172 
L 241.386123 76.39172 
L 254.131391 76.39172 
L 266.876658 76.39172 
L 279.621926 76.39172 
L 292.367193 76.39172 
L 305.112461 76.39172 
" clip-path="url(#p62815bfe21)" style="fill: none"/>
   </g>
   <g id="line2d_36">
    <path d="M 62.952379 76.39172 
L 75.697647 76.39172 
L 88.442914 76.39172 
L 101.188181 76.39172 
L 113.933449 76.39172 
L 126.678716 76.39172 
L 139.423984 76.39172 
L 152.169251 76.39172 
L 164.914519 76.39172 
L 177.659786 76.39172 
L 190.405054 76.39172 
L 203.150321 76.39172 
L 215.895588 76.39172 
L 228.640856 76.39172 
L 241.386123 76.39172 
L 254.131391 76.39172 
L 266.876658 76.39172 
L 279.621926 76.39172 
L 292.367193 76.39172 
L 305.112461 76.39172 
" clip-path="url(#p62815bfe21)" style="fill: none; stroke: #3b528b; stroke-width: 1.5; stroke-linecap: round"/>
   </g>
   <g id="line2d_37">
    <path d="M 62.952379 76.39172 
L 75.697647 76.39172 
L 88.442914 76.39172 
L 101.188181 76.39172 
L 113.933449 76.39172 
L 126.678716 76.39172 
L 139.423984 76.39172 
L 152.169251 76.39172 
L 164.914519 76.39172 
L 177.659786 76.39172 
L 190.405054 76.39172 
L 203.150321 76.39172 
L 215.895588 76.39172 
L 228.640856 76.39172 
L 241.386123 76.39172 
L 254.131391 76.39172 
L 266.876658 76.39172 
L 279.621926 76.39172 
L 292.367193 76.39172 
L 305.112461 76.39172 
" clip-path="url(#p62815bfe21)" style="fill: none"/>
   </g>
   <g id="line2d_38">
    <path d="M 62.952379 76.39172 
L 75.697647 76.39172 
L 88.442914 76.39172 
L 101.188181 76.39172 
L 113.933449 76.39172 
L 126.678716 76.39172 
L 139.423984 76.39172 
L 152.169251 76.39172 
L 164.914519 76.39172 
L 177.659786 76.39172 
L 190.405054 76.39172 
L 203.150321 76.39172 
L 215.895588 76.39172 
L 228.640856 76.39172 
L 241.386123 76.39172 
L 254.131391 76.39172 
L 266.876658 76.39172 
L 279.621926 76.39172 
L 292.367193 76.39172 
L 305.112461 76.39172 
" clip-path="url(#p62815bfe21)" style="fill: none"/>
   </g>
   <g id="line2d_39">
    <path d="M 62.952379 76.39172 
L 75.697647 76.39172 
L 88.442914 76.39172 
L 101.188181 76.39172 
L 113.933449 76.39172 
L 126.678716 76.39172 
L 139.423984 76.39172 
L 152.169251 76.39172 
L 164.914519 76.39172 
L 177.659786 76.39172 
L 190.405054 76.39172 
L 203.150321 76.39172 
L 215.895588 76.39172 
L 228.640856 76.39172 
L 241.386123 76.39172 
L 254.131391 76.39172 
L 266.876658 76.39172 
L 279.621926 76.39172 
L 292.367193 76.39172 
L 305.112461 76.39172 
" clip-path="url(#p62815bfe21)" style="fill: none"/>
   </g>
   <g id="line2d_40">
    <path d="M 62.952379 76.39172 
L 75.697647 76.39172 
L 88.442914 76.39172 
L 101.188181 76.39172 
L 113.933449 76.39172 
L 126.678716 76.39172 
L 139.423984 76.39172 
L 152.169251 76.39172 
L 164.914519 76.39172 
L 177.659786 76.39172 
L 190.405054 76.39172 
L 203.150321 76.39172 
L 215.895588 76.39172 
L 228.640856 76.39172 
L 241.386123 76.39172 
L 254.131391 76.39172 
L 266.876658 76.39172 
L 279.621926 76.39172 
L 292.367193 76.39172 
L 305.112461 76.39172 
" clip-path="url(#p62815bfe21)" style="fill: none"/>
   </g>
   <g id="line2d_41">
    <path d="M 62.952379 76.39172 
L 75.697647 76.39172 
L 88.442914 76.39172 
L 101.188181 76.39172 
L 113.933449 76.39172 
L 126.678716 76.39172 
L 139.423984 76.39172 
L 152.169251 76.39172 
L 164.914519 76.39172 
L 177.659786 76.39172 
L 190.405054 76.39172 
L 203.150321 76.39172 
L 215.895588 76.39172 
L 228.640856 76.39172 
L 241.386123 76.39172 
L 254.131391 76.39172 
L 266.876658 76.39172 
L 279.621926 76.39172 
L 292.367193 76.39172 
L 305.112461 76.39172 
" clip-path="url(#p62815bfe21)" style="fill: none"/>
   </g>
   <g id="line2d_42">
    <path d="M 62.952379 76.39172 
L 75.697647 76.39172 
L 88.442914 76.39172 
L 101.188181 76.39172 
L 113.933449 76.39172 
L 126.678716 76.39172 
L 139.423984 76.39172 
L 152.169251 76.39172 
L 164.914519 76.39172 
L 177.659786 76.39172 
L 190.405054 76.39172 
L 203.150321 76.39172 
L 215.895588 76.39172 
L 228.640856 76.39172 
L 241.386123 76.39172 
L 254.131391 76.39172 
L 266.876658 76.39172 
L 279.621926 76.39172 
L 292.367193 76.39172 
L 305.112461 76.39172 
" clip-path="url(#p62815bfe21)" style="fill: none"/>
   </g>
   <g id="line2d_43">
    <path d="M 62.952379 76.39172 
L 75.697647 76.39172 
L 88.442914 76.39172 
L 101.188181 76.39172 
L 113.933449 76.39172 
L 126.678716 76.39172 
L 139.423984 76.39172 
L 152.169251 76.39172 
L 164.914519 76.39172 
L 177.659786 76.39172 
L 190.405054 76.39172 
L 203.150321 76.39172 
L 215.895588 76.39172 
L 228.640856 76.39172 
L 241.386123 76.39172 
L 254.131391 76.39172 
L 266.876658 76.39172 
L 279.621926 76.39172 
L 292.367193 76.39172 
L 305.112461 76.39172 
" clip-path="url(#p62815bfe21)" style="fill: none"/>
   </g>
   <g id="line2d_44">
    <path d="M 62.952379 76.39172 
L 75.697647 76.39172 
L 88.442914 76.39172 
L 101.188181 76.39172 
L 113.933449 76.39172 
L 126.678716 76.39172 
L 139.423984 76.39172 
L 152.169251 76.39172 
L 164.914519 76.39172 
L 177.659786 76.39172 
L 190.405054 76.39172 
L 203.150321 76.39172 
L 215.895588 76.39172 
L 228.640856 76.39172 
L 241.386123 76.39172 
L 254.131391 76.39172 
L 266.876658 76.39172 
L 279.621926 76.39172 
L 292.367193 76.39172 
L 305.112461 76.39172 
" clip-path="url(#p62815bfe21)" style="fill: none"/>
   </g>
   <g id="line2d_45">
    <path d="M 62.952379 76.39172 
L 75.697647 76.39172 
L 88.442914 76.39172 
L 101.188181 76.39172 
L 113.933449 76.39172 
L 126.678716 76.39172 
L 139.423984 76.39172 
L 152.169251 76.39172 
L 164.914519 76.39172 
L 177.659786 76.39172 
L 190.405054 76.39172 
L 203.150321 76.39172 
L 215.895588 76.39172 
L 228.640856 76.39172 
L 241.386123 76.39172 
L 254.131391 76.39172 
L 266.876658 76.39172 
L 279.621926 76.39172 
L 292.367193 76.39172 
L 305.112461 76.39172 
" clip-path="url(#p62815bfe21)" style="fill: none; stroke: #2c728e; stroke-width: 1.5; stroke-linecap: round"/>
   </g>
   <g id="line2d_46">
    <path d="M 62.952379 76.39172 
L 75.697647 76.39172 
L 88.442914 76.39172 
L 101.188181 76.39172 
L 113.933449 76.39172 
L 126.678716 76.39172 
L 139.423984 76.39172 
L 152.169251 76.39172 
L 164.914519 76.39172 
L 177.659786 76.39172 
L 190.405054 76.39172 
L 203.150321 76.39172 
L 215.895588 76.39172 
L 228.640856 76.39172 
L 241.386123 76.39172 
L 254.131391 76.39172 
L 266.876658 76.39172 
L 279.621926 76.39172 
L 292.367193 76.39172 
L 305.112461 76.39172 
" clip-path="url(#p62815bfe21)" style="fill: none"/>
   </g>
   <g id="line2d_47">
    <path d="M 62.952379 76.39172 
L 75.697647 76.39172 
L 88.442914 76.39172 
L 101.188181 76.39172 
L 113.933449 76.39172 
L 126.678716 76.39172 
L 139.423984 76.39172 
L 152.169251 76.39172 
L 164.914519 76.39172 
L 177.659786 76.39172 
L 190.405054 76.39172 
L 203.150321 76.39172 
L 215.895588 76.39172 
L 228.640856 76.39172 
L 241.386123 76.39172 
L 254.131391 76.39172 
L 266.876658 76.39172 
L 279.621926 76.39172 
L 292.367193 76.39172 
L 305.112461 76.39172 
" clip-path="url(#p62815bfe21)" style="fill: none"/>
   </g>
   <g id="line2d_48">
    <path d="M 62.952379 76.39172 
L 75.697647 76.39172 
L 88.442914 76.39172 
L 101.188181 76.39172 
L 113.933449 76.39172 
L 126.678716 76.39172 
L 139.423984 76.39172 
L 152.169251 76.39172 
L 164.914519 76.39172 
L 177.659786 76.39172 
L 190.405054 76.39172 
L 203.150321 76.39172 
L 215.895588 76.39172 
L 228.640856 76.39172 
L 241.386123 76.39172 
L 254.131391 76.39172 
L 266.876658 76.39172 
L 279.621926 76.39172 
L 292.367193 76.39172 
L 305.112461 76.39172 
" clip-path="url(#p62815bfe21)" style="fill: none"/>
   </g>
   <g id="line2d_49">
    <path d="M 62.952379 76.39172 
L 75.697647 76.39172 
L 88.442914 76.39172 
L 101.188181 76.39172 
L 113.933449 76.39172 
L 126.678716 76.39172 
L 139.423984 76.39172 
L 152.169251 76.39172 
L 164.914519 76.39172 
L 177.659786 76.39172 
L 190.405054 76.39172 
L 203.150321 76.39172 
L 215.895588 76.39172 
L 228.640856 76.39172 
L 241.386123 76.39172 
L 254.131391 76.39172 
L 266.876658 76.39172 
L 279.621926 76.39172 
L 292.367193 76.39172 
L 305.112461 76.39172 
" clip-path="url(#p62815bfe21)" style="fill: none"/>
   </g>
   <g id="line2d_50">
    <path d="M 62.952379 76.39172 
L 75.697647 76.39172 
L 88.442914 76.39172 
L 101.188181 76.39172 
L 113.933449 76.39172 
L 126.678716 76.39172 
L 139.423984 76.39172 
L 152.169251 76.39172 
L 164.914519 76.39172 
L 177.659786 76.39172 
L 190.405054 76.39172 
L 203.150321 76.39172 
L 215.895588 76.39172 
L 228.640856 76.39172 
L 241.386123 76.39172 
L 254.131391 76.39172 
L 266.876658 76.39172 
L 279.621926 76.39172 
L 292.367193 76.39172 
L 305.112461 76.39172 
" clip-path="url(#p62815bfe21)" style="fill: none"/>
   </g>
   <g id="line2d_51">
    <path d="M 62.952379 76.39172 
L 75.697647 76.39172 
L 88.442914 76.39172 
L 101.188181 76.39172 
L 113.933449 76.39172 
L 126.678716 76.39172 
L 139.423984 76.39172 
L 152.169251 76.39172 
L 164.914519 76.39172 
L 177.659786 76.39172 
L 190.405054 76.39172 
L 203.150321 76.39172 
L 215.895588 76.39172 
L 228.640856 76.39172 
L 241.386123 76.39172 
L 254.131391 76.39172 
L 266.876658 76.39172 
L 279.621926 76.39172 
L 292.367193 76.39172 
L 305.112461 76.39172 
" clip-path="url(#p62815bfe21)" style="fill: none"/>
   </g>
   <g id="line2d_52">
    <path d="M 62.952379 76.39172 
L 75.697647 76.39172 
L 88.442914 76.39172 
L 101.188181 76.39172 
L 113.933449 76.39172 
L 126.678716 76.39172 
L 139.423984 76.39172 
L 152.169251 76.39172 
L 164.914519 76.39172 
L 177.659786 76.39172 
L 190.405054 76.39172 
L 203.150321 76.39172 
L 215.895588 76.39172 
L 228.640856 76.39172 
L 241.386123 76.39172 
L 254.131391 76.39172 
L 266.876658 76.39172 
L 279.621926 76.39172 
L 292.367193 76.39172 
L 305.112461 76.39172 
" clip-path="url(#p62815bfe21)" style="fill: none"/>
   </g>
   <g id="line2d_53">
    <path d="M 62.952379 76.39172 
L 75.697647 76.39172 
L 88.442914 76.39172 
L 101.188181 76.39172 
L 113.933449 76.39172 
L 126.678716 76.39172 
L 139.423984 76.39172 
L 152.169251 76.39172 
L 164.914519 76.39172 
L 177.659786 76.39172 
L 190.405054 76.39172 
L 203.150321 76.39172 
L 215.895588 76.39172 
L 228.640856 76.39172 
L 241.386123 76.39172 
L 254.131391 76.39172 
L 266.876658 76.39172 
L 279.621926 76.39172 
L 292.367193 76.39172 
L 305.112461 76.39172 
" clip-path="url(#p62815bfe21)" style="fill: none"/>
   </g>
   <g id="line2d_54">
    <path d="M 62.952379 76.39172 
L 75.697647 76.39172 
L 88.442914 76.39172 
L 101.188181 76.39172 
L 113.933449 76.39172 
L 126.678716 76.39172 
L 139.423984 76.39172 
L 152.169251 76.39172 
L 164.914519 76.39172 
L 177.659786 76.39172 
L 190.405054 76.39172 
L 203.150321 76.39172 
L 215.895588 76.39172 
L 228.640856 76.39172 
L 241.386123 76.39172 
L 254.131391 76.39172 
L 266.876658 76.39172 
L 279.621926 76.39172 
L 292.367193 76.39172 
L 305.112461 76.39172 
" clip-path="url(#p62815bfe21)" style="fill: none; stroke: #21918c; stroke-width: 1.5; stroke-linecap: round"/>
   </g>
   <g id="line2d_55">
    <path d="M 62.952379 77.452239 
L 75.697647 75.129999 
L 88.442914 77.984411 
L 101.188181 76.359018 
L 113.933449 76.472594 
L 126.678716 76.447984 
L 139.423984 75.64638 
L 152.169251 84.016611 
L 164.914519 86.634536 
L 177.659786 84.365433 
L 190.405054 90.896155 
L 203.150321 91.040358 
L 215.895588 92.12811 
L 228.640856 94.413771 
L 241.386123 93.376507 
L 254.131391 93.255372 
L 266.876658 89.575722 
L 279.621926 90.408041 
L 292.367193 89.517657 
L 305.112461 90.514145 
" clip-path="url(#p62815bfe21)" style="fill: none"/>
   </g>
   <g id="line2d_56">
    <path d="M 62.952379 80.785988 
L 75.697647 79.742939 
L 88.442914 81.795622 
L 101.188181 80.529616 
L 113.933449 82.579366 
L 126.678716 82.250483 
L 139.423984 83.563516 
L 152.169251 85.308773 
L 164.914519 90.404268 
L 177.659786 92.037288 
L 190.405054 90.270737 
L 203.150321 91.74537 
L 215.895588 91.337375 
L 228.640856 90.307723 
L 241.386123 90.698104 
L 254.131391 90.592258 
L 266.876658 91.900378 
L 279.621926 90.055515 
L 292.367193 90.76515 
L 305.112461 87.101231 
" clip-path="url(#p62815bfe21)" style="fill: none"/>
   </g>
   <g id="line2d_57">
    <path d="M 62.952379 66.115383 
L 75.697647 81.730884 
L 88.442914 82.275187 
L 101.188181 86.426927 
L 113.933449 89.358128 
L 126.678716 90.387596 
L 139.423984 92.214904 
L 152.169251 91.626728 
L 164.914519 95.278859 
L 177.659786 96.802802 
L 190.405054 94.309419 
L 203.150321 93.862147 
L 215.895588 90.955402 
L 228.640856 88.573781 
L 241.386123 90.984977 
L 254.131391 93.595889 
L 266.876658 88.367102 
L 279.621926 91.888977 
L 292.367193 88.525137 
L 305.112461 88.248659 
" clip-path="url(#p62815bfe21)" style="fill: none"/>
   </g>
   <g id="line2d_58">
    <path d="M 62.952379 74.779287 
L 75.697647 79.511337 
L 88.442914 82.704706 
L 101.188181 81.723368 
L 113.933449 82.479309 
L 126.678716 81.375404 
L 139.423984 81.262929 
L 152.169251 77.292501 
L 164.914519 76.376487 
L 177.659786 77.07091 
L 190.405054 78.993451 
L 203.150321 80.051399 
L 215.895588 83.78958 
L 228.640856 86.566335 
L 241.386123 86.55721 
L 254.131391 84.322601 
L 266.876658 81.867972 
L 279.621926 88.286522 
L 292.367193 84.214044 
L 305.112461 86.723352 
" clip-path="url(#p62815bfe21)" style="fill: none"/>
   </g>
   <g id="line2d_59">
    <path d="M 62.952379 77.23651 
L 75.697647 80.988452 
L 88.442914 77.896127 
L 101.188181 78.75263 
L 113.933449 76.736644 
L 126.678716 79.613738 
L 139.423984 85.02628 
L 152.169251 85.708181 
L 164.914519 83.036367 
L 177.659786 84.891064 
L 190.405054 88.689208 
L 203.150321 86.018252 
L 215.895588 87.298584 
L 228.640856 88.699751 
L 241.386123 90.012482 
L 254.131391 91.300087 
L 266.876658 88.492264 
L 279.621926 88.650636 
L 292.367193 89.025383 
L 305.112461 90.276066 
" clip-path="url(#p62815bfe21)" style="fill: none"/>
   </g>
   <g id="line2d_60">
    <path d="M 62.952379 74.298679 
L 75.697647 78.880707 
L 88.442914 80.700389 
L 101.188181 81.940503 
L 113.933449 83.507041 
L 126.678716 82.174877 
L 139.423984 86.135404 
L 152.169251 82.690152 
L 164.914519 84.278712 
L 177.659786 89.239021 
L 190.405054 96.575212 
L 203.150321 100.390373 
L 215.895588 103.728714 
L 228.640856 101.322124 
L 241.386123 102.790997 
L 254.131391 104.422303 
L 266.876658 100.67673 
L 279.621926 96.904047 
L 292.367193 98.224217 
L 305.112461 94.25889 
" clip-path="url(#p62815bfe21)" style="fill: none"/>
   </g>
   <g id="line2d_61">
    <path d="M 62.952379 74.522251 
L 75.697647 73.117367 
L 88.442914 73.962562 
L 101.188181 69.903966 
L 113.933449 71.686287 
L 126.678716 67.78429 
L 139.423984 73.392434 
L 152.169251 79.750441 
L 164.914519 83.067754 
L 177.659786 86.377125 
L 190.405054 84.454775 
L 203.150321 92.416923 
L 215.895588 94.056077 
L 228.640856 93.405148 
L 241.386123 92.627188 
L 254.131391 92.022047 
L 266.876658 95.87701 
L 279.621926 91.288761 
L 292.367193 89.417825 
L 305.112461 91.418119 
" clip-path="url(#p62815bfe21)" style="fill: none"/>
   </g>
   <g id="line2d_62">
    <path d="M 62.952379 78.177652 
L 75.697647 82.514443 
L 88.442914 80.940978 
L 101.188181 84.229146 
L 113.933449 83.777381 
L 126.678716 88.316918 
L 139.423984 84.812973 
L 152.169251 85.327737 
L 164.914519 84.95707 
L 177.659786 88.744777 
L 190.405054 93.076539 
L 203.150321 95.072125 
L 215.895588 96.054583 
L 228.640856 94.493852 
L 241.386123 94.364018 
L 254.131391 95.446471 
L 266.876658 97.17331 
L 279.621926 94.308221 
L 292.367193 92.135474 
L 305.112461 88.326598 
" clip-path="url(#p62815bfe21)" style="fill: none"/>
   </g>
   <g id="line2d_63">
    <path d="M 62.952379 75.420998 
L 75.697647 78.952016 
L 88.442914 79.782498 
L 101.188181 79.983147 
L 113.933449 80.824594 
L 126.678716 81.043911 
L 139.423984 82.756852 
L 152.169251 83.96514 
L 164.914519 85.504257 
L 177.659786 87.441053 
L 190.405054 89.658187 
L 203.150321 91.324618 
L 215.895588 92.418553 
L 228.640856 92.222811 
L 241.386123 92.676436 
L 254.131391 93.119629 
L 266.876658 91.741311 
L 279.621926 91.47384 
L 292.367193 90.228111 
L 305.112461 89.608382 
" clip-path="url(#p62815bfe21)" style="fill: none; stroke: #28ae80; stroke-width: 1.5; stroke-linecap: round"/>
   </g>
   <g id="line2d_64">
    <path d="M 62.952379 78.150679 
L 75.697647 73.561217 
L 88.442914 79.342461 
L 101.188181 76.594036 
L 113.933449 76.782682 
L 126.678716 76.692174 
L 139.423984 75.11749 
L 152.169251 91.907302 
L 164.914519 97.20499 
L 177.659786 92.50025 
L 190.405054 105.266031 
L 203.150321 105.545605 
L 215.895588 107.858725 
L 228.640856 112.38096 
L 241.386123 110.054352 
L 254.131391 110.018072 
L 266.876658 102.682608 
L 279.621926 104.036664 
L 292.367193 102.605668 
L 305.112461 104.99961 
" clip-path="url(#p62815bfe21)" style="fill: none"/>
   </g>
   <g id="line2d_65">
    <path d="M 62.952379 85.182882 
L 75.697647 82.892882 
L 88.442914 87.339364 
L 101.188181 85.155428 
L 113.933449 88.33501 
L 126.678716 88.317907 
L 139.423984 90.744347 
L 152.169251 93.862345 
L 164.914519 104.329098 
L 177.659786 107.182692 
L 190.405054 104.128507 
L 203.150321 106.782669 
L 215.895588 105.711736 
L 228.640856 103.959194 
L 241.386123 104.368345 
L 254.131391 104.401996 
L 266.876658 107.875914 
L 279.621926 102.894873 
L 292.367193 104.8691 
L 305.112461 97.645279 
" clip-path="url(#p62815bfe21)" style="fill: none"/>
   </g>
   <g id="line2d_66">
    <path d="M 62.952379 55.850961 
L 75.697647 87.175542 
L 88.442914 88.435267 
L 101.188181 96.064211 
L 113.933449 102.441365 
L 126.678716 104.244072 
L 139.423984 108.002062 
L 152.169251 106.865591 
L 164.914519 114.171763 
L 177.659786 117.096331 
L 190.405054 112.010011 
L 203.150321 111.190846 
L 215.895588 105.359023 
L 228.640856 100.578428 
L 241.386123 105.420204 
L 254.131391 110.735785 
L 266.876658 100.341172 
L 279.621926 107.39286 
L 292.367193 100.717479 
L 305.112461 100.199854 
" clip-path="url(#p62815bfe21)" style="fill: none"/>
   </g>
   <g id="line2d_67">
    <path d="M 62.952379 73.220585 
L 75.697647 83.203134 
L 88.442914 88.852981 
L 101.188181 86.941384 
L 113.933449 88.265453 
L 126.678716 86.421847 
L 139.423984 86.242729 
L 152.169251 78.503608 
L 164.914519 76.475679 
L 177.659786 77.889903 
L 190.405054 81.597825 
L 203.150321 83.994336 
L 215.895588 91.499287 
L 228.640856 96.012274 
L 241.386123 96.690553 
L 254.131391 91.927276 
L 266.876658 87.433566 
L 279.621926 99.717016 
L 292.367193 90.947643 
L 305.112461 96.653105 
" clip-path="url(#p62815bfe21)" style="fill: none"/>
   </g>
   <g id="line2d_68">
    <path d="M 62.952379 78.076011 
L 75.697647 86.007237 
L 88.442914 79.141523 
L 101.188181 80.973894 
L 113.933449 77.163883 
L 126.678716 82.670537 
L 139.423984 93.909175 
L 152.169251 94.551264 
L 164.914519 90.110456 
L 177.659786 93.491006 
L 190.405054 100.592481 
L 203.150321 95.604227 
L 215.895588 97.983361 
L 228.640856 100.943653 
L 241.386123 103.124972 
L 254.131391 105.033561 
L 266.876658 99.850242 
L 279.621926 100.694161 
L 292.367193 101.687673 
L 305.112461 103.663993 
" clip-path="url(#p62815bfe21)" style="fill: none"/>
   </g>
   <g id="line2d_69">
    <path d="M 62.952379 71.953149 
L 75.697647 81.432215 
L 88.442914 85.318848 
L 101.188181 87.432795 
L 113.933449 90.806471 
L 126.678716 87.637626 
L 139.423984 95.994128 
L 152.169251 89.059884 
L 164.914519 92.659524 
L 177.659786 102.241143 
L 190.405054 116.617352 
L 203.150321 124.593057 
L 215.895588 130.356783 
L 228.640856 125.881561 
L 241.386123 128.637253 
L 254.131391 131.925179 
L 266.876658 125.058861 
L 279.621926 116.809818 
L 292.367193 120.460363 
L 305.112461 112.657087 
" clip-path="url(#p62815bfe21)" style="fill: none"/>
   </g>
   <g id="line2d_70">
    <path d="M 62.952379 72.411833 
L 75.697647 69.597595 
L 88.442914 71.330216 
L 101.188181 63.571622 
L 113.933449 66.681597 
L 126.678716 59.337163 
L 139.423984 70.177473 
L 152.169251 83.089729 
L 164.914519 89.730037 
L 177.659786 96.150215 
L 190.405054 92.631979 
L 203.150321 108.186045 
L 215.895588 111.403965 
L 228.640856 110.445695 
L 241.386123 108.704304 
L 254.131391 107.770241 
L 266.876658 114.723188 
L 279.621926 106.186579 
L 292.367193 102.678942 
L 305.112461 106.281974 
" clip-path="url(#p62815bfe21)" style="fill: none"/>
   </g>
   <g id="line2d_71">
    <path d="M 62.952379 80.328964 
L 75.697647 88.855941 
L 88.442914 85.25533 
L 101.188181 92.235021 
L 113.933449 91.230163 
L 126.678716 100.16448 
L 139.423984 93.190311 
L 152.169251 94.305429 
L 164.914519 93.3596 
L 177.659786 100.863064 
L 190.405054 109.441964 
L 203.150321 113.452662 
L 215.895588 115.462265 
L 228.640856 112.283434 
L 241.386123 112.284074 
L 254.131391 113.9072 
L 266.876658 117.861679 
L 279.621926 111.418783 
L 292.367193 108.028775 
L 305.112461 100.736784 
" clip-path="url(#p62815bfe21)" style="fill: none"/>
   </g>
   <g id="line2d_72">
    <path d="M 62.952379 74.396883 
L 75.697647 81.59072 
L 88.442914 83.126999 
L 101.188181 83.621049 
L 113.933449 85.213328 
L 126.678716 85.685726 
L 139.423984 89.172214 
L 152.169251 91.518144 
L 164.914519 94.755143 
L 177.659786 98.426826 
L 190.405054 102.785769 
L 203.150321 106.168681 
L 215.895588 108.204393 
L 228.640856 107.81065 
L 241.386123 108.660507 
L 254.131391 109.464914 
L 266.876658 106.978404 
L 279.621926 106.143844 
L 292.367193 103.999455 
L 305.112461 102.854711 
" clip-path="url(#p62815bfe21)" style="fill: none; stroke: #5ec962; stroke-width: 1.5; stroke-linecap: round"/>
   </g>
   <g id="line2d_73">
    <path d="M 62.952379 78.51455 
L 75.697647 71.856669 
L 88.442914 80.303499 
L 101.188181 76.749919 
L 113.933449 77.202666 
L 126.678716 76.446047 
L 139.423984 74.847733 
L 152.169251 99.940549 
L 164.914519 107.899072 
L 177.659786 100.723295 
L 190.405054 119.51888 
L 203.150321 119.943562 
L 215.895588 123.39295 
L 228.640856 129.456845 
L 241.386123 126.697796 
L 254.131391 126.626213 
L 266.876658 115.786444 
L 279.621926 117.121298 
L 292.367193 115.409216 
L 305.112461 119.618476 
" clip-path="url(#p62815bfe21)" style="fill: none"/>
   </g>
   <g id="line2d_74">
    <path d="M 62.952379 88.981786 
L 75.697647 85.816288 
L 88.442914 92.794442 
L 101.188181 89.888346 
L 113.933449 93.82678 
L 126.678716 94.366262 
L 139.423984 98.217615 
L 152.169251 102.414541 
L 164.914519 117.960694 
L 177.659786 121.493259 
L 190.405054 117.922049 
L 203.150321 120.904785 
L 215.895588 119.552323 
L 228.640856 117.069936 
L 241.386123 117.313687 
L 254.131391 117.864058 
L 266.876658 124.20544 
L 279.621926 115.606164 
L 292.367193 118.616459 
L 305.112461 108.414906 
" clip-path="url(#p62815bfe21)" style="fill: none"/>
   </g>
   <g id="line2d_75">
    <path d="M 62.952379 45.669542 
L 75.697647 92.68303 
L 88.442914 94.599184 
L 101.188181 105.48332 
L 113.933449 115.343814 
L 126.678716 118.278444 
L 139.423984 123.700571 
L 152.169251 122.034982 
L 164.914519 132.636963 
L 177.659786 136.955495 
L 190.405054 129.719549 
L 203.150321 128.241211 
L 215.895588 119.629153 
L 228.640856 112.688008 
L 241.386123 119.439164 
L 254.131391 128.450325 
L 266.876658 112.157493 
L 279.621926 122.674126 
L 292.367193 113.083431 
L 305.112461 112.57068 
" clip-path="url(#p62815bfe21)" style="fill: none"/>
   </g>
   <g id="line2d_76">
    <path d="M 62.952379 71.783725 
L 75.697647 87.062256 
L 88.442914 94.991124 
L 101.188181 92.225459 
L 113.933449 93.870851 
L 126.678716 91.353621 
L 139.423984 91.36016 
L 152.169251 79.896729 
L 164.914519 76.815551 
L 177.659786 79.14746 
L 190.405054 84.066699 
L 203.150321 87.896016 
L 215.895588 99.037067 
L 228.640856 105.104154 
L 241.386123 106.638434 
L 254.131391 99.410889 
L 266.876658 93.01763 
L 279.621926 110.717472 
L 292.367193 96.766688 
L 305.112461 106.169194 
" clip-path="url(#p62815bfe21)" style="fill: none"/>
   </g>
   <g id="line2d_77">
    <path d="M 62.952379 78.761984 
L 75.697647 91.046169 
L 88.442914 80.264052 
L 101.188181 83.011952 
L 113.933449 77.713022 
L 126.678716 85.634735 
L 139.423984 103.039252 
L 152.169251 103.467802 
L 164.914519 97.339317 
L 177.659786 102.520506 
L 190.405054 112.591935 
L 203.150321 105.09396 
L 215.895588 108.201362 
L 228.640856 112.944742 
L 241.386123 115.994171 
L 254.131391 117.303867 
L 266.876658 110.937558 
L 279.621926 112.942422 
L 292.367193 113.325057 
L 305.112461 117.072756 
" clip-path="url(#p62815bfe21)" style="fill: none"/>
   </g>
   <g id="line2d_78">
    <path d="M 62.952379 69.469453 
L 75.697647 84.145016 
L 88.442914 90.320455 
L 101.188181 93.078502 
L 113.933449 98.219741 
L 126.678716 92.946153 
L 139.423984 105.770203 
L 152.169251 95.611192 
L 164.914519 100.99646 
L 177.659786 115.295506 
L 190.405054 136.282712 
L 203.150321 148.735391 
L 215.895588 155.943908 
L 228.640856 150.018894 
L 241.386123 154.18526 
L 254.131391 158.760153 
L 266.876658 149.010836 
L 279.621926 136.362466 
L 292.367193 143.0521 
L 305.112461 130.834232 
" clip-path="url(#p62815bfe21)" style="fill: none"/>
   </g>
   <g id="line2d_79">
    <path d="M 62.952379 69.946144 
L 75.697647 66.179372 
L 88.442914 68.482905 
L 101.188181 57.445159 
L 113.933449 61.505258 
L 126.678716 51.391728 
L 139.423984 67.007154 
L 152.169251 86.261856 
L 164.914519 96.24664 
L 177.659786 105.739997 
L 190.405054 100.67178 
L 203.150321 123.525813 
L 215.895588 128.249054 
L 228.640856 127.223305 
L 241.386123 124.608174 
L 254.131391 123.480996 
L 266.876658 132.853475 
L 279.621926 120.821527 
L 292.367193 115.856613 
L 305.112461 120.864263 
" clip-path="url(#p62815bfe21)" style="fill: none"/>
   </g>
   <g id="line2d_80">
    <path d="M 62.952379 82.844754 
L 75.697647 95.25618 
L 88.442914 89.4131 
L 101.188181 100.242796 
L 113.933449 98.935316 
L 126.678716 111.935281 
L 139.423984 101.413122 
L 152.169251 103.108631 
L 164.914519 101.382597 
L 177.659786 112.758451 
L 190.405054 125.56129 
L 203.150321 131.16777 
L 215.895588 134.481787 
L 228.640856 129.494996 
L 241.386123 130.11629 
L 254.131391 131.68347 
L 266.876658 137.818121 
L 279.621926 128.041519 
L 292.367193 123.458285 
L 305.112461 113.278392 
" clip-path="url(#p62815bfe21)" style="fill: none"/>
   </g>
   <g id="line2d_81">
    <path d="M 62.952379 73.246492 
L 75.697647 84.255623 
L 88.442914 86.396095 
L 101.188181 87.265682 
L 113.933449 89.577181 
L 126.678716 90.294034 
L 139.423984 95.669476 
L 152.169251 99.092035 
L 164.914519 103.909662 
L 177.659786 109.329246 
L 190.405054 115.791862 
L 203.150321 120.688563 
L 215.895588 123.56095 
L 228.640856 123.00011 
L 241.386123 124.374122 
L 254.131391 125.447497 
L 266.876658 121.973375 
L 279.621926 120.535874 
L 292.367193 117.445981 
L 305.112461 116.102862 
" clip-path="url(#p62815bfe21)" style="fill: none; stroke: #addc30; stroke-width: 1.5; stroke-linecap: round"/>
   </g>
   <g id="line2d_82">
    <path d="M 62.952379 79.069533 
L 75.697647 69.846275 
L 88.442914 81.104804 
L 101.188181 76.778625 
L 113.933449 77.271391 
L 126.678716 75.805023 
L 139.423984 74.667607 
L 152.169251 107.687923 
L 164.914519 118.712066 
L 177.659786 109.041241 
L 190.405054 133.656511 
L 203.150321 133.837497 
L 215.895588 138.328805 
L 228.640856 145.446526 
L 241.386123 142.927227 
L 254.131391 142.729362 
L 266.876658 128.653713 
L 279.621926 129.462255 
L 292.367193 127.988859 
L 305.112461 133.916523 
" clip-path="url(#p62815bfe21)" style="fill: none"/>
   </g>
   <g id="line2d_83">
    <path d="M 62.952379 92.034088 
L 75.697647 88.690182 
L 88.442914 98.261497 
L 101.188181 94.268764 
L 113.933449 99.620773 
L 126.678716 100.122844 
L 139.423984 105.909896 
L 152.169251 111.309887 
L 164.914519 131.049771 
L 177.659786 135.510733 
L 190.405054 131.482961 
L 203.150321 133.69772 
L 215.895588 132.7587 
L 228.640856 129.598644 
L 241.386123 129.399804 
L 254.131391 130.593975 
L 266.876658 139.863226 
L 279.621926 127.756058 
L 292.367193 131.486456 
L 305.112461 119.081069 
" clip-path="url(#p62815bfe21)" style="fill: none"/>
   </g>
   <g id="line2d_84">
    <path d="M 62.952379 35.877393 
L 75.697647 98.299874 
L 88.442914 100.501092 
L 101.188181 114.879856 
L 113.933449 127.979752 
L 126.678716 132.254205 
L 139.423984 139.100706 
L 152.169251 137.069043 
L 164.914519 150.329329 
L 177.659786 156.249147 
L 190.405054 147.249943 
L 203.150321 144.657555 
L 215.895588 133.551044 
L 228.640856 124.784234 
L 241.386123 132.777009 
L 254.131391 146.271166 
L 266.876658 123.349494 
L 279.621926 137.237015 
L 292.367193 124.668204 
L 305.112461 124.737412 
" clip-path="url(#p62815bfe21)" style="fill: none"/>
   </g>
   <g id="line2d_85">
    <path d="M 62.952379 70.443655 
L 75.697647 91.090691 
L 88.442914 101.175951 
L 101.188181 97.684762 
L 113.933449 99.456253 
L 126.678716 96.355977 
L 139.423984 96.602445 
L 152.169251 81.377217 
L 164.914519 77.088382 
L 177.659786 80.534771 
L 190.405054 86.600206 
L 203.150321 91.681614 
L 215.895588 106.123019 
L 228.640856 114.010583 
L 241.386123 116.235016 
L 254.131391 106.714816 
L 266.876658 98.55105 
L 279.621926 121.741236 
L 292.367193 102.951558 
L 305.112461 115.931494 
" clip-path="url(#p62815bfe21)" style="fill: none"/>
   </g>
   <g id="line2d_86">
    <path d="M 62.952379 79.034072 
L 75.697647 96.189783 
L 88.442914 81.54164 
L 101.188181 84.693825 
L 113.933449 78.361627 
L 126.678716 88.069371 
L 139.423984 111.908273 
L 152.169251 112.173564 
L 164.914519 104.460439 
L 177.659786 111.732383 
L 190.405054 124.196301 
L 203.150321 114.484485 
L 215.895588 118.043142 
L 228.640856 124.247356 
L 241.386123 128.454011 
L 254.131391 128.526071 
L 266.876658 121.436644 
L 279.621926 125.060673 
L 292.367193 123.975676 
L 305.112461 130.42954 
" clip-path="url(#p62815bfe21)" style="fill: none"/>
   </g>
   <g id="line2d_87">
    <path d="M 62.952379 66.899928 
L 75.697647 87.218147 
L 88.442914 95.483562 
L 101.188181 98.819468 
L 113.933449 105.58612 
L 126.678716 98.155325 
L 139.423984 115.464008 
L 152.169251 102.410175 
L 164.914519 109.191142 
L 177.659786 128.063052 
L 190.405054 155.266698 
L 203.150321 172.176391 
L 215.895588 180.653126 
L 228.640856 173.739958 
L 241.386123 179.202977 
L 254.131391 184.574985 
L 266.876658 171.868897 
L 279.621926 155.163165 
L 292.367193 165.203696 
L 305.112461 148.224904 
" clip-path="url(#p62815bfe21)" style="fill: none"/>
   </g>
   <g id="line2d_88">
    <path d="M 62.952379 67.298628 
L 75.697647 63.178426 
L 88.442914 65.589863 
L 101.188181 51.029378 
L 113.933449 56.437593 
L 126.678716 43.672021 
L 139.423984 64.194064 
L 152.169251 89.198256 
L 164.914519 102.36922 
L 177.659786 115.383311 
L 190.405054 108.510782 
L 203.150321 138.140528 
L 215.895588 144.272857 
L 228.640856 143.25948 
L 241.386123 139.614158 
L 254.131391 139.006187 
L 266.876658 150.045167 
L 279.621926 134.617907 
L 292.367193 128.88177 
L 305.112461 134.859423 
" clip-path="url(#p62815bfe21)" style="fill: none"/>
   </g>
   <g id="line2d_89">
    <path d="M 62.952379 85.923932 
L 75.697647 101.644366 
L 88.442914 93.38064 
L 101.188181 108.13652 
L 113.933449 106.834044 
L 126.678716 123.611284 
L 139.423984 109.826526 
L 152.169251 111.683565 
L 164.914519 108.890907 
L 177.659786 124.244447 
L 190.405054 141.298748 
L 203.150321 147.961367 
L 215.895588 152.678603 
L 228.640856 146.174776 
L 241.386123 147.428827 
L 254.131391 148.684213 
L 266.876658 157.394441 
L 279.621926 143.51099 
L 292.367193 138.351818 
L 305.112461 125.82854 
" clip-path="url(#p62815bfe21)" style="fill: none"/>
   </g>
   <g id="line2d_90">
    <path d="M 62.952379 72.072654 
L 75.697647 87.019718 
L 88.442914 89.629881 
L 101.188181 90.7864 
L 113.933449 93.943444 
L 126.678716 94.755756 
L 139.423984 102.209191 
L 152.169251 106.613704 
L 164.914519 112.761407 
L 177.659786 120.094886 
L 190.405054 128.532769 
L 203.150321 134.579645 
L 215.895588 138.301162 
L 228.640856 137.657695 
L 241.386123 139.504879 
L 254.131391 140.887597 
L 266.876658 136.395329 
L 279.621926 134.318662 
L 292.367193 130.438505 
L 305.112461 129.126113 
" clip-path="url(#p62815bfe21)" style="fill: none; stroke: #fde725; stroke-width: 1.5; stroke-linecap: round"/>
   </g>
   <g id="line2d_91">
    <path d="M 62.952379 76.39172 
L 75.697647 76.39172 
L 88.442914 76.39172 
L 101.188181 76.39172 
L 113.933449 76.39172 
L 126.678716 76.39172 
L 139.423984 76.39172 
L 152.169251 76.39172 
L 164.914519 76.39172 
L 177.659786 76.39172 
L 190.405054 76.39172 
L 203.150321 76.39172 
L 215.895588 76.39172 
L 228.640856 76.39172 
L 241.386123 76.39172 
L 254.131391 76.39172 
L 266.876658 76.39172 
L 279.621926 76.39172 
L 292.367193 76.39172 
L 305.112461 76.39172 
" clip-path="url(#p62815bfe21)" style="fill: none"/>
   </g>
   <g id="line2d_92">
    <path d="M 62.952379 76.39172 
L 75.697647 76.39172 
L 88.442914 76.39172 
L 101.188181 76.39172 
L 113.933449 76.39172 
L 126.678716 76.39172 
L 139.423984 76.39172 
L 152.169251 76.39172 
L 164.914519 76.39172 
L 177.659786 76.39172 
L 190.405054 76.39172 
L 203.150321 76.39172 
L 215.895588 76.39172 
L 228.640856 76.39172 
L 241.386123 76.39172 
L 254.131391 76.39172 
L 266.876658 76.39172 
L 279.621926 76.39172 
L 292.367193 76.39172 
L 305.112461 76.39172 
" clip-path="url(#p62815bfe21)" style="fill: none"/>
   </g>
   <g id="line2d_93">
    <path d="M 62.952379 76.39172 
L 75.697647 76.39172 
L 88.442914 76.39172 
L 101.188181 76.39172 
L 113.933449 76.39172 
L 126.678716 76.39172 
L 139.423984 76.39172 
L 152.169251 76.39172 
L 164.914519 76.39172 
L 177.659786 76.39172 
L 190.405054 76.39172 
L 203.150321 76.39172 
L 215.895588 76.39172 
L 228.640856 76.39172 
L 241.386123 76.39172 
L 254.131391 76.39172 
L 266.876658 76.39172 
L 279.621926 76.39172 
L 292.367193 76.39172 
L 305.112461 76.39172 
" clip-path="url(#p62815bfe21)" style="fill: none"/>
   </g>
   <g id="line2d_94">
    <path d="M 62.952379 76.39172 
L 75.697647 76.39172 
L 88.442914 76.39172 
L 101.188181 76.39172 
L 113.933449 76.39172 
L 126.678716 76.39172 
L 139.423984 76.39172 
L 152.169251 76.39172 
L 164.914519 76.39172 
L 177.659786 76.39172 
L 190.405054 76.39172 
L 203.150321 76.39172 
L 215.895588 76.39172 
L 228.640856 76.39172 
L 241.386123 76.39172 
L 254.131391 76.39172 
L 266.876658 76.39172 
L 279.621926 76.39172 
L 292.367193 76.39172 
L 305.112461 76.39172 
" clip-path="url(#p62815bfe21)" style="fill: none"/>
   </g>
   <g id="line2d_95">
    <path d="M 62.952379 76.39172 
L 75.697647 76.39172 
L 88.442914 76.39172 
L 101.188181 76.39172 
L 113.933449 76.39172 
L 126.678716 76.39172 
L 139.423984 76.39172 
L 152.169251 76.39172 
L 164.914519 76.39172 
L 177.659786 76.39172 
L 190.405054 76.39172 
L 203.150321 76.39172 
L 215.895588 76.39172 
L 228.640856 76.39172 
L 241.386123 76.39172 
L 254.131391 76.39172 
L 266.876658 76.39172 
L 279.621926 76.39172 
L 292.367193 76.39172 
L 305.112461 76.39172 
" clip-path="url(#p62815bfe21)" style="fill: none"/>
   </g>
   <g id="line2d_96">
    <path d="M 62.952379 76.39172 
L 75.697647 76.39172 
L 88.442914 76.39172 
L 101.188181 76.39172 
L 113.933449 76.39172 
L 126.678716 76.39172 
L 139.423984 76.39172 
L 152.169251 76.39172 
L 164.914519 76.39172 
L 177.659786 76.39172 
L 190.405054 76.39172 
L 203.150321 76.39172 
L 215.895588 76.39172 
L 228.640856 76.39172 
L 241.386123 76.39172 
L 254.131391 76.39172 
L 266.876658 76.39172 
L 279.621926 76.39172 
L 292.367193 76.39172 
L 305.112461 76.39172 
" clip-path="url(#p62815bfe21)" style="fill: none"/>
   </g>
   <g id="line2d_97">
    <path d="M 62.952379 76.39172 
L 75.697647 76.39172 
L 88.442914 76.39172 
L 101.188181 76.39172 
L 113.933449 76.39172 
L 126.678716 76.39172 
L 139.423984 76.39172 
L 152.169251 76.39172 
L 164.914519 76.39172 
L 177.659786 76.39172 
L 190.405054 76.39172 
L 203.150321 76.39172 
L 215.895588 76.39172 
L 228.640856 76.39172 
L 241.386123 76.39172 
L 254.131391 76.39172 
L 266.876658 76.39172 
L 279.621926 76.39172 
L 292.367193 76.39172 
L 305.112461 76.39172 
" clip-path="url(#p62815bfe21)" style="fill: none"/>
   </g>
   <g id="line2d_98">
    <path d="M 62.952379 76.39172 
L 75.697647 76.39172 
L 88.442914 76.39172 
L 101.188181 76.39172 
L 113.933449 76.39172 
L 126.678716 76.39172 
L 139.423984 76.39172 
L 152.169251 76.39172 
L 164.914519 76.39172 
L 177.659786 76.39172 
L 190.405054 76.39172 
L 203.150321 76.39172 
L 215.895588 76.39172 
L 228.640856 76.39172 
L 241.386123 76.39172 
L 254.131391 76.39172 
L 266.876658 76.39172 
L 279.621926 76.39172 
L 292.367193 76.39172 
L 305.112461 76.39172 
" clip-path="url(#p62815bfe21)" style="fill: none"/>
   </g>
   <g id="line2d_99">
    <path clip-path="url(#p62815bfe21)" style="fill: none"/>
   </g>
   <g id="line2d_100">
    <path d="M 62.952379 76.39172 
L 75.697647 76.39172 
L 88.442914 76.39172 
L 101.188181 76.39172 
L 113.933449 76.39172 
L 126.678716 76.39172 
L 139.423984 76.39172 
L 152.169251 76.39172 
L 164.914519 76.39172 
L 177.659786 76.39172 
L 190.405054 76.39172 
L 203.150321 76.39172 
L 215.895588 76.39172 
L 228.640856 76.39172 
L 241.386123 76.39172 
L 254.131391 76.39172 
L 266.876658 76.39172 
L 279.621926 76.39172 
L 292.367193 76.39172 
L 305.112461 76.39172 
" clip-path="url(#p62815bfe21)" style="fill: none"/>
   </g>
   <g id="line2d_101">
    <path d="M 62.952379 76.39172 
L 75.697647 76.39172 
L 88.442914 76.39172 
L 101.188181 76.39172 
L 113.933449 76.39172 
L 126.678716 76.39172 
L 139.423984 76.39172 
L 152.169251 76.39172 
L 164.914519 76.39172 
L 177.659786 76.39172 
L 190.405054 76.39172 
L 203.150321 76.39172 
L 215.895588 76.39172 
L 228.640856 76.39172 
L 241.386123 76.39172 
L 254.131391 76.39172 
L 266.876658 76.39172 
L 279.621926 76.39172 
L 292.367193 76.39172 
L 305.112461 76.39172 
" clip-path="url(#p62815bfe21)" style="fill: none"/>
   </g>
   <g id="line2d_102">
    <path d="M 62.952379 76.39172 
L 75.697647 76.39172 
L 88.442914 76.39172 
L 101.188181 76.39172 
L 113.933449 76.39172 
L 126.678716 76.39172 
L 139.423984 76.39172 
L 152.169251 76.39172 
L 164.914519 76.39172 
L 177.659786 76.39172 
L 190.405054 76.39172 
L 203.150321 76.39172 
L 215.895588 76.39172 
L 228.640856 76.39172 
L 241.386123 76.39172 
L 254.131391 76.39172 
L 266.876658 76.39172 
L 279.621926 76.39172 
L 292.367193 76.39172 
L 305.112461 76.39172 
" clip-path="url(#p62815bfe21)" style="fill: none"/>
   </g>
   <g id="line2d_103">
    <path d="M 62.952379 76.39172 
L 75.697647 76.39172 
L 88.442914 76.39172 
L 101.188181 76.39172 
L 113.933449 76.39172 
L 126.678716 76.39172 
L 139.423984 76.39172 
L 152.169251 76.39172 
L 164.914519 76.39172 
L 177.659786 76.39172 
L 190.405054 76.39172 
L 203.150321 76.39172 
L 215.895588 76.39172 
L 228.640856 76.39172 
L 241.386123 76.39172 
L 254.131391 76.39172 
L 266.876658 76.39172 
L 279.621926 76.39172 
L 292.367193 76.39172 
L 305.112461 76.39172 
" clip-path="url(#p62815bfe21)" style="fill: none"/>
   </g>
   <g id="line2d_104">
    <path d="M 62.952379 76.39172 
L 75.697647 76.39172 
L 88.442914 76.39172 
L 101.188181 76.39172 
L 113.933449 76.39172 
L 126.678716 76.39172 
L 139.423984 76.39172 
L 152.169251 76.39172 
L 164.914519 76.39172 
L 177.659786 76.39172 
L 190.405054 76.39172 
L 203.150321 76.39172 
L 215.895588 76.39172 
L 228.640856 76.39172 
L 241.386123 76.39172 
L 254.131391 76.39172 
L 266.876658 76.39172 
L 279.621926 76.39172 
L 292.367193 76.39172 
L 305.112461 76.39172 
" clip-path="url(#p62815bfe21)" style="fill: none"/>
   </g>
   <g id="line2d_105">
    <path d="M 62.952379 76.39172 
L 75.697647 76.39172 
L 88.442914 76.39172 
L 101.188181 76.39172 
L 113.933449 76.39172 
L 126.678716 76.39172 
L 139.423984 76.39172 
L 152.169251 76.39172 
L 164.914519 76.39172 
L 177.659786 76.39172 
L 190.405054 76.39172 
L 203.150321 76.39172 
L 215.895588 76.39172 
L 228.640856 76.39172 
L 241.386123 76.39172 
L 254.131391 76.39172 
L 266.876658 76.39172 
L 279.621926 76.39172 
L 292.367193 76.39172 
L 305.112461 76.39172 
" clip-path="url(#p62815bfe21)" style="fill: none"/>
   </g>
   <g id="line2d_106">
    <path d="M 62.952379 76.39172 
L 75.697647 76.39172 
L 88.442914 76.39172 
L 101.188181 76.39172 
L 113.933449 76.39172 
L 126.678716 76.39172 
L 139.423984 76.39172 
L 152.169251 76.39172 
L 164.914519 76.39172 
L 177.659786 76.39172 
L 190.405054 76.39172 
L 203.150321 76.39172 
L 215.895588 76.39172 
L 228.640856 76.39172 
L 241.386123 76.39172 
L 254.131391 76.39172 
L 266.876658 76.39172 
L 279.621926 76.39172 
L 292.367193 76.39172 
L 305.112461 76.39172 
" clip-path="url(#p62815bfe21)" style="fill: none"/>
   </g>
   <g id="line2d_107">
    <path d="M 62.952379 76.39172 
L 75.697647 76.39172 
L 88.442914 76.39172 
L 101.188181 76.39172 
L 113.933449 76.39172 
L 126.678716 76.39172 
L 139.423984 76.39172 
L 152.169251 76.39172 
L 164.914519 76.39172 
L 177.659786 76.39172 
L 190.405054 76.39172 
L 203.150321 76.39172 
L 215.895588 76.39172 
L 228.640856 76.39172 
L 241.386123 76.39172 
L 254.131391 76.39172 
L 266.876658 76.39172 
L 279.621926 76.39172 
L 292.367193 76.39172 
L 305.112461 76.39172 
" clip-path="url(#p62815bfe21)" style="fill: none"/>
   </g>
   <g id="line2d_108">
    <path clip-path="url(#p62815bfe21)" style="fill: none"/>
   </g>
   <g id="line2d_109">
    <path d="M 62.952379 76.39172 
L 75.697647 76.39172 
L 88.442914 76.39172 
L 101.188181 76.39172 
L 113.933449 76.39172 
L 126.678716 76.39172 
L 139.423984 76.39172 
L 152.169251 76.39172 
L 164.914519 76.39172 
L 177.659786 76.39172 
L 190.405054 76.39172 
L 203.150321 76.39172 
L 215.895588 76.39172 
L 228.640856 76.39172 
L 241.386123 76.39172 
L 254.131391 76.39172 
L 266.876658 76.39172 
L 279.621926 76.39172 
L 292.367193 76.39172 
L 305.112461 76.39172 
" clip-path="url(#p62815bfe21)" style="fill: none"/>
   </g>
   <g id="line2d_110">
    <path d="M 62.952379 76.39172 
L 75.697647 76.39172 
L 88.442914 76.39172 
L 101.188181 76.39172 
L 113.933449 76.39172 
L 126.678716 76.39172 
L 139.423984 76.39172 
L 152.169251 76.39172 
L 164.914519 76.39172 
L 177.659786 76.39172 
L 190.405054 76.39172 
L 203.150321 76.39172 
L 215.895588 76.39172 
L 228.640856 76.39172 
L 241.386123 76.39172 
L 254.131391 76.39172 
L 266.876658 76.39172 
L 279.621926 76.39172 
L 292.367193 76.39172 
L 305.112461 76.39172 
" clip-path="url(#p62815bfe21)" style="fill: none"/>
   </g>
   <g id="line2d_111">
    <path d="M 62.952379 76.39172 
L 75.697647 76.39172 
L 88.442914 76.39172 
L 101.188181 76.39172 
L 113.933449 76.39172 
L 126.678716 76.39172 
L 139.423984 76.39172 
L 152.169251 76.39172 
L 164.914519 76.39172 
L 177.659786 76.39172 
L 190.405054 76.39172 
L 203.150321 76.39172 
L 215.895588 76.39172 
L 228.640856 76.39172 
L 241.386123 76.39172 
L 254.131391 76.39172 
L 266.876658 76.39172 
L 279.621926 76.39172 
L 292.367193 76.39172 
L 305.112461 76.39172 
" clip-path="url(#p62815bfe21)" style="fill: none"/>
   </g>
   <g id="line2d_112">
    <path d="M 62.952379 76.39172 
L 75.697647 76.39172 
L 88.442914 76.39172 
L 101.188181 76.39172 
L 113.933449 76.39172 
L 126.678716 76.39172 
L 139.423984 76.39172 
L 152.169251 76.39172 
L 164.914519 76.39172 
L 177.659786 76.39172 
L 190.405054 76.39172 
L 203.150321 76.39172 
L 215.895588 76.39172 
L 228.640856 76.39172 
L 241.386123 76.39172 
L 254.131391 76.39172 
L 266.876658 76.39172 
L 279.621926 76.39172 
L 292.367193 76.39172 
L 305.112461 76.39172 
" clip-path="url(#p62815bfe21)" style="fill: none"/>
   </g>
   <g id="line2d_113">
    <path d="M 62.952379 76.39172 
L 75.697647 76.39172 
L 88.442914 76.39172 
L 101.188181 76.39172 
L 113.933449 76.39172 
L 126.678716 76.39172 
L 139.423984 76.39172 
L 152.169251 76.39172 
L 164.914519 76.39172 
L 177.659786 76.39172 
L 190.405054 76.39172 
L 203.150321 76.39172 
L 215.895588 76.39172 
L 228.640856 76.39172 
L 241.386123 76.39172 
L 254.131391 76.39172 
L 266.876658 76.39172 
L 279.621926 76.39172 
L 292.367193 76.39172 
L 305.112461 76.39172 
" clip-path="url(#p62815bfe21)" style="fill: none"/>
   </g>
   <g id="line2d_114">
    <path d="M 62.952379 76.39172 
L 75.697647 76.39172 
L 88.442914 76.39172 
L 101.188181 76.39172 
L 113.933449 76.39172 
L 126.678716 76.39172 
L 139.423984 76.39172 
L 152.169251 76.39172 
L 164.914519 76.39172 
L 177.659786 76.39172 
L 190.405054 76.39172 
L 203.150321 76.39172 
L 215.895588 76.39172 
L 228.640856 76.39172 
L 241.386123 76.39172 
L 254.131391 76.39172 
L 266.876658 76.39172 
L 279.621926 76.39172 
L 292.367193 76.39172 
L 305.112461 76.39172 
" clip-path="url(#p62815bfe21)" style="fill: none"/>
   </g>
   <g id="line2d_115">
    <path d="M 62.952379 76.39172 
L 75.697647 76.39172 
L 88.442914 76.39172 
L 101.188181 76.39172 
L 113.933449 76.39172 
L 126.678716 76.39172 
L 139.423984 76.39172 
L 152.169251 76.39172 
L 164.914519 76.39172 
L 177.659786 76.39172 
L 190.405054 76.39172 
L 203.150321 76.39172 
L 215.895588 76.39172 
L 228.640856 76.39172 
L 241.386123 76.39172 
L 254.131391 76.39172 
L 266.876658 76.39172 
L 279.621926 76.39172 
L 292.367193 76.39172 
L 305.112461 76.39172 
" clip-path="url(#p62815bfe21)" style="fill: none"/>
   </g>
   <g id="line2d_116">
    <path d="M 62.952379 76.39172 
L 75.697647 76.39172 
L 88.442914 76.39172 
L 101.188181 76.39172 
L 113.933449 76.39172 
L 126.678716 76.39172 
L 139.423984 76.39172 
L 152.169251 76.39172 
L 164.914519 76.39172 
L 177.659786 76.39172 
L 190.405054 76.39172 
L 203.150321 76.39172 
L 215.895588 76.39172 
L 228.640856 76.39172 
L 241.386123 76.39172 
L 254.131391 76.39172 
L 266.876658 76.39172 
L 279.621926 76.39172 
L 292.367193 76.39172 
L 305.112461 76.39172 
" clip-path="url(#p62815bfe21)" style="fill: none"/>
   </g>
   <g id="line2d_117">
    <path clip-path="url(#p62815bfe21)" style="fill: none"/>
   </g>
   <g id="line2d_118">
    <path d="M 62.952379 76.39172 
L 75.697647 76.39172 
L 88.442914 76.39172 
L 101.188181 76.39172 
L 113.933449 76.39172 
L 126.678716 76.39172 
L 139.423984 76.39172 
L 152.169251 76.39172 
L 164.914519 76.39172 
L 177.659786 76.39172 
L 190.405054 76.39172 
L 203.150321 76.39172 
L 215.895588 76.39172 
L 228.640856 76.39172 
L 241.386123 76.39172 
L 254.131391 76.39172 
L 266.876658 76.39172 
L 279.621926 76.39172 
L 292.367193 76.39172 
L 305.112461 76.39172 
" clip-path="url(#p62815bfe21)" style="fill: none"/>
   </g>
   <g id="line2d_119">
    <path d="M 62.952379 76.39172 
L 75.697647 76.39172 
L 88.442914 76.39172 
L 101.188181 76.39172 
L 113.933449 76.39172 
L 126.678716 76.39172 
L 139.423984 76.39172 
L 152.169251 76.39172 
L 164.914519 76.39172 
L 177.659786 76.39172 
L 190.405054 76.39172 
L 203.150321 76.39172 
L 215.895588 76.39172 
L 228.640856 76.39172 
L 241.386123 76.39172 
L 254.131391 76.39172 
L 266.876658 76.39172 
L 279.621926 76.39172 
L 292.367193 76.39172 
L 305.112461 76.39172 
" clip-path="url(#p62815bfe21)" style="fill: none"/>
   </g>
   <g id="line2d_120">
    <path d="M 62.952379 76.39172 
L 75.697647 76.39172 
L 88.442914 76.39172 
L 101.188181 76.39172 
L 113.933449 76.39172 
L 126.678716 76.39172 
L 139.423984 76.39172 
L 152.169251 76.39172 
L 164.914519 76.39172 
L 177.659786 76.39172 
L 190.405054 76.39172 
L 203.150321 76.39172 
L 215.895588 76.39172 
L 228.640856 76.39172 
L 241.386123 76.39172 
L 254.131391 76.39172 
L 266.876658 76.39172 
L 279.621926 76.39172 
L 292.367193 76.39172 
L 305.112461 76.39172 
" clip-path="url(#p62815bfe21)" style="fill: none"/>
   </g>
   <g id="line2d_121">
    <path d="M 62.952379 76.39172 
L 75.697647 76.39172 
L 88.442914 76.39172 
L 101.188181 76.39172 
L 113.933449 76.39172 
L 126.678716 76.39172 
L 139.423984 76.39172 
L 152.169251 76.39172 
L 164.914519 76.39172 
L 177.659786 76.39172 
L 190.405054 76.39172 
L 203.150321 76.39172 
L 215.895588 76.39172 
L 228.640856 76.39172 
L 241.386123 76.39172 
L 254.131391 76.39172 
L 266.876658 76.39172 
L 279.621926 76.39172 
L 292.367193 76.39172 
L 305.112461 76.39172 
" clip-path="url(#p62815bfe21)" style="fill: none"/>
   </g>
   <g id="line2d_122">
    <path d="M 62.952379 76.39172 
L 75.697647 76.39172 
L 88.442914 76.39172 
L 101.188181 76.39172 
L 113.933449 76.39172 
L 126.678716 76.39172 
L 139.423984 76.39172 
L 152.169251 76.39172 
L 164.914519 76.39172 
L 177.659786 76.39172 
L 190.405054 76.39172 
L 203.150321 76.39172 
L 215.895588 76.39172 
L 228.640856 76.39172 
L 241.386123 76.39172 
L 254.131391 76.39172 
L 266.876658 76.39172 
L 279.621926 76.39172 
L 292.367193 76.39172 
L 305.112461 76.39172 
" clip-path="url(#p62815bfe21)" style="fill: none"/>
   </g>
   <g id="line2d_123">
    <path d="M 62.952379 76.39172 
L 75.697647 76.39172 
L 88.442914 76.39172 
L 101.188181 76.39172 
L 113.933449 76.39172 
L 126.678716 76.39172 
L 139.423984 76.39172 
L 152.169251 76.39172 
L 164.914519 76.39172 
L 177.659786 76.39172 
L 190.405054 76.39172 
L 203.150321 76.39172 
L 215.895588 76.39172 
L 228.640856 76.39172 
L 241.386123 76.39172 
L 254.131391 76.39172 
L 266.876658 76.39172 
L 279.621926 76.39172 
L 292.367193 76.39172 
L 305.112461 76.39172 
" clip-path="url(#p62815bfe21)" style="fill: none"/>
   </g>
   <g id="line2d_124">
    <path d="M 62.952379 76.39172 
L 75.697647 76.39172 
L 88.442914 76.39172 
L 101.188181 76.39172 
L 113.933449 76.39172 
L 126.678716 76.39172 
L 139.423984 76.39172 
L 152.169251 76.39172 
L 164.914519 76.39172 
L 177.659786 76.39172 
L 190.405054 76.39172 
L 203.150321 76.39172 
L 215.895588 76.39172 
L 228.640856 76.39172 
L 241.386123 76.39172 
L 254.131391 76.39172 
L 266.876658 76.39172 
L 279.621926 76.39172 
L 292.367193 76.39172 
L 305.112461 76.39172 
" clip-path="url(#p62815bfe21)" style="fill: none"/>
   </g>
   <g id="line2d_125">
    <path d="M 62.952379 76.39172 
L 75.697647 76.39172 
L 88.442914 76.39172 
L 101.188181 76.39172 
L 113.933449 76.39172 
L 126.678716 76.39172 
L 139.423984 76.39172 
L 152.169251 76.39172 
L 164.914519 76.39172 
L 177.659786 76.39172 
L 190.405054 76.39172 
L 203.150321 76.39172 
L 215.895588 76.39172 
L 228.640856 76.39172 
L 241.386123 76.39172 
L 254.131391 76.39172 
L 266.876658 76.39172 
L 279.621926 76.39172 
L 292.367193 76.39172 
L 305.112461 76.39172 
" clip-path="url(#p62815bfe21)" style="fill: none"/>
   </g>
   <g id="line2d_126">
    <path clip-path="url(#p62815bfe21)" style="fill: none"/>
   </g>
   <g id="line2d_127">
    <path d="M 62.952379 76.39172 
L 75.697647 76.39172 
L 88.442914 76.39172 
L 101.188181 76.39172 
L 113.933449 76.39172 
L 126.678716 76.39172 
L 139.423984 76.39172 
L 152.169251 76.39172 
L 164.914519 76.39172 
L 177.659786 76.39172 
L 190.405054 76.39172 
L 203.150321 76.39172 
L 215.895588 76.39172 
L 228.640856 76.39172 
L 241.386123 76.39172 
L 254.131391 76.39172 
L 266.876658 76.39172 
L 279.621926 76.39172 
L 292.367193 76.39172 
L 305.112461 76.39172 
" clip-path="url(#p62815bfe21)" style="fill: none"/>
   </g>
   <g id="line2d_128">
    <path d="M 62.952379 76.39172 
L 75.697647 76.39172 
L 88.442914 76.39172 
L 101.188181 76.39172 
L 113.933449 76.39172 
L 126.678716 76.39172 
L 139.423984 76.39172 
L 152.169251 76.39172 
L 164.914519 76.39172 
L 177.659786 76.39172 
L 190.405054 76.39172 
L 203.150321 76.39172 
L 215.895588 76.39172 
L 228.640856 76.39172 
L 241.386123 76.39172 
L 254.131391 76.39172 
L 266.876658 76.39172 
L 279.621926 76.39172 
L 292.367193 76.39172 
L 305.112461 76.39172 
" clip-path="url(#p62815bfe21)" style="fill: none"/>
   </g>
   <g id="line2d_129">
    <path d="M 62.952379 76.39172 
L 75.697647 76.39172 
L 88.442914 76.39172 
L 101.188181 76.39172 
L 113.933449 76.39172 
L 126.678716 76.39172 
L 139.423984 76.39172 
L 152.169251 76.39172 
L 164.914519 76.39172 
L 177.659786 76.39172 
L 190.405054 76.39172 
L 203.150321 76.39172 
L 215.895588 76.39172 
L 228.640856 76.39172 
L 241.386123 76.39172 
L 254.131391 76.39172 
L 266.876658 76.39172 
L 279.621926 76.39172 
L 292.367193 76.39172 
L 305.112461 76.39172 
" clip-path="url(#p62815bfe21)" style="fill: none"/>
   </g>
   <g id="line2d_130">
    <path d="M 62.952379 76.39172 
L 75.697647 76.39172 
L 88.442914 76.39172 
L 101.188181 76.39172 
L 113.933449 76.39172 
L 126.678716 76.39172 
L 139.423984 76.39172 
L 152.169251 76.39172 
L 164.914519 76.39172 
L 177.659786 76.39172 
L 190.405054 76.39172 
L 203.150321 76.39172 
L 215.895588 76.39172 
L 228.640856 76.39172 
L 241.386123 76.39172 
L 254.131391 76.39172 
L 266.876658 76.39172 
L 279.621926 76.39172 
L 292.367193 76.39172 
L 305.112461 76.39172 
" clip-path="url(#p62815bfe21)" style="fill: none"/>
   </g>
   <g id="line2d_131">
    <path d="M 62.952379 76.39172 
L 75.697647 76.39172 
L 88.442914 76.39172 
L 101.188181 76.39172 
L 113.933449 76.39172 
L 126.678716 76.39172 
L 139.423984 76.39172 
L 152.169251 76.39172 
L 164.914519 76.39172 
L 177.659786 76.39172 
L 190.405054 76.39172 
L 203.150321 76.39172 
L 215.895588 76.39172 
L 228.640856 76.39172 
L 241.386123 76.39172 
L 254.131391 76.39172 
L 266.876658 76.39172 
L 279.621926 76.39172 
L 292.367193 76.39172 
L 305.112461 76.39172 
" clip-path="url(#p62815bfe21)" style="fill: none"/>
   </g>
   <g id="line2d_132">
    <path d="M 62.952379 76.39172 
L 75.697647 76.39172 
L 88.442914 76.39172 
L 101.188181 76.39172 
L 113.933449 76.39172 
L 126.678716 76.39172 
L 139.423984 76.39172 
L 152.169251 76.39172 
L 164.914519 76.39172 
L 177.659786 76.39172 
L 190.405054 76.39172 
L 203.150321 76.39172 
L 215.895588 76.39172 
L 228.640856 76.39172 
L 241.386123 76.39172 
L 254.131391 76.39172 
L 266.876658 76.39172 
L 279.621926 76.39172 
L 292.367193 76.39172 
L 305.112461 76.39172 
" clip-path="url(#p62815bfe21)" style="fill: none"/>
   </g>
   <g id="line2d_133">
    <path d="M 62.952379 76.39172 
L 75.697647 76.39172 
L 88.442914 76.39172 
L 101.188181 76.39172 
L 113.933449 76.39172 
L 126.678716 76.39172 
L 139.423984 76.39172 
L 152.169251 76.39172 
L 164.914519 76.39172 
L 177.659786 76.39172 
L 190.405054 76.39172 
L 203.150321 76.39172 
L 215.895588 76.39172 
L 228.640856 76.39172 
L 241.386123 76.39172 
L 254.131391 76.39172 
L 266.876658 76.39172 
L 279.621926 76.39172 
L 292.367193 76.39172 
L 305.112461 76.39172 
" clip-path="url(#p62815bfe21)" style="fill: none"/>
   </g>
   <g id="line2d_134">
    <path d="M 62.952379 76.39172 
L 75.697647 76.39172 
L 88.442914 76.39172 
L 101.188181 76.39172 
L 113.933449 76.39172 
L 126.678716 76.39172 
L 139.423984 76.39172 
L 152.169251 76.39172 
L 164.914519 76.39172 
L 177.659786 76.39172 
L 190.405054 76.39172 
L 203.150321 76.39172 
L 215.895588 76.39172 
L 228.640856 76.39172 
L 241.386123 76.39172 
L 254.131391 76.39172 
L 266.876658 76.39172 
L 279.621926 76.39172 
L 292.367193 76.39172 
L 305.112461 76.39172 
" clip-path="url(#p62815bfe21)" style="fill: none"/>
   </g>
   <g id="line2d_135">
    <path clip-path="url(#p62815bfe21)" style="fill: none"/>
   </g>
   <g id="line2d_136">
    <path d="M 62.952379 77.452239 
L 75.697647 75.129999 
L 88.442914 77.984411 
L 101.188181 76.359018 
L 113.933449 76.472594 
L 126.678716 76.447984 
L 139.423984 75.64638 
L 152.169251 84.016611 
L 164.914519 86.634536 
L 177.659786 84.365433 
L 190.405054 90.896155 
L 203.150321 91.040358 
L 215.895588 92.12811 
L 228.640856 94.413771 
L 241.386123 93.376507 
L 254.131391 93.255372 
L 266.876658 89.575722 
L 279.621926 90.408041 
L 292.367193 89.517657 
L 305.112461 90.514145 
" clip-path="url(#p62815bfe21)" style="fill: none"/>
   </g>
   <g id="line2d_137">
    <path d="M 62.952379 80.785988 
L 75.697647 79.742939 
L 88.442914 81.795622 
L 101.188181 80.529616 
L 113.933449 82.579366 
L 126.678716 82.250483 
L 139.423984 83.563516 
L 152.169251 85.308773 
L 164.914519 90.404268 
L 177.659786 92.037288 
L 190.405054 90.270737 
L 203.150321 91.74537 
L 215.895588 91.337375 
L 228.640856 90.307723 
L 241.386123 90.698104 
L 254.131391 90.592258 
L 266.876658 91.900378 
L 279.621926 90.055515 
L 292.367193 90.76515 
L 305.112461 87.101231 
" clip-path="url(#p62815bfe21)" style="fill: none"/>
   </g>
   <g id="line2d_138">
    <path d="M 62.952379 66.115383 
L 75.697647 81.730884 
L 88.442914 82.275187 
L 101.188181 86.426927 
L 113.933449 89.358128 
L 126.678716 90.387596 
L 139.423984 92.214904 
L 152.169251 91.626728 
L 164.914519 95.278859 
L 177.659786 96.802802 
L 190.405054 94.309419 
L 203.150321 93.862147 
L 215.895588 90.955402 
L 228.640856 88.573781 
L 241.386123 90.984977 
L 254.131391 93.595889 
L 266.876658 88.367102 
L 279.621926 91.888977 
L 292.367193 88.525137 
L 305.112461 88.248659 
" clip-path="url(#p62815bfe21)" style="fill: none"/>
   </g>
   <g id="line2d_139">
    <path d="M 62.952379 74.779287 
L 75.697647 79.511337 
L 88.442914 82.704706 
L 101.188181 81.723368 
L 113.933449 82.479309 
L 126.678716 81.375404 
L 139.423984 81.262929 
L 152.169251 77.292501 
L 164.914519 76.376487 
L 177.659786 77.07091 
L 190.405054 78.993451 
L 203.150321 80.051399 
L 215.895588 83.78958 
L 228.640856 86.566335 
L 241.386123 86.55721 
L 254.131391 84.322601 
L 266.876658 81.867972 
L 279.621926 88.286522 
L 292.367193 84.214044 
L 305.112461 86.723352 
" clip-path="url(#p62815bfe21)" style="fill: none"/>
   </g>
   <g id="line2d_140">
    <path d="M 62.952379 77.23651 
L 75.697647 80.988452 
L 88.442914 77.896127 
L 101.188181 78.75263 
L 113.933449 76.736644 
L 126.678716 79.613738 
L 139.423984 85.02628 
L 152.169251 85.708181 
L 164.914519 83.036367 
L 177.659786 84.891064 
L 190.405054 88.689208 
L 203.150321 86.018252 
L 215.895588 87.298584 
L 228.640856 88.699751 
L 241.386123 90.012482 
L 254.131391 91.300087 
L 266.876658 88.492264 
L 279.621926 88.650636 
L 292.367193 89.025383 
L 305.112461 90.276066 
" clip-path="url(#p62815bfe21)" style="fill: none"/>
   </g>
   <g id="line2d_141">
    <path d="M 62.952379 74.298679 
L 75.697647 78.880707 
L 88.442914 80.700389 
L 101.188181 81.940503 
L 113.933449 83.507041 
L 126.678716 82.174877 
L 139.423984 86.135404 
L 152.169251 82.690152 
L 164.914519 84.278712 
L 177.659786 89.239021 
L 190.405054 96.575212 
L 203.150321 100.390373 
L 215.895588 103.728714 
L 228.640856 101.322124 
L 241.386123 102.790997 
L 254.131391 104.422303 
L 266.876658 100.67673 
L 279.621926 96.904047 
L 292.367193 98.224217 
L 305.112461 94.25889 
" clip-path="url(#p62815bfe21)" style="fill: none"/>
   </g>
   <g id="line2d_142">
    <path d="M 62.952379 74.522251 
L 75.697647 73.117367 
L 88.442914 73.962562 
L 101.188181 69.903966 
L 113.933449 71.686287 
L 126.678716 67.78429 
L 139.423984 73.392434 
L 152.169251 79.750441 
L 164.914519 83.067754 
L 177.659786 86.377125 
L 190.405054 84.454775 
L 203.150321 92.416923 
L 215.895588 94.056077 
L 228.640856 93.405148 
L 241.386123 92.627188 
L 254.131391 92.022047 
L 266.876658 95.87701 
L 279.621926 91.288761 
L 292.367193 89.417825 
L 305.112461 91.418119 
" clip-path="url(#p62815bfe21)" style="fill: none"/>
   </g>
   <g id="line2d_143">
    <path d="M 62.952379 78.177652 
L 75.697647 82.514443 
L 88.442914 80.940978 
L 101.188181 84.229146 
L 113.933449 83.777381 
L 126.678716 88.316918 
L 139.423984 84.812973 
L 152.169251 85.327737 
L 164.914519 84.95707 
L 177.659786 88.744777 
L 190.405054 93.076539 
L 203.150321 95.072125 
L 215.895588 96.054583 
L 228.640856 94.493852 
L 241.386123 94.364018 
L 254.131391 95.446471 
L 266.876658 97.17331 
L 279.621926 94.308221 
L 292.367193 92.135474 
L 305.112461 88.326598 
" clip-path="url(#p62815bfe21)" style="fill: none"/>
   </g>
   <g id="line2d_144">
    <path clip-path="url(#p62815bfe21)" style="fill: none"/>
   </g>
   <g id="line2d_145">
    <path d="M 62.952379 78.150679 
L 75.697647 73.561217 
L 88.442914 79.342461 
L 101.188181 76.594036 
L 113.933449 76.782682 
L 126.678716 76.692174 
L 139.423984 75.11749 
L 152.169251 91.907302 
L 164.914519 97.20499 
L 177.659786 92.50025 
L 190.405054 105.266031 
L 203.150321 105.545605 
L 215.895588 107.858725 
L 228.640856 112.38096 
L 241.386123 110.054352 
L 254.131391 110.018072 
L 266.876658 102.682608 
L 279.621926 104.036664 
L 292.367193 102.605668 
L 305.112461 104.99961 
" clip-path="url(#p62815bfe21)" style="fill: none"/>
   </g>
   <g id="line2d_146">
    <path d="M 62.952379 85.182882 
L 75.697647 82.892882 
L 88.442914 87.339364 
L 101.188181 85.155428 
L 113.933449 88.33501 
L 126.678716 88.317907 
L 139.423984 90.744347 
L 152.169251 93.862345 
L 164.914519 104.329098 
L 177.659786 107.182692 
L 190.405054 104.128507 
L 203.150321 106.782669 
L 215.895588 105.711736 
L 228.640856 103.959194 
L 241.386123 104.368345 
L 254.131391 104.401996 
L 266.876658 107.875914 
L 279.621926 102.894873 
L 292.367193 104.8691 
L 305.112461 97.645279 
" clip-path="url(#p62815bfe21)" style="fill: none"/>
   </g>
   <g id="line2d_147">
    <path d="M 62.952379 55.850961 
L 75.697647 87.175542 
L 88.442914 88.435267 
L 101.188181 96.064211 
L 113.933449 102.441365 
L 126.678716 104.244072 
L 139.423984 108.002062 
L 152.169251 106.865591 
L 164.914519 114.171763 
L 177.659786 117.096331 
L 190.405054 112.010011 
L 203.150321 111.190846 
L 215.895588 105.359023 
L 228.640856 100.578428 
L 241.386123 105.420204 
L 254.131391 110.735785 
L 266.876658 100.341172 
L 279.621926 107.39286 
L 292.367193 100.717479 
L 305.112461 100.199854 
" clip-path="url(#p62815bfe21)" style="fill: none"/>
   </g>
   <g id="line2d_148">
    <path d="M 62.952379 73.220585 
L 75.697647 83.203134 
L 88.442914 88.852981 
L 101.188181 86.941384 
L 113.933449 88.265453 
L 126.678716 86.421847 
L 139.423984 86.242729 
L 152.169251 78.503608 
L 164.914519 76.475679 
L 177.659786 77.889903 
L 190.405054 81.597825 
L 203.150321 83.994336 
L 215.895588 91.499287 
L 228.640856 96.012274 
L 241.386123 96.690553 
L 254.131391 91.927276 
L 266.876658 87.433566 
L 279.621926 99.717016 
L 292.367193 90.947643 
L 305.112461 96.653105 
" clip-path="url(#p62815bfe21)" style="fill: none"/>
   </g>
   <g id="line2d_149">
    <path d="M 62.952379 78.076011 
L 75.697647 86.007237 
L 88.442914 79.141523 
L 101.188181 80.973894 
L 113.933449 77.163883 
L 126.678716 82.670537 
L 139.423984 93.909175 
L 152.169251 94.551264 
L 164.914519 90.110456 
L 177.659786 93.491006 
L 190.405054 100.592481 
L 203.150321 95.604227 
L 215.895588 97.983361 
L 228.640856 100.943653 
L 241.386123 103.124972 
L 254.131391 105.033561 
L 266.876658 99.850242 
L 279.621926 100.694161 
L 292.367193 101.687673 
L 305.112461 103.663993 
" clip-path="url(#p62815bfe21)" style="fill: none"/>
   </g>
   <g id="line2d_150">
    <path d="M 62.952379 71.953149 
L 75.697647 81.432215 
L 88.442914 85.318848 
L 101.188181 87.432795 
L 113.933449 90.806471 
L 126.678716 87.637626 
L 139.423984 95.994128 
L 152.169251 89.059884 
L 164.914519 92.659524 
L 177.659786 102.241143 
L 190.405054 116.617352 
L 203.150321 124.593057 
L 215.895588 130.356783 
L 228.640856 125.881561 
L 241.386123 128.637253 
L 254.131391 131.925179 
L 266.876658 125.058861 
L 279.621926 116.809818 
L 292.367193 120.460363 
L 305.112461 112.657087 
" clip-path="url(#p62815bfe21)" style="fill: none"/>
   </g>
   <g id="line2d_151">
    <path d="M 62.952379 72.411833 
L 75.697647 69.597595 
L 88.442914 71.330216 
L 101.188181 63.571622 
L 113.933449 66.681597 
L 126.678716 59.337163 
L 139.423984 70.177473 
L 152.169251 83.089729 
L 164.914519 89.730037 
L 177.659786 96.150215 
L 190.405054 92.631979 
L 203.150321 108.186045 
L 215.895588 111.403965 
L 228.640856 110.445695 
L 241.386123 108.704304 
L 254.131391 107.770241 
L 266.876658 114.723188 
L 279.621926 106.186579 
L 292.367193 102.678942 
L 305.112461 106.281974 
" clip-path="url(#p62815bfe21)" style="fill: none"/>
   </g>
   <g id="line2d_152">
    <path d="M 62.952379 80.328964 
L 75.697647 88.855941 
L 88.442914 85.25533 
L 101.188181 92.235021 
L 113.933449 91.230163 
L 126.678716 100.16448 
L 139.423984 93.190311 
L 152.169251 94.305429 
L 164.914519 93.3596 
L 177.659786 100.863064 
L 190.405054 109.441964 
L 203.150321 113.452662 
L 215.895588 115.462265 
L 228.640856 112.283434 
L 241.386123 112.284074 
L 254.131391 113.9072 
L 266.876658 117.861679 
L 279.621926 111.418783 
L 292.367193 108.028775 
L 305.112461 100.736784 
" clip-path="url(#p62815bfe21)" style="fill: none"/>
   </g>
   <g id="line2d_153">
    <path clip-path="url(#p62815bfe21)" style="fill: none"/>
   </g>
   <g id="line2d_154">
    <path d="M 62.952379 78.51455 
L 75.697647 71.856669 
L 88.442914 80.303499 
L 101.188181 76.749919 
L 113.933449 77.202666 
L 126.678716 76.446047 
L 139.423984 74.847733 
L 152.169251 99.940549 
L 164.914519 107.899072 
L 177.659786 100.723295 
L 190.405054 119.51888 
L 203.150321 119.943562 
L 215.895588 123.39295 
L 228.640856 129.456845 
L 241.386123 126.697796 
L 254.131391 126.626213 
L 266.876658 115.786444 
L 279.621926 117.121298 
L 292.367193 115.409216 
L 305.112461 119.618476 
" clip-path="url(#p62815bfe21)" style="fill: none"/>
   </g>
   <g id="line2d_155">
    <path d="M 62.952379 88.981786 
L 75.697647 85.816288 
L 88.442914 92.794442 
L 101.188181 89.888346 
L 113.933449 93.82678 
L 126.678716 94.366262 
L 139.423984 98.217615 
L 152.169251 102.414541 
L 164.914519 117.960694 
L 177.659786 121.493259 
L 190.405054 117.922049 
L 203.150321 120.904785 
L 215.895588 119.552323 
L 228.640856 117.069936 
L 241.386123 117.313687 
L 254.131391 117.864058 
L 266.876658 124.20544 
L 279.621926 115.606164 
L 292.367193 118.616459 
L 305.112461 108.414906 
" clip-path="url(#p62815bfe21)" style="fill: none"/>
   </g>
   <g id="line2d_156">
    <path d="M 62.952379 45.669542 
L 75.697647 92.68303 
L 88.442914 94.599184 
L 101.188181 105.48332 
L 113.933449 115.343814 
L 126.678716 118.278444 
L 139.423984 123.700571 
L 152.169251 122.034982 
L 164.914519 132.636963 
L 177.659786 136.955495 
L 190.405054 129.719549 
L 203.150321 128.241211 
L 215.895588 119.629153 
L 228.640856 112.688008 
L 241.386123 119.439164 
L 254.131391 128.450325 
L 266.876658 112.157493 
L 279.621926 122.674126 
L 292.367193 113.083431 
L 305.112461 112.57068 
" clip-path="url(#p62815bfe21)" style="fill: none"/>
   </g>
   <g id="line2d_157">
    <path d="M 62.952379 71.783725 
L 75.697647 87.062256 
L 88.442914 94.991124 
L 101.188181 92.225459 
L 113.933449 93.870851 
L 126.678716 91.353621 
L 139.423984 91.36016 
L 152.169251 79.896729 
L 164.914519 76.815551 
L 177.659786 79.14746 
L 190.405054 84.066699 
L 203.150321 87.896016 
L 215.895588 99.037067 
L 228.640856 105.104154 
L 241.386123 106.638434 
L 254.131391 99.410889 
L 266.876658 93.01763 
L 279.621926 110.717472 
L 292.367193 96.766688 
L 305.112461 106.169194 
" clip-path="url(#p62815bfe21)" style="fill: none"/>
   </g>
   <g id="line2d_158">
    <path d="M 62.952379 78.761984 
L 75.697647 91.046169 
L 88.442914 80.264052 
L 101.188181 83.011952 
L 113.933449 77.713022 
L 126.678716 85.634735 
L 139.423984 103.039252 
L 152.169251 103.467802 
L 164.914519 97.339317 
L 177.659786 102.520506 
L 190.405054 112.591935 
L 203.150321 105.09396 
L 215.895588 108.201362 
L 228.640856 112.944742 
L 241.386123 115.994171 
L 254.131391 117.303867 
L 266.876658 110.937558 
L 279.621926 112.942422 
L 292.367193 113.325057 
L 305.112461 117.072756 
" clip-path="url(#p62815bfe21)" style="fill: none"/>
   </g>
   <g id="line2d_159">
    <path d="M 62.952379 69.469453 
L 75.697647 84.145016 
L 88.442914 90.320455 
L 101.188181 93.078502 
L 113.933449 98.219741 
L 126.678716 92.946153 
L 139.423984 105.770203 
L 152.169251 95.611192 
L 164.914519 100.99646 
L 177.659786 115.295506 
L 190.405054 136.282712 
L 203.150321 148.735391 
L 215.895588 155.943908 
L 228.640856 150.018894 
L 241.386123 154.18526 
L 254.131391 158.760153 
L 266.876658 149.010836 
L 279.621926 136.362466 
L 292.367193 143.0521 
L 305.112461 130.834232 
" clip-path="url(#p62815bfe21)" style="fill: none"/>
   </g>
   <g id="line2d_160">
    <path d="M 62.952379 69.946144 
L 75.697647 66.179372 
L 88.442914 68.482905 
L 101.188181 57.445159 
L 113.933449 61.505258 
L 126.678716 51.391728 
L 139.423984 67.007154 
L 152.169251 86.261856 
L 164.914519 96.24664 
L 177.659786 105.739997 
L 190.405054 100.67178 
L 203.150321 123.525813 
L 215.895588 128.249054 
L 228.640856 127.223305 
L 241.386123 124.608174 
L 254.131391 123.480996 
L 266.876658 132.853475 
L 279.621926 120.821527 
L 292.367193 115.856613 
L 305.112461 120.864263 
" clip-path="url(#p62815bfe21)" style="fill: none"/>
   </g>
   <g id="line2d_161">
    <path d="M 62.952379 82.844754 
L 75.697647 95.25618 
L 88.442914 89.4131 
L 101.188181 100.242796 
L 113.933449 98.935316 
L 126.678716 111.935281 
L 139.423984 101.413122 
L 152.169251 103.108631 
L 164.914519 101.382597 
L 177.659786 112.758451 
L 190.405054 125.56129 
L 203.150321 131.16777 
L 215.895588 134.481787 
L 228.640856 129.494996 
L 241.386123 130.11629 
L 254.131391 131.68347 
L 266.876658 137.818121 
L 279.621926 128.041519 
L 292.367193 123.458285 
L 305.112461 113.278392 
" clip-path="url(#p62815bfe21)" style="fill: none"/>
   </g>
   <g id="line2d_162">
    <path clip-path="url(#p62815bfe21)" style="fill: none"/>
   </g>
  </g>
  <g id="text_12">
   <!-- Train -->
   <g style="fill: #838383" transform="translate(163.240156 17.856) scale(0.144 -0.144)">
    <defs>
     <path id="IBMPlexSans-Regular-54" d="M 2099 3994 
L 2099 0 
L 1562 0 
L 1562 3994 
L 141 3994 
L 141 4467 
L 3520 4467 
L 3520 3994 
L 2099 3994 
z
" transform="scale(0.015625)"/>
     <path id="IBMPlexSans-Regular-69" d="M 800 4077 
Q 634 4077 560 4157 
Q 486 4237 486 4365 
L 486 4448 
Q 486 4576 560 4656 
Q 634 4736 800 4736 
Q 966 4736 1040 4656 
Q 1114 4576 1114 4448 
L 1114 4365 
Q 1114 4237 1040 4157 
Q 966 4077 800 4077 
z
M 544 3302 
L 1056 3302 
L 1056 0 
L 544 0 
L 544 3302 
z
" transform="scale(0.015625)"/>
     <path id="IBMPlexSans-Regular-6e" d="M 544 0 
L 544 3302 
L 1056 3302 
L 1056 2765 
L 1082 2765 
Q 1203 3046 1424 3212 
Q 1645 3379 2016 3379 
Q 2528 3379 2825 3049 
Q 3123 2720 3123 2118 
L 3123 0 
L 2611 0 
L 2611 2029 
Q 2611 2918 1862 2918 
Q 1709 2918 1565 2880 
Q 1421 2842 1305 2765 
Q 1190 2688 1123 2569 
Q 1056 2451 1056 2291 
L 1056 0 
L 544 0 
z
" transform="scale(0.015625)"/>
    </defs>
    <use xlink:href="#IBMPlexSans-Regular-54"/>
    <use xlink:href="#IBMPlexSans-Regular-72" transform="translate(57.199997 0)"/>
    <use xlink:href="#IBMPlexSans-Regular-61" transform="translate(93.899994 0)"/>
    <use xlink:href="#IBMPlexSans-Regular-69" transform="translate(147.299988 0)"/>
    <use xlink:href="#IBMPlexSans-Regular-6e" transform="translate(172.299973 0)"/>
   </g>
  </g>
 </g>
 <defs>
  <clipPath id="p62815bfe21">
   <rect x="50.844375" y="28.442513" width="266.37609" height="163.567352"/>
  </clipPath>
 </defs>
</svg>
