<?xml version="1.0" encoding="utf-8" standalone="no"?>
<!DOCTYPE svg PUBLIC "-//W3C//DTD SVG 1.1//EN"
  "http://www.w3.org/Graphics/SVG/1.1/DTD/svg11.dtd">
<svg xmlns:xlink="http://www.w3.org/1999/xlink" width="223.65pt" height="174.26pt" viewBox="0 0 223.65 174.26" xmlns="http://www.w3.org/2000/svg" version="1.1">
 <metadata>
  <rdf:RDF xmlns:dc="http://purl.org/dc/elements/1.1/" xmlns:cc="http://creativecommons.org/ns#" xmlns:rdf="http://www.w3.org/1999/02/22-rdf-syntax-ns#">
   <cc:Work>
    <dc:type rdf:resource="http://purl.org/dc/dcmitype/StillImage"/>
    <dc:date>2025-04-30T16:02:27.649205</dc:date>
    <dc:format>image/svg+xml</dc:format>
    <dc:creator>
     <cc:Agent>
      <dc:title>Matplotlib v3.10.1, https://matplotlib.org/</dc:title>
     </cc:Agent>
    </dc:creator>
   </cc:Work>
  </rdf:RDF>
 </metadata>
 <defs>
  <style type="text/css">*{stroke-linejoin: round; stroke-linecap: butt}</style>
 </defs>
 <g id="figure_1">
  <g id="patch_1">
   <path d="M 0 174.26 
L 223.65 174.26 
L 223.65 0 
L 0 0 
L 0 174.26 
z
" style="fill: none"/>
  </g>
  <g id="axes_1">
   <g id="patch_2">
    <path d="M 7.2 48.78 
L 216.45 48.78 
L 216.45 7.2 
L 7.2 7.2 
L 7.2 48.78 
z
" style="fill: none"/>
   </g>
   <g id="matplotlib.axis_1">
    <g id="xtick_1"/>
    <g id="xtick_2"/>
    <g id="xtick_3"/>
    <g id="xtick_4"/>
    <g id="xtick_5"/>
   </g>
   <g id="matplotlib.axis_2"/>
   <g id="line2d_1">
    <path d="M 7.2 48.78 
L 216.45 48.78 
" style="fill: none; stroke: #414487; stroke-opacity: 0.9; stroke-linecap: round"/>
   </g>
   <g id="text_1">
    <!-- 0 -->
    <g style="fill: #414487" transform="translate(7.2 47.862) scale(0.12 -0.12)">
     <defs>
      <path id="IBMPlexSans-Bold-30" d="M 1920 -77 
Q 1043 -77 620 531 
Q 198 1139 198 2234 
Q 198 3328 620 3936 
Q 1043 4544 1920 4544 
Q 2797 4544 3219 3936 
Q 3642 3328 3642 2234 
Q 3642 1139 3219 531 
Q 2797 -77 1920 -77 
z
M 1920 736 
Q 2304 736 2451 1017 
Q 2598 1299 2598 1811 
L 2598 2656 
Q 2598 3168 2451 3449 
Q 2304 3731 1920 3731 
Q 1536 3731 1389 3449 
Q 1242 3168 1242 2656 
L 1242 1811 
Q 1242 1299 1389 1017 
Q 1536 736 1920 736 
z
" transform="scale(0.015625)"/>
     </defs>
     <use xlink:href="#IBMPlexSans-Bold-30"/>
    </g>
   </g>
  </g>
  <g id="axes_2">
   <g id="patch_3">
    <path d="M 7.2 59.175 
L 216.45 59.175 
L 216.45 17.595 
L 7.2 17.595 
L 7.2 59.175 
z
" style="fill: none"/>
   </g>
   <g id="matplotlib.axis_3">
    <g id="xtick_6"/>
    <g id="xtick_7"/>
    <g id="xtick_8"/>
    <g id="xtick_9"/>
    <g id="xtick_10"/>
   </g>
   <g id="matplotlib.axis_4"/>
   <g id="FillBetweenPolyCollection_1">
    <defs>
     <path id="mfa8ba1743e" d="M 89.67713 -119.279834 
L 89.67713 -115.085 
L 89.898079 -115.085 
L 90.119029 -115.085 
L 90.339978 -115.085 
L 90.560928 -115.085 
L 90.781878 -115.085 
L 91.002827 -115.085 
L 91.223777 -115.085 
L 91.444727 -115.085 
L 91.665676 -115.085 
L 91.886626 -115.085 
L 92.107575 -115.085 
L 92.328525 -115.085 
L 92.549475 -115.085 
L 92.770424 -115.085 
L 92.991374 -115.085 
L 93.212324 -115.085 
L 93.433273 -115.085 
L 93.654223 -115.085 
L 93.875172 -115.085 
L 94.096122 -115.085 
L 94.317072 -115.085 
L 94.538021 -115.085 
L 94.758971 -115.085 
L 94.979921 -115.085 
L 95.20087 -115.085 
L 95.42182 -115.085 
L 95.642769 -115.085 
L 95.863719 -115.085 
L 96.084669 -115.085 
L 96.305618 -115.085 
L 96.526568 -115.085 
L 96.747518 -115.085 
L 96.968467 -115.085 
L 97.189417 -115.085 
L 97.410367 -115.085 
L 97.631316 -115.085 
L 97.852266 -115.085 
L 98.073215 -115.085 
L 98.294165 -115.085 
L 98.515115 -115.085 
L 98.736064 -115.085 
L 98.957014 -115.085 
L 99.177964 -115.085 
L 99.398913 -115.085 
L 99.619863 -115.085 
L 99.840812 -115.085 
L 100.061762 -115.085 
L 100.282712 -115.085 
L 100.503661 -115.085 
L 100.724611 -115.085 
L 100.945561 -115.085 
L 101.16651 -115.085 
L 101.38746 -115.085 
L 101.608409 -115.085 
L 101.829359 -115.085 
L 102.050309 -115.085 
L 102.271258 -115.085 
L 102.492208 -115.085 
L 102.713158 -115.085 
L 102.934107 -115.085 
L 103.155057 -115.085 
L 103.376006 -115.085 
L 103.596956 -115.085 
L 103.817906 -115.085 
L 104.038855 -115.085 
L 104.259805 -115.085 
L 104.480755 -115.085 
L 104.701704 -115.085 
L 104.922654 -115.085 
L 105.143603 -115.085 
L 105.364553 -115.085 
L 105.585503 -115.085 
L 105.806452 -115.085 
L 106.027402 -115.085 
L 106.248352 -115.085 
L 106.469301 -115.085 
L 106.690251 -115.085 
L 106.9112 -115.085 
L 107.13215 -115.085 
L 107.3531 -115.085 
L 107.574049 -115.085 
L 107.794999 -115.085 
L 108.015949 -115.085 
L 108.236898 -115.085 
L 108.457848 -115.085 
L 108.678797 -115.085 
L 108.899747 -115.085 
L 109.120697 -115.085 
L 109.341646 -115.085 
L 109.562596 -115.085 
L 109.783546 -115.085 
L 110.004495 -115.085 
L 110.225445 -115.085 
L 110.446394 -115.085 
L 110.667344 -115.085 
L 110.888294 -115.085 
L 111.109243 -115.085 
L 111.330193 -115.085 
L 111.551143 -115.085 
L 111.772092 -115.085 
L 111.993042 -115.085 
L 112.213991 -115.085 
L 112.434941 -115.085 
L 112.655891 -115.085 
L 112.87684 -115.085 
L 113.09779 -115.085 
L 113.31874 -115.085 
L 113.539689 -115.085 
L 113.760639 -115.085 
L 113.981588 -115.085 
L 114.202538 -115.085 
L 114.423488 -115.085 
L 114.644437 -115.085 
L 114.865387 -115.085 
L 115.086337 -115.085 
L 115.307286 -115.085 
L 115.528236 -115.085 
L 115.749185 -115.085 
L 115.970135 -115.085 
L 116.191085 -115.085 
L 116.412034 -115.085 
L 116.632984 -115.085 
L 116.853934 -115.085 
L 117.074883 -115.085 
L 117.295833 -115.085 
L 117.516783 -115.085 
L 117.737732 -115.085 
L 117.958682 -115.085 
L 118.179631 -115.085 
L 118.400581 -115.085 
L 118.621531 -115.085 
L 118.84248 -115.085 
L 119.06343 -115.085 
L 119.28438 -115.085 
L 119.505329 -115.085 
L 119.726279 -115.085 
L 119.947228 -115.085 
L 120.168178 -115.085 
L 120.389128 -115.085 
L 120.610077 -115.085 
L 120.831027 -115.085 
L 121.051977 -115.085 
L 121.272926 -115.085 
L 121.493876 -115.085 
L 121.714825 -115.085 
L 121.935775 -115.085 
L 122.156725 -115.085 
L 122.377674 -115.085 
L 122.598624 -115.085 
L 122.819574 -115.085 
L 123.040523 -115.085 
L 123.261473 -115.085 
L 123.482422 -115.085 
L 123.703372 -115.085 
L 123.924322 -115.085 
L 124.145271 -115.085 
L 124.366221 -115.085 
L 124.587171 -115.085 
L 124.80812 -115.085 
L 125.02907 -115.085 
L 125.250019 -115.085 
L 125.470969 -115.085 
L 125.691919 -115.085 
L 125.912868 -115.085 
L 126.133818 -115.085 
L 126.354768 -115.085 
L 126.575717 -115.085 
L 126.796667 -115.085 
L 127.017616 -115.085 
L 127.238566 -115.085 
L 127.459516 -115.085 
L 127.680465 -115.085 
L 127.901415 -115.085 
L 128.122365 -115.085 
L 128.343314 -115.085 
L 128.564264 -115.085 
L 128.785213 -115.085 
L 129.006163 -115.085 
L 129.227113 -115.085 
L 129.448062 -115.085 
L 129.669012 -115.085 
L 129.889962 -115.085 
L 130.110911 -115.085 
L 130.331861 -115.085 
L 130.55281 -115.085 
L 130.77376 -115.085 
L 130.99471 -115.085 
L 131.215659 -115.085 
L 131.436609 -115.085 
L 131.657559 -115.085 
L 131.878508 -115.085 
L 132.099458 -115.085 
L 132.320407 -115.085 
L 132.541357 -115.085 
L 132.762307 -115.085 
L 132.983256 -115.085 
L 133.204206 -115.085 
L 133.425156 -115.085 
L 133.646105 -115.085 
L 133.646105 -119.637169 
L 133.646105 -119.637169 
L 133.425156 -120.065288 
L 133.204206 -120.514429 
L 132.983256 -120.983555 
L 132.762307 -121.471446 
L 132.541357 -121.97672 
L 132.320407 -122.497857 
L 132.099458 -123.033231 
L 131.878508 -123.58114 
L 131.657559 -124.139838 
L 131.436609 -124.707575 
L 131.215659 -125.282626 
L 130.99471 -125.863323 
L 130.77376 -126.44808 
L 130.55281 -127.035418 
L 130.331861 -127.62398 
L 130.110911 -128.212532 
L 129.889962 -128.799969 
L 129.669012 -129.385301 
L 129.448062 -129.967633 
L 129.227113 -130.54614 
L 129.006163 -131.120031 
L 128.785213 -131.688505 
L 128.564264 -132.250704 
L 128.343314 -132.805669 
L 128.122365 -133.352281 
L 127.901415 -133.889221 
L 127.680465 -134.414921 
L 127.459516 -134.927529 
L 127.238566 -135.424883 
L 127.017616 -135.904493 
L 126.796667 -136.363542 
L 126.575717 -136.798896 
L 126.354768 -137.207133 
L 126.133818 -137.584589 
L 125.912868 -137.927416 
L 125.691919 -138.231657 
L 125.470969 -138.493331 
L 125.250019 -138.708533 
L 125.02907 -138.873535 
L 124.80812 -138.984897 
L 124.587171 -139.039576 
L 124.366221 -139.035035 
L 124.145271 -138.969339 
L 123.924322 -138.84125 
L 123.703372 -138.6503 
L 123.482422 -138.396855 
L 123.261473 -138.082157 
L 123.040523 -137.708346 
L 122.819574 -137.278457 
L 122.598624 -136.796407 
L 122.377674 -136.266942 
L 122.156725 -135.695585 
L 121.935775 -135.088542 
L 121.714825 -134.452614 
L 121.493876 -133.795075 
L 121.272926 -133.123553 
L 121.051977 -132.445899 
L 120.831027 -131.770047 
L 120.610077 -131.10388 
L 120.389128 -130.455101 
L 120.168178 -129.831098 
L 119.947228 -129.238832 
L 119.726279 -128.684731 
L 119.505329 -128.174595 
L 119.28438 -127.713524 
L 119.06343 -127.30586 
L 118.84248 -126.955142 
L 118.621531 -126.664089 
L 118.400581 -126.434594 
L 118.179631 -126.267735 
L 117.958682 -126.163807 
L 117.737732 -126.122362 
L 117.516783 -126.142267 
L 117.295833 -126.221771 
L 117.074883 -126.358575 
L 116.853934 -126.549915 
L 116.632984 -126.792642 
L 116.412034 -127.083307 
L 116.191085 -127.418239 
L 115.970135 -127.79362 
L 115.749185 -128.20556 
L 115.528236 -128.650151 
L 115.307286 -129.123523 
L 115.086337 -129.621883 
L 114.865387 -130.141545 
L 114.644437 -130.678946 
L 114.423488 -131.230655 
L 114.202538 -131.793367 
L 113.981588 -132.36389 
L 113.760639 -132.939128 
L 113.539689 -133.516051 
L 113.31874 -134.091665 
L 113.09779 -134.662986 
L 112.87684 -135.227008 
L 112.655891 -135.780677 
L 112.434941 -136.320874 
L 112.213991 -136.844404 
L 111.993042 -137.347993 
L 111.772092 -137.828301 
L 111.551143 -138.281939 
L 111.330193 -138.705507 
L 111.109243 -139.095633 
L 110.888294 -139.449031 
L 110.667344 -139.762558 
L 110.446394 -140.03329 
L 110.225445 -140.258587 
L 110.004495 -140.436167 
L 109.783546 -140.564178 
L 109.562596 -140.64126 
L 109.341646 -140.666597 
L 109.120697 -140.63997 
L 108.899747 -140.561776 
L 108.678797 -140.433048 
L 108.457848 -140.255451 
L 108.236898 -140.031259 
L 108.015949 -139.763317 
L 107.794999 -139.454984 
L 107.574049 -139.110065 
L 107.3531 -138.732723 
L 107.13215 -138.327384 
L 106.9112 -137.898637 
L 106.690251 -137.451127 
L 106.469301 -136.989449 
L 106.248352 -136.518043 
L 106.027402 -136.041105 
L 105.806452 -135.562495 
L 105.585503 -135.085671 
L 105.364553 -134.613633 
L 105.143603 -134.148881 
L 104.922654 -133.693403 
L 104.701704 -133.248666 
L 104.480755 -132.815641 
L 104.259805 -132.394832 
L 104.038855 -131.986332 
L 103.817906 -131.589879 
L 103.596956 -131.204938 
L 103.376006 -130.830774 
L 103.155057 -130.466539 
L 102.934107 -130.111359 
L 102.713158 -129.764408 
L 102.492208 -129.42499 
L 102.271258 -129.092597 
L 102.050309 -128.76697 
L 101.829359 -128.448133 
L 101.608409 -128.13642 
L 101.38746 -127.832482 
L 101.16651 -127.537283 
L 100.945561 -127.252072 
L 100.724611 -126.978352 
L 100.503661 -126.717822 
L 100.282712 -126.472321 
L 100.061762 -126.243753 
L 99.840812 -126.034013 
L 99.619863 -125.844906 
L 99.398913 -125.678068 
L 99.177964 -125.534886 
L 98.957014 -125.416428 
L 98.736064 -125.323375 
L 98.515115 -125.255974 
L 98.294165 -125.213988 
L 98.073215 -125.196673 
L 97.852266 -125.202764 
L 97.631316 -125.230474 
L 97.410367 -125.277514 
L 97.189417 -125.341128 
L 96.968467 -125.418132 
L 96.747518 -125.504981 
L 96.526568 -125.597834 
L 96.305618 -125.692636 
L 96.084669 -125.785205 
L 95.863719 -125.871318 
L 95.642769 -125.94681 
L 95.42182 -126.007657 
L 95.20087 -126.050072 
L 94.979921 -126.07058 
L 94.758971 -126.066095 
L 94.538021 -126.033984 
L 94.317072 -125.972117 
L 94.096122 -125.878907 
L 93.875172 -125.75334 
L 93.654223 -125.594978 
L 93.433273 -125.403966 
L 93.212324 -125.181011 
L 92.991374 -124.927354 
L 92.770424 -124.644733 
L 92.549475 -124.335331 
L 92.328525 -124.001719 
L 92.107575 -123.646791 
L 91.886626 -123.273696 
L 91.665676 -122.885766 
L 91.444727 -122.486444 
L 91.223777 -122.079213 
L 91.002827 -121.66753 
L 90.781878 -121.254765 
L 90.560928 -120.84414 
L 90.339978 -120.438681 
L 90.119029 -120.04118 
L 89.898079 -119.654157 
L 89.67713 -119.279834 
z
" style="stroke: #2a788e; stroke-width: 1.25"/>
    </defs>
    <g>
     <use xlink:href="#mfa8ba1743e" x="0" y="174.26" style="fill: #2a788e; fill-opacity: 0.7; stroke: #2a788e; stroke-width: 1.25"/>
    </g>
   </g>
   <g id="line2d_2">
    <path d="M 7.2 59.175 
L 216.45 59.175 
" style="fill: none; stroke: #2a788e; stroke-opacity: 0.9; stroke-linecap: round"/>
   </g>
   <g id="text_2">
    <!-- 1 -->
    <g style="fill: #2a788e" transform="translate(7.2 58.257) scale(0.12 -0.12)">
     <defs>
      <path id="IBMPlexSans-Bold-31" d="M 602 0 
L 602 774 
L 1805 774 
L 1805 3770 
L 1747 3770 
L 838 2579 
L 224 3059 
L 1293 4467 
L 2765 4467 
L 2765 774 
L 3712 774 
L 3712 0 
L 602 0 
z
" transform="scale(0.015625)"/>
     </defs>
     <use xlink:href="#IBMPlexSans-Bold-31"/>
    </g>
   </g>
  </g>
  <g id="axes_3">
   <g id="patch_4">
    <path d="M 7.2 69.57 
L 216.45 69.57 
L 216.45 27.99 
L 7.2 27.99 
L 7.2 69.57 
z
" style="fill: none"/>
   </g>
   <g id="matplotlib.axis_5">
    <g id="xtick_11"/>
    <g id="xtick_12"/>
    <g id="xtick_13"/>
    <g id="xtick_14"/>
    <g id="xtick_15"/>
   </g>
   <g id="matplotlib.axis_6"/>
   <g id="FillBetweenPolyCollection_2">
    <defs>
     <path id="mb801683ab0" d="M 66.05064 -106.552329 
L 66.05064 -104.69 
L 66.510813 -104.69 
L 66.970985 -104.69 
L 67.431158 -104.69 
L 67.89133 -104.69 
L 68.351503 -104.69 
L 68.811675 -104.69 
L 69.271848 -104.69 
L 69.73202 -104.69 
L 70.192192 -104.69 
L 70.652365 -104.69 
L 71.112537 -104.69 
L 71.57271 -104.69 
L 72.032882 -104.69 
L 72.493055 -104.69 
L 72.953227 -104.69 
L 73.4134 -104.69 
L 73.873572 -104.69 
L 74.333745 -104.69 
L 74.793917 -104.69 
L 75.254089 -104.69 
L 75.714262 -104.69 
L 76.174434 -104.69 
L 76.634607 -104.69 
L 77.094779 -104.69 
L 77.554952 -104.69 
L 78.015124 -104.69 
L 78.475297 -104.69 
L 78.935469 -104.69 
L 79.395642 -104.69 
L 79.855814 -104.69 
L 80.315987 -104.69 
L 80.776159 -104.69 
L 81.236331 -104.69 
L 81.696504 -104.69 
L 82.156676 -104.69 
L 82.616849 -104.69 
L 83.077021 -104.69 
L 83.537194 -104.69 
L 83.997366 -104.69 
L 84.457539 -104.69 
L 84.917711 -104.69 
L 85.377884 -104.69 
L 85.838056 -104.69 
L 86.298228 -104.69 
L 86.758401 -104.69 
L 87.218573 -104.69 
L 87.678746 -104.69 
L 88.138918 -104.69 
L 88.599091 -104.69 
L 89.059263 -104.69 
L 89.519436 -104.69 
L 89.979608 -104.69 
L 90.439781 -104.69 
L 90.899953 -104.69 
L 91.360125 -104.69 
L 91.820298 -104.69 
L 92.28047 -104.69 
L 92.740643 -104.69 
L 93.200815 -104.69 
L 93.660988 -104.69 
L 94.12116 -104.69 
L 94.581333 -104.69 
L 95.041505 -104.69 
L 95.501678 -104.69 
L 95.96185 -104.69 
L 96.422022 -104.69 
L 96.882195 -104.69 
L 97.342367 -104.69 
L 97.80254 -104.69 
L 98.262712 -104.69 
L 98.722885 -104.69 
L 99.183057 -104.69 
L 99.64323 -104.69 
L 100.103402 -104.69 
L 100.563575 -104.69 
L 101.023747 -104.69 
L 101.483919 -104.69 
L 101.944092 -104.69 
L 102.404264 -104.69 
L 102.864437 -104.69 
L 103.324609 -104.69 
L 103.784782 -104.69 
L 104.244954 -104.69 
L 104.705127 -104.69 
L 105.165299 -104.69 
L 105.625472 -104.69 
L 106.085644 -104.69 
L 106.545817 -104.69 
L 107.005989 -104.69 
L 107.466161 -104.69 
L 107.926334 -104.69 
L 108.386506 -104.69 
L 108.846679 -104.69 
L 109.306851 -104.69 
L 109.767024 -104.69 
L 110.227196 -104.69 
L 110.687369 -104.69 
L 111.147541 -104.69 
L 111.607714 -104.69 
L 112.067886 -104.69 
L 112.528058 -104.69 
L 112.988231 -104.69 
L 113.448403 -104.69 
L 113.908576 -104.69 
L 114.368748 -104.69 
L 114.828921 -104.69 
L 115.289093 -104.69 
L 115.749266 -104.69 
L 116.209438 -104.69 
L 116.669611 -104.69 
L 117.129783 -104.69 
L 117.589955 -104.69 
L 118.050128 -104.69 
L 118.5103 -104.69 
L 118.970473 -104.69 
L 119.430645 -104.69 
L 119.890818 -104.69 
L 120.35099 -104.69 
L 120.811163 -104.69 
L 121.271335 -104.69 
L 121.731508 -104.69 
L 122.19168 -104.69 
L 122.651852 -104.69 
L 123.112025 -104.69 
L 123.572197 -104.69 
L 124.03237 -104.69 
L 124.492542 -104.69 
L 124.952715 -104.69 
L 125.412887 -104.69 
L 125.87306 -104.69 
L 126.333232 -104.69 
L 126.793405 -104.69 
L 127.253577 -104.69 
L 127.713749 -104.69 
L 128.173922 -104.69 
L 128.634094 -104.69 
L 129.094267 -104.69 
L 129.554439 -104.69 
L 130.014612 -104.69 
L 130.474784 -104.69 
L 130.934957 -104.69 
L 131.395129 -104.69 
L 131.855302 -104.69 
L 132.315474 -104.69 
L 132.775647 -104.69 
L 133.235819 -104.69 
L 133.695991 -104.69 
L 134.156164 -104.69 
L 134.616336 -104.69 
L 135.076509 -104.69 
L 135.536681 -104.69 
L 135.996854 -104.69 
L 136.457026 -104.69 
L 136.917199 -104.69 
L 137.377371 -104.69 
L 137.837544 -104.69 
L 138.297716 -104.69 
L 138.757888 -104.69 
L 139.218061 -104.69 
L 139.678233 -104.69 
L 140.138406 -104.69 
L 140.598578 -104.69 
L 141.058751 -104.69 
L 141.518923 -104.69 
L 141.979096 -104.69 
L 142.439268 -104.69 
L 142.899441 -104.69 
L 143.359613 -104.69 
L 143.819785 -104.69 
L 144.279958 -104.69 
L 144.74013 -104.69 
L 145.200303 -104.69 
L 145.660475 -104.69 
L 146.120648 -104.69 
L 146.58082 -104.69 
L 147.040993 -104.69 
L 147.501165 -104.69 
L 147.961338 -104.69 
L 148.42151 -104.69 
L 148.881682 -104.69 
L 149.341855 -104.69 
L 149.802027 -104.69 
L 150.2622 -104.69 
L 150.722372 -104.69 
L 151.182545 -104.69 
L 151.642717 -104.69 
L 152.10289 -104.69 
L 152.563062 -104.69 
L 153.023235 -104.69 
L 153.483407 -104.69 
L 153.943579 -104.69 
L 154.403752 -104.69 
L 154.863924 -104.69 
L 155.324097 -104.69 
L 155.784269 -104.69 
L 156.244442 -104.69 
L 156.704614 -104.69 
L 157.164787 -104.69 
L 157.624959 -104.69 
L 157.624959 -106.319016 
L 157.624959 -106.319016 
L 157.164787 -106.495417 
L 156.704614 -106.683539 
L 156.244442 -106.883264 
L 155.784269 -107.094371 
L 155.324097 -107.316539 
L 154.863924 -107.549352 
L 154.403752 -107.792302 
L 153.943579 -108.044802 
L 153.483407 -108.306191 
L 153.023235 -108.57575 
L 152.563062 -108.852713 
L 152.10289 -109.136281 
L 151.642717 -109.425639 
L 151.182545 -109.719963 
L 150.722372 -110.018438 
L 150.2622 -110.320264 
L 149.802027 -110.624665 
L 149.341855 -110.930894 
L 148.881682 -111.238231 
L 148.42151 -111.545984 
L 147.961338 -111.853479 
L 147.501165 -112.160051 
L 147.040993 -112.465032 
L 146.58082 -112.767733 
L 146.120648 -113.067426 
L 145.660475 -113.363323 
L 145.200303 -113.654561 
L 144.74013 -113.940177 
L 144.279958 -114.219098 
L 143.819785 -114.490123 
L 143.359613 -114.751917 
L 142.899441 -115.003008 
L 142.439268 -115.241787 
L 141.979096 -115.466526 
L 141.518923 -115.675386 
L 141.058751 -115.866447 
L 140.598578 -116.037743 
L 140.138406 -116.187291 
L 139.678233 -116.313144 
L 139.218061 -116.413436 
L 138.757888 -116.486431 
L 138.297716 -116.530579 
L 137.837544 -116.544566 
L 137.377371 -116.527366 
L 136.917199 -116.478286 
L 136.457026 -116.397005 
L 135.996854 -116.283609 
L 135.536681 -116.138617 
L 135.076509 -115.962992 
L 134.616336 -115.758146 
L 134.156164 -115.525936 
L 133.695991 -115.268647 
L 133.235819 -114.988958 
L 132.775647 -114.689911 
L 132.315474 -114.374862 
L 131.855302 -114.047424 
L 131.395129 -113.711407 
L 130.934957 -113.370755 
L 130.474784 -113.029475 
L 130.014612 -112.691567 
L 129.554439 -112.36096 
L 129.094267 -112.04144 
L 128.634094 -111.736595 
L 128.173922 -111.449753 
L 127.713749 -111.183937 
L 127.253577 -110.941822 
L 126.793405 -110.725706 
L 126.333232 -110.537482 
L 125.87306 -110.378628 
L 125.412887 -110.250202 
L 124.952715 -110.152847 
L 124.492542 -110.086802 
L 124.03237 -110.051927 
L 123.572197 -110.047728 
L 123.112025 -110.073389 
L 122.651852 -110.127815 
L 122.19168 -110.209668 
L 121.731508 -110.317412 
L 121.271335 -110.449353 
L 120.811163 -110.603688 
L 120.35099 -110.778537 
L 119.890818 -110.971983 
L 119.430645 -111.182108 
L 118.970473 -111.407013 
L 118.5103 -111.644846 
L 118.050128 -111.893815 
L 117.589955 -112.152196 
L 117.129783 -112.418341 
L 116.669611 -112.69067 
L 116.209438 -112.967669 
L 115.749266 -113.247877 
L 115.289093 -113.529869 
L 114.828921 -113.812245 
L 114.368748 -114.093605 
L 113.908576 -114.372541 
L 113.448403 -114.647615 
L 112.988231 -114.91735 
L 112.528058 -115.180225 
L 112.067886 -115.434664 
L 111.607714 -115.67905 
L 111.147541 -115.911722 
L 110.687369 -116.130999 
L 110.227196 -116.335196 
L 109.767024 -116.522652 
L 109.306851 -116.691758 
L 108.846679 -116.840991 
L 108.386506 -116.968954 
L 107.926334 -117.074405 
L 107.466161 -117.156297 
L 107.005989 -117.213808 
L 106.545817 -117.246371 
L 106.085644 -117.253695 
L 105.625472 -117.235779 
L 105.165299 -117.192925 
L 104.705127 -117.125732 
L 104.244954 -117.035092 
L 103.784782 -116.922168 
L 103.324609 -116.78837 
L 102.864437 -116.635325 
L 102.404264 -116.464833 
L 101.944092 -116.278829 
L 101.483919 -116.079331 
L 101.023747 -115.868394 
L 100.563575 -115.648067 
L 100.103402 -115.420338 
L 99.64323 -115.187103 
L 99.183057 -114.950122 
L 98.722885 -114.710995 
L 98.262712 -114.471136 
L 97.80254 -114.231763 
L 97.342367 -113.99389 
L 96.882195 -113.758331 
L 96.422022 -113.525714 
L 95.96185 -113.296493 
L 95.501678 -113.070979 
L 95.041505 -112.849366 
L 94.581333 -112.63176 
L 94.12116 -112.418222 
L 93.660988 -112.208792 
L 93.200815 -112.00353 
L 92.740643 -111.802542 
L 92.28047 -111.606004 
L 91.820298 -111.414188 
L 91.360125 -111.227468 
L 90.899953 -111.046335 
L 90.439781 -110.871389 
L 89.979608 -110.703339 
L 89.519436 -110.542983 
L 89.059263 -110.39119 
L 88.599091 -110.248873 
L 88.138918 -110.116957 
L 87.678746 -109.99635 
L 87.218573 -109.887898 
L 86.758401 -109.792357 
L 86.298228 -109.710352 
L 85.838056 -109.642344 
L 85.377884 -109.588599 
L 84.917711 -109.549166 
L 84.457539 -109.523851 
L 83.997366 -109.512207 
L 83.537194 -109.513526 
L 83.077021 -109.52684 
L 82.616849 -109.550931 
L 82.156676 -109.584341 
L 81.696504 -109.625403 
L 81.236331 -109.672264 
L 80.776159 -109.72292 
L 80.315987 -109.775261 
L 79.855814 -109.827109 
L 79.395642 -109.876265 
L 78.935469 -109.920556 
L 78.475297 -109.957882 
L 78.015124 -109.986259 
L 77.554952 -110.003864 
L 77.094779 -110.00907 
L 76.634607 -110.000482 
L 76.174434 -109.976961 
L 75.714262 -109.937647 
L 75.254089 -109.881975 
L 74.793917 -109.809676 
L 74.333745 -109.720781 
L 73.873572 -109.615613 
L 73.4134 -109.494773 
L 72.953227 -109.359117 
L 72.493055 -109.209733 
L 72.032882 -109.047914 
L 71.57271 -108.875119 
L 71.112537 -108.692941 
L 70.652365 -108.503071 
L 70.192192 -108.307257 
L 69.73202 -108.10727 
L 69.271848 -107.904871 
L 68.811675 -107.701775 
L 68.351503 -107.499621 
L 67.89133 -107.299951 
L 67.431158 -107.104183 
L 66.970985 -106.913598 
L 66.510813 -106.729324 
L 66.05064 -106.552329 
z
" style="stroke: #22a884; stroke-width: 1.25"/>
    </defs>
    <g>
     <use xlink:href="#mb801683ab0" x="0" y="174.26" style="fill: #22a884; fill-opacity: 0.7; stroke: #22a884; stroke-width: 1.25"/>
    </g>
   </g>
   <g id="line2d_3">
    <path d="M 7.2 69.57 
L 216.45 69.57 
" style="fill: none; stroke: #22a884; stroke-opacity: 0.9; stroke-linecap: round"/>
   </g>
   <g id="text_3">
    <!-- 2 -->
    <g style="fill: #22a884" transform="translate(7.2 68.652) scale(0.12 -0.12)">
     <defs>
      <path id="IBMPlexSans-Bold-32" d="M 3526 0 
L 365 0 
L 365 877 
L 1741 2054 
Q 1926 2214 2054 2345 
Q 2182 2477 2262 2601 
Q 2342 2726 2377 2848 
Q 2413 2970 2413 3110 
L 2413 3200 
Q 2413 3328 2361 3424 
Q 2310 3520 2227 3584 
Q 2144 3648 2038 3680 
Q 1933 3712 1824 3712 
Q 1664 3712 1545 3661 
Q 1427 3610 1340 3523 
Q 1254 3437 1196 3325 
Q 1139 3213 1107 3085 
L 269 3405 
Q 346 3635 480 3843 
Q 614 4051 816 4208 
Q 1018 4365 1293 4454 
Q 1568 4544 1914 4544 
Q 2278 4544 2560 4441 
Q 2842 4339 3037 4160 
Q 3232 3981 3334 3734 
Q 3437 3488 3437 3200 
Q 3437 2912 3341 2675 
Q 3245 2438 3081 2230 
Q 2918 2022 2700 1836 
Q 2483 1651 2246 1459 
L 1414 806 
L 3526 806 
L 3526 0 
z
" transform="scale(0.015625)"/>
     </defs>
     <use xlink:href="#IBMPlexSans-Bold-32"/>
    </g>
   </g>
  </g>
  <g id="axes_4">
   <g id="patch_5">
    <path d="M 7.2 79.965 
L 216.45 79.965 
L 216.45 38.385 
L 7.2 38.385 
L 7.2 79.965 
z
" style="fill: none"/>
   </g>
   <g id="matplotlib.axis_7">
    <g id="xtick_16"/>
    <g id="xtick_17"/>
    <g id="xtick_18"/>
    <g id="xtick_19"/>
    <g id="xtick_20"/>
   </g>
   <g id="matplotlib.axis_8"/>
   <g id="FillBetweenPolyCollection_3">
    <defs>
     <path id="mc1a87df681" d="M 41.099384 -95.331583 
L 41.099384 -94.295 
L 41.80784 -94.295 
L 42.516296 -94.295 
L 43.224752 -94.295 
L 43.933208 -94.295 
L 44.641665 -94.295 
L 45.350121 -94.295 
L 46.058577 -94.295 
L 46.767033 -94.295 
L 47.475489 -94.295 
L 48.183945 -94.295 
L 48.892401 -94.295 
L 49.600857 -94.295 
L 50.309313 -94.295 
L 51.017769 -94.295 
L 51.726225 -94.295 
L 52.434681 -94.295 
L 53.143137 -94.295 
L 53.851593 -94.295 
L 54.56005 -94.295 
L 55.268506 -94.295 
L 55.976962 -94.295 
L 56.685418 -94.295 
L 57.393874 -94.295 
L 58.10233 -94.295 
L 58.810786 -94.295 
L 59.519242 -94.295 
L 60.227698 -94.295 
L 60.936154 -94.295 
L 61.64461 -94.295 
L 62.353066 -94.295 
L 63.061522 -94.295 
L 63.769979 -94.295 
L 64.478435 -94.295 
L 65.186891 -94.295 
L 65.895347 -94.295 
L 66.603803 -94.295 
L 67.312259 -94.295 
L 68.020715 -94.295 
L 68.729171 -94.295 
L 69.437627 -94.295 
L 70.146083 -94.295 
L 70.854539 -94.295 
L 71.562995 -94.295 
L 72.271451 -94.295 
L 72.979907 -94.295 
L 73.688364 -94.295 
L 74.39682 -94.295 
L 75.105276 -94.295 
L 75.813732 -94.295 
L 76.522188 -94.295 
L 77.230644 -94.295 
L 77.9391 -94.295 
L 78.647556 -94.295 
L 79.356012 -94.295 
L 80.064468 -94.295 
L 80.772924 -94.295 
L 81.48138 -94.295 
L 82.189836 -94.295 
L 82.898292 -94.295 
L 83.606749 -94.295 
L 84.315205 -94.295 
L 85.023661 -94.295 
L 85.732117 -94.295 
L 86.440573 -94.295 
L 87.149029 -94.295 
L 87.857485 -94.295 
L 88.565941 -94.295 
L 89.274397 -94.295 
L 89.982853 -94.295 
L 90.691309 -94.295 
L 91.399765 -94.295 
L 92.108221 -94.295 
L 92.816678 -94.295 
L 93.525134 -94.295 
L 94.23359 -94.295 
L 94.942046 -94.295 
L 95.650502 -94.295 
L 96.358958 -94.295 
L 97.067414 -94.295 
L 97.77587 -94.295 
L 98.484326 -94.295 
L 99.192782 -94.295 
L 99.901238 -94.295 
L 100.609694 -94.295 
L 101.31815 -94.295 
L 102.026606 -94.295 
L 102.735063 -94.295 
L 103.443519 -94.295 
L 104.151975 -94.295 
L 104.860431 -94.295 
L 105.568887 -94.295 
L 106.277343 -94.295 
L 106.985799 -94.295 
L 107.694255 -94.295 
L 108.402711 -94.295 
L 109.111167 -94.295 
L 109.819623 -94.295 
L 110.528079 -94.295 
L 111.236535 -94.295 
L 111.944992 -94.295 
L 112.653448 -94.295 
L 113.361904 -94.295 
L 114.07036 -94.295 
L 114.778816 -94.295 
L 115.487272 -94.295 
L 116.195728 -94.295 
L 116.904184 -94.295 
L 117.61264 -94.295 
L 118.321096 -94.295 
L 119.029552 -94.295 
L 119.738008 -94.295 
L 120.446464 -94.295 
L 121.15492 -94.295 
L 121.863377 -94.295 
L 122.571833 -94.295 
L 123.280289 -94.295 
L 123.988745 -94.295 
L 124.697201 -94.295 
L 125.405657 -94.295 
L 126.114113 -94.295 
L 126.822569 -94.295 
L 127.531025 -94.295 
L 128.239481 -94.295 
L 128.947937 -94.295 
L 129.656393 -94.295 
L 130.364849 -94.295 
L 131.073305 -94.295 
L 131.781762 -94.295 
L 132.490218 -94.295 
L 133.198674 -94.295 
L 133.90713 -94.295 
L 134.615586 -94.295 
L 135.324042 -94.295 
L 136.032498 -94.295 
L 136.740954 -94.295 
L 137.44941 -94.295 
L 138.157866 -94.295 
L 138.866322 -94.295 
L 139.574778 -94.295 
L 140.283234 -94.295 
L 140.991691 -94.295 
L 141.700147 -94.295 
L 142.408603 -94.295 
L 143.117059 -94.295 
L 143.825515 -94.295 
L 144.533971 -94.295 
L 145.242427 -94.295 
L 145.950883 -94.295 
L 146.659339 -94.295 
L 147.367795 -94.295 
L 148.076251 -94.295 
L 148.784707 -94.295 
L 149.493163 -94.295 
L 150.201619 -94.295 
L 150.910076 -94.295 
L 151.618532 -94.295 
L 152.326988 -94.295 
L 153.035444 -94.295 
L 153.7439 -94.295 
L 154.452356 -94.295 
L 155.160812 -94.295 
L 155.869268 -94.295 
L 156.577724 -94.295 
L 157.28618 -94.295 
L 157.994636 -94.295 
L 158.703092 -94.295 
L 159.411548 -94.295 
L 160.120005 -94.295 
L 160.828461 -94.295 
L 161.536917 -94.295 
L 162.245373 -94.295 
L 162.953829 -94.295 
L 163.662285 -94.295 
L 164.370741 -94.295 
L 165.079197 -94.295 
L 165.787653 -94.295 
L 166.496109 -94.295 
L 167.204565 -94.295 
L 167.913021 -94.295 
L 168.621477 -94.295 
L 169.329933 -94.295 
L 170.03839 -94.295 
L 170.746846 -94.295 
L 171.455302 -94.295 
L 172.163758 -94.295 
L 172.872214 -94.295 
L 173.58067 -94.295 
L 174.289126 -94.295 
L 174.997582 -94.295 
L 175.706038 -94.295 
L 176.414494 -94.295 
L 177.12295 -94.295 
L 177.831406 -94.295 
L 178.539862 -94.295 
L 179.248318 -94.295 
L 179.956775 -94.295 
L 180.665231 -94.295 
L 181.373687 -94.295 
L 182.082143 -94.295 
L 182.082143 -95.229297 
L 182.082143 -95.229297 
L 181.373687 -95.335871 
L 180.665231 -95.450283 
L 179.956775 -95.572564 
L 179.248318 -95.702681 
L 178.539862 -95.840538 
L 177.831406 -95.985976 
L 177.12295 -96.138773 
L 176.414494 -96.298649 
L 175.706038 -96.46527 
L 174.997582 -96.638254 
L 174.289126 -96.817174 
L 173.58067 -97.001573 
L 172.872214 -97.190963 
L 172.163758 -97.384836 
L 171.455302 -97.582674 
L 170.746846 -97.78395 
L 170.03839 -97.988136 
L 169.329933 -98.194705 
L 168.621477 -98.403135 
L 167.913021 -98.612904 
L 167.204565 -98.823493 
L 166.496109 -99.034375 
L 165.787653 -99.245015 
L 165.079197 -99.454854 
L 164.370741 -99.663307 
L 163.662285 -99.869745 
L 162.953829 -100.07349 
L 162.245373 -100.273801 
L 161.536917 -100.469867 
L 160.828461 -100.660795 
L 160.120005 -100.845614 
L 159.411548 -101.023265 
L 158.703092 -101.192608 
L 157.994636 -101.352426 
L 157.28618 -101.501442 
L 156.577724 -101.638325 
L 155.869268 -101.761723 
L 155.160812 -101.870276 
L 154.452356 -101.962651 
L 153.7439 -102.037573 
L 153.035444 -102.093857 
L 152.326988 -102.13044 
L 151.618532 -102.146421 
L 150.910076 -102.141091 
L 150.201619 -102.113962 
L 149.493163 -102.064797 
L 148.784707 -101.993633 
L 148.076251 -101.900794 
L 147.367795 -101.786905 
L 146.659339 -101.652895 
L 145.950883 -101.499994 
L 145.242427 -101.329718 
L 144.533971 -101.143859 
L 143.825515 -100.944453 
L 143.117059 -100.733753 
L 142.408603 -100.514191 
L 141.700147 -100.288339 
L 140.991691 -100.058866 
L 140.283234 -99.82849 
L 139.574778 -99.599933 
L 138.866322 -99.375872 
L 138.157866 -99.158901 
L 137.44941 -98.951481 
L 136.740954 -98.755907 
L 136.032498 -98.574272 
L 135.324042 -98.408441 
L 134.615586 -98.260024 
L 133.90713 -98.130365 
L 133.198674 -98.020526 
L 132.490218 -97.931287 
L 131.781762 -97.863146 
L 131.073305 -97.816329 
L 130.364849 -97.790798 
L 129.656393 -97.786275 
L 128.947937 -97.802257 
L 128.239481 -97.838044 
L 127.531025 -97.892767 
L 126.822569 -97.965411 
L 126.114113 -98.054846 
L 125.405657 -98.159854 
L 124.697201 -98.279158 
L 123.988745 -98.411443 
L 123.280289 -98.555379 
L 122.571833 -98.70964 
L 121.863377 -98.872922 
L 121.15492 -99.043948 
L 120.446464 -99.221484 
L 119.738008 -99.404334 
L 119.029552 -99.591349 
L 118.321096 -99.781418 
L 117.61264 -99.973465 
L 116.904184 -100.166445 
L 116.195728 -100.359329 
L 115.487272 -100.5511 
L 114.778816 -100.740742 
L 114.07036 -100.927234 
L 113.361904 -101.109542 
L 112.653448 -101.286618 
L 111.944992 -101.457399 
L 111.236535 -101.620808 
L 110.528079 -101.775759 
L 109.819623 -101.921173 
L 109.111167 -102.055985 
L 108.402711 -102.17916 
L 107.694255 -102.289713 
L 106.985799 -102.386728 
L 106.277343 -102.469379 
L 105.568887 -102.536947 
L 104.860431 -102.588843 
L 104.151975 -102.624622 
L 103.443519 -102.643999 
L 102.735063 -102.64686 
L 102.026606 -102.633265 
L 101.31815 -102.603455 
L 100.609694 -102.557843 
L 99.901238 -102.497012 
L 99.192782 -102.421695 
L 98.484326 -102.332766 
L 97.77587 -102.231212 
L 97.067414 -102.118114 
L 96.358958 -101.994618 
L 95.650502 -101.861911 
L 94.942046 -101.721195 
L 94.23359 -101.573658 
L 93.525134 -101.420452 
L 92.816678 -101.262674 
L 92.108221 -101.101349 
L 91.399765 -100.937415 
L 90.691309 -100.771716 
L 89.982853 -100.604999 
L 89.274397 -100.437916 
L 88.565941 -100.271028 
L 87.857485 -100.104815 
L 87.149029 -99.93969 
L 86.440573 -99.77601 
L 85.732117 -99.614098 
L 85.023661 -99.454259 
L 84.315205 -99.296794 
L 83.606749 -99.14202 
L 82.898292 -98.990283 
L 82.189836 -98.841967 
L 81.48138 -98.697507 
L 80.772924 -98.557385 
L 80.064468 -98.42214 
L 79.356012 -98.292357 
L 78.647556 -98.168662 
L 77.9391 -98.051706 
L 77.230644 -97.942155 
L 76.522188 -97.840669 
L 75.813732 -97.747882 
L 75.105276 -97.664379 
L 74.39682 -97.590673 
L 73.688364 -97.527186 
L 72.979907 -97.474224 
L 72.271451 -97.431961 
L 71.562995 -97.40042 
L 70.854539 -97.37946 
L 70.146083 -97.368769 
L 69.437627 -97.367855 
L 68.729171 -97.376051 
L 68.020715 -97.392517 
L 67.312259 -97.416248 
L 66.603803 -97.446091 
L 65.895347 -97.480763 
L 65.186891 -97.518875 
L 64.478435 -97.558953 
L 63.769979 -97.599474 
L 63.061522 -97.638891 
L 62.353066 -97.675665 
L 61.64461 -97.708301 
L 60.936154 -97.735375 
L 60.227698 -97.755563 
L 59.519242 -97.767674 
L 58.810786 -97.770666 
L 58.10233 -97.763672 
L 57.393874 -97.746015 
L 56.685418 -97.717215 
L 55.976962 -97.677004 
L 55.268506 -97.625317 
L 54.56005 -97.562297 
L 53.851593 -97.488284 
L 53.143137 -97.4038 
L 52.434681 -97.309536 
L 51.726225 -97.206331 
L 51.017769 -97.09515 
L 50.309313 -96.977059 
L 49.600857 -96.8532 
L 48.892401 -96.724765 
L 48.183945 -96.592971 
L 47.475489 -96.459033 
L 46.767033 -96.324144 
L 46.058577 -96.18945 
L 45.350121 -96.056035 
L 44.641665 -95.924901 
L 43.933208 -95.796958 
L 43.224752 -95.673015 
L 42.516296 -95.553768 
L 41.80784 -95.4398 
L 41.099384 -95.331583 
z
" style="stroke: #7ad151; stroke-width: 1.25"/>
    </defs>
    <g>
     <use xlink:href="#mc1a87df681" x="0" y="174.26" style="fill: #7ad151; fill-opacity: 0.7; stroke: #7ad151; stroke-width: 1.25"/>
    </g>
   </g>
   <g id="line2d_4">
    <path d="M 7.2 79.965 
L 216.45 79.965 
" style="fill: none; stroke: #7ad151; stroke-opacity: 0.9; stroke-linecap: round"/>
   </g>
   <g id="text_4">
    <!-- 3 -->
    <g style="fill: #7ad151" transform="translate(7.2 79.047) scale(0.12 -0.12)">
     <defs>
      <path id="IBMPlexSans-Bold-33" d="M 1677 2701 
Q 2035 2701 2198 2838 
Q 2362 2976 2362 3181 
L 2362 3226 
Q 2362 3469 2205 3616 
Q 2048 3763 1760 3763 
Q 1491 3763 1254 3625 
Q 1018 3488 851 3232 
L 250 3795 
Q 378 3962 525 4099 
Q 672 4237 857 4336 
Q 1043 4435 1273 4489 
Q 1504 4544 1792 4544 
Q 2150 4544 2441 4461 
Q 2733 4378 2941 4221 
Q 3149 4064 3261 3846 
Q 3373 3629 3373 3360 
Q 3373 3149 3305 2976 
Q 3238 2803 3120 2675 
Q 3002 2547 2848 2467 
Q 2694 2387 2522 2355 
L 2522 2317 
Q 2720 2278 2889 2192 
Q 3059 2106 3184 1971 
Q 3309 1837 3379 1654 
Q 3450 1472 3450 1242 
Q 3450 941 3328 697 
Q 3206 454 2982 281 
Q 2758 109 2444 16 
Q 2131 -77 1754 -77 
Q 1414 -77 1152 -6 
Q 890 64 694 182 
Q 499 301 355 454 
Q 211 608 102 781 
L 813 1331 
Q 960 1056 1174 880 
Q 1389 704 1754 704 
Q 2080 704 2262 867 
Q 2445 1030 2445 1312 
L 2445 1350 
Q 2445 1626 2237 1763 
Q 2029 1901 1664 1901 
L 1261 1901 
L 1261 2701 
L 1677 2701 
z
" transform="scale(0.015625)"/>
     </defs>
     <use xlink:href="#IBMPlexSans-Bold-33"/>
    </g>
   </g>
  </g>
  <g id="axes_5">
   <g id="patch_6">
    <path d="M 7.2 90.36 
L 216.45 90.36 
L 216.45 48.78 
L 7.2 48.78 
L 7.2 90.36 
z
" style="fill: none"/>
   </g>
   <g id="matplotlib.axis_9">
    <g id="xtick_21"/>
    <g id="xtick_22"/>
    <g id="xtick_23"/>
    <g id="xtick_24"/>
    <g id="xtick_25"/>
   </g>
   <g id="matplotlib.axis_10"/>
   <g id="FillBetweenPolyCollection_4">
    <defs>
     <path id="md344f74389" d="M 16.711364 -84.655041 
L 16.711364 -83.9 
L 17.66728 -83.9 
L 18.623196 -83.9 
L 19.579111 -83.9 
L 20.535027 -83.9 
L 21.490943 -83.9 
L 22.446859 -83.9 
L 23.402775 -83.9 
L 24.358691 -83.9 
L 25.314607 -83.9 
L 26.270523 -83.9 
L 27.226439 -83.9 
L 28.182355 -83.9 
L 29.138271 -83.9 
L 30.094187 -83.9 
L 31.050103 -83.9 
L 32.006019 -83.9 
L 32.961935 -83.9 
L 33.917851 -83.9 
L 34.873767 -83.9 
L 35.829683 -83.9 
L 36.785598 -83.9 
L 37.741514 -83.9 
L 38.69743 -83.9 
L 39.653346 -83.9 
L 40.609262 -83.9 
L 41.565178 -83.9 
L 42.521094 -83.9 
L 43.47701 -83.9 
L 44.432926 -83.9 
L 45.388842 -83.9 
L 46.344758 -83.9 
L 47.300674 -83.9 
L 48.25659 -83.9 
L 49.212506 -83.9 
L 50.168422 -83.9 
L 51.124338 -83.9 
L 52.080254 -83.9 
L 53.036169 -83.9 
L 53.992085 -83.9 
L 54.948001 -83.9 
L 55.903917 -83.9 
L 56.859833 -83.9 
L 57.815749 -83.9 
L 58.771665 -83.9 
L 59.727581 -83.9 
L 60.683497 -83.9 
L 61.639413 -83.9 
L 62.595329 -83.9 
L 63.551245 -83.9 
L 64.507161 -83.9 
L 65.463077 -83.9 
L 66.418993 -83.9 
L 67.374909 -83.9 
L 68.330825 -83.9 
L 69.286741 -83.9 
L 70.242656 -83.9 
L 71.198572 -83.9 
L 72.154488 -83.9 
L 73.110404 -83.9 
L 74.06632 -83.9 
L 75.022236 -83.9 
L 75.978152 -83.9 
L 76.934068 -83.9 
L 77.889984 -83.9 
L 78.8459 -83.9 
L 79.801816 -83.9 
L 80.757732 -83.9 
L 81.713648 -83.9 
L 82.669564 -83.9 
L 83.62548 -83.9 
L 84.581396 -83.9 
L 85.537312 -83.9 
L 86.493228 -83.9 
L 87.449143 -83.9 
L 88.405059 -83.9 
L 89.360975 -83.9 
L 90.316891 -83.9 
L 91.272807 -83.9 
L 92.228723 -83.9 
L 93.184639 -83.9 
L 94.140555 -83.9 
L 95.096471 -83.9 
L 96.052387 -83.9 
L 97.008303 -83.9 
L 97.964219 -83.9 
L 98.920135 -83.9 
L 99.876051 -83.9 
L 100.831967 -83.9 
L 101.787883 -83.9 
L 102.743799 -83.9 
L 103.699714 -83.9 
L 104.65563 -83.9 
L 105.611546 -83.9 
L 106.567462 -83.9 
L 107.523378 -83.9 
L 108.479294 -83.9 
L 109.43521 -83.9 
L 110.391126 -83.9 
L 111.347042 -83.9 
L 112.302958 -83.9 
L 113.258874 -83.9 
L 114.21479 -83.9 
L 115.170706 -83.9 
L 116.126622 -83.9 
L 117.082538 -83.9 
L 118.038454 -83.9 
L 118.99437 -83.9 
L 119.950286 -83.9 
L 120.906201 -83.9 
L 121.862117 -83.9 
L 122.818033 -83.9 
L 123.773949 -83.9 
L 124.729865 -83.9 
L 125.685781 -83.9 
L 126.641697 -83.9 
L 127.597613 -83.9 
L 128.553529 -83.9 
L 129.509445 -83.9 
L 130.465361 -83.9 
L 131.421277 -83.9 
L 132.377193 -83.9 
L 133.333109 -83.9 
L 134.289025 -83.9 
L 135.244941 -83.9 
L 136.200857 -83.9 
L 137.156772 -83.9 
L 138.112688 -83.9 
L 139.068604 -83.9 
L 140.02452 -83.9 
L 140.980436 -83.9 
L 141.936352 -83.9 
L 142.892268 -83.9 
L 143.848184 -83.9 
L 144.8041 -83.9 
L 145.760016 -83.9 
L 146.715932 -83.9 
L 147.671848 -83.9 
L 148.627764 -83.9 
L 149.58368 -83.9 
L 150.539596 -83.9 
L 151.495512 -83.9 
L 152.451428 -83.9 
L 153.407344 -83.9 
L 154.363259 -83.9 
L 155.319175 -83.9 
L 156.275091 -83.9 
L 157.231007 -83.9 
L 158.186923 -83.9 
L 159.142839 -83.9 
L 160.098755 -83.9 
L 161.054671 -83.9 
L 162.010587 -83.9 
L 162.966503 -83.9 
L 163.922419 -83.9 
L 164.878335 -83.9 
L 165.834251 -83.9 
L 166.790167 -83.9 
L 167.746083 -83.9 
L 168.701999 -83.9 
L 169.657915 -83.9 
L 170.613831 -83.9 
L 171.569746 -83.9 
L 172.525662 -83.9 
L 173.481578 -83.9 
L 174.437494 -83.9 
L 175.39341 -83.9 
L 176.349326 -83.9 
L 177.305242 -83.9 
L 178.261158 -83.9 
L 179.217074 -83.9 
L 180.17299 -83.9 
L 181.128906 -83.9 
L 182.084822 -83.9 
L 183.040738 -83.9 
L 183.996654 -83.9 
L 184.95257 -83.9 
L 185.908486 -83.9 
L 186.864402 -83.9 
L 187.820317 -83.9 
L 188.776233 -83.9 
L 189.732149 -83.9 
L 190.688065 -83.9 
L 191.643981 -83.9 
L 192.599897 -83.9 
L 193.555813 -83.9 
L 194.511729 -83.9 
L 195.467645 -83.9 
L 196.423561 -83.9 
L 197.379477 -83.9 
L 198.335393 -83.9 
L 199.291309 -83.9 
L 200.247225 -83.9 
L 201.203141 -83.9 
L 202.159057 -83.9 
L 203.114973 -83.9 
L 204.070889 -83.9 
L 205.026804 -83.9 
L 205.98272 -83.9 
L 206.938636 -83.9 
L 206.938636 -84.536428 
L 206.938636 -84.536428 
L 205.98272 -84.610209 
L 205.026804 -84.689679 
L 204.070889 -84.774911 
L 203.114973 -84.86594 
L 202.159057 -84.962758 
L 201.203141 -85.065312 
L 200.247225 -85.17351 
L 199.291309 -85.287216 
L 198.335393 -85.406254 
L 197.379477 -85.530412 
L 196.423561 -85.659441 
L 195.467645 -85.793063 
L 194.511729 -85.930974 
L 193.555813 -86.072844 
L 192.599897 -86.218328 
L 191.643981 -86.367063 
L 190.688065 -86.518674 
L 189.732149 -86.672775 
L 188.776233 -86.828972 
L 187.820317 -86.986862 
L 186.864402 -87.146028 
L 185.908486 -87.306043 
L 184.95257 -87.466463 
L 183.996654 -87.626821 
L 183.040738 -87.786623 
L 182.084822 -87.945346 
L 181.128906 -88.102423 
L 180.17299 -88.257245 
L 179.217074 -88.409152 
L 178.261158 -88.557433 
L 177.305242 -88.701319 
L 176.349326 -88.839984 
L 175.39341 -88.97255 
L 174.437494 -89.09809 
L 173.481578 -89.215636 
L 172.525662 -89.324191 
L 171.569746 -89.422742 
L 170.613831 -89.510277 
L 169.657915 -89.585804 
L 168.701999 -89.648376 
L 167.746083 -89.697107 
L 166.790167 -89.731204 
L 165.834251 -89.749983 
L 164.878335 -89.752898 
L 163.922419 -89.739561 
L 162.966503 -89.709761 
L 162.010587 -89.663481 
L 161.054671 -89.600909 
L 160.098755 -89.522452 
L 159.142839 -89.428732 
L 158.186923 -89.320591 
L 157.231007 -89.199086 
L 156.275091 -89.06547 
L 155.319175 -88.921184 
L 154.363259 -88.767835 
L 153.407344 -88.607168 
L 152.451428 -88.441041 
L 151.495512 -88.271396 
L 150.539596 -88.100223 
L 149.58368 -87.92953 
L 148.627764 -87.761311 
L 147.671848 -87.597507 
L 146.715932 -87.439984 
L 145.760016 -87.290497 
L 144.8041 -87.150666 
L 143.848184 -87.021958 
L 142.892268 -86.905663 
L 141.936352 -86.80288 
L 140.980436 -86.714512 
L 140.02452 -86.641255 
L 139.068604 -86.5836 
L 138.112688 -86.541834 
L 137.156772 -86.516049 
L 136.200857 -86.506149 
L 135.244941 -86.511865 
L 134.289025 -86.532772 
L 133.333109 -86.568303 
L 132.377193 -86.61777 
L 131.421277 -86.680383 
L 130.465361 -86.755271 
L 129.509445 -86.841499 
L 128.553529 -86.938084 
L 127.597613 -87.044019 
L 126.641697 -87.158281 
L 125.685781 -87.279847 
L 124.729865 -87.407704 
L 123.773949 -87.540857 
L 122.818033 -87.678335 
L 121.862117 -87.819196 
L 120.906201 -87.962524 
L 119.950286 -88.107432 
L 118.99437 -88.253062 
L 118.038454 -88.398576 
L 117.082538 -88.543157 
L 116.126622 -88.686003 
L 115.170706 -88.826323 
L 114.21479 -88.963336 
L 113.258874 -89.096269 
L 112.302958 -89.224353 
L 111.347042 -89.346828 
L 110.391126 -89.462944 
L 109.43521 -89.571967 
L 108.479294 -89.673184 
L 107.523378 -89.765914 
L 106.567462 -89.849512 
L 105.611546 -89.923386 
L 104.65563 -89.987001 
L 103.699714 -90.039897 
L 102.743799 -90.08169 
L 101.787883 -90.112089 
L 100.831967 -90.130901 
L 99.876051 -90.138035 
L 98.920135 -90.133506 
L 97.964219 -90.117437 
L 97.008303 -90.090056 
L 96.052387 -90.051691 
L 95.096471 -90.002764 
L 94.140555 -89.943779 
L 93.184639 -89.875315 
L 92.228723 -89.798009 
L 91.272807 -89.712544 
L 90.316891 -89.619632 
L 89.360975 -89.520005 
L 88.405059 -89.414394 
L 87.449143 -89.303522 
L 86.493228 -89.188094 
L 85.537312 -89.068781 
L 84.581396 -88.946222 
L 83.62548 -88.821016 
L 82.669564 -88.693719 
L 81.713648 -88.56485 
L 80.757732 -88.43489 
L 79.801816 -88.304287 
L 78.8459 -88.173467 
L 77.889984 -88.042837 
L 76.934068 -87.912798 
L 75.978152 -87.783749 
L 75.022236 -87.656097 
L 74.06632 -87.530266 
L 73.110404 -87.406697 
L 72.154488 -87.285857 
L 71.198572 -87.16824 
L 70.242656 -87.054362 
L 69.286741 -86.94476 
L 68.330825 -86.839989 
L 67.374909 -86.74061 
L 66.418993 -86.64718 
L 65.463077 -86.560242 
L 64.507161 -86.480312 
L 63.551245 -86.407861 
L 62.595329 -86.343303 
L 61.639413 -86.286979 
L 60.683497 -86.239144 
L 59.727581 -86.199953 
L 58.771665 -86.169448 
L 57.815749 -86.147553 
L 56.859833 -86.134062 
L 55.903917 -86.128638 
L 54.948001 -86.130815 
L 53.992085 -86.139994 
L 53.036169 -86.155454 
L 52.080254 -86.176358 
L 51.124338 -86.201769 
L 50.168422 -86.230661 
L 49.212506 -86.26194 
L 48.25659 -86.294462 
L 47.300674 -86.327055 
L 46.344758 -86.358541 
L 45.388842 -86.387762 
L 44.432926 -86.413599 
L 43.47701 -86.434995 
L 42.521094 -86.450981 
L 41.565178 -86.460686 
L 40.609262 -86.463361 
L 39.653346 -86.458391 
L 38.69743 -86.445304 
L 37.741514 -86.423778 
L 36.785598 -86.393647 
L 35.829683 -86.354899 
L 34.873767 -86.307675 
L 33.917851 -86.252259 
L 32.961935 -86.189067 
L 32.006019 -86.118641 
L 31.050103 -86.041627 
L 30.094187 -85.95876 
L 29.138271 -85.870848 
L 28.182355 -85.778752 
L 27.226439 -85.683364 
L 26.270523 -85.585593 
L 25.314607 -85.486342 
L 24.358691 -85.386495 
L 23.402775 -85.286899 
L 22.446859 -85.188351 
L 21.490943 -85.091588 
L 20.535027 -84.997275 
L 19.579111 -84.906 
L 18.623196 -84.818269 
L 17.66728 -84.734504 
L 16.711364 -84.655041 
z
" style="stroke: #bddf26; stroke-width: 1.25"/>
    </defs>
    <g>
     <use xlink:href="#md344f74389" x="0" y="174.26" style="fill: #bddf26; fill-opacity: 0.7; stroke: #bddf26; stroke-width: 1.25"/>
    </g>
   </g>
   <g id="line2d_5">
    <path d="M 7.2 90.36 
L 216.45 90.36 
" style="fill: none; stroke: #bddf26; stroke-opacity: 0.9; stroke-linecap: round"/>
   </g>
   <g id="text_5">
    <!-- 4 -->
    <g style="fill: #bddf26" transform="translate(7.2 89.442) scale(0.12 -0.12)">
     <defs>
      <path id="IBMPlexSans-Bold-34" d="M 2157 0 
L 2157 858 
L 192 858 
L 192 1677 
L 1933 4467 
L 3072 4467 
L 3072 1600 
L 3635 1600 
L 3635 858 
L 3072 858 
L 3072 0 
L 2157 0 
z
M 960 1600 
L 2157 1600 
L 2157 3475 
L 2093 3475 
L 960 1600 
z
" transform="scale(0.015625)"/>
     </defs>
     <use xlink:href="#IBMPlexSans-Bold-34"/>
    </g>
   </g>
  </g>
  <g id="axes_6">
   <g id="patch_7">
    <path d="M 7.2 100.755 
L 216.45 100.755 
L 216.45 59.175 
L 7.2 59.175 
L 7.2 100.755 
z
" style="fill: none"/>
   </g>
   <g id="matplotlib.axis_11">
    <g id="xtick_26"/>
    <g id="xtick_27"/>
    <g id="xtick_28"/>
    <g id="xtick_29"/>
    <g id="xtick_30"/>
   </g>
   <g id="matplotlib.axis_12"/>
   <g id="FillBetweenPolyCollection_5">
    <defs>
     <path id="m8b083657ca" d="M 41.34627 -74.624359 
L 41.34627 -73.505 
L 42.048856 -73.505 
L 42.751442 -73.505 
L 43.454028 -73.505 
L 44.156614 -73.505 
L 44.8592 -73.505 
L 45.561785 -73.505 
L 46.264371 -73.505 
L 46.966957 -73.505 
L 47.669543 -73.505 
L 48.372129 -73.505 
L 49.074715 -73.505 
L 49.777301 -73.505 
L 50.479887 -73.505 
L 51.182473 -73.505 
L 51.885059 -73.505 
L 52.587645 -73.505 
L 53.290231 -73.505 
L 53.992817 -73.505 
L 54.695403 -73.505 
L 55.397989 -73.505 
L 56.100575 -73.505 
L 56.803161 -73.505 
L 57.505747 -73.505 
L 58.208332 -73.505 
L 58.910918 -73.505 
L 59.613504 -73.505 
L 60.31609 -73.505 
L 61.018676 -73.505 
L 61.721262 -73.505 
L 62.423848 -73.505 
L 63.126434 -73.505 
L 63.82902 -73.505 
L 64.531606 -73.505 
L 65.234192 -73.505 
L 65.936778 -73.505 
L 66.639364 -73.505 
L 67.34195 -73.505 
L 68.044536 -73.505 
L 68.747122 -73.505 
L 69.449708 -73.505 
L 70.152294 -73.505 
L 70.85488 -73.505 
L 71.557465 -73.505 
L 72.260051 -73.505 
L 72.962637 -73.505 
L 73.665223 -73.505 
L 74.367809 -73.505 
L 75.070395 -73.505 
L 75.772981 -73.505 
L 76.475567 -73.505 
L 77.178153 -73.505 
L 77.880739 -73.505 
L 78.583325 -73.505 
L 79.285911 -73.505 
L 79.988497 -73.505 
L 80.691083 -73.505 
L 81.393669 -73.505 
L 82.096255 -73.505 
L 82.798841 -73.505 
L 83.501427 -73.505 
L 84.204012 -73.505 
L 84.906598 -73.505 
L 85.609184 -73.505 
L 86.31177 -73.505 
L 87.014356 -73.505 
L 87.716942 -73.505 
L 88.419528 -73.505 
L 89.122114 -73.505 
L 89.8247 -73.505 
L 90.527286 -73.505 
L 91.229872 -73.505 
L 91.932458 -73.505 
L 92.635044 -73.505 
L 93.33763 -73.505 
L 94.040216 -73.505 
L 94.742802 -73.505 
L 95.445388 -73.505 
L 96.147974 -73.505 
L 96.850559 -73.505 
L 97.553145 -73.505 
L 98.255731 -73.505 
L 98.958317 -73.505 
L 99.660903 -73.505 
L 100.363489 -73.505 
L 101.066075 -73.505 
L 101.768661 -73.505 
L 102.471247 -73.505 
L 103.173833 -73.505 
L 103.876419 -73.505 
L 104.579005 -73.505 
L 105.281591 -73.505 
L 105.984177 -73.505 
L 106.686763 -73.505 
L 107.389349 -73.505 
L 108.091935 -73.505 
L 108.794521 -73.505 
L 109.497106 -73.505 
L 110.199692 -73.505 
L 110.902278 -73.505 
L 111.604864 -73.505 
L 112.30745 -73.505 
L 113.010036 -73.505 
L 113.712622 -73.505 
L 114.415208 -73.505 
L 115.117794 -73.505 
L 115.82038 -73.505 
L 116.522966 -73.505 
L 117.225552 -73.505 
L 117.928138 -73.505 
L 118.630724 -73.505 
L 119.33331 -73.505 
L 120.035896 -73.505 
L 120.738482 -73.505 
L 121.441068 -73.505 
L 122.143654 -73.505 
L 122.846239 -73.505 
L 123.548825 -73.505 
L 124.251411 -73.505 
L 124.953997 -73.505 
L 125.656583 -73.505 
L 126.359169 -73.505 
L 127.061755 -73.505 
L 127.764341 -73.505 
L 128.466927 -73.505 
L 129.169513 -73.505 
L 129.872099 -73.505 
L 130.574685 -73.505 
L 131.277271 -73.505 
L 131.979857 -73.505 
L 132.682443 -73.505 
L 133.385029 -73.505 
L 134.087615 -73.505 
L 134.790201 -73.505 
L 135.492786 -73.505 
L 136.195372 -73.505 
L 136.897958 -73.505 
L 137.600544 -73.505 
L 138.30313 -73.505 
L 139.005716 -73.505 
L 139.708302 -73.505 
L 140.410888 -73.505 
L 141.113474 -73.505 
L 141.81606 -73.505 
L 142.518646 -73.505 
L 143.221232 -73.505 
L 143.923818 -73.505 
L 144.626404 -73.505 
L 145.32899 -73.505 
L 146.031576 -73.505 
L 146.734162 -73.505 
L 147.436748 -73.505 
L 148.139333 -73.505 
L 148.841919 -73.505 
L 149.544505 -73.505 
L 150.247091 -73.505 
L 150.949677 -73.505 
L 151.652263 -73.505 
L 152.354849 -73.505 
L 153.057435 -73.505 
L 153.760021 -73.505 
L 154.462607 -73.505 
L 155.165193 -73.505 
L 155.867779 -73.505 
L 156.570365 -73.505 
L 157.272951 -73.505 
L 157.975537 -73.505 
L 158.678123 -73.505 
L 159.380709 -73.505 
L 160.083295 -73.505 
L 160.78588 -73.505 
L 161.488466 -73.505 
L 162.191052 -73.505 
L 162.893638 -73.505 
L 163.596224 -73.505 
L 164.29881 -73.505 
L 165.001396 -73.505 
L 165.703982 -73.505 
L 166.406568 -73.505 
L 167.109154 -73.505 
L 167.81174 -73.505 
L 168.514326 -73.505 
L 169.216912 -73.505 
L 169.919498 -73.505 
L 170.622084 -73.505 
L 171.32467 -73.505 
L 172.027256 -73.505 
L 172.729842 -73.505 
L 173.432428 -73.505 
L 174.135013 -73.505 
L 174.837599 -73.505 
L 175.540185 -73.505 
L 176.242771 -73.505 
L 176.945357 -73.505 
L 177.647943 -73.505 
L 178.350529 -73.505 
L 179.053115 -73.505 
L 179.755701 -73.505 
L 180.458287 -73.505 
L 181.160873 -73.505 
L 181.160873 -74.605767 
L 181.160873 -74.605767 
L 180.458287 -74.722929 
L 179.755701 -74.847655 
L 179.053115 -74.979849 
L 178.350529 -75.119351 
L 177.647943 -75.265939 
L 176.945357 -75.419329 
L 176.242771 -75.579182 
L 175.540185 -75.745112 
L 174.837599 -75.916686 
L 174.135013 -76.093438 
L 173.432428 -76.274876 
L 172.729842 -76.460487 
L 172.027256 -76.649751 
L 171.32467 -76.842145 
L 170.622084 -77.03715 
L 169.919498 -77.234258 
L 169.216912 -77.432978 
L 168.514326 -77.632831 
L 167.81174 -77.833356 
L 167.109154 -78.034106 
L 166.406568 -78.23464 
L 165.703982 -78.434521 
L 165.001396 -78.633301 
L 164.29881 -78.830515 
L 163.596224 -79.025667 
L 162.893638 -79.218219 
L 162.191052 -79.407578 
L 161.488466 -79.593087 
L 160.78588 -79.774012 
L 160.083295 -79.949539 
L 159.380709 -80.118767 
L 158.678123 -80.280709 
L 157.975537 -80.434296 
L 157.272951 -80.578386 
L 156.570365 -80.711774 
L 155.867779 -80.833212 
L 155.165193 -80.941428 
L 154.462607 -81.035155 
L 153.760021 -81.113157 
L 153.057435 -81.174261 
L 152.354849 -81.217391 
L 151.652263 -81.241596 
L 150.949677 -81.246092 
L 150.247091 -81.230284 
L 149.544505 -81.193799 
L 148.841919 -81.136508 
L 148.139333 -81.058549 
L 147.436748 -80.960336 
L 146.734162 -80.842569 
L 146.031576 -80.706236 
L 145.32899 -80.552604 
L 144.626404 -80.383211 
L 143.923818 -80.19984 
L 143.221232 -80.0045 
L 142.518646 -79.799391 
L 141.81606 -79.586869 
L 141.113474 -79.369409 
L 140.410888 -79.149559 
L 139.708302 -78.929901 
L 139.005716 -78.713001 
L 138.30313 -78.501373 
L 137.600544 -78.297434 
L 136.897958 -78.103463 
L 136.195372 -77.921571 
L 135.492786 -77.753671 
L 134.790201 -77.601448 
L 134.087615 -77.466344 
L 133.385029 -77.349543 
L 132.682443 -77.251961 
L 131.979857 -77.17425 
L 131.277271 -77.116795 
L 130.574685 -77.079726 
L 129.872099 -77.062933 
L 129.169513 -77.066082 
L 128.466927 -77.088635 
L 127.764341 -77.129876 
L 127.061755 -77.188936 
L 126.359169 -77.264817 
L 125.656583 -77.356421 
L 124.953997 -77.462577 
L 124.251411 -77.582062 
L 123.548825 -77.713624 
L 122.846239 -77.856004 
L 122.143654 -78.007949 
L 121.441068 -78.168229 
L 120.738482 -78.335643 
L 120.035896 -78.509026 
L 119.33331 -78.687254 
L 118.630724 -78.869238 
L 117.928138 -79.053926 
L 117.225552 -79.240293 
L 116.522966 -79.427338 
L 115.82038 -79.614071 
L 115.117794 -79.799508 
L 114.415208 -79.982661 
L 113.712622 -80.162533 
L 113.010036 -80.338113 
L 112.30745 -80.508372 
L 111.604864 -80.672266 
L 110.902278 -80.828738 
L 110.199692 -80.976729 
L 109.497106 -81.11518 
L 108.794521 -81.243056 
L 108.091935 -81.359354 
L 107.389349 -81.463124 
L 106.686763 -81.553489 
L 105.984177 -81.629662 
L 105.281591 -81.690969 
L 104.579005 -81.736865 
L 103.876419 -81.76695 
L 103.173833 -81.780986 
L 102.471247 -81.7789 
L 101.768661 -81.760795 
L 101.066075 -81.726949 
L 100.363489 -81.677813 
L 99.660903 -81.613997 
L 98.958317 -81.536266 
L 98.255731 -81.445515 
L 97.553145 -81.342749 
L 96.850559 -81.229067 
L 96.147974 -81.105626 
L 95.445388 -80.973623 
L 94.742802 -80.834263 
L 94.040216 -80.688739 
L 93.33763 -80.538202 
L 92.635044 -80.383747 
L 91.932458 -80.226391 
L 91.229872 -80.067062 
L 90.527286 -79.90659 
L 89.8247 -79.745704 
L 89.122114 -79.585029 
L 88.419528 -79.425093 
L 87.716942 -79.266338 
L 87.014356 -79.109126 
L 86.31177 -78.953761 
L 85.609184 -78.800498 
L 84.906598 -78.649565 
L 84.204012 -78.501182 
L 83.501427 -78.35557 
L 82.798841 -78.212977 
L 82.096255 -78.07368 
L 81.393669 -77.938003 
L 80.691083 -77.806318 
L 79.988497 -77.67905 
L 79.285911 -77.556676 
L 78.583325 -77.439717 
L 77.880739 -77.32873 
L 77.178153 -77.224297 
L 76.475567 -77.127005 
L 75.772981 -77.037432 
L 75.070395 -76.956126 
L 74.367809 -76.883582 
L 73.665223 -76.820222 
L 72.962637 -76.766375 
L 72.260051 -76.722259 
L 71.557465 -76.687959 
L 70.85488 -76.663419 
L 70.152294 -76.648426 
L 69.449708 -76.642607 
L 68.747122 -76.645425 
L 68.044536 -76.656177 
L 67.34195 -76.674009 
L 66.639364 -76.697916 
L 65.936778 -76.726768 
L 65.234192 -76.75932 
L 64.531606 -76.79424 
L 63.82902 -76.830131 
L 63.126434 -76.865562 
L 62.423848 -76.899092 
L 61.721262 -76.929304 
L 61.018676 -76.954832 
L 60.31609 -76.974389 
L 59.613504 -76.986795 
L 58.910918 -76.990999 
L 58.208332 -76.986101 
L 57.505747 -76.97137 
L 56.803161 -76.946255 
L 56.100575 -76.910396 
L 55.397989 -76.863624 
L 54.695403 -76.805966 
L 53.992817 -76.737636 
L 53.290231 -76.659029 
L 52.587645 -76.570704 
L 51.885059 -76.473372 
L 51.182473 -76.367873 
L 50.479887 -76.255158 
L 49.777301 -76.136265 
L 49.074715 -76.012294 
L 48.372129 -75.884384 
L 47.669543 -75.753689 
L 46.966957 -75.621355 
L 46.264371 -75.488503 
L 45.561785 -75.356203 
L 44.8592 -75.225462 
L 44.156614 -75.097209 
L 43.454028 -74.972284 
L 42.751442 -74.851427 
L 42.048856 -74.735275 
L 41.34627 -74.624359 
z
" style="stroke: #44bf70; stroke-width: 1.25"/>
    </defs>
    <g>
     <use xlink:href="#m8b083657ca" x="0" y="174.26" style="fill: #44bf70; fill-opacity: 0.7; stroke: #44bf70; stroke-width: 1.25"/>
    </g>
   </g>
   <g id="line2d_6">
    <path d="M 7.2 100.755 
L 216.45 100.755 
" style="fill: none; stroke: #44bf70; stroke-opacity: 0.9; stroke-linecap: round"/>
   </g>
   <g id="text_6">
    <!-- 5 -->
    <g style="fill: #44bf70" transform="translate(7.2 99.837) scale(0.12 -0.12)">
     <defs>
      <path id="IBMPlexSans-Bold-35" d="M 3341 3629 
L 1312 3629 
L 1216 2214 
L 1267 2214 
Q 1331 2374 1411 2505 
Q 1491 2637 1600 2729 
Q 1709 2822 1862 2873 
Q 2016 2925 2227 2925 
Q 2515 2925 2764 2829 
Q 3014 2733 3200 2550 
Q 3386 2368 3494 2102 
Q 3603 1837 3603 1504 
Q 3603 1165 3491 873 
Q 3379 582 3158 371 
Q 2938 160 2618 41 
Q 2298 -77 1888 -77 
Q 1562 -77 1312 -6 
Q 1062 64 870 182 
Q 678 301 537 454 
Q 397 608 294 781 
L 992 1331 
Q 1139 1069 1344 886 
Q 1549 704 1894 704 
Q 2240 704 2416 902 
Q 2592 1101 2592 1427 
L 2592 1478 
Q 2592 1786 2413 1965 
Q 2234 2144 1920 2144 
Q 1658 2144 1488 2038 
Q 1318 1933 1229 1830 
L 442 1939 
L 608 4467 
L 3341 4467 
L 3341 3629 
z
" transform="scale(0.015625)"/>
     </defs>
     <use xlink:href="#IBMPlexSans-Bold-35"/>
    </g>
   </g>
  </g>
  <g id="axes_7">
   <g id="patch_8">
    <path d="M 7.2 111.15 
L 216.45 111.15 
L 216.45 69.57 
L 7.2 69.57 
L 7.2 111.15 
z
" style="fill: none"/>
   </g>
   <g id="matplotlib.axis_13">
    <g id="xtick_31"/>
    <g id="xtick_32"/>
    <g id="xtick_33"/>
    <g id="xtick_34"/>
    <g id="xtick_35"/>
   </g>
   <g id="matplotlib.axis_14"/>
   <g id="FillBetweenPolyCollection_6">
    <defs>
     <path id="md47741f5ad" d="M 60.438985 -63.803522 
L 60.438985 -63.11 
L 60.936422 -63.11 
L 61.43386 -63.11 
L 61.931298 -63.11 
L 62.428735 -63.11 
L 62.926173 -63.11 
L 63.42361 -63.11 
L 63.921048 -63.11 
L 64.418485 -63.11 
L 64.915923 -63.11 
L 65.41336 -63.11 
L 65.910798 -63.11 
L 66.408235 -63.11 
L 66.905673 -63.11 
L 67.403111 -63.11 
L 67.900548 -63.11 
L 68.397986 -63.11 
L 68.895423 -63.11 
L 69.392861 -63.11 
L 69.890298 -63.11 
L 70.387736 -63.11 
L 70.885173 -63.11 
L 71.382611 -63.11 
L 71.880048 -63.11 
L 72.377486 -63.11 
L 72.874924 -63.11 
L 73.372361 -63.11 
L 73.869799 -63.11 
L 74.367236 -63.11 
L 74.864674 -63.11 
L 75.362111 -63.11 
L 75.859549 -63.11 
L 76.356986 -63.11 
L 76.854424 -63.11 
L 77.351861 -63.11 
L 77.849299 -63.11 
L 78.346737 -63.11 
L 78.844174 -63.11 
L 79.341612 -63.11 
L 79.839049 -63.11 
L 80.336487 -63.11 
L 80.833924 -63.11 
L 81.331362 -63.11 
L 81.828799 -63.11 
L 82.326237 -63.11 
L 82.823674 -63.11 
L 83.321112 -63.11 
L 83.81855 -63.11 
L 84.315987 -63.11 
L 84.813425 -63.11 
L 85.310862 -63.11 
L 85.8083 -63.11 
L 86.305737 -63.11 
L 86.803175 -63.11 
L 87.300612 -63.11 
L 87.79805 -63.11 
L 88.295488 -63.11 
L 88.792925 -63.11 
L 89.290363 -63.11 
L 89.7878 -63.11 
L 90.285238 -63.11 
L 90.782675 -63.11 
L 91.280113 -63.11 
L 91.77755 -63.11 
L 92.274988 -63.11 
L 92.772425 -63.11 
L 93.269863 -63.11 
L 93.767301 -63.11 
L 94.264738 -63.11 
L 94.762176 -63.11 
L 95.259613 -63.11 
L 95.757051 -63.11 
L 96.254488 -63.11 
L 96.751926 -63.11 
L 97.249363 -63.11 
L 97.746801 -63.11 
L 98.244238 -63.11 
L 98.741676 -63.11 
L 99.239114 -63.11 
L 99.736551 -63.11 
L 100.233989 -63.11 
L 100.731426 -63.11 
L 101.228864 -63.11 
L 101.726301 -63.11 
L 102.223739 -63.11 
L 102.721176 -63.11 
L 103.218614 -63.11 
L 103.716051 -63.11 
L 104.213489 -63.11 
L 104.710927 -63.11 
L 105.208364 -63.11 
L 105.705802 -63.11 
L 106.203239 -63.11 
L 106.700677 -63.11 
L 107.198114 -63.11 
L 107.695552 -63.11 
L 108.192989 -63.11 
L 108.690427 -63.11 
L 109.187864 -63.11 
L 109.685302 -63.11 
L 110.18274 -63.11 
L 110.680177 -63.11 
L 111.177615 -63.11 
L 111.675052 -63.11 
L 112.17249 -63.11 
L 112.669927 -63.11 
L 113.167365 -63.11 
L 113.664802 -63.11 
L 114.16224 -63.11 
L 114.659677 -63.11 
L 115.157115 -63.11 
L 115.654553 -63.11 
L 116.15199 -63.11 
L 116.649428 -63.11 
L 117.146865 -63.11 
L 117.644303 -63.11 
L 118.14174 -63.11 
L 118.639178 -63.11 
L 119.136615 -63.11 
L 119.634053 -63.11 
L 120.131491 -63.11 
L 120.628928 -63.11 
L 121.126366 -63.11 
L 121.623803 -63.11 
L 122.121241 -63.11 
L 122.618678 -63.11 
L 123.116116 -63.11 
L 123.613553 -63.11 
L 124.110991 -63.11 
L 124.608428 -63.11 
L 125.105866 -63.11 
L 125.603304 -63.11 
L 126.100741 -63.11 
L 126.598179 -63.11 
L 127.095616 -63.11 
L 127.593054 -63.11 
L 128.090491 -63.11 
L 128.587929 -63.11 
L 129.085366 -63.11 
L 129.582804 -63.11 
L 130.080241 -63.11 
L 130.577679 -63.11 
L 131.075117 -63.11 
L 131.572554 -63.11 
L 132.069992 -63.11 
L 132.567429 -63.11 
L 133.064867 -63.11 
L 133.562304 -63.11 
L 134.059742 -63.11 
L 134.557179 -63.11 
L 135.054617 -63.11 
L 135.552054 -63.11 
L 136.049492 -63.11 
L 136.54693 -63.11 
L 137.044367 -63.11 
L 137.541805 -63.11 
L 138.039242 -63.11 
L 138.53668 -63.11 
L 139.034117 -63.11 
L 139.531555 -63.11 
L 140.028992 -63.11 
L 140.52643 -63.11 
L 141.023867 -63.11 
L 141.521305 -63.11 
L 142.018743 -63.11 
L 142.51618 -63.11 
L 143.013618 -63.11 
L 143.511055 -63.11 
L 144.008493 -63.11 
L 144.50593 -63.11 
L 145.003368 -63.11 
L 145.500805 -63.11 
L 145.998243 -63.11 
L 146.49568 -63.11 
L 146.993118 -63.11 
L 147.490556 -63.11 
L 147.987993 -63.11 
L 148.485431 -63.11 
L 148.982868 -63.11 
L 149.480306 -63.11 
L 149.977743 -63.11 
L 150.475181 -63.11 
L 150.972618 -63.11 
L 151.470056 -63.11 
L 151.967494 -63.11 
L 152.464931 -63.11 
L 152.962369 -63.11 
L 153.459806 -63.11 
L 153.957244 -63.11 
L 154.454681 -63.11 
L 154.952119 -63.11 
L 155.449556 -63.11 
L 155.946994 -63.11 
L 156.444431 -63.11 
L 156.941869 -63.11 
L 157.439307 -63.11 
L 157.936744 -63.11 
L 158.434182 -63.11 
L 158.931619 -63.11 
L 159.429057 -63.11 
L 159.429057 -64.479841 
L 159.429057 -64.479841 
L 158.931619 -64.638869 
L 158.434182 -64.80936 
L 157.936744 -64.991203 
L 157.439307 -65.184163 
L 156.941869 -65.387882 
L 156.444431 -65.601876 
L 155.946994 -65.825546 
L 155.449556 -66.058183 
L 154.952119 -66.298978 
L 154.454681 -66.54704 
L 153.957244 -66.801415 
L 153.459806 -67.061099 
L 152.962369 -67.325066 
L 152.464931 -67.592287 
L 151.967494 -67.861753 
L 151.470056 -68.132495 
L 150.972618 -68.403606 
L 150.475181 -68.674252 
L 149.977743 -68.943689 
L 149.480306 -69.21127 
L 148.982868 -69.476446 
L 148.485431 -69.738767 
L 147.987993 -69.99787 
L 147.490556 -70.253468 
L 146.993118 -70.505333 
L 146.49568 -70.753266 
L 145.998243 -70.99708 
L 145.500805 -71.236562 
L 145.003368 -71.471451 
L 144.50593 -71.701399 
L 144.008493 -71.925951 
L 143.511055 -72.144519 
L 143.013618 -72.356357 
L 142.51618 -72.560554 
L 142.018743 -72.756025 
L 141.521305 -72.941514 
L 141.023867 -73.115605 
L 140.52643 -73.276741 
L 140.028992 -73.423257 
L 139.531555 -73.55341 
L 139.034117 -73.665431 
L 138.53668 -73.75757 
L 138.039242 -73.828153 
L 137.541805 -73.875639 
L 137.044367 -73.898677 
L 136.54693 -73.896162 
L 136.049492 -73.867287 
L 135.552054 -73.811592 
L 135.054617 -73.728997 
L 134.557179 -73.619835 
L 134.059742 -73.484872 
L 133.562304 -73.325311 
L 133.064867 -73.142789 
L 132.567429 -72.939362 
L 132.069992 -72.717471 
L 131.572554 -72.47991 
L 131.075117 -72.229771 
L 130.577679 -71.970392 
L 130.080241 -71.705287 
L 129.582804 -71.438084 
L 129.085366 -71.172451 
L 128.587929 -70.912024 
L 128.090491 -70.660342 
L 127.593054 -70.420777 
L 127.095616 -70.196478 
L 126.598179 -69.990315 
L 126.100741 -69.804838 
L 125.603304 -69.642238 
L 125.105866 -69.504326 
L 124.608428 -69.392515 
L 124.110991 -69.307815 
L 123.613553 -69.25084 
L 123.116116 -69.221817 
L 122.618678 -69.220608 
L 122.121241 -69.246741 
L 121.623803 -69.299434 
L 121.126366 -69.37764 
L 120.628928 -69.480076 
L 120.131491 -69.605268 
L 119.634053 -69.751583 
L 119.136615 -69.917268 
L 118.639178 -70.100479 
L 118.14174 -70.299313 
L 117.644303 -70.511826 
L 117.146865 -70.736053 
L 116.649428 -70.970026 
L 116.15199 -71.211776 
L 115.654553 -71.459343 
L 115.157115 -71.710772 
L 114.659677 -71.96412 
L 114.16224 -72.217444 
L 113.664802 -72.468803 
L 113.167365 -72.716258 
L 112.669927 -72.957867 
L 112.17249 -73.191689 
L 111.675052 -73.415793 
L 111.177615 -73.628266 
L 110.680177 -73.827227 
L 110.18274 -74.010851 
L 109.685302 -74.177387 
L 109.187864 -74.325188 
L 108.690427 -74.452744 
L 108.192989 -74.558709 
L 107.695552 -74.641935 
L 107.198114 -74.701504 
L 106.700677 -74.736757 
L 106.203239 -74.747316 
L 105.705802 -74.733108 
L 105.208364 -74.694374 
L 104.710927 -74.631674 
L 104.213489 -74.545888 
L 103.716051 -74.4382 
L 103.218614 -74.31008 
L 102.721176 -74.163256 
L 102.223739 -73.999675 
L 101.726301 -73.821465 
L 101.228864 -73.630881 
L 100.731426 -73.43026 
L 100.233989 -73.221961 
L 99.736551 -73.00832 
L 99.239114 -72.79159 
L 98.741676 -72.573899 
L 98.244238 -72.357207 
L 97.746801 -72.143268 
L 97.249363 -71.933608 
L 96.751926 -71.729499 
L 96.254488 -71.531956 
L 95.757051 -71.341734 
L 95.259613 -71.159338 
L 94.762176 -70.985037 
L 94.264738 -70.818896 
L 93.767301 -70.660797 
L 93.269863 -70.510483 
L 92.772425 -70.367587 
L 92.274988 -70.23168 
L 91.77755 -70.102301 
L 91.280113 -69.978997 
L 90.782675 -69.861353 
L 90.285238 -69.749021 
L 89.7878 -69.641735 
L 89.290363 -69.53933 
L 88.792925 -69.441744 
L 88.295488 -69.349015 
L 87.79805 -69.261274 
L 87.300612 -69.178731 
L 86.803175 -69.101647 
L 86.305737 -69.030313 
L 85.8083 -68.965019 
L 85.310862 -68.906024 
L 84.813425 -68.85352 
L 84.315987 -68.807607 
L 83.81855 -68.768261 
L 83.321112 -68.735317 
L 82.823674 -68.708442 
L 82.326237 -68.687131 
L 81.828799 -68.670698 
L 81.331362 -68.65828 
L 80.833924 -68.648844 
L 80.336487 -68.641208 
L 79.839049 -68.63406 
L 79.341612 -68.625987 
L 78.844174 -68.615512 
L 78.346737 -68.601129 
L 77.849299 -68.581339 
L 77.351861 -68.554696 
L 76.854424 -68.519839 
L 76.356986 -68.475536 
L 75.859549 -68.420712 
L 75.362111 -68.354483 
L 74.864674 -68.276176 
L 74.367236 -68.185348 
L 73.869799 -68.081799 
L 73.372361 -67.965574 
L 72.874924 -67.836961 
L 72.377486 -67.696483 
L 71.880048 -67.544882 
L 71.382611 -67.383098 
L 70.885173 -67.212246 
L 70.387736 -67.033583 
L 69.890298 -66.848484 
L 69.392861 -66.6584 
L 68.895423 -66.464835 
L 68.397986 -66.269302 
L 67.900548 -66.073302 
L 67.403111 -65.878288 
L 66.905673 -65.685642 
L 66.408235 -65.496652 
L 65.910798 -65.312491 
L 65.41336 -65.134207 
L 64.915923 -64.962708 
L 64.418485 -64.798755 
L 63.921048 -64.642965 
L 63.42361 -64.495806 
L 62.926173 -64.357605 
L 62.428735 -64.228555 
L 61.931298 -64.10872 
L 61.43386 -63.998051 
L 60.936422 -63.896399 
L 60.438985 -63.803522 
z
" style="stroke: #21918c; stroke-width: 1.25"/>
    </defs>
    <g>
     <use xlink:href="#md47741f5ad" x="0" y="174.26" style="fill: #21918c; fill-opacity: 0.7; stroke: #21918c; stroke-width: 1.25"/>
    </g>
   </g>
   <g id="line2d_7">
    <path d="M 7.2 111.15 
L 216.45 111.15 
" style="fill: none; stroke: #21918c; stroke-opacity: 0.9; stroke-linecap: round"/>
   </g>
   <g id="text_7">
    <!-- 6 -->
    <g style="fill: #21918c" transform="translate(7.2 110.232) scale(0.12 -0.12)">
     <defs>
      <path id="IBMPlexSans-Bold-36" d="M 1946 -77 
Q 1549 -77 1235 48 
Q 922 173 707 406 
Q 493 640 381 966 
Q 269 1293 269 1696 
Q 269 2163 413 2582 
Q 557 3002 784 3357 
Q 1011 3712 1296 3993 
Q 1581 4275 1869 4467 
L 3194 4467 
Q 2784 4173 2457 3907 
Q 2131 3642 1891 3373 
Q 1651 3104 1494 2825 
Q 1338 2547 1274 2227 
L 1331 2208 
Q 1389 2336 1469 2457 
Q 1549 2579 1667 2672 
Q 1786 2765 1946 2822 
Q 2106 2880 2317 2880 
Q 2592 2880 2832 2781 
Q 3072 2682 3248 2502 
Q 3424 2323 3523 2064 
Q 3622 1805 3622 1491 
Q 3622 1146 3504 858 
Q 3386 570 3165 362 
Q 2944 154 2637 38 
Q 2330 -77 1946 -77 
z
M 1946 672 
Q 2266 672 2445 848 
Q 2624 1024 2624 1350 
L 2624 1466 
Q 2624 1792 2445 1968 
Q 2266 2144 1946 2144 
Q 1626 2144 1446 1968 
Q 1267 1792 1267 1466 
L 1267 1350 
Q 1267 1024 1446 848 
Q 1626 672 1946 672 
z
" transform="scale(0.015625)"/>
     </defs>
     <use xlink:href="#IBMPlexSans-Bold-36"/>
    </g>
   </g>
  </g>
  <g id="axes_8">
   <g id="patch_9">
    <path d="M 7.2 121.545 
L 216.45 121.545 
L 216.45 79.965 
L 7.2 79.965 
L 7.2 121.545 
z
" style="fill: none"/>
   </g>
   <g id="matplotlib.axis_15">
    <g id="xtick_36"/>
    <g id="xtick_37"/>
    <g id="xtick_38"/>
    <g id="xtick_39"/>
    <g id="xtick_40"/>
   </g>
   <g id="matplotlib.axis_16"/>
   <g id="FillBetweenPolyCollection_7">
    <defs>
     <path id="mf8d1715258" d="M 76.348458 -52.901229 
L 76.348458 -52.715 
L 76.694855 -52.715 
L 77.041252 -52.715 
L 77.38765 -52.715 
L 77.734047 -52.715 
L 78.080445 -52.715 
L 78.426842 -52.715 
L 78.773239 -52.715 
L 79.119637 -52.715 
L 79.466034 -52.715 
L 79.812432 -52.715 
L 80.158829 -52.715 
L 80.505227 -52.715 
L 80.851624 -52.715 
L 81.198021 -52.715 
L 81.544419 -52.715 
L 81.890816 -52.715 
L 82.237214 -52.715 
L 82.583611 -52.715 
L 82.930009 -52.715 
L 83.276406 -52.715 
L 83.622803 -52.715 
L 83.969201 -52.715 
L 84.315598 -52.715 
L 84.661996 -52.715 
L 85.008393 -52.715 
L 85.354791 -52.715 
L 85.701188 -52.715 
L 86.047585 -52.715 
L 86.393983 -52.715 
L 86.74038 -52.715 
L 87.086778 -52.715 
L 87.433175 -52.715 
L 87.779573 -52.715 
L 88.12597 -52.715 
L 88.472367 -52.715 
L 88.818765 -52.715 
L 89.165162 -52.715 
L 89.51156 -52.715 
L 89.857957 -52.715 
L 90.204354 -52.715 
L 90.550752 -52.715 
L 90.897149 -52.715 
L 91.243547 -52.715 
L 91.589944 -52.715 
L 91.936342 -52.715 
L 92.282739 -52.715 
L 92.629136 -52.715 
L 92.975534 -52.715 
L 93.321931 -52.715 
L 93.668329 -52.715 
L 94.014726 -52.715 
L 94.361124 -52.715 
L 94.707521 -52.715 
L 95.053918 -52.715 
L 95.400316 -52.715 
L 95.746713 -52.715 
L 96.093111 -52.715 
L 96.439508 -52.715 
L 96.785906 -52.715 
L 97.132303 -52.715 
L 97.4787 -52.715 
L 97.825098 -52.715 
L 98.171495 -52.715 
L 98.517893 -52.715 
L 98.86429 -52.715 
L 99.210688 -52.715 
L 99.557085 -52.715 
L 99.903482 -52.715 
L 100.24988 -52.715 
L 100.596277 -52.715 
L 100.942675 -52.715 
L 101.289072 -52.715 
L 101.635469 -52.715 
L 101.981867 -52.715 
L 102.328264 -52.715 
L 102.674662 -52.715 
L 103.021059 -52.715 
L 103.367457 -52.715 
L 103.713854 -52.715 
L 104.060251 -52.715 
L 104.406649 -52.715 
L 104.753046 -52.715 
L 105.099444 -52.715 
L 105.445841 -52.715 
L 105.792239 -52.715 
L 106.138636 -52.715 
L 106.485033 -52.715 
L 106.831431 -52.715 
L 107.177828 -52.715 
L 107.524226 -52.715 
L 107.870623 -52.715 
L 108.217021 -52.715 
L 108.563418 -52.715 
L 108.909815 -52.715 
L 109.256213 -52.715 
L 109.60261 -52.715 
L 109.949008 -52.715 
L 110.295405 -52.715 
L 110.641803 -52.715 
L 110.9882 -52.715 
L 111.334597 -52.715 
L 111.680995 -52.715 
L 112.027392 -52.715 
L 112.37379 -52.715 
L 112.720187 -52.715 
L 113.066584 -52.715 
L 113.412982 -52.715 
L 113.759379 -52.715 
L 114.105777 -52.715 
L 114.452174 -52.715 
L 114.798572 -52.715 
L 115.144969 -52.715 
L 115.491366 -52.715 
L 115.837764 -52.715 
L 116.184161 -52.715 
L 116.530559 -52.715 
L 116.876956 -52.715 
L 117.223354 -52.715 
L 117.569751 -52.715 
L 117.916148 -52.715 
L 118.262546 -52.715 
L 118.608943 -52.715 
L 118.955341 -52.715 
L 119.301738 -52.715 
L 119.648136 -52.715 
L 119.994533 -52.715 
L 120.34093 -52.715 
L 120.687328 -52.715 
L 121.033725 -52.715 
L 121.380123 -52.715 
L 121.72652 -52.715 
L 122.072918 -52.715 
L 122.419315 -52.715 
L 122.765712 -52.715 
L 123.11211 -52.715 
L 123.458507 -52.715 
L 123.804905 -52.715 
L 124.151302 -52.715 
L 124.497699 -52.715 
L 124.844097 -52.715 
L 125.190494 -52.715 
L 125.536892 -52.715 
L 125.883289 -52.715 
L 126.229687 -52.715 
L 126.576084 -52.715 
L 126.922481 -52.715 
L 127.268879 -52.715 
L 127.615276 -52.715 
L 127.961674 -52.715 
L 128.308071 -52.715 
L 128.654469 -52.715 
L 129.000866 -52.715 
L 129.347263 -52.715 
L 129.693661 -52.715 
L 130.040058 -52.715 
L 130.386456 -52.715 
L 130.732853 -52.715 
L 131.079251 -52.715 
L 131.425648 -52.715 
L 131.772045 -52.715 
L 132.118443 -52.715 
L 132.46484 -52.715 
L 132.811238 -52.715 
L 133.157635 -52.715 
L 133.504033 -52.715 
L 133.85043 -52.715 
L 134.196827 -52.715 
L 134.543225 -52.715 
L 134.889622 -52.715 
L 135.23602 -52.715 
L 135.582417 -52.715 
L 135.928814 -52.715 
L 136.275212 -52.715 
L 136.621609 -52.715 
L 136.968007 -52.715 
L 137.314404 -52.715 
L 137.660802 -52.715 
L 138.007199 -52.715 
L 138.353596 -52.715 
L 138.699994 -52.715 
L 139.046391 -52.715 
L 139.392789 -52.715 
L 139.739186 -52.715 
L 140.085584 -52.715 
L 140.431981 -52.715 
L 140.778378 -52.715 
L 141.124776 -52.715 
L 141.471173 -52.715 
L 141.817571 -52.715 
L 142.163968 -52.715 
L 142.510366 -52.715 
L 142.856763 -52.715 
L 143.20316 -52.715 
L 143.549558 -52.715 
L 143.895955 -52.715 
L 144.242353 -52.715 
L 144.58875 -52.715 
L 144.935148 -52.715 
L 145.281545 -52.715 
L 145.281545 -53.043295 
L 145.281545 -53.043295 
L 144.935148 -53.093789 
L 144.58875 -53.150036 
L 144.242353 -53.21241 
L 143.895955 -53.281283 
L 143.549558 -53.357024 
L 143.20316 -53.44 
L 142.856763 -53.530577 
L 142.510366 -53.629119 
L 142.163968 -53.735993 
L 141.817571 -53.851567 
L 141.471173 -53.97621 
L 141.124776 -54.110298 
L 140.778378 -54.254208 
L 140.431981 -54.408318 
L 140.085584 -54.573002 
L 139.739186 -54.748628 
L 139.392789 -54.935547 
L 139.046391 -55.134085 
L 138.699994 -55.34453 
L 138.353596 -55.567119 
L 138.007199 -55.802023 
L 137.660802 -56.049332 
L 137.314404 -56.309039 
L 136.968007 -56.581025 
L 136.621609 -56.865045 
L 136.275212 -57.160722 
L 135.928814 -57.467541 
L 135.582417 -57.784848 
L 135.23602 -58.111855 
L 134.889622 -58.447658 
L 134.543225 -58.791247 
L 134.196827 -59.141539 
L 133.85043 -59.497404 
L 133.504033 -59.857697 
L 133.157635 -60.221299 
L 132.811238 -60.58715 
L 132.46484 -60.954284 
L 132.118443 -61.32186 
L 131.772045 -61.689188 
L 131.425648 -62.055739 
L 131.079251 -62.421157 
L 130.732853 -62.785248 
L 130.386456 -63.147969 
L 130.040058 -63.509393 
L 129.693661 -63.869676 
L 129.347263 -64.229009 
L 129.000866 -64.587564 
L 128.654469 -64.94544 
L 128.308071 -65.302605 
L 127.961674 -65.658849 
L 127.615276 -66.013738 
L 127.268879 -66.366579 
L 126.922481 -66.716401 
L 126.576084 -67.061948 
L 126.229687 -67.401692 
L 125.883289 -67.733855 
L 125.536892 -68.056458 
L 125.190494 -68.367369 
L 124.844097 -68.664376 
L 124.497699 -68.945258 
L 124.151302 -69.207867 
L 123.804905 -69.450209 
L 123.458507 -69.670518 
L 123.11211 -69.86733 
L 122.765712 -70.03954 
L 122.419315 -70.186453 
L 122.072918 -70.307817 
L 121.72652 -70.403839 
L 121.380123 -70.475192 
L 121.033725 -70.523001 
L 120.687328 -70.548812 
L 120.34093 -70.55456 
L 119.994533 -70.542511 
L 119.648136 -70.515207 
L 119.301738 -70.475396 
L 118.955341 -70.425967 
L 118.608943 -70.369866 
L 118.262546 -70.310031 
L 117.916148 -70.249312 
L 117.569751 -70.190402 
L 117.223354 -70.135765 
L 116.876956 -70.087579 
L 116.530559 -70.047675 
L 116.184161 -70.017489 
L 115.837764 -69.998025 
L 115.491366 -69.989822 
L 115.144969 -69.992936 
L 114.798572 -70.006935 
L 114.452174 -70.030908 
L 114.105777 -70.063478 
L 113.759379 -70.102844 
L 113.412982 -70.146822 
L 113.066584 -70.192905 
L 112.720187 -70.238334 
L 112.37379 -70.280176 
L 112.027392 -70.315412 
L 111.680995 -70.341024 
L 111.334597 -70.35409 
L 110.9882 -70.351875 
L 110.641803 -70.331919 
L 110.295405 -70.292113 
L 109.949008 -70.230778 
L 109.60261 -70.146717 
L 109.256213 -70.039267 
L 108.909815 -69.908328 
L 108.563418 -69.754378 
L 108.217021 -69.578475 
L 107.870623 -69.382239 
L 107.524226 -69.167822 
L 107.177828 -68.937863 
L 106.831431 -68.695426 
L 106.485033 -68.443933 
L 106.138636 -68.187081 
L 105.792239 -67.928759 
L 105.445841 -67.67295 
L 105.099444 -67.423636 
L 104.753046 -67.184701 
L 104.406649 -66.959834 
L 104.060251 -66.752436 
L 103.713854 -66.565528 
L 103.367457 -66.401674 
L 103.021059 -66.262905 
L 102.674662 -66.150659 
L 102.328264 -66.065737 
L 101.981867 -66.00826 
L 101.635469 -65.977659 
L 101.289072 -65.972672 
L 100.942675 -65.991354 
L 100.596277 -66.031119 
L 100.24988 -66.088785 
L 99.903482 -66.160644 
L 99.557085 -66.242543 
L 99.210688 -66.329981 
L 98.86429 -66.418217 
L 98.517893 -66.502378 
L 98.171495 -66.577585 
L 97.825098 -66.639066 
L 97.4787 -66.682277 
L 97.132303 -66.703006 
L 96.785906 -66.697475 
L 96.439508 -66.662424 
L 96.093111 -66.59518 
L 95.746713 -66.49371 
L 95.400316 -66.356651 
L 95.053918 -66.183323 
L 94.707521 -65.973726 
L 94.361124 -65.728509 
L 94.014726 -65.448935 
L 93.668329 -65.136825 
L 93.321931 -64.794491 
L 92.975534 -64.42466 
L 92.629136 -64.0304 
L 92.282739 -63.615032 
L 91.936342 -63.182054 
L 91.589944 -62.735056 
L 91.243547 -62.277651 
L 90.897149 -61.813405 
L 90.550752 -61.345779 
L 90.204354 -60.878074 
L 89.857957 -60.41339 
L 89.51156 -59.954593 
L 89.165162 -59.504286 
L 88.818765 -59.064794 
L 88.472367 -58.63815 
L 88.12597 -58.226096 
L 87.779573 -57.830077 
L 87.433175 -57.451253 
L 87.086778 -57.090509 
L 86.74038 -56.748467 
L 86.393983 -56.425501 
L 86.047585 -56.121761 
L 85.701188 -55.837188 
L 85.354791 -55.57154 
L 85.008393 -55.32441 
L 84.661996 -55.095253 
L 84.315598 -54.883403 
L 83.969201 -54.6881 
L 83.622803 -54.50851 
L 83.276406 -54.343745 
L 82.930009 -54.192879 
L 82.583611 -54.054974 
L 82.237214 -53.929087 
L 81.890816 -53.814291 
L 81.544419 -53.709684 
L 81.198021 -53.614402 
L 80.851624 -53.527625 
L 80.505227 -53.448584 
L 80.158829 -53.376569 
L 79.812432 -53.310925 
L 79.466034 -53.251061 
L 79.119637 -53.196442 
L 78.773239 -53.146592 
L 78.426842 -53.101087 
L 78.080445 -53.059554 
L 77.734047 -53.021664 
L 77.38765 -52.987127 
L 77.041252 -52.95569 
L 76.694855 -52.927125 
L 76.348458 -52.901229 
z
" style="stroke: #355f8d; stroke-width: 1.25"/>
    </defs>
    <g>
     <use xlink:href="#mf8d1715258" x="0" y="174.26" style="fill: #355f8d; fill-opacity: 0.7; stroke: #355f8d; stroke-width: 1.25"/>
    </g>
   </g>
   <g id="line2d_8">
    <path d="M 7.2 121.545 
L 216.45 121.545 
" style="fill: none; stroke: #355f8d; stroke-opacity: 0.9; stroke-linecap: round"/>
   </g>
   <g id="text_8">
    <!-- 7 -->
    <g style="fill: #355f8d" transform="translate(7.2 120.627) scale(0.12 -0.12)">
     <defs>
      <path id="IBMPlexSans-Bold-37" d="M 1062 0 
L 2560 3686 
L 1165 3686 
L 1165 2874 
L 352 2874 
L 352 4467 
L 3514 4467 
L 3514 3635 
L 2074 0 
L 1062 0 
z
" transform="scale(0.015625)"/>
     </defs>
     <use xlink:href="#IBMPlexSans-Bold-37"/>
    </g>
   </g>
  </g>
  <g id="axes_9">
   <g id="patch_10">
    <path d="M 7.2 131.94 
L 216.45 131.94 
L 216.45 90.36 
L 7.2 90.36 
L 7.2 131.94 
z
" style="fill: none"/>
   </g>
   <g id="matplotlib.axis_17">
    <g id="xtick_41">
     <g id="text_9">
      <!-- 5.0 -->
      <g style="fill: #838383" transform="translate(8.186548 149.58) scale(0.11 -0.11)">
       <defs>
        <path id="IBMPlexSans-Regular-2212" d="M 429 1734 
L 429 2170 
L 3411 2170 
L 3411 1734 
L 429 1734 
z
" transform="scale(0.015625)"/>
        <path id="IBMPlexSans-Regular-35" d="M 3187 3994 
L 1229 3994 
L 1101 2291 
L 1146 2291 
Q 1306 2515 1507 2649 
Q 1709 2784 2061 2784 
Q 2349 2784 2592 2688 
Q 2835 2592 3014 2416 
Q 3194 2240 3293 1984 
Q 3392 1728 3392 1402 
Q 3392 1075 3289 803 
Q 3187 531 2992 336 
Q 2797 141 2518 32 
Q 2240 -77 1888 -77 
Q 1606 -77 1392 -13 
Q 1178 51 1011 160 
Q 845 269 720 403 
Q 595 538 493 685 
L 896 992 
Q 979 858 1072 749 
Q 1165 640 1277 563 
Q 1389 486 1536 444 
Q 1683 403 1888 403 
Q 2349 403 2585 646 
Q 2822 890 2822 1331 
L 2822 1395 
Q 2822 1837 2585 2080 
Q 2349 2323 1888 2323 
Q 1581 2323 1405 2211 
Q 1229 2099 1088 1946 
L 634 2010 
L 794 4467 
L 3187 4467 
L 3187 3994 
z
" transform="scale(0.015625)"/>
        <path id="IBMPlexSans-Regular-2e" d="M 870 -77 
Q 666 -77 573 25 
Q 480 128 480 294 
L 480 378 
Q 480 544 573 646 
Q 666 749 870 749 
Q 1075 749 1168 646 
Q 1261 544 1261 378 
L 1261 294 
Q 1261 128 1168 25 
Q 1075 -77 870 -77 
z
" transform="scale(0.015625)"/>
        <path id="IBMPlexSans-Regular-30" d="M 1920 -77 
Q 1120 -77 752 531 
Q 384 1139 384 2234 
Q 384 3328 752 3936 
Q 1120 4544 1920 4544 
Q 2720 4544 3088 3936 
Q 3456 3328 3456 2234 
Q 3456 1139 3088 531 
Q 2720 -77 1920 -77 
z
M 1920 390 
Q 2182 390 2368 499 
Q 2554 608 2669 806 
Q 2784 1005 2838 1273 
Q 2893 1542 2893 1869 
L 2893 2598 
Q 2893 2925 2838 3193 
Q 2784 3462 2669 3660 
Q 2554 3859 2368 3968 
Q 2182 4077 1920 4077 
Q 1658 4077 1472 3968 
Q 1286 3859 1171 3660 
Q 1056 3462 1001 3193 
Q 947 2925 947 2598 
L 947 1869 
Q 947 1542 1001 1273 
Q 1056 1005 1171 806 
Q 1286 608 1472 499 
Q 1658 390 1920 390 
z
" transform="scale(0.015625)"/>
       </defs>
       <use xlink:href="#IBMPlexSans-Regular-2212"/>
       <use xlink:href="#IBMPlexSans-Regular-35" transform="translate(59.999985 0)"/>
       <use xlink:href="#IBMPlexSans-Regular-2e" transform="translate(119.999969 0)"/>
       <use xlink:href="#IBMPlexSans-Regular-30" transform="translate(147.199966 0)"/>
      </g>
     </g>
    </g>
    <g id="xtick_42">
     <g id="text_10">
      <!-- 2.5 -->
      <g style="fill: #838383" transform="translate(54.282438 149.58) scale(0.11 -0.11)">
       <defs>
        <path id="IBMPlexSans-Regular-32" d="M 3411 0 
L 480 0 
L 480 550 
L 1939 1894 
Q 2253 2182 2464 2505 
Q 2675 2829 2675 3155 
L 2675 3232 
Q 2675 3603 2470 3833 
Q 2266 4064 1850 4064 
Q 1645 4064 1491 4006 
Q 1338 3949 1226 3846 
Q 1114 3744 1040 3606 
Q 966 3469 922 3309 
L 442 3494 
Q 506 3693 618 3881 
Q 730 4070 899 4217 
Q 1069 4365 1309 4454 
Q 1549 4544 1875 4544 
Q 2202 4544 2458 4448 
Q 2714 4352 2886 4179 
Q 3059 4006 3152 3769 
Q 3245 3533 3245 3245 
Q 3245 2982 3171 2758 
Q 3098 2534 2970 2332 
Q 2842 2131 2659 1939 
Q 2477 1747 2266 1555 
L 1062 474 
L 3411 474 
L 3411 0 
z
" transform="scale(0.015625)"/>
       </defs>
       <use xlink:href="#IBMPlexSans-Regular-2212"/>
       <use xlink:href="#IBMPlexSans-Regular-32" transform="translate(59.999985 0)"/>
       <use xlink:href="#IBMPlexSans-Regular-2e" transform="translate(119.999969 0)"/>
       <use xlink:href="#IBMPlexSans-Regular-35" transform="translate(147.199966 0)"/>
      </g>
     </g>
    </g>
    <g id="xtick_43">
     <g id="text_11">
      <!-- 0.0 -->
      <g style="fill: #838383" transform="translate(103.678327 149.58) scale(0.11 -0.11)">
       <use xlink:href="#IBMPlexSans-Regular-30"/>
       <use xlink:href="#IBMPlexSans-Regular-2e" transform="translate(59.999985 0)"/>
       <use xlink:href="#IBMPlexSans-Regular-30" transform="translate(87.199982 0)"/>
      </g>
     </g>
    </g>
    <g id="xtick_44">
     <g id="text_12">
      <!-- 2.5 -->
      <g style="fill: #838383" transform="translate(149.774216 149.58) scale(0.11 -0.11)">
       <use xlink:href="#IBMPlexSans-Regular-32"/>
       <use xlink:href="#IBMPlexSans-Regular-2e" transform="translate(59.999985 0)"/>
       <use xlink:href="#IBMPlexSans-Regular-35" transform="translate(87.199982 0)"/>
      </g>
     </g>
    </g>
    <g id="xtick_45">
     <g id="text_13">
      <!-- 5.0 -->
      <g style="fill: #838383" transform="translate(195.870105 149.58) scale(0.11 -0.11)">
       <use xlink:href="#IBMPlexSans-Regular-35"/>
       <use xlink:href="#IBMPlexSans-Regular-2e" transform="translate(59.999985 0)"/>
       <use xlink:href="#IBMPlexSans-Regular-30" transform="translate(87.199982 0)"/>
      </g>
     </g>
    </g>
    <g id="text_14">
     <!-- sld -->
     <g style="fill: #262626" transform="translate(103.790625 164.66) scale(0.12 -0.12)">
      <defs>
       <path id="IBMPlexSans-Regular-73" d="M 1536 -77 
Q 1075 -77 764 99 
Q 454 275 230 570 
L 595 864 
Q 787 621 1024 489 
Q 1261 358 1574 358 
Q 1901 358 2083 499 
Q 2266 640 2266 896 
Q 2266 1088 2141 1225 
Q 2016 1363 1690 1414 
L 1427 1453 
Q 1197 1485 1005 1552 
Q 813 1619 669 1731 
Q 525 1843 445 2009 
Q 365 2176 365 2406 
Q 365 2650 454 2832 
Q 544 3014 701 3136 
Q 858 3258 1075 3318 
Q 1293 3379 1542 3379 
Q 1946 3379 2218 3238 
Q 2490 3098 2694 2848 
L 2355 2541 
Q 2246 2694 2035 2819 
Q 1824 2944 1504 2944 
Q 1184 2944 1021 2806 
Q 858 2669 858 2432 
Q 858 2189 1021 2080 
Q 1184 1971 1491 1920 
L 1747 1882 
Q 2298 1798 2528 1564 
Q 2758 1331 2758 954 
Q 2758 474 2432 198 
Q 2106 -77 1536 -77 
z
" transform="scale(0.015625)"/>
       <path id="IBMPlexSans-Regular-6c" d="M 1088 0 
Q 819 0 681 150 
Q 544 301 544 531 
L 544 4736 
L 1056 4736 
L 1056 448 
L 1542 448 
L 1542 0 
L 1088 0 
z
" transform="scale(0.015625)"/>
       <path id="IBMPlexSans-Regular-64" d="M 2656 538 
L 2630 538 
Q 2330 -77 1664 -77 
Q 1357 -77 1107 44 
Q 858 166 682 390 
Q 506 614 413 934 
Q 320 1254 320 1651 
Q 320 2048 413 2368 
Q 506 2688 682 2912 
Q 858 3136 1107 3257 
Q 1357 3379 1664 3379 
Q 2010 3379 2256 3228 
Q 2502 3078 2630 2765 
L 2656 2765 
L 2656 4736 
L 3168 4736 
L 3168 0 
L 2656 0 
L 2656 538 
z
M 1805 384 
Q 1978 384 2134 429 
Q 2291 474 2406 560 
Q 2522 646 2589 771 
Q 2656 896 2656 1056 
L 2656 2285 
Q 2656 2419 2589 2537 
Q 2522 2656 2406 2739 
Q 2291 2822 2134 2870 
Q 1978 2918 1805 2918 
Q 1370 2918 1120 2646 
Q 870 2374 870 1933 
L 870 1370 
Q 870 928 1120 656 
Q 1370 384 1805 384 
z
" transform="scale(0.015625)"/>
      </defs>
      <use xlink:href="#IBMPlexSans-Regular-73"/>
      <use xlink:href="#IBMPlexSans-Regular-6c" transform="translate(48.699997 0)"/>
      <use xlink:href="#IBMPlexSans-Regular-64" transform="translate(75.899994 0)"/>
     </g>
    </g>
   </g>
   <g id="matplotlib.axis_18"/>
   <g id="FillBetweenPolyCollection_8">
    <defs>
     <path id="m733b1d85dc" d="M 89.215572 -43.010972 
L 89.215572 -42.32 
L 89.442426 -42.32 
L 89.669281 -42.32 
L 89.896136 -42.32 
L 90.12299 -42.32 
L 90.349845 -42.32 
L 90.5767 -42.32 
L 90.803555 -42.32 
L 91.030409 -42.32 
L 91.257264 -42.32 
L 91.484119 -42.32 
L 91.710974 -42.32 
L 91.937828 -42.32 
L 92.164683 -42.32 
L 92.391538 -42.32 
L 92.618392 -42.32 
L 92.845247 -42.32 
L 93.072102 -42.32 
L 93.298957 -42.32 
L 93.525811 -42.32 
L 93.752666 -42.32 
L 93.979521 -42.32 
L 94.206376 -42.32 
L 94.43323 -42.32 
L 94.660085 -42.32 
L 94.88694 -42.32 
L 95.113794 -42.32 
L 95.340649 -42.32 
L 95.567504 -42.32 
L 95.794359 -42.32 
L 96.021213 -42.32 
L 96.248068 -42.32 
L 96.474923 -42.32 
L 96.701778 -42.32 
L 96.928632 -42.32 
L 97.155487 -42.32 
L 97.382342 -42.32 
L 97.609196 -42.32 
L 97.836051 -42.32 
L 98.062906 -42.32 
L 98.289761 -42.32 
L 98.516615 -42.32 
L 98.74347 -42.32 
L 98.970325 -42.32 
L 99.19718 -42.32 
L 99.424034 -42.32 
L 99.650889 -42.32 
L 99.877744 -42.32 
L 100.104598 -42.32 
L 100.331453 -42.32 
L 100.558308 -42.32 
L 100.785163 -42.32 
L 101.012017 -42.32 
L 101.238872 -42.32 
L 101.465727 -42.32 
L 101.692582 -42.32 
L 101.919436 -42.32 
L 102.146291 -42.32 
L 102.373146 -42.32 
L 102.6 -42.32 
L 102.826855 -42.32 
L 103.05371 -42.32 
L 103.280565 -42.32 
L 103.507419 -42.32 
L 103.734274 -42.32 
L 103.961129 -42.32 
L 104.187984 -42.32 
L 104.414838 -42.32 
L 104.641693 -42.32 
L 104.868548 -42.32 
L 105.095402 -42.32 
L 105.322257 -42.32 
L 105.549112 -42.32 
L 105.775967 -42.32 
L 106.002821 -42.32 
L 106.229676 -42.32 
L 106.456531 -42.32 
L 106.683386 -42.32 
L 106.91024 -42.32 
L 107.137095 -42.32 
L 107.36395 -42.32 
L 107.590805 -42.32 
L 107.817659 -42.32 
L 108.044514 -42.32 
L 108.271369 -42.32 
L 108.498223 -42.32 
L 108.725078 -42.32 
L 108.951933 -42.32 
L 109.178788 -42.32 
L 109.405642 -42.32 
L 109.632497 -42.32 
L 109.859352 -42.32 
L 110.086207 -42.32 
L 110.313061 -42.32 
L 110.539916 -42.32 
L 110.766771 -42.32 
L 110.993625 -42.32 
L 111.22048 -42.32 
L 111.447335 -42.32 
L 111.67419 -42.32 
L 111.901044 -42.32 
L 112.127899 -42.32 
L 112.354754 -42.32 
L 112.581609 -42.32 
L 112.808463 -42.32 
L 113.035318 -42.32 
L 113.262173 -42.32 
L 113.489027 -42.32 
L 113.715882 -42.32 
L 113.942737 -42.32 
L 114.169592 -42.32 
L 114.396446 -42.32 
L 114.623301 -42.32 
L 114.850156 -42.32 
L 115.077011 -42.32 
L 115.303865 -42.32 
L 115.53072 -42.32 
L 115.757575 -42.32 
L 115.984429 -42.32 
L 116.211284 -42.32 
L 116.438139 -42.32 
L 116.664994 -42.32 
L 116.891848 -42.32 
L 117.118703 -42.32 
L 117.345558 -42.32 
L 117.572413 -42.32 
L 117.799267 -42.32 
L 118.026122 -42.32 
L 118.252977 -42.32 
L 118.479831 -42.32 
L 118.706686 -42.32 
L 118.933541 -42.32 
L 119.160396 -42.32 
L 119.38725 -42.32 
L 119.614105 -42.32 
L 119.84096 -42.32 
L 120.067815 -42.32 
L 120.294669 -42.32 
L 120.521524 -42.32 
L 120.748379 -42.32 
L 120.975233 -42.32 
L 121.202088 -42.32 
L 121.428943 -42.32 
L 121.655798 -42.32 
L 121.882652 -42.32 
L 122.109507 -42.32 
L 122.336362 -42.32 
L 122.563217 -42.32 
L 122.790071 -42.32 
L 123.016926 -42.32 
L 123.243781 -42.32 
L 123.470635 -42.32 
L 123.69749 -42.32 
L 123.924345 -42.32 
L 124.1512 -42.32 
L 124.378054 -42.32 
L 124.604909 -42.32 
L 124.831764 -42.32 
L 125.058619 -42.32 
L 125.285473 -42.32 
L 125.512328 -42.32 
L 125.739183 -42.32 
L 125.966037 -42.32 
L 126.192892 -42.32 
L 126.419747 -42.32 
L 126.646602 -42.32 
L 126.873456 -42.32 
L 127.100311 -42.32 
L 127.327166 -42.32 
L 127.554021 -42.32 
L 127.780875 -42.32 
L 128.00773 -42.32 
L 128.234585 -42.32 
L 128.461439 -42.32 
L 128.688294 -42.32 
L 128.915149 -42.32 
L 129.142004 -42.32 
L 129.368858 -42.32 
L 129.595713 -42.32 
L 129.822568 -42.32 
L 130.049423 -42.32 
L 130.276277 -42.32 
L 130.503132 -42.32 
L 130.729987 -42.32 
L 130.956841 -42.32 
L 131.183696 -42.32 
L 131.410551 -42.32 
L 131.637406 -42.32 
L 131.86426 -42.32 
L 132.091115 -42.32 
L 132.31797 -42.32 
L 132.544825 -42.32 
L 132.771679 -42.32 
L 132.998534 -42.32 
L 133.225389 -42.32 
L 133.452243 -42.32 
L 133.679098 -42.32 
L 133.905953 -42.32 
L 134.132808 -42.32 
L 134.359662 -42.32 
L 134.359662 -42.728592 
L 134.359662 -42.728592 
L 134.132808 -42.78188 
L 133.905953 -42.837975 
L 133.679098 -42.89645 
L 133.452243 -42.956842 
L 133.225389 -43.01869 
L 132.998534 -43.081556 
L 132.771679 -43.145058 
L 132.544825 -43.208901 
L 132.31797 -43.272901 
L 132.091115 -43.337008 
L 131.86426 -43.40132 
L 131.637406 -43.466094 
L 131.410551 -43.531743 
L 131.183696 -43.598832 
L 130.956841 -43.668063 
L 130.729987 -43.740256 
L 130.503132 -43.816327 
L 130.276277 -43.897257 
L 130.049423 -43.984076 
L 129.822568 -44.077828 
L 129.595713 -44.179557 
L 129.368858 -44.290285 
L 129.142004 -44.410997 
L 128.915149 -44.542633 
L 128.688294 -44.68608 
L 128.461439 -44.842159 
L 128.234585 -45.011628 
L 128.00773 -45.195163 
L 127.780875 -45.393356 
L 127.554021 -45.60669 
L 127.327166 -45.835525 
L 127.100311 -46.080067 
L 126.873456 -46.340344 
L 126.646602 -46.616169 
L 126.419747 -46.907111 
L 126.192892 -47.212466 
L 125.966037 -47.531235 
L 125.739183 -47.862104 
L 125.512328 -48.20345 
L 125.285473 -48.553344 
L 125.058619 -48.909585 
L 124.831764 -49.26974 
L 124.604909 -49.631206 
L 124.378054 -49.99129 
L 124.1512 -50.347298 
L 123.924345 -50.696641 
L 123.69749 -51.036946 
L 123.470635 -51.366166 
L 123.243781 -51.682702 
L 123.016926 -51.985501 
L 122.790071 -52.274155 
L 122.563217 -52.548975 
L 122.336362 -52.811046 
L 122.109507 -53.062248 
L 121.882652 -53.305256 
L 121.655798 -53.543498 
L 121.428943 -53.781084 
L 121.202088 -54.022701 
L 120.975233 -54.273479 
L 120.748379 -54.538829 
L 120.521524 -54.824269 
L 120.294669 -55.135234 
L 120.067815 -55.476882 
L 119.84096 -55.853915 
L 119.614105 -56.27041 
L 119.38725 -56.729672 
L 119.160396 -57.234127 
L 118.933541 -57.785244 
L 118.706686 -58.383495 
L 118.479831 -59.028362 
L 118.252977 -59.718371 
L 118.026122 -60.451172 
L 117.799267 -61.223636 
L 117.572413 -62.031983 
L 117.345558 -62.871912 
L 117.118703 -63.73875 
L 116.891848 -64.627586 
L 116.664994 -65.533405 
L 116.438139 -66.451204 
L 116.211284 -67.376086 
L 115.984429 -68.303334 
L 115.757575 -69.228468 
L 115.53072 -70.147265 
L 115.303865 -71.055768 
L 115.077011 -71.950274 
L 114.850156 -72.827298 
L 114.623301 -73.683536 
L 114.396446 -74.515809 
L 114.169592 -75.32101 
L 113.942737 -76.096048 
L 113.715882 -76.837798 
L 113.489027 -77.54306 
L 113.262173 -78.208535 
L 113.035318 -78.830806 
L 112.808463 -79.406354 
L 112.581609 -79.931579 
L 112.354754 -80.402852 
L 112.127899 -80.816583 
L 111.901044 -81.169311 
L 111.67419 -81.457811 
L 111.447335 -81.679207 
L 111.22048 -81.831105 
L 110.993625 -81.91172 
L 110.766771 -81.92 
L 110.539916 -81.855739 
L 110.313061 -81.719676 
L 110.086207 -81.513564 
L 109.859352 -81.240207 
L 109.632497 -80.903469 
L 109.405642 -80.50823 
L 109.178788 -80.060306 
L 108.951933 -79.566328 
L 108.725078 -79.033577 
L 108.498223 -78.469778 
L 108.271369 -77.882879 
L 108.044514 -77.280794 
L 107.817659 -76.67115 
L 107.590805 -76.06103 
L 107.36395 -75.456737 
L 107.137095 -74.863587 
L 106.91024 -74.285743 
L 106.683386 -73.726096 
L 106.456531 -73.186209 
L 106.229676 -72.666323 
L 106.002821 -72.165417 
L 105.775967 -71.681336 
L 105.549112 -71.210959 
L 105.322257 -70.750418 
L 105.095402 -70.295336 
L 104.868548 -69.841082 
L 104.641693 -69.383024 
L 104.414838 -68.916768 
L 104.187984 -68.438363 
L 103.961129 -67.944479 
L 103.734274 -67.432531 
L 103.507419 -66.900755 
L 103.280565 -66.348243 
L 103.05371 -65.774927 
L 102.826855 -65.18152 
L 102.6 -64.569434 
L 102.373146 -63.940667 
L 102.146291 -63.297679 
L 101.919436 -62.643267 
L 101.692582 -61.980438 
L 101.465727 -61.312294 
L 101.238872 -60.641936 
L 101.012017 -59.972378 
L 100.785163 -59.306483 
L 100.558308 -58.646924 
L 100.331453 -57.996148 
L 100.104598 -57.356368 
L 99.877744 -56.729551 
L 99.650889 -56.117429 
L 99.424034 -55.521499 
L 99.19718 -54.943039 
L 98.970325 -54.383113 
L 98.74347 -53.842583 
L 98.516615 -53.322115 
L 98.289761 -52.822183 
L 98.062906 -52.343077 
L 97.836051 -51.884902 
L 97.609196 -51.447585 
L 97.382342 -51.03088 
L 97.155487 -50.634371 
L 96.928632 -50.257484 
L 96.701778 -49.899491 
L 96.474923 -49.559532 
L 96.248068 -49.236622 
L 96.021213 -48.92967 
L 95.794359 -48.637503 
L 95.567504 -48.358882 
L 95.340649 -48.092528 
L 95.113794 -47.837142 
L 94.88694 -47.591437 
L 94.660085 -47.354155 
L 94.43323 -47.124097 
L 94.206376 -46.900148 
L 93.979521 -46.681296 
L 93.752666 -46.466659 
L 93.525811 -46.2555 
L 93.298957 -46.047243 
L 93.072102 -45.841483 
L 92.845247 -45.637997 
L 92.618392 -45.436735 
L 92.391538 -45.237826 
L 92.164683 -45.041556 
L 91.937828 -44.84836 
L 91.710974 -44.658796 
L 91.484119 -44.473522 
L 91.257264 -44.293261 
L 91.030409 -44.118777 
L 90.803555 -43.950838 
L 90.5767 -43.790187 
L 90.349845 -43.63751 
L 90.12299 -43.493414 
L 89.896136 -43.3584 
L 89.669281 -43.232846 
L 89.442426 -43.117001 
L 89.215572 -43.010972 
z
" style="stroke: #482475; stroke-width: 1.25"/>
    </defs>
    <g>
     <use xlink:href="#m733b1d85dc" x="0" y="174.26" style="fill: #482475; fill-opacity: 0.7; stroke: #482475; stroke-width: 1.25"/>
    </g>
   </g>
   <g id="line2d_9">
    <path d="M 7.2 131.94 
L 216.45 131.94 
" style="fill: none; stroke: #482475; stroke-opacity: 0.9; stroke-linecap: round"/>
   </g>
   <g id="text_15">
    <!-- 8 -->
    <g style="fill: #482475" transform="translate(7.2 131.022) scale(0.12 -0.12)">
     <defs>
      <path id="IBMPlexSans-Bold-38" d="M 1920 -77 
Q 1523 -77 1212 22 
Q 902 122 691 294 
Q 480 467 368 704 
Q 256 941 256 1222 
Q 256 1651 493 1923 
Q 730 2195 1133 2304 
L 1133 2355 
Q 806 2477 598 2726 
Q 390 2976 390 3366 
Q 390 3622 489 3840 
Q 589 4058 784 4214 
Q 979 4371 1264 4457 
Q 1549 4544 1920 4544 
Q 2291 4544 2576 4457 
Q 2861 4371 3056 4214 
Q 3251 4058 3350 3840 
Q 3450 3622 3450 3366 
Q 3450 2976 3242 2726 
Q 3034 2477 2707 2355 
L 2707 2304 
Q 3110 2195 3347 1923 
Q 3584 1651 3584 1222 
Q 3584 941 3472 704 
Q 3360 467 3149 294 
Q 2938 122 2627 22 
Q 2317 -77 1920 -77 
z
M 1920 659 
Q 2240 659 2409 809 
Q 2579 960 2579 1229 
L 2579 1357 
Q 2579 1626 2409 1776 
Q 2240 1926 1920 1926 
Q 1600 1926 1430 1776 
Q 1261 1626 1261 1357 
L 1261 1229 
Q 1261 960 1430 809 
Q 1600 659 1920 659 
z
M 1920 2630 
Q 2227 2630 2387 2774 
Q 2547 2918 2547 3168 
L 2547 3270 
Q 2547 3520 2387 3664 
Q 2227 3808 1920 3808 
Q 1613 3808 1453 3664 
Q 1293 3520 1293 3270 
L 1293 3168 
Q 1293 2918 1453 2774 
Q 1613 2630 1920 2630 
z
" transform="scale(0.015625)"/>
     </defs>
     <use xlink:href="#IBMPlexSans-Bold-38"/>
    </g>
   </g>
  </g>
 </g>
</svg>
