<?xml version="1.0" encoding="utf-8" standalone="no"?>
<!DOCTYPE svg PUBLIC "-//W3C//DTD SVG 1.1//EN"
  "http://www.w3.org/Graphics/SVG/1.1/DTD/svg11.dtd">
<svg xmlns:xlink="http://www.w3.org/1999/xlink" width="751.679938pt" height="312.30825pt" viewBox="0 0 751.679938 312.30825" xmlns="http://www.w3.org/2000/svg" version="1.1">
 <metadata>
  <rdf:RDF xmlns:dc="http://purl.org/dc/elements/1.1/" xmlns:cc="http://creativecommons.org/ns#" xmlns:rdf="http://www.w3.org/1999/02/22-rdf-syntax-ns#">
   <cc:Work>
    <dc:type rdf:resource="http://purl.org/dc/dcmitype/StillImage"/>
    <dc:date>2023-07-10T07:56:34.690972</dc:date>
    <dc:format>image/svg+xml</dc:format>
    <dc:creator>
     <cc:Agent>
      <dc:title>Matplotlib v3.7.1, https://matplotlib.org/</dc:title>
     </cc:Agent>
    </dc:creator>
   </cc:Work>
  </rdf:RDF>
 </metadata>
 <defs>
  <style type="text/css">*{stroke-linejoin: round; stroke-linecap: butt}</style>
 </defs>
 <g id="figure_1">
  <g id="patch_1">
   <path d="M 0 312.30825 
L 751.679938 312.30825 
L 751.679938 0 
L 0 0 
L 0 312.30825 
z
" style="fill: none"/>
  </g>
  <g id="axes_1">
   <g id="patch_2">
    <path d="M 50.14375 288.430125 
L 742.06375 288.430125 
L 742.06375 22.318125 
L 50.14375 22.318125 
L 50.14375 288.430125 
z
" style="fill: none"/>
   </g>
   <g id="matplotlib.axis_1">
    <g id="xtick_1">
     <g id="line2d_1">
      <path d="M 80.398807 288.430125 
L 80.398807 22.318125 
" clip-path="url(#p0231e226f9)" style="fill: none; stroke-dasharray: 1.85,0.8; stroke-dashoffset: 0; stroke: #666666; stroke-opacity: 0.4; stroke-width: 0.5"/>
     </g>
     <g id="line2d_2">
      <defs>
       <path id="m707cb84075" d="M 0 0 
L 0 3.5 
" style="stroke: #000000; stroke-opacity: 0; stroke-width: 0.8"/>
      </defs>
      <g>
       <use xlink:href="#m707cb84075" x="80.398807" y="288.430125" style="fill-opacity: 0; stroke: #000000; stroke-opacity: 0; stroke-width: 0.8"/>
      </g>
     </g>
     <g id="text_1">
      <!-- 0 -->
      <g style="fill: #666666" transform="translate(77.217557 303.028562) scale(0.1 -0.1)">
       <defs>
        <path id="DejaVuSans-30" d="M 2034 4250 
Q 1547 4250 1301 3770 
Q 1056 3291 1056 2328 
Q 1056 1369 1301 889 
Q 1547 409 2034 409 
Q 2525 409 2770 889 
Q 3016 1369 3016 2328 
Q 3016 3291 2770 3770 
Q 2525 4250 2034 4250 
z
M 2034 4750 
Q 2819 4750 3233 4129 
Q 3647 3509 3647 2328 
Q 3647 1150 3233 529 
Q 2819 -91 2034 -91 
Q 1250 -91 836 529 
Q 422 1150 422 2328 
Q 422 3509 836 4129 
Q 1250 4750 2034 4750 
z
" transform="scale(0.015625)"/>
       </defs>
       <use xlink:href="#DejaVuSans-30"/>
      </g>
     </g>
    </g>
    <g id="xtick_2">
     <g id="line2d_3">
      <path d="M 211.942533 288.430125 
L 211.942533 22.318125 
" clip-path="url(#p0231e226f9)" style="fill: none; stroke-dasharray: 1.85,0.8; stroke-dashoffset: 0; stroke: #666666; stroke-opacity: 0.4; stroke-width: 0.5"/>
     </g>
     <g id="line2d_4">
      <g>
       <use xlink:href="#m707cb84075" x="211.942533" y="288.430125" style="fill-opacity: 0; stroke: #000000; stroke-opacity: 0; stroke-width: 0.8"/>
      </g>
     </g>
     <g id="text_2">
      <!-- 5 -->
      <g style="fill: #666666" transform="translate(208.761283 303.028562) scale(0.1 -0.1)">
       <defs>
        <path id="DejaVuSans-35" d="M 691 4666 
L 3169 4666 
L 3169 4134 
L 1269 4134 
L 1269 2991 
Q 1406 3038 1543 3061 
Q 1681 3084 1819 3084 
Q 2600 3084 3056 2656 
Q 3513 2228 3513 1497 
Q 3513 744 3044 326 
Q 2575 -91 1722 -91 
Q 1428 -91 1123 -41 
Q 819 9 494 109 
L 494 744 
Q 775 591 1075 516 
Q 1375 441 1709 441 
Q 2250 441 2565 725 
Q 2881 1009 2881 1497 
Q 2881 1984 2565 2268 
Q 2250 2553 1709 2553 
Q 1456 2553 1204 2497 
Q 953 2441 691 2322 
L 691 4666 
z
" transform="scale(0.015625)"/>
       </defs>
       <use xlink:href="#DejaVuSans-35"/>
      </g>
     </g>
    </g>
    <g id="xtick_3">
     <g id="line2d_5">
      <path d="M 343.48626 288.430125 
L 343.48626 22.318125 
" clip-path="url(#p0231e226f9)" style="fill: none; stroke-dasharray: 1.85,0.8; stroke-dashoffset: 0; stroke: #666666; stroke-opacity: 0.4; stroke-width: 0.5"/>
     </g>
     <g id="line2d_6">
      <g>
       <use xlink:href="#m707cb84075" x="343.48626" y="288.430125" style="fill-opacity: 0; stroke: #000000; stroke-opacity: 0; stroke-width: 0.8"/>
      </g>
     </g>
     <g id="text_3">
      <!-- 10 -->
      <g style="fill: #666666" transform="translate(337.12376 303.028562) scale(0.1 -0.1)">
       <defs>
        <path id="DejaVuSans-31" d="M 794 531 
L 1825 531 
L 1825 4091 
L 703 3866 
L 703 4441 
L 1819 4666 
L 2450 4666 
L 2450 531 
L 3481 531 
L 3481 0 
L 794 0 
L 794 531 
z
" transform="scale(0.015625)"/>
       </defs>
       <use xlink:href="#DejaVuSans-31"/>
       <use xlink:href="#DejaVuSans-30" x="63.623047"/>
      </g>
     </g>
    </g>
    <g id="xtick_4">
     <g id="line2d_7">
      <path d="M 475.029986 288.430125 
L 475.029986 22.318125 
" clip-path="url(#p0231e226f9)" style="fill: none; stroke-dasharray: 1.85,0.8; stroke-dashoffset: 0; stroke: #666666; stroke-opacity: 0.4; stroke-width: 0.5"/>
     </g>
     <g id="line2d_8">
      <g>
       <use xlink:href="#m707cb84075" x="475.029986" y="288.430125" style="fill-opacity: 0; stroke: #000000; stroke-opacity: 0; stroke-width: 0.8"/>
      </g>
     </g>
     <g id="text_4">
      <!-- 15 -->
      <g style="fill: #666666" transform="translate(468.667486 303.028562) scale(0.1 -0.1)">
       <use xlink:href="#DejaVuSans-31"/>
       <use xlink:href="#DejaVuSans-35" x="63.623047"/>
      </g>
     </g>
    </g>
    <g id="xtick_5">
     <g id="line2d_9">
      <path d="M 606.573712 288.430125 
L 606.573712 22.318125 
" clip-path="url(#p0231e226f9)" style="fill: none; stroke-dasharray: 1.85,0.8; stroke-dashoffset: 0; stroke: #666666; stroke-opacity: 0.4; stroke-width: 0.5"/>
     </g>
     <g id="line2d_10">
      <g>
       <use xlink:href="#m707cb84075" x="606.573712" y="288.430125" style="fill-opacity: 0; stroke: #000000; stroke-opacity: 0; stroke-width: 0.8"/>
      </g>
     </g>
     <g id="text_5">
      <!-- 20 -->
      <g style="fill: #666666" transform="translate(600.211212 303.028562) scale(0.1 -0.1)">
       <defs>
        <path id="DejaVuSans-32" d="M 1228 531 
L 3431 531 
L 3431 0 
L 469 0 
L 469 531 
Q 828 903 1448 1529 
Q 2069 2156 2228 2338 
Q 2531 2678 2651 2914 
Q 2772 3150 2772 3378 
Q 2772 3750 2511 3984 
Q 2250 4219 1831 4219 
Q 1534 4219 1204 4116 
Q 875 4013 500 3803 
L 500 4441 
Q 881 4594 1212 4672 
Q 1544 4750 1819 4750 
Q 2544 4750 2975 4387 
Q 3406 4025 3406 3419 
Q 3406 3131 3298 2873 
Q 3191 2616 2906 2266 
Q 2828 2175 2409 1742 
Q 1991 1309 1228 531 
z
" transform="scale(0.015625)"/>
       </defs>
       <use xlink:href="#DejaVuSans-32"/>
       <use xlink:href="#DejaVuSans-30" x="63.623047"/>
      </g>
     </g>
    </g>
    <g id="xtick_6">
     <g id="line2d_11">
      <path d="M 738.117438 288.430125 
L 738.117438 22.318125 
" clip-path="url(#p0231e226f9)" style="fill: none; stroke-dasharray: 1.85,0.8; stroke-dashoffset: 0; stroke: #666666; stroke-opacity: 0.4; stroke-width: 0.5"/>
     </g>
     <g id="line2d_12">
      <g>
       <use xlink:href="#m707cb84075" x="738.117438" y="288.430125" style="fill-opacity: 0; stroke: #000000; stroke-opacity: 0; stroke-width: 0.8"/>
      </g>
     </g>
     <g id="text_6">
      <!-- 25 -->
      <g style="fill: #666666" transform="translate(731.754938 303.028562) scale(0.1 -0.1)">
       <use xlink:href="#DejaVuSans-32"/>
       <use xlink:href="#DejaVuSans-35" x="63.623047"/>
      </g>
     </g>
    </g>
   </g>
   <g id="matplotlib.axis_2">
    <g id="ytick_1">
     <g id="line2d_13">
      <path d="M 50.14375 259.570371 
L 742.06375 259.570371 
" clip-path="url(#p0231e226f9)" style="fill: none; stroke-dasharray: 1.85,0.8; stroke-dashoffset: 0; stroke: #666666; stroke-opacity: 0.4; stroke-width: 0.5"/>
     </g>
     <g id="line2d_14">
      <defs>
       <path id="mbf1969e934" d="M 0 0 
L -3.5 0 
" style="stroke: #000000; stroke-opacity: 0; stroke-width: 0.8"/>
      </defs>
      <g>
       <use xlink:href="#mbf1969e934" x="50.14375" y="259.570371" style="fill-opacity: 0; stroke: #000000; stroke-opacity: 0; stroke-width: 0.8"/>
      </g>
     </g>
     <g id="text_7">
      <!-- 0.05 -->
      <g style="fill: #666666" transform="translate(20.878125 263.36959) scale(0.1 -0.1)">
       <defs>
        <path id="DejaVuSans-2e" d="M 684 794 
L 1344 794 
L 1344 0 
L 684 0 
L 684 794 
z
" transform="scale(0.015625)"/>
       </defs>
       <use xlink:href="#DejaVuSans-30"/>
       <use xlink:href="#DejaVuSans-2e" x="63.623047"/>
       <use xlink:href="#DejaVuSans-30" x="95.410156"/>
       <use xlink:href="#DejaVuSans-35" x="159.033203"/>
      </g>
     </g>
    </g>
    <g id="ytick_2">
     <g id="line2d_15">
      <path d="M 50.14375 222.634075 
L 742.06375 222.634075 
" clip-path="url(#p0231e226f9)" style="fill: none; stroke-dasharray: 1.85,0.8; stroke-dashoffset: 0; stroke: #666666; stroke-opacity: 0.4; stroke-width: 0.5"/>
     </g>
     <g id="line2d_16">
      <g>
       <use xlink:href="#mbf1969e934" x="50.14375" y="222.634075" style="fill-opacity: 0; stroke: #000000; stroke-opacity: 0; stroke-width: 0.8"/>
      </g>
     </g>
     <g id="text_8">
      <!-- 0.10 -->
      <g style="fill: #666666" transform="translate(20.878125 226.433294) scale(0.1 -0.1)">
       <use xlink:href="#DejaVuSans-30"/>
       <use xlink:href="#DejaVuSans-2e" x="63.623047"/>
       <use xlink:href="#DejaVuSans-31" x="95.410156"/>
       <use xlink:href="#DejaVuSans-30" x="159.033203"/>
      </g>
     </g>
    </g>
    <g id="ytick_3">
     <g id="line2d_17">
      <path d="M 50.14375 185.697779 
L 742.06375 185.697779 
" clip-path="url(#p0231e226f9)" style="fill: none; stroke-dasharray: 1.85,0.8; stroke-dashoffset: 0; stroke: #666666; stroke-opacity: 0.4; stroke-width: 0.5"/>
     </g>
     <g id="line2d_18">
      <g>
       <use xlink:href="#mbf1969e934" x="50.14375" y="185.697779" style="fill-opacity: 0; stroke: #000000; stroke-opacity: 0; stroke-width: 0.8"/>
      </g>
     </g>
     <g id="text_9">
      <!-- 0.15 -->
      <g style="fill: #666666" transform="translate(20.878125 189.496998) scale(0.1 -0.1)">
       <use xlink:href="#DejaVuSans-30"/>
       <use xlink:href="#DejaVuSans-2e" x="63.623047"/>
       <use xlink:href="#DejaVuSans-31" x="95.410156"/>
       <use xlink:href="#DejaVuSans-35" x="159.033203"/>
      </g>
     </g>
    </g>
    <g id="ytick_4">
     <g id="line2d_19">
      <path d="M 50.14375 148.761483 
L 742.06375 148.761483 
" clip-path="url(#p0231e226f9)" style="fill: none; stroke-dasharray: 1.85,0.8; stroke-dashoffset: 0; stroke: #666666; stroke-opacity: 0.4; stroke-width: 0.5"/>
     </g>
     <g id="line2d_20">
      <g>
       <use xlink:href="#mbf1969e934" x="50.14375" y="148.761483" style="fill-opacity: 0; stroke: #000000; stroke-opacity: 0; stroke-width: 0.8"/>
      </g>
     </g>
     <g id="text_10">
      <!-- 0.20 -->
      <g style="fill: #666666" transform="translate(20.878125 152.560702) scale(0.1 -0.1)">
       <use xlink:href="#DejaVuSans-30"/>
       <use xlink:href="#DejaVuSans-2e" x="63.623047"/>
       <use xlink:href="#DejaVuSans-32" x="95.410156"/>
       <use xlink:href="#DejaVuSans-30" x="159.033203"/>
      </g>
     </g>
    </g>
    <g id="ytick_5">
     <g id="line2d_21">
      <path d="M 50.14375 111.825187 
L 742.06375 111.825187 
" clip-path="url(#p0231e226f9)" style="fill: none; stroke-dasharray: 1.85,0.8; stroke-dashoffset: 0; stroke: #666666; stroke-opacity: 0.4; stroke-width: 0.5"/>
     </g>
     <g id="line2d_22">
      <g>
       <use xlink:href="#mbf1969e934" x="50.14375" y="111.825187" style="fill-opacity: 0; stroke: #000000; stroke-opacity: 0; stroke-width: 0.8"/>
      </g>
     </g>
     <g id="text_11">
      <!-- 0.25 -->
      <g style="fill: #666666" transform="translate(20.878125 115.624406) scale(0.1 -0.1)">
       <use xlink:href="#DejaVuSans-30"/>
       <use xlink:href="#DejaVuSans-2e" x="63.623047"/>
       <use xlink:href="#DejaVuSans-32" x="95.410156"/>
       <use xlink:href="#DejaVuSans-35" x="159.033203"/>
      </g>
     </g>
    </g>
    <g id="ytick_6">
     <g id="line2d_23">
      <path d="M 50.14375 74.888891 
L 742.06375 74.888891 
" clip-path="url(#p0231e226f9)" style="fill: none; stroke-dasharray: 1.85,0.8; stroke-dashoffset: 0; stroke: #666666; stroke-opacity: 0.4; stroke-width: 0.5"/>
     </g>
     <g id="line2d_24">
      <g>
       <use xlink:href="#mbf1969e934" x="50.14375" y="74.888891" style="fill-opacity: 0; stroke: #000000; stroke-opacity: 0; stroke-width: 0.8"/>
      </g>
     </g>
     <g id="text_12">
      <!-- 0.30 -->
      <g style="fill: #666666" transform="translate(20.878125 78.68811) scale(0.1 -0.1)">
       <defs>
        <path id="DejaVuSans-33" d="M 2597 2516 
Q 3050 2419 3304 2112 
Q 3559 1806 3559 1356 
Q 3559 666 3084 287 
Q 2609 -91 1734 -91 
Q 1441 -91 1130 -33 
Q 819 25 488 141 
L 488 750 
Q 750 597 1062 519 
Q 1375 441 1716 441 
Q 2309 441 2620 675 
Q 2931 909 2931 1356 
Q 2931 1769 2642 2001 
Q 2353 2234 1838 2234 
L 1294 2234 
L 1294 2753 
L 1863 2753 
Q 2328 2753 2575 2939 
Q 2822 3125 2822 3475 
Q 2822 3834 2567 4026 
Q 2313 4219 1838 4219 
Q 1578 4219 1281 4162 
Q 984 4106 628 3988 
L 628 4550 
Q 988 4650 1302 4700 
Q 1616 4750 1894 4750 
Q 2613 4750 3031 4423 
Q 3450 4097 3450 3541 
Q 3450 3153 3228 2886 
Q 3006 2619 2597 2516 
z
" transform="scale(0.015625)"/>
       </defs>
       <use xlink:href="#DejaVuSans-30"/>
       <use xlink:href="#DejaVuSans-2e" x="63.623047"/>
       <use xlink:href="#DejaVuSans-33" x="95.410156"/>
       <use xlink:href="#DejaVuSans-30" x="159.033203"/>
      </g>
     </g>
    </g>
    <g id="ytick_7">
     <g id="line2d_25">
      <path d="M 50.14375 37.952595 
L 742.06375 37.952595 
" clip-path="url(#p0231e226f9)" style="fill: none; stroke-dasharray: 1.85,0.8; stroke-dashoffset: 0; stroke: #666666; stroke-opacity: 0.4; stroke-width: 0.5"/>
     </g>
     <g id="line2d_26">
      <g>
       <use xlink:href="#mbf1969e934" x="50.14375" y="37.952595" style="fill-opacity: 0; stroke: #000000; stroke-opacity: 0; stroke-width: 0.8"/>
      </g>
     </g>
     <g id="text_13">
      <!-- 0.35 -->
      <g style="fill: #666666" transform="translate(20.878125 41.751814) scale(0.1 -0.1)">
       <use xlink:href="#DejaVuSans-30"/>
       <use xlink:href="#DejaVuSans-2e" x="63.623047"/>
       <use xlink:href="#DejaVuSans-33" x="95.410156"/>
       <use xlink:href="#DejaVuSans-35" x="159.033203"/>
      </g>
     </g>
    </g>
    <g id="text_14">
     <!-- plaqs -->
     <g style="fill: #bdbdbd" transform="translate(14.798438 168.780375) rotate(-90) scale(0.1 -0.1)">
      <defs>
       <path id="DejaVuSans-70" d="M 1159 525 
L 1159 -1331 
L 581 -1331 
L 581 3500 
L 1159 3500 
L 1159 2969 
Q 1341 3281 1617 3432 
Q 1894 3584 2278 3584 
Q 2916 3584 3314 3078 
Q 3713 2572 3713 1747 
Q 3713 922 3314 415 
Q 2916 -91 2278 -91 
Q 1894 -91 1617 61 
Q 1341 213 1159 525 
z
M 3116 1747 
Q 3116 2381 2855 2742 
Q 2594 3103 2138 3103 
Q 1681 3103 1420 2742 
Q 1159 2381 1159 1747 
Q 1159 1113 1420 752 
Q 1681 391 2138 391 
Q 2594 391 2855 752 
Q 3116 1113 3116 1747 
z
" transform="scale(0.015625)"/>
       <path id="DejaVuSans-6c" d="M 603 4863 
L 1178 4863 
L 1178 0 
L 603 0 
L 603 4863 
z
" transform="scale(0.015625)"/>
       <path id="DejaVuSans-61" d="M 2194 1759 
Q 1497 1759 1228 1600 
Q 959 1441 959 1056 
Q 959 750 1161 570 
Q 1363 391 1709 391 
Q 2188 391 2477 730 
Q 2766 1069 2766 1631 
L 2766 1759 
L 2194 1759 
z
M 3341 1997 
L 3341 0 
L 2766 0 
L 2766 531 
Q 2569 213 2275 61 
Q 1981 -91 1556 -91 
Q 1019 -91 701 211 
Q 384 513 384 1019 
Q 384 1609 779 1909 
Q 1175 2209 1959 2209 
L 2766 2209 
L 2766 2266 
Q 2766 2663 2505 2880 
Q 2244 3097 1772 3097 
Q 1472 3097 1187 3025 
Q 903 2953 641 2809 
L 641 3341 
Q 956 3463 1253 3523 
Q 1550 3584 1831 3584 
Q 2591 3584 2966 3190 
Q 3341 2797 3341 1997 
z
" transform="scale(0.015625)"/>
       <path id="DejaVuSans-71" d="M 947 1747 
Q 947 1113 1208 752 
Q 1469 391 1925 391 
Q 2381 391 2643 752 
Q 2906 1113 2906 1747 
Q 2906 2381 2643 2742 
Q 2381 3103 1925 3103 
Q 1469 3103 1208 2742 
Q 947 2381 947 1747 
z
M 2906 525 
Q 2725 213 2448 61 
Q 2172 -91 1784 -91 
Q 1150 -91 751 415 
Q 353 922 353 1747 
Q 353 2572 751 3078 
Q 1150 3584 1784 3584 
Q 2172 3584 2448 3432 
Q 2725 3281 2906 2969 
L 2906 3500 
L 3481 3500 
L 3481 -1331 
L 2906 -1331 
L 2906 525 
z
" transform="scale(0.015625)"/>
       <path id="DejaVuSans-73" d="M 2834 3397 
L 2834 2853 
Q 2591 2978 2328 3040 
Q 2066 3103 1784 3103 
Q 1356 3103 1142 2972 
Q 928 2841 928 2578 
Q 928 2378 1081 2264 
Q 1234 2150 1697 2047 
L 1894 2003 
Q 2506 1872 2764 1633 
Q 3022 1394 3022 966 
Q 3022 478 2636 193 
Q 2250 -91 1575 -91 
Q 1294 -91 989 -36 
Q 684 19 347 128 
L 347 722 
Q 666 556 975 473 
Q 1284 391 1588 391 
Q 1994 391 2212 530 
Q 2431 669 2431 922 
Q 2431 1156 2273 1281 
Q 2116 1406 1581 1522 
L 1381 1569 
Q 847 1681 609 1914 
Q 372 2147 372 2553 
Q 372 3047 722 3315 
Q 1072 3584 1716 3584 
Q 2034 3584 2315 3537 
Q 2597 3491 2834 3397 
z
" transform="scale(0.015625)"/>
      </defs>
      <use xlink:href="#DejaVuSans-70"/>
      <use xlink:href="#DejaVuSans-6c" x="63.476562"/>
      <use xlink:href="#DejaVuSans-61" x="91.259766"/>
      <use xlink:href="#DejaVuSans-71" x="152.539062"/>
      <use xlink:href="#DejaVuSans-73" x="216.015625"/>
     </g>
    </g>
   </g>
   <g id="line2d_27">
    <path d="M 80.398807 274.241584 
L 106.707552 251.007636 
L 133.016298 229.151402 
L 159.325043 208.599659 
L 185.633788 191.589604 
L 211.942533 174.806033 
L 238.251279 158.506778 
L 264.560024 145.642136 
L 290.868769 133.606706 
L 317.177514 123.87169 
L 343.48626 113.222969 
L 369.795005 103.493536 
L 396.10375 95.541416 
L 422.412495 88.146708 
L 448.72124 81.453437 
L 475.029986 74.86655 
L 501.338731 68.286573 
L 527.647476 63.03034 
L 553.956221 57.947723 
L 580.264967 52.895702 
L 606.573712 49.300264 
L 632.882457 46.469917 
L 659.191202 43.417791 
L 685.499948 40.446785 
" clip-path="url(#p0231e226f9)" style="fill: none; stroke: #ffa726; stroke-width: 1.5; stroke-linecap: square"/>
    <defs>
     <path id="m2679dd70e4" d="M 0 1.5 
C 0.397805 1.5 0.77937 1.341951 1.06066 1.06066 
C 1.341951 0.77937 1.5 0.397805 1.5 0 
C 1.5 -0.397805 1.341951 -0.77937 1.06066 -1.06066 
C 0.77937 -1.341951 0.397805 -1.5 0 -1.5 
C -0.397805 -1.5 -0.77937 -1.341951 -1.06066 -1.06066 
C -1.341951 -0.77937 -1.5 -0.397805 -1.5 0 
C -1.5 0.397805 -1.341951 0.77937 -1.06066 1.06066 
C -0.77937 1.341951 -0.397805 1.5 0 1.5 
z
" style="stroke: #ffa726"/>
    </defs>
    <g clip-path="url(#p0231e226f9)">
     <use xlink:href="#m2679dd70e4" x="80.398807" y="274.241584" style="fill: #ffa726; stroke: #ffa726"/>
     <use xlink:href="#m2679dd70e4" x="106.707552" y="251.007636" style="fill: #ffa726; stroke: #ffa726"/>
     <use xlink:href="#m2679dd70e4" x="133.016298" y="229.151402" style="fill: #ffa726; stroke: #ffa726"/>
     <use xlink:href="#m2679dd70e4" x="159.325043" y="208.599659" style="fill: #ffa726; stroke: #ffa726"/>
     <use xlink:href="#m2679dd70e4" x="185.633788" y="191.589604" style="fill: #ffa726; stroke: #ffa726"/>
     <use xlink:href="#m2679dd70e4" x="211.942533" y="174.806033" style="fill: #ffa726; stroke: #ffa726"/>
     <use xlink:href="#m2679dd70e4" x="238.251279" y="158.506778" style="fill: #ffa726; stroke: #ffa726"/>
     <use xlink:href="#m2679dd70e4" x="264.560024" y="145.642136" style="fill: #ffa726; stroke: #ffa726"/>
     <use xlink:href="#m2679dd70e4" x="290.868769" y="133.606706" style="fill: #ffa726; stroke: #ffa726"/>
     <use xlink:href="#m2679dd70e4" x="317.177514" y="123.87169" style="fill: #ffa726; stroke: #ffa726"/>
     <use xlink:href="#m2679dd70e4" x="343.48626" y="113.222969" style="fill: #ffa726; stroke: #ffa726"/>
     <use xlink:href="#m2679dd70e4" x="369.795005" y="103.493536" style="fill: #ffa726; stroke: #ffa726"/>
     <use xlink:href="#m2679dd70e4" x="396.10375" y="95.541416" style="fill: #ffa726; stroke: #ffa726"/>
     <use xlink:href="#m2679dd70e4" x="422.412495" y="88.146708" style="fill: #ffa726; stroke: #ffa726"/>
     <use xlink:href="#m2679dd70e4" x="448.72124" y="81.453437" style="fill: #ffa726; stroke: #ffa726"/>
     <use xlink:href="#m2679dd70e4" x="475.029986" y="74.86655" style="fill: #ffa726; stroke: #ffa726"/>
     <use xlink:href="#m2679dd70e4" x="501.338731" y="68.286573" style="fill: #ffa726; stroke: #ffa726"/>
     <use xlink:href="#m2679dd70e4" x="527.647476" y="63.03034" style="fill: #ffa726; stroke: #ffa726"/>
     <use xlink:href="#m2679dd70e4" x="553.956221" y="57.947723" style="fill: #ffa726; stroke: #ffa726"/>
     <use xlink:href="#m2679dd70e4" x="580.264967" y="52.895702" style="fill: #ffa726; stroke: #ffa726"/>
     <use xlink:href="#m2679dd70e4" x="606.573712" y="49.300264" style="fill: #ffa726; stroke: #ffa726"/>
     <use xlink:href="#m2679dd70e4" x="632.882457" y="46.469917" style="fill: #ffa726; stroke: #ffa726"/>
     <use xlink:href="#m2679dd70e4" x="659.191202" y="43.417791" style="fill: #ffa726; stroke: #ffa726"/>
     <use xlink:href="#m2679dd70e4" x="685.499948" y="40.446785" style="fill: #ffa726; stroke: #ffa726"/>
    </g>
   </g>
   <g id="line2d_28">
    <path d="M 80.398807 276.334125 
L 106.707552 254.430608 
L 133.016298 233.79489 
L 159.325043 213.696601 
L 185.633788 196.238406 
L 211.942533 177.374071 
L 238.251279 161.073881 
L 264.560024 148.504582 
L 290.868769 136.475375 
L 317.177514 127.354432 
L 343.48626 115.400213 
L 369.795005 106.329067 
L 396.10375 99.107567 
L 422.412495 91.133893 
L 448.72124 84.122008 
L 475.029986 77.512106 
L 501.338731 73.1319 
L 527.647476 67.90638 
L 553.956221 63.547389 
L 580.264967 57.689051 
L 606.573712 53.103903 
L 632.882457 51.538829 
L 659.191202 47.341129 
L 685.499948 46.250721 
" clip-path="url(#p0231e226f9)" style="fill: none; stroke: #ffa726; stroke-opacity: 0.6; stroke-width: 0.6; stroke-linecap: square"/>
    <defs>
     <path id="mb047805275" d="M 0 1.5 
C 0.397805 1.5 0.77937 1.341951 1.06066 1.06066 
C 1.341951 0.77937 1.5 0.397805 1.5 0 
C 1.5 -0.397805 1.341951 -0.77937 1.06066 -1.06066 
C 0.77937 -1.341951 0.397805 -1.5 0 -1.5 
C -0.397805 -1.5 -0.77937 -1.341951 -1.06066 -1.06066 
C -1.341951 -0.77937 -1.5 -0.397805 -1.5 0 
C -1.5 0.397805 -1.341951 0.77937 -1.06066 1.06066 
C -0.77937 1.341951 -0.397805 1.5 0 1.5 
z
" style="stroke: #ffa726; stroke-opacity: 0.6"/>
    </defs>
    <g clip-path="url(#p0231e226f9)">
     <use xlink:href="#mb047805275" x="80.398807" y="276.334125" style="fill: #ffa726; fill-opacity: 0.6; stroke: #ffa726; stroke-opacity: 0.6"/>
     <use xlink:href="#mb047805275" x="106.707552" y="254.430608" style="fill: #ffa726; fill-opacity: 0.6; stroke: #ffa726; stroke-opacity: 0.6"/>
     <use xlink:href="#mb047805275" x="133.016298" y="233.79489" style="fill: #ffa726; fill-opacity: 0.6; stroke: #ffa726; stroke-opacity: 0.6"/>
     <use xlink:href="#mb047805275" x="159.325043" y="213.696601" style="fill: #ffa726; fill-opacity: 0.6; stroke: #ffa726; stroke-opacity: 0.6"/>
     <use xlink:href="#mb047805275" x="185.633788" y="196.238406" style="fill: #ffa726; fill-opacity: 0.6; stroke: #ffa726; stroke-opacity: 0.6"/>
     <use xlink:href="#mb047805275" x="211.942533" y="177.374071" style="fill: #ffa726; fill-opacity: 0.6; stroke: #ffa726; stroke-opacity: 0.6"/>
     <use xlink:href="#mb047805275" x="238.251279" y="161.073881" style="fill: #ffa726; fill-opacity: 0.6; stroke: #ffa726; stroke-opacity: 0.6"/>
     <use xlink:href="#mb047805275" x="264.560024" y="148.504582" style="fill: #ffa726; fill-opacity: 0.6; stroke: #ffa726; stroke-opacity: 0.6"/>
     <use xlink:href="#mb047805275" x="290.868769" y="136.475375" style="fill: #ffa726; fill-opacity: 0.6; stroke: #ffa726; stroke-opacity: 0.6"/>
     <use xlink:href="#mb047805275" x="317.177514" y="127.354432" style="fill: #ffa726; fill-opacity: 0.6; stroke: #ffa726; stroke-opacity: 0.6"/>
     <use xlink:href="#mb047805275" x="343.48626" y="115.400213" style="fill: #ffa726; fill-opacity: 0.6; stroke: #ffa726; stroke-opacity: 0.6"/>
     <use xlink:href="#mb047805275" x="369.795005" y="106.329067" style="fill: #ffa726; fill-opacity: 0.6; stroke: #ffa726; stroke-opacity: 0.6"/>
     <use xlink:href="#mb047805275" x="396.10375" y="99.107567" style="fill: #ffa726; fill-opacity: 0.6; stroke: #ffa726; stroke-opacity: 0.6"/>
     <use xlink:href="#mb047805275" x="422.412495" y="91.133893" style="fill: #ffa726; fill-opacity: 0.6; stroke: #ffa726; stroke-opacity: 0.6"/>
     <use xlink:href="#mb047805275" x="448.72124" y="84.122008" style="fill: #ffa726; fill-opacity: 0.6; stroke: #ffa726; stroke-opacity: 0.6"/>
     <use xlink:href="#mb047805275" x="475.029986" y="77.512106" style="fill: #ffa726; fill-opacity: 0.6; stroke: #ffa726; stroke-opacity: 0.6"/>
     <use xlink:href="#mb047805275" x="501.338731" y="73.1319" style="fill: #ffa726; fill-opacity: 0.6; stroke: #ffa726; stroke-opacity: 0.6"/>
     <use xlink:href="#mb047805275" x="527.647476" y="67.90638" style="fill: #ffa726; fill-opacity: 0.6; stroke: #ffa726; stroke-opacity: 0.6"/>
     <use xlink:href="#mb047805275" x="553.956221" y="63.547389" style="fill: #ffa726; fill-opacity: 0.6; stroke: #ffa726; stroke-opacity: 0.6"/>
     <use xlink:href="#mb047805275" x="580.264967" y="57.689051" style="fill: #ffa726; fill-opacity: 0.6; stroke: #ffa726; stroke-opacity: 0.6"/>
     <use xlink:href="#mb047805275" x="606.573712" y="53.103903" style="fill: #ffa726; fill-opacity: 0.6; stroke: #ffa726; stroke-opacity: 0.6"/>
     <use xlink:href="#mb047805275" x="632.882457" y="51.538829" style="fill: #ffa726; fill-opacity: 0.6; stroke: #ffa726; stroke-opacity: 0.6"/>
     <use xlink:href="#mb047805275" x="659.191202" y="47.341129" style="fill: #ffa726; fill-opacity: 0.6; stroke: #ffa726; stroke-opacity: 0.6"/>
     <use xlink:href="#mb047805275" x="685.499948" y="46.250721" style="fill: #ffa726; fill-opacity: 0.6; stroke: #ffa726; stroke-opacity: 0.6"/>
    </g>
   </g>
   <g id="line2d_29">
    <path d="M 80.398807 272.214872 
L 106.707552 249.992868 
L 133.016298 226.81147 
L 159.325043 205.114598 
L 185.633788 187.759289 
L 211.942533 171.359737 
L 238.251279 155.069121 
L 264.560024 142.08756 
L 290.868769 129.108502 
L 317.177514 119.234206 
L 343.48626 109.48878 
L 369.795005 97.117014 
L 396.10375 88.387648 
L 422.412495 84.346705 
L 448.72124 78.649941 
L 475.029986 74.034362 
L 501.338731 67.179625 
L 527.647476 62.140878 
L 553.956221 56.885236 
L 580.264967 51.721764 
L 606.573712 49.044687 
L 632.882457 45.369481 
L 659.191202 44.539356 
L 685.499948 44.587331 
" clip-path="url(#p0231e226f9)" style="fill: none; stroke: #ffa726; stroke-opacity: 0.6; stroke-width: 0.6; stroke-linecap: square"/>
    <g clip-path="url(#p0231e226f9)">
     <use xlink:href="#mb047805275" x="80.398807" y="272.214872" style="fill: #ffa726; fill-opacity: 0.6; stroke: #ffa726; stroke-opacity: 0.6"/>
     <use xlink:href="#mb047805275" x="106.707552" y="249.992868" style="fill: #ffa726; fill-opacity: 0.6; stroke: #ffa726; stroke-opacity: 0.6"/>
     <use xlink:href="#mb047805275" x="133.016298" y="226.81147" style="fill: #ffa726; fill-opacity: 0.6; stroke: #ffa726; stroke-opacity: 0.6"/>
     <use xlink:href="#mb047805275" x="159.325043" y="205.114598" style="fill: #ffa726; fill-opacity: 0.6; stroke: #ffa726; stroke-opacity: 0.6"/>
     <use xlink:href="#mb047805275" x="185.633788" y="187.759289" style="fill: #ffa726; fill-opacity: 0.6; stroke: #ffa726; stroke-opacity: 0.6"/>
     <use xlink:href="#mb047805275" x="211.942533" y="171.359737" style="fill: #ffa726; fill-opacity: 0.6; stroke: #ffa726; stroke-opacity: 0.6"/>
     <use xlink:href="#mb047805275" x="238.251279" y="155.069121" style="fill: #ffa726; fill-opacity: 0.6; stroke: #ffa726; stroke-opacity: 0.6"/>
     <use xlink:href="#mb047805275" x="264.560024" y="142.08756" style="fill: #ffa726; fill-opacity: 0.6; stroke: #ffa726; stroke-opacity: 0.6"/>
     <use xlink:href="#mb047805275" x="290.868769" y="129.108502" style="fill: #ffa726; fill-opacity: 0.6; stroke: #ffa726; stroke-opacity: 0.6"/>
     <use xlink:href="#mb047805275" x="317.177514" y="119.234206" style="fill: #ffa726; fill-opacity: 0.6; stroke: #ffa726; stroke-opacity: 0.6"/>
     <use xlink:href="#mb047805275" x="343.48626" y="109.48878" style="fill: #ffa726; fill-opacity: 0.6; stroke: #ffa726; stroke-opacity: 0.6"/>
     <use xlink:href="#mb047805275" x="369.795005" y="97.117014" style="fill: #ffa726; fill-opacity: 0.6; stroke: #ffa726; stroke-opacity: 0.6"/>
     <use xlink:href="#mb047805275" x="396.10375" y="88.387648" style="fill: #ffa726; fill-opacity: 0.6; stroke: #ffa726; stroke-opacity: 0.6"/>
     <use xlink:href="#mb047805275" x="422.412495" y="84.346705" style="fill: #ffa726; fill-opacity: 0.6; stroke: #ffa726; stroke-opacity: 0.6"/>
     <use xlink:href="#mb047805275" x="448.72124" y="78.649941" style="fill: #ffa726; fill-opacity: 0.6; stroke: #ffa726; stroke-opacity: 0.6"/>
     <use xlink:href="#mb047805275" x="475.029986" y="74.034362" style="fill: #ffa726; fill-opacity: 0.6; stroke: #ffa726; stroke-opacity: 0.6"/>
     <use xlink:href="#mb047805275" x="501.338731" y="67.179625" style="fill: #ffa726; fill-opacity: 0.6; stroke: #ffa726; stroke-opacity: 0.6"/>
     <use xlink:href="#mb047805275" x="527.647476" y="62.140878" style="fill: #ffa726; fill-opacity: 0.6; stroke: #ffa726; stroke-opacity: 0.6"/>
     <use xlink:href="#mb047805275" x="553.956221" y="56.885236" style="fill: #ffa726; fill-opacity: 0.6; stroke: #ffa726; stroke-opacity: 0.6"/>
     <use xlink:href="#mb047805275" x="580.264967" y="51.721764" style="fill: #ffa726; fill-opacity: 0.6; stroke: #ffa726; stroke-opacity: 0.6"/>
     <use xlink:href="#mb047805275" x="606.573712" y="49.044687" style="fill: #ffa726; fill-opacity: 0.6; stroke: #ffa726; stroke-opacity: 0.6"/>
     <use xlink:href="#mb047805275" x="632.882457" y="45.369481" style="fill: #ffa726; fill-opacity: 0.6; stroke: #ffa726; stroke-opacity: 0.6"/>
     <use xlink:href="#mb047805275" x="659.191202" y="44.539356" style="fill: #ffa726; fill-opacity: 0.6; stroke: #ffa726; stroke-opacity: 0.6"/>
     <use xlink:href="#mb047805275" x="685.499948" y="44.587331" style="fill: #ffa726; fill-opacity: 0.6; stroke: #ffa726; stroke-opacity: 0.6"/>
    </g>
   </g>
   <g id="line2d_30">
    <path d="M 80.398807 274.961197 
L 106.707552 251.460259 
L 133.016298 228.322448 
L 159.325043 206.606995 
L 185.633788 192.238172 
L 211.942533 177.526454 
L 238.251279 160.69942 
L 264.560024 147.804087 
L 290.868769 137.061125 
L 317.177514 126.730253 
L 343.48626 115.691329 
L 369.795005 105.603737 
L 396.10375 98.145039 
L 422.412495 89.919705 
L 448.72124 82.929366 
L 475.029986 74.393563 
L 501.338731 67.00533 
L 527.647476 61.516624 
L 553.956221 55.955832 
L 580.264967 50.59638 
L 606.573712 46.896813 
L 632.882457 42.461068 
L 659.191202 41.270285 
L 685.499948 34.414125 
" clip-path="url(#p0231e226f9)" style="fill: none; stroke: #ffa726; stroke-opacity: 0.6; stroke-width: 0.6; stroke-linecap: square"/>
    <g clip-path="url(#p0231e226f9)">
     <use xlink:href="#mb047805275" x="80.398807" y="274.961197" style="fill: #ffa726; fill-opacity: 0.6; stroke: #ffa726; stroke-opacity: 0.6"/>
     <use xlink:href="#mb047805275" x="106.707552" y="251.460259" style="fill: #ffa726; fill-opacity: 0.6; stroke: #ffa726; stroke-opacity: 0.6"/>
     <use xlink:href="#mb047805275" x="133.016298" y="228.322448" style="fill: #ffa726; fill-opacity: 0.6; stroke: #ffa726; stroke-opacity: 0.6"/>
     <use xlink:href="#mb047805275" x="159.325043" y="206.606995" style="fill: #ffa726; fill-opacity: 0.6; stroke: #ffa726; stroke-opacity: 0.6"/>
     <use xlink:href="#mb047805275" x="185.633788" y="192.238172" style="fill: #ffa726; fill-opacity: 0.6; stroke: #ffa726; stroke-opacity: 0.6"/>
     <use xlink:href="#mb047805275" x="211.942533" y="177.526454" style="fill: #ffa726; fill-opacity: 0.6; stroke: #ffa726; stroke-opacity: 0.6"/>
     <use xlink:href="#mb047805275" x="238.251279" y="160.69942" style="fill: #ffa726; fill-opacity: 0.6; stroke: #ffa726; stroke-opacity: 0.6"/>
     <use xlink:href="#mb047805275" x="264.560024" y="147.804087" style="fill: #ffa726; fill-opacity: 0.6; stroke: #ffa726; stroke-opacity: 0.6"/>
     <use xlink:href="#mb047805275" x="290.868769" y="137.061125" style="fill: #ffa726; fill-opacity: 0.6; stroke: #ffa726; stroke-opacity: 0.6"/>
     <use xlink:href="#mb047805275" x="317.177514" y="126.730253" style="fill: #ffa726; fill-opacity: 0.6; stroke: #ffa726; stroke-opacity: 0.6"/>
     <use xlink:href="#mb047805275" x="343.48626" y="115.691329" style="fill: #ffa726; fill-opacity: 0.6; stroke: #ffa726; stroke-opacity: 0.6"/>
     <use xlink:href="#mb047805275" x="369.795005" y="105.603737" style="fill: #ffa726; fill-opacity: 0.6; stroke: #ffa726; stroke-opacity: 0.6"/>
     <use xlink:href="#mb047805275" x="396.10375" y="98.145039" style="fill: #ffa726; fill-opacity: 0.6; stroke: #ffa726; stroke-opacity: 0.6"/>
     <use xlink:href="#mb047805275" x="422.412495" y="89.919705" style="fill: #ffa726; fill-opacity: 0.6; stroke: #ffa726; stroke-opacity: 0.6"/>
     <use xlink:href="#mb047805275" x="448.72124" y="82.929366" style="fill: #ffa726; fill-opacity: 0.6; stroke: #ffa726; stroke-opacity: 0.6"/>
     <use xlink:href="#mb047805275" x="475.029986" y="74.393563" style="fill: #ffa726; fill-opacity: 0.6; stroke: #ffa726; stroke-opacity: 0.6"/>
     <use xlink:href="#mb047805275" x="501.338731" y="67.00533" style="fill: #ffa726; fill-opacity: 0.6; stroke: #ffa726; stroke-opacity: 0.6"/>
     <use xlink:href="#mb047805275" x="527.647476" y="61.516624" style="fill: #ffa726; fill-opacity: 0.6; stroke: #ffa726; stroke-opacity: 0.6"/>
     <use xlink:href="#mb047805275" x="553.956221" y="55.955832" style="fill: #ffa726; fill-opacity: 0.6; stroke: #ffa726; stroke-opacity: 0.6"/>
     <use xlink:href="#mb047805275" x="580.264967" y="50.59638" style="fill: #ffa726; fill-opacity: 0.6; stroke: #ffa726; stroke-opacity: 0.6"/>
     <use xlink:href="#mb047805275" x="606.573712" y="46.896813" style="fill: #ffa726; fill-opacity: 0.6; stroke: #ffa726; stroke-opacity: 0.6"/>
     <use xlink:href="#mb047805275" x="632.882457" y="42.461068" style="fill: #ffa726; fill-opacity: 0.6; stroke: #ffa726; stroke-opacity: 0.6"/>
     <use xlink:href="#mb047805275" x="659.191202" y="41.270285" style="fill: #ffa726; fill-opacity: 0.6; stroke: #ffa726; stroke-opacity: 0.6"/>
     <use xlink:href="#mb047805275" x="685.499948" y="34.414125" style="fill: #ffa726; fill-opacity: 0.6; stroke: #ffa726; stroke-opacity: 0.6"/>
    </g>
   </g>
   <g id="line2d_31">
    <path d="M 80.398807 273.456141 
L 106.707552 248.146808 
L 133.016298 227.676801 
L 159.325043 208.980441 
L 185.633788 190.12255 
L 211.942533 172.963871 
L 238.251279 157.18469 
L 264.560024 144.172316 
L 290.868769 131.781823 
L 317.177514 122.167871 
L 343.48626 112.311553 
L 369.795005 104.924328 
L 396.10375 96.525409 
L 422.412495 87.186529 
L 448.72124 80.112432 
L 475.029986 73.526169 
L 501.338731 65.829437 
L 527.647476 60.557479 
L 553.956221 55.402435 
L 580.264967 51.575612 
L 606.573712 48.155653 
L 632.882457 46.51029 
L 659.191202 40.520393 
L 685.499948 36.534961 
" clip-path="url(#p0231e226f9)" style="fill: none; stroke: #ffa726; stroke-opacity: 0.6; stroke-width: 0.6; stroke-linecap: square"/>
    <g clip-path="url(#p0231e226f9)">
     <use xlink:href="#mb047805275" x="80.398807" y="273.456141" style="fill: #ffa726; fill-opacity: 0.6; stroke: #ffa726; stroke-opacity: 0.6"/>
     <use xlink:href="#mb047805275" x="106.707552" y="248.146808" style="fill: #ffa726; fill-opacity: 0.6; stroke: #ffa726; stroke-opacity: 0.6"/>
     <use xlink:href="#mb047805275" x="133.016298" y="227.676801" style="fill: #ffa726; fill-opacity: 0.6; stroke: #ffa726; stroke-opacity: 0.6"/>
     <use xlink:href="#mb047805275" x="159.325043" y="208.980441" style="fill: #ffa726; fill-opacity: 0.6; stroke: #ffa726; stroke-opacity: 0.6"/>
     <use xlink:href="#mb047805275" x="185.633788" y="190.12255" style="fill: #ffa726; fill-opacity: 0.6; stroke: #ffa726; stroke-opacity: 0.6"/>
     <use xlink:href="#mb047805275" x="211.942533" y="172.963871" style="fill: #ffa726; fill-opacity: 0.6; stroke: #ffa726; stroke-opacity: 0.6"/>
     <use xlink:href="#mb047805275" x="238.251279" y="157.18469" style="fill: #ffa726; fill-opacity: 0.6; stroke: #ffa726; stroke-opacity: 0.6"/>
     <use xlink:href="#mb047805275" x="264.560024" y="144.172316" style="fill: #ffa726; fill-opacity: 0.6; stroke: #ffa726; stroke-opacity: 0.6"/>
     <use xlink:href="#mb047805275" x="290.868769" y="131.781823" style="fill: #ffa726; fill-opacity: 0.6; stroke: #ffa726; stroke-opacity: 0.6"/>
     <use xlink:href="#mb047805275" x="317.177514" y="122.167871" style="fill: #ffa726; fill-opacity: 0.6; stroke: #ffa726; stroke-opacity: 0.6"/>
     <use xlink:href="#mb047805275" x="343.48626" y="112.311553" style="fill: #ffa726; fill-opacity: 0.6; stroke: #ffa726; stroke-opacity: 0.6"/>
     <use xlink:href="#mb047805275" x="369.795005" y="104.924328" style="fill: #ffa726; fill-opacity: 0.6; stroke: #ffa726; stroke-opacity: 0.6"/>
     <use xlink:href="#mb047805275" x="396.10375" y="96.525409" style="fill: #ffa726; fill-opacity: 0.6; stroke: #ffa726; stroke-opacity: 0.6"/>
     <use xlink:href="#mb047805275" x="422.412495" y="87.186529" style="fill: #ffa726; fill-opacity: 0.6; stroke: #ffa726; stroke-opacity: 0.6"/>
     <use xlink:href="#mb047805275" x="448.72124" y="80.112432" style="fill: #ffa726; fill-opacity: 0.6; stroke: #ffa726; stroke-opacity: 0.6"/>
     <use xlink:href="#mb047805275" x="475.029986" y="73.526169" style="fill: #ffa726; fill-opacity: 0.6; stroke: #ffa726; stroke-opacity: 0.6"/>
     <use xlink:href="#mb047805275" x="501.338731" y="65.829437" style="fill: #ffa726; fill-opacity: 0.6; stroke: #ffa726; stroke-opacity: 0.6"/>
     <use xlink:href="#mb047805275" x="527.647476" y="60.557479" style="fill: #ffa726; fill-opacity: 0.6; stroke: #ffa726; stroke-opacity: 0.6"/>
     <use xlink:href="#mb047805275" x="553.956221" y="55.402435" style="fill: #ffa726; fill-opacity: 0.6; stroke: #ffa726; stroke-opacity: 0.6"/>
     <use xlink:href="#mb047805275" x="580.264967" y="51.575612" style="fill: #ffa726; fill-opacity: 0.6; stroke: #ffa726; stroke-opacity: 0.6"/>
     <use xlink:href="#mb047805275" x="606.573712" y="48.155653" style="fill: #ffa726; fill-opacity: 0.6; stroke: #ffa726; stroke-opacity: 0.6"/>
     <use xlink:href="#mb047805275" x="632.882457" y="46.51029" style="fill: #ffa726; fill-opacity: 0.6; stroke: #ffa726; stroke-opacity: 0.6"/>
     <use xlink:href="#mb047805275" x="659.191202" y="40.520393" style="fill: #ffa726; fill-opacity: 0.6; stroke: #ffa726; stroke-opacity: 0.6"/>
     <use xlink:href="#mb047805275" x="685.499948" y="36.534961" style="fill: #ffa726; fill-opacity: 0.6; stroke: #ffa726; stroke-opacity: 0.6"/>
    </g>
   </g>
   <g id="patch_3">
    <path d="M 50.14375 288.430125 
L 50.14375 22.318125 
" style="fill: none"/>
   </g>
   <g id="patch_4">
    <path d="M 742.06375 288.430125 
L 742.06375 22.318125 
" style="fill: none"/>
   </g>
   <g id="patch_5">
    <path d="M 50.14375 288.430125 
L 742.06375 288.430125 
" style="fill: none"/>
   </g>
   <g id="patch_6">
    <path d="M 50.14375 22.318125 
L 742.06375 22.318125 
" style="fill: none"/>
   </g>
   <g id="text_15">
    <!-- HMC -->
    <g style="fill: #666666" transform="translate(382.225 16.318125) scale(0.12 -0.12)">
     <defs>
      <path id="DejaVuSans-48" d="M 628 4666 
L 1259 4666 
L 1259 2753 
L 3553 2753 
L 3553 4666 
L 4184 4666 
L 4184 0 
L 3553 0 
L 3553 2222 
L 1259 2222 
L 1259 0 
L 628 0 
L 628 4666 
z
" transform="scale(0.015625)"/>
      <path id="DejaVuSans-4d" d="M 628 4666 
L 1569 4666 
L 2759 1491 
L 3956 4666 
L 4897 4666 
L 4897 0 
L 4281 0 
L 4281 4097 
L 3078 897 
L 2444 897 
L 1241 4097 
L 1241 0 
L 628 0 
L 628 4666 
z
" transform="scale(0.015625)"/>
      <path id="DejaVuSans-43" d="M 4122 4306 
L 4122 3641 
Q 3803 3938 3442 4084 
Q 3081 4231 2675 4231 
Q 1875 4231 1450 3742 
Q 1025 3253 1025 2328 
Q 1025 1406 1450 917 
Q 1875 428 2675 428 
Q 3081 428 3442 575 
Q 3803 722 4122 1019 
L 4122 359 
Q 3791 134 3420 21 
Q 3050 -91 2638 -91 
Q 1578 -91 968 557 
Q 359 1206 359 2328 
Q 359 3453 968 4101 
Q 1578 4750 2638 4750 
Q 3056 4750 3426 4639 
Q 3797 4528 4122 4306 
z
" transform="scale(0.015625)"/>
     </defs>
     <use xlink:href="#DejaVuSans-48"/>
     <use xlink:href="#DejaVuSans-4d" x="75.195312"/>
     <use xlink:href="#DejaVuSans-43" x="161.474609"/>
    </g>
   </g>
  </g>
 </g>
 <defs>
  <clipPath id="p0231e226f9">
   <rect x="50.14375" y="22.318125" width="691.92" height="266.112"/>
  </clipPath>
 </defs>
</svg>
