<?xml version="1.0" encoding="utf-8" standalone="no"?>
<!DOCTYPE svg PUBLIC "-//W3C//DTD SVG 1.1//EN"
  "http://www.w3.org/Graphics/SVG/1.1/DTD/svg11.dtd">
<svg xmlns:xlink="http://www.w3.org/1999/xlink" width="872.39952pt" height="152.406273pt" viewBox="0 0 872.39952 152.406273" xmlns="http://www.w3.org/2000/svg" version="1.1">
 <metadata>
  <rdf:RDF xmlns:dc="http://purl.org/dc/elements/1.1/" xmlns:cc="http://creativecommons.org/ns#" xmlns:rdf="http://www.w3.org/1999/02/22-rdf-syntax-ns#">
   <cc:Work>
    <dc:type rdf:resource="http://purl.org/dc/dcmitype/StillImage"/>
    <dc:format>image/svg+xml</dc:format>
    <dc:creator>
     <cc:Agent>
      <dc:title>Matplotlib, https://matplotlib.org/</dc:title>
     </cc:Agent>
    </dc:creator>
   </cc:Work>
  </rdf:RDF>
 </metadata>
 <defs>
  <style type="text/css">*{stroke-linejoin: round; stroke-linecap: butt}</style>
 </defs>
 <g id="figure_1">
  <g id="patch_1">
   <path d="M 0 152.406273 
L 872.39952 152.406273 
L 872.39952 0 
L 0 0 
L 0 152.406273 
z
" style="fill: none"/>
  </g>
  <g id="axes_1">
   <g id="patch_2">
    <path d="M 7.2 128.528148 
L 865.19952 128.528148 
L 865.19952 20.214138 
L 7.2 20.214138 
L 7.2 128.528148 
z
" style="fill: none"/>
   </g>
   <g id="matplotlib.axis_1">
    <g id="xtick_1">
     <g id="line2d_1">
      <path d="M 23.693647 128.528148 
L 23.693647 20.214138 
" clip-path="url(#pec1a5379fc)" style="fill: none; stroke-dasharray: 1.85,0.8; stroke-dashoffset: 0; stroke: #666666; stroke-opacity: 0.4; stroke-width: 0.5"/>
     </g>
     <g id="line2d_2">
      <defs>
       <path id="m7c54f89291" d="M 0 0 
L 0 3.5 
" style="stroke: #000000; stroke-opacity: 0; stroke-width: 0.8"/>
      </defs>
      <g>
       <use xlink:href="#m7c54f89291" x="23.693647" y="128.528148" style="fill-opacity: 0; stroke: #000000; stroke-opacity: 0; stroke-width: 0.8"/>
      </g>
     </g>
     <g id="text_1">
      <!-- −1.00 -->
      <g style="fill: #666666" transform="translate(8.370991 143.126585) scale(0.1 -0.1)">
       <defs>
        <path id="DejaVuSans-2212" d="M 678 2272 
L 4684 2272 
L 4684 1741 
L 678 1741 
L 678 2272 
z
" transform="scale(0.015625)"/>
        <path id="DejaVuSans-31" d="M 794 531 
L 1825 531 
L 1825 4091 
L 703 3866 
L 703 4441 
L 1819 4666 
L 2450 4666 
L 2450 531 
L 3481 531 
L 3481 0 
L 794 0 
L 794 531 
z
" transform="scale(0.015625)"/>
        <path id="DejaVuSans-2e" d="M 684 794 
L 1344 794 
L 1344 0 
L 684 0 
L 684 794 
z
" transform="scale(0.015625)"/>
        <path id="DejaVuSans-30" d="M 2034 4250 
Q 1547 4250 1301 3770 
Q 1056 3291 1056 2328 
Q 1056 1369 1301 889 
Q 1547 409 2034 409 
Q 2525 409 2770 889 
Q 3016 1369 3016 2328 
Q 3016 3291 2770 3770 
Q 2525 4250 2034 4250 
z
M 2034 4750 
Q 2819 4750 3233 4129 
Q 3647 3509 3647 2328 
Q 3647 1150 3233 529 
Q 2819 -91 2034 -91 
Q 1250 -91 836 529 
Q 422 1150 422 2328 
Q 422 3509 836 4129 
Q 1250 4750 2034 4750 
z
" transform="scale(0.015625)"/>
       </defs>
       <use xlink:href="#DejaVuSans-2212"/>
       <use xlink:href="#DejaVuSans-31" x="83.789062"/>
       <use xlink:href="#DejaVuSans-2e" x="147.412109"/>
       <use xlink:href="#DejaVuSans-30" x="179.199219"/>
       <use xlink:href="#DejaVuSans-30" x="242.822266"/>
      </g>
     </g>
    </g>
    <g id="xtick_2">
     <g id="line2d_3">
      <path d="M 126.778941 128.528148 
L 126.778941 20.214138 
" clip-path="url(#pec1a5379fc)" style="fill: none; stroke-dasharray: 1.85,0.8; stroke-dashoffset: 0; stroke: #666666; stroke-opacity: 0.4; stroke-width: 0.5"/>
     </g>
     <g id="line2d_4">
      <g>
       <use xlink:href="#m7c54f89291" x="126.778941" y="128.528148" style="fill-opacity: 0; stroke: #000000; stroke-opacity: 0; stroke-width: 0.8"/>
      </g>
     </g>
     <g id="text_2">
      <!-- −0.75 -->
      <g style="fill: #666666" transform="translate(111.456285 143.126585) scale(0.1 -0.1)">
       <defs>
        <path id="DejaVuSans-37" d="M 525 4666 
L 3525 4666 
L 3525 4397 
L 1831 0 
L 1172 0 
L 2766 4134 
L 525 4134 
L 525 4666 
z
" transform="scale(0.015625)"/>
        <path id="DejaVuSans-35" d="M 691 4666 
L 3169 4666 
L 3169 4134 
L 1269 4134 
L 1269 2991 
Q 1406 3038 1543 3061 
Q 1681 3084 1819 3084 
Q 2600 3084 3056 2656 
Q 3513 2228 3513 1497 
Q 3513 744 3044 326 
Q 2575 -91 1722 -91 
Q 1428 -91 1123 -41 
Q 819 9 494 109 
L 494 744 
Q 775 591 1075 516 
Q 1375 441 1709 441 
Q 2250 441 2565 725 
Q 2881 1009 2881 1497 
Q 2881 1984 2565 2268 
Q 2250 2553 1709 2553 
Q 1456 2553 1204 2497 
Q 953 2441 691 2322 
L 691 4666 
z
" transform="scale(0.015625)"/>
       </defs>
       <use xlink:href="#DejaVuSans-2212"/>
       <use xlink:href="#DejaVuSans-30" x="83.789062"/>
       <use xlink:href="#DejaVuSans-2e" x="147.412109"/>
       <use xlink:href="#DejaVuSans-37" x="179.199219"/>
       <use xlink:href="#DejaVuSans-35" x="242.822266"/>
      </g>
     </g>
    </g>
    <g id="xtick_3">
     <g id="line2d_5">
      <path d="M 229.864235 128.528148 
L 229.864235 20.214138 
" clip-path="url(#pec1a5379fc)" style="fill: none; stroke-dasharray: 1.85,0.8; stroke-dashoffset: 0; stroke: #666666; stroke-opacity: 0.4; stroke-width: 0.5"/>
     </g>
     <g id="line2d_6">
      <g>
       <use xlink:href="#m7c54f89291" x="229.864235" y="128.528148" style="fill-opacity: 0; stroke: #000000; stroke-opacity: 0; stroke-width: 0.8"/>
      </g>
     </g>
     <g id="text_3">
      <!-- −0.50 -->
      <g style="fill: #666666" transform="translate(214.541579 143.126585) scale(0.1 -0.1)">
       <use xlink:href="#DejaVuSans-2212"/>
       <use xlink:href="#DejaVuSans-30" x="83.789062"/>
       <use xlink:href="#DejaVuSans-2e" x="147.412109"/>
       <use xlink:href="#DejaVuSans-35" x="179.199219"/>
       <use xlink:href="#DejaVuSans-30" x="242.822266"/>
      </g>
     </g>
    </g>
    <g id="xtick_4">
     <g id="line2d_7">
      <path d="M 332.949529 128.528148 
L 332.949529 20.214138 
" clip-path="url(#pec1a5379fc)" style="fill: none; stroke-dasharray: 1.85,0.8; stroke-dashoffset: 0; stroke: #666666; stroke-opacity: 0.4; stroke-width: 0.5"/>
     </g>
     <g id="line2d_8">
      <g>
       <use xlink:href="#m7c54f89291" x="332.949529" y="128.528148" style="fill-opacity: 0; stroke: #000000; stroke-opacity: 0; stroke-width: 0.8"/>
      </g>
     </g>
     <g id="text_4">
      <!-- −0.25 -->
      <g style="fill: #666666" transform="translate(317.626873 143.126585) scale(0.1 -0.1)">
       <defs>
        <path id="DejaVuSans-32" d="M 1228 531 
L 3431 531 
L 3431 0 
L 469 0 
L 469 531 
Q 828 903 1448 1529 
Q 2069 2156 2228 2338 
Q 2531 2678 2651 2914 
Q 2772 3150 2772 3378 
Q 2772 3750 2511 3984 
Q 2250 4219 1831 4219 
Q 1534 4219 1204 4116 
Q 875 4013 500 3803 
L 500 4441 
Q 881 4594 1212 4672 
Q 1544 4750 1819 4750 
Q 2544 4750 2975 4387 
Q 3406 4025 3406 3419 
Q 3406 3131 3298 2873 
Q 3191 2616 2906 2266 
Q 2828 2175 2409 1742 
Q 1991 1309 1228 531 
z
" transform="scale(0.015625)"/>
       </defs>
       <use xlink:href="#DejaVuSans-2212"/>
       <use xlink:href="#DejaVuSans-30" x="83.789062"/>
       <use xlink:href="#DejaVuSans-2e" x="147.412109"/>
       <use xlink:href="#DejaVuSans-32" x="179.199219"/>
       <use xlink:href="#DejaVuSans-35" x="242.822266"/>
      </g>
     </g>
    </g>
    <g id="xtick_5">
     <g id="line2d_9">
      <path d="M 436.034824 128.528148 
L 436.034824 20.214138 
" clip-path="url(#pec1a5379fc)" style="fill: none; stroke-dasharray: 1.85,0.8; stroke-dashoffset: 0; stroke: #666666; stroke-opacity: 0.4; stroke-width: 0.5"/>
     </g>
     <g id="line2d_10">
      <g>
       <use xlink:href="#m7c54f89291" x="436.034824" y="128.528148" style="fill-opacity: 0; stroke: #000000; stroke-opacity: 0; stroke-width: 0.8"/>
      </g>
     </g>
     <g id="text_5">
      <!-- 0.00 -->
      <g style="fill: #666666" transform="translate(424.902011 143.126585) scale(0.1 -0.1)">
       <use xlink:href="#DejaVuSans-30"/>
       <use xlink:href="#DejaVuSans-2e" x="63.623047"/>
       <use xlink:href="#DejaVuSans-30" x="95.410156"/>
       <use xlink:href="#DejaVuSans-30" x="159.033203"/>
      </g>
     </g>
    </g>
    <g id="xtick_6">
     <g id="line2d_11">
      <path d="M 539.120118 128.528148 
L 539.120118 20.214138 
" clip-path="url(#pec1a5379fc)" style="fill: none; stroke-dasharray: 1.85,0.8; stroke-dashoffset: 0; stroke: #666666; stroke-opacity: 0.4; stroke-width: 0.5"/>
     </g>
     <g id="line2d_12">
      <g>
       <use xlink:href="#m7c54f89291" x="539.120118" y="128.528148" style="fill-opacity: 0; stroke: #000000; stroke-opacity: 0; stroke-width: 0.8"/>
      </g>
     </g>
     <g id="text_6">
      <!-- 0.25 -->
      <g style="fill: #666666" transform="translate(527.987305 143.126585) scale(0.1 -0.1)">
       <use xlink:href="#DejaVuSans-30"/>
       <use xlink:href="#DejaVuSans-2e" x="63.623047"/>
       <use xlink:href="#DejaVuSans-32" x="95.410156"/>
       <use xlink:href="#DejaVuSans-35" x="159.033203"/>
      </g>
     </g>
    </g>
    <g id="xtick_7">
     <g id="line2d_13">
      <path d="M 642.205412 128.528148 
L 642.205412 20.214138 
" clip-path="url(#pec1a5379fc)" style="fill: none; stroke-dasharray: 1.85,0.8; stroke-dashoffset: 0; stroke: #666666; stroke-opacity: 0.4; stroke-width: 0.5"/>
     </g>
     <g id="line2d_14">
      <g>
       <use xlink:href="#m7c54f89291" x="642.205412" y="128.528148" style="fill-opacity: 0; stroke: #000000; stroke-opacity: 0; stroke-width: 0.8"/>
      </g>
     </g>
     <g id="text_7">
      <!-- 0.50 -->
      <g style="fill: #666666" transform="translate(631.072599 143.126585) scale(0.1 -0.1)">
       <use xlink:href="#DejaVuSans-30"/>
       <use xlink:href="#DejaVuSans-2e" x="63.623047"/>
       <use xlink:href="#DejaVuSans-35" x="95.410156"/>
       <use xlink:href="#DejaVuSans-30" x="159.033203"/>
      </g>
     </g>
    </g>
    <g id="xtick_8">
     <g id="line2d_15">
      <path d="M 745.290706 128.528148 
L 745.290706 20.214138 
" clip-path="url(#pec1a5379fc)" style="fill: none; stroke-dasharray: 1.85,0.8; stroke-dashoffset: 0; stroke: #666666; stroke-opacity: 0.4; stroke-width: 0.5"/>
     </g>
     <g id="line2d_16">
      <g>
       <use xlink:href="#m7c54f89291" x="745.290706" y="128.528148" style="fill-opacity: 0; stroke: #000000; stroke-opacity: 0; stroke-width: 0.8"/>
      </g>
     </g>
     <g id="text_8">
      <!-- 0.75 -->
      <g style="fill: #666666" transform="translate(734.157893 143.126585) scale(0.1 -0.1)">
       <use xlink:href="#DejaVuSans-30"/>
       <use xlink:href="#DejaVuSans-2e" x="63.623047"/>
       <use xlink:href="#DejaVuSans-37" x="95.410156"/>
       <use xlink:href="#DejaVuSans-35" x="159.033203"/>
      </g>
     </g>
    </g>
    <g id="xtick_9">
     <g id="line2d_17">
      <path d="M 848.376 128.528148 
L 848.376 20.214138 
" clip-path="url(#pec1a5379fc)" style="fill: none; stroke-dasharray: 1.85,0.8; stroke-dashoffset: 0; stroke: #666666; stroke-opacity: 0.4; stroke-width: 0.5"/>
     </g>
     <g id="line2d_18">
      <g>
       <use xlink:href="#m7c54f89291" x="848.376" y="128.528148" style="fill-opacity: 0; stroke: #000000; stroke-opacity: 0; stroke-width: 0.8"/>
      </g>
     </g>
     <g id="text_9">
      <!-- 1.00 -->
      <g style="fill: #666666" transform="translate(837.243187 143.126585) scale(0.1 -0.1)">
       <use xlink:href="#DejaVuSans-31"/>
       <use xlink:href="#DejaVuSans-2e" x="63.623047"/>
       <use xlink:href="#DejaVuSans-30" x="95.410156"/>
       <use xlink:href="#DejaVuSans-30" x="159.033203"/>
      </g>
     </g>
    </g>
   </g>
   <g id="matplotlib.axis_2"/>
   <g id="line2d_19">
    <path d="M 100.830618 128.528148 
L 100.830618 20.214138 
" clip-path="url(#pec1a5379fc)" style="fill: none; stroke: #000000; stroke-width: 1.5; stroke-linecap: square"/>
   </g>
   <g id="line2d_20">
    <path d="M 267.913355 128.528148 
L 267.913355 20.214138 
" clip-path="url(#pec1a5379fc)" style="fill: none; stroke: #000000; stroke-width: 1.5; stroke-linecap: square"/>
   </g>
   <g id="line2d_21">
    <path d="M 434.996091 128.528148 
L 434.996091 20.214138 
" clip-path="url(#pec1a5379fc)" style="fill: none; stroke: #000000; stroke-width: 1.5; stroke-linecap: square"/>
   </g>
   <g id="line2d_22">
    <path d="M 602.078827 128.528148 
L 602.078827 20.214138 
" clip-path="url(#pec1a5379fc)" style="fill: none; stroke: #000000; stroke-width: 1.5; stroke-linecap: square"/>
   </g>
   <g id="line2d_23">
    <path d="M 769.161563 128.528148 
L 769.161563 20.214138 
" clip-path="url(#pec1a5379fc)" style="fill: none; stroke: #000000; stroke-width: 1.5; stroke-linecap: square"/>
   </g>
   <g id="line2d_24">
    <path d="M 29.509911 128.528148 
L 29.509911 20.214138 
" clip-path="url(#pec1a5379fc)" style="fill: none; stroke: #ff0000; stroke-width: 1.5; stroke-linecap: square"/>
   </g>
   <g id="line2d_25">
    <path d="M 844.573016 128.528148 
L 844.573016 20.214138 
" clip-path="url(#pec1a5379fc)" style="fill: none; stroke: #ff0000; stroke-width: 1.5; stroke-linecap: square"/>
   </g>
   <g id="patch_3">
    <path d="M 7.2 128.528148 
L 7.2 20.214138 
" style="fill: none"/>
   </g>
   <g id="patch_4">
    <path d="M 865.19952 128.528148 
L 865.19952 20.214138 
" style="fill: none"/>
   </g>
   <g id="patch_5">
    <path d="M 7.2 128.528148 
L 865.19952 128.528148 
" style="fill: none"/>
   </g>
   <g id="patch_6">
    <path d="M 7.2 20.214138 
L 865.19952 20.214138 
" style="fill: none"/>
   </g>
   <g id="text_10">
    <g id="patch_7">
     <path d="M 28.509911 104.10708 
L 28.509911 44.635205 
Q 28.509911 44.635205 28.509911 44.635205 
L 18.831786 44.635205 
Q 18.831786 44.635205 18.831786 44.635205 
L 18.831786 104.10708 
Q 18.831786 104.10708 18.831786 104.10708 
L 28.509911 104.10708 
Q 28.509911 104.10708 28.509911 104.10708 
z
" style="fill: #ffffff"/>
    </g>
    <!-- min=-0.986 -->
    <g style="fill: #666666" transform="translate(26.430223 104.10708) rotate(-90) scale(0.1 -0.1)">
     <defs>
      <path id="DejaVuSans-6d" d="M 3328 2828 
Q 3544 3216 3844 3400 
Q 4144 3584 4550 3584 
Q 5097 3584 5394 3201 
Q 5691 2819 5691 2113 
L 5691 0 
L 5113 0 
L 5113 2094 
Q 5113 2597 4934 2840 
Q 4756 3084 4391 3084 
Q 3944 3084 3684 2787 
Q 3425 2491 3425 1978 
L 3425 0 
L 2847 0 
L 2847 2094 
Q 2847 2600 2669 2842 
Q 2491 3084 2119 3084 
Q 1678 3084 1418 2786 
Q 1159 2488 1159 1978 
L 1159 0 
L 581 0 
L 581 3500 
L 1159 3500 
L 1159 2956 
Q 1356 3278 1631 3431 
Q 1906 3584 2284 3584 
Q 2666 3584 2933 3390 
Q 3200 3197 3328 2828 
z
" transform="scale(0.015625)"/>
      <path id="DejaVuSans-69" d="M 603 3500 
L 1178 3500 
L 1178 0 
L 603 0 
L 603 3500 
z
M 603 4863 
L 1178 4863 
L 1178 4134 
L 603 4134 
L 603 4863 
z
" transform="scale(0.015625)"/>
      <path id="DejaVuSans-6e" d="M 3513 2113 
L 3513 0 
L 2938 0 
L 2938 2094 
Q 2938 2591 2744 2837 
Q 2550 3084 2163 3084 
Q 1697 3084 1428 2787 
Q 1159 2491 1159 1978 
L 1159 0 
L 581 0 
L 581 3500 
L 1159 3500 
L 1159 2956 
Q 1366 3272 1645 3428 
Q 1925 3584 2291 3584 
Q 2894 3584 3203 3211 
Q 3513 2838 3513 2113 
z
" transform="scale(0.015625)"/>
      <path id="DejaVuSans-3d" d="M 678 2906 
L 4684 2906 
L 4684 2381 
L 678 2381 
L 678 2906 
z
M 678 1631 
L 4684 1631 
L 4684 1100 
L 678 1100 
L 678 1631 
z
" transform="scale(0.015625)"/>
      <path id="DejaVuSans-2d" d="M 313 2009 
L 1997 2009 
L 1997 1497 
L 313 1497 
L 313 2009 
z
" transform="scale(0.015625)"/>
      <path id="DejaVuSans-39" d="M 703 97 
L 703 672 
Q 941 559 1184 500 
Q 1428 441 1663 441 
Q 2288 441 2617 861 
Q 2947 1281 2994 2138 
Q 2813 1869 2534 1725 
Q 2256 1581 1919 1581 
Q 1219 1581 811 2004 
Q 403 2428 403 3163 
Q 403 3881 828 4315 
Q 1253 4750 1959 4750 
Q 2769 4750 3195 4129 
Q 3622 3509 3622 2328 
Q 3622 1225 3098 567 
Q 2575 -91 1691 -91 
Q 1453 -91 1209 -44 
Q 966 3 703 97 
z
M 1959 2075 
Q 2384 2075 2632 2365 
Q 2881 2656 2881 3163 
Q 2881 3666 2632 3958 
Q 2384 4250 1959 4250 
Q 1534 4250 1286 3958 
Q 1038 3666 1038 3163 
Q 1038 2656 1286 2365 
Q 1534 2075 1959 2075 
z
" transform="scale(0.015625)"/>
      <path id="DejaVuSans-38" d="M 2034 2216 
Q 1584 2216 1326 1975 
Q 1069 1734 1069 1313 
Q 1069 891 1326 650 
Q 1584 409 2034 409 
Q 2484 409 2743 651 
Q 3003 894 3003 1313 
Q 3003 1734 2745 1975 
Q 2488 2216 2034 2216 
z
M 1403 2484 
Q 997 2584 770 2862 
Q 544 3141 544 3541 
Q 544 4100 942 4425 
Q 1341 4750 2034 4750 
Q 2731 4750 3128 4425 
Q 3525 4100 3525 3541 
Q 3525 3141 3298 2862 
Q 3072 2584 2669 2484 
Q 3125 2378 3379 2068 
Q 3634 1759 3634 1313 
Q 3634 634 3220 271 
Q 2806 -91 2034 -91 
Q 1263 -91 848 271 
Q 434 634 434 1313 
Q 434 1759 690 2068 
Q 947 2378 1403 2484 
z
M 1172 3481 
Q 1172 3119 1398 2916 
Q 1625 2713 2034 2713 
Q 2441 2713 2670 2916 
Q 2900 3119 2900 3481 
Q 2900 3844 2670 4047 
Q 2441 4250 2034 4250 
Q 1625 4250 1398 4047 
Q 1172 3844 1172 3481 
z
" transform="scale(0.015625)"/>
      <path id="DejaVuSans-36" d="M 2113 2584 
Q 1688 2584 1439 2293 
Q 1191 2003 1191 1497 
Q 1191 994 1439 701 
Q 1688 409 2113 409 
Q 2538 409 2786 701 
Q 3034 994 3034 1497 
Q 3034 2003 2786 2293 
Q 2538 2584 2113 2584 
z
M 3366 4563 
L 3366 3988 
Q 3128 4100 2886 4159 
Q 2644 4219 2406 4219 
Q 1781 4219 1451 3797 
Q 1122 3375 1075 2522 
Q 1259 2794 1537 2939 
Q 1816 3084 2150 3084 
Q 2853 3084 3261 2657 
Q 3669 2231 3669 1497 
Q 3669 778 3244 343 
Q 2819 -91 2113 -91 
Q 1303 -91 875 529 
Q 447 1150 447 2328 
Q 447 3434 972 4092 
Q 1497 4750 2381 4750 
Q 2619 4750 2861 4703 
Q 3103 4656 3366 4563 
z
" transform="scale(0.015625)"/>
     </defs>
     <use xlink:href="#DejaVuSans-6d"/>
     <use xlink:href="#DejaVuSans-69" x="97.412109"/>
     <use xlink:href="#DejaVuSans-6e" x="125.195312"/>
     <use xlink:href="#DejaVuSans-3d" x="188.574219"/>
     <use xlink:href="#DejaVuSans-2d" x="272.363281"/>
     <use xlink:href="#DejaVuSans-30" x="308.447266"/>
     <use xlink:href="#DejaVuSans-2e" x="372.070312"/>
     <use xlink:href="#DejaVuSans-39" x="403.857422"/>
     <use xlink:href="#DejaVuSans-38" x="467.480469"/>
     <use xlink:href="#DejaVuSans-36" x="531.103516"/>
    </g>
   </g>
   <g id="text_11">
    <g id="patch_8">
     <path d="M 856.251141 103.768799 
L 856.251141 44.973487 
Q 856.251141 44.973487 856.251141 44.973487 
L 846.573016 44.973487 
Q 846.573016 44.973487 846.573016 44.973487 
L 846.573016 103.768799 
Q 846.573016 103.768799 846.573016 103.768799 
L 856.251141 103.768799 
Q 856.251141 103.768799 856.251141 103.768799 
z
" style="fill: #ffffff"/>
    </g>
    <!-- max=0.991 -->
    <g style="fill: #666666" transform="translate(854.171453 103.768799) rotate(-90) scale(0.1 -0.1)">
     <defs>
      <path id="DejaVuSans-61" d="M 2194 1759 
Q 1497 1759 1228 1600 
Q 959 1441 959 1056 
Q 959 750 1161 570 
Q 1363 391 1709 391 
Q 2188 391 2477 730 
Q 2766 1069 2766 1631 
L 2766 1759 
L 2194 1759 
z
M 3341 1997 
L 3341 0 
L 2766 0 
L 2766 531 
Q 2569 213 2275 61 
Q 1981 -91 1556 -91 
Q 1019 -91 701 211 
Q 384 513 384 1019 
Q 384 1609 779 1909 
Q 1175 2209 1959 2209 
L 2766 2209 
L 2766 2266 
Q 2766 2663 2505 2880 
Q 2244 3097 1772 3097 
Q 1472 3097 1187 3025 
Q 903 2953 641 2809 
L 641 3341 
Q 956 3463 1253 3523 
Q 1550 3584 1831 3584 
Q 2591 3584 2966 3190 
Q 3341 2797 3341 1997 
z
" transform="scale(0.015625)"/>
      <path id="DejaVuSans-78" d="M 3513 3500 
L 2247 1797 
L 3578 0 
L 2900 0 
L 1881 1375 
L 863 0 
L 184 0 
L 1544 1831 
L 300 3500 
L 978 3500 
L 1906 2253 
L 2834 3500 
L 3513 3500 
z
" transform="scale(0.015625)"/>
     </defs>
     <use xlink:href="#DejaVuSans-6d"/>
     <use xlink:href="#DejaVuSans-61" x="97.412109"/>
     <use xlink:href="#DejaVuSans-78" x="158.691406"/>
     <use xlink:href="#DejaVuSans-3d" x="217.871094"/>
     <use xlink:href="#DejaVuSans-30" x="301.660156"/>
     <use xlink:href="#DejaVuSans-2e" x="365.283203"/>
     <use xlink:href="#DejaVuSans-39" x="397.070312"/>
     <use xlink:href="#DejaVuSans-39" x="460.693359"/>
     <use xlink:href="#DejaVuSans-31" x="524.316406"/>
    </g>
   </g>
   <g id="text_12">
    <!-- 10000 samples (μ=-0.003, σ=0.405) of tensor[4, 4, 4, 4, 4, 8, 3, 3] f64 n=73728 x∈[-0.986, 0.991] μ=-0.001 σ=0.408 grad SelectBackward0 -->
    <g style="fill: #666666" transform="translate(7.2 14.798437) scale(0.1 -0.1)">
     <defs>
      <path id="DejaVuSans-20" transform="scale(0.015625)"/>
      <path id="DejaVuSans-73" d="M 2834 3397 
L 2834 2853 
Q 2591 2978 2328 3040 
Q 2066 3103 1784 3103 
Q 1356 3103 1142 2972 
Q 928 2841 928 2578 
Q 928 2378 1081 2264 
Q 1234 2150 1697 2047 
L 1894 2003 
Q 2506 1872 2764 1633 
Q 3022 1394 3022 966 
Q 3022 478 2636 193 
Q 2250 -91 1575 -91 
Q 1294 -91 989 -36 
Q 684 19 347 128 
L 347 722 
Q 666 556 975 473 
Q 1284 391 1588 391 
Q 1994 391 2212 530 
Q 2431 669 2431 922 
Q 2431 1156 2273 1281 
Q 2116 1406 1581 1522 
L 1381 1569 
Q 847 1681 609 1914 
Q 372 2147 372 2553 
Q 372 3047 722 3315 
Q 1072 3584 1716 3584 
Q 2034 3584 2315 3537 
Q 2597 3491 2834 3397 
z
" transform="scale(0.015625)"/>
      <path id="DejaVuSans-70" d="M 1159 525 
L 1159 -1331 
L 581 -1331 
L 581 3500 
L 1159 3500 
L 1159 2969 
Q 1341 3281 1617 3432 
Q 1894 3584 2278 3584 
Q 2916 3584 3314 3078 
Q 3713 2572 3713 1747 
Q 3713 922 3314 415 
Q 2916 -91 2278 -91 
Q 1894 -91 1617 61 
Q 1341 213 1159 525 
z
M 3116 1747 
Q 3116 2381 2855 2742 
Q 2594 3103 2138 3103 
Q 1681 3103 1420 2742 
Q 1159 2381 1159 1747 
Q 1159 1113 1420 752 
Q 1681 391 2138 391 
Q 2594 391 2855 752 
Q 3116 1113 3116 1747 
z
" transform="scale(0.015625)"/>
      <path id="DejaVuSans-6c" d="M 603 4863 
L 1178 4863 
L 1178 0 
L 603 0 
L 603 4863 
z
" transform="scale(0.015625)"/>
      <path id="DejaVuSans-65" d="M 3597 1894 
L 3597 1613 
L 953 1613 
Q 991 1019 1311 708 
Q 1631 397 2203 397 
Q 2534 397 2845 478 
Q 3156 559 3463 722 
L 3463 178 
Q 3153 47 2828 -22 
Q 2503 -91 2169 -91 
Q 1331 -91 842 396 
Q 353 884 353 1716 
Q 353 2575 817 3079 
Q 1281 3584 2069 3584 
Q 2775 3584 3186 3129 
Q 3597 2675 3597 1894 
z
M 3022 2063 
Q 3016 2534 2758 2815 
Q 2500 3097 2075 3097 
Q 1594 3097 1305 2825 
Q 1016 2553 972 2059 
L 3022 2063 
z
" transform="scale(0.015625)"/>
      <path id="DejaVuSans-28" d="M 1984 4856 
Q 1566 4138 1362 3434 
Q 1159 2731 1159 2009 
Q 1159 1288 1364 580 
Q 1569 -128 1984 -844 
L 1484 -844 
Q 1016 -109 783 600 
Q 550 1309 550 2009 
Q 550 2706 781 3412 
Q 1013 4119 1484 4856 
L 1984 4856 
z
" transform="scale(0.015625)"/>
      <path id="DejaVuSans-3bc" d="M 544 -1331 
L 544 3500 
L 1119 3500 
L 1119 1325 
Q 1119 872 1334 640 
Q 1550 409 1972 409 
Q 2434 409 2667 671 
Q 2900 934 2900 1459 
L 2900 3500 
L 3475 3500 
L 3475 806 
Q 3475 619 3529 530 
Q 3584 441 3700 441 
Q 3728 441 3778 458 
Q 3828 475 3916 513 
L 3916 50 
Q 3788 -22 3673 -56 
Q 3559 -91 3450 -91 
Q 3234 -91 3106 31 
Q 2978 153 2931 403 
Q 2775 156 2548 32 
Q 2322 -91 2016 -91 
Q 1697 -91 1473 31 
Q 1250 153 1119 397 
L 1119 -1331 
L 544 -1331 
z
" transform="scale(0.015625)"/>
      <path id="DejaVuSans-33" d="M 2597 2516 
Q 3050 2419 3304 2112 
Q 3559 1806 3559 1356 
Q 3559 666 3084 287 
Q 2609 -91 1734 -91 
Q 1441 -91 1130 -33 
Q 819 25 488 141 
L 488 750 
Q 750 597 1062 519 
Q 1375 441 1716 441 
Q 2309 441 2620 675 
Q 2931 909 2931 1356 
Q 2931 1769 2642 2001 
Q 2353 2234 1838 2234 
L 1294 2234 
L 1294 2753 
L 1863 2753 
Q 2328 2753 2575 2939 
Q 2822 3125 2822 3475 
Q 2822 3834 2567 4026 
Q 2313 4219 1838 4219 
Q 1578 4219 1281 4162 
Q 984 4106 628 3988 
L 628 4550 
Q 988 4650 1302 4700 
Q 1616 4750 1894 4750 
Q 2613 4750 3031 4423 
Q 3450 4097 3450 3541 
Q 3450 3153 3228 2886 
Q 3006 2619 2597 2516 
z
" transform="scale(0.015625)"/>
      <path id="DejaVuSans-2c" d="M 750 794 
L 1409 794 
L 1409 256 
L 897 -744 
L 494 -744 
L 750 256 
L 750 794 
z
" transform="scale(0.015625)"/>
      <path id="DejaVuSans-3c3" d="M 1959 3044 
Q 1484 3044 1228 2700 
Q 959 2341 959 1747 
Q 959 1119 1226 758 
Q 1494 397 1959 397 
Q 2419 397 2687 759 
Q 2956 1122 2956 1747 
Q 2956 2319 2688 2700 
Q 2441 3044 1959 3044 
z
M 1959 3500 
L 3869 3500 
L 3869 2925 
L 3225 2925 
Q 3566 2438 3566 1747 
Q 3566 888 3138 400 
Q 2709 -91 1959 -91 
Q 1206 -91 781 400 
Q 353 888 353 1747 
Q 353 2613 781 3097 
Q 1134 3500 1959 3500 
z
" transform="scale(0.015625)"/>
      <path id="DejaVuSans-34" d="M 2419 4116 
L 825 1625 
L 2419 1625 
L 2419 4116 
z
M 2253 4666 
L 3047 4666 
L 3047 1625 
L 3713 1625 
L 3713 1100 
L 3047 1100 
L 3047 0 
L 2419 0 
L 2419 1100 
L 313 1100 
L 313 1709 
L 2253 4666 
z
" transform="scale(0.015625)"/>
      <path id="DejaVuSans-29" d="M 513 4856 
L 1013 4856 
Q 1481 4119 1714 3412 
Q 1947 2706 1947 2009 
Q 1947 1309 1714 600 
Q 1481 -109 1013 -844 
L 513 -844 
Q 928 -128 1133 580 
Q 1338 1288 1338 2009 
Q 1338 2731 1133 3434 
Q 928 4138 513 4856 
z
" transform="scale(0.015625)"/>
      <path id="DejaVuSans-6f" d="M 1959 3097 
Q 1497 3097 1228 2736 
Q 959 2375 959 1747 
Q 959 1119 1226 758 
Q 1494 397 1959 397 
Q 2419 397 2687 759 
Q 2956 1122 2956 1747 
Q 2956 2369 2687 2733 
Q 2419 3097 1959 3097 
z
M 1959 3584 
Q 2709 3584 3137 3096 
Q 3566 2609 3566 1747 
Q 3566 888 3137 398 
Q 2709 -91 1959 -91 
Q 1206 -91 779 398 
Q 353 888 353 1747 
Q 353 2609 779 3096 
Q 1206 3584 1959 3584 
z
" transform="scale(0.015625)"/>
      <path id="DejaVuSans-66" d="M 2375 4863 
L 2375 4384 
L 1825 4384 
Q 1516 4384 1395 4259 
Q 1275 4134 1275 3809 
L 1275 3500 
L 2222 3500 
L 2222 3053 
L 1275 3053 
L 1275 0 
L 697 0 
L 697 3053 
L 147 3053 
L 147 3500 
L 697 3500 
L 697 3744 
Q 697 4328 969 4595 
Q 1241 4863 1831 4863 
L 2375 4863 
z
" transform="scale(0.015625)"/>
      <path id="DejaVuSans-74" d="M 1172 4494 
L 1172 3500 
L 2356 3500 
L 2356 3053 
L 1172 3053 
L 1172 1153 
Q 1172 725 1289 603 
Q 1406 481 1766 481 
L 2356 481 
L 2356 0 
L 1766 0 
Q 1100 0 847 248 
Q 594 497 594 1153 
L 594 3053 
L 172 3053 
L 172 3500 
L 594 3500 
L 594 4494 
L 1172 4494 
z
" transform="scale(0.015625)"/>
      <path id="DejaVuSans-72" d="M 2631 2963 
Q 2534 3019 2420 3045 
Q 2306 3072 2169 3072 
Q 1681 3072 1420 2755 
Q 1159 2438 1159 1844 
L 1159 0 
L 581 0 
L 581 3500 
L 1159 3500 
L 1159 2956 
Q 1341 3275 1631 3429 
Q 1922 3584 2338 3584 
Q 2397 3584 2469 3576 
Q 2541 3569 2628 3553 
L 2631 2963 
z
" transform="scale(0.015625)"/>
      <path id="DejaVuSans-5b" d="M 550 4863 
L 1875 4863 
L 1875 4416 
L 1125 4416 
L 1125 -397 
L 1875 -397 
L 1875 -844 
L 550 -844 
L 550 4863 
z
" transform="scale(0.015625)"/>
      <path id="DejaVuSans-5d" d="M 1947 4863 
L 1947 -844 
L 622 -844 
L 622 -397 
L 1369 -397 
L 1369 4416 
L 622 4416 
L 622 4863 
L 1947 4863 
z
" transform="scale(0.015625)"/>
      <path id="DejaVuSans-2208" d="M 1072 1959 
Q 1094 1728 1291 1353 
Q 1522 919 1959 675 
Q 2388 438 2850 434 
L 5028 434 
L 5028 -63 
L 2850 -63 
Q 2250 -63 1695 246 
Q 1141 556 844 1106 
Q 547 1656 547 2241 
Q 547 2819 844 3369 
Q 1141 3919 1695 4231 
Q 2250 4544 2850 4544 
L 5028 4544 
L 5028 4047 
L 2850 4047 
Q 2388 4044 1959 3803 
Q 1525 3556 1291 3125 
Q 1091 2750 1063 2459 
L 5028 2459 
L 5028 1959 
L 1072 1959 
z
" transform="scale(0.015625)"/>
      <path id="DejaVuSans-67" d="M 2906 1791 
Q 2906 2416 2648 2759 
Q 2391 3103 1925 3103 
Q 1463 3103 1205 2759 
Q 947 2416 947 1791 
Q 947 1169 1205 825 
Q 1463 481 1925 481 
Q 2391 481 2648 825 
Q 2906 1169 2906 1791 
z
M 3481 434 
Q 3481 -459 3084 -895 
Q 2688 -1331 1869 -1331 
Q 1566 -1331 1297 -1286 
Q 1028 -1241 775 -1147 
L 775 -588 
Q 1028 -725 1275 -790 
Q 1522 -856 1778 -856 
Q 2344 -856 2625 -561 
Q 2906 -266 2906 331 
L 2906 616 
Q 2728 306 2450 153 
Q 2172 0 1784 0 
Q 1141 0 747 490 
Q 353 981 353 1791 
Q 353 2603 747 3093 
Q 1141 3584 1784 3584 
Q 2172 3584 2450 3431 
Q 2728 3278 2906 2969 
L 2906 3500 
L 3481 3500 
L 3481 434 
z
" transform="scale(0.015625)"/>
      <path id="DejaVuSans-64" d="M 2906 2969 
L 2906 4863 
L 3481 4863 
L 3481 0 
L 2906 0 
L 2906 525 
Q 2725 213 2448 61 
Q 2172 -91 1784 -91 
Q 1150 -91 751 415 
Q 353 922 353 1747 
Q 353 2572 751 3078 
Q 1150 3584 1784 3584 
Q 2172 3584 2448 3432 
Q 2725 3281 2906 2969 
z
M 947 1747 
Q 947 1113 1208 752 
Q 1469 391 1925 391 
Q 2381 391 2643 752 
Q 2906 1113 2906 1747 
Q 2906 2381 2643 2742 
Q 2381 3103 1925 3103 
Q 1469 3103 1208 2742 
Q 947 2381 947 1747 
z
" transform="scale(0.015625)"/>
      <path id="DejaVuSans-53" d="M 3425 4513 
L 3425 3897 
Q 3066 4069 2747 4153 
Q 2428 4238 2131 4238 
Q 1616 4238 1336 4038 
Q 1056 3838 1056 3469 
Q 1056 3159 1242 3001 
Q 1428 2844 1947 2747 
L 2328 2669 
Q 3034 2534 3370 2195 
Q 3706 1856 3706 1288 
Q 3706 609 3251 259 
Q 2797 -91 1919 -91 
Q 1588 -91 1214 -16 
Q 841 59 441 206 
L 441 856 
Q 825 641 1194 531 
Q 1563 422 1919 422 
Q 2459 422 2753 634 
Q 3047 847 3047 1241 
Q 3047 1584 2836 1778 
Q 2625 1972 2144 2069 
L 1759 2144 
Q 1053 2284 737 2584 
Q 422 2884 422 3419 
Q 422 4038 858 4394 
Q 1294 4750 2059 4750 
Q 2388 4750 2728 4690 
Q 3069 4631 3425 4513 
z
" transform="scale(0.015625)"/>
      <path id="DejaVuSans-63" d="M 3122 3366 
L 3122 2828 
Q 2878 2963 2633 3030 
Q 2388 3097 2138 3097 
Q 1578 3097 1268 2742 
Q 959 2388 959 1747 
Q 959 1106 1268 751 
Q 1578 397 2138 397 
Q 2388 397 2633 464 
Q 2878 531 3122 666 
L 3122 134 
Q 2881 22 2623 -34 
Q 2366 -91 2075 -91 
Q 1284 -91 818 406 
Q 353 903 353 1747 
Q 353 2603 823 3093 
Q 1294 3584 2113 3584 
Q 2378 3584 2631 3529 
Q 2884 3475 3122 3366 
z
" transform="scale(0.015625)"/>
      <path id="DejaVuSans-42" d="M 1259 2228 
L 1259 519 
L 2272 519 
Q 2781 519 3026 730 
Q 3272 941 3272 1375 
Q 3272 1813 3026 2020 
Q 2781 2228 2272 2228 
L 1259 2228 
z
M 1259 4147 
L 1259 2741 
L 2194 2741 
Q 2656 2741 2882 2914 
Q 3109 3088 3109 3444 
Q 3109 3797 2882 3972 
Q 2656 4147 2194 4147 
L 1259 4147 
z
M 628 4666 
L 2241 4666 
Q 2963 4666 3353 4366 
Q 3744 4066 3744 3513 
Q 3744 3084 3544 2831 
Q 3344 2578 2956 2516 
Q 3422 2416 3680 2098 
Q 3938 1781 3938 1306 
Q 3938 681 3513 340 
Q 3088 0 2303 0 
L 628 0 
L 628 4666 
z
" transform="scale(0.015625)"/>
      <path id="DejaVuSans-6b" d="M 581 4863 
L 1159 4863 
L 1159 1991 
L 2875 3500 
L 3609 3500 
L 1753 1863 
L 3688 0 
L 2938 0 
L 1159 1709 
L 1159 0 
L 581 0 
L 581 4863 
z
" transform="scale(0.015625)"/>
      <path id="DejaVuSans-77" d="M 269 3500 
L 844 3500 
L 1563 769 
L 2278 3500 
L 2956 3500 
L 3675 769 
L 4391 3500 
L 4966 3500 
L 4050 0 
L 3372 0 
L 2619 2869 
L 1863 0 
L 1184 0 
L 269 3500 
z
" transform="scale(0.015625)"/>
     </defs>
     <use xlink:href="#DejaVuSans-31"/>
     <use xlink:href="#DejaVuSans-30" x="63.623047"/>
     <use xlink:href="#DejaVuSans-30" x="127.246094"/>
     <use xlink:href="#DejaVuSans-30" x="190.869141"/>
     <use xlink:href="#DejaVuSans-30" x="254.492188"/>
     <use xlink:href="#DejaVuSans-20" x="318.115234"/>
     <use xlink:href="#DejaVuSans-73" x="349.902344"/>
     <use xlink:href="#DejaVuSans-61" x="402.001953"/>
     <use xlink:href="#DejaVuSans-6d" x="463.28125"/>
     <use xlink:href="#DejaVuSans-70" x="560.693359"/>
     <use xlink:href="#DejaVuSans-6c" x="624.169922"/>
     <use xlink:href="#DejaVuSans-65" x="651.953125"/>
     <use xlink:href="#DejaVuSans-73" x="713.476562"/>
     <use xlink:href="#DejaVuSans-20" x="765.576172"/>
     <use xlink:href="#DejaVuSans-28" x="797.363281"/>
     <use xlink:href="#DejaVuSans-3bc" x="836.376953"/>
     <use xlink:href="#DejaVuSans-3d" x="900"/>
     <use xlink:href="#DejaVuSans-2d" x="983.789062"/>
     <use xlink:href="#DejaVuSans-30" x="1019.873047"/>
     <use xlink:href="#DejaVuSans-2e" x="1083.496094"/>
     <use xlink:href="#DejaVuSans-30" x="1115.283203"/>
     <use xlink:href="#DejaVuSans-30" x="1178.90625"/>
     <use xlink:href="#DejaVuSans-33" x="1242.529297"/>
     <use xlink:href="#DejaVuSans-2c" x="1306.152344"/>
     <use xlink:href="#DejaVuSans-20" x="1337.939453"/>
     <use xlink:href="#DejaVuSans-3c3" x="1369.726562"/>
     <use xlink:href="#DejaVuSans-3d" x="1433.105469"/>
     <use xlink:href="#DejaVuSans-30" x="1516.894531"/>
     <use xlink:href="#DejaVuSans-2e" x="1580.517578"/>
     <use xlink:href="#DejaVuSans-34" x="1612.304688"/>
     <use xlink:href="#DejaVuSans-30" x="1675.927734"/>
     <use xlink:href="#DejaVuSans-35" x="1739.550781"/>
     <use xlink:href="#DejaVuSans-29" x="1803.173828"/>
     <use xlink:href="#DejaVuSans-20" x="1842.1875"/>
     <use xlink:href="#DejaVuSans-6f" x="1873.974609"/>
     <use xlink:href="#DejaVuSans-66" x="1935.15625"/>
     <use xlink:href="#DejaVuSans-20" x="1970.361328"/>
     <use xlink:href="#DejaVuSans-74" x="2002.148438"/>
     <use xlink:href="#DejaVuSans-65" x="2041.357422"/>
     <use xlink:href="#DejaVuSans-6e" x="2102.880859"/>
     <use xlink:href="#DejaVuSans-73" x="2166.259766"/>
     <use xlink:href="#DejaVuSans-6f" x="2218.359375"/>
     <use xlink:href="#DejaVuSans-72" x="2279.541016"/>
     <use xlink:href="#DejaVuSans-5b" x="2320.654297"/>
     <use xlink:href="#DejaVuSans-34" x="2359.667969"/>
     <use xlink:href="#DejaVuSans-2c" x="2423.291016"/>
     <use xlink:href="#DejaVuSans-20" x="2455.078125"/>
     <use xlink:href="#DejaVuSans-34" x="2486.865234"/>
     <use xlink:href="#DejaVuSans-2c" x="2550.488281"/>
     <use xlink:href="#DejaVuSans-20" x="2582.275391"/>
     <use xlink:href="#DejaVuSans-34" x="2614.0625"/>
     <use xlink:href="#DejaVuSans-2c" x="2677.685547"/>
     <use xlink:href="#DejaVuSans-20" x="2709.472656"/>
     <use xlink:href="#DejaVuSans-34" x="2741.259766"/>
     <use xlink:href="#DejaVuSans-2c" x="2804.882812"/>
     <use xlink:href="#DejaVuSans-20" x="2836.669922"/>
     <use xlink:href="#DejaVuSans-34" x="2868.457031"/>
     <use xlink:href="#DejaVuSans-2c" x="2932.080078"/>
     <use xlink:href="#DejaVuSans-20" x="2963.867188"/>
     <use xlink:href="#DejaVuSans-38" x="2995.654297"/>
     <use xlink:href="#DejaVuSans-2c" x="3059.277344"/>
     <use xlink:href="#DejaVuSans-20" x="3091.064453"/>
     <use xlink:href="#DejaVuSans-33" x="3122.851562"/>
     <use xlink:href="#DejaVuSans-2c" x="3186.474609"/>
     <use xlink:href="#DejaVuSans-20" x="3218.261719"/>
     <use xlink:href="#DejaVuSans-33" x="3250.048828"/>
     <use xlink:href="#DejaVuSans-5d" x="3313.671875"/>
     <use xlink:href="#DejaVuSans-20" x="3352.685547"/>
     <use xlink:href="#DejaVuSans-66" x="3384.472656"/>
     <use xlink:href="#DejaVuSans-36" x="3419.677734"/>
     <use xlink:href="#DejaVuSans-34" x="3483.300781"/>
     <use xlink:href="#DejaVuSans-20" x="3546.923828"/>
     <use xlink:href="#DejaVuSans-6e" x="3578.710938"/>
     <use xlink:href="#DejaVuSans-3d" x="3642.089844"/>
     <use xlink:href="#DejaVuSans-37" x="3725.878906"/>
     <use xlink:href="#DejaVuSans-33" x="3789.501953"/>
     <use xlink:href="#DejaVuSans-37" x="3853.125"/>
     <use xlink:href="#DejaVuSans-32" x="3916.748047"/>
     <use xlink:href="#DejaVuSans-38" x="3980.371094"/>
     <use xlink:href="#DejaVuSans-20" x="4043.994141"/>
     <use xlink:href="#DejaVuSans-78" x="4075.78125"/>
     <use xlink:href="#DejaVuSans-2208" x="4134.960938"/>
     <use xlink:href="#DejaVuSans-5b" x="4222.070312"/>
     <use xlink:href="#DejaVuSans-2d" x="4261.083984"/>
     <use xlink:href="#DejaVuSans-30" x="4297.167969"/>
     <use xlink:href="#DejaVuSans-2e" x="4360.791016"/>
     <use xlink:href="#DejaVuSans-39" x="4392.578125"/>
     <use xlink:href="#DejaVuSans-38" x="4456.201172"/>
     <use xlink:href="#DejaVuSans-36" x="4519.824219"/>
     <use xlink:href="#DejaVuSans-2c" x="4583.447266"/>
     <use xlink:href="#DejaVuSans-20" x="4615.234375"/>
     <use xlink:href="#DejaVuSans-30" x="4647.021484"/>
     <use xlink:href="#DejaVuSans-2e" x="4710.644531"/>
     <use xlink:href="#DejaVuSans-39" x="4742.431641"/>
     <use xlink:href="#DejaVuSans-39" x="4806.054688"/>
     <use xlink:href="#DejaVuSans-31" x="4869.677734"/>
     <use xlink:href="#DejaVuSans-5d" x="4933.300781"/>
     <use xlink:href="#DejaVuSans-20" x="4972.314453"/>
     <use xlink:href="#DejaVuSans-3bc" x="5004.101562"/>
     <use xlink:href="#DejaVuSans-3d" x="5067.724609"/>
     <use xlink:href="#DejaVuSans-2d" x="5151.513672"/>
     <use xlink:href="#DejaVuSans-30" x="5187.597656"/>
     <use xlink:href="#DejaVuSans-2e" x="5251.220703"/>
     <use xlink:href="#DejaVuSans-30" x="5283.007812"/>
     <use xlink:href="#DejaVuSans-30" x="5346.630859"/>
     <use xlink:href="#DejaVuSans-31" x="5410.253906"/>
     <use xlink:href="#DejaVuSans-20" x="5473.876953"/>
     <use xlink:href="#DejaVuSans-3c3" x="5505.664062"/>
     <use xlink:href="#DejaVuSans-3d" x="5569.042969"/>
     <use xlink:href="#DejaVuSans-30" x="5652.832031"/>
     <use xlink:href="#DejaVuSans-2e" x="5716.455078"/>
     <use xlink:href="#DejaVuSans-34" x="5748.242188"/>
     <use xlink:href="#DejaVuSans-30" x="5811.865234"/>
     <use xlink:href="#DejaVuSans-38" x="5875.488281"/>
     <use xlink:href="#DejaVuSans-20" x="5939.111328"/>
     <use xlink:href="#DejaVuSans-67" x="5970.898438"/>
     <use xlink:href="#DejaVuSans-72" x="6034.375"/>
     <use xlink:href="#DejaVuSans-61" x="6075.488281"/>
     <use xlink:href="#DejaVuSans-64" x="6136.767578"/>
     <use xlink:href="#DejaVuSans-20" x="6200.244141"/>
     <use xlink:href="#DejaVuSans-53" x="6232.03125"/>
     <use xlink:href="#DejaVuSans-65" x="6295.507812"/>
     <use xlink:href="#DejaVuSans-6c" x="6357.03125"/>
     <use xlink:href="#DejaVuSans-65" x="6384.814453"/>
     <use xlink:href="#DejaVuSans-63" x="6446.337891"/>
     <use xlink:href="#DejaVuSans-74" x="6501.318359"/>
     <use xlink:href="#DejaVuSans-42" x="6540.527344"/>
     <use xlink:href="#DejaVuSans-61" x="6609.130859"/>
     <use xlink:href="#DejaVuSans-63" x="6670.410156"/>
     <use xlink:href="#DejaVuSans-6b" x="6725.390625"/>
     <use xlink:href="#DejaVuSans-77" x="6783.300781"/>
     <use xlink:href="#DejaVuSans-61" x="6865.087891"/>
     <use xlink:href="#DejaVuSans-72" x="6926.367188"/>
     <use xlink:href="#DejaVuSans-64" x="6965.730469"/>
     <use xlink:href="#DejaVuSans-30" x="7029.207031"/>
    </g>
   </g>
   <g id="patch_9">
    <path d="M 33.877643 128.528148 
L 42.392789 128.528148 
L 42.392789 127.361222 
L 33.877643 127.361222 
z
" clip-path="url(#pec1a5379fc)" style="fill: #00bfff"/>
   </g>
   <g id="patch_10">
    <path d="M 42.392789 128.528148 
L 50.907936 128.528148 
L 50.907936 126.194297 
L 42.392789 126.194297 
z
" clip-path="url(#pec1a5379fc)" style="fill: #00bfff"/>
   </g>
   <g id="patch_11">
    <path d="M 50.907936 128.528148 
L 59.423082 128.528148 
L 59.423082 125.416347 
L 50.907936 125.416347 
z
" clip-path="url(#pec1a5379fc)" style="fill: #00bfff"/>
   </g>
   <g id="patch_12">
    <path d="M 59.423082 128.528148 
L 67.938228 128.528148 
L 67.938228 125.805322 
L 59.423082 125.805322 
z
" clip-path="url(#pec1a5379fc)" style="fill: #00bfff"/>
   </g>
   <g id="patch_13">
    <path d="M 67.938228 128.528148 
L 76.453375 128.528148 
L 76.453375 122.693521 
L 67.938228 122.693521 
z
" clip-path="url(#pec1a5379fc)" style="fill: #00bfff"/>
   </g>
   <g id="patch_14">
    <path d="M 76.453375 128.528148 
L 84.968521 128.528148 
L 84.968521 119.58172 
L 76.453375 119.58172 
z
" clip-path="url(#pec1a5379fc)" style="fill: #00bfff"/>
   </g>
   <g id="patch_15">
    <path d="M 84.968521 128.528148 
L 93.483668 128.528148 
L 93.483668 118.80377 
L 84.968521 118.80377 
z
" clip-path="url(#pec1a5379fc)" style="fill: #00bfff"/>
   </g>
   <g id="patch_16">
    <path d="M 93.483668 128.528148 
L 101.998814 128.528148 
L 101.998814 117.247869 
L 93.483668 117.247869 
z
" clip-path="url(#pec1a5379fc)" style="fill: #00bfff"/>
   </g>
   <g id="patch_17">
    <path d="M 101.998814 128.528148 
L 110.513961 128.528148 
L 110.513961 113.358118 
L 101.998814 113.358118 
z
" clip-path="url(#pec1a5379fc)" style="fill: #00bfff"/>
   </g>
   <g id="patch_18">
    <path d="M 110.513961 128.528148 
L 119.029107 128.528148 
L 119.029107 110.246317 
L 110.513961 110.246317 
z
" clip-path="url(#pec1a5379fc)" style="fill: #00bfff"/>
   </g>
   <g id="patch_19">
    <path d="M 119.029107 128.528148 
L 127.544254 128.528148 
L 127.544254 107.912467 
L 119.029107 107.912467 
z
" clip-path="url(#pec1a5379fc)" style="fill: #00bfff"/>
   </g>
   <g id="patch_20">
    <path d="M 127.544254 128.528148 
L 136.0594 128.528148 
L 136.0594 103.244765 
L 127.544254 103.244765 
z
" clip-path="url(#pec1a5379fc)" style="fill: #00bfff"/>
   </g>
   <g id="patch_21">
    <path d="M 136.0594 128.528148 
L 144.574547 128.528148 
L 144.574547 105.189641 
L 136.0594 105.189641 
z
" clip-path="url(#pec1a5379fc)" style="fill: #00bfff"/>
   </g>
   <g id="patch_22">
    <path d="M 144.574547 128.528148 
L 153.089693 128.528148 
L 153.089693 102.07784 
L 144.574547 102.07784 
z
" clip-path="url(#pec1a5379fc)" style="fill: #00bfff"/>
   </g>
   <g id="patch_23">
    <path d="M 153.089693 128.528148 
L 161.604839 128.528148 
L 161.604839 98.966039 
L 153.089693 98.966039 
z
" clip-path="url(#pec1a5379fc)" style="fill: #00bfff"/>
   </g>
   <g id="patch_24">
    <path d="M 161.604839 128.528148 
L 170.119986 128.528148 
L 170.119986 102.85579 
L 161.604839 102.85579 
z
" clip-path="url(#pec1a5379fc)" style="fill: #00bfff"/>
   </g>
   <g id="patch_25">
    <path d="M 170.119986 128.528148 
L 178.635132 128.528148 
L 178.635132 99.743989 
L 170.119986 99.743989 
z
" clip-path="url(#pec1a5379fc)" style="fill: #00bfff"/>
   </g>
   <g id="patch_26">
    <path d="M 178.635132 128.528148 
L 187.150279 128.528148 
L 187.150279 95.465263 
L 178.635132 95.465263 
z
" clip-path="url(#pec1a5379fc)" style="fill: #00bfff"/>
   </g>
   <g id="patch_27">
    <path d="M 187.150279 128.528148 
L 195.665425 128.528148 
L 195.665425 91.964487 
L 187.150279 91.964487 
z
" clip-path="url(#pec1a5379fc)" style="fill: #00bfff"/>
   </g>
   <g id="patch_28">
    <path d="M 195.665425 128.528148 
L 204.180572 128.528148 
L 204.180572 93.520388 
L 195.665425 93.520388 
z
" clip-path="url(#pec1a5379fc)" style="fill: #00bfff"/>
   </g>
   <g id="patch_29">
    <path d="M 204.180572 128.528148 
L 212.695718 128.528148 
L 212.695718 92.742437 
L 204.180572 92.742437 
z
" clip-path="url(#pec1a5379fc)" style="fill: #00bfff"/>
   </g>
   <g id="patch_30">
    <path d="M 212.695718 128.528148 
L 221.210865 128.528148 
L 221.210865 92.353462 
L 212.695718 92.353462 
z
" clip-path="url(#pec1a5379fc)" style="fill: #00bfff"/>
   </g>
   <g id="patch_31">
    <path d="M 221.210865 128.528148 
L 229.726011 128.528148 
L 229.726011 84.962935 
L 221.210865 84.962935 
z
" clip-path="url(#pec1a5379fc)" style="fill: #00bfff"/>
   </g>
   <g id="patch_32">
    <path d="M 229.726011 128.528148 
L 238.241157 128.528148 
L 238.241157 78.739333 
L 229.726011 78.739333 
z
" clip-path="url(#pec1a5379fc)" style="fill: #00bfff"/>
   </g>
   <g id="patch_33">
    <path d="M 238.241157 128.528148 
L 246.756304 128.528148 
L 246.756304 84.57396 
L 238.241157 84.57396 
z
" clip-path="url(#pec1a5379fc)" style="fill: #00bfff"/>
   </g>
   <g id="patch_34">
    <path d="M 246.756304 128.528148 
L 255.27145 128.528148 
L 255.27145 83.01806 
L 246.756304 83.01806 
z
" clip-path="url(#pec1a5379fc)" style="fill: #00bfff"/>
   </g>
   <g id="patch_35">
    <path d="M 255.27145 128.528148 
L 263.786597 128.528148 
L 263.786597 79.517284 
L 255.27145 79.517284 
z
" clip-path="url(#pec1a5379fc)" style="fill: #00bfff"/>
   </g>
   <g id="patch_36">
    <path d="M 263.786597 128.528148 
L 272.301743 128.528148 
L 272.301743 68.237005 
L 263.786597 68.237005 
z
" clip-path="url(#pec1a5379fc)" style="fill: #00bfff"/>
   </g>
   <g id="patch_37">
    <path d="M 272.301743 128.528148 
L 280.81689 128.528148 
L 280.81689 76.794458 
L 272.301743 76.794458 
z
" clip-path="url(#pec1a5379fc)" style="fill: #00bfff"/>
   </g>
   <g id="patch_38">
    <path d="M 280.81689 128.528148 
L 289.332036 128.528148 
L 289.332036 70.181881 
L 280.81689 70.181881 
z
" clip-path="url(#pec1a5379fc)" style="fill: #00bfff"/>
   </g>
   <g id="patch_39">
    <path d="M 289.332036 128.528148 
L 297.847183 128.528148 
L 297.847183 75.238557 
L 289.332036 75.238557 
z
" clip-path="url(#pec1a5379fc)" style="fill: #00bfff"/>
   </g>
   <g id="patch_40">
    <path d="M 297.847183 128.528148 
L 306.362329 128.528148 
L 306.362329 63.180329 
L 297.847183 63.180329 
z
" clip-path="url(#pec1a5379fc)" style="fill: #00bfff"/>
   </g>
   <g id="patch_41">
    <path d="M 306.362329 128.528148 
L 314.877476 128.528148 
L 314.877476 76.405483 
L 306.362329 76.405483 
z
" clip-path="url(#pec1a5379fc)" style="fill: #00bfff"/>
   </g>
   <g id="patch_42">
    <path d="M 314.877476 128.528148 
L 323.392622 128.528148 
L 323.392622 51.511075 
L 314.877476 51.511075 
z
" clip-path="url(#pec1a5379fc)" style="fill: #00bfff"/>
   </g>
   <g id="patch_43">
    <path d="M 323.392622 128.528148 
L 331.907768 128.528148 
L 331.907768 70.570856 
L 323.392622 70.570856 
z
" clip-path="url(#pec1a5379fc)" style="fill: #00bfff"/>
   </g>
   <g id="patch_44">
    <path d="M 331.907768 128.528148 
L 340.422915 128.528148 
L 340.422915 67.84803 
L 331.907768 67.84803 
z
" clip-path="url(#pec1a5379fc)" style="fill: #00bfff"/>
   </g>
   <g id="patch_45">
    <path d="M 340.422915 128.528148 
L 348.938061 128.528148 
L 348.938061 69.014956 
L 340.422915 69.014956 
z
" clip-path="url(#pec1a5379fc)" style="fill: #00bfff"/>
   </g>
   <g id="patch_46">
    <path d="M 348.938061 128.528148 
L 357.453208 128.528148 
L 357.453208 58.901603 
L 348.938061 58.901603 
z
" clip-path="url(#pec1a5379fc)" style="fill: #00bfff"/>
   </g>
   <g id="patch_47">
    <path d="M 357.453208 128.528148 
L 365.968354 128.528148 
L 365.968354 56.567752 
L 357.453208 56.567752 
z
" clip-path="url(#pec1a5379fc)" style="fill: #00bfff"/>
   </g>
   <g id="patch_48">
    <path d="M 365.968354 128.528148 
L 374.483501 128.528148 
L 374.483501 62.791354 
L 365.968354 62.791354 
z
" clip-path="url(#pec1a5379fc)" style="fill: #00bfff"/>
   </g>
   <g id="patch_49">
    <path d="M 374.483501 128.528148 
L 382.998647 128.528148 
L 382.998647 62.791354 
L 374.483501 62.791354 
z
" clip-path="url(#pec1a5379fc)" style="fill: #00bfff"/>
   </g>
   <g id="patch_50">
    <path d="M 382.998647 128.528148 
L 391.513794 128.528148 
L 391.513794 65.903155 
L 382.998647 65.903155 
z
" clip-path="url(#pec1a5379fc)" style="fill: #00bfff"/>
   </g>
   <g id="patch_51">
    <path d="M 391.513794 128.528148 
L 400.02894 128.528148 
L 400.02894 70.959831 
L 391.513794 70.959831 
z
" clip-path="url(#pec1a5379fc)" style="fill: #00bfff"/>
   </g>
   <g id="patch_52">
    <path d="M 400.02894 128.528148 
L 408.544087 128.528148 
L 408.544087 56.956727 
L 400.02894 56.956727 
z
" clip-path="url(#pec1a5379fc)" style="fill: #00bfff"/>
   </g>
   <g id="patch_53">
    <path d="M 408.544087 128.528148 
L 417.059233 128.528148 
L 417.059233 57.734677 
L 408.544087 57.734677 
z
" clip-path="url(#pec1a5379fc)" style="fill: #00bfff"/>
   </g>
   <g id="patch_54">
    <path d="M 417.059233 128.528148 
L 425.574379 128.528148 
L 425.574379 67.07008 
L 417.059233 67.07008 
z
" clip-path="url(#pec1a5379fc)" style="fill: #00bfff"/>
   </g>
   <g id="patch_55">
    <path d="M 425.574379 128.528148 
L 434.089526 128.528148 
L 434.089526 49.177225 
L 425.574379 49.177225 
z
" clip-path="url(#pec1a5379fc)" style="fill: #00bfff"/>
   </g>
   <g id="patch_56">
    <path d="M 434.089526 128.528148 
L 442.604672 128.528148 
L 442.604672 64.736229 
L 434.089526 64.736229 
z
" clip-path="url(#pec1a5379fc)" style="fill: #00bfff"/>
   </g>
   <g id="patch_57">
    <path d="M 442.604672 128.528148 
L 451.119819 128.528148 
L 451.119819 59.290578 
L 442.604672 59.290578 
z
" clip-path="url(#pec1a5379fc)" style="fill: #00bfff"/>
   </g>
   <g id="patch_58">
    <path d="M 451.119819 128.528148 
L 459.634965 128.528148 
L 459.634965 56.956727 
L 451.119819 56.956727 
z
" clip-path="url(#pec1a5379fc)" style="fill: #00bfff"/>
   </g>
   <g id="patch_59">
    <path d="M 459.634965 128.528148 
L 468.150112 128.528148 
L 468.150112 59.290578 
L 459.634965 59.290578 
z
" clip-path="url(#pec1a5379fc)" style="fill: #00bfff"/>
   </g>
   <g id="patch_60">
    <path d="M 468.150112 128.528148 
L 476.665258 128.528148 
L 476.665258 55.011851 
L 468.150112 55.011851 
z
" clip-path="url(#pec1a5379fc)" style="fill: #00bfff"/>
   </g>
   <g id="patch_61">
    <path d="M 476.665258 128.528148 
L 485.180405 128.528148 
L 485.180405 60.457503 
L 476.665258 60.457503 
z
" clip-path="url(#pec1a5379fc)" style="fill: #00bfff"/>
   </g>
   <g id="patch_62">
    <path d="M 485.180405 128.528148 
L 493.695551 128.528148 
L 493.695551 63.569304 
L 485.180405 63.569304 
z
" clip-path="url(#pec1a5379fc)" style="fill: #00bfff"/>
   </g>
   <g id="patch_63">
    <path d="M 493.695551 128.528148 
L 502.210698 128.528148 
L 502.210698 53.066976 
L 493.695551 53.066976 
z
" clip-path="url(#pec1a5379fc)" style="fill: #00bfff"/>
   </g>
   <g id="patch_64">
    <path d="M 502.210698 128.528148 
L 510.725844 128.528148 
L 510.725844 58.901603 
L 502.210698 58.901603 
z
" clip-path="url(#pec1a5379fc)" style="fill: #00bfff"/>
   </g>
   <g id="patch_65">
    <path d="M 510.725844 128.528148 
L 519.24099 128.528148 
L 519.24099 60.457503 
L 510.725844 60.457503 
z
" clip-path="url(#pec1a5379fc)" style="fill: #00bfff"/>
   </g>
   <g id="patch_66">
    <path d="M 519.24099 128.528148 
L 527.756137 128.528148 
L 527.756137 69.014956 
L 519.24099 69.014956 
z
" clip-path="url(#pec1a5379fc)" style="fill: #00bfff"/>
   </g>
   <g id="patch_67">
    <path d="M 527.756137 128.528148 
L 536.271283 128.528148 
L 536.271283 68.237005 
L 527.756137 68.237005 
z
" clip-path="url(#pec1a5379fc)" style="fill: #00bfff"/>
   </g>
   <g id="patch_68">
    <path d="M 536.271283 128.528148 
L 544.78643 128.528148 
L 544.78643 65.903155 
L 536.271283 65.903155 
z
" clip-path="url(#pec1a5379fc)" style="fill: #00bfff"/>
   </g>
   <g id="patch_69">
    <path d="M 544.78643 128.528148 
L 553.301576 128.528148 
L 553.301576 68.237005 
L 544.78643 68.237005 
z
" clip-path="url(#pec1a5379fc)" style="fill: #00bfff"/>
   </g>
   <g id="patch_70">
    <path d="M 553.301576 128.528148 
L 561.816723 128.528148 
L 561.816723 71.737781 
L 553.301576 71.737781 
z
" clip-path="url(#pec1a5379fc)" style="fill: #00bfff"/>
   </g>
   <g id="patch_71">
    <path d="M 561.816723 128.528148 
L 570.331869 128.528148 
L 570.331869 68.237005 
L 561.816723 68.237005 
z
" clip-path="url(#pec1a5379fc)" style="fill: #00bfff"/>
   </g>
   <g id="patch_72">
    <path d="M 570.331869 128.528148 
L 578.847016 128.528148 
L 578.847016 74.849582 
L 570.331869 74.849582 
z
" clip-path="url(#pec1a5379fc)" style="fill: #00bfff"/>
   </g>
   <g id="patch_73">
    <path d="M 578.847016 128.528148 
L 587.362162 128.528148 
L 587.362162 69.403931 
L 578.847016 69.403931 
z
" clip-path="url(#pec1a5379fc)" style="fill: #00bfff"/>
   </g>
   <g id="patch_74">
    <path d="M 587.362162 128.528148 
L 595.877308 128.528148 
L 595.877308 76.016508 
L 587.362162 76.016508 
z
" clip-path="url(#pec1a5379fc)" style="fill: #00bfff"/>
   </g>
   <g id="patch_75">
    <path d="M 595.877308 128.528148 
L 604.392455 128.528148 
L 604.392455 74.849582 
L 595.877308 74.849582 
z
" clip-path="url(#pec1a5379fc)" style="fill: #00bfff"/>
   </g>
   <g id="patch_76">
    <path d="M 604.392455 128.528148 
L 612.907601 128.528148 
L 612.907601 77.183433 
L 604.392455 77.183433 
z
" clip-path="url(#pec1a5379fc)" style="fill: #00bfff"/>
   </g>
   <g id="patch_77">
    <path d="M 612.907601 128.528148 
L 621.422748 128.528148 
L 621.422748 78.739333 
L 612.907601 78.739333 
z
" clip-path="url(#pec1a5379fc)" style="fill: #00bfff"/>
   </g>
   <g id="patch_78">
    <path d="M 621.422748 128.528148 
L 629.937894 128.528148 
L 629.937894 85.35191 
L 621.422748 85.35191 
z
" clip-path="url(#pec1a5379fc)" style="fill: #00bfff"/>
   </g>
   <g id="patch_79">
    <path d="M 629.937894 128.528148 
L 638.453041 128.528148 
L 638.453041 88.463711 
L 629.937894 88.463711 
z
" clip-path="url(#pec1a5379fc)" style="fill: #00bfff"/>
   </g>
   <g id="patch_80">
    <path d="M 638.453041 128.528148 
L 646.968187 128.528148 
L 646.968187 90.019612 
L 638.453041 90.019612 
z
" clip-path="url(#pec1a5379fc)" style="fill: #00bfff"/>
   </g>
   <g id="patch_81">
    <path d="M 646.968187 128.528148 
L 655.483334 128.528148 
L 655.483334 84.57396 
L 646.968187 84.57396 
z
" clip-path="url(#pec1a5379fc)" style="fill: #00bfff"/>
   </g>
   <g id="patch_82">
    <path d="M 655.483334 128.528148 
L 663.99848 128.528148 
L 663.99848 96.632188 
L 655.483334 96.632188 
z
" clip-path="url(#pec1a5379fc)" style="fill: #00bfff"/>
   </g>
   <g id="patch_83">
    <path d="M 663.99848 128.528148 
L 672.513627 128.528148 
L 672.513627 88.463711 
L 663.99848 88.463711 
z
" clip-path="url(#pec1a5379fc)" style="fill: #00bfff"/>
   </g>
   <g id="patch_84">
    <path d="M 672.513627 128.528148 
L 681.028773 128.528148 
L 681.028773 95.076288 
L 672.513627 95.076288 
z
" clip-path="url(#pec1a5379fc)" style="fill: #00bfff"/>
   </g>
   <g id="patch_85">
    <path d="M 681.028773 128.528148 
L 689.543919 128.528148 
L 689.543919 98.188089 
L 681.028773 98.188089 
z
" clip-path="url(#pec1a5379fc)" style="fill: #00bfff"/>
   </g>
   <g id="patch_86">
    <path d="M 689.543919 128.528148 
L 698.059066 128.528148 
L 698.059066 98.188089 
L 689.543919 98.188089 
z
" clip-path="url(#pec1a5379fc)" style="fill: #00bfff"/>
   </g>
   <g id="patch_87">
    <path d="M 698.059066 128.528148 
L 706.574212 128.528148 
L 706.574212 99.743989 
L 698.059066 99.743989 
z
" clip-path="url(#pec1a5379fc)" style="fill: #00bfff"/>
   </g>
   <g id="patch_88">
    <path d="M 706.574212 128.528148 
L 715.089359 128.528148 
L 715.089359 102.07784 
L 706.574212 102.07784 
z
" clip-path="url(#pec1a5379fc)" style="fill: #00bfff"/>
   </g>
   <g id="patch_89">
    <path d="M 715.089359 128.528148 
L 723.604505 128.528148 
L 723.604505 104.411691 
L 715.089359 104.411691 
z
" clip-path="url(#pec1a5379fc)" style="fill: #00bfff"/>
   </g>
   <g id="patch_90">
    <path d="M 723.604505 128.528148 
L 732.119652 128.528148 
L 732.119652 102.466815 
L 723.604505 102.466815 
z
" clip-path="url(#pec1a5379fc)" style="fill: #00bfff"/>
   </g>
   <g id="patch_91">
    <path d="M 732.119652 128.528148 
L 740.634798 128.528148 
L 740.634798 104.022716 
L 732.119652 104.022716 
z
" clip-path="url(#pec1a5379fc)" style="fill: #00bfff"/>
   </g>
   <g id="patch_92">
    <path d="M 740.634798 128.528148 
L 749.149945 128.528148 
L 749.149945 108.690417 
L 740.634798 108.690417 
z
" clip-path="url(#pec1a5379fc)" style="fill: #00bfff"/>
   </g>
   <g id="patch_93">
    <path d="M 749.149945 128.528148 
L 757.665091 128.528148 
L 757.665091 115.691969 
L 749.149945 115.691969 
z
" clip-path="url(#pec1a5379fc)" style="fill: #00bfff"/>
   </g>
   <g id="patch_94">
    <path d="M 757.665091 128.528148 
L 766.180238 128.528148 
L 766.180238 109.468367 
L 757.665091 109.468367 
z
" clip-path="url(#pec1a5379fc)" style="fill: #00bfff"/>
   </g>
   <g id="patch_95">
    <path d="M 766.180238 128.528148 
L 774.695384 128.528148 
L 774.695384 113.747093 
L 766.180238 113.747093 
z
" clip-path="url(#pec1a5379fc)" style="fill: #00bfff"/>
   </g>
   <g id="patch_96">
    <path d="M 774.695384 128.528148 
L 783.21053 128.528148 
L 783.21053 116.080944 
L 774.695384 116.080944 
z
" clip-path="url(#pec1a5379fc)" style="fill: #00bfff"/>
   </g>
   <g id="patch_97">
    <path d="M 783.21053 128.528148 
L 791.725677 128.528148 
L 791.725677 120.748645 
L 783.21053 120.748645 
z
" clip-path="url(#pec1a5379fc)" style="fill: #00bfff"/>
   </g>
   <g id="patch_98">
    <path d="M 791.725677 128.528148 
L 800.240823 128.528148 
L 800.240823 119.192745 
L 791.725677 119.192745 
z
" clip-path="url(#pec1a5379fc)" style="fill: #00bfff"/>
   </g>
   <g id="patch_99">
    <path d="M 800.240823 128.528148 
L 808.75597 128.528148 
L 808.75597 119.192745 
L 800.240823 119.192745 
z
" clip-path="url(#pec1a5379fc)" style="fill: #00bfff"/>
   </g>
   <g id="patch_100">
    <path d="M 808.75597 128.528148 
L 817.271116 128.528148 
L 817.271116 124.638396 
L 808.75597 124.638396 
z
" clip-path="url(#pec1a5379fc)" style="fill: #00bfff"/>
   </g>
   <g id="patch_101">
    <path d="M 817.271116 128.528148 
L 825.786263 128.528148 
L 825.786263 123.860446 
L 817.271116 123.860446 
z
" clip-path="url(#pec1a5379fc)" style="fill: #00bfff"/>
   </g>
   <g id="patch_102">
    <path d="M 825.786263 128.528148 
L 834.301409 128.528148 
L 834.301409 127.750197 
L 825.786263 127.750197 
z
" clip-path="url(#pec1a5379fc)" style="fill: #00bfff"/>
   </g>
   <g id="patch_103">
    <path d="M 834.301409 128.528148 
L 842.816556 128.528148 
L 842.816556 128.139172 
L 834.301409 128.139172 
z
" clip-path="url(#pec1a5379fc)" style="fill: #00bfff"/>
   </g>
   <g id="line2d_26">
    <path d="M 7.2 125.54573 
L 15.866662 125.126713 
L 24.533324 124.659249 
L 33.199985 124.139365 
L 41.866647 123.562998 
L 50.533309 122.926032 
L 59.199971 122.224334 
L 67.866633 121.453805 
L 76.533295 120.610423 
L 85.199956 119.690307 
L 93.866618 118.68977 
L 102.53328 117.60539 
L 111.199942 116.434074 
L 119.866604 115.173131 
L 128.533265 113.820345 
L 137.199927 112.374053 
L 145.866589 110.833212 
L 154.533251 109.19748 
L 163.199913 107.467281 
L 171.866575 105.643874 
L 180.533236 103.729412 
L 189.199898 101.726996 
L 197.86656 99.64072 
L 206.533222 97.475702 
L 215.199884 95.238112 
L 223.866545 92.935179 
L 232.533207 90.575186 
L 241.199869 88.167451 
L 249.866531 85.722297 
L 258.533193 83.250993 
L 267.199855 80.765693 
L 275.866516 78.279352 
L 284.533178 75.805625 
L 293.19984 73.358753 
L 301.866502 70.953437 
L 310.533164 68.604695 
L 319.199825 66.327717 
L 327.866487 64.137696 
L 336.533149 62.04967 
L 345.199811 60.078351 
L 353.866473 58.237948 
L 362.533135 56.542006 
L 371.199796 55.003234 
L 379.866458 53.633347 
L 388.53312 52.442924 
L 397.199782 51.441265 
L 405.866444 50.636273 
L 414.533105 50.034351 
L 423.199767 49.640314 
L 431.866429 49.457329 
L 440.533091 49.48687 
L 449.199753 49.7287 
L 457.866415 50.18087 
L 466.533076 50.839752 
L 475.199738 51.70008 
L 483.8664 52.755026 
L 492.533062 53.996289 
L 501.199724 55.414199 
L 509.866385 56.997849 
L 518.533047 58.735231 
L 527.199709 60.613389 
L 535.866371 62.618575 
L 544.533033 64.736425 
L 553.199695 66.952118 
L 561.866356 69.250557 
L 570.533018 71.616532 
L 579.19968 74.034887 
L 587.866342 76.490676 
L 596.533004 78.969313 
L 605.199665 81.456706 
L 613.866327 83.939385 
L 622.532989 86.404609 
L 631.199651 88.84046 
L 639.866313 91.235927 
L 648.532975 93.580962 
L 657.199636 95.86653 
L 665.866298 98.084641 
L 674.53296 100.228361 
L 683.199622 102.291812 
L 691.866284 104.270165 
L 700.532945 106.159604 
L 709.199607 107.957297 
L 717.866269 109.661345 
L 726.532931 111.270728 
L 735.199593 112.785241 
L 743.866255 114.205428 
L 752.532916 115.53251 
L 761.199578 116.768314 
L 769.86624 117.915193 
L 778.532902 118.975958 
L 787.199564 119.953801 
L 795.866225 120.852223 
L 804.532887 121.674972 
L 813.199549 122.425975 
L 821.866211 123.109278 
L 830.532873 123.728997 
L 839.199535 124.289263 
L 847.866196 124.794183 
L 856.532858 125.247796 
L 865.19952 125.654046 
" clip-path="url(#pec1a5379fc)" style="fill: none; stroke: #2196f3; stroke-width: 1.5; stroke-linecap: square"/>
   </g>
   <g id="text_13">
    <g id="patch_104">
     <path d="M 92.676712 38.307963 
L 108.984525 38.307963 
Q 111.984525 38.307963 111.984525 35.307963 
L 111.984525 25.629838 
Q 111.984525 22.629838 108.984525 22.629838 
L 92.676712 22.629838 
Q 89.676712 22.629838 89.676712 25.629838 
L 89.676712 35.307963 
Q 89.676712 38.307963 92.676712 38.307963 
z
" style="fill: #ffffff"/>
    </g>
    <!-- -2σ -->
    <g style="fill: #666666" transform="translate(92.676712 33.228276) scale(0.1 -0.1)">
     <use xlink:href="#DejaVuSans-2d"/>
     <use xlink:href="#DejaVuSans-32" x="36.083984"/>
     <use xlink:href="#DejaVuSans-3c3" x="99.707031"/>
    </g>
   </g>
   <g id="text_14">
    <g id="patch_105">
     <path d="M 262.940698 38.307963 
L 272.886011 38.307963 
Q 275.886011 38.307963 275.886011 35.307963 
L 275.886011 25.629838 
Q 275.886011 22.629838 272.886011 22.629838 
L 262.940698 22.629838 
Q 259.940698 22.629838 259.940698 25.629838 
L 259.940698 35.307963 
Q 259.940698 38.307963 262.940698 38.307963 
z
" style="fill: #ffffff"/>
    </g>
    <!-- -σ -->
    <g style="fill: #666666" transform="translate(262.940698 33.228276) scale(0.1 -0.1)">
     <use xlink:href="#DejaVuSans-2d"/>
     <use xlink:href="#DejaVuSans-3c3" x="36.083984"/>
    </g>
   </g>
   <g id="text_15">
    <g id="patch_106">
     <path d="M 431.317185 38.307963 
L 438.674997 38.307963 
Q 441.674997 38.307963 441.674997 35.307963 
L 441.674997 25.629838 
Q 441.674997 22.629838 438.674997 22.629838 
L 431.317185 22.629838 
Q 428.317185 22.629838 428.317185 25.629838 
L 428.317185 35.307963 
Q 428.317185 38.307963 431.317185 38.307963 
z
" style="fill: #ffffff"/>
    </g>
    <!-- μ -->
    <g style="fill: #666666" transform="translate(431.317185 33.217338) scale(0.1 -0.1)">
     <defs>
      <path id="DejaVuSans-Bold-3bc" d="M 544 -1338 
L 544 3500 
L 1672 3500 
L 1672 1466 
Q 1672 1103 1828 926 
Q 1984 750 2303 750 
Q 2625 750 2781 926 
Q 2938 1103 2938 1466 
L 2938 3500 
L 4063 3500 
L 4063 1159 
Q 4063 938 4114 850 
Q 4166 763 4288 763 
Q 4344 763 4395 778 
Q 4447 794 4506 831 
L 4506 50 
Q 4341 -22 4195 -56 
Q 4050 -91 3909 -91 
Q 3631 -91 3454 26 
Q 3278 144 3169 403 
Q 3022 156 2811 32 
Q 2600 -91 2322 -91 
Q 2091 -91 1928 -17 
Q 1766 56 1672 206 
L 1672 -1338 
L 544 -1338 
z
" transform="scale(0.015625)"/>
     </defs>
     <use xlink:href="#DejaVuSans-Bold-3bc"/>
    </g>
   </g>
   <g id="text_16">
    <g id="patch_107">
     <path d="M 594.720233 38.307963 
L 609.437421 38.307963 
Q 612.437421 38.307963 612.437421 35.307963 
L 612.437421 25.629838 
Q 612.437421 22.629838 609.437421 22.629838 
L 594.720233 22.629838 
Q 591.720233 22.629838 591.720233 25.629838 
L 591.720233 35.307963 
Q 591.720233 38.307963 594.720233 38.307963 
z
" style="fill: #ffffff"/>
    </g>
    <!-- +σ -->
    <g style="fill: #666666" transform="translate(594.720233 33.228276) scale(0.1 -0.1)">
     <defs>
      <path id="DejaVuSans-2b" d="M 2944 4013 
L 2944 2272 
L 4684 2272 
L 4684 1741 
L 2944 1741 
L 2944 0 
L 2419 0 
L 2419 1741 
L 678 1741 
L 678 2272 
L 2419 2272 
L 2419 4013 
L 2944 4013 
z
" transform="scale(0.015625)"/>
     </defs>
     <use xlink:href="#DejaVuSans-2b"/>
     <use xlink:href="#DejaVuSans-3c3" x="83.789062"/>
    </g>
   </g>
   <g id="text_17">
    <g id="patch_108">
     <path d="M 758.62172 38.307963 
L 779.701407 38.307963 
Q 782.701407 38.307963 782.701407 35.307963 
L 782.701407 25.629838 
Q 782.701407 22.629838 779.701407 22.629838 
L 758.62172 22.629838 
Q 755.62172 22.629838 755.62172 25.629838 
L 755.62172 35.307963 
Q 755.62172 38.307963 758.62172 38.307963 
z
" style="fill: #ffffff"/>
    </g>
    <!-- +2σ -->
    <g style="fill: #666666" transform="translate(758.62172 33.228276) scale(0.1 -0.1)">
     <use xlink:href="#DejaVuSans-2b"/>
     <use xlink:href="#DejaVuSans-32" x="83.789062"/>
     <use xlink:href="#DejaVuSans-3c3" x="147.412109"/>
    </g>
   </g>
  </g>
 </g>
 <defs>
  <clipPath id="pec1a5379fc">
   <rect x="7.2" y="20.214138" width="857.99952" height="108.31401"/>
  </clipPath>
 </defs>
</svg>
