<?xml version="1.0" encoding="utf-8" standalone="no"?>
<!DOCTYPE svg PUBLIC "-//W3C//DTD SVG 1.1//EN"
  "http://www.w3.org/Graphics/SVG/1.1/DTD/svg11.dtd">
<svg xmlns:xlink="http://www.w3.org/1999/xlink" width="766.422126pt" height="312.30825pt" viewBox="0 0 766.422126 312.30825" xmlns="http://www.w3.org/2000/svg" version="1.1">
 <metadata>
  <rdf:RDF xmlns:dc="http://purl.org/dc/elements/1.1/" xmlns:cc="http://creativecommons.org/ns#" xmlns:rdf="http://www.w3.org/1999/02/22-rdf-syntax-ns#">
   <cc:Work>
    <dc:type rdf:resource="http://purl.org/dc/dcmitype/StillImage"/>
    <dc:date>2023-07-10T07:57:09.938925</dc:date>
    <dc:format>image/svg+xml</dc:format>
    <dc:creator>
     <cc:Agent>
      <dc:title>Matplotlib v3.7.1, https://matplotlib.org/</dc:title>
     </cc:Agent>
    </dc:creator>
   </cc:Work>
  </rdf:RDF>
 </metadata>
 <defs>
  <style type="text/css">*{stroke-linejoin: round; stroke-linecap: butt}</style>
 </defs>
 <g id="figure_1">
  <g id="patch_1">
   <path d="M 0 312.30825 
L 766.422126 312.30825 
L 766.422126 0 
L 0 0 
L 0 312.30825 
z
" style="fill: none"/>
  </g>
  <g id="axes_1">
   <g id="patch_2">
    <path d="M 64.885938 288.430125 
L 756.805938 288.430125 
L 756.805938 22.318125 
L 64.885938 22.318125 
L 64.885938 288.430125 
z
" style="fill: none"/>
   </g>
   <g id="matplotlib.axis_1">
    <g id="xtick_1">
     <g id="line2d_1">
      <path d="M 95.140995 288.430125 
L 95.140995 22.318125 
" clip-path="url(#p144e2cdad2)" style="fill: none; stroke-dasharray: 1.85,0.8; stroke-dashoffset: 0; stroke: #666666; stroke-opacity: 0.4; stroke-width: 0.5"/>
     </g>
     <g id="line2d_2">
      <defs>
       <path id="m1bb2d4e7fc" d="M 0 0 
L 0 3.5 
" style="stroke: #000000; stroke-opacity: 0; stroke-width: 0.8"/>
      </defs>
      <g>
       <use xlink:href="#m1bb2d4e7fc" x="95.140995" y="288.430125" style="fill-opacity: 0; stroke: #000000; stroke-opacity: 0; stroke-width: 0.8"/>
      </g>
     </g>
     <g id="text_1">
      <!-- 0 -->
      <g style="fill: #666666" transform="translate(91.959745 303.028562) scale(0.1 -0.1)">
       <defs>
        <path id="DejaVuSans-30" d="M 2034 4250 
Q 1547 4250 1301 3770 
Q 1056 3291 1056 2328 
Q 1056 1369 1301 889 
Q 1547 409 2034 409 
Q 2525 409 2770 889 
Q 3016 1369 3016 2328 
Q 3016 3291 2770 3770 
Q 2525 4250 2034 4250 
z
M 2034 4750 
Q 2819 4750 3233 4129 
Q 3647 3509 3647 2328 
Q 3647 1150 3233 529 
Q 2819 -91 2034 -91 
Q 1250 -91 836 529 
Q 422 1150 422 2328 
Q 422 3509 836 4129 
Q 1250 4750 2034 4750 
z
" transform="scale(0.015625)"/>
       </defs>
       <use xlink:href="#DejaVuSans-30"/>
      </g>
     </g>
    </g>
    <g id="xtick_2">
     <g id="line2d_3">
      <path d="M 226.684721 288.430125 
L 226.684721 22.318125 
" clip-path="url(#p144e2cdad2)" style="fill: none; stroke-dasharray: 1.85,0.8; stroke-dashoffset: 0; stroke: #666666; stroke-opacity: 0.4; stroke-width: 0.5"/>
     </g>
     <g id="line2d_4">
      <g>
       <use xlink:href="#m1bb2d4e7fc" x="226.684721" y="288.430125" style="fill-opacity: 0; stroke: #000000; stroke-opacity: 0; stroke-width: 0.8"/>
      </g>
     </g>
     <g id="text_2">
      <!-- 5 -->
      <g style="fill: #666666" transform="translate(223.503471 303.028562) scale(0.1 -0.1)">
       <defs>
        <path id="DejaVuSans-35" d="M 691 4666 
L 3169 4666 
L 3169 4134 
L 1269 4134 
L 1269 2991 
Q 1406 3038 1543 3061 
Q 1681 3084 1819 3084 
Q 2600 3084 3056 2656 
Q 3513 2228 3513 1497 
Q 3513 744 3044 326 
Q 2575 -91 1722 -91 
Q 1428 -91 1123 -41 
Q 819 9 494 109 
L 494 744 
Q 775 591 1075 516 
Q 1375 441 1709 441 
Q 2250 441 2565 725 
Q 2881 1009 2881 1497 
Q 2881 1984 2565 2268 
Q 2250 2553 1709 2553 
Q 1456 2553 1204 2497 
Q 953 2441 691 2322 
L 691 4666 
z
" transform="scale(0.015625)"/>
       </defs>
       <use xlink:href="#DejaVuSans-35"/>
      </g>
     </g>
    </g>
    <g id="xtick_3">
     <g id="line2d_5">
      <path d="M 358.228447 288.430125 
L 358.228447 22.318125 
" clip-path="url(#p144e2cdad2)" style="fill: none; stroke-dasharray: 1.85,0.8; stroke-dashoffset: 0; stroke: #666666; stroke-opacity: 0.4; stroke-width: 0.5"/>
     </g>
     <g id="line2d_6">
      <g>
       <use xlink:href="#m1bb2d4e7fc" x="358.228447" y="288.430125" style="fill-opacity: 0; stroke: #000000; stroke-opacity: 0; stroke-width: 0.8"/>
      </g>
     </g>
     <g id="text_3">
      <!-- 10 -->
      <g style="fill: #666666" transform="translate(351.865947 303.028562) scale(0.1 -0.1)">
       <defs>
        <path id="DejaVuSans-31" d="M 794 531 
L 1825 531 
L 1825 4091 
L 703 3866 
L 703 4441 
L 1819 4666 
L 2450 4666 
L 2450 531 
L 3481 531 
L 3481 0 
L 794 0 
L 794 531 
z
" transform="scale(0.015625)"/>
       </defs>
       <use xlink:href="#DejaVuSans-31"/>
       <use xlink:href="#DejaVuSans-30" x="63.623047"/>
      </g>
     </g>
    </g>
    <g id="xtick_4">
     <g id="line2d_7">
      <path d="M 489.772173 288.430125 
L 489.772173 22.318125 
" clip-path="url(#p144e2cdad2)" style="fill: none; stroke-dasharray: 1.85,0.8; stroke-dashoffset: 0; stroke: #666666; stroke-opacity: 0.4; stroke-width: 0.5"/>
     </g>
     <g id="line2d_8">
      <g>
       <use xlink:href="#m1bb2d4e7fc" x="489.772173" y="288.430125" style="fill-opacity: 0; stroke: #000000; stroke-opacity: 0; stroke-width: 0.8"/>
      </g>
     </g>
     <g id="text_4">
      <!-- 15 -->
      <g style="fill: #666666" transform="translate(483.409673 303.028562) scale(0.1 -0.1)">
       <use xlink:href="#DejaVuSans-31"/>
       <use xlink:href="#DejaVuSans-35" x="63.623047"/>
      </g>
     </g>
    </g>
    <g id="xtick_5">
     <g id="line2d_9">
      <path d="M 621.315899 288.430125 
L 621.315899 22.318125 
" clip-path="url(#p144e2cdad2)" style="fill: none; stroke-dasharray: 1.85,0.8; stroke-dashoffset: 0; stroke: #666666; stroke-opacity: 0.4; stroke-width: 0.5"/>
     </g>
     <g id="line2d_10">
      <g>
       <use xlink:href="#m1bb2d4e7fc" x="621.315899" y="288.430125" style="fill-opacity: 0; stroke: #000000; stroke-opacity: 0; stroke-width: 0.8"/>
      </g>
     </g>
     <g id="text_5">
      <!-- 20 -->
      <g style="fill: #666666" transform="translate(614.953399 303.028562) scale(0.1 -0.1)">
       <defs>
        <path id="DejaVuSans-32" d="M 1228 531 
L 3431 531 
L 3431 0 
L 469 0 
L 469 531 
Q 828 903 1448 1529 
Q 2069 2156 2228 2338 
Q 2531 2678 2651 2914 
Q 2772 3150 2772 3378 
Q 2772 3750 2511 3984 
Q 2250 4219 1831 4219 
Q 1534 4219 1204 4116 
Q 875 4013 500 3803 
L 500 4441 
Q 881 4594 1212 4672 
Q 1544 4750 1819 4750 
Q 2544 4750 2975 4387 
Q 3406 4025 3406 3419 
Q 3406 3131 3298 2873 
Q 3191 2616 2906 2266 
Q 2828 2175 2409 1742 
Q 1991 1309 1228 531 
z
" transform="scale(0.015625)"/>
       </defs>
       <use xlink:href="#DejaVuSans-32"/>
       <use xlink:href="#DejaVuSans-30" x="63.623047"/>
      </g>
     </g>
    </g>
    <g id="xtick_6">
     <g id="line2d_11">
      <path d="M 752.859626 288.430125 
L 752.859626 22.318125 
" clip-path="url(#p144e2cdad2)" style="fill: none; stroke-dasharray: 1.85,0.8; stroke-dashoffset: 0; stroke: #666666; stroke-opacity: 0.4; stroke-width: 0.5"/>
     </g>
     <g id="line2d_12">
      <g>
       <use xlink:href="#m1bb2d4e7fc" x="752.859626" y="288.430125" style="fill-opacity: 0; stroke: #000000; stroke-opacity: 0; stroke-width: 0.8"/>
      </g>
     </g>
     <g id="text_6">
      <!-- 25 -->
      <g style="fill: #666666" transform="translate(746.497126 303.028562) scale(0.1 -0.1)">
       <use xlink:href="#DejaVuSans-32"/>
       <use xlink:href="#DejaVuSans-35" x="63.623047"/>
      </g>
     </g>
    </g>
   </g>
   <g id="matplotlib.axis_2">
    <g id="ytick_1">
     <g id="line2d_13">
      <path d="M 64.885938 251.18039 
L 756.805938 251.18039 
" clip-path="url(#p144e2cdad2)" style="fill: none; stroke-dasharray: 1.85,0.8; stroke-dashoffset: 0; stroke: #666666; stroke-opacity: 0.4; stroke-width: 0.5"/>
     </g>
     <g id="line2d_14">
      <defs>
       <path id="m005877d7d9" d="M 0 0 
L -3.5 0 
" style="stroke: #000000; stroke-opacity: 0; stroke-width: 0.8"/>
      </defs>
      <g>
       <use xlink:href="#m005877d7d9" x="64.885938" y="251.18039" style="fill-opacity: 0; stroke: #000000; stroke-opacity: 0; stroke-width: 0.8"/>
      </g>
     </g>
     <g id="text_7">
      <!-- −0.004 -->
      <g style="fill: #666666" transform="translate(20.878125 254.979608) scale(0.1 -0.1)">
       <defs>
        <path id="DejaVuSans-2212" d="M 678 2272 
L 4684 2272 
L 4684 1741 
L 678 1741 
L 678 2272 
z
" transform="scale(0.015625)"/>
        <path id="DejaVuSans-2e" d="M 684 794 
L 1344 794 
L 1344 0 
L 684 0 
L 684 794 
z
" transform="scale(0.015625)"/>
        <path id="DejaVuSans-34" d="M 2419 4116 
L 825 1625 
L 2419 1625 
L 2419 4116 
z
M 2253 4666 
L 3047 4666 
L 3047 1625 
L 3713 1625 
L 3713 1100 
L 3047 1100 
L 3047 0 
L 2419 0 
L 2419 1100 
L 313 1100 
L 313 1709 
L 2253 4666 
z
" transform="scale(0.015625)"/>
       </defs>
       <use xlink:href="#DejaVuSans-2212"/>
       <use xlink:href="#DejaVuSans-30" x="83.789062"/>
       <use xlink:href="#DejaVuSans-2e" x="147.412109"/>
       <use xlink:href="#DejaVuSans-30" x="179.199219"/>
       <use xlink:href="#DejaVuSans-30" x="242.822266"/>
       <use xlink:href="#DejaVuSans-34" x="306.445312"/>
      </g>
     </g>
    </g>
    <g id="ytick_2">
     <g id="line2d_15">
      <path d="M 64.885938 193.889893 
L 756.805938 193.889893 
" clip-path="url(#p144e2cdad2)" style="fill: none; stroke-dasharray: 1.85,0.8; stroke-dashoffset: 0; stroke: #666666; stroke-opacity: 0.4; stroke-width: 0.5"/>
     </g>
     <g id="line2d_16">
      <g>
       <use xlink:href="#m005877d7d9" x="64.885938" y="193.889893" style="fill-opacity: 0; stroke: #000000; stroke-opacity: 0; stroke-width: 0.8"/>
      </g>
     </g>
     <g id="text_8">
      <!-- −0.002 -->
      <g style="fill: #666666" transform="translate(20.878125 197.689112) scale(0.1 -0.1)">
       <use xlink:href="#DejaVuSans-2212"/>
       <use xlink:href="#DejaVuSans-30" x="83.789062"/>
       <use xlink:href="#DejaVuSans-2e" x="147.412109"/>
       <use xlink:href="#DejaVuSans-30" x="179.199219"/>
       <use xlink:href="#DejaVuSans-30" x="242.822266"/>
       <use xlink:href="#DejaVuSans-32" x="306.445312"/>
      </g>
     </g>
    </g>
    <g id="ytick_3">
     <g id="line2d_17">
      <path d="M 64.885938 136.599397 
L 756.805938 136.599397 
" clip-path="url(#p144e2cdad2)" style="fill: none; stroke-dasharray: 1.85,0.8; stroke-dashoffset: 0; stroke: #666666; stroke-opacity: 0.4; stroke-width: 0.5"/>
     </g>
     <g id="line2d_18">
      <g>
       <use xlink:href="#m005877d7d9" x="64.885938" y="136.599397" style="fill-opacity: 0; stroke: #000000; stroke-opacity: 0; stroke-width: 0.8"/>
      </g>
     </g>
     <g id="text_9">
      <!-- 0.000 -->
      <g style="fill: #666666" transform="translate(29.257813 140.398616) scale(0.1 -0.1)">
       <use xlink:href="#DejaVuSans-30"/>
       <use xlink:href="#DejaVuSans-2e" x="63.623047"/>
       <use xlink:href="#DejaVuSans-30" x="95.410156"/>
       <use xlink:href="#DejaVuSans-30" x="159.033203"/>
       <use xlink:href="#DejaVuSans-30" x="222.65625"/>
      </g>
     </g>
    </g>
    <g id="ytick_4">
     <g id="line2d_19">
      <path d="M 64.885938 79.3089 
L 756.805938 79.3089 
" clip-path="url(#p144e2cdad2)" style="fill: none; stroke-dasharray: 1.85,0.8; stroke-dashoffset: 0; stroke: #666666; stroke-opacity: 0.4; stroke-width: 0.5"/>
     </g>
     <g id="line2d_20">
      <g>
       <use xlink:href="#m005877d7d9" x="64.885938" y="79.3089" style="fill-opacity: 0; stroke: #000000; stroke-opacity: 0; stroke-width: 0.8"/>
      </g>
     </g>
     <g id="text_10">
      <!-- 0.002 -->
      <g style="fill: #666666" transform="translate(29.257813 83.108119) scale(0.1 -0.1)">
       <use xlink:href="#DejaVuSans-30"/>
       <use xlink:href="#DejaVuSans-2e" x="63.623047"/>
       <use xlink:href="#DejaVuSans-30" x="95.410156"/>
       <use xlink:href="#DejaVuSans-30" x="159.033203"/>
       <use xlink:href="#DejaVuSans-32" x="222.65625"/>
      </g>
     </g>
    </g>
    <g id="text_11">
     <!-- plaqs -->
     <g style="fill: #bdbdbd" transform="translate(14.798438 168.780375) rotate(-90) scale(0.1 -0.1)">
      <defs>
       <path id="DejaVuSans-70" d="M 1159 525 
L 1159 -1331 
L 581 -1331 
L 581 3500 
L 1159 3500 
L 1159 2969 
Q 1341 3281 1617 3432 
Q 1894 3584 2278 3584 
Q 2916 3584 3314 3078 
Q 3713 2572 3713 1747 
Q 3713 922 3314 415 
Q 2916 -91 2278 -91 
Q 1894 -91 1617 61 
Q 1341 213 1159 525 
z
M 3116 1747 
Q 3116 2381 2855 2742 
Q 2594 3103 2138 3103 
Q 1681 3103 1420 2742 
Q 1159 2381 1159 1747 
Q 1159 1113 1420 752 
Q 1681 391 2138 391 
Q 2594 391 2855 752 
Q 3116 1113 3116 1747 
z
" transform="scale(0.015625)"/>
       <path id="DejaVuSans-6c" d="M 603 4863 
L 1178 4863 
L 1178 0 
L 603 0 
L 603 4863 
z
" transform="scale(0.015625)"/>
       <path id="DejaVuSans-61" d="M 2194 1759 
Q 1497 1759 1228 1600 
Q 959 1441 959 1056 
Q 959 750 1161 570 
Q 1363 391 1709 391 
Q 2188 391 2477 730 
Q 2766 1069 2766 1631 
L 2766 1759 
L 2194 1759 
z
M 3341 1997 
L 3341 0 
L 2766 0 
L 2766 531 
Q 2569 213 2275 61 
Q 1981 -91 1556 -91 
Q 1019 -91 701 211 
Q 384 513 384 1019 
Q 384 1609 779 1909 
Q 1175 2209 1959 2209 
L 2766 2209 
L 2766 2266 
Q 2766 2663 2505 2880 
Q 2244 3097 1772 3097 
Q 1472 3097 1187 3025 
Q 903 2953 641 2809 
L 641 3341 
Q 956 3463 1253 3523 
Q 1550 3584 1831 3584 
Q 2591 3584 2966 3190 
Q 3341 2797 3341 1997 
z
" transform="scale(0.015625)"/>
       <path id="DejaVuSans-71" d="M 947 1747 
Q 947 1113 1208 752 
Q 1469 391 1925 391 
Q 2381 391 2643 752 
Q 2906 1113 2906 1747 
Q 2906 2381 2643 2742 
Q 2381 3103 1925 3103 
Q 1469 3103 1208 2742 
Q 947 2381 947 1747 
z
M 2906 525 
Q 2725 213 2448 61 
Q 2172 -91 1784 -91 
Q 1150 -91 751 415 
Q 353 922 353 1747 
Q 353 2572 751 3078 
Q 1150 3584 1784 3584 
Q 2172 3584 2448 3432 
Q 2725 3281 2906 2969 
L 2906 3500 
L 3481 3500 
L 3481 -1331 
L 2906 -1331 
L 2906 525 
z
" transform="scale(0.015625)"/>
       <path id="DejaVuSans-73" d="M 2834 3397 
L 2834 2853 
Q 2591 2978 2328 3040 
Q 2066 3103 1784 3103 
Q 1356 3103 1142 2972 
Q 928 2841 928 2578 
Q 928 2378 1081 2264 
Q 1234 2150 1697 2047 
L 1894 2003 
Q 2506 1872 2764 1633 
Q 3022 1394 3022 966 
Q 3022 478 2636 193 
Q 2250 -91 1575 -91 
Q 1294 -91 989 -36 
Q 684 19 347 128 
L 347 722 
Q 666 556 975 473 
Q 1284 391 1588 391 
Q 1994 391 2212 530 
Q 2431 669 2431 922 
Q 2431 1156 2273 1281 
Q 2116 1406 1581 1522 
L 1381 1569 
Q 847 1681 609 1914 
Q 372 2147 372 2553 
Q 372 3047 722 3315 
Q 1072 3584 1716 3584 
Q 2034 3584 2315 3537 
Q 2597 3491 2834 3397 
z
" transform="scale(0.015625)"/>
      </defs>
      <use xlink:href="#DejaVuSans-70"/>
      <use xlink:href="#DejaVuSans-6c" x="63.476562"/>
      <use xlink:href="#DejaVuSans-61" x="91.259766"/>
      <use xlink:href="#DejaVuSans-71" x="152.539062"/>
      <use xlink:href="#DejaVuSans-73" x="216.015625"/>
     </g>
    </g>
   </g>
   <g id="line2d_21">
    <path d="M 95.140995 228.176708 
L 121.44974 220.275435 
L 147.758485 215.914298 
L 174.06723 209.381555 
L 200.375976 206.504208 
L 226.684721 199.83146 
L 252.993466 195.529707 
L 279.302211 188.243475 
L 305.610957 179.881064 
L 331.919702 174.026276 
L 358.228447 169.775302 
L 384.537192 167.241933 
L 410.845938 164.504426 
L 437.154683 162.198105 
L 463.463428 154.608802 
L 489.772173 151.235999 
L 516.080918 148.9118 
L 542.389664 144.92896 
L 568.698409 138.271259 
L 595.007154 133.330578 
L 621.315899 127.053121 
L 647.624645 121.724317 
L 673.93339 115.001308 
L 700.242135 111.755268 
" clip-path="url(#p144e2cdad2)" style="fill: none; stroke: #2196f3; stroke-width: 1.5; stroke-linecap: square"/>
    <defs>
     <path id="m11d484639e" d="M 0 1.5 
C 0.397805 1.5 0.77937 1.341951 1.06066 1.06066 
C 1.341951 0.77937 1.5 0.397805 1.5 0 
C 1.5 -0.397805 1.341951 -0.77937 1.06066 -1.06066 
C 0.77937 -1.341951 0.397805 -1.5 0 -1.5 
C -0.397805 -1.5 -0.77937 -1.341951 -1.06066 -1.06066 
C -1.341951 -0.77937 -1.5 -0.397805 -1.5 0 
C -1.5 0.397805 -1.341951 0.77937 -1.06066 1.06066 
C -0.77937 1.341951 -0.397805 1.5 0 1.5 
z
" style="stroke: #2196f3"/>
    </defs>
    <g clip-path="url(#p144e2cdad2)">
     <use xlink:href="#m11d484639e" x="95.140995" y="228.176708" style="fill: #2196f3; stroke: #2196f3"/>
     <use xlink:href="#m11d484639e" x="121.44974" y="220.275435" style="fill: #2196f3; stroke: #2196f3"/>
     <use xlink:href="#m11d484639e" x="147.758485" y="215.914298" style="fill: #2196f3; stroke: #2196f3"/>
     <use xlink:href="#m11d484639e" x="174.06723" y="209.381555" style="fill: #2196f3; stroke: #2196f3"/>
     <use xlink:href="#m11d484639e" x="200.375976" y="206.504208" style="fill: #2196f3; stroke: #2196f3"/>
     <use xlink:href="#m11d484639e" x="226.684721" y="199.83146" style="fill: #2196f3; stroke: #2196f3"/>
     <use xlink:href="#m11d484639e" x="252.993466" y="195.529707" style="fill: #2196f3; stroke: #2196f3"/>
     <use xlink:href="#m11d484639e" x="279.302211" y="188.243475" style="fill: #2196f3; stroke: #2196f3"/>
     <use xlink:href="#m11d484639e" x="305.610957" y="179.881064" style="fill: #2196f3; stroke: #2196f3"/>
     <use xlink:href="#m11d484639e" x="331.919702" y="174.026276" style="fill: #2196f3; stroke: #2196f3"/>
     <use xlink:href="#m11d484639e" x="358.228447" y="169.775302" style="fill: #2196f3; stroke: #2196f3"/>
     <use xlink:href="#m11d484639e" x="384.537192" y="167.241933" style="fill: #2196f3; stroke: #2196f3"/>
     <use xlink:href="#m11d484639e" x="410.845938" y="164.504426" style="fill: #2196f3; stroke: #2196f3"/>
     <use xlink:href="#m11d484639e" x="437.154683" y="162.198105" style="fill: #2196f3; stroke: #2196f3"/>
     <use xlink:href="#m11d484639e" x="463.463428" y="154.608802" style="fill: #2196f3; stroke: #2196f3"/>
     <use xlink:href="#m11d484639e" x="489.772173" y="151.235999" style="fill: #2196f3; stroke: #2196f3"/>
     <use xlink:href="#m11d484639e" x="516.080918" y="148.9118" style="fill: #2196f3; stroke: #2196f3"/>
     <use xlink:href="#m11d484639e" x="542.389664" y="144.92896" style="fill: #2196f3; stroke: #2196f3"/>
     <use xlink:href="#m11d484639e" x="568.698409" y="138.271259" style="fill: #2196f3; stroke: #2196f3"/>
     <use xlink:href="#m11d484639e" x="595.007154" y="133.330578" style="fill: #2196f3; stroke: #2196f3"/>
     <use xlink:href="#m11d484639e" x="621.315899" y="127.053121" style="fill: #2196f3; stroke: #2196f3"/>
     <use xlink:href="#m11d484639e" x="647.624645" y="121.724317" style="fill: #2196f3; stroke: #2196f3"/>
     <use xlink:href="#m11d484639e" x="673.93339" y="115.001308" style="fill: #2196f3; stroke: #2196f3"/>
     <use xlink:href="#m11d484639e" x="700.242135" y="111.755268" style="fill: #2196f3; stroke: #2196f3"/>
    </g>
   </g>
   <g id="line2d_22">
    <path d="M 95.140995 276.334125 
L 121.44974 265.950119 
L 147.758485 265.950119 
L 174.06723 257.887742 
L 200.375976 259.492382 
L 226.684721 255.508615 
L 252.993466 257.486063 
L 279.302211 245.813997 
L 305.610957 233.974261 
L 331.919702 224.605818 
L 358.228447 219.862855 
L 384.537192 219.769858 
L 410.845938 215.3193 
L 437.154683 215.3193 
L 463.463428 213.18654 
L 489.772173 213.996717 
L 516.080918 210.964485 
L 542.389664 206.221601 
L 568.698409 198.665682 
L 595.007154 187.170986 
L 621.315899 174.374832 
L 647.624645 168.658216 
L 673.93339 163.082636 
L 700.242135 163.792395 
" clip-path="url(#p144e2cdad2)" style="fill: none; stroke: #2196f3; stroke-opacity: 0.6; stroke-width: 0.6; stroke-linecap: square"/>
    <defs>
     <path id="ma3705fd658" d="M 0 1.5 
C 0.397805 1.5 0.77937 1.341951 1.06066 1.06066 
C 1.341951 0.77937 1.5 0.397805 1.5 0 
C 1.5 -0.397805 1.341951 -0.77937 1.06066 -1.06066 
C 0.77937 -1.341951 0.397805 -1.5 0 -1.5 
C -0.397805 -1.5 -0.77937 -1.341951 -1.06066 -1.06066 
C -1.341951 -0.77937 -1.5 -0.397805 -1.5 0 
C -1.5 0.397805 -1.341951 0.77937 -1.06066 1.06066 
C -0.77937 1.341951 -0.397805 1.5 0 1.5 
z
" style="stroke: #2196f3; stroke-opacity: 0.6"/>
    </defs>
    <g clip-path="url(#p144e2cdad2)">
     <use xlink:href="#ma3705fd658" x="95.140995" y="276.334125" style="fill: #2196f3; fill-opacity: 0.6; stroke: #2196f3; stroke-opacity: 0.6"/>
     <use xlink:href="#ma3705fd658" x="121.44974" y="265.950119" style="fill: #2196f3; fill-opacity: 0.6; stroke: #2196f3; stroke-opacity: 0.6"/>
     <use xlink:href="#ma3705fd658" x="147.758485" y="265.950119" style="fill: #2196f3; fill-opacity: 0.6; stroke: #2196f3; stroke-opacity: 0.6"/>
     <use xlink:href="#ma3705fd658" x="174.06723" y="257.887742" style="fill: #2196f3; fill-opacity: 0.6; stroke: #2196f3; stroke-opacity: 0.6"/>
     <use xlink:href="#ma3705fd658" x="200.375976" y="259.492382" style="fill: #2196f3; fill-opacity: 0.6; stroke: #2196f3; stroke-opacity: 0.6"/>
     <use xlink:href="#ma3705fd658" x="226.684721" y="255.508615" style="fill: #2196f3; fill-opacity: 0.6; stroke: #2196f3; stroke-opacity: 0.6"/>
     <use xlink:href="#ma3705fd658" x="252.993466" y="257.486063" style="fill: #2196f3; fill-opacity: 0.6; stroke: #2196f3; stroke-opacity: 0.6"/>
     <use xlink:href="#ma3705fd658" x="279.302211" y="245.813997" style="fill: #2196f3; fill-opacity: 0.6; stroke: #2196f3; stroke-opacity: 0.6"/>
     <use xlink:href="#ma3705fd658" x="305.610957" y="233.974261" style="fill: #2196f3; fill-opacity: 0.6; stroke: #2196f3; stroke-opacity: 0.6"/>
     <use xlink:href="#ma3705fd658" x="331.919702" y="224.605818" style="fill: #2196f3; fill-opacity: 0.6; stroke: #2196f3; stroke-opacity: 0.6"/>
     <use xlink:href="#ma3705fd658" x="358.228447" y="219.862855" style="fill: #2196f3; fill-opacity: 0.6; stroke: #2196f3; stroke-opacity: 0.6"/>
     <use xlink:href="#ma3705fd658" x="384.537192" y="219.769858" style="fill: #2196f3; fill-opacity: 0.6; stroke: #2196f3; stroke-opacity: 0.6"/>
     <use xlink:href="#ma3705fd658" x="410.845938" y="215.3193" style="fill: #2196f3; fill-opacity: 0.6; stroke: #2196f3; stroke-opacity: 0.6"/>
     <use xlink:href="#ma3705fd658" x="437.154683" y="215.3193" style="fill: #2196f3; fill-opacity: 0.6; stroke: #2196f3; stroke-opacity: 0.6"/>
     <use xlink:href="#ma3705fd658" x="463.463428" y="213.18654" style="fill: #2196f3; fill-opacity: 0.6; stroke: #2196f3; stroke-opacity: 0.6"/>
     <use xlink:href="#ma3705fd658" x="489.772173" y="213.996717" style="fill: #2196f3; fill-opacity: 0.6; stroke: #2196f3; stroke-opacity: 0.6"/>
     <use xlink:href="#ma3705fd658" x="516.080918" y="210.964485" style="fill: #2196f3; fill-opacity: 0.6; stroke: #2196f3; stroke-opacity: 0.6"/>
     <use xlink:href="#ma3705fd658" x="542.389664" y="206.221601" style="fill: #2196f3; fill-opacity: 0.6; stroke: #2196f3; stroke-opacity: 0.6"/>
     <use xlink:href="#ma3705fd658" x="568.698409" y="198.665682" style="fill: #2196f3; fill-opacity: 0.6; stroke: #2196f3; stroke-opacity: 0.6"/>
     <use xlink:href="#ma3705fd658" x="595.007154" y="187.170986" style="fill: #2196f3; fill-opacity: 0.6; stroke: #2196f3; stroke-opacity: 0.6"/>
     <use xlink:href="#ma3705fd658" x="621.315899" y="174.374832" style="fill: #2196f3; fill-opacity: 0.6; stroke: #2196f3; stroke-opacity: 0.6"/>
     <use xlink:href="#ma3705fd658" x="647.624645" y="168.658216" style="fill: #2196f3; fill-opacity: 0.6; stroke: #2196f3; stroke-opacity: 0.6"/>
     <use xlink:href="#ma3705fd658" x="673.93339" y="163.082636" style="fill: #2196f3; fill-opacity: 0.6; stroke: #2196f3; stroke-opacity: 0.6"/>
     <use xlink:href="#ma3705fd658" x="700.242135" y="163.792395" style="fill: #2196f3; fill-opacity: 0.6; stroke: #2196f3; stroke-opacity: 0.6"/>
    </g>
   </g>
   <g id="line2d_23">
    <path d="M 95.140995 178.87164 
L 121.44974 175.489473 
L 147.758485 170.184231 
L 174.06723 160.380885 
L 200.375976 161.820559 
L 226.684721 149.472179 
L 252.993466 137.902766 
L 279.302211 128.462023 
L 305.610957 120.461841 
L 331.919702 113.26193 
L 358.228447 108.109779 
L 384.537192 103.468556 
L 410.845938 96.91081 
L 437.154683 88.340284 
L 463.463428 77.983074 
L 489.772173 73.403658 
L 516.080918 73.08561 
L 542.389664 66.266831 
L 568.698409 61.866707 
L 595.007154 58.670879 
L 621.315899 50.939517 
L 647.624645 45.758761 
L 673.93339 36.76174 
L 700.242135 34.414125 
" clip-path="url(#p144e2cdad2)" style="fill: none; stroke: #2196f3; stroke-opacity: 0.6; stroke-width: 0.6; stroke-linecap: square"/>
    <g clip-path="url(#p144e2cdad2)">
     <use xlink:href="#ma3705fd658" x="95.140995" y="178.87164" style="fill: #2196f3; fill-opacity: 0.6; stroke: #2196f3; stroke-opacity: 0.6"/>
     <use xlink:href="#ma3705fd658" x="121.44974" y="175.489473" style="fill: #2196f3; fill-opacity: 0.6; stroke: #2196f3; stroke-opacity: 0.6"/>
     <use xlink:href="#ma3705fd658" x="147.758485" y="170.184231" style="fill: #2196f3; fill-opacity: 0.6; stroke: #2196f3; stroke-opacity: 0.6"/>
     <use xlink:href="#ma3705fd658" x="174.06723" y="160.380885" style="fill: #2196f3; fill-opacity: 0.6; stroke: #2196f3; stroke-opacity: 0.6"/>
     <use xlink:href="#ma3705fd658" x="200.375976" y="161.820559" style="fill: #2196f3; fill-opacity: 0.6; stroke: #2196f3; stroke-opacity: 0.6"/>
     <use xlink:href="#ma3705fd658" x="226.684721" y="149.472179" style="fill: #2196f3; fill-opacity: 0.6; stroke: #2196f3; stroke-opacity: 0.6"/>
     <use xlink:href="#ma3705fd658" x="252.993466" y="137.902766" style="fill: #2196f3; fill-opacity: 0.6; stroke: #2196f3; stroke-opacity: 0.6"/>
     <use xlink:href="#ma3705fd658" x="279.302211" y="128.462023" style="fill: #2196f3; fill-opacity: 0.6; stroke: #2196f3; stroke-opacity: 0.6"/>
     <use xlink:href="#ma3705fd658" x="305.610957" y="120.461841" style="fill: #2196f3; fill-opacity: 0.6; stroke: #2196f3; stroke-opacity: 0.6"/>
     <use xlink:href="#ma3705fd658" x="331.919702" y="113.26193" style="fill: #2196f3; fill-opacity: 0.6; stroke: #2196f3; stroke-opacity: 0.6"/>
     <use xlink:href="#ma3705fd658" x="358.228447" y="108.109779" style="fill: #2196f3; fill-opacity: 0.6; stroke: #2196f3; stroke-opacity: 0.6"/>
     <use xlink:href="#ma3705fd658" x="384.537192" y="103.468556" style="fill: #2196f3; fill-opacity: 0.6; stroke: #2196f3; stroke-opacity: 0.6"/>
     <use xlink:href="#ma3705fd658" x="410.845938" y="96.91081" style="fill: #2196f3; fill-opacity: 0.6; stroke: #2196f3; stroke-opacity: 0.6"/>
     <use xlink:href="#ma3705fd658" x="437.154683" y="88.340284" style="fill: #2196f3; fill-opacity: 0.6; stroke: #2196f3; stroke-opacity: 0.6"/>
     <use xlink:href="#ma3705fd658" x="463.463428" y="77.983074" style="fill: #2196f3; fill-opacity: 0.6; stroke: #2196f3; stroke-opacity: 0.6"/>
     <use xlink:href="#ma3705fd658" x="489.772173" y="73.403658" style="fill: #2196f3; fill-opacity: 0.6; stroke: #2196f3; stroke-opacity: 0.6"/>
     <use xlink:href="#ma3705fd658" x="516.080918" y="73.08561" style="fill: #2196f3; fill-opacity: 0.6; stroke: #2196f3; stroke-opacity: 0.6"/>
     <use xlink:href="#ma3705fd658" x="542.389664" y="66.266831" style="fill: #2196f3; fill-opacity: 0.6; stroke: #2196f3; stroke-opacity: 0.6"/>
     <use xlink:href="#ma3705fd658" x="568.698409" y="61.866707" style="fill: #2196f3; fill-opacity: 0.6; stroke: #2196f3; stroke-opacity: 0.6"/>
     <use xlink:href="#ma3705fd658" x="595.007154" y="58.670879" style="fill: #2196f3; fill-opacity: 0.6; stroke: #2196f3; stroke-opacity: 0.6"/>
     <use xlink:href="#ma3705fd658" x="621.315899" y="50.939517" style="fill: #2196f3; fill-opacity: 0.6; stroke: #2196f3; stroke-opacity: 0.6"/>
     <use xlink:href="#ma3705fd658" x="647.624645" y="45.758761" style="fill: #2196f3; fill-opacity: 0.6; stroke: #2196f3; stroke-opacity: 0.6"/>
     <use xlink:href="#ma3705fd658" x="673.93339" y="36.76174" style="fill: #2196f3; fill-opacity: 0.6; stroke: #2196f3; stroke-opacity: 0.6"/>
     <use xlink:href="#ma3705fd658" x="700.242135" y="34.414125" style="fill: #2196f3; fill-opacity: 0.6; stroke: #2196f3; stroke-opacity: 0.6"/>
    </g>
   </g>
   <g id="line2d_24">
    <path d="M 95.140995 217.179302 
L 121.44974 202.439194 
L 147.758485 196.748582 
L 174.06723 195.129502 
L 200.375976 193.056457 
L 226.684721 192.800512 
L 252.993466 194.141128 
L 279.302211 192.639237 
L 305.610957 181.903649 
L 331.919702 178.611499 
L 358.228447 178.611499 
L 384.537192 181.986235 
L 410.845938 183.567502 
L 437.154683 183.161244 
L 463.463428 177.671969 
L 489.772173 177.671969 
L 516.080918 175.953045 
L 542.389664 171.583348 
L 568.698409 164.431444 
L 595.007154 161.256162 
L 621.315899 156.673851 
L 647.624645 152.49314 
L 673.93339 142.017025 
L 700.242135 129.8105 
" clip-path="url(#p144e2cdad2)" style="fill: none; stroke: #2196f3; stroke-opacity: 0.6; stroke-width: 0.6; stroke-linecap: square"/>
    <g clip-path="url(#p144e2cdad2)">
     <use xlink:href="#ma3705fd658" x="95.140995" y="217.179302" style="fill: #2196f3; fill-opacity: 0.6; stroke: #2196f3; stroke-opacity: 0.6"/>
     <use xlink:href="#ma3705fd658" x="121.44974" y="202.439194" style="fill: #2196f3; fill-opacity: 0.6; stroke: #2196f3; stroke-opacity: 0.6"/>
     <use xlink:href="#ma3705fd658" x="147.758485" y="196.748582" style="fill: #2196f3; fill-opacity: 0.6; stroke: #2196f3; stroke-opacity: 0.6"/>
     <use xlink:href="#ma3705fd658" x="174.06723" y="195.129502" style="fill: #2196f3; fill-opacity: 0.6; stroke: #2196f3; stroke-opacity: 0.6"/>
     <use xlink:href="#ma3705fd658" x="200.375976" y="193.056457" style="fill: #2196f3; fill-opacity: 0.6; stroke: #2196f3; stroke-opacity: 0.6"/>
     <use xlink:href="#ma3705fd658" x="226.684721" y="192.800512" style="fill: #2196f3; fill-opacity: 0.6; stroke: #2196f3; stroke-opacity: 0.6"/>
     <use xlink:href="#ma3705fd658" x="252.993466" y="194.141128" style="fill: #2196f3; fill-opacity: 0.6; stroke: #2196f3; stroke-opacity: 0.6"/>
     <use xlink:href="#ma3705fd658" x="279.302211" y="192.639237" style="fill: #2196f3; fill-opacity: 0.6; stroke: #2196f3; stroke-opacity: 0.6"/>
     <use xlink:href="#ma3705fd658" x="305.610957" y="181.903649" style="fill: #2196f3; fill-opacity: 0.6; stroke: #2196f3; stroke-opacity: 0.6"/>
     <use xlink:href="#ma3705fd658" x="331.919702" y="178.611499" style="fill: #2196f3; fill-opacity: 0.6; stroke: #2196f3; stroke-opacity: 0.6"/>
     <use xlink:href="#ma3705fd658" x="358.228447" y="178.611499" style="fill: #2196f3; fill-opacity: 0.6; stroke: #2196f3; stroke-opacity: 0.6"/>
     <use xlink:href="#ma3705fd658" x="384.537192" y="181.986235" style="fill: #2196f3; fill-opacity: 0.6; stroke: #2196f3; stroke-opacity: 0.6"/>
     <use xlink:href="#ma3705fd658" x="410.845938" y="183.567502" style="fill: #2196f3; fill-opacity: 0.6; stroke: #2196f3; stroke-opacity: 0.6"/>
     <use xlink:href="#ma3705fd658" x="437.154683" y="183.161244" style="fill: #2196f3; fill-opacity: 0.6; stroke: #2196f3; stroke-opacity: 0.6"/>
     <use xlink:href="#ma3705fd658" x="463.463428" y="177.671969" style="fill: #2196f3; fill-opacity: 0.6; stroke: #2196f3; stroke-opacity: 0.6"/>
     <use xlink:href="#ma3705fd658" x="489.772173" y="177.671969" style="fill: #2196f3; fill-opacity: 0.6; stroke: #2196f3; stroke-opacity: 0.6"/>
     <use xlink:href="#ma3705fd658" x="516.080918" y="175.953045" style="fill: #2196f3; fill-opacity: 0.6; stroke: #2196f3; stroke-opacity: 0.6"/>
     <use xlink:href="#ma3705fd658" x="542.389664" y="171.583348" style="fill: #2196f3; fill-opacity: 0.6; stroke: #2196f3; stroke-opacity: 0.6"/>
     <use xlink:href="#ma3705fd658" x="568.698409" y="164.431444" style="fill: #2196f3; fill-opacity: 0.6; stroke: #2196f3; stroke-opacity: 0.6"/>
     <use xlink:href="#ma3705fd658" x="595.007154" y="161.256162" style="fill: #2196f3; fill-opacity: 0.6; stroke: #2196f3; stroke-opacity: 0.6"/>
     <use xlink:href="#ma3705fd658" x="621.315899" y="156.673851" style="fill: #2196f3; fill-opacity: 0.6; stroke: #2196f3; stroke-opacity: 0.6"/>
     <use xlink:href="#ma3705fd658" x="647.624645" y="152.49314" style="fill: #2196f3; fill-opacity: 0.6; stroke: #2196f3; stroke-opacity: 0.6"/>
     <use xlink:href="#ma3705fd658" x="673.93339" y="142.017025" style="fill: #2196f3; fill-opacity: 0.6; stroke: #2196f3; stroke-opacity: 0.6"/>
     <use xlink:href="#ma3705fd658" x="700.242135" y="129.8105" style="fill: #2196f3; fill-opacity: 0.6; stroke: #2196f3; stroke-opacity: 0.6"/>
    </g>
   </g>
   <g id="line2d_25">
    <path d="M 95.140995 240.321767 
L 121.44974 237.222954 
L 147.758485 230.774261 
L 174.06723 224.128091 
L 200.375976 211.647437 
L 226.684721 201.544535 
L 252.993466 192.588871 
L 279.302211 186.058644 
L 305.610957 183.184507 
L 331.919702 179.625855 
L 358.228447 172.517074 
L 384.537192 163.743085 
L 410.845938 162.22009 
L 437.154683 161.971592 
L 463.463428 149.593626 
L 489.772173 139.871653 
L 516.080918 135.644059 
L 542.389664 135.644059 
L 568.698409 128.121201 
L 595.007154 126.224284 
L 621.315899 126.224284 
L 647.624645 119.98715 
L 673.93339 118.143833 
L 700.242135 119.00405 
" clip-path="url(#p144e2cdad2)" style="fill: none; stroke: #2196f3; stroke-opacity: 0.6; stroke-width: 0.6; stroke-linecap: square"/>
    <g clip-path="url(#p144e2cdad2)">
     <use xlink:href="#ma3705fd658" x="95.140995" y="240.321767" style="fill: #2196f3; fill-opacity: 0.6; stroke: #2196f3; stroke-opacity: 0.6"/>
     <use xlink:href="#ma3705fd658" x="121.44974" y="237.222954" style="fill: #2196f3; fill-opacity: 0.6; stroke: #2196f3; stroke-opacity: 0.6"/>
     <use xlink:href="#ma3705fd658" x="147.758485" y="230.774261" style="fill: #2196f3; fill-opacity: 0.6; stroke: #2196f3; stroke-opacity: 0.6"/>
     <use xlink:href="#ma3705fd658" x="174.06723" y="224.128091" style="fill: #2196f3; fill-opacity: 0.6; stroke: #2196f3; stroke-opacity: 0.6"/>
     <use xlink:href="#ma3705fd658" x="200.375976" y="211.647437" style="fill: #2196f3; fill-opacity: 0.6; stroke: #2196f3; stroke-opacity: 0.6"/>
     <use xlink:href="#ma3705fd658" x="226.684721" y="201.544535" style="fill: #2196f3; fill-opacity: 0.6; stroke: #2196f3; stroke-opacity: 0.6"/>
     <use xlink:href="#ma3705fd658" x="252.993466" y="192.588871" style="fill: #2196f3; fill-opacity: 0.6; stroke: #2196f3; stroke-opacity: 0.6"/>
     <use xlink:href="#ma3705fd658" x="279.302211" y="186.058644" style="fill: #2196f3; fill-opacity: 0.6; stroke: #2196f3; stroke-opacity: 0.6"/>
     <use xlink:href="#ma3705fd658" x="305.610957" y="183.184507" style="fill: #2196f3; fill-opacity: 0.6; stroke: #2196f3; stroke-opacity: 0.6"/>
     <use xlink:href="#ma3705fd658" x="331.919702" y="179.625855" style="fill: #2196f3; fill-opacity: 0.6; stroke: #2196f3; stroke-opacity: 0.6"/>
     <use xlink:href="#ma3705fd658" x="358.228447" y="172.517074" style="fill: #2196f3; fill-opacity: 0.6; stroke: #2196f3; stroke-opacity: 0.6"/>
     <use xlink:href="#ma3705fd658" x="384.537192" y="163.743085" style="fill: #2196f3; fill-opacity: 0.6; stroke: #2196f3; stroke-opacity: 0.6"/>
     <use xlink:href="#ma3705fd658" x="410.845938" y="162.22009" style="fill: #2196f3; fill-opacity: 0.6; stroke: #2196f3; stroke-opacity: 0.6"/>
     <use xlink:href="#ma3705fd658" x="437.154683" y="161.971592" style="fill: #2196f3; fill-opacity: 0.6; stroke: #2196f3; stroke-opacity: 0.6"/>
     <use xlink:href="#ma3705fd658" x="463.463428" y="149.593626" style="fill: #2196f3; fill-opacity: 0.6; stroke: #2196f3; stroke-opacity: 0.6"/>
     <use xlink:href="#ma3705fd658" x="489.772173" y="139.871653" style="fill: #2196f3; fill-opacity: 0.6; stroke: #2196f3; stroke-opacity: 0.6"/>
     <use xlink:href="#ma3705fd658" x="516.080918" y="135.644059" style="fill: #2196f3; fill-opacity: 0.6; stroke: #2196f3; stroke-opacity: 0.6"/>
     <use xlink:href="#ma3705fd658" x="542.389664" y="135.644059" style="fill: #2196f3; fill-opacity: 0.6; stroke: #2196f3; stroke-opacity: 0.6"/>
     <use xlink:href="#ma3705fd658" x="568.698409" y="128.121201" style="fill: #2196f3; fill-opacity: 0.6; stroke: #2196f3; stroke-opacity: 0.6"/>
     <use xlink:href="#ma3705fd658" x="595.007154" y="126.224284" style="fill: #2196f3; fill-opacity: 0.6; stroke: #2196f3; stroke-opacity: 0.6"/>
     <use xlink:href="#ma3705fd658" x="621.315899" y="126.224284" style="fill: #2196f3; fill-opacity: 0.6; stroke: #2196f3; stroke-opacity: 0.6"/>
     <use xlink:href="#ma3705fd658" x="647.624645" y="119.98715" style="fill: #2196f3; fill-opacity: 0.6; stroke: #2196f3; stroke-opacity: 0.6"/>
     <use xlink:href="#ma3705fd658" x="673.93339" y="118.143833" style="fill: #2196f3; fill-opacity: 0.6; stroke: #2196f3; stroke-opacity: 0.6"/>
     <use xlink:href="#ma3705fd658" x="700.242135" y="119.00405" style="fill: #2196f3; fill-opacity: 0.6; stroke: #2196f3; stroke-opacity: 0.6"/>
    </g>
   </g>
   <g id="patch_3">
    <path d="M 64.885938 288.430125 
L 64.885938 22.318125 
" style="fill: none"/>
   </g>
   <g id="patch_4">
    <path d="M 756.805938 288.430125 
L 756.805938 22.318125 
" style="fill: none"/>
   </g>
   <g id="patch_5">
    <path d="M 64.885938 288.430125 
L 756.805938 288.430125 
" style="fill: none"/>
   </g>
   <g id="patch_6">
    <path d="M 64.885938 22.318125 
L 756.805938 22.318125 
" style="fill: none"/>
   </g>
   <g id="text_12">
    <!-- Evaluate -->
    <g style="fill: #666666" transform="translate(384.63625 16.318125) scale(0.12 -0.12)">
     <defs>
      <path id="DejaVuSans-45" d="M 628 4666 
L 3578 4666 
L 3578 4134 
L 1259 4134 
L 1259 2753 
L 3481 2753 
L 3481 2222 
L 1259 2222 
L 1259 531 
L 3634 531 
L 3634 0 
L 628 0 
L 628 4666 
z
" transform="scale(0.015625)"/>
      <path id="DejaVuSans-76" d="M 191 3500 
L 800 3500 
L 1894 563 
L 2988 3500 
L 3597 3500 
L 2284 0 
L 1503 0 
L 191 3500 
z
" transform="scale(0.015625)"/>
      <path id="DejaVuSans-75" d="M 544 1381 
L 544 3500 
L 1119 3500 
L 1119 1403 
Q 1119 906 1312 657 
Q 1506 409 1894 409 
Q 2359 409 2629 706 
Q 2900 1003 2900 1516 
L 2900 3500 
L 3475 3500 
L 3475 0 
L 2900 0 
L 2900 538 
Q 2691 219 2414 64 
Q 2138 -91 1772 -91 
Q 1169 -91 856 284 
Q 544 659 544 1381 
z
M 1991 3584 
L 1991 3584 
z
" transform="scale(0.015625)"/>
      <path id="DejaVuSans-74" d="M 1172 4494 
L 1172 3500 
L 2356 3500 
L 2356 3053 
L 1172 3053 
L 1172 1153 
Q 1172 725 1289 603 
Q 1406 481 1766 481 
L 2356 481 
L 2356 0 
L 1766 0 
Q 1100 0 847 248 
Q 594 497 594 1153 
L 594 3053 
L 172 3053 
L 172 3500 
L 594 3500 
L 594 4494 
L 1172 4494 
z
" transform="scale(0.015625)"/>
      <path id="DejaVuSans-65" d="M 3597 1894 
L 3597 1613 
L 953 1613 
Q 991 1019 1311 708 
Q 1631 397 2203 397 
Q 2534 397 2845 478 
Q 3156 559 3463 722 
L 3463 178 
Q 3153 47 2828 -22 
Q 2503 -91 2169 -91 
Q 1331 -91 842 396 
Q 353 884 353 1716 
Q 353 2575 817 3079 
Q 1281 3584 2069 3584 
Q 2775 3584 3186 3129 
Q 3597 2675 3597 1894 
z
M 3022 2063 
Q 3016 2534 2758 2815 
Q 2500 3097 2075 3097 
Q 1594 3097 1305 2825 
Q 1016 2553 972 2059 
L 3022 2063 
z
" transform="scale(0.015625)"/>
     </defs>
     <use xlink:href="#DejaVuSans-45"/>
     <use xlink:href="#DejaVuSans-76" x="63.183594"/>
     <use xlink:href="#DejaVuSans-61" x="122.363281"/>
     <use xlink:href="#DejaVuSans-6c" x="183.642578"/>
     <use xlink:href="#DejaVuSans-75" x="211.425781"/>
     <use xlink:href="#DejaVuSans-61" x="274.804688"/>
     <use xlink:href="#DejaVuSans-74" x="336.083984"/>
     <use xlink:href="#DejaVuSans-65" x="375.292969"/>
    </g>
   </g>
  </g>
 </g>
 <defs>
  <clipPath id="p144e2cdad2">
   <rect x="64.885938" y="22.318125" width="691.92" height="266.112"/>
  </clipPath>
 </defs>
</svg>
