<?xml version="1.0" encoding="utf-8" standalone="no"?>
<!DOCTYPE svg PUBLIC "-//W3C//DTD SVG 1.1//EN"
  "http://www.w3.org/Graphics/SVG/1.1/DTD/svg11.dtd">
<svg xmlns:xlink="http://www.w3.org/1999/xlink" width="748.102813pt" height="312.30825pt" viewBox="0 0 748.102813 312.30825" xmlns="http://www.w3.org/2000/svg" version="1.1">
 <metadata>
  <rdf:RDF xmlns:dc="http://purl.org/dc/elements/1.1/" xmlns:cc="http://creativecommons.org/ns#" xmlns:rdf="http://www.w3.org/1999/02/22-rdf-syntax-ns#">
   <cc:Work>
    <dc:type rdf:resource="http://purl.org/dc/dcmitype/StillImage"/>
    <dc:date>2023-07-10T07:57:07.089616</dc:date>
    <dc:format>image/svg+xml</dc:format>
    <dc:creator>
     <cc:Agent>
      <dc:title>Matplotlib v3.7.1, https://matplotlib.org/</dc:title>
     </cc:Agent>
    </dc:creator>
   </cc:Work>
  </rdf:RDF>
 </metadata>
 <defs>
  <style type="text/css">*{stroke-linejoin: round; stroke-linecap: butt}</style>
 </defs>
 <g id="figure_1">
  <g id="patch_1">
   <path d="M -0 312.30825 
L 748.102813 312.30825 
L 748.102813 0 
L -0 0 
L -0 312.30825 
z
" style="fill: none"/>
  </g>
  <g id="axes_1">
   <g id="patch_2">
    <path d="M 48.982813 288.430125 
L 740.902813 288.430125 
L 740.902813 22.318125 
L 48.982813 22.318125 
L 48.982813 288.430125 
z
" style="fill: none"/>
   </g>
   <g id="matplotlib.axis_1">
    <g id="xtick_1">
     <g id="line2d_1">
      <path d="M 80.433722 288.430125 
L 80.433722 22.318125 
" clip-path="url(#p9bb52c4c79)" style="fill: none; stroke-dasharray: 1.85,0.8; stroke-dashoffset: 0; stroke: #666666; stroke-opacity: 0.4; stroke-width: 0.5"/>
     </g>
     <g id="line2d_2">
      <defs>
       <path id="md09579c2cb" d="M 0 0 
L 0 3.5 
" style="stroke: #000000; stroke-opacity: 0; stroke-width: 0.8"/>
      </defs>
      <g>
       <use xlink:href="#md09579c2cb" x="80.433722" y="288.430125" style="fill-opacity: 0; stroke: #000000; stroke-opacity: 0; stroke-width: 0.8"/>
      </g>
     </g>
     <g id="text_1">
      <!-- 0 -->
      <g style="fill: #666666" transform="translate(77.252472 303.028562) scale(0.1 -0.1)">
       <defs>
        <path id="DejaVuSans-30" d="M 2034 4250 
Q 1547 4250 1301 3770 
Q 1056 3291 1056 2328 
Q 1056 1369 1301 889 
Q 1547 409 2034 409 
Q 2525 409 2770 889 
Q 3016 1369 3016 2328 
Q 3016 3291 2770 3770 
Q 2525 4250 2034 4250 
z
M 2034 4750 
Q 2819 4750 3233 4129 
Q 3647 3509 3647 2328 
Q 3647 1150 3233 529 
Q 2819 -91 2034 -91 
Q 1250 -91 836 529 
Q 422 1150 422 2328 
Q 422 3509 836 4129 
Q 1250 4750 2034 4750 
z
" transform="scale(0.015625)"/>
       </defs>
       <use xlink:href="#DejaVuSans-30"/>
      </g>
     </g>
    </g>
    <g id="xtick_2">
     <g id="line2d_3">
      <path d="M 217.176805 288.430125 
L 217.176805 22.318125 
" clip-path="url(#p9bb52c4c79)" style="fill: none; stroke-dasharray: 1.85,0.8; stroke-dashoffset: 0; stroke: #666666; stroke-opacity: 0.4; stroke-width: 0.5"/>
     </g>
     <g id="line2d_4">
      <g>
       <use xlink:href="#md09579c2cb" x="217.176805" y="288.430125" style="fill-opacity: 0; stroke: #000000; stroke-opacity: 0; stroke-width: 0.8"/>
      </g>
     </g>
     <g id="text_2">
      <!-- 5 -->
      <g style="fill: #666666" transform="translate(213.995555 303.028562) scale(0.1 -0.1)">
       <defs>
        <path id="DejaVuSans-35" d="M 691 4666 
L 3169 4666 
L 3169 4134 
L 1269 4134 
L 1269 2991 
Q 1406 3038 1543 3061 
Q 1681 3084 1819 3084 
Q 2600 3084 3056 2656 
Q 3513 2228 3513 1497 
Q 3513 744 3044 326 
Q 2575 -91 1722 -91 
Q 1428 -91 1123 -41 
Q 819 9 494 109 
L 494 744 
Q 775 591 1075 516 
Q 1375 441 1709 441 
Q 2250 441 2565 725 
Q 2881 1009 2881 1497 
Q 2881 1984 2565 2268 
Q 2250 2553 1709 2553 
Q 1456 2553 1204 2497 
Q 953 2441 691 2322 
L 691 4666 
z
" transform="scale(0.015625)"/>
       </defs>
       <use xlink:href="#DejaVuSans-35"/>
      </g>
     </g>
    </g>
    <g id="xtick_3">
     <g id="line2d_5">
      <path d="M 353.919888 288.430125 
L 353.919888 22.318125 
" clip-path="url(#p9bb52c4c79)" style="fill: none; stroke-dasharray: 1.85,0.8; stroke-dashoffset: 0; stroke: #666666; stroke-opacity: 0.4; stroke-width: 0.5"/>
     </g>
     <g id="line2d_6">
      <g>
       <use xlink:href="#md09579c2cb" x="353.919888" y="288.430125" style="fill-opacity: 0; stroke: #000000; stroke-opacity: 0; stroke-width: 0.8"/>
      </g>
     </g>
     <g id="text_3">
      <!-- 10 -->
      <g style="fill: #666666" transform="translate(347.557388 303.028562) scale(0.1 -0.1)">
       <defs>
        <path id="DejaVuSans-31" d="M 794 531 
L 1825 531 
L 1825 4091 
L 703 3866 
L 703 4441 
L 1819 4666 
L 2450 4666 
L 2450 531 
L 3481 531 
L 3481 0 
L 794 0 
L 794 531 
z
" transform="scale(0.015625)"/>
       </defs>
       <use xlink:href="#DejaVuSans-31"/>
       <use xlink:href="#DejaVuSans-30" x="63.623047"/>
      </g>
     </g>
    </g>
    <g id="xtick_4">
     <g id="line2d_7">
      <path d="M 490.662971 288.430125 
L 490.662971 22.318125 
" clip-path="url(#p9bb52c4c79)" style="fill: none; stroke-dasharray: 1.85,0.8; stroke-dashoffset: 0; stroke: #666666; stroke-opacity: 0.4; stroke-width: 0.5"/>
     </g>
     <g id="line2d_8">
      <g>
       <use xlink:href="#md09579c2cb" x="490.662971" y="288.430125" style="fill-opacity: 0; stroke: #000000; stroke-opacity: 0; stroke-width: 0.8"/>
      </g>
     </g>
     <g id="text_4">
      <!-- 15 -->
      <g style="fill: #666666" transform="translate(484.300471 303.028562) scale(0.1 -0.1)">
       <use xlink:href="#DejaVuSans-31"/>
       <use xlink:href="#DejaVuSans-35" x="63.623047"/>
      </g>
     </g>
    </g>
    <g id="xtick_5">
     <g id="line2d_9">
      <path d="M 627.406054 288.430125 
L 627.406054 22.318125 
" clip-path="url(#p9bb52c4c79)" style="fill: none; stroke-dasharray: 1.85,0.8; stroke-dashoffset: 0; stroke: #666666; stroke-opacity: 0.4; stroke-width: 0.5"/>
     </g>
     <g id="line2d_10">
      <g>
       <use xlink:href="#md09579c2cb" x="627.406054" y="288.430125" style="fill-opacity: 0; stroke: #000000; stroke-opacity: 0; stroke-width: 0.8"/>
      </g>
     </g>
     <g id="text_5">
      <!-- 20 -->
      <g style="fill: #666666" transform="translate(621.043554 303.028562) scale(0.1 -0.1)">
       <defs>
        <path id="DejaVuSans-32" d="M 1228 531 
L 3431 531 
L 3431 0 
L 469 0 
L 469 531 
Q 828 903 1448 1529 
Q 2069 2156 2228 2338 
Q 2531 2678 2651 2914 
Q 2772 3150 2772 3378 
Q 2772 3750 2511 3984 
Q 2250 4219 1831 4219 
Q 1534 4219 1204 4116 
Q 875 4013 500 3803 
L 500 4441 
Q 881 4594 1212 4672 
Q 1544 4750 1819 4750 
Q 2544 4750 2975 4387 
Q 3406 4025 3406 3419 
Q 3406 3131 3298 2873 
Q 3191 2616 2906 2266 
Q 2828 2175 2409 1742 
Q 1991 1309 1228 531 
z
" transform="scale(0.015625)"/>
       </defs>
       <use xlink:href="#DejaVuSans-32"/>
       <use xlink:href="#DejaVuSans-30" x="63.623047"/>
      </g>
     </g>
    </g>
   </g>
   <g id="matplotlib.axis_2">
    <g id="ytick_1">
     <g id="line2d_11">
      <path d="M 48.982813 278.940866 
L 740.902813 278.940866 
" clip-path="url(#p9bb52c4c79)" style="fill: none; stroke-dasharray: 1.85,0.8; stroke-dashoffset: 0; stroke: #666666; stroke-opacity: 0.4; stroke-width: 0.5"/>
     </g>
     <g id="line2d_12">
      <defs>
       <path id="m21b2035f35" d="M 0 0 
L -3.5 0 
" style="stroke: #000000; stroke-opacity: 0; stroke-width: 0.8"/>
      </defs>
      <g>
       <use xlink:href="#m21b2035f35" x="48.982813" y="278.940866" style="fill-opacity: 0; stroke: #000000; stroke-opacity: 0; stroke-width: 0.8"/>
      </g>
     </g>
     <g id="text_6">
      <!-- −75 -->
      <g style="fill: #666666" transform="translate(20.878125 282.740084) scale(0.1 -0.1)">
       <defs>
        <path id="DejaVuSans-2212" d="M 678 2272 
L 4684 2272 
L 4684 1741 
L 678 1741 
L 678 2272 
z
" transform="scale(0.015625)"/>
        <path id="DejaVuSans-37" d="M 525 4666 
L 3525 4666 
L 3525 4397 
L 1831 0 
L 1172 0 
L 2766 4134 
L 525 4134 
L 525 4666 
z
" transform="scale(0.015625)"/>
       </defs>
       <use xlink:href="#DejaVuSans-2212"/>
       <use xlink:href="#DejaVuSans-37" x="83.789062"/>
       <use xlink:href="#DejaVuSans-35" x="147.412109"/>
      </g>
     </g>
    </g>
    <g id="ytick_2">
     <g id="line2d_13">
      <path d="M 48.982813 244.891209 
L 740.902813 244.891209 
" clip-path="url(#p9bb52c4c79)" style="fill: none; stroke-dasharray: 1.85,0.8; stroke-dashoffset: 0; stroke: #666666; stroke-opacity: 0.4; stroke-width: 0.5"/>
     </g>
     <g id="line2d_14">
      <g>
       <use xlink:href="#m21b2035f35" x="48.982813" y="244.891209" style="fill-opacity: 0; stroke: #000000; stroke-opacity: 0; stroke-width: 0.8"/>
      </g>
     </g>
     <g id="text_7">
      <!-- −50 -->
      <g style="fill: #666666" transform="translate(20.878125 248.690428) scale(0.1 -0.1)">
       <use xlink:href="#DejaVuSans-2212"/>
       <use xlink:href="#DejaVuSans-35" x="83.789062"/>
       <use xlink:href="#DejaVuSans-30" x="147.412109"/>
      </g>
     </g>
    </g>
    <g id="ytick_3">
     <g id="line2d_15">
      <path d="M 48.982813 210.841553 
L 740.902813 210.841553 
" clip-path="url(#p9bb52c4c79)" style="fill: none; stroke-dasharray: 1.85,0.8; stroke-dashoffset: 0; stroke: #666666; stroke-opacity: 0.4; stroke-width: 0.5"/>
     </g>
     <g id="line2d_16">
      <g>
       <use xlink:href="#m21b2035f35" x="48.982813" y="210.841553" style="fill-opacity: 0; stroke: #000000; stroke-opacity: 0; stroke-width: 0.8"/>
      </g>
     </g>
     <g id="text_8">
      <!-- −25 -->
      <g style="fill: #666666" transform="translate(20.878125 214.640771) scale(0.1 -0.1)">
       <use xlink:href="#DejaVuSans-2212"/>
       <use xlink:href="#DejaVuSans-32" x="83.789062"/>
       <use xlink:href="#DejaVuSans-35" x="147.412109"/>
      </g>
     </g>
    </g>
    <g id="ytick_4">
     <g id="line2d_17">
      <path d="M 48.982813 176.791896 
L 740.902813 176.791896 
" clip-path="url(#p9bb52c4c79)" style="fill: none; stroke-dasharray: 1.85,0.8; stroke-dashoffset: 0; stroke: #666666; stroke-opacity: 0.4; stroke-width: 0.5"/>
     </g>
     <g id="line2d_18">
      <g>
       <use xlink:href="#m21b2035f35" x="48.982813" y="176.791896" style="fill-opacity: 0; stroke: #000000; stroke-opacity: 0; stroke-width: 0.8"/>
      </g>
     </g>
     <g id="text_9">
      <!-- 0 -->
      <g style="fill: #666666" transform="translate(35.620313 180.591115) scale(0.1 -0.1)">
       <use xlink:href="#DejaVuSans-30"/>
      </g>
     </g>
    </g>
    <g id="ytick_5">
     <g id="line2d_19">
      <path d="M 48.982813 142.74224 
L 740.902813 142.74224 
" clip-path="url(#p9bb52c4c79)" style="fill: none; stroke-dasharray: 1.85,0.8; stroke-dashoffset: 0; stroke: #666666; stroke-opacity: 0.4; stroke-width: 0.5"/>
     </g>
     <g id="line2d_20">
      <g>
       <use xlink:href="#m21b2035f35" x="48.982813" y="142.74224" style="fill-opacity: 0; stroke: #000000; stroke-opacity: 0; stroke-width: 0.8"/>
      </g>
     </g>
     <g id="text_10">
      <!-- 25 -->
      <g style="fill: #666666" transform="translate(29.257813 146.541459) scale(0.1 -0.1)">
       <use xlink:href="#DejaVuSans-32"/>
       <use xlink:href="#DejaVuSans-35" x="63.623047"/>
      </g>
     </g>
    </g>
    <g id="ytick_6">
     <g id="line2d_21">
      <path d="M 48.982813 108.692583 
L 740.902813 108.692583 
" clip-path="url(#p9bb52c4c79)" style="fill: none; stroke-dasharray: 1.85,0.8; stroke-dashoffset: 0; stroke: #666666; stroke-opacity: 0.4; stroke-width: 0.5"/>
     </g>
     <g id="line2d_22">
      <g>
       <use xlink:href="#m21b2035f35" x="48.982813" y="108.692583" style="fill-opacity: 0; stroke: #000000; stroke-opacity: 0; stroke-width: 0.8"/>
      </g>
     </g>
     <g id="text_11">
      <!-- 50 -->
      <g style="fill: #666666" transform="translate(29.257813 112.491802) scale(0.1 -0.1)">
       <use xlink:href="#DejaVuSans-35"/>
       <use xlink:href="#DejaVuSans-30" x="63.623047"/>
      </g>
     </g>
    </g>
    <g id="ytick_7">
     <g id="line2d_23">
      <path d="M 48.982813 74.642927 
L 740.902813 74.642927 
" clip-path="url(#p9bb52c4c79)" style="fill: none; stroke-dasharray: 1.85,0.8; stroke-dashoffset: 0; stroke: #666666; stroke-opacity: 0.4; stroke-width: 0.5"/>
     </g>
     <g id="line2d_24">
      <g>
       <use xlink:href="#m21b2035f35" x="48.982813" y="74.642927" style="fill-opacity: 0; stroke: #000000; stroke-opacity: 0; stroke-width: 0.8"/>
      </g>
     </g>
     <g id="text_12">
      <!-- 75 -->
      <g style="fill: #666666" transform="translate(29.257813 78.442146) scale(0.1 -0.1)">
       <use xlink:href="#DejaVuSans-37"/>
       <use xlink:href="#DejaVuSans-35" x="63.623047"/>
      </g>
     </g>
    </g>
    <g id="ytick_8">
     <g id="line2d_25">
      <path d="M 48.982813 40.59327 
L 740.902813 40.59327 
" clip-path="url(#p9bb52c4c79)" style="fill: none; stroke-dasharray: 1.85,0.8; stroke-dashoffset: 0; stroke: #666666; stroke-opacity: 0.4; stroke-width: 0.5"/>
     </g>
     <g id="line2d_26">
      <g>
       <use xlink:href="#m21b2035f35" x="48.982813" y="40.59327" style="fill-opacity: 0; stroke: #000000; stroke-opacity: 0; stroke-width: 0.8"/>
      </g>
     </g>
     <g id="text_13">
      <!-- 100 -->
      <g style="fill: #666666" transform="translate(22.895313 44.392489) scale(0.1 -0.1)">
       <use xlink:href="#DejaVuSans-31"/>
       <use xlink:href="#DejaVuSans-30" x="63.623047"/>
       <use xlink:href="#DejaVuSans-30" x="127.246094"/>
      </g>
     </g>
    </g>
    <g id="text_14">
     <!-- logprob -->
     <g style="fill: #bdbdbd" transform="translate(14.798438 174.347562) rotate(-90) scale(0.1 -0.1)">
      <defs>
       <path id="DejaVuSans-6c" d="M 603 4863 
L 1178 4863 
L 1178 0 
L 603 0 
L 603 4863 
z
" transform="scale(0.015625)"/>
       <path id="DejaVuSans-6f" d="M 1959 3097 
Q 1497 3097 1228 2736 
Q 959 2375 959 1747 
Q 959 1119 1226 758 
Q 1494 397 1959 397 
Q 2419 397 2687 759 
Q 2956 1122 2956 1747 
Q 2956 2369 2687 2733 
Q 2419 3097 1959 3097 
z
M 1959 3584 
Q 2709 3584 3137 3096 
Q 3566 2609 3566 1747 
Q 3566 888 3137 398 
Q 2709 -91 1959 -91 
Q 1206 -91 779 398 
Q 353 888 353 1747 
Q 353 2609 779 3096 
Q 1206 3584 1959 3584 
z
" transform="scale(0.015625)"/>
       <path id="DejaVuSans-67" d="M 2906 1791 
Q 2906 2416 2648 2759 
Q 2391 3103 1925 3103 
Q 1463 3103 1205 2759 
Q 947 2416 947 1791 
Q 947 1169 1205 825 
Q 1463 481 1925 481 
Q 2391 481 2648 825 
Q 2906 1169 2906 1791 
z
M 3481 434 
Q 3481 -459 3084 -895 
Q 2688 -1331 1869 -1331 
Q 1566 -1331 1297 -1286 
Q 1028 -1241 775 -1147 
L 775 -588 
Q 1028 -725 1275 -790 
Q 1522 -856 1778 -856 
Q 2344 -856 2625 -561 
Q 2906 -266 2906 331 
L 2906 616 
Q 2728 306 2450 153 
Q 2172 0 1784 0 
Q 1141 0 747 490 
Q 353 981 353 1791 
Q 353 2603 747 3093 
Q 1141 3584 1784 3584 
Q 2172 3584 2450 3431 
Q 2728 3278 2906 2969 
L 2906 3500 
L 3481 3500 
L 3481 434 
z
" transform="scale(0.015625)"/>
       <path id="DejaVuSans-70" d="M 1159 525 
L 1159 -1331 
L 581 -1331 
L 581 3500 
L 1159 3500 
L 1159 2969 
Q 1341 3281 1617 3432 
Q 1894 3584 2278 3584 
Q 2916 3584 3314 3078 
Q 3713 2572 3713 1747 
Q 3713 922 3314 415 
Q 2916 -91 2278 -91 
Q 1894 -91 1617 61 
Q 1341 213 1159 525 
z
M 3116 1747 
Q 3116 2381 2855 2742 
Q 2594 3103 2138 3103 
Q 1681 3103 1420 2742 
Q 1159 2381 1159 1747 
Q 1159 1113 1420 752 
Q 1681 391 2138 391 
Q 2594 391 2855 752 
Q 3116 1113 3116 1747 
z
" transform="scale(0.015625)"/>
       <path id="DejaVuSans-72" d="M 2631 2963 
Q 2534 3019 2420 3045 
Q 2306 3072 2169 3072 
Q 1681 3072 1420 2755 
Q 1159 2438 1159 1844 
L 1159 0 
L 581 0 
L 581 3500 
L 1159 3500 
L 1159 2956 
Q 1341 3275 1631 3429 
Q 1922 3584 2338 3584 
Q 2397 3584 2469 3576 
Q 2541 3569 2628 3553 
L 2631 2963 
z
" transform="scale(0.015625)"/>
       <path id="DejaVuSans-62" d="M 3116 1747 
Q 3116 2381 2855 2742 
Q 2594 3103 2138 3103 
Q 1681 3103 1420 2742 
Q 1159 2381 1159 1747 
Q 1159 1113 1420 752 
Q 1681 391 2138 391 
Q 2594 391 2855 752 
Q 3116 1113 3116 1747 
z
M 1159 2969 
Q 1341 3281 1617 3432 
Q 1894 3584 2278 3584 
Q 2916 3584 3314 3078 
Q 3713 2572 3713 1747 
Q 3713 922 3314 415 
Q 2916 -91 2278 -91 
Q 1894 -91 1617 61 
Q 1341 213 1159 525 
L 1159 0 
L 581 0 
L 581 4863 
L 1159 4863 
L 1159 2969 
z
" transform="scale(0.015625)"/>
      </defs>
      <use xlink:href="#DejaVuSans-6c"/>
      <use xlink:href="#DejaVuSans-6f" x="27.783203"/>
      <use xlink:href="#DejaVuSans-67" x="88.964844"/>
      <use xlink:href="#DejaVuSans-70" x="152.441406"/>
      <use xlink:href="#DejaVuSans-72" x="215.917969"/>
      <use xlink:href="#DejaVuSans-6f" x="254.78125"/>
      <use xlink:href="#DejaVuSans-62" x="315.962891"/>
     </g>
    </g>
   </g>
   <g id="line2d_27">
    <path d="M 80.433722 43.631754 
L 107.782338 144.75806 
L 135.130955 200.947802 
L 162.479571 151.32086 
L 189.828188 196.014845 
L 217.176805 42.895215 
L 244.525421 101.731886 
L 271.874038 35.336921 
L 299.222654 180.103592 
L 326.571271 185.2299 
L 353.919888 61.847718 
L 381.268504 188.277017 
L 408.617121 131.12818 
L 435.965737 141.643226 
L 463.314354 271.595935 
L 490.662971 267.783442 
L 518.011587 134.789122 
L 545.360204 276.263721 
L 572.70882 188.511018 
L 600.057437 144.348718 
L 627.406054 157.681344 
L 654.75467 140.38226 
L 682.103287 182.10889 
L 709.451903 182.977058 
" clip-path="url(#p9bb52c4c79)" style="fill: none; stroke: #440154; stroke-width: 1.5; stroke-linecap: square"/>
   </g>
   <g id="line2d_28">
    <path d="M 80.433722 43.736494 
L 107.782338 144.721269 
L 135.130955 200.943317 
L 162.479571 151.388423 
L 189.828188 195.943303 
L 217.176805 42.869502 
L 244.525421 101.703813 
L 271.874038 35.218824 
L 299.222654 180.145016 
L 326.571271 185.189802 
L 353.919888 61.822056 
L 381.268504 188.14704 
L 408.617121 131.101818 
L 435.965737 141.704095 
L 463.314354 271.638008 
L 490.662971 267.733952 
L 518.011587 134.678824 
L 545.360204 276.284614 
L 572.70882 188.515486 
L 600.057437 144.37099 
L 627.406054 157.706895 
L 654.75467 140.365419 
L 682.103287 182.001371 
L 709.451903 182.974277 
" clip-path="url(#p9bb52c4c79)" style="fill: none; stroke: #482878; stroke-width: 1.5; stroke-linecap: square"/>
   </g>
   <g id="line2d_29">
    <path d="M 80.433722 43.819204 
L 107.782338 144.661786 
L 135.130955 200.915776 
L 162.479571 151.433364 
L 189.828188 195.848686 
L 217.176805 42.822065 
L 244.525421 101.652473 
L 271.874038 35.078487 
L 299.222654 180.164095 
L 326.571271 185.12726 
L 353.919888 61.774078 
L 381.268504 187.993964 
L 408.617121 131.053903 
L 435.965737 141.742603 
L 463.314354 271.656141 
L 490.662971 267.662954 
L 518.011587 134.549609 
L 545.360204 276.284055 
L 572.70882 188.498764 
L 600.057437 144.370711 
L 627.406054 157.709642 
L 654.75467 140.325822 
L 682.103287 181.871566 
L 709.451903 182.949749 
" clip-path="url(#p9bb52c4c79)" style="fill: none; stroke: #3e4989; stroke-width: 1.5; stroke-linecap: square"/>
   </g>
   <g id="line2d_30">
    <path d="M 80.433722 43.879828 
L 107.782338 144.580216 
L 135.130955 200.864703 
L 162.479571 151.455352 
L 189.828188 195.730124 
L 217.176805 42.752601 
L 244.525421 101.578233 
L 271.874038 34.916813 
L 299.222654 180.161116 
L 326.571271 185.04291 
L 353.919888 61.704209 
L 381.268504 187.817231 
L 408.617121 130.984091 
L 435.965737 141.758592 
L 463.314354 271.650598 
L 490.662971 267.570693 
L 518.011587 134.40052 
L 545.360204 276.261686 
L 572.70882 188.460323 
L 600.057437 144.348971 
L 627.406054 157.68909 
L 654.75467 140.263834 
L 682.103287 181.719825 
L 709.451903 182.903163 
" clip-path="url(#p9bb52c4c79)" style="fill: none; stroke: #31688e; stroke-width: 1.5; stroke-linecap: square"/>
   </g>
   <g id="line2d_31">
    <path d="M 80.433722 43.918287 
L 107.782338 144.476669 
L 135.130955 200.791561 
L 162.479571 151.454533 
L 189.828188 195.588586 
L 217.176805 42.660999 
L 244.525421 101.481679 
L 271.874038 34.732979 
L 299.222654 180.137154 
L 326.571271 184.936375 
L 353.919888 61.611575 
L 381.268504 187.616763 
L 408.617121 130.892758 
L 435.965737 141.752402 
L 463.314354 271.621448 
L 490.662971 267.457824 
L 518.011587 134.230029 
L 545.360204 276.218694 
L 572.70882 188.399423 
L 600.057437 144.3056 
L 627.406054 157.645513 
L 654.75467 140.179555 
L 682.103287 181.546952 
L 709.451903 182.835382 
" clip-path="url(#p9bb52c4c79)" style="fill: none; stroke: #26828e; stroke-width: 1.5; stroke-linecap: square"/>
   </g>
   <g id="line2d_32">
    <path d="M 80.433722 43.883048 
L 107.782338 144.553852 
L 135.130955 200.811144 
L 162.479571 151.459076 
L 189.828188 195.553368 
L 217.176805 42.709929 
L 244.525421 101.589466 
L 271.874038 34.686722 
L 299.222654 180.065153 
L 326.571271 185.037636 
L 353.919888 61.61124 
L 381.268504 187.633212 
L 408.617121 130.790373 
L 435.965737 141.764478 
L 463.314354 271.595889 
L 490.662971 267.480607 
L 518.011587 134.214843 
L 545.360204 276.279486 
L 572.70882 188.431186 
L 600.057437 144.362991 
L 627.406054 157.558394 
L 654.75467 140.172893 
L 682.103287 181.480582 
L 709.451903 182.761702 
" clip-path="url(#p9bb52c4c79)" style="fill: none; stroke: #1f9e89; stroke-width: 1.5; stroke-linecap: square"/>
   </g>
   <g id="line2d_33">
    <path d="M 80.433722 43.824213 
L 107.782338 144.609224 
L 135.130955 200.807694 
L 162.479571 151.440856 
L 189.828188 195.495147 
L 217.176805 42.736606 
L 244.525421 101.674245 
L 271.874038 34.617822 
L 299.222654 179.971327 
L 326.571271 185.115384 
L 353.919888 61.588582 
L 381.268504 187.62808 
L 408.617121 130.666301 
L 435.965737 141.753611 
L 463.314354 271.549095 
L 490.662971 267.481577 
L 518.011587 134.173723 
L 545.360204 276.317997 
L 572.70882 188.43962 
L 600.057437 144.398087 
L 627.406054 157.449297 
L 654.75467 140.144345 
L 682.103287 181.392839 
L 709.451903 182.666977 
" clip-path="url(#p9bb52c4c79)" style="fill: none; stroke: #35b779; stroke-width: 1.5; stroke-linecap: square"/>
   </g>
   <g id="line2d_34">
    <path d="M 80.433722 43.742654 
L 107.782338 144.643072 
L 135.130955 200.780998 
L 162.479571 151.400661 
L 189.828188 195.41495 
L 217.176805 42.741305 
L 244.525421 101.736182 
L 271.874038 34.52712 
L 299.222654 179.85554 
L 326.571271 185.169112 
L 353.919888 61.543013 
L 381.268504 187.601279 
L 408.617121 130.521212 
L 435.965737 141.719996 
L 463.314354 271.481015 
L 490.662971 267.461046 
L 518.011587 134.110434 
L 545.360204 276.334125 
L 572.70882 188.424963 
L 600.057437 144.410884 
L 627.406054 157.317108 
L 654.75467 140.093938 
L 682.103287 181.282355 
L 709.451903 182.551639 
" clip-path="url(#p9bb52c4c79)" style="fill: none; stroke: #6ece58; stroke-width: 1.5; stroke-linecap: square"/>
   </g>
   <g id="line2d_35">
    <path d="M 80.433722 43.639263 
L 107.782338 144.654969 
L 135.130955 200.731889 
L 162.479571 151.338788 
L 189.828188 195.312944 
L 217.176805 42.724342 
L 244.525421 101.774957 
L 271.874038 34.414125 
L 299.222654 179.718619 
L 326.571271 185.199479 
L 353.919888 61.475418 
L 381.268504 187.552437 
L 408.617121 130.354559 
L 435.965737 141.664225 
L 463.314354 271.391329 
L 490.662971 267.418869 
L 518.011587 134.024853 
L 545.360204 276.327751 
L 572.70882 188.387776 
L 600.057437 144.401351 
L 627.406054 157.162686 
L 654.75467 140.021584 
L 682.103287 181.149172 
L 709.451903 182.415015 
" clip-path="url(#p9bb52c4c79)" style="fill: none; stroke: #b5de2b; stroke-width: 1.5; stroke-linecap: square"/>
   </g>
   <g id="patch_3">
    <path d="M 48.982813 288.430125 
L 48.982813 22.318125 
" style="fill: none"/>
   </g>
   <g id="patch_4">
    <path d="M 740.902813 288.430125 
L 740.902813 22.318125 
" style="fill: none"/>
   </g>
   <g id="patch_5">
    <path d="M 48.982813 288.430125 
L 740.902813 288.430125 
" style="fill: none"/>
   </g>
   <g id="patch_6">
    <path d="M 48.982813 22.318125 
L 740.902813 22.318125 
" style="fill: none"/>
   </g>
   <g id="text_15">
    <!-- Evaluate -->
    <g style="fill: #666666" transform="translate(368.733125 16.318125) scale(0.12 -0.12)">
     <defs>
      <path id="DejaVuSans-45" d="M 628 4666 
L 3578 4666 
L 3578 4134 
L 1259 4134 
L 1259 2753 
L 3481 2753 
L 3481 2222 
L 1259 2222 
L 1259 531 
L 3634 531 
L 3634 0 
L 628 0 
L 628 4666 
z
" transform="scale(0.015625)"/>
      <path id="DejaVuSans-76" d="M 191 3500 
L 800 3500 
L 1894 563 
L 2988 3500 
L 3597 3500 
L 2284 0 
L 1503 0 
L 191 3500 
z
" transform="scale(0.015625)"/>
      <path id="DejaVuSans-61" d="M 2194 1759 
Q 1497 1759 1228 1600 
Q 959 1441 959 1056 
Q 959 750 1161 570 
Q 1363 391 1709 391 
Q 2188 391 2477 730 
Q 2766 1069 2766 1631 
L 2766 1759 
L 2194 1759 
z
M 3341 1997 
L 3341 0 
L 2766 0 
L 2766 531 
Q 2569 213 2275 61 
Q 1981 -91 1556 -91 
Q 1019 -91 701 211 
Q 384 513 384 1019 
Q 384 1609 779 1909 
Q 1175 2209 1959 2209 
L 2766 2209 
L 2766 2266 
Q 2766 2663 2505 2880 
Q 2244 3097 1772 3097 
Q 1472 3097 1187 3025 
Q 903 2953 641 2809 
L 641 3341 
Q 956 3463 1253 3523 
Q 1550 3584 1831 3584 
Q 2591 3584 2966 3190 
Q 3341 2797 3341 1997 
z
" transform="scale(0.015625)"/>
      <path id="DejaVuSans-75" d="M 544 1381 
L 544 3500 
L 1119 3500 
L 1119 1403 
Q 1119 906 1312 657 
Q 1506 409 1894 409 
Q 2359 409 2629 706 
Q 2900 1003 2900 1516 
L 2900 3500 
L 3475 3500 
L 3475 0 
L 2900 0 
L 2900 538 
Q 2691 219 2414 64 
Q 2138 -91 1772 -91 
Q 1169 -91 856 284 
Q 544 659 544 1381 
z
M 1991 3584 
L 1991 3584 
z
" transform="scale(0.015625)"/>
      <path id="DejaVuSans-74" d="M 1172 4494 
L 1172 3500 
L 2356 3500 
L 2356 3053 
L 1172 3053 
L 1172 1153 
Q 1172 725 1289 603 
Q 1406 481 1766 481 
L 2356 481 
L 2356 0 
L 1766 0 
Q 1100 0 847 248 
Q 594 497 594 1153 
L 594 3053 
L 172 3053 
L 172 3500 
L 594 3500 
L 594 4494 
L 1172 4494 
z
" transform="scale(0.015625)"/>
      <path id="DejaVuSans-65" d="M 3597 1894 
L 3597 1613 
L 953 1613 
Q 991 1019 1311 708 
Q 1631 397 2203 397 
Q 2534 397 2845 478 
Q 3156 559 3463 722 
L 3463 178 
Q 3153 47 2828 -22 
Q 2503 -91 2169 -91 
Q 1331 -91 842 396 
Q 353 884 353 1716 
Q 353 2575 817 3079 
Q 1281 3584 2069 3584 
Q 2775 3584 3186 3129 
Q 3597 2675 3597 1894 
z
M 3022 2063 
Q 3016 2534 2758 2815 
Q 2500 3097 2075 3097 
Q 1594 3097 1305 2825 
Q 1016 2553 972 2059 
L 3022 2063 
z
" transform="scale(0.015625)"/>
     </defs>
     <use xlink:href="#DejaVuSans-45"/>
     <use xlink:href="#DejaVuSans-76" x="63.183594"/>
     <use xlink:href="#DejaVuSans-61" x="122.363281"/>
     <use xlink:href="#DejaVuSans-6c" x="183.642578"/>
     <use xlink:href="#DejaVuSans-75" x="211.425781"/>
     <use xlink:href="#DejaVuSans-61" x="274.804688"/>
     <use xlink:href="#DejaVuSans-74" x="336.083984"/>
     <use xlink:href="#DejaVuSans-65" x="375.292969"/>
    </g>
   </g>
  </g>
 </g>
 <defs>
  <clipPath id="p9bb52c4c79">
   <rect x="48.982813" y="22.318125" width="691.92" height="266.112"/>
  </clipPath>
 </defs>
</svg>
