<?xml version="1.0" encoding="utf-8" standalone="no"?>
<!DOCTYPE svg PUBLIC "-//W3C//DTD SVG 1.1//EN"
  "http://www.w3.org/Graphics/SVG/1.1/DTD/svg11.dtd">
<svg xmlns:xlink="http://www.w3.org/1999/xlink" width="745.317438pt" height="312.30825pt" viewBox="0 0 745.317438 312.30825" xmlns="http://www.w3.org/2000/svg" version="1.1">
 <metadata>
  <rdf:RDF xmlns:dc="http://purl.org/dc/elements/1.1/" xmlns:cc="http://creativecommons.org/ns#" xmlns:rdf="http://www.w3.org/1999/02/22-rdf-syntax-ns#">
   <cc:Work>
    <dc:type rdf:resource="http://purl.org/dc/dcmitype/StillImage"/>
    <dc:date>2023-07-10T07:56:33.932355</dc:date>
    <dc:format>image/svg+xml</dc:format>
    <dc:creator>
     <cc:Agent>
      <dc:title>Matplotlib v3.7.1, https://matplotlib.org/</dc:title>
     </cc:Agent>
    </dc:creator>
   </cc:Work>
  </rdf:RDF>
 </metadata>
 <defs>
  <style type="text/css">*{stroke-linejoin: round; stroke-linecap: butt}</style>
 </defs>
 <g id="figure_1">
  <g id="patch_1">
   <path d="M 0 312.30825 
L 745.317438 312.30825 
L 745.317438 0 
L 0 0 
L 0 312.30825 
z
" style="fill: none"/>
  </g>
  <g id="axes_1">
   <g id="patch_2">
    <path d="M 43.78125 288.430125 
L 735.70125 288.430125 
L 735.70125 22.318125 
L 43.78125 22.318125 
L 43.78125 288.430125 
z
" style="fill: none"/>
   </g>
   <g id="matplotlib.axis_1">
    <g id="xtick_1">
     <g id="line2d_1">
      <path d="M 74.036307 288.430125 
L 74.036307 22.318125 
" clip-path="url(#pf8073be878)" style="fill: none; stroke-dasharray: 1.85,0.8; stroke-dashoffset: 0; stroke: #666666; stroke-opacity: 0.4; stroke-width: 0.5"/>
     </g>
     <g id="line2d_2">
      <defs>
       <path id="m81777a0493" d="M 0 0 
L 0 3.5 
" style="stroke: #000000; stroke-opacity: 0; stroke-width: 0.8"/>
      </defs>
      <g>
       <use xlink:href="#m81777a0493" x="74.036307" y="288.430125" style="fill-opacity: 0; stroke: #000000; stroke-opacity: 0; stroke-width: 0.8"/>
      </g>
     </g>
     <g id="text_1">
      <!-- 0 -->
      <g style="fill: #666666" transform="translate(70.855057 303.028562) scale(0.1 -0.1)">
       <defs>
        <path id="DejaVuSans-30" d="M 2034 4250 
Q 1547 4250 1301 3770 
Q 1056 3291 1056 2328 
Q 1056 1369 1301 889 
Q 1547 409 2034 409 
Q 2525 409 2770 889 
Q 3016 1369 3016 2328 
Q 3016 3291 2770 3770 
Q 2525 4250 2034 4250 
z
M 2034 4750 
Q 2819 4750 3233 4129 
Q 3647 3509 3647 2328 
Q 3647 1150 3233 529 
Q 2819 -91 2034 -91 
Q 1250 -91 836 529 
Q 422 1150 422 2328 
Q 422 3509 836 4129 
Q 1250 4750 2034 4750 
z
" transform="scale(0.015625)"/>
       </defs>
       <use xlink:href="#DejaVuSans-30"/>
      </g>
     </g>
    </g>
    <g id="xtick_2">
     <g id="line2d_3">
      <path d="M 205.580033 288.430125 
L 205.580033 22.318125 
" clip-path="url(#pf8073be878)" style="fill: none; stroke-dasharray: 1.85,0.8; stroke-dashoffset: 0; stroke: #666666; stroke-opacity: 0.4; stroke-width: 0.5"/>
     </g>
     <g id="line2d_4">
      <g>
       <use xlink:href="#m81777a0493" x="205.580033" y="288.430125" style="fill-opacity: 0; stroke: #000000; stroke-opacity: 0; stroke-width: 0.8"/>
      </g>
     </g>
     <g id="text_2">
      <!-- 5 -->
      <g style="fill: #666666" transform="translate(202.398783 303.028562) scale(0.1 -0.1)">
       <defs>
        <path id="DejaVuSans-35" d="M 691 4666 
L 3169 4666 
L 3169 4134 
L 1269 4134 
L 1269 2991 
Q 1406 3038 1543 3061 
Q 1681 3084 1819 3084 
Q 2600 3084 3056 2656 
Q 3513 2228 3513 1497 
Q 3513 744 3044 326 
Q 2575 -91 1722 -91 
Q 1428 -91 1123 -41 
Q 819 9 494 109 
L 494 744 
Q 775 591 1075 516 
Q 1375 441 1709 441 
Q 2250 441 2565 725 
Q 2881 1009 2881 1497 
Q 2881 1984 2565 2268 
Q 2250 2553 1709 2553 
Q 1456 2553 1204 2497 
Q 953 2441 691 2322 
L 691 4666 
z
" transform="scale(0.015625)"/>
       </defs>
       <use xlink:href="#DejaVuSans-35"/>
      </g>
     </g>
    </g>
    <g id="xtick_3">
     <g id="line2d_5">
      <path d="M 337.12376 288.430125 
L 337.12376 22.318125 
" clip-path="url(#pf8073be878)" style="fill: none; stroke-dasharray: 1.85,0.8; stroke-dashoffset: 0; stroke: #666666; stroke-opacity: 0.4; stroke-width: 0.5"/>
     </g>
     <g id="line2d_6">
      <g>
       <use xlink:href="#m81777a0493" x="337.12376" y="288.430125" style="fill-opacity: 0; stroke: #000000; stroke-opacity: 0; stroke-width: 0.8"/>
      </g>
     </g>
     <g id="text_3">
      <!-- 10 -->
      <g style="fill: #666666" transform="translate(330.76126 303.028562) scale(0.1 -0.1)">
       <defs>
        <path id="DejaVuSans-31" d="M 794 531 
L 1825 531 
L 1825 4091 
L 703 3866 
L 703 4441 
L 1819 4666 
L 2450 4666 
L 2450 531 
L 3481 531 
L 3481 0 
L 794 0 
L 794 531 
z
" transform="scale(0.015625)"/>
       </defs>
       <use xlink:href="#DejaVuSans-31"/>
       <use xlink:href="#DejaVuSans-30" x="63.623047"/>
      </g>
     </g>
    </g>
    <g id="xtick_4">
     <g id="line2d_7">
      <path d="M 468.667486 288.430125 
L 468.667486 22.318125 
" clip-path="url(#pf8073be878)" style="fill: none; stroke-dasharray: 1.85,0.8; stroke-dashoffset: 0; stroke: #666666; stroke-opacity: 0.4; stroke-width: 0.5"/>
     </g>
     <g id="line2d_8">
      <g>
       <use xlink:href="#m81777a0493" x="468.667486" y="288.430125" style="fill-opacity: 0; stroke: #000000; stroke-opacity: 0; stroke-width: 0.8"/>
      </g>
     </g>
     <g id="text_4">
      <!-- 15 -->
      <g style="fill: #666666" transform="translate(462.304986 303.028562) scale(0.1 -0.1)">
       <use xlink:href="#DejaVuSans-31"/>
       <use xlink:href="#DejaVuSans-35" x="63.623047"/>
      </g>
     </g>
    </g>
    <g id="xtick_5">
     <g id="line2d_9">
      <path d="M 600.211212 288.430125 
L 600.211212 22.318125 
" clip-path="url(#pf8073be878)" style="fill: none; stroke-dasharray: 1.85,0.8; stroke-dashoffset: 0; stroke: #666666; stroke-opacity: 0.4; stroke-width: 0.5"/>
     </g>
     <g id="line2d_10">
      <g>
       <use xlink:href="#m81777a0493" x="600.211212" y="288.430125" style="fill-opacity: 0; stroke: #000000; stroke-opacity: 0; stroke-width: 0.8"/>
      </g>
     </g>
     <g id="text_5">
      <!-- 20 -->
      <g style="fill: #666666" transform="translate(593.848712 303.028562) scale(0.1 -0.1)">
       <defs>
        <path id="DejaVuSans-32" d="M 1228 531 
L 3431 531 
L 3431 0 
L 469 0 
L 469 531 
Q 828 903 1448 1529 
Q 2069 2156 2228 2338 
Q 2531 2678 2651 2914 
Q 2772 3150 2772 3378 
Q 2772 3750 2511 3984 
Q 2250 4219 1831 4219 
Q 1534 4219 1204 4116 
Q 875 4013 500 3803 
L 500 4441 
Q 881 4594 1212 4672 
Q 1544 4750 1819 4750 
Q 2544 4750 2975 4387 
Q 3406 4025 3406 3419 
Q 3406 3131 3298 2873 
Q 3191 2616 2906 2266 
Q 2828 2175 2409 1742 
Q 1991 1309 1228 531 
z
" transform="scale(0.015625)"/>
       </defs>
       <use xlink:href="#DejaVuSans-32"/>
       <use xlink:href="#DejaVuSans-30" x="63.623047"/>
      </g>
     </g>
    </g>
    <g id="xtick_6">
     <g id="line2d_11">
      <path d="M 731.754938 288.430125 
L 731.754938 22.318125 
" clip-path="url(#pf8073be878)" style="fill: none; stroke-dasharray: 1.85,0.8; stroke-dashoffset: 0; stroke: #666666; stroke-opacity: 0.4; stroke-width: 0.5"/>
     </g>
     <g id="line2d_12">
      <g>
       <use xlink:href="#m81777a0493" x="731.754938" y="288.430125" style="fill-opacity: 0; stroke: #000000; stroke-opacity: 0; stroke-width: 0.8"/>
      </g>
     </g>
     <g id="text_6">
      <!-- 25 -->
      <g style="fill: #666666" transform="translate(725.392438 303.028562) scale(0.1 -0.1)">
       <use xlink:href="#DejaVuSans-32"/>
       <use xlink:href="#DejaVuSans-35" x="63.623047"/>
      </g>
     </g>
    </g>
   </g>
   <g id="matplotlib.axis_2">
    <g id="ytick_1">
     <g id="line2d_13">
      <path d="M 43.78125 263.787987 
L 735.70125 263.787987 
" clip-path="url(#pf8073be878)" style="fill: none; stroke-dasharray: 1.85,0.8; stroke-dashoffset: 0; stroke: #666666; stroke-opacity: 0.4; stroke-width: 0.5"/>
     </g>
     <g id="line2d_14">
      <defs>
       <path id="m175e7dde8c" d="M 0 0 
L -3.5 0 
" style="stroke: #000000; stroke-opacity: 0; stroke-width: 0.8"/>
      </defs>
      <g>
       <use xlink:href="#m175e7dde8c" x="43.78125" y="263.787987" style="fill-opacity: 0; stroke: #000000; stroke-opacity: 0; stroke-width: 0.8"/>
      </g>
     </g>
     <g id="text_7">
      <!-- 0.2 -->
      <g style="fill: #666666" transform="translate(20.878125 267.587205) scale(0.1 -0.1)">
       <defs>
        <path id="DejaVuSans-2e" d="M 684 794 
L 1344 794 
L 1344 0 
L 684 0 
L 684 794 
z
" transform="scale(0.015625)"/>
       </defs>
       <use xlink:href="#DejaVuSans-30"/>
       <use xlink:href="#DejaVuSans-2e" x="63.623047"/>
       <use xlink:href="#DejaVuSans-32" x="95.410156"/>
      </g>
     </g>
    </g>
    <g id="ytick_2">
     <g id="line2d_15">
      <path d="M 43.78125 206.444521 
L 735.70125 206.444521 
" clip-path="url(#pf8073be878)" style="fill: none; stroke-dasharray: 1.85,0.8; stroke-dashoffset: 0; stroke: #666666; stroke-opacity: 0.4; stroke-width: 0.5"/>
     </g>
     <g id="line2d_16">
      <g>
       <use xlink:href="#m175e7dde8c" x="43.78125" y="206.444521" style="fill-opacity: 0; stroke: #000000; stroke-opacity: 0; stroke-width: 0.8"/>
      </g>
     </g>
     <g id="text_8">
      <!-- 0.4 -->
      <g style="fill: #666666" transform="translate(20.878125 210.24374) scale(0.1 -0.1)">
       <defs>
        <path id="DejaVuSans-34" d="M 2419 4116 
L 825 1625 
L 2419 1625 
L 2419 4116 
z
M 2253 4666 
L 3047 4666 
L 3047 1625 
L 3713 1625 
L 3713 1100 
L 3047 1100 
L 3047 0 
L 2419 0 
L 2419 1100 
L 313 1100 
L 313 1709 
L 2253 4666 
z
" transform="scale(0.015625)"/>
       </defs>
       <use xlink:href="#DejaVuSans-30"/>
       <use xlink:href="#DejaVuSans-2e" x="63.623047"/>
       <use xlink:href="#DejaVuSans-34" x="95.410156"/>
      </g>
     </g>
    </g>
    <g id="ytick_3">
     <g id="line2d_17">
      <path d="M 43.78125 149.101056 
L 735.70125 149.101056 
" clip-path="url(#pf8073be878)" style="fill: none; stroke-dasharray: 1.85,0.8; stroke-dashoffset: 0; stroke: #666666; stroke-opacity: 0.4; stroke-width: 0.5"/>
     </g>
     <g id="line2d_18">
      <g>
       <use xlink:href="#m175e7dde8c" x="43.78125" y="149.101056" style="fill-opacity: 0; stroke: #000000; stroke-opacity: 0; stroke-width: 0.8"/>
      </g>
     </g>
     <g id="text_9">
      <!-- 0.6 -->
      <g style="fill: #666666" transform="translate(20.878125 152.900275) scale(0.1 -0.1)">
       <defs>
        <path id="DejaVuSans-36" d="M 2113 2584 
Q 1688 2584 1439 2293 
Q 1191 2003 1191 1497 
Q 1191 994 1439 701 
Q 1688 409 2113 409 
Q 2538 409 2786 701 
Q 3034 994 3034 1497 
Q 3034 2003 2786 2293 
Q 2538 2584 2113 2584 
z
M 3366 4563 
L 3366 3988 
Q 3128 4100 2886 4159 
Q 2644 4219 2406 4219 
Q 1781 4219 1451 3797 
Q 1122 3375 1075 2522 
Q 1259 2794 1537 2939 
Q 1816 3084 2150 3084 
Q 2853 3084 3261 2657 
Q 3669 2231 3669 1497 
Q 3669 778 3244 343 
Q 2819 -91 2113 -91 
Q 1303 -91 875 529 
Q 447 1150 447 2328 
Q 447 3434 972 4092 
Q 1497 4750 2381 4750 
Q 2619 4750 2861 4703 
Q 3103 4656 3366 4563 
z
" transform="scale(0.015625)"/>
       </defs>
       <use xlink:href="#DejaVuSans-30"/>
       <use xlink:href="#DejaVuSans-2e" x="63.623047"/>
       <use xlink:href="#DejaVuSans-36" x="95.410156"/>
      </g>
     </g>
    </g>
    <g id="ytick_4">
     <g id="line2d_19">
      <path d="M 43.78125 91.75759 
L 735.70125 91.75759 
" clip-path="url(#pf8073be878)" style="fill: none; stroke-dasharray: 1.85,0.8; stroke-dashoffset: 0; stroke: #666666; stroke-opacity: 0.4; stroke-width: 0.5"/>
     </g>
     <g id="line2d_20">
      <g>
       <use xlink:href="#m175e7dde8c" x="43.78125" y="91.75759" style="fill-opacity: 0; stroke: #000000; stroke-opacity: 0; stroke-width: 0.8"/>
      </g>
     </g>
     <g id="text_10">
      <!-- 0.8 -->
      <g style="fill: #666666" transform="translate(20.878125 95.556809) scale(0.1 -0.1)">
       <defs>
        <path id="DejaVuSans-38" d="M 2034 2216 
Q 1584 2216 1326 1975 
Q 1069 1734 1069 1313 
Q 1069 891 1326 650 
Q 1584 409 2034 409 
Q 2484 409 2743 651 
Q 3003 894 3003 1313 
Q 3003 1734 2745 1975 
Q 2488 2216 2034 2216 
z
M 1403 2484 
Q 997 2584 770 2862 
Q 544 3141 544 3541 
Q 544 4100 942 4425 
Q 1341 4750 2034 4750 
Q 2731 4750 3128 4425 
Q 3525 4100 3525 3541 
Q 3525 3141 3298 2862 
Q 3072 2584 2669 2484 
Q 3125 2378 3379 2068 
Q 3634 1759 3634 1313 
Q 3634 634 3220 271 
Q 2806 -91 2034 -91 
Q 1263 -91 848 271 
Q 434 634 434 1313 
Q 434 1759 690 2068 
Q 947 2378 1403 2484 
z
M 1172 3481 
Q 1172 3119 1398 2916 
Q 1625 2713 2034 2713 
Q 2441 2713 2670 2916 
Q 2900 3119 2900 3481 
Q 2900 3844 2670 4047 
Q 2441 4250 2034 4250 
Q 1625 4250 1398 4047 
Q 1172 3844 1172 3481 
z
" transform="scale(0.015625)"/>
       </defs>
       <use xlink:href="#DejaVuSans-30"/>
       <use xlink:href="#DejaVuSans-2e" x="63.623047"/>
       <use xlink:href="#DejaVuSans-38" x="95.410156"/>
      </g>
     </g>
    </g>
    <g id="ytick_5">
     <g id="line2d_21">
      <path d="M 43.78125 34.414125 
L 735.70125 34.414125 
" clip-path="url(#pf8073be878)" style="fill: none; stroke-dasharray: 1.85,0.8; stroke-dashoffset: 0; stroke: #666666; stroke-opacity: 0.4; stroke-width: 0.5"/>
     </g>
     <g id="line2d_22">
      <g>
       <use xlink:href="#m175e7dde8c" x="43.78125" y="34.414125" style="fill-opacity: 0; stroke: #000000; stroke-opacity: 0; stroke-width: 0.8"/>
      </g>
     </g>
     <g id="text_11">
      <!-- 1.0 -->
      <g style="fill: #666666" transform="translate(20.878125 38.213344) scale(0.1 -0.1)">
       <use xlink:href="#DejaVuSans-31"/>
       <use xlink:href="#DejaVuSans-2e" x="63.623047"/>
       <use xlink:href="#DejaVuSans-30" x="95.410156"/>
      </g>
     </g>
    </g>
    <g id="text_12">
     <!-- acc -->
     <g style="fill: #bdbdbd" transform="translate(14.798437 163.936625) rotate(-90) scale(0.1 -0.1)">
      <defs>
       <path id="DejaVuSans-61" d="M 2194 1759 
Q 1497 1759 1228 1600 
Q 959 1441 959 1056 
Q 959 750 1161 570 
Q 1363 391 1709 391 
Q 2188 391 2477 730 
Q 2766 1069 2766 1631 
L 2766 1759 
L 2194 1759 
z
M 3341 1997 
L 3341 0 
L 2766 0 
L 2766 531 
Q 2569 213 2275 61 
Q 1981 -91 1556 -91 
Q 1019 -91 701 211 
Q 384 513 384 1019 
Q 384 1609 779 1909 
Q 1175 2209 1959 2209 
L 2766 2209 
L 2766 2266 
Q 2766 2663 2505 2880 
Q 2244 3097 1772 3097 
Q 1472 3097 1187 3025 
Q 903 2953 641 2809 
L 641 3341 
Q 956 3463 1253 3523 
Q 1550 3584 1831 3584 
Q 2591 3584 2966 3190 
Q 3341 2797 3341 1997 
z
" transform="scale(0.015625)"/>
       <path id="DejaVuSans-63" d="M 3122 3366 
L 3122 2828 
Q 2878 2963 2633 3030 
Q 2388 3097 2138 3097 
Q 1578 3097 1268 2742 
Q 959 2388 959 1747 
Q 959 1106 1268 751 
Q 1578 397 2138 397 
Q 2388 397 2633 464 
Q 2878 531 3122 666 
L 3122 134 
Q 2881 22 2623 -34 
Q 2366 -91 2075 -91 
Q 1284 -91 818 406 
Q 353 903 353 1747 
Q 353 2603 823 3093 
Q 1294 3584 2113 3584 
Q 2378 3584 2631 3529 
Q 2884 3475 3122 3366 
z
" transform="scale(0.015625)"/>
      </defs>
      <use xlink:href="#DejaVuSans-61"/>
      <use xlink:href="#DejaVuSans-63" x="61.279297"/>
      <use xlink:href="#DejaVuSans-63" x="116.259766"/>
     </g>
    </g>
   </g>
   <g id="line2d_23">
    <path d="M 74.036307 34.414125 
L 100.345052 34.414125 
L 126.653798 34.414125 
L 152.962543 34.414125 
L 179.271288 34.414125 
L 205.580033 34.414125 
L 231.888779 34.414125 
L 258.197524 34.414125 
L 284.506269 34.414125 
L 310.815014 34.414125 
L 337.12376 34.414125 
L 363.432505 34.414125 
L 389.74125 34.414125 
L 416.049995 34.414125 
L 442.35874 34.414125 
L 468.667486 34.414125 
L 494.976231 96.757604 
L 521.284976 34.414125 
L 547.593721 34.414125 
L 573.902467 34.414125 
L 600.211212 34.414125 
L 626.519957 72.287141 
L 652.828702 109.707347 
L 679.137448 43.557188 
" clip-path="url(#pf8073be878)" style="fill: none; stroke: #ef5350; stroke-width: 1.5; stroke-linecap: square"/>
    <defs>
     <path id="m62403682ea" d="M 0 1.5 
C 0.397805 1.5 0.77937 1.341951 1.06066 1.06066 
C 1.341951 0.77937 1.5 0.397805 1.5 0 
C 1.5 -0.397805 1.341951 -0.77937 1.06066 -1.06066 
C 0.77937 -1.341951 0.397805 -1.5 0 -1.5 
C -0.397805 -1.5 -0.77937 -1.341951 -1.06066 -1.06066 
C -1.341951 -0.77937 -1.5 -0.397805 -1.5 0 
C -1.5 0.397805 -1.341951 0.77937 -1.06066 1.06066 
C -0.77937 1.341951 -0.397805 1.5 0 1.5 
z
" style="stroke: #ef5350"/>
    </defs>
    <g clip-path="url(#pf8073be878)">
     <use xlink:href="#m62403682ea" x="74.036307" y="34.414125" style="fill: #ef5350; stroke: #ef5350"/>
     <use xlink:href="#m62403682ea" x="100.345052" y="34.414125" style="fill: #ef5350; stroke: #ef5350"/>
     <use xlink:href="#m62403682ea" x="126.653798" y="34.414125" style="fill: #ef5350; stroke: #ef5350"/>
     <use xlink:href="#m62403682ea" x="152.962543" y="34.414125" style="fill: #ef5350; stroke: #ef5350"/>
     <use xlink:href="#m62403682ea" x="179.271288" y="34.414125" style="fill: #ef5350; stroke: #ef5350"/>
     <use xlink:href="#m62403682ea" x="205.580033" y="34.414125" style="fill: #ef5350; stroke: #ef5350"/>
     <use xlink:href="#m62403682ea" x="231.888779" y="34.414125" style="fill: #ef5350; stroke: #ef5350"/>
     <use xlink:href="#m62403682ea" x="258.197524" y="34.414125" style="fill: #ef5350; stroke: #ef5350"/>
     <use xlink:href="#m62403682ea" x="284.506269" y="34.414125" style="fill: #ef5350; stroke: #ef5350"/>
     <use xlink:href="#m62403682ea" x="310.815014" y="34.414125" style="fill: #ef5350; stroke: #ef5350"/>
     <use xlink:href="#m62403682ea" x="337.12376" y="34.414125" style="fill: #ef5350; stroke: #ef5350"/>
     <use xlink:href="#m62403682ea" x="363.432505" y="34.414125" style="fill: #ef5350; stroke: #ef5350"/>
     <use xlink:href="#m62403682ea" x="389.74125" y="34.414125" style="fill: #ef5350; stroke: #ef5350"/>
     <use xlink:href="#m62403682ea" x="416.049995" y="34.414125" style="fill: #ef5350; stroke: #ef5350"/>
     <use xlink:href="#m62403682ea" x="442.35874" y="34.414125" style="fill: #ef5350; stroke: #ef5350"/>
     <use xlink:href="#m62403682ea" x="468.667486" y="34.414125" style="fill: #ef5350; stroke: #ef5350"/>
     <use xlink:href="#m62403682ea" x="494.976231" y="96.757604" style="fill: #ef5350; stroke: #ef5350"/>
     <use xlink:href="#m62403682ea" x="521.284976" y="34.414125" style="fill: #ef5350; stroke: #ef5350"/>
     <use xlink:href="#m62403682ea" x="547.593721" y="34.414125" style="fill: #ef5350; stroke: #ef5350"/>
     <use xlink:href="#m62403682ea" x="573.902467" y="34.414125" style="fill: #ef5350; stroke: #ef5350"/>
     <use xlink:href="#m62403682ea" x="600.211212" y="34.414125" style="fill: #ef5350; stroke: #ef5350"/>
     <use xlink:href="#m62403682ea" x="626.519957" y="72.287141" style="fill: #ef5350; stroke: #ef5350"/>
     <use xlink:href="#m62403682ea" x="652.828702" y="109.707347" style="fill: #ef5350; stroke: #ef5350"/>
     <use xlink:href="#m62403682ea" x="679.137448" y="43.557188" style="fill: #ef5350; stroke: #ef5350"/>
    </g>
   </g>
   <g id="line2d_24">
    <path d="M 74.036307 34.414125 
L 100.345052 34.414125 
L 126.653798 34.414125 
L 152.962543 34.414125 
L 179.271288 34.414125 
L 205.580033 34.414125 
L 231.888779 34.414125 
L 258.197524 34.414125 
L 284.506269 34.414125 
L 310.815014 34.414125 
L 337.12376 34.414125 
L 363.432505 34.414125 
L 389.74125 34.414125 
L 416.049995 34.414125 
L 442.35874 34.414125 
L 468.667486 34.414125 
L 494.976231 34.414125 
L 521.284976 34.414125 
L 547.593721 34.414125 
L 573.902467 34.414125 
L 600.211212 34.414125 
L 626.519957 34.414125 
L 652.828702 93.667015 
L 679.137448 34.414125 
" clip-path="url(#pf8073be878)" style="fill: none; stroke: #ef5350; stroke-opacity: 0.6; stroke-width: 0.6; stroke-linecap: square"/>
    <defs>
     <path id="maf86083958" d="M 0 1.5 
C 0.397805 1.5 0.77937 1.341951 1.06066 1.06066 
C 1.341951 0.77937 1.5 0.397805 1.5 0 
C 1.5 -0.397805 1.341951 -0.77937 1.06066 -1.06066 
C 0.77937 -1.341951 0.397805 -1.5 0 -1.5 
C -0.397805 -1.5 -0.77937 -1.341951 -1.06066 -1.06066 
C -1.341951 -0.77937 -1.5 -0.397805 -1.5 0 
C -1.5 0.397805 -1.341951 0.77937 -1.06066 1.06066 
C -0.77937 1.341951 -0.397805 1.5 0 1.5 
z
" style="stroke: #ef5350; stroke-opacity: 0.6"/>
    </defs>
    <g clip-path="url(#pf8073be878)">
     <use xlink:href="#maf86083958" x="74.036307" y="34.414125" style="fill: #ef5350; fill-opacity: 0.6; stroke: #ef5350; stroke-opacity: 0.6"/>
     <use xlink:href="#maf86083958" x="100.345052" y="34.414125" style="fill: #ef5350; fill-opacity: 0.6; stroke: #ef5350; stroke-opacity: 0.6"/>
     <use xlink:href="#maf86083958" x="126.653798" y="34.414125" style="fill: #ef5350; fill-opacity: 0.6; stroke: #ef5350; stroke-opacity: 0.6"/>
     <use xlink:href="#maf86083958" x="152.962543" y="34.414125" style="fill: #ef5350; fill-opacity: 0.6; stroke: #ef5350; stroke-opacity: 0.6"/>
     <use xlink:href="#maf86083958" x="179.271288" y="34.414125" style="fill: #ef5350; fill-opacity: 0.6; stroke: #ef5350; stroke-opacity: 0.6"/>
     <use xlink:href="#maf86083958" x="205.580033" y="34.414125" style="fill: #ef5350; fill-opacity: 0.6; stroke: #ef5350; stroke-opacity: 0.6"/>
     <use xlink:href="#maf86083958" x="231.888779" y="34.414125" style="fill: #ef5350; fill-opacity: 0.6; stroke: #ef5350; stroke-opacity: 0.6"/>
     <use xlink:href="#maf86083958" x="258.197524" y="34.414125" style="fill: #ef5350; fill-opacity: 0.6; stroke: #ef5350; stroke-opacity: 0.6"/>
     <use xlink:href="#maf86083958" x="284.506269" y="34.414125" style="fill: #ef5350; fill-opacity: 0.6; stroke: #ef5350; stroke-opacity: 0.6"/>
     <use xlink:href="#maf86083958" x="310.815014" y="34.414125" style="fill: #ef5350; fill-opacity: 0.6; stroke: #ef5350; stroke-opacity: 0.6"/>
     <use xlink:href="#maf86083958" x="337.12376" y="34.414125" style="fill: #ef5350; fill-opacity: 0.6; stroke: #ef5350; stroke-opacity: 0.6"/>
     <use xlink:href="#maf86083958" x="363.432505" y="34.414125" style="fill: #ef5350; fill-opacity: 0.6; stroke: #ef5350; stroke-opacity: 0.6"/>
     <use xlink:href="#maf86083958" x="389.74125" y="34.414125" style="fill: #ef5350; fill-opacity: 0.6; stroke: #ef5350; stroke-opacity: 0.6"/>
     <use xlink:href="#maf86083958" x="416.049995" y="34.414125" style="fill: #ef5350; fill-opacity: 0.6; stroke: #ef5350; stroke-opacity: 0.6"/>
     <use xlink:href="#maf86083958" x="442.35874" y="34.414125" style="fill: #ef5350; fill-opacity: 0.6; stroke: #ef5350; stroke-opacity: 0.6"/>
     <use xlink:href="#maf86083958" x="468.667486" y="34.414125" style="fill: #ef5350; fill-opacity: 0.6; stroke: #ef5350; stroke-opacity: 0.6"/>
     <use xlink:href="#maf86083958" x="494.976231" y="34.414125" style="fill: #ef5350; fill-opacity: 0.6; stroke: #ef5350; stroke-opacity: 0.6"/>
     <use xlink:href="#maf86083958" x="521.284976" y="34.414125" style="fill: #ef5350; fill-opacity: 0.6; stroke: #ef5350; stroke-opacity: 0.6"/>
     <use xlink:href="#maf86083958" x="547.593721" y="34.414125" style="fill: #ef5350; fill-opacity: 0.6; stroke: #ef5350; stroke-opacity: 0.6"/>
     <use xlink:href="#maf86083958" x="573.902467" y="34.414125" style="fill: #ef5350; fill-opacity: 0.6; stroke: #ef5350; stroke-opacity: 0.6"/>
     <use xlink:href="#maf86083958" x="600.211212" y="34.414125" style="fill: #ef5350; fill-opacity: 0.6; stroke: #ef5350; stroke-opacity: 0.6"/>
     <use xlink:href="#maf86083958" x="626.519957" y="34.414125" style="fill: #ef5350; fill-opacity: 0.6; stroke: #ef5350; stroke-opacity: 0.6"/>
     <use xlink:href="#maf86083958" x="652.828702" y="93.667015" style="fill: #ef5350; fill-opacity: 0.6; stroke: #ef5350; stroke-opacity: 0.6"/>
     <use xlink:href="#maf86083958" x="679.137448" y="34.414125" style="fill: #ef5350; fill-opacity: 0.6; stroke: #ef5350; stroke-opacity: 0.6"/>
    </g>
   </g>
   <g id="line2d_25">
    <path d="M 74.036307 34.414125 
L 100.345052 34.414125 
L 126.653798 34.414125 
L 152.962543 34.414125 
L 179.271288 34.414125 
L 205.580033 34.414125 
L 231.888779 34.414125 
L 258.197524 34.414125 
L 284.506269 34.414125 
L 310.815014 34.414125 
L 337.12376 34.414125 
L 363.432505 34.414125 
L 389.74125 34.414125 
L 416.049995 34.414125 
L 442.35874 34.414125 
L 468.667486 34.414125 
L 494.976231 174.96646 
L 521.284976 34.414125 
L 547.593721 34.414125 
L 573.902467 34.414125 
L 600.211212 34.414125 
L 626.519957 185.906189 
L 652.828702 276.334125 
L 679.137448 70.986376 
" clip-path="url(#pf8073be878)" style="fill: none; stroke: #ef5350; stroke-opacity: 0.6; stroke-width: 0.6; stroke-linecap: square"/>
    <g clip-path="url(#pf8073be878)">
     <use xlink:href="#maf86083958" x="74.036307" y="34.414125" style="fill: #ef5350; fill-opacity: 0.6; stroke: #ef5350; stroke-opacity: 0.6"/>
     <use xlink:href="#maf86083958" x="100.345052" y="34.414125" style="fill: #ef5350; fill-opacity: 0.6; stroke: #ef5350; stroke-opacity: 0.6"/>
     <use xlink:href="#maf86083958" x="126.653798" y="34.414125" style="fill: #ef5350; fill-opacity: 0.6; stroke: #ef5350; stroke-opacity: 0.6"/>
     <use xlink:href="#maf86083958" x="152.962543" y="34.414125" style="fill: #ef5350; fill-opacity: 0.6; stroke: #ef5350; stroke-opacity: 0.6"/>
     <use xlink:href="#maf86083958" x="179.271288" y="34.414125" style="fill: #ef5350; fill-opacity: 0.6; stroke: #ef5350; stroke-opacity: 0.6"/>
     <use xlink:href="#maf86083958" x="205.580033" y="34.414125" style="fill: #ef5350; fill-opacity: 0.6; stroke: #ef5350; stroke-opacity: 0.6"/>
     <use xlink:href="#maf86083958" x="231.888779" y="34.414125" style="fill: #ef5350; fill-opacity: 0.6; stroke: #ef5350; stroke-opacity: 0.6"/>
     <use xlink:href="#maf86083958" x="258.197524" y="34.414125" style="fill: #ef5350; fill-opacity: 0.6; stroke: #ef5350; stroke-opacity: 0.6"/>
     <use xlink:href="#maf86083958" x="284.506269" y="34.414125" style="fill: #ef5350; fill-opacity: 0.6; stroke: #ef5350; stroke-opacity: 0.6"/>
     <use xlink:href="#maf86083958" x="310.815014" y="34.414125" style="fill: #ef5350; fill-opacity: 0.6; stroke: #ef5350; stroke-opacity: 0.6"/>
     <use xlink:href="#maf86083958" x="337.12376" y="34.414125" style="fill: #ef5350; fill-opacity: 0.6; stroke: #ef5350; stroke-opacity: 0.6"/>
     <use xlink:href="#maf86083958" x="363.432505" y="34.414125" style="fill: #ef5350; fill-opacity: 0.6; stroke: #ef5350; stroke-opacity: 0.6"/>
     <use xlink:href="#maf86083958" x="389.74125" y="34.414125" style="fill: #ef5350; fill-opacity: 0.6; stroke: #ef5350; stroke-opacity: 0.6"/>
     <use xlink:href="#maf86083958" x="416.049995" y="34.414125" style="fill: #ef5350; fill-opacity: 0.6; stroke: #ef5350; stroke-opacity: 0.6"/>
     <use xlink:href="#maf86083958" x="442.35874" y="34.414125" style="fill: #ef5350; fill-opacity: 0.6; stroke: #ef5350; stroke-opacity: 0.6"/>
     <use xlink:href="#maf86083958" x="468.667486" y="34.414125" style="fill: #ef5350; fill-opacity: 0.6; stroke: #ef5350; stroke-opacity: 0.6"/>
     <use xlink:href="#maf86083958" x="494.976231" y="174.96646" style="fill: #ef5350; fill-opacity: 0.6; stroke: #ef5350; stroke-opacity: 0.6"/>
     <use xlink:href="#maf86083958" x="521.284976" y="34.414125" style="fill: #ef5350; fill-opacity: 0.6; stroke: #ef5350; stroke-opacity: 0.6"/>
     <use xlink:href="#maf86083958" x="547.593721" y="34.414125" style="fill: #ef5350; fill-opacity: 0.6; stroke: #ef5350; stroke-opacity: 0.6"/>
     <use xlink:href="#maf86083958" x="573.902467" y="34.414125" style="fill: #ef5350; fill-opacity: 0.6; stroke: #ef5350; stroke-opacity: 0.6"/>
     <use xlink:href="#maf86083958" x="600.211212" y="34.414125" style="fill: #ef5350; fill-opacity: 0.6; stroke: #ef5350; stroke-opacity: 0.6"/>
     <use xlink:href="#maf86083958" x="626.519957" y="185.906189" style="fill: #ef5350; fill-opacity: 0.6; stroke: #ef5350; stroke-opacity: 0.6"/>
     <use xlink:href="#maf86083958" x="652.828702" y="276.334125" style="fill: #ef5350; fill-opacity: 0.6; stroke: #ef5350; stroke-opacity: 0.6"/>
     <use xlink:href="#maf86083958" x="679.137448" y="70.986376" style="fill: #ef5350; fill-opacity: 0.6; stroke: #ef5350; stroke-opacity: 0.6"/>
    </g>
   </g>
   <g id="line2d_26">
    <path d="M 74.036307 34.414125 
L 100.345052 34.414125 
L 126.653798 34.414125 
L 152.962543 34.414125 
L 179.271288 34.414125 
L 205.580033 34.414125 
L 231.888779 34.414125 
L 258.197524 34.414125 
L 284.506269 34.414125 
L 310.815014 34.414125 
L 337.12376 34.414125 
L 363.432505 34.414125 
L 389.74125 34.414125 
L 416.049995 34.414125 
L 442.35874 34.414125 
L 468.667486 34.414125 
L 494.976231 143.235705 
L 521.284976 34.414125 
L 547.593721 34.414125 
L 573.902467 34.414125 
L 600.211212 34.414125 
L 626.519957 34.414125 
L 652.828702 34.414125 
L 679.137448 34.414125 
" clip-path="url(#pf8073be878)" style="fill: none; stroke: #ef5350; stroke-opacity: 0.6; stroke-width: 0.6; stroke-linecap: square"/>
    <g clip-path="url(#pf8073be878)">
     <use xlink:href="#maf86083958" x="74.036307" y="34.414125" style="fill: #ef5350; fill-opacity: 0.6; stroke: #ef5350; stroke-opacity: 0.6"/>
     <use xlink:href="#maf86083958" x="100.345052" y="34.414125" style="fill: #ef5350; fill-opacity: 0.6; stroke: #ef5350; stroke-opacity: 0.6"/>
     <use xlink:href="#maf86083958" x="126.653798" y="34.414125" style="fill: #ef5350; fill-opacity: 0.6; stroke: #ef5350; stroke-opacity: 0.6"/>
     <use xlink:href="#maf86083958" x="152.962543" y="34.414125" style="fill: #ef5350; fill-opacity: 0.6; stroke: #ef5350; stroke-opacity: 0.6"/>
     <use xlink:href="#maf86083958" x="179.271288" y="34.414125" style="fill: #ef5350; fill-opacity: 0.6; stroke: #ef5350; stroke-opacity: 0.6"/>
     <use xlink:href="#maf86083958" x="205.580033" y="34.414125" style="fill: #ef5350; fill-opacity: 0.6; stroke: #ef5350; stroke-opacity: 0.6"/>
     <use xlink:href="#maf86083958" x="231.888779" y="34.414125" style="fill: #ef5350; fill-opacity: 0.6; stroke: #ef5350; stroke-opacity: 0.6"/>
     <use xlink:href="#maf86083958" x="258.197524" y="34.414125" style="fill: #ef5350; fill-opacity: 0.6; stroke: #ef5350; stroke-opacity: 0.6"/>
     <use xlink:href="#maf86083958" x="284.506269" y="34.414125" style="fill: #ef5350; fill-opacity: 0.6; stroke: #ef5350; stroke-opacity: 0.6"/>
     <use xlink:href="#maf86083958" x="310.815014" y="34.414125" style="fill: #ef5350; fill-opacity: 0.6; stroke: #ef5350; stroke-opacity: 0.6"/>
     <use xlink:href="#maf86083958" x="337.12376" y="34.414125" style="fill: #ef5350; fill-opacity: 0.6; stroke: #ef5350; stroke-opacity: 0.6"/>
     <use xlink:href="#maf86083958" x="363.432505" y="34.414125" style="fill: #ef5350; fill-opacity: 0.6; stroke: #ef5350; stroke-opacity: 0.6"/>
     <use xlink:href="#maf86083958" x="389.74125" y="34.414125" style="fill: #ef5350; fill-opacity: 0.6; stroke: #ef5350; stroke-opacity: 0.6"/>
     <use xlink:href="#maf86083958" x="416.049995" y="34.414125" style="fill: #ef5350; fill-opacity: 0.6; stroke: #ef5350; stroke-opacity: 0.6"/>
     <use xlink:href="#maf86083958" x="442.35874" y="34.414125" style="fill: #ef5350; fill-opacity: 0.6; stroke: #ef5350; stroke-opacity: 0.6"/>
     <use xlink:href="#maf86083958" x="468.667486" y="34.414125" style="fill: #ef5350; fill-opacity: 0.6; stroke: #ef5350; stroke-opacity: 0.6"/>
     <use xlink:href="#maf86083958" x="494.976231" y="143.235705" style="fill: #ef5350; fill-opacity: 0.6; stroke: #ef5350; stroke-opacity: 0.6"/>
     <use xlink:href="#maf86083958" x="521.284976" y="34.414125" style="fill: #ef5350; fill-opacity: 0.6; stroke: #ef5350; stroke-opacity: 0.6"/>
     <use xlink:href="#maf86083958" x="547.593721" y="34.414125" style="fill: #ef5350; fill-opacity: 0.6; stroke: #ef5350; stroke-opacity: 0.6"/>
     <use xlink:href="#maf86083958" x="573.902467" y="34.414125" style="fill: #ef5350; fill-opacity: 0.6; stroke: #ef5350; stroke-opacity: 0.6"/>
     <use xlink:href="#maf86083958" x="600.211212" y="34.414125" style="fill: #ef5350; fill-opacity: 0.6; stroke: #ef5350; stroke-opacity: 0.6"/>
     <use xlink:href="#maf86083958" x="626.519957" y="34.414125" style="fill: #ef5350; fill-opacity: 0.6; stroke: #ef5350; stroke-opacity: 0.6"/>
     <use xlink:href="#maf86083958" x="652.828702" y="34.414125" style="fill: #ef5350; fill-opacity: 0.6; stroke: #ef5350; stroke-opacity: 0.6"/>
     <use xlink:href="#maf86083958" x="679.137448" y="34.414125" style="fill: #ef5350; fill-opacity: 0.6; stroke: #ef5350; stroke-opacity: 0.6"/>
    </g>
   </g>
   <g id="line2d_27">
    <path d="M 74.036307 34.414125 
L 100.345052 34.414125 
L 126.653798 34.414125 
L 152.962543 34.414125 
L 179.271288 34.414125 
L 205.580033 34.414125 
L 231.888779 34.414125 
L 258.197524 34.414125 
L 284.506269 34.414125 
L 310.815014 34.414125 
L 337.12376 34.414125 
L 363.432505 34.414125 
L 389.74125 34.414125 
L 416.049995 34.414125 
L 442.35874 34.414125 
L 468.667486 34.414125 
L 494.976231 34.414125 
L 521.284976 34.414125 
L 547.593721 34.414125 
L 573.902467 34.414125 
L 600.211212 34.414125 
L 626.519957 34.414125 
L 652.828702 34.414125 
L 679.137448 34.414125 
" clip-path="url(#pf8073be878)" style="fill: none; stroke: #ef5350; stroke-opacity: 0.6; stroke-width: 0.6; stroke-linecap: square"/>
    <g clip-path="url(#pf8073be878)">
     <use xlink:href="#maf86083958" x="74.036307" y="34.414125" style="fill: #ef5350; fill-opacity: 0.6; stroke: #ef5350; stroke-opacity: 0.6"/>
     <use xlink:href="#maf86083958" x="100.345052" y="34.414125" style="fill: #ef5350; fill-opacity: 0.6; stroke: #ef5350; stroke-opacity: 0.6"/>
     <use xlink:href="#maf86083958" x="126.653798" y="34.414125" style="fill: #ef5350; fill-opacity: 0.6; stroke: #ef5350; stroke-opacity: 0.6"/>
     <use xlink:href="#maf86083958" x="152.962543" y="34.414125" style="fill: #ef5350; fill-opacity: 0.6; stroke: #ef5350; stroke-opacity: 0.6"/>
     <use xlink:href="#maf86083958" x="179.271288" y="34.414125" style="fill: #ef5350; fill-opacity: 0.6; stroke: #ef5350; stroke-opacity: 0.6"/>
     <use xlink:href="#maf86083958" x="205.580033" y="34.414125" style="fill: #ef5350; fill-opacity: 0.6; stroke: #ef5350; stroke-opacity: 0.6"/>
     <use xlink:href="#maf86083958" x="231.888779" y="34.414125" style="fill: #ef5350; fill-opacity: 0.6; stroke: #ef5350; stroke-opacity: 0.6"/>
     <use xlink:href="#maf86083958" x="258.197524" y="34.414125" style="fill: #ef5350; fill-opacity: 0.6; stroke: #ef5350; stroke-opacity: 0.6"/>
     <use xlink:href="#maf86083958" x="284.506269" y="34.414125" style="fill: #ef5350; fill-opacity: 0.6; stroke: #ef5350; stroke-opacity: 0.6"/>
     <use xlink:href="#maf86083958" x="310.815014" y="34.414125" style="fill: #ef5350; fill-opacity: 0.6; stroke: #ef5350; stroke-opacity: 0.6"/>
     <use xlink:href="#maf86083958" x="337.12376" y="34.414125" style="fill: #ef5350; fill-opacity: 0.6; stroke: #ef5350; stroke-opacity: 0.6"/>
     <use xlink:href="#maf86083958" x="363.432505" y="34.414125" style="fill: #ef5350; fill-opacity: 0.6; stroke: #ef5350; stroke-opacity: 0.6"/>
     <use xlink:href="#maf86083958" x="389.74125" y="34.414125" style="fill: #ef5350; fill-opacity: 0.6; stroke: #ef5350; stroke-opacity: 0.6"/>
     <use xlink:href="#maf86083958" x="416.049995" y="34.414125" style="fill: #ef5350; fill-opacity: 0.6; stroke: #ef5350; stroke-opacity: 0.6"/>
     <use xlink:href="#maf86083958" x="442.35874" y="34.414125" style="fill: #ef5350; fill-opacity: 0.6; stroke: #ef5350; stroke-opacity: 0.6"/>
     <use xlink:href="#maf86083958" x="468.667486" y="34.414125" style="fill: #ef5350; fill-opacity: 0.6; stroke: #ef5350; stroke-opacity: 0.6"/>
     <use xlink:href="#maf86083958" x="494.976231" y="34.414125" style="fill: #ef5350; fill-opacity: 0.6; stroke: #ef5350; stroke-opacity: 0.6"/>
     <use xlink:href="#maf86083958" x="521.284976" y="34.414125" style="fill: #ef5350; fill-opacity: 0.6; stroke: #ef5350; stroke-opacity: 0.6"/>
     <use xlink:href="#maf86083958" x="547.593721" y="34.414125" style="fill: #ef5350; fill-opacity: 0.6; stroke: #ef5350; stroke-opacity: 0.6"/>
     <use xlink:href="#maf86083958" x="573.902467" y="34.414125" style="fill: #ef5350; fill-opacity: 0.6; stroke: #ef5350; stroke-opacity: 0.6"/>
     <use xlink:href="#maf86083958" x="600.211212" y="34.414125" style="fill: #ef5350; fill-opacity: 0.6; stroke: #ef5350; stroke-opacity: 0.6"/>
     <use xlink:href="#maf86083958" x="626.519957" y="34.414125" style="fill: #ef5350; fill-opacity: 0.6; stroke: #ef5350; stroke-opacity: 0.6"/>
     <use xlink:href="#maf86083958" x="652.828702" y="34.414125" style="fill: #ef5350; fill-opacity: 0.6; stroke: #ef5350; stroke-opacity: 0.6"/>
     <use xlink:href="#maf86083958" x="679.137448" y="34.414125" style="fill: #ef5350; fill-opacity: 0.6; stroke: #ef5350; stroke-opacity: 0.6"/>
    </g>
   </g>
   <g id="patch_3">
    <path d="M 43.78125 288.430125 
L 43.78125 22.318125 
" style="fill: none"/>
   </g>
   <g id="patch_4">
    <path d="M 735.70125 288.430125 
L 735.70125 22.318125 
" style="fill: none"/>
   </g>
   <g id="patch_5">
    <path d="M 43.78125 288.430125 
L 735.70125 288.430125 
" style="fill: none"/>
   </g>
   <g id="patch_6">
    <path d="M 43.78125 22.318125 
L 735.70125 22.318125 
" style="fill: none"/>
   </g>
   <g id="text_13">
    <!-- HMC -->
    <g style="fill: #666666" transform="translate(375.8625 16.318125) scale(0.12 -0.12)">
     <defs>
      <path id="DejaVuSans-48" d="M 628 4666 
L 1259 4666 
L 1259 2753 
L 3553 2753 
L 3553 4666 
L 4184 4666 
L 4184 0 
L 3553 0 
L 3553 2222 
L 1259 2222 
L 1259 0 
L 628 0 
L 628 4666 
z
" transform="scale(0.015625)"/>
      <path id="DejaVuSans-4d" d="M 628 4666 
L 1569 4666 
L 2759 1491 
L 3956 4666 
L 4897 4666 
L 4897 0 
L 4281 0 
L 4281 4097 
L 3078 897 
L 2444 897 
L 1241 4097 
L 1241 0 
L 628 0 
L 628 4666 
z
" transform="scale(0.015625)"/>
      <path id="DejaVuSans-43" d="M 4122 4306 
L 4122 3641 
Q 3803 3938 3442 4084 
Q 3081 4231 2675 4231 
Q 1875 4231 1450 3742 
Q 1025 3253 1025 2328 
Q 1025 1406 1450 917 
Q 1875 428 2675 428 
Q 3081 428 3442 575 
Q 3803 722 4122 1019 
L 4122 359 
Q 3791 134 3420 21 
Q 3050 -91 2638 -91 
Q 1578 -91 968 557 
Q 359 1206 359 2328 
Q 359 3453 968 4101 
Q 1578 4750 2638 4750 
Q 3056 4750 3426 4639 
Q 3797 4528 4122 4306 
z
" transform="scale(0.015625)"/>
     </defs>
     <use xlink:href="#DejaVuSans-48"/>
     <use xlink:href="#DejaVuSans-4d" x="75.195312"/>
     <use xlink:href="#DejaVuSans-43" x="161.474609"/>
    </g>
   </g>
  </g>
 </g>
 <defs>
  <clipPath id="pf8073be878">
   <rect x="43.78125" y="22.318125" width="691.92" height="266.112"/>
  </clipPath>
 </defs>
</svg>
