<?xml version="1.0" encoding="utf-8" standalone="no"?>
<!DOCTYPE svg PUBLIC "-//W3C//DTD SVG 1.1//EN"
  "http://www.w3.org/Graphics/SVG/1.1/DTD/svg11.dtd">
<svg xmlns:xlink="http://www.w3.org/1999/xlink" width="745.317438pt" height="312.30825pt" viewBox="0 0 745.317438 312.30825" xmlns="http://www.w3.org/2000/svg" version="1.1">
 <metadata>
  <rdf:RDF xmlns:dc="http://purl.org/dc/elements/1.1/" xmlns:cc="http://creativecommons.org/ns#" xmlns:rdf="http://www.w3.org/1999/02/22-rdf-syntax-ns#">
   <cc:Work>
    <dc:type rdf:resource="http://purl.org/dc/dcmitype/StillImage"/>
    <dc:date>2023-07-10T07:57:08.885073</dc:date>
    <dc:format>image/svg+xml</dc:format>
    <dc:creator>
     <cc:Agent>
      <dc:title>Matplotlib v3.7.1, https://matplotlib.org/</dc:title>
     </cc:Agent>
    </dc:creator>
   </cc:Work>
  </rdf:RDF>
 </metadata>
 <defs>
  <style type="text/css">*{stroke-linejoin: round; stroke-linecap: butt}</style>
 </defs>
 <g id="figure_1">
  <g id="patch_1">
   <path d="M 0 312.30825 
L 745.317438 312.30825 
L 745.317438 0 
L 0 0 
L 0 312.30825 
z
" style="fill: none"/>
  </g>
  <g id="axes_1">
   <g id="patch_2">
    <path d="M 43.78125 288.430125 
L 735.70125 288.430125 
L 735.70125 22.318125 
L 43.78125 22.318125 
L 43.78125 288.430125 
z
" style="fill: none"/>
   </g>
   <g id="matplotlib.axis_1">
    <g id="xtick_1">
     <g id="line2d_1">
      <path d="M 74.036307 288.430125 
L 74.036307 22.318125 
" clip-path="url(#pb794c3af0c)" style="fill: none; stroke-dasharray: 1.85,0.8; stroke-dashoffset: 0; stroke: #666666; stroke-opacity: 0.4; stroke-width: 0.5"/>
     </g>
     <g id="line2d_2">
      <defs>
       <path id="m26184d3c74" d="M 0 0 
L 0 3.5 
" style="stroke: #000000; stroke-opacity: 0; stroke-width: 0.8"/>
      </defs>
      <g>
       <use xlink:href="#m26184d3c74" x="74.036307" y="288.430125" style="fill-opacity: 0; stroke: #000000; stroke-opacity: 0; stroke-width: 0.8"/>
      </g>
     </g>
     <g id="text_1">
      <!-- 0 -->
      <g style="fill: #666666" transform="translate(70.855057 303.028562) scale(0.1 -0.1)">
       <defs>
        <path id="DejaVuSans-30" d="M 2034 4250 
Q 1547 4250 1301 3770 
Q 1056 3291 1056 2328 
Q 1056 1369 1301 889 
Q 1547 409 2034 409 
Q 2525 409 2770 889 
Q 3016 1369 3016 2328 
Q 3016 3291 2770 3770 
Q 2525 4250 2034 4250 
z
M 2034 4750 
Q 2819 4750 3233 4129 
Q 3647 3509 3647 2328 
Q 3647 1150 3233 529 
Q 2819 -91 2034 -91 
Q 1250 -91 836 529 
Q 422 1150 422 2328 
Q 422 3509 836 4129 
Q 1250 4750 2034 4750 
z
" transform="scale(0.015625)"/>
       </defs>
       <use xlink:href="#DejaVuSans-30"/>
      </g>
     </g>
    </g>
    <g id="xtick_2">
     <g id="line2d_3">
      <path d="M 205.580033 288.430125 
L 205.580033 22.318125 
" clip-path="url(#pb794c3af0c)" style="fill: none; stroke-dasharray: 1.85,0.8; stroke-dashoffset: 0; stroke: #666666; stroke-opacity: 0.4; stroke-width: 0.5"/>
     </g>
     <g id="line2d_4">
      <g>
       <use xlink:href="#m26184d3c74" x="205.580033" y="288.430125" style="fill-opacity: 0; stroke: #000000; stroke-opacity: 0; stroke-width: 0.8"/>
      </g>
     </g>
     <g id="text_2">
      <!-- 5 -->
      <g style="fill: #666666" transform="translate(202.398783 303.028562) scale(0.1 -0.1)">
       <defs>
        <path id="DejaVuSans-35" d="M 691 4666 
L 3169 4666 
L 3169 4134 
L 1269 4134 
L 1269 2991 
Q 1406 3038 1543 3061 
Q 1681 3084 1819 3084 
Q 2600 3084 3056 2656 
Q 3513 2228 3513 1497 
Q 3513 744 3044 326 
Q 2575 -91 1722 -91 
Q 1428 -91 1123 -41 
Q 819 9 494 109 
L 494 744 
Q 775 591 1075 516 
Q 1375 441 1709 441 
Q 2250 441 2565 725 
Q 2881 1009 2881 1497 
Q 2881 1984 2565 2268 
Q 2250 2553 1709 2553 
Q 1456 2553 1204 2497 
Q 953 2441 691 2322 
L 691 4666 
z
" transform="scale(0.015625)"/>
       </defs>
       <use xlink:href="#DejaVuSans-35"/>
      </g>
     </g>
    </g>
    <g id="xtick_3">
     <g id="line2d_5">
      <path d="M 337.12376 288.430125 
L 337.12376 22.318125 
" clip-path="url(#pb794c3af0c)" style="fill: none; stroke-dasharray: 1.85,0.8; stroke-dashoffset: 0; stroke: #666666; stroke-opacity: 0.4; stroke-width: 0.5"/>
     </g>
     <g id="line2d_6">
      <g>
       <use xlink:href="#m26184d3c74" x="337.12376" y="288.430125" style="fill-opacity: 0; stroke: #000000; stroke-opacity: 0; stroke-width: 0.8"/>
      </g>
     </g>
     <g id="text_3">
      <!-- 10 -->
      <g style="fill: #666666" transform="translate(330.76126 303.028562) scale(0.1 -0.1)">
       <defs>
        <path id="DejaVuSans-31" d="M 794 531 
L 1825 531 
L 1825 4091 
L 703 3866 
L 703 4441 
L 1819 4666 
L 2450 4666 
L 2450 531 
L 3481 531 
L 3481 0 
L 794 0 
L 794 531 
z
" transform="scale(0.015625)"/>
       </defs>
       <use xlink:href="#DejaVuSans-31"/>
       <use xlink:href="#DejaVuSans-30" x="63.623047"/>
      </g>
     </g>
    </g>
    <g id="xtick_4">
     <g id="line2d_7">
      <path d="M 468.667486 288.430125 
L 468.667486 22.318125 
" clip-path="url(#pb794c3af0c)" style="fill: none; stroke-dasharray: 1.85,0.8; stroke-dashoffset: 0; stroke: #666666; stroke-opacity: 0.4; stroke-width: 0.5"/>
     </g>
     <g id="line2d_8">
      <g>
       <use xlink:href="#m26184d3c74" x="468.667486" y="288.430125" style="fill-opacity: 0; stroke: #000000; stroke-opacity: 0; stroke-width: 0.8"/>
      </g>
     </g>
     <g id="text_4">
      <!-- 15 -->
      <g style="fill: #666666" transform="translate(462.304986 303.028562) scale(0.1 -0.1)">
       <use xlink:href="#DejaVuSans-31"/>
       <use xlink:href="#DejaVuSans-35" x="63.623047"/>
      </g>
     </g>
    </g>
    <g id="xtick_5">
     <g id="line2d_9">
      <path d="M 600.211212 288.430125 
L 600.211212 22.318125 
" clip-path="url(#pb794c3af0c)" style="fill: none; stroke-dasharray: 1.85,0.8; stroke-dashoffset: 0; stroke: #666666; stroke-opacity: 0.4; stroke-width: 0.5"/>
     </g>
     <g id="line2d_10">
      <g>
       <use xlink:href="#m26184d3c74" x="600.211212" y="288.430125" style="fill-opacity: 0; stroke: #000000; stroke-opacity: 0; stroke-width: 0.8"/>
      </g>
     </g>
     <g id="text_5">
      <!-- 20 -->
      <g style="fill: #666666" transform="translate(593.848712 303.028562) scale(0.1 -0.1)">
       <defs>
        <path id="DejaVuSans-32" d="M 1228 531 
L 3431 531 
L 3431 0 
L 469 0 
L 469 531 
Q 828 903 1448 1529 
Q 2069 2156 2228 2338 
Q 2531 2678 2651 2914 
Q 2772 3150 2772 3378 
Q 2772 3750 2511 3984 
Q 2250 4219 1831 4219 
Q 1534 4219 1204 4116 
Q 875 4013 500 3803 
L 500 4441 
Q 881 4594 1212 4672 
Q 1544 4750 1819 4750 
Q 2544 4750 2975 4387 
Q 3406 4025 3406 3419 
Q 3406 3131 3298 2873 
Q 3191 2616 2906 2266 
Q 2828 2175 2409 1742 
Q 1991 1309 1228 531 
z
" transform="scale(0.015625)"/>
       </defs>
       <use xlink:href="#DejaVuSans-32"/>
       <use xlink:href="#DejaVuSans-30" x="63.623047"/>
      </g>
     </g>
    </g>
    <g id="xtick_6">
     <g id="line2d_11">
      <path d="M 731.754938 288.430125 
L 731.754938 22.318125 
" clip-path="url(#pb794c3af0c)" style="fill: none; stroke-dasharray: 1.85,0.8; stroke-dashoffset: 0; stroke: #666666; stroke-opacity: 0.4; stroke-width: 0.5"/>
     </g>
     <g id="line2d_12">
      <g>
       <use xlink:href="#m26184d3c74" x="731.754938" y="288.430125" style="fill-opacity: 0; stroke: #000000; stroke-opacity: 0; stroke-width: 0.8"/>
      </g>
     </g>
     <g id="text_6">
      <!-- 25 -->
      <g style="fill: #666666" transform="translate(725.392438 303.028562) scale(0.1 -0.1)">
       <use xlink:href="#DejaVuSans-32"/>
       <use xlink:href="#DejaVuSans-35" x="63.623047"/>
      </g>
     </g>
    </g>
   </g>
   <g id="matplotlib.axis_2">
    <g id="ytick_1">
     <g id="line2d_13">
      <path d="M 43.78125 259.489763 
L 735.70125 259.489763 
" clip-path="url(#pb794c3af0c)" style="fill: none; stroke-dasharray: 1.85,0.8; stroke-dashoffset: 0; stroke: #666666; stroke-opacity: 0.4; stroke-width: 0.5"/>
     </g>
     <g id="line2d_14">
      <defs>
       <path id="ma64e72554d" d="M 0 0 
L -3.5 0 
" style="stroke: #000000; stroke-opacity: 0; stroke-width: 0.8"/>
      </defs>
      <g>
       <use xlink:href="#ma64e72554d" x="43.78125" y="259.489763" style="fill-opacity: 0; stroke: #000000; stroke-opacity: 0; stroke-width: 0.8"/>
      </g>
     </g>
     <g id="text_7">
      <!-- 0.3 -->
      <g style="fill: #666666" transform="translate(20.878125 263.288982) scale(0.1 -0.1)">
       <defs>
        <path id="DejaVuSans-2e" d="M 684 794 
L 1344 794 
L 1344 0 
L 684 0 
L 684 794 
z
" transform="scale(0.015625)"/>
        <path id="DejaVuSans-33" d="M 2597 2516 
Q 3050 2419 3304 2112 
Q 3559 1806 3559 1356 
Q 3559 666 3084 287 
Q 2609 -91 1734 -91 
Q 1441 -91 1130 -33 
Q 819 25 488 141 
L 488 750 
Q 750 597 1062 519 
Q 1375 441 1716 441 
Q 2309 441 2620 675 
Q 2931 909 2931 1356 
Q 2931 1769 2642 2001 
Q 2353 2234 1838 2234 
L 1294 2234 
L 1294 2753 
L 1863 2753 
Q 2328 2753 2575 2939 
Q 2822 3125 2822 3475 
Q 2822 3834 2567 4026 
Q 2313 4219 1838 4219 
Q 1578 4219 1281 4162 
Q 984 4106 628 3988 
L 628 4550 
Q 988 4650 1302 4700 
Q 1616 4750 1894 4750 
Q 2613 4750 3031 4423 
Q 3450 4097 3450 3541 
Q 3450 3153 3228 2886 
Q 3006 2619 2597 2516 
z
" transform="scale(0.015625)"/>
       </defs>
       <use xlink:href="#DejaVuSans-30"/>
       <use xlink:href="#DejaVuSans-2e" x="63.623047"/>
       <use xlink:href="#DejaVuSans-33" x="95.410156"/>
      </g>
     </g>
    </g>
    <g id="ytick_2">
     <g id="line2d_15">
      <path d="M 43.78125 227.3361 
L 735.70125 227.3361 
" clip-path="url(#pb794c3af0c)" style="fill: none; stroke-dasharray: 1.85,0.8; stroke-dashoffset: 0; stroke: #666666; stroke-opacity: 0.4; stroke-width: 0.5"/>
     </g>
     <g id="line2d_16">
      <g>
       <use xlink:href="#ma64e72554d" x="43.78125" y="227.3361" style="fill-opacity: 0; stroke: #000000; stroke-opacity: 0; stroke-width: 0.8"/>
      </g>
     </g>
     <g id="text_8">
      <!-- 0.4 -->
      <g style="fill: #666666" transform="translate(20.878125 231.135319) scale(0.1 -0.1)">
       <defs>
        <path id="DejaVuSans-34" d="M 2419 4116 
L 825 1625 
L 2419 1625 
L 2419 4116 
z
M 2253 4666 
L 3047 4666 
L 3047 1625 
L 3713 1625 
L 3713 1100 
L 3047 1100 
L 3047 0 
L 2419 0 
L 2419 1100 
L 313 1100 
L 313 1709 
L 2253 4666 
z
" transform="scale(0.015625)"/>
       </defs>
       <use xlink:href="#DejaVuSans-30"/>
       <use xlink:href="#DejaVuSans-2e" x="63.623047"/>
       <use xlink:href="#DejaVuSans-34" x="95.410156"/>
      </g>
     </g>
    </g>
    <g id="ytick_3">
     <g id="line2d_17">
      <path d="M 43.78125 195.182438 
L 735.70125 195.182438 
" clip-path="url(#pb794c3af0c)" style="fill: none; stroke-dasharray: 1.85,0.8; stroke-dashoffset: 0; stroke: #666666; stroke-opacity: 0.4; stroke-width: 0.5"/>
     </g>
     <g id="line2d_18">
      <g>
       <use xlink:href="#ma64e72554d" x="43.78125" y="195.182438" style="fill-opacity: 0; stroke: #000000; stroke-opacity: 0; stroke-width: 0.8"/>
      </g>
     </g>
     <g id="text_9">
      <!-- 0.5 -->
      <g style="fill: #666666" transform="translate(20.878125 198.981657) scale(0.1 -0.1)">
       <use xlink:href="#DejaVuSans-30"/>
       <use xlink:href="#DejaVuSans-2e" x="63.623047"/>
       <use xlink:href="#DejaVuSans-35" x="95.410156"/>
      </g>
     </g>
    </g>
    <g id="ytick_4">
     <g id="line2d_19">
      <path d="M 43.78125 163.028775 
L 735.70125 163.028775 
" clip-path="url(#pb794c3af0c)" style="fill: none; stroke-dasharray: 1.85,0.8; stroke-dashoffset: 0; stroke: #666666; stroke-opacity: 0.4; stroke-width: 0.5"/>
     </g>
     <g id="line2d_20">
      <g>
       <use xlink:href="#ma64e72554d" x="43.78125" y="163.028775" style="fill-opacity: 0; stroke: #000000; stroke-opacity: 0; stroke-width: 0.8"/>
      </g>
     </g>
     <g id="text_10">
      <!-- 0.6 -->
      <g style="fill: #666666" transform="translate(20.878125 166.827994) scale(0.1 -0.1)">
       <defs>
        <path id="DejaVuSans-36" d="M 2113 2584 
Q 1688 2584 1439 2293 
Q 1191 2003 1191 1497 
Q 1191 994 1439 701 
Q 1688 409 2113 409 
Q 2538 409 2786 701 
Q 3034 994 3034 1497 
Q 3034 2003 2786 2293 
Q 2538 2584 2113 2584 
z
M 3366 4563 
L 3366 3988 
Q 3128 4100 2886 4159 
Q 2644 4219 2406 4219 
Q 1781 4219 1451 3797 
Q 1122 3375 1075 2522 
Q 1259 2794 1537 2939 
Q 1816 3084 2150 3084 
Q 2853 3084 3261 2657 
Q 3669 2231 3669 1497 
Q 3669 778 3244 343 
Q 2819 -91 2113 -91 
Q 1303 -91 875 529 
Q 447 1150 447 2328 
Q 447 3434 972 4092 
Q 1497 4750 2381 4750 
Q 2619 4750 2861 4703 
Q 3103 4656 3366 4563 
z
" transform="scale(0.015625)"/>
       </defs>
       <use xlink:href="#DejaVuSans-30"/>
       <use xlink:href="#DejaVuSans-2e" x="63.623047"/>
       <use xlink:href="#DejaVuSans-36" x="95.410156"/>
      </g>
     </g>
    </g>
    <g id="ytick_5">
     <g id="line2d_21">
      <path d="M 43.78125 130.875113 
L 735.70125 130.875113 
" clip-path="url(#pb794c3af0c)" style="fill: none; stroke-dasharray: 1.85,0.8; stroke-dashoffset: 0; stroke: #666666; stroke-opacity: 0.4; stroke-width: 0.5"/>
     </g>
     <g id="line2d_22">
      <g>
       <use xlink:href="#ma64e72554d" x="43.78125" y="130.875113" style="fill-opacity: 0; stroke: #000000; stroke-opacity: 0; stroke-width: 0.8"/>
      </g>
     </g>
     <g id="text_11">
      <!-- 0.7 -->
      <g style="fill: #666666" transform="translate(20.878125 134.674331) scale(0.1 -0.1)">
       <defs>
        <path id="DejaVuSans-37" d="M 525 4666 
L 3525 4666 
L 3525 4397 
L 1831 0 
L 1172 0 
L 2766 4134 
L 525 4134 
L 525 4666 
z
" transform="scale(0.015625)"/>
       </defs>
       <use xlink:href="#DejaVuSans-30"/>
       <use xlink:href="#DejaVuSans-2e" x="63.623047"/>
       <use xlink:href="#DejaVuSans-37" x="95.410156"/>
      </g>
     </g>
    </g>
    <g id="ytick_6">
     <g id="line2d_23">
      <path d="M 43.78125 98.72145 
L 735.70125 98.72145 
" clip-path="url(#pb794c3af0c)" style="fill: none; stroke-dasharray: 1.85,0.8; stroke-dashoffset: 0; stroke: #666666; stroke-opacity: 0.4; stroke-width: 0.5"/>
     </g>
     <g id="line2d_24">
      <g>
       <use xlink:href="#ma64e72554d" x="43.78125" y="98.72145" style="fill-opacity: 0; stroke: #000000; stroke-opacity: 0; stroke-width: 0.8"/>
      </g>
     </g>
     <g id="text_12">
      <!-- 0.8 -->
      <g style="fill: #666666" transform="translate(20.878125 102.520669) scale(0.1 -0.1)">
       <defs>
        <path id="DejaVuSans-38" d="M 2034 2216 
Q 1584 2216 1326 1975 
Q 1069 1734 1069 1313 
Q 1069 891 1326 650 
Q 1584 409 2034 409 
Q 2484 409 2743 651 
Q 3003 894 3003 1313 
Q 3003 1734 2745 1975 
Q 2488 2216 2034 2216 
z
M 1403 2484 
Q 997 2584 770 2862 
Q 544 3141 544 3541 
Q 544 4100 942 4425 
Q 1341 4750 2034 4750 
Q 2731 4750 3128 4425 
Q 3525 4100 3525 3541 
Q 3525 3141 3298 2862 
Q 3072 2584 2669 2484 
Q 3125 2378 3379 2068 
Q 3634 1759 3634 1313 
Q 3634 634 3220 271 
Q 2806 -91 2034 -91 
Q 1263 -91 848 271 
Q 434 634 434 1313 
Q 434 1759 690 2068 
Q 947 2378 1403 2484 
z
M 1172 3481 
Q 1172 3119 1398 2916 
Q 1625 2713 2034 2713 
Q 2441 2713 2670 2916 
Q 2900 3119 2900 3481 
Q 2900 3844 2670 4047 
Q 2441 4250 2034 4250 
Q 1625 4250 1398 4047 
Q 1172 3844 1172 3481 
z
" transform="scale(0.015625)"/>
       </defs>
       <use xlink:href="#DejaVuSans-30"/>
       <use xlink:href="#DejaVuSans-2e" x="63.623047"/>
       <use xlink:href="#DejaVuSans-38" x="95.410156"/>
      </g>
     </g>
    </g>
    <g id="ytick_7">
     <g id="line2d_25">
      <path d="M 43.78125 66.567788 
L 735.70125 66.567788 
" clip-path="url(#pb794c3af0c)" style="fill: none; stroke-dasharray: 1.85,0.8; stroke-dashoffset: 0; stroke: #666666; stroke-opacity: 0.4; stroke-width: 0.5"/>
     </g>
     <g id="line2d_26">
      <g>
       <use xlink:href="#ma64e72554d" x="43.78125" y="66.567788" style="fill-opacity: 0; stroke: #000000; stroke-opacity: 0; stroke-width: 0.8"/>
      </g>
     </g>
     <g id="text_13">
      <!-- 0.9 -->
      <g style="fill: #666666" transform="translate(20.878125 70.367006) scale(0.1 -0.1)">
       <defs>
        <path id="DejaVuSans-39" d="M 703 97 
L 703 672 
Q 941 559 1184 500 
Q 1428 441 1663 441 
Q 2288 441 2617 861 
Q 2947 1281 2994 2138 
Q 2813 1869 2534 1725 
Q 2256 1581 1919 1581 
Q 1219 1581 811 2004 
Q 403 2428 403 3163 
Q 403 3881 828 4315 
Q 1253 4750 1959 4750 
Q 2769 4750 3195 4129 
Q 3622 3509 3622 2328 
Q 3622 1225 3098 567 
Q 2575 -91 1691 -91 
Q 1453 -91 1209 -44 
Q 966 3 703 97 
z
M 1959 2075 
Q 2384 2075 2632 2365 
Q 2881 2656 2881 3163 
Q 2881 3666 2632 3958 
Q 2384 4250 1959 4250 
Q 1534 4250 1286 3958 
Q 1038 3666 1038 3163 
Q 1038 2656 1286 2365 
Q 1534 2075 1959 2075 
z
" transform="scale(0.015625)"/>
       </defs>
       <use xlink:href="#DejaVuSans-30"/>
       <use xlink:href="#DejaVuSans-2e" x="63.623047"/>
       <use xlink:href="#DejaVuSans-39" x="95.410156"/>
      </g>
     </g>
    </g>
    <g id="ytick_8">
     <g id="line2d_27">
      <path d="M 43.78125 34.414125 
L 735.70125 34.414125 
" clip-path="url(#pb794c3af0c)" style="fill: none; stroke-dasharray: 1.85,0.8; stroke-dashoffset: 0; stroke: #666666; stroke-opacity: 0.4; stroke-width: 0.5"/>
     </g>
     <g id="line2d_28">
      <g>
       <use xlink:href="#ma64e72554d" x="43.78125" y="34.414125" style="fill-opacity: 0; stroke: #000000; stroke-opacity: 0; stroke-width: 0.8"/>
      </g>
     </g>
     <g id="text_14">
      <!-- 1.0 -->
      <g style="fill: #666666" transform="translate(20.878125 38.213344) scale(0.1 -0.1)">
       <use xlink:href="#DejaVuSans-31"/>
       <use xlink:href="#DejaVuSans-2e" x="63.623047"/>
       <use xlink:href="#DejaVuSans-30" x="95.410156"/>
      </g>
     </g>
    </g>
    <g id="text_15">
     <!-- acc -->
     <g style="fill: #bdbdbd" transform="translate(14.798437 163.936625) rotate(-90) scale(0.1 -0.1)">
      <defs>
       <path id="DejaVuSans-61" d="M 2194 1759 
Q 1497 1759 1228 1600 
Q 959 1441 959 1056 
Q 959 750 1161 570 
Q 1363 391 1709 391 
Q 2188 391 2477 730 
Q 2766 1069 2766 1631 
L 2766 1759 
L 2194 1759 
z
M 3341 1997 
L 3341 0 
L 2766 0 
L 2766 531 
Q 2569 213 2275 61 
Q 1981 -91 1556 -91 
Q 1019 -91 701 211 
Q 384 513 384 1019 
Q 384 1609 779 1909 
Q 1175 2209 1959 2209 
L 2766 2209 
L 2766 2266 
Q 2766 2663 2505 2880 
Q 2244 3097 1772 3097 
Q 1472 3097 1187 3025 
Q 903 2953 641 2809 
L 641 3341 
Q 956 3463 1253 3523 
Q 1550 3584 1831 3584 
Q 2591 3584 2966 3190 
Q 3341 2797 3341 1997 
z
" transform="scale(0.015625)"/>
       <path id="DejaVuSans-63" d="M 3122 3366 
L 3122 2828 
Q 2878 2963 2633 3030 
Q 2388 3097 2138 3097 
Q 1578 3097 1268 2742 
Q 959 2388 959 1747 
Q 959 1106 1268 751 
Q 1578 397 2138 397 
Q 2388 397 2633 464 
Q 2878 531 3122 666 
L 3122 134 
Q 2881 22 2623 -34 
Q 2366 -91 2075 -91 
Q 1284 -91 818 406 
Q 353 903 353 1747 
Q 353 2603 823 3093 
Q 1294 3584 2113 3584 
Q 2378 3584 2631 3529 
Q 2884 3475 3122 3366 
z
" transform="scale(0.015625)"/>
      </defs>
      <use xlink:href="#DejaVuSans-61"/>
      <use xlink:href="#DejaVuSans-63" x="61.279297"/>
      <use xlink:href="#DejaVuSans-63" x="116.259766"/>
     </g>
    </g>
   </g>
   <g id="line2d_29">
    <path d="M 74.036307 91.660256 
L 100.345052 79.037804 
L 126.653798 86.52384 
L 152.962543 59.203727 
L 179.271288 154.777458 
L 205.580033 93.967239 
L 231.888779 63.261125 
L 258.197524 173.922688 
L 284.506269 121.19728 
L 310.815014 82.276536 
L 337.12376 131.04239 
L 363.432505 165.822264 
L 389.74125 161.498456 
L 416.049995 55.148637 
L 442.35874 85.158932 
L 468.667486 107.340623 
L 494.976231 152.316183 
L 521.284976 57.401135 
L 547.593721 64.249397 
L 573.902467 78.786083 
L 600.211212 128.211381 
L 626.519957 104.74505 
L 652.828702 195.085908 
L 679.137448 154.961728 
" clip-path="url(#pb794c3af0c)" style="fill: none; stroke: #2196f3; stroke-width: 1.5; stroke-linecap: square"/>
    <defs>
     <path id="mca3dd5ad7b" d="M 0 1.5 
C 0.397805 1.5 0.77937 1.341951 1.06066 1.06066 
C 1.341951 0.77937 1.5 0.397805 1.5 0 
C 1.5 -0.397805 1.341951 -0.77937 1.06066 -1.06066 
C 0.77937 -1.341951 0.397805 -1.5 0 -1.5 
C -0.397805 -1.5 -0.77937 -1.341951 -1.06066 -1.06066 
C -1.341951 -0.77937 -1.5 -0.397805 -1.5 0 
C -1.5 0.397805 -1.341951 0.77937 -1.06066 1.06066 
C -0.77937 1.341951 -0.397805 1.5 0 1.5 
z
" style="stroke: #2196f3"/>
    </defs>
    <g clip-path="url(#pb794c3af0c)">
     <use xlink:href="#mca3dd5ad7b" x="74.036307" y="91.660256" style="fill: #2196f3; stroke: #2196f3"/>
     <use xlink:href="#mca3dd5ad7b" x="100.345052" y="79.037804" style="fill: #2196f3; stroke: #2196f3"/>
     <use xlink:href="#mca3dd5ad7b" x="126.653798" y="86.52384" style="fill: #2196f3; stroke: #2196f3"/>
     <use xlink:href="#mca3dd5ad7b" x="152.962543" y="59.203727" style="fill: #2196f3; stroke: #2196f3"/>
     <use xlink:href="#mca3dd5ad7b" x="179.271288" y="154.777458" style="fill: #2196f3; stroke: #2196f3"/>
     <use xlink:href="#mca3dd5ad7b" x="205.580033" y="93.967239" style="fill: #2196f3; stroke: #2196f3"/>
     <use xlink:href="#mca3dd5ad7b" x="231.888779" y="63.261125" style="fill: #2196f3; stroke: #2196f3"/>
     <use xlink:href="#mca3dd5ad7b" x="258.197524" y="173.922688" style="fill: #2196f3; stroke: #2196f3"/>
     <use xlink:href="#mca3dd5ad7b" x="284.506269" y="121.19728" style="fill: #2196f3; stroke: #2196f3"/>
     <use xlink:href="#mca3dd5ad7b" x="310.815014" y="82.276536" style="fill: #2196f3; stroke: #2196f3"/>
     <use xlink:href="#mca3dd5ad7b" x="337.12376" y="131.04239" style="fill: #2196f3; stroke: #2196f3"/>
     <use xlink:href="#mca3dd5ad7b" x="363.432505" y="165.822264" style="fill: #2196f3; stroke: #2196f3"/>
     <use xlink:href="#mca3dd5ad7b" x="389.74125" y="161.498456" style="fill: #2196f3; stroke: #2196f3"/>
     <use xlink:href="#mca3dd5ad7b" x="416.049995" y="55.148637" style="fill: #2196f3; stroke: #2196f3"/>
     <use xlink:href="#mca3dd5ad7b" x="442.35874" y="85.158932" style="fill: #2196f3; stroke: #2196f3"/>
     <use xlink:href="#mca3dd5ad7b" x="468.667486" y="107.340623" style="fill: #2196f3; stroke: #2196f3"/>
     <use xlink:href="#mca3dd5ad7b" x="494.976231" y="152.316183" style="fill: #2196f3; stroke: #2196f3"/>
     <use xlink:href="#mca3dd5ad7b" x="521.284976" y="57.401135" style="fill: #2196f3; stroke: #2196f3"/>
     <use xlink:href="#mca3dd5ad7b" x="547.593721" y="64.249397" style="fill: #2196f3; stroke: #2196f3"/>
     <use xlink:href="#mca3dd5ad7b" x="573.902467" y="78.786083" style="fill: #2196f3; stroke: #2196f3"/>
     <use xlink:href="#mca3dd5ad7b" x="600.211212" y="128.211381" style="fill: #2196f3; stroke: #2196f3"/>
     <use xlink:href="#mca3dd5ad7b" x="626.519957" y="104.74505" style="fill: #2196f3; stroke: #2196f3"/>
     <use xlink:href="#mca3dd5ad7b" x="652.828702" y="195.085908" style="fill: #2196f3; stroke: #2196f3"/>
     <use xlink:href="#mca3dd5ad7b" x="679.137448" y="154.961728" style="fill: #2196f3; stroke: #2196f3"/>
    </g>
   </g>
   <g id="line2d_30">
    <path d="M 74.036307 115.647823 
L 100.345052 186.53466 
L 126.653798 137.185894 
L 152.962543 34.414125 
L 179.271288 144.927566 
L 205.580033 146.864482 
L 231.888779 34.414125 
L 258.197524 38.001129 
L 284.506269 34.414125 
L 310.815014 34.414125 
L 337.12376 78.157287 
L 363.432505 157.464949 
L 389.74125 206.190269 
L 416.049995 40.103395 
L 442.35874 34.414125 
L 468.667486 34.414125 
L 494.976231 62.768538 
L 521.284976 34.414125 
L 547.593721 34.414125 
L 573.902467 34.414125 
L 600.211212 87.183922 
L 626.519957 133.626854 
L 652.828702 173.011808 
L 679.137448 34.414125 
" clip-path="url(#pb794c3af0c)" style="fill: none; stroke: #2196f3; stroke-opacity: 0.6; stroke-width: 0.6; stroke-linecap: square"/>
    <defs>
     <path id="m587c7ba27b" d="M 0 1.5 
C 0.397805 1.5 0.77937 1.341951 1.06066 1.06066 
C 1.341951 0.77937 1.5 0.397805 1.5 0 
C 1.5 -0.397805 1.341951 -0.77937 1.06066 -1.06066 
C 0.77937 -1.341951 0.397805 -1.5 0 -1.5 
C -0.397805 -1.5 -0.77937 -1.341951 -1.06066 -1.06066 
C -1.341951 -0.77937 -1.5 -0.397805 -1.5 0 
C -1.5 0.397805 -1.341951 0.77937 -1.06066 1.06066 
C -0.77937 1.341951 -0.397805 1.5 0 1.5 
z
" style="stroke: #2196f3; stroke-opacity: 0.6"/>
    </defs>
    <g clip-path="url(#pb794c3af0c)">
     <use xlink:href="#m587c7ba27b" x="74.036307" y="115.647823" style="fill: #2196f3; fill-opacity: 0.6; stroke: #2196f3; stroke-opacity: 0.6"/>
     <use xlink:href="#m587c7ba27b" x="100.345052" y="186.53466" style="fill: #2196f3; fill-opacity: 0.6; stroke: #2196f3; stroke-opacity: 0.6"/>
     <use xlink:href="#m587c7ba27b" x="126.653798" y="137.185894" style="fill: #2196f3; fill-opacity: 0.6; stroke: #2196f3; stroke-opacity: 0.6"/>
     <use xlink:href="#m587c7ba27b" x="152.962543" y="34.414125" style="fill: #2196f3; fill-opacity: 0.6; stroke: #2196f3; stroke-opacity: 0.6"/>
     <use xlink:href="#m587c7ba27b" x="179.271288" y="144.927566" style="fill: #2196f3; fill-opacity: 0.6; stroke: #2196f3; stroke-opacity: 0.6"/>
     <use xlink:href="#m587c7ba27b" x="205.580033" y="146.864482" style="fill: #2196f3; fill-opacity: 0.6; stroke: #2196f3; stroke-opacity: 0.6"/>
     <use xlink:href="#m587c7ba27b" x="231.888779" y="34.414125" style="fill: #2196f3; fill-opacity: 0.6; stroke: #2196f3; stroke-opacity: 0.6"/>
     <use xlink:href="#m587c7ba27b" x="258.197524" y="38.001129" style="fill: #2196f3; fill-opacity: 0.6; stroke: #2196f3; stroke-opacity: 0.6"/>
     <use xlink:href="#m587c7ba27b" x="284.506269" y="34.414125" style="fill: #2196f3; fill-opacity: 0.6; stroke: #2196f3; stroke-opacity: 0.6"/>
     <use xlink:href="#m587c7ba27b" x="310.815014" y="34.414125" style="fill: #2196f3; fill-opacity: 0.6; stroke: #2196f3; stroke-opacity: 0.6"/>
     <use xlink:href="#m587c7ba27b" x="337.12376" y="78.157287" style="fill: #2196f3; fill-opacity: 0.6; stroke: #2196f3; stroke-opacity: 0.6"/>
     <use xlink:href="#m587c7ba27b" x="363.432505" y="157.464949" style="fill: #2196f3; fill-opacity: 0.6; stroke: #2196f3; stroke-opacity: 0.6"/>
     <use xlink:href="#m587c7ba27b" x="389.74125" y="206.190269" style="fill: #2196f3; fill-opacity: 0.6; stroke: #2196f3; stroke-opacity: 0.6"/>
     <use xlink:href="#m587c7ba27b" x="416.049995" y="40.103395" style="fill: #2196f3; fill-opacity: 0.6; stroke: #2196f3; stroke-opacity: 0.6"/>
     <use xlink:href="#m587c7ba27b" x="442.35874" y="34.414125" style="fill: #2196f3; fill-opacity: 0.6; stroke: #2196f3; stroke-opacity: 0.6"/>
     <use xlink:href="#m587c7ba27b" x="468.667486" y="34.414125" style="fill: #2196f3; fill-opacity: 0.6; stroke: #2196f3; stroke-opacity: 0.6"/>
     <use xlink:href="#m587c7ba27b" x="494.976231" y="62.768538" style="fill: #2196f3; fill-opacity: 0.6; stroke: #2196f3; stroke-opacity: 0.6"/>
     <use xlink:href="#m587c7ba27b" x="521.284976" y="34.414125" style="fill: #2196f3; fill-opacity: 0.6; stroke: #2196f3; stroke-opacity: 0.6"/>
     <use xlink:href="#m587c7ba27b" x="547.593721" y="34.414125" style="fill: #2196f3; fill-opacity: 0.6; stroke: #2196f3; stroke-opacity: 0.6"/>
     <use xlink:href="#m587c7ba27b" x="573.902467" y="34.414125" style="fill: #2196f3; fill-opacity: 0.6; stroke: #2196f3; stroke-opacity: 0.6"/>
     <use xlink:href="#m587c7ba27b" x="600.211212" y="87.183922" style="fill: #2196f3; fill-opacity: 0.6; stroke: #2196f3; stroke-opacity: 0.6"/>
     <use xlink:href="#m587c7ba27b" x="626.519957" y="133.626854" style="fill: #2196f3; fill-opacity: 0.6; stroke: #2196f3; stroke-opacity: 0.6"/>
     <use xlink:href="#m587c7ba27b" x="652.828702" y="173.011808" style="fill: #2196f3; fill-opacity: 0.6; stroke: #2196f3; stroke-opacity: 0.6"/>
     <use xlink:href="#m587c7ba27b" x="679.137448" y="34.414125" style="fill: #2196f3; fill-opacity: 0.6; stroke: #2196f3; stroke-opacity: 0.6"/>
    </g>
   </g>
   <g id="line2d_31">
    <path d="M 74.036307 127.08503 
L 100.345052 34.414125 
L 126.653798 40.960473 
L 152.962543 101.802547 
L 179.271288 34.414125 
L 205.580033 89.103349 
L 231.888779 34.414125 
L 258.197524 161.858125 
L 284.506269 114.61011 
L 310.815014 144.453452 
L 337.12376 213.581098 
L 363.432505 158.488802 
L 389.74125 34.793517 
L 416.049995 111.662904 
L 442.35874 34.414125 
L 468.667486 243.870601 
L 494.976231 151.122284 
L 521.284976 126.362164 
L 547.593721 49.731158 
L 573.902467 34.414125 
L 600.211212 131.906777 
L 626.519957 34.414125 
L 652.828702 170.746364 
L 679.137448 133.385301 
" clip-path="url(#pb794c3af0c)" style="fill: none; stroke: #2196f3; stroke-opacity: 0.6; stroke-width: 0.6; stroke-linecap: square"/>
    <g clip-path="url(#pb794c3af0c)">
     <use xlink:href="#m587c7ba27b" x="74.036307" y="127.08503" style="fill: #2196f3; fill-opacity: 0.6; stroke: #2196f3; stroke-opacity: 0.6"/>
     <use xlink:href="#m587c7ba27b" x="100.345052" y="34.414125" style="fill: #2196f3; fill-opacity: 0.6; stroke: #2196f3; stroke-opacity: 0.6"/>
     <use xlink:href="#m587c7ba27b" x="126.653798" y="40.960473" style="fill: #2196f3; fill-opacity: 0.6; stroke: #2196f3; stroke-opacity: 0.6"/>
     <use xlink:href="#m587c7ba27b" x="152.962543" y="101.802547" style="fill: #2196f3; fill-opacity: 0.6; stroke: #2196f3; stroke-opacity: 0.6"/>
     <use xlink:href="#m587c7ba27b" x="179.271288" y="34.414125" style="fill: #2196f3; fill-opacity: 0.6; stroke: #2196f3; stroke-opacity: 0.6"/>
     <use xlink:href="#m587c7ba27b" x="205.580033" y="89.103349" style="fill: #2196f3; fill-opacity: 0.6; stroke: #2196f3; stroke-opacity: 0.6"/>
     <use xlink:href="#m587c7ba27b" x="231.888779" y="34.414125" style="fill: #2196f3; fill-opacity: 0.6; stroke: #2196f3; stroke-opacity: 0.6"/>
     <use xlink:href="#m587c7ba27b" x="258.197524" y="161.858125" style="fill: #2196f3; fill-opacity: 0.6; stroke: #2196f3; stroke-opacity: 0.6"/>
     <use xlink:href="#m587c7ba27b" x="284.506269" y="114.61011" style="fill: #2196f3; fill-opacity: 0.6; stroke: #2196f3; stroke-opacity: 0.6"/>
     <use xlink:href="#m587c7ba27b" x="310.815014" y="144.453452" style="fill: #2196f3; fill-opacity: 0.6; stroke: #2196f3; stroke-opacity: 0.6"/>
     <use xlink:href="#m587c7ba27b" x="337.12376" y="213.581098" style="fill: #2196f3; fill-opacity: 0.6; stroke: #2196f3; stroke-opacity: 0.6"/>
     <use xlink:href="#m587c7ba27b" x="363.432505" y="158.488802" style="fill: #2196f3; fill-opacity: 0.6; stroke: #2196f3; stroke-opacity: 0.6"/>
     <use xlink:href="#m587c7ba27b" x="389.74125" y="34.793517" style="fill: #2196f3; fill-opacity: 0.6; stroke: #2196f3; stroke-opacity: 0.6"/>
     <use xlink:href="#m587c7ba27b" x="416.049995" y="111.662904" style="fill: #2196f3; fill-opacity: 0.6; stroke: #2196f3; stroke-opacity: 0.6"/>
     <use xlink:href="#m587c7ba27b" x="442.35874" y="34.414125" style="fill: #2196f3; fill-opacity: 0.6; stroke: #2196f3; stroke-opacity: 0.6"/>
     <use xlink:href="#m587c7ba27b" x="468.667486" y="243.870601" style="fill: #2196f3; fill-opacity: 0.6; stroke: #2196f3; stroke-opacity: 0.6"/>
     <use xlink:href="#m587c7ba27b" x="494.976231" y="151.122284" style="fill: #2196f3; fill-opacity: 0.6; stroke: #2196f3; stroke-opacity: 0.6"/>
     <use xlink:href="#m587c7ba27b" x="521.284976" y="126.362164" style="fill: #2196f3; fill-opacity: 0.6; stroke: #2196f3; stroke-opacity: 0.6"/>
     <use xlink:href="#m587c7ba27b" x="547.593721" y="49.731158" style="fill: #2196f3; fill-opacity: 0.6; stroke: #2196f3; stroke-opacity: 0.6"/>
     <use xlink:href="#m587c7ba27b" x="573.902467" y="34.414125" style="fill: #2196f3; fill-opacity: 0.6; stroke: #2196f3; stroke-opacity: 0.6"/>
     <use xlink:href="#m587c7ba27b" x="600.211212" y="131.906777" style="fill: #2196f3; fill-opacity: 0.6; stroke: #2196f3; stroke-opacity: 0.6"/>
     <use xlink:href="#m587c7ba27b" x="626.519957" y="34.414125" style="fill: #2196f3; fill-opacity: 0.6; stroke: #2196f3; stroke-opacity: 0.6"/>
     <use xlink:href="#m587c7ba27b" x="652.828702" y="170.746364" style="fill: #2196f3; fill-opacity: 0.6; stroke: #2196f3; stroke-opacity: 0.6"/>
     <use xlink:href="#m587c7ba27b" x="679.137448" y="133.385301" style="fill: #2196f3; fill-opacity: 0.6; stroke: #2196f3; stroke-opacity: 0.6"/>
    </g>
   </g>
   <g id="line2d_32">
    <path d="M 74.036307 89.494048 
L 100.345052 34.414125 
L 126.653798 34.414125 
L 152.962543 34.414125 
L 179.271288 242.132212 
L 205.580033 105.486999 
L 231.888779 112.958338 
L 258.197524 260.118358 
L 284.506269 155.166466 
L 310.815014 115.824443 
L 337.12376 34.414125 
L 363.432505 201.124752 
L 389.74125 227.665398 
L 416.049995 34.414125 
L 442.35874 229.524018 
L 468.667486 71.83257 
L 494.976231 119.039783 
L 521.284976 34.414125 
L 547.593721 79.200636 
L 573.902467 34.414125 
L 600.211212 76.063227 
L 626.519957 183.556545 
L 652.828702 207.388616 
L 679.137448 185.979545 
" clip-path="url(#pb794c3af0c)" style="fill: none; stroke: #2196f3; stroke-opacity: 0.6; stroke-width: 0.6; stroke-linecap: square"/>
    <g clip-path="url(#pb794c3af0c)">
     <use xlink:href="#m587c7ba27b" x="74.036307" y="89.494048" style="fill: #2196f3; fill-opacity: 0.6; stroke: #2196f3; stroke-opacity: 0.6"/>
     <use xlink:href="#m587c7ba27b" x="100.345052" y="34.414125" style="fill: #2196f3; fill-opacity: 0.6; stroke: #2196f3; stroke-opacity: 0.6"/>
     <use xlink:href="#m587c7ba27b" x="126.653798" y="34.414125" style="fill: #2196f3; fill-opacity: 0.6; stroke: #2196f3; stroke-opacity: 0.6"/>
     <use xlink:href="#m587c7ba27b" x="152.962543" y="34.414125" style="fill: #2196f3; fill-opacity: 0.6; stroke: #2196f3; stroke-opacity: 0.6"/>
     <use xlink:href="#m587c7ba27b" x="179.271288" y="242.132212" style="fill: #2196f3; fill-opacity: 0.6; stroke: #2196f3; stroke-opacity: 0.6"/>
     <use xlink:href="#m587c7ba27b" x="205.580033" y="105.486999" style="fill: #2196f3; fill-opacity: 0.6; stroke: #2196f3; stroke-opacity: 0.6"/>
     <use xlink:href="#m587c7ba27b" x="231.888779" y="112.958338" style="fill: #2196f3; fill-opacity: 0.6; stroke: #2196f3; stroke-opacity: 0.6"/>
     <use xlink:href="#m587c7ba27b" x="258.197524" y="260.118358" style="fill: #2196f3; fill-opacity: 0.6; stroke: #2196f3; stroke-opacity: 0.6"/>
     <use xlink:href="#m587c7ba27b" x="284.506269" y="155.166466" style="fill: #2196f3; fill-opacity: 0.6; stroke: #2196f3; stroke-opacity: 0.6"/>
     <use xlink:href="#m587c7ba27b" x="310.815014" y="115.824443" style="fill: #2196f3; fill-opacity: 0.6; stroke: #2196f3; stroke-opacity: 0.6"/>
     <use xlink:href="#m587c7ba27b" x="337.12376" y="34.414125" style="fill: #2196f3; fill-opacity: 0.6; stroke: #2196f3; stroke-opacity: 0.6"/>
     <use xlink:href="#m587c7ba27b" x="363.432505" y="201.124752" style="fill: #2196f3; fill-opacity: 0.6; stroke: #2196f3; stroke-opacity: 0.6"/>
     <use xlink:href="#m587c7ba27b" x="389.74125" y="227.665398" style="fill: #2196f3; fill-opacity: 0.6; stroke: #2196f3; stroke-opacity: 0.6"/>
     <use xlink:href="#m587c7ba27b" x="416.049995" y="34.414125" style="fill: #2196f3; fill-opacity: 0.6; stroke: #2196f3; stroke-opacity: 0.6"/>
     <use xlink:href="#m587c7ba27b" x="442.35874" y="229.524018" style="fill: #2196f3; fill-opacity: 0.6; stroke: #2196f3; stroke-opacity: 0.6"/>
     <use xlink:href="#m587c7ba27b" x="468.667486" y="71.83257" style="fill: #2196f3; fill-opacity: 0.6; stroke: #2196f3; stroke-opacity: 0.6"/>
     <use xlink:href="#m587c7ba27b" x="494.976231" y="119.039783" style="fill: #2196f3; fill-opacity: 0.6; stroke: #2196f3; stroke-opacity: 0.6"/>
     <use xlink:href="#m587c7ba27b" x="521.284976" y="34.414125" style="fill: #2196f3; fill-opacity: 0.6; stroke: #2196f3; stroke-opacity: 0.6"/>
     <use xlink:href="#m587c7ba27b" x="547.593721" y="79.200636" style="fill: #2196f3; fill-opacity: 0.6; stroke: #2196f3; stroke-opacity: 0.6"/>
     <use xlink:href="#m587c7ba27b" x="573.902467" y="34.414125" style="fill: #2196f3; fill-opacity: 0.6; stroke: #2196f3; stroke-opacity: 0.6"/>
     <use xlink:href="#m587c7ba27b" x="600.211212" y="76.063227" style="fill: #2196f3; fill-opacity: 0.6; stroke: #2196f3; stroke-opacity: 0.6"/>
     <use xlink:href="#m587c7ba27b" x="626.519957" y="183.556545" style="fill: #2196f3; fill-opacity: 0.6; stroke: #2196f3; stroke-opacity: 0.6"/>
     <use xlink:href="#m587c7ba27b" x="652.828702" y="207.388616" style="fill: #2196f3; fill-opacity: 0.6; stroke: #2196f3; stroke-opacity: 0.6"/>
     <use xlink:href="#m587c7ba27b" x="679.137448" y="185.979545" style="fill: #2196f3; fill-opacity: 0.6; stroke: #2196f3; stroke-opacity: 0.6"/>
    </g>
   </g>
   <g id="line2d_33">
    <path d="M 74.036307 34.414125 
L 100.345052 60.788306 
L 126.653798 133.534868 
L 152.962543 66.184109 
L 179.271288 197.635928 
L 205.580033 34.414125 
L 231.888779 71.257914 
L 258.197524 235.71314 
L 284.506269 180.598419 
L 310.815014 34.414125 
L 337.12376 198.017052 
L 363.432505 146.210554 
L 389.74125 177.344638 
L 416.049995 34.414125 
L 442.35874 42.283461 
L 468.667486 79.245195 
L 494.976231 276.334125 
L 521.284976 34.414125 
L 547.593721 93.651669 
L 573.902467 211.901957 
L 600.211212 217.691599 
L 626.519957 67.382675 
L 652.828702 229.196845 
L 679.137448 266.06794 
" clip-path="url(#pb794c3af0c)" style="fill: none; stroke: #2196f3; stroke-opacity: 0.6; stroke-width: 0.6; stroke-linecap: square"/>
    <g clip-path="url(#pb794c3af0c)">
     <use xlink:href="#m587c7ba27b" x="74.036307" y="34.414125" style="fill: #2196f3; fill-opacity: 0.6; stroke: #2196f3; stroke-opacity: 0.6"/>
     <use xlink:href="#m587c7ba27b" x="100.345052" y="60.788306" style="fill: #2196f3; fill-opacity: 0.6; stroke: #2196f3; stroke-opacity: 0.6"/>
     <use xlink:href="#m587c7ba27b" x="126.653798" y="133.534868" style="fill: #2196f3; fill-opacity: 0.6; stroke: #2196f3; stroke-opacity: 0.6"/>
     <use xlink:href="#m587c7ba27b" x="152.962543" y="66.184109" style="fill: #2196f3; fill-opacity: 0.6; stroke: #2196f3; stroke-opacity: 0.6"/>
     <use xlink:href="#m587c7ba27b" x="179.271288" y="197.635928" style="fill: #2196f3; fill-opacity: 0.6; stroke: #2196f3; stroke-opacity: 0.6"/>
     <use xlink:href="#m587c7ba27b" x="205.580033" y="34.414125" style="fill: #2196f3; fill-opacity: 0.6; stroke: #2196f3; stroke-opacity: 0.6"/>
     <use xlink:href="#m587c7ba27b" x="231.888779" y="71.257914" style="fill: #2196f3; fill-opacity: 0.6; stroke: #2196f3; stroke-opacity: 0.6"/>
     <use xlink:href="#m587c7ba27b" x="258.197524" y="235.71314" style="fill: #2196f3; fill-opacity: 0.6; stroke: #2196f3; stroke-opacity: 0.6"/>
     <use xlink:href="#m587c7ba27b" x="284.506269" y="180.598419" style="fill: #2196f3; fill-opacity: 0.6; stroke: #2196f3; stroke-opacity: 0.6"/>
     <use xlink:href="#m587c7ba27b" x="310.815014" y="34.414125" style="fill: #2196f3; fill-opacity: 0.6; stroke: #2196f3; stroke-opacity: 0.6"/>
     <use xlink:href="#m587c7ba27b" x="337.12376" y="198.017052" style="fill: #2196f3; fill-opacity: 0.6; stroke: #2196f3; stroke-opacity: 0.6"/>
     <use xlink:href="#m587c7ba27b" x="363.432505" y="146.210554" style="fill: #2196f3; fill-opacity: 0.6; stroke: #2196f3; stroke-opacity: 0.6"/>
     <use xlink:href="#m587c7ba27b" x="389.74125" y="177.344638" style="fill: #2196f3; fill-opacity: 0.6; stroke: #2196f3; stroke-opacity: 0.6"/>
     <use xlink:href="#m587c7ba27b" x="416.049995" y="34.414125" style="fill: #2196f3; fill-opacity: 0.6; stroke: #2196f3; stroke-opacity: 0.6"/>
     <use xlink:href="#m587c7ba27b" x="442.35874" y="42.283461" style="fill: #2196f3; fill-opacity: 0.6; stroke: #2196f3; stroke-opacity: 0.6"/>
     <use xlink:href="#m587c7ba27b" x="468.667486" y="79.245195" style="fill: #2196f3; fill-opacity: 0.6; stroke: #2196f3; stroke-opacity: 0.6"/>
     <use xlink:href="#m587c7ba27b" x="494.976231" y="276.334125" style="fill: #2196f3; fill-opacity: 0.6; stroke: #2196f3; stroke-opacity: 0.6"/>
     <use xlink:href="#m587c7ba27b" x="521.284976" y="34.414125" style="fill: #2196f3; fill-opacity: 0.6; stroke: #2196f3; stroke-opacity: 0.6"/>
     <use xlink:href="#m587c7ba27b" x="547.593721" y="93.651669" style="fill: #2196f3; fill-opacity: 0.6; stroke: #2196f3; stroke-opacity: 0.6"/>
     <use xlink:href="#m587c7ba27b" x="573.902467" y="211.901957" style="fill: #2196f3; fill-opacity: 0.6; stroke: #2196f3; stroke-opacity: 0.6"/>
     <use xlink:href="#m587c7ba27b" x="600.211212" y="217.691599" style="fill: #2196f3; fill-opacity: 0.6; stroke: #2196f3; stroke-opacity: 0.6"/>
     <use xlink:href="#m587c7ba27b" x="626.519957" y="67.382675" style="fill: #2196f3; fill-opacity: 0.6; stroke: #2196f3; stroke-opacity: 0.6"/>
     <use xlink:href="#m587c7ba27b" x="652.828702" y="229.196845" style="fill: #2196f3; fill-opacity: 0.6; stroke: #2196f3; stroke-opacity: 0.6"/>
     <use xlink:href="#m587c7ba27b" x="679.137448" y="266.06794" style="fill: #2196f3; fill-opacity: 0.6; stroke: #2196f3; stroke-opacity: 0.6"/>
    </g>
   </g>
   <g id="patch_3">
    <path d="M 43.78125 288.430125 
L 43.78125 22.318125 
" style="fill: none"/>
   </g>
   <g id="patch_4">
    <path d="M 735.70125 288.430125 
L 735.70125 22.318125 
" style="fill: none"/>
   </g>
   <g id="patch_5">
    <path d="M 43.78125 288.430125 
L 735.70125 288.430125 
" style="fill: none"/>
   </g>
   <g id="patch_6">
    <path d="M 43.78125 22.318125 
L 735.70125 22.318125 
" style="fill: none"/>
   </g>
   <g id="text_16">
    <!-- Evaluate -->
    <g style="fill: #666666" transform="translate(363.531563 16.318125) scale(0.12 -0.12)">
     <defs>
      <path id="DejaVuSans-45" d="M 628 4666 
L 3578 4666 
L 3578 4134 
L 1259 4134 
L 1259 2753 
L 3481 2753 
L 3481 2222 
L 1259 2222 
L 1259 531 
L 3634 531 
L 3634 0 
L 628 0 
L 628 4666 
z
" transform="scale(0.015625)"/>
      <path id="DejaVuSans-76" d="M 191 3500 
L 800 3500 
L 1894 563 
L 2988 3500 
L 3597 3500 
L 2284 0 
L 1503 0 
L 191 3500 
z
" transform="scale(0.015625)"/>
      <path id="DejaVuSans-6c" d="M 603 4863 
L 1178 4863 
L 1178 0 
L 603 0 
L 603 4863 
z
" transform="scale(0.015625)"/>
      <path id="DejaVuSans-75" d="M 544 1381 
L 544 3500 
L 1119 3500 
L 1119 1403 
Q 1119 906 1312 657 
Q 1506 409 1894 409 
Q 2359 409 2629 706 
Q 2900 1003 2900 1516 
L 2900 3500 
L 3475 3500 
L 3475 0 
L 2900 0 
L 2900 538 
Q 2691 219 2414 64 
Q 2138 -91 1772 -91 
Q 1169 -91 856 284 
Q 544 659 544 1381 
z
M 1991 3584 
L 1991 3584 
z
" transform="scale(0.015625)"/>
      <path id="DejaVuSans-74" d="M 1172 4494 
L 1172 3500 
L 2356 3500 
L 2356 3053 
L 1172 3053 
L 1172 1153 
Q 1172 725 1289 603 
Q 1406 481 1766 481 
L 2356 481 
L 2356 0 
L 1766 0 
Q 1100 0 847 248 
Q 594 497 594 1153 
L 594 3053 
L 172 3053 
L 172 3500 
L 594 3500 
L 594 4494 
L 1172 4494 
z
" transform="scale(0.015625)"/>
      <path id="DejaVuSans-65" d="M 3597 1894 
L 3597 1613 
L 953 1613 
Q 991 1019 1311 708 
Q 1631 397 2203 397 
Q 2534 397 2845 478 
Q 3156 559 3463 722 
L 3463 178 
Q 3153 47 2828 -22 
Q 2503 -91 2169 -91 
Q 1331 -91 842 396 
Q 353 884 353 1716 
Q 353 2575 817 3079 
Q 1281 3584 2069 3584 
Q 2775 3584 3186 3129 
Q 3597 2675 3597 1894 
z
M 3022 2063 
Q 3016 2534 2758 2815 
Q 2500 3097 2075 3097 
Q 1594 3097 1305 2825 
Q 1016 2553 972 2059 
L 3022 2063 
z
" transform="scale(0.015625)"/>
     </defs>
     <use xlink:href="#DejaVuSans-45"/>
     <use xlink:href="#DejaVuSans-76" x="63.183594"/>
     <use xlink:href="#DejaVuSans-61" x="122.363281"/>
     <use xlink:href="#DejaVuSans-6c" x="183.642578"/>
     <use xlink:href="#DejaVuSans-75" x="211.425781"/>
     <use xlink:href="#DejaVuSans-61" x="274.804688"/>
     <use xlink:href="#DejaVuSans-74" x="336.083984"/>
     <use xlink:href="#DejaVuSans-65" x="375.292969"/>
    </g>
   </g>
  </g>
 </g>
 <defs>
  <clipPath id="pb794c3af0c">
   <rect x="43.78125" y="22.318125" width="691.92" height="266.112"/>
  </clipPath>
 </defs>
</svg>
