<?xml version="1.0" encoding="utf-8" standalone="no"?>
<!DOCTYPE svg PUBLIC "-//W3C//DTD SVG 1.1//EN"
  "http://www.w3.org/Graphics/SVG/1.1/DTD/svg11.dtd">
<svg xmlns:xlink="http://www.w3.org/1999/xlink" width="751.679938pt" height="312.30825pt" viewBox="0 0 751.679938 312.30825" xmlns="http://www.w3.org/2000/svg" version="1.1">
 <metadata>
  <rdf:RDF xmlns:dc="http://purl.org/dc/elements/1.1/" xmlns:cc="http://creativecommons.org/ns#" xmlns:rdf="http://www.w3.org/1999/02/22-rdf-syntax-ns#">
   <cc:Work>
    <dc:type rdf:resource="http://purl.org/dc/dcmitype/StillImage"/>
    <dc:date>2023-07-10T07:56:35.569762</dc:date>
    <dc:format>image/svg+xml</dc:format>
    <dc:creator>
     <cc:Agent>
      <dc:title>Matplotlib v3.7.1, https://matplotlib.org/</dc:title>
     </cc:Agent>
    </dc:creator>
   </cc:Work>
  </rdf:RDF>
 </metadata>
 <defs>
  <style type="text/css">*{stroke-linejoin: round; stroke-linecap: butt}</style>
 </defs>
 <g id="figure_1">
  <g id="patch_1">
   <path d="M 0 312.30825 
L 751.679938 312.30825 
L 751.679938 0 
L 0 0 
L 0 312.30825 
z
" style="fill: none"/>
  </g>
  <g id="axes_1">
   <g id="patch_2">
    <path d="M 50.14375 288.430125 
L 742.06375 288.430125 
L 742.06375 22.318125 
L 50.14375 22.318125 
L 50.14375 288.430125 
z
" style="fill: none"/>
   </g>
   <g id="matplotlib.axis_1">
    <g id="xtick_1">
     <g id="line2d_1">
      <path d="M 80.398807 288.430125 
L 80.398807 22.318125 
" clip-path="url(#p7e8ff8472e)" style="fill: none; stroke-dasharray: 1.85,0.8; stroke-dashoffset: 0; stroke: #666666; stroke-opacity: 0.4; stroke-width: 0.5"/>
     </g>
     <g id="line2d_2">
      <defs>
       <path id="m4485dcf29c" d="M 0 0 
L 0 3.5 
" style="stroke: #000000; stroke-opacity: 0; stroke-width: 0.8"/>
      </defs>
      <g>
       <use xlink:href="#m4485dcf29c" x="80.398807" y="288.430125" style="fill-opacity: 0; stroke: #000000; stroke-opacity: 0; stroke-width: 0.8"/>
      </g>
     </g>
     <g id="text_1">
      <!-- 0 -->
      <g style="fill: #666666" transform="translate(77.217557 303.028562) scale(0.1 -0.1)">
       <defs>
        <path id="DejaVuSans-30" d="M 2034 4250 
Q 1547 4250 1301 3770 
Q 1056 3291 1056 2328 
Q 1056 1369 1301 889 
Q 1547 409 2034 409 
Q 2525 409 2770 889 
Q 3016 1369 3016 2328 
Q 3016 3291 2770 3770 
Q 2525 4250 2034 4250 
z
M 2034 4750 
Q 2819 4750 3233 4129 
Q 3647 3509 3647 2328 
Q 3647 1150 3233 529 
Q 2819 -91 2034 -91 
Q 1250 -91 836 529 
Q 422 1150 422 2328 
Q 422 3509 836 4129 
Q 1250 4750 2034 4750 
z
" transform="scale(0.015625)"/>
       </defs>
       <use xlink:href="#DejaVuSans-30"/>
      </g>
     </g>
    </g>
    <g id="xtick_2">
     <g id="line2d_3">
      <path d="M 211.942533 288.430125 
L 211.942533 22.318125 
" clip-path="url(#p7e8ff8472e)" style="fill: none; stroke-dasharray: 1.85,0.8; stroke-dashoffset: 0; stroke: #666666; stroke-opacity: 0.4; stroke-width: 0.5"/>
     </g>
     <g id="line2d_4">
      <g>
       <use xlink:href="#m4485dcf29c" x="211.942533" y="288.430125" style="fill-opacity: 0; stroke: #000000; stroke-opacity: 0; stroke-width: 0.8"/>
      </g>
     </g>
     <g id="text_2">
      <!-- 5 -->
      <g style="fill: #666666" transform="translate(208.761283 303.028562) scale(0.1 -0.1)">
       <defs>
        <path id="DejaVuSans-35" d="M 691 4666 
L 3169 4666 
L 3169 4134 
L 1269 4134 
L 1269 2991 
Q 1406 3038 1543 3061 
Q 1681 3084 1819 3084 
Q 2600 3084 3056 2656 
Q 3513 2228 3513 1497 
Q 3513 744 3044 326 
Q 2575 -91 1722 -91 
Q 1428 -91 1123 -41 
Q 819 9 494 109 
L 494 744 
Q 775 591 1075 516 
Q 1375 441 1709 441 
Q 2250 441 2565 725 
Q 2881 1009 2881 1497 
Q 2881 1984 2565 2268 
Q 2250 2553 1709 2553 
Q 1456 2553 1204 2497 
Q 953 2441 691 2322 
L 691 4666 
z
" transform="scale(0.015625)"/>
       </defs>
       <use xlink:href="#DejaVuSans-35"/>
      </g>
     </g>
    </g>
    <g id="xtick_3">
     <g id="line2d_5">
      <path d="M 343.48626 288.430125 
L 343.48626 22.318125 
" clip-path="url(#p7e8ff8472e)" style="fill: none; stroke-dasharray: 1.85,0.8; stroke-dashoffset: 0; stroke: #666666; stroke-opacity: 0.4; stroke-width: 0.5"/>
     </g>
     <g id="line2d_6">
      <g>
       <use xlink:href="#m4485dcf29c" x="343.48626" y="288.430125" style="fill-opacity: 0; stroke: #000000; stroke-opacity: 0; stroke-width: 0.8"/>
      </g>
     </g>
     <g id="text_3">
      <!-- 10 -->
      <g style="fill: #666666" transform="translate(337.12376 303.028562) scale(0.1 -0.1)">
       <defs>
        <path id="DejaVuSans-31" d="M 794 531 
L 1825 531 
L 1825 4091 
L 703 3866 
L 703 4441 
L 1819 4666 
L 2450 4666 
L 2450 531 
L 3481 531 
L 3481 0 
L 794 0 
L 794 531 
z
" transform="scale(0.015625)"/>
       </defs>
       <use xlink:href="#DejaVuSans-31"/>
       <use xlink:href="#DejaVuSans-30" x="63.623047"/>
      </g>
     </g>
    </g>
    <g id="xtick_4">
     <g id="line2d_7">
      <path d="M 475.029986 288.430125 
L 475.029986 22.318125 
" clip-path="url(#p7e8ff8472e)" style="fill: none; stroke-dasharray: 1.85,0.8; stroke-dashoffset: 0; stroke: #666666; stroke-opacity: 0.4; stroke-width: 0.5"/>
     </g>
     <g id="line2d_8">
      <g>
       <use xlink:href="#m4485dcf29c" x="475.029986" y="288.430125" style="fill-opacity: 0; stroke: #000000; stroke-opacity: 0; stroke-width: 0.8"/>
      </g>
     </g>
     <g id="text_4">
      <!-- 15 -->
      <g style="fill: #666666" transform="translate(468.667486 303.028562) scale(0.1 -0.1)">
       <use xlink:href="#DejaVuSans-31"/>
       <use xlink:href="#DejaVuSans-35" x="63.623047"/>
      </g>
     </g>
    </g>
    <g id="xtick_5">
     <g id="line2d_9">
      <path d="M 606.573712 288.430125 
L 606.573712 22.318125 
" clip-path="url(#p7e8ff8472e)" style="fill: none; stroke-dasharray: 1.85,0.8; stroke-dashoffset: 0; stroke: #666666; stroke-opacity: 0.4; stroke-width: 0.5"/>
     </g>
     <g id="line2d_10">
      <g>
       <use xlink:href="#m4485dcf29c" x="606.573712" y="288.430125" style="fill-opacity: 0; stroke: #000000; stroke-opacity: 0; stroke-width: 0.8"/>
      </g>
     </g>
     <g id="text_5">
      <!-- 20 -->
      <g style="fill: #666666" transform="translate(600.211212 303.028562) scale(0.1 -0.1)">
       <defs>
        <path id="DejaVuSans-32" d="M 1228 531 
L 3431 531 
L 3431 0 
L 469 0 
L 469 531 
Q 828 903 1448 1529 
Q 2069 2156 2228 2338 
Q 2531 2678 2651 2914 
Q 2772 3150 2772 3378 
Q 2772 3750 2511 3984 
Q 2250 4219 1831 4219 
Q 1534 4219 1204 4116 
Q 875 4013 500 3803 
L 500 4441 
Q 881 4594 1212 4672 
Q 1544 4750 1819 4750 
Q 2544 4750 2975 4387 
Q 3406 4025 3406 3419 
Q 3406 3131 3298 2873 
Q 3191 2616 2906 2266 
Q 2828 2175 2409 1742 
Q 1991 1309 1228 531 
z
" transform="scale(0.015625)"/>
       </defs>
       <use xlink:href="#DejaVuSans-32"/>
       <use xlink:href="#DejaVuSans-30" x="63.623047"/>
      </g>
     </g>
    </g>
    <g id="xtick_6">
     <g id="line2d_11">
      <path d="M 738.117438 288.430125 
L 738.117438 22.318125 
" clip-path="url(#p7e8ff8472e)" style="fill: none; stroke-dasharray: 1.85,0.8; stroke-dashoffset: 0; stroke: #666666; stroke-opacity: 0.4; stroke-width: 0.5"/>
     </g>
     <g id="line2d_12">
      <g>
       <use xlink:href="#m4485dcf29c" x="738.117438" y="288.430125" style="fill-opacity: 0; stroke: #000000; stroke-opacity: 0; stroke-width: 0.8"/>
      </g>
     </g>
     <g id="text_6">
      <!-- 25 -->
      <g style="fill: #666666" transform="translate(731.754938 303.028562) scale(0.1 -0.1)">
       <use xlink:href="#DejaVuSans-32"/>
       <use xlink:href="#DejaVuSans-35" x="63.623047"/>
      </g>
     </g>
    </g>
   </g>
   <g id="matplotlib.axis_2">
    <g id="ytick_1">
     <g id="line2d_13">
      <path d="M 50.14375 276.334125 
L 742.06375 276.334125 
" clip-path="url(#p7e8ff8472e)" style="fill: none; stroke-dasharray: 1.85,0.8; stroke-dashoffset: 0; stroke: #666666; stroke-opacity: 0.4; stroke-width: 0.5"/>
     </g>
     <g id="line2d_14">
      <defs>
       <path id="mf37f517e89" d="M 0 0 
L -3.5 0 
" style="stroke: #000000; stroke-opacity: 0; stroke-width: 0.8"/>
      </defs>
      <g>
       <use xlink:href="#mf37f517e89" x="50.14375" y="276.334125" style="fill-opacity: 0; stroke: #000000; stroke-opacity: 0; stroke-width: 0.8"/>
      </g>
     </g>
     <g id="text_7">
      <!-- 0.00 -->
      <g style="fill: #666666" transform="translate(20.878125 280.133344) scale(0.1 -0.1)">
       <defs>
        <path id="DejaVuSans-2e" d="M 684 794 
L 1344 794 
L 1344 0 
L 684 0 
L 684 794 
z
" transform="scale(0.015625)"/>
       </defs>
       <use xlink:href="#DejaVuSans-30"/>
       <use xlink:href="#DejaVuSans-2e" x="63.623047"/>
       <use xlink:href="#DejaVuSans-30" x="95.410156"/>
       <use xlink:href="#DejaVuSans-30" x="159.033203"/>
      </g>
     </g>
    </g>
    <g id="ytick_2">
     <g id="line2d_15">
      <path d="M 50.14375 246.197025 
L 742.06375 246.197025 
" clip-path="url(#p7e8ff8472e)" style="fill: none; stroke-dasharray: 1.85,0.8; stroke-dashoffset: 0; stroke: #666666; stroke-opacity: 0.4; stroke-width: 0.5"/>
     </g>
     <g id="line2d_16">
      <g>
       <use xlink:href="#mf37f517e89" x="50.14375" y="246.197025" style="fill-opacity: 0; stroke: #000000; stroke-opacity: 0; stroke-width: 0.8"/>
      </g>
     </g>
     <g id="text_8">
      <!-- 0.01 -->
      <g style="fill: #666666" transform="translate(20.878125 249.996243) scale(0.1 -0.1)">
       <use xlink:href="#DejaVuSans-30"/>
       <use xlink:href="#DejaVuSans-2e" x="63.623047"/>
       <use xlink:href="#DejaVuSans-30" x="95.410156"/>
       <use xlink:href="#DejaVuSans-31" x="159.033203"/>
      </g>
     </g>
    </g>
    <g id="ytick_3">
     <g id="line2d_17">
      <path d="M 50.14375 216.059924 
L 742.06375 216.059924 
" clip-path="url(#p7e8ff8472e)" style="fill: none; stroke-dasharray: 1.85,0.8; stroke-dashoffset: 0; stroke: #666666; stroke-opacity: 0.4; stroke-width: 0.5"/>
     </g>
     <g id="line2d_18">
      <g>
       <use xlink:href="#mf37f517e89" x="50.14375" y="216.059924" style="fill-opacity: 0; stroke: #000000; stroke-opacity: 0; stroke-width: 0.8"/>
      </g>
     </g>
     <g id="text_9">
      <!-- 0.02 -->
      <g style="fill: #666666" transform="translate(20.878125 219.859143) scale(0.1 -0.1)">
       <use xlink:href="#DejaVuSans-30"/>
       <use xlink:href="#DejaVuSans-2e" x="63.623047"/>
       <use xlink:href="#DejaVuSans-30" x="95.410156"/>
       <use xlink:href="#DejaVuSans-32" x="159.033203"/>
      </g>
     </g>
    </g>
    <g id="ytick_4">
     <g id="line2d_19">
      <path d="M 50.14375 185.922824 
L 742.06375 185.922824 
" clip-path="url(#p7e8ff8472e)" style="fill: none; stroke-dasharray: 1.85,0.8; stroke-dashoffset: 0; stroke: #666666; stroke-opacity: 0.4; stroke-width: 0.5"/>
     </g>
     <g id="line2d_20">
      <g>
       <use xlink:href="#mf37f517e89" x="50.14375" y="185.922824" style="fill-opacity: 0; stroke: #000000; stroke-opacity: 0; stroke-width: 0.8"/>
      </g>
     </g>
     <g id="text_10">
      <!-- 0.03 -->
      <g style="fill: #666666" transform="translate(20.878125 189.722043) scale(0.1 -0.1)">
       <defs>
        <path id="DejaVuSans-33" d="M 2597 2516 
Q 3050 2419 3304 2112 
Q 3559 1806 3559 1356 
Q 3559 666 3084 287 
Q 2609 -91 1734 -91 
Q 1441 -91 1130 -33 
Q 819 25 488 141 
L 488 750 
Q 750 597 1062 519 
Q 1375 441 1716 441 
Q 2309 441 2620 675 
Q 2931 909 2931 1356 
Q 2931 1769 2642 2001 
Q 2353 2234 1838 2234 
L 1294 2234 
L 1294 2753 
L 1863 2753 
Q 2328 2753 2575 2939 
Q 2822 3125 2822 3475 
Q 2822 3834 2567 4026 
Q 2313 4219 1838 4219 
Q 1578 4219 1281 4162 
Q 984 4106 628 3988 
L 628 4550 
Q 988 4650 1302 4700 
Q 1616 4750 1894 4750 
Q 2613 4750 3031 4423 
Q 3450 4097 3450 3541 
Q 3450 3153 3228 2886 
Q 3006 2619 2597 2516 
z
" transform="scale(0.015625)"/>
       </defs>
       <use xlink:href="#DejaVuSans-30"/>
       <use xlink:href="#DejaVuSans-2e" x="63.623047"/>
       <use xlink:href="#DejaVuSans-30" x="95.410156"/>
       <use xlink:href="#DejaVuSans-33" x="159.033203"/>
      </g>
     </g>
    </g>
    <g id="ytick_5">
     <g id="line2d_21">
      <path d="M 50.14375 155.785724 
L 742.06375 155.785724 
" clip-path="url(#p7e8ff8472e)" style="fill: none; stroke-dasharray: 1.85,0.8; stroke-dashoffset: 0; stroke: #666666; stroke-opacity: 0.4; stroke-width: 0.5"/>
     </g>
     <g id="line2d_22">
      <g>
       <use xlink:href="#mf37f517e89" x="50.14375" y="155.785724" style="fill-opacity: 0; stroke: #000000; stroke-opacity: 0; stroke-width: 0.8"/>
      </g>
     </g>
     <g id="text_11">
      <!-- 0.04 -->
      <g style="fill: #666666" transform="translate(20.878125 159.584943) scale(0.1 -0.1)">
       <defs>
        <path id="DejaVuSans-34" d="M 2419 4116 
L 825 1625 
L 2419 1625 
L 2419 4116 
z
M 2253 4666 
L 3047 4666 
L 3047 1625 
L 3713 1625 
L 3713 1100 
L 3047 1100 
L 3047 0 
L 2419 0 
L 2419 1100 
L 313 1100 
L 313 1709 
L 2253 4666 
z
" transform="scale(0.015625)"/>
       </defs>
       <use xlink:href="#DejaVuSans-30"/>
       <use xlink:href="#DejaVuSans-2e" x="63.623047"/>
       <use xlink:href="#DejaVuSans-30" x="95.410156"/>
       <use xlink:href="#DejaVuSans-34" x="159.033203"/>
      </g>
     </g>
    </g>
    <g id="ytick_6">
     <g id="line2d_23">
      <path d="M 50.14375 125.648624 
L 742.06375 125.648624 
" clip-path="url(#p7e8ff8472e)" style="fill: none; stroke-dasharray: 1.85,0.8; stroke-dashoffset: 0; stroke: #666666; stroke-opacity: 0.4; stroke-width: 0.5"/>
     </g>
     <g id="line2d_24">
      <g>
       <use xlink:href="#mf37f517e89" x="50.14375" y="125.648624" style="fill-opacity: 0; stroke: #000000; stroke-opacity: 0; stroke-width: 0.8"/>
      </g>
     </g>
     <g id="text_12">
      <!-- 0.05 -->
      <g style="fill: #666666" transform="translate(20.878125 129.447842) scale(0.1 -0.1)">
       <use xlink:href="#DejaVuSans-30"/>
       <use xlink:href="#DejaVuSans-2e" x="63.623047"/>
       <use xlink:href="#DejaVuSans-30" x="95.410156"/>
       <use xlink:href="#DejaVuSans-35" x="159.033203"/>
      </g>
     </g>
    </g>
    <g id="ytick_7">
     <g id="line2d_25">
      <path d="M 50.14375 95.511523 
L 742.06375 95.511523 
" clip-path="url(#p7e8ff8472e)" style="fill: none; stroke-dasharray: 1.85,0.8; stroke-dashoffset: 0; stroke: #666666; stroke-opacity: 0.4; stroke-width: 0.5"/>
     </g>
     <g id="line2d_26">
      <g>
       <use xlink:href="#mf37f517e89" x="50.14375" y="95.511523" style="fill-opacity: 0; stroke: #000000; stroke-opacity: 0; stroke-width: 0.8"/>
      </g>
     </g>
     <g id="text_13">
      <!-- 0.06 -->
      <g style="fill: #666666" transform="translate(20.878125 99.310742) scale(0.1 -0.1)">
       <defs>
        <path id="DejaVuSans-36" d="M 2113 2584 
Q 1688 2584 1439 2293 
Q 1191 2003 1191 1497 
Q 1191 994 1439 701 
Q 1688 409 2113 409 
Q 2538 409 2786 701 
Q 3034 994 3034 1497 
Q 3034 2003 2786 2293 
Q 2538 2584 2113 2584 
z
M 3366 4563 
L 3366 3988 
Q 3128 4100 2886 4159 
Q 2644 4219 2406 4219 
Q 1781 4219 1451 3797 
Q 1122 3375 1075 2522 
Q 1259 2794 1537 2939 
Q 1816 3084 2150 3084 
Q 2853 3084 3261 2657 
Q 3669 2231 3669 1497 
Q 3669 778 3244 343 
Q 2819 -91 2113 -91 
Q 1303 -91 875 529 
Q 447 1150 447 2328 
Q 447 3434 972 4092 
Q 1497 4750 2381 4750 
Q 2619 4750 2861 4703 
Q 3103 4656 3366 4563 
z
" transform="scale(0.015625)"/>
       </defs>
       <use xlink:href="#DejaVuSans-30"/>
       <use xlink:href="#DejaVuSans-2e" x="63.623047"/>
       <use xlink:href="#DejaVuSans-30" x="95.410156"/>
       <use xlink:href="#DejaVuSans-36" x="159.033203"/>
      </g>
     </g>
    </g>
    <g id="ytick_8">
     <g id="line2d_27">
      <path d="M 50.14375 65.374423 
L 742.06375 65.374423 
" clip-path="url(#p7e8ff8472e)" style="fill: none; stroke-dasharray: 1.85,0.8; stroke-dashoffset: 0; stroke: #666666; stroke-opacity: 0.4; stroke-width: 0.5"/>
     </g>
     <g id="line2d_28">
      <g>
       <use xlink:href="#mf37f517e89" x="50.14375" y="65.374423" style="fill-opacity: 0; stroke: #000000; stroke-opacity: 0; stroke-width: 0.8"/>
      </g>
     </g>
     <g id="text_14">
      <!-- 0.07 -->
      <g style="fill: #666666" transform="translate(20.878125 69.173642) scale(0.1 -0.1)">
       <defs>
        <path id="DejaVuSans-37" d="M 525 4666 
L 3525 4666 
L 3525 4397 
L 1831 0 
L 1172 0 
L 2766 4134 
L 525 4134 
L 525 4666 
z
" transform="scale(0.015625)"/>
       </defs>
       <use xlink:href="#DejaVuSans-30"/>
       <use xlink:href="#DejaVuSans-2e" x="63.623047"/>
       <use xlink:href="#DejaVuSans-30" x="95.410156"/>
       <use xlink:href="#DejaVuSans-37" x="159.033203"/>
      </g>
     </g>
    </g>
    <g id="ytick_9">
     <g id="line2d_29">
      <path d="M 50.14375 35.237323 
L 742.06375 35.237323 
" clip-path="url(#p7e8ff8472e)" style="fill: none; stroke-dasharray: 1.85,0.8; stroke-dashoffset: 0; stroke: #666666; stroke-opacity: 0.4; stroke-width: 0.5"/>
     </g>
     <g id="line2d_30">
      <g>
       <use xlink:href="#mf37f517e89" x="50.14375" y="35.237323" style="fill-opacity: 0; stroke: #000000; stroke-opacity: 0; stroke-width: 0.8"/>
      </g>
     </g>
     <g id="text_15">
      <!-- 0.08 -->
      <g style="fill: #666666" transform="translate(20.878125 39.036541) scale(0.1 -0.1)">
       <defs>
        <path id="DejaVuSans-38" d="M 2034 2216 
Q 1584 2216 1326 1975 
Q 1069 1734 1069 1313 
Q 1069 891 1326 650 
Q 1584 409 2034 409 
Q 2484 409 2743 651 
Q 3003 894 3003 1313 
Q 3003 1734 2745 1975 
Q 2488 2216 2034 2216 
z
M 1403 2484 
Q 997 2584 770 2862 
Q 544 3141 544 3541 
Q 544 4100 942 4425 
Q 1341 4750 2034 4750 
Q 2731 4750 3128 4425 
Q 3525 4100 3525 3541 
Q 3525 3141 3298 2862 
Q 3072 2584 2669 2484 
Q 3125 2378 3379 2068 
Q 3634 1759 3634 1313 
Q 3634 634 3220 271 
Q 2806 -91 2034 -91 
Q 1263 -91 848 271 
Q 434 634 434 1313 
Q 434 1759 690 2068 
Q 947 2378 1403 2484 
z
M 1172 3481 
Q 1172 3119 1398 2916 
Q 1625 2713 2034 2713 
Q 2441 2713 2670 2916 
Q 2900 3119 2900 3481 
Q 2900 3844 2670 4047 
Q 2441 4250 2034 4250 
Q 1625 4250 1398 4047 
Q 1172 3844 1172 3481 
z
" transform="scale(0.015625)"/>
       </defs>
       <use xlink:href="#DejaVuSans-30"/>
       <use xlink:href="#DejaVuSans-2e" x="63.623047"/>
       <use xlink:href="#DejaVuSans-30" x="95.410156"/>
       <use xlink:href="#DejaVuSans-38" x="159.033203"/>
      </g>
     </g>
    </g>
    <g id="text_16">
     <!-- dQint -->
     <g style="fill: #bdbdbd" transform="translate(14.798438 169.00225) rotate(-90) scale(0.1 -0.1)">
      <defs>
       <path id="DejaVuSans-64" d="M 2906 2969 
L 2906 4863 
L 3481 4863 
L 3481 0 
L 2906 0 
L 2906 525 
Q 2725 213 2448 61 
Q 2172 -91 1784 -91 
Q 1150 -91 751 415 
Q 353 922 353 1747 
Q 353 2572 751 3078 
Q 1150 3584 1784 3584 
Q 2172 3584 2448 3432 
Q 2725 3281 2906 2969 
z
M 947 1747 
Q 947 1113 1208 752 
Q 1469 391 1925 391 
Q 2381 391 2643 752 
Q 2906 1113 2906 1747 
Q 2906 2381 2643 2742 
Q 2381 3103 1925 3103 
Q 1469 3103 1208 2742 
Q 947 2381 947 1747 
z
" transform="scale(0.015625)"/>
       <path id="DejaVuSans-51" d="M 2522 4238 
Q 1834 4238 1429 3725 
Q 1025 3213 1025 2328 
Q 1025 1447 1429 934 
Q 1834 422 2522 422 
Q 3209 422 3611 934 
Q 4013 1447 4013 2328 
Q 4013 3213 3611 3725 
Q 3209 4238 2522 4238 
z
M 3406 84 
L 4238 -825 
L 3475 -825 
L 2784 -78 
Q 2681 -84 2626 -87 
Q 2572 -91 2522 -91 
Q 1538 -91 948 567 
Q 359 1225 359 2328 
Q 359 3434 948 4092 
Q 1538 4750 2522 4750 
Q 3503 4750 4090 4092 
Q 4678 3434 4678 2328 
Q 4678 1516 4351 937 
Q 4025 359 3406 84 
z
" transform="scale(0.015625)"/>
       <path id="DejaVuSans-69" d="M 603 3500 
L 1178 3500 
L 1178 0 
L 603 0 
L 603 3500 
z
M 603 4863 
L 1178 4863 
L 1178 4134 
L 603 4134 
L 603 4863 
z
" transform="scale(0.015625)"/>
       <path id="DejaVuSans-6e" d="M 3513 2113 
L 3513 0 
L 2938 0 
L 2938 2094 
Q 2938 2591 2744 2837 
Q 2550 3084 2163 3084 
Q 1697 3084 1428 2787 
Q 1159 2491 1159 1978 
L 1159 0 
L 581 0 
L 581 3500 
L 1159 3500 
L 1159 2956 
Q 1366 3272 1645 3428 
Q 1925 3584 2291 3584 
Q 2894 3584 3203 3211 
Q 3513 2838 3513 2113 
z
" transform="scale(0.015625)"/>
       <path id="DejaVuSans-74" d="M 1172 4494 
L 1172 3500 
L 2356 3500 
L 2356 3053 
L 1172 3053 
L 1172 1153 
Q 1172 725 1289 603 
Q 1406 481 1766 481 
L 2356 481 
L 2356 0 
L 1766 0 
Q 1100 0 847 248 
Q 594 497 594 1153 
L 594 3053 
L 172 3053 
L 172 3500 
L 594 3500 
L 594 4494 
L 1172 4494 
z
" transform="scale(0.015625)"/>
      </defs>
      <use xlink:href="#DejaVuSans-64"/>
      <use xlink:href="#DejaVuSans-51" x="63.476562"/>
      <use xlink:href="#DejaVuSans-69" x="142.1875"/>
      <use xlink:href="#DejaVuSans-6e" x="169.970703"/>
      <use xlink:href="#DejaVuSans-74" x="233.349609"/>
     </g>
    </g>
   </g>
   <g id="line2d_31">
    <path d="M 80.398807 199.462376 
L 106.707552 178.991055 
L 133.016298 155.692761 
L 159.325043 194.07446 
L 185.633788 175.658564 
L 211.942533 218.932686 
L 238.251279 152.258167 
L 264.560024 142.687582 
L 290.868769 210.925174 
L 317.177514 195.458597 
L 343.48626 167.758717 
L 369.795005 122.121989 
L 396.10375 176.775018 
L 422.412495 178.308832 
L 448.72124 244.748425 
L 475.029986 229.309495 
L 501.338731 202.149464 
L 527.647476 173.893946 
L 553.956221 195.749388 
L 580.264967 172.45321 
L 606.573712 193.961842 
L 632.882457 244.218205 
L 659.191202 205.610822 
L 685.499948 212.031015 
" clip-path="url(#p7e8ff8472e)" style="fill: none; stroke: #4caf50; stroke-width: 1.5; stroke-linecap: square"/>
    <defs>
     <path id="me03f7ed93d" d="M 0 1.5 
C 0.397805 1.5 0.77937 1.341951 1.06066 1.06066 
C 1.341951 0.77937 1.5 0.397805 1.5 0 
C 1.5 -0.397805 1.341951 -0.77937 1.06066 -1.06066 
C 0.77937 -1.341951 0.397805 -1.5 0 -1.5 
C -0.397805 -1.5 -0.77937 -1.341951 -1.06066 -1.06066 
C -1.341951 -0.77937 -1.5 -0.397805 -1.5 0 
C -1.5 0.397805 -1.341951 0.77937 -1.06066 1.06066 
C -0.77937 1.341951 -0.397805 1.5 0 1.5 
z
" style="stroke: #4caf50"/>
    </defs>
    <g clip-path="url(#p7e8ff8472e)">
     <use xlink:href="#me03f7ed93d" x="80.398807" y="199.462376" style="fill: #4caf50; stroke: #4caf50"/>
     <use xlink:href="#me03f7ed93d" x="106.707552" y="178.991055" style="fill: #4caf50; stroke: #4caf50"/>
     <use xlink:href="#me03f7ed93d" x="133.016298" y="155.692761" style="fill: #4caf50; stroke: #4caf50"/>
     <use xlink:href="#me03f7ed93d" x="159.325043" y="194.07446" style="fill: #4caf50; stroke: #4caf50"/>
     <use xlink:href="#me03f7ed93d" x="185.633788" y="175.658564" style="fill: #4caf50; stroke: #4caf50"/>
     <use xlink:href="#me03f7ed93d" x="211.942533" y="218.932686" style="fill: #4caf50; stroke: #4caf50"/>
     <use xlink:href="#me03f7ed93d" x="238.251279" y="152.258167" style="fill: #4caf50; stroke: #4caf50"/>
     <use xlink:href="#me03f7ed93d" x="264.560024" y="142.687582" style="fill: #4caf50; stroke: #4caf50"/>
     <use xlink:href="#me03f7ed93d" x="290.868769" y="210.925174" style="fill: #4caf50; stroke: #4caf50"/>
     <use xlink:href="#me03f7ed93d" x="317.177514" y="195.458597" style="fill: #4caf50; stroke: #4caf50"/>
     <use xlink:href="#me03f7ed93d" x="343.48626" y="167.758717" style="fill: #4caf50; stroke: #4caf50"/>
     <use xlink:href="#me03f7ed93d" x="369.795005" y="122.121989" style="fill: #4caf50; stroke: #4caf50"/>
     <use xlink:href="#me03f7ed93d" x="396.10375" y="176.775018" style="fill: #4caf50; stroke: #4caf50"/>
     <use xlink:href="#me03f7ed93d" x="422.412495" y="178.308832" style="fill: #4caf50; stroke: #4caf50"/>
     <use xlink:href="#me03f7ed93d" x="448.72124" y="244.748425" style="fill: #4caf50; stroke: #4caf50"/>
     <use xlink:href="#me03f7ed93d" x="475.029986" y="229.309495" style="fill: #4caf50; stroke: #4caf50"/>
     <use xlink:href="#me03f7ed93d" x="501.338731" y="202.149464" style="fill: #4caf50; stroke: #4caf50"/>
     <use xlink:href="#me03f7ed93d" x="527.647476" y="173.893946" style="fill: #4caf50; stroke: #4caf50"/>
     <use xlink:href="#me03f7ed93d" x="553.956221" y="195.749388" style="fill: #4caf50; stroke: #4caf50"/>
     <use xlink:href="#me03f7ed93d" x="580.264967" y="172.45321" style="fill: #4caf50; stroke: #4caf50"/>
     <use xlink:href="#me03f7ed93d" x="606.573712" y="193.961842" style="fill: #4caf50; stroke: #4caf50"/>
     <use xlink:href="#me03f7ed93d" x="632.882457" y="244.218205" style="fill: #4caf50; stroke: #4caf50"/>
     <use xlink:href="#me03f7ed93d" x="659.191202" y="205.610822" style="fill: #4caf50; stroke: #4caf50"/>
     <use xlink:href="#me03f7ed93d" x="685.499948" y="212.031015" style="fill: #4caf50; stroke: #4caf50"/>
    </g>
   </g>
   <g id="line2d_32">
    <path d="M 80.398807 236.95342 
L 106.707552 233.077431 
L 133.016298 56.879022 
L 159.325043 220.77864 
L 185.633788 228.382343 
L 211.942533 190.776842 
L 238.251279 212.069499 
L 264.560024 133.095372 
L 290.868769 177.192316 
L 317.177514 148.040411 
L 343.48626 90.540087 
L 369.795005 132.199446 
L 396.10375 110.778884 
L 422.412495 268.477623 
L 448.72124 246.307906 
L 475.029986 259.305846 
L 501.338731 225.909833 
L 527.647476 226.776949 
L 553.956221 200.948952 
L 580.264967 98.676338 
L 606.573712 237.222973 
L 632.882457 265.050739 
L 659.191202 276.334125 
L 685.499948 198.286367 
" clip-path="url(#p7e8ff8472e)" style="fill: none; stroke: #4caf50; stroke-opacity: 0.6; stroke-width: 0.6; stroke-linecap: square"/>
    <defs>
     <path id="mfe2e8daf41" d="M 0 1.5 
C 0.397805 1.5 0.77937 1.341951 1.06066 1.06066 
C 1.341951 0.77937 1.5 0.397805 1.5 0 
C 1.5 -0.397805 1.341951 -0.77937 1.06066 -1.06066 
C 0.77937 -1.341951 0.397805 -1.5 0 -1.5 
C -0.397805 -1.5 -0.77937 -1.341951 -1.06066 -1.06066 
C -1.341951 -0.77937 -1.5 -0.397805 -1.5 0 
C -1.5 0.397805 -1.341951 0.77937 -1.06066 1.06066 
C -0.77937 1.341951 -0.397805 1.5 0 1.5 
z
" style="stroke: #4caf50; stroke-opacity: 0.6"/>
    </defs>
    <g clip-path="url(#p7e8ff8472e)">
     <use xlink:href="#mfe2e8daf41" x="80.398807" y="236.95342" style="fill: #4caf50; fill-opacity: 0.6; stroke: #4caf50; stroke-opacity: 0.6"/>
     <use xlink:href="#mfe2e8daf41" x="106.707552" y="233.077431" style="fill: #4caf50; fill-opacity: 0.6; stroke: #4caf50; stroke-opacity: 0.6"/>
     <use xlink:href="#mfe2e8daf41" x="133.016298" y="56.879022" style="fill: #4caf50; fill-opacity: 0.6; stroke: #4caf50; stroke-opacity: 0.6"/>
     <use xlink:href="#mfe2e8daf41" x="159.325043" y="220.77864" style="fill: #4caf50; fill-opacity: 0.6; stroke: #4caf50; stroke-opacity: 0.6"/>
     <use xlink:href="#mfe2e8daf41" x="185.633788" y="228.382343" style="fill: #4caf50; fill-opacity: 0.6; stroke: #4caf50; stroke-opacity: 0.6"/>
     <use xlink:href="#mfe2e8daf41" x="211.942533" y="190.776842" style="fill: #4caf50; fill-opacity: 0.6; stroke: #4caf50; stroke-opacity: 0.6"/>
     <use xlink:href="#mfe2e8daf41" x="238.251279" y="212.069499" style="fill: #4caf50; fill-opacity: 0.6; stroke: #4caf50; stroke-opacity: 0.6"/>
     <use xlink:href="#mfe2e8daf41" x="264.560024" y="133.095372" style="fill: #4caf50; fill-opacity: 0.6; stroke: #4caf50; stroke-opacity: 0.6"/>
     <use xlink:href="#mfe2e8daf41" x="290.868769" y="177.192316" style="fill: #4caf50; fill-opacity: 0.6; stroke: #4caf50; stroke-opacity: 0.6"/>
     <use xlink:href="#mfe2e8daf41" x="317.177514" y="148.040411" style="fill: #4caf50; fill-opacity: 0.6; stroke: #4caf50; stroke-opacity: 0.6"/>
     <use xlink:href="#mfe2e8daf41" x="343.48626" y="90.540087" style="fill: #4caf50; fill-opacity: 0.6; stroke: #4caf50; stroke-opacity: 0.6"/>
     <use xlink:href="#mfe2e8daf41" x="369.795005" y="132.199446" style="fill: #4caf50; fill-opacity: 0.6; stroke: #4caf50; stroke-opacity: 0.6"/>
     <use xlink:href="#mfe2e8daf41" x="396.10375" y="110.778884" style="fill: #4caf50; fill-opacity: 0.6; stroke: #4caf50; stroke-opacity: 0.6"/>
     <use xlink:href="#mfe2e8daf41" x="422.412495" y="268.477623" style="fill: #4caf50; fill-opacity: 0.6; stroke: #4caf50; stroke-opacity: 0.6"/>
     <use xlink:href="#mfe2e8daf41" x="448.72124" y="246.307906" style="fill: #4caf50; fill-opacity: 0.6; stroke: #4caf50; stroke-opacity: 0.6"/>
     <use xlink:href="#mfe2e8daf41" x="475.029986" y="259.305846" style="fill: #4caf50; fill-opacity: 0.6; stroke: #4caf50; stroke-opacity: 0.6"/>
     <use xlink:href="#mfe2e8daf41" x="501.338731" y="225.909833" style="fill: #4caf50; fill-opacity: 0.6; stroke: #4caf50; stroke-opacity: 0.6"/>
     <use xlink:href="#mfe2e8daf41" x="527.647476" y="226.776949" style="fill: #4caf50; fill-opacity: 0.6; stroke: #4caf50; stroke-opacity: 0.6"/>
     <use xlink:href="#mfe2e8daf41" x="553.956221" y="200.948952" style="fill: #4caf50; fill-opacity: 0.6; stroke: #4caf50; stroke-opacity: 0.6"/>
     <use xlink:href="#mfe2e8daf41" x="580.264967" y="98.676338" style="fill: #4caf50; fill-opacity: 0.6; stroke: #4caf50; stroke-opacity: 0.6"/>
     <use xlink:href="#mfe2e8daf41" x="606.573712" y="237.222973" style="fill: #4caf50; fill-opacity: 0.6; stroke: #4caf50; stroke-opacity: 0.6"/>
     <use xlink:href="#mfe2e8daf41" x="632.882457" y="265.050739" style="fill: #4caf50; fill-opacity: 0.6; stroke: #4caf50; stroke-opacity: 0.6"/>
     <use xlink:href="#mfe2e8daf41" x="659.191202" y="276.334125" style="fill: #4caf50; fill-opacity: 0.6; stroke: #4caf50; stroke-opacity: 0.6"/>
     <use xlink:href="#mfe2e8daf41" x="685.499948" y="198.286367" style="fill: #4caf50; fill-opacity: 0.6; stroke: #4caf50; stroke-opacity: 0.6"/>
    </g>
   </g>
   <g id="line2d_33">
    <path d="M 80.398807 177.444905 
L 106.707552 131.876974 
L 133.016298 172.88775 
L 159.325043 214.066341 
L 185.633788 64.661943 
L 211.942533 178.664853 
L 238.251279 227.392481 
L 264.560024 44.994174 
L 290.868769 246.144935 
L 317.177514 122.489154 
L 343.48626 124.495425 
L 369.795005 34.414125 
L 396.10375 193.100665 
L 422.412495 259.878172 
L 448.72124 231.800651 
L 475.029986 264.441905 
L 501.338731 137.423558 
L 527.647476 154.263365 
L 553.956221 228.923183 
L 580.264967 122.307906 
L 606.573712 239.395753 
L 632.882457 202.338053 
L 659.191202 189.804677 
L 685.499948 223.470777 
" clip-path="url(#p7e8ff8472e)" style="fill: none; stroke: #4caf50; stroke-opacity: 0.6; stroke-width: 0.6; stroke-linecap: square"/>
    <g clip-path="url(#p7e8ff8472e)">
     <use xlink:href="#mfe2e8daf41" x="80.398807" y="177.444905" style="fill: #4caf50; fill-opacity: 0.6; stroke: #4caf50; stroke-opacity: 0.6"/>
     <use xlink:href="#mfe2e8daf41" x="106.707552" y="131.876974" style="fill: #4caf50; fill-opacity: 0.6; stroke: #4caf50; stroke-opacity: 0.6"/>
     <use xlink:href="#mfe2e8daf41" x="133.016298" y="172.88775" style="fill: #4caf50; fill-opacity: 0.6; stroke: #4caf50; stroke-opacity: 0.6"/>
     <use xlink:href="#mfe2e8daf41" x="159.325043" y="214.066341" style="fill: #4caf50; fill-opacity: 0.6; stroke: #4caf50; stroke-opacity: 0.6"/>
     <use xlink:href="#mfe2e8daf41" x="185.633788" y="64.661943" style="fill: #4caf50; fill-opacity: 0.6; stroke: #4caf50; stroke-opacity: 0.6"/>
     <use xlink:href="#mfe2e8daf41" x="211.942533" y="178.664853" style="fill: #4caf50; fill-opacity: 0.6; stroke: #4caf50; stroke-opacity: 0.6"/>
     <use xlink:href="#mfe2e8daf41" x="238.251279" y="227.392481" style="fill: #4caf50; fill-opacity: 0.6; stroke: #4caf50; stroke-opacity: 0.6"/>
     <use xlink:href="#mfe2e8daf41" x="264.560024" y="44.994174" style="fill: #4caf50; fill-opacity: 0.6; stroke: #4caf50; stroke-opacity: 0.6"/>
     <use xlink:href="#mfe2e8daf41" x="290.868769" y="246.144935" style="fill: #4caf50; fill-opacity: 0.6; stroke: #4caf50; stroke-opacity: 0.6"/>
     <use xlink:href="#mfe2e8daf41" x="317.177514" y="122.489154" style="fill: #4caf50; fill-opacity: 0.6; stroke: #4caf50; stroke-opacity: 0.6"/>
     <use xlink:href="#mfe2e8daf41" x="343.48626" y="124.495425" style="fill: #4caf50; fill-opacity: 0.6; stroke: #4caf50; stroke-opacity: 0.6"/>
     <use xlink:href="#mfe2e8daf41" x="369.795005" y="34.414125" style="fill: #4caf50; fill-opacity: 0.6; stroke: #4caf50; stroke-opacity: 0.6"/>
     <use xlink:href="#mfe2e8daf41" x="396.10375" y="193.100665" style="fill: #4caf50; fill-opacity: 0.6; stroke: #4caf50; stroke-opacity: 0.6"/>
     <use xlink:href="#mfe2e8daf41" x="422.412495" y="259.878172" style="fill: #4caf50; fill-opacity: 0.6; stroke: #4caf50; stroke-opacity: 0.6"/>
     <use xlink:href="#mfe2e8daf41" x="448.72124" y="231.800651" style="fill: #4caf50; fill-opacity: 0.6; stroke: #4caf50; stroke-opacity: 0.6"/>
     <use xlink:href="#mfe2e8daf41" x="475.029986" y="264.441905" style="fill: #4caf50; fill-opacity: 0.6; stroke: #4caf50; stroke-opacity: 0.6"/>
     <use xlink:href="#mfe2e8daf41" x="501.338731" y="137.423558" style="fill: #4caf50; fill-opacity: 0.6; stroke: #4caf50; stroke-opacity: 0.6"/>
     <use xlink:href="#mfe2e8daf41" x="527.647476" y="154.263365" style="fill: #4caf50; fill-opacity: 0.6; stroke: #4caf50; stroke-opacity: 0.6"/>
     <use xlink:href="#mfe2e8daf41" x="553.956221" y="228.923183" style="fill: #4caf50; fill-opacity: 0.6; stroke: #4caf50; stroke-opacity: 0.6"/>
     <use xlink:href="#mfe2e8daf41" x="580.264967" y="122.307906" style="fill: #4caf50; fill-opacity: 0.6; stroke: #4caf50; stroke-opacity: 0.6"/>
     <use xlink:href="#mfe2e8daf41" x="606.573712" y="239.395753" style="fill: #4caf50; fill-opacity: 0.6; stroke: #4caf50; stroke-opacity: 0.6"/>
     <use xlink:href="#mfe2e8daf41" x="632.882457" y="202.338053" style="fill: #4caf50; fill-opacity: 0.6; stroke: #4caf50; stroke-opacity: 0.6"/>
     <use xlink:href="#mfe2e8daf41" x="659.191202" y="189.804677" style="fill: #4caf50; fill-opacity: 0.6; stroke: #4caf50; stroke-opacity: 0.6"/>
     <use xlink:href="#mfe2e8daf41" x="685.499948" y="223.470777" style="fill: #4caf50; fill-opacity: 0.6; stroke: #4caf50; stroke-opacity: 0.6"/>
    </g>
   </g>
   <g id="line2d_34">
    <path d="M 80.398807 157.812837 
L 106.707552 205.898418 
L 133.016298 236.040174 
L 159.325043 82.31955 
L 185.633788 184.308219 
L 211.942533 233.768756 
L 238.251279 49.047223 
L 264.560024 225.04387 
L 290.868769 234.916029 
L 317.177514 257.652035 
L 343.48626 223.251273 
L 369.795005 139.241665 
L 396.10375 264.843511 
L 422.412495 122.584695 
L 448.72124 255.897218 
L 475.029986 207.631042 
L 501.338731 199.157487 
L 527.647476 168.868646 
L 553.956221 195.530433 
L 580.264967 250.909803 
L 606.573712 254.81905 
L 632.882457 269.122035 
L 659.191202 212.313807 
L 685.499948 266.712407 
" clip-path="url(#p7e8ff8472e)" style="fill: none; stroke: #4caf50; stroke-opacity: 0.6; stroke-width: 0.6; stroke-linecap: square"/>
    <g clip-path="url(#p7e8ff8472e)">
     <use xlink:href="#mfe2e8daf41" x="80.398807" y="157.812837" style="fill: #4caf50; fill-opacity: 0.6; stroke: #4caf50; stroke-opacity: 0.6"/>
     <use xlink:href="#mfe2e8daf41" x="106.707552" y="205.898418" style="fill: #4caf50; fill-opacity: 0.6; stroke: #4caf50; stroke-opacity: 0.6"/>
     <use xlink:href="#mfe2e8daf41" x="133.016298" y="236.040174" style="fill: #4caf50; fill-opacity: 0.6; stroke: #4caf50; stroke-opacity: 0.6"/>
     <use xlink:href="#mfe2e8daf41" x="159.325043" y="82.31955" style="fill: #4caf50; fill-opacity: 0.6; stroke: #4caf50; stroke-opacity: 0.6"/>
     <use xlink:href="#mfe2e8daf41" x="185.633788" y="184.308219" style="fill: #4caf50; fill-opacity: 0.6; stroke: #4caf50; stroke-opacity: 0.6"/>
     <use xlink:href="#mfe2e8daf41" x="211.942533" y="233.768756" style="fill: #4caf50; fill-opacity: 0.6; stroke: #4caf50; stroke-opacity: 0.6"/>
     <use xlink:href="#mfe2e8daf41" x="238.251279" y="49.047223" style="fill: #4caf50; fill-opacity: 0.6; stroke: #4caf50; stroke-opacity: 0.6"/>
     <use xlink:href="#mfe2e8daf41" x="264.560024" y="225.04387" style="fill: #4caf50; fill-opacity: 0.6; stroke: #4caf50; stroke-opacity: 0.6"/>
     <use xlink:href="#mfe2e8daf41" x="290.868769" y="234.916029" style="fill: #4caf50; fill-opacity: 0.6; stroke: #4caf50; stroke-opacity: 0.6"/>
     <use xlink:href="#mfe2e8daf41" x="317.177514" y="257.652035" style="fill: #4caf50; fill-opacity: 0.6; stroke: #4caf50; stroke-opacity: 0.6"/>
     <use xlink:href="#mfe2e8daf41" x="343.48626" y="223.251273" style="fill: #4caf50; fill-opacity: 0.6; stroke: #4caf50; stroke-opacity: 0.6"/>
     <use xlink:href="#mfe2e8daf41" x="369.795005" y="139.241665" style="fill: #4caf50; fill-opacity: 0.6; stroke: #4caf50; stroke-opacity: 0.6"/>
     <use xlink:href="#mfe2e8daf41" x="396.10375" y="264.843511" style="fill: #4caf50; fill-opacity: 0.6; stroke: #4caf50; stroke-opacity: 0.6"/>
     <use xlink:href="#mfe2e8daf41" x="422.412495" y="122.584695" style="fill: #4caf50; fill-opacity: 0.6; stroke: #4caf50; stroke-opacity: 0.6"/>
     <use xlink:href="#mfe2e8daf41" x="448.72124" y="255.897218" style="fill: #4caf50; fill-opacity: 0.6; stroke: #4caf50; stroke-opacity: 0.6"/>
     <use xlink:href="#mfe2e8daf41" x="475.029986" y="207.631042" style="fill: #4caf50; fill-opacity: 0.6; stroke: #4caf50; stroke-opacity: 0.6"/>
     <use xlink:href="#mfe2e8daf41" x="501.338731" y="199.157487" style="fill: #4caf50; fill-opacity: 0.6; stroke: #4caf50; stroke-opacity: 0.6"/>
     <use xlink:href="#mfe2e8daf41" x="527.647476" y="168.868646" style="fill: #4caf50; fill-opacity: 0.6; stroke: #4caf50; stroke-opacity: 0.6"/>
     <use xlink:href="#mfe2e8daf41" x="553.956221" y="195.530433" style="fill: #4caf50; fill-opacity: 0.6; stroke: #4caf50; stroke-opacity: 0.6"/>
     <use xlink:href="#mfe2e8daf41" x="580.264967" y="250.909803" style="fill: #4caf50; fill-opacity: 0.6; stroke: #4caf50; stroke-opacity: 0.6"/>
     <use xlink:href="#mfe2e8daf41" x="606.573712" y="254.81905" style="fill: #4caf50; fill-opacity: 0.6; stroke: #4caf50; stroke-opacity: 0.6"/>
     <use xlink:href="#mfe2e8daf41" x="632.882457" y="269.122035" style="fill: #4caf50; fill-opacity: 0.6; stroke: #4caf50; stroke-opacity: 0.6"/>
     <use xlink:href="#mfe2e8daf41" x="659.191202" y="212.313807" style="fill: #4caf50; fill-opacity: 0.6; stroke: #4caf50; stroke-opacity: 0.6"/>
     <use xlink:href="#mfe2e8daf41" x="685.499948" y="266.712407" style="fill: #4caf50; fill-opacity: 0.6; stroke: #4caf50; stroke-opacity: 0.6"/>
    </g>
   </g>
   <g id="line2d_35">
    <path d="M 80.398807 225.638343 
L 106.707552 145.111396 
L 133.016298 156.964099 
L 159.325043 259.133309 
L 185.633788 225.281749 
L 211.942533 272.520292 
L 238.251279 120.523467 
L 264.560024 167.616913 
L 290.868769 185.447416 
L 317.177514 253.652788 
L 343.48626 232.748085 
L 369.795005 182.632719 
L 396.10375 138.377012 
L 422.412495 62.294838 
L 448.72124 244.987926 
L 475.029986 185.859188 
L 501.338731 246.106979 
L 527.647476 145.666824 
L 553.956221 157.594985 
L 580.264967 217.918793 
L 606.573712 44.409593 
L 632.882457 240.361995 
L 659.191202 143.990678 
L 685.499948 159.654511 
" clip-path="url(#p7e8ff8472e)" style="fill: none; stroke: #4caf50; stroke-opacity: 0.6; stroke-width: 0.6; stroke-linecap: square"/>
    <g clip-path="url(#p7e8ff8472e)">
     <use xlink:href="#mfe2e8daf41" x="80.398807" y="225.638343" style="fill: #4caf50; fill-opacity: 0.6; stroke: #4caf50; stroke-opacity: 0.6"/>
     <use xlink:href="#mfe2e8daf41" x="106.707552" y="145.111396" style="fill: #4caf50; fill-opacity: 0.6; stroke: #4caf50; stroke-opacity: 0.6"/>
     <use xlink:href="#mfe2e8daf41" x="133.016298" y="156.964099" style="fill: #4caf50; fill-opacity: 0.6; stroke: #4caf50; stroke-opacity: 0.6"/>
     <use xlink:href="#mfe2e8daf41" x="159.325043" y="259.133309" style="fill: #4caf50; fill-opacity: 0.6; stroke: #4caf50; stroke-opacity: 0.6"/>
     <use xlink:href="#mfe2e8daf41" x="185.633788" y="225.281749" style="fill: #4caf50; fill-opacity: 0.6; stroke: #4caf50; stroke-opacity: 0.6"/>
     <use xlink:href="#mfe2e8daf41" x="211.942533" y="272.520292" style="fill: #4caf50; fill-opacity: 0.6; stroke: #4caf50; stroke-opacity: 0.6"/>
     <use xlink:href="#mfe2e8daf41" x="238.251279" y="120.523467" style="fill: #4caf50; fill-opacity: 0.6; stroke: #4caf50; stroke-opacity: 0.6"/>
     <use xlink:href="#mfe2e8daf41" x="264.560024" y="167.616913" style="fill: #4caf50; fill-opacity: 0.6; stroke: #4caf50; stroke-opacity: 0.6"/>
     <use xlink:href="#mfe2e8daf41" x="290.868769" y="185.447416" style="fill: #4caf50; fill-opacity: 0.6; stroke: #4caf50; stroke-opacity: 0.6"/>
     <use xlink:href="#mfe2e8daf41" x="317.177514" y="253.652788" style="fill: #4caf50; fill-opacity: 0.6; stroke: #4caf50; stroke-opacity: 0.6"/>
     <use xlink:href="#mfe2e8daf41" x="343.48626" y="232.748085" style="fill: #4caf50; fill-opacity: 0.6; stroke: #4caf50; stroke-opacity: 0.6"/>
     <use xlink:href="#mfe2e8daf41" x="369.795005" y="182.632719" style="fill: #4caf50; fill-opacity: 0.6; stroke: #4caf50; stroke-opacity: 0.6"/>
     <use xlink:href="#mfe2e8daf41" x="396.10375" y="138.377012" style="fill: #4caf50; fill-opacity: 0.6; stroke: #4caf50; stroke-opacity: 0.6"/>
     <use xlink:href="#mfe2e8daf41" x="422.412495" y="62.294838" style="fill: #4caf50; fill-opacity: 0.6; stroke: #4caf50; stroke-opacity: 0.6"/>
     <use xlink:href="#mfe2e8daf41" x="448.72124" y="244.987926" style="fill: #4caf50; fill-opacity: 0.6; stroke: #4caf50; stroke-opacity: 0.6"/>
     <use xlink:href="#mfe2e8daf41" x="475.029986" y="185.859188" style="fill: #4caf50; fill-opacity: 0.6; stroke: #4caf50; stroke-opacity: 0.6"/>
     <use xlink:href="#mfe2e8daf41" x="501.338731" y="246.106979" style="fill: #4caf50; fill-opacity: 0.6; stroke: #4caf50; stroke-opacity: 0.6"/>
     <use xlink:href="#mfe2e8daf41" x="527.647476" y="145.666824" style="fill: #4caf50; fill-opacity: 0.6; stroke: #4caf50; stroke-opacity: 0.6"/>
     <use xlink:href="#mfe2e8daf41" x="553.956221" y="157.594985" style="fill: #4caf50; fill-opacity: 0.6; stroke: #4caf50; stroke-opacity: 0.6"/>
     <use xlink:href="#mfe2e8daf41" x="580.264967" y="217.918793" style="fill: #4caf50; fill-opacity: 0.6; stroke: #4caf50; stroke-opacity: 0.6"/>
     <use xlink:href="#mfe2e8daf41" x="606.573712" y="44.409593" style="fill: #4caf50; fill-opacity: 0.6; stroke: #4caf50; stroke-opacity: 0.6"/>
     <use xlink:href="#mfe2e8daf41" x="632.882457" y="240.361995" style="fill: #4caf50; fill-opacity: 0.6; stroke: #4caf50; stroke-opacity: 0.6"/>
     <use xlink:href="#mfe2e8daf41" x="659.191202" y="143.990678" style="fill: #4caf50; fill-opacity: 0.6; stroke: #4caf50; stroke-opacity: 0.6"/>
     <use xlink:href="#mfe2e8daf41" x="685.499948" y="159.654511" style="fill: #4caf50; fill-opacity: 0.6; stroke: #4caf50; stroke-opacity: 0.6"/>
    </g>
   </g>
   <g id="patch_3">
    <path d="M 50.14375 288.430125 
L 50.14375 22.318125 
" style="fill: none"/>
   </g>
   <g id="patch_4">
    <path d="M 742.06375 288.430125 
L 742.06375 22.318125 
" style="fill: none"/>
   </g>
   <g id="patch_5">
    <path d="M 50.14375 288.430125 
L 742.06375 288.430125 
" style="fill: none"/>
   </g>
   <g id="patch_6">
    <path d="M 50.14375 22.318125 
L 742.06375 22.318125 
" style="fill: none"/>
   </g>
   <g id="text_17">
    <!-- HMC -->
    <g style="fill: #666666" transform="translate(382.225 16.318125) scale(0.12 -0.12)">
     <defs>
      <path id="DejaVuSans-48" d="M 628 4666 
L 1259 4666 
L 1259 2753 
L 3553 2753 
L 3553 4666 
L 4184 4666 
L 4184 0 
L 3553 0 
L 3553 2222 
L 1259 2222 
L 1259 0 
L 628 0 
L 628 4666 
z
" transform="scale(0.015625)"/>
      <path id="DejaVuSans-4d" d="M 628 4666 
L 1569 4666 
L 2759 1491 
L 3956 4666 
L 4897 4666 
L 4897 0 
L 4281 0 
L 4281 4097 
L 3078 897 
L 2444 897 
L 1241 4097 
L 1241 0 
L 628 0 
L 628 4666 
z
" transform="scale(0.015625)"/>
      <path id="DejaVuSans-43" d="M 4122 4306 
L 4122 3641 
Q 3803 3938 3442 4084 
Q 3081 4231 2675 4231 
Q 1875 4231 1450 3742 
Q 1025 3253 1025 2328 
Q 1025 1406 1450 917 
Q 1875 428 2675 428 
Q 3081 428 3442 575 
Q 3803 722 4122 1019 
L 4122 359 
Q 3791 134 3420 21 
Q 3050 -91 2638 -91 
Q 1578 -91 968 557 
Q 359 1206 359 2328 
Q 359 3453 968 4101 
Q 1578 4750 2638 4750 
Q 3056 4750 3426 4639 
Q 3797 4528 4122 4306 
z
" transform="scale(0.015625)"/>
     </defs>
     <use xlink:href="#DejaVuSans-48"/>
     <use xlink:href="#DejaVuSans-4d" x="75.195312"/>
     <use xlink:href="#DejaVuSans-43" x="161.474609"/>
    </g>
   </g>
  </g>
 </g>
 <defs>
  <clipPath id="p7e8ff8472e">
   <rect x="50.14375" y="22.318125" width="691.92" height="266.112"/>
  </clipPath>
 </defs>
</svg>
