<?xml version="1.0" encoding="utf-8" standalone="no"?>
<!DOCTYPE svg PUBLIC "-//W3C//DTD SVG 1.1//EN"
  "http://www.w3.org/Graphics/SVG/1.1/DTD/svg11.dtd">
<svg xmlns:xlink="http://www.w3.org/1999/xlink" width="745.595563pt" height="312.30825pt" viewBox="0 0 745.595563 312.30825" xmlns="http://www.w3.org/2000/svg" version="1.1">
 <metadata>
  <rdf:RDF xmlns:dc="http://purl.org/dc/elements/1.1/" xmlns:cc="http://creativecommons.org/ns#" xmlns:rdf="http://www.w3.org/1999/02/22-rdf-syntax-ns#">
   <cc:Work>
    <dc:type rdf:resource="http://purl.org/dc/dcmitype/StillImage"/>
    <dc:date>2023-07-10T07:56:34.432807</dc:date>
    <dc:format>image/svg+xml</dc:format>
    <dc:creator>
     <cc:Agent>
      <dc:title>Matplotlib v3.7.1, https://matplotlib.org/</dc:title>
     </cc:Agent>
    </dc:creator>
   </cc:Work>
  </rdf:RDF>
 </metadata>
 <defs>
  <style type="text/css">*{stroke-linejoin: round; stroke-linecap: butt}</style>
 </defs>
 <g id="figure_1">
  <g id="patch_1">
   <path d="M 0 312.30825 
L 745.595563 312.30825 
L 745.595563 0 
L 0 0 
L 0 312.30825 
z
" style="fill: none"/>
  </g>
  <g id="axes_1">
   <g id="patch_2">
    <path d="M 44.059375 288.430125 
L 735.979375 288.430125 
L 735.979375 22.318125 
L 44.059375 22.318125 
L 44.059375 288.430125 
z
" style="fill: none"/>
   </g>
   <g id="matplotlib.axis_1">
    <g id="xtick_1">
     <g id="line2d_1">
      <path d="M 74.314432 288.430125 
L 74.314432 22.318125 
" clip-path="url(#pad90db8cbd)" style="fill: none; stroke-dasharray: 1.85,0.8; stroke-dashoffset: 0; stroke: #666666; stroke-opacity: 0.4; stroke-width: 0.5"/>
     </g>
     <g id="line2d_2">
      <defs>
       <path id="mb93bd08ad4" d="M 0 0 
L 0 3.5 
" style="stroke: #000000; stroke-opacity: 0; stroke-width: 0.8"/>
      </defs>
      <g>
       <use xlink:href="#mb93bd08ad4" x="74.314432" y="288.430125" style="fill-opacity: 0; stroke: #000000; stroke-opacity: 0; stroke-width: 0.8"/>
      </g>
     </g>
     <g id="text_1">
      <!-- 0 -->
      <g style="fill: #666666" transform="translate(71.133182 303.028562) scale(0.1 -0.1)">
       <defs>
        <path id="DejaVuSans-30" d="M 2034 4250 
Q 1547 4250 1301 3770 
Q 1056 3291 1056 2328 
Q 1056 1369 1301 889 
Q 1547 409 2034 409 
Q 2525 409 2770 889 
Q 3016 1369 3016 2328 
Q 3016 3291 2770 3770 
Q 2525 4250 2034 4250 
z
M 2034 4750 
Q 2819 4750 3233 4129 
Q 3647 3509 3647 2328 
Q 3647 1150 3233 529 
Q 2819 -91 2034 -91 
Q 1250 -91 836 529 
Q 422 1150 422 2328 
Q 422 3509 836 4129 
Q 1250 4750 2034 4750 
z
" transform="scale(0.015625)"/>
       </defs>
       <use xlink:href="#DejaVuSans-30"/>
      </g>
     </g>
    </g>
    <g id="xtick_2">
     <g id="line2d_3">
      <path d="M 205.858158 288.430125 
L 205.858158 22.318125 
" clip-path="url(#pad90db8cbd)" style="fill: none; stroke-dasharray: 1.85,0.8; stroke-dashoffset: 0; stroke: #666666; stroke-opacity: 0.4; stroke-width: 0.5"/>
     </g>
     <g id="line2d_4">
      <g>
       <use xlink:href="#mb93bd08ad4" x="205.858158" y="288.430125" style="fill-opacity: 0; stroke: #000000; stroke-opacity: 0; stroke-width: 0.8"/>
      </g>
     </g>
     <g id="text_2">
      <!-- 5 -->
      <g style="fill: #666666" transform="translate(202.676908 303.028562) scale(0.1 -0.1)">
       <defs>
        <path id="DejaVuSans-35" d="M 691 4666 
L 3169 4666 
L 3169 4134 
L 1269 4134 
L 1269 2991 
Q 1406 3038 1543 3061 
Q 1681 3084 1819 3084 
Q 2600 3084 3056 2656 
Q 3513 2228 3513 1497 
Q 3513 744 3044 326 
Q 2575 -91 1722 -91 
Q 1428 -91 1123 -41 
Q 819 9 494 109 
L 494 744 
Q 775 591 1075 516 
Q 1375 441 1709 441 
Q 2250 441 2565 725 
Q 2881 1009 2881 1497 
Q 2881 1984 2565 2268 
Q 2250 2553 1709 2553 
Q 1456 2553 1204 2497 
Q 953 2441 691 2322 
L 691 4666 
z
" transform="scale(0.015625)"/>
       </defs>
       <use xlink:href="#DejaVuSans-35"/>
      </g>
     </g>
    </g>
    <g id="xtick_3">
     <g id="line2d_5">
      <path d="M 337.401885 288.430125 
L 337.401885 22.318125 
" clip-path="url(#pad90db8cbd)" style="fill: none; stroke-dasharray: 1.85,0.8; stroke-dashoffset: 0; stroke: #666666; stroke-opacity: 0.4; stroke-width: 0.5"/>
     </g>
     <g id="line2d_6">
      <g>
       <use xlink:href="#mb93bd08ad4" x="337.401885" y="288.430125" style="fill-opacity: 0; stroke: #000000; stroke-opacity: 0; stroke-width: 0.8"/>
      </g>
     </g>
     <g id="text_3">
      <!-- 10 -->
      <g style="fill: #666666" transform="translate(331.039385 303.028562) scale(0.1 -0.1)">
       <defs>
        <path id="DejaVuSans-31" d="M 794 531 
L 1825 531 
L 1825 4091 
L 703 3866 
L 703 4441 
L 1819 4666 
L 2450 4666 
L 2450 531 
L 3481 531 
L 3481 0 
L 794 0 
L 794 531 
z
" transform="scale(0.015625)"/>
       </defs>
       <use xlink:href="#DejaVuSans-31"/>
       <use xlink:href="#DejaVuSans-30" x="63.623047"/>
      </g>
     </g>
    </g>
    <g id="xtick_4">
     <g id="line2d_7">
      <path d="M 468.945611 288.430125 
L 468.945611 22.318125 
" clip-path="url(#pad90db8cbd)" style="fill: none; stroke-dasharray: 1.85,0.8; stroke-dashoffset: 0; stroke: #666666; stroke-opacity: 0.4; stroke-width: 0.5"/>
     </g>
     <g id="line2d_8">
      <g>
       <use xlink:href="#mb93bd08ad4" x="468.945611" y="288.430125" style="fill-opacity: 0; stroke: #000000; stroke-opacity: 0; stroke-width: 0.8"/>
      </g>
     </g>
     <g id="text_4">
      <!-- 15 -->
      <g style="fill: #666666" transform="translate(462.583111 303.028562) scale(0.1 -0.1)">
       <use xlink:href="#DejaVuSans-31"/>
       <use xlink:href="#DejaVuSans-35" x="63.623047"/>
      </g>
     </g>
    </g>
    <g id="xtick_5">
     <g id="line2d_9">
      <path d="M 600.489337 288.430125 
L 600.489337 22.318125 
" clip-path="url(#pad90db8cbd)" style="fill: none; stroke-dasharray: 1.85,0.8; stroke-dashoffset: 0; stroke: #666666; stroke-opacity: 0.4; stroke-width: 0.5"/>
     </g>
     <g id="line2d_10">
      <g>
       <use xlink:href="#mb93bd08ad4" x="600.489337" y="288.430125" style="fill-opacity: 0; stroke: #000000; stroke-opacity: 0; stroke-width: 0.8"/>
      </g>
     </g>
     <g id="text_5">
      <!-- 20 -->
      <g style="fill: #666666" transform="translate(594.126837 303.028562) scale(0.1 -0.1)">
       <defs>
        <path id="DejaVuSans-32" d="M 1228 531 
L 3431 531 
L 3431 0 
L 469 0 
L 469 531 
Q 828 903 1448 1529 
Q 2069 2156 2228 2338 
Q 2531 2678 2651 2914 
Q 2772 3150 2772 3378 
Q 2772 3750 2511 3984 
Q 2250 4219 1831 4219 
Q 1534 4219 1204 4116 
Q 875 4013 500 3803 
L 500 4441 
Q 881 4594 1212 4672 
Q 1544 4750 1819 4750 
Q 2544 4750 2975 4387 
Q 3406 4025 3406 3419 
Q 3406 3131 3298 2873 
Q 3191 2616 2906 2266 
Q 2828 2175 2409 1742 
Q 1991 1309 1228 531 
z
" transform="scale(0.015625)"/>
       </defs>
       <use xlink:href="#DejaVuSans-32"/>
       <use xlink:href="#DejaVuSans-30" x="63.623047"/>
      </g>
     </g>
    </g>
    <g id="xtick_6">
     <g id="line2d_11">
      <path d="M 732.033063 288.430125 
L 732.033063 22.318125 
" clip-path="url(#pad90db8cbd)" style="fill: none; stroke-dasharray: 1.85,0.8; stroke-dashoffset: 0; stroke: #666666; stroke-opacity: 0.4; stroke-width: 0.5"/>
     </g>
     <g id="line2d_12">
      <g>
       <use xlink:href="#mb93bd08ad4" x="732.033063" y="288.430125" style="fill-opacity: 0; stroke: #000000; stroke-opacity: 0; stroke-width: 0.8"/>
      </g>
     </g>
     <g id="text_6">
      <!-- 25 -->
      <g style="fill: #666666" transform="translate(725.670563 303.028562) scale(0.1 -0.1)">
       <use xlink:href="#DejaVuSans-32"/>
       <use xlink:href="#DejaVuSans-35" x="63.623047"/>
      </g>
     </g>
    </g>
   </g>
   <g id="matplotlib.axis_2">
    <g id="ytick_1">
     <g id="line2d_13">
      <path d="M 44.059375 276.334125 
L 735.979375 276.334125 
" clip-path="url(#pad90db8cbd)" style="fill: none; stroke-dasharray: 1.85,0.8; stroke-dashoffset: 0; stroke: #666666; stroke-opacity: 0.4; stroke-width: 0.5"/>
     </g>
     <g id="line2d_14">
      <defs>
       <path id="m1ab7c48621" d="M 0 0 
L -3.5 0 
" style="stroke: #000000; stroke-opacity: 0; stroke-width: 0.8"/>
      </defs>
      <g>
       <use xlink:href="#m1ab7c48621" x="44.059375" y="276.334125" style="fill-opacity: 0; stroke: #000000; stroke-opacity: 0; stroke-width: 0.8"/>
      </g>
     </g>
     <g id="text_7">
      <!-- 0.0 -->
      <g style="fill: #666666" transform="translate(21.15625 280.133344) scale(0.1 -0.1)">
       <defs>
        <path id="DejaVuSans-2e" d="M 684 794 
L 1344 794 
L 1344 0 
L 684 0 
L 684 794 
z
" transform="scale(0.015625)"/>
       </defs>
       <use xlink:href="#DejaVuSans-30"/>
       <use xlink:href="#DejaVuSans-2e" x="63.623047"/>
       <use xlink:href="#DejaVuSans-30" x="95.410156"/>
      </g>
     </g>
    </g>
    <g id="ytick_2">
     <g id="line2d_15">
      <path d="M 44.059375 227.950125 
L 735.979375 227.950125 
" clip-path="url(#pad90db8cbd)" style="fill: none; stroke-dasharray: 1.85,0.8; stroke-dashoffset: 0; stroke: #666666; stroke-opacity: 0.4; stroke-width: 0.5"/>
     </g>
     <g id="line2d_16">
      <g>
       <use xlink:href="#m1ab7c48621" x="44.059375" y="227.950125" style="fill-opacity: 0; stroke: #000000; stroke-opacity: 0; stroke-width: 0.8"/>
      </g>
     </g>
     <g id="text_8">
      <!-- 0.2 -->
      <g style="fill: #666666" transform="translate(21.15625 231.749344) scale(0.1 -0.1)">
       <use xlink:href="#DejaVuSans-30"/>
       <use xlink:href="#DejaVuSans-2e" x="63.623047"/>
       <use xlink:href="#DejaVuSans-32" x="95.410156"/>
      </g>
     </g>
    </g>
    <g id="ytick_3">
     <g id="line2d_17">
      <path d="M 44.059375 179.566125 
L 735.979375 179.566125 
" clip-path="url(#pad90db8cbd)" style="fill: none; stroke-dasharray: 1.85,0.8; stroke-dashoffset: 0; stroke: #666666; stroke-opacity: 0.4; stroke-width: 0.5"/>
     </g>
     <g id="line2d_18">
      <g>
       <use xlink:href="#m1ab7c48621" x="44.059375" y="179.566125" style="fill-opacity: 0; stroke: #000000; stroke-opacity: 0; stroke-width: 0.8"/>
      </g>
     </g>
     <g id="text_9">
      <!-- 0.4 -->
      <g style="fill: #666666" transform="translate(21.15625 183.365344) scale(0.1 -0.1)">
       <defs>
        <path id="DejaVuSans-34" d="M 2419 4116 
L 825 1625 
L 2419 1625 
L 2419 4116 
z
M 2253 4666 
L 3047 4666 
L 3047 1625 
L 3713 1625 
L 3713 1100 
L 3047 1100 
L 3047 0 
L 2419 0 
L 2419 1100 
L 313 1100 
L 313 1709 
L 2253 4666 
z
" transform="scale(0.015625)"/>
       </defs>
       <use xlink:href="#DejaVuSans-30"/>
       <use xlink:href="#DejaVuSans-2e" x="63.623047"/>
       <use xlink:href="#DejaVuSans-34" x="95.410156"/>
      </g>
     </g>
    </g>
    <g id="ytick_4">
     <g id="line2d_19">
      <path d="M 44.059375 131.182125 
L 735.979375 131.182125 
" clip-path="url(#pad90db8cbd)" style="fill: none; stroke-dasharray: 1.85,0.8; stroke-dashoffset: 0; stroke: #666666; stroke-opacity: 0.4; stroke-width: 0.5"/>
     </g>
     <g id="line2d_20">
      <g>
       <use xlink:href="#m1ab7c48621" x="44.059375" y="131.182125" style="fill-opacity: 0; stroke: #000000; stroke-opacity: 0; stroke-width: 0.8"/>
      </g>
     </g>
     <g id="text_10">
      <!-- 0.6 -->
      <g style="fill: #666666" transform="translate(21.15625 134.981344) scale(0.1 -0.1)">
       <defs>
        <path id="DejaVuSans-36" d="M 2113 2584 
Q 1688 2584 1439 2293 
Q 1191 2003 1191 1497 
Q 1191 994 1439 701 
Q 1688 409 2113 409 
Q 2538 409 2786 701 
Q 3034 994 3034 1497 
Q 3034 2003 2786 2293 
Q 2538 2584 2113 2584 
z
M 3366 4563 
L 3366 3988 
Q 3128 4100 2886 4159 
Q 2644 4219 2406 4219 
Q 1781 4219 1451 3797 
Q 1122 3375 1075 2522 
Q 1259 2794 1537 2939 
Q 1816 3084 2150 3084 
Q 2853 3084 3261 2657 
Q 3669 2231 3669 1497 
Q 3669 778 3244 343 
Q 2819 -91 2113 -91 
Q 1303 -91 875 529 
Q 447 1150 447 2328 
Q 447 3434 972 4092 
Q 1497 4750 2381 4750 
Q 2619 4750 2861 4703 
Q 3103 4656 3366 4563 
z
" transform="scale(0.015625)"/>
       </defs>
       <use xlink:href="#DejaVuSans-30"/>
       <use xlink:href="#DejaVuSans-2e" x="63.623047"/>
       <use xlink:href="#DejaVuSans-36" x="95.410156"/>
      </g>
     </g>
    </g>
    <g id="ytick_5">
     <g id="line2d_21">
      <path d="M 44.059375 82.798125 
L 735.979375 82.798125 
" clip-path="url(#pad90db8cbd)" style="fill: none; stroke-dasharray: 1.85,0.8; stroke-dashoffset: 0; stroke: #666666; stroke-opacity: 0.4; stroke-width: 0.5"/>
     </g>
     <g id="line2d_22">
      <g>
       <use xlink:href="#m1ab7c48621" x="44.059375" y="82.798125" style="fill-opacity: 0; stroke: #000000; stroke-opacity: 0; stroke-width: 0.8"/>
      </g>
     </g>
     <g id="text_11">
      <!-- 0.8 -->
      <g style="fill: #666666" transform="translate(21.15625 86.597344) scale(0.1 -0.1)">
       <defs>
        <path id="DejaVuSans-38" d="M 2034 2216 
Q 1584 2216 1326 1975 
Q 1069 1734 1069 1313 
Q 1069 891 1326 650 
Q 1584 409 2034 409 
Q 2484 409 2743 651 
Q 3003 894 3003 1313 
Q 3003 1734 2745 1975 
Q 2488 2216 2034 2216 
z
M 1403 2484 
Q 997 2584 770 2862 
Q 544 3141 544 3541 
Q 544 4100 942 4425 
Q 1341 4750 2034 4750 
Q 2731 4750 3128 4425 
Q 3525 4100 3525 3541 
Q 3525 3141 3298 2862 
Q 3072 2584 2669 2484 
Q 3125 2378 3379 2068 
Q 3634 1759 3634 1313 
Q 3634 634 3220 271 
Q 2806 -91 2034 -91 
Q 1263 -91 848 271 
Q 434 634 434 1313 
Q 434 1759 690 2068 
Q 947 2378 1403 2484 
z
M 1172 3481 
Q 1172 3119 1398 2916 
Q 1625 2713 2034 2713 
Q 2441 2713 2670 2916 
Q 2900 3119 2900 3481 
Q 2900 3844 2670 4047 
Q 2441 4250 2034 4250 
Q 1625 4250 1398 4047 
Q 1172 3844 1172 3481 
z
" transform="scale(0.015625)"/>
       </defs>
       <use xlink:href="#DejaVuSans-30"/>
       <use xlink:href="#DejaVuSans-2e" x="63.623047"/>
       <use xlink:href="#DejaVuSans-38" x="95.410156"/>
      </g>
     </g>
    </g>
    <g id="ytick_6">
     <g id="line2d_23">
      <path d="M 44.059375 34.414125 
L 735.979375 34.414125 
" clip-path="url(#pad90db8cbd)" style="fill: none; stroke-dasharray: 1.85,0.8; stroke-dashoffset: 0; stroke: #666666; stroke-opacity: 0.4; stroke-width: 0.5"/>
     </g>
     <g id="line2d_24">
      <g>
       <use xlink:href="#m1ab7c48621" x="44.059375" y="34.414125" style="fill-opacity: 0; stroke: #000000; stroke-opacity: 0; stroke-width: 0.8"/>
      </g>
     </g>
     <g id="text_12">
      <!-- 1.0 -->
      <g style="fill: #666666" transform="translate(21.15625 38.213344) scale(0.1 -0.1)">
       <use xlink:href="#DejaVuSans-31"/>
       <use xlink:href="#DejaVuSans-2e" x="63.623047"/>
       <use xlink:href="#DejaVuSans-30" x="95.410156"/>
      </g>
     </g>
    </g>
    <g id="text_13">
     <!-- acc_mask -->
     <g style="fill: #bdbdbd" transform="translate(14.798437 179.871) rotate(-90) scale(0.1 -0.1)">
      <defs>
       <path id="DejaVuSans-61" d="M 2194 1759 
Q 1497 1759 1228 1600 
Q 959 1441 959 1056 
Q 959 750 1161 570 
Q 1363 391 1709 391 
Q 2188 391 2477 730 
Q 2766 1069 2766 1631 
L 2766 1759 
L 2194 1759 
z
M 3341 1997 
L 3341 0 
L 2766 0 
L 2766 531 
Q 2569 213 2275 61 
Q 1981 -91 1556 -91 
Q 1019 -91 701 211 
Q 384 513 384 1019 
Q 384 1609 779 1909 
Q 1175 2209 1959 2209 
L 2766 2209 
L 2766 2266 
Q 2766 2663 2505 2880 
Q 2244 3097 1772 3097 
Q 1472 3097 1187 3025 
Q 903 2953 641 2809 
L 641 3341 
Q 956 3463 1253 3523 
Q 1550 3584 1831 3584 
Q 2591 3584 2966 3190 
Q 3341 2797 3341 1997 
z
" transform="scale(0.015625)"/>
       <path id="DejaVuSans-63" d="M 3122 3366 
L 3122 2828 
Q 2878 2963 2633 3030 
Q 2388 3097 2138 3097 
Q 1578 3097 1268 2742 
Q 959 2388 959 1747 
Q 959 1106 1268 751 
Q 1578 397 2138 397 
Q 2388 397 2633 464 
Q 2878 531 3122 666 
L 3122 134 
Q 2881 22 2623 -34 
Q 2366 -91 2075 -91 
Q 1284 -91 818 406 
Q 353 903 353 1747 
Q 353 2603 823 3093 
Q 1294 3584 2113 3584 
Q 2378 3584 2631 3529 
Q 2884 3475 3122 3366 
z
" transform="scale(0.015625)"/>
       <path id="DejaVuSans-5f" d="M 3263 -1063 
L 3263 -1509 
L -63 -1509 
L -63 -1063 
L 3263 -1063 
z
" transform="scale(0.015625)"/>
       <path id="DejaVuSans-6d" d="M 3328 2828 
Q 3544 3216 3844 3400 
Q 4144 3584 4550 3584 
Q 5097 3584 5394 3201 
Q 5691 2819 5691 2113 
L 5691 0 
L 5113 0 
L 5113 2094 
Q 5113 2597 4934 2840 
Q 4756 3084 4391 3084 
Q 3944 3084 3684 2787 
Q 3425 2491 3425 1978 
L 3425 0 
L 2847 0 
L 2847 2094 
Q 2847 2600 2669 2842 
Q 2491 3084 2119 3084 
Q 1678 3084 1418 2786 
Q 1159 2488 1159 1978 
L 1159 0 
L 581 0 
L 581 3500 
L 1159 3500 
L 1159 2956 
Q 1356 3278 1631 3431 
Q 1906 3584 2284 3584 
Q 2666 3584 2933 3390 
Q 3200 3197 3328 2828 
z
" transform="scale(0.015625)"/>
       <path id="DejaVuSans-73" d="M 2834 3397 
L 2834 2853 
Q 2591 2978 2328 3040 
Q 2066 3103 1784 3103 
Q 1356 3103 1142 2972 
Q 928 2841 928 2578 
Q 928 2378 1081 2264 
Q 1234 2150 1697 2047 
L 1894 2003 
Q 2506 1872 2764 1633 
Q 3022 1394 3022 966 
Q 3022 478 2636 193 
Q 2250 -91 1575 -91 
Q 1294 -91 989 -36 
Q 684 19 347 128 
L 347 722 
Q 666 556 975 473 
Q 1284 391 1588 391 
Q 1994 391 2212 530 
Q 2431 669 2431 922 
Q 2431 1156 2273 1281 
Q 2116 1406 1581 1522 
L 1381 1569 
Q 847 1681 609 1914 
Q 372 2147 372 2553 
Q 372 3047 722 3315 
Q 1072 3584 1716 3584 
Q 2034 3584 2315 3537 
Q 2597 3491 2834 3397 
z
" transform="scale(0.015625)"/>
       <path id="DejaVuSans-6b" d="M 581 4863 
L 1159 4863 
L 1159 1991 
L 2875 3500 
L 3609 3500 
L 1753 1863 
L 3688 0 
L 2938 0 
L 1159 1709 
L 1159 0 
L 581 0 
L 581 4863 
z
" transform="scale(0.015625)"/>
      </defs>
      <use xlink:href="#DejaVuSans-61"/>
      <use xlink:href="#DejaVuSans-63" x="61.279297"/>
      <use xlink:href="#DejaVuSans-63" x="116.259766"/>
      <use xlink:href="#DejaVuSans-5f" x="171.240234"/>
      <use xlink:href="#DejaVuSans-6d" x="221.240234"/>
      <use xlink:href="#DejaVuSans-61" x="318.652344"/>
      <use xlink:href="#DejaVuSans-73" x="379.931641"/>
      <use xlink:href="#DejaVuSans-6b" x="432.03125"/>
     </g>
    </g>
   </g>
   <g id="line2d_25">
    <path d="M 74.314432 34.414125 
L 100.623177 34.414125 
L 126.931923 34.414125 
L 153.240668 34.414125 
L 179.549413 34.414125 
L 205.858158 34.414125 
L 232.166904 34.414125 
L 258.475649 34.414125 
L 284.784394 34.414125 
L 311.093139 34.414125 
L 337.401885 34.414125 
L 363.71063 34.414125 
L 390.019375 34.414125 
L 416.32812 34.414125 
L 442.636865 34.414125 
L 468.945611 34.414125 
L 495.254356 34.414125 
L 521.563101 34.414125 
L 547.871846 34.414125 
L 574.180592 34.414125 
L 600.489337 34.414125 
L 626.798082 34.414125 
L 653.106827 94.894125 
L 679.415573 34.414125 
" clip-path="url(#pad90db8cbd)" style="fill: none; stroke: #4caf50; stroke-width: 1.5; stroke-linecap: square"/>
    <defs>
     <path id="mc3cbd3a978" d="M 0 1.5 
C 0.397805 1.5 0.77937 1.341951 1.06066 1.06066 
C 1.341951 0.77937 1.5 0.397805 1.5 0 
C 1.5 -0.397805 1.341951 -0.77937 1.06066 -1.06066 
C 0.77937 -1.341951 0.397805 -1.5 0 -1.5 
C -0.397805 -1.5 -0.77937 -1.341951 -1.06066 -1.06066 
C -1.341951 -0.77937 -1.5 -0.397805 -1.5 0 
C -1.5 0.397805 -1.341951 0.77937 -1.06066 1.06066 
C -0.77937 1.341951 -0.397805 1.5 0 1.5 
z
" style="stroke: #4caf50"/>
    </defs>
    <g clip-path="url(#pad90db8cbd)">
     <use xlink:href="#mc3cbd3a978" x="74.314432" y="34.414125" style="fill: #4caf50; stroke: #4caf50"/>
     <use xlink:href="#mc3cbd3a978" x="100.623177" y="34.414125" style="fill: #4caf50; stroke: #4caf50"/>
     <use xlink:href="#mc3cbd3a978" x="126.931923" y="34.414125" style="fill: #4caf50; stroke: #4caf50"/>
     <use xlink:href="#mc3cbd3a978" x="153.240668" y="34.414125" style="fill: #4caf50; stroke: #4caf50"/>
     <use xlink:href="#mc3cbd3a978" x="179.549413" y="34.414125" style="fill: #4caf50; stroke: #4caf50"/>
     <use xlink:href="#mc3cbd3a978" x="205.858158" y="34.414125" style="fill: #4caf50; stroke: #4caf50"/>
     <use xlink:href="#mc3cbd3a978" x="232.166904" y="34.414125" style="fill: #4caf50; stroke: #4caf50"/>
     <use xlink:href="#mc3cbd3a978" x="258.475649" y="34.414125" style="fill: #4caf50; stroke: #4caf50"/>
     <use xlink:href="#mc3cbd3a978" x="284.784394" y="34.414125" style="fill: #4caf50; stroke: #4caf50"/>
     <use xlink:href="#mc3cbd3a978" x="311.093139" y="34.414125" style="fill: #4caf50; stroke: #4caf50"/>
     <use xlink:href="#mc3cbd3a978" x="337.401885" y="34.414125" style="fill: #4caf50; stroke: #4caf50"/>
     <use xlink:href="#mc3cbd3a978" x="363.71063" y="34.414125" style="fill: #4caf50; stroke: #4caf50"/>
     <use xlink:href="#mc3cbd3a978" x="390.019375" y="34.414125" style="fill: #4caf50; stroke: #4caf50"/>
     <use xlink:href="#mc3cbd3a978" x="416.32812" y="34.414125" style="fill: #4caf50; stroke: #4caf50"/>
     <use xlink:href="#mc3cbd3a978" x="442.636865" y="34.414125" style="fill: #4caf50; stroke: #4caf50"/>
     <use xlink:href="#mc3cbd3a978" x="468.945611" y="34.414125" style="fill: #4caf50; stroke: #4caf50"/>
     <use xlink:href="#mc3cbd3a978" x="495.254356" y="34.414125" style="fill: #4caf50; stroke: #4caf50"/>
     <use xlink:href="#mc3cbd3a978" x="521.563101" y="34.414125" style="fill: #4caf50; stroke: #4caf50"/>
     <use xlink:href="#mc3cbd3a978" x="547.871846" y="34.414125" style="fill: #4caf50; stroke: #4caf50"/>
     <use xlink:href="#mc3cbd3a978" x="574.180592" y="34.414125" style="fill: #4caf50; stroke: #4caf50"/>
     <use xlink:href="#mc3cbd3a978" x="600.489337" y="34.414125" style="fill: #4caf50; stroke: #4caf50"/>
     <use xlink:href="#mc3cbd3a978" x="626.798082" y="34.414125" style="fill: #4caf50; stroke: #4caf50"/>
     <use xlink:href="#mc3cbd3a978" x="653.106827" y="94.894125" style="fill: #4caf50; stroke: #4caf50"/>
     <use xlink:href="#mc3cbd3a978" x="679.415573" y="34.414125" style="fill: #4caf50; stroke: #4caf50"/>
    </g>
   </g>
   <g id="line2d_26">
    <path d="M 74.314432 34.414125 
L 100.623177 34.414125 
L 126.931923 34.414125 
L 153.240668 34.414125 
L 179.549413 34.414125 
L 205.858158 34.414125 
L 232.166904 34.414125 
L 258.475649 34.414125 
L 284.784394 34.414125 
L 311.093139 34.414125 
L 337.401885 34.414125 
L 363.71063 34.414125 
L 390.019375 34.414125 
L 416.32812 34.414125 
L 442.636865 34.414125 
L 468.945611 34.414125 
L 495.254356 34.414125 
L 521.563101 34.414125 
L 547.871846 34.414125 
L 574.180592 34.414125 
L 600.489337 34.414125 
L 626.798082 34.414125 
L 653.106827 276.334125 
L 679.415573 34.414125 
" clip-path="url(#pad90db8cbd)" style="fill: none; stroke: #4caf50; stroke-opacity: 0.6; stroke-width: 0.6; stroke-linecap: square"/>
    <defs>
     <path id="m2ab72d9b31" d="M 0 1.5 
C 0.397805 1.5 0.77937 1.341951 1.06066 1.06066 
C 1.341951 0.77937 1.5 0.397805 1.5 0 
C 1.5 -0.397805 1.341951 -0.77937 1.06066 -1.06066 
C 0.77937 -1.341951 0.397805 -1.5 0 -1.5 
C -0.397805 -1.5 -0.77937 -1.341951 -1.06066 -1.06066 
C -1.341951 -0.77937 -1.5 -0.397805 -1.5 0 
C -1.5 0.397805 -1.341951 0.77937 -1.06066 1.06066 
C -0.77937 1.341951 -0.397805 1.5 0 1.5 
z
" style="stroke: #4caf50; stroke-opacity: 0.6"/>
    </defs>
    <g clip-path="url(#pad90db8cbd)">
     <use xlink:href="#m2ab72d9b31" x="74.314432" y="34.414125" style="fill: #4caf50; fill-opacity: 0.6; stroke: #4caf50; stroke-opacity: 0.6"/>
     <use xlink:href="#m2ab72d9b31" x="100.623177" y="34.414125" style="fill: #4caf50; fill-opacity: 0.6; stroke: #4caf50; stroke-opacity: 0.6"/>
     <use xlink:href="#m2ab72d9b31" x="126.931923" y="34.414125" style="fill: #4caf50; fill-opacity: 0.6; stroke: #4caf50; stroke-opacity: 0.6"/>
     <use xlink:href="#m2ab72d9b31" x="153.240668" y="34.414125" style="fill: #4caf50; fill-opacity: 0.6; stroke: #4caf50; stroke-opacity: 0.6"/>
     <use xlink:href="#m2ab72d9b31" x="179.549413" y="34.414125" style="fill: #4caf50; fill-opacity: 0.6; stroke: #4caf50; stroke-opacity: 0.6"/>
     <use xlink:href="#m2ab72d9b31" x="205.858158" y="34.414125" style="fill: #4caf50; fill-opacity: 0.6; stroke: #4caf50; stroke-opacity: 0.6"/>
     <use xlink:href="#m2ab72d9b31" x="232.166904" y="34.414125" style="fill: #4caf50; fill-opacity: 0.6; stroke: #4caf50; stroke-opacity: 0.6"/>
     <use xlink:href="#m2ab72d9b31" x="258.475649" y="34.414125" style="fill: #4caf50; fill-opacity: 0.6; stroke: #4caf50; stroke-opacity: 0.6"/>
     <use xlink:href="#m2ab72d9b31" x="284.784394" y="34.414125" style="fill: #4caf50; fill-opacity: 0.6; stroke: #4caf50; stroke-opacity: 0.6"/>
     <use xlink:href="#m2ab72d9b31" x="311.093139" y="34.414125" style="fill: #4caf50; fill-opacity: 0.6; stroke: #4caf50; stroke-opacity: 0.6"/>
     <use xlink:href="#m2ab72d9b31" x="337.401885" y="34.414125" style="fill: #4caf50; fill-opacity: 0.6; stroke: #4caf50; stroke-opacity: 0.6"/>
     <use xlink:href="#m2ab72d9b31" x="363.71063" y="34.414125" style="fill: #4caf50; fill-opacity: 0.6; stroke: #4caf50; stroke-opacity: 0.6"/>
     <use xlink:href="#m2ab72d9b31" x="390.019375" y="34.414125" style="fill: #4caf50; fill-opacity: 0.6; stroke: #4caf50; stroke-opacity: 0.6"/>
     <use xlink:href="#m2ab72d9b31" x="416.32812" y="34.414125" style="fill: #4caf50; fill-opacity: 0.6; stroke: #4caf50; stroke-opacity: 0.6"/>
     <use xlink:href="#m2ab72d9b31" x="442.636865" y="34.414125" style="fill: #4caf50; fill-opacity: 0.6; stroke: #4caf50; stroke-opacity: 0.6"/>
     <use xlink:href="#m2ab72d9b31" x="468.945611" y="34.414125" style="fill: #4caf50; fill-opacity: 0.6; stroke: #4caf50; stroke-opacity: 0.6"/>
     <use xlink:href="#m2ab72d9b31" x="495.254356" y="34.414125" style="fill: #4caf50; fill-opacity: 0.6; stroke: #4caf50; stroke-opacity: 0.6"/>
     <use xlink:href="#m2ab72d9b31" x="521.563101" y="34.414125" style="fill: #4caf50; fill-opacity: 0.6; stroke: #4caf50; stroke-opacity: 0.6"/>
     <use xlink:href="#m2ab72d9b31" x="547.871846" y="34.414125" style="fill: #4caf50; fill-opacity: 0.6; stroke: #4caf50; stroke-opacity: 0.6"/>
     <use xlink:href="#m2ab72d9b31" x="574.180592" y="34.414125" style="fill: #4caf50; fill-opacity: 0.6; stroke: #4caf50; stroke-opacity: 0.6"/>
     <use xlink:href="#m2ab72d9b31" x="600.489337" y="34.414125" style="fill: #4caf50; fill-opacity: 0.6; stroke: #4caf50; stroke-opacity: 0.6"/>
     <use xlink:href="#m2ab72d9b31" x="626.798082" y="34.414125" style="fill: #4caf50; fill-opacity: 0.6; stroke: #4caf50; stroke-opacity: 0.6"/>
     <use xlink:href="#m2ab72d9b31" x="653.106827" y="276.334125" style="fill: #4caf50; fill-opacity: 0.6; stroke: #4caf50; stroke-opacity: 0.6"/>
     <use xlink:href="#m2ab72d9b31" x="679.415573" y="34.414125" style="fill: #4caf50; fill-opacity: 0.6; stroke: #4caf50; stroke-opacity: 0.6"/>
    </g>
   </g>
   <g id="line2d_27">
    <path d="M 74.314432 34.414125 
L 100.623177 34.414125 
L 126.931923 34.414125 
L 153.240668 34.414125 
L 179.549413 34.414125 
L 205.858158 34.414125 
L 232.166904 34.414125 
L 258.475649 34.414125 
L 284.784394 34.414125 
L 311.093139 34.414125 
L 337.401885 34.414125 
L 363.71063 34.414125 
L 390.019375 34.414125 
L 416.32812 34.414125 
L 442.636865 34.414125 
L 468.945611 34.414125 
L 495.254356 34.414125 
L 521.563101 34.414125 
L 547.871846 34.414125 
L 574.180592 34.414125 
L 600.489337 34.414125 
L 626.798082 34.414125 
L 653.106827 34.414125 
L 679.415573 34.414125 
" clip-path="url(#pad90db8cbd)" style="fill: none; stroke: #4caf50; stroke-opacity: 0.6; stroke-width: 0.6; stroke-linecap: square"/>
    <g clip-path="url(#pad90db8cbd)">
     <use xlink:href="#m2ab72d9b31" x="74.314432" y="34.414125" style="fill: #4caf50; fill-opacity: 0.6; stroke: #4caf50; stroke-opacity: 0.6"/>
     <use xlink:href="#m2ab72d9b31" x="100.623177" y="34.414125" style="fill: #4caf50; fill-opacity: 0.6; stroke: #4caf50; stroke-opacity: 0.6"/>
     <use xlink:href="#m2ab72d9b31" x="126.931923" y="34.414125" style="fill: #4caf50; fill-opacity: 0.6; stroke: #4caf50; stroke-opacity: 0.6"/>
     <use xlink:href="#m2ab72d9b31" x="153.240668" y="34.414125" style="fill: #4caf50; fill-opacity: 0.6; stroke: #4caf50; stroke-opacity: 0.6"/>
     <use xlink:href="#m2ab72d9b31" x="179.549413" y="34.414125" style="fill: #4caf50; fill-opacity: 0.6; stroke: #4caf50; stroke-opacity: 0.6"/>
     <use xlink:href="#m2ab72d9b31" x="205.858158" y="34.414125" style="fill: #4caf50; fill-opacity: 0.6; stroke: #4caf50; stroke-opacity: 0.6"/>
     <use xlink:href="#m2ab72d9b31" x="232.166904" y="34.414125" style="fill: #4caf50; fill-opacity: 0.6; stroke: #4caf50; stroke-opacity: 0.6"/>
     <use xlink:href="#m2ab72d9b31" x="258.475649" y="34.414125" style="fill: #4caf50; fill-opacity: 0.6; stroke: #4caf50; stroke-opacity: 0.6"/>
     <use xlink:href="#m2ab72d9b31" x="284.784394" y="34.414125" style="fill: #4caf50; fill-opacity: 0.6; stroke: #4caf50; stroke-opacity: 0.6"/>
     <use xlink:href="#m2ab72d9b31" x="311.093139" y="34.414125" style="fill: #4caf50; fill-opacity: 0.6; stroke: #4caf50; stroke-opacity: 0.6"/>
     <use xlink:href="#m2ab72d9b31" x="337.401885" y="34.414125" style="fill: #4caf50; fill-opacity: 0.6; stroke: #4caf50; stroke-opacity: 0.6"/>
     <use xlink:href="#m2ab72d9b31" x="363.71063" y="34.414125" style="fill: #4caf50; fill-opacity: 0.6; stroke: #4caf50; stroke-opacity: 0.6"/>
     <use xlink:href="#m2ab72d9b31" x="390.019375" y="34.414125" style="fill: #4caf50; fill-opacity: 0.6; stroke: #4caf50; stroke-opacity: 0.6"/>
     <use xlink:href="#m2ab72d9b31" x="416.32812" y="34.414125" style="fill: #4caf50; fill-opacity: 0.6; stroke: #4caf50; stroke-opacity: 0.6"/>
     <use xlink:href="#m2ab72d9b31" x="442.636865" y="34.414125" style="fill: #4caf50; fill-opacity: 0.6; stroke: #4caf50; stroke-opacity: 0.6"/>
     <use xlink:href="#m2ab72d9b31" x="468.945611" y="34.414125" style="fill: #4caf50; fill-opacity: 0.6; stroke: #4caf50; stroke-opacity: 0.6"/>
     <use xlink:href="#m2ab72d9b31" x="495.254356" y="34.414125" style="fill: #4caf50; fill-opacity: 0.6; stroke: #4caf50; stroke-opacity: 0.6"/>
     <use xlink:href="#m2ab72d9b31" x="521.563101" y="34.414125" style="fill: #4caf50; fill-opacity: 0.6; stroke: #4caf50; stroke-opacity: 0.6"/>
     <use xlink:href="#m2ab72d9b31" x="547.871846" y="34.414125" style="fill: #4caf50; fill-opacity: 0.6; stroke: #4caf50; stroke-opacity: 0.6"/>
     <use xlink:href="#m2ab72d9b31" x="574.180592" y="34.414125" style="fill: #4caf50; fill-opacity: 0.6; stroke: #4caf50; stroke-opacity: 0.6"/>
     <use xlink:href="#m2ab72d9b31" x="600.489337" y="34.414125" style="fill: #4caf50; fill-opacity: 0.6; stroke: #4caf50; stroke-opacity: 0.6"/>
     <use xlink:href="#m2ab72d9b31" x="626.798082" y="34.414125" style="fill: #4caf50; fill-opacity: 0.6; stroke: #4caf50; stroke-opacity: 0.6"/>
     <use xlink:href="#m2ab72d9b31" x="653.106827" y="34.414125" style="fill: #4caf50; fill-opacity: 0.6; stroke: #4caf50; stroke-opacity: 0.6"/>
     <use xlink:href="#m2ab72d9b31" x="679.415573" y="34.414125" style="fill: #4caf50; fill-opacity: 0.6; stroke: #4caf50; stroke-opacity: 0.6"/>
    </g>
   </g>
   <g id="line2d_28">
    <path d="M 74.314432 34.414125 
L 100.623177 34.414125 
L 126.931923 34.414125 
L 153.240668 34.414125 
L 179.549413 34.414125 
L 205.858158 34.414125 
L 232.166904 34.414125 
L 258.475649 34.414125 
L 284.784394 34.414125 
L 311.093139 34.414125 
L 337.401885 34.414125 
L 363.71063 34.414125 
L 390.019375 34.414125 
L 416.32812 34.414125 
L 442.636865 34.414125 
L 468.945611 34.414125 
L 495.254356 34.414125 
L 521.563101 34.414125 
L 547.871846 34.414125 
L 574.180592 34.414125 
L 600.489337 34.414125 
L 626.798082 34.414125 
L 653.106827 34.414125 
L 679.415573 34.414125 
" clip-path="url(#pad90db8cbd)" style="fill: none; stroke: #4caf50; stroke-opacity: 0.6; stroke-width: 0.6; stroke-linecap: square"/>
    <g clip-path="url(#pad90db8cbd)">
     <use xlink:href="#m2ab72d9b31" x="74.314432" y="34.414125" style="fill: #4caf50; fill-opacity: 0.6; stroke: #4caf50; stroke-opacity: 0.6"/>
     <use xlink:href="#m2ab72d9b31" x="100.623177" y="34.414125" style="fill: #4caf50; fill-opacity: 0.6; stroke: #4caf50; stroke-opacity: 0.6"/>
     <use xlink:href="#m2ab72d9b31" x="126.931923" y="34.414125" style="fill: #4caf50; fill-opacity: 0.6; stroke: #4caf50; stroke-opacity: 0.6"/>
     <use xlink:href="#m2ab72d9b31" x="153.240668" y="34.414125" style="fill: #4caf50; fill-opacity: 0.6; stroke: #4caf50; stroke-opacity: 0.6"/>
     <use xlink:href="#m2ab72d9b31" x="179.549413" y="34.414125" style="fill: #4caf50; fill-opacity: 0.6; stroke: #4caf50; stroke-opacity: 0.6"/>
     <use xlink:href="#m2ab72d9b31" x="205.858158" y="34.414125" style="fill: #4caf50; fill-opacity: 0.6; stroke: #4caf50; stroke-opacity: 0.6"/>
     <use xlink:href="#m2ab72d9b31" x="232.166904" y="34.414125" style="fill: #4caf50; fill-opacity: 0.6; stroke: #4caf50; stroke-opacity: 0.6"/>
     <use xlink:href="#m2ab72d9b31" x="258.475649" y="34.414125" style="fill: #4caf50; fill-opacity: 0.6; stroke: #4caf50; stroke-opacity: 0.6"/>
     <use xlink:href="#m2ab72d9b31" x="284.784394" y="34.414125" style="fill: #4caf50; fill-opacity: 0.6; stroke: #4caf50; stroke-opacity: 0.6"/>
     <use xlink:href="#m2ab72d9b31" x="311.093139" y="34.414125" style="fill: #4caf50; fill-opacity: 0.6; stroke: #4caf50; stroke-opacity: 0.6"/>
     <use xlink:href="#m2ab72d9b31" x="337.401885" y="34.414125" style="fill: #4caf50; fill-opacity: 0.6; stroke: #4caf50; stroke-opacity: 0.6"/>
     <use xlink:href="#m2ab72d9b31" x="363.71063" y="34.414125" style="fill: #4caf50; fill-opacity: 0.6; stroke: #4caf50; stroke-opacity: 0.6"/>
     <use xlink:href="#m2ab72d9b31" x="390.019375" y="34.414125" style="fill: #4caf50; fill-opacity: 0.6; stroke: #4caf50; stroke-opacity: 0.6"/>
     <use xlink:href="#m2ab72d9b31" x="416.32812" y="34.414125" style="fill: #4caf50; fill-opacity: 0.6; stroke: #4caf50; stroke-opacity: 0.6"/>
     <use xlink:href="#m2ab72d9b31" x="442.636865" y="34.414125" style="fill: #4caf50; fill-opacity: 0.6; stroke: #4caf50; stroke-opacity: 0.6"/>
     <use xlink:href="#m2ab72d9b31" x="468.945611" y="34.414125" style="fill: #4caf50; fill-opacity: 0.6; stroke: #4caf50; stroke-opacity: 0.6"/>
     <use xlink:href="#m2ab72d9b31" x="495.254356" y="34.414125" style="fill: #4caf50; fill-opacity: 0.6; stroke: #4caf50; stroke-opacity: 0.6"/>
     <use xlink:href="#m2ab72d9b31" x="521.563101" y="34.414125" style="fill: #4caf50; fill-opacity: 0.6; stroke: #4caf50; stroke-opacity: 0.6"/>
     <use xlink:href="#m2ab72d9b31" x="547.871846" y="34.414125" style="fill: #4caf50; fill-opacity: 0.6; stroke: #4caf50; stroke-opacity: 0.6"/>
     <use xlink:href="#m2ab72d9b31" x="574.180592" y="34.414125" style="fill: #4caf50; fill-opacity: 0.6; stroke: #4caf50; stroke-opacity: 0.6"/>
     <use xlink:href="#m2ab72d9b31" x="600.489337" y="34.414125" style="fill: #4caf50; fill-opacity: 0.6; stroke: #4caf50; stroke-opacity: 0.6"/>
     <use xlink:href="#m2ab72d9b31" x="626.798082" y="34.414125" style="fill: #4caf50; fill-opacity: 0.6; stroke: #4caf50; stroke-opacity: 0.6"/>
     <use xlink:href="#m2ab72d9b31" x="653.106827" y="34.414125" style="fill: #4caf50; fill-opacity: 0.6; stroke: #4caf50; stroke-opacity: 0.6"/>
     <use xlink:href="#m2ab72d9b31" x="679.415573" y="34.414125" style="fill: #4caf50; fill-opacity: 0.6; stroke: #4caf50; stroke-opacity: 0.6"/>
    </g>
   </g>
   <g id="line2d_29">
    <path d="M 74.314432 34.414125 
L 100.623177 34.414125 
L 126.931923 34.414125 
L 153.240668 34.414125 
L 179.549413 34.414125 
L 205.858158 34.414125 
L 232.166904 34.414125 
L 258.475649 34.414125 
L 284.784394 34.414125 
L 311.093139 34.414125 
L 337.401885 34.414125 
L 363.71063 34.414125 
L 390.019375 34.414125 
L 416.32812 34.414125 
L 442.636865 34.414125 
L 468.945611 34.414125 
L 495.254356 34.414125 
L 521.563101 34.414125 
L 547.871846 34.414125 
L 574.180592 34.414125 
L 600.489337 34.414125 
L 626.798082 34.414125 
L 653.106827 34.414125 
L 679.415573 34.414125 
" clip-path="url(#pad90db8cbd)" style="fill: none; stroke: #4caf50; stroke-opacity: 0.6; stroke-width: 0.6; stroke-linecap: square"/>
    <g clip-path="url(#pad90db8cbd)">
     <use xlink:href="#m2ab72d9b31" x="74.314432" y="34.414125" style="fill: #4caf50; fill-opacity: 0.6; stroke: #4caf50; stroke-opacity: 0.6"/>
     <use xlink:href="#m2ab72d9b31" x="100.623177" y="34.414125" style="fill: #4caf50; fill-opacity: 0.6; stroke: #4caf50; stroke-opacity: 0.6"/>
     <use xlink:href="#m2ab72d9b31" x="126.931923" y="34.414125" style="fill: #4caf50; fill-opacity: 0.6; stroke: #4caf50; stroke-opacity: 0.6"/>
     <use xlink:href="#m2ab72d9b31" x="153.240668" y="34.414125" style="fill: #4caf50; fill-opacity: 0.6; stroke: #4caf50; stroke-opacity: 0.6"/>
     <use xlink:href="#m2ab72d9b31" x="179.549413" y="34.414125" style="fill: #4caf50; fill-opacity: 0.6; stroke: #4caf50; stroke-opacity: 0.6"/>
     <use xlink:href="#m2ab72d9b31" x="205.858158" y="34.414125" style="fill: #4caf50; fill-opacity: 0.6; stroke: #4caf50; stroke-opacity: 0.6"/>
     <use xlink:href="#m2ab72d9b31" x="232.166904" y="34.414125" style="fill: #4caf50; fill-opacity: 0.6; stroke: #4caf50; stroke-opacity: 0.6"/>
     <use xlink:href="#m2ab72d9b31" x="258.475649" y="34.414125" style="fill: #4caf50; fill-opacity: 0.6; stroke: #4caf50; stroke-opacity: 0.6"/>
     <use xlink:href="#m2ab72d9b31" x="284.784394" y="34.414125" style="fill: #4caf50; fill-opacity: 0.6; stroke: #4caf50; stroke-opacity: 0.6"/>
     <use xlink:href="#m2ab72d9b31" x="311.093139" y="34.414125" style="fill: #4caf50; fill-opacity: 0.6; stroke: #4caf50; stroke-opacity: 0.6"/>
     <use xlink:href="#m2ab72d9b31" x="337.401885" y="34.414125" style="fill: #4caf50; fill-opacity: 0.6; stroke: #4caf50; stroke-opacity: 0.6"/>
     <use xlink:href="#m2ab72d9b31" x="363.71063" y="34.414125" style="fill: #4caf50; fill-opacity: 0.6; stroke: #4caf50; stroke-opacity: 0.6"/>
     <use xlink:href="#m2ab72d9b31" x="390.019375" y="34.414125" style="fill: #4caf50; fill-opacity: 0.6; stroke: #4caf50; stroke-opacity: 0.6"/>
     <use xlink:href="#m2ab72d9b31" x="416.32812" y="34.414125" style="fill: #4caf50; fill-opacity: 0.6; stroke: #4caf50; stroke-opacity: 0.6"/>
     <use xlink:href="#m2ab72d9b31" x="442.636865" y="34.414125" style="fill: #4caf50; fill-opacity: 0.6; stroke: #4caf50; stroke-opacity: 0.6"/>
     <use xlink:href="#m2ab72d9b31" x="468.945611" y="34.414125" style="fill: #4caf50; fill-opacity: 0.6; stroke: #4caf50; stroke-opacity: 0.6"/>
     <use xlink:href="#m2ab72d9b31" x="495.254356" y="34.414125" style="fill: #4caf50; fill-opacity: 0.6; stroke: #4caf50; stroke-opacity: 0.6"/>
     <use xlink:href="#m2ab72d9b31" x="521.563101" y="34.414125" style="fill: #4caf50; fill-opacity: 0.6; stroke: #4caf50; stroke-opacity: 0.6"/>
     <use xlink:href="#m2ab72d9b31" x="547.871846" y="34.414125" style="fill: #4caf50; fill-opacity: 0.6; stroke: #4caf50; stroke-opacity: 0.6"/>
     <use xlink:href="#m2ab72d9b31" x="574.180592" y="34.414125" style="fill: #4caf50; fill-opacity: 0.6; stroke: #4caf50; stroke-opacity: 0.6"/>
     <use xlink:href="#m2ab72d9b31" x="600.489337" y="34.414125" style="fill: #4caf50; fill-opacity: 0.6; stroke: #4caf50; stroke-opacity: 0.6"/>
     <use xlink:href="#m2ab72d9b31" x="626.798082" y="34.414125" style="fill: #4caf50; fill-opacity: 0.6; stroke: #4caf50; stroke-opacity: 0.6"/>
     <use xlink:href="#m2ab72d9b31" x="653.106827" y="34.414125" style="fill: #4caf50; fill-opacity: 0.6; stroke: #4caf50; stroke-opacity: 0.6"/>
     <use xlink:href="#m2ab72d9b31" x="679.415573" y="34.414125" style="fill: #4caf50; fill-opacity: 0.6; stroke: #4caf50; stroke-opacity: 0.6"/>
    </g>
   </g>
   <g id="patch_3">
    <path d="M 44.059375 288.430125 
L 44.059375 22.318125 
" style="fill: none"/>
   </g>
   <g id="patch_4">
    <path d="M 735.979375 288.430125 
L 735.979375 22.318125 
" style="fill: none"/>
   </g>
   <g id="patch_5">
    <path d="M 44.059375 288.430125 
L 735.979375 288.430125 
" style="fill: none"/>
   </g>
   <g id="patch_6">
    <path d="M 44.059375 22.318125 
L 735.979375 22.318125 
" style="fill: none"/>
   </g>
   <g id="text_14">
    <!-- HMC -->
    <g style="fill: #666666" transform="translate(376.140625 16.318125) scale(0.12 -0.12)">
     <defs>
      <path id="DejaVuSans-48" d="M 628 4666 
L 1259 4666 
L 1259 2753 
L 3553 2753 
L 3553 4666 
L 4184 4666 
L 4184 0 
L 3553 0 
L 3553 2222 
L 1259 2222 
L 1259 0 
L 628 0 
L 628 4666 
z
" transform="scale(0.015625)"/>
      <path id="DejaVuSans-4d" d="M 628 4666 
L 1569 4666 
L 2759 1491 
L 3956 4666 
L 4897 4666 
L 4897 0 
L 4281 0 
L 4281 4097 
L 3078 897 
L 2444 897 
L 1241 4097 
L 1241 0 
L 628 0 
L 628 4666 
z
" transform="scale(0.015625)"/>
      <path id="DejaVuSans-43" d="M 4122 4306 
L 4122 3641 
Q 3803 3938 3442 4084 
Q 3081 4231 2675 4231 
Q 1875 4231 1450 3742 
Q 1025 3253 1025 2328 
Q 1025 1406 1450 917 
Q 1875 428 2675 428 
Q 3081 428 3442 575 
Q 3803 722 4122 1019 
L 4122 359 
Q 3791 134 3420 21 
Q 3050 -91 2638 -91 
Q 1578 -91 968 557 
Q 359 1206 359 2328 
Q 359 3453 968 4101 
Q 1578 4750 2638 4750 
Q 3056 4750 3426 4639 
Q 3797 4528 4122 4306 
z
" transform="scale(0.015625)"/>
     </defs>
     <use xlink:href="#DejaVuSans-48"/>
     <use xlink:href="#DejaVuSans-4d" x="75.195312"/>
     <use xlink:href="#DejaVuSans-43" x="161.474609"/>
    </g>
   </g>
  </g>
 </g>
 <defs>
  <clipPath id="pad90db8cbd">
   <rect x="44.059375" y="22.318125" width="691.92" height="266.112"/>
  </clipPath>
 </defs>
</svg>
