<?xml version="1.0" encoding="utf-8" standalone="no"?>
<!DOCTYPE svg PUBLIC "-//W3C//DTD SVG 1.1//EN"
  "http://www.w3.org/Graphics/SVG/1.1/DTD/svg11.dtd">
<svg xmlns:xlink="http://www.w3.org/1999/xlink" width="755.585994pt" height="312.30825pt" viewBox="0 0 755.585994 312.30825" xmlns="http://www.w3.org/2000/svg" version="1.1">
 <metadata>
  <rdf:RDF xmlns:dc="http://purl.org/dc/elements/1.1/" xmlns:cc="http://creativecommons.org/ns#" xmlns:rdf="http://www.w3.org/1999/02/22-rdf-syntax-ns#">
   <cc:Work>
    <dc:type rdf:resource="http://purl.org/dc/dcmitype/StillImage"/>
    <dc:date>2023-07-10T07:57:40.554455</dc:date>
    <dc:format>image/svg+xml</dc:format>
    <dc:creator>
     <cc:Agent>
      <dc:title>Matplotlib v3.7.1, https://matplotlib.org/</dc:title>
     </cc:Agent>
    </dc:creator>
   </cc:Work>
  </rdf:RDF>
 </metadata>
 <defs>
  <style type="text/css">*{stroke-linejoin: round; stroke-linecap: butt}</style>
 </defs>
 <g id="figure_1">
  <g id="patch_1">
   <path d="M 0 312.30825 
L 755.585994 312.30825 
L 755.585994 0 
L 0 0 
L 0 312.30825 
z
" style="fill: none"/>
  </g>
  <g id="axes_1">
   <g id="patch_2">
    <path d="M 55.345313 288.430125 
L 747.265313 288.430125 
L 747.265313 22.318125 
L 55.345313 22.318125 
L 55.345313 288.430125 
z
" style="fill: none"/>
   </g>
   <g id="matplotlib.axis_1">
    <g id="xtick_1">
     <g id="line2d_1">
      <path d="M 86.796222 288.430125 
L 86.796222 22.318125 
" clip-path="url(#p813b73b8d0)" style="fill: none; stroke-dasharray: 1.85,0.8; stroke-dashoffset: 0; stroke: #666666; stroke-opacity: 0.4; stroke-width: 0.5"/>
     </g>
     <g id="line2d_2">
      <defs>
       <path id="m6ec51092c3" d="M 0 0 
L 0 3.5 
" style="stroke: #000000; stroke-opacity: 0; stroke-width: 0.8"/>
      </defs>
      <g>
       <use xlink:href="#m6ec51092c3" x="86.796222" y="288.430125" style="fill-opacity: 0; stroke: #000000; stroke-opacity: 0; stroke-width: 0.8"/>
      </g>
     </g>
     <g id="text_1">
      <!-- 0 -->
      <g style="fill: #666666" transform="translate(83.614972 303.028562) scale(0.1 -0.1)">
       <defs>
        <path id="DejaVuSans-30" d="M 2034 4250 
Q 1547 4250 1301 3770 
Q 1056 3291 1056 2328 
Q 1056 1369 1301 889 
Q 1547 409 2034 409 
Q 2525 409 2770 889 
Q 3016 1369 3016 2328 
Q 3016 3291 2770 3770 
Q 2525 4250 2034 4250 
z
M 2034 4750 
Q 2819 4750 3233 4129 
Q 3647 3509 3647 2328 
Q 3647 1150 3233 529 
Q 2819 -91 2034 -91 
Q 1250 -91 836 529 
Q 422 1150 422 2328 
Q 422 3509 836 4129 
Q 1250 4750 2034 4750 
z
" transform="scale(0.015625)"/>
       </defs>
       <use xlink:href="#DejaVuSans-30"/>
      </g>
     </g>
    </g>
    <g id="xtick_2">
     <g id="line2d_3">
      <path d="M 217.841676 288.430125 
L 217.841676 22.318125 
" clip-path="url(#p813b73b8d0)" style="fill: none; stroke-dasharray: 1.85,0.8; stroke-dashoffset: 0; stroke: #666666; stroke-opacity: 0.4; stroke-width: 0.5"/>
     </g>
     <g id="line2d_4">
      <g>
       <use xlink:href="#m6ec51092c3" x="217.841676" y="288.430125" style="fill-opacity: 0; stroke: #000000; stroke-opacity: 0; stroke-width: 0.8"/>
      </g>
     </g>
     <g id="text_2">
      <!-- 10 -->
      <g style="fill: #666666" transform="translate(211.479176 303.028562) scale(0.1 -0.1)">
       <defs>
        <path id="DejaVuSans-31" d="M 794 531 
L 1825 531 
L 1825 4091 
L 703 3866 
L 703 4441 
L 1819 4666 
L 2450 4666 
L 2450 531 
L 3481 531 
L 3481 0 
L 794 0 
L 794 531 
z
" transform="scale(0.015625)"/>
       </defs>
       <use xlink:href="#DejaVuSans-31"/>
       <use xlink:href="#DejaVuSans-30" x="63.623047"/>
      </g>
     </g>
    </g>
    <g id="xtick_3">
     <g id="line2d_5">
      <path d="M 348.887131 288.430125 
L 348.887131 22.318125 
" clip-path="url(#p813b73b8d0)" style="fill: none; stroke-dasharray: 1.85,0.8; stroke-dashoffset: 0; stroke: #666666; stroke-opacity: 0.4; stroke-width: 0.5"/>
     </g>
     <g id="line2d_6">
      <g>
       <use xlink:href="#m6ec51092c3" x="348.887131" y="288.430125" style="fill-opacity: 0; stroke: #000000; stroke-opacity: 0; stroke-width: 0.8"/>
      </g>
     </g>
     <g id="text_3">
      <!-- 20 -->
      <g style="fill: #666666" transform="translate(342.524631 303.028562) scale(0.1 -0.1)">
       <defs>
        <path id="DejaVuSans-32" d="M 1228 531 
L 3431 531 
L 3431 0 
L 469 0 
L 469 531 
Q 828 903 1448 1529 
Q 2069 2156 2228 2338 
Q 2531 2678 2651 2914 
Q 2772 3150 2772 3378 
Q 2772 3750 2511 3984 
Q 2250 4219 1831 4219 
Q 1534 4219 1204 4116 
Q 875 4013 500 3803 
L 500 4441 
Q 881 4594 1212 4672 
Q 1544 4750 1819 4750 
Q 2544 4750 2975 4387 
Q 3406 4025 3406 3419 
Q 3406 3131 3298 2873 
Q 3191 2616 2906 2266 
Q 2828 2175 2409 1742 
Q 1991 1309 1228 531 
z
" transform="scale(0.015625)"/>
       </defs>
       <use xlink:href="#DejaVuSans-32"/>
       <use xlink:href="#DejaVuSans-30" x="63.623047"/>
      </g>
     </g>
    </g>
    <g id="xtick_4">
     <g id="line2d_7">
      <path d="M 479.932585 288.430125 
L 479.932585 22.318125 
" clip-path="url(#p813b73b8d0)" style="fill: none; stroke-dasharray: 1.85,0.8; stroke-dashoffset: 0; stroke: #666666; stroke-opacity: 0.4; stroke-width: 0.5"/>
     </g>
     <g id="line2d_8">
      <g>
       <use xlink:href="#m6ec51092c3" x="479.932585" y="288.430125" style="fill-opacity: 0; stroke: #000000; stroke-opacity: 0; stroke-width: 0.8"/>
      </g>
     </g>
     <g id="text_4">
      <!-- 30 -->
      <g style="fill: #666666" transform="translate(473.570085 303.028562) scale(0.1 -0.1)">
       <defs>
        <path id="DejaVuSans-33" d="M 2597 2516 
Q 3050 2419 3304 2112 
Q 3559 1806 3559 1356 
Q 3559 666 3084 287 
Q 2609 -91 1734 -91 
Q 1441 -91 1130 -33 
Q 819 25 488 141 
L 488 750 
Q 750 597 1062 519 
Q 1375 441 1716 441 
Q 2309 441 2620 675 
Q 2931 909 2931 1356 
Q 2931 1769 2642 2001 
Q 2353 2234 1838 2234 
L 1294 2234 
L 1294 2753 
L 1863 2753 
Q 2328 2753 2575 2939 
Q 2822 3125 2822 3475 
Q 2822 3834 2567 4026 
Q 2313 4219 1838 4219 
Q 1578 4219 1281 4162 
Q 984 4106 628 3988 
L 628 4550 
Q 988 4650 1302 4700 
Q 1616 4750 1894 4750 
Q 2613 4750 3031 4423 
Q 3450 4097 3450 3541 
Q 3450 3153 3228 2886 
Q 3006 2619 2597 2516 
z
" transform="scale(0.015625)"/>
       </defs>
       <use xlink:href="#DejaVuSans-33"/>
       <use xlink:href="#DejaVuSans-30" x="63.623047"/>
      </g>
     </g>
    </g>
    <g id="xtick_5">
     <g id="line2d_9">
      <path d="M 610.97804 288.430125 
L 610.97804 22.318125 
" clip-path="url(#p813b73b8d0)" style="fill: none; stroke-dasharray: 1.85,0.8; stroke-dashoffset: 0; stroke: #666666; stroke-opacity: 0.4; stroke-width: 0.5"/>
     </g>
     <g id="line2d_10">
      <g>
       <use xlink:href="#m6ec51092c3" x="610.97804" y="288.430125" style="fill-opacity: 0; stroke: #000000; stroke-opacity: 0; stroke-width: 0.8"/>
      </g>
     </g>
     <g id="text_5">
      <!-- 40 -->
      <g style="fill: #666666" transform="translate(604.61554 303.028562) scale(0.1 -0.1)">
       <defs>
        <path id="DejaVuSans-34" d="M 2419 4116 
L 825 1625 
L 2419 1625 
L 2419 4116 
z
M 2253 4666 
L 3047 4666 
L 3047 1625 
L 3713 1625 
L 3713 1100 
L 3047 1100 
L 3047 0 
L 2419 0 
L 2419 1100 
L 313 1100 
L 313 1709 
L 2253 4666 
z
" transform="scale(0.015625)"/>
       </defs>
       <use xlink:href="#DejaVuSans-34"/>
       <use xlink:href="#DejaVuSans-30" x="63.623047"/>
      </g>
     </g>
    </g>
    <g id="xtick_6">
     <g id="line2d_11">
      <path d="M 742.023494 288.430125 
L 742.023494 22.318125 
" clip-path="url(#p813b73b8d0)" style="fill: none; stroke-dasharray: 1.85,0.8; stroke-dashoffset: 0; stroke: #666666; stroke-opacity: 0.4; stroke-width: 0.5"/>
     </g>
     <g id="line2d_12">
      <g>
       <use xlink:href="#m6ec51092c3" x="742.023494" y="288.430125" style="fill-opacity: 0; stroke: #000000; stroke-opacity: 0; stroke-width: 0.8"/>
      </g>
     </g>
     <g id="text_6">
      <!-- 50 -->
      <g style="fill: #666666" transform="translate(735.660994 303.028562) scale(0.1 -0.1)">
       <defs>
        <path id="DejaVuSans-35" d="M 691 4666 
L 3169 4666 
L 3169 4134 
L 1269 4134 
L 1269 2991 
Q 1406 3038 1543 3061 
Q 1681 3084 1819 3084 
Q 2600 3084 3056 2656 
Q 3513 2228 3513 1497 
Q 3513 744 3044 326 
Q 2575 -91 1722 -91 
Q 1428 -91 1123 -41 
Q 819 9 494 109 
L 494 744 
Q 775 591 1075 516 
Q 1375 441 1709 441 
Q 2250 441 2565 725 
Q 2881 1009 2881 1497 
Q 2881 1984 2565 2268 
Q 2250 2553 1709 2553 
Q 1456 2553 1204 2497 
Q 953 2441 691 2322 
L 691 4666 
z
" transform="scale(0.015625)"/>
       </defs>
       <use xlink:href="#DejaVuSans-35"/>
       <use xlink:href="#DejaVuSans-30" x="63.623047"/>
      </g>
     </g>
    </g>
   </g>
   <g id="matplotlib.axis_2">
    <g id="ytick_1">
     <g id="line2d_13">
      <path d="M 55.345313 249.464793 
L 747.265313 249.464793 
" clip-path="url(#p813b73b8d0)" style="fill: none; stroke-dasharray: 1.85,0.8; stroke-dashoffset: 0; stroke: #666666; stroke-opacity: 0.4; stroke-width: 0.5"/>
     </g>
     <g id="line2d_14">
      <defs>
       <path id="ma9d9fafcec" d="M 0 0 
L -3.5 0 
" style="stroke: #000000; stroke-opacity: 0; stroke-width: 0.8"/>
      </defs>
      <g>
       <use xlink:href="#ma9d9fafcec" x="55.345313" y="249.464793" style="fill-opacity: 0; stroke: #000000; stroke-opacity: 0; stroke-width: 0.8"/>
      </g>
     </g>
     <g id="text_7">
      <!-- −150 -->
      <g style="fill: #666666" transform="translate(20.878125 253.264011) scale(0.1 -0.1)">
       <defs>
        <path id="DejaVuSans-2212" d="M 678 2272 
L 4684 2272 
L 4684 1741 
L 678 1741 
L 678 2272 
z
" transform="scale(0.015625)"/>
       </defs>
       <use xlink:href="#DejaVuSans-2212"/>
       <use xlink:href="#DejaVuSans-31" x="83.789062"/>
       <use xlink:href="#DejaVuSans-35" x="147.412109"/>
       <use xlink:href="#DejaVuSans-30" x="211.035156"/>
      </g>
     </g>
    </g>
    <g id="ytick_2">
     <g id="line2d_15">
      <path d="M 55.345313 204.478235 
L 747.265313 204.478235 
" clip-path="url(#p813b73b8d0)" style="fill: none; stroke-dasharray: 1.85,0.8; stroke-dashoffset: 0; stroke: #666666; stroke-opacity: 0.4; stroke-width: 0.5"/>
     </g>
     <g id="line2d_16">
      <g>
       <use xlink:href="#ma9d9fafcec" x="55.345313" y="204.478235" style="fill-opacity: 0; stroke: #000000; stroke-opacity: 0; stroke-width: 0.8"/>
      </g>
     </g>
     <g id="text_8">
      <!-- −100 -->
      <g style="fill: #666666" transform="translate(20.878125 208.277454) scale(0.1 -0.1)">
       <use xlink:href="#DejaVuSans-2212"/>
       <use xlink:href="#DejaVuSans-31" x="83.789062"/>
       <use xlink:href="#DejaVuSans-30" x="147.412109"/>
       <use xlink:href="#DejaVuSans-30" x="211.035156"/>
      </g>
     </g>
    </g>
    <g id="ytick_3">
     <g id="line2d_17">
      <path d="M 55.345313 159.491678 
L 747.265313 159.491678 
" clip-path="url(#p813b73b8d0)" style="fill: none; stroke-dasharray: 1.85,0.8; stroke-dashoffset: 0; stroke: #666666; stroke-opacity: 0.4; stroke-width: 0.5"/>
     </g>
     <g id="line2d_18">
      <g>
       <use xlink:href="#ma9d9fafcec" x="55.345313" y="159.491678" style="fill-opacity: 0; stroke: #000000; stroke-opacity: 0; stroke-width: 0.8"/>
      </g>
     </g>
     <g id="text_9">
      <!-- −50 -->
      <g style="fill: #666666" transform="translate(27.240625 163.290896) scale(0.1 -0.1)">
       <use xlink:href="#DejaVuSans-2212"/>
       <use xlink:href="#DejaVuSans-35" x="83.789062"/>
       <use xlink:href="#DejaVuSans-30" x="147.412109"/>
      </g>
     </g>
    </g>
    <g id="ytick_4">
     <g id="line2d_19">
      <path d="M 55.345313 114.50512 
L 747.265313 114.50512 
" clip-path="url(#p813b73b8d0)" style="fill: none; stroke-dasharray: 1.85,0.8; stroke-dashoffset: 0; stroke: #666666; stroke-opacity: 0.4; stroke-width: 0.5"/>
     </g>
     <g id="line2d_20">
      <g>
       <use xlink:href="#ma9d9fafcec" x="55.345313" y="114.50512" style="fill-opacity: 0; stroke: #000000; stroke-opacity: 0; stroke-width: 0.8"/>
      </g>
     </g>
     <g id="text_10">
      <!-- 0 -->
      <g style="fill: #666666" transform="translate(41.982813 118.304339) scale(0.1 -0.1)">
       <use xlink:href="#DejaVuSans-30"/>
      </g>
     </g>
    </g>
    <g id="ytick_5">
     <g id="line2d_21">
      <path d="M 55.345313 69.518563 
L 747.265313 69.518563 
" clip-path="url(#p813b73b8d0)" style="fill: none; stroke-dasharray: 1.85,0.8; stroke-dashoffset: 0; stroke: #666666; stroke-opacity: 0.4; stroke-width: 0.5"/>
     </g>
     <g id="line2d_22">
      <g>
       <use xlink:href="#ma9d9fafcec" x="55.345313" y="69.518563" style="fill-opacity: 0; stroke: #000000; stroke-opacity: 0; stroke-width: 0.8"/>
      </g>
     </g>
     <g id="text_11">
      <!-- 50 -->
      <g style="fill: #666666" transform="translate(35.620313 73.317782) scale(0.1 -0.1)">
       <use xlink:href="#DejaVuSans-35"/>
       <use xlink:href="#DejaVuSans-30" x="63.623047"/>
      </g>
     </g>
    </g>
    <g id="ytick_6">
     <g id="line2d_23">
      <path d="M 55.345313 24.532006 
L 747.265313 24.532006 
" clip-path="url(#p813b73b8d0)" style="fill: none; stroke-dasharray: 1.85,0.8; stroke-dashoffset: 0; stroke: #666666; stroke-opacity: 0.4; stroke-width: 0.5"/>
     </g>
     <g id="line2d_24">
      <g>
       <use xlink:href="#ma9d9fafcec" x="55.345313" y="24.532006" style="fill-opacity: 0; stroke: #000000; stroke-opacity: 0; stroke-width: 0.8"/>
      </g>
     </g>
     <g id="text_12">
      <!-- 100 -->
      <g style="fill: #666666" transform="translate(29.257813 28.331224) scale(0.1 -0.1)">
       <use xlink:href="#DejaVuSans-31"/>
       <use xlink:href="#DejaVuSans-30" x="63.623047"/>
       <use xlink:href="#DejaVuSans-30" x="127.246094"/>
      </g>
     </g>
    </g>
    <g id="text_13">
     <!-- logprob -->
     <g style="fill: #bdbdbd" transform="translate(14.798438 174.347562) rotate(-90) scale(0.1 -0.1)">
      <defs>
       <path id="DejaVuSans-6c" d="M 603 4863 
L 1178 4863 
L 1178 0 
L 603 0 
L 603 4863 
z
" transform="scale(0.015625)"/>
       <path id="DejaVuSans-6f" d="M 1959 3097 
Q 1497 3097 1228 2736 
Q 959 2375 959 1747 
Q 959 1119 1226 758 
Q 1494 397 1959 397 
Q 2419 397 2687 759 
Q 2956 1122 2956 1747 
Q 2956 2369 2687 2733 
Q 2419 3097 1959 3097 
z
M 1959 3584 
Q 2709 3584 3137 3096 
Q 3566 2609 3566 1747 
Q 3566 888 3137 398 
Q 2709 -91 1959 -91 
Q 1206 -91 779 398 
Q 353 888 353 1747 
Q 353 2609 779 3096 
Q 1206 3584 1959 3584 
z
" transform="scale(0.015625)"/>
       <path id="DejaVuSans-67" d="M 2906 1791 
Q 2906 2416 2648 2759 
Q 2391 3103 1925 3103 
Q 1463 3103 1205 2759 
Q 947 2416 947 1791 
Q 947 1169 1205 825 
Q 1463 481 1925 481 
Q 2391 481 2648 825 
Q 2906 1169 2906 1791 
z
M 3481 434 
Q 3481 -459 3084 -895 
Q 2688 -1331 1869 -1331 
Q 1566 -1331 1297 -1286 
Q 1028 -1241 775 -1147 
L 775 -588 
Q 1028 -725 1275 -790 
Q 1522 -856 1778 -856 
Q 2344 -856 2625 -561 
Q 2906 -266 2906 331 
L 2906 616 
Q 2728 306 2450 153 
Q 2172 0 1784 0 
Q 1141 0 747 490 
Q 353 981 353 1791 
Q 353 2603 747 3093 
Q 1141 3584 1784 3584 
Q 2172 3584 2450 3431 
Q 2728 3278 2906 2969 
L 2906 3500 
L 3481 3500 
L 3481 434 
z
" transform="scale(0.015625)"/>
       <path id="DejaVuSans-70" d="M 1159 525 
L 1159 -1331 
L 581 -1331 
L 581 3500 
L 1159 3500 
L 1159 2969 
Q 1341 3281 1617 3432 
Q 1894 3584 2278 3584 
Q 2916 3584 3314 3078 
Q 3713 2572 3713 1747 
Q 3713 922 3314 415 
Q 2916 -91 2278 -91 
Q 1894 -91 1617 61 
Q 1341 213 1159 525 
z
M 3116 1747 
Q 3116 2381 2855 2742 
Q 2594 3103 2138 3103 
Q 1681 3103 1420 2742 
Q 1159 2381 1159 1747 
Q 1159 1113 1420 752 
Q 1681 391 2138 391 
Q 2594 391 2855 752 
Q 3116 1113 3116 1747 
z
" transform="scale(0.015625)"/>
       <path id="DejaVuSans-72" d="M 2631 2963 
Q 2534 3019 2420 3045 
Q 2306 3072 2169 3072 
Q 1681 3072 1420 2755 
Q 1159 2438 1159 1844 
L 1159 0 
L 581 0 
L 581 3500 
L 1159 3500 
L 1159 2956 
Q 1341 3275 1631 3429 
Q 1922 3584 2338 3584 
Q 2397 3584 2469 3576 
Q 2541 3569 2628 3553 
L 2631 2963 
z
" transform="scale(0.015625)"/>
       <path id="DejaVuSans-62" d="M 3116 1747 
Q 3116 2381 2855 2742 
Q 2594 3103 2138 3103 
Q 1681 3103 1420 2742 
Q 1159 2381 1159 1747 
Q 1159 1113 1420 752 
Q 1681 391 2138 391 
Q 2594 391 2855 752 
Q 3116 1113 3116 1747 
z
M 1159 2969 
Q 1341 3281 1617 3432 
Q 1894 3584 2278 3584 
Q 2916 3584 3314 3078 
Q 3713 2572 3713 1747 
Q 3713 922 3314 415 
Q 2916 -91 2278 -91 
Q 1894 -91 1617 61 
Q 1341 213 1159 525 
L 1159 0 
L 581 0 
L 581 4863 
L 1159 4863 
L 1159 2969 
z
" transform="scale(0.015625)"/>
      </defs>
      <use xlink:href="#DejaVuSans-6c"/>
      <use xlink:href="#DejaVuSans-6f" x="27.783203"/>
      <use xlink:href="#DejaVuSans-67" x="88.964844"/>
      <use xlink:href="#DejaVuSans-70" x="152.441406"/>
      <use xlink:href="#DejaVuSans-72" x="215.917969"/>
      <use xlink:href="#DejaVuSans-6f" x="254.78125"/>
      <use xlink:href="#DejaVuSans-62" x="315.962891"/>
     </g>
    </g>
   </g>
   <g id="line2d_25">
    <path d="M 86.796222 127.412402 
L 99.900767 106.24856 
L 113.005313 87.127936 
L 126.109858 87.317167 
L 139.214403 34.414125 
L 152.318949 149.600478 
L 165.423494 115.142039 
L 178.52804 190.836734 
L 191.632585 98.527293 
L 204.737131 209.180992 
L 217.841676 122.599808 
L 230.946222 119.605184 
L 244.050767 181.717929 
L 257.155313 38.786207 
L 270.259858 73.09478 
L 283.364403 117.69803 
L 296.468949 191.514472 
L 309.573494 192.841021 
L 322.67804 106.853701 
L 335.782585 169.861077 
L 348.887131 201.332698 
L 361.991676 152.515875 
L 375.096222 153.082404 
L 388.200767 191.012081 
L 401.305313 38.040189 
L 414.409858 141.525634 
L 427.514403 194.07961 
L 440.618949 138.893963 
L 453.723494 198.248923 
L 466.82804 66.488277 
L 479.932585 264.381644 
L 493.037131 121.381889 
L 506.141676 207.149045 
L 519.246222 153.806317 
L 532.350767 121.985131 
L 545.455313 140.41527 
L 558.559858 91.625985 
L 571.664403 242.378975 
L 584.768949 186.754376 
L 597.873494 234.516208 
L 610.97804 131.247736 
L 624.082585 173.025669 
L 637.187131 79.865226 
L 650.291676 144.522528 
L 663.396222 139.323631 
L 676.500767 210.453746 
L 689.605313 198.855554 
L 702.709858 199.256356 
L 715.814403 231.518983 
" clip-path="url(#p813b73b8d0)" style="fill: none; stroke: #440154; stroke-width: 1.5; stroke-linecap: square"/>
   </g>
   <g id="line2d_26">
    <path d="M 86.796222 138.795922 
L 99.900767 117.496147 
L 113.005313 98.374828 
L 126.109858 99.053602 
L 139.214403 46.450889 
L 152.318949 161.236664 
L 165.423494 127.043895 
L 178.52804 202.375432 
L 191.632585 109.91174 
L 204.737131 220.518632 
L 217.841676 134.275294 
L 230.946222 131.246281 
L 244.050767 193.288905 
L 257.155313 50.84516 
L 270.259858 84.939984 
L 283.364403 129.430737 
L 296.468949 203.318033 
L 309.573494 204.5398 
L 322.67804 118.366781 
L 335.782585 181.70008 
L 348.887131 213.196868 
L 361.991676 164.505723 
L 375.096222 165.158375 
L 388.200767 203.247812 
L 401.305313 50.100164 
L 414.409858 153.633628 
L 427.514403 205.820148 
L 440.618949 150.752694 
L 453.723494 210.330773 
L 466.82804 78.894484 
L 479.932585 276.29378 
L 493.037131 133.455327 
L 506.141676 219.399083 
L 519.246222 165.722735 
L 532.350767 133.971956 
L 545.455313 152.57971 
L 558.559858 103.850596 
L 571.664403 254.787953 
L 584.768949 198.895666 
L 597.873494 246.741785 
L 610.97804 143.196446 
L 624.082585 184.947996 
L 637.187131 92.144022 
L 650.291676 156.641564 
L 663.396222 151.499022 
L 676.500767 223.098311 
L 689.605313 211.136178 
L 702.709858 211.853378 
L 715.814403 243.391779 
" clip-path="url(#p813b73b8d0)" style="fill: none; stroke: #482878; stroke-width: 1.5; stroke-linecap: square"/>
   </g>
   <g id="line2d_27">
    <path d="M 86.796222 138.813108 
L 99.900767 117.485911 
L 113.005313 98.429502 
L 126.109858 99.03594 
L 139.214403 46.47681 
L 152.318949 161.183422 
L 165.423494 127.073217 
L 178.52804 202.336865 
L 191.632585 109.863317 
L 204.737131 220.523667 
L 217.841676 134.263175 
L 230.946222 131.3108 
L 244.050767 193.254673 
L 257.155313 50.822616 
L 270.259858 84.922674 
L 283.364403 129.467055 
L 296.468949 203.309807 
L 309.573494 204.590505 
L 322.67804 118.332454 
L 335.782585 181.67857 
L 348.887131 213.175751 
L 361.991676 164.48905 
L 375.096222 165.170889 
L 388.200767 203.269652 
L 401.305313 50.12902 
L 414.409858 153.646404 
L 427.514403 205.772548 
L 440.618949 150.698049 
L 453.723494 210.27013 
L 466.82804 78.881134 
L 479.932585 276.320504 
L 493.037131 133.42851 
L 506.141676 219.380768 
L 519.246222 165.71828 
L 532.350767 133.944753 
L 545.455313 152.551828 
L 558.559858 103.784761 
L 571.664403 254.781665 
L 584.768949 198.915863 
L 597.873494 246.688935 
L 610.97804 143.147206 
L 624.082585 184.982405 
L 637.187131 92.068529 
L 650.291676 156.63925 
L 663.396222 151.448233 
L 676.500767 223.09869 
L 689.605313 211.043412 
L 702.709858 211.83731 
L 715.814403 243.407232 
" clip-path="url(#p813b73b8d0)" style="fill: none; stroke: #3e4989; stroke-width: 1.5; stroke-linecap: square"/>
   </g>
   <g id="line2d_28">
    <path d="M 86.796222 138.816849 
L 99.900767 117.461919 
L 113.005313 98.471204 
L 126.109858 99.004075 
L 139.214403 46.488918 
L 152.318949 161.116687 
L 165.423494 127.089651 
L 178.52804 202.284079 
L 191.632585 109.800511 
L 204.737131 220.515468 
L 217.841676 134.236175 
L 230.946222 131.360768 
L 244.050767 193.205974 
L 257.155313 50.787207 
L 270.259858 84.890946 
L 283.364403 129.489511 
L 296.468949 203.287699 
L 309.573494 204.627095 
L 322.67804 118.284677 
L 335.782585 181.643594 
L 348.887131 213.141224 
L 361.991676 164.459976 
L 375.096222 165.169363 
L 388.200767 203.278343 
L 401.305313 50.143898 
L 414.409858 153.645297 
L 427.514403 205.710634 
L 440.618949 150.629462 
L 453.723494 210.195197 
L 466.82804 78.853572 
L 479.932585 276.334125 
L 493.037131 133.387919 
L 506.141676 219.347382 
L 519.246222 165.700875 
L 532.350767 133.90525 
L 545.455313 152.510599 
L 558.559858 103.704285 
L 571.664403 254.761573 
L 584.768949 198.921978 
L 597.873494 246.62174 
L 610.97804 143.084792 
L 624.082585 185.003899 
L 637.187131 91.979884 
L 650.291676 156.623099 
L 663.396222 151.383126 
L 676.500767 223.085881 
L 689.605313 210.936057 
L 702.709858 211.807673 
L 715.814403 243.409836 
" clip-path="url(#p813b73b8d0)" style="fill: none; stroke: #31688e; stroke-width: 1.5; stroke-linecap: square"/>
   </g>
   <g id="line2d_29">
    <path d="M 86.796222 138.807166 
L 99.900767 117.423389 
L 113.005313 98.499198 
L 126.109858 98.957643 
L 139.214403 46.486935 
L 152.318949 161.036916 
L 165.423494 127.092558 
L 178.52804 202.217897 
L 191.632585 109.7239 
L 204.737131 220.49414 
L 217.841676 134.194465 
L 230.946222 131.396581 
L 244.050767 193.143752 
L 257.155313 50.73883 
L 270.259858 84.844501 
L 283.364403 129.497857 
L 296.468949 203.251545 
L 309.573494 204.649455 
L 322.67804 118.223506 
L 335.782585 181.594758 
L 348.887131 213.093323 
L 361.991676 164.417995 
L 375.096222 165.153923 
L 388.200767 203.273177 
L 401.305313 50.145165 
L 414.409858 153.630341 
L 427.514403 205.634909 
L 440.618949 150.546963 
L 453.723494 210.106178 
L 466.82804 78.811129 
L 479.932585 276.333627 
L 493.037131 133.333066 
L 506.141676 219.29916 
L 519.246222 165.668922 
L 532.350767 133.852581 
L 545.455313 152.455724 
L 558.559858 103.609327 
L 571.664403 254.727464 
L 584.768949 198.914176 
L 597.873494 246.538932 
L 610.97804 143.008135 
L 624.082585 185.012009 
L 637.187131 91.877523 
L 650.291676 156.593427 
L 663.396222 151.303576 
L 676.500767 223.059147 
L 689.605313 210.814179 
L 702.709858 211.763518 
L 715.814403 243.398989 
" clip-path="url(#p813b73b8d0)" style="fill: none; stroke: #26828e; stroke-width: 1.5; stroke-linecap: square"/>
   </g>
   <g id="line2d_30">
    <path d="M 86.796222 138.781857 
L 99.900767 117.418342 
L 113.005313 98.509443 
L 126.109858 98.939782 
L 139.214403 46.4325 
L 152.318949 161.041307 
L 165.423494 127.112091 
L 178.52804 202.276278 
L 191.632585 109.693843 
L 204.737131 220.51651 
L 217.841676 134.14847 
L 230.946222 131.318993 
L 244.050767 193.158581 
L 257.155313 50.783714 
L 270.259858 84.816927 
L 283.364403 129.485173 
L 296.468949 203.225268 
L 309.573494 204.593369 
L 322.67804 118.178834 
L 335.782585 181.581041 
L 348.887131 213.122287 
L 361.991676 164.335274 
L 375.096222 165.210287 
L 388.200767 203.266874 
L 401.305313 50.156347 
L 414.409858 153.602022 
L 427.514403 205.686921 
L 440.618949 150.539205 
L 453.723494 210.118733 
L 466.82804 78.779449 
L 479.932585 276.29979 
L 493.037131 133.338543 
L 506.141676 219.328242 
L 519.246222 165.640241 
L 532.350767 133.84922 
L 545.455313 152.452363 
L 558.559858 103.601442 
L 571.664403 254.710302 
L 584.768949 198.9162 
L 597.873494 246.53837 
L 610.97804 142.993694 
L 624.082585 184.948198 
L 637.187131 91.899557 
L 650.291676 156.652939 
L 663.396222 151.365647 
L 676.500767 223.11031 
L 689.605313 210.789498 
L 702.709858 211.75759 
L 715.814403 243.430643 
" clip-path="url(#p813b73b8d0)" style="fill: none; stroke: #1f9e89; stroke-width: 1.5; stroke-linecap: square"/>
   </g>
   <g id="line2d_31">
    <path d="M 86.796222 138.743515 
L 99.900767 117.399254 
L 113.005313 98.506184 
L 126.109858 98.907373 
L 139.214403 46.36404 
L 152.318949 161.032309 
L 165.423494 127.1173 
L 178.52804 202.320132 
L 191.632585 109.649102 
L 204.737131 220.525489 
L 217.841676 134.087172 
L 230.946222 131.227566 
L 244.050767 193.160714 
L 257.155313 50.815507 
L 270.259858 84.774344 
L 283.364403 129.458231 
L 296.468949 203.183916 
L 309.573494 204.524051 
L 322.67804 118.121031 
L 335.782585 181.553997 
L 348.887131 213.137405 
L 361.991676 164.238125 
L 375.096222 165.252842 
L 388.200767 203.246931 
L 401.305313 50.154319 
L 414.409858 153.560808 
L 427.514403 205.725344 
L 440.618949 150.517153 
L 453.723494 210.115917 
L 466.82804 78.733341 
L 479.932585 276.252654 
L 493.037131 133.330014 
L 506.141676 219.34404 
L 519.246222 165.59754 
L 532.350767 133.833865 
L 545.455313 152.435334 
L 558.559858 103.578742 
L 571.664403 254.679184 
L 584.768949 198.904761 
L 597.873494 246.52419 
L 610.97804 142.965604 
L 624.082585 184.871351 
L 637.187131 91.907252 
L 650.291676 156.698717 
L 663.396222 151.414172 
L 676.500767 223.147525 
L 689.605313 210.750027 
L 702.709858 211.737619 
L 715.814403 243.447659 
" clip-path="url(#p813b73b8d0)" style="fill: none; stroke: #35b779; stroke-width: 1.5; stroke-linecap: square"/>
   </g>
   <g id="line2d_32">
    <path d="M 86.796222 138.691351 
L 99.900767 117.366423 
L 113.005313 98.489917 
L 126.109858 98.859974 
L 139.214403 46.281268 
L 152.318949 161.010309 
L 165.423494 127.10838 
L 178.52804 202.349832 
L 191.632585 109.590095 
L 204.737131 220.520293 
L 217.841676 134.011202 
L 230.946222 131.122796 
L 244.050767 193.149177 
L 257.155313 50.834464 
L 270.259858 84.717073 
L 283.364403 129.416837 
L 296.468949 203.128207 
L 309.573494 204.441299 
L 322.67804 118.050981 
L 335.782585 181.513576 
L 348.887131 213.138263 
L 361.991676 164.126724 
L 375.096222 165.282053 
L 388.200767 203.213316 
L 401.305313 50.139916 
L 414.409858 153.506206 
L 427.514403 205.750425 
L 440.618949 150.481195 
L 453.723494 210.09845 
L 466.82804 78.672856 
L 479.932585 276.192596 
L 493.037131 133.307495 
L 506.141676 219.345946 
L 519.246222 165.540744 
L 532.350767 133.805064 
L 545.455313 152.404053 
L 558.559858 103.541352 
L 571.664403 254.634418 
L 584.768949 198.879882 
L 597.873494 246.496774 
L 610.97804 142.923565 
L 624.082585 184.78163 
L 637.187131 91.900726 
L 650.291676 156.730882 
L 663.396222 151.449113 
L 676.500767 223.170364 
L 689.605313 210.696144 
L 702.709858 211.704993 
L 715.814403 243.450852 
" clip-path="url(#p813b73b8d0)" style="fill: none; stroke: #6ece58; stroke-width: 1.5; stroke-linecap: square"/>
   </g>
   <g id="line2d_33">
    <path d="M 86.796222 138.625417 
L 99.900767 117.319919 
L 113.005313 98.460614 
L 126.109858 98.798298 
L 139.214403 46.184411 
L 152.318949 160.975698 
L 165.423494 127.085417 
L 178.52804 202.365927 
L 191.632585 109.517148 
L 204.737131 220.500793 
L 217.841676 133.920206 
L 230.946222 131.00399 
L 244.050767 193.122932 
L 257.155313 50.839648 
L 270.259858 84.645103 
L 283.364403 129.361001 
L 296.468949 203.057992 
L 309.573494 204.343785 
L 322.67804 117.967992 
L 335.782585 181.45873 
L 348.887131 213.126052 
L 361.991676 164.001024 
L 375.096222 165.298168 
L 388.200767 203.166075 
L 401.305313 50.112767 
L 414.409858 153.437149 
L 427.514403 205.762052 
L 440.618949 150.431255 
L 453.723494 210.065462 
L 466.82804 78.597926 
L 479.932585 276.119106 
L 493.037131 133.27101 
L 506.141676 219.333561 
L 519.246222 165.469621 
L 532.350767 133.761387 
L 545.455313 152.358538 
L 558.559858 103.489465 
L 571.664403 254.576162 
L 584.768949 198.841229 
L 597.873494 246.455964 
L 610.97804 142.866673 
L 624.082585 184.678853 
L 637.187131 91.879542 
L 650.291676 156.748786 
L 663.396222 151.470292 
L 676.500767 223.180081 
L 689.605313 210.627624 
L 702.709858 211.659874 
L 715.814403 243.440749 
" clip-path="url(#p813b73b8d0)" style="fill: none; stroke: #b5de2b; stroke-width: 1.5; stroke-linecap: square"/>
   </g>
   <g id="patch_3">
    <path d="M 55.345313 288.430125 
L 55.345313 22.318125 
" style="fill: none"/>
   </g>
   <g id="patch_4">
    <path d="M 747.265313 288.430125 
L 747.265313 22.318125 
" style="fill: none"/>
   </g>
   <g id="patch_5">
    <path d="M 55.345313 288.430125 
L 747.265313 288.430125 
" style="fill: none"/>
   </g>
   <g id="patch_6">
    <path d="M 55.345313 22.318125 
L 747.265313 22.318125 
" style="fill: none"/>
   </g>
   <g id="text_14">
    <!-- train -->
    <g style="fill: #666666" transform="translate(387.340313 16.318125) scale(0.12 -0.12)">
     <defs>
      <path id="DejaVuSans-74" d="M 1172 4494 
L 1172 3500 
L 2356 3500 
L 2356 3053 
L 1172 3053 
L 1172 1153 
Q 1172 725 1289 603 
Q 1406 481 1766 481 
L 2356 481 
L 2356 0 
L 1766 0 
Q 1100 0 847 248 
Q 594 497 594 1153 
L 594 3053 
L 172 3053 
L 172 3500 
L 594 3500 
L 594 4494 
L 1172 4494 
z
" transform="scale(0.015625)"/>
      <path id="DejaVuSans-61" d="M 2194 1759 
Q 1497 1759 1228 1600 
Q 959 1441 959 1056 
Q 959 750 1161 570 
Q 1363 391 1709 391 
Q 2188 391 2477 730 
Q 2766 1069 2766 1631 
L 2766 1759 
L 2194 1759 
z
M 3341 1997 
L 3341 0 
L 2766 0 
L 2766 531 
Q 2569 213 2275 61 
Q 1981 -91 1556 -91 
Q 1019 -91 701 211 
Q 384 513 384 1019 
Q 384 1609 779 1909 
Q 1175 2209 1959 2209 
L 2766 2209 
L 2766 2266 
Q 2766 2663 2505 2880 
Q 2244 3097 1772 3097 
Q 1472 3097 1187 3025 
Q 903 2953 641 2809 
L 641 3341 
Q 956 3463 1253 3523 
Q 1550 3584 1831 3584 
Q 2591 3584 2966 3190 
Q 3341 2797 3341 1997 
z
" transform="scale(0.015625)"/>
      <path id="DejaVuSans-69" d="M 603 3500 
L 1178 3500 
L 1178 0 
L 603 0 
L 603 3500 
z
M 603 4863 
L 1178 4863 
L 1178 4134 
L 603 4134 
L 603 4863 
z
" transform="scale(0.015625)"/>
      <path id="DejaVuSans-6e" d="M 3513 2113 
L 3513 0 
L 2938 0 
L 2938 2094 
Q 2938 2591 2744 2837 
Q 2550 3084 2163 3084 
Q 1697 3084 1428 2787 
Q 1159 2491 1159 1978 
L 1159 0 
L 581 0 
L 581 3500 
L 1159 3500 
L 1159 2956 
Q 1366 3272 1645 3428 
Q 1925 3584 2291 3584 
Q 2894 3584 3203 3211 
Q 3513 2838 3513 2113 
z
" transform="scale(0.015625)"/>
     </defs>
     <use xlink:href="#DejaVuSans-74"/>
     <use xlink:href="#DejaVuSans-72" x="39.208984"/>
     <use xlink:href="#DejaVuSans-61" x="80.322266"/>
     <use xlink:href="#DejaVuSans-69" x="141.601562"/>
     <use xlink:href="#DejaVuSans-6e" x="169.384766"/>
    </g>
   </g>
  </g>
 </g>
 <defs>
  <clipPath id="p813b73b8d0">
   <rect x="55.345313" y="22.318125" width="691.92" height="266.112"/>
  </clipPath>
 </defs>
</svg>
