<?xml version="1.0" encoding="utf-8" standalone="no"?>
<!DOCTYPE svg PUBLIC "-//W3C//DTD SVG 1.1//EN"
  "http://www.w3.org/Graphics/SVG/1.1/DTD/svg11.dtd">
<svg xmlns:xlink="http://www.w3.org/1999/xlink" width="760.059626pt" height="312.30825pt" viewBox="0 0 760.059626 312.30825" xmlns="http://www.w3.org/2000/svg" version="1.1">
 <metadata>
  <rdf:RDF xmlns:dc="http://purl.org/dc/elements/1.1/" xmlns:cc="http://creativecommons.org/ns#" xmlns:rdf="http://www.w3.org/1999/02/22-rdf-syntax-ns#">
   <cc:Work>
    <dc:type rdf:resource="http://purl.org/dc/dcmitype/StillImage"/>
    <dc:date>2023-07-10T07:56:35.267387</dc:date>
    <dc:format>image/svg+xml</dc:format>
    <dc:creator>
     <cc:Agent>
      <dc:title>Matplotlib v3.7.1, https://matplotlib.org/</dc:title>
     </cc:Agent>
    </dc:creator>
   </cc:Work>
  </rdf:RDF>
 </metadata>
 <defs>
  <style type="text/css">*{stroke-linejoin: round; stroke-linecap: butt}</style>
 </defs>
 <g id="figure_1">
  <g id="patch_1">
   <path d="M 0 312.30825 
L 760.059626 312.30825 
L 760.059626 0 
L 0 0 
L 0 312.30825 
z
" style="fill: none"/>
  </g>
  <g id="axes_1">
   <g id="patch_2">
    <path d="M 58.523438 288.430125 
L 750.443438 288.430125 
L 750.443438 22.318125 
L 58.523438 22.318125 
L 58.523438 288.430125 
z
" style="fill: none"/>
   </g>
   <g id="matplotlib.axis_1">
    <g id="xtick_1">
     <g id="line2d_1">
      <path d="M 88.778495 288.430125 
L 88.778495 22.318125 
" clip-path="url(#p2c87257db4)" style="fill: none; stroke-dasharray: 1.85,0.8; stroke-dashoffset: 0; stroke: #666666; stroke-opacity: 0.4; stroke-width: 0.5"/>
     </g>
     <g id="line2d_2">
      <defs>
       <path id="m6dba0d2fbf" d="M 0 0 
L 0 3.5 
" style="stroke: #000000; stroke-opacity: 0; stroke-width: 0.8"/>
      </defs>
      <g>
       <use xlink:href="#m6dba0d2fbf" x="88.778495" y="288.430125" style="fill-opacity: 0; stroke: #000000; stroke-opacity: 0; stroke-width: 0.8"/>
      </g>
     </g>
     <g id="text_1">
      <!-- 0 -->
      <g style="fill: #666666" transform="translate(85.597245 303.028562) scale(0.1 -0.1)">
       <defs>
        <path id="DejaVuSans-30" d="M 2034 4250 
Q 1547 4250 1301 3770 
Q 1056 3291 1056 2328 
Q 1056 1369 1301 889 
Q 1547 409 2034 409 
Q 2525 409 2770 889 
Q 3016 1369 3016 2328 
Q 3016 3291 2770 3770 
Q 2525 4250 2034 4250 
z
M 2034 4750 
Q 2819 4750 3233 4129 
Q 3647 3509 3647 2328 
Q 3647 1150 3233 529 
Q 2819 -91 2034 -91 
Q 1250 -91 836 529 
Q 422 1150 422 2328 
Q 422 3509 836 4129 
Q 1250 4750 2034 4750 
z
" transform="scale(0.015625)"/>
       </defs>
       <use xlink:href="#DejaVuSans-30"/>
      </g>
     </g>
    </g>
    <g id="xtick_2">
     <g id="line2d_3">
      <path d="M 220.322221 288.430125 
L 220.322221 22.318125 
" clip-path="url(#p2c87257db4)" style="fill: none; stroke-dasharray: 1.85,0.8; stroke-dashoffset: 0; stroke: #666666; stroke-opacity: 0.4; stroke-width: 0.5"/>
     </g>
     <g id="line2d_4">
      <g>
       <use xlink:href="#m6dba0d2fbf" x="220.322221" y="288.430125" style="fill-opacity: 0; stroke: #000000; stroke-opacity: 0; stroke-width: 0.8"/>
      </g>
     </g>
     <g id="text_2">
      <!-- 5 -->
      <g style="fill: #666666" transform="translate(217.140971 303.028562) scale(0.1 -0.1)">
       <defs>
        <path id="DejaVuSans-35" d="M 691 4666 
L 3169 4666 
L 3169 4134 
L 1269 4134 
L 1269 2991 
Q 1406 3038 1543 3061 
Q 1681 3084 1819 3084 
Q 2600 3084 3056 2656 
Q 3513 2228 3513 1497 
Q 3513 744 3044 326 
Q 2575 -91 1722 -91 
Q 1428 -91 1123 -41 
Q 819 9 494 109 
L 494 744 
Q 775 591 1075 516 
Q 1375 441 1709 441 
Q 2250 441 2565 725 
Q 2881 1009 2881 1497 
Q 2881 1984 2565 2268 
Q 2250 2553 1709 2553 
Q 1456 2553 1204 2497 
Q 953 2441 691 2322 
L 691 4666 
z
" transform="scale(0.015625)"/>
       </defs>
       <use xlink:href="#DejaVuSans-35"/>
      </g>
     </g>
    </g>
    <g id="xtick_3">
     <g id="line2d_5">
      <path d="M 351.865947 288.430125 
L 351.865947 22.318125 
" clip-path="url(#p2c87257db4)" style="fill: none; stroke-dasharray: 1.85,0.8; stroke-dashoffset: 0; stroke: #666666; stroke-opacity: 0.4; stroke-width: 0.5"/>
     </g>
     <g id="line2d_6">
      <g>
       <use xlink:href="#m6dba0d2fbf" x="351.865947" y="288.430125" style="fill-opacity: 0; stroke: #000000; stroke-opacity: 0; stroke-width: 0.8"/>
      </g>
     </g>
     <g id="text_3">
      <!-- 10 -->
      <g style="fill: #666666" transform="translate(345.503447 303.028562) scale(0.1 -0.1)">
       <defs>
        <path id="DejaVuSans-31" d="M 794 531 
L 1825 531 
L 1825 4091 
L 703 3866 
L 703 4441 
L 1819 4666 
L 2450 4666 
L 2450 531 
L 3481 531 
L 3481 0 
L 794 0 
L 794 531 
z
" transform="scale(0.015625)"/>
       </defs>
       <use xlink:href="#DejaVuSans-31"/>
       <use xlink:href="#DejaVuSans-30" x="63.623047"/>
      </g>
     </g>
    </g>
    <g id="xtick_4">
     <g id="line2d_7">
      <path d="M 483.409673 288.430125 
L 483.409673 22.318125 
" clip-path="url(#p2c87257db4)" style="fill: none; stroke-dasharray: 1.85,0.8; stroke-dashoffset: 0; stroke: #666666; stroke-opacity: 0.4; stroke-width: 0.5"/>
     </g>
     <g id="line2d_8">
      <g>
       <use xlink:href="#m6dba0d2fbf" x="483.409673" y="288.430125" style="fill-opacity: 0; stroke: #000000; stroke-opacity: 0; stroke-width: 0.8"/>
      </g>
     </g>
     <g id="text_4">
      <!-- 15 -->
      <g style="fill: #666666" transform="translate(477.047173 303.028562) scale(0.1 -0.1)">
       <use xlink:href="#DejaVuSans-31"/>
       <use xlink:href="#DejaVuSans-35" x="63.623047"/>
      </g>
     </g>
    </g>
    <g id="xtick_5">
     <g id="line2d_9">
      <path d="M 614.953399 288.430125 
L 614.953399 22.318125 
" clip-path="url(#p2c87257db4)" style="fill: none; stroke-dasharray: 1.85,0.8; stroke-dashoffset: 0; stroke: #666666; stroke-opacity: 0.4; stroke-width: 0.5"/>
     </g>
     <g id="line2d_10">
      <g>
       <use xlink:href="#m6dba0d2fbf" x="614.953399" y="288.430125" style="fill-opacity: 0; stroke: #000000; stroke-opacity: 0; stroke-width: 0.8"/>
      </g>
     </g>
     <g id="text_5">
      <!-- 20 -->
      <g style="fill: #666666" transform="translate(608.590899 303.028562) scale(0.1 -0.1)">
       <defs>
        <path id="DejaVuSans-32" d="M 1228 531 
L 3431 531 
L 3431 0 
L 469 0 
L 469 531 
Q 828 903 1448 1529 
Q 2069 2156 2228 2338 
Q 2531 2678 2651 2914 
Q 2772 3150 2772 3378 
Q 2772 3750 2511 3984 
Q 2250 4219 1831 4219 
Q 1534 4219 1204 4116 
Q 875 4013 500 3803 
L 500 4441 
Q 881 4594 1212 4672 
Q 1544 4750 1819 4750 
Q 2544 4750 2975 4387 
Q 3406 4025 3406 3419 
Q 3406 3131 3298 2873 
Q 3191 2616 2906 2266 
Q 2828 2175 2409 1742 
Q 1991 1309 1228 531 
z
" transform="scale(0.015625)"/>
       </defs>
       <use xlink:href="#DejaVuSans-32"/>
       <use xlink:href="#DejaVuSans-30" x="63.623047"/>
      </g>
     </g>
    </g>
    <g id="xtick_6">
     <g id="line2d_11">
      <path d="M 746.497126 288.430125 
L 746.497126 22.318125 
" clip-path="url(#p2c87257db4)" style="fill: none; stroke-dasharray: 1.85,0.8; stroke-dashoffset: 0; stroke: #666666; stroke-opacity: 0.4; stroke-width: 0.5"/>
     </g>
     <g id="line2d_12">
      <g>
       <use xlink:href="#m6dba0d2fbf" x="746.497126" y="288.430125" style="fill-opacity: 0; stroke: #000000; stroke-opacity: 0; stroke-width: 0.8"/>
      </g>
     </g>
     <g id="text_6">
      <!-- 25 -->
      <g style="fill: #666666" transform="translate(740.134626 303.028562) scale(0.1 -0.1)">
       <use xlink:href="#DejaVuSans-32"/>
       <use xlink:href="#DejaVuSans-35" x="63.623047"/>
      </g>
     </g>
    </g>
   </g>
   <g id="matplotlib.axis_2">
    <g id="ytick_1">
     <g id="line2d_13">
      <path d="M 58.523438 272.239982 
L 750.443438 272.239982 
" clip-path="url(#p2c87257db4)" style="fill: none; stroke-dasharray: 1.85,0.8; stroke-dashoffset: 0; stroke: #666666; stroke-opacity: 0.4; stroke-width: 0.5"/>
     </g>
     <g id="line2d_14">
      <defs>
       <path id="mf9df9fdfe0" d="M 0 0 
L -3.5 0 
" style="stroke: #000000; stroke-opacity: 0; stroke-width: 0.8"/>
      </defs>
      <g>
       <use xlink:href="#mf9df9fdfe0" x="58.523438" y="272.239982" style="fill-opacity: 0; stroke: #000000; stroke-opacity: 0; stroke-width: 0.8"/>
      </g>
     </g>
     <g id="text_7">
      <!-- −0.20 -->
      <g style="fill: #666666" transform="translate(20.878125 276.039201) scale(0.1 -0.1)">
       <defs>
        <path id="DejaVuSans-2212" d="M 678 2272 
L 4684 2272 
L 4684 1741 
L 678 1741 
L 678 2272 
z
" transform="scale(0.015625)"/>
        <path id="DejaVuSans-2e" d="M 684 794 
L 1344 794 
L 1344 0 
L 684 0 
L 684 794 
z
" transform="scale(0.015625)"/>
       </defs>
       <use xlink:href="#DejaVuSans-2212"/>
       <use xlink:href="#DejaVuSans-30" x="83.789062"/>
       <use xlink:href="#DejaVuSans-2e" x="147.412109"/>
       <use xlink:href="#DejaVuSans-32" x="179.199219"/>
       <use xlink:href="#DejaVuSans-30" x="242.822266"/>
      </g>
     </g>
    </g>
    <g id="ytick_2">
     <g id="line2d_15">
      <path d="M 58.523438 239.62642 
L 750.443438 239.62642 
" clip-path="url(#p2c87257db4)" style="fill: none; stroke-dasharray: 1.85,0.8; stroke-dashoffset: 0; stroke: #666666; stroke-opacity: 0.4; stroke-width: 0.5"/>
     </g>
     <g id="line2d_16">
      <g>
       <use xlink:href="#mf9df9fdfe0" x="58.523438" y="239.62642" style="fill-opacity: 0; stroke: #000000; stroke-opacity: 0; stroke-width: 0.8"/>
      </g>
     </g>
     <g id="text_8">
      <!-- −0.15 -->
      <g style="fill: #666666" transform="translate(20.878125 243.425639) scale(0.1 -0.1)">
       <use xlink:href="#DejaVuSans-2212"/>
       <use xlink:href="#DejaVuSans-30" x="83.789062"/>
       <use xlink:href="#DejaVuSans-2e" x="147.412109"/>
       <use xlink:href="#DejaVuSans-31" x="179.199219"/>
       <use xlink:href="#DejaVuSans-35" x="242.822266"/>
      </g>
     </g>
    </g>
    <g id="ytick_3">
     <g id="line2d_17">
      <path d="M 58.523438 207.012858 
L 750.443438 207.012858 
" clip-path="url(#p2c87257db4)" style="fill: none; stroke-dasharray: 1.85,0.8; stroke-dashoffset: 0; stroke: #666666; stroke-opacity: 0.4; stroke-width: 0.5"/>
     </g>
     <g id="line2d_18">
      <g>
       <use xlink:href="#mf9df9fdfe0" x="58.523438" y="207.012858" style="fill-opacity: 0; stroke: #000000; stroke-opacity: 0; stroke-width: 0.8"/>
      </g>
     </g>
     <g id="text_9">
      <!-- −0.10 -->
      <g style="fill: #666666" transform="translate(20.878125 210.812077) scale(0.1 -0.1)">
       <use xlink:href="#DejaVuSans-2212"/>
       <use xlink:href="#DejaVuSans-30" x="83.789062"/>
       <use xlink:href="#DejaVuSans-2e" x="147.412109"/>
       <use xlink:href="#DejaVuSans-31" x="179.199219"/>
       <use xlink:href="#DejaVuSans-30" x="242.822266"/>
      </g>
     </g>
    </g>
    <g id="ytick_4">
     <g id="line2d_19">
      <path d="M 58.523438 174.399296 
L 750.443438 174.399296 
" clip-path="url(#p2c87257db4)" style="fill: none; stroke-dasharray: 1.85,0.8; stroke-dashoffset: 0; stroke: #666666; stroke-opacity: 0.4; stroke-width: 0.5"/>
     </g>
     <g id="line2d_20">
      <g>
       <use xlink:href="#mf9df9fdfe0" x="58.523438" y="174.399296" style="fill-opacity: 0; stroke: #000000; stroke-opacity: 0; stroke-width: 0.8"/>
      </g>
     </g>
     <g id="text_10">
      <!-- −0.05 -->
      <g style="fill: #666666" transform="translate(20.878125 178.198515) scale(0.1 -0.1)">
       <use xlink:href="#DejaVuSans-2212"/>
       <use xlink:href="#DejaVuSans-30" x="83.789062"/>
       <use xlink:href="#DejaVuSans-2e" x="147.412109"/>
       <use xlink:href="#DejaVuSans-30" x="179.199219"/>
       <use xlink:href="#DejaVuSans-35" x="242.822266"/>
      </g>
     </g>
    </g>
    <g id="ytick_5">
     <g id="line2d_21">
      <path d="M 58.523438 141.785734 
L 750.443438 141.785734 
" clip-path="url(#p2c87257db4)" style="fill: none; stroke-dasharray: 1.85,0.8; stroke-dashoffset: 0; stroke: #666666; stroke-opacity: 0.4; stroke-width: 0.5"/>
     </g>
     <g id="line2d_22">
      <g>
       <use xlink:href="#mf9df9fdfe0" x="58.523438" y="141.785734" style="fill-opacity: 0; stroke: #000000; stroke-opacity: 0; stroke-width: 0.8"/>
      </g>
     </g>
     <g id="text_11">
      <!-- 0.00 -->
      <g style="fill: #666666" transform="translate(29.257813 145.584953) scale(0.1 -0.1)">
       <use xlink:href="#DejaVuSans-30"/>
       <use xlink:href="#DejaVuSans-2e" x="63.623047"/>
       <use xlink:href="#DejaVuSans-30" x="95.410156"/>
       <use xlink:href="#DejaVuSans-30" x="159.033203"/>
      </g>
     </g>
    </g>
    <g id="ytick_6">
     <g id="line2d_23">
      <path d="M 58.523438 109.172172 
L 750.443438 109.172172 
" clip-path="url(#p2c87257db4)" style="fill: none; stroke-dasharray: 1.85,0.8; stroke-dashoffset: 0; stroke: #666666; stroke-opacity: 0.4; stroke-width: 0.5"/>
     </g>
     <g id="line2d_24">
      <g>
       <use xlink:href="#mf9df9fdfe0" x="58.523438" y="109.172172" style="fill-opacity: 0; stroke: #000000; stroke-opacity: 0; stroke-width: 0.8"/>
      </g>
     </g>
     <g id="text_12">
      <!-- 0.05 -->
      <g style="fill: #666666" transform="translate(29.257813 112.971391) scale(0.1 -0.1)">
       <use xlink:href="#DejaVuSans-30"/>
       <use xlink:href="#DejaVuSans-2e" x="63.623047"/>
       <use xlink:href="#DejaVuSans-30" x="95.410156"/>
       <use xlink:href="#DejaVuSans-35" x="159.033203"/>
      </g>
     </g>
    </g>
    <g id="ytick_7">
     <g id="line2d_25">
      <path d="M 58.523438 76.55861 
L 750.443438 76.55861 
" clip-path="url(#p2c87257db4)" style="fill: none; stroke-dasharray: 1.85,0.8; stroke-dashoffset: 0; stroke: #666666; stroke-opacity: 0.4; stroke-width: 0.5"/>
     </g>
     <g id="line2d_26">
      <g>
       <use xlink:href="#mf9df9fdfe0" x="58.523438" y="76.55861" style="fill-opacity: 0; stroke: #000000; stroke-opacity: 0; stroke-width: 0.8"/>
      </g>
     </g>
     <g id="text_13">
      <!-- 0.10 -->
      <g style="fill: #666666" transform="translate(29.257813 80.357829) scale(0.1 -0.1)">
       <use xlink:href="#DejaVuSans-30"/>
       <use xlink:href="#DejaVuSans-2e" x="63.623047"/>
       <use xlink:href="#DejaVuSans-31" x="95.410156"/>
       <use xlink:href="#DejaVuSans-30" x="159.033203"/>
      </g>
     </g>
    </g>
    <g id="ytick_8">
     <g id="line2d_27">
      <path d="M 58.523438 43.945048 
L 750.443438 43.945048 
" clip-path="url(#p2c87257db4)" style="fill: none; stroke-dasharray: 1.85,0.8; stroke-dashoffset: 0; stroke: #666666; stroke-opacity: 0.4; stroke-width: 0.5"/>
     </g>
     <g id="line2d_28">
      <g>
       <use xlink:href="#mf9df9fdfe0" x="58.523438" y="43.945048" style="fill-opacity: 0; stroke: #000000; stroke-opacity: 0; stroke-width: 0.8"/>
      </g>
     </g>
     <g id="text_14">
      <!-- 0.15 -->
      <g style="fill: #666666" transform="translate(29.257813 47.744267) scale(0.1 -0.1)">
       <use xlink:href="#DejaVuSans-30"/>
       <use xlink:href="#DejaVuSans-2e" x="63.623047"/>
       <use xlink:href="#DejaVuSans-31" x="95.410156"/>
       <use xlink:href="#DejaVuSans-35" x="159.033203"/>
      </g>
     </g>
    </g>
    <g id="text_15">
     <!-- intQ -->
     <g style="fill: #bdbdbd" transform="translate(14.798438 165.828031) rotate(-90) scale(0.1 -0.1)">
      <defs>
       <path id="DejaVuSans-69" d="M 603 3500 
L 1178 3500 
L 1178 0 
L 603 0 
L 603 3500 
z
M 603 4863 
L 1178 4863 
L 1178 4134 
L 603 4134 
L 603 4863 
z
" transform="scale(0.015625)"/>
       <path id="DejaVuSans-6e" d="M 3513 2113 
L 3513 0 
L 2938 0 
L 2938 2094 
Q 2938 2591 2744 2837 
Q 2550 3084 2163 3084 
Q 1697 3084 1428 2787 
Q 1159 2491 1159 1978 
L 1159 0 
L 581 0 
L 581 3500 
L 1159 3500 
L 1159 2956 
Q 1366 3272 1645 3428 
Q 1925 3584 2291 3584 
Q 2894 3584 3203 3211 
Q 3513 2838 3513 2113 
z
" transform="scale(0.015625)"/>
       <path id="DejaVuSans-74" d="M 1172 4494 
L 1172 3500 
L 2356 3500 
L 2356 3053 
L 1172 3053 
L 1172 1153 
Q 1172 725 1289 603 
Q 1406 481 1766 481 
L 2356 481 
L 2356 0 
L 1766 0 
Q 1100 0 847 248 
Q 594 497 594 1153 
L 594 3053 
L 172 3053 
L 172 3500 
L 594 3500 
L 594 4494 
L 1172 4494 
z
" transform="scale(0.015625)"/>
       <path id="DejaVuSans-51" d="M 2522 4238 
Q 1834 4238 1429 3725 
Q 1025 3213 1025 2328 
Q 1025 1447 1429 934 
Q 1834 422 2522 422 
Q 3209 422 3611 934 
Q 4013 1447 4013 2328 
Q 4013 3213 3611 3725 
Q 3209 4238 2522 4238 
z
M 3406 84 
L 4238 -825 
L 3475 -825 
L 2784 -78 
Q 2681 -84 2626 -87 
Q 2572 -91 2522 -91 
Q 1538 -91 948 567 
Q 359 1225 359 2328 
Q 359 3434 948 4092 
Q 1538 4750 2522 4750 
Q 3503 4750 4090 4092 
Q 4678 3434 4678 2328 
Q 4678 1516 4351 937 
Q 4025 359 3406 84 
z
" transform="scale(0.015625)"/>
      </defs>
      <use xlink:href="#DejaVuSans-69"/>
      <use xlink:href="#DejaVuSans-6e" x="27.783203"/>
      <use xlink:href="#DejaVuSans-74" x="91.162109"/>
      <use xlink:href="#DejaVuSans-51" x="130.371094"/>
     </g>
    </g>
   </g>
   <g id="line2d_29">
    <path d="M 88.778495 173.25719 
L 115.08724 158.048238 
L 141.395985 153.269613 
L 167.70473 140.39486 
L 194.013476 137.208632 
L 220.322221 155.001732 
L 246.630966 151.525242 
L 272.939711 167.064842 
L 299.248457 179.176734 
L 325.557202 182.385526 
L 351.865947 166.472734 
L 378.174692 152.091448 
L 404.483438 144.306157 
L 430.792183 133.239707 
L 457.100928 134.708668 
L 483.409673 137.826503 
L 509.718418 145.299031 
L 536.027164 121.834116 
L 562.335909 131.598564 
L 588.644654 120.479036 
L 614.953399 116.281315 
L 641.262145 125.527205 
L 667.57089 137.166022 
L 693.879635 150.72906 
" clip-path="url(#p2c87257db4)" style="fill: none; stroke: #2196f3; stroke-width: 1.5; stroke-linecap: square"/>
    <defs>
     <path id="m25d1d975ed" d="M 0 1.5 
C 0.397805 1.5 0.77937 1.341951 1.06066 1.06066 
C 1.341951 0.77937 1.5 0.397805 1.5 0 
C 1.5 -0.397805 1.341951 -0.77937 1.06066 -1.06066 
C 0.77937 -1.341951 0.397805 -1.5 0 -1.5 
C -0.397805 -1.5 -0.77937 -1.341951 -1.06066 -1.06066 
C -1.341951 -0.77937 -1.5 -0.397805 -1.5 0 
C -1.5 0.397805 -1.341951 0.77937 -1.06066 1.06066 
C -0.77937 1.341951 -0.397805 1.5 0 1.5 
z
" style="stroke: #2196f3"/>
    </defs>
    <g clip-path="url(#p2c87257db4)">
     <use xlink:href="#m25d1d975ed" x="88.778495" y="173.25719" style="fill: #2196f3; stroke: #2196f3"/>
     <use xlink:href="#m25d1d975ed" x="115.08724" y="158.048238" style="fill: #2196f3; stroke: #2196f3"/>
     <use xlink:href="#m25d1d975ed" x="141.395985" y="153.269613" style="fill: #2196f3; stroke: #2196f3"/>
     <use xlink:href="#m25d1d975ed" x="167.70473" y="140.39486" style="fill: #2196f3; stroke: #2196f3"/>
     <use xlink:href="#m25d1d975ed" x="194.013476" y="137.208632" style="fill: #2196f3; stroke: #2196f3"/>
     <use xlink:href="#m25d1d975ed" x="220.322221" y="155.001732" style="fill: #2196f3; stroke: #2196f3"/>
     <use xlink:href="#m25d1d975ed" x="246.630966" y="151.525242" style="fill: #2196f3; stroke: #2196f3"/>
     <use xlink:href="#m25d1d975ed" x="272.939711" y="167.064842" style="fill: #2196f3; stroke: #2196f3"/>
     <use xlink:href="#m25d1d975ed" x="299.248457" y="179.176734" style="fill: #2196f3; stroke: #2196f3"/>
     <use xlink:href="#m25d1d975ed" x="325.557202" y="182.385526" style="fill: #2196f3; stroke: #2196f3"/>
     <use xlink:href="#m25d1d975ed" x="351.865947" y="166.472734" style="fill: #2196f3; stroke: #2196f3"/>
     <use xlink:href="#m25d1d975ed" x="378.174692" y="152.091448" style="fill: #2196f3; stroke: #2196f3"/>
     <use xlink:href="#m25d1d975ed" x="404.483438" y="144.306157" style="fill: #2196f3; stroke: #2196f3"/>
     <use xlink:href="#m25d1d975ed" x="430.792183" y="133.239707" style="fill: #2196f3; stroke: #2196f3"/>
     <use xlink:href="#m25d1d975ed" x="457.100928" y="134.708668" style="fill: #2196f3; stroke: #2196f3"/>
     <use xlink:href="#m25d1d975ed" x="483.409673" y="137.826503" style="fill: #2196f3; stroke: #2196f3"/>
     <use xlink:href="#m25d1d975ed" x="509.718418" y="145.299031" style="fill: #2196f3; stroke: #2196f3"/>
     <use xlink:href="#m25d1d975ed" x="536.027164" y="121.834116" style="fill: #2196f3; stroke: #2196f3"/>
     <use xlink:href="#m25d1d975ed" x="562.335909" y="131.598564" style="fill: #2196f3; stroke: #2196f3"/>
     <use xlink:href="#m25d1d975ed" x="588.644654" y="120.479036" style="fill: #2196f3; stroke: #2196f3"/>
     <use xlink:href="#m25d1d975ed" x="614.953399" y="116.281315" style="fill: #2196f3; stroke: #2196f3"/>
     <use xlink:href="#m25d1d975ed" x="641.262145" y="125.527205" style="fill: #2196f3; stroke: #2196f3"/>
     <use xlink:href="#m25d1d975ed" x="667.57089" y="137.166022" style="fill: #2196f3; stroke: #2196f3"/>
     <use xlink:href="#m25d1d975ed" x="693.879635" y="150.72906" style="fill: #2196f3; stroke: #2196f3"/>
    </g>
   </g>
   <g id="line2d_30">
    <path d="M 88.778495 199.920453 
L 115.08724 219.873218 
L 141.395985 222.553282 
L 167.70473 169.337189 
L 194.013476 217.310244 
L 220.322221 232.526592 
L 246.630966 232.652123 
L 272.939711 241.091799 
L 299.248457 276.334125 
L 325.557202 273.745587 
L 351.865947 221.397686 
L 378.174692 160.886164 
L 404.483438 130.771988 
L 430.792183 171.291579 
L 457.100928 182.618994 
L 483.409673 171.537759 
L 509.718418 192.101317 
L 536.027164 166.016421 
L 562.335909 142.280703 
L 588.644654 158.486767 
L 614.953399 124.978087 
L 641.262145 116.513079 
L 667.57089 142.987963 
L 693.879635 152.423863 
" clip-path="url(#p2c87257db4)" style="fill: none; stroke: #2196f3; stroke-opacity: 0.6; stroke-width: 0.6; stroke-linecap: square"/>
    <defs>
     <path id="m14541f8fac" d="M 0 1.5 
C 0.397805 1.5 0.77937 1.341951 1.06066 1.06066 
C 1.341951 0.77937 1.5 0.397805 1.5 0 
C 1.5 -0.397805 1.341951 -0.77937 1.06066 -1.06066 
C 0.77937 -1.341951 0.397805 -1.5 0 -1.5 
C -0.397805 -1.5 -0.77937 -1.341951 -1.06066 -1.06066 
C -1.341951 -0.77937 -1.5 -0.397805 -1.5 0 
C -1.5 0.397805 -1.341951 0.77937 -1.06066 1.06066 
C -0.77937 1.341951 -0.397805 1.5 0 1.5 
z
" style="stroke: #2196f3; stroke-opacity: 0.6"/>
    </defs>
    <g clip-path="url(#p2c87257db4)">
     <use xlink:href="#m14541f8fac" x="88.778495" y="199.920453" style="fill: #2196f3; fill-opacity: 0.6; stroke: #2196f3; stroke-opacity: 0.6"/>
     <use xlink:href="#m14541f8fac" x="115.08724" y="219.873218" style="fill: #2196f3; fill-opacity: 0.6; stroke: #2196f3; stroke-opacity: 0.6"/>
     <use xlink:href="#m14541f8fac" x="141.395985" y="222.553282" style="fill: #2196f3; fill-opacity: 0.6; stroke: #2196f3; stroke-opacity: 0.6"/>
     <use xlink:href="#m14541f8fac" x="167.70473" y="169.337189" style="fill: #2196f3; fill-opacity: 0.6; stroke: #2196f3; stroke-opacity: 0.6"/>
     <use xlink:href="#m14541f8fac" x="194.013476" y="217.310244" style="fill: #2196f3; fill-opacity: 0.6; stroke: #2196f3; stroke-opacity: 0.6"/>
     <use xlink:href="#m14541f8fac" x="220.322221" y="232.526592" style="fill: #2196f3; fill-opacity: 0.6; stroke: #2196f3; stroke-opacity: 0.6"/>
     <use xlink:href="#m14541f8fac" x="246.630966" y="232.652123" style="fill: #2196f3; fill-opacity: 0.6; stroke: #2196f3; stroke-opacity: 0.6"/>
     <use xlink:href="#m14541f8fac" x="272.939711" y="241.091799" style="fill: #2196f3; fill-opacity: 0.6; stroke: #2196f3; stroke-opacity: 0.6"/>
     <use xlink:href="#m14541f8fac" x="299.248457" y="276.334125" style="fill: #2196f3; fill-opacity: 0.6; stroke: #2196f3; stroke-opacity: 0.6"/>
     <use xlink:href="#m14541f8fac" x="325.557202" y="273.745587" style="fill: #2196f3; fill-opacity: 0.6; stroke: #2196f3; stroke-opacity: 0.6"/>
     <use xlink:href="#m14541f8fac" x="351.865947" y="221.397686" style="fill: #2196f3; fill-opacity: 0.6; stroke: #2196f3; stroke-opacity: 0.6"/>
     <use xlink:href="#m14541f8fac" x="378.174692" y="160.886164" style="fill: #2196f3; fill-opacity: 0.6; stroke: #2196f3; stroke-opacity: 0.6"/>
     <use xlink:href="#m14541f8fac" x="404.483438" y="130.771988" style="fill: #2196f3; fill-opacity: 0.6; stroke: #2196f3; stroke-opacity: 0.6"/>
     <use xlink:href="#m14541f8fac" x="430.792183" y="171.291579" style="fill: #2196f3; fill-opacity: 0.6; stroke: #2196f3; stroke-opacity: 0.6"/>
     <use xlink:href="#m14541f8fac" x="457.100928" y="182.618994" style="fill: #2196f3; fill-opacity: 0.6; stroke: #2196f3; stroke-opacity: 0.6"/>
     <use xlink:href="#m14541f8fac" x="483.409673" y="171.537759" style="fill: #2196f3; fill-opacity: 0.6; stroke: #2196f3; stroke-opacity: 0.6"/>
     <use xlink:href="#m14541f8fac" x="509.718418" y="192.101317" style="fill: #2196f3; fill-opacity: 0.6; stroke: #2196f3; stroke-opacity: 0.6"/>
     <use xlink:href="#m14541f8fac" x="536.027164" y="166.016421" style="fill: #2196f3; fill-opacity: 0.6; stroke: #2196f3; stroke-opacity: 0.6"/>
     <use xlink:href="#m14541f8fac" x="562.335909" y="142.280703" style="fill: #2196f3; fill-opacity: 0.6; stroke: #2196f3; stroke-opacity: 0.6"/>
     <use xlink:href="#m14541f8fac" x="588.644654" y="158.486767" style="fill: #2196f3; fill-opacity: 0.6; stroke: #2196f3; stroke-opacity: 0.6"/>
     <use xlink:href="#m14541f8fac" x="614.953399" y="124.978087" style="fill: #2196f3; fill-opacity: 0.6; stroke: #2196f3; stroke-opacity: 0.6"/>
     <use xlink:href="#m14541f8fac" x="641.262145" y="116.513079" style="fill: #2196f3; fill-opacity: 0.6; stroke: #2196f3; stroke-opacity: 0.6"/>
     <use xlink:href="#m14541f8fac" x="667.57089" y="142.987963" style="fill: #2196f3; fill-opacity: 0.6; stroke: #2196f3; stroke-opacity: 0.6"/>
     <use xlink:href="#m14541f8fac" x="693.879635" y="152.423863" style="fill: #2196f3; fill-opacity: 0.6; stroke: #2196f3; stroke-opacity: 0.6"/>
    </g>
   </g>
   <g id="line2d_31">
    <path d="M 88.778495 208.004436 
L 115.08724 171.723478 
L 141.395985 158.757456 
L 167.70473 168.806347 
L 194.013476 169.647582 
L 220.322221 200.756658 
L 246.630966 189.642039 
L 272.939711 180.998638 
L 299.248457 202.792579 
L 325.557202 207.867436 
L 351.865947 190.152263 
L 378.174692 170.475597 
L 404.483438 199.071822 
L 430.792183 181.057218 
L 457.100928 179.059478 
L 483.409673 167.062088 
L 509.718418 152.274396 
L 536.027164 95.809537 
L 562.335909 155.825907 
L 588.644654 147.586663 
L 614.953399 180.923272 
L 641.262145 158.125959 
L 667.57089 142.110646 
L 693.879635 123.382676 
" clip-path="url(#p2c87257db4)" style="fill: none; stroke: #2196f3; stroke-opacity: 0.6; stroke-width: 0.6; stroke-linecap: square"/>
    <g clip-path="url(#p2c87257db4)">
     <use xlink:href="#m14541f8fac" x="88.778495" y="208.004436" style="fill: #2196f3; fill-opacity: 0.6; stroke: #2196f3; stroke-opacity: 0.6"/>
     <use xlink:href="#m14541f8fac" x="115.08724" y="171.723478" style="fill: #2196f3; fill-opacity: 0.6; stroke: #2196f3; stroke-opacity: 0.6"/>
     <use xlink:href="#m14541f8fac" x="141.395985" y="158.757456" style="fill: #2196f3; fill-opacity: 0.6; stroke: #2196f3; stroke-opacity: 0.6"/>
     <use xlink:href="#m14541f8fac" x="167.70473" y="168.806347" style="fill: #2196f3; fill-opacity: 0.6; stroke: #2196f3; stroke-opacity: 0.6"/>
     <use xlink:href="#m14541f8fac" x="194.013476" y="169.647582" style="fill: #2196f3; fill-opacity: 0.6; stroke: #2196f3; stroke-opacity: 0.6"/>
     <use xlink:href="#m14541f8fac" x="220.322221" y="200.756658" style="fill: #2196f3; fill-opacity: 0.6; stroke: #2196f3; stroke-opacity: 0.6"/>
     <use xlink:href="#m14541f8fac" x="246.630966" y="189.642039" style="fill: #2196f3; fill-opacity: 0.6; stroke: #2196f3; stroke-opacity: 0.6"/>
     <use xlink:href="#m14541f8fac" x="272.939711" y="180.998638" style="fill: #2196f3; fill-opacity: 0.6; stroke: #2196f3; stroke-opacity: 0.6"/>
     <use xlink:href="#m14541f8fac" x="299.248457" y="202.792579" style="fill: #2196f3; fill-opacity: 0.6; stroke: #2196f3; stroke-opacity: 0.6"/>
     <use xlink:href="#m14541f8fac" x="325.557202" y="207.867436" style="fill: #2196f3; fill-opacity: 0.6; stroke: #2196f3; stroke-opacity: 0.6"/>
     <use xlink:href="#m14541f8fac" x="351.865947" y="190.152263" style="fill: #2196f3; fill-opacity: 0.6; stroke: #2196f3; stroke-opacity: 0.6"/>
     <use xlink:href="#m14541f8fac" x="378.174692" y="170.475597" style="fill: #2196f3; fill-opacity: 0.6; stroke: #2196f3; stroke-opacity: 0.6"/>
     <use xlink:href="#m14541f8fac" x="404.483438" y="199.071822" style="fill: #2196f3; fill-opacity: 0.6; stroke: #2196f3; stroke-opacity: 0.6"/>
     <use xlink:href="#m14541f8fac" x="430.792183" y="181.057218" style="fill: #2196f3; fill-opacity: 0.6; stroke: #2196f3; stroke-opacity: 0.6"/>
     <use xlink:href="#m14541f8fac" x="457.100928" y="179.059478" style="fill: #2196f3; fill-opacity: 0.6; stroke: #2196f3; stroke-opacity: 0.6"/>
     <use xlink:href="#m14541f8fac" x="483.409673" y="167.062088" style="fill: #2196f3; fill-opacity: 0.6; stroke: #2196f3; stroke-opacity: 0.6"/>
     <use xlink:href="#m14541f8fac" x="509.718418" y="152.274396" style="fill: #2196f3; fill-opacity: 0.6; stroke: #2196f3; stroke-opacity: 0.6"/>
     <use xlink:href="#m14541f8fac" x="536.027164" y="95.809537" style="fill: #2196f3; fill-opacity: 0.6; stroke: #2196f3; stroke-opacity: 0.6"/>
     <use xlink:href="#m14541f8fac" x="562.335909" y="155.825907" style="fill: #2196f3; fill-opacity: 0.6; stroke: #2196f3; stroke-opacity: 0.6"/>
     <use xlink:href="#m14541f8fac" x="588.644654" y="147.586663" style="fill: #2196f3; fill-opacity: 0.6; stroke: #2196f3; stroke-opacity: 0.6"/>
     <use xlink:href="#m14541f8fac" x="614.953399" y="180.923272" style="fill: #2196f3; fill-opacity: 0.6; stroke: #2196f3; stroke-opacity: 0.6"/>
     <use xlink:href="#m14541f8fac" x="641.262145" y="158.125959" style="fill: #2196f3; fill-opacity: 0.6; stroke: #2196f3; stroke-opacity: 0.6"/>
     <use xlink:href="#m14541f8fac" x="667.57089" y="142.110646" style="fill: #2196f3; fill-opacity: 0.6; stroke: #2196f3; stroke-opacity: 0.6"/>
     <use xlink:href="#m14541f8fac" x="693.879635" y="123.382676" style="fill: #2196f3; fill-opacity: 0.6; stroke: #2196f3; stroke-opacity: 0.6"/>
    </g>
   </g>
   <g id="line2d_32">
    <path d="M 88.778495 218.386294 
L 115.08724 183.074953 
L 141.395985 156.576782 
L 167.70473 124.778901 
L 194.013476 65.622803 
L 220.322221 99.106597 
L 246.630966 74.627468 
L 272.939711 133.443994 
L 299.248457 158.187555 
L 325.557202 164.799011 
L 351.865947 170.579592 
L 378.174692 219.902451 
L 404.483438 186.64397 
L 430.792183 146.195906 
L 457.100928 117.882712 
L 483.409673 139.070454 
L 509.718418 139.627351 
L 536.027164 136.353981 
L 562.335909 139.704373 
L 588.644654 111.810066 
L 614.953399 97.454413 
L 641.262145 115.503792 
L 667.57089 136.166664 
L 693.879635 159.050745 
" clip-path="url(#p2c87257db4)" style="fill: none; stroke: #2196f3; stroke-opacity: 0.6; stroke-width: 0.6; stroke-linecap: square"/>
    <g clip-path="url(#p2c87257db4)">
     <use xlink:href="#m14541f8fac" x="88.778495" y="218.386294" style="fill: #2196f3; fill-opacity: 0.6; stroke: #2196f3; stroke-opacity: 0.6"/>
     <use xlink:href="#m14541f8fac" x="115.08724" y="183.074953" style="fill: #2196f3; fill-opacity: 0.6; stroke: #2196f3; stroke-opacity: 0.6"/>
     <use xlink:href="#m14541f8fac" x="141.395985" y="156.576782" style="fill: #2196f3; fill-opacity: 0.6; stroke: #2196f3; stroke-opacity: 0.6"/>
     <use xlink:href="#m14541f8fac" x="167.70473" y="124.778901" style="fill: #2196f3; fill-opacity: 0.6; stroke: #2196f3; stroke-opacity: 0.6"/>
     <use xlink:href="#m14541f8fac" x="194.013476" y="65.622803" style="fill: #2196f3; fill-opacity: 0.6; stroke: #2196f3; stroke-opacity: 0.6"/>
     <use xlink:href="#m14541f8fac" x="220.322221" y="99.106597" style="fill: #2196f3; fill-opacity: 0.6; stroke: #2196f3; stroke-opacity: 0.6"/>
     <use xlink:href="#m14541f8fac" x="246.630966" y="74.627468" style="fill: #2196f3; fill-opacity: 0.6; stroke: #2196f3; stroke-opacity: 0.6"/>
     <use xlink:href="#m14541f8fac" x="272.939711" y="133.443994" style="fill: #2196f3; fill-opacity: 0.6; stroke: #2196f3; stroke-opacity: 0.6"/>
     <use xlink:href="#m14541f8fac" x="299.248457" y="158.187555" style="fill: #2196f3; fill-opacity: 0.6; stroke: #2196f3; stroke-opacity: 0.6"/>
     <use xlink:href="#m14541f8fac" x="325.557202" y="164.799011" style="fill: #2196f3; fill-opacity: 0.6; stroke: #2196f3; stroke-opacity: 0.6"/>
     <use xlink:href="#m14541f8fac" x="351.865947" y="170.579592" style="fill: #2196f3; fill-opacity: 0.6; stroke: #2196f3; stroke-opacity: 0.6"/>
     <use xlink:href="#m14541f8fac" x="378.174692" y="219.902451" style="fill: #2196f3; fill-opacity: 0.6; stroke: #2196f3; stroke-opacity: 0.6"/>
     <use xlink:href="#m14541f8fac" x="404.483438" y="186.64397" style="fill: #2196f3; fill-opacity: 0.6; stroke: #2196f3; stroke-opacity: 0.6"/>
     <use xlink:href="#m14541f8fac" x="430.792183" y="146.195906" style="fill: #2196f3; fill-opacity: 0.6; stroke: #2196f3; stroke-opacity: 0.6"/>
     <use xlink:href="#m14541f8fac" x="457.100928" y="117.882712" style="fill: #2196f3; fill-opacity: 0.6; stroke: #2196f3; stroke-opacity: 0.6"/>
     <use xlink:href="#m14541f8fac" x="483.409673" y="139.070454" style="fill: #2196f3; fill-opacity: 0.6; stroke: #2196f3; stroke-opacity: 0.6"/>
     <use xlink:href="#m14541f8fac" x="509.718418" y="139.627351" style="fill: #2196f3; fill-opacity: 0.6; stroke: #2196f3; stroke-opacity: 0.6"/>
     <use xlink:href="#m14541f8fac" x="536.027164" y="136.353981" style="fill: #2196f3; fill-opacity: 0.6; stroke: #2196f3; stroke-opacity: 0.6"/>
     <use xlink:href="#m14541f8fac" x="562.335909" y="139.704373" style="fill: #2196f3; fill-opacity: 0.6; stroke: #2196f3; stroke-opacity: 0.6"/>
     <use xlink:href="#m14541f8fac" x="588.644654" y="111.810066" style="fill: #2196f3; fill-opacity: 0.6; stroke: #2196f3; stroke-opacity: 0.6"/>
     <use xlink:href="#m14541f8fac" x="614.953399" y="97.454413" style="fill: #2196f3; fill-opacity: 0.6; stroke: #2196f3; stroke-opacity: 0.6"/>
     <use xlink:href="#m14541f8fac" x="641.262145" y="115.503792" style="fill: #2196f3; fill-opacity: 0.6; stroke: #2196f3; stroke-opacity: 0.6"/>
     <use xlink:href="#m14541f8fac" x="667.57089" y="136.166664" style="fill: #2196f3; fill-opacity: 0.6; stroke: #2196f3; stroke-opacity: 0.6"/>
     <use xlink:href="#m14541f8fac" x="693.879635" y="159.050745" style="fill: #2196f3; fill-opacity: 0.6; stroke: #2196f3; stroke-opacity: 0.6"/>
    </g>
   </g>
   <g id="line2d_33">
    <path d="M 88.778495 66.717575 
L 115.08724 57.521301 
L 141.395985 75.19093 
L 167.70473 98.657003 
L 194.013476 96.253901 
L 220.322221 87.61708 
L 246.630966 109.179337 
L 272.939711 112.724935 
L 299.248457 79.392677 
L 325.557202 83.130068 
L 351.865947 83.761395 
L 378.174692 57.101582 
L 404.483438 60.736849 
L 430.792183 34.414125 
L 457.100928 59.273488 
L 483.409673 73.635713 
L 509.718418 97.193059 
L 536.027164 89.156527 
L 562.335909 88.583272 
L 588.644654 64.032648 
L 614.953399 61.769488 
L 641.262145 111.96599 
L 667.57089 127.398816 
L 693.879635 168.058956 
" clip-path="url(#p2c87257db4)" style="fill: none; stroke: #2196f3; stroke-opacity: 0.6; stroke-width: 0.6; stroke-linecap: square"/>
    <g clip-path="url(#p2c87257db4)">
     <use xlink:href="#m14541f8fac" x="88.778495" y="66.717575" style="fill: #2196f3; fill-opacity: 0.6; stroke: #2196f3; stroke-opacity: 0.6"/>
     <use xlink:href="#m14541f8fac" x="115.08724" y="57.521301" style="fill: #2196f3; fill-opacity: 0.6; stroke: #2196f3; stroke-opacity: 0.6"/>
     <use xlink:href="#m14541f8fac" x="141.395985" y="75.19093" style="fill: #2196f3; fill-opacity: 0.6; stroke: #2196f3; stroke-opacity: 0.6"/>
     <use xlink:href="#m14541f8fac" x="167.70473" y="98.657003" style="fill: #2196f3; fill-opacity: 0.6; stroke: #2196f3; stroke-opacity: 0.6"/>
     <use xlink:href="#m14541f8fac" x="194.013476" y="96.253901" style="fill: #2196f3; fill-opacity: 0.6; stroke: #2196f3; stroke-opacity: 0.6"/>
     <use xlink:href="#m14541f8fac" x="220.322221" y="87.61708" style="fill: #2196f3; fill-opacity: 0.6; stroke: #2196f3; stroke-opacity: 0.6"/>
     <use xlink:href="#m14541f8fac" x="246.630966" y="109.179337" style="fill: #2196f3; fill-opacity: 0.6; stroke: #2196f3; stroke-opacity: 0.6"/>
     <use xlink:href="#m14541f8fac" x="272.939711" y="112.724935" style="fill: #2196f3; fill-opacity: 0.6; stroke: #2196f3; stroke-opacity: 0.6"/>
     <use xlink:href="#m14541f8fac" x="299.248457" y="79.392677" style="fill: #2196f3; fill-opacity: 0.6; stroke: #2196f3; stroke-opacity: 0.6"/>
     <use xlink:href="#m14541f8fac" x="325.557202" y="83.130068" style="fill: #2196f3; fill-opacity: 0.6; stroke: #2196f3; stroke-opacity: 0.6"/>
     <use xlink:href="#m14541f8fac" x="351.865947" y="83.761395" style="fill: #2196f3; fill-opacity: 0.6; stroke: #2196f3; stroke-opacity: 0.6"/>
     <use xlink:href="#m14541f8fac" x="378.174692" y="57.101582" style="fill: #2196f3; fill-opacity: 0.6; stroke: #2196f3; stroke-opacity: 0.6"/>
     <use xlink:href="#m14541f8fac" x="404.483438" y="60.736849" style="fill: #2196f3; fill-opacity: 0.6; stroke: #2196f3; stroke-opacity: 0.6"/>
     <use xlink:href="#m14541f8fac" x="430.792183" y="34.414125" style="fill: #2196f3; fill-opacity: 0.6; stroke: #2196f3; stroke-opacity: 0.6"/>
     <use xlink:href="#m14541f8fac" x="457.100928" y="59.273488" style="fill: #2196f3; fill-opacity: 0.6; stroke: #2196f3; stroke-opacity: 0.6"/>
     <use xlink:href="#m14541f8fac" x="483.409673" y="73.635713" style="fill: #2196f3; fill-opacity: 0.6; stroke: #2196f3; stroke-opacity: 0.6"/>
     <use xlink:href="#m14541f8fac" x="509.718418" y="97.193059" style="fill: #2196f3; fill-opacity: 0.6; stroke: #2196f3; stroke-opacity: 0.6"/>
     <use xlink:href="#m14541f8fac" x="536.027164" y="89.156527" style="fill: #2196f3; fill-opacity: 0.6; stroke: #2196f3; stroke-opacity: 0.6"/>
     <use xlink:href="#m14541f8fac" x="562.335909" y="88.583272" style="fill: #2196f3; fill-opacity: 0.6; stroke: #2196f3; stroke-opacity: 0.6"/>
     <use xlink:href="#m14541f8fac" x="588.644654" y="64.032648" style="fill: #2196f3; fill-opacity: 0.6; stroke: #2196f3; stroke-opacity: 0.6"/>
     <use xlink:href="#m14541f8fac" x="614.953399" y="61.769488" style="fill: #2196f3; fill-opacity: 0.6; stroke: #2196f3; stroke-opacity: 0.6"/>
     <use xlink:href="#m14541f8fac" x="641.262145" y="111.96599" style="fill: #2196f3; fill-opacity: 0.6; stroke: #2196f3; stroke-opacity: 0.6"/>
     <use xlink:href="#m14541f8fac" x="667.57089" y="127.398816" style="fill: #2196f3; fill-opacity: 0.6; stroke: #2196f3; stroke-opacity: 0.6"/>
     <use xlink:href="#m14541f8fac" x="693.879635" y="168.058956" style="fill: #2196f3; fill-opacity: 0.6; stroke: #2196f3; stroke-opacity: 0.6"/>
    </g>
   </g>
   <g id="patch_3">
    <path d="M 58.523438 288.430125 
L 58.523438 22.318125 
" style="fill: none"/>
   </g>
   <g id="patch_4">
    <path d="M 750.443438 288.430125 
L 750.443438 22.318125 
" style="fill: none"/>
   </g>
   <g id="patch_5">
    <path d="M 58.523438 288.430125 
L 750.443438 288.430125 
" style="fill: none"/>
   </g>
   <g id="patch_6">
    <path d="M 58.523438 22.318125 
L 750.443438 22.318125 
" style="fill: none"/>
   </g>
   <g id="text_16">
    <!-- HMC -->
    <g style="fill: #666666" transform="translate(390.604688 16.318125) scale(0.12 -0.12)">
     <defs>
      <path id="DejaVuSans-48" d="M 628 4666 
L 1259 4666 
L 1259 2753 
L 3553 2753 
L 3553 4666 
L 4184 4666 
L 4184 0 
L 3553 0 
L 3553 2222 
L 1259 2222 
L 1259 0 
L 628 0 
L 628 4666 
z
" transform="scale(0.015625)"/>
      <path id="DejaVuSans-4d" d="M 628 4666 
L 1569 4666 
L 2759 1491 
L 3956 4666 
L 4897 4666 
L 4897 0 
L 4281 0 
L 4281 4097 
L 3078 897 
L 2444 897 
L 1241 4097 
L 1241 0 
L 628 0 
L 628 4666 
z
" transform="scale(0.015625)"/>
      <path id="DejaVuSans-43" d="M 4122 4306 
L 4122 3641 
Q 3803 3938 3442 4084 
Q 3081 4231 2675 4231 
Q 1875 4231 1450 3742 
Q 1025 3253 1025 2328 
Q 1025 1406 1450 917 
Q 1875 428 2675 428 
Q 3081 428 3442 575 
Q 3803 722 4122 1019 
L 4122 359 
Q 3791 134 3420 21 
Q 3050 -91 2638 -91 
Q 1578 -91 968 557 
Q 359 1206 359 2328 
Q 359 3453 968 4101 
Q 1578 4750 2638 4750 
Q 3056 4750 3426 4639 
Q 3797 4528 4122 4306 
z
" transform="scale(0.015625)"/>
     </defs>
     <use xlink:href="#DejaVuSans-48"/>
     <use xlink:href="#DejaVuSans-4d" x="75.195312"/>
     <use xlink:href="#DejaVuSans-43" x="161.474609"/>
    </g>
   </g>
  </g>
 </g>
 <defs>
  <clipPath id="p2c87257db4">
   <rect x="58.523438" y="22.318125" width="691.92" height="266.112"/>
  </clipPath>
 </defs>
</svg>
