<?xml version="1.0" encoding="utf-8" standalone="no"?>
<!DOCTYPE svg PUBLIC "-//W3C//DTD SVG 1.1//EN"
  "http://www.w3.org/Graphics/SVG/1.1/DTD/svg11.dtd">
<svg xmlns:xlink="http://www.w3.org/1999/xlink" width="750.384432pt" height="312.30825pt" viewBox="0 0 750.384432 312.30825" xmlns="http://www.w3.org/2000/svg" version="1.1">
 <metadata>
  <rdf:RDF xmlns:dc="http://purl.org/dc/elements/1.1/" xmlns:cc="http://creativecommons.org/ns#" xmlns:rdf="http://www.w3.org/1999/02/22-rdf-syntax-ns#">
   <cc:Work>
    <dc:type rdf:resource="http://purl.org/dc/dcmitype/StillImage"/>
    <dc:date>2023-07-10T07:57:41.403984</dc:date>
    <dc:format>image/svg+xml</dc:format>
    <dc:creator>
     <cc:Agent>
      <dc:title>Matplotlib v3.7.1, https://matplotlib.org/</dc:title>
     </cc:Agent>
    </dc:creator>
   </cc:Work>
  </rdf:RDF>
 </metadata>
 <defs>
  <style type="text/css">*{stroke-linejoin: round; stroke-linecap: butt}</style>
 </defs>
 <g id="figure_1">
  <g id="patch_1">
   <path d="M 0 312.30825 
L 750.384432 312.30825 
L 750.384432 0 
L 0 0 
L 0 312.30825 
z
" style="fill: none"/>
  </g>
  <g id="axes_1">
   <g id="patch_2">
    <path d="M 50.14375 288.430125 
L 742.06375 288.430125 
L 742.06375 22.318125 
L 50.14375 22.318125 
L 50.14375 288.430125 
z
" style="fill: none"/>
   </g>
   <g id="matplotlib.axis_1">
    <g id="xtick_1">
     <g id="line2d_1">
      <path d="M 81.594659 288.430125 
L 81.594659 22.318125 
" clip-path="url(#pc49b053da4)" style="fill: none; stroke-dasharray: 1.85,0.8; stroke-dashoffset: 0; stroke: #666666; stroke-opacity: 0.4; stroke-width: 0.5"/>
     </g>
     <g id="line2d_2">
      <defs>
       <path id="m628bc48767" d="M 0 0 
L 0 3.5 
" style="stroke: #000000; stroke-opacity: 0; stroke-width: 0.8"/>
      </defs>
      <g>
       <use xlink:href="#m628bc48767" x="81.594659" y="288.430125" style="fill-opacity: 0; stroke: #000000; stroke-opacity: 0; stroke-width: 0.8"/>
      </g>
     </g>
     <g id="text_1">
      <!-- 0 -->
      <g style="fill: #666666" transform="translate(78.413409 303.028562) scale(0.1 -0.1)">
       <defs>
        <path id="DejaVuSans-30" d="M 2034 4250 
Q 1547 4250 1301 3770 
Q 1056 3291 1056 2328 
Q 1056 1369 1301 889 
Q 1547 409 2034 409 
Q 2525 409 2770 889 
Q 3016 1369 3016 2328 
Q 3016 3291 2770 3770 
Q 2525 4250 2034 4250 
z
M 2034 4750 
Q 2819 4750 3233 4129 
Q 3647 3509 3647 2328 
Q 3647 1150 3233 529 
Q 2819 -91 2034 -91 
Q 1250 -91 836 529 
Q 422 1150 422 2328 
Q 422 3509 836 4129 
Q 1250 4750 2034 4750 
z
" transform="scale(0.015625)"/>
       </defs>
       <use xlink:href="#DejaVuSans-30"/>
      </g>
     </g>
    </g>
    <g id="xtick_2">
     <g id="line2d_3">
      <path d="M 212.640114 288.430125 
L 212.640114 22.318125 
" clip-path="url(#pc49b053da4)" style="fill: none; stroke-dasharray: 1.85,0.8; stroke-dashoffset: 0; stroke: #666666; stroke-opacity: 0.4; stroke-width: 0.5"/>
     </g>
     <g id="line2d_4">
      <g>
       <use xlink:href="#m628bc48767" x="212.640114" y="288.430125" style="fill-opacity: 0; stroke: #000000; stroke-opacity: 0; stroke-width: 0.8"/>
      </g>
     </g>
     <g id="text_2">
      <!-- 10 -->
      <g style="fill: #666666" transform="translate(206.277614 303.028562) scale(0.1 -0.1)">
       <defs>
        <path id="DejaVuSans-31" d="M 794 531 
L 1825 531 
L 1825 4091 
L 703 3866 
L 703 4441 
L 1819 4666 
L 2450 4666 
L 2450 531 
L 3481 531 
L 3481 0 
L 794 0 
L 794 531 
z
" transform="scale(0.015625)"/>
       </defs>
       <use xlink:href="#DejaVuSans-31"/>
       <use xlink:href="#DejaVuSans-30" x="63.623047"/>
      </g>
     </g>
    </g>
    <g id="xtick_3">
     <g id="line2d_5">
      <path d="M 343.685568 288.430125 
L 343.685568 22.318125 
" clip-path="url(#pc49b053da4)" style="fill: none; stroke-dasharray: 1.85,0.8; stroke-dashoffset: 0; stroke: #666666; stroke-opacity: 0.4; stroke-width: 0.5"/>
     </g>
     <g id="line2d_6">
      <g>
       <use xlink:href="#m628bc48767" x="343.685568" y="288.430125" style="fill-opacity: 0; stroke: #000000; stroke-opacity: 0; stroke-width: 0.8"/>
      </g>
     </g>
     <g id="text_3">
      <!-- 20 -->
      <g style="fill: #666666" transform="translate(337.323068 303.028562) scale(0.1 -0.1)">
       <defs>
        <path id="DejaVuSans-32" d="M 1228 531 
L 3431 531 
L 3431 0 
L 469 0 
L 469 531 
Q 828 903 1448 1529 
Q 2069 2156 2228 2338 
Q 2531 2678 2651 2914 
Q 2772 3150 2772 3378 
Q 2772 3750 2511 3984 
Q 2250 4219 1831 4219 
Q 1534 4219 1204 4116 
Q 875 4013 500 3803 
L 500 4441 
Q 881 4594 1212 4672 
Q 1544 4750 1819 4750 
Q 2544 4750 2975 4387 
Q 3406 4025 3406 3419 
Q 3406 3131 3298 2873 
Q 3191 2616 2906 2266 
Q 2828 2175 2409 1742 
Q 1991 1309 1228 531 
z
" transform="scale(0.015625)"/>
       </defs>
       <use xlink:href="#DejaVuSans-32"/>
       <use xlink:href="#DejaVuSans-30" x="63.623047"/>
      </g>
     </g>
    </g>
    <g id="xtick_4">
     <g id="line2d_7">
      <path d="M 474.731023 288.430125 
L 474.731023 22.318125 
" clip-path="url(#pc49b053da4)" style="fill: none; stroke-dasharray: 1.85,0.8; stroke-dashoffset: 0; stroke: #666666; stroke-opacity: 0.4; stroke-width: 0.5"/>
     </g>
     <g id="line2d_8">
      <g>
       <use xlink:href="#m628bc48767" x="474.731023" y="288.430125" style="fill-opacity: 0; stroke: #000000; stroke-opacity: 0; stroke-width: 0.8"/>
      </g>
     </g>
     <g id="text_4">
      <!-- 30 -->
      <g style="fill: #666666" transform="translate(468.368523 303.028562) scale(0.1 -0.1)">
       <defs>
        <path id="DejaVuSans-33" d="M 2597 2516 
Q 3050 2419 3304 2112 
Q 3559 1806 3559 1356 
Q 3559 666 3084 287 
Q 2609 -91 1734 -91 
Q 1441 -91 1130 -33 
Q 819 25 488 141 
L 488 750 
Q 750 597 1062 519 
Q 1375 441 1716 441 
Q 2309 441 2620 675 
Q 2931 909 2931 1356 
Q 2931 1769 2642 2001 
Q 2353 2234 1838 2234 
L 1294 2234 
L 1294 2753 
L 1863 2753 
Q 2328 2753 2575 2939 
Q 2822 3125 2822 3475 
Q 2822 3834 2567 4026 
Q 2313 4219 1838 4219 
Q 1578 4219 1281 4162 
Q 984 4106 628 3988 
L 628 4550 
Q 988 4650 1302 4700 
Q 1616 4750 1894 4750 
Q 2613 4750 3031 4423 
Q 3450 4097 3450 3541 
Q 3450 3153 3228 2886 
Q 3006 2619 2597 2516 
z
" transform="scale(0.015625)"/>
       </defs>
       <use xlink:href="#DejaVuSans-33"/>
       <use xlink:href="#DejaVuSans-30" x="63.623047"/>
      </g>
     </g>
    </g>
    <g id="xtick_5">
     <g id="line2d_9">
      <path d="M 605.776477 288.430125 
L 605.776477 22.318125 
" clip-path="url(#pc49b053da4)" style="fill: none; stroke-dasharray: 1.85,0.8; stroke-dashoffset: 0; stroke: #666666; stroke-opacity: 0.4; stroke-width: 0.5"/>
     </g>
     <g id="line2d_10">
      <g>
       <use xlink:href="#m628bc48767" x="605.776477" y="288.430125" style="fill-opacity: 0; stroke: #000000; stroke-opacity: 0; stroke-width: 0.8"/>
      </g>
     </g>
     <g id="text_5">
      <!-- 40 -->
      <g style="fill: #666666" transform="translate(599.413977 303.028562) scale(0.1 -0.1)">
       <defs>
        <path id="DejaVuSans-34" d="M 2419 4116 
L 825 1625 
L 2419 1625 
L 2419 4116 
z
M 2253 4666 
L 3047 4666 
L 3047 1625 
L 3713 1625 
L 3713 1100 
L 3047 1100 
L 3047 0 
L 2419 0 
L 2419 1100 
L 313 1100 
L 313 1709 
L 2253 4666 
z
" transform="scale(0.015625)"/>
       </defs>
       <use xlink:href="#DejaVuSans-34"/>
       <use xlink:href="#DejaVuSans-30" x="63.623047"/>
      </g>
     </g>
    </g>
    <g id="xtick_6">
     <g id="line2d_11">
      <path d="M 736.821932 288.430125 
L 736.821932 22.318125 
" clip-path="url(#pc49b053da4)" style="fill: none; stroke-dasharray: 1.85,0.8; stroke-dashoffset: 0; stroke: #666666; stroke-opacity: 0.4; stroke-width: 0.5"/>
     </g>
     <g id="line2d_12">
      <g>
       <use xlink:href="#m628bc48767" x="736.821932" y="288.430125" style="fill-opacity: 0; stroke: #000000; stroke-opacity: 0; stroke-width: 0.8"/>
      </g>
     </g>
     <g id="text_6">
      <!-- 50 -->
      <g style="fill: #666666" transform="translate(730.459432 303.028562) scale(0.1 -0.1)">
       <defs>
        <path id="DejaVuSans-35" d="M 691 4666 
L 3169 4666 
L 3169 4134 
L 1269 4134 
L 1269 2991 
Q 1406 3038 1543 3061 
Q 1681 3084 1819 3084 
Q 2600 3084 3056 2656 
Q 3513 2228 3513 1497 
Q 3513 744 3044 326 
Q 2575 -91 1722 -91 
Q 1428 -91 1123 -41 
Q 819 9 494 109 
L 494 744 
Q 775 591 1075 516 
Q 1375 441 1709 441 
Q 2250 441 2565 725 
Q 2881 1009 2881 1497 
Q 2881 1984 2565 2268 
Q 2250 2553 1709 2553 
Q 1456 2553 1204 2497 
Q 953 2441 691 2322 
L 691 4666 
z
" transform="scale(0.015625)"/>
       </defs>
       <use xlink:href="#DejaVuSans-35"/>
       <use xlink:href="#DejaVuSans-30" x="63.623047"/>
      </g>
     </g>
    </g>
   </g>
   <g id="matplotlib.axis_2">
    <g id="ytick_1">
     <g id="line2d_13">
      <path d="M 50.14375 276.334125 
L 742.06375 276.334125 
" clip-path="url(#pc49b053da4)" style="fill: none; stroke-dasharray: 1.85,0.8; stroke-dashoffset: 0; stroke: #666666; stroke-opacity: 0.4; stroke-width: 0.5"/>
     </g>
     <g id="line2d_14">
      <defs>
       <path id="m478c539562" d="M 0 0 
L -3.5 0 
" style="stroke: #000000; stroke-opacity: 0; stroke-width: 0.8"/>
      </defs>
      <g>
       <use xlink:href="#m478c539562" x="50.14375" y="276.334125" style="fill-opacity: 0; stroke: #000000; stroke-opacity: 0; stroke-width: 0.8"/>
      </g>
     </g>
     <g id="text_7">
      <!-- 0.00 -->
      <g style="fill: #666666" transform="translate(20.878125 280.133344) scale(0.1 -0.1)">
       <defs>
        <path id="DejaVuSans-2e" d="M 684 794 
L 1344 794 
L 1344 0 
L 684 0 
L 684 794 
z
" transform="scale(0.015625)"/>
       </defs>
       <use xlink:href="#DejaVuSans-30"/>
       <use xlink:href="#DejaVuSans-2e" x="63.623047"/>
       <use xlink:href="#DejaVuSans-30" x="95.410156"/>
       <use xlink:href="#DejaVuSans-30" x="159.033203"/>
      </g>
     </g>
    </g>
    <g id="ytick_2">
     <g id="line2d_15">
      <path d="M 50.14375 236.614013 
L 742.06375 236.614013 
" clip-path="url(#pc49b053da4)" style="fill: none; stroke-dasharray: 1.85,0.8; stroke-dashoffset: 0; stroke: #666666; stroke-opacity: 0.4; stroke-width: 0.5"/>
     </g>
     <g id="line2d_16">
      <g>
       <use xlink:href="#m478c539562" x="50.14375" y="236.614013" style="fill-opacity: 0; stroke: #000000; stroke-opacity: 0; stroke-width: 0.8"/>
      </g>
     </g>
     <g id="text_8">
      <!-- 0.05 -->
      <g style="fill: #666666" transform="translate(20.878125 240.413231) scale(0.1 -0.1)">
       <use xlink:href="#DejaVuSans-30"/>
       <use xlink:href="#DejaVuSans-2e" x="63.623047"/>
       <use xlink:href="#DejaVuSans-30" x="95.410156"/>
       <use xlink:href="#DejaVuSans-35" x="159.033203"/>
      </g>
     </g>
    </g>
    <g id="ytick_3">
     <g id="line2d_17">
      <path d="M 50.14375 196.8939 
L 742.06375 196.8939 
" clip-path="url(#pc49b053da4)" style="fill: none; stroke-dasharray: 1.85,0.8; stroke-dashoffset: 0; stroke: #666666; stroke-opacity: 0.4; stroke-width: 0.5"/>
     </g>
     <g id="line2d_18">
      <g>
       <use xlink:href="#m478c539562" x="50.14375" y="196.8939" style="fill-opacity: 0; stroke: #000000; stroke-opacity: 0; stroke-width: 0.8"/>
      </g>
     </g>
     <g id="text_9">
      <!-- 0.10 -->
      <g style="fill: #666666" transform="translate(20.878125 200.693119) scale(0.1 -0.1)">
       <use xlink:href="#DejaVuSans-30"/>
       <use xlink:href="#DejaVuSans-2e" x="63.623047"/>
       <use xlink:href="#DejaVuSans-31" x="95.410156"/>
       <use xlink:href="#DejaVuSans-30" x="159.033203"/>
      </g>
     </g>
    </g>
    <g id="ytick_4">
     <g id="line2d_19">
      <path d="M 50.14375 157.173788 
L 742.06375 157.173788 
" clip-path="url(#pc49b053da4)" style="fill: none; stroke-dasharray: 1.85,0.8; stroke-dashoffset: 0; stroke: #666666; stroke-opacity: 0.4; stroke-width: 0.5"/>
     </g>
     <g id="line2d_20">
      <g>
       <use xlink:href="#m478c539562" x="50.14375" y="157.173788" style="fill-opacity: 0; stroke: #000000; stroke-opacity: 0; stroke-width: 0.8"/>
      </g>
     </g>
     <g id="text_10">
      <!-- 0.15 -->
      <g style="fill: #666666" transform="translate(20.878125 160.973007) scale(0.1 -0.1)">
       <use xlink:href="#DejaVuSans-30"/>
       <use xlink:href="#DejaVuSans-2e" x="63.623047"/>
       <use xlink:href="#DejaVuSans-31" x="95.410156"/>
       <use xlink:href="#DejaVuSans-35" x="159.033203"/>
      </g>
     </g>
    </g>
    <g id="ytick_5">
     <g id="line2d_21">
      <path d="M 50.14375 117.453676 
L 742.06375 117.453676 
" clip-path="url(#pc49b053da4)" style="fill: none; stroke-dasharray: 1.85,0.8; stroke-dashoffset: 0; stroke: #666666; stroke-opacity: 0.4; stroke-width: 0.5"/>
     </g>
     <g id="line2d_22">
      <g>
       <use xlink:href="#m478c539562" x="50.14375" y="117.453676" style="fill-opacity: 0; stroke: #000000; stroke-opacity: 0; stroke-width: 0.8"/>
      </g>
     </g>
     <g id="text_11">
      <!-- 0.20 -->
      <g style="fill: #666666" transform="translate(20.878125 121.252895) scale(0.1 -0.1)">
       <use xlink:href="#DejaVuSans-30"/>
       <use xlink:href="#DejaVuSans-2e" x="63.623047"/>
       <use xlink:href="#DejaVuSans-32" x="95.410156"/>
       <use xlink:href="#DejaVuSans-30" x="159.033203"/>
      </g>
     </g>
    </g>
    <g id="ytick_6">
     <g id="line2d_23">
      <path d="M 50.14375 77.733564 
L 742.06375 77.733564 
" clip-path="url(#pc49b053da4)" style="fill: none; stroke-dasharray: 1.85,0.8; stroke-dashoffset: 0; stroke: #666666; stroke-opacity: 0.4; stroke-width: 0.5"/>
     </g>
     <g id="line2d_24">
      <g>
       <use xlink:href="#m478c539562" x="50.14375" y="77.733564" style="fill-opacity: 0; stroke: #000000; stroke-opacity: 0; stroke-width: 0.8"/>
      </g>
     </g>
     <g id="text_12">
      <!-- 0.25 -->
      <g style="fill: #666666" transform="translate(20.878125 81.532782) scale(0.1 -0.1)">
       <use xlink:href="#DejaVuSans-30"/>
       <use xlink:href="#DejaVuSans-2e" x="63.623047"/>
       <use xlink:href="#DejaVuSans-32" x="95.410156"/>
       <use xlink:href="#DejaVuSans-35" x="159.033203"/>
      </g>
     </g>
    </g>
    <g id="ytick_7">
     <g id="line2d_25">
      <path d="M 50.14375 38.013451 
L 742.06375 38.013451 
" clip-path="url(#pc49b053da4)" style="fill: none; stroke-dasharray: 1.85,0.8; stroke-dashoffset: 0; stroke: #666666; stroke-opacity: 0.4; stroke-width: 0.5"/>
     </g>
     <g id="line2d_26">
      <g>
       <use xlink:href="#m478c539562" x="50.14375" y="38.013451" style="fill-opacity: 0; stroke: #000000; stroke-opacity: 0; stroke-width: 0.8"/>
      </g>
     </g>
     <g id="text_13">
      <!-- 0.30 -->
      <g style="fill: #666666" transform="translate(20.878125 41.81267) scale(0.1 -0.1)">
       <use xlink:href="#DejaVuSans-30"/>
       <use xlink:href="#DejaVuSans-2e" x="63.623047"/>
       <use xlink:href="#DejaVuSans-33" x="95.410156"/>
       <use xlink:href="#DejaVuSans-30" x="159.033203"/>
      </g>
     </g>
    </g>
    <g id="text_14">
     <!-- sldb -->
     <g style="fill: #bdbdbd" transform="translate(14.798438 165.716312) rotate(-90) scale(0.1 -0.1)">
      <defs>
       <path id="DejaVuSans-73" d="M 2834 3397 
L 2834 2853 
Q 2591 2978 2328 3040 
Q 2066 3103 1784 3103 
Q 1356 3103 1142 2972 
Q 928 2841 928 2578 
Q 928 2378 1081 2264 
Q 1234 2150 1697 2047 
L 1894 2003 
Q 2506 1872 2764 1633 
Q 3022 1394 3022 966 
Q 3022 478 2636 193 
Q 2250 -91 1575 -91 
Q 1294 -91 989 -36 
Q 684 19 347 128 
L 347 722 
Q 666 556 975 473 
Q 1284 391 1588 391 
Q 1994 391 2212 530 
Q 2431 669 2431 922 
Q 2431 1156 2273 1281 
Q 2116 1406 1581 1522 
L 1381 1569 
Q 847 1681 609 1914 
Q 372 2147 372 2553 
Q 372 3047 722 3315 
Q 1072 3584 1716 3584 
Q 2034 3584 2315 3537 
Q 2597 3491 2834 3397 
z
" transform="scale(0.015625)"/>
       <path id="DejaVuSans-6c" d="M 603 4863 
L 1178 4863 
L 1178 0 
L 603 0 
L 603 4863 
z
" transform="scale(0.015625)"/>
       <path id="DejaVuSans-64" d="M 2906 2969 
L 2906 4863 
L 3481 4863 
L 3481 0 
L 2906 0 
L 2906 525 
Q 2725 213 2448 61 
Q 2172 -91 1784 -91 
Q 1150 -91 751 415 
Q 353 922 353 1747 
Q 353 2572 751 3078 
Q 1150 3584 1784 3584 
Q 2172 3584 2448 3432 
Q 2725 3281 2906 2969 
z
M 947 1747 
Q 947 1113 1208 752 
Q 1469 391 1925 391 
Q 2381 391 2643 752 
Q 2906 1113 2906 1747 
Q 2906 2381 2643 2742 
Q 2381 3103 1925 3103 
Q 1469 3103 1208 2742 
Q 947 2381 947 1747 
z
" transform="scale(0.015625)"/>
       <path id="DejaVuSans-62" d="M 3116 1747 
Q 3116 2381 2855 2742 
Q 2594 3103 2138 3103 
Q 1681 3103 1420 2742 
Q 1159 2381 1159 1747 
Q 1159 1113 1420 752 
Q 1681 391 2138 391 
Q 2594 391 2855 752 
Q 3116 1113 3116 1747 
z
M 1159 2969 
Q 1341 3281 1617 3432 
Q 1894 3584 2278 3584 
Q 2916 3584 3314 3078 
Q 3713 2572 3713 1747 
Q 3713 922 3314 415 
Q 2916 -91 2278 -91 
Q 1894 -91 1617 61 
Q 1341 213 1159 525 
L 1159 0 
L 581 0 
L 581 4863 
L 1159 4863 
L 1159 2969 
z
" transform="scale(0.015625)"/>
      </defs>
      <use xlink:href="#DejaVuSans-73"/>
      <use xlink:href="#DejaVuSans-6c" x="52.099609"/>
      <use xlink:href="#DejaVuSans-64" x="79.882812"/>
      <use xlink:href="#DejaVuSans-62" x="143.359375"/>
     </g>
    </g>
   </g>
   <g id="line2d_27">
    <path d="M 81.594659 276.334125 
L 94.699205 276.334125 
L 107.80375 276.334125 
L 120.908295 276.334125 
L 134.012841 276.334125 
L 147.117386 276.334125 
L 160.221932 276.334125 
L 173.326477 276.334125 
L 186.431023 276.334125 
L 199.535568 276.334125 
L 212.640114 276.334125 
L 225.744659 276.334125 
L 238.849205 276.334125 
L 251.95375 276.334125 
L 265.058295 276.334125 
L 278.162841 276.334125 
L 291.267386 276.334125 
L 304.371932 276.334125 
L 317.476477 276.334125 
L 330.581023 276.334125 
L 343.685568 276.334125 
L 356.790114 276.334125 
L 369.894659 276.334125 
L 382.999205 276.334125 
L 396.10375 276.334125 
L 409.208295 276.334125 
L 422.312841 276.334125 
L 435.417386 276.334125 
L 448.521932 276.334125 
L 461.626477 276.334125 
L 474.731023 276.334125 
L 487.835568 276.334125 
L 500.940114 276.334125 
L 514.044659 276.334125 
L 527.149205 276.334125 
L 540.25375 276.334125 
L 553.358295 276.334125 
L 566.462841 276.334125 
L 579.567386 276.334125 
L 592.671932 276.334125 
L 605.776477 276.334125 
L 618.881023 276.334125 
L 631.985568 276.334125 
L 645.090114 276.334125 
L 658.194659 276.334125 
L 671.299205 276.334125 
L 684.40375 276.334125 
L 697.508295 276.334125 
L 710.612841 276.334125 
" clip-path="url(#pc49b053da4)" style="fill: none; stroke: #440154; stroke-width: 1.5; stroke-linecap: square"/>
   </g>
   <g id="line2d_28">
    <path d="M 81.594659 276.334125 
L 94.699205 276.334125 
L 107.80375 276.334125 
L 120.908295 276.334125 
L 134.012841 276.334125 
L 147.117386 276.334125 
L 160.221932 276.334125 
L 173.326477 276.334125 
L 186.431023 276.334125 
L 199.535568 276.334125 
L 212.640114 276.334125 
L 225.744659 276.334125 
L 238.849205 276.334125 
L 251.95375 276.334125 
L 265.058295 276.334125 
L 278.162841 276.334125 
L 291.267386 276.334125 
L 304.371932 276.334125 
L 317.476477 276.334125 
L 330.581023 276.334125 
L 343.685568 276.334125 
L 356.790114 276.334125 
L 369.894659 276.334125 
L 382.999205 276.334125 
L 396.10375 276.334125 
L 409.208295 276.334125 
L 422.312841 276.334125 
L 435.417386 276.334125 
L 448.521932 276.334125 
L 461.626477 276.334125 
L 474.731023 276.334125 
L 487.835568 276.334125 
L 500.940114 276.334125 
L 514.044659 276.334125 
L 527.149205 276.334125 
L 540.25375 276.334125 
L 553.358295 276.334125 
L 566.462841 276.334125 
L 579.567386 276.334125 
L 592.671932 276.334125 
L 605.776477 276.334125 
L 618.881023 276.334125 
L 631.985568 276.334125 
L 645.090114 276.334125 
L 658.194659 276.334125 
L 671.299205 276.334125 
L 684.40375 276.334125 
L 697.508295 276.334125 
L 710.612841 276.334125 
" clip-path="url(#pc49b053da4)" style="fill: none; stroke: #482878; stroke-width: 1.5; stroke-linecap: square"/>
   </g>
   <g id="line2d_29">
    <path d="M 81.594659 276.334125 
L 94.699205 276.334125 
L 107.80375 276.334125 
L 120.908295 276.334125 
L 134.012841 276.334125 
L 147.117386 276.334125 
L 160.221932 276.334125 
L 173.326477 276.334125 
L 186.431023 276.334125 
L 199.535568 276.334125 
L 212.640114 276.334125 
L 225.744659 276.334125 
L 238.849205 276.334125 
L 251.95375 276.334125 
L 265.058295 276.334125 
L 278.162841 276.334125 
L 291.267386 276.334125 
L 304.371932 276.334125 
L 317.476477 276.334125 
L 330.581023 276.334125 
L 343.685568 276.334125 
L 356.790114 276.334125 
L 369.894659 276.334125 
L 382.999205 276.334125 
L 396.10375 276.334125 
L 409.208295 276.334125 
L 422.312841 276.334125 
L 435.417386 276.334125 
L 448.521932 276.334125 
L 461.626477 276.334125 
L 474.731023 276.334125 
L 487.835568 276.334125 
L 500.940114 276.334125 
L 514.044659 276.334125 
L 527.149205 276.334125 
L 540.25375 276.334125 
L 553.358295 276.334125 
L 566.462841 276.334125 
L 579.567386 276.334125 
L 592.671932 276.334125 
L 605.776477 276.334125 
L 618.881023 276.334125 
L 631.985568 276.334125 
L 645.090114 276.334125 
L 658.194659 276.334125 
L 671.299205 276.334125 
L 684.40375 276.334125 
L 697.508295 276.334125 
L 710.612841 276.334125 
" clip-path="url(#pc49b053da4)" style="fill: none; stroke: #3e4989; stroke-width: 1.5; stroke-linecap: square"/>
   </g>
   <g id="line2d_30">
    <path d="M 81.594659 276.334125 
L 94.699205 276.334125 
L 107.80375 276.334125 
L 120.908295 276.334125 
L 134.012841 276.334125 
L 147.117386 276.334125 
L 160.221932 276.334125 
L 173.326477 276.334125 
L 186.431023 276.334125 
L 199.535568 276.334125 
L 212.640114 276.334125 
L 225.744659 276.334125 
L 238.849205 276.334125 
L 251.95375 276.334125 
L 265.058295 276.334125 
L 278.162841 276.334125 
L 291.267386 276.334125 
L 304.371932 276.334125 
L 317.476477 276.334125 
L 330.581023 276.334125 
L 343.685568 276.334125 
L 356.790114 276.334125 
L 369.894659 276.334125 
L 382.999205 276.334125 
L 396.10375 276.334125 
L 409.208295 276.334125 
L 422.312841 276.334125 
L 435.417386 276.334125 
L 448.521932 276.334125 
L 461.626477 276.334125 
L 474.731023 276.334125 
L 487.835568 276.334125 
L 500.940114 276.334125 
L 514.044659 276.334125 
L 527.149205 276.334125 
L 540.25375 276.334125 
L 553.358295 276.334125 
L 566.462841 276.334125 
L 579.567386 276.334125 
L 592.671932 276.334125 
L 605.776477 276.334125 
L 618.881023 276.334125 
L 631.985568 276.334125 
L 645.090114 276.334125 
L 658.194659 276.334125 
L 671.299205 276.334125 
L 684.40375 276.334125 
L 697.508295 276.334125 
L 710.612841 276.334125 
" clip-path="url(#pc49b053da4)" style="fill: none; stroke: #31688e; stroke-width: 1.5; stroke-linecap: square"/>
   </g>
   <g id="line2d_31">
    <path d="M 81.594659 276.334125 
L 94.699205 276.334125 
L 107.80375 276.334125 
L 120.908295 276.334125 
L 134.012841 276.334125 
L 147.117386 276.334125 
L 160.221932 276.334125 
L 173.326477 276.334125 
L 186.431023 276.334125 
L 199.535568 276.334125 
L 212.640114 276.334125 
L 225.744659 276.334125 
L 238.849205 276.334125 
L 251.95375 276.334125 
L 265.058295 276.334125 
L 278.162841 276.334125 
L 291.267386 276.334125 
L 304.371932 276.334125 
L 317.476477 276.334125 
L 330.581023 276.334125 
L 343.685568 276.334125 
L 356.790114 276.334125 
L 369.894659 276.334125 
L 382.999205 276.334125 
L 396.10375 276.334125 
L 409.208295 276.334125 
L 422.312841 276.334125 
L 435.417386 276.334125 
L 448.521932 276.334125 
L 461.626477 276.334125 
L 474.731023 276.334125 
L 487.835568 276.334125 
L 500.940114 276.334125 
L 514.044659 276.334125 
L 527.149205 276.334125 
L 540.25375 276.334125 
L 553.358295 276.334125 
L 566.462841 276.334125 
L 579.567386 276.334125 
L 592.671932 276.334125 
L 605.776477 276.334125 
L 618.881023 276.334125 
L 631.985568 276.334125 
L 645.090114 276.334125 
L 658.194659 276.334125 
L 671.299205 276.334125 
L 684.40375 276.334125 
L 697.508295 276.334125 
L 710.612841 276.334125 
" clip-path="url(#pc49b053da4)" style="fill: none; stroke: #26828e; stroke-width: 1.5; stroke-linecap: square"/>
   </g>
   <g id="line2d_32">
    <path d="M 81.594659 226.882736 
L 94.699205 226.762651 
L 107.80375 223.976417 
L 120.908295 215.366173 
L 134.012841 220.611691 
L 147.117386 219.6579 
L 160.221932 223.9188 
L 173.326477 225.931066 
L 186.431023 216.674705 
L 199.535568 227.515979 
L 212.640114 217.111922 
L 225.744659 220.014673 
L 238.849205 225.367353 
L 251.95375 226.412299 
L 265.058295 218.243986 
L 278.162841 218.257099 
L 291.267386 226.106108 
L 304.371932 231.021755 
L 317.476477 226.220675 
L 330.581023 223.887982 
L 343.685568 224.36397 
L 356.790114 228.948251 
L 369.894659 220.611087 
L 382.999205 222.529258 
L 396.10375 229.989369 
L 409.208295 231.523359 
L 422.312841 225.940752 
L 435.417386 228.956419 
L 448.521932 225.501172 
L 461.626477 224.827737 
L 474.731023 226.560679 
L 487.835568 228.475543 
L 500.940114 225.699914 
L 514.044659 228.736983 
L 527.149205 229.332069 
L 540.25375 228.5804 
L 553.358295 224.776136 
L 566.462841 225.083013 
L 579.567386 232.8787 
L 592.671932 225.557921 
L 605.776477 230.645616 
L 618.881023 232.746089 
L 631.985568 226.028412 
L 645.090114 227.697767 
L 658.194659 226.772362 
L 671.299205 225.859064 
L 684.40375 230.248559 
L 697.508295 231.303381 
L 710.612841 230.378201 
" clip-path="url(#pc49b053da4)" style="fill: none; stroke: #1f9e89; stroke-width: 1.5; stroke-linecap: square"/>
   </g>
   <g id="line2d_33">
    <path d="M 81.594659 176.451464 
L 94.699205 177.162156 
L 107.80375 171.997796 
L 120.908295 154.91903 
L 134.012841 166.709467 
L 147.117386 163.404676 
L 160.221932 171.744303 
L 173.326477 175.73353 
L 186.431023 156.524263 
L 199.535568 178.794366 
L 212.640114 159.317214 
L 225.744659 163.867945 
L 238.849205 174.473381 
L 251.95375 176.080516 
L 265.058295 160.572568 
L 278.162841 159.214487 
L 291.267386 176.382053 
L 304.371932 185.202687 
L 317.476477 176.19391 
L 330.581023 172.066397 
L 343.685568 173.016214 
L 356.790114 182.108491 
L 369.894659 165.51697 
L 382.999205 168.92774 
L 396.10375 183.824714 
L 409.208295 185.979278 
L 422.312841 175.270588 
L 435.417386 181.47075 
L 448.521932 175.645784 
L 461.626477 173.044519 
L 474.731023 176.861557 
L 487.835568 180.400329 
L 500.940114 174.746011 
L 514.044659 181.697497 
L 527.149205 181.269332 
L 540.25375 180.574813 
L 553.358295 173.746032 
L 566.462841 173.094485 
L 579.567386 188.602202 
L 592.671932 175.146469 
L 605.776477 184.912658 
L 618.881023 189.528001 
L 631.985568 175.027217 
L 645.090114 179.265238 
L 658.194659 177.792106 
L 671.299205 175.225181 
L 684.40375 184.024189 
L 697.508295 185.888842 
L 710.612841 183.907429 
" clip-path="url(#pc49b053da4)" style="fill: none; stroke: #35b779; stroke-width: 1.5; stroke-linecap: square"/>
   </g>
   <g id="line2d_34">
    <path d="M 81.594659 126.006486 
L 94.699205 126.998114 
L 107.80375 120.536306 
L 120.908295 94.453673 
L 134.012841 113.666929 
L 147.117386 107.235133 
L 160.221932 119.79109 
L 173.326477 125.619625 
L 186.431023 95.871872 
L 199.535568 130.324249 
L 212.640114 103.180162 
L 225.744659 107.778916 
L 238.849205 124.002567 
L 251.95375 126.12159 
L 265.058295 103.335398 
L 278.162841 100.253321 
L 291.267386 126.958306 
L 304.371932 139.025648 
L 317.476477 125.747945 
L 330.581023 120.495575 
L 343.685568 121.999378 
L 356.790114 135.686744 
L 369.894659 110.451212 
L 382.999205 114.937995 
L 396.10375 136.827105 
L 409.208295 140.03574 
L 422.312841 124.434194 
L 435.417386 134.630487 
L 448.521932 126.147867 
L 461.626477 120.635297 
L 474.731023 126.880097 
L 487.835568 132.310867 
L 500.940114 123.843712 
L 514.044659 135.975074 
L 527.149205 132.984049 
L 540.25375 132.636068 
L 553.358295 123.021123 
L 566.462841 120.283049 
L 579.567386 144.562741 
L 592.671932 124.331082 
L 605.776477 138.966151 
L 618.881023 145.749976 
L 631.985568 123.501357 
L 645.090114 130.285857 
L 658.194659 128.363284 
L 671.299205 125.244975 
L 684.40375 137.134043 
L 697.508295 139.874233 
L 710.612841 137.860215 
" clip-path="url(#pc49b053da4)" style="fill: none; stroke: #6ece58; stroke-width: 1.5; stroke-linecap: square"/>
   </g>
   <g id="line2d_35">
    <path d="M 81.594659 75.220701 
L 94.699205 76.311992 
L 107.80375 69.052082 
L 120.908295 34.414125 
L 134.012841 59.881572 
L 147.117386 50.397751 
L 160.221932 68.144562 
L 173.326477 75.688527 
L 186.431023 35.646764 
L 199.535568 82.47012 
L 212.640114 48.233898 
L 225.744659 51.614461 
L 238.849205 73.625444 
L 251.95375 77.176683 
L 265.058295 46.693991 
L 278.162841 41.123778 
L 291.267386 77.725192 
L 304.371932 93.610082 
L 317.476477 75.48075 
L 330.581023 69.062315 
L 343.685568 71.234445 
L 356.790114 89.581748 
L 369.894659 55.497255 
L 382.999205 60.578472 
L 396.10375 89.69336 
L 409.208295 94.627189 
L 422.312841 73.815639 
L 435.417386 88.571286 
L 448.521932 77.390589 
L 461.626477 67.623045 
L 474.731023 76.701422 
L 487.835568 84.365635 
L 500.940114 73.277383 
L 514.044659 90.836006 
L 527.149205 85.096291 
L 540.25375 84.97325 
L 553.358295 72.091075 
L 566.462841 67.945038 
L 579.567386 101.073684 
L 592.671932 73.106068 
L 605.776477 93.957198 
L 618.881023 101.491584 
L 631.985568 72.405406 
L 645.090114 80.196131 
L 658.194659 78.378226 
L 671.299205 74.964705 
L 684.40375 89.626564 
L 697.508295 93.646268 
L 710.612841 92.859089 
" clip-path="url(#pc49b053da4)" style="fill: none; stroke: #b5de2b; stroke-width: 1.5; stroke-linecap: square"/>
   </g>
   <g id="patch_3">
    <path d="M 50.14375 288.430125 
L 50.14375 22.318125 
" style="fill: none"/>
   </g>
   <g id="patch_4">
    <path d="M 742.06375 288.430125 
L 742.06375 22.318125 
" style="fill: none"/>
   </g>
   <g id="patch_5">
    <path d="M 50.14375 288.430125 
L 742.06375 288.430125 
" style="fill: none"/>
   </g>
   <g id="patch_6">
    <path d="M 50.14375 22.318125 
L 742.06375 22.318125 
" style="fill: none"/>
   </g>
   <g id="text_15">
    <!-- train -->
    <g style="fill: #666666" transform="translate(382.13875 16.318125) scale(0.12 -0.12)">
     <defs>
      <path id="DejaVuSans-74" d="M 1172 4494 
L 1172 3500 
L 2356 3500 
L 2356 3053 
L 1172 3053 
L 1172 1153 
Q 1172 725 1289 603 
Q 1406 481 1766 481 
L 2356 481 
L 2356 0 
L 1766 0 
Q 1100 0 847 248 
Q 594 497 594 1153 
L 594 3053 
L 172 3053 
L 172 3500 
L 594 3500 
L 594 4494 
L 1172 4494 
z
" transform="scale(0.015625)"/>
      <path id="DejaVuSans-72" d="M 2631 2963 
Q 2534 3019 2420 3045 
Q 2306 3072 2169 3072 
Q 1681 3072 1420 2755 
Q 1159 2438 1159 1844 
L 1159 0 
L 581 0 
L 581 3500 
L 1159 3500 
L 1159 2956 
Q 1341 3275 1631 3429 
Q 1922 3584 2338 3584 
Q 2397 3584 2469 3576 
Q 2541 3569 2628 3553 
L 2631 2963 
z
" transform="scale(0.015625)"/>
      <path id="DejaVuSans-61" d="M 2194 1759 
Q 1497 1759 1228 1600 
Q 959 1441 959 1056 
Q 959 750 1161 570 
Q 1363 391 1709 391 
Q 2188 391 2477 730 
Q 2766 1069 2766 1631 
L 2766 1759 
L 2194 1759 
z
M 3341 1997 
L 3341 0 
L 2766 0 
L 2766 531 
Q 2569 213 2275 61 
Q 1981 -91 1556 -91 
Q 1019 -91 701 211 
Q 384 513 384 1019 
Q 384 1609 779 1909 
Q 1175 2209 1959 2209 
L 2766 2209 
L 2766 2266 
Q 2766 2663 2505 2880 
Q 2244 3097 1772 3097 
Q 1472 3097 1187 3025 
Q 903 2953 641 2809 
L 641 3341 
Q 956 3463 1253 3523 
Q 1550 3584 1831 3584 
Q 2591 3584 2966 3190 
Q 3341 2797 3341 1997 
z
" transform="scale(0.015625)"/>
      <path id="DejaVuSans-69" d="M 603 3500 
L 1178 3500 
L 1178 0 
L 603 0 
L 603 3500 
z
M 603 4863 
L 1178 4863 
L 1178 4134 
L 603 4134 
L 603 4863 
z
" transform="scale(0.015625)"/>
      <path id="DejaVuSans-6e" d="M 3513 2113 
L 3513 0 
L 2938 0 
L 2938 2094 
Q 2938 2591 2744 2837 
Q 2550 3084 2163 3084 
Q 1697 3084 1428 2787 
Q 1159 2491 1159 1978 
L 1159 0 
L 581 0 
L 581 3500 
L 1159 3500 
L 1159 2956 
Q 1366 3272 1645 3428 
Q 1925 3584 2291 3584 
Q 2894 3584 3203 3211 
Q 3513 2838 3513 2113 
z
" transform="scale(0.015625)"/>
     </defs>
     <use xlink:href="#DejaVuSans-74"/>
     <use xlink:href="#DejaVuSans-72" x="39.208984"/>
     <use xlink:href="#DejaVuSans-61" x="80.322266"/>
     <use xlink:href="#DejaVuSans-69" x="141.601562"/>
     <use xlink:href="#DejaVuSans-6e" x="169.384766"/>
    </g>
   </g>
  </g>
 </g>
 <defs>
  <clipPath id="pc49b053da4">
   <rect x="50.14375" y="22.318125" width="691.92" height="266.112"/>
  </clipPath>
 </defs>
</svg>
