<?xml version="1.0" encoding="utf-8" standalone="no"?>
<!DOCTYPE svg PUBLIC "-//W3C//DTD SVG 1.1//EN"
  "http://www.w3.org/Graphics/SVG/1.1/DTD/svg11.dtd">
<svg xmlns:xlink="http://www.w3.org/1999/xlink" width="764.404938pt" height="312.30825pt" viewBox="0 0 764.404938 312.30825" xmlns="http://www.w3.org/2000/svg" version="1.1">
 <metadata>
  <rdf:RDF xmlns:dc="http://purl.org/dc/elements/1.1/" xmlns:cc="http://creativecommons.org/ns#" xmlns:rdf="http://www.w3.org/1999/02/22-rdf-syntax-ns#">
   <cc:Work>
    <dc:type rdf:resource="http://purl.org/dc/dcmitype/StillImage"/>
    <dc:date>2023-07-10T07:56:35.866474</dc:date>
    <dc:format>image/svg+xml</dc:format>
    <dc:creator>
     <cc:Agent>
      <dc:title>Matplotlib v3.7.1, https://matplotlib.org/</dc:title>
     </cc:Agent>
    </dc:creator>
   </cc:Work>
  </rdf:RDF>
 </metadata>
 <defs>
  <style type="text/css">*{stroke-linejoin: round; stroke-linecap: butt}</style>
 </defs>
 <g id="figure_1">
  <g id="patch_1">
   <path d="M 0 312.30825 
L 764.404938 312.30825 
L 764.404938 0 
L 0 0 
L 0 312.30825 
z
" style="fill: none"/>
  </g>
  <g id="axes_1">
   <g id="patch_2">
    <path d="M 62.86875 288.430125 
L 754.78875 288.430125 
L 754.78875 22.318125 
L 62.86875 22.318125 
L 62.86875 288.430125 
z
" style="fill: none"/>
   </g>
   <g id="matplotlib.axis_1">
    <g id="xtick_1">
     <g id="line2d_1">
      <path d="M 93.123807 288.430125 
L 93.123807 22.318125 
" clip-path="url(#pc9aed571b1)" style="fill: none; stroke-dasharray: 1.85,0.8; stroke-dashoffset: 0; stroke: #666666; stroke-opacity: 0.4; stroke-width: 0.5"/>
     </g>
     <g id="line2d_2">
      <defs>
       <path id="m5ed919a2f8" d="M 0 0 
L 0 3.5 
" style="stroke: #000000; stroke-opacity: 0; stroke-width: 0.8"/>
      </defs>
      <g>
       <use xlink:href="#m5ed919a2f8" x="93.123807" y="288.430125" style="fill-opacity: 0; stroke: #000000; stroke-opacity: 0; stroke-width: 0.8"/>
      </g>
     </g>
     <g id="text_1">
      <!-- 0 -->
      <g style="fill: #666666" transform="translate(89.942557 303.028562) scale(0.1 -0.1)">
       <defs>
        <path id="DejaVuSans-30" d="M 2034 4250 
Q 1547 4250 1301 3770 
Q 1056 3291 1056 2328 
Q 1056 1369 1301 889 
Q 1547 409 2034 409 
Q 2525 409 2770 889 
Q 3016 1369 3016 2328 
Q 3016 3291 2770 3770 
Q 2525 4250 2034 4250 
z
M 2034 4750 
Q 2819 4750 3233 4129 
Q 3647 3509 3647 2328 
Q 3647 1150 3233 529 
Q 2819 -91 2034 -91 
Q 1250 -91 836 529 
Q 422 1150 422 2328 
Q 422 3509 836 4129 
Q 1250 4750 2034 4750 
z
" transform="scale(0.015625)"/>
       </defs>
       <use xlink:href="#DejaVuSans-30"/>
      </g>
     </g>
    </g>
    <g id="xtick_2">
     <g id="line2d_3">
      <path d="M 224.667533 288.430125 
L 224.667533 22.318125 
" clip-path="url(#pc9aed571b1)" style="fill: none; stroke-dasharray: 1.85,0.8; stroke-dashoffset: 0; stroke: #666666; stroke-opacity: 0.4; stroke-width: 0.5"/>
     </g>
     <g id="line2d_4">
      <g>
       <use xlink:href="#m5ed919a2f8" x="224.667533" y="288.430125" style="fill-opacity: 0; stroke: #000000; stroke-opacity: 0; stroke-width: 0.8"/>
      </g>
     </g>
     <g id="text_2">
      <!-- 5 -->
      <g style="fill: #666666" transform="translate(221.486283 303.028562) scale(0.1 -0.1)">
       <defs>
        <path id="DejaVuSans-35" d="M 691 4666 
L 3169 4666 
L 3169 4134 
L 1269 4134 
L 1269 2991 
Q 1406 3038 1543 3061 
Q 1681 3084 1819 3084 
Q 2600 3084 3056 2656 
Q 3513 2228 3513 1497 
Q 3513 744 3044 326 
Q 2575 -91 1722 -91 
Q 1428 -91 1123 -41 
Q 819 9 494 109 
L 494 744 
Q 775 591 1075 516 
Q 1375 441 1709 441 
Q 2250 441 2565 725 
Q 2881 1009 2881 1497 
Q 2881 1984 2565 2268 
Q 2250 2553 1709 2553 
Q 1456 2553 1204 2497 
Q 953 2441 691 2322 
L 691 4666 
z
" transform="scale(0.015625)"/>
       </defs>
       <use xlink:href="#DejaVuSans-35"/>
      </g>
     </g>
    </g>
    <g id="xtick_3">
     <g id="line2d_5">
      <path d="M 356.21126 288.430125 
L 356.21126 22.318125 
" clip-path="url(#pc9aed571b1)" style="fill: none; stroke-dasharray: 1.85,0.8; stroke-dashoffset: 0; stroke: #666666; stroke-opacity: 0.4; stroke-width: 0.5"/>
     </g>
     <g id="line2d_6">
      <g>
       <use xlink:href="#m5ed919a2f8" x="356.21126" y="288.430125" style="fill-opacity: 0; stroke: #000000; stroke-opacity: 0; stroke-width: 0.8"/>
      </g>
     </g>
     <g id="text_3">
      <!-- 10 -->
      <g style="fill: #666666" transform="translate(349.84876 303.028562) scale(0.1 -0.1)">
       <defs>
        <path id="DejaVuSans-31" d="M 794 531 
L 1825 531 
L 1825 4091 
L 703 3866 
L 703 4441 
L 1819 4666 
L 2450 4666 
L 2450 531 
L 3481 531 
L 3481 0 
L 794 0 
L 794 531 
z
" transform="scale(0.015625)"/>
       </defs>
       <use xlink:href="#DejaVuSans-31"/>
       <use xlink:href="#DejaVuSans-30" x="63.623047"/>
      </g>
     </g>
    </g>
    <g id="xtick_4">
     <g id="line2d_7">
      <path d="M 487.754986 288.430125 
L 487.754986 22.318125 
" clip-path="url(#pc9aed571b1)" style="fill: none; stroke-dasharray: 1.85,0.8; stroke-dashoffset: 0; stroke: #666666; stroke-opacity: 0.4; stroke-width: 0.5"/>
     </g>
     <g id="line2d_8">
      <g>
       <use xlink:href="#m5ed919a2f8" x="487.754986" y="288.430125" style="fill-opacity: 0; stroke: #000000; stroke-opacity: 0; stroke-width: 0.8"/>
      </g>
     </g>
     <g id="text_4">
      <!-- 15 -->
      <g style="fill: #666666" transform="translate(481.392486 303.028562) scale(0.1 -0.1)">
       <use xlink:href="#DejaVuSans-31"/>
       <use xlink:href="#DejaVuSans-35" x="63.623047"/>
      </g>
     </g>
    </g>
    <g id="xtick_5">
     <g id="line2d_9">
      <path d="M 619.298712 288.430125 
L 619.298712 22.318125 
" clip-path="url(#pc9aed571b1)" style="fill: none; stroke-dasharray: 1.85,0.8; stroke-dashoffset: 0; stroke: #666666; stroke-opacity: 0.4; stroke-width: 0.5"/>
     </g>
     <g id="line2d_10">
      <g>
       <use xlink:href="#m5ed919a2f8" x="619.298712" y="288.430125" style="fill-opacity: 0; stroke: #000000; stroke-opacity: 0; stroke-width: 0.8"/>
      </g>
     </g>
     <g id="text_5">
      <!-- 20 -->
      <g style="fill: #666666" transform="translate(612.936212 303.028562) scale(0.1 -0.1)">
       <defs>
        <path id="DejaVuSans-32" d="M 1228 531 
L 3431 531 
L 3431 0 
L 469 0 
L 469 531 
Q 828 903 1448 1529 
Q 2069 2156 2228 2338 
Q 2531 2678 2651 2914 
Q 2772 3150 2772 3378 
Q 2772 3750 2511 3984 
Q 2250 4219 1831 4219 
Q 1534 4219 1204 4116 
Q 875 4013 500 3803 
L 500 4441 
Q 881 4594 1212 4672 
Q 1544 4750 1819 4750 
Q 2544 4750 2975 4387 
Q 3406 4025 3406 3419 
Q 3406 3131 3298 2873 
Q 3191 2616 2906 2266 
Q 2828 2175 2409 1742 
Q 1991 1309 1228 531 
z
" transform="scale(0.015625)"/>
       </defs>
       <use xlink:href="#DejaVuSans-32"/>
       <use xlink:href="#DejaVuSans-30" x="63.623047"/>
      </g>
     </g>
    </g>
    <g id="xtick_6">
     <g id="line2d_11">
      <path d="M 750.842438 288.430125 
L 750.842438 22.318125 
" clip-path="url(#pc9aed571b1)" style="fill: none; stroke-dasharray: 1.85,0.8; stroke-dashoffset: 0; stroke: #666666; stroke-opacity: 0.4; stroke-width: 0.5"/>
     </g>
     <g id="line2d_12">
      <g>
       <use xlink:href="#m5ed919a2f8" x="750.842438" y="288.430125" style="fill-opacity: 0; stroke: #000000; stroke-opacity: 0; stroke-width: 0.8"/>
      </g>
     </g>
     <g id="text_6">
      <!-- 25 -->
      <g style="fill: #666666" transform="translate(744.479938 303.028562) scale(0.1 -0.1)">
       <use xlink:href="#DejaVuSans-32"/>
       <use xlink:href="#DejaVuSans-35" x="63.623047"/>
      </g>
     </g>
    </g>
   </g>
   <g id="matplotlib.axis_2">
    <g id="ytick_1">
     <g id="line2d_13">
      <path d="M 62.86875 276.334125 
L 754.78875 276.334125 
" clip-path="url(#pc9aed571b1)" style="fill: none; stroke-dasharray: 1.85,0.8; stroke-dashoffset: 0; stroke: #666666; stroke-opacity: 0.4; stroke-width: 0.5"/>
     </g>
     <g id="line2d_14">
      <defs>
       <path id="m77043975d0" d="M 0 0 
L -3.5 0 
" style="stroke: #000000; stroke-opacity: 0; stroke-width: 0.8"/>
      </defs>
      <g>
       <use xlink:href="#m77043975d0" x="62.86875" y="276.334125" style="fill-opacity: 0; stroke: #000000; stroke-opacity: 0; stroke-width: 0.8"/>
      </g>
     </g>
     <g id="text_7">
      <!-- 0.0000 -->
      <g style="fill: #666666" transform="translate(20.878125 280.133344) scale(0.1 -0.1)">
       <defs>
        <path id="DejaVuSans-2e" d="M 684 794 
L 1344 794 
L 1344 0 
L 684 0 
L 684 794 
z
" transform="scale(0.015625)"/>
       </defs>
       <use xlink:href="#DejaVuSans-30"/>
       <use xlink:href="#DejaVuSans-2e" x="63.623047"/>
       <use xlink:href="#DejaVuSans-30" x="95.410156"/>
       <use xlink:href="#DejaVuSans-30" x="159.033203"/>
       <use xlink:href="#DejaVuSans-30" x="222.65625"/>
       <use xlink:href="#DejaVuSans-30" x="286.279297"/>
      </g>
     </g>
    </g>
    <g id="ytick_2">
     <g id="line2d_15">
      <path d="M 62.86875 232.363341 
L 754.78875 232.363341 
" clip-path="url(#pc9aed571b1)" style="fill: none; stroke-dasharray: 1.85,0.8; stroke-dashoffset: 0; stroke: #666666; stroke-opacity: 0.4; stroke-width: 0.5"/>
     </g>
     <g id="line2d_16">
      <g>
       <use xlink:href="#m77043975d0" x="62.86875" y="232.363341" style="fill-opacity: 0; stroke: #000000; stroke-opacity: 0; stroke-width: 0.8"/>
      </g>
     </g>
     <g id="text_8">
      <!-- 0.0005 -->
      <g style="fill: #666666" transform="translate(20.878125 236.16256) scale(0.1 -0.1)">
       <use xlink:href="#DejaVuSans-30"/>
       <use xlink:href="#DejaVuSans-2e" x="63.623047"/>
       <use xlink:href="#DejaVuSans-30" x="95.410156"/>
       <use xlink:href="#DejaVuSans-30" x="159.033203"/>
       <use xlink:href="#DejaVuSans-30" x="222.65625"/>
       <use xlink:href="#DejaVuSans-35" x="286.279297"/>
      </g>
     </g>
    </g>
    <g id="ytick_3">
     <g id="line2d_17">
      <path d="M 62.86875 188.392557 
L 754.78875 188.392557 
" clip-path="url(#pc9aed571b1)" style="fill: none; stroke-dasharray: 1.85,0.8; stroke-dashoffset: 0; stroke: #666666; stroke-opacity: 0.4; stroke-width: 0.5"/>
     </g>
     <g id="line2d_18">
      <g>
       <use xlink:href="#m77043975d0" x="62.86875" y="188.392557" style="fill-opacity: 0; stroke: #000000; stroke-opacity: 0; stroke-width: 0.8"/>
      </g>
     </g>
     <g id="text_9">
      <!-- 0.0010 -->
      <g style="fill: #666666" transform="translate(20.878125 192.191776) scale(0.1 -0.1)">
       <use xlink:href="#DejaVuSans-30"/>
       <use xlink:href="#DejaVuSans-2e" x="63.623047"/>
       <use xlink:href="#DejaVuSans-30" x="95.410156"/>
       <use xlink:href="#DejaVuSans-30" x="159.033203"/>
       <use xlink:href="#DejaVuSans-31" x="222.65625"/>
       <use xlink:href="#DejaVuSans-30" x="286.279297"/>
      </g>
     </g>
    </g>
    <g id="ytick_4">
     <g id="line2d_19">
      <path d="M 62.86875 144.421773 
L 754.78875 144.421773 
" clip-path="url(#pc9aed571b1)" style="fill: none; stroke-dasharray: 1.85,0.8; stroke-dashoffset: 0; stroke: #666666; stroke-opacity: 0.4; stroke-width: 0.5"/>
     </g>
     <g id="line2d_20">
      <g>
       <use xlink:href="#m77043975d0" x="62.86875" y="144.421773" style="fill-opacity: 0; stroke: #000000; stroke-opacity: 0; stroke-width: 0.8"/>
      </g>
     </g>
     <g id="text_10">
      <!-- 0.0015 -->
      <g style="fill: #666666" transform="translate(20.878125 148.220991) scale(0.1 -0.1)">
       <use xlink:href="#DejaVuSans-30"/>
       <use xlink:href="#DejaVuSans-2e" x="63.623047"/>
       <use xlink:href="#DejaVuSans-30" x="95.410156"/>
       <use xlink:href="#DejaVuSans-30" x="159.033203"/>
       <use xlink:href="#DejaVuSans-31" x="222.65625"/>
       <use xlink:href="#DejaVuSans-35" x="286.279297"/>
      </g>
     </g>
    </g>
    <g id="ytick_5">
     <g id="line2d_21">
      <path d="M 62.86875 100.450989 
L 754.78875 100.450989 
" clip-path="url(#pc9aed571b1)" style="fill: none; stroke-dasharray: 1.85,0.8; stroke-dashoffset: 0; stroke: #666666; stroke-opacity: 0.4; stroke-width: 0.5"/>
     </g>
     <g id="line2d_22">
      <g>
       <use xlink:href="#m77043975d0" x="62.86875" y="100.450989" style="fill-opacity: 0; stroke: #000000; stroke-opacity: 0; stroke-width: 0.8"/>
      </g>
     </g>
     <g id="text_11">
      <!-- 0.0020 -->
      <g style="fill: #666666" transform="translate(20.878125 104.250207) scale(0.1 -0.1)">
       <use xlink:href="#DejaVuSans-30"/>
       <use xlink:href="#DejaVuSans-2e" x="63.623047"/>
       <use xlink:href="#DejaVuSans-30" x="95.410156"/>
       <use xlink:href="#DejaVuSans-30" x="159.033203"/>
       <use xlink:href="#DejaVuSans-32" x="222.65625"/>
       <use xlink:href="#DejaVuSans-30" x="286.279297"/>
      </g>
     </g>
    </g>
    <g id="ytick_6">
     <g id="line2d_23">
      <path d="M 62.86875 56.480205 
L 754.78875 56.480205 
" clip-path="url(#pc9aed571b1)" style="fill: none; stroke-dasharray: 1.85,0.8; stroke-dashoffset: 0; stroke: #666666; stroke-opacity: 0.4; stroke-width: 0.5"/>
     </g>
     <g id="line2d_24">
      <g>
       <use xlink:href="#m77043975d0" x="62.86875" y="56.480205" style="fill-opacity: 0; stroke: #000000; stroke-opacity: 0; stroke-width: 0.8"/>
      </g>
     </g>
     <g id="text_12">
      <!-- 0.0025 -->
      <g style="fill: #666666" transform="translate(20.878125 60.279423) scale(0.1 -0.1)">
       <use xlink:href="#DejaVuSans-30"/>
       <use xlink:href="#DejaVuSans-2e" x="63.623047"/>
       <use xlink:href="#DejaVuSans-30" x="95.410156"/>
       <use xlink:href="#DejaVuSans-30" x="159.033203"/>
       <use xlink:href="#DejaVuSans-32" x="222.65625"/>
       <use xlink:href="#DejaVuSans-35" x="286.279297"/>
      </g>
     </g>
    </g>
    <g id="text_13">
     <!-- dQsin -->
     <g style="fill: #bdbdbd" transform="translate(14.798438 169.646781) rotate(-90) scale(0.1 -0.1)">
      <defs>
       <path id="DejaVuSans-64" d="M 2906 2969 
L 2906 4863 
L 3481 4863 
L 3481 0 
L 2906 0 
L 2906 525 
Q 2725 213 2448 61 
Q 2172 -91 1784 -91 
Q 1150 -91 751 415 
Q 353 922 353 1747 
Q 353 2572 751 3078 
Q 1150 3584 1784 3584 
Q 2172 3584 2448 3432 
Q 2725 3281 2906 2969 
z
M 947 1747 
Q 947 1113 1208 752 
Q 1469 391 1925 391 
Q 2381 391 2643 752 
Q 2906 1113 2906 1747 
Q 2906 2381 2643 2742 
Q 2381 3103 1925 3103 
Q 1469 3103 1208 2742 
Q 947 2381 947 1747 
z
" transform="scale(0.015625)"/>
       <path id="DejaVuSans-51" d="M 2522 4238 
Q 1834 4238 1429 3725 
Q 1025 3213 1025 2328 
Q 1025 1447 1429 934 
Q 1834 422 2522 422 
Q 3209 422 3611 934 
Q 4013 1447 4013 2328 
Q 4013 3213 3611 3725 
Q 3209 4238 2522 4238 
z
M 3406 84 
L 4238 -825 
L 3475 -825 
L 2784 -78 
Q 2681 -84 2626 -87 
Q 2572 -91 2522 -91 
Q 1538 -91 948 567 
Q 359 1225 359 2328 
Q 359 3434 948 4092 
Q 1538 4750 2522 4750 
Q 3503 4750 4090 4092 
Q 4678 3434 4678 2328 
Q 4678 1516 4351 937 
Q 4025 359 3406 84 
z
" transform="scale(0.015625)"/>
       <path id="DejaVuSans-73" d="M 2834 3397 
L 2834 2853 
Q 2591 2978 2328 3040 
Q 2066 3103 1784 3103 
Q 1356 3103 1142 2972 
Q 928 2841 928 2578 
Q 928 2378 1081 2264 
Q 1234 2150 1697 2047 
L 1894 2003 
Q 2506 1872 2764 1633 
Q 3022 1394 3022 966 
Q 3022 478 2636 193 
Q 2250 -91 1575 -91 
Q 1294 -91 989 -36 
Q 684 19 347 128 
L 347 722 
Q 666 556 975 473 
Q 1284 391 1588 391 
Q 1994 391 2212 530 
Q 2431 669 2431 922 
Q 2431 1156 2273 1281 
Q 2116 1406 1581 1522 
L 1381 1569 
Q 847 1681 609 1914 
Q 372 2147 372 2553 
Q 372 3047 722 3315 
Q 1072 3584 1716 3584 
Q 2034 3584 2315 3537 
Q 2597 3491 2834 3397 
z
" transform="scale(0.015625)"/>
       <path id="DejaVuSans-69" d="M 603 3500 
L 1178 3500 
L 1178 0 
L 603 0 
L 603 3500 
z
M 603 4863 
L 1178 4863 
L 1178 4134 
L 603 4134 
L 603 4863 
z
" transform="scale(0.015625)"/>
       <path id="DejaVuSans-6e" d="M 3513 2113 
L 3513 0 
L 2938 0 
L 2938 2094 
Q 2938 2591 2744 2837 
Q 2550 3084 2163 3084 
Q 1697 3084 1428 2787 
Q 1159 2491 1159 1978 
L 1159 0 
L 581 0 
L 581 3500 
L 1159 3500 
L 1159 2956 
Q 1366 3272 1645 3428 
Q 1925 3584 2291 3584 
Q 2894 3584 3203 3211 
Q 3513 2838 3513 2113 
z
" transform="scale(0.015625)"/>
      </defs>
      <use xlink:href="#DejaVuSans-64"/>
      <use xlink:href="#DejaVuSans-51" x="63.476562"/>
      <use xlink:href="#DejaVuSans-73" x="142.1875"/>
      <use xlink:href="#DejaVuSans-69" x="194.287109"/>
      <use xlink:href="#DejaVuSans-6e" x="222.070312"/>
     </g>
    </g>
   </g>
   <g id="line2d_25">
    <path d="M 93.123807 199.462376 
L 119.432552 178.991055 
L 145.741298 155.692761 
L 172.050043 194.07446 
L 198.358788 175.658564 
L 224.667533 218.932686 
L 250.976279 152.258167 
L 277.285024 142.687582 
L 303.593769 210.925174 
L 329.902514 195.458597 
L 356.21126 167.758717 
L 382.520005 122.121989 
L 408.82875 176.775018 
L 435.137495 178.308832 
L 461.44624 244.748425 
L 487.754986 229.309495 
L 514.063731 202.149464 
L 540.372476 173.893946 
L 566.681221 195.749388 
L 592.989967 172.45321 
L 619.298712 193.961842 
L 645.607457 244.218205 
L 671.916202 205.610822 
L 698.224948 212.031015 
" clip-path="url(#pc9aed571b1)" style="fill: none; stroke: #ec407a; stroke-width: 1.5; stroke-linecap: square"/>
    <defs>
     <path id="m4f9a0a821d" d="M 0 1.5 
C 0.397805 1.5 0.77937 1.341951 1.06066 1.06066 
C 1.341951 0.77937 1.5 0.397805 1.5 0 
C 1.5 -0.397805 1.341951 -0.77937 1.06066 -1.06066 
C 0.77937 -1.341951 0.397805 -1.5 0 -1.5 
C -0.397805 -1.5 -0.77937 -1.341951 -1.06066 -1.06066 
C -1.341951 -0.77937 -1.5 -0.397805 -1.5 0 
C -1.5 0.397805 -1.341951 0.77937 -1.06066 1.06066 
C -0.77937 1.341951 -0.397805 1.5 0 1.5 
z
" style="stroke: #ec407a"/>
    </defs>
    <g clip-path="url(#pc9aed571b1)">
     <use xlink:href="#m4f9a0a821d" x="93.123807" y="199.462376" style="fill: #ec407a; stroke: #ec407a"/>
     <use xlink:href="#m4f9a0a821d" x="119.432552" y="178.991055" style="fill: #ec407a; stroke: #ec407a"/>
     <use xlink:href="#m4f9a0a821d" x="145.741298" y="155.692761" style="fill: #ec407a; stroke: #ec407a"/>
     <use xlink:href="#m4f9a0a821d" x="172.050043" y="194.07446" style="fill: #ec407a; stroke: #ec407a"/>
     <use xlink:href="#m4f9a0a821d" x="198.358788" y="175.658564" style="fill: #ec407a; stroke: #ec407a"/>
     <use xlink:href="#m4f9a0a821d" x="224.667533" y="218.932686" style="fill: #ec407a; stroke: #ec407a"/>
     <use xlink:href="#m4f9a0a821d" x="250.976279" y="152.258167" style="fill: #ec407a; stroke: #ec407a"/>
     <use xlink:href="#m4f9a0a821d" x="277.285024" y="142.687582" style="fill: #ec407a; stroke: #ec407a"/>
     <use xlink:href="#m4f9a0a821d" x="303.593769" y="210.925174" style="fill: #ec407a; stroke: #ec407a"/>
     <use xlink:href="#m4f9a0a821d" x="329.902514" y="195.458597" style="fill: #ec407a; stroke: #ec407a"/>
     <use xlink:href="#m4f9a0a821d" x="356.21126" y="167.758717" style="fill: #ec407a; stroke: #ec407a"/>
     <use xlink:href="#m4f9a0a821d" x="382.520005" y="122.121989" style="fill: #ec407a; stroke: #ec407a"/>
     <use xlink:href="#m4f9a0a821d" x="408.82875" y="176.775018" style="fill: #ec407a; stroke: #ec407a"/>
     <use xlink:href="#m4f9a0a821d" x="435.137495" y="178.308832" style="fill: #ec407a; stroke: #ec407a"/>
     <use xlink:href="#m4f9a0a821d" x="461.44624" y="244.748425" style="fill: #ec407a; stroke: #ec407a"/>
     <use xlink:href="#m4f9a0a821d" x="487.754986" y="229.309495" style="fill: #ec407a; stroke: #ec407a"/>
     <use xlink:href="#m4f9a0a821d" x="514.063731" y="202.149464" style="fill: #ec407a; stroke: #ec407a"/>
     <use xlink:href="#m4f9a0a821d" x="540.372476" y="173.893946" style="fill: #ec407a; stroke: #ec407a"/>
     <use xlink:href="#m4f9a0a821d" x="566.681221" y="195.749388" style="fill: #ec407a; stroke: #ec407a"/>
     <use xlink:href="#m4f9a0a821d" x="592.989967" y="172.45321" style="fill: #ec407a; stroke: #ec407a"/>
     <use xlink:href="#m4f9a0a821d" x="619.298712" y="193.961842" style="fill: #ec407a; stroke: #ec407a"/>
     <use xlink:href="#m4f9a0a821d" x="645.607457" y="244.218205" style="fill: #ec407a; stroke: #ec407a"/>
     <use xlink:href="#m4f9a0a821d" x="671.916202" y="205.610822" style="fill: #ec407a; stroke: #ec407a"/>
     <use xlink:href="#m4f9a0a821d" x="698.224948" y="212.031015" style="fill: #ec407a; stroke: #ec407a"/>
    </g>
   </g>
   <g id="line2d_26">
    <path d="M 93.123807 236.95342 
L 119.432552 233.077431 
L 145.741298 56.879022 
L 172.050043 220.77864 
L 198.358788 228.382343 
L 224.667533 190.776842 
L 250.976279 212.069499 
L 277.285024 133.095372 
L 303.593769 177.192316 
L 329.902514 148.040411 
L 356.21126 90.540087 
L 382.520005 132.199446 
L 408.82875 110.778884 
L 435.137495 268.477623 
L 461.44624 246.307906 
L 487.754986 259.305846 
L 514.063731 225.909833 
L 540.372476 226.776949 
L 566.681221 200.948952 
L 592.989967 98.676338 
L 619.298712 237.222973 
L 645.607457 265.050739 
L 671.916202 276.334125 
L 698.224948 198.286367 
" clip-path="url(#pc9aed571b1)" style="fill: none; stroke: #ec407a; stroke-opacity: 0.6; stroke-width: 0.6; stroke-linecap: square"/>
    <defs>
     <path id="m132ca59f19" d="M 0 1.5 
C 0.397805 1.5 0.77937 1.341951 1.06066 1.06066 
C 1.341951 0.77937 1.5 0.397805 1.5 0 
C 1.5 -0.397805 1.341951 -0.77937 1.06066 -1.06066 
C 0.77937 -1.341951 0.397805 -1.5 0 -1.5 
C -0.397805 -1.5 -0.77937 -1.341951 -1.06066 -1.06066 
C -1.341951 -0.77937 -1.5 -0.397805 -1.5 0 
C -1.5 0.397805 -1.341951 0.77937 -1.06066 1.06066 
C -0.77937 1.341951 -0.397805 1.5 0 1.5 
z
" style="stroke: #ec407a; stroke-opacity: 0.6"/>
    </defs>
    <g clip-path="url(#pc9aed571b1)">
     <use xlink:href="#m132ca59f19" x="93.123807" y="236.95342" style="fill: #ec407a; fill-opacity: 0.6; stroke: #ec407a; stroke-opacity: 0.6"/>
     <use xlink:href="#m132ca59f19" x="119.432552" y="233.077431" style="fill: #ec407a; fill-opacity: 0.6; stroke: #ec407a; stroke-opacity: 0.6"/>
     <use xlink:href="#m132ca59f19" x="145.741298" y="56.879022" style="fill: #ec407a; fill-opacity: 0.6; stroke: #ec407a; stroke-opacity: 0.6"/>
     <use xlink:href="#m132ca59f19" x="172.050043" y="220.77864" style="fill: #ec407a; fill-opacity: 0.6; stroke: #ec407a; stroke-opacity: 0.6"/>
     <use xlink:href="#m132ca59f19" x="198.358788" y="228.382343" style="fill: #ec407a; fill-opacity: 0.6; stroke: #ec407a; stroke-opacity: 0.6"/>
     <use xlink:href="#m132ca59f19" x="224.667533" y="190.776842" style="fill: #ec407a; fill-opacity: 0.6; stroke: #ec407a; stroke-opacity: 0.6"/>
     <use xlink:href="#m132ca59f19" x="250.976279" y="212.069499" style="fill: #ec407a; fill-opacity: 0.6; stroke: #ec407a; stroke-opacity: 0.6"/>
     <use xlink:href="#m132ca59f19" x="277.285024" y="133.095372" style="fill: #ec407a; fill-opacity: 0.6; stroke: #ec407a; stroke-opacity: 0.6"/>
     <use xlink:href="#m132ca59f19" x="303.593769" y="177.192316" style="fill: #ec407a; fill-opacity: 0.6; stroke: #ec407a; stroke-opacity: 0.6"/>
     <use xlink:href="#m132ca59f19" x="329.902514" y="148.040411" style="fill: #ec407a; fill-opacity: 0.6; stroke: #ec407a; stroke-opacity: 0.6"/>
     <use xlink:href="#m132ca59f19" x="356.21126" y="90.540087" style="fill: #ec407a; fill-opacity: 0.6; stroke: #ec407a; stroke-opacity: 0.6"/>
     <use xlink:href="#m132ca59f19" x="382.520005" y="132.199446" style="fill: #ec407a; fill-opacity: 0.6; stroke: #ec407a; stroke-opacity: 0.6"/>
     <use xlink:href="#m132ca59f19" x="408.82875" y="110.778884" style="fill: #ec407a; fill-opacity: 0.6; stroke: #ec407a; stroke-opacity: 0.6"/>
     <use xlink:href="#m132ca59f19" x="435.137495" y="268.477623" style="fill: #ec407a; fill-opacity: 0.6; stroke: #ec407a; stroke-opacity: 0.6"/>
     <use xlink:href="#m132ca59f19" x="461.44624" y="246.307906" style="fill: #ec407a; fill-opacity: 0.6; stroke: #ec407a; stroke-opacity: 0.6"/>
     <use xlink:href="#m132ca59f19" x="487.754986" y="259.305846" style="fill: #ec407a; fill-opacity: 0.6; stroke: #ec407a; stroke-opacity: 0.6"/>
     <use xlink:href="#m132ca59f19" x="514.063731" y="225.909833" style="fill: #ec407a; fill-opacity: 0.6; stroke: #ec407a; stroke-opacity: 0.6"/>
     <use xlink:href="#m132ca59f19" x="540.372476" y="226.776949" style="fill: #ec407a; fill-opacity: 0.6; stroke: #ec407a; stroke-opacity: 0.6"/>
     <use xlink:href="#m132ca59f19" x="566.681221" y="200.948952" style="fill: #ec407a; fill-opacity: 0.6; stroke: #ec407a; stroke-opacity: 0.6"/>
     <use xlink:href="#m132ca59f19" x="592.989967" y="98.676338" style="fill: #ec407a; fill-opacity: 0.6; stroke: #ec407a; stroke-opacity: 0.6"/>
     <use xlink:href="#m132ca59f19" x="619.298712" y="237.222973" style="fill: #ec407a; fill-opacity: 0.6; stroke: #ec407a; stroke-opacity: 0.6"/>
     <use xlink:href="#m132ca59f19" x="645.607457" y="265.050739" style="fill: #ec407a; fill-opacity: 0.6; stroke: #ec407a; stroke-opacity: 0.6"/>
     <use xlink:href="#m132ca59f19" x="671.916202" y="276.334125" style="fill: #ec407a; fill-opacity: 0.6; stroke: #ec407a; stroke-opacity: 0.6"/>
     <use xlink:href="#m132ca59f19" x="698.224948" y="198.286367" style="fill: #ec407a; fill-opacity: 0.6; stroke: #ec407a; stroke-opacity: 0.6"/>
    </g>
   </g>
   <g id="line2d_27">
    <path d="M 93.123807 177.444905 
L 119.432552 131.876974 
L 145.741298 172.88775 
L 172.050043 214.066341 
L 198.358788 64.661943 
L 224.667533 178.664853 
L 250.976279 227.392481 
L 277.285024 44.994174 
L 303.593769 246.144935 
L 329.902514 122.489154 
L 356.21126 124.495425 
L 382.520005 34.414125 
L 408.82875 193.100665 
L 435.137495 259.878172 
L 461.44624 231.800651 
L 487.754986 264.441905 
L 514.063731 137.423558 
L 540.372476 154.263365 
L 566.681221 228.923183 
L 592.989967 122.307906 
L 619.298712 239.395753 
L 645.607457 202.338053 
L 671.916202 189.804677 
L 698.224948 223.470777 
" clip-path="url(#pc9aed571b1)" style="fill: none; stroke: #ec407a; stroke-opacity: 0.6; stroke-width: 0.6; stroke-linecap: square"/>
    <g clip-path="url(#pc9aed571b1)">
     <use xlink:href="#m132ca59f19" x="93.123807" y="177.444905" style="fill: #ec407a; fill-opacity: 0.6; stroke: #ec407a; stroke-opacity: 0.6"/>
     <use xlink:href="#m132ca59f19" x="119.432552" y="131.876974" style="fill: #ec407a; fill-opacity: 0.6; stroke: #ec407a; stroke-opacity: 0.6"/>
     <use xlink:href="#m132ca59f19" x="145.741298" y="172.88775" style="fill: #ec407a; fill-opacity: 0.6; stroke: #ec407a; stroke-opacity: 0.6"/>
     <use xlink:href="#m132ca59f19" x="172.050043" y="214.066341" style="fill: #ec407a; fill-opacity: 0.6; stroke: #ec407a; stroke-opacity: 0.6"/>
     <use xlink:href="#m132ca59f19" x="198.358788" y="64.661943" style="fill: #ec407a; fill-opacity: 0.6; stroke: #ec407a; stroke-opacity: 0.6"/>
     <use xlink:href="#m132ca59f19" x="224.667533" y="178.664853" style="fill: #ec407a; fill-opacity: 0.6; stroke: #ec407a; stroke-opacity: 0.6"/>
     <use xlink:href="#m132ca59f19" x="250.976279" y="227.392481" style="fill: #ec407a; fill-opacity: 0.6; stroke: #ec407a; stroke-opacity: 0.6"/>
     <use xlink:href="#m132ca59f19" x="277.285024" y="44.994174" style="fill: #ec407a; fill-opacity: 0.6; stroke: #ec407a; stroke-opacity: 0.6"/>
     <use xlink:href="#m132ca59f19" x="303.593769" y="246.144935" style="fill: #ec407a; fill-opacity: 0.6; stroke: #ec407a; stroke-opacity: 0.6"/>
     <use xlink:href="#m132ca59f19" x="329.902514" y="122.489154" style="fill: #ec407a; fill-opacity: 0.6; stroke: #ec407a; stroke-opacity: 0.6"/>
     <use xlink:href="#m132ca59f19" x="356.21126" y="124.495425" style="fill: #ec407a; fill-opacity: 0.6; stroke: #ec407a; stroke-opacity: 0.6"/>
     <use xlink:href="#m132ca59f19" x="382.520005" y="34.414125" style="fill: #ec407a; fill-opacity: 0.6; stroke: #ec407a; stroke-opacity: 0.6"/>
     <use xlink:href="#m132ca59f19" x="408.82875" y="193.100665" style="fill: #ec407a; fill-opacity: 0.6; stroke: #ec407a; stroke-opacity: 0.6"/>
     <use xlink:href="#m132ca59f19" x="435.137495" y="259.878172" style="fill: #ec407a; fill-opacity: 0.6; stroke: #ec407a; stroke-opacity: 0.6"/>
     <use xlink:href="#m132ca59f19" x="461.44624" y="231.800651" style="fill: #ec407a; fill-opacity: 0.6; stroke: #ec407a; stroke-opacity: 0.6"/>
     <use xlink:href="#m132ca59f19" x="487.754986" y="264.441905" style="fill: #ec407a; fill-opacity: 0.6; stroke: #ec407a; stroke-opacity: 0.6"/>
     <use xlink:href="#m132ca59f19" x="514.063731" y="137.423558" style="fill: #ec407a; fill-opacity: 0.6; stroke: #ec407a; stroke-opacity: 0.6"/>
     <use xlink:href="#m132ca59f19" x="540.372476" y="154.263365" style="fill: #ec407a; fill-opacity: 0.6; stroke: #ec407a; stroke-opacity: 0.6"/>
     <use xlink:href="#m132ca59f19" x="566.681221" y="228.923183" style="fill: #ec407a; fill-opacity: 0.6; stroke: #ec407a; stroke-opacity: 0.6"/>
     <use xlink:href="#m132ca59f19" x="592.989967" y="122.307906" style="fill: #ec407a; fill-opacity: 0.6; stroke: #ec407a; stroke-opacity: 0.6"/>
     <use xlink:href="#m132ca59f19" x="619.298712" y="239.395753" style="fill: #ec407a; fill-opacity: 0.6; stroke: #ec407a; stroke-opacity: 0.6"/>
     <use xlink:href="#m132ca59f19" x="645.607457" y="202.338053" style="fill: #ec407a; fill-opacity: 0.6; stroke: #ec407a; stroke-opacity: 0.6"/>
     <use xlink:href="#m132ca59f19" x="671.916202" y="189.804677" style="fill: #ec407a; fill-opacity: 0.6; stroke: #ec407a; stroke-opacity: 0.6"/>
     <use xlink:href="#m132ca59f19" x="698.224948" y="223.470777" style="fill: #ec407a; fill-opacity: 0.6; stroke: #ec407a; stroke-opacity: 0.6"/>
    </g>
   </g>
   <g id="line2d_28">
    <path d="M 93.123807 157.812837 
L 119.432552 205.898418 
L 145.741298 236.040174 
L 172.050043 82.31955 
L 198.358788 184.308219 
L 224.667533 233.768756 
L 250.976279 49.047223 
L 277.285024 225.04387 
L 303.593769 234.916029 
L 329.902514 257.652035 
L 356.21126 223.251273 
L 382.520005 139.241665 
L 408.82875 264.843511 
L 435.137495 122.584695 
L 461.44624 255.897218 
L 487.754986 207.631042 
L 514.063731 199.157487 
L 540.372476 168.868646 
L 566.681221 195.530433 
L 592.989967 250.909803 
L 619.298712 254.81905 
L 645.607457 269.122035 
L 671.916202 212.313807 
L 698.224948 266.712407 
" clip-path="url(#pc9aed571b1)" style="fill: none; stroke: #ec407a; stroke-opacity: 0.6; stroke-width: 0.6; stroke-linecap: square"/>
    <g clip-path="url(#pc9aed571b1)">
     <use xlink:href="#m132ca59f19" x="93.123807" y="157.812837" style="fill: #ec407a; fill-opacity: 0.6; stroke: #ec407a; stroke-opacity: 0.6"/>
     <use xlink:href="#m132ca59f19" x="119.432552" y="205.898418" style="fill: #ec407a; fill-opacity: 0.6; stroke: #ec407a; stroke-opacity: 0.6"/>
     <use xlink:href="#m132ca59f19" x="145.741298" y="236.040174" style="fill: #ec407a; fill-opacity: 0.6; stroke: #ec407a; stroke-opacity: 0.6"/>
     <use xlink:href="#m132ca59f19" x="172.050043" y="82.31955" style="fill: #ec407a; fill-opacity: 0.6; stroke: #ec407a; stroke-opacity: 0.6"/>
     <use xlink:href="#m132ca59f19" x="198.358788" y="184.308219" style="fill: #ec407a; fill-opacity: 0.6; stroke: #ec407a; stroke-opacity: 0.6"/>
     <use xlink:href="#m132ca59f19" x="224.667533" y="233.768756" style="fill: #ec407a; fill-opacity: 0.6; stroke: #ec407a; stroke-opacity: 0.6"/>
     <use xlink:href="#m132ca59f19" x="250.976279" y="49.047223" style="fill: #ec407a; fill-opacity: 0.6; stroke: #ec407a; stroke-opacity: 0.6"/>
     <use xlink:href="#m132ca59f19" x="277.285024" y="225.04387" style="fill: #ec407a; fill-opacity: 0.6; stroke: #ec407a; stroke-opacity: 0.6"/>
     <use xlink:href="#m132ca59f19" x="303.593769" y="234.916029" style="fill: #ec407a; fill-opacity: 0.6; stroke: #ec407a; stroke-opacity: 0.6"/>
     <use xlink:href="#m132ca59f19" x="329.902514" y="257.652035" style="fill: #ec407a; fill-opacity: 0.6; stroke: #ec407a; stroke-opacity: 0.6"/>
     <use xlink:href="#m132ca59f19" x="356.21126" y="223.251273" style="fill: #ec407a; fill-opacity: 0.6; stroke: #ec407a; stroke-opacity: 0.6"/>
     <use xlink:href="#m132ca59f19" x="382.520005" y="139.241665" style="fill: #ec407a; fill-opacity: 0.6; stroke: #ec407a; stroke-opacity: 0.6"/>
     <use xlink:href="#m132ca59f19" x="408.82875" y="264.843511" style="fill: #ec407a; fill-opacity: 0.6; stroke: #ec407a; stroke-opacity: 0.6"/>
     <use xlink:href="#m132ca59f19" x="435.137495" y="122.584695" style="fill: #ec407a; fill-opacity: 0.6; stroke: #ec407a; stroke-opacity: 0.6"/>
     <use xlink:href="#m132ca59f19" x="461.44624" y="255.897218" style="fill: #ec407a; fill-opacity: 0.6; stroke: #ec407a; stroke-opacity: 0.6"/>
     <use xlink:href="#m132ca59f19" x="487.754986" y="207.631042" style="fill: #ec407a; fill-opacity: 0.6; stroke: #ec407a; stroke-opacity: 0.6"/>
     <use xlink:href="#m132ca59f19" x="514.063731" y="199.157487" style="fill: #ec407a; fill-opacity: 0.6; stroke: #ec407a; stroke-opacity: 0.6"/>
     <use xlink:href="#m132ca59f19" x="540.372476" y="168.868646" style="fill: #ec407a; fill-opacity: 0.6; stroke: #ec407a; stroke-opacity: 0.6"/>
     <use xlink:href="#m132ca59f19" x="566.681221" y="195.530433" style="fill: #ec407a; fill-opacity: 0.6; stroke: #ec407a; stroke-opacity: 0.6"/>
     <use xlink:href="#m132ca59f19" x="592.989967" y="250.909803" style="fill: #ec407a; fill-opacity: 0.6; stroke: #ec407a; stroke-opacity: 0.6"/>
     <use xlink:href="#m132ca59f19" x="619.298712" y="254.81905" style="fill: #ec407a; fill-opacity: 0.6; stroke: #ec407a; stroke-opacity: 0.6"/>
     <use xlink:href="#m132ca59f19" x="645.607457" y="269.122035" style="fill: #ec407a; fill-opacity: 0.6; stroke: #ec407a; stroke-opacity: 0.6"/>
     <use xlink:href="#m132ca59f19" x="671.916202" y="212.313807" style="fill: #ec407a; fill-opacity: 0.6; stroke: #ec407a; stroke-opacity: 0.6"/>
     <use xlink:href="#m132ca59f19" x="698.224948" y="266.712407" style="fill: #ec407a; fill-opacity: 0.6; stroke: #ec407a; stroke-opacity: 0.6"/>
    </g>
   </g>
   <g id="line2d_29">
    <path d="M 93.123807 225.638343 
L 119.432552 145.111396 
L 145.741298 156.964099 
L 172.050043 259.133309 
L 198.358788 225.281749 
L 224.667533 272.520292 
L 250.976279 120.523467 
L 277.285024 167.616913 
L 303.593769 185.447416 
L 329.902514 253.652788 
L 356.21126 232.748085 
L 382.520005 182.632719 
L 408.82875 138.377012 
L 435.137495 62.294838 
L 461.44624 244.987926 
L 487.754986 185.859188 
L 514.063731 246.106979 
L 540.372476 145.666824 
L 566.681221 157.594985 
L 592.989967 217.918793 
L 619.298712 44.409593 
L 645.607457 240.361995 
L 671.916202 143.990678 
L 698.224948 159.654511 
" clip-path="url(#pc9aed571b1)" style="fill: none; stroke: #ec407a; stroke-opacity: 0.6; stroke-width: 0.6; stroke-linecap: square"/>
    <g clip-path="url(#pc9aed571b1)">
     <use xlink:href="#m132ca59f19" x="93.123807" y="225.638343" style="fill: #ec407a; fill-opacity: 0.6; stroke: #ec407a; stroke-opacity: 0.6"/>
     <use xlink:href="#m132ca59f19" x="119.432552" y="145.111396" style="fill: #ec407a; fill-opacity: 0.6; stroke: #ec407a; stroke-opacity: 0.6"/>
     <use xlink:href="#m132ca59f19" x="145.741298" y="156.964099" style="fill: #ec407a; fill-opacity: 0.6; stroke: #ec407a; stroke-opacity: 0.6"/>
     <use xlink:href="#m132ca59f19" x="172.050043" y="259.133309" style="fill: #ec407a; fill-opacity: 0.6; stroke: #ec407a; stroke-opacity: 0.6"/>
     <use xlink:href="#m132ca59f19" x="198.358788" y="225.281749" style="fill: #ec407a; fill-opacity: 0.6; stroke: #ec407a; stroke-opacity: 0.6"/>
     <use xlink:href="#m132ca59f19" x="224.667533" y="272.520292" style="fill: #ec407a; fill-opacity: 0.6; stroke: #ec407a; stroke-opacity: 0.6"/>
     <use xlink:href="#m132ca59f19" x="250.976279" y="120.523467" style="fill: #ec407a; fill-opacity: 0.6; stroke: #ec407a; stroke-opacity: 0.6"/>
     <use xlink:href="#m132ca59f19" x="277.285024" y="167.616913" style="fill: #ec407a; fill-opacity: 0.6; stroke: #ec407a; stroke-opacity: 0.6"/>
     <use xlink:href="#m132ca59f19" x="303.593769" y="185.447416" style="fill: #ec407a; fill-opacity: 0.6; stroke: #ec407a; stroke-opacity: 0.6"/>
     <use xlink:href="#m132ca59f19" x="329.902514" y="253.652788" style="fill: #ec407a; fill-opacity: 0.6; stroke: #ec407a; stroke-opacity: 0.6"/>
     <use xlink:href="#m132ca59f19" x="356.21126" y="232.748085" style="fill: #ec407a; fill-opacity: 0.6; stroke: #ec407a; stroke-opacity: 0.6"/>
     <use xlink:href="#m132ca59f19" x="382.520005" y="182.632719" style="fill: #ec407a; fill-opacity: 0.6; stroke: #ec407a; stroke-opacity: 0.6"/>
     <use xlink:href="#m132ca59f19" x="408.82875" y="138.377012" style="fill: #ec407a; fill-opacity: 0.6; stroke: #ec407a; stroke-opacity: 0.6"/>
     <use xlink:href="#m132ca59f19" x="435.137495" y="62.294838" style="fill: #ec407a; fill-opacity: 0.6; stroke: #ec407a; stroke-opacity: 0.6"/>
     <use xlink:href="#m132ca59f19" x="461.44624" y="244.987926" style="fill: #ec407a; fill-opacity: 0.6; stroke: #ec407a; stroke-opacity: 0.6"/>
     <use xlink:href="#m132ca59f19" x="487.754986" y="185.859188" style="fill: #ec407a; fill-opacity: 0.6; stroke: #ec407a; stroke-opacity: 0.6"/>
     <use xlink:href="#m132ca59f19" x="514.063731" y="246.106979" style="fill: #ec407a; fill-opacity: 0.6; stroke: #ec407a; stroke-opacity: 0.6"/>
     <use xlink:href="#m132ca59f19" x="540.372476" y="145.666824" style="fill: #ec407a; fill-opacity: 0.6; stroke: #ec407a; stroke-opacity: 0.6"/>
     <use xlink:href="#m132ca59f19" x="566.681221" y="157.594985" style="fill: #ec407a; fill-opacity: 0.6; stroke: #ec407a; stroke-opacity: 0.6"/>
     <use xlink:href="#m132ca59f19" x="592.989967" y="217.918793" style="fill: #ec407a; fill-opacity: 0.6; stroke: #ec407a; stroke-opacity: 0.6"/>
     <use xlink:href="#m132ca59f19" x="619.298712" y="44.409593" style="fill: #ec407a; fill-opacity: 0.6; stroke: #ec407a; stroke-opacity: 0.6"/>
     <use xlink:href="#m132ca59f19" x="645.607457" y="240.361995" style="fill: #ec407a; fill-opacity: 0.6; stroke: #ec407a; stroke-opacity: 0.6"/>
     <use xlink:href="#m132ca59f19" x="671.916202" y="143.990678" style="fill: #ec407a; fill-opacity: 0.6; stroke: #ec407a; stroke-opacity: 0.6"/>
     <use xlink:href="#m132ca59f19" x="698.224948" y="159.654511" style="fill: #ec407a; fill-opacity: 0.6; stroke: #ec407a; stroke-opacity: 0.6"/>
    </g>
   </g>
   <g id="patch_3">
    <path d="M 62.86875 288.430125 
L 62.86875 22.318125 
" style="fill: none"/>
   </g>
   <g id="patch_4">
    <path d="M 754.78875 288.430125 
L 754.78875 22.318125 
" style="fill: none"/>
   </g>
   <g id="patch_5">
    <path d="M 62.86875 288.430125 
L 754.78875 288.430125 
" style="fill: none"/>
   </g>
   <g id="patch_6">
    <path d="M 62.86875 22.318125 
L 754.78875 22.318125 
" style="fill: none"/>
   </g>
   <g id="text_14">
    <!-- HMC -->
    <g style="fill: #666666" transform="translate(394.95 16.318125) scale(0.12 -0.12)">
     <defs>
      <path id="DejaVuSans-48" d="M 628 4666 
L 1259 4666 
L 1259 2753 
L 3553 2753 
L 3553 4666 
L 4184 4666 
L 4184 0 
L 3553 0 
L 3553 2222 
L 1259 2222 
L 1259 0 
L 628 0 
L 628 4666 
z
" transform="scale(0.015625)"/>
      <path id="DejaVuSans-4d" d="M 628 4666 
L 1569 4666 
L 2759 1491 
L 3956 4666 
L 4897 4666 
L 4897 0 
L 4281 0 
L 4281 4097 
L 3078 897 
L 2444 897 
L 1241 4097 
L 1241 0 
L 628 0 
L 628 4666 
z
" transform="scale(0.015625)"/>
      <path id="DejaVuSans-43" d="M 4122 4306 
L 4122 3641 
Q 3803 3938 3442 4084 
Q 3081 4231 2675 4231 
Q 1875 4231 1450 3742 
Q 1025 3253 1025 2328 
Q 1025 1406 1450 917 
Q 1875 428 2675 428 
Q 3081 428 3442 575 
Q 3803 722 4122 1019 
L 4122 359 
Q 3791 134 3420 21 
Q 3050 -91 2638 -91 
Q 1578 -91 968 557 
Q 359 1206 359 2328 
Q 359 3453 968 4101 
Q 1578 4750 2638 4750 
Q 3056 4750 3426 4639 
Q 3797 4528 4122 4306 
z
" transform="scale(0.015625)"/>
     </defs>
     <use xlink:href="#DejaVuSans-48"/>
     <use xlink:href="#DejaVuSans-4d" x="75.195312"/>
     <use xlink:href="#DejaVuSans-43" x="161.474609"/>
    </g>
   </g>
  </g>
 </g>
 <defs>
  <clipPath id="pc9aed571b1">
   <rect x="62.86875" y="22.318125" width="691.92" height="266.112"/>
  </clipPath>
 </defs>
</svg>
