<?xml version="1.0" encoding="utf-8" standalone="no"?>
<!DOCTYPE svg PUBLIC "-//W3C//DTD SVG 1.1//EN"
  "http://www.w3.org/Graphics/SVG/1.1/DTD/svg11.dtd">
<svg xmlns:xlink="http://www.w3.org/1999/xlink" width="872.39952pt" height="152.406273pt" viewBox="0 0 872.39952 152.406273" xmlns="http://www.w3.org/2000/svg" version="1.1">
 <metadata>
  <rdf:RDF xmlns:dc="http://purl.org/dc/elements/1.1/" xmlns:cc="http://creativecommons.org/ns#" xmlns:rdf="http://www.w3.org/1999/02/22-rdf-syntax-ns#">
   <cc:Work>
    <dc:type rdf:resource="http://purl.org/dc/dcmitype/StillImage"/>
    <dc:format>image/svg+xml</dc:format>
    <dc:creator>
     <cc:Agent>
      <dc:title>Matplotlib, https://matplotlib.org/</dc:title>
     </cc:Agent>
    </dc:creator>
   </cc:Work>
  </rdf:RDF>
 </metadata>
 <defs>
  <style type="text/css">*{stroke-linejoin: round; stroke-linecap: butt}</style>
 </defs>
 <g id="figure_1">
  <g id="patch_1">
   <path d="M 0 152.406273 
L 872.39952 152.406273 
L 872.39952 0 
L 0 0 
L 0 152.406273 
z
" style="fill: none"/>
  </g>
  <g id="axes_1">
   <g id="patch_2">
    <path d="M 7.2 128.528148 
L 865.19952 128.528148 
L 865.19952 20.214138 
L 7.2 20.214138 
L 7.2 128.528148 
z
" style="fill: none"/>
   </g>
   <g id="matplotlib.axis_1">
    <g id="xtick_1">
     <g id="line2d_1">
      <path d="M 23.693647 128.528148 
L 23.693647 20.214138 
" clip-path="url(#p432bbfac46)" style="fill: none; stroke-dasharray: 1.85,0.8; stroke-dashoffset: 0; stroke: #666666; stroke-opacity: 0.4; stroke-width: 0.5"/>
     </g>
     <g id="line2d_2">
      <defs>
       <path id="m7c54f89291" d="M 0 0 
L 0 3.5 
" style="stroke: #000000; stroke-opacity: 0; stroke-width: 0.8"/>
      </defs>
      <g>
       <use xlink:href="#m7c54f89291" x="23.693647" y="128.528148" style="fill-opacity: 0; stroke: #000000; stroke-opacity: 0; stroke-width: 0.8"/>
      </g>
     </g>
     <g id="text_1">
      <!-- −1.00 -->
      <g style="fill: #666666" transform="translate(8.370991 143.126585) scale(0.1 -0.1)">
       <defs>
        <path id="DejaVuSans-2212" d="M 678 2272 
L 4684 2272 
L 4684 1741 
L 678 1741 
L 678 2272 
z
" transform="scale(0.015625)"/>
        <path id="DejaVuSans-31" d="M 794 531 
L 1825 531 
L 1825 4091 
L 703 3866 
L 703 4441 
L 1819 4666 
L 2450 4666 
L 2450 531 
L 3481 531 
L 3481 0 
L 794 0 
L 794 531 
z
" transform="scale(0.015625)"/>
        <path id="DejaVuSans-2e" d="M 684 794 
L 1344 794 
L 1344 0 
L 684 0 
L 684 794 
z
" transform="scale(0.015625)"/>
        <path id="DejaVuSans-30" d="M 2034 4250 
Q 1547 4250 1301 3770 
Q 1056 3291 1056 2328 
Q 1056 1369 1301 889 
Q 1547 409 2034 409 
Q 2525 409 2770 889 
Q 3016 1369 3016 2328 
Q 3016 3291 2770 3770 
Q 2525 4250 2034 4250 
z
M 2034 4750 
Q 2819 4750 3233 4129 
Q 3647 3509 3647 2328 
Q 3647 1150 3233 529 
Q 2819 -91 2034 -91 
Q 1250 -91 836 529 
Q 422 1150 422 2328 
Q 422 3509 836 4129 
Q 1250 4750 2034 4750 
z
" transform="scale(0.015625)"/>
       </defs>
       <use xlink:href="#DejaVuSans-2212"/>
       <use xlink:href="#DejaVuSans-31" x="83.789062"/>
       <use xlink:href="#DejaVuSans-2e" x="147.412109"/>
       <use xlink:href="#DejaVuSans-30" x="179.199219"/>
       <use xlink:href="#DejaVuSans-30" x="242.822266"/>
      </g>
     </g>
    </g>
    <g id="xtick_2">
     <g id="line2d_3">
      <path d="M 126.778941 128.528148 
L 126.778941 20.214138 
" clip-path="url(#p432bbfac46)" style="fill: none; stroke-dasharray: 1.85,0.8; stroke-dashoffset: 0; stroke: #666666; stroke-opacity: 0.4; stroke-width: 0.5"/>
     </g>
     <g id="line2d_4">
      <g>
       <use xlink:href="#m7c54f89291" x="126.778941" y="128.528148" style="fill-opacity: 0; stroke: #000000; stroke-opacity: 0; stroke-width: 0.8"/>
      </g>
     </g>
     <g id="text_2">
      <!-- −0.75 -->
      <g style="fill: #666666" transform="translate(111.456285 143.126585) scale(0.1 -0.1)">
       <defs>
        <path id="DejaVuSans-37" d="M 525 4666 
L 3525 4666 
L 3525 4397 
L 1831 0 
L 1172 0 
L 2766 4134 
L 525 4134 
L 525 4666 
z
" transform="scale(0.015625)"/>
        <path id="DejaVuSans-35" d="M 691 4666 
L 3169 4666 
L 3169 4134 
L 1269 4134 
L 1269 2991 
Q 1406 3038 1543 3061 
Q 1681 3084 1819 3084 
Q 2600 3084 3056 2656 
Q 3513 2228 3513 1497 
Q 3513 744 3044 326 
Q 2575 -91 1722 -91 
Q 1428 -91 1123 -41 
Q 819 9 494 109 
L 494 744 
Q 775 591 1075 516 
Q 1375 441 1709 441 
Q 2250 441 2565 725 
Q 2881 1009 2881 1497 
Q 2881 1984 2565 2268 
Q 2250 2553 1709 2553 
Q 1456 2553 1204 2497 
Q 953 2441 691 2322 
L 691 4666 
z
" transform="scale(0.015625)"/>
       </defs>
       <use xlink:href="#DejaVuSans-2212"/>
       <use xlink:href="#DejaVuSans-30" x="83.789062"/>
       <use xlink:href="#DejaVuSans-2e" x="147.412109"/>
       <use xlink:href="#DejaVuSans-37" x="179.199219"/>
       <use xlink:href="#DejaVuSans-35" x="242.822266"/>
      </g>
     </g>
    </g>
    <g id="xtick_3">
     <g id="line2d_5">
      <path d="M 229.864235 128.528148 
L 229.864235 20.214138 
" clip-path="url(#p432bbfac46)" style="fill: none; stroke-dasharray: 1.85,0.8; stroke-dashoffset: 0; stroke: #666666; stroke-opacity: 0.4; stroke-width: 0.5"/>
     </g>
     <g id="line2d_6">
      <g>
       <use xlink:href="#m7c54f89291" x="229.864235" y="128.528148" style="fill-opacity: 0; stroke: #000000; stroke-opacity: 0; stroke-width: 0.8"/>
      </g>
     </g>
     <g id="text_3">
      <!-- −0.50 -->
      <g style="fill: #666666" transform="translate(214.541579 143.126585) scale(0.1 -0.1)">
       <use xlink:href="#DejaVuSans-2212"/>
       <use xlink:href="#DejaVuSans-30" x="83.789062"/>
       <use xlink:href="#DejaVuSans-2e" x="147.412109"/>
       <use xlink:href="#DejaVuSans-35" x="179.199219"/>
       <use xlink:href="#DejaVuSans-30" x="242.822266"/>
      </g>
     </g>
    </g>
    <g id="xtick_4">
     <g id="line2d_7">
      <path d="M 332.949529 128.528148 
L 332.949529 20.214138 
" clip-path="url(#p432bbfac46)" style="fill: none; stroke-dasharray: 1.85,0.8; stroke-dashoffset: 0; stroke: #666666; stroke-opacity: 0.4; stroke-width: 0.5"/>
     </g>
     <g id="line2d_8">
      <g>
       <use xlink:href="#m7c54f89291" x="332.949529" y="128.528148" style="fill-opacity: 0; stroke: #000000; stroke-opacity: 0; stroke-width: 0.8"/>
      </g>
     </g>
     <g id="text_4">
      <!-- −0.25 -->
      <g style="fill: #666666" transform="translate(317.626873 143.126585) scale(0.1 -0.1)">
       <defs>
        <path id="DejaVuSans-32" d="M 1228 531 
L 3431 531 
L 3431 0 
L 469 0 
L 469 531 
Q 828 903 1448 1529 
Q 2069 2156 2228 2338 
Q 2531 2678 2651 2914 
Q 2772 3150 2772 3378 
Q 2772 3750 2511 3984 
Q 2250 4219 1831 4219 
Q 1534 4219 1204 4116 
Q 875 4013 500 3803 
L 500 4441 
Q 881 4594 1212 4672 
Q 1544 4750 1819 4750 
Q 2544 4750 2975 4387 
Q 3406 4025 3406 3419 
Q 3406 3131 3298 2873 
Q 3191 2616 2906 2266 
Q 2828 2175 2409 1742 
Q 1991 1309 1228 531 
z
" transform="scale(0.015625)"/>
       </defs>
       <use xlink:href="#DejaVuSans-2212"/>
       <use xlink:href="#DejaVuSans-30" x="83.789062"/>
       <use xlink:href="#DejaVuSans-2e" x="147.412109"/>
       <use xlink:href="#DejaVuSans-32" x="179.199219"/>
       <use xlink:href="#DejaVuSans-35" x="242.822266"/>
      </g>
     </g>
    </g>
    <g id="xtick_5">
     <g id="line2d_9">
      <path d="M 436.034824 128.528148 
L 436.034824 20.214138 
" clip-path="url(#p432bbfac46)" style="fill: none; stroke-dasharray: 1.85,0.8; stroke-dashoffset: 0; stroke: #666666; stroke-opacity: 0.4; stroke-width: 0.5"/>
     </g>
     <g id="line2d_10">
      <g>
       <use xlink:href="#m7c54f89291" x="436.034824" y="128.528148" style="fill-opacity: 0; stroke: #000000; stroke-opacity: 0; stroke-width: 0.8"/>
      </g>
     </g>
     <g id="text_5">
      <!-- 0.00 -->
      <g style="fill: #666666" transform="translate(424.902011 143.126585) scale(0.1 -0.1)">
       <use xlink:href="#DejaVuSans-30"/>
       <use xlink:href="#DejaVuSans-2e" x="63.623047"/>
       <use xlink:href="#DejaVuSans-30" x="95.410156"/>
       <use xlink:href="#DejaVuSans-30" x="159.033203"/>
      </g>
     </g>
    </g>
    <g id="xtick_6">
     <g id="line2d_11">
      <path d="M 539.120118 128.528148 
L 539.120118 20.214138 
" clip-path="url(#p432bbfac46)" style="fill: none; stroke-dasharray: 1.85,0.8; stroke-dashoffset: 0; stroke: #666666; stroke-opacity: 0.4; stroke-width: 0.5"/>
     </g>
     <g id="line2d_12">
      <g>
       <use xlink:href="#m7c54f89291" x="539.120118" y="128.528148" style="fill-opacity: 0; stroke: #000000; stroke-opacity: 0; stroke-width: 0.8"/>
      </g>
     </g>
     <g id="text_6">
      <!-- 0.25 -->
      <g style="fill: #666666" transform="translate(527.987305 143.126585) scale(0.1 -0.1)">
       <use xlink:href="#DejaVuSans-30"/>
       <use xlink:href="#DejaVuSans-2e" x="63.623047"/>
       <use xlink:href="#DejaVuSans-32" x="95.410156"/>
       <use xlink:href="#DejaVuSans-35" x="159.033203"/>
      </g>
     </g>
    </g>
    <g id="xtick_7">
     <g id="line2d_13">
      <path d="M 642.205412 128.528148 
L 642.205412 20.214138 
" clip-path="url(#p432bbfac46)" style="fill: none; stroke-dasharray: 1.85,0.8; stroke-dashoffset: 0; stroke: #666666; stroke-opacity: 0.4; stroke-width: 0.5"/>
     </g>
     <g id="line2d_14">
      <g>
       <use xlink:href="#m7c54f89291" x="642.205412" y="128.528148" style="fill-opacity: 0; stroke: #000000; stroke-opacity: 0; stroke-width: 0.8"/>
      </g>
     </g>
     <g id="text_7">
      <!-- 0.50 -->
      <g style="fill: #666666" transform="translate(631.072599 143.126585) scale(0.1 -0.1)">
       <use xlink:href="#DejaVuSans-30"/>
       <use xlink:href="#DejaVuSans-2e" x="63.623047"/>
       <use xlink:href="#DejaVuSans-35" x="95.410156"/>
       <use xlink:href="#DejaVuSans-30" x="159.033203"/>
      </g>
     </g>
    </g>
    <g id="xtick_8">
     <g id="line2d_15">
      <path d="M 745.290706 128.528148 
L 745.290706 20.214138 
" clip-path="url(#p432bbfac46)" style="fill: none; stroke-dasharray: 1.85,0.8; stroke-dashoffset: 0; stroke: #666666; stroke-opacity: 0.4; stroke-width: 0.5"/>
     </g>
     <g id="line2d_16">
      <g>
       <use xlink:href="#m7c54f89291" x="745.290706" y="128.528148" style="fill-opacity: 0; stroke: #000000; stroke-opacity: 0; stroke-width: 0.8"/>
      </g>
     </g>
     <g id="text_8">
      <!-- 0.75 -->
      <g style="fill: #666666" transform="translate(734.157893 143.126585) scale(0.1 -0.1)">
       <use xlink:href="#DejaVuSans-30"/>
       <use xlink:href="#DejaVuSans-2e" x="63.623047"/>
       <use xlink:href="#DejaVuSans-37" x="95.410156"/>
       <use xlink:href="#DejaVuSans-35" x="159.033203"/>
      </g>
     </g>
    </g>
    <g id="xtick_9">
     <g id="line2d_17">
      <path d="M 848.376 128.528148 
L 848.376 20.214138 
" clip-path="url(#p432bbfac46)" style="fill: none; stroke-dasharray: 1.85,0.8; stroke-dashoffset: 0; stroke: #666666; stroke-opacity: 0.4; stroke-width: 0.5"/>
     </g>
     <g id="line2d_18">
      <g>
       <use xlink:href="#m7c54f89291" x="848.376" y="128.528148" style="fill-opacity: 0; stroke: #000000; stroke-opacity: 0; stroke-width: 0.8"/>
      </g>
     </g>
     <g id="text_9">
      <!-- 1.00 -->
      <g style="fill: #666666" transform="translate(837.243187 143.126585) scale(0.1 -0.1)">
       <use xlink:href="#DejaVuSans-31"/>
       <use xlink:href="#DejaVuSans-2e" x="63.623047"/>
       <use xlink:href="#DejaVuSans-30" x="95.410156"/>
       <use xlink:href="#DejaVuSans-30" x="159.033203"/>
      </g>
     </g>
    </g>
   </g>
   <g id="matplotlib.axis_2"/>
   <g id="line2d_19">
    <path d="M 102.561942 128.528148 
L 102.561942 20.214138 
" clip-path="url(#p432bbfac46)" style="fill: none; stroke: #000000; stroke-width: 1.5; stroke-linecap: square"/>
   </g>
   <g id="line2d_20">
    <path d="M 270.607185 128.528148 
L 270.607185 20.214138 
" clip-path="url(#p432bbfac46)" style="fill: none; stroke: #000000; stroke-width: 1.5; stroke-linecap: square"/>
   </g>
   <g id="line2d_21">
    <path d="M 438.652428 128.528148 
L 438.652428 20.214138 
" clip-path="url(#p432bbfac46)" style="fill: none; stroke: #000000; stroke-width: 1.5; stroke-linecap: square"/>
   </g>
   <g id="line2d_22">
    <path d="M 606.697671 128.528148 
L 606.697671 20.214138 
" clip-path="url(#p432bbfac46)" style="fill: none; stroke: #000000; stroke-width: 1.5; stroke-linecap: square"/>
   </g>
   <g id="line2d_23">
    <path d="M 774.742914 128.528148 
L 774.742914 20.214138 
" clip-path="url(#p432bbfac46)" style="fill: none; stroke: #000000; stroke-width: 1.5; stroke-linecap: square"/>
   </g>
   <g id="line2d_24">
    <path d="M 25.444612 128.528148 
L 25.444612 20.214138 
" clip-path="url(#p432bbfac46)" style="fill: none; stroke: #ff0000; stroke-width: 1.5; stroke-linecap: square"/>
   </g>
   <g id="line2d_25">
    <path d="M 845.436516 128.528148 
L 845.436516 20.214138 
" clip-path="url(#p432bbfac46)" style="fill: none; stroke: #ff0000; stroke-width: 1.5; stroke-linecap: square"/>
   </g>
   <g id="patch_3">
    <path d="M 7.2 128.528148 
L 7.2 20.214138 
" style="fill: none"/>
   </g>
   <g id="patch_4">
    <path d="M 865.19952 128.528148 
L 865.19952 20.214138 
" style="fill: none"/>
   </g>
   <g id="patch_5">
    <path d="M 7.2 128.528148 
L 865.19952 128.528148 
" style="fill: none"/>
   </g>
   <g id="patch_6">
    <path d="M 7.2 20.214138 
L 865.19952 20.214138 
" style="fill: none"/>
   </g>
   <g id="text_10">
    <g id="patch_7">
     <path d="M 24.444612 104.10708 
L 24.444612 44.635205 
Q 24.444612 44.635205 24.444612 44.635205 
L 14.766487 44.635205 
Q 14.766487 44.635205 14.766487 44.635205 
L 14.766487 104.10708 
Q 14.766487 104.10708 14.766487 104.10708 
L 24.444612 104.10708 
Q 24.444612 104.10708 24.444612 104.10708 
z
" style="fill: #ffffff"/>
    </g>
    <!-- min=-0.996 -->
    <g style="fill: #666666" transform="translate(22.364924 104.10708) rotate(-90) scale(0.1 -0.1)">
     <defs>
      <path id="DejaVuSans-6d" d="M 3328 2828 
Q 3544 3216 3844 3400 
Q 4144 3584 4550 3584 
Q 5097 3584 5394 3201 
Q 5691 2819 5691 2113 
L 5691 0 
L 5113 0 
L 5113 2094 
Q 5113 2597 4934 2840 
Q 4756 3084 4391 3084 
Q 3944 3084 3684 2787 
Q 3425 2491 3425 1978 
L 3425 0 
L 2847 0 
L 2847 2094 
Q 2847 2600 2669 2842 
Q 2491 3084 2119 3084 
Q 1678 3084 1418 2786 
Q 1159 2488 1159 1978 
L 1159 0 
L 581 0 
L 581 3500 
L 1159 3500 
L 1159 2956 
Q 1356 3278 1631 3431 
Q 1906 3584 2284 3584 
Q 2666 3584 2933 3390 
Q 3200 3197 3328 2828 
z
" transform="scale(0.015625)"/>
      <path id="DejaVuSans-69" d="M 603 3500 
L 1178 3500 
L 1178 0 
L 603 0 
L 603 3500 
z
M 603 4863 
L 1178 4863 
L 1178 4134 
L 603 4134 
L 603 4863 
z
" transform="scale(0.015625)"/>
      <path id="DejaVuSans-6e" d="M 3513 2113 
L 3513 0 
L 2938 0 
L 2938 2094 
Q 2938 2591 2744 2837 
Q 2550 3084 2163 3084 
Q 1697 3084 1428 2787 
Q 1159 2491 1159 1978 
L 1159 0 
L 581 0 
L 581 3500 
L 1159 3500 
L 1159 2956 
Q 1366 3272 1645 3428 
Q 1925 3584 2291 3584 
Q 2894 3584 3203 3211 
Q 3513 2838 3513 2113 
z
" transform="scale(0.015625)"/>
      <path id="DejaVuSans-3d" d="M 678 2906 
L 4684 2906 
L 4684 2381 
L 678 2381 
L 678 2906 
z
M 678 1631 
L 4684 1631 
L 4684 1100 
L 678 1100 
L 678 1631 
z
" transform="scale(0.015625)"/>
      <path id="DejaVuSans-2d" d="M 313 2009 
L 1997 2009 
L 1997 1497 
L 313 1497 
L 313 2009 
z
" transform="scale(0.015625)"/>
      <path id="DejaVuSans-39" d="M 703 97 
L 703 672 
Q 941 559 1184 500 
Q 1428 441 1663 441 
Q 2288 441 2617 861 
Q 2947 1281 2994 2138 
Q 2813 1869 2534 1725 
Q 2256 1581 1919 1581 
Q 1219 1581 811 2004 
Q 403 2428 403 3163 
Q 403 3881 828 4315 
Q 1253 4750 1959 4750 
Q 2769 4750 3195 4129 
Q 3622 3509 3622 2328 
Q 3622 1225 3098 567 
Q 2575 -91 1691 -91 
Q 1453 -91 1209 -44 
Q 966 3 703 97 
z
M 1959 2075 
Q 2384 2075 2632 2365 
Q 2881 2656 2881 3163 
Q 2881 3666 2632 3958 
Q 2384 4250 1959 4250 
Q 1534 4250 1286 3958 
Q 1038 3666 1038 3163 
Q 1038 2656 1286 2365 
Q 1534 2075 1959 2075 
z
" transform="scale(0.015625)"/>
      <path id="DejaVuSans-36" d="M 2113 2584 
Q 1688 2584 1439 2293 
Q 1191 2003 1191 1497 
Q 1191 994 1439 701 
Q 1688 409 2113 409 
Q 2538 409 2786 701 
Q 3034 994 3034 1497 
Q 3034 2003 2786 2293 
Q 2538 2584 2113 2584 
z
M 3366 4563 
L 3366 3988 
Q 3128 4100 2886 4159 
Q 2644 4219 2406 4219 
Q 1781 4219 1451 3797 
Q 1122 3375 1075 2522 
Q 1259 2794 1537 2939 
Q 1816 3084 2150 3084 
Q 2853 3084 3261 2657 
Q 3669 2231 3669 1497 
Q 3669 778 3244 343 
Q 2819 -91 2113 -91 
Q 1303 -91 875 529 
Q 447 1150 447 2328 
Q 447 3434 972 4092 
Q 1497 4750 2381 4750 
Q 2619 4750 2861 4703 
Q 3103 4656 3366 4563 
z
" transform="scale(0.015625)"/>
     </defs>
     <use xlink:href="#DejaVuSans-6d"/>
     <use xlink:href="#DejaVuSans-69" x="97.412109"/>
     <use xlink:href="#DejaVuSans-6e" x="125.195312"/>
     <use xlink:href="#DejaVuSans-3d" x="188.574219"/>
     <use xlink:href="#DejaVuSans-2d" x="272.363281"/>
     <use xlink:href="#DejaVuSans-30" x="308.447266"/>
     <use xlink:href="#DejaVuSans-2e" x="372.070312"/>
     <use xlink:href="#DejaVuSans-39" x="403.857422"/>
     <use xlink:href="#DejaVuSans-39" x="467.480469"/>
     <use xlink:href="#DejaVuSans-36" x="531.103516"/>
    </g>
   </g>
   <g id="text_11">
    <g id="patch_8">
     <path d="M 857.114641 103.768799 
L 857.114641 44.973487 
Q 857.114641 44.973487 857.114641 44.973487 
L 847.436516 44.973487 
Q 847.436516 44.973487 847.436516 44.973487 
L 847.436516 103.768799 
Q 847.436516 103.768799 847.436516 103.768799 
L 857.114641 103.768799 
Q 857.114641 103.768799 857.114641 103.768799 
z
" style="fill: #ffffff"/>
    </g>
    <!-- max=0.993 -->
    <g style="fill: #666666" transform="translate(855.034953 103.768799) rotate(-90) scale(0.1 -0.1)">
     <defs>
      <path id="DejaVuSans-61" d="M 2194 1759 
Q 1497 1759 1228 1600 
Q 959 1441 959 1056 
Q 959 750 1161 570 
Q 1363 391 1709 391 
Q 2188 391 2477 730 
Q 2766 1069 2766 1631 
L 2766 1759 
L 2194 1759 
z
M 3341 1997 
L 3341 0 
L 2766 0 
L 2766 531 
Q 2569 213 2275 61 
Q 1981 -91 1556 -91 
Q 1019 -91 701 211 
Q 384 513 384 1019 
Q 384 1609 779 1909 
Q 1175 2209 1959 2209 
L 2766 2209 
L 2766 2266 
Q 2766 2663 2505 2880 
Q 2244 3097 1772 3097 
Q 1472 3097 1187 3025 
Q 903 2953 641 2809 
L 641 3341 
Q 956 3463 1253 3523 
Q 1550 3584 1831 3584 
Q 2591 3584 2966 3190 
Q 3341 2797 3341 1997 
z
" transform="scale(0.015625)"/>
      <path id="DejaVuSans-78" d="M 3513 3500 
L 2247 1797 
L 3578 0 
L 2900 0 
L 1881 1375 
L 863 0 
L 184 0 
L 1544 1831 
L 300 3500 
L 978 3500 
L 1906 2253 
L 2834 3500 
L 3513 3500 
z
" transform="scale(0.015625)"/>
      <path id="DejaVuSans-33" d="M 2597 2516 
Q 3050 2419 3304 2112 
Q 3559 1806 3559 1356 
Q 3559 666 3084 287 
Q 2609 -91 1734 -91 
Q 1441 -91 1130 -33 
Q 819 25 488 141 
L 488 750 
Q 750 597 1062 519 
Q 1375 441 1716 441 
Q 2309 441 2620 675 
Q 2931 909 2931 1356 
Q 2931 1769 2642 2001 
Q 2353 2234 1838 2234 
L 1294 2234 
L 1294 2753 
L 1863 2753 
Q 2328 2753 2575 2939 
Q 2822 3125 2822 3475 
Q 2822 3834 2567 4026 
Q 2313 4219 1838 4219 
Q 1578 4219 1281 4162 
Q 984 4106 628 3988 
L 628 4550 
Q 988 4650 1302 4700 
Q 1616 4750 1894 4750 
Q 2613 4750 3031 4423 
Q 3450 4097 3450 3541 
Q 3450 3153 3228 2886 
Q 3006 2619 2597 2516 
z
" transform="scale(0.015625)"/>
     </defs>
     <use xlink:href="#DejaVuSans-6d"/>
     <use xlink:href="#DejaVuSans-61" x="97.412109"/>
     <use xlink:href="#DejaVuSans-78" x="158.691406"/>
     <use xlink:href="#DejaVuSans-3d" x="217.871094"/>
     <use xlink:href="#DejaVuSans-30" x="301.660156"/>
     <use xlink:href="#DejaVuSans-2e" x="365.283203"/>
     <use xlink:href="#DejaVuSans-39" x="397.070312"/>
     <use xlink:href="#DejaVuSans-39" x="460.693359"/>
     <use xlink:href="#DejaVuSans-33" x="524.316406"/>
    </g>
   </g>
   <g id="text_12">
    <!-- 10000 samples (μ=0.006, σ=0.408) of tensor[4, 4, 4, 4, 4, 8, 3, 3] f64 n=73728 x∈[-0.996, 0.993] μ=0.001 σ=0.409 grad SelectBackward0 -->
    <g style="fill: #666666" transform="translate(7.2 14.798437) scale(0.1 -0.1)">
     <defs>
      <path id="DejaVuSans-20" transform="scale(0.015625)"/>
      <path id="DejaVuSans-73" d="M 2834 3397 
L 2834 2853 
Q 2591 2978 2328 3040 
Q 2066 3103 1784 3103 
Q 1356 3103 1142 2972 
Q 928 2841 928 2578 
Q 928 2378 1081 2264 
Q 1234 2150 1697 2047 
L 1894 2003 
Q 2506 1872 2764 1633 
Q 3022 1394 3022 966 
Q 3022 478 2636 193 
Q 2250 -91 1575 -91 
Q 1294 -91 989 -36 
Q 684 19 347 128 
L 347 722 
Q 666 556 975 473 
Q 1284 391 1588 391 
Q 1994 391 2212 530 
Q 2431 669 2431 922 
Q 2431 1156 2273 1281 
Q 2116 1406 1581 1522 
L 1381 1569 
Q 847 1681 609 1914 
Q 372 2147 372 2553 
Q 372 3047 722 3315 
Q 1072 3584 1716 3584 
Q 2034 3584 2315 3537 
Q 2597 3491 2834 3397 
z
" transform="scale(0.015625)"/>
      <path id="DejaVuSans-70" d="M 1159 525 
L 1159 -1331 
L 581 -1331 
L 581 3500 
L 1159 3500 
L 1159 2969 
Q 1341 3281 1617 3432 
Q 1894 3584 2278 3584 
Q 2916 3584 3314 3078 
Q 3713 2572 3713 1747 
Q 3713 922 3314 415 
Q 2916 -91 2278 -91 
Q 1894 -91 1617 61 
Q 1341 213 1159 525 
z
M 3116 1747 
Q 3116 2381 2855 2742 
Q 2594 3103 2138 3103 
Q 1681 3103 1420 2742 
Q 1159 2381 1159 1747 
Q 1159 1113 1420 752 
Q 1681 391 2138 391 
Q 2594 391 2855 752 
Q 3116 1113 3116 1747 
z
" transform="scale(0.015625)"/>
      <path id="DejaVuSans-6c" d="M 603 4863 
L 1178 4863 
L 1178 0 
L 603 0 
L 603 4863 
z
" transform="scale(0.015625)"/>
      <path id="DejaVuSans-65" d="M 3597 1894 
L 3597 1613 
L 953 1613 
Q 991 1019 1311 708 
Q 1631 397 2203 397 
Q 2534 397 2845 478 
Q 3156 559 3463 722 
L 3463 178 
Q 3153 47 2828 -22 
Q 2503 -91 2169 -91 
Q 1331 -91 842 396 
Q 353 884 353 1716 
Q 353 2575 817 3079 
Q 1281 3584 2069 3584 
Q 2775 3584 3186 3129 
Q 3597 2675 3597 1894 
z
M 3022 2063 
Q 3016 2534 2758 2815 
Q 2500 3097 2075 3097 
Q 1594 3097 1305 2825 
Q 1016 2553 972 2059 
L 3022 2063 
z
" transform="scale(0.015625)"/>
      <path id="DejaVuSans-28" d="M 1984 4856 
Q 1566 4138 1362 3434 
Q 1159 2731 1159 2009 
Q 1159 1288 1364 580 
Q 1569 -128 1984 -844 
L 1484 -844 
Q 1016 -109 783 600 
Q 550 1309 550 2009 
Q 550 2706 781 3412 
Q 1013 4119 1484 4856 
L 1984 4856 
z
" transform="scale(0.015625)"/>
      <path id="DejaVuSans-3bc" d="M 544 -1331 
L 544 3500 
L 1119 3500 
L 1119 1325 
Q 1119 872 1334 640 
Q 1550 409 1972 409 
Q 2434 409 2667 671 
Q 2900 934 2900 1459 
L 2900 3500 
L 3475 3500 
L 3475 806 
Q 3475 619 3529 530 
Q 3584 441 3700 441 
Q 3728 441 3778 458 
Q 3828 475 3916 513 
L 3916 50 
Q 3788 -22 3673 -56 
Q 3559 -91 3450 -91 
Q 3234 -91 3106 31 
Q 2978 153 2931 403 
Q 2775 156 2548 32 
Q 2322 -91 2016 -91 
Q 1697 -91 1473 31 
Q 1250 153 1119 397 
L 1119 -1331 
L 544 -1331 
z
" transform="scale(0.015625)"/>
      <path id="DejaVuSans-2c" d="M 750 794 
L 1409 794 
L 1409 256 
L 897 -744 
L 494 -744 
L 750 256 
L 750 794 
z
" transform="scale(0.015625)"/>
      <path id="DejaVuSans-3c3" d="M 1959 3044 
Q 1484 3044 1228 2700 
Q 959 2341 959 1747 
Q 959 1119 1226 758 
Q 1494 397 1959 397 
Q 2419 397 2687 759 
Q 2956 1122 2956 1747 
Q 2956 2319 2688 2700 
Q 2441 3044 1959 3044 
z
M 1959 3500 
L 3869 3500 
L 3869 2925 
L 3225 2925 
Q 3566 2438 3566 1747 
Q 3566 888 3138 400 
Q 2709 -91 1959 -91 
Q 1206 -91 781 400 
Q 353 888 353 1747 
Q 353 2613 781 3097 
Q 1134 3500 1959 3500 
z
" transform="scale(0.015625)"/>
      <path id="DejaVuSans-34" d="M 2419 4116 
L 825 1625 
L 2419 1625 
L 2419 4116 
z
M 2253 4666 
L 3047 4666 
L 3047 1625 
L 3713 1625 
L 3713 1100 
L 3047 1100 
L 3047 0 
L 2419 0 
L 2419 1100 
L 313 1100 
L 313 1709 
L 2253 4666 
z
" transform="scale(0.015625)"/>
      <path id="DejaVuSans-38" d="M 2034 2216 
Q 1584 2216 1326 1975 
Q 1069 1734 1069 1313 
Q 1069 891 1326 650 
Q 1584 409 2034 409 
Q 2484 409 2743 651 
Q 3003 894 3003 1313 
Q 3003 1734 2745 1975 
Q 2488 2216 2034 2216 
z
M 1403 2484 
Q 997 2584 770 2862 
Q 544 3141 544 3541 
Q 544 4100 942 4425 
Q 1341 4750 2034 4750 
Q 2731 4750 3128 4425 
Q 3525 4100 3525 3541 
Q 3525 3141 3298 2862 
Q 3072 2584 2669 2484 
Q 3125 2378 3379 2068 
Q 3634 1759 3634 1313 
Q 3634 634 3220 271 
Q 2806 -91 2034 -91 
Q 1263 -91 848 271 
Q 434 634 434 1313 
Q 434 1759 690 2068 
Q 947 2378 1403 2484 
z
M 1172 3481 
Q 1172 3119 1398 2916 
Q 1625 2713 2034 2713 
Q 2441 2713 2670 2916 
Q 2900 3119 2900 3481 
Q 2900 3844 2670 4047 
Q 2441 4250 2034 4250 
Q 1625 4250 1398 4047 
Q 1172 3844 1172 3481 
z
" transform="scale(0.015625)"/>
      <path id="DejaVuSans-29" d="M 513 4856 
L 1013 4856 
Q 1481 4119 1714 3412 
Q 1947 2706 1947 2009 
Q 1947 1309 1714 600 
Q 1481 -109 1013 -844 
L 513 -844 
Q 928 -128 1133 580 
Q 1338 1288 1338 2009 
Q 1338 2731 1133 3434 
Q 928 4138 513 4856 
z
" transform="scale(0.015625)"/>
      <path id="DejaVuSans-6f" d="M 1959 3097 
Q 1497 3097 1228 2736 
Q 959 2375 959 1747 
Q 959 1119 1226 758 
Q 1494 397 1959 397 
Q 2419 397 2687 759 
Q 2956 1122 2956 1747 
Q 2956 2369 2687 2733 
Q 2419 3097 1959 3097 
z
M 1959 3584 
Q 2709 3584 3137 3096 
Q 3566 2609 3566 1747 
Q 3566 888 3137 398 
Q 2709 -91 1959 -91 
Q 1206 -91 779 398 
Q 353 888 353 1747 
Q 353 2609 779 3096 
Q 1206 3584 1959 3584 
z
" transform="scale(0.015625)"/>
      <path id="DejaVuSans-66" d="M 2375 4863 
L 2375 4384 
L 1825 4384 
Q 1516 4384 1395 4259 
Q 1275 4134 1275 3809 
L 1275 3500 
L 2222 3500 
L 2222 3053 
L 1275 3053 
L 1275 0 
L 697 0 
L 697 3053 
L 147 3053 
L 147 3500 
L 697 3500 
L 697 3744 
Q 697 4328 969 4595 
Q 1241 4863 1831 4863 
L 2375 4863 
z
" transform="scale(0.015625)"/>
      <path id="DejaVuSans-74" d="M 1172 4494 
L 1172 3500 
L 2356 3500 
L 2356 3053 
L 1172 3053 
L 1172 1153 
Q 1172 725 1289 603 
Q 1406 481 1766 481 
L 2356 481 
L 2356 0 
L 1766 0 
Q 1100 0 847 248 
Q 594 497 594 1153 
L 594 3053 
L 172 3053 
L 172 3500 
L 594 3500 
L 594 4494 
L 1172 4494 
z
" transform="scale(0.015625)"/>
      <path id="DejaVuSans-72" d="M 2631 2963 
Q 2534 3019 2420 3045 
Q 2306 3072 2169 3072 
Q 1681 3072 1420 2755 
Q 1159 2438 1159 1844 
L 1159 0 
L 581 0 
L 581 3500 
L 1159 3500 
L 1159 2956 
Q 1341 3275 1631 3429 
Q 1922 3584 2338 3584 
Q 2397 3584 2469 3576 
Q 2541 3569 2628 3553 
L 2631 2963 
z
" transform="scale(0.015625)"/>
      <path id="DejaVuSans-5b" d="M 550 4863 
L 1875 4863 
L 1875 4416 
L 1125 4416 
L 1125 -397 
L 1875 -397 
L 1875 -844 
L 550 -844 
L 550 4863 
z
" transform="scale(0.015625)"/>
      <path id="DejaVuSans-5d" d="M 1947 4863 
L 1947 -844 
L 622 -844 
L 622 -397 
L 1369 -397 
L 1369 4416 
L 622 4416 
L 622 4863 
L 1947 4863 
z
" transform="scale(0.015625)"/>
      <path id="DejaVuSans-2208" d="M 1072 1959 
Q 1094 1728 1291 1353 
Q 1522 919 1959 675 
Q 2388 438 2850 434 
L 5028 434 
L 5028 -63 
L 2850 -63 
Q 2250 -63 1695 246 
Q 1141 556 844 1106 
Q 547 1656 547 2241 
Q 547 2819 844 3369 
Q 1141 3919 1695 4231 
Q 2250 4544 2850 4544 
L 5028 4544 
L 5028 4047 
L 2850 4047 
Q 2388 4044 1959 3803 
Q 1525 3556 1291 3125 
Q 1091 2750 1063 2459 
L 5028 2459 
L 5028 1959 
L 1072 1959 
z
" transform="scale(0.015625)"/>
      <path id="DejaVuSans-67" d="M 2906 1791 
Q 2906 2416 2648 2759 
Q 2391 3103 1925 3103 
Q 1463 3103 1205 2759 
Q 947 2416 947 1791 
Q 947 1169 1205 825 
Q 1463 481 1925 481 
Q 2391 481 2648 825 
Q 2906 1169 2906 1791 
z
M 3481 434 
Q 3481 -459 3084 -895 
Q 2688 -1331 1869 -1331 
Q 1566 -1331 1297 -1286 
Q 1028 -1241 775 -1147 
L 775 -588 
Q 1028 -725 1275 -790 
Q 1522 -856 1778 -856 
Q 2344 -856 2625 -561 
Q 2906 -266 2906 331 
L 2906 616 
Q 2728 306 2450 153 
Q 2172 0 1784 0 
Q 1141 0 747 490 
Q 353 981 353 1791 
Q 353 2603 747 3093 
Q 1141 3584 1784 3584 
Q 2172 3584 2450 3431 
Q 2728 3278 2906 2969 
L 2906 3500 
L 3481 3500 
L 3481 434 
z
" transform="scale(0.015625)"/>
      <path id="DejaVuSans-64" d="M 2906 2969 
L 2906 4863 
L 3481 4863 
L 3481 0 
L 2906 0 
L 2906 525 
Q 2725 213 2448 61 
Q 2172 -91 1784 -91 
Q 1150 -91 751 415 
Q 353 922 353 1747 
Q 353 2572 751 3078 
Q 1150 3584 1784 3584 
Q 2172 3584 2448 3432 
Q 2725 3281 2906 2969 
z
M 947 1747 
Q 947 1113 1208 752 
Q 1469 391 1925 391 
Q 2381 391 2643 752 
Q 2906 1113 2906 1747 
Q 2906 2381 2643 2742 
Q 2381 3103 1925 3103 
Q 1469 3103 1208 2742 
Q 947 2381 947 1747 
z
" transform="scale(0.015625)"/>
      <path id="DejaVuSans-53" d="M 3425 4513 
L 3425 3897 
Q 3066 4069 2747 4153 
Q 2428 4238 2131 4238 
Q 1616 4238 1336 4038 
Q 1056 3838 1056 3469 
Q 1056 3159 1242 3001 
Q 1428 2844 1947 2747 
L 2328 2669 
Q 3034 2534 3370 2195 
Q 3706 1856 3706 1288 
Q 3706 609 3251 259 
Q 2797 -91 1919 -91 
Q 1588 -91 1214 -16 
Q 841 59 441 206 
L 441 856 
Q 825 641 1194 531 
Q 1563 422 1919 422 
Q 2459 422 2753 634 
Q 3047 847 3047 1241 
Q 3047 1584 2836 1778 
Q 2625 1972 2144 2069 
L 1759 2144 
Q 1053 2284 737 2584 
Q 422 2884 422 3419 
Q 422 4038 858 4394 
Q 1294 4750 2059 4750 
Q 2388 4750 2728 4690 
Q 3069 4631 3425 4513 
z
" transform="scale(0.015625)"/>
      <path id="DejaVuSans-63" d="M 3122 3366 
L 3122 2828 
Q 2878 2963 2633 3030 
Q 2388 3097 2138 3097 
Q 1578 3097 1268 2742 
Q 959 2388 959 1747 
Q 959 1106 1268 751 
Q 1578 397 2138 397 
Q 2388 397 2633 464 
Q 2878 531 3122 666 
L 3122 134 
Q 2881 22 2623 -34 
Q 2366 -91 2075 -91 
Q 1284 -91 818 406 
Q 353 903 353 1747 
Q 353 2603 823 3093 
Q 1294 3584 2113 3584 
Q 2378 3584 2631 3529 
Q 2884 3475 3122 3366 
z
" transform="scale(0.015625)"/>
      <path id="DejaVuSans-42" d="M 1259 2228 
L 1259 519 
L 2272 519 
Q 2781 519 3026 730 
Q 3272 941 3272 1375 
Q 3272 1813 3026 2020 
Q 2781 2228 2272 2228 
L 1259 2228 
z
M 1259 4147 
L 1259 2741 
L 2194 2741 
Q 2656 2741 2882 2914 
Q 3109 3088 3109 3444 
Q 3109 3797 2882 3972 
Q 2656 4147 2194 4147 
L 1259 4147 
z
M 628 4666 
L 2241 4666 
Q 2963 4666 3353 4366 
Q 3744 4066 3744 3513 
Q 3744 3084 3544 2831 
Q 3344 2578 2956 2516 
Q 3422 2416 3680 2098 
Q 3938 1781 3938 1306 
Q 3938 681 3513 340 
Q 3088 0 2303 0 
L 628 0 
L 628 4666 
z
" transform="scale(0.015625)"/>
      <path id="DejaVuSans-6b" d="M 581 4863 
L 1159 4863 
L 1159 1991 
L 2875 3500 
L 3609 3500 
L 1753 1863 
L 3688 0 
L 2938 0 
L 1159 1709 
L 1159 0 
L 581 0 
L 581 4863 
z
" transform="scale(0.015625)"/>
      <path id="DejaVuSans-77" d="M 269 3500 
L 844 3500 
L 1563 769 
L 2278 3500 
L 2956 3500 
L 3675 769 
L 4391 3500 
L 4966 3500 
L 4050 0 
L 3372 0 
L 2619 2869 
L 1863 0 
L 1184 0 
L 269 3500 
z
" transform="scale(0.015625)"/>
     </defs>
     <use xlink:href="#DejaVuSans-31"/>
     <use xlink:href="#DejaVuSans-30" x="63.623047"/>
     <use xlink:href="#DejaVuSans-30" x="127.246094"/>
     <use xlink:href="#DejaVuSans-30" x="190.869141"/>
     <use xlink:href="#DejaVuSans-30" x="254.492188"/>
     <use xlink:href="#DejaVuSans-20" x="318.115234"/>
     <use xlink:href="#DejaVuSans-73" x="349.902344"/>
     <use xlink:href="#DejaVuSans-61" x="402.001953"/>
     <use xlink:href="#DejaVuSans-6d" x="463.28125"/>
     <use xlink:href="#DejaVuSans-70" x="560.693359"/>
     <use xlink:href="#DejaVuSans-6c" x="624.169922"/>
     <use xlink:href="#DejaVuSans-65" x="651.953125"/>
     <use xlink:href="#DejaVuSans-73" x="713.476562"/>
     <use xlink:href="#DejaVuSans-20" x="765.576172"/>
     <use xlink:href="#DejaVuSans-28" x="797.363281"/>
     <use xlink:href="#DejaVuSans-3bc" x="836.376953"/>
     <use xlink:href="#DejaVuSans-3d" x="900"/>
     <use xlink:href="#DejaVuSans-30" x="983.789062"/>
     <use xlink:href="#DejaVuSans-2e" x="1047.412109"/>
     <use xlink:href="#DejaVuSans-30" x="1079.199219"/>
     <use xlink:href="#DejaVuSans-30" x="1142.822266"/>
     <use xlink:href="#DejaVuSans-36" x="1206.445312"/>
     <use xlink:href="#DejaVuSans-2c" x="1270.068359"/>
     <use xlink:href="#DejaVuSans-20" x="1301.855469"/>
     <use xlink:href="#DejaVuSans-3c3" x="1333.642578"/>
     <use xlink:href="#DejaVuSans-3d" x="1397.021484"/>
     <use xlink:href="#DejaVuSans-30" x="1480.810547"/>
     <use xlink:href="#DejaVuSans-2e" x="1544.433594"/>
     <use xlink:href="#DejaVuSans-34" x="1576.220703"/>
     <use xlink:href="#DejaVuSans-30" x="1639.84375"/>
     <use xlink:href="#DejaVuSans-38" x="1703.466797"/>
     <use xlink:href="#DejaVuSans-29" x="1767.089844"/>
     <use xlink:href="#DejaVuSans-20" x="1806.103516"/>
     <use xlink:href="#DejaVuSans-6f" x="1837.890625"/>
     <use xlink:href="#DejaVuSans-66" x="1899.072266"/>
     <use xlink:href="#DejaVuSans-20" x="1934.277344"/>
     <use xlink:href="#DejaVuSans-74" x="1966.064453"/>
     <use xlink:href="#DejaVuSans-65" x="2005.273438"/>
     <use xlink:href="#DejaVuSans-6e" x="2066.796875"/>
     <use xlink:href="#DejaVuSans-73" x="2130.175781"/>
     <use xlink:href="#DejaVuSans-6f" x="2182.275391"/>
     <use xlink:href="#DejaVuSans-72" x="2243.457031"/>
     <use xlink:href="#DejaVuSans-5b" x="2284.570312"/>
     <use xlink:href="#DejaVuSans-34" x="2323.583984"/>
     <use xlink:href="#DejaVuSans-2c" x="2387.207031"/>
     <use xlink:href="#DejaVuSans-20" x="2418.994141"/>
     <use xlink:href="#DejaVuSans-34" x="2450.78125"/>
     <use xlink:href="#DejaVuSans-2c" x="2514.404297"/>
     <use xlink:href="#DejaVuSans-20" x="2546.191406"/>
     <use xlink:href="#DejaVuSans-34" x="2577.978516"/>
     <use xlink:href="#DejaVuSans-2c" x="2641.601562"/>
     <use xlink:href="#DejaVuSans-20" x="2673.388672"/>
     <use xlink:href="#DejaVuSans-34" x="2705.175781"/>
     <use xlink:href="#DejaVuSans-2c" x="2768.798828"/>
     <use xlink:href="#DejaVuSans-20" x="2800.585938"/>
     <use xlink:href="#DejaVuSans-34" x="2832.373047"/>
     <use xlink:href="#DejaVuSans-2c" x="2895.996094"/>
     <use xlink:href="#DejaVuSans-20" x="2927.783203"/>
     <use xlink:href="#DejaVuSans-38" x="2959.570312"/>
     <use xlink:href="#DejaVuSans-2c" x="3023.193359"/>
     <use xlink:href="#DejaVuSans-20" x="3054.980469"/>
     <use xlink:href="#DejaVuSans-33" x="3086.767578"/>
     <use xlink:href="#DejaVuSans-2c" x="3150.390625"/>
     <use xlink:href="#DejaVuSans-20" x="3182.177734"/>
     <use xlink:href="#DejaVuSans-33" x="3213.964844"/>
     <use xlink:href="#DejaVuSans-5d" x="3277.587891"/>
     <use xlink:href="#DejaVuSans-20" x="3316.601562"/>
     <use xlink:href="#DejaVuSans-66" x="3348.388672"/>
     <use xlink:href="#DejaVuSans-36" x="3383.59375"/>
     <use xlink:href="#DejaVuSans-34" x="3447.216797"/>
     <use xlink:href="#DejaVuSans-20" x="3510.839844"/>
     <use xlink:href="#DejaVuSans-6e" x="3542.626953"/>
     <use xlink:href="#DejaVuSans-3d" x="3606.005859"/>
     <use xlink:href="#DejaVuSans-37" x="3689.794922"/>
     <use xlink:href="#DejaVuSans-33" x="3753.417969"/>
     <use xlink:href="#DejaVuSans-37" x="3817.041016"/>
     <use xlink:href="#DejaVuSans-32" x="3880.664062"/>
     <use xlink:href="#DejaVuSans-38" x="3944.287109"/>
     <use xlink:href="#DejaVuSans-20" x="4007.910156"/>
     <use xlink:href="#DejaVuSans-78" x="4039.697266"/>
     <use xlink:href="#DejaVuSans-2208" x="4098.876953"/>
     <use xlink:href="#DejaVuSans-5b" x="4185.986328"/>
     <use xlink:href="#DejaVuSans-2d" x="4225"/>
     <use xlink:href="#DejaVuSans-30" x="4261.083984"/>
     <use xlink:href="#DejaVuSans-2e" x="4324.707031"/>
     <use xlink:href="#DejaVuSans-39" x="4356.494141"/>
     <use xlink:href="#DejaVuSans-39" x="4420.117188"/>
     <use xlink:href="#DejaVuSans-36" x="4483.740234"/>
     <use xlink:href="#DejaVuSans-2c" x="4547.363281"/>
     <use xlink:href="#DejaVuSans-20" x="4579.150391"/>
     <use xlink:href="#DejaVuSans-30" x="4610.9375"/>
     <use xlink:href="#DejaVuSans-2e" x="4674.560547"/>
     <use xlink:href="#DejaVuSans-39" x="4706.347656"/>
     <use xlink:href="#DejaVuSans-39" x="4769.970703"/>
     <use xlink:href="#DejaVuSans-33" x="4833.59375"/>
     <use xlink:href="#DejaVuSans-5d" x="4897.216797"/>
     <use xlink:href="#DejaVuSans-20" x="4936.230469"/>
     <use xlink:href="#DejaVuSans-3bc" x="4968.017578"/>
     <use xlink:href="#DejaVuSans-3d" x="5031.640625"/>
     <use xlink:href="#DejaVuSans-30" x="5115.429688"/>
     <use xlink:href="#DejaVuSans-2e" x="5179.052734"/>
     <use xlink:href="#DejaVuSans-30" x="5210.839844"/>
     <use xlink:href="#DejaVuSans-30" x="5274.462891"/>
     <use xlink:href="#DejaVuSans-31" x="5338.085938"/>
     <use xlink:href="#DejaVuSans-20" x="5401.708984"/>
     <use xlink:href="#DejaVuSans-3c3" x="5433.496094"/>
     <use xlink:href="#DejaVuSans-3d" x="5496.875"/>
     <use xlink:href="#DejaVuSans-30" x="5580.664062"/>
     <use xlink:href="#DejaVuSans-2e" x="5644.287109"/>
     <use xlink:href="#DejaVuSans-34" x="5676.074219"/>
     <use xlink:href="#DejaVuSans-30" x="5739.697266"/>
     <use xlink:href="#DejaVuSans-39" x="5803.320312"/>
     <use xlink:href="#DejaVuSans-20" x="5866.943359"/>
     <use xlink:href="#DejaVuSans-67" x="5898.730469"/>
     <use xlink:href="#DejaVuSans-72" x="5962.207031"/>
     <use xlink:href="#DejaVuSans-61" x="6003.320312"/>
     <use xlink:href="#DejaVuSans-64" x="6064.599609"/>
     <use xlink:href="#DejaVuSans-20" x="6128.076172"/>
     <use xlink:href="#DejaVuSans-53" x="6159.863281"/>
     <use xlink:href="#DejaVuSans-65" x="6223.339844"/>
     <use xlink:href="#DejaVuSans-6c" x="6284.863281"/>
     <use xlink:href="#DejaVuSans-65" x="6312.646484"/>
     <use xlink:href="#DejaVuSans-63" x="6374.169922"/>
     <use xlink:href="#DejaVuSans-74" x="6429.150391"/>
     <use xlink:href="#DejaVuSans-42" x="6468.359375"/>
     <use xlink:href="#DejaVuSans-61" x="6536.962891"/>
     <use xlink:href="#DejaVuSans-63" x="6598.242188"/>
     <use xlink:href="#DejaVuSans-6b" x="6653.222656"/>
     <use xlink:href="#DejaVuSans-77" x="6711.132812"/>
     <use xlink:href="#DejaVuSans-61" x="6792.919922"/>
     <use xlink:href="#DejaVuSans-72" x="6854.199219"/>
     <use xlink:href="#DejaVuSans-64" x="6893.5625"/>
     <use xlink:href="#DejaVuSans-30" x="6957.039062"/>
    </g>
   </g>
   <g id="patch_9">
    <path d="M 25.444612 128.528148 
L 33.945557 128.528148 
L 33.945557 128.134934 
L 25.444612 128.134934 
z
" clip-path="url(#p432bbfac46)" style="fill: #00bfff"/>
   </g>
   <g id="patch_10">
    <path d="M 33.945557 128.528148 
L 42.446502 128.528148 
L 42.446502 126.562081 
L 33.945557 126.562081 
z
" clip-path="url(#p432bbfac46)" style="fill: #00bfff"/>
   </g>
   <g id="patch_11">
    <path d="M 42.446502 128.528148 
L 50.947447 128.528148 
L 50.947447 126.168868 
L 42.446502 126.168868 
z
" clip-path="url(#p432bbfac46)" style="fill: #00bfff"/>
   </g>
   <g id="patch_12">
    <path d="M 50.947447 128.528148 
L 59.448392 128.528148 
L 59.448392 125.382442 
L 50.947447 125.382442 
z
" clip-path="url(#p432bbfac46)" style="fill: #00bfff"/>
   </g>
   <g id="patch_13">
    <path d="M 59.448392 128.528148 
L 67.949337 128.528148 
L 67.949337 123.023162 
L 59.448392 123.023162 
z
" clip-path="url(#p432bbfac46)" style="fill: #00bfff"/>
   </g>
   <g id="patch_14">
    <path d="M 67.949337 128.528148 
L 76.450282 128.528148 
L 76.450282 120.663883 
L 67.949337 120.663883 
z
" clip-path="url(#p432bbfac46)" style="fill: #00bfff"/>
   </g>
   <g id="patch_15">
    <path d="M 76.450282 128.528148 
L 84.951227 128.528148 
L 84.951227 123.416376 
L 76.450282 123.416376 
z
" clip-path="url(#p432bbfac46)" style="fill: #00bfff"/>
   </g>
   <g id="patch_16">
    <path d="M 84.951227 128.528148 
L 93.452172 128.528148 
L 93.452172 119.484243 
L 84.951227 119.484243 
z
" clip-path="url(#p432bbfac46)" style="fill: #00bfff"/>
   </g>
   <g id="patch_17">
    <path d="M 93.452172 128.528148 
L 101.953118 128.528148 
L 101.953118 117.124964 
L 93.452172 117.124964 
z
" clip-path="url(#p432bbfac46)" style="fill: #00bfff"/>
   </g>
   <g id="patch_18">
    <path d="M 101.953118 128.528148 
L 110.454063 128.528148 
L 110.454063 111.619979 
L 101.953118 111.619979 
z
" clip-path="url(#p432bbfac46)" style="fill: #00bfff"/>
   </g>
   <g id="patch_19">
    <path d="M 110.454063 128.528148 
L 118.955008 128.528148 
L 118.955008 113.192832 
L 110.454063 113.192832 
z
" clip-path="url(#p432bbfac46)" style="fill: #00bfff"/>
   </g>
   <g id="patch_20">
    <path d="M 118.955008 128.528148 
L 127.455953 128.528148 
L 127.455953 111.226765 
L 118.955008 111.226765 
z
" clip-path="url(#p432bbfac46)" style="fill: #00bfff"/>
   </g>
   <g id="patch_21">
    <path d="M 127.455953 128.528148 
L 135.956898 128.528148 
L 135.956898 106.90142 
L 127.455953 106.90142 
z
" clip-path="url(#p432bbfac46)" style="fill: #00bfff"/>
   </g>
   <g id="patch_22">
    <path d="M 135.956898 128.528148 
L 144.457843 128.528148 
L 144.457843 102.576074 
L 135.956898 102.576074 
z
" clip-path="url(#p432bbfac46)" style="fill: #00bfff"/>
   </g>
   <g id="patch_23">
    <path d="M 144.457843 128.528148 
L 152.958788 128.528148 
L 152.958788 103.362501 
L 144.457843 103.362501 
z
" clip-path="url(#p432bbfac46)" style="fill: #00bfff"/>
   </g>
   <g id="patch_24">
    <path d="M 152.958788 128.528148 
L 161.459733 128.528148 
L 161.459733 99.430368 
L 152.958788 99.430368 
z
" clip-path="url(#p432bbfac46)" style="fill: #00bfff"/>
   </g>
   <g id="patch_25">
    <path d="M 161.459733 128.528148 
L 169.960678 128.528148 
L 169.960678 101.396435 
L 161.459733 101.396435 
z
" clip-path="url(#p432bbfac46)" style="fill: #00bfff"/>
   </g>
   <g id="patch_26">
    <path d="M 169.960678 128.528148 
L 178.461624 128.528148 
L 178.461624 101.003221 
L 169.960678 101.003221 
z
" clip-path="url(#p432bbfac46)" style="fill: #00bfff"/>
   </g>
   <g id="patch_27">
    <path d="M 178.461624 128.528148 
L 186.962569 128.528148 
L 186.962569 102.576074 
L 178.461624 102.576074 
z
" clip-path="url(#p432bbfac46)" style="fill: #00bfff"/>
   </g>
   <g id="patch_28">
    <path d="M 186.962569 128.528148 
L 195.463514 128.528148 
L 195.463514 89.993251 
L 186.962569 89.993251 
z
" clip-path="url(#p432bbfac46)" style="fill: #00bfff"/>
   </g>
   <g id="patch_29">
    <path d="M 195.463514 128.528148 
L 203.964459 128.528148 
L 203.964459 89.600038 
L 195.463514 89.600038 
z
" clip-path="url(#p432bbfac46)" style="fill: #00bfff"/>
   </g>
   <g id="patch_30">
    <path d="M 203.964459 128.528148 
L 212.465404 128.528148 
L 212.465404 88.420398 
L 203.964459 88.420398 
z
" clip-path="url(#p432bbfac46)" style="fill: #00bfff"/>
   </g>
   <g id="patch_31">
    <path d="M 212.465404 128.528148 
L 220.966349 128.528148 
L 220.966349 88.027185 
L 212.465404 88.027185 
z
" clip-path="url(#p432bbfac46)" style="fill: #00bfff"/>
   </g>
   <g id="patch_32">
    <path d="M 220.966349 128.528148 
L 229.467294 128.528148 
L 229.467294 93.138957 
L 220.966349 93.138957 
z
" clip-path="url(#p432bbfac46)" style="fill: #00bfff"/>
   </g>
   <g id="patch_33">
    <path d="M 229.467294 128.528148 
L 237.968239 128.528148 
L 237.968239 88.420398 
L 229.467294 88.420398 
z
" clip-path="url(#p432bbfac46)" style="fill: #00bfff"/>
   </g>
   <g id="patch_34">
    <path d="M 237.968239 128.528148 
L 246.469184 128.528148 
L 246.469184 78.98328 
L 237.968239 78.98328 
z
" clip-path="url(#p432bbfac46)" style="fill: #00bfff"/>
   </g>
   <g id="patch_35">
    <path d="M 246.469184 128.528148 
L 254.970129 128.528148 
L 254.970129 74.657935 
L 246.469184 74.657935 
z
" clip-path="url(#p432bbfac46)" style="fill: #00bfff"/>
   </g>
   <g id="patch_36">
    <path d="M 254.970129 128.528148 
L 263.471075 128.528148 
L 263.471075 73.478295 
L 254.970129 73.478295 
z
" clip-path="url(#p432bbfac46)" style="fill: #00bfff"/>
   </g>
   <g id="patch_37">
    <path d="M 263.471075 128.528148 
L 271.97202 128.528148 
L 271.97202 80.16292 
L 263.471075 80.16292 
z
" clip-path="url(#p432bbfac46)" style="fill: #00bfff"/>
   </g>
   <g id="patch_38">
    <path d="M 271.97202 128.528148 
L 280.472965 128.528148 
L 280.472965 71.512229 
L 271.97202 71.512229 
z
" clip-path="url(#p432bbfac46)" style="fill: #00bfff"/>
   </g>
   <g id="patch_39">
    <path d="M 280.472965 128.528148 
L 288.97391 128.528148 
L 288.97391 77.017214 
L 280.472965 77.017214 
z
" clip-path="url(#p432bbfac46)" style="fill: #00bfff"/>
   </g>
   <g id="patch_40">
    <path d="M 288.97391 128.528148 
L 297.474855 128.528148 
L 297.474855 63.254751 
L 288.97391 63.254751 
z
" clip-path="url(#p432bbfac46)" style="fill: #00bfff"/>
   </g>
   <g id="patch_41">
    <path d="M 297.474855 128.528148 
L 305.9758 128.528148 
L 305.9758 70.725802 
L 297.474855 70.725802 
z
" clip-path="url(#p432bbfac46)" style="fill: #00bfff"/>
   </g>
   <g id="patch_42">
    <path d="M 305.9758 128.528148 
L 314.476745 128.528148 
L 314.476745 75.051148 
L 305.9758 75.051148 
z
" clip-path="url(#p432bbfac46)" style="fill: #00bfff"/>
   </g>
   <g id="patch_43">
    <path d="M 314.476745 128.528148 
L 322.97769 128.528148 
L 322.97769 69.15295 
L 314.476745 69.15295 
z
" clip-path="url(#p432bbfac46)" style="fill: #00bfff"/>
   </g>
   <g id="patch_44">
    <path d="M 322.97769 128.528148 
L 331.478635 128.528148 
L 331.478635 73.085082 
L 322.97769 73.085082 
z
" clip-path="url(#p432bbfac46)" style="fill: #00bfff"/>
   </g>
   <g id="patch_45">
    <path d="M 331.478635 128.528148 
L 339.979581 128.528148 
L 339.979581 63.647964 
L 331.478635 63.647964 
z
" clip-path="url(#p432bbfac46)" style="fill: #00bfff"/>
   </g>
   <g id="patch_46">
    <path d="M 339.979581 128.528148 
L 348.480526 128.528148 
L 348.480526 72.691869 
L 339.979581 72.691869 
z
" clip-path="url(#p432bbfac46)" style="fill: #00bfff"/>
   </g>
   <g id="patch_47">
    <path d="M 348.480526 128.528148 
L 356.981471 128.528148 
L 356.981471 62.861538 
L 348.480526 62.861538 
z
" clip-path="url(#p432bbfac46)" style="fill: #00bfff"/>
   </g>
   <g id="patch_48">
    <path d="M 356.981471 128.528148 
L 365.482416 128.528148 
L 365.482416 55.390486 
L 356.981471 55.390486 
z
" clip-path="url(#p432bbfac46)" style="fill: #00bfff"/>
   </g>
   <g id="patch_49">
    <path d="M 365.482416 128.528148 
L 373.983361 128.528148 
L 373.983361 67.186883 
L 365.482416 67.186883 
z
" clip-path="url(#p432bbfac46)" style="fill: #00bfff"/>
   </g>
   <g id="patch_50">
    <path d="M 373.983361 128.528148 
L 382.484306 128.528148 
L 382.484306 64.827604 
L 373.983361 64.827604 
z
" clip-path="url(#p432bbfac46)" style="fill: #00bfff"/>
   </g>
   <g id="patch_51">
    <path d="M 382.484306 128.528148 
L 390.985251 128.528148 
L 390.985251 58.142979 
L 382.484306 58.142979 
z
" clip-path="url(#p432bbfac46)" style="fill: #00bfff"/>
   </g>
   <g id="patch_52">
    <path d="M 390.985251 128.528148 
L 399.486196 128.528148 
L 399.486196 65.61403 
L 390.985251 65.61403 
z
" clip-path="url(#p432bbfac46)" style="fill: #00bfff"/>
   </g>
   <g id="patch_53">
    <path d="M 399.486196 128.528148 
L 407.987141 128.528148 
L 407.987141 62.861538 
L 399.486196 62.861538 
z
" clip-path="url(#p432bbfac46)" style="fill: #00bfff"/>
   </g>
   <g id="patch_54">
    <path d="M 407.987141 128.528148 
L 416.488086 128.528148 
L 416.488086 64.434391 
L 407.987141 64.434391 
z
" clip-path="url(#p432bbfac46)" style="fill: #00bfff"/>
   </g>
   <g id="patch_55">
    <path d="M 416.488086 128.528148 
L 424.989032 128.528148 
L 424.989032 59.322619 
L 416.488086 59.322619 
z
" clip-path="url(#p432bbfac46)" style="fill: #00bfff"/>
   </g>
   <g id="patch_56">
    <path d="M 424.989032 128.528148 
L 433.489977 128.528148 
L 433.489977 49.885501 
L 424.989032 49.885501 
z
" clip-path="url(#p432bbfac46)" style="fill: #00bfff"/>
   </g>
   <g id="patch_57">
    <path d="M 433.489977 128.528148 
L 441.990922 128.528148 
L 441.990922 51.458354 
L 433.489977 51.458354 
z
" clip-path="url(#p432bbfac46)" style="fill: #00bfff"/>
   </g>
   <g id="patch_58">
    <path d="M 441.990922 128.528148 
L 450.491867 128.528148 
L 450.491867 54.997273 
L 441.990922 54.997273 
z
" clip-path="url(#p432bbfac46)" style="fill: #00bfff"/>
   </g>
   <g id="patch_59">
    <path d="M 450.491867 128.528148 
L 458.992812 128.528148 
L 458.992812 56.176913 
L 450.491867 56.176913 
z
" clip-path="url(#p432bbfac46)" style="fill: #00bfff"/>
   </g>
   <g id="patch_60">
    <path d="M 458.992812 128.528148 
L 467.493757 128.528148 
L 467.493757 59.715832 
L 458.992812 59.715832 
z
" clip-path="url(#p432bbfac46)" style="fill: #00bfff"/>
   </g>
   <g id="patch_61">
    <path d="M 467.493757 128.528148 
L 475.994702 128.528148 
L 475.994702 53.817633 
L 467.493757 53.817633 
z
" clip-path="url(#p432bbfac46)" style="fill: #00bfff"/>
   </g>
   <g id="patch_62">
    <path d="M 475.994702 128.528148 
L 484.495647 128.528148 
L 484.495647 56.570126 
L 475.994702 56.570126 
z
" clip-path="url(#p432bbfac46)" style="fill: #00bfff"/>
   </g>
   <g id="patch_63">
    <path d="M 484.495647 128.528148 
L 492.996592 128.528148 
L 492.996592 54.60406 
L 484.495647 54.60406 
z
" clip-path="url(#p432bbfac46)" style="fill: #00bfff"/>
   </g>
   <g id="patch_64">
    <path d="M 492.996592 128.528148 
L 501.497538 128.528148 
L 501.497538 63.254751 
L 492.996592 63.254751 
z
" clip-path="url(#p432bbfac46)" style="fill: #00bfff"/>
   </g>
   <g id="patch_65">
    <path d="M 501.497538 128.528148 
L 509.998483 128.528148 
L 509.998483 64.041178 
L 501.497538 64.041178 
z
" clip-path="url(#p432bbfac46)" style="fill: #00bfff"/>
   </g>
   <g id="patch_66">
    <path d="M 509.998483 128.528148 
L 518.499428 128.528148 
L 518.499428 57.356553 
L 509.998483 57.356553 
z
" clip-path="url(#p432bbfac46)" style="fill: #00bfff"/>
   </g>
   <g id="patch_67">
    <path d="M 518.499428 128.528148 
L 527.000373 128.528148 
L 527.000373 74.264722 
L 518.499428 74.264722 
z
" clip-path="url(#p432bbfac46)" style="fill: #00bfff"/>
   </g>
   <g id="patch_68">
    <path d="M 527.000373 128.528148 
L 535.501318 128.528148 
L 535.501318 64.827604 
L 527.000373 64.827604 
z
" clip-path="url(#p432bbfac46)" style="fill: #00bfff"/>
   </g>
   <g id="patch_69">
    <path d="M 535.501318 128.528148 
L 544.002263 128.528148 
L 544.002263 65.220817 
L 535.501318 65.220817 
z
" clip-path="url(#p432bbfac46)" style="fill: #00bfff"/>
   </g>
   <g id="patch_70">
    <path d="M 544.002263 128.528148 
L 552.503208 128.528148 
L 552.503208 67.97331 
L 544.002263 67.97331 
z
" clip-path="url(#p432bbfac46)" style="fill: #00bfff"/>
   </g>
   <g id="patch_71">
    <path d="M 552.503208 128.528148 
L 561.004153 128.528148 
L 561.004153 76.624001 
L 552.503208 76.624001 
z
" clip-path="url(#p432bbfac46)" style="fill: #00bfff"/>
   </g>
   <g id="patch_72">
    <path d="M 561.004153 128.528148 
L 569.505098 128.528148 
L 569.505098 71.905442 
L 561.004153 71.905442 
z
" clip-path="url(#p432bbfac46)" style="fill: #00bfff"/>
   </g>
   <g id="patch_73">
    <path d="M 569.505098 128.528148 
L 578.006043 128.528148 
L 578.006043 71.119016 
L 569.505098 71.119016 
z
" clip-path="url(#p432bbfac46)" style="fill: #00bfff"/>
   </g>
   <g id="patch_74">
    <path d="M 578.006043 128.528148 
L 586.506989 128.528148 
L 586.506989 73.478295 
L 578.006043 73.478295 
z
" clip-path="url(#p432bbfac46)" style="fill: #00bfff"/>
   </g>
   <g id="patch_75">
    <path d="M 586.506989 128.528148 
L 595.007934 128.528148 
L 595.007934 73.478295 
L 586.506989 73.478295 
z
" clip-path="url(#p432bbfac46)" style="fill: #00bfff"/>
   </g>
   <g id="patch_76">
    <path d="M 595.007934 128.528148 
L 603.508879 128.528148 
L 603.508879 78.196854 
L 595.007934 78.196854 
z
" clip-path="url(#p432bbfac46)" style="fill: #00bfff"/>
   </g>
   <g id="patch_77">
    <path d="M 603.508879 128.528148 
L 612.009824 128.528148 
L 612.009824 73.085082 
L 603.508879 73.085082 
z
" clip-path="url(#p432bbfac46)" style="fill: #00bfff"/>
   </g>
   <g id="patch_78">
    <path d="M 612.009824 128.528148 
L 620.510769 128.528148 
L 620.510769 80.949346 
L 612.009824 80.949346 
z
" clip-path="url(#p432bbfac46)" style="fill: #00bfff"/>
   </g>
   <g id="patch_79">
    <path d="M 620.510769 128.528148 
L 629.011714 128.528148 
L 629.011714 85.667905 
L 620.510769 85.667905 
z
" clip-path="url(#p432bbfac46)" style="fill: #00bfff"/>
   </g>
   <g id="patch_80">
    <path d="M 629.011714 128.528148 
L 637.512659 128.528148 
L 637.512659 78.590067 
L 629.011714 78.590067 
z
" clip-path="url(#p432bbfac46)" style="fill: #00bfff"/>
   </g>
   <g id="patch_81">
    <path d="M 637.512659 128.528148 
L 646.013604 128.528148 
L 646.013604 84.881479 
L 637.512659 84.881479 
z
" clip-path="url(#p432bbfac46)" style="fill: #00bfff"/>
   </g>
   <g id="patch_82">
    <path d="M 646.013604 128.528148 
L 654.514549 128.528148 
L 654.514549 86.454332 
L 646.013604 86.454332 
z
" clip-path="url(#p432bbfac46)" style="fill: #00bfff"/>
   </g>
   <g id="patch_83">
    <path d="M 654.514549 128.528148 
L 663.015495 128.528148 
L 663.015495 82.522199 
L 654.514549 82.522199 
z
" clip-path="url(#p432bbfac46)" style="fill: #00bfff"/>
   </g>
   <g id="patch_84">
    <path d="M 663.015495 128.528148 
L 671.51644 128.528148 
L 671.51644 89.993251 
L 663.015495 89.993251 
z
" clip-path="url(#p432bbfac46)" style="fill: #00bfff"/>
   </g>
   <g id="patch_85">
    <path d="M 671.51644 128.528148 
L 680.017385 128.528148 
L 680.017385 91.566104 
L 671.51644 91.566104 
z
" clip-path="url(#p432bbfac46)" style="fill: #00bfff"/>
   </g>
   <g id="patch_86">
    <path d="M 680.017385 128.528148 
L 688.51833 128.528148 
L 688.51833 95.498236 
L 680.017385 95.498236 
z
" clip-path="url(#p432bbfac46)" style="fill: #00bfff"/>
   </g>
   <g id="patch_87">
    <path d="M 688.51833 128.528148 
L 697.019275 128.528148 
L 697.019275 91.959317 
L 688.51833 91.959317 
z
" clip-path="url(#p432bbfac46)" style="fill: #00bfff"/>
   </g>
   <g id="patch_88">
    <path d="M 697.019275 128.528148 
L 705.52022 128.528148 
L 705.52022 91.566104 
L 697.019275 91.566104 
z
" clip-path="url(#p432bbfac46)" style="fill: #00bfff"/>
   </g>
   <g id="patch_89">
    <path d="M 705.52022 128.528148 
L 714.021165 128.528148 
L 714.021165 97.464302 
L 705.52022 97.464302 
z
" clip-path="url(#p432bbfac46)" style="fill: #00bfff"/>
   </g>
   <g id="patch_90">
    <path d="M 714.021165 128.528148 
L 722.52211 128.528148 
L 722.52211 103.362501 
L 714.021165 103.362501 
z
" clip-path="url(#p432bbfac46)" style="fill: #00bfff"/>
   </g>
   <g id="patch_91">
    <path d="M 722.52211 128.528148 
L 731.023055 128.528148 
L 731.023055 111.226765 
L 722.52211 111.226765 
z
" clip-path="url(#p432bbfac46)" style="fill: #00bfff"/>
   </g>
   <g id="patch_92">
    <path d="M 731.023055 128.528148 
L 739.524 128.528148 
L 739.524 102.969288 
L 731.023055 102.969288 
z
" clip-path="url(#p432bbfac46)" style="fill: #00bfff"/>
   </g>
   <g id="patch_93">
    <path d="M 739.524 128.528148 
L 748.024946 128.528148 
L 748.024946 105.72178 
L 739.524 105.72178 
z
" clip-path="url(#p432bbfac46)" style="fill: #00bfff"/>
   </g>
   <g id="patch_94">
    <path d="M 748.024946 128.528148 
L 756.525891 128.528148 
L 756.525891 109.260699 
L 748.024946 109.260699 
z
" clip-path="url(#p432bbfac46)" style="fill: #00bfff"/>
   </g>
   <g id="patch_95">
    <path d="M 756.525891 128.528148 
L 765.026836 128.528148 
L 765.026836 110.440339 
L 756.525891 110.440339 
z
" clip-path="url(#p432bbfac46)" style="fill: #00bfff"/>
   </g>
   <g id="patch_96">
    <path d="M 765.026836 128.528148 
L 773.527781 128.528148 
L 773.527781 112.799618 
L 765.026836 112.799618 
z
" clip-path="url(#p432bbfac46)" style="fill: #00bfff"/>
   </g>
   <g id="patch_97">
    <path d="M 773.527781 128.528148 
L 782.028726 128.528148 
L 782.028726 115.945324 
L 773.527781 115.945324 
z
" clip-path="url(#p432bbfac46)" style="fill: #00bfff"/>
   </g>
   <g id="patch_98">
    <path d="M 782.028726 128.528148 
L 790.529671 128.528148 
L 790.529671 116.731751 
L 782.028726 116.731751 
z
" clip-path="url(#p432bbfac46)" style="fill: #00bfff"/>
   </g>
   <g id="patch_99">
    <path d="M 790.529671 128.528148 
L 799.030616 128.528148 
L 799.030616 121.450309 
L 790.529671 121.450309 
z
" clip-path="url(#p432bbfac46)" style="fill: #00bfff"/>
   </g>
   <g id="patch_100">
    <path d="M 799.030616 128.528148 
L 807.531561 128.528148 
L 807.531561 119.484243 
L 799.030616 119.484243 
z
" clip-path="url(#p432bbfac46)" style="fill: #00bfff"/>
   </g>
   <g id="patch_101">
    <path d="M 807.531561 128.528148 
L 816.032506 128.528148 
L 816.032506 124.202802 
L 807.531561 124.202802 
z
" clip-path="url(#p432bbfac46)" style="fill: #00bfff"/>
   </g>
   <g id="patch_102">
    <path d="M 816.032506 128.528148 
L 824.533452 128.528148 
L 824.533452 124.989229 
L 816.032506 124.989229 
z
" clip-path="url(#p432bbfac46)" style="fill: #00bfff"/>
   </g>
   <g id="patch_103">
    <path d="M 824.533452 128.528148 
L 833.034397 128.528148 
L 833.034397 127.741721 
L 824.533452 127.741721 
z
" clip-path="url(#p432bbfac46)" style="fill: #00bfff"/>
   </g>
   <g id="patch_104">
    <path d="M 833.034397 128.528148 
L 841.535342 128.528148 
L 841.535342 126.168868 
L 833.034397 126.168868 
z
" clip-path="url(#p432bbfac46)" style="fill: #00bfff"/>
   </g>
   <g id="line2d_26">
    <path d="M 7.2 125.589435 
L 15.866662 125.17783 
L 24.533324 124.71872 
L 33.199985 124.208201 
L 41.866647 123.642279 
L 50.533309 123.016897 
L 59.199971 122.327982 
L 67.866633 121.571478 
L 76.533295 120.743405 
L 85.199956 119.839904 
L 93.866618 118.857299 
L 102.53328 117.792159 
L 111.199942 116.641363 
L 119.866604 115.402173 
L 128.533265 114.072299 
L 137.199927 112.649976 
L 145.866589 111.134036 
L 154.533251 109.52398 
L 163.199913 107.820045 
L 171.866575 106.023271 
L 180.533236 104.135563 
L 189.199898 102.159743 
L 197.86656 100.099595 
L 206.533222 97.959902 
L 215.199884 95.746474 
L 223.866545 93.466156 
L 232.533207 91.126829 
L 241.199869 88.7374 
L 249.866531 86.307768 
L 258.533193 83.848778 
L 267.199855 81.372166 
L 275.866516 78.890476 
L 284.533178 76.416971 
L 293.19984 73.965529 
L 301.866502 71.550516 
L 310.533164 69.186659 
L 319.199825 66.888899 
L 327.866487 64.672238 
L 336.533149 62.551581 
L 345.199811 60.54157 
L 353.866473 58.656415 
L 362.533135 56.909733 
L 371.199796 55.314382 
L 379.866458 53.882301 
L 388.53312 52.624367 
L 397.199782 51.550253 
L 405.866444 50.668308 
L 414.533105 49.985446 
L 423.199767 49.507055 
L 431.866429 49.236932 
L 440.533091 49.177225 
L 449.199753 49.32841 
L 457.866415 49.689282 
L 466.533076 50.256974 
L 475.199738 51.026992 
L 483.8664 51.993273 
L 492.533062 53.148271 
L 501.199724 54.483046 
L 509.866385 55.987388 
L 518.533047 57.649941 
L 527.199709 59.458347 
L 535.866371 61.399401 
L 544.533033 63.459207 
L 553.199695 65.623347 
L 561.866356 67.877045 
L 570.533018 70.205334 
L 579.19968 72.593219 
L 587.866342 75.025833 
L 596.533004 77.488588 
L 605.199665 79.967316 
L 613.866327 82.448392 
L 622.532989 84.918851 
L 631.199651 87.36649 
L 639.866313 89.779952 
L 648.532975 92.148795 
L 657.199636 94.463546 
L 665.866298 96.715742 
L 674.53296 98.897949 
L 683.199622 101.003772 
L 691.866284 103.02785 
L 700.532945 104.965837 
L 709.199607 106.814371 
L 717.866269 108.571035 
L 726.532931 110.234306 
L 735.199593 111.8035 
L 743.866255 113.278707 
L 752.532916 114.660727 
L 761.199578 115.950996 
L 769.86624 117.151513 
L 778.532902 118.264774 
L 787.199564 119.293691 
L 795.866225 120.241528 
L 804.532887 121.11183 
L 813.199549 121.908359 
L 821.866211 122.635035 
L 830.532873 123.295876 
L 839.199535 123.894952 
L 847.866196 124.436334 
L 856.532858 124.924056 
L 865.19952 125.362076 
" clip-path="url(#p432bbfac46)" style="fill: none; stroke: #2196f3; stroke-width: 1.5; stroke-linecap: square"/>
   </g>
   <g id="text_13">
    <g id="patch_105">
     <path d="M 94.408036 38.307963 
L 110.715848 38.307963 
Q 113.715848 38.307963 113.715848 35.307963 
L 113.715848 25.629838 
Q 113.715848 22.629838 110.715848 22.629838 
L 94.408036 22.629838 
Q 91.408036 22.629838 91.408036 25.629838 
L 91.408036 35.307963 
Q 91.408036 38.307963 94.408036 38.307963 
z
" style="fill: #ffffff"/>
    </g>
    <!-- -2σ -->
    <g style="fill: #666666" transform="translate(94.408036 33.228276) scale(0.1 -0.1)">
     <use xlink:href="#DejaVuSans-2d"/>
     <use xlink:href="#DejaVuSans-32" x="36.083984"/>
     <use xlink:href="#DejaVuSans-3c3" x="99.707031"/>
    </g>
   </g>
   <g id="text_14">
    <g id="patch_106">
     <path d="M 265.634529 38.307963 
L 275.579841 38.307963 
Q 278.579841 38.307963 278.579841 35.307963 
L 278.579841 25.629838 
Q 278.579841 22.629838 275.579841 22.629838 
L 265.634529 22.629838 
Q 262.634529 22.629838 262.634529 25.629838 
L 262.634529 35.307963 
Q 262.634529 38.307963 265.634529 38.307963 
z
" style="fill: #ffffff"/>
    </g>
    <!-- -σ -->
    <g style="fill: #666666" transform="translate(265.634529 33.228276) scale(0.1 -0.1)">
     <use xlink:href="#DejaVuSans-2d"/>
     <use xlink:href="#DejaVuSans-3c3" x="36.083984"/>
    </g>
   </g>
   <g id="text_15">
    <g id="patch_107">
     <path d="M 434.973522 38.307963 
L 442.331334 38.307963 
Q 445.331334 38.307963 445.331334 35.307963 
L 445.331334 25.629838 
Q 445.331334 22.629838 442.331334 22.629838 
L 434.973522 22.629838 
Q 431.973522 22.629838 431.973522 25.629838 
L 431.973522 35.307963 
Q 431.973522 38.307963 434.973522 38.307963 
z
" style="fill: #ffffff"/>
    </g>
    <!-- μ -->
    <g style="fill: #666666" transform="translate(434.973522 33.217338) scale(0.1 -0.1)">
     <defs>
      <path id="DejaVuSans-Bold-3bc" d="M 544 -1338 
L 544 3500 
L 1672 3500 
L 1672 1466 
Q 1672 1103 1828 926 
Q 1984 750 2303 750 
Q 2625 750 2781 926 
Q 2938 1103 2938 1466 
L 2938 3500 
L 4063 3500 
L 4063 1159 
Q 4063 938 4114 850 
Q 4166 763 4288 763 
Q 4344 763 4395 778 
Q 4447 794 4506 831 
L 4506 50 
Q 4341 -22 4195 -56 
Q 4050 -91 3909 -91 
Q 3631 -91 3454 26 
Q 3278 144 3169 403 
Q 3022 156 2811 32 
Q 2600 -91 2322 -91 
Q 2091 -91 1928 -17 
Q 1766 56 1672 206 
L 1672 -1338 
L 544 -1338 
z
" transform="scale(0.015625)"/>
     </defs>
     <use xlink:href="#DejaVuSans-Bold-3bc"/>
    </g>
   </g>
   <g id="text_16">
    <g id="patch_108">
     <path d="M 599.339077 38.307963 
L 614.056265 38.307963 
Q 617.056265 38.307963 617.056265 35.307963 
L 617.056265 25.629838 
Q 617.056265 22.629838 614.056265 22.629838 
L 599.339077 22.629838 
Q 596.339077 22.629838 596.339077 25.629838 
L 596.339077 35.307963 
Q 596.339077 38.307963 599.339077 38.307963 
z
" style="fill: #ffffff"/>
    </g>
    <!-- +σ -->
    <g style="fill: #666666" transform="translate(599.339077 33.228276) scale(0.1 -0.1)">
     <defs>
      <path id="DejaVuSans-2b" d="M 2944 4013 
L 2944 2272 
L 4684 2272 
L 4684 1741 
L 2944 1741 
L 2944 0 
L 2419 0 
L 2419 1741 
L 678 1741 
L 678 2272 
L 2419 2272 
L 2419 4013 
L 2944 4013 
z
" transform="scale(0.015625)"/>
     </defs>
     <use xlink:href="#DejaVuSans-2b"/>
     <use xlink:href="#DejaVuSans-3c3" x="83.789062"/>
    </g>
   </g>
   <g id="text_17">
    <g id="patch_109">
     <path d="M 764.20307 38.307963 
L 785.282757 38.307963 
Q 788.282757 38.307963 788.282757 35.307963 
L 788.282757 25.629838 
Q 788.282757 22.629838 785.282757 22.629838 
L 764.20307 22.629838 
Q 761.20307 22.629838 761.20307 25.629838 
L 761.20307 35.307963 
Q 761.20307 38.307963 764.20307 38.307963 
z
" style="fill: #ffffff"/>
    </g>
    <!-- +2σ -->
    <g style="fill: #666666" transform="translate(764.20307 33.228276) scale(0.1 -0.1)">
     <use xlink:href="#DejaVuSans-2b"/>
     <use xlink:href="#DejaVuSans-32" x="83.789062"/>
     <use xlink:href="#DejaVuSans-3c3" x="147.412109"/>
    </g>
   </g>
  </g>
 </g>
 <defs>
  <clipPath id="p432bbfac46">
   <rect x="7.2" y="20.214138" width="857.99952" height="108.31401"/>
  </clipPath>
 </defs>
</svg>
