<?xml version="1.0" encoding="utf-8" standalone="no"?>
<!DOCTYPE svg PUBLIC "-//W3C//DTD SVG 1.1//EN"
  "http://www.w3.org/Graphics/SVG/1.1/DTD/svg11.dtd">
<svg xmlns:xlink="http://www.w3.org/1999/xlink" width="755.585994pt" height="312.30825pt" viewBox="0 0 755.585994 312.30825" xmlns="http://www.w3.org/2000/svg" version="1.1">
 <metadata>
  <rdf:RDF xmlns:dc="http://purl.org/dc/elements/1.1/" xmlns:cc="http://creativecommons.org/ns#" xmlns:rdf="http://www.w3.org/1999/02/22-rdf-syntax-ns#">
   <cc:Work>
    <dc:type rdf:resource="http://purl.org/dc/dcmitype/StillImage"/>
    <dc:date>2023-07-10T07:57:40.276306</dc:date>
    <dc:format>image/svg+xml</dc:format>
    <dc:creator>
     <cc:Agent>
      <dc:title>Matplotlib v3.7.1, https://matplotlib.org/</dc:title>
     </cc:Agent>
    </dc:creator>
   </cc:Work>
  </rdf:RDF>
 </metadata>
 <defs>
  <style type="text/css">*{stroke-linejoin: round; stroke-linecap: butt}</style>
 </defs>
 <g id="figure_1">
  <g id="patch_1">
   <path d="M 0 312.30825 
L 755.585994 312.30825 
L 755.585994 0 
L 0 0 
L 0 312.30825 
z
" style="fill: none"/>
  </g>
  <g id="axes_1">
   <g id="patch_2">
    <path d="M 55.345313 288.430125 
L 747.265313 288.430125 
L 747.265313 22.318125 
L 55.345313 22.318125 
L 55.345313 288.430125 
z
" style="fill: none"/>
   </g>
   <g id="matplotlib.axis_1">
    <g id="xtick_1">
     <g id="line2d_1">
      <path d="M 86.796222 288.430125 
L 86.796222 22.318125 
" clip-path="url(#pc0374b90e0)" style="fill: none; stroke-dasharray: 1.85,0.8; stroke-dashoffset: 0; stroke: #666666; stroke-opacity: 0.4; stroke-width: 0.5"/>
     </g>
     <g id="line2d_2">
      <defs>
       <path id="m7ac0c3b64c" d="M 0 0 
L 0 3.5 
" style="stroke: #000000; stroke-opacity: 0; stroke-width: 0.8"/>
      </defs>
      <g>
       <use xlink:href="#m7ac0c3b64c" x="86.796222" y="288.430125" style="fill-opacity: 0; stroke: #000000; stroke-opacity: 0; stroke-width: 0.8"/>
      </g>
     </g>
     <g id="text_1">
      <!-- 0 -->
      <g style="fill: #666666" transform="translate(83.614972 303.028562) scale(0.1 -0.1)">
       <defs>
        <path id="DejaVuSans-30" d="M 2034 4250 
Q 1547 4250 1301 3770 
Q 1056 3291 1056 2328 
Q 1056 1369 1301 889 
Q 1547 409 2034 409 
Q 2525 409 2770 889 
Q 3016 1369 3016 2328 
Q 3016 3291 2770 3770 
Q 2525 4250 2034 4250 
z
M 2034 4750 
Q 2819 4750 3233 4129 
Q 3647 3509 3647 2328 
Q 3647 1150 3233 529 
Q 2819 -91 2034 -91 
Q 1250 -91 836 529 
Q 422 1150 422 2328 
Q 422 3509 836 4129 
Q 1250 4750 2034 4750 
z
" transform="scale(0.015625)"/>
       </defs>
       <use xlink:href="#DejaVuSans-30"/>
      </g>
     </g>
    </g>
    <g id="xtick_2">
     <g id="line2d_3">
      <path d="M 217.841676 288.430125 
L 217.841676 22.318125 
" clip-path="url(#pc0374b90e0)" style="fill: none; stroke-dasharray: 1.85,0.8; stroke-dashoffset: 0; stroke: #666666; stroke-opacity: 0.4; stroke-width: 0.5"/>
     </g>
     <g id="line2d_4">
      <g>
       <use xlink:href="#m7ac0c3b64c" x="217.841676" y="288.430125" style="fill-opacity: 0; stroke: #000000; stroke-opacity: 0; stroke-width: 0.8"/>
      </g>
     </g>
     <g id="text_2">
      <!-- 10 -->
      <g style="fill: #666666" transform="translate(211.479176 303.028562) scale(0.1 -0.1)">
       <defs>
        <path id="DejaVuSans-31" d="M 794 531 
L 1825 531 
L 1825 4091 
L 703 3866 
L 703 4441 
L 1819 4666 
L 2450 4666 
L 2450 531 
L 3481 531 
L 3481 0 
L 794 0 
L 794 531 
z
" transform="scale(0.015625)"/>
       </defs>
       <use xlink:href="#DejaVuSans-31"/>
       <use xlink:href="#DejaVuSans-30" x="63.623047"/>
      </g>
     </g>
    </g>
    <g id="xtick_3">
     <g id="line2d_5">
      <path d="M 348.887131 288.430125 
L 348.887131 22.318125 
" clip-path="url(#pc0374b90e0)" style="fill: none; stroke-dasharray: 1.85,0.8; stroke-dashoffset: 0; stroke: #666666; stroke-opacity: 0.4; stroke-width: 0.5"/>
     </g>
     <g id="line2d_6">
      <g>
       <use xlink:href="#m7ac0c3b64c" x="348.887131" y="288.430125" style="fill-opacity: 0; stroke: #000000; stroke-opacity: 0; stroke-width: 0.8"/>
      </g>
     </g>
     <g id="text_3">
      <!-- 20 -->
      <g style="fill: #666666" transform="translate(342.524631 303.028562) scale(0.1 -0.1)">
       <defs>
        <path id="DejaVuSans-32" d="M 1228 531 
L 3431 531 
L 3431 0 
L 469 0 
L 469 531 
Q 828 903 1448 1529 
Q 2069 2156 2228 2338 
Q 2531 2678 2651 2914 
Q 2772 3150 2772 3378 
Q 2772 3750 2511 3984 
Q 2250 4219 1831 4219 
Q 1534 4219 1204 4116 
Q 875 4013 500 3803 
L 500 4441 
Q 881 4594 1212 4672 
Q 1544 4750 1819 4750 
Q 2544 4750 2975 4387 
Q 3406 4025 3406 3419 
Q 3406 3131 3298 2873 
Q 3191 2616 2906 2266 
Q 2828 2175 2409 1742 
Q 1991 1309 1228 531 
z
" transform="scale(0.015625)"/>
       </defs>
       <use xlink:href="#DejaVuSans-32"/>
       <use xlink:href="#DejaVuSans-30" x="63.623047"/>
      </g>
     </g>
    </g>
    <g id="xtick_4">
     <g id="line2d_7">
      <path d="M 479.932585 288.430125 
L 479.932585 22.318125 
" clip-path="url(#pc0374b90e0)" style="fill: none; stroke-dasharray: 1.85,0.8; stroke-dashoffset: 0; stroke: #666666; stroke-opacity: 0.4; stroke-width: 0.5"/>
     </g>
     <g id="line2d_8">
      <g>
       <use xlink:href="#m7ac0c3b64c" x="479.932585" y="288.430125" style="fill-opacity: 0; stroke: #000000; stroke-opacity: 0; stroke-width: 0.8"/>
      </g>
     </g>
     <g id="text_4">
      <!-- 30 -->
      <g style="fill: #666666" transform="translate(473.570085 303.028562) scale(0.1 -0.1)">
       <defs>
        <path id="DejaVuSans-33" d="M 2597 2516 
Q 3050 2419 3304 2112 
Q 3559 1806 3559 1356 
Q 3559 666 3084 287 
Q 2609 -91 1734 -91 
Q 1441 -91 1130 -33 
Q 819 25 488 141 
L 488 750 
Q 750 597 1062 519 
Q 1375 441 1716 441 
Q 2309 441 2620 675 
Q 2931 909 2931 1356 
Q 2931 1769 2642 2001 
Q 2353 2234 1838 2234 
L 1294 2234 
L 1294 2753 
L 1863 2753 
Q 2328 2753 2575 2939 
Q 2822 3125 2822 3475 
Q 2822 3834 2567 4026 
Q 2313 4219 1838 4219 
Q 1578 4219 1281 4162 
Q 984 4106 628 3988 
L 628 4550 
Q 988 4650 1302 4700 
Q 1616 4750 1894 4750 
Q 2613 4750 3031 4423 
Q 3450 4097 3450 3541 
Q 3450 3153 3228 2886 
Q 3006 2619 2597 2516 
z
" transform="scale(0.015625)"/>
       </defs>
       <use xlink:href="#DejaVuSans-33"/>
       <use xlink:href="#DejaVuSans-30" x="63.623047"/>
      </g>
     </g>
    </g>
    <g id="xtick_5">
     <g id="line2d_9">
      <path d="M 610.97804 288.430125 
L 610.97804 22.318125 
" clip-path="url(#pc0374b90e0)" style="fill: none; stroke-dasharray: 1.85,0.8; stroke-dashoffset: 0; stroke: #666666; stroke-opacity: 0.4; stroke-width: 0.5"/>
     </g>
     <g id="line2d_10">
      <g>
       <use xlink:href="#m7ac0c3b64c" x="610.97804" y="288.430125" style="fill-opacity: 0; stroke: #000000; stroke-opacity: 0; stroke-width: 0.8"/>
      </g>
     </g>
     <g id="text_5">
      <!-- 40 -->
      <g style="fill: #666666" transform="translate(604.61554 303.028562) scale(0.1 -0.1)">
       <defs>
        <path id="DejaVuSans-34" d="M 2419 4116 
L 825 1625 
L 2419 1625 
L 2419 4116 
z
M 2253 4666 
L 3047 4666 
L 3047 1625 
L 3713 1625 
L 3713 1100 
L 3047 1100 
L 3047 0 
L 2419 0 
L 2419 1100 
L 313 1100 
L 313 1709 
L 2253 4666 
z
" transform="scale(0.015625)"/>
       </defs>
       <use xlink:href="#DejaVuSans-34"/>
       <use xlink:href="#DejaVuSans-30" x="63.623047"/>
      </g>
     </g>
    </g>
    <g id="xtick_6">
     <g id="line2d_11">
      <path d="M 742.023494 288.430125 
L 742.023494 22.318125 
" clip-path="url(#pc0374b90e0)" style="fill: none; stroke-dasharray: 1.85,0.8; stroke-dashoffset: 0; stroke: #666666; stroke-opacity: 0.4; stroke-width: 0.5"/>
     </g>
     <g id="line2d_12">
      <g>
       <use xlink:href="#m7ac0c3b64c" x="742.023494" y="288.430125" style="fill-opacity: 0; stroke: #000000; stroke-opacity: 0; stroke-width: 0.8"/>
      </g>
     </g>
     <g id="text_6">
      <!-- 50 -->
      <g style="fill: #666666" transform="translate(735.660994 303.028562) scale(0.1 -0.1)">
       <defs>
        <path id="DejaVuSans-35" d="M 691 4666 
L 3169 4666 
L 3169 4134 
L 1269 4134 
L 1269 2991 
Q 1406 3038 1543 3061 
Q 1681 3084 1819 3084 
Q 2600 3084 3056 2656 
Q 3513 2228 3513 1497 
Q 3513 744 3044 326 
Q 2575 -91 1722 -91 
Q 1428 -91 1123 -41 
Q 819 9 494 109 
L 494 744 
Q 775 591 1075 516 
Q 1375 441 1709 441 
Q 2250 441 2565 725 
Q 2881 1009 2881 1497 
Q 2881 1984 2565 2268 
Q 2250 2553 1709 2553 
Q 1456 2553 1204 2497 
Q 953 2441 691 2322 
L 691 4666 
z
" transform="scale(0.015625)"/>
       </defs>
       <use xlink:href="#DejaVuSans-35"/>
       <use xlink:href="#DejaVuSans-30" x="63.623047"/>
      </g>
     </g>
    </g>
   </g>
   <g id="matplotlib.axis_2">
    <g id="ytick_1">
     <g id="line2d_13">
      <path d="M 55.345313 249.271571 
L 747.265313 249.271571 
" clip-path="url(#pc0374b90e0)" style="fill: none; stroke-dasharray: 1.85,0.8; stroke-dashoffset: 0; stroke: #666666; stroke-opacity: 0.4; stroke-width: 0.5"/>
     </g>
     <g id="line2d_14">
      <defs>
       <path id="m56da75b509" d="M 0 0 
L -3.5 0 
" style="stroke: #000000; stroke-opacity: 0; stroke-width: 0.8"/>
      </defs>
      <g>
       <use xlink:href="#m56da75b509" x="55.345313" y="249.271571" style="fill-opacity: 0; stroke: #000000; stroke-opacity: 0; stroke-width: 0.8"/>
      </g>
     </g>
     <g id="text_7">
      <!-- −150 -->
      <g style="fill: #666666" transform="translate(20.878125 253.07079) scale(0.1 -0.1)">
       <defs>
        <path id="DejaVuSans-2212" d="M 678 2272 
L 4684 2272 
L 4684 1741 
L 678 1741 
L 678 2272 
z
" transform="scale(0.015625)"/>
       </defs>
       <use xlink:href="#DejaVuSans-2212"/>
       <use xlink:href="#DejaVuSans-31" x="83.789062"/>
       <use xlink:href="#DejaVuSans-35" x="147.412109"/>
       <use xlink:href="#DejaVuSans-30" x="211.035156"/>
      </g>
     </g>
    </g>
    <g id="ytick_2">
     <g id="line2d_15">
      <path d="M 55.345313 204.325434 
L 747.265313 204.325434 
" clip-path="url(#pc0374b90e0)" style="fill: none; stroke-dasharray: 1.85,0.8; stroke-dashoffset: 0; stroke: #666666; stroke-opacity: 0.4; stroke-width: 0.5"/>
     </g>
     <g id="line2d_16">
      <g>
       <use xlink:href="#m56da75b509" x="55.345313" y="204.325434" style="fill-opacity: 0; stroke: #000000; stroke-opacity: 0; stroke-width: 0.8"/>
      </g>
     </g>
     <g id="text_8">
      <!-- −100 -->
      <g style="fill: #666666" transform="translate(20.878125 208.124653) scale(0.1 -0.1)">
       <use xlink:href="#DejaVuSans-2212"/>
       <use xlink:href="#DejaVuSans-31" x="83.789062"/>
       <use xlink:href="#DejaVuSans-30" x="147.412109"/>
       <use xlink:href="#DejaVuSans-30" x="211.035156"/>
      </g>
     </g>
    </g>
    <g id="ytick_3">
     <g id="line2d_17">
      <path d="M 55.345313 159.379297 
L 747.265313 159.379297 
" clip-path="url(#pc0374b90e0)" style="fill: none; stroke-dasharray: 1.85,0.8; stroke-dashoffset: 0; stroke: #666666; stroke-opacity: 0.4; stroke-width: 0.5"/>
     </g>
     <g id="line2d_18">
      <g>
       <use xlink:href="#m56da75b509" x="55.345313" y="159.379297" style="fill-opacity: 0; stroke: #000000; stroke-opacity: 0; stroke-width: 0.8"/>
      </g>
     </g>
     <g id="text_9">
      <!-- −50 -->
      <g style="fill: #666666" transform="translate(27.240625 163.178515) scale(0.1 -0.1)">
       <use xlink:href="#DejaVuSans-2212"/>
       <use xlink:href="#DejaVuSans-35" x="83.789062"/>
       <use xlink:href="#DejaVuSans-30" x="147.412109"/>
      </g>
     </g>
    </g>
    <g id="ytick_4">
     <g id="line2d_19">
      <path d="M 55.345313 114.433159 
L 747.265313 114.433159 
" clip-path="url(#pc0374b90e0)" style="fill: none; stroke-dasharray: 1.85,0.8; stroke-dashoffset: 0; stroke: #666666; stroke-opacity: 0.4; stroke-width: 0.5"/>
     </g>
     <g id="line2d_20">
      <g>
       <use xlink:href="#m56da75b509" x="55.345313" y="114.433159" style="fill-opacity: 0; stroke: #000000; stroke-opacity: 0; stroke-width: 0.8"/>
      </g>
     </g>
     <g id="text_10">
      <!-- 0 -->
      <g style="fill: #666666" transform="translate(41.982813 118.232378) scale(0.1 -0.1)">
       <use xlink:href="#DejaVuSans-30"/>
      </g>
     </g>
    </g>
    <g id="ytick_5">
     <g id="line2d_21">
      <path d="M 55.345313 69.487022 
L 747.265313 69.487022 
" clip-path="url(#pc0374b90e0)" style="fill: none; stroke-dasharray: 1.85,0.8; stroke-dashoffset: 0; stroke: #666666; stroke-opacity: 0.4; stroke-width: 0.5"/>
     </g>
     <g id="line2d_22">
      <g>
       <use xlink:href="#m56da75b509" x="55.345313" y="69.487022" style="fill-opacity: 0; stroke: #000000; stroke-opacity: 0; stroke-width: 0.8"/>
      </g>
     </g>
     <g id="text_11">
      <!-- 50 -->
      <g style="fill: #666666" transform="translate(35.620313 73.286241) scale(0.1 -0.1)">
       <use xlink:href="#DejaVuSans-35"/>
       <use xlink:href="#DejaVuSans-30" x="63.623047"/>
      </g>
     </g>
    </g>
    <g id="ytick_6">
     <g id="line2d_23">
      <path d="M 55.345313 24.540885 
L 747.265313 24.540885 
" clip-path="url(#pc0374b90e0)" style="fill: none; stroke-dasharray: 1.85,0.8; stroke-dashoffset: 0; stroke: #666666; stroke-opacity: 0.4; stroke-width: 0.5"/>
     </g>
     <g id="line2d_24">
      <g>
       <use xlink:href="#m56da75b509" x="55.345313" y="24.540885" style="fill-opacity: 0; stroke: #000000; stroke-opacity: 0; stroke-width: 0.8"/>
      </g>
     </g>
     <g id="text_12">
      <!-- 100 -->
      <g style="fill: #666666" transform="translate(29.257813 28.340103) scale(0.1 -0.1)">
       <use xlink:href="#DejaVuSans-31"/>
       <use xlink:href="#DejaVuSans-30" x="63.623047"/>
       <use xlink:href="#DejaVuSans-30" x="127.246094"/>
      </g>
     </g>
    </g>
    <g id="text_13">
     <!-- energy -->
     <g style="fill: #bdbdbd" transform="translate(14.798438 172.797562) rotate(-90) scale(0.1 -0.1)">
      <defs>
       <path id="DejaVuSans-65" d="M 3597 1894 
L 3597 1613 
L 953 1613 
Q 991 1019 1311 708 
Q 1631 397 2203 397 
Q 2534 397 2845 478 
Q 3156 559 3463 722 
L 3463 178 
Q 3153 47 2828 -22 
Q 2503 -91 2169 -91 
Q 1331 -91 842 396 
Q 353 884 353 1716 
Q 353 2575 817 3079 
Q 1281 3584 2069 3584 
Q 2775 3584 3186 3129 
Q 3597 2675 3597 1894 
z
M 3022 2063 
Q 3016 2534 2758 2815 
Q 2500 3097 2075 3097 
Q 1594 3097 1305 2825 
Q 1016 2553 972 2059 
L 3022 2063 
z
" transform="scale(0.015625)"/>
       <path id="DejaVuSans-6e" d="M 3513 2113 
L 3513 0 
L 2938 0 
L 2938 2094 
Q 2938 2591 2744 2837 
Q 2550 3084 2163 3084 
Q 1697 3084 1428 2787 
Q 1159 2491 1159 1978 
L 1159 0 
L 581 0 
L 581 3500 
L 1159 3500 
L 1159 2956 
Q 1366 3272 1645 3428 
Q 1925 3584 2291 3584 
Q 2894 3584 3203 3211 
Q 3513 2838 3513 2113 
z
" transform="scale(0.015625)"/>
       <path id="DejaVuSans-72" d="M 2631 2963 
Q 2534 3019 2420 3045 
Q 2306 3072 2169 3072 
Q 1681 3072 1420 2755 
Q 1159 2438 1159 1844 
L 1159 0 
L 581 0 
L 581 3500 
L 1159 3500 
L 1159 2956 
Q 1341 3275 1631 3429 
Q 1922 3584 2338 3584 
Q 2397 3584 2469 3576 
Q 2541 3569 2628 3553 
L 2631 2963 
z
" transform="scale(0.015625)"/>
       <path id="DejaVuSans-67" d="M 2906 1791 
Q 2906 2416 2648 2759 
Q 2391 3103 1925 3103 
Q 1463 3103 1205 2759 
Q 947 2416 947 1791 
Q 947 1169 1205 825 
Q 1463 481 1925 481 
Q 2391 481 2648 825 
Q 2906 1169 2906 1791 
z
M 3481 434 
Q 3481 -459 3084 -895 
Q 2688 -1331 1869 -1331 
Q 1566 -1331 1297 -1286 
Q 1028 -1241 775 -1147 
L 775 -588 
Q 1028 -725 1275 -790 
Q 1522 -856 1778 -856 
Q 2344 -856 2625 -561 
Q 2906 -266 2906 331 
L 2906 616 
Q 2728 306 2450 153 
Q 2172 0 1784 0 
Q 1141 0 747 490 
Q 353 981 353 1791 
Q 353 2603 747 3093 
Q 1141 3584 1784 3584 
Q 2172 3584 2450 3431 
Q 2728 3278 2906 2969 
L 2906 3500 
L 3481 3500 
L 3481 434 
z
" transform="scale(0.015625)"/>
       <path id="DejaVuSans-79" d="M 2059 -325 
Q 1816 -950 1584 -1140 
Q 1353 -1331 966 -1331 
L 506 -1331 
L 506 -850 
L 844 -850 
Q 1081 -850 1212 -737 
Q 1344 -625 1503 -206 
L 1606 56 
L 191 3500 
L 800 3500 
L 1894 763 
L 2988 3500 
L 3597 3500 
L 2059 -325 
z
" transform="scale(0.015625)"/>
      </defs>
      <use xlink:href="#DejaVuSans-65"/>
      <use xlink:href="#DejaVuSans-6e" x="61.523438"/>
      <use xlink:href="#DejaVuSans-65" x="124.902344"/>
      <use xlink:href="#DejaVuSans-72" x="186.425781"/>
      <use xlink:href="#DejaVuSans-67" x="225.789062"/>
      <use xlink:href="#DejaVuSans-79" x="289.265625"/>
     </g>
    </g>
   </g>
   <g id="line2d_25">
    <path d="M 86.796222 127.328844 
L 99.900767 106.184017 
L 113.005313 87.080573 
L 126.109858 87.269634 
L 139.214403 34.414125 
L 152.318949 149.496984 
L 165.423494 115.069506 
L 178.52804 190.69619 
L 191.632585 98.469688 
L 204.737131 209.023966 
L 217.841676 122.520574 
L 230.946222 119.52864 
L 244.050767 181.585578 
L 257.155313 38.782279 
L 270.259858 73.060025 
L 283.364403 117.6232 
L 296.468949 191.373318 
L 309.573494 192.698676 
L 322.67804 106.788614 
L 335.782585 169.739379 
L 348.887131 201.182723 
L 361.991676 152.409761 
L 375.096222 152.975781 
L 388.200767 190.871379 
L 401.305313 38.036931 
L 414.409858 141.429396 
L 427.514403 193.936152 
L 440.618949 138.800089 
L 453.723494 198.101719 
L 466.82804 66.459459 
L 479.932585 264.175021 
L 493.037131 121.30375 
L 506.141676 206.993844 
L 519.246222 153.699045 
L 532.350767 121.906449 
L 545.455313 140.320029 
L 558.559858 91.574581 
L 571.664403 242.192121 
L 584.768949 186.617499 
L 597.873494 234.336418 
L 610.97804 131.160732 
L 624.082585 172.901128 
L 637.187131 79.824389 
L 650.291676 144.423597 
L 663.396222 139.229371 
L 676.500767 210.295576 
L 689.605313 198.707805 
L 702.709858 199.108247 
L 715.814403 231.341886 
" clip-path="url(#pc0374b90e0)" style="fill: none; stroke: #440154; stroke-width: 1.5; stroke-linecap: square"/>
   </g>
   <g id="line2d_26">
    <path d="M 86.796222 138.755549 
L 99.900767 117.479927 
L 113.005313 98.372606 
L 126.109858 99.056711 
L 139.214403 46.500913 
L 152.318949 161.18371 
L 165.423494 127.019395 
L 178.52804 202.282455 
L 191.632585 109.902707 
L 204.737131 220.407671 
L 217.841676 134.246194 
L 230.946222 131.221568 
L 244.050767 193.202096 
L 257.155313 50.887091 
L 270.259858 84.956877 
L 283.364403 129.407582 
L 296.468949 203.22323 
L 309.573494 204.439635 
L 322.67804 118.342403 
L 335.782585 181.622752 
L 348.887131 213.093961 
L 361.991676 164.442707 
L 375.096222 165.098595 
L 388.200767 203.153025 
L 401.305313 50.138958 
L 414.409858 153.573743 
L 427.514403 205.7186 
L 440.618949 150.701272 
L 453.723494 210.227085 
L 466.82804 78.908876 
L 479.932585 276.128189 
L 493.037131 133.419724 
L 506.141676 219.288306 
L 519.246222 165.659737 
L 532.350767 133.935338 
L 545.455313 152.526876 
L 558.559858 103.843863 
L 571.664403 254.64024 
L 584.768949 198.795918 
L 597.873494 246.604292 
L 610.97804 143.151493 
L 624.082585 184.860299 
L 637.187131 92.146558 
L 650.291676 156.584826 
L 663.396222 151.4442 
L 676.500767 222.982303 
L 689.605313 211.026951 
L 702.709858 211.746235 
L 715.814403 243.250854 
" clip-path="url(#pc0374b90e0)" style="fill: none; stroke: #482878; stroke-width: 1.5; stroke-linecap: square"/>
   </g>
   <g id="line2d_27">
    <path d="M 86.796222 138.828872 
L 99.900767 117.525676 
L 113.005313 98.483484 
L 126.109858 99.105962 
L 139.214403 46.591391 
L 152.318949 161.19467 
L 165.423494 127.108374 
L 178.52804 202.300706 
L 191.632585 109.920789 
L 204.737131 220.468279 
L 217.841676 134.300901 
L 230.946222 131.350642 
L 244.050767 193.224639 
L 257.155313 50.922574 
L 270.259858 85.004898 
L 283.364403 129.509358 
L 296.468949 203.272579 
L 309.573494 204.542614 
L 322.67804 118.362251 
L 335.782585 181.6609 
L 348.887131 213.132127 
L 361.991676 164.4809 
L 375.096222 165.175996 
L 388.200767 203.237267 
L 401.305313 50.224745 
L 414.409858 153.636798 
L 427.514403 205.727177 
L 440.618949 150.701298 
L 453.723494 210.223958 
L 466.82804 78.953848 
L 479.932585 276.210186 
L 493.037131 133.446848 
L 506.141676 219.32621 
L 519.246222 165.710278 
L 532.350767 133.961543 
L 545.455313 152.553389 
L 558.559858 103.834137 
L 571.664403 254.690389 
L 584.768949 198.8638 
L 597.873494 246.607162 
L 610.97804 143.154142 
L 624.082585 184.943494 
L 637.187131 92.127383 
L 650.291676 156.637209 
L 663.396222 151.448217 
L 676.500767 223.038229 
L 689.605313 210.985127 
L 702.709858 211.781657 
L 715.814403 243.315547 
" clip-path="url(#pc0374b90e0)" style="fill: none; stroke: #3e4989; stroke-width: 1.5; stroke-linecap: square"/>
   </g>
   <g id="line2d_28">
    <path d="M 86.796222 138.887905 
L 99.900767 117.557769 
L 113.005313 98.582209 
L 126.109858 99.141196 
L 139.214403 46.667842 
L 152.318949 161.192286 
L 165.423494 127.183562 
L 178.52804 202.303835 
L 191.632585 109.92481 
L 204.737131 220.51568 
L 217.841676 134.341614 
L 230.946222 131.465212 
L 244.050767 193.232371 
L 257.155313 50.944784 
L 270.259858 85.038826 
L 283.364403 129.596689 
L 296.468949 203.308579 
L 309.573494 204.630824 
L 322.67804 118.369419 
L 335.782585 181.685929 
L 348.887131 213.15704 
L 361.991676 164.50593 
L 375.096222 165.23905 
L 388.200767 203.308287 
L 401.305313 50.295437 
L 414.409858 153.686221 
L 427.514403 205.722245 
L 440.618949 150.687727 
L 453.723494 210.206477 
L 466.82804 78.984408 
L 479.932585 276.278857 
L 493.037131 133.460528 
L 506.141676 219.349957 
L 519.246222 165.746974 
L 532.350767 133.974874 
L 545.455313 152.565887 
L 558.559858 103.810171 
L 571.664403 254.726982 
L 584.768949 198.917735 
L 597.873494 246.595633 
L 610.97804 143.143189 
L 624.082585 185.014425 
L 637.187131 92.096117 
L 650.291676 156.676196 
L 663.396222 151.438893 
L 676.500767 223.081181 
L 689.605313 210.928797 
L 702.709858 211.803182 
L 715.814403 243.367862 
" clip-path="url(#pc0374b90e0)" style="fill: none; stroke: #31688e; stroke-width: 1.5; stroke-linecap: square"/>
   </g>
   <g id="line2d_29">
    <path d="M 86.796222 138.933318 
L 99.900767 117.575408 
L 113.005313 98.668539 
L 126.109858 99.162979 
L 139.214403 46.729926 
L 152.318949 161.176856 
L 165.423494 127.245354 
L 178.52804 202.294064 
L 191.632585 109.915469 
L 204.737131 220.549887 
L 217.841676 134.367922 
L 230.946222 131.565062 
L 244.050767 193.227495 
L 257.155313 50.953424 
L 270.259858 85.058553 
L 283.364403 129.669683 
L 296.468949 203.330179 
L 309.573494 204.704386 
L 322.67804 118.364129 
L 335.782585 181.696812 
L 348.887131 213.168608 
L 361.991676 164.517744 
L 375.096222 165.287527 
L 388.200767 203.365032 
L 401.305313 50.35074 
L 414.409858 153.721898 
L 427.514403 205.703643 
L 440.618949 150.659572 
L 453.723494 210.175186 
L 466.82804 79.000209 
L 479.932585 276.334125 
L 493.037131 133.45971 
L 506.141676 219.359306 
L 519.246222 165.768723 
L 532.350767 133.974694 
L 545.455313 152.564555 
L 558.559858 103.772912 
L 571.664403 254.750145 
L 584.768949 198.958157 
L 597.873494 246.569874 
L 610.97804 143.118246 
L 624.082585 185.072187 
L 637.187131 92.051292 
L 650.291676 156.702003 
L 663.396222 151.415947 
L 676.500767 223.110678 
L 689.605313 210.858501 
L 702.709858 211.810109 
L 715.814403 243.40812 
" clip-path="url(#pc0374b90e0)" style="fill: none; stroke: #26828e; stroke-width: 1.5; stroke-linecap: square"/>
   </g>
   <g id="line2d_30">
    <path d="M 86.796222 138.852074 
L 99.900767 117.514272 
L 113.005313 98.619529 
L 126.109858 99.076144 
L 139.214403 46.612486 
L 152.318949 161.117111 
L 165.423494 127.205557 
L 178.52804 202.295358 
L 191.632585 109.817931 
L 204.737131 220.516996 
L 217.841676 134.254954 
L 230.946222 131.423815 
L 244.050767 193.184638 
L 257.155313 50.941777 
L 270.259858 84.96527 
L 283.364403 129.591293 
L 296.468949 203.247089 
L 309.573494 204.597077 
L 322.67804 118.26279 
L 335.782585 181.623761 
L 348.887131 213.138739 
L 361.991676 164.381477 
L 375.096222 165.280786 
L 388.200767 203.29785 
L 401.305313 50.309469 
L 414.409858 153.642898 
L 427.514403 205.698584 
L 440.618949 150.59821 
L 453.723494 210.130208 
L 466.82804 78.910274 
L 479.932585 276.243996 
L 493.037131 133.411027 
L 506.141676 219.331066 
L 519.246222 165.686208 
L 532.350767 133.91815 
L 545.455313 152.50716 
L 558.559858 103.706692 
L 571.664403 254.675004 
L 584.768949 198.911007 
L 597.873494 246.511856 
L 610.97804 143.052117 
L 624.082585 184.95911 
L 637.187131 92.016381 
L 650.291676 156.706426 
L 663.396222 151.421879 
L 676.500767 223.104679 
L 689.605313 210.781693 
L 702.709858 211.753232 
L 715.814403 243.387743 
" clip-path="url(#pc0374b90e0)" style="fill: none; stroke: #1f9e89; stroke-width: 1.5; stroke-linecap: square"/>
   </g>
   <g id="line2d_31">
    <path d="M 86.796222 138.756701 
L 99.900767 117.439076 
L 113.005313 98.557455 
L 126.109858 98.975364 
L 139.214403 46.483094 
L 152.318949 161.044466 
L 165.423494 127.151723 
L 178.52804 202.282369 
L 191.632585 109.705165 
L 204.737131 220.470835 
L 217.841676 134.128312 
L 230.946222 131.268936 
L 244.050767 193.129179 
L 257.155313 50.916587 
L 270.259858 84.857467 
L 283.364403 129.497563 
L 296.468949 203.149508 
L 309.573494 204.475974 
L 322.67804 118.14843 
L 335.782585 181.538102 
L 348.887131 213.095739 
L 361.991676 164.231413 
L 375.096222 165.26096 
L 388.200767 203.217271 
L 401.305313 50.255205 
L 414.409858 153.550185 
L 427.514403 205.679636 
L 440.618949 150.522444 
L 453.723494 210.07098 
L 466.82804 78.805611 
L 479.932585 276.140664 
L 493.037131 133.348105 
L 506.141676 219.289191 
L 519.246222 165.590316 
L 532.350767 133.848422 
L 545.455313 152.435825 
L 558.559858 103.626268 
L 571.664403 254.585085 
L 584.768949 198.849476 
L 597.873494 246.440644 
L 610.97804 142.972303 
L 624.082585 184.833428 
L 637.187131 91.966358 
L 650.291676 156.697359 
L 663.396222 151.414935 
L 676.500767 223.084565 
L 689.605313 210.689951 
L 702.709858 211.681889 
L 715.814403 243.352159 
" clip-path="url(#pc0374b90e0)" style="fill: none; stroke: #35b779; stroke-width: 1.5; stroke-linecap: square"/>
   </g>
   <g id="line2d_32">
    <path d="M 86.796222 138.647502 
L 99.900767 117.34951 
L 113.005313 98.482971 
L 126.109858 98.859587 
L 139.214403 46.340375 
L 152.318949 160.958926 
L 165.423494 127.084022 
L 178.52804 202.255336 
L 191.632585 109.577578 
L 204.737131 220.410796 
L 217.841676 133.988887 
L 230.946222 131.100791 
L 244.050767 193.060541 
L 257.155313 50.878995 
L 270.259858 84.735479 
L 283.364403 129.389488 
L 296.468949 203.037923 
L 309.573494 204.341043 
L 322.67804 118.02136 
L 335.782585 181.439361 
L 348.887131 213.038867 
L 361.991676 164.067582 
L 375.096222 165.227834 
L 388.200767 203.122593 
L 401.305313 50.187633 
L 414.409858 153.443644 
L 427.514403 205.647169 
L 440.618949 150.433515 
L 453.723494 209.997518 
L 466.82804 78.685876 
L 479.932585 276.024103 
L 493.037131 133.27119 
L 506.141676 219.233497 
L 519.246222 165.481833 
L 532.350767 133.765009 
L 545.455313 152.350325 
L 558.559858 103.531513 
L 571.664403 254.4806 
L 584.768949 198.774786 
L 597.873494 246.355752 
L 610.97804 142.87831 
L 624.082585 184.69425 
L 637.187131 91.901533 
L 650.291676 156.674071 
L 663.396222 151.393913 
L 676.500767 223.050827 
L 689.605313 210.583057 
L 702.709858 211.597223 
L 715.814403 243.303244 
" clip-path="url(#pc0374b90e0)" style="fill: none; stroke: #6ece58; stroke-width: 1.5; stroke-linecap: square"/>
   </g>
   <g id="line2d_33">
    <path d="M 86.796222 138.524158 
L 99.900767 117.245692 
L 113.005313 98.395436 
L 126.109858 98.730027 
L 139.214403 46.182743 
L 152.318949 160.860031 
L 165.423494 127.002638 
L 178.52804 202.214916 
L 191.632585 109.436548 
L 204.737131 220.337163 
L 217.841676 133.835798 
L 230.946222 130.918538 
L 244.050767 192.977315 
L 257.155313 50.82879 
L 270.259858 84.59948 
L 283.364403 129.266793 
L 296.468949 202.91206 
L 309.573494 204.192226 
L 322.67804 117.881565 
L 335.782585 181.326364 
L 348.887131 212.969223 
L 361.991676 163.889825 
L 375.096222 165.181751 
L 388.200767 203.013883 
L 401.305313 50.107173 
L 414.409858 153.323266 
L 427.514403 205.601508 
L 440.618949 150.331501 
L 453.723494 209.909388 
L 466.82804 78.551026 
L 479.932585 275.893898 
L 493.037131 133.180484 
L 506.141676 219.163903 
L 519.246222 165.359697 
L 532.350767 133.667182 
L 545.455313 152.250918 
L 558.559858 103.422042 
L 571.664403 254.363172 
L 584.768949 198.686956 
L 597.873494 246.257014 
L 610.97804 142.770539 
L 624.082585 184.541484 
L 637.187131 91.822549 
L 650.291676 156.635278 
L 663.396222 151.358511 
L 676.500767 223.003639 
L 689.605313 210.460841 
L 702.709858 211.499834 
L 715.814403 243.242228 
" clip-path="url(#pc0374b90e0)" style="fill: none; stroke: #b5de2b; stroke-width: 1.5; stroke-linecap: square"/>
   </g>
   <g id="patch_3">
    <path d="M 55.345313 288.430125 
L 55.345313 22.318125 
" style="fill: none"/>
   </g>
   <g id="patch_4">
    <path d="M 747.265313 288.430125 
L 747.265313 22.318125 
" style="fill: none"/>
   </g>
   <g id="patch_5">
    <path d="M 55.345313 288.430125 
L 747.265313 288.430125 
" style="fill: none"/>
   </g>
   <g id="patch_6">
    <path d="M 55.345313 22.318125 
L 747.265313 22.318125 
" style="fill: none"/>
   </g>
   <g id="text_14">
    <!-- train -->
    <g style="fill: #666666" transform="translate(387.340313 16.318125) scale(0.12 -0.12)">
     <defs>
      <path id="DejaVuSans-74" d="M 1172 4494 
L 1172 3500 
L 2356 3500 
L 2356 3053 
L 1172 3053 
L 1172 1153 
Q 1172 725 1289 603 
Q 1406 481 1766 481 
L 2356 481 
L 2356 0 
L 1766 0 
Q 1100 0 847 248 
Q 594 497 594 1153 
L 594 3053 
L 172 3053 
L 172 3500 
L 594 3500 
L 594 4494 
L 1172 4494 
z
" transform="scale(0.015625)"/>
      <path id="DejaVuSans-61" d="M 2194 1759 
Q 1497 1759 1228 1600 
Q 959 1441 959 1056 
Q 959 750 1161 570 
Q 1363 391 1709 391 
Q 2188 391 2477 730 
Q 2766 1069 2766 1631 
L 2766 1759 
L 2194 1759 
z
M 3341 1997 
L 3341 0 
L 2766 0 
L 2766 531 
Q 2569 213 2275 61 
Q 1981 -91 1556 -91 
Q 1019 -91 701 211 
Q 384 513 384 1019 
Q 384 1609 779 1909 
Q 1175 2209 1959 2209 
L 2766 2209 
L 2766 2266 
Q 2766 2663 2505 2880 
Q 2244 3097 1772 3097 
Q 1472 3097 1187 3025 
Q 903 2953 641 2809 
L 641 3341 
Q 956 3463 1253 3523 
Q 1550 3584 1831 3584 
Q 2591 3584 2966 3190 
Q 3341 2797 3341 1997 
z
" transform="scale(0.015625)"/>
      <path id="DejaVuSans-69" d="M 603 3500 
L 1178 3500 
L 1178 0 
L 603 0 
L 603 3500 
z
M 603 4863 
L 1178 4863 
L 1178 4134 
L 603 4134 
L 603 4863 
z
" transform="scale(0.015625)"/>
     </defs>
     <use xlink:href="#DejaVuSans-74"/>
     <use xlink:href="#DejaVuSans-72" x="39.208984"/>
     <use xlink:href="#DejaVuSans-61" x="80.322266"/>
     <use xlink:href="#DejaVuSans-69" x="141.601562"/>
     <use xlink:href="#DejaVuSans-6e" x="169.384766"/>
    </g>
   </g>
  </g>
 </g>
 <defs>
  <clipPath id="pc0374b90e0">
   <rect x="55.345313" y="22.318125" width="691.92" height="266.112"/>
  </clipPath>
 </defs>
</svg>
