<?xml version="1.0" encoding="utf-8" standalone="no"?>
<!DOCTYPE svg PUBLIC "-//W3C//DTD SVG 1.1//EN"
  "http://www.w3.org/Graphics/SVG/1.1/DTD/svg11.dtd">
<svg xmlns:xlink="http://www.w3.org/1999/xlink" width="758.764119pt" height="312.30825pt" viewBox="0 0 758.764119 312.30825" xmlns="http://www.w3.org/2000/svg" version="1.1">
 <metadata>
  <rdf:RDF xmlns:dc="http://purl.org/dc/elements/1.1/" xmlns:cc="http://creativecommons.org/ns#" xmlns:rdf="http://www.w3.org/1999/02/22-rdf-syntax-ns#">
   <cc:Work>
    <dc:type rdf:resource="http://purl.org/dc/dcmitype/StillImage"/>
    <dc:date>2023-07-10T07:57:40.843646</dc:date>
    <dc:format>image/svg+xml</dc:format>
    <dc:creator>
     <cc:Agent>
      <dc:title>Matplotlib v3.7.1, https://matplotlib.org/</dc:title>
     </cc:Agent>
    </dc:creator>
   </cc:Work>
  </rdf:RDF>
 </metadata>
 <defs>
  <style type="text/css">*{stroke-linejoin: round; stroke-linecap: butt}</style>
 </defs>
 <g id="figure_1">
  <g id="patch_1">
   <path d="M 0 312.30825 
L 758.764119 312.30825 
L 758.764119 0 
L 0 0 
L 0 312.30825 
z
" style="fill: none"/>
  </g>
  <g id="axes_1">
   <g id="patch_2">
    <path d="M 58.523438 288.430125 
L 750.443438 288.430125 
L 750.443438 22.318125 
L 58.523438 22.318125 
L 58.523438 288.430125 
z
" style="fill: none"/>
   </g>
   <g id="matplotlib.axis_1">
    <g id="xtick_1">
     <g id="line2d_1">
      <path d="M 89.974347 288.430125 
L 89.974347 22.318125 
" clip-path="url(#p6505f7b93e)" style="fill: none; stroke-dasharray: 1.85,0.8; stroke-dashoffset: 0; stroke: #666666; stroke-opacity: 0.4; stroke-width: 0.5"/>
     </g>
     <g id="line2d_2">
      <defs>
       <path id="mf89d67bf82" d="M 0 0 
L 0 3.5 
" style="stroke: #000000; stroke-opacity: 0; stroke-width: 0.8"/>
      </defs>
      <g>
       <use xlink:href="#mf89d67bf82" x="89.974347" y="288.430125" style="fill-opacity: 0; stroke: #000000; stroke-opacity: 0; stroke-width: 0.8"/>
      </g>
     </g>
     <g id="text_1">
      <!-- 0 -->
      <g style="fill: #666666" transform="translate(86.793097 303.028562) scale(0.1 -0.1)">
       <defs>
        <path id="DejaVuSans-30" d="M 2034 4250 
Q 1547 4250 1301 3770 
Q 1056 3291 1056 2328 
Q 1056 1369 1301 889 
Q 1547 409 2034 409 
Q 2525 409 2770 889 
Q 3016 1369 3016 2328 
Q 3016 3291 2770 3770 
Q 2525 4250 2034 4250 
z
M 2034 4750 
Q 2819 4750 3233 4129 
Q 3647 3509 3647 2328 
Q 3647 1150 3233 529 
Q 2819 -91 2034 -91 
Q 1250 -91 836 529 
Q 422 1150 422 2328 
Q 422 3509 836 4129 
Q 1250 4750 2034 4750 
z
" transform="scale(0.015625)"/>
       </defs>
       <use xlink:href="#DejaVuSans-30"/>
      </g>
     </g>
    </g>
    <g id="xtick_2">
     <g id="line2d_3">
      <path d="M 221.019801 288.430125 
L 221.019801 22.318125 
" clip-path="url(#p6505f7b93e)" style="fill: none; stroke-dasharray: 1.85,0.8; stroke-dashoffset: 0; stroke: #666666; stroke-opacity: 0.4; stroke-width: 0.5"/>
     </g>
     <g id="line2d_4">
      <g>
       <use xlink:href="#mf89d67bf82" x="221.019801" y="288.430125" style="fill-opacity: 0; stroke: #000000; stroke-opacity: 0; stroke-width: 0.8"/>
      </g>
     </g>
     <g id="text_2">
      <!-- 10 -->
      <g style="fill: #666666" transform="translate(214.657301 303.028562) scale(0.1 -0.1)">
       <defs>
        <path id="DejaVuSans-31" d="M 794 531 
L 1825 531 
L 1825 4091 
L 703 3866 
L 703 4441 
L 1819 4666 
L 2450 4666 
L 2450 531 
L 3481 531 
L 3481 0 
L 794 0 
L 794 531 
z
" transform="scale(0.015625)"/>
       </defs>
       <use xlink:href="#DejaVuSans-31"/>
       <use xlink:href="#DejaVuSans-30" x="63.623047"/>
      </g>
     </g>
    </g>
    <g id="xtick_3">
     <g id="line2d_5">
      <path d="M 352.065256 288.430125 
L 352.065256 22.318125 
" clip-path="url(#p6505f7b93e)" style="fill: none; stroke-dasharray: 1.85,0.8; stroke-dashoffset: 0; stroke: #666666; stroke-opacity: 0.4; stroke-width: 0.5"/>
     </g>
     <g id="line2d_6">
      <g>
       <use xlink:href="#mf89d67bf82" x="352.065256" y="288.430125" style="fill-opacity: 0; stroke: #000000; stroke-opacity: 0; stroke-width: 0.8"/>
      </g>
     </g>
     <g id="text_3">
      <!-- 20 -->
      <g style="fill: #666666" transform="translate(345.702756 303.028562) scale(0.1 -0.1)">
       <defs>
        <path id="DejaVuSans-32" d="M 1228 531 
L 3431 531 
L 3431 0 
L 469 0 
L 469 531 
Q 828 903 1448 1529 
Q 2069 2156 2228 2338 
Q 2531 2678 2651 2914 
Q 2772 3150 2772 3378 
Q 2772 3750 2511 3984 
Q 2250 4219 1831 4219 
Q 1534 4219 1204 4116 
Q 875 4013 500 3803 
L 500 4441 
Q 881 4594 1212 4672 
Q 1544 4750 1819 4750 
Q 2544 4750 2975 4387 
Q 3406 4025 3406 3419 
Q 3406 3131 3298 2873 
Q 3191 2616 2906 2266 
Q 2828 2175 2409 1742 
Q 1991 1309 1228 531 
z
" transform="scale(0.015625)"/>
       </defs>
       <use xlink:href="#DejaVuSans-32"/>
       <use xlink:href="#DejaVuSans-30" x="63.623047"/>
      </g>
     </g>
    </g>
    <g id="xtick_4">
     <g id="line2d_7">
      <path d="M 483.11071 288.430125 
L 483.11071 22.318125 
" clip-path="url(#p6505f7b93e)" style="fill: none; stroke-dasharray: 1.85,0.8; stroke-dashoffset: 0; stroke: #666666; stroke-opacity: 0.4; stroke-width: 0.5"/>
     </g>
     <g id="line2d_8">
      <g>
       <use xlink:href="#mf89d67bf82" x="483.11071" y="288.430125" style="fill-opacity: 0; stroke: #000000; stroke-opacity: 0; stroke-width: 0.8"/>
      </g>
     </g>
     <g id="text_4">
      <!-- 30 -->
      <g style="fill: #666666" transform="translate(476.74821 303.028562) scale(0.1 -0.1)">
       <defs>
        <path id="DejaVuSans-33" d="M 2597 2516 
Q 3050 2419 3304 2112 
Q 3559 1806 3559 1356 
Q 3559 666 3084 287 
Q 2609 -91 1734 -91 
Q 1441 -91 1130 -33 
Q 819 25 488 141 
L 488 750 
Q 750 597 1062 519 
Q 1375 441 1716 441 
Q 2309 441 2620 675 
Q 2931 909 2931 1356 
Q 2931 1769 2642 2001 
Q 2353 2234 1838 2234 
L 1294 2234 
L 1294 2753 
L 1863 2753 
Q 2328 2753 2575 2939 
Q 2822 3125 2822 3475 
Q 2822 3834 2567 4026 
Q 2313 4219 1838 4219 
Q 1578 4219 1281 4162 
Q 984 4106 628 3988 
L 628 4550 
Q 988 4650 1302 4700 
Q 1616 4750 1894 4750 
Q 2613 4750 3031 4423 
Q 3450 4097 3450 3541 
Q 3450 3153 3228 2886 
Q 3006 2619 2597 2516 
z
" transform="scale(0.015625)"/>
       </defs>
       <use xlink:href="#DejaVuSans-33"/>
       <use xlink:href="#DejaVuSans-30" x="63.623047"/>
      </g>
     </g>
    </g>
    <g id="xtick_5">
     <g id="line2d_9">
      <path d="M 614.156165 288.430125 
L 614.156165 22.318125 
" clip-path="url(#p6505f7b93e)" style="fill: none; stroke-dasharray: 1.85,0.8; stroke-dashoffset: 0; stroke: #666666; stroke-opacity: 0.4; stroke-width: 0.5"/>
     </g>
     <g id="line2d_10">
      <g>
       <use xlink:href="#mf89d67bf82" x="614.156165" y="288.430125" style="fill-opacity: 0; stroke: #000000; stroke-opacity: 0; stroke-width: 0.8"/>
      </g>
     </g>
     <g id="text_5">
      <!-- 40 -->
      <g style="fill: #666666" transform="translate(607.793665 303.028562) scale(0.1 -0.1)">
       <defs>
        <path id="DejaVuSans-34" d="M 2419 4116 
L 825 1625 
L 2419 1625 
L 2419 4116 
z
M 2253 4666 
L 3047 4666 
L 3047 1625 
L 3713 1625 
L 3713 1100 
L 3047 1100 
L 3047 0 
L 2419 0 
L 2419 1100 
L 313 1100 
L 313 1709 
L 2253 4666 
z
" transform="scale(0.015625)"/>
       </defs>
       <use xlink:href="#DejaVuSans-34"/>
       <use xlink:href="#DejaVuSans-30" x="63.623047"/>
      </g>
     </g>
    </g>
    <g id="xtick_6">
     <g id="line2d_11">
      <path d="M 745.201619 288.430125 
L 745.201619 22.318125 
" clip-path="url(#p6505f7b93e)" style="fill: none; stroke-dasharray: 1.85,0.8; stroke-dashoffset: 0; stroke: #666666; stroke-opacity: 0.4; stroke-width: 0.5"/>
     </g>
     <g id="line2d_12">
      <g>
       <use xlink:href="#mf89d67bf82" x="745.201619" y="288.430125" style="fill-opacity: 0; stroke: #000000; stroke-opacity: 0; stroke-width: 0.8"/>
      </g>
     </g>
     <g id="text_6">
      <!-- 50 -->
      <g style="fill: #666666" transform="translate(738.839119 303.028562) scale(0.1 -0.1)">
       <defs>
        <path id="DejaVuSans-35" d="M 691 4666 
L 3169 4666 
L 3169 4134 
L 1269 4134 
L 1269 2991 
Q 1406 3038 1543 3061 
Q 1681 3084 1819 3084 
Q 2600 3084 3056 2656 
Q 3513 2228 3513 1497 
Q 3513 744 3044 326 
Q 2575 -91 1722 -91 
Q 1428 -91 1123 -41 
Q 819 9 494 109 
L 494 744 
Q 775 591 1075 516 
Q 1375 441 1709 441 
Q 2250 441 2565 725 
Q 2881 1009 2881 1497 
Q 2881 1984 2565 2268 
Q 2250 2553 1709 2553 
Q 1456 2553 1204 2497 
Q 953 2441 691 2322 
L 691 4666 
z
" transform="scale(0.015625)"/>
       </defs>
       <use xlink:href="#DejaVuSans-35"/>
       <use xlink:href="#DejaVuSans-30" x="63.623047"/>
      </g>
     </g>
    </g>
   </g>
   <g id="matplotlib.axis_2">
    <g id="ytick_1">
     <g id="line2d_13">
      <path d="M 58.523438 281.849357 
L 750.443438 281.849357 
" clip-path="url(#p6505f7b93e)" style="fill: none; stroke-dasharray: 1.85,0.8; stroke-dashoffset: 0; stroke: #666666; stroke-opacity: 0.4; stroke-width: 0.5"/>
     </g>
     <g id="line2d_14">
      <defs>
       <path id="md732b3151d" d="M 0 0 
L -3.5 0 
" style="stroke: #000000; stroke-opacity: 0; stroke-width: 0.8"/>
      </defs>
      <g>
       <use xlink:href="#md732b3151d" x="58.523438" y="281.849357" style="fill-opacity: 0; stroke: #000000; stroke-opacity: 0; stroke-width: 0.8"/>
      </g>
     </g>
     <g id="text_7">
      <!-- −0.30 -->
      <g style="fill: #666666" transform="translate(20.878125 285.648576) scale(0.1 -0.1)">
       <defs>
        <path id="DejaVuSans-2212" d="M 678 2272 
L 4684 2272 
L 4684 1741 
L 678 1741 
L 678 2272 
z
" transform="scale(0.015625)"/>
        <path id="DejaVuSans-2e" d="M 684 794 
L 1344 794 
L 1344 0 
L 684 0 
L 684 794 
z
" transform="scale(0.015625)"/>
       </defs>
       <use xlink:href="#DejaVuSans-2212"/>
       <use xlink:href="#DejaVuSans-30" x="83.789062"/>
       <use xlink:href="#DejaVuSans-2e" x="147.412109"/>
       <use xlink:href="#DejaVuSans-33" x="179.199219"/>
       <use xlink:href="#DejaVuSans-30" x="242.822266"/>
      </g>
     </g>
    </g>
    <g id="ytick_2">
     <g id="line2d_15">
      <path d="M 58.523438 242.807299 
L 750.443438 242.807299 
" clip-path="url(#p6505f7b93e)" style="fill: none; stroke-dasharray: 1.85,0.8; stroke-dashoffset: 0; stroke: #666666; stroke-opacity: 0.4; stroke-width: 0.5"/>
     </g>
     <g id="line2d_16">
      <g>
       <use xlink:href="#md732b3151d" x="58.523438" y="242.807299" style="fill-opacity: 0; stroke: #000000; stroke-opacity: 0; stroke-width: 0.8"/>
      </g>
     </g>
     <g id="text_8">
      <!-- −0.25 -->
      <g style="fill: #666666" transform="translate(20.878125 246.606518) scale(0.1 -0.1)">
       <use xlink:href="#DejaVuSans-2212"/>
       <use xlink:href="#DejaVuSans-30" x="83.789062"/>
       <use xlink:href="#DejaVuSans-2e" x="147.412109"/>
       <use xlink:href="#DejaVuSans-32" x="179.199219"/>
       <use xlink:href="#DejaVuSans-35" x="242.822266"/>
      </g>
     </g>
    </g>
    <g id="ytick_3">
     <g id="line2d_17">
      <path d="M 58.523438 203.765241 
L 750.443438 203.765241 
" clip-path="url(#p6505f7b93e)" style="fill: none; stroke-dasharray: 1.85,0.8; stroke-dashoffset: 0; stroke: #666666; stroke-opacity: 0.4; stroke-width: 0.5"/>
     </g>
     <g id="line2d_18">
      <g>
       <use xlink:href="#md732b3151d" x="58.523438" y="203.765241" style="fill-opacity: 0; stroke: #000000; stroke-opacity: 0; stroke-width: 0.8"/>
      </g>
     </g>
     <g id="text_9">
      <!-- −0.20 -->
      <g style="fill: #666666" transform="translate(20.878125 207.56446) scale(0.1 -0.1)">
       <use xlink:href="#DejaVuSans-2212"/>
       <use xlink:href="#DejaVuSans-30" x="83.789062"/>
       <use xlink:href="#DejaVuSans-2e" x="147.412109"/>
       <use xlink:href="#DejaVuSans-32" x="179.199219"/>
       <use xlink:href="#DejaVuSans-30" x="242.822266"/>
      </g>
     </g>
    </g>
    <g id="ytick_4">
     <g id="line2d_19">
      <path d="M 58.523438 164.723183 
L 750.443438 164.723183 
" clip-path="url(#p6505f7b93e)" style="fill: none; stroke-dasharray: 1.85,0.8; stroke-dashoffset: 0; stroke: #666666; stroke-opacity: 0.4; stroke-width: 0.5"/>
     </g>
     <g id="line2d_20">
      <g>
       <use xlink:href="#md732b3151d" x="58.523438" y="164.723183" style="fill-opacity: 0; stroke: #000000; stroke-opacity: 0; stroke-width: 0.8"/>
      </g>
     </g>
     <g id="text_10">
      <!-- −0.15 -->
      <g style="fill: #666666" transform="translate(20.878125 168.522402) scale(0.1 -0.1)">
       <use xlink:href="#DejaVuSans-2212"/>
       <use xlink:href="#DejaVuSans-30" x="83.789062"/>
       <use xlink:href="#DejaVuSans-2e" x="147.412109"/>
       <use xlink:href="#DejaVuSans-31" x="179.199219"/>
       <use xlink:href="#DejaVuSans-35" x="242.822266"/>
      </g>
     </g>
    </g>
    <g id="ytick_5">
     <g id="line2d_21">
      <path d="M 58.523438 125.681125 
L 750.443438 125.681125 
" clip-path="url(#p6505f7b93e)" style="fill: none; stroke-dasharray: 1.85,0.8; stroke-dashoffset: 0; stroke: #666666; stroke-opacity: 0.4; stroke-width: 0.5"/>
     </g>
     <g id="line2d_22">
      <g>
       <use xlink:href="#md732b3151d" x="58.523438" y="125.681125" style="fill-opacity: 0; stroke: #000000; stroke-opacity: 0; stroke-width: 0.8"/>
      </g>
     </g>
     <g id="text_11">
      <!-- −0.10 -->
      <g style="fill: #666666" transform="translate(20.878125 129.480344) scale(0.1 -0.1)">
       <use xlink:href="#DejaVuSans-2212"/>
       <use xlink:href="#DejaVuSans-30" x="83.789062"/>
       <use xlink:href="#DejaVuSans-2e" x="147.412109"/>
       <use xlink:href="#DejaVuSans-31" x="179.199219"/>
       <use xlink:href="#DejaVuSans-30" x="242.822266"/>
      </g>
     </g>
    </g>
    <g id="ytick_6">
     <g id="line2d_23">
      <path d="M 58.523438 86.639067 
L 750.443438 86.639067 
" clip-path="url(#p6505f7b93e)" style="fill: none; stroke-dasharray: 1.85,0.8; stroke-dashoffset: 0; stroke: #666666; stroke-opacity: 0.4; stroke-width: 0.5"/>
     </g>
     <g id="line2d_24">
      <g>
       <use xlink:href="#md732b3151d" x="58.523438" y="86.639067" style="fill-opacity: 0; stroke: #000000; stroke-opacity: 0; stroke-width: 0.8"/>
      </g>
     </g>
     <g id="text_12">
      <!-- −0.05 -->
      <g style="fill: #666666" transform="translate(20.878125 90.438286) scale(0.1 -0.1)">
       <use xlink:href="#DejaVuSans-2212"/>
       <use xlink:href="#DejaVuSans-30" x="83.789062"/>
       <use xlink:href="#DejaVuSans-2e" x="147.412109"/>
       <use xlink:href="#DejaVuSans-30" x="179.199219"/>
       <use xlink:href="#DejaVuSans-35" x="242.822266"/>
      </g>
     </g>
    </g>
    <g id="ytick_7">
     <g id="line2d_25">
      <path d="M 58.523438 47.597009 
L 750.443438 47.597009 
" clip-path="url(#p6505f7b93e)" style="fill: none; stroke-dasharray: 1.85,0.8; stroke-dashoffset: 0; stroke: #666666; stroke-opacity: 0.4; stroke-width: 0.5"/>
     </g>
     <g id="line2d_26">
      <g>
       <use xlink:href="#md732b3151d" x="58.523438" y="47.597009" style="fill-opacity: 0; stroke: #000000; stroke-opacity: 0; stroke-width: 0.8"/>
      </g>
     </g>
     <g id="text_13">
      <!-- 0.00 -->
      <g style="fill: #666666" transform="translate(29.257813 51.396228) scale(0.1 -0.1)">
       <use xlink:href="#DejaVuSans-30"/>
       <use xlink:href="#DejaVuSans-2e" x="63.623047"/>
       <use xlink:href="#DejaVuSans-30" x="95.410156"/>
       <use xlink:href="#DejaVuSans-30" x="159.033203"/>
      </g>
     </g>
    </g>
    <g id="text_14">
     <!-- logdet -->
     <g style="fill: #bdbdbd" transform="translate(14.798438 171.207719) rotate(-90) scale(0.1 -0.1)">
      <defs>
       <path id="DejaVuSans-6c" d="M 603 4863 
L 1178 4863 
L 1178 0 
L 603 0 
L 603 4863 
z
" transform="scale(0.015625)"/>
       <path id="DejaVuSans-6f" d="M 1959 3097 
Q 1497 3097 1228 2736 
Q 959 2375 959 1747 
Q 959 1119 1226 758 
Q 1494 397 1959 397 
Q 2419 397 2687 759 
Q 2956 1122 2956 1747 
Q 2956 2369 2687 2733 
Q 2419 3097 1959 3097 
z
M 1959 3584 
Q 2709 3584 3137 3096 
Q 3566 2609 3566 1747 
Q 3566 888 3137 398 
Q 2709 -91 1959 -91 
Q 1206 -91 779 398 
Q 353 888 353 1747 
Q 353 2609 779 3096 
Q 1206 3584 1959 3584 
z
" transform="scale(0.015625)"/>
       <path id="DejaVuSans-67" d="M 2906 1791 
Q 2906 2416 2648 2759 
Q 2391 3103 1925 3103 
Q 1463 3103 1205 2759 
Q 947 2416 947 1791 
Q 947 1169 1205 825 
Q 1463 481 1925 481 
Q 2391 481 2648 825 
Q 2906 1169 2906 1791 
z
M 3481 434 
Q 3481 -459 3084 -895 
Q 2688 -1331 1869 -1331 
Q 1566 -1331 1297 -1286 
Q 1028 -1241 775 -1147 
L 775 -588 
Q 1028 -725 1275 -790 
Q 1522 -856 1778 -856 
Q 2344 -856 2625 -561 
Q 2906 -266 2906 331 
L 2906 616 
Q 2728 306 2450 153 
Q 2172 0 1784 0 
Q 1141 0 747 490 
Q 353 981 353 1791 
Q 353 2603 747 3093 
Q 1141 3584 1784 3584 
Q 2172 3584 2450 3431 
Q 2728 3278 2906 2969 
L 2906 3500 
L 3481 3500 
L 3481 434 
z
" transform="scale(0.015625)"/>
       <path id="DejaVuSans-64" d="M 2906 2969 
L 2906 4863 
L 3481 4863 
L 3481 0 
L 2906 0 
L 2906 525 
Q 2725 213 2448 61 
Q 2172 -91 1784 -91 
Q 1150 -91 751 415 
Q 353 922 353 1747 
Q 353 2572 751 3078 
Q 1150 3584 1784 3584 
Q 2172 3584 2448 3432 
Q 2725 3281 2906 2969 
z
M 947 1747 
Q 947 1113 1208 752 
Q 1469 391 1925 391 
Q 2381 391 2643 752 
Q 2906 1113 2906 1747 
Q 2906 2381 2643 2742 
Q 2381 3103 1925 3103 
Q 1469 3103 1208 2742 
Q 947 2381 947 1747 
z
" transform="scale(0.015625)"/>
       <path id="DejaVuSans-65" d="M 3597 1894 
L 3597 1613 
L 953 1613 
Q 991 1019 1311 708 
Q 1631 397 2203 397 
Q 2534 397 2845 478 
Q 3156 559 3463 722 
L 3463 178 
Q 3153 47 2828 -22 
Q 2503 -91 2169 -91 
Q 1331 -91 842 396 
Q 353 884 353 1716 
Q 353 2575 817 3079 
Q 1281 3584 2069 3584 
Q 2775 3584 3186 3129 
Q 3597 2675 3597 1894 
z
M 3022 2063 
Q 3016 2534 2758 2815 
Q 2500 3097 2075 3097 
Q 1594 3097 1305 2825 
Q 1016 2553 972 2059 
L 3022 2063 
z
" transform="scale(0.015625)"/>
       <path id="DejaVuSans-74" d="M 1172 4494 
L 1172 3500 
L 2356 3500 
L 2356 3053 
L 1172 3053 
L 1172 1153 
Q 1172 725 1289 603 
Q 1406 481 1766 481 
L 2356 481 
L 2356 0 
L 1766 0 
Q 1100 0 847 248 
Q 594 497 594 1153 
L 594 3053 
L 172 3053 
L 172 3500 
L 594 3500 
L 594 4494 
L 1172 4494 
z
" transform="scale(0.015625)"/>
      </defs>
      <use xlink:href="#DejaVuSans-6c"/>
      <use xlink:href="#DejaVuSans-6f" x="27.783203"/>
      <use xlink:href="#DejaVuSans-67" x="88.964844"/>
      <use xlink:href="#DejaVuSans-64" x="152.441406"/>
      <use xlink:href="#DejaVuSans-65" x="215.917969"/>
      <use xlink:href="#DejaVuSans-74" x="277.441406"/>
     </g>
    </g>
   </g>
   <g id="line2d_27">
    <path d="M 89.974347 47.597009 
L 103.078892 47.597009 
L 116.183438 47.597009 
L 129.287983 47.597009 
L 142.392528 47.597009 
L 155.497074 47.597009 
L 168.601619 47.597009 
L 181.706165 47.597009 
L 194.81071 47.597009 
L 207.915256 47.597009 
L 221.019801 47.597009 
L 234.124347 47.597009 
L 247.228892 47.597009 
L 260.333438 47.597009 
L 273.437983 47.597009 
L 286.542528 47.597009 
L 299.647074 47.597009 
L 312.751619 47.597009 
L 325.856165 47.597009 
L 338.96071 47.597009 
L 352.065256 47.597009 
L 365.169801 47.597009 
L 378.274347 47.597009 
L 391.378892 47.597009 
L 404.483438 47.597009 
L 417.587983 47.597009 
L 430.692528 47.597009 
L 443.797074 47.597009 
L 456.901619 47.597009 
L 470.006165 47.597009 
L 483.11071 47.597009 
L 496.215256 47.597009 
L 509.319801 47.597009 
L 522.424347 47.597009 
L 535.528892 47.597009 
L 548.633438 47.597009 
L 561.737983 47.597009 
L 574.842528 47.597009 
L 587.947074 47.597009 
L 601.051619 47.597009 
L 614.156165 47.597009 
L 627.26071 47.597009 
L 640.365256 47.597009 
L 653.469801 47.597009 
L 666.574347 47.597009 
L 679.678892 47.597009 
L 692.783438 47.597009 
L 705.887983 47.597009 
L 718.992528 47.597009 
" clip-path="url(#p6505f7b93e)" style="fill: none; stroke: #440154; stroke-width: 1.5; stroke-linecap: square"/>
   </g>
   <g id="line2d_28">
    <path d="M 89.974347 93.994274 
L 103.078892 98.349847 
L 116.183438 95.586137 
L 129.287983 100.746868 
L 142.392528 100.444068 
L 155.497074 100.579208 
L 168.601619 98.609687 
L 181.706165 97.920648 
L 194.81071 98.674316 
L 207.915256 96.459785 
L 221.019801 100.258115 
L 234.124347 101.705075 
L 247.228892 96.187538 
L 260.333438 96.843589 
L 273.437983 101.704511 
L 286.542528 101.640854 
L 299.647074 97.071184 
L 312.751619 93.36737 
L 325.856165 91.943234 
L 338.96071 95.378573 
L 352.065256 97.741649 
L 365.169801 94.391353 
L 378.274347 97.711197 
L 391.378892 97.029524 
L 404.483438 93.536847 
L 417.587983 88.625262 
L 430.692528 93.164073 
L 443.797074 93.728146 
L 456.901619 94.826237 
L 470.006165 94.813925 
L 483.11071 92.536815 
L 496.215256 93.969294 
L 509.319801 95.746056 
L 522.424347 95.355705 
L 535.528892 93.490544 
L 548.633438 93.926802 
L 561.737983 95.941392 
L 574.842528 91.282267 
L 587.947074 89.32439 
L 601.051619 93.879726 
L 614.156165 93.449379 
L 627.26071 88.906554 
L 640.365256 94.85615 
L 653.469801 93.70681 
L 666.574347 91.356823 
L 679.678892 94.089866 
L 692.783438 90.643942 
L 705.887983 93.012937 
L 718.992528 88.283246 
" clip-path="url(#p6505f7b93e)" style="fill: none; stroke: #482878; stroke-width: 1.5; stroke-linecap: square"/>
   </g>
   <g id="line2d_29">
    <path d="M 89.974347 142.770475 
L 103.078892 146.9737 
L 116.183438 144.44946 
L 129.287983 158.856031 
L 142.392528 156.54177 
L 155.497074 156.307309 
L 168.601619 150.453659 
L 181.706165 147.245888 
L 194.81071 156.404978 
L 207.915256 144.737093 
L 221.019801 158.295661 
L 234.124347 157.830213 
L 247.228892 145.477725 
L 260.333438 147.230693 
L 273.437983 158.440571 
L 286.542528 158.528813 
L 299.647074 147.077272 
L 312.751619 138.81424 
L 325.856165 138.97589 
L 338.96071 147.182957 
L 352.065256 149.220228 
L 365.169801 142.036349 
L 378.274347 154.083544 
L 391.378892 151.252689 
L 404.483438 143.012817 
L 417.587983 132.30979 
L 430.692528 141.925606 
L 443.797074 141.174772 
L 456.901619 144.739841 
L 470.006165 145.464448 
L 483.11071 140.569705 
L 496.215256 140.803105 
L 509.319801 144.566269 
L 522.424347 143.124775 
L 535.528892 139.862034 
L 548.633438 141.15565 
L 561.737983 144.628579 
L 574.842528 140.300046 
L 587.947074 130.761233 
L 601.051619 142.238452 
L 614.156165 138.484345 
L 627.26071 131.310972 
L 640.365256 143.717141 
L 653.469801 141.217016 
L 666.574347 138.923907 
L 679.678892 142.340101 
L 692.783438 134.821435 
L 705.887983 137.727346 
L 718.992528 131.068097 
" clip-path="url(#p6505f7b93e)" style="fill: none; stroke: #3e4989; stroke-width: 1.5; stroke-linecap: square"/>
   </g>
   <g id="line2d_30">
    <path d="M 89.974347 190.802407 
L 103.078892 195.672162 
L 116.183438 194.014249 
L 129.287983 217.116628 
L 142.392528 212.442272 
L 155.497074 212.153082 
L 168.601619 201.502571 
L 181.706165 195.775203 
L 194.81071 214.404422 
L 207.915256 193.0276 
L 221.019801 217.09359 
L 234.124347 213.984438 
L 247.228892 194.458641 
L 260.333438 197.254031 
L 273.437983 215.447445 
L 286.542528 214.899244 
L 299.647074 197.53429 
L 312.751619 183.681586 
L 325.856165 186.666139 
L 338.96071 199.278681 
L 352.065256 200.825794 
L 365.169801 189.010806 
L 378.274347 210.179975 
L 391.378892 205.399933 
L 404.483438 191.50625 
L 417.587983 176.200726 
L 430.692528 191.373963 
L 443.797074 188.910702 
L 456.901619 194.58666 
L 470.006165 195.930757 
L 483.11071 188.399698 
L 496.215256 187.914421 
L 509.319801 194.168549 
L 522.424347 190.10533 
L 535.528892 185.724483 
L 548.633438 187.793454 
L 561.737983 193.652355 
L 574.842528 189.523585 
L 587.947074 172.304718 
L 601.051619 190.540672 
L 614.156165 183.137055 
L 627.26071 174.270311 
L 640.365256 193.489435 
L 653.469801 189.099207 
L 666.574347 187.328642 
L 679.678892 190.766126 
L 692.783438 179.059731 
L 705.887983 182.145571 
L 718.992528 174.250878 
" clip-path="url(#p6505f7b93e)" style="fill: none; stroke: #31688e; stroke-width: 1.5; stroke-linecap: square"/>
   </g>
   <g id="line2d_31">
    <path d="M 89.974347 238.653433 
L 103.078892 244.433638 
L 116.183438 244.710257 
L 129.287983 276.334125 
L 142.392528 268.091874 
L 155.497074 267.980049 
L 168.601619 252.653841 
L 181.706165 244.723317 
L 194.81071 272.778719 
L 207.915256 241.250282 
L 221.019801 276.143839 
L 234.124347 269.638478 
L 247.228892 244.222819 
L 260.333438 246.742721 
L 273.437983 272.890495 
L 286.542528 271.061922 
L 299.647074 247.674073 
L 312.751619 228.175448 
L 325.856165 235.158211 
L 338.96071 251.115202 
L 352.065256 252.446138 
L 365.169801 235.707125 
L 378.274347 265.689416 
L 391.378892 259.174744 
L 404.483438 238.445029 
L 417.587983 220.171881 
L 430.692528 240.933999 
L 443.797074 236.051719 
L 456.901619 244.661759 
L 470.006165 246.48963 
L 483.11071 236.839303 
L 496.215256 234.808554 
L 509.319801 244.138909 
L 522.424347 236.727955 
L 535.528892 231.277639 
L 548.633438 234.25939 
L 561.737983 243.697838 
L 574.842528 239.245843 
L 587.947074 214.187757 
L 601.051619 240.030406 
L 614.156165 227.997661 
L 627.26071 217.406561 
L 640.365256 243.387588 
L 653.469801 237.267495 
L 666.574347 236.434641 
L 679.678892 239.59018 
L 692.783438 223.770939 
L 705.887983 226.483458 
L 718.992528 218.63464 
" clip-path="url(#p6505f7b93e)" style="fill: none; stroke: #26828e; stroke-width: 1.5; stroke-linecap: square"/>
   </g>
   <g id="line2d_32">
    <path d="M 89.974347 190.046219 
L 103.078892 195.708389 
L 116.183438 193.246337 
L 129.287983 216.406945 
L 142.392528 213.320666 
L 155.497074 212.271332 
L 168.601619 201.133288 
L 181.706165 195.180678 
L 194.81071 214.137732 
L 207.915256 193.265502 
L 221.019801 217.932607 
L 234.124347 214.280445 
L 247.228892 194.126091 
L 260.333438 197.673101 
L 273.437983 215.792002 
L 286.542528 213.976318 
L 299.647074 198.303489 
L 312.751619 183.636597 
L 325.856165 185.900238 
L 338.96071 199.564358 
L 352.065256 201.363155 
L 365.169801 189.130166 
L 378.274347 210.917615 
L 391.378892 206.28837 
L 404.483438 192.891415 
L 417.587983 176.126071 
L 430.692528 191.400881 
L 443.797074 189.482789 
L 456.901619 194.696565 
L 470.006165 195.862498 
L 483.11071 187.91553 
L 496.215256 187.766957 
L 509.319801 194.369065 
L 522.424347 189.943335 
L 535.528892 185.077946 
L 548.633438 187.32086 
L 561.737983 193.019986 
L 574.842528 188.869628 
L 587.947074 171.474151 
L 601.051619 190.120993 
L 614.156165 183.089092 
L 627.26071 174.562607 
L 640.365256 193.940634 
L 653.469801 189.461399 
L 666.574347 187.718936 
L 679.678892 189.976769 
L 692.783438 178.472091 
L 705.887983 182.221425 
L 718.992528 173.46322 
" clip-path="url(#p6505f7b93e)" style="fill: none; stroke: #1f9e89; stroke-width: 1.5; stroke-linecap: square"/>
   </g>
   <g id="line2d_33">
    <path d="M 89.974347 140.475849 
L 103.078892 146.954614 
L 116.183438 142.155033 
L 129.287983 156.991683 
L 142.392528 160.338597 
L 155.497074 156.978396 
L 168.601619 149.84945 
L 181.706165 145.840055 
L 194.81071 155.014108 
L 207.915256 145.375605 
L 221.019801 161.1245 
L 234.124347 159.092186 
L 247.228892 144.10092 
L 260.333438 148.200522 
L 273.437983 159.105081 
L 286.542528 155.941611 
L 299.647074 149.428264 
L 312.751619 138.599697 
L 325.856165 136.72747 
L 338.96071 148.627408 
L 352.065256 150.891947 
L 365.169801 143.089999 
L 378.274347 156.763999 
L 391.378892 153.601872 
L 404.483438 147.514828 
L 417.587983 131.359464 
L 430.692528 141.595698 
L 443.797074 142.807739 
L 456.901619 145.692249 
L 470.006165 144.96326 
L 483.11071 139.064811 
L 496.215256 140.512426 
L 509.319801 144.284985 
L 522.424347 143.70685 
L 535.528892 137.835678 
L 548.633438 140.134767 
L 561.737983 142.861006 
L 574.842528 137.768586 
L 587.947074 127.953488 
L 601.051619 140.570104 
L 614.156165 138.136832 
L 627.26071 132.082287 
L 640.365256 143.81007 
L 653.469801 141.855652 
L 666.574347 139.574813 
L 679.678892 140.207247 
L 692.783438 133.036808 
L 705.887983 137.582148 
L 718.992528 127.785742 
" clip-path="url(#p6505f7b93e)" style="fill: none; stroke: #35b779; stroke-width: 1.5; stroke-linecap: square"/>
   </g>
   <g id="line2d_34">
    <path d="M 89.974347 90.892007 
L 103.078892 97.646913 
L 116.183438 91.572032 
L 129.287983 97.558519 
L 142.392528 108.201538 
L 155.497074 101.767713 
L 168.601619 98.783121 
L 181.706165 96.581635 
L 194.81071 95.397102 
L 207.915256 97.732912 
L 221.019801 105.945753 
L 234.124347 103.960642 
L 247.228892 94.491683 
L 260.333438 99.094435 
L 273.437983 102.844996 
L 286.542528 97.986959 
L 299.647074 100.84822 
L 312.751619 93.210938 
L 325.856165 87.142658 
L 338.96071 97.936942 
L 352.065256 100.746009 
L 365.169801 97.460709 
L 378.274347 102.638258 
L 391.378892 100.533776 
L 404.483438 101.319506 
L 417.587983 86.200219 
L 430.692528 91.627122 
L 443.797074 96.767077 
L 456.901619 97.039301 
L 470.006165 93.448706 
L 483.11071 89.936575 
L 496.215256 93.243889 
L 509.319801 94.25163 
L 522.424347 98.764946 
L 535.528892 90.374664 
L 548.633438 93.014375 
L 561.737983 93.002013 
L 574.842528 85.858683 
L 587.947074 84.665816 
L 601.051619 90.622177 
L 614.156165 92.974668 
L 627.26071 89.051588 
L 640.365256 93.163798 
L 653.469801 93.712388 
L 666.574347 90.989781 
L 679.678892 91.080244 
L 692.783438 86.947114 
L 705.887983 92.353046 
L 718.992528 82.524591 
" clip-path="url(#p6505f7b93e)" style="fill: none; stroke: #6ece58; stroke-width: 1.5; stroke-linecap: square"/>
   </g>
   <g id="line2d_35">
    <path d="M 89.974347 40.973176 
L 103.078892 47.826043 
L 116.183438 40.966685 
L 129.287983 38.543894 
L 142.392528 55.33434 
L 155.497074 45.90059 
L 168.601619 48.018241 
L 181.706165 47.502901 
L 194.81071 36.200084 
L 207.915256 50.695691 
L 221.019801 51.937466 
L 234.124347 48.754959 
L 247.228892 44.974539 
L 260.333438 50.985057 
L 273.437983 47.170503 
L 286.542528 39.866805 
L 299.647074 52.455555 
L 312.751619 48.570652 
L 325.856165 37.733565 
L 338.96071 47.381689 
L 352.065256 50.847674 
L 365.169801 52.142762 
L 378.274347 48.622409 
L 391.378892 47.102213 
L 404.483438 54.990372 
L 417.587983 41.566829 
L 430.692528 41.872667 
L 443.797074 51.494143 
L 456.901619 49.114349 
L 470.006165 41.341416 
L 483.11071 40.614491 
L 496.215256 46.117121 
L 509.319801 44.548508 
L 522.424347 54.396438 
L 535.528892 43.304388 
L 548.633438 46.165199 
L 561.737983 42.941381 
L 574.842528 34.414125 
L 587.947074 41.919152 
L 601.051619 40.271615 
L 614.156165 48.734055 
L 627.26071 45.548723 
L 640.365256 42.940096 
L 653.469801 44.477734 
L 666.574347 41.858008 
L 679.678892 41.658298 
L 692.783438 40.250626 
L 705.887983 46.914229 
L 718.992528 38.29167 
" clip-path="url(#p6505f7b93e)" style="fill: none; stroke: #b5de2b; stroke-width: 1.5; stroke-linecap: square"/>
   </g>
   <g id="patch_3">
    <path d="M 58.523438 288.430125 
L 58.523438 22.318125 
" style="fill: none"/>
   </g>
   <g id="patch_4">
    <path d="M 750.443438 288.430125 
L 750.443438 22.318125 
" style="fill: none"/>
   </g>
   <g id="patch_5">
    <path d="M 58.523438 288.430125 
L 750.443438 288.430125 
" style="fill: none"/>
   </g>
   <g id="patch_6">
    <path d="M 58.523438 22.318125 
L 750.443438 22.318125 
" style="fill: none"/>
   </g>
   <g id="text_15">
    <!-- train -->
    <g style="fill: #666666" transform="translate(390.518438 16.318125) scale(0.12 -0.12)">
     <defs>
      <path id="DejaVuSans-72" d="M 2631 2963 
Q 2534 3019 2420 3045 
Q 2306 3072 2169 3072 
Q 1681 3072 1420 2755 
Q 1159 2438 1159 1844 
L 1159 0 
L 581 0 
L 581 3500 
L 1159 3500 
L 1159 2956 
Q 1341 3275 1631 3429 
Q 1922 3584 2338 3584 
Q 2397 3584 2469 3576 
Q 2541 3569 2628 3553 
L 2631 2963 
z
" transform="scale(0.015625)"/>
      <path id="DejaVuSans-61" d="M 2194 1759 
Q 1497 1759 1228 1600 
Q 959 1441 959 1056 
Q 959 750 1161 570 
Q 1363 391 1709 391 
Q 2188 391 2477 730 
Q 2766 1069 2766 1631 
L 2766 1759 
L 2194 1759 
z
M 3341 1997 
L 3341 0 
L 2766 0 
L 2766 531 
Q 2569 213 2275 61 
Q 1981 -91 1556 -91 
Q 1019 -91 701 211 
Q 384 513 384 1019 
Q 384 1609 779 1909 
Q 1175 2209 1959 2209 
L 2766 2209 
L 2766 2266 
Q 2766 2663 2505 2880 
Q 2244 3097 1772 3097 
Q 1472 3097 1187 3025 
Q 903 2953 641 2809 
L 641 3341 
Q 956 3463 1253 3523 
Q 1550 3584 1831 3584 
Q 2591 3584 2966 3190 
Q 3341 2797 3341 1997 
z
" transform="scale(0.015625)"/>
      <path id="DejaVuSans-69" d="M 603 3500 
L 1178 3500 
L 1178 0 
L 603 0 
L 603 3500 
z
M 603 4863 
L 1178 4863 
L 1178 4134 
L 603 4134 
L 603 4863 
z
" transform="scale(0.015625)"/>
      <path id="DejaVuSans-6e" d="M 3513 2113 
L 3513 0 
L 2938 0 
L 2938 2094 
Q 2938 2591 2744 2837 
Q 2550 3084 2163 3084 
Q 1697 3084 1428 2787 
Q 1159 2491 1159 1978 
L 1159 0 
L 581 0 
L 581 3500 
L 1159 3500 
L 1159 2956 
Q 1366 3272 1645 3428 
Q 1925 3584 2291 3584 
Q 2894 3584 3203 3211 
Q 3513 2838 3513 2113 
z
" transform="scale(0.015625)"/>
     </defs>
     <use xlink:href="#DejaVuSans-74"/>
     <use xlink:href="#DejaVuSans-72" x="39.208984"/>
     <use xlink:href="#DejaVuSans-61" x="80.322266"/>
     <use xlink:href="#DejaVuSans-69" x="141.601562"/>
     <use xlink:href="#DejaVuSans-6e" x="169.384766"/>
    </g>
   </g>
  </g>
 </g>
 <defs>
  <clipPath id="p6505f7b93e">
   <rect x="58.523438" y="22.318125" width="691.92" height="266.112"/>
  </clipPath>
 </defs>
</svg>
