<?xml version="1.0" encoding="utf-8" standalone="no"?>
<!DOCTYPE svg PUBLIC "-//W3C//DTD SVG 1.1//EN"
  "http://www.w3.org/Graphics/SVG/1.1/DTD/svg11.dtd">
<svg xmlns:xlink="http://www.w3.org/1999/xlink" width="760.059626pt" height="312.30825pt" viewBox="0 0 760.059626 312.30825" xmlns="http://www.w3.org/2000/svg" version="1.1">
 <metadata>
  <rdf:RDF xmlns:dc="http://purl.org/dc/elements/1.1/" xmlns:cc="http://creativecommons.org/ns#" xmlns:rdf="http://www.w3.org/1999/02/22-rdf-syntax-ns#">
   <cc:Work>
    <dc:type rdf:resource="http://purl.org/dc/dcmitype/StillImage"/>
    <dc:date>2023-07-10T07:57:09.183295</dc:date>
    <dc:format>image/svg+xml</dc:format>
    <dc:creator>
     <cc:Agent>
      <dc:title>Matplotlib v3.7.1, https://matplotlib.org/</dc:title>
     </cc:Agent>
    </dc:creator>
   </cc:Work>
  </rdf:RDF>
 </metadata>
 <defs>
  <style type="text/css">*{stroke-linejoin: round; stroke-linecap: butt}</style>
 </defs>
 <g id="figure_1">
  <g id="patch_1">
   <path d="M 0 312.30825 
L 760.059626 312.30825 
L 760.059626 0 
L 0 0 
L 0 312.30825 
z
" style="fill: none"/>
  </g>
  <g id="axes_1">
   <g id="patch_2">
    <path d="M 58.523438 288.430125 
L 750.443438 288.430125 
L 750.443438 22.318125 
L 58.523438 22.318125 
L 58.523438 288.430125 
z
" style="fill: none"/>
   </g>
   <g id="matplotlib.axis_1">
    <g id="xtick_1">
     <g id="line2d_1">
      <path d="M 88.778495 288.430125 
L 88.778495 22.318125 
" clip-path="url(#p990a087dbe)" style="fill: none; stroke-dasharray: 1.85,0.8; stroke-dashoffset: 0; stroke: #666666; stroke-opacity: 0.4; stroke-width: 0.5"/>
     </g>
     <g id="line2d_2">
      <defs>
       <path id="mad76b1b815" d="M 0 0 
L 0 3.5 
" style="stroke: #000000; stroke-opacity: 0; stroke-width: 0.8"/>
      </defs>
      <g>
       <use xlink:href="#mad76b1b815" x="88.778495" y="288.430125" style="fill-opacity: 0; stroke: #000000; stroke-opacity: 0; stroke-width: 0.8"/>
      </g>
     </g>
     <g id="text_1">
      <!-- 0 -->
      <g style="fill: #666666" transform="translate(85.597245 303.028562) scale(0.1 -0.1)">
       <defs>
        <path id="DejaVuSans-30" d="M 2034 4250 
Q 1547 4250 1301 3770 
Q 1056 3291 1056 2328 
Q 1056 1369 1301 889 
Q 1547 409 2034 409 
Q 2525 409 2770 889 
Q 3016 1369 3016 2328 
Q 3016 3291 2770 3770 
Q 2525 4250 2034 4250 
z
M 2034 4750 
Q 2819 4750 3233 4129 
Q 3647 3509 3647 2328 
Q 3647 1150 3233 529 
Q 2819 -91 2034 -91 
Q 1250 -91 836 529 
Q 422 1150 422 2328 
Q 422 3509 836 4129 
Q 1250 4750 2034 4750 
z
" transform="scale(0.015625)"/>
       </defs>
       <use xlink:href="#DejaVuSans-30"/>
      </g>
     </g>
    </g>
    <g id="xtick_2">
     <g id="line2d_3">
      <path d="M 220.322221 288.430125 
L 220.322221 22.318125 
" clip-path="url(#p990a087dbe)" style="fill: none; stroke-dasharray: 1.85,0.8; stroke-dashoffset: 0; stroke: #666666; stroke-opacity: 0.4; stroke-width: 0.5"/>
     </g>
     <g id="line2d_4">
      <g>
       <use xlink:href="#mad76b1b815" x="220.322221" y="288.430125" style="fill-opacity: 0; stroke: #000000; stroke-opacity: 0; stroke-width: 0.8"/>
      </g>
     </g>
     <g id="text_2">
      <!-- 5 -->
      <g style="fill: #666666" transform="translate(217.140971 303.028562) scale(0.1 -0.1)">
       <defs>
        <path id="DejaVuSans-35" d="M 691 4666 
L 3169 4666 
L 3169 4134 
L 1269 4134 
L 1269 2991 
Q 1406 3038 1543 3061 
Q 1681 3084 1819 3084 
Q 2600 3084 3056 2656 
Q 3513 2228 3513 1497 
Q 3513 744 3044 326 
Q 2575 -91 1722 -91 
Q 1428 -91 1123 -41 
Q 819 9 494 109 
L 494 744 
Q 775 591 1075 516 
Q 1375 441 1709 441 
Q 2250 441 2565 725 
Q 2881 1009 2881 1497 
Q 2881 1984 2565 2268 
Q 2250 2553 1709 2553 
Q 1456 2553 1204 2497 
Q 953 2441 691 2322 
L 691 4666 
z
" transform="scale(0.015625)"/>
       </defs>
       <use xlink:href="#DejaVuSans-35"/>
      </g>
     </g>
    </g>
    <g id="xtick_3">
     <g id="line2d_5">
      <path d="M 351.865947 288.430125 
L 351.865947 22.318125 
" clip-path="url(#p990a087dbe)" style="fill: none; stroke-dasharray: 1.85,0.8; stroke-dashoffset: 0; stroke: #666666; stroke-opacity: 0.4; stroke-width: 0.5"/>
     </g>
     <g id="line2d_6">
      <g>
       <use xlink:href="#mad76b1b815" x="351.865947" y="288.430125" style="fill-opacity: 0; stroke: #000000; stroke-opacity: 0; stroke-width: 0.8"/>
      </g>
     </g>
     <g id="text_3">
      <!-- 10 -->
      <g style="fill: #666666" transform="translate(345.503447 303.028562) scale(0.1 -0.1)">
       <defs>
        <path id="DejaVuSans-31" d="M 794 531 
L 1825 531 
L 1825 4091 
L 703 3866 
L 703 4441 
L 1819 4666 
L 2450 4666 
L 2450 531 
L 3481 531 
L 3481 0 
L 794 0 
L 794 531 
z
" transform="scale(0.015625)"/>
       </defs>
       <use xlink:href="#DejaVuSans-31"/>
       <use xlink:href="#DejaVuSans-30" x="63.623047"/>
      </g>
     </g>
    </g>
    <g id="xtick_4">
     <g id="line2d_7">
      <path d="M 483.409673 288.430125 
L 483.409673 22.318125 
" clip-path="url(#p990a087dbe)" style="fill: none; stroke-dasharray: 1.85,0.8; stroke-dashoffset: 0; stroke: #666666; stroke-opacity: 0.4; stroke-width: 0.5"/>
     </g>
     <g id="line2d_8">
      <g>
       <use xlink:href="#mad76b1b815" x="483.409673" y="288.430125" style="fill-opacity: 0; stroke: #000000; stroke-opacity: 0; stroke-width: 0.8"/>
      </g>
     </g>
     <g id="text_4">
      <!-- 15 -->
      <g style="fill: #666666" transform="translate(477.047173 303.028562) scale(0.1 -0.1)">
       <use xlink:href="#DejaVuSans-31"/>
       <use xlink:href="#DejaVuSans-35" x="63.623047"/>
      </g>
     </g>
    </g>
    <g id="xtick_5">
     <g id="line2d_9">
      <path d="M 614.953399 288.430125 
L 614.953399 22.318125 
" clip-path="url(#p990a087dbe)" style="fill: none; stroke-dasharray: 1.85,0.8; stroke-dashoffset: 0; stroke: #666666; stroke-opacity: 0.4; stroke-width: 0.5"/>
     </g>
     <g id="line2d_10">
      <g>
       <use xlink:href="#mad76b1b815" x="614.953399" y="288.430125" style="fill-opacity: 0; stroke: #000000; stroke-opacity: 0; stroke-width: 0.8"/>
      </g>
     </g>
     <g id="text_5">
      <!-- 20 -->
      <g style="fill: #666666" transform="translate(608.590899 303.028562) scale(0.1 -0.1)">
       <defs>
        <path id="DejaVuSans-32" d="M 1228 531 
L 3431 531 
L 3431 0 
L 469 0 
L 469 531 
Q 828 903 1448 1529 
Q 2069 2156 2228 2338 
Q 2531 2678 2651 2914 
Q 2772 3150 2772 3378 
Q 2772 3750 2511 3984 
Q 2250 4219 1831 4219 
Q 1534 4219 1204 4116 
Q 875 4013 500 3803 
L 500 4441 
Q 881 4594 1212 4672 
Q 1544 4750 1819 4750 
Q 2544 4750 2975 4387 
Q 3406 4025 3406 3419 
Q 3406 3131 3298 2873 
Q 3191 2616 2906 2266 
Q 2828 2175 2409 1742 
Q 1991 1309 1228 531 
z
" transform="scale(0.015625)"/>
       </defs>
       <use xlink:href="#DejaVuSans-32"/>
       <use xlink:href="#DejaVuSans-30" x="63.623047"/>
      </g>
     </g>
    </g>
    <g id="xtick_6">
     <g id="line2d_11">
      <path d="M 746.497126 288.430125 
L 746.497126 22.318125 
" clip-path="url(#p990a087dbe)" style="fill: none; stroke-dasharray: 1.85,0.8; stroke-dashoffset: 0; stroke: #666666; stroke-opacity: 0.4; stroke-width: 0.5"/>
     </g>
     <g id="line2d_12">
      <g>
       <use xlink:href="#mad76b1b815" x="746.497126" y="288.430125" style="fill-opacity: 0; stroke: #000000; stroke-opacity: 0; stroke-width: 0.8"/>
      </g>
     </g>
     <g id="text_6">
      <!-- 25 -->
      <g style="fill: #666666" transform="translate(740.134626 303.028562) scale(0.1 -0.1)">
       <use xlink:href="#DejaVuSans-32"/>
       <use xlink:href="#DejaVuSans-35" x="63.623047"/>
      </g>
     </g>
    </g>
   </g>
   <g id="matplotlib.axis_2">
    <g id="ytick_1">
     <g id="line2d_13">
      <path d="M 58.523438 278.127027 
L 750.443438 278.127027 
" clip-path="url(#p990a087dbe)" style="fill: none; stroke-dasharray: 1.85,0.8; stroke-dashoffset: 0; stroke: #666666; stroke-opacity: 0.4; stroke-width: 0.5"/>
     </g>
     <g id="line2d_14">
      <defs>
       <path id="mcaa2790e70" d="M 0 0 
L -3.5 0 
" style="stroke: #000000; stroke-opacity: 0; stroke-width: 0.8"/>
      </defs>
      <g>
       <use xlink:href="#mcaa2790e70" x="58.523438" y="278.127027" style="fill-opacity: 0; stroke: #000000; stroke-opacity: 0; stroke-width: 0.8"/>
      </g>
     </g>
     <g id="text_7">
      <!-- −0.03 -->
      <g style="fill: #666666" transform="translate(20.878125 281.926245) scale(0.1 -0.1)">
       <defs>
        <path id="DejaVuSans-2212" d="M 678 2272 
L 4684 2272 
L 4684 1741 
L 678 1741 
L 678 2272 
z
" transform="scale(0.015625)"/>
        <path id="DejaVuSans-2e" d="M 684 794 
L 1344 794 
L 1344 0 
L 684 0 
L 684 794 
z
" transform="scale(0.015625)"/>
        <path id="DejaVuSans-33" d="M 2597 2516 
Q 3050 2419 3304 2112 
Q 3559 1806 3559 1356 
Q 3559 666 3084 287 
Q 2609 -91 1734 -91 
Q 1441 -91 1130 -33 
Q 819 25 488 141 
L 488 750 
Q 750 597 1062 519 
Q 1375 441 1716 441 
Q 2309 441 2620 675 
Q 2931 909 2931 1356 
Q 2931 1769 2642 2001 
Q 2353 2234 1838 2234 
L 1294 2234 
L 1294 2753 
L 1863 2753 
Q 2328 2753 2575 2939 
Q 2822 3125 2822 3475 
Q 2822 3834 2567 4026 
Q 2313 4219 1838 4219 
Q 1578 4219 1281 4162 
Q 984 4106 628 3988 
L 628 4550 
Q 988 4650 1302 4700 
Q 1616 4750 1894 4750 
Q 2613 4750 3031 4423 
Q 3450 4097 3450 3541 
Q 3450 3153 3228 2886 
Q 3006 2619 2597 2516 
z
" transform="scale(0.015625)"/>
       </defs>
       <use xlink:href="#DejaVuSans-2212"/>
       <use xlink:href="#DejaVuSans-30" x="83.789062"/>
       <use xlink:href="#DejaVuSans-2e" x="147.412109"/>
       <use xlink:href="#DejaVuSans-30" x="179.199219"/>
       <use xlink:href="#DejaVuSans-33" x="242.822266"/>
      </g>
     </g>
    </g>
    <g id="ytick_2">
     <g id="line2d_15">
      <path d="M 58.523438 239.824575 
L 750.443438 239.824575 
" clip-path="url(#p990a087dbe)" style="fill: none; stroke-dasharray: 1.85,0.8; stroke-dashoffset: 0; stroke: #666666; stroke-opacity: 0.4; stroke-width: 0.5"/>
     </g>
     <g id="line2d_16">
      <g>
       <use xlink:href="#mcaa2790e70" x="58.523438" y="239.824575" style="fill-opacity: 0; stroke: #000000; stroke-opacity: 0; stroke-width: 0.8"/>
      </g>
     </g>
     <g id="text_8">
      <!-- −0.02 -->
      <g style="fill: #666666" transform="translate(20.878125 243.623794) scale(0.1 -0.1)">
       <use xlink:href="#DejaVuSans-2212"/>
       <use xlink:href="#DejaVuSans-30" x="83.789062"/>
       <use xlink:href="#DejaVuSans-2e" x="147.412109"/>
       <use xlink:href="#DejaVuSans-30" x="179.199219"/>
       <use xlink:href="#DejaVuSans-32" x="242.822266"/>
      </g>
     </g>
    </g>
    <g id="ytick_3">
     <g id="line2d_17">
      <path d="M 58.523438 201.522124 
L 750.443438 201.522124 
" clip-path="url(#p990a087dbe)" style="fill: none; stroke-dasharray: 1.85,0.8; stroke-dashoffset: 0; stroke: #666666; stroke-opacity: 0.4; stroke-width: 0.5"/>
     </g>
     <g id="line2d_18">
      <g>
       <use xlink:href="#mcaa2790e70" x="58.523438" y="201.522124" style="fill-opacity: 0; stroke: #000000; stroke-opacity: 0; stroke-width: 0.8"/>
      </g>
     </g>
     <g id="text_9">
      <!-- −0.01 -->
      <g style="fill: #666666" transform="translate(20.878125 205.321343) scale(0.1 -0.1)">
       <use xlink:href="#DejaVuSans-2212"/>
       <use xlink:href="#DejaVuSans-30" x="83.789062"/>
       <use xlink:href="#DejaVuSans-2e" x="147.412109"/>
       <use xlink:href="#DejaVuSans-30" x="179.199219"/>
       <use xlink:href="#DejaVuSans-31" x="242.822266"/>
      </g>
     </g>
    </g>
    <g id="ytick_4">
     <g id="line2d_19">
      <path d="M 58.523438 163.219672 
L 750.443438 163.219672 
" clip-path="url(#p990a087dbe)" style="fill: none; stroke-dasharray: 1.85,0.8; stroke-dashoffset: 0; stroke: #666666; stroke-opacity: 0.4; stroke-width: 0.5"/>
     </g>
     <g id="line2d_20">
      <g>
       <use xlink:href="#mcaa2790e70" x="58.523438" y="163.219672" style="fill-opacity: 0; stroke: #000000; stroke-opacity: 0; stroke-width: 0.8"/>
      </g>
     </g>
     <g id="text_10">
      <!-- 0.00 -->
      <g style="fill: #666666" transform="translate(29.257813 167.018891) scale(0.1 -0.1)">
       <use xlink:href="#DejaVuSans-30"/>
       <use xlink:href="#DejaVuSans-2e" x="63.623047"/>
       <use xlink:href="#DejaVuSans-30" x="95.410156"/>
       <use xlink:href="#DejaVuSans-30" x="159.033203"/>
      </g>
     </g>
    </g>
    <g id="ytick_5">
     <g id="line2d_21">
      <path d="M 58.523438 124.917221 
L 750.443438 124.917221 
" clip-path="url(#p990a087dbe)" style="fill: none; stroke-dasharray: 1.85,0.8; stroke-dashoffset: 0; stroke: #666666; stroke-opacity: 0.4; stroke-width: 0.5"/>
     </g>
     <g id="line2d_22">
      <g>
       <use xlink:href="#mcaa2790e70" x="58.523438" y="124.917221" style="fill-opacity: 0; stroke: #000000; stroke-opacity: 0; stroke-width: 0.8"/>
      </g>
     </g>
     <g id="text_11">
      <!-- 0.01 -->
      <g style="fill: #666666" transform="translate(29.257813 128.71644) scale(0.1 -0.1)">
       <use xlink:href="#DejaVuSans-30"/>
       <use xlink:href="#DejaVuSans-2e" x="63.623047"/>
       <use xlink:href="#DejaVuSans-30" x="95.410156"/>
       <use xlink:href="#DejaVuSans-31" x="159.033203"/>
      </g>
     </g>
    </g>
    <g id="ytick_6">
     <g id="line2d_23">
      <path d="M 58.523438 86.61477 
L 750.443438 86.61477 
" clip-path="url(#p990a087dbe)" style="fill: none; stroke-dasharray: 1.85,0.8; stroke-dashoffset: 0; stroke: #666666; stroke-opacity: 0.4; stroke-width: 0.5"/>
     </g>
     <g id="line2d_24">
      <g>
       <use xlink:href="#mcaa2790e70" x="58.523438" y="86.61477" style="fill-opacity: 0; stroke: #000000; stroke-opacity: 0; stroke-width: 0.8"/>
      </g>
     </g>
     <g id="text_12">
      <!-- 0.02 -->
      <g style="fill: #666666" transform="translate(29.257813 90.413988) scale(0.1 -0.1)">
       <use xlink:href="#DejaVuSans-30"/>
       <use xlink:href="#DejaVuSans-2e" x="63.623047"/>
       <use xlink:href="#DejaVuSans-30" x="95.410156"/>
       <use xlink:href="#DejaVuSans-32" x="159.033203"/>
      </g>
     </g>
    </g>
    <g id="ytick_7">
     <g id="line2d_25">
      <path d="M 58.523438 48.312318 
L 750.443438 48.312318 
" clip-path="url(#p990a087dbe)" style="fill: none; stroke-dasharray: 1.85,0.8; stroke-dashoffset: 0; stroke: #666666; stroke-opacity: 0.4; stroke-width: 0.5"/>
     </g>
     <g id="line2d_26">
      <g>
       <use xlink:href="#mcaa2790e70" x="58.523438" y="48.312318" style="fill-opacity: 0; stroke: #000000; stroke-opacity: 0; stroke-width: 0.8"/>
      </g>
     </g>
     <g id="text_13">
      <!-- 0.03 -->
      <g style="fill: #666666" transform="translate(29.257813 52.111537) scale(0.1 -0.1)">
       <use xlink:href="#DejaVuSans-30"/>
       <use xlink:href="#DejaVuSans-2e" x="63.623047"/>
       <use xlink:href="#DejaVuSans-30" x="95.410156"/>
       <use xlink:href="#DejaVuSans-33" x="159.033203"/>
      </g>
     </g>
    </g>
    <g id="text_14">
     <!-- sumlogdet -->
     <g style="fill: #bdbdbd" transform="translate(14.798438 181.851469) rotate(-90) scale(0.1 -0.1)">
      <defs>
       <path id="DejaVuSans-73" d="M 2834 3397 
L 2834 2853 
Q 2591 2978 2328 3040 
Q 2066 3103 1784 3103 
Q 1356 3103 1142 2972 
Q 928 2841 928 2578 
Q 928 2378 1081 2264 
Q 1234 2150 1697 2047 
L 1894 2003 
Q 2506 1872 2764 1633 
Q 3022 1394 3022 966 
Q 3022 478 2636 193 
Q 2250 -91 1575 -91 
Q 1294 -91 989 -36 
Q 684 19 347 128 
L 347 722 
Q 666 556 975 473 
Q 1284 391 1588 391 
Q 1994 391 2212 530 
Q 2431 669 2431 922 
Q 2431 1156 2273 1281 
Q 2116 1406 1581 1522 
L 1381 1569 
Q 847 1681 609 1914 
Q 372 2147 372 2553 
Q 372 3047 722 3315 
Q 1072 3584 1716 3584 
Q 2034 3584 2315 3537 
Q 2597 3491 2834 3397 
z
" transform="scale(0.015625)"/>
       <path id="DejaVuSans-75" d="M 544 1381 
L 544 3500 
L 1119 3500 
L 1119 1403 
Q 1119 906 1312 657 
Q 1506 409 1894 409 
Q 2359 409 2629 706 
Q 2900 1003 2900 1516 
L 2900 3500 
L 3475 3500 
L 3475 0 
L 2900 0 
L 2900 538 
Q 2691 219 2414 64 
Q 2138 -91 1772 -91 
Q 1169 -91 856 284 
Q 544 659 544 1381 
z
M 1991 3584 
L 1991 3584 
z
" transform="scale(0.015625)"/>
       <path id="DejaVuSans-6d" d="M 3328 2828 
Q 3544 3216 3844 3400 
Q 4144 3584 4550 3584 
Q 5097 3584 5394 3201 
Q 5691 2819 5691 2113 
L 5691 0 
L 5113 0 
L 5113 2094 
Q 5113 2597 4934 2840 
Q 4756 3084 4391 3084 
Q 3944 3084 3684 2787 
Q 3425 2491 3425 1978 
L 3425 0 
L 2847 0 
L 2847 2094 
Q 2847 2600 2669 2842 
Q 2491 3084 2119 3084 
Q 1678 3084 1418 2786 
Q 1159 2488 1159 1978 
L 1159 0 
L 581 0 
L 581 3500 
L 1159 3500 
L 1159 2956 
Q 1356 3278 1631 3431 
Q 1906 3584 2284 3584 
Q 2666 3584 2933 3390 
Q 3200 3197 3328 2828 
z
" transform="scale(0.015625)"/>
       <path id="DejaVuSans-6c" d="M 603 4863 
L 1178 4863 
L 1178 0 
L 603 0 
L 603 4863 
z
" transform="scale(0.015625)"/>
       <path id="DejaVuSans-6f" d="M 1959 3097 
Q 1497 3097 1228 2736 
Q 959 2375 959 1747 
Q 959 1119 1226 758 
Q 1494 397 1959 397 
Q 2419 397 2687 759 
Q 2956 1122 2956 1747 
Q 2956 2369 2687 2733 
Q 2419 3097 1959 3097 
z
M 1959 3584 
Q 2709 3584 3137 3096 
Q 3566 2609 3566 1747 
Q 3566 888 3137 398 
Q 2709 -91 1959 -91 
Q 1206 -91 779 398 
Q 353 888 353 1747 
Q 353 2609 779 3096 
Q 1206 3584 1959 3584 
z
" transform="scale(0.015625)"/>
       <path id="DejaVuSans-67" d="M 2906 1791 
Q 2906 2416 2648 2759 
Q 2391 3103 1925 3103 
Q 1463 3103 1205 2759 
Q 947 2416 947 1791 
Q 947 1169 1205 825 
Q 1463 481 1925 481 
Q 2391 481 2648 825 
Q 2906 1169 2906 1791 
z
M 3481 434 
Q 3481 -459 3084 -895 
Q 2688 -1331 1869 -1331 
Q 1566 -1331 1297 -1286 
Q 1028 -1241 775 -1147 
L 775 -588 
Q 1028 -725 1275 -790 
Q 1522 -856 1778 -856 
Q 2344 -856 2625 -561 
Q 2906 -266 2906 331 
L 2906 616 
Q 2728 306 2450 153 
Q 2172 0 1784 0 
Q 1141 0 747 490 
Q 353 981 353 1791 
Q 353 2603 747 3093 
Q 1141 3584 1784 3584 
Q 2172 3584 2450 3431 
Q 2728 3278 2906 2969 
L 2906 3500 
L 3481 3500 
L 3481 434 
z
" transform="scale(0.015625)"/>
       <path id="DejaVuSans-64" d="M 2906 2969 
L 2906 4863 
L 3481 4863 
L 3481 0 
L 2906 0 
L 2906 525 
Q 2725 213 2448 61 
Q 2172 -91 1784 -91 
Q 1150 -91 751 415 
Q 353 922 353 1747 
Q 353 2572 751 3078 
Q 1150 3584 1784 3584 
Q 2172 3584 2448 3432 
Q 2725 3281 2906 2969 
z
M 947 1747 
Q 947 1113 1208 752 
Q 1469 391 1925 391 
Q 2381 391 2643 752 
Q 2906 1113 2906 1747 
Q 2906 2381 2643 2742 
Q 2381 3103 1925 3103 
Q 1469 3103 1208 2742 
Q 947 2381 947 1747 
z
" transform="scale(0.015625)"/>
       <path id="DejaVuSans-65" d="M 3597 1894 
L 3597 1613 
L 953 1613 
Q 991 1019 1311 708 
Q 1631 397 2203 397 
Q 2534 397 2845 478 
Q 3156 559 3463 722 
L 3463 178 
Q 3153 47 2828 -22 
Q 2503 -91 2169 -91 
Q 1331 -91 842 396 
Q 353 884 353 1716 
Q 353 2575 817 3079 
Q 1281 3584 2069 3584 
Q 2775 3584 3186 3129 
Q 3597 2675 3597 1894 
z
M 3022 2063 
Q 3016 2534 2758 2815 
Q 2500 3097 2075 3097 
Q 1594 3097 1305 2825 
Q 1016 2553 972 2059 
L 3022 2063 
z
" transform="scale(0.015625)"/>
       <path id="DejaVuSans-74" d="M 1172 4494 
L 1172 3500 
L 2356 3500 
L 2356 3053 
L 1172 3053 
L 1172 1153 
Q 1172 725 1289 603 
Q 1406 481 1766 481 
L 2356 481 
L 2356 0 
L 1766 0 
Q 1100 0 847 248 
Q 594 497 594 1153 
L 594 3053 
L 172 3053 
L 172 3500 
L 594 3500 
L 594 4494 
L 1172 4494 
z
" transform="scale(0.015625)"/>
      </defs>
      <use xlink:href="#DejaVuSans-73"/>
      <use xlink:href="#DejaVuSans-75" x="52.099609"/>
      <use xlink:href="#DejaVuSans-6d" x="115.478516"/>
      <use xlink:href="#DejaVuSans-6c" x="212.890625"/>
      <use xlink:href="#DejaVuSans-6f" x="240.673828"/>
      <use xlink:href="#DejaVuSans-67" x="301.855469"/>
      <use xlink:href="#DejaVuSans-64" x="365.332031"/>
      <use xlink:href="#DejaVuSans-65" x="428.808594"/>
      <use xlink:href="#DejaVuSans-74" x="490.332031"/>
     </g>
    </g>
   </g>
   <g id="line2d_27">
    <path d="M 88.778495 158.302442 
L 115.08724 170.055235 
L 141.395985 164.48751 
L 167.70473 171.098432 
L 194.013476 154.889207 
L 220.322221 164.496078 
L 246.630966 192.862501 
L 272.939711 162.859163 
L 299.248457 180.298159 
L 325.557202 144.757412 
L 351.865947 151.735339 
L 378.174692 166.348045 
L 404.483438 173.813502 
L 430.792183 153.810624 
L 457.100928 130.736754 
L 483.409673 157.118642 
L 509.718418 215.924249 
L 536.027164 152.862635 
L 562.335909 175.973873 
L 588.644654 121.771409 
L 614.953399 176.006542 
L 641.262145 170.311101 
L 667.57089 204.406844 
L 693.879635 176.34338 
" clip-path="url(#p990a087dbe)" style="fill: none; stroke: #ec407a; stroke-width: 1.5; stroke-linecap: square"/>
    <defs>
     <path id="m12f30bf58e" d="M 0 1.5 
C 0.397805 1.5 0.77937 1.341951 1.06066 1.06066 
C 1.341951 0.77937 1.5 0.397805 1.5 0 
C 1.5 -0.397805 1.341951 -0.77937 1.06066 -1.06066 
C 0.77937 -1.341951 0.397805 -1.5 0 -1.5 
C -0.397805 -1.5 -0.77937 -1.341951 -1.06066 -1.06066 
C -1.341951 -0.77937 -1.5 -0.397805 -1.5 0 
C -1.5 0.397805 -1.341951 0.77937 -1.06066 1.06066 
C -0.77937 1.341951 -0.397805 1.5 0 1.5 
z
" style="stroke: #ec407a"/>
    </defs>
    <g clip-path="url(#p990a087dbe)">
     <use xlink:href="#m12f30bf58e" x="88.778495" y="158.302442" style="fill: #ec407a; stroke: #ec407a"/>
     <use xlink:href="#m12f30bf58e" x="115.08724" y="170.055235" style="fill: #ec407a; stroke: #ec407a"/>
     <use xlink:href="#m12f30bf58e" x="141.395985" y="164.48751" style="fill: #ec407a; stroke: #ec407a"/>
     <use xlink:href="#m12f30bf58e" x="167.70473" y="171.098432" style="fill: #ec407a; stroke: #ec407a"/>
     <use xlink:href="#m12f30bf58e" x="194.013476" y="154.889207" style="fill: #ec407a; stroke: #ec407a"/>
     <use xlink:href="#m12f30bf58e" x="220.322221" y="164.496078" style="fill: #ec407a; stroke: #ec407a"/>
     <use xlink:href="#m12f30bf58e" x="246.630966" y="192.862501" style="fill: #ec407a; stroke: #ec407a"/>
     <use xlink:href="#m12f30bf58e" x="272.939711" y="162.859163" style="fill: #ec407a; stroke: #ec407a"/>
     <use xlink:href="#m12f30bf58e" x="299.248457" y="180.298159" style="fill: #ec407a; stroke: #ec407a"/>
     <use xlink:href="#m12f30bf58e" x="325.557202" y="144.757412" style="fill: #ec407a; stroke: #ec407a"/>
     <use xlink:href="#m12f30bf58e" x="351.865947" y="151.735339" style="fill: #ec407a; stroke: #ec407a"/>
     <use xlink:href="#m12f30bf58e" x="378.174692" y="166.348045" style="fill: #ec407a; stroke: #ec407a"/>
     <use xlink:href="#m12f30bf58e" x="404.483438" y="173.813502" style="fill: #ec407a; stroke: #ec407a"/>
     <use xlink:href="#m12f30bf58e" x="430.792183" y="153.810624" style="fill: #ec407a; stroke: #ec407a"/>
     <use xlink:href="#m12f30bf58e" x="457.100928" y="130.736754" style="fill: #ec407a; stroke: #ec407a"/>
     <use xlink:href="#m12f30bf58e" x="483.409673" y="157.118642" style="fill: #ec407a; stroke: #ec407a"/>
     <use xlink:href="#m12f30bf58e" x="509.718418" y="215.924249" style="fill: #ec407a; stroke: #ec407a"/>
     <use xlink:href="#m12f30bf58e" x="536.027164" y="152.862635" style="fill: #ec407a; stroke: #ec407a"/>
     <use xlink:href="#m12f30bf58e" x="562.335909" y="175.973873" style="fill: #ec407a; stroke: #ec407a"/>
     <use xlink:href="#m12f30bf58e" x="588.644654" y="121.771409" style="fill: #ec407a; stroke: #ec407a"/>
     <use xlink:href="#m12f30bf58e" x="614.953399" y="176.006542" style="fill: #ec407a; stroke: #ec407a"/>
     <use xlink:href="#m12f30bf58e" x="641.262145" y="170.311101" style="fill: #ec407a; stroke: #ec407a"/>
     <use xlink:href="#m12f30bf58e" x="667.57089" y="204.406844" style="fill: #ec407a; stroke: #ec407a"/>
     <use xlink:href="#m12f30bf58e" x="693.879635" y="176.34338" style="fill: #ec407a; stroke: #ec407a"/>
    </g>
   </g>
   <g id="line2d_28">
    <path d="M 88.778495 175.879789 
L 115.08724 163.219672 
L 141.395985 148.795386 
L 167.70473 178.504004 
L 194.013476 93.009603 
L 220.322221 163.219672 
L 246.630966 202.004975 
L 272.939711 181.342527 
L 299.248457 225.721899 
L 325.557202 78.501495 
L 351.865947 163.219672 
L 378.174692 238.531076 
L 404.483438 163.219672 
L 430.792183 104.601203 
L 457.100928 159.98331 
L 483.409673 148.866177 
L 509.718418 189.779319 
L 536.027164 197.145491 
L 562.335909 144.870378 
L 588.644654 133.60554 
L 614.953399 164.711224 
L 641.262145 152.469561 
L 667.57089 276.334125 
L 693.879635 148.944474 
" clip-path="url(#p990a087dbe)" style="fill: none; stroke: #ec407a; stroke-opacity: 0.6; stroke-width: 0.6; stroke-linecap: square"/>
    <defs>
     <path id="mf3917e30f3" d="M 0 1.5 
C 0.397805 1.5 0.77937 1.341951 1.06066 1.06066 
C 1.341951 0.77937 1.5 0.397805 1.5 0 
C 1.5 -0.397805 1.341951 -0.77937 1.06066 -1.06066 
C 0.77937 -1.341951 0.397805 -1.5 0 -1.5 
C -0.397805 -1.5 -0.77937 -1.341951 -1.06066 -1.06066 
C -1.341951 -0.77937 -1.5 -0.397805 -1.5 0 
C -1.5 0.397805 -1.341951 0.77937 -1.06066 1.06066 
C -0.77937 1.341951 -0.397805 1.5 0 1.5 
z
" style="stroke: #ec407a; stroke-opacity: 0.6"/>
    </defs>
    <g clip-path="url(#p990a087dbe)">
     <use xlink:href="#mf3917e30f3" x="88.778495" y="175.879789" style="fill: #ec407a; fill-opacity: 0.6; stroke: #ec407a; stroke-opacity: 0.6"/>
     <use xlink:href="#mf3917e30f3" x="115.08724" y="163.219672" style="fill: #ec407a; fill-opacity: 0.6; stroke: #ec407a; stroke-opacity: 0.6"/>
     <use xlink:href="#mf3917e30f3" x="141.395985" y="148.795386" style="fill: #ec407a; fill-opacity: 0.6; stroke: #ec407a; stroke-opacity: 0.6"/>
     <use xlink:href="#mf3917e30f3" x="167.70473" y="178.504004" style="fill: #ec407a; fill-opacity: 0.6; stroke: #ec407a; stroke-opacity: 0.6"/>
     <use xlink:href="#mf3917e30f3" x="194.013476" y="93.009603" style="fill: #ec407a; fill-opacity: 0.6; stroke: #ec407a; stroke-opacity: 0.6"/>
     <use xlink:href="#mf3917e30f3" x="220.322221" y="163.219672" style="fill: #ec407a; fill-opacity: 0.6; stroke: #ec407a; stroke-opacity: 0.6"/>
     <use xlink:href="#mf3917e30f3" x="246.630966" y="202.004975" style="fill: #ec407a; fill-opacity: 0.6; stroke: #ec407a; stroke-opacity: 0.6"/>
     <use xlink:href="#mf3917e30f3" x="272.939711" y="181.342527" style="fill: #ec407a; fill-opacity: 0.6; stroke: #ec407a; stroke-opacity: 0.6"/>
     <use xlink:href="#mf3917e30f3" x="299.248457" y="225.721899" style="fill: #ec407a; fill-opacity: 0.6; stroke: #ec407a; stroke-opacity: 0.6"/>
     <use xlink:href="#mf3917e30f3" x="325.557202" y="78.501495" style="fill: #ec407a; fill-opacity: 0.6; stroke: #ec407a; stroke-opacity: 0.6"/>
     <use xlink:href="#mf3917e30f3" x="351.865947" y="163.219672" style="fill: #ec407a; fill-opacity: 0.6; stroke: #ec407a; stroke-opacity: 0.6"/>
     <use xlink:href="#mf3917e30f3" x="378.174692" y="238.531076" style="fill: #ec407a; fill-opacity: 0.6; stroke: #ec407a; stroke-opacity: 0.6"/>
     <use xlink:href="#mf3917e30f3" x="404.483438" y="163.219672" style="fill: #ec407a; fill-opacity: 0.6; stroke: #ec407a; stroke-opacity: 0.6"/>
     <use xlink:href="#mf3917e30f3" x="430.792183" y="104.601203" style="fill: #ec407a; fill-opacity: 0.6; stroke: #ec407a; stroke-opacity: 0.6"/>
     <use xlink:href="#mf3917e30f3" x="457.100928" y="159.98331" style="fill: #ec407a; fill-opacity: 0.6; stroke: #ec407a; stroke-opacity: 0.6"/>
     <use xlink:href="#mf3917e30f3" x="483.409673" y="148.866177" style="fill: #ec407a; fill-opacity: 0.6; stroke: #ec407a; stroke-opacity: 0.6"/>
     <use xlink:href="#mf3917e30f3" x="509.718418" y="189.779319" style="fill: #ec407a; fill-opacity: 0.6; stroke: #ec407a; stroke-opacity: 0.6"/>
     <use xlink:href="#mf3917e30f3" x="536.027164" y="197.145491" style="fill: #ec407a; fill-opacity: 0.6; stroke: #ec407a; stroke-opacity: 0.6"/>
     <use xlink:href="#mf3917e30f3" x="562.335909" y="144.870378" style="fill: #ec407a; fill-opacity: 0.6; stroke: #ec407a; stroke-opacity: 0.6"/>
     <use xlink:href="#mf3917e30f3" x="588.644654" y="133.60554" style="fill: #ec407a; fill-opacity: 0.6; stroke: #ec407a; stroke-opacity: 0.6"/>
     <use xlink:href="#mf3917e30f3" x="614.953399" y="164.711224" style="fill: #ec407a; fill-opacity: 0.6; stroke: #ec407a; stroke-opacity: 0.6"/>
     <use xlink:href="#mf3917e30f3" x="641.262145" y="152.469561" style="fill: #ec407a; fill-opacity: 0.6; stroke: #ec407a; stroke-opacity: 0.6"/>
     <use xlink:href="#mf3917e30f3" x="667.57089" y="276.334125" style="fill: #ec407a; fill-opacity: 0.6; stroke: #ec407a; stroke-opacity: 0.6"/>
     <use xlink:href="#mf3917e30f3" x="693.879635" y="148.944474" style="fill: #ec407a; fill-opacity: 0.6; stroke: #ec407a; stroke-opacity: 0.6"/>
    </g>
   </g>
   <g id="line2d_29">
    <path d="M 88.778495 163.219672 
L 115.08724 246.39669 
L 141.395985 184.694693 
L 167.70473 163.844919 
L 194.013476 197.80587 
L 220.322221 169.961942 
L 246.630966 220.981567 
L 272.939711 141.50595 
L 299.248457 148.776482 
L 325.557202 163.219672 
L 351.865947 127.732734 
L 378.174692 88.786568 
L 404.483438 199.821955 
L 430.792183 180.073682 
L 457.100928 34.414125 
L 483.409673 163.219672 
L 509.718418 259.018909 
L 536.027164 189.986496 
L 562.335909 232.899133 
L 588.644654 81.181049 
L 614.953399 191.704906 
L 641.262145 182.389977 
L 667.57089 163.219672 
L 693.879635 182.574404 
" clip-path="url(#p990a087dbe)" style="fill: none; stroke: #ec407a; stroke-opacity: 0.6; stroke-width: 0.6; stroke-linecap: square"/>
    <g clip-path="url(#p990a087dbe)">
     <use xlink:href="#mf3917e30f3" x="88.778495" y="163.219672" style="fill: #ec407a; fill-opacity: 0.6; stroke: #ec407a; stroke-opacity: 0.6"/>
     <use xlink:href="#mf3917e30f3" x="115.08724" y="246.39669" style="fill: #ec407a; fill-opacity: 0.6; stroke: #ec407a; stroke-opacity: 0.6"/>
     <use xlink:href="#mf3917e30f3" x="141.395985" y="184.694693" style="fill: #ec407a; fill-opacity: 0.6; stroke: #ec407a; stroke-opacity: 0.6"/>
     <use xlink:href="#mf3917e30f3" x="167.70473" y="163.844919" style="fill: #ec407a; fill-opacity: 0.6; stroke: #ec407a; stroke-opacity: 0.6"/>
     <use xlink:href="#mf3917e30f3" x="194.013476" y="197.80587" style="fill: #ec407a; fill-opacity: 0.6; stroke: #ec407a; stroke-opacity: 0.6"/>
     <use xlink:href="#mf3917e30f3" x="220.322221" y="169.961942" style="fill: #ec407a; fill-opacity: 0.6; stroke: #ec407a; stroke-opacity: 0.6"/>
     <use xlink:href="#mf3917e30f3" x="246.630966" y="220.981567" style="fill: #ec407a; fill-opacity: 0.6; stroke: #ec407a; stroke-opacity: 0.6"/>
     <use xlink:href="#mf3917e30f3" x="272.939711" y="141.50595" style="fill: #ec407a; fill-opacity: 0.6; stroke: #ec407a; stroke-opacity: 0.6"/>
     <use xlink:href="#mf3917e30f3" x="299.248457" y="148.776482" style="fill: #ec407a; fill-opacity: 0.6; stroke: #ec407a; stroke-opacity: 0.6"/>
     <use xlink:href="#mf3917e30f3" x="325.557202" y="163.219672" style="fill: #ec407a; fill-opacity: 0.6; stroke: #ec407a; stroke-opacity: 0.6"/>
     <use xlink:href="#mf3917e30f3" x="351.865947" y="127.732734" style="fill: #ec407a; fill-opacity: 0.6; stroke: #ec407a; stroke-opacity: 0.6"/>
     <use xlink:href="#mf3917e30f3" x="378.174692" y="88.786568" style="fill: #ec407a; fill-opacity: 0.6; stroke: #ec407a; stroke-opacity: 0.6"/>
     <use xlink:href="#mf3917e30f3" x="404.483438" y="199.821955" style="fill: #ec407a; fill-opacity: 0.6; stroke: #ec407a; stroke-opacity: 0.6"/>
     <use xlink:href="#mf3917e30f3" x="430.792183" y="180.073682" style="fill: #ec407a; fill-opacity: 0.6; stroke: #ec407a; stroke-opacity: 0.6"/>
     <use xlink:href="#mf3917e30f3" x="457.100928" y="34.414125" style="fill: #ec407a; fill-opacity: 0.6; stroke: #ec407a; stroke-opacity: 0.6"/>
     <use xlink:href="#mf3917e30f3" x="483.409673" y="163.219672" style="fill: #ec407a; fill-opacity: 0.6; stroke: #ec407a; stroke-opacity: 0.6"/>
     <use xlink:href="#mf3917e30f3" x="509.718418" y="259.018909" style="fill: #ec407a; fill-opacity: 0.6; stroke: #ec407a; stroke-opacity: 0.6"/>
     <use xlink:href="#mf3917e30f3" x="536.027164" y="189.986496" style="fill: #ec407a; fill-opacity: 0.6; stroke: #ec407a; stroke-opacity: 0.6"/>
     <use xlink:href="#mf3917e30f3" x="562.335909" y="232.899133" style="fill: #ec407a; fill-opacity: 0.6; stroke: #ec407a; stroke-opacity: 0.6"/>
     <use xlink:href="#mf3917e30f3" x="588.644654" y="81.181049" style="fill: #ec407a; fill-opacity: 0.6; stroke: #ec407a; stroke-opacity: 0.6"/>
     <use xlink:href="#mf3917e30f3" x="614.953399" y="191.704906" style="fill: #ec407a; fill-opacity: 0.6; stroke: #ec407a; stroke-opacity: 0.6"/>
     <use xlink:href="#mf3917e30f3" x="641.262145" y="182.389977" style="fill: #ec407a; fill-opacity: 0.6; stroke: #ec407a; stroke-opacity: 0.6"/>
     <use xlink:href="#mf3917e30f3" x="667.57089" y="163.219672" style="fill: #ec407a; fill-opacity: 0.6; stroke: #ec407a; stroke-opacity: 0.6"/>
     <use xlink:href="#mf3917e30f3" x="693.879635" y="182.574404" style="fill: #ec407a; fill-opacity: 0.6; stroke: #ec407a; stroke-opacity: 0.6"/>
    </g>
   </g>
   <g id="line2d_30">
    <path d="M 88.778495 133.979979 
L 115.08724 102.188863 
L 141.395985 161.240288 
L 167.70473 166.04128 
L 194.013476 163.219672 
L 220.322221 163.219672 
L 246.630966 175.163145 
L 272.939711 162.397568 
L 299.248457 183.474581 
L 325.557202 163.219672 
L 351.865947 159.791096 
L 378.174692 163.219672 
L 404.483438 168.992709 
L 430.792183 181.254426 
L 457.100928 163.219672 
L 483.409673 159.192917 
L 509.718418 251.679096 
L 536.027164 52.34941 
L 562.335909 161.265784 
L 588.644654 109.079374 
L 614.953399 194.337249 
L 641.262145 171.333502 
L 667.57089 214.853905 
L 693.879635 210.63497 
" clip-path="url(#p990a087dbe)" style="fill: none; stroke: #ec407a; stroke-opacity: 0.6; stroke-width: 0.6; stroke-linecap: square"/>
    <g clip-path="url(#p990a087dbe)">
     <use xlink:href="#mf3917e30f3" x="88.778495" y="133.979979" style="fill: #ec407a; fill-opacity: 0.6; stroke: #ec407a; stroke-opacity: 0.6"/>
     <use xlink:href="#mf3917e30f3" x="115.08724" y="102.188863" style="fill: #ec407a; fill-opacity: 0.6; stroke: #ec407a; stroke-opacity: 0.6"/>
     <use xlink:href="#mf3917e30f3" x="141.395985" y="161.240288" style="fill: #ec407a; fill-opacity: 0.6; stroke: #ec407a; stroke-opacity: 0.6"/>
     <use xlink:href="#mf3917e30f3" x="167.70473" y="166.04128" style="fill: #ec407a; fill-opacity: 0.6; stroke: #ec407a; stroke-opacity: 0.6"/>
     <use xlink:href="#mf3917e30f3" x="194.013476" y="163.219672" style="fill: #ec407a; fill-opacity: 0.6; stroke: #ec407a; stroke-opacity: 0.6"/>
     <use xlink:href="#mf3917e30f3" x="220.322221" y="163.219672" style="fill: #ec407a; fill-opacity: 0.6; stroke: #ec407a; stroke-opacity: 0.6"/>
     <use xlink:href="#mf3917e30f3" x="246.630966" y="175.163145" style="fill: #ec407a; fill-opacity: 0.6; stroke: #ec407a; stroke-opacity: 0.6"/>
     <use xlink:href="#mf3917e30f3" x="272.939711" y="162.397568" style="fill: #ec407a; fill-opacity: 0.6; stroke: #ec407a; stroke-opacity: 0.6"/>
     <use xlink:href="#mf3917e30f3" x="299.248457" y="183.474581" style="fill: #ec407a; fill-opacity: 0.6; stroke: #ec407a; stroke-opacity: 0.6"/>
     <use xlink:href="#mf3917e30f3" x="325.557202" y="163.219672" style="fill: #ec407a; fill-opacity: 0.6; stroke: #ec407a; stroke-opacity: 0.6"/>
     <use xlink:href="#mf3917e30f3" x="351.865947" y="159.791096" style="fill: #ec407a; fill-opacity: 0.6; stroke: #ec407a; stroke-opacity: 0.6"/>
     <use xlink:href="#mf3917e30f3" x="378.174692" y="163.219672" style="fill: #ec407a; fill-opacity: 0.6; stroke: #ec407a; stroke-opacity: 0.6"/>
     <use xlink:href="#mf3917e30f3" x="404.483438" y="168.992709" style="fill: #ec407a; fill-opacity: 0.6; stroke: #ec407a; stroke-opacity: 0.6"/>
     <use xlink:href="#mf3917e30f3" x="430.792183" y="181.254426" style="fill: #ec407a; fill-opacity: 0.6; stroke: #ec407a; stroke-opacity: 0.6"/>
     <use xlink:href="#mf3917e30f3" x="457.100928" y="163.219672" style="fill: #ec407a; fill-opacity: 0.6; stroke: #ec407a; stroke-opacity: 0.6"/>
     <use xlink:href="#mf3917e30f3" x="483.409673" y="159.192917" style="fill: #ec407a; fill-opacity: 0.6; stroke: #ec407a; stroke-opacity: 0.6"/>
     <use xlink:href="#mf3917e30f3" x="509.718418" y="251.679096" style="fill: #ec407a; fill-opacity: 0.6; stroke: #ec407a; stroke-opacity: 0.6"/>
     <use xlink:href="#mf3917e30f3" x="536.027164" y="52.34941" style="fill: #ec407a; fill-opacity: 0.6; stroke: #ec407a; stroke-opacity: 0.6"/>
     <use xlink:href="#mf3917e30f3" x="562.335909" y="161.265784" style="fill: #ec407a; fill-opacity: 0.6; stroke: #ec407a; stroke-opacity: 0.6"/>
     <use xlink:href="#mf3917e30f3" x="588.644654" y="109.079374" style="fill: #ec407a; fill-opacity: 0.6; stroke: #ec407a; stroke-opacity: 0.6"/>
     <use xlink:href="#mf3917e30f3" x="614.953399" y="194.337249" style="fill: #ec407a; fill-opacity: 0.6; stroke: #ec407a; stroke-opacity: 0.6"/>
     <use xlink:href="#mf3917e30f3" x="641.262145" y="171.333502" style="fill: #ec407a; fill-opacity: 0.6; stroke: #ec407a; stroke-opacity: 0.6"/>
     <use xlink:href="#mf3917e30f3" x="667.57089" y="214.853905" style="fill: #ec407a; fill-opacity: 0.6; stroke: #ec407a; stroke-opacity: 0.6"/>
     <use xlink:href="#mf3917e30f3" x="693.879635" y="210.63497" style="fill: #ec407a; fill-opacity: 0.6; stroke: #ec407a; stroke-opacity: 0.6"/>
    </g>
   </g>
   <g id="line2d_31">
    <path d="M 88.778495 160.130326 
L 115.08724 168.415713 
L 141.395985 163.219672 
L 167.70473 176.003523 
L 194.013476 165.521681 
L 220.322221 161.583025 
L 246.630966 173.300316 
L 272.939711 166.190607 
L 299.248457 163.219672 
L 325.557202 174.088807 
L 351.865947 156.197853 
L 378.174692 174.854863 
L 404.483438 163.219672 
L 430.792183 149.313185 
L 457.100928 165.329907 
L 483.409673 157.195802 
L 509.718418 163.219672 
L 536.027164 171.969142 
L 562.335909 164.860196 
L 588.644654 163.219672 
L 614.953399 153.272791 
L 641.262145 175.051363 
L 667.57089 163.219672 
L 693.879635 163.219672 
" clip-path="url(#p990a087dbe)" style="fill: none; stroke: #ec407a; stroke-opacity: 0.6; stroke-width: 0.6; stroke-linecap: square"/>
    <g clip-path="url(#p990a087dbe)">
     <use xlink:href="#mf3917e30f3" x="88.778495" y="160.130326" style="fill: #ec407a; fill-opacity: 0.6; stroke: #ec407a; stroke-opacity: 0.6"/>
     <use xlink:href="#mf3917e30f3" x="115.08724" y="168.415713" style="fill: #ec407a; fill-opacity: 0.6; stroke: #ec407a; stroke-opacity: 0.6"/>
     <use xlink:href="#mf3917e30f3" x="141.395985" y="163.219672" style="fill: #ec407a; fill-opacity: 0.6; stroke: #ec407a; stroke-opacity: 0.6"/>
     <use xlink:href="#mf3917e30f3" x="167.70473" y="176.003523" style="fill: #ec407a; fill-opacity: 0.6; stroke: #ec407a; stroke-opacity: 0.6"/>
     <use xlink:href="#mf3917e30f3" x="194.013476" y="165.521681" style="fill: #ec407a; fill-opacity: 0.6; stroke: #ec407a; stroke-opacity: 0.6"/>
     <use xlink:href="#mf3917e30f3" x="220.322221" y="161.583025" style="fill: #ec407a; fill-opacity: 0.6; stroke: #ec407a; stroke-opacity: 0.6"/>
     <use xlink:href="#mf3917e30f3" x="246.630966" y="173.300316" style="fill: #ec407a; fill-opacity: 0.6; stroke: #ec407a; stroke-opacity: 0.6"/>
     <use xlink:href="#mf3917e30f3" x="272.939711" y="166.190607" style="fill: #ec407a; fill-opacity: 0.6; stroke: #ec407a; stroke-opacity: 0.6"/>
     <use xlink:href="#mf3917e30f3" x="299.248457" y="163.219672" style="fill: #ec407a; fill-opacity: 0.6; stroke: #ec407a; stroke-opacity: 0.6"/>
     <use xlink:href="#mf3917e30f3" x="325.557202" y="174.088807" style="fill: #ec407a; fill-opacity: 0.6; stroke: #ec407a; stroke-opacity: 0.6"/>
     <use xlink:href="#mf3917e30f3" x="351.865947" y="156.197853" style="fill: #ec407a; fill-opacity: 0.6; stroke: #ec407a; stroke-opacity: 0.6"/>
     <use xlink:href="#mf3917e30f3" x="378.174692" y="174.854863" style="fill: #ec407a; fill-opacity: 0.6; stroke: #ec407a; stroke-opacity: 0.6"/>
     <use xlink:href="#mf3917e30f3" x="404.483438" y="163.219672" style="fill: #ec407a; fill-opacity: 0.6; stroke: #ec407a; stroke-opacity: 0.6"/>
     <use xlink:href="#mf3917e30f3" x="430.792183" y="149.313185" style="fill: #ec407a; fill-opacity: 0.6; stroke: #ec407a; stroke-opacity: 0.6"/>
     <use xlink:href="#mf3917e30f3" x="457.100928" y="165.329907" style="fill: #ec407a; fill-opacity: 0.6; stroke: #ec407a; stroke-opacity: 0.6"/>
     <use xlink:href="#mf3917e30f3" x="483.409673" y="157.195802" style="fill: #ec407a; fill-opacity: 0.6; stroke: #ec407a; stroke-opacity: 0.6"/>
     <use xlink:href="#mf3917e30f3" x="509.718418" y="163.219672" style="fill: #ec407a; fill-opacity: 0.6; stroke: #ec407a; stroke-opacity: 0.6"/>
     <use xlink:href="#mf3917e30f3" x="536.027164" y="171.969142" style="fill: #ec407a; fill-opacity: 0.6; stroke: #ec407a; stroke-opacity: 0.6"/>
     <use xlink:href="#mf3917e30f3" x="562.335909" y="164.860196" style="fill: #ec407a; fill-opacity: 0.6; stroke: #ec407a; stroke-opacity: 0.6"/>
     <use xlink:href="#mf3917e30f3" x="588.644654" y="163.219672" style="fill: #ec407a; fill-opacity: 0.6; stroke: #ec407a; stroke-opacity: 0.6"/>
     <use xlink:href="#mf3917e30f3" x="614.953399" y="153.272791" style="fill: #ec407a; fill-opacity: 0.6; stroke: #ec407a; stroke-opacity: 0.6"/>
     <use xlink:href="#mf3917e30f3" x="641.262145" y="175.051363" style="fill: #ec407a; fill-opacity: 0.6; stroke: #ec407a; stroke-opacity: 0.6"/>
     <use xlink:href="#mf3917e30f3" x="667.57089" y="163.219672" style="fill: #ec407a; fill-opacity: 0.6; stroke: #ec407a; stroke-opacity: 0.6"/>
     <use xlink:href="#mf3917e30f3" x="693.879635" y="163.219672" style="fill: #ec407a; fill-opacity: 0.6; stroke: #ec407a; stroke-opacity: 0.6"/>
    </g>
   </g>
   <g id="patch_3">
    <path d="M 58.523438 288.430125 
L 58.523438 22.318125 
" style="fill: none"/>
   </g>
   <g id="patch_4">
    <path d="M 750.443438 288.430125 
L 750.443438 22.318125 
" style="fill: none"/>
   </g>
   <g id="patch_5">
    <path d="M 58.523438 288.430125 
L 750.443438 288.430125 
" style="fill: none"/>
   </g>
   <g id="patch_6">
    <path d="M 58.523438 22.318125 
L 750.443438 22.318125 
" style="fill: none"/>
   </g>
   <g id="text_15">
    <!-- Evaluate -->
    <g style="fill: #666666" transform="translate(378.27375 16.318125) scale(0.12 -0.12)">
     <defs>
      <path id="DejaVuSans-45" d="M 628 4666 
L 3578 4666 
L 3578 4134 
L 1259 4134 
L 1259 2753 
L 3481 2753 
L 3481 2222 
L 1259 2222 
L 1259 531 
L 3634 531 
L 3634 0 
L 628 0 
L 628 4666 
z
" transform="scale(0.015625)"/>
      <path id="DejaVuSans-76" d="M 191 3500 
L 800 3500 
L 1894 563 
L 2988 3500 
L 3597 3500 
L 2284 0 
L 1503 0 
L 191 3500 
z
" transform="scale(0.015625)"/>
      <path id="DejaVuSans-61" d="M 2194 1759 
Q 1497 1759 1228 1600 
Q 959 1441 959 1056 
Q 959 750 1161 570 
Q 1363 391 1709 391 
Q 2188 391 2477 730 
Q 2766 1069 2766 1631 
L 2766 1759 
L 2194 1759 
z
M 3341 1997 
L 3341 0 
L 2766 0 
L 2766 531 
Q 2569 213 2275 61 
Q 1981 -91 1556 -91 
Q 1019 -91 701 211 
Q 384 513 384 1019 
Q 384 1609 779 1909 
Q 1175 2209 1959 2209 
L 2766 2209 
L 2766 2266 
Q 2766 2663 2505 2880 
Q 2244 3097 1772 3097 
Q 1472 3097 1187 3025 
Q 903 2953 641 2809 
L 641 3341 
Q 956 3463 1253 3523 
Q 1550 3584 1831 3584 
Q 2591 3584 2966 3190 
Q 3341 2797 3341 1997 
z
" transform="scale(0.015625)"/>
     </defs>
     <use xlink:href="#DejaVuSans-45"/>
     <use xlink:href="#DejaVuSans-76" x="63.183594"/>
     <use xlink:href="#DejaVuSans-61" x="122.363281"/>
     <use xlink:href="#DejaVuSans-6c" x="183.642578"/>
     <use xlink:href="#DejaVuSans-75" x="211.425781"/>
     <use xlink:href="#DejaVuSans-61" x="274.804688"/>
     <use xlink:href="#DejaVuSans-74" x="336.083984"/>
     <use xlink:href="#DejaVuSans-65" x="375.292969"/>
    </g>
   </g>
  </g>
 </g>
 <defs>
  <clipPath id="p990a087dbe">
   <rect x="58.523438" y="22.318125" width="691.92" height="266.112"/>
  </clipPath>
 </defs>
</svg>
