<?xml version="1.0" encoding="utf-8" standalone="no"?>
<!DOCTYPE svg PUBLIC "-//W3C//DTD SVG 1.1//EN"
  "http://www.w3.org/Graphics/SVG/1.1/DTD/svg11.dtd">
<svg xmlns:xlink="http://www.w3.org/1999/xlink" width="766.422126pt" height="312.30825pt" viewBox="0 0 766.422126 312.30825" xmlns="http://www.w3.org/2000/svg" version="1.1">
 <metadata>
  <rdf:RDF xmlns:dc="http://purl.org/dc/elements/1.1/" xmlns:cc="http://creativecommons.org/ns#" xmlns:rdf="http://www.w3.org/1999/02/22-rdf-syntax-ns#">
   <cc:Work>
    <dc:type rdf:resource="http://purl.org/dc/dcmitype/StillImage"/>
    <dc:date>2023-07-10T07:56:34.967484</dc:date>
    <dc:format>image/svg+xml</dc:format>
    <dc:creator>
     <cc:Agent>
      <dc:title>Matplotlib v3.7.1, https://matplotlib.org/</dc:title>
     </cc:Agent>
    </dc:creator>
   </cc:Work>
  </rdf:RDF>
 </metadata>
 <defs>
  <style type="text/css">*{stroke-linejoin: round; stroke-linecap: butt}</style>
 </defs>
 <g id="figure_1">
  <g id="patch_1">
   <path d="M 0 312.30825 
L 766.422126 312.30825 
L 766.422126 0 
L 0 0 
L 0 312.30825 
z
" style="fill: none"/>
  </g>
  <g id="axes_1">
   <g id="patch_2">
    <path d="M 64.885938 288.430125 
L 756.805938 288.430125 
L 756.805938 22.318125 
L 64.885938 22.318125 
L 64.885938 288.430125 
z
" style="fill: none"/>
   </g>
   <g id="matplotlib.axis_1">
    <g id="xtick_1">
     <g id="line2d_1">
      <path d="M 95.140995 288.430125 
L 95.140995 22.318125 
" clip-path="url(#p9e04bf3379)" style="fill: none; stroke-dasharray: 1.85,0.8; stroke-dashoffset: 0; stroke: #666666; stroke-opacity: 0.4; stroke-width: 0.5"/>
     </g>
     <g id="line2d_2">
      <defs>
       <path id="mf5edc103d4" d="M 0 0 
L 0 3.5 
" style="stroke: #000000; stroke-opacity: 0; stroke-width: 0.8"/>
      </defs>
      <g>
       <use xlink:href="#mf5edc103d4" x="95.140995" y="288.430125" style="fill-opacity: 0; stroke: #000000; stroke-opacity: 0; stroke-width: 0.8"/>
      </g>
     </g>
     <g id="text_1">
      <!-- 0 -->
      <g style="fill: #666666" transform="translate(91.959745 303.028562) scale(0.1 -0.1)">
       <defs>
        <path id="DejaVuSans-30" d="M 2034 4250 
Q 1547 4250 1301 3770 
Q 1056 3291 1056 2328 
Q 1056 1369 1301 889 
Q 1547 409 2034 409 
Q 2525 409 2770 889 
Q 3016 1369 3016 2328 
Q 3016 3291 2770 3770 
Q 2525 4250 2034 4250 
z
M 2034 4750 
Q 2819 4750 3233 4129 
Q 3647 3509 3647 2328 
Q 3647 1150 3233 529 
Q 2819 -91 2034 -91 
Q 1250 -91 836 529 
Q 422 1150 422 2328 
Q 422 3509 836 4129 
Q 1250 4750 2034 4750 
z
" transform="scale(0.015625)"/>
       </defs>
       <use xlink:href="#DejaVuSans-30"/>
      </g>
     </g>
    </g>
    <g id="xtick_2">
     <g id="line2d_3">
      <path d="M 226.684721 288.430125 
L 226.684721 22.318125 
" clip-path="url(#p9e04bf3379)" style="fill: none; stroke-dasharray: 1.85,0.8; stroke-dashoffset: 0; stroke: #666666; stroke-opacity: 0.4; stroke-width: 0.5"/>
     </g>
     <g id="line2d_4">
      <g>
       <use xlink:href="#mf5edc103d4" x="226.684721" y="288.430125" style="fill-opacity: 0; stroke: #000000; stroke-opacity: 0; stroke-width: 0.8"/>
      </g>
     </g>
     <g id="text_2">
      <!-- 5 -->
      <g style="fill: #666666" transform="translate(223.503471 303.028562) scale(0.1 -0.1)">
       <defs>
        <path id="DejaVuSans-35" d="M 691 4666 
L 3169 4666 
L 3169 4134 
L 1269 4134 
L 1269 2991 
Q 1406 3038 1543 3061 
Q 1681 3084 1819 3084 
Q 2600 3084 3056 2656 
Q 3513 2228 3513 1497 
Q 3513 744 3044 326 
Q 2575 -91 1722 -91 
Q 1428 -91 1123 -41 
Q 819 9 494 109 
L 494 744 
Q 775 591 1075 516 
Q 1375 441 1709 441 
Q 2250 441 2565 725 
Q 2881 1009 2881 1497 
Q 2881 1984 2565 2268 
Q 2250 2553 1709 2553 
Q 1456 2553 1204 2497 
Q 953 2441 691 2322 
L 691 4666 
z
" transform="scale(0.015625)"/>
       </defs>
       <use xlink:href="#DejaVuSans-35"/>
      </g>
     </g>
    </g>
    <g id="xtick_3">
     <g id="line2d_5">
      <path d="M 358.228447 288.430125 
L 358.228447 22.318125 
" clip-path="url(#p9e04bf3379)" style="fill: none; stroke-dasharray: 1.85,0.8; stroke-dashoffset: 0; stroke: #666666; stroke-opacity: 0.4; stroke-width: 0.5"/>
     </g>
     <g id="line2d_6">
      <g>
       <use xlink:href="#mf5edc103d4" x="358.228447" y="288.430125" style="fill-opacity: 0; stroke: #000000; stroke-opacity: 0; stroke-width: 0.8"/>
      </g>
     </g>
     <g id="text_3">
      <!-- 10 -->
      <g style="fill: #666666" transform="translate(351.865947 303.028562) scale(0.1 -0.1)">
       <defs>
        <path id="DejaVuSans-31" d="M 794 531 
L 1825 531 
L 1825 4091 
L 703 3866 
L 703 4441 
L 1819 4666 
L 2450 4666 
L 2450 531 
L 3481 531 
L 3481 0 
L 794 0 
L 794 531 
z
" transform="scale(0.015625)"/>
       </defs>
       <use xlink:href="#DejaVuSans-31"/>
       <use xlink:href="#DejaVuSans-30" x="63.623047"/>
      </g>
     </g>
    </g>
    <g id="xtick_4">
     <g id="line2d_7">
      <path d="M 489.772173 288.430125 
L 489.772173 22.318125 
" clip-path="url(#p9e04bf3379)" style="fill: none; stroke-dasharray: 1.85,0.8; stroke-dashoffset: 0; stroke: #666666; stroke-opacity: 0.4; stroke-width: 0.5"/>
     </g>
     <g id="line2d_8">
      <g>
       <use xlink:href="#mf5edc103d4" x="489.772173" y="288.430125" style="fill-opacity: 0; stroke: #000000; stroke-opacity: 0; stroke-width: 0.8"/>
      </g>
     </g>
     <g id="text_4">
      <!-- 15 -->
      <g style="fill: #666666" transform="translate(483.409673 303.028562) scale(0.1 -0.1)">
       <use xlink:href="#DejaVuSans-31"/>
       <use xlink:href="#DejaVuSans-35" x="63.623047"/>
      </g>
     </g>
    </g>
    <g id="xtick_5">
     <g id="line2d_9">
      <path d="M 621.315899 288.430125 
L 621.315899 22.318125 
" clip-path="url(#p9e04bf3379)" style="fill: none; stroke-dasharray: 1.85,0.8; stroke-dashoffset: 0; stroke: #666666; stroke-opacity: 0.4; stroke-width: 0.5"/>
     </g>
     <g id="line2d_10">
      <g>
       <use xlink:href="#mf5edc103d4" x="621.315899" y="288.430125" style="fill-opacity: 0; stroke: #000000; stroke-opacity: 0; stroke-width: 0.8"/>
      </g>
     </g>
     <g id="text_5">
      <!-- 20 -->
      <g style="fill: #666666" transform="translate(614.953399 303.028562) scale(0.1 -0.1)">
       <defs>
        <path id="DejaVuSans-32" d="M 1228 531 
L 3431 531 
L 3431 0 
L 469 0 
L 469 531 
Q 828 903 1448 1529 
Q 2069 2156 2228 2338 
Q 2531 2678 2651 2914 
Q 2772 3150 2772 3378 
Q 2772 3750 2511 3984 
Q 2250 4219 1831 4219 
Q 1534 4219 1204 4116 
Q 875 4013 500 3803 
L 500 4441 
Q 881 4594 1212 4672 
Q 1544 4750 1819 4750 
Q 2544 4750 2975 4387 
Q 3406 4025 3406 3419 
Q 3406 3131 3298 2873 
Q 3191 2616 2906 2266 
Q 2828 2175 2409 1742 
Q 1991 1309 1228 531 
z
" transform="scale(0.015625)"/>
       </defs>
       <use xlink:href="#DejaVuSans-32"/>
       <use xlink:href="#DejaVuSans-30" x="63.623047"/>
      </g>
     </g>
    </g>
    <g id="xtick_6">
     <g id="line2d_11">
      <path d="M 752.859626 288.430125 
L 752.859626 22.318125 
" clip-path="url(#p9e04bf3379)" style="fill: none; stroke-dasharray: 1.85,0.8; stroke-dashoffset: 0; stroke: #666666; stroke-opacity: 0.4; stroke-width: 0.5"/>
     </g>
     <g id="line2d_12">
      <g>
       <use xlink:href="#mf5edc103d4" x="752.859626" y="288.430125" style="fill-opacity: 0; stroke: #000000; stroke-opacity: 0; stroke-width: 0.8"/>
      </g>
     </g>
     <g id="text_6">
      <!-- 25 -->
      <g style="fill: #666666" transform="translate(746.497126 303.028562) scale(0.1 -0.1)">
       <use xlink:href="#DejaVuSans-32"/>
       <use xlink:href="#DejaVuSans-35" x="63.623047"/>
      </g>
     </g>
    </g>
   </g>
   <g id="matplotlib.axis_2">
    <g id="ytick_1">
     <g id="line2d_13">
      <path d="M 64.885938 255.987343 
L 756.805938 255.987343 
" clip-path="url(#p9e04bf3379)" style="fill: none; stroke-dasharray: 1.85,0.8; stroke-dashoffset: 0; stroke: #666666; stroke-opacity: 0.4; stroke-width: 0.5"/>
     </g>
     <g id="line2d_14">
      <defs>
       <path id="maac4b20e7d" d="M 0 0 
L -3.5 0 
" style="stroke: #000000; stroke-opacity: 0; stroke-width: 0.8"/>
      </defs>
      <g>
       <use xlink:href="#maac4b20e7d" x="64.885938" y="255.987343" style="fill-opacity: 0; stroke: #000000; stroke-opacity: 0; stroke-width: 0.8"/>
      </g>
     </g>
     <g id="text_7">
      <!-- −0.006 -->
      <g style="fill: #666666" transform="translate(20.878125 259.786562) scale(0.1 -0.1)">
       <defs>
        <path id="DejaVuSans-2212" d="M 678 2272 
L 4684 2272 
L 4684 1741 
L 678 1741 
L 678 2272 
z
" transform="scale(0.015625)"/>
        <path id="DejaVuSans-2e" d="M 684 794 
L 1344 794 
L 1344 0 
L 684 0 
L 684 794 
z
" transform="scale(0.015625)"/>
        <path id="DejaVuSans-36" d="M 2113 2584 
Q 1688 2584 1439 2293 
Q 1191 2003 1191 1497 
Q 1191 994 1439 701 
Q 1688 409 2113 409 
Q 2538 409 2786 701 
Q 3034 994 3034 1497 
Q 3034 2003 2786 2293 
Q 2538 2584 2113 2584 
z
M 3366 4563 
L 3366 3988 
Q 3128 4100 2886 4159 
Q 2644 4219 2406 4219 
Q 1781 4219 1451 3797 
Q 1122 3375 1075 2522 
Q 1259 2794 1537 2939 
Q 1816 3084 2150 3084 
Q 2853 3084 3261 2657 
Q 3669 2231 3669 1497 
Q 3669 778 3244 343 
Q 2819 -91 2113 -91 
Q 1303 -91 875 529 
Q 447 1150 447 2328 
Q 447 3434 972 4092 
Q 1497 4750 2381 4750 
Q 2619 4750 2861 4703 
Q 3103 4656 3366 4563 
z
" transform="scale(0.015625)"/>
       </defs>
       <use xlink:href="#DejaVuSans-2212"/>
       <use xlink:href="#DejaVuSans-30" x="83.789062"/>
       <use xlink:href="#DejaVuSans-2e" x="147.412109"/>
       <use xlink:href="#DejaVuSans-30" x="179.199219"/>
       <use xlink:href="#DejaVuSans-30" x="242.822266"/>
       <use xlink:href="#DejaVuSans-36" x="306.445312"/>
      </g>
     </g>
    </g>
    <g id="ytick_2">
     <g id="line2d_15">
      <path d="M 64.885938 217.92014 
L 756.805938 217.92014 
" clip-path="url(#p9e04bf3379)" style="fill: none; stroke-dasharray: 1.85,0.8; stroke-dashoffset: 0; stroke: #666666; stroke-opacity: 0.4; stroke-width: 0.5"/>
     </g>
     <g id="line2d_16">
      <g>
       <use xlink:href="#maac4b20e7d" x="64.885938" y="217.92014" style="fill-opacity: 0; stroke: #000000; stroke-opacity: 0; stroke-width: 0.8"/>
      </g>
     </g>
     <g id="text_8">
      <!-- −0.004 -->
      <g style="fill: #666666" transform="translate(20.878125 221.719359) scale(0.1 -0.1)">
       <defs>
        <path id="DejaVuSans-34" d="M 2419 4116 
L 825 1625 
L 2419 1625 
L 2419 4116 
z
M 2253 4666 
L 3047 4666 
L 3047 1625 
L 3713 1625 
L 3713 1100 
L 3047 1100 
L 3047 0 
L 2419 0 
L 2419 1100 
L 313 1100 
L 313 1709 
L 2253 4666 
z
" transform="scale(0.015625)"/>
       </defs>
       <use xlink:href="#DejaVuSans-2212"/>
       <use xlink:href="#DejaVuSans-30" x="83.789062"/>
       <use xlink:href="#DejaVuSans-2e" x="147.412109"/>
       <use xlink:href="#DejaVuSans-30" x="179.199219"/>
       <use xlink:href="#DejaVuSans-30" x="242.822266"/>
       <use xlink:href="#DejaVuSans-34" x="306.445312"/>
      </g>
     </g>
    </g>
    <g id="ytick_3">
     <g id="line2d_17">
      <path d="M 64.885938 179.852937 
L 756.805938 179.852937 
" clip-path="url(#p9e04bf3379)" style="fill: none; stroke-dasharray: 1.85,0.8; stroke-dashoffset: 0; stroke: #666666; stroke-opacity: 0.4; stroke-width: 0.5"/>
     </g>
     <g id="line2d_18">
      <g>
       <use xlink:href="#maac4b20e7d" x="64.885938" y="179.852937" style="fill-opacity: 0; stroke: #000000; stroke-opacity: 0; stroke-width: 0.8"/>
      </g>
     </g>
     <g id="text_9">
      <!-- −0.002 -->
      <g style="fill: #666666" transform="translate(20.878125 183.652156) scale(0.1 -0.1)">
       <use xlink:href="#DejaVuSans-2212"/>
       <use xlink:href="#DejaVuSans-30" x="83.789062"/>
       <use xlink:href="#DejaVuSans-2e" x="147.412109"/>
       <use xlink:href="#DejaVuSans-30" x="179.199219"/>
       <use xlink:href="#DejaVuSans-30" x="242.822266"/>
       <use xlink:href="#DejaVuSans-32" x="306.445312"/>
      </g>
     </g>
    </g>
    <g id="ytick_4">
     <g id="line2d_19">
      <path d="M 64.885938 141.785734 
L 756.805938 141.785734 
" clip-path="url(#p9e04bf3379)" style="fill: none; stroke-dasharray: 1.85,0.8; stroke-dashoffset: 0; stroke: #666666; stroke-opacity: 0.4; stroke-width: 0.5"/>
     </g>
     <g id="line2d_20">
      <g>
       <use xlink:href="#maac4b20e7d" x="64.885938" y="141.785734" style="fill-opacity: 0; stroke: #000000; stroke-opacity: 0; stroke-width: 0.8"/>
      </g>
     </g>
     <g id="text_10">
      <!-- 0.000 -->
      <g style="fill: #666666" transform="translate(29.257813 145.584953) scale(0.1 -0.1)">
       <use xlink:href="#DejaVuSans-30"/>
       <use xlink:href="#DejaVuSans-2e" x="63.623047"/>
       <use xlink:href="#DejaVuSans-30" x="95.410156"/>
       <use xlink:href="#DejaVuSans-30" x="159.033203"/>
       <use xlink:href="#DejaVuSans-30" x="222.65625"/>
      </g>
     </g>
    </g>
    <g id="ytick_5">
     <g id="line2d_21">
      <path d="M 64.885938 103.718531 
L 756.805938 103.718531 
" clip-path="url(#p9e04bf3379)" style="fill: none; stroke-dasharray: 1.85,0.8; stroke-dashoffset: 0; stroke: #666666; stroke-opacity: 0.4; stroke-width: 0.5"/>
     </g>
     <g id="line2d_22">
      <g>
       <use xlink:href="#maac4b20e7d" x="64.885938" y="103.718531" style="fill-opacity: 0; stroke: #000000; stroke-opacity: 0; stroke-width: 0.8"/>
      </g>
     </g>
     <g id="text_11">
      <!-- 0.002 -->
      <g style="fill: #666666" transform="translate(29.257813 107.51775) scale(0.1 -0.1)">
       <use xlink:href="#DejaVuSans-30"/>
       <use xlink:href="#DejaVuSans-2e" x="63.623047"/>
       <use xlink:href="#DejaVuSans-30" x="95.410156"/>
       <use xlink:href="#DejaVuSans-30" x="159.033203"/>
       <use xlink:href="#DejaVuSans-32" x="222.65625"/>
      </g>
     </g>
    </g>
    <g id="ytick_6">
     <g id="line2d_23">
      <path d="M 64.885938 65.651328 
L 756.805938 65.651328 
" clip-path="url(#p9e04bf3379)" style="fill: none; stroke-dasharray: 1.85,0.8; stroke-dashoffset: 0; stroke: #666666; stroke-opacity: 0.4; stroke-width: 0.5"/>
     </g>
     <g id="line2d_24">
      <g>
       <use xlink:href="#maac4b20e7d" x="64.885938" y="65.651328" style="fill-opacity: 0; stroke: #000000; stroke-opacity: 0; stroke-width: 0.8"/>
      </g>
     </g>
     <g id="text_12">
      <!-- 0.004 -->
      <g style="fill: #666666" transform="translate(29.257813 69.450547) scale(0.1 -0.1)">
       <use xlink:href="#DejaVuSans-30"/>
       <use xlink:href="#DejaVuSans-2e" x="63.623047"/>
       <use xlink:href="#DejaVuSans-30" x="95.410156"/>
       <use xlink:href="#DejaVuSans-30" x="159.033203"/>
       <use xlink:href="#DejaVuSans-34" x="222.65625"/>
      </g>
     </g>
    </g>
    <g id="ytick_7">
     <g id="line2d_25">
      <path d="M 64.885938 27.584125 
L 756.805938 27.584125 
" clip-path="url(#p9e04bf3379)" style="fill: none; stroke-dasharray: 1.85,0.8; stroke-dashoffset: 0; stroke: #666666; stroke-opacity: 0.4; stroke-width: 0.5"/>
     </g>
     <g id="line2d_26">
      <g>
       <use xlink:href="#maac4b20e7d" x="64.885938" y="27.584125" style="fill-opacity: 0; stroke: #000000; stroke-opacity: 0; stroke-width: 0.8"/>
      </g>
     </g>
     <g id="text_13">
      <!-- 0.006 -->
      <g style="fill: #666666" transform="translate(29.257813 31.383344) scale(0.1 -0.1)">
       <use xlink:href="#DejaVuSans-30"/>
       <use xlink:href="#DejaVuSans-2e" x="63.623047"/>
       <use xlink:href="#DejaVuSans-30" x="95.410156"/>
       <use xlink:href="#DejaVuSans-30" x="159.033203"/>
       <use xlink:href="#DejaVuSans-36" x="222.65625"/>
      </g>
     </g>
    </g>
    <g id="text_14">
     <!-- sinQ -->
     <g style="fill: #bdbdbd" transform="translate(14.798438 166.472562) rotate(-90) scale(0.1 -0.1)">
      <defs>
       <path id="DejaVuSans-73" d="M 2834 3397 
L 2834 2853 
Q 2591 2978 2328 3040 
Q 2066 3103 1784 3103 
Q 1356 3103 1142 2972 
Q 928 2841 928 2578 
Q 928 2378 1081 2264 
Q 1234 2150 1697 2047 
L 1894 2003 
Q 2506 1872 2764 1633 
Q 3022 1394 3022 966 
Q 3022 478 2636 193 
Q 2250 -91 1575 -91 
Q 1294 -91 989 -36 
Q 684 19 347 128 
L 347 722 
Q 666 556 975 473 
Q 1284 391 1588 391 
Q 1994 391 2212 530 
Q 2431 669 2431 922 
Q 2431 1156 2273 1281 
Q 2116 1406 1581 1522 
L 1381 1569 
Q 847 1681 609 1914 
Q 372 2147 372 2553 
Q 372 3047 722 3315 
Q 1072 3584 1716 3584 
Q 2034 3584 2315 3537 
Q 2597 3491 2834 3397 
z
" transform="scale(0.015625)"/>
       <path id="DejaVuSans-69" d="M 603 3500 
L 1178 3500 
L 1178 0 
L 603 0 
L 603 3500 
z
M 603 4863 
L 1178 4863 
L 1178 4134 
L 603 4134 
L 603 4863 
z
" transform="scale(0.015625)"/>
       <path id="DejaVuSans-6e" d="M 3513 2113 
L 3513 0 
L 2938 0 
L 2938 2094 
Q 2938 2591 2744 2837 
Q 2550 3084 2163 3084 
Q 1697 3084 1428 2787 
Q 1159 2491 1159 1978 
L 1159 0 
L 581 0 
L 581 3500 
L 1159 3500 
L 1159 2956 
Q 1366 3272 1645 3428 
Q 1925 3584 2291 3584 
Q 2894 3584 3203 3211 
Q 3513 2838 3513 2113 
z
" transform="scale(0.015625)"/>
       <path id="DejaVuSans-51" d="M 2522 4238 
Q 1834 4238 1429 3725 
Q 1025 3213 1025 2328 
Q 1025 1447 1429 934 
Q 1834 422 2522 422 
Q 3209 422 3611 934 
Q 4013 1447 4013 2328 
Q 4013 3213 3611 3725 
Q 3209 4238 2522 4238 
z
M 3406 84 
L 4238 -825 
L 3475 -825 
L 2784 -78 
Q 2681 -84 2626 -87 
Q 2572 -91 2522 -91 
Q 1538 -91 948 567 
Q 359 1225 359 2328 
Q 359 3434 948 4092 
Q 1538 4750 2522 4750 
Q 3503 4750 4090 4092 
Q 4678 3434 4678 2328 
Q 4678 1516 4351 937 
Q 4025 359 3406 84 
z
" transform="scale(0.015625)"/>
      </defs>
      <use xlink:href="#DejaVuSans-73"/>
      <use xlink:href="#DejaVuSans-69" x="52.099609"/>
      <use xlink:href="#DejaVuSans-6e" x="79.882812"/>
      <use xlink:href="#DejaVuSans-51" x="143.261719"/>
     </g>
    </g>
   </g>
   <g id="line2d_27">
    <path d="M 95.140995 173.25719 
L 121.44974 158.048238 
L 147.758485 153.269613 
L 174.06723 140.39486 
L 200.375976 137.208632 
L 226.684721 155.001732 
L 252.993466 151.525242 
L 279.302211 167.064842 
L 305.610957 179.176734 
L 331.919702 182.385526 
L 358.228447 166.472734 
L 384.537192 152.091448 
L 410.845938 144.306157 
L 437.154683 133.239707 
L 463.463428 134.708668 
L 489.772173 137.826503 
L 516.080918 145.299031 
L 542.389664 121.834116 
L 568.698409 131.598564 
L 595.007154 120.479036 
L 621.315899 116.281315 
L 647.624645 125.527205 
L 673.93339 137.166022 
L 700.242135 150.72906 
" clip-path="url(#p9e04bf3379)" style="fill: none; stroke: #ffeb3b; stroke-width: 1.5; stroke-linecap: square"/>
    <defs>
     <path id="m19a9d5c0e6" d="M 0 1.5 
C 0.397805 1.5 0.77937 1.341951 1.06066 1.06066 
C 1.341951 0.77937 1.5 0.397805 1.5 0 
C 1.5 -0.397805 1.341951 -0.77937 1.06066 -1.06066 
C 0.77937 -1.341951 0.397805 -1.5 0 -1.5 
C -0.397805 -1.5 -0.77937 -1.341951 -1.06066 -1.06066 
C -1.341951 -0.77937 -1.5 -0.397805 -1.5 0 
C -1.5 0.397805 -1.341951 0.77937 -1.06066 1.06066 
C -0.77937 1.341951 -0.397805 1.5 0 1.5 
z
" style="stroke: #ffeb3b"/>
    </defs>
    <g clip-path="url(#p9e04bf3379)">
     <use xlink:href="#m19a9d5c0e6" x="95.140995" y="173.25719" style="fill: #ffeb3b; stroke: #ffeb3b"/>
     <use xlink:href="#m19a9d5c0e6" x="121.44974" y="158.048238" style="fill: #ffeb3b; stroke: #ffeb3b"/>
     <use xlink:href="#m19a9d5c0e6" x="147.758485" y="153.269613" style="fill: #ffeb3b; stroke: #ffeb3b"/>
     <use xlink:href="#m19a9d5c0e6" x="174.06723" y="140.39486" style="fill: #ffeb3b; stroke: #ffeb3b"/>
     <use xlink:href="#m19a9d5c0e6" x="200.375976" y="137.208632" style="fill: #ffeb3b; stroke: #ffeb3b"/>
     <use xlink:href="#m19a9d5c0e6" x="226.684721" y="155.001732" style="fill: #ffeb3b; stroke: #ffeb3b"/>
     <use xlink:href="#m19a9d5c0e6" x="252.993466" y="151.525242" style="fill: #ffeb3b; stroke: #ffeb3b"/>
     <use xlink:href="#m19a9d5c0e6" x="279.302211" y="167.064842" style="fill: #ffeb3b; stroke: #ffeb3b"/>
     <use xlink:href="#m19a9d5c0e6" x="305.610957" y="179.176734" style="fill: #ffeb3b; stroke: #ffeb3b"/>
     <use xlink:href="#m19a9d5c0e6" x="331.919702" y="182.385526" style="fill: #ffeb3b; stroke: #ffeb3b"/>
     <use xlink:href="#m19a9d5c0e6" x="358.228447" y="166.472734" style="fill: #ffeb3b; stroke: #ffeb3b"/>
     <use xlink:href="#m19a9d5c0e6" x="384.537192" y="152.091448" style="fill: #ffeb3b; stroke: #ffeb3b"/>
     <use xlink:href="#m19a9d5c0e6" x="410.845938" y="144.306157" style="fill: #ffeb3b; stroke: #ffeb3b"/>
     <use xlink:href="#m19a9d5c0e6" x="437.154683" y="133.239707" style="fill: #ffeb3b; stroke: #ffeb3b"/>
     <use xlink:href="#m19a9d5c0e6" x="463.463428" y="134.708668" style="fill: #ffeb3b; stroke: #ffeb3b"/>
     <use xlink:href="#m19a9d5c0e6" x="489.772173" y="137.826503" style="fill: #ffeb3b; stroke: #ffeb3b"/>
     <use xlink:href="#m19a9d5c0e6" x="516.080918" y="145.299031" style="fill: #ffeb3b; stroke: #ffeb3b"/>
     <use xlink:href="#m19a9d5c0e6" x="542.389664" y="121.834116" style="fill: #ffeb3b; stroke: #ffeb3b"/>
     <use xlink:href="#m19a9d5c0e6" x="568.698409" y="131.598564" style="fill: #ffeb3b; stroke: #ffeb3b"/>
     <use xlink:href="#m19a9d5c0e6" x="595.007154" y="120.479036" style="fill: #ffeb3b; stroke: #ffeb3b"/>
     <use xlink:href="#m19a9d5c0e6" x="621.315899" y="116.281315" style="fill: #ffeb3b; stroke: #ffeb3b"/>
     <use xlink:href="#m19a9d5c0e6" x="647.624645" y="125.527205" style="fill: #ffeb3b; stroke: #ffeb3b"/>
     <use xlink:href="#m19a9d5c0e6" x="673.93339" y="137.166022" style="fill: #ffeb3b; stroke: #ffeb3b"/>
     <use xlink:href="#m19a9d5c0e6" x="700.242135" y="150.72906" style="fill: #ffeb3b; stroke: #ffeb3b"/>
    </g>
   </g>
   <g id="line2d_28">
    <path d="M 95.140995 199.920453 
L 121.44974 219.873218 
L 147.758485 222.553282 
L 174.06723 169.337189 
L 200.375976 217.310244 
L 226.684721 232.526592 
L 252.993466 232.652123 
L 279.302211 241.091799 
L 305.610957 276.334125 
L 331.919702 273.745587 
L 358.228447 221.397686 
L 384.537192 160.886164 
L 410.845938 130.771988 
L 437.154683 171.291579 
L 463.463428 182.618994 
L 489.772173 171.537759 
L 516.080918 192.101317 
L 542.389664 166.016421 
L 568.698409 142.280703 
L 595.007154 158.486767 
L 621.315899 124.978087 
L 647.624645 116.513079 
L 673.93339 142.987963 
L 700.242135 152.423863 
" clip-path="url(#p9e04bf3379)" style="fill: none; stroke: #ffeb3b; stroke-opacity: 0.6; stroke-width: 0.6; stroke-linecap: square"/>
    <defs>
     <path id="m7b6118d7f4" d="M 0 1.5 
C 0.397805 1.5 0.77937 1.341951 1.06066 1.06066 
C 1.341951 0.77937 1.5 0.397805 1.5 0 
C 1.5 -0.397805 1.341951 -0.77937 1.06066 -1.06066 
C 0.77937 -1.341951 0.397805 -1.5 0 -1.5 
C -0.397805 -1.5 -0.77937 -1.341951 -1.06066 -1.06066 
C -1.341951 -0.77937 -1.5 -0.397805 -1.5 0 
C -1.5 0.397805 -1.341951 0.77937 -1.06066 1.06066 
C -0.77937 1.341951 -0.397805 1.5 0 1.5 
z
" style="stroke: #ffeb3b; stroke-opacity: 0.6"/>
    </defs>
    <g clip-path="url(#p9e04bf3379)">
     <use xlink:href="#m7b6118d7f4" x="95.140995" y="199.920453" style="fill: #ffeb3b; fill-opacity: 0.6; stroke: #ffeb3b; stroke-opacity: 0.6"/>
     <use xlink:href="#m7b6118d7f4" x="121.44974" y="219.873218" style="fill: #ffeb3b; fill-opacity: 0.6; stroke: #ffeb3b; stroke-opacity: 0.6"/>
     <use xlink:href="#m7b6118d7f4" x="147.758485" y="222.553282" style="fill: #ffeb3b; fill-opacity: 0.6; stroke: #ffeb3b; stroke-opacity: 0.6"/>
     <use xlink:href="#m7b6118d7f4" x="174.06723" y="169.337189" style="fill: #ffeb3b; fill-opacity: 0.6; stroke: #ffeb3b; stroke-opacity: 0.6"/>
     <use xlink:href="#m7b6118d7f4" x="200.375976" y="217.310244" style="fill: #ffeb3b; fill-opacity: 0.6; stroke: #ffeb3b; stroke-opacity: 0.6"/>
     <use xlink:href="#m7b6118d7f4" x="226.684721" y="232.526592" style="fill: #ffeb3b; fill-opacity: 0.6; stroke: #ffeb3b; stroke-opacity: 0.6"/>
     <use xlink:href="#m7b6118d7f4" x="252.993466" y="232.652123" style="fill: #ffeb3b; fill-opacity: 0.6; stroke: #ffeb3b; stroke-opacity: 0.6"/>
     <use xlink:href="#m7b6118d7f4" x="279.302211" y="241.091799" style="fill: #ffeb3b; fill-opacity: 0.6; stroke: #ffeb3b; stroke-opacity: 0.6"/>
     <use xlink:href="#m7b6118d7f4" x="305.610957" y="276.334125" style="fill: #ffeb3b; fill-opacity: 0.6; stroke: #ffeb3b; stroke-opacity: 0.6"/>
     <use xlink:href="#m7b6118d7f4" x="331.919702" y="273.745587" style="fill: #ffeb3b; fill-opacity: 0.6; stroke: #ffeb3b; stroke-opacity: 0.6"/>
     <use xlink:href="#m7b6118d7f4" x="358.228447" y="221.397686" style="fill: #ffeb3b; fill-opacity: 0.6; stroke: #ffeb3b; stroke-opacity: 0.6"/>
     <use xlink:href="#m7b6118d7f4" x="384.537192" y="160.886164" style="fill: #ffeb3b; fill-opacity: 0.6; stroke: #ffeb3b; stroke-opacity: 0.6"/>
     <use xlink:href="#m7b6118d7f4" x="410.845938" y="130.771988" style="fill: #ffeb3b; fill-opacity: 0.6; stroke: #ffeb3b; stroke-opacity: 0.6"/>
     <use xlink:href="#m7b6118d7f4" x="437.154683" y="171.291579" style="fill: #ffeb3b; fill-opacity: 0.6; stroke: #ffeb3b; stroke-opacity: 0.6"/>
     <use xlink:href="#m7b6118d7f4" x="463.463428" y="182.618994" style="fill: #ffeb3b; fill-opacity: 0.6; stroke: #ffeb3b; stroke-opacity: 0.6"/>
     <use xlink:href="#m7b6118d7f4" x="489.772173" y="171.537759" style="fill: #ffeb3b; fill-opacity: 0.6; stroke: #ffeb3b; stroke-opacity: 0.6"/>
     <use xlink:href="#m7b6118d7f4" x="516.080918" y="192.101317" style="fill: #ffeb3b; fill-opacity: 0.6; stroke: #ffeb3b; stroke-opacity: 0.6"/>
     <use xlink:href="#m7b6118d7f4" x="542.389664" y="166.016421" style="fill: #ffeb3b; fill-opacity: 0.6; stroke: #ffeb3b; stroke-opacity: 0.6"/>
     <use xlink:href="#m7b6118d7f4" x="568.698409" y="142.280703" style="fill: #ffeb3b; fill-opacity: 0.6; stroke: #ffeb3b; stroke-opacity: 0.6"/>
     <use xlink:href="#m7b6118d7f4" x="595.007154" y="158.486767" style="fill: #ffeb3b; fill-opacity: 0.6; stroke: #ffeb3b; stroke-opacity: 0.6"/>
     <use xlink:href="#m7b6118d7f4" x="621.315899" y="124.978087" style="fill: #ffeb3b; fill-opacity: 0.6; stroke: #ffeb3b; stroke-opacity: 0.6"/>
     <use xlink:href="#m7b6118d7f4" x="647.624645" y="116.513079" style="fill: #ffeb3b; fill-opacity: 0.6; stroke: #ffeb3b; stroke-opacity: 0.6"/>
     <use xlink:href="#m7b6118d7f4" x="673.93339" y="142.987963" style="fill: #ffeb3b; fill-opacity: 0.6; stroke: #ffeb3b; stroke-opacity: 0.6"/>
     <use xlink:href="#m7b6118d7f4" x="700.242135" y="152.423863" style="fill: #ffeb3b; fill-opacity: 0.6; stroke: #ffeb3b; stroke-opacity: 0.6"/>
    </g>
   </g>
   <g id="line2d_29">
    <path d="M 95.140995 208.004436 
L 121.44974 171.723478 
L 147.758485 158.757456 
L 174.06723 168.806347 
L 200.375976 169.647582 
L 226.684721 200.756658 
L 252.993466 189.642039 
L 279.302211 180.998638 
L 305.610957 202.792579 
L 331.919702 207.867436 
L 358.228447 190.152263 
L 384.537192 170.475597 
L 410.845938 199.071822 
L 437.154683 181.057218 
L 463.463428 179.059478 
L 489.772173 167.062088 
L 516.080918 152.274396 
L 542.389664 95.809537 
L 568.698409 155.825907 
L 595.007154 147.586663 
L 621.315899 180.923272 
L 647.624645 158.125959 
L 673.93339 142.110646 
L 700.242135 123.382676 
" clip-path="url(#p9e04bf3379)" style="fill: none; stroke: #ffeb3b; stroke-opacity: 0.6; stroke-width: 0.6; stroke-linecap: square"/>
    <g clip-path="url(#p9e04bf3379)">
     <use xlink:href="#m7b6118d7f4" x="95.140995" y="208.004436" style="fill: #ffeb3b; fill-opacity: 0.6; stroke: #ffeb3b; stroke-opacity: 0.6"/>
     <use xlink:href="#m7b6118d7f4" x="121.44974" y="171.723478" style="fill: #ffeb3b; fill-opacity: 0.6; stroke: #ffeb3b; stroke-opacity: 0.6"/>
     <use xlink:href="#m7b6118d7f4" x="147.758485" y="158.757456" style="fill: #ffeb3b; fill-opacity: 0.6; stroke: #ffeb3b; stroke-opacity: 0.6"/>
     <use xlink:href="#m7b6118d7f4" x="174.06723" y="168.806347" style="fill: #ffeb3b; fill-opacity: 0.6; stroke: #ffeb3b; stroke-opacity: 0.6"/>
     <use xlink:href="#m7b6118d7f4" x="200.375976" y="169.647582" style="fill: #ffeb3b; fill-opacity: 0.6; stroke: #ffeb3b; stroke-opacity: 0.6"/>
     <use xlink:href="#m7b6118d7f4" x="226.684721" y="200.756658" style="fill: #ffeb3b; fill-opacity: 0.6; stroke: #ffeb3b; stroke-opacity: 0.6"/>
     <use xlink:href="#m7b6118d7f4" x="252.993466" y="189.642039" style="fill: #ffeb3b; fill-opacity: 0.6; stroke: #ffeb3b; stroke-opacity: 0.6"/>
     <use xlink:href="#m7b6118d7f4" x="279.302211" y="180.998638" style="fill: #ffeb3b; fill-opacity: 0.6; stroke: #ffeb3b; stroke-opacity: 0.6"/>
     <use xlink:href="#m7b6118d7f4" x="305.610957" y="202.792579" style="fill: #ffeb3b; fill-opacity: 0.6; stroke: #ffeb3b; stroke-opacity: 0.6"/>
     <use xlink:href="#m7b6118d7f4" x="331.919702" y="207.867436" style="fill: #ffeb3b; fill-opacity: 0.6; stroke: #ffeb3b; stroke-opacity: 0.6"/>
     <use xlink:href="#m7b6118d7f4" x="358.228447" y="190.152263" style="fill: #ffeb3b; fill-opacity: 0.6; stroke: #ffeb3b; stroke-opacity: 0.6"/>
     <use xlink:href="#m7b6118d7f4" x="384.537192" y="170.475597" style="fill: #ffeb3b; fill-opacity: 0.6; stroke: #ffeb3b; stroke-opacity: 0.6"/>
     <use xlink:href="#m7b6118d7f4" x="410.845938" y="199.071822" style="fill: #ffeb3b; fill-opacity: 0.6; stroke: #ffeb3b; stroke-opacity: 0.6"/>
     <use xlink:href="#m7b6118d7f4" x="437.154683" y="181.057218" style="fill: #ffeb3b; fill-opacity: 0.6; stroke: #ffeb3b; stroke-opacity: 0.6"/>
     <use xlink:href="#m7b6118d7f4" x="463.463428" y="179.059478" style="fill: #ffeb3b; fill-opacity: 0.6; stroke: #ffeb3b; stroke-opacity: 0.6"/>
     <use xlink:href="#m7b6118d7f4" x="489.772173" y="167.062088" style="fill: #ffeb3b; fill-opacity: 0.6; stroke: #ffeb3b; stroke-opacity: 0.6"/>
     <use xlink:href="#m7b6118d7f4" x="516.080918" y="152.274396" style="fill: #ffeb3b; fill-opacity: 0.6; stroke: #ffeb3b; stroke-opacity: 0.6"/>
     <use xlink:href="#m7b6118d7f4" x="542.389664" y="95.809537" style="fill: #ffeb3b; fill-opacity: 0.6; stroke: #ffeb3b; stroke-opacity: 0.6"/>
     <use xlink:href="#m7b6118d7f4" x="568.698409" y="155.825907" style="fill: #ffeb3b; fill-opacity: 0.6; stroke: #ffeb3b; stroke-opacity: 0.6"/>
     <use xlink:href="#m7b6118d7f4" x="595.007154" y="147.586663" style="fill: #ffeb3b; fill-opacity: 0.6; stroke: #ffeb3b; stroke-opacity: 0.6"/>
     <use xlink:href="#m7b6118d7f4" x="621.315899" y="180.923272" style="fill: #ffeb3b; fill-opacity: 0.6; stroke: #ffeb3b; stroke-opacity: 0.6"/>
     <use xlink:href="#m7b6118d7f4" x="647.624645" y="158.125959" style="fill: #ffeb3b; fill-opacity: 0.6; stroke: #ffeb3b; stroke-opacity: 0.6"/>
     <use xlink:href="#m7b6118d7f4" x="673.93339" y="142.110646" style="fill: #ffeb3b; fill-opacity: 0.6; stroke: #ffeb3b; stroke-opacity: 0.6"/>
     <use xlink:href="#m7b6118d7f4" x="700.242135" y="123.382676" style="fill: #ffeb3b; fill-opacity: 0.6; stroke: #ffeb3b; stroke-opacity: 0.6"/>
    </g>
   </g>
   <g id="line2d_30">
    <path d="M 95.140995 218.386294 
L 121.44974 183.074953 
L 147.758485 156.576782 
L 174.06723 124.778901 
L 200.375976 65.622803 
L 226.684721 99.106597 
L 252.993466 74.627468 
L 279.302211 133.443994 
L 305.610957 158.187555 
L 331.919702 164.799011 
L 358.228447 170.579592 
L 384.537192 219.902451 
L 410.845938 186.64397 
L 437.154683 146.195906 
L 463.463428 117.882712 
L 489.772173 139.070454 
L 516.080918 139.627351 
L 542.389664 136.353981 
L 568.698409 139.704373 
L 595.007154 111.810066 
L 621.315899 97.454413 
L 647.624645 115.503792 
L 673.93339 136.166664 
L 700.242135 159.050745 
" clip-path="url(#p9e04bf3379)" style="fill: none; stroke: #ffeb3b; stroke-opacity: 0.6; stroke-width: 0.6; stroke-linecap: square"/>
    <g clip-path="url(#p9e04bf3379)">
     <use xlink:href="#m7b6118d7f4" x="95.140995" y="218.386294" style="fill: #ffeb3b; fill-opacity: 0.6; stroke: #ffeb3b; stroke-opacity: 0.6"/>
     <use xlink:href="#m7b6118d7f4" x="121.44974" y="183.074953" style="fill: #ffeb3b; fill-opacity: 0.6; stroke: #ffeb3b; stroke-opacity: 0.6"/>
     <use xlink:href="#m7b6118d7f4" x="147.758485" y="156.576782" style="fill: #ffeb3b; fill-opacity: 0.6; stroke: #ffeb3b; stroke-opacity: 0.6"/>
     <use xlink:href="#m7b6118d7f4" x="174.06723" y="124.778901" style="fill: #ffeb3b; fill-opacity: 0.6; stroke: #ffeb3b; stroke-opacity: 0.6"/>
     <use xlink:href="#m7b6118d7f4" x="200.375976" y="65.622803" style="fill: #ffeb3b; fill-opacity: 0.6; stroke: #ffeb3b; stroke-opacity: 0.6"/>
     <use xlink:href="#m7b6118d7f4" x="226.684721" y="99.106597" style="fill: #ffeb3b; fill-opacity: 0.6; stroke: #ffeb3b; stroke-opacity: 0.6"/>
     <use xlink:href="#m7b6118d7f4" x="252.993466" y="74.627468" style="fill: #ffeb3b; fill-opacity: 0.6; stroke: #ffeb3b; stroke-opacity: 0.6"/>
     <use xlink:href="#m7b6118d7f4" x="279.302211" y="133.443994" style="fill: #ffeb3b; fill-opacity: 0.6; stroke: #ffeb3b; stroke-opacity: 0.6"/>
     <use xlink:href="#m7b6118d7f4" x="305.610957" y="158.187555" style="fill: #ffeb3b; fill-opacity: 0.6; stroke: #ffeb3b; stroke-opacity: 0.6"/>
     <use xlink:href="#m7b6118d7f4" x="331.919702" y="164.799011" style="fill: #ffeb3b; fill-opacity: 0.6; stroke: #ffeb3b; stroke-opacity: 0.6"/>
     <use xlink:href="#m7b6118d7f4" x="358.228447" y="170.579592" style="fill: #ffeb3b; fill-opacity: 0.6; stroke: #ffeb3b; stroke-opacity: 0.6"/>
     <use xlink:href="#m7b6118d7f4" x="384.537192" y="219.902451" style="fill: #ffeb3b; fill-opacity: 0.6; stroke: #ffeb3b; stroke-opacity: 0.6"/>
     <use xlink:href="#m7b6118d7f4" x="410.845938" y="186.64397" style="fill: #ffeb3b; fill-opacity: 0.6; stroke: #ffeb3b; stroke-opacity: 0.6"/>
     <use xlink:href="#m7b6118d7f4" x="437.154683" y="146.195906" style="fill: #ffeb3b; fill-opacity: 0.6; stroke: #ffeb3b; stroke-opacity: 0.6"/>
     <use xlink:href="#m7b6118d7f4" x="463.463428" y="117.882712" style="fill: #ffeb3b; fill-opacity: 0.6; stroke: #ffeb3b; stroke-opacity: 0.6"/>
     <use xlink:href="#m7b6118d7f4" x="489.772173" y="139.070454" style="fill: #ffeb3b; fill-opacity: 0.6; stroke: #ffeb3b; stroke-opacity: 0.6"/>
     <use xlink:href="#m7b6118d7f4" x="516.080918" y="139.627351" style="fill: #ffeb3b; fill-opacity: 0.6; stroke: #ffeb3b; stroke-opacity: 0.6"/>
     <use xlink:href="#m7b6118d7f4" x="542.389664" y="136.353981" style="fill: #ffeb3b; fill-opacity: 0.6; stroke: #ffeb3b; stroke-opacity: 0.6"/>
     <use xlink:href="#m7b6118d7f4" x="568.698409" y="139.704373" style="fill: #ffeb3b; fill-opacity: 0.6; stroke: #ffeb3b; stroke-opacity: 0.6"/>
     <use xlink:href="#m7b6118d7f4" x="595.007154" y="111.810066" style="fill: #ffeb3b; fill-opacity: 0.6; stroke: #ffeb3b; stroke-opacity: 0.6"/>
     <use xlink:href="#m7b6118d7f4" x="621.315899" y="97.454413" style="fill: #ffeb3b; fill-opacity: 0.6; stroke: #ffeb3b; stroke-opacity: 0.6"/>
     <use xlink:href="#m7b6118d7f4" x="647.624645" y="115.503792" style="fill: #ffeb3b; fill-opacity: 0.6; stroke: #ffeb3b; stroke-opacity: 0.6"/>
     <use xlink:href="#m7b6118d7f4" x="673.93339" y="136.166664" style="fill: #ffeb3b; fill-opacity: 0.6; stroke: #ffeb3b; stroke-opacity: 0.6"/>
     <use xlink:href="#m7b6118d7f4" x="700.242135" y="159.050745" style="fill: #ffeb3b; fill-opacity: 0.6; stroke: #ffeb3b; stroke-opacity: 0.6"/>
    </g>
   </g>
   <g id="line2d_31">
    <path d="M 95.140995 66.717575 
L 121.44974 57.521301 
L 147.758485 75.19093 
L 174.06723 98.657003 
L 200.375976 96.253901 
L 226.684721 87.61708 
L 252.993466 109.179337 
L 279.302211 112.724935 
L 305.610957 79.392677 
L 331.919702 83.130068 
L 358.228447 83.761395 
L 384.537192 57.101582 
L 410.845938 60.736849 
L 437.154683 34.414125 
L 463.463428 59.273488 
L 489.772173 73.635713 
L 516.080918 97.193059 
L 542.389664 89.156527 
L 568.698409 88.583272 
L 595.007154 64.032648 
L 621.315899 61.769488 
L 647.624645 111.96599 
L 673.93339 127.398816 
L 700.242135 168.058956 
" clip-path="url(#p9e04bf3379)" style="fill: none; stroke: #ffeb3b; stroke-opacity: 0.6; stroke-width: 0.6; stroke-linecap: square"/>
    <g clip-path="url(#p9e04bf3379)">
     <use xlink:href="#m7b6118d7f4" x="95.140995" y="66.717575" style="fill: #ffeb3b; fill-opacity: 0.6; stroke: #ffeb3b; stroke-opacity: 0.6"/>
     <use xlink:href="#m7b6118d7f4" x="121.44974" y="57.521301" style="fill: #ffeb3b; fill-opacity: 0.6; stroke: #ffeb3b; stroke-opacity: 0.6"/>
     <use xlink:href="#m7b6118d7f4" x="147.758485" y="75.19093" style="fill: #ffeb3b; fill-opacity: 0.6; stroke: #ffeb3b; stroke-opacity: 0.6"/>
     <use xlink:href="#m7b6118d7f4" x="174.06723" y="98.657003" style="fill: #ffeb3b; fill-opacity: 0.6; stroke: #ffeb3b; stroke-opacity: 0.6"/>
     <use xlink:href="#m7b6118d7f4" x="200.375976" y="96.253901" style="fill: #ffeb3b; fill-opacity: 0.6; stroke: #ffeb3b; stroke-opacity: 0.6"/>
     <use xlink:href="#m7b6118d7f4" x="226.684721" y="87.61708" style="fill: #ffeb3b; fill-opacity: 0.6; stroke: #ffeb3b; stroke-opacity: 0.6"/>
     <use xlink:href="#m7b6118d7f4" x="252.993466" y="109.179337" style="fill: #ffeb3b; fill-opacity: 0.6; stroke: #ffeb3b; stroke-opacity: 0.6"/>
     <use xlink:href="#m7b6118d7f4" x="279.302211" y="112.724935" style="fill: #ffeb3b; fill-opacity: 0.6; stroke: #ffeb3b; stroke-opacity: 0.6"/>
     <use xlink:href="#m7b6118d7f4" x="305.610957" y="79.392677" style="fill: #ffeb3b; fill-opacity: 0.6; stroke: #ffeb3b; stroke-opacity: 0.6"/>
     <use xlink:href="#m7b6118d7f4" x="331.919702" y="83.130068" style="fill: #ffeb3b; fill-opacity: 0.6; stroke: #ffeb3b; stroke-opacity: 0.6"/>
     <use xlink:href="#m7b6118d7f4" x="358.228447" y="83.761395" style="fill: #ffeb3b; fill-opacity: 0.6; stroke: #ffeb3b; stroke-opacity: 0.6"/>
     <use xlink:href="#m7b6118d7f4" x="384.537192" y="57.101582" style="fill: #ffeb3b; fill-opacity: 0.6; stroke: #ffeb3b; stroke-opacity: 0.6"/>
     <use xlink:href="#m7b6118d7f4" x="410.845938" y="60.736849" style="fill: #ffeb3b; fill-opacity: 0.6; stroke: #ffeb3b; stroke-opacity: 0.6"/>
     <use xlink:href="#m7b6118d7f4" x="437.154683" y="34.414125" style="fill: #ffeb3b; fill-opacity: 0.6; stroke: #ffeb3b; stroke-opacity: 0.6"/>
     <use xlink:href="#m7b6118d7f4" x="463.463428" y="59.273488" style="fill: #ffeb3b; fill-opacity: 0.6; stroke: #ffeb3b; stroke-opacity: 0.6"/>
     <use xlink:href="#m7b6118d7f4" x="489.772173" y="73.635713" style="fill: #ffeb3b; fill-opacity: 0.6; stroke: #ffeb3b; stroke-opacity: 0.6"/>
     <use xlink:href="#m7b6118d7f4" x="516.080918" y="97.193059" style="fill: #ffeb3b; fill-opacity: 0.6; stroke: #ffeb3b; stroke-opacity: 0.6"/>
     <use xlink:href="#m7b6118d7f4" x="542.389664" y="89.156527" style="fill: #ffeb3b; fill-opacity: 0.6; stroke: #ffeb3b; stroke-opacity: 0.6"/>
     <use xlink:href="#m7b6118d7f4" x="568.698409" y="88.583272" style="fill: #ffeb3b; fill-opacity: 0.6; stroke: #ffeb3b; stroke-opacity: 0.6"/>
     <use xlink:href="#m7b6118d7f4" x="595.007154" y="64.032648" style="fill: #ffeb3b; fill-opacity: 0.6; stroke: #ffeb3b; stroke-opacity: 0.6"/>
     <use xlink:href="#m7b6118d7f4" x="621.315899" y="61.769488" style="fill: #ffeb3b; fill-opacity: 0.6; stroke: #ffeb3b; stroke-opacity: 0.6"/>
     <use xlink:href="#m7b6118d7f4" x="647.624645" y="111.96599" style="fill: #ffeb3b; fill-opacity: 0.6; stroke: #ffeb3b; stroke-opacity: 0.6"/>
     <use xlink:href="#m7b6118d7f4" x="673.93339" y="127.398816" style="fill: #ffeb3b; fill-opacity: 0.6; stroke: #ffeb3b; stroke-opacity: 0.6"/>
     <use xlink:href="#m7b6118d7f4" x="700.242135" y="168.058956" style="fill: #ffeb3b; fill-opacity: 0.6; stroke: #ffeb3b; stroke-opacity: 0.6"/>
    </g>
   </g>
   <g id="patch_3">
    <path d="M 64.885938 288.430125 
L 64.885938 22.318125 
" style="fill: none"/>
   </g>
   <g id="patch_4">
    <path d="M 756.805938 288.430125 
L 756.805938 22.318125 
" style="fill: none"/>
   </g>
   <g id="patch_5">
    <path d="M 64.885938 288.430125 
L 756.805938 288.430125 
" style="fill: none"/>
   </g>
   <g id="patch_6">
    <path d="M 64.885938 22.318125 
L 756.805938 22.318125 
" style="fill: none"/>
   </g>
   <g id="text_15">
    <!-- HMC -->
    <g style="fill: #666666" transform="translate(396.967188 16.318125) scale(0.12 -0.12)">
     <defs>
      <path id="DejaVuSans-48" d="M 628 4666 
L 1259 4666 
L 1259 2753 
L 3553 2753 
L 3553 4666 
L 4184 4666 
L 4184 0 
L 3553 0 
L 3553 2222 
L 1259 2222 
L 1259 0 
L 628 0 
L 628 4666 
z
" transform="scale(0.015625)"/>
      <path id="DejaVuSans-4d" d="M 628 4666 
L 1569 4666 
L 2759 1491 
L 3956 4666 
L 4897 4666 
L 4897 0 
L 4281 0 
L 4281 4097 
L 3078 897 
L 2444 897 
L 1241 4097 
L 1241 0 
L 628 0 
L 628 4666 
z
" transform="scale(0.015625)"/>
      <path id="DejaVuSans-43" d="M 4122 4306 
L 4122 3641 
Q 3803 3938 3442 4084 
Q 3081 4231 2675 4231 
Q 1875 4231 1450 3742 
Q 1025 3253 1025 2328 
Q 1025 1406 1450 917 
Q 1875 428 2675 428 
Q 3081 428 3442 575 
Q 3803 722 4122 1019 
L 4122 359 
Q 3791 134 3420 21 
Q 3050 -91 2638 -91 
Q 1578 -91 968 557 
Q 359 1206 359 2328 
Q 359 3453 968 4101 
Q 1578 4750 2638 4750 
Q 3056 4750 3426 4639 
Q 3797 4528 4122 4306 
z
" transform="scale(0.015625)"/>
     </defs>
     <use xlink:href="#DejaVuSans-48"/>
     <use xlink:href="#DejaVuSans-4d" x="75.195312"/>
     <use xlink:href="#DejaVuSans-43" x="161.474609"/>
    </g>
   </g>
  </g>
 </g>
 <defs>
  <clipPath id="p9e04bf3379">
   <rect x="64.885938" y="22.318125" width="691.92" height="266.112"/>
  </clipPath>
 </defs>
</svg>
