<?xml version="1.0" encoding="utf-8" standalone="no"?>
<!DOCTYPE svg PUBLIC "-//W3C//DTD SVG 1.1//EN"
  "http://www.w3.org/Graphics/SVG/1.1/DTD/svg11.dtd">
<svg xmlns:xlink="http://www.w3.org/1999/xlink" width="770.767438pt" height="312.30825pt" viewBox="0 0 770.767438 312.30825" xmlns="http://www.w3.org/2000/svg" version="1.1">
 <metadata>
  <rdf:RDF xmlns:dc="http://purl.org/dc/elements/1.1/" xmlns:cc="http://creativecommons.org/ns#" xmlns:rdf="http://www.w3.org/1999/02/22-rdf-syntax-ns#">
   <cc:Work>
    <dc:type rdf:resource="http://purl.org/dc/dcmitype/StillImage"/>
    <dc:date>2023-07-10T07:57:11.025474</dc:date>
    <dc:format>image/svg+xml</dc:format>
    <dc:creator>
     <cc:Agent>
      <dc:title>Matplotlib v3.7.1, https://matplotlib.org/</dc:title>
     </cc:Agent>
    </dc:creator>
   </cc:Work>
  </rdf:RDF>
 </metadata>
 <defs>
  <style type="text/css">*{stroke-linejoin: round; stroke-linecap: butt}</style>
 </defs>
 <g id="figure_1">
  <g id="patch_1">
   <path d="M 0 312.30825 
L 770.767438 312.30825 
L 770.767438 0 
L 0 0 
L 0 312.30825 
z
" style="fill: none"/>
  </g>
  <g id="axes_1">
   <g id="patch_2">
    <path d="M 69.23125 288.430125 
L 761.15125 288.430125 
L 761.15125 22.318125 
L 69.23125 22.318125 
L 69.23125 288.430125 
z
" style="fill: none"/>
   </g>
   <g id="matplotlib.axis_1">
    <g id="xtick_1">
     <g id="line2d_1">
      <path d="M 99.486307 288.430125 
L 99.486307 22.318125 
" clip-path="url(#p2f251a980e)" style="fill: none; stroke-dasharray: 1.85,0.8; stroke-dashoffset: 0; stroke: #666666; stroke-opacity: 0.4; stroke-width: 0.5"/>
     </g>
     <g id="line2d_2">
      <defs>
       <path id="m0314f7e816" d="M 0 0 
L 0 3.5 
" style="stroke: #000000; stroke-opacity: 0; stroke-width: 0.8"/>
      </defs>
      <g>
       <use xlink:href="#m0314f7e816" x="99.486307" y="288.430125" style="fill-opacity: 0; stroke: #000000; stroke-opacity: 0; stroke-width: 0.8"/>
      </g>
     </g>
     <g id="text_1">
      <!-- 0 -->
      <g style="fill: #666666" transform="translate(96.305057 303.028562) scale(0.1 -0.1)">
       <defs>
        <path id="DejaVuSans-30" d="M 2034 4250 
Q 1547 4250 1301 3770 
Q 1056 3291 1056 2328 
Q 1056 1369 1301 889 
Q 1547 409 2034 409 
Q 2525 409 2770 889 
Q 3016 1369 3016 2328 
Q 3016 3291 2770 3770 
Q 2525 4250 2034 4250 
z
M 2034 4750 
Q 2819 4750 3233 4129 
Q 3647 3509 3647 2328 
Q 3647 1150 3233 529 
Q 2819 -91 2034 -91 
Q 1250 -91 836 529 
Q 422 1150 422 2328 
Q 422 3509 836 4129 
Q 1250 4750 2034 4750 
z
" transform="scale(0.015625)"/>
       </defs>
       <use xlink:href="#DejaVuSans-30"/>
      </g>
     </g>
    </g>
    <g id="xtick_2">
     <g id="line2d_3">
      <path d="M 231.030033 288.430125 
L 231.030033 22.318125 
" clip-path="url(#p2f251a980e)" style="fill: none; stroke-dasharray: 1.85,0.8; stroke-dashoffset: 0; stroke: #666666; stroke-opacity: 0.4; stroke-width: 0.5"/>
     </g>
     <g id="line2d_4">
      <g>
       <use xlink:href="#m0314f7e816" x="231.030033" y="288.430125" style="fill-opacity: 0; stroke: #000000; stroke-opacity: 0; stroke-width: 0.8"/>
      </g>
     </g>
     <g id="text_2">
      <!-- 5 -->
      <g style="fill: #666666" transform="translate(227.848783 303.028562) scale(0.1 -0.1)">
       <defs>
        <path id="DejaVuSans-35" d="M 691 4666 
L 3169 4666 
L 3169 4134 
L 1269 4134 
L 1269 2991 
Q 1406 3038 1543 3061 
Q 1681 3084 1819 3084 
Q 2600 3084 3056 2656 
Q 3513 2228 3513 1497 
Q 3513 744 3044 326 
Q 2575 -91 1722 -91 
Q 1428 -91 1123 -41 
Q 819 9 494 109 
L 494 744 
Q 775 591 1075 516 
Q 1375 441 1709 441 
Q 2250 441 2565 725 
Q 2881 1009 2881 1497 
Q 2881 1984 2565 2268 
Q 2250 2553 1709 2553 
Q 1456 2553 1204 2497 
Q 953 2441 691 2322 
L 691 4666 
z
" transform="scale(0.015625)"/>
       </defs>
       <use xlink:href="#DejaVuSans-35"/>
      </g>
     </g>
    </g>
    <g id="xtick_3">
     <g id="line2d_5">
      <path d="M 362.57376 288.430125 
L 362.57376 22.318125 
" clip-path="url(#p2f251a980e)" style="fill: none; stroke-dasharray: 1.85,0.8; stroke-dashoffset: 0; stroke: #666666; stroke-opacity: 0.4; stroke-width: 0.5"/>
     </g>
     <g id="line2d_6">
      <g>
       <use xlink:href="#m0314f7e816" x="362.57376" y="288.430125" style="fill-opacity: 0; stroke: #000000; stroke-opacity: 0; stroke-width: 0.8"/>
      </g>
     </g>
     <g id="text_3">
      <!-- 10 -->
      <g style="fill: #666666" transform="translate(356.21126 303.028562) scale(0.1 -0.1)">
       <defs>
        <path id="DejaVuSans-31" d="M 794 531 
L 1825 531 
L 1825 4091 
L 703 3866 
L 703 4441 
L 1819 4666 
L 2450 4666 
L 2450 531 
L 3481 531 
L 3481 0 
L 794 0 
L 794 531 
z
" transform="scale(0.015625)"/>
       </defs>
       <use xlink:href="#DejaVuSans-31"/>
       <use xlink:href="#DejaVuSans-30" x="63.623047"/>
      </g>
     </g>
    </g>
    <g id="xtick_4">
     <g id="line2d_7">
      <path d="M 494.117486 288.430125 
L 494.117486 22.318125 
" clip-path="url(#p2f251a980e)" style="fill: none; stroke-dasharray: 1.85,0.8; stroke-dashoffset: 0; stroke: #666666; stroke-opacity: 0.4; stroke-width: 0.5"/>
     </g>
     <g id="line2d_8">
      <g>
       <use xlink:href="#m0314f7e816" x="494.117486" y="288.430125" style="fill-opacity: 0; stroke: #000000; stroke-opacity: 0; stroke-width: 0.8"/>
      </g>
     </g>
     <g id="text_4">
      <!-- 15 -->
      <g style="fill: #666666" transform="translate(487.754986 303.028562) scale(0.1 -0.1)">
       <use xlink:href="#DejaVuSans-31"/>
       <use xlink:href="#DejaVuSans-35" x="63.623047"/>
      </g>
     </g>
    </g>
    <g id="xtick_5">
     <g id="line2d_9">
      <path d="M 625.661212 288.430125 
L 625.661212 22.318125 
" clip-path="url(#p2f251a980e)" style="fill: none; stroke-dasharray: 1.85,0.8; stroke-dashoffset: 0; stroke: #666666; stroke-opacity: 0.4; stroke-width: 0.5"/>
     </g>
     <g id="line2d_10">
      <g>
       <use xlink:href="#m0314f7e816" x="625.661212" y="288.430125" style="fill-opacity: 0; stroke: #000000; stroke-opacity: 0; stroke-width: 0.8"/>
      </g>
     </g>
     <g id="text_5">
      <!-- 20 -->
      <g style="fill: #666666" transform="translate(619.298712 303.028562) scale(0.1 -0.1)">
       <defs>
        <path id="DejaVuSans-32" d="M 1228 531 
L 3431 531 
L 3431 0 
L 469 0 
L 469 531 
Q 828 903 1448 1529 
Q 2069 2156 2228 2338 
Q 2531 2678 2651 2914 
Q 2772 3150 2772 3378 
Q 2772 3750 2511 3984 
Q 2250 4219 1831 4219 
Q 1534 4219 1204 4116 
Q 875 4013 500 3803 
L 500 4441 
Q 881 4594 1212 4672 
Q 1544 4750 1819 4750 
Q 2544 4750 2975 4387 
Q 3406 4025 3406 3419 
Q 3406 3131 3298 2873 
Q 3191 2616 2906 2266 
Q 2828 2175 2409 1742 
Q 1991 1309 1228 531 
z
" transform="scale(0.015625)"/>
       </defs>
       <use xlink:href="#DejaVuSans-32"/>
       <use xlink:href="#DejaVuSans-30" x="63.623047"/>
      </g>
     </g>
    </g>
    <g id="xtick_6">
     <g id="line2d_11">
      <path d="M 757.204938 288.430125 
L 757.204938 22.318125 
" clip-path="url(#p2f251a980e)" style="fill: none; stroke-dasharray: 1.85,0.8; stroke-dashoffset: 0; stroke: #666666; stroke-opacity: 0.4; stroke-width: 0.5"/>
     </g>
     <g id="line2d_12">
      <g>
       <use xlink:href="#m0314f7e816" x="757.204938" y="288.430125" style="fill-opacity: 0; stroke: #000000; stroke-opacity: 0; stroke-width: 0.8"/>
      </g>
     </g>
     <g id="text_6">
      <!-- 25 -->
      <g style="fill: #666666" transform="translate(750.842438 303.028562) scale(0.1 -0.1)">
       <use xlink:href="#DejaVuSans-32"/>
       <use xlink:href="#DejaVuSans-35" x="63.623047"/>
      </g>
     </g>
    </g>
   </g>
   <g id="matplotlib.axis_2">
    <g id="ytick_1">
     <g id="line2d_13">
      <path d="M 69.23125 276.334125 
L 761.15125 276.334125 
" clip-path="url(#p2f251a980e)" style="fill: none; stroke-dasharray: 1.85,0.8; stroke-dashoffset: 0; stroke: #666666; stroke-opacity: 0.4; stroke-width: 0.5"/>
     </g>
     <g id="line2d_14">
      <defs>
       <path id="m7924213725" d="M 0 0 
L -3.5 0 
" style="stroke: #000000; stroke-opacity: 0; stroke-width: 0.8"/>
      </defs>
      <g>
       <use xlink:href="#m7924213725" x="69.23125" y="276.334125" style="fill-opacity: 0; stroke: #000000; stroke-opacity: 0; stroke-width: 0.8"/>
      </g>
     </g>
     <g id="text_7">
      <!-- 0.00000 -->
      <g style="fill: #666666" transform="translate(20.878125 280.133344) scale(0.1 -0.1)">
       <defs>
        <path id="DejaVuSans-2e" d="M 684 794 
L 1344 794 
L 1344 0 
L 684 0 
L 684 794 
z
" transform="scale(0.015625)"/>
       </defs>
       <use xlink:href="#DejaVuSans-30"/>
       <use xlink:href="#DejaVuSans-2e" x="63.623047"/>
       <use xlink:href="#DejaVuSans-30" x="95.410156"/>
       <use xlink:href="#DejaVuSans-30" x="159.033203"/>
       <use xlink:href="#DejaVuSans-30" x="222.65625"/>
       <use xlink:href="#DejaVuSans-30" x="286.279297"/>
       <use xlink:href="#DejaVuSans-30" x="349.902344"/>
      </g>
     </g>
    </g>
    <g id="ytick_2">
     <g id="line2d_15">
      <path d="M 69.23125 243.549213 
L 761.15125 243.549213 
" clip-path="url(#p2f251a980e)" style="fill: none; stroke-dasharray: 1.85,0.8; stroke-dashoffset: 0; stroke: #666666; stroke-opacity: 0.4; stroke-width: 0.5"/>
     </g>
     <g id="line2d_16">
      <g>
       <use xlink:href="#m7924213725" x="69.23125" y="243.549213" style="fill-opacity: 0; stroke: #000000; stroke-opacity: 0; stroke-width: 0.8"/>
      </g>
     </g>
     <g id="text_8">
      <!-- 0.00005 -->
      <g style="fill: #666666" transform="translate(20.878125 247.348432) scale(0.1 -0.1)">
       <use xlink:href="#DejaVuSans-30"/>
       <use xlink:href="#DejaVuSans-2e" x="63.623047"/>
       <use xlink:href="#DejaVuSans-30" x="95.410156"/>
       <use xlink:href="#DejaVuSans-30" x="159.033203"/>
       <use xlink:href="#DejaVuSans-30" x="222.65625"/>
       <use xlink:href="#DejaVuSans-30" x="286.279297"/>
       <use xlink:href="#DejaVuSans-35" x="349.902344"/>
      </g>
     </g>
    </g>
    <g id="ytick_3">
     <g id="line2d_17">
      <path d="M 69.23125 210.764302 
L 761.15125 210.764302 
" clip-path="url(#p2f251a980e)" style="fill: none; stroke-dasharray: 1.85,0.8; stroke-dashoffset: 0; stroke: #666666; stroke-opacity: 0.4; stroke-width: 0.5"/>
     </g>
     <g id="line2d_18">
      <g>
       <use xlink:href="#m7924213725" x="69.23125" y="210.764302" style="fill-opacity: 0; stroke: #000000; stroke-opacity: 0; stroke-width: 0.8"/>
      </g>
     </g>
     <g id="text_9">
      <!-- 0.00010 -->
      <g style="fill: #666666" transform="translate(20.878125 214.563521) scale(0.1 -0.1)">
       <use xlink:href="#DejaVuSans-30"/>
       <use xlink:href="#DejaVuSans-2e" x="63.623047"/>
       <use xlink:href="#DejaVuSans-30" x="95.410156"/>
       <use xlink:href="#DejaVuSans-30" x="159.033203"/>
       <use xlink:href="#DejaVuSans-30" x="222.65625"/>
       <use xlink:href="#DejaVuSans-31" x="286.279297"/>
       <use xlink:href="#DejaVuSans-30" x="349.902344"/>
      </g>
     </g>
    </g>
    <g id="ytick_4">
     <g id="line2d_19">
      <path d="M 69.23125 177.97939 
L 761.15125 177.97939 
" clip-path="url(#p2f251a980e)" style="fill: none; stroke-dasharray: 1.85,0.8; stroke-dashoffset: 0; stroke: #666666; stroke-opacity: 0.4; stroke-width: 0.5"/>
     </g>
     <g id="line2d_20">
      <g>
       <use xlink:href="#m7924213725" x="69.23125" y="177.97939" style="fill-opacity: 0; stroke: #000000; stroke-opacity: 0; stroke-width: 0.8"/>
      </g>
     </g>
     <g id="text_10">
      <!-- 0.00015 -->
      <g style="fill: #666666" transform="translate(20.878125 181.778609) scale(0.1 -0.1)">
       <use xlink:href="#DejaVuSans-30"/>
       <use xlink:href="#DejaVuSans-2e" x="63.623047"/>
       <use xlink:href="#DejaVuSans-30" x="95.410156"/>
       <use xlink:href="#DejaVuSans-30" x="159.033203"/>
       <use xlink:href="#DejaVuSans-30" x="222.65625"/>
       <use xlink:href="#DejaVuSans-31" x="286.279297"/>
       <use xlink:href="#DejaVuSans-35" x="349.902344"/>
      </g>
     </g>
    </g>
    <g id="ytick_5">
     <g id="line2d_21">
      <path d="M 69.23125 145.194479 
L 761.15125 145.194479 
" clip-path="url(#p2f251a980e)" style="fill: none; stroke-dasharray: 1.85,0.8; stroke-dashoffset: 0; stroke: #666666; stroke-opacity: 0.4; stroke-width: 0.5"/>
     </g>
     <g id="line2d_22">
      <g>
       <use xlink:href="#m7924213725" x="69.23125" y="145.194479" style="fill-opacity: 0; stroke: #000000; stroke-opacity: 0; stroke-width: 0.8"/>
      </g>
     </g>
     <g id="text_11">
      <!-- 0.00020 -->
      <g style="fill: #666666" transform="translate(20.878125 148.993698) scale(0.1 -0.1)">
       <use xlink:href="#DejaVuSans-30"/>
       <use xlink:href="#DejaVuSans-2e" x="63.623047"/>
       <use xlink:href="#DejaVuSans-30" x="95.410156"/>
       <use xlink:href="#DejaVuSans-30" x="159.033203"/>
       <use xlink:href="#DejaVuSans-30" x="222.65625"/>
       <use xlink:href="#DejaVuSans-32" x="286.279297"/>
       <use xlink:href="#DejaVuSans-30" x="349.902344"/>
      </g>
     </g>
    </g>
    <g id="ytick_6">
     <g id="line2d_23">
      <path d="M 69.23125 112.409567 
L 761.15125 112.409567 
" clip-path="url(#p2f251a980e)" style="fill: none; stroke-dasharray: 1.85,0.8; stroke-dashoffset: 0; stroke: #666666; stroke-opacity: 0.4; stroke-width: 0.5"/>
     </g>
     <g id="line2d_24">
      <g>
       <use xlink:href="#m7924213725" x="69.23125" y="112.409567" style="fill-opacity: 0; stroke: #000000; stroke-opacity: 0; stroke-width: 0.8"/>
      </g>
     </g>
     <g id="text_12">
      <!-- 0.00025 -->
      <g style="fill: #666666" transform="translate(20.878125 116.208786) scale(0.1 -0.1)">
       <use xlink:href="#DejaVuSans-30"/>
       <use xlink:href="#DejaVuSans-2e" x="63.623047"/>
       <use xlink:href="#DejaVuSans-30" x="95.410156"/>
       <use xlink:href="#DejaVuSans-30" x="159.033203"/>
       <use xlink:href="#DejaVuSans-30" x="222.65625"/>
       <use xlink:href="#DejaVuSans-32" x="286.279297"/>
       <use xlink:href="#DejaVuSans-35" x="349.902344"/>
      </g>
     </g>
    </g>
    <g id="ytick_7">
     <g id="line2d_25">
      <path d="M 69.23125 79.624656 
L 761.15125 79.624656 
" clip-path="url(#p2f251a980e)" style="fill: none; stroke-dasharray: 1.85,0.8; stroke-dashoffset: 0; stroke: #666666; stroke-opacity: 0.4; stroke-width: 0.5"/>
     </g>
     <g id="line2d_26">
      <g>
       <use xlink:href="#m7924213725" x="69.23125" y="79.624656" style="fill-opacity: 0; stroke: #000000; stroke-opacity: 0; stroke-width: 0.8"/>
      </g>
     </g>
     <g id="text_13">
      <!-- 0.00030 -->
      <g style="fill: #666666" transform="translate(20.878125 83.423875) scale(0.1 -0.1)">
       <defs>
        <path id="DejaVuSans-33" d="M 2597 2516 
Q 3050 2419 3304 2112 
Q 3559 1806 3559 1356 
Q 3559 666 3084 287 
Q 2609 -91 1734 -91 
Q 1441 -91 1130 -33 
Q 819 25 488 141 
L 488 750 
Q 750 597 1062 519 
Q 1375 441 1716 441 
Q 2309 441 2620 675 
Q 2931 909 2931 1356 
Q 2931 1769 2642 2001 
Q 2353 2234 1838 2234 
L 1294 2234 
L 1294 2753 
L 1863 2753 
Q 2328 2753 2575 2939 
Q 2822 3125 2822 3475 
Q 2822 3834 2567 4026 
Q 2313 4219 1838 4219 
Q 1578 4219 1281 4162 
Q 984 4106 628 3988 
L 628 4550 
Q 988 4650 1302 4700 
Q 1616 4750 1894 4750 
Q 2613 4750 3031 4423 
Q 3450 4097 3450 3541 
Q 3450 3153 3228 2886 
Q 3006 2619 2597 2516 
z
" transform="scale(0.015625)"/>
       </defs>
       <use xlink:href="#DejaVuSans-30"/>
       <use xlink:href="#DejaVuSans-2e" x="63.623047"/>
       <use xlink:href="#DejaVuSans-30" x="95.410156"/>
       <use xlink:href="#DejaVuSans-30" x="159.033203"/>
       <use xlink:href="#DejaVuSans-30" x="222.65625"/>
       <use xlink:href="#DejaVuSans-33" x="286.279297"/>
       <use xlink:href="#DejaVuSans-30" x="349.902344"/>
      </g>
     </g>
    </g>
    <g id="ytick_8">
     <g id="line2d_27">
      <path d="M 69.23125 46.839744 
L 761.15125 46.839744 
" clip-path="url(#p2f251a980e)" style="fill: none; stroke-dasharray: 1.85,0.8; stroke-dashoffset: 0; stroke: #666666; stroke-opacity: 0.4; stroke-width: 0.5"/>
     </g>
     <g id="line2d_28">
      <g>
       <use xlink:href="#m7924213725" x="69.23125" y="46.839744" style="fill-opacity: 0; stroke: #000000; stroke-opacity: 0; stroke-width: 0.8"/>
      </g>
     </g>
     <g id="text_14">
      <!-- 0.00035 -->
      <g style="fill: #666666" transform="translate(20.878125 50.638963) scale(0.1 -0.1)">
       <use xlink:href="#DejaVuSans-30"/>
       <use xlink:href="#DejaVuSans-2e" x="63.623047"/>
       <use xlink:href="#DejaVuSans-30" x="95.410156"/>
       <use xlink:href="#DejaVuSans-30" x="159.033203"/>
       <use xlink:href="#DejaVuSans-30" x="222.65625"/>
       <use xlink:href="#DejaVuSans-33" x="286.279297"/>
       <use xlink:href="#DejaVuSans-35" x="349.902344"/>
      </g>
     </g>
    </g>
    <g id="text_15">
     <!-- dQsin -->
     <g style="fill: #bdbdbd" transform="translate(14.798438 169.646781) rotate(-90) scale(0.1 -0.1)">
      <defs>
       <path id="DejaVuSans-64" d="M 2906 2969 
L 2906 4863 
L 3481 4863 
L 3481 0 
L 2906 0 
L 2906 525 
Q 2725 213 2448 61 
Q 2172 -91 1784 -91 
Q 1150 -91 751 415 
Q 353 922 353 1747 
Q 353 2572 751 3078 
Q 1150 3584 1784 3584 
Q 2172 3584 2448 3432 
Q 2725 3281 2906 2969 
z
M 947 1747 
Q 947 1113 1208 752 
Q 1469 391 1925 391 
Q 2381 391 2643 752 
Q 2906 1113 2906 1747 
Q 2906 2381 2643 2742 
Q 2381 3103 1925 3103 
Q 1469 3103 1208 2742 
Q 947 2381 947 1747 
z
" transform="scale(0.015625)"/>
       <path id="DejaVuSans-51" d="M 2522 4238 
Q 1834 4238 1429 3725 
Q 1025 3213 1025 2328 
Q 1025 1447 1429 934 
Q 1834 422 2522 422 
Q 3209 422 3611 934 
Q 4013 1447 4013 2328 
Q 4013 3213 3611 3725 
Q 3209 4238 2522 4238 
z
M 3406 84 
L 4238 -825 
L 3475 -825 
L 2784 -78 
Q 2681 -84 2626 -87 
Q 2572 -91 2522 -91 
Q 1538 -91 948 567 
Q 359 1225 359 2328 
Q 359 3434 948 4092 
Q 1538 4750 2522 4750 
Q 3503 4750 4090 4092 
Q 4678 3434 4678 2328 
Q 4678 1516 4351 937 
Q 4025 359 3406 84 
z
" transform="scale(0.015625)"/>
       <path id="DejaVuSans-73" d="M 2834 3397 
L 2834 2853 
Q 2591 2978 2328 3040 
Q 2066 3103 1784 3103 
Q 1356 3103 1142 2972 
Q 928 2841 928 2578 
Q 928 2378 1081 2264 
Q 1234 2150 1697 2047 
L 1894 2003 
Q 2506 1872 2764 1633 
Q 3022 1394 3022 966 
Q 3022 478 2636 193 
Q 2250 -91 1575 -91 
Q 1294 -91 989 -36 
Q 684 19 347 128 
L 347 722 
Q 666 556 975 473 
Q 1284 391 1588 391 
Q 1994 391 2212 530 
Q 2431 669 2431 922 
Q 2431 1156 2273 1281 
Q 2116 1406 1581 1522 
L 1381 1569 
Q 847 1681 609 1914 
Q 372 2147 372 2553 
Q 372 3047 722 3315 
Q 1072 3584 1716 3584 
Q 2034 3584 2315 3537 
Q 2597 3491 2834 3397 
z
" transform="scale(0.015625)"/>
       <path id="DejaVuSans-69" d="M 603 3500 
L 1178 3500 
L 1178 0 
L 603 0 
L 603 3500 
z
M 603 4863 
L 1178 4863 
L 1178 4134 
L 603 4134 
L 603 4863 
z
" transform="scale(0.015625)"/>
       <path id="DejaVuSans-6e" d="M 3513 2113 
L 3513 0 
L 2938 0 
L 2938 2094 
Q 2938 2591 2744 2837 
Q 2550 3084 2163 3084 
Q 1697 3084 1428 2787 
Q 1159 2491 1159 1978 
L 1159 0 
L 581 0 
L 581 3500 
L 1159 3500 
L 1159 2956 
Q 1366 3272 1645 3428 
Q 1925 3584 2291 3584 
Q 2894 3584 3203 3211 
Q 3513 2838 3513 2113 
z
" transform="scale(0.015625)"/>
      </defs>
      <use xlink:href="#DejaVuSans-64"/>
      <use xlink:href="#DejaVuSans-51" x="63.476562"/>
      <use xlink:href="#DejaVuSans-73" x="142.1875"/>
      <use xlink:href="#DejaVuSans-69" x="194.287109"/>
      <use xlink:href="#DejaVuSans-6e" x="222.070312"/>
     </g>
    </g>
   </g>
   <g id="line2d_29">
    <path d="M 99.486307 262.022562 
L 125.795052 213.324191 
L 152.103798 247.168143 
L 178.412543 198.967533 
L 204.721288 248.33535 
L 231.030033 258.168962 
L 257.338779 222.358092 
L 283.647524 198.055566 
L 309.956269 208.954902 
L 336.265014 256.980738 
L 362.57376 243.062418 
L 388.882505 192.894791 
L 415.19125 250.037575 
L 441.499995 170.275202 
L 467.80874 214.595124 
L 494.117486 203.849039 
L 520.426231 213.685512 
L 546.734976 188.985903 
L 573.043721 217.384117 
L 599.352467 250.586418 
L 625.661212 200.968618 
L 651.969957 247.781009 
L 678.278702 250.797301 
L 704.587448 207.833399 
" clip-path="url(#p2f251a980e)" style="fill: none; stroke: #4caf50; stroke-width: 1.5; stroke-linecap: square"/>
    <defs>
     <path id="m114e50e11f" d="M 0 1.5 
C 0.397805 1.5 0.77937 1.341951 1.06066 1.06066 
C 1.341951 0.77937 1.5 0.397805 1.5 0 
C 1.5 -0.397805 1.341951 -0.77937 1.06066 -1.06066 
C 0.77937 -1.341951 0.397805 -1.5 0 -1.5 
C -0.397805 -1.5 -0.77937 -1.341951 -1.06066 -1.06066 
C -1.341951 -0.77937 -1.5 -0.397805 -1.5 0 
C -1.5 0.397805 -1.341951 0.77937 -1.06066 1.06066 
C -0.77937 1.341951 -0.397805 1.5 0 1.5 
z
" style="stroke: #4caf50"/>
    </defs>
    <g clip-path="url(#p2f251a980e)">
     <use xlink:href="#m114e50e11f" x="99.486307" y="262.022562" style="fill: #4caf50; stroke: #4caf50"/>
     <use xlink:href="#m114e50e11f" x="125.795052" y="213.324191" style="fill: #4caf50; stroke: #4caf50"/>
     <use xlink:href="#m114e50e11f" x="152.103798" y="247.168143" style="fill: #4caf50; stroke: #4caf50"/>
     <use xlink:href="#m114e50e11f" x="178.412543" y="198.967533" style="fill: #4caf50; stroke: #4caf50"/>
     <use xlink:href="#m114e50e11f" x="204.721288" y="248.33535" style="fill: #4caf50; stroke: #4caf50"/>
     <use xlink:href="#m114e50e11f" x="231.030033" y="258.168962" style="fill: #4caf50; stroke: #4caf50"/>
     <use xlink:href="#m114e50e11f" x="257.338779" y="222.358092" style="fill: #4caf50; stroke: #4caf50"/>
     <use xlink:href="#m114e50e11f" x="283.647524" y="198.055566" style="fill: #4caf50; stroke: #4caf50"/>
     <use xlink:href="#m114e50e11f" x="309.956269" y="208.954902" style="fill: #4caf50; stroke: #4caf50"/>
     <use xlink:href="#m114e50e11f" x="336.265014" y="256.980738" style="fill: #4caf50; stroke: #4caf50"/>
     <use xlink:href="#m114e50e11f" x="362.57376" y="243.062418" style="fill: #4caf50; stroke: #4caf50"/>
     <use xlink:href="#m114e50e11f" x="388.882505" y="192.894791" style="fill: #4caf50; stroke: #4caf50"/>
     <use xlink:href="#m114e50e11f" x="415.19125" y="250.037575" style="fill: #4caf50; stroke: #4caf50"/>
     <use xlink:href="#m114e50e11f" x="441.499995" y="170.275202" style="fill: #4caf50; stroke: #4caf50"/>
     <use xlink:href="#m114e50e11f" x="467.80874" y="214.595124" style="fill: #4caf50; stroke: #4caf50"/>
     <use xlink:href="#m114e50e11f" x="494.117486" y="203.849039" style="fill: #4caf50; stroke: #4caf50"/>
     <use xlink:href="#m114e50e11f" x="520.426231" y="213.685512" style="fill: #4caf50; stroke: #4caf50"/>
     <use xlink:href="#m114e50e11f" x="546.734976" y="188.985903" style="fill: #4caf50; stroke: #4caf50"/>
     <use xlink:href="#m114e50e11f" x="573.043721" y="217.384117" style="fill: #4caf50; stroke: #4caf50"/>
     <use xlink:href="#m114e50e11f" x="599.352467" y="250.586418" style="fill: #4caf50; stroke: #4caf50"/>
     <use xlink:href="#m114e50e11f" x="625.661212" y="200.968618" style="fill: #4caf50; stroke: #4caf50"/>
     <use xlink:href="#m114e50e11f" x="651.969957" y="247.781009" style="fill: #4caf50; stroke: #4caf50"/>
     <use xlink:href="#m114e50e11f" x="678.278702" y="250.797301" style="fill: #4caf50; stroke: #4caf50"/>
     <use xlink:href="#m114e50e11f" x="704.587448" y="207.833399" style="fill: #4caf50; stroke: #4caf50"/>
    </g>
   </g>
   <g id="line2d_30">
    <path d="M 99.486307 246.949005 
L 125.795052 276.334125 
L 152.103798 237.336142 
L 178.412543 201.11244 
L 204.721288 226.427485 
L 231.030033 276.334125 
L 257.338779 211.41531 
L 283.647524 179.018514 
L 309.956269 208.23263 
L 336.265014 246.454883 
L 362.57376 276.334125 
L 388.882505 147.226562 
L 415.19125 276.334125 
L 441.499995 200.751427 
L 467.80874 254.043968 
L 494.117486 188.704736 
L 520.426231 217.596186 
L 546.734976 193.320207 
L 573.043721 210.973152 
L 599.352467 267.423623 
L 625.661212 238.855056 
L 651.969957 269.055006 
L 678.278702 200.751212 
L 704.587448 244.914005 
" clip-path="url(#p2f251a980e)" style="fill: none; stroke: #4caf50; stroke-opacity: 0.6; stroke-width: 0.6; stroke-linecap: square"/>
    <defs>
     <path id="m4f3c0d15a8" d="M 0 1.5 
C 0.397805 1.5 0.77937 1.341951 1.06066 1.06066 
C 1.341951 0.77937 1.5 0.397805 1.5 0 
C 1.5 -0.397805 1.341951 -0.77937 1.06066 -1.06066 
C 0.77937 -1.341951 0.397805 -1.5 0 -1.5 
C -0.397805 -1.5 -0.77937 -1.341951 -1.06066 -1.06066 
C -1.341951 -0.77937 -1.5 -0.397805 -1.5 0 
C -1.5 0.397805 -1.341951 0.77937 -1.06066 1.06066 
C -0.77937 1.341951 -0.397805 1.5 0 1.5 
z
" style="stroke: #4caf50; stroke-opacity: 0.6"/>
    </defs>
    <g clip-path="url(#p2f251a980e)">
     <use xlink:href="#m4f3c0d15a8" x="99.486307" y="246.949005" style="fill: #4caf50; fill-opacity: 0.6; stroke: #4caf50; stroke-opacity: 0.6"/>
     <use xlink:href="#m4f3c0d15a8" x="125.795052" y="276.334125" style="fill: #4caf50; fill-opacity: 0.6; stroke: #4caf50; stroke-opacity: 0.6"/>
     <use xlink:href="#m4f3c0d15a8" x="152.103798" y="237.336142" style="fill: #4caf50; fill-opacity: 0.6; stroke: #4caf50; stroke-opacity: 0.6"/>
     <use xlink:href="#m4f3c0d15a8" x="178.412543" y="201.11244" style="fill: #4caf50; fill-opacity: 0.6; stroke: #4caf50; stroke-opacity: 0.6"/>
     <use xlink:href="#m4f3c0d15a8" x="204.721288" y="226.427485" style="fill: #4caf50; fill-opacity: 0.6; stroke: #4caf50; stroke-opacity: 0.6"/>
     <use xlink:href="#m4f3c0d15a8" x="231.030033" y="276.334125" style="fill: #4caf50; fill-opacity: 0.6; stroke: #4caf50; stroke-opacity: 0.6"/>
     <use xlink:href="#m4f3c0d15a8" x="257.338779" y="211.41531" style="fill: #4caf50; fill-opacity: 0.6; stroke: #4caf50; stroke-opacity: 0.6"/>
     <use xlink:href="#m4f3c0d15a8" x="283.647524" y="179.018514" style="fill: #4caf50; fill-opacity: 0.6; stroke: #4caf50; stroke-opacity: 0.6"/>
     <use xlink:href="#m4f3c0d15a8" x="309.956269" y="208.23263" style="fill: #4caf50; fill-opacity: 0.6; stroke: #4caf50; stroke-opacity: 0.6"/>
     <use xlink:href="#m4f3c0d15a8" x="336.265014" y="246.454883" style="fill: #4caf50; fill-opacity: 0.6; stroke: #4caf50; stroke-opacity: 0.6"/>
     <use xlink:href="#m4f3c0d15a8" x="362.57376" y="276.334125" style="fill: #4caf50; fill-opacity: 0.6; stroke: #4caf50; stroke-opacity: 0.6"/>
     <use xlink:href="#m4f3c0d15a8" x="388.882505" y="147.226562" style="fill: #4caf50; fill-opacity: 0.6; stroke: #4caf50; stroke-opacity: 0.6"/>
     <use xlink:href="#m4f3c0d15a8" x="415.19125" y="276.334125" style="fill: #4caf50; fill-opacity: 0.6; stroke: #4caf50; stroke-opacity: 0.6"/>
     <use xlink:href="#m4f3c0d15a8" x="441.499995" y="200.751427" style="fill: #4caf50; fill-opacity: 0.6; stroke: #4caf50; stroke-opacity: 0.6"/>
     <use xlink:href="#m4f3c0d15a8" x="467.80874" y="254.043968" style="fill: #4caf50; fill-opacity: 0.6; stroke: #4caf50; stroke-opacity: 0.6"/>
     <use xlink:href="#m4f3c0d15a8" x="494.117486" y="188.704736" style="fill: #4caf50; fill-opacity: 0.6; stroke: #4caf50; stroke-opacity: 0.6"/>
     <use xlink:href="#m4f3c0d15a8" x="520.426231" y="217.596186" style="fill: #4caf50; fill-opacity: 0.6; stroke: #4caf50; stroke-opacity: 0.6"/>
     <use xlink:href="#m4f3c0d15a8" x="546.734976" y="193.320207" style="fill: #4caf50; fill-opacity: 0.6; stroke: #4caf50; stroke-opacity: 0.6"/>
     <use xlink:href="#m4f3c0d15a8" x="573.043721" y="210.973152" style="fill: #4caf50; fill-opacity: 0.6; stroke: #4caf50; stroke-opacity: 0.6"/>
     <use xlink:href="#m4f3c0d15a8" x="599.352467" y="267.423623" style="fill: #4caf50; fill-opacity: 0.6; stroke: #4caf50; stroke-opacity: 0.6"/>
     <use xlink:href="#m4f3c0d15a8" x="625.661212" y="238.855056" style="fill: #4caf50; fill-opacity: 0.6; stroke: #4caf50; stroke-opacity: 0.6"/>
     <use xlink:href="#m4f3c0d15a8" x="651.969957" y="269.055006" style="fill: #4caf50; fill-opacity: 0.6; stroke: #4caf50; stroke-opacity: 0.6"/>
     <use xlink:href="#m4f3c0d15a8" x="678.278702" y="200.751212" style="fill: #4caf50; fill-opacity: 0.6; stroke: #4caf50; stroke-opacity: 0.6"/>
     <use xlink:href="#m4f3c0d15a8" x="704.587448" y="244.914005" style="fill: #4caf50; fill-opacity: 0.6; stroke: #4caf50; stroke-opacity: 0.6"/>
    </g>
   </g>
   <g id="line2d_31">
    <path d="M 99.486307 276.334125 
L 125.795052 258.515607 
L 152.103798 209.156654 
L 178.412543 174.973379 
L 204.721288 265.516805 
L 231.030033 212.410413 
L 257.338779 207.860974 
L 283.647524 236.568836 
L 309.956269 203.276484 
L 336.265014 276.334125 
L 362.57376 249.718937 
L 388.882505 226.625799 
L 415.19125 275.960923 
L 441.499995 208.824326 
L 467.80874 234.034222 
L 494.117486 276.334125 
L 520.426231 121.618689 
L 546.734976 206.141731 
L 573.043721 238.667924 
L 599.352467 255.777126 
L 625.661212 266.419782 
L 651.969957 258.570287 
L 678.278702 276.334125 
L 704.587448 185.051238 
" clip-path="url(#p2f251a980e)" style="fill: none; stroke: #4caf50; stroke-opacity: 0.6; stroke-width: 0.6; stroke-linecap: square"/>
    <g clip-path="url(#p2f251a980e)">
     <use xlink:href="#m4f3c0d15a8" x="99.486307" y="276.334125" style="fill: #4caf50; fill-opacity: 0.6; stroke: #4caf50; stroke-opacity: 0.6"/>
     <use xlink:href="#m4f3c0d15a8" x="125.795052" y="258.515607" style="fill: #4caf50; fill-opacity: 0.6; stroke: #4caf50; stroke-opacity: 0.6"/>
     <use xlink:href="#m4f3c0d15a8" x="152.103798" y="209.156654" style="fill: #4caf50; fill-opacity: 0.6; stroke: #4caf50; stroke-opacity: 0.6"/>
     <use xlink:href="#m4f3c0d15a8" x="178.412543" y="174.973379" style="fill: #4caf50; fill-opacity: 0.6; stroke: #4caf50; stroke-opacity: 0.6"/>
     <use xlink:href="#m4f3c0d15a8" x="204.721288" y="265.516805" style="fill: #4caf50; fill-opacity: 0.6; stroke: #4caf50; stroke-opacity: 0.6"/>
     <use xlink:href="#m4f3c0d15a8" x="231.030033" y="212.410413" style="fill: #4caf50; fill-opacity: 0.6; stroke: #4caf50; stroke-opacity: 0.6"/>
     <use xlink:href="#m4f3c0d15a8" x="257.338779" y="207.860974" style="fill: #4caf50; fill-opacity: 0.6; stroke: #4caf50; stroke-opacity: 0.6"/>
     <use xlink:href="#m4f3c0d15a8" x="283.647524" y="236.568836" style="fill: #4caf50; fill-opacity: 0.6; stroke: #4caf50; stroke-opacity: 0.6"/>
     <use xlink:href="#m4f3c0d15a8" x="309.956269" y="203.276484" style="fill: #4caf50; fill-opacity: 0.6; stroke: #4caf50; stroke-opacity: 0.6"/>
     <use xlink:href="#m4f3c0d15a8" x="336.265014" y="276.334125" style="fill: #4caf50; fill-opacity: 0.6; stroke: #4caf50; stroke-opacity: 0.6"/>
     <use xlink:href="#m4f3c0d15a8" x="362.57376" y="249.718937" style="fill: #4caf50; fill-opacity: 0.6; stroke: #4caf50; stroke-opacity: 0.6"/>
     <use xlink:href="#m4f3c0d15a8" x="388.882505" y="226.625799" style="fill: #4caf50; fill-opacity: 0.6; stroke: #4caf50; stroke-opacity: 0.6"/>
     <use xlink:href="#m4f3c0d15a8" x="415.19125" y="275.960923" style="fill: #4caf50; fill-opacity: 0.6; stroke: #4caf50; stroke-opacity: 0.6"/>
     <use xlink:href="#m4f3c0d15a8" x="441.499995" y="208.824326" style="fill: #4caf50; fill-opacity: 0.6; stroke: #4caf50; stroke-opacity: 0.6"/>
     <use xlink:href="#m4f3c0d15a8" x="467.80874" y="234.034222" style="fill: #4caf50; fill-opacity: 0.6; stroke: #4caf50; stroke-opacity: 0.6"/>
     <use xlink:href="#m4f3c0d15a8" x="494.117486" y="276.334125" style="fill: #4caf50; fill-opacity: 0.6; stroke: #4caf50; stroke-opacity: 0.6"/>
     <use xlink:href="#m4f3c0d15a8" x="520.426231" y="121.618689" style="fill: #4caf50; fill-opacity: 0.6; stroke: #4caf50; stroke-opacity: 0.6"/>
     <use xlink:href="#m4f3c0d15a8" x="546.734976" y="206.141731" style="fill: #4caf50; fill-opacity: 0.6; stroke: #4caf50; stroke-opacity: 0.6"/>
     <use xlink:href="#m4f3c0d15a8" x="573.043721" y="238.667924" style="fill: #4caf50; fill-opacity: 0.6; stroke: #4caf50; stroke-opacity: 0.6"/>
     <use xlink:href="#m4f3c0d15a8" x="599.352467" y="255.777126" style="fill: #4caf50; fill-opacity: 0.6; stroke: #4caf50; stroke-opacity: 0.6"/>
     <use xlink:href="#m4f3c0d15a8" x="625.661212" y="266.419782" style="fill: #4caf50; fill-opacity: 0.6; stroke: #4caf50; stroke-opacity: 0.6"/>
     <use xlink:href="#m4f3c0d15a8" x="651.969957" y="258.570287" style="fill: #4caf50; fill-opacity: 0.6; stroke: #4caf50; stroke-opacity: 0.6"/>
     <use xlink:href="#m4f3c0d15a8" x="678.278702" y="276.334125" style="fill: #4caf50; fill-opacity: 0.6; stroke: #4caf50; stroke-opacity: 0.6"/>
     <use xlink:href="#m4f3c0d15a8" x="704.587448" y="185.051238" style="fill: #4caf50; fill-opacity: 0.6; stroke: #4caf50; stroke-opacity: 0.6"/>
    </g>
   </g>
   <g id="line2d_32">
    <path d="M 99.486307 269.210999 
L 125.795052 121.918533 
L 152.103798 265.845652 
L 178.412543 157.788937 
L 204.721288 276.334125 
L 231.030033 276.334125 
L 257.338779 250.262189 
L 283.647524 148.983392 
L 309.956269 147.976368 
L 336.265014 276.334125 
L 362.57376 259.178569 
L 388.882505 276.334125 
L 415.19125 171.521126 
L 441.499995 237.110927 
L 467.80874 276.334125 
L 494.117486 153.910417 
L 520.426231 239.19305 
L 546.734976 149.874838 
L 573.043721 212.65655 
L 599.352467 202.8108 
L 625.661212 110.902958 
L 651.969957 257.414138 
L 678.278702 249.769742 
L 704.587448 125.034229 
" clip-path="url(#p2f251a980e)" style="fill: none; stroke: #4caf50; stroke-opacity: 0.6; stroke-width: 0.6; stroke-linecap: square"/>
    <g clip-path="url(#p2f251a980e)">
     <use xlink:href="#m4f3c0d15a8" x="99.486307" y="269.210999" style="fill: #4caf50; fill-opacity: 0.6; stroke: #4caf50; stroke-opacity: 0.6"/>
     <use xlink:href="#m4f3c0d15a8" x="125.795052" y="121.918533" style="fill: #4caf50; fill-opacity: 0.6; stroke: #4caf50; stroke-opacity: 0.6"/>
     <use xlink:href="#m4f3c0d15a8" x="152.103798" y="265.845652" style="fill: #4caf50; fill-opacity: 0.6; stroke: #4caf50; stroke-opacity: 0.6"/>
     <use xlink:href="#m4f3c0d15a8" x="178.412543" y="157.788937" style="fill: #4caf50; fill-opacity: 0.6; stroke: #4caf50; stroke-opacity: 0.6"/>
     <use xlink:href="#m4f3c0d15a8" x="204.721288" y="276.334125" style="fill: #4caf50; fill-opacity: 0.6; stroke: #4caf50; stroke-opacity: 0.6"/>
     <use xlink:href="#m4f3c0d15a8" x="231.030033" y="276.334125" style="fill: #4caf50; fill-opacity: 0.6; stroke: #4caf50; stroke-opacity: 0.6"/>
     <use xlink:href="#m4f3c0d15a8" x="257.338779" y="250.262189" style="fill: #4caf50; fill-opacity: 0.6; stroke: #4caf50; stroke-opacity: 0.6"/>
     <use xlink:href="#m4f3c0d15a8" x="283.647524" y="148.983392" style="fill: #4caf50; fill-opacity: 0.6; stroke: #4caf50; stroke-opacity: 0.6"/>
     <use xlink:href="#m4f3c0d15a8" x="309.956269" y="147.976368" style="fill: #4caf50; fill-opacity: 0.6; stroke: #4caf50; stroke-opacity: 0.6"/>
     <use xlink:href="#m4f3c0d15a8" x="336.265014" y="276.334125" style="fill: #4caf50; fill-opacity: 0.6; stroke: #4caf50; stroke-opacity: 0.6"/>
     <use xlink:href="#m4f3c0d15a8" x="362.57376" y="259.178569" style="fill: #4caf50; fill-opacity: 0.6; stroke: #4caf50; stroke-opacity: 0.6"/>
     <use xlink:href="#m4f3c0d15a8" x="388.882505" y="276.334125" style="fill: #4caf50; fill-opacity: 0.6; stroke: #4caf50; stroke-opacity: 0.6"/>
     <use xlink:href="#m4f3c0d15a8" x="415.19125" y="171.521126" style="fill: #4caf50; fill-opacity: 0.6; stroke: #4caf50; stroke-opacity: 0.6"/>
     <use xlink:href="#m4f3c0d15a8" x="441.499995" y="237.110927" style="fill: #4caf50; fill-opacity: 0.6; stroke: #4caf50; stroke-opacity: 0.6"/>
     <use xlink:href="#m4f3c0d15a8" x="467.80874" y="276.334125" style="fill: #4caf50; fill-opacity: 0.6; stroke: #4caf50; stroke-opacity: 0.6"/>
     <use xlink:href="#m4f3c0d15a8" x="494.117486" y="153.910417" style="fill: #4caf50; fill-opacity: 0.6; stroke: #4caf50; stroke-opacity: 0.6"/>
     <use xlink:href="#m4f3c0d15a8" x="520.426231" y="239.19305" style="fill: #4caf50; fill-opacity: 0.6; stroke: #4caf50; stroke-opacity: 0.6"/>
     <use xlink:href="#m4f3c0d15a8" x="546.734976" y="149.874838" style="fill: #4caf50; fill-opacity: 0.6; stroke: #4caf50; stroke-opacity: 0.6"/>
     <use xlink:href="#m4f3c0d15a8" x="573.043721" y="212.65655" style="fill: #4caf50; fill-opacity: 0.6; stroke: #4caf50; stroke-opacity: 0.6"/>
     <use xlink:href="#m4f3c0d15a8" x="599.352467" y="202.8108" style="fill: #4caf50; fill-opacity: 0.6; stroke: #4caf50; stroke-opacity: 0.6"/>
     <use xlink:href="#m4f3c0d15a8" x="625.661212" y="110.902958" style="fill: #4caf50; fill-opacity: 0.6; stroke: #4caf50; stroke-opacity: 0.6"/>
     <use xlink:href="#m4f3c0d15a8" x="651.969957" y="257.414138" style="fill: #4caf50; fill-opacity: 0.6; stroke: #4caf50; stroke-opacity: 0.6"/>
     <use xlink:href="#m4f3c0d15a8" x="678.278702" y="249.769742" style="fill: #4caf50; fill-opacity: 0.6; stroke: #4caf50; stroke-opacity: 0.6"/>
     <use xlink:href="#m4f3c0d15a8" x="704.587448" y="125.034229" style="fill: #4caf50; fill-opacity: 0.6; stroke: #4caf50; stroke-opacity: 0.6"/>
    </g>
   </g>
   <g id="line2d_33">
    <path d="M 99.486307 255.596118 
L 125.795052 196.528499 
L 152.103798 276.334125 
L 178.412543 261.995376 
L 204.721288 225.062984 
L 231.030033 267.597185 
L 257.338779 219.893895 
L 283.647524 227.651523 
L 309.956269 276.334125 
L 336.265014 228.799818 
L 362.57376 187.01804 
L 388.882505 121.39268 
L 415.19125 276.334125 
L 441.499995 34.414125 
L 467.80874 93.968183 
L 494.117486 196.44688 
L 520.426231 276.334125 
L 546.734976 206.606836 
L 573.043721 207.238841 
L 599.352467 276.334125 
L 625.661212 187.696676 
L 651.969957 206.084604 
L 678.278702 276.334125 
L 704.587448 276.334125 
" clip-path="url(#p2f251a980e)" style="fill: none; stroke: #4caf50; stroke-opacity: 0.6; stroke-width: 0.6; stroke-linecap: square"/>
    <g clip-path="url(#p2f251a980e)">
     <use xlink:href="#m4f3c0d15a8" x="99.486307" y="255.596118" style="fill: #4caf50; fill-opacity: 0.6; stroke: #4caf50; stroke-opacity: 0.6"/>
     <use xlink:href="#m4f3c0d15a8" x="125.795052" y="196.528499" style="fill: #4caf50; fill-opacity: 0.6; stroke: #4caf50; stroke-opacity: 0.6"/>
     <use xlink:href="#m4f3c0d15a8" x="152.103798" y="276.334125" style="fill: #4caf50; fill-opacity: 0.6; stroke: #4caf50; stroke-opacity: 0.6"/>
     <use xlink:href="#m4f3c0d15a8" x="178.412543" y="261.995376" style="fill: #4caf50; fill-opacity: 0.6; stroke: #4caf50; stroke-opacity: 0.6"/>
     <use xlink:href="#m4f3c0d15a8" x="204.721288" y="225.062984" style="fill: #4caf50; fill-opacity: 0.6; stroke: #4caf50; stroke-opacity: 0.6"/>
     <use xlink:href="#m4f3c0d15a8" x="231.030033" y="267.597185" style="fill: #4caf50; fill-opacity: 0.6; stroke: #4caf50; stroke-opacity: 0.6"/>
     <use xlink:href="#m4f3c0d15a8" x="257.338779" y="219.893895" style="fill: #4caf50; fill-opacity: 0.6; stroke: #4caf50; stroke-opacity: 0.6"/>
     <use xlink:href="#m4f3c0d15a8" x="283.647524" y="227.651523" style="fill: #4caf50; fill-opacity: 0.6; stroke: #4caf50; stroke-opacity: 0.6"/>
     <use xlink:href="#m4f3c0d15a8" x="309.956269" y="276.334125" style="fill: #4caf50; fill-opacity: 0.6; stroke: #4caf50; stroke-opacity: 0.6"/>
     <use xlink:href="#m4f3c0d15a8" x="336.265014" y="228.799818" style="fill: #4caf50; fill-opacity: 0.6; stroke: #4caf50; stroke-opacity: 0.6"/>
     <use xlink:href="#m4f3c0d15a8" x="362.57376" y="187.01804" style="fill: #4caf50; fill-opacity: 0.6; stroke: #4caf50; stroke-opacity: 0.6"/>
     <use xlink:href="#m4f3c0d15a8" x="388.882505" y="121.39268" style="fill: #4caf50; fill-opacity: 0.6; stroke: #4caf50; stroke-opacity: 0.6"/>
     <use xlink:href="#m4f3c0d15a8" x="415.19125" y="276.334125" style="fill: #4caf50; fill-opacity: 0.6; stroke: #4caf50; stroke-opacity: 0.6"/>
     <use xlink:href="#m4f3c0d15a8" x="441.499995" y="34.414125" style="fill: #4caf50; fill-opacity: 0.6; stroke: #4caf50; stroke-opacity: 0.6"/>
     <use xlink:href="#m4f3c0d15a8" x="467.80874" y="93.968183" style="fill: #4caf50; fill-opacity: 0.6; stroke: #4caf50; stroke-opacity: 0.6"/>
     <use xlink:href="#m4f3c0d15a8" x="494.117486" y="196.44688" style="fill: #4caf50; fill-opacity: 0.6; stroke: #4caf50; stroke-opacity: 0.6"/>
     <use xlink:href="#m4f3c0d15a8" x="520.426231" y="276.334125" style="fill: #4caf50; fill-opacity: 0.6; stroke: #4caf50; stroke-opacity: 0.6"/>
     <use xlink:href="#m4f3c0d15a8" x="546.734976" y="206.606836" style="fill: #4caf50; fill-opacity: 0.6; stroke: #4caf50; stroke-opacity: 0.6"/>
     <use xlink:href="#m4f3c0d15a8" x="573.043721" y="207.238841" style="fill: #4caf50; fill-opacity: 0.6; stroke: #4caf50; stroke-opacity: 0.6"/>
     <use xlink:href="#m4f3c0d15a8" x="599.352467" y="276.334125" style="fill: #4caf50; fill-opacity: 0.6; stroke: #4caf50; stroke-opacity: 0.6"/>
     <use xlink:href="#m4f3c0d15a8" x="625.661212" y="187.696676" style="fill: #4caf50; fill-opacity: 0.6; stroke: #4caf50; stroke-opacity: 0.6"/>
     <use xlink:href="#m4f3c0d15a8" x="651.969957" y="206.084604" style="fill: #4caf50; fill-opacity: 0.6; stroke: #4caf50; stroke-opacity: 0.6"/>
     <use xlink:href="#m4f3c0d15a8" x="678.278702" y="276.334125" style="fill: #4caf50; fill-opacity: 0.6; stroke: #4caf50; stroke-opacity: 0.6"/>
     <use xlink:href="#m4f3c0d15a8" x="704.587448" y="276.334125" style="fill: #4caf50; fill-opacity: 0.6; stroke: #4caf50; stroke-opacity: 0.6"/>
    </g>
   </g>
   <g id="patch_3">
    <path d="M 69.23125 288.430125 
L 69.23125 22.318125 
" style="fill: none"/>
   </g>
   <g id="patch_4">
    <path d="M 761.15125 288.430125 
L 761.15125 22.318125 
" style="fill: none"/>
   </g>
   <g id="patch_5">
    <path d="M 69.23125 288.430125 
L 761.15125 288.430125 
" style="fill: none"/>
   </g>
   <g id="patch_6">
    <path d="M 69.23125 22.318125 
L 761.15125 22.318125 
" style="fill: none"/>
   </g>
   <g id="text_16">
    <!-- Evaluate -->
    <g style="fill: #666666" transform="translate(388.981563 16.318125) scale(0.12 -0.12)">
     <defs>
      <path id="DejaVuSans-45" d="M 628 4666 
L 3578 4666 
L 3578 4134 
L 1259 4134 
L 1259 2753 
L 3481 2753 
L 3481 2222 
L 1259 2222 
L 1259 531 
L 3634 531 
L 3634 0 
L 628 0 
L 628 4666 
z
" transform="scale(0.015625)"/>
      <path id="DejaVuSans-76" d="M 191 3500 
L 800 3500 
L 1894 563 
L 2988 3500 
L 3597 3500 
L 2284 0 
L 1503 0 
L 191 3500 
z
" transform="scale(0.015625)"/>
      <path id="DejaVuSans-61" d="M 2194 1759 
Q 1497 1759 1228 1600 
Q 959 1441 959 1056 
Q 959 750 1161 570 
Q 1363 391 1709 391 
Q 2188 391 2477 730 
Q 2766 1069 2766 1631 
L 2766 1759 
L 2194 1759 
z
M 3341 1997 
L 3341 0 
L 2766 0 
L 2766 531 
Q 2569 213 2275 61 
Q 1981 -91 1556 -91 
Q 1019 -91 701 211 
Q 384 513 384 1019 
Q 384 1609 779 1909 
Q 1175 2209 1959 2209 
L 2766 2209 
L 2766 2266 
Q 2766 2663 2505 2880 
Q 2244 3097 1772 3097 
Q 1472 3097 1187 3025 
Q 903 2953 641 2809 
L 641 3341 
Q 956 3463 1253 3523 
Q 1550 3584 1831 3584 
Q 2591 3584 2966 3190 
Q 3341 2797 3341 1997 
z
" transform="scale(0.015625)"/>
      <path id="DejaVuSans-6c" d="M 603 4863 
L 1178 4863 
L 1178 0 
L 603 0 
L 603 4863 
z
" transform="scale(0.015625)"/>
      <path id="DejaVuSans-75" d="M 544 1381 
L 544 3500 
L 1119 3500 
L 1119 1403 
Q 1119 906 1312 657 
Q 1506 409 1894 409 
Q 2359 409 2629 706 
Q 2900 1003 2900 1516 
L 2900 3500 
L 3475 3500 
L 3475 0 
L 2900 0 
L 2900 538 
Q 2691 219 2414 64 
Q 2138 -91 1772 -91 
Q 1169 -91 856 284 
Q 544 659 544 1381 
z
M 1991 3584 
L 1991 3584 
z
" transform="scale(0.015625)"/>
      <path id="DejaVuSans-74" d="M 1172 4494 
L 1172 3500 
L 2356 3500 
L 2356 3053 
L 1172 3053 
L 1172 1153 
Q 1172 725 1289 603 
Q 1406 481 1766 481 
L 2356 481 
L 2356 0 
L 1766 0 
Q 1100 0 847 248 
Q 594 497 594 1153 
L 594 3053 
L 172 3053 
L 172 3500 
L 594 3500 
L 594 4494 
L 1172 4494 
z
" transform="scale(0.015625)"/>
      <path id="DejaVuSans-65" d="M 3597 1894 
L 3597 1613 
L 953 1613 
Q 991 1019 1311 708 
Q 1631 397 2203 397 
Q 2534 397 2845 478 
Q 3156 559 3463 722 
L 3463 178 
Q 3153 47 2828 -22 
Q 2503 -91 2169 -91 
Q 1331 -91 842 396 
Q 353 884 353 1716 
Q 353 2575 817 3079 
Q 1281 3584 2069 3584 
Q 2775 3584 3186 3129 
Q 3597 2675 3597 1894 
z
M 3022 2063 
Q 3016 2534 2758 2815 
Q 2500 3097 2075 3097 
Q 1594 3097 1305 2825 
Q 1016 2553 972 2059 
L 3022 2063 
z
" transform="scale(0.015625)"/>
     </defs>
     <use xlink:href="#DejaVuSans-45"/>
     <use xlink:href="#DejaVuSans-76" x="63.183594"/>
     <use xlink:href="#DejaVuSans-61" x="122.363281"/>
     <use xlink:href="#DejaVuSans-6c" x="183.642578"/>
     <use xlink:href="#DejaVuSans-75" x="211.425781"/>
     <use xlink:href="#DejaVuSans-61" x="274.804688"/>
     <use xlink:href="#DejaVuSans-74" x="336.083984"/>
     <use xlink:href="#DejaVuSans-65" x="375.292969"/>
    </g>
   </g>
  </g>
 </g>
 <defs>
  <clipPath id="p2f251a980e">
   <rect x="69.23125" y="22.318125" width="691.92" height="266.112"/>
  </clipPath>
 </defs>
</svg>
