<svg version="1.1" xmlns="http://www.w3.org/2000/svg" viewBox="0 0 70.36310476280119 73.01767693648196" width="140.72620952560237" height="146.03535387296392" filter="invert(93%) hue-rotate(180deg)">
  <!-- svg-source:excalidraw -->
  
  <defs>
    <style>
      @font-face {
        font-family: "Virgil";
        src: url("https://excalidraw.com/Virgil.woff2");
      }
      @font-face {
        font-family: "Cascadia";
        src: url("https://excalidraw.com/Cascadia.woff2");
      }
    </style>
  </defs>
  <g stroke-linecap="round" transform="translate(10 10) rotate(0 25.181552381400593 26.50883846824098)"><path d="M0 0 C0 0, 0 0, 0 0 M0 0 C0 0, 0 0, 0 0 M-0.26 6.4 C1.46 4.42, 3.18 2.44, 4.99 0.36 M-0.26 6.4 C1.72 4.12, 3.71 1.83, 4.99 0.36 M0.13 12.04 C3.83 7.79, 7.53 3.54, 10.63 -0.03 M0.13 12.04 C2.49 9.33, 4.84 6.62, 10.63 -0.03 M-0.13 18.44 C3.9 13.8, 7.94 9.16, 15.62 0.33 M-0.13 18.44 C5.64 11.8, 11.41 5.16, 15.62 0.33 M0.27 24.08 C6.48 16.93, 12.69 9.79, 21.26 -0.07 M0.27 24.08 C8.52 14.58, 16.78 5.09, 21.26 -0.07 M0 30.48 C8.74 20.44, 17.47 10.39, 26.25 0.29 M0 30.48 C7.17 22.23, 14.34 13.99, 26.25 0.29 M-0.26 36.88 C9.82 25.28, 19.9 13.68, 31.89 -0.1 M-0.26 36.88 C11.73 23.09, 23.72 9.3, 31.89 -0.1 M0.14 42.52 C13.11 27.6, 26.08 12.67, 36.88 0.26 M0.14 42.52 C10.29 30.84, 20.45 19.16, 36.88 0.26 M-0.12 48.92 C9.03 38.39, 18.17 27.87, 42.52 -0.14 M-0.12 48.92 C8.54 38.96, 17.19 29, 42.52 -0.14 M0.93 53.81 C19.14 32.86, 37.35 11.91, 47.51 0.22 M0.93 53.81 C11.5 41.65, 22.06 29.49, 47.51 0.22 M5.91 54.17 C23.67 33.74, 41.43 13.32, 51.84 1.34 M5.91 54.17 C19.47 38.58, 33.02 22.99, 51.84 1.34 M11.56 53.77 C27.49 35.44, 43.42 17.12, 51.58 7.73 M11.56 53.77 C21.44 42.4, 31.32 31.03, 51.58 7.73 M16.54 54.13 C30.56 38.01, 44.58 21.88, 51.97 13.38 M16.54 54.13 C24.78 44.66, 33.01 35.19, 51.97 13.38 M22.19 53.74 C28.22 46.79, 34.26 39.85, 51.71 19.78 M22.19 53.74 C31.96 42.5, 41.73 31.26, 51.71 19.78 M27.17 54.1 C36.79 43.03, 46.41 31.97, 52.1 25.42 M27.17 54.1 C36.41 43.48, 45.64 32.86, 52.1 25.42 M32.82 53.7 C38.87 46.74, 44.92 39.78, 51.84 31.82 M32.82 53.7 C39.38 46.15, 45.95 38.6, 51.84 31.82 M37.8 54.06 C41.65 49.64, 45.49 45.22, 51.58 38.21 M37.8 54.06 C41.05 50.33, 44.3 46.59, 51.58 38.21 M43.45 53.67 C46.22 50.48, 49 47.29, 51.98 43.86 M43.45 53.67 C45.39 51.44, 47.32 49.21, 51.98 43.86 M48.43 54.03 C49.67 52.61, 50.9 51.2, 51.71 50.26 M48.43 54.03 C49.51 52.79, 50.58 51.56, 51.71 50.26 M0.16 53.16 C0.16 53.16, 0.16 53.16, 0.16 53.16 M0.16 53.16 C0.16 53.16, 0.16 53.16, 0.16 53.16 M5.81 52.77 C3.67 50.91, 1.54 49.05, -0.23 47.52 M5.81 52.77 C3.89 51.1, 1.98 49.44, -0.23 47.52 M12.2 53.03 C7.92 49.3, 3.63 45.57, 0.13 42.53 M12.2 53.03 C8.49 49.8, 4.78 46.57, 0.13 42.53 M18.6 53.29 C13.51 48.86, 8.41 44.43, -0.27 36.89 M18.6 53.29 C13.95 49.24, 9.29 45.2, -0.27 36.89 M24.25 52.89 C16.01 45.74, 7.78 38.58, 0.09 31.9 M24.25 52.89 C16.02 45.74, 7.78 38.58, 0.09 31.9 M30.64 53.16 C19.53 43.49, 8.41 33.83, -0.3 26.26 M30.64 53.16 C20.4 44.25, 10.16 35.35, -0.3 26.26 M36.29 52.76 C23.74 41.86, 11.2 30.95, 0.06 21.27 M36.29 52.76 C24.94 42.9, 13.59 33.03, 0.06 21.27 M42.68 53.02 C32.61 44.27, 22.54 35.51, -0.33 15.63 M42.68 53.02 C27.35 39.69, 12.01 26.35, -0.33 15.63 M49.08 53.28 C32.02 38.45, 14.96 23.63, 0.03 10.64 M49.08 53.28 C33.28 39.55, 17.48 25.81, 0.03 10.64 M52.46 50.92 C37.38 37.81, 22.3 24.71, -0.37 5 M52.46 50.92 C37.58 37.99, 22.7 25.05, -0.37 5 M52.07 45.28 C41.63 36.21, 31.19 27.13, -0.01 0.01 M52.07 45.28 C34.54 30.04, 17 14.8, -0.01 0.01 M52.43 40.29 C38.37 28.08, 24.32 15.86, 2.62 -3.01 M52.43 40.29 C40.64 30.05, 28.86 19.8, 2.62 -3.01 M52.03 34.65 C41.82 25.77, 31.62 16.9, 9.01 -2.75 M52.03 34.65 C34.91 19.76, 17.78 4.88, 9.01 -2.75 M52.39 29.66 C38.38 17.48, 24.36 5.3, 14.66 -3.14 M52.39 29.66 C40.19 19.05, 27.98 8.44, 14.66 -3.14 M52 24.02 C43.66 16.77, 35.31 9.51, 21.05 -2.88 M52 24.02 C45.21 18.12, 38.42 12.22, 21.05 -2.88 M52.36 19.03 C45.21 12.82, 38.07 6.61, 26.7 -3.28 M52.36 19.03 C46.81 14.21, 41.27 9.39, 26.7 -3.28 M51.96 13.39 C44.67 7.05, 37.37 0.71, 33.1 -3.01 M51.96 13.39 C44.69 7.06, 37.42 0.74, 33.1 -3.01 M52.32 8.4 C48.39 4.98, 44.45 1.56, 39.49 -2.75 M52.32 8.4 C47.7 4.38, 43.07 0.36, 39.49 -2.75 M51.93 2.76 C49.51 0.66, 47.1 -1.44, 45.14 -3.15 M51.93 2.76 C49.53 0.67, 47.13 -1.41, 45.14 -3.15" stroke="#00ccff" stroke-width="0.5" fill="none"/><path d="M0 0 C17.07 0, 34.13 0, 50.36 0 M0 0 C18.39 0, 36.78 0, 50.36 0 M50.36 0 C50.36 17.19, 50.36 34.38, 50.36 53.02 M50.36 0 C50.36 21.18, 50.36 42.36, 50.36 53.02 M50.36 53.02 C33.35 53.02, 16.33 53.02, 0 53.02 M50.36 53.02 C39.27 53.02, 28.17 53.02, 0 53.02 M0 53.02 C0 40.81, 0 28.6, 0 0 M0 53.02 C0 42.39, 0 31.75, 0 0" stroke="#00ccff" stroke-width="1" fill="none"/></g><g transform="translate(10.594496070935918 23.00260846621245) rotate(0 18.905945263642806 16.492420336369264)"><text x="0" y="25.984840672738514" font-family="Helvetica, Segoe UI Emoji" font-size="28.962299127282613px" fill="#1c1c1c" text-anchor="start" style="white-space: pre;" direction="ltr">SF</text></g></svg>