<svg data-v-423bf9ae="" xmlns="http://www.w3.org/2000/svg" viewBox="0 0 194 90" class="iconLeft"><!----><!----><!----><g data-v-423bf9ae="" id="f2c61c83-09b7-4af6-a4fd-0ea72197124b" fill="#9e9e9e" transform="matrix(5.917159557342529,0,0,5.917159557342529,106.6864013671875,-15.05916690826416)"><path d="M3.84 15.22C6.29 15.22 7.36 13.96 7.36 12.53C7.36 10.88 6.02 10.04 4.65 9.30C3.05 8.41 2.45 7.90 2.45 6.94C2.45 5.98 3.26 5.70 3.93 5.70C4.93 5.70 5.50 6.16 5.63 6.79C5.70 7.01 5.74 7.28 5.71 7.53C5.87 7.56 6.06 7.57 6.20 7.56C6.85 7.53 7.06 7.17 7.06 6.75C7.06 5.66 5.84 5.08 4.13 5.08C2.39 5.08 0.91 5.77 0.91 7.52C0.91 9.10 2.00 9.84 3.72 10.82C5.05 11.56 5.75 12.07 5.75 13.08C5.75 14.11 5.01 14.59 4.05 14.59C2.73 14.59 2.06 13.82 1.95 12.96C1.92 12.73 1.92 12.47 1.96 12.26C0.90 12.11 0.56 12.61 0.56 13.22C0.56 14.34 1.58 15.22 3.84 15.22ZM14.46 5.28L10.35 5.28C9.62 5.28 9.27 5.35 8.86 5.70C9.07 6.24 9.11 6.83 9.11 7.38L9.11 14.35C9.11 14.88 9.52 15.22 10.07 15.22C10.53 15.22 10.88 14.98 11.02 14.84C10.81 14.29 10.78 13.68 10.78 13.13L10.77 10.44L13.89 10.44C13.94 10.19 13.97 9.86 13.89 9.53L10.77 9.53L10.75 6.09C12.01 6.13 13.23 6.37 14.28 6.72C14.73 6.52 14.94 5.28 14.46 5.28Z"></path></g><defs data-v-423bf9ae=""><linearGradient data-v-423bf9ae="" gradientTransform="rotate(25)" id="c80e02a1-a1fa-46b9-8335-b2e13214cee3" x1="0%" y1="0%" x2="100%" y2="0%"><stop data-v-423bf9ae="" offset="0%" style="stop-color: rgb(0, 204, 255); stop-opacity: 1;"></stop><stop data-v-423bf9ae="" offset="100%" style="stop-color: rgb(249, 38, 114); stop-opacity: 1;"></stop></linearGradient></defs><g data-v-423bf9ae="" id="b5fb3338-5c1a-42ef-9a3f-309a1df6d614" transform="matrix(1.6363637447357178,0,0,1.6363637447357178,0.9999970197677612,1.408839125360828e-7)" stroke="none" fill="url(#c80e02a1-a1fa-46b9-8335-b2e13214cee3)"><path d="M49 0c-3.309 0-6 2.691-6 6 0 1.035.263 2.009.726 2.86l-9.829 9.829a7.943 7.943 0 0 0-9.795-.001l-7.669-7.669A3.947 3.947 0 0 0 17 9c0-2.206-1.794-4-4-4S9 6.794 9 9s1.794 4 4 4c.74 0 1.424-.215 2.019-.567l7.669 7.669a7.953 7.953 0 0 0 0 9.795L10.024 42.562A5.971 5.971 0 0 0 6 41c-3.309 0-6 2.691-6 6s2.691 6 6 6 6-2.691 6-6a5.966 5.966 0 0 0-.726-2.86l12.829-12.829a7.953 7.953 0 0 0 3.898 1.619v10.16c-2.833.478-5 2.942-5 5.91 0 3.309 2.691 6 6 6s6-2.691 6-6c0-2.967-2.167-5.431-5-5.91V32.93a7.953 7.953 0 0 0 3.898-1.619l7.669 7.669A3.945 3.945 0 0 0 41 41c0 2.206 1.794 4 4 4s4-1.794 4-4-1.794-4-4-4c-.74 0-1.424.215-2.019.567l-7.669-7.669a7.953 7.953 0 0 0 0-9.795l9.665-9.665A5.967 5.967 0 0 0 49 12c3.309 0 6-2.691 6-6s-2.691-6-6-6zM11 9c0-1.103.897-2 2-2s2 .897 2 2-.897 2-2 2-2-.897-2-2zM6 51c-2.206 0-4-1.794-4-4s1.794-4 4-4 4 1.794 4 4-1.794 4-4 4zm27-2c0 2.206-1.794 4-4 4s-4-1.794-4-4 1.794-4 4-4 4 1.794 4 4zm-4-18c-3.309 0-6-2.691-6-6s2.691-6 6-6 6 2.691 6 6-2.691 6-6 6zm18 10c0 1.103-.897 2-2 2s-2-.897-2-2 .897-2 2-2 2 .897 2 2zm2-31c-2.206 0-4-1.794-4-4s1.794-4 4-4 4 1.794 4 4-1.794 4-4 4z"></path></g><!----></svg>