<?xml version="1.0" encoding="utf-8" standalone="no"?>
<!DOCTYPE svg PUBLIC "-//W3C//DTD SVG 1.1//EN"
  "http://www.w3.org/Graphics/SVG/1.1/DTD/svg11.dtd">
<svg xmlns:xlink="http://www.w3.org/1999/xlink" width="430.757251pt" height="311.948pt" viewBox="0 0 430.757251 311.948" xmlns="http://www.w3.org/2000/svg" version="1.1">
 <metadata>
  <rdf:RDF xmlns:dc="http://purl.org/dc/elements/1.1/" xmlns:cc="http://creativecommons.org/ns#" xmlns:rdf="http://www.w3.org/1999/02/22-rdf-syntax-ns#">
   <cc:Work>
    <dc:type rdf:resource="http://purl.org/dc/dcmitype/StillImage"/>
    <dc:date>2024-07-04T21:20:39.504255</dc:date>
    <dc:format>image/svg+xml</dc:format>
    <dc:creator>
     <cc:Agent>
      <dc:title>Matplotlib v3.8.4, https://matplotlib.org/</dc:title>
     </cc:Agent>
    </dc:creator>
   </cc:Work>
  </rdf:RDF>
 </metadata>
 <defs>
  <style type="text/css">*{stroke-linejoin: round; stroke-linecap: butt}</style>
 </defs>
 <g id="figure_1">
  <g id="patch_1">
   <path d="M 0 311.948 
L 430.757251 311.948 
L 430.757251 0 
L 0 0 
L 0 311.948 
z
" style="fill: none"/>
  </g>
  <g id="axes_1">
   <g id="patch_2">
    <path d="M 65.244375 289.968 
L 422.364375 289.968 
L 422.364375 23.856 
L 65.244375 23.856 
L 65.244375 289.968 
z
" style="fill: none"/>
   </g>
   <g id="matplotlib.axis_1">
    <g id="xtick_1">
     <g id="line2d_1">
      <path d="M 81.477102 289.968 
L 81.477102 23.856 
" clip-path="url(#p03c5f2bee1)" style="fill: none; stroke-dasharray: 1.48,0.64; stroke-dashoffset: 0; stroke: #838383; stroke-opacity: 0.25; stroke-width: 0.4"/>
     </g>
     <g id="line2d_2"/>
     <g id="text_1">
      <!-- 0 -->
      <g style="fill: #838383" transform="translate(77.877102 302.348) scale(0.12 -0.12)">
       <defs>
        <path id="IBMPlexSans-Regular-30" d="M 1920 -77 
Q 1120 -77 752 531 
Q 384 1139 384 2234 
Q 384 3328 752 3936 
Q 1120 4544 1920 4544 
Q 2720 4544 3088 3936 
Q 3456 3328 3456 2234 
Q 3456 1139 3088 531 
Q 2720 -77 1920 -77 
z
M 1920 390 
Q 2182 390 2368 499 
Q 2554 608 2669 806 
Q 2784 1005 2838 1273 
Q 2893 1542 2893 1869 
L 2893 2598 
Q 2893 2925 2838 3193 
Q 2784 3462 2669 3660 
Q 2554 3859 2368 3968 
Q 2182 4077 1920 4077 
Q 1658 4077 1472 3968 
Q 1286 3859 1171 3660 
Q 1056 3462 1001 3193 
Q 947 2925 947 2598 
L 947 1869 
Q 947 1542 1001 1273 
Q 1056 1005 1171 806 
Q 1286 608 1472 499 
Q 1658 390 1920 390 
z
" transform="scale(0.015625)"/>
       </defs>
       <use xlink:href="#IBMPlexSans-Regular-30"/>
      </g>
     </g>
    </g>
    <g id="xtick_2">
     <g id="line2d_3">
      <path d="M 147.733132 289.968 
L 147.733132 23.856 
" clip-path="url(#p03c5f2bee1)" style="fill: none; stroke-dasharray: 1.48,0.64; stroke-dashoffset: 0; stroke: #838383; stroke-opacity: 0.25; stroke-width: 0.4"/>
     </g>
     <g id="line2d_4"/>
     <g id="text_2">
      <!-- 20 -->
      <g style="fill: #838383" transform="translate(140.533132 302.348) scale(0.12 -0.12)">
       <defs>
        <path id="IBMPlexSans-Regular-32" d="M 3411 0 
L 480 0 
L 480 550 
L 1939 1894 
Q 2253 2182 2464 2505 
Q 2675 2829 2675 3155 
L 2675 3232 
Q 2675 3603 2470 3833 
Q 2266 4064 1850 4064 
Q 1645 4064 1491 4006 
Q 1338 3949 1226 3846 
Q 1114 3744 1040 3606 
Q 966 3469 922 3309 
L 442 3494 
Q 506 3693 618 3881 
Q 730 4070 899 4217 
Q 1069 4365 1309 4454 
Q 1549 4544 1875 4544 
Q 2202 4544 2458 4448 
Q 2714 4352 2886 4179 
Q 3059 4006 3152 3769 
Q 3245 3533 3245 3245 
Q 3245 2982 3171 2758 
Q 3098 2534 2970 2332 
Q 2842 2131 2659 1939 
Q 2477 1747 2266 1555 
L 1062 474 
L 3411 474 
L 3411 0 
z
" transform="scale(0.015625)"/>
       </defs>
       <use xlink:href="#IBMPlexSans-Regular-32"/>
       <use xlink:href="#IBMPlexSans-Regular-30" x="59.999985"/>
      </g>
     </g>
    </g>
    <g id="xtick_3">
     <g id="line2d_5">
      <path d="M 213.989162 289.968 
L 213.989162 23.856 
" clip-path="url(#p03c5f2bee1)" style="fill: none; stroke-dasharray: 1.48,0.64; stroke-dashoffset: 0; stroke: #838383; stroke-opacity: 0.25; stroke-width: 0.4"/>
     </g>
     <g id="line2d_6"/>
     <g id="text_3">
      <!-- 40 -->
      <g style="fill: #838383" transform="translate(206.789162 302.348) scale(0.12 -0.12)">
       <defs>
        <path id="IBMPlexSans-Regular-34" d="M 2400 0 
L 2400 877 
L 243 877 
L 243 1350 
L 2112 4467 
L 2912 4467 
L 2912 1325 
L 3558 1325 
L 3558 877 
L 2912 877 
L 2912 0 
L 2400 0 
z
M 749 1325 
L 2400 1325 
L 2400 4051 
L 2368 4051 
L 749 1325 
z
" transform="scale(0.015625)"/>
       </defs>
       <use xlink:href="#IBMPlexSans-Regular-34"/>
       <use xlink:href="#IBMPlexSans-Regular-30" x="59.999985"/>
      </g>
     </g>
    </g>
    <g id="xtick_4">
     <g id="line2d_7">
      <path d="M 280.245191 289.968 
L 280.245191 23.856 
" clip-path="url(#p03c5f2bee1)" style="fill: none; stroke-dasharray: 1.48,0.64; stroke-dashoffset: 0; stroke: #838383; stroke-opacity: 0.25; stroke-width: 0.4"/>
     </g>
     <g id="line2d_8"/>
     <g id="text_4">
      <!-- 60 -->
      <g style="fill: #838383" transform="translate(273.045191 302.348) scale(0.12 -0.12)">
       <defs>
        <path id="IBMPlexSans-Regular-36" d="M 1926 -77 
Q 1581 -77 1302 41 
Q 1024 160 829 381 
Q 634 602 531 922 
Q 429 1242 429 1638 
Q 429 2138 576 2576 
Q 723 3014 956 3376 
Q 1190 3738 1472 4016 
Q 1754 4294 2022 4467 
L 2714 4467 
Q 2355 4205 2073 3955 
Q 1792 3706 1581 3434 
Q 1370 3162 1222 2851 
Q 1075 2541 986 2150 
L 1018 2138 
Q 1178 2413 1430 2595 
Q 1683 2778 2093 2778 
Q 2381 2778 2624 2682 
Q 2867 2586 3040 2406 
Q 3213 2227 3312 1971 
Q 3411 1715 3411 1402 
Q 3411 1075 3305 803 
Q 3200 531 3005 336 
Q 2810 141 2534 32 
Q 2259 -77 1926 -77 
z
M 1920 390 
Q 2362 390 2608 633 
Q 2854 877 2854 1331 
L 2854 1382 
Q 2854 1837 2608 2080 
Q 2362 2323 1920 2323 
Q 1478 2323 1232 2080 
Q 986 1837 986 1382 
L 986 1331 
Q 986 877 1232 633 
Q 1478 390 1920 390 
z
" transform="scale(0.015625)"/>
       </defs>
       <use xlink:href="#IBMPlexSans-Regular-36"/>
       <use xlink:href="#IBMPlexSans-Regular-30" x="59.999985"/>
      </g>
     </g>
    </g>
    <g id="xtick_5">
     <g id="line2d_9">
      <path d="M 346.501221 289.968 
L 346.501221 23.856 
" clip-path="url(#p03c5f2bee1)" style="fill: none; stroke-dasharray: 1.48,0.64; stroke-dashoffset: 0; stroke: #838383; stroke-opacity: 0.25; stroke-width: 0.4"/>
     </g>
     <g id="line2d_10"/>
     <g id="text_5">
      <!-- 80 -->
      <g style="fill: #838383" transform="translate(339.301221 302.348) scale(0.12 -0.12)">
       <defs>
        <path id="IBMPlexSans-Regular-38" d="M 1920 -77 
Q 1536 -77 1248 22 
Q 960 122 765 294 
Q 570 467 470 704 
Q 371 941 371 1216 
Q 371 1677 620 1945 
Q 870 2214 1274 2323 
L 1274 2374 
Q 922 2496 714 2768 
Q 506 3040 506 3424 
Q 506 3936 877 4240 
Q 1248 4544 1920 4544 
Q 2592 4544 2963 4240 
Q 3334 3936 3334 3424 
Q 3334 3040 3126 2768 
Q 2918 2496 2566 2374 
L 2566 2323 
Q 2970 2214 3219 1945 
Q 3469 1677 3469 1216 
Q 3469 941 3369 704 
Q 3270 467 3075 294 
Q 2880 122 2592 22 
Q 2304 -77 1920 -77 
z
M 1920 390 
Q 2387 390 2643 598 
Q 2899 806 2899 1190 
L 2899 1325 
Q 2899 1709 2643 1917 
Q 2387 2125 1920 2125 
Q 1453 2125 1197 1917 
Q 941 1709 941 1325 
L 941 1190 
Q 941 806 1197 598 
Q 1453 390 1920 390 
z
M 1920 2573 
Q 2342 2573 2560 2752 
Q 2778 2931 2778 3277 
L 2778 3373 
Q 2778 3718 2560 3897 
Q 2342 4077 1920 4077 
Q 1498 4077 1280 3897 
Q 1062 3718 1062 3373 
L 1062 3277 
Q 1062 2931 1280 2752 
Q 1498 2573 1920 2573 
z
" transform="scale(0.015625)"/>
       </defs>
       <use xlink:href="#IBMPlexSans-Regular-38"/>
       <use xlink:href="#IBMPlexSans-Regular-30" x="59.999985"/>
      </g>
     </g>
    </g>
    <g id="xtick_6">
     <g id="line2d_11">
      <path d="M 412.757251 289.968 
L 412.757251 23.856 
" clip-path="url(#p03c5f2bee1)" style="fill: none; stroke-dasharray: 1.48,0.64; stroke-dashoffset: 0; stroke: #838383; stroke-opacity: 0.25; stroke-width: 0.4"/>
     </g>
     <g id="line2d_12"/>
     <g id="text_6">
      <!-- 100 -->
      <g style="fill: #838383" transform="translate(401.957251 302.348) scale(0.12 -0.12)">
       <defs>
        <path id="IBMPlexSans-Regular-31" d="M 563 0 
L 563 474 
L 1811 474 
L 1811 4070 
L 1766 4070 
L 640 3021 
L 326 3360 
L 1510 4467 
L 2349 4467 
L 2349 474 
L 3501 474 
L 3501 0 
L 563 0 
z
" transform="scale(0.015625)"/>
       </defs>
       <use xlink:href="#IBMPlexSans-Regular-31"/>
       <use xlink:href="#IBMPlexSans-Regular-30" x="59.999985"/>
       <use xlink:href="#IBMPlexSans-Regular-30" x="119.999969"/>
      </g>
     </g>
    </g>
   </g>
   <g id="matplotlib.axis_2">
    <g id="ytick_1">
     <g id="line2d_13">
      <path d="M 65.244375 289.454678 
L 422.364375 289.454678 
" clip-path="url(#p03c5f2bee1)" style="fill: none; stroke-dasharray: 1.48,0.64; stroke-dashoffset: 0; stroke: #838383; stroke-opacity: 0.25; stroke-width: 0.4"/>
     </g>
     <g id="line2d_14"/>
     <g id="text_7">
      <!-- −0.012 -->
      <g style="fill: #838383" transform="translate(22.48 293.894678) scale(0.12 -0.12)">
       <defs>
        <path id="IBMPlexSans-Regular-2212" d="M 429 1734 
L 429 2170 
L 3411 2170 
L 3411 1734 
L 429 1734 
z
" transform="scale(0.015625)"/>
        <path id="IBMPlexSans-Regular-2e" d="M 870 -77 
Q 666 -77 573 25 
Q 480 128 480 294 
L 480 378 
Q 480 544 573 646 
Q 666 749 870 749 
Q 1075 749 1168 646 
Q 1261 544 1261 378 
L 1261 294 
Q 1261 128 1168 25 
Q 1075 -77 870 -77 
z
" transform="scale(0.015625)"/>
       </defs>
       <use xlink:href="#IBMPlexSans-Regular-2212"/>
       <use xlink:href="#IBMPlexSans-Regular-30" x="59.999985"/>
       <use xlink:href="#IBMPlexSans-Regular-2e" x="119.999969"/>
       <use xlink:href="#IBMPlexSans-Regular-30" x="147.199966"/>
       <use xlink:href="#IBMPlexSans-Regular-31" x="207.199951"/>
       <use xlink:href="#IBMPlexSans-Regular-32" x="267.199936"/>
      </g>
     </g>
    </g>
    <g id="ytick_2">
     <g id="line2d_15">
      <path d="M 65.244375 245.095022 
L 422.364375 245.095022 
" clip-path="url(#p03c5f2bee1)" style="fill: none; stroke-dasharray: 1.48,0.64; stroke-dashoffset: 0; stroke: #838383; stroke-opacity: 0.25; stroke-width: 0.4"/>
     </g>
     <g id="line2d_16"/>
     <g id="text_8">
      <!-- −0.011 -->
      <g style="fill: #838383" transform="translate(22.48 249.535022) scale(0.12 -0.12)">
       <use xlink:href="#IBMPlexSans-Regular-2212"/>
       <use xlink:href="#IBMPlexSans-Regular-30" x="59.999985"/>
       <use xlink:href="#IBMPlexSans-Regular-2e" x="119.999969"/>
       <use xlink:href="#IBMPlexSans-Regular-30" x="147.199966"/>
       <use xlink:href="#IBMPlexSans-Regular-31" x="207.199951"/>
       <use xlink:href="#IBMPlexSans-Regular-31" x="267.199936"/>
      </g>
     </g>
    </g>
    <g id="ytick_3">
     <g id="line2d_17">
      <path d="M 65.244375 200.735365 
L 422.364375 200.735365 
" clip-path="url(#p03c5f2bee1)" style="fill: none; stroke-dasharray: 1.48,0.64; stroke-dashoffset: 0; stroke: #838383; stroke-opacity: 0.25; stroke-width: 0.4"/>
     </g>
     <g id="line2d_18"/>
     <g id="text_9">
      <!-- −0.010 -->
      <g style="fill: #838383" transform="translate(22.48 205.175365) scale(0.12 -0.12)">
       <use xlink:href="#IBMPlexSans-Regular-2212"/>
       <use xlink:href="#IBMPlexSans-Regular-30" x="59.999985"/>
       <use xlink:href="#IBMPlexSans-Regular-2e" x="119.999969"/>
       <use xlink:href="#IBMPlexSans-Regular-30" x="147.199966"/>
       <use xlink:href="#IBMPlexSans-Regular-31" x="207.199951"/>
       <use xlink:href="#IBMPlexSans-Regular-30" x="267.199936"/>
      </g>
     </g>
    </g>
    <g id="ytick_4">
     <g id="line2d_19">
      <path d="M 65.244375 156.375709 
L 422.364375 156.375709 
" clip-path="url(#p03c5f2bee1)" style="fill: none; stroke-dasharray: 1.48,0.64; stroke-dashoffset: 0; stroke: #838383; stroke-opacity: 0.25; stroke-width: 0.4"/>
     </g>
     <g id="line2d_20"/>
     <g id="text_10">
      <!-- −0.009 -->
      <g style="fill: #838383" transform="translate(22.48 160.815709) scale(0.12 -0.12)">
       <defs>
        <path id="IBMPlexSans-Regular-39" d="M 3411 2829 
Q 3411 2330 3264 1891 
Q 3117 1453 2883 1091 
Q 2650 730 2368 451 
Q 2086 173 1818 0 
L 1126 0 
Q 1485 262 1766 512 
Q 2048 762 2259 1034 
Q 2470 1306 2617 1616 
Q 2765 1926 2854 2317 
L 2822 2330 
Q 2662 2054 2409 1872 
Q 2157 1690 1747 1690 
Q 1459 1690 1216 1786 
Q 973 1882 800 2061 
Q 627 2240 528 2493 
Q 429 2746 429 3066 
Q 429 3392 534 3664 
Q 640 3936 835 4131 
Q 1030 4326 1302 4435 
Q 1574 4544 1914 4544 
Q 2259 4544 2537 4425 
Q 2816 4307 3011 4086 
Q 3206 3866 3308 3546 
Q 3411 3226 3411 2829 
z
M 1920 2144 
Q 2362 2144 2608 2387 
Q 2854 2630 2854 3085 
L 2854 3136 
Q 2854 3590 2608 3833 
Q 2362 4077 1920 4077 
Q 1478 4077 1232 3833 
Q 986 3590 986 3136 
L 986 3085 
Q 986 2630 1232 2387 
Q 1478 2144 1920 2144 
z
" transform="scale(0.015625)"/>
       </defs>
       <use xlink:href="#IBMPlexSans-Regular-2212"/>
       <use xlink:href="#IBMPlexSans-Regular-30" x="59.999985"/>
       <use xlink:href="#IBMPlexSans-Regular-2e" x="119.999969"/>
       <use xlink:href="#IBMPlexSans-Regular-30" x="147.199966"/>
       <use xlink:href="#IBMPlexSans-Regular-30" x="207.199951"/>
       <use xlink:href="#IBMPlexSans-Regular-39" x="267.199936"/>
      </g>
     </g>
    </g>
    <g id="ytick_5">
     <g id="line2d_21">
      <path d="M 65.244375 112.016053 
L 422.364375 112.016053 
" clip-path="url(#p03c5f2bee1)" style="fill: none; stroke-dasharray: 1.48,0.64; stroke-dashoffset: 0; stroke: #838383; stroke-opacity: 0.25; stroke-width: 0.4"/>
     </g>
     <g id="line2d_22"/>
     <g id="text_11">
      <!-- −0.008 -->
      <g style="fill: #838383" transform="translate(22.48 116.456053) scale(0.12 -0.12)">
       <use xlink:href="#IBMPlexSans-Regular-2212"/>
       <use xlink:href="#IBMPlexSans-Regular-30" x="59.999985"/>
       <use xlink:href="#IBMPlexSans-Regular-2e" x="119.999969"/>
       <use xlink:href="#IBMPlexSans-Regular-30" x="147.199966"/>
       <use xlink:href="#IBMPlexSans-Regular-30" x="207.199951"/>
       <use xlink:href="#IBMPlexSans-Regular-38" x="267.199936"/>
      </g>
     </g>
    </g>
    <g id="ytick_6">
     <g id="line2d_23">
      <path d="M 65.244375 67.656397 
L 422.364375 67.656397 
" clip-path="url(#p03c5f2bee1)" style="fill: none; stroke-dasharray: 1.48,0.64; stroke-dashoffset: 0; stroke: #838383; stroke-opacity: 0.25; stroke-width: 0.4"/>
     </g>
     <g id="line2d_24"/>
     <g id="text_12">
      <!-- −0.007 -->
      <g style="fill: #838383" transform="translate(22.48 72.096397) scale(0.12 -0.12)">
       <defs>
        <path id="IBMPlexSans-Regular-37" d="M 1120 0 
L 2829 4006 
L 922 4006 
L 922 3174 
L 442 3174 
L 442 4467 
L 3373 4467 
L 3373 3994 
L 1696 0 
L 1120 0 
z
" transform="scale(0.015625)"/>
       </defs>
       <use xlink:href="#IBMPlexSans-Regular-2212"/>
       <use xlink:href="#IBMPlexSans-Regular-30" x="59.999985"/>
       <use xlink:href="#IBMPlexSans-Regular-2e" x="119.999969"/>
       <use xlink:href="#IBMPlexSans-Regular-30" x="147.199966"/>
       <use xlink:href="#IBMPlexSans-Regular-30" x="207.199951"/>
       <use xlink:href="#IBMPlexSans-Regular-37" x="267.199936"/>
      </g>
     </g>
    </g>
    <g id="text_13">
     <!-- loss -->
     <g style="fill: #838383" transform="translate(16.08 167.748562) rotate(-90) scale(0.12 -0.12)">
      <defs>
       <path id="IBMPlexSans-Regular-6c" d="M 1088 0 
Q 819 0 681 150 
Q 544 301 544 531 
L 544 4736 
L 1056 4736 
L 1056 448 
L 1542 448 
L 1542 0 
L 1088 0 
z
" transform="scale(0.015625)"/>
       <path id="IBMPlexSans-Regular-6f" d="M 1792 -77 
Q 1459 -77 1184 44 
Q 909 166 713 393 
Q 518 621 409 937 
Q 301 1254 301 1651 
Q 301 2042 409 2362 
Q 518 2682 713 2909 
Q 909 3136 1184 3257 
Q 1459 3379 1792 3379 
Q 2125 3379 2397 3257 
Q 2669 3136 2867 2909 
Q 3066 2682 3174 2362 
Q 3283 2042 3283 1651 
Q 3283 1254 3174 937 
Q 3066 621 2867 393 
Q 2669 166 2397 44 
Q 2125 -77 1792 -77 
z
M 1792 378 
Q 2208 378 2470 634 
Q 2733 890 2733 1414 
L 2733 1888 
Q 2733 2413 2470 2669 
Q 2208 2925 1792 2925 
Q 1376 2925 1113 2669 
Q 851 2413 851 1888 
L 851 1414 
Q 851 890 1113 634 
Q 1376 378 1792 378 
z
" transform="scale(0.015625)"/>
       <path id="IBMPlexSans-Regular-73" d="M 1536 -77 
Q 1075 -77 764 99 
Q 454 275 230 570 
L 595 864 
Q 787 621 1024 489 
Q 1261 358 1574 358 
Q 1901 358 2083 499 
Q 2266 640 2266 896 
Q 2266 1088 2141 1225 
Q 2016 1363 1690 1414 
L 1427 1453 
Q 1197 1485 1005 1552 
Q 813 1619 669 1731 
Q 525 1843 445 2009 
Q 365 2176 365 2406 
Q 365 2650 454 2832 
Q 544 3014 701 3136 
Q 858 3258 1075 3318 
Q 1293 3379 1542 3379 
Q 1946 3379 2218 3238 
Q 2490 3098 2694 2848 
L 2355 2541 
Q 2246 2694 2035 2819 
Q 1824 2944 1504 2944 
Q 1184 2944 1021 2806 
Q 858 2669 858 2432 
Q 858 2189 1021 2080 
Q 1184 1971 1491 1920 
L 1747 1882 
Q 2298 1798 2528 1564 
Q 2758 1331 2758 954 
Q 2758 474 2432 198 
Q 2106 -77 1536 -77 
z
" transform="scale(0.015625)"/>
      </defs>
      <use xlink:href="#IBMPlexSans-Regular-6c"/>
      <use xlink:href="#IBMPlexSans-Regular-6f" x="27.199997"/>
      <use xlink:href="#IBMPlexSans-Regular-73" x="83.199982"/>
      <use xlink:href="#IBMPlexSans-Regular-73" x="131.899979"/>
     </g>
    </g>
   </g>
   <g id="line2d_25">
    <path d="M 81.477102 107.391585 
L 84.789904 133.583144 
L 88.102705 153.671868 
L 91.415507 110.335793 
L 94.728308 118.511092 
L 98.04111 181.714995 
L 101.353911 68.422876 
L 104.666713 219.576493 
L 107.979514 109.794915 
L 111.292316 165.230267 
L 114.605117 148.209823 
L 117.917919 124.203332 
L 121.23072 137.776064 
L 124.543522 152.935862 
L 127.856323 143.763272 
L 131.169125 124.162496 
L 134.481926 143.840313 
L 137.794728 175.376856 
L 141.107529 153.215183 
L 144.42033 173.056809 
L 147.733132 115.227167 
L 151.045933 76.53328 
L 154.358735 126.228696 
L 157.671536 115.437505 
L 160.984338 142.137364 
L 164.297139 156.685874 
L 167.609941 172.412023 
L 170.922742 144.205047 
L 174.235544 240.601419 
L 177.548345 69.871041 
L 180.861147 142.87404 
L 184.173948 135.540572 
L 187.48675 222.367192 
L 190.799551 138.719527 
L 194.112353 121.897283 
L 197.425154 176.426382 
L 200.737956 129.962621 
L 204.050757 101.898676 
L 207.363559 115.261727 
L 210.67636 108.062049 
L 213.989162 68.90833 
L 217.301963 197.25134 
L 220.614765 196.823949 
L 223.927566 120.49308 
L 227.240368 106.050598 
L 230.553169 113.162011 
L 233.865971 145.176716 
L 237.178772 121.706512 
L 240.491574 101.983823 
L 243.804375 216.04119 
L 247.117176 102.499109 
L 250.429978 47.172962 
L 253.742779 193.944595 
L 257.055581 163.116393 
L 260.368382 136.432461 
L 263.681184 125.190087 
L 266.993985 201.97378 
L 270.306787 233.506759 
L 273.619588 193.406689 
L 276.93239 144.445236 
L 280.245191 142.964015 
L 283.557993 96.771436 
L 286.870794 152.448029 
L 290.183596 106.828285 
L 293.496397 162.036664 
L 296.809199 135.965571 
L 300.122 136.592632 
L 303.434802 100.499571 
L 306.747603 176.859832 
L 310.060405 131.013926 
L 313.373206 186.04342 
L 316.686008 183.379321 
L 319.998809 146.042383 
L 323.311611 96.596748 
L 326.624412 83.351674 
L 329.937214 143.153811 
L 333.250015 277.872 
L 336.562817 114.411554 
L 339.875618 111.43959 
L 343.18842 177.793691 
L 346.501221 97.904577 
L 349.814022 95.882161 
L 353.126824 35.952 
L 356.439625 226.755487 
L 359.752427 190.909431 
L 363.065228 152.086367 
L 366.37803 215.93229 
L 369.690831 115.096804 
L 373.003633 180.056343 
L 376.316434 135.422923 
L 379.629236 143.931884 
L 382.942037 212.977858 
L 386.254839 149.346761 
L 389.56764 175.945963 
L 392.880442 152.15914 
L 396.193243 155.252815 
L 399.506045 66.657367 
L 402.818846 163.275303 
L 406.131648 129.79759 
" clip-path="url(#p03c5f2bee1)" style="fill: none; stroke: #2196f3; stroke-width: 1.5; stroke-linecap: round"/>
    <defs>
     <path id="m0d5d0bed2b" d="M 0 1.5 
C 0.397805 1.5 0.77937 1.341951 1.06066 1.06066 
C 1.341951 0.77937 1.5 0.397805 1.5 0 
C 1.5 -0.397805 1.341951 -0.77937 1.06066 -1.06066 
C 0.77937 -1.341951 0.397805 -1.5 0 -1.5 
C -0.397805 -1.5 -0.77937 -1.341951 -1.06066 -1.06066 
C -1.341951 -0.77937 -1.5 -0.397805 -1.5 0 
C -1.5 0.397805 -1.341951 0.77937 -1.06066 1.06066 
C -0.77937 1.341951 -0.397805 1.5 0 1.5 
z
" style="stroke: #2196f3"/>
    </defs>
    <g clip-path="url(#p03c5f2bee1)">
     <use xlink:href="#m0d5d0bed2b" x="81.477102" y="107.391585" style="fill: #2196f3; stroke: #2196f3"/>
     <use xlink:href="#m0d5d0bed2b" x="84.789904" y="133.583144" style="fill: #2196f3; stroke: #2196f3"/>
     <use xlink:href="#m0d5d0bed2b" x="88.102705" y="153.671868" style="fill: #2196f3; stroke: #2196f3"/>
     <use xlink:href="#m0d5d0bed2b" x="91.415507" y="110.335793" style="fill: #2196f3; stroke: #2196f3"/>
     <use xlink:href="#m0d5d0bed2b" x="94.728308" y="118.511092" style="fill: #2196f3; stroke: #2196f3"/>
     <use xlink:href="#m0d5d0bed2b" x="98.04111" y="181.714995" style="fill: #2196f3; stroke: #2196f3"/>
     <use xlink:href="#m0d5d0bed2b" x="101.353911" y="68.422876" style="fill: #2196f3; stroke: #2196f3"/>
     <use xlink:href="#m0d5d0bed2b" x="104.666713" y="219.576493" style="fill: #2196f3; stroke: #2196f3"/>
     <use xlink:href="#m0d5d0bed2b" x="107.979514" y="109.794915" style="fill: #2196f3; stroke: #2196f3"/>
     <use xlink:href="#m0d5d0bed2b" x="111.292316" y="165.230267" style="fill: #2196f3; stroke: #2196f3"/>
     <use xlink:href="#m0d5d0bed2b" x="114.605117" y="148.209823" style="fill: #2196f3; stroke: #2196f3"/>
     <use xlink:href="#m0d5d0bed2b" x="117.917919" y="124.203332" style="fill: #2196f3; stroke: #2196f3"/>
     <use xlink:href="#m0d5d0bed2b" x="121.23072" y="137.776064" style="fill: #2196f3; stroke: #2196f3"/>
     <use xlink:href="#m0d5d0bed2b" x="124.543522" y="152.935862" style="fill: #2196f3; stroke: #2196f3"/>
     <use xlink:href="#m0d5d0bed2b" x="127.856323" y="143.763272" style="fill: #2196f3; stroke: #2196f3"/>
     <use xlink:href="#m0d5d0bed2b" x="131.169125" y="124.162496" style="fill: #2196f3; stroke: #2196f3"/>
     <use xlink:href="#m0d5d0bed2b" x="134.481926" y="143.840313" style="fill: #2196f3; stroke: #2196f3"/>
     <use xlink:href="#m0d5d0bed2b" x="137.794728" y="175.376856" style="fill: #2196f3; stroke: #2196f3"/>
     <use xlink:href="#m0d5d0bed2b" x="141.107529" y="153.215183" style="fill: #2196f3; stroke: #2196f3"/>
     <use xlink:href="#m0d5d0bed2b" x="144.42033" y="173.056809" style="fill: #2196f3; stroke: #2196f3"/>
     <use xlink:href="#m0d5d0bed2b" x="147.733132" y="115.227167" style="fill: #2196f3; stroke: #2196f3"/>
     <use xlink:href="#m0d5d0bed2b" x="151.045933" y="76.53328" style="fill: #2196f3; stroke: #2196f3"/>
     <use xlink:href="#m0d5d0bed2b" x="154.358735" y="126.228696" style="fill: #2196f3; stroke: #2196f3"/>
     <use xlink:href="#m0d5d0bed2b" x="157.671536" y="115.437505" style="fill: #2196f3; stroke: #2196f3"/>
     <use xlink:href="#m0d5d0bed2b" x="160.984338" y="142.137364" style="fill: #2196f3; stroke: #2196f3"/>
     <use xlink:href="#m0d5d0bed2b" x="164.297139" y="156.685874" style="fill: #2196f3; stroke: #2196f3"/>
     <use xlink:href="#m0d5d0bed2b" x="167.609941" y="172.412023" style="fill: #2196f3; stroke: #2196f3"/>
     <use xlink:href="#m0d5d0bed2b" x="170.922742" y="144.205047" style="fill: #2196f3; stroke: #2196f3"/>
     <use xlink:href="#m0d5d0bed2b" x="174.235544" y="240.601419" style="fill: #2196f3; stroke: #2196f3"/>
     <use xlink:href="#m0d5d0bed2b" x="177.548345" y="69.871041" style="fill: #2196f3; stroke: #2196f3"/>
     <use xlink:href="#m0d5d0bed2b" x="180.861147" y="142.87404" style="fill: #2196f3; stroke: #2196f3"/>
     <use xlink:href="#m0d5d0bed2b" x="184.173948" y="135.540572" style="fill: #2196f3; stroke: #2196f3"/>
     <use xlink:href="#m0d5d0bed2b" x="187.48675" y="222.367192" style="fill: #2196f3; stroke: #2196f3"/>
     <use xlink:href="#m0d5d0bed2b" x="190.799551" y="138.719527" style="fill: #2196f3; stroke: #2196f3"/>
     <use xlink:href="#m0d5d0bed2b" x="194.112353" y="121.897283" style="fill: #2196f3; stroke: #2196f3"/>
     <use xlink:href="#m0d5d0bed2b" x="197.425154" y="176.426382" style="fill: #2196f3; stroke: #2196f3"/>
     <use xlink:href="#m0d5d0bed2b" x="200.737956" y="129.962621" style="fill: #2196f3; stroke: #2196f3"/>
     <use xlink:href="#m0d5d0bed2b" x="204.050757" y="101.898676" style="fill: #2196f3; stroke: #2196f3"/>
     <use xlink:href="#m0d5d0bed2b" x="207.363559" y="115.261727" style="fill: #2196f3; stroke: #2196f3"/>
     <use xlink:href="#m0d5d0bed2b" x="210.67636" y="108.062049" style="fill: #2196f3; stroke: #2196f3"/>
     <use xlink:href="#m0d5d0bed2b" x="213.989162" y="68.90833" style="fill: #2196f3; stroke: #2196f3"/>
     <use xlink:href="#m0d5d0bed2b" x="217.301963" y="197.25134" style="fill: #2196f3; stroke: #2196f3"/>
     <use xlink:href="#m0d5d0bed2b" x="220.614765" y="196.823949" style="fill: #2196f3; stroke: #2196f3"/>
     <use xlink:href="#m0d5d0bed2b" x="223.927566" y="120.49308" style="fill: #2196f3; stroke: #2196f3"/>
     <use xlink:href="#m0d5d0bed2b" x="227.240368" y="106.050598" style="fill: #2196f3; stroke: #2196f3"/>
     <use xlink:href="#m0d5d0bed2b" x="230.553169" y="113.162011" style="fill: #2196f3; stroke: #2196f3"/>
     <use xlink:href="#m0d5d0bed2b" x="233.865971" y="145.176716" style="fill: #2196f3; stroke: #2196f3"/>
     <use xlink:href="#m0d5d0bed2b" x="237.178772" y="121.706512" style="fill: #2196f3; stroke: #2196f3"/>
     <use xlink:href="#m0d5d0bed2b" x="240.491574" y="101.983823" style="fill: #2196f3; stroke: #2196f3"/>
     <use xlink:href="#m0d5d0bed2b" x="243.804375" y="216.04119" style="fill: #2196f3; stroke: #2196f3"/>
     <use xlink:href="#m0d5d0bed2b" x="247.117176" y="102.499109" style="fill: #2196f3; stroke: #2196f3"/>
     <use xlink:href="#m0d5d0bed2b" x="250.429978" y="47.172962" style="fill: #2196f3; stroke: #2196f3"/>
     <use xlink:href="#m0d5d0bed2b" x="253.742779" y="193.944595" style="fill: #2196f3; stroke: #2196f3"/>
     <use xlink:href="#m0d5d0bed2b" x="257.055581" y="163.116393" style="fill: #2196f3; stroke: #2196f3"/>
     <use xlink:href="#m0d5d0bed2b" x="260.368382" y="136.432461" style="fill: #2196f3; stroke: #2196f3"/>
     <use xlink:href="#m0d5d0bed2b" x="263.681184" y="125.190087" style="fill: #2196f3; stroke: #2196f3"/>
     <use xlink:href="#m0d5d0bed2b" x="266.993985" y="201.97378" style="fill: #2196f3; stroke: #2196f3"/>
     <use xlink:href="#m0d5d0bed2b" x="270.306787" y="233.506759" style="fill: #2196f3; stroke: #2196f3"/>
     <use xlink:href="#m0d5d0bed2b" x="273.619588" y="193.406689" style="fill: #2196f3; stroke: #2196f3"/>
     <use xlink:href="#m0d5d0bed2b" x="276.93239" y="144.445236" style="fill: #2196f3; stroke: #2196f3"/>
     <use xlink:href="#m0d5d0bed2b" x="280.245191" y="142.964015" style="fill: #2196f3; stroke: #2196f3"/>
     <use xlink:href="#m0d5d0bed2b" x="283.557993" y="96.771436" style="fill: #2196f3; stroke: #2196f3"/>
     <use xlink:href="#m0d5d0bed2b" x="286.870794" y="152.448029" style="fill: #2196f3; stroke: #2196f3"/>
     <use xlink:href="#m0d5d0bed2b" x="290.183596" y="106.828285" style="fill: #2196f3; stroke: #2196f3"/>
     <use xlink:href="#m0d5d0bed2b" x="293.496397" y="162.036664" style="fill: #2196f3; stroke: #2196f3"/>
     <use xlink:href="#m0d5d0bed2b" x="296.809199" y="135.965571" style="fill: #2196f3; stroke: #2196f3"/>
     <use xlink:href="#m0d5d0bed2b" x="300.122" y="136.592632" style="fill: #2196f3; stroke: #2196f3"/>
     <use xlink:href="#m0d5d0bed2b" x="303.434802" y="100.499571" style="fill: #2196f3; stroke: #2196f3"/>
     <use xlink:href="#m0d5d0bed2b" x="306.747603" y="176.859832" style="fill: #2196f3; stroke: #2196f3"/>
     <use xlink:href="#m0d5d0bed2b" x="310.060405" y="131.013926" style="fill: #2196f3; stroke: #2196f3"/>
     <use xlink:href="#m0d5d0bed2b" x="313.373206" y="186.04342" style="fill: #2196f3; stroke: #2196f3"/>
     <use xlink:href="#m0d5d0bed2b" x="316.686008" y="183.379321" style="fill: #2196f3; stroke: #2196f3"/>
     <use xlink:href="#m0d5d0bed2b" x="319.998809" y="146.042383" style="fill: #2196f3; stroke: #2196f3"/>
     <use xlink:href="#m0d5d0bed2b" x="323.311611" y="96.596748" style="fill: #2196f3; stroke: #2196f3"/>
     <use xlink:href="#m0d5d0bed2b" x="326.624412" y="83.351674" style="fill: #2196f3; stroke: #2196f3"/>
     <use xlink:href="#m0d5d0bed2b" x="329.937214" y="143.153811" style="fill: #2196f3; stroke: #2196f3"/>
     <use xlink:href="#m0d5d0bed2b" x="333.250015" y="277.872" style="fill: #2196f3; stroke: #2196f3"/>
     <use xlink:href="#m0d5d0bed2b" x="336.562817" y="114.411554" style="fill: #2196f3; stroke: #2196f3"/>
     <use xlink:href="#m0d5d0bed2b" x="339.875618" y="111.43959" style="fill: #2196f3; stroke: #2196f3"/>
     <use xlink:href="#m0d5d0bed2b" x="343.18842" y="177.793691" style="fill: #2196f3; stroke: #2196f3"/>
     <use xlink:href="#m0d5d0bed2b" x="346.501221" y="97.904577" style="fill: #2196f3; stroke: #2196f3"/>
     <use xlink:href="#m0d5d0bed2b" x="349.814022" y="95.882161" style="fill: #2196f3; stroke: #2196f3"/>
     <use xlink:href="#m0d5d0bed2b" x="353.126824" y="35.952" style="fill: #2196f3; stroke: #2196f3"/>
     <use xlink:href="#m0d5d0bed2b" x="356.439625" y="226.755487" style="fill: #2196f3; stroke: #2196f3"/>
     <use xlink:href="#m0d5d0bed2b" x="359.752427" y="190.909431" style="fill: #2196f3; stroke: #2196f3"/>
     <use xlink:href="#m0d5d0bed2b" x="363.065228" y="152.086367" style="fill: #2196f3; stroke: #2196f3"/>
     <use xlink:href="#m0d5d0bed2b" x="366.37803" y="215.93229" style="fill: #2196f3; stroke: #2196f3"/>
     <use xlink:href="#m0d5d0bed2b" x="369.690831" y="115.096804" style="fill: #2196f3; stroke: #2196f3"/>
     <use xlink:href="#m0d5d0bed2b" x="373.003633" y="180.056343" style="fill: #2196f3; stroke: #2196f3"/>
     <use xlink:href="#m0d5d0bed2b" x="376.316434" y="135.422923" style="fill: #2196f3; stroke: #2196f3"/>
     <use xlink:href="#m0d5d0bed2b" x="379.629236" y="143.931884" style="fill: #2196f3; stroke: #2196f3"/>
     <use xlink:href="#m0d5d0bed2b" x="382.942037" y="212.977858" style="fill: #2196f3; stroke: #2196f3"/>
     <use xlink:href="#m0d5d0bed2b" x="386.254839" y="149.346761" style="fill: #2196f3; stroke: #2196f3"/>
     <use xlink:href="#m0d5d0bed2b" x="389.56764" y="175.945963" style="fill: #2196f3; stroke: #2196f3"/>
     <use xlink:href="#m0d5d0bed2b" x="392.880442" y="152.15914" style="fill: #2196f3; stroke: #2196f3"/>
     <use xlink:href="#m0d5d0bed2b" x="396.193243" y="155.252815" style="fill: #2196f3; stroke: #2196f3"/>
     <use xlink:href="#m0d5d0bed2b" x="399.506045" y="66.657367" style="fill: #2196f3; stroke: #2196f3"/>
     <use xlink:href="#m0d5d0bed2b" x="402.818846" y="163.275303" style="fill: #2196f3; stroke: #2196f3"/>
     <use xlink:href="#m0d5d0bed2b" x="406.131648" y="129.79759" style="fill: #2196f3; stroke: #2196f3"/>
    </g>
   </g>
   <g id="patch_3">
    <path d="M 65.244375 289.968 
L 65.244375 23.856 
" style="fill: none"/>
   </g>
   <g id="patch_4">
    <path d="M 422.364375 289.968 
L 422.364375 23.856 
" style="fill: none"/>
   </g>
   <g id="patch_5">
    <path d="M 65.244375 289.968 
L 422.364375 289.968 
" style="fill: none"/>
   </g>
   <g id="patch_6">
    <path d="M 65.244375 23.856 
L 422.364375 23.856 
" style="fill: none"/>
   </g>
   <g id="text_14">
    <!-- HMC -->
    <g style="fill: #838383" transform="translate(228.396375 17.856) scale(0.144 -0.144)">
     <defs>
      <path id="IBMPlexSans-Regular-48" d="M 3392 2022 
L 1133 2022 
L 1133 0 
L 595 0 
L 595 4467 
L 1133 4467 
L 1133 2496 
L 3392 2496 
L 3392 4467 
L 3930 4467 
L 3930 0 
L 3392 0 
L 3392 2022 
z
" transform="scale(0.015625)"/>
      <path id="IBMPlexSans-Regular-4d" d="M 4077 3763 
L 4045 3763 
L 3667 3014 
L 2598 1069 
L 1530 3014 
L 1152 3763 
L 1120 3763 
L 1120 0 
L 595 0 
L 595 4467 
L 1312 4467 
L 2592 2061 
L 2624 2061 
L 3910 4467 
L 4602 4467 
L 4602 0 
L 4077 0 
L 4077 3763 
z
" transform="scale(0.015625)"/>
      <path id="IBMPlexSans-Regular-43" d="M 2170 -77 
Q 1318 -77 844 502 
Q 371 1082 371 2208 
Q 371 3334 844 3939 
Q 1318 4544 2170 4544 
Q 2733 4544 3113 4288 
Q 3494 4032 3706 3565 
L 3270 3302 
Q 3136 3648 2861 3856 
Q 2586 4064 2170 4064 
Q 1882 4064 1654 3955 
Q 1427 3846 1270 3644 
Q 1114 3443 1030 3164 
Q 947 2886 947 2541 
L 947 1875 
Q 947 1184 1267 793 
Q 1587 403 2170 403 
Q 2598 403 2886 624 
Q 3174 845 3309 1210 
L 3738 941 
Q 3526 467 3129 195 
Q 2733 -77 2170 -77 
z
" transform="scale(0.015625)"/>
     </defs>
     <use xlink:href="#IBMPlexSans-Regular-48"/>
     <use xlink:href="#IBMPlexSans-Regular-4d" x="70.699982"/>
     <use xlink:href="#IBMPlexSans-Regular-43" x="151.899963"/>
    </g>
   </g>
  </g>
 </g>
 <defs>
  <clipPath id="p03c5f2bee1">
   <rect x="65.244375" y="23.856" width="357.12" height="266.112"/>
  </clipPath>
 </defs>
</svg>
