<?xml version="1.0" encoding="utf-8" standalone="no"?>
<!DOCTYPE svg PUBLIC "-//W3C//DTD SVG 1.1//EN"
  "http://www.w3.org/Graphics/SVG/1.1/DTD/svg11.dtd">
<svg xmlns:xlink="http://www.w3.org/1999/xlink" width="412.044375pt" height="311.948pt" viewBox="0 0 412.044375 311.948" xmlns="http://www.w3.org/2000/svg" version="1.1">
 <metadata>
  <rdf:RDF xmlns:dc="http://purl.org/dc/elements/1.1/" xmlns:cc="http://creativecommons.org/ns#" xmlns:rdf="http://www.w3.org/1999/02/22-rdf-syntax-ns#">
   <cc:Work>
    <dc:type rdf:resource="http://purl.org/dc/dcmitype/StillImage"/>
    <dc:date>2024-07-04T21:21:23.012363</dc:date>
    <dc:format>image/svg+xml</dc:format>
    <dc:creator>
     <cc:Agent>
      <dc:title>Matplotlib v3.8.4, https://matplotlib.org/</dc:title>
     </cc:Agent>
    </dc:creator>
   </cc:Work>
  </rdf:RDF>
 </metadata>
 <defs>
  <style type="text/css">*{stroke-linejoin: round; stroke-linecap: butt}</style>
 </defs>
 <g id="figure_1">
  <g id="patch_1">
   <path d="M 0 311.948 
L 412.044375 311.948 
L 412.044375 0 
L 0 0 
L 0 311.948 
z
" style="fill: none"/>
  </g>
  <g id="axes_1">
   <g id="patch_2">
    <path d="M 47.724375 289.968 
L 404.844375 289.968 
L 404.844375 23.856 
L 47.724375 23.856 
L 47.724375 289.968 
z
" style="fill: none"/>
   </g>
   <g id="matplotlib.axis_1">
    <g id="xtick_1">
     <g id="line2d_1">
      <path d="M 63.957102 289.968 
L 63.957102 23.856 
" clip-path="url(#p77e347d0ea)" style="fill: none; stroke-dasharray: 1.48,0.64; stroke-dashoffset: 0; stroke: #838383; stroke-opacity: 0.25; stroke-width: 0.4"/>
     </g>
     <g id="line2d_2"/>
     <g id="text_1">
      <!-- 0 -->
      <g style="fill: #838383" transform="translate(60.357102 302.348) scale(0.12 -0.12)">
       <defs>
        <path id="IBMPlexSans-Regular-30" d="M 1920 -77 
Q 1120 -77 752 531 
Q 384 1139 384 2234 
Q 384 3328 752 3936 
Q 1120 4544 1920 4544 
Q 2720 4544 3088 3936 
Q 3456 3328 3456 2234 
Q 3456 1139 3088 531 
Q 2720 -77 1920 -77 
z
M 1920 390 
Q 2182 390 2368 499 
Q 2554 608 2669 806 
Q 2784 1005 2838 1273 
Q 2893 1542 2893 1869 
L 2893 2598 
Q 2893 2925 2838 3193 
Q 2784 3462 2669 3660 
Q 2554 3859 2368 3968 
Q 2182 4077 1920 4077 
Q 1658 4077 1472 3968 
Q 1286 3859 1171 3660 
Q 1056 3462 1001 3193 
Q 947 2925 947 2598 
L 947 1869 
Q 947 1542 1001 1273 
Q 1056 1005 1171 806 
Q 1286 608 1472 499 
Q 1658 390 1920 390 
z
" transform="scale(0.015625)"/>
       </defs>
       <use xlink:href="#IBMPlexSans-Regular-30"/>
      </g>
     </g>
    </g>
    <g id="xtick_2">
     <g id="line2d_3">
      <path d="M 129.411648 289.968 
L 129.411648 23.856 
" clip-path="url(#p77e347d0ea)" style="fill: none; stroke-dasharray: 1.48,0.64; stroke-dashoffset: 0; stroke: #838383; stroke-opacity: 0.25; stroke-width: 0.4"/>
     </g>
     <g id="line2d_4"/>
     <g id="text_2">
      <!-- 50 -->
      <g style="fill: #838383" transform="translate(122.211648 302.348) scale(0.12 -0.12)">
       <defs>
        <path id="IBMPlexSans-Regular-35" d="M 3187 3994 
L 1229 3994 
L 1101 2291 
L 1146 2291 
Q 1306 2515 1507 2649 
Q 1709 2784 2061 2784 
Q 2349 2784 2592 2688 
Q 2835 2592 3014 2416 
Q 3194 2240 3293 1984 
Q 3392 1728 3392 1402 
Q 3392 1075 3289 803 
Q 3187 531 2992 336 
Q 2797 141 2518 32 
Q 2240 -77 1888 -77 
Q 1606 -77 1392 -13 
Q 1178 51 1011 160 
Q 845 269 720 403 
Q 595 538 493 685 
L 896 992 
Q 979 858 1072 749 
Q 1165 640 1277 563 
Q 1389 486 1536 444 
Q 1683 403 1888 403 
Q 2349 403 2585 646 
Q 2822 890 2822 1331 
L 2822 1395 
Q 2822 1837 2585 2080 
Q 2349 2323 1888 2323 
Q 1581 2323 1405 2211 
Q 1229 2099 1088 1946 
L 634 2010 
L 794 4467 
L 3187 4467 
L 3187 3994 
z
" transform="scale(0.015625)"/>
       </defs>
       <use xlink:href="#IBMPlexSans-Regular-35"/>
       <use xlink:href="#IBMPlexSans-Regular-30" x="59.999985"/>
      </g>
     </g>
    </g>
    <g id="xtick_3">
     <g id="line2d_5">
      <path d="M 194.866193 289.968 
L 194.866193 23.856 
" clip-path="url(#p77e347d0ea)" style="fill: none; stroke-dasharray: 1.48,0.64; stroke-dashoffset: 0; stroke: #838383; stroke-opacity: 0.25; stroke-width: 0.4"/>
     </g>
     <g id="line2d_6"/>
     <g id="text_3">
      <!-- 100 -->
      <g style="fill: #838383" transform="translate(184.066193 302.348) scale(0.12 -0.12)">
       <defs>
        <path id="IBMPlexSans-Regular-31" d="M 563 0 
L 563 474 
L 1811 474 
L 1811 4070 
L 1766 4070 
L 640 3021 
L 326 3360 
L 1510 4467 
L 2349 4467 
L 2349 474 
L 3501 474 
L 3501 0 
L 563 0 
z
" transform="scale(0.015625)"/>
       </defs>
       <use xlink:href="#IBMPlexSans-Regular-31"/>
       <use xlink:href="#IBMPlexSans-Regular-30" x="59.999985"/>
       <use xlink:href="#IBMPlexSans-Regular-30" x="119.999969"/>
      </g>
     </g>
    </g>
    <g id="xtick_4">
     <g id="line2d_7">
      <path d="M 260.320739 289.968 
L 260.320739 23.856 
" clip-path="url(#p77e347d0ea)" style="fill: none; stroke-dasharray: 1.48,0.64; stroke-dashoffset: 0; stroke: #838383; stroke-opacity: 0.25; stroke-width: 0.4"/>
     </g>
     <g id="line2d_8"/>
     <g id="text_4">
      <!-- 150 -->
      <g style="fill: #838383" transform="translate(249.520739 302.348) scale(0.12 -0.12)">
       <use xlink:href="#IBMPlexSans-Regular-31"/>
       <use xlink:href="#IBMPlexSans-Regular-35" x="59.999985"/>
       <use xlink:href="#IBMPlexSans-Regular-30" x="119.999969"/>
      </g>
     </g>
    </g>
    <g id="xtick_5">
     <g id="line2d_9">
      <path d="M 325.775284 289.968 
L 325.775284 23.856 
" clip-path="url(#p77e347d0ea)" style="fill: none; stroke-dasharray: 1.48,0.64; stroke-dashoffset: 0; stroke: #838383; stroke-opacity: 0.25; stroke-width: 0.4"/>
     </g>
     <g id="line2d_10"/>
     <g id="text_5">
      <!-- 200 -->
      <g style="fill: #838383" transform="translate(314.975284 302.348) scale(0.12 -0.12)">
       <defs>
        <path id="IBMPlexSans-Regular-32" d="M 3411 0 
L 480 0 
L 480 550 
L 1939 1894 
Q 2253 2182 2464 2505 
Q 2675 2829 2675 3155 
L 2675 3232 
Q 2675 3603 2470 3833 
Q 2266 4064 1850 4064 
Q 1645 4064 1491 4006 
Q 1338 3949 1226 3846 
Q 1114 3744 1040 3606 
Q 966 3469 922 3309 
L 442 3494 
Q 506 3693 618 3881 
Q 730 4070 899 4217 
Q 1069 4365 1309 4454 
Q 1549 4544 1875 4544 
Q 2202 4544 2458 4448 
Q 2714 4352 2886 4179 
Q 3059 4006 3152 3769 
Q 3245 3533 3245 3245 
Q 3245 2982 3171 2758 
Q 3098 2534 2970 2332 
Q 2842 2131 2659 1939 
Q 2477 1747 2266 1555 
L 1062 474 
L 3411 474 
L 3411 0 
z
" transform="scale(0.015625)"/>
       </defs>
       <use xlink:href="#IBMPlexSans-Regular-32"/>
       <use xlink:href="#IBMPlexSans-Regular-30" x="59.999985"/>
       <use xlink:href="#IBMPlexSans-Regular-30" x="119.999969"/>
      </g>
     </g>
    </g>
    <g id="xtick_6">
     <g id="line2d_11">
      <path d="M 391.22983 289.968 
L 391.22983 23.856 
" clip-path="url(#p77e347d0ea)" style="fill: none; stroke-dasharray: 1.48,0.64; stroke-dashoffset: 0; stroke: #838383; stroke-opacity: 0.25; stroke-width: 0.4"/>
     </g>
     <g id="line2d_12"/>
     <g id="text_6">
      <!-- 250 -->
      <g style="fill: #838383" transform="translate(380.42983 302.348) scale(0.12 -0.12)">
       <use xlink:href="#IBMPlexSans-Regular-32"/>
       <use xlink:href="#IBMPlexSans-Regular-35" x="59.999985"/>
       <use xlink:href="#IBMPlexSans-Regular-30" x="119.999969"/>
      </g>
     </g>
    </g>
   </g>
   <g id="matplotlib.axis_2">
    <g id="ytick_1">
     <g id="line2d_13">
      <path d="M 47.724375 247.822908 
L 404.844375 247.822908 
" clip-path="url(#p77e347d0ea)" style="fill: none; stroke-dasharray: 1.48,0.64; stroke-dashoffset: 0; stroke: #838383; stroke-opacity: 0.25; stroke-width: 0.4"/>
     </g>
     <g id="line2d_14"/>
     <g id="text_7">
      <!-- −30 -->
      <g style="fill: #838383" transform="translate(22.624375 252.262908) scale(0.12 -0.12)">
       <defs>
        <path id="IBMPlexSans-Regular-2212" d="M 429 1734 
L 429 2170 
L 3411 2170 
L 3411 1734 
L 429 1734 
z
" transform="scale(0.015625)"/>
        <path id="IBMPlexSans-Regular-33" d="M 1670 2573 
Q 2125 2573 2352 2781 
Q 2579 2989 2579 3315 
L 2579 3360 
Q 2579 3712 2358 3888 
Q 2138 4064 1779 4064 
Q 1434 4064 1216 3913 
Q 998 3763 858 3507 
L 461 3814 
Q 544 3949 662 4080 
Q 781 4211 941 4313 
Q 1101 4416 1312 4480 
Q 1523 4544 1792 4544 
Q 2074 4544 2323 4470 
Q 2573 4397 2755 4253 
Q 2938 4109 3043 3897 
Q 3149 3686 3149 3418 
Q 3149 3200 3081 3027 
Q 3014 2854 2899 2726 
Q 2784 2598 2627 2508 
Q 2470 2419 2291 2374 
L 2291 2349 
Q 2470 2310 2640 2224 
Q 2810 2138 2941 2000 
Q 3072 1862 3152 1667 
Q 3232 1472 3232 1222 
Q 3232 934 3123 694 
Q 3014 454 2816 284 
Q 2618 115 2336 19 
Q 2054 -77 1715 -77 
Q 1427 -77 1203 -13 
Q 979 51 806 160 
Q 634 269 502 403 
Q 371 538 269 685 
L 672 992 
Q 755 858 854 749 
Q 954 640 1075 563 
Q 1197 486 1350 444 
Q 1504 403 1709 403 
Q 2182 403 2425 617 
Q 2669 832 2669 1229 
L 2669 1280 
Q 2669 1677 2425 1891 
Q 2182 2106 1709 2106 
L 1184 2106 
L 1184 2573 
L 1670 2573 
z
" transform="scale(0.015625)"/>
       </defs>
       <use xlink:href="#IBMPlexSans-Regular-2212"/>
       <use xlink:href="#IBMPlexSans-Regular-33" x="59.999985"/>
       <use xlink:href="#IBMPlexSans-Regular-30" x="119.999969"/>
      </g>
     </g>
    </g>
    <g id="ytick_2">
     <g id="line2d_15">
      <path d="M 47.724375 202.737177 
L 404.844375 202.737177 
" clip-path="url(#p77e347d0ea)" style="fill: none; stroke-dasharray: 1.48,0.64; stroke-dashoffset: 0; stroke: #838383; stroke-opacity: 0.25; stroke-width: 0.4"/>
     </g>
     <g id="line2d_16"/>
     <g id="text_8">
      <!-- −25 -->
      <g style="fill: #838383" transform="translate(22.624375 207.177177) scale(0.12 -0.12)">
       <use xlink:href="#IBMPlexSans-Regular-2212"/>
       <use xlink:href="#IBMPlexSans-Regular-32" x="59.999985"/>
       <use xlink:href="#IBMPlexSans-Regular-35" x="119.999969"/>
      </g>
     </g>
    </g>
    <g id="ytick_3">
     <g id="line2d_17">
      <path d="M 47.724375 157.651447 
L 404.844375 157.651447 
" clip-path="url(#p77e347d0ea)" style="fill: none; stroke-dasharray: 1.48,0.64; stroke-dashoffset: 0; stroke: #838383; stroke-opacity: 0.25; stroke-width: 0.4"/>
     </g>
     <g id="line2d_18"/>
     <g id="text_9">
      <!-- −20 -->
      <g style="fill: #838383" transform="translate(22.624375 162.091447) scale(0.12 -0.12)">
       <use xlink:href="#IBMPlexSans-Regular-2212"/>
       <use xlink:href="#IBMPlexSans-Regular-32" x="59.999985"/>
       <use xlink:href="#IBMPlexSans-Regular-30" x="119.999969"/>
      </g>
     </g>
    </g>
    <g id="ytick_4">
     <g id="line2d_19">
      <path d="M 47.724375 112.565716 
L 404.844375 112.565716 
" clip-path="url(#p77e347d0ea)" style="fill: none; stroke-dasharray: 1.48,0.64; stroke-dashoffset: 0; stroke: #838383; stroke-opacity: 0.25; stroke-width: 0.4"/>
     </g>
     <g id="line2d_20"/>
     <g id="text_10">
      <!-- −15 -->
      <g style="fill: #838383" transform="translate(22.624375 117.005716) scale(0.12 -0.12)">
       <use xlink:href="#IBMPlexSans-Regular-2212"/>
       <use xlink:href="#IBMPlexSans-Regular-31" x="59.999985"/>
       <use xlink:href="#IBMPlexSans-Regular-35" x="119.999969"/>
      </g>
     </g>
    </g>
    <g id="ytick_5">
     <g id="line2d_21">
      <path d="M 47.724375 67.479986 
L 404.844375 67.479986 
" clip-path="url(#p77e347d0ea)" style="fill: none; stroke-dasharray: 1.48,0.64; stroke-dashoffset: 0; stroke: #838383; stroke-opacity: 0.25; stroke-width: 0.4"/>
     </g>
     <g id="line2d_22"/>
     <g id="text_11">
      <!-- −10 -->
      <g style="fill: #838383" transform="translate(22.624375 71.919986) scale(0.12 -0.12)">
       <use xlink:href="#IBMPlexSans-Regular-2212"/>
       <use xlink:href="#IBMPlexSans-Regular-31" x="59.999985"/>
       <use xlink:href="#IBMPlexSans-Regular-30" x="119.999969"/>
      </g>
     </g>
    </g>
    <g id="text_12">
     <!-- logprob -->
     <g style="fill: #838383" transform="translate(16.08 177.594187) rotate(-90) scale(0.12 -0.12)">
      <defs>
       <path id="IBMPlexSans-Regular-6c" d="M 1088 0 
Q 819 0 681 150 
Q 544 301 544 531 
L 544 4736 
L 1056 4736 
L 1056 448 
L 1542 448 
L 1542 0 
L 1088 0 
z
" transform="scale(0.015625)"/>
       <path id="IBMPlexSans-Regular-6f" d="M 1792 -77 
Q 1459 -77 1184 44 
Q 909 166 713 393 
Q 518 621 409 937 
Q 301 1254 301 1651 
Q 301 2042 409 2362 
Q 518 2682 713 2909 
Q 909 3136 1184 3257 
Q 1459 3379 1792 3379 
Q 2125 3379 2397 3257 
Q 2669 3136 2867 2909 
Q 3066 2682 3174 2362 
Q 3283 2042 3283 1651 
Q 3283 1254 3174 937 
Q 3066 621 2867 393 
Q 2669 166 2397 44 
Q 2125 -77 1792 -77 
z
M 1792 378 
Q 2208 378 2470 634 
Q 2733 890 2733 1414 
L 2733 1888 
Q 2733 2413 2470 2669 
Q 2208 2925 1792 2925 
Q 1376 2925 1113 2669 
Q 851 2413 851 1888 
L 851 1414 
Q 851 890 1113 634 
Q 1376 378 1792 378 
z
" transform="scale(0.015625)"/>
       <path id="IBMPlexSans-Regular-67" d="M 3328 -365 
Q 3328 -877 2928 -1117 
Q 2528 -1357 1728 -1357 
Q 954 -1357 614 -1145 
Q 275 -934 275 -544 
Q 275 -275 416 -124 
Q 557 26 800 96 
L 800 166 
Q 506 307 506 627 
Q 506 877 666 1008 
Q 826 1139 1075 1203 
L 1075 1229 
Q 781 1370 617 1632 
Q 454 1894 454 2240 
Q 454 2490 544 2701 
Q 634 2912 797 3062 
Q 960 3213 1187 3296 
Q 1414 3379 1696 3379 
Q 2048 3379 2323 3251 
L 2323 3309 
Q 2323 3501 2412 3625 
Q 2502 3750 2707 3750 
L 3200 3750 
L 3200 3302 
L 2573 3302 
L 2573 3091 
Q 2752 2938 2851 2723 
Q 2950 2509 2950 2240 
Q 2950 1990 2860 1779 
Q 2771 1568 2608 1417 
Q 2445 1267 2214 1184 
Q 1984 1101 1702 1101 
Q 1542 1101 1382 1133 
Q 1216 1088 1081 1001 
Q 947 915 947 762 
Q 947 614 1088 563 
Q 1229 512 1453 512 
L 2157 512 
Q 2771 512 3049 278 
Q 3328 45 3328 -365 
z
M 2848 -403 
Q 2848 -205 2697 -86 
Q 2547 32 2163 32 
L 1062 32 
Q 755 -109 755 -416 
Q 755 -634 918 -787 
Q 1082 -941 1472 -941 
L 1946 -941 
Q 2374 -941 2611 -806 
Q 2848 -672 2848 -403 
z
M 1702 1510 
Q 2029 1510 2221 1667 
Q 2413 1824 2413 2150 
L 2413 2330 
Q 2413 2656 2221 2813 
Q 2029 2970 1702 2970 
Q 1376 2970 1184 2813 
Q 992 2656 992 2330 
L 992 2150 
Q 992 1824 1184 1667 
Q 1376 1510 1702 1510 
z
" transform="scale(0.015625)"/>
       <path id="IBMPlexSans-Regular-70" d="M 544 3302 
L 1056 3302 
L 1056 2765 
L 1082 2765 
Q 1210 3078 1456 3228 
Q 1702 3379 2048 3379 
Q 2355 3379 2604 3257 
Q 2854 3136 3030 2912 
Q 3206 2688 3299 2368 
Q 3392 2048 3392 1651 
Q 3392 1254 3299 934 
Q 3206 614 3030 390 
Q 2854 166 2604 44 
Q 2355 -77 2048 -77 
Q 1376 -77 1082 538 
L 1056 538 
L 1056 -1280 
L 544 -1280 
L 544 3302 
z
M 1907 384 
Q 2342 384 2592 656 
Q 2842 928 2842 1370 
L 2842 1933 
Q 2842 2374 2592 2646 
Q 2342 2918 1907 2918 
Q 1734 2918 1577 2870 
Q 1421 2822 1305 2739 
Q 1190 2656 1123 2537 
Q 1056 2419 1056 2285 
L 1056 1056 
Q 1056 896 1123 771 
Q 1190 646 1305 560 
Q 1421 474 1577 429 
Q 1734 384 1907 384 
z
" transform="scale(0.015625)"/>
       <path id="IBMPlexSans-Regular-72" d="M 544 0 
L 544 3302 
L 1056 3302 
L 1056 2694 
L 1088 2694 
Q 1178 2931 1408 3116 
Q 1638 3302 2042 3302 
L 2240 3302 
L 2240 2790 
L 1939 2790 
Q 1523 2790 1289 2633 
Q 1056 2477 1056 2240 
L 1056 0 
L 544 0 
z
" transform="scale(0.015625)"/>
       <path id="IBMPlexSans-Regular-62" d="M 544 4736 
L 1056 4736 
L 1056 2765 
L 1082 2765 
Q 1210 3078 1456 3228 
Q 1702 3379 2048 3379 
Q 2355 3379 2604 3257 
Q 2854 3136 3030 2912 
Q 3206 2688 3299 2368 
Q 3392 2048 3392 1651 
Q 3392 1254 3299 934 
Q 3206 614 3030 390 
Q 2854 166 2604 44 
Q 2355 -77 2048 -77 
Q 1376 -77 1082 538 
L 1056 538 
L 1056 0 
L 544 0 
L 544 4736 
z
M 1907 384 
Q 2342 384 2592 656 
Q 2842 928 2842 1370 
L 2842 1933 
Q 2842 2374 2592 2646 
Q 2342 2918 1907 2918 
Q 1734 2918 1577 2870 
Q 1421 2822 1305 2739 
Q 1190 2656 1123 2537 
Q 1056 2419 1056 2285 
L 1056 1056 
Q 1056 896 1123 771 
Q 1190 646 1305 560 
Q 1421 474 1577 429 
Q 1734 384 1907 384 
z
" transform="scale(0.015625)"/>
      </defs>
      <use xlink:href="#IBMPlexSans-Regular-6c"/>
      <use xlink:href="#IBMPlexSans-Regular-6f" x="27.199997"/>
      <use xlink:href="#IBMPlexSans-Regular-67" x="83.199982"/>
      <use xlink:href="#IBMPlexSans-Regular-70" x="135.999969"/>
      <use xlink:href="#IBMPlexSans-Regular-72" x="193.999954"/>
      <use xlink:href="#IBMPlexSans-Regular-6f" x="230.699951"/>
      <use xlink:href="#IBMPlexSans-Regular-62" x="286.699936"/>
     </g>
    </g>
   </g>
   <g id="line2d_23">
    <path d="M 63.957102 41.843097 
L 66.575284 135.701542 
L 67.884375 119.241293 
L 69.193466 185.775362 
L 70.502557 176.087724 
L 71.811648 193.315988 
L 73.120739 178.760838 
L 74.42983 185.014243 
L 75.73892 227.093904 
L 77.048011 215.492223 
L 78.357102 178.294123 
L 79.666193 185.045963 
L 80.975284 209.416942 
L 82.284375 176.8892 
L 84.902557 238.525873 
L 86.211648 209.818982 
L 87.520739 226.574963 
L 88.82983 212.189883 
L 90.13892 260.21552 
L 91.448011 205.824059 
L 92.757102 226.722456 
L 94.066193 223.902908 
L 95.375284 214.492487 
L 96.684375 223.501489 
L 97.993466 240.238753 
L 99.302557 222.846467 
L 100.611648 255.991763 
L 103.22983 218.938398 
L 104.53892 212.44044 
L 105.848011 188.299802 
L 107.157102 229.683036 
L 108.466193 207.337539 
L 109.775284 259.372522 
L 111.084375 227.765284 
L 113.702557 259.350057 
L 115.011648 256.818648 
L 116.320739 200.105452 
L 117.62983 200.428545 
L 118.93892 196.677055 
L 122.866193 255.724973 
L 124.175284 252.266977 
L 125.484375 252.631265 
L 128.102557 194.880375 
L 130.720739 237.346685 
L 132.02983 233.398075 
L 133.33892 254.012678 
L 134.648011 258.309618 
L 137.266193 228.906004 
L 138.575284 232.172747 
L 139.884375 226.695229 
L 141.193466 212.254144 
L 143.811648 227.692743 
L 145.120739 187.847814 
L 149.048011 228.698251 
L 150.357102 223.258132 
L 151.666193 241.749484 
L 152.975284 216.654523 
L 154.284375 224.583606 
L 155.593466 224.374354 
L 156.902557 208.197239 
L 158.211648 236.92603 
L 159.520739 219.661474 
L 160.82983 219.624208 
L 162.13892 229.957177 
L 163.448011 222.545913 
L 164.757102 194.527427 
L 166.066193 247.382021 
L 167.375284 237.228338 
L 168.684375 196.902233 
L 169.993466 234.163164 
L 171.302557 207.349651 
L 172.611648 231.063832 
L 173.920739 236.048398 
L 175.22983 216.064455 
L 176.53892 261.528311 
L 177.848011 222.065643 
L 179.157102 216.593738 
L 180.466193 250.03201 
L 183.084375 214.986083 
L 184.393466 229.762898 
L 185.702557 277.872 
L 188.320739 226.299075 
L 189.62983 221.262649 
L 190.93892 231.274033 
L 192.248011 218.853191 
L 193.557102 245.430372 
L 194.866193 199.97531 
L 196.175284 206.21959 
L 197.484375 232.991017 
L 198.793466 221.50631 
L 201.411648 275.7793 
L 202.720739 218.560168 
L 204.02983 231.900665 
L 205.33892 232.601217 
L 206.648011 248.020158 
L 207.957102 225.58364 
L 209.266193 226.804115 
L 210.575284 222.729466 
L 211.884375 241.878584 
L 213.193466 243.746025 
L 214.502557 258.455043 
L 217.120739 199.308764 
L 218.42983 195.994683 
L 219.73892 155.565661 
L 221.048011 182.225862 
L 222.357102 172.502941 
L 223.666193 216.036856 
L 224.975284 222.327724 
L 226.284375 181.147729 
L 227.593466 232.462347 
L 228.902557 226.272696 
L 230.211648 228.196946 
L 231.520739 193.323904 
L 234.13892 224.569633 
L 235.448011 177.562022 
L 236.757102 222.548485 
L 238.066193 199.329467 
L 239.375284 200.981985 
L 240.684375 233.652608 
L 241.993466 216.018727 
L 243.302557 218.042094 
L 244.611648 242.373526 
L 245.920739 227.672971 
L 247.22983 224.759856 
L 249.848011 240.206581 
L 251.157102 236.020391 
L 252.466193 224.327745 
L 253.775284 251.247075 
L 255.084375 231.909546 
L 256.393466 243.146799 
L 259.011648 161.827811 
L 260.320739 217.887717 
L 261.62983 198.214039 
L 262.93892 241.958644 
L 264.248011 190.418016 
L 266.866193 238.988037 
L 268.175284 194.511688 
L 270.793466 229.196272 
L 273.411648 209.779852 
L 274.720739 209.54356 
L 276.02983 205.60484 
L 277.33892 212.403714 
L 278.648011 204.844913 
L 279.957102 190.25366 
L 282.575284 239.240847 
L 283.884375 218.748614 
L 285.193466 236.169484 
L 286.502557 223.46262 
L 287.811648 225.607446 
L 291.73892 252.819021 
L 293.048011 198.195114 
L 294.357102 240.202402 
L 295.666193 234.352806 
L 296.975284 197.586731 
L 298.284375 249.271668 
L 299.593466 245.090987 
L 300.902557 227.871521 
L 302.211648 237.999128 
L 304.82983 212.052749 
L 306.13892 237.065879 
L 308.757102 221.14949 
L 310.066193 266.536249 
L 311.375284 200.945867 
L 313.993466 187.91775 
L 315.302557 231.557986 
L 316.611648 224.115091 
L 317.920739 241.555421 
L 319.22983 230.244174 
L 320.53892 265.669941 
L 321.848011 186.500393 
L 323.157102 195.328032 
L 324.466193 235.840007 
L 325.775284 217.58775 
L 327.084375 240.004297 
L 328.393466 219.632772 
L 329.702557 239.891063 
L 333.62983 180.542894 
L 334.93892 213.747375 
L 336.248011 219.581223 
L 337.557102 203.57463 
L 338.866193 217.255163 
L 340.175284 251.865612 
L 341.484375 250.599878 
L 342.793466 252.646382 
L 346.720739 212.604256 
L 348.02983 210.075583 
L 349.33892 195.474614 
L 350.648011 226.768161 
L 351.957102 217.397472 
L 353.266193 227.30812 
L 355.884375 168.054727 
L 357.193466 198.753291 
L 358.502557 195.305563 
L 359.811648 247.276124 
L 361.120739 229.22126 
L 362.42983 235.8535 
L 363.73892 212.080812 
L 365.048011 228.904497 
L 368.975284 159.941045 
L 370.284375 198.042603 
L 371.593466 186.385235 
L 372.902557 221.850457 
L 374.211648 205.816753 
L 375.520739 212.474094 
L 378.13892 170.827018 
L 380.757102 217.985657 
L 382.066193 197.527094 
L 383.375284 231.084275 
L 385.993466 195.5504 
L 387.302557 215.502017 
L 388.611648 183.794753 
L 388.611648 183.794753 
" clip-path="url(#p77e347d0ea)" style="fill: none; stroke: #440154; stroke-width: 1.5; stroke-linecap: round"/>
   </g>
   <g id="line2d_24">
    <path d="M 63.957102 38.250706 
L 66.575284 133.221942 
L 67.884375 114.913078 
L 69.193466 184.389161 
L 70.502557 171.381489 
L 71.811648 191.778218 
L 73.120739 173.655639 
L 74.42983 180.440157 
L 75.73892 222.769468 
L 77.048011 212.206085 
L 78.357102 171.842915 
L 79.666193 181.61754 
L 80.975284 206.011709 
L 82.284375 170.966508 
L 84.902557 231.320031 
L 86.211648 204.488395 
L 87.520739 222.747734 
L 88.82983 207.838634 
L 90.13892 255.14864 
L 91.448011 201.876368 
L 92.757102 221.680279 
L 94.066193 219.7637 
L 95.375284 210.487135 
L 96.684375 219.261424 
L 97.993466 235.589089 
L 99.302557 218.859797 
L 100.611648 252.263086 
L 103.22983 210.89077 
L 104.53892 209.030933 
L 105.848011 181.307527 
L 107.157102 225.714304 
L 108.466193 202.657452 
L 109.775284 256.340725 
L 111.084375 222.843991 
L 113.702557 254.690566 
L 115.011648 253.817185 
L 116.320739 194.832534 
L 117.62983 197.080303 
L 118.93892 189.813664 
L 122.866193 249.71492 
L 124.175284 246.609824 
L 125.484375 248.017519 
L 128.102557 186.738278 
L 130.720739 233.81684 
L 132.02983 230.977917 
L 134.648011 252.432208 
L 137.266193 227.83016 
L 138.575284 225.97447 
L 141.193466 206.039702 
L 143.811648 223.800756 
L 145.120739 184.607633 
L 146.42983 192.023622 
L 149.048011 225.233903 
L 150.357102 218.569677 
L 151.666193 236.927522 
L 152.975284 211.130487 
L 154.284375 221.236357 
L 155.593466 222.559457 
L 156.902557 202.033092 
L 158.211648 232.844509 
L 159.520739 213.950157 
L 160.82983 215.743699 
L 162.13892 226.757641 
L 163.448011 215.168773 
L 164.757102 183.584877 
L 166.066193 244.01935 
L 167.375284 234.636954 
L 168.684375 190.263093 
L 169.993466 229.335243 
L 171.302557 200.849224 
L 172.611648 227.667482 
L 173.920739 229.414832 
L 175.22983 208.706938 
L 176.53892 259.432459 
L 177.848011 216.721983 
L 179.157102 213.3332 
L 180.466193 246.282401 
L 183.084375 209.482997 
L 184.393466 226.596766 
L 185.702557 274.228621 
L 187.011648 228.380237 
L 189.62983 214.76817 
L 190.93892 228.39702 
L 192.248011 213.499961 
L 193.557102 237.7687 
L 194.866193 195.950663 
L 196.175284 201.853517 
L 197.484375 228.281908 
L 198.793466 217.058218 
L 201.411648 271.485518 
L 202.720739 213.362812 
L 204.02983 230.050616 
L 205.33892 226.077324 
L 206.648011 244.823111 
L 207.957102 217.99082 
L 209.266193 222.662051 
L 210.575284 217.683473 
L 211.884375 238.961641 
L 213.193466 236.286545 
L 214.502557 254.538634 
L 217.120739 193.787035 
L 218.42983 190.83388 
L 219.73892 151.283306 
L 221.048011 173.571108 
L 222.357102 169.535734 
L 223.666193 212.180707 
L 224.975284 218.928105 
L 226.284375 172.406466 
L 227.593466 228.343132 
L 228.902557 221.50806 
L 230.211648 225.337572 
L 231.520739 185.641077 
L 232.82983 217.131347 
L 234.13892 220.227796 
L 235.448011 173.027838 
L 236.757102 219.81772 
L 238.066193 194.667896 
L 239.375284 193.539601 
L 240.684375 228.827556 
L 241.993466 211.764864 
L 243.302557 211.925912 
L 244.611648 238.291728 
L 245.920739 220.854015 
L 247.22983 217.314845 
L 249.848011 237.496607 
L 251.157102 231.576133 
L 252.466193 220.240889 
L 253.775284 246.932383 
L 255.084375 225.643043 
L 256.393466 239.349312 
L 259.011648 156.798059 
L 260.320739 212.812992 
L 261.62983 193.187469 
L 262.93892 237.269284 
L 264.248011 190.129882 
L 266.866193 236.921761 
L 268.175284 186.697062 
L 270.793466 226.214947 
L 273.411648 201.597135 
L 274.720739 207.311149 
L 276.02983 200.052785 
L 277.33892 207.311548 
L 278.648011 199.680566 
L 279.957102 182.308451 
L 282.575284 237.575033 
L 283.884375 211.253564 
L 285.193466 232.948603 
L 287.811648 218.033001 
L 290.42983 241.378452 
L 291.73892 251.276985 
L 293.048011 193.228471 
L 294.357102 237.540451 
L 295.666193 229.126385 
L 296.975284 191.051953 
L 298.284375 245.154439 
L 299.593466 242.032392 
L 300.902557 225.723827 
L 302.211648 233.597037 
L 304.82983 207.32363 
L 306.13892 234.035239 
L 307.448011 220.049101 
L 308.757102 217.857573 
L 310.066193 262.868166 
L 311.375284 199.591122 
L 312.684375 192.596296 
L 313.993466 179.359239 
L 315.302557 226.571447 
L 316.611648 220.798638 
L 317.920739 236.999065 
L 319.22983 222.998698 
L 320.53892 262.277524 
L 321.848011 182.275386 
L 323.157102 191.000244 
L 324.466193 233.342399 
L 325.775284 210.469276 
L 327.084375 235.450325 
L 328.393466 211.884468 
L 329.702557 236.429568 
L 333.62983 177.989 
L 334.93892 210.992207 
L 336.248011 214.61117 
L 337.557102 199.725944 
L 338.866193 214.025132 
L 340.175284 249.374653 
L 341.484375 245.460707 
L 342.793466 249.630469 
L 349.33892 192.245035 
L 350.648011 220.841074 
L 351.957102 213.999842 
L 353.266193 222.049778 
L 355.884375 161.983459 
L 357.193466 194.522654 
L 358.502557 188.859173 
L 359.811648 242.809792 
L 361.120739 226.394108 
L 362.42983 231.103347 
L 363.73892 208.164578 
L 365.048011 227.614929 
L 368.975284 155.10726 
L 370.284375 191.007843 
L 371.593466 181.401689 
L 372.902557 219.150439 
L 374.211648 202.913892 
L 375.520739 208.313899 
L 378.13892 162.813595 
L 380.757102 213.897116 
L 382.066193 193.527708 
L 383.375284 227.511122 
L 385.993466 191.127411 
L 387.302557 209.781512 
L 388.611648 176.730016 
L 388.611648 176.730016 
" clip-path="url(#p77e347d0ea)" style="fill: none; stroke: #31688e; stroke-width: 1.5; stroke-linecap: round"/>
   </g>
   <g id="line2d_25">
    <path d="M 63.957102 35.952 
L 66.575284 133.043164 
L 67.884375 114.022925 
L 69.193466 180.988416 
L 70.502557 167.904303 
L 71.811648 188.745025 
L 73.120739 167.162013 
L 74.42983 178.197583 
L 75.73892 215.914118 
L 77.048011 208.343537 
L 78.357102 167.987646 
L 79.666193 176.219698 
L 80.975284 204.752035 
L 82.284375 165.677406 
L 84.902557 229.006951 
L 86.211648 198.507603 
L 87.520739 216.869098 
L 88.82983 199.834549 
L 90.13892 253.206677 
L 91.448011 196.179521 
L 92.757102 214.072542 
L 94.066193 213.428091 
L 95.375284 205.331543 
L 97.993466 231.543262 
L 99.302557 211.629582 
L 100.611648 252.383572 
L 103.22983 205.224547 
L 104.53892 203.553867 
L 105.848011 175.797562 
L 107.157102 219.285656 
L 108.466193 191.413899 
L 109.775284 251.750285 
L 111.084375 215.915244 
L 113.702557 251.332724 
L 115.011648 249.543309 
L 116.320739 190.298395 
L 117.62983 192.49446 
L 118.93892 185.763984 
L 122.866193 246.503898 
L 124.175284 240.142861 
L 125.484375 243.935853 
L 128.102557 178.34607 
L 130.720739 227.127335 
L 132.02983 224.27714 
L 134.648011 250.298535 
L 137.266193 220.036192 
L 138.575284 222.732543 
L 141.193466 202.622037 
L 143.811648 219.288664 
L 145.120739 178.241822 
L 146.42983 186.367255 
L 149.048011 221.813056 
L 150.357102 216.051648 
L 151.666193 235.920708 
L 152.975284 205.565981 
L 154.284375 219.053756 
L 155.593466 220.183961 
L 156.902557 195.777185 
L 158.211648 224.227258 
L 159.520739 209.315509 
L 160.82983 212.497245 
L 162.13892 224.121806 
L 163.448011 211.953204 
L 164.757102 179.919479 
L 166.066193 241.860605 
L 167.375284 229.58613 
L 168.684375 189.183736 
L 169.993466 225.113301 
L 171.302557 196.213375 
L 172.611648 223.293698 
L 173.920739 226.644227 
L 175.22983 204.016174 
L 176.53892 258.361548 
L 177.848011 214.676271 
L 179.157102 210.069378 
L 180.466193 242.149245 
L 183.084375 205.290016 
L 184.393466 220.195317 
L 185.702557 272.106539 
L 187.011648 224.209366 
L 189.62983 211.469875 
L 190.93892 227.719978 
L 192.248011 208.13236 
L 193.557102 234.434708 
L 194.866193 190.865961 
L 196.175284 196.342649 
L 197.484375 226.319247 
L 198.793466 211.127471 
L 201.411648 264.544705 
L 202.720739 207.179159 
L 204.02983 222.411219 
L 205.33892 220.96471 
L 206.648011 239.297032 
L 207.957102 212.531242 
L 209.266193 218.223376 
L 210.575284 215.32399 
L 211.884375 232.069716 
L 213.193466 234.842315 
L 214.502557 247.04795 
L 217.120739 191.544853 
L 218.42983 189.763227 
L 219.73892 146.100624 
L 221.048011 167.967988 
L 222.357102 160.376693 
L 223.666193 206.254944 
L 224.975284 209.497238 
L 226.284375 171.475046 
L 227.593466 225.458114 
L 228.902557 215.067621 
L 230.211648 223.857778 
L 231.520739 182.454843 
L 232.82983 214.001633 
L 234.13892 213.113339 
L 235.448011 166.875931 
L 236.757102 214.242813 
L 238.066193 190.033654 
L 239.375284 186.467985 
L 240.684375 226.898183 
L 241.993466 206.267673 
L 243.302557 210.834855 
L 244.611648 232.117176 
L 245.920739 215.700459 
L 247.22983 214.009115 
L 249.848011 234.040729 
L 252.466193 212.482467 
L 253.775284 243.233567 
L 255.084375 221.684583 
L 256.393466 233.934435 
L 259.011648 152.112342 
L 260.320739 208.711302 
L 261.62983 188.934895 
L 262.93892 231.169867 
L 264.248011 185.891585 
L 266.866193 229.722329 
L 268.175284 179.4996 
L 270.793466 222.511233 
L 273.411648 197.165381 
L 274.720739 199.233822 
L 276.02983 198.411969 
L 277.33892 202.498002 
L 278.648011 196.317021 
L 279.957102 172.840813 
L 282.575284 231.728375 
L 283.884375 206.506785 
L 285.193466 227.128154 
L 286.502557 215.19875 
L 287.811648 212.763773 
L 289.120739 230.388419 
L 290.42983 234.129461 
L 291.73892 246.779276 
L 293.048011 189.522695 
L 294.357102 233.036482 
L 295.666193 223.073978 
L 296.975284 186.59422 
L 298.284375 241.879987 
L 299.593466 234.507385 
L 300.902557 220.597806 
L 302.211648 228.646082 
L 304.82983 200.421526 
L 306.13892 230.155565 
L 307.448011 215.862469 
L 308.757102 212.619868 
L 310.066193 261.971252 
L 311.375284 192.156207 
L 313.993466 174.400444 
L 315.302557 219.729791 
L 316.611648 217.961504 
L 317.920739 229.353181 
L 319.22983 219.846037 
L 320.53892 259.493529 
L 321.848011 177.380657 
L 323.157102 183.158654 
L 324.466193 226.942407 
L 325.775284 206.716855 
L 327.084375 230.38855 
L 328.393466 207.936067 
L 329.702557 228.440041 
L 333.62983 170.196165 
L 334.93892 204.427189 
L 336.248011 208.040986 
L 337.557102 191.688722 
L 338.866193 207.749546 
L 340.175284 241.732472 
L 341.484375 240.724533 
L 342.793466 243.868574 
L 349.33892 184.99314 
L 350.648011 215.194865 
L 351.957102 212.947996 
L 353.266193 218.414415 
L 355.884375 152.370836 
L 357.193466 188.208937 
L 358.502557 180.325735 
L 359.811648 236.578669 
L 361.120739 220.946606 
L 362.42983 226.227082 
L 363.73892 203.548094 
L 365.048011 223.372474 
L 368.975284 149.24189 
L 370.284375 186.259542 
L 371.593466 171.955649 
L 372.902557 212.404459 
L 374.211648 195.865412 
L 375.520739 202.987485 
L 378.13892 158.473479 
L 380.757102 210.780102 
L 382.066193 185.094501 
L 383.375284 222.267613 
L 385.993466 185.228024 
L 387.302557 203.960604 
L 388.611648 171.70916 
L 388.611648 171.70916 
" clip-path="url(#p77e347d0ea)" style="fill: none; stroke: #35b779; stroke-width: 1.5; stroke-linecap: round"/>
   </g>
   <g id="patch_3">
    <path d="M 47.724375 289.968 
L 47.724375 23.856 
" style="fill: none"/>
   </g>
   <g id="patch_4">
    <path d="M 404.844375 289.968 
L 404.844375 23.856 
" style="fill: none"/>
   </g>
   <g id="patch_5">
    <path d="M 47.724375 289.968 
L 404.844375 289.968 
" style="fill: none"/>
   </g>
   <g id="patch_6">
    <path d="M 47.724375 23.856 
L 404.844375 23.856 
" style="fill: none"/>
   </g>
   <g id="text_13">
    <!-- Evaluate -->
    <g style="fill: #838383" transform="translate(198.325875 17.856) scale(0.144 -0.144)">
     <defs>
      <path id="IBMPlexSans-Regular-45" d="M 595 0 
L 595 4467 
L 3322 4467 
L 3322 3994 
L 1133 3994 
L 1133 2496 
L 3194 2496 
L 3194 2022 
L 1133 2022 
L 1133 474 
L 3322 474 
L 3322 0 
L 595 0 
z
" transform="scale(0.015625)"/>
      <path id="IBMPlexSans-Regular-76" d="M 1274 0 
L 115 3302 
L 627 3302 
L 1203 1664 
L 1562 538 
L 1594 538 
L 1952 1664 
L 2541 3302 
L 3034 3302 
L 1869 0 
L 1274 0 
z
" transform="scale(0.015625)"/>
      <path id="IBMPlexSans-Regular-61" d="M 2944 0 
Q 2656 0 2531 153 
Q 2406 307 2374 538 
L 2342 538 
Q 2234 230 1984 76 
Q 1734 -77 1389 -77 
Q 864 -77 573 192 
Q 282 461 282 922 
Q 282 1389 624 1638 
Q 966 1888 1690 1888 
L 2342 1888 
L 2342 2214 
Q 2342 2566 2150 2752 
Q 1958 2938 1562 2938 
Q 1261 2938 1059 2803 
Q 858 2669 723 2445 
L 416 2733 
Q 550 3002 844 3190 
Q 1139 3379 1587 3379 
Q 2189 3379 2521 3084 
Q 2854 2790 2854 2266 
L 2854 448 
L 3232 448 
L 3232 0 
L 2944 0 
z
M 1472 358 
Q 1664 358 1824 403 
Q 1984 448 2099 531 
Q 2214 614 2278 723 
Q 2342 832 2342 960 
L 2342 1504 
L 1664 1504 
Q 1222 1504 1020 1376 
Q 819 1248 819 1005 
L 819 870 
Q 819 627 995 492 
Q 1171 358 1472 358 
z
" transform="scale(0.015625)"/>
      <path id="IBMPlexSans-Regular-75" d="M 2579 538 
L 2554 538 
Q 2502 422 2428 310 
Q 2355 198 2246 112 
Q 2138 26 1984 -25 
Q 1830 -77 1626 -77 
Q 1114 -77 813 252 
Q 512 582 512 1184 
L 512 3302 
L 1024 3302 
L 1024 1274 
Q 1024 384 1779 384 
Q 1933 384 2077 422 
Q 2221 461 2333 537 
Q 2445 614 2512 732 
Q 2579 851 2579 1018 
L 2579 3302 
L 3091 3302 
L 3091 0 
L 2579 0 
L 2579 538 
z
" transform="scale(0.015625)"/>
      <path id="IBMPlexSans-Regular-74" d="M 1274 0 
Q 1005 0 867 150 
Q 730 301 730 544 
L 730 2854 
L 186 2854 
L 186 3302 
L 493 3302 
Q 659 3302 720 3369 
Q 781 3437 781 3603 
L 781 4218 
L 1242 4218 
L 1242 3302 
L 1965 3302 
L 1965 2854 
L 1242 2854 
L 1242 448 
L 1914 448 
L 1914 0 
L 1274 0 
z
" transform="scale(0.015625)"/>
      <path id="IBMPlexSans-Regular-65" d="M 1786 -77 
Q 1446 -77 1174 44 
Q 902 166 707 393 
Q 512 621 406 937 
Q 301 1254 301 1651 
Q 301 2042 406 2362 
Q 512 2682 707 2909 
Q 902 3136 1174 3257 
Q 1446 3379 1786 3379 
Q 2118 3379 2380 3257 
Q 2643 3136 2828 2921 
Q 3014 2707 3113 2412 
Q 3213 2118 3213 1766 
L 3213 1523 
L 838 1523 
L 838 1370 
Q 838 1158 905 976 
Q 973 794 1097 659 
Q 1222 525 1404 448 
Q 1587 371 1818 371 
Q 2131 371 2364 518 
Q 2598 666 2726 941 
L 3091 678 
Q 2931 339 2592 131 
Q 2253 -77 1786 -77 
z
M 1786 2950 
Q 1574 2950 1401 2876 
Q 1229 2803 1104 2668 
Q 979 2534 908 2352 
Q 838 2170 838 1952 
L 838 1907 
L 2662 1907 
L 2662 1978 
Q 2662 2419 2422 2684 
Q 2182 2950 1786 2950 
z
" transform="scale(0.015625)"/>
     </defs>
     <use xlink:href="#IBMPlexSans-Regular-45"/>
     <use xlink:href="#IBMPlexSans-Regular-76" x="58.299988"/>
     <use xlink:href="#IBMPlexSans-Regular-61" x="107.499985"/>
     <use xlink:href="#IBMPlexSans-Regular-6c" x="160.899979"/>
     <use xlink:href="#IBMPlexSans-Regular-75" x="188.099976"/>
     <use xlink:href="#IBMPlexSans-Regular-61" x="244.899963"/>
     <use xlink:href="#IBMPlexSans-Regular-74" x="298.299957"/>
     <use xlink:href="#IBMPlexSans-Regular-65" x="333.399948"/>
    </g>
   </g>
  </g>
 </g>
 <defs>
  <clipPath id="p77e347d0ea">
   <rect x="47.724375" y="23.856" width="357.12" height="266.112"/>
  </clipPath>
 </defs>
</svg>
