<?xml version="1.0" encoding="utf-8" standalone="no"?>
<!DOCTYPE svg PUBLIC "-//W3C//DTD SVG 1.1//EN"
  "http://www.w3.org/Graphics/SVG/1.1/DTD/svg11.dtd">
<svg xmlns:xlink="http://www.w3.org/1999/xlink" width="422.50875pt" height="311.948pt" viewBox="0 0 422.50875 311.948" xmlns="http://www.w3.org/2000/svg" version="1.1">
 <metadata>
  <rdf:RDF xmlns:dc="http://purl.org/dc/elements/1.1/" xmlns:cc="http://creativecommons.org/ns#" xmlns:rdf="http://www.w3.org/1999/02/22-rdf-syntax-ns#">
   <cc:Work>
    <dc:type rdf:resource="http://purl.org/dc/dcmitype/StillImage"/>
    <dc:date>2024-07-04T21:21:23.044485</dc:date>
    <dc:format>image/svg+xml</dc:format>
    <dc:creator>
     <cc:Agent>
      <dc:title>Matplotlib v3.8.4, https://matplotlib.org/</dc:title>
     </cc:Agent>
    </dc:creator>
   </cc:Work>
  </rdf:RDF>
 </metadata>
 <defs>
  <style type="text/css">*{stroke-linejoin: round; stroke-linecap: butt}</style>
 </defs>
 <g id="figure_1">
  <g id="patch_1">
   <path d="M 0 311.948 
L 422.50875 311.948 
L 422.50875 0 
L 0 0 
L 0 311.948 
z
" style="fill: none"/>
  </g>
  <g id="axes_1">
   <g id="patch_2">
    <path d="M 58.18875 289.968 
L 415.30875 289.968 
L 415.30875 23.856 
L 58.18875 23.856 
L 58.18875 289.968 
z
" style="fill: none"/>
   </g>
   <g id="matplotlib.axis_1">
    <g id="xtick_1">
     <g id="line2d_1">
      <path d="M 74.421477 289.968 
L 74.421477 23.856 
" clip-path="url(#p5e599fcaf5)" style="fill: none; stroke-dasharray: 1.48,0.64; stroke-dashoffset: 0; stroke: #838383; stroke-opacity: 0.25; stroke-width: 0.4"/>
     </g>
     <g id="line2d_2"/>
     <g id="text_1">
      <!-- 0 -->
      <g style="fill: #838383" transform="translate(70.821477 302.348) scale(0.12 -0.12)">
       <defs>
        <path id="IBMPlexSans-Regular-30" d="M 1920 -77 
Q 1120 -77 752 531 
Q 384 1139 384 2234 
Q 384 3328 752 3936 
Q 1120 4544 1920 4544 
Q 2720 4544 3088 3936 
Q 3456 3328 3456 2234 
Q 3456 1139 3088 531 
Q 2720 -77 1920 -77 
z
M 1920 390 
Q 2182 390 2368 499 
Q 2554 608 2669 806 
Q 2784 1005 2838 1273 
Q 2893 1542 2893 1869 
L 2893 2598 
Q 2893 2925 2838 3193 
Q 2784 3462 2669 3660 
Q 2554 3859 2368 3968 
Q 2182 4077 1920 4077 
Q 1658 4077 1472 3968 
Q 1286 3859 1171 3660 
Q 1056 3462 1001 3193 
Q 947 2925 947 2598 
L 947 1869 
Q 947 1542 1001 1273 
Q 1056 1005 1171 806 
Q 1286 608 1472 499 
Q 1658 390 1920 390 
z
" transform="scale(0.015625)"/>
       </defs>
       <use xlink:href="#IBMPlexSans-Regular-30"/>
      </g>
     </g>
    </g>
    <g id="xtick_2">
     <g id="line2d_3">
      <path d="M 139.876023 289.968 
L 139.876023 23.856 
" clip-path="url(#p5e599fcaf5)" style="fill: none; stroke-dasharray: 1.48,0.64; stroke-dashoffset: 0; stroke: #838383; stroke-opacity: 0.25; stroke-width: 0.4"/>
     </g>
     <g id="line2d_4"/>
     <g id="text_2">
      <!-- 50 -->
      <g style="fill: #838383" transform="translate(132.676023 302.348) scale(0.12 -0.12)">
       <defs>
        <path id="IBMPlexSans-Regular-35" d="M 3187 3994 
L 1229 3994 
L 1101 2291 
L 1146 2291 
Q 1306 2515 1507 2649 
Q 1709 2784 2061 2784 
Q 2349 2784 2592 2688 
Q 2835 2592 3014 2416 
Q 3194 2240 3293 1984 
Q 3392 1728 3392 1402 
Q 3392 1075 3289 803 
Q 3187 531 2992 336 
Q 2797 141 2518 32 
Q 2240 -77 1888 -77 
Q 1606 -77 1392 -13 
Q 1178 51 1011 160 
Q 845 269 720 403 
Q 595 538 493 685 
L 896 992 
Q 979 858 1072 749 
Q 1165 640 1277 563 
Q 1389 486 1536 444 
Q 1683 403 1888 403 
Q 2349 403 2585 646 
Q 2822 890 2822 1331 
L 2822 1395 
Q 2822 1837 2585 2080 
Q 2349 2323 1888 2323 
Q 1581 2323 1405 2211 
Q 1229 2099 1088 1946 
L 634 2010 
L 794 4467 
L 3187 4467 
L 3187 3994 
z
" transform="scale(0.015625)"/>
       </defs>
       <use xlink:href="#IBMPlexSans-Regular-35"/>
       <use xlink:href="#IBMPlexSans-Regular-30" x="59.999985"/>
      </g>
     </g>
    </g>
    <g id="xtick_3">
     <g id="line2d_5">
      <path d="M 205.330568 289.968 
L 205.330568 23.856 
" clip-path="url(#p5e599fcaf5)" style="fill: none; stroke-dasharray: 1.48,0.64; stroke-dashoffset: 0; stroke: #838383; stroke-opacity: 0.25; stroke-width: 0.4"/>
     </g>
     <g id="line2d_6"/>
     <g id="text_3">
      <!-- 100 -->
      <g style="fill: #838383" transform="translate(194.530568 302.348) scale(0.12 -0.12)">
       <defs>
        <path id="IBMPlexSans-Regular-31" d="M 563 0 
L 563 474 
L 1811 474 
L 1811 4070 
L 1766 4070 
L 640 3021 
L 326 3360 
L 1510 4467 
L 2349 4467 
L 2349 474 
L 3501 474 
L 3501 0 
L 563 0 
z
" transform="scale(0.015625)"/>
       </defs>
       <use xlink:href="#IBMPlexSans-Regular-31"/>
       <use xlink:href="#IBMPlexSans-Regular-30" x="59.999985"/>
       <use xlink:href="#IBMPlexSans-Regular-30" x="119.999969"/>
      </g>
     </g>
    </g>
    <g id="xtick_4">
     <g id="line2d_7">
      <path d="M 270.785114 289.968 
L 270.785114 23.856 
" clip-path="url(#p5e599fcaf5)" style="fill: none; stroke-dasharray: 1.48,0.64; stroke-dashoffset: 0; stroke: #838383; stroke-opacity: 0.25; stroke-width: 0.4"/>
     </g>
     <g id="line2d_8"/>
     <g id="text_4">
      <!-- 150 -->
      <g style="fill: #838383" transform="translate(259.985114 302.348) scale(0.12 -0.12)">
       <use xlink:href="#IBMPlexSans-Regular-31"/>
       <use xlink:href="#IBMPlexSans-Regular-35" x="59.999985"/>
       <use xlink:href="#IBMPlexSans-Regular-30" x="119.999969"/>
      </g>
     </g>
    </g>
    <g id="xtick_5">
     <g id="line2d_9">
      <path d="M 336.239659 289.968 
L 336.239659 23.856 
" clip-path="url(#p5e599fcaf5)" style="fill: none; stroke-dasharray: 1.48,0.64; stroke-dashoffset: 0; stroke: #838383; stroke-opacity: 0.25; stroke-width: 0.4"/>
     </g>
     <g id="line2d_10"/>
     <g id="text_5">
      <!-- 200 -->
      <g style="fill: #838383" transform="translate(325.439659 302.348) scale(0.12 -0.12)">
       <defs>
        <path id="IBMPlexSans-Regular-32" d="M 3411 0 
L 480 0 
L 480 550 
L 1939 1894 
Q 2253 2182 2464 2505 
Q 2675 2829 2675 3155 
L 2675 3232 
Q 2675 3603 2470 3833 
Q 2266 4064 1850 4064 
Q 1645 4064 1491 4006 
Q 1338 3949 1226 3846 
Q 1114 3744 1040 3606 
Q 966 3469 922 3309 
L 442 3494 
Q 506 3693 618 3881 
Q 730 4070 899 4217 
Q 1069 4365 1309 4454 
Q 1549 4544 1875 4544 
Q 2202 4544 2458 4448 
Q 2714 4352 2886 4179 
Q 3059 4006 3152 3769 
Q 3245 3533 3245 3245 
Q 3245 2982 3171 2758 
Q 3098 2534 2970 2332 
Q 2842 2131 2659 1939 
Q 2477 1747 2266 1555 
L 1062 474 
L 3411 474 
L 3411 0 
z
" transform="scale(0.015625)"/>
       </defs>
       <use xlink:href="#IBMPlexSans-Regular-32"/>
       <use xlink:href="#IBMPlexSans-Regular-30" x="59.999985"/>
       <use xlink:href="#IBMPlexSans-Regular-30" x="119.999969"/>
      </g>
     </g>
    </g>
    <g id="xtick_6">
     <g id="line2d_11">
      <path d="M 401.694205 289.968 
L 401.694205 23.856 
" clip-path="url(#p5e599fcaf5)" style="fill: none; stroke-dasharray: 1.48,0.64; stroke-dashoffset: 0; stroke: #838383; stroke-opacity: 0.25; stroke-width: 0.4"/>
     </g>
     <g id="line2d_12"/>
     <g id="text_6">
      <!-- 250 -->
      <g style="fill: #838383" transform="translate(390.894205 302.348) scale(0.12 -0.12)">
       <use xlink:href="#IBMPlexSans-Regular-32"/>
       <use xlink:href="#IBMPlexSans-Regular-35" x="59.999985"/>
       <use xlink:href="#IBMPlexSans-Regular-30" x="119.999969"/>
      </g>
     </g>
    </g>
   </g>
   <g id="matplotlib.axis_2">
    <g id="ytick_1">
     <g id="line2d_13">
      <path d="M 58.18875 277.58471 
L 415.30875 277.58471 
" clip-path="url(#p5e599fcaf5)" style="fill: none; stroke-dasharray: 1.48,0.64; stroke-dashoffset: 0; stroke: #838383; stroke-opacity: 0.25; stroke-width: 0.4"/>
     </g>
     <g id="line2d_14"/>
     <g id="text_7">
      <!-- −0.15 -->
      <g style="fill: #838383" transform="translate(22.624375 282.02471) scale(0.12 -0.12)">
       <defs>
        <path id="IBMPlexSans-Regular-2212" d="M 429 1734 
L 429 2170 
L 3411 2170 
L 3411 1734 
L 429 1734 
z
" transform="scale(0.015625)"/>
        <path id="IBMPlexSans-Regular-2e" d="M 870 -77 
Q 666 -77 573 25 
Q 480 128 480 294 
L 480 378 
Q 480 544 573 646 
Q 666 749 870 749 
Q 1075 749 1168 646 
Q 1261 544 1261 378 
L 1261 294 
Q 1261 128 1168 25 
Q 1075 -77 870 -77 
z
" transform="scale(0.015625)"/>
       </defs>
       <use xlink:href="#IBMPlexSans-Regular-2212"/>
       <use xlink:href="#IBMPlexSans-Regular-30" x="59.999985"/>
       <use xlink:href="#IBMPlexSans-Regular-2e" x="119.999969"/>
       <use xlink:href="#IBMPlexSans-Regular-31" x="147.199966"/>
       <use xlink:href="#IBMPlexSans-Regular-35" x="207.199951"/>
      </g>
     </g>
    </g>
    <g id="ytick_2">
     <g id="line2d_15">
      <path d="M 58.18875 244.301364 
L 415.30875 244.301364 
" clip-path="url(#p5e599fcaf5)" style="fill: none; stroke-dasharray: 1.48,0.64; stroke-dashoffset: 0; stroke: #838383; stroke-opacity: 0.25; stroke-width: 0.4"/>
     </g>
     <g id="line2d_16"/>
     <g id="text_8">
      <!-- −0.10 -->
      <g style="fill: #838383" transform="translate(22.624375 248.741364) scale(0.12 -0.12)">
       <use xlink:href="#IBMPlexSans-Regular-2212"/>
       <use xlink:href="#IBMPlexSans-Regular-30" x="59.999985"/>
       <use xlink:href="#IBMPlexSans-Regular-2e" x="119.999969"/>
       <use xlink:href="#IBMPlexSans-Regular-31" x="147.199966"/>
       <use xlink:href="#IBMPlexSans-Regular-30" x="207.199951"/>
      </g>
     </g>
    </g>
    <g id="ytick_3">
     <g id="line2d_17">
      <path d="M 58.18875 211.018018 
L 415.30875 211.018018 
" clip-path="url(#p5e599fcaf5)" style="fill: none; stroke-dasharray: 1.48,0.64; stroke-dashoffset: 0; stroke: #838383; stroke-opacity: 0.25; stroke-width: 0.4"/>
     </g>
     <g id="line2d_18"/>
     <g id="text_9">
      <!-- −0.05 -->
      <g style="fill: #838383" transform="translate(22.624375 215.458018) scale(0.12 -0.12)">
       <use xlink:href="#IBMPlexSans-Regular-2212"/>
       <use xlink:href="#IBMPlexSans-Regular-30" x="59.999985"/>
       <use xlink:href="#IBMPlexSans-Regular-2e" x="119.999969"/>
       <use xlink:href="#IBMPlexSans-Regular-30" x="147.199966"/>
       <use xlink:href="#IBMPlexSans-Regular-35" x="207.199951"/>
      </g>
     </g>
    </g>
    <g id="ytick_4">
     <g id="line2d_19">
      <path d="M 58.18875 177.734672 
L 415.30875 177.734672 
" clip-path="url(#p5e599fcaf5)" style="fill: none; stroke-dasharray: 1.48,0.64; stroke-dashoffset: 0; stroke: #838383; stroke-opacity: 0.25; stroke-width: 0.4"/>
     </g>
     <g id="line2d_20"/>
     <g id="text_10">
      <!-- 0.00 -->
      <g style="fill: #838383" transform="translate(29.824375 182.174672) scale(0.12 -0.12)">
       <use xlink:href="#IBMPlexSans-Regular-30"/>
       <use xlink:href="#IBMPlexSans-Regular-2e" x="59.999985"/>
       <use xlink:href="#IBMPlexSans-Regular-30" x="87.199982"/>
       <use xlink:href="#IBMPlexSans-Regular-30" x="147.199966"/>
      </g>
     </g>
    </g>
    <g id="ytick_5">
     <g id="line2d_21">
      <path d="M 58.18875 144.451327 
L 415.30875 144.451327 
" clip-path="url(#p5e599fcaf5)" style="fill: none; stroke-dasharray: 1.48,0.64; stroke-dashoffset: 0; stroke: #838383; stroke-opacity: 0.25; stroke-width: 0.4"/>
     </g>
     <g id="line2d_22"/>
     <g id="text_11">
      <!-- 0.05 -->
      <g style="fill: #838383" transform="translate(29.824375 148.891327) scale(0.12 -0.12)">
       <use xlink:href="#IBMPlexSans-Regular-30"/>
       <use xlink:href="#IBMPlexSans-Regular-2e" x="59.999985"/>
       <use xlink:href="#IBMPlexSans-Regular-30" x="87.199982"/>
       <use xlink:href="#IBMPlexSans-Regular-35" x="147.199966"/>
      </g>
     </g>
    </g>
    <g id="ytick_6">
     <g id="line2d_23">
      <path d="M 58.18875 111.167981 
L 415.30875 111.167981 
" clip-path="url(#p5e599fcaf5)" style="fill: none; stroke-dasharray: 1.48,0.64; stroke-dashoffset: 0; stroke: #838383; stroke-opacity: 0.25; stroke-width: 0.4"/>
     </g>
     <g id="line2d_24"/>
     <g id="text_12">
      <!-- 0.10 -->
      <g style="fill: #838383" transform="translate(29.824375 115.607981) scale(0.12 -0.12)">
       <use xlink:href="#IBMPlexSans-Regular-30"/>
       <use xlink:href="#IBMPlexSans-Regular-2e" x="59.999985"/>
       <use xlink:href="#IBMPlexSans-Regular-31" x="87.199982"/>
       <use xlink:href="#IBMPlexSans-Regular-30" x="147.199966"/>
      </g>
     </g>
    </g>
    <g id="ytick_7">
     <g id="line2d_25">
      <path d="M 58.18875 77.884635 
L 415.30875 77.884635 
" clip-path="url(#p5e599fcaf5)" style="fill: none; stroke-dasharray: 1.48,0.64; stroke-dashoffset: 0; stroke: #838383; stroke-opacity: 0.25; stroke-width: 0.4"/>
     </g>
     <g id="line2d_26"/>
     <g id="text_13">
      <!-- 0.15 -->
      <g style="fill: #838383" transform="translate(29.824375 82.324635) scale(0.12 -0.12)">
       <use xlink:href="#IBMPlexSans-Regular-30"/>
       <use xlink:href="#IBMPlexSans-Regular-2e" x="59.999985"/>
       <use xlink:href="#IBMPlexSans-Regular-31" x="87.199982"/>
       <use xlink:href="#IBMPlexSans-Regular-35" x="147.199966"/>
      </g>
     </g>
    </g>
    <g id="ytick_8">
     <g id="line2d_27">
      <path d="M 58.18875 44.601289 
L 415.30875 44.601289 
" clip-path="url(#p5e599fcaf5)" style="fill: none; stroke-dasharray: 1.48,0.64; stroke-dashoffset: 0; stroke: #838383; stroke-opacity: 0.25; stroke-width: 0.4"/>
     </g>
     <g id="line2d_28"/>
     <g id="text_14">
      <!-- 0.20 -->
      <g style="fill: #838383" transform="translate(29.824375 49.041289) scale(0.12 -0.12)">
       <use xlink:href="#IBMPlexSans-Regular-30"/>
       <use xlink:href="#IBMPlexSans-Regular-2e" x="59.999985"/>
       <use xlink:href="#IBMPlexSans-Regular-32" x="87.199982"/>
       <use xlink:href="#IBMPlexSans-Regular-30" x="147.199966"/>
      </g>
     </g>
    </g>
    <g id="text_15">
     <!-- logdet -->
     <g style="fill: #838383" transform="translate(16.08 173.952) rotate(-90) scale(0.12 -0.12)">
      <defs>
       <path id="IBMPlexSans-Regular-6c" d="M 1088 0 
Q 819 0 681 150 
Q 544 301 544 531 
L 544 4736 
L 1056 4736 
L 1056 448 
L 1542 448 
L 1542 0 
L 1088 0 
z
" transform="scale(0.015625)"/>
       <path id="IBMPlexSans-Regular-6f" d="M 1792 -77 
Q 1459 -77 1184 44 
Q 909 166 713 393 
Q 518 621 409 937 
Q 301 1254 301 1651 
Q 301 2042 409 2362 
Q 518 2682 713 2909 
Q 909 3136 1184 3257 
Q 1459 3379 1792 3379 
Q 2125 3379 2397 3257 
Q 2669 3136 2867 2909 
Q 3066 2682 3174 2362 
Q 3283 2042 3283 1651 
Q 3283 1254 3174 937 
Q 3066 621 2867 393 
Q 2669 166 2397 44 
Q 2125 -77 1792 -77 
z
M 1792 378 
Q 2208 378 2470 634 
Q 2733 890 2733 1414 
L 2733 1888 
Q 2733 2413 2470 2669 
Q 2208 2925 1792 2925 
Q 1376 2925 1113 2669 
Q 851 2413 851 1888 
L 851 1414 
Q 851 890 1113 634 
Q 1376 378 1792 378 
z
" transform="scale(0.015625)"/>
       <path id="IBMPlexSans-Regular-67" d="M 3328 -365 
Q 3328 -877 2928 -1117 
Q 2528 -1357 1728 -1357 
Q 954 -1357 614 -1145 
Q 275 -934 275 -544 
Q 275 -275 416 -124 
Q 557 26 800 96 
L 800 166 
Q 506 307 506 627 
Q 506 877 666 1008 
Q 826 1139 1075 1203 
L 1075 1229 
Q 781 1370 617 1632 
Q 454 1894 454 2240 
Q 454 2490 544 2701 
Q 634 2912 797 3062 
Q 960 3213 1187 3296 
Q 1414 3379 1696 3379 
Q 2048 3379 2323 3251 
L 2323 3309 
Q 2323 3501 2412 3625 
Q 2502 3750 2707 3750 
L 3200 3750 
L 3200 3302 
L 2573 3302 
L 2573 3091 
Q 2752 2938 2851 2723 
Q 2950 2509 2950 2240 
Q 2950 1990 2860 1779 
Q 2771 1568 2608 1417 
Q 2445 1267 2214 1184 
Q 1984 1101 1702 1101 
Q 1542 1101 1382 1133 
Q 1216 1088 1081 1001 
Q 947 915 947 762 
Q 947 614 1088 563 
Q 1229 512 1453 512 
L 2157 512 
Q 2771 512 3049 278 
Q 3328 45 3328 -365 
z
M 2848 -403 
Q 2848 -205 2697 -86 
Q 2547 32 2163 32 
L 1062 32 
Q 755 -109 755 -416 
Q 755 -634 918 -787 
Q 1082 -941 1472 -941 
L 1946 -941 
Q 2374 -941 2611 -806 
Q 2848 -672 2848 -403 
z
M 1702 1510 
Q 2029 1510 2221 1667 
Q 2413 1824 2413 2150 
L 2413 2330 
Q 2413 2656 2221 2813 
Q 2029 2970 1702 2970 
Q 1376 2970 1184 2813 
Q 992 2656 992 2330 
L 992 2150 
Q 992 1824 1184 1667 
Q 1376 1510 1702 1510 
z
" transform="scale(0.015625)"/>
       <path id="IBMPlexSans-Regular-64" d="M 2656 538 
L 2630 538 
Q 2330 -77 1664 -77 
Q 1357 -77 1107 44 
Q 858 166 682 390 
Q 506 614 413 934 
Q 320 1254 320 1651 
Q 320 2048 413 2368 
Q 506 2688 682 2912 
Q 858 3136 1107 3257 
Q 1357 3379 1664 3379 
Q 2010 3379 2256 3228 
Q 2502 3078 2630 2765 
L 2656 2765 
L 2656 4736 
L 3168 4736 
L 3168 0 
L 2656 0 
L 2656 538 
z
M 1805 384 
Q 1978 384 2134 429 
Q 2291 474 2406 560 
Q 2522 646 2589 771 
Q 2656 896 2656 1056 
L 2656 2285 
Q 2656 2419 2589 2537 
Q 2522 2656 2406 2739 
Q 2291 2822 2134 2870 
Q 1978 2918 1805 2918 
Q 1370 2918 1120 2646 
Q 870 2374 870 1933 
L 870 1370 
Q 870 928 1120 656 
Q 1370 384 1805 384 
z
" transform="scale(0.015625)"/>
       <path id="IBMPlexSans-Regular-65" d="M 1786 -77 
Q 1446 -77 1174 44 
Q 902 166 707 393 
Q 512 621 406 937 
Q 301 1254 301 1651 
Q 301 2042 406 2362 
Q 512 2682 707 2909 
Q 902 3136 1174 3257 
Q 1446 3379 1786 3379 
Q 2118 3379 2380 3257 
Q 2643 3136 2828 2921 
Q 3014 2707 3113 2412 
Q 3213 2118 3213 1766 
L 3213 1523 
L 838 1523 
L 838 1370 
Q 838 1158 905 976 
Q 973 794 1097 659 
Q 1222 525 1404 448 
Q 1587 371 1818 371 
Q 2131 371 2364 518 
Q 2598 666 2726 941 
L 3091 678 
Q 2931 339 2592 131 
Q 2253 -77 1786 -77 
z
M 1786 2950 
Q 1574 2950 1401 2876 
Q 1229 2803 1104 2668 
Q 979 2534 908 2352 
Q 838 2170 838 1952 
L 838 1907 
L 2662 1907 
L 2662 1978 
Q 2662 2419 2422 2684 
Q 2182 2950 1786 2950 
z
" transform="scale(0.015625)"/>
       <path id="IBMPlexSans-Regular-74" d="M 1274 0 
Q 1005 0 867 150 
Q 730 301 730 544 
L 730 2854 
L 186 2854 
L 186 3302 
L 493 3302 
Q 659 3302 720 3369 
Q 781 3437 781 3603 
L 781 4218 
L 1242 4218 
L 1242 3302 
L 1965 3302 
L 1965 2854 
L 1242 2854 
L 1242 448 
L 1914 448 
L 1914 0 
L 1274 0 
z
" transform="scale(0.015625)"/>
      </defs>
      <use xlink:href="#IBMPlexSans-Regular-6c"/>
      <use xlink:href="#IBMPlexSans-Regular-6f" x="27.199997"/>
      <use xlink:href="#IBMPlexSans-Regular-67" x="83.199982"/>
      <use xlink:href="#IBMPlexSans-Regular-64" x="135.999969"/>
      <use xlink:href="#IBMPlexSans-Regular-65" x="193.999954"/>
      <use xlink:href="#IBMPlexSans-Regular-74" x="248.899948"/>
     </g>
    </g>
   </g>
   <g id="line2d_29">
    <path d="M 74.421477 177.734672 
L 399.076023 177.734672 
L 399.076023 177.734672 
" clip-path="url(#p5e599fcaf5)" style="fill: none; stroke: #440154; stroke-width: 1.5; stroke-linecap: round"/>
   </g>
   <g id="line2d_30">
    <path d="M 74.421477 256.214308 
L 75.730568 271.570225 
L 79.657841 222.229632 
L 80.966932 160.995708 
L 82.276023 176.039226 
L 83.585114 160.429613 
L 84.894205 110.086868 
L 88.821477 195.217379 
L 90.130568 195.532206 
L 92.74875 142.240904 
L 94.057841 175.349339 
L 95.366932 129.993709 
L 97.985114 175.193284 
L 99.294205 136.930107 
L 104.530568 192.011694 
L 105.839659 178.760133 
L 107.14875 194.068364 
L 108.457841 103.480617 
L 109.766932 132.289864 
L 111.076023 138.884958 
L 112.385114 168.539862 
L 113.694205 168.299157 
L 116.312386 139.213136 
L 117.621477 96.4514 
L 118.930568 146.065889 
L 121.54875 82.145025 
L 122.857841 104.131421 
L 124.166932 94.889637 
L 126.785114 114.315658 
L 128.094205 131.272114 
L 129.403295 127.001482 
L 132.021477 166.98718 
L 133.330568 160.310345 
L 134.639659 215.084635 
L 138.566932 112.007299 
L 139.876023 163.800531 
L 141.185114 172.351662 
L 142.494205 220.400983 
L 143.803295 225.154526 
L 145.112386 220.784481 
L 146.421477 221.290507 
L 147.730568 121.948381 
L 149.039659 212.141821 
L 150.34875 168.452111 
L 151.657841 182.08846 
L 152.966932 181.740619 
L 154.276023 179.606209 
L 156.894205 171.469047 
L 158.203295 187.530604 
L 159.512386 217.796644 
L 160.821477 216.541894 
L 163.439659 251.649789 
L 164.74875 236.841811 
L 166.057841 248.446202 
L 167.366932 234.085036 
L 168.676023 248.401599 
L 169.985114 220.186782 
L 171.294205 162.910395 
L 172.603295 223.849948 
L 175.221477 164.051839 
L 180.457841 277.872 
L 183.076023 228.941359 
L 184.385114 231.250656 
L 185.694205 220.133405 
L 187.003295 225.700998 
L 188.312386 148.342651 
L 189.621477 188.781744 
L 190.930568 182.559862 
L 192.239659 214.732964 
L 193.54875 138.662639 
L 194.857841 168.748434 
L 196.166932 168.974188 
L 197.476023 183.520834 
L 198.785114 215.943649 
L 200.094205 160.786394 
L 201.403295 226.781849 
L 202.712386 241.315485 
L 204.021477 210.686464 
L 205.330568 230.210935 
L 206.639659 182.609135 
L 207.94875 222.414818 
L 209.257841 164.98837 
L 210.566932 195.638264 
L 211.876023 193.237191 
L 213.185114 167.817178 
L 214.494205 179.110653 
L 215.803295 180.157173 
L 218.421477 151.132622 
L 219.730568 150.965468 
L 221.039659 175.527683 
L 222.34875 122.773959 
L 223.657841 166.114881 
L 224.966932 172.757539 
L 226.276023 135.972023 
L 227.585114 132.266253 
L 228.894205 192.629782 
L 230.203295 201.434494 
L 231.512386 226.496829 
L 232.821477 208.805995 
L 234.130568 210.134748 
L 235.439659 216.888085 
L 236.74875 270.196766 
L 238.057841 246.093188 
L 240.676023 272.396137 
L 241.985114 265.972835 
L 243.294205 272.934972 
L 244.603295 207.705688 
L 245.912386 210.641825 
L 247.221477 197.420085 
L 248.530568 138.709725 
L 249.839659 133.016442 
L 251.14875 150.976569 
L 252.457841 217.121593 
L 253.766932 193.94809 
L 255.076023 143.118059 
L 256.385114 134.835376 
L 257.694205 206.6387 
L 259.003295 216.758764 
L 260.312386 123.096957 
L 262.930568 84.50521 
L 265.54875 127.836722 
L 268.166932 87.479914 
L 269.476023 101.543733 
L 270.785114 63.021088 
L 272.094205 90.299112 
L 273.403295 82.570447 
L 274.712386 53.961486 
L 276.021477 76.598365 
L 277.330568 64.447001 
L 279.94875 79.972621 
L 281.257841 35.952 
L 283.876023 81.843547 
L 285.185114 105.333405 
L 286.494205 105.695539 
L 287.803295 103.981536 
L 289.112386 115.936713 
L 290.421477 108.948939 
L 291.730568 111.334371 
L 293.039659 150.999067 
L 294.34875 159.78803 
L 295.657841 144.934857 
L 296.966932 166.783862 
L 298.276023 241.572892 
L 299.585114 204.160593 
L 300.894205 206.354844 
L 302.203295 213.112149 
L 303.512386 212.691138 
L 306.130568 261.993553 
L 307.439659 240.155155 
L 308.74875 244.696814 
L 310.057841 236.378824 
L 311.366932 190.617307 
L 312.676023 181.770952 
L 313.985114 191.521246 
L 315.294205 185.18824 
L 316.603295 202.086548 
L 317.912386 134.449861 
L 321.839659 89.059016 
L 323.14875 146.284366 
L 324.457841 152.942316 
L 325.766932 173.228147 
L 327.076023 171.807593 
L 328.385114 189.192201 
L 329.694205 190.026833 
L 331.003295 163.968093 
L 332.312386 105.739758 
L 334.930568 81.334884 
L 336.239659 92.460785 
L 337.54875 82.72696 
L 338.857841 86.198189 
L 340.166932 69.639783 
L 341.476023 77.418853 
L 342.785114 117.996693 
L 344.094205 96.839061 
L 346.712386 148.373486 
L 349.330568 110.081783 
L 351.94875 98.45506 
L 353.257841 95.826314 
L 354.566932 116.828666 
L 355.876023 112.418727 
L 357.185114 89.920294 
L 358.494205 97.397319 
L 361.112386 179.798046 
L 362.421477 169.469366 
L 363.730568 203.840711 
L 365.039659 202.465831 
L 366.34875 230.965219 
L 368.966932 154.024594 
L 370.276023 183.14907 
L 371.585114 159.264832 
L 372.894205 159.800877 
L 374.203295 153.314007 
L 376.821477 109.60069 
L 378.130568 124.857141 
L 380.74875 48.136775 
L 383.366932 72.026046 
L 384.676023 150.851681 
L 385.985114 140.527637 
L 387.294205 88.937445 
L 388.603295 128.717434 
L 389.912386 128.091979 
L 391.221477 102.06323 
L 392.530568 100.270962 
L 393.839659 108.905916 
L 395.14875 78.839297 
L 396.457841 115.974879 
L 397.766932 79.802135 
L 399.076023 143.415335 
L 399.076023 143.415335 
" clip-path="url(#p5e599fcaf5)" style="fill: none; stroke: #31688e; stroke-width: 1.5; stroke-linecap: round"/>
   </g>
   <g id="line2d_31">
    <path d="M 74.421477 174.502947 
L 75.730568 182.667517 
L 77.039659 173.473629 
L 78.34875 201.160524 
L 79.657841 184.716034 
L 80.966932 195.63395 
L 82.276023 166.863684 
L 83.585114 173.562899 
L 84.894205 131.339897 
L 87.512386 165.213256 
L 90.130568 191.022877 
L 91.439659 195.350411 
L 92.74875 184.077694 
L 94.057841 198.016623 
L 95.366932 144.529903 
L 96.676023 150.352724 
L 97.985114 185.546148 
L 99.294205 189.291198 
L 100.603295 147.800582 
L 101.912386 211.938081 
L 103.221477 149.732326 
L 108.457841 196.45961 
L 109.766932 141.094841 
L 111.076023 167.97232 
L 112.385114 172.306758 
L 113.694205 185.34085 
L 115.003295 182.084333 
L 116.312386 136.061374 
L 117.621477 161.328171 
L 118.930568 151.53414 
L 121.54875 192.466178 
L 122.857841 212.641874 
L 124.166932 136.99692 
L 125.476023 183.532288 
L 126.785114 133.291413 
L 128.094205 159.860689 
L 129.403295 154.744703 
L 130.712386 188.486397 
L 132.021477 164.942523 
L 133.330568 184.958647 
L 134.639659 186.809603 
L 135.94875 200.351755 
L 137.257841 178.097628 
L 138.566932 210.324907 
L 139.876023 166.395935 
L 141.185114 174.26094 
L 142.494205 168.769716 
L 145.112386 201.860238 
L 146.421477 192.473942 
L 147.730568 167.663158 
L 149.039659 161.871898 
L 150.34875 149.76143 
L 151.657841 209.054427 
L 152.966932 200.858704 
L 154.276023 219.101611 
L 156.894205 156.584683 
L 158.203295 170.38357 
L 159.512386 167.468894 
L 160.821477 178.203179 
L 162.130568 180.293851 
L 163.439659 142.579779 
L 167.366932 217.302344 
L 169.985114 187.585095 
L 171.294205 187.634236 
L 172.603295 168.304188 
L 173.912386 203.171943 
L 175.221477 137.10203 
L 179.14875 182.58661 
L 180.457841 154.360419 
L 183.076023 207.665815 
L 184.385114 184.051809 
L 185.694205 216.524466 
L 188.312386 184.441256 
L 189.621477 136.797225 
L 192.239659 163.783882 
L 193.54875 169.917947 
L 194.857841 168.184802 
L 196.166932 187.368603 
L 197.476023 148.543787 
L 200.094205 179.843885 
L 201.403295 133.089554 
L 202.712386 193.190751 
L 204.021477 177.089949 
L 206.639659 217.966531 
L 209.257841 158.929498 
L 210.566932 218.008762 
L 211.876023 175.333756 
L 213.185114 187.63044 
L 214.494205 166.974874 
L 215.803295 182.168446 
L 217.112386 150.702027 
L 218.421477 200.22593 
L 219.730568 151.012508 
L 221.039659 180.65891 
L 222.34875 185.26889 
L 223.657841 157.631457 
L 224.966932 157.599663 
L 226.276023 196.533512 
L 227.585114 157.528605 
L 228.894205 187.102025 
L 230.203295 179.74546 
L 231.512386 182.295067 
L 232.821477 188.048391 
L 234.130568 227.176874 
L 235.439659 162.928665 
L 236.74875 186.940213 
L 238.057841 172.309109 
L 239.366932 177.068775 
L 240.676023 171.009359 
L 241.985114 170.002285 
L 243.294205 186.401497 
L 244.603295 229.45273 
L 245.912386 186.675235 
L 247.221477 233.381301 
L 248.530568 242.01594 
L 249.839659 185.440933 
L 252.457841 165.419417 
L 255.076023 191.118296 
L 257.694205 148.517632 
L 259.003295 221.070808 
L 260.312386 207.432743 
L 262.930568 143.841777 
L 266.857841 192.377385 
L 268.166932 179.670517 
L 269.476023 153.447356 
L 270.785114 152.00883 
L 273.403295 154.735518 
L 274.712386 181.03752 
L 276.021477 123.895228 
L 277.330568 114.194252 
L 278.639659 172.694185 
L 279.94875 166.024021 
L 281.257841 151.234694 
L 282.566932 148.775741 
L 286.494205 187.783113 
L 287.803295 132.492868 
L 289.112386 152.930503 
L 290.421477 202.64589 
L 291.730568 163.60769 
L 293.039659 170.05564 
L 294.34875 182.798117 
L 296.966932 147.81869 
L 298.276023 184.400145 
L 299.585114 165.098762 
L 300.894205 164.467275 
L 302.203295 167.680338 
L 303.512386 200.195262 
L 306.130568 173.30233 
L 307.439659 212.764929 
L 308.74875 210.188569 
L 310.057841 215.185574 
L 312.676023 171.67573 
L 313.985114 214.109179 
L 315.294205 186.823779 
L 316.603295 212.722054 
L 317.912386 199.98931 
L 320.530568 148.801508 
L 321.839659 144.529857 
L 323.14875 192.830026 
L 325.766932 179.049868 
L 327.076023 161.410352 
L 328.385114 164.811629 
L 331.003295 213.319058 
L 332.312386 194.773531 
L 333.621477 204.266718 
L 334.930568 198.257271 
L 337.54875 143.328657 
L 338.857841 171.501114 
L 340.166932 123.773375 
L 341.476023 122.790709 
L 344.094205 161.485993 
L 345.403295 167.610859 
L 346.712386 154.281609 
L 348.021477 187.54006 
L 349.330568 180.987465 
L 350.639659 206.100332 
L 351.94875 145.932619 
L 353.257841 198.708671 
L 354.566932 152.4986 
L 357.185114 172.772237 
L 359.803295 153.141277 
L 361.112386 174.861135 
L 362.421477 157.297666 
L 363.730568 184.151446 
L 365.039659 174.459569 
L 366.34875 184.125644 
L 367.657841 205.192447 
L 368.966932 160.234421 
L 370.276023 192.263291 
L 372.894205 173.585617 
L 374.203295 195.769525 
L 375.512386 147.917774 
L 376.821477 157.176418 
L 378.130568 190.242211 
L 380.74875 145.209898 
L 382.057841 181.383845 
L 383.366932 162.124318 
L 384.676023 185.31167 
L 388.603295 166.763883 
L 389.912386 202.733098 
L 391.221477 157.804179 
L 392.530568 154.408528 
L 393.839659 184.069915 
L 395.14875 180.645749 
L 396.457841 173.178285 
L 397.766932 190.055793 
L 399.076023 144.881678 
L 399.076023 144.881678 
" clip-path="url(#p5e599fcaf5)" style="fill: none; stroke: #35b779; stroke-width: 1.5; stroke-linecap: round"/>
   </g>
   <g id="patch_3">
    <path d="M 58.18875 289.968 
L 58.18875 23.856 
" style="fill: none"/>
   </g>
   <g id="patch_4">
    <path d="M 415.30875 289.968 
L 415.30875 23.856 
" style="fill: none"/>
   </g>
   <g id="patch_5">
    <path d="M 58.18875 289.968 
L 415.30875 289.968 
" style="fill: none"/>
   </g>
   <g id="patch_6">
    <path d="M 58.18875 23.856 
L 415.30875 23.856 
" style="fill: none"/>
   </g>
   <g id="text_16">
    <!-- Evaluate -->
    <g style="fill: #838383" transform="translate(208.79025 17.856) scale(0.144 -0.144)">
     <defs>
      <path id="IBMPlexSans-Regular-45" d="M 595 0 
L 595 4467 
L 3322 4467 
L 3322 3994 
L 1133 3994 
L 1133 2496 
L 3194 2496 
L 3194 2022 
L 1133 2022 
L 1133 474 
L 3322 474 
L 3322 0 
L 595 0 
z
" transform="scale(0.015625)"/>
      <path id="IBMPlexSans-Regular-76" d="M 1274 0 
L 115 3302 
L 627 3302 
L 1203 1664 
L 1562 538 
L 1594 538 
L 1952 1664 
L 2541 3302 
L 3034 3302 
L 1869 0 
L 1274 0 
z
" transform="scale(0.015625)"/>
      <path id="IBMPlexSans-Regular-61" d="M 2944 0 
Q 2656 0 2531 153 
Q 2406 307 2374 538 
L 2342 538 
Q 2234 230 1984 76 
Q 1734 -77 1389 -77 
Q 864 -77 573 192 
Q 282 461 282 922 
Q 282 1389 624 1638 
Q 966 1888 1690 1888 
L 2342 1888 
L 2342 2214 
Q 2342 2566 2150 2752 
Q 1958 2938 1562 2938 
Q 1261 2938 1059 2803 
Q 858 2669 723 2445 
L 416 2733 
Q 550 3002 844 3190 
Q 1139 3379 1587 3379 
Q 2189 3379 2521 3084 
Q 2854 2790 2854 2266 
L 2854 448 
L 3232 448 
L 3232 0 
L 2944 0 
z
M 1472 358 
Q 1664 358 1824 403 
Q 1984 448 2099 531 
Q 2214 614 2278 723 
Q 2342 832 2342 960 
L 2342 1504 
L 1664 1504 
Q 1222 1504 1020 1376 
Q 819 1248 819 1005 
L 819 870 
Q 819 627 995 492 
Q 1171 358 1472 358 
z
" transform="scale(0.015625)"/>
      <path id="IBMPlexSans-Regular-75" d="M 2579 538 
L 2554 538 
Q 2502 422 2428 310 
Q 2355 198 2246 112 
Q 2138 26 1984 -25 
Q 1830 -77 1626 -77 
Q 1114 -77 813 252 
Q 512 582 512 1184 
L 512 3302 
L 1024 3302 
L 1024 1274 
Q 1024 384 1779 384 
Q 1933 384 2077 422 
Q 2221 461 2333 537 
Q 2445 614 2512 732 
Q 2579 851 2579 1018 
L 2579 3302 
L 3091 3302 
L 3091 0 
L 2579 0 
L 2579 538 
z
" transform="scale(0.015625)"/>
     </defs>
     <use xlink:href="#IBMPlexSans-Regular-45"/>
     <use xlink:href="#IBMPlexSans-Regular-76" x="58.299988"/>
     <use xlink:href="#IBMPlexSans-Regular-61" x="107.499985"/>
     <use xlink:href="#IBMPlexSans-Regular-6c" x="160.899979"/>
     <use xlink:href="#IBMPlexSans-Regular-75" x="188.099976"/>
     <use xlink:href="#IBMPlexSans-Regular-61" x="244.899963"/>
     <use xlink:href="#IBMPlexSans-Regular-74" x="298.299957"/>
     <use xlink:href="#IBMPlexSans-Regular-65" x="333.399948"/>
    </g>
   </g>
  </g>
 </g>
 <defs>
  <clipPath id="p5e599fcaf5">
   <rect x="58.18875" y="23.856" width="357.12" height="266.112"/>
  </clipPath>
 </defs>
</svg>
