<?xml version="1.0" encoding="utf-8" standalone="no"?>
<!DOCTYPE svg PUBLIC "-//W3C//DTD SVG 1.1//EN"
  "http://www.w3.org/Graphics/SVG/1.1/DTD/svg11.dtd">
<svg xmlns:xlink="http://www.w3.org/1999/xlink" width="422.364375pt" height="311.948pt" viewBox="0 0 422.364375 311.948" xmlns="http://www.w3.org/2000/svg" version="1.1">
 <metadata>
  <rdf:RDF xmlns:dc="http://purl.org/dc/elements/1.1/" xmlns:cc="http://creativecommons.org/ns#" xmlns:rdf="http://www.w3.org/1999/02/22-rdf-syntax-ns#">
   <cc:Work>
    <dc:type rdf:resource="http://purl.org/dc/dcmitype/StillImage"/>
    <dc:date>2024-07-04T21:21:23.158980</dc:date>
    <dc:format>image/svg+xml</dc:format>
    <dc:creator>
     <cc:Agent>
      <dc:title>Matplotlib v3.8.4, https://matplotlib.org/</dc:title>
     </cc:Agent>
    </dc:creator>
   </cc:Work>
  </rdf:RDF>
 </metadata>
 <defs>
  <style type="text/css">*{stroke-linejoin: round; stroke-linecap: butt}</style>
 </defs>
 <g id="figure_1">
  <g id="patch_1">
   <path d="M 0 311.948 
L 422.364375 311.948 
L 422.364375 0 
L 0 0 
L 0 311.948 
z
" style="fill: none"/>
  </g>
  <g id="axes_1">
   <g id="patch_2">
    <path d="M 58.044375 289.968 
L 415.164375 289.968 
L 415.164375 23.856 
L 58.044375 23.856 
L 58.044375 289.968 
z
" style="fill: none"/>
   </g>
   <g id="matplotlib.axis_1">
    <g id="xtick_1">
     <g id="line2d_1">
      <path d="M 74.277102 289.968 
L 74.277102 23.856 
" clip-path="url(#pdcdef5b3a5)" style="fill: none; stroke-dasharray: 1.48,0.64; stroke-dashoffset: 0; stroke: #838383; stroke-opacity: 0.25; stroke-width: 0.4"/>
     </g>
     <g id="line2d_2"/>
     <g id="text_1">
      <!-- 0 -->
      <g style="fill: #838383" transform="translate(70.677102 302.348) scale(0.12 -0.12)">
       <defs>
        <path id="IBMPlexSans-Regular-30" d="M 1920 -77 
Q 1120 -77 752 531 
Q 384 1139 384 2234 
Q 384 3328 752 3936 
Q 1120 4544 1920 4544 
Q 2720 4544 3088 3936 
Q 3456 3328 3456 2234 
Q 3456 1139 3088 531 
Q 2720 -77 1920 -77 
z
M 1920 390 
Q 2182 390 2368 499 
Q 2554 608 2669 806 
Q 2784 1005 2838 1273 
Q 2893 1542 2893 1869 
L 2893 2598 
Q 2893 2925 2838 3193 
Q 2784 3462 2669 3660 
Q 2554 3859 2368 3968 
Q 2182 4077 1920 4077 
Q 1658 4077 1472 3968 
Q 1286 3859 1171 3660 
Q 1056 3462 1001 3193 
Q 947 2925 947 2598 
L 947 1869 
Q 947 1542 1001 1273 
Q 1056 1005 1171 806 
Q 1286 608 1472 499 
Q 1658 390 1920 390 
z
" transform="scale(0.015625)"/>
       </defs>
       <use xlink:href="#IBMPlexSans-Regular-30"/>
      </g>
     </g>
    </g>
    <g id="xtick_2">
     <g id="line2d_3">
      <path d="M 139.731648 289.968 
L 139.731648 23.856 
" clip-path="url(#pdcdef5b3a5)" style="fill: none; stroke-dasharray: 1.48,0.64; stroke-dashoffset: 0; stroke: #838383; stroke-opacity: 0.25; stroke-width: 0.4"/>
     </g>
     <g id="line2d_4"/>
     <g id="text_2">
      <!-- 50 -->
      <g style="fill: #838383" transform="translate(132.531648 302.348) scale(0.12 -0.12)">
       <defs>
        <path id="IBMPlexSans-Regular-35" d="M 3187 3994 
L 1229 3994 
L 1101 2291 
L 1146 2291 
Q 1306 2515 1507 2649 
Q 1709 2784 2061 2784 
Q 2349 2784 2592 2688 
Q 2835 2592 3014 2416 
Q 3194 2240 3293 1984 
Q 3392 1728 3392 1402 
Q 3392 1075 3289 803 
Q 3187 531 2992 336 
Q 2797 141 2518 32 
Q 2240 -77 1888 -77 
Q 1606 -77 1392 -13 
Q 1178 51 1011 160 
Q 845 269 720 403 
Q 595 538 493 685 
L 896 992 
Q 979 858 1072 749 
Q 1165 640 1277 563 
Q 1389 486 1536 444 
Q 1683 403 1888 403 
Q 2349 403 2585 646 
Q 2822 890 2822 1331 
L 2822 1395 
Q 2822 1837 2585 2080 
Q 2349 2323 1888 2323 
Q 1581 2323 1405 2211 
Q 1229 2099 1088 1946 
L 634 2010 
L 794 4467 
L 3187 4467 
L 3187 3994 
z
" transform="scale(0.015625)"/>
       </defs>
       <use xlink:href="#IBMPlexSans-Regular-35"/>
       <use xlink:href="#IBMPlexSans-Regular-30" x="59.999985"/>
      </g>
     </g>
    </g>
    <g id="xtick_3">
     <g id="line2d_5">
      <path d="M 205.186193 289.968 
L 205.186193 23.856 
" clip-path="url(#pdcdef5b3a5)" style="fill: none; stroke-dasharray: 1.48,0.64; stroke-dashoffset: 0; stroke: #838383; stroke-opacity: 0.25; stroke-width: 0.4"/>
     </g>
     <g id="line2d_6"/>
     <g id="text_3">
      <!-- 100 -->
      <g style="fill: #838383" transform="translate(194.386193 302.348) scale(0.12 -0.12)">
       <defs>
        <path id="IBMPlexSans-Regular-31" d="M 563 0 
L 563 474 
L 1811 474 
L 1811 4070 
L 1766 4070 
L 640 3021 
L 326 3360 
L 1510 4467 
L 2349 4467 
L 2349 474 
L 3501 474 
L 3501 0 
L 563 0 
z
" transform="scale(0.015625)"/>
       </defs>
       <use xlink:href="#IBMPlexSans-Regular-31"/>
       <use xlink:href="#IBMPlexSans-Regular-30" x="59.999985"/>
       <use xlink:href="#IBMPlexSans-Regular-30" x="119.999969"/>
      </g>
     </g>
    </g>
    <g id="xtick_4">
     <g id="line2d_7">
      <path d="M 270.640739 289.968 
L 270.640739 23.856 
" clip-path="url(#pdcdef5b3a5)" style="fill: none; stroke-dasharray: 1.48,0.64; stroke-dashoffset: 0; stroke: #838383; stroke-opacity: 0.25; stroke-width: 0.4"/>
     </g>
     <g id="line2d_8"/>
     <g id="text_4">
      <!-- 150 -->
      <g style="fill: #838383" transform="translate(259.840739 302.348) scale(0.12 -0.12)">
       <use xlink:href="#IBMPlexSans-Regular-31"/>
       <use xlink:href="#IBMPlexSans-Regular-35" x="59.999985"/>
       <use xlink:href="#IBMPlexSans-Regular-30" x="119.999969"/>
      </g>
     </g>
    </g>
    <g id="xtick_5">
     <g id="line2d_9">
      <path d="M 336.095284 289.968 
L 336.095284 23.856 
" clip-path="url(#pdcdef5b3a5)" style="fill: none; stroke-dasharray: 1.48,0.64; stroke-dashoffset: 0; stroke: #838383; stroke-opacity: 0.25; stroke-width: 0.4"/>
     </g>
     <g id="line2d_10"/>
     <g id="text_5">
      <!-- 200 -->
      <g style="fill: #838383" transform="translate(325.295284 302.348) scale(0.12 -0.12)">
       <defs>
        <path id="IBMPlexSans-Regular-32" d="M 3411 0 
L 480 0 
L 480 550 
L 1939 1894 
Q 2253 2182 2464 2505 
Q 2675 2829 2675 3155 
L 2675 3232 
Q 2675 3603 2470 3833 
Q 2266 4064 1850 4064 
Q 1645 4064 1491 4006 
Q 1338 3949 1226 3846 
Q 1114 3744 1040 3606 
Q 966 3469 922 3309 
L 442 3494 
Q 506 3693 618 3881 
Q 730 4070 899 4217 
Q 1069 4365 1309 4454 
Q 1549 4544 1875 4544 
Q 2202 4544 2458 4448 
Q 2714 4352 2886 4179 
Q 3059 4006 3152 3769 
Q 3245 3533 3245 3245 
Q 3245 2982 3171 2758 
Q 3098 2534 2970 2332 
Q 2842 2131 2659 1939 
Q 2477 1747 2266 1555 
L 1062 474 
L 3411 474 
L 3411 0 
z
" transform="scale(0.015625)"/>
       </defs>
       <use xlink:href="#IBMPlexSans-Regular-32"/>
       <use xlink:href="#IBMPlexSans-Regular-30" x="59.999985"/>
       <use xlink:href="#IBMPlexSans-Regular-30" x="119.999969"/>
      </g>
     </g>
    </g>
    <g id="xtick_6">
     <g id="line2d_11">
      <path d="M 401.54983 289.968 
L 401.54983 23.856 
" clip-path="url(#pdcdef5b3a5)" style="fill: none; stroke-dasharray: 1.48,0.64; stroke-dashoffset: 0; stroke: #838383; stroke-opacity: 0.25; stroke-width: 0.4"/>
     </g>
     <g id="line2d_12"/>
     <g id="text_6">
      <!-- 250 -->
      <g style="fill: #838383" transform="translate(390.74983 302.348) scale(0.12 -0.12)">
       <use xlink:href="#IBMPlexSans-Regular-32"/>
       <use xlink:href="#IBMPlexSans-Regular-35" x="59.999985"/>
       <use xlink:href="#IBMPlexSans-Regular-30" x="119.999969"/>
      </g>
     </g>
    </g>
   </g>
   <g id="matplotlib.axis_2">
    <g id="ytick_1">
     <g id="line2d_13">
      <path d="M 58.044375 277.58471 
L 415.164375 277.58471 
" clip-path="url(#pdcdef5b3a5)" style="fill: none; stroke-dasharray: 1.48,0.64; stroke-dashoffset: 0; stroke: #838383; stroke-opacity: 0.25; stroke-width: 0.4"/>
     </g>
     <g id="line2d_14"/>
     <g id="text_7">
      <!-- −0.15 -->
      <g style="fill: #838383" transform="translate(22.48 282.02471) scale(0.12 -0.12)">
       <defs>
        <path id="IBMPlexSans-Regular-2212" d="M 429 1734 
L 429 2170 
L 3411 2170 
L 3411 1734 
L 429 1734 
z
" transform="scale(0.015625)"/>
        <path id="IBMPlexSans-Regular-2e" d="M 870 -77 
Q 666 -77 573 25 
Q 480 128 480 294 
L 480 378 
Q 480 544 573 646 
Q 666 749 870 749 
Q 1075 749 1168 646 
Q 1261 544 1261 378 
L 1261 294 
Q 1261 128 1168 25 
Q 1075 -77 870 -77 
z
" transform="scale(0.015625)"/>
       </defs>
       <use xlink:href="#IBMPlexSans-Regular-2212"/>
       <use xlink:href="#IBMPlexSans-Regular-30" x="59.999985"/>
       <use xlink:href="#IBMPlexSans-Regular-2e" x="119.999969"/>
       <use xlink:href="#IBMPlexSans-Regular-31" x="147.199966"/>
       <use xlink:href="#IBMPlexSans-Regular-35" x="207.199951"/>
      </g>
     </g>
    </g>
    <g id="ytick_2">
     <g id="line2d_15">
      <path d="M 58.044375 244.301364 
L 415.164375 244.301364 
" clip-path="url(#pdcdef5b3a5)" style="fill: none; stroke-dasharray: 1.48,0.64; stroke-dashoffset: 0; stroke: #838383; stroke-opacity: 0.25; stroke-width: 0.4"/>
     </g>
     <g id="line2d_16"/>
     <g id="text_8">
      <!-- −0.10 -->
      <g style="fill: #838383" transform="translate(22.48 248.741364) scale(0.12 -0.12)">
       <use xlink:href="#IBMPlexSans-Regular-2212"/>
       <use xlink:href="#IBMPlexSans-Regular-30" x="59.999985"/>
       <use xlink:href="#IBMPlexSans-Regular-2e" x="119.999969"/>
       <use xlink:href="#IBMPlexSans-Regular-31" x="147.199966"/>
       <use xlink:href="#IBMPlexSans-Regular-30" x="207.199951"/>
      </g>
     </g>
    </g>
    <g id="ytick_3">
     <g id="line2d_17">
      <path d="M 58.044375 211.018018 
L 415.164375 211.018018 
" clip-path="url(#pdcdef5b3a5)" style="fill: none; stroke-dasharray: 1.48,0.64; stroke-dashoffset: 0; stroke: #838383; stroke-opacity: 0.25; stroke-width: 0.4"/>
     </g>
     <g id="line2d_18"/>
     <g id="text_9">
      <!-- −0.05 -->
      <g style="fill: #838383" transform="translate(22.48 215.458018) scale(0.12 -0.12)">
       <use xlink:href="#IBMPlexSans-Regular-2212"/>
       <use xlink:href="#IBMPlexSans-Regular-30" x="59.999985"/>
       <use xlink:href="#IBMPlexSans-Regular-2e" x="119.999969"/>
       <use xlink:href="#IBMPlexSans-Regular-30" x="147.199966"/>
       <use xlink:href="#IBMPlexSans-Regular-35" x="207.199951"/>
      </g>
     </g>
    </g>
    <g id="ytick_4">
     <g id="line2d_19">
      <path d="M 58.044375 177.734672 
L 415.164375 177.734672 
" clip-path="url(#pdcdef5b3a5)" style="fill: none; stroke-dasharray: 1.48,0.64; stroke-dashoffset: 0; stroke: #838383; stroke-opacity: 0.25; stroke-width: 0.4"/>
     </g>
     <g id="line2d_20"/>
     <g id="text_10">
      <!-- 0.00 -->
      <g style="fill: #838383" transform="translate(29.68 182.174672) scale(0.12 -0.12)">
       <use xlink:href="#IBMPlexSans-Regular-30"/>
       <use xlink:href="#IBMPlexSans-Regular-2e" x="59.999985"/>
       <use xlink:href="#IBMPlexSans-Regular-30" x="87.199982"/>
       <use xlink:href="#IBMPlexSans-Regular-30" x="147.199966"/>
      </g>
     </g>
    </g>
    <g id="ytick_5">
     <g id="line2d_21">
      <path d="M 58.044375 144.451327 
L 415.164375 144.451327 
" clip-path="url(#pdcdef5b3a5)" style="fill: none; stroke-dasharray: 1.48,0.64; stroke-dashoffset: 0; stroke: #838383; stroke-opacity: 0.25; stroke-width: 0.4"/>
     </g>
     <g id="line2d_22"/>
     <g id="text_11">
      <!-- 0.05 -->
      <g style="fill: #838383" transform="translate(29.68 148.891327) scale(0.12 -0.12)">
       <use xlink:href="#IBMPlexSans-Regular-30"/>
       <use xlink:href="#IBMPlexSans-Regular-2e" x="59.999985"/>
       <use xlink:href="#IBMPlexSans-Regular-30" x="87.199982"/>
       <use xlink:href="#IBMPlexSans-Regular-35" x="147.199966"/>
      </g>
     </g>
    </g>
    <g id="ytick_6">
     <g id="line2d_23">
      <path d="M 58.044375 111.167981 
L 415.164375 111.167981 
" clip-path="url(#pdcdef5b3a5)" style="fill: none; stroke-dasharray: 1.48,0.64; stroke-dashoffset: 0; stroke: #838383; stroke-opacity: 0.25; stroke-width: 0.4"/>
     </g>
     <g id="line2d_24"/>
     <g id="text_12">
      <!-- 0.10 -->
      <g style="fill: #838383" transform="translate(29.68 115.607981) scale(0.12 -0.12)">
       <use xlink:href="#IBMPlexSans-Regular-30"/>
       <use xlink:href="#IBMPlexSans-Regular-2e" x="59.999985"/>
       <use xlink:href="#IBMPlexSans-Regular-31" x="87.199982"/>
       <use xlink:href="#IBMPlexSans-Regular-30" x="147.199966"/>
      </g>
     </g>
    </g>
    <g id="ytick_7">
     <g id="line2d_25">
      <path d="M 58.044375 77.884635 
L 415.164375 77.884635 
" clip-path="url(#pdcdef5b3a5)" style="fill: none; stroke-dasharray: 1.48,0.64; stroke-dashoffset: 0; stroke: #838383; stroke-opacity: 0.25; stroke-width: 0.4"/>
     </g>
     <g id="line2d_26"/>
     <g id="text_13">
      <!-- 0.15 -->
      <g style="fill: #838383" transform="translate(29.68 82.324635) scale(0.12 -0.12)">
       <use xlink:href="#IBMPlexSans-Regular-30"/>
       <use xlink:href="#IBMPlexSans-Regular-2e" x="59.999985"/>
       <use xlink:href="#IBMPlexSans-Regular-31" x="87.199982"/>
       <use xlink:href="#IBMPlexSans-Regular-35" x="147.199966"/>
      </g>
     </g>
    </g>
    <g id="ytick_8">
     <g id="line2d_27">
      <path d="M 58.044375 44.601289 
L 415.164375 44.601289 
" clip-path="url(#pdcdef5b3a5)" style="fill: none; stroke-dasharray: 1.48,0.64; stroke-dashoffset: 0; stroke: #838383; stroke-opacity: 0.25; stroke-width: 0.4"/>
     </g>
     <g id="line2d_28"/>
     <g id="text_14">
      <!-- 0.20 -->
      <g style="fill: #838383" transform="translate(29.68 49.041289) scale(0.12 -0.12)">
       <use xlink:href="#IBMPlexSans-Regular-30"/>
       <use xlink:href="#IBMPlexSans-Regular-2e" x="59.999985"/>
       <use xlink:href="#IBMPlexSans-Regular-32" x="87.199982"/>
       <use xlink:href="#IBMPlexSans-Regular-30" x="147.199966"/>
      </g>
     </g>
    </g>
    <g id="text_15">
     <!-- sld -->
     <g style="fill: #838383" transform="translate(16.08 164.946375) rotate(-90) scale(0.12 -0.12)">
      <defs>
       <path id="IBMPlexSans-Regular-73" d="M 1536 -77 
Q 1075 -77 764 99 
Q 454 275 230 570 
L 595 864 
Q 787 621 1024 489 
Q 1261 358 1574 358 
Q 1901 358 2083 499 
Q 2266 640 2266 896 
Q 2266 1088 2141 1225 
Q 2016 1363 1690 1414 
L 1427 1453 
Q 1197 1485 1005 1552 
Q 813 1619 669 1731 
Q 525 1843 445 2009 
Q 365 2176 365 2406 
Q 365 2650 454 2832 
Q 544 3014 701 3136 
Q 858 3258 1075 3318 
Q 1293 3379 1542 3379 
Q 1946 3379 2218 3238 
Q 2490 3098 2694 2848 
L 2355 2541 
Q 2246 2694 2035 2819 
Q 1824 2944 1504 2944 
Q 1184 2944 1021 2806 
Q 858 2669 858 2432 
Q 858 2189 1021 2080 
Q 1184 1971 1491 1920 
L 1747 1882 
Q 2298 1798 2528 1564 
Q 2758 1331 2758 954 
Q 2758 474 2432 198 
Q 2106 -77 1536 -77 
z
" transform="scale(0.015625)"/>
       <path id="IBMPlexSans-Regular-6c" d="M 1088 0 
Q 819 0 681 150 
Q 544 301 544 531 
L 544 4736 
L 1056 4736 
L 1056 448 
L 1542 448 
L 1542 0 
L 1088 0 
z
" transform="scale(0.015625)"/>
       <path id="IBMPlexSans-Regular-64" d="M 2656 538 
L 2630 538 
Q 2330 -77 1664 -77 
Q 1357 -77 1107 44 
Q 858 166 682 390 
Q 506 614 413 934 
Q 320 1254 320 1651 
Q 320 2048 413 2368 
Q 506 2688 682 2912 
Q 858 3136 1107 3257 
Q 1357 3379 1664 3379 
Q 2010 3379 2256 3228 
Q 2502 3078 2630 2765 
L 2656 2765 
L 2656 4736 
L 3168 4736 
L 3168 0 
L 2656 0 
L 2656 538 
z
M 1805 384 
Q 1978 384 2134 429 
Q 2291 474 2406 560 
Q 2522 646 2589 771 
Q 2656 896 2656 1056 
L 2656 2285 
Q 2656 2419 2589 2537 
Q 2522 2656 2406 2739 
Q 2291 2822 2134 2870 
Q 1978 2918 1805 2918 
Q 1370 2918 1120 2646 
Q 870 2374 870 1933 
L 870 1370 
Q 870 928 1120 656 
Q 1370 384 1805 384 
z
" transform="scale(0.015625)"/>
      </defs>
      <use xlink:href="#IBMPlexSans-Regular-73"/>
      <use xlink:href="#IBMPlexSans-Regular-6c" x="48.699997"/>
      <use xlink:href="#IBMPlexSans-Regular-64" x="75.899994"/>
     </g>
    </g>
   </g>
   <g id="line2d_29">
    <path d="M 74.277102 177.734672 
L 398.931648 177.734672 
L 398.931648 177.734672 
" clip-path="url(#pdcdef5b3a5)" style="fill: none; stroke: #440154; stroke-width: 1.5; stroke-linecap: round"/>
   </g>
   <g id="line2d_30">
    <path d="M 74.277102 256.214308 
L 75.586193 271.570225 
L 79.513466 222.229632 
L 80.822557 160.995708 
L 82.131648 176.039226 
L 83.440739 160.429613 
L 84.74983 110.086868 
L 88.677102 195.217379 
L 89.986193 195.532206 
L 92.604375 142.240904 
L 93.913466 175.349339 
L 95.222557 129.993709 
L 97.840739 175.193284 
L 99.14983 136.930107 
L 104.386193 192.011694 
L 105.695284 178.760133 
L 107.004375 194.068364 
L 108.313466 103.480617 
L 109.622557 132.289864 
L 110.931648 138.884958 
L 112.240739 168.539862 
L 113.54983 168.299157 
L 116.168011 139.213136 
L 117.477102 96.4514 
L 118.786193 146.065889 
L 121.404375 82.145025 
L 122.713466 104.131421 
L 124.022557 94.889637 
L 126.640739 114.315658 
L 127.94983 131.272114 
L 129.25892 127.001482 
L 131.877102 166.98718 
L 133.186193 160.310345 
L 134.495284 215.084635 
L 138.422557 112.007299 
L 139.731648 163.800531 
L 141.040739 172.351662 
L 142.34983 220.400983 
L 143.65892 225.154526 
L 144.968011 220.784481 
L 146.277102 221.290507 
L 147.586193 121.948381 
L 148.895284 212.141821 
L 150.204375 168.452111 
L 151.513466 182.08846 
L 152.822557 181.740619 
L 154.131648 179.606209 
L 156.74983 171.469047 
L 158.05892 187.530604 
L 159.368011 217.796644 
L 160.677102 216.541894 
L 163.295284 251.649789 
L 164.604375 236.841811 
L 165.913466 248.446202 
L 167.222557 234.085036 
L 168.531648 248.401599 
L 169.840739 220.186782 
L 171.14983 162.910395 
L 172.45892 223.849948 
L 175.077102 164.051839 
L 180.313466 277.872 
L 182.931648 228.941359 
L 184.240739 231.250656 
L 185.54983 220.133405 
L 186.85892 225.700998 
L 188.168011 148.342651 
L 189.477102 188.781744 
L 190.786193 182.559862 
L 192.095284 214.732964 
L 193.404375 138.662639 
L 194.713466 168.748434 
L 196.022557 168.974188 
L 197.331648 183.520834 
L 198.640739 215.943649 
L 199.94983 160.786394 
L 201.25892 226.781849 
L 202.568011 241.315485 
L 203.877102 210.686464 
L 205.186193 230.210935 
L 206.495284 182.609135 
L 207.804375 222.414818 
L 209.113466 164.98837 
L 210.422557 195.638264 
L 211.731648 193.237191 
L 213.040739 167.817178 
L 214.34983 179.110653 
L 215.65892 180.157173 
L 218.277102 151.132622 
L 219.586193 150.965468 
L 220.895284 175.527683 
L 222.204375 122.773959 
L 223.513466 166.114881 
L 224.822557 172.757539 
L 226.131648 135.972023 
L 227.440739 132.266253 
L 228.74983 192.629782 
L 230.05892 201.434494 
L 231.368011 226.496829 
L 232.677102 208.805995 
L 233.986193 210.134748 
L 235.295284 216.888085 
L 236.604375 270.196766 
L 237.913466 246.093188 
L 240.531648 272.396137 
L 241.840739 265.972835 
L 243.14983 272.934972 
L 244.45892 207.705688 
L 245.768011 210.641825 
L 247.077102 197.420085 
L 248.386193 138.709725 
L 249.695284 133.016442 
L 251.004375 150.976569 
L 252.313466 217.121593 
L 253.622557 193.94809 
L 254.931648 143.118059 
L 256.240739 134.835376 
L 257.54983 206.6387 
L 258.85892 216.758764 
L 260.168011 123.096957 
L 262.786193 84.50521 
L 265.404375 127.836722 
L 268.022557 87.479914 
L 269.331648 101.543733 
L 270.640739 63.021088 
L 271.94983 90.299112 
L 273.25892 82.570447 
L 274.568011 53.961486 
L 275.877102 76.598365 
L 277.186193 64.447001 
L 279.804375 79.972621 
L 281.113466 35.952 
L 283.731648 81.843547 
L 285.040739 105.333405 
L 286.34983 105.695539 
L 287.65892 103.981536 
L 288.968011 115.936713 
L 290.277102 108.948939 
L 291.586193 111.334371 
L 292.895284 150.999067 
L 294.204375 159.78803 
L 295.513466 144.934857 
L 296.822557 166.783862 
L 298.131648 241.572892 
L 299.440739 204.160593 
L 300.74983 206.354844 
L 302.05892 213.112149 
L 303.368011 212.691138 
L 305.986193 261.993553 
L 307.295284 240.155155 
L 308.604375 244.696814 
L 309.913466 236.378824 
L 311.222557 190.617307 
L 312.531648 181.770952 
L 313.840739 191.521246 
L 315.14983 185.18824 
L 316.45892 202.086548 
L 317.768011 134.449861 
L 321.695284 89.059016 
L 323.004375 146.284366 
L 324.313466 152.942316 
L 325.622557 173.228147 
L 326.931648 171.807593 
L 328.240739 189.192201 
L 329.54983 190.026833 
L 330.85892 163.968093 
L 332.168011 105.739758 
L 334.786193 81.334884 
L 336.095284 92.460785 
L 337.404375 82.72696 
L 338.713466 86.198189 
L 340.022557 69.639783 
L 341.331648 77.418853 
L 342.640739 117.996693 
L 343.94983 96.839061 
L 346.568011 148.373486 
L 349.186193 110.081783 
L 351.804375 98.45506 
L 353.113466 95.826314 
L 354.422557 116.828666 
L 355.731648 112.418727 
L 357.040739 89.920294 
L 358.34983 97.397319 
L 360.968011 179.798046 
L 362.277102 169.469366 
L 363.586193 203.840711 
L 364.895284 202.465831 
L 366.204375 230.965219 
L 368.822557 154.024594 
L 370.131648 183.14907 
L 371.440739 159.264832 
L 372.74983 159.800877 
L 374.05892 153.314007 
L 376.677102 109.60069 
L 377.986193 124.857141 
L 380.604375 48.136775 
L 383.222557 72.026046 
L 384.531648 150.851681 
L 385.840739 140.527637 
L 387.14983 88.937445 
L 388.45892 128.717434 
L 389.768011 128.091979 
L 391.077102 102.06323 
L 392.386193 100.270962 
L 393.695284 108.905916 
L 395.004375 78.839297 
L 396.313466 115.974879 
L 397.622557 79.802135 
L 398.931648 143.415335 
L 398.931648 143.415335 
" clip-path="url(#pdcdef5b3a5)" style="fill: none; stroke: #31688e; stroke-width: 1.5; stroke-linecap: round"/>
   </g>
   <g id="line2d_31">
    <path d="M 74.277102 174.502947 
L 75.586193 182.667517 
L 76.895284 173.473629 
L 78.204375 201.160524 
L 79.513466 184.716034 
L 80.822557 195.63395 
L 82.131648 166.863684 
L 83.440739 173.562899 
L 84.74983 131.339897 
L 87.368011 165.213256 
L 89.986193 191.022877 
L 91.295284 195.350411 
L 92.604375 184.077694 
L 93.913466 198.016623 
L 95.222557 144.529903 
L 96.531648 150.352724 
L 97.840739 185.546148 
L 99.14983 189.291198 
L 100.45892 147.800582 
L 101.768011 211.938081 
L 103.077102 149.732326 
L 108.313466 196.45961 
L 109.622557 141.094841 
L 110.931648 167.97232 
L 112.240739 172.306758 
L 113.54983 185.34085 
L 114.85892 182.084333 
L 116.168011 136.061374 
L 117.477102 161.328171 
L 118.786193 151.53414 
L 121.404375 192.466178 
L 122.713466 212.641874 
L 124.022557 136.99692 
L 125.331648 183.532288 
L 126.640739 133.291413 
L 127.94983 159.860689 
L 129.25892 154.744703 
L 130.568011 188.486397 
L 131.877102 164.942523 
L 133.186193 184.958647 
L 134.495284 186.809603 
L 135.804375 200.351755 
L 137.113466 178.097628 
L 138.422557 210.324907 
L 139.731648 166.395935 
L 141.040739 174.26094 
L 142.34983 168.769716 
L 144.968011 201.860238 
L 146.277102 192.473942 
L 147.586193 167.663158 
L 148.895284 161.871898 
L 150.204375 149.76143 
L 151.513466 209.054427 
L 152.822557 200.858704 
L 154.131648 219.101611 
L 156.74983 156.584683 
L 158.05892 170.38357 
L 159.368011 167.468894 
L 160.677102 178.203179 
L 161.986193 180.293851 
L 163.295284 142.579779 
L 167.222557 217.302344 
L 169.840739 187.585095 
L 171.14983 187.634236 
L 172.45892 168.304188 
L 173.768011 203.171943 
L 175.077102 137.10203 
L 179.004375 182.58661 
L 180.313466 154.360419 
L 182.931648 207.665815 
L 184.240739 184.051809 
L 185.54983 216.524466 
L 188.168011 184.441256 
L 189.477102 136.797225 
L 192.095284 163.783882 
L 193.404375 169.917947 
L 194.713466 168.184802 
L 196.022557 187.368603 
L 197.331648 148.543787 
L 199.94983 179.843885 
L 201.25892 133.089554 
L 202.568011 193.190751 
L 203.877102 177.089949 
L 206.495284 217.966531 
L 209.113466 158.929498 
L 210.422557 218.008762 
L 211.731648 175.333756 
L 213.040739 187.63044 
L 214.34983 166.974874 
L 215.65892 182.168446 
L 216.968011 150.702027 
L 218.277102 200.22593 
L 219.586193 151.012508 
L 220.895284 180.65891 
L 222.204375 185.26889 
L 223.513466 157.631457 
L 224.822557 157.599663 
L 226.131648 196.533512 
L 227.440739 157.528605 
L 228.74983 187.102025 
L 230.05892 179.74546 
L 231.368011 182.295067 
L 232.677102 188.048391 
L 233.986193 227.176874 
L 235.295284 162.928665 
L 236.604375 186.940213 
L 237.913466 172.309109 
L 239.222557 177.068775 
L 240.531648 171.009359 
L 241.840739 170.002285 
L 243.14983 186.401497 
L 244.45892 229.45273 
L 245.768011 186.675235 
L 247.077102 233.381301 
L 248.386193 242.01594 
L 249.695284 185.440933 
L 252.313466 165.419417 
L 254.931648 191.118296 
L 257.54983 148.517632 
L 258.85892 221.070808 
L 260.168011 207.432743 
L 262.786193 143.841777 
L 266.713466 192.377385 
L 268.022557 179.670517 
L 269.331648 153.447356 
L 270.640739 152.00883 
L 273.25892 154.735518 
L 274.568011 181.03752 
L 275.877102 123.895228 
L 277.186193 114.194252 
L 278.495284 172.694185 
L 279.804375 166.024021 
L 281.113466 151.234694 
L 282.422557 148.775741 
L 286.34983 187.783113 
L 287.65892 132.492868 
L 288.968011 152.930503 
L 290.277102 202.64589 
L 291.586193 163.60769 
L 292.895284 170.05564 
L 294.204375 182.798117 
L 296.822557 147.81869 
L 298.131648 184.400145 
L 299.440739 165.098762 
L 300.74983 164.467275 
L 302.05892 167.680338 
L 303.368011 200.195262 
L 305.986193 173.30233 
L 307.295284 212.764929 
L 308.604375 210.188569 
L 309.913466 215.185574 
L 312.531648 171.67573 
L 313.840739 214.109179 
L 315.14983 186.823779 
L 316.45892 212.722054 
L 317.768011 199.98931 
L 320.386193 148.801508 
L 321.695284 144.529857 
L 323.004375 192.830026 
L 325.622557 179.049868 
L 326.931648 161.410352 
L 328.240739 164.811629 
L 330.85892 213.319058 
L 332.168011 194.773531 
L 333.477102 204.266718 
L 334.786193 198.257271 
L 337.404375 143.328657 
L 338.713466 171.501114 
L 340.022557 123.773375 
L 341.331648 122.790709 
L 343.94983 161.485993 
L 345.25892 167.610859 
L 346.568011 154.281609 
L 347.877102 187.54006 
L 349.186193 180.987465 
L 350.495284 206.100332 
L 351.804375 145.932619 
L 353.113466 198.708671 
L 354.422557 152.4986 
L 357.040739 172.772237 
L 359.65892 153.141277 
L 360.968011 174.861135 
L 362.277102 157.297666 
L 363.586193 184.151446 
L 364.895284 174.459569 
L 366.204375 184.125644 
L 367.513466 205.192447 
L 368.822557 160.234421 
L 370.131648 192.263291 
L 372.74983 173.585617 
L 374.05892 195.769525 
L 375.368011 147.917774 
L 376.677102 157.176418 
L 377.986193 190.242211 
L 380.604375 145.209898 
L 381.913466 181.383845 
L 383.222557 162.124318 
L 384.531648 185.31167 
L 388.45892 166.763883 
L 389.768011 202.733098 
L 391.077102 157.804179 
L 392.386193 154.408528 
L 393.695284 184.069915 
L 395.004375 180.645749 
L 396.313466 173.178285 
L 397.622557 190.055793 
L 398.931648 144.881678 
L 398.931648 144.881678 
" clip-path="url(#pdcdef5b3a5)" style="fill: none; stroke: #35b779; stroke-width: 1.5; stroke-linecap: round"/>
   </g>
   <g id="patch_3">
    <path d="M 58.044375 289.968 
L 58.044375 23.856 
" style="fill: none"/>
   </g>
   <g id="patch_4">
    <path d="M 415.164375 289.968 
L 415.164375 23.856 
" style="fill: none"/>
   </g>
   <g id="patch_5">
    <path d="M 58.044375 289.968 
L 415.164375 289.968 
" style="fill: none"/>
   </g>
   <g id="patch_6">
    <path d="M 58.044375 23.856 
L 415.164375 23.856 
" style="fill: none"/>
   </g>
   <g id="text_16">
    <!-- Evaluate -->
    <g style="fill: #838383" transform="translate(208.645875 17.856) scale(0.144 -0.144)">
     <defs>
      <path id="IBMPlexSans-Regular-45" d="M 595 0 
L 595 4467 
L 3322 4467 
L 3322 3994 
L 1133 3994 
L 1133 2496 
L 3194 2496 
L 3194 2022 
L 1133 2022 
L 1133 474 
L 3322 474 
L 3322 0 
L 595 0 
z
" transform="scale(0.015625)"/>
      <path id="IBMPlexSans-Regular-76" d="M 1274 0 
L 115 3302 
L 627 3302 
L 1203 1664 
L 1562 538 
L 1594 538 
L 1952 1664 
L 2541 3302 
L 3034 3302 
L 1869 0 
L 1274 0 
z
" transform="scale(0.015625)"/>
      <path id="IBMPlexSans-Regular-61" d="M 2944 0 
Q 2656 0 2531 153 
Q 2406 307 2374 538 
L 2342 538 
Q 2234 230 1984 76 
Q 1734 -77 1389 -77 
Q 864 -77 573 192 
Q 282 461 282 922 
Q 282 1389 624 1638 
Q 966 1888 1690 1888 
L 2342 1888 
L 2342 2214 
Q 2342 2566 2150 2752 
Q 1958 2938 1562 2938 
Q 1261 2938 1059 2803 
Q 858 2669 723 2445 
L 416 2733 
Q 550 3002 844 3190 
Q 1139 3379 1587 3379 
Q 2189 3379 2521 3084 
Q 2854 2790 2854 2266 
L 2854 448 
L 3232 448 
L 3232 0 
L 2944 0 
z
M 1472 358 
Q 1664 358 1824 403 
Q 1984 448 2099 531 
Q 2214 614 2278 723 
Q 2342 832 2342 960 
L 2342 1504 
L 1664 1504 
Q 1222 1504 1020 1376 
Q 819 1248 819 1005 
L 819 870 
Q 819 627 995 492 
Q 1171 358 1472 358 
z
" transform="scale(0.015625)"/>
      <path id="IBMPlexSans-Regular-75" d="M 2579 538 
L 2554 538 
Q 2502 422 2428 310 
Q 2355 198 2246 112 
Q 2138 26 1984 -25 
Q 1830 -77 1626 -77 
Q 1114 -77 813 252 
Q 512 582 512 1184 
L 512 3302 
L 1024 3302 
L 1024 1274 
Q 1024 384 1779 384 
Q 1933 384 2077 422 
Q 2221 461 2333 537 
Q 2445 614 2512 732 
Q 2579 851 2579 1018 
L 2579 3302 
L 3091 3302 
L 3091 0 
L 2579 0 
L 2579 538 
z
" transform="scale(0.015625)"/>
      <path id="IBMPlexSans-Regular-74" d="M 1274 0 
Q 1005 0 867 150 
Q 730 301 730 544 
L 730 2854 
L 186 2854 
L 186 3302 
L 493 3302 
Q 659 3302 720 3369 
Q 781 3437 781 3603 
L 781 4218 
L 1242 4218 
L 1242 3302 
L 1965 3302 
L 1965 2854 
L 1242 2854 
L 1242 448 
L 1914 448 
L 1914 0 
L 1274 0 
z
" transform="scale(0.015625)"/>
      <path id="IBMPlexSans-Regular-65" d="M 1786 -77 
Q 1446 -77 1174 44 
Q 902 166 707 393 
Q 512 621 406 937 
Q 301 1254 301 1651 
Q 301 2042 406 2362 
Q 512 2682 707 2909 
Q 902 3136 1174 3257 
Q 1446 3379 1786 3379 
Q 2118 3379 2380 3257 
Q 2643 3136 2828 2921 
Q 3014 2707 3113 2412 
Q 3213 2118 3213 1766 
L 3213 1523 
L 838 1523 
L 838 1370 
Q 838 1158 905 976 
Q 973 794 1097 659 
Q 1222 525 1404 448 
Q 1587 371 1818 371 
Q 2131 371 2364 518 
Q 2598 666 2726 941 
L 3091 678 
Q 2931 339 2592 131 
Q 2253 -77 1786 -77 
z
M 1786 2950 
Q 1574 2950 1401 2876 
Q 1229 2803 1104 2668 
Q 979 2534 908 2352 
Q 838 2170 838 1952 
L 838 1907 
L 2662 1907 
L 2662 1978 
Q 2662 2419 2422 2684 
Q 2182 2950 1786 2950 
z
" transform="scale(0.015625)"/>
     </defs>
     <use xlink:href="#IBMPlexSans-Regular-45"/>
     <use xlink:href="#IBMPlexSans-Regular-76" x="58.299988"/>
     <use xlink:href="#IBMPlexSans-Regular-61" x="107.499985"/>
     <use xlink:href="#IBMPlexSans-Regular-6c" x="160.899979"/>
     <use xlink:href="#IBMPlexSans-Regular-75" x="188.099976"/>
     <use xlink:href="#IBMPlexSans-Regular-61" x="244.899963"/>
     <use xlink:href="#IBMPlexSans-Regular-74" x="298.299957"/>
     <use xlink:href="#IBMPlexSans-Regular-65" x="333.399948"/>
    </g>
   </g>
  </g>
 </g>
 <defs>
  <clipPath id="pdcdef5b3a5">
   <rect x="58.044375" y="23.856" width="357.12" height="266.112"/>
  </clipPath>
 </defs>
</svg>
