<?xml version="1.0" encoding="utf-8" standalone="no"?>
<!DOCTYPE svg PUBLIC "-//W3C//DTD SVG 1.1//EN"
  "http://www.w3.org/Graphics/SVG/1.1/DTD/svg11.dtd">
<svg xmlns:xlink="http://www.w3.org/1999/xlink" width="223.65pt" height="173.814844pt" viewBox="0 0 223.65 173.814844" xmlns="http://www.w3.org/2000/svg" version="1.1">
 <metadata>
  <rdf:RDF xmlns:dc="http://purl.org/dc/elements/1.1/" xmlns:cc="http://creativecommons.org/ns#" xmlns:rdf="http://www.w3.org/1999/02/22-rdf-syntax-ns#">
   <cc:Work>
    <dc:type rdf:resource="http://purl.org/dc/dcmitype/StillImage"/>
    <dc:date>2023-07-20T12:16:18.010471</dc:date>
    <dc:format>image/svg+xml</dc:format>
    <dc:creator>
     <cc:Agent>
      <dc:title>Matplotlib v3.7.1, https://matplotlib.org/</dc:title>
     </cc:Agent>
    </dc:creator>
   </cc:Work>
  </rdf:RDF>
 </metadata>
 <defs>
  <style type="text/css">*{stroke-linejoin: round; stroke-linecap: butt}</style>
 </defs>
 <g id="figure_1">
  <g id="patch_1">
   <path d="M 0 173.814844 
L 223.65 173.814844 
L 223.65 0 
L 0 0 
L 0 173.814844 
z
" style="fill: none"/>
  </g>
  <g id="axes_1">
   <g id="patch_2">
    <path d="M 7.2 48.78 
L 216.45 48.78 
L 216.45 7.2 
L 7.2 7.2 
L 7.2 48.78 
z
" style="fill: none"/>
   </g>
   <g id="matplotlib.axis_1">
    <g id="xtick_1"/>
    <g id="xtick_2"/>
    <g id="xtick_3"/>
    <g id="xtick_4"/>
    <g id="xtick_5"/>
   </g>
   <g id="matplotlib.axis_2"/>
   <g id="line2d_1">
    <path d="M 7.2 48.78 
L 216.45 48.78 
" style="fill: none; stroke: #482475; stroke-opacity: 0.9; stroke-linecap: round"/>
   </g>
   <g id="text_1">
    <!-- 0 -->
    <g style="fill: #482475" transform="translate(7.2 47.732625) scale(0.12 -0.12)">
     <defs>
      <path id="Arial-BoldMT-30" d="M 1756 4600 
Q 2422 4600 2797 4125 
Q 3244 3563 3244 2259 
Q 3244 959 2794 391 
Q 2422 -78 1756 -78 
Q 1088 -78 678 436 
Q 269 950 269 2269 
Q 269 3563 719 4131 
Q 1091 4600 1756 4600 
z
M 1756 3872 
Q 1597 3872 1472 3770 
Q 1347 3669 1278 3406 
Q 1188 3066 1188 2259 
Q 1188 1453 1269 1151 
Q 1350 850 1473 750 
Q 1597 650 1756 650 
Q 1916 650 2041 751 
Q 2166 853 2234 1116 
Q 2325 1453 2325 2259 
Q 2325 3066 2244 3367 
Q 2163 3669 2039 3770 
Q 1916 3872 1756 3872 
z
" transform="scale(0.015625)"/>
     </defs>
     <use xlink:href="#Arial-BoldMT-30"/>
    </g>
   </g>
  </g>
  <g id="axes_2">
   <g id="patch_3">
    <path d="M 7.2 59.175 
L 216.45 59.175 
L 216.45 17.595 
L 7.2 17.595 
L 7.2 59.175 
z
" style="fill: none"/>
   </g>
   <g id="matplotlib.axis_3">
    <g id="xtick_6"/>
    <g id="xtick_7"/>
    <g id="xtick_8"/>
    <g id="xtick_9"/>
    <g id="xtick_10"/>
   </g>
   <g id="matplotlib.axis_4"/>
   <g id="PolyCollection_1">
    <defs>
     <path id="m037ef1925b" d="M 70.252265 -115.747307 
L 70.252265 -114.639844 
L 70.443165 -114.639844 
L 70.634064 -114.639844 
L 70.824964 -114.639844 
L 71.015863 -114.639844 
L 71.206763 -114.639844 
L 71.397662 -114.639844 
L 71.588562 -114.639844 
L 71.779461 -114.639844 
L 71.970361 -114.639844 
L 72.16126 -114.639844 
L 72.352159 -114.639844 
L 72.543059 -114.639844 
L 72.733958 -114.639844 
L 72.924858 -114.639844 
L 73.115757 -114.639844 
L 73.306657 -114.639844 
L 73.497556 -114.639844 
L 73.688456 -114.639844 
L 73.879355 -114.639844 
L 74.070255 -114.639844 
L 74.261154 -114.639844 
L 74.452054 -114.639844 
L 74.642953 -114.639844 
L 74.833853 -114.639844 
L 75.024752 -114.639844 
L 75.215652 -114.639844 
L 75.406551 -114.639844 
L 75.597451 -114.639844 
L 75.78835 -114.639844 
L 75.979249 -114.639844 
L 76.170149 -114.639844 
L 76.361048 -114.639844 
L 76.551948 -114.639844 
L 76.742847 -114.639844 
L 76.933747 -114.639844 
L 77.124646 -114.639844 
L 77.315546 -114.639844 
L 77.506445 -114.639844 
L 77.697345 -114.639844 
L 77.888244 -114.639844 
L 78.079144 -114.639844 
L 78.270043 -114.639844 
L 78.460943 -114.639844 
L 78.651842 -114.639844 
L 78.842742 -114.639844 
L 79.033641 -114.639844 
L 79.224541 -114.639844 
L 79.41544 -114.639844 
L 79.606339 -114.639844 
L 79.797239 -114.639844 
L 79.988138 -114.639844 
L 80.179038 -114.639844 
L 80.369937 -114.639844 
L 80.560837 -114.639844 
L 80.751736 -114.639844 
L 80.942636 -114.639844 
L 81.133535 -114.639844 
L 81.324435 -114.639844 
L 81.515334 -114.639844 
L 81.706234 -114.639844 
L 81.897133 -114.639844 
L 82.088033 -114.639844 
L 82.278932 -114.639844 
L 82.469832 -114.639844 
L 82.660731 -114.639844 
L 82.851631 -114.639844 
L 83.04253 -114.639844 
L 83.233429 -114.639844 
L 83.424329 -114.639844 
L 83.615228 -114.639844 
L 83.806128 -114.639844 
L 83.997027 -114.639844 
L 84.187927 -114.639844 
L 84.378826 -114.639844 
L 84.569726 -114.639844 
L 84.760625 -114.639844 
L 84.951525 -114.639844 
L 85.142424 -114.639844 
L 85.333324 -114.639844 
L 85.524223 -114.639844 
L 85.715123 -114.639844 
L 85.906022 -114.639844 
L 86.096922 -114.639844 
L 86.287821 -114.639844 
L 86.478721 -114.639844 
L 86.66962 -114.639844 
L 86.860519 -114.639844 
L 87.051419 -114.639844 
L 87.242318 -114.639844 
L 87.433218 -114.639844 
L 87.624117 -114.639844 
L 87.815017 -114.639844 
L 88.005916 -114.639844 
L 88.196816 -114.639844 
L 88.387715 -114.639844 
L 88.578615 -114.639844 
L 88.769514 -114.639844 
L 88.960414 -114.639844 
L 89.151313 -114.639844 
L 89.342213 -114.639844 
L 89.533112 -114.639844 
L 89.724012 -114.639844 
L 89.914911 -114.639844 
L 90.105811 -114.639844 
L 90.29671 -114.639844 
L 90.487609 -114.639844 
L 90.678509 -114.639844 
L 90.869408 -114.639844 
L 91.060308 -114.639844 
L 91.251207 -114.639844 
L 91.442107 -114.639844 
L 91.633006 -114.639844 
L 91.823906 -114.639844 
L 92.014805 -114.639844 
L 92.205705 -114.639844 
L 92.396604 -114.639844 
L 92.587504 -114.639844 
L 92.778403 -114.639844 
L 92.969303 -114.639844 
L 93.160202 -114.639844 
L 93.351102 -114.639844 
L 93.542001 -114.639844 
L 93.7329 -114.639844 
L 93.9238 -114.639844 
L 94.114699 -114.639844 
L 94.305599 -114.639844 
L 94.496498 -114.639844 
L 94.687398 -114.639844 
L 94.878297 -114.639844 
L 95.069197 -114.639844 
L 95.260096 -114.639844 
L 95.450996 -114.639844 
L 95.641895 -114.639844 
L 95.832795 -114.639844 
L 96.023694 -114.639844 
L 96.214594 -114.639844 
L 96.405493 -114.639844 
L 96.596393 -114.639844 
L 96.787292 -114.639844 
L 96.978192 -114.639844 
L 97.169091 -114.639844 
L 97.35999 -114.639844 
L 97.55089 -114.639844 
L 97.741789 -114.639844 
L 97.932689 -114.639844 
L 98.123588 -114.639844 
L 98.314488 -114.639844 
L 98.505387 -114.639844 
L 98.696287 -114.639844 
L 98.887186 -114.639844 
L 99.078086 -114.639844 
L 99.268985 -114.639844 
L 99.459885 -114.639844 
L 99.650784 -114.639844 
L 99.841684 -114.639844 
L 100.032583 -114.639844 
L 100.223483 -114.639844 
L 100.414382 -114.639844 
L 100.605282 -114.639844 
L 100.796181 -114.639844 
L 100.98708 -114.639844 
L 101.17798 -114.639844 
L 101.368879 -114.639844 
L 101.559779 -114.639844 
L 101.750678 -114.639844 
L 101.941578 -114.639844 
L 102.132477 -114.639844 
L 102.323377 -114.639844 
L 102.514276 -114.639844 
L 102.705176 -114.639844 
L 102.896075 -114.639844 
L 103.086975 -114.639844 
L 103.277874 -114.639844 
L 103.468774 -114.639844 
L 103.659673 -114.639844 
L 103.850573 -114.639844 
L 104.041472 -114.639844 
L 104.232372 -114.639844 
L 104.423271 -114.639844 
L 104.61417 -114.639844 
L 104.80507 -114.639844 
L 104.995969 -114.639844 
L 105.186869 -114.639844 
L 105.377768 -114.639844 
L 105.568668 -114.639844 
L 105.759567 -114.639844 
L 105.950467 -114.639844 
L 106.141366 -114.639844 
L 106.332266 -114.639844 
L 106.523165 -114.639844 
L 106.714065 -114.639844 
L 106.904964 -114.639844 
L 107.095864 -114.639844 
L 107.286763 -114.639844 
L 107.477663 -114.639844 
L 107.668562 -114.639844 
L 107.859462 -114.639844 
L 108.050361 -114.639844 
L 108.24126 -114.639844 
L 108.24126 -120.622038 
L 108.24126 -120.622038 
L 108.050361 -121.243765 
L 107.859462 -121.910963 
L 107.668562 -122.624525 
L 107.477663 -123.385043 
L 107.286763 -124.192771 
L 107.095864 -125.047589 
L 106.904964 -125.948969 
L 106.714065 -126.895943 
L 106.523165 -127.887073 
L 106.332266 -128.920432 
L 106.141366 -129.993579 
L 105.950467 -131.10355 
L 105.759567 -132.246848 
L 105.568668 -133.419445 
L 105.377768 -134.616788 
L 105.186869 -135.833819 
L 104.995969 -137.064993 
L 104.80507 -138.304316 
L 104.61417 -139.545387 
L 104.423271 -140.781442 
L 104.232372 -142.005419 
L 104.041472 -143.210019 
L 103.850573 -144.387782 
L 103.659673 -145.531163 
L 103.468774 -146.632616 
L 103.277874 -147.684682 
L 103.086975 -148.680077 
L 102.896075 -149.611785 
L 102.705176 -150.473143 
L 102.514276 -151.257934 
L 102.323377 -151.960466 
L 102.132477 -152.575652 
L 101.941578 -153.09908 
L 101.750678 -153.527079 
L 101.559779 -153.856766 
L 101.368879 -154.086097 
L 101.17798 -154.213889 
L 100.98708 -154.239844 
L 100.796181 -154.164553 
L 100.605282 -153.989488 
L 100.414382 -153.716985 
L 100.223483 -153.350206 
L 100.032583 -152.893099 
L 99.841684 -152.350339 
L 99.650784 -151.727266 
L 99.459885 -151.029806 
L 99.268985 -150.264393 
L 99.078086 -149.437877 
L 98.887186 -148.557438 
L 98.696287 -147.630484 
L 98.505387 -146.664563 
L 98.314488 -145.667267 
L 98.123588 -144.646138 
L 97.932689 -143.608583 
L 97.741789 -142.561792 
L 97.55089 -141.512663 
L 97.35999 -140.467735 
L 97.169091 -139.433131 
L 96.978192 -138.414506 
L 96.787292 -137.41701 
L 96.596393 -136.445257 
L 96.405493 -135.503308 
L 96.214594 -134.594661 
L 96.023694 -133.722246 
L 95.832795 -132.888439 
L 95.641895 -132.095076 
L 95.450996 -131.343477 
L 95.260096 -130.634472 
L 95.069197 -129.968441 
L 94.878297 -129.34535 
L 94.687398 -128.764794 
L 94.496498 -128.22604 
L 94.305599 -127.728072 
L 94.114699 -127.269639 
L 93.9238 -126.849296 
L 93.7329 -126.465448 
L 93.542001 -126.116392 
L 93.351102 -125.800357 
L 93.160202 -125.515531 
L 92.969303 -125.260104 
L 92.778403 -125.032284 
L 92.587504 -124.830329 
L 92.396604 -124.652564 
L 92.205705 -124.497397 
L 92.014805 -124.363333 
L 91.823906 -124.24898 
L 91.633006 -124.153058 
L 91.442107 -124.074402 
L 91.251207 -124.01196 
L 91.060308 -123.964797 
L 90.869408 -123.932083 
L 90.678509 -123.913099 
L 90.487609 -123.907222 
L 90.29671 -123.913924 
L 90.105811 -123.932763 
L 89.914911 -123.963375 
L 89.724012 -124.005467 
L 89.533112 -124.058812 
L 89.342213 -124.123235 
L 89.151313 -124.198612 
L 88.960414 -124.284859 
L 88.769514 -124.381928 
L 88.578615 -124.489794 
L 88.387715 -124.608453 
L 88.196816 -124.737916 
L 88.005916 -124.878195 
L 87.815017 -125.0293 
L 87.624117 -125.191233 
L 87.433218 -125.363972 
L 87.242318 -125.547472 
L 87.051419 -125.741649 
L 86.860519 -125.946373 
L 86.66962 -126.161457 
L 86.478721 -126.38665 
L 86.287821 -126.621626 
L 86.096922 -126.865974 
L 85.906022 -127.119186 
L 85.715123 -127.380656 
L 85.524223 -127.649664 
L 85.333324 -127.925375 
L 85.142424 -128.206832 
L 84.951525 -128.49295 
L 84.760625 -128.782519 
L 84.569726 -129.074202 
L 84.378826 -129.366536 
L 84.187927 -129.657941 
L 83.997027 -129.946725 
L 83.806128 -130.231094 
L 83.615228 -130.509165 
L 83.424329 -130.778983 
L 83.233429 -131.038537 
L 83.04253 -131.285778 
L 82.851631 -131.518644 
L 82.660731 -131.73508 
L 82.469832 -131.933063 
L 82.278932 -132.110626 
L 82.088033 -132.265886 
L 81.897133 -132.397065 
L 81.706234 -132.502516 
L 81.515334 -132.580749 
L 81.324435 -132.630447 
L 81.133535 -132.65049 
L 80.942636 -132.639969 
L 80.751736 -132.598203 
L 80.560837 -132.524751 
L 80.369937 -132.419414 
L 80.179038 -132.282248 
L 79.988138 -132.113558 
L 79.797239 -131.913897 
L 79.606339 -131.684063 
L 79.41544 -131.425084 
L 79.224541 -131.138209 
L 79.033641 -130.82489 
L 78.842742 -130.486765 
L 78.651842 -130.125635 
L 78.460943 -129.743442 
L 78.270043 -129.342245 
L 78.079144 -128.924196 
L 77.888244 -128.491511 
L 77.697345 -128.046449 
L 77.506445 -127.591281 
L 77.315546 -127.128269 
L 77.124646 -126.659644 
L 76.933747 -126.187579 
L 76.742847 -125.714175 
L 76.551948 -125.241436 
L 76.361048 -124.771263 
L 76.170149 -124.30543 
L 75.979249 -123.845581 
L 75.78835 -123.393221 
L 75.597451 -122.949706 
L 75.406551 -122.516243 
L 75.215652 -122.093888 
L 75.024752 -121.683549 
L 74.833853 -121.285985 
L 74.642953 -120.901817 
L 74.452054 -120.531526 
L 74.261154 -120.175468 
L 74.070255 -119.833878 
L 73.879355 -119.506883 
L 73.688456 -119.194506 
L 73.497556 -118.896683 
L 73.306657 -118.613269 
L 73.115757 -118.344048 
L 72.924858 -118.088744 
L 72.733958 -117.847031 
L 72.543059 -117.61854 
L 72.352159 -117.402871 
L 72.16126 -117.199594 
L 71.970361 -117.008263 
L 71.779461 -116.828418 
L 71.588562 -116.659592 
L 71.397662 -116.501314 
L 71.206763 -116.353114 
L 71.015863 -116.214528 
L 70.824964 -116.085097 
L 70.634064 -115.964374 
L 70.443165 -115.851919 
L 70.252265 -115.747307 
z
" style="stroke: #355f8d; stroke-width: 1.25"/>
    </defs>
    <g>
     <use xlink:href="#m037ef1925b" x="0" y="173.814844" style="fill: #355f8d; fill-opacity: 0.7; stroke: #355f8d; stroke-width: 1.25"/>
    </g>
   </g>
   <g id="line2d_2">
    <path d="M 7.2 59.175 
L 216.45 59.175 
" style="fill: none; stroke: #355f8d; stroke-opacity: 0.9; stroke-linecap: round"/>
   </g>
   <g id="text_2">
    <!-- 1 -->
    <g style="fill: #355f8d" transform="translate(7.2 58.127625) scale(0.12 -0.12)">
     <defs>
      <path id="Arial-BoldMT-31" d="M 2519 0 
L 1641 0 
L 1641 3309 
Q 1159 2859 506 2644 
L 506 3441 
Q 850 3553 1253 3867 
Q 1656 4181 1806 4600 
L 2519 4600 
L 2519 0 
z
" transform="scale(0.015625)"/>
     </defs>
     <use xlink:href="#Arial-BoldMT-31"/>
    </g>
   </g>
  </g>
  <g id="axes_3">
   <g id="patch_4">
    <path d="M 7.2 69.57 
L 216.45 69.57 
L 216.45 27.99 
L 7.2 27.99 
L 7.2 69.57 
z
" style="fill: none"/>
   </g>
   <g id="matplotlib.axis_5">
    <g id="xtick_11"/>
    <g id="xtick_12"/>
    <g id="xtick_13"/>
    <g id="xtick_14"/>
    <g id="xtick_15"/>
   </g>
   <g id="matplotlib.axis_6"/>
   <g id="PolyCollection_2">
    <defs>
     <path id="m6f3a56eaa6" d="M 67.983147 -104.750267 
L 67.983147 -104.244844 
L 68.366899 -104.244844 
L 68.750651 -104.244844 
L 69.134403 -104.244844 
L 69.518155 -104.244844 
L 69.901907 -104.244844 
L 70.28566 -104.244844 
L 70.669412 -104.244844 
L 71.053164 -104.244844 
L 71.436916 -104.244844 
L 71.820668 -104.244844 
L 72.204421 -104.244844 
L 72.588173 -104.244844 
L 72.971925 -104.244844 
L 73.355677 -104.244844 
L 73.739429 -104.244844 
L 74.123181 -104.244844 
L 74.506934 -104.244844 
L 74.890686 -104.244844 
L 75.274438 -104.244844 
L 75.65819 -104.244844 
L 76.041942 -104.244844 
L 76.425694 -104.244844 
L 76.809447 -104.244844 
L 77.193199 -104.244844 
L 77.576951 -104.244844 
L 77.960703 -104.244844 
L 78.344455 -104.244844 
L 78.728208 -104.244844 
L 79.11196 -104.244844 
L 79.495712 -104.244844 
L 79.879464 -104.244844 
L 80.263216 -104.244844 
L 80.646968 -104.244844 
L 81.030721 -104.244844 
L 81.414473 -104.244844 
L 81.798225 -104.244844 
L 82.181977 -104.244844 
L 82.565729 -104.244844 
L 82.949481 -104.244844 
L 83.333234 -104.244844 
L 83.716986 -104.244844 
L 84.100738 -104.244844 
L 84.48449 -104.244844 
L 84.868242 -104.244844 
L 85.251995 -104.244844 
L 85.635747 -104.244844 
L 86.019499 -104.244844 
L 86.403251 -104.244844 
L 86.787003 -104.244844 
L 87.170755 -104.244844 
L 87.554508 -104.244844 
L 87.93826 -104.244844 
L 88.322012 -104.244844 
L 88.705764 -104.244844 
L 89.089516 -104.244844 
L 89.473268 -104.244844 
L 89.857021 -104.244844 
L 90.240773 -104.244844 
L 90.624525 -104.244844 
L 91.008277 -104.244844 
L 91.392029 -104.244844 
L 91.775782 -104.244844 
L 92.159534 -104.244844 
L 92.543286 -104.244844 
L 92.927038 -104.244844 
L 93.31079 -104.244844 
L 93.694542 -104.244844 
L 94.078295 -104.244844 
L 94.462047 -104.244844 
L 94.845799 -104.244844 
L 95.229551 -104.244844 
L 95.613303 -104.244844 
L 95.997055 -104.244844 
L 96.380808 -104.244844 
L 96.76456 -104.244844 
L 97.148312 -104.244844 
L 97.532064 -104.244844 
L 97.915816 -104.244844 
L 98.299569 -104.244844 
L 98.683321 -104.244844 
L 99.067073 -104.244844 
L 99.450825 -104.244844 
L 99.834577 -104.244844 
L 100.218329 -104.244844 
L 100.602082 -104.244844 
L 100.985834 -104.244844 
L 101.369586 -104.244844 
L 101.753338 -104.244844 
L 102.13709 -104.244844 
L 102.520842 -104.244844 
L 102.904595 -104.244844 
L 103.288347 -104.244844 
L 103.672099 -104.244844 
L 104.055851 -104.244844 
L 104.439603 -104.244844 
L 104.823356 -104.244844 
L 105.207108 -104.244844 
L 105.59086 -104.244844 
L 105.974612 -104.244844 
L 106.358364 -104.244844 
L 106.742116 -104.244844 
L 107.125869 -104.244844 
L 107.509621 -104.244844 
L 107.893373 -104.244844 
L 108.277125 -104.244844 
L 108.660877 -104.244844 
L 109.044629 -104.244844 
L 109.428382 -104.244844 
L 109.812134 -104.244844 
L 110.195886 -104.244844 
L 110.579638 -104.244844 
L 110.96339 -104.244844 
L 111.347143 -104.244844 
L 111.730895 -104.244844 
L 112.114647 -104.244844 
L 112.498399 -104.244844 
L 112.882151 -104.244844 
L 113.265903 -104.244844 
L 113.649656 -104.244844 
L 114.033408 -104.244844 
L 114.41716 -104.244844 
L 114.800912 -104.244844 
L 115.184664 -104.244844 
L 115.568416 -104.244844 
L 115.952169 -104.244844 
L 116.335921 -104.244844 
L 116.719673 -104.244844 
L 117.103425 -104.244844 
L 117.487177 -104.244844 
L 117.87093 -104.244844 
L 118.254682 -104.244844 
L 118.638434 -104.244844 
L 119.022186 -104.244844 
L 119.405938 -104.244844 
L 119.78969 -104.244844 
L 120.173443 -104.244844 
L 120.557195 -104.244844 
L 120.940947 -104.244844 
L 121.324699 -104.244844 
L 121.708451 -104.244844 
L 122.092203 -104.244844 
L 122.475956 -104.244844 
L 122.859708 -104.244844 
L 123.24346 -104.244844 
L 123.627212 -104.244844 
L 124.010964 -104.244844 
L 124.394717 -104.244844 
L 124.778469 -104.244844 
L 125.162221 -104.244844 
L 125.545973 -104.244844 
L 125.929725 -104.244844 
L 126.313477 -104.244844 
L 126.69723 -104.244844 
L 127.080982 -104.244844 
L 127.464734 -104.244844 
L 127.848486 -104.244844 
L 128.232238 -104.244844 
L 128.61599 -104.244844 
L 128.999743 -104.244844 
L 129.383495 -104.244844 
L 129.767247 -104.244844 
L 130.150999 -104.244844 
L 130.534751 -104.244844 
L 130.918504 -104.244844 
L 131.302256 -104.244844 
L 131.686008 -104.244844 
L 132.06976 -104.244844 
L 132.453512 -104.244844 
L 132.837264 -104.244844 
L 133.221017 -104.244844 
L 133.604769 -104.244844 
L 133.988521 -104.244844 
L 134.372273 -104.244844 
L 134.756025 -104.244844 
L 135.139777 -104.244844 
L 135.52353 -104.244844 
L 135.907282 -104.244844 
L 136.291034 -104.244844 
L 136.674786 -104.244844 
L 137.058538 -104.244844 
L 137.442291 -104.244844 
L 137.826043 -104.244844 
L 138.209795 -104.244844 
L 138.593547 -104.244844 
L 138.977299 -104.244844 
L 139.361051 -104.244844 
L 139.744804 -104.244844 
L 140.128556 -104.244844 
L 140.512308 -104.244844 
L 140.89606 -104.244844 
L 141.279812 -104.244844 
L 141.663564 -104.244844 
L 142.047317 -104.244844 
L 142.431069 -104.244844 
L 142.814821 -104.244844 
L 143.198573 -104.244844 
L 143.582325 -104.244844 
L 143.966078 -104.244844 
L 144.34983 -104.244844 
L 144.34983 -105.639923 
L 144.34983 -105.639923 
L 143.966078 -105.784019 
L 143.582325 -105.939195 
L 143.198573 -106.105914 
L 142.814821 -106.284623 
L 142.431069 -106.475754 
L 142.047317 -106.679724 
L 141.663564 -106.896926 
L 141.279812 -107.127734 
L 140.89606 -107.372492 
L 140.512308 -107.631519 
L 140.128556 -107.905101 
L 139.744804 -108.193487 
L 139.361051 -108.49689 
L 138.977299 -108.815475 
L 138.593547 -109.14936 
L 138.209795 -109.498605 
L 137.826043 -109.863211 
L 137.442291 -110.243106 
L 137.058538 -110.638144 
L 136.674786 -111.04809 
L 136.291034 -111.472614 
L 135.907282 -111.911281 
L 135.52353 -112.36354 
L 135.139777 -112.828713 
L 134.756025 -113.305987 
L 134.372273 -113.794401 
L 133.988521 -114.292841 
L 133.604769 -114.80003 
L 133.221017 -115.314519 
L 132.837264 -115.834687 
L 132.453512 -116.358738 
L 132.06976 -116.884697 
L 131.686008 -117.410417 
L 131.302256 -117.933587 
L 130.918504 -118.451737 
L 130.534751 -118.962256 
L 130.150999 -119.462407 
L 129.767247 -119.949351 
L 129.383495 -120.420167 
L 128.999743 -120.871889 
L 128.61599 -121.301527 
L 128.232238 -121.706109 
L 127.848486 -122.082717 
L 127.464734 -122.42852 
L 127.080982 -122.74082 
L 126.69723 -123.017085 
L 126.313477 -123.254991 
L 125.929725 -123.45246 
L 125.545973 -123.607692 
L 125.162221 -123.719195 
L 124.778469 -123.785818 
L 124.394717 -123.806771 
L 124.010964 -123.781641 
L 123.627212 -123.710406 
L 123.24346 -123.593442 
L 122.859708 -123.43152 
L 122.475956 -123.225801 
L 122.092203 -122.977821 
L 121.708451 -122.689476 
L 121.324699 -122.362992 
L 120.940947 -122.000898 
L 120.557195 -121.605993 
L 120.173443 -121.181305 
L 119.78969 -120.730049 
L 119.405938 -120.25559 
L 119.022186 -119.761389 
L 118.638434 -119.250969 
L 118.254682 -118.727862 
L 117.87093 -118.195573 
L 117.487177 -117.657537 
L 117.103425 -117.11708 
L 116.719673 -116.577393 
L 116.335921 -116.041493 
L 115.952169 -115.512206 
L 115.568416 -114.99214 
L 115.184664 -114.483676 
L 114.800912 -113.988955 
L 114.41716 -113.509867 
L 114.033408 -113.048059 
L 113.649656 -112.604928 
L 113.265903 -112.181635 
L 112.882151 -111.779107 
L 112.498399 -111.398056 
L 112.114647 -111.03899 
L 111.730895 -110.702228 
L 111.347143 -110.387921 
L 110.96339 -110.096067 
L 110.579638 -109.826531 
L 110.195886 -109.579064 
L 109.812134 -109.353318 
L 109.428382 -109.148865 
L 109.044629 -108.965215 
L 108.660877 -108.801825 
L 108.277125 -108.658119 
L 107.893373 -108.533496 
L 107.509621 -108.427342 
L 107.125869 -108.339038 
L 106.742116 -108.267968 
L 106.358364 -108.213528 
L 105.974612 -108.175127 
L 105.59086 -108.152193 
L 105.207108 -108.144176 
L 104.823356 -108.150548 
L 104.439603 -108.170806 
L 104.055851 -108.204471 
L 103.672099 -108.251087 
L 103.288347 -108.310221 
L 102.904595 -108.381459 
L 102.520842 -108.464404 
L 102.13709 -108.558674 
L 101.753338 -108.663897 
L 101.369586 -108.779709 
L 100.985834 -108.905746 
L 100.602082 -109.04164 
L 100.218329 -109.187016 
L 99.834577 -109.341483 
L 99.450825 -109.50463 
L 99.067073 -109.676018 
L 98.683321 -109.855176 
L 98.299569 -110.041593 
L 97.915816 -110.234711 
L 97.532064 -110.433921 
L 97.148312 -110.638556 
L 96.76456 -110.847887 
L 96.380808 -111.061119 
L 95.997055 -111.277387 
L 95.613303 -111.495754 
L 95.229551 -111.715212 
L 94.845799 -111.93468 
L 94.462047 -112.153008 
L 94.078295 -112.36898 
L 93.694542 -112.581321 
L 93.31079 -112.788702 
L 92.927038 -112.989751 
L 92.543286 -113.183061 
L 92.159534 -113.367208 
L 91.775782 -113.540758 
L 91.392029 -113.702286 
L 91.008277 -113.850393 
L 90.624525 -113.98372 
L 90.240773 -114.100967 
L 89.857021 -114.200911 
L 89.473268 -114.282422 
L 89.089516 -114.344484 
L 88.705764 -114.386206 
L 88.322012 -114.406839 
L 87.93826 -114.405791 
L 87.554508 -114.382638 
L 87.170755 -114.337131 
L 86.787003 -114.269204 
L 86.403251 -114.17898 
L 86.019499 -114.066769 
L 85.635747 -113.933071 
L 85.251995 -113.778568 
L 84.868242 -113.604118 
L 84.48449 -113.410746 
L 84.100738 -113.19963 
L 83.716986 -112.972088 
L 83.333234 -112.729558 
L 82.949481 -112.473584 
L 82.565729 -112.205793 
L 82.181977 -111.927873 
L 81.798225 -111.641554 
L 81.414473 -111.348587 
L 81.030721 -111.050719 
L 80.646968 -110.749675 
L 80.263216 -110.447137 
L 79.879464 -110.144727 
L 79.495712 -109.843989 
L 79.11196 -109.546375 
L 78.728208 -109.253232 
L 78.344455 -108.965793 
L 77.960703 -108.685166 
L 77.576951 -108.412333 
L 77.193199 -108.148141 
L 76.809447 -107.893306 
L 76.425694 -107.648412 
L 76.041942 -107.413915 
L 75.65819 -107.190146 
L 75.274438 -106.977319 
L 74.890686 -106.775541 
L 74.506934 -106.584815 
L 74.123181 -106.405056 
L 73.739429 -106.236097 
L 73.355677 -106.0777 
L 72.971925 -105.929568 
L 72.588173 -105.791354 
L 72.204421 -105.662671 
L 71.820668 -105.543102 
L 71.436916 -105.432209 
L 71.053164 -105.329538 
L 70.669412 -105.23463 
L 70.28566 -105.147028 
L 69.901907 -105.066275 
L 69.518155 -104.99193 
L 69.134403 -104.923561 
L 68.750651 -104.860754 
L 68.366899 -104.803115 
L 67.983147 -104.750267 
z
" style="stroke: #22a884; stroke-width: 1.25"/>
    </defs>
    <g>
     <use xlink:href="#m6f3a56eaa6" x="0" y="173.814844" style="fill: #22a884; fill-opacity: 0.7; stroke: #22a884; stroke-width: 1.25"/>
    </g>
   </g>
   <g id="line2d_3">
    <path d="M 7.2 69.57 
L 216.45 69.57 
" style="fill: none; stroke: #22a884; stroke-opacity: 0.9; stroke-linecap: round"/>
   </g>
   <g id="text_3">
    <!-- 2 -->
    <g style="fill: #22a884" transform="translate(7.2 68.522625) scale(0.12 -0.12)">
     <defs>
      <path id="Arial-BoldMT-32" d="M 3238 816 
L 3238 0 
L 159 0 
Q 209 463 459 877 
Q 709 1291 1447 1975 
Q 2041 2528 2175 2725 
Q 2356 2997 2356 3263 
Q 2356 3556 2198 3714 
Q 2041 3872 1763 3872 
Q 1488 3872 1325 3706 
Q 1163 3541 1138 3156 
L 263 3244 
Q 341 3969 753 4284 
Q 1166 4600 1784 4600 
Q 2463 4600 2850 4234 
Q 3238 3869 3238 3325 
Q 3238 3016 3127 2736 
Q 3016 2456 2775 2150 
Q 2616 1947 2200 1565 
Q 1784 1184 1673 1059 
Q 1563 934 1494 816 
L 3238 816 
z
" transform="scale(0.015625)"/>
     </defs>
     <use xlink:href="#Arial-BoldMT-32"/>
    </g>
   </g>
  </g>
  <g id="axes_4">
   <g id="patch_5">
    <path d="M 7.2 79.965 
L 216.45 79.965 
L 216.45 38.385 
L 7.2 38.385 
L 7.2 79.965 
z
" style="fill: none"/>
   </g>
   <g id="matplotlib.axis_7">
    <g id="xtick_16"/>
    <g id="xtick_17"/>
    <g id="xtick_18"/>
    <g id="xtick_19"/>
    <g id="xtick_20"/>
   </g>
   <g id="matplotlib.axis_8"/>
   <g id="PolyCollection_3">
    <defs>
     <path id="m89f3a65aad" d="M 56.607384 -93.971888 
L 56.607384 -93.849844 
L 57.225825 -93.849844 
L 57.844265 -93.849844 
L 58.462705 -93.849844 
L 59.081146 -93.849844 
L 59.699586 -93.849844 
L 60.318026 -93.849844 
L 60.936467 -93.849844 
L 61.554907 -93.849844 
L 62.173347 -93.849844 
L 62.791788 -93.849844 
L 63.410228 -93.849844 
L 64.028668 -93.849844 
L 64.647109 -93.849844 
L 65.265549 -93.849844 
L 65.883989 -93.849844 
L 66.50243 -93.849844 
L 67.12087 -93.849844 
L 67.73931 -93.849844 
L 68.357751 -93.849844 
L 68.976191 -93.849844 
L 69.594631 -93.849844 
L 70.213072 -93.849844 
L 70.831512 -93.849844 
L 71.449952 -93.849844 
L 72.068393 -93.849844 
L 72.686833 -93.849844 
L 73.305273 -93.849844 
L 73.923714 -93.849844 
L 74.542154 -93.849844 
L 75.160594 -93.849844 
L 75.779035 -93.849844 
L 76.397475 -93.849844 
L 77.015915 -93.849844 
L 77.634356 -93.849844 
L 78.252796 -93.849844 
L 78.871236 -93.849844 
L 79.489677 -93.849844 
L 80.108117 -93.849844 
L 80.726557 -93.849844 
L 81.344998 -93.849844 
L 81.963438 -93.849844 
L 82.581878 -93.849844 
L 83.200319 -93.849844 
L 83.818759 -93.849844 
L 84.437199 -93.849844 
L 85.05564 -93.849844 
L 85.67408 -93.849844 
L 86.29252 -93.849844 
L 86.910961 -93.849844 
L 87.529401 -93.849844 
L 88.147842 -93.849844 
L 88.766282 -93.849844 
L 89.384722 -93.849844 
L 90.003163 -93.849844 
L 90.621603 -93.849844 
L 91.240043 -93.849844 
L 91.858484 -93.849844 
L 92.476924 -93.849844 
L 93.095364 -93.849844 
L 93.713805 -93.849844 
L 94.332245 -93.849844 
L 94.950685 -93.849844 
L 95.569126 -93.849844 
L 96.187566 -93.849844 
L 96.806006 -93.849844 
L 97.424447 -93.849844 
L 98.042887 -93.849844 
L 98.661327 -93.849844 
L 99.279768 -93.849844 
L 99.898208 -93.849844 
L 100.516648 -93.849844 
L 101.135089 -93.849844 
L 101.753529 -93.849844 
L 102.371969 -93.849844 
L 102.99041 -93.849844 
L 103.60885 -93.849844 
L 104.22729 -93.849844 
L 104.845731 -93.849844 
L 105.464171 -93.849844 
L 106.082611 -93.849844 
L 106.701052 -93.849844 
L 107.319492 -93.849844 
L 107.937932 -93.849844 
L 108.556373 -93.849844 
L 109.174813 -93.849844 
L 109.793253 -93.849844 
L 110.411694 -93.849844 
L 111.030134 -93.849844 
L 111.648574 -93.849844 
L 112.267015 -93.849844 
L 112.885455 -93.849844 
L 113.503895 -93.849844 
L 114.122336 -93.849844 
L 114.740776 -93.849844 
L 115.359216 -93.849844 
L 115.977657 -93.849844 
L 116.596097 -93.849844 
L 117.214537 -93.849844 
L 117.832978 -93.849844 
L 118.451418 -93.849844 
L 119.069858 -93.849844 
L 119.688299 -93.849844 
L 120.306739 -93.849844 
L 120.92518 -93.849844 
L 121.54362 -93.849844 
L 122.16206 -93.849844 
L 122.780501 -93.849844 
L 123.398941 -93.849844 
L 124.017381 -93.849844 
L 124.635822 -93.849844 
L 125.254262 -93.849844 
L 125.872702 -93.849844 
L 126.491143 -93.849844 
L 127.109583 -93.849844 
L 127.728023 -93.849844 
L 128.346464 -93.849844 
L 128.964904 -93.849844 
L 129.583344 -93.849844 
L 130.201785 -93.849844 
L 130.820225 -93.849844 
L 131.438665 -93.849844 
L 132.057106 -93.849844 
L 132.675546 -93.849844 
L 133.293986 -93.849844 
L 133.912427 -93.849844 
L 134.530867 -93.849844 
L 135.149307 -93.849844 
L 135.767748 -93.849844 
L 136.386188 -93.849844 
L 137.004628 -93.849844 
L 137.623069 -93.849844 
L 138.241509 -93.849844 
L 138.859949 -93.849844 
L 139.47839 -93.849844 
L 140.09683 -93.849844 
L 140.71527 -93.849844 
L 141.333711 -93.849844 
L 141.952151 -93.849844 
L 142.570591 -93.849844 
L 143.189032 -93.849844 
L 143.807472 -93.849844 
L 144.425912 -93.849844 
L 145.044353 -93.849844 
L 145.662793 -93.849844 
L 146.281233 -93.849844 
L 146.899674 -93.849844 
L 147.518114 -93.849844 
L 148.136554 -93.849844 
L 148.754995 -93.849844 
L 149.373435 -93.849844 
L 149.991875 -93.849844 
L 150.610316 -93.849844 
L 151.228756 -93.849844 
L 151.847196 -93.849844 
L 152.465637 -93.849844 
L 153.084077 -93.849844 
L 153.702517 -93.849844 
L 154.320958 -93.849844 
L 154.939398 -93.849844 
L 155.557839 -93.849844 
L 156.176279 -93.849844 
L 156.794719 -93.849844 
L 157.41316 -93.849844 
L 158.0316 -93.849844 
L 158.65004 -93.849844 
L 159.268481 -93.849844 
L 159.886921 -93.849844 
L 160.505361 -93.849844 
L 161.123802 -93.849844 
L 161.742242 -93.849844 
L 162.360682 -93.849844 
L 162.979123 -93.849844 
L 163.597563 -93.849844 
L 164.216003 -93.849844 
L 164.834444 -93.849844 
L 165.452884 -93.849844 
L 166.071324 -93.849844 
L 166.689765 -93.849844 
L 167.308205 -93.849844 
L 167.926645 -93.849844 
L 168.545086 -93.849844 
L 169.163526 -93.849844 
L 169.781966 -93.849844 
L 170.400407 -93.849844 
L 171.018847 -93.849844 
L 171.637287 -93.849844 
L 172.255728 -93.849844 
L 172.874168 -93.849844 
L 173.492608 -93.849844 
L 174.111049 -93.849844 
L 174.729489 -93.849844 
L 175.347929 -93.849844 
L 175.96637 -93.849844 
L 176.58481 -93.849844 
L 177.20325 -93.849844 
L 177.821691 -93.849844 
L 178.440131 -93.849844 
L 179.058571 -93.849844 
L 179.677012 -93.849844 
L 179.677012 -94.157913 
L 179.677012 -94.157913 
L 179.058571 -94.197901 
L 178.440131 -94.24187 
L 177.821691 -94.290054 
L 177.20325 -94.342678 
L 176.58481 -94.399961 
L 175.96637 -94.462105 
L 175.347929 -94.529296 
L 174.729489 -94.601701 
L 174.111049 -94.679462 
L 173.492608 -94.762692 
L 172.874168 -94.851475 
L 172.255728 -94.94586 
L 171.637287 -95.045863 
L 171.018847 -95.151461 
L 170.400407 -95.262593 
L 169.781966 -95.379162 
L 169.163526 -95.501034 
L 168.545086 -95.628044 
L 167.926645 -95.759996 
L 167.308205 -95.896671 
L 166.689765 -96.037835 
L 166.071324 -96.183243 
L 165.452884 -96.332654 
L 164.834444 -96.485837 
L 164.216003 -96.642584 
L 163.597563 -96.802722 
L 162.979123 -96.966126 
L 162.360682 -97.132727 
L 161.742242 -97.302532 
L 161.123802 -97.475626 
L 160.505361 -97.652185 
L 159.886921 -97.832483 
L 159.268481 -98.016897 
L 158.65004 -98.205906 
L 158.0316 -98.400093 
L 157.41316 -98.600136 
L 156.794719 -98.806799 
L 156.176279 -99.020919 
L 155.557839 -99.243385 
L 154.939398 -99.475117 
L 154.320958 -99.717035 
L 153.702517 -99.970028 
L 153.084077 -100.234919 
L 152.465637 -100.512427 
L 151.847196 -100.803123 
L 151.228756 -101.10739 
L 150.610316 -101.425382 
L 149.991875 -101.75698 
L 149.373435 -102.101757 
L 148.754995 -102.458941 
L 148.136554 -102.82739 
L 147.518114 -103.20557 
L 146.899674 -103.591541 
L 146.281233 -103.982953 
L 145.662793 -104.377059 
L 145.044353 -104.77073 
L 144.425912 -105.160489 
L 143.807472 -105.542553 
L 143.189032 -105.912888 
L 142.570591 -106.267276 
L 141.952151 -106.601392 
L 141.333711 -106.910886 
L 140.71527 -107.191471 
L 140.09683 -107.439022 
L 139.47839 -107.649665 
L 138.859949 -107.819874 
L 138.241509 -107.946555 
L 137.623069 -108.027131 
L 137.004628 -108.05961 
L 136.386188 -108.042642 
L 135.767748 -107.975566 
L 135.149307 -107.858434 
L 134.530867 -107.692021 
L 133.912427 -107.477815 
L 133.293986 -107.217997 
L 132.675546 -106.91539 
L 132.057106 -106.573408 
L 131.438665 -106.195977 
L 130.820225 -105.787455 
L 130.201785 -105.352538 
L 129.583344 -104.896165 
L 128.964904 -104.42341 
L 128.346464 -103.939389 
L 127.728023 -103.449159 
L 127.109583 -102.957629 
L 126.491143 -102.469474 
L 125.872702 -101.989071 
L 125.254262 -101.520431 
L 124.635822 -101.067162 
L 124.017381 -100.632429 
L 123.398941 -100.218939 
L 122.780501 -99.828936 
L 122.16206 -99.464209 
L 121.54362 -99.126103 
L 120.92518 -98.815555 
L 120.306739 -98.533123 
L 119.688299 -98.279027 
L 119.069858 -98.05319 
L 118.451418 -97.855288 
L 117.832978 -97.684792 
L 117.214537 -97.541009 
L 116.596097 -97.423125 
L 115.977657 -97.330237 
L 115.359216 -97.261388 
L 114.740776 -97.215585 
L 114.122336 -97.191824 
L 113.503895 -97.189099 
L 112.885455 -97.206411 
L 112.267015 -97.242771 
L 111.648574 -97.297194 
L 111.030134 -97.368698 
L 110.411694 -97.456294 
L 109.793253 -97.558975 
L 109.174813 -97.675703 
L 108.556373 -97.805403 
L 107.937932 -97.946947 
L 107.319492 -98.099144 
L 106.701052 -98.260736 
L 106.082611 -98.430391 
L 105.464171 -98.606694 
L 104.845731 -98.788154 
L 104.22729 -98.973202 
L 103.60885 -99.160195 
L 102.99041 -99.347426 
L 102.371969 -99.53313 
L 101.753529 -99.715498 
L 101.135089 -99.892692 
L 100.516648 -100.062862 
L 99.898208 -100.224158 
L 99.279768 -100.374756 
L 98.661327 -100.512877 
L 98.042887 -100.636806 
L 97.424447 -100.744914 
L 96.806006 -100.835687 
L 96.187566 -100.90774 
L 95.569126 -100.959846 
L 94.950685 -100.990952 
L 94.332245 -101.000206 
L 93.713805 -100.986967 
L 93.095364 -100.950829 
L 92.476924 -100.891626 
L 91.858484 -100.809449 
L 91.240043 -100.704646 
L 90.621603 -100.577826 
L 90.003163 -100.429853 
L 89.384722 -100.261839 
L 88.766282 -100.07513 
L 88.147842 -99.871288 
L 87.529401 -99.652067 
L 86.910961 -99.419386 
L 86.29252 -99.175299 
L 85.67408 -98.921959 
L 85.05564 -98.661584 
L 84.437199 -98.396421 
L 83.818759 -98.128705 
L 83.200319 -97.860626 
L 82.581878 -97.594295 
L 81.963438 -97.331707 
L 81.344998 -97.074719 
L 80.726557 -96.825018 
L 80.108117 -96.584108 
L 79.489677 -96.353289 
L 78.871236 -96.133651 
L 78.252796 -95.926064 
L 77.634356 -95.731184 
L 77.015915 -95.549449 
L 76.397475 -95.381098 
L 75.779035 -95.226171 
L 75.160594 -95.084534 
L 74.542154 -94.955894 
L 73.923714 -94.839814 
L 73.305273 -94.735741 
L 72.686833 -94.643021 
L 72.068393 -94.560924 
L 71.449952 -94.488664 
L 70.831512 -94.425419 
L 70.213072 -94.370348 
L 69.594631 -94.322608 
L 68.976191 -94.281373 
L 68.357751 -94.245841 
L 67.73931 -94.21525 
L 67.12087 -94.188882 
L 66.50243 -94.166077 
L 65.883989 -94.14623 
L 65.265549 -94.1288 
L 64.647109 -94.113307 
L 64.028668 -94.099337 
L 63.410228 -94.086534 
L 62.791788 -94.074603 
L 62.173347 -94.063306 
L 61.554907 -94.052453 
L 60.936467 -94.041902 
L 60.318026 -94.031553 
L 59.699586 -94.021341 
L 59.081146 -94.01123 
L 58.462705 -94.001212 
L 57.844265 -93.991297 
L 57.225825 -93.98151 
L 56.607384 -93.971888 
z
" style="stroke: #7ad151; stroke-width: 1.25"/>
    </defs>
    <g>
     <use xlink:href="#m89f3a65aad" x="0" y="173.814844" style="fill: #7ad151; fill-opacity: 0.7; stroke: #7ad151; stroke-width: 1.25"/>
    </g>
   </g>
   <g id="line2d_4">
    <path d="M 7.2 79.965 
L 216.45 79.965 
" style="fill: none; stroke: #7ad151; stroke-opacity: 0.9; stroke-linecap: round"/>
   </g>
   <g id="text_4">
    <!-- 3 -->
    <g style="fill: #7ad151" transform="translate(7.2 78.917625) scale(0.12 -0.12)">
     <defs>
      <path id="Arial-BoldMT-33" d="M 241 1216 
L 1091 1319 
Q 1131 994 1309 822 
Q 1488 650 1741 650 
Q 2013 650 2198 856 
Q 2384 1063 2384 1413 
Q 2384 1744 2206 1937 
Q 2028 2131 1772 2131 
Q 1603 2131 1369 2066 
L 1466 2781 
Q 1822 2772 2009 2936 
Q 2197 3100 2197 3372 
Q 2197 3603 2059 3740 
Q 1922 3878 1694 3878 
Q 1469 3878 1309 3722 
Q 1150 3566 1116 3266 
L 306 3403 
Q 391 3819 561 4067 
Q 731 4316 1036 4458 
Q 1341 4600 1719 4600 
Q 2366 4600 2756 4188 
Q 3078 3850 3078 3425 
Q 3078 2822 2419 2463 
Q 2813 2378 3048 2084 
Q 3284 1791 3284 1375 
Q 3284 772 2843 347 
Q 2403 -78 1747 -78 
Q 1125 -78 715 280 
Q 306 638 241 1216 
z
" transform="scale(0.015625)"/>
     </defs>
     <use xlink:href="#Arial-BoldMT-33"/>
    </g>
   </g>
  </g>
  <g id="axes_5">
   <g id="patch_6">
    <path d="M 7.2 90.36 
L 216.45 90.36 
L 216.45 48.78 
L 7.2 48.78 
L 7.2 90.36 
z
" style="fill: none"/>
   </g>
   <g id="matplotlib.axis_9">
    <g id="xtick_21"/>
    <g id="xtick_22"/>
    <g id="xtick_23"/>
    <g id="xtick_24"/>
    <g id="xtick_25"/>
   </g>
   <g id="matplotlib.axis_10"/>
   <g id="PolyCollection_4">
    <defs>
     <path id="m3a1f13ae21" d="M 55.118836 -83.563 
L 55.118836 -83.454844 
L 55.88175 -83.454844 
L 56.644663 -83.454844 
L 57.407577 -83.454844 
L 58.17049 -83.454844 
L 58.933404 -83.454844 
L 59.696318 -83.454844 
L 60.459231 -83.454844 
L 61.222145 -83.454844 
L 61.985058 -83.454844 
L 62.747972 -83.454844 
L 63.510885 -83.454844 
L 64.273799 -83.454844 
L 65.036713 -83.454844 
L 65.799626 -83.454844 
L 66.56254 -83.454844 
L 67.325453 -83.454844 
L 68.088367 -83.454844 
L 68.85128 -83.454844 
L 69.614194 -83.454844 
L 70.377108 -83.454844 
L 71.140021 -83.454844 
L 71.902935 -83.454844 
L 72.665848 -83.454844 
L 73.428762 -83.454844 
L 74.191675 -83.454844 
L 74.954589 -83.454844 
L 75.717503 -83.454844 
L 76.480416 -83.454844 
L 77.24333 -83.454844 
L 78.006243 -83.454844 
L 78.769157 -83.454844 
L 79.53207 -83.454844 
L 80.294984 -83.454844 
L 81.057898 -83.454844 
L 81.820811 -83.454844 
L 82.583725 -83.454844 
L 83.346638 -83.454844 
L 84.109552 -83.454844 
L 84.872465 -83.454844 
L 85.635379 -83.454844 
L 86.398292 -83.454844 
L 87.161206 -83.454844 
L 87.92412 -83.454844 
L 88.687033 -83.454844 
L 89.449947 -83.454844 
L 90.21286 -83.454844 
L 90.975774 -83.454844 
L 91.738687 -83.454844 
L 92.501601 -83.454844 
L 93.264515 -83.454844 
L 94.027428 -83.454844 
L 94.790342 -83.454844 
L 95.553255 -83.454844 
L 96.316169 -83.454844 
L 97.079082 -83.454844 
L 97.841996 -83.454844 
L 98.60491 -83.454844 
L 99.367823 -83.454844 
L 100.130737 -83.454844 
L 100.89365 -83.454844 
L 101.656564 -83.454844 
L 102.419477 -83.454844 
L 103.182391 -83.454844 
L 103.945305 -83.454844 
L 104.708218 -83.454844 
L 105.471132 -83.454844 
L 106.234045 -83.454844 
L 106.996959 -83.454844 
L 107.759872 -83.454844 
L 108.522786 -83.454844 
L 109.2857 -83.454844 
L 110.048613 -83.454844 
L 110.811527 -83.454844 
L 111.57444 -83.454844 
L 112.337354 -83.454844 
L 113.100267 -83.454844 
L 113.863181 -83.454844 
L 114.626095 -83.454844 
L 115.389008 -83.454844 
L 116.151922 -83.454844 
L 116.914835 -83.454844 
L 117.677749 -83.454844 
L 118.440662 -83.454844 
L 119.203576 -83.454844 
L 119.96649 -83.454844 
L 120.729403 -83.454844 
L 121.492317 -83.454844 
L 122.25523 -83.454844 
L 123.018144 -83.454844 
L 123.781057 -83.454844 
L 124.543971 -83.454844 
L 125.306884 -83.454844 
L 126.069798 -83.454844 
L 126.832712 -83.454844 
L 127.595625 -83.454844 
L 128.358539 -83.454844 
L 129.121452 -83.454844 
L 129.884366 -83.454844 
L 130.647279 -83.454844 
L 131.410193 -83.454844 
L 132.173107 -83.454844 
L 132.93602 -83.454844 
L 133.698934 -83.454844 
L 134.461847 -83.454844 
L 135.224761 -83.454844 
L 135.987674 -83.454844 
L 136.750588 -83.454844 
L 137.513502 -83.454844 
L 138.276415 -83.454844 
L 139.039329 -83.454844 
L 139.802242 -83.454844 
L 140.565156 -83.454844 
L 141.328069 -83.454844 
L 142.090983 -83.454844 
L 142.853897 -83.454844 
L 143.61681 -83.454844 
L 144.379724 -83.454844 
L 145.142637 -83.454844 
L 145.905551 -83.454844 
L 146.668464 -83.454844 
L 147.431378 -83.454844 
L 148.194292 -83.454844 
L 148.957205 -83.454844 
L 149.720119 -83.454844 
L 150.483032 -83.454844 
L 151.245946 -83.454844 
L 152.008859 -83.454844 
L 152.771773 -83.454844 
L 153.534687 -83.454844 
L 154.2976 -83.454844 
L 155.060514 -83.454844 
L 155.823427 -83.454844 
L 156.586341 -83.454844 
L 157.349254 -83.454844 
L 158.112168 -83.454844 
L 158.875082 -83.454844 
L 159.637995 -83.454844 
L 160.400909 -83.454844 
L 161.163822 -83.454844 
L 161.926736 -83.454844 
L 162.689649 -83.454844 
L 163.452563 -83.454844 
L 164.215477 -83.454844 
L 164.97839 -83.454844 
L 165.741304 -83.454844 
L 166.504217 -83.454844 
L 167.267131 -83.454844 
L 168.030044 -83.454844 
L 168.792958 -83.454844 
L 169.555871 -83.454844 
L 170.318785 -83.454844 
L 171.081699 -83.454844 
L 171.844612 -83.454844 
L 172.607526 -83.454844 
L 173.370439 -83.454844 
L 174.133353 -83.454844 
L 174.896266 -83.454844 
L 175.65918 -83.454844 
L 176.422094 -83.454844 
L 177.185007 -83.454844 
L 177.947921 -83.454844 
L 178.710834 -83.454844 
L 179.473748 -83.454844 
L 180.236661 -83.454844 
L 180.999575 -83.454844 
L 181.762489 -83.454844 
L 182.525402 -83.454844 
L 183.288316 -83.454844 
L 184.051229 -83.454844 
L 184.814143 -83.454844 
L 185.577056 -83.454844 
L 186.33997 -83.454844 
L 187.102884 -83.454844 
L 187.865797 -83.454844 
L 188.628711 -83.454844 
L 189.391624 -83.454844 
L 190.154538 -83.454844 
L 190.917451 -83.454844 
L 191.680365 -83.454844 
L 192.443279 -83.454844 
L 193.206192 -83.454844 
L 193.969106 -83.454844 
L 194.732019 -83.454844 
L 195.494933 -83.454844 
L 196.257846 -83.454844 
L 197.02076 -83.454844 
L 197.783674 -83.454844 
L 198.546587 -83.454844 
L 199.309501 -83.454844 
L 200.072414 -83.454844 
L 200.835328 -83.454844 
L 201.598241 -83.454844 
L 202.361155 -83.454844 
L 203.124069 -83.454844 
L 203.886982 -83.454844 
L 204.649896 -83.454844 
L 205.412809 -83.454844 
L 206.175723 -83.454844 
L 206.938636 -83.454844 
L 206.938636 -83.607447 
L 206.938636 -83.607447 
L 206.175723 -83.62658 
L 205.412809 -83.647588 
L 204.649896 -83.670626 
L 203.886982 -83.695859 
L 203.124069 -83.723465 
L 202.361155 -83.753635 
L 201.598241 -83.786564 
L 200.835328 -83.822455 
L 200.072414 -83.861508 
L 199.309501 -83.903919 
L 198.546587 -83.949869 
L 197.783674 -83.99952 
L 197.02076 -84.053002 
L 196.257846 -84.110407 
L 195.494933 -84.171782 
L 194.732019 -84.237116 
L 193.969106 -84.306336 
L 193.206192 -84.379303 
L 192.443279 -84.455802 
L 191.680365 -84.53555 
L 190.917451 -84.61819 
L 190.154538 -84.703301 
L 189.391624 -84.790402 
L 188.628711 -84.878966 
L 187.865797 -84.968436 
L 187.102884 -85.058235 
L 186.33997 -85.147788 
L 185.577056 -85.236546 
L 184.814143 -85.323996 
L 184.051229 -85.40969 
L 183.288316 -85.493255 
L 182.525402 -85.574412 
L 181.762489 -85.652988 
L 180.999575 -85.728921 
L 180.236661 -85.802265 
L 179.473748 -85.873189 
L 178.710834 -85.941964 
L 177.947921 -86.008959 
L 177.185007 -86.074619 
L 176.422094 -86.139446 
L 175.65918 -86.203976 
L 174.896266 -86.268758 
L 174.133353 -86.334322 
L 173.370439 -86.401163 
L 172.607526 -86.469715 
L 171.844612 -86.540332 
L 171.081699 -86.61328 
L 170.318785 -86.688724 
L 169.555871 -86.766731 
L 168.792958 -86.84727 
L 168.030044 -86.930229 
L 167.267131 -87.015425 
L 166.504217 -87.102636 
L 165.741304 -87.191616 
L 164.97839 -87.282136 
L 164.215477 -87.374006 
L 163.452563 -87.467112 
L 162.689649 -87.561442 
L 161.926736 -87.657114 
L 161.163822 -87.754399 
L 160.400909 -87.853733 
L 159.637995 -87.955732 
L 158.875082 -88.061191 
L 158.112168 -88.171074 
L 157.349254 -88.286508 
L 156.586341 -88.40875 
L 155.823427 -88.539163 
L 155.060514 -88.679174 
L 154.2976 -88.830227 
L 153.534687 -88.993736 
L 152.771773 -89.171022 
L 152.008859 -89.363258 
L 151.245946 -89.571406 
L 150.483032 -89.796155 
L 149.720119 -90.03786 
L 148.957205 -90.296489 
L 148.194292 -90.571568 
L 147.431378 -90.862145 
L 146.668464 -91.166753 
L 145.905551 -91.483394 
L 145.142637 -91.809534 
L 144.379724 -92.142114 
L 143.61681 -92.477578 
L 142.853897 -92.811922 
L 142.090983 -93.140759 
L 141.328069 -93.459399 
L 140.565156 -93.762953 
L 139.802242 -94.046441 
L 139.039329 -94.30492 
L 138.276415 -94.533614 
L 137.513502 -94.728046 
L 136.750588 -94.884176 
L 135.987674 -94.998523 
L 135.224761 -95.068283 
L 134.461847 -95.091423 
L 133.698934 -95.066762 
L 132.93602 -94.994022 
L 132.173107 -94.873857 
L 131.410193 -94.707847 
L 130.647279 -94.49847 
L 129.884366 -94.249045 
L 129.121452 -93.963641 
L 128.358539 -93.646977 
L 127.595625 -93.304292 
L 126.832712 -92.941206 
L 126.069798 -92.563573 
L 125.306884 -92.17733 
L 124.543971 -91.78835 
L 123.781057 -91.402303 
L 123.018144 -91.024529 
L 122.25523 -90.659926 
L 121.492317 -90.312864 
L 120.729403 -89.987113 
L 119.96649 -89.6858 
L 119.203576 -89.411383 
L 118.440662 -89.165649 
L 117.677749 -88.949736 
L 116.914835 -88.764157 
L 116.151922 -88.60886 
L 115.389008 -88.483275 
L 114.626095 -88.386382 
L 113.863181 -88.316782 
L 113.100267 -88.272758 
L 112.337354 -88.252342 
L 111.57444 -88.253376 
L 110.811527 -88.27356 
L 110.048613 -88.310503 
L 109.2857 -88.361753 
L 108.522786 -88.42483 
L 107.759872 -88.497247 
L 106.996959 -88.576524 
L 106.234045 -88.660201 
L 105.471132 -88.745846 
L 104.708218 -88.831061 
L 103.945305 -88.913492 
L 103.182391 -88.990839 
L 102.419477 -89.060868 
L 101.656564 -89.121428 
L 100.89365 -89.170475 
L 100.130737 -89.206094 
L 99.367823 -89.226532 
L 98.60491 -89.230227 
L 97.841996 -89.215841 
L 97.079082 -89.182294 
L 96.316169 -89.128795 
L 95.553255 -89.054863 
L 94.790342 -88.960354 
L 94.027428 -88.845471 
L 93.264515 -88.710767 
L 92.501601 -88.557145 
L 91.738687 -88.385839 
L 90.975774 -88.198396 
L 90.21286 -87.996636 
L 89.449947 -87.782614 
L 88.687033 -87.558575 
L 87.92412 -87.326896 
L 87.161206 -87.090035 
L 86.398292 -86.850467 
L 85.635379 -86.610636 
L 84.872465 -86.372895 
L 84.109552 -86.139459 
L 83.346638 -85.912363 
L 82.583725 -85.693426 
L 81.820811 -85.484223 
L 81.057898 -85.286067 
L 80.294984 -85.099997 
L 79.53207 -84.926775 
L 78.769157 -84.766894 
L 78.006243 -84.620588 
L 77.24333 -84.48785 
L 76.480416 -84.368456 
L 75.717503 -84.26199 
L 74.954589 -84.167873 
L 74.191675 -84.085393 
L 73.428762 -84.013732 
L 72.665848 -83.952001 
L 71.902935 -83.899261 
L 71.140021 -83.854553 
L 70.377108 -83.816919 
L 69.614194 -83.785424 
L 68.85128 -83.759169 
L 68.088367 -83.73731 
L 67.325453 -83.719065 
L 66.56254 -83.703723 
L 65.799626 -83.690652 
L 65.036713 -83.679295 
L 64.273799 -83.669178 
L 63.510885 -83.659903 
L 62.747972 -83.651149 
L 61.985058 -83.642661 
L 61.222145 -83.634253 
L 60.459231 -83.625794 
L 59.696318 -83.617204 
L 58.933404 -83.608447 
L 58.17049 -83.599523 
L 57.407577 -83.590459 
L 56.644663 -83.581306 
L 55.88175 -83.572129 
L 55.118836 -83.563 
z
" style="stroke: #bddf26; stroke-width: 1.25"/>
    </defs>
    <g>
     <use xlink:href="#m3a1f13ae21" x="0" y="173.814844" style="fill: #bddf26; fill-opacity: 0.7; stroke: #bddf26; stroke-width: 1.25"/>
    </g>
   </g>
   <g id="line2d_5">
    <path d="M 7.2 90.36 
L 216.45 90.36 
" style="fill: none; stroke: #bddf26; stroke-opacity: 0.9; stroke-linecap: round"/>
   </g>
   <g id="text_5">
    <!-- 4 -->
    <g style="fill: #bddf26" transform="translate(7.2 89.312625) scale(0.12 -0.12)">
     <defs>
      <path id="Arial-BoldMT-34" d="M 1994 0 
L 1994 922 
L 119 922 
L 119 1691 
L 2106 4600 
L 2844 4600 
L 2844 1694 
L 3413 1694 
L 3413 922 
L 2844 922 
L 2844 0 
L 1994 0 
z
M 1994 1694 
L 1994 3259 
L 941 1694 
L 1994 1694 
z
" transform="scale(0.015625)"/>
     </defs>
     <use xlink:href="#Arial-BoldMT-34"/>
    </g>
   </g>
  </g>
  <g id="axes_6">
   <g id="patch_7">
    <path d="M 7.2 100.755 
L 216.45 100.755 
L 216.45 59.175 
L 7.2 59.175 
L 7.2 100.755 
z
" style="fill: none"/>
   </g>
   <g id="matplotlib.axis_11">
    <g id="xtick_26"/>
    <g id="xtick_27"/>
    <g id="xtick_28"/>
    <g id="xtick_29"/>
    <g id="xtick_30"/>
   </g>
   <g id="matplotlib.axis_12"/>
   <g id="PolyCollection_5">
    <defs>
     <path id="mc53339c421" d="M 58.142144 -73.188093 
L 58.142144 -73.059844 
L 58.75495 -73.059844 
L 59.367756 -73.059844 
L 59.980562 -73.059844 
L 60.593369 -73.059844 
L 61.206175 -73.059844 
L 61.818981 -73.059844 
L 62.431787 -73.059844 
L 63.044593 -73.059844 
L 63.657399 -73.059844 
L 64.270205 -73.059844 
L 64.883011 -73.059844 
L 65.495817 -73.059844 
L 66.108623 -73.059844 
L 66.721429 -73.059844 
L 67.334235 -73.059844 
L 67.947041 -73.059844 
L 68.559847 -73.059844 
L 69.172653 -73.059844 
L 69.785459 -73.059844 
L 70.398265 -73.059844 
L 71.011071 -73.059844 
L 71.623877 -73.059844 
L 72.236683 -73.059844 
L 72.84949 -73.059844 
L 73.462296 -73.059844 
L 74.075102 -73.059844 
L 74.687908 -73.059844 
L 75.300714 -73.059844 
L 75.91352 -73.059844 
L 76.526326 -73.059844 
L 77.139132 -73.059844 
L 77.751938 -73.059844 
L 78.364744 -73.059844 
L 78.97755 -73.059844 
L 79.590356 -73.059844 
L 80.203162 -73.059844 
L 80.815968 -73.059844 
L 81.428774 -73.059844 
L 82.04158 -73.059844 
L 82.654386 -73.059844 
L 83.267192 -73.059844 
L 83.879998 -73.059844 
L 84.492804 -73.059844 
L 85.10561 -73.059844 
L 85.718417 -73.059844 
L 86.331223 -73.059844 
L 86.944029 -73.059844 
L 87.556835 -73.059844 
L 88.169641 -73.059844 
L 88.782447 -73.059844 
L 89.395253 -73.059844 
L 90.008059 -73.059844 
L 90.620865 -73.059844 
L 91.233671 -73.059844 
L 91.846477 -73.059844 
L 92.459283 -73.059844 
L 93.072089 -73.059844 
L 93.684895 -73.059844 
L 94.297701 -73.059844 
L 94.910507 -73.059844 
L 95.523313 -73.059844 
L 96.136119 -73.059844 
L 96.748925 -73.059844 
L 97.361731 -73.059844 
L 97.974538 -73.059844 
L 98.587344 -73.059844 
L 99.20015 -73.059844 
L 99.812956 -73.059844 
L 100.425762 -73.059844 
L 101.038568 -73.059844 
L 101.651374 -73.059844 
L 102.26418 -73.059844 
L 102.876986 -73.059844 
L 103.489792 -73.059844 
L 104.102598 -73.059844 
L 104.715404 -73.059844 
L 105.32821 -73.059844 
L 105.941016 -73.059844 
L 106.553822 -73.059844 
L 107.166628 -73.059844 
L 107.779434 -73.059844 
L 108.39224 -73.059844 
L 109.005046 -73.059844 
L 109.617852 -73.059844 
L 110.230658 -73.059844 
L 110.843465 -73.059844 
L 111.456271 -73.059844 
L 112.069077 -73.059844 
L 112.681883 -73.059844 
L 113.294689 -73.059844 
L 113.907495 -73.059844 
L 114.520301 -73.059844 
L 115.133107 -73.059844 
L 115.745913 -73.059844 
L 116.358719 -73.059844 
L 116.971525 -73.059844 
L 117.584331 -73.059844 
L 118.197137 -73.059844 
L 118.809943 -73.059844 
L 119.422749 -73.059844 
L 120.035555 -73.059844 
L 120.648361 -73.059844 
L 121.261167 -73.059844 
L 121.873973 -73.059844 
L 122.486779 -73.059844 
L 123.099585 -73.059844 
L 123.712392 -73.059844 
L 124.325198 -73.059844 
L 124.938004 -73.059844 
L 125.55081 -73.059844 
L 126.163616 -73.059844 
L 126.776422 -73.059844 
L 127.389228 -73.059844 
L 128.002034 -73.059844 
L 128.61484 -73.059844 
L 129.227646 -73.059844 
L 129.840452 -73.059844 
L 130.453258 -73.059844 
L 131.066064 -73.059844 
L 131.67887 -73.059844 
L 132.291676 -73.059844 
L 132.904482 -73.059844 
L 133.517288 -73.059844 
L 134.130094 -73.059844 
L 134.7429 -73.059844 
L 135.355706 -73.059844 
L 135.968513 -73.059844 
L 136.581319 -73.059844 
L 137.194125 -73.059844 
L 137.806931 -73.059844 
L 138.419737 -73.059844 
L 139.032543 -73.059844 
L 139.645349 -73.059844 
L 140.258155 -73.059844 
L 140.870961 -73.059844 
L 141.483767 -73.059844 
L 142.096573 -73.059844 
L 142.709379 -73.059844 
L 143.322185 -73.059844 
L 143.934991 -73.059844 
L 144.547797 -73.059844 
L 145.160603 -73.059844 
L 145.773409 -73.059844 
L 146.386215 -73.059844 
L 146.999021 -73.059844 
L 147.611827 -73.059844 
L 148.224633 -73.059844 
L 148.83744 -73.059844 
L 149.450246 -73.059844 
L 150.063052 -73.059844 
L 150.675858 -73.059844 
L 151.288664 -73.059844 
L 151.90147 -73.059844 
L 152.514276 -73.059844 
L 153.127082 -73.059844 
L 153.739888 -73.059844 
L 154.352694 -73.059844 
L 154.9655 -73.059844 
L 155.578306 -73.059844 
L 156.191112 -73.059844 
L 156.803918 -73.059844 
L 157.416724 -73.059844 
L 158.02953 -73.059844 
L 158.642336 -73.059844 
L 159.255142 -73.059844 
L 159.867948 -73.059844 
L 160.480754 -73.059844 
L 161.093561 -73.059844 
L 161.706367 -73.059844 
L 162.319173 -73.059844 
L 162.931979 -73.059844 
L 163.544785 -73.059844 
L 164.157591 -73.059844 
L 164.770397 -73.059844 
L 165.383203 -73.059844 
L 165.996009 -73.059844 
L 166.608815 -73.059844 
L 167.221621 -73.059844 
L 167.834427 -73.059844 
L 168.447233 -73.059844 
L 169.060039 -73.059844 
L 169.672845 -73.059844 
L 170.285651 -73.059844 
L 170.898457 -73.059844 
L 171.511263 -73.059844 
L 172.124069 -73.059844 
L 172.736875 -73.059844 
L 173.349681 -73.059844 
L 173.962488 -73.059844 
L 174.575294 -73.059844 
L 175.1881 -73.059844 
L 175.800906 -73.059844 
L 176.413712 -73.059844 
L 177.026518 -73.059844 
L 177.639324 -73.059844 
L 178.25213 -73.059844 
L 178.864936 -73.059844 
L 179.477742 -73.059844 
L 180.090548 -73.059844 
L 180.090548 -73.326912 
L 180.090548 -73.326912 
L 179.477742 -73.360841 
L 178.864936 -73.398206 
L 178.25213 -73.439251 
L 177.639324 -73.48423 
L 177.026518 -73.533398 
L 176.413712 -73.587016 
L 175.800906 -73.645341 
L 175.1881 -73.708627 
L 174.575294 -73.777122 
L 173.962488 -73.851062 
L 173.349681 -73.930666 
L 172.736875 -74.016136 
L 172.124069 -74.107644 
L 171.511263 -74.205337 
L 170.898457 -74.309325 
L 170.285651 -74.419681 
L 169.672845 -74.536437 
L 169.060039 -74.659579 
L 168.447233 -74.78905 
L 167.834427 -74.924747 
L 167.221621 -75.06652 
L 166.608815 -75.214183 
L 165.996009 -75.367511 
L 165.383203 -75.52625 
L 164.770397 -75.690125 
L 164.157591 -75.858852 
L 163.544785 -76.032147 
L 162.931979 -76.20974 
L 162.319173 -76.39139 
L 161.706367 -76.576896 
L 161.093561 -76.766117 
L 160.480754 -76.958978 
L 159.867948 -77.155487 
L 159.255142 -77.355747 
L 158.642336 -77.559956 
L 158.02953 -77.768421 
L 157.416724 -77.98155 
L 156.803918 -78.199853 
L 156.191112 -78.423934 
L 155.578306 -78.654474 
L 154.9655 -78.892214 
L 154.352694 -79.137932 
L 153.739888 -79.392411 
L 153.127082 -79.65641 
L 152.514276 -79.930622 
L 151.90147 -80.215638 
L 151.288664 -80.5119 
L 150.675858 -80.819661 
L 150.063052 -81.138942 
L 149.450246 -81.469488 
L 148.83744 -81.810736 
L 148.224633 -82.161775 
L 147.611827 -82.521331 
L 146.999021 -82.887739 
L 146.386215 -83.258942 
L 145.773409 -83.632491 
L 145.160603 -84.00556 
L 144.547797 -84.374971 
L 143.934991 -84.737233 
L 143.322185 -85.088595 
L 142.709379 -85.425099 
L 142.096573 -85.742663 
L 141.483767 -86.03715 
L 140.870961 -86.304461 
L 140.258155 -86.540624 
L 139.645349 -86.741886 
L 139.032543 -86.904804 
L 138.419737 -87.026334 
L 137.806931 -87.103911 
L 137.194125 -87.135519 
L 136.581319 -87.119752 
L 135.968513 -87.055861 
L 135.355706 -86.943778 
L 134.7429 -86.784136 
L 134.130094 -86.57826 
L 133.517288 -86.328145 
L 132.904482 -86.036422 
L 132.291676 -85.706297 
L 131.67887 -85.341488 
L 131.066064 -84.946144 
L 130.453258 -84.524756 
L 129.840452 -84.082063 
L 129.227646 -83.622956 
L 128.61484 -83.152376 
L 128.002034 -82.675225 
L 127.389228 -82.196271 
L 126.776422 -81.720075 
L 126.163616 -81.25091 
L 125.55081 -80.792711 
L 124.938004 -80.349023 
L 124.325198 -79.922969 
L 123.712392 -79.517229 
L 123.099585 -79.134032 
L 122.486779 -78.775165 
L 121.873973 -78.441978 
L 121.261167 -78.135419 
L 120.648361 -77.856055 
L 120.035555 -77.604119 
L 119.422749 -77.37954 
L 118.809943 -77.181996 
L 118.197137 -77.010947 
L 117.584331 -76.865684 
L 116.971525 -76.745367 
L 116.358719 -76.649054 
L 115.745913 -76.575744 
L 115.133107 -76.524392 
L 114.520301 -76.49394 
L 113.907495 -76.483327 
L 113.294689 -76.491505 
L 112.681883 -76.517443 
L 112.069077 -76.560132 
L 111.456271 -76.618586 
L 110.843465 -76.691835 
L 110.230658 -76.778921 
L 109.617852 -76.878891 
L 109.005046 -76.990788 
L 108.39224 -77.11364 
L 107.779434 -77.246456 
L 107.166628 -77.38821 
L 106.553822 -77.537838 
L 105.941016 -77.694227 
L 105.32821 -77.856215 
L 104.715404 -78.022576 
L 104.102598 -78.192028 
L 103.489792 -78.363224 
L 102.876986 -78.534757 
L 102.26418 -78.705162 
L 101.651374 -78.872918 
L 101.038568 -79.036461 
L 100.425762 -79.194189 
L 99.812956 -79.344474 
L 99.20015 -79.48568 
L 98.587344 -79.616179 
L 97.974538 -79.734365 
L 97.361731 -79.838684 
L 96.748925 -79.927647 
L 96.136119 -79.999861 
L 95.523313 -80.054051 
L 94.910507 -80.089084 
L 94.297701 -80.103993 
L 93.684895 -80.098002 
L 93.072089 -80.070544 
L 92.459283 -80.021283 
L 91.846477 -79.950123 
L 91.233671 -79.85722 
L 90.620865 -79.742992 
L 90.008059 -79.608112 
L 89.395253 -79.453507 
L 88.782447 -79.280346 
L 88.169641 -79.090026 
L 87.556835 -78.884144 
L 86.944029 -78.664479 
L 86.331223 -78.432957 
L 85.718417 -78.191617 
L 85.10561 -77.942577 
L 84.492804 -77.687997 
L 83.879998 -77.430041 
L 83.267192 -77.170837 
L 82.654386 -76.912446 
L 82.04158 -76.656829 
L 81.428774 -76.405815 
L 80.815968 -76.161076 
L 80.203162 -75.924111 
L 79.590356 -75.696223 
L 78.97755 -75.478515 
L 78.364744 -75.271879 
L 77.751938 -75.076999 
L 77.139132 -74.894352 
L 76.526326 -74.724219 
L 75.91352 -74.566691 
L 75.300714 -74.421693 
L 74.687908 -74.288989 
L 74.075102 -74.168212 
L 73.462296 -74.058878 
L 72.84949 -73.960404 
L 72.236683 -73.872138 
L 71.623877 -73.793369 
L 71.011071 -73.72335 
L 70.398265 -73.661318 
L 69.785459 -73.606506 
L 69.172653 -73.558158 
L 68.559847 -73.515545 
L 67.947041 -73.477969 
L 67.334235 -73.444777 
L 66.721429 -73.415364 
L 66.108623 -73.389178 
L 65.495817 -73.365722 
L 64.883011 -73.344559 
L 64.270205 -73.325304 
L 63.657399 -73.30763 
L 63.044593 -73.291259 
L 62.431787 -73.275966 
L 61.818981 -73.261566 
L 61.206175 -73.247916 
L 60.593369 -73.234909 
L 59.980562 -73.222465 
L 59.367756 -73.210533 
L 58.75495 -73.199081 
L 58.142144 -73.188093 
z
" style="stroke: #44bf70; stroke-width: 1.25"/>
    </defs>
    <g>
     <use xlink:href="#mc53339c421" x="0" y="173.814844" style="fill: #44bf70; fill-opacity: 0.7; stroke: #44bf70; stroke-width: 1.25"/>
    </g>
   </g>
   <g id="line2d_6">
    <path d="M 7.2 100.755 
L 216.45 100.755 
" style="fill: none; stroke: #44bf70; stroke-opacity: 0.9; stroke-linecap: round"/>
   </g>
   <g id="text_6">
    <!-- 5 -->
    <g style="fill: #44bf70" transform="translate(7.2 99.707625) scale(0.12 -0.12)">
     <defs>
      <path id="Arial-BoldMT-35" d="M 284 1178 
L 1159 1269 
Q 1197 972 1381 798 
Q 1566 625 1806 625 
Q 2081 625 2272 848 
Q 2463 1072 2463 1522 
Q 2463 1944 2273 2155 
Q 2084 2366 1781 2366 
Q 1403 2366 1103 2031 
L 391 2134 
L 841 4519 
L 3163 4519 
L 3163 3697 
L 1506 3697 
L 1369 2919 
Q 1663 3066 1969 3066 
Q 2553 3066 2959 2641 
Q 3366 2216 3366 1538 
Q 3366 972 3038 528 
Q 2591 -78 1797 -78 
Q 1163 -78 763 262 
Q 363 603 284 1178 
z
" transform="scale(0.015625)"/>
     </defs>
     <use xlink:href="#Arial-BoldMT-35"/>
    </g>
   </g>
  </g>
  <g id="axes_7">
   <g id="patch_8">
    <path d="M 7.2 111.15 
L 216.45 111.15 
L 216.45 69.57 
L 7.2 69.57 
L 7.2 111.15 
z
" style="fill: none"/>
   </g>
   <g id="matplotlib.axis_13">
    <g id="xtick_31"/>
    <g id="xtick_32"/>
    <g id="xtick_33"/>
    <g id="xtick_34"/>
    <g id="xtick_35"/>
   </g>
   <g id="matplotlib.axis_14"/>
   <g id="PolyCollection_6">
    <defs>
     <path id="mce9f01a5a6" d="M 60.309845 -62.863449 
L 60.309845 -62.664844 
L 60.756101 -62.664844 
L 61.202358 -62.664844 
L 61.648614 -62.664844 
L 62.094871 -62.664844 
L 62.541128 -62.664844 
L 62.987384 -62.664844 
L 63.433641 -62.664844 
L 63.879897 -62.664844 
L 64.326154 -62.664844 
L 64.772411 -62.664844 
L 65.218667 -62.664844 
L 65.664924 -62.664844 
L 66.11118 -62.664844 
L 66.557437 -62.664844 
L 67.003693 -62.664844 
L 67.44995 -62.664844 
L 67.896207 -62.664844 
L 68.342463 -62.664844 
L 68.78872 -62.664844 
L 69.234976 -62.664844 
L 69.681233 -62.664844 
L 70.12749 -62.664844 
L 70.573746 -62.664844 
L 71.020003 -62.664844 
L 71.466259 -62.664844 
L 71.912516 -62.664844 
L 72.358773 -62.664844 
L 72.805029 -62.664844 
L 73.251286 -62.664844 
L 73.697542 -62.664844 
L 74.143799 -62.664844 
L 74.590056 -62.664844 
L 75.036312 -62.664844 
L 75.482569 -62.664844 
L 75.928825 -62.664844 
L 76.375082 -62.664844 
L 76.821338 -62.664844 
L 77.267595 -62.664844 
L 77.713852 -62.664844 
L 78.160108 -62.664844 
L 78.606365 -62.664844 
L 79.052621 -62.664844 
L 79.498878 -62.664844 
L 79.945135 -62.664844 
L 80.391391 -62.664844 
L 80.837648 -62.664844 
L 81.283904 -62.664844 
L 81.730161 -62.664844 
L 82.176418 -62.664844 
L 82.622674 -62.664844 
L 83.068931 -62.664844 
L 83.515187 -62.664844 
L 83.961444 -62.664844 
L 84.4077 -62.664844 
L 84.853957 -62.664844 
L 85.300214 -62.664844 
L 85.74647 -62.664844 
L 86.192727 -62.664844 
L 86.638983 -62.664844 
L 87.08524 -62.664844 
L 87.531497 -62.664844 
L 87.977753 -62.664844 
L 88.42401 -62.664844 
L 88.870266 -62.664844 
L 89.316523 -62.664844 
L 89.76278 -62.664844 
L 90.209036 -62.664844 
L 90.655293 -62.664844 
L 91.101549 -62.664844 
L 91.547806 -62.664844 
L 91.994062 -62.664844 
L 92.440319 -62.664844 
L 92.886576 -62.664844 
L 93.332832 -62.664844 
L 93.779089 -62.664844 
L 94.225345 -62.664844 
L 94.671602 -62.664844 
L 95.117859 -62.664844 
L 95.564115 -62.664844 
L 96.010372 -62.664844 
L 96.456628 -62.664844 
L 96.902885 -62.664844 
L 97.349142 -62.664844 
L 97.795398 -62.664844 
L 98.241655 -62.664844 
L 98.687911 -62.664844 
L 99.134168 -62.664844 
L 99.580425 -62.664844 
L 100.026681 -62.664844 
L 100.472938 -62.664844 
L 100.919194 -62.664844 
L 101.365451 -62.664844 
L 101.811707 -62.664844 
L 102.257964 -62.664844 
L 102.704221 -62.664844 
L 103.150477 -62.664844 
L 103.596734 -62.664844 
L 104.04299 -62.664844 
L 104.489247 -62.664844 
L 104.935504 -62.664844 
L 105.38176 -62.664844 
L 105.828017 -62.664844 
L 106.274273 -62.664844 
L 106.72053 -62.664844 
L 107.166787 -62.664844 
L 107.613043 -62.664844 
L 108.0593 -62.664844 
L 108.505556 -62.664844 
L 108.951813 -62.664844 
L 109.398069 -62.664844 
L 109.844326 -62.664844 
L 110.290583 -62.664844 
L 110.736839 -62.664844 
L 111.183096 -62.664844 
L 111.629352 -62.664844 
L 112.075609 -62.664844 
L 112.521866 -62.664844 
L 112.968122 -62.664844 
L 113.414379 -62.664844 
L 113.860635 -62.664844 
L 114.306892 -62.664844 
L 114.753149 -62.664844 
L 115.199405 -62.664844 
L 115.645662 -62.664844 
L 116.091918 -62.664844 
L 116.538175 -62.664844 
L 116.984431 -62.664844 
L 117.430688 -62.664844 
L 117.876945 -62.664844 
L 118.323201 -62.664844 
L 118.769458 -62.664844 
L 119.215714 -62.664844 
L 119.661971 -62.664844 
L 120.108228 -62.664844 
L 120.554484 -62.664844 
L 121.000741 -62.664844 
L 121.446997 -62.664844 
L 121.893254 -62.664844 
L 122.339511 -62.664844 
L 122.785767 -62.664844 
L 123.232024 -62.664844 
L 123.67828 -62.664844 
L 124.124537 -62.664844 
L 124.570794 -62.664844 
L 125.01705 -62.664844 
L 125.463307 -62.664844 
L 125.909563 -62.664844 
L 126.35582 -62.664844 
L 126.802076 -62.664844 
L 127.248333 -62.664844 
L 127.69459 -62.664844 
L 128.140846 -62.664844 
L 128.587103 -62.664844 
L 129.033359 -62.664844 
L 129.479616 -62.664844 
L 129.925873 -62.664844 
L 130.372129 -62.664844 
L 130.818386 -62.664844 
L 131.264642 -62.664844 
L 131.710899 -62.664844 
L 132.157156 -62.664844 
L 132.603412 -62.664844 
L 133.049669 -62.664844 
L 133.495925 -62.664844 
L 133.942182 -62.664844 
L 134.388438 -62.664844 
L 134.834695 -62.664844 
L 135.280952 -62.664844 
L 135.727208 -62.664844 
L 136.173465 -62.664844 
L 136.619721 -62.664844 
L 137.065978 -62.664844 
L 137.512235 -62.664844 
L 137.958491 -62.664844 
L 138.404748 -62.664844 
L 138.851004 -62.664844 
L 139.297261 -62.664844 
L 139.743518 -62.664844 
L 140.189774 -62.664844 
L 140.636031 -62.664844 
L 141.082287 -62.664844 
L 141.528544 -62.664844 
L 141.974801 -62.664844 
L 142.421057 -62.664844 
L 142.867314 -62.664844 
L 143.31357 -62.664844 
L 143.759827 -62.664844 
L 144.206083 -62.664844 
L 144.65234 -62.664844 
L 145.098597 -62.664844 
L 145.544853 -62.664844 
L 145.99111 -62.664844 
L 146.437366 -62.664844 
L 146.883623 -62.664844 
L 147.32988 -62.664844 
L 147.776136 -62.664844 
L 148.222393 -62.664844 
L 148.668649 -62.664844 
L 149.114906 -62.664844 
L 149.114906 -63.159359 
L 149.114906 -63.159359 
L 148.668649 -63.221519 
L 148.222393 -63.290236 
L 147.776136 -63.366062 
L 147.32988 -63.449588 
L 146.883623 -63.541434 
L 146.437366 -63.642257 
L 145.99111 -63.752748 
L 145.544853 -63.873628 
L 145.098597 -64.005651 
L 144.65234 -64.1496 
L 144.206083 -64.306282 
L 143.759827 -64.476528 
L 143.31357 -64.661185 
L 142.867314 -64.861107 
L 142.421057 -65.077157 
L 141.974801 -65.310186 
L 141.528544 -65.561034 
L 141.082287 -65.83051 
L 140.636031 -66.119384 
L 140.189774 -66.42837 
L 139.743518 -66.758109 
L 139.297261 -67.109155 
L 138.851004 -67.481953 
L 138.404748 -67.876818 
L 137.958491 -68.293914 
L 137.512235 -68.733237 
L 137.065978 -69.194583 
L 136.619721 -69.677534 
L 136.173465 -70.181431 
L 135.727208 -70.705357 
L 135.280952 -71.248111 
L 134.834695 -71.808198 
L 134.388438 -72.38381 
L 133.942182 -72.972819 
L 133.495925 -73.572769 
L 133.049669 -74.180876 
L 132.603412 -74.794032 
L 132.157156 -75.408821 
L 131.710899 -76.021531 
L 131.264642 -76.628188 
L 130.818386 -77.224583 
L 130.372129 -77.806317 
L 129.925873 -78.368849 
L 129.479616 -78.907549 
L 129.033359 -79.417762 
L 128.587103 -79.894872 
L 128.140846 -80.334374 
L 127.69459 -80.731946 
L 127.248333 -81.083525 
L 126.802076 -81.385373 
L 126.35582 -81.634158 
L 125.909563 -81.827012 
L 125.463307 -81.961592 
L 125.01705 -82.036137 
L 124.570794 -82.049505 
L 124.124537 -82.001208 
L 123.67828 -81.891431 
L 123.232024 -81.721041 
L 122.785767 -81.491578 
L 122.339511 -81.205241 
L 121.893254 -80.864849 
L 121.446997 -80.473808 
L 121.000741 -80.036045 
L 120.554484 -79.55595 
L 120.108228 -79.0383 
L 119.661971 -78.488182 
L 119.215714 -77.910906 
L 118.769458 -77.311921 
L 118.323201 -76.696728 
L 117.876945 -76.070793 
L 117.430688 -75.43947 
L 116.984431 -74.807924 
L 116.538175 -74.181059 
L 116.091918 -73.563463 
L 115.645662 -72.959356 
L 115.199405 -72.372545 
L 114.753149 -71.806401 
L 114.306892 -71.263834 
L 113.860635 -70.747284 
L 113.414379 -70.258727 
L 112.968122 -69.799677 
L 112.521866 -69.371211 
L 112.075609 -68.973992 
L 111.629352 -68.608297 
L 111.183096 -68.274062 
L 110.736839 -67.970913 
L 110.290583 -67.698215 
L 109.844326 -67.455114 
L 109.398069 -67.240578 
L 108.951813 -67.053444 
L 108.505556 -66.892457 
L 108.0593 -66.756309 
L 107.613043 -66.643674 
L 107.166787 -66.553237 
L 106.72053 -66.483726 
L 106.274273 -66.43393 
L 105.828017 -66.402718 
L 105.38176 -66.389056 
L 104.935504 -66.392011 
L 104.489247 -66.410758 
L 104.04299 -66.44458 
L 103.596734 -66.492865 
L 103.150477 -66.555098 
L 102.704221 -66.630853 
L 102.257964 -66.719777 
L 101.811707 -66.821579 
L 101.365451 -66.936008 
L 100.919194 -67.062842 
L 100.472938 -67.20186 
L 100.026681 -67.352828 
L 99.580425 -67.515479 
L 99.134168 -67.689491 
L 98.687911 -67.874471 
L 98.241655 -68.069934 
L 97.795398 -68.275292 
L 97.349142 -68.489835 
L 96.902885 -68.712725 
L 96.456628 -68.942982 
L 96.010372 -69.179481 
L 95.564115 -69.420948 
L 95.117859 -69.665962 
L 94.671602 -69.912957 
L 94.225345 -70.160234 
L 93.779089 -70.405967 
L 93.332832 -70.648224 
L 92.886576 -70.884982 
L 92.440319 -71.114149 
L 91.994062 -71.33359 
L 91.547806 -71.541157 
L 91.101549 -71.734711 
L 90.655293 -71.912164 
L 90.209036 -72.071502 
L 89.76278 -72.21082 
L 89.316523 -72.328358 
L 88.870266 -72.422524 
L 88.42401 -72.49193 
L 87.977753 -72.535414 
L 87.531497 -72.552064 
L 87.08524 -72.541238 
L 86.638983 -72.502575 
L 86.192727 -72.436006 
L 85.74647 -72.34176 
L 85.300214 -72.220361 
L 84.853957 -72.072621 
L 84.4077 -71.89963 
L 83.961444 -71.702735 
L 83.515187 -71.483524 
L 83.068931 -71.243793 
L 82.622674 -70.985524 
L 82.176418 -70.710848 
L 81.730161 -70.422011 
L 81.283904 -70.12134 
L 80.837648 -69.811205 
L 80.391391 -69.493986 
L 79.945135 -69.172035 
L 79.498878 -68.847647 
L 79.052621 -68.523026 
L 78.606365 -68.200261 
L 78.160108 -67.881304 
L 77.713852 -67.567944 
L 77.267595 -67.261799 
L 76.821338 -66.9643 
L 76.375082 -66.676684 
L 75.928825 -66.399994 
L 75.482569 -66.135074 
L 75.036312 -65.882579 
L 74.590056 -65.642978 
L 74.143799 -65.416567 
L 73.697542 -65.203476 
L 73.251286 -65.003687 
L 72.805029 -64.81705 
L 72.358773 -64.643294 
L 71.912516 -64.482049 
L 71.466259 -64.332857 
L 71.020003 -64.195193 
L 70.573746 -64.068477 
L 70.12749 -63.952091 
L 69.681233 -63.845391 
L 69.234976 -63.74772 
L 68.78872 -63.658421 
L 68.342463 -63.576843 
L 67.896207 -63.502352 
L 67.44995 -63.434337 
L 67.003693 -63.372216 
L 66.557437 -63.31544 
L 66.11118 -63.263498 
L 65.664924 -63.215915 
L 65.218667 -63.172256 
L 64.772411 -63.132126 
L 64.326154 -63.095169 
L 63.879897 -63.061065 
L 63.433641 -63.029534 
L 62.987384 -63.000324 
L 62.541128 -62.973218 
L 62.094871 -62.948027 
L 61.648614 -62.924586 
L 61.202358 -62.902754 
L 60.756101 -62.88241 
L 60.309845 -62.863449 
z
" style="stroke: #21918c; stroke-width: 1.25"/>
    </defs>
    <g>
     <use xlink:href="#mce9f01a5a6" x="0" y="173.814844" style="fill: #21918c; fill-opacity: 0.7; stroke: #21918c; stroke-width: 1.25"/>
    </g>
   </g>
   <g id="line2d_7">
    <path d="M 7.2 111.15 
L 216.45 111.15 
" style="fill: none; stroke: #21918c; stroke-opacity: 0.9; stroke-linecap: round"/>
   </g>
   <g id="text_7">
    <!-- 6 -->
    <g style="fill: #21918c" transform="translate(7.2 110.102625) scale(0.12 -0.12)">
     <defs>
      <path id="Arial-BoldMT-36" d="M 3247 3459 
L 2397 3366 
Q 2366 3628 2234 3753 
Q 2103 3878 1894 3878 
Q 1616 3878 1423 3628 
Q 1231 3378 1181 2588 
Q 1509 2975 1997 2975 
Q 2547 2975 2939 2556 
Q 3331 2138 3331 1475 
Q 3331 772 2918 347 
Q 2506 -78 1859 -78 
Q 1166 -78 719 461 
Q 272 1000 272 2228 
Q 272 3488 737 4044 
Q 1203 4600 1947 4600 
Q 2469 4600 2811 4308 
Q 3153 4016 3247 3459 
z
M 1256 1544 
Q 1256 1116 1453 883 
Q 1650 650 1903 650 
Q 2147 650 2309 840 
Q 2472 1031 2472 1466 
Q 2472 1913 2297 2120 
Q 2122 2328 1859 2328 
Q 1606 2328 1431 2129 
Q 1256 1931 1256 1544 
z
" transform="scale(0.015625)"/>
     </defs>
     <use xlink:href="#Arial-BoldMT-36"/>
    </g>
   </g>
  </g>
  <g id="axes_8">
   <g id="patch_9">
    <path d="M 7.2 121.545 
L 216.45 121.545 
L 216.45 79.965 
L 7.2 79.965 
L 7.2 121.545 
z
" style="fill: none"/>
   </g>
   <g id="matplotlib.axis_15">
    <g id="xtick_36"/>
    <g id="xtick_37"/>
    <g id="xtick_38"/>
    <g id="xtick_39"/>
    <g id="xtick_40"/>
   </g>
   <g id="matplotlib.axis_16"/>
   <g id="PolyCollection_7">
    <defs>
     <path id="m92d6f39090" d="M 39.0163 -52.582345 
L 39.0163 -52.269844 
L 39.573503 -52.269844 
L 40.130706 -52.269844 
L 40.687909 -52.269844 
L 41.245112 -52.269844 
L 41.802315 -52.269844 
L 42.359518 -52.269844 
L 42.916721 -52.269844 
L 43.473924 -52.269844 
L 44.031127 -52.269844 
L 44.58833 -52.269844 
L 45.145533 -52.269844 
L 45.702736 -52.269844 
L 46.259939 -52.269844 
L 46.817142 -52.269844 
L 47.374345 -52.269844 
L 47.931548 -52.269844 
L 48.488751 -52.269844 
L 49.045954 -52.269844 
L 49.603157 -52.269844 
L 50.16036 -52.269844 
L 50.717563 -52.269844 
L 51.274766 -52.269844 
L 51.83197 -52.269844 
L 52.389173 -52.269844 
L 52.946376 -52.269844 
L 53.503579 -52.269844 
L 54.060782 -52.269844 
L 54.617985 -52.269844 
L 55.175188 -52.269844 
L 55.732391 -52.269844 
L 56.289594 -52.269844 
L 56.846797 -52.269844 
L 57.404 -52.269844 
L 57.961203 -52.269844 
L 58.518406 -52.269844 
L 59.075609 -52.269844 
L 59.632812 -52.269844 
L 60.190015 -52.269844 
L 60.747218 -52.269844 
L 61.304421 -52.269844 
L 61.861624 -52.269844 
L 62.418827 -52.269844 
L 62.97603 -52.269844 
L 63.533233 -52.269844 
L 64.090436 -52.269844 
L 64.647639 -52.269844 
L 65.204842 -52.269844 
L 65.762045 -52.269844 
L 66.319248 -52.269844 
L 66.876451 -52.269844 
L 67.433654 -52.269844 
L 67.990857 -52.269844 
L 68.54806 -52.269844 
L 69.105263 -52.269844 
L 69.662466 -52.269844 
L 70.219669 -52.269844 
L 70.776872 -52.269844 
L 71.334075 -52.269844 
L 71.891278 -52.269844 
L 72.448481 -52.269844 
L 73.005684 -52.269844 
L 73.562887 -52.269844 
L 74.12009 -52.269844 
L 74.677293 -52.269844 
L 75.234496 -52.269844 
L 75.791699 -52.269844 
L 76.348902 -52.269844 
L 76.906105 -52.269844 
L 77.463309 -52.269844 
L 78.020512 -52.269844 
L 78.577715 -52.269844 
L 79.134918 -52.269844 
L 79.692121 -52.269844 
L 80.249324 -52.269844 
L 80.806527 -52.269844 
L 81.36373 -52.269844 
L 81.920933 -52.269844 
L 82.478136 -52.269844 
L 83.035339 -52.269844 
L 83.592542 -52.269844 
L 84.149745 -52.269844 
L 84.706948 -52.269844 
L 85.264151 -52.269844 
L 85.821354 -52.269844 
L 86.378557 -52.269844 
L 86.93576 -52.269844 
L 87.492963 -52.269844 
L 88.050166 -52.269844 
L 88.607369 -52.269844 
L 89.164572 -52.269844 
L 89.721775 -52.269844 
L 90.278978 -52.269844 
L 90.836181 -52.269844 
L 91.393384 -52.269844 
L 91.950587 -52.269844 
L 92.50779 -52.269844 
L 93.064993 -52.269844 
L 93.622196 -52.269844 
L 94.179399 -52.269844 
L 94.736602 -52.269844 
L 95.293805 -52.269844 
L 95.851008 -52.269844 
L 96.408211 -52.269844 
L 96.965414 -52.269844 
L 97.522617 -52.269844 
L 98.07982 -52.269844 
L 98.637023 -52.269844 
L 99.194226 -52.269844 
L 99.751429 -52.269844 
L 100.308632 -52.269844 
L 100.865835 -52.269844 
L 101.423038 -52.269844 
L 101.980241 -52.269844 
L 102.537444 -52.269844 
L 103.094648 -52.269844 
L 103.651851 -52.269844 
L 104.209054 -52.269844 
L 104.766257 -52.269844 
L 105.32346 -52.269844 
L 105.880663 -52.269844 
L 106.437866 -52.269844 
L 106.995069 -52.269844 
L 107.552272 -52.269844 
L 108.109475 -52.269844 
L 108.666678 -52.269844 
L 109.223881 -52.269844 
L 109.781084 -52.269844 
L 110.338287 -52.269844 
L 110.89549 -52.269844 
L 111.452693 -52.269844 
L 112.009896 -52.269844 
L 112.567099 -52.269844 
L 113.124302 -52.269844 
L 113.681505 -52.269844 
L 114.238708 -52.269844 
L 114.795911 -52.269844 
L 115.353114 -52.269844 
L 115.910317 -52.269844 
L 116.46752 -52.269844 
L 117.024723 -52.269844 
L 117.581926 -52.269844 
L 118.139129 -52.269844 
L 118.696332 -52.269844 
L 119.253535 -52.269844 
L 119.810738 -52.269844 
L 120.367941 -52.269844 
L 120.925144 -52.269844 
L 121.482347 -52.269844 
L 122.03955 -52.269844 
L 122.596753 -52.269844 
L 123.153956 -52.269844 
L 123.711159 -52.269844 
L 124.268362 -52.269844 
L 124.825565 -52.269844 
L 125.382768 -52.269844 
L 125.939971 -52.269844 
L 126.497174 -52.269844 
L 127.054377 -52.269844 
L 127.61158 -52.269844 
L 128.168783 -52.269844 
L 128.725987 -52.269844 
L 129.28319 -52.269844 
L 129.840393 -52.269844 
L 130.397596 -52.269844 
L 130.954799 -52.269844 
L 131.512002 -52.269844 
L 132.069205 -52.269844 
L 132.626408 -52.269844 
L 133.183611 -52.269844 
L 133.740814 -52.269844 
L 134.298017 -52.269844 
L 134.85522 -52.269844 
L 135.412423 -52.269844 
L 135.969626 -52.269844 
L 136.526829 -52.269844 
L 137.084032 -52.269844 
L 137.641235 -52.269844 
L 138.198438 -52.269844 
L 138.755641 -52.269844 
L 139.312844 -52.269844 
L 139.870047 -52.269844 
L 140.42725 -52.269844 
L 140.984453 -52.269844 
L 141.541656 -52.269844 
L 142.098859 -52.269844 
L 142.656062 -52.269844 
L 143.213265 -52.269844 
L 143.770468 -52.269844 
L 144.327671 -52.269844 
L 144.884874 -52.269844 
L 145.442077 -52.269844 
L 145.99928 -52.269844 
L 146.556483 -52.269844 
L 147.113686 -52.269844 
L 147.670889 -52.269844 
L 148.228092 -52.269844 
L 148.785295 -52.269844 
L 149.342498 -52.269844 
L 149.899701 -52.269844 
L 149.899701 -52.465937 
L 149.899701 -52.465937 
L 149.342498 -52.487157 
L 148.785295 -52.507857 
L 148.228092 -52.527485 
L 147.670889 -52.545478 
L 147.113686 -52.561296 
L 146.556483 -52.574447 
L 145.99928 -52.584514 
L 145.442077 -52.591182 
L 144.884874 -52.594259 
L 144.327671 -52.593689 
L 143.770468 -52.58956 
L 143.213265 -52.582104 
L 142.656062 -52.571687 
L 142.098859 -52.558795 
L 141.541656 -52.544013 
L 140.984453 -52.528001 
L 140.42725 -52.511462 
L 139.870047 -52.495114 
L 139.312844 -52.479666 
L 138.755641 -52.465782 
L 138.198438 -52.454069 
L 137.641235 -52.445048 
L 137.084032 -52.439146 
L 136.526829 -52.436683 
L 135.969626 -52.43787 
L 135.412423 -52.442807 
L 134.85522 -52.451489 
L 134.298017 -52.463815 
L 133.740814 -52.479607 
L 133.183611 -52.49862 
L 132.626408 -52.520575 
L 132.069205 -52.545177 
L 131.512002 -52.572146 
L 130.954799 -52.601248 
L 130.397596 -52.632321 
L 129.840393 -52.665303 
L 129.28319 -52.700259 
L 128.725987 -52.737394 
L 128.168783 -52.77707 
L 127.61158 -52.819806 
L 127.054377 -52.866282 
L 126.497174 -52.917322 
L 125.939971 -52.973886 
L 125.382768 -53.037044 
L 124.825565 -53.107955 
L 124.268362 -53.187849 
L 123.711159 -53.278001 
L 123.153956 -53.379719 
L 122.596753 -53.494334 
L 122.03955 -53.623197 
L 121.482347 -53.767688 
L 120.925144 -53.929227 
L 120.367941 -54.1093 
L 119.810738 -54.309488 
L 119.253535 -54.531503 
L 118.696332 -54.77723 
L 118.139129 -55.048772 
L 117.581926 -55.348488 
L 117.024723 -55.679031 
L 116.46752 -56.043374 
L 115.910317 -56.444817 
L 115.353114 -56.886967 
L 114.795911 -57.373686 
L 114.238708 -57.90899 
L 113.681505 -58.496902 
L 113.124302 -59.141239 
L 112.567099 -59.845343 
L 112.009896 -60.611748 
L 111.452693 -61.441804 
L 110.89549 -62.335257 
L 110.338287 -63.289826 
L 109.781084 -64.300798 
L 109.223881 -65.360684 
L 108.666678 -66.458962 
L 108.109475 -67.581973 
L 107.552272 -68.712969 
L 106.995069 -69.832377 
L 106.437866 -70.918266 
L 105.880663 -71.947021 
L 105.32346 -72.894217 
L 104.766257 -73.735636 
L 104.209054 -74.448381 
L 103.651851 -75.012019 
L 103.094648 -75.409672 
L 102.537444 -75.628981 
L 101.980241 -75.662862 
L 101.423038 -75.510013 
L 100.865835 -75.175097 
L 100.308632 -74.668623 
L 99.751429 -74.006496 
L 99.194226 -73.209291 
L 98.637023 -72.301287 
L 98.07982 -71.30935 
L 97.522617 -70.261721 
L 96.965414 -69.18682 
L 96.408211 -68.112114 
L 95.851008 -67.063134 
L 95.293805 -66.062692 
L 94.736602 -65.130306 
L 94.179399 -64.281871 
L 93.622196 -63.52954 
L 93.064993 -62.8818 
L 92.50779 -62.343707 
L 91.950587 -61.917217 
L 91.393384 -61.601587 
L 90.836181 -61.393784 
L 90.278978 -61.288867 
L 89.721775 -61.280326 
L 89.164572 -61.360344 
L 88.607369 -61.519995 
L 88.050166 -61.749373 
L 87.492963 -62.037679 
L 86.93576 -62.373274 
L 86.378557 -62.743741 
L 85.821354 -63.135972 
L 85.264151 -63.536301 
L 84.706948 -63.930703 
L 84.149745 -64.305067 
L 83.592542 -64.645537 
L 83.035339 -64.938909 
L 82.478136 -65.173066 
L 81.920933 -65.337428 
L 81.36373 -65.423365 
L 80.806527 -65.424565 
L 80.249324 -65.33731 
L 79.692121 -65.160636 
L 79.134918 -64.896365 
L 78.577715 -64.549003 
L 78.020512 -64.125495 
L 77.463309 -63.634874 
L 76.906105 -63.087807 
L 76.348902 -62.496078 
L 75.791699 -61.872052 
L 75.234496 -61.228131 
L 74.677293 -60.576262 
L 74.12009 -59.927502 
L 73.562887 -59.291679 
L 73.005684 -58.677146 
L 72.448481 -58.090639 
L 71.891278 -57.537235 
L 71.334075 -57.020397 
L 70.776872 -56.542094 
L 70.219669 -56.102969 
L 69.662466 -55.702551 
L 69.105263 -55.339479 
L 68.54806 -55.011726 
L 67.990857 -54.716815 
L 67.433654 -54.452011 
L 66.876451 -54.214483 
L 66.319248 -54.001442 
L 65.762045 -53.810237 
L 65.204842 -53.638429 
L 64.647639 -53.483832 
L 64.090436 -53.344537 
L 63.533233 -53.218915 
L 62.97603 -53.105599 
L 62.418827 -53.003469 
L 61.861624 -52.911617 
L 61.304421 -52.829323 
L 60.747218 -52.756016 
L 60.190015 -52.691248 
L 59.632812 -52.634666 
L 59.075609 -52.585985 
L 58.518406 -52.544974 
L 57.961203 -52.511434 
L 57.404 -52.485186 
L 56.846797 -52.466057 
L 56.289594 -52.453871 
L 55.732391 -52.448436 
L 55.175188 -52.449527 
L 54.617985 -52.456882 
L 54.060782 -52.470176 
L 53.503579 -52.489015 
L 52.946376 -52.512916 
L 52.389173 -52.541296 
L 51.83197 -52.573464 
L 51.274766 -52.608618 
L 50.717563 -52.645849 
L 50.16036 -52.684152 
L 49.603157 -52.722446 
L 49.045954 -52.759604 
L 48.488751 -52.794488 
L 47.931548 -52.825993 
L 47.374345 -52.853085 
L 46.817142 -52.874855 
L 46.259939 -52.890551 
L 45.702736 -52.899623 
L 45.145533 -52.90174 
L 44.58833 -52.896812 
L 44.031127 -52.88499 
L 43.473924 -52.866656 
L 42.916721 -52.8424 
L 42.359518 -52.812991 
L 41.802315 -52.77933 
L 41.245112 -52.742408 
L 40.687909 -52.703253 
L 40.130706 -52.662891 
L 39.573503 -52.622293 
L 39.0163 -52.582345 
z
" style="stroke: #2a788e; stroke-width: 1.25"/>
    </defs>
    <g>
     <use xlink:href="#m92d6f39090" x="0" y="173.814844" style="fill: #2a788e; fill-opacity: 0.7; stroke: #2a788e; stroke-width: 1.25"/>
    </g>
   </g>
   <g id="line2d_8">
    <path d="M 7.2 121.545 
L 216.45 121.545 
" style="fill: none; stroke: #2a788e; stroke-opacity: 0.9; stroke-linecap: round"/>
   </g>
   <g id="text_8">
    <!-- 7 -->
    <g style="fill: #2a788e" transform="translate(7.2 120.497625) scale(0.12 -0.12)">
     <defs>
      <path id="Arial-BoldMT-37" d="M 272 3703 
L 272 4519 
L 3275 4519 
L 3275 3881 
Q 2903 3516 2518 2831 
Q 2134 2147 1932 1376 
Q 1731 606 1734 0 
L 888 0 
Q 909 950 1279 1937 
Q 1650 2925 2269 3703 
L 272 3703 
z
" transform="scale(0.015625)"/>
     </defs>
     <use xlink:href="#Arial-BoldMT-37"/>
    </g>
   </g>
  </g>
  <g id="axes_9">
   <g id="patch_10">
    <path d="M 7.2 131.94 
L 216.45 131.94 
L 216.45 90.36 
L 7.2 90.36 
L 7.2 131.94 
z
" style="fill: none"/>
   </g>
   <g id="matplotlib.axis_17">
    <g id="xtick_41">
     <g id="text_9">
      <!-- 500 -->
      <g style="fill: #838383" transform="translate(25.437254 149.313594) scale(0.11 -0.11)">
       <defs>
        <path id="ArialMT-2212" d="M 3381 1997 
L 356 1997 
L 356 2522 
L 3381 2522 
L 3381 1997 
z
" transform="scale(0.015625)"/>
        <path id="ArialMT-35" d="M 266 1200 
L 856 1250 
Q 922 819 1161 601 
Q 1400 384 1738 384 
Q 2144 384 2425 690 
Q 2706 997 2706 1503 
Q 2706 1984 2436 2262 
Q 2166 2541 1728 2541 
Q 1456 2541 1237 2417 
Q 1019 2294 894 2097 
L 366 2166 
L 809 4519 
L 3088 4519 
L 3088 3981 
L 1259 3981 
L 1013 2750 
Q 1425 3038 1878 3038 
Q 2478 3038 2890 2622 
Q 3303 2206 3303 1553 
Q 3303 931 2941 478 
Q 2500 -78 1738 -78 
Q 1113 -78 717 272 
Q 322 622 266 1200 
z
" transform="scale(0.015625)"/>
        <path id="ArialMT-30" d="M 266 2259 
Q 266 3072 433 3567 
Q 600 4063 929 4331 
Q 1259 4600 1759 4600 
Q 2128 4600 2406 4451 
Q 2684 4303 2865 4023 
Q 3047 3744 3150 3342 
Q 3253 2941 3253 2259 
Q 3253 1453 3087 958 
Q 2922 463 2592 192 
Q 2263 -78 1759 -78 
Q 1097 -78 719 397 
Q 266 969 266 2259 
z
M 844 2259 
Q 844 1131 1108 757 
Q 1372 384 1759 384 
Q 2147 384 2411 759 
Q 2675 1134 2675 2259 
Q 2675 3391 2411 3762 
Q 2147 4134 1753 4134 
Q 1366 4134 1134 3806 
Q 844 3388 844 2259 
z
" transform="scale(0.015625)"/>
       </defs>
       <use xlink:href="#ArialMT-2212"/>
       <use xlink:href="#ArialMT-35" x="58.398438"/>
       <use xlink:href="#ArialMT-30" x="114.013672"/>
       <use xlink:href="#ArialMT-30" x="169.628906"/>
      </g>
     </g>
    </g>
    <g id="xtick_42">
     <g id="text_10">
      <!-- 0 -->
      <g style="fill: #838383" transform="translate(71.86397 149.313594) scale(0.11 -0.11)">
       <use xlink:href="#ArialMT-30"/>
      </g>
     </g>
    </g>
    <g id="xtick_43">
     <g id="text_11">
      <!-- 500 -->
      <g style="fill: #838383" transform="translate(102.84428 149.313594) scale(0.11 -0.11)">
       <use xlink:href="#ArialMT-35"/>
       <use xlink:href="#ArialMT-30" x="55.615234"/>
       <use xlink:href="#ArialMT-30" x="111.230469"/>
      </g>
     </g>
    </g>
    <g id="xtick_44">
     <g id="text_12">
      <!-- 1000 -->
      <g style="fill: #838383" transform="translate(136.883105 149.313594) scale(0.11 -0.11)">
       <defs>
        <path id="ArialMT-31" d="M 2384 0 
L 1822 0 
L 1822 3584 
Q 1619 3391 1289 3197 
Q 959 3003 697 2906 
L 697 3450 
Q 1169 3672 1522 3987 
Q 1875 4303 2022 4600 
L 2384 4600 
L 2384 0 
z
" transform="scale(0.015625)"/>
       </defs>
       <use xlink:href="#ArialMT-31"/>
       <use xlink:href="#ArialMT-30" x="55.615234"/>
       <use xlink:href="#ArialMT-30" x="111.230469"/>
       <use xlink:href="#ArialMT-30" x="166.845703"/>
      </g>
     </g>
    </g>
    <g id="xtick_45">
     <g id="text_13">
      <!-- 1500 -->
      <g style="fill: #838383" transform="translate(173.980447 149.313594) scale(0.11 -0.11)">
       <use xlink:href="#ArialMT-31"/>
       <use xlink:href="#ArialMT-35" x="55.615234"/>
       <use xlink:href="#ArialMT-30" x="111.230469"/>
       <use xlink:href="#ArialMT-30" x="166.845703"/>
      </g>
     </g>
    </g>
    <g id="text_14">
     <!-- logdet -->
     <g style="fill: #bdbdbd" transform="translate(95.47875 164.089219) scale(0.12 -0.12)">
      <defs>
       <path id="ArialMT-6c" d="M 409 0 
L 409 4581 
L 972 4581 
L 972 0 
L 409 0 
z
" transform="scale(0.015625)"/>
       <path id="ArialMT-6f" d="M 213 1659 
Q 213 2581 725 3025 
Q 1153 3394 1769 3394 
Q 2453 3394 2887 2945 
Q 3322 2497 3322 1706 
Q 3322 1066 3130 698 
Q 2938 331 2570 128 
Q 2203 -75 1769 -75 
Q 1072 -75 642 372 
Q 213 819 213 1659 
z
M 791 1659 
Q 791 1022 1069 705 
Q 1347 388 1769 388 
Q 2188 388 2466 706 
Q 2744 1025 2744 1678 
Q 2744 2294 2464 2611 
Q 2184 2928 1769 2928 
Q 1347 2928 1069 2612 
Q 791 2297 791 1659 
z
" transform="scale(0.015625)"/>
       <path id="ArialMT-67" d="M 319 -275 
L 866 -356 
Q 900 -609 1056 -725 
Q 1266 -881 1628 -881 
Q 2019 -881 2231 -725 
Q 2444 -569 2519 -288 
Q 2563 -116 2559 434 
Q 2191 0 1641 0 
Q 956 0 581 494 
Q 206 988 206 1678 
Q 206 2153 378 2554 
Q 550 2956 876 3175 
Q 1203 3394 1644 3394 
Q 2231 3394 2613 2919 
L 2613 3319 
L 3131 3319 
L 3131 450 
Q 3131 -325 2973 -648 
Q 2816 -972 2473 -1159 
Q 2131 -1347 1631 -1347 
Q 1038 -1347 672 -1080 
Q 306 -813 319 -275 
z
M 784 1719 
Q 784 1066 1043 766 
Q 1303 466 1694 466 
Q 2081 466 2343 764 
Q 2606 1063 2606 1700 
Q 2606 2309 2336 2618 
Q 2066 2928 1684 2928 
Q 1309 2928 1046 2623 
Q 784 2319 784 1719 
z
" transform="scale(0.015625)"/>
       <path id="ArialMT-64" d="M 2575 0 
L 2575 419 
Q 2259 -75 1647 -75 
Q 1250 -75 917 144 
Q 584 363 401 755 
Q 219 1147 219 1656 
Q 219 2153 384 2558 
Q 550 2963 881 3178 
Q 1213 3394 1622 3394 
Q 1922 3394 2156 3267 
Q 2391 3141 2538 2938 
L 2538 4581 
L 3097 4581 
L 3097 0 
L 2575 0 
z
M 797 1656 
Q 797 1019 1065 703 
Q 1334 388 1700 388 
Q 2069 388 2326 689 
Q 2584 991 2584 1609 
Q 2584 2291 2321 2609 
Q 2059 2928 1675 2928 
Q 1300 2928 1048 2622 
Q 797 2316 797 1656 
z
" transform="scale(0.015625)"/>
       <path id="ArialMT-65" d="M 2694 1069 
L 3275 997 
Q 3138 488 2766 206 
Q 2394 -75 1816 -75 
Q 1088 -75 661 373 
Q 234 822 234 1631 
Q 234 2469 665 2931 
Q 1097 3394 1784 3394 
Q 2450 3394 2872 2941 
Q 3294 2488 3294 1666 
Q 3294 1616 3291 1516 
L 816 1516 
Q 847 969 1125 678 
Q 1403 388 1819 388 
Q 2128 388 2347 550 
Q 2566 713 2694 1069 
z
M 847 1978 
L 2700 1978 
Q 2663 2397 2488 2606 
Q 2219 2931 1791 2931 
Q 1403 2931 1139 2672 
Q 875 2413 847 1978 
z
" transform="scale(0.015625)"/>
       <path id="ArialMT-74" d="M 1650 503 
L 1731 6 
Q 1494 -44 1306 -44 
Q 1000 -44 831 53 
Q 663 150 594 308 
Q 525 466 525 972 
L 525 2881 
L 113 2881 
L 113 3319 
L 525 3319 
L 525 4141 
L 1084 4478 
L 1084 3319 
L 1650 3319 
L 1650 2881 
L 1084 2881 
L 1084 941 
Q 1084 700 1114 631 
Q 1144 563 1211 522 
Q 1278 481 1403 481 
Q 1497 481 1650 503 
z
" transform="scale(0.015625)"/>
      </defs>
      <use xlink:href="#ArialMT-6c"/>
      <use xlink:href="#ArialMT-6f" x="22.216797"/>
      <use xlink:href="#ArialMT-67" x="77.832031"/>
      <use xlink:href="#ArialMT-64" x="133.447266"/>
      <use xlink:href="#ArialMT-65" x="189.0625"/>
      <use xlink:href="#ArialMT-74" x="244.677734"/>
     </g>
    </g>
   </g>
   <g id="matplotlib.axis_18"/>
   <g id="PolyCollection_8">
    <defs>
     <path id="m2e5edb775b" d="M 16.711364 -42.064508 
L 16.711364 -41.874844 
L 17.391817 -41.874844 
L 18.07227 -41.874844 
L 18.752724 -41.874844 
L 19.433177 -41.874844 
L 20.113631 -41.874844 
L 20.794084 -41.874844 
L 21.474538 -41.874844 
L 22.154991 -41.874844 
L 22.835444 -41.874844 
L 23.515898 -41.874844 
L 24.196351 -41.874844 
L 24.876805 -41.874844 
L 25.557258 -41.874844 
L 26.237711 -41.874844 
L 26.918165 -41.874844 
L 27.598618 -41.874844 
L 28.279072 -41.874844 
L 28.959525 -41.874844 
L 29.639978 -41.874844 
L 30.320432 -41.874844 
L 31.000885 -41.874844 
L 31.681339 -41.874844 
L 32.361792 -41.874844 
L 33.042246 -41.874844 
L 33.722699 -41.874844 
L 34.403152 -41.874844 
L 35.083606 -41.874844 
L 35.764059 -41.874844 
L 36.444513 -41.874844 
L 37.124966 -41.874844 
L 37.805419 -41.874844 
L 38.485873 -41.874844 
L 39.166326 -41.874844 
L 39.84678 -41.874844 
L 40.527233 -41.874844 
L 41.207686 -41.874844 
L 41.88814 -41.874844 
L 42.568593 -41.874844 
L 43.249047 -41.874844 
L 43.9295 -41.874844 
L 44.609954 -41.874844 
L 45.290407 -41.874844 
L 45.97086 -41.874844 
L 46.651314 -41.874844 
L 47.331767 -41.874844 
L 48.012221 -41.874844 
L 48.692674 -41.874844 
L 49.373127 -41.874844 
L 50.053581 -41.874844 
L 50.734034 -41.874844 
L 51.414488 -41.874844 
L 52.094941 -41.874844 
L 52.775394 -41.874844 
L 53.455848 -41.874844 
L 54.136301 -41.874844 
L 54.816755 -41.874844 
L 55.497208 -41.874844 
L 56.177662 -41.874844 
L 56.858115 -41.874844 
L 57.538568 -41.874844 
L 58.219022 -41.874844 
L 58.899475 -41.874844 
L 59.579929 -41.874844 
L 60.260382 -41.874844 
L 60.940835 -41.874844 
L 61.621289 -41.874844 
L 62.301742 -41.874844 
L 62.982196 -41.874844 
L 63.662649 -41.874844 
L 64.343102 -41.874844 
L 65.023556 -41.874844 
L 65.704009 -41.874844 
L 66.384463 -41.874844 
L 67.064916 -41.874844 
L 67.74537 -41.874844 
L 68.425823 -41.874844 
L 69.106276 -41.874844 
L 69.78673 -41.874844 
L 70.467183 -41.874844 
L 71.147637 -41.874844 
L 71.82809 -41.874844 
L 72.508543 -41.874844 
L 73.188997 -41.874844 
L 73.86945 -41.874844 
L 74.549904 -41.874844 
L 75.230357 -41.874844 
L 75.91081 -41.874844 
L 76.591264 -41.874844 
L 77.271717 -41.874844 
L 77.952171 -41.874844 
L 78.632624 -41.874844 
L 79.313078 -41.874844 
L 79.993531 -41.874844 
L 80.673984 -41.874844 
L 81.354438 -41.874844 
L 82.034891 -41.874844 
L 82.715345 -41.874844 
L 83.395798 -41.874844 
L 84.076251 -41.874844 
L 84.756705 -41.874844 
L 85.437158 -41.874844 
L 86.117612 -41.874844 
L 86.798065 -41.874844 
L 87.478518 -41.874844 
L 88.158972 -41.874844 
L 88.839425 -41.874844 
L 89.519879 -41.874844 
L 90.200332 -41.874844 
L 90.880786 -41.874844 
L 91.561239 -41.874844 
L 92.241692 -41.874844 
L 92.922146 -41.874844 
L 93.602599 -41.874844 
L 94.283053 -41.874844 
L 94.963506 -41.874844 
L 95.643959 -41.874844 
L 96.324413 -41.874844 
L 97.004866 -41.874844 
L 97.68532 -41.874844 
L 98.365773 -41.874844 
L 99.046226 -41.874844 
L 99.72668 -41.874844 
L 100.407133 -41.874844 
L 101.087587 -41.874844 
L 101.76804 -41.874844 
L 102.448494 -41.874844 
L 103.128947 -41.874844 
L 103.8094 -41.874844 
L 104.489854 -41.874844 
L 105.170307 -41.874844 
L 105.850761 -41.874844 
L 106.531214 -41.874844 
L 107.211667 -41.874844 
L 107.892121 -41.874844 
L 108.572574 -41.874844 
L 109.253028 -41.874844 
L 109.933481 -41.874844 
L 110.613934 -41.874844 
L 111.294388 -41.874844 
L 111.974841 -41.874844 
L 112.655295 -41.874844 
L 113.335748 -41.874844 
L 114.016202 -41.874844 
L 114.696655 -41.874844 
L 115.377108 -41.874844 
L 116.057562 -41.874844 
L 116.738015 -41.874844 
L 117.418469 -41.874844 
L 118.098922 -41.874844 
L 118.779375 -41.874844 
L 119.459829 -41.874844 
L 120.140282 -41.874844 
L 120.820736 -41.874844 
L 121.501189 -41.874844 
L 122.181642 -41.874844 
L 122.862096 -41.874844 
L 123.542549 -41.874844 
L 124.223003 -41.874844 
L 124.903456 -41.874844 
L 125.58391 -41.874844 
L 126.264363 -41.874844 
L 126.944816 -41.874844 
L 127.62527 -41.874844 
L 128.305723 -41.874844 
L 128.986177 -41.874844 
L 129.66663 -41.874844 
L 130.347083 -41.874844 
L 131.027537 -41.874844 
L 131.70799 -41.874844 
L 132.388444 -41.874844 
L 133.068897 -41.874844 
L 133.74935 -41.874844 
L 134.429804 -41.874844 
L 135.110257 -41.874844 
L 135.790711 -41.874844 
L 136.471164 -41.874844 
L 137.151618 -41.874844 
L 137.832071 -41.874844 
L 138.512524 -41.874844 
L 139.192978 -41.874844 
L 139.873431 -41.874844 
L 140.553885 -41.874844 
L 141.234338 -41.874844 
L 141.914791 -41.874844 
L 142.595245 -41.874844 
L 143.275698 -41.874844 
L 143.956152 -41.874844 
L 144.636605 -41.874844 
L 145.317058 -41.874844 
L 145.997512 -41.874844 
L 146.677965 -41.874844 
L 147.358419 -41.874844 
L 148.038872 -41.874844 
L 148.719326 -41.874844 
L 149.399779 -41.874844 
L 150.080232 -41.874844 
L 150.760686 -41.874844 
L 151.441139 -41.874844 
L 152.121593 -41.874844 
L 152.121593 -42.062445 
L 152.121593 -42.062445 
L 151.441139 -42.086115 
L 150.760686 -42.108973 
L 150.080232 -42.130162 
L 149.399779 -42.148823 
L 148.719326 -42.164154 
L 148.038872 -42.175468 
L 147.358419 -42.182241 
L 146.677965 -42.184155 
L 145.997512 -42.181125 
L 145.317058 -42.173304 
L 144.636605 -42.161078 
L 143.956152 -42.145032 
L 143.275698 -42.125914 
L 142.595245 -42.104585 
L 141.914791 -42.081963 
L 141.234338 -42.058977 
L 140.553885 -42.036519 
L 139.873431 -42.015416 
L 139.192978 -41.996407 
L 138.512524 -41.980143 
L 137.832071 -41.967188 
L 137.151618 -41.958041 
L 136.471164 -41.953153 
L 135.790711 -41.952952 
L 135.110257 -41.957861 
L 134.429804 -41.968308 
L 133.74935 -41.984731 
L 133.068897 -42.007562 
L 132.388444 -42.03721 
L 131.70799 -42.074021 
L 131.027537 -42.11824 
L 130.347083 -42.169965 
L 129.66663 -42.229105 
L 128.986177 -42.29534 
L 128.305723 -42.368099 
L 127.62527 -42.446554 
L 126.944816 -42.529628 
L 126.264363 -42.616033 
L 125.58391 -42.704313 
L 124.903456 -42.792919 
L 124.223003 -42.880278 
L 123.542549 -42.964876 
L 122.862096 -43.045335 
L 122.181642 -43.120478 
L 121.501189 -43.189385 
L 120.820736 -43.251426 
L 120.140282 -43.306287 
L 119.459829 -43.353969 
L 118.779375 -43.394783 
L 118.098922 -43.42933 
L 117.418469 -43.458476 
L 116.738015 -43.483323 
L 116.057562 -43.505174 
L 115.377108 -43.525501 
L 114.696655 -43.545902 
L 114.016202 -43.56806 
L 113.335748 -43.593697 
L 112.655295 -43.624531 
L 111.974841 -43.662233 
L 111.294388 -43.708389 
L 110.613934 -43.764477 
L 109.933481 -43.831855 
L 109.253028 -43.911763 
L 108.572574 -44.00534 
L 107.892121 -44.113644 
L 107.211667 -44.237677 
L 106.531214 -44.378401 
L 105.850761 -44.536735 
L 105.170307 -44.713533 
L 104.489854 -44.90954 
L 103.8094 -45.125321 
L 103.128947 -45.361188 
L 102.448494 -45.617114 
L 101.76804 -45.892673 
L 101.087587 -46.187006 
L 100.407133 -46.498833 
L 99.72668 -46.826523 
L 99.046226 -47.168224 
L 98.365773 -47.522043 
L 97.68532 -47.886281 
L 97.004866 -48.259687 
L 96.324413 -48.641716 
L 95.643959 -49.032766 
L 94.963506 -49.43436 
L 94.283053 -49.849262 
L 93.602599 -50.281483 
L 92.922146 -50.736197 
L 92.241692 -51.219534 
L 91.561239 -51.738272 
L 90.880786 -52.29943 
L 90.200332 -52.909784 
L 89.519879 -53.575328 
L 88.839425 -54.300713 
L 88.158972 -55.08868 
L 87.478518 -55.939534 
L 86.798065 -56.85067 
L 86.117612 -57.816201 
L 85.437158 -58.826698 
L 84.756705 -59.869087 
L 84.076251 -60.926708 
L 83.395798 -61.97957 
L 82.715345 -63.00481 
L 82.034891 -63.977355 
L 81.354438 -64.870786 
L 80.673984 -65.658368 
L 79.993531 -66.31422 
L 79.313078 -66.814549 
L 78.632624 -67.138888 
L 77.952171 -67.271257 
L 77.271717 -67.201146 
L 76.591264 -66.924247 
L 75.91081 -66.442869 
L 75.230357 -65.765974 
L 74.549904 -64.908824 
L 73.86945 -63.89226 
L 73.188997 -62.741641 
L 72.508543 -61.485541 
L 71.82809 -60.154295 
L 71.147637 -58.778511 
L 70.467183 -57.387657 
L 69.78673 -56.008834 
L 69.106276 -54.665803 
L 68.425823 -53.378325 
L 67.74537 -52.161825 
L 67.064916 -51.027362 
L 66.384463 -49.981869 
L 65.704009 -49.028591 
L 65.023556 -48.167661 
L 64.343102 -47.396732 
L 63.662649 -46.711601 
L 62.982196 -46.106788 
L 62.301742 -45.576023 
L 61.621289 -45.112638 
L 60.940835 -44.709858 
L 60.260382 -44.361012 
L 59.579929 -44.059672 
L 58.899475 -43.799752 
L 58.219022 -43.575577 
L 57.538568 -43.381939 
L 56.858115 -43.214145 
L 56.177662 -43.068063 
L 55.497208 -42.940154 
L 54.816755 -42.827489 
L 54.136301 -42.727749 
L 53.455848 -42.639195 
L 52.775394 -42.560608 
L 52.094941 -42.491214 
L 51.414488 -42.430574 
L 50.734034 -42.378479 
L 50.053581 -42.334827 
L 49.373127 -42.299524 
L 48.692674 -42.272392 
L 48.012221 -42.253104 
L 47.331767 -42.241148 
L 46.651314 -42.235819 
L 45.97086 -42.236238 
L 45.290407 -42.241395 
L 44.609954 -42.250199 
L 43.9295 -42.261546 
L 43.249047 -42.274372 
L 42.568593 -42.287714 
L 41.88814 -42.300739 
L 41.207686 -42.312773 
L 40.527233 -42.323299 
L 39.84678 -42.331951 
L 39.166326 -42.338494 
L 38.485873 -42.342793 
L 37.805419 -42.344792 
L 37.124966 -42.344491 
L 36.444513 -42.341938 
L 35.764059 -42.337226 
L 35.083606 -42.330501 
L 34.403152 -42.321972 
L 33.722699 -42.311928 
L 33.042246 -42.300738 
L 32.361792 -42.288855 
L 31.681339 -42.276795 
L 31.000885 -42.265107 
L 30.320432 -42.254335 
L 29.639978 -42.24496 
L 28.959525 -42.237354 
L 28.279072 -42.231731 
L 27.598618 -42.228107 
L 26.918165 -42.226293 
L 26.237711 -42.225887 
L 25.557258 -42.226313 
L 24.876805 -42.226859 
L 24.196351 -42.226743 
L 23.515898 -42.225186 
L 22.835444 -42.221479 
L 22.154991 -42.215054 
L 21.474538 -42.20553 
L 20.794084 -42.192746 
L 20.113631 -42.176771 
L 19.433177 -42.15789 
L 18.752724 -42.136576 
L 18.07227 -42.113438 
L 17.391817 -42.089175 
L 16.711364 -42.064508 
z
" style="stroke: #414487; stroke-width: 1.25"/>
    </defs>
    <g>
     <use xlink:href="#m2e5edb775b" x="0" y="173.814844" style="fill: #414487; fill-opacity: 0.7; stroke: #414487; stroke-width: 1.25"/>
    </g>
   </g>
   <g id="line2d_9">
    <path d="M 7.2 131.94 
L 216.45 131.94 
" style="fill: none; stroke: #414487; stroke-opacity: 0.9; stroke-linecap: round"/>
   </g>
   <g id="text_15">
    <!-- 8 -->
    <g style="fill: #414487" transform="translate(7.2 130.892625) scale(0.12 -0.12)">
     <defs>
      <path id="Arial-BoldMT-38" d="M 1025 2472 
Q 684 2616 529 2867 
Q 375 3119 375 3419 
Q 375 3931 733 4265 
Q 1091 4600 1750 4600 
Q 2403 4600 2764 4265 
Q 3125 3931 3125 3419 
Q 3125 3100 2959 2851 
Q 2794 2603 2494 2472 
Q 2875 2319 3073 2025 
Q 3272 1731 3272 1347 
Q 3272 713 2867 316 
Q 2463 -81 1791 -81 
Q 1166 -81 750 247 
Q 259 634 259 1309 
Q 259 1681 443 1992 
Q 628 2303 1025 2472 
z
M 1206 3356 
Q 1206 3094 1354 2947 
Q 1503 2800 1750 2800 
Q 2000 2800 2150 2948 
Q 2300 3097 2300 3359 
Q 2300 3606 2151 3754 
Q 2003 3903 1759 3903 
Q 1506 3903 1356 3753 
Q 1206 3603 1206 3356 
z
M 1125 1394 
Q 1125 1031 1311 828 
Q 1497 625 1775 625 
Q 2047 625 2225 820 
Q 2403 1016 2403 1384 
Q 2403 1706 2222 1901 
Q 2041 2097 1763 2097 
Q 1441 2097 1283 1875 
Q 1125 1653 1125 1394 
z
" transform="scale(0.015625)"/>
     </defs>
     <use xlink:href="#Arial-BoldMT-38"/>
    </g>
   </g>
  </g>
 </g>
</svg>
