<?xml version="1.0" encoding="utf-8" standalone="no"?>
<!DOCTYPE svg PUBLIC "-//W3C//DTD SVG 1.1//EN"
  "http://www.w3.org/Graphics/SVG/1.1/DTD/svg11.dtd">
<svg xmlns:xlink="http://www.w3.org/1999/xlink" width="226.77318pt" height="173.814844pt" viewBox="0 0 226.77318 173.814844" xmlns="http://www.w3.org/2000/svg" version="1.1">
 <metadata>
  <rdf:RDF xmlns:dc="http://purl.org/dc/elements/1.1/" xmlns:cc="http://creativecommons.org/ns#" xmlns:rdf="http://www.w3.org/1999/02/22-rdf-syntax-ns#">
   <cc:Work>
    <dc:type rdf:resource="http://purl.org/dc/dcmitype/StillImage"/>
    <dc:date>2023-07-20T12:10:06.386229</dc:date>
    <dc:format>image/svg+xml</dc:format>
    <dc:creator>
     <cc:Agent>
      <dc:title>Matplotlib v3.7.1, https://matplotlib.org/</dc:title>
     </cc:Agent>
    </dc:creator>
   </cc:Work>
  </rdf:RDF>
 </metadata>
 <defs>
  <style type="text/css">*{stroke-linejoin: round; stroke-linecap: butt}</style>
 </defs>
 <g id="figure_1">
  <g id="patch_1">
   <path d="M 0 173.814844 
L 226.77318 173.814844 
L 226.77318 0 
L 0 0 
L 0 173.814844 
z
" style="fill: none"/>
  </g>
  <g id="axes_1">
   <g id="patch_2">
    <path d="M 7.2 48.78 
L 216.45 48.78 
L 216.45 7.2 
L 7.2 7.2 
L 7.2 48.78 
z
" style="fill: none"/>
   </g>
   <g id="matplotlib.axis_1">
    <g id="xtick_1"/>
    <g id="xtick_2"/>
    <g id="xtick_3"/>
    <g id="xtick_4"/>
   </g>
   <g id="matplotlib.axis_2"/>
   <g id="line2d_1">
    <path d="M 7.2 48.78 
L 216.45 48.78 
" style="fill: none; stroke: #482475; stroke-opacity: 0.9; stroke-linecap: round"/>
   </g>
   <g id="text_1">
    <!-- 0 -->
    <g style="fill: #482475" transform="translate(7.2 47.732625) scale(0.12 -0.12)">
     <defs>
      <path id="Arial-BoldMT-30" d="M 1756 4600 
Q 2422 4600 2797 4125 
Q 3244 3563 3244 2259 
Q 3244 959 2794 391 
Q 2422 -78 1756 -78 
Q 1088 -78 678 436 
Q 269 950 269 2269 
Q 269 3563 719 4131 
Q 1091 4600 1756 4600 
z
M 1756 3872 
Q 1597 3872 1472 3770 
Q 1347 3669 1278 3406 
Q 1188 3066 1188 2259 
Q 1188 1453 1269 1151 
Q 1350 850 1473 750 
Q 1597 650 1756 650 
Q 1916 650 2041 751 
Q 2166 853 2234 1116 
Q 2325 1453 2325 2259 
Q 2325 3066 2244 3367 
Q 2163 3669 2039 3770 
Q 1916 3872 1756 3872 
z
" transform="scale(0.015625)"/>
     </defs>
     <use xlink:href="#Arial-BoldMT-30"/>
    </g>
   </g>
  </g>
  <g id="axes_2">
   <g id="patch_3">
    <path d="M 7.2 59.175 
L 216.45 59.175 
L 216.45 17.595 
L 7.2 17.595 
L 7.2 59.175 
z
" style="fill: none"/>
   </g>
   <g id="matplotlib.axis_3">
    <g id="xtick_5"/>
    <g id="xtick_6"/>
    <g id="xtick_7"/>
    <g id="xtick_8"/>
   </g>
   <g id="matplotlib.axis_4"/>
   <g id="PolyCollection_1">
    <defs>
     <path id="ma178e5ca10" d="M 81.211841 -117.294936 
L 81.211841 -114.639844 
L 81.44704 -114.639844 
L 81.68224 -114.639844 
L 81.917439 -114.639844 
L 82.152639 -114.639844 
L 82.387838 -114.639844 
L 82.623038 -114.639844 
L 82.858237 -114.639844 
L 83.093437 -114.639844 
L 83.328637 -114.639844 
L 83.563836 -114.639844 
L 83.799036 -114.639844 
L 84.034235 -114.639844 
L 84.269435 -114.639844 
L 84.504634 -114.639844 
L 84.739834 -114.639844 
L 84.975033 -114.639844 
L 85.210233 -114.639844 
L 85.445433 -114.639844 
L 85.680632 -114.639844 
L 85.915832 -114.639844 
L 86.151031 -114.639844 
L 86.386231 -114.639844 
L 86.62143 -114.639844 
L 86.85663 -114.639844 
L 87.091829 -114.639844 
L 87.327029 -114.639844 
L 87.562229 -114.639844 
L 87.797428 -114.639844 
L 88.032628 -114.639844 
L 88.267827 -114.639844 
L 88.503027 -114.639844 
L 88.738226 -114.639844 
L 88.973426 -114.639844 
L 89.208626 -114.639844 
L 89.443825 -114.639844 
L 89.679025 -114.639844 
L 89.914224 -114.639844 
L 90.149424 -114.639844 
L 90.384623 -114.639844 
L 90.619823 -114.639844 
L 90.855022 -114.639844 
L 91.090222 -114.639844 
L 91.325422 -114.639844 
L 91.560621 -114.639844 
L 91.795821 -114.639844 
L 92.03102 -114.639844 
L 92.26622 -114.639844 
L 92.501419 -114.639844 
L 92.736619 -114.639844 
L 92.971818 -114.639844 
L 93.207018 -114.639844 
L 93.442218 -114.639844 
L 93.677417 -114.639844 
L 93.912617 -114.639844 
L 94.147816 -114.639844 
L 94.383016 -114.639844 
L 94.618215 -114.639844 
L 94.853415 -114.639844 
L 95.088615 -114.639844 
L 95.323814 -114.639844 
L 95.559014 -114.639844 
L 95.794213 -114.639844 
L 96.029413 -114.639844 
L 96.264612 -114.639844 
L 96.499812 -114.639844 
L 96.735011 -114.639844 
L 96.970211 -114.639844 
L 97.205411 -114.639844 
L 97.44061 -114.639844 
L 97.67581 -114.639844 
L 97.911009 -114.639844 
L 98.146209 -114.639844 
L 98.381408 -114.639844 
L 98.616608 -114.639844 
L 98.851807 -114.639844 
L 99.087007 -114.639844 
L 99.322207 -114.639844 
L 99.557406 -114.639844 
L 99.792606 -114.639844 
L 100.027805 -114.639844 
L 100.263005 -114.639844 
L 100.498204 -114.639844 
L 100.733404 -114.639844 
L 100.968603 -114.639844 
L 101.203803 -114.639844 
L 101.439003 -114.639844 
L 101.674202 -114.639844 
L 101.909402 -114.639844 
L 102.144601 -114.639844 
L 102.379801 -114.639844 
L 102.615 -114.639844 
L 102.8502 -114.639844 
L 103.0854 -114.639844 
L 103.320599 -114.639844 
L 103.555799 -114.639844 
L 103.790998 -114.639844 
L 104.026198 -114.639844 
L 104.261397 -114.639844 
L 104.496597 -114.639844 
L 104.731796 -114.639844 
L 104.966996 -114.639844 
L 105.202196 -114.639844 
L 105.437395 -114.639844 
L 105.672595 -114.639844 
L 105.907794 -114.639844 
L 106.142994 -114.639844 
L 106.378193 -114.639844 
L 106.613393 -114.639844 
L 106.848592 -114.639844 
L 107.083792 -114.639844 
L 107.318992 -114.639844 
L 107.554191 -114.639844 
L 107.789391 -114.639844 
L 108.02459 -114.639844 
L 108.25979 -114.639844 
L 108.494989 -114.639844 
L 108.730189 -114.639844 
L 108.965388 -114.639844 
L 109.200588 -114.639844 
L 109.435788 -114.639844 
L 109.670987 -114.639844 
L 109.906187 -114.639844 
L 110.141386 -114.639844 
L 110.376586 -114.639844 
L 110.611785 -114.639844 
L 110.846985 -114.639844 
L 111.082185 -114.639844 
L 111.317384 -114.639844 
L 111.552584 -114.639844 
L 111.787783 -114.639844 
L 112.022983 -114.639844 
L 112.258182 -114.639844 
L 112.493382 -114.639844 
L 112.728581 -114.639844 
L 112.963781 -114.639844 
L 113.198981 -114.639844 
L 113.43418 -114.639844 
L 113.66938 -114.639844 
L 113.904579 -114.639844 
L 114.139779 -114.639844 
L 114.374978 -114.639844 
L 114.610178 -114.639844 
L 114.845377 -114.639844 
L 115.080577 -114.639844 
L 115.315777 -114.639844 
L 115.550976 -114.639844 
L 115.786176 -114.639844 
L 116.021375 -114.639844 
L 116.256575 -114.639844 
L 116.491774 -114.639844 
L 116.726974 -114.639844 
L 116.962173 -114.639844 
L 117.197373 -114.639844 
L 117.432573 -114.639844 
L 117.667772 -114.639844 
L 117.902972 -114.639844 
L 118.138171 -114.639844 
L 118.373371 -114.639844 
L 118.60857 -114.639844 
L 118.84377 -114.639844 
L 119.07897 -114.639844 
L 119.314169 -114.639844 
L 119.549369 -114.639844 
L 119.784568 -114.639844 
L 120.019768 -114.639844 
L 120.254967 -114.639844 
L 120.490167 -114.639844 
L 120.725366 -114.639844 
L 120.960566 -114.639844 
L 121.195766 -114.639844 
L 121.430965 -114.639844 
L 121.666165 -114.639844 
L 121.901364 -114.639844 
L 122.136564 -114.639844 
L 122.371763 -114.639844 
L 122.606963 -114.639844 
L 122.842162 -114.639844 
L 123.077362 -114.639844 
L 123.312562 -114.639844 
L 123.547761 -114.639844 
L 123.782961 -114.639844 
L 124.01816 -114.639844 
L 124.25336 -114.639844 
L 124.488559 -114.639844 
L 124.723759 -114.639844 
L 124.958958 -114.639844 
L 125.194158 -114.639844 
L 125.429358 -114.639844 
L 125.664557 -114.639844 
L 125.899757 -114.639844 
L 126.134956 -114.639844 
L 126.370156 -114.639844 
L 126.605355 -114.639844 
L 126.840555 -114.639844 
L 127.075755 -114.639844 
L 127.310954 -114.639844 
L 127.546154 -114.639844 
L 127.781353 -114.639844 
L 128.016553 -114.639844 
L 128.016553 -120.822909 
L 128.016553 -120.822909 
L 127.781353 -121.422598 
L 127.546154 -122.056078 
L 127.310954 -122.722439 
L 127.075755 -123.42043 
L 126.840555 -124.148466 
L 126.605355 -124.904624 
L 126.370156 -125.686656 
L 126.134956 -126.491999 
L 125.899757 -127.3178 
L 125.664557 -128.160937 
L 125.429358 -129.018051 
L 125.194158 -129.885582 
L 124.958958 -130.759801 
L 124.723759 -131.63686 
L 124.488559 -132.51283 
L 124.25336 -133.383748 
L 124.01816 -134.245664 
L 123.782961 -135.094687 
L 123.547761 -135.927031 
L 123.312562 -136.739058 
L 123.077362 -137.527321 
L 122.842162 -138.288604 
L 122.606963 -139.019955 
L 122.371763 -139.71872 
L 122.136564 -140.38257 
L 121.901364 -141.009523 
L 121.666165 -141.597966 
L 121.430965 -142.146664 
L 121.195766 -142.654775 
L 120.960566 -143.121846 
L 120.725366 -143.547821 
L 120.490167 -143.93303 
L 120.254967 -144.278183 
L 120.019768 -144.584355 
L 119.784568 -144.852967 
L 119.549369 -145.085769 
L 119.314169 -145.28481 
L 119.07897 -145.452415 
L 118.84377 -145.591152 
L 118.60857 -145.7038 
L 118.373371 -145.793312 
L 118.138171 -145.862785 
L 117.902972 -145.915415 
L 117.667772 -145.954464 
L 117.432573 -145.98322 
L 117.197373 -146.004962 
L 116.962173 -146.022919 
L 116.726974 -146.040239 
L 116.491774 -146.059953 
L 116.256575 -146.084946 
L 116.021375 -146.117929 
L 115.786176 -146.161409 
L 115.550976 -146.217674 
L 115.315777 -146.288768 
L 115.080577 -146.376478 
L 114.845377 -146.482321 
L 114.610178 -146.607537 
L 114.374978 -146.753077 
L 114.139779 -146.919603 
L 113.904579 -147.107486 
L 113.66938 -147.316803 
L 113.43418 -147.54734 
L 113.198981 -147.798593 
L 112.963781 -148.069772 
L 112.728581 -148.359802 
L 112.493382 -148.667329 
L 112.258182 -148.990719 
L 112.022983 -149.328068 
L 111.787783 -149.677201 
L 111.552584 -150.035681 
L 111.317384 -150.400813 
L 111.082185 -150.769653 
L 110.846985 -151.139017 
L 110.611785 -151.505499 
L 110.376586 -151.865483 
L 110.141386 -152.215163 
L 109.906187 -152.550574 
L 109.670987 -152.867617 
L 109.435788 -153.162099 
L 109.200588 -153.429766 
L 108.965388 -153.666358 
L 108.730189 -153.867651 
L 108.494989 -154.029515 
L 108.25979 -154.147971 
L 108.02459 -154.219247 
L 107.789391 -154.239844 
L 107.554191 -154.206589 
L 107.318992 -154.1167 
L 107.083792 -153.967836 
L 106.848592 -153.758145 
L 106.613393 -153.486316 
L 106.378193 -153.151606 
L 106.142994 -152.753871 
L 105.907794 -152.293583 
L 105.672595 -151.771837 
L 105.437395 -151.190344 
L 105.202196 -150.551419 
L 104.966996 -149.85795 
L 104.731796 -149.113366 
L 104.496597 -148.321583 
L 104.261397 -147.486952 
L 104.026198 -146.614197 
L 103.790998 -145.708339 
L 103.555799 -144.774629 
L 103.320599 -143.818465 
L 103.0854 -142.845318 
L 102.8502 -141.860655 
L 102.615 -140.869863 
L 102.379801 -139.878179 
L 102.144601 -138.890628 
L 101.909402 -137.911964 
L 101.674202 -136.946619 
L 101.439003 -135.998664 
L 101.203803 -135.071777 
L 100.968603 -134.169219 
L 100.733404 -133.29382 
L 100.498204 -132.44798 
L 100.263005 -131.633664 
L 100.027805 -130.852423 
L 99.792606 -130.105406 
L 99.557406 -129.393392 
L 99.322207 -128.716812 
L 99.087007 -128.075791 
L 98.851807 -127.470178 
L 98.616608 -126.899591 
L 98.381408 -126.363451 
L 98.146209 -125.861023 
L 97.911009 -125.391457 
L 97.67581 -124.953817 
L 97.44061 -124.547121 
L 97.205411 -124.170366 
L 96.970211 -123.822558 
L 96.735011 -123.50273 
L 96.499812 -123.209963 
L 96.264612 -122.943397 
L 96.029413 -122.702241 
L 95.794213 -122.485774 
L 95.559014 -122.29335 
L 95.323814 -122.124387 
L 95.088615 -121.978366 
L 94.853415 -121.854812 
L 94.618215 -121.753285 
L 94.383016 -121.673362 
L 94.147816 -121.614615 
L 93.912617 -121.576595 
L 93.677417 -121.558807 
L 93.442218 -121.560693 
L 93.207018 -121.581609 
L 92.971818 -121.620807 
L 92.736619 -121.677416 
L 92.501419 -121.750428 
L 92.26622 -121.838688 
L 92.03102 -121.940883 
L 91.795821 -122.055536 
L 91.560621 -122.18101 
L 91.325422 -122.315506 
L 91.090222 -122.457076 
L 90.855022 -122.603634 
L 90.619823 -122.752973 
L 90.384623 -122.902785 
L 90.149424 -123.050688 
L 89.914224 -123.194256 
L 89.679025 -123.331045 
L 89.443825 -123.458631 
L 89.208626 -123.574644 
L 88.973426 -123.6768 
L 88.738226 -123.762942 
L 88.503027 -123.831068 
L 88.267827 -123.87937 
L 88.032628 -123.906258 
L 87.797428 -123.91039 
L 87.562229 -123.890691 
L 87.327029 -123.846377 
L 87.091829 -123.77696 
L 86.85663 -123.682263 
L 86.62143 -123.562416 
L 86.386231 -123.417857 
L 86.151031 -123.24932 
L 85.915832 -123.057822 
L 85.680632 -122.844642 
L 85.445433 -122.611301 
L 85.210233 -122.359529 
L 84.975033 -122.091242 
L 84.739834 -121.8085 
L 84.504634 -121.513479 
L 84.269435 -121.208431 
L 84.034235 -120.895651 
L 83.799036 -120.57744 
L 83.563836 -120.256073 
L 83.328637 -119.933762 
L 83.093437 -119.612636 
L 82.858237 -119.294706 
L 82.623038 -118.981846 
L 82.387838 -118.675776 
L 82.152639 -118.378042 
L 81.917439 -118.090011 
L 81.68224 -117.812859 
L 81.44704 -117.54757 
L 81.211841 -117.294936 
z
" style="stroke: #414487; stroke-width: 1.25"/>
    </defs>
    <g>
     <use xlink:href="#ma178e5ca10" x="0" y="173.814844" style="fill: #414487; fill-opacity: 0.7; stroke: #414487; stroke-width: 1.25"/>
    </g>
   </g>
   <g id="line2d_2">
    <path d="M 7.2 59.175 
L 216.45 59.175 
" style="fill: none; stroke: #414487; stroke-opacity: 0.9; stroke-linecap: round"/>
   </g>
   <g id="text_2">
    <!-- 1 -->
    <g style="fill: #414487" transform="translate(7.2 58.127625) scale(0.12 -0.12)">
     <defs>
      <path id="Arial-BoldMT-31" d="M 2519 0 
L 1641 0 
L 1641 3309 
Q 1159 2859 506 2644 
L 506 3441 
Q 850 3553 1253 3867 
Q 1656 4181 1806 4600 
L 2519 4600 
L 2519 0 
z
" transform="scale(0.015625)"/>
     </defs>
     <use xlink:href="#Arial-BoldMT-31"/>
    </g>
   </g>
  </g>
  <g id="axes_3">
   <g id="patch_4">
    <path d="M 7.2 69.57 
L 216.45 69.57 
L 216.45 27.99 
L 7.2 27.99 
L 7.2 69.57 
z
" style="fill: none"/>
   </g>
   <g id="matplotlib.axis_5">
    <g id="xtick_9"/>
    <g id="xtick_10"/>
    <g id="xtick_11"/>
    <g id="xtick_12"/>
   </g>
   <g id="matplotlib.axis_6"/>
   <g id="PolyCollection_2">
    <defs>
     <path id="m3c0eebc2c2" d="M 57.183681 -105.654008 
L 57.183681 -104.244844 
L 57.666251 -104.244844 
L 58.148821 -104.244844 
L 58.631391 -104.244844 
L 59.113961 -104.244844 
L 59.596531 -104.244844 
L 60.079101 -104.244844 
L 60.561672 -104.244844 
L 61.044242 -104.244844 
L 61.526812 -104.244844 
L 62.009382 -104.244844 
L 62.491952 -104.244844 
L 62.974522 -104.244844 
L 63.457092 -104.244844 
L 63.939662 -104.244844 
L 64.422232 -104.244844 
L 64.904802 -104.244844 
L 65.387372 -104.244844 
L 65.869942 -104.244844 
L 66.352512 -104.244844 
L 66.835082 -104.244844 
L 67.317652 -104.244844 
L 67.800222 -104.244844 
L 68.282793 -104.244844 
L 68.765363 -104.244844 
L 69.247933 -104.244844 
L 69.730503 -104.244844 
L 70.213073 -104.244844 
L 70.695643 -104.244844 
L 71.178213 -104.244844 
L 71.660783 -104.244844 
L 72.143353 -104.244844 
L 72.625923 -104.244844 
L 73.108493 -104.244844 
L 73.591063 -104.244844 
L 74.073633 -104.244844 
L 74.556203 -104.244844 
L 75.038773 -104.244844 
L 75.521343 -104.244844 
L 76.003914 -104.244844 
L 76.486484 -104.244844 
L 76.969054 -104.244844 
L 77.451624 -104.244844 
L 77.934194 -104.244844 
L 78.416764 -104.244844 
L 78.899334 -104.244844 
L 79.381904 -104.244844 
L 79.864474 -104.244844 
L 80.347044 -104.244844 
L 80.829614 -104.244844 
L 81.312184 -104.244844 
L 81.794754 -104.244844 
L 82.277324 -104.244844 
L 82.759894 -104.244844 
L 83.242464 -104.244844 
L 83.725035 -104.244844 
L 84.207605 -104.244844 
L 84.690175 -104.244844 
L 85.172745 -104.244844 
L 85.655315 -104.244844 
L 86.137885 -104.244844 
L 86.620455 -104.244844 
L 87.103025 -104.244844 
L 87.585595 -104.244844 
L 88.068165 -104.244844 
L 88.550735 -104.244844 
L 89.033305 -104.244844 
L 89.515875 -104.244844 
L 89.998445 -104.244844 
L 90.481015 -104.244844 
L 90.963585 -104.244844 
L 91.446156 -104.244844 
L 91.928726 -104.244844 
L 92.411296 -104.244844 
L 92.893866 -104.244844 
L 93.376436 -104.244844 
L 93.859006 -104.244844 
L 94.341576 -104.244844 
L 94.824146 -104.244844 
L 95.306716 -104.244844 
L 95.789286 -104.244844 
L 96.271856 -104.244844 
L 96.754426 -104.244844 
L 97.236996 -104.244844 
L 97.719566 -104.244844 
L 98.202136 -104.244844 
L 98.684706 -104.244844 
L 99.167277 -104.244844 
L 99.649847 -104.244844 
L 100.132417 -104.244844 
L 100.614987 -104.244844 
L 101.097557 -104.244844 
L 101.580127 -104.244844 
L 102.062697 -104.244844 
L 102.545267 -104.244844 
L 103.027837 -104.244844 
L 103.510407 -104.244844 
L 103.992977 -104.244844 
L 104.475547 -104.244844 
L 104.958117 -104.244844 
L 105.440687 -104.244844 
L 105.923257 -104.244844 
L 106.405827 -104.244844 
L 106.888398 -104.244844 
L 107.370968 -104.244844 
L 107.853538 -104.244844 
L 108.336108 -104.244844 
L 108.818678 -104.244844 
L 109.301248 -104.244844 
L 109.783818 -104.244844 
L 110.266388 -104.244844 
L 110.748958 -104.244844 
L 111.231528 -104.244844 
L 111.714098 -104.244844 
L 112.196668 -104.244844 
L 112.679238 -104.244844 
L 113.161808 -104.244844 
L 113.644378 -104.244844 
L 114.126948 -104.244844 
L 114.609519 -104.244844 
L 115.092089 -104.244844 
L 115.574659 -104.244844 
L 116.057229 -104.244844 
L 116.539799 -104.244844 
L 117.022369 -104.244844 
L 117.504939 -104.244844 
L 117.987509 -104.244844 
L 118.470079 -104.244844 
L 118.952649 -104.244844 
L 119.435219 -104.244844 
L 119.917789 -104.244844 
L 120.400359 -104.244844 
L 120.882929 -104.244844 
L 121.365499 -104.244844 
L 121.848069 -104.244844 
L 122.33064 -104.244844 
L 122.81321 -104.244844 
L 123.29578 -104.244844 
L 123.77835 -104.244844 
L 124.26092 -104.244844 
L 124.74349 -104.244844 
L 125.22606 -104.244844 
L 125.70863 -104.244844 
L 126.1912 -104.244844 
L 126.67377 -104.244844 
L 127.15634 -104.244844 
L 127.63891 -104.244844 
L 128.12148 -104.244844 
L 128.60405 -104.244844 
L 129.08662 -104.244844 
L 129.56919 -104.244844 
L 130.051761 -104.244844 
L 130.534331 -104.244844 
L 131.016901 -104.244844 
L 131.499471 -104.244844 
L 131.982041 -104.244844 
L 132.464611 -104.244844 
L 132.947181 -104.244844 
L 133.429751 -104.244844 
L 133.912321 -104.244844 
L 134.394891 -104.244844 
L 134.877461 -104.244844 
L 135.360031 -104.244844 
L 135.842601 -104.244844 
L 136.325171 -104.244844 
L 136.807741 -104.244844 
L 137.290311 -104.244844 
L 137.772882 -104.244844 
L 138.255452 -104.244844 
L 138.738022 -104.244844 
L 139.220592 -104.244844 
L 139.703162 -104.244844 
L 140.185732 -104.244844 
L 140.668302 -104.244844 
L 141.150872 -104.244844 
L 141.633442 -104.244844 
L 142.116012 -104.244844 
L 142.598582 -104.244844 
L 143.081152 -104.244844 
L 143.563722 -104.244844 
L 144.046292 -104.244844 
L 144.528862 -104.244844 
L 145.011432 -104.244844 
L 145.494003 -104.244844 
L 145.976573 -104.244844 
L 146.459143 -104.244844 
L 146.941713 -104.244844 
L 147.424283 -104.244844 
L 147.906853 -104.244844 
L 148.389423 -104.244844 
L 148.871993 -104.244844 
L 149.354563 -104.244844 
L 149.837133 -104.244844 
L 150.319703 -104.244844 
L 150.802273 -104.244844 
L 151.284843 -104.244844 
L 151.767413 -104.244844 
L 152.249983 -104.244844 
L 152.732553 -104.244844 
L 153.215123 -104.244844 
L 153.215123 -107.317731 
L 153.215123 -107.317731 
L 152.732553 -107.613351 
L 152.249983 -107.924938 
L 151.767413 -108.251895 
L 151.284843 -108.593446 
L 150.802273 -108.948642 
L 150.319703 -109.316364 
L 149.837133 -109.69533 
L 149.354563 -110.084108 
L 148.871993 -110.481131 
L 148.389423 -110.884712 
L 147.906853 -111.293067 
L 147.424283 -111.704339 
L 146.941713 -112.116619 
L 146.459143 -112.527976 
L 145.976573 -112.936483 
L 145.494003 -113.340248 
L 145.011432 -113.737434 
L 144.528862 -114.126292 
L 144.046292 -114.505187 
L 143.563722 -114.872612 
L 143.081152 -115.22722 
L 142.598582 -115.567831 
L 142.116012 -115.893452 
L 141.633442 -116.203283 
L 141.150872 -116.496728 
L 140.668302 -116.773393 
L 140.185732 -117.033085 
L 139.703162 -117.275809 
L 139.220592 -117.501757 
L 138.738022 -117.711298 
L 138.255452 -117.904963 
L 137.772882 -118.083428 
L 137.290311 -118.247497 
L 136.807741 -118.398082 
L 136.325171 -118.536182 
L 135.842601 -118.662867 
L 135.360031 -118.779253 
L 134.877461 -118.886488 
L 134.394891 -118.985736 
L 133.912321 -119.078155 
L 133.429751 -119.164893 
L 132.947181 -119.247069 
L 132.464611 -119.325768 
L 131.982041 -119.402033 
L 131.499471 -119.476863 
L 131.016901 -119.551204 
L 130.534331 -119.625956 
L 130.051761 -119.701969 
L 129.56919 -119.780043 
L 129.08662 -119.860933 
L 128.60405 -119.945351 
L 128.12148 -120.033965 
L 127.63891 -120.127404 
L 127.15634 -120.226255 
L 126.67377 -120.331062 
L 126.1912 -120.442325 
L 125.70863 -120.560492 
L 125.22606 -120.685956 
L 124.74349 -120.819041 
L 124.26092 -120.959997 
L 123.77835 -121.10898 
L 123.29578 -121.266043 
L 122.81321 -121.431122 
L 122.33064 -121.604014 
L 121.848069 -121.784367 
L 121.365499 -121.971661 
L 120.882929 -122.165194 
L 120.400359 -122.364075 
L 119.917789 -122.567206 
L 119.435219 -122.773283 
L 118.952649 -122.980788 
L 118.470079 -123.187996 
L 117.987509 -123.392977 
L 117.504939 -123.593609 
L 117.022369 -123.787596 
L 116.539799 -123.972491 
L 116.057229 -124.145719 
L 115.574659 -124.304611 
L 115.092089 -124.446444 
L 114.609519 -124.568475 
L 114.126948 -124.667986 
L 113.644378 -124.742333 
L 113.161808 -124.788985 
L 112.679238 -124.805577 
L 112.196668 -124.789952 
L 111.714098 -124.740204 
L 111.231528 -124.654722 
L 110.748958 -124.532218 
L 110.266388 -124.371769 
L 109.783818 -124.172832 
L 109.301248 -123.935269 
L 108.818678 -123.659355 
L 108.336108 -123.345782 
L 107.853538 -122.99566 
L 107.370968 -122.610497 
L 106.888398 -122.19219 
L 106.405827 -121.742992 
L 105.923257 -121.265485 
L 105.440687 -120.762538 
L 104.958117 -120.23727 
L 104.475547 -119.692999 
L 103.992977 -119.133197 
L 103.510407 -118.561438 
L 103.027837 -117.981347 
L 102.545267 -117.39655 
L 102.062697 -116.810624 
L 101.580127 -116.227055 
L 101.097557 -115.649187 
L 100.614987 -115.080192 
L 100.132417 -114.523032 
L 99.649847 -113.980427 
L 99.167277 -113.454837 
L 98.684706 -112.948439 
L 98.202136 -112.463119 
L 97.719566 -112.000461 
L 97.236996 -111.561747 
L 96.754426 -111.14796 
L 96.271856 -110.759793 
L 95.789286 -110.397657 
L 95.306716 -110.061698 
L 94.824146 -109.751814 
L 94.341576 -109.46768 
L 93.859006 -109.208761 
L 93.376436 -108.974344 
L 92.893866 -108.763558 
L 92.411296 -108.575399 
L 91.928726 -108.408756 
L 91.446156 -108.262435 
L 90.963585 -108.13518 
L 90.481015 -108.0257 
L 89.998445 -107.932685 
L 89.515875 -107.854831 
L 89.033305 -107.790855 
L 88.550735 -107.739511 
L 88.068165 -107.699608 
L 87.585595 -107.670018 
L 87.103025 -107.649687 
L 86.620455 -107.637647 
L 86.137885 -107.633016 
L 85.655315 -107.635004 
L 85.172745 -107.642916 
L 84.690175 -107.656146 
L 84.207605 -107.674176 
L 83.725035 -107.696573 
L 83.242464 -107.722976 
L 82.759894 -107.753089 
L 82.277324 -107.786673 
L 81.794754 -107.823527 
L 81.312184 -107.863482 
L 80.829614 -107.906384 
L 80.347044 -107.952077 
L 79.864474 -108.000396 
L 79.381904 -108.051149 
L 78.899334 -108.104104 
L 78.416764 -108.158984 
L 77.934194 -108.215451 
L 77.451624 -108.273105 
L 76.969054 -108.331474 
L 76.486484 -108.390016 
L 76.003914 -108.44812 
L 75.521343 -108.505103 
L 75.038773 -108.560223 
L 74.556203 -108.612685 
L 74.073633 -108.661649 
L 73.591063 -108.706249 
L 73.108493 -108.745602 
L 72.625923 -108.778825 
L 72.143353 -108.805056 
L 71.660783 -108.823467 
L 71.178213 -108.833284 
L 70.695643 -108.833804 
L 70.213073 -108.824408 
L 69.730503 -108.80458 
L 69.247933 -108.773917 
L 68.765363 -108.732138 
L 68.282793 -108.679097 
L 67.800222 -108.614781 
L 67.317652 -108.53932 
L 66.835082 -108.452979 
L 66.352512 -108.356161 
L 65.869942 -108.249396 
L 65.387372 -108.133335 
L 64.904802 -108.008734 
L 64.422232 -107.87645 
L 63.939662 -107.737414 
L 63.457092 -107.592625 
L 62.974522 -107.443128 
L 62.491952 -107.289996 
L 62.009382 -107.134316 
L 61.526812 -106.977169 
L 61.044242 -106.819613 
L 60.561672 -106.662672 
L 60.079101 -106.507318 
L 59.596531 -106.354461 
L 59.113961 -106.20494 
L 58.631391 -106.05951 
L 58.148821 -105.918841 
L 57.666251 -105.783512 
L 57.183681 -105.654008 
z
" style="stroke: #21918c; stroke-width: 1.25"/>
    </defs>
    <g>
     <use xlink:href="#m3c0eebc2c2" x="0" y="173.814844" style="fill: #21918c; fill-opacity: 0.7; stroke: #21918c; stroke-width: 1.25"/>
    </g>
   </g>
   <g id="line2d_3">
    <path d="M 7.2 69.57 
L 216.45 69.57 
" style="fill: none; stroke: #21918c; stroke-opacity: 0.9; stroke-linecap: round"/>
   </g>
   <g id="text_3">
    <!-- 2 -->
    <g style="fill: #21918c" transform="translate(7.2 68.522625) scale(0.12 -0.12)">
     <defs>
      <path id="Arial-BoldMT-32" d="M 3238 816 
L 3238 0 
L 159 0 
Q 209 463 459 877 
Q 709 1291 1447 1975 
Q 2041 2528 2175 2725 
Q 2356 2997 2356 3263 
Q 2356 3556 2198 3714 
Q 2041 3872 1763 3872 
Q 1488 3872 1325 3706 
Q 1163 3541 1138 3156 
L 263 3244 
Q 341 3969 753 4284 
Q 1166 4600 1784 4600 
Q 2463 4600 2850 4234 
Q 3238 3869 3238 3325 
Q 3238 3016 3127 2736 
Q 3016 2456 2775 2150 
Q 2616 1947 2200 1565 
Q 1784 1184 1673 1059 
Q 1563 934 1494 816 
L 3238 816 
z
" transform="scale(0.015625)"/>
     </defs>
     <use xlink:href="#Arial-BoldMT-32"/>
    </g>
   </g>
  </g>
  <g id="axes_4">
   <g id="patch_5">
    <path d="M 7.2 79.965 
L 216.45 79.965 
L 216.45 38.385 
L 7.2 38.385 
L 7.2 79.965 
z
" style="fill: none"/>
   </g>
   <g id="matplotlib.axis_7">
    <g id="xtick_13"/>
    <g id="xtick_14"/>
    <g id="xtick_15"/>
    <g id="xtick_16"/>
   </g>
   <g id="matplotlib.axis_8"/>
   <g id="PolyCollection_3">
    <defs>
     <path id="md618825e6c" d="M 37.059896 -94.546187 
L 37.059896 -93.849844 
L 37.761091 -93.849844 
L 38.462286 -93.849844 
L 39.163481 -93.849844 
L 39.864675 -93.849844 
L 40.56587 -93.849844 
L 41.267065 -93.849844 
L 41.96826 -93.849844 
L 42.669455 -93.849844 
L 43.370649 -93.849844 
L 44.071844 -93.849844 
L 44.773039 -93.849844 
L 45.474234 -93.849844 
L 46.175428 -93.849844 
L 46.876623 -93.849844 
L 47.577818 -93.849844 
L 48.279013 -93.849844 
L 48.980207 -93.849844 
L 49.681402 -93.849844 
L 50.382597 -93.849844 
L 51.083792 -93.849844 
L 51.784986 -93.849844 
L 52.486181 -93.849844 
L 53.187376 -93.849844 
L 53.888571 -93.849844 
L 54.589766 -93.849844 
L 55.29096 -93.849844 
L 55.992155 -93.849844 
L 56.69335 -93.849844 
L 57.394545 -93.849844 
L 58.095739 -93.849844 
L 58.796934 -93.849844 
L 59.498129 -93.849844 
L 60.199324 -93.849844 
L 60.900518 -93.849844 
L 61.601713 -93.849844 
L 62.302908 -93.849844 
L 63.004103 -93.849844 
L 63.705297 -93.849844 
L 64.406492 -93.849844 
L 65.107687 -93.849844 
L 65.808882 -93.849844 
L 66.510076 -93.849844 
L 67.211271 -93.849844 
L 67.912466 -93.849844 
L 68.613661 -93.849844 
L 69.314856 -93.849844 
L 70.01605 -93.849844 
L 70.717245 -93.849844 
L 71.41844 -93.849844 
L 72.119635 -93.849844 
L 72.820829 -93.849844 
L 73.522024 -93.849844 
L 74.223219 -93.849844 
L 74.924414 -93.849844 
L 75.625608 -93.849844 
L 76.326803 -93.849844 
L 77.027998 -93.849844 
L 77.729193 -93.849844 
L 78.430387 -93.849844 
L 79.131582 -93.849844 
L 79.832777 -93.849844 
L 80.533972 -93.849844 
L 81.235167 -93.849844 
L 81.936361 -93.849844 
L 82.637556 -93.849844 
L 83.338751 -93.849844 
L 84.039946 -93.849844 
L 84.74114 -93.849844 
L 85.442335 -93.849844 
L 86.14353 -93.849844 
L 86.844725 -93.849844 
L 87.545919 -93.849844 
L 88.247114 -93.849844 
L 88.948309 -93.849844 
L 89.649504 -93.849844 
L 90.350698 -93.849844 
L 91.051893 -93.849844 
L 91.753088 -93.849844 
L 92.454283 -93.849844 
L 93.155478 -93.849844 
L 93.856672 -93.849844 
L 94.557867 -93.849844 
L 95.259062 -93.849844 
L 95.960257 -93.849844 
L 96.661451 -93.849844 
L 97.362646 -93.849844 
L 98.063841 -93.849844 
L 98.765036 -93.849844 
L 99.46623 -93.849844 
L 100.167425 -93.849844 
L 100.86862 -93.849844 
L 101.569815 -93.849844 
L 102.271009 -93.849844 
L 102.972204 -93.849844 
L 103.673399 -93.849844 
L 104.374594 -93.849844 
L 105.075789 -93.849844 
L 105.776983 -93.849844 
L 106.478178 -93.849844 
L 107.179373 -93.849844 
L 107.880568 -93.849844 
L 108.581762 -93.849844 
L 109.282957 -93.849844 
L 109.984152 -93.849844 
L 110.685347 -93.849844 
L 111.386541 -93.849844 
L 112.087736 -93.849844 
L 112.788931 -93.849844 
L 113.490126 -93.849844 
L 114.19132 -93.849844 
L 114.892515 -93.849844 
L 115.59371 -93.849844 
L 116.294905 -93.849844 
L 116.9961 -93.849844 
L 117.697294 -93.849844 
L 118.398489 -93.849844 
L 119.099684 -93.849844 
L 119.800879 -93.849844 
L 120.502073 -93.849844 
L 121.203268 -93.849844 
L 121.904463 -93.849844 
L 122.605658 -93.849844 
L 123.306852 -93.849844 
L 124.008047 -93.849844 
L 124.709242 -93.849844 
L 125.410437 -93.849844 
L 126.111631 -93.849844 
L 126.812826 -93.849844 
L 127.514021 -93.849844 
L 128.215216 -93.849844 
L 128.91641 -93.849844 
L 129.617605 -93.849844 
L 130.3188 -93.849844 
L 131.019995 -93.849844 
L 131.72119 -93.849844 
L 132.422384 -93.849844 
L 133.123579 -93.849844 
L 133.824774 -93.849844 
L 134.525969 -93.849844 
L 135.227163 -93.849844 
L 135.928358 -93.849844 
L 136.629553 -93.849844 
L 137.330748 -93.849844 
L 138.031942 -93.849844 
L 138.733137 -93.849844 
L 139.434332 -93.849844 
L 140.135527 -93.849844 
L 140.836721 -93.849844 
L 141.537916 -93.849844 
L 142.239111 -93.849844 
L 142.940306 -93.849844 
L 143.641501 -93.849844 
L 144.342695 -93.849844 
L 145.04389 -93.849844 
L 145.745085 -93.849844 
L 146.44628 -93.849844 
L 147.147474 -93.849844 
L 147.848669 -93.849844 
L 148.549864 -93.849844 
L 149.251059 -93.849844 
L 149.952253 -93.849844 
L 150.653448 -93.849844 
L 151.354643 -93.849844 
L 152.055838 -93.849844 
L 152.757032 -93.849844 
L 153.458227 -93.849844 
L 154.159422 -93.849844 
L 154.860617 -93.849844 
L 155.561812 -93.849844 
L 156.263006 -93.849844 
L 156.964201 -93.849844 
L 157.665396 -93.849844 
L 158.366591 -93.849844 
L 159.067785 -93.849844 
L 159.76898 -93.849844 
L 160.470175 -93.849844 
L 161.17137 -93.849844 
L 161.872564 -93.849844 
L 162.573759 -93.849844 
L 163.274954 -93.849844 
L 163.976149 -93.849844 
L 164.677343 -93.849844 
L 165.378538 -93.849844 
L 166.079733 -93.849844 
L 166.780928 -93.849844 
L 167.482123 -93.849844 
L 168.183317 -93.849844 
L 168.884512 -93.849844 
L 169.585707 -93.849844 
L 170.286902 -93.849844 
L 170.988096 -93.849844 
L 171.689291 -93.849844 
L 172.390486 -93.849844 
L 173.091681 -93.849844 
L 173.792875 -93.849844 
L 174.49407 -93.849844 
L 175.195265 -93.849844 
L 175.89646 -93.849844 
L 176.597654 -93.849844 
L 176.597654 -95.936097 
L 176.597654 -95.936097 
L 175.89646 -96.143715 
L 175.195265 -96.362806 
L 174.49407 -96.592877 
L 173.792875 -96.833285 
L 173.091681 -97.083251 
L 172.390486 -97.341852 
L 171.689291 -97.608036 
L 170.988096 -97.88063 
L 170.286902 -98.158353 
L 169.585707 -98.439832 
L 168.884512 -98.723623 
L 168.183317 -99.008228 
L 167.482123 -99.292124 
L 166.780928 -99.573781 
L 166.079733 -99.851693 
L 165.378538 -100.124399 
L 164.677343 -100.390512 
L 163.976149 -100.648738 
L 163.274954 -100.897903 
L 162.573759 -101.136971 
L 161.872564 -101.365063 
L 161.17137 -101.581468 
L 160.470175 -101.785655 
L 159.76898 -101.977282 
L 159.067785 -102.156196 
L 158.366591 -102.322431 
L 157.665396 -102.476206 
L 156.964201 -102.617914 
L 156.263006 -102.748109 
L 155.561812 -102.867489 
L 154.860617 -102.976883 
L 154.159422 -103.077223 
L 153.458227 -103.16953 
L 152.757032 -103.254885 
L 152.055838 -103.334407 
L 151.354643 -103.409232 
L 150.653448 -103.480491 
L 149.952253 -103.549286 
L 149.251059 -103.616674 
L 148.549864 -103.683652 
L 147.848669 -103.751136 
L 147.147474 -103.819959 
L 146.44628 -103.890855 
L 145.745085 -103.964458 
L 145.04389 -104.041297 
L 144.342695 -104.121797 
L 143.641501 -104.206281 
L 142.940306 -104.294975 
L 142.239111 -104.388017 
L 141.537916 -104.485458 
L 140.836721 -104.58728 
L 140.135527 -104.693399 
L 139.434332 -104.803677 
L 138.733137 -104.917933 
L 138.031942 -105.035948 
L 137.330748 -105.157477 
L 136.629553 -105.282254 
L 135.928358 -105.409995 
L 135.227163 -105.540405 
L 134.525969 -105.673175 
L 133.824774 -105.807986 
L 133.123579 -105.944503 
L 132.422384 -106.082373 
L 131.72119 -106.221219 
L 131.019995 -106.360632 
L 130.3188 -106.500165 
L 129.617605 -106.639325 
L 128.91641 -106.777561 
L 128.215216 -106.91426 
L 127.514021 -107.048737 
L 126.812826 -107.18023 
L 126.111631 -107.307892 
L 125.410437 -107.430794 
L 124.709242 -107.547919 
L 124.008047 -107.658166 
L 123.306852 -107.760355 
L 122.605658 -107.853236 
L 121.904463 -107.935499 
L 121.203268 -108.005785 
L 120.502073 -108.062708 
L 119.800879 -108.104871 
L 119.099684 -108.130886 
L 118.398489 -108.139404 
L 117.697294 -108.129131 
L 116.9961 -108.098862 
L 116.294905 -108.047501 
L 115.59371 -107.974091 
L 114.892515 -107.877835 
L 114.19132 -107.758121 
L 113.490126 -107.61454 
L 112.788931 -107.446909 
L 112.087736 -107.255277 
L 111.386541 -107.039942 
L 110.685347 -106.801451 
L 109.984152 -106.540607 
L 109.282957 -106.25846 
L 108.581762 -105.956298 
L 107.880568 -105.635639 
L 107.179373 -105.298209 
L 106.478178 -104.945919 
L 105.776983 -104.580841 
L 105.075789 -104.20518 
L 104.374594 -103.82124 
L 103.673399 -103.431392 
L 102.972204 -103.038038 
L 102.271009 -102.643579 
L 101.569815 -102.250376 
L 100.86862 -101.860724 
L 100.167425 -101.476813 
L 99.46623 -101.100705 
L 98.765036 -100.734306 
L 98.063841 -100.379344 
L 97.362646 -100.037355 
L 96.661451 -99.709663 
L 95.960257 -99.397379 
L 95.259062 -99.101388 
L 94.557867 -98.822356 
L 93.856672 -98.560729 
L 93.155478 -98.316745 
L 92.454283 -98.09044 
L 91.753088 -97.881667 
L 91.051893 -97.690113 
L 90.350698 -97.515313 
L 89.649504 -97.356676 
L 88.948309 -97.213503 
L 88.247114 -97.085012 
L 87.545919 -96.970355 
L 86.844725 -96.868643 
L 86.14353 -96.778965 
L 85.442335 -96.700406 
L 84.74114 -96.632066 
L 84.039946 -96.573072 
L 83.338751 -96.522593 
L 82.637556 -96.479849 
L 81.936361 -96.444121 
L 81.235167 -96.414755 
L 80.533972 -96.391167 
L 79.832777 -96.372843 
L 79.131582 -96.359337 
L 78.430387 -96.350269 
L 77.729193 -96.345322 
L 77.027998 -96.34423 
L 76.326803 -96.346778 
L 75.625608 -96.352784 
L 74.924414 -96.362097 
L 74.223219 -96.374585 
L 73.522024 -96.39012 
L 72.820829 -96.408574 
L 72.119635 -96.429806 
L 71.41844 -96.453651 
L 70.717245 -96.479917 
L 70.01605 -96.508374 
L 69.314856 -96.538748 
L 68.613661 -96.570717 
L 67.912466 -96.603913 
L 67.211271 -96.637915 
L 66.510076 -96.672254 
L 65.808882 -96.706414 
L 65.107687 -96.739839 
L 64.406492 -96.771938 
L 63.705297 -96.802093 
L 63.004103 -96.829669 
L 62.302908 -96.854025 
L 61.601713 -96.874523 
L 60.900518 -96.890545 
L 60.199324 -96.901498 
L 59.498129 -96.906831 
L 58.796934 -96.906046 
L 58.095739 -96.898708 
L 57.394545 -96.884454 
L 56.69335 -96.863001 
L 55.992155 -96.834154 
L 55.29096 -96.797811 
L 54.589766 -96.753966 
L 53.888571 -96.702708 
L 53.187376 -96.64422 
L 52.486181 -96.578782 
L 51.784986 -96.506756 
L 51.083792 -96.428588 
L 50.382597 -96.344796 
L 49.681402 -96.255961 
L 48.980207 -96.162717 
L 48.279013 -96.065738 
L 47.577818 -95.965728 
L 46.876623 -95.86341 
L 46.175428 -95.759511 
L 45.474234 -95.654752 
L 44.773039 -95.549839 
L 44.071844 -95.445449 
L 43.370649 -95.342225 
L 42.669455 -95.240766 
L 41.96826 -95.141621 
L 41.267065 -95.045282 
L 40.56587 -94.952185 
L 39.864675 -94.862702 
L 39.163481 -94.777143 
L 38.462286 -94.695757 
L 37.761091 -94.618729 
L 37.059896 -94.546187 
z
" style="stroke: #44bf70; stroke-width: 1.25"/>
    </defs>
    <g>
     <use xlink:href="#md618825e6c" x="0" y="173.814844" style="fill: #44bf70; fill-opacity: 0.7; stroke: #44bf70; stroke-width: 1.25"/>
    </g>
   </g>
   <g id="line2d_4">
    <path d="M 7.2 79.965 
L 216.45 79.965 
" style="fill: none; stroke: #44bf70; stroke-opacity: 0.9; stroke-linecap: round"/>
   </g>
   <g id="text_4">
    <!-- 3 -->
    <g style="fill: #44bf70" transform="translate(7.2 78.917625) scale(0.12 -0.12)">
     <defs>
      <path id="Arial-BoldMT-33" d="M 241 1216 
L 1091 1319 
Q 1131 994 1309 822 
Q 1488 650 1741 650 
Q 2013 650 2198 856 
Q 2384 1063 2384 1413 
Q 2384 1744 2206 1937 
Q 2028 2131 1772 2131 
Q 1603 2131 1369 2066 
L 1466 2781 
Q 1822 2772 2009 2936 
Q 2197 3100 2197 3372 
Q 2197 3603 2059 3740 
Q 1922 3878 1694 3878 
Q 1469 3878 1309 3722 
Q 1150 3566 1116 3266 
L 306 3403 
Q 391 3819 561 4067 
Q 731 4316 1036 4458 
Q 1341 4600 1719 4600 
Q 2366 4600 2756 4188 
Q 3078 3850 3078 3425 
Q 3078 2822 2419 2463 
Q 2813 2378 3048 2084 
Q 3284 1791 3284 1375 
Q 3284 772 2843 347 
Q 2403 -78 1747 -78 
Q 1125 -78 715 280 
Q 306 638 241 1216 
z
" transform="scale(0.015625)"/>
     </defs>
     <use xlink:href="#Arial-BoldMT-33"/>
    </g>
   </g>
  </g>
  <g id="axes_5">
   <g id="patch_6">
    <path d="M 7.2 90.36 
L 216.45 90.36 
L 216.45 48.78 
L 7.2 48.78 
L 7.2 90.36 
z
" style="fill: none"/>
   </g>
   <g id="matplotlib.axis_9">
    <g id="xtick_17"/>
    <g id="xtick_18"/>
    <g id="xtick_19"/>
    <g id="xtick_20"/>
   </g>
   <g id="matplotlib.axis_10"/>
   <g id="PolyCollection_4">
    <defs>
     <path id="m275ec9e4f9" d="M 16.711364 -83.684354 
L 16.711364 -83.454844 
L 17.620854 -83.454844 
L 18.530345 -83.454844 
L 19.439836 -83.454844 
L 20.349327 -83.454844 
L 21.258818 -83.454844 
L 22.168308 -83.454844 
L 23.077799 -83.454844 
L 23.98729 -83.454844 
L 24.896781 -83.454844 
L 25.806271 -83.454844 
L 26.715762 -83.454844 
L 27.625253 -83.454844 
L 28.534744 -83.454844 
L 29.444235 -83.454844 
L 30.353725 -83.454844 
L 31.263216 -83.454844 
L 32.172707 -83.454844 
L 33.082198 -83.454844 
L 33.991689 -83.454844 
L 34.901179 -83.454844 
L 35.81067 -83.454844 
L 36.720161 -83.454844 
L 37.629652 -83.454844 
L 38.539142 -83.454844 
L 39.448633 -83.454844 
L 40.358124 -83.454844 
L 41.267615 -83.454844 
L 42.177106 -83.454844 
L 43.086596 -83.454844 
L 43.996087 -83.454844 
L 44.905578 -83.454844 
L 45.815069 -83.454844 
L 46.72456 -83.454844 
L 47.63405 -83.454844 
L 48.543541 -83.454844 
L 49.453032 -83.454844 
L 50.362523 -83.454844 
L 51.272013 -83.454844 
L 52.181504 -83.454844 
L 53.090995 -83.454844 
L 54.000486 -83.454844 
L 54.909977 -83.454844 
L 55.819467 -83.454844 
L 56.728958 -83.454844 
L 57.638449 -83.454844 
L 58.54794 -83.454844 
L 59.457431 -83.454844 
L 60.366921 -83.454844 
L 61.276412 -83.454844 
L 62.185903 -83.454844 
L 63.095394 -83.454844 
L 64.004884 -83.454844 
L 64.914375 -83.454844 
L 65.823866 -83.454844 
L 66.733357 -83.454844 
L 67.642848 -83.454844 
L 68.552338 -83.454844 
L 69.461829 -83.454844 
L 70.37132 -83.454844 
L 71.280811 -83.454844 
L 72.190301 -83.454844 
L 73.099792 -83.454844 
L 74.009283 -83.454844 
L 74.918774 -83.454844 
L 75.828265 -83.454844 
L 76.737755 -83.454844 
L 77.647246 -83.454844 
L 78.556737 -83.454844 
L 79.466228 -83.454844 
L 80.375719 -83.454844 
L 81.285209 -83.454844 
L 82.1947 -83.454844 
L 83.104191 -83.454844 
L 84.013682 -83.454844 
L 84.923172 -83.454844 
L 85.832663 -83.454844 
L 86.742154 -83.454844 
L 87.651645 -83.454844 
L 88.561136 -83.454844 
L 89.470626 -83.454844 
L 90.380117 -83.454844 
L 91.289608 -83.454844 
L 92.199099 -83.454844 
L 93.10859 -83.454844 
L 94.01808 -83.454844 
L 94.927571 -83.454844 
L 95.837062 -83.454844 
L 96.746553 -83.454844 
L 97.656043 -83.454844 
L 98.565534 -83.454844 
L 99.475025 -83.454844 
L 100.384516 -83.454844 
L 101.294007 -83.454844 
L 102.203497 -83.454844 
L 103.112988 -83.454844 
L 104.022479 -83.454844 
L 104.93197 -83.454844 
L 105.841461 -83.454844 
L 106.750951 -83.454844 
L 107.660442 -83.454844 
L 108.569933 -83.454844 
L 109.479424 -83.454844 
L 110.388914 -83.454844 
L 111.298405 -83.454844 
L 112.207896 -83.454844 
L 113.117387 -83.454844 
L 114.026878 -83.454844 
L 114.936368 -83.454844 
L 115.845859 -83.454844 
L 116.75535 -83.454844 
L 117.664841 -83.454844 
L 118.574331 -83.454844 
L 119.483822 -83.454844 
L 120.393313 -83.454844 
L 121.302804 -83.454844 
L 122.212295 -83.454844 
L 123.121785 -83.454844 
L 124.031276 -83.454844 
L 124.940767 -83.454844 
L 125.850258 -83.454844 
L 126.759749 -83.454844 
L 127.669239 -83.454844 
L 128.57873 -83.454844 
L 129.488221 -83.454844 
L 130.397712 -83.454844 
L 131.307202 -83.454844 
L 132.216693 -83.454844 
L 133.126184 -83.454844 
L 134.035675 -83.454844 
L 134.945166 -83.454844 
L 135.854656 -83.454844 
L 136.764147 -83.454844 
L 137.673638 -83.454844 
L 138.583129 -83.454844 
L 139.49262 -83.454844 
L 140.40211 -83.454844 
L 141.311601 -83.454844 
L 142.221092 -83.454844 
L 143.130583 -83.454844 
L 144.040073 -83.454844 
L 144.949564 -83.454844 
L 145.859055 -83.454844 
L 146.768546 -83.454844 
L 147.678037 -83.454844 
L 148.587527 -83.454844 
L 149.497018 -83.454844 
L 150.406509 -83.454844 
L 151.316 -83.454844 
L 152.225491 -83.454844 
L 153.134981 -83.454844 
L 154.044472 -83.454844 
L 154.953963 -83.454844 
L 155.863454 -83.454844 
L 156.772944 -83.454844 
L 157.682435 -83.454844 
L 158.591926 -83.454844 
L 159.501417 -83.454844 
L 160.410908 -83.454844 
L 161.320398 -83.454844 
L 162.229889 -83.454844 
L 163.13938 -83.454844 
L 164.048871 -83.454844 
L 164.958361 -83.454844 
L 165.867852 -83.454844 
L 166.777343 -83.454844 
L 167.686834 -83.454844 
L 168.596325 -83.454844 
L 169.505815 -83.454844 
L 170.415306 -83.454844 
L 171.324797 -83.454844 
L 172.234288 -83.454844 
L 173.143779 -83.454844 
L 174.053269 -83.454844 
L 174.96276 -83.454844 
L 175.872251 -83.454844 
L 176.781742 -83.454844 
L 177.691232 -83.454844 
L 178.600723 -83.454844 
L 179.510214 -83.454844 
L 180.419705 -83.454844 
L 181.329196 -83.454844 
L 182.238686 -83.454844 
L 183.148177 -83.454844 
L 184.057668 -83.454844 
L 184.967159 -83.454844 
L 185.87665 -83.454844 
L 186.78614 -83.454844 
L 187.695631 -83.454844 
L 188.605122 -83.454844 
L 189.514613 -83.454844 
L 190.424103 -83.454844 
L 191.333594 -83.454844 
L 192.243085 -83.454844 
L 193.152576 -83.454844 
L 194.062067 -83.454844 
L 194.971557 -83.454844 
L 195.881048 -83.454844 
L 196.790539 -83.454844 
L 197.70003 -83.454844 
L 197.70003 -85.033055 
L 197.70003 -85.033055 
L 196.790539 -85.20239 
L 195.881048 -85.381915 
L 194.971557 -85.571191 
L 194.062067 -85.769635 
L 193.152576 -85.976519 
L 192.243085 -86.190976 
L 191.333594 -86.412007 
L 190.424103 -86.638491 
L 189.514613 -86.8692 
L 188.605122 -87.102817 
L 187.695631 -87.337956 
L 186.78614 -87.573187 
L 185.87665 -87.807057 
L 184.967159 -88.03812 
L 184.057668 -88.264965 
L 183.148177 -88.486239 
L 182.238686 -88.700675 
L 181.329196 -88.907117 
L 180.419705 -89.104542 
L 179.510214 -89.292079 
L 178.600723 -89.469021 
L 177.691232 -89.634843 
L 176.781742 -89.789204 
L 175.872251 -89.931951 
L 174.96276 -90.063117 
L 174.053269 -90.182915 
L 173.143779 -90.291727 
L 172.234288 -90.390089 
L 171.324797 -90.478674 
L 170.415306 -90.558272 
L 169.505815 -90.629766 
L 168.596325 -90.694111 
L 167.686834 -90.752307 
L 166.777343 -90.80538 
L 165.867852 -90.854353 
L 164.958361 -90.90023 
L 164.048871 -90.943974 
L 163.13938 -90.986493 
L 162.229889 -91.028622 
L 161.320398 -91.071118 
L 160.410908 -91.11465 
L 159.501417 -91.159795 
L 158.591926 -91.207039 
L 157.682435 -91.256777 
L 156.772944 -91.309319 
L 155.863454 -91.364895 
L 154.953963 -91.423668 
L 154.044472 -91.485738 
L 153.134981 -91.551157 
L 152.225491 -91.619937 
L 151.316 -91.692063 
L 150.406509 -91.7675 
L 149.497018 -91.846204 
L 148.587527 -91.928126 
L 147.678037 -92.013222 
L 146.768546 -92.101451 
L 145.859055 -92.19278 
L 144.949564 -92.287182 
L 144.040073 -92.384629 
L 143.130583 -92.485093 
L 142.221092 -92.588532 
L 141.311601 -92.694885 
L 140.40211 -92.804061 
L 139.49262 -92.915925 
L 138.583129 -93.030288 
L 137.673638 -93.146893 
L 136.764147 -93.265407 
L 135.854656 -93.385402 
L 134.945166 -93.506354 
L 134.035675 -93.627629 
L 133.126184 -93.748479 
L 132.216693 -93.86804 
L 131.307202 -93.985331 
L 130.397712 -94.099255 
L 129.488221 -94.208608 
L 128.57873 -94.312092 
L 127.669239 -94.40832 
L 126.759749 -94.495843 
L 125.850258 -94.573162 
L 124.940767 -94.638759 
L 124.031276 -94.691115 
L 123.121785 -94.728743 
L 122.212295 -94.750215 
L 121.302804 -94.754191 
L 120.393313 -94.739451 
L 119.483822 -94.70492 
L 118.574331 -94.649697 
L 117.664841 -94.573084 
L 116.75535 -94.4746 
L 115.845859 -94.354004 
L 114.936368 -94.211309 
L 114.026878 -94.04679 
L 113.117387 -93.860988 
L 112.207896 -93.654709 
L 111.298405 -93.429018 
L 110.388914 -93.185228 
L 109.479424 -92.924879 
L 108.569933 -92.64972 
L 107.660442 -92.361684 
L 106.750951 -92.062854 
L 105.841461 -91.755433 
L 104.93197 -91.441709 
L 104.022479 -91.124015 
L 103.112988 -90.8047 
L 102.203497 -90.486083 
L 101.294007 -90.170424 
L 100.384516 -89.859886 
L 99.475025 -89.556507 
L 98.565534 -89.262172 
L 97.656043 -88.978586 
L 96.746553 -88.707256 
L 95.837062 -88.449477 
L 94.927571 -88.206318 
L 94.01808 -87.978618 
L 93.10859 -87.766981 
L 92.199099 -87.571785 
L 91.289608 -87.393179 
L 90.380117 -87.231104 
L 89.470626 -87.085298 
L 88.561136 -86.955316 
L 87.651645 -86.840548 
L 86.742154 -86.74024 
L 85.832663 -86.653514 
L 84.923172 -86.57939 
L 84.013682 -86.516811 
L 83.104191 -86.464661 
L 82.1947 -86.42179 
L 81.285209 -86.387033 
L 80.375719 -86.359228 
L 79.466228 -86.337235 
L 78.556737 -86.319953 
L 77.647246 -86.30633 
L 76.737755 -86.295378 
L 75.828265 -86.286182 
L 74.918774 -86.277906 
L 74.009283 -86.269802 
L 73.099792 -86.26121 
L 72.190301 -86.251561 
L 71.280811 -86.240378 
L 70.37132 -86.227272 
L 69.461829 -86.211938 
L 68.552338 -86.194154 
L 67.642848 -86.173771 
L 66.733357 -86.150708 
L 65.823866 -86.124945 
L 64.914375 -86.096513 
L 64.004884 -86.065488 
L 63.095394 -86.03198 
L 62.185903 -85.996127 
L 61.276412 -85.958087 
L 60.366921 -85.91803 
L 59.457431 -85.876131 
L 58.54794 -85.832568 
L 57.638449 -85.787509 
L 56.728958 -85.741119 
L 55.819467 -85.693547 
L 54.909977 -85.644933 
L 54.000486 -85.595398 
L 53.090995 -85.545051 
L 52.181504 -85.493988 
L 51.272013 -85.442291 
L 50.362523 -85.390029 
L 49.453032 -85.337265 
L 48.543541 -85.284055 
L 47.63405 -85.230449 
L 46.72456 -85.176495 
L 45.815069 -85.122243 
L 44.905578 -85.067743 
L 43.996087 -85.013048 
L 43.086596 -84.958219 
L 42.177106 -84.903319 
L 41.267615 -84.848419 
L 40.358124 -84.793596 
L 39.448633 -84.738932 
L 38.539142 -84.684517 
L 37.629652 -84.630443 
L 36.720161 -84.576808 
L 35.81067 -84.52371 
L 34.901179 -84.471252 
L 33.991689 -84.419535 
L 33.082198 -84.36866 
L 32.172707 -84.318725 
L 31.263216 -84.269828 
L 30.353725 -84.222059 
L 29.444235 -84.175508 
L 28.534744 -84.130255 
L 27.625253 -84.086376 
L 26.715762 -84.04394 
L 25.806271 -84.00301 
L 24.896781 -83.963639 
L 23.98729 -83.925874 
L 23.077799 -83.889752 
L 22.168308 -83.855304 
L 21.258818 -83.82255 
L 20.349327 -83.791505 
L 19.439836 -83.76217 
L 18.530345 -83.734544 
L 17.620854 -83.708612 
L 16.711364 -83.684354 
z
" style="stroke: #bddf26; stroke-width: 1.25"/>
    </defs>
    <g>
     <use xlink:href="#m275ec9e4f9" x="0" y="173.814844" style="fill: #bddf26; fill-opacity: 0.7; stroke: #bddf26; stroke-width: 1.25"/>
    </g>
   </g>
   <g id="line2d_5">
    <path d="M 7.2 90.36 
L 216.45 90.36 
" style="fill: none; stroke: #bddf26; stroke-opacity: 0.9; stroke-linecap: round"/>
   </g>
   <g id="text_5">
    <!-- 4 -->
    <g style="fill: #bddf26" transform="translate(7.2 89.312625) scale(0.12 -0.12)">
     <defs>
      <path id="Arial-BoldMT-34" d="M 1994 0 
L 1994 922 
L 119 922 
L 119 1691 
L 2106 4600 
L 2844 4600 
L 2844 1694 
L 3413 1694 
L 3413 922 
L 2844 922 
L 2844 0 
L 1994 0 
z
M 1994 1694 
L 1994 3259 
L 941 1694 
L 1994 1694 
z
" transform="scale(0.015625)"/>
     </defs>
     <use xlink:href="#Arial-BoldMT-34"/>
    </g>
   </g>
  </g>
  <g id="axes_6">
   <g id="patch_7">
    <path d="M 7.2 100.755 
L 216.45 100.755 
L 216.45 59.175 
L 7.2 59.175 
L 7.2 100.755 
z
" style="fill: none"/>
   </g>
   <g id="matplotlib.axis_11">
    <g id="xtick_21"/>
    <g id="xtick_22"/>
    <g id="xtick_23"/>
    <g id="xtick_24"/>
   </g>
   <g id="matplotlib.axis_12"/>
   <g id="PolyCollection_5">
    <defs>
     <path id="mb154edc275" d="M 37.305251 -73.594069 
L 37.305251 -73.059844 
L 38.004782 -73.059844 
L 38.704313 -73.059844 
L 39.403844 -73.059844 
L 40.103376 -73.059844 
L 40.802907 -73.059844 
L 41.502438 -73.059844 
L 42.20197 -73.059844 
L 42.901501 -73.059844 
L 43.601032 -73.059844 
L 44.300563 -73.059844 
L 45.000095 -73.059844 
L 45.699626 -73.059844 
L 46.399157 -73.059844 
L 47.098689 -73.059844 
L 47.79822 -73.059844 
L 48.497751 -73.059844 
L 49.197282 -73.059844 
L 49.896814 -73.059844 
L 50.596345 -73.059844 
L 51.295876 -73.059844 
L 51.995408 -73.059844 
L 52.694939 -73.059844 
L 53.39447 -73.059844 
L 54.094001 -73.059844 
L 54.793533 -73.059844 
L 55.493064 -73.059844 
L 56.192595 -73.059844 
L 56.892127 -73.059844 
L 57.591658 -73.059844 
L 58.291189 -73.059844 
L 58.99072 -73.059844 
L 59.690252 -73.059844 
L 60.389783 -73.059844 
L 61.089314 -73.059844 
L 61.788846 -73.059844 
L 62.488377 -73.059844 
L 63.187908 -73.059844 
L 63.887439 -73.059844 
L 64.586971 -73.059844 
L 65.286502 -73.059844 
L 65.986033 -73.059844 
L 66.685565 -73.059844 
L 67.385096 -73.059844 
L 68.084627 -73.059844 
L 68.784158 -73.059844 
L 69.48369 -73.059844 
L 70.183221 -73.059844 
L 70.882752 -73.059844 
L 71.582283 -73.059844 
L 72.281815 -73.059844 
L 72.981346 -73.059844 
L 73.680877 -73.059844 
L 74.380409 -73.059844 
L 75.07994 -73.059844 
L 75.779471 -73.059844 
L 76.479002 -73.059844 
L 77.178534 -73.059844 
L 77.878065 -73.059844 
L 78.577596 -73.059844 
L 79.277128 -73.059844 
L 79.976659 -73.059844 
L 80.67619 -73.059844 
L 81.375721 -73.059844 
L 82.075253 -73.059844 
L 82.774784 -73.059844 
L 83.474315 -73.059844 
L 84.173847 -73.059844 
L 84.873378 -73.059844 
L 85.572909 -73.059844 
L 86.27244 -73.059844 
L 86.971972 -73.059844 
L 87.671503 -73.059844 
L 88.371034 -73.059844 
L 89.070566 -73.059844 
L 89.770097 -73.059844 
L 90.469628 -73.059844 
L 91.169159 -73.059844 
L 91.868691 -73.059844 
L 92.568222 -73.059844 
L 93.267753 -73.059844 
L 93.967285 -73.059844 
L 94.666816 -73.059844 
L 95.366347 -73.059844 
L 96.065878 -73.059844 
L 96.76541 -73.059844 
L 97.464941 -73.059844 
L 98.164472 -73.059844 
L 98.864004 -73.059844 
L 99.563535 -73.059844 
L 100.263066 -73.059844 
L 100.962597 -73.059844 
L 101.662129 -73.059844 
L 102.36166 -73.059844 
L 103.061191 -73.059844 
L 103.760723 -73.059844 
L 104.460254 -73.059844 
L 105.159785 -73.059844 
L 105.859316 -73.059844 
L 106.558848 -73.059844 
L 107.258379 -73.059844 
L 107.95791 -73.059844 
L 108.657441 -73.059844 
L 109.356973 -73.059844 
L 110.056504 -73.059844 
L 110.756035 -73.059844 
L 111.455567 -73.059844 
L 112.155098 -73.059844 
L 112.854629 -73.059844 
L 113.55416 -73.059844 
L 114.253692 -73.059844 
L 114.953223 -73.059844 
L 115.652754 -73.059844 
L 116.352286 -73.059844 
L 117.051817 -73.059844 
L 117.751348 -73.059844 
L 118.450879 -73.059844 
L 119.150411 -73.059844 
L 119.849942 -73.059844 
L 120.549473 -73.059844 
L 121.249005 -73.059844 
L 121.948536 -73.059844 
L 122.648067 -73.059844 
L 123.347598 -73.059844 
L 124.04713 -73.059844 
L 124.746661 -73.059844 
L 125.446192 -73.059844 
L 126.145724 -73.059844 
L 126.845255 -73.059844 
L 127.544786 -73.059844 
L 128.244317 -73.059844 
L 128.943849 -73.059844 
L 129.64338 -73.059844 
L 130.342911 -73.059844 
L 131.042443 -73.059844 
L 131.741974 -73.059844 
L 132.441505 -73.059844 
L 133.141036 -73.059844 
L 133.840568 -73.059844 
L 134.540099 -73.059844 
L 135.23963 -73.059844 
L 135.939162 -73.059844 
L 136.638693 -73.059844 
L 137.338224 -73.059844 
L 138.037755 -73.059844 
L 138.737287 -73.059844 
L 139.436818 -73.059844 
L 140.136349 -73.059844 
L 140.835881 -73.059844 
L 141.535412 -73.059844 
L 142.234943 -73.059844 
L 142.934474 -73.059844 
L 143.634006 -73.059844 
L 144.333537 -73.059844 
L 145.033068 -73.059844 
L 145.7326 -73.059844 
L 146.432131 -73.059844 
L 147.131662 -73.059844 
L 147.831193 -73.059844 
L 148.530725 -73.059844 
L 149.230256 -73.059844 
L 149.929787 -73.059844 
L 150.629318 -73.059844 
L 151.32885 -73.059844 
L 152.028381 -73.059844 
L 152.727912 -73.059844 
L 153.427444 -73.059844 
L 154.126975 -73.059844 
L 154.826506 -73.059844 
L 155.526037 -73.059844 
L 156.225569 -73.059844 
L 156.9251 -73.059844 
L 157.624631 -73.059844 
L 158.324163 -73.059844 
L 159.023694 -73.059844 
L 159.723225 -73.059844 
L 160.422756 -73.059844 
L 161.122288 -73.059844 
L 161.821819 -73.059844 
L 162.52135 -73.059844 
L 163.220882 -73.059844 
L 163.920413 -73.059844 
L 164.619944 -73.059844 
L 165.319475 -73.059844 
L 166.019007 -73.059844 
L 166.718538 -73.059844 
L 167.418069 -73.059844 
L 168.117601 -73.059844 
L 168.817132 -73.059844 
L 169.516663 -73.059844 
L 170.216194 -73.059844 
L 170.915726 -73.059844 
L 171.615257 -73.059844 
L 172.314788 -73.059844 
L 173.01432 -73.059844 
L 173.713851 -73.059844 
L 174.413382 -73.059844 
L 175.112913 -73.059844 
L 175.812445 -73.059844 
L 176.511976 -73.059844 
L 176.511976 -75.206472 
L 176.511976 -75.206472 
L 175.812445 -75.423822 
L 175.112913 -75.653473 
L 174.413382 -75.894907 
L 173.713851 -76.147446 
L 173.01432 -76.410257 
L 172.314788 -76.68235 
L 171.615257 -76.962591 
L 170.915726 -77.249711 
L 170.216194 -77.542321 
L 169.516663 -77.838927 
L 168.817132 -78.137956 
L 168.117601 -78.437778 
L 167.418069 -78.736727 
L 166.718538 -79.033136 
L 166.019007 -79.325361 
L 165.319475 -79.61181 
L 164.619944 -79.890972 
L 163.920413 -80.161443 
L 163.220882 -80.421953 
L 162.52135 -80.671388 
L 161.821819 -80.908809 
L 161.122288 -81.133467 
L 160.422756 -81.344816 
L 159.723225 -81.542518 
L 159.023694 -81.726446 
L 158.324163 -81.896683 
L 157.624631 -82.053514 
L 156.9251 -82.197411 
L 156.225569 -82.329023 
L 155.526037 -82.449152 
L 154.826506 -82.558734 
L 154.126975 -82.658811 
L 153.427444 -82.750508 
L 152.727912 -82.835003 
L 152.028381 -82.913502 
L 151.32885 -82.987211 
L 150.629318 -83.05731 
L 149.929787 -83.124932 
L 149.230256 -83.191138 
L 148.530725 -83.256903 
L 147.831193 -83.323101 
L 147.131662 -83.390492 
L 146.432131 -83.459716 
L 145.7326 -83.53129 
L 145.033068 -83.605606 
L 144.333537 -83.682938 
L 143.634006 -83.763446 
L 142.934474 -83.847186 
L 142.234943 -83.934119 
L 141.535412 -84.024129 
L 140.835881 -84.117031 
L 140.136349 -84.212591 
L 139.436818 -84.310537 
L 138.737287 -84.410572 
L 138.037755 -84.512389 
L 137.338224 -84.615682 
L 136.638693 -84.720155 
L 135.939162 -84.825526 
L 135.23963 -84.931534 
L 134.540099 -85.037943 
L 133.840568 -85.144535 
L 133.141036 -85.251114 
L 132.441505 -85.357493 
L 131.741974 -85.463492 
L 131.042443 -85.568925 
L 130.342911 -85.67359 
L 129.64338 -85.777255 
L 128.943849 -85.87965 
L 128.244317 -85.980449 
L 127.544786 -86.079259 
L 126.845255 -86.175613 
L 126.145724 -86.268956 
L 125.446192 -86.358639 
L 124.746661 -86.443915 
L 124.04713 -86.523938 
L 123.347598 -86.597761 
L 122.648067 -86.664344 
L 121.948536 -86.722559 
L 121.249005 -86.771207 
L 120.549473 -86.809027 
L 119.849942 -86.834717 
L 119.150411 -86.846958 
L 118.450879 -86.844432 
L 117.751348 -86.825853 
L 117.051817 -86.789991 
L 116.352286 -86.7357 
L 115.652754 -86.661949 
L 114.953223 -86.567843 
L 114.253692 -86.452655 
L 113.55416 -86.315847 
L 112.854629 -86.157088 
L 112.155098 -85.976276 
L 111.455567 -85.773548 
L 110.756035 -85.549291 
L 110.056504 -85.304142 
L 109.356973 -85.038992 
L 108.657441 -84.754976 
L 107.95791 -84.453462 
L 107.258379 -84.136036 
L 106.558848 -83.804482 
L 105.859316 -83.460756 
L 105.159785 -83.106955 
L 104.460254 -82.745292 
L 103.760723 -82.378057 
L 103.061191 -82.007584 
L 102.36166 -81.636216 
L 101.662129 -81.266269 
L 100.962597 -80.899999 
L 100.263066 -80.539568 
L 99.563535 -80.187014 
L 98.864004 -79.844227 
L 98.164472 -79.51292 
L 97.464941 -79.194614 
L 96.76541 -78.890624 
L 96.065878 -78.602042 
L 95.366347 -78.329737 
L 94.666816 -78.074351 
L 93.967285 -77.836302 
L 93.267753 -77.615789 
L 92.568222 -77.412807 
L 91.868691 -77.227154 
L 91.169159 -77.058455 
L 90.469628 -76.906177 
L 89.770097 -76.769649 
L 89.070566 -76.648089 
L 88.371034 -76.540622 
L 87.671503 -76.446304 
L 86.971972 -76.364146 
L 86.27244 -76.293136 
L 85.572909 -76.232258 
L 84.873378 -76.180511 
L 84.173847 -76.136925 
L 83.474315 -76.100579 
L 82.774784 -76.070607 
L 82.075253 -76.046211 
L 81.375721 -76.026667 
L 80.67619 -76.011328 
L 79.976659 -75.999624 
L 79.277128 -75.991063 
L 78.577596 -75.985225 
L 77.878065 -75.981757 
L 77.178534 -75.980367 
L 76.479002 -75.980813 
L 75.779471 -75.982894 
L 75.07994 -75.986439 
L 74.380409 -75.991297 
L 73.680877 -75.997328 
L 72.981346 -76.004387 
L 72.281815 -76.012324 
L 71.582283 -76.020969 
L 70.882752 -76.030125 
L 70.183221 -76.039569 
L 69.48369 -76.049044 
L 68.784158 -76.058258 
L 68.084627 -76.066887 
L 67.385096 -76.074573 
L 66.685565 -76.080933 
L 65.986033 -76.085559 
L 65.286502 -76.088031 
L 64.586971 -76.087917 
L 63.887439 -76.084788 
L 63.187908 -76.078225 
L 62.488377 -76.067827 
L 61.788846 -76.053222 
L 61.089314 -76.034073 
L 60.389783 -76.01009 
L 59.690252 -75.981032 
L 58.99072 -75.946718 
L 58.291189 -75.907027 
L 57.591658 -75.861908 
L 56.892127 -75.811372 
L 56.192595 -75.755502 
L 55.493064 -75.694446 
L 54.793533 -75.628418 
L 54.094001 -75.557693 
L 53.39447 -75.4826 
L 52.694939 -75.403521 
L 51.995408 -75.320878 
L 51.295876 -75.235134 
L 50.596345 -75.146778 
L 49.896814 -75.056319 
L 49.197282 -74.964282 
L 48.497751 -74.871193 
L 47.79822 -74.777579 
L 47.098689 -74.683955 
L 46.399157 -74.59082 
L 45.699626 -74.498651 
L 45.000095 -74.407897 
L 44.300563 -74.318975 
L 43.601032 -74.232265 
L 42.901501 -74.14811 
L 42.20197 -74.06681 
L 41.502438 -73.988625 
L 40.802907 -73.913769 
L 40.103376 -73.842417 
L 39.403844 -73.774699 
L 38.704313 -73.710706 
L 38.004782 -73.650491 
L 37.305251 -73.594069 
z
" style="stroke: #7ad151; stroke-width: 1.25"/>
    </defs>
    <g>
     <use xlink:href="#mb154edc275" x="0" y="173.814844" style="fill: #7ad151; fill-opacity: 0.7; stroke: #7ad151; stroke-width: 1.25"/>
    </g>
   </g>
   <g id="line2d_6">
    <path d="M 7.2 100.755 
L 216.45 100.755 
" style="fill: none; stroke: #7ad151; stroke-opacity: 0.9; stroke-linecap: round"/>
   </g>
   <g id="text_6">
    <!-- 5 -->
    <g style="fill: #7ad151" transform="translate(7.2 99.707625) scale(0.12 -0.12)">
     <defs>
      <path id="Arial-BoldMT-35" d="M 284 1178 
L 1159 1269 
Q 1197 972 1381 798 
Q 1566 625 1806 625 
Q 2081 625 2272 848 
Q 2463 1072 2463 1522 
Q 2463 1944 2273 2155 
Q 2084 2366 1781 2366 
Q 1403 2366 1103 2031 
L 391 2134 
L 841 4519 
L 3163 4519 
L 3163 3697 
L 1506 3697 
L 1369 2919 
Q 1663 3066 1969 3066 
Q 2553 3066 2959 2641 
Q 3366 2216 3366 1538 
Q 3366 972 3038 528 
Q 2591 -78 1797 -78 
Q 1163 -78 763 262 
Q 363 603 284 1178 
z
" transform="scale(0.015625)"/>
     </defs>
     <use xlink:href="#Arial-BoldMT-35"/>
    </g>
   </g>
  </g>
  <g id="axes_7">
   <g id="patch_8">
    <path d="M 7.2 111.15 
L 216.45 111.15 
L 216.45 69.57 
L 7.2 69.57 
L 7.2 111.15 
z
" style="fill: none"/>
   </g>
   <g id="matplotlib.axis_13">
    <g id="xtick_25"/>
    <g id="xtick_26"/>
    <g id="xtick_27"/>
    <g id="xtick_28"/>
   </g>
   <g id="matplotlib.axis_14"/>
   <g id="PolyCollection_6">
    <defs>
     <path id="mf18f53de81" d="M 56.927153 -63.757914 
L 56.927153 -62.664844 
L 57.52416 -62.664844 
L 58.121167 -62.664844 
L 58.718175 -62.664844 
L 59.315182 -62.664844 
L 59.912189 -62.664844 
L 60.509196 -62.664844 
L 61.106204 -62.664844 
L 61.703211 -62.664844 
L 62.300218 -62.664844 
L 62.897225 -62.664844 
L 63.494233 -62.664844 
L 64.09124 -62.664844 
L 64.688247 -62.664844 
L 65.285254 -62.664844 
L 65.882262 -62.664844 
L 66.479269 -62.664844 
L 67.076276 -62.664844 
L 67.673283 -62.664844 
L 68.270291 -62.664844 
L 68.867298 -62.664844 
L 69.464305 -62.664844 
L 70.061312 -62.664844 
L 70.65832 -62.664844 
L 71.255327 -62.664844 
L 71.852334 -62.664844 
L 72.449341 -62.664844 
L 73.046349 -62.664844 
L 73.643356 -62.664844 
L 74.240363 -62.664844 
L 74.83737 -62.664844 
L 75.434378 -62.664844 
L 76.031385 -62.664844 
L 76.628392 -62.664844 
L 77.225399 -62.664844 
L 77.822407 -62.664844 
L 78.419414 -62.664844 
L 79.016421 -62.664844 
L 79.613428 -62.664844 
L 80.210436 -62.664844 
L 80.807443 -62.664844 
L 81.40445 -62.664844 
L 82.001458 -62.664844 
L 82.598465 -62.664844 
L 83.195472 -62.664844 
L 83.792479 -62.664844 
L 84.389487 -62.664844 
L 84.986494 -62.664844 
L 85.583501 -62.664844 
L 86.180508 -62.664844 
L 86.777516 -62.664844 
L 87.374523 -62.664844 
L 87.97153 -62.664844 
L 88.568537 -62.664844 
L 89.165545 -62.664844 
L 89.762552 -62.664844 
L 90.359559 -62.664844 
L 90.956566 -62.664844 
L 91.553574 -62.664844 
L 92.150581 -62.664844 
L 92.747588 -62.664844 
L 93.344595 -62.664844 
L 93.941603 -62.664844 
L 94.53861 -62.664844 
L 95.135617 -62.664844 
L 95.732624 -62.664844 
L 96.329632 -62.664844 
L 96.926639 -62.664844 
L 97.523646 -62.664844 
L 98.120653 -62.664844 
L 98.717661 -62.664844 
L 99.314668 -62.664844 
L 99.911675 -62.664844 
L 100.508682 -62.664844 
L 101.10569 -62.664844 
L 101.702697 -62.664844 
L 102.299704 -62.664844 
L 102.896711 -62.664844 
L 103.493719 -62.664844 
L 104.090726 -62.664844 
L 104.687733 -62.664844 
L 105.28474 -62.664844 
L 105.881748 -62.664844 
L 106.478755 -62.664844 
L 107.075762 -62.664844 
L 107.672769 -62.664844 
L 108.269777 -62.664844 
L 108.866784 -62.664844 
L 109.463791 -62.664844 
L 110.060798 -62.664844 
L 110.657806 -62.664844 
L 111.254813 -62.664844 
L 111.85182 -62.664844 
L 112.448827 -62.664844 
L 113.045835 -62.664844 
L 113.642842 -62.664844 
L 114.239849 -62.664844 
L 114.836856 -62.664844 
L 115.433864 -62.664844 
L 116.030871 -62.664844 
L 116.627878 -62.664844 
L 117.224885 -62.664844 
L 117.821893 -62.664844 
L 118.4189 -62.664844 
L 119.015907 -62.664844 
L 119.612914 -62.664844 
L 120.209922 -62.664844 
L 120.806929 -62.664844 
L 121.403936 -62.664844 
L 122.000943 -62.664844 
L 122.597951 -62.664844 
L 123.194958 -62.664844 
L 123.791965 -62.664844 
L 124.388972 -62.664844 
L 124.98598 -62.664844 
L 125.582987 -62.664844 
L 126.179994 -62.664844 
L 126.777001 -62.664844 
L 127.374009 -62.664844 
L 127.971016 -62.664844 
L 128.568023 -62.664844 
L 129.16503 -62.664844 
L 129.762038 -62.664844 
L 130.359045 -62.664844 
L 130.956052 -62.664844 
L 131.553059 -62.664844 
L 132.150067 -62.664844 
L 132.747074 -62.664844 
L 133.344081 -62.664844 
L 133.941088 -62.664844 
L 134.538096 -62.664844 
L 135.135103 -62.664844 
L 135.73211 -62.664844 
L 136.329117 -62.664844 
L 136.926125 -62.664844 
L 137.523132 -62.664844 
L 138.120139 -62.664844 
L 138.717146 -62.664844 
L 139.314154 -62.664844 
L 139.911161 -62.664844 
L 140.508168 -62.664844 
L 141.105175 -62.664844 
L 141.702183 -62.664844 
L 142.29919 -62.664844 
L 142.896197 -62.664844 
L 143.493204 -62.664844 
L 144.090212 -62.664844 
L 144.687219 -62.664844 
L 145.284226 -62.664844 
L 145.881233 -62.664844 
L 146.478241 -62.664844 
L 147.075248 -62.664844 
L 147.672255 -62.664844 
L 148.269262 -62.664844 
L 148.86627 -62.664844 
L 149.463277 -62.664844 
L 150.060284 -62.664844 
L 150.657291 -62.664844 
L 151.254299 -62.664844 
L 151.851306 -62.664844 
L 152.448313 -62.664844 
L 153.04532 -62.664844 
L 153.642328 -62.664844 
L 154.239335 -62.664844 
L 154.836342 -62.664844 
L 155.433349 -62.664844 
L 156.030357 -62.664844 
L 156.627364 -62.664844 
L 157.224371 -62.664844 
L 157.821378 -62.664844 
L 158.418386 -62.664844 
L 159.015393 -62.664844 
L 159.6124 -62.664844 
L 160.209407 -62.664844 
L 160.806415 -62.664844 
L 161.403422 -62.664844 
L 162.000429 -62.664844 
L 162.597436 -62.664844 
L 163.194444 -62.664844 
L 163.791451 -62.664844 
L 164.388458 -62.664844 
L 164.985465 -62.664844 
L 165.582473 -62.664844 
L 166.17948 -62.664844 
L 166.776487 -62.664844 
L 167.373494 -62.664844 
L 167.970502 -62.664844 
L 168.567509 -62.664844 
L 169.164516 -62.664844 
L 169.761523 -62.664844 
L 170.358531 -62.664844 
L 170.955538 -62.664844 
L 171.552545 -62.664844 
L 172.149552 -62.664844 
L 172.74656 -62.664844 
L 173.343567 -62.664844 
L 173.940574 -62.664844 
L 174.537581 -62.664844 
L 175.134589 -62.664844 
L 175.731596 -62.664844 
L 175.731596 -62.945421 
L 175.731596 -62.945421 
L 175.134589 -62.972511 
L 174.537581 -63.000823 
L 173.940574 -63.030288 
L 173.343567 -63.06084 
L 172.74656 -63.092426 
L 172.149552 -63.125016 
L 171.552545 -63.158604 
L 170.955538 -63.193228 
L 170.358531 -63.228973 
L 169.761523 -63.265988 
L 169.164516 -63.304492 
L 168.567509 -63.344786 
L 167.970502 -63.387265 
L 167.373494 -63.432424 
L 166.776487 -63.480869 
L 166.17948 -63.533318 
L 165.582473 -63.590608 
L 164.985465 -63.653693 
L 164.388458 -63.723645 
L 163.791451 -63.801642 
L 163.194444 -63.888963 
L 162.597436 -63.986972 
L 162.000429 -64.097103 
L 161.403422 -64.220835 
L 160.806415 -64.359667 
L 160.209407 -64.515093 
L 159.6124 -64.688564 
L 159.015393 -64.881458 
L 158.418386 -65.095039 
L 157.821378 -65.330425 
L 157.224371 -65.588543 
L 156.627364 -65.870099 
L 156.030357 -66.175536 
L 155.433349 -66.505008 
L 154.836342 -66.858349 
L 154.239335 -67.23505 
L 153.642328 -67.634247 
L 153.04532 -68.05471 
L 152.448313 -68.494843 
L 151.851306 -68.952693 
L 151.254299 -69.425969 
L 150.657291 -69.912064 
L 150.060284 -70.4081 
L 149.463277 -70.910959 
L 148.86627 -71.417344 
L 148.269262 -71.923832 
L 147.672255 -72.426933 
L 147.075248 -72.923157 
L 146.478241 -73.40908 
L 145.881233 -73.881406 
L 145.284226 -74.337027 
L 144.687219 -74.773085 
L 144.090212 -75.187019 
L 143.493204 -75.576608 
L 142.896197 -75.940006 
L 142.29919 -76.275766 
L 141.702183 -76.582857 
L 141.105175 -76.860661 
L 140.508168 -77.108974 
L 139.911161 -77.32799 
L 139.314154 -77.518273 
L 138.717146 -77.680732 
L 138.120139 -77.816581 
L 137.523132 -77.927303 
L 136.926125 -78.014604 
L 136.329117 -78.080372 
L 135.73211 -78.126635 
L 135.135103 -78.155519 
L 134.538096 -78.169211 
L 133.941088 -78.169928 
L 133.344081 -78.159882 
L 132.747074 -78.14126 
L 132.150067 -78.116202 
L 131.553059 -78.086783 
L 130.956052 -78.055002 
L 130.359045 -78.022772 
L 129.762038 -77.991911 
L 129.16503 -77.964135 
L 128.568023 -77.941054 
L 127.971016 -77.924162 
L 127.374009 -77.91483 
L 126.777001 -77.914298 
L 126.179994 -77.923659 
L 125.582987 -77.943848 
L 124.98598 -77.975622 
L 124.388972 -78.019543 
L 123.791965 -78.075959 
L 123.194958 -78.144977 
L 122.597951 -78.226447 
L 122.000943 -78.319939 
L 121.403936 -78.424725 
L 120.806929 -78.539761 
L 120.209922 -78.663682 
L 119.612914 -78.79479 
L 119.015907 -78.931063 
L 118.4189 -79.070157 
L 117.821893 -79.209431 
L 117.224885 -79.345969 
L 116.627878 -79.476621 
L 116.030871 -79.598045 
L 115.433864 -79.706764 
L 114.836856 -79.799227 
L 114.239849 -79.871879 
L 113.642842 -79.921234 
L 113.045835 -79.943955 
L 112.448827 -79.936929 
L 111.85182 -79.897347 
L 111.254813 -79.822779 
L 110.657806 -79.711238 
L 110.060798 -79.561242 
L 109.463791 -79.371864 
L 108.866784 -79.142764 
L 108.269777 -78.87422 
L 107.672769 -78.567125 
L 107.075762 -78.222989 
L 106.478755 -77.84391 
L 105.881748 -77.432537 
L 105.28474 -76.992022 
L 104.687733 -76.525948 
L 104.090726 -76.038262 
L 103.493719 -75.533186 
L 102.896711 -75.015135 
L 102.299704 -74.488621 
L 101.702697 -73.958164 
L 101.10569 -73.428205 
L 100.508682 -72.903022 
L 99.911675 -72.386653 
L 99.314668 -71.882834 
L 98.717661 -71.394939 
L 98.120653 -70.925939 
L 97.523646 -70.47837 
L 96.926639 -70.054316 
L 96.329632 -69.655397 
L 95.732624 -69.28278 
L 95.135617 -68.93719 
L 94.53861 -68.618939 
L 93.941603 -68.327953 
L 93.344595 -68.063812 
L 92.747588 -67.825797 
L 92.150581 -67.612929 
L 91.553574 -67.424025 
L 90.956566 -67.257734 
L 90.359559 -67.112595 
L 89.762552 -66.987069 
L 89.165545 -66.879585 
L 88.568537 -66.788576 
L 87.97153 -66.712506 
L 87.374523 -66.649894 
L 86.777516 -66.599339 
L 86.180508 -66.559531 
L 85.583501 -66.52926 
L 84.986494 -66.507419 
L 84.389487 -66.493003 
L 83.792479 -66.485108 
L 83.195472 -66.482913 
L 82.598465 -66.485678 
L 82.001458 -66.492721 
L 81.40445 -66.503409 
L 80.807443 -66.517137 
L 80.210436 -66.533312 
L 79.613428 -66.55134 
L 79.016421 -66.570609 
L 78.419414 -66.590479 
L 77.822407 -66.610275 
L 77.225399 -66.629275 
L 76.628392 -66.646718 
L 76.031385 -66.661798 
L 75.434378 -66.673676 
L 74.83737 -66.681487 
L 74.240363 -66.684353 
L 73.643356 -66.681404 
L 73.046349 -66.671792 
L 72.449341 -66.654714 
L 71.852334 -66.629435 
L 71.255327 -66.595306 
L 70.65832 -66.551785 
L 70.061312 -66.498461 
L 69.464305 -66.435061 
L 68.867298 -66.361469 
L 68.270291 -66.277735 
L 67.673283 -66.184073 
L 67.076276 -66.080867 
L 66.479269 -65.968663 
L 65.882262 -65.848157 
L 65.285254 -65.720188 
L 64.688247 -65.585712 
L 64.09124 -65.445787 
L 63.494233 -65.301547 
L 62.897225 -65.154178 
L 62.300218 -65.004894 
L 61.703211 -64.854906 
L 61.106204 -64.705405 
L 60.509196 -64.557532 
L 59.912189 -64.412362 
L 59.315182 -64.270883 
L 58.718175 -64.133984 
L 58.121167 -64.00244 
L 57.52416 -63.876906 
L 56.927153 -63.757914 
z
" style="stroke: #22a884; stroke-width: 1.25"/>
    </defs>
    <g>
     <use xlink:href="#mf18f53de81" x="0" y="173.814844" style="fill: #22a884; fill-opacity: 0.7; stroke: #22a884; stroke-width: 1.25"/>
    </g>
   </g>
   <g id="line2d_7">
    <path d="M 7.2 111.15 
L 216.45 111.15 
" style="fill: none; stroke: #22a884; stroke-opacity: 0.9; stroke-linecap: round"/>
   </g>
   <g id="text_7">
    <!-- 6 -->
    <g style="fill: #22a884" transform="translate(7.2 110.102625) scale(0.12 -0.12)">
     <defs>
      <path id="Arial-BoldMT-36" d="M 3247 3459 
L 2397 3366 
Q 2366 3628 2234 3753 
Q 2103 3878 1894 3878 
Q 1616 3878 1423 3628 
Q 1231 3378 1181 2588 
Q 1509 2975 1997 2975 
Q 2547 2975 2939 2556 
Q 3331 2138 3331 1475 
Q 3331 772 2918 347 
Q 2506 -78 1859 -78 
Q 1166 -78 719 461 
Q 272 1000 272 2228 
Q 272 3488 737 4044 
Q 1203 4600 1947 4600 
Q 2469 4600 2811 4308 
Q 3153 4016 3247 3459 
z
M 1256 1544 
Q 1256 1116 1453 883 
Q 1650 650 1903 650 
Q 2147 650 2309 840 
Q 2472 1031 2472 1466 
Q 2472 1913 2297 2120 
Q 2122 2328 1859 2328 
Q 1606 2328 1431 2129 
Q 1256 1931 1256 1544 
z
" transform="scale(0.015625)"/>
     </defs>
     <use xlink:href="#Arial-BoldMT-36"/>
    </g>
   </g>
  </g>
  <g id="axes_8">
   <g id="patch_9">
    <path d="M 7.2 121.545 
L 216.45 121.545 
L 216.45 79.965 
L 7.2 79.965 
L 7.2 121.545 
z
" style="fill: none"/>
   </g>
   <g id="matplotlib.axis_15">
    <g id="xtick_29"/>
    <g id="xtick_30"/>
    <g id="xtick_31"/>
    <g id="xtick_32"/>
   </g>
   <g id="matplotlib.axis_16"/>
   <g id="PolyCollection_7">
    <defs>
     <path id="mb96913aca4" d="M 47.57828 -52.507853 
L 47.57828 -52.269844 
L 48.276882 -52.269844 
L 48.975484 -52.269844 
L 49.674087 -52.269844 
L 50.372689 -52.269844 
L 51.071292 -52.269844 
L 51.769894 -52.269844 
L 52.468497 -52.269844 
L 53.167099 -52.269844 
L 53.865701 -52.269844 
L 54.564304 -52.269844 
L 55.262906 -52.269844 
L 55.961509 -52.269844 
L 56.660111 -52.269844 
L 57.358713 -52.269844 
L 58.057316 -52.269844 
L 58.755918 -52.269844 
L 59.454521 -52.269844 
L 60.153123 -52.269844 
L 60.851726 -52.269844 
L 61.550328 -52.269844 
L 62.24893 -52.269844 
L 62.947533 -52.269844 
L 63.646135 -52.269844 
L 64.344738 -52.269844 
L 65.04334 -52.269844 
L 65.741942 -52.269844 
L 66.440545 -52.269844 
L 67.139147 -52.269844 
L 67.83775 -52.269844 
L 68.536352 -52.269844 
L 69.234954 -52.269844 
L 69.933557 -52.269844 
L 70.632159 -52.269844 
L 71.330762 -52.269844 
L 72.029364 -52.269844 
L 72.727967 -52.269844 
L 73.426569 -52.269844 
L 74.125171 -52.269844 
L 74.823774 -52.269844 
L 75.522376 -52.269844 
L 76.220979 -52.269844 
L 76.919581 -52.269844 
L 77.618183 -52.269844 
L 78.316786 -52.269844 
L 79.015388 -52.269844 
L 79.713991 -52.269844 
L 80.412593 -52.269844 
L 81.111196 -52.269844 
L 81.809798 -52.269844 
L 82.5084 -52.269844 
L 83.207003 -52.269844 
L 83.905605 -52.269844 
L 84.604208 -52.269844 
L 85.30281 -52.269844 
L 86.001412 -52.269844 
L 86.700015 -52.269844 
L 87.398617 -52.269844 
L 88.09722 -52.269844 
L 88.795822 -52.269844 
L 89.494425 -52.269844 
L 90.193027 -52.269844 
L 90.891629 -52.269844 
L 91.590232 -52.269844 
L 92.288834 -52.269844 
L 92.987437 -52.269844 
L 93.686039 -52.269844 
L 94.384641 -52.269844 
L 95.083244 -52.269844 
L 95.781846 -52.269844 
L 96.480449 -52.269844 
L 97.179051 -52.269844 
L 97.877654 -52.269844 
L 98.576256 -52.269844 
L 99.274858 -52.269844 
L 99.973461 -52.269844 
L 100.672063 -52.269844 
L 101.370666 -52.269844 
L 102.069268 -52.269844 
L 102.76787 -52.269844 
L 103.466473 -52.269844 
L 104.165075 -52.269844 
L 104.863678 -52.269844 
L 105.56228 -52.269844 
L 106.260882 -52.269844 
L 106.959485 -52.269844 
L 107.658087 -52.269844 
L 108.35669 -52.269844 
L 109.055292 -52.269844 
L 109.753895 -52.269844 
L 110.452497 -52.269844 
L 111.151099 -52.269844 
L 111.849702 -52.269844 
L 112.548304 -52.269844 
L 113.246907 -52.269844 
L 113.945509 -52.269844 
L 114.644111 -52.269844 
L 115.342714 -52.269844 
L 116.041316 -52.269844 
L 116.739919 -52.269844 
L 117.438521 -52.269844 
L 118.137124 -52.269844 
L 118.835726 -52.269844 
L 119.534328 -52.269844 
L 120.232931 -52.269844 
L 120.931533 -52.269844 
L 121.630136 -52.269844 
L 122.328738 -52.269844 
L 123.02734 -52.269844 
L 123.725943 -52.269844 
L 124.424545 -52.269844 
L 125.123148 -52.269844 
L 125.82175 -52.269844 
L 126.520353 -52.269844 
L 127.218955 -52.269844 
L 127.917557 -52.269844 
L 128.61616 -52.269844 
L 129.314762 -52.269844 
L 130.013365 -52.269844 
L 130.711967 -52.269844 
L 131.410569 -52.269844 
L 132.109172 -52.269844 
L 132.807774 -52.269844 
L 133.506377 -52.269844 
L 134.204979 -52.269844 
L 134.903582 -52.269844 
L 135.602184 -52.269844 
L 136.300786 -52.269844 
L 136.999389 -52.269844 
L 137.697991 -52.269844 
L 138.396594 -52.269844 
L 139.095196 -52.269844 
L 139.793798 -52.269844 
L 140.492401 -52.269844 
L 141.191003 -52.269844 
L 141.889606 -52.269844 
L 142.588208 -52.269844 
L 143.28681 -52.269844 
L 143.985413 -52.269844 
L 144.684015 -52.269844 
L 145.382618 -52.269844 
L 146.08122 -52.269844 
L 146.779823 -52.269844 
L 147.478425 -52.269844 
L 148.177027 -52.269844 
L 148.87563 -52.269844 
L 149.574232 -52.269844 
L 150.272835 -52.269844 
L 150.971437 -52.269844 
L 151.670039 -52.269844 
L 152.368642 -52.269844 
L 153.067244 -52.269844 
L 153.765847 -52.269844 
L 154.464449 -52.269844 
L 155.163052 -52.269844 
L 155.861654 -52.269844 
L 156.560256 -52.269844 
L 157.258859 -52.269844 
L 157.957461 -52.269844 
L 158.656064 -52.269844 
L 159.354666 -52.269844 
L 160.053268 -52.269844 
L 160.751871 -52.269844 
L 161.450473 -52.269844 
L 162.149076 -52.269844 
L 162.847678 -52.269844 
L 163.546281 -52.269844 
L 164.244883 -52.269844 
L 164.943485 -52.269844 
L 165.642088 -52.269844 
L 166.34069 -52.269844 
L 167.039293 -52.269844 
L 167.737895 -52.269844 
L 168.436497 -52.269844 
L 169.1351 -52.269844 
L 169.833702 -52.269844 
L 170.532305 -52.269844 
L 171.230907 -52.269844 
L 171.92951 -52.269844 
L 172.628112 -52.269844 
L 173.326714 -52.269844 
L 174.025317 -52.269844 
L 174.723919 -52.269844 
L 175.422522 -52.269844 
L 176.121124 -52.269844 
L 176.819726 -52.269844 
L 177.518329 -52.269844 
L 178.216931 -52.269844 
L 178.915534 -52.269844 
L 179.614136 -52.269844 
L 180.312738 -52.269844 
L 181.011341 -52.269844 
L 181.709943 -52.269844 
L 182.408546 -52.269844 
L 183.107148 -52.269844 
L 183.805751 -52.269844 
L 184.504353 -52.269844 
L 185.202955 -52.269844 
L 185.901558 -52.269844 
L 186.60016 -52.269844 
L 186.60016 -52.70685 
L 186.60016 -52.70685 
L 185.901558 -52.758152 
L 185.202955 -52.810583 
L 184.504353 -52.863364 
L 183.805751 -52.915667 
L 183.107148 -52.966644 
L 182.408546 -53.015466 
L 181.709943 -53.061357 
L 181.011341 -53.103629 
L 180.312738 -53.141712 
L 179.614136 -53.175188 
L 178.915534 -53.2038 
L 178.216931 -53.227473 
L 177.518329 -53.246313 
L 176.819726 -53.260601 
L 176.121124 -53.27078 
L 175.422522 -53.277436 
L 174.723919 -53.28127 
L 174.025317 -53.283072 
L 173.326714 -53.283685 
L 172.628112 -53.283981 
L 171.92951 -53.28483 
L 171.230907 -53.287076 
L 170.532305 -53.291521 
L 169.833702 -53.298908 
L 169.1351 -53.309915 
L 168.436497 -53.325155 
L 167.737895 -53.345177 
L 167.039293 -53.370471 
L 166.34069 -53.40148 
L 165.642088 -53.438607 
L 164.943485 -53.482225 
L 164.244883 -53.532681 
L 163.546281 -53.590295 
L 162.847678 -53.655359 
L 162.149076 -53.728123 
L 161.450473 -53.808776 
L 160.751871 -53.897421 
L 160.053268 -53.994043 
L 159.354666 -54.098479 
L 158.656064 -54.210377 
L 157.957461 -54.329168 
L 157.258859 -54.45404 
L 156.560256 -54.583918 
L 155.861654 -54.71746 
L 155.163052 -54.853075 
L 154.464449 -54.988947 
L 153.765847 -55.123087 
L 153.067244 -55.253399 
L 152.368642 -55.377768 
L 151.670039 -55.494156 
L 150.971437 -55.60071 
L 150.272835 -55.695875 
L 149.574232 -55.778505 
L 148.87563 -55.847967 
L 148.177027 -55.904228 
L 147.478425 -55.947934 
L 146.779823 -55.980453 
L 146.08122 -56.003902 
L 145.382618 -56.021142 
L 144.684015 -56.035752 
L 143.985413 -56.051966 
L 143.28681 -56.074596 
L 142.588208 -56.108924 
L 141.889606 -56.160588 
L 141.191003 -56.235438 
L 140.492401 -56.339394 
L 139.793798 -56.478289 
L 139.095196 -56.65771 
L 138.396594 -56.882837 
L 137.697991 -57.158282 
L 136.999389 -57.487931 
L 136.300786 -57.874794 
L 135.602184 -58.320865 
L 134.903582 -58.826999 
L 134.204979 -59.392811 
L 133.506377 -60.016597 
L 132.807774 -60.695299 
L 132.109172 -61.424505 
L 131.410569 -62.198501 
L 130.711967 -63.010374 
L 130.013365 -63.852172 
L 129.314762 -64.715115 
L 128.61616 -65.589863 
L 127.917557 -66.466813 
L 127.218955 -67.336433 
L 126.520353 -68.189603 
L 125.82175 -69.017951 
L 125.123148 -69.814156 
L 124.424545 -70.572205 
L 123.725943 -71.287578 
L 123.02734 -71.957355 
L 122.328738 -72.580226 
L 121.630136 -73.156396 
L 120.931533 -73.687406 
L 120.232931 -74.175857 
L 119.534328 -74.625063 
L 118.835726 -75.038661 
L 118.137124 -75.420186 
L 117.438521 -75.772665 
L 116.739919 -76.098224 
L 116.041316 -76.397777 
L 115.342714 -76.670784 
L 114.644111 -76.915119 
L 113.945509 -77.127056 
L 113.246907 -77.301369 
L 112.548304 -77.431554 
L 111.849702 -77.51016 
L 111.151099 -77.529202 
L 110.452497 -77.48064 
L 109.753895 -77.356895 
L 109.055292 -77.151363 
L 108.35669 -76.858898 
L 107.658087 -76.47624 
L 106.959485 -76.002344 
L 106.260882 -75.438604 
L 105.56228 -74.788949 
L 104.863678 -74.059804 
L 104.165075 -73.25992 
L 103.466473 -72.40008 
L 102.76787 -71.492706 
L 102.069268 -70.551372 
L 101.370666 -69.59028 
L 100.672063 -68.623701 
L 99.973461 -67.665429 
L 99.274858 -66.728274 
L 98.576256 -65.823619 
L 97.877654 -64.961056 
L 97.179051 -64.148135 
L 96.480449 -63.390204 
L 95.781846 -62.690375 
L 95.083244 -62.049588 
L 94.384641 -61.466769 
L 93.686039 -60.939081 
L 92.987437 -60.462224 
L 92.288834 -60.030786 
L 91.590232 -59.638621 
L 90.891629 -59.27922 
L 90.193027 -58.94607 
L 89.494425 -58.632975 
L 88.795822 -58.334335 
L 88.09722 -58.045359 
L 87.398617 -57.762214 
L 86.700015 -57.482113 
L 86.001412 -57.20333 
L 85.30281 -56.925154 
L 84.604208 -56.647795 
L 83.905605 -56.372248 
L 83.207003 -56.10012 
L 82.5084 -55.833447 
L 81.809798 -55.574505 
L 81.111196 -55.325625 
L 80.412593 -55.089032 
L 79.713991 -54.866698 
L 79.015388 -54.660237 
L 78.316786 -54.470825 
L 77.618183 -54.299159 
L 76.919581 -54.145447 
L 76.220979 -54.009423 
L 75.522376 -53.890391 
L 74.823774 -53.787287 
L 74.125171 -53.698751 
L 73.426569 -53.623208 
L 72.727967 -53.558952 
L 72.029364 -53.504225 
L 71.330762 -53.457292 
L 70.632159 -53.416506 
L 69.933557 -53.380359 
L 69.234954 -53.347524 
L 68.536352 -53.31688 
L 67.83775 -53.287528 
L 67.139147 -53.258793 
L 66.440545 -53.230211 
L 65.741942 -53.201512 
L 65.04334 -53.172589 
L 64.344738 -53.143471 
L 63.646135 -53.114279 
L 62.947533 -53.085196 
L 62.24893 -53.056423 
L 61.550328 -53.028154 
L 60.851726 -53.000548 
L 60.153123 -52.973704 
L 59.454521 -52.947655 
L 58.755918 -52.922364 
L 58.057316 -52.897722 
L 57.358713 -52.873564 
L 56.660111 -52.849687 
L 55.961509 -52.825863 
L 55.262906 -52.801865 
L 54.564304 -52.777489 
L 53.865701 -52.75257 
L 53.167099 -52.727001 
L 52.468497 -52.70074 
L 51.769894 -52.673816 
L 51.071292 -52.646329 
L 50.372689 -52.618446 
L 49.674087 -52.590386 
L 48.975484 -52.562409 
L 48.276882 -52.534801 
L 47.57828 -52.507853 
z
" style="stroke: #2a788e; stroke-width: 1.25"/>
    </defs>
    <g>
     <use xlink:href="#mb96913aca4" x="0" y="173.814844" style="fill: #2a788e; fill-opacity: 0.7; stroke: #2a788e; stroke-width: 1.25"/>
    </g>
   </g>
   <g id="line2d_8">
    <path d="M 7.2 121.545 
L 216.45 121.545 
" style="fill: none; stroke: #2a788e; stroke-opacity: 0.9; stroke-linecap: round"/>
   </g>
   <g id="text_8">
    <!-- 7 -->
    <g style="fill: #2a788e" transform="translate(7.2 120.497625) scale(0.12 -0.12)">
     <defs>
      <path id="Arial-BoldMT-37" d="M 272 3703 
L 272 4519 
L 3275 4519 
L 3275 3881 
Q 2903 3516 2518 2831 
Q 2134 2147 1932 1376 
Q 1731 606 1734 0 
L 888 0 
Q 909 950 1279 1937 
Q 1650 2925 2269 3703 
L 272 3703 
z
" transform="scale(0.015625)"/>
     </defs>
     <use xlink:href="#Arial-BoldMT-37"/>
    </g>
   </g>
  </g>
  <g id="axes_9">
   <g id="patch_10">
    <path d="M 7.2 131.94 
L 216.45 131.94 
L 216.45 90.36 
L 7.2 90.36 
L 7.2 131.94 
z
" style="fill: none"/>
   </g>
   <g id="matplotlib.axis_17">
    <g id="xtick_33">
     <g id="text_9">
      <!-- 2000 -->
      <g style="fill: #838383" transform="translate(36.804714 149.313594) scale(0.11 -0.11)">
       <defs>
        <path id="ArialMT-2212" d="M 3381 1997 
L 356 1997 
L 356 2522 
L 3381 2522 
L 3381 1997 
z
" transform="scale(0.015625)"/>
        <path id="ArialMT-32" d="M 3222 541 
L 3222 0 
L 194 0 
Q 188 203 259 391 
Q 375 700 629 1000 
Q 884 1300 1366 1694 
Q 2113 2306 2375 2664 
Q 2638 3022 2638 3341 
Q 2638 3675 2398 3904 
Q 2159 4134 1775 4134 
Q 1369 4134 1125 3890 
Q 881 3647 878 3216 
L 300 3275 
Q 359 3922 746 4261 
Q 1134 4600 1788 4600 
Q 2447 4600 2831 4234 
Q 3216 3869 3216 3328 
Q 3216 3053 3103 2787 
Q 2991 2522 2730 2228 
Q 2469 1934 1863 1422 
Q 1356 997 1212 845 
Q 1069 694 975 541 
L 3222 541 
z
" transform="scale(0.015625)"/>
        <path id="ArialMT-30" d="M 266 2259 
Q 266 3072 433 3567 
Q 600 4063 929 4331 
Q 1259 4600 1759 4600 
Q 2128 4600 2406 4451 
Q 2684 4303 2865 4023 
Q 3047 3744 3150 3342 
Q 3253 2941 3253 2259 
Q 3253 1453 3087 958 
Q 2922 463 2592 192 
Q 2263 -78 1759 -78 
Q 1097 -78 719 397 
Q 266 969 266 2259 
z
M 844 2259 
Q 844 1131 1108 757 
Q 1372 384 1759 384 
Q 2147 384 2411 759 
Q 2675 1134 2675 2259 
Q 2675 3391 2411 3762 
Q 2147 4134 1753 4134 
Q 1366 4134 1134 3806 
Q 844 3388 844 2259 
z
" transform="scale(0.015625)"/>
       </defs>
       <use xlink:href="#ArialMT-2212"/>
       <use xlink:href="#ArialMT-32" x="58.398438"/>
       <use xlink:href="#ArialMT-30" x="114.013672"/>
       <use xlink:href="#ArialMT-30" x="169.628906"/>
       <use xlink:href="#ArialMT-30" x="225.244141"/>
      </g>
     </g>
    </g>
    <g id="xtick_34">
     <g id="text_10">
      <!-- 0 -->
      <g style="fill: #838383" transform="translate(100.888604 149.313594) scale(0.11 -0.11)">
       <use xlink:href="#ArialMT-30"/>
      </g>
     </g>
    </g>
    <g id="xtick_35">
     <g id="text_11">
      <!-- 2000 -->
      <g style="fill: #838383" transform="translate(143.409056 149.313594) scale(0.11 -0.11)">
       <use xlink:href="#ArialMT-32"/>
       <use xlink:href="#ArialMT-30" x="55.615234"/>
       <use xlink:href="#ArialMT-30" x="111.230469"/>
       <use xlink:href="#ArialMT-30" x="166.845703"/>
      </g>
     </g>
    </g>
    <g id="xtick_36">
     <g id="text_12">
      <!-- 4000 -->
      <g style="fill: #838383" transform="translate(195.105055 149.313594) scale(0.11 -0.11)">
       <defs>
        <path id="ArialMT-34" d="M 2069 0 
L 2069 1097 
L 81 1097 
L 81 1613 
L 2172 4581 
L 2631 4581 
L 2631 1613 
L 3250 1613 
L 3250 1097 
L 2631 1097 
L 2631 0 
L 2069 0 
z
M 2069 1613 
L 2069 3678 
L 634 1613 
L 2069 1613 
z
" transform="scale(0.015625)"/>
       </defs>
       <use xlink:href="#ArialMT-34"/>
       <use xlink:href="#ArialMT-30" x="55.615234"/>
       <use xlink:href="#ArialMT-30" x="111.230469"/>
       <use xlink:href="#ArialMT-30" x="166.845703"/>
      </g>
     </g>
    </g>
    <g id="text_13">
     <!-- logdet -->
     <g style="fill: #bdbdbd" transform="translate(95.47875 164.089219) scale(0.12 -0.12)">
      <defs>
       <path id="ArialMT-6c" d="M 409 0 
L 409 4581 
L 972 4581 
L 972 0 
L 409 0 
z
" transform="scale(0.015625)"/>
       <path id="ArialMT-6f" d="M 213 1659 
Q 213 2581 725 3025 
Q 1153 3394 1769 3394 
Q 2453 3394 2887 2945 
Q 3322 2497 3322 1706 
Q 3322 1066 3130 698 
Q 2938 331 2570 128 
Q 2203 -75 1769 -75 
Q 1072 -75 642 372 
Q 213 819 213 1659 
z
M 791 1659 
Q 791 1022 1069 705 
Q 1347 388 1769 388 
Q 2188 388 2466 706 
Q 2744 1025 2744 1678 
Q 2744 2294 2464 2611 
Q 2184 2928 1769 2928 
Q 1347 2928 1069 2612 
Q 791 2297 791 1659 
z
" transform="scale(0.015625)"/>
       <path id="ArialMT-67" d="M 319 -275 
L 866 -356 
Q 900 -609 1056 -725 
Q 1266 -881 1628 -881 
Q 2019 -881 2231 -725 
Q 2444 -569 2519 -288 
Q 2563 -116 2559 434 
Q 2191 0 1641 0 
Q 956 0 581 494 
Q 206 988 206 1678 
Q 206 2153 378 2554 
Q 550 2956 876 3175 
Q 1203 3394 1644 3394 
Q 2231 3394 2613 2919 
L 2613 3319 
L 3131 3319 
L 3131 450 
Q 3131 -325 2973 -648 
Q 2816 -972 2473 -1159 
Q 2131 -1347 1631 -1347 
Q 1038 -1347 672 -1080 
Q 306 -813 319 -275 
z
M 784 1719 
Q 784 1066 1043 766 
Q 1303 466 1694 466 
Q 2081 466 2343 764 
Q 2606 1063 2606 1700 
Q 2606 2309 2336 2618 
Q 2066 2928 1684 2928 
Q 1309 2928 1046 2623 
Q 784 2319 784 1719 
z
" transform="scale(0.015625)"/>
       <path id="ArialMT-64" d="M 2575 0 
L 2575 419 
Q 2259 -75 1647 -75 
Q 1250 -75 917 144 
Q 584 363 401 755 
Q 219 1147 219 1656 
Q 219 2153 384 2558 
Q 550 2963 881 3178 
Q 1213 3394 1622 3394 
Q 1922 3394 2156 3267 
Q 2391 3141 2538 2938 
L 2538 4581 
L 3097 4581 
L 3097 0 
L 2575 0 
z
M 797 1656 
Q 797 1019 1065 703 
Q 1334 388 1700 388 
Q 2069 388 2326 689 
Q 2584 991 2584 1609 
Q 2584 2291 2321 2609 
Q 2059 2928 1675 2928 
Q 1300 2928 1048 2622 
Q 797 2316 797 1656 
z
" transform="scale(0.015625)"/>
       <path id="ArialMT-65" d="M 2694 1069 
L 3275 997 
Q 3138 488 2766 206 
Q 2394 -75 1816 -75 
Q 1088 -75 661 373 
Q 234 822 234 1631 
Q 234 2469 665 2931 
Q 1097 3394 1784 3394 
Q 2450 3394 2872 2941 
Q 3294 2488 3294 1666 
Q 3294 1616 3291 1516 
L 816 1516 
Q 847 969 1125 678 
Q 1403 388 1819 388 
Q 2128 388 2347 550 
Q 2566 713 2694 1069 
z
M 847 1978 
L 2700 1978 
Q 2663 2397 2488 2606 
Q 2219 2931 1791 2931 
Q 1403 2931 1139 2672 
Q 875 2413 847 1978 
z
" transform="scale(0.015625)"/>
       <path id="ArialMT-74" d="M 1650 503 
L 1731 6 
Q 1494 -44 1306 -44 
Q 1000 -44 831 53 
Q 663 150 594 308 
Q 525 466 525 972 
L 525 2881 
L 113 2881 
L 113 3319 
L 525 3319 
L 525 4141 
L 1084 4478 
L 1084 3319 
L 1650 3319 
L 1650 2881 
L 1084 2881 
L 1084 941 
Q 1084 700 1114 631 
Q 1144 563 1211 522 
Q 1278 481 1403 481 
Q 1497 481 1650 503 
z
" transform="scale(0.015625)"/>
      </defs>
      <use xlink:href="#ArialMT-6c"/>
      <use xlink:href="#ArialMT-6f" x="22.216797"/>
      <use xlink:href="#ArialMT-67" x="77.832031"/>
      <use xlink:href="#ArialMT-64" x="133.447266"/>
      <use xlink:href="#ArialMT-65" x="189.0625"/>
      <use xlink:href="#ArialMT-74" x="244.677734"/>
     </g>
    </g>
   </g>
   <g id="matplotlib.axis_18"/>
   <g id="PolyCollection_8">
    <defs>
     <path id="md0b1ab657e" d="M 37.55527 -42.181655 
L 37.55527 -41.874844 
L 38.406442 -41.874844 
L 39.257615 -41.874844 
L 40.108788 -41.874844 
L 40.959961 -41.874844 
L 41.811133 -41.874844 
L 42.662306 -41.874844 
L 43.513479 -41.874844 
L 44.364651 -41.874844 
L 45.215824 -41.874844 
L 46.066997 -41.874844 
L 46.918169 -41.874844 
L 47.769342 -41.874844 
L 48.620515 -41.874844 
L 49.471688 -41.874844 
L 50.32286 -41.874844 
L 51.174033 -41.874844 
L 52.025206 -41.874844 
L 52.876378 -41.874844 
L 53.727551 -41.874844 
L 54.578724 -41.874844 
L 55.429896 -41.874844 
L 56.281069 -41.874844 
L 57.132242 -41.874844 
L 57.983414 -41.874844 
L 58.834587 -41.874844 
L 59.68576 -41.874844 
L 60.536933 -41.874844 
L 61.388105 -41.874844 
L 62.239278 -41.874844 
L 63.090451 -41.874844 
L 63.941623 -41.874844 
L 64.792796 -41.874844 
L 65.643969 -41.874844 
L 66.495141 -41.874844 
L 67.346314 -41.874844 
L 68.197487 -41.874844 
L 69.04866 -41.874844 
L 69.899832 -41.874844 
L 70.751005 -41.874844 
L 71.602178 -41.874844 
L 72.45335 -41.874844 
L 73.304523 -41.874844 
L 74.155696 -41.874844 
L 75.006868 -41.874844 
L 75.858041 -41.874844 
L 76.709214 -41.874844 
L 77.560387 -41.874844 
L 78.411559 -41.874844 
L 79.262732 -41.874844 
L 80.113905 -41.874844 
L 80.965077 -41.874844 
L 81.81625 -41.874844 
L 82.667423 -41.874844 
L 83.518595 -41.874844 
L 84.369768 -41.874844 
L 85.220941 -41.874844 
L 86.072113 -41.874844 
L 86.923286 -41.874844 
L 87.774459 -41.874844 
L 88.625632 -41.874844 
L 89.476804 -41.874844 
L 90.327977 -41.874844 
L 91.17915 -41.874844 
L 92.030322 -41.874844 
L 92.881495 -41.874844 
L 93.732668 -41.874844 
L 94.58384 -41.874844 
L 95.435013 -41.874844 
L 96.286186 -41.874844 
L 97.137359 -41.874844 
L 97.988531 -41.874844 
L 98.839704 -41.874844 
L 99.690877 -41.874844 
L 100.542049 -41.874844 
L 101.393222 -41.874844 
L 102.244395 -41.874844 
L 103.095567 -41.874844 
L 103.94674 -41.874844 
L 104.797913 -41.874844 
L 105.649085 -41.874844 
L 106.500258 -41.874844 
L 107.351431 -41.874844 
L 108.202604 -41.874844 
L 109.053776 -41.874844 
L 109.904949 -41.874844 
L 110.756122 -41.874844 
L 111.607294 -41.874844 
L 112.458467 -41.874844 
L 113.30964 -41.874844 
L 114.160812 -41.874844 
L 115.011985 -41.874844 
L 115.863158 -41.874844 
L 116.714331 -41.874844 
L 117.565503 -41.874844 
L 118.416676 -41.874844 
L 119.267849 -41.874844 
L 120.119021 -41.874844 
L 120.970194 -41.874844 
L 121.821367 -41.874844 
L 122.672539 -41.874844 
L 123.523712 -41.874844 
L 124.374885 -41.874844 
L 125.226058 -41.874844 
L 126.07723 -41.874844 
L 126.928403 -41.874844 
L 127.779576 -41.874844 
L 128.630748 -41.874844 
L 129.481921 -41.874844 
L 130.333094 -41.874844 
L 131.184266 -41.874844 
L 132.035439 -41.874844 
L 132.886612 -41.874844 
L 133.737784 -41.874844 
L 134.588957 -41.874844 
L 135.44013 -41.874844 
L 136.291303 -41.874844 
L 137.142475 -41.874844 
L 137.993648 -41.874844 
L 138.844821 -41.874844 
L 139.695993 -41.874844 
L 140.547166 -41.874844 
L 141.398339 -41.874844 
L 142.249511 -41.874844 
L 143.100684 -41.874844 
L 143.951857 -41.874844 
L 144.80303 -41.874844 
L 145.654202 -41.874844 
L 146.505375 -41.874844 
L 147.356548 -41.874844 
L 148.20772 -41.874844 
L 149.058893 -41.874844 
L 149.910066 -41.874844 
L 150.761238 -41.874844 
L 151.612411 -41.874844 
L 152.463584 -41.874844 
L 153.314756 -41.874844 
L 154.165929 -41.874844 
L 155.017102 -41.874844 
L 155.868275 -41.874844 
L 156.719447 -41.874844 
L 157.57062 -41.874844 
L 158.421793 -41.874844 
L 159.272965 -41.874844 
L 160.124138 -41.874844 
L 160.975311 -41.874844 
L 161.826483 -41.874844 
L 162.677656 -41.874844 
L 163.528829 -41.874844 
L 164.380002 -41.874844 
L 165.231174 -41.874844 
L 166.082347 -41.874844 
L 166.93352 -41.874844 
L 167.784692 -41.874844 
L 168.635865 -41.874844 
L 169.487038 -41.874844 
L 170.33821 -41.874844 
L 171.189383 -41.874844 
L 172.040556 -41.874844 
L 172.891729 -41.874844 
L 173.742901 -41.874844 
L 174.594074 -41.874844 
L 175.445247 -41.874844 
L 176.296419 -41.874844 
L 177.147592 -41.874844 
L 177.998765 -41.874844 
L 178.849937 -41.874844 
L 179.70111 -41.874844 
L 180.552283 -41.874844 
L 181.403455 -41.874844 
L 182.254628 -41.874844 
L 183.105801 -41.874844 
L 183.956974 -41.874844 
L 184.808146 -41.874844 
L 185.659319 -41.874844 
L 186.510492 -41.874844 
L 187.361664 -41.874844 
L 188.212837 -41.874844 
L 189.06401 -41.874844 
L 189.915182 -41.874844 
L 190.766355 -41.874844 
L 191.617528 -41.874844 
L 192.468701 -41.874844 
L 193.319873 -41.874844 
L 194.171046 -41.874844 
L 195.022219 -41.874844 
L 195.873391 -41.874844 
L 196.724564 -41.874844 
L 197.575737 -41.874844 
L 198.426909 -41.874844 
L 199.278082 -41.874844 
L 200.129255 -41.874844 
L 200.980427 -41.874844 
L 201.8316 -41.874844 
L 202.682773 -41.874844 
L 203.533946 -41.874844 
L 204.385118 -41.874844 
L 205.236291 -41.874844 
L 206.087464 -41.874844 
L 206.938636 -41.874844 
L 206.938636 -42.141852 
L 206.938636 -42.141852 
L 206.087464 -42.178776 
L 205.236291 -42.218003 
L 204.385118 -42.259191 
L 203.533946 -42.301918 
L 202.682773 -42.345679 
L 201.8316 -42.389901 
L 200.980427 -42.43395 
L 200.129255 -42.477145 
L 199.278082 -42.518777 
L 198.426909 -42.558129 
L 197.575737 -42.594495 
L 196.724564 -42.627213 
L 195.873391 -42.655683 
L 195.022219 -42.679399 
L 194.171046 -42.697973 
L 193.319873 -42.711157 
L 192.468701 -42.718865 
L 191.617528 -42.721187 
L 190.766355 -42.718399 
L 189.915182 -42.710962 
L 189.06401 -42.699518 
L 188.212837 -42.684876 
L 187.361664 -42.667985 
L 186.510492 -42.64991 
L 185.659319 -42.631794 
L 184.808146 -42.614815 
L 183.956974 -42.600147 
L 183.105801 -42.588913 
L 182.254628 -42.582145 
L 181.403455 -42.580746 
L 180.552283 -42.585453 
L 179.70111 -42.596817 
L 178.849937 -42.615177 
L 177.998765 -42.640656 
L 177.147592 -42.673157 
L 176.296419 -42.712372 
L 175.445247 -42.757798 
L 174.594074 -42.80876 
L 173.742901 -42.864447 
L 172.891729 -42.923943 
L 172.040556 -42.986276 
L 171.189383 -43.050462 
L 170.33821 -43.115554 
L 169.487038 -43.180691 
L 168.635865 -43.245145 
L 167.784692 -43.308365 
L 166.93352 -43.370015 
L 166.082347 -43.429999 
L 165.231174 -43.488476 
L 164.380002 -43.545868 
L 163.528829 -43.602843 
L 162.677656 -43.660286 
L 161.826483 -43.719255 
L 160.975311 -43.780923 
L 160.124138 -43.846501 
L 159.272965 -43.91716 
L 158.421793 -43.993943 
L 157.57062 -44.077676 
L 156.719447 -44.168892 
L 155.868275 -44.267755 
L 155.017102 -44.37401 
L 154.165929 -44.486953 
L 153.314756 -44.605424 
L 152.463584 -44.727826 
L 151.612411 -44.852179 
L 150.761238 -44.976197 
L 149.910066 -45.097387 
L 149.058893 -45.213178 
L 148.20772 -45.321049 
L 147.356548 -45.418683 
L 146.505375 -45.504104 
L 145.654202 -45.575819 
L 144.80303 -45.632933 
L 143.951857 -45.67525 
L 143.100684 -45.703341 
L 142.249511 -45.718583 
L 141.398339 -45.723159 
L 140.547166 -45.720025 
L 139.695993 -45.712848 
L 138.844821 -45.705909 
L 137.993648 -45.703984 
L 137.142475 -45.712208 
L 136.291303 -45.735932 
L 135.44013 -45.780571 
L 134.588957 -45.851464 
L 133.737784 -45.953742 
L 132.886612 -46.09222 
L 132.035439 -46.271303 
L 131.184266 -46.494931 
L 130.333094 -46.766539 
L 129.481921 -47.089053 
L 128.630748 -47.464903 
L 127.779576 -47.89606 
L 126.928403 -48.384084 
L 126.07723 -48.930164 
L 125.226058 -49.535168 
L 124.374885 -50.199656 
L 123.523712 -50.923876 
L 122.672539 -51.707712 
L 121.821367 -52.550594 
L 120.970194 -53.451347 
L 120.119021 -54.408 
L 119.267849 -55.417551 
L 118.416676 -56.475702 
L 117.565503 -57.576588 
L 116.714331 -58.712515 
L 115.863158 -59.87375 
L 115.011985 -61.048379 
L 114.160812 -62.222264 
L 113.30964 -63.379136 
L 112.458467 -64.500824 
L 111.607294 -65.567634 
L 110.756122 -66.558886 
L 109.904949 -67.453573 
L 109.053776 -68.231125 
L 108.202604 -68.872239 
L 107.351431 -69.359719 
L 106.500258 -69.679278 
L 105.649085 -69.820252 
L 104.797913 -69.77617 
L 103.94674 -69.545141 
L 103.095567 -69.130032 
L 102.244395 -68.538424 
L 101.393222 -67.782331 
L 100.542049 -66.877733 
L 99.690877 -65.843911 
L 98.839704 -64.702664 
L 97.988531 -63.47743 
L 97.137359 -62.192383 
L 96.286186 -60.871548 
L 95.435013 -59.537977 
L 94.58384 -58.213039 
L 93.732668 -56.915846 
L 92.881495 -55.662824 
L 92.030322 -54.467454 
L 91.17915 -53.340163 
L 90.327977 -52.288357 
L 89.476804 -51.31658 
L 88.625632 -50.426769 
L 87.774459 -49.618577 
L 86.923286 -48.889744 
L 86.072113 -48.236482 
L 85.220941 -47.653859 
L 84.369768 -47.136165 
L 83.518595 -46.677238 
L 82.667423 -46.27075 
L 81.81625 -45.910446 
L 80.965077 -45.590333 
L 80.113905 -45.304822 
L 79.262732 -45.048829 
L 78.411559 -44.817836 
L 77.560387 -44.607919 
L 76.709214 -44.415755 
L 75.858041 -44.2386 
L 75.006868 -44.074261 
L 74.155696 -43.921048 
L 73.304523 -43.777727 
L 72.45335 -43.643458 
L 71.602178 -43.51774 
L 70.751005 -43.400346 
L 69.899832 -43.291266 
L 69.04866 -43.190645 
L 68.197487 -43.098725 
L 67.346314 -43.015792 
L 66.495141 -42.94212 
L 65.643969 -42.877925 
L 64.792796 -42.823326 
L 63.941623 -42.778307 
L 63.090451 -42.742692 
L 62.239278 -42.716121 
L 61.388105 -42.698051 
L 60.536933 -42.687746 
L 59.68576 -42.684294 
L 58.834587 -42.686625 
L 57.983414 -42.693541 
L 57.132242 -42.703749 
L 56.281069 -42.715903 
L 55.429896 -42.728652 
L 54.578724 -42.740681 
L 53.727551 -42.750756 
L 52.876378 -42.757772 
L 52.025206 -42.760777 
L 51.174033 -42.759012 
L 50.32286 -42.751923 
L 49.471688 -42.739176 
L 48.620515 -42.720658 
L 47.769342 -42.696469 
L 46.918169 -42.666904 
L 46.066997 -42.632434 
L 45.215824 -42.593674 
L 44.364651 -42.55135 
L 43.513479 -42.506267 
L 42.662306 -42.459268 
L 41.811133 -42.411206 
L 40.959961 -42.362909 
L 40.108788 -42.315151 
L 39.257615 -42.268635 
L 38.406442 -42.223968 
L 37.55527 -42.181655 
z
" style="stroke: #355f8d; stroke-width: 1.25"/>
    </defs>
    <g>
     <use xlink:href="#md0b1ab657e" x="0" y="173.814844" style="fill: #355f8d; fill-opacity: 0.7; stroke: #355f8d; stroke-width: 1.25"/>
    </g>
   </g>
   <g id="line2d_9">
    <path d="M 7.2 131.94 
L 216.45 131.94 
" style="fill: none; stroke: #355f8d; stroke-opacity: 0.9; stroke-linecap: round"/>
   </g>
   <g id="text_14">
    <!-- 8 -->
    <g style="fill: #355f8d" transform="translate(7.2 130.892625) scale(0.12 -0.12)">
     <defs>
      <path id="Arial-BoldMT-38" d="M 1025 2472 
Q 684 2616 529 2867 
Q 375 3119 375 3419 
Q 375 3931 733 4265 
Q 1091 4600 1750 4600 
Q 2403 4600 2764 4265 
Q 3125 3931 3125 3419 
Q 3125 3100 2959 2851 
Q 2794 2603 2494 2472 
Q 2875 2319 3073 2025 
Q 3272 1731 3272 1347 
Q 3272 713 2867 316 
Q 2463 -81 1791 -81 
Q 1166 -81 750 247 
Q 259 634 259 1309 
Q 259 1681 443 1992 
Q 628 2303 1025 2472 
z
M 1206 3356 
Q 1206 3094 1354 2947 
Q 1503 2800 1750 2800 
Q 2000 2800 2150 2948 
Q 2300 3097 2300 3359 
Q 2300 3606 2151 3754 
Q 2003 3903 1759 3903 
Q 1506 3903 1356 3753 
Q 1206 3603 1206 3356 
z
M 1125 1394 
Q 1125 1031 1311 828 
Q 1497 625 1775 625 
Q 2047 625 2225 820 
Q 2403 1016 2403 1384 
Q 2403 1706 2222 1901 
Q 2041 2097 1763 2097 
Q 1441 2097 1283 1875 
Q 1125 1653 1125 1394 
z
" transform="scale(0.015625)"/>
     </defs>
     <use xlink:href="#Arial-BoldMT-38"/>
    </g>
   </g>
  </g>
 </g>
</svg>
