<?xml version="1.0" encoding="utf-8" standalone="no"?>
<!DOCTYPE svg PUBLIC "-//W3C//DTD SVG 1.1//EN"
  "http://www.w3.org/Graphics/SVG/1.1/DTD/svg11.dtd">
<svg xmlns:xlink="http://www.w3.org/1999/xlink" width="223.65pt" height="173.814844pt" viewBox="0 0 223.65 173.814844" xmlns="http://www.w3.org/2000/svg" version="1.1">
 <metadata>
  <rdf:RDF xmlns:dc="http://purl.org/dc/elements/1.1/" xmlns:cc="http://creativecommons.org/ns#" xmlns:rdf="http://www.w3.org/1999/02/22-rdf-syntax-ns#">
   <cc:Work>
    <dc:type rdf:resource="http://purl.org/dc/dcmitype/StillImage"/>
    <dc:date>2023-07-20T12:22:05.684659</dc:date>
    <dc:format>image/svg+xml</dc:format>
    <dc:creator>
     <cc:Agent>
      <dc:title>Matplotlib v3.7.1, https://matplotlib.org/</dc:title>
     </cc:Agent>
    </dc:creator>
   </cc:Work>
  </rdf:RDF>
 </metadata>
 <defs>
  <style type="text/css">*{stroke-linejoin: round; stroke-linecap: butt}</style>
 </defs>
 <g id="figure_1">
  <g id="patch_1">
   <path d="M 0 173.814844 
L 223.65 173.814844 
L 223.65 0 
L 0 0 
L 0 173.814844 
z
" style="fill: none"/>
  </g>
  <g id="axes_1">
   <g id="patch_2">
    <path d="M 7.2 48.78 
L 216.45 48.78 
L 216.45 7.2 
L 7.2 7.2 
L 7.2 48.78 
z
" style="fill: none"/>
   </g>
   <g id="matplotlib.axis_1">
    <g id="xtick_1"/>
    <g id="xtick_2"/>
    <g id="xtick_3"/>
    <g id="xtick_4"/>
   </g>
   <g id="matplotlib.axis_2"/>
   <g id="line2d_1">
    <path d="M 7.2 48.78 
L 216.45 48.78 
" style="fill: none; stroke: #482475; stroke-opacity: 0.9; stroke-linecap: round"/>
   </g>
   <g id="text_1">
    <!-- 0 -->
    <g style="fill: #482475" transform="translate(7.2 47.732625) scale(0.12 -0.12)">
     <defs>
      <path id="Arial-BoldMT-30" d="M 1756 4600 
Q 2422 4600 2797 4125 
Q 3244 3563 3244 2259 
Q 3244 959 2794 391 
Q 2422 -78 1756 -78 
Q 1088 -78 678 436 
Q 269 950 269 2269 
Q 269 3563 719 4131 
Q 1091 4600 1756 4600 
z
M 1756 3872 
Q 1597 3872 1472 3770 
Q 1347 3669 1278 3406 
Q 1188 3066 1188 2259 
Q 1188 1453 1269 1151 
Q 1350 850 1473 750 
Q 1597 650 1756 650 
Q 1916 650 2041 751 
Q 2166 853 2234 1116 
Q 2325 1453 2325 2259 
Q 2325 3066 2244 3367 
Q 2163 3669 2039 3770 
Q 1916 3872 1756 3872 
z
" transform="scale(0.015625)"/>
     </defs>
     <use xlink:href="#Arial-BoldMT-30"/>
    </g>
   </g>
  </g>
  <g id="axes_2">
   <g id="patch_3">
    <path d="M 7.2 59.175 
L 216.45 59.175 
L 216.45 17.595 
L 7.2 17.595 
L 7.2 59.175 
z
" style="fill: none"/>
   </g>
   <g id="matplotlib.axis_3">
    <g id="xtick_5"/>
    <g id="xtick_6"/>
    <g id="xtick_7"/>
    <g id="xtick_8"/>
   </g>
   <g id="matplotlib.axis_4"/>
   <g id="PolyCollection_1">
    <defs>
     <path id="m3615016445" d="M 57.231166 -114.95666 
L 57.231166 -114.639844 
L 57.304808 -114.639844 
L 57.37845 -114.639844 
L 57.452092 -114.639844 
L 57.525734 -114.639844 
L 57.599375 -114.639844 
L 57.673017 -114.639844 
L 57.746659 -114.639844 
L 57.820301 -114.639844 
L 57.893943 -114.639844 
L 57.967584 -114.639844 
L 58.041226 -114.639844 
L 58.114868 -114.639844 
L 58.18851 -114.639844 
L 58.262152 -114.639844 
L 58.335793 -114.639844 
L 58.409435 -114.639844 
L 58.483077 -114.639844 
L 58.556719 -114.639844 
L 58.630361 -114.639844 
L 58.704003 -114.639844 
L 58.777644 -114.639844 
L 58.851286 -114.639844 
L 58.924928 -114.639844 
L 58.99857 -114.639844 
L 59.072212 -114.639844 
L 59.145853 -114.639844 
L 59.219495 -114.639844 
L 59.293137 -114.639844 
L 59.366779 -114.639844 
L 59.440421 -114.639844 
L 59.514062 -114.639844 
L 59.587704 -114.639844 
L 59.661346 -114.639844 
L 59.734988 -114.639844 
L 59.80863 -114.639844 
L 59.882271 -114.639844 
L 59.955913 -114.639844 
L 60.029555 -114.639844 
L 60.103197 -114.639844 
L 60.176839 -114.639844 
L 60.250481 -114.639844 
L 60.324122 -114.639844 
L 60.397764 -114.639844 
L 60.471406 -114.639844 
L 60.545048 -114.639844 
L 60.61869 -114.639844 
L 60.692331 -114.639844 
L 60.765973 -114.639844 
L 60.839615 -114.639844 
L 60.913257 -114.639844 
L 60.986899 -114.639844 
L 61.06054 -114.639844 
L 61.134182 -114.639844 
L 61.207824 -114.639844 
L 61.281466 -114.639844 
L 61.355108 -114.639844 
L 61.42875 -114.639844 
L 61.502391 -114.639844 
L 61.576033 -114.639844 
L 61.649675 -114.639844 
L 61.723317 -114.639844 
L 61.796959 -114.639844 
L 61.8706 -114.639844 
L 61.944242 -114.639844 
L 62.017884 -114.639844 
L 62.091526 -114.639844 
L 62.165168 -114.639844 
L 62.238809 -114.639844 
L 62.312451 -114.639844 
L 62.386093 -114.639844 
L 62.459735 -114.639844 
L 62.533377 -114.639844 
L 62.607018 -114.639844 
L 62.68066 -114.639844 
L 62.754302 -114.639844 
L 62.827944 -114.639844 
L 62.901586 -114.639844 
L 62.975228 -114.639844 
L 63.048869 -114.639844 
L 63.122511 -114.639844 
L 63.196153 -114.639844 
L 63.269795 -114.639844 
L 63.343437 -114.639844 
L 63.417078 -114.639844 
L 63.49072 -114.639844 
L 63.564362 -114.639844 
L 63.638004 -114.639844 
L 63.711646 -114.639844 
L 63.785287 -114.639844 
L 63.858929 -114.639844 
L 63.932571 -114.639844 
L 64.006213 -114.639844 
L 64.079855 -114.639844 
L 64.153497 -114.639844 
L 64.227138 -114.639844 
L 64.30078 -114.639844 
L 64.374422 -114.639844 
L 64.448064 -114.639844 
L 64.521706 -114.639844 
L 64.595347 -114.639844 
L 64.668989 -114.639844 
L 64.742631 -114.639844 
L 64.816273 -114.639844 
L 64.889915 -114.639844 
L 64.963556 -114.639844 
L 65.037198 -114.639844 
L 65.11084 -114.639844 
L 65.184482 -114.639844 
L 65.258124 -114.639844 
L 65.331765 -114.639844 
L 65.405407 -114.639844 
L 65.479049 -114.639844 
L 65.552691 -114.639844 
L 65.626333 -114.639844 
L 65.699975 -114.639844 
L 65.773616 -114.639844 
L 65.847258 -114.639844 
L 65.9209 -114.639844 
L 65.994542 -114.639844 
L 66.068184 -114.639844 
L 66.141825 -114.639844 
L 66.215467 -114.639844 
L 66.289109 -114.639844 
L 66.362751 -114.639844 
L 66.436393 -114.639844 
L 66.510034 -114.639844 
L 66.583676 -114.639844 
L 66.657318 -114.639844 
L 66.73096 -114.639844 
L 66.804602 -114.639844 
L 66.878244 -114.639844 
L 66.951885 -114.639844 
L 67.025527 -114.639844 
L 67.099169 -114.639844 
L 67.172811 -114.639844 
L 67.246453 -114.639844 
L 67.320094 -114.639844 
L 67.393736 -114.639844 
L 67.467378 -114.639844 
L 67.54102 -114.639844 
L 67.614662 -114.639844 
L 67.688303 -114.639844 
L 67.761945 -114.639844 
L 67.835587 -114.639844 
L 67.909229 -114.639844 
L 67.982871 -114.639844 
L 68.056512 -114.639844 
L 68.130154 -114.639844 
L 68.203796 -114.639844 
L 68.277438 -114.639844 
L 68.35108 -114.639844 
L 68.424722 -114.639844 
L 68.498363 -114.639844 
L 68.572005 -114.639844 
L 68.645647 -114.639844 
L 68.719289 -114.639844 
L 68.792931 -114.639844 
L 68.866572 -114.639844 
L 68.940214 -114.639844 
L 69.013856 -114.639844 
L 69.087498 -114.639844 
L 69.16114 -114.639844 
L 69.234781 -114.639844 
L 69.308423 -114.639844 
L 69.382065 -114.639844 
L 69.455707 -114.639844 
L 69.529349 -114.639844 
L 69.60299 -114.639844 
L 69.676632 -114.639844 
L 69.750274 -114.639844 
L 69.823916 -114.639844 
L 69.897558 -114.639844 
L 69.9712 -114.639844 
L 70.044841 -114.639844 
L 70.118483 -114.639844 
L 70.192125 -114.639844 
L 70.265767 -114.639844 
L 70.339409 -114.639844 
L 70.41305 -114.639844 
L 70.486692 -114.639844 
L 70.560334 -114.639844 
L 70.633976 -114.639844 
L 70.707618 -114.639844 
L 70.781259 -114.639844 
L 70.854901 -114.639844 
L 70.928543 -114.639844 
L 71.002185 -114.639844 
L 71.075827 -114.639844 
L 71.149469 -114.639844 
L 71.22311 -114.639844 
L 71.296752 -114.639844 
L 71.370394 -114.639844 
L 71.444036 -114.639844 
L 71.517678 -114.639844 
L 71.591319 -114.639844 
L 71.664961 -114.639844 
L 71.738603 -114.639844 
L 71.812245 -114.639844 
L 71.885887 -114.639844 
L 71.885887 -117.180138 
L 71.885887 -117.180138 
L 71.812245 -117.545818 
L 71.738603 -117.942637 
L 71.664961 -118.370339 
L 71.591319 -118.828429 
L 71.517678 -119.316233 
L 71.444036 -119.832966 
L 71.370394 -120.377794 
L 71.296752 -120.9499 
L 71.22311 -121.548532 
L 71.149469 -122.17304 
L 71.075827 -122.822875 
L 71.002185 -123.497574 
L 70.928543 -124.196701 
L 70.854901 -124.919766 
L 70.781259 -125.666111 
L 70.707618 -126.434778 
L 70.633976 -127.224361 
L 70.560334 -128.032854 
L 70.486692 -128.857513 
L 70.41305 -129.694731 
L 70.339409 -130.539949 
L 70.265767 -131.387604 
L 70.192125 -132.231134 
L 70.118483 -133.063029 
L 70.044841 -133.874938 
L 69.9712 -134.657836 
L 69.897558 -135.402233 
L 69.823916 -136.098422 
L 69.750274 -136.73676 
L 69.676632 -137.307961 
L 69.60299 -137.803388 
L 69.529349 -138.215341 
L 69.455707 -138.537305 
L 69.382065 -138.764174 
L 69.308423 -138.892413 
L 69.234781 -138.920172 
L 69.16114 -138.847342 
L 69.087498 -138.67554 
L 69.013856 -138.408044 
L 68.940214 -138.04967 
L 68.866572 -137.606598 
L 68.792931 -137.086166 
L 68.719289 -136.49663 
L 68.645647 -135.846911 
L 68.572005 -135.146331 
L 68.498363 -134.404362 
L 68.424722 -133.630383 
L 68.35108 -132.833467 
L 68.277438 -132.022188 
L 68.203796 -131.20448 
L 68.130154 -130.387517 
L 68.056512 -129.577644 
L 67.982871 -128.780343 
L 67.909229 -128.000227 
L 67.835587 -127.241078 
L 67.761945 -126.505892 
L 67.688303 -125.796964 
L 67.614662 -125.115962 
L 67.54102 -124.464025 
L 67.467378 -123.841853 
L 67.393736 -123.249786 
L 67.320094 -122.687889 
L 67.246453 -122.15601 
L 67.172811 -121.653831 
L 67.099169 -121.18091 
L 67.025527 -120.7367 
L 66.951885 -120.320567 
L 66.878244 -119.931798 
L 66.804602 -119.569598 
L 66.73096 -119.23309 
L 66.657318 -118.921315 
L 66.583676 -118.633226 
L 66.510034 -118.367697 
L 66.436393 -118.123526 
L 66.362751 -117.899444 
L 66.289109 -117.694132 
L 66.215467 -117.506235 
L 66.141825 -117.334382 
L 66.068184 -117.1772 
L 65.994542 -117.033337 
L 65.9209 -116.901474 
L 65.847258 -116.780339 
L 65.773616 -116.668717 
L 65.699975 -116.565462 
L 65.626333 -116.469498 
L 65.552691 -116.379826 
L 65.479049 -116.295528 
L 65.405407 -116.215766 
L 65.331765 -116.139787 
L 65.258124 -116.066927 
L 65.184482 -115.996611 
L 65.11084 -115.928358 
L 65.037198 -115.861784 
L 64.963556 -115.796604 
L 64.889915 -115.732636 
L 64.816273 -115.669797 
L 64.742631 -115.608102 
L 64.668989 -115.547659 
L 64.595347 -115.488659 
L 64.521706 -115.431364 
L 64.448064 -115.37609 
L 64.374422 -115.323193 
L 64.30078 -115.273045 
L 64.227138 -115.226015 
L 64.153497 -115.182448 
L 64.079855 -115.142644 
L 64.006213 -115.10684 
L 63.932571 -115.075195 
L 63.858929 -115.047779 
L 63.785287 -115.024564 
L 63.711646 -115.005423 
L 63.638004 -114.990132 
L 63.564362 -114.978378 
L 63.49072 -114.969772 
L 63.417078 -114.963861 
L 63.343437 -114.960153 
L 63.269795 -114.958132 
L 63.196153 -114.957282 
L 63.122511 -114.957114 
L 63.048869 -114.957177 
L 62.975228 -114.957085 
L 62.901586 -114.956527 
L 62.827944 -114.955276 
L 62.754302 -114.953202 
L 62.68066 -114.950264 
L 62.607018 -114.946512 
L 62.533377 -114.942073 
L 62.459735 -114.937142 
L 62.386093 -114.931963 
L 62.312451 -114.926809 
L 62.238809 -114.921963 
L 62.165168 -114.917697 
L 62.091526 -114.91425 
L 62.017884 -114.911816 
L 61.944242 -114.910526 
L 61.8706 -114.910437 
L 61.796959 -114.91153 
L 61.723317 -114.913707 
L 61.649675 -114.916797 
L 61.576033 -114.920563 
L 61.502391 -114.924717 
L 61.42875 -114.928934 
L 61.355108 -114.932871 
L 61.281466 -114.936188 
L 61.207824 -114.938566 
L 61.134182 -114.939727 
L 61.06054 -114.939449 
L 60.986899 -114.937584 
L 60.913257 -114.934063 
L 60.839615 -114.928906 
L 60.765973 -114.922225 
L 60.692331 -114.914221 
L 60.61869 -114.90518 
L 60.545048 -114.895463 
L 60.471406 -114.885496 
L 60.397764 -114.875754 
L 60.324122 -114.866749 
L 60.250481 -114.85901 
L 60.176839 -114.85307 
L 60.103197 -114.849444 
L 60.029555 -114.848617 
L 59.955913 -114.851024 
L 59.882271 -114.857038 
L 59.80863 -114.866954 
L 59.734988 -114.880976 
L 59.661346 -114.899207 
L 59.587704 -114.921638 
L 59.514062 -114.948142 
L 59.440421 -114.978469 
L 59.366779 -115.012247 
L 59.293137 -115.04898 
L 59.219495 -115.08806 
L 59.145853 -115.128774 
L 59.072212 -115.170321 
L 58.99857 -115.211832 
L 58.924928 -115.252392 
L 58.851286 -115.291067 
L 58.777644 -115.326935 
L 58.704003 -115.359115 
L 58.630361 -115.386795 
L 58.556719 -115.409261 
L 58.483077 -115.425927 
L 58.409435 -115.436346 
L 58.335793 -115.440237 
L 58.262152 -115.437486 
L 58.18851 -115.42815 
L 58.114868 -115.412456 
L 58.041226 -115.390787 
L 57.967584 -115.363666 
L 57.893943 -115.331731 
L 57.820301 -115.295717 
L 57.746659 -115.256418 
L 57.673017 -115.214665 
L 57.599375 -115.171293 
L 57.525734 -115.127117 
L 57.452092 -115.082906 
L 57.37845 -115.039361 
L 57.304808 -114.997103 
L 57.231166 -114.95666 
z
" style="stroke: #355f8d; stroke-width: 1.25"/>
    </defs>
    <g>
     <use xlink:href="#m3615016445" x="0" y="173.814844" style="fill: #355f8d; fill-opacity: 0.7; stroke: #355f8d; stroke-width: 1.25"/>
    </g>
   </g>
   <g id="line2d_2">
    <path d="M 7.2 59.175 
L 216.45 59.175 
" style="fill: none; stroke: #355f8d; stroke-opacity: 0.9; stroke-linecap: round"/>
   </g>
   <g id="text_2">
    <!-- 1 -->
    <g style="fill: #355f8d" transform="translate(7.2 58.127625) scale(0.12 -0.12)">
     <defs>
      <path id="Arial-BoldMT-31" d="M 2519 0 
L 1641 0 
L 1641 3309 
Q 1159 2859 506 2644 
L 506 3441 
Q 850 3553 1253 3867 
Q 1656 4181 1806 4600 
L 2519 4600 
L 2519 0 
z
" transform="scale(0.015625)"/>
     </defs>
     <use xlink:href="#Arial-BoldMT-31"/>
    </g>
   </g>
  </g>
  <g id="axes_3">
   <g id="patch_4">
    <path d="M 7.2 69.57 
L 216.45 69.57 
L 216.45 27.99 
L 7.2 27.99 
L 7.2 69.57 
z
" style="fill: none"/>
   </g>
   <g id="matplotlib.axis_5">
    <g id="xtick_9"/>
    <g id="xtick_10"/>
    <g id="xtick_11"/>
    <g id="xtick_12"/>
   </g>
   <g id="matplotlib.axis_6"/>
   <g id="PolyCollection_2">
    <defs>
     <path id="m3f57968039" d="M 94.454747 -104.368371 
L 94.454747 -104.244844 
L 94.590254 -104.244844 
L 94.72576 -104.244844 
L 94.861267 -104.244844 
L 94.996774 -104.244844 
L 95.13228 -104.244844 
L 95.267787 -104.244844 
L 95.403294 -104.244844 
L 95.5388 -104.244844 
L 95.674307 -104.244844 
L 95.809814 -104.244844 
L 95.94532 -104.244844 
L 96.080827 -104.244844 
L 96.216334 -104.244844 
L 96.35184 -104.244844 
L 96.487347 -104.244844 
L 96.622854 -104.244844 
L 96.75836 -104.244844 
L 96.893867 -104.244844 
L 97.029374 -104.244844 
L 97.16488 -104.244844 
L 97.300387 -104.244844 
L 97.435894 -104.244844 
L 97.5714 -104.244844 
L 97.706907 -104.244844 
L 97.842414 -104.244844 
L 97.97792 -104.244844 
L 98.113427 -104.244844 
L 98.248933 -104.244844 
L 98.38444 -104.244844 
L 98.519947 -104.244844 
L 98.655453 -104.244844 
L 98.79096 -104.244844 
L 98.926467 -104.244844 
L 99.061973 -104.244844 
L 99.19748 -104.244844 
L 99.332987 -104.244844 
L 99.468493 -104.244844 
L 99.604 -104.244844 
L 99.739507 -104.244844 
L 99.875013 -104.244844 
L 100.01052 -104.244844 
L 100.146027 -104.244844 
L 100.281533 -104.244844 
L 100.41704 -104.244844 
L 100.552547 -104.244844 
L 100.688053 -104.244844 
L 100.82356 -104.244844 
L 100.959067 -104.244844 
L 101.094573 -104.244844 
L 101.23008 -104.244844 
L 101.365587 -104.244844 
L 101.501093 -104.244844 
L 101.6366 -104.244844 
L 101.772107 -104.244844 
L 101.907613 -104.244844 
L 102.04312 -104.244844 
L 102.178627 -104.244844 
L 102.314133 -104.244844 
L 102.44964 -104.244844 
L 102.585147 -104.244844 
L 102.720653 -104.244844 
L 102.85616 -104.244844 
L 102.991667 -104.244844 
L 103.127173 -104.244844 
L 103.26268 -104.244844 
L 103.398187 -104.244844 
L 103.533693 -104.244844 
L 103.6692 -104.244844 
L 103.804707 -104.244844 
L 103.940213 -104.244844 
L 104.07572 -104.244844 
L 104.211227 -104.244844 
L 104.346733 -104.244844 
L 104.48224 -104.244844 
L 104.617746 -104.244844 
L 104.753253 -104.244844 
L 104.88876 -104.244844 
L 105.024266 -104.244844 
L 105.159773 -104.244844 
L 105.29528 -104.244844 
L 105.430786 -104.244844 
L 105.566293 -104.244844 
L 105.7018 -104.244844 
L 105.837306 -104.244844 
L 105.972813 -104.244844 
L 106.10832 -104.244844 
L 106.243826 -104.244844 
L 106.379333 -104.244844 
L 106.51484 -104.244844 
L 106.650346 -104.244844 
L 106.785853 -104.244844 
L 106.92136 -104.244844 
L 107.056866 -104.244844 
L 107.192373 -104.244844 
L 107.32788 -104.244844 
L 107.463386 -104.244844 
L 107.598893 -104.244844 
L 107.7344 -104.244844 
L 107.869906 -104.244844 
L 108.005413 -104.244844 
L 108.14092 -104.244844 
L 108.276426 -104.244844 
L 108.411933 -104.244844 
L 108.54744 -104.244844 
L 108.682946 -104.244844 
L 108.818453 -104.244844 
L 108.95396 -104.244844 
L 109.089466 -104.244844 
L 109.224973 -104.244844 
L 109.36048 -104.244844 
L 109.495986 -104.244844 
L 109.631493 -104.244844 
L 109.767 -104.244844 
L 109.902506 -104.244844 
L 110.038013 -104.244844 
L 110.17352 -104.244844 
L 110.309026 -104.244844 
L 110.444533 -104.244844 
L 110.58004 -104.244844 
L 110.715546 -104.244844 
L 110.851053 -104.244844 
L 110.986559 -104.244844 
L 111.122066 -104.244844 
L 111.257573 -104.244844 
L 111.393079 -104.244844 
L 111.528586 -104.244844 
L 111.664093 -104.244844 
L 111.799599 -104.244844 
L 111.935106 -104.244844 
L 112.070613 -104.244844 
L 112.206119 -104.244844 
L 112.341626 -104.244844 
L 112.477133 -104.244844 
L 112.612639 -104.244844 
L 112.748146 -104.244844 
L 112.883653 -104.244844 
L 113.019159 -104.244844 
L 113.154666 -104.244844 
L 113.290173 -104.244844 
L 113.425679 -104.244844 
L 113.561186 -104.244844 
L 113.696693 -104.244844 
L 113.832199 -104.244844 
L 113.967706 -104.244844 
L 114.103213 -104.244844 
L 114.238719 -104.244844 
L 114.374226 -104.244844 
L 114.509733 -104.244844 
L 114.645239 -104.244844 
L 114.780746 -104.244844 
L 114.916253 -104.244844 
L 115.051759 -104.244844 
L 115.187266 -104.244844 
L 115.322773 -104.244844 
L 115.458279 -104.244844 
L 115.593786 -104.244844 
L 115.729293 -104.244844 
L 115.864799 -104.244844 
L 116.000306 -104.244844 
L 116.135813 -104.244844 
L 116.271319 -104.244844 
L 116.406826 -104.244844 
L 116.542333 -104.244844 
L 116.677839 -104.244844 
L 116.813346 -104.244844 
L 116.948853 -104.244844 
L 117.084359 -104.244844 
L 117.219866 -104.244844 
L 117.355373 -104.244844 
L 117.490879 -104.244844 
L 117.626386 -104.244844 
L 117.761892 -104.244844 
L 117.897399 -104.244844 
L 118.032906 -104.244844 
L 118.168412 -104.244844 
L 118.303919 -104.244844 
L 118.439426 -104.244844 
L 118.574932 -104.244844 
L 118.710439 -104.244844 
L 118.845946 -104.244844 
L 118.981452 -104.244844 
L 119.116959 -104.244844 
L 119.252466 -104.244844 
L 119.387972 -104.244844 
L 119.523479 -104.244844 
L 119.658986 -104.244844 
L 119.794492 -104.244844 
L 119.929999 -104.244844 
L 120.065506 -104.244844 
L 120.201012 -104.244844 
L 120.336519 -104.244844 
L 120.472026 -104.244844 
L 120.607532 -104.244844 
L 120.743039 -104.244844 
L 120.878546 -104.244844 
L 121.014052 -104.244844 
L 121.149559 -104.244844 
L 121.285066 -104.244844 
L 121.420572 -104.244844 
L 121.420572 -105.995333 
L 121.420572 -105.995333 
L 121.285066 -106.308072 
L 121.149559 -106.659188 
L 121.014052 -107.049908 
L 120.878546 -107.48083 
L 120.743039 -107.951825 
L 120.607532 -108.461948 
L 120.472026 -109.009373 
L 120.336519 -109.591347 
L 120.201012 -110.204167 
L 120.065506 -110.843194 
L 119.929999 -111.502892 
L 119.794492 -112.176904 
L 119.658986 -112.858154 
L 119.523479 -113.538982 
L 119.387972 -114.211303 
L 119.252466 -114.866785 
L 119.116959 -115.497045 
L 118.981452 -116.09385 
L 118.845946 -116.649317 
L 118.710439 -117.156115 
L 118.574932 -117.607641 
L 118.439426 -117.998187 
L 118.303919 -118.323071 
L 118.168412 -118.578749 
L 118.032906 -118.762875 
L 117.897399 -118.874345 
L 117.761892 -118.913285 
L 117.626386 -118.881018 
L 117.490879 -118.779983 
L 117.355373 -118.613637 
L 117.219866 -118.386323 
L 117.084359 -118.103123 
L 116.948853 -117.769695 
L 116.813346 -117.392109 
L 116.677839 -116.976674 
L 116.542333 -116.529783 
L 116.406826 -116.057761 
L 116.271319 -115.566731 
L 116.135813 -115.062504 
L 116.000306 -114.550486 
L 115.864799 -114.035611 
L 115.729293 -113.522296 
L 115.593786 -113.014415 
L 115.458279 -112.515299 
L 115.322773 -112.027748 
L 115.187266 -111.554058 
L 115.051759 -111.096059 
L 114.916253 -110.655158 
L 114.780746 -110.232395 
L 114.645239 -109.828486 
L 114.509733 -109.443877 
L 114.374226 -109.07879 
L 114.238719 -108.733262 
L 114.103213 -108.407187 
L 113.967706 -108.10034 
L 113.832199 -107.812408 
L 113.696693 -107.543004 
L 113.561186 -107.291681 
L 113.425679 -107.057947 
L 113.290173 -106.841262 
L 113.154666 -106.641049 
L 113.019159 -106.45669 
L 112.883653 -106.287533 
L 112.748146 -106.132886 
L 112.612639 -105.992028 
L 112.477133 -105.864203 
L 112.341626 -105.748632 
L 112.206119 -105.644518 
L 112.070613 -105.55105 
L 111.935106 -105.467419 
L 111.799599 -105.392823 
L 111.664093 -105.326483 
L 111.528586 -105.267647 
L 111.393079 -105.215606 
L 111.257573 -105.169699 
L 111.122066 -105.129318 
L 110.986559 -105.093916 
L 110.851053 -105.063005 
L 110.715546 -105.036156 
L 110.58004 -105.012993 
L 110.444533 -104.993189 
L 110.309026 -104.976453 
L 110.17352 -104.962523 
L 110.038013 -104.951154 
L 109.902506 -104.942108 
L 109.767 -104.935139 
L 109.631493 -104.929992 
L 109.495986 -104.926391 
L 109.36048 -104.924036 
L 109.224973 -104.922604 
L 109.089466 -104.921754 
L 108.95396 -104.921127 
L 108.818453 -104.92036 
L 108.682946 -104.919093 
L 108.54744 -104.916983 
L 108.411933 -104.913717 
L 108.276426 -104.909023 
L 108.14092 -104.902677 
L 108.005413 -104.894521 
L 107.869906 -104.88446 
L 107.7344 -104.872467 
L 107.598893 -104.858586 
L 107.463386 -104.842925 
L 107.32788 -104.825648 
L 107.192373 -104.806968 
L 107.056866 -104.787134 
L 106.92136 -104.766419 
L 106.785853 -104.745107 
L 106.650346 -104.723481 
L 106.51484 -104.701811 
L 106.379333 -104.680346 
L 106.243826 -104.659308 
L 106.10832 -104.638882 
L 105.972813 -104.619223 
L 105.837306 -104.600446 
L 105.7018 -104.582639 
L 105.566293 -104.565859 
L 105.430786 -104.550139 
L 105.29528 -104.535498 
L 105.159773 -104.521937 
L 105.024266 -104.509453 
L 104.88876 -104.498034 
L 104.753253 -104.487668 
L 104.617746 -104.478338 
L 104.48224 -104.470024 
L 104.346733 -104.462701 
L 104.211227 -104.456335 
L 104.07572 -104.450881 
L 103.940213 -104.44628 
L 103.804707 -104.442454 
L 103.6692 -104.439311 
L 103.533693 -104.436737 
L 103.398187 -104.434604 
L 103.26268 -104.432769 
L 103.127173 -104.43108 
L 102.991667 -104.42938 
L 102.85616 -104.427519 
L 102.720653 -104.425352 
L 102.585147 -104.422756 
L 102.44964 -104.419629 
L 102.314133 -104.4159 
L 102.178627 -104.411533 
L 102.04312 -104.406529 
L 101.907613 -104.400928 
L 101.772107 -104.39481 
L 101.6366 -104.388291 
L 101.501093 -104.381522 
L 101.365587 -104.37468 
L 101.23008 -104.367969 
L 101.094573 -104.361605 
L 100.959067 -104.355818 
L 100.82356 -104.350838 
L 100.688053 -104.346891 
L 100.552547 -104.344191 
L 100.41704 -104.342935 
L 100.281533 -104.343295 
L 100.146027 -104.345414 
L 100.01052 -104.349402 
L 99.875013 -104.355328 
L 99.739507 -104.363219 
L 99.604 -104.373057 
L 99.468493 -104.38478 
L 99.332987 -104.398273 
L 99.19748 -104.413378 
L 99.061973 -104.429889 
L 98.926467 -104.447558 
L 98.79096 -104.466101 
L 98.655453 -104.485199 
L 98.519947 -104.504512 
L 98.38444 -104.52368 
L 98.248933 -104.54234 
L 98.113427 -104.560131 
L 97.97792 -104.576705 
L 97.842414 -104.591738 
L 97.706907 -104.604938 
L 97.5714 -104.616052 
L 97.435894 -104.624873 
L 97.300387 -104.631247 
L 97.16488 -104.635071 
L 97.029374 -104.636299 
L 96.893867 -104.634937 
L 96.75836 -104.631042 
L 96.622854 -104.62472 
L 96.487347 -104.616115 
L 96.35184 -104.605412 
L 96.216334 -104.59282 
L 96.080827 -104.578575 
L 95.94532 -104.562925 
L 95.809814 -104.54613 
L 95.674307 -104.528453 
L 95.5388 -104.510153 
L 95.403294 -104.491483 
L 95.267787 -104.472685 
L 95.13228 -104.453983 
L 94.996774 -104.435584 
L 94.861267 -104.417673 
L 94.72576 -104.400413 
L 94.590254 -104.383941 
L 94.454747 -104.368371 
z
" style="stroke: #21918c; stroke-width: 1.25"/>
    </defs>
    <g>
     <use xlink:href="#m3f57968039" x="0" y="173.814844" style="fill: #21918c; fill-opacity: 0.7; stroke: #21918c; stroke-width: 1.25"/>
    </g>
   </g>
   <g id="line2d_3">
    <path d="M 7.2 69.57 
L 216.45 69.57 
" style="fill: none; stroke: #21918c; stroke-opacity: 0.9; stroke-linecap: round"/>
   </g>
   <g id="text_3">
    <!-- 2 -->
    <g style="fill: #21918c" transform="translate(7.2 68.522625) scale(0.12 -0.12)">
     <defs>
      <path id="Arial-BoldMT-32" d="M 3238 816 
L 3238 0 
L 159 0 
Q 209 463 459 877 
Q 709 1291 1447 1975 
Q 2041 2528 2175 2725 
Q 2356 2997 2356 3263 
Q 2356 3556 2198 3714 
Q 2041 3872 1763 3872 
Q 1488 3872 1325 3706 
Q 1163 3541 1138 3156 
L 263 3244 
Q 341 3969 753 4284 
Q 1166 4600 1784 4600 
Q 2463 4600 2850 4234 
Q 3238 3869 3238 3325 
Q 3238 3016 3127 2736 
Q 3016 2456 2775 2150 
Q 2616 1947 2200 1565 
Q 1784 1184 1673 1059 
Q 1563 934 1494 816 
L 3238 816 
z
" transform="scale(0.015625)"/>
     </defs>
     <use xlink:href="#Arial-BoldMT-32"/>
    </g>
   </g>
  </g>
  <g id="axes_4">
   <g id="patch_5">
    <path d="M 7.2 79.965 
L 216.45 79.965 
L 216.45 38.385 
L 7.2 38.385 
L 7.2 79.965 
z
" style="fill: none"/>
   </g>
   <g id="matplotlib.axis_7">
    <g id="xtick_13"/>
    <g id="xtick_14"/>
    <g id="xtick_15"/>
    <g id="xtick_16"/>
   </g>
   <g id="matplotlib.axis_8"/>
   <g id="PolyCollection_3">
    <defs>
     <path id="m3d7077a7dc" d="M 123.953783 -93.919079 
L 123.953783 -93.849844 
L 124.178427 -93.849844 
L 124.403071 -93.849844 
L 124.627715 -93.849844 
L 124.852359 -93.849844 
L 125.077003 -93.849844 
L 125.301647 -93.849844 
L 125.526291 -93.849844 
L 125.750935 -93.849844 
L 125.975579 -93.849844 
L 126.200223 -93.849844 
L 126.424867 -93.849844 
L 126.649511 -93.849844 
L 126.874154 -93.849844 
L 127.098798 -93.849844 
L 127.323442 -93.849844 
L 127.548086 -93.849844 
L 127.77273 -93.849844 
L 127.997374 -93.849844 
L 128.222018 -93.849844 
L 128.446662 -93.849844 
L 128.671306 -93.849844 
L 128.89595 -93.849844 
L 129.120594 -93.849844 
L 129.345238 -93.849844 
L 129.569882 -93.849844 
L 129.794526 -93.849844 
L 130.01917 -93.849844 
L 130.243814 -93.849844 
L 130.468458 -93.849844 
L 130.693102 -93.849844 
L 130.917746 -93.849844 
L 131.14239 -93.849844 
L 131.367034 -93.849844 
L 131.591677 -93.849844 
L 131.816321 -93.849844 
L 132.040965 -93.849844 
L 132.265609 -93.849844 
L 132.490253 -93.849844 
L 132.714897 -93.849844 
L 132.939541 -93.849844 
L 133.164185 -93.849844 
L 133.388829 -93.849844 
L 133.613473 -93.849844 
L 133.838117 -93.849844 
L 134.062761 -93.849844 
L 134.287405 -93.849844 
L 134.512049 -93.849844 
L 134.736693 -93.849844 
L 134.961337 -93.849844 
L 135.185981 -93.849844 
L 135.410625 -93.849844 
L 135.635269 -93.849844 
L 135.859913 -93.849844 
L 136.084557 -93.849844 
L 136.309201 -93.849844 
L 136.533844 -93.849844 
L 136.758488 -93.849844 
L 136.983132 -93.849844 
L 137.207776 -93.849844 
L 137.43242 -93.849844 
L 137.657064 -93.849844 
L 137.881708 -93.849844 
L 138.106352 -93.849844 
L 138.330996 -93.849844 
L 138.55564 -93.849844 
L 138.780284 -93.849844 
L 139.004928 -93.849844 
L 139.229572 -93.849844 
L 139.454216 -93.849844 
L 139.67886 -93.849844 
L 139.903504 -93.849844 
L 140.128148 -93.849844 
L 140.352792 -93.849844 
L 140.577436 -93.849844 
L 140.80208 -93.849844 
L 141.026724 -93.849844 
L 141.251368 -93.849844 
L 141.476011 -93.849844 
L 141.700655 -93.849844 
L 141.925299 -93.849844 
L 142.149943 -93.849844 
L 142.374587 -93.849844 
L 142.599231 -93.849844 
L 142.823875 -93.849844 
L 143.048519 -93.849844 
L 143.273163 -93.849844 
L 143.497807 -93.849844 
L 143.722451 -93.849844 
L 143.947095 -93.849844 
L 144.171739 -93.849844 
L 144.396383 -93.849844 
L 144.621027 -93.849844 
L 144.845671 -93.849844 
L 145.070315 -93.849844 
L 145.294959 -93.849844 
L 145.519603 -93.849844 
L 145.744247 -93.849844 
L 145.968891 -93.849844 
L 146.193534 -93.849844 
L 146.418178 -93.849844 
L 146.642822 -93.849844 
L 146.867466 -93.849844 
L 147.09211 -93.849844 
L 147.316754 -93.849844 
L 147.541398 -93.849844 
L 147.766042 -93.849844 
L 147.990686 -93.849844 
L 148.21533 -93.849844 
L 148.439974 -93.849844 
L 148.664618 -93.849844 
L 148.889262 -93.849844 
L 149.113906 -93.849844 
L 149.33855 -93.849844 
L 149.563194 -93.849844 
L 149.787838 -93.849844 
L 150.012482 -93.849844 
L 150.237126 -93.849844 
L 150.46177 -93.849844 
L 150.686414 -93.849844 
L 150.911058 -93.849844 
L 151.135701 -93.849844 
L 151.360345 -93.849844 
L 151.584989 -93.849844 
L 151.809633 -93.849844 
L 152.034277 -93.849844 
L 152.258921 -93.849844 
L 152.483565 -93.849844 
L 152.708209 -93.849844 
L 152.932853 -93.849844 
L 153.157497 -93.849844 
L 153.382141 -93.849844 
L 153.606785 -93.849844 
L 153.831429 -93.849844 
L 154.056073 -93.849844 
L 154.280717 -93.849844 
L 154.505361 -93.849844 
L 154.730005 -93.849844 
L 154.954649 -93.849844 
L 155.179293 -93.849844 
L 155.403937 -93.849844 
L 155.628581 -93.849844 
L 155.853225 -93.849844 
L 156.077868 -93.849844 
L 156.302512 -93.849844 
L 156.527156 -93.849844 
L 156.7518 -93.849844 
L 156.976444 -93.849844 
L 157.201088 -93.849844 
L 157.425732 -93.849844 
L 157.650376 -93.849844 
L 157.87502 -93.849844 
L 158.099664 -93.849844 
L 158.324308 -93.849844 
L 158.548952 -93.849844 
L 158.773596 -93.849844 
L 158.99824 -93.849844 
L 159.222884 -93.849844 
L 159.447528 -93.849844 
L 159.672172 -93.849844 
L 159.896816 -93.849844 
L 160.12146 -93.849844 
L 160.346104 -93.849844 
L 160.570748 -93.849844 
L 160.795391 -93.849844 
L 161.020035 -93.849844 
L 161.244679 -93.849844 
L 161.469323 -93.849844 
L 161.693967 -93.849844 
L 161.918611 -93.849844 
L 162.143255 -93.849844 
L 162.367899 -93.849844 
L 162.592543 -93.849844 
L 162.817187 -93.849844 
L 163.041831 -93.849844 
L 163.266475 -93.849844 
L 163.491119 -93.849844 
L 163.715763 -93.849844 
L 163.940407 -93.849844 
L 164.165051 -93.849844 
L 164.389695 -93.849844 
L 164.614339 -93.849844 
L 164.838983 -93.849844 
L 165.063627 -93.849844 
L 165.288271 -93.849844 
L 165.512915 -93.849844 
L 165.737558 -93.849844 
L 165.962202 -93.849844 
L 166.186846 -93.849844 
L 166.41149 -93.849844 
L 166.636134 -93.849844 
L 166.860778 -93.849844 
L 167.085422 -93.849844 
L 167.310066 -93.849844 
L 167.53471 -93.849844 
L 167.759354 -93.849844 
L 167.983998 -93.849844 
L 168.208642 -93.849844 
L 168.433286 -93.849844 
L 168.65793 -93.849844 
L 168.65793 -94.616816 
L 168.65793 -94.616816 
L 168.433286 -94.7692 
L 168.208642 -94.943274 
L 167.983998 -95.140266 
L 167.759354 -95.361095 
L 167.53471 -95.606309 
L 167.310066 -95.876012 
L 167.085422 -96.169813 
L 166.860778 -96.486779 
L 166.636134 -96.825406 
L 166.41149 -97.183606 
L 166.186846 -97.558721 
L 165.962202 -97.947545 
L 165.737558 -98.346381 
L 165.512915 -98.751105 
L 165.288271 -99.157254 
L 165.063627 -99.560123 
L 164.838983 -99.954881 
L 164.614339 -100.336677 
L 164.389695 -100.700763 
L 164.165051 -101.0426 
L 163.940407 -101.357968 
L 163.715763 -101.643055 
L 163.491119 -101.894536 
L 163.266475 -102.109639 
L 163.041831 -102.286189 
L 162.817187 -102.422639 
L 162.592543 -102.518081 
L 162.367899 -102.572242 
L 162.143255 -102.585471 
L 161.918611 -102.558706 
L 161.693967 -102.493438 
L 161.469323 -102.391658 
L 161.244679 -102.255808 
L 161.020035 -102.088715 
L 160.795391 -101.893527 
L 160.570748 -101.673646 
L 160.346104 -101.432656 
L 160.12146 -101.17425 
L 159.896816 -100.902157 
L 159.672172 -100.62007 
L 159.447528 -100.331577 
L 159.222884 -100.040091 
L 158.99824 -99.748789 
L 158.773596 -99.460558 
L 158.548952 -99.177942 
L 158.324308 -98.903113 
L 158.099664 -98.637837 
L 157.87502 -98.383463 
L 157.650376 -98.140922 
L 157.425732 -97.910739 
L 157.201088 -97.693058 
L 156.976444 -97.487678 
L 156.7518 -97.2941 
L 156.527156 -97.111583 
L 156.302512 -96.939203 
L 156.077868 -96.775915 
L 155.853225 -96.620619 
L 155.628581 -96.472216 
L 155.403937 -96.329665 
L 155.179293 -96.192028 
L 154.954649 -96.058504 
L 154.730005 -95.928458 
L 154.505361 -95.801431 
L 154.280717 -95.677147 
L 154.056073 -95.555502 
L 153.831429 -95.436549 
L 153.606785 -95.320479 
L 153.382141 -95.207588 
L 153.157497 -95.09825 
L 152.932853 -94.992887 
L 152.708209 -94.891933 
L 152.483565 -94.795817 
L 152.258921 -94.70493 
L 152.034277 -94.619608 
L 151.809633 -94.540123 
L 151.584989 -94.466666 
L 151.360345 -94.399343 
L 151.135701 -94.338176 
L 150.911058 -94.283102 
L 150.686414 -94.233977 
L 150.46177 -94.190585 
L 150.237126 -94.152641 
L 150.012482 -94.119805 
L 149.787838 -94.09169 
L 149.563194 -94.067871 
L 149.33855 -94.047899 
L 149.113906 -94.031313 
L 148.889262 -94.017648 
L 148.664618 -94.006447 
L 148.439974 -93.997275 
L 148.21533 -93.989726 
L 147.990686 -93.983432 
L 147.766042 -93.978071 
L 147.541398 -93.973371 
L 147.316754 -93.969115 
L 147.09211 -93.965143 
L 146.867466 -93.961347 
L 146.642822 -93.957672 
L 146.418178 -93.954106 
L 146.193534 -93.950677 
L 145.968891 -93.947442 
L 145.744247 -93.944476 
L 145.519603 -93.941867 
L 145.294959 -93.9397 
L 145.070315 -93.938051 
L 144.845671 -93.936983 
L 144.621027 -93.936531 
L 144.396383 -93.936707 
L 144.171739 -93.937492 
L 143.947095 -93.938836 
L 143.722451 -93.940667 
L 143.497807 -93.942887 
L 143.273163 -93.945382 
L 143.048519 -93.94803 
L 142.823875 -93.950704 
L 142.599231 -93.953286 
L 142.374587 -93.955668 
L 142.149943 -93.957764 
L 141.925299 -93.959511 
L 141.700655 -93.960871 
L 141.476011 -93.961837 
L 141.251368 -93.962428 
L 141.026724 -93.962686 
L 140.80208 -93.962675 
L 140.577436 -93.962467 
L 140.352792 -93.962144 
L 140.128148 -93.961783 
L 139.903504 -93.961455 
L 139.67886 -93.961213 
L 139.454216 -93.96109 
L 139.229572 -93.961096 
L 139.004928 -93.961214 
L 138.780284 -93.961404 
L 138.55564 -93.961602 
L 138.330996 -93.96173 
L 138.106352 -93.961695 
L 137.881708 -93.961403 
L 137.657064 -93.960763 
L 137.43242 -93.959692 
L 137.207776 -93.958128 
L 136.983132 -93.95603 
L 136.758488 -93.953387 
L 136.533844 -93.950216 
L 136.309201 -93.946568 
L 136.084557 -93.942522 
L 135.859913 -93.938188 
L 135.635269 -93.933696 
L 135.410625 -93.9292 
L 135.185981 -93.924866 
L 134.961337 -93.920865 
L 134.736693 -93.917372 
L 134.512049 -93.914556 
L 134.287405 -93.912576 
L 134.062761 -93.911572 
L 133.838117 -93.911664 
L 133.613473 -93.912948 
L 133.388829 -93.915488 
L 133.164185 -93.919319 
L 132.939541 -93.924439 
L 132.714897 -93.930813 
L 132.490253 -93.938371 
L 132.265609 -93.947006 
L 132.040965 -93.956583 
L 131.816321 -93.966932 
L 131.591677 -93.977862 
L 131.367034 -93.989161 
L 131.14239 -94.000601 
L 130.917746 -94.011949 
L 130.693102 -94.022973 
L 130.468458 -94.033448 
L 130.243814 -94.043165 
L 130.01917 -94.051937 
L 129.794526 -94.059603 
L 129.569882 -94.066036 
L 129.345238 -94.07114 
L 129.120594 -94.074857 
L 128.89595 -94.077162 
L 128.671306 -94.07806 
L 128.446662 -94.077586 
L 128.222018 -94.075799 
L 127.997374 -94.072775 
L 127.77273 -94.068606 
L 127.548086 -94.06339 
L 127.323442 -94.057232 
L 127.098798 -94.050238 
L 126.874154 -94.042512 
L 126.649511 -94.034157 
L 126.424867 -94.025271 
L 126.200223 -94.015952 
L 125.975579 -94.006295 
L 125.750935 -93.996391 
L 125.526291 -93.986333 
L 125.301647 -93.976213 
L 125.077003 -93.96612 
L 124.852359 -93.956145 
L 124.627715 -93.946373 
L 124.403071 -93.936888 
L 124.178427 -93.927767 
L 123.953783 -93.919079 
z
" style="stroke: #44bf70; stroke-width: 1.25"/>
    </defs>
    <g>
     <use xlink:href="#m3d7077a7dc" x="0" y="173.814844" style="fill: #44bf70; fill-opacity: 0.7; stroke: #44bf70; stroke-width: 1.25"/>
    </g>
   </g>
   <g id="line2d_4">
    <path d="M 7.2 79.965 
L 216.45 79.965 
" style="fill: none; stroke: #44bf70; stroke-opacity: 0.9; stroke-linecap: round"/>
   </g>
   <g id="text_4">
    <!-- 3 -->
    <g style="fill: #44bf70" transform="translate(7.2 78.917625) scale(0.12 -0.12)">
     <defs>
      <path id="Arial-BoldMT-33" d="M 241 1216 
L 1091 1319 
Q 1131 994 1309 822 
Q 1488 650 1741 650 
Q 2013 650 2198 856 
Q 2384 1063 2384 1413 
Q 2384 1744 2206 1937 
Q 2028 2131 1772 2131 
Q 1603 2131 1369 2066 
L 1466 2781 
Q 1822 2772 2009 2936 
Q 2197 3100 2197 3372 
Q 2197 3603 2059 3740 
Q 1922 3878 1694 3878 
Q 1469 3878 1309 3722 
Q 1150 3566 1116 3266 
L 306 3403 
Q 391 3819 561 4067 
Q 731 4316 1036 4458 
Q 1341 4600 1719 4600 
Q 2366 4600 2756 4188 
Q 3078 3850 3078 3425 
Q 3078 2822 2419 2463 
Q 2813 2378 3048 2084 
Q 3284 1791 3284 1375 
Q 3284 772 2843 347 
Q 2403 -78 1747 -78 
Q 1125 -78 715 280 
Q 306 638 241 1216 
z
" transform="scale(0.015625)"/>
     </defs>
     <use xlink:href="#Arial-BoldMT-33"/>
    </g>
   </g>
  </g>
  <g id="axes_5">
   <g id="patch_6">
    <path d="M 7.2 90.36 
L 216.45 90.36 
L 216.45 48.78 
L 7.2 48.78 
L 7.2 90.36 
z
" style="fill: none"/>
   </g>
   <g id="matplotlib.axis_9">
    <g id="xtick_17"/>
    <g id="xtick_18"/>
    <g id="xtick_19"/>
    <g id="xtick_20"/>
   </g>
   <g id="matplotlib.axis_10"/>
   <g id="PolyCollection_4">
    <defs>
     <path id="m0787d57380" d="M 148.761541 -83.507354 
L 148.761541 -83.454844 
L 149.053888 -83.454844 
L 149.346235 -83.454844 
L 149.638583 -83.454844 
L 149.93093 -83.454844 
L 150.223277 -83.454844 
L 150.515624 -83.454844 
L 150.807972 -83.454844 
L 151.100319 -83.454844 
L 151.392666 -83.454844 
L 151.685013 -83.454844 
L 151.97736 -83.454844 
L 152.269708 -83.454844 
L 152.562055 -83.454844 
L 152.854402 -83.454844 
L 153.146749 -83.454844 
L 153.439096 -83.454844 
L 153.731444 -83.454844 
L 154.023791 -83.454844 
L 154.316138 -83.454844 
L 154.608485 -83.454844 
L 154.900833 -83.454844 
L 155.19318 -83.454844 
L 155.485527 -83.454844 
L 155.777874 -83.454844 
L 156.070221 -83.454844 
L 156.362569 -83.454844 
L 156.654916 -83.454844 
L 156.947263 -83.454844 
L 157.23961 -83.454844 
L 157.531957 -83.454844 
L 157.824305 -83.454844 
L 158.116652 -83.454844 
L 158.408999 -83.454844 
L 158.701346 -83.454844 
L 158.993694 -83.454844 
L 159.286041 -83.454844 
L 159.578388 -83.454844 
L 159.870735 -83.454844 
L 160.163082 -83.454844 
L 160.45543 -83.454844 
L 160.747777 -83.454844 
L 161.040124 -83.454844 
L 161.332471 -83.454844 
L 161.624818 -83.454844 
L 161.917166 -83.454844 
L 162.209513 -83.454844 
L 162.50186 -83.454844 
L 162.794207 -83.454844 
L 163.086554 -83.454844 
L 163.378902 -83.454844 
L 163.671249 -83.454844 
L 163.963596 -83.454844 
L 164.255943 -83.454844 
L 164.548291 -83.454844 
L 164.840638 -83.454844 
L 165.132985 -83.454844 
L 165.425332 -83.454844 
L 165.717679 -83.454844 
L 166.010027 -83.454844 
L 166.302374 -83.454844 
L 166.594721 -83.454844 
L 166.887068 -83.454844 
L 167.179415 -83.454844 
L 167.471763 -83.454844 
L 167.76411 -83.454844 
L 168.056457 -83.454844 
L 168.348804 -83.454844 
L 168.641152 -83.454844 
L 168.933499 -83.454844 
L 169.225846 -83.454844 
L 169.518193 -83.454844 
L 169.81054 -83.454844 
L 170.102888 -83.454844 
L 170.395235 -83.454844 
L 170.687582 -83.454844 
L 170.979929 -83.454844 
L 171.272276 -83.454844 
L 171.564624 -83.454844 
L 171.856971 -83.454844 
L 172.149318 -83.454844 
L 172.441665 -83.454844 
L 172.734012 -83.454844 
L 173.02636 -83.454844 
L 173.318707 -83.454844 
L 173.611054 -83.454844 
L 173.903401 -83.454844 
L 174.195749 -83.454844 
L 174.488096 -83.454844 
L 174.780443 -83.454844 
L 175.07279 -83.454844 
L 175.365137 -83.454844 
L 175.657485 -83.454844 
L 175.949832 -83.454844 
L 176.242179 -83.454844 
L 176.534526 -83.454844 
L 176.826873 -83.454844 
L 177.119221 -83.454844 
L 177.411568 -83.454844 
L 177.703915 -83.454844 
L 177.996262 -83.454844 
L 178.28861 -83.454844 
L 178.580957 -83.454844 
L 178.873304 -83.454844 
L 179.165651 -83.454844 
L 179.457998 -83.454844 
L 179.750346 -83.454844 
L 180.042693 -83.454844 
L 180.33504 -83.454844 
L 180.627387 -83.454844 
L 180.919734 -83.454844 
L 181.212082 -83.454844 
L 181.504429 -83.454844 
L 181.796776 -83.454844 
L 182.089123 -83.454844 
L 182.381471 -83.454844 
L 182.673818 -83.454844 
L 182.966165 -83.454844 
L 183.258512 -83.454844 
L 183.550859 -83.454844 
L 183.843207 -83.454844 
L 184.135554 -83.454844 
L 184.427901 -83.454844 
L 184.720248 -83.454844 
L 185.012595 -83.454844 
L 185.304943 -83.454844 
L 185.59729 -83.454844 
L 185.889637 -83.454844 
L 186.181984 -83.454844 
L 186.474331 -83.454844 
L 186.766679 -83.454844 
L 187.059026 -83.454844 
L 187.351373 -83.454844 
L 187.64372 -83.454844 
L 187.936068 -83.454844 
L 188.228415 -83.454844 
L 188.520762 -83.454844 
L 188.813109 -83.454844 
L 189.105456 -83.454844 
L 189.397804 -83.454844 
L 189.690151 -83.454844 
L 189.982498 -83.454844 
L 190.274845 -83.454844 
L 190.567192 -83.454844 
L 190.85954 -83.454844 
L 191.151887 -83.454844 
L 191.444234 -83.454844 
L 191.736581 -83.454844 
L 192.028929 -83.454844 
L 192.321276 -83.454844 
L 192.613623 -83.454844 
L 192.90597 -83.454844 
L 193.198317 -83.454844 
L 193.490665 -83.454844 
L 193.783012 -83.454844 
L 194.075359 -83.454844 
L 194.367706 -83.454844 
L 194.660053 -83.454844 
L 194.952401 -83.454844 
L 195.244748 -83.454844 
L 195.537095 -83.454844 
L 195.829442 -83.454844 
L 196.121789 -83.454844 
L 196.414137 -83.454844 
L 196.706484 -83.454844 
L 196.998831 -83.454844 
L 197.291178 -83.454844 
L 197.583526 -83.454844 
L 197.875873 -83.454844 
L 198.16822 -83.454844 
L 198.460567 -83.454844 
L 198.752914 -83.454844 
L 199.045262 -83.454844 
L 199.337609 -83.454844 
L 199.629956 -83.454844 
L 199.922303 -83.454844 
L 200.21465 -83.454844 
L 200.506998 -83.454844 
L 200.799345 -83.454844 
L 201.091692 -83.454844 
L 201.384039 -83.454844 
L 201.676387 -83.454844 
L 201.968734 -83.454844 
L 202.261081 -83.454844 
L 202.553428 -83.454844 
L 202.845775 -83.454844 
L 203.138123 -83.454844 
L 203.43047 -83.454844 
L 203.722817 -83.454844 
L 204.015164 -83.454844 
L 204.307511 -83.454844 
L 204.599859 -83.454844 
L 204.892206 -83.454844 
L 205.184553 -83.454844 
L 205.4769 -83.454844 
L 205.769248 -83.454844 
L 206.061595 -83.454844 
L 206.353942 -83.454844 
L 206.646289 -83.454844 
L 206.938636 -83.454844 
L 206.938636 -84.933484 
L 206.938636 -84.933484 
L 206.646289 -85.180038 
L 206.353942 -85.450887 
L 206.061595 -85.745159 
L 205.769248 -86.061316 
L 205.4769 -86.39713 
L 205.184553 -86.749688 
L 204.892206 -87.115421 
L 204.599859 -87.490166 
L 204.307511 -87.869255 
L 204.015164 -88.247633 
L 203.722817 -88.619987 
L 203.43047 -88.980902 
L 203.138123 -89.325017 
L 202.845775 -89.647182 
L 202.553428 -89.942611 
L 202.261081 -90.207016 
L 201.968734 -90.436724 
L 201.676387 -90.62877 
L 201.384039 -90.780951 
L 201.091692 -90.891868 
L 200.799345 -90.960923 
L 200.506998 -90.988296 
L 200.21465 -90.974899 
L 199.922303 -90.922309 
L 199.629956 -90.832682 
L 199.337609 -90.708668 
L 199.045262 -90.553308 
L 198.752914 -90.369938 
L 198.460567 -90.162094 
L 198.16822 -89.933419 
L 197.875873 -89.68758 
L 197.583526 -89.428189 
L 197.291178 -89.158741 
L 196.998831 -88.882548 
L 196.706484 -88.602696 
L 196.414137 -88.322005 
L 196.121789 -88.042996 
L 195.829442 -87.767875 
L 195.537095 -87.498522 
L 195.244748 -87.236491 
L 194.952401 -86.983018 
L 194.660053 -86.739036 
L 194.367706 -86.505206 
L 194.075359 -86.281943 
L 193.783012 -86.069452 
L 193.490665 -85.867767 
L 193.198317 -85.676788 
L 192.90597 -85.496322 
L 192.613623 -85.326109 
L 192.321276 -85.165858 
L 192.028929 -85.01527 
L 191.736581 -84.874049 
L 191.444234 -84.74192 
L 191.151887 -84.61863 
L 190.85954 -84.503946 
L 190.567192 -84.397653 
L 190.274845 -84.299543 
L 189.982498 -84.209407 
L 189.690151 -84.127024 
L 189.397804 -84.052151 
L 189.105456 -83.984515 
L 188.813109 -83.92381 
L 188.520762 -83.869691 
L 188.228415 -83.821776 
L 187.936068 -83.77965 
L 187.64372 -83.742871 
L 187.351373 -83.710978 
L 187.059026 -83.683499 
L 186.766679 -83.659962 
L 186.474331 -83.63991 
L 186.181984 -83.622903 
L 185.889637 -83.608533 
L 185.59729 -83.596424 
L 185.304943 -83.586246 
L 185.012595 -83.577708 
L 184.720248 -83.570563 
L 184.427901 -83.564604 
L 184.135554 -83.559662 
L 183.843207 -83.555599 
L 183.550859 -83.552303 
L 183.258512 -83.549678 
L 182.966165 -83.547642 
L 182.673818 -83.54612 
L 182.381471 -83.545037 
L 182.089123 -83.544319 
L 181.796776 -83.543886 
L 181.504429 -83.543658 
L 181.212082 -83.543551 
L 180.919734 -83.543483 
L 180.627387 -83.543375 
L 180.33504 -83.54316 
L 180.042693 -83.542781 
L 179.750346 -83.542197 
L 179.457998 -83.541387 
L 179.165651 -83.54035 
L 178.873304 -83.539105 
L 178.580957 -83.537692 
L 178.28861 -83.536167 
L 177.996262 -83.534598 
L 177.703915 -83.533063 
L 177.411568 -83.531641 
L 177.119221 -83.530409 
L 176.826873 -83.529432 
L 176.534526 -83.528765 
L 176.242179 -83.528443 
L 175.949832 -83.528479 
L 175.657485 -83.528867 
L 175.365137 -83.529577 
L 175.07279 -83.53056 
L 174.780443 -83.531752 
L 174.488096 -83.533075 
L 174.195749 -83.534446 
L 173.903401 -83.535781 
L 173.611054 -83.537 
L 173.318707 -83.538037 
L 173.02636 -83.538839 
L 172.734012 -83.539371 
L 172.441665 -83.539621 
L 172.149318 -83.539596 
L 171.856971 -83.539327 
L 171.564624 -83.538857 
L 171.272276 -83.538247 
L 170.979929 -83.537562 
L 170.687582 -83.536874 
L 170.395235 -83.536248 
L 170.102888 -83.535742 
L 169.81054 -83.535399 
L 169.518193 -83.535245 
L 169.225846 -83.535285 
L 168.933499 -83.535503 
L 168.641152 -83.535861 
L 168.348804 -83.536306 
L 168.056457 -83.536765 
L 167.76411 -83.537161 
L 167.471763 -83.537406 
L 167.179415 -83.537419 
L 166.887068 -83.537122 
L 166.594721 -83.536454 
L 166.302374 -83.535367 
L 166.010027 -83.533839 
L 165.717679 -83.531868 
L 165.425332 -83.529479 
L 165.132985 -83.52672 
L 164.840638 -83.523664 
L 164.548291 -83.520401 
L 164.255943 -83.517041 
L 163.963596 -83.513704 
L 163.671249 -83.510518 
L 163.378902 -83.507614 
L 163.086554 -83.505121 
L 162.794207 -83.503162 
L 162.50186 -83.501846 
L 162.209513 -83.501272 
L 161.917166 -83.501519 
L 161.624818 -83.502644 
L 161.332471 -83.504686 
L 161.040124 -83.507656 
L 160.747777 -83.511543 
L 160.45543 -83.516312 
L 160.163082 -83.521903 
L 159.870735 -83.528233 
L 159.578388 -83.535198 
L 159.286041 -83.542676 
L 158.993694 -83.550531 
L 158.701346 -83.558615 
L 158.408999 -83.566771 
L 158.116652 -83.574842 
L 157.824305 -83.582674 
L 157.531957 -83.590117 
L 157.23961 -83.597037 
L 156.947263 -83.603313 
L 156.654916 -83.608841 
L 156.362569 -83.613542 
L 156.070221 -83.617355 
L 155.777874 -83.620244 
L 155.485527 -83.622194 
L 155.19318 -83.623206 
L 154.900833 -83.623304 
L 154.608485 -83.622519 
L 154.316138 -83.620898 
L 154.023791 -83.618493 
L 153.731444 -83.615361 
L 153.439096 -83.611561 
L 153.146749 -83.607151 
L 152.854402 -83.602191 
L 152.562055 -83.596737 
L 152.269708 -83.590845 
L 151.97736 -83.584571 
L 151.685013 -83.577969 
L 151.392666 -83.571097 
L 151.100319 -83.564013 
L 150.807972 -83.556777 
L 150.515624 -83.549454 
L 150.223277 -83.542109 
L 149.93093 -83.534808 
L 149.638583 -83.527619 
L 149.346235 -83.520607 
L 149.053888 -83.513833 
L 148.761541 -83.507354 
z
" style="stroke: #bddf26; stroke-width: 1.25"/>
    </defs>
    <g>
     <use xlink:href="#m0787d57380" x="0" y="173.814844" style="fill: #bddf26; fill-opacity: 0.7; stroke: #bddf26; stroke-width: 1.25"/>
    </g>
   </g>
   <g id="line2d_5">
    <path d="M 7.2 90.36 
L 216.45 90.36 
" style="fill: none; stroke: #bddf26; stroke-opacity: 0.9; stroke-linecap: round"/>
   </g>
   <g id="text_5">
    <!-- 4 -->
    <g style="fill: #bddf26" transform="translate(7.2 89.312625) scale(0.12 -0.12)">
     <defs>
      <path id="Arial-BoldMT-34" d="M 1994 0 
L 1994 922 
L 119 922 
L 119 1691 
L 2106 4600 
L 2844 4600 
L 2844 1694 
L 3413 1694 
L 3413 922 
L 2844 922 
L 2844 0 
L 1994 0 
z
M 1994 1694 
L 1994 3259 
L 941 1694 
L 1994 1694 
z
" transform="scale(0.015625)"/>
     </defs>
     <use xlink:href="#Arial-BoldMT-34"/>
    </g>
   </g>
  </g>
  <g id="axes_6">
   <g id="patch_7">
    <path d="M 7.2 100.755 
L 216.45 100.755 
L 216.45 59.175 
L 7.2 59.175 
L 7.2 100.755 
z
" style="fill: none"/>
   </g>
   <g id="matplotlib.axis_11">
    <g id="xtick_21"/>
    <g id="xtick_22"/>
    <g id="xtick_23"/>
    <g id="xtick_24"/>
   </g>
   <g id="matplotlib.axis_12"/>
   <g id="PolyCollection_5">
    <defs>
     <path id="mc6b13a0c91" d="M 123.949691 -73.129891 
L 123.949691 -73.059844 
L 124.173398 -73.059844 
L 124.397106 -73.059844 
L 124.620813 -73.059844 
L 124.84452 -73.059844 
L 125.068228 -73.059844 
L 125.291935 -73.059844 
L 125.515642 -73.059844 
L 125.73935 -73.059844 
L 125.963057 -73.059844 
L 126.186765 -73.059844 
L 126.410472 -73.059844 
L 126.634179 -73.059844 
L 126.857887 -73.059844 
L 127.081594 -73.059844 
L 127.305302 -73.059844 
L 127.529009 -73.059844 
L 127.752716 -73.059844 
L 127.976424 -73.059844 
L 128.200131 -73.059844 
L 128.423839 -73.059844 
L 128.647546 -73.059844 
L 128.871253 -73.059844 
L 129.094961 -73.059844 
L 129.318668 -73.059844 
L 129.542376 -73.059844 
L 129.766083 -73.059844 
L 129.98979 -73.059844 
L 130.213498 -73.059844 
L 130.437205 -73.059844 
L 130.660913 -73.059844 
L 130.88462 -73.059844 
L 131.108327 -73.059844 
L 131.332035 -73.059844 
L 131.555742 -73.059844 
L 131.779449 -73.059844 
L 132.003157 -73.059844 
L 132.226864 -73.059844 
L 132.450572 -73.059844 
L 132.674279 -73.059844 
L 132.897986 -73.059844 
L 133.121694 -73.059844 
L 133.345401 -73.059844 
L 133.569109 -73.059844 
L 133.792816 -73.059844 
L 134.016523 -73.059844 
L 134.240231 -73.059844 
L 134.463938 -73.059844 
L 134.687646 -73.059844 
L 134.911353 -73.059844 
L 135.13506 -73.059844 
L 135.358768 -73.059844 
L 135.582475 -73.059844 
L 135.806183 -73.059844 
L 136.02989 -73.059844 
L 136.253597 -73.059844 
L 136.477305 -73.059844 
L 136.701012 -73.059844 
L 136.92472 -73.059844 
L 137.148427 -73.059844 
L 137.372134 -73.059844 
L 137.595842 -73.059844 
L 137.819549 -73.059844 
L 138.043257 -73.059844 
L 138.266964 -73.059844 
L 138.490671 -73.059844 
L 138.714379 -73.059844 
L 138.938086 -73.059844 
L 139.161793 -73.059844 
L 139.385501 -73.059844 
L 139.609208 -73.059844 
L 139.832916 -73.059844 
L 140.056623 -73.059844 
L 140.28033 -73.059844 
L 140.504038 -73.059844 
L 140.727745 -73.059844 
L 140.951453 -73.059844 
L 141.17516 -73.059844 
L 141.398867 -73.059844 
L 141.622575 -73.059844 
L 141.846282 -73.059844 
L 142.06999 -73.059844 
L 142.293697 -73.059844 
L 142.517404 -73.059844 
L 142.741112 -73.059844 
L 142.964819 -73.059844 
L 143.188527 -73.059844 
L 143.412234 -73.059844 
L 143.635941 -73.059844 
L 143.859649 -73.059844 
L 144.083356 -73.059844 
L 144.307064 -73.059844 
L 144.530771 -73.059844 
L 144.754478 -73.059844 
L 144.978186 -73.059844 
L 145.201893 -73.059844 
L 145.425601 -73.059844 
L 145.649308 -73.059844 
L 145.873015 -73.059844 
L 146.096723 -73.059844 
L 146.32043 -73.059844 
L 146.544137 -73.059844 
L 146.767845 -73.059844 
L 146.991552 -73.059844 
L 147.21526 -73.059844 
L 147.438967 -73.059844 
L 147.662674 -73.059844 
L 147.886382 -73.059844 
L 148.110089 -73.059844 
L 148.333797 -73.059844 
L 148.557504 -73.059844 
L 148.781211 -73.059844 
L 149.004919 -73.059844 
L 149.228626 -73.059844 
L 149.452334 -73.059844 
L 149.676041 -73.059844 
L 149.899748 -73.059844 
L 150.123456 -73.059844 
L 150.347163 -73.059844 
L 150.570871 -73.059844 
L 150.794578 -73.059844 
L 151.018285 -73.059844 
L 151.241993 -73.059844 
L 151.4657 -73.059844 
L 151.689408 -73.059844 
L 151.913115 -73.059844 
L 152.136822 -73.059844 
L 152.36053 -73.059844 
L 152.584237 -73.059844 
L 152.807944 -73.059844 
L 153.031652 -73.059844 
L 153.255359 -73.059844 
L 153.479067 -73.059844 
L 153.702774 -73.059844 
L 153.926481 -73.059844 
L 154.150189 -73.059844 
L 154.373896 -73.059844 
L 154.597604 -73.059844 
L 154.821311 -73.059844 
L 155.045018 -73.059844 
L 155.268726 -73.059844 
L 155.492433 -73.059844 
L 155.716141 -73.059844 
L 155.939848 -73.059844 
L 156.163555 -73.059844 
L 156.387263 -73.059844 
L 156.61097 -73.059844 
L 156.834678 -73.059844 
L 157.058385 -73.059844 
L 157.282092 -73.059844 
L 157.5058 -73.059844 
L 157.729507 -73.059844 
L 157.953215 -73.059844 
L 158.176922 -73.059844 
L 158.400629 -73.059844 
L 158.624337 -73.059844 
L 158.848044 -73.059844 
L 159.071752 -73.059844 
L 159.295459 -73.059844 
L 159.519166 -73.059844 
L 159.742874 -73.059844 
L 159.966581 -73.059844 
L 160.190288 -73.059844 
L 160.413996 -73.059844 
L 160.637703 -73.059844 
L 160.861411 -73.059844 
L 161.085118 -73.059844 
L 161.308825 -73.059844 
L 161.532533 -73.059844 
L 161.75624 -73.059844 
L 161.979948 -73.059844 
L 162.203655 -73.059844 
L 162.427362 -73.059844 
L 162.65107 -73.059844 
L 162.874777 -73.059844 
L 163.098485 -73.059844 
L 163.322192 -73.059844 
L 163.545899 -73.059844 
L 163.769607 -73.059844 
L 163.993314 -73.059844 
L 164.217022 -73.059844 
L 164.440729 -73.059844 
L 164.664436 -73.059844 
L 164.888144 -73.059844 
L 165.111851 -73.059844 
L 165.335559 -73.059844 
L 165.559266 -73.059844 
L 165.782973 -73.059844 
L 166.006681 -73.059844 
L 166.230388 -73.059844 
L 166.454096 -73.059844 
L 166.677803 -73.059844 
L 166.90151 -73.059844 
L 167.125218 -73.059844 
L 167.348925 -73.059844 
L 167.572632 -73.059844 
L 167.79634 -73.059844 
L 168.020047 -73.059844 
L 168.243755 -73.059844 
L 168.467462 -73.059844 
L 168.467462 -73.987743 
L 168.467462 -73.987743 
L 168.243755 -74.1618 
L 168.020047 -74.358417 
L 167.79634 -74.578447 
L 167.572632 -74.822373 
L 167.348925 -75.090249 
L 167.125218 -75.381649 
L 166.90151 -75.695626 
L 166.677803 -76.030689 
L 166.454096 -76.384794 
L 166.230388 -76.755353 
L 166.006681 -77.139264 
L 165.782973 -77.53296 
L 165.559266 -77.932472 
L 165.335559 -78.333512 
L 165.111851 -78.73156 
L 164.888144 -79.121971 
L 164.664436 -79.500078 
L 164.440729 -79.861297 
L 164.217022 -80.201233 
L 163.993314 -80.515775 
L 163.769607 -80.801186 
L 163.545899 -81.054175 
L 163.322192 -81.271964 
L 163.098485 -81.452329 
L 162.874777 -81.593639 
L 162.65107 -81.694869 
L 162.427362 -81.755605 
L 162.203655 -81.776036 
L 161.979948 -81.75693 
L 161.75624 -81.699606 
L 161.532533 -81.605889 
L 161.308825 -81.478064 
L 161.085118 -81.318818 
L 160.861411 -81.13118 
L 160.637703 -80.918451 
L 160.413996 -80.684137 
L 160.190288 -80.431873 
L 159.966581 -80.165348 
L 159.742874 -79.888231 
L 159.519166 -79.604095 
L 159.295459 -79.316352 
L 159.071752 -79.028179 
L 158.848044 -78.742468 
L 158.624337 -78.461768 
L 158.400629 -78.188258 
L 158.176922 -77.923707 
L 157.953215 -77.669471 
L 157.729507 -77.426489 
L 157.5058 -77.195299 
L 157.282092 -76.976061 
L 157.058385 -76.768601 
L 156.834678 -76.572456 
L 156.61097 -76.386933 
L 156.387263 -76.211163 
L 156.163555 -76.044174 
L 155.939848 -75.884941 
L 155.716141 -75.732451 
L 155.492433 -75.585753 
L 155.268726 -75.443995 
L 155.045018 -75.306461 
L 154.821311 -75.172593 
L 154.597604 -75.041997 
L 154.373896 -74.914449 
L 154.150189 -74.789881 
L 153.926481 -74.668367 
L 153.702774 -74.550099 
L 153.479067 -74.435363 
L 153.255359 -74.324505 
L 153.031652 -74.217911 
L 152.807944 -74.115972 
L 152.584237 -74.019063 
L 152.36053 -73.927527 
L 152.136822 -73.84165 
L 151.913115 -73.761658 
L 151.689408 -73.687701 
L 151.4657 -73.619857 
L 151.241993 -73.558124 
L 151.018285 -73.502428 
L 150.794578 -73.452621 
L 150.570871 -73.408492 
L 150.347163 -73.369769 
L 150.123456 -73.33613 
L 149.899748 -73.30721 
L 149.676041 -73.282609 
L 149.452334 -73.261903 
L 149.228626 -73.244652 
L 149.004919 -73.230411 
L 148.781211 -73.218738 
L 148.557504 -73.209207 
L 148.333797 -73.201415 
L 148.110089 -73.194989 
L 147.886382 -73.1896 
L 147.662674 -73.18496 
L 147.438967 -73.180834 
L 147.21526 -73.177038 
L 146.991552 -73.173443 
L 146.767845 -73.169967 
L 146.544137 -73.166578 
L 146.32043 -73.163283 
L 146.096723 -73.160123 
L 145.873015 -73.157163 
L 145.649308 -73.154483 
L 145.425601 -73.152168 
L 145.201893 -73.150301 
L 144.978186 -73.148951 
L 144.754478 -73.148168 
L 144.530771 -73.14798 
L 144.307064 -73.148384 
L 144.083356 -73.149351 
L 143.859649 -73.150825 
L 143.635941 -73.152723 
L 143.412234 -73.154945 
L 143.188527 -73.157376 
L 142.964819 -73.159895 
L 142.741112 -73.162382 
L 142.517404 -73.164727 
L 142.293697 -73.166834 
L 142.06999 -73.16863 
L 141.846282 -73.170063 
L 141.622575 -73.171113 
L 141.398867 -73.171784 
L 141.17516 -73.172107 
L 140.951453 -73.172133 
L 140.727745 -73.171931 
L 140.504038 -73.171579 
L 140.28033 -73.171158 
L 140.056623 -73.170744 
L 139.832916 -73.170399 
L 139.609208 -73.170173 
L 139.385501 -73.170088 
L 139.161793 -73.170145 
L 138.938086 -73.170319 
L 138.714379 -73.170562 
L 138.490671 -73.170805 
L 138.266964 -73.170961 
L 138.043257 -73.170939 
L 137.819549 -73.170642 
L 137.595842 -73.16998 
L 137.372134 -73.168875 
L 137.148427 -73.167269 
L 136.92472 -73.165126 
L 136.701012 -73.162442 
L 136.477305 -73.159239 
L 136.253597 -73.155574 
L 136.02989 -73.15153 
L 135.806183 -73.14722 
L 135.582475 -73.142777 
L 135.358768 -73.138354 
L 135.13506 -73.134115 
L 134.911353 -73.13023 
L 134.687646 -73.126868 
L 134.463938 -73.124193 
L 134.240231 -73.122357 
L 134.016523 -73.121494 
L 133.792816 -73.121718 
L 133.569109 -73.123115 
L 133.345401 -73.125744 
L 133.121694 -73.129634 
L 132.897986 -73.134779 
L 132.674279 -73.141141 
L 132.450572 -73.148648 
L 132.226864 -73.157196 
L 132.003157 -73.166651 
L 131.779449 -73.176849 
L 131.555742 -73.187607 
L 131.332035 -73.19872 
L 131.108327 -73.209973 
L 130.88462 -73.221144 
L 130.660913 -73.232011 
L 130.437205 -73.24236 
L 130.213498 -73.251991 
L 129.98979 -73.260725 
L 129.766083 -73.268407 
L 129.542376 -73.274911 
L 129.318668 -73.280141 
L 129.094961 -73.284034 
L 128.871253 -73.286557 
L 128.647546 -73.287709 
L 128.423839 -73.287513 
L 128.200131 -73.286014 
L 127.976424 -73.283278 
L 127.752716 -73.279384 
L 127.529009 -73.27442 
L 127.305302 -73.268482 
L 127.081594 -73.261669 
L 126.857887 -73.254082 
L 126.634179 -73.245821 
L 126.410472 -73.236987 
L 126.186765 -73.22768 
L 125.963057 -73.217997 
L 125.73935 -73.208039 
L 125.515642 -73.197902 
L 125.291935 -73.187684 
L 125.068228 -73.177483 
L 124.84452 -73.167394 
L 124.620813 -73.157507 
L 124.397106 -73.147909 
L 124.173398 -73.13868 
L 123.949691 -73.129891 
z
" style="stroke: #7ad151; stroke-width: 1.25"/>
    </defs>
    <g>
     <use xlink:href="#mc6b13a0c91" x="0" y="173.814844" style="fill: #7ad151; fill-opacity: 0.7; stroke: #7ad151; stroke-width: 1.25"/>
    </g>
   </g>
   <g id="line2d_6">
    <path d="M 7.2 100.755 
L 216.45 100.755 
" style="fill: none; stroke: #7ad151; stroke-opacity: 0.9; stroke-linecap: round"/>
   </g>
   <g id="text_6">
    <!-- 5 -->
    <g style="fill: #7ad151" transform="translate(7.2 99.707625) scale(0.12 -0.12)">
     <defs>
      <path id="Arial-BoldMT-35" d="M 284 1178 
L 1159 1269 
Q 1197 972 1381 798 
Q 1566 625 1806 625 
Q 2081 625 2272 848 
Q 2463 1072 2463 1522 
Q 2463 1944 2273 2155 
Q 2084 2366 1781 2366 
Q 1403 2366 1103 2031 
L 391 2134 
L 841 4519 
L 3163 4519 
L 3163 3697 
L 1506 3697 
L 1369 2919 
Q 1663 3066 1969 3066 
Q 2553 3066 2959 2641 
Q 3366 2216 3366 1538 
Q 3366 972 3038 528 
Q 2591 -78 1797 -78 
Q 1163 -78 763 262 
Q 363 603 284 1178 
z
" transform="scale(0.015625)"/>
     </defs>
     <use xlink:href="#Arial-BoldMT-35"/>
    </g>
   </g>
  </g>
  <g id="axes_7">
   <g id="patch_8">
    <path d="M 7.2 111.15 
L 216.45 111.15 
L 216.45 69.57 
L 7.2 69.57 
L 7.2 111.15 
z
" style="fill: none"/>
   </g>
   <g id="matplotlib.axis_13">
    <g id="xtick_25"/>
    <g id="xtick_26"/>
    <g id="xtick_27"/>
    <g id="xtick_28"/>
   </g>
   <g id="matplotlib.axis_14"/>
   <g id="PolyCollection_6">
    <defs>
     <path id="m27f4eb05f1" d="M 94.432792 -62.785362 
L 94.432792 -62.664844 
L 94.56714 -62.664844 
L 94.701487 -62.664844 
L 94.835835 -62.664844 
L 94.970182 -62.664844 
L 95.10453 -62.664844 
L 95.238878 -62.664844 
L 95.373225 -62.664844 
L 95.507573 -62.664844 
L 95.64192 -62.664844 
L 95.776268 -62.664844 
L 95.910616 -62.664844 
L 96.044963 -62.664844 
L 96.179311 -62.664844 
L 96.313658 -62.664844 
L 96.448006 -62.664844 
L 96.582353 -62.664844 
L 96.716701 -62.664844 
L 96.851049 -62.664844 
L 96.985396 -62.664844 
L 97.119744 -62.664844 
L 97.254091 -62.664844 
L 97.388439 -62.664844 
L 97.522786 -62.664844 
L 97.657134 -62.664844 
L 97.791482 -62.664844 
L 97.925829 -62.664844 
L 98.060177 -62.664844 
L 98.194524 -62.664844 
L 98.328872 -62.664844 
L 98.463219 -62.664844 
L 98.597567 -62.664844 
L 98.731915 -62.664844 
L 98.866262 -62.664844 
L 99.00061 -62.664844 
L 99.134957 -62.664844 
L 99.269305 -62.664844 
L 99.403652 -62.664844 
L 99.538 -62.664844 
L 99.672348 -62.664844 
L 99.806695 -62.664844 
L 99.941043 -62.664844 
L 100.07539 -62.664844 
L 100.209738 -62.664844 
L 100.344086 -62.664844 
L 100.478433 -62.664844 
L 100.612781 -62.664844 
L 100.747128 -62.664844 
L 100.881476 -62.664844 
L 101.015823 -62.664844 
L 101.150171 -62.664844 
L 101.284519 -62.664844 
L 101.418866 -62.664844 
L 101.553214 -62.664844 
L 101.687561 -62.664844 
L 101.821909 -62.664844 
L 101.956256 -62.664844 
L 102.090604 -62.664844 
L 102.224952 -62.664844 
L 102.359299 -62.664844 
L 102.493647 -62.664844 
L 102.627994 -62.664844 
L 102.762342 -62.664844 
L 102.896689 -62.664844 
L 103.031037 -62.664844 
L 103.165385 -62.664844 
L 103.299732 -62.664844 
L 103.43408 -62.664844 
L 103.568427 -62.664844 
L 103.702775 -62.664844 
L 103.837122 -62.664844 
L 103.97147 -62.664844 
L 104.105818 -62.664844 
L 104.240165 -62.664844 
L 104.374513 -62.664844 
L 104.50886 -62.664844 
L 104.643208 -62.664844 
L 104.777556 -62.664844 
L 104.911903 -62.664844 
L 105.046251 -62.664844 
L 105.180598 -62.664844 
L 105.314946 -62.664844 
L 105.449293 -62.664844 
L 105.583641 -62.664844 
L 105.717989 -62.664844 
L 105.852336 -62.664844 
L 105.986684 -62.664844 
L 106.121031 -62.664844 
L 106.255379 -62.664844 
L 106.389726 -62.664844 
L 106.524074 -62.664844 
L 106.658422 -62.664844 
L 106.792769 -62.664844 
L 106.927117 -62.664844 
L 107.061464 -62.664844 
L 107.195812 -62.664844 
L 107.330159 -62.664844 
L 107.464507 -62.664844 
L 107.598855 -62.664844 
L 107.733202 -62.664844 
L 107.86755 -62.664844 
L 108.001897 -62.664844 
L 108.136245 -62.664844 
L 108.270592 -62.664844 
L 108.40494 -62.664844 
L 108.539288 -62.664844 
L 108.673635 -62.664844 
L 108.807983 -62.664844 
L 108.94233 -62.664844 
L 109.076678 -62.664844 
L 109.211026 -62.664844 
L 109.345373 -62.664844 
L 109.479721 -62.664844 
L 109.614068 -62.664844 
L 109.748416 -62.664844 
L 109.882763 -62.664844 
L 110.017111 -62.664844 
L 110.151459 -62.664844 
L 110.285806 -62.664844 
L 110.420154 -62.664844 
L 110.554501 -62.664844 
L 110.688849 -62.664844 
L 110.823196 -62.664844 
L 110.957544 -62.664844 
L 111.091892 -62.664844 
L 111.226239 -62.664844 
L 111.360587 -62.664844 
L 111.494934 -62.664844 
L 111.629282 -62.664844 
L 111.763629 -62.664844 
L 111.897977 -62.664844 
L 112.032325 -62.664844 
L 112.166672 -62.664844 
L 112.30102 -62.664844 
L 112.435367 -62.664844 
L 112.569715 -62.664844 
L 112.704062 -62.664844 
L 112.83841 -62.664844 
L 112.972758 -62.664844 
L 113.107105 -62.664844 
L 113.241453 -62.664844 
L 113.3758 -62.664844 
L 113.510148 -62.664844 
L 113.644496 -62.664844 
L 113.778843 -62.664844 
L 113.913191 -62.664844 
L 114.047538 -62.664844 
L 114.181886 -62.664844 
L 114.316233 -62.664844 
L 114.450581 -62.664844 
L 114.584929 -62.664844 
L 114.719276 -62.664844 
L 114.853624 -62.664844 
L 114.987971 -62.664844 
L 115.122319 -62.664844 
L 115.256666 -62.664844 
L 115.391014 -62.664844 
L 115.525362 -62.664844 
L 115.659709 -62.664844 
L 115.794057 -62.664844 
L 115.928404 -62.664844 
L 116.062752 -62.664844 
L 116.197099 -62.664844 
L 116.331447 -62.664844 
L 116.465795 -62.664844 
L 116.600142 -62.664844 
L 116.73449 -62.664844 
L 116.868837 -62.664844 
L 117.003185 -62.664844 
L 117.137532 -62.664844 
L 117.27188 -62.664844 
L 117.406228 -62.664844 
L 117.540575 -62.664844 
L 117.674923 -62.664844 
L 117.80927 -62.664844 
L 117.943618 -62.664844 
L 118.077966 -62.664844 
L 118.212313 -62.664844 
L 118.346661 -62.664844 
L 118.481008 -62.664844 
L 118.615356 -62.664844 
L 118.749703 -62.664844 
L 118.884051 -62.664844 
L 119.018399 -62.664844 
L 119.152746 -62.664844 
L 119.287094 -62.664844 
L 119.421441 -62.664844 
L 119.555789 -62.664844 
L 119.690136 -62.664844 
L 119.824484 -62.664844 
L 119.958832 -62.664844 
L 120.093179 -62.664844 
L 120.227527 -62.664844 
L 120.361874 -62.664844 
L 120.496222 -62.664844 
L 120.630569 -62.664844 
L 120.764917 -62.664844 
L 120.899265 -62.664844 
L 121.033612 -62.664844 
L 121.16796 -62.664844 
L 121.16796 -65.338536 
L 121.16796 -65.338536 
L 121.033612 -65.750473 
L 120.899265 -66.201646 
L 120.764917 -66.691512 
L 120.630569 -67.21874 
L 120.496222 -67.781155 
L 120.361874 -68.375713 
L 120.227527 -68.998491 
L 120.093179 -69.644706 
L 119.958832 -70.308766 
L 119.824484 -70.984336 
L 119.690136 -71.66444 
L 119.555789 -72.341584 
L 119.421441 -73.007895 
L 119.287094 -73.65528 
L 119.152746 -74.275602 
L 119.018399 -74.860854 
L 118.884051 -75.403342 
L 118.749703 -75.895863 
L 118.615356 -76.331872 
L 118.481008 -76.705639 
L 118.346661 -77.012381 
L 118.212313 -77.248377 
L 118.077966 -77.411055 
L 117.943618 -77.499041 
L 117.80927 -77.512189 
L 117.674923 -77.451569 
L 117.540575 -77.319424 
L 117.406228 -77.119102 
L 117.27188 -76.854952 
L 117.137532 -76.532196 
L 117.003185 -76.15679 
L 116.868837 -75.735254 
L 116.73449 -75.274507 
L 116.600142 -74.781689 
L 116.465795 -74.263993 
L 116.331447 -73.728495 
L 116.197099 -73.182006 
L 116.062752 -72.630942 
L 115.928404 -72.081206 
L 115.794057 -71.538105 
L 115.659709 -71.006284 
L 115.525362 -70.489689 
L 115.391014 -69.991553 
L 115.256666 -69.514407 
L 115.122319 -69.060105 
L 114.987971 -68.629876 
L 114.853624 -68.224382 
L 114.719276 -67.843784 
L 114.584929 -67.487825 
L 114.450581 -67.1559 
L 114.316233 -66.84714 
L 114.181886 -66.560482 
L 114.047538 -66.294733 
L 113.913191 -66.048637 
L 113.778843 -65.820914 
L 113.644496 -65.610309 
L 113.510148 -65.415614 
L 113.3758 -65.235694 
L 113.241453 -65.069493 
L 113.107105 -64.916039 
L 112.972758 -64.774446 
L 112.83841 -64.643901 
L 112.704062 -64.523656 
L 112.569715 -64.41302 
L 112.435367 -64.311344 
L 112.30102 -64.218015 
L 112.166672 -64.132443 
L 112.032325 -64.054061 
L 111.897977 -63.982314 
L 111.763629 -63.916667 
L 111.629282 -63.8566 
L 111.494934 -63.801612 
L 111.360587 -63.751225 
L 111.226239 -63.704987 
L 111.091892 -63.662477 
L 110.957544 -63.623304 
L 110.823196 -63.587114 
L 110.688849 -63.553582 
L 110.554501 -63.522418 
L 110.420154 -63.493357 
L 110.285806 -63.466163 
L 110.151459 -63.440618 
L 110.017111 -63.416524 
L 109.882763 -63.393694 
L 109.748416 -63.371952 
L 109.614068 -63.351133 
L 109.479721 -63.331079 
L 109.345373 -63.311646 
L 109.211026 -63.292699 
L 109.076678 -63.274124 
L 108.94233 -63.255825 
L 108.807983 -63.237734 
L 108.673635 -63.219812 
L 108.539288 -63.202051 
L 108.40494 -63.18448 
L 108.270592 -63.167163 
L 108.136245 -63.150195 
L 108.001897 -63.1337 
L 107.86755 -63.117828 
L 107.733202 -63.102739 
L 107.598855 -63.088602 
L 107.464507 -63.07558 
L 107.330159 -63.063819 
L 107.195812 -63.053441 
L 107.061464 -63.044529 
L 106.927117 -63.037125 
L 106.792769 -63.03122 
L 106.658422 -63.026752 
L 106.524074 -63.02361 
L 106.389726 -63.02163 
L 106.255379 -63.020606 
L 106.121031 -63.020299 
L 105.986684 -63.020445 
L 105.852336 -63.020769 
L 105.717989 -63.021 
L 105.583641 -63.020881 
L 105.449293 -63.020184 
L 105.314946 -63.01872 
L 105.180598 -63.016346 
L 105.046251 -63.012969 
L 104.911903 -63.008553 
L 104.777556 -63.003115 
L 104.643208 -62.996718 
L 104.50886 -62.989468 
L 104.374513 -62.981504 
L 104.240165 -62.972984 
L 104.105818 -62.964079 
L 103.97147 -62.954956 
L 103.837122 -62.945771 
L 103.702775 -62.936658 
L 103.568427 -62.927723 
L 103.43408 -62.919039 
L 103.299732 -62.910647 
L 103.165385 -62.902552 
L 103.031037 -62.894731 
L 102.896689 -62.887135 
L 102.762342 -62.879699 
L 102.627994 -62.872348 
L 102.493647 -62.865007 
L 102.359299 -62.857609 
L 102.224952 -62.850102 
L 102.090604 -62.842457 
L 101.956256 -62.83467 
L 101.821909 -62.826769 
L 101.687561 -62.818813 
L 101.553214 -62.810892 
L 101.418866 -62.803126 
L 101.284519 -62.795659 
L 101.150171 -62.788659 
L 101.015823 -62.782306 
L 100.881476 -62.776793 
L 100.747128 -62.772311 
L 100.612781 -62.76905 
L 100.478433 -62.767189 
L 100.344086 -62.766888 
L 100.209738 -62.768285 
L 100.07539 -62.771489 
L 99.941043 -62.776575 
L 99.806695 -62.783578 
L 99.672348 -62.792494 
L 99.538 -62.803273 
L 99.403652 -62.815822 
L 99.269305 -62.829998 
L 99.134957 -62.845617 
L 99.00061 -62.862452 
L 98.866262 -62.880237 
L 98.731915 -62.898673 
L 98.597567 -62.917437 
L 98.463219 -62.936187 
L 98.328872 -62.954571 
L 98.194524 -62.972239 
L 98.060177 -62.988849 
L 97.925829 -63.00408 
L 97.791482 -63.017639 
L 97.657134 -63.029269 
L 97.522786 -63.038756 
L 97.388439 -63.045934 
L 97.254091 -63.050686 
L 97.119744 -63.05295 
L 96.985396 -63.052714 
L 96.851049 -63.050016 
L 96.716701 -63.044939 
L 96.582353 -63.037609 
L 96.448006 -63.028188 
L 96.313658 -63.016865 
L 96.179311 -63.003854 
L 96.044963 -62.989385 
L 95.910616 -62.973698 
L 95.776268 -62.957038 
L 95.64192 -62.93965 
L 95.507573 -62.921773 
L 95.373225 -62.903635 
L 95.238878 -62.885455 
L 95.10453 -62.867431 
L 94.970182 -62.849749 
L 94.835835 -62.83257 
L 94.701487 -62.816036 
L 94.56714 -62.800268 
L 94.432792 -62.785362 
z
" style="stroke: #22a884; stroke-width: 1.25"/>
    </defs>
    <g>
     <use xlink:href="#m27f4eb05f1" x="0" y="173.814844" style="fill: #22a884; fill-opacity: 0.7; stroke: #22a884; stroke-width: 1.25"/>
    </g>
   </g>
   <g id="line2d_7">
    <path d="M 7.2 111.15 
L 216.45 111.15 
" style="fill: none; stroke: #22a884; stroke-opacity: 0.9; stroke-linecap: round"/>
   </g>
   <g id="text_7">
    <!-- 6 -->
    <g style="fill: #22a884" transform="translate(7.2 110.102625) scale(0.12 -0.12)">
     <defs>
      <path id="Arial-BoldMT-36" d="M 3247 3459 
L 2397 3366 
Q 2366 3628 2234 3753 
Q 2103 3878 1894 3878 
Q 1616 3878 1423 3628 
Q 1231 3378 1181 2588 
Q 1509 2975 1997 2975 
Q 2547 2975 2939 2556 
Q 3331 2138 3331 1475 
Q 3331 772 2918 347 
Q 2506 -78 1859 -78 
Q 1166 -78 719 461 
Q 272 1000 272 2228 
Q 272 3488 737 4044 
Q 1203 4600 1947 4600 
Q 2469 4600 2811 4308 
Q 3153 4016 3247 3459 
z
M 1256 1544 
Q 1256 1116 1453 883 
Q 1650 650 1903 650 
Q 2147 650 2309 840 
Q 2472 1031 2472 1466 
Q 2472 1913 2297 2120 
Q 2122 2328 1859 2328 
Q 1606 2328 1431 2129 
Q 1256 1931 1256 1544 
z
" transform="scale(0.015625)"/>
     </defs>
     <use xlink:href="#Arial-BoldMT-36"/>
    </g>
   </g>
  </g>
  <g id="axes_8">
   <g id="patch_9">
    <path d="M 7.2 121.545 
L 216.45 121.545 
L 216.45 79.965 
L 7.2 79.965 
L 7.2 121.545 
z
" style="fill: none"/>
   </g>
   <g id="matplotlib.axis_15">
    <g id="xtick_29"/>
    <g id="xtick_30"/>
    <g id="xtick_31"/>
    <g id="xtick_32"/>
   </g>
   <g id="matplotlib.axis_16"/>
   <g id="PolyCollection_7">
    <defs>
     <path id="mf08f1175e5" d="M 56.535746 -52.432622 
L 56.535746 -52.269844 
L 56.622795 -52.269844 
L 56.709843 -52.269844 
L 56.796892 -52.269844 
L 56.88394 -52.269844 
L 56.970989 -52.269844 
L 57.058038 -52.269844 
L 57.145086 -52.269844 
L 57.232135 -52.269844 
L 57.319183 -52.269844 
L 57.406232 -52.269844 
L 57.493281 -52.269844 
L 57.580329 -52.269844 
L 57.667378 -52.269844 
L 57.754426 -52.269844 
L 57.841475 -52.269844 
L 57.928523 -52.269844 
L 58.015572 -52.269844 
L 58.102621 -52.269844 
L 58.189669 -52.269844 
L 58.276718 -52.269844 
L 58.363766 -52.269844 
L 58.450815 -52.269844 
L 58.537864 -52.269844 
L 58.624912 -52.269844 
L 58.711961 -52.269844 
L 58.799009 -52.269844 
L 58.886058 -52.269844 
L 58.973107 -52.269844 
L 59.060155 -52.269844 
L 59.147204 -52.269844 
L 59.234252 -52.269844 
L 59.321301 -52.269844 
L 59.40835 -52.269844 
L 59.495398 -52.269844 
L 59.582447 -52.269844 
L 59.669495 -52.269844 
L 59.756544 -52.269844 
L 59.843592 -52.269844 
L 59.930641 -52.269844 
L 60.01769 -52.269844 
L 60.104738 -52.269844 
L 60.191787 -52.269844 
L 60.278835 -52.269844 
L 60.365884 -52.269844 
L 60.452933 -52.269844 
L 60.539981 -52.269844 
L 60.62703 -52.269844 
L 60.714078 -52.269844 
L 60.801127 -52.269844 
L 60.888176 -52.269844 
L 60.975224 -52.269844 
L 61.062273 -52.269844 
L 61.149321 -52.269844 
L 61.23637 -52.269844 
L 61.323419 -52.269844 
L 61.410467 -52.269844 
L 61.497516 -52.269844 
L 61.584564 -52.269844 
L 61.671613 -52.269844 
L 61.758662 -52.269844 
L 61.84571 -52.269844 
L 61.932759 -52.269844 
L 62.019807 -52.269844 
L 62.106856 -52.269844 
L 62.193904 -52.269844 
L 62.280953 -52.269844 
L 62.368002 -52.269844 
L 62.45505 -52.269844 
L 62.542099 -52.269844 
L 62.629147 -52.269844 
L 62.716196 -52.269844 
L 62.803245 -52.269844 
L 62.890293 -52.269844 
L 62.977342 -52.269844 
L 63.06439 -52.269844 
L 63.151439 -52.269844 
L 63.238488 -52.269844 
L 63.325536 -52.269844 
L 63.412585 -52.269844 
L 63.499633 -52.269844 
L 63.586682 -52.269844 
L 63.673731 -52.269844 
L 63.760779 -52.269844 
L 63.847828 -52.269844 
L 63.934876 -52.269844 
L 64.021925 -52.269844 
L 64.108973 -52.269844 
L 64.196022 -52.269844 
L 64.283071 -52.269844 
L 64.370119 -52.269844 
L 64.457168 -52.269844 
L 64.544216 -52.269844 
L 64.631265 -52.269844 
L 64.718314 -52.269844 
L 64.805362 -52.269844 
L 64.892411 -52.269844 
L 64.979459 -52.269844 
L 65.066508 -52.269844 
L 65.153557 -52.269844 
L 65.240605 -52.269844 
L 65.327654 -52.269844 
L 65.414702 -52.269844 
L 65.501751 -52.269844 
L 65.5888 -52.269844 
L 65.675848 -52.269844 
L 65.762897 -52.269844 
L 65.849945 -52.269844 
L 65.936994 -52.269844 
L 66.024043 -52.269844 
L 66.111091 -52.269844 
L 66.19814 -52.269844 
L 66.285188 -52.269844 
L 66.372237 -52.269844 
L 66.459285 -52.269844 
L 66.546334 -52.269844 
L 66.633383 -52.269844 
L 66.720431 -52.269844 
L 66.80748 -52.269844 
L 66.894528 -52.269844 
L 66.981577 -52.269844 
L 67.068626 -52.269844 
L 67.155674 -52.269844 
L 67.242723 -52.269844 
L 67.329771 -52.269844 
L 67.41682 -52.269844 
L 67.503869 -52.269844 
L 67.590917 -52.269844 
L 67.677966 -52.269844 
L 67.765014 -52.269844 
L 67.852063 -52.269844 
L 67.939112 -52.269844 
L 68.02616 -52.269844 
L 68.113209 -52.269844 
L 68.200257 -52.269844 
L 68.287306 -52.269844 
L 68.374354 -52.269844 
L 68.461403 -52.269844 
L 68.548452 -52.269844 
L 68.6355 -52.269844 
L 68.722549 -52.269844 
L 68.809597 -52.269844 
L 68.896646 -52.269844 
L 68.983695 -52.269844 
L 69.070743 -52.269844 
L 69.157792 -52.269844 
L 69.24484 -52.269844 
L 69.331889 -52.269844 
L 69.418938 -52.269844 
L 69.505986 -52.269844 
L 69.593035 -52.269844 
L 69.680083 -52.269844 
L 69.767132 -52.269844 
L 69.854181 -52.269844 
L 69.941229 -52.269844 
L 70.028278 -52.269844 
L 70.115326 -52.269844 
L 70.202375 -52.269844 
L 70.289424 -52.269844 
L 70.376472 -52.269844 
L 70.463521 -52.269844 
L 70.550569 -52.269844 
L 70.637618 -52.269844 
L 70.724666 -52.269844 
L 70.811715 -52.269844 
L 70.898764 -52.269844 
L 70.985812 -52.269844 
L 71.072861 -52.269844 
L 71.159909 -52.269844 
L 71.246958 -52.269844 
L 71.334007 -52.269844 
L 71.421055 -52.269844 
L 71.508104 -52.269844 
L 71.595152 -52.269844 
L 71.682201 -52.269844 
L 71.76925 -52.269844 
L 71.856298 -52.269844 
L 71.943347 -52.269844 
L 72.030395 -52.269844 
L 72.117444 -52.269844 
L 72.204493 -52.269844 
L 72.291541 -52.269844 
L 72.37859 -52.269844 
L 72.465638 -52.269844 
L 72.552687 -52.269844 
L 72.639735 -52.269844 
L 72.726784 -52.269844 
L 72.813833 -52.269844 
L 72.900881 -52.269844 
L 72.98793 -52.269844 
L 73.074978 -52.269844 
L 73.162027 -52.269844 
L 73.249076 -52.269844 
L 73.336124 -52.269844 
L 73.423173 -52.269844 
L 73.510221 -52.269844 
L 73.59727 -52.269844 
L 73.684319 -52.269844 
L 73.771367 -52.269844 
L 73.858416 -52.269844 
L 73.858416 -52.48255 
L 73.858416 -52.48255 
L 73.771367 -52.518035 
L 73.684319 -52.558681 
L 73.59727 -52.605351 
L 73.510221 -52.659081 
L 73.423173 -52.721108 
L 73.336124 -52.792873 
L 73.249076 -52.876033 
L 73.162027 -52.97245 
L 73.074978 -53.084174 
L 72.98793 -53.213416 
L 72.900881 -53.362498 
L 72.813833 -53.533807 
L 72.726784 -53.729731 
L 72.639735 -53.952588 
L 72.552687 -54.204558 
L 72.465638 -54.487614 
L 72.37859 -54.803459 
L 72.291541 -55.153467 
L 72.204493 -55.538647 
L 72.117444 -55.959607 
L 72.030395 -56.416542 
L 71.943347 -56.90923 
L 71.856298 -57.437046 
L 71.76925 -57.998974 
L 71.682201 -58.593644 
L 71.595152 -59.219347 
L 71.508104 -59.874073 
L 71.421055 -60.555522 
L 71.334007 -61.261121 
L 71.246958 -61.988025 
L 71.159909 -62.733103 
L 71.072861 -63.492917 
L 70.985812 -64.263686 
L 70.898764 -65.041245 
L 70.811715 -65.821001 
L 70.724666 -66.597885 
L 70.637618 -67.366322 
L 70.550569 -68.120204 
L 70.463521 -68.852902 
L 70.376472 -69.557289 
L 70.289424 -70.225818 
L 70.202375 -70.850625 
L 70.115326 -71.423682 
L 70.028278 -71.936991 
L 69.941229 -72.382805 
L 69.854181 -72.753887 
L 69.767132 -73.043772 
L 69.680083 -73.247035 
L 69.593035 -73.359543 
L 69.505986 -73.378665 
L 69.418938 -73.303436 
L 69.331889 -73.134658 
L 69.24484 -72.874924 
L 69.157792 -72.528563 
L 69.070743 -72.101509 
L 68.983695 -71.601098 
L 68.896646 -71.03581 
L 68.809597 -70.414959 
L 68.722549 -69.748371 
L 68.6355 -69.046047 
L 68.548452 -68.317854 
L 68.461403 -67.573235 
L 68.374354 -66.820978 
L 68.287306 -66.069029 
L 68.200257 -65.324376 
L 68.113209 -64.592981 
L 68.02616 -63.87977 
L 67.939112 -63.188672 
L 67.852063 -62.522687 
L 67.765014 -61.883982 
L 67.677966 -61.274003 
L 67.590917 -60.69359 
L 67.503869 -60.143085 
L 67.41682 -59.62244 
L 67.329771 -59.131307 
L 67.242723 -58.669118 
L 67.155674 -58.235152 
L 67.068626 -57.828589 
L 66.981577 -57.448552 
L 66.894528 -57.094148 
L 66.80748 -56.764488 
L 66.720431 -56.45871 
L 66.633383 -56.175989 
L 66.546334 -55.915546 
L 66.459285 -55.676639 
L 66.372237 -55.458556 
L 66.285188 -55.260601 
L 66.19814 -55.082065 
L 66.111091 -54.922204 
L 66.024043 -54.780209 
L 65.936994 -54.655177 
L 65.849945 -54.546088 
L 65.762897 -54.451788 
L 65.675848 -54.370975 
L 65.5888 -54.302203 
L 65.501751 -54.243894 
L 65.414702 -54.194358 
L 65.327654 -54.151829 
L 65.240605 -54.114509 
L 65.153557 -54.080612 
L 65.066508 -54.048423 
L 64.979459 -54.016348 
L 64.892411 -53.982964 
L 64.805362 -53.947067 
L 64.718314 -53.907707 
L 64.631265 -53.864213 
L 64.544216 -53.816204 
L 64.457168 -53.763591 
L 64.370119 -53.706565 
L 64.283071 -53.645563 
L 64.196022 -53.581239 
L 64.108973 -53.514412 
L 64.021925 -53.446017 
L 63.934876 -53.377051 
L 63.847828 -53.308518 
L 63.760779 -53.24138 
L 63.673731 -53.176513 
L 63.586682 -53.114673 
L 63.499633 -53.056473 
L 63.412585 -53.002368 
L 63.325536 -52.952654 
L 63.238488 -52.907473 
L 63.151439 -52.866831 
L 63.06439 -52.830617 
L 62.977342 -52.798628 
L 62.890293 -52.770595 
L 62.803245 -52.746206 
L 62.716196 -52.725128 
L 62.629147 -52.707025 
L 62.542099 -52.691564 
L 62.45505 -52.678429 
L 62.368002 -52.667317 
L 62.280953 -52.657937 
L 62.193904 -52.650012 
L 62.106856 -52.643269 
L 62.019807 -52.63744 
L 61.932759 -52.632264 
L 61.84571 -52.627484 
L 61.758662 -52.622861 
L 61.671613 -52.618178 
L 61.584564 -52.613252 
L 61.497516 -52.60795 
L 61.410467 -52.602201 
L 61.323419 -52.596001 
L 61.23637 -52.589428 
L 61.149321 -52.582637 
L 61.062273 -52.575862 
L 60.975224 -52.569407 
L 60.888176 -52.563628 
L 60.801127 -52.558916 
L 60.714078 -52.555676 
L 60.62703 -52.554298 
L 60.539981 -52.555129 
L 60.452933 -52.558454 
L 60.365884 -52.564466 
L 60.278835 -52.573254 
L 60.191787 -52.584785 
L 60.104738 -52.598901 
L 60.01769 -52.615319 
L 59.930641 -52.633641 
L 59.843592 -52.653367 
L 59.756544 -52.67392 
L 59.669495 -52.694669 
L 59.582447 -52.714963 
L 59.495398 -52.73416 
L 59.40835 -52.75166 
L 59.321301 -52.766935 
L 59.234252 -52.77955 
L 59.147204 -52.78919 
L 59.060155 -52.795665 
L 58.973107 -52.798919 
L 58.886058 -52.799027 
L 58.799009 -52.796178 
L 58.711961 -52.790667 
L 58.624912 -52.782859 
L 58.537864 -52.773171 
L 58.450815 -52.762036 
L 58.363766 -52.749879 
L 58.276718 -52.737086 
L 58.189669 -52.723981 
L 58.102621 -52.710815 
L 58.015572 -52.697752 
L 57.928523 -52.684866 
L 57.841475 -52.672151 
L 57.754426 -52.659528 
L 57.667378 -52.646864 
L 57.580329 -52.633991 
L 57.493281 -52.620729 
L 57.406232 -52.606908 
L 57.319183 -52.592385 
L 57.232135 -52.577061 
L 57.145086 -52.560894 
L 57.058038 -52.543904 
L 56.970989 -52.526171 
L 56.88394 -52.507833 
L 56.796892 -52.489077 
L 56.709843 -52.470126 
L 56.622795 -52.451223 
L 56.535746 -52.432622 
z
" style="stroke: #2a788e; stroke-width: 1.25"/>
    </defs>
    <g>
     <use xlink:href="#mf08f1175e5" x="0" y="173.814844" style="fill: #2a788e; fill-opacity: 0.7; stroke: #2a788e; stroke-width: 1.25"/>
    </g>
   </g>
   <g id="line2d_8">
    <path d="M 7.2 121.545 
L 216.45 121.545 
" style="fill: none; stroke: #2a788e; stroke-opacity: 0.9; stroke-linecap: round"/>
   </g>
   <g id="text_8">
    <!-- 7 -->
    <g style="fill: #2a788e" transform="translate(7.2 120.497625) scale(0.12 -0.12)">
     <defs>
      <path id="Arial-BoldMT-37" d="M 272 3703 
L 272 4519 
L 3275 4519 
L 3275 3881 
Q 2903 3516 2518 2831 
Q 2134 2147 1932 1376 
Q 1731 606 1734 0 
L 888 0 
Q 909 950 1279 1937 
Q 1650 2925 2269 3703 
L 272 3703 
z
" transform="scale(0.015625)"/>
     </defs>
     <use xlink:href="#Arial-BoldMT-37"/>
    </g>
   </g>
  </g>
  <g id="axes_9">
   <g id="patch_10">
    <path d="M 7.2 131.94 
L 216.45 131.94 
L 216.45 90.36 
L 7.2 90.36 
L 7.2 131.94 
z
" style="fill: none"/>
   </g>
   <g id="matplotlib.axis_17">
    <g id="xtick_33">
     <g id="text_9">
      <!-- 0 -->
      <g style="fill: #838383" transform="translate(17.669176 149.313594) scale(0.11 -0.11)">
       <defs>
        <path id="ArialMT-30" d="M 266 2259 
Q 266 3072 433 3567 
Q 600 4063 929 4331 
Q 1259 4600 1759 4600 
Q 2128 4600 2406 4451 
Q 2684 4303 2865 4023 
Q 3047 3744 3150 3342 
Q 3253 2941 3253 2259 
Q 3253 1453 3087 958 
Q 2922 463 2592 192 
Q 2263 -78 1759 -78 
Q 1097 -78 719 397 
Q 266 969 266 2259 
z
M 844 2259 
Q 844 1131 1108 757 
Q 1372 384 1759 384 
Q 2147 384 2411 759 
Q 2675 1134 2675 2259 
Q 2675 3391 2411 3762 
Q 2147 4134 1753 4134 
Q 1366 4134 1134 3806 
Q 844 3388 844 2259 
z
" transform="scale(0.015625)"/>
       </defs>
       <use xlink:href="#ArialMT-30"/>
      </g>
     </g>
    </g>
    <g id="xtick_34">
     <g id="text_10">
      <!-- 10 -->
      <g style="fill: #838383" transform="translate(67.542753 149.313594) scale(0.11 -0.11)">
       <defs>
        <path id="ArialMT-31" d="M 2384 0 
L 1822 0 
L 1822 3584 
Q 1619 3391 1289 3197 
Q 959 3003 697 2906 
L 697 3450 
Q 1169 3672 1522 3987 
Q 1875 4303 2022 4600 
L 2384 4600 
L 2384 0 
z
" transform="scale(0.015625)"/>
       </defs>
       <use xlink:href="#ArialMT-31"/>
       <use xlink:href="#ArialMT-30" x="55.615234"/>
      </g>
     </g>
    </g>
    <g id="xtick_35">
     <g id="text_11">
      <!-- 20 -->
      <g style="fill: #838383" transform="translate(120.474845 149.313594) scale(0.11 -0.11)">
       <defs>
        <path id="ArialMT-32" d="M 3222 541 
L 3222 0 
L 194 0 
Q 188 203 259 391 
Q 375 700 629 1000 
Q 884 1300 1366 1694 
Q 2113 2306 2375 2664 
Q 2638 3022 2638 3341 
Q 2638 3675 2398 3904 
Q 2159 4134 1775 4134 
Q 1369 4134 1125 3890 
Q 881 3647 878 3216 
L 300 3275 
Q 359 3922 746 4261 
Q 1134 4600 1788 4600 
Q 2447 4600 2831 4234 
Q 3216 3869 3216 3328 
Q 3216 3053 3103 2787 
Q 2991 2522 2730 2228 
Q 2469 1934 1863 1422 
Q 1356 997 1212 845 
Q 1069 694 975 541 
L 3222 541 
z
" transform="scale(0.015625)"/>
       </defs>
       <use xlink:href="#ArialMT-32"/>
       <use xlink:href="#ArialMT-30" x="55.615234"/>
      </g>
     </g>
    </g>
    <g id="xtick_36">
     <g id="text_12">
      <!-- 30 -->
      <g style="fill: #838383" transform="translate(173.406937 149.313594) scale(0.11 -0.11)">
       <defs>
        <path id="ArialMT-33" d="M 269 1209 
L 831 1284 
Q 928 806 1161 595 
Q 1394 384 1728 384 
Q 2125 384 2398 659 
Q 2672 934 2672 1341 
Q 2672 1728 2419 1979 
Q 2166 2231 1775 2231 
Q 1616 2231 1378 2169 
L 1441 2663 
Q 1497 2656 1531 2656 
Q 1891 2656 2178 2843 
Q 2466 3031 2466 3422 
Q 2466 3731 2256 3934 
Q 2047 4138 1716 4138 
Q 1388 4138 1169 3931 
Q 950 3725 888 3313 
L 325 3413 
Q 428 3978 793 4289 
Q 1159 4600 1703 4600 
Q 2078 4600 2393 4439 
Q 2709 4278 2876 4000 
Q 3044 3722 3044 3409 
Q 3044 3113 2884 2869 
Q 2725 2625 2413 2481 
Q 2819 2388 3044 2092 
Q 3269 1797 3269 1353 
Q 3269 753 2831 336 
Q 2394 -81 1725 -81 
Q 1122 -81 723 278 
Q 325 638 269 1209 
z
" transform="scale(0.015625)"/>
       </defs>
       <use xlink:href="#ArialMT-33"/>
       <use xlink:href="#ArialMT-30" x="55.615234"/>
      </g>
     </g>
    </g>
    <g id="text_13">
     <!-- logdet -->
     <g style="fill: #bdbdbd" transform="translate(95.47875 164.089219) scale(0.12 -0.12)">
      <defs>
       <path id="ArialMT-6c" d="M 409 0 
L 409 4581 
L 972 4581 
L 972 0 
L 409 0 
z
" transform="scale(0.015625)"/>
       <path id="ArialMT-6f" d="M 213 1659 
Q 213 2581 725 3025 
Q 1153 3394 1769 3394 
Q 2453 3394 2887 2945 
Q 3322 2497 3322 1706 
Q 3322 1066 3130 698 
Q 2938 331 2570 128 
Q 2203 -75 1769 -75 
Q 1072 -75 642 372 
Q 213 819 213 1659 
z
M 791 1659 
Q 791 1022 1069 705 
Q 1347 388 1769 388 
Q 2188 388 2466 706 
Q 2744 1025 2744 1678 
Q 2744 2294 2464 2611 
Q 2184 2928 1769 2928 
Q 1347 2928 1069 2612 
Q 791 2297 791 1659 
z
" transform="scale(0.015625)"/>
       <path id="ArialMT-67" d="M 319 -275 
L 866 -356 
Q 900 -609 1056 -725 
Q 1266 -881 1628 -881 
Q 2019 -881 2231 -725 
Q 2444 -569 2519 -288 
Q 2563 -116 2559 434 
Q 2191 0 1641 0 
Q 956 0 581 494 
Q 206 988 206 1678 
Q 206 2153 378 2554 
Q 550 2956 876 3175 
Q 1203 3394 1644 3394 
Q 2231 3394 2613 2919 
L 2613 3319 
L 3131 3319 
L 3131 450 
Q 3131 -325 2973 -648 
Q 2816 -972 2473 -1159 
Q 2131 -1347 1631 -1347 
Q 1038 -1347 672 -1080 
Q 306 -813 319 -275 
z
M 784 1719 
Q 784 1066 1043 766 
Q 1303 466 1694 466 
Q 2081 466 2343 764 
Q 2606 1063 2606 1700 
Q 2606 2309 2336 2618 
Q 2066 2928 1684 2928 
Q 1309 2928 1046 2623 
Q 784 2319 784 1719 
z
" transform="scale(0.015625)"/>
       <path id="ArialMT-64" d="M 2575 0 
L 2575 419 
Q 2259 -75 1647 -75 
Q 1250 -75 917 144 
Q 584 363 401 755 
Q 219 1147 219 1656 
Q 219 2153 384 2558 
Q 550 2963 881 3178 
Q 1213 3394 1622 3394 
Q 1922 3394 2156 3267 
Q 2391 3141 2538 2938 
L 2538 4581 
L 3097 4581 
L 3097 0 
L 2575 0 
z
M 797 1656 
Q 797 1019 1065 703 
Q 1334 388 1700 388 
Q 2069 388 2326 689 
Q 2584 991 2584 1609 
Q 2584 2291 2321 2609 
Q 2059 2928 1675 2928 
Q 1300 2928 1048 2622 
Q 797 2316 797 1656 
z
" transform="scale(0.015625)"/>
       <path id="ArialMT-65" d="M 2694 1069 
L 3275 997 
Q 3138 488 2766 206 
Q 2394 -75 1816 -75 
Q 1088 -75 661 373 
Q 234 822 234 1631 
Q 234 2469 665 2931 
Q 1097 3394 1784 3394 
Q 2450 3394 2872 2941 
Q 3294 2488 3294 1666 
Q 3294 1616 3291 1516 
L 816 1516 
Q 847 969 1125 678 
Q 1403 388 1819 388 
Q 2128 388 2347 550 
Q 2566 713 2694 1069 
z
M 847 1978 
L 2700 1978 
Q 2663 2397 2488 2606 
Q 2219 2931 1791 2931 
Q 1403 2931 1139 2672 
Q 875 2413 847 1978 
z
" transform="scale(0.015625)"/>
       <path id="ArialMT-74" d="M 1650 503 
L 1731 6 
Q 1494 -44 1306 -44 
Q 1000 -44 831 53 
Q 663 150 594 308 
Q 525 466 525 972 
L 525 2881 
L 113 2881 
L 113 3319 
L 525 3319 
L 525 4141 
L 1084 4478 
L 1084 3319 
L 1650 3319 
L 1650 2881 
L 1084 2881 
L 1084 941 
Q 1084 700 1114 631 
Q 1144 563 1211 522 
Q 1278 481 1403 481 
Q 1497 481 1650 503 
z
" transform="scale(0.015625)"/>
      </defs>
      <use xlink:href="#ArialMT-6c"/>
      <use xlink:href="#ArialMT-6f" x="22.216797"/>
      <use xlink:href="#ArialMT-67" x="77.832031"/>
      <use xlink:href="#ArialMT-64" x="133.447266"/>
      <use xlink:href="#ArialMT-65" x="189.0625"/>
      <use xlink:href="#ArialMT-74" x="244.677734"/>
     </g>
    </g>
   </g>
   <g id="matplotlib.axis_18"/>
   <g id="PolyCollection_8">
    <defs>
     <path id="me5e0754c6a" d="M 16.711364 -42.278736 
L 16.711364 -41.874844 
L 16.749832 -41.874844 
L 16.788301 -41.874844 
L 16.82677 -41.874844 
L 16.865238 -41.874844 
L 16.903707 -41.874844 
L 16.942175 -41.874844 
L 16.980644 -41.874844 
L 17.019113 -41.874844 
L 17.057581 -41.874844 
L 17.09605 -41.874844 
L 17.134519 -41.874844 
L 17.172987 -41.874844 
L 17.211456 -41.874844 
L 17.249924 -41.874844 
L 17.288393 -41.874844 
L 17.326862 -41.874844 
L 17.36533 -41.874844 
L 17.403799 -41.874844 
L 17.442268 -41.874844 
L 17.480736 -41.874844 
L 17.519205 -41.874844 
L 17.557673 -41.874844 
L 17.596142 -41.874844 
L 17.634611 -41.874844 
L 17.673079 -41.874844 
L 17.711548 -41.874844 
L 17.750017 -41.874844 
L 17.788485 -41.874844 
L 17.826954 -41.874844 
L 17.865423 -41.874844 
L 17.903891 -41.874844 
L 17.94236 -41.874844 
L 17.980828 -41.874844 
L 18.019297 -41.874844 
L 18.057766 -41.874844 
L 18.096234 -41.874844 
L 18.134703 -41.874844 
L 18.173172 -41.874844 
L 18.21164 -41.874844 
L 18.250109 -41.874844 
L 18.288577 -41.874844 
L 18.327046 -41.874844 
L 18.365515 -41.874844 
L 18.403983 -41.874844 
L 18.442452 -41.874844 
L 18.480921 -41.874844 
L 18.519389 -41.874844 
L 18.557858 -41.874844 
L 18.596326 -41.874844 
L 18.634795 -41.874844 
L 18.673264 -41.874844 
L 18.711732 -41.874844 
L 18.750201 -41.874844 
L 18.78867 -41.874844 
L 18.827138 -41.874844 
L 18.865607 -41.874844 
L 18.904076 -41.874844 
L 18.942544 -41.874844 
L 18.981013 -41.874844 
L 19.019481 -41.874844 
L 19.05795 -41.874844 
L 19.096419 -41.874844 
L 19.134887 -41.874844 
L 19.173356 -41.874844 
L 19.211825 -41.874844 
L 19.250293 -41.874844 
L 19.288762 -41.874844 
L 19.32723 -41.874844 
L 19.365699 -41.874844 
L 19.404168 -41.874844 
L 19.442636 -41.874844 
L 19.481105 -41.874844 
L 19.519574 -41.874844 
L 19.558042 -41.874844 
L 19.596511 -41.874844 
L 19.634979 -41.874844 
L 19.673448 -41.874844 
L 19.711917 -41.874844 
L 19.750385 -41.874844 
L 19.788854 -41.874844 
L 19.827323 -41.874844 
L 19.865791 -41.874844 
L 19.90426 -41.874844 
L 19.942729 -41.874844 
L 19.981197 -41.874844 
L 20.019666 -41.874844 
L 20.058134 -41.874844 
L 20.096603 -41.874844 
L 20.135072 -41.874844 
L 20.17354 -41.874844 
L 20.212009 -41.874844 
L 20.250478 -41.874844 
L 20.288946 -41.874844 
L 20.327415 -41.874844 
L 20.365883 -41.874844 
L 20.404352 -41.874844 
L 20.442821 -41.874844 
L 20.481289 -41.874844 
L 20.519758 -41.874844 
L 20.558227 -41.874844 
L 20.596695 -41.874844 
L 20.635164 -41.874844 
L 20.673632 -41.874844 
L 20.712101 -41.874844 
L 20.75057 -41.874844 
L 20.789038 -41.874844 
L 20.827507 -41.874844 
L 20.865976 -41.874844 
L 20.904444 -41.874844 
L 20.942913 -41.874844 
L 20.981382 -41.874844 
L 21.01985 -41.874844 
L 21.058319 -41.874844 
L 21.096787 -41.874844 
L 21.135256 -41.874844 
L 21.173725 -41.874844 
L 21.212193 -41.874844 
L 21.250662 -41.874844 
L 21.289131 -41.874844 
L 21.327599 -41.874844 
L 21.366068 -41.874844 
L 21.404536 -41.874844 
L 21.443005 -41.874844 
L 21.481474 -41.874844 
L 21.519942 -41.874844 
L 21.558411 -41.874844 
L 21.59688 -41.874844 
L 21.635348 -41.874844 
L 21.673817 -41.874844 
L 21.712285 -41.874844 
L 21.750754 -41.874844 
L 21.789223 -41.874844 
L 21.827691 -41.874844 
L 21.86616 -41.874844 
L 21.904629 -41.874844 
L 21.943097 -41.874844 
L 21.981566 -41.874844 
L 22.020035 -41.874844 
L 22.058503 -41.874844 
L 22.096972 -41.874844 
L 22.13544 -41.874844 
L 22.173909 -41.874844 
L 22.212378 -41.874844 
L 22.250846 -41.874844 
L 22.289315 -41.874844 
L 22.327784 -41.874844 
L 22.366252 -41.874844 
L 22.404721 -41.874844 
L 22.443189 -41.874844 
L 22.481658 -41.874844 
L 22.520127 -41.874844 
L 22.558595 -41.874844 
L 22.597064 -41.874844 
L 22.635533 -41.874844 
L 22.674001 -41.874844 
L 22.71247 -41.874844 
L 22.750938 -41.874844 
L 22.789407 -41.874844 
L 22.827876 -41.874844 
L 22.866344 -41.874844 
L 22.904813 -41.874844 
L 22.943282 -41.874844 
L 22.98175 -41.874844 
L 23.020219 -41.874844 
L 23.058688 -41.874844 
L 23.097156 -41.874844 
L 23.135625 -41.874844 
L 23.174093 -41.874844 
L 23.212562 -41.874844 
L 23.251031 -41.874844 
L 23.289499 -41.874844 
L 23.327968 -41.874844 
L 23.366437 -41.874844 
L 23.404905 -41.874844 
L 23.443374 -41.874844 
L 23.481842 -41.874844 
L 23.520311 -41.874844 
L 23.55878 -41.874844 
L 23.597248 -41.874844 
L 23.635717 -41.874844 
L 23.674186 -41.874844 
L 23.712654 -41.874844 
L 23.751123 -41.874844 
L 23.789591 -41.874844 
L 23.82806 -41.874844 
L 23.866529 -41.874844 
L 23.904997 -41.874844 
L 23.943466 -41.874844 
L 23.981935 -41.874844 
L 24.020403 -41.874844 
L 24.058872 -41.874844 
L 24.097341 -41.874844 
L 24.135809 -41.874844 
L 24.174278 -41.874844 
L 24.212746 -41.874844 
L 24.251215 -41.874844 
L 24.289684 -41.874844 
L 24.328152 -41.874844 
L 24.366621 -41.874844 
L 24.366621 -42.297455 
L 24.366621 -42.297455 
L 24.328152 -42.354635 
L 24.289684 -42.415901 
L 24.251215 -42.481167 
L 24.212746 -42.550349 
L 24.174278 -42.623376 
L 24.135809 -42.700199 
L 24.097341 -42.780784 
L 24.058872 -42.865105 
L 24.020403 -42.953131 
L 23.981935 -43.044796 
L 23.943466 -43.139971 
L 23.904997 -43.238434 
L 23.866529 -43.339833 
L 23.82806 -43.443659 
L 23.789591 -43.549231 
L 23.751123 -43.655683 
L 23.712654 -43.761982 
L 23.674186 -43.866955 
L 23.635717 -43.96934 
L 23.597248 -44.067851 
L 23.55878 -44.161268 
L 23.520311 -44.248526 
L 23.481842 -44.32881 
L 23.443374 -44.401653 
L 23.404905 -44.467015 
L 23.366437 -44.525343 
L 23.327968 -44.577605 
L 23.289499 -44.625299 
L 23.251031 -44.670419 
L 23.212562 -44.715404 
L 23.174093 -44.763042 
L 23.135625 -44.816364 
L 23.097156 -44.878519 
L 23.058688 -44.952647 
L 23.020219 -45.041749 
L 22.98175 -45.148585 
L 22.943282 -45.275583 
L 22.904813 -45.424778 
L 22.866344 -45.597791 
L 22.827876 -45.795832 
L 22.789407 -46.019734 
L 22.750938 -46.270018 
L 22.71247 -46.546966 
L 22.674001 -46.850713 
L 22.635533 -47.181334 
L 22.597064 -47.538926 
L 22.558595 -47.92367 
L 22.520127 -48.335881 
L 22.481658 -48.776029 
L 22.443189 -49.244733 
L 22.404721 -49.742737 
L 22.366252 -50.270863 
L 22.327784 -50.829946 
L 22.289315 -51.420766 
L 22.250846 -52.043967 
L 22.212378 -52.699994 
L 22.173909 -53.389024 
L 22.13544 -54.110922 
L 22.096972 -54.865217 
L 22.058503 -55.651092 
L 22.020035 -56.467407 
L 21.981566 -57.312735 
L 21.943097 -58.185422 
L 21.904629 -59.08366 
L 21.86616 -60.005563 
L 21.827691 -60.949242 
L 21.789223 -61.912873 
L 21.750754 -62.894732 
L 21.712285 -63.893209 
L 21.673817 -64.906779 
L 21.635348 -65.93393 
L 21.59688 -66.973048 
L 21.558411 -68.022261 
L 21.519942 -69.079254 
L 21.481474 -70.141059 
L 21.443005 -71.203849 
L 21.404536 -72.262747 
L 21.366068 -73.311669 
L 21.327599 -74.343227 
L 21.289131 -75.348704 
L 21.250662 -76.318117 
L 21.212193 -77.240364 
L 21.173725 -78.103472 
L 21.135256 -78.894919 
L 21.096787 -79.602033 
L 21.058319 -80.212426 
L 21.01985 -80.714468 
L 20.981382 -81.097738 
L 20.942913 -81.353454 
L 20.904444 -81.474844 
L 20.865976 -81.45743 
L 20.827507 -81.299226 
L 20.789038 -81.00082 
L 20.75057 -80.565352 
L 20.712101 -79.998388 
L 20.673632 -79.307696 
L 20.635164 -78.502946 
L 20.596695 -77.595353 
L 20.558227 -76.597281 
L 20.519758 -75.521834 
L 20.481289 -74.382462 
L 20.442821 -73.192584 
L 20.404352 -71.965267 
L 20.365883 -70.712952 
L 20.327415 -69.447238 
L 20.288946 -68.178741 
L 20.250478 -66.916994 
L 20.212009 -65.670418 
L 20.17354 -64.446315 
L 20.135072 -63.250913 
L 20.096603 -62.08942 
L 20.058134 -60.966094 
L 20.019666 -59.884317 
L 19.981197 -58.84667 
L 19.942729 -57.855004 
L 19.90426 -56.910501 
L 19.865791 -56.013739 
L 19.827323 -55.164749 
L 19.788854 -54.363078 
L 19.750385 -53.607845 
L 19.711917 -52.897813 
L 19.673448 -52.231453 
L 19.634979 -51.607013 
L 19.596511 -51.022587 
L 19.558042 -50.476176 
L 19.519574 -49.965746 
L 19.481105 -49.48927 
L 19.442636 -49.044759 
L 19.404168 -48.630281 
L 19.365699 -48.243965 
L 19.32723 -47.883999 
L 19.288762 -47.548613 
L 19.250293 -47.236067 
L 19.211825 -46.944631 
L 19.173356 -46.672582 
L 19.134887 -46.418194 
L 19.096419 -46.17975 
L 19.05795 -45.955552 
L 19.019481 -45.743953 
L 18.981013 -45.543383 
L 18.942544 -45.352392 
L 18.904076 -45.169682 
L 18.865607 -44.994145 
L 18.827138 -44.824891 
L 18.78867 -44.661272 
L 18.750201 -44.502889 
L 18.711732 -44.349596 
L 18.673264 -44.201485 
L 18.634795 -44.058868 
L 18.596326 -43.922241 
L 18.557858 -43.792249 
L 18.519389 -43.669637 
L 18.480921 -43.555204 
L 18.442452 -43.44975 
L 18.403983 -43.354027 
L 18.365515 -43.268689 
L 18.327046 -43.194253 
L 18.288577 -43.131057 
L 18.250109 -43.079233 
L 18.21164 -43.038684 
L 18.173172 -43.009075 
L 18.134703 -42.989835 
L 18.096234 -42.980166 
L 18.057766 -42.979064 
L 18.019297 -42.985355 
L 17.980828 -42.997728 
L 17.94236 -43.01479 
L 17.903891 -43.035105 
L 17.865423 -43.057254 
L 17.826954 -43.079874 
L 17.788485 -43.101706 
L 17.750017 -43.121631 
L 17.711548 -43.138692 
L 17.673079 -43.152112 
L 17.634611 -43.1613 
L 17.596142 -43.165844 
L 17.557673 -43.165499 
L 17.519205 -43.160165 
L 17.480736 -43.149863 
L 17.442268 -43.134703 
L 17.403799 -43.114864 
L 17.36533 -43.090563 
L 17.326862 -43.062042 
L 17.288393 -43.029548 
L 17.249924 -42.993334 
L 17.211456 -42.953651 
L 17.172987 -42.910756 
L 17.134519 -42.864921 
L 17.09605 -42.81644 
L 17.057581 -42.765643 
L 17.019113 -42.712901 
L 16.980644 -42.65863 
L 16.942175 -42.603297 
L 16.903707 -42.547406 
L 16.865238 -42.491499 
L 16.82677 -42.436131 
L 16.788301 -42.381861 
L 16.749832 -42.329228 
L 16.711364 -42.278736 
z
" style="stroke: #414487; stroke-width: 1.25"/>
    </defs>
    <g>
     <use xlink:href="#me5e0754c6a" x="0" y="173.814844" style="fill: #414487; fill-opacity: 0.7; stroke: #414487; stroke-width: 1.25"/>
    </g>
   </g>
   <g id="line2d_9">
    <path d="M 7.2 131.94 
L 216.45 131.94 
" style="fill: none; stroke: #414487; stroke-opacity: 0.9; stroke-linecap: round"/>
   </g>
   <g id="text_14">
    <!-- 8 -->
    <g style="fill: #414487" transform="translate(7.2 130.892625) scale(0.12 -0.12)">
     <defs>
      <path id="Arial-BoldMT-38" d="M 1025 2472 
Q 684 2616 529 2867 
Q 375 3119 375 3419 
Q 375 3931 733 4265 
Q 1091 4600 1750 4600 
Q 2403 4600 2764 4265 
Q 3125 3931 3125 3419 
Q 3125 3100 2959 2851 
Q 2794 2603 2494 2472 
Q 2875 2319 3073 2025 
Q 3272 1731 3272 1347 
Q 3272 713 2867 316 
Q 2463 -81 1791 -81 
Q 1166 -81 750 247 
Q 259 634 259 1309 
Q 259 1681 443 1992 
Q 628 2303 1025 2472 
z
M 1206 3356 
Q 1206 3094 1354 2947 
Q 1503 2800 1750 2800 
Q 2000 2800 2150 2948 
Q 2300 3097 2300 3359 
Q 2300 3606 2151 3754 
Q 2003 3903 1759 3903 
Q 1506 3903 1356 3753 
Q 1206 3603 1206 3356 
z
M 1125 1394 
Q 1125 1031 1311 828 
Q 1497 625 1775 625 
Q 2047 625 2225 820 
Q 2403 1016 2403 1384 
Q 2403 1706 2222 1901 
Q 2041 2097 1763 2097 
Q 1441 2097 1283 1875 
Q 1125 1653 1125 1394 
z
" transform="scale(0.015625)"/>
     </defs>
     <use xlink:href="#Arial-BoldMT-38"/>
    </g>
   </g>
  </g>
 </g>
</svg>
