<?xml version="1.0" encoding="utf-8" standalone="no"?>
<!DOCTYPE svg PUBLIC "-//W3C//DTD SVG 1.1//EN"
  "http://www.w3.org/Graphics/SVG/1.1/DTD/svg11.dtd">
<svg xmlns:xlink="http://www.w3.org/1999/xlink" width="422.364375pt" height="311.948pt" viewBox="0 0 422.364375 311.948" xmlns="http://www.w3.org/2000/svg" version="1.1">
 <metadata>
  <rdf:RDF xmlns:dc="http://purl.org/dc/elements/1.1/" xmlns:cc="http://creativecommons.org/ns#" xmlns:rdf="http://www.w3.org/1999/02/22-rdf-syntax-ns#">
   <cc:Work>
    <dc:type rdf:resource="http://purl.org/dc/dcmitype/StillImage"/>
    <dc:date>2024-07-04T21:21:23.125115</dc:date>
    <dc:format>image/svg+xml</dc:format>
    <dc:creator>
     <cc:Agent>
      <dc:title>Matplotlib v3.8.4, https://matplotlib.org/</dc:title>
     </cc:Agent>
    </dc:creator>
   </cc:Work>
  </rdf:RDF>
 </metadata>
 <defs>
  <style type="text/css">*{stroke-linejoin: round; stroke-linecap: butt}</style>
 </defs>
 <g id="figure_1">
  <g id="patch_1">
   <path d="M 0 311.948 
L 422.364375 311.948 
L 422.364375 0 
L 0 0 
L 0 311.948 
z
" style="fill: none"/>
  </g>
  <g id="axes_1">
   <g id="patch_2">
    <path d="M 58.044375 289.968 
L 415.164375 289.968 
L 415.164375 23.856 
L 58.044375 23.856 
L 58.044375 289.968 
z
" style="fill: none"/>
   </g>
   <g id="matplotlib.axis_1">
    <g id="xtick_1">
     <g id="line2d_1">
      <path d="M 74.277102 289.968 
L 74.277102 23.856 
" clip-path="url(#p41ebfe094b)" style="fill: none; stroke-dasharray: 1.48,0.64; stroke-dashoffset: 0; stroke: #838383; stroke-opacity: 0.25; stroke-width: 0.4"/>
     </g>
     <g id="line2d_2"/>
     <g id="text_1">
      <!-- 0 -->
      <g style="fill: #838383" transform="translate(70.677102 302.348) scale(0.12 -0.12)">
       <defs>
        <path id="IBMPlexSans-Regular-30" d="M 1920 -77 
Q 1120 -77 752 531 
Q 384 1139 384 2234 
Q 384 3328 752 3936 
Q 1120 4544 1920 4544 
Q 2720 4544 3088 3936 
Q 3456 3328 3456 2234 
Q 3456 1139 3088 531 
Q 2720 -77 1920 -77 
z
M 1920 390 
Q 2182 390 2368 499 
Q 2554 608 2669 806 
Q 2784 1005 2838 1273 
Q 2893 1542 2893 1869 
L 2893 2598 
Q 2893 2925 2838 3193 
Q 2784 3462 2669 3660 
Q 2554 3859 2368 3968 
Q 2182 4077 1920 4077 
Q 1658 4077 1472 3968 
Q 1286 3859 1171 3660 
Q 1056 3462 1001 3193 
Q 947 2925 947 2598 
L 947 1869 
Q 947 1542 1001 1273 
Q 1056 1005 1171 806 
Q 1286 608 1472 499 
Q 1658 390 1920 390 
z
" transform="scale(0.015625)"/>
       </defs>
       <use xlink:href="#IBMPlexSans-Regular-30"/>
      </g>
     </g>
    </g>
    <g id="xtick_2">
     <g id="line2d_3">
      <path d="M 139.731648 289.968 
L 139.731648 23.856 
" clip-path="url(#p41ebfe094b)" style="fill: none; stroke-dasharray: 1.48,0.64; stroke-dashoffset: 0; stroke: #838383; stroke-opacity: 0.25; stroke-width: 0.4"/>
     </g>
     <g id="line2d_4"/>
     <g id="text_2">
      <!-- 50 -->
      <g style="fill: #838383" transform="translate(132.531648 302.348) scale(0.12 -0.12)">
       <defs>
        <path id="IBMPlexSans-Regular-35" d="M 3187 3994 
L 1229 3994 
L 1101 2291 
L 1146 2291 
Q 1306 2515 1507 2649 
Q 1709 2784 2061 2784 
Q 2349 2784 2592 2688 
Q 2835 2592 3014 2416 
Q 3194 2240 3293 1984 
Q 3392 1728 3392 1402 
Q 3392 1075 3289 803 
Q 3187 531 2992 336 
Q 2797 141 2518 32 
Q 2240 -77 1888 -77 
Q 1606 -77 1392 -13 
Q 1178 51 1011 160 
Q 845 269 720 403 
Q 595 538 493 685 
L 896 992 
Q 979 858 1072 749 
Q 1165 640 1277 563 
Q 1389 486 1536 444 
Q 1683 403 1888 403 
Q 2349 403 2585 646 
Q 2822 890 2822 1331 
L 2822 1395 
Q 2822 1837 2585 2080 
Q 2349 2323 1888 2323 
Q 1581 2323 1405 2211 
Q 1229 2099 1088 1946 
L 634 2010 
L 794 4467 
L 3187 4467 
L 3187 3994 
z
" transform="scale(0.015625)"/>
       </defs>
       <use xlink:href="#IBMPlexSans-Regular-35"/>
       <use xlink:href="#IBMPlexSans-Regular-30" x="59.999985"/>
      </g>
     </g>
    </g>
    <g id="xtick_3">
     <g id="line2d_5">
      <path d="M 205.186193 289.968 
L 205.186193 23.856 
" clip-path="url(#p41ebfe094b)" style="fill: none; stroke-dasharray: 1.48,0.64; stroke-dashoffset: 0; stroke: #838383; stroke-opacity: 0.25; stroke-width: 0.4"/>
     </g>
     <g id="line2d_6"/>
     <g id="text_3">
      <!-- 100 -->
      <g style="fill: #838383" transform="translate(194.386193 302.348) scale(0.12 -0.12)">
       <defs>
        <path id="IBMPlexSans-Regular-31" d="M 563 0 
L 563 474 
L 1811 474 
L 1811 4070 
L 1766 4070 
L 640 3021 
L 326 3360 
L 1510 4467 
L 2349 4467 
L 2349 474 
L 3501 474 
L 3501 0 
L 563 0 
z
" transform="scale(0.015625)"/>
       </defs>
       <use xlink:href="#IBMPlexSans-Regular-31"/>
       <use xlink:href="#IBMPlexSans-Regular-30" x="59.999985"/>
       <use xlink:href="#IBMPlexSans-Regular-30" x="119.999969"/>
      </g>
     </g>
    </g>
    <g id="xtick_4">
     <g id="line2d_7">
      <path d="M 270.640739 289.968 
L 270.640739 23.856 
" clip-path="url(#p41ebfe094b)" style="fill: none; stroke-dasharray: 1.48,0.64; stroke-dashoffset: 0; stroke: #838383; stroke-opacity: 0.25; stroke-width: 0.4"/>
     </g>
     <g id="line2d_8"/>
     <g id="text_4">
      <!-- 150 -->
      <g style="fill: #838383" transform="translate(259.840739 302.348) scale(0.12 -0.12)">
       <use xlink:href="#IBMPlexSans-Regular-31"/>
       <use xlink:href="#IBMPlexSans-Regular-35" x="59.999985"/>
       <use xlink:href="#IBMPlexSans-Regular-30" x="119.999969"/>
      </g>
     </g>
    </g>
    <g id="xtick_5">
     <g id="line2d_9">
      <path d="M 336.095284 289.968 
L 336.095284 23.856 
" clip-path="url(#p41ebfe094b)" style="fill: none; stroke-dasharray: 1.48,0.64; stroke-dashoffset: 0; stroke: #838383; stroke-opacity: 0.25; stroke-width: 0.4"/>
     </g>
     <g id="line2d_10"/>
     <g id="text_5">
      <!-- 200 -->
      <g style="fill: #838383" transform="translate(325.295284 302.348) scale(0.12 -0.12)">
       <defs>
        <path id="IBMPlexSans-Regular-32" d="M 3411 0 
L 480 0 
L 480 550 
L 1939 1894 
Q 2253 2182 2464 2505 
Q 2675 2829 2675 3155 
L 2675 3232 
Q 2675 3603 2470 3833 
Q 2266 4064 1850 4064 
Q 1645 4064 1491 4006 
Q 1338 3949 1226 3846 
Q 1114 3744 1040 3606 
Q 966 3469 922 3309 
L 442 3494 
Q 506 3693 618 3881 
Q 730 4070 899 4217 
Q 1069 4365 1309 4454 
Q 1549 4544 1875 4544 
Q 2202 4544 2458 4448 
Q 2714 4352 2886 4179 
Q 3059 4006 3152 3769 
Q 3245 3533 3245 3245 
Q 3245 2982 3171 2758 
Q 3098 2534 2970 2332 
Q 2842 2131 2659 1939 
Q 2477 1747 2266 1555 
L 1062 474 
L 3411 474 
L 3411 0 
z
" transform="scale(0.015625)"/>
       </defs>
       <use xlink:href="#IBMPlexSans-Regular-32"/>
       <use xlink:href="#IBMPlexSans-Regular-30" x="59.999985"/>
       <use xlink:href="#IBMPlexSans-Regular-30" x="119.999969"/>
      </g>
     </g>
    </g>
    <g id="xtick_6">
     <g id="line2d_11">
      <path d="M 401.54983 289.968 
L 401.54983 23.856 
" clip-path="url(#p41ebfe094b)" style="fill: none; stroke-dasharray: 1.48,0.64; stroke-dashoffset: 0; stroke: #838383; stroke-opacity: 0.25; stroke-width: 0.4"/>
     </g>
     <g id="line2d_12"/>
     <g id="text_6">
      <!-- 250 -->
      <g style="fill: #838383" transform="translate(390.74983 302.348) scale(0.12 -0.12)">
       <use xlink:href="#IBMPlexSans-Regular-32"/>
       <use xlink:href="#IBMPlexSans-Regular-35" x="59.999985"/>
       <use xlink:href="#IBMPlexSans-Regular-30" x="119.999969"/>
      </g>
     </g>
    </g>
   </g>
   <g id="matplotlib.axis_2">
    <g id="ytick_1">
     <g id="line2d_13">
      <path d="M 58.044375 283.719831 
L 415.164375 283.719831 
" clip-path="url(#p41ebfe094b)" style="fill: none; stroke-dasharray: 1.48,0.64; stroke-dashoffset: 0; stroke: #838383; stroke-opacity: 0.25; stroke-width: 0.4"/>
     </g>
     <g id="line2d_14"/>
     <g id="text_7">
      <!-- −0.20 -->
      <g style="fill: #838383" transform="translate(22.48 288.159831) scale(0.12 -0.12)">
       <defs>
        <path id="IBMPlexSans-Regular-2212" d="M 429 1734 
L 429 2170 
L 3411 2170 
L 3411 1734 
L 429 1734 
z
" transform="scale(0.015625)"/>
        <path id="IBMPlexSans-Regular-2e" d="M 870 -77 
Q 666 -77 573 25 
Q 480 128 480 294 
L 480 378 
Q 480 544 573 646 
Q 666 749 870 749 
Q 1075 749 1168 646 
Q 1261 544 1261 378 
L 1261 294 
Q 1261 128 1168 25 
Q 1075 -77 870 -77 
z
" transform="scale(0.015625)"/>
       </defs>
       <use xlink:href="#IBMPlexSans-Regular-2212"/>
       <use xlink:href="#IBMPlexSans-Regular-30" x="59.999985"/>
       <use xlink:href="#IBMPlexSans-Regular-2e" x="119.999969"/>
       <use xlink:href="#IBMPlexSans-Regular-32" x="147.199966"/>
       <use xlink:href="#IBMPlexSans-Regular-30" x="207.199951"/>
      </g>
     </g>
    </g>
    <g id="ytick_2">
     <g id="line2d_15">
      <path d="M 58.044375 251.587728 
L 415.164375 251.587728 
" clip-path="url(#p41ebfe094b)" style="fill: none; stroke-dasharray: 1.48,0.64; stroke-dashoffset: 0; stroke: #838383; stroke-opacity: 0.25; stroke-width: 0.4"/>
     </g>
     <g id="line2d_16"/>
     <g id="text_8">
      <!-- −0.15 -->
      <g style="fill: #838383" transform="translate(22.48 256.027728) scale(0.12 -0.12)">
       <use xlink:href="#IBMPlexSans-Regular-2212"/>
       <use xlink:href="#IBMPlexSans-Regular-30" x="59.999985"/>
       <use xlink:href="#IBMPlexSans-Regular-2e" x="119.999969"/>
       <use xlink:href="#IBMPlexSans-Regular-31" x="147.199966"/>
       <use xlink:href="#IBMPlexSans-Regular-35" x="207.199951"/>
      </g>
     </g>
    </g>
    <g id="ytick_3">
     <g id="line2d_17">
      <path d="M 58.044375 219.455625 
L 415.164375 219.455625 
" clip-path="url(#p41ebfe094b)" style="fill: none; stroke-dasharray: 1.48,0.64; stroke-dashoffset: 0; stroke: #838383; stroke-opacity: 0.25; stroke-width: 0.4"/>
     </g>
     <g id="line2d_18"/>
     <g id="text_9">
      <!-- −0.10 -->
      <g style="fill: #838383" transform="translate(22.48 223.895625) scale(0.12 -0.12)">
       <use xlink:href="#IBMPlexSans-Regular-2212"/>
       <use xlink:href="#IBMPlexSans-Regular-30" x="59.999985"/>
       <use xlink:href="#IBMPlexSans-Regular-2e" x="119.999969"/>
       <use xlink:href="#IBMPlexSans-Regular-31" x="147.199966"/>
       <use xlink:href="#IBMPlexSans-Regular-30" x="207.199951"/>
      </g>
     </g>
    </g>
    <g id="ytick_4">
     <g id="line2d_19">
      <path d="M 58.044375 187.323522 
L 415.164375 187.323522 
" clip-path="url(#p41ebfe094b)" style="fill: none; stroke-dasharray: 1.48,0.64; stroke-dashoffset: 0; stroke: #838383; stroke-opacity: 0.25; stroke-width: 0.4"/>
     </g>
     <g id="line2d_20"/>
     <g id="text_10">
      <!-- −0.05 -->
      <g style="fill: #838383" transform="translate(22.48 191.763522) scale(0.12 -0.12)">
       <use xlink:href="#IBMPlexSans-Regular-2212"/>
       <use xlink:href="#IBMPlexSans-Regular-30" x="59.999985"/>
       <use xlink:href="#IBMPlexSans-Regular-2e" x="119.999969"/>
       <use xlink:href="#IBMPlexSans-Regular-30" x="147.199966"/>
       <use xlink:href="#IBMPlexSans-Regular-35" x="207.199951"/>
      </g>
     </g>
    </g>
    <g id="ytick_5">
     <g id="line2d_21">
      <path d="M 58.044375 155.191419 
L 415.164375 155.191419 
" clip-path="url(#p41ebfe094b)" style="fill: none; stroke-dasharray: 1.48,0.64; stroke-dashoffset: 0; stroke: #838383; stroke-opacity: 0.25; stroke-width: 0.4"/>
     </g>
     <g id="line2d_22"/>
     <g id="text_11">
      <!-- 0.00 -->
      <g style="fill: #838383" transform="translate(29.68 159.631419) scale(0.12 -0.12)">
       <use xlink:href="#IBMPlexSans-Regular-30"/>
       <use xlink:href="#IBMPlexSans-Regular-2e" x="59.999985"/>
       <use xlink:href="#IBMPlexSans-Regular-30" x="87.199982"/>
       <use xlink:href="#IBMPlexSans-Regular-30" x="147.199966"/>
      </g>
     </g>
    </g>
    <g id="ytick_6">
     <g id="line2d_23">
      <path d="M 58.044375 123.059316 
L 415.164375 123.059316 
" clip-path="url(#p41ebfe094b)" style="fill: none; stroke-dasharray: 1.48,0.64; stroke-dashoffset: 0; stroke: #838383; stroke-opacity: 0.25; stroke-width: 0.4"/>
     </g>
     <g id="line2d_24"/>
     <g id="text_12">
      <!-- 0.05 -->
      <g style="fill: #838383" transform="translate(29.68 127.499316) scale(0.12 -0.12)">
       <use xlink:href="#IBMPlexSans-Regular-30"/>
       <use xlink:href="#IBMPlexSans-Regular-2e" x="59.999985"/>
       <use xlink:href="#IBMPlexSans-Regular-30" x="87.199982"/>
       <use xlink:href="#IBMPlexSans-Regular-35" x="147.199966"/>
      </g>
     </g>
    </g>
    <g id="ytick_7">
     <g id="line2d_25">
      <path d="M 58.044375 90.927213 
L 415.164375 90.927213 
" clip-path="url(#p41ebfe094b)" style="fill: none; stroke-dasharray: 1.48,0.64; stroke-dashoffset: 0; stroke: #838383; stroke-opacity: 0.25; stroke-width: 0.4"/>
     </g>
     <g id="line2d_26"/>
     <g id="text_13">
      <!-- 0.10 -->
      <g style="fill: #838383" transform="translate(29.68 95.367213) scale(0.12 -0.12)">
       <use xlink:href="#IBMPlexSans-Regular-30"/>
       <use xlink:href="#IBMPlexSans-Regular-2e" x="59.999985"/>
       <use xlink:href="#IBMPlexSans-Regular-31" x="87.199982"/>
       <use xlink:href="#IBMPlexSans-Regular-30" x="147.199966"/>
      </g>
     </g>
    </g>
    <g id="ytick_8">
     <g id="line2d_27">
      <path d="M 58.044375 58.79511 
L 415.164375 58.79511 
" clip-path="url(#p41ebfe094b)" style="fill: none; stroke-dasharray: 1.48,0.64; stroke-dashoffset: 0; stroke: #838383; stroke-opacity: 0.25; stroke-width: 0.4"/>
     </g>
     <g id="line2d_28"/>
     <g id="text_14">
      <!-- 0.15 -->
      <g style="fill: #838383" transform="translate(29.68 63.23511) scale(0.12 -0.12)">
       <use xlink:href="#IBMPlexSans-Regular-30"/>
       <use xlink:href="#IBMPlexSans-Regular-2e" x="59.999985"/>
       <use xlink:href="#IBMPlexSans-Regular-31" x="87.199982"/>
       <use xlink:href="#IBMPlexSans-Regular-35" x="147.199966"/>
      </g>
     </g>
    </g>
    <g id="ytick_9">
     <g id="line2d_29">
      <path d="M 58.044375 26.663007 
L 415.164375 26.663007 
" clip-path="url(#p41ebfe094b)" style="fill: none; stroke-dasharray: 1.48,0.64; stroke-dashoffset: 0; stroke: #838383; stroke-opacity: 0.25; stroke-width: 0.4"/>
     </g>
     <g id="line2d_30"/>
     <g id="text_15">
      <!-- 0.20 -->
      <g style="fill: #838383" transform="translate(29.68 31.103007) scale(0.12 -0.12)">
       <use xlink:href="#IBMPlexSans-Regular-30"/>
       <use xlink:href="#IBMPlexSans-Regular-2e" x="59.999985"/>
       <use xlink:href="#IBMPlexSans-Regular-32" x="87.199982"/>
       <use xlink:href="#IBMPlexSans-Regular-30" x="147.199966"/>
      </g>
     </g>
    </g>
    <g id="text_16">
     <!-- sldb -->
     <g style="fill: #838383" transform="translate(16.08 168.426375) rotate(-90) scale(0.12 -0.12)">
      <defs>
       <path id="IBMPlexSans-Regular-73" d="M 1536 -77 
Q 1075 -77 764 99 
Q 454 275 230 570 
L 595 864 
Q 787 621 1024 489 
Q 1261 358 1574 358 
Q 1901 358 2083 499 
Q 2266 640 2266 896 
Q 2266 1088 2141 1225 
Q 2016 1363 1690 1414 
L 1427 1453 
Q 1197 1485 1005 1552 
Q 813 1619 669 1731 
Q 525 1843 445 2009 
Q 365 2176 365 2406 
Q 365 2650 454 2832 
Q 544 3014 701 3136 
Q 858 3258 1075 3318 
Q 1293 3379 1542 3379 
Q 1946 3379 2218 3238 
Q 2490 3098 2694 2848 
L 2355 2541 
Q 2246 2694 2035 2819 
Q 1824 2944 1504 2944 
Q 1184 2944 1021 2806 
Q 858 2669 858 2432 
Q 858 2189 1021 2080 
Q 1184 1971 1491 1920 
L 1747 1882 
Q 2298 1798 2528 1564 
Q 2758 1331 2758 954 
Q 2758 474 2432 198 
Q 2106 -77 1536 -77 
z
" transform="scale(0.015625)"/>
       <path id="IBMPlexSans-Regular-6c" d="M 1088 0 
Q 819 0 681 150 
Q 544 301 544 531 
L 544 4736 
L 1056 4736 
L 1056 448 
L 1542 448 
L 1542 0 
L 1088 0 
z
" transform="scale(0.015625)"/>
       <path id="IBMPlexSans-Regular-64" d="M 2656 538 
L 2630 538 
Q 2330 -77 1664 -77 
Q 1357 -77 1107 44 
Q 858 166 682 390 
Q 506 614 413 934 
Q 320 1254 320 1651 
Q 320 2048 413 2368 
Q 506 2688 682 2912 
Q 858 3136 1107 3257 
Q 1357 3379 1664 3379 
Q 2010 3379 2256 3228 
Q 2502 3078 2630 2765 
L 2656 2765 
L 2656 4736 
L 3168 4736 
L 3168 0 
L 2656 0 
L 2656 538 
z
M 1805 384 
Q 1978 384 2134 429 
Q 2291 474 2406 560 
Q 2522 646 2589 771 
Q 2656 896 2656 1056 
L 2656 2285 
Q 2656 2419 2589 2537 
Q 2522 2656 2406 2739 
Q 2291 2822 2134 2870 
Q 1978 2918 1805 2918 
Q 1370 2918 1120 2646 
Q 870 2374 870 1933 
L 870 1370 
Q 870 928 1120 656 
Q 1370 384 1805 384 
z
" transform="scale(0.015625)"/>
       <path id="IBMPlexSans-Regular-62" d="M 544 4736 
L 1056 4736 
L 1056 2765 
L 1082 2765 
Q 1210 3078 1456 3228 
Q 1702 3379 2048 3379 
Q 2355 3379 2604 3257 
Q 2854 3136 3030 2912 
Q 3206 2688 3299 2368 
Q 3392 2048 3392 1651 
Q 3392 1254 3299 934 
Q 3206 614 3030 390 
Q 2854 166 2604 44 
Q 2355 -77 2048 -77 
Q 1376 -77 1082 538 
L 1056 538 
L 1056 0 
L 544 0 
L 544 4736 
z
M 1907 384 
Q 2342 384 2592 656 
Q 2842 928 2842 1370 
L 2842 1933 
Q 2842 2374 2592 2646 
Q 2342 2918 1907 2918 
Q 1734 2918 1577 2870 
Q 1421 2822 1305 2739 
Q 1190 2656 1123 2537 
Q 1056 2419 1056 2285 
L 1056 1056 
Q 1056 896 1123 771 
Q 1190 646 1305 560 
Q 1421 474 1577 429 
Q 1734 384 1907 384 
z
" transform="scale(0.015625)"/>
      </defs>
      <use xlink:href="#IBMPlexSans-Regular-73"/>
      <use xlink:href="#IBMPlexSans-Regular-6c" x="48.699997"/>
      <use xlink:href="#IBMPlexSans-Regular-64" x="75.899994"/>
      <use xlink:href="#IBMPlexSans-Regular-62" x="133.899979"/>
     </g>
    </g>
   </g>
   <g id="line2d_31">
    <path d="M 74.277102 155.191419 
L 398.931648 155.191419 
L 398.931648 155.191419 
" clip-path="url(#p41ebfe094b)" style="fill: none; stroke: #440154; stroke-width: 1.5; stroke-linecap: round"/>
   </g>
   <g id="line2d_32">
    <path d="M 74.277102 155.191419 
L 398.931648 155.191419 
L 398.931648 155.191419 
" clip-path="url(#p41ebfe094b)" style="fill: none; stroke: #31688e; stroke-width: 1.5; stroke-linecap: round"/>
   </g>
   <g id="line2d_33">
    <path d="M 74.277102 76.306386 
L 75.586193 69.363782 
L 76.895284 73.300548 
L 78.204375 113.087506 
L 79.513466 118.975385 
L 80.822557 188.631553 
L 82.131648 146.333252 
L 84.74983 175.709324 
L 86.05892 172.944218 
L 87.368011 144.736225 
L 88.677102 141.209135 
L 89.986193 150.838064 
L 92.604375 195.581109 
L 96.531648 144.30633 
L 97.840739 165.186185 
L 99.14983 205.741384 
L 100.45892 150.216226 
L 101.768011 200.58835 
L 103.077102 124.245049 
L 104.386193 126.796728 
L 105.695284 146.251038 
L 107.004375 146.814883 
L 108.313466 244.954346 
L 109.622557 163.691839 
L 110.931648 183.272674 
L 112.240739 158.828021 
L 114.85892 179.126454 
L 116.168011 152.148674 
L 117.477102 217.824157 
L 118.786193 160.470528 
L 121.404375 261.696655 
L 122.713466 259.948586 
L 124.022557 195.842246 
L 125.331648 232.943908 
L 126.640739 173.510819 
L 127.94983 182.791139 
L 129.25892 181.975025 
L 130.568011 184.735878 
L 131.877102 153.217484 
L 133.186193 178.987157 
L 134.495284 127.894396 
L 138.422557 250.108303 
L 139.731648 157.69705 
L 141.040739 157.034657 
L 142.34983 105.346034 
L 144.968011 136.92175 
L 146.277102 127.371595 
L 147.586193 199.32496 
L 148.895284 106.660291 
L 151.513466 181.224656 
L 152.822557 173.648225 
L 154.131648 193.320708 
L 156.74983 140.821892 
L 158.05892 138.637486 
L 159.368011 106.604464 
L 160.677102 118.178808 
L 161.986193 103.825487 
L 163.295284 49.894049 
L 164.604375 85.038465 
L 165.913466 80.134341 
L 167.222557 138.989226 
L 168.531648 102.447855 
L 169.840739 123.717397 
L 171.14983 179.060083 
L 172.45892 101.56694 
L 173.768011 162.509875 
L 176.386193 117.90544 
L 177.695284 93.11097 
L 179.004375 91.32162 
L 180.313466 35.952 
L 182.931648 134.651778 
L 184.240739 109.625141 
L 185.54983 151.70731 
L 186.85892 131.680305 
L 188.168011 190.041404 
L 189.477102 105.005001 
L 190.786193 129.801141 
L 192.095284 106.004623 
L 193.404375 185.365632 
L 194.713466 154.647282 
L 196.022557 172.949586 
L 197.331648 121.4242 
L 198.640739 110.434244 
L 199.94983 173.589727 
L 201.25892 64.739862 
L 203.877102 122.756979 
L 205.186193 120.154295 
L 206.495284 189.325832 
L 207.804375 119.008264 
L 210.422557 176.788141 
L 211.731648 137.907249 
L 213.040739 174.319357 
L 214.34983 143.475406 
L 215.65892 157.133124 
L 216.968011 145.447689 
L 218.277102 202.586631 
L 219.586193 155.236833 
L 220.895284 160.145161 
L 222.204375 215.524702 
L 223.513466 147.00143 
L 224.822557 140.557842 
L 226.131648 213.658137 
L 230.05892 134.25259 
L 231.368011 112.518558 
L 233.986193 171.644072 
L 236.604375 74.81464 
L 237.913466 83.95947 
L 239.222557 75.552761 
L 240.531648 57.311525 
L 243.14983 71.651063 
L 244.45892 176.186249 
L 245.768011 132.053813 
L 248.386193 254.924359 
L 252.313466 105.277578 
L 253.622557 139.643999 
L 254.931648 201.531368 
L 256.240739 187.292979 
L 257.54983 99.080711 
L 260.168011 236.6101 
L 261.477102 202.152696 
L 262.786193 212.475584 
L 265.404375 191.838144 
L 266.713466 245.663792 
L 268.022557 244.193227 
L 269.331648 205.299739 
L 270.640739 241.10115 
L 271.94983 216.747018 
L 273.25892 224.860361 
L 274.568011 277.872 
L 275.877102 200.852324 
L 277.186193 203.217955 
L 278.495284 253.093961 
L 279.804375 238.266373 
L 281.113466 266.486582 
L 282.422557 228.464299 
L 283.731648 234.897922 
L 285.040739 224.561643 
L 286.34983 234.439653 
L 287.65892 182.716567 
L 288.968011 190.905625 
L 290.277102 245.647472 
L 292.895284 173.588841 
L 295.513466 178.47161 
L 298.131648 99.996229 
L 299.440739 117.480704 
L 302.05892 111.331056 
L 303.368011 143.127764 
L 305.986193 69.567951 
L 307.295284 128.748599 
L 308.604375 121.876785 
L 311.222557 148.483363 
L 312.531648 145.445382 
L 313.840739 176.998054 
L 315.14983 156.770386 
L 316.45892 165.459052 
L 317.768011 218.463914 
L 320.386193 190.631926 
L 321.695284 208.74357 
L 324.313466 186.281087 
L 326.931648 145.15381 
L 328.240739 131.654151 
L 329.54983 150.792993 
L 332.168011 241.145589 
L 334.786193 268.069559 
L 336.095284 215.364783 
L 337.404375 213.696955 
L 338.713466 237.543788 
L 341.331648 198.9939 
L 342.640739 185.288396 
L 343.94983 217.602268 
L 345.25892 201.563513 
L 346.568011 160.895185 
L 347.877102 219.910989 
L 349.186193 223.644533 
L 350.495284 256.504701 
L 351.804375 201.026768 
L 353.113466 254.515161 
L 354.422557 189.62756 
L 357.040739 235.177583 
L 358.34983 213.218021 
L 359.65892 150.606306 
L 360.968011 150.425272 
L 364.895284 128.15387 
L 366.204375 109.971985 
L 367.513466 164.078989 
L 368.822557 161.186453 
L 370.131648 163.990387 
L 371.440739 172.516111 
L 372.74983 168.499357 
L 374.05892 196.178437 
L 375.368011 178.280279 
L 379.295284 235.489613 
L 381.913466 269.603822 
L 383.222557 242.173267 
L 384.531648 188.459466 
L 385.840739 191.118707 
L 387.14983 238.8816 
L 388.45892 191.921874 
L 389.768011 227.250764 
L 391.077102 209.004336 
L 392.386193 207.456413 
L 395.004375 253.476471 
L 396.313466 210.416207 
L 397.622557 261.631495 
L 398.931648 156.607043 
L 398.931648 156.607043 
" clip-path="url(#p41ebfe094b)" style="fill: none; stroke: #35b779; stroke-width: 1.5; stroke-linecap: round"/>
   </g>
   <g id="patch_3">
    <path d="M 58.044375 289.968 
L 58.044375 23.856 
" style="fill: none"/>
   </g>
   <g id="patch_4">
    <path d="M 415.164375 289.968 
L 415.164375 23.856 
" style="fill: none"/>
   </g>
   <g id="patch_5">
    <path d="M 58.044375 289.968 
L 415.164375 289.968 
" style="fill: none"/>
   </g>
   <g id="patch_6">
    <path d="M 58.044375 23.856 
L 415.164375 23.856 
" style="fill: none"/>
   </g>
   <g id="text_17">
    <!-- Evaluate -->
    <g style="fill: #838383" transform="translate(208.645875 17.856) scale(0.144 -0.144)">
     <defs>
      <path id="IBMPlexSans-Regular-45" d="M 595 0 
L 595 4467 
L 3322 4467 
L 3322 3994 
L 1133 3994 
L 1133 2496 
L 3194 2496 
L 3194 2022 
L 1133 2022 
L 1133 474 
L 3322 474 
L 3322 0 
L 595 0 
z
" transform="scale(0.015625)"/>
      <path id="IBMPlexSans-Regular-76" d="M 1274 0 
L 115 3302 
L 627 3302 
L 1203 1664 
L 1562 538 
L 1594 538 
L 1952 1664 
L 2541 3302 
L 3034 3302 
L 1869 0 
L 1274 0 
z
" transform="scale(0.015625)"/>
      <path id="IBMPlexSans-Regular-61" d="M 2944 0 
Q 2656 0 2531 153 
Q 2406 307 2374 538 
L 2342 538 
Q 2234 230 1984 76 
Q 1734 -77 1389 -77 
Q 864 -77 573 192 
Q 282 461 282 922 
Q 282 1389 624 1638 
Q 966 1888 1690 1888 
L 2342 1888 
L 2342 2214 
Q 2342 2566 2150 2752 
Q 1958 2938 1562 2938 
Q 1261 2938 1059 2803 
Q 858 2669 723 2445 
L 416 2733 
Q 550 3002 844 3190 
Q 1139 3379 1587 3379 
Q 2189 3379 2521 3084 
Q 2854 2790 2854 2266 
L 2854 448 
L 3232 448 
L 3232 0 
L 2944 0 
z
M 1472 358 
Q 1664 358 1824 403 
Q 1984 448 2099 531 
Q 2214 614 2278 723 
Q 2342 832 2342 960 
L 2342 1504 
L 1664 1504 
Q 1222 1504 1020 1376 
Q 819 1248 819 1005 
L 819 870 
Q 819 627 995 492 
Q 1171 358 1472 358 
z
" transform="scale(0.015625)"/>
      <path id="IBMPlexSans-Regular-75" d="M 2579 538 
L 2554 538 
Q 2502 422 2428 310 
Q 2355 198 2246 112 
Q 2138 26 1984 -25 
Q 1830 -77 1626 -77 
Q 1114 -77 813 252 
Q 512 582 512 1184 
L 512 3302 
L 1024 3302 
L 1024 1274 
Q 1024 384 1779 384 
Q 1933 384 2077 422 
Q 2221 461 2333 537 
Q 2445 614 2512 732 
Q 2579 851 2579 1018 
L 2579 3302 
L 3091 3302 
L 3091 0 
L 2579 0 
L 2579 538 
z
" transform="scale(0.015625)"/>
      <path id="IBMPlexSans-Regular-74" d="M 1274 0 
Q 1005 0 867 150 
Q 730 301 730 544 
L 730 2854 
L 186 2854 
L 186 3302 
L 493 3302 
Q 659 3302 720 3369 
Q 781 3437 781 3603 
L 781 4218 
L 1242 4218 
L 1242 3302 
L 1965 3302 
L 1965 2854 
L 1242 2854 
L 1242 448 
L 1914 448 
L 1914 0 
L 1274 0 
z
" transform="scale(0.015625)"/>
      <path id="IBMPlexSans-Regular-65" d="M 1786 -77 
Q 1446 -77 1174 44 
Q 902 166 707 393 
Q 512 621 406 937 
Q 301 1254 301 1651 
Q 301 2042 406 2362 
Q 512 2682 707 2909 
Q 902 3136 1174 3257 
Q 1446 3379 1786 3379 
Q 2118 3379 2380 3257 
Q 2643 3136 2828 2921 
Q 3014 2707 3113 2412 
Q 3213 2118 3213 1766 
L 3213 1523 
L 838 1523 
L 838 1370 
Q 838 1158 905 976 
Q 973 794 1097 659 
Q 1222 525 1404 448 
Q 1587 371 1818 371 
Q 2131 371 2364 518 
Q 2598 666 2726 941 
L 3091 678 
Q 2931 339 2592 131 
Q 2253 -77 1786 -77 
z
M 1786 2950 
Q 1574 2950 1401 2876 
Q 1229 2803 1104 2668 
Q 979 2534 908 2352 
Q 838 2170 838 1952 
L 838 1907 
L 2662 1907 
L 2662 1978 
Q 2662 2419 2422 2684 
Q 2182 2950 1786 2950 
z
" transform="scale(0.015625)"/>
     </defs>
     <use xlink:href="#IBMPlexSans-Regular-45"/>
     <use xlink:href="#IBMPlexSans-Regular-76" x="58.299988"/>
     <use xlink:href="#IBMPlexSans-Regular-61" x="107.499985"/>
     <use xlink:href="#IBMPlexSans-Regular-6c" x="160.899979"/>
     <use xlink:href="#IBMPlexSans-Regular-75" x="188.099976"/>
     <use xlink:href="#IBMPlexSans-Regular-61" x="244.899963"/>
     <use xlink:href="#IBMPlexSans-Regular-74" x="298.299957"/>
     <use xlink:href="#IBMPlexSans-Regular-65" x="333.399948"/>
    </g>
   </g>
  </g>
 </g>
 <defs>
  <clipPath id="p41ebfe094b">
   <rect x="58.044375" y="23.856" width="357.12" height="266.112"/>
  </clipPath>
 </defs>
</svg>
