<?xml version="1.0" encoding="utf-8" standalone="no"?>
<!DOCTYPE svg PUBLIC "-//W3C//DTD SVG 1.1//EN"
  "http://www.w3.org/Graphics/SVG/1.1/DTD/svg11.dtd">
<svg xmlns:xlink="http://www.w3.org/1999/xlink" width="411.9pt" height="311.948pt" viewBox="0 0 411.9 311.948" xmlns="http://www.w3.org/2000/svg" version="1.1">
 <metadata>
  <rdf:RDF xmlns:dc="http://purl.org/dc/elements/1.1/" xmlns:cc="http://creativecommons.org/ns#" xmlns:rdf="http://www.w3.org/1999/02/22-rdf-syntax-ns#">
   <cc:Work>
    <dc:type rdf:resource="http://purl.org/dc/dcmitype/StillImage"/>
    <dc:date>2024-07-04T21:21:22.983161</dc:date>
    <dc:format>image/svg+xml</dc:format>
    <dc:creator>
     <cc:Agent>
      <dc:title>Matplotlib v3.8.4, https://matplotlib.org/</dc:title>
     </cc:Agent>
    </dc:creator>
   </cc:Work>
  </rdf:RDF>
 </metadata>
 <defs>
  <style type="text/css">*{stroke-linejoin: round; stroke-linecap: butt}</style>
 </defs>
 <g id="figure_1">
  <g id="patch_1">
   <path d="M 0 311.948 
L 411.9 311.948 
L 411.9 0 
L 0 0 
L 0 311.948 
z
" style="fill: none"/>
  </g>
  <g id="axes_1">
   <g id="patch_2">
    <path d="M 47.58 289.968 
L 404.7 289.968 
L 404.7 23.856 
L 47.58 23.856 
L 47.58 289.968 
z
" style="fill: none"/>
   </g>
   <g id="matplotlib.axis_1">
    <g id="xtick_1">
     <g id="line2d_1">
      <path d="M 63.812727 289.968 
L 63.812727 23.856 
" clip-path="url(#pc2c72e39d2)" style="fill: none; stroke-dasharray: 1.48,0.64; stroke-dashoffset: 0; stroke: #838383; stroke-opacity: 0.25; stroke-width: 0.4"/>
     </g>
     <g id="line2d_2"/>
     <g id="text_1">
      <!-- 0 -->
      <g style="fill: #838383" transform="translate(60.212727 302.348) scale(0.12 -0.12)">
       <defs>
        <path id="IBMPlexSans-Regular-30" d="M 1920 -77 
Q 1120 -77 752 531 
Q 384 1139 384 2234 
Q 384 3328 752 3936 
Q 1120 4544 1920 4544 
Q 2720 4544 3088 3936 
Q 3456 3328 3456 2234 
Q 3456 1139 3088 531 
Q 2720 -77 1920 -77 
z
M 1920 390 
Q 2182 390 2368 499 
Q 2554 608 2669 806 
Q 2784 1005 2838 1273 
Q 2893 1542 2893 1869 
L 2893 2598 
Q 2893 2925 2838 3193 
Q 2784 3462 2669 3660 
Q 2554 3859 2368 3968 
Q 2182 4077 1920 4077 
Q 1658 4077 1472 3968 
Q 1286 3859 1171 3660 
Q 1056 3462 1001 3193 
Q 947 2925 947 2598 
L 947 1869 
Q 947 1542 1001 1273 
Q 1056 1005 1171 806 
Q 1286 608 1472 499 
Q 1658 390 1920 390 
z
" transform="scale(0.015625)"/>
       </defs>
       <use xlink:href="#IBMPlexSans-Regular-30"/>
      </g>
     </g>
    </g>
    <g id="xtick_2">
     <g id="line2d_3">
      <path d="M 129.267273 289.968 
L 129.267273 23.856 
" clip-path="url(#pc2c72e39d2)" style="fill: none; stroke-dasharray: 1.48,0.64; stroke-dashoffset: 0; stroke: #838383; stroke-opacity: 0.25; stroke-width: 0.4"/>
     </g>
     <g id="line2d_4"/>
     <g id="text_2">
      <!-- 50 -->
      <g style="fill: #838383" transform="translate(122.067273 302.348) scale(0.12 -0.12)">
       <defs>
        <path id="IBMPlexSans-Regular-35" d="M 3187 3994 
L 1229 3994 
L 1101 2291 
L 1146 2291 
Q 1306 2515 1507 2649 
Q 1709 2784 2061 2784 
Q 2349 2784 2592 2688 
Q 2835 2592 3014 2416 
Q 3194 2240 3293 1984 
Q 3392 1728 3392 1402 
Q 3392 1075 3289 803 
Q 3187 531 2992 336 
Q 2797 141 2518 32 
Q 2240 -77 1888 -77 
Q 1606 -77 1392 -13 
Q 1178 51 1011 160 
Q 845 269 720 403 
Q 595 538 493 685 
L 896 992 
Q 979 858 1072 749 
Q 1165 640 1277 563 
Q 1389 486 1536 444 
Q 1683 403 1888 403 
Q 2349 403 2585 646 
Q 2822 890 2822 1331 
L 2822 1395 
Q 2822 1837 2585 2080 
Q 2349 2323 1888 2323 
Q 1581 2323 1405 2211 
Q 1229 2099 1088 1946 
L 634 2010 
L 794 4467 
L 3187 4467 
L 3187 3994 
z
" transform="scale(0.015625)"/>
       </defs>
       <use xlink:href="#IBMPlexSans-Regular-35"/>
       <use xlink:href="#IBMPlexSans-Regular-30" x="59.999985"/>
      </g>
     </g>
    </g>
    <g id="xtick_3">
     <g id="line2d_5">
      <path d="M 194.721818 289.968 
L 194.721818 23.856 
" clip-path="url(#pc2c72e39d2)" style="fill: none; stroke-dasharray: 1.48,0.64; stroke-dashoffset: 0; stroke: #838383; stroke-opacity: 0.25; stroke-width: 0.4"/>
     </g>
     <g id="line2d_6"/>
     <g id="text_3">
      <!-- 100 -->
      <g style="fill: #838383" transform="translate(183.921818 302.348) scale(0.12 -0.12)">
       <defs>
        <path id="IBMPlexSans-Regular-31" d="M 563 0 
L 563 474 
L 1811 474 
L 1811 4070 
L 1766 4070 
L 640 3021 
L 326 3360 
L 1510 4467 
L 2349 4467 
L 2349 474 
L 3501 474 
L 3501 0 
L 563 0 
z
" transform="scale(0.015625)"/>
       </defs>
       <use xlink:href="#IBMPlexSans-Regular-31"/>
       <use xlink:href="#IBMPlexSans-Regular-30" x="59.999985"/>
       <use xlink:href="#IBMPlexSans-Regular-30" x="119.999969"/>
      </g>
     </g>
    </g>
    <g id="xtick_4">
     <g id="line2d_7">
      <path d="M 260.176364 289.968 
L 260.176364 23.856 
" clip-path="url(#pc2c72e39d2)" style="fill: none; stroke-dasharray: 1.48,0.64; stroke-dashoffset: 0; stroke: #838383; stroke-opacity: 0.25; stroke-width: 0.4"/>
     </g>
     <g id="line2d_8"/>
     <g id="text_4">
      <!-- 150 -->
      <g style="fill: #838383" transform="translate(249.376364 302.348) scale(0.12 -0.12)">
       <use xlink:href="#IBMPlexSans-Regular-31"/>
       <use xlink:href="#IBMPlexSans-Regular-35" x="59.999985"/>
       <use xlink:href="#IBMPlexSans-Regular-30" x="119.999969"/>
      </g>
     </g>
    </g>
    <g id="xtick_5">
     <g id="line2d_9">
      <path d="M 325.630909 289.968 
L 325.630909 23.856 
" clip-path="url(#pc2c72e39d2)" style="fill: none; stroke-dasharray: 1.48,0.64; stroke-dashoffset: 0; stroke: #838383; stroke-opacity: 0.25; stroke-width: 0.4"/>
     </g>
     <g id="line2d_10"/>
     <g id="text_5">
      <!-- 200 -->
      <g style="fill: #838383" transform="translate(314.830909 302.348) scale(0.12 -0.12)">
       <defs>
        <path id="IBMPlexSans-Regular-32" d="M 3411 0 
L 480 0 
L 480 550 
L 1939 1894 
Q 2253 2182 2464 2505 
Q 2675 2829 2675 3155 
L 2675 3232 
Q 2675 3603 2470 3833 
Q 2266 4064 1850 4064 
Q 1645 4064 1491 4006 
Q 1338 3949 1226 3846 
Q 1114 3744 1040 3606 
Q 966 3469 922 3309 
L 442 3494 
Q 506 3693 618 3881 
Q 730 4070 899 4217 
Q 1069 4365 1309 4454 
Q 1549 4544 1875 4544 
Q 2202 4544 2458 4448 
Q 2714 4352 2886 4179 
Q 3059 4006 3152 3769 
Q 3245 3533 3245 3245 
Q 3245 2982 3171 2758 
Q 3098 2534 2970 2332 
Q 2842 2131 2659 1939 
Q 2477 1747 2266 1555 
L 1062 474 
L 3411 474 
L 3411 0 
z
" transform="scale(0.015625)"/>
       </defs>
       <use xlink:href="#IBMPlexSans-Regular-32"/>
       <use xlink:href="#IBMPlexSans-Regular-30" x="59.999985"/>
       <use xlink:href="#IBMPlexSans-Regular-30" x="119.999969"/>
      </g>
     </g>
    </g>
    <g id="xtick_6">
     <g id="line2d_11">
      <path d="M 391.085455 289.968 
L 391.085455 23.856 
" clip-path="url(#pc2c72e39d2)" style="fill: none; stroke-dasharray: 1.48,0.64; stroke-dashoffset: 0; stroke: #838383; stroke-opacity: 0.25; stroke-width: 0.4"/>
     </g>
     <g id="line2d_12"/>
     <g id="text_6">
      <!-- 250 -->
      <g style="fill: #838383" transform="translate(380.285455 302.348) scale(0.12 -0.12)">
       <use xlink:href="#IBMPlexSans-Regular-32"/>
       <use xlink:href="#IBMPlexSans-Regular-35" x="59.999985"/>
       <use xlink:href="#IBMPlexSans-Regular-30" x="119.999969"/>
      </g>
     </g>
    </g>
   </g>
   <g id="matplotlib.axis_2">
    <g id="ytick_1">
     <g id="line2d_13">
      <path d="M 47.58 247.828344 
L 404.7 247.828344 
" clip-path="url(#pc2c72e39d2)" style="fill: none; stroke-dasharray: 1.48,0.64; stroke-dashoffset: 0; stroke: #838383; stroke-opacity: 0.25; stroke-width: 0.4"/>
     </g>
     <g id="line2d_14"/>
     <g id="text_7">
      <!-- −30 -->
      <g style="fill: #838383" transform="translate(22.48 252.268344) scale(0.12 -0.12)">
       <defs>
        <path id="IBMPlexSans-Regular-2212" d="M 429 1734 
L 429 2170 
L 3411 2170 
L 3411 1734 
L 429 1734 
z
" transform="scale(0.015625)"/>
        <path id="IBMPlexSans-Regular-33" d="M 1670 2573 
Q 2125 2573 2352 2781 
Q 2579 2989 2579 3315 
L 2579 3360 
Q 2579 3712 2358 3888 
Q 2138 4064 1779 4064 
Q 1434 4064 1216 3913 
Q 998 3763 858 3507 
L 461 3814 
Q 544 3949 662 4080 
Q 781 4211 941 4313 
Q 1101 4416 1312 4480 
Q 1523 4544 1792 4544 
Q 2074 4544 2323 4470 
Q 2573 4397 2755 4253 
Q 2938 4109 3043 3897 
Q 3149 3686 3149 3418 
Q 3149 3200 3081 3027 
Q 3014 2854 2899 2726 
Q 2784 2598 2627 2508 
Q 2470 2419 2291 2374 
L 2291 2349 
Q 2470 2310 2640 2224 
Q 2810 2138 2941 2000 
Q 3072 1862 3152 1667 
Q 3232 1472 3232 1222 
Q 3232 934 3123 694 
Q 3014 454 2816 284 
Q 2618 115 2336 19 
Q 2054 -77 1715 -77 
Q 1427 -77 1203 -13 
Q 979 51 806 160 
Q 634 269 502 403 
Q 371 538 269 685 
L 672 992 
Q 755 858 854 749 
Q 954 640 1075 563 
Q 1197 486 1350 444 
Q 1504 403 1709 403 
Q 2182 403 2425 617 
Q 2669 832 2669 1229 
L 2669 1280 
Q 2669 1677 2425 1891 
Q 2182 2106 1709 2106 
L 1184 2106 
L 1184 2573 
L 1670 2573 
z
" transform="scale(0.015625)"/>
       </defs>
       <use xlink:href="#IBMPlexSans-Regular-2212"/>
       <use xlink:href="#IBMPlexSans-Regular-33" x="59.999985"/>
       <use xlink:href="#IBMPlexSans-Regular-30" x="119.999969"/>
      </g>
     </g>
    </g>
    <g id="ytick_2">
     <g id="line2d_15">
      <path d="M 47.58 202.750771 
L 404.7 202.750771 
" clip-path="url(#pc2c72e39d2)" style="fill: none; stroke-dasharray: 1.48,0.64; stroke-dashoffset: 0; stroke: #838383; stroke-opacity: 0.25; stroke-width: 0.4"/>
     </g>
     <g id="line2d_16"/>
     <g id="text_8">
      <!-- −25 -->
      <g style="fill: #838383" transform="translate(22.48 207.190771) scale(0.12 -0.12)">
       <use xlink:href="#IBMPlexSans-Regular-2212"/>
       <use xlink:href="#IBMPlexSans-Regular-32" x="59.999985"/>
       <use xlink:href="#IBMPlexSans-Regular-35" x="119.999969"/>
      </g>
     </g>
    </g>
    <g id="ytick_3">
     <g id="line2d_17">
      <path d="M 47.58 157.673198 
L 404.7 157.673198 
" clip-path="url(#pc2c72e39d2)" style="fill: none; stroke-dasharray: 1.48,0.64; stroke-dashoffset: 0; stroke: #838383; stroke-opacity: 0.25; stroke-width: 0.4"/>
     </g>
     <g id="line2d_18"/>
     <g id="text_9">
      <!-- −20 -->
      <g style="fill: #838383" transform="translate(22.48 162.113198) scale(0.12 -0.12)">
       <use xlink:href="#IBMPlexSans-Regular-2212"/>
       <use xlink:href="#IBMPlexSans-Regular-32" x="59.999985"/>
       <use xlink:href="#IBMPlexSans-Regular-30" x="119.999969"/>
      </g>
     </g>
    </g>
    <g id="ytick_4">
     <g id="line2d_19">
      <path d="M 47.58 112.595624 
L 404.7 112.595624 
" clip-path="url(#pc2c72e39d2)" style="fill: none; stroke-dasharray: 1.48,0.64; stroke-dashoffset: 0; stroke: #838383; stroke-opacity: 0.25; stroke-width: 0.4"/>
     </g>
     <g id="line2d_20"/>
     <g id="text_10">
      <!-- −15 -->
      <g style="fill: #838383" transform="translate(22.48 117.035624) scale(0.12 -0.12)">
       <use xlink:href="#IBMPlexSans-Regular-2212"/>
       <use xlink:href="#IBMPlexSans-Regular-31" x="59.999985"/>
       <use xlink:href="#IBMPlexSans-Regular-35" x="119.999969"/>
      </g>
     </g>
    </g>
    <g id="ytick_5">
     <g id="line2d_21">
      <path d="M 47.58 67.518051 
L 404.7 67.518051 
" clip-path="url(#pc2c72e39d2)" style="fill: none; stroke-dasharray: 1.48,0.64; stroke-dashoffset: 0; stroke: #838383; stroke-opacity: 0.25; stroke-width: 0.4"/>
     </g>
     <g id="line2d_22"/>
     <g id="text_11">
      <!-- −10 -->
      <g style="fill: #838383" transform="translate(22.48 71.958051) scale(0.12 -0.12)">
       <use xlink:href="#IBMPlexSans-Regular-2212"/>
       <use xlink:href="#IBMPlexSans-Regular-31" x="59.999985"/>
       <use xlink:href="#IBMPlexSans-Regular-30" x="119.999969"/>
      </g>
     </g>
    </g>
    <g id="text_12">
     <!-- energy -->
     <g style="fill: #838383" transform="translate(15.935625 175.272937) rotate(-90) scale(0.12 -0.12)">
      <defs>
       <path id="IBMPlexSans-Regular-65" d="M 1786 -77 
Q 1446 -77 1174 44 
Q 902 166 707 393 
Q 512 621 406 937 
Q 301 1254 301 1651 
Q 301 2042 406 2362 
Q 512 2682 707 2909 
Q 902 3136 1174 3257 
Q 1446 3379 1786 3379 
Q 2118 3379 2380 3257 
Q 2643 3136 2828 2921 
Q 3014 2707 3113 2412 
Q 3213 2118 3213 1766 
L 3213 1523 
L 838 1523 
L 838 1370 
Q 838 1158 905 976 
Q 973 794 1097 659 
Q 1222 525 1404 448 
Q 1587 371 1818 371 
Q 2131 371 2364 518 
Q 2598 666 2726 941 
L 3091 678 
Q 2931 339 2592 131 
Q 2253 -77 1786 -77 
z
M 1786 2950 
Q 1574 2950 1401 2876 
Q 1229 2803 1104 2668 
Q 979 2534 908 2352 
Q 838 2170 838 1952 
L 838 1907 
L 2662 1907 
L 2662 1978 
Q 2662 2419 2422 2684 
Q 2182 2950 1786 2950 
z
" transform="scale(0.015625)"/>
       <path id="IBMPlexSans-Regular-6e" d="M 544 0 
L 544 3302 
L 1056 3302 
L 1056 2765 
L 1082 2765 
Q 1203 3046 1424 3212 
Q 1645 3379 2016 3379 
Q 2528 3379 2825 3049 
Q 3123 2720 3123 2118 
L 3123 0 
L 2611 0 
L 2611 2029 
Q 2611 2918 1862 2918 
Q 1709 2918 1565 2880 
Q 1421 2842 1305 2765 
Q 1190 2688 1123 2569 
Q 1056 2451 1056 2291 
L 1056 0 
L 544 0 
z
" transform="scale(0.015625)"/>
       <path id="IBMPlexSans-Regular-72" d="M 544 0 
L 544 3302 
L 1056 3302 
L 1056 2694 
L 1088 2694 
Q 1178 2931 1408 3116 
Q 1638 3302 2042 3302 
L 2240 3302 
L 2240 2790 
L 1939 2790 
Q 1523 2790 1289 2633 
Q 1056 2477 1056 2240 
L 1056 0 
L 544 0 
z
" transform="scale(0.015625)"/>
       <path id="IBMPlexSans-Regular-67" d="M 3328 -365 
Q 3328 -877 2928 -1117 
Q 2528 -1357 1728 -1357 
Q 954 -1357 614 -1145 
Q 275 -934 275 -544 
Q 275 -275 416 -124 
Q 557 26 800 96 
L 800 166 
Q 506 307 506 627 
Q 506 877 666 1008 
Q 826 1139 1075 1203 
L 1075 1229 
Q 781 1370 617 1632 
Q 454 1894 454 2240 
Q 454 2490 544 2701 
Q 634 2912 797 3062 
Q 960 3213 1187 3296 
Q 1414 3379 1696 3379 
Q 2048 3379 2323 3251 
L 2323 3309 
Q 2323 3501 2412 3625 
Q 2502 3750 2707 3750 
L 3200 3750 
L 3200 3302 
L 2573 3302 
L 2573 3091 
Q 2752 2938 2851 2723 
Q 2950 2509 2950 2240 
Q 2950 1990 2860 1779 
Q 2771 1568 2608 1417 
Q 2445 1267 2214 1184 
Q 1984 1101 1702 1101 
Q 1542 1101 1382 1133 
Q 1216 1088 1081 1001 
Q 947 915 947 762 
Q 947 614 1088 563 
Q 1229 512 1453 512 
L 2157 512 
Q 2771 512 3049 278 
Q 3328 45 3328 -365 
z
M 2848 -403 
Q 2848 -205 2697 -86 
Q 2547 32 2163 32 
L 1062 32 
Q 755 -109 755 -416 
Q 755 -634 918 -787 
Q 1082 -941 1472 -941 
L 1946 -941 
Q 2374 -941 2611 -806 
Q 2848 -672 2848 -403 
z
M 1702 1510 
Q 2029 1510 2221 1667 
Q 2413 1824 2413 2150 
L 2413 2330 
Q 2413 2656 2221 2813 
Q 2029 2970 1702 2970 
Q 1376 2970 1184 2813 
Q 992 2656 992 2330 
L 992 2150 
Q 992 1824 1184 1667 
Q 1376 1510 1702 1510 
z
" transform="scale(0.015625)"/>
       <path id="IBMPlexSans-Regular-79" d="M 2579 3302 
L 3085 3302 
L 1606 -768 
Q 1549 -915 1491 -1014 
Q 1434 -1114 1350 -1171 
Q 1267 -1229 1142 -1254 
Q 1018 -1280 838 -1280 
L 576 -1280 
L 576 -832 
L 1094 -832 
L 1344 -128 
L 109 3302 
L 621 3302 
L 1414 1056 
L 1568 518 
L 1600 518 
L 1779 1056 
L 2579 3302 
z
" transform="scale(0.015625)"/>
      </defs>
      <use xlink:href="#IBMPlexSans-Regular-65"/>
      <use xlink:href="#IBMPlexSans-Regular-6e" x="54.899994"/>
      <use xlink:href="#IBMPlexSans-Regular-65" x="111.699982"/>
      <use xlink:href="#IBMPlexSans-Regular-72" x="166.599976"/>
      <use xlink:href="#IBMPlexSans-Regular-67" x="203.299973"/>
      <use xlink:href="#IBMPlexSans-Regular-79" x="256.09996"/>
     </g>
    </g>
   </g>
   <g id="line2d_23">
    <path d="M 63.812727 41.8858 
L 66.430909 135.727264 
L 67.74 119.269993 
L 69.049091 185.792024 
L 70.358182 176.10614 
L 71.667273 193.331286 
L 72.976364 178.77877 
L 74.285455 185.031043 
L 75.594545 227.103091 
L 76.903636 215.503509 
L 78.212727 178.312139 
L 79.521818 185.062757 
L 80.830909 209.429327 
L 82.14 176.907471 
L 84.758182 238.532991 
L 86.067273 209.831295 
L 87.376364 226.584243 
L 88.685455 212.201766 
L 89.994545 260.218715 
L 91.303636 205.837094 
L 92.612727 226.731711 
L 93.921818 223.912672 
L 95.230909 214.503954 
L 96.54 223.511326 
L 97.849091 240.245561 
L 99.158182 222.856422 
L 100.467273 255.995722 
L 103.085455 218.949061 
L 104.394545 212.452279 
L 105.703636 188.316008 
L 107.012727 229.691754 
L 108.321818 207.3503 
L 109.630909 259.375869 
L 110.94 227.774349 
L 113.558182 259.353408 
L 114.867273 256.822457 
L 116.176364 200.119522 
L 117.485455 200.442556 
L 118.794545 196.691745 
L 122.721818 255.72898 
L 124.030909 252.271609 
L 125.34 252.635832 
L 127.958182 194.89539 
L 130.576364 237.354017 
L 131.885455 233.406122 
L 133.194545 254.016995 
L 134.503636 258.313157 
L 137.121818 228.914864 
L 138.430909 232.181015 
L 139.74 226.704488 
L 141.049091 212.266016 
L 143.667273 227.701821 
L 144.976364 187.864101 
L 148.903636 228.707148 
L 150.212727 223.268013 
L 151.521818 241.75602 
L 152.830909 216.665598 
L 154.14 224.593247 
L 155.449091 224.384033 
L 156.758182 208.209845 
L 158.067273 236.933438 
L 159.376364 219.672005 
L 160.685455 219.634746 
L 161.994545 229.965846 
L 163.303636 222.555923 
L 164.612727 194.542506 
L 165.921818 247.387538 
L 167.230909 237.235692 
L 168.54 196.916882 
L 169.849091 234.171072 
L 171.158182 207.36241 
L 172.467273 231.0723 
L 173.776364 236.055965 
L 175.085455 216.075637 
L 176.394545 261.531268 
L 177.703636 222.07574 
L 179.012727 216.604825 
L 180.321818 250.037047 
L 182.94 214.99746 
L 184.249091 229.771602 
L 185.558182 277.872 
L 188.176364 226.308406 
L 189.485455 221.272891 
L 190.794545 231.282463 
L 192.103636 218.863869 
L 193.412727 245.436241 
L 194.721818 199.989404 
L 196.030909 206.232554 
L 197.34 232.999137 
L 198.649091 221.516508 
L 201.267273 275.779679 
L 202.576364 218.570899 
L 203.885455 231.908982 
L 205.194545 232.609408 
L 206.503636 248.025559 
L 207.812727 225.5931 
L 209.121818 226.813354 
L 210.430909 222.739442 
L 211.74 241.885096 
L 213.049091 243.752199 
L 214.358182 258.458556 
L 216.976364 199.322978 
L 218.285455 196.009496 
L 219.594545 155.587789 
L 220.903636 182.243167 
L 222.212727 172.522005 
L 223.521818 216.048043 
L 224.830909 222.337773 
L 226.14 181.165229 
L 227.449091 232.470563 
L 228.758182 226.282032 
L 230.067273 228.205934 
L 231.376364 193.339201 
L 233.994545 224.579277 
L 235.303636 177.580171 
L 236.612727 222.558494 
L 237.921818 199.343677 
L 239.230909 200.995897 
L 240.54 233.660609 
L 241.849091 216.029917 
L 243.158182 218.052919 
L 244.467273 242.379949 
L 245.776364 227.682053 
L 247.085455 224.769465 
L 249.703636 240.213396 
L 251.012727 236.027963 
L 252.321818 224.337433 
L 253.630909 251.251892 
L 254.94 231.917862 
L 256.249091 243.153082 
L 258.867273 161.848806 
L 260.176364 217.89857 
L 261.485455 198.228451 
L 262.794545 241.965142 
L 264.103636 190.433839 
L 266.721818 238.995072 
L 268.030909 194.52677 
L 270.649091 229.205079 
L 273.267273 209.792171 
L 274.576364 209.555922 
L 275.885455 205.617915 
L 277.194545 212.415559 
L 278.503636 204.858125 
L 279.812727 190.269512 
L 282.430909 239.247836 
L 283.74 218.759311 
L 285.049091 236.177029 
L 286.358182 223.472464 
L 287.667273 225.616901 
L 291.594545 252.823553 
L 292.903636 198.20953 
L 294.212727 240.209218 
L 295.521818 234.36068 
L 296.830909 197.601257 
L 298.14 249.276843 
L 299.449091 245.096918 
L 300.758182 227.880568 
L 302.067273 238.006342 
L 304.685455 212.064658 
L 305.994545 237.073262 
L 308.612727 221.159753 
L 309.921818 266.5383 
L 311.230909 200.959785 
L 313.849091 187.934025 
L 315.158182 231.566366 
L 316.467273 224.124817 
L 317.776364 241.561991 
L 319.085455 230.252791 
L 320.394545 265.672149 
L 321.703636 186.516924 
L 323.012727 195.342966 
L 324.321818 235.847612 
L 325.630909 217.598657 
L 326.94 240.011148 
L 328.249091 219.643309 
L 329.558182 239.897935 
L 333.485455 180.560504 
L 334.794545 213.758977 
L 336.103636 219.591769 
L 337.412727 203.588072 
L 338.721818 217.266131 
L 340.030909 251.870318 
L 341.34 250.604812 
L 342.649091 252.650946 
L 346.576364 212.616064 
L 347.885455 210.087849 
L 349.194545 195.489522 
L 350.503636 226.777407 
L 351.812727 217.408413 
L 353.121818 227.317269 
L 355.74 168.074595 
L 357.049091 198.767606 
L 358.358182 195.320502 
L 359.667273 247.281659 
L 360.976364 229.230062 
L 362.285455 235.861103 
L 363.594545 212.092716 
L 364.903636 228.913357 
L 368.830909 159.962381 
L 370.14 198.057046 
L 371.449091 186.401787 
L 372.758182 221.860593 
L 374.067273 205.829789 
L 375.376364 212.485926 
L 377.994545 170.846385 
L 380.612727 217.996491 
L 381.921818 197.541631 
L 383.230909 231.09274 
L 385.849091 195.565294 
L 387.158182 215.513301 
L 388.467273 183.811773 
L 388.467273 183.811773 
" clip-path="url(#pc2c72e39d2)" style="fill: none; stroke: #440154; stroke-width: 1.5; stroke-linecap: round"/>
   </g>
   <g id="line2d_24">
    <path d="M 63.812727 39.356954 
L 66.430909 134.339235 
L 67.74 115.8505 
L 69.049091 185.008695 
L 70.358182 171.17405 
L 71.667273 191.770832 
L 72.976364 173.440121 
L 74.285455 179.541591 
L 75.594545 222.258492 
L 76.903636 212.195055 
L 78.212727 172.098877 
L 79.521818 181.875997 
L 80.830909 205.84508 
L 82.14 170.505137 
L 84.758182 230.68187 
L 86.067273 204.283528 
L 87.376364 222.723288 
L 88.685455 207.298665 
L 89.994545 254.817133 
L 91.303636 201.716488 
L 92.612727 221.745334 
L 93.921818 219.967575 
L 95.230909 210.513215 
L 97.849091 234.591073 
L 99.158182 218.254988 
L 100.467273 251.741555 
L 103.085455 210.775097 
L 104.394545 208.766517 
L 105.703636 180.803278 
L 107.012727 224.622874 
L 108.321818 202.242151 
L 109.630909 255.529943 
L 110.94 221.559321 
L 113.558182 253.572741 
L 114.867273 252.809281 
L 116.176364 193.988637 
L 117.485455 196.465651 
L 118.794545 189.142487 
L 122.721818 249.484026 
L 124.030909 247.121333 
L 125.34 247.96581 
L 127.958182 185.864582 
L 130.576364 233.751905 
L 131.885455 231.564256 
L 134.503636 253.019859 
L 137.121818 227.083667 
L 138.430909 226.449856 
L 141.049091 206.111664 
L 143.667273 223.835886 
L 144.976364 184.572276 
L 146.285455 191.954295 
L 148.903636 225.786009 
L 150.212727 219.105995 
L 151.521818 237.690194 
L 152.830909 212.143638 
L 154.14 222.047127 
L 155.449091 223.527151 
L 156.758182 202.809999 
L 158.067273 233.809739 
L 159.376364 214.536676 
L 160.685455 215.554165 
L 161.994545 227.391455 
L 163.303636 215.42196 
L 164.612727 183.416621 
L 165.921818 244.233857 
L 167.230909 235.480899 
L 168.54 191.240674 
L 169.849091 230.700243 
L 171.158182 201.900366 
L 172.467273 228.370088 
L 173.776364 230.148398 
L 175.085455 209.293682 
L 176.394545 260.085431 
L 177.703636 216.334973 
L 179.012727 213.494493 
L 180.321818 246.353467 
L 182.94 208.966194 
L 184.249091 226.484337 
L 185.558182 274.110632 
L 186.867273 228.467556 
L 189.485455 214.550047 
L 190.794545 229.070246 
L 192.103636 214.372719 
L 193.412727 238.222241 
L 194.721818 196.676202 
L 196.030909 201.933288 
L 197.34 228.896009 
L 198.649091 216.89659 
L 201.267273 271.696633 
L 202.576364 213.240164 
L 203.885455 230.077903 
L 205.194545 226.119504 
L 206.503636 244.599664 
L 207.812727 217.641366 
L 209.121818 222.309489 
L 210.430909 217.664472 
L 211.74 238.224316 
L 213.049091 236.136695 
L 214.358182 254.475447 
L 216.976364 193.186443 
L 218.285455 191.051361 
L 219.594545 151.627189 
L 220.903636 174.250392 
L 222.212727 169.976152 
L 223.521818 212.631405 
L 224.830909 219.469047 
L 226.14 173.677815 
L 227.449091 229.277912 
L 228.758182 222.626475 
L 230.067273 226.629132 
L 231.376364 186.852824 
L 232.685455 218.431689 
L 233.994545 220.64414 
L 235.303636 173.492487 
L 236.612727 220.094835 
L 237.921818 194.154412 
L 239.230909 192.949214 
L 240.54 228.474029 
L 241.849091 212.310264 
L 243.158182 212.157431 
L 244.467273 237.830056 
L 245.776364 220.283321 
L 247.085455 217.717266 
L 249.703636 236.763922 
L 251.012727 230.638124 
L 252.321818 218.988655 
L 253.630909 246.010523 
L 254.94 224.976695 
L 256.249091 238.285375 
L 258.867273 155.788066 
L 260.176364 211.27113 
L 261.485455 192.018599 
L 262.794545 235.987766 
L 264.103636 188.469424 
L 266.721818 235.394849 
L 268.030909 185.271833 
L 270.649091 224.304048 
L 273.267273 200.312226 
L 274.576364 206.343343 
L 275.885455 199.091196 
L 277.194545 206.325433 
L 278.503636 198.857747 
L 279.812727 181.394136 
L 282.430909 237.220227 
L 283.74 211.022555 
L 285.049091 232.512504 
L 286.358182 221.005551 
L 287.667273 218.908425 
L 290.285455 241.772675 
L 291.594545 251.760934 
L 292.903636 193.71722 
L 294.212727 238.485736 
L 295.521818 230.276371 
L 296.830909 191.913057 
L 298.14 246.067266 
L 299.449091 242.833129 
L 300.758182 225.907739 
L 302.067273 233.659714 
L 304.685455 207.437341 
L 305.994545 234.372981 
L 307.303636 219.473332 
L 308.612727 217.075283 
L 309.921818 261.981833 
L 311.230909 198.404299 
L 312.54 192.185774 
L 313.849091 179.041285 
L 315.158182 226.519694 
L 316.467273 220.72869 
L 317.776364 237.161636 
L 319.085455 223.175106 
L 320.394545 262.093897 
L 321.703636 181.317612 
L 323.012727 189.910231 
L 324.321818 232.044857 
L 325.630909 209.326557 
L 326.94 234.171255 
L 328.249091 210.656674 
L 329.558182 234.973073 
L 333.485455 176.911455 
L 334.794545 210.216648 
L 336.103636 214.224959 
L 337.412727 198.964943 
L 338.721818 213.120421 
L 340.030909 248.342675 
L 341.34 244.392841 
L 342.649091 248.526246 
L 349.194545 191.991769 
L 350.503636 220.879338 
L 351.812727 213.899456 
L 353.121818 222.413447 
L 355.74 162.725359 
L 357.049091 194.784928 
L 358.358182 188.554158 
L 359.667273 242.889466 
L 360.976364 226.153273 
L 362.285455 230.868921 
L 363.594545 207.846446 
L 364.903636 226.896284 
L 368.830909 153.727622 
L 370.14 189.268339 
L 371.449091 179.863494 
L 372.758182 217.72939 
L 374.067273 202.563361 
L 375.376364 207.822567 
L 377.994545 162.170543 
L 380.612727 212.883828 
L 381.921818 192.493832 
L 383.230909 226.588045 
L 384.54 196.749118 
L 385.849091 190.306656 
L 387.158182 208.467474 
L 388.467273 176.283508 
L 388.467273 176.283508 
" clip-path="url(#pc2c72e39d2)" style="fill: none; stroke: #31688e; stroke-width: 1.5; stroke-linecap: round"/>
   </g>
   <g id="line2d_25">
    <path d="M 63.812727 35.952 
L 66.430909 133.011657 
L 67.74 114.369839 
L 69.049091 181.100497 
L 70.358182 168.166619 
L 71.667273 188.613918 
L 72.976364 167.125542 
L 74.285455 177.587265 
L 75.594545 215.653433 
L 76.903636 208.186532 
L 78.212727 168.04815 
L 79.521818 176.41806 
L 80.830909 205.003845 
L 82.14 165.783612 
L 84.758182 228.56608 
L 86.067273 198.151112 
L 87.376364 216.98593 
L 88.685455 200.005185 
L 89.994545 252.805724 
L 91.303636 196.657538 
L 92.612727 213.704833 
L 93.921818 213.234768 
L 95.230909 205.233132 
L 97.849091 231.805247 
L 99.158182 211.145332 
L 100.467273 252.255966 
L 103.085455 205.340706 
L 104.394545 203.626223 
L 105.703636 175.251624 
L 107.012727 219.074053 
L 108.321818 191.074692 
L 109.630909 251.843451 
L 110.94 216.125971 
L 113.558182 250.785791 
L 114.867273 249.626955 
L 116.176364 189.712318 
L 117.485455 192.26783 
L 118.794545 185.469282 
L 122.721818 246.607411 
L 124.030909 240.272594 
L 125.34 244.248309 
L 127.958182 178.805465 
L 130.576364 227.089469 
L 131.885455 224.165419 
L 134.503636 250.63027 
L 137.121818 219.910252 
L 138.430909 222.527681 
L 141.049091 203.059834 
L 143.667273 219.85952 
L 144.976364 178.22991 
L 146.285455 186.097364 
L 148.903636 221.684163 
L 150.212727 216.069178 
L 151.521818 235.962958 
L 152.830909 205.10294 
L 154.14 218.880757 
L 155.449091 220.099122 
L 156.758182 196.327926 
L 158.067273 224.454116 
L 159.376364 209.461322 
L 160.685455 212.643148 
L 161.994545 224.003808 
L 163.303636 212.309642 
L 164.612727 179.386889 
L 165.921818 241.552424 
L 167.230909 229.560072 
L 168.54 189.265494 
L 169.849091 224.806275 
L 171.158182 196.350692 
L 172.467273 223.708947 
L 173.776364 226.739052 
L 175.085455 204.554889 
L 176.394545 258.68488 
L 177.703636 214.778536 
L 179.012727 209.527206 
L 180.321818 241.864863 
L 182.94 205.197281 
L 184.249091 220.076413 
L 185.558182 272.23806 
L 186.867273 223.823726 
L 189.485455 211.510455 
L 190.794545 227.124397 
L 192.103636 208.354309 
L 193.412727 234.433835 
L 194.721818 191.100889 
L 196.030909 196.902283 
L 197.34 226.426096 
L 198.649091 210.884857 
L 201.267273 264.514599 
L 202.576364 207.325973 
L 203.885455 222.275527 
L 205.194545 221.035055 
L 206.503636 238.937892 
L 207.812727 212.847675 
L 209.121818 217.872254 
L 210.430909 215.374911 
L 211.74 232.180043 
L 213.049091 234.577831 
L 214.358182 246.780827 
L 216.976364 191.286809 
L 218.285455 189.906035 
L 219.594545 146.151698 
L 220.903636 168.049636 
L 222.212727 160.537635 
L 223.521818 206.937526 
L 224.830909 209.309083 
L 226.14 171.618972 
L 227.449091 225.394115 
L 228.758182 215.069965 
L 230.067273 223.776466 
L 231.376364 182.367382 
L 232.685455 214.130568 
L 233.994545 213.825503 
L 235.303636 167.0171 
L 236.612727 215.00798 
L 237.921818 190.920144 
L 239.230909 186.588892 
L 240.54 226.85718 
L 241.849091 206.113835 
L 243.158182 210.848459 
L 244.467273 232.306717 
L 245.776364 215.581044 
L 247.085455 213.624966 
L 249.703636 234.450877 
L 252.321818 212.035267 
L 253.630909 242.963831 
L 254.94 221.533062 
L 256.249091 234.1407 
L 258.867273 151.806158 
L 260.176364 208.375395 
L 261.485455 188.630348 
L 262.794545 230.866826 
L 264.103636 185.952959 
L 266.721818 228.870476 
L 268.030909 179.449132 
L 270.649091 222.162344 
L 273.267273 196.999463 
L 274.576364 199.240659 
L 275.885455 198.562437 
L 277.194545 201.898903 
L 278.503636 195.995839 
L 279.812727 173.197203 
L 282.430909 231.632721 
L 283.74 206.588273 
L 285.049091 227.019702 
L 286.358182 214.804919 
L 287.667273 212.865827 
L 288.976364 230.225874 
L 290.285455 233.957687 
L 291.594545 246.64873 
L 292.903636 189.842876 
L 294.212727 233.172931 
L 295.521818 223.023863 
L 296.830909 187.085169 
L 298.14 242.326041 
L 299.449091 235.02245 
L 300.758182 220.688539 
L 302.067273 228.572928 
L 304.685455 200.558637 
L 305.994545 230.638052 
L 308.612727 212.424406 
L 309.921818 261.58227 
L 311.230909 191.722003 
L 312.54 185.734331 
L 313.849091 174.519539 
L 315.158182 219.758123 
L 316.467273 217.751253 
L 317.776364 229.186935 
L 319.085455 219.96131 
L 320.394545 259.978794 
L 321.703636 177.629606 
L 323.012727 183.535128 
L 324.321818 227.229571 
L 325.630909 206.418976 
L 326.94 229.93116 
L 328.249091 207.864295 
L 329.558182 227.718155 
L 333.485455 169.995581 
L 334.794545 204.303364 
L 336.103636 207.735982 
L 337.412727 191.837114 
L 338.721818 207.806287 
L 340.030909 242.123183 
L 341.34 240.30054 
L 342.649091 244.158789 
L 346.576364 204.527138 
L 347.885455 197.914452 
L 349.194545 184.676861 
L 350.503636 215.167287 
L 351.812727 212.682952 
L 353.121818 218.512078 
L 355.74 152.480099 
L 357.049091 188.597036 
L 358.358182 180.106368 
L 359.667273 236.782909 
L 360.976364 220.949802 
L 362.285455 226.180233 
L 363.594545 203.805798 
L 364.903636 222.978507 
L 368.830909 148.989802 
L 370.14 185.835615 
L 371.449091 172.024234 
L 372.758182 212.204883 
L 374.067273 195.982869 
L 375.376364 203.001135 
L 377.994545 158.346497 
L 380.612727 210.522311 
L 381.921818 184.795367 
L 383.230909 222.363475 
L 385.849091 185.183076 
L 387.158182 204.140849 
L 388.467273 171.28342 
L 388.467273 171.28342 
" clip-path="url(#pc2c72e39d2)" style="fill: none; stroke: #35b779; stroke-width: 1.5; stroke-linecap: round"/>
   </g>
   <g id="patch_3">
    <path d="M 47.58 289.968 
L 47.58 23.856 
" style="fill: none"/>
   </g>
   <g id="patch_4">
    <path d="M 404.7 289.968 
L 404.7 23.856 
" style="fill: none"/>
   </g>
   <g id="patch_5">
    <path d="M 47.58 289.968 
L 404.7 289.968 
" style="fill: none"/>
   </g>
   <g id="patch_6">
    <path d="M 47.58 23.856 
L 404.7 23.856 
" style="fill: none"/>
   </g>
   <g id="text_13">
    <!-- Evaluate -->
    <g style="fill: #838383" transform="translate(198.1815 17.856) scale(0.144 -0.144)">
     <defs>
      <path id="IBMPlexSans-Regular-45" d="M 595 0 
L 595 4467 
L 3322 4467 
L 3322 3994 
L 1133 3994 
L 1133 2496 
L 3194 2496 
L 3194 2022 
L 1133 2022 
L 1133 474 
L 3322 474 
L 3322 0 
L 595 0 
z
" transform="scale(0.015625)"/>
      <path id="IBMPlexSans-Regular-76" d="M 1274 0 
L 115 3302 
L 627 3302 
L 1203 1664 
L 1562 538 
L 1594 538 
L 1952 1664 
L 2541 3302 
L 3034 3302 
L 1869 0 
L 1274 0 
z
" transform="scale(0.015625)"/>
      <path id="IBMPlexSans-Regular-61" d="M 2944 0 
Q 2656 0 2531 153 
Q 2406 307 2374 538 
L 2342 538 
Q 2234 230 1984 76 
Q 1734 -77 1389 -77 
Q 864 -77 573 192 
Q 282 461 282 922 
Q 282 1389 624 1638 
Q 966 1888 1690 1888 
L 2342 1888 
L 2342 2214 
Q 2342 2566 2150 2752 
Q 1958 2938 1562 2938 
Q 1261 2938 1059 2803 
Q 858 2669 723 2445 
L 416 2733 
Q 550 3002 844 3190 
Q 1139 3379 1587 3379 
Q 2189 3379 2521 3084 
Q 2854 2790 2854 2266 
L 2854 448 
L 3232 448 
L 3232 0 
L 2944 0 
z
M 1472 358 
Q 1664 358 1824 403 
Q 1984 448 2099 531 
Q 2214 614 2278 723 
Q 2342 832 2342 960 
L 2342 1504 
L 1664 1504 
Q 1222 1504 1020 1376 
Q 819 1248 819 1005 
L 819 870 
Q 819 627 995 492 
Q 1171 358 1472 358 
z
" transform="scale(0.015625)"/>
      <path id="IBMPlexSans-Regular-6c" d="M 1088 0 
Q 819 0 681 150 
Q 544 301 544 531 
L 544 4736 
L 1056 4736 
L 1056 448 
L 1542 448 
L 1542 0 
L 1088 0 
z
" transform="scale(0.015625)"/>
      <path id="IBMPlexSans-Regular-75" d="M 2579 538 
L 2554 538 
Q 2502 422 2428 310 
Q 2355 198 2246 112 
Q 2138 26 1984 -25 
Q 1830 -77 1626 -77 
Q 1114 -77 813 252 
Q 512 582 512 1184 
L 512 3302 
L 1024 3302 
L 1024 1274 
Q 1024 384 1779 384 
Q 1933 384 2077 422 
Q 2221 461 2333 537 
Q 2445 614 2512 732 
Q 2579 851 2579 1018 
L 2579 3302 
L 3091 3302 
L 3091 0 
L 2579 0 
L 2579 538 
z
" transform="scale(0.015625)"/>
      <path id="IBMPlexSans-Regular-74" d="M 1274 0 
Q 1005 0 867 150 
Q 730 301 730 544 
L 730 2854 
L 186 2854 
L 186 3302 
L 493 3302 
Q 659 3302 720 3369 
Q 781 3437 781 3603 
L 781 4218 
L 1242 4218 
L 1242 3302 
L 1965 3302 
L 1965 2854 
L 1242 2854 
L 1242 448 
L 1914 448 
L 1914 0 
L 1274 0 
z
" transform="scale(0.015625)"/>
     </defs>
     <use xlink:href="#IBMPlexSans-Regular-45"/>
     <use xlink:href="#IBMPlexSans-Regular-76" x="58.299988"/>
     <use xlink:href="#IBMPlexSans-Regular-61" x="107.499985"/>
     <use xlink:href="#IBMPlexSans-Regular-6c" x="160.899979"/>
     <use xlink:href="#IBMPlexSans-Regular-75" x="188.099976"/>
     <use xlink:href="#IBMPlexSans-Regular-61" x="244.899963"/>
     <use xlink:href="#IBMPlexSans-Regular-74" x="298.299957"/>
     <use xlink:href="#IBMPlexSans-Regular-65" x="333.399948"/>
    </g>
   </g>
  </g>
 </g>
 <defs>
  <clipPath id="pc2c72e39d2">
   <rect x="47.58" y="23.856" width="357.12" height="266.112"/>
  </clipPath>
 </defs>
</svg>
