<?xml version="1.0" encoding="utf-8" standalone="no"?>
<!DOCTYPE svg PUBLIC "-//W3C//DTD SVG 1.1//EN"
  "http://www.w3.org/Graphics/SVG/1.1/DTD/svg11.dtd">
<svg xmlns:xlink="http://www.w3.org/1999/xlink" width="223.65pt" height="174.26pt" viewBox="0 0 223.65 174.26" xmlns="http://www.w3.org/2000/svg" version="1.1">
 <metadata>
  <rdf:RDF xmlns:dc="http://purl.org/dc/elements/1.1/" xmlns:cc="http://creativecommons.org/ns#" xmlns:rdf="http://www.w3.org/1999/02/22-rdf-syntax-ns#">
   <cc:Work>
    <dc:type rdf:resource="http://purl.org/dc/dcmitype/StillImage"/>
    <dc:date>2025-12-31T11:26:08.098155</dc:date>
    <dc:format>image/svg+xml</dc:format>
    <dc:creator>
     <cc:Agent>
      <dc:title>Matplotlib v3.10.5, https://matplotlib.org/</dc:title>
     </cc:Agent>
    </dc:creator>
   </cc:Work>
  </rdf:RDF>
 </metadata>
 <defs>
  <style type="text/css">*{stroke-linejoin: round; stroke-linecap: butt}</style>
 </defs>
 <g id="figure_1">
  <g id="patch_1">
   <path d="M 0 174.26 
L 223.65 174.26 
L 223.65 0 
L 0 0 
L 0 174.26 
z
" style="fill: none"/>
  </g>
  <g id="axes_1">
   <g id="patch_2">
    <path d="M 7.2 48.78 
L 216.45 48.78 
L 216.45 7.2 
L 7.2 7.2 
L 7.2 48.78 
z
" style="fill: none"/>
   </g>
   <g id="matplotlib.axis_1">
    <g id="xtick_1"/>
    <g id="xtick_2"/>
    <g id="xtick_3"/>
    <g id="xtick_4"/>
   </g>
   <g id="matplotlib.axis_2"/>
   <g id="line2d_1">
    <path d="M 7.2 48.78 
L 216.45 48.78 
" style="fill: none; stroke: #bddf26; stroke-opacity: 0.9; stroke-linecap: round"/>
   </g>
   <g id="text_1">
    <!-- 0 -->
    <g style="fill: #bddf26" transform="translate(7.2 47.862) scale(0.12 -0.12)">
     <defs>
      <path id="IBMPlexSans-Bold-30" d="M 1920 -77 
Q 1043 -77 620 531 
Q 198 1139 198 2234 
Q 198 3328 620 3936 
Q 1043 4544 1920 4544 
Q 2797 4544 3219 3936 
Q 3642 3328 3642 2234 
Q 3642 1139 3219 531 
Q 2797 -77 1920 -77 
z
M 1920 736 
Q 2304 736 2451 1017 
Q 2598 1299 2598 1811 
L 2598 2656 
Q 2598 3168 2451 3449 
Q 2304 3731 1920 3731 
Q 1536 3731 1389 3449 
Q 1242 3168 1242 2656 
L 1242 1811 
Q 1242 1299 1389 1017 
Q 1536 736 1920 736 
z
" transform="scale(0.015625)"/>
     </defs>
     <use xlink:href="#IBMPlexSans-Bold-30"/>
    </g>
   </g>
  </g>
  <g id="axes_2">
   <g id="patch_3">
    <path d="M 7.2 59.175 
L 216.45 59.175 
L 216.45 17.595 
L 7.2 17.595 
L 7.2 59.175 
z
" style="fill: none"/>
   </g>
   <g id="matplotlib.axis_3">
    <g id="xtick_5"/>
    <g id="xtick_6"/>
    <g id="xtick_7"/>
    <g id="xtick_8"/>
   </g>
   <g id="matplotlib.axis_4"/>
   <g id="FillBetweenPolyCollection_1">
    <defs>
     <path id="m185765ba3b" d="M 110.944905 -120.853229 
L 110.944905 -115.085 
L 111.175221 -115.085 
L 111.405537 -115.085 
L 111.635853 -115.085 
L 111.866169 -115.085 
L 112.096485 -115.085 
L 112.326801 -115.085 
L 112.557117 -115.085 
L 112.787433 -115.085 
L 113.017749 -115.085 
L 113.248065 -115.085 
L 113.478382 -115.085 
L 113.708698 -115.085 
L 113.939014 -115.085 
L 114.16933 -115.085 
L 114.399646 -115.085 
L 114.629962 -115.085 
L 114.860278 -115.085 
L 115.090594 -115.085 
L 115.32091 -115.085 
L 115.551226 -115.085 
L 115.781542 -115.085 
L 116.011859 -115.085 
L 116.242175 -115.085 
L 116.472491 -115.085 
L 116.702807 -115.085 
L 116.933123 -115.085 
L 117.163439 -115.085 
L 117.393755 -115.085 
L 117.624071 -115.085 
L 117.854387 -115.085 
L 118.084703 -115.085 
L 118.315019 -115.085 
L 118.545335 -115.085 
L 118.775652 -115.085 
L 119.005968 -115.085 
L 119.236284 -115.085 
L 119.4666 -115.085 
L 119.696916 -115.085 
L 119.927232 -115.085 
L 120.157548 -115.085 
L 120.387864 -115.085 
L 120.61818 -115.085 
L 120.848496 -115.085 
L 121.078812 -115.085 
L 121.309128 -115.085 
L 121.539445 -115.085 
L 121.769761 -115.085 
L 122.000077 -115.085 
L 122.230393 -115.085 
L 122.460709 -115.085 
L 122.691025 -115.085 
L 122.921341 -115.085 
L 123.151657 -115.085 
L 123.381973 -115.085 
L 123.612289 -115.085 
L 123.842605 -115.085 
L 124.072921 -115.085 
L 124.303238 -115.085 
L 124.533554 -115.085 
L 124.76387 -115.085 
L 124.994186 -115.085 
L 125.224502 -115.085 
L 125.454818 -115.085 
L 125.685134 -115.085 
L 125.91545 -115.085 
L 126.145766 -115.085 
L 126.376082 -115.085 
L 126.606398 -115.085 
L 126.836714 -115.085 
L 127.067031 -115.085 
L 127.297347 -115.085 
L 127.527663 -115.085 
L 127.757979 -115.085 
L 127.988295 -115.085 
L 128.218611 -115.085 
L 128.448927 -115.085 
L 128.679243 -115.085 
L 128.909559 -115.085 
L 129.139875 -115.085 
L 129.370191 -115.085 
L 129.600507 -115.085 
L 129.830824 -115.085 
L 130.06114 -115.085 
L 130.291456 -115.085 
L 130.521772 -115.085 
L 130.752088 -115.085 
L 130.982404 -115.085 
L 131.21272 -115.085 
L 131.443036 -115.085 
L 131.673352 -115.085 
L 131.903668 -115.085 
L 132.133984 -115.085 
L 132.3643 -115.085 
L 132.594617 -115.085 
L 132.824933 -115.085 
L 133.055249 -115.085 
L 133.285565 -115.085 
L 133.515881 -115.085 
L 133.746197 -115.085 
L 133.976513 -115.085 
L 134.206829 -115.085 
L 134.437145 -115.085 
L 134.667461 -115.085 
L 134.897777 -115.085 
L 135.128093 -115.085 
L 135.35841 -115.085 
L 135.588726 -115.085 
L 135.819042 -115.085 
L 136.049358 -115.085 
L 136.279674 -115.085 
L 136.50999 -115.085 
L 136.740306 -115.085 
L 136.970622 -115.085 
L 137.200938 -115.085 
L 137.431254 -115.085 
L 137.66157 -115.085 
L 137.891887 -115.085 
L 138.122203 -115.085 
L 138.352519 -115.085 
L 138.582835 -115.085 
L 138.813151 -115.085 
L 139.043467 -115.085 
L 139.273783 -115.085 
L 139.504099 -115.085 
L 139.734415 -115.085 
L 139.964731 -115.085 
L 140.195047 -115.085 
L 140.425363 -115.085 
L 140.65568 -115.085 
L 140.885996 -115.085 
L 141.116312 -115.085 
L 141.346628 -115.085 
L 141.576944 -115.085 
L 141.80726 -115.085 
L 142.037576 -115.085 
L 142.267892 -115.085 
L 142.498208 -115.085 
L 142.728524 -115.085 
L 142.95884 -115.085 
L 143.189156 -115.085 
L 143.419473 -115.085 
L 143.649789 -115.085 
L 143.880105 -115.085 
L 144.110421 -115.085 
L 144.340737 -115.085 
L 144.571053 -115.085 
L 144.801369 -115.085 
L 145.031685 -115.085 
L 145.262001 -115.085 
L 145.492317 -115.085 
L 145.722633 -115.085 
L 145.952949 -115.085 
L 146.183266 -115.085 
L 146.413582 -115.085 
L 146.643898 -115.085 
L 146.874214 -115.085 
L 147.10453 -115.085 
L 147.334846 -115.085 
L 147.565162 -115.085 
L 147.795478 -115.085 
L 148.025794 -115.085 
L 148.25611 -115.085 
L 148.486426 -115.085 
L 148.716742 -115.085 
L 148.947059 -115.085 
L 149.177375 -115.085 
L 149.407691 -115.085 
L 149.638007 -115.085 
L 149.868323 -115.085 
L 150.098639 -115.085 
L 150.328955 -115.085 
L 150.559271 -115.085 
L 150.789587 -115.085 
L 151.019903 -115.085 
L 151.250219 -115.085 
L 151.480535 -115.085 
L 151.710852 -115.085 
L 151.941168 -115.085 
L 152.171484 -115.085 
L 152.4018 -115.085 
L 152.632116 -115.085 
L 152.862432 -115.085 
L 153.092748 -115.085 
L 153.323064 -115.085 
L 153.55338 -115.085 
L 153.783696 -115.085 
L 154.014012 -115.085 
L 154.244328 -115.085 
L 154.474645 -115.085 
L 154.704961 -115.085 
L 154.935277 -115.085 
L 155.165593 -115.085 
L 155.395909 -115.085 
L 155.626225 -115.085 
L 155.856541 -115.085 
L 156.086857 -115.085 
L 156.317173 -115.085 
L 156.547489 -115.085 
L 156.777805 -115.085 
L 156.777805 -119.367766 
L 156.777805 -119.367766 
L 156.547489 -119.833002 
L 156.317173 -120.328082 
L 156.086857 -120.852181 
L 155.856541 -121.404096 
L 155.626225 -121.982238 
L 155.395909 -122.584639 
L 155.165593 -123.208959 
L 154.935277 -123.852513 
L 154.704961 -124.512297 
L 154.474645 -125.185032 
L 154.244328 -125.867206 
L 154.014012 -126.555138 
L 153.783696 -127.24503 
L 153.55338 -127.933042 
L 153.323064 -128.615356 
L 153.092748 -129.288251 
L 152.862432 -129.948167 
L 152.632116 -130.591776 
L 152.4018 -131.216046 
L 152.171484 -131.818292 
L 151.941168 -132.396224 
L 151.710852 -132.947989 
L 151.480535 -133.472193 
L 151.250219 -133.967922 
L 151.019903 -134.434744 
L 150.789587 -134.872707 
L 150.559271 -135.282317 
L 150.328955 -135.664517 
L 150.098639 -136.020655 
L 149.868323 -136.352438 
L 149.638007 -136.661891 
L 149.407691 -136.951307 
L 149.177375 -137.223199 
L 148.947059 -137.480246 
L 148.716742 -137.725248 
L 148.486426 -137.961074 
L 148.25611 -138.190624 
L 148.025794 -138.416784 
L 147.795478 -138.64239 
L 147.565162 -138.870193 
L 147.334846 -139.102827 
L 147.10453 -139.34278 
L 146.874214 -139.592359 
L 146.643898 -139.853667 
L 146.413582 -140.128566 
L 146.183266 -140.418645 
L 145.952949 -140.725183 
L 145.722633 -141.049115 
L 145.492317 -141.390985 
L 145.262001 -141.750909 
L 145.031685 -142.128531 
L 144.801369 -142.522983 
L 144.571053 -142.932845 
L 144.340737 -143.356121 
L 144.110421 -143.790205 
L 143.880105 -144.231881 
L 143.649789 -144.677313 
L 143.419473 -145.122071 
L 143.189156 -145.561159 
L 142.95884 -145.989069 
L 142.728524 -146.399857 
L 142.498208 -146.78723 
L 142.267892 -147.14466 
L 142.037576 -147.46551 
L 141.80726 -147.743178 
L 141.576944 -147.971246 
L 141.346628 -148.143649 
L 141.116312 -148.254835 
L 140.885996 -148.299929 
L 140.65568 -148.274891 
L 140.425363 -148.176666 
L 140.195047 -148.003307 
L 139.964731 -147.754091 
L 139.734415 -147.429602 
L 139.504099 -147.031785 
L 139.273783 -146.56398 
L 139.043467 -146.030907 
L 138.813151 -145.438632 
L 138.582835 -144.794496 
L 138.352519 -144.107006 
L 138.122203 -143.385705 
L 137.891887 -142.641007 
L 137.66157 -141.884012 
L 137.431254 -141.126302 
L 137.200938 -140.379718 
L 136.970622 -139.656133 
L 136.740306 -138.967211 
L 136.50999 -138.324177 
L 136.279674 -137.737582 
L 136.049358 -137.217091 
L 135.819042 -136.771272 
L 135.588726 -136.407416 
L 135.35841 -136.131377 
L 135.128093 -135.947442 
L 134.897777 -135.858224 
L 134.667461 -135.8646 
L 134.437145 -135.965671 
L 134.206829 -136.158767 
L 133.976513 -136.43948 
L 133.746197 -136.801742 
L 133.515881 -137.237928 
L 133.285565 -137.738996 
L 133.055249 -138.294659 
L 132.824933 -138.89358 
L 132.594617 -139.52359 
L 132.3643 -140.171934 
L 132.133984 -140.825513 
L 131.903668 -141.471155 
L 131.673352 -142.095874 
L 131.443036 -142.687135 
L 131.21272 -143.233105 
L 130.982404 -143.72289 
L 130.752088 -144.146757 
L 130.521772 -144.496327 
L 130.291456 -144.764734 
L 130.06114 -144.94676 
L 129.830824 -145.038923 
L 129.600507 -145.039531 
L 129.370191 -144.948695 
L 129.139875 -144.768303 
L 128.909559 -144.501944 
L 128.679243 -144.15481 
L 128.448927 -143.733548 
L 128.218611 -143.246093 
L 127.988295 -142.701464 
L 127.757979 -142.109546 
L 127.527663 -141.480855 
L 127.297347 -140.826296 
L 127.067031 -140.15691 
L 126.836714 -139.483641 
L 126.606398 -138.817094 
L 126.376082 -138.167327 
L 126.145766 -137.543649 
L 125.91545 -136.954453 
L 125.685134 -136.407073 
L 125.454818 -135.907678 
L 125.224502 -135.46119 
L 124.994186 -135.071244 
L 124.76387 -134.740182 
L 124.533554 -134.469068 
L 124.303238 -134.25775 
L 124.072921 -134.104933 
L 123.842605 -134.008284 
L 123.612289 -133.964555 
L 123.381973 -133.969716 
L 123.151657 -134.019103 
L 122.921341 -134.107568 
L 122.691025 -134.229624 
L 122.460709 -134.379595 
L 122.230393 -134.551749 
L 122.000077 -134.74042 
L 121.769761 -134.940119 
L 121.539445 -135.145619 
L 121.309128 -135.352031 
L 121.078812 -135.554849 
L 120.848496 -135.749989 
L 120.61818 -135.933795 
L 120.387864 -136.103037 
L 120.157548 -136.254896 
L 119.927232 -136.386928 
L 119.696916 -136.497025 
L 119.4666 -136.583372 
L 119.236284 -136.644395 
L 119.005968 -136.678713 
L 118.775652 -136.685098 
L 118.545335 -136.662429 
L 118.315019 -136.609668 
L 118.084703 -136.525834 
L 117.854387 -136.409995 
L 117.624071 -136.261271 
L 117.393755 -136.078837 
L 117.163439 -135.861952 
L 116.933123 -135.609983 
L 116.702807 -135.322443 
L 116.472491 -134.999028 
L 116.242175 -134.639659 
L 116.011859 -134.244524 
L 115.781542 -133.814115 
L 115.551226 -133.349261 
L 115.32091 -132.851154 
L 115.090594 -132.321363 
L 114.860278 -131.761841 
L 114.629962 -131.174923 
L 114.399646 -130.563305 
L 114.16933 -129.930023 
L 113.939014 -129.278409 
L 113.708698 -128.61205 
L 113.478382 -127.934731 
L 113.248065 -127.250373 
L 113.017749 -126.562975 
L 112.787433 -125.876538 
L 112.557117 -125.195008 
L 112.326801 -124.522206 
L 112.096485 -123.861768 
L 111.866169 -123.217094 
L 111.635853 -122.591297 
L 111.405537 -121.987164 
L 111.175221 -121.407124 
L 110.944905 -120.853229 
z
" style="stroke: #44bf70; stroke-width: 1.25"/>
    </defs>
    <g>
     <use xlink:href="#m185765ba3b" x="0" y="174.26" style="fill: #44bf70; fill-opacity: 0.7; stroke: #44bf70; stroke-width: 1.25"/>
    </g>
   </g>
   <g id="line2d_2">
    <path d="M 7.2 59.175 
L 216.45 59.175 
" style="fill: none; stroke: #44bf70; stroke-opacity: 0.9; stroke-linecap: round"/>
   </g>
   <g id="text_2">
    <!-- 1 -->
    <g style="fill: #44bf70" transform="translate(7.2 58.257) scale(0.12 -0.12)">
     <defs>
      <path id="IBMPlexSans-Bold-31" d="M 602 0 
L 602 774 
L 1805 774 
L 1805 3770 
L 1747 3770 
L 838 2579 
L 224 3059 
L 1293 4467 
L 2765 4467 
L 2765 774 
L 3712 774 
L 3712 0 
L 602 0 
z
" transform="scale(0.015625)"/>
     </defs>
     <use xlink:href="#IBMPlexSans-Bold-31"/>
    </g>
   </g>
  </g>
  <g id="axes_3">
   <g id="patch_4">
    <path d="M 7.2 69.57 
L 216.45 69.57 
L 216.45 27.99 
L 7.2 27.99 
L 7.2 69.57 
z
" style="fill: none"/>
   </g>
   <g id="matplotlib.axis_5">
    <g id="xtick_9"/>
    <g id="xtick_10"/>
    <g id="xtick_11"/>
    <g id="xtick_12"/>
   </g>
   <g id="matplotlib.axis_6"/>
   <g id="FillBetweenPolyCollection_2">
    <defs>
     <path id="md85e548a50" d="M 80.042037 -106.933163 
L 80.042037 -104.69 
L 80.513998 -104.69 
L 80.985958 -104.69 
L 81.457919 -104.69 
L 81.929879 -104.69 
L 82.40184 -104.69 
L 82.8738 -104.69 
L 83.34576 -104.69 
L 83.817721 -104.69 
L 84.289681 -104.69 
L 84.761642 -104.69 
L 85.233602 -104.69 
L 85.705563 -104.69 
L 86.177523 -104.69 
L 86.649483 -104.69 
L 87.121444 -104.69 
L 87.593404 -104.69 
L 88.065365 -104.69 
L 88.537325 -104.69 
L 89.009286 -104.69 
L 89.481246 -104.69 
L 89.953207 -104.69 
L 90.425167 -104.69 
L 90.897127 -104.69 
L 91.369088 -104.69 
L 91.841048 -104.69 
L 92.313009 -104.69 
L 92.784969 -104.69 
L 93.25693 -104.69 
L 93.72889 -104.69 
L 94.200851 -104.69 
L 94.672811 -104.69 
L 95.144771 -104.69 
L 95.616732 -104.69 
L 96.088692 -104.69 
L 96.560653 -104.69 
L 97.032613 -104.69 
L 97.504574 -104.69 
L 97.976534 -104.69 
L 98.448495 -104.69 
L 98.920455 -104.69 
L 99.392415 -104.69 
L 99.864376 -104.69 
L 100.336336 -104.69 
L 100.808297 -104.69 
L 101.280257 -104.69 
L 101.752218 -104.69 
L 102.224178 -104.69 
L 102.696139 -104.69 
L 103.168099 -104.69 
L 103.640059 -104.69 
L 104.11202 -104.69 
L 104.58398 -104.69 
L 105.055941 -104.69 
L 105.527901 -104.69 
L 105.999862 -104.69 
L 106.471822 -104.69 
L 106.943783 -104.69 
L 107.415743 -104.69 
L 107.887703 -104.69 
L 108.359664 -104.69 
L 108.831624 -104.69 
L 109.303585 -104.69 
L 109.775545 -104.69 
L 110.247506 -104.69 
L 110.719466 -104.69 
L 111.191427 -104.69 
L 111.663387 -104.69 
L 112.135347 -104.69 
L 112.607308 -104.69 
L 113.079268 -104.69 
L 113.551229 -104.69 
L 114.023189 -104.69 
L 114.49515 -104.69 
L 114.96711 -104.69 
L 115.439071 -104.69 
L 115.911031 -104.69 
L 116.382991 -104.69 
L 116.854952 -104.69 
L 117.326912 -104.69 
L 117.798873 -104.69 
L 118.270833 -104.69 
L 118.742794 -104.69 
L 119.214754 -104.69 
L 119.686715 -104.69 
L 120.158675 -104.69 
L 120.630635 -104.69 
L 121.102596 -104.69 
L 121.574556 -104.69 
L 122.046517 -104.69 
L 122.518477 -104.69 
L 122.990438 -104.69 
L 123.462398 -104.69 
L 123.934359 -104.69 
L 124.406319 -104.69 
L 124.878279 -104.69 
L 125.35024 -104.69 
L 125.8222 -104.69 
L 126.294161 -104.69 
L 126.766121 -104.69 
L 127.238082 -104.69 
L 127.710042 -104.69 
L 128.182003 -104.69 
L 128.653963 -104.69 
L 129.125923 -104.69 
L 129.597884 -104.69 
L 130.069844 -104.69 
L 130.541805 -104.69 
L 131.013765 -104.69 
L 131.485726 -104.69 
L 131.957686 -104.69 
L 132.429646 -104.69 
L 132.901607 -104.69 
L 133.373567 -104.69 
L 133.845528 -104.69 
L 134.317488 -104.69 
L 134.789449 -104.69 
L 135.261409 -104.69 
L 135.73337 -104.69 
L 136.20533 -104.69 
L 136.67729 -104.69 
L 137.149251 -104.69 
L 137.621211 -104.69 
L 138.093172 -104.69 
L 138.565132 -104.69 
L 139.037093 -104.69 
L 139.509053 -104.69 
L 139.981014 -104.69 
L 140.452974 -104.69 
L 140.924934 -104.69 
L 141.396895 -104.69 
L 141.868855 -104.69 
L 142.340816 -104.69 
L 142.812776 -104.69 
L 143.284737 -104.69 
L 143.756697 -104.69 
L 144.228658 -104.69 
L 144.700618 -104.69 
L 145.172578 -104.69 
L 145.644539 -104.69 
L 146.116499 -104.69 
L 146.58846 -104.69 
L 147.06042 -104.69 
L 147.532381 -104.69 
L 148.004341 -104.69 
L 148.476302 -104.69 
L 148.948262 -104.69 
L 149.420222 -104.69 
L 149.892183 -104.69 
L 150.364143 -104.69 
L 150.836104 -104.69 
L 151.308064 -104.69 
L 151.780025 -104.69 
L 152.251985 -104.69 
L 152.723946 -104.69 
L 153.195906 -104.69 
L 153.667866 -104.69 
L 154.139827 -104.69 
L 154.611787 -104.69 
L 155.083748 -104.69 
L 155.555708 -104.69 
L 156.027669 -104.69 
L 156.499629 -104.69 
L 156.97159 -104.69 
L 157.44355 -104.69 
L 157.91551 -104.69 
L 158.387471 -104.69 
L 158.859431 -104.69 
L 159.331392 -104.69 
L 159.803352 -104.69 
L 160.275313 -104.69 
L 160.747273 -104.69 
L 161.219234 -104.69 
L 161.691194 -104.69 
L 162.163154 -104.69 
L 162.635115 -104.69 
L 163.107075 -104.69 
L 163.579036 -104.69 
L 164.050996 -104.69 
L 164.522957 -104.69 
L 164.994917 -104.69 
L 165.466878 -104.69 
L 165.938838 -104.69 
L 166.410798 -104.69 
L 166.882759 -104.69 
L 167.354719 -104.69 
L 167.82668 -104.69 
L 168.29864 -104.69 
L 168.770601 -104.69 
L 169.242561 -104.69 
L 169.714522 -104.69 
L 170.186482 -104.69 
L 170.658442 -104.69 
L 171.130403 -104.69 
L 171.602363 -104.69 
L 172.074324 -104.69 
L 172.546284 -104.69 
L 173.018245 -104.69 
L 173.490205 -104.69 
L 173.962166 -104.69 
L 173.962166 -106.270331 
L 173.962166 -106.270331 
L 173.490205 -106.460377 
L 173.018245 -106.665377 
L 172.546284 -106.885388 
L 172.074324 -107.120309 
L 171.602363 -107.369867 
L 171.130403 -107.633609 
L 170.658442 -107.910902 
L 170.186482 -108.200923 
L 169.714522 -108.502671 
L 169.242561 -108.814969 
L 168.770601 -109.136478 
L 168.29864 -109.465712 
L 167.82668 -109.801061 
L 167.354719 -110.140811 
L 166.882759 -110.483175 
L 166.410798 -110.826322 
L 165.938838 -111.168409 
L 165.466878 -111.507616 
L 164.994917 -111.842179 
L 164.522957 -112.170422 
L 164.050996 -112.49079 
L 163.579036 -112.801881 
L 163.107075 -113.102465 
L 162.635115 -113.391514 
L 162.163154 -113.668215 
L 161.691194 -113.931983 
L 161.219234 -114.182473 
L 160.747273 -114.419576 
L 160.275313 -114.64342 
L 159.803352 -114.854362 
L 159.331392 -115.052975 
L 158.859431 -115.240031 
L 158.387471 -115.416482 
L 157.91551 -115.583437 
L 157.44355 -115.742137 
L 156.97159 -115.893928 
L 156.499629 -116.040235 
L 156.027669 -116.182532 
L 155.555708 -116.322315 
L 155.083748 -116.461075 
L 154.611787 -116.600268 
L 154.139827 -116.741293 
L 153.667866 -116.885465 
L 153.195906 -117.033986 
L 152.723946 -117.187928 
L 152.251985 -117.348203 
L 151.780025 -117.515547 
L 151.308064 -117.69049 
L 150.836104 -117.873344 
L 150.364143 -118.064177 
L 149.892183 -118.262802 
L 149.420222 -118.468754 
L 148.948262 -118.681282 
L 148.476302 -118.899344 
L 148.004341 -119.121594 
L 147.532381 -119.346391 
L 147.06042 -119.571804 
L 146.58846 -119.795627 
L 146.116499 -120.015399 
L 145.644539 -120.228436 
L 145.172578 -120.431871 
L 144.700618 -120.622695 
L 144.228658 -120.797816 
L 143.756697 -120.954117 
L 143.284737 -121.088527 
L 142.812776 -121.198087 
L 142.340816 -121.280026 
L 141.868855 -121.33184 
L 141.396895 -121.351365 
L 140.924934 -121.336845 
L 140.452974 -121.287006 
L 139.981014 -121.201107 
L 139.509053 -121.078994 
L 139.037093 -120.921138 
L 138.565132 -120.72866 
L 138.093172 -120.503339 
L 137.621211 -120.247614 
L 137.149251 -119.964556 
L 136.67729 -119.657839 
L 136.20533 -119.331685 
L 135.73337 -118.990802 
L 135.261409 -118.640298 
L 134.789449 -118.285597 
L 134.317488 -117.932332 
L 133.845528 -117.586238 
L 133.373567 -117.253039 
L 132.901607 -116.938326 
L 132.429646 -116.647443 
L 131.957686 -116.385369 
L 131.485726 -116.15661 
L 131.013765 -115.965095 
L 130.541805 -115.814085 
L 130.069844 -115.706094 
L 129.597884 -115.64282 
L 129.125923 -115.625105 
L 128.653963 -115.652895 
L 128.182003 -115.725237 
L 127.710042 -115.840279 
L 127.238082 -115.995303 
L 126.766121 -116.18677 
L 126.294161 -116.410384 
L 125.8222 -116.661179 
L 125.35024 -116.933612 
L 124.878279 -117.221685 
L 124.406319 -117.51906 
L 123.934359 -117.8192 
L 123.462398 -118.115504 
L 122.990438 -118.401449 
L 122.518477 -118.670733 
L 122.046517 -118.917409 
L 121.574556 -119.136015 
L 121.102596 -119.321689 
L 120.630635 -119.470277 
L 120.158675 -119.578416 
L 119.686715 -119.643603 
L 119.214754 -119.664244 
L 118.742794 -119.639676 
L 118.270833 -119.570172 
L 117.798873 -119.456921 
L 117.326912 -119.301986 
L 116.854952 -119.108243 
L 116.382991 -118.879298 
L 115.911031 -118.619393 
L 115.439071 -118.333294 
L 114.96711 -118.026169 
L 114.49515 -117.703462 
L 114.023189 -117.370761 
L 113.551229 -117.033668 
L 113.079268 -116.69767 
L 112.607308 -116.368021 
L 112.135347 -116.04963 
L 111.663387 -115.746967 
L 111.191427 -115.463977 
L 110.719466 -115.20402 
L 110.247506 -114.969816 
L 109.775545 -114.763421 
L 109.303585 -114.586218 
L 108.831624 -114.438917 
L 108.359664 -114.321586 
L 107.887703 -114.233685 
L 107.415743 -114.174121 
L 106.943783 -114.14131 
L 106.471822 -114.133246 
L 105.999862 -114.147585 
L 105.527901 -114.181718 
L 105.055941 -114.232854 
L 104.58398 -114.298098 
L 104.11202 -114.374526 
L 103.640059 -114.459249 
L 103.168099 -114.549472 
L 102.696139 -114.642546 
L 102.224178 -114.736001 
L 101.752218 -114.82758 
L 101.280257 -114.915248 
L 100.808297 -114.997205 
L 100.336336 -115.071881 
L 99.864376 -115.137923 
L 99.392415 -115.194178 
L 98.920455 -115.239671 
L 98.448495 -115.273578 
L 97.976534 -115.295195 
L 97.504574 -115.303918 
L 97.032613 -115.299208 
L 96.560653 -115.280575 
L 96.088692 -115.247558 
L 95.616732 -115.199714 
L 95.144771 -115.136608 
L 94.672811 -115.057817 
L 94.200851 -114.962932 
L 93.72889 -114.851571 
L 93.25693 -114.723395 
L 92.784969 -114.578125 
L 92.313009 -114.415569 
L 91.841048 -114.235637 
L 91.369088 -114.038372 
L 90.897127 -113.823968 
L 90.425167 -113.592787 
L 89.953207 -113.345377 
L 89.481246 -113.082478 
L 89.009286 -112.805033 
L 88.537325 -112.514177 
L 88.065365 -112.211237 
L 87.593404 -111.897718 
L 87.121444 -111.575278 
L 86.649483 -111.245709 
L 86.177523 -110.910908 
L 85.705563 -110.572843 
L 85.233602 -110.233522 
L 84.761642 -109.894957 
L 84.289681 -109.559128 
L 83.817721 -109.227952 
L 83.34576 -108.903249 
L 82.8738 -108.586716 
L 82.40184 -108.2799 
L 81.929879 -107.984179 
L 81.457919 -107.700748 
L 80.985958 -107.430604 
L 80.513998 -107.174544 
L 80.042037 -106.933163 
z
" style="stroke: #21918c; stroke-width: 1.25"/>
    </defs>
    <g>
     <use xlink:href="#md85e548a50" x="0" y="174.26" style="fill: #21918c; fill-opacity: 0.7; stroke: #21918c; stroke-width: 1.25"/>
    </g>
   </g>
   <g id="line2d_3">
    <path d="M 7.2 69.57 
L 216.45 69.57 
" style="fill: none; stroke: #21918c; stroke-opacity: 0.9; stroke-linecap: round"/>
   </g>
   <g id="text_3">
    <!-- 2 -->
    <g style="fill: #21918c" transform="translate(7.2 68.652) scale(0.12 -0.12)">
     <defs>
      <path id="IBMPlexSans-Bold-32" d="M 3526 0 
L 365 0 
L 365 877 
L 1741 2054 
Q 1926 2214 2054 2345 
Q 2182 2477 2262 2601 
Q 2342 2726 2377 2848 
Q 2413 2970 2413 3110 
L 2413 3200 
Q 2413 3328 2361 3424 
Q 2310 3520 2227 3584 
Q 2144 3648 2038 3680 
Q 1933 3712 1824 3712 
Q 1664 3712 1545 3661 
Q 1427 3610 1340 3523 
Q 1254 3437 1196 3325 
Q 1139 3213 1107 3085 
L 269 3405 
Q 346 3635 480 3843 
Q 614 4051 816 4208 
Q 1018 4365 1293 4454 
Q 1568 4544 1914 4544 
Q 2278 4544 2560 4441 
Q 2842 4339 3037 4160 
Q 3232 3981 3334 3734 
Q 3437 3488 3437 3200 
Q 3437 2912 3341 2675 
Q 3245 2438 3081 2230 
Q 2918 2022 2700 1836 
Q 2483 1651 2246 1459 
L 1414 806 
L 3526 806 
L 3526 0 
z
" transform="scale(0.015625)"/>
     </defs>
     <use xlink:href="#IBMPlexSans-Bold-32"/>
    </g>
   </g>
  </g>
  <g id="axes_4">
   <g id="patch_5">
    <path d="M 7.2 79.965 
L 216.45 79.965 
L 216.45 38.385 
L 7.2 38.385 
L 7.2 79.965 
z
" style="fill: none"/>
   </g>
   <g id="matplotlib.axis_7">
    <g id="xtick_13"/>
    <g id="xtick_14"/>
    <g id="xtick_15"/>
    <g id="xtick_16"/>
   </g>
   <g id="matplotlib.axis_8"/>
   <g id="FillBetweenPolyCollection_3">
    <defs>
     <path id="m7f7718e846" d="M 48.789294 -95.573126 
L 48.789294 -94.295 
L 49.499417 -94.295 
L 50.20954 -94.295 
L 50.919663 -94.295 
L 51.629787 -94.295 
L 52.33991 -94.295 
L 53.050033 -94.295 
L 53.760156 -94.295 
L 54.47028 -94.295 
L 55.180403 -94.295 
L 55.890526 -94.295 
L 56.600649 -94.295 
L 57.310773 -94.295 
L 58.020896 -94.295 
L 58.731019 -94.295 
L 59.441142 -94.295 
L 60.151266 -94.295 
L 60.861389 -94.295 
L 61.571512 -94.295 
L 62.281636 -94.295 
L 62.991759 -94.295 
L 63.701882 -94.295 
L 64.412005 -94.295 
L 65.122129 -94.295 
L 65.832252 -94.295 
L 66.542375 -94.295 
L 67.252498 -94.295 
L 67.962622 -94.295 
L 68.672745 -94.295 
L 69.382868 -94.295 
L 70.092991 -94.295 
L 70.803115 -94.295 
L 71.513238 -94.295 
L 72.223361 -94.295 
L 72.933484 -94.295 
L 73.643608 -94.295 
L 74.353731 -94.295 
L 75.063854 -94.295 
L 75.773977 -94.295 
L 76.484101 -94.295 
L 77.194224 -94.295 
L 77.904347 -94.295 
L 78.61447 -94.295 
L 79.324594 -94.295 
L 80.034717 -94.295 
L 80.74484 -94.295 
L 81.454963 -94.295 
L 82.165087 -94.295 
L 82.87521 -94.295 
L 83.585333 -94.295 
L 84.295457 -94.295 
L 85.00558 -94.295 
L 85.715703 -94.295 
L 86.425826 -94.295 
L 87.13595 -94.295 
L 87.846073 -94.295 
L 88.556196 -94.295 
L 89.266319 -94.295 
L 89.976443 -94.295 
L 90.686566 -94.295 
L 91.396689 -94.295 
L 92.106812 -94.295 
L 92.816936 -94.295 
L 93.527059 -94.295 
L 94.237182 -94.295 
L 94.947305 -94.295 
L 95.657429 -94.295 
L 96.367552 -94.295 
L 97.077675 -94.295 
L 97.787798 -94.295 
L 98.497922 -94.295 
L 99.208045 -94.295 
L 99.918168 -94.295 
L 100.628291 -94.295 
L 101.338415 -94.295 
L 102.048538 -94.295 
L 102.758661 -94.295 
L 103.468785 -94.295 
L 104.178908 -94.295 
L 104.889031 -94.295 
L 105.599154 -94.295 
L 106.309278 -94.295 
L 107.019401 -94.295 
L 107.729524 -94.295 
L 108.439647 -94.295 
L 109.149771 -94.295 
L 109.859894 -94.295 
L 110.570017 -94.295 
L 111.28014 -94.295 
L 111.990264 -94.295 
L 112.700387 -94.295 
L 113.41051 -94.295 
L 114.120633 -94.295 
L 114.830757 -94.295 
L 115.54088 -94.295 
L 116.251003 -94.295 
L 116.961126 -94.295 
L 117.67125 -94.295 
L 118.381373 -94.295 
L 119.091496 -94.295 
L 119.801619 -94.295 
L 120.511743 -94.295 
L 121.221866 -94.295 
L 121.931989 -94.295 
L 122.642113 -94.295 
L 123.352236 -94.295 
L 124.062359 -94.295 
L 124.772482 -94.295 
L 125.482606 -94.295 
L 126.192729 -94.295 
L 126.902852 -94.295 
L 127.612975 -94.295 
L 128.323099 -94.295 
L 129.033222 -94.295 
L 129.743345 -94.295 
L 130.453468 -94.295 
L 131.163592 -94.295 
L 131.873715 -94.295 
L 132.583838 -94.295 
L 133.293961 -94.295 
L 134.004085 -94.295 
L 134.714208 -94.295 
L 135.424331 -94.295 
L 136.134454 -94.295 
L 136.844578 -94.295 
L 137.554701 -94.295 
L 138.264824 -94.295 
L 138.974947 -94.295 
L 139.685071 -94.295 
L 140.395194 -94.295 
L 141.105317 -94.295 
L 141.815441 -94.295 
L 142.525564 -94.295 
L 143.235687 -94.295 
L 143.94581 -94.295 
L 144.655934 -94.295 
L 145.366057 -94.295 
L 146.07618 -94.295 
L 146.786303 -94.295 
L 147.496427 -94.295 
L 148.20655 -94.295 
L 148.916673 -94.295 
L 149.626796 -94.295 
L 150.33692 -94.295 
L 151.047043 -94.295 
L 151.757166 -94.295 
L 152.467289 -94.295 
L 153.177413 -94.295 
L 153.887536 -94.295 
L 154.597659 -94.295 
L 155.307782 -94.295 
L 156.017906 -94.295 
L 156.728029 -94.295 
L 157.438152 -94.295 
L 158.148275 -94.295 
L 158.858399 -94.295 
L 159.568522 -94.295 
L 160.278645 -94.295 
L 160.988769 -94.295 
L 161.698892 -94.295 
L 162.409015 -94.295 
L 163.119138 -94.295 
L 163.829262 -94.295 
L 164.539385 -94.295 
L 165.249508 -94.295 
L 165.959631 -94.295 
L 166.669755 -94.295 
L 167.379878 -94.295 
L 168.090001 -94.295 
L 168.800124 -94.295 
L 169.510248 -94.295 
L 170.220371 -94.295 
L 170.930494 -94.295 
L 171.640617 -94.295 
L 172.350741 -94.295 
L 173.060864 -94.295 
L 173.770987 -94.295 
L 174.48111 -94.295 
L 175.191234 -94.295 
L 175.901357 -94.295 
L 176.61148 -94.295 
L 177.321603 -94.295 
L 178.031727 -94.295 
L 178.74185 -94.295 
L 179.451973 -94.295 
L 180.162096 -94.295 
L 180.87222 -94.295 
L 181.582343 -94.295 
L 182.292466 -94.295 
L 183.00259 -94.295 
L 183.712713 -94.295 
L 184.422836 -94.295 
L 185.132959 -94.295 
L 185.843083 -94.295 
L 186.553206 -94.295 
L 187.263329 -94.295 
L 187.973452 -94.295 
L 188.683576 -94.295 
L 189.393699 -94.295 
L 190.103822 -94.295 
L 190.103822 -95.491494 
L 190.103822 -95.491494 
L 189.393699 -95.625771 
L 188.683576 -95.769354 
L 187.973452 -95.922127 
L 187.263329 -96.08387 
L 186.553206 -96.254255 
L 185.843083 -96.432846 
L 185.132959 -96.619099 
L 184.422836 -96.812367 
L 183.712713 -97.011904 
L 183.00259 -97.216874 
L 182.292466 -97.426363 
L 181.582343 -97.639388 
L 180.87222 -97.854916 
L 180.162096 -98.071878 
L 179.451973 -98.289187 
L 178.74185 -98.50576 
L 178.031727 -98.720529 
L 177.321603 -98.93247 
L 176.61148 -99.140614 
L 175.901357 -99.344067 
L 175.191234 -99.542027 
L 174.48111 -99.733799 
L 173.770987 -99.918803 
L 173.060864 -100.096588 
L 172.350741 -100.266835 
L 171.640617 -100.429365 
L 170.930494 -100.584139 
L 170.220371 -100.731255 
L 169.510248 -100.870946 
L 168.800124 -101.00357 
L 168.090001 -101.129606 
L 167.379878 -101.249641 
L 166.669755 -101.364354 
L 165.959631 -101.474507 
L 165.249508 -101.580927 
L 164.539385 -101.684491 
L 163.829262 -101.786108 
L 163.119138 -101.886701 
L 162.409015 -101.987194 
L 161.698892 -102.088487 
L 160.988769 -102.191445 
L 160.278645 -102.296877 
L 159.568522 -102.405521 
L 158.858399 -102.518023 
L 158.148275 -102.634923 
L 157.438152 -102.75664 
L 156.728029 -102.883454 
L 156.017906 -103.015495 
L 155.307782 -103.152725 
L 154.597659 -103.294932 
L 153.887536 -103.441718 
L 153.177413 -103.592495 
L 152.467289 -103.746477 
L 151.757166 -103.902685 
L 151.047043 -104.059948 
L 150.33692 -104.216913 
L 149.626796 -104.372058 
L 148.916673 -104.523708 
L 148.20655 -104.670062 
L 147.496427 -104.809219 
L 146.786303 -104.939209 
L 146.07618 -105.058034 
L 145.366057 -105.163707 
L 144.655934 -105.254296 
L 143.94581 -105.327971 
L 143.235687 -105.383049 
L 142.525564 -105.418042 
L 141.815441 -105.431704 
L 141.105317 -105.423071 
L 140.395194 -105.391499 
L 139.685071 -105.3367 
L 138.974947 -105.258767 
L 138.264824 -105.158192 
L 137.554701 -105.035877 
L 136.844578 -104.893137 
L 136.134454 -104.731691 
L 135.424331 -104.553644 
L 134.714208 -104.361458 
L 134.004085 -104.157921 
L 133.293961 -103.946093 
L 132.583838 -103.729261 
L 131.873715 -103.510873 
L 131.163592 -103.294475 
L 130.453468 -103.083642 
L 129.743345 -102.881901 
L 129.033222 -102.692663 
L 128.323099 -102.519145 
L 127.612975 -102.364304 
L 126.902852 -102.230766 
L 126.192729 -102.120772 
L 125.482606 -102.036115 
L 124.772482 -101.978105 
L 124.062359 -101.947528 
L 123.352236 -101.944625 
L 122.642113 -101.969077 
L 121.931989 -102.020007 
L 121.221866 -102.095991 
L 120.511743 -102.195083 
L 119.801619 -102.31485 
L 119.091496 -102.452423 
L 118.381373 -102.604553 
L 117.67125 -102.767676 
L 116.961126 -102.937994 
L 116.251003 -103.111552 
L 115.54088 -103.284322 
L 114.830757 -103.452296 
L 114.120633 -103.611568 
L 113.41051 -103.758421 
L 112.700387 -103.889409 
L 111.990264 -104.001431 
L 111.28014 -104.091796 
L 110.570017 -104.158282 
L 109.859894 -104.199181 
L 109.149771 -104.213327 
L 108.439647 -104.200125 
L 107.729524 -104.159546 
L 107.019401 -104.092126 
L 106.309278 -103.998944 
L 105.599154 -103.881585 
L 104.889031 -103.742095 
L 104.178908 -103.582929 
L 103.468785 -103.406878 
L 102.758661 -103.217007 
L 102.048538 -103.016571 
L 101.338415 -102.808941 
L 100.628291 -102.59752 
L 99.918168 -102.385671 
L 99.208045 -102.176639 
L 98.497922 -101.973481 
L 97.787798 -101.779009 
L 97.077675 -101.595736 
L 96.367552 -101.425831 
L 95.657429 -101.27109 
L 94.947305 -101.132911 
L 94.237182 -101.012286 
L 93.527059 -100.909801 
L 92.816936 -100.825648 
L 92.106812 -100.759641 
L 91.396689 -100.711249 
L 90.686566 -100.679629 
L 89.976443 -100.66367 
L 89.266319 -100.662032 
L 88.556196 -100.6732 
L 87.846073 -100.695527 
L 87.13595 -100.727284 
L 86.425826 -100.766704 
L 85.715703 -100.812024 
L 85.00558 -100.86152 
L 84.295457 -100.913539 
L 83.585333 -100.966527 
L 82.87521 -101.019042 
L 82.165087 -101.069772 
L 81.454963 -101.11754 
L 80.74484 -101.161303 
L 80.034717 -101.200149 
L 79.324594 -101.233287 
L 78.61447 -101.260035 
L 77.904347 -101.279809 
L 77.194224 -101.292102 
L 76.484101 -101.296473 
L 75.773977 -101.292529 
L 75.063854 -101.279914 
L 74.353731 -101.258297 
L 73.643608 -101.227362 
L 72.933484 -101.186809 
L 72.223361 -101.136349 
L 71.513238 -101.075705 
L 70.803115 -101.004621 
L 70.092991 -100.922873 
L 69.382868 -100.83027 
L 68.672745 -100.726679 
L 67.962622 -100.612028 
L 67.252498 -100.486326 
L 66.542375 -100.349672 
L 65.832252 -100.202269 
L 65.122129 -100.044432 
L 64.412005 -99.876593 
L 63.701882 -99.699309 
L 62.991759 -99.513257 
L 62.281636 -99.319233 
L 61.571512 -99.118143 
L 60.861389 -98.910996 
L 60.151266 -98.698888 
L 59.441142 -98.482983 
L 58.731019 -98.2645 
L 58.020896 -98.044689 
L 57.310773 -97.824813 
L 56.600649 -97.606124 
L 55.890526 -97.389844 
L 55.180403 -97.177144 
L 54.47028 -96.969127 
L 53.760156 -96.766813 
L 53.050033 -96.571123 
L 52.33991 -96.382868 
L 51.629787 -96.202744 
L 50.919663 -96.031321 
L 50.20954 -95.869048 
L 49.499417 -95.716249 
L 48.789294 -95.573126 
z
" style="stroke: #355f8d; stroke-width: 1.25"/>
    </defs>
    <g>
     <use xlink:href="#m7f7718e846" x="0" y="174.26" style="fill: #355f8d; fill-opacity: 0.7; stroke: #355f8d; stroke-width: 1.25"/>
    </g>
   </g>
   <g id="line2d_4">
    <path d="M 7.2 79.965 
L 216.45 79.965 
" style="fill: none; stroke: #355f8d; stroke-opacity: 0.9; stroke-linecap: round"/>
   </g>
   <g id="text_4">
    <!-- 3 -->
    <g style="fill: #355f8d" transform="translate(7.2 79.047) scale(0.12 -0.12)">
     <defs>
      <path id="IBMPlexSans-Bold-33" d="M 1677 2701 
Q 2035 2701 2198 2838 
Q 2362 2976 2362 3181 
L 2362 3226 
Q 2362 3469 2205 3616 
Q 2048 3763 1760 3763 
Q 1491 3763 1254 3625 
Q 1018 3488 851 3232 
L 250 3795 
Q 378 3962 525 4099 
Q 672 4237 857 4336 
Q 1043 4435 1273 4489 
Q 1504 4544 1792 4544 
Q 2150 4544 2441 4461 
Q 2733 4378 2941 4221 
Q 3149 4064 3261 3846 
Q 3373 3629 3373 3360 
Q 3373 3149 3305 2976 
Q 3238 2803 3120 2675 
Q 3002 2547 2848 2467 
Q 2694 2387 2522 2355 
L 2522 2317 
Q 2720 2278 2889 2192 
Q 3059 2106 3184 1971 
Q 3309 1837 3379 1654 
Q 3450 1472 3450 1242 
Q 3450 941 3328 697 
Q 3206 454 2982 281 
Q 2758 109 2444 16 
Q 2131 -77 1754 -77 
Q 1414 -77 1152 -6 
Q 890 64 694 182 
Q 499 301 355 454 
Q 211 608 102 781 
L 813 1331 
Q 960 1056 1174 880 
Q 1389 704 1754 704 
Q 2080 704 2262 867 
Q 2445 1030 2445 1312 
L 2445 1350 
Q 2445 1626 2237 1763 
Q 2029 1901 1664 1901 
L 1261 1901 
L 1261 2701 
L 1677 2701 
z
" transform="scale(0.015625)"/>
     </defs>
     <use xlink:href="#IBMPlexSans-Bold-33"/>
    </g>
   </g>
  </g>
  <g id="axes_5">
   <g id="patch_6">
    <path d="M 7.2 90.36 
L 216.45 90.36 
L 216.45 48.78 
L 7.2 48.78 
L 7.2 90.36 
z
" style="fill: none"/>
   </g>
   <g id="matplotlib.axis_9">
    <g id="xtick_17"/>
    <g id="xtick_18"/>
    <g id="xtick_19"/>
    <g id="xtick_20"/>
   </g>
   <g id="matplotlib.axis_10"/>
   <g id="FillBetweenPolyCollection_4">
    <defs>
     <path id="m10723d9f04" d="M 16.711364 -84.673959 
L 16.711364 -83.9 
L 17.66728 -83.9 
L 18.623196 -83.9 
L 19.579111 -83.9 
L 20.535027 -83.9 
L 21.490943 -83.9 
L 22.446859 -83.9 
L 23.402775 -83.9 
L 24.358691 -83.9 
L 25.314607 -83.9 
L 26.270523 -83.9 
L 27.226439 -83.9 
L 28.182355 -83.9 
L 29.138271 -83.9 
L 30.094187 -83.9 
L 31.050103 -83.9 
L 32.006019 -83.9 
L 32.961935 -83.9 
L 33.917851 -83.9 
L 34.873767 -83.9 
L 35.829683 -83.9 
L 36.785598 -83.9 
L 37.741514 -83.9 
L 38.69743 -83.9 
L 39.653346 -83.9 
L 40.609262 -83.9 
L 41.565178 -83.9 
L 42.521094 -83.9 
L 43.47701 -83.9 
L 44.432926 -83.9 
L 45.388842 -83.9 
L 46.344758 -83.9 
L 47.300674 -83.9 
L 48.25659 -83.9 
L 49.212506 -83.9 
L 50.168422 -83.9 
L 51.124338 -83.9 
L 52.080254 -83.9 
L 53.036169 -83.9 
L 53.992085 -83.9 
L 54.948001 -83.9 
L 55.903917 -83.9 
L 56.859833 -83.9 
L 57.815749 -83.9 
L 58.771665 -83.9 
L 59.727581 -83.9 
L 60.683497 -83.9 
L 61.639413 -83.9 
L 62.595329 -83.9 
L 63.551245 -83.9 
L 64.507161 -83.9 
L 65.463077 -83.9 
L 66.418993 -83.9 
L 67.374909 -83.9 
L 68.330825 -83.9 
L 69.286741 -83.9 
L 70.242656 -83.9 
L 71.198572 -83.9 
L 72.154488 -83.9 
L 73.110404 -83.9 
L 74.06632 -83.9 
L 75.022236 -83.9 
L 75.978152 -83.9 
L 76.934068 -83.9 
L 77.889984 -83.9 
L 78.8459 -83.9 
L 79.801816 -83.9 
L 80.757732 -83.9 
L 81.713648 -83.9 
L 82.669564 -83.9 
L 83.62548 -83.9 
L 84.581396 -83.9 
L 85.537312 -83.9 
L 86.493228 -83.9 
L 87.449143 -83.9 
L 88.405059 -83.9 
L 89.360975 -83.9 
L 90.316891 -83.9 
L 91.272807 -83.9 
L 92.228723 -83.9 
L 93.184639 -83.9 
L 94.140555 -83.9 
L 95.096471 -83.9 
L 96.052387 -83.9 
L 97.008303 -83.9 
L 97.964219 -83.9 
L 98.920135 -83.9 
L 99.876051 -83.9 
L 100.831967 -83.9 
L 101.787883 -83.9 
L 102.743799 -83.9 
L 103.699714 -83.9 
L 104.65563 -83.9 
L 105.611546 -83.9 
L 106.567462 -83.9 
L 107.523378 -83.9 
L 108.479294 -83.9 
L 109.43521 -83.9 
L 110.391126 -83.9 
L 111.347042 -83.9 
L 112.302958 -83.9 
L 113.258874 -83.9 
L 114.21479 -83.9 
L 115.170706 -83.9 
L 116.126622 -83.9 
L 117.082538 -83.9 
L 118.038454 -83.9 
L 118.99437 -83.9 
L 119.950286 -83.9 
L 120.906201 -83.9 
L 121.862117 -83.9 
L 122.818033 -83.9 
L 123.773949 -83.9 
L 124.729865 -83.9 
L 125.685781 -83.9 
L 126.641697 -83.9 
L 127.597613 -83.9 
L 128.553529 -83.9 
L 129.509445 -83.9 
L 130.465361 -83.9 
L 131.421277 -83.9 
L 132.377193 -83.9 
L 133.333109 -83.9 
L 134.289025 -83.9 
L 135.244941 -83.9 
L 136.200857 -83.9 
L 137.156772 -83.9 
L 138.112688 -83.9 
L 139.068604 -83.9 
L 140.02452 -83.9 
L 140.980436 -83.9 
L 141.936352 -83.9 
L 142.892268 -83.9 
L 143.848184 -83.9 
L 144.8041 -83.9 
L 145.760016 -83.9 
L 146.715932 -83.9 
L 147.671848 -83.9 
L 148.627764 -83.9 
L 149.58368 -83.9 
L 150.539596 -83.9 
L 151.495512 -83.9 
L 152.451428 -83.9 
L 153.407344 -83.9 
L 154.363259 -83.9 
L 155.319175 -83.9 
L 156.275091 -83.9 
L 157.231007 -83.9 
L 158.186923 -83.9 
L 159.142839 -83.9 
L 160.098755 -83.9 
L 161.054671 -83.9 
L 162.010587 -83.9 
L 162.966503 -83.9 
L 163.922419 -83.9 
L 164.878335 -83.9 
L 165.834251 -83.9 
L 166.790167 -83.9 
L 167.746083 -83.9 
L 168.701999 -83.9 
L 169.657915 -83.9 
L 170.613831 -83.9 
L 171.569746 -83.9 
L 172.525662 -83.9 
L 173.481578 -83.9 
L 174.437494 -83.9 
L 175.39341 -83.9 
L 176.349326 -83.9 
L 177.305242 -83.9 
L 178.261158 -83.9 
L 179.217074 -83.9 
L 180.17299 -83.9 
L 181.128906 -83.9 
L 182.084822 -83.9 
L 183.040738 -83.9 
L 183.996654 -83.9 
L 184.95257 -83.9 
L 185.908486 -83.9 
L 186.864402 -83.9 
L 187.820317 -83.9 
L 188.776233 -83.9 
L 189.732149 -83.9 
L 190.688065 -83.9 
L 191.643981 -83.9 
L 192.599897 -83.9 
L 193.555813 -83.9 
L 194.511729 -83.9 
L 195.467645 -83.9 
L 196.423561 -83.9 
L 197.379477 -83.9 
L 198.335393 -83.9 
L 199.291309 -83.9 
L 200.247225 -83.9 
L 201.203141 -83.9 
L 202.159057 -83.9 
L 203.114973 -83.9 
L 204.070889 -83.9 
L 205.026804 -83.9 
L 205.98272 -83.9 
L 206.938636 -83.9 
L 206.938636 -84.840886 
L 206.938636 -84.840886 
L 205.98272 -84.942141 
L 205.026804 -85.049818 
L 204.070889 -85.16376 
L 203.114973 -85.283738 
L 202.159057 -85.409449 
L 201.203141 -85.540519 
L 200.247225 -85.676504 
L 199.291309 -85.816897 
L 198.335393 -85.961132 
L 197.379477 -86.10859 
L 196.423561 -86.25861 
L 195.467645 -86.4105 
L 194.511729 -86.563545 
L 193.555813 -86.71702 
L 192.599897 -86.870203 
L 191.643981 -87.022387 
L 190.688065 -87.172891 
L 189.732149 -87.321074 
L 188.776233 -87.466346 
L 187.820317 -87.608177 
L 186.864402 -87.746107 
L 185.908486 -87.879755 
L 184.95257 -88.008823 
L 183.996654 -88.133103 
L 183.040738 -88.252477 
L 182.084822 -88.366923 
L 181.128906 -88.476508 
L 180.17299 -88.581392 
L 179.217074 -88.681818 
L 178.261158 -88.778111 
L 177.305242 -88.870669 
L 176.349326 -88.959956 
L 175.39341 -89.046491 
L 174.437494 -89.130839 
L 173.481578 -89.2136 
L 172.525662 -89.295398 
L 171.569746 -89.376867 
L 170.613831 -89.458639 
L 169.657915 -89.541332 
L 168.701999 -89.62554 
L 167.746083 -89.711813 
L 166.790167 -89.80065 
L 165.834251 -89.892486 
L 164.878335 -89.987679 
L 163.922419 -90.086495 
L 162.966503 -90.189103 
L 162.010587 -90.295562 
L 161.054671 -90.405812 
L 160.098755 -90.519666 
L 159.142839 -90.636807 
L 158.186923 -90.756779 
L 157.231007 -90.878992 
L 156.275091 -91.002716 
L 155.319175 -91.127091 
L 154.363259 -91.251128 
L 153.407344 -91.373722 
L 152.451428 -91.493667 
L 151.495512 -91.609666 
L 150.539596 -91.720359 
L 149.58368 -91.82434 
L 148.627764 -91.920185 
L 147.671848 -92.00648 
L 146.715932 -92.08185 
L 145.760016 -92.144993 
L 144.8041 -92.19471 
L 143.848184 -92.22994 
L 142.892268 -92.249786 
L 141.936352 -92.253549 
L 140.980436 -92.240755 
L 140.02452 -92.211173 
L 139.068604 -92.16484 
L 138.112688 -92.102071 
L 137.156772 -92.023469 
L 136.200857 -91.929927 
L 135.244941 -91.82262 
L 134.289025 -91.703 
L 133.333109 -91.572771 
L 132.377193 -91.43387 
L 131.421277 -91.288433 
L 130.465361 -91.138759 
L 129.509445 -90.987267 
L 128.553529 -90.836453 
L 127.597613 -90.688836 
L 126.641697 -90.546911 
L 125.685781 -90.413095 
L 124.729865 -90.289672 
L 123.773949 -90.178748 
L 122.818033 -90.082196 
L 121.862117 -90.001617 
L 120.906201 -89.938302 
L 119.950286 -89.893193 
L 118.99437 -89.866865 
L 118.038454 -89.859503 
L 117.082538 -89.870899 
L 116.126622 -89.900446 
L 115.170706 -89.94715 
L 114.21479 -90.00965 
L 113.258874 -90.086241 
L 112.302958 -90.174914 
L 111.347042 -90.273395 
L 110.391126 -90.379197 
L 109.43521 -90.489673 
L 108.479294 -90.602076 
L 107.523378 -90.713621 
L 106.567462 -90.821543 
L 105.611546 -90.923168 
L 104.65563 -91.015962 
L 103.699714 -91.097596 
L 102.743799 -91.165992 
L 101.787883 -91.219371 
L 100.831967 -91.256288 
L 99.876051 -91.275661 
L 98.920135 -91.276792 
L 97.964219 -91.259374 
L 97.008303 -91.223496 
L 96.052387 -91.16963 
L 95.096471 -91.098612 
L 94.140555 -91.011618 
L 93.184639 -90.910126 
L 92.228723 -90.795877 
L 91.272807 -90.670825 
L 90.316891 -90.53709 
L 89.360975 -90.396903 
L 88.405059 -90.252551 
L 87.449143 -90.106322 
L 86.493228 -89.960456 
L 85.537312 -89.817096 
L 84.581396 -89.678241 
L 83.62548 -89.545708 
L 82.669564 -89.421104 
L 81.713648 -89.305792 
L 80.757732 -89.20088 
L 79.801816 -89.107208 
L 78.8459 -89.025342 
L 77.889984 -88.955583 
L 76.934068 -88.897971 
L 75.978152 -88.852306 
L 75.022236 -88.818167 
L 74.06632 -88.79494 
L 73.110404 -88.781842 
L 72.154488 -88.777954 
L 71.198572 -88.782254 
L 70.242656 -88.793645 
L 69.286741 -88.810986 
L 68.330825 -88.833121 
L 67.374909 -88.858904 
L 66.418993 -88.88722 
L 65.463077 -88.917001 
L 64.507161 -88.947245 
L 63.551245 -88.97702 
L 62.595329 -89.005475 
L 61.639413 -89.031836 
L 60.683497 -89.05541 
L 59.727581 -89.075577 
L 58.771665 -89.091786 
L 57.815749 -89.103543 
L 56.859833 -89.110407 
L 55.903917 -89.111977 
L 54.948001 -89.107887 
L 53.992085 -89.097795 
L 53.036169 -89.081379 
L 52.080254 -89.058334 
L 51.124338 -89.028368 
L 50.168422 -88.991205 
L 49.212506 -88.946586 
L 48.25659 -88.894276 
L 47.300674 -88.834069 
L 46.344758 -88.765794 
L 45.388842 -88.68933 
L 44.432926 -88.604611 
L 43.47701 -88.511634 
L 42.521094 -88.410472 
L 41.565178 -88.301278 
L 40.609262 -88.184292 
L 39.653346 -88.059846 
L 38.69743 -87.928361 
L 37.741514 -87.790352 
L 36.785598 -87.646418 
L 35.829683 -87.497243 
L 34.873767 -87.343581 
L 33.917851 -87.186251 
L 32.961935 -87.026118 
L 32.006019 -86.864087 
L 31.050103 -86.701083 
L 30.094187 -86.538036 
L 29.138271 -86.375868 
L 28.182355 -86.215477 
L 27.226439 -86.057723 
L 26.270523 -85.903414 
L 25.314607 -85.753296 
L 24.358691 -85.608042 
L 23.402775 -85.468247 
L 22.446859 -85.334418 
L 21.490943 -85.206974 
L 20.535027 -85.086245 
L 19.579111 -84.97247 
L 18.623196 -84.865798 
L 17.66728 -84.766298 
L 16.711364 -84.673959 
z
" style="stroke: #482475; stroke-width: 1.25"/>
    </defs>
    <g>
     <use xlink:href="#m10723d9f04" x="0" y="174.26" style="fill: #482475; fill-opacity: 0.7; stroke: #482475; stroke-width: 1.25"/>
    </g>
   </g>
   <g id="line2d_5">
    <path d="M 7.2 90.36 
L 216.45 90.36 
" style="fill: none; stroke: #482475; stroke-opacity: 0.9; stroke-linecap: round"/>
   </g>
   <g id="text_5">
    <!-- 4 -->
    <g style="fill: #482475" transform="translate(7.2 89.442) scale(0.12 -0.12)">
     <defs>
      <path id="IBMPlexSans-Bold-34" d="M 2157 0 
L 2157 858 
L 192 858 
L 192 1677 
L 1933 4467 
L 3072 4467 
L 3072 1600 
L 3635 1600 
L 3635 858 
L 3072 858 
L 3072 0 
L 2157 0 
z
M 960 1600 
L 2157 1600 
L 2157 3475 
L 2093 3475 
L 960 1600 
z
" transform="scale(0.015625)"/>
     </defs>
     <use xlink:href="#IBMPlexSans-Bold-34"/>
    </g>
   </g>
  </g>
  <g id="axes_6">
   <g id="patch_7">
    <path d="M 7.2 100.755 
L 216.45 100.755 
L 216.45 59.175 
L 7.2 59.175 
L 7.2 100.755 
z
" style="fill: none"/>
   </g>
   <g id="matplotlib.axis_11">
    <g id="xtick_21"/>
    <g id="xtick_22"/>
    <g id="xtick_23"/>
    <g id="xtick_24"/>
   </g>
   <g id="matplotlib.axis_12"/>
   <g id="FillBetweenPolyCollection_5">
    <defs>
     <path id="mda99a14496" d="M 45.743542 -74.407786 
L 45.743542 -73.505 
L 46.466223 -73.505 
L 47.188904 -73.505 
L 47.911584 -73.505 
L 48.634265 -73.505 
L 49.356946 -73.505 
L 50.079626 -73.505 
L 50.802307 -73.505 
L 51.524988 -73.505 
L 52.247668 -73.505 
L 52.970349 -73.505 
L 53.693029 -73.505 
L 54.41571 -73.505 
L 55.138391 -73.505 
L 55.861071 -73.505 
L 56.583752 -73.505 
L 57.306433 -73.505 
L 58.029113 -73.505 
L 58.751794 -73.505 
L 59.474475 -73.505 
L 60.197155 -73.505 
L 60.919836 -73.505 
L 61.642516 -73.505 
L 62.365197 -73.505 
L 63.087878 -73.505 
L 63.810558 -73.505 
L 64.533239 -73.505 
L 65.25592 -73.505 
L 65.9786 -73.505 
L 66.701281 -73.505 
L 67.423961 -73.505 
L 68.146642 -73.505 
L 68.869323 -73.505 
L 69.592003 -73.505 
L 70.314684 -73.505 
L 71.037365 -73.505 
L 71.760045 -73.505 
L 72.482726 -73.505 
L 73.205407 -73.505 
L 73.928087 -73.505 
L 74.650768 -73.505 
L 75.373448 -73.505 
L 76.096129 -73.505 
L 76.81881 -73.505 
L 77.54149 -73.505 
L 78.264171 -73.505 
L 78.986852 -73.505 
L 79.709532 -73.505 
L 80.432213 -73.505 
L 81.154893 -73.505 
L 81.877574 -73.505 
L 82.600255 -73.505 
L 83.322935 -73.505 
L 84.045616 -73.505 
L 84.768297 -73.505 
L 85.490977 -73.505 
L 86.213658 -73.505 
L 86.936339 -73.505 
L 87.659019 -73.505 
L 88.3817 -73.505 
L 89.10438 -73.505 
L 89.827061 -73.505 
L 90.549742 -73.505 
L 91.272422 -73.505 
L 91.995103 -73.505 
L 92.717784 -73.505 
L 93.440464 -73.505 
L 94.163145 -73.505 
L 94.885826 -73.505 
L 95.608506 -73.505 
L 96.331187 -73.505 
L 97.053867 -73.505 
L 97.776548 -73.505 
L 98.499229 -73.505 
L 99.221909 -73.505 
L 99.94459 -73.505 
L 100.667271 -73.505 
L 101.389951 -73.505 
L 102.112632 -73.505 
L 102.835312 -73.505 
L 103.557993 -73.505 
L 104.280674 -73.505 
L 105.003354 -73.505 
L 105.726035 -73.505 
L 106.448716 -73.505 
L 107.171396 -73.505 
L 107.894077 -73.505 
L 108.616758 -73.505 
L 109.339438 -73.505 
L 110.062119 -73.505 
L 110.784799 -73.505 
L 111.50748 -73.505 
L 112.230161 -73.505 
L 112.952841 -73.505 
L 113.675522 -73.505 
L 114.398203 -73.505 
L 115.120883 -73.505 
L 115.843564 -73.505 
L 116.566244 -73.505 
L 117.288925 -73.505 
L 118.011606 -73.505 
L 118.734286 -73.505 
L 119.456967 -73.505 
L 120.179648 -73.505 
L 120.902328 -73.505 
L 121.625009 -73.505 
L 122.34769 -73.505 
L 123.07037 -73.505 
L 123.793051 -73.505 
L 124.515731 -73.505 
L 125.238412 -73.505 
L 125.961093 -73.505 
L 126.683773 -73.505 
L 127.406454 -73.505 
L 128.129135 -73.505 
L 128.851815 -73.505 
L 129.574496 -73.505 
L 130.297177 -73.505 
L 131.019857 -73.505 
L 131.742538 -73.505 
L 132.465218 -73.505 
L 133.187899 -73.505 
L 133.91058 -73.505 
L 134.63326 -73.505 
L 135.355941 -73.505 
L 136.078622 -73.505 
L 136.801302 -73.505 
L 137.523983 -73.505 
L 138.246663 -73.505 
L 138.969344 -73.505 
L 139.692025 -73.505 
L 140.414705 -73.505 
L 141.137386 -73.505 
L 141.860067 -73.505 
L 142.582747 -73.505 
L 143.305428 -73.505 
L 144.028109 -73.505 
L 144.750789 -73.505 
L 145.47347 -73.505 
L 146.19615 -73.505 
L 146.918831 -73.505 
L 147.641512 -73.505 
L 148.364192 -73.505 
L 149.086873 -73.505 
L 149.809554 -73.505 
L 150.532234 -73.505 
L 151.254915 -73.505 
L 151.977595 -73.505 
L 152.700276 -73.505 
L 153.422957 -73.505 
L 154.145637 -73.505 
L 154.868318 -73.505 
L 155.590999 -73.505 
L 156.313679 -73.505 
L 157.03636 -73.505 
L 157.759041 -73.505 
L 158.481721 -73.505 
L 159.204402 -73.505 
L 159.927082 -73.505 
L 160.649763 -73.505 
L 161.372444 -73.505 
L 162.095124 -73.505 
L 162.817805 -73.505 
L 163.540486 -73.505 
L 164.263166 -73.505 
L 164.985847 -73.505 
L 165.708527 -73.505 
L 166.431208 -73.505 
L 167.153889 -73.505 
L 167.876569 -73.505 
L 168.59925 -73.505 
L 169.321931 -73.505 
L 170.044611 -73.505 
L 170.767292 -73.505 
L 171.489973 -73.505 
L 172.212653 -73.505 
L 172.935334 -73.505 
L 173.658014 -73.505 
L 174.380695 -73.505 
L 175.103376 -73.505 
L 175.826056 -73.505 
L 176.548737 -73.505 
L 177.271418 -73.505 
L 177.994098 -73.505 
L 178.716779 -73.505 
L 179.43946 -73.505 
L 180.16214 -73.505 
L 180.884821 -73.505 
L 181.607501 -73.505 
L 182.330182 -73.505 
L 183.052863 -73.505 
L 183.775543 -73.505 
L 184.498224 -73.505 
L 185.220905 -73.505 
L 185.943585 -73.505 
L 186.666266 -73.505 
L 187.388946 -73.505 
L 188.111627 -73.505 
L 188.834308 -73.505 
L 189.556988 -73.505 
L 189.556988 -74.718646 
L 189.556988 -74.718646 
L 188.834308 -74.858019 
L 188.111627 -75.007376 
L 187.388946 -75.166621 
L 186.666266 -75.335544 
L 185.943585 -75.513816 
L 185.220905 -75.700991 
L 184.498224 -75.896503 
L 183.775543 -76.099671 
L 183.052863 -76.309703 
L 182.330182 -76.525706 
L 181.607501 -76.746696 
L 180.884821 -76.971614 
L 180.16214 -77.199338 
L 179.43946 -77.428704 
L 178.716779 -77.658525 
L 177.994098 -77.887612 
L 177.271418 -78.114792 
L 176.548737 -78.338933 
L 175.826056 -78.558964 
L 175.103376 -78.773891 
L 174.380695 -78.982821 
L 173.658014 -79.184974 
L 172.935334 -79.379696 
L 172.212653 -79.566476 
L 171.489973 -79.744948 
L 170.767292 -79.914898 
L 170.044611 -80.076268 
L 169.321931 -80.229153 
L 168.59925 -80.373797 
L 167.876569 -80.510586 
L 167.153889 -80.64004 
L 166.431208 -80.762798 
L 165.708527 -80.879605 
L 164.985847 -80.991297 
L 164.263166 -81.098782 
L 163.540486 -81.203023 
L 162.817805 -81.305013 
L 162.095124 -81.405763 
L 161.372444 -81.506269 
L 160.649763 -81.607503 
L 159.927082 -81.710382 
L 159.204402 -81.815748 
L 158.481721 -81.924351 
L 157.759041 -82.036824 
L 157.03636 -82.153663 
L 156.313679 -82.275211 
L 155.590999 -82.401639 
L 154.868318 -82.532931 
L 154.145637 -82.668872 
L 153.422957 -82.80904 
L 152.700276 -82.952795 
L 151.977595 -83.099283 
L 151.254915 -83.247437 
L 150.532234 -83.395982 
L 149.809554 -83.543451 
L 149.086873 -83.688205 
L 148.364192 -83.828451 
L 147.641512 -83.96228 
L 146.918831 -84.087695 
L 146.19615 -84.202657 
L 145.47347 -84.305124 
L 144.750789 -84.393102 
L 144.028109 -84.46469 
L 143.305428 -84.518136 
L 142.582747 -84.551886 
L 141.860067 -84.564627 
L 141.137386 -84.555343 
L 140.414705 -84.523344 
L 139.692025 -84.468312 
L 138.969344 -84.390321 
L 138.246663 -84.289864 
L 137.523983 -84.167858 
L 136.801302 -84.025646 
L 136.078622 -83.86499 
L 135.355941 -83.688053 
L 134.63326 -83.497361 
L 133.91058 -83.295772 
L 133.187899 -83.086422 
L 132.465218 -82.872671 
L 131.742538 -82.658034 
L 131.019857 -82.446117 
L 130.297177 -82.240536 
L 129.574496 -82.044846 
L 128.851815 -81.862463 
L 128.129135 -81.696584 
L 127.406454 -81.550119 
L 126.683773 -81.425618 
L 125.961093 -81.325215 
L 125.238412 -81.25057 
L 124.515731 -81.202827 
L 123.793051 -81.182582 
L 123.07037 -81.18986 
L 122.34769 -81.224109 
L 121.625009 -81.284202 
L 120.902328 -81.368458 
L 120.179648 -81.474669 
L 119.456967 -81.600148 
L 118.734286 -81.74178 
L 118.011606 -81.896088 
L 117.288925 -82.05931 
L 116.566244 -82.227479 
L 115.843564 -82.396511 
L 115.120883 -82.562295 
L 114.398203 -82.720785 
L 113.675522 -82.868094 
L 112.952841 -83.000574 
L 112.230161 -83.114905 
L 111.50748 -83.208164 
L 110.784799 -83.277892 
L 110.062119 -83.322145 
L 109.339438 -83.339532 
L 108.616758 -83.329246 
L 107.894077 -83.291073 
L 107.171396 -83.225388 
L 106.448716 -83.133141 
L 105.726035 -83.015824 
L 105.003354 -82.875428 
L 104.280674 -82.714387 
L 103.557993 -82.535514 
L 102.835312 -82.341928 
L 102.112632 -82.136974 
L 101.389951 -81.924143 
L 100.667271 -81.706983 
L 99.94459 -81.489025 
L 99.221909 -81.273693 
L 98.499229 -81.064237 
L 97.776548 -80.863665 
L 97.053867 -80.674679 
L 96.331187 -80.499633 
L 95.608506 -80.34049 
L 94.885826 -80.1988 
L 94.163145 -80.075681 
L 93.440464 -79.971819 
L 92.717784 -79.887473 
L 91.995103 -79.8225 
L 91.272422 -79.776372 
L 90.549742 -79.748223 
L 89.827061 -79.736883 
L 89.10438 -79.740928 
L 88.3817 -79.758731 
L 87.659019 -79.788511 
L 86.936339 -79.828384 
L 86.213658 -79.876415 
L 85.490977 -79.930662 
L 84.768297 -79.989219 
L 84.045616 -80.05025 
L 83.322935 -80.112019 
L 82.600255 -80.172917 
L 81.877574 -80.231474 
L 81.154893 -80.286373 
L 80.432213 -80.336448 
L 79.709532 -80.380689 
L 78.986852 -80.418231 
L 78.264171 -80.448342 
L 77.54149 -80.470411 
L 76.81881 -80.483933 
L 76.096129 -80.488491 
L 75.373448 -80.48374 
L 74.650768 -80.469389 
L 73.928087 -80.445195 
L 73.205407 -80.410945 
L 72.482726 -80.366453 
L 71.760045 -80.311554 
L 71.037365 -80.246103 
L 70.314684 -80.169979 
L 69.592003 -80.08309 
L 68.869323 -79.98538 
L 68.146642 -79.876838 
L 67.423961 -79.757511 
L 66.701281 -79.627514 
L 65.9786 -79.487041 
L 65.25592 -79.336375 
L 64.533239 -79.175894 
L 63.810558 -79.006081 
L 63.087878 -78.827524 
L 62.365197 -78.640915 
L 61.642516 -78.447051 
L 60.919836 -78.246823 
L 60.197155 -78.041211 
L 59.474475 -77.831267 
L 58.751794 -77.618105 
L 58.029113 -77.40288 
L 57.306433 -77.186773 
L 56.583752 -76.970973 
L 55.861071 -76.756653 
L 55.138391 -76.544957 
L 54.41571 -76.336977 
L 53.693029 -76.133742 
L 52.970349 -75.936199 
L 52.247668 -75.745203 
L 51.524988 -75.561505 
L 50.802307 -75.385748 
L 50.079626 -75.218461 
L 49.356946 -75.060055 
L 48.634265 -74.910827 
L 47.911584 -74.77096 
L 47.188904 -74.64053 
L 46.466223 -74.519511 
L 45.743542 -74.407786 
z
" style="stroke: #414487; stroke-width: 1.25"/>
    </defs>
    <g>
     <use xlink:href="#mda99a14496" x="0" y="174.26" style="fill: #414487; fill-opacity: 0.7; stroke: #414487; stroke-width: 1.25"/>
    </g>
   </g>
   <g id="line2d_6">
    <path d="M 7.2 100.755 
L 216.45 100.755 
" style="fill: none; stroke: #414487; stroke-opacity: 0.9; stroke-linecap: round"/>
   </g>
   <g id="text_6">
    <!-- 5 -->
    <g style="fill: #414487" transform="translate(7.2 99.837) scale(0.12 -0.12)">
     <defs>
      <path id="IBMPlexSans-Bold-35" d="M 3341 3629 
L 1312 3629 
L 1216 2214 
L 1267 2214 
Q 1331 2374 1411 2505 
Q 1491 2637 1600 2729 
Q 1709 2822 1862 2873 
Q 2016 2925 2227 2925 
Q 2515 2925 2764 2829 
Q 3014 2733 3200 2550 
Q 3386 2368 3494 2102 
Q 3603 1837 3603 1504 
Q 3603 1165 3491 873 
Q 3379 582 3158 371 
Q 2938 160 2618 41 
Q 2298 -77 1888 -77 
Q 1562 -77 1312 -6 
Q 1062 64 870 182 
Q 678 301 537 454 
Q 397 608 294 781 
L 992 1331 
Q 1139 1069 1344 886 
Q 1549 704 1894 704 
Q 2240 704 2416 902 
Q 2592 1101 2592 1427 
L 2592 1478 
Q 2592 1786 2413 1965 
Q 2234 2144 1920 2144 
Q 1658 2144 1488 2038 
Q 1318 1933 1229 1830 
L 442 1939 
L 608 4467 
L 3341 4467 
L 3341 3629 
z
" transform="scale(0.015625)"/>
     </defs>
     <use xlink:href="#IBMPlexSans-Bold-35"/>
    </g>
   </g>
  </g>
  <g id="axes_7">
   <g id="patch_8">
    <path d="M 7.2 111.15 
L 216.45 111.15 
L 216.45 69.57 
L 7.2 69.57 
L 7.2 111.15 
z
" style="fill: none"/>
   </g>
   <g id="matplotlib.axis_13">
    <g id="xtick_25"/>
    <g id="xtick_26"/>
    <g id="xtick_27"/>
    <g id="xtick_28"/>
   </g>
   <g id="matplotlib.axis_14"/>
   <g id="FillBetweenPolyCollection_6">
    <defs>
     <path id="mdac83e04e4" d="M 69.766947 -63.547401 
L 69.766947 -63.11 
L 70.287691 -63.11 
L 70.808435 -63.11 
L 71.329179 -63.11 
L 71.849923 -63.11 
L 72.370666 -63.11 
L 72.89141 -63.11 
L 73.412154 -63.11 
L 73.932898 -63.11 
L 74.453642 -63.11 
L 74.974386 -63.11 
L 75.49513 -63.11 
L 76.015874 -63.11 
L 76.536618 -63.11 
L 77.057362 -63.11 
L 77.578105 -63.11 
L 78.098849 -63.11 
L 78.619593 -63.11 
L 79.140337 -63.11 
L 79.661081 -63.11 
L 80.181825 -63.11 
L 80.702569 -63.11 
L 81.223313 -63.11 
L 81.744057 -63.11 
L 82.264801 -63.11 
L 82.785544 -63.11 
L 83.306288 -63.11 
L 83.827032 -63.11 
L 84.347776 -63.11 
L 84.86852 -63.11 
L 85.389264 -63.11 
L 85.910008 -63.11 
L 86.430752 -63.11 
L 86.951496 -63.11 
L 87.472239 -63.11 
L 87.992983 -63.11 
L 88.513727 -63.11 
L 89.034471 -63.11 
L 89.555215 -63.11 
L 90.075959 -63.11 
L 90.596703 -63.11 
L 91.117447 -63.11 
L 91.638191 -63.11 
L 92.158935 -63.11 
L 92.679678 -63.11 
L 93.200422 -63.11 
L 93.721166 -63.11 
L 94.24191 -63.11 
L 94.762654 -63.11 
L 95.283398 -63.11 
L 95.804142 -63.11 
L 96.324886 -63.11 
L 96.84563 -63.11 
L 97.366374 -63.11 
L 97.887117 -63.11 
L 98.407861 -63.11 
L 98.928605 -63.11 
L 99.449349 -63.11 
L 99.970093 -63.11 
L 100.490837 -63.11 
L 101.011581 -63.11 
L 101.532325 -63.11 
L 102.053069 -63.11 
L 102.573813 -63.11 
L 103.094556 -63.11 
L 103.6153 -63.11 
L 104.136044 -63.11 
L 104.656788 -63.11 
L 105.177532 -63.11 
L 105.698276 -63.11 
L 106.21902 -63.11 
L 106.739764 -63.11 
L 107.260508 -63.11 
L 107.781251 -63.11 
L 108.301995 -63.11 
L 108.822739 -63.11 
L 109.343483 -63.11 
L 109.864227 -63.11 
L 110.384971 -63.11 
L 110.905715 -63.11 
L 111.426459 -63.11 
L 111.947203 -63.11 
L 112.467947 -63.11 
L 112.98869 -63.11 
L 113.509434 -63.11 
L 114.030178 -63.11 
L 114.550922 -63.11 
L 115.071666 -63.11 
L 115.59241 -63.11 
L 116.113154 -63.11 
L 116.633898 -63.11 
L 117.154642 -63.11 
L 117.675386 -63.11 
L 118.196129 -63.11 
L 118.716873 -63.11 
L 119.237617 -63.11 
L 119.758361 -63.11 
L 120.279105 -63.11 
L 120.799849 -63.11 
L 121.320593 -63.11 
L 121.841337 -63.11 
L 122.362081 -63.11 
L 122.882825 -63.11 
L 123.403568 -63.11 
L 123.924312 -63.11 
L 124.445056 -63.11 
L 124.9658 -63.11 
L 125.486544 -63.11 
L 126.007288 -63.11 
L 126.528032 -63.11 
L 127.048776 -63.11 
L 127.56952 -63.11 
L 128.090263 -63.11 
L 128.611007 -63.11 
L 129.131751 -63.11 
L 129.652495 -63.11 
L 130.173239 -63.11 
L 130.693983 -63.11 
L 131.214727 -63.11 
L 131.735471 -63.11 
L 132.256215 -63.11 
L 132.776959 -63.11 
L 133.297702 -63.11 
L 133.818446 -63.11 
L 134.33919 -63.11 
L 134.859934 -63.11 
L 135.380678 -63.11 
L 135.901422 -63.11 
L 136.422166 -63.11 
L 136.94291 -63.11 
L 137.463654 -63.11 
L 137.984398 -63.11 
L 138.505141 -63.11 
L 139.025885 -63.11 
L 139.546629 -63.11 
L 140.067373 -63.11 
L 140.588117 -63.11 
L 141.108861 -63.11 
L 141.629605 -63.11 
L 142.150349 -63.11 
L 142.671093 -63.11 
L 143.191837 -63.11 
L 143.71258 -63.11 
L 144.233324 -63.11 
L 144.754068 -63.11 
L 145.274812 -63.11 
L 145.795556 -63.11 
L 146.3163 -63.11 
L 146.837044 -63.11 
L 147.357788 -63.11 
L 147.878532 -63.11 
L 148.399275 -63.11 
L 148.920019 -63.11 
L 149.440763 -63.11 
L 149.961507 -63.11 
L 150.482251 -63.11 
L 151.002995 -63.11 
L 151.523739 -63.11 
L 152.044483 -63.11 
L 152.565227 -63.11 
L 153.085971 -63.11 
L 153.606714 -63.11 
L 154.127458 -63.11 
L 154.648202 -63.11 
L 155.168946 -63.11 
L 155.68969 -63.11 
L 156.210434 -63.11 
L 156.731178 -63.11 
L 157.251922 -63.11 
L 157.772666 -63.11 
L 158.29341 -63.11 
L 158.814153 -63.11 
L 159.334897 -63.11 
L 159.855641 -63.11 
L 160.376385 -63.11 
L 160.897129 -63.11 
L 161.417873 -63.11 
L 161.938617 -63.11 
L 162.459361 -63.11 
L 162.980105 -63.11 
L 163.500849 -63.11 
L 164.021592 -63.11 
L 164.542336 -63.11 
L 165.06308 -63.11 
L 165.583824 -63.11 
L 166.104568 -63.11 
L 166.625312 -63.11 
L 167.146056 -63.11 
L 167.6668 -63.11 
L 168.187544 -63.11 
L 168.708287 -63.11 
L 169.229031 -63.11 
L 169.749775 -63.11 
L 170.270519 -63.11 
L 170.791263 -63.11 
L 171.312007 -63.11 
L 171.832751 -63.11 
L 172.353495 -63.11 
L 172.874239 -63.11 
L 173.394983 -63.11 
L 173.394983 -64.691944 
L 173.394983 -64.691944 
L 172.874239 -64.893997 
L 172.353495 -65.113357 
L 171.832751 -65.350255 
L 171.312007 -65.604744 
L 170.791263 -65.876685 
L 170.270519 -66.165732 
L 169.749775 -66.471323 
L 169.229031 -66.792678 
L 168.708287 -67.128795 
L 168.187544 -67.478458 
L 167.6668 -67.84025 
L 167.146056 -68.212564 
L 166.625312 -68.593628 
L 166.104568 -68.981531 
L 165.583824 -69.374253 
L 165.06308 -69.769703 
L 164.542336 -70.165755 
L 164.021592 -70.560287 
L 163.500849 -70.951226 
L 162.980105 -71.336587 
L 162.459361 -71.714512 
L 161.938617 -72.08331 
L 161.417873 -72.441486 
L 160.897129 -72.787776 
L 160.376385 -73.121162 
L 159.855641 -73.440896 
L 159.334897 -73.746506 
L 158.814153 -74.037795 
L 158.29341 -74.31484 
L 157.772666 -74.577977 
L 157.251922 -74.827779 
L 156.731178 -75.065032 
L 156.210434 -75.290701 
L 155.68969 -75.50589 
L 155.168946 -75.711803 
L 154.648202 -75.909702 
L 154.127458 -76.100855 
L 153.606714 -76.286495 
L 153.085971 -76.467774 
L 152.565227 -76.645717 
L 152.044483 -76.821187 
L 151.523739 -76.994848 
L 151.002995 -77.16713 
L 150.482251 -77.338215 
L 149.961507 -77.508009 
L 149.440763 -77.676138 
L 148.920019 -77.841946 
L 148.399275 -78.004497 
L 147.878532 -78.16259 
L 147.357788 -78.314781 
L 146.837044 -78.459412 
L 146.3163 -78.594644 
L 145.795556 -78.718507 
L 145.274812 -78.828941 
L 144.754068 -78.923857 
L 144.233324 -79.001189 
L 143.71258 -79.05896 
L 143.191837 -79.095339 
L 142.671093 -79.108707 
L 142.150349 -79.097714 
L 141.629605 -79.061335 
L 141.108861 -78.998923 
L 140.588117 -78.910249 
L 140.067373 -78.79554 
L 139.546629 -78.655503 
L 139.025885 -78.49134 
L 138.505141 -78.304745 
L 137.984398 -78.097897 
L 137.463654 -77.873434 
L 136.94291 -77.634412 
L 136.422166 -77.384259 
L 135.901422 -77.126707 
L 135.380678 -76.865724 
L 134.859934 -76.605426 
L 134.33919 -76.349995 
L 133.818446 -76.103576 
L 133.297702 -75.870189 
L 132.776959 -75.653629 
L 132.256215 -75.457373 
L 131.735471 -75.284494 
L 131.214727 -75.13758 
L 130.693983 -75.018668 
L 130.173239 -74.929183 
L 129.652495 -74.869902 
L 129.131751 -74.840923 
L 128.611007 -74.841656 
L 128.090263 -74.87083 
L 127.56952 -74.926518 
L 127.048776 -75.006178 
L 126.528032 -75.106705 
L 126.007288 -75.224506 
L 125.486544 -75.35558 
L 124.9658 -75.495612 
L 124.445056 -75.640073 
L 123.924312 -75.784327 
L 123.403568 -75.923739 
L 122.882825 -76.053783 
L 122.362081 -76.170153 
L 121.841337 -76.268854 
L 121.320593 -76.346303 
L 120.799849 -76.399404 
L 120.279105 -76.425622 
L 119.758361 -76.423036 
L 119.237617 -76.390379 
L 118.716873 -76.327063 
L 118.196129 -76.233185 
L 117.675386 -76.109519 
L 117.154642 -75.957489 
L 116.633898 -75.779133 
L 116.113154 -75.577041 
L 115.59241 -75.354294 
L 115.071666 -75.114388 
L 114.550922 -74.861139 
L 114.030178 -74.598603 
L 113.509434 -74.330972 
L 112.98869 -74.06248 
L 112.467947 -73.797309 
L 111.947203 -73.539494 
L 111.426459 -73.292844 
L 110.905715 -73.060854 
L 110.384971 -72.846646 
L 109.864227 -72.652907 
L 109.343483 -72.481845 
L 108.822739 -72.335157 
L 108.301995 -72.214012 
L 107.781251 -72.11904 
L 107.260508 -72.050345 
L 106.739764 -72.007521 
L 106.21902 -71.989683 
L 105.698276 -71.995503 
L 105.177532 -72.023265 
L 104.656788 -72.070909 
L 104.136044 -72.136099 
L 103.6153 -72.216275 
L 103.094556 -72.308722 
L 102.573813 -72.410623 
L 102.053069 -72.519125 
L 101.532325 -72.631386 
L 101.011581 -72.744627 
L 100.490837 -72.856174 
L 99.970093 -72.963493 
L 99.449349 -73.064222 
L 98.928605 -73.156187 
L 98.407861 -73.237422 
L 97.887117 -73.306176 
L 97.366374 -73.360916 
L 96.84563 -73.400325 
L 96.324886 -73.423294 
L 95.804142 -73.428917 
L 95.283398 -73.416479 
L 94.762654 -73.385443 
L 94.24191 -73.335438 
L 93.721166 -73.26625 
L 93.200422 -73.177808 
L 92.679678 -73.070178 
L 92.158935 -72.943555 
L 91.638191 -72.798258 
L 91.117447 -72.634723 
L 90.596703 -72.453504 
L 90.075959 -72.255269 
L 89.555215 -72.040801 
L 89.034471 -71.81099 
L 88.513727 -71.566837 
L 87.992983 -71.30945 
L 87.472239 -71.040035 
L 86.951496 -70.759892 
L 86.430752 -70.470405 
L 85.910008 -70.17303 
L 85.389264 -69.869286 
L 84.86852 -69.560734 
L 84.347776 -69.248964 
L 83.827032 -68.935574 
L 83.306288 -68.622153 
L 82.785544 -68.310264 
L 82.264801 -68.001418 
L 81.744057 -67.697062 
L 81.223313 -67.39856 
L 80.702569 -67.107176 
L 80.181825 -66.824062 
L 79.661081 -66.550248 
L 79.140337 -66.286631 
L 78.619593 -66.033971 
L 78.098849 -65.792889 
L 77.578105 -65.563864 
L 77.057362 -65.34724 
L 76.536618 -65.143224 
L 76.015874 -64.951898 
L 75.49513 -64.773228 
L 74.974386 -64.607067 
L 74.453642 -64.453175 
L 73.932898 -64.311224 
L 73.412154 -64.180813 
L 72.89141 -64.061481 
L 72.370666 -63.952714 
L 71.849923 -63.853964 
L 71.329179 -63.764655 
L 70.808435 -63.684192 
L 70.287691 -63.611974 
L 69.766947 -63.547401 
z
" style="stroke: #2a788e; stroke-width: 1.25"/>
    </defs>
    <g>
     <use xlink:href="#mdac83e04e4" x="0" y="174.26" style="fill: #2a788e; fill-opacity: 0.7; stroke: #2a788e; stroke-width: 1.25"/>
    </g>
   </g>
   <g id="line2d_7">
    <path d="M 7.2 111.15 
L 216.45 111.15 
" style="fill: none; stroke: #2a788e; stroke-opacity: 0.9; stroke-linecap: round"/>
   </g>
   <g id="text_7">
    <!-- 6 -->
    <g style="fill: #2a788e" transform="translate(7.2 110.232) scale(0.12 -0.12)">
     <defs>
      <path id="IBMPlexSans-Bold-36" d="M 1946 -77 
Q 1549 -77 1235 48 
Q 922 173 707 406 
Q 493 640 381 966 
Q 269 1293 269 1696 
Q 269 2163 413 2582 
Q 557 3002 784 3357 
Q 1011 3712 1296 3993 
Q 1581 4275 1869 4467 
L 3194 4467 
Q 2784 4173 2457 3907 
Q 2131 3642 1891 3373 
Q 1651 3104 1494 2825 
Q 1338 2547 1274 2227 
L 1331 2208 
Q 1389 2336 1469 2457 
Q 1549 2579 1667 2672 
Q 1786 2765 1946 2822 
Q 2106 2880 2317 2880 
Q 2592 2880 2832 2781 
Q 3072 2682 3248 2502 
Q 3424 2323 3523 2064 
Q 3622 1805 3622 1491 
Q 3622 1146 3504 858 
Q 3386 570 3165 362 
Q 2944 154 2637 38 
Q 2330 -77 1946 -77 
z
M 1946 672 
Q 2266 672 2445 848 
Q 2624 1024 2624 1350 
L 2624 1466 
Q 2624 1792 2445 1968 
Q 2266 2144 1946 2144 
Q 1626 2144 1446 1968 
Q 1267 1792 1267 1466 
L 1267 1350 
Q 1267 1024 1446 848 
Q 1626 672 1946 672 
z
" transform="scale(0.015625)"/>
     </defs>
     <use xlink:href="#IBMPlexSans-Bold-36"/>
    </g>
   </g>
  </g>
  <g id="axes_8">
   <g id="patch_9">
    <path d="M 7.2 121.545 
L 216.45 121.545 
L 216.45 79.965 
L 7.2 79.965 
L 7.2 121.545 
z
" style="fill: none"/>
   </g>
   <g id="matplotlib.axis_15">
    <g id="xtick_29"/>
    <g id="xtick_30"/>
    <g id="xtick_31"/>
    <g id="xtick_32"/>
   </g>
   <g id="matplotlib.axis_16"/>
   <g id="FillBetweenPolyCollection_7">
    <defs>
     <path id="mb959a3e118" d="M 91.22178 -52.925051 
L 91.22178 -52.715 
L 91.583929 -52.715 
L 91.946079 -52.715 
L 92.308228 -52.715 
L 92.670378 -52.715 
L 93.032527 -52.715 
L 93.394676 -52.715 
L 93.756826 -52.715 
L 94.118975 -52.715 
L 94.481125 -52.715 
L 94.843274 -52.715 
L 95.205423 -52.715 
L 95.567573 -52.715 
L 95.929722 -52.715 
L 96.291872 -52.715 
L 96.654021 -52.715 
L 97.01617 -52.715 
L 97.37832 -52.715 
L 97.740469 -52.715 
L 98.102619 -52.715 
L 98.464768 -52.715 
L 98.826917 -52.715 
L 99.189067 -52.715 
L 99.551216 -52.715 
L 99.913366 -52.715 
L 100.275515 -52.715 
L 100.637664 -52.715 
L 100.999814 -52.715 
L 101.361963 -52.715 
L 101.724113 -52.715 
L 102.086262 -52.715 
L 102.448411 -52.715 
L 102.810561 -52.715 
L 103.17271 -52.715 
L 103.53486 -52.715 
L 103.897009 -52.715 
L 104.259158 -52.715 
L 104.621308 -52.715 
L 104.983457 -52.715 
L 105.345607 -52.715 
L 105.707756 -52.715 
L 106.069905 -52.715 
L 106.432055 -52.715 
L 106.794204 -52.715 
L 107.156354 -52.715 
L 107.518503 -52.715 
L 107.880652 -52.715 
L 108.242802 -52.715 
L 108.604951 -52.715 
L 108.967101 -52.715 
L 109.32925 -52.715 
L 109.691399 -52.715 
L 110.053549 -52.715 
L 110.415698 -52.715 
L 110.777848 -52.715 
L 111.139997 -52.715 
L 111.502146 -52.715 
L 111.864296 -52.715 
L 112.226445 -52.715 
L 112.588595 -52.715 
L 112.950744 -52.715 
L 113.312893 -52.715 
L 113.675043 -52.715 
L 114.037192 -52.715 
L 114.399342 -52.715 
L 114.761491 -52.715 
L 115.12364 -52.715 
L 115.48579 -52.715 
L 115.847939 -52.715 
L 116.210089 -52.715 
L 116.572238 -52.715 
L 116.934387 -52.715 
L 117.296537 -52.715 
L 117.658686 -52.715 
L 118.020836 -52.715 
L 118.382985 -52.715 
L 118.745134 -52.715 
L 119.107284 -52.715 
L 119.469433 -52.715 
L 119.831583 -52.715 
L 120.193732 -52.715 
L 120.555881 -52.715 
L 120.918031 -52.715 
L 121.28018 -52.715 
L 121.642329 -52.715 
L 122.004479 -52.715 
L 122.366628 -52.715 
L 122.728778 -52.715 
L 123.090927 -52.715 
L 123.453076 -52.715 
L 123.815226 -52.715 
L 124.177375 -52.715 
L 124.539525 -52.715 
L 124.901674 -52.715 
L 125.263823 -52.715 
L 125.625973 -52.715 
L 125.988122 -52.715 
L 126.350272 -52.715 
L 126.712421 -52.715 
L 127.07457 -52.715 
L 127.43672 -52.715 
L 127.798869 -52.715 
L 128.161019 -52.715 
L 128.523168 -52.715 
L 128.885317 -52.715 
L 129.247467 -52.715 
L 129.609616 -52.715 
L 129.971766 -52.715 
L 130.333915 -52.715 
L 130.696064 -52.715 
L 131.058214 -52.715 
L 131.420363 -52.715 
L 131.782513 -52.715 
L 132.144662 -52.715 
L 132.506811 -52.715 
L 132.868961 -52.715 
L 133.23111 -52.715 
L 133.59326 -52.715 
L 133.955409 -52.715 
L 134.317558 -52.715 
L 134.679708 -52.715 
L 135.041857 -52.715 
L 135.404007 -52.715 
L 135.766156 -52.715 
L 136.128305 -52.715 
L 136.490455 -52.715 
L 136.852604 -52.715 
L 137.214754 -52.715 
L 137.576903 -52.715 
L 137.939052 -52.715 
L 138.301202 -52.715 
L 138.663351 -52.715 
L 139.025501 -52.715 
L 139.38765 -52.715 
L 139.749799 -52.715 
L 140.111949 -52.715 
L 140.474098 -52.715 
L 140.836248 -52.715 
L 141.198397 -52.715 
L 141.560546 -52.715 
L 141.922696 -52.715 
L 142.284845 -52.715 
L 142.646995 -52.715 
L 143.009144 -52.715 
L 143.371293 -52.715 
L 143.733443 -52.715 
L 144.095592 -52.715 
L 144.457742 -52.715 
L 144.819891 -52.715 
L 145.18204 -52.715 
L 145.54419 -52.715 
L 145.906339 -52.715 
L 146.268489 -52.715 
L 146.630638 -52.715 
L 146.992787 -52.715 
L 147.354937 -52.715 
L 147.717086 -52.715 
L 148.079236 -52.715 
L 148.441385 -52.715 
L 148.803534 -52.715 
L 149.165684 -52.715 
L 149.527833 -52.715 
L 149.889983 -52.715 
L 150.252132 -52.715 
L 150.614281 -52.715 
L 150.976431 -52.715 
L 151.33858 -52.715 
L 151.70073 -52.715 
L 152.062879 -52.715 
L 152.425028 -52.715 
L 152.787178 -52.715 
L 153.149327 -52.715 
L 153.511477 -52.715 
L 153.873626 -52.715 
L 154.235775 -52.715 
L 154.597925 -52.715 
L 154.960074 -52.715 
L 155.322224 -52.715 
L 155.684373 -52.715 
L 156.046522 -52.715 
L 156.408672 -52.715 
L 156.770821 -52.715 
L 157.132971 -52.715 
L 157.49512 -52.715 
L 157.857269 -52.715 
L 158.219419 -52.715 
L 158.581568 -52.715 
L 158.943717 -52.715 
L 159.305867 -52.715 
L 159.668016 -52.715 
L 160.030166 -52.715 
L 160.392315 -52.715 
L 160.754464 -52.715 
L 161.116614 -52.715 
L 161.478763 -52.715 
L 161.840913 -52.715 
L 162.203062 -52.715 
L 162.565211 -52.715 
L 162.927361 -52.715 
L 163.28951 -52.715 
L 163.28951 -53.892548 
L 163.28951 -53.892548 
L 162.927361 -54.065743 
L 162.565211 -54.257822 
L 162.203062 -54.469906 
L 161.840913 -54.703073 
L 161.478763 -54.958335 
L 161.116614 -55.236628 
L 160.754464 -55.538791 
L 160.392315 -55.865544 
L 160.030166 -56.217475 
L 159.668016 -56.595014 
L 159.305867 -56.998416 
L 158.943717 -57.427742 
L 158.581568 -57.88284 
L 158.219419 -58.36333 
L 157.857269 -58.86859 
L 157.49512 -59.397747 
L 157.132971 -59.949675 
L 156.770821 -60.522992 
L 156.408672 -61.116069 
L 156.046522 -61.727042 
L 155.684373 -62.35383 
L 155.322224 -62.994161 
L 154.960074 -63.645605 
L 154.597925 -64.305603 
L 154.235775 -64.971512 
L 153.873626 -65.640646 
L 153.511477 -66.310314 
L 153.149327 -66.977868 
L 152.787178 -67.640736 
L 152.425028 -68.296466 
L 152.062879 -68.942751 
L 151.70073 -69.577462 
L 151.33858 -70.198663 
L 150.976431 -70.804625 
L 150.614281 -71.393841 
L 150.252132 -71.965018 
L 149.889983 -72.517081 
L 149.527833 -73.049163 
L 149.165684 -73.560594 
L 148.803534 -74.050891 
L 148.441385 -74.519737 
L 148.079236 -74.966972 
L 147.717086 -75.392571 
L 147.354937 -75.796631 
L 146.992787 -76.179353 
L 146.630638 -76.54102 
L 146.268489 -76.881987 
L 145.906339 -77.202651 
L 145.54419 -77.503437 
L 145.18204 -77.78477 
L 144.819891 -78.047053 
L 144.457742 -78.290641 
L 144.095592 -78.515812 
L 143.733443 -78.722749 
L 143.371293 -78.911509 
L 143.009144 -79.082009 
L 142.646995 -79.234014 
L 142.284845 -79.367123 
L 141.922696 -79.480778 
L 141.560546 -79.574267 
L 141.198397 -79.646747 
L 140.836248 -79.697272 
L 140.474098 -79.724828 
L 140.111949 -79.728379 
L 139.749799 -79.706917 
L 139.38765 -79.659513 
L 139.025501 -79.585377 
L 138.663351 -79.483909 
L 138.301202 -79.354746 
L 137.939052 -79.197815 
L 137.576903 -79.013362 
L 137.214754 -78.801979 
L 136.852604 -78.564626 
L 136.490455 -78.302626 
L 136.128305 -78.017664 
L 135.766156 -77.711767 
L 135.404007 -77.387269 
L 135.041857 -77.04678 
L 134.679708 -76.693133 
L 134.317558 -76.329336 
L 133.955409 -75.95851 
L 133.59326 -75.583834 
L 133.23111 -75.208484 
L 132.868961 -74.835572 
L 132.506811 -74.468094 
L 132.144662 -74.108874 
L 131.782513 -73.760518 
L 131.420363 -73.425373 
L 131.058214 -73.105489 
L 130.696064 -72.802592 
L 130.333915 -72.518061 
L 129.971766 -72.252913 
L 129.609616 -72.007795 
L 129.247467 -71.782985 
L 128.885317 -71.578395 
L 128.523168 -71.39359 
L 128.161019 -71.227806 
L 127.798869 -71.079979 
L 127.43672 -70.94878 
L 127.07457 -70.832657 
L 126.712421 -70.729881 
L 126.350272 -70.638598 
L 125.988122 -70.556885 
L 125.625973 -70.482803 
L 125.263823 -70.41446 
L 124.901674 -70.35006 
L 124.539525 -70.28796 
L 124.177375 -70.226713 
L 123.815226 -70.165105 
L 123.453076 -70.102185 
L 123.090927 -70.037278 
L 122.728778 -69.969993 
L 122.366628 -69.90021 
L 122.004479 -69.82806 
L 121.642329 -69.753891 
L 121.28018 -69.67822 
L 120.918031 -69.601683 
L 120.555881 -69.524971 
L 120.193732 -69.448771 
L 119.831583 -69.373695 
L 119.469433 -69.300226 
L 119.107284 -69.228659 
L 118.745134 -69.159058 
L 118.382985 -69.091218 
L 118.020836 -69.024646 
L 117.658686 -68.958553 
L 117.296537 -68.89186 
L 116.934387 -68.823221 
L 116.572238 -68.751055 
L 116.210089 -68.673598 
L 115.847939 -68.588947 
L 115.48579 -68.495132 
L 115.12364 -68.390174 
L 114.761491 -68.272155 
L 114.399342 -68.139277 
L 114.037192 -67.989921 
L 113.675043 -67.8227 
L 113.312893 -67.636497 
L 112.950744 -67.430496 
L 112.588595 -67.204207 
L 112.226445 -66.957463 
L 111.864296 -66.690429 
L 111.502146 -66.40358 
L 111.139997 -66.097682 
L 110.777848 -65.773763 
L 110.415698 -65.433079 
L 110.053549 -65.077074 
L 109.691399 -64.70734 
L 109.32925 -64.325581 
L 108.967101 -63.933571 
L 108.604951 -63.533124 
L 108.242802 -63.126057 
L 107.880652 -62.71417 
L 107.518503 -62.29922 
L 107.156354 -61.882906 
L 106.794204 -61.466856 
L 106.432055 -61.052621 
L 106.069905 -60.641662 
L 105.707756 -60.235357 
L 105.345607 -59.834992 
L 104.983457 -59.441764 
L 104.621308 -59.056783 
L 104.259158 -58.681068 
L 103.897009 -58.315552 
L 103.53486 -57.961079 
L 103.17271 -57.618401 
L 102.810561 -57.288182 
L 102.448411 -56.970993 
L 102.086262 -56.667307 
L 101.724113 -56.377504 
L 101.361963 -56.101864 
L 100.999814 -55.840566 
L 100.637664 -55.593692 
L 100.275515 -55.361223 
L 99.913366 -55.143045 
L 99.551216 -54.93895 
L 99.189067 -54.748644 
L 98.826917 -54.57175 
L 98.464768 -54.407816 
L 98.102619 -54.256328 
L 97.740469 -54.116714 
L 97.37832 -53.98836 
L 97.01617 -53.870618 
L 96.654021 -53.762818 
L 96.291872 -53.664279 
L 95.929722 -53.574324 
L 95.567573 -53.492282 
L 95.205423 -53.417504 
L 94.843274 -53.34937 
L 94.481125 -53.287292 
L 94.118975 -53.230723 
L 93.756826 -53.179157 
L 93.394676 -53.132134 
L 93.032527 -53.089238 
L 92.670378 -53.050098 
L 92.308228 -53.014384 
L 91.946079 -52.981803 
L 91.583929 -52.952101 
L 91.22178 -52.925051 
z
" style="stroke: #22a884; stroke-width: 1.25"/>
    </defs>
    <g>
     <use xlink:href="#mb959a3e118" x="0" y="174.26" style="fill: #22a884; fill-opacity: 0.7; stroke: #22a884; stroke-width: 1.25"/>
    </g>
   </g>
   <g id="line2d_8">
    <path d="M 7.2 121.545 
L 216.45 121.545 
" style="fill: none; stroke: #22a884; stroke-opacity: 0.9; stroke-linecap: round"/>
   </g>
   <g id="text_8">
    <!-- 7 -->
    <g style="fill: #22a884" transform="translate(7.2 120.627) scale(0.12 -0.12)">
     <defs>
      <path id="IBMPlexSans-Bold-37" d="M 1062 0 
L 2560 3686 
L 1165 3686 
L 1165 2874 
L 352 2874 
L 352 4467 
L 3514 4467 
L 3514 3635 
L 2074 0 
L 1062 0 
z
" transform="scale(0.015625)"/>
     </defs>
     <use xlink:href="#IBMPlexSans-Bold-37"/>
    </g>
   </g>
  </g>
  <g id="axes_9">
   <g id="patch_10">
    <path d="M 7.2 131.94 
L 216.45 131.94 
L 216.45 90.36 
L 7.2 90.36 
L 7.2 131.94 
z
" style="fill: none"/>
   </g>
   <g id="matplotlib.axis_17">
    <g id="xtick_33">
     <g id="text_9">
      <!-- 4 -->
      <g style="fill: #838383" transform="translate(25.297029 149.58) scale(0.11 -0.11)">
       <defs>
        <path id="IBMPlexSans-Regular-2212" d="M 429 1734 
L 429 2170 
L 3411 2170 
L 3411 1734 
L 429 1734 
z
" transform="scale(0.015625)"/>
        <path id="IBMPlexSans-Regular-34" d="M 2400 0 
L 2400 877 
L 243 877 
L 243 1350 
L 2112 4467 
L 2912 4467 
L 2912 1325 
L 3558 1325 
L 3558 877 
L 2912 877 
L 2912 0 
L 2400 0 
z
M 749 1325 
L 2400 1325 
L 2400 4051 
L 2368 4051 
L 749 1325 
z
" transform="scale(0.015625)"/>
       </defs>
       <use xlink:href="#IBMPlexSans-Regular-2212"/>
       <use xlink:href="#IBMPlexSans-Regular-34" transform="translate(59.999985 0)"/>
      </g>
     </g>
    </g>
    <g id="xtick_34">
     <g id="text_10">
      <!-- 2 -->
      <g style="fill: #838383" transform="translate(79.722097 149.58) scale(0.11 -0.11)">
       <defs>
        <path id="IBMPlexSans-Regular-32" d="M 3411 0 
L 480 0 
L 480 550 
L 1939 1894 
Q 2253 2182 2464 2505 
Q 2675 2829 2675 3155 
L 2675 3232 
Q 2675 3603 2470 3833 
Q 2266 4064 1850 4064 
Q 1645 4064 1491 4006 
Q 1338 3949 1226 3846 
Q 1114 3744 1040 3606 
Q 966 3469 922 3309 
L 442 3494 
Q 506 3693 618 3881 
Q 730 4070 899 4217 
Q 1069 4365 1309 4454 
Q 1549 4544 1875 4544 
Q 2202 4544 2458 4448 
Q 2714 4352 2886 4179 
Q 3059 4006 3152 3769 
Q 3245 3533 3245 3245 
Q 3245 2982 3171 2758 
Q 3098 2534 2970 2332 
Q 2842 2131 2659 1939 
Q 2477 1747 2266 1555 
L 1062 474 
L 3411 474 
L 3411 0 
z
" transform="scale(0.015625)"/>
       </defs>
       <use xlink:href="#IBMPlexSans-Regular-2212"/>
       <use xlink:href="#IBMPlexSans-Regular-32" transform="translate(59.999985 0)"/>
      </g>
     </g>
    </g>
    <g id="xtick_35">
     <g id="text_11">
      <!-- 0 -->
      <g style="fill: #838383" transform="translate(137.447165 149.58) scale(0.11 -0.11)">
       <defs>
        <path id="IBMPlexSans-Regular-30" d="M 1920 -77 
Q 1120 -77 752 531 
Q 384 1139 384 2234 
Q 384 3328 752 3936 
Q 1120 4544 1920 4544 
Q 2720 4544 3088 3936 
Q 3456 3328 3456 2234 
Q 3456 1139 3088 531 
Q 2720 -77 1920 -77 
z
M 1920 390 
Q 2182 390 2368 499 
Q 2554 608 2669 806 
Q 2784 1005 2838 1273 
Q 2893 1542 2893 1869 
L 2893 2598 
Q 2893 2925 2838 3193 
Q 2784 3462 2669 3660 
Q 2554 3859 2368 3968 
Q 2182 4077 1920 4077 
Q 1658 4077 1472 3968 
Q 1286 3859 1171 3660 
Q 1056 3462 1001 3193 
Q 947 2925 947 2598 
L 947 1869 
Q 947 1542 1001 1273 
Q 1056 1005 1171 806 
Q 1286 608 1472 499 
Q 1658 390 1920 390 
z
" transform="scale(0.015625)"/>
       </defs>
       <use xlink:href="#IBMPlexSans-Regular-30"/>
      </g>
     </g>
    </g>
    <g id="xtick_36">
     <g id="text_12">
      <!-- 2 -->
      <g style="fill: #838383" transform="translate(191.872233 149.58) scale(0.11 -0.11)">
       <use xlink:href="#IBMPlexSans-Regular-32"/>
      </g>
     </g>
    </g>
    <g id="text_13">
     <!-- sld -->
     <g style="fill: #262626" transform="translate(103.790625 164.66) scale(0.12 -0.12)">
      <defs>
       <path id="IBMPlexSans-Regular-73" d="M 1536 -77 
Q 1075 -77 764 99 
Q 454 275 230 570 
L 595 864 
Q 787 621 1024 489 
Q 1261 358 1574 358 
Q 1901 358 2083 499 
Q 2266 640 2266 896 
Q 2266 1088 2141 1225 
Q 2016 1363 1690 1414 
L 1427 1453 
Q 1197 1485 1005 1552 
Q 813 1619 669 1731 
Q 525 1843 445 2009 
Q 365 2176 365 2406 
Q 365 2650 454 2832 
Q 544 3014 701 3136 
Q 858 3258 1075 3318 
Q 1293 3379 1542 3379 
Q 1946 3379 2218 3238 
Q 2490 3098 2694 2848 
L 2355 2541 
Q 2246 2694 2035 2819 
Q 1824 2944 1504 2944 
Q 1184 2944 1021 2806 
Q 858 2669 858 2432 
Q 858 2189 1021 2080 
Q 1184 1971 1491 1920 
L 1747 1882 
Q 2298 1798 2528 1564 
Q 2758 1331 2758 954 
Q 2758 474 2432 198 
Q 2106 -77 1536 -77 
z
" transform="scale(0.015625)"/>
       <path id="IBMPlexSans-Regular-6c" d="M 1088 0 
Q 819 0 681 150 
Q 544 301 544 531 
L 544 4736 
L 1056 4736 
L 1056 448 
L 1542 448 
L 1542 0 
L 1088 0 
z
" transform="scale(0.015625)"/>
       <path id="IBMPlexSans-Regular-64" d="M 2656 538 
L 2630 538 
Q 2330 -77 1664 -77 
Q 1357 -77 1107 44 
Q 858 166 682 390 
Q 506 614 413 934 
Q 320 1254 320 1651 
Q 320 2048 413 2368 
Q 506 2688 682 2912 
Q 858 3136 1107 3257 
Q 1357 3379 1664 3379 
Q 2010 3379 2256 3228 
Q 2502 3078 2630 2765 
L 2656 2765 
L 2656 4736 
L 3168 4736 
L 3168 0 
L 2656 0 
L 2656 538 
z
M 1805 384 
Q 1978 384 2134 429 
Q 2291 474 2406 560 
Q 2522 646 2589 771 
Q 2656 896 2656 1056 
L 2656 2285 
Q 2656 2419 2589 2537 
Q 2522 2656 2406 2739 
Q 2291 2822 2134 2870 
Q 1978 2918 1805 2918 
Q 1370 2918 1120 2646 
Q 870 2374 870 1933 
L 870 1370 
Q 870 928 1120 656 
Q 1370 384 1805 384 
z
" transform="scale(0.015625)"/>
      </defs>
      <use xlink:href="#IBMPlexSans-Regular-73"/>
      <use xlink:href="#IBMPlexSans-Regular-6c" transform="translate(48.699997 0)"/>
      <use xlink:href="#IBMPlexSans-Regular-64" transform="translate(75.899994 0)"/>
     </g>
    </g>
   </g>
   <g id="matplotlib.axis_18"/>
   <g id="FillBetweenPolyCollection_8">
    <defs>
     <path id="md790322592" d="M 108.819194 -42.802693 
L 108.819194 -42.32 
L 109.146168 -42.32 
L 109.473142 -42.32 
L 109.800116 -42.32 
L 110.12709 -42.32 
L 110.454064 -42.32 
L 110.781038 -42.32 
L 111.108011 -42.32 
L 111.434985 -42.32 
L 111.761959 -42.32 
L 112.088933 -42.32 
L 112.415907 -42.32 
L 112.742881 -42.32 
L 113.069855 -42.32 
L 113.396829 -42.32 
L 113.723803 -42.32 
L 114.050777 -42.32 
L 114.377751 -42.32 
L 114.704725 -42.32 
L 115.031699 -42.32 
L 115.358673 -42.32 
L 115.685647 -42.32 
L 116.012621 -42.32 
L 116.339595 -42.32 
L 116.666569 -42.32 
L 116.993543 -42.32 
L 117.320517 -42.32 
L 117.647491 -42.32 
L 117.974465 -42.32 
L 118.301439 -42.32 
L 118.628412 -42.32 
L 118.955386 -42.32 
L 119.28236 -42.32 
L 119.609334 -42.32 
L 119.936308 -42.32 
L 120.263282 -42.32 
L 120.590256 -42.32 
L 120.91723 -42.32 
L 121.244204 -42.32 
L 121.571178 -42.32 
L 121.898152 -42.32 
L 122.225126 -42.32 
L 122.5521 -42.32 
L 122.879074 -42.32 
L 123.206048 -42.32 
L 123.533022 -42.32 
L 123.859996 -42.32 
L 124.18697 -42.32 
L 124.513944 -42.32 
L 124.840918 -42.32 
L 125.167892 -42.32 
L 125.494866 -42.32 
L 125.82184 -42.32 
L 126.148814 -42.32 
L 126.475787 -42.32 
L 126.802761 -42.32 
L 127.129735 -42.32 
L 127.456709 -42.32 
L 127.783683 -42.32 
L 128.110657 -42.32 
L 128.437631 -42.32 
L 128.764605 -42.32 
L 129.091579 -42.32 
L 129.418553 -42.32 
L 129.745527 -42.32 
L 130.072501 -42.32 
L 130.399475 -42.32 
L 130.726449 -42.32 
L 131.053423 -42.32 
L 131.380397 -42.32 
L 131.707371 -42.32 
L 132.034345 -42.32 
L 132.361319 -42.32 
L 132.688293 -42.32 
L 133.015267 -42.32 
L 133.342241 -42.32 
L 133.669215 -42.32 
L 133.996188 -42.32 
L 134.323162 -42.32 
L 134.650136 -42.32 
L 134.97711 -42.32 
L 135.304084 -42.32 
L 135.631058 -42.32 
L 135.958032 -42.32 
L 136.285006 -42.32 
L 136.61198 -42.32 
L 136.938954 -42.32 
L 137.265928 -42.32 
L 137.592902 -42.32 
L 137.919876 -42.32 
L 138.24685 -42.32 
L 138.573824 -42.32 
L 138.900798 -42.32 
L 139.227772 -42.32 
L 139.554746 -42.32 
L 139.88172 -42.32 
L 140.208694 -42.32 
L 140.535668 -42.32 
L 140.862642 -42.32 
L 141.189616 -42.32 
L 141.516589 -42.32 
L 141.843563 -42.32 
L 142.170537 -42.32 
L 142.497511 -42.32 
L 142.824485 -42.32 
L 143.151459 -42.32 
L 143.478433 -42.32 
L 143.805407 -42.32 
L 144.132381 -42.32 
L 144.459355 -42.32 
L 144.786329 -42.32 
L 145.113303 -42.32 
L 145.440277 -42.32 
L 145.767251 -42.32 
L 146.094225 -42.32 
L 146.421199 -42.32 
L 146.748173 -42.32 
L 147.075147 -42.32 
L 147.402121 -42.32 
L 147.729095 -42.32 
L 148.056069 -42.32 
L 148.383043 -42.32 
L 148.710017 -42.32 
L 149.03699 -42.32 
L 149.363964 -42.32 
L 149.690938 -42.32 
L 150.017912 -42.32 
L 150.344886 -42.32 
L 150.67186 -42.32 
L 150.998834 -42.32 
L 151.325808 -42.32 
L 151.652782 -42.32 
L 151.979756 -42.32 
L 152.30673 -42.32 
L 152.633704 -42.32 
L 152.960678 -42.32 
L 153.287652 -42.32 
L 153.614626 -42.32 
L 153.9416 -42.32 
L 154.268574 -42.32 
L 154.595548 -42.32 
L 154.922522 -42.32 
L 155.249496 -42.32 
L 155.57647 -42.32 
L 155.903444 -42.32 
L 156.230418 -42.32 
L 156.557391 -42.32 
L 156.884365 -42.32 
L 157.211339 -42.32 
L 157.538313 -42.32 
L 157.865287 -42.32 
L 158.192261 -42.32 
L 158.519235 -42.32 
L 158.846209 -42.32 
L 159.173183 -42.32 
L 159.500157 -42.32 
L 159.827131 -42.32 
L 160.154105 -42.32 
L 160.481079 -42.32 
L 160.808053 -42.32 
L 161.135027 -42.32 
L 161.462001 -42.32 
L 161.788975 -42.32 
L 162.115949 -42.32 
L 162.442923 -42.32 
L 162.769897 -42.32 
L 163.096871 -42.32 
L 163.423845 -42.32 
L 163.750819 -42.32 
L 164.077792 -42.32 
L 164.404766 -42.32 
L 164.73174 -42.32 
L 165.058714 -42.32 
L 165.385688 -42.32 
L 165.712662 -42.32 
L 166.039636 -42.32 
L 166.36661 -42.32 
L 166.693584 -42.32 
L 167.020558 -42.32 
L 167.347532 -42.32 
L 167.674506 -42.32 
L 168.00148 -42.32 
L 168.328454 -42.32 
L 168.655428 -42.32 
L 168.982402 -42.32 
L 169.309376 -42.32 
L 169.63635 -42.32 
L 169.963324 -42.32 
L 170.290298 -42.32 
L 170.617272 -42.32 
L 170.944246 -42.32 
L 171.27122 -42.32 
L 171.598193 -42.32 
L 171.925167 -42.32 
L 172.252141 -42.32 
L 172.579115 -42.32 
L 172.906089 -42.32 
L 173.233063 -42.32 
L 173.560037 -42.32 
L 173.887011 -42.32 
L 173.887011 -42.537814 
L 173.887011 -42.537814 
L 173.560037 -42.563662 
L 173.233063 -42.58995 
L 172.906089 -42.616297 
L 172.579115 -42.642326 
L 172.252141 -42.667694 
L 171.925167 -42.692109 
L 171.598193 -42.715355 
L 171.27122 -42.737311 
L 170.944246 -42.757958 
L 170.617272 -42.777392 
L 170.290298 -42.795824 
L 169.963324 -42.813573 
L 169.63635 -42.831059 
L 169.309376 -42.848791 
L 168.982402 -42.867353 
L 168.655428 -42.88739 
L 168.328454 -42.909601 
L 168.00148 -42.934729 
L 167.674506 -42.963564 
L 167.347532 -42.996941 
L 167.020558 -43.035756 
L 166.693584 -43.080972 
L 166.36661 -43.133635 
L 166.039636 -43.194886 
L 165.712662 -43.265968 
L 165.385688 -43.34823 
L 165.058714 -43.443117 
L 164.73174 -43.552157 
L 164.404766 -43.676923 
L 164.077792 -43.818996 
L 163.750819 -43.979911 
L 163.423845 -44.161087 
L 163.096871 -44.363759 
L 162.769897 -44.588906 
L 162.442923 -44.837176 
L 162.115949 -45.108829 
L 161.788975 -45.403684 
L 161.462001 -45.721095 
L 161.135027 -46.059946 
L 160.808053 -46.418682 
L 160.481079 -46.795363 
L 160.154105 -47.187747 
L 159.827131 -47.59341 
L 159.500157 -48.009868 
L 159.173183 -48.434726 
L 158.846209 -48.865816 
L 158.519235 -49.301328 
L 158.192261 -49.739921 
L 157.865287 -50.180791 
L 157.538313 -50.623711 
L 157.211339 -51.069015 
L 156.884365 -51.517538 
L 156.557391 -51.970515 
L 156.230418 -52.429438 
L 155.903444 -52.895894 
L 155.57647 -53.371387 
L 155.249496 -53.857167 
L 154.922522 -54.354071 
L 154.595548 -54.862399 
L 154.268574 -55.381834 
L 153.9416 -55.911402 
L 153.614626 -56.449495 
L 153.287652 -56.993932 
L 152.960678 -57.542074 
L 152.633704 -58.090967 
L 152.30673 -58.637514 
L 151.979756 -59.178662 
L 151.652782 -59.711584 
L 151.325808 -60.23386 
L 150.998834 -60.743633 
L 150.67186 -61.239744 
L 150.344886 -61.721837 
L 150.017912 -62.190426 
L 149.690938 -62.646936 
L 149.363964 -63.093693 
L 149.03699 -63.53389 
L 148.710017 -63.971506 
L 148.383043 -64.411185 
L 148.056069 -64.858083 
L 147.729095 -65.317665 
L 147.402121 -65.795477 
L 147.075147 -66.296886 
L 146.748173 -66.826796 
L 146.421199 -67.389364 
L 146.094225 -67.987722 
L 145.767251 -68.623721 
L 145.440277 -69.297728 
L 145.113303 -70.008482 
L 144.786329 -70.753029 
L 144.459355 -71.526743 
L 144.132381 -72.323448 
L 143.805407 -73.135615 
L 143.478433 -73.954654 
L 143.151459 -74.771255 
L 142.824485 -75.575773 
L 142.497511 -76.358628 
L 142.170537 -77.110679 
L 141.843563 -77.823569 
L 141.516589 -78.489999 
L 141.189616 -79.103925 
L 140.862642 -79.660665 
L 140.535668 -80.156927 
L 140.208694 -80.590744 
L 139.88172 -80.961356 
L 139.554746 -81.269033 
L 139.227772 -81.514876 
L 138.900798 -81.700617 
L 138.573824 -81.828414 
L 138.24685 -81.900692 
L 137.919876 -81.92 
L 137.592902 -81.88892 
L 137.265928 -81.809999 
L 136.938954 -81.685719 
L 136.61198 -81.518486 
L 136.285006 -81.31062 
L 135.958032 -81.064361 
L 135.631058 -80.781857 
L 135.304084 -80.465148 
L 134.97711 -80.116141 
L 134.650136 -79.736578 
L 134.323162 -79.328004 
L 133.996188 -78.89174 
L 133.669215 -78.428874 
L 133.342241 -77.940267 
L 133.015267 -77.426588 
L 132.688293 -76.888364 
L 132.361319 -76.326063 
L 132.034345 -75.740172 
L 131.707371 -75.131299 
L 131.380397 -74.500261 
L 131.053423 -73.848154 
L 130.726449 -73.176405 
L 130.399475 -72.486798 
L 130.072501 -71.781454 
L 129.745527 -71.062795 
L 129.418553 -70.333461 
L 129.091579 -69.59622 
L 128.764605 -68.853853 
L 128.437631 -68.109035 
L 128.110657 -67.36423 
L 127.783683 -66.621588 
L 127.456709 -65.882875 
L 127.129735 -65.149425 
L 126.802761 -64.422131 
L 126.475787 -63.701466 
L 126.148814 -62.987531 
L 125.82184 -62.280137 
L 125.494866 -61.578906 
L 125.167892 -60.883383 
L 124.840918 -60.193149 
L 124.513944 -59.507935 
L 124.18697 -58.827713 
L 123.859996 -58.15277 
L 123.533022 -57.483746 
L 123.206048 -56.821646 
L 122.879074 -56.167809 
L 122.5521 -55.523854 
L 122.225126 -54.89159 
L 121.898152 -54.272914 
L 121.571178 -53.669687 
L 121.244204 -53.083627 
L 120.91723 -52.516196 
L 120.590256 -51.968516 
L 120.263282 -51.441314 
L 119.936308 -50.934897 
L 119.609334 -50.449159 
L 119.28236 -49.983631 
L 118.955386 -49.537549 
L 118.628412 -49.109948 
L 118.301439 -48.699766 
L 117.974465 -48.305951 
L 117.647491 -47.927555 
L 117.320517 -47.56381 
L 116.993543 -47.214184 
L 116.666569 -46.878404 
L 116.339595 -46.556446 
L 116.012621 -46.248505 
L 115.685647 -45.954932 
L 115.358673 -45.676169 
L 115.031699 -45.412656 
L 114.704725 -45.164762 
L 114.377751 -44.932705 
L 114.050777 -44.716502 
L 113.723803 -44.515932 
L 113.396829 -44.330526 
L 113.069855 -44.159582 
L 112.742881 -44.002193 
L 112.415907 -43.8573 
L 112.088933 -43.723755 
L 111.761959 -43.60038 
L 111.434985 -43.486036 
L 111.108011 -43.379676 
L 110.781038 -43.280384 
L 110.454064 -43.187411 
L 110.12709 -43.100179 
L 109.800116 -43.018283 
L 109.473142 -42.941471 
L 109.146168 -42.869619 
L 108.819194 -42.802693 
z
" style="stroke: #7ad151; stroke-width: 1.25"/>
    </defs>
    <g>
     <use xlink:href="#md790322592" x="0" y="174.26" style="fill: #7ad151; fill-opacity: 0.7; stroke: #7ad151; stroke-width: 1.25"/>
    </g>
   </g>
   <g id="line2d_9">
    <path d="M 7.2 131.94 
L 216.45 131.94 
" style="fill: none; stroke: #7ad151; stroke-opacity: 0.9; stroke-linecap: round"/>
   </g>
   <g id="text_14">
    <!-- 8 -->
    <g style="fill: #7ad151" transform="translate(7.2 131.022) scale(0.12 -0.12)">
     <defs>
      <path id="IBMPlexSans-Bold-38" d="M 1920 -77 
Q 1523 -77 1212 22 
Q 902 122 691 294 
Q 480 467 368 704 
Q 256 941 256 1222 
Q 256 1651 493 1923 
Q 730 2195 1133 2304 
L 1133 2355 
Q 806 2477 598 2726 
Q 390 2976 390 3366 
Q 390 3622 489 3840 
Q 589 4058 784 4214 
Q 979 4371 1264 4457 
Q 1549 4544 1920 4544 
Q 2291 4544 2576 4457 
Q 2861 4371 3056 4214 
Q 3251 4058 3350 3840 
Q 3450 3622 3450 3366 
Q 3450 2976 3242 2726 
Q 3034 2477 2707 2355 
L 2707 2304 
Q 3110 2195 3347 1923 
Q 3584 1651 3584 1222 
Q 3584 941 3472 704 
Q 3360 467 3149 294 
Q 2938 122 2627 22 
Q 2317 -77 1920 -77 
z
M 1920 659 
Q 2240 659 2409 809 
Q 2579 960 2579 1229 
L 2579 1357 
Q 2579 1626 2409 1776 
Q 2240 1926 1920 1926 
Q 1600 1926 1430 1776 
Q 1261 1626 1261 1357 
L 1261 1229 
Q 1261 960 1430 809 
Q 1600 659 1920 659 
z
M 1920 2630 
Q 2227 2630 2387 2774 
Q 2547 2918 2547 3168 
L 2547 3270 
Q 2547 3520 2387 3664 
Q 2227 3808 1920 3808 
Q 1613 3808 1453 3664 
Q 1293 3520 1293 3270 
L 1293 3168 
Q 1293 2918 1453 2774 
Q 1613 2630 1920 2630 
z
" transform="scale(0.015625)"/>
     </defs>
     <use xlink:href="#IBMPlexSans-Bold-38"/>
    </g>
   </g>
  </g>
 </g>
</svg>
