<?xml version="1.0" encoding="utf-8" standalone="no"?>
<!DOCTYPE svg PUBLIC "-//W3C//DTD SVG 1.1//EN"
  "http://www.w3.org/Graphics/SVG/1.1/DTD/svg11.dtd">
<svg xmlns:xlink="http://www.w3.org/1999/xlink" width="223.65pt" height="174.26pt" viewBox="0 0 223.65 174.26" xmlns="http://www.w3.org/2000/svg" version="1.1">
 <metadata>
  <rdf:RDF xmlns:dc="http://purl.org/dc/elements/1.1/" xmlns:cc="http://creativecommons.org/ns#" xmlns:rdf="http://www.w3.org/1999/02/22-rdf-syntax-ns#">
   <cc:Work>
    <dc:type rdf:resource="http://purl.org/dc/dcmitype/StillImage"/>
    <dc:date>2025-07-24T14:18:57.476990</dc:date>
    <dc:format>image/svg+xml</dc:format>
    <dc:creator>
     <cc:Agent>
      <dc:title>Matplotlib v3.10.1, https://matplotlib.org/</dc:title>
     </cc:Agent>
    </dc:creator>
   </cc:Work>
  </rdf:RDF>
 </metadata>
 <defs>
  <style type="text/css">*{stroke-linejoin: round; stroke-linecap: butt}</style>
 </defs>
 <g id="figure_1">
  <g id="patch_1">
   <path d="M 0 174.26 
L 223.65 174.26 
L 223.65 0 
L 0 0 
L 0 174.26 
z
" style="fill: none"/>
  </g>
  <g id="axes_1">
   <g id="patch_2">
    <path d="M 7.2 48.78 
L 216.45 48.78 
L 216.45 7.2 
L 7.2 7.2 
L 7.2 48.78 
z
" style="fill: none"/>
   </g>
   <g id="matplotlib.axis_1">
    <g id="xtick_1"/>
    <g id="xtick_2"/>
    <g id="xtick_3"/>
    <g id="xtick_4"/>
    <g id="xtick_5"/>
   </g>
   <g id="matplotlib.axis_2"/>
   <g id="line2d_1">
    <path d="M 7.2 48.78 
L 216.45 48.78 
" style="fill: none; stroke: #482475; stroke-opacity: 0.9; stroke-linecap: round"/>
   </g>
   <g id="text_1">
    <!-- 0 -->
    <g style="fill: #482475" transform="translate(7.2 47.862) scale(0.12 -0.12)">
     <defs>
      <path id="IBMPlexSans-Bold-30" d="M 1920 -77 
Q 1043 -77 620 531 
Q 198 1139 198 2234 
Q 198 3328 620 3936 
Q 1043 4544 1920 4544 
Q 2797 4544 3219 3936 
Q 3642 3328 3642 2234 
Q 3642 1139 3219 531 
Q 2797 -77 1920 -77 
z
M 1920 736 
Q 2304 736 2451 1017 
Q 2598 1299 2598 1811 
L 2598 2656 
Q 2598 3168 2451 3449 
Q 2304 3731 1920 3731 
Q 1536 3731 1389 3449 
Q 1242 3168 1242 2656 
L 1242 1811 
Q 1242 1299 1389 1017 
Q 1536 736 1920 736 
z
" transform="scale(0.015625)"/>
     </defs>
     <use xlink:href="#IBMPlexSans-Bold-30"/>
    </g>
   </g>
  </g>
  <g id="axes_2">
   <g id="patch_3">
    <path d="M 7.2 59.175 
L 216.45 59.175 
L 216.45 17.595 
L 7.2 17.595 
L 7.2 59.175 
z
" style="fill: none"/>
   </g>
   <g id="matplotlib.axis_3">
    <g id="xtick_6"/>
    <g id="xtick_7"/>
    <g id="xtick_8"/>
    <g id="xtick_9"/>
    <g id="xtick_10"/>
   </g>
   <g id="matplotlib.axis_4"/>
   <g id="line2d_2">
    <path d="M 7.2 59.175 
L 216.45 59.175 
" style="fill: none; stroke: #482475; stroke-opacity: 0.9; stroke-linecap: round"/>
   </g>
   <g id="text_2">
    <!-- 1 -->
    <g style="fill: #482475" transform="translate(7.2 58.257) scale(0.12 -0.12)">
     <defs>
      <path id="IBMPlexSans-Bold-31" d="M 602 0 
L 602 774 
L 1805 774 
L 1805 3770 
L 1747 3770 
L 838 2579 
L 224 3059 
L 1293 4467 
L 2765 4467 
L 2765 774 
L 3712 774 
L 3712 0 
L 602 0 
z
" transform="scale(0.015625)"/>
     </defs>
     <use xlink:href="#IBMPlexSans-Bold-31"/>
    </g>
   </g>
  </g>
  <g id="axes_3">
   <g id="patch_4">
    <path d="M 7.2 69.57 
L 216.45 69.57 
L 216.45 27.99 
L 7.2 27.99 
L 7.2 69.57 
z
" style="fill: none"/>
   </g>
   <g id="matplotlib.axis_5">
    <g id="xtick_11"/>
    <g id="xtick_12"/>
    <g id="xtick_13"/>
    <g id="xtick_14"/>
    <g id="xtick_15"/>
   </g>
   <g id="matplotlib.axis_6"/>
   <g id="line2d_3">
    <path d="M 7.2 69.57 
L 216.45 69.57 
" style="fill: none; stroke: #482475; stroke-opacity: 0.9; stroke-linecap: round"/>
   </g>
   <g id="text_3">
    <!-- 2 -->
    <g style="fill: #482475" transform="translate(7.2 68.652) scale(0.12 -0.12)">
     <defs>
      <path id="IBMPlexSans-Bold-32" d="M 3526 0 
L 365 0 
L 365 877 
L 1741 2054 
Q 1926 2214 2054 2345 
Q 2182 2477 2262 2601 
Q 2342 2726 2377 2848 
Q 2413 2970 2413 3110 
L 2413 3200 
Q 2413 3328 2361 3424 
Q 2310 3520 2227 3584 
Q 2144 3648 2038 3680 
Q 1933 3712 1824 3712 
Q 1664 3712 1545 3661 
Q 1427 3610 1340 3523 
Q 1254 3437 1196 3325 
Q 1139 3213 1107 3085 
L 269 3405 
Q 346 3635 480 3843 
Q 614 4051 816 4208 
Q 1018 4365 1293 4454 
Q 1568 4544 1914 4544 
Q 2278 4544 2560 4441 
Q 2842 4339 3037 4160 
Q 3232 3981 3334 3734 
Q 3437 3488 3437 3200 
Q 3437 2912 3341 2675 
Q 3245 2438 3081 2230 
Q 2918 2022 2700 1836 
Q 2483 1651 2246 1459 
L 1414 806 
L 3526 806 
L 3526 0 
z
" transform="scale(0.015625)"/>
     </defs>
     <use xlink:href="#IBMPlexSans-Bold-32"/>
    </g>
   </g>
  </g>
  <g id="axes_4">
   <g id="patch_5">
    <path d="M 7.2 79.965 
L 216.45 79.965 
L 216.45 38.385 
L 7.2 38.385 
L 7.2 79.965 
z
" style="fill: none"/>
   </g>
   <g id="matplotlib.axis_7">
    <g id="xtick_16"/>
    <g id="xtick_17"/>
    <g id="xtick_18"/>
    <g id="xtick_19"/>
    <g id="xtick_20"/>
   </g>
   <g id="matplotlib.axis_8"/>
   <g id="line2d_4">
    <path d="M 7.2 79.965 
L 216.45 79.965 
" style="fill: none; stroke: #482475; stroke-opacity: 0.9; stroke-linecap: round"/>
   </g>
   <g id="text_4">
    <!-- 3 -->
    <g style="fill: #482475" transform="translate(7.2 79.047) scale(0.12 -0.12)">
     <defs>
      <path id="IBMPlexSans-Bold-33" d="M 1677 2701 
Q 2035 2701 2198 2838 
Q 2362 2976 2362 3181 
L 2362 3226 
Q 2362 3469 2205 3616 
Q 2048 3763 1760 3763 
Q 1491 3763 1254 3625 
Q 1018 3488 851 3232 
L 250 3795 
Q 378 3962 525 4099 
Q 672 4237 857 4336 
Q 1043 4435 1273 4489 
Q 1504 4544 1792 4544 
Q 2150 4544 2441 4461 
Q 2733 4378 2941 4221 
Q 3149 4064 3261 3846 
Q 3373 3629 3373 3360 
Q 3373 3149 3305 2976 
Q 3238 2803 3120 2675 
Q 3002 2547 2848 2467 
Q 2694 2387 2522 2355 
L 2522 2317 
Q 2720 2278 2889 2192 
Q 3059 2106 3184 1971 
Q 3309 1837 3379 1654 
Q 3450 1472 3450 1242 
Q 3450 941 3328 697 
Q 3206 454 2982 281 
Q 2758 109 2444 16 
Q 2131 -77 1754 -77 
Q 1414 -77 1152 -6 
Q 890 64 694 182 
Q 499 301 355 454 
Q 211 608 102 781 
L 813 1331 
Q 960 1056 1174 880 
Q 1389 704 1754 704 
Q 2080 704 2262 867 
Q 2445 1030 2445 1312 
L 2445 1350 
Q 2445 1626 2237 1763 
Q 2029 1901 1664 1901 
L 1261 1901 
L 1261 2701 
L 1677 2701 
z
" transform="scale(0.015625)"/>
     </defs>
     <use xlink:href="#IBMPlexSans-Bold-33"/>
    </g>
   </g>
  </g>
  <g id="axes_5">
   <g id="patch_6">
    <path d="M 7.2 90.36 
L 216.45 90.36 
L 216.45 48.78 
L 7.2 48.78 
L 7.2 90.36 
z
" style="fill: none"/>
   </g>
   <g id="matplotlib.axis_9">
    <g id="xtick_21"/>
    <g id="xtick_22"/>
    <g id="xtick_23"/>
    <g id="xtick_24"/>
    <g id="xtick_25"/>
   </g>
   <g id="matplotlib.axis_10"/>
   <g id="line2d_5">
    <path d="M 7.2 90.36 
L 216.45 90.36 
" style="fill: none; stroke: #482475; stroke-opacity: 0.9; stroke-linecap: round"/>
   </g>
   <g id="text_5">
    <!-- 4 -->
    <g style="fill: #482475" transform="translate(7.2 89.442) scale(0.12 -0.12)">
     <defs>
      <path id="IBMPlexSans-Bold-34" d="M 2157 0 
L 2157 858 
L 192 858 
L 192 1677 
L 1933 4467 
L 3072 4467 
L 3072 1600 
L 3635 1600 
L 3635 858 
L 3072 858 
L 3072 0 
L 2157 0 
z
M 960 1600 
L 2157 1600 
L 2157 3475 
L 2093 3475 
L 960 1600 
z
" transform="scale(0.015625)"/>
     </defs>
     <use xlink:href="#IBMPlexSans-Bold-34"/>
    </g>
   </g>
  </g>
  <g id="axes_6">
   <g id="patch_7">
    <path d="M 7.2 100.755 
L 216.45 100.755 
L 216.45 59.175 
L 7.2 59.175 
L 7.2 100.755 
z
" style="fill: none"/>
   </g>
   <g id="matplotlib.axis_11">
    <g id="xtick_26"/>
    <g id="xtick_27"/>
    <g id="xtick_28"/>
    <g id="xtick_29"/>
    <g id="xtick_30"/>
   </g>
   <g id="matplotlib.axis_12"/>
   <g id="FillBetweenPolyCollection_1">
    <defs>
     <path id="m7032c6a009" d="M 92.243251 -73.888792 
L 92.243251 -73.505 
L 92.473454 -73.505 
L 92.703658 -73.505 
L 92.933861 -73.505 
L 93.164065 -73.505 
L 93.394269 -73.505 
L 93.624472 -73.505 
L 93.854676 -73.505 
L 94.08488 -73.505 
L 94.315083 -73.505 
L 94.545287 -73.505 
L 94.77549 -73.505 
L 95.005694 -73.505 
L 95.235898 -73.505 
L 95.466101 -73.505 
L 95.696305 -73.505 
L 95.926509 -73.505 
L 96.156712 -73.505 
L 96.386916 -73.505 
L 96.617119 -73.505 
L 96.847323 -73.505 
L 97.077527 -73.505 
L 97.30773 -73.505 
L 97.537934 -73.505 
L 97.768138 -73.505 
L 97.998341 -73.505 
L 98.228545 -73.505 
L 98.458748 -73.505 
L 98.688952 -73.505 
L 98.919156 -73.505 
L 99.149359 -73.505 
L 99.379563 -73.505 
L 99.609766 -73.505 
L 99.83997 -73.505 
L 100.070174 -73.505 
L 100.300377 -73.505 
L 100.530581 -73.505 
L 100.760785 -73.505 
L 100.990988 -73.505 
L 101.221192 -73.505 
L 101.451395 -73.505 
L 101.681599 -73.505 
L 101.911803 -73.505 
L 102.142006 -73.505 
L 102.37221 -73.505 
L 102.602414 -73.505 
L 102.832617 -73.505 
L 103.062821 -73.505 
L 103.293024 -73.505 
L 103.523228 -73.505 
L 103.753432 -73.505 
L 103.983635 -73.505 
L 104.213839 -73.505 
L 104.444043 -73.505 
L 104.674246 -73.505 
L 104.90445 -73.505 
L 105.134653 -73.505 
L 105.364857 -73.505 
L 105.595061 -73.505 
L 105.825264 -73.505 
L 106.055468 -73.505 
L 106.285672 -73.505 
L 106.515875 -73.505 
L 106.746079 -73.505 
L 106.976282 -73.505 
L 107.206486 -73.505 
L 107.43669 -73.505 
L 107.666893 -73.505 
L 107.897097 -73.505 
L 108.127301 -73.505 
L 108.357504 -73.505 
L 108.587708 -73.505 
L 108.817911 -73.505 
L 109.048115 -73.505 
L 109.278319 -73.505 
L 109.508522 -73.505 
L 109.738726 -73.505 
L 109.96893 -73.505 
L 110.199133 -73.505 
L 110.429337 -73.505 
L 110.65954 -73.505 
L 110.889744 -73.505 
L 111.119948 -73.505 
L 111.350151 -73.505 
L 111.580355 -73.505 
L 111.810559 -73.505 
L 112.040762 -73.505 
L 112.270966 -73.505 
L 112.501169 -73.505 
L 112.731373 -73.505 
L 112.961577 -73.505 
L 113.19178 -73.505 
L 113.421984 -73.505 
L 113.652187 -73.505 
L 113.882391 -73.505 
L 114.112595 -73.505 
L 114.342798 -73.505 
L 114.573002 -73.505 
L 114.803206 -73.505 
L 115.033409 -73.505 
L 115.263613 -73.505 
L 115.493816 -73.505 
L 115.72402 -73.505 
L 115.954224 -73.505 
L 116.184427 -73.505 
L 116.414631 -73.505 
L 116.644835 -73.505 
L 116.875038 -73.505 
L 117.105242 -73.505 
L 117.335445 -73.505 
L 117.565649 -73.505 
L 117.795853 -73.505 
L 118.026056 -73.505 
L 118.25626 -73.505 
L 118.486464 -73.505 
L 118.716667 -73.505 
L 118.946871 -73.505 
L 119.177074 -73.505 
L 119.407278 -73.505 
L 119.637482 -73.505 
L 119.867685 -73.505 
L 120.097889 -73.505 
L 120.328093 -73.505 
L 120.558296 -73.505 
L 120.7885 -73.505 
L 121.018703 -73.505 
L 121.248907 -73.505 
L 121.479111 -73.505 
L 121.709314 -73.505 
L 121.939518 -73.505 
L 122.169722 -73.505 
L 122.399925 -73.505 
L 122.630129 -73.505 
L 122.860332 -73.505 
L 123.090536 -73.505 
L 123.32074 -73.505 
L 123.550943 -73.505 
L 123.781147 -73.505 
L 124.011351 -73.505 
L 124.241554 -73.505 
L 124.471758 -73.505 
L 124.701961 -73.505 
L 124.932165 -73.505 
L 125.162369 -73.505 
L 125.392572 -73.505 
L 125.622776 -73.505 
L 125.85298 -73.505 
L 126.083183 -73.505 
L 126.313387 -73.505 
L 126.54359 -73.505 
L 126.773794 -73.505 
L 127.003998 -73.505 
L 127.234201 -73.505 
L 127.464405 -73.505 
L 127.694608 -73.505 
L 127.924812 -73.505 
L 128.155016 -73.505 
L 128.385219 -73.505 
L 128.615423 -73.505 
L 128.845627 -73.505 
L 129.07583 -73.505 
L 129.306034 -73.505 
L 129.536237 -73.505 
L 129.766441 -73.505 
L 129.996645 -73.505 
L 130.226848 -73.505 
L 130.457052 -73.505 
L 130.687256 -73.505 
L 130.917459 -73.505 
L 131.147663 -73.505 
L 131.377866 -73.505 
L 131.60807 -73.505 
L 131.838274 -73.505 
L 132.068477 -73.505 
L 132.298681 -73.505 
L 132.528885 -73.505 
L 132.759088 -73.505 
L 132.989292 -73.505 
L 133.219495 -73.505 
L 133.449699 -73.505 
L 133.679903 -73.505 
L 133.910106 -73.505 
L 134.14031 -73.505 
L 134.370514 -73.505 
L 134.600717 -73.505 
L 134.830921 -73.505 
L 135.061124 -73.505 
L 135.291328 -73.505 
L 135.521532 -73.505 
L 135.751735 -73.505 
L 135.981939 -73.505 
L 136.212143 -73.505 
L 136.442346 -73.505 
L 136.67255 -73.505 
L 136.902753 -73.505 
L 137.132957 -73.505 
L 137.363161 -73.505 
L 137.593364 -73.505 
L 137.823568 -73.505 
L 138.053772 -73.505 
L 138.053772 -74.569673 
L 138.053772 -74.569673 
L 137.823568 -74.752907 
L 137.593364 -74.962491 
L 137.363161 -75.20124 
L 137.132957 -75.472088 
L 136.902753 -75.778052 
L 136.67255 -76.122198 
L 136.442346 -76.507587 
L 136.212143 -76.937224 
L 135.981939 -77.413987 
L 135.751735 -77.940566 
L 135.521532 -78.519376 
L 135.291328 -79.152485 
L 135.061124 -79.841532 
L 134.830921 -80.587642 
L 134.600717 -81.391351 
L 134.370514 -82.252538 
L 134.14031 -83.17036 
L 133.910106 -84.143203 
L 133.679903 -85.168654 
L 133.449699 -86.243475 
L 133.219495 -87.363619 
L 132.989292 -88.524242 
L 132.759088 -89.719761 
L 132.528885 -90.943913 
L 132.298681 -92.189849 
L 132.068477 -93.450241 
L 131.838274 -94.717402 
L 131.60807 -95.983428 
L 131.377866 -97.24034 
L 131.147663 -98.480238 
L 130.917459 -99.695444 
L 130.687256 -100.878657 
L 130.457052 -102.023077 
L 130.226848 -103.122538 
L 129.996645 -104.171599 
L 129.766441 -105.165635 
L 129.536237 -106.100891 
L 129.306034 -106.974516 
L 129.07583 -107.784568 
L 128.845627 -108.53 
L 128.615423 -109.210615 
L 128.385219 -109.827006 
L 128.155016 -110.380473 
L 127.924812 -110.872929 
L 127.694608 -111.306794 
L 127.464405 -111.684886 
L 127.234201 -112.010304 
L 127.003998 -112.286324 
L 126.773794 -112.516293 
L 126.54359 -112.703537 
L 126.313387 -112.85128 
L 126.083183 -112.962583 
L 125.85298 -113.040288 
L 125.622776 -113.086986 
L 125.392572 -113.105 
L 125.162369 -113.096376 
L 124.932165 -113.062888 
L 124.701961 -113.006057 
L 124.471758 -112.927169 
L 124.241554 -112.827299 
L 124.011351 -112.707343 
L 123.781147 -112.568038 
L 123.550943 -112.409988 
L 123.32074 -112.233682 
L 123.090536 -112.039505 
L 122.860332 -111.82775 
L 122.630129 -111.59862 
L 122.399925 -111.352227 
L 122.169722 -111.088592 
L 121.939518 -110.807637 
L 121.709314 -110.509189 
L 121.479111 -110.192972 
L 121.248907 -109.858619 
L 121.018703 -109.505676 
L 120.7885 -109.133623 
L 120.558296 -108.74189 
L 120.328093 -108.329894 
L 120.097889 -107.897069 
L 119.867685 -107.442905 
L 119.637482 -106.966998 
L 119.407278 -106.469088 
L 119.177074 -105.949108 
L 118.946871 -105.407223 
L 118.716667 -104.843873 
L 118.486464 -104.259798 
L 118.25626 -103.656067 
L 118.026056 -103.034088 
L 117.795853 -102.395615 
L 117.565649 -101.742742 
L 117.335445 -101.077881 
L 117.105242 -100.403739 
L 116.875038 -99.723278 
L 116.644835 -99.03967 
L 116.414631 -98.356239 
L 116.184427 -97.676409 
L 115.954224 -97.003635 
L 115.72402 -96.341339 
L 115.493816 -95.692846 
L 115.263613 -95.061319 
L 115.033409 -94.449702 
L 114.803206 -93.860667 
L 114.573002 -93.296565 
L 114.342798 -92.759396 
L 114.112595 -92.250777 
L 113.882391 -91.771932 
L 113.652187 -91.323684 
L 113.421984 -90.906468 
L 113.19178 -90.520348 
L 112.961577 -90.165047 
L 112.731373 -89.839988 
L 112.501169 -89.544333 
L 112.270966 -89.277045 
L 112.040762 -89.036932 
L 111.810559 -88.822708 
L 111.580355 -88.633041 
L 111.350151 -88.466608 
L 111.119948 -88.322131 
L 110.889744 -88.198417 
L 110.65954 -88.094378 
L 110.429337 -88.009051 
L 110.199133 -87.941603 
L 109.96893 -87.891321 
L 109.738726 -87.857602 
L 109.508522 -87.83993 
L 109.278319 -87.837845 
L 109.048115 -87.85091 
L 108.817911 -87.878676 
L 108.587708 -87.920642 
L 108.357504 -87.976221 
L 108.127301 -88.044706 
L 107.897097 -88.125244 
L 107.666893 -88.216812 
L 107.43669 -88.318199 
L 107.206486 -88.427999 
L 106.976282 -88.544611 
L 106.746079 -88.666236 
L 106.515875 -88.790895 
L 106.285672 -88.916441 
L 106.055468 -89.040577 
L 105.825264 -89.160883 
L 105.595061 -89.274838 
L 105.364857 -89.379854 
L 105.134653 -89.473296 
L 104.90445 -89.552524 
L 104.674246 -89.614912 
L 104.444043 -89.657889 
L 104.213839 -89.678968 
L 103.983635 -89.675776 
L 103.753432 -89.646095 
L 103.523228 -89.587889 
L 103.293024 -89.499344 
L 103.062821 -89.378902 
L 102.832617 -89.225295 
L 102.602414 -89.037578 
L 102.37221 -88.815163 
L 102.142006 -88.557841 
L 101.911803 -88.26581 
L 101.681599 -87.939687 
L 101.451395 -87.58052 
L 101.221192 -87.189786 
L 100.990988 -86.769383 
L 100.760785 -86.321611 
L 100.530581 -85.849144 
L 100.300377 -85.354987 
L 100.070174 -84.842436 
L 99.83997 -84.315013 
L 99.609766 -83.77641 
L 99.379563 -83.230423 
L 99.149359 -82.680878 
L 98.919156 -82.131565 
L 98.688952 -81.586168 
L 98.458748 -81.048205 
L 98.228545 -80.520964 
L 97.998341 -80.007458 
L 97.768138 -79.51038 
L 97.537934 -79.032069 
L 97.30773 -78.574495 
L 97.077527 -78.139239 
L 96.847323 -77.727496 
L 96.617119 -77.340086 
L 96.386916 -76.977462 
L 96.156712 -76.639742 
L 95.926509 -76.326736 
L 95.696305 -76.037978 
L 95.466101 -75.772768 
L 95.235898 -75.530211 
L 95.005694 -75.30925 
L 94.77549 -75.108713 
L 94.545287 -74.927345 
L 94.315083 -74.763842 
L 94.08488 -74.616883 
L 93.854676 -74.485151 
L 93.624472 -74.367364 
L 93.394269 -74.262281 
L 93.164065 -74.168726 
L 92.933861 -74.085591 
L 92.703658 -74.011845 
L 92.473454 -73.946536 
L 92.243251 -73.888792 
z
" style="stroke: #414487; stroke-width: 1.25"/>
    </defs>
    <g>
     <use xlink:href="#m7032c6a009" x="0" y="174.26" style="fill: #414487; fill-opacity: 0.7; stroke: #414487; stroke-width: 1.25"/>
    </g>
   </g>
   <g id="line2d_6">
    <path d="M 7.2 100.755 
L 216.45 100.755 
" style="fill: none; stroke: #414487; stroke-opacity: 0.9; stroke-linecap: round"/>
   </g>
   <g id="text_6">
    <!-- 5 -->
    <g style="fill: #414487" transform="translate(7.2 99.837) scale(0.12 -0.12)">
     <defs>
      <path id="IBMPlexSans-Bold-35" d="M 3341 3629 
L 1312 3629 
L 1216 2214 
L 1267 2214 
Q 1331 2374 1411 2505 
Q 1491 2637 1600 2729 
Q 1709 2822 1862 2873 
Q 2016 2925 2227 2925 
Q 2515 2925 2764 2829 
Q 3014 2733 3200 2550 
Q 3386 2368 3494 2102 
Q 3603 1837 3603 1504 
Q 3603 1165 3491 873 
Q 3379 582 3158 371 
Q 2938 160 2618 41 
Q 2298 -77 1888 -77 
Q 1562 -77 1312 -6 
Q 1062 64 870 182 
Q 678 301 537 454 
Q 397 608 294 781 
L 992 1331 
Q 1139 1069 1344 886 
Q 1549 704 1894 704 
Q 2240 704 2416 902 
Q 2592 1101 2592 1427 
L 2592 1478 
Q 2592 1786 2413 1965 
Q 2234 2144 1920 2144 
Q 1658 2144 1488 2038 
Q 1318 1933 1229 1830 
L 442 1939 
L 608 4467 
L 3341 4467 
L 3341 3629 
z
" transform="scale(0.015625)"/>
     </defs>
     <use xlink:href="#IBMPlexSans-Bold-35"/>
    </g>
   </g>
  </g>
  <g id="axes_7">
   <g id="patch_8">
    <path d="M 7.2 111.15 
L 216.45 111.15 
L 216.45 69.57 
L 7.2 69.57 
L 7.2 111.15 
z
" style="fill: none"/>
   </g>
   <g id="matplotlib.axis_13">
    <g id="xtick_31"/>
    <g id="xtick_32"/>
    <g id="xtick_33"/>
    <g id="xtick_34"/>
    <g id="xtick_35"/>
   </g>
   <g id="matplotlib.axis_14"/>
   <g id="FillBetweenPolyCollection_2">
    <defs>
     <path id="m9139835502" d="M 67.915365 -63.297901 
L 67.915365 -63.11 
L 68.379764 -63.11 
L 68.844164 -63.11 
L 69.308563 -63.11 
L 69.772963 -63.11 
L 70.237363 -63.11 
L 70.701762 -63.11 
L 71.166162 -63.11 
L 71.630562 -63.11 
L 72.094961 -63.11 
L 72.559361 -63.11 
L 73.02376 -63.11 
L 73.48816 -63.11 
L 73.95256 -63.11 
L 74.416959 -63.11 
L 74.881359 -63.11 
L 75.345758 -63.11 
L 75.810158 -63.11 
L 76.274558 -63.11 
L 76.738957 -63.11 
L 77.203357 -63.11 
L 77.667757 -63.11 
L 78.132156 -63.11 
L 78.596556 -63.11 
L 79.060955 -63.11 
L 79.525355 -63.11 
L 79.989755 -63.11 
L 80.454154 -63.11 
L 80.918554 -63.11 
L 81.382953 -63.11 
L 81.847353 -63.11 
L 82.311753 -63.11 
L 82.776152 -63.11 
L 83.240552 -63.11 
L 83.704952 -63.11 
L 84.169351 -63.11 
L 84.633751 -63.11 
L 85.09815 -63.11 
L 85.56255 -63.11 
L 86.02695 -63.11 
L 86.491349 -63.11 
L 86.955749 -63.11 
L 87.420148 -63.11 
L 87.884548 -63.11 
L 88.348948 -63.11 
L 88.813347 -63.11 
L 89.277747 -63.11 
L 89.742147 -63.11 
L 90.206546 -63.11 
L 90.670946 -63.11 
L 91.135345 -63.11 
L 91.599745 -63.11 
L 92.064145 -63.11 
L 92.528544 -63.11 
L 92.992944 -63.11 
L 93.457343 -63.11 
L 93.921743 -63.11 
L 94.386143 -63.11 
L 94.850542 -63.11 
L 95.314942 -63.11 
L 95.779341 -63.11 
L 96.243741 -63.11 
L 96.708141 -63.11 
L 97.17254 -63.11 
L 97.63694 -63.11 
L 98.10134 -63.11 
L 98.565739 -63.11 
L 99.030139 -63.11 
L 99.494538 -63.11 
L 99.958938 -63.11 
L 100.423338 -63.11 
L 100.887737 -63.11 
L 101.352137 -63.11 
L 101.816536 -63.11 
L 102.280936 -63.11 
L 102.745336 -63.11 
L 103.209735 -63.11 
L 103.674135 -63.11 
L 104.138535 -63.11 
L 104.602934 -63.11 
L 105.067334 -63.11 
L 105.531733 -63.11 
L 105.996133 -63.11 
L 106.460533 -63.11 
L 106.924932 -63.11 
L 107.389332 -63.11 
L 107.853731 -63.11 
L 108.318131 -63.11 
L 108.782531 -63.11 
L 109.24693 -63.11 
L 109.71133 -63.11 
L 110.17573 -63.11 
L 110.640129 -63.11 
L 111.104529 -63.11 
L 111.568928 -63.11 
L 112.033328 -63.11 
L 112.497728 -63.11 
L 112.962127 -63.11 
L 113.426527 -63.11 
L 113.890926 -63.11 
L 114.355326 -63.11 
L 114.819726 -63.11 
L 115.284125 -63.11 
L 115.748525 -63.11 
L 116.212925 -63.11 
L 116.677324 -63.11 
L 117.141724 -63.11 
L 117.606123 -63.11 
L 118.070523 -63.11 
L 118.534923 -63.11 
L 118.999322 -63.11 
L 119.463722 -63.11 
L 119.928121 -63.11 
L 120.392521 -63.11 
L 120.856921 -63.11 
L 121.32132 -63.11 
L 121.78572 -63.11 
L 122.25012 -63.11 
L 122.714519 -63.11 
L 123.178919 -63.11 
L 123.643318 -63.11 
L 124.107718 -63.11 
L 124.572118 -63.11 
L 125.036517 -63.11 
L 125.500917 -63.11 
L 125.965316 -63.11 
L 126.429716 -63.11 
L 126.894116 -63.11 
L 127.358515 -63.11 
L 127.822915 -63.11 
L 128.287315 -63.11 
L 128.751714 -63.11 
L 129.216114 -63.11 
L 129.680513 -63.11 
L 130.144913 -63.11 
L 130.609313 -63.11 
L 131.073712 -63.11 
L 131.538112 -63.11 
L 132.002511 -63.11 
L 132.466911 -63.11 
L 132.931311 -63.11 
L 133.39571 -63.11 
L 133.86011 -63.11 
L 134.32451 -63.11 
L 134.788909 -63.11 
L 135.253309 -63.11 
L 135.717708 -63.11 
L 136.182108 -63.11 
L 136.646508 -63.11 
L 137.110907 -63.11 
L 137.575307 -63.11 
L 138.039706 -63.11 
L 138.504106 -63.11 
L 138.968506 -63.11 
L 139.432905 -63.11 
L 139.897305 -63.11 
L 140.361704 -63.11 
L 140.826104 -63.11 
L 141.290504 -63.11 
L 141.754903 -63.11 
L 142.219303 -63.11 
L 142.683703 -63.11 
L 143.148102 -63.11 
L 143.612502 -63.11 
L 144.076901 -63.11 
L 144.541301 -63.11 
L 145.005701 -63.11 
L 145.4701 -63.11 
L 145.9345 -63.11 
L 146.398899 -63.11 
L 146.863299 -63.11 
L 147.327699 -63.11 
L 147.792098 -63.11 
L 148.256498 -63.11 
L 148.720898 -63.11 
L 149.185297 -63.11 
L 149.649697 -63.11 
L 150.114096 -63.11 
L 150.578496 -63.11 
L 151.042896 -63.11 
L 151.507295 -63.11 
L 151.971695 -63.11 
L 152.436094 -63.11 
L 152.900494 -63.11 
L 153.364894 -63.11 
L 153.829293 -63.11 
L 154.293693 -63.11 
L 154.758093 -63.11 
L 155.222492 -63.11 
L 155.686892 -63.11 
L 156.151291 -63.11 
L 156.615691 -63.11 
L 157.080091 -63.11 
L 157.54449 -63.11 
L 158.00889 -63.11 
L 158.473289 -63.11 
L 158.937689 -63.11 
L 159.402089 -63.11 
L 159.866488 -63.11 
L 160.330888 -63.11 
L 160.330888 -63.728483 
L 160.330888 -63.728483 
L 159.866488 -63.831554 
L 159.402089 -63.948653 
L 158.937689 -64.08113 
L 158.473289 -64.230374 
L 158.00889 -64.397792 
L 157.54449 -64.584788 
L 157.080091 -64.792743 
L 156.615691 -65.022982 
L 156.151291 -65.276753 
L 155.686892 -65.555189 
L 155.222492 -65.859275 
L 154.758093 -66.189818 
L 154.293693 -66.547404 
L 153.829293 -66.932374 
L 153.364894 -67.344783 
L 152.900494 -67.784376 
L 152.436094 -68.250564 
L 151.971695 -68.742402 
L 151.507295 -69.258579 
L 151.042896 -69.797413 
L 150.578496 -70.356854 
L 150.114096 -70.934498 
L 149.649697 -71.52761 
L 149.185297 -72.133152 
L 148.720898 -72.747828 
L 148.256498 -73.368131 
L 147.792098 -73.990397 
L 147.327699 -74.610872 
L 146.863299 -75.225776 
L 146.398899 -75.831371 
L 145.9345 -76.424033 
L 145.4701 -77.000318 
L 145.005701 -77.557029 
L 144.541301 -78.091272 
L 144.076901 -78.600504 
L 143.612502 -79.08258 
L 143.148102 -79.535777 
L 142.683703 -79.958815 
L 142.219303 -80.350862 
L 141.754903 -80.711525 
L 141.290504 -81.040833 
L 140.826104 -81.339204 
L 140.361704 -81.607406 
L 139.897305 -81.846507 
L 139.432905 -82.057822 
L 138.968506 -82.242852 
L 138.504106 -82.403222 
L 138.039706 -82.540624 
L 137.575307 -82.656758 
L 137.110907 -82.753281 
L 136.646508 -82.831759 
L 136.182108 -82.893632 
L 135.717708 -82.940183 
L 135.253309 -82.972519 
L 134.788909 -82.991561 
L 134.32451 -82.99804 
L 133.86011 -82.992504 
L 133.39571 -82.975329 
L 132.931311 -82.94674 
L 132.466911 -82.906828 
L 132.002511 -82.855577 
L 131.538112 -82.792885 
L 131.073712 -82.718594 
L 130.609313 -82.632507 
L 130.144913 -82.534412 
L 129.680513 -82.424097 
L 129.216114 -82.301368 
L 128.751714 -82.166057 
L 128.287315 -82.018034 
L 127.822915 -81.857211 
L 127.358515 -81.683549 
L 126.894116 -81.497057 
L 126.429716 -81.297801 
L 125.965316 -81.085899 
L 125.500917 -80.86153 
L 125.036517 -80.624933 
L 124.572118 -80.376415 
L 124.107718 -80.11635 
L 123.643318 -79.845189 
L 123.178919 -79.563462 
L 122.714519 -79.271785 
L 122.25012 -78.970863 
L 121.78572 -78.661493 
L 121.32132 -78.344569 
L 120.856921 -78.021075 
L 120.392521 -77.692087 
L 119.928121 -77.358765 
L 119.463722 -77.022345 
L 118.999322 -76.684126 
L 118.534923 -76.34546 
L 118.070523 -76.00773 
L 117.606123 -75.672335 
L 117.141724 -75.340667 
L 116.677324 -75.014094 
L 116.212925 -74.693936 
L 115.748525 -74.381443 
L 115.284125 -74.077777 
L 114.819726 -73.783995 
L 114.355326 -73.501031 
L 113.890926 -73.229686 
L 113.426527 -72.970616 
L 112.962127 -72.724328 
L 112.497728 -72.491181 
L 112.033328 -72.271382 
L 111.568928 -72.064999 
L 111.104529 -71.871969 
L 110.640129 -71.692106 
L 110.17573 -71.525127 
L 109.71133 -71.370659 
L 109.24693 -71.228268 
L 108.782531 -71.097471 
L 108.318131 -70.977763 
L 107.853731 -70.868631 
L 107.389332 -70.769574 
L 106.924932 -70.680118 
L 106.460533 -70.599828 
L 105.996133 -70.528318 
L 105.531733 -70.46526 
L 105.067334 -70.410379 
L 104.602934 -70.363458 
L 104.138535 -70.324333 
L 103.674135 -70.292881 
L 103.209735 -70.269012 
L 102.745336 -70.252655 
L 102.280936 -70.243743 
L 101.816536 -70.242197 
L 101.352137 -70.247904 
L 100.887737 -70.26071 
L 100.423338 -70.280393 
L 99.958938 -70.306655 
L 99.494538 -70.339107 
L 99.030139 -70.377258 
L 98.565739 -70.420505 
L 98.10134 -70.468132 
L 97.63694 -70.519306 
L 97.17254 -70.573077 
L 96.708141 -70.628386 
L 96.243741 -70.684072 
L 95.779341 -70.738879 
L 95.314942 -70.791477 
L 94.850542 -70.840471 
L 94.386143 -70.884425 
L 93.921743 -70.921878 
L 93.457343 -70.951371 
L 92.992944 -70.971465 
L 92.528544 -70.980768 
L 92.064145 -70.977956 
L 91.599745 -70.961804 
L 91.135345 -70.9312 
L 90.670946 -70.885177 
L 90.206546 -70.822929 
L 89.742147 -70.743832 
L 89.277747 -70.647461 
L 88.813347 -70.533603 
L 88.348948 -70.40227 
L 87.884548 -70.253701 
L 87.420148 -70.088368 
L 86.955749 -69.906971 
L 86.491349 -69.710429 
L 86.02695 -69.499869 
L 85.56255 -69.276609 
L 85.09815 -69.042132 
L 84.633751 -68.798064 
L 84.169351 -68.546141 
L 83.704952 -68.288179 
L 83.240552 -68.026038 
L 82.776152 -67.761591 
L 82.311753 -67.496686 
L 81.847353 -67.233115 
L 81.382953 -66.972584 
L 80.918554 -66.716688 
L 80.454154 -66.466881 
L 79.989755 -66.224466 
L 79.525355 -65.990573 
L 79.060955 -65.766157 
L 78.596556 -65.551986 
L 78.132156 -65.348651 
L 77.667757 -65.156562 
L 77.203357 -64.975961 
L 76.738957 -64.806934 
L 76.274558 -64.649425 
L 75.810158 -64.50325 
L 75.345758 -64.368119 
L 74.881359 -64.243651 
L 74.416959 -64.12939 
L 73.95256 -64.02483 
L 73.48816 -63.929423 
L 73.02376 -63.842597 
L 72.559361 -63.763772 
L 72.094961 -63.692367 
L 71.630562 -63.627815 
L 71.166162 -63.569563 
L 70.701762 -63.517087 
L 70.237363 -63.469889 
L 69.772963 -63.427502 
L 69.308563 -63.389494 
L 68.844164 -63.355465 
L 68.379764 -63.325046 
L 67.915365 -63.297901 
z
" style="stroke: #355f8d; stroke-width: 1.25"/>
    </defs>
    <g>
     <use xlink:href="#m9139835502" x="0" y="174.26" style="fill: #355f8d; fill-opacity: 0.7; stroke: #355f8d; stroke-width: 1.25"/>
    </g>
   </g>
   <g id="line2d_7">
    <path d="M 7.2 111.15 
L 216.45 111.15 
" style="fill: none; stroke: #355f8d; stroke-opacity: 0.9; stroke-linecap: round"/>
   </g>
   <g id="text_7">
    <!-- 6 -->
    <g style="fill: #355f8d" transform="translate(7.2 110.232) scale(0.12 -0.12)">
     <defs>
      <path id="IBMPlexSans-Bold-36" d="M 1946 -77 
Q 1549 -77 1235 48 
Q 922 173 707 406 
Q 493 640 381 966 
Q 269 1293 269 1696 
Q 269 2163 413 2582 
Q 557 3002 784 3357 
Q 1011 3712 1296 3993 
Q 1581 4275 1869 4467 
L 3194 4467 
Q 2784 4173 2457 3907 
Q 2131 3642 1891 3373 
Q 1651 3104 1494 2825 
Q 1338 2547 1274 2227 
L 1331 2208 
Q 1389 2336 1469 2457 
Q 1549 2579 1667 2672 
Q 1786 2765 1946 2822 
Q 2106 2880 2317 2880 
Q 2592 2880 2832 2781 
Q 3072 2682 3248 2502 
Q 3424 2323 3523 2064 
Q 3622 1805 3622 1491 
Q 3622 1146 3504 858 
Q 3386 570 3165 362 
Q 2944 154 2637 38 
Q 2330 -77 1946 -77 
z
M 1946 672 
Q 2266 672 2445 848 
Q 2624 1024 2624 1350 
L 2624 1466 
Q 2624 1792 2445 1968 
Q 2266 2144 1946 2144 
Q 1626 2144 1446 1968 
Q 1267 1792 1267 1466 
L 1267 1350 
Q 1267 1024 1446 848 
Q 1626 672 1946 672 
z
" transform="scale(0.015625)"/>
     </defs>
     <use xlink:href="#IBMPlexSans-Bold-36"/>
    </g>
   </g>
  </g>
  <g id="axes_8">
   <g id="patch_9">
    <path d="M 7.2 121.545 
L 216.45 121.545 
L 216.45 79.965 
L 7.2 79.965 
L 7.2 121.545 
z
" style="fill: none"/>
   </g>
   <g id="matplotlib.axis_15">
    <g id="xtick_36"/>
    <g id="xtick_37"/>
    <g id="xtick_38"/>
    <g id="xtick_39"/>
    <g id="xtick_40"/>
   </g>
   <g id="matplotlib.axis_16"/>
   <g id="FillBetweenPolyCollection_3">
    <defs>
     <path id="m9913105e2e" d="M 42.857826 -52.83881 
L 42.857826 -52.715 
L 43.563084 -52.715 
L 44.268343 -52.715 
L 44.973601 -52.715 
L 45.678859 -52.715 
L 46.384118 -52.715 
L 47.089376 -52.715 
L 47.794635 -52.715 
L 48.499893 -52.715 
L 49.205151 -52.715 
L 49.91041 -52.715 
L 50.615668 -52.715 
L 51.320926 -52.715 
L 52.026185 -52.715 
L 52.731443 -52.715 
L 53.436702 -52.715 
L 54.14196 -52.715 
L 54.847218 -52.715 
L 55.552477 -52.715 
L 56.257735 -52.715 
L 56.962993 -52.715 
L 57.668252 -52.715 
L 58.37351 -52.715 
L 59.078769 -52.715 
L 59.784027 -52.715 
L 60.489285 -52.715 
L 61.194544 -52.715 
L 61.899802 -52.715 
L 62.60506 -52.715 
L 63.310319 -52.715 
L 64.015577 -52.715 
L 64.720836 -52.715 
L 65.426094 -52.715 
L 66.131352 -52.715 
L 66.836611 -52.715 
L 67.541869 -52.715 
L 68.247127 -52.715 
L 68.952386 -52.715 
L 69.657644 -52.715 
L 70.362903 -52.715 
L 71.068161 -52.715 
L 71.773419 -52.715 
L 72.478678 -52.715 
L 73.183936 -52.715 
L 73.889194 -52.715 
L 74.594453 -52.715 
L 75.299711 -52.715 
L 76.00497 -52.715 
L 76.710228 -52.715 
L 77.415486 -52.715 
L 78.120745 -52.715 
L 78.826003 -52.715 
L 79.531261 -52.715 
L 80.23652 -52.715 
L 80.941778 -52.715 
L 81.647037 -52.715 
L 82.352295 -52.715 
L 83.057553 -52.715 
L 83.762812 -52.715 
L 84.46807 -52.715 
L 85.173328 -52.715 
L 85.878587 -52.715 
L 86.583845 -52.715 
L 87.289104 -52.715 
L 87.994362 -52.715 
L 88.69962 -52.715 
L 89.404879 -52.715 
L 90.110137 -52.715 
L 90.815395 -52.715 
L 91.520654 -52.715 
L 92.225912 -52.715 
L 92.931171 -52.715 
L 93.636429 -52.715 
L 94.341687 -52.715 
L 95.046946 -52.715 
L 95.752204 -52.715 
L 96.457462 -52.715 
L 97.162721 -52.715 
L 97.867979 -52.715 
L 98.573238 -52.715 
L 99.278496 -52.715 
L 99.983754 -52.715 
L 100.689013 -52.715 
L 101.394271 -52.715 
L 102.099529 -52.715 
L 102.804788 -52.715 
L 103.510046 -52.715 
L 104.215305 -52.715 
L 104.920563 -52.715 
L 105.625821 -52.715 
L 106.33108 -52.715 
L 107.036338 -52.715 
L 107.741596 -52.715 
L 108.446855 -52.715 
L 109.152113 -52.715 
L 109.857372 -52.715 
L 110.56263 -52.715 
L 111.267888 -52.715 
L 111.973147 -52.715 
L 112.678405 -52.715 
L 113.383663 -52.715 
L 114.088922 -52.715 
L 114.79418 -52.715 
L 115.499438 -52.715 
L 116.204697 -52.715 
L 116.909955 -52.715 
L 117.615214 -52.715 
L 118.320472 -52.715 
L 119.02573 -52.715 
L 119.730989 -52.715 
L 120.436247 -52.715 
L 121.141505 -52.715 
L 121.846764 -52.715 
L 122.552022 -52.715 
L 123.257281 -52.715 
L 123.962539 -52.715 
L 124.667797 -52.715 
L 125.373056 -52.715 
L 126.078314 -52.715 
L 126.783572 -52.715 
L 127.488831 -52.715 
L 128.194089 -52.715 
L 128.899348 -52.715 
L 129.604606 -52.715 
L 130.309864 -52.715 
L 131.015123 -52.715 
L 131.720381 -52.715 
L 132.425639 -52.715 
L 133.130898 -52.715 
L 133.836156 -52.715 
L 134.541415 -52.715 
L 135.246673 -52.715 
L 135.951931 -52.715 
L 136.65719 -52.715 
L 137.362448 -52.715 
L 138.067706 -52.715 
L 138.772965 -52.715 
L 139.478223 -52.715 
L 140.183482 -52.715 
L 140.88874 -52.715 
L 141.593998 -52.715 
L 142.299257 -52.715 
L 143.004515 -52.715 
L 143.709773 -52.715 
L 144.415032 -52.715 
L 145.12029 -52.715 
L 145.825549 -52.715 
L 146.530807 -52.715 
L 147.236065 -52.715 
L 147.941324 -52.715 
L 148.646582 -52.715 
L 149.35184 -52.715 
L 150.057099 -52.715 
L 150.762357 -52.715 
L 151.467616 -52.715 
L 152.172874 -52.715 
L 152.878132 -52.715 
L 153.583391 -52.715 
L 154.288649 -52.715 
L 154.993907 -52.715 
L 155.699166 -52.715 
L 156.404424 -52.715 
L 157.109683 -52.715 
L 157.814941 -52.715 
L 158.520199 -52.715 
L 159.225458 -52.715 
L 159.930716 -52.715 
L 160.635974 -52.715 
L 161.341233 -52.715 
L 162.046491 -52.715 
L 162.75175 -52.715 
L 163.457008 -52.715 
L 164.162266 -52.715 
L 164.867525 -52.715 
L 165.572783 -52.715 
L 166.278041 -52.715 
L 166.9833 -52.715 
L 167.688558 -52.715 
L 168.393817 -52.715 
L 169.099075 -52.715 
L 169.804333 -52.715 
L 170.509592 -52.715 
L 171.21485 -52.715 
L 171.920108 -52.715 
L 172.625367 -52.715 
L 173.330625 -52.715 
L 174.035884 -52.715 
L 174.741142 -52.715 
L 175.4464 -52.715 
L 176.151659 -52.715 
L 176.856917 -52.715 
L 177.562175 -52.715 
L 178.267434 -52.715 
L 178.972692 -52.715 
L 179.677951 -52.715 
L 180.383209 -52.715 
L 181.088467 -52.715 
L 181.793726 -52.715 
L 182.498984 -52.715 
L 183.204242 -52.715 
L 183.204242 -53.129208 
L 183.204242 -53.129208 
L 182.498984 -53.197193 
L 181.793726 -53.274209 
L 181.088467 -53.361084 
L 180.383209 -53.458664 
L 179.677951 -53.567797 
L 178.972692 -53.689321 
L 178.267434 -53.82405 
L 177.562175 -53.97276 
L 176.856917 -54.136167 
L 176.151659 -54.314913 
L 175.4464 -54.509545 
L 174.741142 -54.720497 
L 174.035884 -54.948071 
L 173.330625 -55.192422 
L 172.625367 -55.453541 
L 171.920108 -55.731242 
L 171.21485 -56.025148 
L 170.509592 -56.334693 
L 169.804333 -56.659108 
L 169.099075 -56.997427 
L 168.393817 -57.34849 
L 167.688558 -57.710952 
L 166.9833 -58.083296 
L 166.278041 -58.463849 
L 165.572783 -58.850803 
L 164.867525 -59.242239 
L 164.162266 -59.636155 
L 163.457008 -60.030492 
L 162.75175 -60.423169 
L 162.046491 -60.812112 
L 161.341233 -61.195286 
L 160.635974 -61.570731 
L 159.930716 -61.936585 
L 159.225458 -62.291121 
L 158.520199 -62.632765 
L 157.814941 -62.960125 
L 157.109683 -63.272006 
L 156.404424 -63.567426 
L 155.699166 -63.845622 
L 154.993907 -64.106059 
L 154.288649 -64.348424 
L 153.583391 -64.57262 
L 152.878132 -64.778752 
L 152.172874 -64.967112 
L 151.467616 -65.138157 
L 150.762357 -65.292475 
L 150.057099 -65.430767 
L 149.35184 -65.553807 
L 148.646582 -65.662411 
L 147.941324 -65.757408 
L 147.236065 -65.839605 
L 146.530807 -65.909762 
L 145.825549 -65.968565 
L 145.12029 -66.016607 
L 144.415032 -66.05437 
L 143.709773 -66.082222 
L 143.004515 -66.100406 
L 142.299257 -66.109046 
L 141.593998 -66.108157 
L 140.88874 -66.097651 
L 140.183482 -66.077361 
L 139.478223 -66.047059 
L 138.772965 -66.006473 
L 138.067706 -65.955319 
L 137.362448 -65.893318 
L 136.65719 -65.820219 
L 135.951931 -65.73582 
L 135.246673 -65.639987 
L 134.541415 -65.532663 
L 133.836156 -65.413881 
L 133.130898 -65.283768 
L 132.425639 -65.142552 
L 131.720381 -64.990555 
L 131.015123 -64.82819 
L 130.309864 -64.655958 
L 129.604606 -64.474434 
L 128.899348 -64.284261 
L 128.194089 -64.086138 
L 127.488831 -63.880811 
L 126.783572 -63.66906 
L 126.078314 -63.451697 
L 125.373056 -63.22955 
L 124.667797 -63.003465 
L 123.962539 -62.774297 
L 123.257281 -62.542905 
L 122.552022 -62.310154 
L 121.846764 -62.076909 
L 121.141505 -61.844036 
L 120.436247 -61.612394 
L 119.730989 -61.382839 
L 119.02573 -61.156215 
L 118.320472 -60.93335 
L 117.615214 -60.715051 
L 116.909955 -60.502095 
L 116.204697 -60.295219 
L 115.499438 -60.095112 
L 114.79418 -59.902404 
L 114.088922 -59.717655 
L 113.383663 -59.541346 
L 112.678405 -59.373868 
L 111.973147 -59.215517 
L 111.267888 -59.066485 
L 110.56263 -58.926857 
L 109.857372 -58.796616 
L 109.152113 -58.675635 
L 108.446855 -58.563691 
L 107.741596 -58.460469 
L 107.036338 -58.365573 
L 106.33108 -58.278543 
L 105.625821 -58.198865 
L 104.920563 -58.125991 
L 104.215305 -58.059357 
L 103.510046 -57.998402 
L 102.804788 -57.942582 
L 102.099529 -57.891389 
L 101.394271 -57.844363 
L 100.689013 -57.801108 
L 99.983754 -57.761297 
L 99.278496 -57.724679 
L 98.573238 -57.69108 
L 97.867979 -57.660403 
L 97.162721 -57.632621 
L 96.457462 -57.60777 
L 95.752204 -57.585935 
L 95.046946 -57.567238 
L 94.341687 -57.551819 
L 93.636429 -57.539821 
L 92.931171 -57.531372 
L 92.225912 -57.526565 
L 91.520654 -57.525443 
L 90.815395 -57.527983 
L 90.110137 -57.534086 
L 89.404879 -57.543561 
L 88.69962 -57.556125 
L 87.994362 -57.571394 
L 87.289104 -57.588886 
L 86.583845 -57.608021 
L 85.878587 -57.628132 
L 85.173328 -57.648467 
L 84.46807 -57.66821 
L 83.762812 -57.686484 
L 83.057553 -57.702375 
L 82.352295 -57.714944 
L 81.647037 -57.723244 
L 80.941778 -57.72634 
L 80.23652 -57.723324 
L 79.531261 -57.713332 
L 78.826003 -57.695565 
L 78.120745 -57.669298 
L 77.415486 -57.633897 
L 76.710228 -57.588837 
L 76.00497 -57.533705 
L 75.299711 -57.468217 
L 74.594453 -57.392224 
L 73.889194 -57.305714 
L 73.183936 -57.208823 
L 72.478678 -57.101829 
L 71.773419 -56.985152 
L 71.068161 -56.859351 
L 70.362903 -56.725112 
L 69.657644 -56.583241 
L 68.952386 -56.434648 
L 68.247127 -56.280333 
L 67.541869 -56.121365 
L 66.836611 -55.958864 
L 66.131352 -55.793978 
L 65.426094 -55.627864 
L 64.720836 -55.461665 
L 64.015577 -55.296489 
L 63.310319 -55.133391 
L 62.60506 -54.973353 
L 61.899802 -54.817274 
L 61.194544 -54.665953 
L 60.489285 -54.52008 
L 59.784027 -54.380236 
L 59.078769 -54.246883 
L 58.37351 -54.120371 
L 57.668252 -54.000934 
L 56.962993 -53.888702 
L 56.257735 -53.783709 
L 55.552477 -53.685896 
L 54.847218 -53.59513 
L 54.14196 -53.51121 
L 53.436702 -53.43388 
L 52.731443 -53.362843 
L 52.026185 -53.297771 
L 51.320926 -53.238313 
L 50.615668 -53.184109 
L 49.91041 -53.134795 
L 49.205151 -53.090011 
L 48.499893 -53.049408 
L 47.794635 -53.012649 
L 47.089376 -52.979417 
L 46.384118 -52.949412 
L 45.678859 -52.922358 
L 44.973601 -52.897997 
L 44.268343 -52.876093 
L 43.563084 -52.85643 
L 42.857826 -52.83881 
z
" style="stroke: #2a788e; stroke-width: 1.25"/>
    </defs>
    <g>
     <use xlink:href="#m9913105e2e" x="0" y="174.26" style="fill: #2a788e; fill-opacity: 0.7; stroke: #2a788e; stroke-width: 1.25"/>
    </g>
   </g>
   <g id="line2d_8">
    <path d="M 7.2 121.545 
L 216.45 121.545 
" style="fill: none; stroke: #2a788e; stroke-opacity: 0.9; stroke-linecap: round"/>
   </g>
   <g id="text_8">
    <!-- 7 -->
    <g style="fill: #2a788e" transform="translate(7.2 120.627) scale(0.12 -0.12)">
     <defs>
      <path id="IBMPlexSans-Bold-37" d="M 1062 0 
L 2560 3686 
L 1165 3686 
L 1165 2874 
L 352 2874 
L 352 4467 
L 3514 4467 
L 3514 3635 
L 2074 0 
L 1062 0 
z
" transform="scale(0.015625)"/>
     </defs>
     <use xlink:href="#IBMPlexSans-Bold-37"/>
    </g>
   </g>
  </g>
  <g id="axes_9">
   <g id="patch_10">
    <path d="M 7.2 131.94 
L 216.45 131.94 
L 216.45 90.36 
L 7.2 90.36 
L 7.2 131.94 
z
" style="fill: none"/>
   </g>
   <g id="matplotlib.axis_17">
    <g id="xtick_41">
     <g id="text_9">
      <!-- −4 -->
      <g style="fill: #838383" transform="translate(15.016083 149.58) scale(0.11 -0.11)">
       <defs>
        <path id="IBMPlexSans-Regular-2212" d="M 429 1734 
L 429 2170 
L 3411 2170 
L 3411 1734 
L 429 1734 
z
" transform="scale(0.015625)"/>
        <path id="IBMPlexSans-Regular-34" d="M 2400 0 
L 2400 877 
L 243 877 
L 243 1350 
L 2112 4467 
L 2912 4467 
L 2912 1325 
L 3558 1325 
L 3558 877 
L 2912 877 
L 2912 0 
L 2400 0 
z
M 749 1325 
L 2400 1325 
L 2400 4051 
L 2368 4051 
L 749 1325 
z
" transform="scale(0.015625)"/>
       </defs>
       <use xlink:href="#IBMPlexSans-Regular-2212"/>
       <use xlink:href="#IBMPlexSans-Regular-34" transform="translate(59.999985 0)"/>
      </g>
     </g>
    </g>
    <g id="xtick_42">
     <g id="text_10">
      <!-- −2 -->
      <g style="fill: #838383" transform="translate(61.979051 149.58) scale(0.11 -0.11)">
       <defs>
        <path id="IBMPlexSans-Regular-32" d="M 3411 0 
L 480 0 
L 480 550 
L 1939 1894 
Q 2253 2182 2464 2505 
Q 2675 2829 2675 3155 
L 2675 3232 
Q 2675 3603 2470 3833 
Q 2266 4064 1850 4064 
Q 1645 4064 1491 4006 
Q 1338 3949 1226 3846 
Q 1114 3744 1040 3606 
Q 966 3469 922 3309 
L 442 3494 
Q 506 3693 618 3881 
Q 730 4070 899 4217 
Q 1069 4365 1309 4454 
Q 1549 4544 1875 4544 
Q 2202 4544 2458 4448 
Q 2714 4352 2886 4179 
Q 3059 4006 3152 3769 
Q 3245 3533 3245 3245 
Q 3245 2982 3171 2758 
Q 3098 2534 2970 2332 
Q 2842 2131 2659 1939 
Q 2477 1747 2266 1555 
L 1062 474 
L 3411 474 
L 3411 0 
z
" transform="scale(0.015625)"/>
       </defs>
       <use xlink:href="#IBMPlexSans-Regular-2212"/>
       <use xlink:href="#IBMPlexSans-Regular-32" transform="translate(59.999985 0)"/>
      </g>
     </g>
    </g>
    <g id="xtick_43">
     <g id="text_11">
      <!-- 0 -->
      <g style="fill: #838383" transform="translate(112.242019 149.58) scale(0.11 -0.11)">
       <defs>
        <path id="IBMPlexSans-Regular-30" d="M 1920 -77 
Q 1120 -77 752 531 
Q 384 1139 384 2234 
Q 384 3328 752 3936 
Q 1120 4544 1920 4544 
Q 2720 4544 3088 3936 
Q 3456 3328 3456 2234 
Q 3456 1139 3088 531 
Q 2720 -77 1920 -77 
z
M 1920 390 
Q 2182 390 2368 499 
Q 2554 608 2669 806 
Q 2784 1005 2838 1273 
Q 2893 1542 2893 1869 
L 2893 2598 
Q 2893 2925 2838 3193 
Q 2784 3462 2669 3660 
Q 2554 3859 2368 3968 
Q 2182 4077 1920 4077 
Q 1658 4077 1472 3968 
Q 1286 3859 1171 3660 
Q 1056 3462 1001 3193 
Q 947 2925 947 2598 
L 947 1869 
Q 947 1542 1001 1273 
Q 1056 1005 1171 806 
Q 1286 608 1472 499 
Q 1658 390 1920 390 
z
" transform="scale(0.015625)"/>
       </defs>
       <use xlink:href="#IBMPlexSans-Regular-30"/>
      </g>
     </g>
    </g>
    <g id="xtick_44">
     <g id="text_12">
      <!-- 2 -->
      <g style="fill: #838383" transform="translate(159.204987 149.58) scale(0.11 -0.11)">
       <use xlink:href="#IBMPlexSans-Regular-32"/>
      </g>
     </g>
    </g>
    <g id="xtick_45">
     <g id="text_13">
      <!-- 4 -->
      <g style="fill: #838383" transform="translate(206.167955 149.58) scale(0.11 -0.11)">
       <use xlink:href="#IBMPlexSans-Regular-34"/>
      </g>
     </g>
    </g>
    <g id="text_14">
     <!-- sldb -->
     <g style="fill: #262626" transform="translate(100.310625 164.66) scale(0.12 -0.12)">
      <defs>
       <path id="IBMPlexSans-Regular-73" d="M 1536 -77 
Q 1075 -77 764 99 
Q 454 275 230 570 
L 595 864 
Q 787 621 1024 489 
Q 1261 358 1574 358 
Q 1901 358 2083 499 
Q 2266 640 2266 896 
Q 2266 1088 2141 1225 
Q 2016 1363 1690 1414 
L 1427 1453 
Q 1197 1485 1005 1552 
Q 813 1619 669 1731 
Q 525 1843 445 2009 
Q 365 2176 365 2406 
Q 365 2650 454 2832 
Q 544 3014 701 3136 
Q 858 3258 1075 3318 
Q 1293 3379 1542 3379 
Q 1946 3379 2218 3238 
Q 2490 3098 2694 2848 
L 2355 2541 
Q 2246 2694 2035 2819 
Q 1824 2944 1504 2944 
Q 1184 2944 1021 2806 
Q 858 2669 858 2432 
Q 858 2189 1021 2080 
Q 1184 1971 1491 1920 
L 1747 1882 
Q 2298 1798 2528 1564 
Q 2758 1331 2758 954 
Q 2758 474 2432 198 
Q 2106 -77 1536 -77 
z
" transform="scale(0.015625)"/>
       <path id="IBMPlexSans-Regular-6c" d="M 1088 0 
Q 819 0 681 150 
Q 544 301 544 531 
L 544 4736 
L 1056 4736 
L 1056 448 
L 1542 448 
L 1542 0 
L 1088 0 
z
" transform="scale(0.015625)"/>
       <path id="IBMPlexSans-Regular-64" d="M 2656 538 
L 2630 538 
Q 2330 -77 1664 -77 
Q 1357 -77 1107 44 
Q 858 166 682 390 
Q 506 614 413 934 
Q 320 1254 320 1651 
Q 320 2048 413 2368 
Q 506 2688 682 2912 
Q 858 3136 1107 3257 
Q 1357 3379 1664 3379 
Q 2010 3379 2256 3228 
Q 2502 3078 2630 2765 
L 2656 2765 
L 2656 4736 
L 3168 4736 
L 3168 0 
L 2656 0 
L 2656 538 
z
M 1805 384 
Q 1978 384 2134 429 
Q 2291 474 2406 560 
Q 2522 646 2589 771 
Q 2656 896 2656 1056 
L 2656 2285 
Q 2656 2419 2589 2537 
Q 2522 2656 2406 2739 
Q 2291 2822 2134 2870 
Q 1978 2918 1805 2918 
Q 1370 2918 1120 2646 
Q 870 2374 870 1933 
L 870 1370 
Q 870 928 1120 656 
Q 1370 384 1805 384 
z
" transform="scale(0.015625)"/>
       <path id="IBMPlexSans-Regular-62" d="M 544 4736 
L 1056 4736 
L 1056 2765 
L 1082 2765 
Q 1210 3078 1456 3228 
Q 1702 3379 2048 3379 
Q 2355 3379 2604 3257 
Q 2854 3136 3030 2912 
Q 3206 2688 3299 2368 
Q 3392 2048 3392 1651 
Q 3392 1254 3299 934 
Q 3206 614 3030 390 
Q 2854 166 2604 44 
Q 2355 -77 2048 -77 
Q 1376 -77 1082 538 
L 1056 538 
L 1056 0 
L 544 0 
L 544 4736 
z
M 1907 384 
Q 2342 384 2592 656 
Q 2842 928 2842 1370 
L 2842 1933 
Q 2842 2374 2592 2646 
Q 2342 2918 1907 2918 
Q 1734 2918 1577 2870 
Q 1421 2822 1305 2739 
Q 1190 2656 1123 2537 
Q 1056 2419 1056 2285 
L 1056 1056 
Q 1056 896 1123 771 
Q 1190 646 1305 560 
Q 1421 474 1577 429 
Q 1734 384 1907 384 
z
" transform="scale(0.015625)"/>
      </defs>
      <use xlink:href="#IBMPlexSans-Regular-73"/>
      <use xlink:href="#IBMPlexSans-Regular-6c" transform="translate(48.699997 0)"/>
      <use xlink:href="#IBMPlexSans-Regular-64" transform="translate(75.899994 0)"/>
      <use xlink:href="#IBMPlexSans-Regular-62" transform="translate(133.899979 0)"/>
     </g>
    </g>
   </g>
   <g id="matplotlib.axis_18"/>
   <g id="FillBetweenPolyCollection_4">
    <defs>
     <path id="mb1836e3f94" d="M 16.711364 -42.408512 
L 16.711364 -42.32 
L 17.66728 -42.32 
L 18.623196 -42.32 
L 19.579111 -42.32 
L 20.535027 -42.32 
L 21.490943 -42.32 
L 22.446859 -42.32 
L 23.402775 -42.32 
L 24.358691 -42.32 
L 25.314607 -42.32 
L 26.270523 -42.32 
L 27.226439 -42.32 
L 28.182355 -42.32 
L 29.138271 -42.32 
L 30.094187 -42.32 
L 31.050103 -42.32 
L 32.006019 -42.32 
L 32.961935 -42.32 
L 33.917851 -42.32 
L 34.873767 -42.32 
L 35.829683 -42.32 
L 36.785598 -42.32 
L 37.741514 -42.32 
L 38.69743 -42.32 
L 39.653346 -42.32 
L 40.609262 -42.32 
L 41.565178 -42.32 
L 42.521094 -42.32 
L 43.47701 -42.32 
L 44.432926 -42.32 
L 45.388842 -42.32 
L 46.344758 -42.32 
L 47.300674 -42.32 
L 48.25659 -42.32 
L 49.212506 -42.32 
L 50.168422 -42.32 
L 51.124338 -42.32 
L 52.080254 -42.32 
L 53.036169 -42.32 
L 53.992085 -42.32 
L 54.948001 -42.32 
L 55.903917 -42.32 
L 56.859833 -42.32 
L 57.815749 -42.32 
L 58.771665 -42.32 
L 59.727581 -42.32 
L 60.683497 -42.32 
L 61.639413 -42.32 
L 62.595329 -42.32 
L 63.551245 -42.32 
L 64.507161 -42.32 
L 65.463077 -42.32 
L 66.418993 -42.32 
L 67.374909 -42.32 
L 68.330825 -42.32 
L 69.286741 -42.32 
L 70.242656 -42.32 
L 71.198572 -42.32 
L 72.154488 -42.32 
L 73.110404 -42.32 
L 74.06632 -42.32 
L 75.022236 -42.32 
L 75.978152 -42.32 
L 76.934068 -42.32 
L 77.889984 -42.32 
L 78.8459 -42.32 
L 79.801816 -42.32 
L 80.757732 -42.32 
L 81.713648 -42.32 
L 82.669564 -42.32 
L 83.62548 -42.32 
L 84.581396 -42.32 
L 85.537312 -42.32 
L 86.493228 -42.32 
L 87.449143 -42.32 
L 88.405059 -42.32 
L 89.360975 -42.32 
L 90.316891 -42.32 
L 91.272807 -42.32 
L 92.228723 -42.32 
L 93.184639 -42.32 
L 94.140555 -42.32 
L 95.096471 -42.32 
L 96.052387 -42.32 
L 97.008303 -42.32 
L 97.964219 -42.32 
L 98.920135 -42.32 
L 99.876051 -42.32 
L 100.831967 -42.32 
L 101.787883 -42.32 
L 102.743799 -42.32 
L 103.699714 -42.32 
L 104.65563 -42.32 
L 105.611546 -42.32 
L 106.567462 -42.32 
L 107.523378 -42.32 
L 108.479294 -42.32 
L 109.43521 -42.32 
L 110.391126 -42.32 
L 111.347042 -42.32 
L 112.302958 -42.32 
L 113.258874 -42.32 
L 114.21479 -42.32 
L 115.170706 -42.32 
L 116.126622 -42.32 
L 117.082538 -42.32 
L 118.038454 -42.32 
L 118.99437 -42.32 
L 119.950286 -42.32 
L 120.906201 -42.32 
L 121.862117 -42.32 
L 122.818033 -42.32 
L 123.773949 -42.32 
L 124.729865 -42.32 
L 125.685781 -42.32 
L 126.641697 -42.32 
L 127.597613 -42.32 
L 128.553529 -42.32 
L 129.509445 -42.32 
L 130.465361 -42.32 
L 131.421277 -42.32 
L 132.377193 -42.32 
L 133.333109 -42.32 
L 134.289025 -42.32 
L 135.244941 -42.32 
L 136.200857 -42.32 
L 137.156772 -42.32 
L 138.112688 -42.32 
L 139.068604 -42.32 
L 140.02452 -42.32 
L 140.980436 -42.32 
L 141.936352 -42.32 
L 142.892268 -42.32 
L 143.848184 -42.32 
L 144.8041 -42.32 
L 145.760016 -42.32 
L 146.715932 -42.32 
L 147.671848 -42.32 
L 148.627764 -42.32 
L 149.58368 -42.32 
L 150.539596 -42.32 
L 151.495512 -42.32 
L 152.451428 -42.32 
L 153.407344 -42.32 
L 154.363259 -42.32 
L 155.319175 -42.32 
L 156.275091 -42.32 
L 157.231007 -42.32 
L 158.186923 -42.32 
L 159.142839 -42.32 
L 160.098755 -42.32 
L 161.054671 -42.32 
L 162.010587 -42.32 
L 162.966503 -42.32 
L 163.922419 -42.32 
L 164.878335 -42.32 
L 165.834251 -42.32 
L 166.790167 -42.32 
L 167.746083 -42.32 
L 168.701999 -42.32 
L 169.657915 -42.32 
L 170.613831 -42.32 
L 171.569746 -42.32 
L 172.525662 -42.32 
L 173.481578 -42.32 
L 174.437494 -42.32 
L 175.39341 -42.32 
L 176.349326 -42.32 
L 177.305242 -42.32 
L 178.261158 -42.32 
L 179.217074 -42.32 
L 180.17299 -42.32 
L 181.128906 -42.32 
L 182.084822 -42.32 
L 183.040738 -42.32 
L 183.996654 -42.32 
L 184.95257 -42.32 
L 185.908486 -42.32 
L 186.864402 -42.32 
L 187.820317 -42.32 
L 188.776233 -42.32 
L 189.732149 -42.32 
L 190.688065 -42.32 
L 191.643981 -42.32 
L 192.599897 -42.32 
L 193.555813 -42.32 
L 194.511729 -42.32 
L 195.467645 -42.32 
L 196.423561 -42.32 
L 197.379477 -42.32 
L 198.335393 -42.32 
L 199.291309 -42.32 
L 200.247225 -42.32 
L 201.203141 -42.32 
L 202.159057 -42.32 
L 203.114973 -42.32 
L 204.070889 -42.32 
L 205.026804 -42.32 
L 205.98272 -42.32 
L 206.938636 -42.32 
L 206.938636 -42.587454 
L 206.938636 -42.587454 
L 205.98272 -42.632852 
L 205.026804 -42.684523 
L 204.070889 -42.743073 
L 203.114973 -42.809117 
L 202.159057 -42.883275 
L 201.203141 -42.966159 
L 200.247225 -43.058364 
L 199.291309 -43.160452 
L 198.335393 -43.272942 
L 197.379477 -43.396295 
L 196.423561 -43.5309 
L 195.467645 -43.677061 
L 194.511729 -43.834985 
L 193.555813 -44.004769 
L 192.599897 -44.186394 
L 191.643981 -44.379715 
L 190.688065 -44.584458 
L 189.732149 -44.800216 
L 188.776233 -45.026454 
L 187.820317 -45.262511 
L 186.864402 -45.507607 
L 185.908486 -45.760855 
L 184.95257 -46.021269 
L 183.996654 -46.287785 
L 183.040738 -46.55927 
L 182.084822 -46.834545 
L 181.128906 -47.112397 
L 180.17299 -47.3916 
L 179.217074 -47.670932 
L 178.261158 -47.949189 
L 177.305242 -48.225199 
L 176.349326 -48.497839 
L 175.39341 -48.766046 
L 174.437494 -49.028824 
L 173.481578 -49.285255 
L 172.525662 -49.534505 
L 171.569746 -49.775828 
L 170.613831 -50.008573 
L 169.657915 -50.232179 
L 168.701999 -50.44618 
L 167.746083 -50.650202 
L 166.790167 -50.84396 
L 165.834251 -51.027252 
L 164.878335 -51.199954 
L 163.922419 -51.362013 
L 162.966503 -51.513434 
L 162.010587 -51.654273 
L 161.054671 -51.784622 
L 160.098755 -51.9046 
L 159.142839 -52.014339 
L 158.186923 -52.113968 
L 157.231007 -52.203606 
L 156.275091 -52.283349 
L 155.319175 -52.353259 
L 154.363259 -52.413363 
L 153.407344 -52.463644 
L 152.451428 -52.504041 
L 151.495512 -52.534455 
L 150.539596 -52.554749 
L 149.58368 -52.564763 
L 148.627764 -52.564318 
L 147.671848 -52.553235 
L 146.715932 -52.531347 
L 145.760016 -52.498511 
L 144.8041 -52.45463 
L 143.848184 -52.399656 
L 142.892268 -52.333612 
L 141.936352 -52.256595 
L 140.980436 -52.168782 
L 140.02452 -52.070438 
L 139.068604 -51.96191 
L 138.112688 -51.843627 
L 137.156772 -51.716093 
L 136.200857 -51.57988 
L 135.244941 -51.435615 
L 134.289025 -51.283972 
L 133.333109 -51.125659 
L 132.377193 -50.961405 
L 131.421277 -50.791956 
L 130.465361 -50.618059 
L 129.509445 -50.44046 
L 128.553529 -50.259897 
L 127.597613 -50.077098 
L 126.641697 -49.89278 
L 125.685781 -49.707649 
L 124.729865 -49.522399 
L 123.773949 -49.337719 
L 122.818033 -49.15429 
L 121.862117 -48.97279 
L 120.906201 -48.793888 
L 119.950286 -48.618251 
L 118.99437 -48.446534 
L 118.038454 -48.279376 
L 117.082538 -48.117396 
L 116.126622 -47.961181 
L 115.170706 -47.811274 
L 114.21479 -47.668168 
L 113.258874 -47.532288 
L 112.302958 -47.403984 
L 111.347042 -47.283518 
L 110.391126 -47.171052 
L 109.43521 -47.066649 
L 108.479294 -46.970259 
L 107.523378 -46.881726 
L 106.567462 -46.800786 
L 105.611546 -46.727074 
L 104.65563 -46.660133 
L 103.699714 -46.59943 
L 102.743799 -46.544368 
L 101.787883 -46.494307 
L 100.831967 -46.448583 
L 99.876051 -46.406531 
L 98.920135 -46.367502 
L 97.964219 -46.330888 
L 97.008303 -46.29614 
L 96.052387 -46.262782 
L 95.096471 -46.230426 
L 94.140555 -46.198782 
L 93.184639 -46.167663 
L 92.228723 -46.136985 
L 91.272807 -46.106768 
L 90.316891 -46.077121 
L 89.360975 -46.048236 
L 88.405059 -46.020374 
L 87.449143 -45.993842 
L 86.493228 -45.968975 
L 85.537312 -45.946119 
L 84.581396 -45.925604 
L 83.62548 -45.907728 
L 82.669564 -45.892736 
L 81.713648 -45.880803 
L 80.757732 -45.872021 
L 79.801816 -45.866388 
L 78.8459 -45.863803 
L 77.889984 -45.864059 
L 76.934068 -45.866846 
L 75.978152 -45.871758 
L 75.022236 -45.878294 
L 74.06632 -45.885873 
L 73.110404 -45.893846 
L 72.154488 -45.901507 
L 71.198572 -45.908114 
L 70.242656 -45.912897 
L 69.286741 -45.915083 
L 68.330825 -45.913908 
L 67.374909 -45.908631 
L 66.418993 -45.898552 
L 65.463077 -45.883027 
L 64.507161 -45.861477 
L 63.551245 -45.833401 
L 62.595329 -45.798389 
L 61.639413 -45.756125 
L 60.683497 -45.706399 
L 59.727581 -45.649108 
L 58.771665 -45.584264 
L 57.815749 -45.511988 
L 56.859833 -45.432514 
L 55.903917 -45.346187 
L 54.948001 -45.25345 
L 53.992085 -45.154844 
L 53.036169 -45.050994 
L 52.080254 -44.942598 
L 51.124338 -44.830414 
L 50.168422 -44.715243 
L 49.212506 -44.597915 
L 48.25659 -44.479274 
L 47.300674 -44.360159 
L 46.344758 -44.241388 
L 45.388842 -44.123748 
L 44.432926 -44.007973 
L 43.47701 -43.894742 
L 42.521094 -43.784663 
L 41.565178 -43.678267 
L 40.609262 -43.576004 
L 39.653346 -43.47824 
L 38.69743 -43.385257 
L 37.741514 -43.297254 
L 36.785598 -43.214352 
L 35.829683 -43.1366 
L 34.873767 -43.063978 
L 33.917851 -42.996411 
L 32.961935 -42.933771 
L 32.006019 -42.87589 
L 31.050103 -42.822567 
L 30.094187 -42.773575 
L 29.138271 -42.728673 
L 28.182355 -42.687607 
L 27.226439 -42.650121 
L 26.270523 -42.61596 
L 25.314607 -42.584875 
L 24.358691 -42.556628 
L 23.402775 -42.530991 
L 22.446859 -42.507751 
L 21.490943 -42.486708 
L 20.535027 -42.467679 
L 19.579111 -42.450493 
L 18.623196 -42.434996 
L 17.66728 -42.421046 
L 16.711364 -42.408512 
z
" style="stroke: #21918c; stroke-width: 1.25"/>
    </defs>
    <g>
     <use xlink:href="#mb1836e3f94" x="0" y="174.26" style="fill: #21918c; fill-opacity: 0.7; stroke: #21918c; stroke-width: 1.25"/>
    </g>
   </g>
   <g id="line2d_9">
    <path d="M 7.2 131.94 
L 216.45 131.94 
" style="fill: none; stroke: #21918c; stroke-opacity: 0.9; stroke-linecap: round"/>
   </g>
   <g id="text_15">
    <!-- 8 -->
    <g style="fill: #21918c" transform="translate(7.2 131.022) scale(0.12 -0.12)">
     <defs>
      <path id="IBMPlexSans-Bold-38" d="M 1920 -77 
Q 1523 -77 1212 22 
Q 902 122 691 294 
Q 480 467 368 704 
Q 256 941 256 1222 
Q 256 1651 493 1923 
Q 730 2195 1133 2304 
L 1133 2355 
Q 806 2477 598 2726 
Q 390 2976 390 3366 
Q 390 3622 489 3840 
Q 589 4058 784 4214 
Q 979 4371 1264 4457 
Q 1549 4544 1920 4544 
Q 2291 4544 2576 4457 
Q 2861 4371 3056 4214 
Q 3251 4058 3350 3840 
Q 3450 3622 3450 3366 
Q 3450 2976 3242 2726 
Q 3034 2477 2707 2355 
L 2707 2304 
Q 3110 2195 3347 1923 
Q 3584 1651 3584 1222 
Q 3584 941 3472 704 
Q 3360 467 3149 294 
Q 2938 122 2627 22 
Q 2317 -77 1920 -77 
z
M 1920 659 
Q 2240 659 2409 809 
Q 2579 960 2579 1229 
L 2579 1357 
Q 2579 1626 2409 1776 
Q 2240 1926 1920 1926 
Q 1600 1926 1430 1776 
Q 1261 1626 1261 1357 
L 1261 1229 
Q 1261 960 1430 809 
Q 1600 659 1920 659 
z
M 1920 2630 
Q 2227 2630 2387 2774 
Q 2547 2918 2547 3168 
L 2547 3270 
Q 2547 3520 2387 3664 
Q 2227 3808 1920 3808 
Q 1613 3808 1453 3664 
Q 1293 3520 1293 3270 
L 1293 3168 
Q 1293 2918 1453 2774 
Q 1613 2630 1920 2630 
z
" transform="scale(0.015625)"/>
     </defs>
     <use xlink:href="#IBMPlexSans-Bold-38"/>
    </g>
   </g>
  </g>
 </g>
</svg>
