<?xml version="1.0" encoding="utf-8" standalone="no"?>
<!DOCTYPE svg PUBLIC "-//W3C//DTD SVG 1.1//EN"
  "http://www.w3.org/Graphics/SVG/1.1/DTD/svg11.dtd">
<svg xmlns:xlink="http://www.w3.org/1999/xlink" width="223.65pt" height="174.26pt" viewBox="0 0 223.65 174.26" xmlns="http://www.w3.org/2000/svg" version="1.1">
 <metadata>
  <rdf:RDF xmlns:dc="http://purl.org/dc/elements/1.1/" xmlns:cc="http://creativecommons.org/ns#" xmlns:rdf="http://www.w3.org/1999/02/22-rdf-syntax-ns#">
   <cc:Work>
    <dc:type rdf:resource="http://purl.org/dc/dcmitype/StillImage"/>
    <dc:date>2025-07-24T14:18:15.761761</dc:date>
    <dc:format>image/svg+xml</dc:format>
    <dc:creator>
     <cc:Agent>
      <dc:title>Matplotlib v3.10.1, https://matplotlib.org/</dc:title>
     </cc:Agent>
    </dc:creator>
   </cc:Work>
  </rdf:RDF>
 </metadata>
 <defs>
  <style type="text/css">*{stroke-linejoin: round; stroke-linecap: butt}</style>
 </defs>
 <g id="figure_1">
  <g id="patch_1">
   <path d="M 0 174.26 
L 223.65 174.26 
L 223.65 0 
L 0 0 
L 0 174.26 
z
" style="fill: none"/>
  </g>
  <g id="axes_1">
   <g id="patch_2">
    <path d="M 7.2 48.78 
L 216.45 48.78 
L 216.45 7.2 
L 7.2 7.2 
L 7.2 48.78 
z
" style="fill: none"/>
   </g>
   <g id="matplotlib.axis_1">
    <g id="xtick_1"/>
    <g id="xtick_2"/>
    <g id="xtick_3"/>
    <g id="xtick_4"/>
    <g id="xtick_5"/>
   </g>
   <g id="matplotlib.axis_2"/>
   <g id="line2d_1">
    <path d="M 7.2 48.78 
L 216.45 48.78 
" style="fill: none; stroke: #bddf26; stroke-opacity: 0.9; stroke-linecap: round"/>
   </g>
   <g id="text_1">
    <!-- 0 -->
    <g style="fill: #bddf26" transform="translate(7.2 47.862) scale(0.12 -0.12)">
     <defs>
      <path id="IBMPlexSans-Bold-30" d="M 1920 -77 
Q 1043 -77 620 531 
Q 198 1139 198 2234 
Q 198 3328 620 3936 
Q 1043 4544 1920 4544 
Q 2797 4544 3219 3936 
Q 3642 3328 3642 2234 
Q 3642 1139 3219 531 
Q 2797 -77 1920 -77 
z
M 1920 736 
Q 2304 736 2451 1017 
Q 2598 1299 2598 1811 
L 2598 2656 
Q 2598 3168 2451 3449 
Q 2304 3731 1920 3731 
Q 1536 3731 1389 3449 
Q 1242 3168 1242 2656 
L 1242 1811 
Q 1242 1299 1389 1017 
Q 1536 736 1920 736 
z
" transform="scale(0.015625)"/>
     </defs>
     <use xlink:href="#IBMPlexSans-Bold-30"/>
    </g>
   </g>
  </g>
  <g id="axes_2">
   <g id="patch_3">
    <path d="M 7.2 59.175 
L 216.45 59.175 
L 216.45 17.595 
L 7.2 17.595 
L 7.2 59.175 
z
" style="fill: none"/>
   </g>
   <g id="matplotlib.axis_3">
    <g id="xtick_6"/>
    <g id="xtick_7"/>
    <g id="xtick_8"/>
    <g id="xtick_9"/>
    <g id="xtick_10"/>
   </g>
   <g id="matplotlib.axis_4"/>
   <g id="FillBetweenPolyCollection_1">
    <defs>
     <path id="m49d93e8164" d="M 91.161451 -116.467376 
L 91.161451 -115.085 
L 91.393171 -115.085 
L 91.624891 -115.085 
L 91.856611 -115.085 
L 92.088331 -115.085 
L 92.320051 -115.085 
L 92.551772 -115.085 
L 92.783492 -115.085 
L 93.015212 -115.085 
L 93.246932 -115.085 
L 93.478652 -115.085 
L 93.710372 -115.085 
L 93.942092 -115.085 
L 94.173812 -115.085 
L 94.405532 -115.085 
L 94.637252 -115.085 
L 94.868972 -115.085 
L 95.100692 -115.085 
L 95.332412 -115.085 
L 95.564132 -115.085 
L 95.795853 -115.085 
L 96.027573 -115.085 
L 96.259293 -115.085 
L 96.491013 -115.085 
L 96.722733 -115.085 
L 96.954453 -115.085 
L 97.186173 -115.085 
L 97.417893 -115.085 
L 97.649613 -115.085 
L 97.881333 -115.085 
L 98.113053 -115.085 
L 98.344773 -115.085 
L 98.576493 -115.085 
L 98.808214 -115.085 
L 99.039934 -115.085 
L 99.271654 -115.085 
L 99.503374 -115.085 
L 99.735094 -115.085 
L 99.966814 -115.085 
L 100.198534 -115.085 
L 100.430254 -115.085 
L 100.661974 -115.085 
L 100.893694 -115.085 
L 101.125414 -115.085 
L 101.357134 -115.085 
L 101.588854 -115.085 
L 101.820574 -115.085 
L 102.052295 -115.085 
L 102.284015 -115.085 
L 102.515735 -115.085 
L 102.747455 -115.085 
L 102.979175 -115.085 
L 103.210895 -115.085 
L 103.442615 -115.085 
L 103.674335 -115.085 
L 103.906055 -115.085 
L 104.137775 -115.085 
L 104.369495 -115.085 
L 104.601215 -115.085 
L 104.832935 -115.085 
L 105.064655 -115.085 
L 105.296376 -115.085 
L 105.528096 -115.085 
L 105.759816 -115.085 
L 105.991536 -115.085 
L 106.223256 -115.085 
L 106.454976 -115.085 
L 106.686696 -115.085 
L 106.918416 -115.085 
L 107.150136 -115.085 
L 107.381856 -115.085 
L 107.613576 -115.085 
L 107.845296 -115.085 
L 108.077016 -115.085 
L 108.308737 -115.085 
L 108.540457 -115.085 
L 108.772177 -115.085 
L 109.003897 -115.085 
L 109.235617 -115.085 
L 109.467337 -115.085 
L 109.699057 -115.085 
L 109.930777 -115.085 
L 110.162497 -115.085 
L 110.394217 -115.085 
L 110.625937 -115.085 
L 110.857657 -115.085 
L 111.089377 -115.085 
L 111.321097 -115.085 
L 111.552818 -115.085 
L 111.784538 -115.085 
L 112.016258 -115.085 
L 112.247978 -115.085 
L 112.479698 -115.085 
L 112.711418 -115.085 
L 112.943138 -115.085 
L 113.174858 -115.085 
L 113.406578 -115.085 
L 113.638298 -115.085 
L 113.870018 -115.085 
L 114.101738 -115.085 
L 114.333458 -115.085 
L 114.565179 -115.085 
L 114.796899 -115.085 
L 115.028619 -115.085 
L 115.260339 -115.085 
L 115.492059 -115.085 
L 115.723779 -115.085 
L 115.955499 -115.085 
L 116.187219 -115.085 
L 116.418939 -115.085 
L 116.650659 -115.085 
L 116.882379 -115.085 
L 117.114099 -115.085 
L 117.345819 -115.085 
L 117.577539 -115.085 
L 117.80926 -115.085 
L 118.04098 -115.085 
L 118.2727 -115.085 
L 118.50442 -115.085 
L 118.73614 -115.085 
L 118.96786 -115.085 
L 119.19958 -115.085 
L 119.4313 -115.085 
L 119.66302 -115.085 
L 119.89474 -115.085 
L 120.12646 -115.085 
L 120.35818 -115.085 
L 120.5899 -115.085 
L 120.82162 -115.085 
L 121.053341 -115.085 
L 121.285061 -115.085 
L 121.516781 -115.085 
L 121.748501 -115.085 
L 121.980221 -115.085 
L 122.211941 -115.085 
L 122.443661 -115.085 
L 122.675381 -115.085 
L 122.907101 -115.085 
L 123.138821 -115.085 
L 123.370541 -115.085 
L 123.602261 -115.085 
L 123.833981 -115.085 
L 124.065702 -115.085 
L 124.297422 -115.085 
L 124.529142 -115.085 
L 124.760862 -115.085 
L 124.992582 -115.085 
L 125.224302 -115.085 
L 125.456022 -115.085 
L 125.687742 -115.085 
L 125.919462 -115.085 
L 126.151182 -115.085 
L 126.382902 -115.085 
L 126.614622 -115.085 
L 126.846342 -115.085 
L 127.078062 -115.085 
L 127.309783 -115.085 
L 127.541503 -115.085 
L 127.773223 -115.085 
L 128.004943 -115.085 
L 128.236663 -115.085 
L 128.468383 -115.085 
L 128.700103 -115.085 
L 128.931823 -115.085 
L 129.163543 -115.085 
L 129.395263 -115.085 
L 129.626983 -115.085 
L 129.858703 -115.085 
L 130.090423 -115.085 
L 130.322144 -115.085 
L 130.553864 -115.085 
L 130.785584 -115.085 
L 131.017304 -115.085 
L 131.249024 -115.085 
L 131.480744 -115.085 
L 131.712464 -115.085 
L 131.944184 -115.085 
L 132.175904 -115.085 
L 132.407624 -115.085 
L 132.639344 -115.085 
L 132.871064 -115.085 
L 133.102784 -115.085 
L 133.334504 -115.085 
L 133.566225 -115.085 
L 133.797945 -115.085 
L 134.029665 -115.085 
L 134.261385 -115.085 
L 134.493105 -115.085 
L 134.724825 -115.085 
L 134.956545 -115.085 
L 135.188265 -115.085 
L 135.419985 -115.085 
L 135.651705 -115.085 
L 135.883425 -115.085 
L 136.115145 -115.085 
L 136.346865 -115.085 
L 136.578585 -115.085 
L 136.810306 -115.085 
L 137.042026 -115.085 
L 137.273746 -115.085 
L 137.273746 -115.623847 
L 137.273746 -115.623847 
L 137.042026 -115.688939 
L 136.810306 -115.7591 
L 136.578585 -115.834365 
L 136.346865 -115.914725 
L 136.115145 -116.000125 
L 135.883425 -116.090465 
L 135.651705 -116.185601 
L 135.419985 -116.285341 
L 135.188265 -116.38945 
L 134.956545 -116.497652 
L 134.724825 -116.609635 
L 134.493105 -116.72505 
L 134.261385 -116.843525 
L 134.029665 -116.964661 
L 133.797945 -117.088048 
L 133.566225 -117.213266 
L 133.334504 -117.339895 
L 133.102784 -117.467525 
L 132.871064 -117.595761 
L 132.639344 -117.724236 
L 132.407624 -117.852616 
L 132.175904 -117.980611 
L 131.944184 -118.107983 
L 131.712464 -118.234553 
L 131.480744 -118.360211 
L 131.249024 -118.484921 
L 131.017304 -118.60873 
L 130.785584 -118.73177 
L 130.553864 -118.854269 
L 130.322144 -118.97655 
L 130.090423 -119.099039 
L 129.858703 -119.222267 
L 129.626983 -119.346871 
L 129.395263 -119.473599 
L 129.163543 -119.603305 
L 128.931823 -119.736954 
L 128.700103 -119.87562 
L 128.468383 -120.02048 
L 128.236663 -120.172812 
L 128.004943 -120.333989 
L 127.773223 -120.505472 
L 127.541503 -120.6888 
L 127.309783 -120.885579 
L 127.078062 -121.097468 
L 126.846342 -121.32616 
L 126.614622 -121.573371 
L 126.382902 -121.840811 
L 126.151182 -122.130164 
L 125.919462 -122.443064 
L 125.687742 -122.781065 
L 125.456022 -123.145613 
L 125.224302 -123.538014 
L 124.992582 -123.959403 
L 124.760862 -124.41071 
L 124.529142 -124.892629 
L 124.297422 -125.405583 
L 124.065702 -125.949694 
L 123.833981 -126.524749 
L 123.602261 -127.130179 
L 123.370541 -127.765028 
L 123.138821 -128.427935 
L 122.907101 -129.117115 
L 122.675381 -129.830352 
L 122.443661 -130.564995 
L 122.211941 -131.317956 
L 121.980221 -132.085731 
L 121.748501 -132.864411 
L 121.516781 -133.64972 
L 121.285061 -134.43705 
L 121.053341 -135.221515 
L 120.82162 -135.998004 
L 120.5899 -136.761257 
L 120.35818 -137.505935 
L 120.12646 -138.226706 
L 119.89474 -138.918328 
L 119.66302 -139.575743 
L 119.4313 -140.194163 
L 119.19958 -140.769156 
L 118.96786 -141.29673 
L 118.73614 -141.773406 
L 118.50442 -142.196278 
L 118.2727 -142.563065 
L 118.04098 -142.872143 
L 117.80926 -143.122568 
L 117.577539 -143.314074 
L 117.345819 -143.44706 
L 117.114099 -143.522556 
L 116.882379 -143.542179 
L 116.650659 -143.50807 
L 116.418939 -143.422821 
L 116.187219 -143.289402 
L 115.955499 -143.111067 
L 115.723779 -142.891274 
L 115.492059 -142.633594 
L 115.260339 -142.341634 
L 115.028619 -142.018958 
L 114.796899 -141.669027 
L 114.565179 -141.295138 
L 114.333458 -140.900386 
L 114.101738 -140.487633 
L 113.870018 -140.05949 
L 113.638298 -139.618308 
L 113.406578 -139.166188 
L 113.174858 -138.704991 
L 112.943138 -138.236357 
L 112.711418 -137.761732 
L 112.479698 -137.282395 
L 112.247978 -136.799487 
L 112.016258 -136.314038 
L 111.784538 -135.826996 
L 111.552818 -135.339245 
L 111.321097 -134.851623 
L 111.089377 -134.36494 
L 110.857657 -133.879983 
L 110.625937 -133.397518 
L 110.394217 -132.918296 
L 110.162497 -132.443047 
L 109.930777 -131.972477 
L 109.699057 -131.507262 
L 109.467337 -131.048039 
L 109.235617 -130.595408 
L 109.003897 -130.149918 
L 108.772177 -129.712074 
L 108.540457 -129.282329 
L 108.308737 -128.861089 
L 108.077016 -128.448716 
L 107.845296 -128.045534 
L 107.613576 -127.651833 
L 107.381856 -127.267874 
L 107.150136 -126.893902 
L 106.918416 -126.530148 
L 106.686696 -126.176834 
L 106.454976 -125.834177 
L 106.223256 -125.502397 
L 105.991536 -125.181706 
L 105.759816 -124.872318 
L 105.528096 -124.574438 
L 105.296376 -124.288258 
L 105.064655 -124.013953 
L 104.832935 -123.751672 
L 104.601215 -123.501529 
L 104.369495 -123.263595 
L 104.137775 -123.037894 
L 103.906055 -122.824392 
L 103.674335 -122.622994 
L 103.442615 -122.433543 
L 103.210895 -122.25581 
L 102.979175 -122.089503 
L 102.747455 -121.934265 
L 102.515735 -121.789676 
L 102.284015 -121.655259 
L 102.052295 -121.530488 
L 101.820574 -121.414795 
L 101.588854 -121.307574 
L 101.357134 -121.208194 
L 101.125414 -121.116003 
L 100.893694 -121.03034 
L 100.661974 -120.950534 
L 100.430254 -120.875918 
L 100.198534 -120.805826 
L 99.966814 -120.7396 
L 99.735094 -120.67659 
L 99.503374 -120.616153 
L 99.271654 -120.557654 
L 99.039934 -120.500464 
L 98.808214 -120.443955 
L 98.576493 -120.387499 
L 98.344773 -120.330468 
L 98.113053 -120.27223 
L 97.881333 -120.212149 
L 97.649613 -120.149587 
L 97.417893 -120.083907 
L 97.186173 -120.014482 
L 96.954453 -119.940696 
L 96.722733 -119.861962 
L 96.491013 -119.777727 
L 96.259293 -119.68749 
L 96.027573 -119.590816 
L 95.795853 -119.487351 
L 95.564132 -119.376836 
L 95.332412 -119.259123 
L 95.100692 -119.134184 
L 94.868972 -119.002126 
L 94.637252 -118.863191 
L 94.405532 -118.717766 
L 94.173812 -118.566373 
L 93.942092 -118.409672 
L 93.710372 -118.248444 
L 93.478652 -118.083582 
L 93.246932 -117.916069 
L 93.015212 -117.746959 
L 92.783492 -117.577355 
L 92.551772 -117.40838 
L 92.320051 -117.241158 
L 92.088331 -117.076782 
L 91.856611 -116.916294 
L 91.624891 -116.760664 
L 91.393171 -116.610768 
L 91.161451 -116.467376 
z
" style="stroke: #7ad151; stroke-width: 1.25"/>
    </defs>
    <g>
     <use xlink:href="#m49d93e8164" x="0" y="174.26" style="fill: #7ad151; fill-opacity: 0.7; stroke: #7ad151; stroke-width: 1.25"/>
    </g>
   </g>
   <g id="line2d_2">
    <path d="M 7.2 59.175 
L 216.45 59.175 
" style="fill: none; stroke: #7ad151; stroke-opacity: 0.9; stroke-linecap: round"/>
   </g>
   <g id="text_2">
    <!-- 1 -->
    <g style="fill: #7ad151" transform="translate(7.2 58.257) scale(0.12 -0.12)">
     <defs>
      <path id="IBMPlexSans-Bold-31" d="M 602 0 
L 602 774 
L 1805 774 
L 1805 3770 
L 1747 3770 
L 838 2579 
L 224 3059 
L 1293 4467 
L 2765 4467 
L 2765 774 
L 3712 774 
L 3712 0 
L 602 0 
z
" transform="scale(0.015625)"/>
     </defs>
     <use xlink:href="#IBMPlexSans-Bold-31"/>
    </g>
   </g>
  </g>
  <g id="axes_3">
   <g id="patch_4">
    <path d="M 7.2 69.57 
L 216.45 69.57 
L 216.45 27.99 
L 7.2 27.99 
L 7.2 69.57 
z
" style="fill: none"/>
   </g>
   <g id="matplotlib.axis_5">
    <g id="xtick_11"/>
    <g id="xtick_12"/>
    <g id="xtick_13"/>
    <g id="xtick_14"/>
    <g id="xtick_15"/>
   </g>
   <g id="matplotlib.axis_6"/>
   <g id="FillBetweenPolyCollection_2">
    <defs>
     <path id="mb2844c0084" d="M 67.160174 -105.364562 
L 67.160174 -104.69 
L 67.627162 -104.69 
L 68.094149 -104.69 
L 68.561137 -104.69 
L 69.028125 -104.69 
L 69.495113 -104.69 
L 69.9621 -104.69 
L 70.429088 -104.69 
L 70.896076 -104.69 
L 71.363064 -104.69 
L 71.830052 -104.69 
L 72.297039 -104.69 
L 72.764027 -104.69 
L 73.231015 -104.69 
L 73.698003 -104.69 
L 74.164991 -104.69 
L 74.631978 -104.69 
L 75.098966 -104.69 
L 75.565954 -104.69 
L 76.032942 -104.69 
L 76.499929 -104.69 
L 76.966917 -104.69 
L 77.433905 -104.69 
L 77.900893 -104.69 
L 78.367881 -104.69 
L 78.834868 -104.69 
L 79.301856 -104.69 
L 79.768844 -104.69 
L 80.235832 -104.69 
L 80.70282 -104.69 
L 81.169807 -104.69 
L 81.636795 -104.69 
L 82.103783 -104.69 
L 82.570771 -104.69 
L 83.037759 -104.69 
L 83.504746 -104.69 
L 83.971734 -104.69 
L 84.438722 -104.69 
L 84.90571 -104.69 
L 85.372697 -104.69 
L 85.839685 -104.69 
L 86.306673 -104.69 
L 86.773661 -104.69 
L 87.240649 -104.69 
L 87.707636 -104.69 
L 88.174624 -104.69 
L 88.641612 -104.69 
L 89.1086 -104.69 
L 89.575588 -104.69 
L 90.042575 -104.69 
L 90.509563 -104.69 
L 90.976551 -104.69 
L 91.443539 -104.69 
L 91.910527 -104.69 
L 92.377514 -104.69 
L 92.844502 -104.69 
L 93.31149 -104.69 
L 93.778478 -104.69 
L 94.245465 -104.69 
L 94.712453 -104.69 
L 95.179441 -104.69 
L 95.646429 -104.69 
L 96.113417 -104.69 
L 96.580404 -104.69 
L 97.047392 -104.69 
L 97.51438 -104.69 
L 97.981368 -104.69 
L 98.448356 -104.69 
L 98.915343 -104.69 
L 99.382331 -104.69 
L 99.849319 -104.69 
L 100.316307 -104.69 
L 100.783294 -104.69 
L 101.250282 -104.69 
L 101.71727 -104.69 
L 102.184258 -104.69 
L 102.651246 -104.69 
L 103.118233 -104.69 
L 103.585221 -104.69 
L 104.052209 -104.69 
L 104.519197 -104.69 
L 104.986185 -104.69 
L 105.453172 -104.69 
L 105.92016 -104.69 
L 106.387148 -104.69 
L 106.854136 -104.69 
L 107.321124 -104.69 
L 107.788111 -104.69 
L 108.255099 -104.69 
L 108.722087 -104.69 
L 109.189075 -104.69 
L 109.656062 -104.69 
L 110.12305 -104.69 
L 110.590038 -104.69 
L 111.057026 -104.69 
L 111.524014 -104.69 
L 111.991001 -104.69 
L 112.457989 -104.69 
L 112.924977 -104.69 
L 113.391965 -104.69 
L 113.858953 -104.69 
L 114.32594 -104.69 
L 114.792928 -104.69 
L 115.259916 -104.69 
L 115.726904 -104.69 
L 116.193891 -104.69 
L 116.660879 -104.69 
L 117.127867 -104.69 
L 117.594855 -104.69 
L 118.061843 -104.69 
L 118.52883 -104.69 
L 118.995818 -104.69 
L 119.462806 -104.69 
L 119.929794 -104.69 
L 120.396782 -104.69 
L 120.863769 -104.69 
L 121.330757 -104.69 
L 121.797745 -104.69 
L 122.264733 -104.69 
L 122.731721 -104.69 
L 123.198708 -104.69 
L 123.665696 -104.69 
L 124.132684 -104.69 
L 124.599672 -104.69 
L 125.066659 -104.69 
L 125.533647 -104.69 
L 126.000635 -104.69 
L 126.467623 -104.69 
L 126.934611 -104.69 
L 127.401598 -104.69 
L 127.868586 -104.69 
L 128.335574 -104.69 
L 128.802562 -104.69 
L 129.26955 -104.69 
L 129.736537 -104.69 
L 130.203525 -104.69 
L 130.670513 -104.69 
L 131.137501 -104.69 
L 131.604489 -104.69 
L 132.071476 -104.69 
L 132.538464 -104.69 
L 133.005452 -104.69 
L 133.47244 -104.69 
L 133.939427 -104.69 
L 134.406415 -104.69 
L 134.873403 -104.69 
L 135.340391 -104.69 
L 135.807379 -104.69 
L 136.274366 -104.69 
L 136.741354 -104.69 
L 137.208342 -104.69 
L 137.67533 -104.69 
L 138.142318 -104.69 
L 138.609305 -104.69 
L 139.076293 -104.69 
L 139.543281 -104.69 
L 140.010269 -104.69 
L 140.477256 -104.69 
L 140.944244 -104.69 
L 141.411232 -104.69 
L 141.87822 -104.69 
L 142.345208 -104.69 
L 142.812195 -104.69 
L 143.279183 -104.69 
L 143.746171 -104.69 
L 144.213159 -104.69 
L 144.680147 -104.69 
L 145.147134 -104.69 
L 145.614122 -104.69 
L 146.08111 -104.69 
L 146.548098 -104.69 
L 147.015086 -104.69 
L 147.482073 -104.69 
L 147.949061 -104.69 
L 148.416049 -104.69 
L 148.883037 -104.69 
L 149.350024 -104.69 
L 149.817012 -104.69 
L 150.284 -104.69 
L 150.750988 -104.69 
L 151.217976 -104.69 
L 151.684963 -104.69 
L 152.151951 -104.69 
L 152.618939 -104.69 
L 153.085927 -104.69 
L 153.552915 -104.69 
L 154.019902 -104.69 
L 154.48689 -104.69 
L 154.953878 -104.69 
L 155.420866 -104.69 
L 155.887854 -104.69 
L 156.354841 -104.69 
L 156.821829 -104.69 
L 157.288817 -104.69 
L 157.755805 -104.69 
L 158.222792 -104.69 
L 158.68978 -104.69 
L 159.156768 -104.69 
L 159.623756 -104.69 
L 160.090744 -104.69 
L 160.090744 -104.988868 
L 160.090744 -104.988868 
L 159.623756 -105.024932 
L 159.156768 -105.063695 
L 158.68978 -105.105129 
L 158.222792 -105.149177 
L 157.755805 -105.19575 
L 157.288817 -105.244724 
L 156.821829 -105.295946 
L 156.354841 -105.349233 
L 155.887854 -105.404375 
L 155.420866 -105.461137 
L 154.953878 -105.519269 
L 154.48689 -105.578502 
L 154.019902 -105.638564 
L 153.552915 -105.699178 
L 153.085927 -105.760074 
L 152.618939 -105.820994 
L 152.151951 -105.881698 
L 151.684963 -105.94197 
L 151.217976 -106.00163 
L 150.750988 -106.060529 
L 150.284 -106.118564 
L 149.817012 -106.175675 
L 149.350024 -106.231852 
L 148.883037 -106.287132 
L 148.416049 -106.341606 
L 147.949061 -106.395414 
L 147.482073 -106.448744 
L 147.015086 -106.501837 
L 146.548098 -106.554974 
L 146.08111 -106.608485 
L 145.614122 -106.662736 
L 145.147134 -106.718137 
L 144.680147 -106.775129 
L 144.213159 -106.834189 
L 143.746171 -106.895828 
L 143.279183 -106.960587 
L 142.812195 -107.029036 
L 142.345208 -107.101778 
L 141.87822 -107.179442 
L 141.411232 -107.262687 
L 140.944244 -107.3522 
L 140.477256 -107.448695 
L 140.010269 -107.552907 
L 139.543281 -107.665593 
L 139.076293 -107.787526 
L 138.609305 -107.919486 
L 138.142318 -108.062251 
L 137.67533 -108.216593 
L 137.208342 -108.383258 
L 136.741354 -108.562955 
L 136.274366 -108.756342 
L 135.807379 -108.964005 
L 135.340391 -109.186444 
L 134.873403 -109.424049 
L 134.406415 -109.677083 
L 133.939427 -109.945663 
L 133.47244 -110.22974 
L 133.005452 -110.529082 
L 132.538464 -110.843261 
L 132.071476 -111.171634 
L 131.604489 -111.51334 
L 131.137501 -111.867288 
L 130.670513 -112.232158 
L 130.203525 -112.606402 
L 129.736537 -112.98825 
L 129.26955 -113.375723 
L 128.802562 -113.766651 
L 128.335574 -114.158692 
L 127.868586 -114.549364 
L 127.401598 -114.936073 
L 126.934611 -115.316154 
L 126.467623 -115.686907 
L 126.000635 -116.045641 
L 125.533647 -116.389722 
L 125.066659 -116.716615 
L 124.599672 -117.023933 
L 124.132684 -117.309476 
L 123.665696 -117.571277 
L 123.198708 -117.807633 
L 122.731721 -118.01714 
L 122.264733 -118.198714 
L 121.797745 -118.35161 
L 121.330757 -118.475428 
L 120.863769 -118.570112 
L 120.396782 -118.635943 
L 119.929794 -118.673521 
L 119.462806 -118.683739 
L 118.995818 -118.667749 
L 118.52883 -118.626927 
L 118.061843 -118.562831 
L 117.594855 -118.477152 
L 117.127867 -118.371672 
L 116.660879 -118.248217 
L 116.193891 -118.108616 
L 115.726904 -117.954659 
L 115.259916 -117.788064 
L 114.792928 -117.610448 
L 114.32594 -117.423307 
L 113.858953 -117.228 
L 113.391965 -117.025743 
L 112.924977 -116.817602 
L 112.457989 -116.604504 
L 111.991001 -116.387245 
L 111.524014 -116.166501 
L 111.057026 -115.942848 
L 110.590038 -115.716775 
L 110.12305 -115.488711 
L 109.656062 -115.259033 
L 109.189075 -115.028093 
L 108.722087 -114.796223 
L 108.255099 -114.563753 
L 107.788111 -114.331016 
L 107.321124 -114.098355 
L 106.854136 -113.866126 
L 106.387148 -113.634695 
L 105.92016 -113.404439 
L 105.453172 -113.175738 
L 104.986185 -112.948971 
L 104.519197 -112.724511 
L 104.052209 -112.502717 
L 103.585221 -112.283929 
L 103.118233 -112.068464 
L 102.651246 -111.856613 
L 102.184258 -111.648637 
L 101.71727 -111.444768 
L 101.250282 -111.24521 
L 100.783294 -111.050141 
L 100.316307 -110.859714 
L 99.849319 -110.674066 
L 99.382331 -110.493315 
L 98.915343 -110.317571 
L 98.448356 -110.146935 
L 97.981368 -109.981503 
L 97.51438 -109.821374 
L 97.047392 -109.666641 
L 96.580404 -109.517401 
L 96.113417 -109.37375 
L 95.646429 -109.23578 
L 95.179441 -109.10358 
L 94.712453 -108.977229 
L 94.245465 -108.856794 
L 93.778478 -108.742323 
L 93.31149 -108.633844 
L 92.844502 -108.531359 
L 92.377514 -108.434841 
L 91.910527 -108.344228 
L 91.443539 -108.259424 
L 90.976551 -108.180297 
L 90.509563 -108.106676 
L 90.042575 -108.038355 
L 89.575588 -107.975093 
L 89.1086 -107.916617 
L 88.641612 -107.862623 
L 88.174624 -107.812786 
L 87.707636 -107.766758 
L 87.240649 -107.724177 
L 86.773661 -107.684671 
L 86.306673 -107.647861 
L 85.839685 -107.613367 
L 85.372697 -107.580814 
L 84.90571 -107.549827 
L 84.438722 -107.520045 
L 83.971734 -107.491112 
L 83.504746 -107.462684 
L 83.037759 -107.434428 
L 82.570771 -107.406019 
L 82.103783 -107.377144 
L 81.636795 -107.347497 
L 81.169807 -107.316778 
L 80.70282 -107.284698 
L 80.235832 -107.250972 
L 79.768844 -107.215326 
L 79.301856 -107.177495 
L 78.834868 -107.137227 
L 78.367881 -107.094286 
L 77.900893 -107.048459 
L 77.433905 -106.999559 
L 76.966917 -106.947433 
L 76.499929 -106.891964 
L 76.032942 -106.833084 
L 75.565954 -106.770774 
L 75.098966 -106.705071 
L 74.631978 -106.636073 
L 74.164991 -106.563938 
L 73.698003 -106.488889 
L 73.231015 -106.411211 
L 72.764027 -106.331245 
L 72.297039 -106.249388 
L 71.830052 -106.166083 
L 71.363064 -106.081812 
L 70.896076 -105.997084 
L 70.429088 -105.912426 
L 69.9621 -105.828373 
L 69.495113 -105.745451 
L 69.028125 -105.664173 
L 68.561137 -105.585022 
L 68.094149 -105.508445 
L 67.627162 -105.434842 
L 67.160174 -105.364562 
z
" style="stroke: #22a884; stroke-width: 1.25"/>
    </defs>
    <g>
     <use xlink:href="#mb2844c0084" x="0" y="174.26" style="fill: #22a884; fill-opacity: 0.7; stroke: #22a884; stroke-width: 1.25"/>
    </g>
   </g>
   <g id="line2d_3">
    <path d="M 7.2 69.57 
L 216.45 69.57 
" style="fill: none; stroke: #22a884; stroke-opacity: 0.9; stroke-linecap: round"/>
   </g>
   <g id="text_3">
    <!-- 2 -->
    <g style="fill: #22a884" transform="translate(7.2 68.652) scale(0.12 -0.12)">
     <defs>
      <path id="IBMPlexSans-Bold-32" d="M 3526 0 
L 365 0 
L 365 877 
L 1741 2054 
Q 1926 2214 2054 2345 
Q 2182 2477 2262 2601 
Q 2342 2726 2377 2848 
Q 2413 2970 2413 3110 
L 2413 3200 
Q 2413 3328 2361 3424 
Q 2310 3520 2227 3584 
Q 2144 3648 2038 3680 
Q 1933 3712 1824 3712 
Q 1664 3712 1545 3661 
Q 1427 3610 1340 3523 
Q 1254 3437 1196 3325 
Q 1139 3213 1107 3085 
L 269 3405 
Q 346 3635 480 3843 
Q 614 4051 816 4208 
Q 1018 4365 1293 4454 
Q 1568 4544 1914 4544 
Q 2278 4544 2560 4441 
Q 2842 4339 3037 4160 
Q 3232 3981 3334 3734 
Q 3437 3488 3437 3200 
Q 3437 2912 3341 2675 
Q 3245 2438 3081 2230 
Q 2918 2022 2700 1836 
Q 2483 1651 2246 1459 
L 1414 806 
L 3526 806 
L 3526 0 
z
" transform="scale(0.015625)"/>
     </defs>
     <use xlink:href="#IBMPlexSans-Bold-32"/>
    </g>
   </g>
  </g>
  <g id="axes_4">
   <g id="patch_5">
    <path d="M 7.2 79.965 
L 216.45 79.965 
L 216.45 38.385 
L 7.2 38.385 
L 7.2 79.965 
z
" style="fill: none"/>
   </g>
   <g id="matplotlib.axis_7">
    <g id="xtick_16"/>
    <g id="xtick_17"/>
    <g id="xtick_18"/>
    <g id="xtick_19"/>
    <g id="xtick_20"/>
   </g>
   <g id="matplotlib.axis_8"/>
   <g id="FillBetweenPolyCollection_3">
    <defs>
     <path id="med87faa844" d="M 42.41651 -94.704751 
L 42.41651 -94.295 
L 43.125417 -94.295 
L 43.834323 -94.295 
L 44.54323 -94.295 
L 45.252137 -94.295 
L 45.961043 -94.295 
L 46.66995 -94.295 
L 47.378856 -94.295 
L 48.087763 -94.295 
L 48.796669 -94.295 
L 49.505576 -94.295 
L 50.214482 -94.295 
L 50.923389 -94.295 
L 51.632296 -94.295 
L 52.341202 -94.295 
L 53.050109 -94.295 
L 53.759015 -94.295 
L 54.467922 -94.295 
L 55.176828 -94.295 
L 55.885735 -94.295 
L 56.594642 -94.295 
L 57.303548 -94.295 
L 58.012455 -94.295 
L 58.721361 -94.295 
L 59.430268 -94.295 
L 60.139174 -94.295 
L 60.848081 -94.295 
L 61.556988 -94.295 
L 62.265894 -94.295 
L 62.974801 -94.295 
L 63.683707 -94.295 
L 64.392614 -94.295 
L 65.10152 -94.295 
L 65.810427 -94.295 
L 66.519333 -94.295 
L 67.22824 -94.295 
L 67.937147 -94.295 
L 68.646053 -94.295 
L 69.35496 -94.295 
L 70.063866 -94.295 
L 70.772773 -94.295 
L 71.481679 -94.295 
L 72.190586 -94.295 
L 72.899493 -94.295 
L 73.608399 -94.295 
L 74.317306 -94.295 
L 75.026212 -94.295 
L 75.735119 -94.295 
L 76.444025 -94.295 
L 77.152932 -94.295 
L 77.861838 -94.295 
L 78.570745 -94.295 
L 79.279652 -94.295 
L 79.988558 -94.295 
L 80.697465 -94.295 
L 81.406371 -94.295 
L 82.115278 -94.295 
L 82.824184 -94.295 
L 83.533091 -94.295 
L 84.241998 -94.295 
L 84.950904 -94.295 
L 85.659811 -94.295 
L 86.368717 -94.295 
L 87.077624 -94.295 
L 87.78653 -94.295 
L 88.495437 -94.295 
L 89.204344 -94.295 
L 89.91325 -94.295 
L 90.622157 -94.295 
L 91.331063 -94.295 
L 92.03997 -94.295 
L 92.748876 -94.295 
L 93.457783 -94.295 
L 94.166689 -94.295 
L 94.875596 -94.295 
L 95.584503 -94.295 
L 96.293409 -94.295 
L 97.002316 -94.295 
L 97.711222 -94.295 
L 98.420129 -94.295 
L 99.129035 -94.295 
L 99.837942 -94.295 
L 100.546849 -94.295 
L 101.255755 -94.295 
L 101.964662 -94.295 
L 102.673568 -94.295 
L 103.382475 -94.295 
L 104.091381 -94.295 
L 104.800288 -94.295 
L 105.509194 -94.295 
L 106.218101 -94.295 
L 106.927008 -94.295 
L 107.635914 -94.295 
L 108.344821 -94.295 
L 109.053727 -94.295 
L 109.762634 -94.295 
L 110.47154 -94.295 
L 111.180447 -94.295 
L 111.889354 -94.295 
L 112.59826 -94.295 
L 113.307167 -94.295 
L 114.016073 -94.295 
L 114.72498 -94.295 
L 115.433886 -94.295 
L 116.142793 -94.295 
L 116.8517 -94.295 
L 117.560606 -94.295 
L 118.269513 -94.295 
L 118.978419 -94.295 
L 119.687326 -94.295 
L 120.396232 -94.295 
L 121.105139 -94.295 
L 121.814045 -94.295 
L 122.522952 -94.295 
L 123.231859 -94.295 
L 123.940765 -94.295 
L 124.649672 -94.295 
L 125.358578 -94.295 
L 126.067485 -94.295 
L 126.776391 -94.295 
L 127.485298 -94.295 
L 128.194205 -94.295 
L 128.903111 -94.295 
L 129.612018 -94.295 
L 130.320924 -94.295 
L 131.029831 -94.295 
L 131.738737 -94.295 
L 132.447644 -94.295 
L 133.15655 -94.295 
L 133.865457 -94.295 
L 134.574364 -94.295 
L 135.28327 -94.295 
L 135.992177 -94.295 
L 136.701083 -94.295 
L 137.40999 -94.295 
L 138.118896 -94.295 
L 138.827803 -94.295 
L 139.53671 -94.295 
L 140.245616 -94.295 
L 140.954523 -94.295 
L 141.663429 -94.295 
L 142.372336 -94.295 
L 143.081242 -94.295 
L 143.790149 -94.295 
L 144.499056 -94.295 
L 145.207962 -94.295 
L 145.916869 -94.295 
L 146.625775 -94.295 
L 147.334682 -94.295 
L 148.043588 -94.295 
L 148.752495 -94.295 
L 149.461401 -94.295 
L 150.170308 -94.295 
L 150.879215 -94.295 
L 151.588121 -94.295 
L 152.297028 -94.295 
L 153.005934 -94.295 
L 153.714841 -94.295 
L 154.423747 -94.295 
L 155.132654 -94.295 
L 155.841561 -94.295 
L 156.550467 -94.295 
L 157.259374 -94.295 
L 157.96828 -94.295 
L 158.677187 -94.295 
L 159.386093 -94.295 
L 160.095 -94.295 
L 160.803906 -94.295 
L 161.512813 -94.295 
L 162.22172 -94.295 
L 162.930626 -94.295 
L 163.639533 -94.295 
L 164.348439 -94.295 
L 165.057346 -94.295 
L 165.766252 -94.295 
L 166.475159 -94.295 
L 167.184066 -94.295 
L 167.892972 -94.295 
L 168.601879 -94.295 
L 169.310785 -94.295 
L 170.019692 -94.295 
L 170.728598 -94.295 
L 171.437505 -94.295 
L 172.146412 -94.295 
L 172.855318 -94.295 
L 173.564225 -94.295 
L 174.273131 -94.295 
L 174.982038 -94.295 
L 175.690944 -94.295 
L 176.399851 -94.295 
L 177.108757 -94.295 
L 177.817664 -94.295 
L 178.526571 -94.295 
L 179.235477 -94.295 
L 179.944384 -94.295 
L 180.65329 -94.295 
L 181.362197 -94.295 
L 182.071103 -94.295 
L 182.78001 -94.295 
L 183.488917 -94.295 
L 183.488917 -94.50237 
L 183.488917 -94.50237 
L 182.78001 -94.52721 
L 182.071103 -94.553826 
L 181.362197 -94.582177 
L 180.65329 -94.612199 
L 179.944384 -94.643801 
L 179.235477 -94.67687 
L 178.526571 -94.711273 
L 177.817664 -94.746852 
L 177.108757 -94.783435 
L 176.399851 -94.820835 
L 175.690944 -94.858855 
L 174.982038 -94.897293 
L 174.273131 -94.935945 
L 173.564225 -94.974616 
L 172.855318 -95.013117 
L 172.146412 -95.051279 
L 171.437505 -95.088951 
L 170.728598 -95.126009 
L 170.019692 -95.16236 
L 169.310785 -95.197944 
L 168.601879 -95.232738 
L 167.892972 -95.266756 
L 167.184066 -95.300053 
L 166.475159 -95.332719 
L 165.766252 -95.364888 
L 165.057346 -95.396725 
L 164.348439 -95.428433 
L 163.639533 -95.460244 
L 162.930626 -95.492419 
L 162.22172 -95.525242 
L 161.512813 -95.55902 
L 160.803906 -95.594077 
L 160.095 -95.630754 
L 159.386093 -95.669403 
L 158.677187 -95.710388 
L 157.96828 -95.754084 
L 157.259374 -95.800873 
L 156.550467 -95.851149 
L 155.841561 -95.905314 
L 155.132654 -95.963783 
L 154.423747 -96.026979 
L 153.714841 -96.095338 
L 153.005934 -96.169306 
L 152.297028 -96.249341 
L 151.588121 -96.335907 
L 150.879215 -96.429476 
L 150.170308 -96.53052 
L 149.461401 -96.639504 
L 148.752495 -96.756884 
L 148.043588 -96.88309 
L 147.334682 -97.018521 
L 146.625775 -97.163531 
L 145.916869 -97.318414 
L 145.207962 -97.483391 
L 144.499056 -97.658596 
L 143.790149 -97.844057 
L 143.081242 -98.039689 
L 142.372336 -98.245273 
L 141.663429 -98.460449 
L 140.954523 -98.684705 
L 140.245616 -98.917369 
L 139.53671 -99.157608 
L 138.827803 -99.404422 
L 138.118896 -99.656655 
L 137.40999 -99.912994 
L 136.701083 -100.17199 
L 135.992177 -100.432064 
L 135.28327 -100.691537 
L 134.574364 -100.948644 
L 133.865457 -101.201569 
L 133.15655 -101.448469 
L 132.447644 -101.687509 
L 131.738737 -101.916894 
L 131.029831 -102.134901 
L 130.320924 -102.339914 
L 129.612018 -102.530455 
L 128.903111 -102.70521 
L 128.194205 -102.863056 
L 127.485298 -103.003082 
L 126.776391 -103.124604 
L 126.067485 -103.227173 
L 125.358578 -103.310582 
L 124.649672 -103.374862 
L 123.940765 -103.42027 
L 123.231859 -103.447283 
L 122.522952 -103.456567 
L 121.814045 -103.448961 
L 121.105139 -103.425445 
L 120.396232 -103.387108 
L 119.687326 -103.335118 
L 118.978419 -103.270688 
L 118.269513 -103.195041 
L 117.560606 -103.109386 
L 116.8517 -103.014886 
L 116.142793 -102.912637 
L 115.433886 -102.80365 
L 114.72498 -102.688838 
L 114.016073 -102.569005 
L 113.307167 -102.444847 
L 112.59826 -102.316951 
L 111.889354 -102.185802 
L 111.180447 -102.051796 
L 110.47154 -101.915246 
L 109.762634 -101.776404 
L 109.053727 -101.635473 
L 108.344821 -101.492623 
L 107.635914 -101.348008 
L 106.927008 -101.201777 
L 106.218101 -101.05409 
L 105.509194 -100.905122 
L 104.800288 -100.755075 
L 104.091381 -100.604178 
L 103.382475 -100.452688 
L 102.673568 -100.300891 
L 101.964662 -100.149095 
L 101.255755 -99.997627 
L 100.546849 -99.846826 
L 99.837942 -99.697035 
L 99.129035 -99.548594 
L 98.420129 -99.401831 
L 97.711222 -99.257059 
L 97.002316 -99.114568 
L 96.293409 -98.974623 
L 95.584503 -98.837457 
L 94.875596 -98.703276 
L 94.166689 -98.572254 
L 93.457783 -98.444539 
L 92.748876 -98.32025 
L 92.03997 -98.199484 
L 91.331063 -98.08232 
L 90.622157 -97.968819 
L 89.91325 -97.859032 
L 89.204344 -97.753002 
L 88.495437 -97.650764 
L 87.78653 -97.552352 
L 87.077624 -97.457795 
L 86.368717 -97.367122 
L 85.659811 -97.280357 
L 84.950904 -97.197523 
L 84.241998 -97.118635 
L 83.533091 -97.043702 
L 82.824184 -96.972718 
L 82.115278 -96.905667 
L 81.406371 -96.842515 
L 80.697465 -96.783208 
L 79.988558 -96.727671 
L 79.279652 -96.675804 
L 78.570745 -96.627486 
L 77.861838 -96.58257 
L 77.152932 -96.540884 
L 76.444025 -96.502235 
L 75.735119 -96.46641 
L 75.026212 -96.433177 
L 74.317306 -96.402291 
L 73.608399 -96.373494 
L 72.899493 -96.346525 
L 72.190586 -96.321117 
L 71.481679 -96.297003 
L 70.772773 -96.273925 
L 70.063866 -96.251626 
L 69.35496 -96.229864 
L 68.646053 -96.208405 
L 67.937147 -96.187029 
L 67.22824 -96.16553 
L 66.519333 -96.143714 
L 65.810427 -96.121399 
L 65.10152 -96.098416 
L 64.392614 -96.074605 
L 63.683707 -96.049816 
L 62.974801 -96.023907 
L 62.265894 -95.996744 
L 61.556988 -95.968199 
L 60.848081 -95.938154 
L 60.139174 -95.906497 
L 59.430268 -95.873129 
L 58.721361 -95.837962 
L 58.012455 -95.800924 
L 57.303548 -95.761963 
L 56.594642 -95.721047 
L 55.885735 -95.678174 
L 55.176828 -95.633368 
L 54.467922 -95.586686 
L 53.759015 -95.538218 
L 53.050109 -95.488093 
L 52.341202 -95.43647 
L 51.632296 -95.383549 
L 50.923389 -95.329556 
L 50.214482 -95.274752 
L 49.505576 -95.219418 
L 48.796669 -95.163857 
L 48.087763 -95.108386 
L 47.378856 -95.053325 
L 46.66995 -94.998998 
L 45.961043 -94.94572 
L 45.252137 -94.893789 
L 44.54323 -94.843489 
L 43.834323 -94.795071 
L 43.125417 -94.748762 
L 42.41651 -94.704751 
z
" style="stroke: #355f8d; stroke-width: 1.25"/>
    </defs>
    <g>
     <use xlink:href="#med87faa844" x="0" y="174.26" style="fill: #355f8d; fill-opacity: 0.7; stroke: #355f8d; stroke-width: 1.25"/>
    </g>
   </g>
   <g id="line2d_4">
    <path d="M 7.2 79.965 
L 216.45 79.965 
" style="fill: none; stroke: #355f8d; stroke-opacity: 0.9; stroke-linecap: round"/>
   </g>
   <g id="text_4">
    <!-- 3 -->
    <g style="fill: #355f8d" transform="translate(7.2 79.047) scale(0.12 -0.12)">
     <defs>
      <path id="IBMPlexSans-Bold-33" d="M 1677 2701 
Q 2035 2701 2198 2838 
Q 2362 2976 2362 3181 
L 2362 3226 
Q 2362 3469 2205 3616 
Q 2048 3763 1760 3763 
Q 1491 3763 1254 3625 
Q 1018 3488 851 3232 
L 250 3795 
Q 378 3962 525 4099 
Q 672 4237 857 4336 
Q 1043 4435 1273 4489 
Q 1504 4544 1792 4544 
Q 2150 4544 2441 4461 
Q 2733 4378 2941 4221 
Q 3149 4064 3261 3846 
Q 3373 3629 3373 3360 
Q 3373 3149 3305 2976 
Q 3238 2803 3120 2675 
Q 3002 2547 2848 2467 
Q 2694 2387 2522 2355 
L 2522 2317 
Q 2720 2278 2889 2192 
Q 3059 2106 3184 1971 
Q 3309 1837 3379 1654 
Q 3450 1472 3450 1242 
Q 3450 941 3328 697 
Q 3206 454 2982 281 
Q 2758 109 2444 16 
Q 2131 -77 1754 -77 
Q 1414 -77 1152 -6 
Q 890 64 694 182 
Q 499 301 355 454 
Q 211 608 102 781 
L 813 1331 
Q 960 1056 1174 880 
Q 1389 704 1754 704 
Q 2080 704 2262 867 
Q 2445 1030 2445 1312 
L 2445 1350 
Q 2445 1626 2237 1763 
Q 2029 1901 1664 1901 
L 1261 1901 
L 1261 2701 
L 1677 2701 
z
" transform="scale(0.015625)"/>
     </defs>
     <use xlink:href="#IBMPlexSans-Bold-33"/>
    </g>
   </g>
  </g>
  <g id="axes_5">
   <g id="patch_6">
    <path d="M 7.2 90.36 
L 216.45 90.36 
L 216.45 48.78 
L 7.2 48.78 
L 7.2 90.36 
z
" style="fill: none"/>
   </g>
   <g id="matplotlib.axis_9">
    <g id="xtick_21"/>
    <g id="xtick_22"/>
    <g id="xtick_23"/>
    <g id="xtick_24"/>
    <g id="xtick_25"/>
   </g>
   <g id="matplotlib.axis_10"/>
   <g id="FillBetweenPolyCollection_4">
    <defs>
     <path id="m18a5b2ec0c" d="M 16.711364 -84.177618 
L 16.711364 -83.9 
L 17.66728 -83.9 
L 18.623196 -83.9 
L 19.579111 -83.9 
L 20.535027 -83.9 
L 21.490943 -83.9 
L 22.446859 -83.9 
L 23.402775 -83.9 
L 24.358691 -83.9 
L 25.314607 -83.9 
L 26.270523 -83.9 
L 27.226439 -83.9 
L 28.182355 -83.9 
L 29.138271 -83.9 
L 30.094187 -83.9 
L 31.050103 -83.9 
L 32.006019 -83.9 
L 32.961935 -83.9 
L 33.917851 -83.9 
L 34.873767 -83.9 
L 35.829683 -83.9 
L 36.785598 -83.9 
L 37.741514 -83.9 
L 38.69743 -83.9 
L 39.653346 -83.9 
L 40.609262 -83.9 
L 41.565178 -83.9 
L 42.521094 -83.9 
L 43.47701 -83.9 
L 44.432926 -83.9 
L 45.388842 -83.9 
L 46.344758 -83.9 
L 47.300674 -83.9 
L 48.25659 -83.9 
L 49.212506 -83.9 
L 50.168422 -83.9 
L 51.124338 -83.9 
L 52.080254 -83.9 
L 53.036169 -83.9 
L 53.992085 -83.9 
L 54.948001 -83.9 
L 55.903917 -83.9 
L 56.859833 -83.9 
L 57.815749 -83.9 
L 58.771665 -83.9 
L 59.727581 -83.9 
L 60.683497 -83.9 
L 61.639413 -83.9 
L 62.595329 -83.9 
L 63.551245 -83.9 
L 64.507161 -83.9 
L 65.463077 -83.9 
L 66.418993 -83.9 
L 67.374909 -83.9 
L 68.330825 -83.9 
L 69.286741 -83.9 
L 70.242656 -83.9 
L 71.198572 -83.9 
L 72.154488 -83.9 
L 73.110404 -83.9 
L 74.06632 -83.9 
L 75.022236 -83.9 
L 75.978152 -83.9 
L 76.934068 -83.9 
L 77.889984 -83.9 
L 78.8459 -83.9 
L 79.801816 -83.9 
L 80.757732 -83.9 
L 81.713648 -83.9 
L 82.669564 -83.9 
L 83.62548 -83.9 
L 84.581396 -83.9 
L 85.537312 -83.9 
L 86.493228 -83.9 
L 87.449143 -83.9 
L 88.405059 -83.9 
L 89.360975 -83.9 
L 90.316891 -83.9 
L 91.272807 -83.9 
L 92.228723 -83.9 
L 93.184639 -83.9 
L 94.140555 -83.9 
L 95.096471 -83.9 
L 96.052387 -83.9 
L 97.008303 -83.9 
L 97.964219 -83.9 
L 98.920135 -83.9 
L 99.876051 -83.9 
L 100.831967 -83.9 
L 101.787883 -83.9 
L 102.743799 -83.9 
L 103.699714 -83.9 
L 104.65563 -83.9 
L 105.611546 -83.9 
L 106.567462 -83.9 
L 107.523378 -83.9 
L 108.479294 -83.9 
L 109.43521 -83.9 
L 110.391126 -83.9 
L 111.347042 -83.9 
L 112.302958 -83.9 
L 113.258874 -83.9 
L 114.21479 -83.9 
L 115.170706 -83.9 
L 116.126622 -83.9 
L 117.082538 -83.9 
L 118.038454 -83.9 
L 118.99437 -83.9 
L 119.950286 -83.9 
L 120.906201 -83.9 
L 121.862117 -83.9 
L 122.818033 -83.9 
L 123.773949 -83.9 
L 124.729865 -83.9 
L 125.685781 -83.9 
L 126.641697 -83.9 
L 127.597613 -83.9 
L 128.553529 -83.9 
L 129.509445 -83.9 
L 130.465361 -83.9 
L 131.421277 -83.9 
L 132.377193 -83.9 
L 133.333109 -83.9 
L 134.289025 -83.9 
L 135.244941 -83.9 
L 136.200857 -83.9 
L 137.156772 -83.9 
L 138.112688 -83.9 
L 139.068604 -83.9 
L 140.02452 -83.9 
L 140.980436 -83.9 
L 141.936352 -83.9 
L 142.892268 -83.9 
L 143.848184 -83.9 
L 144.8041 -83.9 
L 145.760016 -83.9 
L 146.715932 -83.9 
L 147.671848 -83.9 
L 148.627764 -83.9 
L 149.58368 -83.9 
L 150.539596 -83.9 
L 151.495512 -83.9 
L 152.451428 -83.9 
L 153.407344 -83.9 
L 154.363259 -83.9 
L 155.319175 -83.9 
L 156.275091 -83.9 
L 157.231007 -83.9 
L 158.186923 -83.9 
L 159.142839 -83.9 
L 160.098755 -83.9 
L 161.054671 -83.9 
L 162.010587 -83.9 
L 162.966503 -83.9 
L 163.922419 -83.9 
L 164.878335 -83.9 
L 165.834251 -83.9 
L 166.790167 -83.9 
L 167.746083 -83.9 
L 168.701999 -83.9 
L 169.657915 -83.9 
L 170.613831 -83.9 
L 171.569746 -83.9 
L 172.525662 -83.9 
L 173.481578 -83.9 
L 174.437494 -83.9 
L 175.39341 -83.9 
L 176.349326 -83.9 
L 177.305242 -83.9 
L 178.261158 -83.9 
L 179.217074 -83.9 
L 180.17299 -83.9 
L 181.128906 -83.9 
L 182.084822 -83.9 
L 183.040738 -83.9 
L 183.996654 -83.9 
L 184.95257 -83.9 
L 185.908486 -83.9 
L 186.864402 -83.9 
L 187.820317 -83.9 
L 188.776233 -83.9 
L 189.732149 -83.9 
L 190.688065 -83.9 
L 191.643981 -83.9 
L 192.599897 -83.9 
L 193.555813 -83.9 
L 194.511729 -83.9 
L 195.467645 -83.9 
L 196.423561 -83.9 
L 197.379477 -83.9 
L 198.335393 -83.9 
L 199.291309 -83.9 
L 200.247225 -83.9 
L 201.203141 -83.9 
L 202.159057 -83.9 
L 203.114973 -83.9 
L 204.070889 -83.9 
L 205.026804 -83.9 
L 205.98272 -83.9 
L 206.938636 -83.9 
L 206.938636 -84.068118 
L 206.938636 -84.068118 
L 205.98272 -84.087832 
L 205.026804 -84.108841 
L 204.070889 -84.131084 
L 203.114973 -84.154486 
L 202.159057 -84.178949 
L 201.203141 -84.204357 
L 200.247225 -84.23058 
L 199.291309 -84.257472 
L 198.335393 -84.284878 
L 197.379477 -84.312636 
L 196.423561 -84.34058 
L 195.467645 -84.368548 
L 194.511729 -84.396383 
L 193.555813 -84.423939 
L 192.599897 -84.451085 
L 191.643981 -84.477713 
L 190.688065 -84.503735 
L 189.732149 -84.529091 
L 188.776233 -84.553752 
L 187.820317 -84.57772 
L 186.864402 -84.601026 
L 185.908486 -84.623736 
L 184.95257 -84.645948 
L 183.996654 -84.667788 
L 183.040738 -84.68941 
L 182.084822 -84.710992 
L 181.128906 -84.732737 
L 180.17299 -84.754862 
L 179.217074 -84.777602 
L 178.261158 -84.801203 
L 177.305242 -84.825917 
L 176.349326 -84.852006 
L 175.39341 -84.879735 
L 174.437494 -84.909369 
L 173.481578 -84.941179 
L 172.525662 -84.975435 
L 171.569746 -85.012412 
L 170.613831 -85.052388 
L 169.657915 -85.095645 
L 168.701999 -85.142471 
L 167.746083 -85.193165 
L 166.790167 -85.248032 
L 165.834251 -85.307387 
L 164.878335 -85.371555 
L 163.922419 -85.440869 
L 162.966503 -85.515666 
L 162.010587 -85.596286 
L 161.054671 -85.683065 
L 160.098755 -85.776329 
L 159.142839 -85.876382 
L 158.186923 -85.983505 
L 157.231007 -86.097934 
L 156.275091 -86.219858 
L 155.319175 -86.349402 
L 154.363259 -86.486616 
L 153.407344 -86.631461 
L 152.451428 -86.783801 
L 151.495512 -86.94339 
L 150.539596 -87.109865 
L 149.58368 -87.282742 
L 148.627764 -87.461405 
L 147.671848 -87.645114 
L 146.715932 -87.833003 
L 145.760016 -88.024086 
L 144.8041 -88.217267 
L 143.848184 -88.411355 
L 142.892268 -88.605074 
L 141.936352 -88.79709 
L 140.980436 -88.986027 
L 140.02452 -89.170493 
L 139.068604 -89.349104 
L 138.112688 -89.520512 
L 137.156772 -89.683428 
L 136.200857 -89.836651 
L 135.244941 -89.979087 
L 134.289025 -90.109775 
L 133.333109 -90.227902 
L 132.377193 -90.33282 
L 131.421277 -90.424052 
L 130.465361 -90.501305 
L 129.509445 -90.564465 
L 128.553529 -90.613596 
L 127.597613 -90.64893 
L 126.641697 -90.670856 
L 125.685781 -90.679904 
L 124.729865 -90.676722 
L 123.773949 -90.662054 
L 122.818033 -90.636719 
L 121.862117 -90.601582 
L 120.906201 -90.557534 
L 119.950286 -90.505462 
L 118.99437 -90.446232 
L 118.038454 -90.380667 
L 117.082538 -90.309535 
L 116.126622 -90.23353 
L 115.170706 -90.153271 
L 114.21479 -90.069291 
L 113.258874 -89.982042 
L 112.302958 -89.891895 
L 111.347042 -89.799145 
L 110.391126 -89.704027 
L 109.43521 -89.606718 
L 108.479294 -89.507354 
L 107.523378 -89.406045 
L 106.567462 -89.302883 
L 105.611546 -89.197955 
L 104.65563 -89.091357 
L 103.699714 -88.983198 
L 102.743799 -88.87361 
L 101.787883 -88.762752 
L 100.831967 -88.650808 
L 99.876051 -88.537994 
L 98.920135 -88.42455 
L 97.964219 -88.310737 
L 97.008303 -88.196836 
L 96.052387 -88.083135 
L 95.096471 -87.96993 
L 94.140555 -87.857513 
L 93.184639 -87.746166 
L 92.228723 -87.636161 
L 91.272807 -87.527748 
L 90.316891 -87.421158 
L 89.360975 -87.316596 
L 88.405059 -87.214243 
L 87.449143 -87.114257 
L 86.493228 -87.01677 
L 85.537312 -86.921894 
L 84.581396 -86.829722 
L 83.62548 -86.740332 
L 82.669564 -86.653789 
L 81.713648 -86.570147 
L 80.757732 -86.489455 
L 79.801816 -86.411755 
L 78.8459 -86.337086 
L 77.889984 -86.265482 
L 76.934068 -86.196977 
L 75.978152 -86.131598 
L 75.022236 -86.069366 
L 74.06632 -86.010298 
L 73.110404 -85.954397 
L 72.154488 -85.901655 
L 71.198572 -85.852052 
L 70.242656 -85.805545 
L 69.286741 -85.762077 
L 68.330825 -85.721567 
L 67.374909 -85.683913 
L 66.418993 -85.64899 
L 65.463077 -85.616653 
L 64.507161 -85.586733 
L 63.551245 -85.559045 
L 62.595329 -85.533386 
L 61.639413 -85.509542 
L 60.683497 -85.487288 
L 59.727581 -85.466394 
L 58.771665 -85.446627 
L 57.815749 -85.427761 
L 56.859833 -85.409574 
L 55.903917 -85.391853 
L 54.948001 -85.374402 
L 53.992085 -85.357038 
L 53.036169 -85.339596 
L 52.080254 -85.321931 
L 51.124338 -85.303913 
L 50.168422 -85.285433 
L 49.212506 -85.266396 
L 48.25659 -85.246724 
L 47.300674 -85.226349 
L 46.344758 -85.205215 
L 45.388842 -85.183271 
L 44.432926 -85.160475 
L 43.47701 -85.136784 
L 42.521094 -85.11216 
L 41.565178 -85.086566 
L 40.609262 -85.059966 
L 39.653346 -85.032326 
L 38.69743 -85.003614 
L 37.741514 -84.973805 
L 36.785598 -84.942881 
L 35.829683 -84.910835 
L 34.873767 -84.877672 
L 33.917851 -84.843414 
L 32.961935 -84.808102 
L 32.006019 -84.771797 
L 31.050103 -84.734584 
L 30.094187 -84.696568 
L 29.138271 -84.657878 
L 28.182355 -84.618665 
L 27.226439 -84.5791 
L 26.270523 -84.539369 
L 25.314607 -84.499671 
L 24.358691 -84.460217 
L 23.402775 -84.421218 
L 22.446859 -84.382887 
L 21.490943 -84.345432 
L 20.535027 -84.30905 
L 19.579111 -84.273923 
L 18.623196 -84.240217 
L 17.66728 -84.208076 
L 16.711364 -84.177618 
z
" style="stroke: #482475; stroke-width: 1.25"/>
    </defs>
    <g>
     <use xlink:href="#m18a5b2ec0c" x="0" y="174.26" style="fill: #482475; fill-opacity: 0.7; stroke: #482475; stroke-width: 1.25"/>
    </g>
   </g>
   <g id="line2d_5">
    <path d="M 7.2 90.36 
L 216.45 90.36 
" style="fill: none; stroke: #482475; stroke-opacity: 0.9; stroke-linecap: round"/>
   </g>
   <g id="text_5">
    <!-- 4 -->
    <g style="fill: #482475" transform="translate(7.2 89.442) scale(0.12 -0.12)">
     <defs>
      <path id="IBMPlexSans-Bold-34" d="M 2157 0 
L 2157 858 
L 192 858 
L 192 1677 
L 1933 4467 
L 3072 4467 
L 3072 1600 
L 3635 1600 
L 3635 858 
L 3072 858 
L 3072 0 
L 2157 0 
z
M 960 1600 
L 2157 1600 
L 2157 3475 
L 2093 3475 
L 960 1600 
z
" transform="scale(0.015625)"/>
     </defs>
     <use xlink:href="#IBMPlexSans-Bold-34"/>
    </g>
   </g>
  </g>
  <g id="axes_6">
   <g id="patch_7">
    <path d="M 7.2 100.755 
L 216.45 100.755 
L 216.45 59.175 
L 7.2 59.175 
L 7.2 100.755 
z
" style="fill: none"/>
   </g>
   <g id="matplotlib.axis_11">
    <g id="xtick_26"/>
    <g id="xtick_27"/>
    <g id="xtick_28"/>
    <g id="xtick_29"/>
    <g id="xtick_30"/>
   </g>
   <g id="matplotlib.axis_12"/>
   <g id="FillBetweenPolyCollection_5">
    <defs>
     <path id="mc100d292d0" d="M 40.648657 -73.816956 
L 40.648657 -73.505 
L 41.366485 -73.505 
L 42.084313 -73.505 
L 42.802141 -73.505 
L 43.519969 -73.505 
L 44.237798 -73.505 
L 44.955626 -73.505 
L 45.673454 -73.505 
L 46.391282 -73.505 
L 47.10911 -73.505 
L 47.826938 -73.505 
L 48.544766 -73.505 
L 49.262594 -73.505 
L 49.980422 -73.505 
L 50.698251 -73.505 
L 51.416079 -73.505 
L 52.133907 -73.505 
L 52.851735 -73.505 
L 53.569563 -73.505 
L 54.287391 -73.505 
L 55.005219 -73.505 
L 55.723047 -73.505 
L 56.440875 -73.505 
L 57.158704 -73.505 
L 57.876532 -73.505 
L 58.59436 -73.505 
L 59.312188 -73.505 
L 60.030016 -73.505 
L 60.747844 -73.505 
L 61.465672 -73.505 
L 62.1835 -73.505 
L 62.901328 -73.505 
L 63.619156 -73.505 
L 64.336985 -73.505 
L 65.054813 -73.505 
L 65.772641 -73.505 
L 66.490469 -73.505 
L 67.208297 -73.505 
L 67.926125 -73.505 
L 68.643953 -73.505 
L 69.361781 -73.505 
L 70.079609 -73.505 
L 70.797438 -73.505 
L 71.515266 -73.505 
L 72.233094 -73.505 
L 72.950922 -73.505 
L 73.66875 -73.505 
L 74.386578 -73.505 
L 75.104406 -73.505 
L 75.822234 -73.505 
L 76.540062 -73.505 
L 77.257891 -73.505 
L 77.975719 -73.505 
L 78.693547 -73.505 
L 79.411375 -73.505 
L 80.129203 -73.505 
L 80.847031 -73.505 
L 81.564859 -73.505 
L 82.282687 -73.505 
L 83.000515 -73.505 
L 83.718343 -73.505 
L 84.436172 -73.505 
L 85.154 -73.505 
L 85.871828 -73.505 
L 86.589656 -73.505 
L 87.307484 -73.505 
L 88.025312 -73.505 
L 88.74314 -73.505 
L 89.460968 -73.505 
L 90.178796 -73.505 
L 90.896625 -73.505 
L 91.614453 -73.505 
L 92.332281 -73.505 
L 93.050109 -73.505 
L 93.767937 -73.505 
L 94.485765 -73.505 
L 95.203593 -73.505 
L 95.921421 -73.505 
L 96.639249 -73.505 
L 97.357078 -73.505 
L 98.074906 -73.505 
L 98.792734 -73.505 
L 99.510562 -73.505 
L 100.22839 -73.505 
L 100.946218 -73.505 
L 101.664046 -73.505 
L 102.381874 -73.505 
L 103.099702 -73.505 
L 103.817531 -73.505 
L 104.535359 -73.505 
L 105.253187 -73.505 
L 105.971015 -73.505 
L 106.688843 -73.505 
L 107.406671 -73.505 
L 108.124499 -73.505 
L 108.842327 -73.505 
L 109.560155 -73.505 
L 110.277983 -73.505 
L 110.995812 -73.505 
L 111.71364 -73.505 
L 112.431468 -73.505 
L 113.149296 -73.505 
L 113.867124 -73.505 
L 114.584952 -73.505 
L 115.30278 -73.505 
L 116.020608 -73.505 
L 116.738436 -73.505 
L 117.456265 -73.505 
L 118.174093 -73.505 
L 118.891921 -73.505 
L 119.609749 -73.505 
L 120.327577 -73.505 
L 121.045405 -73.505 
L 121.763233 -73.505 
L 122.481061 -73.505 
L 123.198889 -73.505 
L 123.916718 -73.505 
L 124.634546 -73.505 
L 125.352374 -73.505 
L 126.070202 -73.505 
L 126.78803 -73.505 
L 127.505858 -73.505 
L 128.223686 -73.505 
L 128.941514 -73.505 
L 129.659342 -73.505 
L 130.37717 -73.505 
L 131.094999 -73.505 
L 131.812827 -73.505 
L 132.530655 -73.505 
L 133.248483 -73.505 
L 133.966311 -73.505 
L 134.684139 -73.505 
L 135.401967 -73.505 
L 136.119795 -73.505 
L 136.837623 -73.505 
L 137.555452 -73.505 
L 138.27328 -73.505 
L 138.991108 -73.505 
L 139.708936 -73.505 
L 140.426764 -73.505 
L 141.144592 -73.505 
L 141.86242 -73.505 
L 142.580248 -73.505 
L 143.298076 -73.505 
L 144.015905 -73.505 
L 144.733733 -73.505 
L 145.451561 -73.505 
L 146.169389 -73.505 
L 146.887217 -73.505 
L 147.605045 -73.505 
L 148.322873 -73.505 
L 149.040701 -73.505 
L 149.758529 -73.505 
L 150.476358 -73.505 
L 151.194186 -73.505 
L 151.912014 -73.505 
L 152.629842 -73.505 
L 153.34767 -73.505 
L 154.065498 -73.505 
L 154.783326 -73.505 
L 155.501154 -73.505 
L 156.218982 -73.505 
L 156.93681 -73.505 
L 157.654639 -73.505 
L 158.372467 -73.505 
L 159.090295 -73.505 
L 159.808123 -73.505 
L 160.525951 -73.505 
L 161.243779 -73.505 
L 161.961607 -73.505 
L 162.679435 -73.505 
L 163.397263 -73.505 
L 164.115092 -73.505 
L 164.83292 -73.505 
L 165.550748 -73.505 
L 166.268576 -73.505 
L 166.986404 -73.505 
L 167.704232 -73.505 
L 168.42206 -73.505 
L 169.139888 -73.505 
L 169.857716 -73.505 
L 170.575545 -73.505 
L 171.293373 -73.505 
L 172.011201 -73.505 
L 172.729029 -73.505 
L 173.446857 -73.505 
L 174.164685 -73.505 
L 174.882513 -73.505 
L 175.600341 -73.505 
L 176.318169 -73.505 
L 177.035997 -73.505 
L 177.753826 -73.505 
L 178.471654 -73.505 
L 179.189482 -73.505 
L 179.90731 -73.505 
L 180.625138 -73.505 
L 181.342966 -73.505 
L 182.060794 -73.505 
L 182.778622 -73.505 
L 183.49645 -73.505 
L 183.49645 -73.699643 
L 183.49645 -73.699643 
L 182.778622 -73.723558 
L 182.060794 -73.749295 
L 181.342966 -73.776835 
L 180.625138 -73.806135 
L 179.90731 -73.83713 
L 179.189482 -73.869732 
L 178.471654 -73.903828 
L 177.753826 -73.939286 
L 177.035997 -73.975951 
L 176.318169 -74.013654 
L 175.600341 -74.05221 
L 174.882513 -74.091426 
L 174.164685 -74.131102 
L 173.446857 -74.171039 
L 172.729029 -74.211043 
L 172.011201 -74.250929 
L 171.293373 -74.29053 
L 170.575545 -74.329698 
L 169.857716 -74.368313 
L 169.139888 -74.406285 
L 168.42206 -74.443558 
L 167.704232 -74.480115 
L 166.986404 -74.515977 
L 166.268576 -74.551209 
L 165.550748 -74.585917 
L 164.83292 -74.620246 
L 164.115092 -74.654386 
L 163.397263 -74.688562 
L 162.679435 -74.723037 
L 161.961607 -74.758106 
L 161.243779 -74.794093 
L 160.525951 -74.83135 
L 159.808123 -74.870252 
L 159.090295 -74.911193 
L 158.372467 -74.954582 
L 157.654639 -75.000846 
L 156.93681 -75.05042 
L 156.218982 -75.103751 
L 155.501154 -75.161294 
L 154.783326 -75.223511 
L 154.065498 -75.290869 
L 153.34767 -75.363839 
L 152.629842 -75.442897 
L 151.912014 -75.528517 
L 151.194186 -75.621171 
L 150.476358 -75.721325 
L 149.758529 -75.829434 
L 149.040701 -75.945932 
L 148.322873 -76.071233 
L 147.605045 -76.205712 
L 146.887217 -76.349701 
L 146.169389 -76.503476 
L 145.451561 -76.667244 
L 144.733733 -76.841132 
L 144.015905 -77.02517 
L 143.298076 -77.219278 
L 142.580248 -77.423259 
L 141.86242 -77.636779 
L 141.144592 -77.859361 
L 140.426764 -78.090378 
L 139.708936 -78.329045 
L 138.991108 -78.574418 
L 138.27328 -78.825393 
L 137.555452 -79.080715 
L 136.837623 -79.338984 
L 136.119795 -79.598668 
L 135.401967 -79.858125 
L 134.684139 -80.115618 
L 133.966311 -80.369347 
L 133.248483 -80.617471 
L 132.530655 -80.858145 
L 131.812827 -81.089549 
L 131.094999 -81.309926 
L 130.37717 -81.517611 
L 129.659342 -81.711067 
L 128.941514 -81.888915 
L 128.223686 -82.04996 
L 127.505858 -82.193217 
L 126.78803 -82.317925 
L 126.070202 -82.423563 
L 125.352374 -82.509854 
L 124.634546 -82.576762 
L 123.916718 -82.62449 
L 123.198889 -82.653462 
L 122.481061 -82.664304 
L 121.763233 -82.65782 
L 121.045405 -82.634965 
L 120.327577 -82.596809 
L 119.609749 -82.544508 
L 118.891921 -82.479268 
L 118.174093 -82.40231 
L 117.456265 -82.314846 
L 116.738436 -82.218044 
L 116.020608 -82.113009 
L 115.30278 -82.000765 
L 114.584952 -81.882238 
L 113.867124 -81.758255 
L 113.149296 -81.629534 
L 112.431468 -81.496694 
L 111.71364 -81.360257 
L 110.995812 -81.22066 
L 110.277983 -81.078271 
L 109.560155 -80.933401 
L 108.842327 -80.786319 
L 108.124499 -80.637272 
L 107.406671 -80.486495 
L 106.688843 -80.334225 
L 105.971015 -80.180711 
L 105.253187 -80.02622 
L 104.535359 -79.871046 
L 103.817531 -79.715504 
L 103.099702 -79.559934 
L 102.381874 -79.404693 
L 101.664046 -79.250155 
L 100.946218 -79.096695 
L 100.22839 -78.944689 
L 99.510562 -78.7945 
L 98.792734 -78.646473 
L 98.074906 -78.500926 
L 97.357078 -78.358143 
L 96.639249 -78.218373 
L 95.921421 -78.081823 
L 95.203593 -77.948659 
L 94.485765 -77.819009 
L 93.767937 -77.69296 
L 93.050109 -77.570567 
L 92.332281 -77.451854 
L 91.614453 -77.336822 
L 90.896625 -77.225454 
L 90.178796 -77.117722 
L 89.460968 -77.01359 
L 88.74314 -76.913023 
L 88.025312 -76.815987 
L 87.307484 -76.722455 
L 86.589656 -76.632408 
L 85.871828 -76.545834 
L 85.154 -76.46273 
L 84.436172 -76.3831 
L 83.718343 -76.306951 
L 83.000515 -76.234291 
L 82.282687 -76.165127 
L 81.564859 -76.099455 
L 80.847031 -76.037266 
L 80.129203 -75.978532 
L 79.411375 -75.92321 
L 78.693547 -75.871238 
L 77.975719 -75.822531 
L 77.257891 -75.776982 
L 76.540062 -75.734462 
L 75.822234 -75.694819 
L 75.104406 -75.657882 
L 74.386578 -75.623459 
L 73.66875 -75.591346 
L 72.950922 -75.561323 
L 72.233094 -75.533161 
L 71.515266 -75.506624 
L 70.797438 -75.481472 
L 70.079609 -75.457463 
L 69.361781 -75.434356 
L 68.643953 -75.411912 
L 67.926125 -75.389894 
L 67.208297 -75.368072 
L 66.490469 -75.346218 
L 65.772641 -75.324111 
L 65.054813 -75.301535 
L 64.336985 -75.278279 
L 63.619156 -75.254138 
L 62.901328 -75.228914 
L 62.1835 -75.202419 
L 61.465672 -75.174473 
L 60.747844 -75.144907 
L 60.030016 -75.113571 
L 59.312188 -75.080329 
L 58.59436 -75.04507 
L 57.876532 -75.007707 
L 57.158704 -74.968182 
L 56.440875 -74.926471 
L 55.723047 -74.882586 
L 55.005219 -74.836575 
L 54.287391 -74.78853 
L 53.569563 -74.73858 
L 52.851735 -74.686896 
L 52.133907 -74.633686 
L 51.416079 -74.579195 
L 50.698251 -74.523697 
L 49.980422 -74.467494 
L 49.262594 -74.410909 
L 48.544766 -74.354276 
L 47.826938 -74.297937 
L 47.10911 -74.242233 
L 46.391282 -74.187497 
L 45.673454 -74.134047 
L 44.955626 -74.082181 
L 44.237798 -74.032167 
L 43.519969 -73.984245 
L 42.802141 -73.938617 
L 42.084313 -73.895448 
L 41.366485 -73.854866 
L 40.648657 -73.816956 
z
" style="stroke: #414487; stroke-width: 1.25"/>
    </defs>
    <g>
     <use xlink:href="#mc100d292d0" x="0" y="174.26" style="fill: #414487; fill-opacity: 0.7; stroke: #414487; stroke-width: 1.25"/>
    </g>
   </g>
   <g id="line2d_6">
    <path d="M 7.2 100.755 
L 216.45 100.755 
" style="fill: none; stroke: #414487; stroke-opacity: 0.9; stroke-linecap: round"/>
   </g>
   <g id="text_6">
    <!-- 5 -->
    <g style="fill: #414487" transform="translate(7.2 99.837) scale(0.12 -0.12)">
     <defs>
      <path id="IBMPlexSans-Bold-35" d="M 3341 3629 
L 1312 3629 
L 1216 2214 
L 1267 2214 
Q 1331 2374 1411 2505 
Q 1491 2637 1600 2729 
Q 1709 2822 1862 2873 
Q 2016 2925 2227 2925 
Q 2515 2925 2764 2829 
Q 3014 2733 3200 2550 
Q 3386 2368 3494 2102 
Q 3603 1837 3603 1504 
Q 3603 1165 3491 873 
Q 3379 582 3158 371 
Q 2938 160 2618 41 
Q 2298 -77 1888 -77 
Q 1562 -77 1312 -6 
Q 1062 64 870 182 
Q 678 301 537 454 
Q 397 608 294 781 
L 992 1331 
Q 1139 1069 1344 886 
Q 1549 704 1894 704 
Q 2240 704 2416 902 
Q 2592 1101 2592 1427 
L 2592 1478 
Q 2592 1786 2413 1965 
Q 2234 2144 1920 2144 
Q 1658 2144 1488 2038 
Q 1318 1933 1229 1830 
L 442 1939 
L 608 4467 
L 3341 4467 
L 3341 3629 
z
" transform="scale(0.015625)"/>
     </defs>
     <use xlink:href="#IBMPlexSans-Bold-35"/>
    </g>
   </g>
  </g>
  <g id="axes_7">
   <g id="patch_8">
    <path d="M 7.2 111.15 
L 216.45 111.15 
L 216.45 69.57 
L 7.2 69.57 
L 7.2 111.15 
z
" style="fill: none"/>
   </g>
   <g id="matplotlib.axis_13">
    <g id="xtick_31"/>
    <g id="xtick_32"/>
    <g id="xtick_33"/>
    <g id="xtick_34"/>
    <g id="xtick_35"/>
   </g>
   <g id="matplotlib.axis_14"/>
   <g id="FillBetweenPolyCollection_6">
    <defs>
     <path id="m6c819b76fb" d="M 61.429394 -63.318801 
L 61.429394 -63.11 
L 61.927138 -63.11 
L 62.424882 -63.11 
L 62.922626 -63.11 
L 63.42037 -63.11 
L 63.918113 -63.11 
L 64.415857 -63.11 
L 64.913601 -63.11 
L 65.411345 -63.11 
L 65.909089 -63.11 
L 66.406833 -63.11 
L 66.904577 -63.11 
L 67.40232 -63.11 
L 67.900064 -63.11 
L 68.397808 -63.11 
L 68.895552 -63.11 
L 69.393296 -63.11 
L 69.89104 -63.11 
L 70.388783 -63.11 
L 70.886527 -63.11 
L 71.384271 -63.11 
L 71.882015 -63.11 
L 72.379759 -63.11 
L 72.877503 -63.11 
L 73.375247 -63.11 
L 73.87299 -63.11 
L 74.370734 -63.11 
L 74.868478 -63.11 
L 75.366222 -63.11 
L 75.863966 -63.11 
L 76.36171 -63.11 
L 76.859454 -63.11 
L 77.357197 -63.11 
L 77.854941 -63.11 
L 78.352685 -63.11 
L 78.850429 -63.11 
L 79.348173 -63.11 
L 79.845917 -63.11 
L 80.343661 -63.11 
L 80.841404 -63.11 
L 81.339148 -63.11 
L 81.836892 -63.11 
L 82.334636 -63.11 
L 82.83238 -63.11 
L 83.330124 -63.11 
L 83.827868 -63.11 
L 84.325611 -63.11 
L 84.823355 -63.11 
L 85.321099 -63.11 
L 85.818843 -63.11 
L 86.316587 -63.11 
L 86.814331 -63.11 
L 87.312074 -63.11 
L 87.809818 -63.11 
L 88.307562 -63.11 
L 88.805306 -63.11 
L 89.30305 -63.11 
L 89.800794 -63.11 
L 90.298538 -63.11 
L 90.796281 -63.11 
L 91.294025 -63.11 
L 91.791769 -63.11 
L 92.289513 -63.11 
L 92.787257 -63.11 
L 93.285001 -63.11 
L 93.782745 -63.11 
L 94.280488 -63.11 
L 94.778232 -63.11 
L 95.275976 -63.11 
L 95.77372 -63.11 
L 96.271464 -63.11 
L 96.769208 -63.11 
L 97.266952 -63.11 
L 97.764695 -63.11 
L 98.262439 -63.11 
L 98.760183 -63.11 
L 99.257927 -63.11 
L 99.755671 -63.11 
L 100.253415 -63.11 
L 100.751159 -63.11 
L 101.248902 -63.11 
L 101.746646 -63.11 
L 102.24439 -63.11 
L 102.742134 -63.11 
L 103.239878 -63.11 
L 103.737622 -63.11 
L 104.235366 -63.11 
L 104.733109 -63.11 
L 105.230853 -63.11 
L 105.728597 -63.11 
L 106.226341 -63.11 
L 106.724085 -63.11 
L 107.221829 -63.11 
L 107.719572 -63.11 
L 108.217316 -63.11 
L 108.71506 -63.11 
L 109.212804 -63.11 
L 109.710548 -63.11 
L 110.208292 -63.11 
L 110.706036 -63.11 
L 111.203779 -63.11 
L 111.701523 -63.11 
L 112.199267 -63.11 
L 112.697011 -63.11 
L 113.194755 -63.11 
L 113.692499 -63.11 
L 114.190243 -63.11 
L 114.687986 -63.11 
L 115.18573 -63.11 
L 115.683474 -63.11 
L 116.181218 -63.11 
L 116.678962 -63.11 
L 117.176706 -63.11 
L 117.67445 -63.11 
L 118.172193 -63.11 
L 118.669937 -63.11 
L 119.167681 -63.11 
L 119.665425 -63.11 
L 120.163169 -63.11 
L 120.660913 -63.11 
L 121.158657 -63.11 
L 121.6564 -63.11 
L 122.154144 -63.11 
L 122.651888 -63.11 
L 123.149632 -63.11 
L 123.647376 -63.11 
L 124.14512 -63.11 
L 124.642863 -63.11 
L 125.140607 -63.11 
L 125.638351 -63.11 
L 126.136095 -63.11 
L 126.633839 -63.11 
L 127.131583 -63.11 
L 127.629327 -63.11 
L 128.12707 -63.11 
L 128.624814 -63.11 
L 129.122558 -63.11 
L 129.620302 -63.11 
L 130.118046 -63.11 
L 130.61579 -63.11 
L 131.113534 -63.11 
L 131.611277 -63.11 
L 132.109021 -63.11 
L 132.606765 -63.11 
L 133.104509 -63.11 
L 133.602253 -63.11 
L 134.099997 -63.11 
L 134.597741 -63.11 
L 135.095484 -63.11 
L 135.593228 -63.11 
L 136.090972 -63.11 
L 136.588716 -63.11 
L 137.08646 -63.11 
L 137.584204 -63.11 
L 138.081948 -63.11 
L 138.579691 -63.11 
L 139.077435 -63.11 
L 139.575179 -63.11 
L 140.072923 -63.11 
L 140.570667 -63.11 
L 141.068411 -63.11 
L 141.566154 -63.11 
L 142.063898 -63.11 
L 142.561642 -63.11 
L 143.059386 -63.11 
L 143.55713 -63.11 
L 144.054874 -63.11 
L 144.552618 -63.11 
L 145.050361 -63.11 
L 145.548105 -63.11 
L 146.045849 -63.11 
L 146.543593 -63.11 
L 147.041337 -63.11 
L 147.539081 -63.11 
L 148.036825 -63.11 
L 148.534568 -63.11 
L 149.032312 -63.11 
L 149.530056 -63.11 
L 150.0278 -63.11 
L 150.525544 -63.11 
L 151.023288 -63.11 
L 151.521032 -63.11 
L 152.018775 -63.11 
L 152.516519 -63.11 
L 153.014263 -63.11 
L 153.512007 -63.11 
L 154.009751 -63.11 
L 154.507495 -63.11 
L 155.005239 -63.11 
L 155.502982 -63.11 
L 156.000726 -63.11 
L 156.49847 -63.11 
L 156.996214 -63.11 
L 157.493958 -63.11 
L 157.991702 -63.11 
L 158.489446 -63.11 
L 158.987189 -63.11 
L 159.484933 -63.11 
L 159.982677 -63.11 
L 160.480421 -63.11 
L 160.480421 -63.336241 
L 160.480421 -63.336241 
L 159.982677 -63.365334 
L 159.484933 -63.396977 
L 158.987189 -63.43124 
L 158.489446 -63.468176 
L 157.991702 -63.507823 
L 157.493958 -63.550197 
L 156.996214 -63.595296 
L 156.49847 -63.643095 
L 156.000726 -63.693544 
L 155.502982 -63.746573 
L 155.005239 -63.802086 
L 154.507495 -63.859962 
L 154.009751 -63.920061 
L 153.512007 -63.982218 
L 153.014263 -64.046254 
L 152.516519 -64.111972 
L 152.018775 -64.179168 
L 151.521032 -64.247631 
L 151.023288 -64.317155 
L 150.525544 -64.387541 
L 150.0278 -64.458608 
L 149.530056 -64.530202 
L 149.032312 -64.6022 
L 148.534568 -64.674524 
L 148.036825 -64.747146 
L 147.539081 -64.820095 
L 147.041337 -64.893463 
L 146.543593 -64.967414 
L 146.045849 -65.042179 
L 145.548105 -65.118067 
L 145.050361 -65.195456 
L 144.552618 -65.274798 
L 144.054874 -65.35661 
L 143.55713 -65.44147 
L 143.059386 -65.53001 
L 142.561642 -65.622905 
L 142.063898 -65.720869 
L 141.566154 -65.824637 
L 141.068411 -65.934962 
L 140.570667 -66.052598 
L 140.072923 -66.178295 
L 139.575179 -66.312788 
L 139.077435 -66.456786 
L 138.579691 -66.610967 
L 138.081948 -66.775966 
L 137.584204 -66.952376 
L 137.08646 -67.140735 
L 136.588716 -67.341523 
L 136.090972 -67.555156 
L 135.593228 -67.781979 
L 135.095484 -68.022257 
L 134.597741 -68.276172 
L 134.099997 -68.543804 
L 133.602253 -68.825127 
L 133.104509 -69.119991 
L 132.606765 -69.42811 
L 132.109021 -69.749043 
L 131.611277 -70.082177 
L 131.113534 -70.426712 
L 130.61579 -70.781643 
L 130.118046 -71.145748 
L 129.620302 -71.517577 
L 129.122558 -71.895444 
L 128.624814 -72.277429 
L 128.12707 -72.661383 
L 127.629327 -73.044945 
L 127.131583 -73.425562 
L 126.633839 -73.800519 
L 126.136095 -74.166985 
L 125.638351 -74.522053 
L 125.140607 -74.862797 
L 124.642863 -75.186331 
L 124.14512 -75.48987 
L 123.647376 -75.770791 
L 123.149632 -76.026697 
L 122.651888 -76.255469 
L 122.154144 -76.45532 
L 121.6564 -76.624832 
L 121.158657 -76.76299 
L 120.660913 -76.869195 
L 120.163169 -76.943273 
L 119.665425 -76.985466 
L 119.167681 -76.996413 
L 118.669937 -76.977115 
L 118.172193 -76.928898 
L 117.67445 -76.853359 
L 117.176706 -76.752317 
L 116.678962 -76.627752 
L 116.181218 -76.481747 
L 115.683474 -76.316438 
L 115.18573 -76.133958 
L 114.687986 -75.936397 
L 114.190243 -75.725763 
L 113.692499 -75.503953 
L 113.194755 -75.272735 
L 112.697011 -75.033739 
L 112.199267 -74.788447 
L 111.701523 -74.538203 
L 111.203779 -74.284218 
L 110.706036 -74.027585 
L 110.208292 -73.769292 
L 109.710548 -73.510238 
L 109.212804 -73.251252 
L 108.71506 -72.9931 
L 108.217316 -72.736505 
L 107.719572 -72.482148 
L 107.221829 -72.230675 
L 106.724085 -71.9827 
L 106.226341 -71.7388 
L 105.728597 -71.499514 
L 105.230853 -71.265331 
L 104.733109 -71.036688 
L 104.235366 -70.813957 
L 103.737622 -70.597441 
L 103.239878 -70.387364 
L 102.742134 -70.183867 
L 102.24439 -69.987008 
L 101.746646 -69.796761 
L 101.248902 -69.613018 
L 100.751159 -69.435598 
L 100.253415 -69.264255 
L 99.755671 -69.098691 
L 99.257927 -68.938565 
L 98.760183 -68.783514 
L 98.262439 -68.633165 
L 97.764695 -68.487147 
L 97.266952 -68.345112 
L 96.769208 -68.20674 
L 96.271464 -68.071757 
L 95.77372 -67.939937 
L 95.275976 -67.811109 
L 94.778232 -67.685164 
L 94.280488 -67.562048 
L 93.782745 -67.441767 
L 93.285001 -67.324375 
L 92.787257 -67.209973 
L 92.289513 -67.0987 
L 91.791769 -66.990722 
L 91.294025 -66.886227 
L 90.796281 -66.785412 
L 90.298538 -66.688477 
L 89.800794 -66.595614 
L 89.30305 -66.507002 
L 88.805306 -66.422798 
L 88.307562 -66.343128 
L 87.809818 -66.268087 
L 87.312074 -66.197725 
L 86.814331 -66.132048 
L 86.316587 -66.071009 
L 85.818843 -66.014507 
L 85.321099 -65.962378 
L 84.823355 -65.914395 
L 84.325611 -65.870265 
L 83.827868 -65.829627 
L 83.330124 -65.792055 
L 82.83238 -65.757059 
L 82.334636 -65.724088 
L 81.836892 -65.692545 
L 81.339148 -65.66179 
L 80.841404 -65.631154 
L 80.343661 -65.599958 
L 79.845917 -65.567526 
L 79.348173 -65.533204 
L 78.850429 -65.49638 
L 78.352685 -65.4565 
L 77.854941 -65.413085 
L 77.357197 -65.36575 
L 76.859454 -65.314213 
L 76.36171 -65.258305 
L 75.863966 -65.197975 
L 75.366222 -65.133294 
L 74.868478 -65.06445 
L 74.370734 -64.991741 
L 73.87299 -64.915566 
L 73.375247 -64.836407 
L 72.877503 -64.75482 
L 72.379759 -64.671411 
L 71.882015 -64.586817 
L 71.384271 -64.50169 
L 70.886527 -64.416677 
L 70.388783 -64.332402 
L 69.89104 -64.249452 
L 69.393296 -64.168364 
L 68.895552 -64.089618 
L 68.397808 -64.013625 
L 67.900064 -63.940728 
L 67.40232 -63.871197 
L 66.904577 -63.805233 
L 66.406833 -63.742973 
L 65.909089 -63.684489 
L 65.411345 -63.629802 
L 64.913601 -63.578881 
L 64.415857 -63.531659 
L 63.918113 -63.488032 
L 63.42037 -63.447874 
L 62.922626 -63.411037 
L 62.424882 -63.377359 
L 61.927138 -63.346672 
L 61.429394 -63.318801 
z
" style="stroke: #2a788e; stroke-width: 1.25"/>
    </defs>
    <g>
     <use xlink:href="#m6c819b76fb" x="0" y="174.26" style="fill: #2a788e; fill-opacity: 0.7; stroke: #2a788e; stroke-width: 1.25"/>
    </g>
   </g>
   <g id="line2d_7">
    <path d="M 7.2 111.15 
L 216.45 111.15 
" style="fill: none; stroke: #2a788e; stroke-opacity: 0.9; stroke-linecap: round"/>
   </g>
   <g id="text_7">
    <!-- 6 -->
    <g style="fill: #2a788e" transform="translate(7.2 110.232) scale(0.12 -0.12)">
     <defs>
      <path id="IBMPlexSans-Bold-36" d="M 1946 -77 
Q 1549 -77 1235 48 
Q 922 173 707 406 
Q 493 640 381 966 
Q 269 1293 269 1696 
Q 269 2163 413 2582 
Q 557 3002 784 3357 
Q 1011 3712 1296 3993 
Q 1581 4275 1869 4467 
L 3194 4467 
Q 2784 4173 2457 3907 
Q 2131 3642 1891 3373 
Q 1651 3104 1494 2825 
Q 1338 2547 1274 2227 
L 1331 2208 
Q 1389 2336 1469 2457 
Q 1549 2579 1667 2672 
Q 1786 2765 1946 2822 
Q 2106 2880 2317 2880 
Q 2592 2880 2832 2781 
Q 3072 2682 3248 2502 
Q 3424 2323 3523 2064 
Q 3622 1805 3622 1491 
Q 3622 1146 3504 858 
Q 3386 570 3165 362 
Q 2944 154 2637 38 
Q 2330 -77 1946 -77 
z
M 1946 672 
Q 2266 672 2445 848 
Q 2624 1024 2624 1350 
L 2624 1466 
Q 2624 1792 2445 1968 
Q 2266 2144 1946 2144 
Q 1626 2144 1446 1968 
Q 1267 1792 1267 1466 
L 1267 1350 
Q 1267 1024 1446 848 
Q 1626 672 1946 672 
z
" transform="scale(0.015625)"/>
     </defs>
     <use xlink:href="#IBMPlexSans-Bold-36"/>
    </g>
   </g>
  </g>
  <g id="axes_8">
   <g id="patch_9">
    <path d="M 7.2 121.545 
L 216.45 121.545 
L 216.45 79.965 
L 7.2 79.965 
L 7.2 121.545 
z
" style="fill: none"/>
   </g>
   <g id="matplotlib.axis_15">
    <g id="xtick_36"/>
    <g id="xtick_37"/>
    <g id="xtick_38"/>
    <g id="xtick_39"/>
    <g id="xtick_40"/>
   </g>
   <g id="matplotlib.axis_16"/>
   <g id="FillBetweenPolyCollection_7">
    <defs>
     <path id="ma53343b409" d="M 81.062115 -53.009224 
L 81.062115 -52.715 
L 81.350882 -52.715 
L 81.639649 -52.715 
L 81.928416 -52.715 
L 82.217183 -52.715 
L 82.50595 -52.715 
L 82.794718 -52.715 
L 83.083485 -52.715 
L 83.372252 -52.715 
L 83.661019 -52.715 
L 83.949786 -52.715 
L 84.238553 -52.715 
L 84.52732 -52.715 
L 84.816087 -52.715 
L 85.104854 -52.715 
L 85.393622 -52.715 
L 85.682389 -52.715 
L 85.971156 -52.715 
L 86.259923 -52.715 
L 86.54869 -52.715 
L 86.837457 -52.715 
L 87.126224 -52.715 
L 87.414991 -52.715 
L 87.703758 -52.715 
L 87.992526 -52.715 
L 88.281293 -52.715 
L 88.57006 -52.715 
L 88.858827 -52.715 
L 89.147594 -52.715 
L 89.436361 -52.715 
L 89.725128 -52.715 
L 90.013895 -52.715 
L 90.302662 -52.715 
L 90.59143 -52.715 
L 90.880197 -52.715 
L 91.168964 -52.715 
L 91.457731 -52.715 
L 91.746498 -52.715 
L 92.035265 -52.715 
L 92.324032 -52.715 
L 92.612799 -52.715 
L 92.901567 -52.715 
L 93.190334 -52.715 
L 93.479101 -52.715 
L 93.767868 -52.715 
L 94.056635 -52.715 
L 94.345402 -52.715 
L 94.634169 -52.715 
L 94.922936 -52.715 
L 95.211703 -52.715 
L 95.500471 -52.715 
L 95.789238 -52.715 
L 96.078005 -52.715 
L 96.366772 -52.715 
L 96.655539 -52.715 
L 96.944306 -52.715 
L 97.233073 -52.715 
L 97.52184 -52.715 
L 97.810607 -52.715 
L 98.099375 -52.715 
L 98.388142 -52.715 
L 98.676909 -52.715 
L 98.965676 -52.715 
L 99.254443 -52.715 
L 99.54321 -52.715 
L 99.831977 -52.715 
L 100.120744 -52.715 
L 100.409511 -52.715 
L 100.698279 -52.715 
L 100.987046 -52.715 
L 101.275813 -52.715 
L 101.56458 -52.715 
L 101.853347 -52.715 
L 102.142114 -52.715 
L 102.430881 -52.715 
L 102.719648 -52.715 
L 103.008416 -52.715 
L 103.297183 -52.715 
L 103.58595 -52.715 
L 103.874717 -52.715 
L 104.163484 -52.715 
L 104.452251 -52.715 
L 104.741018 -52.715 
L 105.029785 -52.715 
L 105.318552 -52.715 
L 105.60732 -52.715 
L 105.896087 -52.715 
L 106.184854 -52.715 
L 106.473621 -52.715 
L 106.762388 -52.715 
L 107.051155 -52.715 
L 107.339922 -52.715 
L 107.628689 -52.715 
L 107.917456 -52.715 
L 108.206224 -52.715 
L 108.494991 -52.715 
L 108.783758 -52.715 
L 109.072525 -52.715 
L 109.361292 -52.715 
L 109.650059 -52.715 
L 109.938826 -52.715 
L 110.227593 -52.715 
L 110.51636 -52.715 
L 110.805128 -52.715 
L 111.093895 -52.715 
L 111.382662 -52.715 
L 111.671429 -52.715 
L 111.960196 -52.715 
L 112.248963 -52.715 
L 112.53773 -52.715 
L 112.826497 -52.715 
L 113.115265 -52.715 
L 113.404032 -52.715 
L 113.692799 -52.715 
L 113.981566 -52.715 
L 114.270333 -52.715 
L 114.5591 -52.715 
L 114.847867 -52.715 
L 115.136634 -52.715 
L 115.425401 -52.715 
L 115.714169 -52.715 
L 116.002936 -52.715 
L 116.291703 -52.715 
L 116.58047 -52.715 
L 116.869237 -52.715 
L 117.158004 -52.715 
L 117.446771 -52.715 
L 117.735538 -52.715 
L 118.024305 -52.715 
L 118.313073 -52.715 
L 118.60184 -52.715 
L 118.890607 -52.715 
L 119.179374 -52.715 
L 119.468141 -52.715 
L 119.756908 -52.715 
L 120.045675 -52.715 
L 120.334442 -52.715 
L 120.62321 -52.715 
L 120.911977 -52.715 
L 121.200744 -52.715 
L 121.489511 -52.715 
L 121.778278 -52.715 
L 122.067045 -52.715 
L 122.355812 -52.715 
L 122.644579 -52.715 
L 122.933346 -52.715 
L 123.222114 -52.715 
L 123.510881 -52.715 
L 123.799648 -52.715 
L 124.088415 -52.715 
L 124.377182 -52.715 
L 124.665949 -52.715 
L 124.954716 -52.715 
L 125.243483 -52.715 
L 125.53225 -52.715 
L 125.821018 -52.715 
L 126.109785 -52.715 
L 126.398552 -52.715 
L 126.687319 -52.715 
L 126.976086 -52.715 
L 127.264853 -52.715 
L 127.55362 -52.715 
L 127.842387 -52.715 
L 128.131154 -52.715 
L 128.419922 -52.715 
L 128.708689 -52.715 
L 128.997456 -52.715 
L 129.286223 -52.715 
L 129.57499 -52.715 
L 129.863757 -52.715 
L 130.152524 -52.715 
L 130.441291 -52.715 
L 130.730059 -52.715 
L 131.018826 -52.715 
L 131.307593 -52.715 
L 131.59636 -52.715 
L 131.885127 -52.715 
L 132.173894 -52.715 
L 132.462661 -52.715 
L 132.751428 -52.715 
L 133.040195 -52.715 
L 133.328963 -52.715 
L 133.61773 -52.715 
L 133.906497 -52.715 
L 134.195264 -52.715 
L 134.484031 -52.715 
L 134.772798 -52.715 
L 135.061565 -52.715 
L 135.350332 -52.715 
L 135.639099 -52.715 
L 135.927867 -52.715 
L 136.216634 -52.715 
L 136.505401 -52.715 
L 136.794168 -52.715 
L 137.082935 -52.715 
L 137.371702 -52.715 
L 137.660469 -52.715 
L 137.949236 -52.715 
L 138.238003 -52.715 
L 138.526771 -52.715 
L 138.526771 -53.113798 
L 138.526771 -53.113798 
L 138.238003 -53.16664 
L 137.949236 -53.223886 
L 137.660469 -53.285609 
L 137.371702 -53.351868 
L 137.082935 -53.422713 
L 136.794168 -53.498187 
L 136.505401 -53.578329 
L 136.216634 -53.663177 
L 135.927867 -53.752769 
L 135.639099 -53.847139 
L 135.350332 -53.946318 
L 135.061565 -54.05033 
L 134.772798 -54.159187 
L 134.484031 -54.272889 
L 134.195264 -54.391419 
L 133.906497 -54.514746 
L 133.61773 -54.642824 
L 133.328963 -54.775605 
L 133.040195 -54.913048 
L 132.751428 -55.055139 
L 132.462661 -55.201912 
L 132.173894 -55.353475 
L 131.885127 -55.510042 
L 131.59636 -55.671965 
L 131.307593 -55.839764 
L 131.018826 -56.014153 
L 130.730059 -56.196063 
L 130.441291 -56.386657 
L 130.152524 -56.587327 
L 129.863757 -56.799688 
L 129.57499 -57.025548 
L 129.286223 -57.266872 
L 128.997456 -57.525727 
L 128.708689 -57.804214 
L 128.419922 -58.104397 
L 128.131154 -58.428216 
L 127.842387 -58.777409 
L 127.55362 -59.153428 
L 127.264853 -59.557368 
L 126.976086 -59.989901 
L 126.687319 -60.451235 
L 126.398552 -60.941083 
L 126.109785 -61.458655 
L 125.821018 -62.00267 
L 125.53225 -62.571391 
L 125.243483 -63.16267 
L 124.954716 -63.774016 
L 124.665949 -64.402663 
L 124.377182 -65.045652 
L 124.088415 -65.699907 
L 123.799648 -66.362304 
L 123.510881 -67.029737 
L 123.222114 -67.699166 
L 122.933346 -68.367647 
L 122.644579 -69.032349 
L 122.355812 -69.690555 
L 122.067045 -70.339642 
L 121.778278 -70.977058 
L 121.489511 -71.600283 
L 121.200744 -72.206791 
L 120.911977 -72.794015 
L 120.62321 -73.359314 
L 120.334442 -73.899953 
L 120.045675 -74.413098 
L 119.756908 -74.895827 
L 119.468141 -75.345157 
L 119.179374 -75.758092 
L 118.890607 -76.131682 
L 118.60184 -76.463103 
L 118.313073 -76.749736 
L 118.024305 -76.989267 
L 117.735538 -77.17977 
L 117.446771 -77.319801 
L 117.158004 -77.408475 
L 116.869237 -77.445536 
L 116.58047 -77.431398 
L 116.291703 -77.367182 
L 116.002936 -77.254714 
L 115.714169 -77.09651 
L 115.425401 -76.895728 
L 115.136634 -76.656098 
L 114.847867 -76.381829 
L 114.5591 -76.07749 
L 114.270333 -75.747885 
L 113.981566 -75.397901 
L 113.692799 -75.032356 
L 113.404032 -74.65585 
L 113.115265 -74.272616 
L 112.826497 -73.886383 
L 112.53773 -73.500266 
L 112.248963 -73.116677 
L 111.960196 -72.737267 
L 111.671429 -72.362904 
L 111.382662 -71.993694 
L 111.093895 -71.62903 
L 110.805128 -71.267681 
L 110.51636 -70.907916 
L 110.227593 -70.547645 
L 109.938826 -70.184586 
L 109.650059 -69.816433 
L 109.361292 -69.441031 
L 109.072525 -69.05653 
L 108.783758 -68.661532 
L 108.494991 -68.255198 
L 108.206224 -67.837331 
L 107.917456 -67.408415 
L 107.628689 -66.969618 
L 107.339922 -66.522753 
L 107.051155 -66.070208 
L 106.762388 -65.614838 
L 106.473621 -65.15984 
L 106.184854 -64.708607 
L 105.896087 -64.264575 
L 105.60732 -63.831074 
L 105.318552 -63.411189 
L 105.029785 -63.007628 
L 104.741018 -62.622628 
L 104.452251 -62.257878 
L 104.163484 -61.914473 
L 103.874717 -61.592899 
L 103.58595 -61.29305 
L 103.297183 -61.014269 
L 103.008416 -60.755408 
L 102.719648 -60.514913 
L 102.430881 -60.290916 
L 102.142114 -60.081334 
L 101.853347 -59.88397 
L 101.56458 -59.696611 
L 101.275813 -59.51711 
L 100.987046 -59.343468 
L 100.698279 -59.173888 
L 100.409511 -59.00682 
L 100.120744 -58.84099 
L 99.831977 -58.675408 
L 99.54321 -58.509367 
L 99.254443 -58.34242 
L 98.965676 -58.17436 
L 98.676909 -58.005177 
L 98.388142 -57.835028 
L 98.099375 -57.664185 
L 97.810607 -57.493003 
L 97.52184 -57.32188 
L 97.233073 -57.151223 
L 96.944306 -56.981427 
L 96.655539 -56.812851 
L 96.366772 -56.645815 
L 96.078005 -56.480587 
L 95.789238 -56.317393 
L 95.500471 -56.156424 
L 95.211703 -55.997847 
L 94.922936 -55.84182 
L 94.634169 -55.68851 
L 94.345402 -55.538104 
L 94.056635 -55.390826 
L 93.767868 -55.246946 
L 93.479101 -55.106781 
L 93.190334 -54.9707 
L 92.901567 -54.839118 
L 92.612799 -54.712482 
L 92.324032 -54.591264 
L 92.035265 -54.475937 
L 91.746498 -54.366958 
L 91.457731 -54.264748 
L 91.168964 -54.169667 
L 90.880197 -54.081995 
L 90.59143 -54.001919 
L 90.302662 -53.929512 
L 90.013895 -53.864732 
L 89.725128 -53.807407 
L 89.436361 -53.757248 
L 89.147594 -53.713842 
L 88.858827 -53.676672 
L 88.57006 -53.645125 
L 88.281293 -53.618512 
L 87.992526 -53.596086 
L 87.703758 -53.577069 
L 87.414991 -53.560665 
L 87.126224 -53.54609 
L 86.837457 -53.53259 
L 86.54869 -53.519457 
L 86.259923 -53.50605 
L 85.971156 -53.491806 
L 85.682389 -53.47625 
L 85.393622 -53.459005 
L 85.104854 -53.439794 
L 84.816087 -53.41844 
L 84.52732 -53.394868 
L 84.238553 -53.369094 
L 83.949786 -53.341223 
L 83.661019 -53.311434 
L 83.372252 -53.279976 
L 83.083485 -53.247148 
L 82.794718 -53.213289 
L 82.50595 -53.178766 
L 82.217183 -53.143959 
L 81.928416 -53.109246 
L 81.639649 -53.074995 
L 81.350882 -53.04155 
L 81.062115 -53.009224 
z
" style="stroke: #21918c; stroke-width: 1.25"/>
    </defs>
    <g>
     <use xlink:href="#ma53343b409" x="0" y="174.26" style="fill: #21918c; fill-opacity: 0.7; stroke: #21918c; stroke-width: 1.25"/>
    </g>
   </g>
   <g id="line2d_8">
    <path d="M 7.2 121.545 
L 216.45 121.545 
" style="fill: none; stroke: #21918c; stroke-opacity: 0.9; stroke-linecap: round"/>
   </g>
   <g id="text_8">
    <!-- 7 -->
    <g style="fill: #21918c" transform="translate(7.2 120.627) scale(0.12 -0.12)">
     <defs>
      <path id="IBMPlexSans-Bold-37" d="M 1062 0 
L 2560 3686 
L 1165 3686 
L 1165 2874 
L 352 2874 
L 352 4467 
L 3514 4467 
L 3514 3635 
L 2074 0 
L 1062 0 
z
" transform="scale(0.015625)"/>
     </defs>
     <use xlink:href="#IBMPlexSans-Bold-37"/>
    </g>
   </g>
  </g>
  <g id="axes_9">
   <g id="patch_10">
    <path d="M 7.2 131.94 
L 216.45 131.94 
L 216.45 90.36 
L 7.2 90.36 
L 7.2 131.94 
z
" style="fill: none"/>
   </g>
   <g id="matplotlib.axis_17">
    <g id="xtick_41">
     <g id="text_9">
      <!-- 4 -->
      <g style="fill: #838383" transform="translate(16.029723 149.58) scale(0.11 -0.11)">
       <defs>
        <path id="IBMPlexSans-Regular-2212" d="M 429 1734 
L 429 2170 
L 3411 2170 
L 3411 1734 
L 429 1734 
z
" transform="scale(0.015625)"/>
        <path id="IBMPlexSans-Regular-34" d="M 2400 0 
L 2400 877 
L 243 877 
L 243 1350 
L 2112 4467 
L 2912 4467 
L 2912 1325 
L 3558 1325 
L 3558 877 
L 2912 877 
L 2912 0 
L 2400 0 
z
M 749 1325 
L 2400 1325 
L 2400 4051 
L 2368 4051 
L 749 1325 
z
" transform="scale(0.015625)"/>
       </defs>
       <use xlink:href="#IBMPlexSans-Regular-2212"/>
       <use xlink:href="#IBMPlexSans-Regular-34" transform="translate(59.999985 0)"/>
      </g>
     </g>
    </g>
    <g id="xtick_42">
     <g id="text_10">
      <!-- 2 -->
      <g style="fill: #838383" transform="translate(62.03298 149.58) scale(0.11 -0.11)">
       <defs>
        <path id="IBMPlexSans-Regular-32" d="M 3411 0 
L 480 0 
L 480 550 
L 1939 1894 
Q 2253 2182 2464 2505 
Q 2675 2829 2675 3155 
L 2675 3232 
Q 2675 3603 2470 3833 
Q 2266 4064 1850 4064 
Q 1645 4064 1491 4006 
Q 1338 3949 1226 3846 
Q 1114 3744 1040 3606 
Q 966 3469 922 3309 
L 442 3494 
Q 506 3693 618 3881 
Q 730 4070 899 4217 
Q 1069 4365 1309 4454 
Q 1549 4544 1875 4544 
Q 2202 4544 2458 4448 
Q 2714 4352 2886 4179 
Q 3059 4006 3152 3769 
Q 3245 3533 3245 3245 
Q 3245 2982 3171 2758 
Q 3098 2534 2970 2332 
Q 2842 2131 2659 1939 
Q 2477 1747 2266 1555 
L 1062 474 
L 3411 474 
L 3411 0 
z
" transform="scale(0.015625)"/>
       </defs>
       <use xlink:href="#IBMPlexSans-Regular-2212"/>
       <use xlink:href="#IBMPlexSans-Regular-32" transform="translate(59.999985 0)"/>
      </g>
     </g>
    </g>
    <g id="xtick_43">
     <g id="text_11">
      <!-- 0 -->
      <g style="fill: #838383" transform="translate(111.336237 149.58) scale(0.11 -0.11)">
       <defs>
        <path id="IBMPlexSans-Regular-30" d="M 1920 -77 
Q 1120 -77 752 531 
Q 384 1139 384 2234 
Q 384 3328 752 3936 
Q 1120 4544 1920 4544 
Q 2720 4544 3088 3936 
Q 3456 3328 3456 2234 
Q 3456 1139 3088 531 
Q 2720 -77 1920 -77 
z
M 1920 390 
Q 2182 390 2368 499 
Q 2554 608 2669 806 
Q 2784 1005 2838 1273 
Q 2893 1542 2893 1869 
L 2893 2598 
Q 2893 2925 2838 3193 
Q 2784 3462 2669 3660 
Q 2554 3859 2368 3968 
Q 2182 4077 1920 4077 
Q 1658 4077 1472 3968 
Q 1286 3859 1171 3660 
Q 1056 3462 1001 3193 
Q 947 2925 947 2598 
L 947 1869 
Q 947 1542 1001 1273 
Q 1056 1005 1171 806 
Q 1286 608 1472 499 
Q 1658 390 1920 390 
z
" transform="scale(0.015625)"/>
       </defs>
       <use xlink:href="#IBMPlexSans-Regular-30"/>
      </g>
     </g>
    </g>
    <g id="xtick_44">
     <g id="text_12">
      <!-- 2 -->
      <g style="fill: #838383" transform="translate(157.339494 149.58) scale(0.11 -0.11)">
       <use xlink:href="#IBMPlexSans-Regular-32"/>
      </g>
     </g>
    </g>
    <g id="xtick_45">
     <g id="text_13">
      <!-- 4 -->
      <g style="fill: #838383" transform="translate(203.342751 149.58) scale(0.11 -0.11)">
       <use xlink:href="#IBMPlexSans-Regular-34"/>
      </g>
     </g>
    </g>
    <g id="text_14">
     <!-- sld -->
     <g style="fill: #262626" transform="translate(103.790625 164.66) scale(0.12 -0.12)">
      <defs>
       <path id="IBMPlexSans-Regular-73" d="M 1536 -77 
Q 1075 -77 764 99 
Q 454 275 230 570 
L 595 864 
Q 787 621 1024 489 
Q 1261 358 1574 358 
Q 1901 358 2083 499 
Q 2266 640 2266 896 
Q 2266 1088 2141 1225 
Q 2016 1363 1690 1414 
L 1427 1453 
Q 1197 1485 1005 1552 
Q 813 1619 669 1731 
Q 525 1843 445 2009 
Q 365 2176 365 2406 
Q 365 2650 454 2832 
Q 544 3014 701 3136 
Q 858 3258 1075 3318 
Q 1293 3379 1542 3379 
Q 1946 3379 2218 3238 
Q 2490 3098 2694 2848 
L 2355 2541 
Q 2246 2694 2035 2819 
Q 1824 2944 1504 2944 
Q 1184 2944 1021 2806 
Q 858 2669 858 2432 
Q 858 2189 1021 2080 
Q 1184 1971 1491 1920 
L 1747 1882 
Q 2298 1798 2528 1564 
Q 2758 1331 2758 954 
Q 2758 474 2432 198 
Q 2106 -77 1536 -77 
z
" transform="scale(0.015625)"/>
       <path id="IBMPlexSans-Regular-6c" d="M 1088 0 
Q 819 0 681 150 
Q 544 301 544 531 
L 544 4736 
L 1056 4736 
L 1056 448 
L 1542 448 
L 1542 0 
L 1088 0 
z
" transform="scale(0.015625)"/>
       <path id="IBMPlexSans-Regular-64" d="M 2656 538 
L 2630 538 
Q 2330 -77 1664 -77 
Q 1357 -77 1107 44 
Q 858 166 682 390 
Q 506 614 413 934 
Q 320 1254 320 1651 
Q 320 2048 413 2368 
Q 506 2688 682 2912 
Q 858 3136 1107 3257 
Q 1357 3379 1664 3379 
Q 2010 3379 2256 3228 
Q 2502 3078 2630 2765 
L 2656 2765 
L 2656 4736 
L 3168 4736 
L 3168 0 
L 2656 0 
L 2656 538 
z
M 1805 384 
Q 1978 384 2134 429 
Q 2291 474 2406 560 
Q 2522 646 2589 771 
Q 2656 896 2656 1056 
L 2656 2285 
Q 2656 2419 2589 2537 
Q 2522 2656 2406 2739 
Q 2291 2822 2134 2870 
Q 1978 2918 1805 2918 
Q 1370 2918 1120 2646 
Q 870 2374 870 1933 
L 870 1370 
Q 870 928 1120 656 
Q 1370 384 1805 384 
z
" transform="scale(0.015625)"/>
      </defs>
      <use xlink:href="#IBMPlexSans-Regular-73"/>
      <use xlink:href="#IBMPlexSans-Regular-6c" transform="translate(48.699997 0)"/>
      <use xlink:href="#IBMPlexSans-Regular-64" transform="translate(75.899994 0)"/>
     </g>
    </g>
   </g>
   <g id="matplotlib.axis_18"/>
   <g id="FillBetweenPolyCollection_8">
    <defs>
     <path id="m953f887c3e" d="M 97.193382 -43.57843 
L 97.193382 -42.32 
L 97.350164 -42.32 
L 97.506947 -42.32 
L 97.663729 -42.32 
L 97.820512 -42.32 
L 97.977294 -42.32 
L 98.134077 -42.32 
L 98.29086 -42.32 
L 98.447642 -42.32 
L 98.604425 -42.32 
L 98.761207 -42.32 
L 98.91799 -42.32 
L 99.074772 -42.32 
L 99.231555 -42.32 
L 99.388337 -42.32 
L 99.54512 -42.32 
L 99.701902 -42.32 
L 99.858685 -42.32 
L 100.015467 -42.32 
L 100.17225 -42.32 
L 100.329032 -42.32 
L 100.485815 -42.32 
L 100.642597 -42.32 
L 100.79938 -42.32 
L 100.956162 -42.32 
L 101.112945 -42.32 
L 101.269727 -42.32 
L 101.42651 -42.32 
L 101.583292 -42.32 
L 101.740075 -42.32 
L 101.896857 -42.32 
L 102.05364 -42.32 
L 102.210422 -42.32 
L 102.367205 -42.32 
L 102.523987 -42.32 
L 102.68077 -42.32 
L 102.837552 -42.32 
L 102.994335 -42.32 
L 103.151117 -42.32 
L 103.3079 -42.32 
L 103.464682 -42.32 
L 103.621465 -42.32 
L 103.778247 -42.32 
L 103.93503 -42.32 
L 104.091812 -42.32 
L 104.248595 -42.32 
L 104.405377 -42.32 
L 104.56216 -42.32 
L 104.718943 -42.32 
L 104.875725 -42.32 
L 105.032508 -42.32 
L 105.18929 -42.32 
L 105.346073 -42.32 
L 105.502855 -42.32 
L 105.659638 -42.32 
L 105.81642 -42.32 
L 105.973203 -42.32 
L 106.129985 -42.32 
L 106.286768 -42.32 
L 106.44355 -42.32 
L 106.600333 -42.32 
L 106.757115 -42.32 
L 106.913898 -42.32 
L 107.07068 -42.32 
L 107.227463 -42.32 
L 107.384245 -42.32 
L 107.541028 -42.32 
L 107.69781 -42.32 
L 107.854593 -42.32 
L 108.011375 -42.32 
L 108.168158 -42.32 
L 108.32494 -42.32 
L 108.481723 -42.32 
L 108.638505 -42.32 
L 108.795288 -42.32 
L 108.95207 -42.32 
L 109.108853 -42.32 
L 109.265635 -42.32 
L 109.422418 -42.32 
L 109.5792 -42.32 
L 109.735983 -42.32 
L 109.892765 -42.32 
L 110.049548 -42.32 
L 110.20633 -42.32 
L 110.363113 -42.32 
L 110.519895 -42.32 
L 110.676678 -42.32 
L 110.83346 -42.32 
L 110.990243 -42.32 
L 111.147026 -42.32 
L 111.303808 -42.32 
L 111.460591 -42.32 
L 111.617373 -42.32 
L 111.774156 -42.32 
L 111.930938 -42.32 
L 112.087721 -42.32 
L 112.244503 -42.32 
L 112.401286 -42.32 
L 112.558068 -42.32 
L 112.714851 -42.32 
L 112.871633 -42.32 
L 113.028416 -42.32 
L 113.185198 -42.32 
L 113.341981 -42.32 
L 113.498763 -42.32 
L 113.655546 -42.32 
L 113.812328 -42.32 
L 113.969111 -42.32 
L 114.125893 -42.32 
L 114.282676 -42.32 
L 114.439458 -42.32 
L 114.596241 -42.32 
L 114.753023 -42.32 
L 114.909806 -42.32 
L 115.066588 -42.32 
L 115.223371 -42.32 
L 115.380153 -42.32 
L 115.536936 -42.32 
L 115.693718 -42.32 
L 115.850501 -42.32 
L 116.007283 -42.32 
L 116.164066 -42.32 
L 116.320848 -42.32 
L 116.477631 -42.32 
L 116.634413 -42.32 
L 116.791196 -42.32 
L 116.947978 -42.32 
L 117.104761 -42.32 
L 117.261543 -42.32 
L 117.418326 -42.32 
L 117.575109 -42.32 
L 117.731891 -42.32 
L 117.888674 -42.32 
L 118.045456 -42.32 
L 118.202239 -42.32 
L 118.359021 -42.32 
L 118.515804 -42.32 
L 118.672586 -42.32 
L 118.829369 -42.32 
L 118.986151 -42.32 
L 119.142934 -42.32 
L 119.299716 -42.32 
L 119.456499 -42.32 
L 119.613281 -42.32 
L 119.770064 -42.32 
L 119.926846 -42.32 
L 120.083629 -42.32 
L 120.240411 -42.32 
L 120.397194 -42.32 
L 120.553976 -42.32 
L 120.710759 -42.32 
L 120.867541 -42.32 
L 121.024324 -42.32 
L 121.181106 -42.32 
L 121.337889 -42.32 
L 121.494671 -42.32 
L 121.651454 -42.32 
L 121.808236 -42.32 
L 121.965019 -42.32 
L 122.121801 -42.32 
L 122.278584 -42.32 
L 122.435366 -42.32 
L 122.592149 -42.32 
L 122.748931 -42.32 
L 122.905714 -42.32 
L 123.062496 -42.32 
L 123.219279 -42.32 
L 123.376061 -42.32 
L 123.532844 -42.32 
L 123.689626 -42.32 
L 123.846409 -42.32 
L 124.003192 -42.32 
L 124.159974 -42.32 
L 124.316757 -42.32 
L 124.473539 -42.32 
L 124.630322 -42.32 
L 124.787104 -42.32 
L 124.943887 -42.32 
L 125.100669 -42.32 
L 125.257452 -42.32 
L 125.414234 -42.32 
L 125.571017 -42.32 
L 125.727799 -42.32 
L 125.884582 -42.32 
L 126.041364 -42.32 
L 126.198147 -42.32 
L 126.354929 -42.32 
L 126.511712 -42.32 
L 126.668494 -42.32 
L 126.825277 -42.32 
L 126.982059 -42.32 
L 127.138842 -42.32 
L 127.295624 -42.32 
L 127.452407 -42.32 
L 127.609189 -42.32 
L 127.765972 -42.32 
L 127.922754 -42.32 
L 128.079537 -42.32 
L 128.236319 -42.32 
L 128.393102 -42.32 
L 128.393102 -42.856059 
L 128.393102 -42.856059 
L 128.236319 -42.920151 
L 128.079537 -42.989498 
L 127.922754 -43.064412 
L 127.765972 -43.145254 
L 127.609189 -43.232443 
L 127.452407 -43.32647 
L 127.295624 -43.427896 
L 127.138842 -43.53736 
L 126.982059 -43.655581 
L 126.825277 -43.783349 
L 126.668494 -43.921521 
L 126.511712 -44.071013 
L 126.354929 -44.232781 
L 126.198147 -44.407809 
L 126.041364 -44.597084 
L 125.884582 -44.801581 
L 125.727799 -45.022236 
L 125.571017 -45.259927 
L 125.414234 -45.515453 
L 125.257452 -45.789512 
L 125.100669 -46.082689 
L 124.943887 -46.395442 
L 124.787104 -46.72809 
L 124.630322 -47.080811 
L 124.473539 -47.453639 
L 124.316757 -47.846466 
L 124.159974 -48.259051 
L 124.003192 -48.691027 
L 123.846409 -49.141912 
L 123.689626 -49.611129 
L 123.532844 -50.098016 
L 123.376061 -50.601851 
L 123.219279 -51.121865 
L 123.062496 -51.657266 
L 122.905714 -52.207259 
L 122.748931 -52.771064 
L 122.592149 -53.347944 
L 122.435366 -53.937215 
L 122.278584 -54.538278 
L 122.121801 -55.150626 
L 121.965019 -55.773868 
L 121.808236 -56.407737 
L 121.651454 -57.052103 
L 121.494671 -57.706976 
L 121.337889 -58.372501 
L 121.181106 -59.048953 
L 121.024324 -59.73672 
L 120.867541 -60.436273 
L 120.710759 -61.148138 
L 120.553976 -61.872847 
L 120.397194 -62.610892 
L 120.240411 -63.362664 
L 120.083629 -64.128393 
L 119.926846 -64.908081 
L 119.770064 -65.701439 
L 119.613281 -66.507822 
L 119.456499 -67.32618 
L 119.299716 -68.155004 
L 119.142934 -68.992299 
L 118.986151 -69.835569 
L 118.829369 -70.68181 
L 118.672586 -71.52754 
L 118.515804 -72.368831 
L 118.359021 -73.20137 
L 118.202239 -74.02054 
L 118.045456 -74.821503 
L 117.888674 -75.599312 
L 117.731891 -76.349014 
L 117.575109 -77.065768 
L 117.418326 -77.744952 
L 117.261543 -78.382271 
L 117.104761 -78.973848 
L 116.947978 -79.516301 
L 116.791196 -80.006805 
L 116.634413 -80.443131 
L 116.477631 -80.823667 
L 116.320848 -81.147424 
L 116.164066 -81.414011 
L 116.007283 -81.623613 
L 115.850501 -81.776945 
L 115.693718 -81.8752 
L 115.536936 -81.92 
L 115.380153 -81.913337 
L 115.223371 -81.857522 
L 115.066588 -81.755141 
L 114.909806 -81.609008 
L 114.753023 -81.422137 
L 114.596241 -81.197703 
L 114.439458 -80.939024 
L 114.282676 -80.649531 
L 114.125893 -80.332742 
L 113.969111 -79.992233 
L 113.812328 -79.631598 
L 113.655546 -79.254406 
L 113.498763 -78.864144 
L 113.341981 -78.464152 
L 113.185198 -78.057552 
L 113.028416 -77.64717 
L 112.871633 -77.23545 
L 112.714851 -76.824384 
L 112.558068 -76.415432 
L 112.401286 -76.009466 
L 112.244503 -75.606727 
L 112.087721 -75.206802 
L 111.930938 -74.808622 
L 111.774156 -74.410497 
L 111.617373 -74.010165 
L 111.460591 -73.604875 
L 111.303808 -73.191492 
L 111.147026 -72.766621 
L 110.990243 -72.326746 
L 110.83346 -71.868372 
L 110.676678 -71.388183 
L 110.519895 -70.883175 
L 110.363113 -70.350794 
L 110.20633 -69.789051 
L 110.049548 -69.196607 
L 109.892765 -68.572845 
L 109.735983 -67.917901 
L 109.5792 -67.232673 
L 109.422418 -66.518801 
L 109.265635 -65.778615 
L 109.108853 -65.015062 
L 108.95207 -64.231619 
L 108.795288 -63.432182 
L 108.638505 -62.620953 
L 108.481723 -61.80232 
L 108.32494 -60.980738 
L 108.168158 -60.16062 
L 108.011375 -59.346227 
L 107.854593 -58.541584 
L 107.69781 -57.750402 
L 107.541028 -56.976018 
L 107.384245 -56.221355 
L 107.227463 -55.488896 
L 107.07068 -54.780678 
L 106.913898 -54.098294 
L 106.757115 -53.442916 
L 106.600333 -52.815326 
L 106.44355 -52.215956 
L 106.286768 -51.644932 
L 106.129985 -51.102129 
L 105.973203 -50.587226 
L 105.81642 -50.099754 
L 105.659638 -49.639154 
L 105.502855 -49.204824 
L 105.346073 -48.796157 
L 105.18929 -48.412585 
L 105.032508 -48.053601 
L 104.875725 -47.718779 
L 104.718943 -47.407788 
L 104.56216 -47.120386 
L 104.405377 -46.856418 
L 104.248595 -46.615796 
L 104.091812 -46.398474 
L 103.93503 -46.204417 
L 103.778247 -46.033569 
L 103.621465 -45.88581 
L 103.464682 -45.760922 
L 103.3079 -45.658546 
L 103.151117 -45.578149 
L 102.994335 -45.518993 
L 102.837552 -45.480112 
L 102.68077 -45.460291 
L 102.523987 -45.458065 
L 102.367205 -45.471712 
L 102.210422 -45.49927 
L 102.05364 -45.538555 
L 101.896857 -45.587191 
L 101.740075 -45.642647 
L 101.583292 -45.702284 
L 101.42651 -45.763406 
L 101.269727 -45.823313 
L 101.112945 -45.87936 
L 100.956162 -45.929016 
L 100.79938 -45.969918 
L 100.642597 -45.99993 
L 100.485815 -46.017185 
L 100.329032 -46.020127 
L 100.17225 -46.00755 
L 100.015467 -45.978615 
L 99.858685 -45.932867 
L 99.701902 -45.870236 
L 99.54512 -45.79103 
L 99.388337 -45.695919 
L 99.231555 -45.585902 
L 99.074772 -45.462276 
L 98.91799 -45.326588 
L 98.761207 -45.180588 
L 98.604425 -45.026178 
L 98.447642 -44.865353 
L 98.29086 -44.70015 
L 98.134077 -44.532592 
L 97.977294 -44.364644 
L 97.820512 -44.198163 
L 97.663729 -44.034862 
L 97.506947 -43.876281 
L 97.350164 -43.723761 
L 97.193382 -43.57843 
z
" style="stroke: #44bf70; stroke-width: 1.25"/>
    </defs>
    <g>
     <use xlink:href="#m953f887c3e" x="0" y="174.26" style="fill: #44bf70; fill-opacity: 0.7; stroke: #44bf70; stroke-width: 1.25"/>
    </g>
   </g>
   <g id="line2d_9">
    <path d="M 7.2 131.94 
L 216.45 131.94 
" style="fill: none; stroke: #44bf70; stroke-opacity: 0.9; stroke-linecap: round"/>
   </g>
   <g id="text_15">
    <!-- 8 -->
    <g style="fill: #44bf70" transform="translate(7.2 131.022) scale(0.12 -0.12)">
     <defs>
      <path id="IBMPlexSans-Bold-38" d="M 1920 -77 
Q 1523 -77 1212 22 
Q 902 122 691 294 
Q 480 467 368 704 
Q 256 941 256 1222 
Q 256 1651 493 1923 
Q 730 2195 1133 2304 
L 1133 2355 
Q 806 2477 598 2726 
Q 390 2976 390 3366 
Q 390 3622 489 3840 
Q 589 4058 784 4214 
Q 979 4371 1264 4457 
Q 1549 4544 1920 4544 
Q 2291 4544 2576 4457 
Q 2861 4371 3056 4214 
Q 3251 4058 3350 3840 
Q 3450 3622 3450 3366 
Q 3450 2976 3242 2726 
Q 3034 2477 2707 2355 
L 2707 2304 
Q 3110 2195 3347 1923 
Q 3584 1651 3584 1222 
Q 3584 941 3472 704 
Q 3360 467 3149 294 
Q 2938 122 2627 22 
Q 2317 -77 1920 -77 
z
M 1920 659 
Q 2240 659 2409 809 
Q 2579 960 2579 1229 
L 2579 1357 
Q 2579 1626 2409 1776 
Q 2240 1926 1920 1926 
Q 1600 1926 1430 1776 
Q 1261 1626 1261 1357 
L 1261 1229 
Q 1261 960 1430 809 
Q 1600 659 1920 659 
z
M 1920 2630 
Q 2227 2630 2387 2774 
Q 2547 2918 2547 3168 
L 2547 3270 
Q 2547 3520 2387 3664 
Q 2227 3808 1920 3808 
Q 1613 3808 1453 3664 
Q 1293 3520 1293 3270 
L 1293 3168 
Q 1293 2918 1453 2774 
Q 1613 2630 1920 2630 
z
" transform="scale(0.015625)"/>
     </defs>
     <use xlink:href="#IBMPlexSans-Bold-38"/>
    </g>
   </g>
  </g>
 </g>
</svg>
