<?xml version="1.0" encoding="utf-8" standalone="no"?>
<!DOCTYPE svg PUBLIC "-//W3C//DTD SVG 1.1//EN"
  "http://www.w3.org/Graphics/SVG/1.1/DTD/svg11.dtd">
<svg xmlns:xlink="http://www.w3.org/1999/xlink" width="223.65pt" height="174.26pt" viewBox="0 0 223.65 174.26" xmlns="http://www.w3.org/2000/svg" version="1.1">
 <metadata>
  <rdf:RDF xmlns:dc="http://purl.org/dc/elements/1.1/" xmlns:cc="http://creativecommons.org/ns#" xmlns:rdf="http://www.w3.org/1999/02/22-rdf-syntax-ns#">
   <cc:Work>
    <dc:type rdf:resource="http://purl.org/dc/dcmitype/StillImage"/>
    <dc:date>2025-07-24T14:18:57.523222</dc:date>
    <dc:format>image/svg+xml</dc:format>
    <dc:creator>
     <cc:Agent>
      <dc:title>Matplotlib v3.10.1, https://matplotlib.org/</dc:title>
     </cc:Agent>
    </dc:creator>
   </cc:Work>
  </rdf:RDF>
 </metadata>
 <defs>
  <style type="text/css">*{stroke-linejoin: round; stroke-linecap: butt}</style>
 </defs>
 <g id="figure_1">
  <g id="patch_1">
   <path d="M 0 174.26 
L 223.65 174.26 
L 223.65 0 
L 0 0 
L 0 174.26 
z
" style="fill: none"/>
  </g>
  <g id="axes_1">
   <g id="patch_2">
    <path d="M 7.2 48.78 
L 216.45 48.78 
L 216.45 7.2 
L 7.2 7.2 
L 7.2 48.78 
z
" style="fill: none"/>
   </g>
   <g id="matplotlib.axis_1">
    <g id="xtick_1"/>
    <g id="xtick_2"/>
    <g id="xtick_3"/>
   </g>
   <g id="matplotlib.axis_2"/>
   <g id="line2d_1">
    <path d="M 7.2 48.78 
L 216.45 48.78 
" style="fill: none; stroke: #bddf26; stroke-opacity: 0.9; stroke-linecap: round"/>
   </g>
   <g id="text_1">
    <!-- 0 -->
    <g style="fill: #bddf26" transform="translate(7.2 47.862) scale(0.12 -0.12)">
     <defs>
      <path id="IBMPlexSans-Bold-30" d="M 1920 -77 
Q 1043 -77 620 531 
Q 198 1139 198 2234 
Q 198 3328 620 3936 
Q 1043 4544 1920 4544 
Q 2797 4544 3219 3936 
Q 3642 3328 3642 2234 
Q 3642 1139 3219 531 
Q 2797 -77 1920 -77 
z
M 1920 736 
Q 2304 736 2451 1017 
Q 2598 1299 2598 1811 
L 2598 2656 
Q 2598 3168 2451 3449 
Q 2304 3731 1920 3731 
Q 1536 3731 1389 3449 
Q 1242 3168 1242 2656 
L 1242 1811 
Q 1242 1299 1389 1017 
Q 1536 736 1920 736 
z
" transform="scale(0.015625)"/>
     </defs>
     <use xlink:href="#IBMPlexSans-Bold-30"/>
    </g>
   </g>
  </g>
  <g id="axes_2">
   <g id="patch_3">
    <path d="M 7.2 59.175 
L 216.45 59.175 
L 216.45 17.595 
L 7.2 17.595 
L 7.2 59.175 
z
" style="fill: none"/>
   </g>
   <g id="matplotlib.axis_3">
    <g id="xtick_4"/>
    <g id="xtick_5"/>
    <g id="xtick_6"/>
   </g>
   <g id="matplotlib.axis_4"/>
   <g id="FillBetweenPolyCollection_1">
    <defs>
     <path id="m4b85a7b3d5" d="M 91.986582 -119.975781 
L 91.986582 -115.085 
L 92.205343 -115.085 
L 92.424105 -115.085 
L 92.642866 -115.085 
L 92.861628 -115.085 
L 93.080389 -115.085 
L 93.299151 -115.085 
L 93.517913 -115.085 
L 93.736674 -115.085 
L 93.955436 -115.085 
L 94.174197 -115.085 
L 94.392959 -115.085 
L 94.61172 -115.085 
L 94.830482 -115.085 
L 95.049243 -115.085 
L 95.268005 -115.085 
L 95.486766 -115.085 
L 95.705528 -115.085 
L 95.924289 -115.085 
L 96.143051 -115.085 
L 96.361813 -115.085 
L 96.580574 -115.085 
L 96.799336 -115.085 
L 97.018097 -115.085 
L 97.236859 -115.085 
L 97.45562 -115.085 
L 97.674382 -115.085 
L 97.893143 -115.085 
L 98.111905 -115.085 
L 98.330666 -115.085 
L 98.549428 -115.085 
L 98.76819 -115.085 
L 98.986951 -115.085 
L 99.205713 -115.085 
L 99.424474 -115.085 
L 99.643236 -115.085 
L 99.861997 -115.085 
L 100.080759 -115.085 
L 100.29952 -115.085 
L 100.518282 -115.085 
L 100.737043 -115.085 
L 100.955805 -115.085 
L 101.174566 -115.085 
L 101.393328 -115.085 
L 101.61209 -115.085 
L 101.830851 -115.085 
L 102.049613 -115.085 
L 102.268374 -115.085 
L 102.487136 -115.085 
L 102.705897 -115.085 
L 102.924659 -115.085 
L 103.14342 -115.085 
L 103.362182 -115.085 
L 103.580943 -115.085 
L 103.799705 -115.085 
L 104.018467 -115.085 
L 104.237228 -115.085 
L 104.45599 -115.085 
L 104.674751 -115.085 
L 104.893513 -115.085 
L 105.112274 -115.085 
L 105.331036 -115.085 
L 105.549797 -115.085 
L 105.768559 -115.085 
L 105.98732 -115.085 
L 106.206082 -115.085 
L 106.424844 -115.085 
L 106.643605 -115.085 
L 106.862367 -115.085 
L 107.081128 -115.085 
L 107.29989 -115.085 
L 107.518651 -115.085 
L 107.737413 -115.085 
L 107.956174 -115.085 
L 108.174936 -115.085 
L 108.393697 -115.085 
L 108.612459 -115.085 
L 108.83122 -115.085 
L 109.049982 -115.085 
L 109.268744 -115.085 
L 109.487505 -115.085 
L 109.706267 -115.085 
L 109.925028 -115.085 
L 110.14379 -115.085 
L 110.362551 -115.085 
L 110.581313 -115.085 
L 110.800074 -115.085 
L 111.018836 -115.085 
L 111.237597 -115.085 
L 111.456359 -115.085 
L 111.675121 -115.085 
L 111.893882 -115.085 
L 112.112644 -115.085 
L 112.331405 -115.085 
L 112.550167 -115.085 
L 112.768928 -115.085 
L 112.98769 -115.085 
L 113.206451 -115.085 
L 113.425213 -115.085 
L 113.643974 -115.085 
L 113.862736 -115.085 
L 114.081497 -115.085 
L 114.300259 -115.085 
L 114.519021 -115.085 
L 114.737782 -115.085 
L 114.956544 -115.085 
L 115.175305 -115.085 
L 115.394067 -115.085 
L 115.612828 -115.085 
L 115.83159 -115.085 
L 116.050351 -115.085 
L 116.269113 -115.085 
L 116.487874 -115.085 
L 116.706636 -115.085 
L 116.925398 -115.085 
L 117.144159 -115.085 
L 117.362921 -115.085 
L 117.581682 -115.085 
L 117.800444 -115.085 
L 118.019205 -115.085 
L 118.237967 -115.085 
L 118.456728 -115.085 
L 118.67549 -115.085 
L 118.894251 -115.085 
L 119.113013 -115.085 
L 119.331774 -115.085 
L 119.550536 -115.085 
L 119.769298 -115.085 
L 119.988059 -115.085 
L 120.206821 -115.085 
L 120.425582 -115.085 
L 120.644344 -115.085 
L 120.863105 -115.085 
L 121.081867 -115.085 
L 121.300628 -115.085 
L 121.51939 -115.085 
L 121.738151 -115.085 
L 121.956913 -115.085 
L 122.175675 -115.085 
L 122.394436 -115.085 
L 122.613198 -115.085 
L 122.831959 -115.085 
L 123.050721 -115.085 
L 123.269482 -115.085 
L 123.488244 -115.085 
L 123.707005 -115.085 
L 123.925767 -115.085 
L 124.144528 -115.085 
L 124.36329 -115.085 
L 124.582051 -115.085 
L 124.800813 -115.085 
L 125.019575 -115.085 
L 125.238336 -115.085 
L 125.457098 -115.085 
L 125.675859 -115.085 
L 125.894621 -115.085 
L 126.113382 -115.085 
L 126.332144 -115.085 
L 126.550905 -115.085 
L 126.769667 -115.085 
L 126.988428 -115.085 
L 127.20719 -115.085 
L 127.425952 -115.085 
L 127.644713 -115.085 
L 127.863475 -115.085 
L 128.082236 -115.085 
L 128.300998 -115.085 
L 128.519759 -115.085 
L 128.738521 -115.085 
L 128.957282 -115.085 
L 129.176044 -115.085 
L 129.394805 -115.085 
L 129.613567 -115.085 
L 129.832328 -115.085 
L 130.05109 -115.085 
L 130.269852 -115.085 
L 130.488613 -115.085 
L 130.707375 -115.085 
L 130.926136 -115.085 
L 131.144898 -115.085 
L 131.363659 -115.085 
L 131.582421 -115.085 
L 131.801182 -115.085 
L 132.019944 -115.085 
L 132.238705 -115.085 
L 132.457467 -115.085 
L 132.676229 -115.085 
L 132.89499 -115.085 
L 133.113752 -115.085 
L 133.332513 -115.085 
L 133.551275 -115.085 
L 133.770036 -115.085 
L 133.988798 -115.085 
L 134.207559 -115.085 
L 134.426321 -115.085 
L 134.645082 -115.085 
L 134.863844 -115.085 
L 135.082605 -115.085 
L 135.301367 -115.085 
L 135.520129 -115.085 
L 135.520129 -120.439371 
L 135.520129 -120.439371 
L 135.301367 -120.982643 
L 135.082605 -121.554107 
L 134.863844 -122.151776 
L 134.645082 -122.773231 
L 134.426321 -123.415632 
L 134.207559 -124.075754 
L 133.988798 -124.75002 
L 133.770036 -125.434554 
L 133.551275 -126.125242 
L 133.332513 -126.817797 
L 133.113752 -127.50783 
L 132.89499 -128.190934 
L 132.676229 -128.862758 
L 132.457467 -129.519085 
L 132.238705 -130.15591 
L 132.019944 -130.769506 
L 131.801182 -131.356483 
L 131.582421 -131.913842 
L 131.363659 -132.439005 
L 131.144898 -132.929846 
L 130.926136 -133.384692 
L 130.707375 -133.80232 
L 130.488613 -134.18194 
L 130.269852 -134.523153 
L 130.05109 -134.825914 
L 129.832328 -135.090469 
L 129.613567 -135.317302 
L 129.394805 -135.50706 
L 129.176044 -135.660491 
L 128.957282 -135.778383 
L 128.738521 -135.861496 
L 128.519759 -135.910519 
L 128.300998 -135.926025 
L 128.082236 -135.908446 
L 127.863475 -135.858059 
L 127.644713 -135.774985 
L 127.425952 -135.659206 
L 127.20719 -135.510597 
L 126.988428 -135.328966 
L 126.769667 -135.114109 
L 126.550905 -134.865875 
L 126.332144 -134.58423 
L 126.113382 -134.269335 
L 125.894621 -133.921614 
L 125.675859 -133.54182 
L 125.457098 -133.131104 
L 125.238336 -132.691064 
L 125.019575 -132.223789 
L 124.800813 -131.731886 
L 124.582051 -131.218502 
L 124.36329 -130.687316 
L 124.144528 -130.142529 
L 123.925767 -129.588836 
L 123.707005 -129.031378 
L 123.488244 -128.475688 
L 123.269482 -127.927623 
L 123.050721 -127.393289 
L 122.831959 -126.878954 
L 122.613198 -126.390961 
L 122.394436 -125.935638 
L 122.175675 -125.519201 
L 121.956913 -125.147665 
L 121.738151 -124.826755 
L 121.51939 -124.561821 
L 121.300628 -124.35776 
L 121.081867 -124.218945 
L 120.863105 -124.149156 
L 120.644344 -124.151529 
L 120.425582 -124.228508 
L 120.206821 -124.381803 
L 119.988059 -124.612368 
L 119.769298 -124.920374 
L 119.550536 -125.305208 
L 119.331774 -125.765469 
L 119.113013 -126.298978 
L 118.894251 -126.902803 
L 118.67549 -127.573286 
L 118.456728 -128.306086 
L 118.237967 -129.096227 
L 118.019205 -129.93816 
L 117.800444 -130.825831 
L 117.581682 -131.752755 
L 117.362921 -132.712105 
L 117.144159 -133.696799 
L 116.925398 -134.699598 
L 116.706636 -135.713204 
L 116.487874 -136.730364 
L 116.269113 -137.74397 
L 116.050351 -138.747161 
L 115.83159 -139.73342 
L 115.612828 -140.696663 
L 115.394067 -141.63133 
L 115.175305 -142.53245 
L 114.956544 -143.395716 
L 114.737782 -144.217527 
L 114.519021 -144.995033 
L 114.300259 -145.726154 
L 114.081497 -146.409592 
L 113.862736 -147.044823 
L 113.643974 -147.632072 
L 113.425213 -148.172282 
L 113.206451 -148.667061 
L 112.98769 -149.118618 
L 112.768928 -149.529691 
L 112.550167 -149.90346 
L 112.331405 -150.24346 
L 112.112644 -150.553477 
L 111.893882 -150.83745 
L 111.675121 -151.099365 
L 111.456359 -151.343154 
L 111.237597 -151.572589 
L 111.018836 -151.791183 
L 110.800074 -152.002105 
L 110.581313 -152.208084 
L 110.362551 -152.411341 
L 110.14379 -152.613521 
L 109.925028 -152.815637 
L 109.706267 -153.018031 
L 109.487505 -153.220345 
L 109.268744 -153.421513 
L 109.049982 -153.61976 
L 108.83122 -153.812626 
L 108.612459 -153.996997 
L 108.393697 -154.169164 
L 108.174936 -154.324884 
L 107.956174 -154.459471 
L 107.737413 -154.567888 
L 107.518651 -154.64486 
L 107.29989 -154.685 
L 107.081128 -154.682932 
L 106.862367 -154.633433 
L 106.643605 -154.531573 
L 106.424844 -154.37285 
L 106.206082 -154.153332 
L 105.98732 -153.869782 
L 105.768559 -153.519776 
L 105.549797 -153.101807 
L 105.331036 -152.615369 
L 105.112274 -152.061021 
L 104.893513 -151.440427 
L 104.674751 -150.75637 
L 104.45599 -150.012736 
L 104.237228 -149.21448 
L 104.018467 -148.36755 
L 103.799705 -147.478793 
L 103.580943 -146.55584 
L 103.362182 -145.606955 
L 103.14342 -144.64088 
L 102.924659 -143.666655 
L 102.705897 -142.693434 
L 102.487136 -141.730288 
L 102.268374 -140.786016 
L 102.049613 -139.868956 
L 101.830851 -138.986805 
L 101.61209 -138.146459 
L 101.393328 -137.353862 
L 101.174566 -136.613894 
L 100.955805 -135.930267 
L 100.737043 -135.305465 
L 100.518282 -134.740705 
L 100.29952 -134.235931 
L 100.080759 -133.789846 
L 99.861997 -133.39996 
L 99.643236 -133.06268 
L 99.424474 -132.77342 
L 99.205713 -132.526726 
L 98.986951 -132.316435 
L 98.76819 -132.135833 
L 98.549428 -131.977827 
L 98.330666 -131.83513 
L 98.111905 -131.70043 
L 97.893143 -131.566569 
L 97.674382 -131.426701 
L 97.45562 -131.274445 
L 97.236859 -131.104018 
L 97.018097 -130.910344 
L 96.799336 -130.68915 
L 96.580574 -130.437031 
L 96.361813 -130.151493 
L 96.143051 -129.83097 
L 95.924289 -129.474822 
L 95.705528 -129.083305 
L 95.486766 -128.657521 
L 95.268005 -128.199355 
L 95.049243 -127.711388 
L 94.830482 -127.196804 
L 94.61172 -126.659288 
L 94.392959 -126.102913 
L 94.174197 -125.532029 
L 93.955436 -124.951153 
L 93.736674 -124.364856 
L 93.517913 -123.777668 
L 93.299151 -123.193982 
L 93.080389 -122.617969 
L 92.861628 -122.053512 
L 92.642866 -121.504141 
L 92.424105 -120.972995 
L 92.205343 -120.462786 
L 91.986582 -119.975781 
z
" style="stroke: #44bf70; stroke-width: 1.25"/>
    </defs>
    <g>
     <use xlink:href="#m4b85a7b3d5" x="0" y="174.26" style="fill: #44bf70; fill-opacity: 0.7; stroke: #44bf70; stroke-width: 1.25"/>
    </g>
   </g>
   <g id="line2d_2">
    <path d="M 7.2 59.175 
L 216.45 59.175 
" style="fill: none; stroke: #44bf70; stroke-opacity: 0.9; stroke-linecap: round"/>
   </g>
   <g id="text_2">
    <!-- 1 -->
    <g style="fill: #44bf70" transform="translate(7.2 58.257) scale(0.12 -0.12)">
     <defs>
      <path id="IBMPlexSans-Bold-31" d="M 602 0 
L 602 774 
L 1805 774 
L 1805 3770 
L 1747 3770 
L 838 2579 
L 224 3059 
L 1293 4467 
L 2765 4467 
L 2765 774 
L 3712 774 
L 3712 0 
L 602 0 
z
" transform="scale(0.015625)"/>
     </defs>
     <use xlink:href="#IBMPlexSans-Bold-31"/>
    </g>
   </g>
  </g>
  <g id="axes_3">
   <g id="patch_4">
    <path d="M 7.2 69.57 
L 216.45 69.57 
L 216.45 27.99 
L 7.2 27.99 
L 7.2 69.57 
z
" style="fill: none"/>
   </g>
   <g id="matplotlib.axis_5">
    <g id="xtick_7"/>
    <g id="xtick_8"/>
    <g id="xtick_9"/>
   </g>
   <g id="matplotlib.axis_6"/>
   <g id="FillBetweenPolyCollection_2">
    <defs>
     <path id="m4a90b981b1" d="M 66.590042 -106.382439 
L 66.590042 -104.69 
L 67.042 -104.69 
L 67.493957 -104.69 
L 67.945914 -104.69 
L 68.397872 -104.69 
L 68.849829 -104.69 
L 69.301786 -104.69 
L 69.753743 -104.69 
L 70.205701 -104.69 
L 70.657658 -104.69 
L 71.109615 -104.69 
L 71.561572 -104.69 
L 72.01353 -104.69 
L 72.465487 -104.69 
L 72.917444 -104.69 
L 73.369402 -104.69 
L 73.821359 -104.69 
L 74.273316 -104.69 
L 74.725273 -104.69 
L 75.177231 -104.69 
L 75.629188 -104.69 
L 76.081145 -104.69 
L 76.533102 -104.69 
L 76.98506 -104.69 
L 77.437017 -104.69 
L 77.888974 -104.69 
L 78.340932 -104.69 
L 78.792889 -104.69 
L 79.244846 -104.69 
L 79.696803 -104.69 
L 80.148761 -104.69 
L 80.600718 -104.69 
L 81.052675 -104.69 
L 81.504632 -104.69 
L 81.95659 -104.69 
L 82.408547 -104.69 
L 82.860504 -104.69 
L 83.312462 -104.69 
L 83.764419 -104.69 
L 84.216376 -104.69 
L 84.668333 -104.69 
L 85.120291 -104.69 
L 85.572248 -104.69 
L 86.024205 -104.69 
L 86.476162 -104.69 
L 86.92812 -104.69 
L 87.380077 -104.69 
L 87.832034 -104.69 
L 88.283992 -104.69 
L 88.735949 -104.69 
L 89.187906 -104.69 
L 89.639863 -104.69 
L 90.091821 -104.69 
L 90.543778 -104.69 
L 90.995735 -104.69 
L 91.447692 -104.69 
L 91.89965 -104.69 
L 92.351607 -104.69 
L 92.803564 -104.69 
L 93.255522 -104.69 
L 93.707479 -104.69 
L 94.159436 -104.69 
L 94.611393 -104.69 
L 95.063351 -104.69 
L 95.515308 -104.69 
L 95.967265 -104.69 
L 96.419222 -104.69 
L 96.87118 -104.69 
L 97.323137 -104.69 
L 97.775094 -104.69 
L 98.227052 -104.69 
L 98.679009 -104.69 
L 99.130966 -104.69 
L 99.582923 -104.69 
L 100.034881 -104.69 
L 100.486838 -104.69 
L 100.938795 -104.69 
L 101.390752 -104.69 
L 101.84271 -104.69 
L 102.294667 -104.69 
L 102.746624 -104.69 
L 103.198582 -104.69 
L 103.650539 -104.69 
L 104.102496 -104.69 
L 104.554453 -104.69 
L 105.006411 -104.69 
L 105.458368 -104.69 
L 105.910325 -104.69 
L 106.362282 -104.69 
L 106.81424 -104.69 
L 107.266197 -104.69 
L 107.718154 -104.69 
L 108.170112 -104.69 
L 108.622069 -104.69 
L 109.074026 -104.69 
L 109.525983 -104.69 
L 109.977941 -104.69 
L 110.429898 -104.69 
L 110.881855 -104.69 
L 111.333812 -104.69 
L 111.78577 -104.69 
L 112.237727 -104.69 
L 112.689684 -104.69 
L 113.141642 -104.69 
L 113.593599 -104.69 
L 114.045556 -104.69 
L 114.497513 -104.69 
L 114.949471 -104.69 
L 115.401428 -104.69 
L 115.853385 -104.69 
L 116.305342 -104.69 
L 116.7573 -104.69 
L 117.209257 -104.69 
L 117.661214 -104.69 
L 118.113172 -104.69 
L 118.565129 -104.69 
L 119.017086 -104.69 
L 119.469043 -104.69 
L 119.921001 -104.69 
L 120.372958 -104.69 
L 120.824915 -104.69 
L 121.276872 -104.69 
L 121.72883 -104.69 
L 122.180787 -104.69 
L 122.632744 -104.69 
L 123.084702 -104.69 
L 123.536659 -104.69 
L 123.988616 -104.69 
L 124.440573 -104.69 
L 124.892531 -104.69 
L 125.344488 -104.69 
L 125.796445 -104.69 
L 126.248402 -104.69 
L 126.70036 -104.69 
L 127.152317 -104.69 
L 127.604274 -104.69 
L 128.056232 -104.69 
L 128.508189 -104.69 
L 128.960146 -104.69 
L 129.412103 -104.69 
L 129.864061 -104.69 
L 130.316018 -104.69 
L 130.767975 -104.69 
L 131.219932 -104.69 
L 131.67189 -104.69 
L 132.123847 -104.69 
L 132.575804 -104.69 
L 133.027762 -104.69 
L 133.479719 -104.69 
L 133.931676 -104.69 
L 134.383633 -104.69 
L 134.835591 -104.69 
L 135.287548 -104.69 
L 135.739505 -104.69 
L 136.191462 -104.69 
L 136.64342 -104.69 
L 137.095377 -104.69 
L 137.547334 -104.69 
L 137.999292 -104.69 
L 138.451249 -104.69 
L 138.903206 -104.69 
L 139.355163 -104.69 
L 139.807121 -104.69 
L 140.259078 -104.69 
L 140.711035 -104.69 
L 141.162992 -104.69 
L 141.61495 -104.69 
L 142.066907 -104.69 
L 142.518864 -104.69 
L 142.970822 -104.69 
L 143.422779 -104.69 
L 143.874736 -104.69 
L 144.326693 -104.69 
L 144.778651 -104.69 
L 145.230608 -104.69 
L 145.682565 -104.69 
L 146.134522 -104.69 
L 146.58648 -104.69 
L 147.038437 -104.69 
L 147.490394 -104.69 
L 147.942352 -104.69 
L 148.394309 -104.69 
L 148.846266 -104.69 
L 149.298223 -104.69 
L 149.750181 -104.69 
L 150.202138 -104.69 
L 150.654095 -104.69 
L 151.106052 -104.69 
L 151.55801 -104.69 
L 152.009967 -104.69 
L 152.461924 -104.69 
L 152.913882 -104.69 
L 153.365839 -104.69 
L 153.817796 -104.69 
L 154.269753 -104.69 
L 154.721711 -104.69 
L 155.173668 -104.69 
L 155.625625 -104.69 
L 156.077582 -104.69 
L 156.52954 -104.69 
L 156.52954 -106.582142 
L 156.52954 -106.582142 
L 156.077582 -106.799599 
L 155.625625 -107.031868 
L 155.173668 -107.278526 
L 154.721711 -107.538934 
L 154.269753 -107.812231 
L 153.817796 -108.097339 
L 153.365839 -108.392962 
L 152.913882 -108.697602 
L 152.461924 -109.009573 
L 152.009967 -109.327022 
L 151.55801 -109.647962 
L 151.106052 -109.970299 
L 150.654095 -110.291872 
L 150.202138 -110.610493 
L 149.750181 -110.923987 
L 149.298223 -111.230238 
L 148.846266 -111.527229 
L 148.394309 -111.813081 
L 147.942352 -112.086096 
L 147.490394 -112.344779 
L 147.038437 -112.587876 
L 146.58648 -112.814383 
L 146.134522 -113.023563 
L 145.682565 -113.214946 
L 145.230608 -113.388327 
L 144.778651 -113.543748 
L 144.326693 -113.681481 
L 143.874736 -113.801994 
L 143.422779 -113.905918 
L 142.970822 -113.99401 
L 142.518864 -114.067106 
L 142.066907 -114.12608 
L 141.61495 -114.1718 
L 141.162992 -114.205086 
L 140.711035 -114.226674 
L 140.259078 -114.237181 
L 139.807121 -114.237086 
L 139.355163 -114.226709 
L 138.903206 -114.206204 
L 138.451249 -114.175563 
L 137.999292 -114.134621 
L 137.547334 -114.083083 
L 137.095377 -114.020545 
L 136.64342 -113.94653 
L 136.191462 -113.860533 
L 135.739505 -113.762059 
L 135.287548 -113.65067 
L 134.835591 -113.526038 
L 134.383633 -113.387985 
L 133.931676 -113.236528 
L 133.479719 -113.071916 
L 133.027762 -112.894665 
L 132.575804 -112.705578 
L 132.123847 -112.505763 
L 131.67189 -112.296642 
L 131.219932 -112.079949 
L 130.767975 -111.857715 
L 130.316018 -111.632253 
L 129.864061 -111.406128 
L 129.412103 -111.182121 
L 128.960146 -110.963187 
L 128.508189 -110.752409 
L 128.056232 -110.552949 
L 127.604274 -110.367987 
L 127.152317 -110.200677 
L 126.70036 -110.054081 
L 126.248402 -109.931125 
L 125.796445 -109.834541 
L 125.344488 -109.766822 
L 124.892531 -109.730181 
L 124.440573 -109.726507 
L 123.988616 -109.757337 
L 123.536659 -109.823827 
L 123.084702 -109.926735 
L 122.632744 -110.066401 
L 122.180787 -110.242747 
L 121.72883 -110.455274 
L 121.276872 -110.703068 
L 120.824915 -110.984816 
L 120.372958 -111.298819 
L 119.921001 -111.643026 
L 119.469043 -112.015055 
L 119.017086 -112.412234 
L 118.565129 -112.831639 
L 118.113172 -113.270136 
L 117.661214 -113.724426 
L 117.209257 -114.191096 
L 116.7573 -114.666664 
L 116.305342 -115.147632 
L 115.853385 -115.630534 
L 115.401428 -116.111984 
L 114.949471 -116.58872 
L 114.497513 -117.057652 
L 114.045556 -117.515897 
L 113.593599 -117.960816 
L 113.141642 -118.390045 
L 112.689684 -118.80152 
L 112.237727 -119.193497 
L 111.78577 -119.564565 
L 111.333812 -119.913657 
L 110.881855 -120.240049 
L 110.429898 -120.543357 
L 109.977941 -120.823531 
L 109.525983 -121.080838 
L 109.074026 -121.315845 
L 108.622069 -121.529392 
L 108.170112 -121.72257 
L 107.718154 -121.896684 
L 107.266197 -122.053223 
L 106.81424 -122.193822 
L 106.362282 -122.320224 
L 105.910325 -122.434235 
L 105.458368 -122.537689 
L 105.006411 -122.632399 
L 104.554453 -122.720118 
L 104.102496 -122.802495 
L 103.650539 -122.881036 
L 103.198582 -122.957059 
L 102.746624 -123.031664 
L 102.294667 -123.105694 
L 101.84271 -123.179706 
L 101.390752 -123.25395 
L 100.938795 -123.32835 
L 100.486838 -123.402489 
L 100.034881 -123.475613 
L 99.582923 -123.546632 
L 99.130966 -123.614135 
L 98.679009 -123.676418 
L 98.227052 -123.731515 
L 97.775094 -123.777245 
L 97.323137 -123.811259 
L 96.87118 -123.831107 
L 96.419222 -123.834299 
L 95.967265 -123.81838 
L 95.515308 -123.781001 
L 95.063351 -123.719997 
L 94.611393 -123.633458 
L 94.159436 -123.519796 
L 93.707479 -123.377812 
L 93.255522 -123.206743 
L 92.803564 -123.006305 
L 92.351607 -122.776724 
L 91.89965 -122.518746 
L 91.447692 -122.23364 
L 90.995735 -121.923173 
L 90.543778 -121.589586 
L 90.091821 -121.235539 
L 89.639863 -120.864052 
L 89.187906 -120.478433 
L 88.735949 -120.082193 
L 88.283992 -119.67896 
L 87.832034 -119.27238 
L 87.380077 -118.86603 
L 86.92812 -118.463321 
L 86.476162 -118.067416 
L 86.024205 -117.68115 
L 85.572248 -117.306964 
L 85.120291 -116.946851 
L 84.668333 -116.602316 
L 84.216376 -116.274352 
L 83.764419 -115.963433 
L 83.312462 -115.669521 
L 82.860504 -115.39209 
L 82.408547 -115.130161 
L 81.95659 -114.882357 
L 81.504632 -114.64696 
L 81.052675 -114.421977 
L 80.600718 -114.205222 
L 80.148761 -113.994387 
L 79.696803 -113.787121 
L 79.244846 -113.58111 
L 78.792889 -113.374143 
L 78.340932 -113.16418 
L 77.888974 -112.949408 
L 77.437017 -112.72829 
L 76.98506 -112.499598 
L 76.533102 -112.262442 
L 76.081145 -112.016281 
L 75.629188 -111.760926 
L 75.177231 -111.496534 
L 74.725273 -111.223589 
L 74.273316 -110.942875 
L 73.821359 -110.655446 
L 73.369402 -110.36258 
L 72.917444 -110.065743 
L 72.465487 -109.76654 
L 72.01353 -109.466665 
L 71.561572 -109.167862 
L 71.109615 -108.871873 
L 70.657658 -108.580402 
L 70.205701 -108.295074 
L 69.753743 -108.017406 
L 69.301786 -107.748776 
L 68.849829 -107.490403 
L 68.397872 -107.243333 
L 67.945914 -107.008425 
L 67.493957 -106.78635 
L 67.042 -106.577589 
L 66.590042 -106.382439 
z
" style="stroke: #21918c; stroke-width: 1.25"/>
    </defs>
    <g>
     <use xlink:href="#m4a90b981b1" x="0" y="174.26" style="fill: #21918c; fill-opacity: 0.7; stroke: #21918c; stroke-width: 1.25"/>
    </g>
   </g>
   <g id="line2d_3">
    <path d="M 7.2 69.57 
L 216.45 69.57 
" style="fill: none; stroke: #21918c; stroke-opacity: 0.9; stroke-linecap: round"/>
   </g>
   <g id="text_3">
    <!-- 2 -->
    <g style="fill: #21918c" transform="translate(7.2 68.652) scale(0.12 -0.12)">
     <defs>
      <path id="IBMPlexSans-Bold-32" d="M 3526 0 
L 365 0 
L 365 877 
L 1741 2054 
Q 1926 2214 2054 2345 
Q 2182 2477 2262 2601 
Q 2342 2726 2377 2848 
Q 2413 2970 2413 3110 
L 2413 3200 
Q 2413 3328 2361 3424 
Q 2310 3520 2227 3584 
Q 2144 3648 2038 3680 
Q 1933 3712 1824 3712 
Q 1664 3712 1545 3661 
Q 1427 3610 1340 3523 
Q 1254 3437 1196 3325 
Q 1139 3213 1107 3085 
L 269 3405 
Q 346 3635 480 3843 
Q 614 4051 816 4208 
Q 1018 4365 1293 4454 
Q 1568 4544 1914 4544 
Q 2278 4544 2560 4441 
Q 2842 4339 3037 4160 
Q 3232 3981 3334 3734 
Q 3437 3488 3437 3200 
Q 3437 2912 3341 2675 
Q 3245 2438 3081 2230 
Q 2918 2022 2700 1836 
Q 2483 1651 2246 1459 
L 1414 806 
L 3526 806 
L 3526 0 
z
" transform="scale(0.015625)"/>
     </defs>
     <use xlink:href="#IBMPlexSans-Bold-32"/>
    </g>
   </g>
  </g>
  <g id="axes_4">
   <g id="patch_5">
    <path d="M 7.2 79.965 
L 216.45 79.965 
L 216.45 38.385 
L 7.2 38.385 
L 7.2 79.965 
z
" style="fill: none"/>
   </g>
   <g id="matplotlib.axis_7">
    <g id="xtick_10"/>
    <g id="xtick_11"/>
    <g id="xtick_12"/>
   </g>
   <g id="matplotlib.axis_8"/>
   <g id="FillBetweenPolyCollection_3">
    <defs>
     <path id="md4a519bd59" d="M 41.595151 -95.27009 
L 41.595151 -94.295 
L 42.291239 -94.295 
L 42.987328 -94.295 
L 43.683416 -94.295 
L 44.379504 -94.295 
L 45.075593 -94.295 
L 45.771681 -94.295 
L 46.467769 -94.295 
L 47.163857 -94.295 
L 47.859946 -94.295 
L 48.556034 -94.295 
L 49.252122 -94.295 
L 49.948211 -94.295 
L 50.644299 -94.295 
L 51.340387 -94.295 
L 52.036476 -94.295 
L 52.732564 -94.295 
L 53.428652 -94.295 
L 54.12474 -94.295 
L 54.820829 -94.295 
L 55.516917 -94.295 
L 56.213005 -94.295 
L 56.909094 -94.295 
L 57.605182 -94.295 
L 58.30127 -94.295 
L 58.997358 -94.295 
L 59.693447 -94.295 
L 60.389535 -94.295 
L 61.085623 -94.295 
L 61.781712 -94.295 
L 62.4778 -94.295 
L 63.173888 -94.295 
L 63.869976 -94.295 
L 64.566065 -94.295 
L 65.262153 -94.295 
L 65.958241 -94.295 
L 66.65433 -94.295 
L 67.350418 -94.295 
L 68.046506 -94.295 
L 68.742594 -94.295 
L 69.438683 -94.295 
L 70.134771 -94.295 
L 70.830859 -94.295 
L 71.526948 -94.295 
L 72.223036 -94.295 
L 72.919124 -94.295 
L 73.615213 -94.295 
L 74.311301 -94.295 
L 75.007389 -94.295 
L 75.703477 -94.295 
L 76.399566 -94.295 
L 77.095654 -94.295 
L 77.791742 -94.295 
L 78.487831 -94.295 
L 79.183919 -94.295 
L 79.880007 -94.295 
L 80.576095 -94.295 
L 81.272184 -94.295 
L 81.968272 -94.295 
L 82.66436 -94.295 
L 83.360449 -94.295 
L 84.056537 -94.295 
L 84.752625 -94.295 
L 85.448713 -94.295 
L 86.144802 -94.295 
L 86.84089 -94.295 
L 87.536978 -94.295 
L 88.233067 -94.295 
L 88.929155 -94.295 
L 89.625243 -94.295 
L 90.321331 -94.295 
L 91.01742 -94.295 
L 91.713508 -94.295 
L 92.409596 -94.295 
L 93.105685 -94.295 
L 93.801773 -94.295 
L 94.497861 -94.295 
L 95.193949 -94.295 
L 95.890038 -94.295 
L 96.586126 -94.295 
L 97.282214 -94.295 
L 97.978303 -94.295 
L 98.674391 -94.295 
L 99.370479 -94.295 
L 100.066568 -94.295 
L 100.762656 -94.295 
L 101.458744 -94.295 
L 102.154832 -94.295 
L 102.850921 -94.295 
L 103.547009 -94.295 
L 104.243097 -94.295 
L 104.939186 -94.295 
L 105.635274 -94.295 
L 106.331362 -94.295 
L 107.02745 -94.295 
L 107.723539 -94.295 
L 108.419627 -94.295 
L 109.115715 -94.295 
L 109.811804 -94.295 
L 110.507892 -94.295 
L 111.20398 -94.295 
L 111.900068 -94.295 
L 112.596157 -94.295 
L 113.292245 -94.295 
L 113.988333 -94.295 
L 114.684422 -94.295 
L 115.38051 -94.295 
L 116.076598 -94.295 
L 116.772686 -94.295 
L 117.468775 -94.295 
L 118.164863 -94.295 
L 118.860951 -94.295 
L 119.55704 -94.295 
L 120.253128 -94.295 
L 120.949216 -94.295 
L 121.645305 -94.295 
L 122.341393 -94.295 
L 123.037481 -94.295 
L 123.733569 -94.295 
L 124.429658 -94.295 
L 125.125746 -94.295 
L 125.821834 -94.295 
L 126.517923 -94.295 
L 127.214011 -94.295 
L 127.910099 -94.295 
L 128.606187 -94.295 
L 129.302276 -94.295 
L 129.998364 -94.295 
L 130.694452 -94.295 
L 131.390541 -94.295 
L 132.086629 -94.295 
L 132.782717 -94.295 
L 133.478805 -94.295 
L 134.174894 -94.295 
L 134.870982 -94.295 
L 135.56707 -94.295 
L 136.263159 -94.295 
L 136.959247 -94.295 
L 137.655335 -94.295 
L 138.351423 -94.295 
L 139.047512 -94.295 
L 139.7436 -94.295 
L 140.439688 -94.295 
L 141.135777 -94.295 
L 141.831865 -94.295 
L 142.527953 -94.295 
L 143.224042 -94.295 
L 143.92013 -94.295 
L 144.616218 -94.295 
L 145.312306 -94.295 
L 146.008395 -94.295 
L 146.704483 -94.295 
L 147.400571 -94.295 
L 148.09666 -94.295 
L 148.792748 -94.295 
L 149.488836 -94.295 
L 150.184924 -94.295 
L 150.881013 -94.295 
L 151.577101 -94.295 
L 152.273189 -94.295 
L 152.969278 -94.295 
L 153.665366 -94.295 
L 154.361454 -94.295 
L 155.057542 -94.295 
L 155.753631 -94.295 
L 156.449719 -94.295 
L 157.145807 -94.295 
L 157.841896 -94.295 
L 158.537984 -94.295 
L 159.234072 -94.295 
L 159.93016 -94.295 
L 160.626249 -94.295 
L 161.322337 -94.295 
L 162.018425 -94.295 
L 162.714514 -94.295 
L 163.410602 -94.295 
L 164.10669 -94.295 
L 164.802778 -94.295 
L 165.498867 -94.295 
L 166.194955 -94.295 
L 166.891043 -94.295 
L 167.587132 -94.295 
L 168.28322 -94.295 
L 168.979308 -94.295 
L 169.675397 -94.295 
L 170.371485 -94.295 
L 171.067573 -94.295 
L 171.763661 -94.295 
L 172.45975 -94.295 
L 173.155838 -94.295 
L 173.851926 -94.295 
L 174.548015 -94.295 
L 175.244103 -94.295 
L 175.940191 -94.295 
L 176.636279 -94.295 
L 177.332368 -94.295 
L 178.028456 -94.295 
L 178.724544 -94.295 
L 179.420633 -94.295 
L 180.116721 -94.295 
L 180.116721 -95.140686 
L 180.116721 -95.140686 
L 179.420633 -95.24961 
L 178.724544 -95.367881 
L 178.028456 -95.495584 
L 177.332368 -95.632697 
L 176.636279 -95.779076 
L 175.940191 -95.934446 
L 175.244103 -96.098399 
L 174.548015 -96.270387 
L 173.851926 -96.449722 
L 173.155838 -96.635579 
L 172.45975 -96.827004 
L 171.763661 -97.022921 
L 171.067573 -97.222151 
L 170.371485 -97.423422 
L 169.675397 -97.625397 
L 168.979308 -97.826692 
L 168.28322 -98.025904 
L 167.587132 -98.221638 
L 166.891043 -98.412533 
L 166.194955 -98.597294 
L 165.498867 -98.774713 
L 164.802778 -98.943699 
L 164.10669 -99.103298 
L 163.410602 -99.252712 
L 162.714514 -99.391313 
L 162.018425 -99.518656 
L 161.322337 -99.634476 
L 160.626249 -99.738695 
L 159.93016 -99.831409 
L 159.234072 -99.91288 
L 158.537984 -99.983513 
L 157.841896 -100.043839 
L 157.145807 -100.094489 
L 156.449719 -100.136161 
L 155.753631 -100.169594 
L 155.057542 -100.195534 
L 154.361454 -100.214705 
L 153.665366 -100.227782 
L 152.969278 -100.235359 
L 152.273189 -100.237935 
L 151.577101 -100.23589 
L 150.881013 -100.229476 
L 150.184924 -100.218813 
L 149.488836 -100.203886 
L 148.792748 -100.184555 
L 148.09666 -100.160566 
L 147.400571 -100.131571 
L 146.704483 -100.097152 
L 146.008395 -100.056848 
L 145.312306 -100.010185 
L 144.616218 -99.956712 
L 143.92013 -99.896031 
L 143.224042 -99.827832 
L 142.527953 -99.751925 
L 141.831865 -99.668268 
L 141.135777 -99.576989 
L 140.439688 -99.47841 
L 139.7436 -99.373059 
L 139.047512 -99.261675 
L 138.351423 -99.145216 
L 137.655335 -99.024849 
L 136.959247 -98.901941 
L 136.263159 -98.778043 
L 135.56707 -98.654862 
L 134.870982 -98.534242 
L 134.174894 -98.418123 
L 133.478805 -98.308514 
L 132.782717 -98.207451 
L 132.086629 -98.11696 
L 131.390541 -98.039021 
L 130.694452 -97.975525 
L 129.998364 -97.928243 
L 129.302276 -97.898789 
L 128.606187 -97.888588 
L 127.910099 -97.898855 
L 127.214011 -97.930565 
L 126.517923 -97.984442 
L 125.821834 -98.060938 
L 125.125746 -98.160234 
L 124.429658 -98.28223 
L 123.733569 -98.426549 
L 123.037481 -98.592547 
L 122.341393 -98.77932 
L 121.645305 -98.985723 
L 120.949216 -99.210388 
L 120.253128 -99.451747 
L 119.55704 -99.708056 
L 118.860951 -99.977427 
L 118.164863 -100.257853 
L 117.468775 -100.54724 
L 116.772686 -100.843438 
L 116.076598 -101.144274 
L 115.38051 -101.447578 
L 114.684422 -101.751217 
L 113.988333 -102.053117 
L 113.292245 -102.351296 
L 112.596157 -102.643882 
L 111.900068 -102.929136 
L 111.20398 -103.205471 
L 110.507892 -103.471467 
L 109.811804 -103.725883 
L 109.115715 -103.967668 
L 108.419627 -104.195968 
L 107.723539 -104.410127 
L 107.02745 -104.609691 
L 106.331362 -104.794404 
L 105.635274 -104.964208 
L 104.939186 -105.119228 
L 104.243097 -105.259772 
L 103.547009 -105.386313 
L 102.850921 -105.49948 
L 102.154832 -105.600039 
L 101.458744 -105.688876 
L 100.762656 -105.76698 
L 100.066568 -105.835421 
L 99.370479 -105.895326 
L 98.674391 -105.947857 
L 97.978303 -105.994186 
L 97.282214 -106.035472 
L 96.586126 -106.072829 
L 95.890038 -106.107306 
L 95.193949 -106.139859 
L 94.497861 -106.171328 
L 93.801773 -106.202413 
L 93.105685 -106.233657 
L 92.409596 -106.265424 
L 91.713508 -106.297891 
L 91.01742 -106.331032 
L 90.321331 -106.364623 
L 89.625243 -106.398235 
L 88.929155 -106.431242 
L 88.233067 -106.462839 
L 87.536978 -106.492051 
L 86.84089 -106.517765 
L 86.144802 -106.538755 
L 85.448713 -106.553712 
L 84.752625 -106.561289 
L 84.056537 -106.560129 
L 83.360449 -106.548916 
L 82.66436 -106.526406 
L 81.968272 -106.491472 
L 81.272184 -106.443136 
L 80.576095 -106.380602 
L 79.880007 -106.303284 
L 79.183919 -106.210821 
L 78.487831 -106.103093 
L 77.791742 -105.980228 
L 77.095654 -105.842592 
L 76.399566 -105.690784 
L 75.703477 -105.525616 
L 75.007389 -105.348084 
L 74.311301 -105.159342 
L 73.615213 -104.960662 
L 72.919124 -104.753396 
L 72.223036 -104.538936 
L 71.526948 -104.318671 
L 70.830859 -104.093948 
L 70.134771 -103.866037 
L 69.438683 -103.636097 
L 68.742594 -103.405146 
L 68.046506 -103.174046 
L 67.350418 -102.943486 
L 66.65433 -102.713976 
L 65.958241 -102.485845 
L 65.262153 -102.259253 
L 64.566065 -102.034204 
L 63.869976 -101.810562 
L 63.173888 -101.588081 
L 62.4778 -101.366428 
L 61.781712 -101.145213 
L 61.085623 -100.924026 
L 60.389535 -100.702457 
L 59.693447 -100.480134 
L 58.997358 -100.256744 
L 58.30127 -100.032058 
L 57.605182 -99.805947 
L 56.909094 -99.578398 
L 56.213005 -99.349518 
L 55.516917 -99.119544 
L 54.820829 -98.888835 
L 54.12474 -98.657866 
L 53.428652 -98.427221 
L 52.732564 -98.197573 
L 52.036476 -97.969672 
L 51.340387 -97.74432 
L 50.644299 -97.522356 
L 49.948211 -97.304629 
L 49.252122 -97.091979 
L 48.556034 -96.88522 
L 47.859946 -96.685116 
L 47.163857 -96.492368 
L 46.467769 -96.307602 
L 45.771681 -96.131351 
L 45.075593 -95.964056 
L 44.379504 -95.806053 
L 43.683416 -95.657576 
L 42.987328 -95.518753 
L 42.291239 -95.389613 
L 41.595151 -95.27009 
z
" style="stroke: #355f8d; stroke-width: 1.25"/>
    </defs>
    <g>
     <use xlink:href="#md4a519bd59" x="0" y="174.26" style="fill: #355f8d; fill-opacity: 0.7; stroke: #355f8d; stroke-width: 1.25"/>
    </g>
   </g>
   <g id="line2d_4">
    <path d="M 7.2 79.965 
L 216.45 79.965 
" style="fill: none; stroke: #355f8d; stroke-opacity: 0.9; stroke-linecap: round"/>
   </g>
   <g id="text_4">
    <!-- 3 -->
    <g style="fill: #355f8d" transform="translate(7.2 79.047) scale(0.12 -0.12)">
     <defs>
      <path id="IBMPlexSans-Bold-33" d="M 1677 2701 
Q 2035 2701 2198 2838 
Q 2362 2976 2362 3181 
L 2362 3226 
Q 2362 3469 2205 3616 
Q 2048 3763 1760 3763 
Q 1491 3763 1254 3625 
Q 1018 3488 851 3232 
L 250 3795 
Q 378 3962 525 4099 
Q 672 4237 857 4336 
Q 1043 4435 1273 4489 
Q 1504 4544 1792 4544 
Q 2150 4544 2441 4461 
Q 2733 4378 2941 4221 
Q 3149 4064 3261 3846 
Q 3373 3629 3373 3360 
Q 3373 3149 3305 2976 
Q 3238 2803 3120 2675 
Q 3002 2547 2848 2467 
Q 2694 2387 2522 2355 
L 2522 2317 
Q 2720 2278 2889 2192 
Q 3059 2106 3184 1971 
Q 3309 1837 3379 1654 
Q 3450 1472 3450 1242 
Q 3450 941 3328 697 
Q 3206 454 2982 281 
Q 2758 109 2444 16 
Q 2131 -77 1754 -77 
Q 1414 -77 1152 -6 
Q 890 64 694 182 
Q 499 301 355 454 
Q 211 608 102 781 
L 813 1331 
Q 960 1056 1174 880 
Q 1389 704 1754 704 
Q 2080 704 2262 867 
Q 2445 1030 2445 1312 
L 2445 1350 
Q 2445 1626 2237 1763 
Q 2029 1901 1664 1901 
L 1261 1901 
L 1261 2701 
L 1677 2701 
z
" transform="scale(0.015625)"/>
     </defs>
     <use xlink:href="#IBMPlexSans-Bold-33"/>
    </g>
   </g>
  </g>
  <g id="axes_5">
   <g id="patch_6">
    <path d="M 7.2 90.36 
L 216.45 90.36 
L 216.45 48.78 
L 7.2 48.78 
L 7.2 90.36 
z
" style="fill: none"/>
   </g>
   <g id="matplotlib.axis_9">
    <g id="xtick_13"/>
    <g id="xtick_14"/>
    <g id="xtick_15"/>
   </g>
   <g id="matplotlib.axis_10"/>
   <g id="FillBetweenPolyCollection_4">
    <defs>
     <path id="md70f825341" d="M 16.711364 -84.575863 
L 16.711364 -83.9 
L 17.66728 -83.9 
L 18.623196 -83.9 
L 19.579111 -83.9 
L 20.535027 -83.9 
L 21.490943 -83.9 
L 22.446859 -83.9 
L 23.402775 -83.9 
L 24.358691 -83.9 
L 25.314607 -83.9 
L 26.270523 -83.9 
L 27.226439 -83.9 
L 28.182355 -83.9 
L 29.138271 -83.9 
L 30.094187 -83.9 
L 31.050103 -83.9 
L 32.006019 -83.9 
L 32.961935 -83.9 
L 33.917851 -83.9 
L 34.873767 -83.9 
L 35.829683 -83.9 
L 36.785598 -83.9 
L 37.741514 -83.9 
L 38.69743 -83.9 
L 39.653346 -83.9 
L 40.609262 -83.9 
L 41.565178 -83.9 
L 42.521094 -83.9 
L 43.47701 -83.9 
L 44.432926 -83.9 
L 45.388842 -83.9 
L 46.344758 -83.9 
L 47.300674 -83.9 
L 48.25659 -83.9 
L 49.212506 -83.9 
L 50.168422 -83.9 
L 51.124338 -83.9 
L 52.080254 -83.9 
L 53.036169 -83.9 
L 53.992085 -83.9 
L 54.948001 -83.9 
L 55.903917 -83.9 
L 56.859833 -83.9 
L 57.815749 -83.9 
L 58.771665 -83.9 
L 59.727581 -83.9 
L 60.683497 -83.9 
L 61.639413 -83.9 
L 62.595329 -83.9 
L 63.551245 -83.9 
L 64.507161 -83.9 
L 65.463077 -83.9 
L 66.418993 -83.9 
L 67.374909 -83.9 
L 68.330825 -83.9 
L 69.286741 -83.9 
L 70.242656 -83.9 
L 71.198572 -83.9 
L 72.154488 -83.9 
L 73.110404 -83.9 
L 74.06632 -83.9 
L 75.022236 -83.9 
L 75.978152 -83.9 
L 76.934068 -83.9 
L 77.889984 -83.9 
L 78.8459 -83.9 
L 79.801816 -83.9 
L 80.757732 -83.9 
L 81.713648 -83.9 
L 82.669564 -83.9 
L 83.62548 -83.9 
L 84.581396 -83.9 
L 85.537312 -83.9 
L 86.493228 -83.9 
L 87.449143 -83.9 
L 88.405059 -83.9 
L 89.360975 -83.9 
L 90.316891 -83.9 
L 91.272807 -83.9 
L 92.228723 -83.9 
L 93.184639 -83.9 
L 94.140555 -83.9 
L 95.096471 -83.9 
L 96.052387 -83.9 
L 97.008303 -83.9 
L 97.964219 -83.9 
L 98.920135 -83.9 
L 99.876051 -83.9 
L 100.831967 -83.9 
L 101.787883 -83.9 
L 102.743799 -83.9 
L 103.699714 -83.9 
L 104.65563 -83.9 
L 105.611546 -83.9 
L 106.567462 -83.9 
L 107.523378 -83.9 
L 108.479294 -83.9 
L 109.43521 -83.9 
L 110.391126 -83.9 
L 111.347042 -83.9 
L 112.302958 -83.9 
L 113.258874 -83.9 
L 114.21479 -83.9 
L 115.170706 -83.9 
L 116.126622 -83.9 
L 117.082538 -83.9 
L 118.038454 -83.9 
L 118.99437 -83.9 
L 119.950286 -83.9 
L 120.906201 -83.9 
L 121.862117 -83.9 
L 122.818033 -83.9 
L 123.773949 -83.9 
L 124.729865 -83.9 
L 125.685781 -83.9 
L 126.641697 -83.9 
L 127.597613 -83.9 
L 128.553529 -83.9 
L 129.509445 -83.9 
L 130.465361 -83.9 
L 131.421277 -83.9 
L 132.377193 -83.9 
L 133.333109 -83.9 
L 134.289025 -83.9 
L 135.244941 -83.9 
L 136.200857 -83.9 
L 137.156772 -83.9 
L 138.112688 -83.9 
L 139.068604 -83.9 
L 140.02452 -83.9 
L 140.980436 -83.9 
L 141.936352 -83.9 
L 142.892268 -83.9 
L 143.848184 -83.9 
L 144.8041 -83.9 
L 145.760016 -83.9 
L 146.715932 -83.9 
L 147.671848 -83.9 
L 148.627764 -83.9 
L 149.58368 -83.9 
L 150.539596 -83.9 
L 151.495512 -83.9 
L 152.451428 -83.9 
L 153.407344 -83.9 
L 154.363259 -83.9 
L 155.319175 -83.9 
L 156.275091 -83.9 
L 157.231007 -83.9 
L 158.186923 -83.9 
L 159.142839 -83.9 
L 160.098755 -83.9 
L 161.054671 -83.9 
L 162.010587 -83.9 
L 162.966503 -83.9 
L 163.922419 -83.9 
L 164.878335 -83.9 
L 165.834251 -83.9 
L 166.790167 -83.9 
L 167.746083 -83.9 
L 168.701999 -83.9 
L 169.657915 -83.9 
L 170.613831 -83.9 
L 171.569746 -83.9 
L 172.525662 -83.9 
L 173.481578 -83.9 
L 174.437494 -83.9 
L 175.39341 -83.9 
L 176.349326 -83.9 
L 177.305242 -83.9 
L 178.261158 -83.9 
L 179.217074 -83.9 
L 180.17299 -83.9 
L 181.128906 -83.9 
L 182.084822 -83.9 
L 183.040738 -83.9 
L 183.996654 -83.9 
L 184.95257 -83.9 
L 185.908486 -83.9 
L 186.864402 -83.9 
L 187.820317 -83.9 
L 188.776233 -83.9 
L 189.732149 -83.9 
L 190.688065 -83.9 
L 191.643981 -83.9 
L 192.599897 -83.9 
L 193.555813 -83.9 
L 194.511729 -83.9 
L 195.467645 -83.9 
L 196.423561 -83.9 
L 197.379477 -83.9 
L 198.335393 -83.9 
L 199.291309 -83.9 
L 200.247225 -83.9 
L 201.203141 -83.9 
L 202.159057 -83.9 
L 203.114973 -83.9 
L 204.070889 -83.9 
L 205.026804 -83.9 
L 205.98272 -83.9 
L 206.938636 -83.9 
L 206.938636 -84.283347 
L 206.938636 -84.283347 
L 205.98272 -84.339067 
L 205.026804 -84.400759 
L 204.070889 -84.468704 
L 203.114973 -84.543136 
L 202.159057 -84.624237 
L 201.203141 -84.71212 
L 200.247225 -84.806827 
L 199.291309 -84.908317 
L 198.335393 -85.016456 
L 197.379477 -85.131016 
L 196.423561 -85.251667 
L 195.467645 -85.377977 
L 194.511729 -85.509407 
L 193.555813 -85.645322 
L 192.599897 -85.78499 
L 191.643981 -85.927589 
L 190.688065 -86.072223 
L 189.732149 -86.217933 
L 188.776233 -86.363711 
L 187.820317 -86.508521 
L 186.864402 -86.651317 
L 185.908486 -86.791061 
L 184.95257 -86.926752 
L 183.996654 -87.057437 
L 183.040738 -87.182239 
L 182.084822 -87.300375 
L 181.128906 -87.411166 
L 180.17299 -87.514062 
L 179.217074 -87.608643 
L 178.261158 -87.694631 
L 177.305242 -87.771892 
L 176.349326 -87.840434 
L 175.39341 -87.900402 
L 174.437494 -87.952069 
L 173.481578 -87.995819 
L 172.525662 -88.032135 
L 171.569746 -88.061573 
L 170.613831 -88.084744 
L 169.657915 -88.10229 
L 168.701999 -88.114857 
L 167.746083 -88.123073 
L 166.790167 -88.127524 
L 165.834251 -88.128737 
L 164.878335 -88.127155 
L 163.922419 -88.123132 
L 162.966503 -88.116914 
L 162.010587 -88.108641 
L 161.054671 -88.098341 
L 160.098755 -88.085937 
L 159.142839 -88.071255 
L 158.186923 -88.054036 
L 157.231007 -88.033957 
L 156.275091 -88.010647 
L 155.319175 -87.983714 
L 154.363259 -87.952769 
L 153.407344 -87.917449 
L 152.451428 -87.877447 
L 151.495512 -87.832534 
L 150.539596 -87.782582 
L 149.58368 -87.727585 
L 148.627764 -87.667674 
L 147.671848 -87.603131 
L 146.715932 -87.534394 
L 145.760016 -87.462065 
L 144.8041 -87.386902 
L 143.848184 -87.309818 
L 142.892268 -87.231863 
L 141.936352 -87.154213 
L 140.980436 -87.07815 
L 140.02452 -87.005035 
L 139.068604 -86.936286 
L 138.112688 -86.873346 
L 137.156772 -86.817661 
L 136.200857 -86.770643 
L 135.244941 -86.733647 
L 134.289025 -86.707939 
L 133.333109 -86.694676 
L 132.377193 -86.694877 
L 131.421277 -86.709407 
L 130.465361 -86.738956 
L 129.509445 -86.784032 
L 128.553529 -86.844944 
L 127.597613 -86.921803 
L 126.641697 -87.01452 
L 125.685781 -87.122802 
L 124.729865 -87.246167 
L 123.773949 -87.383947 
L 122.818033 -87.535304 
L 121.862117 -87.699242 
L 120.906201 -87.874627 
L 119.950286 -88.060205 
L 118.99437 -88.254619 
L 118.038454 -88.456437 
L 117.082538 -88.664168 
L 116.126622 -88.876286 
L 115.170706 -89.091249 
L 114.21479 -89.307526 
L 113.258874 -89.523608 
L 112.302958 -89.738037 
L 111.347042 -89.949414 
L 110.391126 -90.156424 
L 109.43521 -90.357842 
L 108.479294 -90.552554 
L 107.523378 -90.739563 
L 106.567462 -90.918 
L 105.611546 -91.087132 
L 104.65563 -91.246366 
L 103.699714 -91.395254 
L 102.743799 -91.533495 
L 101.787883 -91.660932 
L 100.831967 -91.777554 
L 99.876051 -91.883487 
L 98.920135 -91.97899 
L 97.964219 -92.064447 
L 97.008303 -92.140355 
L 96.052387 -92.207313 
L 95.096471 -92.266009 
L 94.140555 -92.317203 
L 93.184639 -92.361711 
L 92.228723 -92.400387 
L 91.272807 -92.434108 
L 90.316891 -92.463749 
L 89.360975 -92.490166 
L 88.405059 -92.514182 
L 87.449143 -92.536561 
L 86.493228 -92.557996 
L 85.537312 -92.579091 
L 84.581396 -92.600347 
L 83.62548 -92.622151 
L 82.669564 -92.644765 
L 81.713648 -92.668322 
L 80.757732 -92.692819 
L 79.801816 -92.718119 
L 78.8459 -92.743953 
L 77.889984 -92.769925 
L 76.934068 -92.795525 
L 75.978152 -92.820135 
L 75.022236 -92.843051 
L 74.06632 -92.863495 
L 73.110404 -92.880637 
L 72.154488 -92.893612 
L 71.198572 -92.901548 
L 70.242656 -92.903579 
L 69.286741 -92.898871 
L 68.330825 -92.886643 
L 67.374909 -92.866178 
L 66.418993 -92.836846 
L 65.463077 -92.798112 
L 64.507161 -92.749549 
L 63.551245 -92.690842 
L 62.595329 -92.62179 
L 61.639413 -92.542309 
L 60.683497 -92.452426 
L 59.727581 -92.352271 
L 58.771665 -92.242071 
L 57.815749 -92.122134 
L 56.859833 -91.992842 
L 55.903917 -91.854629 
L 54.948001 -91.707977 
L 53.992085 -91.553393 
L 53.036169 -91.391403 
L 52.080254 -91.222536 
L 51.124338 -91.047319 
L 50.168422 -90.866265 
L 49.212506 -90.679873 
L 48.25659 -90.48862 
L 47.300674 -90.292967 
L 46.344758 -90.093355 
L 45.388842 -89.890211 
L 44.432926 -89.683956 
L 43.47701 -89.475005 
L 42.521094 -89.263777 
L 41.565178 -89.050704 
L 40.609262 -88.83623 
L 39.653346 -88.620822 
L 38.69743 -88.404973 
L 37.741514 -88.189203 
L 36.785598 -87.974059 
L 35.829683 -87.760114 
L 34.873767 -87.547967 
L 33.917851 -87.338233 
L 32.961935 -87.131542 
L 32.006019 -86.928524 
L 31.050103 -86.729808 
L 30.094187 -86.536008 
L 29.138271 -86.347713 
L 28.182355 -86.165479 
L 27.226439 -85.989818 
L 26.270523 -85.821191 
L 25.314607 -85.660002 
L 24.358691 -85.506585 
L 23.402775 -85.361209 
L 22.446859 -85.224069 
L 21.490943 -85.095283 
L 20.535027 -84.974898 
L 19.579111 -84.86289 
L 18.623196 -84.759163 
L 17.66728 -84.66356 
L 16.711364 -84.575863 
z
" style="stroke: #482475; stroke-width: 1.25"/>
    </defs>
    <g>
     <use xlink:href="#md70f825341" x="0" y="174.26" style="fill: #482475; fill-opacity: 0.7; stroke: #482475; stroke-width: 1.25"/>
    </g>
   </g>
   <g id="line2d_5">
    <path d="M 7.2 90.36 
L 216.45 90.36 
" style="fill: none; stroke: #482475; stroke-opacity: 0.9; stroke-linecap: round"/>
   </g>
   <g id="text_5">
    <!-- 4 -->
    <g style="fill: #482475" transform="translate(7.2 89.442) scale(0.12 -0.12)">
     <defs>
      <path id="IBMPlexSans-Bold-34" d="M 2157 0 
L 2157 858 
L 192 858 
L 192 1677 
L 1933 4467 
L 3072 4467 
L 3072 1600 
L 3635 1600 
L 3635 858 
L 3072 858 
L 3072 0 
L 2157 0 
z
M 960 1600 
L 2157 1600 
L 2157 3475 
L 2093 3475 
L 960 1600 
z
" transform="scale(0.015625)"/>
     </defs>
     <use xlink:href="#IBMPlexSans-Bold-34"/>
    </g>
   </g>
  </g>
  <g id="axes_6">
   <g id="patch_7">
    <path d="M 7.2 100.755 
L 216.45 100.755 
L 216.45 59.175 
L 7.2 59.175 
L 7.2 100.755 
z
" style="fill: none"/>
   </g>
   <g id="matplotlib.axis_11">
    <g id="xtick_16"/>
    <g id="xtick_17"/>
    <g id="xtick_18"/>
   </g>
   <g id="matplotlib.axis_12"/>
   <g id="FillBetweenPolyCollection_5">
    <defs>
     <path id="m1b3a0d0999" d="M 39.820817 -74.385654 
L 39.820817 -73.505 
L 40.515794 -73.505 
L 41.210771 -73.505 
L 41.905748 -73.505 
L 42.600725 -73.505 
L 43.295703 -73.505 
L 43.99068 -73.505 
L 44.685657 -73.505 
L 45.380634 -73.505 
L 46.075611 -73.505 
L 46.770588 -73.505 
L 47.465566 -73.505 
L 48.160543 -73.505 
L 48.85552 -73.505 
L 49.550497 -73.505 
L 50.245474 -73.505 
L 50.940451 -73.505 
L 51.635429 -73.505 
L 52.330406 -73.505 
L 53.025383 -73.505 
L 53.72036 -73.505 
L 54.415337 -73.505 
L 55.110314 -73.505 
L 55.805292 -73.505 
L 56.500269 -73.505 
L 57.195246 -73.505 
L 57.890223 -73.505 
L 58.5852 -73.505 
L 59.280177 -73.505 
L 59.975154 -73.505 
L 60.670132 -73.505 
L 61.365109 -73.505 
L 62.060086 -73.505 
L 62.755063 -73.505 
L 63.45004 -73.505 
L 64.145017 -73.505 
L 64.839995 -73.505 
L 65.534972 -73.505 
L 66.229949 -73.505 
L 66.924926 -73.505 
L 67.619903 -73.505 
L 68.31488 -73.505 
L 69.009858 -73.505 
L 69.704835 -73.505 
L 70.399812 -73.505 
L 71.094789 -73.505 
L 71.789766 -73.505 
L 72.484743 -73.505 
L 73.179721 -73.505 
L 73.874698 -73.505 
L 74.569675 -73.505 
L 75.264652 -73.505 
L 75.959629 -73.505 
L 76.654606 -73.505 
L 77.349584 -73.505 
L 78.044561 -73.505 
L 78.739538 -73.505 
L 79.434515 -73.505 
L 80.129492 -73.505 
L 80.824469 -73.505 
L 81.519446 -73.505 
L 82.214424 -73.505 
L 82.909401 -73.505 
L 83.604378 -73.505 
L 84.299355 -73.505 
L 84.994332 -73.505 
L 85.689309 -73.505 
L 86.384287 -73.505 
L 87.079264 -73.505 
L 87.774241 -73.505 
L 88.469218 -73.505 
L 89.164195 -73.505 
L 89.859172 -73.505 
L 90.55415 -73.505 
L 91.249127 -73.505 
L 91.944104 -73.505 
L 92.639081 -73.505 
L 93.334058 -73.505 
L 94.029035 -73.505 
L 94.724013 -73.505 
L 95.41899 -73.505 
L 96.113967 -73.505 
L 96.808944 -73.505 
L 97.503921 -73.505 
L 98.198898 -73.505 
L 98.893876 -73.505 
L 99.588853 -73.505 
L 100.28383 -73.505 
L 100.978807 -73.505 
L 101.673784 -73.505 
L 102.368761 -73.505 
L 103.063738 -73.505 
L 103.758716 -73.505 
L 104.453693 -73.505 
L 105.14867 -73.505 
L 105.843647 -73.505 
L 106.538624 -73.505 
L 107.233601 -73.505 
L 107.928579 -73.505 
L 108.623556 -73.505 
L 109.318533 -73.505 
L 110.01351 -73.505 
L 110.708487 -73.505 
L 111.403464 -73.505 
L 112.098442 -73.505 
L 112.793419 -73.505 
L 113.488396 -73.505 
L 114.183373 -73.505 
L 114.87835 -73.505 
L 115.573327 -73.505 
L 116.268305 -73.505 
L 116.963282 -73.505 
L 117.658259 -73.505 
L 118.353236 -73.505 
L 119.048213 -73.505 
L 119.74319 -73.505 
L 120.438168 -73.505 
L 121.133145 -73.505 
L 121.828122 -73.505 
L 122.523099 -73.505 
L 123.218076 -73.505 
L 123.913053 -73.505 
L 124.608031 -73.505 
L 125.303008 -73.505 
L 125.997985 -73.505 
L 126.692962 -73.505 
L 127.387939 -73.505 
L 128.082916 -73.505 
L 128.777893 -73.505 
L 129.472871 -73.505 
L 130.167848 -73.505 
L 130.862825 -73.505 
L 131.557802 -73.505 
L 132.252779 -73.505 
L 132.947756 -73.505 
L 133.642734 -73.505 
L 134.337711 -73.505 
L 135.032688 -73.505 
L 135.727665 -73.505 
L 136.422642 -73.505 
L 137.117619 -73.505 
L 137.812597 -73.505 
L 138.507574 -73.505 
L 139.202551 -73.505 
L 139.897528 -73.505 
L 140.592505 -73.505 
L 141.287482 -73.505 
L 141.98246 -73.505 
L 142.677437 -73.505 
L 143.372414 -73.505 
L 144.067391 -73.505 
L 144.762368 -73.505 
L 145.457345 -73.505 
L 146.152323 -73.505 
L 146.8473 -73.505 
L 147.542277 -73.505 
L 148.237254 -73.505 
L 148.932231 -73.505 
L 149.627208 -73.505 
L 150.322185 -73.505 
L 151.017163 -73.505 
L 151.71214 -73.505 
L 152.407117 -73.505 
L 153.102094 -73.505 
L 153.797071 -73.505 
L 154.492048 -73.505 
L 155.187026 -73.505 
L 155.882003 -73.505 
L 156.57698 -73.505 
L 157.271957 -73.505 
L 157.966934 -73.505 
L 158.661911 -73.505 
L 159.356889 -73.505 
L 160.051866 -73.505 
L 160.746843 -73.505 
L 161.44182 -73.505 
L 162.136797 -73.505 
L 162.831774 -73.505 
L 163.526752 -73.505 
L 164.221729 -73.505 
L 164.916706 -73.505 
L 165.611683 -73.505 
L 166.30666 -73.505 
L 167.001637 -73.505 
L 167.696615 -73.505 
L 168.391592 -73.505 
L 169.086569 -73.505 
L 169.781546 -73.505 
L 170.476523 -73.505 
L 171.1715 -73.505 
L 171.866477 -73.505 
L 172.561455 -73.505 
L 173.256432 -73.505 
L 173.951409 -73.505 
L 174.646386 -73.505 
L 175.341363 -73.505 
L 176.03634 -73.505 
L 176.731318 -73.505 
L 177.426295 -73.505 
L 178.121272 -73.505 
L 178.121272 -74.588277 
L 178.121272 -74.588277 
L 177.426295 -74.716659 
L 176.731318 -74.854453 
L 176.03634 -75.001519 
L 175.341363 -75.15759 
L 174.646386 -75.322265 
L 173.951409 -75.495009 
L 173.256432 -75.675148 
L 172.561455 -75.861877 
L 171.866477 -76.054265 
L 171.1715 -76.25126 
L 170.476523 -76.45171 
L 169.781546 -76.654375 
L 169.086569 -76.857947 
L 168.391592 -77.061073 
L 167.696615 -77.262381 
L 167.001637 -77.460502 
L 166.30666 -77.654102 
L 165.611683 -77.841903 
L 164.916706 -78.02271 
L 164.221729 -78.195437 
L 163.526752 -78.359126 
L 162.831774 -78.512965 
L 162.136797 -78.656302 
L 161.44182 -78.788652 
L 160.746843 -78.909703 
L 160.051866 -79.019315 
L 159.356889 -79.117512 
L 158.661911 -79.204469 
L 157.966934 -79.280499 
L 157.271957 -79.346031 
L 156.57698 -79.401586 
L 155.882003 -79.44775 
L 155.187026 -79.485148 
L 154.492048 -79.514415 
L 153.797071 -79.536165 
L 153.102094 -79.550975 
L 152.407117 -79.559349 
L 151.71214 -79.561712 
L 151.017163 -79.558386 
L 150.322185 -79.549587 
L 149.627208 -79.535417 
L 148.932231 -79.515872 
L 148.237254 -79.490844 
L 147.542277 -79.46014 
L 146.8473 -79.423499 
L 146.152323 -79.380613 
L 145.457345 -79.331157 
L 144.762368 -79.274814 
L 144.067391 -79.211311 
L 143.372414 -79.140441 
L 142.677437 -79.062102 
L 141.98246 -78.976314 
L 141.287482 -78.883252 
L 140.592505 -78.783259 
L 139.897528 -78.676862 
L 139.202551 -78.564786 
L 138.507574 -78.447951 
L 137.812597 -78.327472 
L 137.117619 -78.204651 
L 136.422642 -78.080962 
L 135.727665 -77.95803 
L 135.032688 -77.837608 
L 134.337711 -77.721547 
L 133.642734 -77.611764 
L 132.947756 -77.510207 
L 132.252779 -77.418823 
L 131.557802 -77.339517 
L 130.862825 -77.274116 
L 130.167848 -77.224339 
L 129.472871 -77.191762 
L 128.777893 -77.177787 
L 128.082916 -77.183617 
L 127.387939 -77.210236 
L 126.692962 -77.258389 
L 125.997985 -77.328568 
L 125.303008 -77.421006 
L 124.608031 -77.535674 
L 123.913053 -77.67228 
L 123.218076 -77.830276 
L 122.523099 -78.008869 
L 121.828122 -78.207034 
L 121.133145 -78.423532 
L 120.438168 -78.656933 
L 119.74319 -78.905635 
L 119.048213 -79.167894 
L 118.353236 -79.441847 
L 117.658259 -79.725544 
L 116.963282 -80.016972 
L 116.268305 -80.314087 
L 115.573327 -80.614836 
L 114.87835 -80.917192 
L 114.183373 -81.219169 
L 113.488396 -81.518852 
L 112.793419 -81.814416 
L 112.098442 -82.104143 
L 111.403464 -82.386442 
L 110.708487 -82.659861 
L 110.01351 -82.923097 
L 109.318533 -83.175008 
L 108.623556 -83.414619 
L 107.928579 -83.641127 
L 107.233601 -83.853901 
L 106.538624 -84.052486 
L 105.843647 -84.236599 
L 105.14867 -84.406128 
L 104.453693 -84.561125 
L 103.758716 -84.701801 
L 103.063738 -84.828518 
L 102.368761 -84.941776 
L 101.673784 -85.042205 
L 100.978807 -85.13055 
L 100.28383 -85.207653 
L 99.588853 -85.27444 
L 98.893876 -85.3319 
L 98.198898 -85.381063 
L 97.503921 -85.42298 
L 96.808944 -85.458696 
L 96.113967 -85.48923 
L 95.41899 -85.515545 
L 94.724013 -85.538527 
L 94.029035 -85.55896 
L 93.334058 -85.5775 
L 92.639081 -85.594658 
L 91.944104 -85.610782 
L 91.249127 -85.626042 
L 90.55415 -85.640422 
L 89.859172 -85.653713 
L 89.164195 -85.66552 
L 88.469218 -85.675263 
L 87.774241 -85.682194 
L 87.079264 -85.685417 
L 86.384287 -85.683911 
L 85.689309 -85.67656 
L 84.994332 -85.662187 
L 84.299355 -85.639595 
L 83.604378 -85.6076 
L 82.909401 -85.565077 
L 82.214424 -85.510995 
L 81.519446 -85.444457 
L 80.824469 -85.364733 
L 80.129492 -85.271285 
L 79.434515 -85.163797 
L 78.739538 -85.042183 
L 78.044561 -84.906598 
L 77.349584 -84.757442 
L 76.654606 -84.595345 
L 75.959629 -84.421154 
L 75.264652 -84.235912 
L 74.569675 -84.040823 
L 73.874698 -83.837223 
L 73.179721 -83.626536 
L 72.484743 -83.410236 
L 71.789766 -83.189801 
L 71.094789 -82.966674 
L 70.399812 -82.742222 
L 69.704835 -82.517699 
L 69.009858 -82.294217 
L 68.31488 -82.072718 
L 67.619903 -81.853957 
L 66.924926 -81.638488 
L 66.229949 -81.426665 
L 65.534972 -81.218639 
L 64.839995 -81.014372 
L 64.145017 -80.813653 
L 63.45004 -80.616121 
L 62.755063 -80.421288 
L 62.060086 -80.228574 
L 61.365109 -80.037334 
L 60.670132 -79.846895 
L 59.975154 -79.656588 
L 59.280177 -79.465775 
L 58.5852 -79.273884 
L 57.890223 -79.080426 
L 57.195246 -78.885025 
L 56.500269 -78.687424 
L 55.805292 -78.487505 
L 55.110314 -78.285288 
L 54.415337 -78.080936 
L 53.72036 -77.874747 
L 53.025383 -77.667149 
L 52.330406 -77.458685 
L 51.635429 -77.249998 
L 50.940451 -77.041813 
L 50.245474 -76.834917 
L 49.550497 -76.630136 
L 48.85552 -76.428316 
L 48.160543 -76.230301 
L 47.465566 -76.036915 
L 46.770588 -75.848939 
L 46.075611 -75.667099 
L 45.380634 -75.492054 
L 44.685657 -75.324377 
L 43.99068 -75.164555 
L 43.295703 -75.01298 
L 42.600725 -74.869943 
L 41.905748 -74.735639 
L 41.210771 -74.610167 
L 40.515794 -74.493532 
L 39.820817 -74.385654 
z
" style="stroke: #414487; stroke-width: 1.25"/>
    </defs>
    <g>
     <use xlink:href="#m1b3a0d0999" x="0" y="174.26" style="fill: #414487; fill-opacity: 0.7; stroke: #414487; stroke-width: 1.25"/>
    </g>
   </g>
   <g id="line2d_6">
    <path d="M 7.2 100.755 
L 216.45 100.755 
" style="fill: none; stroke: #414487; stroke-opacity: 0.9; stroke-linecap: round"/>
   </g>
   <g id="text_6">
    <!-- 5 -->
    <g style="fill: #414487" transform="translate(7.2 99.837) scale(0.12 -0.12)">
     <defs>
      <path id="IBMPlexSans-Bold-35" d="M 3341 3629 
L 1312 3629 
L 1216 2214 
L 1267 2214 
Q 1331 2374 1411 2505 
Q 1491 2637 1600 2729 
Q 1709 2822 1862 2873 
Q 2016 2925 2227 2925 
Q 2515 2925 2764 2829 
Q 3014 2733 3200 2550 
Q 3386 2368 3494 2102 
Q 3603 1837 3603 1504 
Q 3603 1165 3491 873 
Q 3379 582 3158 371 
Q 2938 160 2618 41 
Q 2298 -77 1888 -77 
Q 1562 -77 1312 -6 
Q 1062 64 870 182 
Q 678 301 537 454 
Q 397 608 294 781 
L 992 1331 
Q 1139 1069 1344 886 
Q 1549 704 1894 704 
Q 2240 704 2416 902 
Q 2592 1101 2592 1427 
L 2592 1478 
Q 2592 1786 2413 1965 
Q 2234 2144 1920 2144 
Q 1658 2144 1488 2038 
Q 1318 1933 1229 1830 
L 442 1939 
L 608 4467 
L 3341 4467 
L 3341 3629 
z
" transform="scale(0.015625)"/>
     </defs>
     <use xlink:href="#IBMPlexSans-Bold-35"/>
    </g>
   </g>
  </g>
  <g id="axes_7">
   <g id="patch_8">
    <path d="M 7.2 111.15 
L 216.45 111.15 
L 216.45 69.57 
L 7.2 69.57 
L 7.2 111.15 
z
" style="fill: none"/>
   </g>
   <g id="matplotlib.axis_13">
    <g id="xtick_19"/>
    <g id="xtick_20"/>
    <g id="xtick_21"/>
   </g>
   <g id="matplotlib.axis_14"/>
   <g id="FillBetweenPolyCollection_6">
    <defs>
     <path id="m8fbac32a36" d="M 56.822023 -63.696006 
L 56.822023 -63.11 
L 57.351063 -63.11 
L 57.880102 -63.11 
L 58.409142 -63.11 
L 58.938181 -63.11 
L 59.467221 -63.11 
L 59.99626 -63.11 
L 60.5253 -63.11 
L 61.054339 -63.11 
L 61.583378 -63.11 
L 62.112418 -63.11 
L 62.641457 -63.11 
L 63.170497 -63.11 
L 63.699536 -63.11 
L 64.228576 -63.11 
L 64.757615 -63.11 
L 65.286655 -63.11 
L 65.815694 -63.11 
L 66.344734 -63.11 
L 66.873773 -63.11 
L 67.402813 -63.11 
L 67.931852 -63.11 
L 68.460892 -63.11 
L 68.989931 -63.11 
L 69.51897 -63.11 
L 70.04801 -63.11 
L 70.577049 -63.11 
L 71.106089 -63.11 
L 71.635128 -63.11 
L 72.164168 -63.11 
L 72.693207 -63.11 
L 73.222247 -63.11 
L 73.751286 -63.11 
L 74.280326 -63.11 
L 74.809365 -63.11 
L 75.338405 -63.11 
L 75.867444 -63.11 
L 76.396483 -63.11 
L 76.925523 -63.11 
L 77.454562 -63.11 
L 77.983602 -63.11 
L 78.512641 -63.11 
L 79.041681 -63.11 
L 79.57072 -63.11 
L 80.09976 -63.11 
L 80.628799 -63.11 
L 81.157839 -63.11 
L 81.686878 -63.11 
L 82.215918 -63.11 
L 82.744957 -63.11 
L 83.273997 -63.11 
L 83.803036 -63.11 
L 84.332075 -63.11 
L 84.861115 -63.11 
L 85.390154 -63.11 
L 85.919194 -63.11 
L 86.448233 -63.11 
L 86.977273 -63.11 
L 87.506312 -63.11 
L 88.035352 -63.11 
L 88.564391 -63.11 
L 89.093431 -63.11 
L 89.62247 -63.11 
L 90.15151 -63.11 
L 90.680549 -63.11 
L 91.209588 -63.11 
L 91.738628 -63.11 
L 92.267667 -63.11 
L 92.796707 -63.11 
L 93.325746 -63.11 
L 93.854786 -63.11 
L 94.383825 -63.11 
L 94.912865 -63.11 
L 95.441904 -63.11 
L 95.970944 -63.11 
L 96.499983 -63.11 
L 97.029023 -63.11 
L 97.558062 -63.11 
L 98.087102 -63.11 
L 98.616141 -63.11 
L 99.14518 -63.11 
L 99.67422 -63.11 
L 100.203259 -63.11 
L 100.732299 -63.11 
L 101.261338 -63.11 
L 101.790378 -63.11 
L 102.319417 -63.11 
L 102.848457 -63.11 
L 103.377496 -63.11 
L 103.906536 -63.11 
L 104.435575 -63.11 
L 104.964615 -63.11 
L 105.493654 -63.11 
L 106.022694 -63.11 
L 106.551733 -63.11 
L 107.080772 -63.11 
L 107.609812 -63.11 
L 108.138851 -63.11 
L 108.667891 -63.11 
L 109.19693 -63.11 
L 109.72597 -63.11 
L 110.255009 -63.11 
L 110.784049 -63.11 
L 111.313088 -63.11 
L 111.842128 -63.11 
L 112.371167 -63.11 
L 112.900207 -63.11 
L 113.429246 -63.11 
L 113.958285 -63.11 
L 114.487325 -63.11 
L 115.016364 -63.11 
L 115.545404 -63.11 
L 116.074443 -63.11 
L 116.603483 -63.11 
L 117.132522 -63.11 
L 117.661562 -63.11 
L 118.190601 -63.11 
L 118.719641 -63.11 
L 119.24868 -63.11 
L 119.77772 -63.11 
L 120.306759 -63.11 
L 120.835799 -63.11 
L 121.364838 -63.11 
L 121.893877 -63.11 
L 122.422917 -63.11 
L 122.951956 -63.11 
L 123.480996 -63.11 
L 124.010035 -63.11 
L 124.539075 -63.11 
L 125.068114 -63.11 
L 125.597154 -63.11 
L 126.126193 -63.11 
L 126.655233 -63.11 
L 127.184272 -63.11 
L 127.713312 -63.11 
L 128.242351 -63.11 
L 128.771391 -63.11 
L 129.30043 -63.11 
L 129.829469 -63.11 
L 130.358509 -63.11 
L 130.887548 -63.11 
L 131.416588 -63.11 
L 131.945627 -63.11 
L 132.474667 -63.11 
L 133.003706 -63.11 
L 133.532746 -63.11 
L 134.061785 -63.11 
L 134.590825 -63.11 
L 135.119864 -63.11 
L 135.648904 -63.11 
L 136.177943 -63.11 
L 136.706982 -63.11 
L 137.236022 -63.11 
L 137.765061 -63.11 
L 138.294101 -63.11 
L 138.82314 -63.11 
L 139.35218 -63.11 
L 139.881219 -63.11 
L 140.410259 -63.11 
L 140.939298 -63.11 
L 141.468338 -63.11 
L 141.997377 -63.11 
L 142.526417 -63.11 
L 143.055456 -63.11 
L 143.584496 -63.11 
L 144.113535 -63.11 
L 144.642574 -63.11 
L 145.171614 -63.11 
L 145.700653 -63.11 
L 146.229693 -63.11 
L 146.758732 -63.11 
L 147.287772 -63.11 
L 147.816811 -63.11 
L 148.345851 -63.11 
L 148.87489 -63.11 
L 149.40393 -63.11 
L 149.932969 -63.11 
L 150.462009 -63.11 
L 150.991048 -63.11 
L 151.520088 -63.11 
L 152.049127 -63.11 
L 152.578166 -63.11 
L 153.107206 -63.11 
L 153.636245 -63.11 
L 154.165285 -63.11 
L 154.694324 -63.11 
L 155.223364 -63.11 
L 155.752403 -63.11 
L 156.281443 -63.11 
L 156.810482 -63.11 
L 157.339522 -63.11 
L 157.868561 -63.11 
L 158.397601 -63.11 
L 158.92664 -63.11 
L 159.455679 -63.11 
L 159.984719 -63.11 
L 160.513758 -63.11 
L 161.042798 -63.11 
L 161.571837 -63.11 
L 162.100877 -63.11 
L 162.100877 -63.488381 
L 162.100877 -63.488381 
L 161.571837 -63.549787 
L 161.042798 -63.619351 
L 160.513758 -63.697847 
L 159.984719 -63.786068 
L 159.455679 -63.884819 
L 158.92664 -63.994898 
L 158.397601 -64.117088 
L 157.868561 -64.252135 
L 157.339522 -64.400729 
L 156.810482 -64.563489 
L 156.281443 -64.740934 
L 155.752403 -64.933468 
L 155.223364 -65.14135 
L 154.694324 -65.364682 
L 154.165285 -65.603381 
L 153.636245 -65.857168 
L 153.107206 -66.125553 
L 152.578166 -66.407823 
L 152.049127 -66.703042 
L 151.520088 -67.010047 
L 150.991048 -67.327459 
L 150.462009 -67.653692 
L 149.932969 -67.986971 
L 149.40393 -68.325354 
L 148.87489 -68.666763 
L 148.345851 -69.009009 
L 147.816811 -69.34983 
L 147.287772 -69.686923 
L 146.758732 -70.017981 
L 146.229693 -70.340727 
L 145.700653 -70.652946 
L 145.171614 -70.952514 
L 144.642574 -71.237428 
L 144.113535 -71.505822 
L 143.584496 -71.755992 
L 143.055456 -71.986403 
L 142.526417 -72.195705 
L 141.997377 -72.382734 
L 141.468338 -72.546519 
L 140.939298 -72.68628 
L 140.410259 -72.801432 
L 139.881219 -72.891578 
L 139.35218 -72.956513 
L 138.82314 -72.996224 
L 138.294101 -73.010884 
L 137.765061 -73.000863 
L 137.236022 -72.966722 
L 136.706982 -72.909223 
L 136.177943 -72.829327 
L 135.648904 -72.728204 
L 135.119864 -72.607233 
L 134.590825 -72.468004 
L 134.061785 -72.312322 
L 133.532746 -72.142197 
L 133.003706 -71.95985 
L 132.474667 -71.767693 
L 131.945627 -71.568326 
L 131.416588 -71.364515 
L 130.887548 -71.159175 
L 130.358509 -70.955345 
L 129.829469 -70.756161 
L 129.30043 -70.564824 
L 128.771391 -70.384571 
L 128.242351 -70.21863 
L 127.713312 -70.07019 
L 127.184272 -69.942357 
L 126.655233 -69.838109 
L 126.126193 -69.76026 
L 125.597154 -69.711413 
L 125.068114 -69.693919 
L 124.539075 -69.709836 
L 124.010035 -69.76089 
L 123.480996 -69.848438 
L 122.951956 -69.973434 
L 122.422917 -70.136403 
L 121.893877 -70.337416 
L 121.364838 -70.576077 
L 120.835799 -70.851509 
L 120.306759 -71.16236 
L 119.77772 -71.50681 
L 119.24868 -71.882589 
L 118.719641 -72.287007 
L 118.190601 -72.716995 
L 117.661562 -73.169149 
L 117.132522 -73.639795 
L 116.603483 -74.125048 
L 116.074443 -74.620884 
L 115.545404 -75.123219 
L 115.016364 -75.627979 
L 114.487325 -76.131183 
L 113.958285 -76.629012 
L 113.429246 -77.117877 
L 112.900207 -77.594475 
L 112.371167 -78.055844 
L 111.842128 -78.499393 
L 111.313088 -78.922929 
L 110.784049 -79.324665 
L 110.255009 -79.703217 
L 109.72597 -80.057584 
L 109.19693 -80.387121 
L 108.667891 -80.691494 
L 108.138851 -80.970636 
L 107.609812 -81.224691 
L 107.080772 -81.453953 
L 106.551733 -81.658814 
L 106.022694 -81.839703 
L 105.493654 -81.997041 
L 104.964615 -82.131193 
L 104.435575 -82.242439 
L 103.906536 -82.330946 
L 103.377496 -82.396757 
L 102.848457 -82.439788 
L 102.319417 -82.459836 
L 101.790378 -82.456596 
L 101.261338 -82.429686 
L 100.732299 -82.378679 
L 100.203259 -82.30314 
L 99.67422 -82.202662 
L 99.14518 -82.076905 
L 98.616141 -81.925637 
L 98.087102 -81.748764 
L 97.558062 -81.546366 
L 97.029023 -81.318718 
L 96.499983 -81.066312 
L 95.970944 -80.789871 
L 95.441904 -80.490353 
L 94.912865 -80.168957 
L 94.383825 -79.827113 
L 93.854786 -79.466475 
L 93.325746 -79.088903 
L 92.796707 -78.696446 
L 92.267667 -78.291317 
L 91.738628 -77.875868 
L 91.209588 -77.452559 
L 90.680549 -77.023928 
L 90.15151 -76.592562 
L 89.62247 -76.161059 
L 89.093431 -75.731994 
L 88.564391 -75.30789 
L 88.035352 -74.891176 
L 87.506312 -74.484162 
L 86.977273 -74.088998 
L 86.448233 -73.707652 
L 85.919194 -73.341873 
L 85.390154 -72.993171 
L 84.861115 -72.662792 
L 84.332075 -72.3517 
L 83.803036 -72.06056 
L 83.273997 -71.789731 
L 82.744957 -71.53926 
L 82.215918 -71.308884 
L 81.686878 -71.098033 
L 81.157839 -70.905847 
L 80.628799 -70.731186 
L 80.09976 -70.572663 
L 79.57072 -70.428663 
L 79.041681 -70.297379 
L 78.512641 -70.176851 
L 77.983602 -70.065002 
L 77.454562 -69.959683 
L 76.925523 -69.858716 
L 76.396483 -69.75994 
L 75.867444 -69.661253 
L 75.338405 -69.560659 
L 74.809365 -69.456305 
L 74.280326 -69.346516 
L 73.751286 -69.229834 
L 73.222247 -69.105041 
L 72.693207 -68.971177 
L 72.164168 -68.827561 
L 71.635128 -68.673793 
L 71.106089 -68.50976 
L 70.577049 -68.335623 
L 70.04801 -68.151808 
L 69.51897 -67.958985 
L 68.989931 -67.758044 
L 68.460892 -67.550065 
L 67.931852 -67.336286 
L 67.402813 -67.118067 
L 66.873773 -66.896852 
L 66.344734 -66.674136 
L 65.815694 -66.451425 
L 65.286655 -66.230203 
L 64.757615 -66.011904 
L 64.228576 -65.79788 
L 63.699536 -65.589381 
L 63.170497 -65.387533 
L 62.641457 -65.193324 
L 62.112418 -65.007597 
L 61.583378 -64.831038 
L 61.054339 -64.664182 
L 60.5253 -64.507407 
L 59.99626 -64.36095 
L 59.467221 -64.224905 
L 58.938181 -64.09924 
L 58.409142 -63.983808 
L 57.880102 -63.878361 
L 57.351063 -63.782563 
L 56.822023 -63.696006 
z
" style="stroke: #2a788e; stroke-width: 1.25"/>
    </defs>
    <g>
     <use xlink:href="#m8fbac32a36" x="0" y="174.26" style="fill: #2a788e; fill-opacity: 0.7; stroke: #2a788e; stroke-width: 1.25"/>
    </g>
   </g>
   <g id="line2d_7">
    <path d="M 7.2 111.15 
L 216.45 111.15 
" style="fill: none; stroke: #2a788e; stroke-opacity: 0.9; stroke-linecap: round"/>
   </g>
   <g id="text_7">
    <!-- 6 -->
    <g style="fill: #2a788e" transform="translate(7.2 110.232) scale(0.12 -0.12)">
     <defs>
      <path id="IBMPlexSans-Bold-36" d="M 1946 -77 
Q 1549 -77 1235 48 
Q 922 173 707 406 
Q 493 640 381 966 
Q 269 1293 269 1696 
Q 269 2163 413 2582 
Q 557 3002 784 3357 
Q 1011 3712 1296 3993 
Q 1581 4275 1869 4467 
L 3194 4467 
Q 2784 4173 2457 3907 
Q 2131 3642 1891 3373 
Q 1651 3104 1494 2825 
Q 1338 2547 1274 2227 
L 1331 2208 
Q 1389 2336 1469 2457 
Q 1549 2579 1667 2672 
Q 1786 2765 1946 2822 
Q 2106 2880 2317 2880 
Q 2592 2880 2832 2781 
Q 3072 2682 3248 2502 
Q 3424 2323 3523 2064 
Q 3622 1805 3622 1491 
Q 3622 1146 3504 858 
Q 3386 570 3165 362 
Q 2944 154 2637 38 
Q 2330 -77 1946 -77 
z
M 1946 672 
Q 2266 672 2445 848 
Q 2624 1024 2624 1350 
L 2624 1466 
Q 2624 1792 2445 1968 
Q 2266 2144 1946 2144 
Q 1626 2144 1446 1968 
Q 1267 1792 1267 1466 
L 1267 1350 
Q 1267 1024 1446 848 
Q 1626 672 1946 672 
z
" transform="scale(0.015625)"/>
     </defs>
     <use xlink:href="#IBMPlexSans-Bold-36"/>
    </g>
   </g>
  </g>
  <g id="axes_8">
   <g id="patch_9">
    <path d="M 7.2 121.545 
L 216.45 121.545 
L 216.45 79.965 
L 7.2 79.965 
L 7.2 121.545 
z
" style="fill: none"/>
   </g>
   <g id="matplotlib.axis_15">
    <g id="xtick_22"/>
    <g id="xtick_23"/>
    <g id="xtick_24"/>
   </g>
   <g id="matplotlib.axis_16"/>
   <g id="FillBetweenPolyCollection_7">
    <defs>
     <path id="m467422be6c" d="M 67.621245 -52.906961 
L 67.621245 -52.715 
L 68.06712 -52.715 
L 68.512995 -52.715 
L 68.95887 -52.715 
L 69.404744 -52.715 
L 69.850619 -52.715 
L 70.296494 -52.715 
L 70.742369 -52.715 
L 71.188243 -52.715 
L 71.634118 -52.715 
L 72.079993 -52.715 
L 72.525868 -52.715 
L 72.971742 -52.715 
L 73.417617 -52.715 
L 73.863492 -52.715 
L 74.309367 -52.715 
L 74.755241 -52.715 
L 75.201116 -52.715 
L 75.646991 -52.715 
L 76.092865 -52.715 
L 76.53874 -52.715 
L 76.984615 -52.715 
L 77.43049 -52.715 
L 77.876364 -52.715 
L 78.322239 -52.715 
L 78.768114 -52.715 
L 79.213989 -52.715 
L 79.659863 -52.715 
L 80.105738 -52.715 
L 80.551613 -52.715 
L 80.997488 -52.715 
L 81.443362 -52.715 
L 81.889237 -52.715 
L 82.335112 -52.715 
L 82.780987 -52.715 
L 83.226861 -52.715 
L 83.672736 -52.715 
L 84.118611 -52.715 
L 84.564486 -52.715 
L 85.01036 -52.715 
L 85.456235 -52.715 
L 85.90211 -52.715 
L 86.347985 -52.715 
L 86.793859 -52.715 
L 87.239734 -52.715 
L 87.685609 -52.715 
L 88.131484 -52.715 
L 88.577358 -52.715 
L 89.023233 -52.715 
L 89.469108 -52.715 
L 89.914983 -52.715 
L 90.360857 -52.715 
L 90.806732 -52.715 
L 91.252607 -52.715 
L 91.698482 -52.715 
L 92.144356 -52.715 
L 92.590231 -52.715 
L 93.036106 -52.715 
L 93.481981 -52.715 
L 93.927855 -52.715 
L 94.37373 -52.715 
L 94.819605 -52.715 
L 95.26548 -52.715 
L 95.711354 -52.715 
L 96.157229 -52.715 
L 96.603104 -52.715 
L 97.048978 -52.715 
L 97.494853 -52.715 
L 97.940728 -52.715 
L 98.386603 -52.715 
L 98.832477 -52.715 
L 99.278352 -52.715 
L 99.724227 -52.715 
L 100.170102 -52.715 
L 100.615976 -52.715 
L 101.061851 -52.715 
L 101.507726 -52.715 
L 101.953601 -52.715 
L 102.399475 -52.715 
L 102.84535 -52.715 
L 103.291225 -52.715 
L 103.7371 -52.715 
L 104.182974 -52.715 
L 104.628849 -52.715 
L 105.074724 -52.715 
L 105.520599 -52.715 
L 105.966473 -52.715 
L 106.412348 -52.715 
L 106.858223 -52.715 
L 107.304098 -52.715 
L 107.749972 -52.715 
L 108.195847 -52.715 
L 108.641722 -52.715 
L 109.087597 -52.715 
L 109.533471 -52.715 
L 109.979346 -52.715 
L 110.425221 -52.715 
L 110.871096 -52.715 
L 111.31697 -52.715 
L 111.762845 -52.715 
L 112.20872 -52.715 
L 112.654595 -52.715 
L 113.100469 -52.715 
L 113.546344 -52.715 
L 113.992219 -52.715 
L 114.438094 -52.715 
L 114.883968 -52.715 
L 115.329843 -52.715 
L 115.775718 -52.715 
L 116.221593 -52.715 
L 116.667467 -52.715 
L 117.113342 -52.715 
L 117.559217 -52.715 
L 118.005092 -52.715 
L 118.450966 -52.715 
L 118.896841 -52.715 
L 119.342716 -52.715 
L 119.78859 -52.715 
L 120.234465 -52.715 
L 120.68034 -52.715 
L 121.126215 -52.715 
L 121.572089 -52.715 
L 122.017964 -52.715 
L 122.463839 -52.715 
L 122.909714 -52.715 
L 123.355588 -52.715 
L 123.801463 -52.715 
L 124.247338 -52.715 
L 124.693213 -52.715 
L 125.139087 -52.715 
L 125.584962 -52.715 
L 126.030837 -52.715 
L 126.476712 -52.715 
L 126.922586 -52.715 
L 127.368461 -52.715 
L 127.814336 -52.715 
L 128.260211 -52.715 
L 128.706085 -52.715 
L 129.15196 -52.715 
L 129.597835 -52.715 
L 130.04371 -52.715 
L 130.489584 -52.715 
L 130.935459 -52.715 
L 131.381334 -52.715 
L 131.827209 -52.715 
L 132.273083 -52.715 
L 132.718958 -52.715 
L 133.164833 -52.715 
L 133.610708 -52.715 
L 134.056582 -52.715 
L 134.502457 -52.715 
L 134.948332 -52.715 
L 135.394207 -52.715 
L 135.840081 -52.715 
L 136.285956 -52.715 
L 136.731831 -52.715 
L 137.177706 -52.715 
L 137.62358 -52.715 
L 138.069455 -52.715 
L 138.51533 -52.715 
L 138.961205 -52.715 
L 139.407079 -52.715 
L 139.852954 -52.715 
L 140.298829 -52.715 
L 140.744703 -52.715 
L 141.190578 -52.715 
L 141.636453 -52.715 
L 142.082328 -52.715 
L 142.528202 -52.715 
L 142.974077 -52.715 
L 143.419952 -52.715 
L 143.865827 -52.715 
L 144.311701 -52.715 
L 144.757576 -52.715 
L 145.203451 -52.715 
L 145.649326 -52.715 
L 146.0952 -52.715 
L 146.541075 -52.715 
L 146.98695 -52.715 
L 147.432825 -52.715 
L 147.878699 -52.715 
L 148.324574 -52.715 
L 148.770449 -52.715 
L 149.216324 -52.715 
L 149.662198 -52.715 
L 150.108073 -52.715 
L 150.553948 -52.715 
L 150.999823 -52.715 
L 151.445697 -52.715 
L 151.891572 -52.715 
L 152.337447 -52.715 
L 152.783322 -52.715 
L 153.229196 -52.715 
L 153.675071 -52.715 
L 154.120946 -52.715 
L 154.566821 -52.715 
L 155.012695 -52.715 
L 155.45857 -52.715 
L 155.904445 -52.715 
L 156.35032 -52.715 
L 156.35032 -52.863861 
L 156.35032 -52.863861 
L 155.904445 -52.881528 
L 155.45857 -52.899408 
L 155.012695 -52.917228 
L 154.566821 -52.93473 
L 154.120946 -52.951698 
L 153.675071 -52.967973 
L 153.229196 -52.983476 
L 152.783322 -52.998225 
L 152.337447 -53.012345 
L 151.891572 -53.026078 
L 151.445697 -53.039775 
L 150.999823 -53.053898 
L 150.553948 -53.069001 
L 150.108073 -53.08571 
L 149.662198 -53.104704 
L 149.216324 -53.126687 
L 148.770449 -53.152357 
L 148.324574 -53.182386 
L 147.878699 -53.217391 
L 147.432825 -53.257917 
L 146.98695 -53.304421 
L 146.541075 -53.357267 
L 146.0952 -53.416726 
L 145.649326 -53.482986 
L 145.203451 -53.556174 
L 144.757576 -53.636384 
L 144.311701 -53.723715 
L 143.865827 -53.818319 
L 143.419952 -53.920453 
L 142.974077 -54.030534 
L 142.528202 -54.149192 
L 142.082328 -54.277317 
L 141.636453 -54.416099 
L 141.190578 -54.567045 
L 140.744703 -54.731981 
L 140.298829 -54.913022 
L 139.852954 -55.112528 
L 139.407079 -55.333017 
L 138.961205 -55.577062 
L 138.51533 -55.847168 
L 138.069455 -56.145634 
L 137.62358 -56.474407 
L 137.177706 -56.834947 
L 136.731831 -57.228107 
L 136.285956 -57.654038 
L 135.840081 -58.112135 
L 135.394207 -58.601016 
L 134.948332 -59.118559 
L 134.502457 -59.661978 
L 134.056582 -60.227941 
L 133.610708 -60.812731 
L 133.164833 -61.412428 
L 132.718958 -62.0231 
L 132.273083 -62.641005 
L 131.827209 -63.262763 
L 131.381334 -63.885519 
L 130.935459 -64.507048 
L 130.489584 -65.125829 
L 130.04371 -65.741061 
L 129.597835 -66.352636 
L 129.15196 -66.961057 
L 128.706085 -67.567328 
L 128.260211 -68.172813 
L 127.814336 -68.779082 
L 127.368461 -69.387751 
L 126.922586 -70.000342 
L 126.476712 -70.618152 
L 126.030837 -71.242157 
L 125.584962 -71.872941 
L 125.139087 -72.51066 
L 124.693213 -73.155027 
L 124.247338 -73.805321 
L 123.801463 -74.460408 
L 123.355588 -75.118763 
L 122.909714 -75.778498 
L 122.463839 -76.437373 
L 122.017964 -77.0928 
L 121.572089 -77.741839 
L 121.126215 -78.381184 
L 120.68034 -79.007151 
L 120.234465 -79.615667 
L 119.78859 -80.202279 
L 119.342716 -80.762176 
L 118.896841 -81.290239 
L 118.450966 -81.78112 
L 118.005092 -82.229343 
L 117.559217 -82.629436 
L 117.113342 -82.976068 
L 116.667467 -83.264211 
L 116.221593 -83.489288 
L 115.775718 -83.647326 
L 115.329843 -83.735081 
L 114.883968 -83.750149 
L 114.438094 -83.691047 
L 113.992219 -83.557266 
L 113.546344 -83.34929 
L 113.100469 -83.068598 
L 112.654595 -82.717633 
L 112.20872 -82.299755 
L 111.762845 -81.819176 
L 111.31697 -81.280885 
L 110.871096 -80.690558 
L 110.425221 -80.054468 
L 109.979346 -79.379379 
L 109.533471 -78.672441 
L 109.087597 -77.941074 
L 108.641722 -77.192843 
L 108.195847 -76.435333 
L 107.749972 -75.676005 
L 107.304098 -74.92206 
L 106.858223 -74.180286 
L 106.412348 -73.456915 
L 105.966473 -72.757481 
L 105.520599 -72.086688 
L 105.074724 -71.448295 
L 104.628849 -70.845029 
L 104.182974 -70.278518 
L 103.7371 -69.749268 
L 103.291225 -69.256672 
L 102.84535 -68.799063 
L 102.399475 -68.373808 
L 101.953601 -67.977435 
L 101.507726 -67.605802 
L 101.061851 -67.254288 
L 100.615976 -66.918006 
L 100.170102 -66.592025 
L 99.724227 -66.271592 
L 99.278352 -65.952343 
L 98.832477 -65.630491 
L 98.386603 -65.302987 
L 97.940728 -64.967643 
L 97.494853 -64.623206 
L 97.048978 -64.26939 
L 96.603104 -63.906859 
L 96.157229 -63.537168 
L 95.711354 -63.16265 
L 95.26548 -62.786285 
L 94.819605 -62.41153 
L 94.37373 -62.042132 
L 93.927855 -61.681939 
L 93.481981 -61.334711 
L 93.036106 -61.003937 
L 92.590231 -60.692679 
L 92.144356 -60.403438 
L 91.698482 -60.138056 
L 91.252607 -59.897644 
L 90.806732 -59.682556 
L 90.360857 -59.492393 
L 89.914983 -59.326038 
L 89.469108 -59.181724 
L 89.023233 -59.057127 
L 88.577358 -58.949474 
L 88.131484 -58.855667 
L 87.685609 -58.772405 
L 87.239734 -58.696317 
L 86.793859 -58.624081 
L 86.347985 -58.552525 
L 85.90211 -58.478725 
L 85.456235 -58.400076 
L 85.01036 -58.314338 
L 84.564486 -58.219673 
L 84.118611 -58.114653 
L 83.672736 -57.998261 
L 83.226861 -57.869868 
L 82.780987 -57.729213 
L 82.335112 -57.576369 
L 81.889237 -57.411716 
L 81.443362 -57.235905 
L 80.997488 -57.049831 
L 80.551613 -56.854609 
L 80.105738 -56.651548 
L 79.659863 -56.442124 
L 79.213989 -56.227961 
L 78.768114 -56.010799 
L 78.322239 -55.792458 
L 77.876364 -55.574807 
L 77.43049 -55.35971 
L 76.984615 -55.148985 
L 76.53874 -54.944349 
L 76.092865 -54.74737 
L 75.646991 -54.55942 
L 75.201116 -54.381635 
L 74.755241 -54.214888 
L 74.309367 -54.05977 
L 73.863492 -53.91659 
L 73.417617 -53.785383 
L 72.971742 -53.665936 
L 72.525868 -53.55782 
L 72.079993 -53.460434 
L 71.634118 -53.373051 
L 71.188243 -53.294863 
L 70.742369 -53.225031 
L 70.296494 -53.162717 
L 69.850619 -53.107125 
L 69.404744 -53.057518 
L 68.95887 -53.013235 
L 68.512995 -52.973698 
L 68.06712 -52.938414 
L 67.621245 -52.906961 
z
" style="stroke: #22a884; stroke-width: 1.25"/>
    </defs>
    <g>
     <use xlink:href="#m467422be6c" x="0" y="174.26" style="fill: #22a884; fill-opacity: 0.7; stroke: #22a884; stroke-width: 1.25"/>
    </g>
   </g>
   <g id="line2d_8">
    <path d="M 7.2 121.545 
L 216.45 121.545 
" style="fill: none; stroke: #22a884; stroke-opacity: 0.9; stroke-linecap: round"/>
   </g>
   <g id="text_8">
    <!-- 7 -->
    <g style="fill: #22a884" transform="translate(7.2 120.627) scale(0.12 -0.12)">
     <defs>
      <path id="IBMPlexSans-Bold-37" d="M 1062 0 
L 2560 3686 
L 1165 3686 
L 1165 2874 
L 352 2874 
L 352 4467 
L 3514 4467 
L 3514 3635 
L 2074 0 
L 1062 0 
z
" transform="scale(0.015625)"/>
     </defs>
     <use xlink:href="#IBMPlexSans-Bold-37"/>
    </g>
   </g>
  </g>
  <g id="axes_9">
   <g id="patch_10">
    <path d="M 7.2 131.94 
L 216.45 131.94 
L 216.45 90.36 
L 7.2 90.36 
L 7.2 131.94 
z
" style="fill: none"/>
   </g>
   <g id="matplotlib.axis_17">
    <g id="xtick_25">
     <g id="text_9">
      <!-- 2 -->
      <g style="fill: #838383" transform="translate(51.676132 149.58) scale(0.11 -0.11)">
       <defs>
        <path id="IBMPlexSans-Regular-2212" d="M 429 1734 
L 429 2170 
L 3411 2170 
L 3411 1734 
L 429 1734 
z
" transform="scale(0.015625)"/>
        <path id="IBMPlexSans-Regular-32" d="M 3411 0 
L 480 0 
L 480 550 
L 1939 1894 
Q 2253 2182 2464 2505 
Q 2675 2829 2675 3155 
L 2675 3232 
Q 2675 3603 2470 3833 
Q 2266 4064 1850 4064 
Q 1645 4064 1491 4006 
Q 1338 3949 1226 3846 
Q 1114 3744 1040 3606 
Q 966 3469 922 3309 
L 442 3494 
Q 506 3693 618 3881 
Q 730 4070 899 4217 
Q 1069 4365 1309 4454 
Q 1549 4544 1875 4544 
Q 2202 4544 2458 4448 
Q 2714 4352 2886 4179 
Q 3059 4006 3152 3769 
Q 3245 3533 3245 3245 
Q 3245 2982 3171 2758 
Q 3098 2534 2970 2332 
Q 2842 2131 2659 1939 
Q 2477 1747 2266 1555 
L 1062 474 
L 3411 474 
L 3411 0 
z
" transform="scale(0.015625)"/>
       </defs>
       <use xlink:href="#IBMPlexSans-Regular-2212"/>
       <use xlink:href="#IBMPlexSans-Regular-32" transform="translate(59.999985 0)"/>
      </g>
     </g>
    </g>
    <g id="xtick_26">
     <g id="text_10">
      <!-- 0 -->
      <g style="fill: #838383" transform="translate(113.295424 149.58) scale(0.11 -0.11)">
       <defs>
        <path id="IBMPlexSans-Regular-30" d="M 1920 -77 
Q 1120 -77 752 531 
Q 384 1139 384 2234 
Q 384 3328 752 3936 
Q 1120 4544 1920 4544 
Q 2720 4544 3088 3936 
Q 3456 3328 3456 2234 
Q 3456 1139 3088 531 
Q 2720 -77 1920 -77 
z
M 1920 390 
Q 2182 390 2368 499 
Q 2554 608 2669 806 
Q 2784 1005 2838 1273 
Q 2893 1542 2893 1869 
L 2893 2598 
Q 2893 2925 2838 3193 
Q 2784 3462 2669 3660 
Q 2554 3859 2368 3968 
Q 2182 4077 1920 4077 
Q 1658 4077 1472 3968 
Q 1286 3859 1171 3660 
Q 1056 3462 1001 3193 
Q 947 2925 947 2598 
L 947 1869 
Q 947 1542 1001 1273 
Q 1056 1005 1171 806 
Q 1286 608 1472 499 
Q 1658 390 1920 390 
z
" transform="scale(0.015625)"/>
       </defs>
       <use xlink:href="#IBMPlexSans-Regular-30"/>
      </g>
     </g>
    </g>
    <g id="xtick_27">
     <g id="text_11">
      <!-- 2 -->
      <g style="fill: #838383" transform="translate(171.614715 149.58) scale(0.11 -0.11)">
       <use xlink:href="#IBMPlexSans-Regular-32"/>
      </g>
     </g>
    </g>
    <g id="text_12">
     <!-- sld -->
     <g style="fill: #262626" transform="translate(103.790625 164.66) scale(0.12 -0.12)">
      <defs>
       <path id="IBMPlexSans-Regular-73" d="M 1536 -77 
Q 1075 -77 764 99 
Q 454 275 230 570 
L 595 864 
Q 787 621 1024 489 
Q 1261 358 1574 358 
Q 1901 358 2083 499 
Q 2266 640 2266 896 
Q 2266 1088 2141 1225 
Q 2016 1363 1690 1414 
L 1427 1453 
Q 1197 1485 1005 1552 
Q 813 1619 669 1731 
Q 525 1843 445 2009 
Q 365 2176 365 2406 
Q 365 2650 454 2832 
Q 544 3014 701 3136 
Q 858 3258 1075 3318 
Q 1293 3379 1542 3379 
Q 1946 3379 2218 3238 
Q 2490 3098 2694 2848 
L 2355 2541 
Q 2246 2694 2035 2819 
Q 1824 2944 1504 2944 
Q 1184 2944 1021 2806 
Q 858 2669 858 2432 
Q 858 2189 1021 2080 
Q 1184 1971 1491 1920 
L 1747 1882 
Q 2298 1798 2528 1564 
Q 2758 1331 2758 954 
Q 2758 474 2432 198 
Q 2106 -77 1536 -77 
z
" transform="scale(0.015625)"/>
       <path id="IBMPlexSans-Regular-6c" d="M 1088 0 
Q 819 0 681 150 
Q 544 301 544 531 
L 544 4736 
L 1056 4736 
L 1056 448 
L 1542 448 
L 1542 0 
L 1088 0 
z
" transform="scale(0.015625)"/>
       <path id="IBMPlexSans-Regular-64" d="M 2656 538 
L 2630 538 
Q 2330 -77 1664 -77 
Q 1357 -77 1107 44 
Q 858 166 682 390 
Q 506 614 413 934 
Q 320 1254 320 1651 
Q 320 2048 413 2368 
Q 506 2688 682 2912 
Q 858 3136 1107 3257 
Q 1357 3379 1664 3379 
Q 2010 3379 2256 3228 
Q 2502 3078 2630 2765 
L 2656 2765 
L 2656 4736 
L 3168 4736 
L 3168 0 
L 2656 0 
L 2656 538 
z
M 1805 384 
Q 1978 384 2134 429 
Q 2291 474 2406 560 
Q 2522 646 2589 771 
Q 2656 896 2656 1056 
L 2656 2285 
Q 2656 2419 2589 2537 
Q 2522 2656 2406 2739 
Q 2291 2822 2134 2870 
Q 1978 2918 1805 2918 
Q 1370 2918 1120 2646 
Q 870 2374 870 1933 
L 870 1370 
Q 870 928 1120 656 
Q 1370 384 1805 384 
z
" transform="scale(0.015625)"/>
      </defs>
      <use xlink:href="#IBMPlexSans-Regular-73"/>
      <use xlink:href="#IBMPlexSans-Regular-6c" transform="translate(48.699997 0)"/>
      <use xlink:href="#IBMPlexSans-Regular-64" transform="translate(75.899994 0)"/>
     </g>
    </g>
   </g>
   <g id="matplotlib.axis_18"/>
   <g id="FillBetweenPolyCollection_8">
    <defs>
     <path id="m17ea97a58e" d="M 75.974373 -42.554864 
L 75.974373 -42.32 
L 76.40578 -42.32 
L 76.837187 -42.32 
L 77.268593 -42.32 
L 77.7 -42.32 
L 78.131407 -42.32 
L 78.562813 -42.32 
L 78.99422 -42.32 
L 79.425627 -42.32 
L 79.857033 -42.32 
L 80.28844 -42.32 
L 80.719846 -42.32 
L 81.151253 -42.32 
L 81.58266 -42.32 
L 82.014066 -42.32 
L 82.445473 -42.32 
L 82.87688 -42.32 
L 83.308286 -42.32 
L 83.739693 -42.32 
L 84.171099 -42.32 
L 84.602506 -42.32 
L 85.033913 -42.32 
L 85.465319 -42.32 
L 85.896726 -42.32 
L 86.328133 -42.32 
L 86.759539 -42.32 
L 87.190946 -42.32 
L 87.622353 -42.32 
L 88.053759 -42.32 
L 88.485166 -42.32 
L 88.916572 -42.32 
L 89.347979 -42.32 
L 89.779386 -42.32 
L 90.210792 -42.32 
L 90.642199 -42.32 
L 91.073606 -42.32 
L 91.505012 -42.32 
L 91.936419 -42.32 
L 92.367825 -42.32 
L 92.799232 -42.32 
L 93.230639 -42.32 
L 93.662045 -42.32 
L 94.093452 -42.32 
L 94.524859 -42.32 
L 94.956265 -42.32 
L 95.387672 -42.32 
L 95.819078 -42.32 
L 96.250485 -42.32 
L 96.681892 -42.32 
L 97.113298 -42.32 
L 97.544705 -42.32 
L 97.976112 -42.32 
L 98.407518 -42.32 
L 98.838925 -42.32 
L 99.270332 -42.32 
L 99.701738 -42.32 
L 100.133145 -42.32 
L 100.564551 -42.32 
L 100.995958 -42.32 
L 101.427365 -42.32 
L 101.858771 -42.32 
L 102.290178 -42.32 
L 102.721585 -42.32 
L 103.152991 -42.32 
L 103.584398 -42.32 
L 104.015804 -42.32 
L 104.447211 -42.32 
L 104.878618 -42.32 
L 105.310024 -42.32 
L 105.741431 -42.32 
L 106.172838 -42.32 
L 106.604244 -42.32 
L 107.035651 -42.32 
L 107.467057 -42.32 
L 107.898464 -42.32 
L 108.329871 -42.32 
L 108.761277 -42.32 
L 109.192684 -42.32 
L 109.624091 -42.32 
L 110.055497 -42.32 
L 110.486904 -42.32 
L 110.918311 -42.32 
L 111.349717 -42.32 
L 111.781124 -42.32 
L 112.21253 -42.32 
L 112.643937 -42.32 
L 113.075344 -42.32 
L 113.50675 -42.32 
L 113.938157 -42.32 
L 114.369564 -42.32 
L 114.80097 -42.32 
L 115.232377 -42.32 
L 115.663783 -42.32 
L 116.09519 -42.32 
L 116.526597 -42.32 
L 116.958003 -42.32 
L 117.38941 -42.32 
L 117.820817 -42.32 
L 118.252223 -42.32 
L 118.68363 -42.32 
L 119.115036 -42.32 
L 119.546443 -42.32 
L 119.97785 -42.32 
L 120.409256 -42.32 
L 120.840663 -42.32 
L 121.27207 -42.32 
L 121.703476 -42.32 
L 122.134883 -42.32 
L 122.56629 -42.32 
L 122.997696 -42.32 
L 123.429103 -42.32 
L 123.860509 -42.32 
L 124.291916 -42.32 
L 124.723323 -42.32 
L 125.154729 -42.32 
L 125.586136 -42.32 
L 126.017543 -42.32 
L 126.448949 -42.32 
L 126.880356 -42.32 
L 127.311762 -42.32 
L 127.743169 -42.32 
L 128.174576 -42.32 
L 128.605982 -42.32 
L 129.037389 -42.32 
L 129.468796 -42.32 
L 129.900202 -42.32 
L 130.331609 -42.32 
L 130.763015 -42.32 
L 131.194422 -42.32 
L 131.625829 -42.32 
L 132.057235 -42.32 
L 132.488642 -42.32 
L 132.920049 -42.32 
L 133.351455 -42.32 
L 133.782862 -42.32 
L 134.214269 -42.32 
L 134.645675 -42.32 
L 135.077082 -42.32 
L 135.508488 -42.32 
L 135.939895 -42.32 
L 136.371302 -42.32 
L 136.802708 -42.32 
L 137.234115 -42.32 
L 137.665522 -42.32 
L 138.096928 -42.32 
L 138.528335 -42.32 
L 138.959741 -42.32 
L 139.391148 -42.32 
L 139.822555 -42.32 
L 140.253961 -42.32 
L 140.685368 -42.32 
L 141.116775 -42.32 
L 141.548181 -42.32 
L 141.979588 -42.32 
L 142.410994 -42.32 
L 142.842401 -42.32 
L 143.273808 -42.32 
L 143.705214 -42.32 
L 144.136621 -42.32 
L 144.568028 -42.32 
L 144.999434 -42.32 
L 145.430841 -42.32 
L 145.862248 -42.32 
L 146.293654 -42.32 
L 146.725061 -42.32 
L 147.156467 -42.32 
L 147.587874 -42.32 
L 148.019281 -42.32 
L 148.450687 -42.32 
L 148.882094 -42.32 
L 149.313501 -42.32 
L 149.744907 -42.32 
L 150.176314 -42.32 
L 150.60772 -42.32 
L 151.039127 -42.32 
L 151.470534 -42.32 
L 151.90194 -42.32 
L 152.333347 -42.32 
L 152.764754 -42.32 
L 153.19616 -42.32 
L 153.627567 -42.32 
L 154.058974 -42.32 
L 154.49038 -42.32 
L 154.921787 -42.32 
L 155.353193 -42.32 
L 155.7846 -42.32 
L 156.216007 -42.32 
L 156.647413 -42.32 
L 157.07882 -42.32 
L 157.510227 -42.32 
L 157.941633 -42.32 
L 158.37304 -42.32 
L 158.804446 -42.32 
L 159.235853 -42.32 
L 159.66726 -42.32 
L 160.098666 -42.32 
L 160.530073 -42.32 
L 160.96148 -42.32 
L 161.392886 -42.32 
L 161.824293 -42.32 
L 161.824293 -42.461242 
L 161.824293 -42.461242 
L 161.392886 -42.476195 
L 160.96148 -42.490986 
L 160.530073 -42.505326 
L 160.098666 -42.518935 
L 159.66726 -42.531567 
L 159.235853 -42.543026 
L 158.804446 -42.553187 
L 158.37304 -42.562019 
L 157.941633 -42.569598 
L 157.510227 -42.576125 
L 157.07882 -42.581932 
L 156.647413 -42.587489 
L 156.216007 -42.593401 
L 155.7846 -42.6004 
L 155.353193 -42.609336 
L 154.921787 -42.621152 
L 154.49038 -42.636869 
L 154.058974 -42.657554 
L 153.627567 -42.68429 
L 153.19616 -42.718152 
L 152.764754 -42.760168 
L 152.333347 -42.811296 
L 151.90194 -42.872391 
L 151.470534 -42.944188 
L 151.039127 -43.027279 
L 150.60772 -43.122104 
L 150.176314 -43.228943 
L 149.744907 -43.347925 
L 149.313501 -43.479033 
L 148.882094 -43.622125 
L 148.450687 -43.776964 
L 148.019281 -43.94325 
L 147.587874 -44.120662 
L 147.156467 -44.3089 
L 146.725061 -44.507731 
L 146.293654 -44.717034 
L 145.862248 -44.936842 
L 145.430841 -45.167373 
L 144.999434 -45.409062 
L 144.568028 -45.662566 
L 144.136621 -45.92877 
L 143.705214 -46.208772 
L 143.273808 -46.503847 
L 142.842401 -46.81541 
L 142.410994 -47.144949 
L 141.979588 -47.493957 
L 141.548181 -47.863855 
L 141.116775 -48.255899 
L 140.685368 -48.671101 
L 140.253961 -49.110139 
L 139.822555 -49.573285 
L 139.391148 -50.060332 
L 138.959741 -50.570551 
L 138.528335 -51.102646 
L 138.096928 -51.654751 
L 137.665522 -52.224428 
L 137.234115 -52.808696 
L 136.802708 -53.404087 
L 136.371302 -54.006709 
L 135.939895 -54.612342 
L 135.508488 -55.21654 
L 135.077082 -55.814754 
L 134.645675 -56.402459 
L 134.214269 -56.975292 
L 133.782862 -57.529186 
L 133.351455 -58.060501 
L 132.920049 -58.566145 
L 132.488642 -59.043674 
L 132.057235 -59.49138 
L 131.625829 -59.908343 
L 131.194422 -60.29446 
L 130.763015 -60.650438 
L 130.331609 -60.977755 
L 129.900202 -61.278595 
L 129.468796 -61.555743 
L 129.037389 -61.812471 
L 128.605982 -62.052396 
L 128.174576 -62.279327 
L 127.743169 -62.497121 
L 127.311762 -62.709526 
L 126.880356 -62.920053 
L 126.448949 -63.13185 
L 126.017543 -63.347608 
L 125.586136 -63.569483 
L 125.154729 -63.799048 
L 124.723323 -64.037265 
L 124.291916 -64.284479 
L 123.860509 -64.540431 
L 123.429103 -64.804285 
L 122.997696 -65.074666 
L 122.56629 -65.34971 
L 122.134883 -65.627112 
L 121.703476 -65.904184 
L 121.27207 -66.177919 
L 120.840663 -66.445051 
L 120.409256 -66.702122 
L 119.97785 -66.945557 
L 119.546443 -67.17174 
L 119.115036 -67.377091 
L 118.68363 -67.558153 
L 118.252223 -67.711675 
L 117.820817 -67.834693 
L 117.38941 -67.924614 
L 116.958003 -67.979282 
L 116.526597 -67.99704 
L 116.09519 -67.976779 
L 115.663783 -67.917973 
L 115.232377 -67.820693 
L 114.80097 -67.685612 
L 114.369564 -67.513998 
L 113.938157 -67.307686 
L 113.50675 -67.069045 
L 113.075344 -66.800928 
L 112.643937 -66.506621 
L 112.21253 -66.189768 
L 111.781124 -65.854295 
L 111.349717 -65.504314 
L 110.918311 -65.144016 
L 110.486904 -64.777549 
L 110.055497 -64.408891 
L 109.624091 -64.041698 
L 109.192684 -63.679172 
L 108.761277 -63.323912 
L 108.329871 -62.977794 
L 107.898464 -62.641869 
L 107.467057 -62.316295 
L 107.035651 -62.000316 
L 106.604244 -61.692283 
L 106.172838 -61.389737 
L 105.741431 -61.089541 
L 105.310024 -60.788054 
L 104.878618 -60.481349 
L 104.447211 -60.165456 
L 104.015804 -59.83661 
L 103.584398 -59.491496 
L 103.152991 -59.127465 
L 102.721585 -58.742714 
L 102.290178 -58.336413 
L 101.858771 -57.908771 
L 101.427365 -57.461044 
L 100.995958 -56.995471 
L 100.564551 -56.515168 
L 100.133145 -56.023964 
L 99.701738 -55.526216 
L 99.270332 -55.026597 
L 98.838925 -54.529882 
L 98.407518 -54.040746 
L 97.976112 -53.563583 
L 97.544705 -53.102345 
L 97.113298 -52.660423 
L 96.681892 -52.240558 
L 96.250485 -51.844788 
L 95.819078 -51.474426 
L 95.387672 -51.130058 
L 94.956265 -50.811576 
L 94.524859 -50.518211 
L 94.093452 -50.248595 
L 93.662045 -50.000821 
L 93.230639 -49.772516 
L 92.799232 -49.560926 
L 92.367825 -49.362999 
L 91.936419 -49.17548 
L 91.505012 -48.995018 
L 91.073606 -48.818266 
L 90.642199 -48.641996 
L 90.210792 -48.463209 
L 89.779386 -48.279237 
L 89.347979 -48.087845 
L 88.916572 -47.887306 
L 88.485166 -47.67647 
L 88.053759 -47.454794 
L 87.622353 -47.222357 
L 87.190946 -46.979843 
L 86.759539 -46.728489 
L 86.328133 -46.470022 
L 85.896726 -46.206562 
L 85.465319 -45.940513 
L 85.033913 -45.67445 
L 84.602506 -45.410999 
L 84.171099 -45.152721 
L 83.739693 -44.902013 
L 83.308286 -44.661018 
L 82.87688 -44.431557 
L 82.445473 -44.215089 
L 82.014066 -44.012685 
L 81.58266 -43.825026 
L 81.151253 -43.652421 
L 80.719846 -43.494842 
L 80.28844 -43.351967 
L 79.857033 -43.223232 
L 79.425627 -43.107891 
L 78.99422 -43.005061 
L 78.562813 -42.913786 
L 78.131407 -42.833072 
L 77.7 -42.761931 
L 77.268593 -42.699407 
L 76.837187 -42.644598 
L 76.40578 -42.59667 
L 75.974373 -42.554864 
z
" style="stroke: #7ad151; stroke-width: 1.25"/>
    </defs>
    <g>
     <use xlink:href="#m17ea97a58e" x="0" y="174.26" style="fill: #7ad151; fill-opacity: 0.7; stroke: #7ad151; stroke-width: 1.25"/>
    </g>
   </g>
   <g id="line2d_9">
    <path d="M 7.2 131.94 
L 216.45 131.94 
" style="fill: none; stroke: #7ad151; stroke-opacity: 0.9; stroke-linecap: round"/>
   </g>
   <g id="text_13">
    <!-- 8 -->
    <g style="fill: #7ad151" transform="translate(7.2 131.022) scale(0.12 -0.12)">
     <defs>
      <path id="IBMPlexSans-Bold-38" d="M 1920 -77 
Q 1523 -77 1212 22 
Q 902 122 691 294 
Q 480 467 368 704 
Q 256 941 256 1222 
Q 256 1651 493 1923 
Q 730 2195 1133 2304 
L 1133 2355 
Q 806 2477 598 2726 
Q 390 2976 390 3366 
Q 390 3622 489 3840 
Q 589 4058 784 4214 
Q 979 4371 1264 4457 
Q 1549 4544 1920 4544 
Q 2291 4544 2576 4457 
Q 2861 4371 3056 4214 
Q 3251 4058 3350 3840 
Q 3450 3622 3450 3366 
Q 3450 2976 3242 2726 
Q 3034 2477 2707 2355 
L 2707 2304 
Q 3110 2195 3347 1923 
Q 3584 1651 3584 1222 
Q 3584 941 3472 704 
Q 3360 467 3149 294 
Q 2938 122 2627 22 
Q 2317 -77 1920 -77 
z
M 1920 659 
Q 2240 659 2409 809 
Q 2579 960 2579 1229 
L 2579 1357 
Q 2579 1626 2409 1776 
Q 2240 1926 1920 1926 
Q 1600 1926 1430 1776 
Q 1261 1626 1261 1357 
L 1261 1229 
Q 1261 960 1430 809 
Q 1600 659 1920 659 
z
M 1920 2630 
Q 2227 2630 2387 2774 
Q 2547 2918 2547 3168 
L 2547 3270 
Q 2547 3520 2387 3664 
Q 2227 3808 1920 3808 
Q 1613 3808 1453 3664 
Q 1293 3520 1293 3270 
L 1293 3168 
Q 1293 2918 1453 2774 
Q 1613 2630 1920 2630 
z
" transform="scale(0.015625)"/>
     </defs>
     <use xlink:href="#IBMPlexSans-Bold-38"/>
    </g>
   </g>
  </g>
 </g>
</svg>
