<?xml version="1.0" encoding="utf-8" standalone="no"?>
<!DOCTYPE svg PUBLIC "-//W3C//DTD SVG 1.1//EN"
  "http://www.w3.org/Graphics/SVG/1.1/DTD/svg11.dtd">
<svg xmlns:xlink="http://www.w3.org/1999/xlink" width="313.95609pt" height="229.269865pt" viewBox="0 0 313.95609 229.269865" xmlns="http://www.w3.org/2000/svg" version="1.1">
 <metadata>
  <rdf:RDF xmlns:dc="http://purl.org/dc/elements/1.1/" xmlns:cc="http://creativecommons.org/ns#" xmlns:rdf="http://www.w3.org/1999/02/22-rdf-syntax-ns#">
   <cc:Work>
    <dc:type rdf:resource="http://purl.org/dc/dcmitype/StillImage"/>
    <dc:date>2025-12-31T11:25:31.865758</dc:date>
    <dc:format>image/svg+xml</dc:format>
    <dc:creator>
     <cc:Agent>
      <dc:title>Matplotlib v3.10.5, https://matplotlib.org/</dc:title>
     </cc:Agent>
    </dc:creator>
   </cc:Work>
  </rdf:RDF>
 </metadata>
 <defs>
  <style type="text/css">*{stroke-linejoin: round; stroke-linecap: butt}</style>
 </defs>
 <g id="figure_1">
  <g id="patch_1">
   <path d="M 0 229.269865 
L 313.95609 229.269865 
L 313.95609 0 
L 0 0 
L 0 229.269865 
z
" style="fill: none"/>
  </g>
  <g id="axes_1">
   <g id="patch_2">
    <path d="M 40.38 192.009865 
L 306.75609 192.009865 
L 306.75609 28.442513 
L 40.38 28.442513 
L 40.38 192.009865 
z
" style="fill: none"/>
   </g>
   <g id="matplotlib.axis_1">
    <g id="xtick_1">
     <g id="line2d_1">
      <path d="M 52.488004 192.009865 
L 52.488004 28.442513 
" clip-path="url(#p5ca6370509)" style="fill: none; stroke-dasharray: 1.48,0.64; stroke-dashoffset: 0; stroke: #838383; stroke-opacity: 0.25; stroke-width: 0.4"/>
     </g>
     <g id="text_1">
      <!-- 0 -->
      <g style="fill: #838383" transform="translate(48.888004 204.389865) scale(0.12 -0.12)">
       <defs>
        <path id="IBMPlexSans-Regular-30" d="M 1920 -77 
Q 1120 -77 752 531 
Q 384 1139 384 2234 
Q 384 3328 752 3936 
Q 1120 4544 1920 4544 
Q 2720 4544 3088 3936 
Q 3456 3328 3456 2234 
Q 3456 1139 3088 531 
Q 2720 -77 1920 -77 
z
M 1920 390 
Q 2182 390 2368 499 
Q 2554 608 2669 806 
Q 2784 1005 2838 1273 
Q 2893 1542 2893 1869 
L 2893 2598 
Q 2893 2925 2838 3193 
Q 2784 3462 2669 3660 
Q 2554 3859 2368 3968 
Q 2182 4077 1920 4077 
Q 1658 4077 1472 3968 
Q 1286 3859 1171 3660 
Q 1056 3462 1001 3193 
Q 947 2925 947 2598 
L 947 1869 
Q 947 1542 1001 1273 
Q 1056 1005 1171 806 
Q 1286 608 1472 499 
Q 1658 390 1920 390 
z
" transform="scale(0.015625)"/>
       </defs>
       <use xlink:href="#IBMPlexSans-Regular-30"/>
      </g>
     </g>
    </g>
    <g id="xtick_2">
     <g id="line2d_2">
      <path d="M 116.214341 192.009865 
L 116.214341 28.442513 
" clip-path="url(#p5ca6370509)" style="fill: none; stroke-dasharray: 1.48,0.64; stroke-dashoffset: 0; stroke: #838383; stroke-opacity: 0.25; stroke-width: 0.4"/>
     </g>
     <g id="text_2">
      <!-- 5 -->
      <g style="fill: #838383" transform="translate(112.614341 204.389865) scale(0.12 -0.12)">
       <defs>
        <path id="IBMPlexSans-Regular-35" d="M 3187 3994 
L 1229 3994 
L 1101 2291 
L 1146 2291 
Q 1306 2515 1507 2649 
Q 1709 2784 2061 2784 
Q 2349 2784 2592 2688 
Q 2835 2592 3014 2416 
Q 3194 2240 3293 1984 
Q 3392 1728 3392 1402 
Q 3392 1075 3289 803 
Q 3187 531 2992 336 
Q 2797 141 2518 32 
Q 2240 -77 1888 -77 
Q 1606 -77 1392 -13 
Q 1178 51 1011 160 
Q 845 269 720 403 
Q 595 538 493 685 
L 896 992 
Q 979 858 1072 749 
Q 1165 640 1277 563 
Q 1389 486 1536 444 
Q 1683 403 1888 403 
Q 2349 403 2585 646 
Q 2822 890 2822 1331 
L 2822 1395 
Q 2822 1837 2585 2080 
Q 2349 2323 1888 2323 
Q 1581 2323 1405 2211 
Q 1229 2099 1088 1946 
L 634 2010 
L 794 4467 
L 3187 4467 
L 3187 3994 
z
" transform="scale(0.015625)"/>
       </defs>
       <use xlink:href="#IBMPlexSans-Regular-35"/>
      </g>
     </g>
    </g>
    <g id="xtick_3">
     <g id="line2d_3">
      <path d="M 179.940679 192.009865 
L 179.940679 28.442513 
" clip-path="url(#p5ca6370509)" style="fill: none; stroke-dasharray: 1.48,0.64; stroke-dashoffset: 0; stroke: #838383; stroke-opacity: 0.25; stroke-width: 0.4"/>
     </g>
     <g id="text_3">
      <!-- 10 -->
      <g style="fill: #838383" transform="translate(172.740679 204.389865) scale(0.12 -0.12)">
       <defs>
        <path id="IBMPlexSans-Regular-31" d="M 563 0 
L 563 474 
L 1811 474 
L 1811 4070 
L 1766 4070 
L 640 3021 
L 326 3360 
L 1510 4467 
L 2349 4467 
L 2349 474 
L 3501 474 
L 3501 0 
L 563 0 
z
" transform="scale(0.015625)"/>
       </defs>
       <use xlink:href="#IBMPlexSans-Regular-31"/>
       <use xlink:href="#IBMPlexSans-Regular-30" transform="translate(59.999985 0)"/>
      </g>
     </g>
    </g>
    <g id="xtick_4">
     <g id="line2d_4">
      <path d="M 243.667016 192.009865 
L 243.667016 28.442513 
" clip-path="url(#p5ca6370509)" style="fill: none; stroke-dasharray: 1.48,0.64; stroke-dashoffset: 0; stroke: #838383; stroke-opacity: 0.25; stroke-width: 0.4"/>
     </g>
     <g id="text_4">
      <!-- 15 -->
      <g style="fill: #838383" transform="translate(236.467016 204.389865) scale(0.12 -0.12)">
       <use xlink:href="#IBMPlexSans-Regular-31"/>
       <use xlink:href="#IBMPlexSans-Regular-35" transform="translate(59.999985 0)"/>
      </g>
     </g>
    </g>
    <g id="text_5">
     <!-- draw -->
     <g style="fill: #838383" transform="translate(160.07367 219.669865) scale(0.12 -0.12)">
      <defs>
       <path id="IBMPlexSans-Regular-64" d="M 2656 538 
L 2630 538 
Q 2330 -77 1664 -77 
Q 1357 -77 1107 44 
Q 858 166 682 390 
Q 506 614 413 934 
Q 320 1254 320 1651 
Q 320 2048 413 2368 
Q 506 2688 682 2912 
Q 858 3136 1107 3257 
Q 1357 3379 1664 3379 
Q 2010 3379 2256 3228 
Q 2502 3078 2630 2765 
L 2656 2765 
L 2656 4736 
L 3168 4736 
L 3168 0 
L 2656 0 
L 2656 538 
z
M 1805 384 
Q 1978 384 2134 429 
Q 2291 474 2406 560 
Q 2522 646 2589 771 
Q 2656 896 2656 1056 
L 2656 2285 
Q 2656 2419 2589 2537 
Q 2522 2656 2406 2739 
Q 2291 2822 2134 2870 
Q 1978 2918 1805 2918 
Q 1370 2918 1120 2646 
Q 870 2374 870 1933 
L 870 1370 
Q 870 928 1120 656 
Q 1370 384 1805 384 
z
" transform="scale(0.015625)"/>
       <path id="IBMPlexSans-Regular-72" d="M 544 0 
L 544 3302 
L 1056 3302 
L 1056 2694 
L 1088 2694 
Q 1178 2931 1408 3116 
Q 1638 3302 2042 3302 
L 2240 3302 
L 2240 2790 
L 1939 2790 
Q 1523 2790 1289 2633 
Q 1056 2477 1056 2240 
L 1056 0 
L 544 0 
z
" transform="scale(0.015625)"/>
       <path id="IBMPlexSans-Regular-61" d="M 2944 0 
Q 2656 0 2531 153 
Q 2406 307 2374 538 
L 2342 538 
Q 2234 230 1984 76 
Q 1734 -77 1389 -77 
Q 864 -77 573 192 
Q 282 461 282 922 
Q 282 1389 624 1638 
Q 966 1888 1690 1888 
L 2342 1888 
L 2342 2214 
Q 2342 2566 2150 2752 
Q 1958 2938 1562 2938 
Q 1261 2938 1059 2803 
Q 858 2669 723 2445 
L 416 2733 
Q 550 3002 844 3190 
Q 1139 3379 1587 3379 
Q 2189 3379 2521 3084 
Q 2854 2790 2854 2266 
L 2854 448 
L 3232 448 
L 3232 0 
L 2944 0 
z
M 1472 358 
Q 1664 358 1824 403 
Q 1984 448 2099 531 
Q 2214 614 2278 723 
Q 2342 832 2342 960 
L 2342 1504 
L 1664 1504 
Q 1222 1504 1020 1376 
Q 819 1248 819 1005 
L 819 870 
Q 819 627 995 492 
Q 1171 358 1472 358 
z
" transform="scale(0.015625)"/>
       <path id="IBMPlexSans-Regular-77" d="M 198 3302 
L 698 3302 
L 1050 1875 
L 1402 429 
L 1414 429 
L 1818 1875 
L 2234 3302 
L 2688 3302 
L 3117 1875 
L 3526 429 
L 3539 429 
L 3878 1875 
L 4237 3302 
L 4717 3302 
L 3840 0 
L 3206 0 
L 2746 1587 
L 2458 2592 
L 2445 2592 
L 2163 1587 
L 1702 0 
L 1082 0 
L 198 3302 
z
" transform="scale(0.015625)"/>
      </defs>
      <use xlink:href="#IBMPlexSans-Regular-64"/>
      <use xlink:href="#IBMPlexSans-Regular-72" transform="translate(57.999985 0)"/>
      <use xlink:href="#IBMPlexSans-Regular-61" transform="translate(94.699982 0)"/>
      <use xlink:href="#IBMPlexSans-Regular-77" transform="translate(148.099976 0)"/>
     </g>
    </g>
   </g>
   <g id="matplotlib.axis_2">
    <g id="ytick_1">
     <g id="line2d_5">
      <path d="M 40.38 170.929003 
L 306.75609 170.929003 
" clip-path="url(#p5ca6370509)" style="fill: none; stroke-dasharray: 1.48,0.64; stroke-dashoffset: 0; stroke: #838383; stroke-opacity: 0.25; stroke-width: 0.4"/>
     </g>
     <g id="text_6">
      <!-- −4 -->
      <g style="fill: #838383" transform="translate(22.48 175.369003) scale(0.12 -0.12)">
       <defs>
        <path id="IBMPlexSans-Regular-2212" d="M 429 1734 
L 429 2170 
L 3411 2170 
L 3411 1734 
L 429 1734 
z
" transform="scale(0.015625)"/>
        <path id="IBMPlexSans-Regular-34" d="M 2400 0 
L 2400 877 
L 243 877 
L 243 1350 
L 2112 4467 
L 2912 4467 
L 2912 1325 
L 3558 1325 
L 3558 877 
L 2912 877 
L 2912 0 
L 2400 0 
z
M 749 1325 
L 2400 1325 
L 2400 4051 
L 2368 4051 
L 749 1325 
z
" transform="scale(0.015625)"/>
       </defs>
       <use xlink:href="#IBMPlexSans-Regular-2212"/>
       <use xlink:href="#IBMPlexSans-Regular-34" transform="translate(59.999985 0)"/>
      </g>
     </g>
    </g>
    <g id="ytick_2">
     <g id="line2d_6">
      <path d="M 40.38 130.976953 
L 306.75609 130.976953 
" clip-path="url(#p5ca6370509)" style="fill: none; stroke-dasharray: 1.48,0.64; stroke-dashoffset: 0; stroke: #838383; stroke-opacity: 0.25; stroke-width: 0.4"/>
     </g>
     <g id="text_7">
      <!-- −2 -->
      <g style="fill: #838383" transform="translate(22.48 135.416953) scale(0.12 -0.12)">
       <defs>
        <path id="IBMPlexSans-Regular-32" d="M 3411 0 
L 480 0 
L 480 550 
L 1939 1894 
Q 2253 2182 2464 2505 
Q 2675 2829 2675 3155 
L 2675 3232 
Q 2675 3603 2470 3833 
Q 2266 4064 1850 4064 
Q 1645 4064 1491 4006 
Q 1338 3949 1226 3846 
Q 1114 3744 1040 3606 
Q 966 3469 922 3309 
L 442 3494 
Q 506 3693 618 3881 
Q 730 4070 899 4217 
Q 1069 4365 1309 4454 
Q 1549 4544 1875 4544 
Q 2202 4544 2458 4448 
Q 2714 4352 2886 4179 
Q 3059 4006 3152 3769 
Q 3245 3533 3245 3245 
Q 3245 2982 3171 2758 
Q 3098 2534 2970 2332 
Q 2842 2131 2659 1939 
Q 2477 1747 2266 1555 
L 1062 474 
L 3411 474 
L 3411 0 
z
" transform="scale(0.015625)"/>
       </defs>
       <use xlink:href="#IBMPlexSans-Regular-2212"/>
       <use xlink:href="#IBMPlexSans-Regular-32" transform="translate(59.999985 0)"/>
      </g>
     </g>
    </g>
    <g id="ytick_3">
     <g id="line2d_7">
      <path d="M 40.38 91.024904 
L 306.75609 91.024904 
" clip-path="url(#p5ca6370509)" style="fill: none; stroke-dasharray: 1.48,0.64; stroke-dashoffset: 0; stroke: #838383; stroke-opacity: 0.25; stroke-width: 0.4"/>
     </g>
     <g id="text_8">
      <!-- 0 -->
      <g style="fill: #838383" transform="translate(29.68 95.464904) scale(0.12 -0.12)">
       <use xlink:href="#IBMPlexSans-Regular-30"/>
      </g>
     </g>
    </g>
    <g id="ytick_4">
     <g id="line2d_8">
      <path d="M 40.38 51.072854 
L 306.75609 51.072854 
" clip-path="url(#p5ca6370509)" style="fill: none; stroke-dasharray: 1.48,0.64; stroke-dashoffset: 0; stroke: #838383; stroke-opacity: 0.25; stroke-width: 0.4"/>
     </g>
     <g id="text_9">
      <!-- 2 -->
      <g style="fill: #838383" transform="translate(29.68 55.512854) scale(0.12 -0.12)">
       <use xlink:href="#IBMPlexSans-Regular-32"/>
      </g>
     </g>
    </g>
    <g id="text_10">
     <!-- sld -->
     <g style="fill: #838383" transform="translate(16.08 118.260564) rotate(-90) scale(0.12 -0.12)">
      <defs>
       <path id="IBMPlexSans-Regular-73" d="M 1536 -77 
Q 1075 -77 764 99 
Q 454 275 230 570 
L 595 864 
Q 787 621 1024 489 
Q 1261 358 1574 358 
Q 1901 358 2083 499 
Q 2266 640 2266 896 
Q 2266 1088 2141 1225 
Q 2016 1363 1690 1414 
L 1427 1453 
Q 1197 1485 1005 1552 
Q 813 1619 669 1731 
Q 525 1843 445 2009 
Q 365 2176 365 2406 
Q 365 2650 454 2832 
Q 544 3014 701 3136 
Q 858 3258 1075 3318 
Q 1293 3379 1542 3379 
Q 1946 3379 2218 3238 
Q 2490 3098 2694 2848 
L 2355 2541 
Q 2246 2694 2035 2819 
Q 1824 2944 1504 2944 
Q 1184 2944 1021 2806 
Q 858 2669 858 2432 
Q 858 2189 1021 2080 
Q 1184 1971 1491 1920 
L 1747 1882 
Q 2298 1798 2528 1564 
Q 2758 1331 2758 954 
Q 2758 474 2432 198 
Q 2106 -77 1536 -77 
z
" transform="scale(0.015625)"/>
       <path id="IBMPlexSans-Regular-6c" d="M 1088 0 
Q 819 0 681 150 
Q 544 301 544 531 
L 544 4736 
L 1056 4736 
L 1056 448 
L 1542 448 
L 1542 0 
L 1088 0 
z
" transform="scale(0.015625)"/>
      </defs>
      <use xlink:href="#IBMPlexSans-Regular-73"/>
      <use xlink:href="#IBMPlexSans-Regular-6c" transform="translate(48.699997 0)"/>
      <use xlink:href="#IBMPlexSans-Regular-64" transform="translate(75.899994 0)"/>
     </g>
    </g>
   </g>
   <g id="line2d_9">
    <path d="M 52.488004 91.024904 
L 65.233272 91.024904 
L 77.978539 91.024904 
L 90.723806 91.024904 
L 103.469074 91.024904 
L 116.214341 91.024904 
L 128.959609 91.024904 
L 141.704876 91.024904 
L 154.450144 91.024904 
L 167.195411 91.024904 
L 179.940679 91.024904 
L 192.685946 91.024904 
L 205.431213 91.024904 
L 218.176481 91.024904 
L 230.921748 91.024904 
L 243.667016 91.024904 
L 256.412283 91.024904 
L 269.157551 91.024904 
L 281.902818 91.024904 
L 294.648086 91.024904 
" clip-path="url(#p5ca6370509)" style="fill: none"/>
   </g>
   <g id="line2d_10">
    <path d="M 52.488004 91.024904 
L 65.233272 91.024904 
L 77.978539 91.024904 
L 90.723806 91.024904 
L 103.469074 91.024904 
L 116.214341 91.024904 
L 128.959609 91.024904 
L 141.704876 91.024904 
L 154.450144 91.024904 
L 167.195411 91.024904 
L 179.940679 91.024904 
L 192.685946 91.024904 
L 205.431213 91.024904 
L 218.176481 91.024904 
L 230.921748 91.024904 
L 243.667016 91.024904 
L 256.412283 91.024904 
L 269.157551 91.024904 
L 281.902818 91.024904 
L 294.648086 91.024904 
" clip-path="url(#p5ca6370509)" style="fill: none"/>
   </g>
   <g id="line2d_11">
    <path d="M 52.488004 91.024904 
L 65.233272 91.024904 
L 77.978539 91.024904 
L 90.723806 91.024904 
L 103.469074 91.024904 
L 116.214341 91.024904 
L 128.959609 91.024904 
L 141.704876 91.024904 
L 154.450144 91.024904 
L 167.195411 91.024904 
L 179.940679 91.024904 
L 192.685946 91.024904 
L 205.431213 91.024904 
L 218.176481 91.024904 
L 230.921748 91.024904 
L 243.667016 91.024904 
L 256.412283 91.024904 
L 269.157551 91.024904 
L 281.902818 91.024904 
L 294.648086 91.024904 
" clip-path="url(#p5ca6370509)" style="fill: none"/>
   </g>
   <g id="line2d_12">
    <path d="M 52.488004 91.024904 
L 65.233272 91.024904 
L 77.978539 91.024904 
L 90.723806 91.024904 
L 103.469074 91.024904 
L 116.214341 91.024904 
L 128.959609 91.024904 
L 141.704876 91.024904 
L 154.450144 91.024904 
L 167.195411 91.024904 
L 179.940679 91.024904 
L 192.685946 91.024904 
L 205.431213 91.024904 
L 218.176481 91.024904 
L 230.921748 91.024904 
L 243.667016 91.024904 
L 256.412283 91.024904 
L 269.157551 91.024904 
L 281.902818 91.024904 
L 294.648086 91.024904 
" clip-path="url(#p5ca6370509)" style="fill: none"/>
   </g>
   <g id="line2d_13">
    <path d="M 52.488004 91.024904 
L 65.233272 91.024904 
L 77.978539 91.024904 
L 90.723806 91.024904 
L 103.469074 91.024904 
L 116.214341 91.024904 
L 128.959609 91.024904 
L 141.704876 91.024904 
L 154.450144 91.024904 
L 167.195411 91.024904 
L 179.940679 91.024904 
L 192.685946 91.024904 
L 205.431213 91.024904 
L 218.176481 91.024904 
L 230.921748 91.024904 
L 243.667016 91.024904 
L 256.412283 91.024904 
L 269.157551 91.024904 
L 281.902818 91.024904 
L 294.648086 91.024904 
" clip-path="url(#p5ca6370509)" style="fill: none"/>
   </g>
   <g id="line2d_14">
    <path d="M 52.488004 91.024904 
L 65.233272 91.024904 
L 77.978539 91.024904 
L 90.723806 91.024904 
L 103.469074 91.024904 
L 116.214341 91.024904 
L 128.959609 91.024904 
L 141.704876 91.024904 
L 154.450144 91.024904 
L 167.195411 91.024904 
L 179.940679 91.024904 
L 192.685946 91.024904 
L 205.431213 91.024904 
L 218.176481 91.024904 
L 230.921748 91.024904 
L 243.667016 91.024904 
L 256.412283 91.024904 
L 269.157551 91.024904 
L 281.902818 91.024904 
L 294.648086 91.024904 
" clip-path="url(#p5ca6370509)" style="fill: none"/>
   </g>
   <g id="line2d_15">
    <path d="M 52.488004 91.024904 
L 65.233272 91.024904 
L 77.978539 91.024904 
L 90.723806 91.024904 
L 103.469074 91.024904 
L 116.214341 91.024904 
L 128.959609 91.024904 
L 141.704876 91.024904 
L 154.450144 91.024904 
L 167.195411 91.024904 
L 179.940679 91.024904 
L 192.685946 91.024904 
L 205.431213 91.024904 
L 218.176481 91.024904 
L 230.921748 91.024904 
L 243.667016 91.024904 
L 256.412283 91.024904 
L 269.157551 91.024904 
L 281.902818 91.024904 
L 294.648086 91.024904 
" clip-path="url(#p5ca6370509)" style="fill: none"/>
   </g>
   <g id="line2d_16">
    <path d="M 52.488004 91.024904 
L 65.233272 91.024904 
L 77.978539 91.024904 
L 90.723806 91.024904 
L 103.469074 91.024904 
L 116.214341 91.024904 
L 128.959609 91.024904 
L 141.704876 91.024904 
L 154.450144 91.024904 
L 167.195411 91.024904 
L 179.940679 91.024904 
L 192.685946 91.024904 
L 205.431213 91.024904 
L 218.176481 91.024904 
L 230.921748 91.024904 
L 243.667016 91.024904 
L 256.412283 91.024904 
L 269.157551 91.024904 
L 281.902818 91.024904 
L 294.648086 91.024904 
" clip-path="url(#p5ca6370509)" style="fill: none"/>
   </g>
   <g id="line2d_17">
    <path d="M 52.488004 91.024904 
L 65.233272 91.024904 
L 77.978539 91.024904 
L 90.723806 91.024904 
L 103.469074 91.024904 
L 116.214341 91.024904 
L 128.959609 91.024904 
L 141.704876 91.024904 
L 154.450144 91.024904 
L 167.195411 91.024904 
L 179.940679 91.024904 
L 192.685946 91.024904 
L 205.431213 91.024904 
L 218.176481 91.024904 
L 230.921748 91.024904 
L 243.667016 91.024904 
L 256.412283 91.024904 
L 269.157551 91.024904 
L 281.902818 91.024904 
L 294.648086 91.024904 
" clip-path="url(#p5ca6370509)" style="fill: none; stroke: #440154; stroke-width: 1.5; stroke-linecap: round"/>
   </g>
   <g id="line2d_18">
    <path d="M 52.488004 83.049934 
L 65.233272 84.72564 
L 77.978539 86.20488 
L 90.723806 92.352903 
L 103.469074 89.683015 
L 116.214341 91.479008 
L 128.959609 93.002045 
L 141.704876 92.773211 
L 154.450144 94.096636 
L 167.195411 94.205449 
L 179.940679 97.368408 
L 192.685946 95.737959 
L 205.431213 94.890429 
L 218.176481 91.537938 
L 230.921748 98.189986 
L 243.667016 98.620569 
L 256.412283 101.58707 
L 269.157551 107.394079 
L 281.902818 111.093006 
L 294.648086 111.221587 
" clip-path="url(#p5ca6370509)" style="fill: none"/>
   </g>
   <g id="line2d_19">
    <path d="M 52.488004 86.19164 
L 65.233272 88.006082 
L 77.978539 93.32428 
L 90.723806 91.420219 
L 103.469074 93.950253 
L 116.214341 99.350306 
L 128.959609 99.813574 
L 141.704876 99.438171 
L 154.450144 100.370178 
L 167.195411 97.43118 
L 179.940679 98.602697 
L 192.685946 100.152612 
L 205.431213 97.379908 
L 218.176481 102.813463 
L 230.921748 104.253763 
L 243.667016 104.645796 
L 256.412283 109.520473 
L 269.157551 108.762229 
L 281.902818 112.6474 
L 294.648086 112.841922 
" clip-path="url(#p5ca6370509)" style="fill: none"/>
   </g>
   <g id="line2d_20">
    <path d="M 52.488004 83.69206 
L 65.233272 85.550787 
L 77.978539 84.517349 
L 90.723806 87.606469 
L 103.469074 89.754479 
L 116.214341 91.876988 
L 128.959609 86.061197 
L 141.704876 80.179114 
L 154.450144 96.668619 
L 167.195411 98.152031 
L 179.940679 99.206596 
L 192.685946 99.261924 
L 205.431213 101.145392 
L 218.176481 97.299588 
L 230.921748 99.794475 
L 243.667016 100.092348 
L 256.412283 102.264293 
L 269.157551 104.799017 
L 281.902818 108.484389 
L 294.648086 114.052457 
" clip-path="url(#p5ca6370509)" style="fill: none"/>
   </g>
   <g id="line2d_21">
    <path d="M 52.488004 88.829904 
L 65.233272 86.102041 
L 77.978539 88.347504 
L 90.723806 87.612671 
L 103.469074 88.24658 
L 116.214341 86.663273 
L 128.959609 90.425239 
L 141.704876 80.452805 
L 154.450144 82.470889 
L 167.195411 85.6404 
L 179.940679 82.0404 
L 192.685946 81.359723 
L 205.431213 80.40979 
L 218.176481 83.525063 
L 230.921748 83.723656 
L 243.667016 91.043955 
L 256.412283 92.671103 
L 269.157551 104.820877 
L 281.902818 100.105475 
L 294.648086 104.920538 
" clip-path="url(#p5ca6370509)" style="fill: none"/>
   </g>
   <g id="line2d_22">
    <path d="M 52.488004 94.177993 
L 65.233272 97.155377 
L 77.978539 100.893307 
L 90.723806 93.137692 
L 103.469074 91.526146 
L 116.214341 91.416889 
L 128.959609 91.447084 
L 141.704876 89.49325 
L 154.450144 87.309935 
L 167.195411 81.058979 
L 179.940679 80.168609 
L 192.685946 79.420057 
L 205.431213 79.727659 
L 218.176481 80.47917 
L 230.921748 82.667091 
L 243.667016 81.885789 
L 256.412283 80.04433 
L 269.157551 81.430721 
L 281.902818 86.408039 
L 294.648086 93.41541 
" clip-path="url(#p5ca6370509)" style="fill: none"/>
   </g>
   <g id="line2d_23">
    <path d="M 52.488004 88.430968 
L 65.233272 83.385772 
L 77.978539 85.880702 
L 90.723806 93.116054 
L 103.469074 91.403111 
L 116.214341 91.731673 
L 128.959609 89.284558 
L 141.704876 86.620369 
L 154.450144 89.491276 
L 167.195411 88.125487 
L 179.940679 85.967147 
L 192.685946 87.840145 
L 205.431213 87.042583 
L 218.176481 85.640163 
L 230.921748 85.434844 
L 243.667016 87.270399 
L 256.412283 97.521182 
L 269.157551 105.29443 
L 281.902818 104.766667 
L 294.648086 106.692328 
" clip-path="url(#p5ca6370509)" style="fill: none"/>
   </g>
   <g id="line2d_24">
    <path d="M 52.488004 95.23237 
L 65.233272 93.536457 
L 77.978539 97.814604 
L 90.723806 100.862072 
L 103.469074 96.611066 
L 116.214341 92.813494 
L 128.959609 86.476098 
L 141.704876 86.347749 
L 154.450144 86.25974 
L 167.195411 87.828649 
L 179.940679 96.012257 
L 192.685946 95.511068 
L 205.431213 102.690677 
L 218.176481 101.065971 
L 230.921748 96.983996 
L 243.667016 101.477953 
L 256.412283 103.99864 
L 269.157551 102.775531 
L 281.902818 106.545812 
L 294.648086 111.748034 
" clip-path="url(#p5ca6370509)" style="fill: none"/>
   </g>
   <g id="line2d_25">
    <path d="M 52.488004 87.741188 
L 65.233272 83.521861 
L 77.978539 80.09993 
L 90.723806 77.344574 
L 103.469074 79.533751 
L 116.214341 84.063105 
L 128.959609 81.789231 
L 141.704876 95.358409 
L 154.450144 96.481138 
L 167.195411 99.743371 
L 179.940679 101.43629 
L 192.685946 104.144146 
L 205.431213 105.979085 
L 218.176481 109.744633 
L 230.921748 107.175586 
L 243.667016 105.391906 
L 256.412283 111.170498 
L 269.157551 112.827729 
L 281.902818 111.473605 
L 294.648086 110.840418 
" clip-path="url(#p5ca6370509)" style="fill: none"/>
   </g>
   <g id="line2d_26">
    <path d="M 52.488004 88.418257 
L 65.233272 87.748002 
L 77.978539 89.63532 
L 90.723806 90.431582 
L 103.469074 90.08855 
L 116.214341 91.174342 
L 128.959609 89.787378 
L 141.704876 88.832885 
L 154.450144 91.643551 
L 167.195411 91.523193 
L 179.940679 92.600301 
L 192.685946 92.928454 
L 205.431213 93.65819 
L 218.176481 94.013249 
L 230.921748 94.777925 
L 243.667016 96.30359 
L 256.412283 99.847198 
L 269.157551 103.513077 
L 281.902818 105.190549 
L 294.648086 108.216587 
" clip-path="url(#p5ca6370509)" style="fill: none; stroke: #472d7b; stroke-width: 1.5; stroke-linecap: round"/>
   </g>
   <g id="line2d_27">
    <path d="M 52.488004 75.190638 
L 65.233272 78.337594 
L 77.978539 81.054765 
L 90.723806 93.886696 
L 103.469074 87.84198 
L 116.214341 92.042704 
L 128.959609 94.582039 
L 141.704876 94.650796 
L 154.450144 96.995362 
L 167.195411 97.820127 
L 179.940679 103.397547 
L 192.685946 100.615397 
L 205.431213 99.065719 
L 218.176481 92.761337 
L 230.921748 105.654944 
L 243.667016 106.338677 
L 256.412283 110.827292 
L 269.157551 124.788761 
L 281.902818 131.162965 
L 294.648086 130.961923 
" clip-path="url(#p5ca6370509)" style="fill: none"/>
   </g>
   <g id="line2d_28">
    <path d="M 52.488004 81.362432 
L 65.233272 85.252441 
L 77.978539 95.933383 
L 90.723806 91.336079 
L 103.469074 96.490285 
L 116.214341 107.141776 
L 128.959609 108.975451 
L 141.704876 107.639781 
L 154.450144 110.694489 
L 167.195411 103.848631 
L 179.940679 106.43884 
L 192.685946 109.272846 
L 205.431213 103.392316 
L 218.176481 114.920437 
L 230.921748 117.768052 
L 243.667016 117.660927 
L 256.412283 128.362763 
L 269.157551 125.97182 
L 281.902818 135.595082 
L 294.648086 135.012995 
" clip-path="url(#p5ca6370509)" style="fill: none"/>
   </g>
   <g id="line2d_29">
    <path d="M 52.488004 75.926958 
L 65.233272 80.517774 
L 77.978539 77.786271 
L 90.723806 84.414242 
L 103.469074 90.097645 
L 116.214341 92.262157 
L 128.959609 81.079319 
L 141.704876 69.076678 
L 154.450144 102.485002 
L 167.195411 105.003075 
L 179.940679 107.108933 
L 192.685946 107.346935 
L 205.431213 110.952644 
L 218.176481 104.192551 
L 230.921748 108.549313 
L 243.667016 109.009977 
L 256.412283 113.963116 
L 269.157551 119.223286 
L 281.902818 126.213959 
L 294.648086 137.70527 
" clip-path="url(#p5ca6370509)" style="fill: none"/>
   </g>
   <g id="line2d_30">
    <path d="M 52.488004 86.345314 
L 65.233272 81.155132 
L 77.978539 85.610858 
L 90.723806 84.108153 
L 103.469074 85.641445 
L 116.214341 82.406405 
L 128.959609 89.714434 
L 141.704876 69.319317 
L 154.450144 74.138561 
L 167.195411 79.864524 
L 179.940679 73.253103 
L 192.685946 71.010777 
L 205.431213 68.925889 
L 218.176481 75.335274 
L 230.921748 75.818085 
L 243.667016 90.128678 
L 256.412283 93.580825 
L 269.157551 118.335943 
L 281.902818 108.748271 
L 294.648086 119.241051 
" clip-path="url(#p5ca6370509)" style="fill: none"/>
   </g>
   <g id="line2d_31">
    <path d="M 52.488004 97.166272 
L 65.233272 103.556559 
L 77.978539 109.469716 
L 90.723806 94.977404 
L 103.469074 92.215837 
L 116.214341 91.345682 
L 128.959609 91.512517 
L 141.704876 88.122734 
L 154.450144 83.548232 
L 167.195411 70.559999 
L 179.940679 69.114531 
L 192.685946 67.27385 
L 205.431213 68.015127 
L 218.176481 69.603575 
L 230.921748 74.535995 
L 243.667016 72.234416 
L 256.412283 69.025178 
L 269.157551 71.738007 
L 281.902818 81.58444 
L 294.648086 95.621911 
" clip-path="url(#p5ca6370509)" style="fill: none"/>
   </g>
   <g id="line2d_32">
    <path d="M 52.488004 85.869445 
L 65.233272 75.48645 
L 77.978539 80.7739 
L 90.723806 94.83383 
L 103.469074 91.341835 
L 116.214341 92.03129 
L 128.959609 87.719789 
L 141.704876 82.293354 
L 154.450144 88.092159 
L 167.195411 85.21947 
L 179.940679 80.766356 
L 192.685946 84.460716 
L 205.431213 82.862862 
L 218.176481 81.12668 
L 230.921748 79.937919 
L 243.667016 84.450103 
L 256.412283 103.704969 
L 269.157551 120.385262 
L 281.902818 117.81401 
L 294.648086 123.673405 
" clip-path="url(#p5ca6370509)" style="fill: none"/>
   </g>
   <g id="line2d_33">
    <path d="M 52.488004 99.372816 
L 65.233272 96.024887 
L 77.978539 104.747209 
L 90.723806 110.212527 
L 103.469074 102.908247 
L 116.214341 94.517273 
L 128.959609 82.063617 
L 141.704876 82.000798 
L 154.450144 81.56995 
L 167.195411 84.83168 
L 179.940679 100.915118 
L 192.685946 99.829931 
L 205.431213 114.403425 
L 218.176481 111.304809 
L 230.921748 103.013728 
L 243.667016 111.938342 
L 256.412283 116.431521 
L 269.157551 114.513385 
L 281.902818 123.215281 
L 294.648086 134.192861 
" clip-path="url(#p5ca6370509)" style="fill: none"/>
   </g>
   <g id="line2d_34">
    <path d="M 52.488004 84.659946 
L 65.233272 75.745673 
L 77.978539 70.263537 
L 90.723806 63.580044 
L 103.469074 68.66304 
L 116.214341 77.104322 
L 128.959609 72.424472 
L 141.704876 100.780609 
L 154.450144 102.070507 
L 167.195411 108.773435 
L 179.940679 112.240673 
L 192.685946 117.791068 
L 205.431213 121.260944 
L 218.176481 128.879646 
L 230.921748 123.651252 
L 243.667016 120.512442 
L 256.412283 131.547535 
L 269.157551 133.977895 
L 281.902818 131.647658 
L 294.648086 131.140546 
" clip-path="url(#p5ca6370509)" style="fill: none"/>
   </g>
   <g id="line2d_35">
    <path d="M 52.488004 85.736728 
L 65.233272 84.509564 
L 77.978539 88.204955 
L 90.723806 89.668622 
L 103.469074 89.400039 
L 116.214341 91.106451 
L 128.959609 88.508955 
L 141.704876 86.735508 
L 154.450144 92.449283 
L 167.195411 91.990118 
L 179.940679 94.154388 
L 192.685946 94.70019 
L 205.431213 96.109866 
L 218.176481 97.265539 
L 230.921748 98.616161 
L 243.667016 101.534195 
L 256.412283 108.4304 
L 269.157551 116.116795 
L 281.902818 119.497708 
L 294.648086 125.943745 
" clip-path="url(#p5ca6370509)" style="fill: none; stroke: #3b528b; stroke-width: 1.5; stroke-linecap: round"/>
   </g>
   <g id="line2d_36">
    <path d="M 52.488004 67.963234 
L 65.233272 72.169818 
L 77.978539 76.096947 
L 90.723806 95.984692 
L 103.469074 85.69895 
L 116.214341 92.859146 
L 128.959609 95.906881 
L 141.704876 96.67193 
L 154.450144 99.696304 
L 167.195411 101.702724 
L 179.940679 109.560583 
L 192.685946 105.127694 
L 205.431213 103.409502 
L 218.176481 94.186075 
L 230.921748 113.907851 
L 243.667016 113.846075 
L 256.412283 119.325517 
L 269.157551 142.404426 
L 281.902818 151.38852 
L 294.648086 149.783085 
" clip-path="url(#p5ca6370509)" style="fill: none"/>
   </g>
   <g id="line2d_37">
    <path d="M 52.488004 76.164338 
L 65.233272 83.054193 
L 77.978539 98.414463 
L 90.723806 91.088565 
L 103.469074 99.401972 
L 116.214341 114.743015 
L 128.959609 118.193173 
L 141.704876 115.544197 
L 154.450144 121.803626 
L 167.195411 110.418861 
L 179.940679 114.154772 
L 192.685946 117.840609 
L 205.431213 109.800464 
L 218.176481 127.300964 
L 230.921748 131.473044 
L 243.667016 131.351897 
L 256.412283 146.453664 
L 269.157551 142.629865 
L 281.902818 159.848066 
L 294.648086 157.207154 
" clip-path="url(#p5ca6370509)" style="fill: none"/>
   </g>
   <g id="line2d_38">
    <path d="M 52.488004 68.119981 
L 65.233272 75.075837 
L 77.978539 71.035267 
L 90.723806 80.752485 
L 103.469074 90.595358 
L 116.214341 91.789521 
L 128.959609 75.191686 
L 141.704876 57.172715 
L 154.450144 108.390526 
L 167.195411 112.071934 
L 179.940679 115.38721 
L 192.685946 115.488085 
L 205.431213 120.355601 
L 218.176481 111.652406 
L 230.921748 116.687231 
L 243.667016 118.399031 
L 256.412283 126.643707 
L 269.157551 134.589995 
L 281.902818 144.20798 
L 294.648086 161.390718 
" clip-path="url(#p5ca6370509)" style="fill: none"/>
   </g>
   <g id="line2d_39">
    <path d="M 52.488004 83.415561 
L 65.233272 76.17408 
L 77.978539 82.841339 
L 90.723806 80.678778 
L 103.469074 82.8365 
L 116.214341 78.504646 
L 128.959609 88.844458 
L 141.704876 57.817862 
L 154.450144 65.858385 
L 167.195411 73.731664 
L 179.940679 64.52706 
L 192.685946 60.424477 
L 205.431213 56.953902 
L 218.176481 67.191756 
L 230.921748 67.800765 
L 243.667016 88.327826 
L 256.412283 94.323785 
L 269.157551 131.87081 
L 281.902818 117.017841 
L 294.648086 133.636226 
" clip-path="url(#p5ca6370509)" style="fill: none"/>
   </g>
   <g id="line2d_40">
    <path d="M 52.488004 100.108258 
L 65.233272 109.858982 
L 77.978539 117.249929 
L 90.723806 96.680078 
L 103.469074 93.378383 
L 116.214341 90.870146 
L 128.959609 91.676387 
L 141.704876 86.496701 
L 154.450144 79.454587 
L 167.195411 59.638225 
L 179.940679 58.329505 
L 192.685946 55.080965 
L 205.431213 55.981573 
L 218.176481 58.583205 
L 230.921748 66.31745 
L 243.667016 61.597305 
L 256.412283 58.343164 
L 269.157551 61.585719 
L 281.902818 76.623516 
L 294.648086 97.721105 
" clip-path="url(#p5ca6370509)" style="fill: none"/>
   </g>
   <g id="line2d_41">
    <path d="M 52.488004 82.647632 
L 65.233272 67.351511 
L 77.978539 75.258312 
L 90.723806 96.028383 
L 103.469074 90.771244 
L 116.214341 91.442877 
L 128.959609 86.686619 
L 141.704876 78.380341 
L 154.450144 86.868713 
L 167.195411 82.595504 
L 179.940679 75.736183 
L 192.685946 80.986969 
L 205.431213 78.815856 
L 218.176481 77.076064 
L 230.921748 74.301187 
L 243.667016 82.29545 
L 256.412283 109.799291 
L 269.157551 135.771156 
L 281.902818 130.655191 
L 294.648086 140.628548 
" clip-path="url(#p5ca6370509)" style="fill: none"/>
   </g>
   <g id="line2d_42">
    <path d="M 52.488004 103.344625 
L 65.233272 98.649717 
L 77.978539 111.638548 
L 90.723806 119.067231 
L 103.469074 109.818674 
L 116.214341 97.12082 
L 128.959609 77.542119 
L 141.704876 78.373814 
L 154.450144 77.172285 
L 167.195411 81.780995 
L 179.940679 105.806119 
L 192.685946 104.024335 
L 205.431213 126.916134 
L 218.176481 121.833278 
L 230.921748 108.916195 
L 243.667016 122.710641 
L 256.412283 128.798705 
L 269.157551 126.126216 
L 281.902818 140.865813 
L 294.648086 158.542699 
" clip-path="url(#p5ca6370509)" style="fill: none"/>
   </g>
   <g id="line2d_43">
    <path d="M 52.488004 81.975486 
L 65.233272 67.747662 
L 77.978539 60.275224 
L 90.723806 49.719502 
L 103.469074 57.963639 
L 116.214341 70.710466 
L 128.959609 63.511347 
L 141.704876 106.071222 
L 154.450144 108.049328 
L 167.195411 118.017078 
L 179.940679 123.30428 
L 192.685946 131.47241 
L 205.431213 136.742596 
L 218.176481 148.245685 
L 230.921748 140.859633 
L 243.667016 135.884589 
L 256.412283 151.865364 
L 269.157551 154.563202 
L 281.902818 151.970605 
L 294.648086 151.956411 
" clip-path="url(#p5ca6370509)" style="fill: none"/>
   </g>
   <g id="line2d_44">
    <path d="M 52.488004 82.967389 
L 65.233272 81.260225 
L 77.978539 86.601254 
L 90.723806 88.749964 
L 103.469074 88.80809 
L 116.214341 91.00508 
L 128.959609 87.194084 
L 141.704876 84.566098 
L 154.450144 93.411719 
L 167.195411 92.494623 
L 179.940679 95.850714 
L 192.685946 96.305693 
L 205.431213 98.621953 
L 218.176481 100.758679 
L 230.921748 102.53292 
L 243.667016 106.801602 
L 256.412283 116.94415 
L 269.157551 128.692674 
L 281.902818 134.072191 
L 294.648086 143.858243 
" clip-path="url(#p5ca6370509)" style="fill: none; stroke: #2c728e; stroke-width: 1.5; stroke-linecap: round"/>
   </g>
   <g id="line2d_45">
    <path d="M 52.488004 60.186652 
L 65.233272 66.304727 
L 77.978539 71.346487 
L 90.723806 98.65186 
L 103.469074 83.348913 
L 116.214341 93.999199 
L 128.959609 97.605813 
L 141.704876 98.836066 
L 154.450144 102.232449 
L 167.195411 105.59094 
L 179.940679 116.005675 
L 192.685946 108.972802 
L 205.431213 107.862626 
L 218.176481 95.865949 
L 230.921748 122.033272 
L 243.667016 121.923057 
L 256.412283 127.946731 
L 269.157551 160.411919 
L 281.902818 171.709236 
L 294.648086 167.958662 
" clip-path="url(#p5ca6370509)" style="fill: none"/>
   </g>
   <g id="line2d_46">
    <path d="M 52.488004 71.01678 
L 65.233272 81.814416 
L 77.978539 100.92089 
L 90.723806 91.292246 
L 103.469074 103.266321 
L 116.214341 122.421839 
L 128.959609 127.323941 
L 141.704876 123.706501 
L 154.450144 133.073681 
L 167.195411 117.245922 
L 179.940679 122.313759 
L 192.685946 126.191171 
L 205.431213 117.100956 
L 218.176481 139.870419 
L 230.921748 145.078309 
L 243.667016 145.45835 
L 256.412283 163.609343 
L 269.157551 159.472068 
L 281.902818 184.431029 
L 294.648086 179.250538 
" clip-path="url(#p5ca6370509)" style="fill: none"/>
   </g>
   <g id="line2d_47">
    <path d="M 52.488004 60.227229 
L 65.233272 69.107614 
L 77.978539 64.082324 
L 90.723806 77.073163 
L 103.469074 91.173016 
L 116.214341 90.692351 
L 128.959609 68.002136 
L 141.704876 45.073776 
L 154.450144 114.674513 
L 167.195411 119.220546 
L 179.940679 124.06737 
L 192.685946 123.711233 
L 205.431213 129.441981 
L 218.176481 119.476107 
L 230.921748 124.754242 
L 243.667016 127.870209 
L 256.412283 139.468247 
L 269.157551 151.139737 
L 281.902818 162.138077 
L 294.648086 184.574985 
" clip-path="url(#p5ca6370509)" style="fill: none"/>
   </g>
   <g id="line2d_48">
    <path d="M 52.488004 80.900894 
L 65.233272 71.02442 
L 77.978539 80.186798 
L 90.723806 77.283221 
L 103.469074 79.606894 
L 116.214341 74.941174 
L 128.959609 87.81524 
L 141.704876 46.580079 
L 154.450144 57.773552 
L 167.195411 67.579151 
L 179.940679 55.599604 
L 192.685946 50.235774 
L 205.431213 44.922975 
L 218.176481 59.443865 
L 230.921748 60.438272 
L 243.667016 85.785337 
L 256.412283 94.964658 
L 269.157551 145.467539 
L 281.902818 124.73892 
L 294.648086 148.041065 
" clip-path="url(#p5ca6370509)" style="fill: none"/>
   </g>
   <g id="line2d_49">
    <path d="M 52.488004 103.563193 
L 65.233272 116.036317 
L 77.978539 124.953477 
L 90.723806 98.706965 
L 103.469074 94.883372 
L 116.214341 90.659571 
L 128.959609 92.288766 
L 141.704876 84.536512 
L 154.450144 75.14417 
L 167.195411 48.825128 
L 179.940679 47.565337 
L 192.685946 43.003742 
L 205.431213 43.674429 
L 218.176481 47.257369 
L 230.921748 58.474442 
L 243.667016 50.04319 
L 256.412283 48.272321 
L 269.157551 50.839604 
L 281.902818 71.815129 
L 294.648086 99.07228 
" clip-path="url(#p5ca6370509)" style="fill: none"/>
   </g>
   <g id="line2d_50">
    <path d="M 52.488004 79.270978 
L 65.233272 59.028184 
L 77.978539 69.45029 
L 90.723806 97.18101 
L 103.469074 90.136545 
L 116.214341 91.033278 
L 128.959609 86.140738 
L 141.704876 74.440312 
L 154.450144 85.976297 
L 167.195411 80.436738 
L 179.940679 71.046799 
L 192.685946 78.017394 
L 205.431213 74.990432 
L 218.176481 72.508258 
L 230.921748 68.702709 
L 243.667016 80.279299 
L 256.412283 115.536049 
L 269.157551 150.20648 
L 281.902818 143.887062 
L 294.648086 157.411249 
" clip-path="url(#p5ca6370509)" style="fill: none"/>
   </g>
   <g id="line2d_51">
    <path d="M 52.488004 106.999434 
L 65.233272 102.064196 
L 77.978539 118.871487 
L 90.723806 127.579644 
L 103.469074 116.378652 
L 116.214341 99.96297 
L 128.959609 73.008326 
L 141.704876 75.240916 
L 154.450144 73.311799 
L 167.195411 78.234717 
L 179.940679 110.288224 
L 192.685946 108.247706 
L 205.431213 139.52712 
L 218.176481 132.433008 
L 230.921748 114.905709 
L 243.667016 133.64254 
L 256.412283 140.703689 
L 269.157551 137.808323 
L 281.902818 158.907463 
L 294.648086 183.652387 
" clip-path="url(#p5ca6370509)" style="fill: none"/>
   </g>
   <g id="line2d_52">
    <path d="M 52.488004 79.477935 
L 65.233272 60.04457 
L 77.978539 49.745115 
L 90.723806 35.877393 
L 103.469074 47.161505 
L 116.214341 64.093132 
L 128.959609 55.625329 
L 141.704876 111.45863 
L 154.450144 114.411286 
L 167.195411 126.766273 
L 179.940679 134.737105 
L 192.685946 145.217035 
L 205.431213 152.15083 
L 218.176481 167.736423 
L 230.921748 158.326212 
L 243.667016 151.266038 
L 256.412283 172.648356 
L 269.157551 175.195882 
L 281.902818 172.356731 
L 294.648086 173.240455 
" clip-path="url(#p5ca6370509)" style="fill: none"/>
   </g>
   <g id="line2d_53">
    <path d="M 52.488004 80.205387 
L 65.233272 78.178055 
L 77.978539 84.944608 
L 90.723806 87.955688 
L 103.469074 88.244402 
L 116.214341 90.975439 
L 128.959609 85.976286 
L 141.704876 82.484099 
L 154.450144 94.574718 
L 167.195411 92.987427 
L 179.940679 97.702984 
L 192.685946 97.949607 
L 205.431213 101.208919 
L 218.176481 104.323925 
L 230.921748 106.589146 
L 243.667016 112.033502 
L 256.412283 125.393674 
L 269.157551 141.317694 
L 281.902818 148.747956 
L 294.648086 161.650203 
" clip-path="url(#p5ca6370509)" style="fill: none; stroke: #21918c; stroke-width: 1.5; stroke-linecap: round"/>
   </g>
   <g id="line2d_54">
    <path d="M 52.488004 68.910716 
L 65.233272 72.565861 
L 77.978539 76.095528 
L 90.723806 95.934245 
L 103.469074 85.800954 
L 116.214341 92.677221 
L 128.959609 95.665409 
L 141.704876 96.753725 
L 154.450144 99.753343 
L 167.195411 101.513503 
L 179.940679 109.88795 
L 192.685946 105.312749 
L 205.431213 103.385322 
L 218.176481 93.66843 
L 230.921748 113.907064 
L 243.667016 113.011232 
L 256.412283 119.15235 
L 269.157551 141.907487 
L 281.902818 151.741287 
L 294.648086 150.393414 
" clip-path="url(#p5ca6370509)" style="fill: none"/>
   </g>
   <g id="line2d_55">
    <path d="M 52.488004 75.729213 
L 65.233272 82.517837 
L 77.978539 98.49188 
L 90.723806 90.843403 
L 103.469074 99.357747 
L 116.214341 114.817202 
L 128.959609 118.369867 
L 141.704876 115.825655 
L 154.450144 121.063238 
L 167.195411 110.472776 
L 179.940679 113.324059 
L 192.685946 117.432794 
L 205.431213 109.631081 
L 218.176481 127.72705 
L 230.921748 132.148098 
L 243.667016 131.954828 
L 256.412283 146.770183 
L 269.157551 142.204916 
L 281.902818 159.328821 
L 294.648086 157.681003 
" clip-path="url(#p5ca6370509)" style="fill: none"/>
   </g>
   <g id="line2d_56">
    <path d="M 52.488004 68.688768 
L 65.233272 75.107222 
L 77.978539 71.424226 
L 90.723806 80.236015 
L 103.469074 90.504729 
L 116.214341 92.21807 
L 128.959609 76.368159 
L 141.704876 57.483833 
L 154.450144 108.578816 
L 167.195411 111.759621 
L 179.940679 115.328554 
L 192.685946 115.787455 
L 205.431213 120.537182 
L 218.176481 111.344431 
L 230.921748 116.820519 
L 243.667016 118.970074 
L 256.412283 126.548392 
L 269.157551 133.544043 
L 281.902818 144.449153 
L 294.648086 161.644425 
" clip-path="url(#p5ca6370509)" style="fill: none"/>
   </g>
   <g id="line2d_57">
    <path d="M 52.488004 83.021428 
L 65.233272 76.35378 
L 77.978539 82.721341 
L 90.723806 80.622757 
L 103.469074 83.23817 
L 116.214341 78.184416 
L 128.959609 88.995275 
L 141.704876 57.279539 
L 154.450144 65.7086 
L 167.195411 73.669427 
L 179.940679 64.810553 
L 192.685946 60.214739 
L 205.431213 56.938375 
L 218.176481 66.909919 
L 230.921748 67.560558 
L 243.667016 88.568933 
L 256.412283 94.845616 
L 269.157551 131.22607 
L 281.902818 117.20819 
L 294.648086 133.30306 
" clip-path="url(#p5ca6370509)" style="fill: none"/>
   </g>
   <g id="line2d_58">
    <path d="M 52.488004 99.56682 
L 65.233272 109.926977 
L 77.978539 117.457627 
L 90.723806 96.02791 
L 103.469074 93.12557 
L 116.214341 90.309858 
L 128.959609 91.786727 
L 141.704876 86.96885 
L 154.450144 79.382857 
L 167.195411 59.395014 
L 179.940679 58.780022 
L 192.685946 55.317257 
L 205.431213 56.457379 
L 218.176481 59.377879 
L 230.921748 66.03276 
L 243.667016 61.975087 
L 256.412283 58.29721 
L 269.157551 61.781634 
L 281.902818 76.397017 
L 294.648086 99.200601 
" clip-path="url(#p5ca6370509)" style="fill: none"/>
   </g>
   <g id="line2d_59">
    <path d="M 52.488004 82.786181 
L 65.233272 67.327843 
L 77.978539 75.668818 
L 90.723806 95.758118 
L 103.469074 90.992024 
L 116.214341 90.863038 
L 128.959609 86.875251 
L 141.704876 78.996754 
L 154.450144 86.349307 
L 167.195411 82.447763 
L 179.940679 75.321857 
L 192.685946 81.084888 
L 205.431213 79.019467 
L 218.176481 77.342386 
L 230.921748 74.246508 
L 243.667016 82.135954 
L 256.412283 110.426772 
L 269.157551 136.357766 
L 281.902818 130.827608 
L 294.648086 140.31748 
" clip-path="url(#p5ca6370509)" style="fill: none"/>
   </g>
   <g id="line2d_60">
    <path d="M 52.488004 103.40031 
L 65.233272 98.338897 
L 77.978539 111.203466 
L 90.723806 118.583981 
L 103.469074 110.619172 
L 116.214341 97.798449 
L 128.959609 77.35057 
L 141.704876 78.313174 
L 154.450144 76.694524 
L 167.195411 82.488676 
L 179.940679 106.089897 
L 192.685946 104.144081 
L 205.431213 126.951681 
L 218.176481 121.687783 
L 230.921748 108.605394 
L 243.667016 122.503712 
L 256.412283 129.673475 
L 269.157551 125.991148 
L 281.902818 141.224763 
L 294.648086 158.295899 
" clip-path="url(#p5ca6370509)" style="fill: none"/>
   </g>
   <g id="line2d_61">
    <path d="M 52.488004 82.361121 
L 65.233272 67.372205 
L 77.978539 60.431257 
L 90.723806 49.781617 
L 103.469074 58.129004 
L 116.214341 70.706356 
L 128.959609 62.558294 
L 141.704876 105.850968 
L 154.450144 108.002182 
L 167.195411 118.101949 
L 179.940679 122.820445 
L 192.685946 130.970581 
L 205.431213 136.800099 
L 218.176481 148.495516 
L 230.921748 140.944357 
L 243.667016 135.789773 
L 256.412283 151.518537 
L 269.157551 153.942676 
L 281.902818 152.715932 
L 294.648086 151.914736 
" clip-path="url(#p5ca6370509)" style="fill: none"/>
   </g>
   <g id="line2d_62">
    <path d="M 52.488004 83.05807 
L 65.233272 81.188828 
L 77.978539 86.686768 
L 90.723806 88.473506 
L 103.469074 88.970921 
L 116.214341 90.946826 
L 128.959609 87.246194 
L 141.704876 84.684062 
L 154.450144 93.191608 
L 167.195411 92.481091 
L 179.940679 95.795417 
L 192.685946 96.283068 
L 205.431213 98.715073 
L 218.176481 100.819174 
L 230.921748 102.533157 
L 243.667016 106.863699 
L 256.412283 117.154067 
L 269.157551 128.369467 
L 281.902818 134.236596 
L 294.648086 144.093827 
" clip-path="url(#p5ca6370509)" style="fill: none; stroke: #28ae80; stroke-width: 1.5; stroke-linecap: round"/>
   </g>
   <g id="line2d_63">
    <path d="M 52.488004 77.636433 
L 65.233272 79.061955 
L 77.978539 80.592549 
L 90.723806 93.260213 
L 103.469074 88.317291 
L 116.214341 91.519072 
L 128.959609 93.992608 
L 141.704876 95.157794 
L 154.450144 97.545197 
L 167.195411 97.491057 
L 179.940679 104.339208 
L 192.685946 101.946313 
L 205.431213 98.496938 
L 218.176481 91.499663 
L 230.921748 105.444381 
L 243.667016 103.542142 
L 256.412283 111.129573 
L 269.157551 122.841132 
L 281.902818 132.104494 
L 294.648086 134.668337 
" clip-path="url(#p5ca6370509)" style="fill: none"/>
   </g>
   <g id="line2d_64">
    <path d="M 52.488004 80.050475 
L 65.233272 82.769591 
L 77.978539 96.309484 
L 90.723806 90.829333 
L 103.469074 95.86555 
L 116.214341 107.239543 
L 128.959609 109.717925 
L 141.704876 108.651396 
L 154.450144 108.534426 
L 167.195411 104.221179 
L 179.940679 103.824253 
L 192.685946 108.618776 
L 205.431213 101.952749 
L 218.176481 115.411703 
L 230.921748 119.993129 
L 243.667016 118.916803 
L 256.412283 130.182822 
L 269.157551 124.743291 
L 281.902818 134.067034 
L 294.648086 136.260318 
" clip-path="url(#p5ca6370509)" style="fill: none"/>
   </g>
   <g id="line2d_65">
    <path d="M 52.488004 77.467157 
L 65.233272 80.613305 
L 77.978539 79.327056 
L 90.723806 83.537939 
L 103.469074 89.819311 
L 116.214341 94.802917 
L 128.959609 85.26669 
L 141.704876 69.703163 
L 154.450144 103.237504 
L 167.195411 104.308199 
L 179.940679 106.515651 
L 192.685946 108.097544 
L 205.431213 112.163408 
L 218.176481 103.189166 
L 230.921748 108.885388 
L 243.667016 110.279081 
L 256.412283 113.359255 
L 269.157551 115.755932 
L 281.902818 126.879942 
L 294.648086 138.384538 
" clip-path="url(#p5ca6370509)" style="fill: none"/>
   </g>
   <g id="line2d_66">
    <path d="M 52.488004 85.477184 
L 65.233272 81.576573 
L 77.978539 85.363906 
L 90.723806 83.739547 
L 103.469074 86.929402 
L 116.214341 81.032517 
L 128.959609 90.068107 
L 141.704876 67.550941 
L 154.450144 73.882911 
L 167.195411 79.854643 
L 179.940679 74.028052 
L 192.685946 69.374659 
L 205.431213 69.023034 
L 218.176481 74.26106 
L 230.921748 74.73677 
L 243.667016 91.777524 
L 256.412283 94.580736 
L 269.157551 117.678988 
L 281.902818 110.01111 
L 294.648086 117.903338 
" clip-path="url(#p5ca6370509)" style="fill: none"/>
   </g>
   <g id="line2d_67">
    <path d="M 52.488004 95.511574 
L 65.233272 104.184803 
L 77.978539 110.4558 
L 90.723806 93.255353 
L 103.469074 91.529201 
L 116.214341 89.248183 
L 128.959609 91.7337 
L 141.704876 89.353068 
L 154.450144 83.385652 
L 167.195411 69.286168 
L 179.940679 70.088732 
L 192.685946 67.808159 
L 205.431213 69.411461 
L 218.176481 72.187847 
L 230.921748 74.0687 
L 243.667016 73.910062 
L 256.412283 68.904929 
L 269.157551 72.236289 
L 281.902818 80.229216 
L 294.648086 100.618811 
" clip-path="url(#p5ca6370509)" style="fill: none"/>
   </g>
   <g id="line2d_68">
    <path d="M 52.488004 86.458726 
L 65.233272 75.85229 
L 77.978539 82.380261 
L 90.723806 94.610346 
L 103.469074 92.262729 
L 116.214341 90.530584 
L 128.959609 87.898143 
L 141.704876 83.863941 
L 154.450144 86.067044 
L 167.195411 84.909027 
L 179.940679 78.969193 
L 192.685946 84.46524 
L 205.431213 82.625491 
L 218.176481 81.647865 
L 230.921748 80.336857 
L 243.667016 83.134823 
L 256.412283 105.681574 
L 269.157551 122.202951 
L 281.902818 117.283482 
L 294.648086 122.555507 
" clip-path="url(#p5ca6370509)" style="fill: none"/>
   </g>
   <g id="line2d_69">
    <path d="M 52.488004 99.477132 
L 65.233272 94.763882 
L 77.978539 103.356535 
L 90.723806 109.013927 
L 103.469074 105.101907 
L 116.214341 96.015965 
L 128.959609 80.938739 
L 141.704876 81.404061 
L 154.450144 79.871859 
L 167.195411 87.034445 
L 179.940679 101.815371 
L 192.685946 100.515397 
L 205.431213 113.87856 
L 218.176481 110.499777 
L 230.921748 102.119089 
L 243.667016 110.767995 
L 256.412283 119.023743 
L 269.157551 113.721296 
L 281.902818 123.999108 
L 294.648086 132.875595 
" clip-path="url(#p5ca6370509)" style="fill: none"/>
   </g>
   <g id="line2d_70">
    <path d="M 52.488004 85.194367 
L 65.233272 74.039494 
L 77.978539 71.230598 
L 90.723806 64.606219 
L 103.469074 68.938225 
L 116.214341 76.835994 
L 128.959609 69.27159 
L 141.704876 100.472189 
L 154.450144 100.994688 
L 167.195411 109.137791 
L 179.940679 110.200197 
L 192.685946 116.612773 
L 205.431213 121.374794 
L 218.176481 129.502231 
L 230.921748 124.176399 
L 243.667016 120.290068 
L 256.412283 130.339002 
L 269.157551 132.58147 
L 281.902818 133.373503 
L 294.648086 130.742469 
" clip-path="url(#p5ca6370509)" style="fill: none"/>
   </g>
   <g id="line2d_71">
    <path d="M 52.488004 85.909131 
L 65.233272 84.107737 
L 77.978539 88.627024 
L 90.723806 89.10661 
L 103.469074 89.845452 
L 116.214341 90.903097 
L 128.959609 88.610938 
L 141.704876 87.019569 
L 154.450144 91.68991 
L 167.195411 92.030314 
L 179.940679 93.722582 
L 192.685946 94.679858 
L 205.431213 96.115804 
L 218.176481 97.274914 
L 230.921748 98.720089 
L 243.667016 101.577312 
L 256.412283 109.150204 
L 269.157551 115.220169 
L 281.902818 119.743486 
L 294.648086 126.751114 
" clip-path="url(#p5ca6370509)" style="fill: none; stroke: #5ec962; stroke-width: 1.5; stroke-linecap: round"/>
   </g>
   <g id="line2d_72">
    <path d="M 52.488004 85.938016 
L 65.233272 85.648614 
L 77.978539 84.896311 
L 90.723806 90.41906 
L 103.469074 90.982512 
L 116.214341 90.482144 
L 128.959609 92.853259 
L 141.704876 93.796011 
L 154.450144 95.735119 
L 167.195411 93.784337 
L 179.940679 98.861628 
L 192.685946 98.50307 
L 205.431213 93.137436 
L 218.176481 89.717417 
L 230.921748 97.354623 
L 243.667016 93.933372 
L 256.412283 103.961976 
L 269.157551 104.158241 
L 281.902818 112.847389 
L 294.648086 119.175467 
" clip-path="url(#p5ca6370509)" style="fill: none"/>
   </g>
   <g id="line2d_73">
    <path d="M 52.488004 83.61052 
L 65.233272 82.691964 
L 77.978539 94.627701 
L 90.723806 91.274337 
L 103.469074 92.668051 
L 116.214341 99.721489 
L 128.959609 101.77353 
L 141.704876 101.552219 
L 154.450144 95.666662 
L 167.195411 98.41795 
L 179.940679 94.153704 
L 192.685946 99.768374 
L 205.431213 93.970881 
L 218.176481 102.084331 
L 230.921748 108.957346 
L 243.667016 106.518521 
L 256.412283 114.178434 
L 269.157551 106.849464 
L 281.902818 109.372105 
L 294.648086 114.977488 
" clip-path="url(#p5ca6370509)" style="fill: none"/>
   </g>
   <g id="line2d_74">
    <path d="M 52.488004 86.417768 
L 65.233272 85.293523 
L 77.978539 88.084464 
L 90.723806 86.773084 
L 103.469074 89.110925 
L 116.214341 98.138752 
L 128.959609 94.282057 
L 141.704876 81.590893 
L 154.450144 98.318083 
L 167.195411 97.192971 
L 179.940679 97.798101 
L 192.685946 100.543144 
L 205.431213 104.377846 
L 218.176481 95.094149 
L 230.921748 101.049392 
L 243.667016 101.783854 
L 256.412283 100.036713 
L 269.157551 98.157545 
L 281.902818 109.13039 
L 294.648086 114.387321 
" clip-path="url(#p5ca6370509)" style="fill: none"/>
   </g>
   <g id="line2d_75">
    <path d="M 52.488004 88.675303 
L 65.233272 86.533796 
L 77.978539 88.077093 
L 90.723806 86.745896 
L 103.469074 90.6662 
L 116.214341 83.387517 
L 128.959609 91.002347 
L 141.704876 77.689107 
L 154.450144 82.247364 
L 167.195411 86.145 
L 179.940679 82.463141 
L 192.685946 77.562944 
L 205.431213 80.868737 
L 218.176481 81.683901 
L 230.921748 81.745299 
L 243.667016 95.153527 
L 256.412283 93.861301 
L 269.157551 105.238731 
L 281.902818 103.280401 
L 294.648086 102.405623 
" clip-path="url(#p5ca6370509)" style="fill: none"/>
   </g>
   <g id="line2d_76">
    <path d="M 52.488004 91.758897 
L 65.233272 98.49118 
L 77.978539 103.447572 
L 90.723806 90.634147 
L 103.469074 90.678451 
L 116.214341 88.136012 
L 128.959609 91.869695 
L 141.704876 91.691294 
L 154.450144 87.288457 
L 167.195411 78.883091 
L 179.940679 81.246772 
L 192.685946 80.541061 
L 205.431213 82.409594 
L 218.176481 84.694187 
L 230.921748 82.106018 
L 243.667016 85.431321 
L 256.412283 80.066032 
L 269.157551 83.006273 
L 281.902818 83.747821 
L 294.648086 102.104634 
" clip-path="url(#p5ca6370509)" style="fill: none"/>
   </g>
   <g id="line2d_77">
    <path d="M 52.488004 89.656243 
L 65.233272 84.779412 
L 77.978539 88.706113 
L 90.723806 93.701869 
L 103.469074 93.564675 
L 116.214341 90.519126 
L 128.959609 88.889827 
L 141.704876 88.471516 
L 154.450144 85.07398 
L 167.195411 87.874497 
L 179.940679 82.551009 
L 192.685946 87.200368 
L 205.431213 85.284927 
L 218.176481 85.535573 
L 230.921748 86.75485 
L 243.667016 83.489081 
L 256.412283 101.488508 
L 269.157551 108.167232 
L 281.902818 103.211952 
L 294.648086 104.659758 
" clip-path="url(#p5ca6370509)" style="fill: none"/>
   </g>
   <g id="line2d_78">
    <path d="M 52.488004 95.342248 
L 65.233272 91.02156 
L 77.978539 95.334355 
L 90.723806 99.140053 
L 103.469074 99.698999 
L 116.214341 94.464509 
L 128.959609 83.823499 
L 141.704876 84.317002 
L 154.450144 83.095673 
L 167.195411 91.23999 
L 179.940679 97.539549 
L 192.685946 97.62732 
L 205.431213 101.060812 
L 218.176481 99.151709 
L 230.921748 95.625147 
L 243.667016 98.901065 
L 256.412283 108.344419 
L 269.157551 100.793171 
L 281.902818 106.671439 
L 294.648086 108.170409 
" clip-path="url(#p5ca6370509)" style="fill: none"/>
   </g>
   <g id="line2d_79">
    <path d="M 52.488004 87.1543 
L 65.233272 79.896143 
L 77.978539 81.389575 
L 90.723806 80.031346 
L 103.469074 78.985326 
L 116.214341 82.594682 
L 128.959609 75.811109 
L 141.704876 95.778994 
L 154.450144 93.016674 
L 167.195411 100.36002 
L 179.940679 97.285434 
L 192.685946 102.407085 
L 205.431213 105.657911 
L 218.176481 110.630439 
L 230.921748 108.246658 
L 243.667016 104.499894 
L 256.412283 108.820998 
L 269.157551 111.988154 
L 281.902818 113.566584 
L 294.648086 109.571715 
" clip-path="url(#p5ca6370509)" style="fill: none"/>
   </g>
   <g id="line2d_80">
    <path d="M 52.488004 88.569162 
L 65.233272 86.794524 
L 77.978539 90.570398 
L 90.723806 89.839974 
L 103.469074 90.794392 
L 116.214341 90.930529 
L 128.959609 90.038165 
L 141.704876 89.360879 
L 154.450144 90.055251 
L 167.195411 91.737232 
L 179.940679 91.487417 
L 192.685946 93.019171 
L 205.431213 93.346018 
L 218.176481 93.573963 
L 230.921748 95.229917 
L 243.667016 96.213829 
L 256.412283 101.344798 
L 269.157551 102.294851 
L 281.902818 105.22851 
L 294.648086 109.431552 
" clip-path="url(#p5ca6370509)" style="fill: none; stroke: #addc30; stroke-width: 1.5; stroke-linecap: round"/>
   </g>
   <g id="line2d_81">
    <path d="M 52.488004 93.711346 
L 65.233272 92.421067 
L 77.978539 89.228228 
L 90.723806 87.203901 
L 103.469074 93.774082 
L 116.214341 89.367793 
L 128.959609 92.393929 
L 141.704876 92.574688 
L 154.450144 94.066252 
L 167.195411 89.990014 
L 179.940679 93.650268 
L 192.685946 94.832026 
L 205.431213 87.583109 
L 218.176481 87.88898 
L 230.921748 89.363649 
L 243.667016 85.016208 
L 256.412283 96.437047 
L 269.157551 86.584325 
L 281.902818 93.794688 
L 294.648086 103.662607 
" clip-path="url(#p5ca6370509)" style="fill: none"/>
   </g>
   <g id="line2d_82">
    <path d="M 52.488004 86.381436 
L 65.233272 82.50179 
L 77.978539 93.718621 
L 90.723806 91.810051 
L 103.469074 89.238574 
L 116.214341 92.227883 
L 128.959609 94.783089 
L 141.704876 94.285978 
L 154.450144 82.352634 
L 167.195411 92.348653 
L 179.940679 84.76657 
L 192.685946 90.276119 
L 205.431213 85.90671 
L 218.176481 88.232162 
L 230.921748 98.507601 
L 243.667016 94.990023 
L 256.412283 99.072644 
L 269.157551 88.939308 
L 281.902818 84.893596 
L 294.648086 94.959481 
" clip-path="url(#p5ca6370509)" style="fill: none"/>
   </g>
   <g id="line2d_83">
    <path d="M 52.488004 95.502206 
L 65.233272 89.149534 
L 77.978539 97.478604 
L 90.723806 89.49887 
L 103.469074 88.922992 
L 116.214341 100.834296 
L 128.959609 103.826021 
L 141.704876 92.903513 
L 154.450144 93.327376 
L 167.195411 90.755104 
L 179.940679 89.025658 
L 192.685946 93.180822 
L 205.431213 96.783835 
L 218.176481 86.920919 
L 230.921748 93.897342 
L 243.667016 93.735835 
L 256.412283 86.671852 
L 269.157551 80.58981 
L 281.902818 91.398306 
L 294.648086 90.115921 
" clip-path="url(#p5ca6370509)" style="fill: none"/>
   </g>
   <g id="line2d_84">
    <path d="M 52.488004 92.297467 
L 65.233272 91.241229 
L 77.978539 90.715849 
L 90.723806 89.879341 
L 103.469074 94.619963 
L 116.214341 85.14334 
L 128.959609 91.933141 
L 141.704876 87.724937 
L 154.450144 90.54979 
L 167.195411 92.301511 
L 179.940679 90.00851 
L 192.685946 85.252776 
L 205.431213 92.038242 
L 218.176481 88.872951 
L 230.921748 88.496293 
L 243.667016 98.932182 
L 256.412283 93.108046 
L 269.157551 93.782365 
L 281.902818 96.636777 
L 294.648086 87.727083 
" clip-path="url(#p5ca6370509)" style="fill: none"/>
   </g>
   <g id="line2d_85">
    <path d="M 52.488004 87.977015 
L 65.233272 92.721742 
L 77.978539 96.216044 
L 90.723806 88.043458 
L 103.469074 90.45533 
L 116.214341 87.043194 
L 128.959609 92.296959 
L 141.704876 94.392021 
L 154.450144 91.371424 
L 167.195411 88.727055 
L 179.940679 92.309639 
L 192.685946 93.560138 
L 205.431213 95.25761 
L 218.176481 96.632553 
L 230.921748 89.923032 
L 243.667016 97.235557 
L 256.412283 90.906563 
L 269.157551 94.026763 
L 281.902818 87.51036 
L 294.648086 102.452318 
" clip-path="url(#p5ca6370509)" style="fill: none"/>
   </g>
   <g id="line2d_86">
    <path d="M 52.488004 91.842885 
L 65.233272 93.854921 
L 77.978539 94.908042 
L 90.723806 92.559092 
L 103.469074 94.702818 
L 116.214341 90.647378 
L 128.959609 90.061798 
L 141.704876 92.978069 
L 154.450144 83.745825 
L 167.195411 91.11665 
L 179.940679 86.356642 
L 192.685946 89.535949 
L 205.431213 87.317759 
L 218.176481 89.123192 
L 230.921748 92.227691 
L 243.667016 83.663899 
L 256.412283 97.724631 
L 269.157551 94.980074 
L 281.902818 89.535016 
L 294.648086 87.790649 
" clip-path="url(#p5ca6370509)" style="fill: none"/>
   </g>
   <g id="line2d_87">
    <path d="M 52.488004 91.402273 
L 65.233272 87.42447 
L 77.978539 87.610537 
L 90.723806 89.207522 
L 103.469074 94.572317 
L 116.214341 92.865595 
L 128.959609 86.293495 
L 141.704876 86.542015 
L 154.450144 86.262197 
L 167.195411 95.029819 
L 179.940679 93.336692 
L 192.685946 95.174711 
L 205.431213 89.269304 
L 218.176481 88.114554 
L 230.921748 89.079063 
L 243.667016 87.831367 
L 256.412283 97.405472 
L 269.157551 88.162022 
L 281.902818 89.844352 
L 294.648086 84.470119 
" clip-path="url(#p5ca6370509)" style="fill: none"/>
   </g>
   <g id="line2d_88">
    <path d="M 52.488004 88.300731 
L 65.233272 85.870854 
L 77.978539 90.723495 
L 90.723806 95.651522 
L 103.469074 89.059907 
L 116.214341 87.776836 
L 128.959609 82.18905 
L 141.704876 91.558289 
L 154.450144 84.15808 
L 167.195411 91.645988 
L 179.940679 85.164101 
L 192.685946 88.736745 
L 205.431213 89.696295 
L 218.176481 92.287375 
L 230.921748 92.89074 
L 243.667016 88.718691 
L 256.412283 87.282326 
L 269.157551 92.506862 
L 281.902818 93.704178 
L 294.648086 89.083407 
" clip-path="url(#p5ca6370509)" style="fill: none"/>
   </g>
   <g id="line2d_89">
    <path d="M 52.488004 90.92692 
L 65.233272 89.398201 
L 77.978539 92.574927 
L 90.723806 90.48172 
L 103.469074 91.918248 
L 116.214341 90.738289 
L 128.959609 91.722185 
L 141.704876 91.619939 
L 154.450144 88.229197 
L 167.195411 91.489349 
L 179.940679 89.32726 
L 192.685946 91.318661 
L 205.431213 90.481608 
L 218.176481 89.759086 
L 230.921748 91.798176 
L 243.667016 91.26547 
L 256.412283 93.576072 
L 269.157551 89.946441 
L 281.902818 90.914659 
L 294.648086 92.532698 
" clip-path="url(#p5ca6370509)" style="fill: none; stroke: #fde725; stroke-width: 1.5; stroke-linecap: round"/>
   </g>
   <g id="line2d_90">
    <path d="M 52.488004 91.024904 
L 65.233272 91.024904 
L 77.978539 91.024904 
L 90.723806 91.024904 
L 103.469074 91.024904 
L 116.214341 91.024904 
L 128.959609 91.024904 
L 141.704876 91.024904 
L 154.450144 91.024904 
L 167.195411 91.024904 
L 179.940679 91.024904 
L 192.685946 91.024904 
L 205.431213 91.024904 
L 218.176481 91.024904 
L 230.921748 91.024904 
L 243.667016 91.024904 
L 256.412283 91.024904 
L 269.157551 91.024904 
L 281.902818 91.024904 
L 294.648086 91.024904 
" clip-path="url(#p5ca6370509)" style="fill: none"/>
   </g>
   <g id="line2d_91">
    <path d="M 52.488004 91.024904 
L 65.233272 91.024904 
L 77.978539 91.024904 
L 90.723806 91.024904 
L 103.469074 91.024904 
L 116.214341 91.024904 
L 128.959609 91.024904 
L 141.704876 91.024904 
L 154.450144 91.024904 
L 167.195411 91.024904 
L 179.940679 91.024904 
L 192.685946 91.024904 
L 205.431213 91.024904 
L 218.176481 91.024904 
L 230.921748 91.024904 
L 243.667016 91.024904 
L 256.412283 91.024904 
L 269.157551 91.024904 
L 281.902818 91.024904 
L 294.648086 91.024904 
" clip-path="url(#p5ca6370509)" style="fill: none"/>
   </g>
   <g id="line2d_92">
    <path d="M 52.488004 91.024904 
L 65.233272 91.024904 
L 77.978539 91.024904 
L 90.723806 91.024904 
L 103.469074 91.024904 
L 116.214341 91.024904 
L 128.959609 91.024904 
L 141.704876 91.024904 
L 154.450144 91.024904 
L 167.195411 91.024904 
L 179.940679 91.024904 
L 192.685946 91.024904 
L 205.431213 91.024904 
L 218.176481 91.024904 
L 230.921748 91.024904 
L 243.667016 91.024904 
L 256.412283 91.024904 
L 269.157551 91.024904 
L 281.902818 91.024904 
L 294.648086 91.024904 
" clip-path="url(#p5ca6370509)" style="fill: none"/>
   </g>
   <g id="line2d_93">
    <path d="M 52.488004 91.024904 
L 65.233272 91.024904 
L 77.978539 91.024904 
L 90.723806 91.024904 
L 103.469074 91.024904 
L 116.214341 91.024904 
L 128.959609 91.024904 
L 141.704876 91.024904 
L 154.450144 91.024904 
L 167.195411 91.024904 
L 179.940679 91.024904 
L 192.685946 91.024904 
L 205.431213 91.024904 
L 218.176481 91.024904 
L 230.921748 91.024904 
L 243.667016 91.024904 
L 256.412283 91.024904 
L 269.157551 91.024904 
L 281.902818 91.024904 
L 294.648086 91.024904 
" clip-path="url(#p5ca6370509)" style="fill: none"/>
   </g>
   <g id="line2d_94">
    <path d="M 52.488004 91.024904 
L 65.233272 91.024904 
L 77.978539 91.024904 
L 90.723806 91.024904 
L 103.469074 91.024904 
L 116.214341 91.024904 
L 128.959609 91.024904 
L 141.704876 91.024904 
L 154.450144 91.024904 
L 167.195411 91.024904 
L 179.940679 91.024904 
L 192.685946 91.024904 
L 205.431213 91.024904 
L 218.176481 91.024904 
L 230.921748 91.024904 
L 243.667016 91.024904 
L 256.412283 91.024904 
L 269.157551 91.024904 
L 281.902818 91.024904 
L 294.648086 91.024904 
" clip-path="url(#p5ca6370509)" style="fill: none"/>
   </g>
   <g id="line2d_95">
    <path d="M 52.488004 91.024904 
L 65.233272 91.024904 
L 77.978539 91.024904 
L 90.723806 91.024904 
L 103.469074 91.024904 
L 116.214341 91.024904 
L 128.959609 91.024904 
L 141.704876 91.024904 
L 154.450144 91.024904 
L 167.195411 91.024904 
L 179.940679 91.024904 
L 192.685946 91.024904 
L 205.431213 91.024904 
L 218.176481 91.024904 
L 230.921748 91.024904 
L 243.667016 91.024904 
L 256.412283 91.024904 
L 269.157551 91.024904 
L 281.902818 91.024904 
L 294.648086 91.024904 
" clip-path="url(#p5ca6370509)" style="fill: none"/>
   </g>
   <g id="line2d_96">
    <path d="M 52.488004 91.024904 
L 65.233272 91.024904 
L 77.978539 91.024904 
L 90.723806 91.024904 
L 103.469074 91.024904 
L 116.214341 91.024904 
L 128.959609 91.024904 
L 141.704876 91.024904 
L 154.450144 91.024904 
L 167.195411 91.024904 
L 179.940679 91.024904 
L 192.685946 91.024904 
L 205.431213 91.024904 
L 218.176481 91.024904 
L 230.921748 91.024904 
L 243.667016 91.024904 
L 256.412283 91.024904 
L 269.157551 91.024904 
L 281.902818 91.024904 
L 294.648086 91.024904 
" clip-path="url(#p5ca6370509)" style="fill: none"/>
   </g>
   <g id="line2d_97">
    <path d="M 52.488004 91.024904 
L 65.233272 91.024904 
L 77.978539 91.024904 
L 90.723806 91.024904 
L 103.469074 91.024904 
L 116.214341 91.024904 
L 128.959609 91.024904 
L 141.704876 91.024904 
L 154.450144 91.024904 
L 167.195411 91.024904 
L 179.940679 91.024904 
L 192.685946 91.024904 
L 205.431213 91.024904 
L 218.176481 91.024904 
L 230.921748 91.024904 
L 243.667016 91.024904 
L 256.412283 91.024904 
L 269.157551 91.024904 
L 281.902818 91.024904 
L 294.648086 91.024904 
" clip-path="url(#p5ca6370509)" style="fill: none"/>
   </g>
   <g id="line2d_98">
    <path clip-path="url(#p5ca6370509)" style="fill: none"/>
   </g>
   <g id="line2d_99">
    <path d="M 52.488004 83.049934 
L 65.233272 84.72564 
L 77.978539 86.20488 
L 90.723806 92.352903 
L 103.469074 89.683015 
L 116.214341 91.479008 
L 128.959609 93.002045 
L 141.704876 92.773211 
L 154.450144 94.096636 
L 167.195411 94.205449 
L 179.940679 97.368408 
L 192.685946 95.737959 
L 205.431213 94.890429 
L 218.176481 91.537938 
L 230.921748 98.189986 
L 243.667016 98.620569 
L 256.412283 101.58707 
L 269.157551 107.394079 
L 281.902818 111.093006 
L 294.648086 111.221587 
" clip-path="url(#p5ca6370509)" style="fill: none"/>
   </g>
   <g id="line2d_100">
    <path d="M 52.488004 86.19164 
L 65.233272 88.006082 
L 77.978539 93.32428 
L 90.723806 91.420219 
L 103.469074 93.950253 
L 116.214341 99.350306 
L 128.959609 99.813574 
L 141.704876 99.438171 
L 154.450144 100.370178 
L 167.195411 97.43118 
L 179.940679 98.602697 
L 192.685946 100.152612 
L 205.431213 97.379908 
L 218.176481 102.813463 
L 230.921748 104.253763 
L 243.667016 104.645796 
L 256.412283 109.520473 
L 269.157551 108.762229 
L 281.902818 112.6474 
L 294.648086 112.841922 
" clip-path="url(#p5ca6370509)" style="fill: none"/>
   </g>
   <g id="line2d_101">
    <path d="M 52.488004 83.69206 
L 65.233272 85.550787 
L 77.978539 84.517349 
L 90.723806 87.606469 
L 103.469074 89.754479 
L 116.214341 91.876988 
L 128.959609 86.061197 
L 141.704876 80.179114 
L 154.450144 96.668619 
L 167.195411 98.152031 
L 179.940679 99.206596 
L 192.685946 99.261924 
L 205.431213 101.145392 
L 218.176481 97.299588 
L 230.921748 99.794475 
L 243.667016 100.092348 
L 256.412283 102.264293 
L 269.157551 104.799017 
L 281.902818 108.484389 
L 294.648086 114.052457 
" clip-path="url(#p5ca6370509)" style="fill: none"/>
   </g>
   <g id="line2d_102">
    <path d="M 52.488004 88.829904 
L 65.233272 86.102041 
L 77.978539 88.347504 
L 90.723806 87.612671 
L 103.469074 88.24658 
L 116.214341 86.663273 
L 128.959609 90.425239 
L 141.704876 80.452805 
L 154.450144 82.470889 
L 167.195411 85.6404 
L 179.940679 82.0404 
L 192.685946 81.359723 
L 205.431213 80.40979 
L 218.176481 83.525063 
L 230.921748 83.723656 
L 243.667016 91.043955 
L 256.412283 92.671103 
L 269.157551 104.820877 
L 281.902818 100.105475 
L 294.648086 104.920538 
" clip-path="url(#p5ca6370509)" style="fill: none"/>
   </g>
   <g id="line2d_103">
    <path d="M 52.488004 94.177993 
L 65.233272 97.155377 
L 77.978539 100.893307 
L 90.723806 93.137692 
L 103.469074 91.526146 
L 116.214341 91.416889 
L 128.959609 91.447084 
L 141.704876 89.49325 
L 154.450144 87.309935 
L 167.195411 81.058979 
L 179.940679 80.168609 
L 192.685946 79.420057 
L 205.431213 79.727659 
L 218.176481 80.47917 
L 230.921748 82.667091 
L 243.667016 81.885789 
L 256.412283 80.04433 
L 269.157551 81.430721 
L 281.902818 86.408039 
L 294.648086 93.41541 
" clip-path="url(#p5ca6370509)" style="fill: none"/>
   </g>
   <g id="line2d_104">
    <path d="M 52.488004 88.430968 
L 65.233272 83.385772 
L 77.978539 85.880702 
L 90.723806 93.116054 
L 103.469074 91.403111 
L 116.214341 91.731673 
L 128.959609 89.284558 
L 141.704876 86.620369 
L 154.450144 89.491276 
L 167.195411 88.125487 
L 179.940679 85.967147 
L 192.685946 87.840145 
L 205.431213 87.042583 
L 218.176481 85.640163 
L 230.921748 85.434844 
L 243.667016 87.270399 
L 256.412283 97.521182 
L 269.157551 105.29443 
L 281.902818 104.766667 
L 294.648086 106.692328 
" clip-path="url(#p5ca6370509)" style="fill: none"/>
   </g>
   <g id="line2d_105">
    <path d="M 52.488004 95.23237 
L 65.233272 93.536457 
L 77.978539 97.814604 
L 90.723806 100.862072 
L 103.469074 96.611066 
L 116.214341 92.813494 
L 128.959609 86.476098 
L 141.704876 86.347749 
L 154.450144 86.25974 
L 167.195411 87.828649 
L 179.940679 96.012257 
L 192.685946 95.511068 
L 205.431213 102.690677 
L 218.176481 101.065971 
L 230.921748 96.983996 
L 243.667016 101.477953 
L 256.412283 103.99864 
L 269.157551 102.775531 
L 281.902818 106.545812 
L 294.648086 111.748034 
" clip-path="url(#p5ca6370509)" style="fill: none"/>
   </g>
   <g id="line2d_106">
    <path d="M 52.488004 87.741188 
L 65.233272 83.521861 
L 77.978539 80.09993 
L 90.723806 77.344574 
L 103.469074 79.533751 
L 116.214341 84.063105 
L 128.959609 81.789231 
L 141.704876 95.358409 
L 154.450144 96.481138 
L 167.195411 99.743371 
L 179.940679 101.43629 
L 192.685946 104.144146 
L 205.431213 105.979085 
L 218.176481 109.744633 
L 230.921748 107.175586 
L 243.667016 105.391906 
L 256.412283 111.170498 
L 269.157551 112.827729 
L 281.902818 111.473605 
L 294.648086 110.840418 
" clip-path="url(#p5ca6370509)" style="fill: none"/>
   </g>
   <g id="line2d_107">
    <path clip-path="url(#p5ca6370509)" style="fill: none"/>
   </g>
   <g id="line2d_108">
    <path d="M 52.488004 75.190638 
L 65.233272 78.337594 
L 77.978539 81.054765 
L 90.723806 93.886696 
L 103.469074 87.84198 
L 116.214341 92.042704 
L 128.959609 94.582039 
L 141.704876 94.650796 
L 154.450144 96.995362 
L 167.195411 97.820127 
L 179.940679 103.397547 
L 192.685946 100.615397 
L 205.431213 99.065719 
L 218.176481 92.761337 
L 230.921748 105.654944 
L 243.667016 106.338677 
L 256.412283 110.827292 
L 269.157551 124.788761 
L 281.902818 131.162965 
L 294.648086 130.961923 
" clip-path="url(#p5ca6370509)" style="fill: none"/>
   </g>
   <g id="line2d_109">
    <path d="M 52.488004 81.362432 
L 65.233272 85.252441 
L 77.978539 95.933383 
L 90.723806 91.336079 
L 103.469074 96.490285 
L 116.214341 107.141776 
L 128.959609 108.975451 
L 141.704876 107.639781 
L 154.450144 110.694489 
L 167.195411 103.848631 
L 179.940679 106.43884 
L 192.685946 109.272846 
L 205.431213 103.392316 
L 218.176481 114.920437 
L 230.921748 117.768052 
L 243.667016 117.660927 
L 256.412283 128.362763 
L 269.157551 125.97182 
L 281.902818 135.595082 
L 294.648086 135.012995 
" clip-path="url(#p5ca6370509)" style="fill: none"/>
   </g>
   <g id="line2d_110">
    <path d="M 52.488004 75.926958 
L 65.233272 80.517774 
L 77.978539 77.786271 
L 90.723806 84.414242 
L 103.469074 90.097645 
L 116.214341 92.262157 
L 128.959609 81.079319 
L 141.704876 69.076678 
L 154.450144 102.485002 
L 167.195411 105.003075 
L 179.940679 107.108933 
L 192.685946 107.346935 
L 205.431213 110.952644 
L 218.176481 104.192551 
L 230.921748 108.549313 
L 243.667016 109.009977 
L 256.412283 113.963116 
L 269.157551 119.223286 
L 281.902818 126.213959 
L 294.648086 137.70527 
" clip-path="url(#p5ca6370509)" style="fill: none"/>
   </g>
   <g id="line2d_111">
    <path d="M 52.488004 86.345314 
L 65.233272 81.155132 
L 77.978539 85.610858 
L 90.723806 84.108153 
L 103.469074 85.641445 
L 116.214341 82.406405 
L 128.959609 89.714434 
L 141.704876 69.319317 
L 154.450144 74.138561 
L 167.195411 79.864524 
L 179.940679 73.253103 
L 192.685946 71.010777 
L 205.431213 68.925889 
L 218.176481 75.335274 
L 230.921748 75.818085 
L 243.667016 90.128678 
L 256.412283 93.580825 
L 269.157551 118.335943 
L 281.902818 108.748271 
L 294.648086 119.241051 
" clip-path="url(#p5ca6370509)" style="fill: none"/>
   </g>
   <g id="line2d_112">
    <path d="M 52.488004 97.166272 
L 65.233272 103.556559 
L 77.978539 109.469716 
L 90.723806 94.977404 
L 103.469074 92.215837 
L 116.214341 91.345682 
L 128.959609 91.512517 
L 141.704876 88.122734 
L 154.450144 83.548232 
L 167.195411 70.559999 
L 179.940679 69.114531 
L 192.685946 67.27385 
L 205.431213 68.015127 
L 218.176481 69.603575 
L 230.921748 74.535995 
L 243.667016 72.234416 
L 256.412283 69.025178 
L 269.157551 71.738007 
L 281.902818 81.58444 
L 294.648086 95.621911 
" clip-path="url(#p5ca6370509)" style="fill: none"/>
   </g>
   <g id="line2d_113">
    <path d="M 52.488004 85.869445 
L 65.233272 75.48645 
L 77.978539 80.7739 
L 90.723806 94.83383 
L 103.469074 91.341835 
L 116.214341 92.03129 
L 128.959609 87.719789 
L 141.704876 82.293354 
L 154.450144 88.092159 
L 167.195411 85.21947 
L 179.940679 80.766356 
L 192.685946 84.460716 
L 205.431213 82.862862 
L 218.176481 81.12668 
L 230.921748 79.937919 
L 243.667016 84.450103 
L 256.412283 103.704969 
L 269.157551 120.385262 
L 281.902818 117.81401 
L 294.648086 123.673405 
" clip-path="url(#p5ca6370509)" style="fill: none"/>
   </g>
   <g id="line2d_114">
    <path d="M 52.488004 99.372816 
L 65.233272 96.024887 
L 77.978539 104.747209 
L 90.723806 110.212527 
L 103.469074 102.908247 
L 116.214341 94.517273 
L 128.959609 82.063617 
L 141.704876 82.000798 
L 154.450144 81.56995 
L 167.195411 84.83168 
L 179.940679 100.915118 
L 192.685946 99.829931 
L 205.431213 114.403425 
L 218.176481 111.304809 
L 230.921748 103.013728 
L 243.667016 111.938342 
L 256.412283 116.431521 
L 269.157551 114.513385 
L 281.902818 123.215281 
L 294.648086 134.192861 
" clip-path="url(#p5ca6370509)" style="fill: none"/>
   </g>
   <g id="line2d_115">
    <path d="M 52.488004 84.659946 
L 65.233272 75.745673 
L 77.978539 70.263537 
L 90.723806 63.580044 
L 103.469074 68.66304 
L 116.214341 77.104322 
L 128.959609 72.424472 
L 141.704876 100.780609 
L 154.450144 102.070507 
L 167.195411 108.773435 
L 179.940679 112.240673 
L 192.685946 117.791068 
L 205.431213 121.260944 
L 218.176481 128.879646 
L 230.921748 123.651252 
L 243.667016 120.512442 
L 256.412283 131.547535 
L 269.157551 133.977895 
L 281.902818 131.647658 
L 294.648086 131.140546 
" clip-path="url(#p5ca6370509)" style="fill: none"/>
   </g>
   <g id="line2d_116">
    <path clip-path="url(#p5ca6370509)" style="fill: none"/>
   </g>
   <g id="line2d_117">
    <path d="M 52.488004 67.963234 
L 65.233272 72.169818 
L 77.978539 76.096947 
L 90.723806 95.984692 
L 103.469074 85.69895 
L 116.214341 92.859146 
L 128.959609 95.906881 
L 141.704876 96.67193 
L 154.450144 99.696304 
L 167.195411 101.702724 
L 179.940679 109.560583 
L 192.685946 105.127694 
L 205.431213 103.409502 
L 218.176481 94.186075 
L 230.921748 113.907851 
L 243.667016 113.846075 
L 256.412283 119.325517 
L 269.157551 142.404426 
L 281.902818 151.38852 
L 294.648086 149.783085 
" clip-path="url(#p5ca6370509)" style="fill: none"/>
   </g>
   <g id="line2d_118">
    <path d="M 52.488004 76.164338 
L 65.233272 83.054193 
L 77.978539 98.414463 
L 90.723806 91.088565 
L 103.469074 99.401972 
L 116.214341 114.743015 
L 128.959609 118.193173 
L 141.704876 115.544197 
L 154.450144 121.803626 
L 167.195411 110.418861 
L 179.940679 114.154772 
L 192.685946 117.840609 
L 205.431213 109.800464 
L 218.176481 127.300964 
L 230.921748 131.473044 
L 243.667016 131.351897 
L 256.412283 146.453664 
L 269.157551 142.629865 
L 281.902818 159.848066 
L 294.648086 157.207154 
" clip-path="url(#p5ca6370509)" style="fill: none"/>
   </g>
   <g id="line2d_119">
    <path d="M 52.488004 68.119981 
L 65.233272 75.075837 
L 77.978539 71.035267 
L 90.723806 80.752485 
L 103.469074 90.595358 
L 116.214341 91.789521 
L 128.959609 75.191686 
L 141.704876 57.172715 
L 154.450144 108.390526 
L 167.195411 112.071934 
L 179.940679 115.38721 
L 192.685946 115.488085 
L 205.431213 120.355601 
L 218.176481 111.652406 
L 230.921748 116.687231 
L 243.667016 118.399031 
L 256.412283 126.643707 
L 269.157551 134.589995 
L 281.902818 144.20798 
L 294.648086 161.390718 
" clip-path="url(#p5ca6370509)" style="fill: none"/>
   </g>
   <g id="line2d_120">
    <path d="M 52.488004 83.415561 
L 65.233272 76.17408 
L 77.978539 82.841339 
L 90.723806 80.678778 
L 103.469074 82.8365 
L 116.214341 78.504646 
L 128.959609 88.844458 
L 141.704876 57.817862 
L 154.450144 65.858385 
L 167.195411 73.731664 
L 179.940679 64.52706 
L 192.685946 60.424477 
L 205.431213 56.953902 
L 218.176481 67.191756 
L 230.921748 67.800765 
L 243.667016 88.327826 
L 256.412283 94.323785 
L 269.157551 131.87081 
L 281.902818 117.017841 
L 294.648086 133.636226 
" clip-path="url(#p5ca6370509)" style="fill: none"/>
   </g>
   <g id="line2d_121">
    <path d="M 52.488004 100.108258 
L 65.233272 109.858982 
L 77.978539 117.249929 
L 90.723806 96.680078 
L 103.469074 93.378383 
L 116.214341 90.870146 
L 128.959609 91.676387 
L 141.704876 86.496701 
L 154.450144 79.454587 
L 167.195411 59.638225 
L 179.940679 58.329505 
L 192.685946 55.080965 
L 205.431213 55.981573 
L 218.176481 58.583205 
L 230.921748 66.31745 
L 243.667016 61.597305 
L 256.412283 58.343164 
L 269.157551 61.585719 
L 281.902818 76.623516 
L 294.648086 97.721105 
" clip-path="url(#p5ca6370509)" style="fill: none"/>
   </g>
   <g id="line2d_122">
    <path d="M 52.488004 82.647632 
L 65.233272 67.351511 
L 77.978539 75.258312 
L 90.723806 96.028383 
L 103.469074 90.771244 
L 116.214341 91.442877 
L 128.959609 86.686619 
L 141.704876 78.380341 
L 154.450144 86.868713 
L 167.195411 82.595504 
L 179.940679 75.736183 
L 192.685946 80.986969 
L 205.431213 78.815856 
L 218.176481 77.076064 
L 230.921748 74.301187 
L 243.667016 82.29545 
L 256.412283 109.799291 
L 269.157551 135.771156 
L 281.902818 130.655191 
L 294.648086 140.628548 
" clip-path="url(#p5ca6370509)" style="fill: none"/>
   </g>
   <g id="line2d_123">
    <path d="M 52.488004 103.344625 
L 65.233272 98.649717 
L 77.978539 111.638548 
L 90.723806 119.067231 
L 103.469074 109.818674 
L 116.214341 97.12082 
L 128.959609 77.542119 
L 141.704876 78.373814 
L 154.450144 77.172285 
L 167.195411 81.780995 
L 179.940679 105.806119 
L 192.685946 104.024335 
L 205.431213 126.916134 
L 218.176481 121.833278 
L 230.921748 108.916195 
L 243.667016 122.710641 
L 256.412283 128.798705 
L 269.157551 126.126216 
L 281.902818 140.865813 
L 294.648086 158.542699 
" clip-path="url(#p5ca6370509)" style="fill: none"/>
   </g>
   <g id="line2d_124">
    <path d="M 52.488004 81.975486 
L 65.233272 67.747662 
L 77.978539 60.275224 
L 90.723806 49.719502 
L 103.469074 57.963639 
L 116.214341 70.710466 
L 128.959609 63.511347 
L 141.704876 106.071222 
L 154.450144 108.049328 
L 167.195411 118.017078 
L 179.940679 123.30428 
L 192.685946 131.47241 
L 205.431213 136.742596 
L 218.176481 148.245685 
L 230.921748 140.859633 
L 243.667016 135.884589 
L 256.412283 151.865364 
L 269.157551 154.563202 
L 281.902818 151.970605 
L 294.648086 151.956411 
" clip-path="url(#p5ca6370509)" style="fill: none"/>
   </g>
   <g id="line2d_125">
    <path clip-path="url(#p5ca6370509)" style="fill: none"/>
   </g>
   <g id="line2d_126">
    <path d="M 52.488004 60.186652 
L 65.233272 66.304727 
L 77.978539 71.346487 
L 90.723806 98.65186 
L 103.469074 83.348913 
L 116.214341 93.999199 
L 128.959609 97.605813 
L 141.704876 98.836066 
L 154.450144 102.232449 
L 167.195411 105.59094 
L 179.940679 116.005675 
L 192.685946 108.972802 
L 205.431213 107.862626 
L 218.176481 95.865949 
L 230.921748 122.033272 
L 243.667016 121.923057 
L 256.412283 127.946731 
L 269.157551 160.411919 
L 281.902818 171.709236 
L 294.648086 167.958662 
" clip-path="url(#p5ca6370509)" style="fill: none"/>
   </g>
   <g id="line2d_127">
    <path d="M 52.488004 71.01678 
L 65.233272 81.814416 
L 77.978539 100.92089 
L 90.723806 91.292246 
L 103.469074 103.266321 
L 116.214341 122.421839 
L 128.959609 127.323941 
L 141.704876 123.706501 
L 154.450144 133.073681 
L 167.195411 117.245922 
L 179.940679 122.313759 
L 192.685946 126.191171 
L 205.431213 117.100956 
L 218.176481 139.870419 
L 230.921748 145.078309 
L 243.667016 145.45835 
L 256.412283 163.609343 
L 269.157551 159.472068 
L 281.902818 184.431029 
L 294.648086 179.250538 
" clip-path="url(#p5ca6370509)" style="fill: none"/>
   </g>
   <g id="line2d_128">
    <path d="M 52.488004 60.227229 
L 65.233272 69.107614 
L 77.978539 64.082324 
L 90.723806 77.073163 
L 103.469074 91.173016 
L 116.214341 90.692351 
L 128.959609 68.002136 
L 141.704876 45.073776 
L 154.450144 114.674513 
L 167.195411 119.220546 
L 179.940679 124.06737 
L 192.685946 123.711233 
L 205.431213 129.441981 
L 218.176481 119.476107 
L 230.921748 124.754242 
L 243.667016 127.870209 
L 256.412283 139.468247 
L 269.157551 151.139737 
L 281.902818 162.138077 
L 294.648086 184.574985 
" clip-path="url(#p5ca6370509)" style="fill: none"/>
   </g>
   <g id="line2d_129">
    <path d="M 52.488004 80.900894 
L 65.233272 71.02442 
L 77.978539 80.186798 
L 90.723806 77.283221 
L 103.469074 79.606894 
L 116.214341 74.941174 
L 128.959609 87.81524 
L 141.704876 46.580079 
L 154.450144 57.773552 
L 167.195411 67.579151 
L 179.940679 55.599604 
L 192.685946 50.235774 
L 205.431213 44.922975 
L 218.176481 59.443865 
L 230.921748 60.438272 
L 243.667016 85.785337 
L 256.412283 94.964658 
L 269.157551 145.467539 
L 281.902818 124.73892 
L 294.648086 148.041065 
" clip-path="url(#p5ca6370509)" style="fill: none"/>
   </g>
   <g id="line2d_130">
    <path d="M 52.488004 103.563193 
L 65.233272 116.036317 
L 77.978539 124.953477 
L 90.723806 98.706965 
L 103.469074 94.883372 
L 116.214341 90.659571 
L 128.959609 92.288766 
L 141.704876 84.536512 
L 154.450144 75.14417 
L 167.195411 48.825128 
L 179.940679 47.565337 
L 192.685946 43.003742 
L 205.431213 43.674429 
L 218.176481 47.257369 
L 230.921748 58.474442 
L 243.667016 50.04319 
L 256.412283 48.272321 
L 269.157551 50.839604 
L 281.902818 71.815129 
L 294.648086 99.07228 
" clip-path="url(#p5ca6370509)" style="fill: none"/>
   </g>
   <g id="line2d_131">
    <path d="M 52.488004 79.270978 
L 65.233272 59.028184 
L 77.978539 69.45029 
L 90.723806 97.18101 
L 103.469074 90.136545 
L 116.214341 91.033278 
L 128.959609 86.140738 
L 141.704876 74.440312 
L 154.450144 85.976297 
L 167.195411 80.436738 
L 179.940679 71.046799 
L 192.685946 78.017394 
L 205.431213 74.990432 
L 218.176481 72.508258 
L 230.921748 68.702709 
L 243.667016 80.279299 
L 256.412283 115.536049 
L 269.157551 150.20648 
L 281.902818 143.887062 
L 294.648086 157.411249 
" clip-path="url(#p5ca6370509)" style="fill: none"/>
   </g>
   <g id="line2d_132">
    <path d="M 52.488004 106.999434 
L 65.233272 102.064196 
L 77.978539 118.871487 
L 90.723806 127.579644 
L 103.469074 116.378652 
L 116.214341 99.96297 
L 128.959609 73.008326 
L 141.704876 75.240916 
L 154.450144 73.311799 
L 167.195411 78.234717 
L 179.940679 110.288224 
L 192.685946 108.247706 
L 205.431213 139.52712 
L 218.176481 132.433008 
L 230.921748 114.905709 
L 243.667016 133.64254 
L 256.412283 140.703689 
L 269.157551 137.808323 
L 281.902818 158.907463 
L 294.648086 183.652387 
" clip-path="url(#p5ca6370509)" style="fill: none"/>
   </g>
   <g id="line2d_133">
    <path d="M 52.488004 79.477935 
L 65.233272 60.04457 
L 77.978539 49.745115 
L 90.723806 35.877393 
L 103.469074 47.161505 
L 116.214341 64.093132 
L 128.959609 55.625329 
L 141.704876 111.45863 
L 154.450144 114.411286 
L 167.195411 126.766273 
L 179.940679 134.737105 
L 192.685946 145.217035 
L 205.431213 152.15083 
L 218.176481 167.736423 
L 230.921748 158.326212 
L 243.667016 151.266038 
L 256.412283 172.648356 
L 269.157551 175.195882 
L 281.902818 172.356731 
L 294.648086 173.240455 
" clip-path="url(#p5ca6370509)" style="fill: none"/>
   </g>
   <g id="line2d_134">
    <path clip-path="url(#p5ca6370509)" style="fill: none"/>
   </g>
   <g id="line2d_135">
    <path d="M 52.488004 68.910716 
L 65.233272 72.565861 
L 77.978539 76.095528 
L 90.723806 95.934245 
L 103.469074 85.800954 
L 116.214341 92.677221 
L 128.959609 95.665409 
L 141.704876 96.753725 
L 154.450144 99.753343 
L 167.195411 101.513503 
L 179.940679 109.88795 
L 192.685946 105.312749 
L 205.431213 103.385322 
L 218.176481 93.66843 
L 230.921748 113.907064 
L 243.667016 113.011232 
L 256.412283 119.15235 
L 269.157551 141.907487 
L 281.902818 151.741287 
L 294.648086 150.393414 
" clip-path="url(#p5ca6370509)" style="fill: none"/>
   </g>
   <g id="line2d_136">
    <path d="M 52.488004 75.729213 
L 65.233272 82.517837 
L 77.978539 98.49188 
L 90.723806 90.843403 
L 103.469074 99.357747 
L 116.214341 114.817202 
L 128.959609 118.369867 
L 141.704876 115.825655 
L 154.450144 121.063238 
L 167.195411 110.472776 
L 179.940679 113.324059 
L 192.685946 117.432794 
L 205.431213 109.631081 
L 218.176481 127.72705 
L 230.921748 132.148098 
L 243.667016 131.954828 
L 256.412283 146.770183 
L 269.157551 142.204916 
L 281.902818 159.328821 
L 294.648086 157.681003 
" clip-path="url(#p5ca6370509)" style="fill: none"/>
   </g>
   <g id="line2d_137">
    <path d="M 52.488004 68.688768 
L 65.233272 75.107222 
L 77.978539 71.424226 
L 90.723806 80.236015 
L 103.469074 90.504729 
L 116.214341 92.21807 
L 128.959609 76.368159 
L 141.704876 57.483833 
L 154.450144 108.578816 
L 167.195411 111.759621 
L 179.940679 115.328554 
L 192.685946 115.787455 
L 205.431213 120.537182 
L 218.176481 111.344431 
L 230.921748 116.820519 
L 243.667016 118.970074 
L 256.412283 126.548392 
L 269.157551 133.544043 
L 281.902818 144.449153 
L 294.648086 161.644425 
" clip-path="url(#p5ca6370509)" style="fill: none"/>
   </g>
   <g id="line2d_138">
    <path d="M 52.488004 83.021428 
L 65.233272 76.35378 
L 77.978539 82.721341 
L 90.723806 80.622757 
L 103.469074 83.23817 
L 116.214341 78.184416 
L 128.959609 88.995275 
L 141.704876 57.279539 
L 154.450144 65.7086 
L 167.195411 73.669427 
L 179.940679 64.810553 
L 192.685946 60.214739 
L 205.431213 56.938375 
L 218.176481 66.909919 
L 230.921748 67.560558 
L 243.667016 88.568933 
L 256.412283 94.845616 
L 269.157551 131.22607 
L 281.902818 117.20819 
L 294.648086 133.30306 
" clip-path="url(#p5ca6370509)" style="fill: none"/>
   </g>
   <g id="line2d_139">
    <path d="M 52.488004 99.56682 
L 65.233272 109.926977 
L 77.978539 117.457627 
L 90.723806 96.02791 
L 103.469074 93.12557 
L 116.214341 90.309858 
L 128.959609 91.786727 
L 141.704876 86.96885 
L 154.450144 79.382857 
L 167.195411 59.395014 
L 179.940679 58.780022 
L 192.685946 55.317257 
L 205.431213 56.457379 
L 218.176481 59.377879 
L 230.921748 66.03276 
L 243.667016 61.975087 
L 256.412283 58.29721 
L 269.157551 61.781634 
L 281.902818 76.397017 
L 294.648086 99.200601 
" clip-path="url(#p5ca6370509)" style="fill: none"/>
   </g>
   <g id="line2d_140">
    <path d="M 52.488004 82.786181 
L 65.233272 67.327843 
L 77.978539 75.668818 
L 90.723806 95.758118 
L 103.469074 90.992024 
L 116.214341 90.863038 
L 128.959609 86.875251 
L 141.704876 78.996754 
L 154.450144 86.349307 
L 167.195411 82.447763 
L 179.940679 75.321857 
L 192.685946 81.084888 
L 205.431213 79.019467 
L 218.176481 77.342386 
L 230.921748 74.246508 
L 243.667016 82.135954 
L 256.412283 110.426772 
L 269.157551 136.357766 
L 281.902818 130.827608 
L 294.648086 140.31748 
" clip-path="url(#p5ca6370509)" style="fill: none"/>
   </g>
   <g id="line2d_141">
    <path d="M 52.488004 103.40031 
L 65.233272 98.338897 
L 77.978539 111.203466 
L 90.723806 118.583981 
L 103.469074 110.619172 
L 116.214341 97.798449 
L 128.959609 77.35057 
L 141.704876 78.313174 
L 154.450144 76.694524 
L 167.195411 82.488676 
L 179.940679 106.089897 
L 192.685946 104.144081 
L 205.431213 126.951681 
L 218.176481 121.687783 
L 230.921748 108.605394 
L 243.667016 122.503712 
L 256.412283 129.673475 
L 269.157551 125.991148 
L 281.902818 141.224763 
L 294.648086 158.295899 
" clip-path="url(#p5ca6370509)" style="fill: none"/>
   </g>
   <g id="line2d_142">
    <path d="M 52.488004 82.361121 
L 65.233272 67.372205 
L 77.978539 60.431257 
L 90.723806 49.781617 
L 103.469074 58.129004 
L 116.214341 70.706356 
L 128.959609 62.558294 
L 141.704876 105.850968 
L 154.450144 108.002182 
L 167.195411 118.101949 
L 179.940679 122.820445 
L 192.685946 130.970581 
L 205.431213 136.800099 
L 218.176481 148.495516 
L 230.921748 140.944357 
L 243.667016 135.789773 
L 256.412283 151.518537 
L 269.157551 153.942676 
L 281.902818 152.715932 
L 294.648086 151.914736 
" clip-path="url(#p5ca6370509)" style="fill: none"/>
   </g>
   <g id="line2d_143">
    <path clip-path="url(#p5ca6370509)" style="fill: none"/>
   </g>
   <g id="line2d_144">
    <path d="M 52.488004 77.636433 
L 65.233272 79.061955 
L 77.978539 80.592549 
L 90.723806 93.260213 
L 103.469074 88.317291 
L 116.214341 91.519072 
L 128.959609 93.992608 
L 141.704876 95.157794 
L 154.450144 97.545197 
L 167.195411 97.491057 
L 179.940679 104.339208 
L 192.685946 101.946313 
L 205.431213 98.496938 
L 218.176481 91.499663 
L 230.921748 105.444381 
L 243.667016 103.542142 
L 256.412283 111.129573 
L 269.157551 122.841132 
L 281.902818 132.104494 
L 294.648086 134.668337 
" clip-path="url(#p5ca6370509)" style="fill: none"/>
   </g>
   <g id="line2d_145">
    <path d="M 52.488004 80.050475 
L 65.233272 82.769591 
L 77.978539 96.309484 
L 90.723806 90.829333 
L 103.469074 95.86555 
L 116.214341 107.239543 
L 128.959609 109.717925 
L 141.704876 108.651396 
L 154.450144 108.534426 
L 167.195411 104.221179 
L 179.940679 103.824253 
L 192.685946 108.618776 
L 205.431213 101.952749 
L 218.176481 115.411703 
L 230.921748 119.993129 
L 243.667016 118.916803 
L 256.412283 130.182822 
L 269.157551 124.743291 
L 281.902818 134.067034 
L 294.648086 136.260318 
" clip-path="url(#p5ca6370509)" style="fill: none"/>
   </g>
   <g id="line2d_146">
    <path d="M 52.488004 77.467157 
L 65.233272 80.613305 
L 77.978539 79.327056 
L 90.723806 83.537939 
L 103.469074 89.819311 
L 116.214341 94.802917 
L 128.959609 85.26669 
L 141.704876 69.703163 
L 154.450144 103.237504 
L 167.195411 104.308199 
L 179.940679 106.515651 
L 192.685946 108.097544 
L 205.431213 112.163408 
L 218.176481 103.189166 
L 230.921748 108.885388 
L 243.667016 110.279081 
L 256.412283 113.359255 
L 269.157551 115.755932 
L 281.902818 126.879942 
L 294.648086 138.384538 
" clip-path="url(#p5ca6370509)" style="fill: none"/>
   </g>
   <g id="line2d_147">
    <path d="M 52.488004 85.477184 
L 65.233272 81.576573 
L 77.978539 85.363906 
L 90.723806 83.739547 
L 103.469074 86.929402 
L 116.214341 81.032517 
L 128.959609 90.068107 
L 141.704876 67.550941 
L 154.450144 73.882911 
L 167.195411 79.854643 
L 179.940679 74.028052 
L 192.685946 69.374659 
L 205.431213 69.023034 
L 218.176481 74.26106 
L 230.921748 74.73677 
L 243.667016 91.777524 
L 256.412283 94.580736 
L 269.157551 117.678988 
L 281.902818 110.01111 
L 294.648086 117.903338 
" clip-path="url(#p5ca6370509)" style="fill: none"/>
   </g>
   <g id="line2d_148">
    <path d="M 52.488004 95.511574 
L 65.233272 104.184803 
L 77.978539 110.4558 
L 90.723806 93.255353 
L 103.469074 91.529201 
L 116.214341 89.248183 
L 128.959609 91.7337 
L 141.704876 89.353068 
L 154.450144 83.385652 
L 167.195411 69.286168 
L 179.940679 70.088732 
L 192.685946 67.808159 
L 205.431213 69.411461 
L 218.176481 72.187847 
L 230.921748 74.0687 
L 243.667016 73.910062 
L 256.412283 68.904929 
L 269.157551 72.236289 
L 281.902818 80.229216 
L 294.648086 100.618811 
" clip-path="url(#p5ca6370509)" style="fill: none"/>
   </g>
   <g id="line2d_149">
    <path d="M 52.488004 86.458726 
L 65.233272 75.85229 
L 77.978539 82.380261 
L 90.723806 94.610346 
L 103.469074 92.262729 
L 116.214341 90.530584 
L 128.959609 87.898143 
L 141.704876 83.863941 
L 154.450144 86.067044 
L 167.195411 84.909027 
L 179.940679 78.969193 
L 192.685946 84.46524 
L 205.431213 82.625491 
L 218.176481 81.647865 
L 230.921748 80.336857 
L 243.667016 83.134823 
L 256.412283 105.681574 
L 269.157551 122.202951 
L 281.902818 117.283482 
L 294.648086 122.555507 
" clip-path="url(#p5ca6370509)" style="fill: none"/>
   </g>
   <g id="line2d_150">
    <path d="M 52.488004 99.477132 
L 65.233272 94.763882 
L 77.978539 103.356535 
L 90.723806 109.013927 
L 103.469074 105.101907 
L 116.214341 96.015965 
L 128.959609 80.938739 
L 141.704876 81.404061 
L 154.450144 79.871859 
L 167.195411 87.034445 
L 179.940679 101.815371 
L 192.685946 100.515397 
L 205.431213 113.87856 
L 218.176481 110.499777 
L 230.921748 102.119089 
L 243.667016 110.767995 
L 256.412283 119.023743 
L 269.157551 113.721296 
L 281.902818 123.999108 
L 294.648086 132.875595 
" clip-path="url(#p5ca6370509)" style="fill: none"/>
   </g>
   <g id="line2d_151">
    <path d="M 52.488004 85.194367 
L 65.233272 74.039494 
L 77.978539 71.230598 
L 90.723806 64.606219 
L 103.469074 68.938225 
L 116.214341 76.835994 
L 128.959609 69.27159 
L 141.704876 100.472189 
L 154.450144 100.994688 
L 167.195411 109.137791 
L 179.940679 110.200197 
L 192.685946 116.612773 
L 205.431213 121.374794 
L 218.176481 129.502231 
L 230.921748 124.176399 
L 243.667016 120.290068 
L 256.412283 130.339002 
L 269.157551 132.58147 
L 281.902818 133.373503 
L 294.648086 130.742469 
" clip-path="url(#p5ca6370509)" style="fill: none"/>
   </g>
   <g id="line2d_152">
    <path clip-path="url(#p5ca6370509)" style="fill: none"/>
   </g>
   <g id="line2d_153">
    <path d="M 52.488004 85.938016 
L 65.233272 85.648614 
L 77.978539 84.896311 
L 90.723806 90.41906 
L 103.469074 90.982512 
L 116.214341 90.482144 
L 128.959609 92.853259 
L 141.704876 93.796011 
L 154.450144 95.735119 
L 167.195411 93.784337 
L 179.940679 98.861628 
L 192.685946 98.50307 
L 205.431213 93.137436 
L 218.176481 89.717417 
L 230.921748 97.354623 
L 243.667016 93.933372 
L 256.412283 103.961976 
L 269.157551 104.158241 
L 281.902818 112.847389 
L 294.648086 119.175467 
" clip-path="url(#p5ca6370509)" style="fill: none"/>
   </g>
   <g id="line2d_154">
    <path d="M 52.488004 83.61052 
L 65.233272 82.691964 
L 77.978539 94.627701 
L 90.723806 91.274337 
L 103.469074 92.668051 
L 116.214341 99.721489 
L 128.959609 101.77353 
L 141.704876 101.552219 
L 154.450144 95.666662 
L 167.195411 98.41795 
L 179.940679 94.153704 
L 192.685946 99.768374 
L 205.431213 93.970881 
L 218.176481 102.084331 
L 230.921748 108.957346 
L 243.667016 106.518521 
L 256.412283 114.178434 
L 269.157551 106.849464 
L 281.902818 109.372105 
L 294.648086 114.977488 
" clip-path="url(#p5ca6370509)" style="fill: none"/>
   </g>
   <g id="line2d_155">
    <path d="M 52.488004 86.417768 
L 65.233272 85.293523 
L 77.978539 88.084464 
L 90.723806 86.773084 
L 103.469074 89.110925 
L 116.214341 98.138752 
L 128.959609 94.282057 
L 141.704876 81.590893 
L 154.450144 98.318083 
L 167.195411 97.192971 
L 179.940679 97.798101 
L 192.685946 100.543144 
L 205.431213 104.377846 
L 218.176481 95.094149 
L 230.921748 101.049392 
L 243.667016 101.783854 
L 256.412283 100.036713 
L 269.157551 98.157545 
L 281.902818 109.13039 
L 294.648086 114.387321 
" clip-path="url(#p5ca6370509)" style="fill: none"/>
   </g>
   <g id="line2d_156">
    <path d="M 52.488004 88.675303 
L 65.233272 86.533796 
L 77.978539 88.077093 
L 90.723806 86.745896 
L 103.469074 90.6662 
L 116.214341 83.387517 
L 128.959609 91.002347 
L 141.704876 77.689107 
L 154.450144 82.247364 
L 167.195411 86.145 
L 179.940679 82.463141 
L 192.685946 77.562944 
L 205.431213 80.868737 
L 218.176481 81.683901 
L 230.921748 81.745299 
L 243.667016 95.153527 
L 256.412283 93.861301 
L 269.157551 105.238731 
L 281.902818 103.280401 
L 294.648086 102.405623 
" clip-path="url(#p5ca6370509)" style="fill: none"/>
   </g>
   <g id="line2d_157">
    <path d="M 52.488004 91.758897 
L 65.233272 98.49118 
L 77.978539 103.447572 
L 90.723806 90.634147 
L 103.469074 90.678451 
L 116.214341 88.136012 
L 128.959609 91.869695 
L 141.704876 91.691294 
L 154.450144 87.288457 
L 167.195411 78.883091 
L 179.940679 81.246772 
L 192.685946 80.541061 
L 205.431213 82.409594 
L 218.176481 84.694187 
L 230.921748 82.106018 
L 243.667016 85.431321 
L 256.412283 80.066032 
L 269.157551 83.006273 
L 281.902818 83.747821 
L 294.648086 102.104634 
" clip-path="url(#p5ca6370509)" style="fill: none"/>
   </g>
   <g id="line2d_158">
    <path d="M 52.488004 89.656243 
L 65.233272 84.779412 
L 77.978539 88.706113 
L 90.723806 93.701869 
L 103.469074 93.564675 
L 116.214341 90.519126 
L 128.959609 88.889827 
L 141.704876 88.471516 
L 154.450144 85.07398 
L 167.195411 87.874497 
L 179.940679 82.551009 
L 192.685946 87.200368 
L 205.431213 85.284927 
L 218.176481 85.535573 
L 230.921748 86.75485 
L 243.667016 83.489081 
L 256.412283 101.488508 
L 269.157551 108.167232 
L 281.902818 103.211952 
L 294.648086 104.659758 
" clip-path="url(#p5ca6370509)" style="fill: none"/>
   </g>
   <g id="line2d_159">
    <path d="M 52.488004 95.342248 
L 65.233272 91.02156 
L 77.978539 95.334355 
L 90.723806 99.140053 
L 103.469074 99.698999 
L 116.214341 94.464509 
L 128.959609 83.823499 
L 141.704876 84.317002 
L 154.450144 83.095673 
L 167.195411 91.23999 
L 179.940679 97.539549 
L 192.685946 97.62732 
L 205.431213 101.060812 
L 218.176481 99.151709 
L 230.921748 95.625147 
L 243.667016 98.901065 
L 256.412283 108.344419 
L 269.157551 100.793171 
L 281.902818 106.671439 
L 294.648086 108.170409 
" clip-path="url(#p5ca6370509)" style="fill: none"/>
   </g>
   <g id="line2d_160">
    <path d="M 52.488004 87.1543 
L 65.233272 79.896143 
L 77.978539 81.389575 
L 90.723806 80.031346 
L 103.469074 78.985326 
L 116.214341 82.594682 
L 128.959609 75.811109 
L 141.704876 95.778994 
L 154.450144 93.016674 
L 167.195411 100.36002 
L 179.940679 97.285434 
L 192.685946 102.407085 
L 205.431213 105.657911 
L 218.176481 110.630439 
L 230.921748 108.246658 
L 243.667016 104.499894 
L 256.412283 108.820998 
L 269.157551 111.988154 
L 281.902818 113.566584 
L 294.648086 109.571715 
" clip-path="url(#p5ca6370509)" style="fill: none"/>
   </g>
   <g id="line2d_161">
    <path clip-path="url(#p5ca6370509)" style="fill: none"/>
   </g>
  </g>
  <g id="text_11">
   <!-- Train -->
   <g style="fill: #838383" transform="translate(152.775781 17.856) scale(0.144 -0.144)">
    <defs>
     <path id="IBMPlexSans-Regular-54" d="M 2099 3994 
L 2099 0 
L 1562 0 
L 1562 3994 
L 141 3994 
L 141 4467 
L 3520 4467 
L 3520 3994 
L 2099 3994 
z
" transform="scale(0.015625)"/>
     <path id="IBMPlexSans-Regular-69" d="M 800 4077 
Q 634 4077 560 4157 
Q 486 4237 486 4365 
L 486 4448 
Q 486 4576 560 4656 
Q 634 4736 800 4736 
Q 966 4736 1040 4656 
Q 1114 4576 1114 4448 
L 1114 4365 
Q 1114 4237 1040 4157 
Q 966 4077 800 4077 
z
M 544 3302 
L 1056 3302 
L 1056 0 
L 544 0 
L 544 3302 
z
" transform="scale(0.015625)"/>
     <path id="IBMPlexSans-Regular-6e" d="M 544 0 
L 544 3302 
L 1056 3302 
L 1056 2765 
L 1082 2765 
Q 1203 3046 1424 3212 
Q 1645 3379 2016 3379 
Q 2528 3379 2825 3049 
Q 3123 2720 3123 2118 
L 3123 0 
L 2611 0 
L 2611 2029 
Q 2611 2918 1862 2918 
Q 1709 2918 1565 2880 
Q 1421 2842 1305 2765 
Q 1190 2688 1123 2569 
Q 1056 2451 1056 2291 
L 1056 0 
L 544 0 
z
" transform="scale(0.015625)"/>
    </defs>
    <use xlink:href="#IBMPlexSans-Regular-54"/>
    <use xlink:href="#IBMPlexSans-Regular-72" transform="translate(57.199997 0)"/>
    <use xlink:href="#IBMPlexSans-Regular-61" transform="translate(93.899994 0)"/>
    <use xlink:href="#IBMPlexSans-Regular-69" transform="translate(147.299988 0)"/>
    <use xlink:href="#IBMPlexSans-Regular-6e" transform="translate(172.299973 0)"/>
   </g>
  </g>
 </g>
 <defs>
  <clipPath id="p5ca6370509">
   <rect x="40.38" y="28.442513" width="266.37609" height="163.567352"/>
  </clipPath>
 </defs>
</svg>
