<?xml version="1.0" encoding="utf-8" standalone="no"?>
<!DOCTYPE svg PUBLIC "-//W3C//DTD SVG 1.1//EN"
  "http://www.w3.org/Graphics/SVG/1.1/DTD/svg11.dtd">
<svg xmlns:xlink="http://www.w3.org/1999/xlink" width="239.842344pt" height="174.404375pt" viewBox="0 0 239.842344 174.404375" xmlns="http://www.w3.org/2000/svg" version="1.1">
 <metadata>
  <rdf:RDF xmlns:dc="http://purl.org/dc/elements/1.1/" xmlns:cc="http://creativecommons.org/ns#" xmlns:rdf="http://www.w3.org/1999/02/22-rdf-syntax-ns#">
   <cc:Work>
    <dc:type rdf:resource="http://purl.org/dc/dcmitype/StillImage"/>
    <dc:date>2025-12-31T11:21:50.027113</dc:date>
    <dc:format>image/svg+xml</dc:format>
    <dc:creator>
     <cc:Agent>
      <dc:title>Matplotlib v3.10.5, https://matplotlib.org/</dc:title>
     </cc:Agent>
    </dc:creator>
   </cc:Work>
  </rdf:RDF>
 </metadata>
 <defs>
  <style type="text/css">*{stroke-linejoin: round; stroke-linecap: butt}</style>
 </defs>
 <g id="figure_1">
  <g id="patch_1">
   <path d="M 0 174.404375 
L 239.842344 174.404375 
L 239.842344 0 
L 0 0 
L 0 174.404375 
z
" style="fill: none"/>
  </g>
  <g id="axes_1">
   <g id="patch_2">
    <path d="M 15.296172 48.78 
L 224.546172 48.78 
L 224.546172 7.2 
L 15.296172 7.2 
L 15.296172 48.78 
z
" style="fill: none"/>
   </g>
   <g id="matplotlib.axis_1">
    <g id="xtick_1"/>
    <g id="xtick_2"/>
    <g id="xtick_3"/>
    <g id="xtick_4"/>
    <g id="xtick_5"/>
    <g id="xtick_6"/>
   </g>
   <g id="matplotlib.axis_2"/>
   <g id="line2d_1">
    <path d="M 15.296172 48.78 
L 224.546172 48.78 
" style="fill: none; stroke: #482475; stroke-opacity: 0.9; stroke-linecap: round"/>
   </g>
   <g id="text_1">
    <!-- 0 -->
    <g style="fill: #482475" transform="translate(15.296172 47.862) scale(0.12 -0.12)">
     <defs>
      <path id="IBMPlexSans-Bold-30" d="M 1920 -77 
Q 1043 -77 620 531 
Q 198 1139 198 2234 
Q 198 3328 620 3936 
Q 1043 4544 1920 4544 
Q 2797 4544 3219 3936 
Q 3642 3328 3642 2234 
Q 3642 1139 3219 531 
Q 2797 -77 1920 -77 
z
M 1920 736 
Q 2304 736 2451 1017 
Q 2598 1299 2598 1811 
L 2598 2656 
Q 2598 3168 2451 3449 
Q 2304 3731 1920 3731 
Q 1536 3731 1389 3449 
Q 1242 3168 1242 2656 
L 1242 1811 
Q 1242 1299 1389 1017 
Q 1536 736 1920 736 
z
" transform="scale(0.015625)"/>
     </defs>
     <use xlink:href="#IBMPlexSans-Bold-30"/>
    </g>
   </g>
  </g>
  <g id="axes_2">
   <g id="patch_3">
    <path d="M 15.296172 59.175 
L 224.546172 59.175 
L 224.546172 17.595 
L 15.296172 17.595 
L 15.296172 59.175 
z
" style="fill: none"/>
   </g>
   <g id="matplotlib.axis_3">
    <g id="xtick_7"/>
    <g id="xtick_8"/>
    <g id="xtick_9"/>
    <g id="xtick_10"/>
    <g id="xtick_11"/>
    <g id="xtick_12"/>
   </g>
   <g id="matplotlib.axis_4"/>
   <g id="line2d_2">
    <path d="M 15.296172 59.175 
L 224.546172 59.175 
" style="fill: none; stroke: #482475; stroke-opacity: 0.9; stroke-linecap: round"/>
   </g>
   <g id="text_2">
    <!-- 1 -->
    <g style="fill: #482475" transform="translate(15.296172 58.257) scale(0.12 -0.12)">
     <defs>
      <path id="IBMPlexSans-Bold-31" d="M 602 0 
L 602 774 
L 1805 774 
L 1805 3770 
L 1747 3770 
L 838 2579 
L 224 3059 
L 1293 4467 
L 2765 4467 
L 2765 774 
L 3712 774 
L 3712 0 
L 602 0 
z
" transform="scale(0.015625)"/>
     </defs>
     <use xlink:href="#IBMPlexSans-Bold-31"/>
    </g>
   </g>
  </g>
  <g id="axes_3">
   <g id="patch_4">
    <path d="M 15.296172 69.57 
L 224.546172 69.57 
L 224.546172 27.99 
L 15.296172 27.99 
L 15.296172 69.57 
z
" style="fill: none"/>
   </g>
   <g id="matplotlib.axis_5">
    <g id="xtick_13"/>
    <g id="xtick_14"/>
    <g id="xtick_15"/>
    <g id="xtick_16"/>
    <g id="xtick_17"/>
    <g id="xtick_18"/>
   </g>
   <g id="matplotlib.axis_6"/>
   <g id="line2d_3">
    <path d="M 15.296172 69.57 
L 224.546172 69.57 
" style="fill: none; stroke: #482475; stroke-opacity: 0.9; stroke-linecap: round"/>
   </g>
   <g id="text_3">
    <!-- 2 -->
    <g style="fill: #482475" transform="translate(15.296172 68.652) scale(0.12 -0.12)">
     <defs>
      <path id="IBMPlexSans-Bold-32" d="M 3526 0 
L 365 0 
L 365 877 
L 1741 2054 
Q 1926 2214 2054 2345 
Q 2182 2477 2262 2601 
Q 2342 2726 2377 2848 
Q 2413 2970 2413 3110 
L 2413 3200 
Q 2413 3328 2361 3424 
Q 2310 3520 2227 3584 
Q 2144 3648 2038 3680 
Q 1933 3712 1824 3712 
Q 1664 3712 1545 3661 
Q 1427 3610 1340 3523 
Q 1254 3437 1196 3325 
Q 1139 3213 1107 3085 
L 269 3405 
Q 346 3635 480 3843 
Q 614 4051 816 4208 
Q 1018 4365 1293 4454 
Q 1568 4544 1914 4544 
Q 2278 4544 2560 4441 
Q 2842 4339 3037 4160 
Q 3232 3981 3334 3734 
Q 3437 3488 3437 3200 
Q 3437 2912 3341 2675 
Q 3245 2438 3081 2230 
Q 2918 2022 2700 1836 
Q 2483 1651 2246 1459 
L 1414 806 
L 3526 806 
L 3526 0 
z
" transform="scale(0.015625)"/>
     </defs>
     <use xlink:href="#IBMPlexSans-Bold-32"/>
    </g>
   </g>
  </g>
  <g id="axes_4">
   <g id="patch_5">
    <path d="M 15.296172 79.965 
L 224.546172 79.965 
L 224.546172 38.385 
L 15.296172 38.385 
L 15.296172 79.965 
z
" style="fill: none"/>
   </g>
   <g id="matplotlib.axis_7">
    <g id="xtick_19"/>
    <g id="xtick_20"/>
    <g id="xtick_21"/>
    <g id="xtick_22"/>
    <g id="xtick_23"/>
    <g id="xtick_24"/>
   </g>
   <g id="matplotlib.axis_8"/>
   <g id="line2d_4">
    <path d="M 15.296172 79.965 
L 224.546172 79.965 
" style="fill: none; stroke: #482475; stroke-opacity: 0.9; stroke-linecap: round"/>
   </g>
   <g id="text_4">
    <!-- 3 -->
    <g style="fill: #482475" transform="translate(15.296172 79.047) scale(0.12 -0.12)">
     <defs>
      <path id="IBMPlexSans-Bold-33" d="M 1677 2701 
Q 2035 2701 2198 2838 
Q 2362 2976 2362 3181 
L 2362 3226 
Q 2362 3469 2205 3616 
Q 2048 3763 1760 3763 
Q 1491 3763 1254 3625 
Q 1018 3488 851 3232 
L 250 3795 
Q 378 3962 525 4099 
Q 672 4237 857 4336 
Q 1043 4435 1273 4489 
Q 1504 4544 1792 4544 
Q 2150 4544 2441 4461 
Q 2733 4378 2941 4221 
Q 3149 4064 3261 3846 
Q 3373 3629 3373 3360 
Q 3373 3149 3305 2976 
Q 3238 2803 3120 2675 
Q 3002 2547 2848 2467 
Q 2694 2387 2522 2355 
L 2522 2317 
Q 2720 2278 2889 2192 
Q 3059 2106 3184 1971 
Q 3309 1837 3379 1654 
Q 3450 1472 3450 1242 
Q 3450 941 3328 697 
Q 3206 454 2982 281 
Q 2758 109 2444 16 
Q 2131 -77 1754 -77 
Q 1414 -77 1152 -6 
Q 890 64 694 182 
Q 499 301 355 454 
Q 211 608 102 781 
L 813 1331 
Q 960 1056 1174 880 
Q 1389 704 1754 704 
Q 2080 704 2262 867 
Q 2445 1030 2445 1312 
L 2445 1350 
Q 2445 1626 2237 1763 
Q 2029 1901 1664 1901 
L 1261 1901 
L 1261 2701 
L 1677 2701 
z
" transform="scale(0.015625)"/>
     </defs>
     <use xlink:href="#IBMPlexSans-Bold-33"/>
    </g>
   </g>
  </g>
  <g id="axes_5">
   <g id="patch_6">
    <path d="M 15.296172 90.36 
L 224.546172 90.36 
L 224.546172 48.78 
L 15.296172 48.78 
L 15.296172 90.36 
z
" style="fill: none"/>
   </g>
   <g id="matplotlib.axis_9">
    <g id="xtick_25"/>
    <g id="xtick_26"/>
    <g id="xtick_27"/>
    <g id="xtick_28"/>
    <g id="xtick_29"/>
    <g id="xtick_30"/>
   </g>
   <g id="matplotlib.axis_10"/>
   <g id="line2d_5">
    <path d="M 15.296172 90.36 
L 224.546172 90.36 
" style="fill: none; stroke: #482475; stroke-opacity: 0.9; stroke-linecap: round"/>
   </g>
   <g id="text_5">
    <!-- 4 -->
    <g style="fill: #482475" transform="translate(15.296172 89.442) scale(0.12 -0.12)">
     <defs>
      <path id="IBMPlexSans-Bold-34" d="M 2157 0 
L 2157 858 
L 192 858 
L 192 1677 
L 1933 4467 
L 3072 4467 
L 3072 1600 
L 3635 1600 
L 3635 858 
L 3072 858 
L 3072 0 
L 2157 0 
z
M 960 1600 
L 2157 1600 
L 2157 3475 
L 2093 3475 
L 960 1600 
z
" transform="scale(0.015625)"/>
     </defs>
     <use xlink:href="#IBMPlexSans-Bold-34"/>
    </g>
   </g>
  </g>
  <g id="axes_6">
   <g id="patch_7">
    <path d="M 15.296172 100.755 
L 224.546172 100.755 
L 224.546172 59.175 
L 15.296172 59.175 
L 15.296172 100.755 
z
" style="fill: none"/>
   </g>
   <g id="matplotlib.axis_11">
    <g id="xtick_31"/>
    <g id="xtick_32"/>
    <g id="xtick_33"/>
    <g id="xtick_34"/>
    <g id="xtick_35"/>
    <g id="xtick_36"/>
   </g>
   <g id="matplotlib.axis_12"/>
   <g id="line2d_6">
    <path d="M 15.296172 100.755 
L 224.546172 100.755 
" style="fill: none; stroke: #482475; stroke-opacity: 0.9; stroke-linecap: round"/>
   </g>
   <g id="text_6">
    <!-- 5 -->
    <g style="fill: #482475" transform="translate(15.296172 99.837) scale(0.12 -0.12)">
     <defs>
      <path id="IBMPlexSans-Bold-35" d="M 3341 3629 
L 1312 3629 
L 1216 2214 
L 1267 2214 
Q 1331 2374 1411 2505 
Q 1491 2637 1600 2729 
Q 1709 2822 1862 2873 
Q 2016 2925 2227 2925 
Q 2515 2925 2764 2829 
Q 3014 2733 3200 2550 
Q 3386 2368 3494 2102 
Q 3603 1837 3603 1504 
Q 3603 1165 3491 873 
Q 3379 582 3158 371 
Q 2938 160 2618 41 
Q 2298 -77 1888 -77 
Q 1562 -77 1312 -6 
Q 1062 64 870 182 
Q 678 301 537 454 
Q 397 608 294 781 
L 992 1331 
Q 1139 1069 1344 886 
Q 1549 704 1894 704 
Q 2240 704 2416 902 
Q 2592 1101 2592 1427 
L 2592 1478 
Q 2592 1786 2413 1965 
Q 2234 2144 1920 2144 
Q 1658 2144 1488 2038 
Q 1318 1933 1229 1830 
L 442 1939 
L 608 4467 
L 3341 4467 
L 3341 3629 
z
" transform="scale(0.015625)"/>
     </defs>
     <use xlink:href="#IBMPlexSans-Bold-35"/>
    </g>
   </g>
  </g>
  <g id="axes_7">
   <g id="patch_8">
    <path d="M 15.296172 111.15 
L 224.546172 111.15 
L 224.546172 69.57 
L 15.296172 69.57 
L 15.296172 111.15 
z
" style="fill: none"/>
   </g>
   <g id="matplotlib.axis_13">
    <g id="xtick_37"/>
    <g id="xtick_38"/>
    <g id="xtick_39"/>
    <g id="xtick_40"/>
    <g id="xtick_41"/>
    <g id="xtick_42"/>
   </g>
   <g id="matplotlib.axis_14"/>
   <g id="line2d_7">
    <path d="M 15.296172 111.15 
L 224.546172 111.15 
" style="fill: none; stroke: #482475; stroke-opacity: 0.9; stroke-linecap: round"/>
   </g>
   <g id="text_7">
    <!-- 6 -->
    <g style="fill: #482475" transform="translate(15.296172 110.232) scale(0.12 -0.12)">
     <defs>
      <path id="IBMPlexSans-Bold-36" d="M 1946 -77 
Q 1549 -77 1235 48 
Q 922 173 707 406 
Q 493 640 381 966 
Q 269 1293 269 1696 
Q 269 2163 413 2582 
Q 557 3002 784 3357 
Q 1011 3712 1296 3993 
Q 1581 4275 1869 4467 
L 3194 4467 
Q 2784 4173 2457 3907 
Q 2131 3642 1891 3373 
Q 1651 3104 1494 2825 
Q 1338 2547 1274 2227 
L 1331 2208 
Q 1389 2336 1469 2457 
Q 1549 2579 1667 2672 
Q 1786 2765 1946 2822 
Q 2106 2880 2317 2880 
Q 2592 2880 2832 2781 
Q 3072 2682 3248 2502 
Q 3424 2323 3523 2064 
Q 3622 1805 3622 1491 
Q 3622 1146 3504 858 
Q 3386 570 3165 362 
Q 2944 154 2637 38 
Q 2330 -77 1946 -77 
z
M 1946 672 
Q 2266 672 2445 848 
Q 2624 1024 2624 1350 
L 2624 1466 
Q 2624 1792 2445 1968 
Q 2266 2144 1946 2144 
Q 1626 2144 1446 1968 
Q 1267 1792 1267 1466 
L 1267 1350 
Q 1267 1024 1446 848 
Q 1626 672 1946 672 
z
" transform="scale(0.015625)"/>
     </defs>
     <use xlink:href="#IBMPlexSans-Bold-36"/>
    </g>
   </g>
  </g>
  <g id="axes_8">
   <g id="patch_9">
    <path d="M 15.296172 121.545 
L 224.546172 121.545 
L 224.546172 79.965 
L 15.296172 79.965 
L 15.296172 121.545 
z
" style="fill: none"/>
   </g>
   <g id="matplotlib.axis_15">
    <g id="xtick_43"/>
    <g id="xtick_44"/>
    <g id="xtick_45"/>
    <g id="xtick_46"/>
    <g id="xtick_47"/>
    <g id="xtick_48"/>
   </g>
   <g id="matplotlib.axis_16"/>
   <g id="line2d_8">
    <path d="M 15.296172 121.545 
L 224.546172 121.545 
" style="fill: none; stroke: #482475; stroke-opacity: 0.9; stroke-linecap: round"/>
   </g>
   <g id="text_8">
    <!-- 7 -->
    <g style="fill: #482475" transform="translate(15.296172 120.627) scale(0.12 -0.12)">
     <defs>
      <path id="IBMPlexSans-Bold-37" d="M 1062 0 
L 2560 3686 
L 1165 3686 
L 1165 2874 
L 352 2874 
L 352 4467 
L 3514 4467 
L 3514 3635 
L 2074 0 
L 1062 0 
z
" transform="scale(0.015625)"/>
     </defs>
     <use xlink:href="#IBMPlexSans-Bold-37"/>
    </g>
   </g>
  </g>
  <g id="axes_9">
   <g id="patch_10">
    <path d="M 15.296172 131.94 
L 224.546172 131.94 
L 224.546172 90.36 
L 15.296172 90.36 
L 15.296172 131.94 
z
" style="fill: none"/>
   </g>
   <g id="matplotlib.axis_17">
    <g id="xtick_49">
     <g id="text_9">
      <!-- 0.0 -->
      <g style="fill: #838383" transform="translate(7.2 149.58) scale(0.11 -0.11)">
       <defs>
        <path id="IBMPlexSans-Regular-30" d="M 1920 -77 
Q 1120 -77 752 531 
Q 384 1139 384 2234 
Q 384 3328 752 3936 
Q 1120 4544 1920 4544 
Q 2720 4544 3088 3936 
Q 3456 3328 3456 2234 
Q 3456 1139 3088 531 
Q 2720 -77 1920 -77 
z
M 1920 390 
Q 2182 390 2368 499 
Q 2554 608 2669 806 
Q 2784 1005 2838 1273 
Q 2893 1542 2893 1869 
L 2893 2598 
Q 2893 2925 2838 3193 
Q 2784 3462 2669 3660 
Q 2554 3859 2368 3968 
Q 2182 4077 1920 4077 
Q 1658 4077 1472 3968 
Q 1286 3859 1171 3660 
Q 1056 3462 1001 3193 
Q 947 2925 947 2598 
L 947 1869 
Q 947 1542 1001 1273 
Q 1056 1005 1171 806 
Q 1286 608 1472 499 
Q 1658 390 1920 390 
z
" transform="scale(0.015625)"/>
        <path id="IBMPlexSans-Regular-2e" d="M 870 -77 
Q 666 -77 573 25 
Q 480 128 480 294 
L 480 378 
Q 480 544 573 646 
Q 666 749 870 749 
Q 1075 749 1168 646 
Q 1261 544 1261 378 
L 1261 294 
Q 1261 128 1168 25 
Q 1075 -77 870 -77 
z
" transform="scale(0.015625)"/>
       </defs>
       <use xlink:href="#IBMPlexSans-Regular-30"/>
       <use xlink:href="#IBMPlexSans-Regular-2e" transform="translate(59.999985 0)"/>
       <use xlink:href="#IBMPlexSans-Regular-30" transform="translate(87.199982 0)"/>
      </g>
     </g>
    </g>
    <g id="xtick_50">
     <g id="text_10">
      <!-- 0.2 -->
      <g style="fill: #838383" transform="translate(49.05 149.58) scale(0.11 -0.11)">
       <defs>
        <path id="IBMPlexSans-Regular-32" d="M 3411 0 
L 480 0 
L 480 550 
L 1939 1894 
Q 2253 2182 2464 2505 
Q 2675 2829 2675 3155 
L 2675 3232 
Q 2675 3603 2470 3833 
Q 2266 4064 1850 4064 
Q 1645 4064 1491 4006 
Q 1338 3949 1226 3846 
Q 1114 3744 1040 3606 
Q 966 3469 922 3309 
L 442 3494 
Q 506 3693 618 3881 
Q 730 4070 899 4217 
Q 1069 4365 1309 4454 
Q 1549 4544 1875 4544 
Q 2202 4544 2458 4448 
Q 2714 4352 2886 4179 
Q 3059 4006 3152 3769 
Q 3245 3533 3245 3245 
Q 3245 2982 3171 2758 
Q 3098 2534 2970 2332 
Q 2842 2131 2659 1939 
Q 2477 1747 2266 1555 
L 1062 474 
L 3411 474 
L 3411 0 
z
" transform="scale(0.015625)"/>
       </defs>
       <use xlink:href="#IBMPlexSans-Regular-30"/>
       <use xlink:href="#IBMPlexSans-Regular-2e" transform="translate(59.999985 0)"/>
       <use xlink:href="#IBMPlexSans-Regular-32" transform="translate(87.199982 0)"/>
      </g>
     </g>
    </g>
    <g id="xtick_51">
     <g id="text_11">
      <!-- 0.4 -->
      <g style="fill: #838383" transform="translate(90.9 149.58) scale(0.11 -0.11)">
       <defs>
        <path id="IBMPlexSans-Regular-34" d="M 2400 0 
L 2400 877 
L 243 877 
L 243 1350 
L 2112 4467 
L 2912 4467 
L 2912 1325 
L 3558 1325 
L 3558 877 
L 2912 877 
L 2912 0 
L 2400 0 
z
M 749 1325 
L 2400 1325 
L 2400 4051 
L 2368 4051 
L 749 1325 
z
" transform="scale(0.015625)"/>
       </defs>
       <use xlink:href="#IBMPlexSans-Regular-30"/>
       <use xlink:href="#IBMPlexSans-Regular-2e" transform="translate(59.999985 0)"/>
       <use xlink:href="#IBMPlexSans-Regular-34" transform="translate(87.199982 0)"/>
      </g>
     </g>
    </g>
    <g id="xtick_52">
     <g id="text_12">
      <!-- 0.6 -->
      <g style="fill: #838383" transform="translate(132.75 149.58) scale(0.11 -0.11)">
       <defs>
        <path id="IBMPlexSans-Regular-36" d="M 1926 -77 
Q 1581 -77 1302 41 
Q 1024 160 829 381 
Q 634 602 531 922 
Q 429 1242 429 1638 
Q 429 2138 576 2576 
Q 723 3014 956 3376 
Q 1190 3738 1472 4016 
Q 1754 4294 2022 4467 
L 2714 4467 
Q 2355 4205 2073 3955 
Q 1792 3706 1581 3434 
Q 1370 3162 1222 2851 
Q 1075 2541 986 2150 
L 1018 2138 
Q 1178 2413 1430 2595 
Q 1683 2778 2093 2778 
Q 2381 2778 2624 2682 
Q 2867 2586 3040 2406 
Q 3213 2227 3312 1971 
Q 3411 1715 3411 1402 
Q 3411 1075 3305 803 
Q 3200 531 3005 336 
Q 2810 141 2534 32 
Q 2259 -77 1926 -77 
z
M 1920 390 
Q 2362 390 2608 633 
Q 2854 877 2854 1331 
L 2854 1382 
Q 2854 1837 2608 2080 
Q 2362 2323 1920 2323 
Q 1478 2323 1232 2080 
Q 986 1837 986 1382 
L 986 1331 
Q 986 877 1232 633 
Q 1478 390 1920 390 
z
" transform="scale(0.015625)"/>
       </defs>
       <use xlink:href="#IBMPlexSans-Regular-30"/>
       <use xlink:href="#IBMPlexSans-Regular-2e" transform="translate(59.999985 0)"/>
       <use xlink:href="#IBMPlexSans-Regular-36" transform="translate(87.199982 0)"/>
      </g>
     </g>
    </g>
    <g id="xtick_53">
     <g id="text_13">
      <!-- 0.8 -->
      <g style="fill: #838383" transform="translate(174.6 149.58) scale(0.11 -0.11)">
       <defs>
        <path id="IBMPlexSans-Regular-38" d="M 1920 -77 
Q 1536 -77 1248 22 
Q 960 122 765 294 
Q 570 467 470 704 
Q 371 941 371 1216 
Q 371 1677 620 1945 
Q 870 2214 1274 2323 
L 1274 2374 
Q 922 2496 714 2768 
Q 506 3040 506 3424 
Q 506 3936 877 4240 
Q 1248 4544 1920 4544 
Q 2592 4544 2963 4240 
Q 3334 3936 3334 3424 
Q 3334 3040 3126 2768 
Q 2918 2496 2566 2374 
L 2566 2323 
Q 2970 2214 3219 1945 
Q 3469 1677 3469 1216 
Q 3469 941 3369 704 
Q 3270 467 3075 294 
Q 2880 122 2592 22 
Q 2304 -77 1920 -77 
z
M 1920 390 
Q 2387 390 2643 598 
Q 2899 806 2899 1190 
L 2899 1325 
Q 2899 1709 2643 1917 
Q 2387 2125 1920 2125 
Q 1453 2125 1197 1917 
Q 941 1709 941 1325 
L 941 1190 
Q 941 806 1197 598 
Q 1453 390 1920 390 
z
M 1920 2573 
Q 2342 2573 2560 2752 
Q 2778 2931 2778 3277 
L 2778 3373 
Q 2778 3718 2560 3897 
Q 2342 4077 1920 4077 
Q 1498 4077 1280 3897 
Q 1062 3718 1062 3373 
L 1062 3277 
Q 1062 2931 1280 2752 
Q 1498 2573 1920 2573 
z
" transform="scale(0.015625)"/>
       </defs>
       <use xlink:href="#IBMPlexSans-Regular-30"/>
       <use xlink:href="#IBMPlexSans-Regular-2e" transform="translate(59.999985 0)"/>
       <use xlink:href="#IBMPlexSans-Regular-38" transform="translate(87.199982 0)"/>
      </g>
     </g>
    </g>
    <g id="xtick_54">
     <g id="text_14">
      <!-- 1.0 -->
      <g style="fill: #838383" transform="translate(216.45 149.58) scale(0.11 -0.11)">
       <defs>
        <path id="IBMPlexSans-Regular-31" d="M 563 0 
L 563 474 
L 1811 474 
L 1811 4070 
L 1766 4070 
L 640 3021 
L 326 3360 
L 1510 4467 
L 2349 4467 
L 2349 474 
L 3501 474 
L 3501 0 
L 563 0 
z
" transform="scale(0.015625)"/>
       </defs>
       <use xlink:href="#IBMPlexSans-Regular-31"/>
       <use xlink:href="#IBMPlexSans-Regular-2e" transform="translate(59.999985 0)"/>
       <use xlink:href="#IBMPlexSans-Regular-30" transform="translate(87.199982 0)"/>
      </g>
     </g>
    </g>
    <g id="text_15">
     <!-- logdet -->
     <g style="fill: #262626" transform="translate(102.881172 164.66) scale(0.12 -0.12)">
      <defs>
       <path id="IBMPlexSans-Regular-6c" d="M 1088 0 
Q 819 0 681 150 
Q 544 301 544 531 
L 544 4736 
L 1056 4736 
L 1056 448 
L 1542 448 
L 1542 0 
L 1088 0 
z
" transform="scale(0.015625)"/>
       <path id="IBMPlexSans-Regular-6f" d="M 1792 -77 
Q 1459 -77 1184 44 
Q 909 166 713 393 
Q 518 621 409 937 
Q 301 1254 301 1651 
Q 301 2042 409 2362 
Q 518 2682 713 2909 
Q 909 3136 1184 3257 
Q 1459 3379 1792 3379 
Q 2125 3379 2397 3257 
Q 2669 3136 2867 2909 
Q 3066 2682 3174 2362 
Q 3283 2042 3283 1651 
Q 3283 1254 3174 937 
Q 3066 621 2867 393 
Q 2669 166 2397 44 
Q 2125 -77 1792 -77 
z
M 1792 378 
Q 2208 378 2470 634 
Q 2733 890 2733 1414 
L 2733 1888 
Q 2733 2413 2470 2669 
Q 2208 2925 1792 2925 
Q 1376 2925 1113 2669 
Q 851 2413 851 1888 
L 851 1414 
Q 851 890 1113 634 
Q 1376 378 1792 378 
z
" transform="scale(0.015625)"/>
       <path id="IBMPlexSans-Regular-67" d="M 3328 -365 
Q 3328 -877 2928 -1117 
Q 2528 -1357 1728 -1357 
Q 954 -1357 614 -1145 
Q 275 -934 275 -544 
Q 275 -275 416 -124 
Q 557 26 800 96 
L 800 166 
Q 506 307 506 627 
Q 506 877 666 1008 
Q 826 1139 1075 1203 
L 1075 1229 
Q 781 1370 617 1632 
Q 454 1894 454 2240 
Q 454 2490 544 2701 
Q 634 2912 797 3062 
Q 960 3213 1187 3296 
Q 1414 3379 1696 3379 
Q 2048 3379 2323 3251 
L 2323 3309 
Q 2323 3501 2412 3625 
Q 2502 3750 2707 3750 
L 3200 3750 
L 3200 3302 
L 2573 3302 
L 2573 3091 
Q 2752 2938 2851 2723 
Q 2950 2509 2950 2240 
Q 2950 1990 2860 1779 
Q 2771 1568 2608 1417 
Q 2445 1267 2214 1184 
Q 1984 1101 1702 1101 
Q 1542 1101 1382 1133 
Q 1216 1088 1081 1001 
Q 947 915 947 762 
Q 947 614 1088 563 
Q 1229 512 1453 512 
L 2157 512 
Q 2771 512 3049 278 
Q 3328 45 3328 -365 
z
M 2848 -403 
Q 2848 -205 2697 -86 
Q 2547 32 2163 32 
L 1062 32 
Q 755 -109 755 -416 
Q 755 -634 918 -787 
Q 1082 -941 1472 -941 
L 1946 -941 
Q 2374 -941 2611 -806 
Q 2848 -672 2848 -403 
z
M 1702 1510 
Q 2029 1510 2221 1667 
Q 2413 1824 2413 2150 
L 2413 2330 
Q 2413 2656 2221 2813 
Q 2029 2970 1702 2970 
Q 1376 2970 1184 2813 
Q 992 2656 992 2330 
L 992 2150 
Q 992 1824 1184 1667 
Q 1376 1510 1702 1510 
z
" transform="scale(0.015625)"/>
       <path id="IBMPlexSans-Regular-64" d="M 2656 538 
L 2630 538 
Q 2330 -77 1664 -77 
Q 1357 -77 1107 44 
Q 858 166 682 390 
Q 506 614 413 934 
Q 320 1254 320 1651 
Q 320 2048 413 2368 
Q 506 2688 682 2912 
Q 858 3136 1107 3257 
Q 1357 3379 1664 3379 
Q 2010 3379 2256 3228 
Q 2502 3078 2630 2765 
L 2656 2765 
L 2656 4736 
L 3168 4736 
L 3168 0 
L 2656 0 
L 2656 538 
z
M 1805 384 
Q 1978 384 2134 429 
Q 2291 474 2406 560 
Q 2522 646 2589 771 
Q 2656 896 2656 1056 
L 2656 2285 
Q 2656 2419 2589 2537 
Q 2522 2656 2406 2739 
Q 2291 2822 2134 2870 
Q 1978 2918 1805 2918 
Q 1370 2918 1120 2646 
Q 870 2374 870 1933 
L 870 1370 
Q 870 928 1120 656 
Q 1370 384 1805 384 
z
" transform="scale(0.015625)"/>
       <path id="IBMPlexSans-Regular-65" d="M 1786 -77 
Q 1446 -77 1174 44 
Q 902 166 707 393 
Q 512 621 406 937 
Q 301 1254 301 1651 
Q 301 2042 406 2362 
Q 512 2682 707 2909 
Q 902 3136 1174 3257 
Q 1446 3379 1786 3379 
Q 2118 3379 2380 3257 
Q 2643 3136 2828 2921 
Q 3014 2707 3113 2412 
Q 3213 2118 3213 1766 
L 3213 1523 
L 838 1523 
L 838 1370 
Q 838 1158 905 976 
Q 973 794 1097 659 
Q 1222 525 1404 448 
Q 1587 371 1818 371 
Q 2131 371 2364 518 
Q 2598 666 2726 941 
L 3091 678 
Q 2931 339 2592 131 
Q 2253 -77 1786 -77 
z
M 1786 2950 
Q 1574 2950 1401 2876 
Q 1229 2803 1104 2668 
Q 979 2534 908 2352 
Q 838 2170 838 1952 
L 838 1907 
L 2662 1907 
L 2662 1978 
Q 2662 2419 2422 2684 
Q 2182 2950 1786 2950 
z
" transform="scale(0.015625)"/>
       <path id="IBMPlexSans-Regular-74" d="M 1274 0 
Q 1005 0 867 150 
Q 730 301 730 544 
L 730 2854 
L 186 2854 
L 186 3302 
L 493 3302 
Q 659 3302 720 3369 
Q 781 3437 781 3603 
L 781 4218 
L 1242 4218 
L 1242 3302 
L 1965 3302 
L 1965 2854 
L 1242 2854 
L 1242 448 
L 1914 448 
L 1914 0 
L 1274 0 
z
" transform="scale(0.015625)"/>
      </defs>
      <use xlink:href="#IBMPlexSans-Regular-6c"/>
      <use xlink:href="#IBMPlexSans-Regular-6f" transform="translate(27.199997 0)"/>
      <use xlink:href="#IBMPlexSans-Regular-67" transform="translate(83.199982 0)"/>
      <use xlink:href="#IBMPlexSans-Regular-64" transform="translate(135.999969 0)"/>
      <use xlink:href="#IBMPlexSans-Regular-65" transform="translate(193.999954 0)"/>
      <use xlink:href="#IBMPlexSans-Regular-74" transform="translate(248.899948 0)"/>
     </g>
    </g>
   </g>
   <g id="matplotlib.axis_18"/>
   <g id="line2d_9">
    <path d="M 15.296172 131.94 
L 224.546172 131.94 
" style="fill: none; stroke: #482475; stroke-opacity: 0.9; stroke-linecap: round"/>
   </g>
   <g id="text_16">
    <!-- 8 -->
    <g style="fill: #482475" transform="translate(15.296172 131.022) scale(0.12 -0.12)">
     <defs>
      <path id="IBMPlexSans-Bold-38" d="M 1920 -77 
Q 1523 -77 1212 22 
Q 902 122 691 294 
Q 480 467 368 704 
Q 256 941 256 1222 
Q 256 1651 493 1923 
Q 730 2195 1133 2304 
L 1133 2355 
Q 806 2477 598 2726 
Q 390 2976 390 3366 
Q 390 3622 489 3840 
Q 589 4058 784 4214 
Q 979 4371 1264 4457 
Q 1549 4544 1920 4544 
Q 2291 4544 2576 4457 
Q 2861 4371 3056 4214 
Q 3251 4058 3350 3840 
Q 3450 3622 3450 3366 
Q 3450 2976 3242 2726 
Q 3034 2477 2707 2355 
L 2707 2304 
Q 3110 2195 3347 1923 
Q 3584 1651 3584 1222 
Q 3584 941 3472 704 
Q 3360 467 3149 294 
Q 2938 122 2627 22 
Q 2317 -77 1920 -77 
z
M 1920 659 
Q 2240 659 2409 809 
Q 2579 960 2579 1229 
L 2579 1357 
Q 2579 1626 2409 1776 
Q 2240 1926 1920 1926 
Q 1600 1926 1430 1776 
Q 1261 1626 1261 1357 
L 1261 1229 
Q 1261 960 1430 809 
Q 1600 659 1920 659 
z
M 1920 2630 
Q 2227 2630 2387 2774 
Q 2547 2918 2547 3168 
L 2547 3270 
Q 2547 3520 2387 3664 
Q 2227 3808 1920 3808 
Q 1613 3808 1453 3664 
Q 1293 3520 1293 3270 
L 1293 3168 
Q 1293 2918 1453 2774 
Q 1613 2630 1920 2630 
z
" transform="scale(0.015625)"/>
     </defs>
     <use xlink:href="#IBMPlexSans-Bold-38"/>
    </g>
   </g>
  </g>
 </g>
</svg>
