<?xml version="1.0" encoding="utf-8" standalone="no"?>
<!DOCTYPE svg PUBLIC "-//W3C//DTD SVG 1.1//EN"
  "http://www.w3.org/Graphics/SVG/1.1/DTD/svg11.dtd">
<svg xmlns:xlink="http://www.w3.org/1999/xlink" width="223.65pt" height="174.26pt" viewBox="0 0 223.65 174.26" xmlns="http://www.w3.org/2000/svg" version="1.1">
 <metadata>
  <rdf:RDF xmlns:dc="http://purl.org/dc/elements/1.1/" xmlns:cc="http://creativecommons.org/ns#" xmlns:rdf="http://www.w3.org/1999/02/22-rdf-syntax-ns#">
   <cc:Work>
    <dc:type rdf:resource="http://purl.org/dc/dcmitype/StillImage"/>
    <dc:date>2025-07-24T14:18:15.662619</dc:date>
    <dc:format>image/svg+xml</dc:format>
    <dc:creator>
     <cc:Agent>
      <dc:title>Matplotlib v3.10.1, https://matplotlib.org/</dc:title>
     </cc:Agent>
    </dc:creator>
   </cc:Work>
  </rdf:RDF>
 </metadata>
 <defs>
  <style type="text/css">*{stroke-linejoin: round; stroke-linecap: butt}</style>
 </defs>
 <g id="figure_1">
  <g id="patch_1">
   <path d="M 0 174.26 
L 223.65 174.26 
L 223.65 0 
L 0 0 
L 0 174.26 
z
" style="fill: none"/>
  </g>
  <g id="axes_1">
   <g id="patch_2">
    <path d="M 7.2 48.78 
L 216.45 48.78 
L 216.45 7.2 
L 7.2 7.2 
L 7.2 48.78 
z
" style="fill: none"/>
   </g>
   <g id="matplotlib.axis_1">
    <g id="xtick_1"/>
    <g id="xtick_2"/>
    <g id="xtick_3"/>
    <g id="xtick_4"/>
    <g id="xtick_5"/>
   </g>
   <g id="matplotlib.axis_2"/>
   <g id="line2d_1">
    <path d="M 7.2 48.78 
L 216.45 48.78 
" style="fill: none; stroke: #21918c; stroke-opacity: 0.9; stroke-linecap: round"/>
   </g>
   <g id="text_1">
    <!-- 0 -->
    <g style="fill: #21918c" transform="translate(7.2 47.862) scale(0.12 -0.12)">
     <defs>
      <path id="IBMPlexSans-Bold-30" d="M 1920 -77 
Q 1043 -77 620 531 
Q 198 1139 198 2234 
Q 198 3328 620 3936 
Q 1043 4544 1920 4544 
Q 2797 4544 3219 3936 
Q 3642 3328 3642 2234 
Q 3642 1139 3219 531 
Q 2797 -77 1920 -77 
z
M 1920 736 
Q 2304 736 2451 1017 
Q 2598 1299 2598 1811 
L 2598 2656 
Q 2598 3168 2451 3449 
Q 2304 3731 1920 3731 
Q 1536 3731 1389 3449 
Q 1242 3168 1242 2656 
L 1242 1811 
Q 1242 1299 1389 1017 
Q 1536 736 1920 736 
z
" transform="scale(0.015625)"/>
     </defs>
     <use xlink:href="#IBMPlexSans-Bold-30"/>
    </g>
   </g>
  </g>
  <g id="axes_2">
   <g id="patch_3">
    <path d="M 7.2 59.175 
L 216.45 59.175 
L 216.45 17.595 
L 7.2 17.595 
L 7.2 59.175 
z
" style="fill: none"/>
   </g>
   <g id="matplotlib.axis_3">
    <g id="xtick_6"/>
    <g id="xtick_7"/>
    <g id="xtick_8"/>
    <g id="xtick_9"/>
    <g id="xtick_10"/>
   </g>
   <g id="matplotlib.axis_4"/>
   <g id="FillBetweenPolyCollection_1">
    <defs>
     <path id="mc6f3a70354" d="M 91.161451 -117.008666 
L 91.161451 -115.085 
L 91.393171 -115.085 
L 91.624891 -115.085 
L 91.856611 -115.085 
L 92.088331 -115.085 
L 92.320051 -115.085 
L 92.551772 -115.085 
L 92.783492 -115.085 
L 93.015212 -115.085 
L 93.246932 -115.085 
L 93.478652 -115.085 
L 93.710372 -115.085 
L 93.942092 -115.085 
L 94.173812 -115.085 
L 94.405532 -115.085 
L 94.637252 -115.085 
L 94.868972 -115.085 
L 95.100692 -115.085 
L 95.332412 -115.085 
L 95.564132 -115.085 
L 95.795853 -115.085 
L 96.027573 -115.085 
L 96.259293 -115.085 
L 96.491013 -115.085 
L 96.722733 -115.085 
L 96.954453 -115.085 
L 97.186173 -115.085 
L 97.417893 -115.085 
L 97.649613 -115.085 
L 97.881333 -115.085 
L 98.113053 -115.085 
L 98.344773 -115.085 
L 98.576493 -115.085 
L 98.808214 -115.085 
L 99.039934 -115.085 
L 99.271654 -115.085 
L 99.503374 -115.085 
L 99.735094 -115.085 
L 99.966814 -115.085 
L 100.198534 -115.085 
L 100.430254 -115.085 
L 100.661974 -115.085 
L 100.893694 -115.085 
L 101.125414 -115.085 
L 101.357134 -115.085 
L 101.588854 -115.085 
L 101.820574 -115.085 
L 102.052295 -115.085 
L 102.284015 -115.085 
L 102.515735 -115.085 
L 102.747455 -115.085 
L 102.979175 -115.085 
L 103.210895 -115.085 
L 103.442615 -115.085 
L 103.674335 -115.085 
L 103.906055 -115.085 
L 104.137775 -115.085 
L 104.369495 -115.085 
L 104.601215 -115.085 
L 104.832935 -115.085 
L 105.064655 -115.085 
L 105.296376 -115.085 
L 105.528096 -115.085 
L 105.759816 -115.085 
L 105.991536 -115.085 
L 106.223256 -115.085 
L 106.454976 -115.085 
L 106.686696 -115.085 
L 106.918416 -115.085 
L 107.150136 -115.085 
L 107.381856 -115.085 
L 107.613576 -115.085 
L 107.845296 -115.085 
L 108.077016 -115.085 
L 108.308737 -115.085 
L 108.540457 -115.085 
L 108.772177 -115.085 
L 109.003897 -115.085 
L 109.235617 -115.085 
L 109.467337 -115.085 
L 109.699057 -115.085 
L 109.930777 -115.085 
L 110.162497 -115.085 
L 110.394217 -115.085 
L 110.625937 -115.085 
L 110.857657 -115.085 
L 111.089377 -115.085 
L 111.321097 -115.085 
L 111.552818 -115.085 
L 111.784538 -115.085 
L 112.016258 -115.085 
L 112.247978 -115.085 
L 112.479698 -115.085 
L 112.711418 -115.085 
L 112.943138 -115.085 
L 113.174858 -115.085 
L 113.406578 -115.085 
L 113.638298 -115.085 
L 113.870018 -115.085 
L 114.101738 -115.085 
L 114.333458 -115.085 
L 114.565179 -115.085 
L 114.796899 -115.085 
L 115.028619 -115.085 
L 115.260339 -115.085 
L 115.492059 -115.085 
L 115.723779 -115.085 
L 115.955499 -115.085 
L 116.187219 -115.085 
L 116.418939 -115.085 
L 116.650659 -115.085 
L 116.882379 -115.085 
L 117.114099 -115.085 
L 117.345819 -115.085 
L 117.577539 -115.085 
L 117.80926 -115.085 
L 118.04098 -115.085 
L 118.2727 -115.085 
L 118.50442 -115.085 
L 118.73614 -115.085 
L 118.96786 -115.085 
L 119.19958 -115.085 
L 119.4313 -115.085 
L 119.66302 -115.085 
L 119.89474 -115.085 
L 120.12646 -115.085 
L 120.35818 -115.085 
L 120.5899 -115.085 
L 120.82162 -115.085 
L 121.053341 -115.085 
L 121.285061 -115.085 
L 121.516781 -115.085 
L 121.748501 -115.085 
L 121.980221 -115.085 
L 122.211941 -115.085 
L 122.443661 -115.085 
L 122.675381 -115.085 
L 122.907101 -115.085 
L 123.138821 -115.085 
L 123.370541 -115.085 
L 123.602261 -115.085 
L 123.833981 -115.085 
L 124.065702 -115.085 
L 124.297422 -115.085 
L 124.529142 -115.085 
L 124.760862 -115.085 
L 124.992582 -115.085 
L 125.224302 -115.085 
L 125.456022 -115.085 
L 125.687742 -115.085 
L 125.919462 -115.085 
L 126.151182 -115.085 
L 126.382902 -115.085 
L 126.614622 -115.085 
L 126.846342 -115.085 
L 127.078062 -115.085 
L 127.309783 -115.085 
L 127.541503 -115.085 
L 127.773223 -115.085 
L 128.004943 -115.085 
L 128.236663 -115.085 
L 128.468383 -115.085 
L 128.700103 -115.085 
L 128.931823 -115.085 
L 129.163543 -115.085 
L 129.395263 -115.085 
L 129.626983 -115.085 
L 129.858703 -115.085 
L 130.090423 -115.085 
L 130.322144 -115.085 
L 130.553864 -115.085 
L 130.785584 -115.085 
L 131.017304 -115.085 
L 131.249024 -115.085 
L 131.480744 -115.085 
L 131.712464 -115.085 
L 131.944184 -115.085 
L 132.175904 -115.085 
L 132.407624 -115.085 
L 132.639344 -115.085 
L 132.871064 -115.085 
L 133.102784 -115.085 
L 133.334504 -115.085 
L 133.566225 -115.085 
L 133.797945 -115.085 
L 134.029665 -115.085 
L 134.261385 -115.085 
L 134.493105 -115.085 
L 134.724825 -115.085 
L 134.956545 -115.085 
L 135.188265 -115.085 
L 135.419985 -115.085 
L 135.651705 -115.085 
L 135.883425 -115.085 
L 136.115145 -115.085 
L 136.346865 -115.085 
L 136.578585 -115.085 
L 136.810306 -115.085 
L 137.042026 -115.085 
L 137.273746 -115.085 
L 137.273746 -115.83484 
L 137.273746 -115.83484 
L 137.042026 -115.925419 
L 136.810306 -116.023054 
L 136.578585 -116.12779 
L 136.346865 -116.239615 
L 136.115145 -116.358455 
L 135.883425 -116.48417 
L 135.651705 -116.616558 
L 135.419985 -116.755352 
L 135.188265 -116.900226 
L 134.956545 -117.050797 
L 134.724825 -117.206627 
L 134.493105 -117.367236 
L 134.261385 -117.532101 
L 134.029665 -117.70067 
L 133.797945 -117.872371 
L 133.566225 -118.04662 
L 133.334504 -118.222832 
L 133.102784 -118.400437 
L 132.871064 -118.578887 
L 132.639344 -118.757668 
L 132.407624 -118.936316 
L 132.175904 -119.11443 
L 131.944184 -119.291676 
L 131.712464 -119.467806 
L 131.480744 -119.642667 
L 131.249024 -119.81621 
L 131.017304 -119.988498 
L 130.785584 -120.159716 
L 130.553864 -120.330181 
L 130.322144 -120.500343 
L 130.090423 -120.670794 
L 129.858703 -120.842274 
L 129.626983 -121.015669 
L 129.395263 -121.192018 
L 129.163543 -121.372512 
L 128.931823 -121.558495 
L 128.700103 -121.751457 
L 128.468383 -121.953039 
L 128.236663 -122.165019 
L 128.004943 -122.389307 
L 127.773223 -122.627937 
L 127.541503 -122.88305 
L 127.309783 -123.15688 
L 127.078062 -123.451736 
L 126.846342 -123.769977 
L 126.614622 -124.113987 
L 126.382902 -124.486146 
L 126.151182 -124.8888 
L 125.919462 -125.32422 
L 125.687742 -125.794571 
L 125.456022 -126.301863 
L 125.224302 -126.847914 
L 124.992582 -127.434304 
L 124.760862 -128.062327 
L 124.529142 -128.732949 
L 124.297422 -129.446757 
L 124.065702 -130.203922 
L 123.833981 -131.004149 
L 123.602261 -131.846644 
L 123.370541 -132.730077 
L 123.138821 -133.652554 
L 122.907101 -134.611592 
L 122.675381 -135.604108 
L 122.443661 -136.626411 
L 122.211941 -137.674206 
L 121.980221 -138.742614 
L 121.748501 -139.826197 
L 121.516781 -140.919005 
L 121.285061 -142.014626 
L 121.053341 -143.106259 
L 120.82162 -144.186793 
L 120.5899 -145.248909 
L 120.35818 -146.285177 
L 120.12646 -147.288176 
L 119.89474 -148.250613 
L 119.66302 -149.165449 
L 119.4313 -150.026019 
L 119.19958 -150.826159 
L 118.96786 -151.560313 
L 118.73614 -152.223639 
L 118.50442 -152.812092 
L 118.2727 -153.322499 
L 118.04098 -153.752602 
L 117.80926 -154.101084 
L 117.577539 -154.367577 
L 117.345819 -154.552636 
L 117.114099 -154.657694 
L 116.882379 -154.685 
L 116.650659 -154.637534 
L 116.418939 -154.518906 
L 116.187219 -154.333244 
L 115.955499 -154.08508 
L 115.723779 -153.779223 
L 115.492059 -153.420645 
L 115.260339 -153.014363 
L 115.028619 -152.56534 
L 114.796899 -152.078388 
L 114.565179 -151.558097 
L 114.333458 -151.008775 
L 114.101738 -150.434403 
L 113.870018 -149.838613 
L 113.638298 -149.22468 
L 113.406578 -148.595527 
L 113.174858 -147.953741 
L 112.943138 -147.301607 
L 112.711418 -146.641135 
L 112.479698 -145.974107 
L 112.247978 -145.302109 
L 112.016258 -144.626576 
L 111.784538 -143.948825 
L 111.552818 -143.270088 
L 111.321097 -142.591531 
L 111.089377 -141.91428 
L 110.857657 -141.23943 
L 110.625937 -140.568049 
L 110.394217 -139.901181 
L 110.162497 -139.239842 
L 109.930777 -138.585013 
L 109.699057 -137.937636 
L 109.467337 -137.298599 
L 109.235617 -136.668733 
L 109.003897 -136.048805 
L 108.772177 -135.439517 
L 108.540457 -134.841498 
L 108.308737 -134.255316 
L 108.077016 -133.681473 
L 107.845296 -133.120419 
L 107.613576 -132.572558 
L 107.381856 -132.038255 
L 107.150136 -131.517849 
L 106.918416 -131.011662 
L 106.686696 -130.520002 
L 106.454976 -130.043174 
L 106.223256 -129.581479 
L 105.991536 -129.135218 
L 105.759816 -128.704684 
L 105.528096 -128.290164 
L 105.296376 -127.891927 
L 105.064655 -127.510214 
L 104.832935 -127.145233 
L 104.601215 -126.797142 
L 104.369495 -126.466042 
L 104.137775 -126.151964 
L 103.906055 -125.854863 
L 103.674335 -125.574605 
L 103.442615 -125.310971 
L 103.210895 -125.063644 
L 102.979175 -124.832218 
L 102.747455 -124.616194 
L 102.515735 -124.414989 
L 102.284015 -124.227939 
L 102.052295 -124.054312 
L 101.820574 -123.893318 
L 101.588854 -123.744113 
L 101.357134 -123.605819 
L 101.125414 -123.47753 
L 100.893694 -123.358324 
L 100.661974 -123.247269 
L 100.430254 -123.143436 
L 100.198534 -123.045899 
L 99.966814 -122.953741 
L 99.735094 -122.866058 
L 99.503374 -122.781956 
L 99.271654 -122.700552 
L 99.039934 -122.620967 
L 98.808214 -122.542331 
L 98.576493 -122.46377 
L 98.344773 -122.384408 
L 98.113053 -122.303365 
L 97.881333 -122.219758 
L 97.649613 -122.132699 
L 97.417893 -122.041302 
L 97.186173 -121.944692 
L 96.954453 -121.842014 
L 96.722733 -121.73245 
L 96.491013 -121.615232 
L 96.259293 -121.489661 
L 96.027573 -121.355134 
L 95.795853 -121.211156 
L 95.564132 -121.057367 
L 95.332412 -120.893561 
L 95.100692 -120.719701 
L 94.868972 -120.535933 
L 94.637252 -120.342597 
L 94.405532 -120.140228 
L 94.173812 -119.929555 
L 93.942092 -119.711495 
L 93.710372 -119.487137 
L 93.478652 -119.25772 
L 93.246932 -119.024615 
L 93.015212 -118.789288 
L 92.783492 -118.553272 
L 92.551772 -118.318134 
L 92.320051 -118.085433 
L 92.088331 -117.856693 
L 91.856611 -117.633364 
L 91.624891 -117.416794 
L 91.393171 -117.208205 
L 91.161451 -117.008666 
z
" style="stroke: #2a788e; stroke-width: 1.25"/>
    </defs>
    <g>
     <use xlink:href="#mc6f3a70354" x="0" y="174.26" style="fill: #2a788e; fill-opacity: 0.7; stroke: #2a788e; stroke-width: 1.25"/>
    </g>
   </g>
   <g id="line2d_2">
    <path d="M 7.2 59.175 
L 216.45 59.175 
" style="fill: none; stroke: #2a788e; stroke-opacity: 0.9; stroke-linecap: round"/>
   </g>
   <g id="text_2">
    <!-- 1 -->
    <g style="fill: #2a788e" transform="translate(7.2 58.257) scale(0.12 -0.12)">
     <defs>
      <path id="IBMPlexSans-Bold-31" d="M 602 0 
L 602 774 
L 1805 774 
L 1805 3770 
L 1747 3770 
L 838 2579 
L 224 3059 
L 1293 4467 
L 2765 4467 
L 2765 774 
L 3712 774 
L 3712 0 
L 602 0 
z
" transform="scale(0.015625)"/>
     </defs>
     <use xlink:href="#IBMPlexSans-Bold-31"/>
    </g>
   </g>
  </g>
  <g id="axes_3">
   <g id="patch_4">
    <path d="M 7.2 69.57 
L 216.45 69.57 
L 216.45 27.99 
L 7.2 27.99 
L 7.2 69.57 
z
" style="fill: none"/>
   </g>
   <g id="matplotlib.axis_5">
    <g id="xtick_11"/>
    <g id="xtick_12"/>
    <g id="xtick_13"/>
    <g id="xtick_14"/>
    <g id="xtick_15"/>
   </g>
   <g id="matplotlib.axis_6"/>
   <g id="FillBetweenPolyCollection_2">
    <defs>
     <path id="m7e919bfefa" d="M 67.160174 -105.628697 
L 67.160174 -104.69 
L 67.627162 -104.69 
L 68.094149 -104.69 
L 68.561137 -104.69 
L 69.028125 -104.69 
L 69.495113 -104.69 
L 69.9621 -104.69 
L 70.429088 -104.69 
L 70.896076 -104.69 
L 71.363064 -104.69 
L 71.830052 -104.69 
L 72.297039 -104.69 
L 72.764027 -104.69 
L 73.231015 -104.69 
L 73.698003 -104.69 
L 74.164991 -104.69 
L 74.631978 -104.69 
L 75.098966 -104.69 
L 75.565954 -104.69 
L 76.032942 -104.69 
L 76.499929 -104.69 
L 76.966917 -104.69 
L 77.433905 -104.69 
L 77.900893 -104.69 
L 78.367881 -104.69 
L 78.834868 -104.69 
L 79.301856 -104.69 
L 79.768844 -104.69 
L 80.235832 -104.69 
L 80.70282 -104.69 
L 81.169807 -104.69 
L 81.636795 -104.69 
L 82.103783 -104.69 
L 82.570771 -104.69 
L 83.037759 -104.69 
L 83.504746 -104.69 
L 83.971734 -104.69 
L 84.438722 -104.69 
L 84.90571 -104.69 
L 85.372697 -104.69 
L 85.839685 -104.69 
L 86.306673 -104.69 
L 86.773661 -104.69 
L 87.240649 -104.69 
L 87.707636 -104.69 
L 88.174624 -104.69 
L 88.641612 -104.69 
L 89.1086 -104.69 
L 89.575588 -104.69 
L 90.042575 -104.69 
L 90.509563 -104.69 
L 90.976551 -104.69 
L 91.443539 -104.69 
L 91.910527 -104.69 
L 92.377514 -104.69 
L 92.844502 -104.69 
L 93.31149 -104.69 
L 93.778478 -104.69 
L 94.245465 -104.69 
L 94.712453 -104.69 
L 95.179441 -104.69 
L 95.646429 -104.69 
L 96.113417 -104.69 
L 96.580404 -104.69 
L 97.047392 -104.69 
L 97.51438 -104.69 
L 97.981368 -104.69 
L 98.448356 -104.69 
L 98.915343 -104.69 
L 99.382331 -104.69 
L 99.849319 -104.69 
L 100.316307 -104.69 
L 100.783294 -104.69 
L 101.250282 -104.69 
L 101.71727 -104.69 
L 102.184258 -104.69 
L 102.651246 -104.69 
L 103.118233 -104.69 
L 103.585221 -104.69 
L 104.052209 -104.69 
L 104.519197 -104.69 
L 104.986185 -104.69 
L 105.453172 -104.69 
L 105.92016 -104.69 
L 106.387148 -104.69 
L 106.854136 -104.69 
L 107.321124 -104.69 
L 107.788111 -104.69 
L 108.255099 -104.69 
L 108.722087 -104.69 
L 109.189075 -104.69 
L 109.656062 -104.69 
L 110.12305 -104.69 
L 110.590038 -104.69 
L 111.057026 -104.69 
L 111.524014 -104.69 
L 111.991001 -104.69 
L 112.457989 -104.69 
L 112.924977 -104.69 
L 113.391965 -104.69 
L 113.858953 -104.69 
L 114.32594 -104.69 
L 114.792928 -104.69 
L 115.259916 -104.69 
L 115.726904 -104.69 
L 116.193891 -104.69 
L 116.660879 -104.69 
L 117.127867 -104.69 
L 117.594855 -104.69 
L 118.061843 -104.69 
L 118.52883 -104.69 
L 118.995818 -104.69 
L 119.462806 -104.69 
L 119.929794 -104.69 
L 120.396782 -104.69 
L 120.863769 -104.69 
L 121.330757 -104.69 
L 121.797745 -104.69 
L 122.264733 -104.69 
L 122.731721 -104.69 
L 123.198708 -104.69 
L 123.665696 -104.69 
L 124.132684 -104.69 
L 124.599672 -104.69 
L 125.066659 -104.69 
L 125.533647 -104.69 
L 126.000635 -104.69 
L 126.467623 -104.69 
L 126.934611 -104.69 
L 127.401598 -104.69 
L 127.868586 -104.69 
L 128.335574 -104.69 
L 128.802562 -104.69 
L 129.26955 -104.69 
L 129.736537 -104.69 
L 130.203525 -104.69 
L 130.670513 -104.69 
L 131.137501 -104.69 
L 131.604489 -104.69 
L 132.071476 -104.69 
L 132.538464 -104.69 
L 133.005452 -104.69 
L 133.47244 -104.69 
L 133.939427 -104.69 
L 134.406415 -104.69 
L 134.873403 -104.69 
L 135.340391 -104.69 
L 135.807379 -104.69 
L 136.274366 -104.69 
L 136.741354 -104.69 
L 137.208342 -104.69 
L 137.67533 -104.69 
L 138.142318 -104.69 
L 138.609305 -104.69 
L 139.076293 -104.69 
L 139.543281 -104.69 
L 140.010269 -104.69 
L 140.477256 -104.69 
L 140.944244 -104.69 
L 141.411232 -104.69 
L 141.87822 -104.69 
L 142.345208 -104.69 
L 142.812195 -104.69 
L 143.279183 -104.69 
L 143.746171 -104.69 
L 144.213159 -104.69 
L 144.680147 -104.69 
L 145.147134 -104.69 
L 145.614122 -104.69 
L 146.08111 -104.69 
L 146.548098 -104.69 
L 147.015086 -104.69 
L 147.482073 -104.69 
L 147.949061 -104.69 
L 148.416049 -104.69 
L 148.883037 -104.69 
L 149.350024 -104.69 
L 149.817012 -104.69 
L 150.284 -104.69 
L 150.750988 -104.69 
L 151.217976 -104.69 
L 151.684963 -104.69 
L 152.151951 -104.69 
L 152.618939 -104.69 
L 153.085927 -104.69 
L 153.552915 -104.69 
L 154.019902 -104.69 
L 154.48689 -104.69 
L 154.953878 -104.69 
L 155.420866 -104.69 
L 155.887854 -104.69 
L 156.354841 -104.69 
L 156.821829 -104.69 
L 157.288817 -104.69 
L 157.755805 -104.69 
L 158.222792 -104.69 
L 158.68978 -104.69 
L 159.156768 -104.69 
L 159.623756 -104.69 
L 160.090744 -104.69 
L 160.090744 -105.105894 
L 160.090744 -105.105894 
L 159.623756 -105.15608 
L 159.156768 -105.21002 
L 158.68978 -105.267679 
L 158.222792 -105.328975 
L 157.755805 -105.393783 
L 157.288817 -105.461934 
L 156.821829 -105.533213 
L 156.354841 -105.607365 
L 155.887854 -105.684098 
L 155.420866 -105.763087 
L 154.953878 -105.843981 
L 154.48689 -105.926408 
L 154.019902 -106.009988 
L 153.552915 -106.094337 
L 153.085927 -106.179078 
L 152.618939 -106.263851 
L 152.151951 -106.348324 
L 151.684963 -106.432198 
L 151.217976 -106.515217 
L 150.750988 -106.59718 
L 150.284 -106.677939 
L 149.817012 -106.757413 
L 149.350024 -106.835586 
L 148.883037 -106.912513 
L 148.416049 -106.988317 
L 147.949061 -107.063193 
L 147.482073 -107.137406 
L 147.015086 -107.211287 
L 146.548098 -107.285232 
L 146.08111 -107.359695 
L 145.614122 -107.43519 
L 145.147134 -107.512283 
L 144.680147 -107.591591 
L 144.213159 -107.673778 
L 143.746171 -107.759552 
L 143.279183 -107.849668 
L 142.812195 -107.94492 
L 142.345208 -108.046144 
L 141.87822 -108.154219 
L 141.411232 -108.27006 
L 140.944244 -108.394623 
L 140.477256 -108.528902 
L 140.010269 -108.673919 
L 139.543281 -108.83073 
L 139.076293 -109.000408 
L 138.609305 -109.184038 
L 138.142318 -109.382705 
L 137.67533 -109.597482 
L 137.208342 -109.829406 
L 136.741354 -110.079466 
L 136.274366 -110.348577 
L 135.807379 -110.637554 
L 135.340391 -110.947092 
L 134.873403 -111.277734 
L 134.406415 -111.629847 
L 133.939427 -112.003594 
L 133.47244 -112.398905 
L 133.005452 -112.81546 
L 132.538464 -113.25266 
L 132.071476 -113.709612 
L 131.604489 -114.185118 
L 131.137501 -114.67766 
L 130.670513 -115.1854 
L 130.203525 -115.706184 
L 129.736537 -116.23755 
L 129.26955 -116.776744 
L 128.802562 -117.320745 
L 128.335574 -117.866296 
L 127.868586 -118.409941 
L 127.401598 -118.948072 
L 126.934611 -119.476979 
L 126.467623 -119.992905 
L 126.000635 -120.492107 
L 125.533647 -120.970918 
L 125.066659 -121.425811 
L 124.599672 -121.853463 
L 124.132684 -122.250815 
L 123.665696 -122.615128 
L 123.198708 -122.944032 
L 122.731721 -123.235575 
L 122.264733 -123.488247 
L 121.797745 -123.701012 
L 121.330757 -123.873312 
L 120.863769 -124.005071 
L 120.396782 -124.096679 
L 119.929794 -124.148972 
L 119.462806 -124.16319 
L 118.995818 -124.140939 
L 118.52883 -124.084133 
L 118.061843 -123.994939 
L 117.594855 -123.875711 
L 117.127867 -123.728928 
L 116.660879 -123.557134 
L 116.193891 -123.36287 
L 115.726904 -123.148629 
L 115.259916 -122.9168 
L 114.792928 -122.669636 
L 114.32594 -122.409218 
L 113.858953 -122.137436 
L 113.391965 -121.855981 
L 112.924977 -121.56634 
L 112.457989 -121.269801 
L 111.991001 -120.967471 
L 111.524014 -120.660292 
L 111.057026 -120.349063 
L 110.590038 -120.034469 
L 110.12305 -119.717102 
L 109.656062 -119.397492 
L 109.189075 -119.076123 
L 108.722087 -118.753461 
L 108.255099 -118.429964 
L 107.788111 -118.106095 
L 107.321124 -117.782333 
L 106.854136 -117.459171 
L 106.387148 -117.137121 
L 105.92016 -116.816704 
L 105.453172 -116.498452 
L 104.986185 -116.182891 
L 104.519197 -115.87054 
L 104.052209 -115.561899 
L 103.585221 -115.257442 
L 103.118233 -114.957609 
L 102.651246 -114.662804 
L 102.184258 -114.373392 
L 101.71727 -114.089695 
L 101.250282 -113.811997 
L 100.783294 -113.540546 
L 100.316307 -113.275555 
L 99.849319 -113.017214 
L 99.382331 -112.765688 
L 98.915343 -112.521128 
L 98.448356 -112.283676 
L 97.981368 -112.053468 
L 97.51438 -111.830637 
L 97.047392 -111.615316 
L 96.580404 -111.40764 
L 96.113417 -111.20774 
L 95.646429 -111.015746 
L 95.179441 -110.831782 
L 94.712453 -110.655956 
L 94.245465 -110.488362 
L 93.778478 -110.329068 
L 93.31149 -110.178113 
L 92.844502 -110.035499 
L 92.377514 -109.901188 
L 91.910527 -109.775094 
L 91.443539 -109.657084 
L 90.976551 -109.546973 
L 90.509563 -109.444525 
L 90.042575 -109.349452 
L 89.575588 -109.261419 
L 89.1086 -109.180045 
L 88.641612 -109.10491 
L 88.174624 -109.035558 
L 87.707636 -108.971507 
L 87.240649 -108.912253 
L 86.773661 -108.857278 
L 86.306673 -108.806054 
L 85.839685 -108.758054 
L 85.372697 -108.712753 
L 84.90571 -108.669634 
L 84.438722 -108.62819 
L 83.971734 -108.587928 
L 83.504746 -108.548369 
L 83.037759 -108.509048 
L 82.570771 -108.469516 
L 82.103783 -108.429335 
L 81.636795 -108.388078 
L 81.169807 -108.345331 
L 80.70282 -108.300689 
L 80.235832 -108.253758 
L 79.768844 -108.204155 
L 79.301856 -108.15151 
L 78.834868 -108.095474 
L 78.367881 -108.035719 
L 77.900893 -107.971948 
L 77.433905 -107.903901 
L 76.966917 -107.831363 
L 76.499929 -107.754175 
L 76.032942 -107.67224 
L 75.565954 -107.585531 
L 75.098966 -107.494101 
L 74.631978 -107.398085 
L 74.164991 -107.297705 
L 73.698003 -107.19327 
L 73.231015 -107.085176 
L 72.764027 -106.973898 
L 72.297039 -106.859989 
L 71.830052 -106.744065 
L 71.363064 -106.626796 
L 70.896076 -106.508892 
L 70.429088 -106.391085 
L 69.9621 -106.274119 
L 69.495113 -106.158728 
L 69.028125 -106.045625 
L 68.561137 -105.935481 
L 68.094149 -105.828919 
L 67.627162 -105.726496 
L 67.160174 -105.628697 
z
" style="stroke: #355f8d; stroke-width: 1.25"/>
    </defs>
    <g>
     <use xlink:href="#m7e919bfefa" x="0" y="174.26" style="fill: #355f8d; fill-opacity: 0.7; stroke: #355f8d; stroke-width: 1.25"/>
    </g>
   </g>
   <g id="line2d_3">
    <path d="M 7.2 69.57 
L 216.45 69.57 
" style="fill: none; stroke: #355f8d; stroke-opacity: 0.9; stroke-linecap: round"/>
   </g>
   <g id="text_3">
    <!-- 2 -->
    <g style="fill: #355f8d" transform="translate(7.2 68.652) scale(0.12 -0.12)">
     <defs>
      <path id="IBMPlexSans-Bold-32" d="M 3526 0 
L 365 0 
L 365 877 
L 1741 2054 
Q 1926 2214 2054 2345 
Q 2182 2477 2262 2601 
Q 2342 2726 2377 2848 
Q 2413 2970 2413 3110 
L 2413 3200 
Q 2413 3328 2361 3424 
Q 2310 3520 2227 3584 
Q 2144 3648 2038 3680 
Q 1933 3712 1824 3712 
Q 1664 3712 1545 3661 
Q 1427 3610 1340 3523 
Q 1254 3437 1196 3325 
Q 1139 3213 1107 3085 
L 269 3405 
Q 346 3635 480 3843 
Q 614 4051 816 4208 
Q 1018 4365 1293 4454 
Q 1568 4544 1914 4544 
Q 2278 4544 2560 4441 
Q 2842 4339 3037 4160 
Q 3232 3981 3334 3734 
Q 3437 3488 3437 3200 
Q 3437 2912 3341 2675 
Q 3245 2438 3081 2230 
Q 2918 2022 2700 1836 
Q 2483 1651 2246 1459 
L 1414 806 
L 3526 806 
L 3526 0 
z
" transform="scale(0.015625)"/>
     </defs>
     <use xlink:href="#IBMPlexSans-Bold-32"/>
    </g>
   </g>
  </g>
  <g id="axes_4">
   <g id="patch_5">
    <path d="M 7.2 79.965 
L 216.45 79.965 
L 216.45 38.385 
L 7.2 38.385 
L 7.2 79.965 
z
" style="fill: none"/>
   </g>
   <g id="matplotlib.axis_7">
    <g id="xtick_16"/>
    <g id="xtick_17"/>
    <g id="xtick_18"/>
    <g id="xtick_19"/>
    <g id="xtick_20"/>
   </g>
   <g id="matplotlib.axis_8"/>
   <g id="FillBetweenPolyCollection_3">
    <defs>
     <path id="m8e79865cf2" d="M 42.41651 -94.865195 
L 42.41651 -94.295 
L 43.125417 -94.295 
L 43.834323 -94.295 
L 44.54323 -94.295 
L 45.252137 -94.295 
L 45.961043 -94.295 
L 46.66995 -94.295 
L 47.378856 -94.295 
L 48.087763 -94.295 
L 48.796669 -94.295 
L 49.505576 -94.295 
L 50.214482 -94.295 
L 50.923389 -94.295 
L 51.632296 -94.295 
L 52.341202 -94.295 
L 53.050109 -94.295 
L 53.759015 -94.295 
L 54.467922 -94.295 
L 55.176828 -94.295 
L 55.885735 -94.295 
L 56.594642 -94.295 
L 57.303548 -94.295 
L 58.012455 -94.295 
L 58.721361 -94.295 
L 59.430268 -94.295 
L 60.139174 -94.295 
L 60.848081 -94.295 
L 61.556988 -94.295 
L 62.265894 -94.295 
L 62.974801 -94.295 
L 63.683707 -94.295 
L 64.392614 -94.295 
L 65.10152 -94.295 
L 65.810427 -94.295 
L 66.519333 -94.295 
L 67.22824 -94.295 
L 67.937147 -94.295 
L 68.646053 -94.295 
L 69.35496 -94.295 
L 70.063866 -94.295 
L 70.772773 -94.295 
L 71.481679 -94.295 
L 72.190586 -94.295 
L 72.899493 -94.295 
L 73.608399 -94.295 
L 74.317306 -94.295 
L 75.026212 -94.295 
L 75.735119 -94.295 
L 76.444025 -94.295 
L 77.152932 -94.295 
L 77.861838 -94.295 
L 78.570745 -94.295 
L 79.279652 -94.295 
L 79.988558 -94.295 
L 80.697465 -94.295 
L 81.406371 -94.295 
L 82.115278 -94.295 
L 82.824184 -94.295 
L 83.533091 -94.295 
L 84.241998 -94.295 
L 84.950904 -94.295 
L 85.659811 -94.295 
L 86.368717 -94.295 
L 87.077624 -94.295 
L 87.78653 -94.295 
L 88.495437 -94.295 
L 89.204344 -94.295 
L 89.91325 -94.295 
L 90.622157 -94.295 
L 91.331063 -94.295 
L 92.03997 -94.295 
L 92.748876 -94.295 
L 93.457783 -94.295 
L 94.166689 -94.295 
L 94.875596 -94.295 
L 95.584503 -94.295 
L 96.293409 -94.295 
L 97.002316 -94.295 
L 97.711222 -94.295 
L 98.420129 -94.295 
L 99.129035 -94.295 
L 99.837942 -94.295 
L 100.546849 -94.295 
L 101.255755 -94.295 
L 101.964662 -94.295 
L 102.673568 -94.295 
L 103.382475 -94.295 
L 104.091381 -94.295 
L 104.800288 -94.295 
L 105.509194 -94.295 
L 106.218101 -94.295 
L 106.927008 -94.295 
L 107.635914 -94.295 
L 108.344821 -94.295 
L 109.053727 -94.295 
L 109.762634 -94.295 
L 110.47154 -94.295 
L 111.180447 -94.295 
L 111.889354 -94.295 
L 112.59826 -94.295 
L 113.307167 -94.295 
L 114.016073 -94.295 
L 114.72498 -94.295 
L 115.433886 -94.295 
L 116.142793 -94.295 
L 116.8517 -94.295 
L 117.560606 -94.295 
L 118.269513 -94.295 
L 118.978419 -94.295 
L 119.687326 -94.295 
L 120.396232 -94.295 
L 121.105139 -94.295 
L 121.814045 -94.295 
L 122.522952 -94.295 
L 123.231859 -94.295 
L 123.940765 -94.295 
L 124.649672 -94.295 
L 125.358578 -94.295 
L 126.067485 -94.295 
L 126.776391 -94.295 
L 127.485298 -94.295 
L 128.194205 -94.295 
L 128.903111 -94.295 
L 129.612018 -94.295 
L 130.320924 -94.295 
L 131.029831 -94.295 
L 131.738737 -94.295 
L 132.447644 -94.295 
L 133.15655 -94.295 
L 133.865457 -94.295 
L 134.574364 -94.295 
L 135.28327 -94.295 
L 135.992177 -94.295 
L 136.701083 -94.295 
L 137.40999 -94.295 
L 138.118896 -94.295 
L 138.827803 -94.295 
L 139.53671 -94.295 
L 140.245616 -94.295 
L 140.954523 -94.295 
L 141.663429 -94.295 
L 142.372336 -94.295 
L 143.081242 -94.295 
L 143.790149 -94.295 
L 144.499056 -94.295 
L 145.207962 -94.295 
L 145.916869 -94.295 
L 146.625775 -94.295 
L 147.334682 -94.295 
L 148.043588 -94.295 
L 148.752495 -94.295 
L 149.461401 -94.295 
L 150.170308 -94.295 
L 150.879215 -94.295 
L 151.588121 -94.295 
L 152.297028 -94.295 
L 153.005934 -94.295 
L 153.714841 -94.295 
L 154.423747 -94.295 
L 155.132654 -94.295 
L 155.841561 -94.295 
L 156.550467 -94.295 
L 157.259374 -94.295 
L 157.96828 -94.295 
L 158.677187 -94.295 
L 159.386093 -94.295 
L 160.095 -94.295 
L 160.803906 -94.295 
L 161.512813 -94.295 
L 162.22172 -94.295 
L 162.930626 -94.295 
L 163.639533 -94.295 
L 164.348439 -94.295 
L 165.057346 -94.295 
L 165.766252 -94.295 
L 166.475159 -94.295 
L 167.184066 -94.295 
L 167.892972 -94.295 
L 168.601879 -94.295 
L 169.310785 -94.295 
L 170.019692 -94.295 
L 170.728598 -94.295 
L 171.437505 -94.295 
L 172.146412 -94.295 
L 172.855318 -94.295 
L 173.564225 -94.295 
L 174.273131 -94.295 
L 174.982038 -94.295 
L 175.690944 -94.295 
L 176.399851 -94.295 
L 177.108757 -94.295 
L 177.817664 -94.295 
L 178.526571 -94.295 
L 179.235477 -94.295 
L 179.944384 -94.295 
L 180.65329 -94.295 
L 181.362197 -94.295 
L 182.071103 -94.295 
L 182.78001 -94.295 
L 183.488917 -94.295 
L 183.488917 -94.583568 
L 183.488917 -94.583568 
L 182.78001 -94.618135 
L 182.071103 -94.655173 
L 181.362197 -94.694626 
L 180.65329 -94.736403 
L 179.944384 -94.780379 
L 179.235477 -94.826397 
L 178.526571 -94.87427 
L 177.817664 -94.923781 
L 177.108757 -94.974688 
L 176.399851 -95.026733 
L 175.690944 -95.07964 
L 174.982038 -95.133129 
L 174.273131 -95.186917 
L 173.564225 -95.24073 
L 172.855318 -95.294307 
L 172.146412 -95.347411 
L 171.437505 -95.399833 
L 170.728598 -95.451402 
L 170.019692 -95.501988 
L 169.310785 -95.551505 
L 168.601879 -95.599923 
L 167.892972 -95.647262 
L 167.184066 -95.693595 
L 166.475159 -95.739053 
L 165.766252 -95.783818 
L 165.057346 -95.828122 
L 164.348439 -95.872246 
L 163.639533 -95.916512 
L 162.930626 -95.961285 
L 162.22172 -96.006961 
L 161.512813 -96.053965 
L 160.803906 -96.10275 
L 160.095 -96.153788 
L 159.386093 -96.207571 
L 158.677187 -96.264604 
L 157.96828 -96.325409 
L 157.259374 -96.390519 
L 156.550467 -96.460481 
L 155.841561 -96.535856 
L 155.132654 -96.61722 
L 154.423747 -96.705161 
L 153.714841 -96.800287 
L 153.005934 -96.903218 
L 152.297028 -97.014591 
L 151.588121 -97.135054 
L 150.879215 -97.265261 
L 150.170308 -97.40587 
L 149.461401 -97.557529 
L 148.752495 -97.72087 
L 148.043588 -97.896494 
L 147.334682 -98.084956 
L 146.625775 -98.286746 
L 145.916869 -98.502276 
L 145.207962 -98.731852 
L 144.499056 -98.97566 
L 143.790149 -99.233742 
L 143.081242 -99.505976 
L 142.372336 -99.792059 
L 141.663429 -100.091491 
L 140.954523 -100.403557 
L 140.245616 -100.727325 
L 139.53671 -101.061632 
L 138.827803 -101.405091 
L 138.118896 -101.756088 
L 137.40999 -102.112801 
L 136.701083 -102.47321 
L 135.992177 -102.835121 
L 135.28327 -103.196194 
L 134.574364 -103.553975 
L 133.865457 -103.905937 
L 133.15655 -104.249514 
L 132.447644 -104.582153 
L 131.738737 -104.901356 
L 131.029831 -105.204727 
L 130.320924 -105.490016 
L 129.612018 -105.755166 
L 128.903111 -105.998349 
L 128.194205 -106.218002 
L 127.485298 -106.412858 
L 126.776391 -106.581963 
L 126.067485 -106.724695 
L 125.358578 -106.840764 
L 124.649672 -106.930213 
L 123.940765 -106.993402 
L 123.231859 -107.030991 
L 122.522952 -107.043911 
L 121.814045 -107.033327 
L 121.105139 -107.000603 
L 120.396232 -106.947255 
L 119.687326 -106.874908 
L 118.978419 -106.785248 
L 118.269513 -106.679981 
L 117.560606 -106.560786 
L 116.8517 -106.429283 
L 116.142793 -106.286998 
L 115.433886 -106.135336 
L 114.72498 -105.975567 
L 114.016073 -105.808812 
L 113.307167 -105.636038 
L 112.59826 -105.458062 
L 111.889354 -105.27556 
L 111.180447 -105.089082 
L 110.47154 -104.899064 
L 109.762634 -104.705857 
L 109.053727 -104.509742 
L 108.344821 -104.310957 
L 107.635914 -104.109715 
L 106.927008 -103.906226 
L 106.218101 -103.700709 
L 105.509194 -103.493411 
L 104.800288 -103.284612 
L 104.091381 -103.074628 
L 103.382475 -102.86382 
L 102.673568 -102.652585 
L 101.964662 -102.441351 
L 101.255755 -102.230573 
L 100.546849 -102.020724 
L 99.837942 -101.812281 
L 99.129035 -101.605715 
L 98.420129 -101.401485 
L 97.711222 -101.200025 
L 97.002316 -101.00174 
L 96.293409 -100.806997 
L 95.584503 -100.616122 
L 94.875596 -100.4294 
L 94.166689 -100.247075 
L 93.457783 -100.069351 
L 92.748876 -99.896395 
L 92.03997 -99.728341 
L 91.331063 -99.565299 
L 90.622157 -99.407356 
L 89.91325 -99.254581 
L 89.204344 -99.107033 
L 88.495437 -98.964762 
L 87.78653 -98.827815 
L 87.077624 -98.696233 
L 86.368717 -98.570055 
L 85.659811 -98.449317 
L 84.950904 -98.334048 
L 84.241998 -98.224271 
L 83.533091 -98.119995 
L 82.824184 -98.021217 
L 82.115278 -97.927912 
L 81.406371 -97.840032 
L 80.697465 -97.757502 
L 79.988558 -97.680218 
L 79.279652 -97.608043 
L 78.570745 -97.540805 
L 77.861838 -97.478301 
L 77.152932 -97.420293 
L 76.444025 -97.366511 
L 75.735119 -97.316657 
L 75.026212 -97.270412 
L 74.317306 -97.227431 
L 73.608399 -97.187359 
L 72.899493 -97.149829 
L 72.190586 -97.114472 
L 71.481679 -97.080917 
L 70.772773 -97.048801 
L 70.063866 -97.017771 
L 69.35496 -96.987488 
L 68.646053 -96.957626 
L 67.937147 -96.927881 
L 67.22824 -96.897963 
L 66.519333 -96.867605 
L 65.810427 -96.836552 
L 65.10152 -96.804569 
L 64.392614 -96.771435 
L 63.683707 -96.736939 
L 62.974801 -96.700885 
L 62.265894 -96.663086 
L 61.556988 -96.623365 
L 60.848081 -96.581555 
L 60.139174 -96.537502 
L 59.430268 -96.491068 
L 58.721361 -96.442131 
L 58.012455 -96.39059 
L 57.303548 -96.336373 
L 56.594642 -96.279437 
L 55.885735 -96.219776 
L 55.176828 -96.157425 
L 54.467922 -96.092464 
L 53.759015 -96.025019 
L 53.050109 -95.955265 
L 52.341202 -95.88343 
L 51.632296 -95.809786 
L 50.923389 -95.734652 
L 50.214482 -95.658388 
L 49.505576 -95.581387 
L 48.796669 -95.504071 
L 48.087763 -95.426879 
L 47.378856 -95.350259 
L 46.66995 -95.274659 
L 45.961043 -95.200518 
L 45.252137 -95.128254 
L 44.54323 -95.058257 
L 43.834323 -94.990882 
L 43.125417 -94.926439 
L 42.41651 -94.865195 
z
" style="stroke: #414487; stroke-width: 1.25"/>
    </defs>
    <g>
     <use xlink:href="#m8e79865cf2" x="0" y="174.26" style="fill: #414487; fill-opacity: 0.7; stroke: #414487; stroke-width: 1.25"/>
    </g>
   </g>
   <g id="line2d_4">
    <path d="M 7.2 79.965 
L 216.45 79.965 
" style="fill: none; stroke: #414487; stroke-opacity: 0.9; stroke-linecap: round"/>
   </g>
   <g id="text_4">
    <!-- 3 -->
    <g style="fill: #414487" transform="translate(7.2 79.047) scale(0.12 -0.12)">
     <defs>
      <path id="IBMPlexSans-Bold-33" d="M 1677 2701 
Q 2035 2701 2198 2838 
Q 2362 2976 2362 3181 
L 2362 3226 
Q 2362 3469 2205 3616 
Q 2048 3763 1760 3763 
Q 1491 3763 1254 3625 
Q 1018 3488 851 3232 
L 250 3795 
Q 378 3962 525 4099 
Q 672 4237 857 4336 
Q 1043 4435 1273 4489 
Q 1504 4544 1792 4544 
Q 2150 4544 2441 4461 
Q 2733 4378 2941 4221 
Q 3149 4064 3261 3846 
Q 3373 3629 3373 3360 
Q 3373 3149 3305 2976 
Q 3238 2803 3120 2675 
Q 3002 2547 2848 2467 
Q 2694 2387 2522 2355 
L 2522 2317 
Q 2720 2278 2889 2192 
Q 3059 2106 3184 1971 
Q 3309 1837 3379 1654 
Q 3450 1472 3450 1242 
Q 3450 941 3328 697 
Q 3206 454 2982 281 
Q 2758 109 2444 16 
Q 2131 -77 1754 -77 
Q 1414 -77 1152 -6 
Q 890 64 694 182 
Q 499 301 355 454 
Q 211 608 102 781 
L 813 1331 
Q 960 1056 1174 880 
Q 1389 704 1754 704 
Q 2080 704 2262 867 
Q 2445 1030 2445 1312 
L 2445 1350 
Q 2445 1626 2237 1763 
Q 2029 1901 1664 1901 
L 1261 1901 
L 1261 2701 
L 1677 2701 
z
" transform="scale(0.015625)"/>
     </defs>
     <use xlink:href="#IBMPlexSans-Bold-33"/>
    </g>
   </g>
  </g>
  <g id="axes_5">
   <g id="patch_6">
    <path d="M 7.2 90.36 
L 216.45 90.36 
L 216.45 48.78 
L 7.2 48.78 
L 7.2 90.36 
z
" style="fill: none"/>
   </g>
   <g id="matplotlib.axis_9">
    <g id="xtick_21"/>
    <g id="xtick_22"/>
    <g id="xtick_23"/>
    <g id="xtick_24"/>
    <g id="xtick_25"/>
   </g>
   <g id="matplotlib.axis_10"/>
   <g id="FillBetweenPolyCollection_4">
    <defs>
     <path id="m115fa554e8" d="M 16.711364 -84.286323 
L 16.711364 -83.9 
L 17.66728 -83.9 
L 18.623196 -83.9 
L 19.579111 -83.9 
L 20.535027 -83.9 
L 21.490943 -83.9 
L 22.446859 -83.9 
L 23.402775 -83.9 
L 24.358691 -83.9 
L 25.314607 -83.9 
L 26.270523 -83.9 
L 27.226439 -83.9 
L 28.182355 -83.9 
L 29.138271 -83.9 
L 30.094187 -83.9 
L 31.050103 -83.9 
L 32.006019 -83.9 
L 32.961935 -83.9 
L 33.917851 -83.9 
L 34.873767 -83.9 
L 35.829683 -83.9 
L 36.785598 -83.9 
L 37.741514 -83.9 
L 38.69743 -83.9 
L 39.653346 -83.9 
L 40.609262 -83.9 
L 41.565178 -83.9 
L 42.521094 -83.9 
L 43.47701 -83.9 
L 44.432926 -83.9 
L 45.388842 -83.9 
L 46.344758 -83.9 
L 47.300674 -83.9 
L 48.25659 -83.9 
L 49.212506 -83.9 
L 50.168422 -83.9 
L 51.124338 -83.9 
L 52.080254 -83.9 
L 53.036169 -83.9 
L 53.992085 -83.9 
L 54.948001 -83.9 
L 55.903917 -83.9 
L 56.859833 -83.9 
L 57.815749 -83.9 
L 58.771665 -83.9 
L 59.727581 -83.9 
L 60.683497 -83.9 
L 61.639413 -83.9 
L 62.595329 -83.9 
L 63.551245 -83.9 
L 64.507161 -83.9 
L 65.463077 -83.9 
L 66.418993 -83.9 
L 67.374909 -83.9 
L 68.330825 -83.9 
L 69.286741 -83.9 
L 70.242656 -83.9 
L 71.198572 -83.9 
L 72.154488 -83.9 
L 73.110404 -83.9 
L 74.06632 -83.9 
L 75.022236 -83.9 
L 75.978152 -83.9 
L 76.934068 -83.9 
L 77.889984 -83.9 
L 78.8459 -83.9 
L 79.801816 -83.9 
L 80.757732 -83.9 
L 81.713648 -83.9 
L 82.669564 -83.9 
L 83.62548 -83.9 
L 84.581396 -83.9 
L 85.537312 -83.9 
L 86.493228 -83.9 
L 87.449143 -83.9 
L 88.405059 -83.9 
L 89.360975 -83.9 
L 90.316891 -83.9 
L 91.272807 -83.9 
L 92.228723 -83.9 
L 93.184639 -83.9 
L 94.140555 -83.9 
L 95.096471 -83.9 
L 96.052387 -83.9 
L 97.008303 -83.9 
L 97.964219 -83.9 
L 98.920135 -83.9 
L 99.876051 -83.9 
L 100.831967 -83.9 
L 101.787883 -83.9 
L 102.743799 -83.9 
L 103.699714 -83.9 
L 104.65563 -83.9 
L 105.611546 -83.9 
L 106.567462 -83.9 
L 107.523378 -83.9 
L 108.479294 -83.9 
L 109.43521 -83.9 
L 110.391126 -83.9 
L 111.347042 -83.9 
L 112.302958 -83.9 
L 113.258874 -83.9 
L 114.21479 -83.9 
L 115.170706 -83.9 
L 116.126622 -83.9 
L 117.082538 -83.9 
L 118.038454 -83.9 
L 118.99437 -83.9 
L 119.950286 -83.9 
L 120.906201 -83.9 
L 121.862117 -83.9 
L 122.818033 -83.9 
L 123.773949 -83.9 
L 124.729865 -83.9 
L 125.685781 -83.9 
L 126.641697 -83.9 
L 127.597613 -83.9 
L 128.553529 -83.9 
L 129.509445 -83.9 
L 130.465361 -83.9 
L 131.421277 -83.9 
L 132.377193 -83.9 
L 133.333109 -83.9 
L 134.289025 -83.9 
L 135.244941 -83.9 
L 136.200857 -83.9 
L 137.156772 -83.9 
L 138.112688 -83.9 
L 139.068604 -83.9 
L 140.02452 -83.9 
L 140.980436 -83.9 
L 141.936352 -83.9 
L 142.892268 -83.9 
L 143.848184 -83.9 
L 144.8041 -83.9 
L 145.760016 -83.9 
L 146.715932 -83.9 
L 147.671848 -83.9 
L 148.627764 -83.9 
L 149.58368 -83.9 
L 150.539596 -83.9 
L 151.495512 -83.9 
L 152.451428 -83.9 
L 153.407344 -83.9 
L 154.363259 -83.9 
L 155.319175 -83.9 
L 156.275091 -83.9 
L 157.231007 -83.9 
L 158.186923 -83.9 
L 159.142839 -83.9 
L 160.098755 -83.9 
L 161.054671 -83.9 
L 162.010587 -83.9 
L 162.966503 -83.9 
L 163.922419 -83.9 
L 164.878335 -83.9 
L 165.834251 -83.9 
L 166.790167 -83.9 
L 167.746083 -83.9 
L 168.701999 -83.9 
L 169.657915 -83.9 
L 170.613831 -83.9 
L 171.569746 -83.9 
L 172.525662 -83.9 
L 173.481578 -83.9 
L 174.437494 -83.9 
L 175.39341 -83.9 
L 176.349326 -83.9 
L 177.305242 -83.9 
L 178.261158 -83.9 
L 179.217074 -83.9 
L 180.17299 -83.9 
L 181.128906 -83.9 
L 182.084822 -83.9 
L 183.040738 -83.9 
L 183.996654 -83.9 
L 184.95257 -83.9 
L 185.908486 -83.9 
L 186.864402 -83.9 
L 187.820317 -83.9 
L 188.776233 -83.9 
L 189.732149 -83.9 
L 190.688065 -83.9 
L 191.643981 -83.9 
L 192.599897 -83.9 
L 193.555813 -83.9 
L 194.511729 -83.9 
L 195.467645 -83.9 
L 196.423561 -83.9 
L 197.379477 -83.9 
L 198.335393 -83.9 
L 199.291309 -83.9 
L 200.247225 -83.9 
L 201.203141 -83.9 
L 202.159057 -83.9 
L 203.114973 -83.9 
L 204.070889 -83.9 
L 205.026804 -83.9 
L 205.98272 -83.9 
L 206.938636 -83.9 
L 206.938636 -84.133947 
L 206.938636 -84.133947 
L 205.98272 -84.161381 
L 205.026804 -84.190615 
L 204.070889 -84.221569 
L 203.114973 -84.254134 
L 202.159057 -84.288175 
L 201.203141 -84.323533 
L 200.247225 -84.360023 
L 199.291309 -84.397445 
L 198.335393 -84.435583 
L 197.379477 -84.474209 
L 196.423561 -84.513096 
L 195.467645 -84.552015 
L 194.511729 -84.590749 
L 193.555813 -84.629094 
L 192.599897 -84.666871 
L 191.643981 -84.703925 
L 190.688065 -84.740136 
L 189.732149 -84.775421 
L 188.776233 -84.809739 
L 187.820317 -84.84309 
L 186.864402 -84.875522 
L 185.908486 -84.907126 
L 184.95257 -84.938035 
L 183.996654 -84.968426 
L 183.040738 -84.998514 
L 182.084822 -85.028548 
L 181.128906 -85.058807 
L 180.17299 -85.089596 
L 179.217074 -85.12124 
L 178.261158 -85.154082 
L 177.305242 -85.188474 
L 176.349326 -85.224778 
L 175.39341 -85.263364 
L 174.437494 -85.304602 
L 173.481578 -85.348867 
L 172.525662 -85.396537 
L 171.569746 -85.447994 
L 170.613831 -85.503622 
L 169.657915 -85.563817 
L 168.701999 -85.628979 
L 167.746083 -85.699523 
L 166.790167 -85.775873 
L 165.834251 -85.85847 
L 164.878335 -85.947764 
L 163.922419 -86.044218 
L 162.966503 -86.148303 
L 162.010587 -86.260492 
L 161.054671 -86.38125 
L 160.098755 -86.511032 
L 159.142839 -86.650264 
L 158.186923 -86.799331 
L 157.231007 -86.958567 
L 156.275091 -87.128232 
L 155.319175 -87.308501 
L 154.363259 -87.499443 
L 153.407344 -87.701004 
L 152.451428 -87.912994 
L 151.495512 -88.135073 
L 150.539596 -88.366735 
L 149.58368 -88.607303 
L 148.627764 -88.855924 
L 147.671848 -89.111568 
L 146.715932 -89.373027 
L 145.760016 -89.638932 
L 144.8041 -89.907756 
L 143.848184 -90.177841 
L 142.892268 -90.447414 
L 141.936352 -90.714617 
L 140.980436 -90.977535 
L 140.02452 -91.234231 
L 139.068604 -91.48278 
L 138.112688 -91.721305 
L 137.156772 -91.948013 
L 136.200857 -92.161232 
L 135.244941 -92.359442 
L 134.289025 -92.541303 
L 133.333109 -92.705684 
L 132.377193 -92.851684 
L 131.421277 -92.97864 
L 130.465361 -93.086142 
L 129.509445 -93.174033 
L 128.553529 -93.242402 
L 127.597613 -93.291571 
L 126.641697 -93.322083 
L 125.685781 -93.334674 
L 124.729865 -93.330245 
L 123.773949 -93.309834 
L 122.818033 -93.274578 
L 121.862117 -93.225684 
L 120.906201 -93.164388 
L 119.950286 -93.091926 
L 118.99437 -93.009504 
L 118.038454 -92.918267 
L 117.082538 -92.819281 
L 116.126622 -92.713516 
L 115.170706 -92.60183 
L 114.21479 -92.484967 
L 113.258874 -92.363554 
L 112.302958 -92.238108 
L 111.347042 -92.109041 
L 110.391126 -91.976678 
L 109.43521 -91.841266 
L 108.479294 -91.702995 
L 107.523378 -91.562017 
L 106.567462 -91.41846 
L 105.611546 -91.272446 
L 104.65563 -91.124108 
L 103.699714 -90.973598 
L 102.743799 -90.8211 
L 101.787883 -90.666833 
L 100.831967 -90.511056 
L 99.876051 -90.354068 
L 98.920135 -90.196203 
L 97.964219 -90.037825 
L 97.008303 -89.879324 
L 96.052387 -89.721102 
L 95.096471 -89.56357 
L 94.140555 -89.407134 
L 93.184639 -89.252188 
L 92.228723 -89.099109 
L 91.272807 -88.948245 
L 90.316891 -88.799918 
L 89.360975 -88.654413 
L 88.405059 -88.511983 
L 87.449143 -88.372846 
L 86.493228 -88.237186 
L 85.537312 -88.10516 
L 84.581396 -87.976897 
L 83.62548 -87.852505 
L 82.669564 -87.732074 
L 81.713648 -87.615682 
L 80.757732 -87.503394 
L 79.801816 -87.395269 
L 78.8459 -87.291362 
L 77.889984 -87.191721 
L 76.934068 -87.096392 
L 75.978152 -87.005412 
L 75.022236 -86.918813 
L 74.06632 -86.836615 
L 73.110404 -86.758825 
L 72.154488 -86.685433 
L 71.198572 -86.616406 
L 70.242656 -86.551689 
L 69.286741 -86.4912 
L 68.330825 -86.434828 
L 67.374909 -86.38243 
L 66.418993 -86.333833 
L 65.463077 -86.288833 
L 64.507161 -86.247198 
L 63.551245 -86.208668 
L 62.595329 -86.172963 
L 61.639413 -86.139782 
L 60.683497 -86.108814 
L 59.727581 -86.079738 
L 58.771665 -86.052232 
L 57.815749 -86.025978 
L 56.859833 -86.000669 
L 55.903917 -85.97601 
L 54.948001 -85.951725 
L 53.992085 -85.927562 
L 53.036169 -85.903291 
L 52.080254 -85.878708 
L 51.124338 -85.853635 
L 50.168422 -85.827919 
L 49.212506 -85.801429 
L 48.25659 -85.774053 
L 47.300674 -85.745701 
L 46.344758 -85.716291 
L 45.388842 -85.685755 
L 44.432926 -85.654032 
L 43.47701 -85.621064 
L 42.521094 -85.586799 
L 41.565178 -85.551184 
L 40.609262 -85.514168 
L 39.653346 -85.475704 
L 38.69743 -85.43575 
L 37.741514 -85.394269 
L 36.785598 -85.351236 
L 35.829683 -85.306642 
L 34.873767 -85.260493 
L 33.917851 -85.212821 
L 32.961935 -85.163682 
L 32.006019 -85.113162 
L 31.050103 -85.061377 
L 30.094187 -85.008475 
L 29.138271 -84.954636 
L 28.182355 -84.900069 
L 27.226439 -84.845012 
L 26.270523 -84.789723 
L 25.314607 -84.734481 
L 24.358691 -84.679578 
L 23.402775 -84.625308 
L 22.446859 -84.571968 
L 21.490943 -84.519847 
L 20.535027 -84.469219 
L 19.579111 -84.420338 
L 18.623196 -84.373434 
L 17.66728 -84.328707 
L 16.711364 -84.286323 
z
" style="stroke: #482475; stroke-width: 1.25"/>
    </defs>
    <g>
     <use xlink:href="#m115fa554e8" x="0" y="174.26" style="fill: #482475; fill-opacity: 0.7; stroke: #482475; stroke-width: 1.25"/>
    </g>
   </g>
   <g id="line2d_5">
    <path d="M 7.2 90.36 
L 216.45 90.36 
" style="fill: none; stroke: #482475; stroke-opacity: 0.9; stroke-linecap: round"/>
   </g>
   <g id="text_5">
    <!-- 4 -->
    <g style="fill: #482475" transform="translate(7.2 89.442) scale(0.12 -0.12)">
     <defs>
      <path id="IBMPlexSans-Bold-34" d="M 2157 0 
L 2157 858 
L 192 858 
L 192 1677 
L 1933 4467 
L 3072 4467 
L 3072 1600 
L 3635 1600 
L 3635 858 
L 3072 858 
L 3072 0 
L 2157 0 
z
M 960 1600 
L 2157 1600 
L 2157 3475 
L 2093 3475 
L 960 1600 
z
" transform="scale(0.015625)"/>
     </defs>
     <use xlink:href="#IBMPlexSans-Bold-34"/>
    </g>
   </g>
  </g>
  <g id="axes_6">
   <g id="patch_7">
    <path d="M 7.2 100.755 
L 216.45 100.755 
L 216.45 59.175 
L 7.2 59.175 
L 7.2 100.755 
z
" style="fill: none"/>
   </g>
   <g id="matplotlib.axis_11">
    <g id="xtick_26"/>
    <g id="xtick_27"/>
    <g id="xtick_28"/>
    <g id="xtick_29"/>
    <g id="xtick_30"/>
   </g>
   <g id="matplotlib.axis_12"/>
   <g id="line2d_6">
    <path d="M 7.2 100.755 
L 216.45 100.755 
" style="fill: none; stroke: #21918c; stroke-opacity: 0.9; stroke-linecap: round"/>
   </g>
   <g id="text_6">
    <!-- 5 -->
    <g style="fill: #21918c" transform="translate(7.2 99.837) scale(0.12 -0.12)">
     <defs>
      <path id="IBMPlexSans-Bold-35" d="M 3341 3629 
L 1312 3629 
L 1216 2214 
L 1267 2214 
Q 1331 2374 1411 2505 
Q 1491 2637 1600 2729 
Q 1709 2822 1862 2873 
Q 2016 2925 2227 2925 
Q 2515 2925 2764 2829 
Q 3014 2733 3200 2550 
Q 3386 2368 3494 2102 
Q 3603 1837 3603 1504 
Q 3603 1165 3491 873 
Q 3379 582 3158 371 
Q 2938 160 2618 41 
Q 2298 -77 1888 -77 
Q 1562 -77 1312 -6 
Q 1062 64 870 182 
Q 678 301 537 454 
Q 397 608 294 781 
L 992 1331 
Q 1139 1069 1344 886 
Q 1549 704 1894 704 
Q 2240 704 2416 902 
Q 2592 1101 2592 1427 
L 2592 1478 
Q 2592 1786 2413 1965 
Q 2234 2144 1920 2144 
Q 1658 2144 1488 2038 
Q 1318 1933 1229 1830 
L 442 1939 
L 608 4467 
L 3341 4467 
L 3341 3629 
z
" transform="scale(0.015625)"/>
     </defs>
     <use xlink:href="#IBMPlexSans-Bold-35"/>
    </g>
   </g>
  </g>
  <g id="axes_7">
   <g id="patch_8">
    <path d="M 7.2 111.15 
L 216.45 111.15 
L 216.45 69.57 
L 7.2 69.57 
L 7.2 111.15 
z
" style="fill: none"/>
   </g>
   <g id="matplotlib.axis_13">
    <g id="xtick_31"/>
    <g id="xtick_32"/>
    <g id="xtick_33"/>
    <g id="xtick_34"/>
    <g id="xtick_35"/>
   </g>
   <g id="matplotlib.axis_14"/>
   <g id="line2d_7">
    <path d="M 7.2 111.15 
L 216.45 111.15 
" style="fill: none; stroke: #21918c; stroke-opacity: 0.9; stroke-linecap: round"/>
   </g>
   <g id="text_7">
    <!-- 6 -->
    <g style="fill: #21918c" transform="translate(7.2 110.232) scale(0.12 -0.12)">
     <defs>
      <path id="IBMPlexSans-Bold-36" d="M 1946 -77 
Q 1549 -77 1235 48 
Q 922 173 707 406 
Q 493 640 381 966 
Q 269 1293 269 1696 
Q 269 2163 413 2582 
Q 557 3002 784 3357 
Q 1011 3712 1296 3993 
Q 1581 4275 1869 4467 
L 3194 4467 
Q 2784 4173 2457 3907 
Q 2131 3642 1891 3373 
Q 1651 3104 1494 2825 
Q 1338 2547 1274 2227 
L 1331 2208 
Q 1389 2336 1469 2457 
Q 1549 2579 1667 2672 
Q 1786 2765 1946 2822 
Q 2106 2880 2317 2880 
Q 2592 2880 2832 2781 
Q 3072 2682 3248 2502 
Q 3424 2323 3523 2064 
Q 3622 1805 3622 1491 
Q 3622 1146 3504 858 
Q 3386 570 3165 362 
Q 2944 154 2637 38 
Q 2330 -77 1946 -77 
z
M 1946 672 
Q 2266 672 2445 848 
Q 2624 1024 2624 1350 
L 2624 1466 
Q 2624 1792 2445 1968 
Q 2266 2144 1946 2144 
Q 1626 2144 1446 1968 
Q 1267 1792 1267 1466 
L 1267 1350 
Q 1267 1024 1446 848 
Q 1626 672 1946 672 
z
" transform="scale(0.015625)"/>
     </defs>
     <use xlink:href="#IBMPlexSans-Bold-36"/>
    </g>
   </g>
  </g>
  <g id="axes_8">
   <g id="patch_9">
    <path d="M 7.2 121.545 
L 216.45 121.545 
L 216.45 79.965 
L 7.2 79.965 
L 7.2 121.545 
z
" style="fill: none"/>
   </g>
   <g id="matplotlib.axis_15">
    <g id="xtick_36"/>
    <g id="xtick_37"/>
    <g id="xtick_38"/>
    <g id="xtick_39"/>
    <g id="xtick_40"/>
   </g>
   <g id="matplotlib.axis_16"/>
   <g id="line2d_8">
    <path d="M 7.2 121.545 
L 216.45 121.545 
" style="fill: none; stroke: #21918c; stroke-opacity: 0.9; stroke-linecap: round"/>
   </g>
   <g id="text_8">
    <!-- 7 -->
    <g style="fill: #21918c" transform="translate(7.2 120.627) scale(0.12 -0.12)">
     <defs>
      <path id="IBMPlexSans-Bold-37" d="M 1062 0 
L 2560 3686 
L 1165 3686 
L 1165 2874 
L 352 2874 
L 352 4467 
L 3514 4467 
L 3514 3635 
L 2074 0 
L 1062 0 
z
" transform="scale(0.015625)"/>
     </defs>
     <use xlink:href="#IBMPlexSans-Bold-37"/>
    </g>
   </g>
  </g>
  <g id="axes_9">
   <g id="patch_10">
    <path d="M 7.2 131.94 
L 216.45 131.94 
L 216.45 90.36 
L 7.2 90.36 
L 7.2 131.94 
z
" style="fill: none"/>
   </g>
   <g id="matplotlib.axis_17">
    <g id="xtick_41">
     <g id="text_9">
      <!-- −4 -->
      <g style="fill: #838383" transform="translate(16.029723 149.58) scale(0.11 -0.11)">
       <defs>
        <path id="IBMPlexSans-Regular-2212" d="M 429 1734 
L 429 2170 
L 3411 2170 
L 3411 1734 
L 429 1734 
z
" transform="scale(0.015625)"/>
        <path id="IBMPlexSans-Regular-34" d="M 2400 0 
L 2400 877 
L 243 877 
L 243 1350 
L 2112 4467 
L 2912 4467 
L 2912 1325 
L 3558 1325 
L 3558 877 
L 2912 877 
L 2912 0 
L 2400 0 
z
M 749 1325 
L 2400 1325 
L 2400 4051 
L 2368 4051 
L 749 1325 
z
" transform="scale(0.015625)"/>
       </defs>
       <use xlink:href="#IBMPlexSans-Regular-2212"/>
       <use xlink:href="#IBMPlexSans-Regular-34" transform="translate(59.999985 0)"/>
      </g>
     </g>
    </g>
    <g id="xtick_42">
     <g id="text_10">
      <!-- −2 -->
      <g style="fill: #838383" transform="translate(62.03298 149.58) scale(0.11 -0.11)">
       <defs>
        <path id="IBMPlexSans-Regular-32" d="M 3411 0 
L 480 0 
L 480 550 
L 1939 1894 
Q 2253 2182 2464 2505 
Q 2675 2829 2675 3155 
L 2675 3232 
Q 2675 3603 2470 3833 
Q 2266 4064 1850 4064 
Q 1645 4064 1491 4006 
Q 1338 3949 1226 3846 
Q 1114 3744 1040 3606 
Q 966 3469 922 3309 
L 442 3494 
Q 506 3693 618 3881 
Q 730 4070 899 4217 
Q 1069 4365 1309 4454 
Q 1549 4544 1875 4544 
Q 2202 4544 2458 4448 
Q 2714 4352 2886 4179 
Q 3059 4006 3152 3769 
Q 3245 3533 3245 3245 
Q 3245 2982 3171 2758 
Q 3098 2534 2970 2332 
Q 2842 2131 2659 1939 
Q 2477 1747 2266 1555 
L 1062 474 
L 3411 474 
L 3411 0 
z
" transform="scale(0.015625)"/>
       </defs>
       <use xlink:href="#IBMPlexSans-Regular-2212"/>
       <use xlink:href="#IBMPlexSans-Regular-32" transform="translate(59.999985 0)"/>
      </g>
     </g>
    </g>
    <g id="xtick_43">
     <g id="text_11">
      <!-- 0 -->
      <g style="fill: #838383" transform="translate(111.336237 149.58) scale(0.11 -0.11)">
       <defs>
        <path id="IBMPlexSans-Regular-30" d="M 1920 -77 
Q 1120 -77 752 531 
Q 384 1139 384 2234 
Q 384 3328 752 3936 
Q 1120 4544 1920 4544 
Q 2720 4544 3088 3936 
Q 3456 3328 3456 2234 
Q 3456 1139 3088 531 
Q 2720 -77 1920 -77 
z
M 1920 390 
Q 2182 390 2368 499 
Q 2554 608 2669 806 
Q 2784 1005 2838 1273 
Q 2893 1542 2893 1869 
L 2893 2598 
Q 2893 2925 2838 3193 
Q 2784 3462 2669 3660 
Q 2554 3859 2368 3968 
Q 2182 4077 1920 4077 
Q 1658 4077 1472 3968 
Q 1286 3859 1171 3660 
Q 1056 3462 1001 3193 
Q 947 2925 947 2598 
L 947 1869 
Q 947 1542 1001 1273 
Q 1056 1005 1171 806 
Q 1286 608 1472 499 
Q 1658 390 1920 390 
z
" transform="scale(0.015625)"/>
       </defs>
       <use xlink:href="#IBMPlexSans-Regular-30"/>
      </g>
     </g>
    </g>
    <g id="xtick_44">
     <g id="text_12">
      <!-- 2 -->
      <g style="fill: #838383" transform="translate(157.339494 149.58) scale(0.11 -0.11)">
       <use xlink:href="#IBMPlexSans-Regular-32"/>
      </g>
     </g>
    </g>
    <g id="xtick_45">
     <g id="text_13">
      <!-- 4 -->
      <g style="fill: #838383" transform="translate(203.342751 149.58) scale(0.11 -0.11)">
       <use xlink:href="#IBMPlexSans-Regular-34"/>
      </g>
     </g>
    </g>
    <g id="text_14">
     <!-- sldf -->
     <g style="fill: #262626" transform="translate(101.84625 164.66) scale(0.12 -0.12)">
      <defs>
       <path id="IBMPlexSans-Regular-73" d="M 1536 -77 
Q 1075 -77 764 99 
Q 454 275 230 570 
L 595 864 
Q 787 621 1024 489 
Q 1261 358 1574 358 
Q 1901 358 2083 499 
Q 2266 640 2266 896 
Q 2266 1088 2141 1225 
Q 2016 1363 1690 1414 
L 1427 1453 
Q 1197 1485 1005 1552 
Q 813 1619 669 1731 
Q 525 1843 445 2009 
Q 365 2176 365 2406 
Q 365 2650 454 2832 
Q 544 3014 701 3136 
Q 858 3258 1075 3318 
Q 1293 3379 1542 3379 
Q 1946 3379 2218 3238 
Q 2490 3098 2694 2848 
L 2355 2541 
Q 2246 2694 2035 2819 
Q 1824 2944 1504 2944 
Q 1184 2944 1021 2806 
Q 858 2669 858 2432 
Q 858 2189 1021 2080 
Q 1184 1971 1491 1920 
L 1747 1882 
Q 2298 1798 2528 1564 
Q 2758 1331 2758 954 
Q 2758 474 2432 198 
Q 2106 -77 1536 -77 
z
" transform="scale(0.015625)"/>
       <path id="IBMPlexSans-Regular-6c" d="M 1088 0 
Q 819 0 681 150 
Q 544 301 544 531 
L 544 4736 
L 1056 4736 
L 1056 448 
L 1542 448 
L 1542 0 
L 1088 0 
z
" transform="scale(0.015625)"/>
       <path id="IBMPlexSans-Regular-64" d="M 2656 538 
L 2630 538 
Q 2330 -77 1664 -77 
Q 1357 -77 1107 44 
Q 858 166 682 390 
Q 506 614 413 934 
Q 320 1254 320 1651 
Q 320 2048 413 2368 
Q 506 2688 682 2912 
Q 858 3136 1107 3257 
Q 1357 3379 1664 3379 
Q 2010 3379 2256 3228 
Q 2502 3078 2630 2765 
L 2656 2765 
L 2656 4736 
L 3168 4736 
L 3168 0 
L 2656 0 
L 2656 538 
z
M 1805 384 
Q 1978 384 2134 429 
Q 2291 474 2406 560 
Q 2522 646 2589 771 
Q 2656 896 2656 1056 
L 2656 2285 
Q 2656 2419 2589 2537 
Q 2522 2656 2406 2739 
Q 2291 2822 2134 2870 
Q 1978 2918 1805 2918 
Q 1370 2918 1120 2646 
Q 870 2374 870 1933 
L 870 1370 
Q 870 928 1120 656 
Q 1370 384 1805 384 
z
" transform="scale(0.015625)"/>
       <path id="IBMPlexSans-Regular-66" d="M 723 2854 
L 186 2854 
L 186 3302 
L 723 3302 
L 723 3968 
Q 723 4314 902 4525 
Q 1082 4736 1446 4736 
L 1946 4736 
L 1946 4288 
L 1235 4288 
L 1235 3302 
L 1946 3302 
L 1946 2854 
L 1235 2854 
L 1235 0 
L 723 0 
L 723 2854 
z
" transform="scale(0.015625)"/>
      </defs>
      <use xlink:href="#IBMPlexSans-Regular-73"/>
      <use xlink:href="#IBMPlexSans-Regular-6c" transform="translate(48.699997 0)"/>
      <use xlink:href="#IBMPlexSans-Regular-64" transform="translate(75.899994 0)"/>
      <use xlink:href="#IBMPlexSans-Regular-66" transform="translate(133.899979 0)"/>
     </g>
    </g>
   </g>
   <g id="matplotlib.axis_18"/>
   <g id="line2d_9">
    <path d="M 7.2 131.94 
L 216.45 131.94 
" style="fill: none; stroke: #21918c; stroke-opacity: 0.9; stroke-linecap: round"/>
   </g>
   <g id="text_15">
    <!-- 8 -->
    <g style="fill: #21918c" transform="translate(7.2 131.022) scale(0.12 -0.12)">
     <defs>
      <path id="IBMPlexSans-Bold-38" d="M 1920 -77 
Q 1523 -77 1212 22 
Q 902 122 691 294 
Q 480 467 368 704 
Q 256 941 256 1222 
Q 256 1651 493 1923 
Q 730 2195 1133 2304 
L 1133 2355 
Q 806 2477 598 2726 
Q 390 2976 390 3366 
Q 390 3622 489 3840 
Q 589 4058 784 4214 
Q 979 4371 1264 4457 
Q 1549 4544 1920 4544 
Q 2291 4544 2576 4457 
Q 2861 4371 3056 4214 
Q 3251 4058 3350 3840 
Q 3450 3622 3450 3366 
Q 3450 2976 3242 2726 
Q 3034 2477 2707 2355 
L 2707 2304 
Q 3110 2195 3347 1923 
Q 3584 1651 3584 1222 
Q 3584 941 3472 704 
Q 3360 467 3149 294 
Q 2938 122 2627 22 
Q 2317 -77 1920 -77 
z
M 1920 659 
Q 2240 659 2409 809 
Q 2579 960 2579 1229 
L 2579 1357 
Q 2579 1626 2409 1776 
Q 2240 1926 1920 1926 
Q 1600 1926 1430 1776 
Q 1261 1626 1261 1357 
L 1261 1229 
Q 1261 960 1430 809 
Q 1600 659 1920 659 
z
M 1920 2630 
Q 2227 2630 2387 2774 
Q 2547 2918 2547 3168 
L 2547 3270 
Q 2547 3520 2387 3664 
Q 2227 3808 1920 3808 
Q 1613 3808 1453 3664 
Q 1293 3520 1293 3270 
L 1293 3168 
Q 1293 2918 1453 2774 
Q 1613 2630 1920 2630 
z
" transform="scale(0.015625)"/>
     </defs>
     <use xlink:href="#IBMPlexSans-Bold-38"/>
    </g>
   </g>
  </g>
 </g>
</svg>
