<?xml version="1.0" encoding="utf-8" standalone="no"?>
<!DOCTYPE svg PUBLIC "-//W3C//DTD SVG 1.1//EN"
  "http://www.w3.org/Graphics/SVG/1.1/DTD/svg11.dtd">
<svg xmlns:xlink="http://www.w3.org/1999/xlink" width="223.65pt" height="174.26pt" viewBox="0 0 223.65 174.26" xmlns="http://www.w3.org/2000/svg" version="1.1">
 <metadata>
  <rdf:RDF xmlns:dc="http://purl.org/dc/elements/1.1/" xmlns:cc="http://creativecommons.org/ns#" xmlns:rdf="http://www.w3.org/1999/02/22-rdf-syntax-ns#">
   <cc:Work>
    <dc:type rdf:resource="http://purl.org/dc/dcmitype/StillImage"/>
    <dc:date>2025-12-31T11:26:08.001044</dc:date>
    <dc:format>image/svg+xml</dc:format>
    <dc:creator>
     <cc:Agent>
      <dc:title>Matplotlib v3.10.5, https://matplotlib.org/</dc:title>
     </cc:Agent>
    </dc:creator>
   </cc:Work>
  </rdf:RDF>
 </metadata>
 <defs>
  <style type="text/css">*{stroke-linejoin: round; stroke-linecap: butt}</style>
 </defs>
 <g id="figure_1">
  <g id="patch_1">
   <path d="M 0 174.26 
L 223.65 174.26 
L 223.65 0 
L 0 0 
L 0 174.26 
z
" style="fill: none"/>
  </g>
  <g id="axes_1">
   <g id="patch_2">
    <path d="M 7.2 48.78 
L 216.45 48.78 
L 216.45 7.2 
L 7.2 7.2 
L 7.2 48.78 
z
" style="fill: none"/>
   </g>
   <g id="matplotlib.axis_1">
    <g id="xtick_1"/>
    <g id="xtick_2"/>
    <g id="xtick_3"/>
    <g id="xtick_4"/>
   </g>
   <g id="matplotlib.axis_2"/>
   <g id="line2d_1">
    <path d="M 7.2 48.78 
L 216.45 48.78 
" style="fill: none; stroke: #21918c; stroke-opacity: 0.9; stroke-linecap: round"/>
   </g>
   <g id="text_1">
    <!-- 0 -->
    <g style="fill: #21918c" transform="translate(7.2 47.862) scale(0.12 -0.12)">
     <defs>
      <path id="IBMPlexSans-Bold-30" d="M 1920 -77 
Q 1043 -77 620 531 
Q 198 1139 198 2234 
Q 198 3328 620 3936 
Q 1043 4544 1920 4544 
Q 2797 4544 3219 3936 
Q 3642 3328 3642 2234 
Q 3642 1139 3219 531 
Q 2797 -77 1920 -77 
z
M 1920 736 
Q 2304 736 2451 1017 
Q 2598 1299 2598 1811 
L 2598 2656 
Q 2598 3168 2451 3449 
Q 2304 3731 1920 3731 
Q 1536 3731 1389 3449 
Q 1242 3168 1242 2656 
L 1242 1811 
Q 1242 1299 1389 1017 
Q 1536 736 1920 736 
z
" transform="scale(0.015625)"/>
     </defs>
     <use xlink:href="#IBMPlexSans-Bold-30"/>
    </g>
   </g>
  </g>
  <g id="axes_2">
   <g id="patch_3">
    <path d="M 7.2 59.175 
L 216.45 59.175 
L 216.45 17.595 
L 7.2 17.595 
L 7.2 59.175 
z
" style="fill: none"/>
   </g>
   <g id="matplotlib.axis_3">
    <g id="xtick_5"/>
    <g id="xtick_6"/>
    <g id="xtick_7"/>
    <g id="xtick_8"/>
   </g>
   <g id="matplotlib.axis_4"/>
   <g id="FillBetweenPolyCollection_1">
    <defs>
     <path id="mb4cf28f558" d="M 110.944905 -121.962084 
L 110.944905 -115.085 
L 111.175221 -115.085 
L 111.405537 -115.085 
L 111.635853 -115.085 
L 111.866169 -115.085 
L 112.096485 -115.085 
L 112.326801 -115.085 
L 112.557117 -115.085 
L 112.787433 -115.085 
L 113.017749 -115.085 
L 113.248065 -115.085 
L 113.478382 -115.085 
L 113.708698 -115.085 
L 113.939014 -115.085 
L 114.16933 -115.085 
L 114.399646 -115.085 
L 114.629962 -115.085 
L 114.860278 -115.085 
L 115.090594 -115.085 
L 115.32091 -115.085 
L 115.551226 -115.085 
L 115.781542 -115.085 
L 116.011859 -115.085 
L 116.242175 -115.085 
L 116.472491 -115.085 
L 116.702807 -115.085 
L 116.933123 -115.085 
L 117.163439 -115.085 
L 117.393755 -115.085 
L 117.624071 -115.085 
L 117.854387 -115.085 
L 118.084703 -115.085 
L 118.315019 -115.085 
L 118.545335 -115.085 
L 118.775652 -115.085 
L 119.005968 -115.085 
L 119.236284 -115.085 
L 119.4666 -115.085 
L 119.696916 -115.085 
L 119.927232 -115.085 
L 120.157548 -115.085 
L 120.387864 -115.085 
L 120.61818 -115.085 
L 120.848496 -115.085 
L 121.078812 -115.085 
L 121.309128 -115.085 
L 121.539445 -115.085 
L 121.769761 -115.085 
L 122.000077 -115.085 
L 122.230393 -115.085 
L 122.460709 -115.085 
L 122.691025 -115.085 
L 122.921341 -115.085 
L 123.151657 -115.085 
L 123.381973 -115.085 
L 123.612289 -115.085 
L 123.842605 -115.085 
L 124.072921 -115.085 
L 124.303238 -115.085 
L 124.533554 -115.085 
L 124.76387 -115.085 
L 124.994186 -115.085 
L 125.224502 -115.085 
L 125.454818 -115.085 
L 125.685134 -115.085 
L 125.91545 -115.085 
L 126.145766 -115.085 
L 126.376082 -115.085 
L 126.606398 -115.085 
L 126.836714 -115.085 
L 127.067031 -115.085 
L 127.297347 -115.085 
L 127.527663 -115.085 
L 127.757979 -115.085 
L 127.988295 -115.085 
L 128.218611 -115.085 
L 128.448927 -115.085 
L 128.679243 -115.085 
L 128.909559 -115.085 
L 129.139875 -115.085 
L 129.370191 -115.085 
L 129.600507 -115.085 
L 129.830824 -115.085 
L 130.06114 -115.085 
L 130.291456 -115.085 
L 130.521772 -115.085 
L 130.752088 -115.085 
L 130.982404 -115.085 
L 131.21272 -115.085 
L 131.443036 -115.085 
L 131.673352 -115.085 
L 131.903668 -115.085 
L 132.133984 -115.085 
L 132.3643 -115.085 
L 132.594617 -115.085 
L 132.824933 -115.085 
L 133.055249 -115.085 
L 133.285565 -115.085 
L 133.515881 -115.085 
L 133.746197 -115.085 
L 133.976513 -115.085 
L 134.206829 -115.085 
L 134.437145 -115.085 
L 134.667461 -115.085 
L 134.897777 -115.085 
L 135.128093 -115.085 
L 135.35841 -115.085 
L 135.588726 -115.085 
L 135.819042 -115.085 
L 136.049358 -115.085 
L 136.279674 -115.085 
L 136.50999 -115.085 
L 136.740306 -115.085 
L 136.970622 -115.085 
L 137.200938 -115.085 
L 137.431254 -115.085 
L 137.66157 -115.085 
L 137.891887 -115.085 
L 138.122203 -115.085 
L 138.352519 -115.085 
L 138.582835 -115.085 
L 138.813151 -115.085 
L 139.043467 -115.085 
L 139.273783 -115.085 
L 139.504099 -115.085 
L 139.734415 -115.085 
L 139.964731 -115.085 
L 140.195047 -115.085 
L 140.425363 -115.085 
L 140.65568 -115.085 
L 140.885996 -115.085 
L 141.116312 -115.085 
L 141.346628 -115.085 
L 141.576944 -115.085 
L 141.80726 -115.085 
L 142.037576 -115.085 
L 142.267892 -115.085 
L 142.498208 -115.085 
L 142.728524 -115.085 
L 142.95884 -115.085 
L 143.189156 -115.085 
L 143.419473 -115.085 
L 143.649789 -115.085 
L 143.880105 -115.085 
L 144.110421 -115.085 
L 144.340737 -115.085 
L 144.571053 -115.085 
L 144.801369 -115.085 
L 145.031685 -115.085 
L 145.262001 -115.085 
L 145.492317 -115.085 
L 145.722633 -115.085 
L 145.952949 -115.085 
L 146.183266 -115.085 
L 146.413582 -115.085 
L 146.643898 -115.085 
L 146.874214 -115.085 
L 147.10453 -115.085 
L 147.334846 -115.085 
L 147.565162 -115.085 
L 147.795478 -115.085 
L 148.025794 -115.085 
L 148.25611 -115.085 
L 148.486426 -115.085 
L 148.716742 -115.085 
L 148.947059 -115.085 
L 149.177375 -115.085 
L 149.407691 -115.085 
L 149.638007 -115.085 
L 149.868323 -115.085 
L 150.098639 -115.085 
L 150.328955 -115.085 
L 150.559271 -115.085 
L 150.789587 -115.085 
L 151.019903 -115.085 
L 151.250219 -115.085 
L 151.480535 -115.085 
L 151.710852 -115.085 
L 151.941168 -115.085 
L 152.171484 -115.085 
L 152.4018 -115.085 
L 152.632116 -115.085 
L 152.862432 -115.085 
L 153.092748 -115.085 
L 153.323064 -115.085 
L 153.55338 -115.085 
L 153.783696 -115.085 
L 154.014012 -115.085 
L 154.244328 -115.085 
L 154.474645 -115.085 
L 154.704961 -115.085 
L 154.935277 -115.085 
L 155.165593 -115.085 
L 155.395909 -115.085 
L 155.626225 -115.085 
L 155.856541 -115.085 
L 156.086857 -115.085 
L 156.317173 -115.085 
L 156.547489 -115.085 
L 156.777805 -115.085 
L 156.777805 -120.191063 
L 156.777805 -120.191063 
L 156.547489 -120.745734 
L 156.317173 -121.335986 
L 156.086857 -121.960835 
L 155.856541 -122.618847 
L 155.626225 -123.308129 
L 155.395909 -124.026332 
L 155.165593 -124.770668 
L 154.935277 -125.537936 
L 154.704961 -126.324554 
L 154.474645 -127.126611 
L 154.244328 -127.939924 
L 154.014012 -128.760099 
L 153.783696 -129.582613 
L 153.55338 -130.402885 
L 153.323064 -131.216364 
L 153.092748 -132.018613 
L 152.862432 -132.805387 
L 152.632116 -133.572721 
L 152.4018 -134.316998 
L 152.171484 -135.035016 
L 151.941168 -135.724047 
L 151.710852 -136.38188 
L 151.480535 -137.006854 
L 151.250219 -137.59788 
L 151.019903 -138.154442 
L 150.789587 -138.676596 
L 150.559271 -139.164947 
L 150.328955 -139.62062 
L 150.098639 -140.04522 
L 149.868323 -140.440783 
L 149.638007 -140.809724 
L 149.407691 -141.154776 
L 149.177375 -141.478935 
L 148.947059 -141.785396 
L 148.716742 -142.077495 
L 148.486426 -142.358656 
L 148.25611 -142.632333 
L 148.025794 -142.901969 
L 147.795478 -143.170945 
L 147.565162 -143.442539 
L 147.334846 -143.719894 
L 147.10453 -144.005973 
L 146.874214 -144.303531 
L 146.643898 -144.615072 
L 146.413582 -144.942816 
L 146.183266 -145.288657 
L 145.952949 -145.654124 
L 145.722633 -146.040326 
L 145.492317 -146.447916 
L 145.262001 -146.87703 
L 145.031685 -147.327244 
L 144.801369 -147.797523 
L 144.571053 -148.286176 
L 144.340737 -148.790819 
L 144.110421 -149.30835 
L 143.880105 -149.834931 
L 143.649789 -150.365991 
L 143.419473 -150.896247 
L 143.189156 -151.419742 
L 142.95884 -151.929912 
L 142.728524 -152.419667 
L 142.498208 -152.881507 
L 142.267892 -153.307648 
L 142.037576 -153.690177 
L 141.80726 -154.021222 
L 141.576944 -154.293133 
L 141.346628 -154.498678 
L 141.116312 -154.631238 
L 140.885996 -154.685 
L 140.65568 -154.65515 
L 140.425363 -154.538042 
L 140.195047 -154.331357 
L 139.964731 -154.034233 
L 139.734415 -153.647365 
L 139.504099 -153.173075 
L 139.273783 -152.615341 
L 139.043467 -151.979792 
L 138.813151 -151.273662 
L 138.582835 -150.5057 
L 138.352519 -149.686051 
L 138.122203 -148.826091 
L 137.891887 -147.938235 
L 137.66157 -147.035719 
L 137.431254 -146.132351 
L 137.200938 -145.242248 
L 136.970622 -144.379564 
L 136.740306 -143.558207 
L 136.50999 -142.791559 
L 136.279674 -142.092201 
L 136.049358 -141.471654 
L 135.819042 -140.940132 
L 135.588726 -140.50633 
L 135.35841 -140.177227 
L 135.128093 -139.957933 
L 134.897777 -139.851565 
L 134.667461 -139.859166 
L 134.437145 -139.979667 
L 134.206829 -140.209882 
L 133.976513 -140.544558 
L 133.746197 -140.976459 
L 133.515881 -141.496495 
L 133.285565 -142.093886 
L 133.055249 -142.756367 
L 132.824933 -143.470421 
L 132.594617 -144.221542 
L 132.3643 -144.99452 
L 132.133984 -145.77374 
L 131.903668 -146.543497 
L 131.673352 -147.288309 
L 131.443036 -147.993231 
L 131.21272 -148.644155 
L 130.982404 -149.228094 
L 130.752088 -149.733444 
L 130.521772 -150.150213 
L 130.291456 -150.470218 
L 130.06114 -150.687235 
L 129.830824 -150.797114 
L 129.600507 -150.797839 
L 129.370191 -150.689542 
L 129.139875 -150.474472 
L 128.909559 -150.15691 
L 128.679243 -149.743044 
L 128.448927 -149.240801 
L 128.218611 -148.65964 
L 127.988295 -148.010314 
L 127.757979 -147.304609 
L 127.527663 -146.555062 
L 127.297347 -145.774673 
L 127.067031 -144.976609 
L 126.836714 -144.173913 
L 126.606398 -143.379233 
L 126.376082 -142.604558 
L 126.145766 -141.860987 
L 125.91545 -141.158526 
L 125.685134 -140.505922 
L 125.454818 -139.910525 
L 125.224502 -139.378206 
L 124.994186 -138.9133 
L 124.76387 -138.518595 
L 124.533554 -138.195365 
L 124.303238 -137.943424 
L 124.072921 -137.76123 
L 123.842605 -137.646002 
L 123.612289 -137.593866 
L 123.381973 -137.600019 
L 123.151657 -137.6589 
L 122.921341 -137.764371 
L 122.691025 -137.90989 
L 122.460709 -138.088691 
L 122.230393 -138.293939 
L 122.000077 -138.518879 
L 121.769761 -138.756967 
L 121.539445 -139.001972 
L 121.309128 -139.248063 
L 121.078812 -139.489871 
L 120.848496 -139.722523 
L 120.61818 -139.941662 
L 120.387864 -140.143439 
L 120.157548 -140.324491 
L 119.927232 -140.481903 
L 119.696916 -140.613165 
L 119.4666 -140.716111 
L 119.236284 -140.788865 
L 119.005968 -140.829781 
L 118.775652 -140.837393 
L 118.545335 -140.810366 
L 118.315019 -140.747462 
L 118.084703 -140.647512 
L 117.854387 -140.509406 
L 117.624071 -140.332091 
L 117.393755 -140.114586 
L 117.163439 -139.856009 
L 116.933123 -139.555603 
L 116.702807 -139.212788 
L 116.472491 -138.827201 
L 116.242175 -138.398748 
L 116.011859 -137.927654 
L 115.781542 -137.414506 
L 115.551226 -136.860291 
L 115.32091 -136.266431 
L 115.090594 -135.634795 
L 114.860278 -134.967713 
L 114.629962 -134.267969 
L 114.399646 -133.538777 
L 114.16933 -132.783756 
L 113.939014 -132.006879 
L 113.708698 -131.212422 
L 113.478382 -130.404898 
L 113.248065 -129.588984 
L 113.017749 -128.769443 
L 112.787433 -127.951049 
L 112.557117 -127.138505 
L 112.326801 -126.336367 
L 112.096485 -125.54897 
L 111.866169 -124.780367 
L 111.635853 -124.03427 
L 111.405537 -123.314001 
L 111.175221 -122.622457 
L 110.944905 -121.962084 
z
" style="stroke: #2a788e; stroke-width: 1.25"/>
    </defs>
    <g>
     <use xlink:href="#mb4cf28f558" x="0" y="174.26" style="fill: #2a788e; fill-opacity: 0.7; stroke: #2a788e; stroke-width: 1.25"/>
    </g>
   </g>
   <g id="line2d_2">
    <path d="M 7.2 59.175 
L 216.45 59.175 
" style="fill: none; stroke: #2a788e; stroke-opacity: 0.9; stroke-linecap: round"/>
   </g>
   <g id="text_2">
    <!-- 1 -->
    <g style="fill: #2a788e" transform="translate(7.2 58.257) scale(0.12 -0.12)">
     <defs>
      <path id="IBMPlexSans-Bold-31" d="M 602 0 
L 602 774 
L 1805 774 
L 1805 3770 
L 1747 3770 
L 838 2579 
L 224 3059 
L 1293 4467 
L 2765 4467 
L 2765 774 
L 3712 774 
L 3712 0 
L 602 0 
z
" transform="scale(0.015625)"/>
     </defs>
     <use xlink:href="#IBMPlexSans-Bold-31"/>
    </g>
   </g>
  </g>
  <g id="axes_3">
   <g id="patch_4">
    <path d="M 7.2 69.57 
L 216.45 69.57 
L 216.45 27.99 
L 7.2 27.99 
L 7.2 69.57 
z
" style="fill: none"/>
   </g>
   <g id="matplotlib.axis_5">
    <g id="xtick_9"/>
    <g id="xtick_10"/>
    <g id="xtick_11"/>
    <g id="xtick_12"/>
   </g>
   <g id="matplotlib.axis_6"/>
   <g id="FillBetweenPolyCollection_2">
    <defs>
     <path id="m93860fd890" d="M 80.042037 -107.364378 
L 80.042037 -104.69 
L 80.513998 -104.69 
L 80.985958 -104.69 
L 81.457919 -104.69 
L 81.929879 -104.69 
L 82.40184 -104.69 
L 82.8738 -104.69 
L 83.34576 -104.69 
L 83.817721 -104.69 
L 84.289681 -104.69 
L 84.761642 -104.69 
L 85.233602 -104.69 
L 85.705563 -104.69 
L 86.177523 -104.69 
L 86.649483 -104.69 
L 87.121444 -104.69 
L 87.593404 -104.69 
L 88.065365 -104.69 
L 88.537325 -104.69 
L 89.009286 -104.69 
L 89.481246 -104.69 
L 89.953207 -104.69 
L 90.425167 -104.69 
L 90.897127 -104.69 
L 91.369088 -104.69 
L 91.841048 -104.69 
L 92.313009 -104.69 
L 92.784969 -104.69 
L 93.25693 -104.69 
L 93.72889 -104.69 
L 94.200851 -104.69 
L 94.672811 -104.69 
L 95.144771 -104.69 
L 95.616732 -104.69 
L 96.088692 -104.69 
L 96.560653 -104.69 
L 97.032613 -104.69 
L 97.504574 -104.69 
L 97.976534 -104.69 
L 98.448495 -104.69 
L 98.920455 -104.69 
L 99.392415 -104.69 
L 99.864376 -104.69 
L 100.336336 -104.69 
L 100.808297 -104.69 
L 101.280257 -104.69 
L 101.752218 -104.69 
L 102.224178 -104.69 
L 102.696139 -104.69 
L 103.168099 -104.69 
L 103.640059 -104.69 
L 104.11202 -104.69 
L 104.58398 -104.69 
L 105.055941 -104.69 
L 105.527901 -104.69 
L 105.999862 -104.69 
L 106.471822 -104.69 
L 106.943783 -104.69 
L 107.415743 -104.69 
L 107.887703 -104.69 
L 108.359664 -104.69 
L 108.831624 -104.69 
L 109.303585 -104.69 
L 109.775545 -104.69 
L 110.247506 -104.69 
L 110.719466 -104.69 
L 111.191427 -104.69 
L 111.663387 -104.69 
L 112.135347 -104.69 
L 112.607308 -104.69 
L 113.079268 -104.69 
L 113.551229 -104.69 
L 114.023189 -104.69 
L 114.49515 -104.69 
L 114.96711 -104.69 
L 115.439071 -104.69 
L 115.911031 -104.69 
L 116.382991 -104.69 
L 116.854952 -104.69 
L 117.326912 -104.69 
L 117.798873 -104.69 
L 118.270833 -104.69 
L 118.742794 -104.69 
L 119.214754 -104.69 
L 119.686715 -104.69 
L 120.158675 -104.69 
L 120.630635 -104.69 
L 121.102596 -104.69 
L 121.574556 -104.69 
L 122.046517 -104.69 
L 122.518477 -104.69 
L 122.990438 -104.69 
L 123.462398 -104.69 
L 123.934359 -104.69 
L 124.406319 -104.69 
L 124.878279 -104.69 
L 125.35024 -104.69 
L 125.8222 -104.69 
L 126.294161 -104.69 
L 126.766121 -104.69 
L 127.238082 -104.69 
L 127.710042 -104.69 
L 128.182003 -104.69 
L 128.653963 -104.69 
L 129.125923 -104.69 
L 129.597884 -104.69 
L 130.069844 -104.69 
L 130.541805 -104.69 
L 131.013765 -104.69 
L 131.485726 -104.69 
L 131.957686 -104.69 
L 132.429646 -104.69 
L 132.901607 -104.69 
L 133.373567 -104.69 
L 133.845528 -104.69 
L 134.317488 -104.69 
L 134.789449 -104.69 
L 135.261409 -104.69 
L 135.73337 -104.69 
L 136.20533 -104.69 
L 136.67729 -104.69 
L 137.149251 -104.69 
L 137.621211 -104.69 
L 138.093172 -104.69 
L 138.565132 -104.69 
L 139.037093 -104.69 
L 139.509053 -104.69 
L 139.981014 -104.69 
L 140.452974 -104.69 
L 140.924934 -104.69 
L 141.396895 -104.69 
L 141.868855 -104.69 
L 142.340816 -104.69 
L 142.812776 -104.69 
L 143.284737 -104.69 
L 143.756697 -104.69 
L 144.228658 -104.69 
L 144.700618 -104.69 
L 145.172578 -104.69 
L 145.644539 -104.69 
L 146.116499 -104.69 
L 146.58846 -104.69 
L 147.06042 -104.69 
L 147.532381 -104.69 
L 148.004341 -104.69 
L 148.476302 -104.69 
L 148.948262 -104.69 
L 149.420222 -104.69 
L 149.892183 -104.69 
L 150.364143 -104.69 
L 150.836104 -104.69 
L 151.308064 -104.69 
L 151.780025 -104.69 
L 152.251985 -104.69 
L 152.723946 -104.69 
L 153.195906 -104.69 
L 153.667866 -104.69 
L 154.139827 -104.69 
L 154.611787 -104.69 
L 155.083748 -104.69 
L 155.555708 -104.69 
L 156.027669 -104.69 
L 156.499629 -104.69 
L 156.97159 -104.69 
L 157.44355 -104.69 
L 157.91551 -104.69 
L 158.387471 -104.69 
L 158.859431 -104.69 
L 159.331392 -104.69 
L 159.803352 -104.69 
L 160.275313 -104.69 
L 160.747273 -104.69 
L 161.219234 -104.69 
L 161.691194 -104.69 
L 162.163154 -104.69 
L 162.635115 -104.69 
L 163.107075 -104.69 
L 163.579036 -104.69 
L 164.050996 -104.69 
L 164.522957 -104.69 
L 164.994917 -104.69 
L 165.466878 -104.69 
L 165.938838 -104.69 
L 166.410798 -104.69 
L 166.882759 -104.69 
L 167.354719 -104.69 
L 167.82668 -104.69 
L 168.29864 -104.69 
L 168.770601 -104.69 
L 169.242561 -104.69 
L 169.714522 -104.69 
L 170.186482 -104.69 
L 170.658442 -104.69 
L 171.130403 -104.69 
L 171.602363 -104.69 
L 172.074324 -104.69 
L 172.546284 -104.69 
L 173.018245 -104.69 
L 173.490205 -104.69 
L 173.962166 -104.69 
L 173.962166 -106.574126 
L 173.962166 -106.574126 
L 173.490205 -106.800706 
L 173.018245 -107.045113 
L 172.546284 -107.307418 
L 172.074324 -107.587499 
L 171.602363 -107.885031 
L 171.130403 -108.199474 
L 170.658442 -108.530072 
L 170.186482 -108.875845 
L 169.714522 -109.235599 
L 169.242561 -109.607932 
L 168.770601 -109.991246 
L 168.29864 -110.383771 
L 167.82668 -110.783586 
L 167.354719 -111.188648 
L 166.882759 -111.596826 
L 166.410798 -112.005937 
L 165.938838 -112.413786 
L 165.466878 -112.8182 
L 164.994917 -113.217078 
L 164.522957 -113.60842 
L 164.050996 -113.990375 
L 163.579036 -114.361268 
L 163.107075 -114.719635 
L 162.635115 -115.064249 
L 162.163154 -115.394142 
L 161.691194 -115.708616 
L 161.219234 -116.007259 
L 160.747273 -116.289941 
L 160.275313 -116.556816 
L 159.803352 -116.808308 
L 159.331392 -117.045101 
L 158.859431 -117.268116 
L 158.387471 -117.478487 
L 157.91551 -117.677536 
L 157.44355 -117.866744 
L 156.97159 -118.047715 
L 156.499629 -118.222148 
L 156.027669 -118.391799 
L 155.555708 -118.558453 
L 155.083748 -118.723887 
L 154.611787 -118.889838 
L 154.139827 -119.057973 
L 153.667866 -119.22986 
L 153.195906 -119.406932 
L 152.723946 -119.590467 
L 152.251985 -119.781553 
L 151.780025 -119.981065 
L 151.308064 -120.189639 
L 150.836104 -120.407643 
L 150.364143 -120.635162 
L 149.892183 -120.871969 
L 149.420222 -121.117512 
L 148.948262 -121.370896 
L 148.476302 -121.630877 
L 148.004341 -121.895851 
L 147.532381 -122.163862 
L 147.06042 -122.432608 
L 146.58846 -122.699457 
L 146.116499 -122.961477 
L 145.644539 -123.215467 
L 145.172578 -123.458009 
L 144.700618 -123.685516 
L 144.228658 -123.894301 
L 143.756697 -124.08065 
L 143.284737 -124.240898 
L 142.812776 -124.371518 
L 142.340816 -124.469209 
L 141.868855 -124.530984 
L 141.396895 -124.554262 
L 140.924934 -124.536952 
L 140.452974 -124.477531 
L 139.981014 -124.375119 
L 139.509053 -124.229532 
L 139.037093 -124.041331 
L 138.565132 -123.811851 
L 138.093172 -123.543216 
L 137.621211 -123.238331 
L 137.149251 -122.90086 
L 136.67729 -122.535181 
L 136.20533 -122.14633 
L 135.73337 -121.739917 
L 135.261409 -121.322034 
L 134.789449 -120.899147 
L 134.317488 -120.477971 
L 133.845528 -120.065347 
L 133.373567 -119.668095 
L 132.901607 -119.292883 
L 132.429646 -118.946081 
L 131.957686 -118.633628 
L 131.485726 -118.360893 
L 131.013765 -118.132563 
L 130.541805 -117.952524 
L 130.069844 -117.823772 
L 129.597884 -117.748335 
L 129.125923 -117.727214 
L 128.653963 -117.760347 
L 128.182003 -117.846596 
L 127.710042 -117.983753 
L 127.238082 -118.168578 
L 126.766121 -118.396852 
L 126.294161 -118.663452 
L 125.8222 -118.962458 
L 125.35024 -119.287263 
L 124.878279 -119.630713 
L 124.406319 -119.985255 
L 123.934359 -120.343092 
L 123.462398 -120.696356 
L 122.990438 -121.037269 
L 122.518477 -121.358319 
L 122.046517 -121.652415 
L 121.574556 -121.913044 
L 121.102596 -122.134411 
L 120.630635 -122.311563 
L 120.158675 -122.44049 
L 119.686715 -122.518209 
L 119.214754 -122.542818 
L 118.742794 -122.513527 
L 118.270833 -122.430662 
L 117.798873 -122.29564 
L 117.326912 -122.110921 
L 116.854952 -121.879934 
L 116.382991 -121.606978 
L 115.911031 -121.29711 
L 115.439071 -120.956013 
L 114.96711 -120.589847 
L 114.49515 -120.205105 
L 114.023189 -119.808447 
L 113.551229 -119.406553 
L 113.079268 -119.005964 
L 112.607308 -118.612945 
L 112.135347 -118.233348 
L 111.663387 -117.872503 
L 111.191427 -117.535113 
L 110.719466 -117.225182 
L 110.247506 -116.945956 
L 109.775545 -116.699885 
L 109.303585 -116.488617 
L 108.831624 -116.313 
L 108.359664 -116.173114 
L 107.887703 -116.068316 
L 107.415743 -115.997301 
L 106.943783 -115.958182 
L 106.471822 -115.948569 
L 105.999862 -115.965664 
L 105.527901 -116.006358 
L 105.055941 -116.067324 
L 104.58398 -116.145111 
L 104.11202 -116.236231 
L 103.640059 -116.33724 
L 103.168099 -116.444807 
L 102.696139 -116.555773 
L 102.224178 -116.667194 
L 101.752218 -116.776377 
L 101.280257 -116.880898 
L 100.808297 -116.978611 
L 100.336336 -117.067642 
L 99.864376 -117.146379 
L 99.392415 -117.213449 
L 98.920455 -117.267687 
L 98.448495 -117.308112 
L 97.976534 -117.333885 
L 97.504574 -117.344284 
L 97.032613 -117.338669 
L 96.560653 -117.316454 
L 96.088692 -117.277091 
L 95.616732 -117.220049 
L 95.144771 -117.144812 
L 94.672811 -117.050874 
L 94.200851 -116.937748 
L 93.72889 -116.80498 
L 93.25693 -116.652164 
L 92.784969 -116.478969 
L 92.313009 -116.285163 
L 91.841048 -116.070642 
L 91.369088 -115.835456 
L 90.897127 -115.579836 
L 90.425167 -115.304214 
L 89.953207 -115.009243 
L 89.481246 -114.695806 
L 89.009286 -114.365026 
L 88.537325 -114.018257 
L 88.065365 -113.657082 
L 87.593404 -113.283293 
L 87.121444 -112.898869 
L 86.649483 -112.505945 
L 86.177523 -112.106784 
L 85.705563 -111.703731 
L 85.233602 -111.299181 
L 84.761642 -110.895532 
L 84.289681 -110.495145 
L 83.817721 -110.100305 
L 83.34576 -109.713183 
L 82.8738 -109.335801 
L 82.40184 -108.970004 
L 81.929879 -108.617436 
L 81.457919 -108.279519 
L 80.985958 -107.957443 
L 80.513998 -107.65216 
L 80.042037 -107.364378 
z
" style="stroke: #355f8d; stroke-width: 1.25"/>
    </defs>
    <g>
     <use xlink:href="#m93860fd890" x="0" y="174.26" style="fill: #355f8d; fill-opacity: 0.7; stroke: #355f8d; stroke-width: 1.25"/>
    </g>
   </g>
   <g id="line2d_3">
    <path d="M 7.2 69.57 
L 216.45 69.57 
" style="fill: none; stroke: #355f8d; stroke-opacity: 0.9; stroke-linecap: round"/>
   </g>
   <g id="text_3">
    <!-- 2 -->
    <g style="fill: #355f8d" transform="translate(7.2 68.652) scale(0.12 -0.12)">
     <defs>
      <path id="IBMPlexSans-Bold-32" d="M 3526 0 
L 365 0 
L 365 877 
L 1741 2054 
Q 1926 2214 2054 2345 
Q 2182 2477 2262 2601 
Q 2342 2726 2377 2848 
Q 2413 2970 2413 3110 
L 2413 3200 
Q 2413 3328 2361 3424 
Q 2310 3520 2227 3584 
Q 2144 3648 2038 3680 
Q 1933 3712 1824 3712 
Q 1664 3712 1545 3661 
Q 1427 3610 1340 3523 
Q 1254 3437 1196 3325 
Q 1139 3213 1107 3085 
L 269 3405 
Q 346 3635 480 3843 
Q 614 4051 816 4208 
Q 1018 4365 1293 4454 
Q 1568 4544 1914 4544 
Q 2278 4544 2560 4441 
Q 2842 4339 3037 4160 
Q 3232 3981 3334 3734 
Q 3437 3488 3437 3200 
Q 3437 2912 3341 2675 
Q 3245 2438 3081 2230 
Q 2918 2022 2700 1836 
Q 2483 1651 2246 1459 
L 1414 806 
L 3526 806 
L 3526 0 
z
" transform="scale(0.015625)"/>
     </defs>
     <use xlink:href="#IBMPlexSans-Bold-32"/>
    </g>
   </g>
  </g>
  <g id="axes_4">
   <g id="patch_5">
    <path d="M 7.2 79.965 
L 216.45 79.965 
L 216.45 38.385 
L 7.2 38.385 
L 7.2 79.965 
z
" style="fill: none"/>
   </g>
   <g id="matplotlib.axis_7">
    <g id="xtick_13"/>
    <g id="xtick_14"/>
    <g id="xtick_15"/>
    <g id="xtick_16"/>
   </g>
   <g id="matplotlib.axis_8"/>
   <g id="FillBetweenPolyCollection_3">
    <defs>
     <path id="mb8a29f6753" d="M 48.789294 -95.818827 
L 48.789294 -94.295 
L 49.499417 -94.295 
L 50.20954 -94.295 
L 50.919663 -94.295 
L 51.629787 -94.295 
L 52.33991 -94.295 
L 53.050033 -94.295 
L 53.760156 -94.295 
L 54.47028 -94.295 
L 55.180403 -94.295 
L 55.890526 -94.295 
L 56.600649 -94.295 
L 57.310773 -94.295 
L 58.020896 -94.295 
L 58.731019 -94.295 
L 59.441142 -94.295 
L 60.151266 -94.295 
L 60.861389 -94.295 
L 61.571512 -94.295 
L 62.281636 -94.295 
L 62.991759 -94.295 
L 63.701882 -94.295 
L 64.412005 -94.295 
L 65.122129 -94.295 
L 65.832252 -94.295 
L 66.542375 -94.295 
L 67.252498 -94.295 
L 67.962622 -94.295 
L 68.672745 -94.295 
L 69.382868 -94.295 
L 70.092991 -94.295 
L 70.803115 -94.295 
L 71.513238 -94.295 
L 72.223361 -94.295 
L 72.933484 -94.295 
L 73.643608 -94.295 
L 74.353731 -94.295 
L 75.063854 -94.295 
L 75.773977 -94.295 
L 76.484101 -94.295 
L 77.194224 -94.295 
L 77.904347 -94.295 
L 78.61447 -94.295 
L 79.324594 -94.295 
L 80.034717 -94.295 
L 80.74484 -94.295 
L 81.454963 -94.295 
L 82.165087 -94.295 
L 82.87521 -94.295 
L 83.585333 -94.295 
L 84.295457 -94.295 
L 85.00558 -94.295 
L 85.715703 -94.295 
L 86.425826 -94.295 
L 87.13595 -94.295 
L 87.846073 -94.295 
L 88.556196 -94.295 
L 89.266319 -94.295 
L 89.976443 -94.295 
L 90.686566 -94.295 
L 91.396689 -94.295 
L 92.106812 -94.295 
L 92.816936 -94.295 
L 93.527059 -94.295 
L 94.237182 -94.295 
L 94.947305 -94.295 
L 95.657429 -94.295 
L 96.367552 -94.295 
L 97.077675 -94.295 
L 97.787798 -94.295 
L 98.497922 -94.295 
L 99.208045 -94.295 
L 99.918168 -94.295 
L 100.628291 -94.295 
L 101.338415 -94.295 
L 102.048538 -94.295 
L 102.758661 -94.295 
L 103.468785 -94.295 
L 104.178908 -94.295 
L 104.889031 -94.295 
L 105.599154 -94.295 
L 106.309278 -94.295 
L 107.019401 -94.295 
L 107.729524 -94.295 
L 108.439647 -94.295 
L 109.149771 -94.295 
L 109.859894 -94.295 
L 110.570017 -94.295 
L 111.28014 -94.295 
L 111.990264 -94.295 
L 112.700387 -94.295 
L 113.41051 -94.295 
L 114.120633 -94.295 
L 114.830757 -94.295 
L 115.54088 -94.295 
L 116.251003 -94.295 
L 116.961126 -94.295 
L 117.67125 -94.295 
L 118.381373 -94.295 
L 119.091496 -94.295 
L 119.801619 -94.295 
L 120.511743 -94.295 
L 121.221866 -94.295 
L 121.931989 -94.295 
L 122.642113 -94.295 
L 123.352236 -94.295 
L 124.062359 -94.295 
L 124.772482 -94.295 
L 125.482606 -94.295 
L 126.192729 -94.295 
L 126.902852 -94.295 
L 127.612975 -94.295 
L 128.323099 -94.295 
L 129.033222 -94.295 
L 129.743345 -94.295 
L 130.453468 -94.295 
L 131.163592 -94.295 
L 131.873715 -94.295 
L 132.583838 -94.295 
L 133.293961 -94.295 
L 134.004085 -94.295 
L 134.714208 -94.295 
L 135.424331 -94.295 
L 136.134454 -94.295 
L 136.844578 -94.295 
L 137.554701 -94.295 
L 138.264824 -94.295 
L 138.974947 -94.295 
L 139.685071 -94.295 
L 140.395194 -94.295 
L 141.105317 -94.295 
L 141.815441 -94.295 
L 142.525564 -94.295 
L 143.235687 -94.295 
L 143.94581 -94.295 
L 144.655934 -94.295 
L 145.366057 -94.295 
L 146.07618 -94.295 
L 146.786303 -94.295 
L 147.496427 -94.295 
L 148.20655 -94.295 
L 148.916673 -94.295 
L 149.626796 -94.295 
L 150.33692 -94.295 
L 151.047043 -94.295 
L 151.757166 -94.295 
L 152.467289 -94.295 
L 153.177413 -94.295 
L 153.887536 -94.295 
L 154.597659 -94.295 
L 155.307782 -94.295 
L 156.017906 -94.295 
L 156.728029 -94.295 
L 157.438152 -94.295 
L 158.148275 -94.295 
L 158.858399 -94.295 
L 159.568522 -94.295 
L 160.278645 -94.295 
L 160.988769 -94.295 
L 161.698892 -94.295 
L 162.409015 -94.295 
L 163.119138 -94.295 
L 163.829262 -94.295 
L 164.539385 -94.295 
L 165.249508 -94.295 
L 165.959631 -94.295 
L 166.669755 -94.295 
L 167.379878 -94.295 
L 168.090001 -94.295 
L 168.800124 -94.295 
L 169.510248 -94.295 
L 170.220371 -94.295 
L 170.930494 -94.295 
L 171.640617 -94.295 
L 172.350741 -94.295 
L 173.060864 -94.295 
L 173.770987 -94.295 
L 174.48111 -94.295 
L 175.191234 -94.295 
L 175.901357 -94.295 
L 176.61148 -94.295 
L 177.321603 -94.295 
L 178.031727 -94.295 
L 178.74185 -94.295 
L 179.451973 -94.295 
L 180.162096 -94.295 
L 180.87222 -94.295 
L 181.582343 -94.295 
L 182.292466 -94.295 
L 183.00259 -94.295 
L 183.712713 -94.295 
L 184.422836 -94.295 
L 185.132959 -94.295 
L 185.843083 -94.295 
L 186.553206 -94.295 
L 187.263329 -94.295 
L 187.973452 -94.295 
L 188.683576 -94.295 
L 189.393699 -94.295 
L 190.103822 -94.295 
L 190.103822 -95.721502 
L 190.103822 -95.721502 
L 189.393699 -95.881591 
L 188.683576 -96.052776 
L 187.973452 -96.234918 
L 187.263329 -96.427754 
L 186.553206 -96.630892 
L 185.843083 -96.843815 
L 185.132959 -97.065872 
L 184.422836 -97.296293 
L 183.712713 -97.534188 
L 183.00259 -97.778561 
L 182.292466 -98.02832 
L 181.582343 -98.282296 
L 180.87222 -98.539256 
L 180.162096 -98.797926 
L 179.451973 -99.05701 
L 178.74185 -99.315215 
L 178.031727 -99.571271 
L 177.321603 -99.823954 
L 176.61148 -100.07211 
L 175.901357 -100.314674 
L 175.191234 -100.55069 
L 174.48111 -100.779327 
L 173.770987 -100.999895 
L 173.060864 -101.211856 
L 172.350741 -101.41483 
L 171.640617 -101.608605 
L 170.930494 -101.793132 
L 170.220371 -101.968529 
L 169.510248 -102.135072 
L 168.800124 -102.293192 
L 168.090001 -102.443457 
L 167.379878 -102.586566 
L 166.669755 -102.723331 
L 165.959631 -102.854659 
L 165.249508 -102.981537 
L 164.539385 -103.10501 
L 163.829262 -103.226161 
L 163.119138 -103.346092 
L 162.409015 -103.465902 
L 161.698892 -103.586667 
L 160.988769 -103.709418 
L 160.278645 -103.835118 
L 159.568522 -103.964647 
L 158.858399 -104.098775 
L 158.148275 -104.238148 
L 157.438152 -104.383263 
L 156.728029 -104.534456 
L 156.017906 -104.691879 
L 155.307782 -104.855489 
L 154.597659 -105.025033 
L 153.887536 -105.200037 
L 153.177413 -105.379799 
L 152.467289 -105.563381 
L 151.757166 -105.749618 
L 151.047043 -105.937113 
L 150.33692 -106.124252 
L 149.626796 -106.309221 
L 148.916673 -106.490024 
L 148.20655 -106.664512 
L 147.496427 -106.83042 
L 146.786303 -106.985398 
L 146.07618 -107.127066 
L 145.366057 -107.253053 
L 144.655934 -107.361057 
L 143.94581 -107.448894 
L 143.235687 -107.51456 
L 142.525564 -107.55628 
L 141.815441 -107.572568 
L 141.105317 -107.562275 
L 140.395194 -107.524634 
L 139.685071 -107.459301 
L 138.974947 -107.366387 
L 138.264824 -107.246477 
L 137.554701 -107.100649 
L 136.844578 -106.93047 
L 136.134454 -106.737988 
L 135.424331 -106.525714 
L 134.714208 -106.296584 
L 134.004085 -106.053919 
L 133.293961 -105.80137 
L 132.583838 -105.542855 
L 131.873715 -105.282486 
L 131.163592 -105.024489 
L 130.453468 -104.773126 
L 129.743345 -104.532604 
L 129.033222 -104.306987 
L 128.323099 -104.100113 
L 127.612975 -103.915506 
L 126.902852 -103.756298 
L 126.192729 -103.625159 
L 125.482606 -103.524228 
L 124.772482 -103.455067 
L 124.062359 -103.418612 
L 123.352236 -103.415151 
L 122.642113 -103.444304 
L 121.931989 -103.505024 
L 121.221866 -103.595614 
L 120.511743 -103.713755 
L 119.801619 -103.856546 
L 119.091496 -104.020565 
L 118.381373 -104.201939 
L 117.67125 -104.396421 
L 116.961126 -104.59948 
L 116.251003 -104.806401 
L 115.54088 -105.012384 
L 114.830757 -105.212649 
L 114.120633 -105.402538 
L 113.41051 -105.577622 
L 112.700387 -105.73379 
L 111.990264 -105.867346 
L 111.28014 -105.975083 
L 110.570017 -106.05435 
L 109.859894 -106.103111 
L 109.149771 -106.119977 
L 108.439647 -106.104236 
L 107.729524 -106.055857 
L 107.019401 -105.975477 
L 106.309278 -105.864382 
L 105.599154 -105.724462 
L 104.889031 -105.558158 
L 104.178908 -105.368393 
L 103.468785 -105.1585 
L 102.758661 -104.932129 
L 102.048538 -104.693162 
L 101.338415 -104.445618 
L 100.628291 -104.193555 
L 99.918168 -103.940982 
L 99.208045 -103.691765 
L 98.497922 -103.449553 
L 97.787798 -103.217697 
L 97.077675 -102.999193 
L 96.367552 -102.796626 
L 95.657429 -102.612139 
L 94.947305 -102.447397 
L 94.237182 -102.303583 
L 93.527059 -102.181398 
L 92.816936 -102.081067 
L 92.106812 -102.002371 
L 91.396689 -101.944676 
L 90.686566 -101.906979 
L 89.976443 -101.887951 
L 89.266319 -101.885998 
L 88.556196 -101.899313 
L 87.846073 -101.925932 
L 87.13595 -101.963794 
L 86.425826 -102.010792 
L 85.715703 -102.064824 
L 85.00558 -102.123835 
L 84.295457 -102.185854 
L 83.585333 -102.249027 
L 82.87521 -102.311638 
L 82.165087 -102.37212 
L 81.454963 -102.429071 
L 80.74484 -102.481247 
L 80.034717 -102.52756 
L 79.324594 -102.567068 
L 78.61447 -102.598958 
L 77.904347 -102.622533 
L 77.194224 -102.63719 
L 76.484101 -102.642401 
L 75.773977 -102.637699 
L 75.063854 -102.622659 
L 74.353731 -102.596886 
L 73.643608 -102.560005 
L 72.933484 -102.511656 
L 72.223361 -102.451495 
L 71.513238 -102.379193 
L 70.803115 -102.294445 
L 70.092991 -102.196982 
L 69.382868 -102.086578 
L 68.672745 -101.963073 
L 67.962622 -101.826382 
L 67.252498 -101.676515 
L 66.542375 -101.513592 
L 65.832252 -101.337853 
L 65.122129 -101.149674 
L 64.412005 -100.949571 
L 63.701882 -100.738207 
L 62.991759 -100.516389 
L 62.281636 -100.285066 
L 61.571512 -100.04532 
L 60.861389 -99.798352 
L 60.151266 -99.545469 
L 59.441142 -99.288059 
L 58.731019 -99.027576 
L 58.020896 -98.765511 
L 57.310773 -98.503367 
L 56.600649 -98.242638 
L 55.890526 -97.984781 
L 55.180403 -97.731193 
L 54.47028 -97.483188 
L 53.760156 -97.241982 
L 53.050033 -97.008674 
L 52.33991 -96.78423 
L 51.629787 -96.569479 
L 50.919663 -96.365103 
L 50.20954 -96.171636 
L 49.499417 -95.989463 
L 48.789294 -95.818827 
z
" style="stroke: #414487; stroke-width: 1.25"/>
    </defs>
    <g>
     <use xlink:href="#mb8a29f6753" x="0" y="174.26" style="fill: #414487; fill-opacity: 0.7; stroke: #414487; stroke-width: 1.25"/>
    </g>
   </g>
   <g id="line2d_4">
    <path d="M 7.2 79.965 
L 216.45 79.965 
" style="fill: none; stroke: #414487; stroke-opacity: 0.9; stroke-linecap: round"/>
   </g>
   <g id="text_4">
    <!-- 3 -->
    <g style="fill: #414487" transform="translate(7.2 79.047) scale(0.12 -0.12)">
     <defs>
      <path id="IBMPlexSans-Bold-33" d="M 1677 2701 
Q 2035 2701 2198 2838 
Q 2362 2976 2362 3181 
L 2362 3226 
Q 2362 3469 2205 3616 
Q 2048 3763 1760 3763 
Q 1491 3763 1254 3625 
Q 1018 3488 851 3232 
L 250 3795 
Q 378 3962 525 4099 
Q 672 4237 857 4336 
Q 1043 4435 1273 4489 
Q 1504 4544 1792 4544 
Q 2150 4544 2441 4461 
Q 2733 4378 2941 4221 
Q 3149 4064 3261 3846 
Q 3373 3629 3373 3360 
Q 3373 3149 3305 2976 
Q 3238 2803 3120 2675 
Q 3002 2547 2848 2467 
Q 2694 2387 2522 2355 
L 2522 2317 
Q 2720 2278 2889 2192 
Q 3059 2106 3184 1971 
Q 3309 1837 3379 1654 
Q 3450 1472 3450 1242 
Q 3450 941 3328 697 
Q 3206 454 2982 281 
Q 2758 109 2444 16 
Q 2131 -77 1754 -77 
Q 1414 -77 1152 -6 
Q 890 64 694 182 
Q 499 301 355 454 
Q 211 608 102 781 
L 813 1331 
Q 960 1056 1174 880 
Q 1389 704 1754 704 
Q 2080 704 2262 867 
Q 2445 1030 2445 1312 
L 2445 1350 
Q 2445 1626 2237 1763 
Q 2029 1901 1664 1901 
L 1261 1901 
L 1261 2701 
L 1677 2701 
z
" transform="scale(0.015625)"/>
     </defs>
     <use xlink:href="#IBMPlexSans-Bold-33"/>
    </g>
   </g>
  </g>
  <g id="axes_5">
   <g id="patch_6">
    <path d="M 7.2 90.36 
L 216.45 90.36 
L 216.45 48.78 
L 7.2 48.78 
L 7.2 90.36 
z
" style="fill: none"/>
   </g>
   <g id="matplotlib.axis_9">
    <g id="xtick_17"/>
    <g id="xtick_18"/>
    <g id="xtick_19"/>
    <g id="xtick_20"/>
   </g>
   <g id="matplotlib.axis_10"/>
   <g id="FillBetweenPolyCollection_4">
    <defs>
     <path id="m156a7dc988" d="M 16.711364 -84.822741 
L 16.711364 -83.9 
L 17.66728 -83.9 
L 18.623196 -83.9 
L 19.579111 -83.9 
L 20.535027 -83.9 
L 21.490943 -83.9 
L 22.446859 -83.9 
L 23.402775 -83.9 
L 24.358691 -83.9 
L 25.314607 -83.9 
L 26.270523 -83.9 
L 27.226439 -83.9 
L 28.182355 -83.9 
L 29.138271 -83.9 
L 30.094187 -83.9 
L 31.050103 -83.9 
L 32.006019 -83.9 
L 32.961935 -83.9 
L 33.917851 -83.9 
L 34.873767 -83.9 
L 35.829683 -83.9 
L 36.785598 -83.9 
L 37.741514 -83.9 
L 38.69743 -83.9 
L 39.653346 -83.9 
L 40.609262 -83.9 
L 41.565178 -83.9 
L 42.521094 -83.9 
L 43.47701 -83.9 
L 44.432926 -83.9 
L 45.388842 -83.9 
L 46.344758 -83.9 
L 47.300674 -83.9 
L 48.25659 -83.9 
L 49.212506 -83.9 
L 50.168422 -83.9 
L 51.124338 -83.9 
L 52.080254 -83.9 
L 53.036169 -83.9 
L 53.992085 -83.9 
L 54.948001 -83.9 
L 55.903917 -83.9 
L 56.859833 -83.9 
L 57.815749 -83.9 
L 58.771665 -83.9 
L 59.727581 -83.9 
L 60.683497 -83.9 
L 61.639413 -83.9 
L 62.595329 -83.9 
L 63.551245 -83.9 
L 64.507161 -83.9 
L 65.463077 -83.9 
L 66.418993 -83.9 
L 67.374909 -83.9 
L 68.330825 -83.9 
L 69.286741 -83.9 
L 70.242656 -83.9 
L 71.198572 -83.9 
L 72.154488 -83.9 
L 73.110404 -83.9 
L 74.06632 -83.9 
L 75.022236 -83.9 
L 75.978152 -83.9 
L 76.934068 -83.9 
L 77.889984 -83.9 
L 78.8459 -83.9 
L 79.801816 -83.9 
L 80.757732 -83.9 
L 81.713648 -83.9 
L 82.669564 -83.9 
L 83.62548 -83.9 
L 84.581396 -83.9 
L 85.537312 -83.9 
L 86.493228 -83.9 
L 87.449143 -83.9 
L 88.405059 -83.9 
L 89.360975 -83.9 
L 90.316891 -83.9 
L 91.272807 -83.9 
L 92.228723 -83.9 
L 93.184639 -83.9 
L 94.140555 -83.9 
L 95.096471 -83.9 
L 96.052387 -83.9 
L 97.008303 -83.9 
L 97.964219 -83.9 
L 98.920135 -83.9 
L 99.876051 -83.9 
L 100.831967 -83.9 
L 101.787883 -83.9 
L 102.743799 -83.9 
L 103.699714 -83.9 
L 104.65563 -83.9 
L 105.611546 -83.9 
L 106.567462 -83.9 
L 107.523378 -83.9 
L 108.479294 -83.9 
L 109.43521 -83.9 
L 110.391126 -83.9 
L 111.347042 -83.9 
L 112.302958 -83.9 
L 113.258874 -83.9 
L 114.21479 -83.9 
L 115.170706 -83.9 
L 116.126622 -83.9 
L 117.082538 -83.9 
L 118.038454 -83.9 
L 118.99437 -83.9 
L 119.950286 -83.9 
L 120.906201 -83.9 
L 121.862117 -83.9 
L 122.818033 -83.9 
L 123.773949 -83.9 
L 124.729865 -83.9 
L 125.685781 -83.9 
L 126.641697 -83.9 
L 127.597613 -83.9 
L 128.553529 -83.9 
L 129.509445 -83.9 
L 130.465361 -83.9 
L 131.421277 -83.9 
L 132.377193 -83.9 
L 133.333109 -83.9 
L 134.289025 -83.9 
L 135.244941 -83.9 
L 136.200857 -83.9 
L 137.156772 -83.9 
L 138.112688 -83.9 
L 139.068604 -83.9 
L 140.02452 -83.9 
L 140.980436 -83.9 
L 141.936352 -83.9 
L 142.892268 -83.9 
L 143.848184 -83.9 
L 144.8041 -83.9 
L 145.760016 -83.9 
L 146.715932 -83.9 
L 147.671848 -83.9 
L 148.627764 -83.9 
L 149.58368 -83.9 
L 150.539596 -83.9 
L 151.495512 -83.9 
L 152.451428 -83.9 
L 153.407344 -83.9 
L 154.363259 -83.9 
L 155.319175 -83.9 
L 156.275091 -83.9 
L 157.231007 -83.9 
L 158.186923 -83.9 
L 159.142839 -83.9 
L 160.098755 -83.9 
L 161.054671 -83.9 
L 162.010587 -83.9 
L 162.966503 -83.9 
L 163.922419 -83.9 
L 164.878335 -83.9 
L 165.834251 -83.9 
L 166.790167 -83.9 
L 167.746083 -83.9 
L 168.701999 -83.9 
L 169.657915 -83.9 
L 170.613831 -83.9 
L 171.569746 -83.9 
L 172.525662 -83.9 
L 173.481578 -83.9 
L 174.437494 -83.9 
L 175.39341 -83.9 
L 176.349326 -83.9 
L 177.305242 -83.9 
L 178.261158 -83.9 
L 179.217074 -83.9 
L 180.17299 -83.9 
L 181.128906 -83.9 
L 182.084822 -83.9 
L 183.040738 -83.9 
L 183.996654 -83.9 
L 184.95257 -83.9 
L 185.908486 -83.9 
L 186.864402 -83.9 
L 187.820317 -83.9 
L 188.776233 -83.9 
L 189.732149 -83.9 
L 190.688065 -83.9 
L 191.643981 -83.9 
L 192.599897 -83.9 
L 193.555813 -83.9 
L 194.511729 -83.9 
L 195.467645 -83.9 
L 196.423561 -83.9 
L 197.379477 -83.9 
L 198.335393 -83.9 
L 199.291309 -83.9 
L 200.247225 -83.9 
L 201.203141 -83.9 
L 202.159057 -83.9 
L 203.114973 -83.9 
L 204.070889 -83.9 
L 205.026804 -83.9 
L 205.98272 -83.9 
L 206.938636 -83.9 
L 206.938636 -85.021758 
L 206.938636 -85.021758 
L 205.98272 -85.142477 
L 205.026804 -85.270853 
L 204.070889 -85.406699 
L 203.114973 -85.549741 
L 202.159057 -85.699618 
L 201.203141 -85.855884 
L 200.247225 -86.01801 
L 199.291309 -86.185392 
L 198.335393 -86.357354 
L 197.379477 -86.533158 
L 196.423561 -86.712017 
L 195.467645 -86.893106 
L 194.511729 -87.075571 
L 193.555813 -87.25855 
L 192.599897 -87.44118 
L 191.643981 -87.622619 
L 190.688065 -87.802055 
L 189.732149 -87.978724 
L 188.776233 -88.151923 
L 187.820317 -88.321018 
L 186.864402 -88.485464 
L 185.908486 -88.644803 
L 184.95257 -88.798683 
L 183.996654 -88.946853 
L 183.040738 -89.089176 
L 182.084822 -89.225622 
L 181.128906 -89.356273 
L 180.17299 -89.481319 
L 179.217074 -89.60105 
L 178.261158 -89.715854 
L 177.305242 -89.826205 
L 176.349326 -89.932656 
L 175.39341 -90.035826 
L 174.437494 -90.136389 
L 173.481578 -90.23506 
L 172.525662 -90.332583 
L 171.569746 -90.429712 
L 170.613831 -90.527203 
L 169.657915 -90.625794 
L 168.701999 -90.726189 
L 167.746083 -90.829046 
L 166.790167 -90.934962 
L 165.834251 -91.044452 
L 164.878335 -91.157943 
L 163.922419 -91.275755 
L 162.966503 -91.398088 
L 162.010587 -91.525013 
L 161.054671 -91.656456 
L 160.098755 -91.792197 
L 159.142839 -91.931857 
L 158.186923 -92.074892 
L 157.231007 -92.220598 
L 156.275091 -92.368107 
L 155.319175 -92.516391 
L 154.363259 -92.664272 
L 153.407344 -92.810433 
L 152.451428 -92.953435 
L 151.495512 -93.091734 
L 150.539596 -93.223706 
L 149.58368 -93.347676 
L 148.627764 -93.461945 
L 147.671848 -93.564829 
L 146.715932 -93.654687 
L 145.760016 -93.729969 
L 144.8041 -93.789244 
L 143.848184 -93.831246 
L 142.892268 -93.854907 
L 141.936352 -93.859394 
L 140.980436 -93.84414 
L 140.02452 -93.808871 
L 139.068604 -93.753631 
L 138.112688 -93.678796 
L 137.156772 -93.585085 
L 136.200857 -93.47356 
L 135.244941 -93.345625 
L 134.289025 -93.203009 
L 133.333109 -93.047746 
L 132.377193 -92.882144 
L 131.421277 -92.708749 
L 130.465361 -92.530302 
L 129.509445 -92.349688 
L 128.553529 -92.169881 
L 127.597613 -91.993887 
L 126.641697 -91.82468 
L 125.685781 -91.665139 
L 124.729865 -91.517991 
L 123.773949 -91.385743 
L 122.818033 -91.27063 
L 121.862117 -91.174562 
L 120.906201 -91.099075 
L 119.950286 -91.045294 
L 118.99437 -91.013905 
L 118.038454 -91.005128 
L 117.082538 -91.018715 
L 116.126622 -91.053942 
L 115.170706 -91.109624 
L 114.21479 -91.184138 
L 113.258874 -91.275453 
L 112.302958 -91.381172 
L 111.347042 -91.498585 
L 110.391126 -91.624725 
L 109.43521 -91.756439 
L 108.479294 -91.89045 
L 107.523378 -92.023437 
L 106.567462 -92.152106 
L 105.611546 -92.273266 
L 104.65563 -92.383899 
L 103.699714 -92.481226 
L 102.743799 -92.56277 
L 101.787883 -92.626411 
L 100.831967 -92.670424 
L 99.876051 -92.693521 
L 98.920135 -92.694869 
L 97.964219 -92.674103 
L 97.008303 -92.631329 
L 96.052387 -92.567107 
L 95.096471 -92.482437 
L 94.140555 -92.37872 
L 93.184639 -92.257718 
L 92.228723 -92.121506 
L 91.272807 -91.972414 
L 90.316891 -91.812971 
L 89.360975 -91.645836 
L 88.405059 -91.473733 
L 87.449143 -91.299394 
L 86.493228 -91.125488 
L 85.537312 -90.954569 
L 84.581396 -90.78902 
L 83.62548 -90.631011 
L 82.669564 -90.482453 
L 81.713648 -90.344974 
L 80.757732 -90.219895 
L 79.801816 -90.108215 
L 78.8459 -90.010612 
L 77.889984 -89.927443 
L 76.934068 -89.858755 
L 75.978152 -89.804312 
L 75.022236 -89.763611 
L 74.06632 -89.735919 
L 73.110404 -89.720303 
L 72.154488 -89.715668 
L 71.198572 -89.720794 
L 70.242656 -89.734374 
L 69.286741 -89.755049 
L 68.330825 -89.78144 
L 67.374909 -89.812179 
L 66.418993 -89.845938 
L 65.463077 -89.881444 
L 64.507161 -89.917502 
L 63.551245 -89.953001 
L 62.595329 -89.986925 
L 61.639413 -90.018354 
L 60.683497 -90.04646 
L 59.727581 -90.070504 
L 58.771665 -90.089828 
L 57.815749 -90.103846 
L 56.859833 -90.112029 
L 55.903917 -90.113902 
L 54.948001 -90.109025 
L 53.992085 -90.096993 
L 53.036169 -90.077421 
L 52.080254 -90.049946 
L 51.124338 -90.01422 
L 50.168422 -89.969913 
L 49.212506 -89.916717 
L 48.25659 -89.854351 
L 47.300674 -89.782569 
L 46.344758 -89.70117 
L 45.388842 -89.610007 
L 44.432926 -89.509001 
L 43.47701 -89.398151 
L 42.521094 -89.277542 
L 41.565178 -89.147357 
L 40.609262 -89.007883 
L 39.653346 -88.859514 
L 38.69743 -88.702753 
L 37.741514 -88.538213 
L 36.785598 -88.366611 
L 35.829683 -88.188759 
L 34.873767 -88.005558 
L 33.917851 -87.817983 
L 32.961935 -87.627067 
L 32.006019 -87.433888 
L 31.050103 -87.239549 
L 30.094187 -87.045158 
L 29.138271 -86.851816 
L 28.182355 -86.660593 
L 27.226439 -86.472513 
L 26.270523 -86.288541 
L 25.314607 -86.109564 
L 24.358691 -85.936388 
L 23.402775 -85.769719 
L 22.446859 -85.610163 
L 21.490943 -85.45822 
L 20.535027 -85.314283 
L 19.579111 -85.178636 
L 18.623196 -85.051459 
L 17.66728 -84.932831 
L 16.711364 -84.822741 
z
" style="stroke: #482475; stroke-width: 1.25"/>
    </defs>
    <g>
     <use xlink:href="#m156a7dc988" x="0" y="174.26" style="fill: #482475; fill-opacity: 0.7; stroke: #482475; stroke-width: 1.25"/>
    </g>
   </g>
   <g id="line2d_5">
    <path d="M 7.2 90.36 
L 216.45 90.36 
" style="fill: none; stroke: #482475; stroke-opacity: 0.9; stroke-linecap: round"/>
   </g>
   <g id="text_5">
    <!-- 4 -->
    <g style="fill: #482475" transform="translate(7.2 89.442) scale(0.12 -0.12)">
     <defs>
      <path id="IBMPlexSans-Bold-34" d="M 2157 0 
L 2157 858 
L 192 858 
L 192 1677 
L 1933 4467 
L 3072 4467 
L 3072 1600 
L 3635 1600 
L 3635 858 
L 3072 858 
L 3072 0 
L 2157 0 
z
M 960 1600 
L 2157 1600 
L 2157 3475 
L 2093 3475 
L 960 1600 
z
" transform="scale(0.015625)"/>
     </defs>
     <use xlink:href="#IBMPlexSans-Bold-34"/>
    </g>
   </g>
  </g>
  <g id="axes_6">
   <g id="patch_7">
    <path d="M 7.2 100.755 
L 216.45 100.755 
L 216.45 59.175 
L 7.2 59.175 
L 7.2 100.755 
z
" style="fill: none"/>
   </g>
   <g id="matplotlib.axis_11">
    <g id="xtick_21"/>
    <g id="xtick_22"/>
    <g id="xtick_23"/>
    <g id="xtick_24"/>
   </g>
   <g id="matplotlib.axis_12"/>
   <g id="line2d_6">
    <path d="M 7.2 100.755 
L 216.45 100.755 
" style="fill: none; stroke: #21918c; stroke-opacity: 0.9; stroke-linecap: round"/>
   </g>
   <g id="text_6">
    <!-- 5 -->
    <g style="fill: #21918c" transform="translate(7.2 99.837) scale(0.12 -0.12)">
     <defs>
      <path id="IBMPlexSans-Bold-35" d="M 3341 3629 
L 1312 3629 
L 1216 2214 
L 1267 2214 
Q 1331 2374 1411 2505 
Q 1491 2637 1600 2729 
Q 1709 2822 1862 2873 
Q 2016 2925 2227 2925 
Q 2515 2925 2764 2829 
Q 3014 2733 3200 2550 
Q 3386 2368 3494 2102 
Q 3603 1837 3603 1504 
Q 3603 1165 3491 873 
Q 3379 582 3158 371 
Q 2938 160 2618 41 
Q 2298 -77 1888 -77 
Q 1562 -77 1312 -6 
Q 1062 64 870 182 
Q 678 301 537 454 
Q 397 608 294 781 
L 992 1331 
Q 1139 1069 1344 886 
Q 1549 704 1894 704 
Q 2240 704 2416 902 
Q 2592 1101 2592 1427 
L 2592 1478 
Q 2592 1786 2413 1965 
Q 2234 2144 1920 2144 
Q 1658 2144 1488 2038 
Q 1318 1933 1229 1830 
L 442 1939 
L 608 4467 
L 3341 4467 
L 3341 3629 
z
" transform="scale(0.015625)"/>
     </defs>
     <use xlink:href="#IBMPlexSans-Bold-35"/>
    </g>
   </g>
  </g>
  <g id="axes_7">
   <g id="patch_8">
    <path d="M 7.2 111.15 
L 216.45 111.15 
L 216.45 69.57 
L 7.2 69.57 
L 7.2 111.15 
z
" style="fill: none"/>
   </g>
   <g id="matplotlib.axis_13">
    <g id="xtick_25"/>
    <g id="xtick_26"/>
    <g id="xtick_27"/>
    <g id="xtick_28"/>
   </g>
   <g id="matplotlib.axis_14"/>
   <g id="line2d_7">
    <path d="M 7.2 111.15 
L 216.45 111.15 
" style="fill: none; stroke: #21918c; stroke-opacity: 0.9; stroke-linecap: round"/>
   </g>
   <g id="text_7">
    <!-- 6 -->
    <g style="fill: #21918c" transform="translate(7.2 110.232) scale(0.12 -0.12)">
     <defs>
      <path id="IBMPlexSans-Bold-36" d="M 1946 -77 
Q 1549 -77 1235 48 
Q 922 173 707 406 
Q 493 640 381 966 
Q 269 1293 269 1696 
Q 269 2163 413 2582 
Q 557 3002 784 3357 
Q 1011 3712 1296 3993 
Q 1581 4275 1869 4467 
L 3194 4467 
Q 2784 4173 2457 3907 
Q 2131 3642 1891 3373 
Q 1651 3104 1494 2825 
Q 1338 2547 1274 2227 
L 1331 2208 
Q 1389 2336 1469 2457 
Q 1549 2579 1667 2672 
Q 1786 2765 1946 2822 
Q 2106 2880 2317 2880 
Q 2592 2880 2832 2781 
Q 3072 2682 3248 2502 
Q 3424 2323 3523 2064 
Q 3622 1805 3622 1491 
Q 3622 1146 3504 858 
Q 3386 570 3165 362 
Q 2944 154 2637 38 
Q 2330 -77 1946 -77 
z
M 1946 672 
Q 2266 672 2445 848 
Q 2624 1024 2624 1350 
L 2624 1466 
Q 2624 1792 2445 1968 
Q 2266 2144 1946 2144 
Q 1626 2144 1446 1968 
Q 1267 1792 1267 1466 
L 1267 1350 
Q 1267 1024 1446 848 
Q 1626 672 1946 672 
z
" transform="scale(0.015625)"/>
     </defs>
     <use xlink:href="#IBMPlexSans-Bold-36"/>
    </g>
   </g>
  </g>
  <g id="axes_8">
   <g id="patch_9">
    <path d="M 7.2 121.545 
L 216.45 121.545 
L 216.45 79.965 
L 7.2 79.965 
L 7.2 121.545 
z
" style="fill: none"/>
   </g>
   <g id="matplotlib.axis_15">
    <g id="xtick_29"/>
    <g id="xtick_30"/>
    <g id="xtick_31"/>
    <g id="xtick_32"/>
   </g>
   <g id="matplotlib.axis_16"/>
   <g id="line2d_8">
    <path d="M 7.2 121.545 
L 216.45 121.545 
" style="fill: none; stroke: #21918c; stroke-opacity: 0.9; stroke-linecap: round"/>
   </g>
   <g id="text_8">
    <!-- 7 -->
    <g style="fill: #21918c" transform="translate(7.2 120.627) scale(0.12 -0.12)">
     <defs>
      <path id="IBMPlexSans-Bold-37" d="M 1062 0 
L 2560 3686 
L 1165 3686 
L 1165 2874 
L 352 2874 
L 352 4467 
L 3514 4467 
L 3514 3635 
L 2074 0 
L 1062 0 
z
" transform="scale(0.015625)"/>
     </defs>
     <use xlink:href="#IBMPlexSans-Bold-37"/>
    </g>
   </g>
  </g>
  <g id="axes_9">
   <g id="patch_10">
    <path d="M 7.2 131.94 
L 216.45 131.94 
L 216.45 90.36 
L 7.2 90.36 
L 7.2 131.94 
z
" style="fill: none"/>
   </g>
   <g id="matplotlib.axis_17">
    <g id="xtick_33">
     <g id="text_9">
      <!-- −4 -->
      <g style="fill: #838383" transform="translate(25.297029 149.58) scale(0.11 -0.11)">
       <defs>
        <path id="IBMPlexSans-Regular-2212" d="M 429 1734 
L 429 2170 
L 3411 2170 
L 3411 1734 
L 429 1734 
z
" transform="scale(0.015625)"/>
        <path id="IBMPlexSans-Regular-34" d="M 2400 0 
L 2400 877 
L 243 877 
L 243 1350 
L 2112 4467 
L 2912 4467 
L 2912 1325 
L 3558 1325 
L 3558 877 
L 2912 877 
L 2912 0 
L 2400 0 
z
M 749 1325 
L 2400 1325 
L 2400 4051 
L 2368 4051 
L 749 1325 
z
" transform="scale(0.015625)"/>
       </defs>
       <use xlink:href="#IBMPlexSans-Regular-2212"/>
       <use xlink:href="#IBMPlexSans-Regular-34" transform="translate(59.999985 0)"/>
      </g>
     </g>
    </g>
    <g id="xtick_34">
     <g id="text_10">
      <!-- −2 -->
      <g style="fill: #838383" transform="translate(79.722097 149.58) scale(0.11 -0.11)">
       <defs>
        <path id="IBMPlexSans-Regular-32" d="M 3411 0 
L 480 0 
L 480 550 
L 1939 1894 
Q 2253 2182 2464 2505 
Q 2675 2829 2675 3155 
L 2675 3232 
Q 2675 3603 2470 3833 
Q 2266 4064 1850 4064 
Q 1645 4064 1491 4006 
Q 1338 3949 1226 3846 
Q 1114 3744 1040 3606 
Q 966 3469 922 3309 
L 442 3494 
Q 506 3693 618 3881 
Q 730 4070 899 4217 
Q 1069 4365 1309 4454 
Q 1549 4544 1875 4544 
Q 2202 4544 2458 4448 
Q 2714 4352 2886 4179 
Q 3059 4006 3152 3769 
Q 3245 3533 3245 3245 
Q 3245 2982 3171 2758 
Q 3098 2534 2970 2332 
Q 2842 2131 2659 1939 
Q 2477 1747 2266 1555 
L 1062 474 
L 3411 474 
L 3411 0 
z
" transform="scale(0.015625)"/>
       </defs>
       <use xlink:href="#IBMPlexSans-Regular-2212"/>
       <use xlink:href="#IBMPlexSans-Regular-32" transform="translate(59.999985 0)"/>
      </g>
     </g>
    </g>
    <g id="xtick_35">
     <g id="text_11">
      <!-- 0 -->
      <g style="fill: #838383" transform="translate(137.447165 149.58) scale(0.11 -0.11)">
       <defs>
        <path id="IBMPlexSans-Regular-30" d="M 1920 -77 
Q 1120 -77 752 531 
Q 384 1139 384 2234 
Q 384 3328 752 3936 
Q 1120 4544 1920 4544 
Q 2720 4544 3088 3936 
Q 3456 3328 3456 2234 
Q 3456 1139 3088 531 
Q 2720 -77 1920 -77 
z
M 1920 390 
Q 2182 390 2368 499 
Q 2554 608 2669 806 
Q 2784 1005 2838 1273 
Q 2893 1542 2893 1869 
L 2893 2598 
Q 2893 2925 2838 3193 
Q 2784 3462 2669 3660 
Q 2554 3859 2368 3968 
Q 2182 4077 1920 4077 
Q 1658 4077 1472 3968 
Q 1286 3859 1171 3660 
Q 1056 3462 1001 3193 
Q 947 2925 947 2598 
L 947 1869 
Q 947 1542 1001 1273 
Q 1056 1005 1171 806 
Q 1286 608 1472 499 
Q 1658 390 1920 390 
z
" transform="scale(0.015625)"/>
       </defs>
       <use xlink:href="#IBMPlexSans-Regular-30"/>
      </g>
     </g>
    </g>
    <g id="xtick_36">
     <g id="text_12">
      <!-- 2 -->
      <g style="fill: #838383" transform="translate(191.872233 149.58) scale(0.11 -0.11)">
       <use xlink:href="#IBMPlexSans-Regular-32"/>
      </g>
     </g>
    </g>
    <g id="text_13">
     <!-- sldf -->
     <g style="fill: #262626" transform="translate(101.84625 164.66) scale(0.12 -0.12)">
      <defs>
       <path id="IBMPlexSans-Regular-73" d="M 1536 -77 
Q 1075 -77 764 99 
Q 454 275 230 570 
L 595 864 
Q 787 621 1024 489 
Q 1261 358 1574 358 
Q 1901 358 2083 499 
Q 2266 640 2266 896 
Q 2266 1088 2141 1225 
Q 2016 1363 1690 1414 
L 1427 1453 
Q 1197 1485 1005 1552 
Q 813 1619 669 1731 
Q 525 1843 445 2009 
Q 365 2176 365 2406 
Q 365 2650 454 2832 
Q 544 3014 701 3136 
Q 858 3258 1075 3318 
Q 1293 3379 1542 3379 
Q 1946 3379 2218 3238 
Q 2490 3098 2694 2848 
L 2355 2541 
Q 2246 2694 2035 2819 
Q 1824 2944 1504 2944 
Q 1184 2944 1021 2806 
Q 858 2669 858 2432 
Q 858 2189 1021 2080 
Q 1184 1971 1491 1920 
L 1747 1882 
Q 2298 1798 2528 1564 
Q 2758 1331 2758 954 
Q 2758 474 2432 198 
Q 2106 -77 1536 -77 
z
" transform="scale(0.015625)"/>
       <path id="IBMPlexSans-Regular-6c" d="M 1088 0 
Q 819 0 681 150 
Q 544 301 544 531 
L 544 4736 
L 1056 4736 
L 1056 448 
L 1542 448 
L 1542 0 
L 1088 0 
z
" transform="scale(0.015625)"/>
       <path id="IBMPlexSans-Regular-64" d="M 2656 538 
L 2630 538 
Q 2330 -77 1664 -77 
Q 1357 -77 1107 44 
Q 858 166 682 390 
Q 506 614 413 934 
Q 320 1254 320 1651 
Q 320 2048 413 2368 
Q 506 2688 682 2912 
Q 858 3136 1107 3257 
Q 1357 3379 1664 3379 
Q 2010 3379 2256 3228 
Q 2502 3078 2630 2765 
L 2656 2765 
L 2656 4736 
L 3168 4736 
L 3168 0 
L 2656 0 
L 2656 538 
z
M 1805 384 
Q 1978 384 2134 429 
Q 2291 474 2406 560 
Q 2522 646 2589 771 
Q 2656 896 2656 1056 
L 2656 2285 
Q 2656 2419 2589 2537 
Q 2522 2656 2406 2739 
Q 2291 2822 2134 2870 
Q 1978 2918 1805 2918 
Q 1370 2918 1120 2646 
Q 870 2374 870 1933 
L 870 1370 
Q 870 928 1120 656 
Q 1370 384 1805 384 
z
" transform="scale(0.015625)"/>
       <path id="IBMPlexSans-Regular-66" d="M 723 2854 
L 186 2854 
L 186 3302 
L 723 3302 
L 723 3968 
Q 723 4314 902 4525 
Q 1082 4736 1446 4736 
L 1946 4736 
L 1946 4288 
L 1235 4288 
L 1235 3302 
L 1946 3302 
L 1946 2854 
L 1235 2854 
L 1235 0 
L 723 0 
L 723 2854 
z
" transform="scale(0.015625)"/>
      </defs>
      <use xlink:href="#IBMPlexSans-Regular-73"/>
      <use xlink:href="#IBMPlexSans-Regular-6c" transform="translate(48.699997 0)"/>
      <use xlink:href="#IBMPlexSans-Regular-64" transform="translate(75.899994 0)"/>
      <use xlink:href="#IBMPlexSans-Regular-66" transform="translate(133.899979 0)"/>
     </g>
    </g>
   </g>
   <g id="matplotlib.axis_18"/>
   <g id="line2d_9">
    <path d="M 7.2 131.94 
L 216.45 131.94 
" style="fill: none; stroke: #21918c; stroke-opacity: 0.9; stroke-linecap: round"/>
   </g>
   <g id="text_14">
    <!-- 8 -->
    <g style="fill: #21918c" transform="translate(7.2 131.022) scale(0.12 -0.12)">
     <defs>
      <path id="IBMPlexSans-Bold-38" d="M 1920 -77 
Q 1523 -77 1212 22 
Q 902 122 691 294 
Q 480 467 368 704 
Q 256 941 256 1222 
Q 256 1651 493 1923 
Q 730 2195 1133 2304 
L 1133 2355 
Q 806 2477 598 2726 
Q 390 2976 390 3366 
Q 390 3622 489 3840 
Q 589 4058 784 4214 
Q 979 4371 1264 4457 
Q 1549 4544 1920 4544 
Q 2291 4544 2576 4457 
Q 2861 4371 3056 4214 
Q 3251 4058 3350 3840 
Q 3450 3622 3450 3366 
Q 3450 2976 3242 2726 
Q 3034 2477 2707 2355 
L 2707 2304 
Q 3110 2195 3347 1923 
Q 3584 1651 3584 1222 
Q 3584 941 3472 704 
Q 3360 467 3149 294 
Q 2938 122 2627 22 
Q 2317 -77 1920 -77 
z
M 1920 659 
Q 2240 659 2409 809 
Q 2579 960 2579 1229 
L 2579 1357 
Q 2579 1626 2409 1776 
Q 2240 1926 1920 1926 
Q 1600 1926 1430 1776 
Q 1261 1626 1261 1357 
L 1261 1229 
Q 1261 960 1430 809 
Q 1600 659 1920 659 
z
M 1920 2630 
Q 2227 2630 2387 2774 
Q 2547 2918 2547 3168 
L 2547 3270 
Q 2547 3520 2387 3664 
Q 2227 3808 1920 3808 
Q 1613 3808 1453 3664 
Q 1293 3520 1293 3270 
L 1293 3168 
Q 1293 2918 1453 2774 
Q 1613 2630 1920 2630 
z
" transform="scale(0.015625)"/>
     </defs>
     <use xlink:href="#IBMPlexSans-Bold-38"/>
    </g>
   </g>
  </g>
 </g>
</svg>
