<?xml version="1.0" encoding="utf-8" standalone="no"?>
<!DOCTYPE svg PUBLIC "-//W3C//DTD SVG 1.1//EN"
  "http://www.w3.org/Graphics/SVG/1.1/DTD/svg11.dtd">
<svg xmlns:xlink="http://www.w3.org/1999/xlink" width="223.65pt" height="174.26pt" viewBox="0 0 223.65 174.26" xmlns="http://www.w3.org/2000/svg" version="1.1">
 <metadata>
  <rdf:RDF xmlns:dc="http://purl.org/dc/elements/1.1/" xmlns:cc="http://creativecommons.org/ns#" xmlns:rdf="http://www.w3.org/1999/02/22-rdf-syntax-ns#">
   <cc:Work>
    <dc:type rdf:resource="http://purl.org/dc/dcmitype/StillImage"/>
    <dc:date>2025-12-31T11:25:31.416488</dc:date>
    <dc:format>image/svg+xml</dc:format>
    <dc:creator>
     <cc:Agent>
      <dc:title>Matplotlib v3.10.5, https://matplotlib.org/</dc:title>
     </cc:Agent>
    </dc:creator>
   </cc:Work>
  </rdf:RDF>
 </metadata>
 <defs>
  <style type="text/css">*{stroke-linejoin: round; stroke-linecap: butt}</style>
 </defs>
 <g id="figure_1">
  <g id="patch_1">
   <path d="M 0 174.26 
L 223.65 174.26 
L 223.65 0 
L 0 0 
L 0 174.26 
z
" style="fill: none"/>
  </g>
  <g id="axes_1">
   <g id="patch_2">
    <path d="M 7.2 48.78 
L 216.45 48.78 
L 216.45 7.2 
L 7.2 7.2 
L 7.2 48.78 
z
" style="fill: none"/>
   </g>
   <g id="matplotlib.axis_1">
    <g id="xtick_1"/>
    <g id="xtick_2"/>
    <g id="xtick_3"/>
    <g id="xtick_4"/>
   </g>
   <g id="matplotlib.axis_2"/>
   <g id="line2d_1">
    <path d="M 7.2 48.78 
L 216.45 48.78 
" style="fill: none; stroke: #7ad151; stroke-opacity: 0.9; stroke-linecap: round"/>
   </g>
   <g id="text_1">
    <!-- 0 -->
    <g style="fill: #7ad151" transform="translate(7.2 47.862) scale(0.12 -0.12)">
     <defs>
      <path id="IBMPlexSans-Bold-30" d="M 1920 -77 
Q 1043 -77 620 531 
Q 198 1139 198 2234 
Q 198 3328 620 3936 
Q 1043 4544 1920 4544 
Q 2797 4544 3219 3936 
Q 3642 3328 3642 2234 
Q 3642 1139 3219 531 
Q 2797 -77 1920 -77 
z
M 1920 736 
Q 2304 736 2451 1017 
Q 2598 1299 2598 1811 
L 2598 2656 
Q 2598 3168 2451 3449 
Q 2304 3731 1920 3731 
Q 1536 3731 1389 3449 
Q 1242 3168 1242 2656 
L 1242 1811 
Q 1242 1299 1389 1017 
Q 1536 736 1920 736 
z
" transform="scale(0.015625)"/>
     </defs>
     <use xlink:href="#IBMPlexSans-Bold-30"/>
    </g>
   </g>
  </g>
  <g id="axes_2">
   <g id="patch_3">
    <path d="M 7.2 59.175 
L 216.45 59.175 
L 216.45 17.595 
L 7.2 17.595 
L 7.2 59.175 
z
" style="fill: none"/>
   </g>
   <g id="matplotlib.axis_3">
    <g id="xtick_5"/>
    <g id="xtick_6"/>
    <g id="xtick_7"/>
    <g id="xtick_8"/>
   </g>
   <g id="matplotlib.axis_4"/>
   <g id="FillBetweenPolyCollection_1">
    <defs>
     <path id="mbdbeab2cba" d="M 104.081683 -116.129035 
L 104.081683 -115.085 
L 104.317493 -115.085 
L 104.553304 -115.085 
L 104.789115 -115.085 
L 105.024926 -115.085 
L 105.260737 -115.085 
L 105.496548 -115.085 
L 105.732359 -115.085 
L 105.968169 -115.085 
L 106.20398 -115.085 
L 106.439791 -115.085 
L 106.675602 -115.085 
L 106.911413 -115.085 
L 107.147224 -115.085 
L 107.383034 -115.085 
L 107.618845 -115.085 
L 107.854656 -115.085 
L 108.090467 -115.085 
L 108.326278 -115.085 
L 108.562089 -115.085 
L 108.797899 -115.085 
L 109.03371 -115.085 
L 109.269521 -115.085 
L 109.505332 -115.085 
L 109.741143 -115.085 
L 109.976954 -115.085 
L 110.212764 -115.085 
L 110.448575 -115.085 
L 110.684386 -115.085 
L 110.920197 -115.085 
L 111.156008 -115.085 
L 111.391819 -115.085 
L 111.627629 -115.085 
L 111.86344 -115.085 
L 112.099251 -115.085 
L 112.335062 -115.085 
L 112.570873 -115.085 
L 112.806684 -115.085 
L 113.042494 -115.085 
L 113.278305 -115.085 
L 113.514116 -115.085 
L 113.749927 -115.085 
L 113.985738 -115.085 
L 114.221549 -115.085 
L 114.45736 -115.085 
L 114.69317 -115.085 
L 114.928981 -115.085 
L 115.164792 -115.085 
L 115.400603 -115.085 
L 115.636414 -115.085 
L 115.872225 -115.085 
L 116.108035 -115.085 
L 116.343846 -115.085 
L 116.579657 -115.085 
L 116.815468 -115.085 
L 117.051279 -115.085 
L 117.28709 -115.085 
L 117.5229 -115.085 
L 117.758711 -115.085 
L 117.994522 -115.085 
L 118.230333 -115.085 
L 118.466144 -115.085 
L 118.701955 -115.085 
L 118.937765 -115.085 
L 119.173576 -115.085 
L 119.409387 -115.085 
L 119.645198 -115.085 
L 119.881009 -115.085 
L 120.11682 -115.085 
L 120.35263 -115.085 
L 120.588441 -115.085 
L 120.824252 -115.085 
L 121.060063 -115.085 
L 121.295874 -115.085 
L 121.531685 -115.085 
L 121.767495 -115.085 
L 122.003306 -115.085 
L 122.239117 -115.085 
L 122.474928 -115.085 
L 122.710739 -115.085 
L 122.94655 -115.085 
L 123.18236 -115.085 
L 123.418171 -115.085 
L 123.653982 -115.085 
L 123.889793 -115.085 
L 124.125604 -115.085 
L 124.361415 -115.085 
L 124.597226 -115.085 
L 124.833036 -115.085 
L 125.068847 -115.085 
L 125.304658 -115.085 
L 125.540469 -115.085 
L 125.77628 -115.085 
L 126.012091 -115.085 
L 126.247901 -115.085 
L 126.483712 -115.085 
L 126.719523 -115.085 
L 126.955334 -115.085 
L 127.191145 -115.085 
L 127.426956 -115.085 
L 127.662766 -115.085 
L 127.898577 -115.085 
L 128.134388 -115.085 
L 128.370199 -115.085 
L 128.60601 -115.085 
L 128.841821 -115.085 
L 129.077631 -115.085 
L 129.313442 -115.085 
L 129.549253 -115.085 
L 129.785064 -115.085 
L 130.020875 -115.085 
L 130.256686 -115.085 
L 130.492496 -115.085 
L 130.728307 -115.085 
L 130.964118 -115.085 
L 131.199929 -115.085 
L 131.43574 -115.085 
L 131.671551 -115.085 
L 131.907361 -115.085 
L 132.143172 -115.085 
L 132.378983 -115.085 
L 132.614794 -115.085 
L 132.850605 -115.085 
L 133.086416 -115.085 
L 133.322227 -115.085 
L 133.558037 -115.085 
L 133.793848 -115.085 
L 134.029659 -115.085 
L 134.26547 -115.085 
L 134.501281 -115.085 
L 134.737092 -115.085 
L 134.972902 -115.085 
L 135.208713 -115.085 
L 135.444524 -115.085 
L 135.680335 -115.085 
L 135.916146 -115.085 
L 136.151957 -115.085 
L 136.387767 -115.085 
L 136.623578 -115.085 
L 136.859389 -115.085 
L 137.0952 -115.085 
L 137.331011 -115.085 
L 137.566822 -115.085 
L 137.802632 -115.085 
L 138.038443 -115.085 
L 138.274254 -115.085 
L 138.510065 -115.085 
L 138.745876 -115.085 
L 138.981687 -115.085 
L 139.217497 -115.085 
L 139.453308 -115.085 
L 139.689119 -115.085 
L 139.92493 -115.085 
L 140.160741 -115.085 
L 140.396552 -115.085 
L 140.632362 -115.085 
L 140.868173 -115.085 
L 141.103984 -115.085 
L 141.339795 -115.085 
L 141.575606 -115.085 
L 141.811417 -115.085 
L 142.047227 -115.085 
L 142.283038 -115.085 
L 142.518849 -115.085 
L 142.75466 -115.085 
L 142.990471 -115.085 
L 143.226282 -115.085 
L 143.462093 -115.085 
L 143.697903 -115.085 
L 143.933714 -115.085 
L 144.169525 -115.085 
L 144.405336 -115.085 
L 144.641147 -115.085 
L 144.876958 -115.085 
L 145.112768 -115.085 
L 145.348579 -115.085 
L 145.58439 -115.085 
L 145.820201 -115.085 
L 146.056012 -115.085 
L 146.291823 -115.085 
L 146.527633 -115.085 
L 146.763444 -115.085 
L 146.999255 -115.085 
L 147.235066 -115.085 
L 147.470877 -115.085 
L 147.706688 -115.085 
L 147.942498 -115.085 
L 148.178309 -115.085 
L 148.41412 -115.085 
L 148.649931 -115.085 
L 148.885742 -115.085 
L 149.121553 -115.085 
L 149.357363 -115.085 
L 149.593174 -115.085 
L 149.828985 -115.085 
L 150.064796 -115.085 
L 150.300607 -115.085 
L 150.536418 -115.085 
L 150.772228 -115.085 
L 151.008039 -115.085 
L 151.008039 -116.177413 
L 151.008039 -116.177413 
L 150.772228 -116.310857 
L 150.536418 -116.456184 
L 150.300607 -116.613837 
L 150.064796 -116.784198 
L 149.828985 -116.967574 
L 149.593174 -117.16419 
L 149.357363 -117.374183 
L 149.121553 -117.597592 
L 148.885742 -117.834354 
L 148.649931 -118.084298 
L 148.41412 -118.347145 
L 148.178309 -118.622506 
L 147.942498 -118.909884 
L 147.706688 -119.208677 
L 147.470877 -119.518187 
L 147.235066 -119.837623 
L 146.999255 -120.166116 
L 146.763444 -120.502727 
L 146.527633 -120.846464 
L 146.291823 -121.19629 
L 146.056012 -121.551144 
L 145.820201 -121.909953 
L 145.58439 -122.271647 
L 145.348579 -122.635176 
L 145.112768 -122.99952 
L 144.876958 -123.363702 
L 144.641147 -123.726799 
L 144.405336 -124.087951 
L 144.169525 -124.446361 
L 143.933714 -124.801306 
L 143.697903 -125.152129 
L 143.462093 -125.498243 
L 143.226282 -125.839124 
L 142.990471 -126.174302 
L 142.75466 -126.503359 
L 142.518849 -126.82591 
L 142.283038 -127.141601 
L 142.047227 -127.450091 
L 141.811417 -127.751043 
L 141.575606 -128.044118 
L 141.339795 -128.328958 
L 141.103984 -128.605185 
L 140.868173 -128.872396 
L 140.632362 -129.130153 
L 140.396552 -129.377992 
L 140.160741 -129.615422 
L 139.92493 -129.841927 
L 139.689119 -130.056982 
L 139.453308 -130.260056 
L 139.217497 -130.450627 
L 138.981687 -130.628199 
L 138.745876 -130.79231 
L 138.510065 -130.942555 
L 138.274254 -131.078594 
L 138.038443 -131.200171 
L 137.802632 -131.307123 
L 137.566822 -131.399393 
L 137.331011 -131.477035 
L 137.0952 -131.540225 
L 136.859389 -131.589255 
L 136.623578 -131.62454 
L 136.387767 -131.646609 
L 136.151957 -131.656097 
L 135.916146 -131.653741 
L 135.680335 -131.64036 
L 135.444524 -131.616846 
L 135.208713 -131.584144 
L 134.972902 -131.543241 
L 134.737092 -131.495141 
L 134.501281 -131.440856 
L 134.26547 -131.381384 
L 134.029659 -131.317696 
L 133.793848 -131.250724 
L 133.558037 -131.181348 
L 133.322227 -131.110389 
L 133.086416 -131.0386 
L 132.850605 -130.966663 
L 132.614794 -130.895186 
L 132.378983 -130.824706 
L 132.143172 -130.755684 
L 131.907361 -130.688515 
L 131.671551 -130.623528 
L 131.43574 -130.560994 
L 131.199929 -130.501127 
L 130.964118 -130.444092 
L 130.728307 -130.390009 
L 130.492496 -130.338956 
L 130.256686 -130.290973 
L 130.020875 -130.246064 
L 129.785064 -130.204197 
L 129.549253 -130.165306 
L 129.313442 -130.129284 
L 129.077631 -130.095991 
L 128.841821 -130.065243 
L 128.60601 -130.036814 
L 128.370199 -130.010431 
L 128.134388 -129.985775 
L 127.898577 -129.962476 
L 127.662766 -129.940116 
L 127.426956 -129.918228 
L 127.191145 -129.896297 
L 126.955334 -129.873767 
L 126.719523 -129.850042 
L 126.483712 -129.824497 
L 126.247901 -129.796481 
L 126.012091 -129.765332 
L 125.77628 -129.730385 
L 125.540469 -129.69098 
L 125.304658 -129.646478 
L 125.068847 -129.596273 
L 124.833036 -129.539799 
L 124.597226 -129.476545 
L 124.361415 -129.406063 
L 124.125604 -129.327977 
L 123.889793 -129.24199 
L 123.653982 -129.147891 
L 123.418171 -129.045553 
L 123.18236 -128.934943 
L 122.94655 -128.816112 
L 122.710739 -128.689202 
L 122.474928 -128.554433 
L 122.239117 -128.412103 
L 122.003306 -128.262579 
L 121.767495 -128.106288 
L 121.531685 -127.943706 
L 121.295874 -127.775355 
L 121.060063 -127.601785 
L 120.824252 -127.423569 
L 120.588441 -127.241293 
L 120.35263 -127.055547 
L 120.11682 -126.866918 
L 119.881009 -126.675984 
L 119.645198 -126.483305 
L 119.409387 -126.289425 
L 119.173576 -126.094864 
L 118.937765 -125.900115 
L 118.701955 -125.705649 
L 118.466144 -125.51191 
L 118.230333 -125.319314 
L 117.994522 -125.128255 
L 117.758711 -124.939098 
L 117.5229 -124.752187 
L 117.28709 -124.567839 
L 117.051279 -124.386349 
L 116.815468 -124.207983 
L 116.579657 -124.032981 
L 116.343846 -123.861552 
L 116.108035 -123.693873 
L 115.872225 -123.530082 
L 115.636414 -123.370277 
L 115.400603 -123.214511 
L 115.164792 -123.062788 
L 114.928981 -122.915057 
L 114.69317 -122.77121 
L 114.45736 -122.631082 
L 114.221549 -122.494444 
L 113.985738 -122.361009 
L 113.749927 -122.23043 
L 113.514116 -122.102301 
L 113.278305 -121.976167 
L 113.042494 -121.851526 
L 112.806684 -121.727839 
L 112.570873 -121.604539 
L 112.335062 -121.481043 
L 112.099251 -121.356762 
L 111.86344 -121.231114 
L 111.627629 -121.103539 
L 111.391819 -120.973509 
L 111.156008 -120.840544 
L 110.920197 -120.704222 
L 110.684386 -120.56419 
L 110.448575 -120.420177 
L 110.212764 -120.271995 
L 109.976954 -120.119552 
L 109.741143 -119.962852 
L 109.505332 -119.801998 
L 109.269521 -119.63719 
L 109.03371 -119.468724 
L 108.797899 -119.296987 
L 108.562089 -119.122446 
L 108.326278 -118.945646 
L 108.090467 -118.767192 
L 107.854656 -118.587744 
L 107.618845 -118.408 
L 107.383034 -118.228686 
L 107.147224 -118.050539 
L 106.911413 -117.874298 
L 106.675602 -117.700689 
L 106.439791 -117.530411 
L 106.20398 -117.36413 
L 105.968169 -117.202463 
L 105.732359 -117.045976 
L 105.496548 -116.89517 
L 105.260737 -116.750481 
L 105.024926 -116.612276 
L 104.789115 -116.480845 
L 104.553304 -116.356409 
L 104.317493 -116.239114 
L 104.081683 -116.129035 
z
" style="stroke: #22a884; stroke-width: 1.25"/>
    </defs>
    <g>
     <use xlink:href="#mbdbeab2cba" x="0" y="174.26" style="fill: #22a884; fill-opacity: 0.7; stroke: #22a884; stroke-width: 1.25"/>
    </g>
   </g>
   <g id="line2d_2">
    <path d="M 7.2 59.175 
L 216.45 59.175 
" style="fill: none; stroke: #22a884; stroke-opacity: 0.9; stroke-linecap: round"/>
   </g>
   <g id="text_2">
    <!-- 1 -->
    <g style="fill: #22a884" transform="translate(7.2 58.257) scale(0.12 -0.12)">
     <defs>
      <path id="IBMPlexSans-Bold-31" d="M 602 0 
L 602 774 
L 1805 774 
L 1805 3770 
L 1747 3770 
L 838 2579 
L 224 3059 
L 1293 4467 
L 2765 4467 
L 2765 774 
L 3712 774 
L 3712 0 
L 602 0 
z
" transform="scale(0.015625)"/>
     </defs>
     <use xlink:href="#IBMPlexSans-Bold-31"/>
    </g>
   </g>
  </g>
  <g id="axes_3">
   <g id="patch_4">
    <path d="M 7.2 69.57 
L 216.45 69.57 
L 216.45 27.99 
L 7.2 27.99 
L 7.2 69.57 
z
" style="fill: none"/>
   </g>
   <g id="matplotlib.axis_5">
    <g id="xtick_9"/>
    <g id="xtick_10"/>
    <g id="xtick_11"/>
    <g id="xtick_12"/>
   </g>
   <g id="matplotlib.axis_6"/>
   <g id="FillBetweenPolyCollection_2">
    <defs>
     <path id="m7734797940" d="M 74.83379 -105.185444 
L 74.83379 -104.69 
L 75.309782 -104.69 
L 75.785774 -104.69 
L 76.261766 -104.69 
L 76.737758 -104.69 
L 77.21375 -104.69 
L 77.689742 -104.69 
L 78.165734 -104.69 
L 78.641726 -104.69 
L 79.117718 -104.69 
L 79.59371 -104.69 
L 80.069701 -104.69 
L 80.545693 -104.69 
L 81.021685 -104.69 
L 81.497677 -104.69 
L 81.973669 -104.69 
L 82.449661 -104.69 
L 82.925653 -104.69 
L 83.401645 -104.69 
L 83.877637 -104.69 
L 84.353629 -104.69 
L 84.829621 -104.69 
L 85.305613 -104.69 
L 85.781605 -104.69 
L 86.257597 -104.69 
L 86.733588 -104.69 
L 87.20958 -104.69 
L 87.685572 -104.69 
L 88.161564 -104.69 
L 88.637556 -104.69 
L 89.113548 -104.69 
L 89.58954 -104.69 
L 90.065532 -104.69 
L 90.541524 -104.69 
L 91.017516 -104.69 
L 91.493508 -104.69 
L 91.9695 -104.69 
L 92.445492 -104.69 
L 92.921484 -104.69 
L 93.397475 -104.69 
L 93.873467 -104.69 
L 94.349459 -104.69 
L 94.825451 -104.69 
L 95.301443 -104.69 
L 95.777435 -104.69 
L 96.253427 -104.69 
L 96.729419 -104.69 
L 97.205411 -104.69 
L 97.681403 -104.69 
L 98.157395 -104.69 
L 98.633387 -104.69 
L 99.109379 -104.69 
L 99.585371 -104.69 
L 100.061362 -104.69 
L 100.537354 -104.69 
L 101.013346 -104.69 
L 101.489338 -104.69 
L 101.96533 -104.69 
L 102.441322 -104.69 
L 102.917314 -104.69 
L 103.393306 -104.69 
L 103.869298 -104.69 
L 104.34529 -104.69 
L 104.821282 -104.69 
L 105.297274 -104.69 
L 105.773266 -104.69 
L 106.249258 -104.69 
L 106.725249 -104.69 
L 107.201241 -104.69 
L 107.677233 -104.69 
L 108.153225 -104.69 
L 108.629217 -104.69 
L 109.105209 -104.69 
L 109.581201 -104.69 
L 110.057193 -104.69 
L 110.533185 -104.69 
L 111.009177 -104.69 
L 111.485169 -104.69 
L 111.961161 -104.69 
L 112.437153 -104.69 
L 112.913145 -104.69 
L 113.389136 -104.69 
L 113.865128 -104.69 
L 114.34112 -104.69 
L 114.817112 -104.69 
L 115.293104 -104.69 
L 115.769096 -104.69 
L 116.245088 -104.69 
L 116.72108 -104.69 
L 117.197072 -104.69 
L 117.673064 -104.69 
L 118.149056 -104.69 
L 118.625048 -104.69 
L 119.10104 -104.69 
L 119.577032 -104.69 
L 120.053023 -104.69 
L 120.529015 -104.69 
L 121.005007 -104.69 
L 121.480999 -104.69 
L 121.956991 -104.69 
L 122.432983 -104.69 
L 122.908975 -104.69 
L 123.384967 -104.69 
L 123.860959 -104.69 
L 124.336951 -104.69 
L 124.812943 -104.69 
L 125.288935 -104.69 
L 125.764927 -104.69 
L 126.240919 -104.69 
L 126.71691 -104.69 
L 127.192902 -104.69 
L 127.668894 -104.69 
L 128.144886 -104.69 
L 128.620878 -104.69 
L 129.09687 -104.69 
L 129.572862 -104.69 
L 130.048854 -104.69 
L 130.524846 -104.69 
L 131.000838 -104.69 
L 131.47683 -104.69 
L 131.952822 -104.69 
L 132.428814 -104.69 
L 132.904806 -104.69 
L 133.380798 -104.69 
L 133.856789 -104.69 
L 134.332781 -104.69 
L 134.808773 -104.69 
L 135.284765 -104.69 
L 135.760757 -104.69 
L 136.236749 -104.69 
L 136.712741 -104.69 
L 137.188733 -104.69 
L 137.664725 -104.69 
L 138.140717 -104.69 
L 138.616709 -104.69 
L 139.092701 -104.69 
L 139.568693 -104.69 
L 140.044685 -104.69 
L 140.520676 -104.69 
L 140.996668 -104.69 
L 141.47266 -104.69 
L 141.948652 -104.69 
L 142.424644 -104.69 
L 142.900636 -104.69 
L 143.376628 -104.69 
L 143.85262 -104.69 
L 144.328612 -104.69 
L 144.804604 -104.69 
L 145.280596 -104.69 
L 145.756588 -104.69 
L 146.23258 -104.69 
L 146.708572 -104.69 
L 147.184563 -104.69 
L 147.660555 -104.69 
L 148.136547 -104.69 
L 148.612539 -104.69 
L 149.088531 -104.69 
L 149.564523 -104.69 
L 150.040515 -104.69 
L 150.516507 -104.69 
L 150.992499 -104.69 
L 151.468491 -104.69 
L 151.944483 -104.69 
L 152.420475 -104.69 
L 152.896467 -104.69 
L 153.372459 -104.69 
L 153.84845 -104.69 
L 154.324442 -104.69 
L 154.800434 -104.69 
L 155.276426 -104.69 
L 155.752418 -104.69 
L 156.22841 -104.69 
L 156.704402 -104.69 
L 157.180394 -104.69 
L 157.656386 -104.69 
L 158.132378 -104.69 
L 158.60837 -104.69 
L 159.084362 -104.69 
L 159.560354 -104.69 
L 160.036346 -104.69 
L 160.512337 -104.69 
L 160.988329 -104.69 
L 161.464321 -104.69 
L 161.940313 -104.69 
L 162.416305 -104.69 
L 162.892297 -104.69 
L 163.368289 -104.69 
L 163.844281 -104.69 
L 164.320273 -104.69 
L 164.796265 -104.69 
L 165.272257 -104.69 
L 165.748249 -104.69 
L 166.224241 -104.69 
L 166.700233 -104.69 
L 167.176224 -104.69 
L 167.652216 -104.69 
L 168.128208 -104.69 
L 168.6042 -104.69 
L 169.080192 -104.69 
L 169.556184 -104.69 
L 169.556184 -105.252403 
L 169.556184 -105.252403 
L 169.080192 -105.320834 
L 168.6042 -105.395284 
L 168.128208 -105.475963 
L 167.652216 -105.563045 
L 167.176224 -105.656667 
L 166.700233 -105.756921 
L 166.224241 -105.863851 
L 165.748249 -105.977451 
L 165.272257 -106.09766 
L 164.796265 -106.224362 
L 164.320273 -106.357386 
L 163.844281 -106.496503 
L 163.368289 -106.64143 
L 162.892297 -106.791833 
L 162.416305 -106.947327 
L 161.940313 -107.107484 
L 161.464321 -107.271838 
L 160.988329 -107.439892 
L 160.512337 -107.611121 
L 160.036346 -107.784987 
L 159.560354 -107.96094 
L 159.084362 -108.138432 
L 158.60837 -108.31692 
L 158.132378 -108.495879 
L 157.656386 -108.674802 
L 157.180394 -108.853214 
L 156.704402 -109.030672 
L 156.22841 -109.20677 
L 155.752418 -109.381144 
L 155.276426 -109.553469 
L 154.800434 -109.723463 
L 154.324442 -109.890884 
L 153.84845 -110.055524 
L 153.372459 -110.217212 
L 152.896467 -110.375803 
L 152.420475 -110.531171 
L 151.944483 -110.683211 
L 151.468491 -110.831824 
L 150.992499 -110.976912 
L 150.516507 -111.118377 
L 150.040515 -111.256108 
L 149.564523 -111.389983 
L 149.088531 -111.519858 
L 148.612539 -111.645573 
L 148.136547 -111.766943 
L 147.660555 -111.883763 
L 147.184563 -111.995811 
L 146.708572 -112.102845 
L 146.23258 -112.204613 
L 145.756588 -112.300859 
L 145.280596 -112.391325 
L 144.804604 -112.47576 
L 144.328612 -112.55393 
L 143.85262 -112.625624 
L 143.376628 -112.690659 
L 142.900636 -112.748891 
L 142.424644 -112.800215 
L 141.948652 -112.844579 
L 141.47266 -112.881979 
L 140.996668 -112.912466 
L 140.520676 -112.936147 
L 140.044685 -112.953184 
L 139.568693 -112.963791 
L 139.092701 -112.968232 
L 138.616709 -112.966821 
L 138.140717 -112.959907 
L 137.664725 -112.94788 
L 137.188733 -112.931154 
L 136.712741 -112.910168 
L 136.236749 -112.885376 
L 135.760757 -112.857239 
L 135.284765 -112.826221 
L 134.808773 -112.792783 
L 134.332781 -112.757376 
L 133.856789 -112.720441 
L 133.380798 -112.682397 
L 132.904806 -112.643648 
L 132.428814 -112.604573 
L 131.952822 -112.565527 
L 131.47683 -112.52684 
L 131.000838 -112.488818 
L 130.524846 -112.451738 
L 130.048854 -112.415849 
L 129.572862 -112.381376 
L 129.09687 -112.348513 
L 128.620878 -112.317425 
L 128.144886 -112.288249 
L 127.668894 -112.261089 
L 127.192902 -112.236017 
L 126.71691 -112.213072 
L 126.240919 -112.192254 
L 125.764927 -112.173529 
L 125.288935 -112.156822 
L 124.812943 -112.142016 
L 124.336951 -112.128954 
L 123.860959 -112.11744 
L 123.384967 -112.107233 
L 122.908975 -112.098054 
L 122.432983 -112.089586 
L 121.956991 -112.081478 
L 121.480999 -112.073348 
L 121.005007 -112.064789 
L 120.529015 -112.055375 
L 120.053023 -112.044665 
L 119.577032 -112.032216 
L 119.10104 -112.017585 
L 118.625048 -112.000338 
L 118.149056 -111.980061 
L 117.673064 -111.956366 
L 117.197072 -111.928899 
L 116.72108 -111.897346 
L 116.245088 -111.861438 
L 115.769096 -111.82096 
L 115.293104 -111.775752 
L 114.817112 -111.725713 
L 114.34112 -111.670801 
L 113.865128 -111.611037 
L 113.389136 -111.546499 
L 112.913145 -111.477323 
L 112.437153 -111.403697 
L 111.961161 -111.325861 
L 111.485169 -111.244096 
L 111.009177 -111.158722 
L 110.533185 -111.070088 
L 110.057193 -110.97857 
L 109.581201 -110.884558 
L 109.105209 -110.788454 
L 108.629217 -110.690661 
L 108.153225 -110.591581 
L 107.677233 -110.491607 
L 107.201241 -110.391116 
L 106.725249 -110.29047 
L 106.249258 -110.190007 
L 105.773266 -110.090042 
L 105.297274 -109.990862 
L 104.821282 -109.892729 
L 104.34529 -109.795875 
L 103.869298 -109.700503 
L 103.393306 -109.60679 
L 102.917314 -109.514887 
L 102.441322 -109.424915 
L 101.96533 -109.336974 
L 101.489338 -109.251138 
L 101.013346 -109.167459 
L 100.537354 -109.085969 
L 100.061362 -109.006675 
L 99.585371 -108.929566 
L 99.109379 -108.85461 
L 98.633387 -108.781755 
L 98.157395 -108.710929 
L 97.681403 -108.64204 
L 97.205411 -108.574974 
L 96.729419 -108.509598 
L 96.253427 -108.445759 
L 95.777435 -108.383284 
L 95.301443 -108.32198 
L 94.825451 -108.261638 
L 94.349459 -108.202034 
L 93.873467 -108.142926 
L 93.397475 -108.084066 
L 92.921484 -108.025195 
L 92.445492 -107.966051 
L 91.9695 -107.906372 
L 91.493508 -107.845902 
L 91.017516 -107.784391 
L 90.541524 -107.721608 
L 90.065532 -107.657337 
L 89.58954 -107.591388 
L 89.113548 -107.523599 
L 88.637556 -107.453839 
L 88.161564 -107.382015 
L 87.685572 -107.308072 
L 87.20958 -107.231995 
L 86.733588 -107.153813 
L 86.257597 -107.073597 
L 85.781605 -106.991459 
L 85.305613 -106.907555 
L 84.829621 -106.822078 
L 84.353629 -106.735258 
L 83.877637 -106.647355 
L 83.401645 -106.55866 
L 82.925653 -106.469485 
L 82.449661 -106.38016 
L 81.973669 -106.291028 
L 81.497677 -106.202436 
L 81.021685 -106.114733 
L 80.545693 -106.028264 
L 80.069701 -105.943362 
L 79.59371 -105.860344 
L 79.117718 -105.779509 
L 78.641726 -105.70113 
L 78.165734 -105.625454 
L 77.689742 -105.552697 
L 77.21375 -105.483044 
L 76.737758 -105.416647 
L 76.261766 -105.353621 
L 75.785774 -105.29405 
L 75.309782 -105.237986 
L 74.83379 -105.185444 
z
" style="stroke: #21918c; stroke-width: 1.25"/>
    </defs>
    <g>
     <use xlink:href="#m7734797940" x="0" y="174.26" style="fill: #21918c; fill-opacity: 0.7; stroke: #21918c; stroke-width: 1.25"/>
    </g>
   </g>
   <g id="line2d_3">
    <path d="M 7.2 69.57 
L 216.45 69.57 
" style="fill: none; stroke: #21918c; stroke-opacity: 0.9; stroke-linecap: round"/>
   </g>
   <g id="text_3">
    <!-- 2 -->
    <g style="fill: #21918c" transform="translate(7.2 68.652) scale(0.12 -0.12)">
     <defs>
      <path id="IBMPlexSans-Bold-32" d="M 3526 0 
L 365 0 
L 365 877 
L 1741 2054 
Q 1926 2214 2054 2345 
Q 2182 2477 2262 2601 
Q 2342 2726 2377 2848 
Q 2413 2970 2413 3110 
L 2413 3200 
Q 2413 3328 2361 3424 
Q 2310 3520 2227 3584 
Q 2144 3648 2038 3680 
Q 1933 3712 1824 3712 
Q 1664 3712 1545 3661 
Q 1427 3610 1340 3523 
Q 1254 3437 1196 3325 
Q 1139 3213 1107 3085 
L 269 3405 
Q 346 3635 480 3843 
Q 614 4051 816 4208 
Q 1018 4365 1293 4454 
Q 1568 4544 1914 4544 
Q 2278 4544 2560 4441 
Q 2842 4339 3037 4160 
Q 3232 3981 3334 3734 
Q 3437 3488 3437 3200 
Q 3437 2912 3341 2675 
Q 3245 2438 3081 2230 
Q 2918 2022 2700 1836 
Q 2483 1651 2246 1459 
L 1414 806 
L 3526 806 
L 3526 0 
z
" transform="scale(0.015625)"/>
     </defs>
     <use xlink:href="#IBMPlexSans-Bold-32"/>
    </g>
   </g>
  </g>
  <g id="axes_4">
   <g id="patch_5">
    <path d="M 7.2 79.965 
L 216.45 79.965 
L 216.45 38.385 
L 7.2 38.385 
L 7.2 79.965 
z
" style="fill: none"/>
   </g>
   <g id="matplotlib.axis_7">
    <g id="xtick_13"/>
    <g id="xtick_14"/>
    <g id="xtick_15"/>
    <g id="xtick_16"/>
   </g>
   <g id="matplotlib.axis_8"/>
   <g id="FillBetweenPolyCollection_3">
    <defs>
     <path id="md396eedb35" d="M 45.507021 -94.636534 
L 45.507021 -94.295 
L 46.224331 -94.295 
L 46.941642 -94.295 
L 47.658952 -94.295 
L 48.376262 -94.295 
L 49.093573 -94.295 
L 49.810883 -94.295 
L 50.528194 -94.295 
L 51.245504 -94.295 
L 51.962814 -94.295 
L 52.680125 -94.295 
L 53.397435 -94.295 
L 54.114745 -94.295 
L 54.832056 -94.295 
L 55.549366 -94.295 
L 56.266677 -94.295 
L 56.983987 -94.295 
L 57.701297 -94.295 
L 58.418608 -94.295 
L 59.135918 -94.295 
L 59.853228 -94.295 
L 60.570539 -94.295 
L 61.287849 -94.295 
L 62.00516 -94.295 
L 62.72247 -94.295 
L 63.43978 -94.295 
L 64.157091 -94.295 
L 64.874401 -94.295 
L 65.591711 -94.295 
L 66.309022 -94.295 
L 67.026332 -94.295 
L 67.743642 -94.295 
L 68.460953 -94.295 
L 69.178263 -94.295 
L 69.895574 -94.295 
L 70.612884 -94.295 
L 71.330194 -94.295 
L 72.047505 -94.295 
L 72.764815 -94.295 
L 73.482125 -94.295 
L 74.199436 -94.295 
L 74.916746 -94.295 
L 75.634057 -94.295 
L 76.351367 -94.295 
L 77.068677 -94.295 
L 77.785988 -94.295 
L 78.503298 -94.295 
L 79.220608 -94.295 
L 79.937919 -94.295 
L 80.655229 -94.295 
L 81.37254 -94.295 
L 82.08985 -94.295 
L 82.80716 -94.295 
L 83.524471 -94.295 
L 84.241781 -94.295 
L 84.959091 -94.295 
L 85.676402 -94.295 
L 86.393712 -94.295 
L 87.111022 -94.295 
L 87.828333 -94.295 
L 88.545643 -94.295 
L 89.262954 -94.295 
L 89.980264 -94.295 
L 90.697574 -94.295 
L 91.414885 -94.295 
L 92.132195 -94.295 
L 92.849505 -94.295 
L 93.566816 -94.295 
L 94.284126 -94.295 
L 95.001437 -94.295 
L 95.718747 -94.295 
L 96.436057 -94.295 
L 97.153368 -94.295 
L 97.870678 -94.295 
L 98.587988 -94.295 
L 99.305299 -94.295 
L 100.022609 -94.295 
L 100.73992 -94.295 
L 101.45723 -94.295 
L 102.17454 -94.295 
L 102.891851 -94.295 
L 103.609161 -94.295 
L 104.326471 -94.295 
L 105.043782 -94.295 
L 105.761092 -94.295 
L 106.478402 -94.295 
L 107.195713 -94.295 
L 107.913023 -94.295 
L 108.630334 -94.295 
L 109.347644 -94.295 
L 110.064954 -94.295 
L 110.782265 -94.295 
L 111.499575 -94.295 
L 112.216885 -94.295 
L 112.934196 -94.295 
L 113.651506 -94.295 
L 114.368817 -94.295 
L 115.086127 -94.295 
L 115.803437 -94.295 
L 116.520748 -94.295 
L 117.238058 -94.295 
L 117.955368 -94.295 
L 118.672679 -94.295 
L 119.389989 -94.295 
L 120.1073 -94.295 
L 120.82461 -94.295 
L 121.54192 -94.295 
L 122.259231 -94.295 
L 122.976541 -94.295 
L 123.693851 -94.295 
L 124.411162 -94.295 
L 125.128472 -94.295 
L 125.845782 -94.295 
L 126.563093 -94.295 
L 127.280403 -94.295 
L 127.997714 -94.295 
L 128.715024 -94.295 
L 129.432334 -94.295 
L 130.149645 -94.295 
L 130.866955 -94.295 
L 131.584265 -94.295 
L 132.301576 -94.295 
L 133.018886 -94.295 
L 133.736197 -94.295 
L 134.453507 -94.295 
L 135.170817 -94.295 
L 135.888128 -94.295 
L 136.605438 -94.295 
L 137.322748 -94.295 
L 138.040059 -94.295 
L 138.757369 -94.295 
L 139.47468 -94.295 
L 140.19199 -94.295 
L 140.9093 -94.295 
L 141.626611 -94.295 
L 142.343921 -94.295 
L 143.061231 -94.295 
L 143.778542 -94.295 
L 144.495852 -94.295 
L 145.213162 -94.295 
L 145.930473 -94.295 
L 146.647783 -94.295 
L 147.365094 -94.295 
L 148.082404 -94.295 
L 148.799714 -94.295 
L 149.517025 -94.295 
L 150.234335 -94.295 
L 150.951645 -94.295 
L 151.668956 -94.295 
L 152.386266 -94.295 
L 153.103577 -94.295 
L 153.820887 -94.295 
L 154.538197 -94.295 
L 155.255508 -94.295 
L 155.972818 -94.295 
L 156.690128 -94.295 
L 157.407439 -94.295 
L 158.124749 -94.295 
L 158.84206 -94.295 
L 159.55937 -94.295 
L 160.27668 -94.295 
L 160.993991 -94.295 
L 161.711301 -94.295 
L 162.428611 -94.295 
L 163.145922 -94.295 
L 163.863232 -94.295 
L 164.580542 -94.295 
L 165.297853 -94.295 
L 166.015163 -94.295 
L 166.732474 -94.295 
L 167.449784 -94.295 
L 168.167094 -94.295 
L 168.884405 -94.295 
L 169.601715 -94.295 
L 170.319025 -94.295 
L 171.036336 -94.295 
L 171.753646 -94.295 
L 172.470957 -94.295 
L 173.188267 -94.295 
L 173.905577 -94.295 
L 174.622888 -94.295 
L 175.340198 -94.295 
L 176.057508 -94.295 
L 176.774819 -94.295 
L 177.492129 -94.295 
L 178.20944 -94.295 
L 178.92675 -94.295 
L 179.64406 -94.295 
L 180.361371 -94.295 
L 181.078681 -94.295 
L 181.795991 -94.295 
L 182.513302 -94.295 
L 183.230612 -94.295 
L 183.947922 -94.295 
L 184.665233 -94.295 
L 185.382543 -94.295 
L 186.099854 -94.295 
L 186.817164 -94.295 
L 187.534474 -94.295 
L 188.251785 -94.295 
L 188.251785 -94.680034 
L 188.251785 -94.680034 
L 187.534474 -94.726377 
L 186.817164 -94.776715 
L 186.099854 -94.831171 
L 185.382543 -94.88985 
L 184.665233 -94.952827 
L 183.947922 -95.020147 
L 183.230612 -95.091824 
L 182.513302 -95.167836 
L 181.795991 -95.248128 
L 181.078681 -95.332605 
L 180.361371 -95.421139 
L 179.64406 -95.513564 
L 178.92675 -95.609678 
L 178.20944 -95.709247 
L 177.492129 -95.812008 
L 176.774819 -95.917671 
L 176.057508 -96.02592 
L 175.340198 -96.136425 
L 174.622888 -96.248841 
L 173.905577 -96.362816 
L 173.188267 -96.477992 
L 172.470957 -96.594019 
L 171.753646 -96.710552 
L 171.036336 -96.82726 
L 170.319025 -96.943828 
L 169.601715 -97.059965 
L 168.884405 -97.175403 
L 168.167094 -97.2899 
L 167.449784 -97.403243 
L 166.732474 -97.515248 
L 166.015163 -97.625758 
L 165.297853 -97.734642 
L 164.580542 -97.841795 
L 163.863232 -97.947132 
L 163.145922 -98.050584 
L 162.428611 -98.152096 
L 161.711301 -98.251622 
L 160.993991 -98.349119 
L 160.27668 -98.444542 
L 159.55937 -98.537841 
L 158.84206 -98.628959 
L 158.124749 -98.717823 
L 157.407439 -98.804344 
L 156.690128 -98.88842 
L 155.972818 -98.969925 
L 155.255508 -99.048719 
L 154.538197 -99.124645 
L 153.820887 -99.197528 
L 153.103577 -99.267183 
L 152.386266 -99.333419 
L 151.668956 -99.396037 
L 150.951645 -99.454842 
L 150.234335 -99.509644 
L 149.517025 -99.560267 
L 148.799714 -99.606549 
L 148.082404 -99.648351 
L 147.365094 -99.685563 
L 146.647783 -99.718102 
L 145.930473 -99.745921 
L 145.213162 -99.76901 
L 144.495852 -99.787394 
L 143.778542 -99.80114 
L 143.061231 -99.810352 
L 142.343921 -99.815171 
L 141.626611 -99.815774 
L 140.9093 -99.812371 
L 140.19199 -99.805199 
L 139.47468 -99.794525 
L 138.757369 -99.780635 
L 138.040059 -99.763834 
L 137.322748 -99.744437 
L 136.605438 -99.722773 
L 135.888128 -99.699172 
L 135.170817 -99.673966 
L 134.453507 -99.647485 
L 133.736197 -99.620051 
L 133.018886 -99.59198 
L 132.301576 -99.563573 
L 131.584265 -99.535121 
L 130.866955 -99.506897 
L 130.149645 -99.479155 
L 129.432334 -99.452132 
L 128.715024 -99.426043 
L 127.997714 -99.401082 
L 127.280403 -99.377416 
L 126.563093 -99.355191 
L 125.845782 -99.334522 
L 125.128472 -99.315499 
L 124.411162 -99.298181 
L 123.693851 -99.282596 
L 122.976541 -99.268738 
L 122.259231 -99.256572 
L 121.54192 -99.246024 
L 120.82461 -99.236988 
L 120.1073 -99.229325 
L 119.389989 -99.222859 
L 118.672679 -99.217385 
L 117.955368 -99.212666 
L 117.238058 -99.208437 
L 116.520748 -99.20441 
L 115.803437 -99.200277 
L 115.086127 -99.195712 
L 114.368817 -99.190381 
L 113.651506 -99.183946 
L 112.934196 -99.176069 
L 112.216885 -99.166419 
L 111.499575 -99.154682 
L 110.782265 -99.140562 
L 110.064954 -99.123788 
L 109.347644 -99.104122 
L 108.630334 -99.081362 
L 107.913023 -99.055345 
L 107.195713 -99.025952 
L 106.478402 -98.993109 
L 105.761092 -98.956788 
L 105.043782 -98.917009 
L 104.326471 -98.873837 
L 103.609161 -98.82738 
L 102.891851 -98.777789 
L 102.17454 -98.72525 
L 101.45723 -98.669986 
L 100.73992 -98.612244 
L 100.022609 -98.552296 
L 99.305299 -98.490433 
L 98.587988 -98.426954 
L 97.870678 -98.362166 
L 97.153368 -98.296376 
L 96.436057 -98.229888 
L 95.718747 -98.162993 
L 95.001437 -98.095973 
L 94.284126 -98.029088 
L 93.566816 -97.962581 
L 92.849505 -97.896673 
L 92.132195 -97.831559 
L 91.414885 -97.767409 
L 90.697574 -97.704371 
L 89.980264 -97.642563 
L 89.262954 -97.582083 
L 88.545643 -97.523001 
L 87.828333 -97.46537 
L 87.111022 -97.409217 
L 86.393712 -97.354552 
L 85.676402 -97.301368 
L 84.959091 -97.249642 
L 84.241781 -97.199336 
L 83.524471 -97.150398 
L 82.80716 -97.102767 
L 82.08985 -97.056369 
L 81.37254 -97.011123 
L 80.655229 -96.966937 
L 79.937919 -96.923713 
L 79.220608 -96.881346 
L 78.503298 -96.839722 
L 77.785988 -96.798725 
L 77.068677 -96.758229 
L 76.351367 -96.718109 
L 75.634057 -96.678233 
L 74.916746 -96.638466 
L 74.199436 -96.598672 
L 73.482125 -96.558717 
L 72.764815 -96.518464 
L 72.047505 -96.477783 
L 71.330194 -96.436546 
L 70.612884 -96.394632 
L 69.895574 -96.351929 
L 69.178263 -96.308333 
L 68.460953 -96.263755 
L 67.743642 -96.21812 
L 67.026332 -96.171366 
L 66.309022 -96.123452 
L 65.591711 -96.074354 
L 64.874401 -96.024067 
L 64.157091 -95.972609 
L 63.43978 -95.920017 
L 62.72247 -95.86635 
L 62.00516 -95.811689 
L 61.287849 -95.756133 
L 60.570539 -95.699802 
L 59.853228 -95.642831 
L 59.135918 -95.585374 
L 58.418608 -95.527596 
L 57.701297 -95.469675 
L 56.983987 -95.411797 
L 56.266677 -95.354155 
L 55.549366 -95.296945 
L 54.832056 -95.240362 
L 54.114745 -95.1846 
L 53.397435 -95.129849 
L 52.680125 -95.076289 
L 51.962814 -95.024091 
L 51.245504 -94.973414 
L 50.528194 -94.924402 
L 49.810883 -94.877184 
L 49.093573 -94.831873 
L 48.376262 -94.788561 
L 47.658952 -94.747324 
L 46.941642 -94.708218 
L 46.224331 -94.671282 
L 45.507021 -94.636534 
z
" style="stroke: #355f8d; stroke-width: 1.25"/>
    </defs>
    <g>
     <use xlink:href="#md396eedb35" x="0" y="174.26" style="fill: #355f8d; fill-opacity: 0.7; stroke: #355f8d; stroke-width: 1.25"/>
    </g>
   </g>
   <g id="line2d_4">
    <path d="M 7.2 79.965 
L 216.45 79.965 
" style="fill: none; stroke: #355f8d; stroke-opacity: 0.9; stroke-linecap: round"/>
   </g>
   <g id="text_4">
    <!-- 3 -->
    <g style="fill: #355f8d" transform="translate(7.2 79.047) scale(0.12 -0.12)">
     <defs>
      <path id="IBMPlexSans-Bold-33" d="M 1677 2701 
Q 2035 2701 2198 2838 
Q 2362 2976 2362 3181 
L 2362 3226 
Q 2362 3469 2205 3616 
Q 2048 3763 1760 3763 
Q 1491 3763 1254 3625 
Q 1018 3488 851 3232 
L 250 3795 
Q 378 3962 525 4099 
Q 672 4237 857 4336 
Q 1043 4435 1273 4489 
Q 1504 4544 1792 4544 
Q 2150 4544 2441 4461 
Q 2733 4378 2941 4221 
Q 3149 4064 3261 3846 
Q 3373 3629 3373 3360 
Q 3373 3149 3305 2976 
Q 3238 2803 3120 2675 
Q 3002 2547 2848 2467 
Q 2694 2387 2522 2355 
L 2522 2317 
Q 2720 2278 2889 2192 
Q 3059 2106 3184 1971 
Q 3309 1837 3379 1654 
Q 3450 1472 3450 1242 
Q 3450 941 3328 697 
Q 3206 454 2982 281 
Q 2758 109 2444 16 
Q 2131 -77 1754 -77 
Q 1414 -77 1152 -6 
Q 890 64 694 182 
Q 499 301 355 454 
Q 211 608 102 781 
L 813 1331 
Q 960 1056 1174 880 
Q 1389 704 1754 704 
Q 2080 704 2262 867 
Q 2445 1030 2445 1312 
L 2445 1350 
Q 2445 1626 2237 1763 
Q 2029 1901 1664 1901 
L 1261 1901 
L 1261 2701 
L 1677 2701 
z
" transform="scale(0.015625)"/>
     </defs>
     <use xlink:href="#IBMPlexSans-Bold-33"/>
    </g>
   </g>
  </g>
  <g id="axes_5">
   <g id="patch_6">
    <path d="M 7.2 90.36 
L 216.45 90.36 
L 216.45 48.78 
L 7.2 48.78 
L 7.2 90.36 
z
" style="fill: none"/>
   </g>
   <g id="matplotlib.axis_9">
    <g id="xtick_17"/>
    <g id="xtick_18"/>
    <g id="xtick_19"/>
    <g id="xtick_20"/>
   </g>
   <g id="matplotlib.axis_10"/>
   <g id="FillBetweenPolyCollection_4">
    <defs>
     <path id="m096cf1210d" d="M 16.711364 -84.178985 
L 16.711364 -83.9 
L 17.66728 -83.9 
L 18.623196 -83.9 
L 19.579111 -83.9 
L 20.535027 -83.9 
L 21.490943 -83.9 
L 22.446859 -83.9 
L 23.402775 -83.9 
L 24.358691 -83.9 
L 25.314607 -83.9 
L 26.270523 -83.9 
L 27.226439 -83.9 
L 28.182355 -83.9 
L 29.138271 -83.9 
L 30.094187 -83.9 
L 31.050103 -83.9 
L 32.006019 -83.9 
L 32.961935 -83.9 
L 33.917851 -83.9 
L 34.873767 -83.9 
L 35.829683 -83.9 
L 36.785598 -83.9 
L 37.741514 -83.9 
L 38.69743 -83.9 
L 39.653346 -83.9 
L 40.609262 -83.9 
L 41.565178 -83.9 
L 42.521094 -83.9 
L 43.47701 -83.9 
L 44.432926 -83.9 
L 45.388842 -83.9 
L 46.344758 -83.9 
L 47.300674 -83.9 
L 48.25659 -83.9 
L 49.212506 -83.9 
L 50.168422 -83.9 
L 51.124338 -83.9 
L 52.080254 -83.9 
L 53.036169 -83.9 
L 53.992085 -83.9 
L 54.948001 -83.9 
L 55.903917 -83.9 
L 56.859833 -83.9 
L 57.815749 -83.9 
L 58.771665 -83.9 
L 59.727581 -83.9 
L 60.683497 -83.9 
L 61.639413 -83.9 
L 62.595329 -83.9 
L 63.551245 -83.9 
L 64.507161 -83.9 
L 65.463077 -83.9 
L 66.418993 -83.9 
L 67.374909 -83.9 
L 68.330825 -83.9 
L 69.286741 -83.9 
L 70.242656 -83.9 
L 71.198572 -83.9 
L 72.154488 -83.9 
L 73.110404 -83.9 
L 74.06632 -83.9 
L 75.022236 -83.9 
L 75.978152 -83.9 
L 76.934068 -83.9 
L 77.889984 -83.9 
L 78.8459 -83.9 
L 79.801816 -83.9 
L 80.757732 -83.9 
L 81.713648 -83.9 
L 82.669564 -83.9 
L 83.62548 -83.9 
L 84.581396 -83.9 
L 85.537312 -83.9 
L 86.493228 -83.9 
L 87.449143 -83.9 
L 88.405059 -83.9 
L 89.360975 -83.9 
L 90.316891 -83.9 
L 91.272807 -83.9 
L 92.228723 -83.9 
L 93.184639 -83.9 
L 94.140555 -83.9 
L 95.096471 -83.9 
L 96.052387 -83.9 
L 97.008303 -83.9 
L 97.964219 -83.9 
L 98.920135 -83.9 
L 99.876051 -83.9 
L 100.831967 -83.9 
L 101.787883 -83.9 
L 102.743799 -83.9 
L 103.699714 -83.9 
L 104.65563 -83.9 
L 105.611546 -83.9 
L 106.567462 -83.9 
L 107.523378 -83.9 
L 108.479294 -83.9 
L 109.43521 -83.9 
L 110.391126 -83.9 
L 111.347042 -83.9 
L 112.302958 -83.9 
L 113.258874 -83.9 
L 114.21479 -83.9 
L 115.170706 -83.9 
L 116.126622 -83.9 
L 117.082538 -83.9 
L 118.038454 -83.9 
L 118.99437 -83.9 
L 119.950286 -83.9 
L 120.906201 -83.9 
L 121.862117 -83.9 
L 122.818033 -83.9 
L 123.773949 -83.9 
L 124.729865 -83.9 
L 125.685781 -83.9 
L 126.641697 -83.9 
L 127.597613 -83.9 
L 128.553529 -83.9 
L 129.509445 -83.9 
L 130.465361 -83.9 
L 131.421277 -83.9 
L 132.377193 -83.9 
L 133.333109 -83.9 
L 134.289025 -83.9 
L 135.244941 -83.9 
L 136.200857 -83.9 
L 137.156772 -83.9 
L 138.112688 -83.9 
L 139.068604 -83.9 
L 140.02452 -83.9 
L 140.980436 -83.9 
L 141.936352 -83.9 
L 142.892268 -83.9 
L 143.848184 -83.9 
L 144.8041 -83.9 
L 145.760016 -83.9 
L 146.715932 -83.9 
L 147.671848 -83.9 
L 148.627764 -83.9 
L 149.58368 -83.9 
L 150.539596 -83.9 
L 151.495512 -83.9 
L 152.451428 -83.9 
L 153.407344 -83.9 
L 154.363259 -83.9 
L 155.319175 -83.9 
L 156.275091 -83.9 
L 157.231007 -83.9 
L 158.186923 -83.9 
L 159.142839 -83.9 
L 160.098755 -83.9 
L 161.054671 -83.9 
L 162.010587 -83.9 
L 162.966503 -83.9 
L 163.922419 -83.9 
L 164.878335 -83.9 
L 165.834251 -83.9 
L 166.790167 -83.9 
L 167.746083 -83.9 
L 168.701999 -83.9 
L 169.657915 -83.9 
L 170.613831 -83.9 
L 171.569746 -83.9 
L 172.525662 -83.9 
L 173.481578 -83.9 
L 174.437494 -83.9 
L 175.39341 -83.9 
L 176.349326 -83.9 
L 177.305242 -83.9 
L 178.261158 -83.9 
L 179.217074 -83.9 
L 180.17299 -83.9 
L 181.128906 -83.9 
L 182.084822 -83.9 
L 183.040738 -83.9 
L 183.996654 -83.9 
L 184.95257 -83.9 
L 185.908486 -83.9 
L 186.864402 -83.9 
L 187.820317 -83.9 
L 188.776233 -83.9 
L 189.732149 -83.9 
L 190.688065 -83.9 
L 191.643981 -83.9 
L 192.599897 -83.9 
L 193.555813 -83.9 
L 194.511729 -83.9 
L 195.467645 -83.9 
L 196.423561 -83.9 
L 197.379477 -83.9 
L 198.335393 -83.9 
L 199.291309 -83.9 
L 200.247225 -83.9 
L 201.203141 -83.9 
L 202.159057 -83.9 
L 203.114973 -83.9 
L 204.070889 -83.9 
L 205.026804 -83.9 
L 205.98272 -83.9 
L 206.938636 -83.9 
L 206.938636 -84.195148 
L 206.938636 -84.195148 
L 205.98272 -84.230221 
L 205.026804 -84.268253 
L 204.070889 -84.309332 
L 203.114973 -84.353525 
L 202.159057 -84.400879 
L 201.203141 -84.45142 
L 200.247225 -84.50515 
L 199.291309 -84.562044 
L 198.335393 -84.622053 
L 197.379477 -84.685102 
L 196.423561 -84.751086 
L 195.467645 -84.819878 
L 194.511729 -84.891324 
L 193.555813 -84.965249 
L 192.599897 -85.041456 
L 191.643981 -85.119728 
L 190.688065 -85.199835 
L 189.732149 -85.281534 
L 188.776233 -85.364575 
L 187.820317 -85.448702 
L 186.864402 -85.53366 
L 185.908486 -85.619195 
L 184.95257 -85.705062 
L 183.996654 -85.791027 
L 183.040738 -85.876866 
L 182.084822 -85.962375 
L 181.128906 -86.047367 
L 180.17299 -86.131673 
L 179.217074 -86.215145 
L 178.261158 -86.297658 
L 177.305242 -86.379103 
L 176.349326 -86.459392 
L 175.39341 -86.538455 
L 174.437494 -86.616233 
L 173.481578 -86.692683 
L 172.525662 -86.767767 
L 171.569746 -86.841454 
L 170.613831 -86.913715 
L 169.657915 -86.98452 
L 168.701999 -87.053832 
L 167.746083 -87.12161 
L 166.790167 -87.187799 
L 165.834251 -87.252337 
L 164.878335 -87.315145 
L 163.922419 -87.376131 
L 162.966503 -87.43519 
L 162.010587 -87.492205 
L 161.054671 -87.547044 
L 160.098755 -87.599569 
L 159.142839 -87.649635 
L 158.186923 -87.697091 
L 157.231007 -87.741787 
L 156.275091 -87.783577 
L 155.319175 -87.822323 
L 154.363259 -87.857896 
L 153.407344 -87.890186 
L 152.451428 -87.919098 
L 151.495512 -87.944559 
L 150.539596 -87.966523 
L 149.58368 -87.984967 
L 148.627764 -87.999898 
L 147.671848 -88.011351 
L 146.715932 -88.01939 
L 145.760016 -88.024107 
L 144.8041 -88.025622 
L 143.848184 -88.02408 
L 142.892268 -88.019651 
L 141.936352 -88.012524 
L 140.980436 -88.002909 
L 140.02452 -87.99103 
L 139.068604 -87.977124 
L 138.112688 -87.961435 
L 137.156772 -87.944217 
L 136.200857 -87.925723 
L 135.244941 -87.906208 
L 134.289025 -87.885923 
L 133.333109 -87.865114 
L 132.377193 -87.844021 
L 131.421277 -87.822872 
L 130.465361 -87.801884 
L 129.509445 -87.781259 
L 128.553529 -87.761188 
L 127.597613 -87.741841 
L 126.641697 -87.723373 
L 125.685781 -87.705918 
L 124.729865 -87.689589 
L 123.773949 -87.674479 
L 122.818033 -87.660657 
L 121.862117 -87.648168 
L 120.906201 -87.637031 
L 119.950286 -87.627241 
L 118.99437 -87.618764 
L 118.038454 -87.611542 
L 117.082538 -87.605486 
L 116.126622 -87.600483 
L 115.170706 -87.596394 
L 114.21479 -87.593053 
L 113.258874 -87.590272 
L 112.302958 -87.587841 
L 111.347042 -87.585534 
L 110.391126 -87.583107 
L 109.43521 -87.580306 
L 108.479294 -87.57687 
L 107.523378 -87.572535 
L 106.567462 -87.567038 
L 105.611546 -87.560124 
L 104.65563 -87.551549 
L 103.699714 -87.541086 
L 102.743799 -87.52853 
L 101.787883 -87.513699 
L 100.831967 -87.496442 
L 99.876051 -87.476638 
L 98.920135 -87.454202 
L 97.964219 -87.429086 
L 97.008303 -87.401276 
L 96.052387 -87.370797 
L 95.096471 -87.33771 
L 94.140555 -87.302111 
L 93.184639 -87.264128 
L 92.228723 -87.223918 
L 91.272807 -87.181663 
L 90.316891 -87.13757 
L 89.360975 -87.091859 
L 88.405059 -87.044766 
L 87.449143 -86.996534 
L 86.493228 -86.947409 
L 85.537312 -86.897637 
L 84.581396 -86.847459 
L 83.62548 -86.797104 
L 82.669564 -86.746793 
L 81.713648 -86.696728 
L 80.757732 -86.647095 
L 79.801816 -86.598059 
L 78.8459 -86.549765 
L 77.889984 -86.502337 
L 76.934068 -86.455875 
L 75.978152 -86.410459 
L 75.022236 -86.366149 
L 74.06632 -86.322982 
L 73.110404 -86.280978 
L 72.154488 -86.24014 
L 71.198572 -86.200455 
L 70.242656 -86.161895 
L 69.286741 -86.12442 
L 68.330825 -86.08798 
L 67.374909 -86.052515 
L 66.418993 -86.017958 
L 65.463077 -85.984234 
L 64.507161 -85.951266 
L 63.551245 -85.918968 
L 62.595329 -85.887256 
L 61.639413 -85.856041 
L 60.683497 -85.825232 
L 59.727581 -85.794739 
L 58.771665 -85.76447 
L 57.815749 -85.734334 
L 56.859833 -85.704241 
L 55.903917 -85.674102 
L 54.948001 -85.643831 
L 53.992085 -85.613342 
L 53.036169 -85.582555 
L 52.080254 -85.551393 
L 51.124338 -85.519783 
L 50.168422 -85.48766 
L 49.212506 -85.454963 
L 48.25659 -85.421638 
L 47.300674 -85.387641 
L 46.344758 -85.352935 
L 45.388842 -85.317494 
L 44.432926 -85.281301 
L 43.47701 -85.244352 
L 42.521094 -85.206651 
L 41.565178 -85.168216 
L 40.609262 -85.129077 
L 39.653346 -85.089275 
L 38.69743 -85.048863 
L 37.741514 -85.007906 
L 36.785598 -84.96648 
L 35.829683 -84.92467 
L 34.873767 -84.882571 
L 33.917851 -84.840287 
L 32.961935 -84.797929 
L 32.006019 -84.755613 
L 31.050103 -84.71346 
L 30.094187 -84.671595 
L 29.138271 -84.630142 
L 28.182355 -84.589227 
L 27.226439 -84.548973 
L 26.270523 -84.509499 
L 25.314607 -84.470921 
L 24.358691 -84.433347 
L 23.402775 -84.396878 
L 22.446859 -84.361607 
L 21.490943 -84.327616 
L 20.535027 -84.294977 
L 19.579111 -84.263751 
L 18.623196 -84.233988 
L 17.66728 -84.205724 
L 16.711364 -84.178985 
z
" style="stroke: #482475; stroke-width: 1.25"/>
    </defs>
    <g>
     <use xlink:href="#m096cf1210d" x="0" y="174.26" style="fill: #482475; fill-opacity: 0.7; stroke: #482475; stroke-width: 1.25"/>
    </g>
   </g>
   <g id="line2d_5">
    <path d="M 7.2 90.36 
L 216.45 90.36 
" style="fill: none; stroke: #482475; stroke-opacity: 0.9; stroke-linecap: round"/>
   </g>
   <g id="text_5">
    <!-- 4 -->
    <g style="fill: #482475" transform="translate(7.2 89.442) scale(0.12 -0.12)">
     <defs>
      <path id="IBMPlexSans-Bold-34" d="M 2157 0 
L 2157 858 
L 192 858 
L 192 1677 
L 1933 4467 
L 3072 4467 
L 3072 1600 
L 3635 1600 
L 3635 858 
L 3072 858 
L 3072 0 
L 2157 0 
z
M 960 1600 
L 2157 1600 
L 2157 3475 
L 2093 3475 
L 960 1600 
z
" transform="scale(0.015625)"/>
     </defs>
     <use xlink:href="#IBMPlexSans-Bold-34"/>
    </g>
   </g>
  </g>
  <g id="axes_6">
   <g id="patch_7">
    <path d="M 7.2 100.755 
L 216.45 100.755 
L 216.45 59.175 
L 7.2 59.175 
L 7.2 100.755 
z
" style="fill: none"/>
   </g>
   <g id="matplotlib.axis_11">
    <g id="xtick_21"/>
    <g id="xtick_22"/>
    <g id="xtick_23"/>
    <g id="xtick_24"/>
   </g>
   <g id="matplotlib.axis_12"/>
   <g id="FillBetweenPolyCollection_5">
    <defs>
     <path id="mdccc6bba84" d="M 45.239538 -73.835192 
L 45.239538 -73.505 
L 45.95782 -73.505 
L 46.676101 -73.505 
L 47.394382 -73.505 
L 48.112664 -73.505 
L 48.830945 -73.505 
L 49.549226 -73.505 
L 50.267508 -73.505 
L 50.985789 -73.505 
L 51.70407 -73.505 
L 52.422352 -73.505 
L 53.140633 -73.505 
L 53.858914 -73.505 
L 54.577196 -73.505 
L 55.295477 -73.505 
L 56.013759 -73.505 
L 56.73204 -73.505 
L 57.450321 -73.505 
L 58.168603 -73.505 
L 58.886884 -73.505 
L 59.605165 -73.505 
L 60.323447 -73.505 
L 61.041728 -73.505 
L 61.760009 -73.505 
L 62.478291 -73.505 
L 63.196572 -73.505 
L 63.914853 -73.505 
L 64.633135 -73.505 
L 65.351416 -73.505 
L 66.069698 -73.505 
L 66.787979 -73.505 
L 67.50626 -73.505 
L 68.224542 -73.505 
L 68.942823 -73.505 
L 69.661104 -73.505 
L 70.379386 -73.505 
L 71.097667 -73.505 
L 71.815948 -73.505 
L 72.53423 -73.505 
L 73.252511 -73.505 
L 73.970792 -73.505 
L 74.689074 -73.505 
L 75.407355 -73.505 
L 76.125636 -73.505 
L 76.843918 -73.505 
L 77.562199 -73.505 
L 78.280481 -73.505 
L 78.998762 -73.505 
L 79.717043 -73.505 
L 80.435325 -73.505 
L 81.153606 -73.505 
L 81.871887 -73.505 
L 82.590169 -73.505 
L 83.30845 -73.505 
L 84.026731 -73.505 
L 84.745013 -73.505 
L 85.463294 -73.505 
L 86.181575 -73.505 
L 86.899857 -73.505 
L 87.618138 -73.505 
L 88.336419 -73.505 
L 89.054701 -73.505 
L 89.772982 -73.505 
L 90.491264 -73.505 
L 91.209545 -73.505 
L 91.927826 -73.505 
L 92.646108 -73.505 
L 93.364389 -73.505 
L 94.08267 -73.505 
L 94.800952 -73.505 
L 95.519233 -73.505 
L 96.237514 -73.505 
L 96.955796 -73.505 
L 97.674077 -73.505 
L 98.392358 -73.505 
L 99.11064 -73.505 
L 99.828921 -73.505 
L 100.547203 -73.505 
L 101.265484 -73.505 
L 101.983765 -73.505 
L 102.702047 -73.505 
L 103.420328 -73.505 
L 104.138609 -73.505 
L 104.856891 -73.505 
L 105.575172 -73.505 
L 106.293453 -73.505 
L 107.011735 -73.505 
L 107.730016 -73.505 
L 108.448297 -73.505 
L 109.166579 -73.505 
L 109.88486 -73.505 
L 110.603141 -73.505 
L 111.321423 -73.505 
L 112.039704 -73.505 
L 112.757986 -73.505 
L 113.476267 -73.505 
L 114.194548 -73.505 
L 114.91283 -73.505 
L 115.631111 -73.505 
L 116.349392 -73.505 
L 117.067674 -73.505 
L 117.785955 -73.505 
L 118.504236 -73.505 
L 119.222518 -73.505 
L 119.940799 -73.505 
L 120.65908 -73.505 
L 121.377362 -73.505 
L 122.095643 -73.505 
L 122.813924 -73.505 
L 123.532206 -73.505 
L 124.250487 -73.505 
L 124.968769 -73.505 
L 125.68705 -73.505 
L 126.405331 -73.505 
L 127.123613 -73.505 
L 127.841894 -73.505 
L 128.560175 -73.505 
L 129.278457 -73.505 
L 129.996738 -73.505 
L 130.715019 -73.505 
L 131.433301 -73.505 
L 132.151582 -73.505 
L 132.869863 -73.505 
L 133.588145 -73.505 
L 134.306426 -73.505 
L 135.024708 -73.505 
L 135.742989 -73.505 
L 136.46127 -73.505 
L 137.179552 -73.505 
L 137.897833 -73.505 
L 138.616114 -73.505 
L 139.334396 -73.505 
L 140.052677 -73.505 
L 140.770958 -73.505 
L 141.48924 -73.505 
L 142.207521 -73.505 
L 142.925802 -73.505 
L 143.644084 -73.505 
L 144.362365 -73.505 
L 145.080646 -73.505 
L 145.798928 -73.505 
L 146.517209 -73.505 
L 147.235491 -73.505 
L 147.953772 -73.505 
L 148.672053 -73.505 
L 149.390335 -73.505 
L 150.108616 -73.505 
L 150.826897 -73.505 
L 151.545179 -73.505 
L 152.26346 -73.505 
L 152.981741 -73.505 
L 153.700023 -73.505 
L 154.418304 -73.505 
L 155.136585 -73.505 
L 155.854867 -73.505 
L 156.573148 -73.505 
L 157.291429 -73.505 
L 158.009711 -73.505 
L 158.727992 -73.505 
L 159.446274 -73.505 
L 160.164555 -73.505 
L 160.882836 -73.505 
L 161.601118 -73.505 
L 162.319399 -73.505 
L 163.03768 -73.505 
L 163.755962 -73.505 
L 164.474243 -73.505 
L 165.192524 -73.505 
L 165.910806 -73.505 
L 166.629087 -73.505 
L 167.347368 -73.505 
L 168.06565 -73.505 
L 168.783931 -73.505 
L 169.502213 -73.505 
L 170.220494 -73.505 
L 170.938775 -73.505 
L 171.657057 -73.505 
L 172.375338 -73.505 
L 173.093619 -73.505 
L 173.811901 -73.505 
L 174.530182 -73.505 
L 175.248463 -73.505 
L 175.966745 -73.505 
L 176.685026 -73.505 
L 177.403307 -73.505 
L 178.121589 -73.505 
L 178.83987 -73.505 
L 179.558151 -73.505 
L 180.276433 -73.505 
L 180.994714 -73.505 
L 181.712996 -73.505 
L 182.431277 -73.505 
L 183.149558 -73.505 
L 183.86784 -73.505 
L 184.586121 -73.505 
L 185.304402 -73.505 
L 186.022684 -73.505 
L 186.740965 -73.505 
L 187.459246 -73.505 
L 188.177528 -73.505 
L 188.177528 -73.887404 
L 188.177528 -73.887404 
L 187.459246 -73.933723 
L 186.740965 -73.984069 
L 186.022684 -74.038574 
L 185.304402 -74.097343 
L 184.586121 -74.160456 
L 183.86784 -74.227963 
L 183.149558 -74.299879 
L 182.431277 -74.376185 
L 181.712996 -74.456827 
L 180.994714 -74.541712 
L 180.276433 -74.630708 
L 179.558151 -74.723649 
L 178.83987 -74.82033 
L 178.121589 -74.920515 
L 177.403307 -75.023933 
L 176.685026 -75.130289 
L 175.966745 -75.239263 
L 175.248463 -75.350515 
L 174.530182 -75.463693 
L 173.811901 -75.578437 
L 173.093619 -75.694383 
L 172.375338 -75.811171 
L 171.657057 -75.928449 
L 170.938775 -76.045879 
L 170.220494 -76.163143 
L 169.502213 -76.279942 
L 168.783931 -76.396006 
L 168.06565 -76.511091 
L 167.347368 -76.624983 
L 166.629087 -76.737497 
L 165.910806 -76.848479 
L 165.192524 -76.957801 
L 164.474243 -77.065361 
L 163.755962 -77.171078 
L 163.03768 -77.27489 
L 162.319399 -77.376745 
L 161.601118 -77.476604 
L 160.882836 -77.574427 
L 160.164555 -77.670176 
L 159.446274 -77.763804 
L 158.727992 -77.855255 
L 158.009711 -77.944458 
L 157.291429 -78.031325 
L 156.573148 -78.11575 
L 155.854867 -78.197607 
L 155.136585 -78.27675 
L 154.418304 -78.353015 
L 153.700023 -78.426222 
L 152.981741 -78.496178 
L 152.26346 -78.562681 
L 151.545179 -78.625524 
L 150.826897 -78.684503 
L 150.108616 -78.739418 
L 149.390335 -78.790082 
L 148.672053 -78.836327 
L 147.953772 -78.878005 
L 147.235491 -78.914998 
L 146.517209 -78.94722 
L 145.798928 -78.974619 
L 145.080646 -78.997181 
L 144.362365 -79.014934 
L 143.644084 -79.027944 
L 142.925802 -79.036317 
L 142.207521 -79.0402 
L 141.48924 -79.039776 
L 140.770958 -79.035263 
L 140.052677 -79.026908 
L 139.334396 -79.014989 
L 138.616114 -78.999804 
L 137.897833 -78.981671 
L 137.179552 -78.960922 
L 136.46127 -78.9379 
L 135.742989 -78.91295 
L 135.024708 -78.886422 
L 134.306426 -78.858663 
L 133.588145 -78.830012 
L 132.869863 -78.800799 
L 132.151582 -78.771345 
L 131.433301 -78.741952 
L 130.715019 -78.712907 
L 129.996738 -78.684478 
L 129.278457 -78.656912 
L 128.560175 -78.630432 
L 127.841894 -78.605237 
L 127.123613 -78.581497 
L 126.405331 -78.559359 
L 125.68705 -78.538935 
L 124.968769 -78.520309 
L 124.250487 -78.503529 
L 123.532206 -78.488613 
L 122.813924 -78.475539 
L 122.095643 -78.464252 
L 121.377362 -78.45466 
L 120.65908 -78.446633 
L 119.940799 -78.440006 
L 119.222518 -78.434579 
L 118.504236 -78.430119 
L 117.785955 -78.426361 
L 117.067674 -78.423016 
L 116.349392 -78.41977 
L 115.631111 -78.416289 
L 114.91283 -78.412228 
L 114.194548 -78.407234 
L 113.476267 -78.400952 
L 112.757986 -78.393033 
L 112.039704 -78.383139 
L 111.321423 -78.37095 
L 110.603141 -78.356171 
L 109.88486 -78.338537 
L 109.166579 -78.317819 
L 108.448297 -78.293826 
L 107.730016 -78.266413 
L 107.011735 -78.23548 
L 106.293453 -78.200976 
L 105.575172 -78.162898 
L 104.856891 -78.12129 
L 104.138609 -78.076246 
L 103.420328 -78.027901 
L 102.702047 -77.976432 
L 101.983765 -77.922053 
L 101.265484 -77.865008 
L 100.547203 -77.805569 
L 99.828921 -77.744027 
L 99.11064 -77.680687 
L 98.392358 -77.615864 
L 97.674077 -77.549874 
L 96.955796 -77.483031 
L 96.237514 -77.415639 
L 95.519233 -77.347991 
L 94.800952 -77.280363 
L 94.08267 -77.21301 
L 93.364389 -77.146165 
L 92.646108 -77.080038 
L 91.927826 -77.014812 
L 91.209545 -76.950643 
L 90.491264 -76.887663 
L 89.772982 -76.825979 
L 89.054701 -76.765673 
L 88.336419 -76.706805 
L 87.618138 -76.649412 
L 86.899857 -76.593515 
L 86.181575 -76.539115 
L 85.463294 -76.486199 
L 84.745013 -76.434739 
L 84.026731 -76.384695 
L 83.30845 -76.336016 
L 82.590169 -76.288642 
L 81.871887 -76.242501 
L 81.153606 -76.197517 
L 80.435325 -76.153603 
L 79.717043 -76.110665 
L 78.998762 -76.068604 
L 78.280481 -76.027311 
L 77.562199 -75.986673 
L 76.843918 -75.946569 
L 76.125636 -75.906875 
L 75.407355 -75.867459 
L 74.689074 -75.828187 
L 73.970792 -75.788919 
L 73.252511 -75.749517 
L 72.53423 -75.70984 
L 71.815948 -75.66975 
L 71.097667 -75.62911 
L 70.379386 -75.587792 
L 69.661104 -75.545673 
L 68.942823 -75.502642 
L 68.224542 -75.4586 
L 67.50626 -75.413461 
L 66.787979 -75.367158 
L 66.069698 -75.319642 
L 65.351416 -75.270882 
L 64.633135 -75.220872 
L 63.914853 -75.169626 
L 63.196572 -75.117182 
L 62.478291 -75.063599 
L 61.760009 -75.008961 
L 61.041728 -74.953374 
L 60.323447 -74.896962 
L 59.605165 -74.83987 
L 58.886884 -74.782259 
L 58.168603 -74.724305 
L 57.450321 -74.666196 
L 56.73204 -74.608129 
L 56.013759 -74.550306 
L 55.295477 -74.492932 
L 54.577196 -74.436214 
L 53.858914 -74.380353 
L 53.140633 -74.325545 
L 52.422352 -74.271978 
L 51.70407 -74.219827 
L 50.985789 -74.169253 
L 50.267508 -74.120404 
L 49.549226 -74.073408 
L 48.830945 -74.028376 
L 48.112664 -73.9854 
L 47.394382 -73.944551 
L 46.676101 -73.905882 
L 45.95782 -73.869424 
L 45.239538 -73.835192 
z
" style="stroke: #414487; stroke-width: 1.25"/>
    </defs>
    <g>
     <use xlink:href="#mdccc6bba84" x="0" y="174.26" style="fill: #414487; fill-opacity: 0.7; stroke: #414487; stroke-width: 1.25"/>
    </g>
   </g>
   <g id="line2d_6">
    <path d="M 7.2 100.755 
L 216.45 100.755 
" style="fill: none; stroke: #414487; stroke-opacity: 0.9; stroke-linecap: round"/>
   </g>
   <g id="text_6">
    <!-- 5 -->
    <g style="fill: #414487" transform="translate(7.2 99.837) scale(0.12 -0.12)">
     <defs>
      <path id="IBMPlexSans-Bold-35" d="M 3341 3629 
L 1312 3629 
L 1216 2214 
L 1267 2214 
Q 1331 2374 1411 2505 
Q 1491 2637 1600 2729 
Q 1709 2822 1862 2873 
Q 2016 2925 2227 2925 
Q 2515 2925 2764 2829 
Q 3014 2733 3200 2550 
Q 3386 2368 3494 2102 
Q 3603 1837 3603 1504 
Q 3603 1165 3491 873 
Q 3379 582 3158 371 
Q 2938 160 2618 41 
Q 2298 -77 1888 -77 
Q 1562 -77 1312 -6 
Q 1062 64 870 182 
Q 678 301 537 454 
Q 397 608 294 781 
L 992 1331 
Q 1139 1069 1344 886 
Q 1549 704 1894 704 
Q 2240 704 2416 902 
Q 2592 1101 2592 1427 
L 2592 1478 
Q 2592 1786 2413 1965 
Q 2234 2144 1920 2144 
Q 1658 2144 1488 2038 
Q 1318 1933 1229 1830 
L 442 1939 
L 608 4467 
L 3341 4467 
L 3341 3629 
z
" transform="scale(0.015625)"/>
     </defs>
     <use xlink:href="#IBMPlexSans-Bold-35"/>
    </g>
   </g>
  </g>
  <g id="axes_7">
   <g id="patch_8">
    <path d="M 7.2 111.15 
L 216.45 111.15 
L 216.45 69.57 
L 7.2 69.57 
L 7.2 111.15 
z
" style="fill: none"/>
   </g>
   <g id="matplotlib.axis_13">
    <g id="xtick_25"/>
    <g id="xtick_26"/>
    <g id="xtick_27"/>
    <g id="xtick_28"/>
   </g>
   <g id="matplotlib.axis_14"/>
   <g id="FillBetweenPolyCollection_6">
    <defs>
     <path id="m1d6290f1fb" d="M 74.092206 -63.564796 
L 74.092206 -63.11 
L 74.566377 -63.11 
L 75.040549 -63.11 
L 75.514721 -63.11 
L 75.988892 -63.11 
L 76.463064 -63.11 
L 76.937236 -63.11 
L 77.411407 -63.11 
L 77.885579 -63.11 
L 78.359751 -63.11 
L 78.833922 -63.11 
L 79.308094 -63.11 
L 79.782266 -63.11 
L 80.256437 -63.11 
L 80.730609 -63.11 
L 81.204781 -63.11 
L 81.678953 -63.11 
L 82.153124 -63.11 
L 82.627296 -63.11 
L 83.101468 -63.11 
L 83.575639 -63.11 
L 84.049811 -63.11 
L 84.523983 -63.11 
L 84.998154 -63.11 
L 85.472326 -63.11 
L 85.946498 -63.11 
L 86.420669 -63.11 
L 86.894841 -63.11 
L 87.369013 -63.11 
L 87.843184 -63.11 
L 88.317356 -63.11 
L 88.791528 -63.11 
L 89.2657 -63.11 
L 89.739871 -63.11 
L 90.214043 -63.11 
L 90.688215 -63.11 
L 91.162386 -63.11 
L 91.636558 -63.11 
L 92.11073 -63.11 
L 92.584901 -63.11 
L 93.059073 -63.11 
L 93.533245 -63.11 
L 94.007416 -63.11 
L 94.481588 -63.11 
L 94.95576 -63.11 
L 95.429932 -63.11 
L 95.904103 -63.11 
L 96.378275 -63.11 
L 96.852447 -63.11 
L 97.326618 -63.11 
L 97.80079 -63.11 
L 98.274962 -63.11 
L 98.749133 -63.11 
L 99.223305 -63.11 
L 99.697477 -63.11 
L 100.171648 -63.11 
L 100.64582 -63.11 
L 101.119992 -63.11 
L 101.594163 -63.11 
L 102.068335 -63.11 
L 102.542507 -63.11 
L 103.016679 -63.11 
L 103.49085 -63.11 
L 103.965022 -63.11 
L 104.439194 -63.11 
L 104.913365 -63.11 
L 105.387537 -63.11 
L 105.861709 -63.11 
L 106.33588 -63.11 
L 106.810052 -63.11 
L 107.284224 -63.11 
L 107.758395 -63.11 
L 108.232567 -63.11 
L 108.706739 -63.11 
L 109.18091 -63.11 
L 109.655082 -63.11 
L 110.129254 -63.11 
L 110.603426 -63.11 
L 111.077597 -63.11 
L 111.551769 -63.11 
L 112.025941 -63.11 
L 112.500112 -63.11 
L 112.974284 -63.11 
L 113.448456 -63.11 
L 113.922627 -63.11 
L 114.396799 -63.11 
L 114.870971 -63.11 
L 115.345142 -63.11 
L 115.819314 -63.11 
L 116.293486 -63.11 
L 116.767658 -63.11 
L 117.241829 -63.11 
L 117.716001 -63.11 
L 118.190173 -63.11 
L 118.664344 -63.11 
L 119.138516 -63.11 
L 119.612688 -63.11 
L 120.086859 -63.11 
L 120.561031 -63.11 
L 121.035203 -63.11 
L 121.509374 -63.11 
L 121.983546 -63.11 
L 122.457718 -63.11 
L 122.931889 -63.11 
L 123.406061 -63.11 
L 123.880233 -63.11 
L 124.354405 -63.11 
L 124.828576 -63.11 
L 125.302748 -63.11 
L 125.77692 -63.11 
L 126.251091 -63.11 
L 126.725263 -63.11 
L 127.199435 -63.11 
L 127.673606 -63.11 
L 128.147778 -63.11 
L 128.62195 -63.11 
L 129.096121 -63.11 
L 129.570293 -63.11 
L 130.044465 -63.11 
L 130.518636 -63.11 
L 130.992808 -63.11 
L 131.46698 -63.11 
L 131.941152 -63.11 
L 132.415323 -63.11 
L 132.889495 -63.11 
L 133.363667 -63.11 
L 133.837838 -63.11 
L 134.31201 -63.11 
L 134.786182 -63.11 
L 135.260353 -63.11 
L 135.734525 -63.11 
L 136.208697 -63.11 
L 136.682868 -63.11 
L 137.15704 -63.11 
L 137.631212 -63.11 
L 138.105384 -63.11 
L 138.579555 -63.11 
L 139.053727 -63.11 
L 139.527899 -63.11 
L 140.00207 -63.11 
L 140.476242 -63.11 
L 140.950414 -63.11 
L 141.424585 -63.11 
L 141.898757 -63.11 
L 142.372929 -63.11 
L 142.8471 -63.11 
L 143.321272 -63.11 
L 143.795444 -63.11 
L 144.269615 -63.11 
L 144.743787 -63.11 
L 145.217959 -63.11 
L 145.692131 -63.11 
L 146.166302 -63.11 
L 146.640474 -63.11 
L 147.114646 -63.11 
L 147.588817 -63.11 
L 148.062989 -63.11 
L 148.537161 -63.11 
L 149.011332 -63.11 
L 149.485504 -63.11 
L 149.959676 -63.11 
L 150.433847 -63.11 
L 150.908019 -63.11 
L 151.382191 -63.11 
L 151.856362 -63.11 
L 152.330534 -63.11 
L 152.804706 -63.11 
L 153.278878 -63.11 
L 153.753049 -63.11 
L 154.227221 -63.11 
L 154.701393 -63.11 
L 155.175564 -63.11 
L 155.649736 -63.11 
L 156.123908 -63.11 
L 156.598079 -63.11 
L 157.072251 -63.11 
L 157.546423 -63.11 
L 158.020594 -63.11 
L 158.494766 -63.11 
L 158.968938 -63.11 
L 159.44311 -63.11 
L 159.917281 -63.11 
L 160.391453 -63.11 
L 160.865625 -63.11 
L 161.339796 -63.11 
L 161.813968 -63.11 
L 162.28814 -63.11 
L 162.762311 -63.11 
L 163.236483 -63.11 
L 163.710655 -63.11 
L 164.184826 -63.11 
L 164.658998 -63.11 
L 165.13317 -63.11 
L 165.607341 -63.11 
L 166.081513 -63.11 
L 166.555685 -63.11 
L 167.029857 -63.11 
L 167.504028 -63.11 
L 167.9782 -63.11 
L 168.452372 -63.11 
L 168.452372 -63.821327 
L 168.452372 -63.821327 
L 167.9782 -63.903492 
L 167.504028 -63.992177 
L 167.029857 -64.087506 
L 166.555685 -64.189563 
L 166.081513 -64.298378 
L 165.607341 -64.41393 
L 165.13317 -64.536145 
L 164.658998 -64.664891 
L 164.184826 -64.79998 
L 163.710655 -64.941167 
L 163.236483 -65.088157 
L 162.762311 -65.240599 
L 162.28814 -65.398098 
L 161.813968 -65.560218 
L 161.339796 -65.726485 
L 160.865625 -65.896398 
L 160.391453 -66.069431 
L 159.917281 -66.245047 
L 159.44311 -66.422702 
L 158.968938 -66.601852 
L 158.494766 -66.781965 
L 158.020594 -66.962522 
L 157.546423 -67.143029 
L 157.072251 -67.323018 
L 156.598079 -67.502057 
L 156.123908 -67.679745 
L 155.649736 -67.85572 
L 155.175564 -68.029661 
L 154.701393 -68.201279 
L 154.227221 -68.370323 
L 153.753049 -68.536574 
L 153.278878 -68.699839 
L 152.804706 -68.85995 
L 152.330534 -69.016756 
L 151.856362 -69.170115 
L 151.382191 -69.319893 
L 150.908019 -69.465957 
L 150.433847 -69.608166 
L 149.959676 -69.746372 
L 149.485504 -69.880414 
L 149.011332 -70.010114 
L 148.537161 -70.135279 
L 148.062989 -70.2557 
L 147.588817 -70.371152 
L 147.114646 -70.481399 
L 146.640474 -70.586194 
L 146.166302 -70.68529 
L 145.692131 -70.778439 
L 145.217959 -70.865403 
L 144.743787 -70.945957 
L 144.269615 -71.019902 
L 143.795444 -71.087061 
L 143.321272 -71.147298 
L 142.8471 -71.200512 
L 142.372929 -71.246649 
L 141.898757 -71.285705 
L 141.424585 -71.317725 
L 140.950414 -71.342807 
L 140.476242 -71.361103 
L 140.00207 -71.372818 
L 139.527899 -71.378204 
L 139.053727 -71.377562 
L 138.579555 -71.371235 
L 138.105384 -71.359604 
L 137.631212 -71.343082 
L 137.15704 -71.32211 
L 136.682868 -71.297147 
L 136.208697 -71.26867 
L 135.734525 -71.237162 
L 135.260353 -71.20311 
L 134.786182 -71.167001 
L 134.31201 -71.12931 
L 133.837838 -71.090506 
L 133.363667 -71.051037 
L 132.889495 -71.011337 
L 132.415323 -70.971814 
L 131.941152 -70.932854 
L 131.46698 -70.894814 
L 130.992808 -70.858024 
L 130.518636 -70.82278 
L 130.044465 -70.789348 
L 129.570293 -70.757958 
L 129.096121 -70.728801 
L 128.62195 -70.702033 
L 128.147778 -70.677768 
L 127.673606 -70.656079 
L 127.199435 -70.636994 
L 126.725263 -70.6205 
L 126.251091 -70.606532 
L 125.77692 -70.594984 
L 125.302748 -70.5857 
L 124.828576 -70.578477 
L 124.354405 -70.573067 
L 123.880233 -70.569178 
L 123.406061 -70.566475 
L 122.931889 -70.564587 
L 122.457718 -70.563106 
L 121.983546 -70.561595 
L 121.509374 -70.559596 
L 121.035203 -70.556629 
L 120.561031 -70.552207 
L 120.086859 -70.54584 
L 119.612688 -70.537041 
L 119.138516 -70.525338 
L 118.664344 -70.510277 
L 118.190173 -70.491435 
L 117.716001 -70.468423 
L 117.241829 -70.440896 
L 116.767658 -70.408555 
L 116.293486 -70.371157 
L 115.819314 -70.328515 
L 115.345142 -70.280504 
L 114.870971 -70.227061 
L 114.396799 -70.168188 
L 113.922627 -70.103947 
L 113.448456 -70.034464 
L 112.974284 -69.959922 
L 112.500112 -69.880559 
L 112.025941 -69.796662 
L 111.551769 -69.708563 
L 111.077597 -69.61663 
L 110.603426 -69.521263 
L 110.129254 -69.422886 
L 109.655082 -69.321937 
L 109.18091 -69.218867 
L 108.706739 -69.114125 
L 108.232567 -69.008157 
L 107.758395 -68.9014 
L 107.284224 -68.794274 
L 106.810052 -68.687176 
L 106.33588 -68.580481 
L 105.861709 -68.474536 
L 105.387537 -68.369657 
L 104.913365 -68.26613 
L 104.439194 -68.164206 
L 103.965022 -68.064107 
L 103.49085 -67.966023 
L 103.016679 -67.870114 
L 102.542507 -67.776509 
L 102.068335 -67.685311 
L 101.594163 -67.596599 
L 101.119992 -67.510426 
L 100.64582 -67.426823 
L 100.171648 -67.345802 
L 99.697477 -67.267352 
L 99.223305 -67.191447 
L 98.749133 -67.118038 
L 98.274962 -67.04706 
L 97.80079 -66.97843 
L 97.326618 -66.912045 
L 96.852447 -66.847782 
L 96.378275 -66.785501 
L 95.904103 -66.725039 
L 95.429932 -66.666215 
L 94.95576 -66.608829 
L 94.481588 -66.55266 
L 94.007416 -66.497471 
L 93.533245 -66.443008 
L 93.059073 -66.389005 
L 92.584901 -66.335183 
L 92.11073 -66.281261 
L 91.636558 -66.226949 
L 91.162386 -66.171965 
L 90.688215 -66.11603 
L 90.214043 -66.05888 
L 89.739871 -66.000267 
L 89.2657 -65.939967 
L 88.791528 -65.877783 
L 88.317356 -65.813553 
L 87.843184 -65.74715 
L 87.369013 -65.678489 
L 86.894841 -65.607527 
L 86.420669 -65.534266 
L 85.946498 -65.458756 
L 85.472326 -65.38109 
L 84.998154 -65.301409 
L 84.523983 -65.219893 
L 84.049811 -65.136765 
L 83.575639 -65.052282 
L 83.101468 -64.966733 
L 82.627296 -64.880433 
L 82.153124 -64.793717 
L 81.678953 -64.706934 
L 81.204781 -64.620444 
L 80.730609 -64.534605 
L 80.256437 -64.449775 
L 79.782266 -64.366299 
L 79.308094 -64.28451 
L 78.833922 -64.20472 
L 78.359751 -64.127215 
L 77.885579 -64.052257 
L 77.411407 -63.980075 
L 76.937236 -63.910866 
L 76.463064 -63.844794 
L 75.988892 -63.781987 
L 75.514721 -63.722539 
L 75.040549 -63.666512 
L 74.566377 -63.613932 
L 74.092206 -63.564796 
z
" style="stroke: #2a788e; stroke-width: 1.25"/>
    </defs>
    <g>
     <use xlink:href="#m1d6290f1fb" x="0" y="174.26" style="fill: #2a788e; fill-opacity: 0.7; stroke: #2a788e; stroke-width: 1.25"/>
    </g>
   </g>
   <g id="line2d_7">
    <path d="M 7.2 111.15 
L 216.45 111.15 
" style="fill: none; stroke: #2a788e; stroke-opacity: 0.9; stroke-linecap: round"/>
   </g>
   <g id="text_7">
    <!-- 6 -->
    <g style="fill: #2a788e" transform="translate(7.2 110.232) scale(0.12 -0.12)">
     <defs>
      <path id="IBMPlexSans-Bold-36" d="M 1946 -77 
Q 1549 -77 1235 48 
Q 922 173 707 406 
Q 493 640 381 966 
Q 269 1293 269 1696 
Q 269 2163 413 2582 
Q 557 3002 784 3357 
Q 1011 3712 1296 3993 
Q 1581 4275 1869 4467 
L 3194 4467 
Q 2784 4173 2457 3907 
Q 2131 3642 1891 3373 
Q 1651 3104 1494 2825 
Q 1338 2547 1274 2227 
L 1331 2208 
Q 1389 2336 1469 2457 
Q 1549 2579 1667 2672 
Q 1786 2765 1946 2822 
Q 2106 2880 2317 2880 
Q 2592 2880 2832 2781 
Q 3072 2682 3248 2502 
Q 3424 2323 3523 2064 
Q 3622 1805 3622 1491 
Q 3622 1146 3504 858 
Q 3386 570 3165 362 
Q 2944 154 2637 38 
Q 2330 -77 1946 -77 
z
M 1946 672 
Q 2266 672 2445 848 
Q 2624 1024 2624 1350 
L 2624 1466 
Q 2624 1792 2445 1968 
Q 2266 2144 1946 2144 
Q 1626 2144 1446 1968 
Q 1267 1792 1267 1466 
L 1267 1350 
Q 1267 1024 1446 848 
Q 1626 672 1946 672 
z
" transform="scale(0.015625)"/>
     </defs>
     <use xlink:href="#IBMPlexSans-Bold-36"/>
    </g>
   </g>
  </g>
  <g id="axes_8">
   <g id="patch_9">
    <path d="M 7.2 121.545 
L 216.45 121.545 
L 216.45 79.965 
L 7.2 79.965 
L 7.2 121.545 
z
" style="fill: none"/>
   </g>
   <g id="matplotlib.axis_15">
    <g id="xtick_29"/>
    <g id="xtick_30"/>
    <g id="xtick_31"/>
    <g id="xtick_32"/>
   </g>
   <g id="matplotlib.axis_16"/>
   <g id="FillBetweenPolyCollection_7">
    <defs>
     <path id="m7e38acac38" d="M 98.403792 -52.994849 
L 98.403792 -52.715 
L 98.677149 -52.715 
L 98.950506 -52.715 
L 99.223863 -52.715 
L 99.49722 -52.715 
L 99.770577 -52.715 
L 100.043934 -52.715 
L 100.317291 -52.715 
L 100.590647 -52.715 
L 100.864004 -52.715 
L 101.137361 -52.715 
L 101.410718 -52.715 
L 101.684075 -52.715 
L 101.957432 -52.715 
L 102.230789 -52.715 
L 102.504146 -52.715 
L 102.777503 -52.715 
L 103.05086 -52.715 
L 103.324216 -52.715 
L 103.597573 -52.715 
L 103.87093 -52.715 
L 104.144287 -52.715 
L 104.417644 -52.715 
L 104.691001 -52.715 
L 104.964358 -52.715 
L 105.237715 -52.715 
L 105.511072 -52.715 
L 105.784428 -52.715 
L 106.057785 -52.715 
L 106.331142 -52.715 
L 106.604499 -52.715 
L 106.877856 -52.715 
L 107.151213 -52.715 
L 107.42457 -52.715 
L 107.697927 -52.715 
L 107.971284 -52.715 
L 108.244641 -52.715 
L 108.517997 -52.715 
L 108.791354 -52.715 
L 109.064711 -52.715 
L 109.338068 -52.715 
L 109.611425 -52.715 
L 109.884782 -52.715 
L 110.158139 -52.715 
L 110.431496 -52.715 
L 110.704853 -52.715 
L 110.97821 -52.715 
L 111.251566 -52.715 
L 111.524923 -52.715 
L 111.79828 -52.715 
L 112.071637 -52.715 
L 112.344994 -52.715 
L 112.618351 -52.715 
L 112.891708 -52.715 
L 113.165065 -52.715 
L 113.438422 -52.715 
L 113.711779 -52.715 
L 113.985135 -52.715 
L 114.258492 -52.715 
L 114.531849 -52.715 
L 114.805206 -52.715 
L 115.078563 -52.715 
L 115.35192 -52.715 
L 115.625277 -52.715 
L 115.898634 -52.715 
L 116.171991 -52.715 
L 116.445348 -52.715 
L 116.718704 -52.715 
L 116.992061 -52.715 
L 117.265418 -52.715 
L 117.538775 -52.715 
L 117.812132 -52.715 
L 118.085489 -52.715 
L 118.358846 -52.715 
L 118.632203 -52.715 
L 118.90556 -52.715 
L 119.178917 -52.715 
L 119.452273 -52.715 
L 119.72563 -52.715 
L 119.998987 -52.715 
L 120.272344 -52.715 
L 120.545701 -52.715 
L 120.819058 -52.715 
L 121.092415 -52.715 
L 121.365772 -52.715 
L 121.639129 -52.715 
L 121.912486 -52.715 
L 122.185842 -52.715 
L 122.459199 -52.715 
L 122.732556 -52.715 
L 123.005913 -52.715 
L 123.27927 -52.715 
L 123.552627 -52.715 
L 123.825984 -52.715 
L 124.099341 -52.715 
L 124.372698 -52.715 
L 124.646055 -52.715 
L 124.919411 -52.715 
L 125.192768 -52.715 
L 125.466125 -52.715 
L 125.739482 -52.715 
L 126.012839 -52.715 
L 126.286196 -52.715 
L 126.559553 -52.715 
L 126.83291 -52.715 
L 127.106267 -52.715 
L 127.379624 -52.715 
L 127.65298 -52.715 
L 127.926337 -52.715 
L 128.199694 -52.715 
L 128.473051 -52.715 
L 128.746408 -52.715 
L 129.019765 -52.715 
L 129.293122 -52.715 
L 129.566479 -52.715 
L 129.839836 -52.715 
L 130.113193 -52.715 
L 130.386549 -52.715 
L 130.659906 -52.715 
L 130.933263 -52.715 
L 131.20662 -52.715 
L 131.479977 -52.715 
L 131.753334 -52.715 
L 132.026691 -52.715 
L 132.300048 -52.715 
L 132.573405 -52.715 
L 132.846762 -52.715 
L 133.120118 -52.715 
L 133.393475 -52.715 
L 133.666832 -52.715 
L 133.940189 -52.715 
L 134.213546 -52.715 
L 134.486903 -52.715 
L 134.76026 -52.715 
L 135.033617 -52.715 
L 135.306974 -52.715 
L 135.580331 -52.715 
L 135.853687 -52.715 
L 136.127044 -52.715 
L 136.400401 -52.715 
L 136.673758 -52.715 
L 136.947115 -52.715 
L 137.220472 -52.715 
L 137.493829 -52.715 
L 137.767186 -52.715 
L 138.040543 -52.715 
L 138.3139 -52.715 
L 138.587256 -52.715 
L 138.860613 -52.715 
L 139.13397 -52.715 
L 139.407327 -52.715 
L 139.680684 -52.715 
L 139.954041 -52.715 
L 140.227398 -52.715 
L 140.500755 -52.715 
L 140.774112 -52.715 
L 141.047469 -52.715 
L 141.320825 -52.715 
L 141.594182 -52.715 
L 141.867539 -52.715 
L 142.140896 -52.715 
L 142.414253 -52.715 
L 142.68761 -52.715 
L 142.960967 -52.715 
L 143.234324 -52.715 
L 143.507681 -52.715 
L 143.781038 -52.715 
L 144.054394 -52.715 
L 144.327751 -52.715 
L 144.601108 -52.715 
L 144.874465 -52.715 
L 145.147822 -52.715 
L 145.421179 -52.715 
L 145.694536 -52.715 
L 145.967893 -52.715 
L 146.24125 -52.715 
L 146.514607 -52.715 
L 146.787963 -52.715 
L 147.06132 -52.715 
L 147.334677 -52.715 
L 147.608034 -52.715 
L 147.881391 -52.715 
L 148.154748 -52.715 
L 148.428105 -52.715 
L 148.701462 -52.715 
L 148.974819 -52.715 
L 149.248176 -52.715 
L 149.521532 -52.715 
L 149.794889 -52.715 
L 150.068246 -52.715 
L 150.341603 -52.715 
L 150.61496 -52.715 
L 150.888317 -52.715 
L 151.161674 -52.715 
L 151.435031 -52.715 
L 151.708388 -52.715 
L 151.981745 -52.715 
L 152.255101 -52.715 
L 152.528458 -52.715 
L 152.801815 -52.715 
L 152.801815 -53.436459 
L 152.801815 -53.436459 
L 152.528458 -53.533212 
L 152.255101 -53.639995 
L 151.981745 -53.75745 
L 151.708388 -53.886213 
L 151.435031 -54.026907 
L 151.161674 -54.180132 
L 150.888317 -54.346462 
L 150.61496 -54.526431 
L 150.341603 -54.720524 
L 150.068246 -54.92917 
L 149.794889 -55.15273 
L 149.521532 -55.391484 
L 149.248176 -55.645624 
L 148.974819 -55.91524 
L 148.701462 -56.200309 
L 148.428105 -56.500688 
L 148.154748 -56.816101 
L 147.881391 -57.146135 
L 147.608034 -57.490229 
L 147.334677 -57.847672 
L 147.06132 -58.2176 
L 146.787963 -58.598994 
L 146.514607 -58.990687 
L 146.24125 -59.391364 
L 145.967893 -59.799573 
L 145.694536 -60.213736 
L 145.421179 -60.632165 
L 145.147822 -61.053076 
L 144.874465 -61.474612 
L 144.601108 -61.894865 
L 144.327751 -62.311896 
L 144.054394 -62.723766 
L 143.781038 -63.128561 
L 143.507681 -63.524414 
L 143.234324 -63.909539 
L 142.960967 -64.282249 
L 142.68761 -64.640986 
L 142.414253 -64.984336 
L 142.140896 -65.311055 
L 141.867539 -65.62008 
L 141.594182 -65.91054 
L 141.320825 -66.181773 
L 141.047469 -66.433322 
L 140.774112 -66.664939 
L 140.500755 -66.876585 
L 140.227398 -67.068423 
L 139.954041 -67.240803 
L 139.680684 -67.394256 
L 139.407327 -67.529476 
L 139.13397 -67.647302 
L 138.860613 -67.748698 
L 138.587256 -67.834732 
L 138.3139 -67.906555 
L 138.040543 -67.96538 
L 137.767186 -68.012455 
L 137.493829 -68.049046 
L 137.220472 -68.076412 
L 136.947115 -68.095789 
L 136.673758 -68.108366 
L 136.400401 -68.115276 
L 136.127044 -68.117574 
L 135.853687 -68.116228 
L 135.580331 -68.11211 
L 135.306974 -68.105986 
L 135.033617 -68.098514 
L 134.76026 -68.090239 
L 134.486903 -68.081594 
L 134.213546 -68.072905 
L 133.940189 -68.064392 
L 133.666832 -68.056182 
L 133.393475 -68.048309 
L 133.120118 -68.040735 
L 132.846762 -68.033354 
L 132.573405 -68.026006 
L 132.300048 -68.018494 
L 132.026691 -68.01059 
L 131.753334 -68.002054 
L 131.479977 -67.99264 
L 131.20662 -67.982112 
L 130.933263 -67.970247 
L 130.659906 -67.956844 
L 130.386549 -67.941729 
L 130.113193 -67.924757 
L 129.839836 -67.905811 
L 129.566479 -67.8848 
L 129.293122 -67.861657 
L 129.019765 -67.836328 
L 128.746408 -67.808767 
L 128.473051 -67.778926 
L 128.199694 -67.746746 
L 127.926337 -67.712148 
L 127.65298 -67.67502 
L 127.379624 -67.635214 
L 127.106267 -67.592533 
L 126.83291 -67.54673 
L 126.559553 -67.497504 
L 126.286196 -67.444502 
L 126.012839 -67.387315 
L 125.739482 -67.32549 
L 125.466125 -67.258536 
L 125.192768 -67.185932 
L 124.919411 -67.107144 
L 124.646055 -67.021635 
L 124.372698 -66.928881 
L 124.099341 -66.828393 
L 123.825984 -66.719727 
L 123.552627 -66.602501 
L 123.27927 -66.476415 
L 123.005913 -66.341258 
L 122.732556 -66.196922 
L 122.459199 -66.043411 
L 122.185842 -65.880845 
L 121.912486 -65.709465 
L 121.639129 -65.52963 
L 121.365772 -65.341811 
L 121.092415 -65.146589 
L 120.819058 -64.944639 
L 120.545701 -64.73672 
L 120.272344 -64.52366 
L 119.998987 -64.306334 
L 119.72563 -64.085651 
L 119.452273 -63.86253 
L 119.178917 -63.637882 
L 118.90556 -63.41259 
L 118.632203 -63.187492 
L 118.358846 -62.963361 
L 118.085489 -62.740895 
L 117.812132 -62.520701 
L 117.538775 -62.303285 
L 117.265418 -62.089051 
L 116.992061 -61.878292 
L 116.718704 -61.671197 
L 116.445348 -61.467849 
L 116.171991 -61.268235 
L 115.898634 -61.072256 
L 115.625277 -60.879736 
L 115.35192 -60.690441 
L 115.078563 -60.504088 
L 114.805206 -60.320363 
L 114.531849 -60.138939 
L 114.258492 -59.959485 
L 113.985135 -59.781687 
L 113.711779 -59.605253 
L 113.438422 -59.429925 
L 113.165065 -59.255491 
L 112.891708 -59.081782 
L 112.618351 -58.908681 
L 112.344994 -58.736122 
L 112.071637 -58.564084 
L 111.79828 -58.392591 
L 111.524923 -58.221705 
L 111.251566 -58.051523 
L 110.97821 -57.882162 
L 110.704853 -57.71376 
L 110.431496 -57.546465 
L 110.158139 -57.38043 
L 109.884782 -57.215808 
L 109.611425 -57.052748 
L 109.338068 -56.891392 
L 109.064711 -56.731874 
L 108.791354 -56.574319 
L 108.517997 -56.418846 
L 108.244641 -56.265566 
L 107.971284 -56.114591 
L 107.697927 -55.966028 
L 107.42457 -55.819987 
L 107.151213 -55.676583 
L 106.877856 -55.535937 
L 106.604499 -55.398173 
L 106.331142 -55.263425 
L 106.057785 -55.131831 
L 105.784428 -55.003534 
L 105.511072 -54.878677 
L 105.237715 -54.757403 
L 104.964358 -54.63985 
L 104.691001 -54.526146 
L 104.417644 -54.416409 
L 104.144287 -54.310737 
L 103.87093 -54.209214 
L 103.597573 -54.1119 
L 103.324216 -54.018832 
L 103.05086 -53.930024 
L 102.777503 -53.845463 
L 102.504146 -53.765116 
L 102.230789 -53.688924 
L 101.957432 -53.616811 
L 101.684075 -53.548681 
L 101.410718 -53.484423 
L 101.137361 -53.423915 
L 100.864004 -53.367024 
L 100.590647 -53.313613 
L 100.317291 -53.26354 
L 100.043934 -53.216664 
L 99.770577 -53.172841 
L 99.49722 -53.131935 
L 99.223863 -53.093811 
L 98.950506 -53.058337 
L 98.677149 -53.02539 
L 98.403792 -52.994849 
z
" style="stroke: #44bf70; stroke-width: 1.25"/>
    </defs>
    <g>
     <use xlink:href="#m7e38acac38" x="0" y="174.26" style="fill: #44bf70; fill-opacity: 0.7; stroke: #44bf70; stroke-width: 1.25"/>
    </g>
   </g>
   <g id="line2d_8">
    <path d="M 7.2 121.545 
L 216.45 121.545 
" style="fill: none; stroke: #44bf70; stroke-opacity: 0.9; stroke-linecap: round"/>
   </g>
   <g id="text_8">
    <!-- 7 -->
    <g style="fill: #44bf70" transform="translate(7.2 120.627) scale(0.12 -0.12)">
     <defs>
      <path id="IBMPlexSans-Bold-37" d="M 1062 0 
L 2560 3686 
L 1165 3686 
L 1165 2874 
L 352 2874 
L 352 4467 
L 3514 4467 
L 3514 3635 
L 2074 0 
L 1062 0 
z
" transform="scale(0.015625)"/>
     </defs>
     <use xlink:href="#IBMPlexSans-Bold-37"/>
    </g>
   </g>
  </g>
  <g id="axes_9">
   <g id="patch_10">
    <path d="M 7.2 131.94 
L 216.45 131.94 
L 216.45 90.36 
L 7.2 90.36 
L 7.2 131.94 
z
" style="fill: none"/>
   </g>
   <g id="matplotlib.axis_17">
    <g id="xtick_33">
     <g id="text_9">
      <!-- 4 -->
      <g style="fill: #838383" transform="translate(39.540719 149.58) scale(0.11 -0.11)">
       <defs>
        <path id="IBMPlexSans-Regular-2212" d="M 429 1734 
L 429 2170 
L 3411 2170 
L 3411 1734 
L 429 1734 
z
" transform="scale(0.015625)"/>
        <path id="IBMPlexSans-Regular-34" d="M 2400 0 
L 2400 877 
L 243 877 
L 243 1350 
L 2112 4467 
L 2912 4467 
L 2912 1325 
L 3558 1325 
L 3558 877 
L 2912 877 
L 2912 0 
L 2400 0 
z
M 749 1325 
L 2400 1325 
L 2400 4051 
L 2368 4051 
L 749 1325 
z
" transform="scale(0.015625)"/>
       </defs>
       <use xlink:href="#IBMPlexSans-Regular-2212"/>
       <use xlink:href="#IBMPlexSans-Regular-34" transform="translate(59.999985 0)"/>
      </g>
     </g>
    </g>
    <g id="xtick_34">
     <g id="text_10">
      <!-- 2 -->
      <g style="fill: #838383" transform="translate(82.771362 149.58) scale(0.11 -0.11)">
       <defs>
        <path id="IBMPlexSans-Regular-32" d="M 3411 0 
L 480 0 
L 480 550 
L 1939 1894 
Q 2253 2182 2464 2505 
Q 2675 2829 2675 3155 
L 2675 3232 
Q 2675 3603 2470 3833 
Q 2266 4064 1850 4064 
Q 1645 4064 1491 4006 
Q 1338 3949 1226 3846 
Q 1114 3744 1040 3606 
Q 966 3469 922 3309 
L 442 3494 
Q 506 3693 618 3881 
Q 730 4070 899 4217 
Q 1069 4365 1309 4454 
Q 1549 4544 1875 4544 
Q 2202 4544 2458 4448 
Q 2714 4352 2886 4179 
Q 3059 4006 3152 3769 
Q 3245 3533 3245 3245 
Q 3245 2982 3171 2758 
Q 3098 2534 2970 2332 
Q 2842 2131 2659 1939 
Q 2477 1747 2266 1555 
L 1062 474 
L 3411 474 
L 3411 0 
z
" transform="scale(0.015625)"/>
       </defs>
       <use xlink:href="#IBMPlexSans-Regular-2212"/>
       <use xlink:href="#IBMPlexSans-Regular-32" transform="translate(59.999985 0)"/>
      </g>
     </g>
    </g>
    <g id="xtick_35">
     <g id="text_11">
      <!-- 0 -->
      <g style="fill: #838383" transform="translate(129.302004 149.58) scale(0.11 -0.11)">
       <defs>
        <path id="IBMPlexSans-Regular-30" d="M 1920 -77 
Q 1120 -77 752 531 
Q 384 1139 384 2234 
Q 384 3328 752 3936 
Q 1120 4544 1920 4544 
Q 2720 4544 3088 3936 
Q 3456 3328 3456 2234 
Q 3456 1139 3088 531 
Q 2720 -77 1920 -77 
z
M 1920 390 
Q 2182 390 2368 499 
Q 2554 608 2669 806 
Q 2784 1005 2838 1273 
Q 2893 1542 2893 1869 
L 2893 2598 
Q 2893 2925 2838 3193 
Q 2784 3462 2669 3660 
Q 2554 3859 2368 3968 
Q 2182 4077 1920 4077 
Q 1658 4077 1472 3968 
Q 1286 3859 1171 3660 
Q 1056 3462 1001 3193 
Q 947 2925 947 2598 
L 947 1869 
Q 947 1542 1001 1273 
Q 1056 1005 1171 806 
Q 1286 608 1472 499 
Q 1658 390 1920 390 
z
" transform="scale(0.015625)"/>
       </defs>
       <use xlink:href="#IBMPlexSans-Regular-30"/>
      </g>
     </g>
    </g>
    <g id="xtick_36">
     <g id="text_12">
      <!-- 2 -->
      <g style="fill: #838383" transform="translate(172.532647 149.58) scale(0.11 -0.11)">
       <use xlink:href="#IBMPlexSans-Regular-32"/>
      </g>
     </g>
    </g>
    <g id="text_13">
     <!-- sld -->
     <g style="fill: #262626" transform="translate(103.790625 164.66) scale(0.12 -0.12)">
      <defs>
       <path id="IBMPlexSans-Regular-73" d="M 1536 -77 
Q 1075 -77 764 99 
Q 454 275 230 570 
L 595 864 
Q 787 621 1024 489 
Q 1261 358 1574 358 
Q 1901 358 2083 499 
Q 2266 640 2266 896 
Q 2266 1088 2141 1225 
Q 2016 1363 1690 1414 
L 1427 1453 
Q 1197 1485 1005 1552 
Q 813 1619 669 1731 
Q 525 1843 445 2009 
Q 365 2176 365 2406 
Q 365 2650 454 2832 
Q 544 3014 701 3136 
Q 858 3258 1075 3318 
Q 1293 3379 1542 3379 
Q 1946 3379 2218 3238 
Q 2490 3098 2694 2848 
L 2355 2541 
Q 2246 2694 2035 2819 
Q 1824 2944 1504 2944 
Q 1184 2944 1021 2806 
Q 858 2669 858 2432 
Q 858 2189 1021 2080 
Q 1184 1971 1491 1920 
L 1747 1882 
Q 2298 1798 2528 1564 
Q 2758 1331 2758 954 
Q 2758 474 2432 198 
Q 2106 -77 1536 -77 
z
" transform="scale(0.015625)"/>
       <path id="IBMPlexSans-Regular-6c" d="M 1088 0 
Q 819 0 681 150 
Q 544 301 544 531 
L 544 4736 
L 1056 4736 
L 1056 448 
L 1542 448 
L 1542 0 
L 1088 0 
z
" transform="scale(0.015625)"/>
       <path id="IBMPlexSans-Regular-64" d="M 2656 538 
L 2630 538 
Q 2330 -77 1664 -77 
Q 1357 -77 1107 44 
Q 858 166 682 390 
Q 506 614 413 934 
Q 320 1254 320 1651 
Q 320 2048 413 2368 
Q 506 2688 682 2912 
Q 858 3136 1107 3257 
Q 1357 3379 1664 3379 
Q 2010 3379 2256 3228 
Q 2502 3078 2630 2765 
L 2656 2765 
L 2656 4736 
L 3168 4736 
L 3168 0 
L 2656 0 
L 2656 538 
z
M 1805 384 
Q 1978 384 2134 429 
Q 2291 474 2406 560 
Q 2522 646 2589 771 
Q 2656 896 2656 1056 
L 2656 2285 
Q 2656 2419 2589 2537 
Q 2522 2656 2406 2739 
Q 2291 2822 2134 2870 
Q 1978 2918 1805 2918 
Q 1370 2918 1120 2646 
Q 870 2374 870 1933 
L 870 1370 
Q 870 928 1120 656 
Q 1370 384 1805 384 
z
" transform="scale(0.015625)"/>
      </defs>
      <use xlink:href="#IBMPlexSans-Regular-73"/>
      <use xlink:href="#IBMPlexSans-Regular-6c" transform="translate(48.699997 0)"/>
      <use xlink:href="#IBMPlexSans-Regular-64" transform="translate(75.899994 0)"/>
     </g>
    </g>
   </g>
   <g id="matplotlib.axis_18"/>
   <g id="FillBetweenPolyCollection_8">
    <defs>
     <path id="mfad081ca3a" d="M 117.123059 -43.300211 
L 117.123059 -42.32 
L 117.265761 -42.32 
L 117.408463 -42.32 
L 117.551165 -42.32 
L 117.693867 -42.32 
L 117.836569 -42.32 
L 117.979271 -42.32 
L 118.121973 -42.32 
L 118.264675 -42.32 
L 118.407377 -42.32 
L 118.550079 -42.32 
L 118.692782 -42.32 
L 118.835484 -42.32 
L 118.978186 -42.32 
L 119.120888 -42.32 
L 119.26359 -42.32 
L 119.406292 -42.32 
L 119.548994 -42.32 
L 119.691696 -42.32 
L 119.834398 -42.32 
L 119.9771 -42.32 
L 120.119802 -42.32 
L 120.262504 -42.32 
L 120.405206 -42.32 
L 120.547908 -42.32 
L 120.69061 -42.32 
L 120.833312 -42.32 
L 120.976014 -42.32 
L 121.118716 -42.32 
L 121.261418 -42.32 
L 121.40412 -42.32 
L 121.546822 -42.32 
L 121.689524 -42.32 
L 121.832226 -42.32 
L 121.974928 -42.32 
L 122.11763 -42.32 
L 122.260332 -42.32 
L 122.403034 -42.32 
L 122.545736 -42.32 
L 122.688438 -42.32 
L 122.83114 -42.32 
L 122.973842 -42.32 
L 123.116544 -42.32 
L 123.259246 -42.32 
L 123.401948 -42.32 
L 123.54465 -42.32 
L 123.687352 -42.32 
L 123.830054 -42.32 
L 123.972756 -42.32 
L 124.115459 -42.32 
L 124.258161 -42.32 
L 124.400863 -42.32 
L 124.543565 -42.32 
L 124.686267 -42.32 
L 124.828969 -42.32 
L 124.971671 -42.32 
L 125.114373 -42.32 
L 125.257075 -42.32 
L 125.399777 -42.32 
L 125.542479 -42.32 
L 125.685181 -42.32 
L 125.827883 -42.32 
L 125.970585 -42.32 
L 126.113287 -42.32 
L 126.255989 -42.32 
L 126.398691 -42.32 
L 126.541393 -42.32 
L 126.684095 -42.32 
L 126.826797 -42.32 
L 126.969499 -42.32 
L 127.112201 -42.32 
L 127.254903 -42.32 
L 127.397605 -42.32 
L 127.540307 -42.32 
L 127.683009 -42.32 
L 127.825711 -42.32 
L 127.968413 -42.32 
L 128.111115 -42.32 
L 128.253817 -42.32 
L 128.396519 -42.32 
L 128.539221 -42.32 
L 128.681923 -42.32 
L 128.824625 -42.32 
L 128.967327 -42.32 
L 129.110029 -42.32 
L 129.252731 -42.32 
L 129.395433 -42.32 
L 129.538136 -42.32 
L 129.680838 -42.32 
L 129.82354 -42.32 
L 129.966242 -42.32 
L 130.108944 -42.32 
L 130.251646 -42.32 
L 130.394348 -42.32 
L 130.53705 -42.32 
L 130.679752 -42.32 
L 130.822454 -42.32 
L 130.965156 -42.32 
L 131.107858 -42.32 
L 131.25056 -42.32 
L 131.393262 -42.32 
L 131.535964 -42.32 
L 131.678666 -42.32 
L 131.821368 -42.32 
L 131.96407 -42.32 
L 132.106772 -42.32 
L 132.249474 -42.32 
L 132.392176 -42.32 
L 132.534878 -42.32 
L 132.67758 -42.32 
L 132.820282 -42.32 
L 132.962984 -42.32 
L 133.105686 -42.32 
L 133.248388 -42.32 
L 133.39109 -42.32 
L 133.533792 -42.32 
L 133.676494 -42.32 
L 133.819196 -42.32 
L 133.961898 -42.32 
L 134.1046 -42.32 
L 134.247302 -42.32 
L 134.390004 -42.32 
L 134.532706 -42.32 
L 134.675408 -42.32 
L 134.81811 -42.32 
L 134.960813 -42.32 
L 135.103515 -42.32 
L 135.246217 -42.32 
L 135.388919 -42.32 
L 135.531621 -42.32 
L 135.674323 -42.32 
L 135.817025 -42.32 
L 135.959727 -42.32 
L 136.102429 -42.32 
L 136.245131 -42.32 
L 136.387833 -42.32 
L 136.530535 -42.32 
L 136.673237 -42.32 
L 136.815939 -42.32 
L 136.958641 -42.32 
L 137.101343 -42.32 
L 137.244045 -42.32 
L 137.386747 -42.32 
L 137.529449 -42.32 
L 137.672151 -42.32 
L 137.814853 -42.32 
L 137.957555 -42.32 
L 138.100257 -42.32 
L 138.242959 -42.32 
L 138.385661 -42.32 
L 138.528363 -42.32 
L 138.671065 -42.32 
L 138.813767 -42.32 
L 138.956469 -42.32 
L 139.099171 -42.32 
L 139.241873 -42.32 
L 139.384575 -42.32 
L 139.527277 -42.32 
L 139.669979 -42.32 
L 139.812681 -42.32 
L 139.955383 -42.32 
L 140.098085 -42.32 
L 140.240787 -42.32 
L 140.38349 -42.32 
L 140.526192 -42.32 
L 140.668894 -42.32 
L 140.811596 -42.32 
L 140.954298 -42.32 
L 141.097 -42.32 
L 141.239702 -42.32 
L 141.382404 -42.32 
L 141.525106 -42.32 
L 141.667808 -42.32 
L 141.81051 -42.32 
L 141.953212 -42.32 
L 142.095914 -42.32 
L 142.238616 -42.32 
L 142.381318 -42.32 
L 142.52402 -42.32 
L 142.666722 -42.32 
L 142.809424 -42.32 
L 142.952126 -42.32 
L 143.094828 -42.32 
L 143.23753 -42.32 
L 143.380232 -42.32 
L 143.522934 -42.32 
L 143.665636 -42.32 
L 143.808338 -42.32 
L 143.95104 -42.32 
L 144.093742 -42.32 
L 144.236444 -42.32 
L 144.379146 -42.32 
L 144.521848 -42.32 
L 144.66455 -42.32 
L 144.807252 -42.32 
L 144.949954 -42.32 
L 145.092656 -42.32 
L 145.235358 -42.32 
L 145.37806 -42.32 
L 145.520762 -42.32 
L 145.520762 -43.004566 
L 145.520762 -43.004566 
L 145.37806 -43.093825 
L 145.235358 -43.190724 
L 145.092656 -43.295449 
L 144.949954 -43.408155 
L 144.807252 -43.528972 
L 144.66455 -43.658 
L 144.521848 -43.795321 
L 144.379146 -43.940995 
L 144.236444 -44.095069 
L 144.093742 -44.257584 
L 143.95104 -44.428575 
L 143.808338 -44.608086 
L 143.665636 -44.796173 
L 143.522934 -44.992914 
L 143.380232 -45.198419 
L 143.23753 -45.412841 
L 143.094828 -45.636384 
L 142.952126 -45.869312 
L 142.809424 -46.111958 
L 142.666722 -46.364731 
L 142.52402 -46.628119 
L 142.381318 -46.902686 
L 142.238616 -47.189077 
L 142.095914 -47.488007 
L 141.953212 -47.800253 
L 141.81051 -48.126643 
L 141.667808 -48.468038 
L 141.525106 -48.825323 
L 141.382404 -49.199386 
L 141.239702 -49.591102 
L 141.097 -50.001326 
L 140.954298 -50.430877 
L 140.811596 -50.880536 
L 140.668894 -51.351039 
L 140.526192 -51.843085 
L 140.38349 -52.357336 
L 140.240787 -52.894428 
L 140.098085 -53.454978 
L 139.955383 -54.039592 
L 139.812681 -54.648871 
L 139.669979 -55.283409 
L 139.527277 -55.94379 
L 139.384575 -56.630571 
L 139.241873 -57.344261 
L 139.099171 -58.085285 
L 138.956469 -58.85395 
L 138.813767 -59.650386 
L 138.671065 -60.474496 
L 138.528363 -61.325893 
L 138.385661 -62.203841 
L 138.242959 -63.107191 
L 138.100257 -64.034329 
L 137.957555 -64.983124 
L 137.814853 -65.950894 
L 137.672151 -66.934382 
L 137.529449 -67.929745 
L 137.386747 -68.932566 
L 137.244045 -69.937875 
L 137.101343 -70.940201 
L 136.958641 -71.933629 
L 136.815939 -72.911888 
L 136.673237 -73.868442 
L 136.530535 -74.796611 
L 136.387833 -75.689691 
L 136.245131 -76.5411 
L 136.102429 -77.344516 
L 135.959727 -78.094034 
L 135.817025 -78.784318 
L 135.674323 -79.410749 
L 135.531621 -79.969566 
L 135.388919 -80.457998 
L 135.246217 -80.874372 
L 135.103515 -81.218204 
L 134.960813 -81.490258 
L 134.81811 -81.692568 
L 134.675408 -81.828434 
L 134.532706 -81.902367 
L 134.390004 -81.92 
L 134.247302 -81.887953 
L 134.1046 -81.813667 
L 133.961898 -81.705193 
L 133.819196 -81.570965 
L 133.676494 -81.419539 
L 133.533792 -81.259334 
L 133.39109 -81.098359 
L 133.248388 -80.943962 
L 133.105686 -80.802583 
L 132.962984 -80.679554 
L 132.820282 -80.578925 
L 132.67758 -80.50334 
L 132.534878 -80.45396 
L 132.392176 -80.430448 
L 132.249474 -80.430992 
L 132.106772 -80.45239 
L 131.96407 -80.490178 
L 131.821368 -80.538792 
L 131.678666 -80.59177 
L 131.535964 -80.641964 
L 131.393262 -80.68178 
L 131.25056 -80.703406 
L 131.107858 -80.699048 
L 130.965156 -80.661144 
L 130.822454 -80.582568 
L 130.679752 -80.456799 
L 130.53705 -80.278078 
L 130.394348 -80.041523 
L 130.251646 -79.743226 
L 130.108944 -79.380313 
L 129.966242 -78.950983 
L 129.82354 -78.454522 
L 129.680838 -77.891291 
L 129.538136 -77.262698 
L 129.395433 -76.571145 
L 129.252731 -75.819969 
L 129.110029 -75.013353 
L 128.967327 -74.15624 
L 128.824625 -73.25422 
L 128.681923 -72.313419 
L 128.539221 -71.340367 
L 128.396519 -70.341869 
L 128.253817 -69.324867 
L 128.111115 -68.296302 
L 127.968413 -67.262976 
L 127.825711 -66.231422 
L 127.683009 -65.207786 
L 127.540307 -64.197715 
L 127.397605 -63.206271 
L 127.254903 -62.237857 
L 127.112201 -61.296171 
L 126.969499 -60.384179 
L 126.826797 -59.504114 
L 126.684095 -58.6575 
L 126.541393 -57.845186 
L 126.398691 -57.067414 
L 126.255989 -56.323889 
L 126.113287 -55.613864 
L 125.970585 -54.936235 
L 125.827883 -54.289629 
L 125.685181 -53.672499 
L 125.542479 -53.083212 
L 125.399777 -52.520123 
L 125.257075 -51.981645 
L 125.114373 -51.466302 
L 124.971671 -50.972775 
L 124.828969 -50.499928 
L 124.686267 -50.046827 
L 124.543565 -49.612741 
L 124.400863 -49.197144 
L 124.258161 -48.799697 
L 124.115459 -48.420227 
L 123.972756 -48.058705 
L 123.830054 -47.715213 
L 123.687352 -47.389917 
L 123.54465 -47.083034 
L 123.401948 -46.7948 
L 123.259246 -46.525442 
L 123.116544 -46.275152 
L 122.973842 -46.04406 
L 122.83114 -45.832217 
L 122.688438 -45.639575 
L 122.545736 -45.465974 
L 122.403034 -45.311132 
L 122.260332 -45.174636 
L 122.11763 -45.055936 
L 121.974928 -44.954348 
L 121.832226 -44.869048 
L 121.689524 -44.79908 
L 121.546822 -44.743357 
L 121.40412 -44.700666 
L 121.261418 -44.669683 
L 121.118716 -44.648976 
L 120.976014 -44.637022 
L 120.833312 -44.632222 
L 120.69061 -44.632922 
L 120.547908 -44.637428 
L 120.405206 -44.644036 
L 120.262504 -44.651058 
L 120.119802 -44.656848 
L 119.9771 -44.659834 
L 119.834398 -44.658552 
L 119.691696 -44.651675 
L 119.548994 -44.638043 
L 119.406292 -44.616689 
L 119.26359 -44.586864 
L 119.120888 -44.548055 
L 118.978186 -44.499994 
L 118.835484 -44.442667 
L 118.692782 -44.376304 
L 118.550079 -44.301374 
L 118.407377 -44.218566 
L 118.264675 -44.128761 
L 118.121973 -44.033001 
L 117.979271 -43.932457 
L 117.836569 -43.828385 
L 117.693867 -43.72209 
L 117.551165 -43.614883 
L 117.408463 -43.508042 
L 117.265761 -43.40278 
L 117.123059 -43.300211 
z
" style="stroke: #bddf26; stroke-width: 1.25"/>
    </defs>
    <g>
     <use xlink:href="#mfad081ca3a" x="0" y="174.26" style="fill: #bddf26; fill-opacity: 0.7; stroke: #bddf26; stroke-width: 1.25"/>
    </g>
   </g>
   <g id="line2d_9">
    <path d="M 7.2 131.94 
L 216.45 131.94 
" style="fill: none; stroke: #bddf26; stroke-opacity: 0.9; stroke-linecap: round"/>
   </g>
   <g id="text_14">
    <!-- 8 -->
    <g style="fill: #bddf26" transform="translate(7.2 131.022) scale(0.12 -0.12)">
     <defs>
      <path id="IBMPlexSans-Bold-38" d="M 1920 -77 
Q 1523 -77 1212 22 
Q 902 122 691 294 
Q 480 467 368 704 
Q 256 941 256 1222 
Q 256 1651 493 1923 
Q 730 2195 1133 2304 
L 1133 2355 
Q 806 2477 598 2726 
Q 390 2976 390 3366 
Q 390 3622 489 3840 
Q 589 4058 784 4214 
Q 979 4371 1264 4457 
Q 1549 4544 1920 4544 
Q 2291 4544 2576 4457 
Q 2861 4371 3056 4214 
Q 3251 4058 3350 3840 
Q 3450 3622 3450 3366 
Q 3450 2976 3242 2726 
Q 3034 2477 2707 2355 
L 2707 2304 
Q 3110 2195 3347 1923 
Q 3584 1651 3584 1222 
Q 3584 941 3472 704 
Q 3360 467 3149 294 
Q 2938 122 2627 22 
Q 2317 -77 1920 -77 
z
M 1920 659 
Q 2240 659 2409 809 
Q 2579 960 2579 1229 
L 2579 1357 
Q 2579 1626 2409 1776 
Q 2240 1926 1920 1926 
Q 1600 1926 1430 1776 
Q 1261 1626 1261 1357 
L 1261 1229 
Q 1261 960 1430 809 
Q 1600 659 1920 659 
z
M 1920 2630 
Q 2227 2630 2387 2774 
Q 2547 2918 2547 3168 
L 2547 3270 
Q 2547 3520 2387 3664 
Q 2227 3808 1920 3808 
Q 1613 3808 1453 3664 
Q 1293 3520 1293 3270 
L 1293 3168 
Q 1293 2918 1453 2774 
Q 1613 2630 1920 2630 
z
" transform="scale(0.015625)"/>
     </defs>
     <use xlink:href="#IBMPlexSans-Bold-38"/>
    </g>
   </g>
  </g>
 </g>
</svg>
