<?xml version="1.0" encoding="utf-8" standalone="no"?>
<!DOCTYPE svg PUBLIC "-//W3C//DTD SVG 1.1//EN"
  "http://www.w3.org/Graphics/SVG/1.1/DTD/svg11.dtd">
<svg xmlns:xlink="http://www.w3.org/1999/xlink" width="223.65pt" height="174.26pt" viewBox="0 0 223.65 174.26" xmlns="http://www.w3.org/2000/svg" version="1.1">
 <metadata>
  <rdf:RDF xmlns:dc="http://purl.org/dc/elements/1.1/" xmlns:cc="http://creativecommons.org/ns#" xmlns:rdf="http://www.w3.org/1999/02/22-rdf-syntax-ns#">
   <cc:Work>
    <dc:type rdf:resource="http://purl.org/dc/dcmitype/StillImage"/>
    <dc:date>2025-12-31T11:25:31.333780</dc:date>
    <dc:format>image/svg+xml</dc:format>
    <dc:creator>
     <cc:Agent>
      <dc:title>Matplotlib v3.10.5, https://matplotlib.org/</dc:title>
     </cc:Agent>
    </dc:creator>
   </cc:Work>
  </rdf:RDF>
 </metadata>
 <defs>
  <style type="text/css">*{stroke-linejoin: round; stroke-linecap: butt}</style>
 </defs>
 <g id="figure_1">
  <g id="patch_1">
   <path d="M 0 174.26 
L 223.65 174.26 
L 223.65 0 
L 0 0 
L 0 174.26 
z
" style="fill: none"/>
  </g>
  <g id="axes_1">
   <g id="patch_2">
    <path d="M 7.2 48.78 
L 216.45 48.78 
L 216.45 7.2 
L 7.2 7.2 
L 7.2 48.78 
z
" style="fill: none"/>
   </g>
   <g id="matplotlib.axis_1">
    <g id="xtick_1"/>
    <g id="xtick_2"/>
    <g id="xtick_3"/>
    <g id="xtick_4"/>
   </g>
   <g id="matplotlib.axis_2"/>
   <g id="line2d_1">
    <path d="M 7.2 48.78 
L 216.45 48.78 
" style="fill: none; stroke: #482475; stroke-opacity: 0.9; stroke-linecap: round"/>
   </g>
   <g id="text_1">
    <!-- 0 -->
    <g style="fill: #482475" transform="translate(7.2 47.862) scale(0.12 -0.12)">
     <defs>
      <path id="IBMPlexSans-Bold-30" d="M 1920 -77 
Q 1043 -77 620 531 
Q 198 1139 198 2234 
Q 198 3328 620 3936 
Q 1043 4544 1920 4544 
Q 2797 4544 3219 3936 
Q 3642 3328 3642 2234 
Q 3642 1139 3219 531 
Q 2797 -77 1920 -77 
z
M 1920 736 
Q 2304 736 2451 1017 
Q 2598 1299 2598 1811 
L 2598 2656 
Q 2598 3168 2451 3449 
Q 2304 3731 1920 3731 
Q 1536 3731 1389 3449 
Q 1242 3168 1242 2656 
L 1242 1811 
Q 1242 1299 1389 1017 
Q 1536 736 1920 736 
z
" transform="scale(0.015625)"/>
     </defs>
     <use xlink:href="#IBMPlexSans-Bold-30"/>
    </g>
   </g>
  </g>
  <g id="axes_2">
   <g id="patch_3">
    <path d="M 7.2 59.175 
L 216.45 59.175 
L 216.45 17.595 
L 7.2 17.595 
L 7.2 59.175 
z
" style="fill: none"/>
   </g>
   <g id="matplotlib.axis_3">
    <g id="xtick_5"/>
    <g id="xtick_6"/>
    <g id="xtick_7"/>
    <g id="xtick_8"/>
   </g>
   <g id="matplotlib.axis_4"/>
   <g id="line2d_2">
    <path d="M 7.2 59.175 
L 216.45 59.175 
" style="fill: none; stroke: #482475; stroke-opacity: 0.9; stroke-linecap: round"/>
   </g>
   <g id="text_2">
    <!-- 1 -->
    <g style="fill: #482475" transform="translate(7.2 58.257) scale(0.12 -0.12)">
     <defs>
      <path id="IBMPlexSans-Bold-31" d="M 602 0 
L 602 774 
L 1805 774 
L 1805 3770 
L 1747 3770 
L 838 2579 
L 224 3059 
L 1293 4467 
L 2765 4467 
L 2765 774 
L 3712 774 
L 3712 0 
L 602 0 
z
" transform="scale(0.015625)"/>
     </defs>
     <use xlink:href="#IBMPlexSans-Bold-31"/>
    </g>
   </g>
  </g>
  <g id="axes_3">
   <g id="patch_4">
    <path d="M 7.2 69.57 
L 216.45 69.57 
L 216.45 27.99 
L 7.2 27.99 
L 7.2 69.57 
z
" style="fill: none"/>
   </g>
   <g id="matplotlib.axis_5">
    <g id="xtick_9"/>
    <g id="xtick_10"/>
    <g id="xtick_11"/>
    <g id="xtick_12"/>
   </g>
   <g id="matplotlib.axis_6"/>
   <g id="line2d_3">
    <path d="M 7.2 69.57 
L 216.45 69.57 
" style="fill: none; stroke: #482475; stroke-opacity: 0.9; stroke-linecap: round"/>
   </g>
   <g id="text_3">
    <!-- 2 -->
    <g style="fill: #482475" transform="translate(7.2 68.652) scale(0.12 -0.12)">
     <defs>
      <path id="IBMPlexSans-Bold-32" d="M 3526 0 
L 365 0 
L 365 877 
L 1741 2054 
Q 1926 2214 2054 2345 
Q 2182 2477 2262 2601 
Q 2342 2726 2377 2848 
Q 2413 2970 2413 3110 
L 2413 3200 
Q 2413 3328 2361 3424 
Q 2310 3520 2227 3584 
Q 2144 3648 2038 3680 
Q 1933 3712 1824 3712 
Q 1664 3712 1545 3661 
Q 1427 3610 1340 3523 
Q 1254 3437 1196 3325 
Q 1139 3213 1107 3085 
L 269 3405 
Q 346 3635 480 3843 
Q 614 4051 816 4208 
Q 1018 4365 1293 4454 
Q 1568 4544 1914 4544 
Q 2278 4544 2560 4441 
Q 2842 4339 3037 4160 
Q 3232 3981 3334 3734 
Q 3437 3488 3437 3200 
Q 3437 2912 3341 2675 
Q 3245 2438 3081 2230 
Q 2918 2022 2700 1836 
Q 2483 1651 2246 1459 
L 1414 806 
L 3526 806 
L 3526 0 
z
" transform="scale(0.015625)"/>
     </defs>
     <use xlink:href="#IBMPlexSans-Bold-32"/>
    </g>
   </g>
  </g>
  <g id="axes_4">
   <g id="patch_5">
    <path d="M 7.2 79.965 
L 216.45 79.965 
L 216.45 38.385 
L 7.2 38.385 
L 7.2 79.965 
z
" style="fill: none"/>
   </g>
   <g id="matplotlib.axis_7">
    <g id="xtick_13"/>
    <g id="xtick_14"/>
    <g id="xtick_15"/>
    <g id="xtick_16"/>
   </g>
   <g id="matplotlib.axis_8"/>
   <g id="line2d_4">
    <path d="M 7.2 79.965 
L 216.45 79.965 
" style="fill: none; stroke: #482475; stroke-opacity: 0.9; stroke-linecap: round"/>
   </g>
   <g id="text_4">
    <!-- 3 -->
    <g style="fill: #482475" transform="translate(7.2 79.047) scale(0.12 -0.12)">
     <defs>
      <path id="IBMPlexSans-Bold-33" d="M 1677 2701 
Q 2035 2701 2198 2838 
Q 2362 2976 2362 3181 
L 2362 3226 
Q 2362 3469 2205 3616 
Q 2048 3763 1760 3763 
Q 1491 3763 1254 3625 
Q 1018 3488 851 3232 
L 250 3795 
Q 378 3962 525 4099 
Q 672 4237 857 4336 
Q 1043 4435 1273 4489 
Q 1504 4544 1792 4544 
Q 2150 4544 2441 4461 
Q 2733 4378 2941 4221 
Q 3149 4064 3261 3846 
Q 3373 3629 3373 3360 
Q 3373 3149 3305 2976 
Q 3238 2803 3120 2675 
Q 3002 2547 2848 2467 
Q 2694 2387 2522 2355 
L 2522 2317 
Q 2720 2278 2889 2192 
Q 3059 2106 3184 1971 
Q 3309 1837 3379 1654 
Q 3450 1472 3450 1242 
Q 3450 941 3328 697 
Q 3206 454 2982 281 
Q 2758 109 2444 16 
Q 2131 -77 1754 -77 
Q 1414 -77 1152 -6 
Q 890 64 694 182 
Q 499 301 355 454 
Q 211 608 102 781 
L 813 1331 
Q 960 1056 1174 880 
Q 1389 704 1754 704 
Q 2080 704 2262 867 
Q 2445 1030 2445 1312 
L 2445 1350 
Q 2445 1626 2237 1763 
Q 2029 1901 1664 1901 
L 1261 1901 
L 1261 2701 
L 1677 2701 
z
" transform="scale(0.015625)"/>
     </defs>
     <use xlink:href="#IBMPlexSans-Bold-33"/>
    </g>
   </g>
  </g>
  <g id="axes_5">
   <g id="patch_6">
    <path d="M 7.2 90.36 
L 216.45 90.36 
L 216.45 48.78 
L 7.2 48.78 
L 7.2 90.36 
z
" style="fill: none"/>
   </g>
   <g id="matplotlib.axis_9">
    <g id="xtick_17"/>
    <g id="xtick_18"/>
    <g id="xtick_19"/>
    <g id="xtick_20"/>
   </g>
   <g id="matplotlib.axis_10"/>
   <g id="line2d_5">
    <path d="M 7.2 90.36 
L 216.45 90.36 
" style="fill: none; stroke: #482475; stroke-opacity: 0.9; stroke-linecap: round"/>
   </g>
   <g id="text_5">
    <!-- 4 -->
    <g style="fill: #482475" transform="translate(7.2 89.442) scale(0.12 -0.12)">
     <defs>
      <path id="IBMPlexSans-Bold-34" d="M 2157 0 
L 2157 858 
L 192 858 
L 192 1677 
L 1933 4467 
L 3072 4467 
L 3072 1600 
L 3635 1600 
L 3635 858 
L 3072 858 
L 3072 0 
L 2157 0 
z
M 960 1600 
L 2157 1600 
L 2157 3475 
L 2093 3475 
L 960 1600 
z
" transform="scale(0.015625)"/>
     </defs>
     <use xlink:href="#IBMPlexSans-Bold-34"/>
    </g>
   </g>
  </g>
  <g id="axes_6">
   <g id="patch_7">
    <path d="M 7.2 100.755 
L 216.45 100.755 
L 216.45 59.175 
L 7.2 59.175 
L 7.2 100.755 
z
" style="fill: none"/>
   </g>
   <g id="matplotlib.axis_11">
    <g id="xtick_21"/>
    <g id="xtick_22"/>
    <g id="xtick_23"/>
    <g id="xtick_24"/>
   </g>
   <g id="matplotlib.axis_12"/>
   <g id="FillBetweenPolyCollection_1">
    <defs>
     <path id="m472afe860a" d="M 73.872738 -76.862196 
L 73.872738 -73.505 
L 74.10916 -73.505 
L 74.345582 -73.505 
L 74.582004 -73.505 
L 74.818426 -73.505 
L 75.054849 -73.505 
L 75.291271 -73.505 
L 75.527693 -73.505 
L 75.764115 -73.505 
L 76.000537 -73.505 
L 76.23696 -73.505 
L 76.473382 -73.505 
L 76.709804 -73.505 
L 76.946226 -73.505 
L 77.182648 -73.505 
L 77.419071 -73.505 
L 77.655493 -73.505 
L 77.891915 -73.505 
L 78.128337 -73.505 
L 78.364759 -73.505 
L 78.601182 -73.505 
L 78.837604 -73.505 
L 79.074026 -73.505 
L 79.310448 -73.505 
L 79.54687 -73.505 
L 79.783293 -73.505 
L 80.019715 -73.505 
L 80.256137 -73.505 
L 80.492559 -73.505 
L 80.728981 -73.505 
L 80.965404 -73.505 
L 81.201826 -73.505 
L 81.438248 -73.505 
L 81.67467 -73.505 
L 81.911092 -73.505 
L 82.147515 -73.505 
L 82.383937 -73.505 
L 82.620359 -73.505 
L 82.856781 -73.505 
L 83.093203 -73.505 
L 83.329626 -73.505 
L 83.566048 -73.505 
L 83.80247 -73.505 
L 84.038892 -73.505 
L 84.275314 -73.505 
L 84.511737 -73.505 
L 84.748159 -73.505 
L 84.984581 -73.505 
L 85.221003 -73.505 
L 85.457425 -73.505 
L 85.693848 -73.505 
L 85.93027 -73.505 
L 86.166692 -73.505 
L 86.403114 -73.505 
L 86.639536 -73.505 
L 86.875959 -73.505 
L 87.112381 -73.505 
L 87.348803 -73.505 
L 87.585225 -73.505 
L 87.821647 -73.505 
L 88.05807 -73.505 
L 88.294492 -73.505 
L 88.530914 -73.505 
L 88.767336 -73.505 
L 89.003758 -73.505 
L 89.240181 -73.505 
L 89.476603 -73.505 
L 89.713025 -73.505 
L 89.949447 -73.505 
L 90.185869 -73.505 
L 90.422292 -73.505 
L 90.658714 -73.505 
L 90.895136 -73.505 
L 91.131558 -73.505 
L 91.367981 -73.505 
L 91.604403 -73.505 
L 91.840825 -73.505 
L 92.077247 -73.505 
L 92.313669 -73.505 
L 92.550092 -73.505 
L 92.786514 -73.505 
L 93.022936 -73.505 
L 93.259358 -73.505 
L 93.49578 -73.505 
L 93.732203 -73.505 
L 93.968625 -73.505 
L 94.205047 -73.505 
L 94.441469 -73.505 
L 94.677891 -73.505 
L 94.914314 -73.505 
L 95.150736 -73.505 
L 95.387158 -73.505 
L 95.62358 -73.505 
L 95.860002 -73.505 
L 96.096425 -73.505 
L 96.332847 -73.505 
L 96.569269 -73.505 
L 96.805691 -73.505 
L 97.042113 -73.505 
L 97.278536 -73.505 
L 97.514958 -73.505 
L 97.75138 -73.505 
L 97.987802 -73.505 
L 98.224224 -73.505 
L 98.460647 -73.505 
L 98.697069 -73.505 
L 98.933491 -73.505 
L 99.169913 -73.505 
L 99.406335 -73.505 
L 99.642758 -73.505 
L 99.87918 -73.505 
L 100.115602 -73.505 
L 100.352024 -73.505 
L 100.588446 -73.505 
L 100.824869 -73.505 
L 101.061291 -73.505 
L 101.297713 -73.505 
L 101.534135 -73.505 
L 101.770557 -73.505 
L 102.00698 -73.505 
L 102.243402 -73.505 
L 102.479824 -73.505 
L 102.716246 -73.505 
L 102.952668 -73.505 
L 103.189091 -73.505 
L 103.425513 -73.505 
L 103.661935 -73.505 
L 103.898357 -73.505 
L 104.134779 -73.505 
L 104.371202 -73.505 
L 104.607624 -73.505 
L 104.844046 -73.505 
L 105.080468 -73.505 
L 105.31689 -73.505 
L 105.553313 -73.505 
L 105.789735 -73.505 
L 106.026157 -73.505 
L 106.262579 -73.505 
L 106.499001 -73.505 
L 106.735424 -73.505 
L 106.971846 -73.505 
L 107.208268 -73.505 
L 107.44469 -73.505 
L 107.681112 -73.505 
L 107.917535 -73.505 
L 108.153957 -73.505 
L 108.390379 -73.505 
L 108.626801 -73.505 
L 108.863223 -73.505 
L 109.099646 -73.505 
L 109.336068 -73.505 
L 109.57249 -73.505 
L 109.808912 -73.505 
L 110.045334 -73.505 
L 110.281757 -73.505 
L 110.518179 -73.505 
L 110.754601 -73.505 
L 110.991023 -73.505 
L 111.227445 -73.505 
L 111.463868 -73.505 
L 111.70029 -73.505 
L 111.936712 -73.505 
L 112.173134 -73.505 
L 112.409556 -73.505 
L 112.645979 -73.505 
L 112.882401 -73.505 
L 113.118823 -73.505 
L 113.355245 -73.505 
L 113.591667 -73.505 
L 113.82809 -73.505 
L 114.064512 -73.505 
L 114.300934 -73.505 
L 114.537356 -73.505 
L 114.773778 -73.505 
L 115.010201 -73.505 
L 115.246623 -73.505 
L 115.483045 -73.505 
L 115.719467 -73.505 
L 115.955889 -73.505 
L 116.192312 -73.505 
L 116.428734 -73.505 
L 116.665156 -73.505 
L 116.901578 -73.505 
L 117.138 -73.505 
L 117.374423 -73.505 
L 117.610845 -73.505 
L 117.847267 -73.505 
L 118.083689 -73.505 
L 118.320111 -73.505 
L 118.556534 -73.505 
L 118.792956 -73.505 
L 119.029378 -73.505 
L 119.2658 -73.505 
L 119.502222 -73.505 
L 119.738645 -73.505 
L 119.975067 -73.505 
L 120.211489 -73.505 
L 120.447911 -73.505 
L 120.684333 -73.505 
L 120.920756 -73.505 
L 120.920756 -75.032416 
L 120.920756 -75.032416 
L 120.684333 -75.188768 
L 120.447911 -75.355916 
L 120.211489 -75.534098 
L 119.975067 -75.723522 
L 119.738645 -75.924361 
L 119.502222 -76.136758 
L 119.2658 -76.360824 
L 119.029378 -76.596634 
L 118.792956 -76.84423 
L 118.556534 -77.10362 
L 118.320111 -77.374773 
L 118.083689 -77.657622 
L 117.847267 -77.952061 
L 117.610845 -78.257939 
L 117.374423 -78.575064 
L 117.138 -78.903194 
L 116.901578 -79.242038 
L 116.665156 -79.591251 
L 116.428734 -79.950433 
L 116.192312 -80.319124 
L 115.955889 -80.696804 
L 115.719467 -81.082889 
L 115.483045 -81.476732 
L 115.246623 -81.877625 
L 115.010201 -82.284797 
L 114.773778 -82.697417 
L 114.537356 -83.114603 
L 114.300934 -83.535422 
L 114.064512 -83.9589 
L 113.82809 -84.384033 
L 113.591667 -84.809794 
L 113.355245 -85.235147 
L 113.118823 -85.659062 
L 112.882401 -86.080523 
L 112.645979 -86.498553 
L 112.409556 -86.912219 
L 112.173134 -87.320656 
L 111.936712 -87.723081 
L 111.70029 -88.118802 
L 111.463868 -88.507243 
L 111.227445 -88.887947 
L 110.991023 -89.260594 
L 110.754601 -89.625009 
L 110.518179 -89.981166 
L 110.281757 -90.329198 
L 110.045334 -90.669399 
L 109.808912 -91.002219 
L 109.57249 -91.328266 
L 109.336068 -91.648298 
L 109.099646 -91.963217 
L 108.863223 -92.274053 
L 108.626801 -92.581955 
L 108.390379 -92.888175 
L 108.153957 -93.194045 
L 107.917535 -93.500962 
L 107.681112 -93.810365 
L 107.44469 -94.123709 
L 107.208268 -94.442443 
L 106.971846 -94.767986 
L 106.735424 -95.101694 
L 106.499001 -95.444843 
L 106.262579 -95.798594 
L 106.026157 -96.163971 
L 105.789735 -96.541833 
L 105.553313 -96.932853 
L 105.31689 -97.337491 
L 105.080468 -97.755974 
L 104.844046 -98.188279 
L 104.607624 -98.63412 
L 104.371202 -99.092931 
L 104.134779 -99.563865 
L 103.898357 -100.045791 
L 103.661935 -100.537296 
L 103.425513 -101.036697 
L 103.189091 -101.542059 
L 102.952668 -102.05121 
L 102.716246 -102.561779 
L 102.479824 -103.071224 
L 102.243402 -103.576873 
L 102.00698 -104.075974 
L 101.770557 -104.565735 
L 101.534135 -105.043385 
L 101.297713 -105.506221 
L 101.061291 -105.951662 
L 100.824869 -106.377304 
L 100.588446 -106.78097 
L 100.352024 -107.160753 
L 100.115602 -107.515055 
L 99.87918 -107.842628 
L 99.642758 -108.142591 
L 99.406335 -108.414455 
L 99.169913 -108.658128 
L 98.933491 -108.873917 
L 98.697069 -109.062517 
L 98.460647 -109.224999 
L 98.224224 -109.362778 
L 97.987802 -109.477583 
L 97.75138 -109.571422 
L 97.514958 -109.646536 
L 97.278536 -109.705353 
L 97.042113 -109.750438 
L 96.805691 -109.784446 
L 96.569269 -109.810072 
L 96.332847 -109.830002 
L 96.096425 -109.846868 
L 95.860002 -109.863204 
L 95.62358 -109.881412 
L 95.387158 -109.903719 
L 95.150736 -109.932155 
L 94.914314 -109.968522 
L 94.677891 -110.014372 
L 94.441469 -110.07099 
L 94.205047 -110.13938 
L 93.968625 -110.220255 
L 93.732203 -110.314026 
L 93.49578 -110.420804 
L 93.259358 -110.540393 
L 93.022936 -110.672294 
L 92.786514 -110.815707 
L 92.550092 -110.969543 
L 92.313669 -111.132428 
L 92.077247 -111.302717 
L 91.840825 -111.478515 
L 91.604403 -111.657691 
L 91.367981 -111.837904 
L 91.131558 -112.016628 
L 90.895136 -112.191186 
L 90.658714 -112.358779 
L 90.422292 -112.516526 
L 90.185869 -112.661506 
L 89.949447 -112.790795 
L 89.713025 -112.901513 
L 89.476603 -112.990865 
L 89.240181 -113.056189 
L 89.003758 -113.094993 
L 88.767336 -113.105 
L 88.530914 -113.084179 
L 88.294492 -113.030779 
L 88.05807 -112.943356 
L 87.821647 -112.820792 
L 87.585225 -112.662307 
L 87.348803 -112.467464 
L 87.112381 -112.236169 
L 86.875959 -111.968661 
L 86.639536 -111.665493 
L 86.403114 -111.327513 
L 86.166692 -110.955827 
L 85.93027 -110.551772 
L 85.693848 -110.116871 
L 85.457425 -109.652793 
L 85.221003 -109.161311 
L 84.984581 -108.644256 
L 84.748159 -108.103473 
L 84.511737 -107.540784 
L 84.275314 -106.957948 
L 84.038892 -106.356629 
L 83.80247 -105.738369 
L 83.566048 -105.104569 
L 83.329626 -104.456472 
L 83.093203 -103.795159 
L 82.856781 -103.121547 
L 82.620359 -102.436396 
L 82.383937 -101.740325 
L 82.147515 -101.033829 
L 81.911092 -100.317304 
L 81.67467 -99.591079 
L 81.438248 -98.855439 
L 81.201826 -98.110668 
L 80.965404 -97.357076 
L 80.728981 -96.595037 
L 80.492559 -95.825016 
L 80.256137 -95.047597 
L 80.019715 -94.263513 
L 79.783293 -93.473656 
L 79.54687 -92.679098 
L 79.310448 -91.881094 
L 79.074026 -91.081084 
L 78.837604 -90.280688 
L 78.601182 -89.481692 
L 78.364759 -88.686033 
L 78.128337 -87.895773 
L 77.891915 -87.113072 
L 77.655493 -86.34016 
L 77.419071 -85.579295 
L 77.182648 -84.832736 
L 76.946226 -84.1027 
L 76.709804 -83.391328 
L 76.473382 -82.700651 
L 76.23696 -82.032557 
L 76.000537 -81.388762 
L 75.764115 -80.770785 
L 75.527693 -80.179928 
L 75.291271 -79.617261 
L 75.054849 -79.08361 
L 74.818426 -78.579551 
L 74.582004 -78.105412 
L 74.345582 -77.661278 
L 74.10916 -77.246998 
L 73.872738 -76.862196 
z
" style="stroke: #414487; stroke-width: 1.25"/>
    </defs>
    <g>
     <use xlink:href="#m472afe860a" x="0" y="174.26" style="fill: #414487; fill-opacity: 0.7; stroke: #414487; stroke-width: 1.25"/>
    </g>
   </g>
   <g id="line2d_6">
    <path d="M 7.2 100.755 
L 216.45 100.755 
" style="fill: none; stroke: #414487; stroke-opacity: 0.9; stroke-linecap: round"/>
   </g>
   <g id="text_6">
    <!-- 5 -->
    <g style="fill: #414487" transform="translate(7.2 99.837) scale(0.12 -0.12)">
     <defs>
      <path id="IBMPlexSans-Bold-35" d="M 3341 3629 
L 1312 3629 
L 1216 2214 
L 1267 2214 
Q 1331 2374 1411 2505 
Q 1491 2637 1600 2729 
Q 1709 2822 1862 2873 
Q 2016 2925 2227 2925 
Q 2515 2925 2764 2829 
Q 3014 2733 3200 2550 
Q 3386 2368 3494 2102 
Q 3603 1837 3603 1504 
Q 3603 1165 3491 873 
Q 3379 582 3158 371 
Q 2938 160 2618 41 
Q 2298 -77 1888 -77 
Q 1562 -77 1312 -6 
Q 1062 64 870 182 
Q 678 301 537 454 
Q 397 608 294 781 
L 992 1331 
Q 1139 1069 1344 886 
Q 1549 704 1894 704 
Q 2240 704 2416 902 
Q 2592 1101 2592 1427 
L 2592 1478 
Q 2592 1786 2413 1965 
Q 2234 2144 1920 2144 
Q 1658 2144 1488 2038 
Q 1318 1933 1229 1830 
L 442 1939 
L 608 4467 
L 3341 4467 
L 3341 3629 
z
" transform="scale(0.015625)"/>
     </defs>
     <use xlink:href="#IBMPlexSans-Bold-35"/>
    </g>
   </g>
  </g>
  <g id="axes_7">
   <g id="patch_8">
    <path d="M 7.2 111.15 
L 216.45 111.15 
L 216.45 69.57 
L 7.2 69.57 
L 7.2 111.15 
z
" style="fill: none"/>
   </g>
   <g id="matplotlib.axis_13">
    <g id="xtick_25"/>
    <g id="xtick_26"/>
    <g id="xtick_27"/>
    <g id="xtick_28"/>
   </g>
   <g id="matplotlib.axis_14"/>
   <g id="FillBetweenPolyCollection_2">
    <defs>
     <path id="mda7af12fe7" d="M 55.245943 -64.489538 
L 55.245943 -63.11 
L 55.72384 -63.11 
L 56.201736 -63.11 
L 56.679633 -63.11 
L 57.15753 -63.11 
L 57.635427 -63.11 
L 58.113323 -63.11 
L 58.59122 -63.11 
L 59.069117 -63.11 
L 59.547014 -63.11 
L 60.024911 -63.11 
L 60.502807 -63.11 
L 60.980704 -63.11 
L 61.458601 -63.11 
L 61.936498 -63.11 
L 62.414394 -63.11 
L 62.892291 -63.11 
L 63.370188 -63.11 
L 63.848085 -63.11 
L 64.325981 -63.11 
L 64.803878 -63.11 
L 65.281775 -63.11 
L 65.759672 -63.11 
L 66.237568 -63.11 
L 66.715465 -63.11 
L 67.193362 -63.11 
L 67.671259 -63.11 
L 68.149156 -63.11 
L 68.627052 -63.11 
L 69.104949 -63.11 
L 69.582846 -63.11 
L 70.060743 -63.11 
L 70.538639 -63.11 
L 71.016536 -63.11 
L 71.494433 -63.11 
L 71.97233 -63.11 
L 72.450226 -63.11 
L 72.928123 -63.11 
L 73.40602 -63.11 
L 73.883917 -63.11 
L 74.361814 -63.11 
L 74.83971 -63.11 
L 75.317607 -63.11 
L 75.795504 -63.11 
L 76.273401 -63.11 
L 76.751297 -63.11 
L 77.229194 -63.11 
L 77.707091 -63.11 
L 78.184988 -63.11 
L 78.662884 -63.11 
L 79.140781 -63.11 
L 79.618678 -63.11 
L 80.096575 -63.11 
L 80.574471 -63.11 
L 81.052368 -63.11 
L 81.530265 -63.11 
L 82.008162 -63.11 
L 82.486059 -63.11 
L 82.963955 -63.11 
L 83.441852 -63.11 
L 83.919749 -63.11 
L 84.397646 -63.11 
L 84.875542 -63.11 
L 85.353439 -63.11 
L 85.831336 -63.11 
L 86.309233 -63.11 
L 86.787129 -63.11 
L 87.265026 -63.11 
L 87.742923 -63.11 
L 88.22082 -63.11 
L 88.698717 -63.11 
L 89.176613 -63.11 
L 89.65451 -63.11 
L 90.132407 -63.11 
L 90.610304 -63.11 
L 91.0882 -63.11 
L 91.566097 -63.11 
L 92.043994 -63.11 
L 92.521891 -63.11 
L 92.999787 -63.11 
L 93.477684 -63.11 
L 93.955581 -63.11 
L 94.433478 -63.11 
L 94.911374 -63.11 
L 95.389271 -63.11 
L 95.867168 -63.11 
L 96.345065 -63.11 
L 96.822962 -63.11 
L 97.300858 -63.11 
L 97.778755 -63.11 
L 98.256652 -63.11 
L 98.734549 -63.11 
L 99.212445 -63.11 
L 99.690342 -63.11 
L 100.168239 -63.11 
L 100.646136 -63.11 
L 101.124032 -63.11 
L 101.601929 -63.11 
L 102.079826 -63.11 
L 102.557723 -63.11 
L 103.03562 -63.11 
L 103.513516 -63.11 
L 103.991413 -63.11 
L 104.46931 -63.11 
L 104.947207 -63.11 
L 105.425103 -63.11 
L 105.903 -63.11 
L 106.380897 -63.11 
L 106.858794 -63.11 
L 107.33669 -63.11 
L 107.814587 -63.11 
L 108.292484 -63.11 
L 108.770381 -63.11 
L 109.248277 -63.11 
L 109.726174 -63.11 
L 110.204071 -63.11 
L 110.681968 -63.11 
L 111.159865 -63.11 
L 111.637761 -63.11 
L 112.115658 -63.11 
L 112.593555 -63.11 
L 113.071452 -63.11 
L 113.549348 -63.11 
L 114.027245 -63.11 
L 114.505142 -63.11 
L 114.983039 -63.11 
L 115.460935 -63.11 
L 115.938832 -63.11 
L 116.416729 -63.11 
L 116.894626 -63.11 
L 117.372523 -63.11 
L 117.850419 -63.11 
L 118.328316 -63.11 
L 118.806213 -63.11 
L 119.28411 -63.11 
L 119.762006 -63.11 
L 120.239903 -63.11 
L 120.7178 -63.11 
L 121.195697 -63.11 
L 121.673593 -63.11 
L 122.15149 -63.11 
L 122.629387 -63.11 
L 123.107284 -63.11 
L 123.58518 -63.11 
L 124.063077 -63.11 
L 124.540974 -63.11 
L 125.018871 -63.11 
L 125.496768 -63.11 
L 125.974664 -63.11 
L 126.452561 -63.11 
L 126.930458 -63.11 
L 127.408355 -63.11 
L 127.886251 -63.11 
L 128.364148 -63.11 
L 128.842045 -63.11 
L 129.319942 -63.11 
L 129.797838 -63.11 
L 130.275735 -63.11 
L 130.753632 -63.11 
L 131.231529 -63.11 
L 131.709426 -63.11 
L 132.187322 -63.11 
L 132.665219 -63.11 
L 133.143116 -63.11 
L 133.621013 -63.11 
L 134.098909 -63.11 
L 134.576806 -63.11 
L 135.054703 -63.11 
L 135.5326 -63.11 
L 136.010496 -63.11 
L 136.488393 -63.11 
L 136.96629 -63.11 
L 137.444187 -63.11 
L 137.922083 -63.11 
L 138.39998 -63.11 
L 138.877877 -63.11 
L 139.355774 -63.11 
L 139.833671 -63.11 
L 140.311567 -63.11 
L 140.789464 -63.11 
L 141.267361 -63.11 
L 141.745258 -63.11 
L 142.223154 -63.11 
L 142.701051 -63.11 
L 143.178948 -63.11 
L 143.656845 -63.11 
L 144.134741 -63.11 
L 144.612638 -63.11 
L 145.090535 -63.11 
L 145.568432 -63.11 
L 146.046329 -63.11 
L 146.524225 -63.11 
L 147.002122 -63.11 
L 147.480019 -63.11 
L 147.957916 -63.11 
L 148.435812 -63.11 
L 148.913709 -63.11 
L 149.391606 -63.11 
L 149.869503 -63.11 
L 150.347399 -63.11 
L 150.347399 -63.873054 
L 150.347399 -63.873054 
L 149.869503 -63.951019 
L 149.391606 -64.034283 
L 148.913709 -64.122948 
L 148.435812 -64.217103 
L 147.957916 -64.316821 
L 147.480019 -64.42216 
L 147.002122 -64.533165 
L 146.524225 -64.649867 
L 146.046329 -64.772281 
L 145.568432 -64.900411 
L 145.090535 -65.034245 
L 144.612638 -65.173758 
L 144.134741 -65.31891 
L 143.656845 -65.469645 
L 143.178948 -65.625892 
L 142.701051 -65.787558 
L 142.223154 -65.954536 
L 141.745258 -66.126693 
L 141.267361 -66.303876 
L 140.789464 -66.485905 
L 140.311567 -66.672576 
L 139.833671 -66.863656 
L 139.355774 -67.058883 
L 138.877877 -67.257967 
L 138.39998 -67.460585 
L 137.922083 -67.66639 
L 137.444187 -67.875002 
L 136.96629 -68.086016 
L 136.488393 -68.299006 
L 136.010496 -68.513523 
L 135.5326 -68.729101 
L 135.054703 -68.945267 
L 134.576806 -69.161537 
L 134.098909 -69.37743 
L 133.621013 -69.592472 
L 133.143116 -69.806203 
L 132.665219 -70.018181 
L 132.187322 -70.227994 
L 131.709426 -70.435267 
L 131.231529 -70.639661 
L 130.753632 -70.840891 
L 130.275735 -71.038722 
L 129.797838 -71.232979 
L 129.319942 -71.42355 
L 128.842045 -71.61039 
L 128.364148 -71.793522 
L 127.886251 -71.973038 
L 127.408355 -72.149102 
L 126.930458 -72.321947 
L 126.452561 -72.49187 
L 125.974664 -72.659236 
L 125.496768 -72.824466 
L 125.018871 -72.988035 
L 124.540974 -73.150468 
L 124.063077 -73.312325 
L 123.58518 -73.474202 
L 123.107284 -73.636714 
L 122.629387 -73.800489 
L 122.15149 -73.966157 
L 121.673593 -74.134334 
L 121.195697 -74.305615 
L 120.7178 -74.480562 
L 120.239903 -74.659686 
L 119.762006 -74.843437 
L 119.28411 -75.032191 
L 118.806213 -75.226241 
L 118.328316 -75.425777 
L 117.850419 -75.630884 
L 117.372523 -75.841528 
L 116.894626 -76.05755 
L 116.416729 -76.27866 
L 115.938832 -76.504434 
L 115.460935 -76.734314 
L 114.983039 -76.967611 
L 114.505142 -77.203512 
L 114.027245 -77.441085 
L 113.549348 -77.6793 
L 113.071452 -77.917035 
L 112.593555 -78.153104 
L 112.115658 -78.386271 
L 111.637761 -78.615278 
L 111.159865 -78.83887 
L 110.681968 -79.05582 
L 110.204071 -79.264955 
L 109.726174 -79.465184 
L 109.248277 -79.655521 
L 108.770381 -79.835107 
L 108.292484 -80.00323 
L 107.814587 -80.159343 
L 107.33669 -80.303078 
L 106.858794 -80.434247 
L 106.380897 -80.552857 
L 105.903 -80.659099 
L 105.425103 -80.753351 
L 104.947207 -80.836166 
L 104.46931 -80.908258 
L 103.991413 -80.970488 
L 103.513516 -81.023842 
L 103.03562 -81.069412 
L 102.557723 -81.108375 
L 102.079826 -81.141961 
L 101.601929 -81.171438 
L 101.124032 -81.19808 
L 100.646136 -81.22315 
L 100.168239 -81.247871 
L 99.690342 -81.273409 
L 99.212445 -81.300855 
L 98.734549 -81.331202 
L 98.256652 -81.365334 
L 97.778755 -81.404011 
L 97.300858 -81.447856 
L 96.822962 -81.49735 
L 96.345065 -81.552819 
L 95.867168 -81.614432 
L 95.389271 -81.682193 
L 94.911374 -81.755945 
L 94.433478 -81.835364 
L 93.955581 -81.919963 
L 93.477684 -82.009096 
L 92.999787 -82.101963 
L 92.521891 -82.197618 
L 92.043994 -82.294981 
L 91.566097 -82.392845 
L 91.0882 -82.489898 
L 90.610304 -82.584734 
L 90.132407 -82.675878 
L 89.65451 -82.761801 
L 89.176613 -82.840949 
L 88.698717 -82.911763 
L 88.22082 -82.972707 
L 87.742923 -83.022292 
L 87.265026 -83.059102 
L 86.787129 -83.081818 
L 86.309233 -83.089242 
L 85.831336 -83.080315 
L 85.353439 -83.054138 
L 84.875542 -83.009983 
L 84.397646 -82.947306 
L 83.919749 -82.865754 
L 83.441852 -82.765164 
L 82.963955 -82.645561 
L 82.486059 -82.507154 
L 82.008162 -82.350322 
L 81.530265 -82.1756 
L 81.052368 -81.983659 
L 80.574471 -81.775287 
L 80.096575 -81.551367 
L 79.618678 -81.312847 
L 79.140781 -81.060721 
L 78.662884 -80.796 
L 78.184988 -80.519689 
L 77.707091 -80.232768 
L 77.229194 -79.936169 
L 76.751297 -79.63076 
L 76.273401 -79.317333 
L 75.795504 -78.996593 
L 75.317607 -78.669153 
L 74.83971 -78.335535 
L 74.361814 -77.996168 
L 73.883917 -77.651394 
L 73.40602 -77.301482 
L 72.928123 -76.946637 
L 72.450226 -76.587011 
L 71.97233 -76.222727 
L 71.494433 -75.85389 
L 71.016536 -75.480607 
L 70.538639 -75.103006 
L 70.060743 -74.721249 
L 69.582846 -74.335554 
L 69.104949 -73.946202 
L 68.627052 -73.553553 
L 68.149156 -73.158051 
L 67.671259 -72.760232 
L 67.193362 -72.360728 
L 66.715465 -71.960261 
L 66.237568 -71.559644 
L 65.759672 -71.159772 
L 65.281775 -70.761613 
L 64.803878 -70.366193 
L 64.325981 -69.974587 
L 63.848085 -69.587899 
L 63.370188 -69.207246 
L 62.892291 -68.833742 
L 62.414394 -68.468476 
L 61.936498 -68.112501 
L 61.458601 -67.766812 
L 60.980704 -67.432332 
L 60.502807 -67.109902 
L 60.024911 -66.800262 
L 59.547014 -66.504049 
L 59.069117 -66.221785 
L 58.59122 -65.953876 
L 58.113323 -65.700604 
L 57.635427 -65.462133 
L 57.15753 -65.238509 
L 56.679633 -65.029663 
L 56.201736 -64.835418 
L 55.72384 -64.655498 
L 55.245943 -64.489538 
z
" style="stroke: #355f8d; stroke-width: 1.25"/>
    </defs>
    <g>
     <use xlink:href="#mda7af12fe7" x="0" y="174.26" style="fill: #355f8d; fill-opacity: 0.7; stroke: #355f8d; stroke-width: 1.25"/>
    </g>
   </g>
   <g id="line2d_7">
    <path d="M 7.2 111.15 
L 216.45 111.15 
" style="fill: none; stroke: #355f8d; stroke-opacity: 0.9; stroke-linecap: round"/>
   </g>
   <g id="text_7">
    <!-- 6 -->
    <g style="fill: #355f8d" transform="translate(7.2 110.232) scale(0.12 -0.12)">
     <defs>
      <path id="IBMPlexSans-Bold-36" d="M 1946 -77 
Q 1549 -77 1235 48 
Q 922 173 707 406 
Q 493 640 381 966 
Q 269 1293 269 1696 
Q 269 2163 413 2582 
Q 557 3002 784 3357 
Q 1011 3712 1296 3993 
Q 1581 4275 1869 4467 
L 3194 4467 
Q 2784 4173 2457 3907 
Q 2131 3642 1891 3373 
Q 1651 3104 1494 2825 
Q 1338 2547 1274 2227 
L 1331 2208 
Q 1389 2336 1469 2457 
Q 1549 2579 1667 2672 
Q 1786 2765 1946 2822 
Q 2106 2880 2317 2880 
Q 2592 2880 2832 2781 
Q 3072 2682 3248 2502 
Q 3424 2323 3523 2064 
Q 3622 1805 3622 1491 
Q 3622 1146 3504 858 
Q 3386 570 3165 362 
Q 2944 154 2637 38 
Q 2330 -77 1946 -77 
z
M 1946 672 
Q 2266 672 2445 848 
Q 2624 1024 2624 1350 
L 2624 1466 
Q 2624 1792 2445 1968 
Q 2266 2144 1946 2144 
Q 1626 2144 1446 1968 
Q 1267 1792 1267 1466 
L 1267 1350 
Q 1267 1024 1446 848 
Q 1626 672 1946 672 
z
" transform="scale(0.015625)"/>
     </defs>
     <use xlink:href="#IBMPlexSans-Bold-36"/>
    </g>
   </g>
  </g>
  <g id="axes_8">
   <g id="patch_9">
    <path d="M 7.2 121.545 
L 216.45 121.545 
L 216.45 79.965 
L 7.2 79.965 
L 7.2 121.545 
z
" style="fill: none"/>
   </g>
   <g id="matplotlib.axis_15">
    <g id="xtick_29"/>
    <g id="xtick_30"/>
    <g id="xtick_31"/>
    <g id="xtick_32"/>
   </g>
   <g id="matplotlib.axis_16"/>
   <g id="FillBetweenPolyCollection_3">
    <defs>
     <path id="md0eecfa6b5" d="M 36.039431 -53.484287 
L 36.039431 -52.715 
L 36.75789 -52.715 
L 37.476349 -52.715 
L 38.194808 -52.715 
L 38.913267 -52.715 
L 39.631726 -52.715 
L 40.350185 -52.715 
L 41.068644 -52.715 
L 41.787103 -52.715 
L 42.505562 -52.715 
L 43.224021 -52.715 
L 43.94248 -52.715 
L 44.660939 -52.715 
L 45.379398 -52.715 
L 46.097857 -52.715 
L 46.816315 -52.715 
L 47.534774 -52.715 
L 48.253233 -52.715 
L 48.971692 -52.715 
L 49.690151 -52.715 
L 50.40861 -52.715 
L 51.127069 -52.715 
L 51.845528 -52.715 
L 52.563987 -52.715 
L 53.282446 -52.715 
L 54.000905 -52.715 
L 54.719364 -52.715 
L 55.437823 -52.715 
L 56.156282 -52.715 
L 56.874741 -52.715 
L 57.5932 -52.715 
L 58.311659 -52.715 
L 59.030118 -52.715 
L 59.748577 -52.715 
L 60.467036 -52.715 
L 61.185495 -52.715 
L 61.903954 -52.715 
L 62.622413 -52.715 
L 63.340872 -52.715 
L 64.059331 -52.715 
L 64.77779 -52.715 
L 65.496249 -52.715 
L 66.214708 -52.715 
L 66.933167 -52.715 
L 67.651626 -52.715 
L 68.370085 -52.715 
L 69.088544 -52.715 
L 69.807003 -52.715 
L 70.525462 -52.715 
L 71.243921 -52.715 
L 71.96238 -52.715 
L 72.680839 -52.715 
L 73.399298 -52.715 
L 74.117757 -52.715 
L 74.836216 -52.715 
L 75.554675 -52.715 
L 76.273134 -52.715 
L 76.991593 -52.715 
L 77.710052 -52.715 
L 78.428511 -52.715 
L 79.14697 -52.715 
L 79.865429 -52.715 
L 80.583888 -52.715 
L 81.302347 -52.715 
L 82.020806 -52.715 
L 82.739265 -52.715 
L 83.457724 -52.715 
L 84.176183 -52.715 
L 84.894642 -52.715 
L 85.613101 -52.715 
L 86.33156 -52.715 
L 87.050019 -52.715 
L 87.768478 -52.715 
L 88.486937 -52.715 
L 89.205396 -52.715 
L 89.923855 -52.715 
L 90.642314 -52.715 
L 91.360773 -52.715 
L 92.079231 -52.715 
L 92.79769 -52.715 
L 93.516149 -52.715 
L 94.234608 -52.715 
L 94.953067 -52.715 
L 95.671526 -52.715 
L 96.389985 -52.715 
L 97.108444 -52.715 
L 97.826903 -52.715 
L 98.545362 -52.715 
L 99.263821 -52.715 
L 99.98228 -52.715 
L 100.700739 -52.715 
L 101.419198 -52.715 
L 102.137657 -52.715 
L 102.856116 -52.715 
L 103.574575 -52.715 
L 104.293034 -52.715 
L 105.011493 -52.715 
L 105.729952 -52.715 
L 106.448411 -52.715 
L 107.16687 -52.715 
L 107.885329 -52.715 
L 108.603788 -52.715 
L 109.322247 -52.715 
L 110.040706 -52.715 
L 110.759165 -52.715 
L 111.477624 -52.715 
L 112.196083 -52.715 
L 112.914542 -52.715 
L 113.633001 -52.715 
L 114.35146 -52.715 
L 115.069919 -52.715 
L 115.788378 -52.715 
L 116.506837 -52.715 
L 117.225296 -52.715 
L 117.943755 -52.715 
L 118.662214 -52.715 
L 119.380673 -52.715 
L 120.099132 -52.715 
L 120.817591 -52.715 
L 121.53605 -52.715 
L 122.254509 -52.715 
L 122.972968 -52.715 
L 123.691427 -52.715 
L 124.409886 -52.715 
L 125.128345 -52.715 
L 125.846804 -52.715 
L 126.565263 -52.715 
L 127.283722 -52.715 
L 128.002181 -52.715 
L 128.72064 -52.715 
L 129.439099 -52.715 
L 130.157558 -52.715 
L 130.876017 -52.715 
L 131.594476 -52.715 
L 132.312935 -52.715 
L 133.031394 -52.715 
L 133.749853 -52.715 
L 134.468312 -52.715 
L 135.186771 -52.715 
L 135.90523 -52.715 
L 136.623689 -52.715 
L 137.342147 -52.715 
L 138.060606 -52.715 
L 138.779065 -52.715 
L 139.497524 -52.715 
L 140.215983 -52.715 
L 140.934442 -52.715 
L 141.652901 -52.715 
L 142.37136 -52.715 
L 143.089819 -52.715 
L 143.808278 -52.715 
L 144.526737 -52.715 
L 145.245196 -52.715 
L 145.963655 -52.715 
L 146.682114 -52.715 
L 147.400573 -52.715 
L 148.119032 -52.715 
L 148.837491 -52.715 
L 149.55595 -52.715 
L 150.274409 -52.715 
L 150.992868 -52.715 
L 151.711327 -52.715 
L 152.429786 -52.715 
L 153.148245 -52.715 
L 153.866704 -52.715 
L 154.585163 -52.715 
L 155.303622 -52.715 
L 156.022081 -52.715 
L 156.74054 -52.715 
L 157.458999 -52.715 
L 158.177458 -52.715 
L 158.895917 -52.715 
L 159.614376 -52.715 
L 160.332835 -52.715 
L 161.051294 -52.715 
L 161.769753 -52.715 
L 162.488212 -52.715 
L 163.206671 -52.715 
L 163.92513 -52.715 
L 164.643589 -52.715 
L 165.362048 -52.715 
L 166.080507 -52.715 
L 166.798966 -52.715 
L 167.517425 -52.715 
L 168.235884 -52.715 
L 168.954343 -52.715 
L 169.672802 -52.715 
L 170.391261 -52.715 
L 171.10972 -52.715 
L 171.828179 -52.715 
L 172.546638 -52.715 
L 173.265097 -52.715 
L 173.983556 -52.715 
L 174.702015 -52.715 
L 175.420474 -52.715 
L 176.138933 -52.715 
L 176.857392 -52.715 
L 177.575851 -52.715 
L 178.29431 -52.715 
L 179.012769 -52.715 
L 179.012769 -53.261759 
L 179.012769 -53.261759 
L 178.29431 -53.31752 
L 177.575851 -53.376988 
L 176.857392 -53.440214 
L 176.138933 -53.507239 
L 175.420474 -53.578089 
L 174.702015 -53.652779 
L 173.983556 -53.731313 
L 173.265097 -53.813683 
L 172.546638 -53.899872 
L 171.828179 -53.989853 
L 171.10972 -54.083589 
L 170.391261 -54.181034 
L 169.672802 -54.282134 
L 168.954343 -54.386824 
L 168.235884 -54.495032 
L 167.517425 -54.606674 
L 166.798966 -54.721657 
L 166.080507 -54.839877 
L 165.362048 -54.961216 
L 164.643589 -55.085545 
L 163.92513 -55.212718 
L 163.206671 -55.342577 
L 162.488212 -55.474946 
L 161.769753 -55.609634 
L 161.051294 -55.746433 
L 160.332835 -55.885119 
L 159.614376 -56.025452 
L 158.895917 -56.167177 
L 158.177458 -56.310026 
L 157.458999 -56.453721 
L 156.74054 -56.597972 
L 156.022081 -56.742487 
L 155.303622 -56.886969 
L 154.585163 -57.031122 
L 153.866704 -57.174657 
L 153.148245 -57.317292 
L 152.429786 -57.458759 
L 151.711327 -57.598809 
L 150.992868 -57.737212 
L 150.274409 -57.873767 
L 149.55595 -58.008299 
L 148.837491 -58.140667 
L 148.119032 -58.270767 
L 147.400573 -58.39853 
L 146.682114 -58.523927 
L 145.963655 -58.646972 
L 145.245196 -58.767719 
L 144.526737 -58.886263 
L 143.808278 -59.002741 
L 143.089819 -59.117328 
L 142.37136 -59.230239 
L 141.652901 -59.341724 
L 140.934442 -59.452064 
L 140.215983 -59.561571 
L 139.497524 -59.670581 
L 138.779065 -59.779449 
L 138.060606 -59.888548 
L 137.342147 -59.998256 
L 136.623689 -60.108957 
L 135.90523 -60.221027 
L 135.186771 -60.334834 
L 134.468312 -60.450723 
L 133.749853 -60.569011 
L 133.031394 -60.689981 
L 132.312935 -60.813868 
L 131.594476 -60.940856 
L 130.876017 -61.071064 
L 130.157558 -61.204546 
L 129.439099 -61.341278 
L 128.72064 -61.481158 
L 128.002181 -61.623997 
L 127.283722 -61.769522 
L 126.565263 -61.917372 
L 125.846804 -62.067103 
L 125.128345 -62.218189 
L 124.409886 -62.370035 
L 123.691427 -62.521977 
L 122.972968 -62.673303 
L 122.254509 -62.823258 
L 121.53605 -62.971066 
L 120.817591 -63.115942 
L 120.099132 -63.257111 
L 119.380673 -63.393825 
L 118.662214 -63.525382 
L 117.943755 -63.651143 
L 117.225296 -63.770545 
L 116.506837 -63.883119 
L 115.788378 -63.988502 
L 115.069919 -64.08644 
L 114.35146 -64.176805 
L 113.633001 -64.259589 
L 112.914542 -64.334909 
L 112.196083 -64.403005 
L 111.477624 -64.464231 
L 110.759165 -64.519051 
L 110.040706 -64.568022 
L 109.322247 -64.611786 
L 108.603788 -64.651055 
L 107.885329 -64.686591 
L 107.16687 -64.719192 
L 106.448411 -64.749677 
L 105.729952 -64.778862 
L 105.011493 -64.807553 
L 104.293034 -64.83652 
L 103.574575 -64.866489 
L 102.856116 -64.898127 
L 102.137657 -64.932027 
L 101.419198 -64.968702 
L 100.700739 -65.00857 
L 99.98228 -65.051952 
L 99.263821 -65.099062 
L 98.545362 -65.150004 
L 97.826903 -65.204767 
L 97.108444 -65.263227 
L 96.389985 -65.325143 
L 95.671526 -65.390161 
L 94.953067 -65.457815 
L 94.234608 -65.527533 
L 93.516149 -65.598641 
L 92.79769 -65.670373 
L 92.079231 -65.741879 
L 91.360773 -65.812236 
L 90.642314 -65.880461 
L 89.923855 -65.945524 
L 89.205396 -66.006364 
L 88.486937 -66.061909 
L 87.768478 -66.111088 
L 87.050019 -66.152852 
L 86.33156 -66.186193 
L 85.613101 -66.210161 
L 84.894642 -66.22388 
L 84.176183 -66.226567 
L 83.457724 -66.217544 
L 82.739265 -66.19625 
L 82.020806 -66.162251 
L 81.302347 -66.11525 
L 80.583888 -66.055083 
L 79.865429 -65.981726 
L 79.14697 -65.89529 
L 78.428511 -65.796011 
L 77.710052 -65.684247 
L 76.991593 -65.560459 
L 76.273134 -65.425202 
L 75.554675 -65.279104 
L 74.836216 -65.12285 
L 74.117757 -64.957164 
L 73.399298 -64.78279 
L 72.680839 -64.600471 
L 71.96238 -64.410935 
L 71.243921 -64.214879 
L 70.525462 -64.012953 
L 69.807003 -63.805751 
L 69.088544 -63.593801 
L 68.370085 -63.377561 
L 67.651626 -63.157417 
L 66.933167 -62.933679 
L 66.214708 -62.70659 
L 65.496249 -62.476329 
L 64.77779 -62.24302 
L 64.059331 -62.006739 
L 63.340872 -61.767531 
L 62.622413 -61.525419 
L 61.903954 -61.280419 
L 61.185495 -61.03255 
L 60.467036 -60.78185 
L 59.748577 -60.528389 
L 59.030118 -60.272275 
L 58.311659 -60.013668 
L 57.5932 -59.752784 
L 56.874741 -59.489903 
L 56.156282 -59.225371 
L 55.437823 -58.959598 
L 54.719364 -58.693062 
L 54.000905 -58.426304 
L 53.282446 -58.159917 
L 52.563987 -57.894549 
L 51.845528 -57.630883 
L 51.127069 -57.369637 
L 50.40861 -57.111546 
L 49.690151 -56.857353 
L 48.971692 -56.6078 
L 48.253233 -56.363609 
L 47.534774 -56.125478 
L 46.816315 -55.894068 
L 46.097857 -55.66999 
L 45.379398 -55.4538 
L 44.660939 -55.245991 
L 43.94248 -55.046984 
L 43.224021 -54.857129 
L 42.505562 -54.676697 
L 41.787103 -54.505882 
L 41.068644 -54.344799 
L 40.350185 -54.193486 
L 39.631726 -54.05191 
L 38.913267 -53.919966 
L 38.194808 -53.797485 
L 37.476349 -53.684239 
L 36.75789 -53.579948 
L 36.039431 -53.484287 
z
" style="stroke: #2a788e; stroke-width: 1.25"/>
    </defs>
    <g>
     <use xlink:href="#md0eecfa6b5" x="0" y="174.26" style="fill: #2a788e; fill-opacity: 0.7; stroke: #2a788e; stroke-width: 1.25"/>
    </g>
   </g>
   <g id="line2d_8">
    <path d="M 7.2 121.545 
L 216.45 121.545 
" style="fill: none; stroke: #2a788e; stroke-opacity: 0.9; stroke-linecap: round"/>
   </g>
   <g id="text_8">
    <!-- 7 -->
    <g style="fill: #2a788e" transform="translate(7.2 120.627) scale(0.12 -0.12)">
     <defs>
      <path id="IBMPlexSans-Bold-37" d="M 1062 0 
L 2560 3686 
L 1165 3686 
L 1165 2874 
L 352 2874 
L 352 4467 
L 3514 4467 
L 3514 3635 
L 2074 0 
L 1062 0 
z
" transform="scale(0.015625)"/>
     </defs>
     <use xlink:href="#IBMPlexSans-Bold-37"/>
    </g>
   </g>
  </g>
  <g id="axes_9">
   <g id="patch_10">
    <path d="M 7.2 131.94 
L 216.45 131.94 
L 216.45 90.36 
L 7.2 90.36 
L 7.2 131.94 
z
" style="fill: none"/>
   </g>
   <g id="matplotlib.axis_17">
    <g id="xtick_33">
     <g id="text_9">
      <!-- −2.5 -->
      <g style="fill: #838383" transform="translate(29.261864 149.58) scale(0.11 -0.11)">
       <defs>
        <path id="IBMPlexSans-Regular-2212" d="M 429 1734 
L 429 2170 
L 3411 2170 
L 3411 1734 
L 429 1734 
z
" transform="scale(0.015625)"/>
        <path id="IBMPlexSans-Regular-32" d="M 3411 0 
L 480 0 
L 480 550 
L 1939 1894 
Q 2253 2182 2464 2505 
Q 2675 2829 2675 3155 
L 2675 3232 
Q 2675 3603 2470 3833 
Q 2266 4064 1850 4064 
Q 1645 4064 1491 4006 
Q 1338 3949 1226 3846 
Q 1114 3744 1040 3606 
Q 966 3469 922 3309 
L 442 3494 
Q 506 3693 618 3881 
Q 730 4070 899 4217 
Q 1069 4365 1309 4454 
Q 1549 4544 1875 4544 
Q 2202 4544 2458 4448 
Q 2714 4352 2886 4179 
Q 3059 4006 3152 3769 
Q 3245 3533 3245 3245 
Q 3245 2982 3171 2758 
Q 3098 2534 2970 2332 
Q 2842 2131 2659 1939 
Q 2477 1747 2266 1555 
L 1062 474 
L 3411 474 
L 3411 0 
z
" transform="scale(0.015625)"/>
        <path id="IBMPlexSans-Regular-2e" d="M 870 -77 
Q 666 -77 573 25 
Q 480 128 480 294 
L 480 378 
Q 480 544 573 646 
Q 666 749 870 749 
Q 1075 749 1168 646 
Q 1261 544 1261 378 
L 1261 294 
Q 1261 128 1168 25 
Q 1075 -77 870 -77 
z
" transform="scale(0.015625)"/>
        <path id="IBMPlexSans-Regular-35" d="M 3187 3994 
L 1229 3994 
L 1101 2291 
L 1146 2291 
Q 1306 2515 1507 2649 
Q 1709 2784 2061 2784 
Q 2349 2784 2592 2688 
Q 2835 2592 3014 2416 
Q 3194 2240 3293 1984 
Q 3392 1728 3392 1402 
Q 3392 1075 3289 803 
Q 3187 531 2992 336 
Q 2797 141 2518 32 
Q 2240 -77 1888 -77 
Q 1606 -77 1392 -13 
Q 1178 51 1011 160 
Q 845 269 720 403 
Q 595 538 493 685 
L 896 992 
Q 979 858 1072 749 
Q 1165 640 1277 563 
Q 1389 486 1536 444 
Q 1683 403 1888 403 
Q 2349 403 2585 646 
Q 2822 890 2822 1331 
L 2822 1395 
Q 2822 1837 2585 2080 
Q 2349 2323 1888 2323 
Q 1581 2323 1405 2211 
Q 1229 2099 1088 1946 
L 634 2010 
L 794 4467 
L 3187 4467 
L 3187 3994 
z
" transform="scale(0.015625)"/>
       </defs>
       <use xlink:href="#IBMPlexSans-Regular-2212"/>
       <use xlink:href="#IBMPlexSans-Regular-32" transform="translate(59.999985 0)"/>
       <use xlink:href="#IBMPlexSans-Regular-2e" transform="translate(119.999969 0)"/>
       <use xlink:href="#IBMPlexSans-Regular-35" transform="translate(147.199966 0)"/>
      </g>
     </g>
    </g>
    <g id="xtick_34">
     <g id="text_10">
      <!-- 0.0 -->
      <g style="fill: #838383" transform="translate(83.464118 149.58) scale(0.11 -0.11)">
       <defs>
        <path id="IBMPlexSans-Regular-30" d="M 1920 -77 
Q 1120 -77 752 531 
Q 384 1139 384 2234 
Q 384 3328 752 3936 
Q 1120 4544 1920 4544 
Q 2720 4544 3088 3936 
Q 3456 3328 3456 2234 
Q 3456 1139 3088 531 
Q 2720 -77 1920 -77 
z
M 1920 390 
Q 2182 390 2368 499 
Q 2554 608 2669 806 
Q 2784 1005 2838 1273 
Q 2893 1542 2893 1869 
L 2893 2598 
Q 2893 2925 2838 3193 
Q 2784 3462 2669 3660 
Q 2554 3859 2368 3968 
Q 2182 4077 1920 4077 
Q 1658 4077 1472 3968 
Q 1286 3859 1171 3660 
Q 1056 3462 1001 3193 
Q 947 2925 947 2598 
L 947 1869 
Q 947 1542 1001 1273 
Q 1056 1005 1171 806 
Q 1286 608 1472 499 
Q 1658 390 1920 390 
z
" transform="scale(0.015625)"/>
       </defs>
       <use xlink:href="#IBMPlexSans-Regular-30"/>
       <use xlink:href="#IBMPlexSans-Regular-2e" transform="translate(59.999985 0)"/>
       <use xlink:href="#IBMPlexSans-Regular-30" transform="translate(87.199982 0)"/>
      </g>
     </g>
    </g>
    <g id="xtick_35">
     <g id="text_11">
      <!-- 2.5 -->
      <g style="fill: #838383" transform="translate(134.366372 149.58) scale(0.11 -0.11)">
       <use xlink:href="#IBMPlexSans-Regular-32"/>
       <use xlink:href="#IBMPlexSans-Regular-2e" transform="translate(59.999985 0)"/>
       <use xlink:href="#IBMPlexSans-Regular-35" transform="translate(87.199982 0)"/>
      </g>
     </g>
    </g>
    <g id="xtick_36">
     <g id="text_12">
      <!-- 5.0 -->
      <g style="fill: #838383" transform="translate(185.268625 149.58) scale(0.11 -0.11)">
       <use xlink:href="#IBMPlexSans-Regular-35"/>
       <use xlink:href="#IBMPlexSans-Regular-2e" transform="translate(59.999985 0)"/>
       <use xlink:href="#IBMPlexSans-Regular-30" transform="translate(87.199982 0)"/>
      </g>
     </g>
    </g>
    <g id="text_13">
     <!-- sldb -->
     <g style="fill: #262626" transform="translate(100.310625 164.66) scale(0.12 -0.12)">
      <defs>
       <path id="IBMPlexSans-Regular-73" d="M 1536 -77 
Q 1075 -77 764 99 
Q 454 275 230 570 
L 595 864 
Q 787 621 1024 489 
Q 1261 358 1574 358 
Q 1901 358 2083 499 
Q 2266 640 2266 896 
Q 2266 1088 2141 1225 
Q 2016 1363 1690 1414 
L 1427 1453 
Q 1197 1485 1005 1552 
Q 813 1619 669 1731 
Q 525 1843 445 2009 
Q 365 2176 365 2406 
Q 365 2650 454 2832 
Q 544 3014 701 3136 
Q 858 3258 1075 3318 
Q 1293 3379 1542 3379 
Q 1946 3379 2218 3238 
Q 2490 3098 2694 2848 
L 2355 2541 
Q 2246 2694 2035 2819 
Q 1824 2944 1504 2944 
Q 1184 2944 1021 2806 
Q 858 2669 858 2432 
Q 858 2189 1021 2080 
Q 1184 1971 1491 1920 
L 1747 1882 
Q 2298 1798 2528 1564 
Q 2758 1331 2758 954 
Q 2758 474 2432 198 
Q 2106 -77 1536 -77 
z
" transform="scale(0.015625)"/>
       <path id="IBMPlexSans-Regular-6c" d="M 1088 0 
Q 819 0 681 150 
Q 544 301 544 531 
L 544 4736 
L 1056 4736 
L 1056 448 
L 1542 448 
L 1542 0 
L 1088 0 
z
" transform="scale(0.015625)"/>
       <path id="IBMPlexSans-Regular-64" d="M 2656 538 
L 2630 538 
Q 2330 -77 1664 -77 
Q 1357 -77 1107 44 
Q 858 166 682 390 
Q 506 614 413 934 
Q 320 1254 320 1651 
Q 320 2048 413 2368 
Q 506 2688 682 2912 
Q 858 3136 1107 3257 
Q 1357 3379 1664 3379 
Q 2010 3379 2256 3228 
Q 2502 3078 2630 2765 
L 2656 2765 
L 2656 4736 
L 3168 4736 
L 3168 0 
L 2656 0 
L 2656 538 
z
M 1805 384 
Q 1978 384 2134 429 
Q 2291 474 2406 560 
Q 2522 646 2589 771 
Q 2656 896 2656 1056 
L 2656 2285 
Q 2656 2419 2589 2537 
Q 2522 2656 2406 2739 
Q 2291 2822 2134 2870 
Q 1978 2918 1805 2918 
Q 1370 2918 1120 2646 
Q 870 2374 870 1933 
L 870 1370 
Q 870 928 1120 656 
Q 1370 384 1805 384 
z
" transform="scale(0.015625)"/>
       <path id="IBMPlexSans-Regular-62" d="M 544 4736 
L 1056 4736 
L 1056 2765 
L 1082 2765 
Q 1210 3078 1456 3228 
Q 1702 3379 2048 3379 
Q 2355 3379 2604 3257 
Q 2854 3136 3030 2912 
Q 3206 2688 3299 2368 
Q 3392 2048 3392 1651 
Q 3392 1254 3299 934 
Q 3206 614 3030 390 
Q 2854 166 2604 44 
Q 2355 -77 2048 -77 
Q 1376 -77 1082 538 
L 1056 538 
L 1056 0 
L 544 0 
L 544 4736 
z
M 1907 384 
Q 2342 384 2592 656 
Q 2842 928 2842 1370 
L 2842 1933 
Q 2842 2374 2592 2646 
Q 2342 2918 1907 2918 
Q 1734 2918 1577 2870 
Q 1421 2822 1305 2739 
Q 1190 2656 1123 2537 
Q 1056 2419 1056 2285 
L 1056 1056 
Q 1056 896 1123 771 
Q 1190 646 1305 560 
Q 1421 474 1577 429 
Q 1734 384 1907 384 
z
" transform="scale(0.015625)"/>
      </defs>
      <use xlink:href="#IBMPlexSans-Regular-73"/>
      <use xlink:href="#IBMPlexSans-Regular-6c" transform="translate(48.699997 0)"/>
      <use xlink:href="#IBMPlexSans-Regular-64" transform="translate(75.899994 0)"/>
      <use xlink:href="#IBMPlexSans-Regular-62" transform="translate(133.899979 0)"/>
     </g>
    </g>
   </g>
   <g id="matplotlib.axis_18"/>
   <g id="FillBetweenPolyCollection_4">
    <defs>
     <path id="m848d01ccaa" d="M 16.711364 -42.825511 
L 16.711364 -42.32 
L 17.66728 -42.32 
L 18.623196 -42.32 
L 19.579111 -42.32 
L 20.535027 -42.32 
L 21.490943 -42.32 
L 22.446859 -42.32 
L 23.402775 -42.32 
L 24.358691 -42.32 
L 25.314607 -42.32 
L 26.270523 -42.32 
L 27.226439 -42.32 
L 28.182355 -42.32 
L 29.138271 -42.32 
L 30.094187 -42.32 
L 31.050103 -42.32 
L 32.006019 -42.32 
L 32.961935 -42.32 
L 33.917851 -42.32 
L 34.873767 -42.32 
L 35.829683 -42.32 
L 36.785598 -42.32 
L 37.741514 -42.32 
L 38.69743 -42.32 
L 39.653346 -42.32 
L 40.609262 -42.32 
L 41.565178 -42.32 
L 42.521094 -42.32 
L 43.47701 -42.32 
L 44.432926 -42.32 
L 45.388842 -42.32 
L 46.344758 -42.32 
L 47.300674 -42.32 
L 48.25659 -42.32 
L 49.212506 -42.32 
L 50.168422 -42.32 
L 51.124338 -42.32 
L 52.080254 -42.32 
L 53.036169 -42.32 
L 53.992085 -42.32 
L 54.948001 -42.32 
L 55.903917 -42.32 
L 56.859833 -42.32 
L 57.815749 -42.32 
L 58.771665 -42.32 
L 59.727581 -42.32 
L 60.683497 -42.32 
L 61.639413 -42.32 
L 62.595329 -42.32 
L 63.551245 -42.32 
L 64.507161 -42.32 
L 65.463077 -42.32 
L 66.418993 -42.32 
L 67.374909 -42.32 
L 68.330825 -42.32 
L 69.286741 -42.32 
L 70.242656 -42.32 
L 71.198572 -42.32 
L 72.154488 -42.32 
L 73.110404 -42.32 
L 74.06632 -42.32 
L 75.022236 -42.32 
L 75.978152 -42.32 
L 76.934068 -42.32 
L 77.889984 -42.32 
L 78.8459 -42.32 
L 79.801816 -42.32 
L 80.757732 -42.32 
L 81.713648 -42.32 
L 82.669564 -42.32 
L 83.62548 -42.32 
L 84.581396 -42.32 
L 85.537312 -42.32 
L 86.493228 -42.32 
L 87.449143 -42.32 
L 88.405059 -42.32 
L 89.360975 -42.32 
L 90.316891 -42.32 
L 91.272807 -42.32 
L 92.228723 -42.32 
L 93.184639 -42.32 
L 94.140555 -42.32 
L 95.096471 -42.32 
L 96.052387 -42.32 
L 97.008303 -42.32 
L 97.964219 -42.32 
L 98.920135 -42.32 
L 99.876051 -42.32 
L 100.831967 -42.32 
L 101.787883 -42.32 
L 102.743799 -42.32 
L 103.699714 -42.32 
L 104.65563 -42.32 
L 105.611546 -42.32 
L 106.567462 -42.32 
L 107.523378 -42.32 
L 108.479294 -42.32 
L 109.43521 -42.32 
L 110.391126 -42.32 
L 111.347042 -42.32 
L 112.302958 -42.32 
L 113.258874 -42.32 
L 114.21479 -42.32 
L 115.170706 -42.32 
L 116.126622 -42.32 
L 117.082538 -42.32 
L 118.038454 -42.32 
L 118.99437 -42.32 
L 119.950286 -42.32 
L 120.906201 -42.32 
L 121.862117 -42.32 
L 122.818033 -42.32 
L 123.773949 -42.32 
L 124.729865 -42.32 
L 125.685781 -42.32 
L 126.641697 -42.32 
L 127.597613 -42.32 
L 128.553529 -42.32 
L 129.509445 -42.32 
L 130.465361 -42.32 
L 131.421277 -42.32 
L 132.377193 -42.32 
L 133.333109 -42.32 
L 134.289025 -42.32 
L 135.244941 -42.32 
L 136.200857 -42.32 
L 137.156772 -42.32 
L 138.112688 -42.32 
L 139.068604 -42.32 
L 140.02452 -42.32 
L 140.980436 -42.32 
L 141.936352 -42.32 
L 142.892268 -42.32 
L 143.848184 -42.32 
L 144.8041 -42.32 
L 145.760016 -42.32 
L 146.715932 -42.32 
L 147.671848 -42.32 
L 148.627764 -42.32 
L 149.58368 -42.32 
L 150.539596 -42.32 
L 151.495512 -42.32 
L 152.451428 -42.32 
L 153.407344 -42.32 
L 154.363259 -42.32 
L 155.319175 -42.32 
L 156.275091 -42.32 
L 157.231007 -42.32 
L 158.186923 -42.32 
L 159.142839 -42.32 
L 160.098755 -42.32 
L 161.054671 -42.32 
L 162.010587 -42.32 
L 162.966503 -42.32 
L 163.922419 -42.32 
L 164.878335 -42.32 
L 165.834251 -42.32 
L 166.790167 -42.32 
L 167.746083 -42.32 
L 168.701999 -42.32 
L 169.657915 -42.32 
L 170.613831 -42.32 
L 171.569746 -42.32 
L 172.525662 -42.32 
L 173.481578 -42.32 
L 174.437494 -42.32 
L 175.39341 -42.32 
L 176.349326 -42.32 
L 177.305242 -42.32 
L 178.261158 -42.32 
L 179.217074 -42.32 
L 180.17299 -42.32 
L 181.128906 -42.32 
L 182.084822 -42.32 
L 183.040738 -42.32 
L 183.996654 -42.32 
L 184.95257 -42.32 
L 185.908486 -42.32 
L 186.864402 -42.32 
L 187.820317 -42.32 
L 188.776233 -42.32 
L 189.732149 -42.32 
L 190.688065 -42.32 
L 191.643981 -42.32 
L 192.599897 -42.32 
L 193.555813 -42.32 
L 194.511729 -42.32 
L 195.467645 -42.32 
L 196.423561 -42.32 
L 197.379477 -42.32 
L 198.335393 -42.32 
L 199.291309 -42.32 
L 200.247225 -42.32 
L 201.203141 -42.32 
L 202.159057 -42.32 
L 203.114973 -42.32 
L 204.070889 -42.32 
L 205.026804 -42.32 
L 205.98272 -42.32 
L 206.938636 -42.32 
L 206.938636 -42.754775 
L 206.938636 -42.754775 
L 205.98272 -42.798637 
L 205.026804 -42.845321 
L 204.070889 -42.894854 
L 203.114973 -42.947254 
L 202.159057 -43.002528 
L 201.203141 -43.060677 
L 200.247225 -43.121692 
L 199.291309 -43.185558 
L 198.335393 -43.252253 
L 197.379477 -43.321749 
L 196.423561 -43.394014 
L 195.467645 -43.469009 
L 194.511729 -43.546693 
L 193.555813 -43.627016 
L 192.599897 -43.709926 
L 191.643981 -43.795362 
L 190.688065 -43.88326 
L 189.732149 -43.973544 
L 188.776233 -44.066133 
L 187.820317 -44.160934 
L 186.864402 -44.257844 
L 185.908486 -44.356746 
L 184.95257 -44.457513 
L 183.996654 -44.560003 
L 183.040738 -44.664061 
L 182.084822 -44.769517 
L 181.128906 -44.876189 
L 180.17299 -44.983881 
L 179.217074 -45.092387 
L 178.261158 -45.201491 
L 177.305242 -45.31097 
L 176.349326 -45.420595 
L 175.39341 -45.530138 
L 174.437494 -45.639371 
L 173.481578 -45.748069 
L 172.525662 -45.856018 
L 171.569746 -45.963016 
L 170.613831 -46.068874 
L 169.657915 -46.173424 
L 168.701999 -46.27652 
L 167.746083 -46.37804 
L 166.790167 -46.477889 
L 165.834251 -46.576001 
L 164.878335 -46.672342 
L 163.922419 -46.766907 
L 162.966503 -46.859728 
L 162.010587 -46.950863 
L 161.054671 -47.040407 
L 160.098755 -47.128483 
L 159.142839 -47.215243 
L 158.186923 -47.300868 
L 157.231007 -47.385561 
L 156.275091 -47.469549 
L 155.319175 -47.553079 
L 154.363259 -47.63641 
L 153.407344 -47.719814 
L 152.451428 -47.803569 
L 151.495512 -47.887955 
L 150.539596 -47.97325 
L 149.58368 -48.059721 
L 148.627764 -48.147622 
L 147.671848 -48.237186 
L 146.715932 -48.328619 
L 145.760016 -48.422095 
L 144.8041 -48.517748 
L 143.848184 -48.615667 
L 142.892268 -48.715891 
L 141.936352 -48.818406 
L 140.980436 -48.923136 
L 140.02452 -49.029944 
L 139.068604 -49.138632 
L 138.112688 -49.248936 
L 137.156772 -49.360532 
L 136.200857 -49.473036 
L 135.244941 -49.586013 
L 134.289025 -49.698977 
L 133.333109 -49.811409 
L 132.377193 -49.922758 
L 131.421277 -50.032456 
L 130.465361 -50.139935 
L 129.509445 -50.24463 
L 128.553529 -50.346002 
L 127.597613 -50.443546 
L 126.641697 -50.536807 
L 125.685781 -50.625389 
L 124.729865 -50.708968 
L 123.773949 -50.7873 
L 122.818033 -50.860229 
L 121.862117 -50.927692 
L 120.906201 -50.989717 
L 119.950286 -51.04643 
L 118.99437 -51.098047 
L 118.038454 -51.144873 
L 117.082538 -51.187291 
L 116.126622 -51.225756 
L 115.170706 -51.260783 
L 114.21479 -51.292933 
L 113.258874 -51.322806 
L 112.302958 -51.351019 
L 111.347042 -51.378199 
L 110.391126 -51.404965 
L 109.43521 -51.431917 
L 108.479294 -51.45962 
L 107.523378 -51.488598 
L 106.567462 -51.519315 
L 105.611546 -51.552174 
L 104.65563 -51.587504 
L 103.699714 -51.625553 
L 102.743799 -51.666486 
L 101.787883 -51.710378 
L 100.831967 -51.757213 
L 99.876051 -51.806881 
L 98.920135 -51.859182 
L 97.964219 -51.913823 
L 97.008303 -51.970423 
L 96.052387 -52.02852 
L 95.096471 -52.087568 
L 94.140555 -52.146952 
L 93.184639 -52.205994 
L 92.228723 -52.263957 
L 91.272807 -52.320061 
L 90.316891 -52.373494 
L 89.360975 -52.423419 
L 88.405059 -52.468994 
L 87.449143 -52.509382 
L 86.493228 -52.543766 
L 85.537312 -52.571364 
L 84.581396 -52.59144 
L 83.62548 -52.603324 
L 82.669564 -52.606417 
L 81.713648 -52.600208 
L 80.757732 -52.584279 
L 79.801816 -52.558318 
L 78.8459 -52.522119 
L 77.889984 -52.475587 
L 76.934068 -52.418738 
L 75.978152 -52.351698 
L 75.022236 -52.274694 
L 74.06632 -52.18805 
L 73.110404 -52.092175 
L 72.154488 -51.987551 
L 71.198572 -51.87472 
L 70.242656 -51.754268 
L 69.286741 -51.626811 
L 68.330825 -51.492978 
L 67.374909 -51.353397 
L 66.418993 -51.208677 
L 65.463077 -51.059399 
L 64.507161 -50.906101 
L 63.551245 -50.74927 
L 62.595329 -50.589334 
L 61.639413 -50.426657 
L 60.683497 -50.261537 
L 59.727581 -50.094206 
L 58.771665 -49.924833 
L 57.815749 -49.753526 
L 56.859833 -49.580344 
L 55.903917 -49.405303 
L 54.948001 -49.228383 
L 53.992085 -49.049544 
L 53.036169 -48.868734 
L 52.080254 -48.685901 
L 51.124338 -48.501006 
L 50.168422 -48.314031 
L 49.212506 -48.12499 
L 48.25659 -47.933938 
L 47.300674 -47.740975 
L 46.344758 -47.546254 
L 45.388842 -47.349983 
L 44.432926 -47.152426 
L 43.47701 -46.953903 
L 42.521094 -46.754788 
L 41.565178 -46.555505 
L 40.609262 -46.356522 
L 39.653346 -46.158343 
L 38.69743 -45.961504 
L 37.741514 -45.766562 
L 36.785598 -45.574083 
L 35.829683 -45.384641 
L 34.873767 -45.198797 
L 33.917851 -45.0171 
L 32.961935 -44.840073 
L 32.006019 -44.668207 
L 31.050103 -44.501953 
L 30.094187 -44.341714 
L 29.138271 -44.187844 
L 28.182355 -44.040643 
L 27.226439 -43.900351 
L 26.270523 -43.767151 
L 25.314607 -43.641165 
L 24.358691 -43.522459 
L 23.402775 -43.41104 
L 22.446859 -43.306863 
L 21.490943 -43.20983 
L 20.535027 -43.119801 
L 19.579111 -43.03659 
L 18.623196 -42.959977 
L 17.66728 -42.88971 
L 16.711364 -42.825511 
z
" style="stroke: #21918c; stroke-width: 1.25"/>
    </defs>
    <g>
     <use xlink:href="#m848d01ccaa" x="0" y="174.26" style="fill: #21918c; fill-opacity: 0.7; stroke: #21918c; stroke-width: 1.25"/>
    </g>
   </g>
   <g id="line2d_9">
    <path d="M 7.2 131.94 
L 216.45 131.94 
" style="fill: none; stroke: #21918c; stroke-opacity: 0.9; stroke-linecap: round"/>
   </g>
   <g id="text_14">
    <!-- 8 -->
    <g style="fill: #21918c" transform="translate(7.2 131.022) scale(0.12 -0.12)">
     <defs>
      <path id="IBMPlexSans-Bold-38" d="M 1920 -77 
Q 1523 -77 1212 22 
Q 902 122 691 294 
Q 480 467 368 704 
Q 256 941 256 1222 
Q 256 1651 493 1923 
Q 730 2195 1133 2304 
L 1133 2355 
Q 806 2477 598 2726 
Q 390 2976 390 3366 
Q 390 3622 489 3840 
Q 589 4058 784 4214 
Q 979 4371 1264 4457 
Q 1549 4544 1920 4544 
Q 2291 4544 2576 4457 
Q 2861 4371 3056 4214 
Q 3251 4058 3350 3840 
Q 3450 3622 3450 3366 
Q 3450 2976 3242 2726 
Q 3034 2477 2707 2355 
L 2707 2304 
Q 3110 2195 3347 1923 
Q 3584 1651 3584 1222 
Q 3584 941 3472 704 
Q 3360 467 3149 294 
Q 2938 122 2627 22 
Q 2317 -77 1920 -77 
z
M 1920 659 
Q 2240 659 2409 809 
Q 2579 960 2579 1229 
L 2579 1357 
Q 2579 1626 2409 1776 
Q 2240 1926 1920 1926 
Q 1600 1926 1430 1776 
Q 1261 1626 1261 1357 
L 1261 1229 
Q 1261 960 1430 809 
Q 1600 659 1920 659 
z
M 1920 2630 
Q 2227 2630 2387 2774 
Q 2547 2918 2547 3168 
L 2547 3270 
Q 2547 3520 2387 3664 
Q 2227 3808 1920 3808 
Q 1613 3808 1453 3664 
Q 1293 3520 1293 3270 
L 1293 3168 
Q 1293 2918 1453 2774 
Q 1613 2630 1920 2630 
z
" transform="scale(0.015625)"/>
     </defs>
     <use xlink:href="#IBMPlexSans-Bold-38"/>
    </g>
   </g>
  </g>
 </g>
</svg>
