<?xml version="1.0" encoding="utf-8" standalone="no"?>
<!DOCTYPE svg PUBLIC "-//W3C//DTD SVG 1.1//EN"
  "http://www.w3.org/Graphics/SVG/1.1/DTD/svg11.dtd">
<svg xmlns:xlink="http://www.w3.org/1999/xlink" width="223.65pt" height="174.26pt" viewBox="0 0 223.65 174.26" xmlns="http://www.w3.org/2000/svg" version="1.1">
 <metadata>
  <rdf:RDF xmlns:dc="http://purl.org/dc/elements/1.1/" xmlns:cc="http://creativecommons.org/ns#" xmlns:rdf="http://www.w3.org/1999/02/22-rdf-syntax-ns#">
   <cc:Work>
    <dc:type rdf:resource="http://purl.org/dc/dcmitype/StillImage"/>
    <dc:date>2025-12-31T11:25:31.284240</dc:date>
    <dc:format>image/svg+xml</dc:format>
    <dc:creator>
     <cc:Agent>
      <dc:title>Matplotlib v3.10.5, https://matplotlib.org/</dc:title>
     </cc:Agent>
    </dc:creator>
   </cc:Work>
  </rdf:RDF>
 </metadata>
 <defs>
  <style type="text/css">*{stroke-linejoin: round; stroke-linecap: butt}</style>
 </defs>
 <g id="figure_1">
  <g id="patch_1">
   <path d="M 0 174.26 
L 223.65 174.26 
L 223.65 0 
L 0 0 
L 0 174.26 
z
" style="fill: none"/>
  </g>
  <g id="axes_1">
   <g id="patch_2">
    <path d="M 7.2 48.78 
L 216.45 48.78 
L 216.45 7.2 
L 7.2 7.2 
L 7.2 48.78 
z
" style="fill: none"/>
   </g>
   <g id="matplotlib.axis_1">
    <g id="xtick_1"/>
    <g id="xtick_2"/>
    <g id="xtick_3"/>
    <g id="xtick_4"/>
   </g>
   <g id="matplotlib.axis_2"/>
   <g id="line2d_1">
    <path d="M 7.2 48.78 
L 216.45 48.78 
" style="fill: none; stroke: #21918c; stroke-opacity: 0.9; stroke-linecap: round"/>
   </g>
   <g id="text_1">
    <!-- 0 -->
    <g style="fill: #21918c" transform="translate(7.2 47.862) scale(0.12 -0.12)">
     <defs>
      <path id="IBMPlexSans-Bold-30" d="M 1920 -77 
Q 1043 -77 620 531 
Q 198 1139 198 2234 
Q 198 3328 620 3936 
Q 1043 4544 1920 4544 
Q 2797 4544 3219 3936 
Q 3642 3328 3642 2234 
Q 3642 1139 3219 531 
Q 2797 -77 1920 -77 
z
M 1920 736 
Q 2304 736 2451 1017 
Q 2598 1299 2598 1811 
L 2598 2656 
Q 2598 3168 2451 3449 
Q 2304 3731 1920 3731 
Q 1536 3731 1389 3449 
Q 1242 3168 1242 2656 
L 1242 1811 
Q 1242 1299 1389 1017 
Q 1536 736 1920 736 
z
" transform="scale(0.015625)"/>
     </defs>
     <use xlink:href="#IBMPlexSans-Bold-30"/>
    </g>
   </g>
  </g>
  <g id="axes_2">
   <g id="patch_3">
    <path d="M 7.2 59.175 
L 216.45 59.175 
L 216.45 17.595 
L 7.2 17.595 
L 7.2 59.175 
z
" style="fill: none"/>
   </g>
   <g id="matplotlib.axis_3">
    <g id="xtick_5"/>
    <g id="xtick_6"/>
    <g id="xtick_7"/>
    <g id="xtick_8"/>
   </g>
   <g id="matplotlib.axis_4"/>
   <g id="FillBetweenPolyCollection_1">
    <defs>
     <path id="m487d9cd187" d="M 104.081683 -117.579933 
L 104.081683 -115.085 
L 104.317493 -115.085 
L 104.553304 -115.085 
L 104.789115 -115.085 
L 105.024926 -115.085 
L 105.260737 -115.085 
L 105.496548 -115.085 
L 105.732359 -115.085 
L 105.968169 -115.085 
L 106.20398 -115.085 
L 106.439791 -115.085 
L 106.675602 -115.085 
L 106.911413 -115.085 
L 107.147224 -115.085 
L 107.383034 -115.085 
L 107.618845 -115.085 
L 107.854656 -115.085 
L 108.090467 -115.085 
L 108.326278 -115.085 
L 108.562089 -115.085 
L 108.797899 -115.085 
L 109.03371 -115.085 
L 109.269521 -115.085 
L 109.505332 -115.085 
L 109.741143 -115.085 
L 109.976954 -115.085 
L 110.212764 -115.085 
L 110.448575 -115.085 
L 110.684386 -115.085 
L 110.920197 -115.085 
L 111.156008 -115.085 
L 111.391819 -115.085 
L 111.627629 -115.085 
L 111.86344 -115.085 
L 112.099251 -115.085 
L 112.335062 -115.085 
L 112.570873 -115.085 
L 112.806684 -115.085 
L 113.042494 -115.085 
L 113.278305 -115.085 
L 113.514116 -115.085 
L 113.749927 -115.085 
L 113.985738 -115.085 
L 114.221549 -115.085 
L 114.45736 -115.085 
L 114.69317 -115.085 
L 114.928981 -115.085 
L 115.164792 -115.085 
L 115.400603 -115.085 
L 115.636414 -115.085 
L 115.872225 -115.085 
L 116.108035 -115.085 
L 116.343846 -115.085 
L 116.579657 -115.085 
L 116.815468 -115.085 
L 117.051279 -115.085 
L 117.28709 -115.085 
L 117.5229 -115.085 
L 117.758711 -115.085 
L 117.994522 -115.085 
L 118.230333 -115.085 
L 118.466144 -115.085 
L 118.701955 -115.085 
L 118.937765 -115.085 
L 119.173576 -115.085 
L 119.409387 -115.085 
L 119.645198 -115.085 
L 119.881009 -115.085 
L 120.11682 -115.085 
L 120.35263 -115.085 
L 120.588441 -115.085 
L 120.824252 -115.085 
L 121.060063 -115.085 
L 121.295874 -115.085 
L 121.531685 -115.085 
L 121.767495 -115.085 
L 122.003306 -115.085 
L 122.239117 -115.085 
L 122.474928 -115.085 
L 122.710739 -115.085 
L 122.94655 -115.085 
L 123.18236 -115.085 
L 123.418171 -115.085 
L 123.653982 -115.085 
L 123.889793 -115.085 
L 124.125604 -115.085 
L 124.361415 -115.085 
L 124.597226 -115.085 
L 124.833036 -115.085 
L 125.068847 -115.085 
L 125.304658 -115.085 
L 125.540469 -115.085 
L 125.77628 -115.085 
L 126.012091 -115.085 
L 126.247901 -115.085 
L 126.483712 -115.085 
L 126.719523 -115.085 
L 126.955334 -115.085 
L 127.191145 -115.085 
L 127.426956 -115.085 
L 127.662766 -115.085 
L 127.898577 -115.085 
L 128.134388 -115.085 
L 128.370199 -115.085 
L 128.60601 -115.085 
L 128.841821 -115.085 
L 129.077631 -115.085 
L 129.313442 -115.085 
L 129.549253 -115.085 
L 129.785064 -115.085 
L 130.020875 -115.085 
L 130.256686 -115.085 
L 130.492496 -115.085 
L 130.728307 -115.085 
L 130.964118 -115.085 
L 131.199929 -115.085 
L 131.43574 -115.085 
L 131.671551 -115.085 
L 131.907361 -115.085 
L 132.143172 -115.085 
L 132.378983 -115.085 
L 132.614794 -115.085 
L 132.850605 -115.085 
L 133.086416 -115.085 
L 133.322227 -115.085 
L 133.558037 -115.085 
L 133.793848 -115.085 
L 134.029659 -115.085 
L 134.26547 -115.085 
L 134.501281 -115.085 
L 134.737092 -115.085 
L 134.972902 -115.085 
L 135.208713 -115.085 
L 135.444524 -115.085 
L 135.680335 -115.085 
L 135.916146 -115.085 
L 136.151957 -115.085 
L 136.387767 -115.085 
L 136.623578 -115.085 
L 136.859389 -115.085 
L 137.0952 -115.085 
L 137.331011 -115.085 
L 137.566822 -115.085 
L 137.802632 -115.085 
L 138.038443 -115.085 
L 138.274254 -115.085 
L 138.510065 -115.085 
L 138.745876 -115.085 
L 138.981687 -115.085 
L 139.217497 -115.085 
L 139.453308 -115.085 
L 139.689119 -115.085 
L 139.92493 -115.085 
L 140.160741 -115.085 
L 140.396552 -115.085 
L 140.632362 -115.085 
L 140.868173 -115.085 
L 141.103984 -115.085 
L 141.339795 -115.085 
L 141.575606 -115.085 
L 141.811417 -115.085 
L 142.047227 -115.085 
L 142.283038 -115.085 
L 142.518849 -115.085 
L 142.75466 -115.085 
L 142.990471 -115.085 
L 143.226282 -115.085 
L 143.462093 -115.085 
L 143.697903 -115.085 
L 143.933714 -115.085 
L 144.169525 -115.085 
L 144.405336 -115.085 
L 144.641147 -115.085 
L 144.876958 -115.085 
L 145.112768 -115.085 
L 145.348579 -115.085 
L 145.58439 -115.085 
L 145.820201 -115.085 
L 146.056012 -115.085 
L 146.291823 -115.085 
L 146.527633 -115.085 
L 146.763444 -115.085 
L 146.999255 -115.085 
L 147.235066 -115.085 
L 147.470877 -115.085 
L 147.706688 -115.085 
L 147.942498 -115.085 
L 148.178309 -115.085 
L 148.41412 -115.085 
L 148.649931 -115.085 
L 148.885742 -115.085 
L 149.121553 -115.085 
L 149.357363 -115.085 
L 149.593174 -115.085 
L 149.828985 -115.085 
L 150.064796 -115.085 
L 150.300607 -115.085 
L 150.536418 -115.085 
L 150.772228 -115.085 
L 151.008039 -115.085 
L 151.008039 -117.695542 
L 151.008039 -117.695542 
L 150.772228 -118.014433 
L 150.536418 -118.361722 
L 150.300607 -118.738467 
L 150.064796 -119.145579 
L 149.828985 -119.583792 
L 149.593174 -120.053646 
L 149.357363 -120.555467 
L 149.121553 -121.089349 
L 148.885742 -121.655139 
L 148.649931 -122.252432 
L 148.41412 -122.880559 
L 148.178309 -123.538589 
L 147.942498 -124.225336 
L 147.706688 -124.939363 
L 147.470877 -125.678999 
L 147.235066 -126.442356 
L 146.999255 -127.227357 
L 146.763444 -128.031759 
L 146.527633 -128.853187 
L 146.291823 -129.689168 
L 146.056012 -130.537163 
L 145.820201 -131.39461 
L 145.58439 -132.258952 
L 145.348579 -133.127678 
L 145.112768 -133.998351 
L 144.876958 -134.868637 
L 144.641147 -135.736333 
L 144.405336 -136.599378 
L 144.169525 -137.455873 
L 143.933714 -138.304085 
L 143.697903 -139.142448 
L 143.462093 -139.969557 
L 143.226282 -140.78416 
L 142.990471 -141.585138 
L 142.75466 -142.371486 
L 142.518849 -143.142288 
L 142.283038 -143.896695 
L 142.047227 -144.633893 
L 141.811417 -145.35308 
L 141.575606 -146.053441 
L 141.339795 -146.734125 
L 141.103984 -147.394227 
L 140.868173 -148.032779 
L 140.632362 -148.648743 
L 140.396552 -149.241005 
L 140.160741 -149.808391 
L 139.92493 -150.349672 
L 139.689119 -150.86359 
L 139.453308 -151.348875 
L 139.217497 -151.804285 
L 138.981687 -152.228628 
L 138.745876 -152.620805 
L 138.510065 -152.979846 
L 138.274254 -153.304939 
L 138.038443 -153.595472 
L 137.802632 -153.851055 
L 137.566822 -154.071552 
L 137.331011 -154.257094 
L 137.0952 -154.408098 
L 136.859389 -154.525266 
L 136.623578 -154.609587 
L 136.387767 -154.662325 
L 136.151957 -154.685 
L 135.916146 -154.679369 
L 135.680335 -154.647392 
L 135.444524 -154.5912 
L 135.208713 -154.513053 
L 134.972902 -154.415306 
L 134.737092 -154.300363 
L 134.501281 -154.170638 
L 134.26547 -154.028516 
L 134.029659 -153.87632 
L 133.793848 -153.716277 
L 133.558037 -153.550489 
L 133.322227 -153.380918 
L 133.086416 -153.209364 
L 132.850605 -153.037456 
L 132.614794 -152.866649 
L 132.378983 -152.698221 
L 132.143172 -152.533279 
L 131.907361 -152.372765 
L 131.671551 -152.217467 
L 131.43574 -152.068028 
L 131.199929 -151.924964 
L 130.964118 -151.788667 
L 130.728307 -151.659424 
L 130.492496 -151.537422 
L 130.256686 -151.422758 
L 130.020875 -151.315439 
L 129.785064 -151.21539 
L 129.549253 -151.12245 
L 129.313442 -151.03637 
L 129.077631 -150.95681 
L 128.841821 -150.883332 
L 128.60601 -150.815394 
L 128.370199 -150.752346 
L 128.134388 -150.693425 
L 127.898577 -150.637748 
L 127.662766 -150.584314 
L 127.426956 -150.532008 
L 127.191145 -150.4796 
L 126.955334 -150.425759 
L 126.719523 -150.369064 
L 126.483712 -150.308018 
L 126.247901 -150.241069 
L 126.012091 -150.166633 
L 125.77628 -150.083119 
L 125.540469 -149.988952 
L 125.304658 -149.882607 
L 125.068847 -149.762631 
L 124.833036 -149.627675 
L 124.597226 -149.476517 
L 124.361415 -149.308086 
L 124.125604 -149.121484 
L 123.889793 -148.916002 
L 123.653982 -148.691131 
L 123.418171 -148.446575 
L 123.18236 -148.182248 
L 122.94655 -147.898279 
L 122.710739 -147.595001 
L 122.474928 -147.272943 
L 122.239117 -146.932817 
L 122.003306 -146.575499 
L 121.767495 -146.202009 
L 121.531685 -145.813488 
L 121.295874 -145.411179 
L 121.060063 -144.996397 
L 120.824252 -144.570514 
L 120.588441 -144.134928 
L 120.35263 -143.691051 
L 120.11682 -143.240284 
L 119.881009 -142.784008 
L 119.645198 -142.323564 
L 119.409387 -141.860248 
L 119.173576 -141.395303 
L 118.937765 -140.929912 
L 118.701955 -140.465197 
L 118.466144 -140.002217 
L 118.230333 -139.541971 
L 117.994522 -139.085395 
L 117.758711 -138.633366 
L 117.5229 -138.186704 
L 117.28709 -137.746168 
L 117.051279 -137.31246 
L 116.815468 -136.886219 
L 116.579657 -136.468016 
L 116.343846 -136.058352 
L 116.108035 -135.657648 
L 115.872225 -135.266236 
L 115.636414 -134.884351 
L 115.400603 -134.512117 
L 115.164792 -134.149543 
L 114.928981 -133.796509 
L 114.69317 -133.452758 
L 114.45736 -133.117893 
L 114.221549 -132.79137 
L 113.985738 -132.472501 
L 113.749927 -132.160454 
L 113.514116 -131.854264 
L 113.278305 -131.552841 
L 113.042494 -131.254986 
L 112.806684 -130.959411 
L 112.570873 -130.664762 
L 112.335062 -130.369643 
L 112.099251 -130.072648 
L 111.86344 -129.772387 
L 111.627629 -129.467519 
L 111.391819 -129.156786 
L 111.156008 -128.839039 
L 110.920197 -128.51327 
L 110.684386 -128.178637 
L 110.448575 -127.834488 
L 110.212764 -127.480377 
L 109.976954 -127.116084 
L 109.741143 -126.741617 
L 109.505332 -126.357223 
L 109.269521 -125.963382 
L 109.03371 -125.560799 
L 108.797899 -125.150397 
L 108.562089 -124.733297 
L 108.326278 -124.310796 
L 108.090467 -123.884345 
L 107.854656 -123.455517 
L 107.618845 -123.025983 
L 107.383034 -122.597475 
L 107.147224 -122.171758 
L 106.911413 -121.750595 
L 106.675602 -121.33572 
L 106.439791 -120.928807 
L 106.20398 -120.531444 
L 105.968169 -120.145109 
L 105.732359 -119.77115 
L 105.496548 -119.410768 
L 105.260737 -119.065005 
L 105.024926 -118.734735 
L 104.789115 -118.420655 
L 104.553304 -118.12329 
L 104.317493 -117.842989 
L 104.081683 -117.579933 
z
" style="stroke: #2a788e; stroke-width: 1.25"/>
    </defs>
    <g>
     <use xlink:href="#m487d9cd187" x="0" y="174.26" style="fill: #2a788e; fill-opacity: 0.7; stroke: #2a788e; stroke-width: 1.25"/>
    </g>
   </g>
   <g id="line2d_2">
    <path d="M 7.2 59.175 
L 216.45 59.175 
" style="fill: none; stroke: #2a788e; stroke-opacity: 0.9; stroke-linecap: round"/>
   </g>
   <g id="text_2">
    <!-- 1 -->
    <g style="fill: #2a788e" transform="translate(7.2 58.257) scale(0.12 -0.12)">
     <defs>
      <path id="IBMPlexSans-Bold-31" d="M 602 0 
L 602 774 
L 1805 774 
L 1805 3770 
L 1747 3770 
L 838 2579 
L 224 3059 
L 1293 4467 
L 2765 4467 
L 2765 774 
L 3712 774 
L 3712 0 
L 602 0 
z
" transform="scale(0.015625)"/>
     </defs>
     <use xlink:href="#IBMPlexSans-Bold-31"/>
    </g>
   </g>
  </g>
  <g id="axes_3">
   <g id="patch_4">
    <path d="M 7.2 69.57 
L 216.45 69.57 
L 216.45 27.99 
L 7.2 27.99 
L 7.2 69.57 
z
" style="fill: none"/>
   </g>
   <g id="matplotlib.axis_5">
    <g id="xtick_9"/>
    <g id="xtick_10"/>
    <g id="xtick_11"/>
    <g id="xtick_12"/>
   </g>
   <g id="matplotlib.axis_6"/>
   <g id="FillBetweenPolyCollection_2">
    <defs>
     <path id="m56e6d36282" d="M 74.83379 -105.873964 
L 74.83379 -104.69 
L 75.309782 -104.69 
L 75.785774 -104.69 
L 76.261766 -104.69 
L 76.737758 -104.69 
L 77.21375 -104.69 
L 77.689742 -104.69 
L 78.165734 -104.69 
L 78.641726 -104.69 
L 79.117718 -104.69 
L 79.59371 -104.69 
L 80.069701 -104.69 
L 80.545693 -104.69 
L 81.021685 -104.69 
L 81.497677 -104.69 
L 81.973669 -104.69 
L 82.449661 -104.69 
L 82.925653 -104.69 
L 83.401645 -104.69 
L 83.877637 -104.69 
L 84.353629 -104.69 
L 84.829621 -104.69 
L 85.305613 -104.69 
L 85.781605 -104.69 
L 86.257597 -104.69 
L 86.733588 -104.69 
L 87.20958 -104.69 
L 87.685572 -104.69 
L 88.161564 -104.69 
L 88.637556 -104.69 
L 89.113548 -104.69 
L 89.58954 -104.69 
L 90.065532 -104.69 
L 90.541524 -104.69 
L 91.017516 -104.69 
L 91.493508 -104.69 
L 91.9695 -104.69 
L 92.445492 -104.69 
L 92.921484 -104.69 
L 93.397475 -104.69 
L 93.873467 -104.69 
L 94.349459 -104.69 
L 94.825451 -104.69 
L 95.301443 -104.69 
L 95.777435 -104.69 
L 96.253427 -104.69 
L 96.729419 -104.69 
L 97.205411 -104.69 
L 97.681403 -104.69 
L 98.157395 -104.69 
L 98.633387 -104.69 
L 99.109379 -104.69 
L 99.585371 -104.69 
L 100.061362 -104.69 
L 100.537354 -104.69 
L 101.013346 -104.69 
L 101.489338 -104.69 
L 101.96533 -104.69 
L 102.441322 -104.69 
L 102.917314 -104.69 
L 103.393306 -104.69 
L 103.869298 -104.69 
L 104.34529 -104.69 
L 104.821282 -104.69 
L 105.297274 -104.69 
L 105.773266 -104.69 
L 106.249258 -104.69 
L 106.725249 -104.69 
L 107.201241 -104.69 
L 107.677233 -104.69 
L 108.153225 -104.69 
L 108.629217 -104.69 
L 109.105209 -104.69 
L 109.581201 -104.69 
L 110.057193 -104.69 
L 110.533185 -104.69 
L 111.009177 -104.69 
L 111.485169 -104.69 
L 111.961161 -104.69 
L 112.437153 -104.69 
L 112.913145 -104.69 
L 113.389136 -104.69 
L 113.865128 -104.69 
L 114.34112 -104.69 
L 114.817112 -104.69 
L 115.293104 -104.69 
L 115.769096 -104.69 
L 116.245088 -104.69 
L 116.72108 -104.69 
L 117.197072 -104.69 
L 117.673064 -104.69 
L 118.149056 -104.69 
L 118.625048 -104.69 
L 119.10104 -104.69 
L 119.577032 -104.69 
L 120.053023 -104.69 
L 120.529015 -104.69 
L 121.005007 -104.69 
L 121.480999 -104.69 
L 121.956991 -104.69 
L 122.432983 -104.69 
L 122.908975 -104.69 
L 123.384967 -104.69 
L 123.860959 -104.69 
L 124.336951 -104.69 
L 124.812943 -104.69 
L 125.288935 -104.69 
L 125.764927 -104.69 
L 126.240919 -104.69 
L 126.71691 -104.69 
L 127.192902 -104.69 
L 127.668894 -104.69 
L 128.144886 -104.69 
L 128.620878 -104.69 
L 129.09687 -104.69 
L 129.572862 -104.69 
L 130.048854 -104.69 
L 130.524846 -104.69 
L 131.000838 -104.69 
L 131.47683 -104.69 
L 131.952822 -104.69 
L 132.428814 -104.69 
L 132.904806 -104.69 
L 133.380798 -104.69 
L 133.856789 -104.69 
L 134.332781 -104.69 
L 134.808773 -104.69 
L 135.284765 -104.69 
L 135.760757 -104.69 
L 136.236749 -104.69 
L 136.712741 -104.69 
L 137.188733 -104.69 
L 137.664725 -104.69 
L 138.140717 -104.69 
L 138.616709 -104.69 
L 139.092701 -104.69 
L 139.568693 -104.69 
L 140.044685 -104.69 
L 140.520676 -104.69 
L 140.996668 -104.69 
L 141.47266 -104.69 
L 141.948652 -104.69 
L 142.424644 -104.69 
L 142.900636 -104.69 
L 143.376628 -104.69 
L 143.85262 -104.69 
L 144.328612 -104.69 
L 144.804604 -104.69 
L 145.280596 -104.69 
L 145.756588 -104.69 
L 146.23258 -104.69 
L 146.708572 -104.69 
L 147.184563 -104.69 
L 147.660555 -104.69 
L 148.136547 -104.69 
L 148.612539 -104.69 
L 149.088531 -104.69 
L 149.564523 -104.69 
L 150.040515 -104.69 
L 150.516507 -104.69 
L 150.992499 -104.69 
L 151.468491 -104.69 
L 151.944483 -104.69 
L 152.420475 -104.69 
L 152.896467 -104.69 
L 153.372459 -104.69 
L 153.84845 -104.69 
L 154.324442 -104.69 
L 154.800434 -104.69 
L 155.276426 -104.69 
L 155.752418 -104.69 
L 156.22841 -104.69 
L 156.704402 -104.69 
L 157.180394 -104.69 
L 157.656386 -104.69 
L 158.132378 -104.69 
L 158.60837 -104.69 
L 159.084362 -104.69 
L 159.560354 -104.69 
L 160.036346 -104.69 
L 160.512337 -104.69 
L 160.988329 -104.69 
L 161.464321 -104.69 
L 161.940313 -104.69 
L 162.416305 -104.69 
L 162.892297 -104.69 
L 163.368289 -104.69 
L 163.844281 -104.69 
L 164.320273 -104.69 
L 164.796265 -104.69 
L 165.272257 -104.69 
L 165.748249 -104.69 
L 166.224241 -104.69 
L 166.700233 -104.69 
L 167.176224 -104.69 
L 167.652216 -104.69 
L 168.128208 -104.69 
L 168.6042 -104.69 
L 169.080192 -104.69 
L 169.556184 -104.69 
L 169.556184 -106.033976 
L 169.556184 -106.033976 
L 169.080192 -106.197505 
L 168.6042 -106.375418 
L 168.128208 -106.568217 
L 167.652216 -106.776319 
L 167.176224 -107.000048 
L 166.700233 -107.239625 
L 166.224241 -107.495156 
L 165.748249 -107.766625 
L 165.272257 -108.053888 
L 164.796265 -108.356669 
L 164.320273 -108.674557 
L 163.844281 -109.007005 
L 163.368289 -109.353339 
L 162.892297 -109.712756 
L 162.416305 -110.08434 
L 161.940313 -110.467069 
L 161.464321 -110.859827 
L 160.988329 -111.261425 
L 160.512337 -111.670612 
L 160.036346 -112.086099 
L 159.560354 -112.506576 
L 159.084362 -112.930728 
L 158.60837 -113.357262 
L 158.132378 -113.784919 
L 157.656386 -114.212493 
L 157.180394 -114.638844 
L 156.704402 -115.062916 
L 156.22841 -115.483739 
L 155.752418 -115.90044 
L 155.276426 -116.312246 
L 154.800434 -116.718482 
L 154.324442 -117.118567 
L 153.84845 -117.512009 
L 153.372459 -117.898396 
L 152.896467 -118.277379 
L 152.420475 -118.648664 
L 151.944483 -119.011995 
L 151.468491 -119.367134 
L 150.992499 -119.713853 
L 150.516507 -120.051911 
L 150.040515 -120.381048 
L 149.564523 -120.700968 
L 149.088531 -121.011332 
L 148.612539 -121.311752 
L 148.136547 -121.60179 
L 147.660555 -121.880957 
L 147.184563 -122.148717 
L 146.708572 -122.404497 
L 146.23258 -122.647694 
L 145.756588 -122.877693 
L 145.280596 -123.093878 
L 144.804604 -123.295653 
L 144.328612 -123.482458 
L 143.85262 -123.653785 
L 143.376628 -123.809199 
L 142.900636 -123.948354 
L 142.424644 -124.071005 
L 141.948652 -124.177022 
L 141.47266 -124.266396 
L 140.996668 -124.339252 
L 140.520676 -124.395843 
L 140.044685 -124.436555 
L 139.568693 -124.461902 
L 139.092701 -124.472516 
L 138.616709 -124.469142 
L 138.140717 -124.452621 
L 137.664725 -124.423879 
L 137.188733 -124.38391 
L 136.712741 -124.333761 
L 136.236749 -124.274514 
L 135.760757 -124.207275 
L 135.284765 -124.133151 
L 134.808773 -124.053244 
L 134.332781 -123.968633 
L 133.856789 -123.880368 
L 133.380798 -123.789455 
L 132.904806 -123.696856 
L 132.428814 -123.603478 
L 131.952822 -123.510169 
L 131.47683 -123.417721 
L 131.000838 -123.326859 
L 130.524846 -123.238247 
L 130.048854 -123.152485 
L 129.572862 -123.070104 
L 129.09687 -122.99157 
L 128.620878 -122.917279 
L 128.144886 -122.847557 
L 127.668894 -122.782653 
L 127.192902 -122.722739 
L 126.71691 -122.667906 
L 126.240919 -122.618159 
L 125.764927 -122.573412 
L 125.288935 -122.533485 
L 124.812943 -122.498103 
L 124.336951 -122.466891 
L 123.860959 -122.439375 
L 123.384967 -122.414983 
L 122.908975 -122.393048 
L 122.432983 -122.372812 
L 121.956991 -122.353436 
L 121.480999 -122.334008 
L 121.005007 -122.313554 
L 120.529015 -122.291057 
L 120.053023 -122.265465 
L 119.577032 -122.235716 
L 119.10104 -122.20075 
L 118.625048 -122.159535 
L 118.149056 -122.11108 
L 117.673064 -122.054457 
L 117.197072 -121.988819 
L 116.72108 -121.913415 
L 116.245088 -121.827605 
L 115.769096 -121.730875 
L 115.293104 -121.622841 
L 114.817112 -121.503263 
L 114.34112 -121.372041 
L 113.865128 -121.229223 
L 113.389136 -121.074996 
L 112.913145 -120.909685 
L 112.437153 -120.733742 
L 111.961161 -120.547736 
L 111.485169 -120.352342 
L 111.009177 -120.148323 
L 110.533185 -119.936516 
L 110.057193 -119.717814 
L 109.581201 -119.493154 
L 109.105209 -119.263493 
L 108.629217 -119.029797 
L 108.153225 -118.793026 
L 107.677233 -118.554116 
L 107.201241 -118.313973 
L 106.725249 -118.073459 
L 106.249258 -117.833383 
L 105.773266 -117.594496 
L 105.297274 -117.357486 
L 104.821282 -117.122977 
L 104.34529 -116.891524 
L 103.869298 -116.663614 
L 103.393306 -116.439669 
L 102.917314 -116.220046 
L 102.441322 -116.00504 
L 101.96533 -115.794886 
L 101.489338 -115.589764 
L 101.013346 -115.389798 
L 100.537354 -115.195059 
L 100.061362 -115.00557 
L 99.585371 -114.821302 
L 99.109379 -114.64218 
L 98.633387 -114.468079 
L 98.157395 -114.298826 
L 97.681403 -114.134201 
L 97.205411 -113.973933 
L 96.729419 -113.817704 
L 96.253427 -113.665148 
L 95.777435 -113.51585 
L 95.301443 -113.369353 
L 94.825451 -113.225155 
L 94.349459 -113.082717 
L 93.873467 -112.941468 
L 93.397475 -112.800809 
L 92.921484 -112.660124 
L 92.445492 -112.518788 
L 91.9695 -112.376174 
L 91.493508 -112.231667 
L 91.017516 -112.084676 
L 90.541524 -111.934643 
L 90.065532 -111.781055 
L 89.58954 -111.623456 
L 89.113548 -111.46146 
L 88.637556 -111.294755 
L 88.161564 -111.123117 
L 87.685572 -110.946414 
L 87.20958 -110.764614 
L 86.733588 -110.577782 
L 86.257597 -110.386088 
L 85.781605 -110.189804 
L 85.305613 -109.989299 
L 84.829621 -109.785034 
L 84.353629 -109.577559 
L 83.877637 -109.367498 
L 83.401645 -109.155543 
L 82.925653 -108.942441 
L 82.449661 -108.728981 
L 81.973669 -108.51598 
L 81.497677 -108.304272 
L 81.021685 -108.094689 
L 80.545693 -107.888053 
L 80.069701 -107.685162 
L 79.59371 -107.486775 
L 79.117718 -107.293602 
L 78.641726 -107.1063 
L 78.165734 -106.925457 
L 77.689742 -106.75159 
L 77.21375 -106.585141 
L 76.737758 -106.426469 
L 76.261766 -106.275857 
L 75.785774 -106.133501 
L 75.309782 -105.999523 
L 74.83379 -105.873964 
z
" style="stroke: #355f8d; stroke-width: 1.25"/>
    </defs>
    <g>
     <use xlink:href="#m56e6d36282" x="0" y="174.26" style="fill: #355f8d; fill-opacity: 0.7; stroke: #355f8d; stroke-width: 1.25"/>
    </g>
   </g>
   <g id="line2d_3">
    <path d="M 7.2 69.57 
L 216.45 69.57 
" style="fill: none; stroke: #355f8d; stroke-opacity: 0.9; stroke-linecap: round"/>
   </g>
   <g id="text_3">
    <!-- 2 -->
    <g style="fill: #355f8d" transform="translate(7.2 68.652) scale(0.12 -0.12)">
     <defs>
      <path id="IBMPlexSans-Bold-32" d="M 3526 0 
L 365 0 
L 365 877 
L 1741 2054 
Q 1926 2214 2054 2345 
Q 2182 2477 2262 2601 
Q 2342 2726 2377 2848 
Q 2413 2970 2413 3110 
L 2413 3200 
Q 2413 3328 2361 3424 
Q 2310 3520 2227 3584 
Q 2144 3648 2038 3680 
Q 1933 3712 1824 3712 
Q 1664 3712 1545 3661 
Q 1427 3610 1340 3523 
Q 1254 3437 1196 3325 
Q 1139 3213 1107 3085 
L 269 3405 
Q 346 3635 480 3843 
Q 614 4051 816 4208 
Q 1018 4365 1293 4454 
Q 1568 4544 1914 4544 
Q 2278 4544 2560 4441 
Q 2842 4339 3037 4160 
Q 3232 3981 3334 3734 
Q 3437 3488 3437 3200 
Q 3437 2912 3341 2675 
Q 3245 2438 3081 2230 
Q 2918 2022 2700 1836 
Q 2483 1651 2246 1459 
L 1414 806 
L 3526 806 
L 3526 0 
z
" transform="scale(0.015625)"/>
     </defs>
     <use xlink:href="#IBMPlexSans-Bold-32"/>
    </g>
   </g>
  </g>
  <g id="axes_4">
   <g id="patch_5">
    <path d="M 7.2 79.965 
L 216.45 79.965 
L 216.45 38.385 
L 7.2 38.385 
L 7.2 79.965 
z
" style="fill: none"/>
   </g>
   <g id="matplotlib.axis_7">
    <g id="xtick_13"/>
    <g id="xtick_14"/>
    <g id="xtick_15"/>
    <g id="xtick_16"/>
   </g>
   <g id="matplotlib.axis_8"/>
   <g id="FillBetweenPolyCollection_3">
    <defs>
     <path id="m1287d89854" d="M 45.507021 -95.111165 
L 45.507021 -94.295 
L 46.224331 -94.295 
L 46.941642 -94.295 
L 47.658952 -94.295 
L 48.376262 -94.295 
L 49.093573 -94.295 
L 49.810883 -94.295 
L 50.528194 -94.295 
L 51.245504 -94.295 
L 51.962814 -94.295 
L 52.680125 -94.295 
L 53.397435 -94.295 
L 54.114745 -94.295 
L 54.832056 -94.295 
L 55.549366 -94.295 
L 56.266677 -94.295 
L 56.983987 -94.295 
L 57.701297 -94.295 
L 58.418608 -94.295 
L 59.135918 -94.295 
L 59.853228 -94.295 
L 60.570539 -94.295 
L 61.287849 -94.295 
L 62.00516 -94.295 
L 62.72247 -94.295 
L 63.43978 -94.295 
L 64.157091 -94.295 
L 64.874401 -94.295 
L 65.591711 -94.295 
L 66.309022 -94.295 
L 67.026332 -94.295 
L 67.743642 -94.295 
L 68.460953 -94.295 
L 69.178263 -94.295 
L 69.895574 -94.295 
L 70.612884 -94.295 
L 71.330194 -94.295 
L 72.047505 -94.295 
L 72.764815 -94.295 
L 73.482125 -94.295 
L 74.199436 -94.295 
L 74.916746 -94.295 
L 75.634057 -94.295 
L 76.351367 -94.295 
L 77.068677 -94.295 
L 77.785988 -94.295 
L 78.503298 -94.295 
L 79.220608 -94.295 
L 79.937919 -94.295 
L 80.655229 -94.295 
L 81.37254 -94.295 
L 82.08985 -94.295 
L 82.80716 -94.295 
L 83.524471 -94.295 
L 84.241781 -94.295 
L 84.959091 -94.295 
L 85.676402 -94.295 
L 86.393712 -94.295 
L 87.111022 -94.295 
L 87.828333 -94.295 
L 88.545643 -94.295 
L 89.262954 -94.295 
L 89.980264 -94.295 
L 90.697574 -94.295 
L 91.414885 -94.295 
L 92.132195 -94.295 
L 92.849505 -94.295 
L 93.566816 -94.295 
L 94.284126 -94.295 
L 95.001437 -94.295 
L 95.718747 -94.295 
L 96.436057 -94.295 
L 97.153368 -94.295 
L 97.870678 -94.295 
L 98.587988 -94.295 
L 99.305299 -94.295 
L 100.022609 -94.295 
L 100.73992 -94.295 
L 101.45723 -94.295 
L 102.17454 -94.295 
L 102.891851 -94.295 
L 103.609161 -94.295 
L 104.326471 -94.295 
L 105.043782 -94.295 
L 105.761092 -94.295 
L 106.478402 -94.295 
L 107.195713 -94.295 
L 107.913023 -94.295 
L 108.630334 -94.295 
L 109.347644 -94.295 
L 110.064954 -94.295 
L 110.782265 -94.295 
L 111.499575 -94.295 
L 112.216885 -94.295 
L 112.934196 -94.295 
L 113.651506 -94.295 
L 114.368817 -94.295 
L 115.086127 -94.295 
L 115.803437 -94.295 
L 116.520748 -94.295 
L 117.238058 -94.295 
L 117.955368 -94.295 
L 118.672679 -94.295 
L 119.389989 -94.295 
L 120.1073 -94.295 
L 120.82461 -94.295 
L 121.54192 -94.295 
L 122.259231 -94.295 
L 122.976541 -94.295 
L 123.693851 -94.295 
L 124.411162 -94.295 
L 125.128472 -94.295 
L 125.845782 -94.295 
L 126.563093 -94.295 
L 127.280403 -94.295 
L 127.997714 -94.295 
L 128.715024 -94.295 
L 129.432334 -94.295 
L 130.149645 -94.295 
L 130.866955 -94.295 
L 131.584265 -94.295 
L 132.301576 -94.295 
L 133.018886 -94.295 
L 133.736197 -94.295 
L 134.453507 -94.295 
L 135.170817 -94.295 
L 135.888128 -94.295 
L 136.605438 -94.295 
L 137.322748 -94.295 
L 138.040059 -94.295 
L 138.757369 -94.295 
L 139.47468 -94.295 
L 140.19199 -94.295 
L 140.9093 -94.295 
L 141.626611 -94.295 
L 142.343921 -94.295 
L 143.061231 -94.295 
L 143.778542 -94.295 
L 144.495852 -94.295 
L 145.213162 -94.295 
L 145.930473 -94.295 
L 146.647783 -94.295 
L 147.365094 -94.295 
L 148.082404 -94.295 
L 148.799714 -94.295 
L 149.517025 -94.295 
L 150.234335 -94.295 
L 150.951645 -94.295 
L 151.668956 -94.295 
L 152.386266 -94.295 
L 153.103577 -94.295 
L 153.820887 -94.295 
L 154.538197 -94.295 
L 155.255508 -94.295 
L 155.972818 -94.295 
L 156.690128 -94.295 
L 157.407439 -94.295 
L 158.124749 -94.295 
L 158.84206 -94.295 
L 159.55937 -94.295 
L 160.27668 -94.295 
L 160.993991 -94.295 
L 161.711301 -94.295 
L 162.428611 -94.295 
L 163.145922 -94.295 
L 163.863232 -94.295 
L 164.580542 -94.295 
L 165.297853 -94.295 
L 166.015163 -94.295 
L 166.732474 -94.295 
L 167.449784 -94.295 
L 168.167094 -94.295 
L 168.884405 -94.295 
L 169.601715 -94.295 
L 170.319025 -94.295 
L 171.036336 -94.295 
L 171.753646 -94.295 
L 172.470957 -94.295 
L 173.188267 -94.295 
L 173.905577 -94.295 
L 174.622888 -94.295 
L 175.340198 -94.295 
L 176.057508 -94.295 
L 176.774819 -94.295 
L 177.492129 -94.295 
L 178.20944 -94.295 
L 178.92675 -94.295 
L 179.64406 -94.295 
L 180.361371 -94.295 
L 181.078681 -94.295 
L 181.795991 -94.295 
L 182.513302 -94.295 
L 183.230612 -94.295 
L 183.947922 -94.295 
L 184.665233 -94.295 
L 185.382543 -94.295 
L 186.099854 -94.295 
L 186.817164 -94.295 
L 187.534474 -94.295 
L 188.251785 -94.295 
L 188.251785 -95.215116 
L 188.251785 -95.215116 
L 187.534474 -95.325864 
L 186.817164 -95.446155 
L 186.099854 -95.57629 
L 185.382543 -95.716516 
L 184.665233 -95.867012 
L 183.947922 -96.027886 
L 183.230612 -96.199172 
L 182.513302 -96.380819 
L 181.795991 -96.572692 
L 181.078681 -96.774569 
L 180.361371 -96.986139 
L 179.64406 -97.207006 
L 178.92675 -97.436689 
L 178.20944 -97.674631 
L 177.492129 -97.9202 
L 176.774819 -98.172701 
L 176.057508 -98.431385 
L 175.340198 -98.695459 
L 174.622888 -98.964101 
L 173.905577 -99.236465 
L 173.188267 -99.511703 
L 172.470957 -99.788973 
L 171.753646 -100.067452 
L 171.036336 -100.346348 
L 170.319025 -100.624912 
L 169.601715 -100.902445 
L 168.884405 -101.178307 
L 168.167094 -101.45192 
L 167.449784 -101.722777 
L 166.732474 -101.990436 
L 166.015163 -102.254521 
L 165.297853 -102.514723 
L 164.580542 -102.770787 
L 163.863232 -103.02251 
L 163.145922 -103.26973 
L 162.428611 -103.512314 
L 161.711301 -103.750151 
L 160.993991 -103.983139 
L 160.27668 -104.211172 
L 159.55937 -104.434131 
L 158.84206 -104.651875 
L 158.124749 -104.864232 
L 157.407439 -105.070993 
L 156.690128 -105.271908 
L 155.972818 -105.466682 
L 155.255508 -105.654977 
L 154.538197 -105.836416 
L 153.820887 -106.010584 
L 153.103577 -106.177041 
L 152.386266 -106.335324 
L 151.668956 -106.484962 
L 150.951645 -106.625489 
L 150.234335 -106.75645 
L 149.517025 -106.877423 
L 148.799714 -106.988023 
L 148.082404 -107.087919 
L 147.365094 -107.176844 
L 146.647783 -107.254603 
L 145.930473 -107.321083 
L 145.213162 -107.376257 
L 144.495852 -107.42019 
L 143.778542 -107.45304 
L 143.061231 -107.475054 
L 142.343921 -107.48657 
L 141.626611 -107.488011 
L 140.9093 -107.479877 
L 140.19199 -107.46274 
L 139.47468 -107.437232 
L 138.757369 -107.404039 
L 138.040059 -107.363888 
L 137.322748 -107.317537 
L 136.605438 -107.265765 
L 135.888128 -107.209366 
L 135.170817 -107.149131 
L 134.453507 -107.085848 
L 133.736197 -107.02029 
L 133.018886 -106.953208 
L 132.301576 -106.885325 
L 131.584265 -106.817333 
L 130.866955 -106.749884 
L 130.149645 -106.68359 
L 129.432334 -106.619013 
L 128.715024 -106.556669 
L 127.997714 -106.497018 
L 127.280403 -106.440465 
L 126.563093 -106.387352 
L 125.845782 -106.337961 
L 125.128472 -106.292502 
L 124.411162 -106.251117 
L 123.693851 -106.213872 
L 122.976541 -106.180757 
L 122.259231 -106.151682 
L 121.54192 -106.126476 
L 120.82461 -106.104884 
L 120.1073 -106.086571 
L 119.389989 -106.07112 
L 118.672679 -106.058039 
L 117.955368 -106.046761 
L 117.238058 -106.036656 
L 116.520748 -106.027033 
L 115.803437 -106.017154 
L 115.086127 -106.006246 
L 114.368817 -105.993507 
L 113.651506 -105.978129 
L 112.934196 -105.959304 
L 112.216885 -105.936245 
L 111.499575 -105.908197 
L 110.782265 -105.874453 
L 110.064954 -105.834368 
L 109.347644 -105.787372 
L 108.630334 -105.732983 
L 107.913023 -105.67081 
L 107.195713 -105.60057 
L 106.478402 -105.522085 
L 105.761092 -105.435289 
L 105.043782 -105.340229 
L 104.326471 -105.23706 
L 103.609161 -105.126042 
L 102.891851 -105.007533 
L 102.17454 -104.881982 
L 101.45723 -104.749916 
L 100.73992 -104.61193 
L 100.022609 -104.468674 
L 99.305299 -104.320838 
L 98.587988 -104.169142 
L 97.870678 -104.014318 
L 97.153368 -103.857101 
L 96.436057 -103.698213 
L 95.718747 -103.538355 
L 95.001437 -103.378195 
L 94.284126 -103.218361 
L 93.566816 -103.05943 
L 92.849505 -102.901928 
L 92.132195 -102.746324 
L 91.414885 -102.593026 
L 90.697574 -102.442383 
L 89.980264 -102.294681 
L 89.262954 -102.150151 
L 88.545643 -102.008964 
L 87.828333 -101.871242 
L 87.111022 -101.737052 
L 86.393712 -101.60642 
L 85.676402 -101.479327 
L 84.959091 -101.355717 
L 84.241781 -101.2355 
L 83.524471 -101.118553 
L 82.80716 -101.004729 
L 82.08985 -100.893852 
L 81.37254 -100.785727 
L 80.655229 -100.680136 
L 79.937919 -100.576844 
L 79.220608 -100.475598 
L 78.503298 -100.37613 
L 77.785988 -100.278158 
L 77.068677 -100.181387 
L 76.351367 -100.085512 
L 75.634057 -99.990218 
L 74.916746 -99.895186 
L 74.199436 -99.800092 
L 73.482125 -99.70461 
L 72.764815 -99.608419 
L 72.047505 -99.511204 
L 71.330194 -99.41266 
L 70.612884 -99.312498 
L 69.895574 -99.210449 
L 69.178263 -99.106268 
L 68.460953 -98.999741 
L 67.743642 -98.890685 
L 67.026332 -98.778958 
L 66.309022 -98.664458 
L 65.591711 -98.547127 
L 64.874401 -98.426956 
L 64.157091 -98.303986 
L 63.43978 -98.178308 
L 62.72247 -98.050061 
L 62.00516 -97.919437 
L 61.287849 -97.786675 
L 60.570539 -97.652059 
L 59.853228 -97.515916 
L 59.135918 -97.37861 
L 58.418608 -97.240538 
L 57.701297 -97.102124 
L 56.983987 -96.963814 
L 56.266677 -96.826067 
L 55.549366 -96.689351 
L 54.832056 -96.554134 
L 54.114745 -96.420881 
L 53.397435 -96.290041 
L 52.680125 -96.162048 
L 51.962814 -96.037311 
L 51.245504 -95.916207 
L 50.528194 -95.799084 
L 49.810883 -95.686248 
L 49.093573 -95.577966 
L 48.376262 -95.474464 
L 47.658952 -95.37592 
L 46.941642 -95.282469 
L 46.224331 -95.194202 
L 45.507021 -95.111165 
z
" style="stroke: #414487; stroke-width: 1.25"/>
    </defs>
    <g>
     <use xlink:href="#m1287d89854" x="0" y="174.26" style="fill: #414487; fill-opacity: 0.7; stroke: #414487; stroke-width: 1.25"/>
    </g>
   </g>
   <g id="line2d_4">
    <path d="M 7.2 79.965 
L 216.45 79.965 
" style="fill: none; stroke: #414487; stroke-opacity: 0.9; stroke-linecap: round"/>
   </g>
   <g id="text_4">
    <!-- 3 -->
    <g style="fill: #414487" transform="translate(7.2 79.047) scale(0.12 -0.12)">
     <defs>
      <path id="IBMPlexSans-Bold-33" d="M 1677 2701 
Q 2035 2701 2198 2838 
Q 2362 2976 2362 3181 
L 2362 3226 
Q 2362 3469 2205 3616 
Q 2048 3763 1760 3763 
Q 1491 3763 1254 3625 
Q 1018 3488 851 3232 
L 250 3795 
Q 378 3962 525 4099 
Q 672 4237 857 4336 
Q 1043 4435 1273 4489 
Q 1504 4544 1792 4544 
Q 2150 4544 2441 4461 
Q 2733 4378 2941 4221 
Q 3149 4064 3261 3846 
Q 3373 3629 3373 3360 
Q 3373 3149 3305 2976 
Q 3238 2803 3120 2675 
Q 3002 2547 2848 2467 
Q 2694 2387 2522 2355 
L 2522 2317 
Q 2720 2278 2889 2192 
Q 3059 2106 3184 1971 
Q 3309 1837 3379 1654 
Q 3450 1472 3450 1242 
Q 3450 941 3328 697 
Q 3206 454 2982 281 
Q 2758 109 2444 16 
Q 2131 -77 1754 -77 
Q 1414 -77 1152 -6 
Q 890 64 694 182 
Q 499 301 355 454 
Q 211 608 102 781 
L 813 1331 
Q 960 1056 1174 880 
Q 1389 704 1754 704 
Q 2080 704 2262 867 
Q 2445 1030 2445 1312 
L 2445 1350 
Q 2445 1626 2237 1763 
Q 2029 1901 1664 1901 
L 1261 1901 
L 1261 2701 
L 1677 2701 
z
" transform="scale(0.015625)"/>
     </defs>
     <use xlink:href="#IBMPlexSans-Bold-33"/>
    </g>
   </g>
  </g>
  <g id="axes_5">
   <g id="patch_6">
    <path d="M 7.2 90.36 
L 216.45 90.36 
L 216.45 48.78 
L 7.2 48.78 
L 7.2 90.36 
z
" style="fill: none"/>
   </g>
   <g id="matplotlib.axis_9">
    <g id="xtick_17"/>
    <g id="xtick_18"/>
    <g id="xtick_19"/>
    <g id="xtick_20"/>
   </g>
   <g id="matplotlib.axis_10"/>
   <g id="FillBetweenPolyCollection_4">
    <defs>
     <path id="m6d3c124c8b" d="M 16.711364 -84.566692 
L 16.711364 -83.9 
L 17.66728 -83.9 
L 18.623196 -83.9 
L 19.579111 -83.9 
L 20.535027 -83.9 
L 21.490943 -83.9 
L 22.446859 -83.9 
L 23.402775 -83.9 
L 24.358691 -83.9 
L 25.314607 -83.9 
L 26.270523 -83.9 
L 27.226439 -83.9 
L 28.182355 -83.9 
L 29.138271 -83.9 
L 30.094187 -83.9 
L 31.050103 -83.9 
L 32.006019 -83.9 
L 32.961935 -83.9 
L 33.917851 -83.9 
L 34.873767 -83.9 
L 35.829683 -83.9 
L 36.785598 -83.9 
L 37.741514 -83.9 
L 38.69743 -83.9 
L 39.653346 -83.9 
L 40.609262 -83.9 
L 41.565178 -83.9 
L 42.521094 -83.9 
L 43.47701 -83.9 
L 44.432926 -83.9 
L 45.388842 -83.9 
L 46.344758 -83.9 
L 47.300674 -83.9 
L 48.25659 -83.9 
L 49.212506 -83.9 
L 50.168422 -83.9 
L 51.124338 -83.9 
L 52.080254 -83.9 
L 53.036169 -83.9 
L 53.992085 -83.9 
L 54.948001 -83.9 
L 55.903917 -83.9 
L 56.859833 -83.9 
L 57.815749 -83.9 
L 58.771665 -83.9 
L 59.727581 -83.9 
L 60.683497 -83.9 
L 61.639413 -83.9 
L 62.595329 -83.9 
L 63.551245 -83.9 
L 64.507161 -83.9 
L 65.463077 -83.9 
L 66.418993 -83.9 
L 67.374909 -83.9 
L 68.330825 -83.9 
L 69.286741 -83.9 
L 70.242656 -83.9 
L 71.198572 -83.9 
L 72.154488 -83.9 
L 73.110404 -83.9 
L 74.06632 -83.9 
L 75.022236 -83.9 
L 75.978152 -83.9 
L 76.934068 -83.9 
L 77.889984 -83.9 
L 78.8459 -83.9 
L 79.801816 -83.9 
L 80.757732 -83.9 
L 81.713648 -83.9 
L 82.669564 -83.9 
L 83.62548 -83.9 
L 84.581396 -83.9 
L 85.537312 -83.9 
L 86.493228 -83.9 
L 87.449143 -83.9 
L 88.405059 -83.9 
L 89.360975 -83.9 
L 90.316891 -83.9 
L 91.272807 -83.9 
L 92.228723 -83.9 
L 93.184639 -83.9 
L 94.140555 -83.9 
L 95.096471 -83.9 
L 96.052387 -83.9 
L 97.008303 -83.9 
L 97.964219 -83.9 
L 98.920135 -83.9 
L 99.876051 -83.9 
L 100.831967 -83.9 
L 101.787883 -83.9 
L 102.743799 -83.9 
L 103.699714 -83.9 
L 104.65563 -83.9 
L 105.611546 -83.9 
L 106.567462 -83.9 
L 107.523378 -83.9 
L 108.479294 -83.9 
L 109.43521 -83.9 
L 110.391126 -83.9 
L 111.347042 -83.9 
L 112.302958 -83.9 
L 113.258874 -83.9 
L 114.21479 -83.9 
L 115.170706 -83.9 
L 116.126622 -83.9 
L 117.082538 -83.9 
L 118.038454 -83.9 
L 118.99437 -83.9 
L 119.950286 -83.9 
L 120.906201 -83.9 
L 121.862117 -83.9 
L 122.818033 -83.9 
L 123.773949 -83.9 
L 124.729865 -83.9 
L 125.685781 -83.9 
L 126.641697 -83.9 
L 127.597613 -83.9 
L 128.553529 -83.9 
L 129.509445 -83.9 
L 130.465361 -83.9 
L 131.421277 -83.9 
L 132.377193 -83.9 
L 133.333109 -83.9 
L 134.289025 -83.9 
L 135.244941 -83.9 
L 136.200857 -83.9 
L 137.156772 -83.9 
L 138.112688 -83.9 
L 139.068604 -83.9 
L 140.02452 -83.9 
L 140.980436 -83.9 
L 141.936352 -83.9 
L 142.892268 -83.9 
L 143.848184 -83.9 
L 144.8041 -83.9 
L 145.760016 -83.9 
L 146.715932 -83.9 
L 147.671848 -83.9 
L 148.627764 -83.9 
L 149.58368 -83.9 
L 150.539596 -83.9 
L 151.495512 -83.9 
L 152.451428 -83.9 
L 153.407344 -83.9 
L 154.363259 -83.9 
L 155.319175 -83.9 
L 156.275091 -83.9 
L 157.231007 -83.9 
L 158.186923 -83.9 
L 159.142839 -83.9 
L 160.098755 -83.9 
L 161.054671 -83.9 
L 162.010587 -83.9 
L 162.966503 -83.9 
L 163.922419 -83.9 
L 164.878335 -83.9 
L 165.834251 -83.9 
L 166.790167 -83.9 
L 167.746083 -83.9 
L 168.701999 -83.9 
L 169.657915 -83.9 
L 170.613831 -83.9 
L 171.569746 -83.9 
L 172.525662 -83.9 
L 173.481578 -83.9 
L 174.437494 -83.9 
L 175.39341 -83.9 
L 176.349326 -83.9 
L 177.305242 -83.9 
L 178.261158 -83.9 
L 179.217074 -83.9 
L 180.17299 -83.9 
L 181.128906 -83.9 
L 182.084822 -83.9 
L 183.040738 -83.9 
L 183.996654 -83.9 
L 184.95257 -83.9 
L 185.908486 -83.9 
L 186.864402 -83.9 
L 187.820317 -83.9 
L 188.776233 -83.9 
L 189.732149 -83.9 
L 190.688065 -83.9 
L 191.643981 -83.9 
L 192.599897 -83.9 
L 193.555813 -83.9 
L 194.511729 -83.9 
L 195.467645 -83.9 
L 196.423561 -83.9 
L 197.379477 -83.9 
L 198.335393 -83.9 
L 199.291309 -83.9 
L 200.247225 -83.9 
L 201.203141 -83.9 
L 202.159057 -83.9 
L 203.114973 -83.9 
L 204.070889 -83.9 
L 205.026804 -83.9 
L 205.98272 -83.9 
L 206.938636 -83.9 
L 206.938636 -84.605316 
L 206.938636 -84.605316 
L 205.98272 -84.68913 
L 205.026804 -84.780016 
L 204.070889 -84.878182 
L 203.114973 -84.983789 
L 202.159057 -85.096952 
L 201.203141 -85.21773 
L 200.247225 -85.346128 
L 199.291309 -85.482089 
L 198.335393 -85.625493 
L 197.379477 -85.77616 
L 196.423561 -85.933842 
L 195.467645 -86.098235 
L 194.511729 -86.268971 
L 193.555813 -86.44563 
L 192.599897 -86.62774 
L 191.643981 -86.814787 
L 190.688065 -87.006219 
L 189.732149 -87.201456 
L 188.776233 -87.3999 
L 187.820317 -87.600939 
L 186.864402 -87.803962 
L 185.908486 -88.008366 
L 184.95257 -88.213563 
L 183.996654 -88.418992 
L 183.040738 -88.624123 
L 182.084822 -88.828465 
L 181.128906 -89.031569 
L 180.17299 -89.233035 
L 179.217074 -89.432509 
L 178.261158 -89.629689 
L 177.305242 -89.824319 
L 176.349326 -90.016187 
L 175.39341 -90.205123 
L 174.437494 -90.390991 
L 173.481578 -90.573683 
L 172.525662 -90.753111 
L 171.569746 -90.929201 
L 170.613831 -91.101884 
L 169.657915 -91.271086 
L 168.701999 -91.436722 
L 167.746083 -91.59869 
L 166.790167 -91.756864 
L 165.834251 -91.91109 
L 164.878335 -92.061181 
L 163.922419 -92.20692 
L 162.966503 -92.348055 
L 162.010587 -92.484302 
L 161.054671 -92.615352 
L 160.098755 -92.740872 
L 159.142839 -92.860513 
L 158.186923 -92.973918 
L 157.231007 -93.080729 
L 156.275091 -93.180595 
L 155.319175 -93.273186 
L 154.363259 -93.358197 
L 153.407344 -93.435359 
L 152.451428 -93.50445 
L 151.495512 -93.565295 
L 150.539596 -93.617781 
L 149.58368 -93.661858 
L 148.627764 -93.697538 
L 147.671848 -93.724908 
L 146.715932 -93.744119 
L 145.760016 -93.755391 
L 144.8041 -93.759011 
L 143.848184 -93.755327 
L 142.892268 -93.744741 
L 141.936352 -93.727711 
L 140.980436 -93.704734 
L 140.02452 -93.676347 
L 139.068604 -93.643114 
L 138.112688 -93.605624 
L 137.156772 -93.564477 
L 136.200857 -93.520282 
L 135.244941 -93.473646 
L 134.289025 -93.425171 
L 133.333109 -93.375445 
L 132.377193 -93.325039 
L 131.421277 -93.274499 
L 130.465361 -93.224342 
L 129.509445 -93.175057 
L 128.553529 -93.127093 
L 127.597613 -93.08086 
L 126.641697 -93.036726 
L 125.685781 -92.995013 
L 124.729865 -92.955992 
L 123.773949 -92.919884 
L 122.818033 -92.886853 
L 121.862117 -92.857008 
L 120.906201 -92.830394 
L 119.950286 -92.806999 
L 118.99437 -92.786742 
L 118.038454 -92.769482 
L 117.082538 -92.755011 
L 116.126622 -92.743056 
L 115.170706 -92.733283 
L 114.21479 -92.725299 
L 113.258874 -92.718653 
L 112.302958 -92.712845 
L 111.347042 -92.707331 
L 110.391126 -92.701532 
L 109.43521 -92.694839 
L 108.479294 -92.686628 
L 107.523378 -92.676267 
L 106.567462 -92.663131 
L 105.611546 -92.646608 
L 104.65563 -92.626117 
L 103.699714 -92.601115 
L 102.743799 -92.571109 
L 101.787883 -92.535667 
L 100.831967 -92.494427 
L 99.876051 -92.447102 
L 98.920135 -92.393488 
L 97.964219 -92.333467 
L 97.008303 -92.267009 
L 96.052387 -92.194174 
L 95.096471 -92.115106 
L 94.140555 -92.030035 
L 93.184639 -91.939267 
L 92.228723 -91.843176 
L 91.272807 -91.7422 
L 90.316891 -91.636829 
L 89.360975 -91.527594 
L 88.405059 -91.415056 
L 87.449143 -91.299795 
L 86.493228 -91.182402 
L 85.537312 -91.063462 
L 84.581396 -90.94355 
L 83.62548 -90.823219 
L 82.669564 -90.70299 
L 81.713648 -90.583349 
L 80.757732 -90.46474 
L 79.801816 -90.347559 
L 78.8459 -90.232151 
L 77.889984 -90.118811 
L 76.934068 -90.007781 
L 75.978152 -89.899252 
L 75.022236 -89.793363 
L 74.06632 -89.690206 
L 73.110404 -89.58983 
L 72.154488 -89.49224 
L 71.198572 -89.397404 
L 70.242656 -89.305256 
L 69.286741 -89.215703 
L 68.330825 -89.128622 
L 67.374909 -89.043872 
L 66.418993 -88.96129 
L 65.463077 -88.880701 
L 64.507161 -88.801915 
L 63.551245 -88.724734 
L 62.595329 -88.648952 
L 61.639413 -88.574357 
L 60.683497 -88.500734 
L 59.727581 -88.427864 
L 58.771665 -88.35553 
L 57.815749 -88.283514 
L 56.859833 -88.211601 
L 55.903917 -88.139578 
L 54.948001 -88.067237 
L 53.992085 -87.994377 
L 53.036169 -87.920806 
L 52.080254 -87.846338 
L 51.124338 -87.770801 
L 50.168422 -87.694036 
L 49.212506 -87.615899 
L 48.25659 -87.536263 
L 47.300674 -87.45502 
L 46.344758 -87.372083 
L 45.388842 -87.28739 
L 44.432926 -87.2009 
L 43.47701 -87.112601 
L 42.521094 -87.022507 
L 41.565178 -86.930659 
L 40.609262 -86.837128 
L 39.653346 -86.742013 
L 38.69743 -86.645441 
L 37.741514 -86.547567 
L 36.785598 -86.44857 
L 35.829683 -86.348656 
L 34.873767 -86.248052 
L 33.917851 -86.147006 
L 32.961935 -86.045783 
L 32.006019 -85.944661 
L 31.050103 -85.843929 
L 30.094187 -85.743883 
L 29.138271 -85.644823 
L 28.182355 -85.547048 
L 27.226439 -85.450852 
L 26.270523 -85.356522 
L 25.314607 -85.264332 
L 24.358691 -85.174541 
L 23.402775 -85.087391 
L 22.446859 -85.003104 
L 21.490943 -84.921875 
L 20.535027 -84.843878 
L 19.579111 -84.769258 
L 18.623196 -84.698132 
L 17.66728 -84.630589 
L 16.711364 -84.566692 
z
" style="stroke: #482475; stroke-width: 1.25"/>
    </defs>
    <g>
     <use xlink:href="#m6d3c124c8b" x="0" y="174.26" style="fill: #482475; fill-opacity: 0.7; stroke: #482475; stroke-width: 1.25"/>
    </g>
   </g>
   <g id="line2d_5">
    <path d="M 7.2 90.36 
L 216.45 90.36 
" style="fill: none; stroke: #482475; stroke-opacity: 0.9; stroke-linecap: round"/>
   </g>
   <g id="text_5">
    <!-- 4 -->
    <g style="fill: #482475" transform="translate(7.2 89.442) scale(0.12 -0.12)">
     <defs>
      <path id="IBMPlexSans-Bold-34" d="M 2157 0 
L 2157 858 
L 192 858 
L 192 1677 
L 1933 4467 
L 3072 4467 
L 3072 1600 
L 3635 1600 
L 3635 858 
L 3072 858 
L 3072 0 
L 2157 0 
z
M 960 1600 
L 2157 1600 
L 2157 3475 
L 2093 3475 
L 960 1600 
z
" transform="scale(0.015625)"/>
     </defs>
     <use xlink:href="#IBMPlexSans-Bold-34"/>
    </g>
   </g>
  </g>
  <g id="axes_6">
   <g id="patch_7">
    <path d="M 7.2 100.755 
L 216.45 100.755 
L 216.45 59.175 
L 7.2 59.175 
L 7.2 100.755 
z
" style="fill: none"/>
   </g>
   <g id="matplotlib.axis_11">
    <g id="xtick_21"/>
    <g id="xtick_22"/>
    <g id="xtick_23"/>
    <g id="xtick_24"/>
   </g>
   <g id="matplotlib.axis_12"/>
   <g id="line2d_6">
    <path d="M 7.2 100.755 
L 216.45 100.755 
" style="fill: none; stroke: #21918c; stroke-opacity: 0.9; stroke-linecap: round"/>
   </g>
   <g id="text_6">
    <!-- 5 -->
    <g style="fill: #21918c" transform="translate(7.2 99.837) scale(0.12 -0.12)">
     <defs>
      <path id="IBMPlexSans-Bold-35" d="M 3341 3629 
L 1312 3629 
L 1216 2214 
L 1267 2214 
Q 1331 2374 1411 2505 
Q 1491 2637 1600 2729 
Q 1709 2822 1862 2873 
Q 2016 2925 2227 2925 
Q 2515 2925 2764 2829 
Q 3014 2733 3200 2550 
Q 3386 2368 3494 2102 
Q 3603 1837 3603 1504 
Q 3603 1165 3491 873 
Q 3379 582 3158 371 
Q 2938 160 2618 41 
Q 2298 -77 1888 -77 
Q 1562 -77 1312 -6 
Q 1062 64 870 182 
Q 678 301 537 454 
Q 397 608 294 781 
L 992 1331 
Q 1139 1069 1344 886 
Q 1549 704 1894 704 
Q 2240 704 2416 902 
Q 2592 1101 2592 1427 
L 2592 1478 
Q 2592 1786 2413 1965 
Q 2234 2144 1920 2144 
Q 1658 2144 1488 2038 
Q 1318 1933 1229 1830 
L 442 1939 
L 608 4467 
L 3341 4467 
L 3341 3629 
z
" transform="scale(0.015625)"/>
     </defs>
     <use xlink:href="#IBMPlexSans-Bold-35"/>
    </g>
   </g>
  </g>
  <g id="axes_7">
   <g id="patch_8">
    <path d="M 7.2 111.15 
L 216.45 111.15 
L 216.45 69.57 
L 7.2 69.57 
L 7.2 111.15 
z
" style="fill: none"/>
   </g>
   <g id="matplotlib.axis_13">
    <g id="xtick_25"/>
    <g id="xtick_26"/>
    <g id="xtick_27"/>
    <g id="xtick_28"/>
   </g>
   <g id="matplotlib.axis_14"/>
   <g id="line2d_7">
    <path d="M 7.2 111.15 
L 216.45 111.15 
" style="fill: none; stroke: #21918c; stroke-opacity: 0.9; stroke-linecap: round"/>
   </g>
   <g id="text_7">
    <!-- 6 -->
    <g style="fill: #21918c" transform="translate(7.2 110.232) scale(0.12 -0.12)">
     <defs>
      <path id="IBMPlexSans-Bold-36" d="M 1946 -77 
Q 1549 -77 1235 48 
Q 922 173 707 406 
Q 493 640 381 966 
Q 269 1293 269 1696 
Q 269 2163 413 2582 
Q 557 3002 784 3357 
Q 1011 3712 1296 3993 
Q 1581 4275 1869 4467 
L 3194 4467 
Q 2784 4173 2457 3907 
Q 2131 3642 1891 3373 
Q 1651 3104 1494 2825 
Q 1338 2547 1274 2227 
L 1331 2208 
Q 1389 2336 1469 2457 
Q 1549 2579 1667 2672 
Q 1786 2765 1946 2822 
Q 2106 2880 2317 2880 
Q 2592 2880 2832 2781 
Q 3072 2682 3248 2502 
Q 3424 2323 3523 2064 
Q 3622 1805 3622 1491 
Q 3622 1146 3504 858 
Q 3386 570 3165 362 
Q 2944 154 2637 38 
Q 2330 -77 1946 -77 
z
M 1946 672 
Q 2266 672 2445 848 
Q 2624 1024 2624 1350 
L 2624 1466 
Q 2624 1792 2445 1968 
Q 2266 2144 1946 2144 
Q 1626 2144 1446 1968 
Q 1267 1792 1267 1466 
L 1267 1350 
Q 1267 1024 1446 848 
Q 1626 672 1946 672 
z
" transform="scale(0.015625)"/>
     </defs>
     <use xlink:href="#IBMPlexSans-Bold-36"/>
    </g>
   </g>
  </g>
  <g id="axes_8">
   <g id="patch_9">
    <path d="M 7.2 121.545 
L 216.45 121.545 
L 216.45 79.965 
L 7.2 79.965 
L 7.2 121.545 
z
" style="fill: none"/>
   </g>
   <g id="matplotlib.axis_15">
    <g id="xtick_29"/>
    <g id="xtick_30"/>
    <g id="xtick_31"/>
    <g id="xtick_32"/>
   </g>
   <g id="matplotlib.axis_16"/>
   <g id="line2d_8">
    <path d="M 7.2 121.545 
L 216.45 121.545 
" style="fill: none; stroke: #21918c; stroke-opacity: 0.9; stroke-linecap: round"/>
   </g>
   <g id="text_8">
    <!-- 7 -->
    <g style="fill: #21918c" transform="translate(7.2 120.627) scale(0.12 -0.12)">
     <defs>
      <path id="IBMPlexSans-Bold-37" d="M 1062 0 
L 2560 3686 
L 1165 3686 
L 1165 2874 
L 352 2874 
L 352 4467 
L 3514 4467 
L 3514 3635 
L 2074 0 
L 1062 0 
z
" transform="scale(0.015625)"/>
     </defs>
     <use xlink:href="#IBMPlexSans-Bold-37"/>
    </g>
   </g>
  </g>
  <g id="axes_9">
   <g id="patch_10">
    <path d="M 7.2 131.94 
L 216.45 131.94 
L 216.45 90.36 
L 7.2 90.36 
L 7.2 131.94 
z
" style="fill: none"/>
   </g>
   <g id="matplotlib.axis_17">
    <g id="xtick_33">
     <g id="text_9">
      <!-- −4 -->
      <g style="fill: #838383" transform="translate(39.540719 149.58) scale(0.11 -0.11)">
       <defs>
        <path id="IBMPlexSans-Regular-2212" d="M 429 1734 
L 429 2170 
L 3411 2170 
L 3411 1734 
L 429 1734 
z
" transform="scale(0.015625)"/>
        <path id="IBMPlexSans-Regular-34" d="M 2400 0 
L 2400 877 
L 243 877 
L 243 1350 
L 2112 4467 
L 2912 4467 
L 2912 1325 
L 3558 1325 
L 3558 877 
L 2912 877 
L 2912 0 
L 2400 0 
z
M 749 1325 
L 2400 1325 
L 2400 4051 
L 2368 4051 
L 749 1325 
z
" transform="scale(0.015625)"/>
       </defs>
       <use xlink:href="#IBMPlexSans-Regular-2212"/>
       <use xlink:href="#IBMPlexSans-Regular-34" transform="translate(59.999985 0)"/>
      </g>
     </g>
    </g>
    <g id="xtick_34">
     <g id="text_10">
      <!-- −2 -->
      <g style="fill: #838383" transform="translate(82.771362 149.58) scale(0.11 -0.11)">
       <defs>
        <path id="IBMPlexSans-Regular-32" d="M 3411 0 
L 480 0 
L 480 550 
L 1939 1894 
Q 2253 2182 2464 2505 
Q 2675 2829 2675 3155 
L 2675 3232 
Q 2675 3603 2470 3833 
Q 2266 4064 1850 4064 
Q 1645 4064 1491 4006 
Q 1338 3949 1226 3846 
Q 1114 3744 1040 3606 
Q 966 3469 922 3309 
L 442 3494 
Q 506 3693 618 3881 
Q 730 4070 899 4217 
Q 1069 4365 1309 4454 
Q 1549 4544 1875 4544 
Q 2202 4544 2458 4448 
Q 2714 4352 2886 4179 
Q 3059 4006 3152 3769 
Q 3245 3533 3245 3245 
Q 3245 2982 3171 2758 
Q 3098 2534 2970 2332 
Q 2842 2131 2659 1939 
Q 2477 1747 2266 1555 
L 1062 474 
L 3411 474 
L 3411 0 
z
" transform="scale(0.015625)"/>
       </defs>
       <use xlink:href="#IBMPlexSans-Regular-2212"/>
       <use xlink:href="#IBMPlexSans-Regular-32" transform="translate(59.999985 0)"/>
      </g>
     </g>
    </g>
    <g id="xtick_35">
     <g id="text_11">
      <!-- 0 -->
      <g style="fill: #838383" transform="translate(129.302004 149.58) scale(0.11 -0.11)">
       <defs>
        <path id="IBMPlexSans-Regular-30" d="M 1920 -77 
Q 1120 -77 752 531 
Q 384 1139 384 2234 
Q 384 3328 752 3936 
Q 1120 4544 1920 4544 
Q 2720 4544 3088 3936 
Q 3456 3328 3456 2234 
Q 3456 1139 3088 531 
Q 2720 -77 1920 -77 
z
M 1920 390 
Q 2182 390 2368 499 
Q 2554 608 2669 806 
Q 2784 1005 2838 1273 
Q 2893 1542 2893 1869 
L 2893 2598 
Q 2893 2925 2838 3193 
Q 2784 3462 2669 3660 
Q 2554 3859 2368 3968 
Q 2182 4077 1920 4077 
Q 1658 4077 1472 3968 
Q 1286 3859 1171 3660 
Q 1056 3462 1001 3193 
Q 947 2925 947 2598 
L 947 1869 
Q 947 1542 1001 1273 
Q 1056 1005 1171 806 
Q 1286 608 1472 499 
Q 1658 390 1920 390 
z
" transform="scale(0.015625)"/>
       </defs>
       <use xlink:href="#IBMPlexSans-Regular-30"/>
      </g>
     </g>
    </g>
    <g id="xtick_36">
     <g id="text_12">
      <!-- 2 -->
      <g style="fill: #838383" transform="translate(172.532647 149.58) scale(0.11 -0.11)">
       <use xlink:href="#IBMPlexSans-Regular-32"/>
      </g>
     </g>
    </g>
    <g id="text_13">
     <!-- sldf -->
     <g style="fill: #262626" transform="translate(101.84625 164.66) scale(0.12 -0.12)">
      <defs>
       <path id="IBMPlexSans-Regular-73" d="M 1536 -77 
Q 1075 -77 764 99 
Q 454 275 230 570 
L 595 864 
Q 787 621 1024 489 
Q 1261 358 1574 358 
Q 1901 358 2083 499 
Q 2266 640 2266 896 
Q 2266 1088 2141 1225 
Q 2016 1363 1690 1414 
L 1427 1453 
Q 1197 1485 1005 1552 
Q 813 1619 669 1731 
Q 525 1843 445 2009 
Q 365 2176 365 2406 
Q 365 2650 454 2832 
Q 544 3014 701 3136 
Q 858 3258 1075 3318 
Q 1293 3379 1542 3379 
Q 1946 3379 2218 3238 
Q 2490 3098 2694 2848 
L 2355 2541 
Q 2246 2694 2035 2819 
Q 1824 2944 1504 2944 
Q 1184 2944 1021 2806 
Q 858 2669 858 2432 
Q 858 2189 1021 2080 
Q 1184 1971 1491 1920 
L 1747 1882 
Q 2298 1798 2528 1564 
Q 2758 1331 2758 954 
Q 2758 474 2432 198 
Q 2106 -77 1536 -77 
z
" transform="scale(0.015625)"/>
       <path id="IBMPlexSans-Regular-6c" d="M 1088 0 
Q 819 0 681 150 
Q 544 301 544 531 
L 544 4736 
L 1056 4736 
L 1056 448 
L 1542 448 
L 1542 0 
L 1088 0 
z
" transform="scale(0.015625)"/>
       <path id="IBMPlexSans-Regular-64" d="M 2656 538 
L 2630 538 
Q 2330 -77 1664 -77 
Q 1357 -77 1107 44 
Q 858 166 682 390 
Q 506 614 413 934 
Q 320 1254 320 1651 
Q 320 2048 413 2368 
Q 506 2688 682 2912 
Q 858 3136 1107 3257 
Q 1357 3379 1664 3379 
Q 2010 3379 2256 3228 
Q 2502 3078 2630 2765 
L 2656 2765 
L 2656 4736 
L 3168 4736 
L 3168 0 
L 2656 0 
L 2656 538 
z
M 1805 384 
Q 1978 384 2134 429 
Q 2291 474 2406 560 
Q 2522 646 2589 771 
Q 2656 896 2656 1056 
L 2656 2285 
Q 2656 2419 2589 2537 
Q 2522 2656 2406 2739 
Q 2291 2822 2134 2870 
Q 1978 2918 1805 2918 
Q 1370 2918 1120 2646 
Q 870 2374 870 1933 
L 870 1370 
Q 870 928 1120 656 
Q 1370 384 1805 384 
z
" transform="scale(0.015625)"/>
       <path id="IBMPlexSans-Regular-66" d="M 723 2854 
L 186 2854 
L 186 3302 
L 723 3302 
L 723 3968 
Q 723 4314 902 4525 
Q 1082 4736 1446 4736 
L 1946 4736 
L 1946 4288 
L 1235 4288 
L 1235 3302 
L 1946 3302 
L 1946 2854 
L 1235 2854 
L 1235 0 
L 723 0 
L 723 2854 
z
" transform="scale(0.015625)"/>
      </defs>
      <use xlink:href="#IBMPlexSans-Regular-73"/>
      <use xlink:href="#IBMPlexSans-Regular-6c" transform="translate(48.699997 0)"/>
      <use xlink:href="#IBMPlexSans-Regular-64" transform="translate(75.899994 0)"/>
      <use xlink:href="#IBMPlexSans-Regular-66" transform="translate(133.899979 0)"/>
     </g>
    </g>
   </g>
   <g id="matplotlib.axis_18"/>
   <g id="line2d_9">
    <path d="M 7.2 131.94 
L 216.45 131.94 
" style="fill: none; stroke: #21918c; stroke-opacity: 0.9; stroke-linecap: round"/>
   </g>
   <g id="text_14">
    <!-- 8 -->
    <g style="fill: #21918c" transform="translate(7.2 131.022) scale(0.12 -0.12)">
     <defs>
      <path id="IBMPlexSans-Bold-38" d="M 1920 -77 
Q 1523 -77 1212 22 
Q 902 122 691 294 
Q 480 467 368 704 
Q 256 941 256 1222 
Q 256 1651 493 1923 
Q 730 2195 1133 2304 
L 1133 2355 
Q 806 2477 598 2726 
Q 390 2976 390 3366 
Q 390 3622 489 3840 
Q 589 4058 784 4214 
Q 979 4371 1264 4457 
Q 1549 4544 1920 4544 
Q 2291 4544 2576 4457 
Q 2861 4371 3056 4214 
Q 3251 4058 3350 3840 
Q 3450 3622 3450 3366 
Q 3450 2976 3242 2726 
Q 3034 2477 2707 2355 
L 2707 2304 
Q 3110 2195 3347 1923 
Q 3584 1651 3584 1222 
Q 3584 941 3472 704 
Q 3360 467 3149 294 
Q 2938 122 2627 22 
Q 2317 -77 1920 -77 
z
M 1920 659 
Q 2240 659 2409 809 
Q 2579 960 2579 1229 
L 2579 1357 
Q 2579 1626 2409 1776 
Q 2240 1926 1920 1926 
Q 1600 1926 1430 1776 
Q 1261 1626 1261 1357 
L 1261 1229 
Q 1261 960 1430 809 
Q 1600 659 1920 659 
z
M 1920 2630 
Q 2227 2630 2387 2774 
Q 2547 2918 2547 3168 
L 2547 3270 
Q 2547 3520 2387 3664 
Q 2227 3808 1920 3808 
Q 1613 3808 1453 3664 
Q 1293 3520 1293 3270 
L 1293 3168 
Q 1293 2918 1453 2774 
Q 1613 2630 1920 2630 
z
" transform="scale(0.015625)"/>
     </defs>
     <use xlink:href="#IBMPlexSans-Bold-38"/>
    </g>
   </g>
  </g>
 </g>
</svg>
