<?xml version="1.0" encoding="utf-8" standalone="no"?>
<!DOCTYPE svg PUBLIC "-//W3C//DTD SVG 1.1//EN"
  "http://www.w3.org/Graphics/SVG/1.1/DTD/svg11.dtd">
<svg xmlns:xlink="http://www.w3.org/1999/xlink" width="223.65pt" height="174.26pt" viewBox="0 0 223.65 174.26" xmlns="http://www.w3.org/2000/svg" version="1.1">
 <metadata>
  <rdf:RDF xmlns:dc="http://purl.org/dc/elements/1.1/" xmlns:cc="http://creativecommons.org/ns#" xmlns:rdf="http://www.w3.org/1999/02/22-rdf-syntax-ns#">
   <cc:Work>
    <dc:type rdf:resource="http://purl.org/dc/dcmitype/StillImage"/>
    <dc:date>2025-07-24T14:18:15.712697</dc:date>
    <dc:format>image/svg+xml</dc:format>
    <dc:creator>
     <cc:Agent>
      <dc:title>Matplotlib v3.10.1, https://matplotlib.org/</dc:title>
     </cc:Agent>
    </dc:creator>
   </cc:Work>
  </rdf:RDF>
 </metadata>
 <defs>
  <style type="text/css">*{stroke-linejoin: round; stroke-linecap: butt}</style>
 </defs>
 <g id="figure_1">
  <g id="patch_1">
   <path d="M 0 174.26 
L 223.65 174.26 
L 223.65 0 
L 0 0 
L 0 174.26 
z
" style="fill: none"/>
  </g>
  <g id="axes_1">
   <g id="patch_2">
    <path d="M 7.2 48.78 
L 216.45 48.78 
L 216.45 7.2 
L 7.2 7.2 
L 7.2 48.78 
z
" style="fill: none"/>
   </g>
   <g id="matplotlib.axis_1">
    <g id="xtick_1"/>
    <g id="xtick_2"/>
    <g id="xtick_3"/>
    <g id="xtick_4"/>
    <g id="xtick_5"/>
   </g>
   <g id="matplotlib.axis_2"/>
   <g id="line2d_1">
    <path d="M 7.2 48.78 
L 216.45 48.78 
" style="fill: none; stroke: #482475; stroke-opacity: 0.9; stroke-linecap: round"/>
   </g>
   <g id="text_1">
    <!-- 0 -->
    <g style="fill: #482475" transform="translate(7.2 47.862) scale(0.12 -0.12)">
     <defs>
      <path id="IBMPlexSans-Bold-30" d="M 1920 -77 
Q 1043 -77 620 531 
Q 198 1139 198 2234 
Q 198 3328 620 3936 
Q 1043 4544 1920 4544 
Q 2797 4544 3219 3936 
Q 3642 3328 3642 2234 
Q 3642 1139 3219 531 
Q 2797 -77 1920 -77 
z
M 1920 736 
Q 2304 736 2451 1017 
Q 2598 1299 2598 1811 
L 2598 2656 
Q 2598 3168 2451 3449 
Q 2304 3731 1920 3731 
Q 1536 3731 1389 3449 
Q 1242 3168 1242 2656 
L 1242 1811 
Q 1242 1299 1389 1017 
Q 1536 736 1920 736 
z
" transform="scale(0.015625)"/>
     </defs>
     <use xlink:href="#IBMPlexSans-Bold-30"/>
    </g>
   </g>
  </g>
  <g id="axes_2">
   <g id="patch_3">
    <path d="M 7.2 59.175 
L 216.45 59.175 
L 216.45 17.595 
L 7.2 17.595 
L 7.2 59.175 
z
" style="fill: none"/>
   </g>
   <g id="matplotlib.axis_3">
    <g id="xtick_6"/>
    <g id="xtick_7"/>
    <g id="xtick_8"/>
    <g id="xtick_9"/>
    <g id="xtick_10"/>
   </g>
   <g id="matplotlib.axis_4"/>
   <g id="line2d_2">
    <path d="M 7.2 59.175 
L 216.45 59.175 
" style="fill: none; stroke: #482475; stroke-opacity: 0.9; stroke-linecap: round"/>
   </g>
   <g id="text_2">
    <!-- 1 -->
    <g style="fill: #482475" transform="translate(7.2 58.257) scale(0.12 -0.12)">
     <defs>
      <path id="IBMPlexSans-Bold-31" d="M 602 0 
L 602 774 
L 1805 774 
L 1805 3770 
L 1747 3770 
L 838 2579 
L 224 3059 
L 1293 4467 
L 2765 4467 
L 2765 774 
L 3712 774 
L 3712 0 
L 602 0 
z
" transform="scale(0.015625)"/>
     </defs>
     <use xlink:href="#IBMPlexSans-Bold-31"/>
    </g>
   </g>
  </g>
  <g id="axes_3">
   <g id="patch_4">
    <path d="M 7.2 69.57 
L 216.45 69.57 
L 216.45 27.99 
L 7.2 27.99 
L 7.2 69.57 
z
" style="fill: none"/>
   </g>
   <g id="matplotlib.axis_5">
    <g id="xtick_11"/>
    <g id="xtick_12"/>
    <g id="xtick_13"/>
    <g id="xtick_14"/>
    <g id="xtick_15"/>
   </g>
   <g id="matplotlib.axis_6"/>
   <g id="line2d_3">
    <path d="M 7.2 69.57 
L 216.45 69.57 
" style="fill: none; stroke: #482475; stroke-opacity: 0.9; stroke-linecap: round"/>
   </g>
   <g id="text_3">
    <!-- 2 -->
    <g style="fill: #482475" transform="translate(7.2 68.652) scale(0.12 -0.12)">
     <defs>
      <path id="IBMPlexSans-Bold-32" d="M 3526 0 
L 365 0 
L 365 877 
L 1741 2054 
Q 1926 2214 2054 2345 
Q 2182 2477 2262 2601 
Q 2342 2726 2377 2848 
Q 2413 2970 2413 3110 
L 2413 3200 
Q 2413 3328 2361 3424 
Q 2310 3520 2227 3584 
Q 2144 3648 2038 3680 
Q 1933 3712 1824 3712 
Q 1664 3712 1545 3661 
Q 1427 3610 1340 3523 
Q 1254 3437 1196 3325 
Q 1139 3213 1107 3085 
L 269 3405 
Q 346 3635 480 3843 
Q 614 4051 816 4208 
Q 1018 4365 1293 4454 
Q 1568 4544 1914 4544 
Q 2278 4544 2560 4441 
Q 2842 4339 3037 4160 
Q 3232 3981 3334 3734 
Q 3437 3488 3437 3200 
Q 3437 2912 3341 2675 
Q 3245 2438 3081 2230 
Q 2918 2022 2700 1836 
Q 2483 1651 2246 1459 
L 1414 806 
L 3526 806 
L 3526 0 
z
" transform="scale(0.015625)"/>
     </defs>
     <use xlink:href="#IBMPlexSans-Bold-32"/>
    </g>
   </g>
  </g>
  <g id="axes_4">
   <g id="patch_5">
    <path d="M 7.2 79.965 
L 216.45 79.965 
L 216.45 38.385 
L 7.2 38.385 
L 7.2 79.965 
z
" style="fill: none"/>
   </g>
   <g id="matplotlib.axis_7">
    <g id="xtick_16"/>
    <g id="xtick_17"/>
    <g id="xtick_18"/>
    <g id="xtick_19"/>
    <g id="xtick_20"/>
   </g>
   <g id="matplotlib.axis_8"/>
   <g id="line2d_4">
    <path d="M 7.2 79.965 
L 216.45 79.965 
" style="fill: none; stroke: #482475; stroke-opacity: 0.9; stroke-linecap: round"/>
   </g>
   <g id="text_4">
    <!-- 3 -->
    <g style="fill: #482475" transform="translate(7.2 79.047) scale(0.12 -0.12)">
     <defs>
      <path id="IBMPlexSans-Bold-33" d="M 1677 2701 
Q 2035 2701 2198 2838 
Q 2362 2976 2362 3181 
L 2362 3226 
Q 2362 3469 2205 3616 
Q 2048 3763 1760 3763 
Q 1491 3763 1254 3625 
Q 1018 3488 851 3232 
L 250 3795 
Q 378 3962 525 4099 
Q 672 4237 857 4336 
Q 1043 4435 1273 4489 
Q 1504 4544 1792 4544 
Q 2150 4544 2441 4461 
Q 2733 4378 2941 4221 
Q 3149 4064 3261 3846 
Q 3373 3629 3373 3360 
Q 3373 3149 3305 2976 
Q 3238 2803 3120 2675 
Q 3002 2547 2848 2467 
Q 2694 2387 2522 2355 
L 2522 2317 
Q 2720 2278 2889 2192 
Q 3059 2106 3184 1971 
Q 3309 1837 3379 1654 
Q 3450 1472 3450 1242 
Q 3450 941 3328 697 
Q 3206 454 2982 281 
Q 2758 109 2444 16 
Q 2131 -77 1754 -77 
Q 1414 -77 1152 -6 
Q 890 64 694 182 
Q 499 301 355 454 
Q 211 608 102 781 
L 813 1331 
Q 960 1056 1174 880 
Q 1389 704 1754 704 
Q 2080 704 2262 867 
Q 2445 1030 2445 1312 
L 2445 1350 
Q 2445 1626 2237 1763 
Q 2029 1901 1664 1901 
L 1261 1901 
L 1261 2701 
L 1677 2701 
z
" transform="scale(0.015625)"/>
     </defs>
     <use xlink:href="#IBMPlexSans-Bold-33"/>
    </g>
   </g>
  </g>
  <g id="axes_5">
   <g id="patch_6">
    <path d="M 7.2 90.36 
L 216.45 90.36 
L 216.45 48.78 
L 7.2 48.78 
L 7.2 90.36 
z
" style="fill: none"/>
   </g>
   <g id="matplotlib.axis_9">
    <g id="xtick_21"/>
    <g id="xtick_22"/>
    <g id="xtick_23"/>
    <g id="xtick_24"/>
    <g id="xtick_25"/>
   </g>
   <g id="matplotlib.axis_10"/>
   <g id="line2d_5">
    <path d="M 7.2 90.36 
L 216.45 90.36 
" style="fill: none; stroke: #482475; stroke-opacity: 0.9; stroke-linecap: round"/>
   </g>
   <g id="text_5">
    <!-- 4 -->
    <g style="fill: #482475" transform="translate(7.2 89.442) scale(0.12 -0.12)">
     <defs>
      <path id="IBMPlexSans-Bold-34" d="M 2157 0 
L 2157 858 
L 192 858 
L 192 1677 
L 1933 4467 
L 3072 4467 
L 3072 1600 
L 3635 1600 
L 3635 858 
L 3072 858 
L 3072 0 
L 2157 0 
z
M 960 1600 
L 2157 1600 
L 2157 3475 
L 2093 3475 
L 960 1600 
z
" transform="scale(0.015625)"/>
     </defs>
     <use xlink:href="#IBMPlexSans-Bold-34"/>
    </g>
   </g>
  </g>
  <g id="axes_6">
   <g id="patch_7">
    <path d="M 7.2 100.755 
L 216.45 100.755 
L 216.45 59.175 
L 7.2 59.175 
L 7.2 100.755 
z
" style="fill: none"/>
   </g>
   <g id="matplotlib.axis_11">
    <g id="xtick_26"/>
    <g id="xtick_27"/>
    <g id="xtick_28"/>
    <g id="xtick_29"/>
    <g id="xtick_30"/>
   </g>
   <g id="matplotlib.axis_12"/>
   <g id="FillBetweenPolyCollection_1">
    <defs>
     <path id="m8caa88778c" d="M 86.70887 -74.522192 
L 86.70887 -73.505 
L 86.950283 -73.505 
L 87.191696 -73.505 
L 87.433109 -73.505 
L 87.674522 -73.505 
L 87.915935 -73.505 
L 88.157349 -73.505 
L 88.398762 -73.505 
L 88.640175 -73.505 
L 88.881588 -73.505 
L 89.123001 -73.505 
L 89.364414 -73.505 
L 89.605827 -73.505 
L 89.84724 -73.505 
L 90.088653 -73.505 
L 90.330066 -73.505 
L 90.571479 -73.505 
L 90.812892 -73.505 
L 91.054305 -73.505 
L 91.295718 -73.505 
L 91.537132 -73.505 
L 91.778545 -73.505 
L 92.019958 -73.505 
L 92.261371 -73.505 
L 92.502784 -73.505 
L 92.744197 -73.505 
L 92.98561 -73.505 
L 93.227023 -73.505 
L 93.468436 -73.505 
L 93.709849 -73.505 
L 93.951262 -73.505 
L 94.192675 -73.505 
L 94.434088 -73.505 
L 94.675501 -73.505 
L 94.916914 -73.505 
L 95.158328 -73.505 
L 95.399741 -73.505 
L 95.641154 -73.505 
L 95.882567 -73.505 
L 96.12398 -73.505 
L 96.365393 -73.505 
L 96.606806 -73.505 
L 96.848219 -73.505 
L 97.089632 -73.505 
L 97.331045 -73.505 
L 97.572458 -73.505 
L 97.813871 -73.505 
L 98.055284 -73.505 
L 98.296697 -73.505 
L 98.53811 -73.505 
L 98.779524 -73.505 
L 99.020937 -73.505 
L 99.26235 -73.505 
L 99.503763 -73.505 
L 99.745176 -73.505 
L 99.986589 -73.505 
L 100.228002 -73.505 
L 100.469415 -73.505 
L 100.710828 -73.505 
L 100.952241 -73.505 
L 101.193654 -73.505 
L 101.435067 -73.505 
L 101.67648 -73.505 
L 101.917893 -73.505 
L 102.159307 -73.505 
L 102.40072 -73.505 
L 102.642133 -73.505 
L 102.883546 -73.505 
L 103.124959 -73.505 
L 103.366372 -73.505 
L 103.607785 -73.505 
L 103.849198 -73.505 
L 104.090611 -73.505 
L 104.332024 -73.505 
L 104.573437 -73.505 
L 104.81485 -73.505 
L 105.056263 -73.505 
L 105.297676 -73.505 
L 105.539089 -73.505 
L 105.780503 -73.505 
L 106.021916 -73.505 
L 106.263329 -73.505 
L 106.504742 -73.505 
L 106.746155 -73.505 
L 106.987568 -73.505 
L 107.228981 -73.505 
L 107.470394 -73.505 
L 107.711807 -73.505 
L 107.95322 -73.505 
L 108.194633 -73.505 
L 108.436046 -73.505 
L 108.677459 -73.505 
L 108.918872 -73.505 
L 109.160286 -73.505 
L 109.401699 -73.505 
L 109.643112 -73.505 
L 109.884525 -73.505 
L 110.125938 -73.505 
L 110.367351 -73.505 
L 110.608764 -73.505 
L 110.850177 -73.505 
L 111.09159 -73.505 
L 111.333003 -73.505 
L 111.574416 -73.505 
L 111.815829 -73.505 
L 112.057242 -73.505 
L 112.298655 -73.505 
L 112.540068 -73.505 
L 112.781482 -73.505 
L 113.022895 -73.505 
L 113.264308 -73.505 
L 113.505721 -73.505 
L 113.747134 -73.505 
L 113.988547 -73.505 
L 114.22996 -73.505 
L 114.471373 -73.505 
L 114.712786 -73.505 
L 114.954199 -73.505 
L 115.195612 -73.505 
L 115.437025 -73.505 
L 115.678438 -73.505 
L 115.919851 -73.505 
L 116.161265 -73.505 
L 116.402678 -73.505 
L 116.644091 -73.505 
L 116.885504 -73.505 
L 117.126917 -73.505 
L 117.36833 -73.505 
L 117.609743 -73.505 
L 117.851156 -73.505 
L 118.092569 -73.505 
L 118.333982 -73.505 
L 118.575395 -73.505 
L 118.816808 -73.505 
L 119.058221 -73.505 
L 119.299634 -73.505 
L 119.541047 -73.505 
L 119.782461 -73.505 
L 120.023874 -73.505 
L 120.265287 -73.505 
L 120.5067 -73.505 
L 120.748113 -73.505 
L 120.989526 -73.505 
L 121.230939 -73.505 
L 121.472352 -73.505 
L 121.713765 -73.505 
L 121.955178 -73.505 
L 122.196591 -73.505 
L 122.438004 -73.505 
L 122.679417 -73.505 
L 122.92083 -73.505 
L 123.162243 -73.505 
L 123.403657 -73.505 
L 123.64507 -73.505 
L 123.886483 -73.505 
L 124.127896 -73.505 
L 124.369309 -73.505 
L 124.610722 -73.505 
L 124.852135 -73.505 
L 125.093548 -73.505 
L 125.334961 -73.505 
L 125.576374 -73.505 
L 125.817787 -73.505 
L 126.0592 -73.505 
L 126.300613 -73.505 
L 126.542026 -73.505 
L 126.78344 -73.505 
L 127.024853 -73.505 
L 127.266266 -73.505 
L 127.507679 -73.505 
L 127.749092 -73.505 
L 127.990505 -73.505 
L 128.231918 -73.505 
L 128.473331 -73.505 
L 128.714744 -73.505 
L 128.956157 -73.505 
L 129.19757 -73.505 
L 129.438983 -73.505 
L 129.680396 -73.505 
L 129.921809 -73.505 
L 130.163222 -73.505 
L 130.404636 -73.505 
L 130.646049 -73.505 
L 130.887462 -73.505 
L 131.128875 -73.505 
L 131.370288 -73.505 
L 131.611701 -73.505 
L 131.853114 -73.505 
L 132.094527 -73.505 
L 132.33594 -73.505 
L 132.577353 -73.505 
L 132.818766 -73.505 
L 133.060179 -73.505 
L 133.301592 -73.505 
L 133.543005 -73.505 
L 133.784419 -73.505 
L 134.025832 -73.505 
L 134.267245 -73.505 
L 134.508658 -73.505 
L 134.750071 -73.505 
L 134.750071 -74.228007 
L 134.750071 -74.228007 
L 134.508658 -74.320963 
L 134.267245 -74.421833 
L 134.025832 -74.530753 
L 133.784419 -74.647795 
L 133.543005 -74.772966 
L 133.301592 -74.906203 
L 133.060179 -75.047375 
L 132.818766 -75.196281 
L 132.577353 -75.352653 
L 132.33594 -75.516159 
L 132.094527 -75.686408 
L 131.853114 -75.862959 
L 131.611701 -76.045324 
L 131.370288 -76.232983 
L 131.128875 -76.425391 
L 130.887462 -76.621993 
L 130.646049 -76.822227 
L 130.404636 -77.025546 
L 130.163222 -77.231416 
L 129.921809 -77.439336 
L 129.680396 -77.648833 
L 129.438983 -77.859477 
L 129.19757 -78.070875 
L 128.956157 -78.282674 
L 128.714744 -78.494556 
L 128.473331 -78.706231 
L 128.231918 -78.91743 
L 127.990505 -79.127895 
L 127.749092 -79.337368 
L 127.507679 -79.545583 
L 127.266266 -79.752251 
L 127.024853 -79.95706 
L 126.78344 -80.159667 
L 126.542026 -80.359698 
L 126.300613 -80.556751 
L 126.0592 -80.750405 
L 125.817787 -80.940233 
L 125.576374 -81.125816 
L 125.334961 -81.306767 
L 125.093548 -81.482749 
L 124.852135 -81.653507 
L 124.610722 -81.818885 
L 124.369309 -81.978858 
L 124.127896 -82.133552 
L 123.886483 -82.28326 
L 123.64507 -82.428463 
L 123.403657 -82.569839 
L 123.162243 -82.708263 
L 122.92083 -82.844813 
L 122.679417 -82.980755 
L 122.438004 -83.117535 
L 122.196591 -83.256758 
L 121.955178 -83.400165 
L 121.713765 -83.549606 
L 121.472352 -83.707008 
L 121.230939 -83.874345 
L 120.989526 -84.053607 
L 120.748113 -84.246764 
L 120.5067 -84.455735 
L 120.265287 -84.68236 
L 120.023874 -84.928374 
L 119.782461 -85.195376 
L 119.541047 -85.484816 
L 119.299634 -85.79797 
L 119.058221 -86.135926 
L 118.816808 -86.499573 
L 118.575395 -86.88959 
L 118.333982 -87.306435 
L 118.092569 -87.750345 
L 117.851156 -88.221327 
L 117.609743 -88.719155 
L 117.36833 -89.243372 
L 117.126917 -89.793289 
L 116.885504 -90.367983 
L 116.644091 -90.966305 
L 116.402678 -91.586882 
L 116.161265 -92.228126 
L 115.919851 -92.888245 
L 115.678438 -93.565258 
L 115.437025 -94.257011 
L 115.195612 -94.961203 
L 114.954199 -95.675409 
L 114.712786 -96.397119 
L 114.471373 -97.123765 
L 114.22996 -97.852771 
L 113.988547 -98.581589 
L 113.747134 -99.30775 
L 113.505721 -100.028904 
L 113.264308 -100.742867 
L 113.022895 -101.447659 
L 112.781482 -102.141538 
L 112.540068 -102.823025 
L 112.298655 -103.490916 
L 112.057242 -104.144285 
L 111.815829 -104.782467 
L 111.574416 -105.405033 
L 111.333003 -106.011741 
L 111.09159 -106.60248 
L 110.850177 -107.177192 
L 110.608764 -107.735789 
L 110.367351 -108.278064 
L 110.125938 -108.803589 
L 109.884525 -109.311625 
L 109.643112 -109.801031 
L 109.401699 -110.270188 
L 109.160286 -110.716942 
L 108.918872 -111.138562 
L 108.677459 -111.531727 
L 108.436046 -111.892545 
L 108.194633 -112.216593 
L 107.95322 -112.498994 
L 107.711807 -112.734514 
L 107.470394 -112.917698 
L 107.228981 -113.04301 
L 106.987568 -113.105 
L 106.746155 -113.098478 
L 106.504742 -113.018688 
L 106.263329 -112.861478 
L 106.021916 -112.623461 
L 105.780503 -112.302155 
L 105.539089 -111.896099 
L 105.297676 -111.404938 
L 105.056263 -110.829486 
L 104.81485 -110.171742 
L 104.573437 -109.434876 
L 104.332024 -108.623185 
L 104.090611 -107.742013 
L 103.849198 -106.797639 
L 103.607785 -105.79715 
L 103.366372 -104.748284 
L 103.124959 -103.659264 
L 102.883546 -102.538627 
L 102.642133 -101.395043 
L 102.40072 -100.237142 
L 102.159307 -99.07335 
L 101.917893 -97.911734 
L 101.67648 -96.759869 
L 101.435067 -95.624721 
L 101.193654 -94.512557 
L 100.952241 -93.428874 
L 100.710828 -92.378359 
L 100.469415 -91.364867 
L 100.228002 -90.391431 
L 99.986589 -89.460282 
L 99.745176 -88.5729 
L 99.503763 -87.730076 
L 99.26235 -86.931985 
L 99.020937 -86.178271 
L 98.779524 -85.46814 
L 98.53811 -84.800447 
L 98.296697 -84.173788 
L 98.055284 -83.586585 
L 97.813871 -83.037162 
L 97.572458 -82.523808 
L 97.331045 -82.044836 
L 97.089632 -81.598616 
L 96.848219 -81.183607 
L 96.606806 -80.798368 
L 96.365393 -80.441554 
L 96.12398 -80.111912 
L 95.882567 -79.808255 
L 95.641154 -79.529435 
L 95.399741 -79.274314 
L 95.158328 -79.04173 
L 94.916914 -78.830465 
L 94.675501 -78.639216 
L 94.434088 -78.466573 
L 94.192675 -78.311003 
L 93.951262 -78.170847 
L 93.709849 -78.044321 
L 93.468436 -77.929528 
L 93.227023 -77.824486 
L 92.98561 -77.727153 
L 92.744197 -77.635468 
L 92.502784 -77.547393 
L 92.261371 -77.460961 
L 92.019958 -77.374318 
L 91.778545 -77.285771 
L 91.537132 -77.193832 
L 91.295718 -77.097245 
L 91.054305 -76.995022 
L 90.812892 -76.886458 
L 90.571479 -76.771143 
L 90.330066 -76.648959 
L 90.088653 -76.520073 
L 89.84724 -76.384919 
L 89.605827 -76.244168 
L 89.364414 -76.098697 
L 89.123001 -75.949551 
L 88.881588 -75.797899 
L 88.640175 -75.644993 
L 88.398762 -75.492123 
L 88.157349 -75.340577 
L 87.915935 -75.191601 
L 87.674522 -75.046366 
L 87.433109 -74.905939 
L 87.191696 -74.771262 
L 86.950283 -74.643131 
L 86.70887 -74.522192 
z
" style="stroke: #414487; stroke-width: 1.25"/>
    </defs>
    <g>
     <use xlink:href="#m8caa88778c" x="0" y="174.26" style="fill: #414487; fill-opacity: 0.7; stroke: #414487; stroke-width: 1.25"/>
    </g>
   </g>
   <g id="line2d_6">
    <path d="M 7.2 100.755 
L 216.45 100.755 
" style="fill: none; stroke: #414487; stroke-opacity: 0.9; stroke-linecap: round"/>
   </g>
   <g id="text_6">
    <!-- 5 -->
    <g style="fill: #414487" transform="translate(7.2 99.837) scale(0.12 -0.12)">
     <defs>
      <path id="IBMPlexSans-Bold-35" d="M 3341 3629 
L 1312 3629 
L 1216 2214 
L 1267 2214 
Q 1331 2374 1411 2505 
Q 1491 2637 1600 2729 
Q 1709 2822 1862 2873 
Q 2016 2925 2227 2925 
Q 2515 2925 2764 2829 
Q 3014 2733 3200 2550 
Q 3386 2368 3494 2102 
Q 3603 1837 3603 1504 
Q 3603 1165 3491 873 
Q 3379 582 3158 371 
Q 2938 160 2618 41 
Q 2298 -77 1888 -77 
Q 1562 -77 1312 -6 
Q 1062 64 870 182 
Q 678 301 537 454 
Q 397 608 294 781 
L 992 1331 
Q 1139 1069 1344 886 
Q 1549 704 1894 704 
Q 2240 704 2416 902 
Q 2592 1101 2592 1427 
L 2592 1478 
Q 2592 1786 2413 1965 
Q 2234 2144 1920 2144 
Q 1658 2144 1488 2038 
Q 1318 1933 1229 1830 
L 442 1939 
L 608 4467 
L 3341 4467 
L 3341 3629 
z
" transform="scale(0.015625)"/>
     </defs>
     <use xlink:href="#IBMPlexSans-Bold-35"/>
    </g>
   </g>
  </g>
  <g id="axes_7">
   <g id="patch_8">
    <path d="M 7.2 111.15 
L 216.45 111.15 
L 216.45 69.57 
L 7.2 69.57 
L 7.2 111.15 
z
" style="fill: none"/>
   </g>
   <g id="matplotlib.axis_13">
    <g id="xtick_31"/>
    <g id="xtick_32"/>
    <g id="xtick_33"/>
    <g id="xtick_34"/>
    <g id="xtick_35"/>
   </g>
   <g id="matplotlib.axis_14"/>
   <g id="FillBetweenPolyCollection_2">
    <defs>
     <path id="m381103fd05" d="M 63.039486 -63.536779 
L 63.039486 -63.11 
L 63.521621 -63.11 
L 64.003756 -63.11 
L 64.485891 -63.11 
L 64.968025 -63.11 
L 65.45016 -63.11 
L 65.932295 -63.11 
L 66.41443 -63.11 
L 66.896565 -63.11 
L 67.3787 -63.11 
L 67.860835 -63.11 
L 68.34297 -63.11 
L 68.825105 -63.11 
L 69.30724 -63.11 
L 69.789375 -63.11 
L 70.27151 -63.11 
L 70.753644 -63.11 
L 71.235779 -63.11 
L 71.717914 -63.11 
L 72.200049 -63.11 
L 72.682184 -63.11 
L 73.164319 -63.11 
L 73.646454 -63.11 
L 74.128589 -63.11 
L 74.610724 -63.11 
L 75.092859 -63.11 
L 75.574994 -63.11 
L 76.057128 -63.11 
L 76.539263 -63.11 
L 77.021398 -63.11 
L 77.503533 -63.11 
L 77.985668 -63.11 
L 78.467803 -63.11 
L 78.949938 -63.11 
L 79.432073 -63.11 
L 79.914208 -63.11 
L 80.396343 -63.11 
L 80.878478 -63.11 
L 81.360613 -63.11 
L 81.842747 -63.11 
L 82.324882 -63.11 
L 82.807017 -63.11 
L 83.289152 -63.11 
L 83.771287 -63.11 
L 84.253422 -63.11 
L 84.735557 -63.11 
L 85.217692 -63.11 
L 85.699827 -63.11 
L 86.181962 -63.11 
L 86.664097 -63.11 
L 87.146231 -63.11 
L 87.628366 -63.11 
L 88.110501 -63.11 
L 88.592636 -63.11 
L 89.074771 -63.11 
L 89.556906 -63.11 
L 90.039041 -63.11 
L 90.521176 -63.11 
L 91.003311 -63.11 
L 91.485446 -63.11 
L 91.967581 -63.11 
L 92.449715 -63.11 
L 92.93185 -63.11 
L 93.413985 -63.11 
L 93.89612 -63.11 
L 94.378255 -63.11 
L 94.86039 -63.11 
L 95.342525 -63.11 
L 95.82466 -63.11 
L 96.306795 -63.11 
L 96.78893 -63.11 
L 97.271065 -63.11 
L 97.7532 -63.11 
L 98.235334 -63.11 
L 98.717469 -63.11 
L 99.199604 -63.11 
L 99.681739 -63.11 
L 100.163874 -63.11 
L 100.646009 -63.11 
L 101.128144 -63.11 
L 101.610279 -63.11 
L 102.092414 -63.11 
L 102.574549 -63.11 
L 103.056684 -63.11 
L 103.538818 -63.11 
L 104.020953 -63.11 
L 104.503088 -63.11 
L 104.985223 -63.11 
L 105.467358 -63.11 
L 105.949493 -63.11 
L 106.431628 -63.11 
L 106.913763 -63.11 
L 107.395898 -63.11 
L 107.878033 -63.11 
L 108.360168 -63.11 
L 108.842303 -63.11 
L 109.324437 -63.11 
L 109.806572 -63.11 
L 110.288707 -63.11 
L 110.770842 -63.11 
L 111.252977 -63.11 
L 111.735112 -63.11 
L 112.217247 -63.11 
L 112.699382 -63.11 
L 113.181517 -63.11 
L 113.663652 -63.11 
L 114.145787 -63.11 
L 114.627921 -63.11 
L 115.110056 -63.11 
L 115.592191 -63.11 
L 116.074326 -63.11 
L 116.556461 -63.11 
L 117.038596 -63.11 
L 117.520731 -63.11 
L 118.002866 -63.11 
L 118.485001 -63.11 
L 118.967136 -63.11 
L 119.449271 -63.11 
L 119.931406 -63.11 
L 120.41354 -63.11 
L 120.895675 -63.11 
L 121.37781 -63.11 
L 121.859945 -63.11 
L 122.34208 -63.11 
L 122.824215 -63.11 
L 123.30635 -63.11 
L 123.788485 -63.11 
L 124.27062 -63.11 
L 124.752755 -63.11 
L 125.23489 -63.11 
L 125.717024 -63.11 
L 126.199159 -63.11 
L 126.681294 -63.11 
L 127.163429 -63.11 
L 127.645564 -63.11 
L 128.127699 -63.11 
L 128.609834 -63.11 
L 129.091969 -63.11 
L 129.574104 -63.11 
L 130.056239 -63.11 
L 130.538374 -63.11 
L 131.020509 -63.11 
L 131.502643 -63.11 
L 131.984778 -63.11 
L 132.466913 -63.11 
L 132.949048 -63.11 
L 133.431183 -63.11 
L 133.913318 -63.11 
L 134.395453 -63.11 
L 134.877588 -63.11 
L 135.359723 -63.11 
L 135.841858 -63.11 
L 136.323993 -63.11 
L 136.806127 -63.11 
L 137.288262 -63.11 
L 137.770397 -63.11 
L 138.252532 -63.11 
L 138.734667 -63.11 
L 139.216802 -63.11 
L 139.698937 -63.11 
L 140.181072 -63.11 
L 140.663207 -63.11 
L 141.145342 -63.11 
L 141.627477 -63.11 
L 142.109612 -63.11 
L 142.591746 -63.11 
L 143.073881 -63.11 
L 143.556016 -63.11 
L 144.038151 -63.11 
L 144.520286 -63.11 
L 145.002421 -63.11 
L 145.484556 -63.11 
L 145.966691 -63.11 
L 146.448826 -63.11 
L 146.930961 -63.11 
L 147.413096 -63.11 
L 147.89523 -63.11 
L 148.377365 -63.11 
L 148.8595 -63.11 
L 149.341635 -63.11 
L 149.82377 -63.11 
L 150.305905 -63.11 
L 150.78804 -63.11 
L 151.270175 -63.11 
L 151.75231 -63.11 
L 152.234445 -63.11 
L 152.71658 -63.11 
L 153.198715 -63.11 
L 153.680849 -63.11 
L 154.162984 -63.11 
L 154.645119 -63.11 
L 155.127254 -63.11 
L 155.609389 -63.11 
L 156.091524 -63.11 
L 156.573659 -63.11 
L 157.055794 -63.11 
L 157.537929 -63.11 
L 158.020064 -63.11 
L 158.502199 -63.11 
L 158.984333 -63.11 
L 158.984333 -63.529884 
L 158.984333 -63.529884 
L 158.502199 -63.583188 
L 158.020064 -63.640763 
L 157.537929 -63.702617 
L 157.055794 -63.768719 
L 156.573659 -63.839 
L 156.091524 -63.913352 
L 155.609389 -63.991631 
L 155.127254 -64.073662 
L 154.645119 -64.159239 
L 154.162984 -64.248136 
L 153.680849 -64.340105 
L 153.198715 -64.434887 
L 152.71658 -64.532216 
L 152.234445 -64.631826 
L 151.75231 -64.733452 
L 151.270175 -64.836841 
L 150.78804 -64.941748 
L 150.305905 -65.047946 
L 149.82377 -65.155222 
L 149.341635 -65.263379 
L 148.8595 -65.372232 
L 148.377365 -65.48161 
L 147.89523 -65.591348 
L 147.413096 -65.701286 
L 146.930961 -65.811263 
L 146.448826 -65.921112 
L 145.966691 -66.030653 
L 145.484556 -66.139697 
L 145.002421 -66.248035 
L 144.520286 -66.355443 
L 144.038151 -66.461679 
L 143.556016 -66.566489 
L 143.073881 -66.669611 
L 142.591746 -66.770779 
L 142.109612 -66.869736 
L 141.627477 -66.966242 
L 141.145342 -67.060085 
L 140.663207 -67.151096 
L 140.181072 -67.239156 
L 139.698937 -67.324211 
L 139.216802 -67.406285 
L 138.734667 -67.485482 
L 138.252532 -67.562001 
L 137.770397 -67.636134 
L 137.288262 -67.708273 
L 136.806127 -67.778903 
L 136.323993 -67.848606 
L 135.841858 -67.918049 
L 135.359723 -67.987975 
L 134.877588 -68.059197 
L 134.395453 -68.13258 
L 133.913318 -68.209031 
L 133.431183 -68.289483 
L 132.949048 -68.37488 
L 132.466913 -68.466166 
L 131.984778 -68.564265 
L 131.502643 -68.670075 
L 131.020509 -68.784453 
L 130.538374 -68.908203 
L 130.056239 -69.04207 
L 129.574104 -69.186728 
L 129.091969 -69.342776 
L 128.609834 -69.510728 
L 128.127699 -69.691012 
L 127.645564 -69.883957 
L 127.163429 -70.089798 
L 126.681294 -70.308662 
L 126.199159 -70.540571 
L 125.717024 -70.785435 
L 125.23489 -71.043051 
L 124.752755 -71.313099 
L 124.27062 -71.595146 
L 123.788485 -71.888642 
L 123.30635 -72.192927 
L 122.824215 -72.507236 
L 122.34208 -72.830704 
L 121.859945 -73.16238 
L 121.37781 -73.501234 
L 120.895675 -73.846179 
L 120.41354 -74.196081 
L 119.931406 -74.549785 
L 119.449271 -74.906127 
L 118.967136 -75.263959 
L 118.485001 -75.622169 
L 118.002866 -75.979699 
L 117.520731 -76.335561 
L 117.038596 -76.688855 
L 116.556461 -77.038775 
L 116.074326 -77.384622 
L 115.592191 -77.725799 
L 115.110056 -78.061811 
L 114.627921 -78.392256 
L 114.145787 -78.716806 
L 113.663652 -79.03519 
L 113.181517 -79.347165 
L 112.699382 -79.652488 
L 112.217247 -79.950878 
L 111.735112 -80.241983 
L 111.252977 -80.525342 
L 110.770842 -80.800351 
L 110.288707 -81.06623 
L 109.806572 -81.321991 
L 109.324437 -81.566427 
L 108.842303 -81.79809 
L 108.360168 -82.015294 
L 107.878033 -82.216123 
L 107.395898 -82.398449 
L 106.913763 -82.559963 
L 106.431628 -82.698222 
L 105.949493 -82.810695 
L 105.467358 -82.894828 
L 104.985223 -82.948107 
L 104.503088 -82.968138 
L 104.020953 -82.95271 
L 103.538818 -82.899873 
L 103.056684 -82.808003 
L 102.574549 -82.675866 
L 102.092414 -82.502668 
L 101.610279 -82.288093 
L 101.128144 -82.032339 
L 100.646009 -81.736125 
L 100.163874 -81.400694 
L 99.681739 -81.027798 
L 99.199604 -80.619673 
L 98.717469 -80.178995 
L 98.235334 -79.70883 
L 97.7532 -79.212571 
L 97.271065 -78.693876 
L 96.78893 -78.156586 
L 96.306795 -77.604657 
L 95.82466 -77.042081 
L 95.342525 -76.472813 
L 94.86039 -75.900703 
L 94.378255 -75.329428 
L 93.89612 -74.762445 
L 93.413985 -74.202933 
L 92.93185 -73.653765 
L 92.449715 -73.117477 
L 91.967581 -72.59625 
L 91.485446 -72.091908 
L 91.003311 -71.605917 
L 90.521176 -71.139401 
L 90.039041 -70.693161 
L 89.556906 -70.267701 
L 89.074771 -69.863258 
L 88.592636 -69.479844 
L 88.110501 -69.117276 
L 87.628366 -68.775216 
L 87.146231 -68.453207 
L 86.664097 -68.150709 
L 86.181962 -67.867125 
L 85.699827 -67.601828 
L 85.217692 -67.35418 
L 84.735557 -67.123548 
L 84.253422 -66.909311 
L 83.771287 -66.710864 
L 83.289152 -66.527615 
L 82.807017 -66.358981 
L 82.324882 -66.204378 
L 81.842747 -66.06321 
L 81.360613 -65.934856 
L 80.878478 -65.81866 
L 80.396343 -65.713918 
L 79.914208 -65.619873 
L 79.432073 -65.535703 
L 78.949938 -65.460527 
L 78.467803 -65.393402 
L 77.985668 -65.33333 
L 77.503533 -65.279269 
L 77.021398 -65.230149 
L 76.539263 -65.184887 
L 76.057128 -65.142404 
L 75.574994 -65.101653 
L 75.092859 -65.061633 
L 74.610724 -65.021418 
L 74.128589 -64.980168 
L 73.646454 -64.937155 
L 73.164319 -64.891772 
L 72.682184 -64.843544 
L 72.200049 -64.792139 
L 71.717914 -64.737365 
L 71.235779 -64.679171 
L 70.753644 -64.61764 
L 70.27151 -64.552981 
L 69.789375 -64.485512 
L 69.30724 -64.415645 
L 68.825105 -64.343873 
L 68.34297 -64.270741 
L 67.860835 -64.196838 
L 67.3787 -64.122766 
L 66.896565 -64.049131 
L 66.41443 -63.976519 
L 65.932295 -63.905487 
L 65.45016 -63.836543 
L 64.968025 -63.770143 
L 64.485891 -63.706678 
L 64.003756 -63.646472 
L 63.521621 -63.589778 
L 63.039486 -63.536779 
z
" style="stroke: #355f8d; stroke-width: 1.25"/>
    </defs>
    <g>
     <use xlink:href="#m381103fd05" x="0" y="174.26" style="fill: #355f8d; fill-opacity: 0.7; stroke: #355f8d; stroke-width: 1.25"/>
    </g>
   </g>
   <g id="line2d_7">
    <path d="M 7.2 111.15 
L 216.45 111.15 
" style="fill: none; stroke: #355f8d; stroke-opacity: 0.9; stroke-linecap: round"/>
   </g>
   <g id="text_7">
    <!-- 6 -->
    <g style="fill: #355f8d" transform="translate(7.2 110.232) scale(0.12 -0.12)">
     <defs>
      <path id="IBMPlexSans-Bold-36" d="M 1946 -77 
Q 1549 -77 1235 48 
Q 922 173 707 406 
Q 493 640 381 966 
Q 269 1293 269 1696 
Q 269 2163 413 2582 
Q 557 3002 784 3357 
Q 1011 3712 1296 3993 
Q 1581 4275 1869 4467 
L 3194 4467 
Q 2784 4173 2457 3907 
Q 2131 3642 1891 3373 
Q 1651 3104 1494 2825 
Q 1338 2547 1274 2227 
L 1331 2208 
Q 1389 2336 1469 2457 
Q 1549 2579 1667 2672 
Q 1786 2765 1946 2822 
Q 2106 2880 2317 2880 
Q 2592 2880 2832 2781 
Q 3072 2682 3248 2502 
Q 3424 2323 3523 2064 
Q 3622 1805 3622 1491 
Q 3622 1146 3504 858 
Q 3386 570 3165 362 
Q 2944 154 2637 38 
Q 2330 -77 1946 -77 
z
M 1946 672 
Q 2266 672 2445 848 
Q 2624 1024 2624 1350 
L 2624 1466 
Q 2624 1792 2445 1968 
Q 2266 2144 1946 2144 
Q 1626 2144 1446 1968 
Q 1267 1792 1267 1466 
L 1267 1350 
Q 1267 1024 1446 848 
Q 1626 672 1946 672 
z
" transform="scale(0.015625)"/>
     </defs>
     <use xlink:href="#IBMPlexSans-Bold-36"/>
    </g>
   </g>
  </g>
  <g id="axes_8">
   <g id="patch_9">
    <path d="M 7.2 121.545 
L 216.45 121.545 
L 216.45 79.965 
L 7.2 79.965 
L 7.2 121.545 
z
" style="fill: none"/>
   </g>
   <g id="matplotlib.axis_15">
    <g id="xtick_36"/>
    <g id="xtick_37"/>
    <g id="xtick_38"/>
    <g id="xtick_39"/>
    <g id="xtick_40"/>
   </g>
   <g id="matplotlib.axis_16"/>
   <g id="FillBetweenPolyCollection_3">
    <defs>
     <path id="mc5e223fa44" d="M 39.248608 -52.974771 
L 39.248608 -52.715 
L 39.972702 -52.715 
L 40.696796 -52.715 
L 41.42089 -52.715 
L 42.144985 -52.715 
L 42.869079 -52.715 
L 43.593173 -52.715 
L 44.317268 -52.715 
L 45.041362 -52.715 
L 45.765456 -52.715 
L 46.48955 -52.715 
L 47.213645 -52.715 
L 47.937739 -52.715 
L 48.661833 -52.715 
L 49.385927 -52.715 
L 50.110022 -52.715 
L 50.834116 -52.715 
L 51.55821 -52.715 
L 52.282304 -52.715 
L 53.006399 -52.715 
L 53.730493 -52.715 
L 54.454587 -52.715 
L 55.178681 -52.715 
L 55.902776 -52.715 
L 56.62687 -52.715 
L 57.350964 -52.715 
L 58.075058 -52.715 
L 58.799153 -52.715 
L 59.523247 -52.715 
L 60.247341 -52.715 
L 60.971435 -52.715 
L 61.69553 -52.715 
L 62.419624 -52.715 
L 63.143718 -52.715 
L 63.867812 -52.715 
L 64.591907 -52.715 
L 65.316001 -52.715 
L 66.040095 -52.715 
L 66.764189 -52.715 
L 67.488284 -52.715 
L 68.212378 -52.715 
L 68.936472 -52.715 
L 69.660567 -52.715 
L 70.384661 -52.715 
L 71.108755 -52.715 
L 71.832849 -52.715 
L 72.556944 -52.715 
L 73.281038 -52.715 
L 74.005132 -52.715 
L 74.729226 -52.715 
L 75.453321 -52.715 
L 76.177415 -52.715 
L 76.901509 -52.715 
L 77.625603 -52.715 
L 78.349698 -52.715 
L 79.073792 -52.715 
L 79.797886 -52.715 
L 80.52198 -52.715 
L 81.246075 -52.715 
L 81.970169 -52.715 
L 82.694263 -52.715 
L 83.418357 -52.715 
L 84.142452 -52.715 
L 84.866546 -52.715 
L 85.59064 -52.715 
L 86.314734 -52.715 
L 87.038829 -52.715 
L 87.762923 -52.715 
L 88.487017 -52.715 
L 89.211111 -52.715 
L 89.935206 -52.715 
L 90.6593 -52.715 
L 91.383394 -52.715 
L 92.107489 -52.715 
L 92.831583 -52.715 
L 93.555677 -52.715 
L 94.279771 -52.715 
L 95.003866 -52.715 
L 95.72796 -52.715 
L 96.452054 -52.715 
L 97.176148 -52.715 
L 97.900243 -52.715 
L 98.624337 -52.715 
L 99.348431 -52.715 
L 100.072525 -52.715 
L 100.79662 -52.715 
L 101.520714 -52.715 
L 102.244808 -52.715 
L 102.968902 -52.715 
L 103.692997 -52.715 
L 104.417091 -52.715 
L 105.141185 -52.715 
L 105.865279 -52.715 
L 106.589374 -52.715 
L 107.313468 -52.715 
L 108.037562 -52.715 
L 108.761656 -52.715 
L 109.485751 -52.715 
L 110.209845 -52.715 
L 110.933939 -52.715 
L 111.658033 -52.715 
L 112.382128 -52.715 
L 113.106222 -52.715 
L 113.830316 -52.715 
L 114.55441 -52.715 
L 115.278505 -52.715 
L 116.002599 -52.715 
L 116.726693 -52.715 
L 117.450788 -52.715 
L 118.174882 -52.715 
L 118.898976 -52.715 
L 119.62307 -52.715 
L 120.347165 -52.715 
L 121.071259 -52.715 
L 121.795353 -52.715 
L 122.519447 -52.715 
L 123.243542 -52.715 
L 123.967636 -52.715 
L 124.69173 -52.715 
L 125.415824 -52.715 
L 126.139919 -52.715 
L 126.864013 -52.715 
L 127.588107 -52.715 
L 128.312201 -52.715 
L 129.036296 -52.715 
L 129.76039 -52.715 
L 130.484484 -52.715 
L 131.208578 -52.715 
L 131.932673 -52.715 
L 132.656767 -52.715 
L 133.380861 -52.715 
L 134.104955 -52.715 
L 134.82905 -52.715 
L 135.553144 -52.715 
L 136.277238 -52.715 
L 137.001332 -52.715 
L 137.725427 -52.715 
L 138.449521 -52.715 
L 139.173615 -52.715 
L 139.897709 -52.715 
L 140.621804 -52.715 
L 141.345898 -52.715 
L 142.069992 -52.715 
L 142.794087 -52.715 
L 143.518181 -52.715 
L 144.242275 -52.715 
L 144.966369 -52.715 
L 145.690464 -52.715 
L 146.414558 -52.715 
L 147.138652 -52.715 
L 147.862746 -52.715 
L 148.586841 -52.715 
L 149.310935 -52.715 
L 150.035029 -52.715 
L 150.759123 -52.715 
L 151.483218 -52.715 
L 152.207312 -52.715 
L 152.931406 -52.715 
L 153.6555 -52.715 
L 154.379595 -52.715 
L 155.103689 -52.715 
L 155.827783 -52.715 
L 156.551877 -52.715 
L 157.275972 -52.715 
L 158.000066 -52.715 
L 158.72416 -52.715 
L 159.448254 -52.715 
L 160.172349 -52.715 
L 160.896443 -52.715 
L 161.620537 -52.715 
L 162.344631 -52.715 
L 163.068726 -52.715 
L 163.79282 -52.715 
L 164.516914 -52.715 
L 165.241009 -52.715 
L 165.965103 -52.715 
L 166.689197 -52.715 
L 167.413291 -52.715 
L 168.137386 -52.715 
L 168.86148 -52.715 
L 169.585574 -52.715 
L 170.309668 -52.715 
L 171.033763 -52.715 
L 171.757857 -52.715 
L 172.481951 -52.715 
L 173.206045 -52.715 
L 173.93014 -52.715 
L 174.654234 -52.715 
L 175.378328 -52.715 
L 176.102422 -52.715 
L 176.826517 -52.715 
L 177.550611 -52.715 
L 178.274705 -52.715 
L 178.998799 -52.715 
L 179.722894 -52.715 
L 180.446988 -52.715 
L 181.171082 -52.715 
L 181.895176 -52.715 
L 182.619271 -52.715 
L 183.343365 -52.715 
L 183.343365 -53.0087 
L 183.343365 -53.0087 
L 182.619271 -53.045562 
L 181.895176 -53.085243 
L 181.171082 -53.127715 
L 180.446988 -53.172924 
L 179.722894 -53.220789 
L 178.998799 -53.271202 
L 178.274705 -53.324033 
L 177.550611 -53.379133 
L 176.826517 -53.436338 
L 176.102422 -53.495473 
L 175.378328 -53.556359 
L 174.654234 -53.618817 
L 173.93014 -53.68267 
L 173.206045 -53.747752 
L 172.481951 -53.813911 
L 171.757857 -53.881007 
L 171.033763 -53.948921 
L 170.309668 -54.017548 
L 169.585574 -54.086804 
L 168.86148 -54.156618 
L 168.137386 -54.226935 
L 167.413291 -54.297707 
L 166.689197 -54.368889 
L 165.965103 -54.44044 
L 165.241009 -54.512309 
L 164.516914 -54.584438 
L 163.79282 -54.656753 
L 163.068726 -54.729161 
L 162.344631 -54.801551 
L 161.620537 -54.873789 
L 160.896443 -54.945722 
L 160.172349 -55.017177 
L 159.448254 -55.087969 
L 158.72416 -55.157903 
L 158.000066 -55.226785 
L 157.275972 -55.294425 
L 156.551877 -55.36065 
L 155.827783 -55.425308 
L 155.103689 -55.488283 
L 154.379595 -55.5495 
L 153.6555 -55.608929 
L 152.931406 -55.6666 
L 152.207312 -55.722598 
L 151.483218 -55.777075 
L 150.759123 -55.830242 
L 150.035029 -55.882377 
L 149.310935 -55.933818 
L 148.586841 -55.984959 
L 147.862746 -56.036248 
L 147.138652 -56.088177 
L 146.414558 -56.141277 
L 145.690464 -56.19611 
L 144.966369 -56.25326 
L 144.242275 -56.313326 
L 143.518181 -56.376914 
L 142.794087 -56.444628 
L 142.069992 -56.517064 
L 141.345898 -56.594802 
L 140.621804 -56.6784 
L 139.897709 -56.768384 
L 139.173615 -56.865248 
L 138.449521 -56.969441 
L 137.725427 -57.081365 
L 137.001332 -57.201366 
L 136.277238 -57.329729 
L 135.553144 -57.46667 
L 134.82905 -57.612334 
L 134.104955 -57.766786 
L 133.380861 -57.930008 
L 132.656767 -58.101895 
L 131.932673 -58.282255 
L 131.208578 -58.470806 
L 130.484484 -58.667182 
L 129.76039 -58.87093 
L 129.036296 -59.081522 
L 128.312201 -59.298362 
L 127.588107 -59.520793 
L 126.864013 -59.748113 
L 126.139919 -59.979584 
L 125.415824 -60.214448 
L 124.69173 -60.451943 
L 123.967636 -60.691314 
L 123.243542 -60.93183 
L 122.519447 -61.172791 
L 121.795353 -61.413545 
L 121.071259 -61.653489 
L 120.347165 -61.892078 
L 119.62307 -62.128827 
L 118.898976 -62.363308 
L 118.174882 -62.595143 
L 117.450788 -62.824 
L 116.726693 -63.04958 
L 116.002599 -63.271602 
L 115.278505 -63.489786 
L 114.55441 -63.703835 
L 113.830316 -63.913415 
L 113.106222 -64.118136 
L 112.382128 -64.317532 
L 111.658033 -64.51104 
L 110.933939 -64.697989 
L 110.209845 -64.877584 
L 109.485751 -65.048897 
L 108.761656 -65.210867 
L 108.037562 -65.3623 
L 107.313468 -65.501877 
L 106.589374 -65.628171 
L 105.865279 -65.739664 
L 105.141185 -65.834779 
L 104.417091 -65.911907 
L 103.692997 -65.969448 
L 102.968902 -66.005849 
L 102.244808 -66.019646 
L 101.520714 -66.009509 
L 100.79662 -65.974281 
L 100.072525 -65.913021 
L 99.348431 -65.825032 
L 98.624337 -65.709899 
L 97.900243 -65.567505 
L 97.176148 -65.398052 
L 96.452054 -65.202062 
L 95.72796 -64.98038 
L 95.003866 -64.734163 
L 94.279771 -64.464862 
L 93.555677 -64.174197 
L 92.831583 -63.864127 
L 92.107489 -63.536807 
L 91.383394 -63.194556 
L 90.6593 -62.839806 
L 89.935206 -62.47506 
L 89.211111 -62.102848 
L 88.487017 -61.725681 
L 87.762923 -61.34601 
L 87.038829 -60.966189 
L 86.314734 -60.588442 
L 85.59064 -60.214835 
L 84.866546 -59.847252 
L 84.142452 -59.487377 
L 83.418357 -59.136688 
L 82.694263 -58.796447 
L 81.970169 -58.4677 
L 81.246075 -58.151288 
L 80.52198 -57.847852 
L 79.797886 -57.557847 
L 79.073792 -57.281562 
L 78.349698 -57.019136 
L 77.625603 -56.770581 
L 76.901509 -56.535798 
L 76.177415 -56.314604 
L 75.453321 -56.106744 
L 74.729226 -55.911914 
L 74.005132 -55.729772 
L 73.281038 -55.559951 
L 72.556944 -55.402069 
L 71.832849 -55.255731 
L 71.108755 -55.120538 
L 70.384661 -54.996082 
L 69.660567 -54.881946 
L 68.936472 -54.777698 
L 68.212378 -54.682891 
L 67.488284 -54.597052 
L 66.764189 -54.519678 
L 66.040095 -54.450233 
L 65.316001 -54.388145 
L 64.591907 -54.3328 
L 63.867812 -54.28355 
L 63.143718 -54.239709 
L 62.419624 -54.200564 
L 61.69553 -54.16538 
L 60.971435 -54.133409 
L 60.247341 -54.103906 
L 59.523247 -54.076138 
L 58.799153 -54.049398 
L 58.075058 -54.023021 
L 57.350964 -53.996396 
L 56.62687 -53.968976 
L 55.902776 -53.940293 
L 55.178681 -53.909961 
L 54.454587 -53.877687 
L 53.730493 -53.84327 
L 53.006399 -53.806602 
L 52.282304 -53.767668 
L 51.55821 -53.72654 
L 50.834116 -53.683368 
L 50.110022 -53.638372 
L 49.385927 -53.591831 
L 48.661833 -53.544072 
L 47.937739 -53.495457 
L 47.213645 -53.446367 
L 46.48955 -53.397196 
L 45.765456 -53.348334 
L 45.041362 -53.300159 
L 44.317268 -53.253027 
L 43.593173 -53.207264 
L 42.869079 -53.163161 
L 42.144985 -53.120969 
L 41.42089 -53.080893 
L 40.696796 -53.043096 
L 39.972702 -53.007697 
L 39.248608 -52.974771 
z
" style="stroke: #2a788e; stroke-width: 1.25"/>
    </defs>
    <g>
     <use xlink:href="#mc5e223fa44" x="0" y="174.26" style="fill: #2a788e; fill-opacity: 0.7; stroke: #2a788e; stroke-width: 1.25"/>
    </g>
   </g>
   <g id="line2d_8">
    <path d="M 7.2 121.545 
L 216.45 121.545 
" style="fill: none; stroke: #2a788e; stroke-opacity: 0.9; stroke-linecap: round"/>
   </g>
   <g id="text_8">
    <!-- 7 -->
    <g style="fill: #2a788e" transform="translate(7.2 120.627) scale(0.12 -0.12)">
     <defs>
      <path id="IBMPlexSans-Bold-37" d="M 1062 0 
L 2560 3686 
L 1165 3686 
L 1165 2874 
L 352 2874 
L 352 4467 
L 3514 4467 
L 3514 3635 
L 2074 0 
L 1062 0 
z
" transform="scale(0.015625)"/>
     </defs>
     <use xlink:href="#IBMPlexSans-Bold-37"/>
    </g>
   </g>
  </g>
  <g id="axes_9">
   <g id="patch_10">
    <path d="M 7.2 131.94 
L 216.45 131.94 
L 216.45 90.36 
L 7.2 90.36 
L 7.2 131.94 
z
" style="fill: none"/>
   </g>
   <g id="matplotlib.axis_17">
    <g id="xtick_41">
     <g id="text_9">
      <!-- −4 -->
      <g style="fill: #838383" transform="translate(17.647322 149.58) scale(0.11 -0.11)">
       <defs>
        <path id="IBMPlexSans-Regular-2212" d="M 429 1734 
L 429 2170 
L 3411 2170 
L 3411 1734 
L 429 1734 
z
" transform="scale(0.015625)"/>
        <path id="IBMPlexSans-Regular-34" d="M 2400 0 
L 2400 877 
L 243 877 
L 243 1350 
L 2112 4467 
L 2912 4467 
L 2912 1325 
L 3558 1325 
L 3558 877 
L 2912 877 
L 2912 0 
L 2400 0 
z
M 749 1325 
L 2400 1325 
L 2400 4051 
L 2368 4051 
L 749 1325 
z
" transform="scale(0.015625)"/>
       </defs>
       <use xlink:href="#IBMPlexSans-Regular-2212"/>
       <use xlink:href="#IBMPlexSans-Regular-34" transform="translate(59.999985 0)"/>
      </g>
     </g>
    </g>
    <g id="xtick_42">
     <g id="text_10">
      <!-- −2 -->
      <g style="fill: #838383" transform="translate(60.251648 149.58) scale(0.11 -0.11)">
       <defs>
        <path id="IBMPlexSans-Regular-32" d="M 3411 0 
L 480 0 
L 480 550 
L 1939 1894 
Q 2253 2182 2464 2505 
Q 2675 2829 2675 3155 
L 2675 3232 
Q 2675 3603 2470 3833 
Q 2266 4064 1850 4064 
Q 1645 4064 1491 4006 
Q 1338 3949 1226 3846 
Q 1114 3744 1040 3606 
Q 966 3469 922 3309 
L 442 3494 
Q 506 3693 618 3881 
Q 730 4070 899 4217 
Q 1069 4365 1309 4454 
Q 1549 4544 1875 4544 
Q 2202 4544 2458 4448 
Q 2714 4352 2886 4179 
Q 3059 4006 3152 3769 
Q 3245 3533 3245 3245 
Q 3245 2982 3171 2758 
Q 3098 2534 2970 2332 
Q 2842 2131 2659 1939 
Q 2477 1747 2266 1555 
L 1062 474 
L 3411 474 
L 3411 0 
z
" transform="scale(0.015625)"/>
       </defs>
       <use xlink:href="#IBMPlexSans-Regular-2212"/>
       <use xlink:href="#IBMPlexSans-Regular-32" transform="translate(59.999985 0)"/>
      </g>
     </g>
    </g>
    <g id="xtick_43">
     <g id="text_11">
      <!-- 0 -->
      <g style="fill: #838383" transform="translate(106.155973 149.58) scale(0.11 -0.11)">
       <defs>
        <path id="IBMPlexSans-Regular-30" d="M 1920 -77 
Q 1120 -77 752 531 
Q 384 1139 384 2234 
Q 384 3328 752 3936 
Q 1120 4544 1920 4544 
Q 2720 4544 3088 3936 
Q 3456 3328 3456 2234 
Q 3456 1139 3088 531 
Q 2720 -77 1920 -77 
z
M 1920 390 
Q 2182 390 2368 499 
Q 2554 608 2669 806 
Q 2784 1005 2838 1273 
Q 2893 1542 2893 1869 
L 2893 2598 
Q 2893 2925 2838 3193 
Q 2784 3462 2669 3660 
Q 2554 3859 2368 3968 
Q 2182 4077 1920 4077 
Q 1658 4077 1472 3968 
Q 1286 3859 1171 3660 
Q 1056 3462 1001 3193 
Q 947 2925 947 2598 
L 947 1869 
Q 947 1542 1001 1273 
Q 1056 1005 1171 806 
Q 1286 608 1472 499 
Q 1658 390 1920 390 
z
" transform="scale(0.015625)"/>
       </defs>
       <use xlink:href="#IBMPlexSans-Regular-30"/>
      </g>
     </g>
    </g>
    <g id="xtick_44">
     <g id="text_12">
      <!-- 2 -->
      <g style="fill: #838383" transform="translate(148.760299 149.58) scale(0.11 -0.11)">
       <use xlink:href="#IBMPlexSans-Regular-32"/>
      </g>
     </g>
    </g>
    <g id="xtick_45">
     <g id="text_13">
      <!-- 4 -->
      <g style="fill: #838383" transform="translate(191.364625 149.58) scale(0.11 -0.11)">
       <use xlink:href="#IBMPlexSans-Regular-34"/>
      </g>
     </g>
    </g>
    <g id="text_14">
     <!-- sldb -->
     <g style="fill: #262626" transform="translate(100.310625 164.66) scale(0.12 -0.12)">
      <defs>
       <path id="IBMPlexSans-Regular-73" d="M 1536 -77 
Q 1075 -77 764 99 
Q 454 275 230 570 
L 595 864 
Q 787 621 1024 489 
Q 1261 358 1574 358 
Q 1901 358 2083 499 
Q 2266 640 2266 896 
Q 2266 1088 2141 1225 
Q 2016 1363 1690 1414 
L 1427 1453 
Q 1197 1485 1005 1552 
Q 813 1619 669 1731 
Q 525 1843 445 2009 
Q 365 2176 365 2406 
Q 365 2650 454 2832 
Q 544 3014 701 3136 
Q 858 3258 1075 3318 
Q 1293 3379 1542 3379 
Q 1946 3379 2218 3238 
Q 2490 3098 2694 2848 
L 2355 2541 
Q 2246 2694 2035 2819 
Q 1824 2944 1504 2944 
Q 1184 2944 1021 2806 
Q 858 2669 858 2432 
Q 858 2189 1021 2080 
Q 1184 1971 1491 1920 
L 1747 1882 
Q 2298 1798 2528 1564 
Q 2758 1331 2758 954 
Q 2758 474 2432 198 
Q 2106 -77 1536 -77 
z
" transform="scale(0.015625)"/>
       <path id="IBMPlexSans-Regular-6c" d="M 1088 0 
Q 819 0 681 150 
Q 544 301 544 531 
L 544 4736 
L 1056 4736 
L 1056 448 
L 1542 448 
L 1542 0 
L 1088 0 
z
" transform="scale(0.015625)"/>
       <path id="IBMPlexSans-Regular-64" d="M 2656 538 
L 2630 538 
Q 2330 -77 1664 -77 
Q 1357 -77 1107 44 
Q 858 166 682 390 
Q 506 614 413 934 
Q 320 1254 320 1651 
Q 320 2048 413 2368 
Q 506 2688 682 2912 
Q 858 3136 1107 3257 
Q 1357 3379 1664 3379 
Q 2010 3379 2256 3228 
Q 2502 3078 2630 2765 
L 2656 2765 
L 2656 4736 
L 3168 4736 
L 3168 0 
L 2656 0 
L 2656 538 
z
M 1805 384 
Q 1978 384 2134 429 
Q 2291 474 2406 560 
Q 2522 646 2589 771 
Q 2656 896 2656 1056 
L 2656 2285 
Q 2656 2419 2589 2537 
Q 2522 2656 2406 2739 
Q 2291 2822 2134 2870 
Q 1978 2918 1805 2918 
Q 1370 2918 1120 2646 
Q 870 2374 870 1933 
L 870 1370 
Q 870 928 1120 656 
Q 1370 384 1805 384 
z
" transform="scale(0.015625)"/>
       <path id="IBMPlexSans-Regular-62" d="M 544 4736 
L 1056 4736 
L 1056 2765 
L 1082 2765 
Q 1210 3078 1456 3228 
Q 1702 3379 2048 3379 
Q 2355 3379 2604 3257 
Q 2854 3136 3030 2912 
Q 3206 2688 3299 2368 
Q 3392 2048 3392 1651 
Q 3392 1254 3299 934 
Q 3206 614 3030 390 
Q 2854 166 2604 44 
Q 2355 -77 2048 -77 
Q 1376 -77 1082 538 
L 1056 538 
L 1056 0 
L 544 0 
L 544 4736 
z
M 1907 384 
Q 2342 384 2592 656 
Q 2842 928 2842 1370 
L 2842 1933 
Q 2842 2374 2592 2646 
Q 2342 2918 1907 2918 
Q 1734 2918 1577 2870 
Q 1421 2822 1305 2739 
Q 1190 2656 1123 2537 
Q 1056 2419 1056 2285 
L 1056 1056 
Q 1056 896 1123 771 
Q 1190 646 1305 560 
Q 1421 474 1577 429 
Q 1734 384 1907 384 
z
" transform="scale(0.015625)"/>
      </defs>
      <use xlink:href="#IBMPlexSans-Regular-73"/>
      <use xlink:href="#IBMPlexSans-Regular-6c" transform="translate(48.699997 0)"/>
      <use xlink:href="#IBMPlexSans-Regular-64" transform="translate(75.899994 0)"/>
      <use xlink:href="#IBMPlexSans-Regular-62" transform="translate(133.899979 0)"/>
     </g>
    </g>
   </g>
   <g id="matplotlib.axis_18"/>
   <g id="FillBetweenPolyCollection_4">
    <defs>
     <path id="me8868723e9" d="M 16.711364 -42.519086 
L 16.711364 -42.32 
L 17.66728 -42.32 
L 18.623196 -42.32 
L 19.579111 -42.32 
L 20.535027 -42.32 
L 21.490943 -42.32 
L 22.446859 -42.32 
L 23.402775 -42.32 
L 24.358691 -42.32 
L 25.314607 -42.32 
L 26.270523 -42.32 
L 27.226439 -42.32 
L 28.182355 -42.32 
L 29.138271 -42.32 
L 30.094187 -42.32 
L 31.050103 -42.32 
L 32.006019 -42.32 
L 32.961935 -42.32 
L 33.917851 -42.32 
L 34.873767 -42.32 
L 35.829683 -42.32 
L 36.785598 -42.32 
L 37.741514 -42.32 
L 38.69743 -42.32 
L 39.653346 -42.32 
L 40.609262 -42.32 
L 41.565178 -42.32 
L 42.521094 -42.32 
L 43.47701 -42.32 
L 44.432926 -42.32 
L 45.388842 -42.32 
L 46.344758 -42.32 
L 47.300674 -42.32 
L 48.25659 -42.32 
L 49.212506 -42.32 
L 50.168422 -42.32 
L 51.124338 -42.32 
L 52.080254 -42.32 
L 53.036169 -42.32 
L 53.992085 -42.32 
L 54.948001 -42.32 
L 55.903917 -42.32 
L 56.859833 -42.32 
L 57.815749 -42.32 
L 58.771665 -42.32 
L 59.727581 -42.32 
L 60.683497 -42.32 
L 61.639413 -42.32 
L 62.595329 -42.32 
L 63.551245 -42.32 
L 64.507161 -42.32 
L 65.463077 -42.32 
L 66.418993 -42.32 
L 67.374909 -42.32 
L 68.330825 -42.32 
L 69.286741 -42.32 
L 70.242656 -42.32 
L 71.198572 -42.32 
L 72.154488 -42.32 
L 73.110404 -42.32 
L 74.06632 -42.32 
L 75.022236 -42.32 
L 75.978152 -42.32 
L 76.934068 -42.32 
L 77.889984 -42.32 
L 78.8459 -42.32 
L 79.801816 -42.32 
L 80.757732 -42.32 
L 81.713648 -42.32 
L 82.669564 -42.32 
L 83.62548 -42.32 
L 84.581396 -42.32 
L 85.537312 -42.32 
L 86.493228 -42.32 
L 87.449143 -42.32 
L 88.405059 -42.32 
L 89.360975 -42.32 
L 90.316891 -42.32 
L 91.272807 -42.32 
L 92.228723 -42.32 
L 93.184639 -42.32 
L 94.140555 -42.32 
L 95.096471 -42.32 
L 96.052387 -42.32 
L 97.008303 -42.32 
L 97.964219 -42.32 
L 98.920135 -42.32 
L 99.876051 -42.32 
L 100.831967 -42.32 
L 101.787883 -42.32 
L 102.743799 -42.32 
L 103.699714 -42.32 
L 104.65563 -42.32 
L 105.611546 -42.32 
L 106.567462 -42.32 
L 107.523378 -42.32 
L 108.479294 -42.32 
L 109.43521 -42.32 
L 110.391126 -42.32 
L 111.347042 -42.32 
L 112.302958 -42.32 
L 113.258874 -42.32 
L 114.21479 -42.32 
L 115.170706 -42.32 
L 116.126622 -42.32 
L 117.082538 -42.32 
L 118.038454 -42.32 
L 118.99437 -42.32 
L 119.950286 -42.32 
L 120.906201 -42.32 
L 121.862117 -42.32 
L 122.818033 -42.32 
L 123.773949 -42.32 
L 124.729865 -42.32 
L 125.685781 -42.32 
L 126.641697 -42.32 
L 127.597613 -42.32 
L 128.553529 -42.32 
L 129.509445 -42.32 
L 130.465361 -42.32 
L 131.421277 -42.32 
L 132.377193 -42.32 
L 133.333109 -42.32 
L 134.289025 -42.32 
L 135.244941 -42.32 
L 136.200857 -42.32 
L 137.156772 -42.32 
L 138.112688 -42.32 
L 139.068604 -42.32 
L 140.02452 -42.32 
L 140.980436 -42.32 
L 141.936352 -42.32 
L 142.892268 -42.32 
L 143.848184 -42.32 
L 144.8041 -42.32 
L 145.760016 -42.32 
L 146.715932 -42.32 
L 147.671848 -42.32 
L 148.627764 -42.32 
L 149.58368 -42.32 
L 150.539596 -42.32 
L 151.495512 -42.32 
L 152.451428 -42.32 
L 153.407344 -42.32 
L 154.363259 -42.32 
L 155.319175 -42.32 
L 156.275091 -42.32 
L 157.231007 -42.32 
L 158.186923 -42.32 
L 159.142839 -42.32 
L 160.098755 -42.32 
L 161.054671 -42.32 
L 162.010587 -42.32 
L 162.966503 -42.32 
L 163.922419 -42.32 
L 164.878335 -42.32 
L 165.834251 -42.32 
L 166.790167 -42.32 
L 167.746083 -42.32 
L 168.701999 -42.32 
L 169.657915 -42.32 
L 170.613831 -42.32 
L 171.569746 -42.32 
L 172.525662 -42.32 
L 173.481578 -42.32 
L 174.437494 -42.32 
L 175.39341 -42.32 
L 176.349326 -42.32 
L 177.305242 -42.32 
L 178.261158 -42.32 
L 179.217074 -42.32 
L 180.17299 -42.32 
L 181.128906 -42.32 
L 182.084822 -42.32 
L 183.040738 -42.32 
L 183.996654 -42.32 
L 184.95257 -42.32 
L 185.908486 -42.32 
L 186.864402 -42.32 
L 187.820317 -42.32 
L 188.776233 -42.32 
L 189.732149 -42.32 
L 190.688065 -42.32 
L 191.643981 -42.32 
L 192.599897 -42.32 
L 193.555813 -42.32 
L 194.511729 -42.32 
L 195.467645 -42.32 
L 196.423561 -42.32 
L 197.379477 -42.32 
L 198.335393 -42.32 
L 199.291309 -42.32 
L 200.247225 -42.32 
L 201.203141 -42.32 
L 202.159057 -42.32 
L 203.114973 -42.32 
L 204.070889 -42.32 
L 205.026804 -42.32 
L 205.98272 -42.32 
L 206.938636 -42.32 
L 206.938636 -42.551594 
L 206.938636 -42.551594 
L 205.98272 -42.580312 
L 205.026804 -42.611152 
L 204.070889 -42.644077 
L 203.114973 -42.67903 
L 202.159057 -42.715932 
L 201.203141 -42.754685 
L 200.247225 -42.795173 
L 199.291309 -42.83727 
L 198.335393 -42.880838 
L 197.379477 -42.925733 
L 196.423561 -42.971814 
L 195.467645 -43.01894 
L 194.511729 -43.066979 
L 193.555813 -43.115809 
L 192.599897 -43.165324 
L 191.643981 -43.215432 
L 190.688065 -43.26606 
L 189.732149 -43.31715 
L 188.776233 -43.368662 
L 187.820317 -43.420569 
L 186.864402 -43.472856 
L 185.908486 -43.525513 
L 184.95257 -43.578535 
L 183.996654 -43.631915 
L 183.040738 -43.685637 
L 182.084822 -43.739676 
L 181.128906 -43.793993 
L 180.17299 -43.848528 
L 179.217074 -43.903203 
L 178.261158 -43.957921 
L 177.305242 -44.012563 
L 176.349326 -44.066994 
L 175.39341 -44.121064 
L 174.437494 -44.174614 
L 173.481578 -44.227482 
L 172.525662 -44.279509 
L 171.569746 -44.330546 
L 170.613831 -44.380458 
L 169.657915 -44.42914 
L 168.701999 -44.476512 
L 167.746083 -44.522534 
L 166.790167 -44.567205 
L 165.834251 -44.61057 
L 164.878335 -44.652719 
L 163.922419 -44.693792 
L 162.966503 -44.733977 
L 162.010587 -44.773505 
L 161.054671 -44.812655 
L 160.098755 -44.851742 
L 159.142839 -44.89112 
L 158.186923 -44.931174 
L 157.231007 -44.972315 
L 156.275091 -45.014974 
L 155.319175 -45.0596 
L 154.363259 -45.10665 
L 153.407344 -45.156589 
L 152.451428 -45.209879 
L 151.495512 -45.266978 
L 150.539596 -45.328331 
L 149.58368 -45.394368 
L 148.627764 -45.465494 
L 147.671848 -45.542085 
L 146.715932 -45.624485 
L 145.760016 -45.712993 
L 144.8041 -45.807861 
L 143.848184 -45.909287 
L 142.892268 -46.017411 
L 141.936352 -46.132305 
L 140.980436 -46.253975 
L 140.02452 -46.382352 
L 139.068604 -46.517296 
L 138.112688 -46.658592 
L 137.156772 -46.805955 
L 136.200857 -46.959031 
L 135.244941 -47.117406 
L 134.289025 -47.280611 
L 133.333109 -47.44813 
L 132.377193 -47.619414 
L 131.421277 -47.793891 
L 130.465361 -47.970976 
L 129.509445 -48.150082 
L 128.553529 -48.330638 
L 127.597613 -48.512089 
L 126.641697 -48.693913 
L 125.685781 -48.875625 
L 124.729865 -49.056783 
L 123.773949 -49.236988 
L 122.818033 -49.415889 
L 121.862117 -49.593175 
L 120.906201 -49.768576 
L 119.950286 -49.941849 
L 118.99437 -50.112775 
L 118.038454 -50.281142 
L 117.082538 -50.446738 
L 116.126622 -50.60933 
L 115.170706 -50.768655 
L 114.21479 -50.924404 
L 113.258874 -51.076208 
L 112.302958 -51.223623 
L 111.347042 -51.366123 
L 110.391126 -51.50309 
L 109.43521 -51.63381 
L 108.479294 -51.757467 
L 107.523378 -51.873154 
L 106.567462 -51.97987 
L 105.611546 -52.076539 
L 104.65563 -52.162022 
L 103.699714 -52.235139 
L 102.743799 -52.294691 
L 101.787883 -52.339486 
L 100.831967 -52.368374 
L 99.876051 -52.380269 
L 98.920135 -52.374187 
L 97.964219 -52.349273 
L 97.008303 -52.30483 
L 96.052387 -52.240341 
L 95.096471 -52.155497 
L 94.140555 -52.050204 
L 93.184639 -51.924603 
L 92.228723 -51.779068 
L 91.272807 -51.614207 
L 90.316891 -51.430854 
L 89.360975 -51.230061 
L 88.405059 -51.01307 
L 87.449143 -50.781302 
L 86.493228 -50.536322 
L 85.537312 -50.279816 
L 84.581396 -50.013554 
L 83.62548 -49.739367 
L 82.669564 -49.459109 
L 81.713648 -49.174628 
L 80.757732 -48.887741 
L 79.801816 -48.600203 
L 78.8459 -48.313684 
L 77.889984 -48.029752 
L 76.934068 -47.749856 
L 75.978152 -47.475308 
L 75.022236 -47.20728 
L 74.06632 -46.946795 
L 73.110404 -46.694727 
L 72.154488 -46.451801 
L 71.198572 -46.218596 
L 70.242656 -45.995556 
L 69.286741 -45.782996 
L 68.330825 -45.581114 
L 67.374909 -45.390001 
L 66.418993 -45.209657 
L 65.463077 -45.040002 
L 64.507161 -44.880889 
L 63.551245 -44.732114 
L 62.595329 -44.59343 
L 61.639413 -44.464555 
L 60.683497 -44.345178 
L 59.727581 -44.234968 
L 58.771665 -44.133577 
L 57.815749 -44.040639 
L 56.859833 -43.955777 
L 55.903917 -43.878601 
L 54.948001 -43.808703 
L 53.992085 -43.74566 
L 53.036169 -43.68903 
L 52.080254 -43.638351 
L 51.124338 -43.59314 
L 50.168422 -43.552892 
L 49.212506 -43.517084 
L 48.25659 -43.485174 
L 47.300674 -43.456608 
L 46.344758 -43.430824 
L 45.388842 -43.407257 
L 44.432926 -43.385352 
L 43.47701 -43.364566 
L 42.521094 -43.344383 
L 41.565178 -43.324319 
L 40.609262 -43.303934 
L 39.653346 -43.282836 
L 38.69743 -43.260694 
L 37.741514 -43.237235 
L 36.785598 -43.212256 
L 35.829683 -43.185623 
L 34.873767 -43.157268 
L 33.917851 -43.127192 
L 32.961935 -43.095459 
L 32.006019 -43.062188 
L 31.050103 -43.027552 
L 30.094187 -42.991767 
L 29.138271 -42.95508 
L 28.182355 -42.917767 
L 27.226439 -42.880118 
L 26.270523 -42.842429 
L 25.314607 -42.804996 
L 24.358691 -42.768103 
L 23.402775 -42.732021 
L 22.446859 -42.696994 
L 21.490943 -42.663243 
L 20.535027 -42.630957 
L 19.579111 -42.600292 
L 18.623196 -42.571371 
L 17.66728 -42.544283 
L 16.711364 -42.519086 
z
" style="stroke: #21918c; stroke-width: 1.25"/>
    </defs>
    <g>
     <use xlink:href="#me8868723e9" x="0" y="174.26" style="fill: #21918c; fill-opacity: 0.7; stroke: #21918c; stroke-width: 1.25"/>
    </g>
   </g>
   <g id="line2d_9">
    <path d="M 7.2 131.94 
L 216.45 131.94 
" style="fill: none; stroke: #21918c; stroke-opacity: 0.9; stroke-linecap: round"/>
   </g>
   <g id="text_15">
    <!-- 8 -->
    <g style="fill: #21918c" transform="translate(7.2 131.022) scale(0.12 -0.12)">
     <defs>
      <path id="IBMPlexSans-Bold-38" d="M 1920 -77 
Q 1523 -77 1212 22 
Q 902 122 691 294 
Q 480 467 368 704 
Q 256 941 256 1222 
Q 256 1651 493 1923 
Q 730 2195 1133 2304 
L 1133 2355 
Q 806 2477 598 2726 
Q 390 2976 390 3366 
Q 390 3622 489 3840 
Q 589 4058 784 4214 
Q 979 4371 1264 4457 
Q 1549 4544 1920 4544 
Q 2291 4544 2576 4457 
Q 2861 4371 3056 4214 
Q 3251 4058 3350 3840 
Q 3450 3622 3450 3366 
Q 3450 2976 3242 2726 
Q 3034 2477 2707 2355 
L 2707 2304 
Q 3110 2195 3347 1923 
Q 3584 1651 3584 1222 
Q 3584 941 3472 704 
Q 3360 467 3149 294 
Q 2938 122 2627 22 
Q 2317 -77 1920 -77 
z
M 1920 659 
Q 2240 659 2409 809 
Q 2579 960 2579 1229 
L 2579 1357 
Q 2579 1626 2409 1776 
Q 2240 1926 1920 1926 
Q 1600 1926 1430 1776 
Q 1261 1626 1261 1357 
L 1261 1229 
Q 1261 960 1430 809 
Q 1600 659 1920 659 
z
M 1920 2630 
Q 2227 2630 2387 2774 
Q 2547 2918 2547 3168 
L 2547 3270 
Q 2547 3520 2387 3664 
Q 2227 3808 1920 3808 
Q 1613 3808 1453 3664 
Q 1293 3520 1293 3270 
L 1293 3168 
Q 1293 2918 1453 2774 
Q 1613 2630 1920 2630 
z
" transform="scale(0.015625)"/>
     </defs>
     <use xlink:href="#IBMPlexSans-Bold-38"/>
    </g>
   </g>
  </g>
 </g>
</svg>
