<?xml version="1.0" encoding="utf-8" standalone="no"?>
<!DOCTYPE svg PUBLIC "-//W3C//DTD SVG 1.1//EN"
  "http://www.w3.org/Graphics/SVG/1.1/DTD/svg11.dtd">
<svg xmlns:xlink="http://www.w3.org/1999/xlink" width="223.65pt" height="174.26pt" viewBox="0 0 223.65 174.26" xmlns="http://www.w3.org/2000/svg" version="1.1">
 <metadata>
  <rdf:RDF xmlns:dc="http://purl.org/dc/elements/1.1/" xmlns:cc="http://creativecommons.org/ns#" xmlns:rdf="http://www.w3.org/1999/02/22-rdf-syntax-ns#">
   <cc:Work>
    <dc:type rdf:resource="http://purl.org/dc/dcmitype/StillImage"/>
    <dc:date>2025-12-31T11:26:08.047184</dc:date>
    <dc:format>image/svg+xml</dc:format>
    <dc:creator>
     <cc:Agent>
      <dc:title>Matplotlib v3.10.5, https://matplotlib.org/</dc:title>
     </cc:Agent>
    </dc:creator>
   </cc:Work>
  </rdf:RDF>
 </metadata>
 <defs>
  <style type="text/css">*{stroke-linejoin: round; stroke-linecap: butt}</style>
 </defs>
 <g id="figure_1">
  <g id="patch_1">
   <path d="M 0 174.26 
L 223.65 174.26 
L 223.65 0 
L 0 0 
L 0 174.26 
z
" style="fill: none"/>
  </g>
  <g id="axes_1">
   <g id="patch_2">
    <path d="M 7.2 48.78 
L 216.45 48.78 
L 216.45 7.2 
L 7.2 7.2 
L 7.2 48.78 
z
" style="fill: none"/>
   </g>
   <g id="matplotlib.axis_1">
    <g id="xtick_1"/>
    <g id="xtick_2"/>
    <g id="xtick_3"/>
    <g id="xtick_4"/>
   </g>
   <g id="matplotlib.axis_2"/>
   <g id="line2d_1">
    <path d="M 7.2 48.78 
L 216.45 48.78 
" style="fill: none; stroke: #482475; stroke-opacity: 0.9; stroke-linecap: round"/>
   </g>
   <g id="text_1">
    <!-- 0 -->
    <g style="fill: #482475" transform="translate(7.2 47.862) scale(0.12 -0.12)">
     <defs>
      <path id="IBMPlexSans-Bold-30" d="M 1920 -77 
Q 1043 -77 620 531 
Q 198 1139 198 2234 
Q 198 3328 620 3936 
Q 1043 4544 1920 4544 
Q 2797 4544 3219 3936 
Q 3642 3328 3642 2234 
Q 3642 1139 3219 531 
Q 2797 -77 1920 -77 
z
M 1920 736 
Q 2304 736 2451 1017 
Q 2598 1299 2598 1811 
L 2598 2656 
Q 2598 3168 2451 3449 
Q 2304 3731 1920 3731 
Q 1536 3731 1389 3449 
Q 1242 3168 1242 2656 
L 1242 1811 
Q 1242 1299 1389 1017 
Q 1536 736 1920 736 
z
" transform="scale(0.015625)"/>
     </defs>
     <use xlink:href="#IBMPlexSans-Bold-30"/>
    </g>
   </g>
  </g>
  <g id="axes_2">
   <g id="patch_3">
    <path d="M 7.2 59.175 
L 216.45 59.175 
L 216.45 17.595 
L 7.2 17.595 
L 7.2 59.175 
z
" style="fill: none"/>
   </g>
   <g id="matplotlib.axis_3">
    <g id="xtick_5"/>
    <g id="xtick_6"/>
    <g id="xtick_7"/>
    <g id="xtick_8"/>
   </g>
   <g id="matplotlib.axis_4"/>
   <g id="line2d_2">
    <path d="M 7.2 59.175 
L 216.45 59.175 
" style="fill: none; stroke: #482475; stroke-opacity: 0.9; stroke-linecap: round"/>
   </g>
   <g id="text_2">
    <!-- 1 -->
    <g style="fill: #482475" transform="translate(7.2 58.257) scale(0.12 -0.12)">
     <defs>
      <path id="IBMPlexSans-Bold-31" d="M 602 0 
L 602 774 
L 1805 774 
L 1805 3770 
L 1747 3770 
L 838 2579 
L 224 3059 
L 1293 4467 
L 2765 4467 
L 2765 774 
L 3712 774 
L 3712 0 
L 602 0 
z
" transform="scale(0.015625)"/>
     </defs>
     <use xlink:href="#IBMPlexSans-Bold-31"/>
    </g>
   </g>
  </g>
  <g id="axes_3">
   <g id="patch_4">
    <path d="M 7.2 69.57 
L 216.45 69.57 
L 216.45 27.99 
L 7.2 27.99 
L 7.2 69.57 
z
" style="fill: none"/>
   </g>
   <g id="matplotlib.axis_5">
    <g id="xtick_9"/>
    <g id="xtick_10"/>
    <g id="xtick_11"/>
    <g id="xtick_12"/>
   </g>
   <g id="matplotlib.axis_6"/>
   <g id="line2d_3">
    <path d="M 7.2 69.57 
L 216.45 69.57 
" style="fill: none; stroke: #482475; stroke-opacity: 0.9; stroke-linecap: round"/>
   </g>
   <g id="text_3">
    <!-- 2 -->
    <g style="fill: #482475" transform="translate(7.2 68.652) scale(0.12 -0.12)">
     <defs>
      <path id="IBMPlexSans-Bold-32" d="M 3526 0 
L 365 0 
L 365 877 
L 1741 2054 
Q 1926 2214 2054 2345 
Q 2182 2477 2262 2601 
Q 2342 2726 2377 2848 
Q 2413 2970 2413 3110 
L 2413 3200 
Q 2413 3328 2361 3424 
Q 2310 3520 2227 3584 
Q 2144 3648 2038 3680 
Q 1933 3712 1824 3712 
Q 1664 3712 1545 3661 
Q 1427 3610 1340 3523 
Q 1254 3437 1196 3325 
Q 1139 3213 1107 3085 
L 269 3405 
Q 346 3635 480 3843 
Q 614 4051 816 4208 
Q 1018 4365 1293 4454 
Q 1568 4544 1914 4544 
Q 2278 4544 2560 4441 
Q 2842 4339 3037 4160 
Q 3232 3981 3334 3734 
Q 3437 3488 3437 3200 
Q 3437 2912 3341 2675 
Q 3245 2438 3081 2230 
Q 2918 2022 2700 1836 
Q 2483 1651 2246 1459 
L 1414 806 
L 3526 806 
L 3526 0 
z
" transform="scale(0.015625)"/>
     </defs>
     <use xlink:href="#IBMPlexSans-Bold-32"/>
    </g>
   </g>
  </g>
  <g id="axes_4">
   <g id="patch_5">
    <path d="M 7.2 79.965 
L 216.45 79.965 
L 216.45 38.385 
L 7.2 38.385 
L 7.2 79.965 
z
" style="fill: none"/>
   </g>
   <g id="matplotlib.axis_7">
    <g id="xtick_13"/>
    <g id="xtick_14"/>
    <g id="xtick_15"/>
    <g id="xtick_16"/>
   </g>
   <g id="matplotlib.axis_8"/>
   <g id="line2d_4">
    <path d="M 7.2 79.965 
L 216.45 79.965 
" style="fill: none; stroke: #482475; stroke-opacity: 0.9; stroke-linecap: round"/>
   </g>
   <g id="text_4">
    <!-- 3 -->
    <g style="fill: #482475" transform="translate(7.2 79.047) scale(0.12 -0.12)">
     <defs>
      <path id="IBMPlexSans-Bold-33" d="M 1677 2701 
Q 2035 2701 2198 2838 
Q 2362 2976 2362 3181 
L 2362 3226 
Q 2362 3469 2205 3616 
Q 2048 3763 1760 3763 
Q 1491 3763 1254 3625 
Q 1018 3488 851 3232 
L 250 3795 
Q 378 3962 525 4099 
Q 672 4237 857 4336 
Q 1043 4435 1273 4489 
Q 1504 4544 1792 4544 
Q 2150 4544 2441 4461 
Q 2733 4378 2941 4221 
Q 3149 4064 3261 3846 
Q 3373 3629 3373 3360 
Q 3373 3149 3305 2976 
Q 3238 2803 3120 2675 
Q 3002 2547 2848 2467 
Q 2694 2387 2522 2355 
L 2522 2317 
Q 2720 2278 2889 2192 
Q 3059 2106 3184 1971 
Q 3309 1837 3379 1654 
Q 3450 1472 3450 1242 
Q 3450 941 3328 697 
Q 3206 454 2982 281 
Q 2758 109 2444 16 
Q 2131 -77 1754 -77 
Q 1414 -77 1152 -6 
Q 890 64 694 182 
Q 499 301 355 454 
Q 211 608 102 781 
L 813 1331 
Q 960 1056 1174 880 
Q 1389 704 1754 704 
Q 2080 704 2262 867 
Q 2445 1030 2445 1312 
L 2445 1350 
Q 2445 1626 2237 1763 
Q 2029 1901 1664 1901 
L 1261 1901 
L 1261 2701 
L 1677 2701 
z
" transform="scale(0.015625)"/>
     </defs>
     <use xlink:href="#IBMPlexSans-Bold-33"/>
    </g>
   </g>
  </g>
  <g id="axes_5">
   <g id="patch_6">
    <path d="M 7.2 90.36 
L 216.45 90.36 
L 216.45 48.78 
L 7.2 48.78 
L 7.2 90.36 
z
" style="fill: none"/>
   </g>
   <g id="matplotlib.axis_9">
    <g id="xtick_17"/>
    <g id="xtick_18"/>
    <g id="xtick_19"/>
    <g id="xtick_20"/>
   </g>
   <g id="matplotlib.axis_10"/>
   <g id="line2d_5">
    <path d="M 7.2 90.36 
L 216.45 90.36 
" style="fill: none; stroke: #482475; stroke-opacity: 0.9; stroke-linecap: round"/>
   </g>
   <g id="text_5">
    <!-- 4 -->
    <g style="fill: #482475" transform="translate(7.2 89.442) scale(0.12 -0.12)">
     <defs>
      <path id="IBMPlexSans-Bold-34" d="M 2157 0 
L 2157 858 
L 192 858 
L 192 1677 
L 1933 4467 
L 3072 4467 
L 3072 1600 
L 3635 1600 
L 3635 858 
L 3072 858 
L 3072 0 
L 2157 0 
z
M 960 1600 
L 2157 1600 
L 2157 3475 
L 2093 3475 
L 960 1600 
z
" transform="scale(0.015625)"/>
     </defs>
     <use xlink:href="#IBMPlexSans-Bold-34"/>
    </g>
   </g>
  </g>
  <g id="axes_6">
   <g id="patch_7">
    <path d="M 7.2 100.755 
L 216.45 100.755 
L 216.45 59.175 
L 7.2 59.175 
L 7.2 100.755 
z
" style="fill: none"/>
   </g>
   <g id="matplotlib.axis_11">
    <g id="xtick_21"/>
    <g id="xtick_22"/>
    <g id="xtick_23"/>
    <g id="xtick_24"/>
   </g>
   <g id="matplotlib.axis_12"/>
   <g id="FillBetweenPolyCollection_1">
    <defs>
     <path id="me696187b0c" d="M 72.41708 -75.226776 
L 72.41708 -73.505 
L 72.658617 -73.505 
L 72.900155 -73.505 
L 73.141693 -73.505 
L 73.383231 -73.505 
L 73.624768 -73.505 
L 73.866306 -73.505 
L 74.107844 -73.505 
L 74.349381 -73.505 
L 74.590919 -73.505 
L 74.832457 -73.505 
L 75.073995 -73.505 
L 75.315532 -73.505 
L 75.55707 -73.505 
L 75.798608 -73.505 
L 76.040146 -73.505 
L 76.281683 -73.505 
L 76.523221 -73.505 
L 76.764759 -73.505 
L 77.006297 -73.505 
L 77.247834 -73.505 
L 77.489372 -73.505 
L 77.73091 -73.505 
L 77.972448 -73.505 
L 78.213985 -73.505 
L 78.455523 -73.505 
L 78.697061 -73.505 
L 78.938598 -73.505 
L 79.180136 -73.505 
L 79.421674 -73.505 
L 79.663212 -73.505 
L 79.904749 -73.505 
L 80.146287 -73.505 
L 80.387825 -73.505 
L 80.629363 -73.505 
L 80.8709 -73.505 
L 81.112438 -73.505 
L 81.353976 -73.505 
L 81.595514 -73.505 
L 81.837051 -73.505 
L 82.078589 -73.505 
L 82.320127 -73.505 
L 82.561665 -73.505 
L 82.803202 -73.505 
L 83.04474 -73.505 
L 83.286278 -73.505 
L 83.527815 -73.505 
L 83.769353 -73.505 
L 84.010891 -73.505 
L 84.252429 -73.505 
L 84.493966 -73.505 
L 84.735504 -73.505 
L 84.977042 -73.505 
L 85.21858 -73.505 
L 85.460117 -73.505 
L 85.701655 -73.505 
L 85.943193 -73.505 
L 86.184731 -73.505 
L 86.426268 -73.505 
L 86.667806 -73.505 
L 86.909344 -73.505 
L 87.150882 -73.505 
L 87.392419 -73.505 
L 87.633957 -73.505 
L 87.875495 -73.505 
L 88.117032 -73.505 
L 88.35857 -73.505 
L 88.600108 -73.505 
L 88.841646 -73.505 
L 89.083183 -73.505 
L 89.324721 -73.505 
L 89.566259 -73.505 
L 89.807797 -73.505 
L 90.049334 -73.505 
L 90.290872 -73.505 
L 90.53241 -73.505 
L 90.773948 -73.505 
L 91.015485 -73.505 
L 91.257023 -73.505 
L 91.498561 -73.505 
L 91.740099 -73.505 
L 91.981636 -73.505 
L 92.223174 -73.505 
L 92.464712 -73.505 
L 92.706249 -73.505 
L 92.947787 -73.505 
L 93.189325 -73.505 
L 93.430863 -73.505 
L 93.6724 -73.505 
L 93.913938 -73.505 
L 94.155476 -73.505 
L 94.397014 -73.505 
L 94.638551 -73.505 
L 94.880089 -73.505 
L 95.121627 -73.505 
L 95.363165 -73.505 
L 95.604702 -73.505 
L 95.84624 -73.505 
L 96.087778 -73.505 
L 96.329316 -73.505 
L 96.570853 -73.505 
L 96.812391 -73.505 
L 97.053929 -73.505 
L 97.295466 -73.505 
L 97.537004 -73.505 
L 97.778542 -73.505 
L 98.02008 -73.505 
L 98.261617 -73.505 
L 98.503155 -73.505 
L 98.744693 -73.505 
L 98.986231 -73.505 
L 99.227768 -73.505 
L 99.469306 -73.505 
L 99.710844 -73.505 
L 99.952382 -73.505 
L 100.193919 -73.505 
L 100.435457 -73.505 
L 100.676995 -73.505 
L 100.918533 -73.505 
L 101.16007 -73.505 
L 101.401608 -73.505 
L 101.643146 -73.505 
L 101.884683 -73.505 
L 102.126221 -73.505 
L 102.367759 -73.505 
L 102.609297 -73.505 
L 102.850834 -73.505 
L 103.092372 -73.505 
L 103.33391 -73.505 
L 103.575448 -73.505 
L 103.816985 -73.505 
L 104.058523 -73.505 
L 104.300061 -73.505 
L 104.541599 -73.505 
L 104.783136 -73.505 
L 105.024674 -73.505 
L 105.266212 -73.505 
L 105.50775 -73.505 
L 105.749287 -73.505 
L 105.990825 -73.505 
L 106.232363 -73.505 
L 106.4739 -73.505 
L 106.715438 -73.505 
L 106.956976 -73.505 
L 107.198514 -73.505 
L 107.440051 -73.505 
L 107.681589 -73.505 
L 107.923127 -73.505 
L 108.164665 -73.505 
L 108.406202 -73.505 
L 108.64774 -73.505 
L 108.889278 -73.505 
L 109.130816 -73.505 
L 109.372353 -73.505 
L 109.613891 -73.505 
L 109.855429 -73.505 
L 110.096967 -73.505 
L 110.338504 -73.505 
L 110.580042 -73.505 
L 110.82158 -73.505 
L 111.063117 -73.505 
L 111.304655 -73.505 
L 111.546193 -73.505 
L 111.787731 -73.505 
L 112.029268 -73.505 
L 112.270806 -73.505 
L 112.512344 -73.505 
L 112.753882 -73.505 
L 112.995419 -73.505 
L 113.236957 -73.505 
L 113.478495 -73.505 
L 113.720033 -73.505 
L 113.96157 -73.505 
L 114.203108 -73.505 
L 114.444646 -73.505 
L 114.686184 -73.505 
L 114.927721 -73.505 
L 115.169259 -73.505 
L 115.410797 -73.505 
L 115.652334 -73.505 
L 115.893872 -73.505 
L 116.13541 -73.505 
L 116.376948 -73.505 
L 116.618485 -73.505 
L 116.860023 -73.505 
L 117.101561 -73.505 
L 117.343099 -73.505 
L 117.584636 -73.505 
L 117.826174 -73.505 
L 118.067712 -73.505 
L 118.30925 -73.505 
L 118.550787 -73.505 
L 118.792325 -73.505 
L 119.033863 -73.505 
L 119.2754 -73.505 
L 119.516938 -73.505 
L 119.758476 -73.505 
L 120.000014 -73.505 
L 120.241551 -73.505 
L 120.483089 -73.505 
L 120.483089 -75.738993 
L 120.483089 -75.738993 
L 120.241551 -76.054174 
L 120.000014 -76.400825 
L 119.758476 -76.780055 
L 119.516938 -77.192709 
L 119.2754 -77.639336 
L 119.033863 -78.12015 
L 118.792325 -78.635 
L 118.550787 -79.183344 
L 118.30925 -79.764233 
L 118.067712 -80.376297 
L 117.826174 -81.017743 
L 117.584636 -81.686365 
L 117.343099 -82.37956 
L 117.101561 -83.094354 
L 116.860023 -83.827437 
L 116.618485 -84.575215 
L 116.376948 -85.333854 
L 116.13541 -86.099352 
L 115.893872 -86.867593 
L 115.652334 -87.634429 
L 115.410797 -88.395743 
L 115.169259 -89.147521 
L 114.927721 -89.885926 
L 114.686184 -90.607357 
L 114.444646 -91.308508 
L 114.203108 -91.986416 
L 113.96157 -92.638502 
L 113.720033 -93.262598 
L 113.478495 -93.856967 
L 113.236957 -94.420303 
L 112.995419 -94.951732 
L 112.753882 -95.450789 
L 112.512344 -95.917398 
L 112.270806 -96.351838 
L 112.029268 -96.754699 
L 111.787731 -97.126849 
L 111.546193 -97.469381 
L 111.304655 -97.783576 
L 111.063117 -98.070858 
L 110.82158 -98.332762 
L 110.580042 -98.570902 
L 110.338504 -98.786945 
L 110.096967 -98.9826 
L 109.855429 -99.159602 
L 109.613891 -99.319715 
L 109.372353 -99.464732 
L 109.130816 -99.596486 
L 108.889278 -99.716856 
L 108.64774 -99.827782 
L 108.406202 -99.931273 
L 108.164665 -100.029417 
L 107.923127 -100.124382 
L 107.681589 -100.218411 
L 107.440051 -100.313816 
L 107.198514 -100.412955 
L 106.956976 -100.518206 
L 106.715438 -100.631929 
L 106.4739 -100.756425 
L 106.232363 -100.893885 
L 105.990825 -101.046331 
L 105.749287 -101.215561 
L 105.50775 -101.403084 
L 105.266212 -101.610064 
L 105.024674 -101.837263 
L 104.783136 -102.084988 
L 104.541599 -102.353051 
L 104.300061 -102.640741 
L 104.058523 -102.946796 
L 103.816985 -103.269407 
L 103.575448 -103.606223 
L 103.33391 -103.954378 
L 103.092372 -104.310534 
L 102.850834 -104.670941 
L 102.609297 -105.03151 
L 102.367759 -105.387901 
L 102.126221 -105.735624 
L 101.884683 -106.070155 
L 101.643146 -106.387047 
L 101.401608 -106.682058 
L 101.16007 -106.951275 
L 100.918533 -107.191235 
L 100.676995 -107.399042 
L 100.435457 -107.57247 
L 100.193919 -107.710056 
L 99.952382 -107.811175 
L 99.710844 -107.876096 
L 99.469306 -107.90601 
L 99.227768 -107.903038 
L 98.986231 -107.870212 
L 98.744693 -107.811427 
L 98.503155 -107.731371 
L 98.261617 -107.635417 
L 98.02008 -107.529511 
L 97.778542 -107.420017 
L 97.537004 -107.313562 
L 97.295466 -107.216858 
L 97.053929 -107.136514 
L 96.812391 -107.078853 
L 96.570853 -107.049724 
L 96.329316 -107.05432 
L 96.087778 -107.097016 
L 95.84624 -107.181222 
L 95.604702 -107.309254 
L 95.363165 -107.482241 
L 95.121627 -107.700055 
L 94.880089 -107.961281 
L 94.638551 -108.263215 
L 94.397014 -108.601901 
L 94.155476 -108.972204 
L 93.913938 -109.36791 
L 93.6724 -109.781865 
L 93.430863 -110.206128 
L 93.189325 -110.632162 
L 92.947787 -111.051025 
L 92.706249 -111.453585 
L 92.464712 -111.830737 
L 92.223174 -112.173611 
L 91.981636 -112.473785 
L 91.740099 -112.723478 
L 91.498561 -112.915725 
L 91.257023 -113.044532 
L 91.015485 -113.105 
L 90.773948 -113.093425 
L 90.53241 -113.00736 
L 90.290872 -112.845645 
L 90.049334 -112.608405 
L 89.807797 -112.29702 
L 89.566259 -111.91405 
L 89.324721 -111.463153 
L 89.083183 -110.948957 
L 88.841646 -110.376931 
L 88.600108 -109.75323 
L 88.35857 -109.084528 
L 88.117032 -108.377858 
L 87.875495 -107.640437 
L 87.633957 -106.879503 
L 87.392419 -106.102167 
L 87.150882 -105.315264 
L 86.909344 -104.525236 
L 86.667806 -103.73802 
L 86.426268 -102.958968 
L 86.184731 -102.192783 
L 85.943193 -101.443476 
L 85.701655 -100.714351 
L 85.460117 -100.007997 
L 85.21858 -99.326313 
L 84.977042 -98.670537 
L 84.735504 -98.041291 
L 84.493966 -97.438635 
L 84.252429 -96.862129 
L 84.010891 -96.310898 
L 83.769353 -95.783694 
L 83.527815 -95.278962 
L 83.286278 -94.794901 
L 83.04474 -94.329517 
L 82.803202 -93.880676 
L 82.561665 -93.446149 
L 82.320127 -93.02365 
L 82.078589 -92.61087 
L 81.837051 -92.205506 
L 81.595514 -91.805291 
L 81.353976 -91.408013 
L 81.112438 -91.011541 
L 80.8709 -90.613842 
L 80.629363 -90.213012 
L 80.387825 -89.807288 
L 80.146287 -89.395081 
L 79.904749 -88.974991 
L 79.663212 -88.545839 
L 79.421674 -88.106684 
L 79.180136 -87.656847 
L 78.938598 -87.195932 
L 78.697061 -86.723838 
L 78.455523 -86.24077 
L 78.213985 -85.747246 
L 77.972448 -85.24409 
L 77.73091 -84.732429 
L 77.489372 -84.213673 
L 77.247834 -83.689491 
L 77.006297 -83.161783 
L 76.764759 -82.632638 
L 76.523221 -82.104297 
L 76.281683 -81.579108 
L 76.040146 -81.059468 
L 75.798608 -80.547785 
L 75.55707 -80.046419 
L 75.315532 -79.55764 
L 75.073995 -79.083582 
L 74.832457 -78.626201 
L 74.590919 -78.187245 
L 74.349381 -77.768225 
L 74.107844 -77.370391 
L 73.866306 -76.994724 
L 73.624768 -76.641927 
L 73.383231 -76.312424 
L 73.141693 -76.006373 
L 72.900155 -75.723675 
L 72.658617 -75.463993 
L 72.41708 -75.226776 
z
" style="stroke: #414487; stroke-width: 1.25"/>
    </defs>
    <g>
     <use xlink:href="#me696187b0c" x="0" y="174.26" style="fill: #414487; fill-opacity: 0.7; stroke: #414487; stroke-width: 1.25"/>
    </g>
   </g>
   <g id="line2d_6">
    <path d="M 7.2 100.755 
L 216.45 100.755 
" style="fill: none; stroke: #414487; stroke-opacity: 0.9; stroke-linecap: round"/>
   </g>
   <g id="text_6">
    <!-- 5 -->
    <g style="fill: #414487" transform="translate(7.2 99.837) scale(0.12 -0.12)">
     <defs>
      <path id="IBMPlexSans-Bold-35" d="M 3341 3629 
L 1312 3629 
L 1216 2214 
L 1267 2214 
Q 1331 2374 1411 2505 
Q 1491 2637 1600 2729 
Q 1709 2822 1862 2873 
Q 2016 2925 2227 2925 
Q 2515 2925 2764 2829 
Q 3014 2733 3200 2550 
Q 3386 2368 3494 2102 
Q 3603 1837 3603 1504 
Q 3603 1165 3491 873 
Q 3379 582 3158 371 
Q 2938 160 2618 41 
Q 2298 -77 1888 -77 
Q 1562 -77 1312 -6 
Q 1062 64 870 182 
Q 678 301 537 454 
Q 397 608 294 781 
L 992 1331 
Q 1139 1069 1344 886 
Q 1549 704 1894 704 
Q 2240 704 2416 902 
Q 2592 1101 2592 1427 
L 2592 1478 
Q 2592 1786 2413 1965 
Q 2234 2144 1920 2144 
Q 1658 2144 1488 2038 
Q 1318 1933 1229 1830 
L 442 1939 
L 608 4467 
L 3341 4467 
L 3341 3629 
z
" transform="scale(0.015625)"/>
     </defs>
     <use xlink:href="#IBMPlexSans-Bold-35"/>
    </g>
   </g>
  </g>
  <g id="axes_7">
   <g id="patch_8">
    <path d="M 7.2 111.15 
L 216.45 111.15 
L 216.45 69.57 
L 7.2 69.57 
L 7.2 111.15 
z
" style="fill: none"/>
   </g>
   <g id="matplotlib.axis_13">
    <g id="xtick_25"/>
    <g id="xtick_26"/>
    <g id="xtick_27"/>
    <g id="xtick_28"/>
   </g>
   <g id="matplotlib.axis_14"/>
   <g id="FillBetweenPolyCollection_2">
    <defs>
     <path id="m84caa9710e" d="M 53.245055 -63.972237 
L 53.245055 -63.11 
L 53.725062 -63.11 
L 54.205069 -63.11 
L 54.685076 -63.11 
L 55.165083 -63.11 
L 55.645091 -63.11 
L 56.125098 -63.11 
L 56.605105 -63.11 
L 57.085112 -63.11 
L 57.565119 -63.11 
L 58.045126 -63.11 
L 58.525133 -63.11 
L 59.005141 -63.11 
L 59.485148 -63.11 
L 59.965155 -63.11 
L 60.445162 -63.11 
L 60.925169 -63.11 
L 61.405176 -63.11 
L 61.885183 -63.11 
L 62.365191 -63.11 
L 62.845198 -63.11 
L 63.325205 -63.11 
L 63.805212 -63.11 
L 64.285219 -63.11 
L 64.765226 -63.11 
L 65.245233 -63.11 
L 65.725241 -63.11 
L 66.205248 -63.11 
L 66.685255 -63.11 
L 67.165262 -63.11 
L 67.645269 -63.11 
L 68.125276 -63.11 
L 68.605284 -63.11 
L 69.085291 -63.11 
L 69.565298 -63.11 
L 70.045305 -63.11 
L 70.525312 -63.11 
L 71.005319 -63.11 
L 71.485326 -63.11 
L 71.965334 -63.11 
L 72.445341 -63.11 
L 72.925348 -63.11 
L 73.405355 -63.11 
L 73.885362 -63.11 
L 74.365369 -63.11 
L 74.845376 -63.11 
L 75.325384 -63.11 
L 75.805391 -63.11 
L 76.285398 -63.11 
L 76.765405 -63.11 
L 77.245412 -63.11 
L 77.725419 -63.11 
L 78.205426 -63.11 
L 78.685434 -63.11 
L 79.165441 -63.11 
L 79.645448 -63.11 
L 80.125455 -63.11 
L 80.605462 -63.11 
L 81.085469 -63.11 
L 81.565477 -63.11 
L 82.045484 -63.11 
L 82.525491 -63.11 
L 83.005498 -63.11 
L 83.485505 -63.11 
L 83.965512 -63.11 
L 84.445519 -63.11 
L 84.925527 -63.11 
L 85.405534 -63.11 
L 85.885541 -63.11 
L 86.365548 -63.11 
L 86.845555 -63.11 
L 87.325562 -63.11 
L 87.805569 -63.11 
L 88.285577 -63.11 
L 88.765584 -63.11 
L 89.245591 -63.11 
L 89.725598 -63.11 
L 90.205605 -63.11 
L 90.685612 -63.11 
L 91.16562 -63.11 
L 91.645627 -63.11 
L 92.125634 -63.11 
L 92.605641 -63.11 
L 93.085648 -63.11 
L 93.565655 -63.11 
L 94.045662 -63.11 
L 94.52567 -63.11 
L 95.005677 -63.11 
L 95.485684 -63.11 
L 95.965691 -63.11 
L 96.445698 -63.11 
L 96.925705 -63.11 
L 97.405712 -63.11 
L 97.88572 -63.11 
L 98.365727 -63.11 
L 98.845734 -63.11 
L 99.325741 -63.11 
L 99.805748 -63.11 
L 100.285755 -63.11 
L 100.765762 -63.11 
L 101.24577 -63.11 
L 101.725777 -63.11 
L 102.205784 -63.11 
L 102.685791 -63.11 
L 103.165798 -63.11 
L 103.645805 -63.11 
L 104.125813 -63.11 
L 104.60582 -63.11 
L 105.085827 -63.11 
L 105.565834 -63.11 
L 106.045841 -63.11 
L 106.525848 -63.11 
L 107.005855 -63.11 
L 107.485863 -63.11 
L 107.96587 -63.11 
L 108.445877 -63.11 
L 108.925884 -63.11 
L 109.405891 -63.11 
L 109.885898 -63.11 
L 110.365905 -63.11 
L 110.845913 -63.11 
L 111.32592 -63.11 
L 111.805927 -63.11 
L 112.285934 -63.11 
L 112.765941 -63.11 
L 113.245948 -63.11 
L 113.725956 -63.11 
L 114.205963 -63.11 
L 114.68597 -63.11 
L 115.165977 -63.11 
L 115.645984 -63.11 
L 116.125991 -63.11 
L 116.605998 -63.11 
L 117.086006 -63.11 
L 117.566013 -63.11 
L 118.04602 -63.11 
L 118.526027 -63.11 
L 119.006034 -63.11 
L 119.486041 -63.11 
L 119.966048 -63.11 
L 120.446056 -63.11 
L 120.926063 -63.11 
L 121.40607 -63.11 
L 121.886077 -63.11 
L 122.366084 -63.11 
L 122.846091 -63.11 
L 123.326098 -63.11 
L 123.806106 -63.11 
L 124.286113 -63.11 
L 124.76612 -63.11 
L 125.246127 -63.11 
L 125.726134 -63.11 
L 126.206141 -63.11 
L 126.686149 -63.11 
L 127.166156 -63.11 
L 127.646163 -63.11 
L 128.12617 -63.11 
L 128.606177 -63.11 
L 129.086184 -63.11 
L 129.566191 -63.11 
L 130.046199 -63.11 
L 130.526206 -63.11 
L 131.006213 -63.11 
L 131.48622 -63.11 
L 131.966227 -63.11 
L 132.446234 -63.11 
L 132.926241 -63.11 
L 133.406249 -63.11 
L 133.886256 -63.11 
L 134.366263 -63.11 
L 134.84627 -63.11 
L 135.326277 -63.11 
L 135.806284 -63.11 
L 136.286292 -63.11 
L 136.766299 -63.11 
L 137.246306 -63.11 
L 137.726313 -63.11 
L 138.20632 -63.11 
L 138.686327 -63.11 
L 139.166334 -63.11 
L 139.646342 -63.11 
L 140.126349 -63.11 
L 140.606356 -63.11 
L 141.086363 -63.11 
L 141.56637 -63.11 
L 142.046377 -63.11 
L 142.526384 -63.11 
L 143.006392 -63.11 
L 143.486399 -63.11 
L 143.966406 -63.11 
L 144.446413 -63.11 
L 144.92642 -63.11 
L 145.406427 -63.11 
L 145.886434 -63.11 
L 146.366442 -63.11 
L 146.846449 -63.11 
L 147.326456 -63.11 
L 147.806463 -63.11 
L 148.28647 -63.11 
L 148.766477 -63.11 
L 148.766477 -64.409525 
L 148.766477 -64.409525 
L 148.28647 -64.581966 
L 147.806463 -64.770116 
L 147.326456 -64.974356 
L 146.846449 -65.194927 
L 146.366442 -65.431919 
L 145.886434 -65.685259 
L 145.406427 -65.954693 
L 144.92642 -66.239787 
L 144.446413 -66.539918 
L 143.966406 -66.85427 
L 143.486399 -67.181843 
L 143.006392 -67.521454 
L 142.526384 -67.871752 
L 142.046377 -68.231227 
L 141.56637 -68.598234 
L 141.086363 -68.971014 
L 140.606356 -69.347716 
L 140.126349 -69.726426 
L 139.646342 -70.105199 
L 139.166334 -70.482086 
L 138.686327 -70.85517 
L 138.20632 -71.222591 
L 137.726313 -71.582582 
L 137.246306 -71.933492 
L 136.766299 -72.273813 
L 136.286292 -72.602203 
L 135.806284 -72.9175 
L 135.326277 -73.218737 
L 134.84627 -73.50515 
L 134.366263 -73.77618 
L 133.886256 -74.031474 
L 133.406249 -74.270876 
L 132.926241 -74.494419 
L 132.446234 -74.702309 
L 131.966227 -74.894911 
L 131.48622 -75.072729 
L 131.006213 -75.236387 
L 130.526206 -75.386609 
L 130.046199 -75.524199 
L 129.566191 -75.650026 
L 129.086184 -75.765007 
L 128.606177 -75.870091 
L 128.12617 -75.966254 
L 127.646163 -76.054485 
L 127.166156 -76.135786 
L 126.686149 -76.211169 
L 126.206141 -76.281652 
L 125.726134 -76.348263 
L 125.246127 -76.41204 
L 124.76612 -76.474029 
L 124.286113 -76.535291 
L 123.806106 -76.59689 
L 123.326098 -76.659898 
L 122.846091 -76.72538 
L 122.366084 -76.794388 
L 121.886077 -76.867945 
L 121.40607 -76.947025 
L 120.926063 -77.032536 
L 120.446056 -77.125296 
L 119.966048 -77.226006 
L 119.486041 -77.335226 
L 119.006034 -77.45335 
L 118.526027 -77.58058 
L 118.04602 -77.716908 
L 117.566013 -77.862097 
L 117.086006 -78.015664 
L 116.605998 -78.176882 
L 116.125991 -78.344772 
L 115.645984 -78.518112 
L 115.165977 -78.695456 
L 114.68597 -78.875148 
L 114.205963 -79.055362 
L 113.725956 -79.234129 
L 113.245948 -79.409388 
L 112.765941 -79.579031 
L 112.285934 -79.740956 
L 111.805927 -79.893124 
L 111.32592 -80.033617 
L 110.845913 -80.16069 
L 110.365905 -80.272832 
L 109.885898 -80.368813 
L 109.405891 -80.447726 
L 108.925884 -80.509034 
L 108.445877 -80.552589 
L 107.96587 -80.578661 
L 107.485863 -80.58794 
L 107.005855 -80.581537 
L 106.525848 -80.560969 
L 106.045841 -80.528134 
L 105.565834 -80.485268 
L 105.085827 -80.434906 
L 104.60582 -80.379814 
L 104.125813 -80.322928 
L 103.645805 -80.267276 
L 103.165798 -80.215905 
L 102.685791 -80.171791 
L 102.205784 -80.137764 
L 101.725777 -80.116423 
L 101.24577 -80.110059 
L 100.765762 -80.120587 
L 100.285755 -80.149482 
L 99.805748 -80.197727 
L 99.325741 -80.265773 
L 98.845734 -80.353514 
L 98.365727 -80.460271 
L 97.88572 -80.5848 
L 97.405712 -80.725305 
L 96.925705 -80.879474 
L 96.445698 -81.044521 
L 95.965691 -81.217249 
L 95.485684 -81.39412 
L 95.005677 -81.571332 
L 94.52567 -81.744907 
L 94.045662 -81.910783 
L 93.565655 -82.064911 
L 93.085648 -82.20334 
L 92.605641 -82.322319 
L 92.125634 -82.418375 
L 91.645627 -82.488392 
L 91.16562 -82.529682 
L 90.685612 -82.540043 
L 90.205605 -82.517799 
L 89.725598 -82.461836 
L 89.245591 -82.371614 
L 88.765584 -82.247174 
L 88.285577 -82.089121 
L 87.805569 -81.898601 
L 87.325562 -81.677262 
L 86.845555 -81.427201 
L 86.365548 -81.15091 
L 85.885541 -80.851203 
L 85.405534 -80.531147 
L 84.925527 -80.193986 
L 84.445519 -79.843059 
L 83.965512 -79.481731 
L 83.485505 -79.113314 
L 83.005498 -78.741004 
L 82.525491 -78.367816 
L 82.045484 -77.996537 
L 81.565477 -77.629679 
L 81.085469 -77.269449 
L 80.605462 -76.917725 
L 80.125455 -76.576043 
L 79.645448 -76.245599 
L 79.165441 -75.927251 
L 78.685434 -75.621533 
L 78.205426 -75.328682 
L 77.725419 -75.048657 
L 77.245412 -74.781172 
L 76.765405 -74.52573 
L 76.285398 -74.281651 
L 75.805391 -74.04811 
L 75.325384 -73.824163 
L 74.845376 -73.608779 
L 74.365369 -73.400864 
L 73.885362 -73.199286 
L 73.405355 -73.002892 
L 72.925348 -72.810528 
L 72.445341 -72.621052 
L 71.965334 -72.433345 
L 71.485326 -72.246322 
L 71.005319 -72.058944 
L 70.525312 -71.870225 
L 70.045305 -71.67924 
L 69.565298 -71.485137 
L 69.085291 -71.287144 
L 68.605284 -71.084581 
L 68.125276 -70.876872 
L 67.645269 -70.663551 
L 67.165262 -70.444274 
L 66.685255 -70.218833 
L 66.205248 -69.987156 
L 65.725241 -69.749321 
L 65.245233 -69.505551 
L 64.765226 -69.256225 
L 64.285219 -69.001864 
L 63.805212 -68.743136 
L 63.325205 -68.480839 
L 62.845198 -68.215889 
L 62.365191 -67.949308 
L 61.885183 -67.682198 
L 61.405176 -67.415728 
L 60.925169 -67.151102 
L 60.445162 -66.889543 
L 59.965155 -66.632264 
L 59.485148 -66.380444 
L 59.005141 -66.135207 
L 58.525133 -65.897603 
L 58.045126 -65.668586 
L 57.565119 -65.448999 
L 57.085112 -65.239566 
L 56.605105 -65.040877 
L 56.125098 -64.853388 
L 55.645091 -64.677417 
L 55.165083 -64.513145 
L 54.685076 -64.360621 
L 54.205069 -64.219772 
L 53.725062 -64.090408 
L 53.245055 -63.972237 
z
" style="stroke: #355f8d; stroke-width: 1.25"/>
    </defs>
    <g>
     <use xlink:href="#m84caa9710e" x="0" y="174.26" style="fill: #355f8d; fill-opacity: 0.7; stroke: #355f8d; stroke-width: 1.25"/>
    </g>
   </g>
   <g id="line2d_7">
    <path d="M 7.2 111.15 
L 216.45 111.15 
" style="fill: none; stroke: #355f8d; stroke-opacity: 0.9; stroke-linecap: round"/>
   </g>
   <g id="text_7">
    <!-- 6 -->
    <g style="fill: #355f8d" transform="translate(7.2 110.232) scale(0.12 -0.12)">
     <defs>
      <path id="IBMPlexSans-Bold-36" d="M 1946 -77 
Q 1549 -77 1235 48 
Q 922 173 707 406 
Q 493 640 381 966 
Q 269 1293 269 1696 
Q 269 2163 413 2582 
Q 557 3002 784 3357 
Q 1011 3712 1296 3993 
Q 1581 4275 1869 4467 
L 3194 4467 
Q 2784 4173 2457 3907 
Q 2131 3642 1891 3373 
Q 1651 3104 1494 2825 
Q 1338 2547 1274 2227 
L 1331 2208 
Q 1389 2336 1469 2457 
Q 1549 2579 1667 2672 
Q 1786 2765 1946 2822 
Q 2106 2880 2317 2880 
Q 2592 2880 2832 2781 
Q 3072 2682 3248 2502 
Q 3424 2323 3523 2064 
Q 3622 1805 3622 1491 
Q 3622 1146 3504 858 
Q 3386 570 3165 362 
Q 2944 154 2637 38 
Q 2330 -77 1946 -77 
z
M 1946 672 
Q 2266 672 2445 848 
Q 2624 1024 2624 1350 
L 2624 1466 
Q 2624 1792 2445 1968 
Q 2266 2144 1946 2144 
Q 1626 2144 1446 1968 
Q 1267 1792 1267 1466 
L 1267 1350 
Q 1267 1024 1446 848 
Q 1626 672 1946 672 
z
" transform="scale(0.015625)"/>
     </defs>
     <use xlink:href="#IBMPlexSans-Bold-36"/>
    </g>
   </g>
  </g>
  <g id="axes_8">
   <g id="patch_9">
    <path d="M 7.2 121.545 
L 216.45 121.545 
L 216.45 79.965 
L 7.2 79.965 
L 7.2 121.545 
z
" style="fill: none"/>
   </g>
   <g id="matplotlib.axis_15">
    <g id="xtick_29"/>
    <g id="xtick_30"/>
    <g id="xtick_31"/>
    <g id="xtick_32"/>
   </g>
   <g id="matplotlib.axis_16"/>
   <g id="FillBetweenPolyCollection_3">
    <defs>
     <path id="m40704bbcc6" d="M 34.869067 -53.38852 
L 34.869067 -52.715 
L 35.588363 -52.715 
L 36.307659 -52.715 
L 37.026955 -52.715 
L 37.746251 -52.715 
L 38.465547 -52.715 
L 39.184843 -52.715 
L 39.90414 -52.715 
L 40.623436 -52.715 
L 41.342732 -52.715 
L 42.062028 -52.715 
L 42.781324 -52.715 
L 43.50062 -52.715 
L 44.219916 -52.715 
L 44.939212 -52.715 
L 45.658508 -52.715 
L 46.377805 -52.715 
L 47.097101 -52.715 
L 47.816397 -52.715 
L 48.535693 -52.715 
L 49.254989 -52.715 
L 49.974285 -52.715 
L 50.693581 -52.715 
L 51.412877 -52.715 
L 52.132174 -52.715 
L 52.85147 -52.715 
L 53.570766 -52.715 
L 54.290062 -52.715 
L 55.009358 -52.715 
L 55.728654 -52.715 
L 56.44795 -52.715 
L 57.167246 -52.715 
L 57.886542 -52.715 
L 58.605839 -52.715 
L 59.325135 -52.715 
L 60.044431 -52.715 
L 60.763727 -52.715 
L 61.483023 -52.715 
L 62.202319 -52.715 
L 62.921615 -52.715 
L 63.640911 -52.715 
L 64.360208 -52.715 
L 65.079504 -52.715 
L 65.7988 -52.715 
L 66.518096 -52.715 
L 67.237392 -52.715 
L 67.956688 -52.715 
L 68.675984 -52.715 
L 69.39528 -52.715 
L 70.114576 -52.715 
L 70.833873 -52.715 
L 71.553169 -52.715 
L 72.272465 -52.715 
L 72.991761 -52.715 
L 73.711057 -52.715 
L 74.430353 -52.715 
L 75.149649 -52.715 
L 75.868945 -52.715 
L 76.588242 -52.715 
L 77.307538 -52.715 
L 78.026834 -52.715 
L 78.74613 -52.715 
L 79.465426 -52.715 
L 80.184722 -52.715 
L 80.904018 -52.715 
L 81.623314 -52.715 
L 82.34261 -52.715 
L 83.061907 -52.715 
L 83.781203 -52.715 
L 84.500499 -52.715 
L 85.219795 -52.715 
L 85.939091 -52.715 
L 86.658387 -52.715 
L 87.377683 -52.715 
L 88.096979 -52.715 
L 88.816276 -52.715 
L 89.535572 -52.715 
L 90.254868 -52.715 
L 90.974164 -52.715 
L 91.69346 -52.715 
L 92.412756 -52.715 
L 93.132052 -52.715 
L 93.851348 -52.715 
L 94.570644 -52.715 
L 95.289941 -52.715 
L 96.009237 -52.715 
L 96.728533 -52.715 
L 97.447829 -52.715 
L 98.167125 -52.715 
L 98.886421 -52.715 
L 99.605717 -52.715 
L 100.325013 -52.715 
L 101.04431 -52.715 
L 101.763606 -52.715 
L 102.482902 -52.715 
L 103.202198 -52.715 
L 103.921494 -52.715 
L 104.64079 -52.715 
L 105.360086 -52.715 
L 106.079382 -52.715 
L 106.798678 -52.715 
L 107.517975 -52.715 
L 108.237271 -52.715 
L 108.956567 -52.715 
L 109.675863 -52.715 
L 110.395159 -52.715 
L 111.114455 -52.715 
L 111.833751 -52.715 
L 112.553047 -52.715 
L 113.272344 -52.715 
L 113.99164 -52.715 
L 114.710936 -52.715 
L 115.430232 -52.715 
L 116.149528 -52.715 
L 116.868824 -52.715 
L 117.58812 -52.715 
L 118.307416 -52.715 
L 119.026712 -52.715 
L 119.746009 -52.715 
L 120.465305 -52.715 
L 121.184601 -52.715 
L 121.903897 -52.715 
L 122.623193 -52.715 
L 123.342489 -52.715 
L 124.061785 -52.715 
L 124.781081 -52.715 
L 125.500378 -52.715 
L 126.219674 -52.715 
L 126.93897 -52.715 
L 127.658266 -52.715 
L 128.377562 -52.715 
L 129.096858 -52.715 
L 129.816154 -52.715 
L 130.53545 -52.715 
L 131.254746 -52.715 
L 131.974043 -52.715 
L 132.693339 -52.715 
L 133.412635 -52.715 
L 134.131931 -52.715 
L 134.851227 -52.715 
L 135.570523 -52.715 
L 136.289819 -52.715 
L 137.009115 -52.715 
L 137.728412 -52.715 
L 138.447708 -52.715 
L 139.167004 -52.715 
L 139.8863 -52.715 
L 140.605596 -52.715 
L 141.324892 -52.715 
L 142.044188 -52.715 
L 142.763484 -52.715 
L 143.48278 -52.715 
L 144.202077 -52.715 
L 144.921373 -52.715 
L 145.640669 -52.715 
L 146.359965 -52.715 
L 147.079261 -52.715 
L 147.798557 -52.715 
L 148.517853 -52.715 
L 149.237149 -52.715 
L 149.956446 -52.715 
L 150.675742 -52.715 
L 151.395038 -52.715 
L 152.114334 -52.715 
L 152.83363 -52.715 
L 153.552926 -52.715 
L 154.272222 -52.715 
L 154.991518 -52.715 
L 155.710814 -52.715 
L 156.430111 -52.715 
L 157.149407 -52.715 
L 157.868703 -52.715 
L 158.587999 -52.715 
L 159.307295 -52.715 
L 160.026591 -52.715 
L 160.745887 -52.715 
L 161.465183 -52.715 
L 162.18448 -52.715 
L 162.903776 -52.715 
L 163.623072 -52.715 
L 164.342368 -52.715 
L 165.061664 -52.715 
L 165.78096 -52.715 
L 166.500256 -52.715 
L 167.219552 -52.715 
L 167.938848 -52.715 
L 168.658145 -52.715 
L 169.377441 -52.715 
L 170.096737 -52.715 
L 170.816033 -52.715 
L 171.535329 -52.715 
L 172.254625 -52.715 
L 172.973921 -52.715 
L 173.693217 -52.715 
L 174.412514 -52.715 
L 175.13181 -52.715 
L 175.851106 -52.715 
L 176.570402 -52.715 
L 177.289698 -52.715 
L 178.008994 -52.715 
L 178.008994 -53.470727 
L 178.008994 -53.470727 
L 177.289698 -53.572099 
L 176.570402 -53.683017 
L 175.851106 -53.80379 
L 175.13181 -53.934651 
L 174.412514 -54.07576 
L 173.693217 -54.227183 
L 172.973921 -54.388892 
L 172.254625 -54.560758 
L 171.535329 -54.742544 
L 170.816033 -54.933904 
L 170.096737 -55.134381 
L 169.377441 -55.343407 
L 168.658145 -55.560309 
L 167.938848 -55.784312 
L 167.219552 -56.014547 
L 166.500256 -56.250063 
L 165.78096 -56.489832 
L 165.061664 -56.732771 
L 164.342368 -56.97775 
L 163.623072 -57.223612 
L 162.903776 -57.469186 
L 162.18448 -57.713311 
L 161.465183 -57.954843 
L 160.745887 -58.192683 
L 160.026591 -58.425783 
L 159.307295 -58.65317 
L 158.587999 -58.873951 
L 157.868703 -59.087329 
L 157.149407 -59.292609 
L 156.430111 -59.489209 
L 155.710814 -59.676658 
L 154.991518 -59.854603 
L 154.272222 -60.022806 
L 153.552926 -60.181138 
L 152.83363 -60.329582 
L 152.114334 -60.468218 
L 151.395038 -60.597221 
L 150.675742 -60.71685 
L 149.956446 -60.82744 
L 149.237149 -60.929394 
L 148.517853 -61.023173 
L 147.798557 -61.109287 
L 147.079261 -61.188293 
L 146.359965 -61.260785 
L 145.640669 -61.32739 
L 144.921373 -61.388765 
L 144.202077 -61.445594 
L 143.48278 -61.498585 
L 142.763484 -61.548468 
L 142.044188 -61.595994 
L 141.324892 -61.641931 
L 140.605596 -61.687063 
L 139.8863 -61.732181 
L 139.167004 -61.77808 
L 138.447708 -61.825552 
L 137.728412 -61.875374 
L 137.009115 -61.928295 
L 136.289819 -61.985029 
L 135.570523 -62.046233 
L 134.851227 -62.112495 
L 134.131931 -62.184319 
L 133.412635 -62.262105 
L 132.693339 -62.346134 
L 131.974043 -62.436555 
L 131.254746 -62.53337 
L 130.53545 -62.636426 
L 129.816154 -62.745406 
L 129.096858 -62.859828 
L 128.377562 -62.979042 
L 127.658266 -63.10224 
L 126.93897 -63.22846 
L 126.219674 -63.356609 
L 125.500378 -63.485472 
L 124.781081 -63.613745 
L 124.061785 -63.740055 
L 123.342489 -63.862993 
L 122.623193 -63.981147 
L 121.903897 -64.093136 
L 121.184601 -64.197646 
L 120.465305 -64.293464 
L 119.746009 -64.379513 
L 119.026712 -64.454882 
L 118.307416 -64.518857 
L 117.58812 -64.570945 
L 116.868824 -64.610893 
L 116.149528 -64.638704 
L 115.430232 -64.654641 
L 114.710936 -64.659234 
L 113.99164 -64.653272 
L 113.272344 -64.637789 
L 112.553047 -64.614047 
L 111.833751 -64.583508 
L 111.114455 -64.547805 
L 110.395159 -64.508701 
L 109.675863 -64.468046 
L 108.956567 -64.427735 
L 108.237271 -64.389658 
L 107.517975 -64.355646 
L 106.798678 -64.327426 
L 106.079382 -64.306573 
L 105.360086 -64.29446 
L 104.64079 -64.292218 
L 103.921494 -64.300704 
L 103.202198 -64.320463 
L 102.482902 -64.351713 
L 101.763606 -64.394326 
L 101.04431 -64.447826 
L 100.325013 -64.511386 
L 99.605717 -64.583848 
L 98.886421 -64.663741 
L 98.167125 -64.749307 
L 97.447829 -64.838545 
L 96.728533 -64.92925 
L 96.009237 -65.019067 
L 95.289941 -65.105543 
L 94.570644 -65.186182 
L 93.851348 -65.258512 
L 93.132052 -65.320134 
L 92.412756 -65.368786 
L 91.69346 -65.402395 
L 90.974164 -65.419125 
L 90.254868 -65.417425 
L 89.535572 -65.396058 
L 88.816276 -65.354135 
L 88.096979 -65.291133 
L 87.377683 -65.206903 
L 86.658387 -65.101671 
L 85.939091 -64.976029 
L 85.219795 -64.830916 
L 84.500499 -64.667588 
L 83.781203 -64.487588 
L 83.061907 -64.292699 
L 82.34261 -64.084899 
L 81.623314 -63.866309 
L 80.904018 -63.639143 
L 80.184722 -63.405647 
L 79.465426 -63.168056 
L 78.74613 -62.928534 
L 78.026834 -62.689135 
L 77.307538 -62.45176 
L 76.588242 -62.21812 
L 75.868945 -61.989713 
L 75.149649 -61.767802 
L 74.430353 -61.5534 
L 73.711057 -61.347272 
L 72.991761 -61.149932 
L 72.272465 -60.961654 
L 71.553169 -60.782485 
L 70.833873 -60.612268 
L 70.114576 -60.45066 
L 69.39528 -60.297162 
L 68.675984 -60.151142 
L 67.956688 -60.011861 
L 67.237392 -59.878504 
L 66.518096 -59.7502 
L 65.7988 -59.626047 
L 65.079504 -59.505131 
L 64.360208 -59.386547 
L 63.640911 -59.269408 
L 62.921615 -59.152864 
L 62.202319 -59.036108 
L 61.483023 -58.918386 
L 60.763727 -58.799002 
L 60.044431 -58.677324 
L 59.325135 -58.552789 
L 58.605839 -58.424904 
L 57.886542 -58.293249 
L 57.167246 -58.157485 
L 56.44795 -58.017349 
L 55.728654 -57.872663 
L 55.009358 -57.723332 
L 54.290062 -57.569349 
L 53.570766 -57.410795 
L 52.85147 -57.247841 
L 52.132174 -57.080745 
L 51.412877 -56.909853 
L 50.693581 -56.735594 
L 49.974285 -56.558477 
L 49.254989 -56.379086 
L 48.535693 -56.198066 
L 47.816397 -56.016121 
L 47.097101 -55.833997 
L 46.377805 -55.652473 
L 45.658508 -55.472347 
L 44.939212 -55.29442 
L 44.219916 -55.119487 
L 43.50062 -54.948317 
L 42.781324 -54.781642 
L 42.062028 -54.620149 
L 41.342732 -54.464459 
L 40.623436 -54.315128 
L 39.90414 -54.172632 
L 39.184843 -54.037363 
L 38.465547 -53.909628 
L 37.746251 -53.789644 
L 37.026955 -53.677539 
L 36.307659 -53.573355 
L 35.588363 -53.477054 
L 34.869067 -53.38852 
z
" style="stroke: #2a788e; stroke-width: 1.25"/>
    </defs>
    <g>
     <use xlink:href="#m40704bbcc6" x="0" y="174.26" style="fill: #2a788e; fill-opacity: 0.7; stroke: #2a788e; stroke-width: 1.25"/>
    </g>
   </g>
   <g id="line2d_8">
    <path d="M 7.2 121.545 
L 216.45 121.545 
" style="fill: none; stroke: #2a788e; stroke-opacity: 0.9; stroke-linecap: round"/>
   </g>
   <g id="text_8">
    <!-- 7 -->
    <g style="fill: #2a788e" transform="translate(7.2 120.627) scale(0.12 -0.12)">
     <defs>
      <path id="IBMPlexSans-Bold-37" d="M 1062 0 
L 2560 3686 
L 1165 3686 
L 1165 2874 
L 352 2874 
L 352 4467 
L 3514 4467 
L 3514 3635 
L 2074 0 
L 1062 0 
z
" transform="scale(0.015625)"/>
     </defs>
     <use xlink:href="#IBMPlexSans-Bold-37"/>
    </g>
   </g>
  </g>
  <g id="axes_9">
   <g id="patch_10">
    <path d="M 7.2 131.94 
L 216.45 131.94 
L 216.45 90.36 
L 7.2 90.36 
L 7.2 131.94 
z
" style="fill: none"/>
   </g>
   <g id="matplotlib.axis_17">
    <g id="xtick_33">
     <g id="text_9">
      <!-- −2 -->
      <g style="fill: #838383" transform="translate(34.472475 149.58) scale(0.11 -0.11)">
       <defs>
        <path id="IBMPlexSans-Regular-2212" d="M 429 1734 
L 429 2170 
L 3411 2170 
L 3411 1734 
L 429 1734 
z
" transform="scale(0.015625)"/>
        <path id="IBMPlexSans-Regular-32" d="M 3411 0 
L 480 0 
L 480 550 
L 1939 1894 
Q 2253 2182 2464 2505 
Q 2675 2829 2675 3155 
L 2675 3232 
Q 2675 3603 2470 3833 
Q 2266 4064 1850 4064 
Q 1645 4064 1491 4006 
Q 1338 3949 1226 3846 
Q 1114 3744 1040 3606 
Q 966 3469 922 3309 
L 442 3494 
Q 506 3693 618 3881 
Q 730 4070 899 4217 
Q 1069 4365 1309 4454 
Q 1549 4544 1875 4544 
Q 2202 4544 2458 4448 
Q 2714 4352 2886 4179 
Q 3059 4006 3152 3769 
Q 3245 3533 3245 3245 
Q 3245 2982 3171 2758 
Q 3098 2534 2970 2332 
Q 2842 2131 2659 1939 
Q 2477 1747 2266 1555 
L 1062 474 
L 3411 474 
L 3411 0 
z
" transform="scale(0.015625)"/>
       </defs>
       <use xlink:href="#IBMPlexSans-Regular-2212"/>
       <use xlink:href="#IBMPlexSans-Regular-32" transform="translate(59.999985 0)"/>
      </g>
     </g>
    </g>
    <g id="xtick_34">
     <g id="text_10">
      <!-- 0 -->
      <g style="fill: #838383" transform="translate(88.057868 149.58) scale(0.11 -0.11)">
       <defs>
        <path id="IBMPlexSans-Regular-30" d="M 1920 -77 
Q 1120 -77 752 531 
Q 384 1139 384 2234 
Q 384 3328 752 3936 
Q 1120 4544 1920 4544 
Q 2720 4544 3088 3936 
Q 3456 3328 3456 2234 
Q 3456 1139 3088 531 
Q 2720 -77 1920 -77 
z
M 1920 390 
Q 2182 390 2368 499 
Q 2554 608 2669 806 
Q 2784 1005 2838 1273 
Q 2893 1542 2893 1869 
L 2893 2598 
Q 2893 2925 2838 3193 
Q 2784 3462 2669 3660 
Q 2554 3859 2368 3968 
Q 2182 4077 1920 4077 
Q 1658 4077 1472 3968 
Q 1286 3859 1171 3660 
Q 1056 3462 1001 3193 
Q 947 2925 947 2598 
L 947 1869 
Q 947 1542 1001 1273 
Q 1056 1005 1171 806 
Q 1286 608 1472 499 
Q 1658 390 1920 390 
z
" transform="scale(0.015625)"/>
       </defs>
       <use xlink:href="#IBMPlexSans-Regular-30"/>
      </g>
     </g>
    </g>
    <g id="xtick_35">
     <g id="text_11">
      <!-- 2 -->
      <g style="fill: #838383" transform="translate(138.343261 149.58) scale(0.11 -0.11)">
       <use xlink:href="#IBMPlexSans-Regular-32"/>
      </g>
     </g>
    </g>
    <g id="xtick_36">
     <g id="text_12">
      <!-- 4 -->
      <g style="fill: #838383" transform="translate(188.628653 149.58) scale(0.11 -0.11)">
       <defs>
        <path id="IBMPlexSans-Regular-34" d="M 2400 0 
L 2400 877 
L 243 877 
L 243 1350 
L 2112 4467 
L 2912 4467 
L 2912 1325 
L 3558 1325 
L 3558 877 
L 2912 877 
L 2912 0 
L 2400 0 
z
M 749 1325 
L 2400 1325 
L 2400 4051 
L 2368 4051 
L 749 1325 
z
" transform="scale(0.015625)"/>
       </defs>
       <use xlink:href="#IBMPlexSans-Regular-34"/>
      </g>
     </g>
    </g>
    <g id="text_13">
     <!-- sldb -->
     <g style="fill: #262626" transform="translate(100.310625 164.66) scale(0.12 -0.12)">
      <defs>
       <path id="IBMPlexSans-Regular-73" d="M 1536 -77 
Q 1075 -77 764 99 
Q 454 275 230 570 
L 595 864 
Q 787 621 1024 489 
Q 1261 358 1574 358 
Q 1901 358 2083 499 
Q 2266 640 2266 896 
Q 2266 1088 2141 1225 
Q 2016 1363 1690 1414 
L 1427 1453 
Q 1197 1485 1005 1552 
Q 813 1619 669 1731 
Q 525 1843 445 2009 
Q 365 2176 365 2406 
Q 365 2650 454 2832 
Q 544 3014 701 3136 
Q 858 3258 1075 3318 
Q 1293 3379 1542 3379 
Q 1946 3379 2218 3238 
Q 2490 3098 2694 2848 
L 2355 2541 
Q 2246 2694 2035 2819 
Q 1824 2944 1504 2944 
Q 1184 2944 1021 2806 
Q 858 2669 858 2432 
Q 858 2189 1021 2080 
Q 1184 1971 1491 1920 
L 1747 1882 
Q 2298 1798 2528 1564 
Q 2758 1331 2758 954 
Q 2758 474 2432 198 
Q 2106 -77 1536 -77 
z
" transform="scale(0.015625)"/>
       <path id="IBMPlexSans-Regular-6c" d="M 1088 0 
Q 819 0 681 150 
Q 544 301 544 531 
L 544 4736 
L 1056 4736 
L 1056 448 
L 1542 448 
L 1542 0 
L 1088 0 
z
" transform="scale(0.015625)"/>
       <path id="IBMPlexSans-Regular-64" d="M 2656 538 
L 2630 538 
Q 2330 -77 1664 -77 
Q 1357 -77 1107 44 
Q 858 166 682 390 
Q 506 614 413 934 
Q 320 1254 320 1651 
Q 320 2048 413 2368 
Q 506 2688 682 2912 
Q 858 3136 1107 3257 
Q 1357 3379 1664 3379 
Q 2010 3379 2256 3228 
Q 2502 3078 2630 2765 
L 2656 2765 
L 2656 4736 
L 3168 4736 
L 3168 0 
L 2656 0 
L 2656 538 
z
M 1805 384 
Q 1978 384 2134 429 
Q 2291 474 2406 560 
Q 2522 646 2589 771 
Q 2656 896 2656 1056 
L 2656 2285 
Q 2656 2419 2589 2537 
Q 2522 2656 2406 2739 
Q 2291 2822 2134 2870 
Q 1978 2918 1805 2918 
Q 1370 2918 1120 2646 
Q 870 2374 870 1933 
L 870 1370 
Q 870 928 1120 656 
Q 1370 384 1805 384 
z
" transform="scale(0.015625)"/>
       <path id="IBMPlexSans-Regular-62" d="M 544 4736 
L 1056 4736 
L 1056 2765 
L 1082 2765 
Q 1210 3078 1456 3228 
Q 1702 3379 2048 3379 
Q 2355 3379 2604 3257 
Q 2854 3136 3030 2912 
Q 3206 2688 3299 2368 
Q 3392 2048 3392 1651 
Q 3392 1254 3299 934 
Q 3206 614 3030 390 
Q 2854 166 2604 44 
Q 2355 -77 2048 -77 
Q 1376 -77 1082 538 
L 1056 538 
L 1056 0 
L 544 0 
L 544 4736 
z
M 1907 384 
Q 2342 384 2592 656 
Q 2842 928 2842 1370 
L 2842 1933 
Q 2842 2374 2592 2646 
Q 2342 2918 1907 2918 
Q 1734 2918 1577 2870 
Q 1421 2822 1305 2739 
Q 1190 2656 1123 2537 
Q 1056 2419 1056 2285 
L 1056 1056 
Q 1056 896 1123 771 
Q 1190 646 1305 560 
Q 1421 474 1577 429 
Q 1734 384 1907 384 
z
" transform="scale(0.015625)"/>
      </defs>
      <use xlink:href="#IBMPlexSans-Regular-73"/>
      <use xlink:href="#IBMPlexSans-Regular-6c" transform="translate(48.699997 0)"/>
      <use xlink:href="#IBMPlexSans-Regular-64" transform="translate(75.899994 0)"/>
      <use xlink:href="#IBMPlexSans-Regular-62" transform="translate(133.899979 0)"/>
     </g>
    </g>
   </g>
   <g id="matplotlib.axis_18"/>
   <g id="FillBetweenPolyCollection_4">
    <defs>
     <path id="m146a0f6384" d="M 16.711364 -42.885935 
L 16.711364 -42.32 
L 17.66728 -42.32 
L 18.623196 -42.32 
L 19.579111 -42.32 
L 20.535027 -42.32 
L 21.490943 -42.32 
L 22.446859 -42.32 
L 23.402775 -42.32 
L 24.358691 -42.32 
L 25.314607 -42.32 
L 26.270523 -42.32 
L 27.226439 -42.32 
L 28.182355 -42.32 
L 29.138271 -42.32 
L 30.094187 -42.32 
L 31.050103 -42.32 
L 32.006019 -42.32 
L 32.961935 -42.32 
L 33.917851 -42.32 
L 34.873767 -42.32 
L 35.829683 -42.32 
L 36.785598 -42.32 
L 37.741514 -42.32 
L 38.69743 -42.32 
L 39.653346 -42.32 
L 40.609262 -42.32 
L 41.565178 -42.32 
L 42.521094 -42.32 
L 43.47701 -42.32 
L 44.432926 -42.32 
L 45.388842 -42.32 
L 46.344758 -42.32 
L 47.300674 -42.32 
L 48.25659 -42.32 
L 49.212506 -42.32 
L 50.168422 -42.32 
L 51.124338 -42.32 
L 52.080254 -42.32 
L 53.036169 -42.32 
L 53.992085 -42.32 
L 54.948001 -42.32 
L 55.903917 -42.32 
L 56.859833 -42.32 
L 57.815749 -42.32 
L 58.771665 -42.32 
L 59.727581 -42.32 
L 60.683497 -42.32 
L 61.639413 -42.32 
L 62.595329 -42.32 
L 63.551245 -42.32 
L 64.507161 -42.32 
L 65.463077 -42.32 
L 66.418993 -42.32 
L 67.374909 -42.32 
L 68.330825 -42.32 
L 69.286741 -42.32 
L 70.242656 -42.32 
L 71.198572 -42.32 
L 72.154488 -42.32 
L 73.110404 -42.32 
L 74.06632 -42.32 
L 75.022236 -42.32 
L 75.978152 -42.32 
L 76.934068 -42.32 
L 77.889984 -42.32 
L 78.8459 -42.32 
L 79.801816 -42.32 
L 80.757732 -42.32 
L 81.713648 -42.32 
L 82.669564 -42.32 
L 83.62548 -42.32 
L 84.581396 -42.32 
L 85.537312 -42.32 
L 86.493228 -42.32 
L 87.449143 -42.32 
L 88.405059 -42.32 
L 89.360975 -42.32 
L 90.316891 -42.32 
L 91.272807 -42.32 
L 92.228723 -42.32 
L 93.184639 -42.32 
L 94.140555 -42.32 
L 95.096471 -42.32 
L 96.052387 -42.32 
L 97.008303 -42.32 
L 97.964219 -42.32 
L 98.920135 -42.32 
L 99.876051 -42.32 
L 100.831967 -42.32 
L 101.787883 -42.32 
L 102.743799 -42.32 
L 103.699714 -42.32 
L 104.65563 -42.32 
L 105.611546 -42.32 
L 106.567462 -42.32 
L 107.523378 -42.32 
L 108.479294 -42.32 
L 109.43521 -42.32 
L 110.391126 -42.32 
L 111.347042 -42.32 
L 112.302958 -42.32 
L 113.258874 -42.32 
L 114.21479 -42.32 
L 115.170706 -42.32 
L 116.126622 -42.32 
L 117.082538 -42.32 
L 118.038454 -42.32 
L 118.99437 -42.32 
L 119.950286 -42.32 
L 120.906201 -42.32 
L 121.862117 -42.32 
L 122.818033 -42.32 
L 123.773949 -42.32 
L 124.729865 -42.32 
L 125.685781 -42.32 
L 126.641697 -42.32 
L 127.597613 -42.32 
L 128.553529 -42.32 
L 129.509445 -42.32 
L 130.465361 -42.32 
L 131.421277 -42.32 
L 132.377193 -42.32 
L 133.333109 -42.32 
L 134.289025 -42.32 
L 135.244941 -42.32 
L 136.200857 -42.32 
L 137.156772 -42.32 
L 138.112688 -42.32 
L 139.068604 -42.32 
L 140.02452 -42.32 
L 140.980436 -42.32 
L 141.936352 -42.32 
L 142.892268 -42.32 
L 143.848184 -42.32 
L 144.8041 -42.32 
L 145.760016 -42.32 
L 146.715932 -42.32 
L 147.671848 -42.32 
L 148.627764 -42.32 
L 149.58368 -42.32 
L 150.539596 -42.32 
L 151.495512 -42.32 
L 152.451428 -42.32 
L 153.407344 -42.32 
L 154.363259 -42.32 
L 155.319175 -42.32 
L 156.275091 -42.32 
L 157.231007 -42.32 
L 158.186923 -42.32 
L 159.142839 -42.32 
L 160.098755 -42.32 
L 161.054671 -42.32 
L 162.010587 -42.32 
L 162.966503 -42.32 
L 163.922419 -42.32 
L 164.878335 -42.32 
L 165.834251 -42.32 
L 166.790167 -42.32 
L 167.746083 -42.32 
L 168.701999 -42.32 
L 169.657915 -42.32 
L 170.613831 -42.32 
L 171.569746 -42.32 
L 172.525662 -42.32 
L 173.481578 -42.32 
L 174.437494 -42.32 
L 175.39341 -42.32 
L 176.349326 -42.32 
L 177.305242 -42.32 
L 178.261158 -42.32 
L 179.217074 -42.32 
L 180.17299 -42.32 
L 181.128906 -42.32 
L 182.084822 -42.32 
L 183.040738 -42.32 
L 183.996654 -42.32 
L 184.95257 -42.32 
L 185.908486 -42.32 
L 186.864402 -42.32 
L 187.820317 -42.32 
L 188.776233 -42.32 
L 189.732149 -42.32 
L 190.688065 -42.32 
L 191.643981 -42.32 
L 192.599897 -42.32 
L 193.555813 -42.32 
L 194.511729 -42.32 
L 195.467645 -42.32 
L 196.423561 -42.32 
L 197.379477 -42.32 
L 198.335393 -42.32 
L 199.291309 -42.32 
L 200.247225 -42.32 
L 201.203141 -42.32 
L 202.159057 -42.32 
L 203.114973 -42.32 
L 204.070889 -42.32 
L 205.026804 -42.32 
L 205.98272 -42.32 
L 206.938636 -42.32 
L 206.938636 -42.840835 
L 206.938636 -42.840835 
L 205.98272 -42.910053 
L 205.026804 -42.985809 
L 204.070889 -43.068346 
L 203.114973 -43.157865 
L 202.159057 -43.254519 
L 201.203141 -43.358414 
L 200.247225 -43.469594 
L 199.291309 -43.588045 
L 198.335393 -43.713684 
L 197.379477 -43.84636 
L 196.423561 -43.985851 
L 195.467645 -44.131861 
L 194.511729 -44.284023 
L 193.555813 -44.441897 
L 192.599897 -44.604978 
L 191.643981 -44.772693 
L 190.688065 -44.944413 
L 189.732149 -45.119457 
L 188.776233 -45.297099 
L 187.820317 -45.476579 
L 186.864402 -45.657114 
L 185.908486 -45.837905 
L 184.95257 -46.018152 
L 183.996654 -46.197064 
L 183.040738 -46.373867 
L 182.084822 -46.54782 
L 181.128906 -46.718222 
L 180.17299 -46.884422 
L 179.217074 -47.045823 
L 178.261158 -47.201895 
L 177.305242 -47.352175 
L 176.349326 -47.496274 
L 175.39341 -47.633874 
L 174.437494 -47.764735 
L 173.481578 -47.88869 
L 172.525662 -48.005645 
L 171.569746 -48.115573 
L 170.613831 -48.218516 
L 169.657915 -48.314579 
L 168.701999 -48.403923 
L 167.746083 -48.486765 
L 166.790167 -48.563373 
L 165.834251 -48.634062 
L 164.878335 -48.69919 
L 163.922419 -48.759157 
L 162.966503 -48.814401 
L 162.010587 -48.865398 
L 161.054671 -48.912657 
L 160.098755 -48.956718 
L 159.142839 -48.99815 
L 158.186923 -49.037551 
L 157.231007 -49.075537 
L 156.275091 -49.112743 
L 155.319175 -49.149814 
L 154.363259 -49.1874 
L 153.407344 -49.226144 
L 152.451428 -49.266678 
L 151.495512 -49.309608 
L 150.539596 -49.355504 
L 149.58368 -49.404888 
L 148.627764 -49.458224 
L 147.671848 -49.515901 
L 146.715932 -49.578226 
L 145.760016 -49.645412 
L 144.8041 -49.717565 
L 143.848184 -49.794681 
L 142.892268 -49.876634 
L 141.936352 -49.963179 
L 140.980436 -50.053943 
L 140.02452 -50.148435 
L 139.068604 -50.246042 
L 138.112688 -50.346042 
L 137.156772 -50.447613 
L 136.200857 -50.549845 
L 135.244941 -50.651758 
L 134.289025 -50.752319 
L 133.333109 -50.850462 
L 132.377193 -50.945114 
L 131.421277 -51.035214 
L 130.465361 -51.119742 
L 129.509445 -51.197739 
L 128.553529 -51.268338 
L 127.597613 -51.33078 
L 126.641697 -51.38444 
L 125.685781 -51.428845 
L 124.729865 -51.463693 
L 123.773949 -51.488863 
L 122.818033 -51.504423 
L 121.862117 -51.510641 
L 120.906201 -51.507979 
L 119.950286 -51.497088 
L 118.99437 -51.478803 
L 118.038454 -51.454123 
L 117.082538 -51.424192 
L 116.126622 -51.390276 
L 115.170706 -51.353733 
L 114.21479 -51.315982 
L 113.258874 -51.278466 
L 112.302958 -51.242616 
L 111.347042 -51.209815 
L 110.391126 -51.181357 
L 109.43521 -51.158414 
L 108.479294 -51.141998 
L 107.523378 -51.13293 
L 106.567462 -51.131814 
L 105.611546 -51.139016 
L 104.65563 -51.154643 
L 103.699714 -51.178535 
L 102.743799 -51.210265 
L 101.787883 -51.249136 
L 100.831967 -51.294199 
L 99.876051 -51.344266 
L 98.920135 -51.397936 
L 97.964219 -51.453628 
L 97.008303 -51.509615 
L 96.052387 -51.564067 
L 95.096471 -51.615093 
L 94.140555 -51.660791 
L 93.184639 -51.699292 
L 92.228723 -51.728811 
L 91.272807 -51.747692 
L 90.316891 -51.754448 
L 89.360975 -51.747803 
L 88.405059 -51.726725 
L 87.449143 -51.69045 
L 86.493228 -51.638503 
L 85.537312 -51.570711 
L 84.581396 -51.487203 
L 83.62548 -51.388408 
L 82.669564 -51.275042 
L 81.713648 -51.148083 
L 80.757732 -51.008748 
L 79.801816 -50.858457 
L 78.8459 -50.698793 
L 77.889984 -50.531462 
L 76.934068 -50.358244 
L 75.978152 -50.180953 
L 75.022236 -50.001386 
L 74.06632 -49.821284 
L 73.110404 -49.642291 
L 72.154488 -49.465918 
L 71.198572 -49.293515 
L 70.242656 -49.126245 
L 69.286741 -48.965068 
L 68.330825 -48.810729 
L 67.374909 -48.663754 
L 66.418993 -48.524456 
L 65.463077 -48.392936 
L 64.507161 -48.269102 
L 63.551245 -48.152682 
L 62.595329 -48.043247 
L 61.639413 -47.940236 
L 60.683497 -47.842974 
L 59.727581 -47.750704 
L 58.771665 -47.662607 
L 57.815749 -47.577832 
L 56.859833 -47.495508 
L 55.903917 -47.414776 
L 54.948001 -47.3348 
L 53.992085 -47.254783 
L 53.036169 -47.173983 
L 52.080254 -47.091719 
L 51.124338 -47.007383 
L 50.168422 -46.920445 
L 49.212506 -46.830452 
L 48.25659 -46.737038 
L 47.300674 -46.639916 
L 46.344758 -46.538882 
L 45.388842 -46.433814 
L 44.432926 -46.324667 
L 43.47701 -46.211469 
L 42.521094 -46.094323 
L 41.565178 -45.973394 
L 40.609262 -45.848915 
L 39.653346 -45.721174 
L 38.69743 -45.590515 
L 37.741514 -45.457331 
L 36.785598 -45.322055 
L 35.829683 -45.185162 
L 34.873767 -45.047155 
L 33.917851 -44.908565 
L 32.961935 -44.76994 
L 32.006019 -44.63184 
L 31.050103 -44.494828 
L 30.094187 -44.359465 
L 29.138271 -44.226301 
L 28.182355 -44.095869 
L 27.226439 -43.968674 
L 26.270523 -43.845191 
L 25.314607 -43.725856 
L 24.358691 -43.611063 
L 23.402775 -43.501154 
L 22.446859 -43.396421 
L 21.490943 -43.2971 
L 20.535027 -43.20337 
L 19.579111 -43.115351 
L 18.623196 -43.033109 
L 17.66728 -42.956652 
L 16.711364 -42.885935 
z
" style="stroke: #21918c; stroke-width: 1.25"/>
    </defs>
    <g>
     <use xlink:href="#m146a0f6384" x="0" y="174.26" style="fill: #21918c; fill-opacity: 0.7; stroke: #21918c; stroke-width: 1.25"/>
    </g>
   </g>
   <g id="line2d_9">
    <path d="M 7.2 131.94 
L 216.45 131.94 
" style="fill: none; stroke: #21918c; stroke-opacity: 0.9; stroke-linecap: round"/>
   </g>
   <g id="text_14">
    <!-- 8 -->
    <g style="fill: #21918c" transform="translate(7.2 131.022) scale(0.12 -0.12)">
     <defs>
      <path id="IBMPlexSans-Bold-38" d="M 1920 -77 
Q 1523 -77 1212 22 
Q 902 122 691 294 
Q 480 467 368 704 
Q 256 941 256 1222 
Q 256 1651 493 1923 
Q 730 2195 1133 2304 
L 1133 2355 
Q 806 2477 598 2726 
Q 390 2976 390 3366 
Q 390 3622 489 3840 
Q 589 4058 784 4214 
Q 979 4371 1264 4457 
Q 1549 4544 1920 4544 
Q 2291 4544 2576 4457 
Q 2861 4371 3056 4214 
Q 3251 4058 3350 3840 
Q 3450 3622 3450 3366 
Q 3450 2976 3242 2726 
Q 3034 2477 2707 2355 
L 2707 2304 
Q 3110 2195 3347 1923 
Q 3584 1651 3584 1222 
Q 3584 941 3472 704 
Q 3360 467 3149 294 
Q 2938 122 2627 22 
Q 2317 -77 1920 -77 
z
M 1920 659 
Q 2240 659 2409 809 
Q 2579 960 2579 1229 
L 2579 1357 
Q 2579 1626 2409 1776 
Q 2240 1926 1920 1926 
Q 1600 1926 1430 1776 
Q 1261 1626 1261 1357 
L 1261 1229 
Q 1261 960 1430 809 
Q 1600 659 1920 659 
z
M 1920 2630 
Q 2227 2630 2387 2774 
Q 2547 2918 2547 3168 
L 2547 3270 
Q 2547 3520 2387 3664 
Q 2227 3808 1920 3808 
Q 1613 3808 1453 3664 
Q 1293 3520 1293 3270 
L 1293 3168 
Q 1293 2918 1453 2774 
Q 1613 2630 1920 2630 
z
" transform="scale(0.015625)"/>
     </defs>
     <use xlink:href="#IBMPlexSans-Bold-38"/>
    </g>
   </g>
  </g>
 </g>
</svg>
