<svg xmlns="http://www.w3.org/2000/svg" xmlns:xlink="http://www.w3.org/1999/xlink" xmlns:inkscape="http://www.inkscape.org/namespaces/inkscape" version="1.1" width="124.826" height="43.6104" viewBox="0 0 124.826 43.6104">
<defs>
<clipPath id="clip_0">
<path transform="matrix(1,0,0,-1,0,43.6104)" d="M0 43.61H124.826V0H0Z"/>
</clipPath>
</defs>
<g inkscape:groupmode="layer" inkscape:label="boundary">
</g>
<g inkscape:groupmode="layer" inkscape:label="delta">
<path transform="matrix(1,0,0,-1,101.2195,21.576)" d="M0 0 4.543 7.868 9.085 0Z" fill="rgba(0,0,0,0.0)"/>
<path transform="matrix(1,0,0,-1,101.734,20.931002)" d="M0 0H-8.056L-4.028-6.977Z" fill="#008c4f"/>
<path transform="matrix(1,0,0,-1,109.7902,20.931002)" d="M0 0H-8.056L-12.084-6.977H4.028Z" fill="#0093d0"/>
<path transform="matrix(1,0,0,-1,117.8463,20.931002)" d="M0 0H-8.056L-4.028-6.977Z" fill="#1d378b"/>
<path transform="matrix(1,0,0,-1,109.7902,6.9773027)" d="M0 0H-8.056L-4.028-6.977Z" fill="#a12b30"/>
<path transform="matrix(1,0,0,-1,109.7902,6.9773027)" d="M0 0-4.028-6.977 0-13.954H8.056Z" fill="#e22a2b"/>
<path transform="matrix(1,0,0,-1,101.7342,20.931002)" d="M0 0 4.028 6.977 0 13.954-8.056 0Z" fill="#85c440"/>
</g>
<g inkscape:groupmode="layer" inkscape:label="text">
<g clip-path="url(#clip_0)">
<path transform="matrix(1,0,0,-1,45.2122,36.6356)" d="M0 0-1.225 2.128C-1.411 2.447-1.553 2.76-1.677 3.035-1.652 2.673-1.64 2.01-1.64 1.505V0H-2.419V4.214H-1.374L-.21 2.204C-.019 1.88 .149 1.53 .303 1.212 .272 1.635 .26 2.385 .26 2.903V4.214H1.04V0Z" fill="#231f20"/>
<path transform="matrix(1,0,0,-1,49.2043,34.0259)" d="M0 0C-.081 .232-.142 .437-.192 .675H-.198C-.248 .456-.316 .212-.397-.031L-.774-1.104H.39ZM.891-2.61 .6-1.748H-.978L-1.269-2.61H-2.08L-.62 1.605H.291L1.782-2.61Z" fill="#231f20"/>
<path transform="matrix(1,0,0,-1,53.2222,33.1141)" d="M0 0V-3.521H-.805V0H-1.888V.693H1.083V0Z" fill="#231f20"/>
<path transform="matrix(1,0,0,-1,0,43.6104)" d="M55.222 11.189H56.027V6.975H55.222Z" fill="#231f20"/>
<path transform="matrix(1,0,0,-1,58.9838,33.0821)" d="M0 0C-.577 0-1.109-.463-1.109-1.412-1.109-2.304-.762-2.886-.013-2.886 .531-2.886 1.113-2.461 1.113-1.45 1.113-.513 .717 0 0 0M-.068-3.622C-1.344-3.622-1.969-2.804-1.969-1.499-1.969-.107-1.047 .73 .073 .73 1.187 .73 1.973 .056 1.973-1.387 1.973-2.78 1.063-3.622-.068-3.622" fill="#231f20"/>
<path transform="matrix(1,0,0,-1,64.199,36.6356)" d="M0 0-1.226 2.128C-1.411 2.447-1.553 2.76-1.678 3.035-1.652 2.673-1.641 2.01-1.641 1.505V0H-2.42V4.214H-1.374L-.21 2.204C-.018 1.88 .149 1.53 .303 1.212 .273 1.635 .26 2.385 .26 2.903V4.214H1.039V0Z" fill="#231f20"/>
<path transform="matrix(1,0,0,-1,68.2342,34.0259)" d="M0 0C-.08 .232-.142 .437-.192 .675H-.198C-.247 .456-.317 .212-.397-.031L-.774-1.104H.389ZM.891-2.61 .6-1.748H-.978L-1.269-2.61H-2.079L-.618 1.605H.291L1.782-2.61Z" fill="#231f20"/>
<path transform="matrix(1,0,0,-1,70.9333,36.6356)" d="M0 0V4.214H.804V.712H2.16V0Z" fill="#231f20"/>
<path transform="matrix(1,0,0,-1,75.6977,36.6356)" d="M0 0V4.214H.805V.712H2.16V0Z" fill="#231f20"/>
<path transform="matrix(1,0,0,-1,80.8531,34.0259)" d="M0 0C-.08 .232-.142 .437-.192 .675H-.198C-.246 .456-.315 .212-.396-.031L-.773-1.104H.391ZM.892-2.61 .601-1.748H-.977L-1.268-2.61H-2.079L-.618 1.605H.292L1.783-2.61Z" fill="#231f20"/>
<path transform="matrix(1,0,0,-1,84.6898,34.7745)" d="M0 0C-.063 0-.266 0-.353-.006V-1.187C-.254-1.199-.1-1.212 .087-1.212 .612-1.212 .879-.962 .879-.582 .879-.169 .526 0 0 0M.117 1.722C-.049 1.722-.21 1.716-.353 1.71V.612C-.254 .605-.156 .605-.024 .605 .526 .605 .811 .829 .811 1.204 .811 1.517 .625 1.722 .117 1.722M.061-1.874C-.193-1.874-.632-1.861-1.157-1.861V2.347C-.805 2.366-.26 2.378 .253 2.378 1.157 2.378 1.658 2.009 1.658 1.336 1.658 .918 1.393 .549 .996 .393V.381C1.491 .274 1.738-.138 1.738-.563 1.738-1.174 1.324-1.874 .061-1.874" fill="#231f20"/>
<path transform="matrix(1,0,0,-1,89.2462,33.0821)" d="M0 0C-.576 0-1.108-.463-1.108-1.412-1.108-2.304-.762-2.886-.012-2.886 .532-2.886 1.114-2.461 1.114-1.45 1.114-.513 .718 0 0 0M-.069-3.622C-1.342-3.622-1.968-2.804-1.968-1.499-1.968-.107-1.046 .73 .074 .73 1.188 .73 1.974 .056 1.974-1.387 1.974-2.78 1.065-3.622-.069-3.622" fill="#231f20"/>
<path transform="matrix(1,0,0,-1,93.2329,33.058004)" d="M0 0C-.118 0-.236-.007-.316-.019V-1.236C-.26-1.242-.149-1.249-.024-1.249 .458-1.249 .755-.999 .755-.606 .755-.2 .508 0 0 0M.88-3.578-.284-1.836H-.316V-3.578H-1.12V.637C-.793 .656-.402 .662 .08 .662 1.003 .662 1.597 .337 1.597-.525 1.597-1.149 1.163-1.598 .531-1.698 .65-1.854 .768-2.016 .873-2.161L1.876-3.578Z" fill="#231f20"/>
<path transform="matrix(1,0,0,-1,105.1987,33.0821)" d="M0 0C-.576 0-1.108-.463-1.108-1.412-1.108-2.304-.762-2.886-.012-2.886 .532-2.886 1.114-2.461 1.114-1.45 1.114-.513 .718 0 0 0M-.069-3.622C-1.343-3.622-1.968-2.804-1.968-1.499-1.968-.107-1.046 .73 .073 .73 1.188 .73 1.974 .056 1.974-1.387 1.974-2.78 1.064-3.622-.069-3.622" fill="#231f20"/>
<path transform="matrix(1,0,0,-1,109.1389,33.058004)" d="M0 0C-.118 0-.236-.007-.316-.019V-1.236C-.259-1.242-.148-1.249-.024-1.249 .458-1.249 .755-.999 .755-.606 .755-.2 .508 0 0 0M.88-3.578-.284-1.836H-.316V-3.578H-1.12V.637C-.793 .656-.402 .662 .08 .662 1.003 .662 1.598 .337 1.598-.525 1.598-1.149 1.164-1.598 .532-1.698 .65-1.854 .768-2.016 .873-2.161L1.876-3.578Z" fill="#231f20"/>
<path transform="matrix(1,0,0,-1,97.807,34.0259)" d="M0 0C-.081 .232-.142 .437-.193 .675H-.199C-.247 .456-.316 .212-.397-.031L-.774-1.104H.389ZM.89-2.61 .6-1.748H-.978L-1.268-2.61H-2.08L-.619 1.605H.29L1.783-2.61Z" fill="#231f20"/>
<path transform="matrix(1,0,0,-1,101.6537,33.1141)" d="M0 0V-3.521H-.805V0H-1.887V.693H1.083V0Z" fill="#231f20"/>
<path transform="matrix(1,0,0,-1,113.6816,35.1426)" d="M0 0V-1.493H-.804V-.007L-2.109 2.721H-1.231L-.68 1.51C-.568 1.261-.476 1.03-.396 .81H-.383C-.296 1.054-.173 1.323-.049 1.592L.477 2.721H1.331Z" fill="#231f20"/>
<path transform="matrix(1,0,0,-1,14.8451,15.588301)" d="M0 0C-.32 .836-.541 1.573-.738 2.433H-.787C-.983 1.622-1.229 .836-1.525 .024L-3.934-6.541H2.409ZM4.377-12.122 2.926-8.04H-4.451L-5.925-12.122H-7.868L-1.697 4.474H.344L6.515-12.122Z" fill="#231f20"/>
<path transform="matrix(1,0,0,-1,28.786,17.088202)" d="M0 0C-2.704 .442-3.983-1.623-3.983-5.729V-10.622H-5.828V1.598H-4.008C-4.008 .786-4.106-.418-4.279-1.476L-4.254-1.5C-3.762 .295-2.483 2.114 .074 1.819Z" fill="#231f20"/>
<path transform="matrix(1,0,0,-1,35.09,16.695002)" d="M0 0C-2.115 0-3.368-1.304-3.368-3.098-3.368-5.089-2.163-6.147-.099-6.147 1.918-6.147 3.221-5.065 3.221-3.098 3.221-1.131 2.016 0 0 0M1.254-11.089H-1.254C-1.5-11.089-1.819-11.089-2.04-11.064-3.098-11.606-3.787-12.491-3.787-13.523-3.787-15.096-2.262-15.933-.221-15.933 2.459-15.933 4.032-14.801 4.032-13.179 4.032-11.876 3.123-11.089 1.254-11.089M-.541-17.432C-3.639-17.432-5.631-16.179-5.631-13.843-5.631-12.318-4.672-11.188-3.516-10.597-4.278-10.253-4.745-9.614-4.745-8.827-4.745-7.991-4.254-7.228-3.393-6.836-4.622-6.122-5.212-4.868-5.212-3.295-5.212-.738-3.221 1.426 .099 1.426 .556 1.426 .938 1.393 1.33 1.328 1.528 1.295 3.155 1.205 3.434 1.205H6.098V-.246H4.64C4.519-.246 3.812-.2 3.812-.2 3.812-.2 3.802-.179 3.885-.246 4.589-.815 5.065-1.77 5.065-2.926 5.065-5.533 3.27-7.524-.246-7.524-.811-7.524-1.475-7.45-1.918-7.352-2.533-7.573-2.827-8.015-2.827-8.458-2.827-9.171-2.139-9.491-.615-9.491H1.77C4.425-9.491 5.876-10.794 5.876-12.933 5.876-15.515 3.221-17.432-.541-17.432" fill="#231f20"/>
<path transform="matrix(1,0,0,-1,47.2774,16.793202)" d="M0 0C-1.917 0-3.737-1.451-3.737-4.721-3.737-7.844-2.385-9.564 0-9.564 1.918-9.564 3.664-8.089 3.664-4.721 3.664-1.771 2.434 0 0 0M-.27-11.139C-3.54-11.139-5.654-9.146-5.654-4.869-5.654-1.377-3.49 1.524 .173 1.524 3.147 1.524 5.582-.123 5.582-4.598 5.582-8.237 3.344-11.139-.27-11.139" fill="#231f20"/>
<path transform="matrix(1,0,0,-1,62.4518,27.7103)" d="M0 0V7.917C0 9.835-.516 10.941-2.287 10.941-4.475 10.941-6.024 8.778-6.024 5.876V0H-7.868V12.22H-6.049C-6.049 11.433-6.123 10.253-6.245 9.516L-6.196 9.491C-5.508 11.261-3.959 12.466-1.82 12.466 .983 12.466 1.844 10.696 1.844 8.532V0Z" fill="#231f20"/>
<path transform="matrix(1,0,0,-1,75.2314,27.7103)" d="M0 0V7.917C0 9.835-.517 10.941-2.286 10.941-4.475 10.941-6.023 8.778-6.023 5.876V0H-7.868V12.22H-6.048C-6.048 11.433-6.122 10.253-6.245 9.516L-6.196 9.491C-5.507 11.261-3.958 12.466-1.819 12.466 .984 12.466 1.844 10.696 1.844 8.532V0Z" fill="#231f20"/>
<path transform="matrix(1,0,0,-1,84.0861,16.670302)" d="M0 0C-1.721 0-2.951-1.254-3.246-3.172H2.95C3-1.279 1.869 0 0 0M4.819-4.549H-3.344C-3.467-8.212-2.016-9.736 .713-9.736 1.992-9.736 3.344-9.417 4.254-8.95L4.425-10.523C3.295-10.991 1.917-11.262 .393-11.262-3.295-11.262-5.262-9.269-5.262-4.992-5.262-1.328-3.295 1.401 .099 1.401 3.467 1.401 4.868-.935 4.868-3.639 4.868-3.86 4.868-4.18 4.819-4.549" fill="#231f20"/>
</g>
</g>
</svg>
