<?xml version="1.0" encoding="utf-8" standalone="no"?>
<!DOCTYPE svg PUBLIC "-//W3C//DTD SVG 1.1//EN"
  "http://www.w3.org/Graphics/SVG/1.1/DTD/svg11.dtd">
<svg xmlns:xlink="http://www.w3.org/1999/xlink" width="407.964375pt" height="311.948pt" viewBox="0 0 407.964375 311.948" xmlns="http://www.w3.org/2000/svg" version="1.1">
 <metadata>
  <rdf:RDF xmlns:dc="http://purl.org/dc/elements/1.1/" xmlns:cc="http://creativecommons.org/ns#" xmlns:rdf="http://www.w3.org/1999/02/22-rdf-syntax-ns#">
   <cc:Work>
    <dc:type rdf:resource="http://purl.org/dc/dcmitype/StillImage"/>
    <dc:date>2024-07-04T21:21:23.395174</dc:date>
    <dc:format>image/svg+xml</dc:format>
    <dc:creator>
     <cc:Agent>
      <dc:title>Matplotlib v3.8.4, https://matplotlib.org/</dc:title>
     </cc:Agent>
    </dc:creator>
   </cc:Work>
  </rdf:RDF>
 </metadata>
 <defs>
  <style type="text/css">*{stroke-linejoin: round; stroke-linecap: butt}</style>
 </defs>
 <g id="figure_1">
  <g id="patch_1">
   <path d="M 0 311.948 
L 407.964375 311.948 
L 407.964375 0 
L 0 0 
L 0 311.948 
z
" style="fill: none"/>
  </g>
  <g id="axes_1">
   <g id="patch_2">
    <path d="M 43.644375 289.968 
L 400.764375 289.968 
L 400.764375 23.856 
L 43.644375 23.856 
L 43.644375 289.968 
z
" style="fill: none"/>
   </g>
   <g id="matplotlib.axis_1">
    <g id="xtick_1">
     <g id="line2d_1">
      <path d="M 59.877102 289.968 
L 59.877102 23.856 
" clip-path="url(#p4d33969e90)" style="fill: none; stroke-dasharray: 1.48,0.64; stroke-dashoffset: 0; stroke: #838383; stroke-opacity: 0.25; stroke-width: 0.4"/>
     </g>
     <g id="line2d_2"/>
     <g id="text_1">
      <!-- 0 -->
      <g style="fill: #838383" transform="translate(56.277102 302.348) scale(0.12 -0.12)">
       <defs>
        <path id="IBMPlexSans-Regular-30" d="M 1920 -77 
Q 1120 -77 752 531 
Q 384 1139 384 2234 
Q 384 3328 752 3936 
Q 1120 4544 1920 4544 
Q 2720 4544 3088 3936 
Q 3456 3328 3456 2234 
Q 3456 1139 3088 531 
Q 2720 -77 1920 -77 
z
M 1920 390 
Q 2182 390 2368 499 
Q 2554 608 2669 806 
Q 2784 1005 2838 1273 
Q 2893 1542 2893 1869 
L 2893 2598 
Q 2893 2925 2838 3193 
Q 2784 3462 2669 3660 
Q 2554 3859 2368 3968 
Q 2182 4077 1920 4077 
Q 1658 4077 1472 3968 
Q 1286 3859 1171 3660 
Q 1056 3462 1001 3193 
Q 947 2925 947 2598 
L 947 1869 
Q 947 1542 1001 1273 
Q 1056 1005 1171 806 
Q 1286 608 1472 499 
Q 1658 390 1920 390 
z
" transform="scale(0.015625)"/>
       </defs>
       <use xlink:href="#IBMPlexSans-Regular-30"/>
      </g>
     </g>
    </g>
    <g id="xtick_2">
     <g id="line2d_3">
      <path d="M 125.331648 289.968 
L 125.331648 23.856 
" clip-path="url(#p4d33969e90)" style="fill: none; stroke-dasharray: 1.48,0.64; stroke-dashoffset: 0; stroke: #838383; stroke-opacity: 0.25; stroke-width: 0.4"/>
     </g>
     <g id="line2d_4"/>
     <g id="text_2">
      <!-- 50 -->
      <g style="fill: #838383" transform="translate(118.131648 302.348) scale(0.12 -0.12)">
       <defs>
        <path id="IBMPlexSans-Regular-35" d="M 3187 3994 
L 1229 3994 
L 1101 2291 
L 1146 2291 
Q 1306 2515 1507 2649 
Q 1709 2784 2061 2784 
Q 2349 2784 2592 2688 
Q 2835 2592 3014 2416 
Q 3194 2240 3293 1984 
Q 3392 1728 3392 1402 
Q 3392 1075 3289 803 
Q 3187 531 2992 336 
Q 2797 141 2518 32 
Q 2240 -77 1888 -77 
Q 1606 -77 1392 -13 
Q 1178 51 1011 160 
Q 845 269 720 403 
Q 595 538 493 685 
L 896 992 
Q 979 858 1072 749 
Q 1165 640 1277 563 
Q 1389 486 1536 444 
Q 1683 403 1888 403 
Q 2349 403 2585 646 
Q 2822 890 2822 1331 
L 2822 1395 
Q 2822 1837 2585 2080 
Q 2349 2323 1888 2323 
Q 1581 2323 1405 2211 
Q 1229 2099 1088 1946 
L 634 2010 
L 794 4467 
L 3187 4467 
L 3187 3994 
z
" transform="scale(0.015625)"/>
       </defs>
       <use xlink:href="#IBMPlexSans-Regular-35"/>
       <use xlink:href="#IBMPlexSans-Regular-30" x="59.999985"/>
      </g>
     </g>
    </g>
    <g id="xtick_3">
     <g id="line2d_5">
      <path d="M 190.786193 289.968 
L 190.786193 23.856 
" clip-path="url(#p4d33969e90)" style="fill: none; stroke-dasharray: 1.48,0.64; stroke-dashoffset: 0; stroke: #838383; stroke-opacity: 0.25; stroke-width: 0.4"/>
     </g>
     <g id="line2d_6"/>
     <g id="text_3">
      <!-- 100 -->
      <g style="fill: #838383" transform="translate(179.986193 302.348) scale(0.12 -0.12)">
       <defs>
        <path id="IBMPlexSans-Regular-31" d="M 563 0 
L 563 474 
L 1811 474 
L 1811 4070 
L 1766 4070 
L 640 3021 
L 326 3360 
L 1510 4467 
L 2349 4467 
L 2349 474 
L 3501 474 
L 3501 0 
L 563 0 
z
" transform="scale(0.015625)"/>
       </defs>
       <use xlink:href="#IBMPlexSans-Regular-31"/>
       <use xlink:href="#IBMPlexSans-Regular-30" x="59.999985"/>
       <use xlink:href="#IBMPlexSans-Regular-30" x="119.999969"/>
      </g>
     </g>
    </g>
    <g id="xtick_4">
     <g id="line2d_7">
      <path d="M 256.240739 289.968 
L 256.240739 23.856 
" clip-path="url(#p4d33969e90)" style="fill: none; stroke-dasharray: 1.48,0.64; stroke-dashoffset: 0; stroke: #838383; stroke-opacity: 0.25; stroke-width: 0.4"/>
     </g>
     <g id="line2d_8"/>
     <g id="text_4">
      <!-- 150 -->
      <g style="fill: #838383" transform="translate(245.440739 302.348) scale(0.12 -0.12)">
       <use xlink:href="#IBMPlexSans-Regular-31"/>
       <use xlink:href="#IBMPlexSans-Regular-35" x="59.999985"/>
       <use xlink:href="#IBMPlexSans-Regular-30" x="119.999969"/>
      </g>
     </g>
    </g>
    <g id="xtick_5">
     <g id="line2d_9">
      <path d="M 321.695284 289.968 
L 321.695284 23.856 
" clip-path="url(#p4d33969e90)" style="fill: none; stroke-dasharray: 1.48,0.64; stroke-dashoffset: 0; stroke: #838383; stroke-opacity: 0.25; stroke-width: 0.4"/>
     </g>
     <g id="line2d_10"/>
     <g id="text_5">
      <!-- 200 -->
      <g style="fill: #838383" transform="translate(310.895284 302.348) scale(0.12 -0.12)">
       <defs>
        <path id="IBMPlexSans-Regular-32" d="M 3411 0 
L 480 0 
L 480 550 
L 1939 1894 
Q 2253 2182 2464 2505 
Q 2675 2829 2675 3155 
L 2675 3232 
Q 2675 3603 2470 3833 
Q 2266 4064 1850 4064 
Q 1645 4064 1491 4006 
Q 1338 3949 1226 3846 
Q 1114 3744 1040 3606 
Q 966 3469 922 3309 
L 442 3494 
Q 506 3693 618 3881 
Q 730 4070 899 4217 
Q 1069 4365 1309 4454 
Q 1549 4544 1875 4544 
Q 2202 4544 2458 4448 
Q 2714 4352 2886 4179 
Q 3059 4006 3152 3769 
Q 3245 3533 3245 3245 
Q 3245 2982 3171 2758 
Q 3098 2534 2970 2332 
Q 2842 2131 2659 1939 
Q 2477 1747 2266 1555 
L 1062 474 
L 3411 474 
L 3411 0 
z
" transform="scale(0.015625)"/>
       </defs>
       <use xlink:href="#IBMPlexSans-Regular-32"/>
       <use xlink:href="#IBMPlexSans-Regular-30" x="59.999985"/>
       <use xlink:href="#IBMPlexSans-Regular-30" x="119.999969"/>
      </g>
     </g>
    </g>
    <g id="xtick_6">
     <g id="line2d_11">
      <path d="M 387.14983 289.968 
L 387.14983 23.856 
" clip-path="url(#p4d33969e90)" style="fill: none; stroke-dasharray: 1.48,0.64; stroke-dashoffset: 0; stroke: #838383; stroke-opacity: 0.25; stroke-width: 0.4"/>
     </g>
     <g id="line2d_12"/>
     <g id="text_6">
      <!-- 250 -->
      <g style="fill: #838383" transform="translate(376.34983 302.348) scale(0.12 -0.12)">
       <use xlink:href="#IBMPlexSans-Regular-32"/>
       <use xlink:href="#IBMPlexSans-Regular-35" x="59.999985"/>
       <use xlink:href="#IBMPlexSans-Regular-30" x="119.999969"/>
      </g>
     </g>
    </g>
   </g>
   <g id="matplotlib.axis_2">
    <g id="ytick_1">
     <g id="line2d_13">
      <path d="M 43.644375 277.872 
L 400.764375 277.872 
" clip-path="url(#p4d33969e90)" style="fill: none; stroke-dasharray: 1.48,0.64; stroke-dashoffset: 0; stroke: #838383; stroke-opacity: 0.25; stroke-width: 0.4"/>
     </g>
     <g id="line2d_14"/>
     <g id="text_7">
      <!-- 5.7 -->
      <g style="fill: #838383" transform="translate(22.48 282.312) scale(0.12 -0.12)">
       <defs>
        <path id="IBMPlexSans-Regular-2e" d="M 870 -77 
Q 666 -77 573 25 
Q 480 128 480 294 
L 480 378 
Q 480 544 573 646 
Q 666 749 870 749 
Q 1075 749 1168 646 
Q 1261 544 1261 378 
L 1261 294 
Q 1261 128 1168 25 
Q 1075 -77 870 -77 
z
" transform="scale(0.015625)"/>
        <path id="IBMPlexSans-Regular-37" d="M 1120 0 
L 2829 4006 
L 922 4006 
L 922 3174 
L 442 3174 
L 442 4467 
L 3373 4467 
L 3373 3994 
L 1696 0 
L 1120 0 
z
" transform="scale(0.015625)"/>
       </defs>
       <use xlink:href="#IBMPlexSans-Regular-35"/>
       <use xlink:href="#IBMPlexSans-Regular-2e" x="59.999985"/>
       <use xlink:href="#IBMPlexSans-Regular-37" x="87.199982"/>
      </g>
     </g>
    </g>
    <g id="ytick_2">
     <g id="line2d_15">
      <path d="M 43.644375 237.552 
L 400.764375 237.552 
" clip-path="url(#p4d33969e90)" style="fill: none; stroke-dasharray: 1.48,0.64; stroke-dashoffset: 0; stroke: #838383; stroke-opacity: 0.25; stroke-width: 0.4"/>
     </g>
     <g id="line2d_16"/>
     <g id="text_8">
      <!-- 5.8 -->
      <g style="fill: #838383" transform="translate(22.48 241.992) scale(0.12 -0.12)">
       <defs>
        <path id="IBMPlexSans-Regular-38" d="M 1920 -77 
Q 1536 -77 1248 22 
Q 960 122 765 294 
Q 570 467 470 704 
Q 371 941 371 1216 
Q 371 1677 620 1945 
Q 870 2214 1274 2323 
L 1274 2374 
Q 922 2496 714 2768 
Q 506 3040 506 3424 
Q 506 3936 877 4240 
Q 1248 4544 1920 4544 
Q 2592 4544 2963 4240 
Q 3334 3936 3334 3424 
Q 3334 3040 3126 2768 
Q 2918 2496 2566 2374 
L 2566 2323 
Q 2970 2214 3219 1945 
Q 3469 1677 3469 1216 
Q 3469 941 3369 704 
Q 3270 467 3075 294 
Q 2880 122 2592 22 
Q 2304 -77 1920 -77 
z
M 1920 390 
Q 2387 390 2643 598 
Q 2899 806 2899 1190 
L 2899 1325 
Q 2899 1709 2643 1917 
Q 2387 2125 1920 2125 
Q 1453 2125 1197 1917 
Q 941 1709 941 1325 
L 941 1190 
Q 941 806 1197 598 
Q 1453 390 1920 390 
z
M 1920 2573 
Q 2342 2573 2560 2752 
Q 2778 2931 2778 3277 
L 2778 3373 
Q 2778 3718 2560 3897 
Q 2342 4077 1920 4077 
Q 1498 4077 1280 3897 
Q 1062 3718 1062 3373 
L 1062 3277 
Q 1062 2931 1280 2752 
Q 1498 2573 1920 2573 
z
" transform="scale(0.015625)"/>
       </defs>
       <use xlink:href="#IBMPlexSans-Regular-35"/>
       <use xlink:href="#IBMPlexSans-Regular-2e" x="59.999985"/>
       <use xlink:href="#IBMPlexSans-Regular-38" x="87.199982"/>
      </g>
     </g>
    </g>
    <g id="ytick_3">
     <g id="line2d_17">
      <path d="M 43.644375 197.232 
L 400.764375 197.232 
" clip-path="url(#p4d33969e90)" style="fill: none; stroke-dasharray: 1.48,0.64; stroke-dashoffset: 0; stroke: #838383; stroke-opacity: 0.25; stroke-width: 0.4"/>
     </g>
     <g id="line2d_18"/>
     <g id="text_9">
      <!-- 5.9 -->
      <g style="fill: #838383" transform="translate(22.48 201.672) scale(0.12 -0.12)">
       <defs>
        <path id="IBMPlexSans-Regular-39" d="M 3411 2829 
Q 3411 2330 3264 1891 
Q 3117 1453 2883 1091 
Q 2650 730 2368 451 
Q 2086 173 1818 0 
L 1126 0 
Q 1485 262 1766 512 
Q 2048 762 2259 1034 
Q 2470 1306 2617 1616 
Q 2765 1926 2854 2317 
L 2822 2330 
Q 2662 2054 2409 1872 
Q 2157 1690 1747 1690 
Q 1459 1690 1216 1786 
Q 973 1882 800 2061 
Q 627 2240 528 2493 
Q 429 2746 429 3066 
Q 429 3392 534 3664 
Q 640 3936 835 4131 
Q 1030 4326 1302 4435 
Q 1574 4544 1914 4544 
Q 2259 4544 2537 4425 
Q 2816 4307 3011 4086 
Q 3206 3866 3308 3546 
Q 3411 3226 3411 2829 
z
M 1920 2144 
Q 2362 2144 2608 2387 
Q 2854 2630 2854 3085 
L 2854 3136 
Q 2854 3590 2608 3833 
Q 2362 4077 1920 4077 
Q 1478 4077 1232 3833 
Q 986 3590 986 3136 
L 986 3085 
Q 986 2630 1232 2387 
Q 1478 2144 1920 2144 
z
" transform="scale(0.015625)"/>
       </defs>
       <use xlink:href="#IBMPlexSans-Regular-35"/>
       <use xlink:href="#IBMPlexSans-Regular-2e" x="59.999985"/>
       <use xlink:href="#IBMPlexSans-Regular-39" x="87.199982"/>
      </g>
     </g>
    </g>
    <g id="ytick_4">
     <g id="line2d_19">
      <path d="M 43.644375 156.912 
L 400.764375 156.912 
" clip-path="url(#p4d33969e90)" style="fill: none; stroke-dasharray: 1.48,0.64; stroke-dashoffset: 0; stroke: #838383; stroke-opacity: 0.25; stroke-width: 0.4"/>
     </g>
     <g id="line2d_20"/>
     <g id="text_10">
      <!-- 6.0 -->
      <g style="fill: #838383" transform="translate(22.48 161.352) scale(0.12 -0.12)">
       <defs>
        <path id="IBMPlexSans-Regular-36" d="M 1926 -77 
Q 1581 -77 1302 41 
Q 1024 160 829 381 
Q 634 602 531 922 
Q 429 1242 429 1638 
Q 429 2138 576 2576 
Q 723 3014 956 3376 
Q 1190 3738 1472 4016 
Q 1754 4294 2022 4467 
L 2714 4467 
Q 2355 4205 2073 3955 
Q 1792 3706 1581 3434 
Q 1370 3162 1222 2851 
Q 1075 2541 986 2150 
L 1018 2138 
Q 1178 2413 1430 2595 
Q 1683 2778 2093 2778 
Q 2381 2778 2624 2682 
Q 2867 2586 3040 2406 
Q 3213 2227 3312 1971 
Q 3411 1715 3411 1402 
Q 3411 1075 3305 803 
Q 3200 531 3005 336 
Q 2810 141 2534 32 
Q 2259 -77 1926 -77 
z
M 1920 390 
Q 2362 390 2608 633 
Q 2854 877 2854 1331 
L 2854 1382 
Q 2854 1837 2608 2080 
Q 2362 2323 1920 2323 
Q 1478 2323 1232 2080 
Q 986 1837 986 1382 
L 986 1331 
Q 986 877 1232 633 
Q 1478 390 1920 390 
z
" transform="scale(0.015625)"/>
       </defs>
       <use xlink:href="#IBMPlexSans-Regular-36"/>
       <use xlink:href="#IBMPlexSans-Regular-2e" x="59.999985"/>
       <use xlink:href="#IBMPlexSans-Regular-30" x="87.199982"/>
      </g>
     </g>
    </g>
    <g id="ytick_5">
     <g id="line2d_21">
      <path d="M 43.644375 116.592 
L 400.764375 116.592 
" clip-path="url(#p4d33969e90)" style="fill: none; stroke-dasharray: 1.48,0.64; stroke-dashoffset: 0; stroke: #838383; stroke-opacity: 0.25; stroke-width: 0.4"/>
     </g>
     <g id="line2d_22"/>
     <g id="text_11">
      <!-- 6.1 -->
      <g style="fill: #838383" transform="translate(22.48 121.032) scale(0.12 -0.12)">
       <use xlink:href="#IBMPlexSans-Regular-36"/>
       <use xlink:href="#IBMPlexSans-Regular-2e" x="59.999985"/>
       <use xlink:href="#IBMPlexSans-Regular-31" x="87.199982"/>
      </g>
     </g>
    </g>
    <g id="ytick_6">
     <g id="line2d_23">
      <path d="M 43.644375 76.272 
L 400.764375 76.272 
" clip-path="url(#p4d33969e90)" style="fill: none; stroke-dasharray: 1.48,0.64; stroke-dashoffset: 0; stroke: #838383; stroke-opacity: 0.25; stroke-width: 0.4"/>
     </g>
     <g id="line2d_24"/>
     <g id="text_12">
      <!-- 6.2 -->
      <g style="fill: #838383" transform="translate(22.48 80.712) scale(0.12 -0.12)">
       <use xlink:href="#IBMPlexSans-Regular-36"/>
       <use xlink:href="#IBMPlexSans-Regular-2e" x="59.999985"/>
       <use xlink:href="#IBMPlexSans-Regular-32" x="87.199982"/>
      </g>
     </g>
    </g>
    <g id="ytick_7">
     <g id="line2d_25">
      <path d="M 43.644375 35.952 
L 400.764375 35.952 
" clip-path="url(#p4d33969e90)" style="fill: none; stroke-dasharray: 1.48,0.64; stroke-dashoffset: 0; stroke: #838383; stroke-opacity: 0.25; stroke-width: 0.4"/>
     </g>
     <g id="line2d_26"/>
     <g id="text_13">
      <!-- 6.3 -->
      <g style="fill: #838383" transform="translate(22.48 40.392) scale(0.12 -0.12)">
       <defs>
        <path id="IBMPlexSans-Regular-33" d="M 1670 2573 
Q 2125 2573 2352 2781 
Q 2579 2989 2579 3315 
L 2579 3360 
Q 2579 3712 2358 3888 
Q 2138 4064 1779 4064 
Q 1434 4064 1216 3913 
Q 998 3763 858 3507 
L 461 3814 
Q 544 3949 662 4080 
Q 781 4211 941 4313 
Q 1101 4416 1312 4480 
Q 1523 4544 1792 4544 
Q 2074 4544 2323 4470 
Q 2573 4397 2755 4253 
Q 2938 4109 3043 3897 
Q 3149 3686 3149 3418 
Q 3149 3200 3081 3027 
Q 3014 2854 2899 2726 
Q 2784 2598 2627 2508 
Q 2470 2419 2291 2374 
L 2291 2349 
Q 2470 2310 2640 2224 
Q 2810 2138 2941 2000 
Q 3072 1862 3152 1667 
Q 3232 1472 3232 1222 
Q 3232 934 3123 694 
Q 3014 454 2816 284 
Q 2618 115 2336 19 
Q 2054 -77 1715 -77 
Q 1427 -77 1203 -13 
Q 979 51 806 160 
Q 634 269 502 403 
Q 371 538 269 685 
L 672 992 
Q 755 858 854 749 
Q 954 640 1075 563 
Q 1197 486 1350 444 
Q 1504 403 1709 403 
Q 2182 403 2425 617 
Q 2669 832 2669 1229 
L 2669 1280 
Q 2669 1677 2425 1891 
Q 2182 2106 1709 2106 
L 1184 2106 
L 1184 2573 
L 1670 2573 
z
" transform="scale(0.015625)"/>
       </defs>
       <use xlink:href="#IBMPlexSans-Regular-36"/>
       <use xlink:href="#IBMPlexSans-Regular-2e" x="59.999985"/>
       <use xlink:href="#IBMPlexSans-Regular-33" x="87.199982"/>
      </g>
     </g>
    </g>
    <g id="text_14">
     <!-- beta -->
     <g style="fill: #838383" transform="translate(16.08 168.996375) rotate(-90) scale(0.12 -0.12)">
      <defs>
       <path id="IBMPlexSans-Regular-62" d="M 544 4736 
L 1056 4736 
L 1056 2765 
L 1082 2765 
Q 1210 3078 1456 3228 
Q 1702 3379 2048 3379 
Q 2355 3379 2604 3257 
Q 2854 3136 3030 2912 
Q 3206 2688 3299 2368 
Q 3392 2048 3392 1651 
Q 3392 1254 3299 934 
Q 3206 614 3030 390 
Q 2854 166 2604 44 
Q 2355 -77 2048 -77 
Q 1376 -77 1082 538 
L 1056 538 
L 1056 0 
L 544 0 
L 544 4736 
z
M 1907 384 
Q 2342 384 2592 656 
Q 2842 928 2842 1370 
L 2842 1933 
Q 2842 2374 2592 2646 
Q 2342 2918 1907 2918 
Q 1734 2918 1577 2870 
Q 1421 2822 1305 2739 
Q 1190 2656 1123 2537 
Q 1056 2419 1056 2285 
L 1056 1056 
Q 1056 896 1123 771 
Q 1190 646 1305 560 
Q 1421 474 1577 429 
Q 1734 384 1907 384 
z
" transform="scale(0.015625)"/>
       <path id="IBMPlexSans-Regular-65" d="M 1786 -77 
Q 1446 -77 1174 44 
Q 902 166 707 393 
Q 512 621 406 937 
Q 301 1254 301 1651 
Q 301 2042 406 2362 
Q 512 2682 707 2909 
Q 902 3136 1174 3257 
Q 1446 3379 1786 3379 
Q 2118 3379 2380 3257 
Q 2643 3136 2828 2921 
Q 3014 2707 3113 2412 
Q 3213 2118 3213 1766 
L 3213 1523 
L 838 1523 
L 838 1370 
Q 838 1158 905 976 
Q 973 794 1097 659 
Q 1222 525 1404 448 
Q 1587 371 1818 371 
Q 2131 371 2364 518 
Q 2598 666 2726 941 
L 3091 678 
Q 2931 339 2592 131 
Q 2253 -77 1786 -77 
z
M 1786 2950 
Q 1574 2950 1401 2876 
Q 1229 2803 1104 2668 
Q 979 2534 908 2352 
Q 838 2170 838 1952 
L 838 1907 
L 2662 1907 
L 2662 1978 
Q 2662 2419 2422 2684 
Q 2182 2950 1786 2950 
z
" transform="scale(0.015625)"/>
       <path id="IBMPlexSans-Regular-74" d="M 1274 0 
Q 1005 0 867 150 
Q 730 301 730 544 
L 730 2854 
L 186 2854 
L 186 3302 
L 493 3302 
Q 659 3302 720 3369 
Q 781 3437 781 3603 
L 781 4218 
L 1242 4218 
L 1242 3302 
L 1965 3302 
L 1965 2854 
L 1242 2854 
L 1242 448 
L 1914 448 
L 1914 0 
L 1274 0 
z
" transform="scale(0.015625)"/>
       <path id="IBMPlexSans-Regular-61" d="M 2944 0 
Q 2656 0 2531 153 
Q 2406 307 2374 538 
L 2342 538 
Q 2234 230 1984 76 
Q 1734 -77 1389 -77 
Q 864 -77 573 192 
Q 282 461 282 922 
Q 282 1389 624 1638 
Q 966 1888 1690 1888 
L 2342 1888 
L 2342 2214 
Q 2342 2566 2150 2752 
Q 1958 2938 1562 2938 
Q 1261 2938 1059 2803 
Q 858 2669 723 2445 
L 416 2733 
Q 550 3002 844 3190 
Q 1139 3379 1587 3379 
Q 2189 3379 2521 3084 
Q 2854 2790 2854 2266 
L 2854 448 
L 3232 448 
L 3232 0 
L 2944 0 
z
M 1472 358 
Q 1664 358 1824 403 
Q 1984 448 2099 531 
Q 2214 614 2278 723 
Q 2342 832 2342 960 
L 2342 1504 
L 1664 1504 
Q 1222 1504 1020 1376 
Q 819 1248 819 1005 
L 819 870 
Q 819 627 995 492 
Q 1171 358 1472 358 
z
" transform="scale(0.015625)"/>
      </defs>
      <use xlink:href="#IBMPlexSans-Regular-62"/>
      <use xlink:href="#IBMPlexSans-Regular-65" x="57.999985"/>
      <use xlink:href="#IBMPlexSans-Regular-74" x="112.899979"/>
      <use xlink:href="#IBMPlexSans-Regular-61" x="147.999969"/>
     </g>
    </g>
   </g>
   <g id="line2d_27">
    <path d="M 59.877102 156.912 
L 384.531648 156.912 
L 384.531648 156.912 
" clip-path="url(#p4d33969e90)" style="fill: none; stroke: #2196f3; stroke-width: 1.5; stroke-linecap: round"/>
    <defs>
     <path id="m23b9475874" d="M 0 1.5 
C 0.397805 1.5 0.77937 1.341951 1.06066 1.06066 
C 1.341951 0.77937 1.5 0.397805 1.5 0 
C 1.5 -0.397805 1.341951 -0.77937 1.06066 -1.06066 
C 0.77937 -1.341951 0.397805 -1.5 0 -1.5 
C -0.397805 -1.5 -0.77937 -1.341951 -1.06066 -1.06066 
C -1.341951 -0.77937 -1.5 -0.397805 -1.5 0 
C -1.5 0.397805 -1.341951 0.77937 -1.06066 1.06066 
C -0.77937 1.341951 -0.397805 1.5 0 1.5 
z
" style="stroke: #2196f3"/>
    </defs>
    <g clip-path="url(#p4d33969e90)">
     <use xlink:href="#m23b9475874" x="59.877102" y="156.912" style="fill: #2196f3; stroke: #2196f3"/>
     <use xlink:href="#m23b9475874" x="61.186193" y="156.912" style="fill: #2196f3; stroke: #2196f3"/>
     <use xlink:href="#m23b9475874" x="62.495284" y="156.912" style="fill: #2196f3; stroke: #2196f3"/>
     <use xlink:href="#m23b9475874" x="63.804375" y="156.912" style="fill: #2196f3; stroke: #2196f3"/>
     <use xlink:href="#m23b9475874" x="65.113466" y="156.912" style="fill: #2196f3; stroke: #2196f3"/>
     <use xlink:href="#m23b9475874" x="66.422557" y="156.912" style="fill: #2196f3; stroke: #2196f3"/>
     <use xlink:href="#m23b9475874" x="67.731648" y="156.912" style="fill: #2196f3; stroke: #2196f3"/>
     <use xlink:href="#m23b9475874" x="69.040739" y="156.912" style="fill: #2196f3; stroke: #2196f3"/>
     <use xlink:href="#m23b9475874" x="70.34983" y="156.912" style="fill: #2196f3; stroke: #2196f3"/>
     <use xlink:href="#m23b9475874" x="71.65892" y="156.912" style="fill: #2196f3; stroke: #2196f3"/>
     <use xlink:href="#m23b9475874" x="72.968011" y="156.912" style="fill: #2196f3; stroke: #2196f3"/>
     <use xlink:href="#m23b9475874" x="74.277102" y="156.912" style="fill: #2196f3; stroke: #2196f3"/>
     <use xlink:href="#m23b9475874" x="75.586193" y="156.912" style="fill: #2196f3; stroke: #2196f3"/>
     <use xlink:href="#m23b9475874" x="76.895284" y="156.912" style="fill: #2196f3; stroke: #2196f3"/>
     <use xlink:href="#m23b9475874" x="78.204375" y="156.912" style="fill: #2196f3; stroke: #2196f3"/>
     <use xlink:href="#m23b9475874" x="79.513466" y="156.912" style="fill: #2196f3; stroke: #2196f3"/>
     <use xlink:href="#m23b9475874" x="80.822557" y="156.912" style="fill: #2196f3; stroke: #2196f3"/>
     <use xlink:href="#m23b9475874" x="82.131648" y="156.912" style="fill: #2196f3; stroke: #2196f3"/>
     <use xlink:href="#m23b9475874" x="83.440739" y="156.912" style="fill: #2196f3; stroke: #2196f3"/>
     <use xlink:href="#m23b9475874" x="84.74983" y="156.912" style="fill: #2196f3; stroke: #2196f3"/>
     <use xlink:href="#m23b9475874" x="86.05892" y="156.912" style="fill: #2196f3; stroke: #2196f3"/>
     <use xlink:href="#m23b9475874" x="87.368011" y="156.912" style="fill: #2196f3; stroke: #2196f3"/>
     <use xlink:href="#m23b9475874" x="88.677102" y="156.912" style="fill: #2196f3; stroke: #2196f3"/>
     <use xlink:href="#m23b9475874" x="89.986193" y="156.912" style="fill: #2196f3; stroke: #2196f3"/>
     <use xlink:href="#m23b9475874" x="91.295284" y="156.912" style="fill: #2196f3; stroke: #2196f3"/>
     <use xlink:href="#m23b9475874" x="92.604375" y="156.912" style="fill: #2196f3; stroke: #2196f3"/>
     <use xlink:href="#m23b9475874" x="93.913466" y="156.912" style="fill: #2196f3; stroke: #2196f3"/>
     <use xlink:href="#m23b9475874" x="95.222557" y="156.912" style="fill: #2196f3; stroke: #2196f3"/>
     <use xlink:href="#m23b9475874" x="96.531648" y="156.912" style="fill: #2196f3; stroke: #2196f3"/>
     <use xlink:href="#m23b9475874" x="97.840739" y="156.912" style="fill: #2196f3; stroke: #2196f3"/>
     <use xlink:href="#m23b9475874" x="99.14983" y="156.912" style="fill: #2196f3; stroke: #2196f3"/>
     <use xlink:href="#m23b9475874" x="100.45892" y="156.912" style="fill: #2196f3; stroke: #2196f3"/>
     <use xlink:href="#m23b9475874" x="101.768011" y="156.912" style="fill: #2196f3; stroke: #2196f3"/>
     <use xlink:href="#m23b9475874" x="103.077102" y="156.912" style="fill: #2196f3; stroke: #2196f3"/>
     <use xlink:href="#m23b9475874" x="104.386193" y="156.912" style="fill: #2196f3; stroke: #2196f3"/>
     <use xlink:href="#m23b9475874" x="105.695284" y="156.912" style="fill: #2196f3; stroke: #2196f3"/>
     <use xlink:href="#m23b9475874" x="107.004375" y="156.912" style="fill: #2196f3; stroke: #2196f3"/>
     <use xlink:href="#m23b9475874" x="108.313466" y="156.912" style="fill: #2196f3; stroke: #2196f3"/>
     <use xlink:href="#m23b9475874" x="109.622557" y="156.912" style="fill: #2196f3; stroke: #2196f3"/>
     <use xlink:href="#m23b9475874" x="110.931648" y="156.912" style="fill: #2196f3; stroke: #2196f3"/>
     <use xlink:href="#m23b9475874" x="112.240739" y="156.912" style="fill: #2196f3; stroke: #2196f3"/>
     <use xlink:href="#m23b9475874" x="113.54983" y="156.912" style="fill: #2196f3; stroke: #2196f3"/>
     <use xlink:href="#m23b9475874" x="114.85892" y="156.912" style="fill: #2196f3; stroke: #2196f3"/>
     <use xlink:href="#m23b9475874" x="116.168011" y="156.912" style="fill: #2196f3; stroke: #2196f3"/>
     <use xlink:href="#m23b9475874" x="117.477102" y="156.912" style="fill: #2196f3; stroke: #2196f3"/>
     <use xlink:href="#m23b9475874" x="118.786193" y="156.912" style="fill: #2196f3; stroke: #2196f3"/>
     <use xlink:href="#m23b9475874" x="120.095284" y="156.912" style="fill: #2196f3; stroke: #2196f3"/>
     <use xlink:href="#m23b9475874" x="121.404375" y="156.912" style="fill: #2196f3; stroke: #2196f3"/>
     <use xlink:href="#m23b9475874" x="122.713466" y="156.912" style="fill: #2196f3; stroke: #2196f3"/>
     <use xlink:href="#m23b9475874" x="124.022557" y="156.912" style="fill: #2196f3; stroke: #2196f3"/>
     <use xlink:href="#m23b9475874" x="125.331648" y="156.912" style="fill: #2196f3; stroke: #2196f3"/>
     <use xlink:href="#m23b9475874" x="126.640739" y="156.912" style="fill: #2196f3; stroke: #2196f3"/>
     <use xlink:href="#m23b9475874" x="127.94983" y="156.912" style="fill: #2196f3; stroke: #2196f3"/>
     <use xlink:href="#m23b9475874" x="129.25892" y="156.912" style="fill: #2196f3; stroke: #2196f3"/>
     <use xlink:href="#m23b9475874" x="130.568011" y="156.912" style="fill: #2196f3; stroke: #2196f3"/>
     <use xlink:href="#m23b9475874" x="131.877102" y="156.912" style="fill: #2196f3; stroke: #2196f3"/>
     <use xlink:href="#m23b9475874" x="133.186193" y="156.912" style="fill: #2196f3; stroke: #2196f3"/>
     <use xlink:href="#m23b9475874" x="134.495284" y="156.912" style="fill: #2196f3; stroke: #2196f3"/>
     <use xlink:href="#m23b9475874" x="135.804375" y="156.912" style="fill: #2196f3; stroke: #2196f3"/>
     <use xlink:href="#m23b9475874" x="137.113466" y="156.912" style="fill: #2196f3; stroke: #2196f3"/>
     <use xlink:href="#m23b9475874" x="138.422557" y="156.912" style="fill: #2196f3; stroke: #2196f3"/>
     <use xlink:href="#m23b9475874" x="139.731648" y="156.912" style="fill: #2196f3; stroke: #2196f3"/>
     <use xlink:href="#m23b9475874" x="141.040739" y="156.912" style="fill: #2196f3; stroke: #2196f3"/>
     <use xlink:href="#m23b9475874" x="142.34983" y="156.912" style="fill: #2196f3; stroke: #2196f3"/>
     <use xlink:href="#m23b9475874" x="143.65892" y="156.912" style="fill: #2196f3; stroke: #2196f3"/>
     <use xlink:href="#m23b9475874" x="144.968011" y="156.912" style="fill: #2196f3; stroke: #2196f3"/>
     <use xlink:href="#m23b9475874" x="146.277102" y="156.912" style="fill: #2196f3; stroke: #2196f3"/>
     <use xlink:href="#m23b9475874" x="147.586193" y="156.912" style="fill: #2196f3; stroke: #2196f3"/>
     <use xlink:href="#m23b9475874" x="148.895284" y="156.912" style="fill: #2196f3; stroke: #2196f3"/>
     <use xlink:href="#m23b9475874" x="150.204375" y="156.912" style="fill: #2196f3; stroke: #2196f3"/>
     <use xlink:href="#m23b9475874" x="151.513466" y="156.912" style="fill: #2196f3; stroke: #2196f3"/>
     <use xlink:href="#m23b9475874" x="152.822557" y="156.912" style="fill: #2196f3; stroke: #2196f3"/>
     <use xlink:href="#m23b9475874" x="154.131648" y="156.912" style="fill: #2196f3; stroke: #2196f3"/>
     <use xlink:href="#m23b9475874" x="155.440739" y="156.912" style="fill: #2196f3; stroke: #2196f3"/>
     <use xlink:href="#m23b9475874" x="156.74983" y="156.912" style="fill: #2196f3; stroke: #2196f3"/>
     <use xlink:href="#m23b9475874" x="158.05892" y="156.912" style="fill: #2196f3; stroke: #2196f3"/>
     <use xlink:href="#m23b9475874" x="159.368011" y="156.912" style="fill: #2196f3; stroke: #2196f3"/>
     <use xlink:href="#m23b9475874" x="160.677102" y="156.912" style="fill: #2196f3; stroke: #2196f3"/>
     <use xlink:href="#m23b9475874" x="161.986193" y="156.912" style="fill: #2196f3; stroke: #2196f3"/>
     <use xlink:href="#m23b9475874" x="163.295284" y="156.912" style="fill: #2196f3; stroke: #2196f3"/>
     <use xlink:href="#m23b9475874" x="164.604375" y="156.912" style="fill: #2196f3; stroke: #2196f3"/>
     <use xlink:href="#m23b9475874" x="165.913466" y="156.912" style="fill: #2196f3; stroke: #2196f3"/>
     <use xlink:href="#m23b9475874" x="167.222557" y="156.912" style="fill: #2196f3; stroke: #2196f3"/>
     <use xlink:href="#m23b9475874" x="168.531648" y="156.912" style="fill: #2196f3; stroke: #2196f3"/>
     <use xlink:href="#m23b9475874" x="169.840739" y="156.912" style="fill: #2196f3; stroke: #2196f3"/>
     <use xlink:href="#m23b9475874" x="171.14983" y="156.912" style="fill: #2196f3; stroke: #2196f3"/>
     <use xlink:href="#m23b9475874" x="172.45892" y="156.912" style="fill: #2196f3; stroke: #2196f3"/>
     <use xlink:href="#m23b9475874" x="173.768011" y="156.912" style="fill: #2196f3; stroke: #2196f3"/>
     <use xlink:href="#m23b9475874" x="175.077102" y="156.912" style="fill: #2196f3; stroke: #2196f3"/>
     <use xlink:href="#m23b9475874" x="176.386193" y="156.912" style="fill: #2196f3; stroke: #2196f3"/>
     <use xlink:href="#m23b9475874" x="177.695284" y="156.912" style="fill: #2196f3; stroke: #2196f3"/>
     <use xlink:href="#m23b9475874" x="179.004375" y="156.912" style="fill: #2196f3; stroke: #2196f3"/>
     <use xlink:href="#m23b9475874" x="180.313466" y="156.912" style="fill: #2196f3; stroke: #2196f3"/>
     <use xlink:href="#m23b9475874" x="181.622557" y="156.912" style="fill: #2196f3; stroke: #2196f3"/>
     <use xlink:href="#m23b9475874" x="182.931648" y="156.912" style="fill: #2196f3; stroke: #2196f3"/>
     <use xlink:href="#m23b9475874" x="184.240739" y="156.912" style="fill: #2196f3; stroke: #2196f3"/>
     <use xlink:href="#m23b9475874" x="185.54983" y="156.912" style="fill: #2196f3; stroke: #2196f3"/>
     <use xlink:href="#m23b9475874" x="186.85892" y="156.912" style="fill: #2196f3; stroke: #2196f3"/>
     <use xlink:href="#m23b9475874" x="188.168011" y="156.912" style="fill: #2196f3; stroke: #2196f3"/>
     <use xlink:href="#m23b9475874" x="189.477102" y="156.912" style="fill: #2196f3; stroke: #2196f3"/>
     <use xlink:href="#m23b9475874" x="190.786193" y="156.912" style="fill: #2196f3; stroke: #2196f3"/>
     <use xlink:href="#m23b9475874" x="192.095284" y="156.912" style="fill: #2196f3; stroke: #2196f3"/>
     <use xlink:href="#m23b9475874" x="193.404375" y="156.912" style="fill: #2196f3; stroke: #2196f3"/>
     <use xlink:href="#m23b9475874" x="194.713466" y="156.912" style="fill: #2196f3; stroke: #2196f3"/>
     <use xlink:href="#m23b9475874" x="196.022557" y="156.912" style="fill: #2196f3; stroke: #2196f3"/>
     <use xlink:href="#m23b9475874" x="197.331648" y="156.912" style="fill: #2196f3; stroke: #2196f3"/>
     <use xlink:href="#m23b9475874" x="198.640739" y="156.912" style="fill: #2196f3; stroke: #2196f3"/>
     <use xlink:href="#m23b9475874" x="199.94983" y="156.912" style="fill: #2196f3; stroke: #2196f3"/>
     <use xlink:href="#m23b9475874" x="201.25892" y="156.912" style="fill: #2196f3; stroke: #2196f3"/>
     <use xlink:href="#m23b9475874" x="202.568011" y="156.912" style="fill: #2196f3; stroke: #2196f3"/>
     <use xlink:href="#m23b9475874" x="203.877102" y="156.912" style="fill: #2196f3; stroke: #2196f3"/>
     <use xlink:href="#m23b9475874" x="205.186193" y="156.912" style="fill: #2196f3; stroke: #2196f3"/>
     <use xlink:href="#m23b9475874" x="206.495284" y="156.912" style="fill: #2196f3; stroke: #2196f3"/>
     <use xlink:href="#m23b9475874" x="207.804375" y="156.912" style="fill: #2196f3; stroke: #2196f3"/>
     <use xlink:href="#m23b9475874" x="209.113466" y="156.912" style="fill: #2196f3; stroke: #2196f3"/>
     <use xlink:href="#m23b9475874" x="210.422557" y="156.912" style="fill: #2196f3; stroke: #2196f3"/>
     <use xlink:href="#m23b9475874" x="211.731648" y="156.912" style="fill: #2196f3; stroke: #2196f3"/>
     <use xlink:href="#m23b9475874" x="213.040739" y="156.912" style="fill: #2196f3; stroke: #2196f3"/>
     <use xlink:href="#m23b9475874" x="214.34983" y="156.912" style="fill: #2196f3; stroke: #2196f3"/>
     <use xlink:href="#m23b9475874" x="215.65892" y="156.912" style="fill: #2196f3; stroke: #2196f3"/>
     <use xlink:href="#m23b9475874" x="216.968011" y="156.912" style="fill: #2196f3; stroke: #2196f3"/>
     <use xlink:href="#m23b9475874" x="218.277102" y="156.912" style="fill: #2196f3; stroke: #2196f3"/>
     <use xlink:href="#m23b9475874" x="219.586193" y="156.912" style="fill: #2196f3; stroke: #2196f3"/>
     <use xlink:href="#m23b9475874" x="220.895284" y="156.912" style="fill: #2196f3; stroke: #2196f3"/>
     <use xlink:href="#m23b9475874" x="222.204375" y="156.912" style="fill: #2196f3; stroke: #2196f3"/>
     <use xlink:href="#m23b9475874" x="223.513466" y="156.912" style="fill: #2196f3; stroke: #2196f3"/>
     <use xlink:href="#m23b9475874" x="224.822557" y="156.912" style="fill: #2196f3; stroke: #2196f3"/>
     <use xlink:href="#m23b9475874" x="226.131648" y="156.912" style="fill: #2196f3; stroke: #2196f3"/>
     <use xlink:href="#m23b9475874" x="227.440739" y="156.912" style="fill: #2196f3; stroke: #2196f3"/>
     <use xlink:href="#m23b9475874" x="228.74983" y="156.912" style="fill: #2196f3; stroke: #2196f3"/>
     <use xlink:href="#m23b9475874" x="230.05892" y="156.912" style="fill: #2196f3; stroke: #2196f3"/>
     <use xlink:href="#m23b9475874" x="231.368011" y="156.912" style="fill: #2196f3; stroke: #2196f3"/>
     <use xlink:href="#m23b9475874" x="232.677102" y="156.912" style="fill: #2196f3; stroke: #2196f3"/>
     <use xlink:href="#m23b9475874" x="233.986193" y="156.912" style="fill: #2196f3; stroke: #2196f3"/>
     <use xlink:href="#m23b9475874" x="235.295284" y="156.912" style="fill: #2196f3; stroke: #2196f3"/>
     <use xlink:href="#m23b9475874" x="236.604375" y="156.912" style="fill: #2196f3; stroke: #2196f3"/>
     <use xlink:href="#m23b9475874" x="237.913466" y="156.912" style="fill: #2196f3; stroke: #2196f3"/>
     <use xlink:href="#m23b9475874" x="239.222557" y="156.912" style="fill: #2196f3; stroke: #2196f3"/>
     <use xlink:href="#m23b9475874" x="240.531648" y="156.912" style="fill: #2196f3; stroke: #2196f3"/>
     <use xlink:href="#m23b9475874" x="241.840739" y="156.912" style="fill: #2196f3; stroke: #2196f3"/>
     <use xlink:href="#m23b9475874" x="243.14983" y="156.912" style="fill: #2196f3; stroke: #2196f3"/>
     <use xlink:href="#m23b9475874" x="244.45892" y="156.912" style="fill: #2196f3; stroke: #2196f3"/>
     <use xlink:href="#m23b9475874" x="245.768011" y="156.912" style="fill: #2196f3; stroke: #2196f3"/>
     <use xlink:href="#m23b9475874" x="247.077102" y="156.912" style="fill: #2196f3; stroke: #2196f3"/>
     <use xlink:href="#m23b9475874" x="248.386193" y="156.912" style="fill: #2196f3; stroke: #2196f3"/>
     <use xlink:href="#m23b9475874" x="249.695284" y="156.912" style="fill: #2196f3; stroke: #2196f3"/>
     <use xlink:href="#m23b9475874" x="251.004375" y="156.912" style="fill: #2196f3; stroke: #2196f3"/>
     <use xlink:href="#m23b9475874" x="252.313466" y="156.912" style="fill: #2196f3; stroke: #2196f3"/>
     <use xlink:href="#m23b9475874" x="253.622557" y="156.912" style="fill: #2196f3; stroke: #2196f3"/>
     <use xlink:href="#m23b9475874" x="254.931648" y="156.912" style="fill: #2196f3; stroke: #2196f3"/>
     <use xlink:href="#m23b9475874" x="256.240739" y="156.912" style="fill: #2196f3; stroke: #2196f3"/>
     <use xlink:href="#m23b9475874" x="257.54983" y="156.912" style="fill: #2196f3; stroke: #2196f3"/>
     <use xlink:href="#m23b9475874" x="258.85892" y="156.912" style="fill: #2196f3; stroke: #2196f3"/>
     <use xlink:href="#m23b9475874" x="260.168011" y="156.912" style="fill: #2196f3; stroke: #2196f3"/>
     <use xlink:href="#m23b9475874" x="261.477102" y="156.912" style="fill: #2196f3; stroke: #2196f3"/>
     <use xlink:href="#m23b9475874" x="262.786193" y="156.912" style="fill: #2196f3; stroke: #2196f3"/>
     <use xlink:href="#m23b9475874" x="264.095284" y="156.912" style="fill: #2196f3; stroke: #2196f3"/>
     <use xlink:href="#m23b9475874" x="265.404375" y="156.912" style="fill: #2196f3; stroke: #2196f3"/>
     <use xlink:href="#m23b9475874" x="266.713466" y="156.912" style="fill: #2196f3; stroke: #2196f3"/>
     <use xlink:href="#m23b9475874" x="268.022557" y="156.912" style="fill: #2196f3; stroke: #2196f3"/>
     <use xlink:href="#m23b9475874" x="269.331648" y="156.912" style="fill: #2196f3; stroke: #2196f3"/>
     <use xlink:href="#m23b9475874" x="270.640739" y="156.912" style="fill: #2196f3; stroke: #2196f3"/>
     <use xlink:href="#m23b9475874" x="271.94983" y="156.912" style="fill: #2196f3; stroke: #2196f3"/>
     <use xlink:href="#m23b9475874" x="273.25892" y="156.912" style="fill: #2196f3; stroke: #2196f3"/>
     <use xlink:href="#m23b9475874" x="274.568011" y="156.912" style="fill: #2196f3; stroke: #2196f3"/>
     <use xlink:href="#m23b9475874" x="275.877102" y="156.912" style="fill: #2196f3; stroke: #2196f3"/>
     <use xlink:href="#m23b9475874" x="277.186193" y="156.912" style="fill: #2196f3; stroke: #2196f3"/>
     <use xlink:href="#m23b9475874" x="278.495284" y="156.912" style="fill: #2196f3; stroke: #2196f3"/>
     <use xlink:href="#m23b9475874" x="279.804375" y="156.912" style="fill: #2196f3; stroke: #2196f3"/>
     <use xlink:href="#m23b9475874" x="281.113466" y="156.912" style="fill: #2196f3; stroke: #2196f3"/>
     <use xlink:href="#m23b9475874" x="282.422557" y="156.912" style="fill: #2196f3; stroke: #2196f3"/>
     <use xlink:href="#m23b9475874" x="283.731648" y="156.912" style="fill: #2196f3; stroke: #2196f3"/>
     <use xlink:href="#m23b9475874" x="285.040739" y="156.912" style="fill: #2196f3; stroke: #2196f3"/>
     <use xlink:href="#m23b9475874" x="286.34983" y="156.912" style="fill: #2196f3; stroke: #2196f3"/>
     <use xlink:href="#m23b9475874" x="287.65892" y="156.912" style="fill: #2196f3; stroke: #2196f3"/>
     <use xlink:href="#m23b9475874" x="288.968011" y="156.912" style="fill: #2196f3; stroke: #2196f3"/>
     <use xlink:href="#m23b9475874" x="290.277102" y="156.912" style="fill: #2196f3; stroke: #2196f3"/>
     <use xlink:href="#m23b9475874" x="291.586193" y="156.912" style="fill: #2196f3; stroke: #2196f3"/>
     <use xlink:href="#m23b9475874" x="292.895284" y="156.912" style="fill: #2196f3; stroke: #2196f3"/>
     <use xlink:href="#m23b9475874" x="294.204375" y="156.912" style="fill: #2196f3; stroke: #2196f3"/>
     <use xlink:href="#m23b9475874" x="295.513466" y="156.912" style="fill: #2196f3; stroke: #2196f3"/>
     <use xlink:href="#m23b9475874" x="296.822557" y="156.912" style="fill: #2196f3; stroke: #2196f3"/>
     <use xlink:href="#m23b9475874" x="298.131648" y="156.912" style="fill: #2196f3; stroke: #2196f3"/>
     <use xlink:href="#m23b9475874" x="299.440739" y="156.912" style="fill: #2196f3; stroke: #2196f3"/>
     <use xlink:href="#m23b9475874" x="300.74983" y="156.912" style="fill: #2196f3; stroke: #2196f3"/>
     <use xlink:href="#m23b9475874" x="302.05892" y="156.912" style="fill: #2196f3; stroke: #2196f3"/>
     <use xlink:href="#m23b9475874" x="303.368011" y="156.912" style="fill: #2196f3; stroke: #2196f3"/>
     <use xlink:href="#m23b9475874" x="304.677102" y="156.912" style="fill: #2196f3; stroke: #2196f3"/>
     <use xlink:href="#m23b9475874" x="305.986193" y="156.912" style="fill: #2196f3; stroke: #2196f3"/>
     <use xlink:href="#m23b9475874" x="307.295284" y="156.912" style="fill: #2196f3; stroke: #2196f3"/>
     <use xlink:href="#m23b9475874" x="308.604375" y="156.912" style="fill: #2196f3; stroke: #2196f3"/>
     <use xlink:href="#m23b9475874" x="309.913466" y="156.912" style="fill: #2196f3; stroke: #2196f3"/>
     <use xlink:href="#m23b9475874" x="311.222557" y="156.912" style="fill: #2196f3; stroke: #2196f3"/>
     <use xlink:href="#m23b9475874" x="312.531648" y="156.912" style="fill: #2196f3; stroke: #2196f3"/>
     <use xlink:href="#m23b9475874" x="313.840739" y="156.912" style="fill: #2196f3; stroke: #2196f3"/>
     <use xlink:href="#m23b9475874" x="315.14983" y="156.912" style="fill: #2196f3; stroke: #2196f3"/>
     <use xlink:href="#m23b9475874" x="316.45892" y="156.912" style="fill: #2196f3; stroke: #2196f3"/>
     <use xlink:href="#m23b9475874" x="317.768011" y="156.912" style="fill: #2196f3; stroke: #2196f3"/>
     <use xlink:href="#m23b9475874" x="319.077102" y="156.912" style="fill: #2196f3; stroke: #2196f3"/>
     <use xlink:href="#m23b9475874" x="320.386193" y="156.912" style="fill: #2196f3; stroke: #2196f3"/>
     <use xlink:href="#m23b9475874" x="321.695284" y="156.912" style="fill: #2196f3; stroke: #2196f3"/>
     <use xlink:href="#m23b9475874" x="323.004375" y="156.912" style="fill: #2196f3; stroke: #2196f3"/>
     <use xlink:href="#m23b9475874" x="324.313466" y="156.912" style="fill: #2196f3; stroke: #2196f3"/>
     <use xlink:href="#m23b9475874" x="325.622557" y="156.912" style="fill: #2196f3; stroke: #2196f3"/>
     <use xlink:href="#m23b9475874" x="326.931648" y="156.912" style="fill: #2196f3; stroke: #2196f3"/>
     <use xlink:href="#m23b9475874" x="328.240739" y="156.912" style="fill: #2196f3; stroke: #2196f3"/>
     <use xlink:href="#m23b9475874" x="329.54983" y="156.912" style="fill: #2196f3; stroke: #2196f3"/>
     <use xlink:href="#m23b9475874" x="330.85892" y="156.912" style="fill: #2196f3; stroke: #2196f3"/>
     <use xlink:href="#m23b9475874" x="332.168011" y="156.912" style="fill: #2196f3; stroke: #2196f3"/>
     <use xlink:href="#m23b9475874" x="333.477102" y="156.912" style="fill: #2196f3; stroke: #2196f3"/>
     <use xlink:href="#m23b9475874" x="334.786193" y="156.912" style="fill: #2196f3; stroke: #2196f3"/>
     <use xlink:href="#m23b9475874" x="336.095284" y="156.912" style="fill: #2196f3; stroke: #2196f3"/>
     <use xlink:href="#m23b9475874" x="337.404375" y="156.912" style="fill: #2196f3; stroke: #2196f3"/>
     <use xlink:href="#m23b9475874" x="338.713466" y="156.912" style="fill: #2196f3; stroke: #2196f3"/>
     <use xlink:href="#m23b9475874" x="340.022557" y="156.912" style="fill: #2196f3; stroke: #2196f3"/>
     <use xlink:href="#m23b9475874" x="341.331648" y="156.912" style="fill: #2196f3; stroke: #2196f3"/>
     <use xlink:href="#m23b9475874" x="342.640739" y="156.912" style="fill: #2196f3; stroke: #2196f3"/>
     <use xlink:href="#m23b9475874" x="343.94983" y="156.912" style="fill: #2196f3; stroke: #2196f3"/>
     <use xlink:href="#m23b9475874" x="345.25892" y="156.912" style="fill: #2196f3; stroke: #2196f3"/>
     <use xlink:href="#m23b9475874" x="346.568011" y="156.912" style="fill: #2196f3; stroke: #2196f3"/>
     <use xlink:href="#m23b9475874" x="347.877102" y="156.912" style="fill: #2196f3; stroke: #2196f3"/>
     <use xlink:href="#m23b9475874" x="349.186193" y="156.912" style="fill: #2196f3; stroke: #2196f3"/>
     <use xlink:href="#m23b9475874" x="350.495284" y="156.912" style="fill: #2196f3; stroke: #2196f3"/>
     <use xlink:href="#m23b9475874" x="351.804375" y="156.912" style="fill: #2196f3; stroke: #2196f3"/>
     <use xlink:href="#m23b9475874" x="353.113466" y="156.912" style="fill: #2196f3; stroke: #2196f3"/>
     <use xlink:href="#m23b9475874" x="354.422557" y="156.912" style="fill: #2196f3; stroke: #2196f3"/>
     <use xlink:href="#m23b9475874" x="355.731648" y="156.912" style="fill: #2196f3; stroke: #2196f3"/>
     <use xlink:href="#m23b9475874" x="357.040739" y="156.912" style="fill: #2196f3; stroke: #2196f3"/>
     <use xlink:href="#m23b9475874" x="358.34983" y="156.912" style="fill: #2196f3; stroke: #2196f3"/>
     <use xlink:href="#m23b9475874" x="359.65892" y="156.912" style="fill: #2196f3; stroke: #2196f3"/>
     <use xlink:href="#m23b9475874" x="360.968011" y="156.912" style="fill: #2196f3; stroke: #2196f3"/>
     <use xlink:href="#m23b9475874" x="362.277102" y="156.912" style="fill: #2196f3; stroke: #2196f3"/>
     <use xlink:href="#m23b9475874" x="363.586193" y="156.912" style="fill: #2196f3; stroke: #2196f3"/>
     <use xlink:href="#m23b9475874" x="364.895284" y="156.912" style="fill: #2196f3; stroke: #2196f3"/>
     <use xlink:href="#m23b9475874" x="366.204375" y="156.912" style="fill: #2196f3; stroke: #2196f3"/>
     <use xlink:href="#m23b9475874" x="367.513466" y="156.912" style="fill: #2196f3; stroke: #2196f3"/>
     <use xlink:href="#m23b9475874" x="368.822557" y="156.912" style="fill: #2196f3; stroke: #2196f3"/>
     <use xlink:href="#m23b9475874" x="370.131648" y="156.912" style="fill: #2196f3; stroke: #2196f3"/>
     <use xlink:href="#m23b9475874" x="371.440739" y="156.912" style="fill: #2196f3; stroke: #2196f3"/>
     <use xlink:href="#m23b9475874" x="372.74983" y="156.912" style="fill: #2196f3; stroke: #2196f3"/>
     <use xlink:href="#m23b9475874" x="374.05892" y="156.912" style="fill: #2196f3; stroke: #2196f3"/>
     <use xlink:href="#m23b9475874" x="375.368011" y="156.912" style="fill: #2196f3; stroke: #2196f3"/>
     <use xlink:href="#m23b9475874" x="376.677102" y="156.912" style="fill: #2196f3; stroke: #2196f3"/>
     <use xlink:href="#m23b9475874" x="377.986193" y="156.912" style="fill: #2196f3; stroke: #2196f3"/>
     <use xlink:href="#m23b9475874" x="379.295284" y="156.912" style="fill: #2196f3; stroke: #2196f3"/>
     <use xlink:href="#m23b9475874" x="380.604375" y="156.912" style="fill: #2196f3; stroke: #2196f3"/>
     <use xlink:href="#m23b9475874" x="381.913466" y="156.912" style="fill: #2196f3; stroke: #2196f3"/>
     <use xlink:href="#m23b9475874" x="383.222557" y="156.912" style="fill: #2196f3; stroke: #2196f3"/>
     <use xlink:href="#m23b9475874" x="384.531648" y="156.912" style="fill: #2196f3; stroke: #2196f3"/>
    </g>
   </g>
   <g id="patch_3">
    <path d="M 43.644375 289.968 
L 43.644375 23.856 
" style="fill: none"/>
   </g>
   <g id="patch_4">
    <path d="M 400.764375 289.968 
L 400.764375 23.856 
" style="fill: none"/>
   </g>
   <g id="patch_5">
    <path d="M 43.644375 289.968 
L 400.764375 289.968 
" style="fill: none"/>
   </g>
   <g id="patch_6">
    <path d="M 43.644375 23.856 
L 400.764375 23.856 
" style="fill: none"/>
   </g>
   <g id="text_15">
    <!-- Evaluate -->
    <g style="fill: #838383" transform="translate(194.245875 17.856) scale(0.144 -0.144)">
     <defs>
      <path id="IBMPlexSans-Regular-45" d="M 595 0 
L 595 4467 
L 3322 4467 
L 3322 3994 
L 1133 3994 
L 1133 2496 
L 3194 2496 
L 3194 2022 
L 1133 2022 
L 1133 474 
L 3322 474 
L 3322 0 
L 595 0 
z
" transform="scale(0.015625)"/>
      <path id="IBMPlexSans-Regular-76" d="M 1274 0 
L 115 3302 
L 627 3302 
L 1203 1664 
L 1562 538 
L 1594 538 
L 1952 1664 
L 2541 3302 
L 3034 3302 
L 1869 0 
L 1274 0 
z
" transform="scale(0.015625)"/>
      <path id="IBMPlexSans-Regular-6c" d="M 1088 0 
Q 819 0 681 150 
Q 544 301 544 531 
L 544 4736 
L 1056 4736 
L 1056 448 
L 1542 448 
L 1542 0 
L 1088 0 
z
" transform="scale(0.015625)"/>
      <path id="IBMPlexSans-Regular-75" d="M 2579 538 
L 2554 538 
Q 2502 422 2428 310 
Q 2355 198 2246 112 
Q 2138 26 1984 -25 
Q 1830 -77 1626 -77 
Q 1114 -77 813 252 
Q 512 582 512 1184 
L 512 3302 
L 1024 3302 
L 1024 1274 
Q 1024 384 1779 384 
Q 1933 384 2077 422 
Q 2221 461 2333 537 
Q 2445 614 2512 732 
Q 2579 851 2579 1018 
L 2579 3302 
L 3091 3302 
L 3091 0 
L 2579 0 
L 2579 538 
z
" transform="scale(0.015625)"/>
     </defs>
     <use xlink:href="#IBMPlexSans-Regular-45"/>
     <use xlink:href="#IBMPlexSans-Regular-76" x="58.299988"/>
     <use xlink:href="#IBMPlexSans-Regular-61" x="107.499985"/>
     <use xlink:href="#IBMPlexSans-Regular-6c" x="160.899979"/>
     <use xlink:href="#IBMPlexSans-Regular-75" x="188.099976"/>
     <use xlink:href="#IBMPlexSans-Regular-61" x="244.899963"/>
     <use xlink:href="#IBMPlexSans-Regular-74" x="298.299957"/>
     <use xlink:href="#IBMPlexSans-Regular-65" x="333.399948"/>
    </g>
   </g>
  </g>
 </g>
 <defs>
  <clipPath id="p4d33969e90">
   <rect x="43.644375" y="23.856" width="357.12" height="266.112"/>
  </clipPath>
 </defs>
</svg>
