<?xml version="1.0" encoding="utf-8" standalone="no"?>
<!DOCTYPE svg PUBLIC "-//W3C//DTD SVG 1.1//EN"
  "http://www.w3.org/Graphics/SVG/1.1/DTD/svg11.dtd">
<svg xmlns:xlink="http://www.w3.org/1999/xlink" width="502.444554pt" height="306.476562pt" viewBox="0 0 502.444554 306.476562" xmlns="http://www.w3.org/2000/svg" version="1.1">
 <metadata>
  <rdf:RDF xmlns:dc="http://purl.org/dc/elements/1.1/" xmlns:cc="http://creativecommons.org/ns#" xmlns:rdf="http://www.w3.org/1999/02/22-rdf-syntax-ns#">
   <cc:Work>
    <dc:type rdf:resource="http://purl.org/dc/dcmitype/StillImage"/>
    <dc:date>2024-02-12T19:20:04.774186</dc:date>
    <dc:format>image/svg+xml</dc:format>
    <dc:creator>
     <cc:Agent>
      <dc:title>Matplotlib v3.8.1, https://matplotlib.org/</dc:title>
     </cc:Agent>
    </dc:creator>
   </cc:Work>
  </rdf:RDF>
 </metadata>
 <defs>
  <style type="text/css">*{stroke-linejoin: round; stroke-linecap: butt}</style>
 </defs>
 <g id="figure_1">
  <g id="patch_1">
   <path d="M 0 306.476562 
L 502.444554 306.476562 
L 502.444554 0 
L 0 0 
L 0 306.476562 
z
" style="fill: none"/>
  </g>
  <g id="axes_1">
   <g id="patch_2">
    <path d="M 72 261.12 
L 490.5 261.12 
L 490.5 39.36 
L 72 39.36 
L 72 261.12 
z
" style="fill: none"/>
   </g>
   <g id="patch_3">
    <path d="M 72 251.04 
L 96.910714 251.04 
L 96.910714 232.712727 
L 72 232.712727 
z
" clip-path="url(#p504ffe0c10)" style="fill: #ff5252; opacity: 0.8"/>
   </g>
   <g id="patch_4">
    <path d="M 72 177.730909 
L 100.469388 177.730909 
L 100.469388 159.403636 
L 72 159.403636 
z
" clip-path="url(#p504ffe0c10)" style="fill: #ff5252; opacity: 0.8"/>
   </g>
   <g id="patch_5">
    <path d="M 72 104.421818 
L 100.469388 104.421818 
L 100.469388 86.094545 
L 72 86.094545 
z
" clip-path="url(#p504ffe0c10)" style="fill: #ff5252; opacity: 0.8"/>
   </g>
   <g id="patch_6">
    <path d="M 72 232.712727 
L 84.455357 232.712727 
L 84.455357 214.385455 
L 72 214.385455 
z
" clip-path="url(#p504ffe0c10)" style="fill: #76b900; opacity: 0.8"/>
   </g>
   <g id="patch_7">
    <path d="M 72 159.403636 
L 112.924745 159.403636 
L 112.924745 141.076364 
L 72 141.076364 
z
" clip-path="url(#p504ffe0c10)" style="fill: #76b900; opacity: 0.8"/>
   </g>
   <g id="patch_8">
    <path d="M 72 86.094545 
L 118.262755 86.094545 
L 118.262755 67.767273 
L 72 67.767273 
z
" clip-path="url(#p504ffe0c10)" style="fill: #76b900; opacity: 0.8"/>
   </g>
   <g id="patch_9">
    <path d="M 72 214.385455 
L 185.877551 214.385455 
L 185.877551 196.058182 
L 72 196.058182 
z
" clip-path="url(#p504ffe0c10)" style="fill: #1a8fff; opacity: 0.8"/>
   </g>
   <g id="patch_10">
    <path d="M 72 141.076364 
L 413.632653 141.076364 
L 413.632653 122.749091 
L 72 122.749091 
z
" clip-path="url(#p504ffe0c10)" style="fill: #1a8fff; opacity: 0.8"/>
   </g>
   <g id="patch_11">
    <path d="M 72 67.767273 
L 470.571429 67.767273 
L 470.571429 49.44 
L 72 49.44 
z
" clip-path="url(#p504ffe0c10)" style="fill: #1a8fff; opacity: 0.8"/>
   </g>
   <g id="matplotlib.axis_1">
    <g id="xtick_1">
     <g id="line2d_1">
      <path d="M 72 261.12 
L 72 39.36 
" clip-path="url(#p504ffe0c10)" style="fill: none; stroke-dasharray: 1.48,0.64; stroke-dashoffset: 0; stroke: #838383; stroke-opacity: 0.4; stroke-width: 0.4"/>
     </g>
     <g id="line2d_2"/>
     <g id="text_1">
      <!-- 0 -->
      <g style="fill: #838383" transform="translate(67.8 274.98) scale(0.14 -0.14)">
       <defs>
        <path id="IBMPlexSans-Regular-30" d="M 1920 -77 
Q 1120 -77 752 531 
Q 384 1139 384 2234 
Q 384 3328 752 3936 
Q 1120 4544 1920 4544 
Q 2720 4544 3088 3936 
Q 3456 3328 3456 2234 
Q 3456 1139 3088 531 
Q 2720 -77 1920 -77 
z
M 1920 390 
Q 2182 390 2368 499 
Q 2554 608 2669 806 
Q 2784 1005 2838 1273 
Q 2893 1542 2893 1869 
L 2893 2598 
Q 2893 2925 2838 3193 
Q 2784 3462 2669 3660 
Q 2554 3859 2368 3968 
Q 2182 4077 1920 4077 
Q 1658 4077 1472 3968 
Q 1286 3859 1171 3660 
Q 1056 3462 1001 3193 
Q 947 2925 947 2598 
L 947 1869 
Q 947 1542 1001 1273 
Q 1056 1005 1171 806 
Q 1286 608 1472 499 
Q 1658 390 1920 390 
z
" transform="scale(0.015625)"/>
       </defs>
       <use xlink:href="#IBMPlexSans-Regular-30"/>
      </g>
     </g>
    </g>
    <g id="xtick_2">
     <g id="line2d_3">
      <path d="M 160.966837 261.12 
L 160.966837 39.36 
" clip-path="url(#p504ffe0c10)" style="fill: none; stroke-dasharray: 1.48,0.64; stroke-dashoffset: 0; stroke: #838383; stroke-opacity: 0.4; stroke-width: 0.4"/>
     </g>
     <g id="line2d_4"/>
     <g id="text_2">
      <!-- 100 -->
      <g style="fill: #838383" transform="translate(148.366837 274.98) scale(0.14 -0.14)">
       <defs>
        <path id="IBMPlexSans-Regular-31" d="M 563 0 
L 563 474 
L 1811 474 
L 1811 4070 
L 1766 4070 
L 640 3021 
L 326 3360 
L 1510 4467 
L 2349 4467 
L 2349 474 
L 3501 474 
L 3501 0 
L 563 0 
z
" transform="scale(0.015625)"/>
       </defs>
       <use xlink:href="#IBMPlexSans-Regular-31"/>
       <use xlink:href="#IBMPlexSans-Regular-30" x="59.999985"/>
       <use xlink:href="#IBMPlexSans-Regular-30" x="119.999969"/>
      </g>
     </g>
    </g>
    <g id="xtick_3">
     <g id="line2d_5">
      <path d="M 249.933673 261.12 
L 249.933673 39.36 
" clip-path="url(#p504ffe0c10)" style="fill: none; stroke-dasharray: 1.48,0.64; stroke-dashoffset: 0; stroke: #838383; stroke-opacity: 0.4; stroke-width: 0.4"/>
     </g>
     <g id="line2d_6"/>
     <g id="text_3">
      <!-- 200 -->
      <g style="fill: #838383" transform="translate(237.333673 274.98) scale(0.14 -0.14)">
       <defs>
        <path id="IBMPlexSans-Regular-32" d="M 3411 0 
L 480 0 
L 480 550 
L 1939 1894 
Q 2253 2182 2464 2505 
Q 2675 2829 2675 3155 
L 2675 3232 
Q 2675 3603 2470 3833 
Q 2266 4064 1850 4064 
Q 1645 4064 1491 4006 
Q 1338 3949 1226 3846 
Q 1114 3744 1040 3606 
Q 966 3469 922 3309 
L 442 3494 
Q 506 3693 618 3881 
Q 730 4070 899 4217 
Q 1069 4365 1309 4454 
Q 1549 4544 1875 4544 
Q 2202 4544 2458 4448 
Q 2714 4352 2886 4179 
Q 3059 4006 3152 3769 
Q 3245 3533 3245 3245 
Q 3245 2982 3171 2758 
Q 3098 2534 2970 2332 
Q 2842 2131 2659 1939 
Q 2477 1747 2266 1555 
L 1062 474 
L 3411 474 
L 3411 0 
z
" transform="scale(0.015625)"/>
       </defs>
       <use xlink:href="#IBMPlexSans-Regular-32"/>
       <use xlink:href="#IBMPlexSans-Regular-30" x="59.999985"/>
       <use xlink:href="#IBMPlexSans-Regular-30" x="119.999969"/>
      </g>
     </g>
    </g>
    <g id="xtick_4">
     <g id="line2d_7">
      <path d="M 338.90051 261.12 
L 338.90051 39.36 
" clip-path="url(#p504ffe0c10)" style="fill: none; stroke-dasharray: 1.48,0.64; stroke-dashoffset: 0; stroke: #838383; stroke-opacity: 0.4; stroke-width: 0.4"/>
     </g>
     <g id="line2d_8"/>
     <g id="text_4">
      <!-- 300 -->
      <g style="fill: #838383" transform="translate(326.30051 274.98) scale(0.14 -0.14)">
       <defs>
        <path id="IBMPlexSans-Regular-33" d="M 1670 2573 
Q 2125 2573 2352 2781 
Q 2579 2989 2579 3315 
L 2579 3360 
Q 2579 3712 2358 3888 
Q 2138 4064 1779 4064 
Q 1434 4064 1216 3913 
Q 998 3763 858 3507 
L 461 3814 
Q 544 3949 662 4080 
Q 781 4211 941 4313 
Q 1101 4416 1312 4480 
Q 1523 4544 1792 4544 
Q 2074 4544 2323 4470 
Q 2573 4397 2755 4253 
Q 2938 4109 3043 3897 
Q 3149 3686 3149 3418 
Q 3149 3200 3081 3027 
Q 3014 2854 2899 2726 
Q 2784 2598 2627 2508 
Q 2470 2419 2291 2374 
L 2291 2349 
Q 2470 2310 2640 2224 
Q 2810 2138 2941 2000 
Q 3072 1862 3152 1667 
Q 3232 1472 3232 1222 
Q 3232 934 3123 694 
Q 3014 454 2816 284 
Q 2618 115 2336 19 
Q 2054 -77 1715 -77 
Q 1427 -77 1203 -13 
Q 979 51 806 160 
Q 634 269 502 403 
Q 371 538 269 685 
L 672 992 
Q 755 858 854 749 
Q 954 640 1075 563 
Q 1197 486 1350 444 
Q 1504 403 1709 403 
Q 2182 403 2425 617 
Q 2669 832 2669 1229 
L 2669 1280 
Q 2669 1677 2425 1891 
Q 2182 2106 1709 2106 
L 1184 2106 
L 1184 2573 
L 1670 2573 
z
" transform="scale(0.015625)"/>
       </defs>
       <use xlink:href="#IBMPlexSans-Regular-33"/>
       <use xlink:href="#IBMPlexSans-Regular-30" x="59.999985"/>
       <use xlink:href="#IBMPlexSans-Regular-30" x="119.999969"/>
      </g>
     </g>
    </g>
    <g id="xtick_5">
     <g id="line2d_9">
      <path d="M 427.867347 261.12 
L 427.867347 39.36 
" clip-path="url(#p504ffe0c10)" style="fill: none; stroke-dasharray: 1.48,0.64; stroke-dashoffset: 0; stroke: #838383; stroke-opacity: 0.4; stroke-width: 0.4"/>
     </g>
     <g id="line2d_10"/>
     <g id="text_5">
      <!-- 400 -->
      <g style="fill: #838383" transform="translate(415.267347 274.98) scale(0.14 -0.14)">
       <defs>
        <path id="IBMPlexSans-Regular-34" d="M 2400 0 
L 2400 877 
L 243 877 
L 243 1350 
L 2112 4467 
L 2912 4467 
L 2912 1325 
L 3558 1325 
L 3558 877 
L 2912 877 
L 2912 0 
L 2400 0 
z
M 749 1325 
L 2400 1325 
L 2400 4051 
L 2368 4051 
L 749 1325 
z
" transform="scale(0.015625)"/>
       </defs>
       <use xlink:href="#IBMPlexSans-Regular-34"/>
       <use xlink:href="#IBMPlexSans-Regular-30" x="59.999985"/>
       <use xlink:href="#IBMPlexSans-Regular-30" x="119.999969"/>
      </g>
     </g>
    </g>
    <g id="text_6">
     <!-- Sequence Length (k) -->
     <g style="fill: #838383" transform="translate(198.622969 295.46) scale(0.18 -0.18)">
      <defs>
       <path id="IBMPlexSans-Regular-53" d="M 1850 -77 
Q 1306 -77 922 131 
Q 538 339 269 704 
L 666 1037 
Q 902 723 1190 560 
Q 1478 397 1869 397 
Q 2349 397 2601 627 
Q 2854 858 2854 1242 
Q 2854 1562 2662 1734 
Q 2470 1907 2029 2010 
L 1664 2093 
Q 1050 2234 726 2518 
Q 403 2803 403 3322 
Q 403 3616 512 3846 
Q 621 4077 816 4230 
Q 1011 4384 1283 4464 
Q 1555 4544 1882 4544 
Q 2387 4544 2748 4358 
Q 3110 4173 3360 3814 
L 2957 3520 
Q 2771 3776 2508 3923 
Q 2246 4070 1856 4070 
Q 1427 4070 1180 3888 
Q 934 3706 934 3341 
Q 934 3021 1142 2857 
Q 1350 2694 1773 2598 
L 2138 2515 
Q 2797 2368 3091 2067 
Q 3386 1766 3386 1267 
Q 3386 960 3280 710 
Q 3174 461 2976 288 
Q 2778 115 2493 19 
Q 2208 -77 1850 -77 
z
" transform="scale(0.015625)"/>
       <path id="IBMPlexSans-Regular-65" d="M 1786 -77 
Q 1446 -77 1174 44 
Q 902 166 707 393 
Q 512 621 406 937 
Q 301 1254 301 1651 
Q 301 2042 406 2362 
Q 512 2682 707 2909 
Q 902 3136 1174 3257 
Q 1446 3379 1786 3379 
Q 2118 3379 2380 3257 
Q 2643 3136 2828 2921 
Q 3014 2707 3113 2412 
Q 3213 2118 3213 1766 
L 3213 1523 
L 838 1523 
L 838 1370 
Q 838 1158 905 976 
Q 973 794 1097 659 
Q 1222 525 1404 448 
Q 1587 371 1818 371 
Q 2131 371 2364 518 
Q 2598 666 2726 941 
L 3091 678 
Q 2931 339 2592 131 
Q 2253 -77 1786 -77 
z
M 1786 2950 
Q 1574 2950 1401 2876 
Q 1229 2803 1104 2668 
Q 979 2534 908 2352 
Q 838 2170 838 1952 
L 838 1907 
L 2662 1907 
L 2662 1978 
Q 2662 2419 2422 2684 
Q 2182 2950 1786 2950 
z
" transform="scale(0.015625)"/>
       <path id="IBMPlexSans-Regular-71" d="M 2656 538 
L 2630 538 
Q 2330 -77 1664 -77 
Q 1357 -77 1107 44 
Q 858 166 682 390 
Q 506 614 413 934 
Q 320 1254 320 1651 
Q 320 2048 413 2368 
Q 506 2688 682 2912 
Q 858 3136 1107 3257 
Q 1357 3379 1664 3379 
Q 2010 3379 2256 3228 
Q 2502 3078 2630 2765 
L 2656 2765 
L 2656 3302 
L 3168 3302 
L 3168 -1280 
L 2656 -1280 
L 2656 538 
z
M 1805 384 
Q 1978 384 2134 429 
Q 2291 474 2406 560 
Q 2522 646 2589 771 
Q 2656 896 2656 1056 
L 2656 2285 
Q 2656 2419 2589 2537 
Q 2522 2656 2406 2739 
Q 2291 2822 2134 2870 
Q 1978 2918 1805 2918 
Q 1370 2918 1120 2646 
Q 870 2374 870 1933 
L 870 1370 
Q 870 928 1120 656 
Q 1370 384 1805 384 
z
" transform="scale(0.015625)"/>
       <path id="IBMPlexSans-Regular-75" d="M 2579 538 
L 2554 538 
Q 2502 422 2428 310 
Q 2355 198 2246 112 
Q 2138 26 1984 -25 
Q 1830 -77 1626 -77 
Q 1114 -77 813 252 
Q 512 582 512 1184 
L 512 3302 
L 1024 3302 
L 1024 1274 
Q 1024 384 1779 384 
Q 1933 384 2077 422 
Q 2221 461 2333 537 
Q 2445 614 2512 732 
Q 2579 851 2579 1018 
L 2579 3302 
L 3091 3302 
L 3091 0 
L 2579 0 
L 2579 538 
z
" transform="scale(0.015625)"/>
       <path id="IBMPlexSans-Regular-6e" d="M 544 0 
L 544 3302 
L 1056 3302 
L 1056 2765 
L 1082 2765 
Q 1203 3046 1424 3212 
Q 1645 3379 2016 3379 
Q 2528 3379 2825 3049 
Q 3123 2720 3123 2118 
L 3123 0 
L 2611 0 
L 2611 2029 
Q 2611 2918 1862 2918 
Q 1709 2918 1565 2880 
Q 1421 2842 1305 2765 
Q 1190 2688 1123 2569 
Q 1056 2451 1056 2291 
L 1056 0 
L 544 0 
z
" transform="scale(0.015625)"/>
       <path id="IBMPlexSans-Regular-63" d="M 1773 -77 
Q 1427 -77 1152 44 
Q 877 166 688 390 
Q 499 614 400 934 
Q 301 1254 301 1651 
Q 301 2048 400 2368 
Q 499 2688 688 2912 
Q 877 3136 1152 3257 
Q 1427 3379 1773 3379 
Q 2266 3379 2563 3164 
Q 2861 2950 3008 2605 
L 2579 2387 
Q 2490 2643 2285 2784 
Q 2080 2925 1773 2925 
Q 1542 2925 1369 2851 
Q 1197 2778 1081 2646 
Q 966 2515 908 2332 
Q 851 2150 851 1933 
L 851 1370 
Q 851 934 1084 656 
Q 1318 378 1773 378 
Q 2394 378 2669 954 
L 3040 704 
Q 2880 346 2563 134 
Q 2246 -77 1773 -77 
z
" transform="scale(0.015625)"/>
       <path id="IBMPlexSans-Regular-20" transform="scale(0.015625)"/>
       <path id="IBMPlexSans-Regular-4c" d="M 595 0 
L 595 4467 
L 1133 4467 
L 1133 474 
L 3034 474 
L 3034 0 
L 595 0 
z
" transform="scale(0.015625)"/>
       <path id="IBMPlexSans-Regular-67" d="M 3328 -365 
Q 3328 -877 2928 -1117 
Q 2528 -1357 1728 -1357 
Q 954 -1357 614 -1145 
Q 275 -934 275 -544 
Q 275 -275 416 -124 
Q 557 26 800 96 
L 800 166 
Q 506 307 506 627 
Q 506 877 666 1008 
Q 826 1139 1075 1203 
L 1075 1229 
Q 781 1370 617 1632 
Q 454 1894 454 2240 
Q 454 2490 544 2701 
Q 634 2912 797 3062 
Q 960 3213 1187 3296 
Q 1414 3379 1696 3379 
Q 2048 3379 2323 3251 
L 2323 3309 
Q 2323 3501 2412 3625 
Q 2502 3750 2707 3750 
L 3200 3750 
L 3200 3302 
L 2573 3302 
L 2573 3091 
Q 2752 2938 2851 2723 
Q 2950 2509 2950 2240 
Q 2950 1990 2860 1779 
Q 2771 1568 2608 1417 
Q 2445 1267 2214 1184 
Q 1984 1101 1702 1101 
Q 1542 1101 1382 1133 
Q 1216 1088 1081 1001 
Q 947 915 947 762 
Q 947 614 1088 563 
Q 1229 512 1453 512 
L 2157 512 
Q 2771 512 3049 278 
Q 3328 45 3328 -365 
z
M 2848 -403 
Q 2848 -205 2697 -86 
Q 2547 32 2163 32 
L 1062 32 
Q 755 -109 755 -416 
Q 755 -634 918 -787 
Q 1082 -941 1472 -941 
L 1946 -941 
Q 2374 -941 2611 -806 
Q 2848 -672 2848 -403 
z
M 1702 1510 
Q 2029 1510 2221 1667 
Q 2413 1824 2413 2150 
L 2413 2330 
Q 2413 2656 2221 2813 
Q 2029 2970 1702 2970 
Q 1376 2970 1184 2813 
Q 992 2656 992 2330 
L 992 2150 
Q 992 1824 1184 1667 
Q 1376 1510 1702 1510 
z
" transform="scale(0.015625)"/>
       <path id="IBMPlexSans-Regular-74" d="M 1274 0 
Q 1005 0 867 150 
Q 730 301 730 544 
L 730 2854 
L 186 2854 
L 186 3302 
L 493 3302 
Q 659 3302 720 3369 
Q 781 3437 781 3603 
L 781 4218 
L 1242 4218 
L 1242 3302 
L 1965 3302 
L 1965 2854 
L 1242 2854 
L 1242 448 
L 1914 448 
L 1914 0 
L 1274 0 
z
" transform="scale(0.015625)"/>
       <path id="IBMPlexSans-Regular-68" d="M 544 4736 
L 1056 4736 
L 1056 2765 
L 1082 2765 
Q 1203 3046 1424 3212 
Q 1645 3379 2016 3379 
Q 2528 3379 2825 3049 
Q 3123 2720 3123 2118 
L 3123 0 
L 2611 0 
L 2611 2029 
Q 2611 2918 1862 2918 
Q 1709 2918 1565 2880 
Q 1421 2842 1305 2765 
Q 1190 2688 1123 2569 
Q 1056 2451 1056 2291 
L 1056 0 
L 544 0 
L 544 4736 
z
" transform="scale(0.015625)"/>
       <path id="IBMPlexSans-Regular-28" d="M 531 1997 
Q 531 2458 620 2886 
Q 710 3315 867 3683 
Q 1024 4051 1235 4352 
Q 1446 4653 1690 4864 
L 2176 4864 
Q 1907 4621 1692 4313 
Q 1478 4006 1328 3660 
Q 1178 3315 1094 2956 
Q 1011 2598 1011 2266 
L 1011 1715 
Q 1011 1376 1094 1017 
Q 1178 659 1331 313 
Q 1485 -32 1699 -339 
Q 1914 -646 2176 -877 
L 1690 -877 
Q 1453 -678 1241 -377 
Q 1030 -77 873 294 
Q 717 666 624 1098 
Q 531 1530 531 1997 
z
" transform="scale(0.015625)"/>
       <path id="IBMPlexSans-Regular-6b" d="M 544 4736 
L 1056 4736 
L 1056 1734 
L 1082 1734 
L 1587 2298 
L 2522 3302 
L 3142 3302 
L 1920 1997 
L 3264 0 
L 2643 0 
L 1549 1683 
L 1056 1178 
L 1056 0 
L 544 0 
L 544 4736 
z
" transform="scale(0.015625)"/>
       <path id="IBMPlexSans-Regular-29" d="M 1613 1997 
Q 1613 1530 1520 1098 
Q 1427 666 1270 294 
Q 1114 -77 902 -377 
Q 691 -678 454 -877 
L -32 -877 
Q 230 -646 444 -339 
Q 659 -32 812 313 
Q 966 659 1049 1017 
Q 1133 1376 1133 1715 
L 1133 2266 
Q 1133 2598 1049 2956 
Q 966 3315 816 3660 
Q 666 4006 451 4313 
Q 237 4621 -32 4864 
L 454 4864 
Q 698 4653 909 4352 
Q 1120 4051 1277 3683 
Q 1434 3315 1523 2886 
Q 1613 2458 1613 1997 
z
" transform="scale(0.015625)"/>
      </defs>
      <use xlink:href="#IBMPlexSans-Regular-53"/>
      <use xlink:href="#IBMPlexSans-Regular-65" x="58.099991"/>
      <use xlink:href="#IBMPlexSans-Regular-71" x="112.999985"/>
      <use xlink:href="#IBMPlexSans-Regular-75" x="170.999969"/>
      <use xlink:href="#IBMPlexSans-Regular-65" x="227.799957"/>
      <use xlink:href="#IBMPlexSans-Regular-6e" x="282.699951"/>
      <use xlink:href="#IBMPlexSans-Regular-63" x="339.499939"/>
      <use xlink:href="#IBMPlexSans-Regular-65" x="389.799927"/>
      <use xlink:href="#IBMPlexSans-Regular-20" x="444.699921"/>
      <use xlink:href="#IBMPlexSans-Regular-4c" x="468.299911"/>
      <use xlink:href="#IBMPlexSans-Regular-65" x="518.399902"/>
      <use xlink:href="#IBMPlexSans-Regular-6e" x="573.299896"/>
      <use xlink:href="#IBMPlexSans-Regular-67" x="630.099884"/>
      <use xlink:href="#IBMPlexSans-Regular-74" x="682.899872"/>
      <use xlink:href="#IBMPlexSans-Regular-68" x="717.999863"/>
      <use xlink:href="#IBMPlexSans-Regular-20" x="774.79985"/>
      <use xlink:href="#IBMPlexSans-Regular-28" x="798.399841"/>
      <use xlink:href="#IBMPlexSans-Regular-6b" x="831.899826"/>
      <use xlink:href="#IBMPlexSans-Regular-29" x="884.599823"/>
     </g>
    </g>
   </g>
   <g id="matplotlib.axis_2">
    <g id="ytick_1">
     <g id="line2d_11">
      <path d="M 72 223.549091 
L 490.5 223.549091 
" clip-path="url(#p504ffe0c10)" style="fill: none; stroke-dasharray: 1.48,0.64; stroke-dashoffset: 0; stroke: #838383; stroke-opacity: 0.4; stroke-width: 0.4"/>
     </g>
     <g id="line2d_12"/>
     <g id="text_7">
      <!-- 32 -->
      <g style="fill: #838383" transform="translate(51.7 228.729091) scale(0.14 -0.14)">
       <use xlink:href="#IBMPlexSans-Regular-33"/>
       <use xlink:href="#IBMPlexSans-Regular-32" x="59.999985"/>
      </g>
     </g>
    </g>
    <g id="ytick_2">
     <g id="line2d_13">
      <path d="M 72 150.24 
L 490.5 150.24 
" clip-path="url(#p504ffe0c10)" style="fill: none; stroke-dasharray: 1.48,0.64; stroke-dashoffset: 0; stroke: #838383; stroke-opacity: 0.4; stroke-width: 0.4"/>
     </g>
     <g id="line2d_14"/>
     <g id="text_8">
      <!-- 64 -->
      <g style="fill: #838383" transform="translate(51.7 155.42) scale(0.14 -0.14)">
       <defs>
        <path id="IBMPlexSans-Regular-36" d="M 1926 -77 
Q 1581 -77 1302 41 
Q 1024 160 829 381 
Q 634 602 531 922 
Q 429 1242 429 1638 
Q 429 2138 576 2576 
Q 723 3014 956 3376 
Q 1190 3738 1472 4016 
Q 1754 4294 2022 4467 
L 2714 4467 
Q 2355 4205 2073 3955 
Q 1792 3706 1581 3434 
Q 1370 3162 1222 2851 
Q 1075 2541 986 2150 
L 1018 2138 
Q 1178 2413 1430 2595 
Q 1683 2778 2093 2778 
Q 2381 2778 2624 2682 
Q 2867 2586 3040 2406 
Q 3213 2227 3312 1971 
Q 3411 1715 3411 1402 
Q 3411 1075 3305 803 
Q 3200 531 3005 336 
Q 2810 141 2534 32 
Q 2259 -77 1926 -77 
z
M 1920 390 
Q 2362 390 2608 633 
Q 2854 877 2854 1331 
L 2854 1382 
Q 2854 1837 2608 2080 
Q 2362 2323 1920 2323 
Q 1478 2323 1232 2080 
Q 986 1837 986 1382 
L 986 1331 
Q 986 877 1232 633 
Q 1478 390 1920 390 
z
" transform="scale(0.015625)"/>
       </defs>
       <use xlink:href="#IBMPlexSans-Regular-36"/>
       <use xlink:href="#IBMPlexSans-Regular-34" x="59.999985"/>
      </g>
     </g>
    </g>
    <g id="ytick_3">
     <g id="line2d_15">
      <path d="M 72 76.930909 
L 490.5 76.930909 
" clip-path="url(#p504ffe0c10)" style="fill: none; stroke-dasharray: 1.48,0.64; stroke-dashoffset: 0; stroke: #838383; stroke-opacity: 0.4; stroke-width: 0.4"/>
     </g>
     <g id="line2d_16"/>
     <g id="text_9">
      <!-- 128 -->
      <g style="fill: #838383" transform="translate(43.3 82.110909) scale(0.14 -0.14)">
       <defs>
        <path id="IBMPlexSans-Regular-38" d="M 1920 -77 
Q 1536 -77 1248 22 
Q 960 122 765 294 
Q 570 467 470 704 
Q 371 941 371 1216 
Q 371 1677 620 1945 
Q 870 2214 1274 2323 
L 1274 2374 
Q 922 2496 714 2768 
Q 506 3040 506 3424 
Q 506 3936 877 4240 
Q 1248 4544 1920 4544 
Q 2592 4544 2963 4240 
Q 3334 3936 3334 3424 
Q 3334 3040 3126 2768 
Q 2918 2496 2566 2374 
L 2566 2323 
Q 2970 2214 3219 1945 
Q 3469 1677 3469 1216 
Q 3469 941 3369 704 
Q 3270 467 3075 294 
Q 2880 122 2592 22 
Q 2304 -77 1920 -77 
z
M 1920 390 
Q 2387 390 2643 598 
Q 2899 806 2899 1190 
L 2899 1325 
Q 2899 1709 2643 1917 
Q 2387 2125 1920 2125 
Q 1453 2125 1197 1917 
Q 941 1709 941 1325 
L 941 1190 
Q 941 806 1197 598 
Q 1453 390 1920 390 
z
M 1920 2573 
Q 2342 2573 2560 2752 
Q 2778 2931 2778 3277 
L 2778 3373 
Q 2778 3718 2560 3897 
Q 2342 4077 1920 4077 
Q 1498 4077 1280 3897 
Q 1062 3718 1062 3373 
L 1062 3277 
Q 1062 2931 1280 2752 
Q 1498 2573 1920 2573 
z
" transform="scale(0.015625)"/>
       </defs>
       <use xlink:href="#IBMPlexSans-Regular-31"/>
       <use xlink:href="#IBMPlexSans-Regular-32" x="59.999985"/>
       <use xlink:href="#IBMPlexSans-Regular-38" x="119.999969"/>
      </g>
     </g>
    </g>
    <g id="text_10">
     <!-- GPUs -->
     <g style="fill: #838383" transform="translate(35.7 172.433437) rotate(-90) scale(0.18 -0.18)">
      <defs>
       <path id="IBMPlexSans-Regular-47" d="M 3488 653 
L 3469 653 
Q 3386 339 3062 131 
Q 2739 -77 2227 -77 
Q 1818 -77 1475 73 
Q 1133 224 889 515 
Q 646 806 508 1238 
Q 371 1670 371 2234 
Q 371 2790 505 3222 
Q 640 3654 889 3945 
Q 1139 4237 1491 4390 
Q 1843 4544 2272 4544 
Q 2874 4544 3277 4275 
Q 3680 4006 3898 3565 
L 3456 3296 
Q 3302 3654 2998 3859 
Q 2694 4064 2272 4064 
Q 1978 4064 1734 3958 
Q 1491 3853 1315 3661 
Q 1139 3469 1043 3200 
Q 947 2931 947 2598 
L 947 1875 
Q 947 1542 1043 1270 
Q 1139 998 1315 806 
Q 1491 614 1747 508 
Q 2003 403 2323 403 
Q 2554 403 2762 464 
Q 2970 525 3126 646 
Q 3283 768 3372 950 
Q 3462 1133 3462 1382 
L 3462 1824 
L 2477 1824 
L 2477 2298 
L 3987 2298 
L 3987 0 
L 3488 0 
L 3488 653 
z
" transform="scale(0.015625)"/>
       <path id="IBMPlexSans-Regular-50" d="M 595 0 
L 595 4467 
L 2374 4467 
Q 2976 4467 3299 4124 
Q 3622 3782 3622 3187 
Q 3622 2592 3299 2249 
Q 2976 1907 2374 1907 
L 1133 1907 
L 1133 0 
L 595 0 
z
M 1133 2381 
L 2374 2381 
Q 2694 2381 2870 2547 
Q 3046 2714 3046 3021 
L 3046 3354 
Q 3046 3661 2870 3827 
Q 2694 3994 2374 3994 
L 1133 3994 
L 1133 2381 
z
" transform="scale(0.015625)"/>
       <path id="IBMPlexSans-Regular-55" d="M 1101 4467 
L 1101 1702 
Q 1101 1062 1337 732 
Q 1574 403 2170 403 
Q 2765 403 3001 732 
Q 3238 1062 3238 1702 
L 3238 4467 
L 3776 4467 
L 3776 1830 
Q 3776 1344 3689 985 
Q 3603 627 3411 390 
Q 3219 154 2908 38 
Q 2598 -77 2150 -77 
Q 1702 -77 1398 38 
Q 1094 154 908 390 
Q 723 627 643 985 
Q 563 1344 563 1830 
L 563 4467 
L 1101 4467 
z
" transform="scale(0.015625)"/>
       <path id="IBMPlexSans-Regular-73" d="M 1536 -77 
Q 1075 -77 764 99 
Q 454 275 230 570 
L 595 864 
Q 787 621 1024 489 
Q 1261 358 1574 358 
Q 1901 358 2083 499 
Q 2266 640 2266 896 
Q 2266 1088 2141 1225 
Q 2016 1363 1690 1414 
L 1427 1453 
Q 1197 1485 1005 1552 
Q 813 1619 669 1731 
Q 525 1843 445 2009 
Q 365 2176 365 2406 
Q 365 2650 454 2832 
Q 544 3014 701 3136 
Q 858 3258 1075 3318 
Q 1293 3379 1542 3379 
Q 1946 3379 2218 3238 
Q 2490 3098 2694 2848 
L 2355 2541 
Q 2246 2694 2035 2819 
Q 1824 2944 1504 2944 
Q 1184 2944 1021 2806 
Q 858 2669 858 2432 
Q 858 2189 1021 2080 
Q 1184 1971 1491 1920 
L 1747 1882 
Q 2298 1798 2528 1564 
Q 2758 1331 2758 954 
Q 2758 474 2432 198 
Q 2106 -77 1536 -77 
z
" transform="scale(0.015625)"/>
      </defs>
      <use xlink:href="#IBMPlexSans-Regular-47"/>
      <use xlink:href="#IBMPlexSans-Regular-50" x="69.499985"/>
      <use xlink:href="#IBMPlexSans-Regular-55" x="130.099976"/>
      <use xlink:href="#IBMPlexSans-Regular-73" x="197.899963"/>
     </g>
    </g>
   </g>
   <g id="patch_12">
    <path d="M 72 261.12 
L 72 39.36 
" style="fill: none"/>
   </g>
   <g id="patch_13">
    <path d="M 490.5 261.12 
L 490.5 39.36 
" style="fill: none"/>
   </g>
   <g id="patch_14">
    <path d="M 72 261.12 
L 490.5 261.12 
" style="fill: none"/>
   </g>
   <g id="patch_15">
    <path d="M 72 39.36 
L 490.5 39.36 
" style="fill: none"/>
   </g>
   <g id="text_11">
    <!-- 28 -->
    <g style="fill: #ff5252" transform="translate(99.910714 245.187614) scale(0.12 -0.12)">
     <defs>
      <path id="DejaVuSansMono-Bold-32" d="M 1356 813 
L 3322 813 
L 3322 0 
L 359 0 
L 359 788 
L 859 1319 
Q 1750 2266 1941 2484 
Q 2175 2753 2278 2961 
Q 2381 3169 2381 3372 
Q 2381 3684 2192 3854 
Q 2003 4025 1656 4025 
Q 1409 4025 1101 3926 
Q 794 3828 459 3641 
L 459 4500 
Q 794 4622 1114 4686 
Q 1434 4750 1728 4750 
Q 2469 4750 2892 4404 
Q 3316 4059 3316 3463 
Q 3316 3188 3223 2947 
Q 3131 2706 2906 2413 
Q 2741 2200 1997 1456 
Q 1594 1053 1356 813 
z
" transform="scale(0.015625)"/>
      <path id="DejaVuSansMono-Bold-38" d="M 1925 2081 
Q 1616 2081 1425 1886 
Q 1234 1691 1234 1369 
Q 1234 1047 1425 850 
Q 1616 653 1925 653 
Q 2234 653 2426 853 
Q 2619 1053 2619 1369 
Q 2619 1691 2428 1886 
Q 2238 2081 1925 2081 
z
M 1241 2472 
Q 888 2594 703 2855 
Q 519 3116 519 3494 
Q 519 4075 897 4412 
Q 1275 4750 1925 4750 
Q 2578 4750 2956 4412 
Q 3334 4075 3334 3494 
Q 3334 3119 3153 2858 
Q 2972 2597 2625 2472 
Q 3013 2353 3231 2047 
Q 3450 1741 3450 1313 
Q 3450 641 3053 275 
Q 2656 -91 1925 -91 
Q 1197 -91 800 275 
Q 403 641 403 1313 
Q 403 1744 625 2050 
Q 847 2356 1241 2472 
z
M 1338 3419 
Q 1338 3144 1495 2983 
Q 1653 2822 1925 2822 
Q 2200 2822 2358 2983 
Q 2516 3144 2516 3419 
Q 2516 3691 2358 3848 
Q 2200 4006 1925 4006 
Q 1656 4006 1497 3847 
Q 1338 3688 1338 3419 
z
" transform="scale(0.015625)"/>
     </defs>
     <use xlink:href="#DejaVuSansMono-Bold-32"/>
     <use xlink:href="#DejaVuSansMono-Bold-38" x="60.205078"/>
    </g>
   </g>
   <g id="text_12">
    <!-- 32 -->
    <g style="fill: #ff5252" transform="translate(103.469388 171.878523) scale(0.12 -0.12)">
     <defs>
      <path id="DejaVuSansMono-Bold-33" d="M 1716 2088 
L 1222 2088 
L 1222 2900 
L 1716 2900 
Q 2059 2900 2248 3036 
Q 2438 3172 2438 3419 
Q 2438 3678 2248 3823 
Q 2059 3969 1716 3969 
Q 1453 3969 1153 3903 
Q 853 3838 531 3713 
L 531 4550 
Q 853 4647 1165 4698 
Q 1478 4750 1766 4750 
Q 2503 4750 2915 4428 
Q 3328 4106 3328 3541 
Q 3328 3125 3090 2861 
Q 2853 2597 2413 2516 
Q 2913 2428 3175 2117 
Q 3438 1806 3438 1300 
Q 3438 622 3003 265 
Q 2569 -91 1741 -91 
Q 1388 -91 1045 -31 
Q 703 28 391 141 
L 391 997 
Q 684 850 1025 773 
Q 1366 697 1741 697 
Q 2116 697 2334 870 
Q 2553 1044 2553 1338 
Q 2553 1697 2334 1892 
Q 2116 2088 1716 2088 
z
" transform="scale(0.015625)"/>
     </defs>
     <use xlink:href="#DejaVuSansMono-Bold-33"/>
     <use xlink:href="#DejaVuSansMono-Bold-32" x="60.205078"/>
    </g>
   </g>
   <g id="text_13">
    <!-- 32 -->
    <g style="fill: #ff5252" transform="translate(103.469388 98.569432) scale(0.12 -0.12)">
     <use xlink:href="#DejaVuSansMono-Bold-33"/>
     <use xlink:href="#DejaVuSansMono-Bold-32" x="60.205078"/>
    </g>
   </g>
   <g id="text_14">
    <!-- 14 -->
    <g style="fill: #76b900" transform="translate(87.455357 226.860341) scale(0.12 -0.12)">
     <defs>
      <path id="DejaVuSansMono-Bold-31" d="M 588 813 
L 1619 813 
L 1619 3841 
L 659 3603 
L 659 4434 
L 1625 4666 
L 2516 4666 
L 2516 813 
L 3547 813 
L 3547 0 
L 588 0 
L 588 813 
z
" transform="scale(0.015625)"/>
      <path id="DejaVuSansMono-Bold-34" d="M 2169 3641 
L 991 1797 
L 2169 1797 
L 2169 3641 
z
M 2088 4666 
L 3053 4666 
L 3053 1797 
L 3566 1797 
L 3566 1006 
L 3053 1006 
L 3053 0 
L 2169 0 
L 2169 1006 
L 319 1006 
L 319 1900 
L 2088 4666 
z
" transform="scale(0.015625)"/>
     </defs>
     <use xlink:href="#DejaVuSansMono-Bold-31"/>
     <use xlink:href="#DejaVuSansMono-Bold-34" x="60.205078"/>
    </g>
   </g>
   <g id="text_15">
    <!-- 46 -->
    <g style="fill: #76b900" transform="translate(115.924745 153.55125) scale(0.12 -0.12)">
     <defs>
      <path id="DejaVuSansMono-Bold-36" d="M 2009 2338 
Q 1709 2338 1551 2120 
Q 1394 1903 1394 1491 
Q 1394 1081 1551 864 
Q 1709 647 2009 647 
Q 2309 647 2470 864 
Q 2631 1081 2631 1491 
Q 2631 1900 2470 2119 
Q 2309 2338 2009 2338 
z
M 3219 4556 
L 3219 3719 
Q 2972 3859 2745 3929 
Q 2519 4000 2309 4000 
Q 1809 4000 1548 3664 
Q 1288 3328 1275 2672 
Q 1422 2875 1650 2976 
Q 1878 3078 2188 3078 
Q 2819 3078 3162 2679 
Q 3506 2281 3506 1550 
Q 3506 766 3120 334 
Q 2734 -97 2034 -97 
Q 1181 -97 795 475 
Q 409 1047 409 2322 
Q 409 3534 881 4139 
Q 1353 4744 2297 4744 
Q 2516 4744 2748 4697 
Q 2981 4650 3219 4556 
z
" transform="scale(0.015625)"/>
     </defs>
     <use xlink:href="#DejaVuSansMono-Bold-34"/>
     <use xlink:href="#DejaVuSansMono-Bold-36" x="60.205078"/>
    </g>
   </g>
   <g id="text_16">
    <!-- 52 -->
    <g style="fill: #76b900" transform="translate(121.262755 80.242159) scale(0.12 -0.12)">
     <defs>
      <path id="DejaVuSansMono-Bold-35" d="M 603 4666 
L 3138 4666 
L 3138 3853 
L 1350 3853 
L 1350 2988 
Q 1463 3031 1591 3051 
Q 1719 3072 1863 3072 
Q 2556 3072 2987 2634 
Q 3419 2197 3419 1497 
Q 3419 763 2951 336 
Q 2484 -91 1678 -91 
Q 1378 -91 1072 -41 
Q 766 9 447 109 
L 447 941 
Q 706 813 979 748 
Q 1253 684 1528 684 
Q 2016 684 2269 892 
Q 2522 1100 2522 1497 
Q 2522 1863 2270 2083 
Q 2019 2303 1600 2303 
Q 1353 2303 1104 2242 
Q 856 2181 603 2059 
L 603 4666 
z
" transform="scale(0.015625)"/>
     </defs>
     <use xlink:href="#DejaVuSansMono-Bold-35"/>
     <use xlink:href="#DejaVuSansMono-Bold-32" x="60.205078"/>
    </g>
   </g>
   <g id="text_17">
    <!-- 128 -->
    <g style="fill: #1a8fff" transform="translate(188.877551 208.533068) scale(0.12 -0.12)">
     <use xlink:href="#DejaVuSansMono-Bold-31"/>
     <use xlink:href="#DejaVuSansMono-Bold-32" x="60.205078"/>
     <use xlink:href="#DejaVuSansMono-Bold-38" x="120.410156"/>
    </g>
   </g>
   <g id="text_18">
    <!-- 384 -->
    <g style="fill: #1a8fff" transform="translate(416.632653 135.223977) scale(0.12 -0.12)">
     <use xlink:href="#DejaVuSansMono-Bold-33"/>
     <use xlink:href="#DejaVuSansMono-Bold-38" x="60.205078"/>
     <use xlink:href="#DejaVuSansMono-Bold-34" x="120.410156"/>
    </g>
   </g>
   <g id="text_19">
    <!-- 448 -->
    <g style="fill: #1a8fff" transform="translate(473.571429 61.914886) scale(0.12 -0.12)">
     <use xlink:href="#DejaVuSansMono-Bold-34"/>
     <use xlink:href="#DejaVuSansMono-Bold-34" x="60.205078"/>
     <use xlink:href="#DejaVuSansMono-Bold-38" x="120.410156"/>
    </g>
   </g>
   <g id="legend_1">
    <g id="patch_16">
     <path d="M 76.8225 31.663526 
L 485.6775 31.663526 
Q 488.2775 31.663526 488.2775 29.063526 
L 488.2775 11.48712 
Q 488.2775 8.88712 485.6775 8.88712 
L 76.8225 8.88712 
Q 74.2225 8.88712 74.2225 11.48712 
L 74.2225 29.063526 
Q 74.2225 31.663526 76.8225 31.663526 
L 76.8225 31.663526 
z
" style="fill: none; opacity: 0.8; stroke: #838383; stroke-linejoin: miter"/>
    </g>
    <g id="patch_17">
     <path d="M 79.4225 23.70712 
L 105.4225 23.70712 
L 105.4225 14.60712 
L 79.4225 14.60712 
z
" style="fill: #ff5252; opacity: 0.8"/>
    </g>
    <g id="text_20">
     <!-- Old Megatron-DS -->
     <g style="fill: #838383" transform="translate(115.8225 23.70712) scale(0.13 -0.13)">
      <defs>
       <path id="IBMPlexSans-Regular-4f" d="M 2266 -77 
Q 1830 -77 1481 73 
Q 1133 224 886 515 
Q 640 806 505 1238 
Q 371 1670 371 2234 
Q 371 2797 505 3225 
Q 640 3654 886 3948 
Q 1133 4243 1481 4393 
Q 1830 4544 2266 4544 
Q 2694 4544 3046 4393 
Q 3398 4243 3644 3948 
Q 3891 3654 4025 3225 
Q 4160 2797 4160 2234 
Q 4160 1670 4025 1238 
Q 3891 806 3644 515 
Q 3398 224 3046 73 
Q 2694 -77 2266 -77 
z
M 2266 403 
Q 2554 403 2797 505 
Q 3040 608 3216 800 
Q 3392 992 3488 1261 
Q 3584 1530 3584 1862 
L 3584 2605 
Q 3584 2938 3488 3206 
Q 3392 3475 3216 3667 
Q 3040 3859 2797 3961 
Q 2554 4064 2266 4064 
Q 1978 4064 1734 3961 
Q 1491 3859 1315 3667 
Q 1139 3475 1043 3206 
Q 947 2938 947 2605 
L 947 1862 
Q 947 1530 1043 1261 
Q 1139 992 1315 800 
Q 1491 608 1734 505 
Q 1978 403 2266 403 
z
" transform="scale(0.015625)"/>
       <path id="IBMPlexSans-Regular-6c" d="M 1088 0 
Q 819 0 681 150 
Q 544 301 544 531 
L 544 4736 
L 1056 4736 
L 1056 448 
L 1542 448 
L 1542 0 
L 1088 0 
z
" transform="scale(0.015625)"/>
       <path id="IBMPlexSans-Regular-64" d="M 2656 538 
L 2630 538 
Q 2330 -77 1664 -77 
Q 1357 -77 1107 44 
Q 858 166 682 390 
Q 506 614 413 934 
Q 320 1254 320 1651 
Q 320 2048 413 2368 
Q 506 2688 682 2912 
Q 858 3136 1107 3257 
Q 1357 3379 1664 3379 
Q 2010 3379 2256 3228 
Q 2502 3078 2630 2765 
L 2656 2765 
L 2656 4736 
L 3168 4736 
L 3168 0 
L 2656 0 
L 2656 538 
z
M 1805 384 
Q 1978 384 2134 429 
Q 2291 474 2406 560 
Q 2522 646 2589 771 
Q 2656 896 2656 1056 
L 2656 2285 
Q 2656 2419 2589 2537 
Q 2522 2656 2406 2739 
Q 2291 2822 2134 2870 
Q 1978 2918 1805 2918 
Q 1370 2918 1120 2646 
Q 870 2374 870 1933 
L 870 1370 
Q 870 928 1120 656 
Q 1370 384 1805 384 
z
" transform="scale(0.015625)"/>
       <path id="IBMPlexSans-Regular-4d" d="M 4077 3763 
L 4045 3763 
L 3667 3014 
L 2598 1069 
L 1530 3014 
L 1152 3763 
L 1120 3763 
L 1120 0 
L 595 0 
L 595 4467 
L 1312 4467 
L 2592 2061 
L 2624 2061 
L 3910 4467 
L 4602 4467 
L 4602 0 
L 4077 0 
L 4077 3763 
z
" transform="scale(0.015625)"/>
       <path id="IBMPlexSans-Regular-61" d="M 2944 0 
Q 2656 0 2531 153 
Q 2406 307 2374 538 
L 2342 538 
Q 2234 230 1984 76 
Q 1734 -77 1389 -77 
Q 864 -77 573 192 
Q 282 461 282 922 
Q 282 1389 624 1638 
Q 966 1888 1690 1888 
L 2342 1888 
L 2342 2214 
Q 2342 2566 2150 2752 
Q 1958 2938 1562 2938 
Q 1261 2938 1059 2803 
Q 858 2669 723 2445 
L 416 2733 
Q 550 3002 844 3190 
Q 1139 3379 1587 3379 
Q 2189 3379 2521 3084 
Q 2854 2790 2854 2266 
L 2854 448 
L 3232 448 
L 3232 0 
L 2944 0 
z
M 1472 358 
Q 1664 358 1824 403 
Q 1984 448 2099 531 
Q 2214 614 2278 723 
Q 2342 832 2342 960 
L 2342 1504 
L 1664 1504 
Q 1222 1504 1020 1376 
Q 819 1248 819 1005 
L 819 870 
Q 819 627 995 492 
Q 1171 358 1472 358 
z
" transform="scale(0.015625)"/>
       <path id="IBMPlexSans-Regular-72" d="M 544 0 
L 544 3302 
L 1056 3302 
L 1056 2694 
L 1088 2694 
Q 1178 2931 1408 3116 
Q 1638 3302 2042 3302 
L 2240 3302 
L 2240 2790 
L 1939 2790 
Q 1523 2790 1289 2633 
Q 1056 2477 1056 2240 
L 1056 0 
L 544 0 
z
" transform="scale(0.015625)"/>
       <path id="IBMPlexSans-Regular-6f" d="M 1792 -77 
Q 1459 -77 1184 44 
Q 909 166 713 393 
Q 518 621 409 937 
Q 301 1254 301 1651 
Q 301 2042 409 2362 
Q 518 2682 713 2909 
Q 909 3136 1184 3257 
Q 1459 3379 1792 3379 
Q 2125 3379 2397 3257 
Q 2669 3136 2867 2909 
Q 3066 2682 3174 2362 
Q 3283 2042 3283 1651 
Q 3283 1254 3174 937 
Q 3066 621 2867 393 
Q 2669 166 2397 44 
Q 2125 -77 1792 -77 
z
M 1792 378 
Q 2208 378 2470 634 
Q 2733 890 2733 1414 
L 2733 1888 
Q 2733 2413 2470 2669 
Q 2208 2925 1792 2925 
Q 1376 2925 1113 2669 
Q 851 2413 851 1888 
L 851 1414 
Q 851 890 1113 634 
Q 1376 378 1792 378 
z
" transform="scale(0.015625)"/>
       <path id="IBMPlexSans-Regular-2d" d="M 442 1670 
L 442 2221 
L 2112 2221 
L 2112 1670 
L 442 1670 
z
" transform="scale(0.015625)"/>
       <path id="IBMPlexSans-Regular-44" d="M 595 4467 
L 2093 4467 
Q 2509 4467 2848 4326 
Q 3187 4186 3427 3907 
Q 3667 3629 3795 3209 
Q 3923 2790 3923 2234 
Q 3923 1677 3795 1257 
Q 3667 838 3427 560 
Q 3187 282 2848 141 
Q 2509 0 2093 0 
L 595 0 
L 595 4467 
z
M 2093 474 
Q 2368 474 2598 566 
Q 2829 659 2995 838 
Q 3162 1018 3254 1277 
Q 3347 1536 3347 1869 
L 3347 2598 
Q 3347 2931 3254 3190 
Q 3162 3450 2995 3629 
Q 2829 3808 2598 3901 
Q 2368 3994 2093 3994 
L 1133 3994 
L 1133 474 
L 2093 474 
z
" transform="scale(0.015625)"/>
      </defs>
      <use xlink:href="#IBMPlexSans-Regular-4f"/>
      <use xlink:href="#IBMPlexSans-Regular-6c" x="70.799988"/>
      <use xlink:href="#IBMPlexSans-Regular-64" x="97.999985"/>
      <use xlink:href="#IBMPlexSans-Regular-20" x="155.999969"/>
      <use xlink:href="#IBMPlexSans-Regular-4d" x="179.59996"/>
      <use xlink:href="#IBMPlexSans-Regular-65" x="260.799942"/>
      <use xlink:href="#IBMPlexSans-Regular-67" x="315.699936"/>
      <use xlink:href="#IBMPlexSans-Regular-61" x="368.499924"/>
      <use xlink:href="#IBMPlexSans-Regular-74" x="421.899918"/>
      <use xlink:href="#IBMPlexSans-Regular-72" x="456.999908"/>
      <use xlink:href="#IBMPlexSans-Regular-6f" x="493.699905"/>
      <use xlink:href="#IBMPlexSans-Regular-6e" x="549.69989"/>
      <use xlink:href="#IBMPlexSans-Regular-2d" x="606.499878"/>
      <use xlink:href="#IBMPlexSans-Regular-44" x="646.399872"/>
      <use xlink:href="#IBMPlexSans-Regular-53" x="713.499863"/>
     </g>
    </g>
    <g id="patch_18">
     <path d="M 221.156484 23.70712 
L 247.156484 23.70712 
L 247.156484 14.60712 
L 221.156484 14.60712 
z
" style="fill: #76b900; opacity: 0.8"/>
    </g>
    <g id="text_21">
     <!-- Megatron-LM -->
     <g style="fill: #838383" transform="translate(257.556484 23.70712) scale(0.13 -0.13)">
      <use xlink:href="#IBMPlexSans-Regular-4d"/>
      <use xlink:href="#IBMPlexSans-Regular-65" x="81.199982"/>
      <use xlink:href="#IBMPlexSans-Regular-67" x="136.099976"/>
      <use xlink:href="#IBMPlexSans-Regular-61" x="188.899963"/>
      <use xlink:href="#IBMPlexSans-Regular-74" x="242.299957"/>
      <use xlink:href="#IBMPlexSans-Regular-72" x="277.399948"/>
      <use xlink:href="#IBMPlexSans-Regular-6f" x="314.099945"/>
      <use xlink:href="#IBMPlexSans-Regular-6e" x="370.09993"/>
      <use xlink:href="#IBMPlexSans-Regular-2d" x="426.899918"/>
      <use xlink:href="#IBMPlexSans-Regular-4c" x="466.799911"/>
      <use xlink:href="#IBMPlexSans-Regular-4d" x="516.899902"/>
     </g>
    </g>
    <g id="patch_19">
     <path d="M 340.3375 23.70712 
L 366.3375 23.70712 
L 366.3375 14.60712 
L 340.3375 14.60712 
z
" style="fill: #1a8fff; opacity: 0.8"/>
    </g>
    <g id="text_22">
     <!-- New Megatron-DS -->
     <g style="fill: #838383" transform="translate(376.7375 23.70712) scale(0.13 -0.13)">
      <defs>
       <path id="IBMPlexSans-Regular-4e" d="M 1677 2726 
L 1139 3718 
L 1120 3718 
L 1120 0 
L 595 0 
L 595 4467 
L 1216 4467 
L 2848 1741 
L 3386 749 
L 3405 749 
L 3405 4467 
L 3930 4467 
L 3930 0 
L 3309 0 
L 1677 2726 
z
" transform="scale(0.015625)"/>
       <path id="IBMPlexSans-Regular-77" d="M 198 3302 
L 698 3302 
L 1050 1875 
L 1402 429 
L 1414 429 
L 1818 1875 
L 2234 3302 
L 2688 3302 
L 3117 1875 
L 3526 429 
L 3539 429 
L 3878 1875 
L 4237 3302 
L 4717 3302 
L 3840 0 
L 3206 0 
L 2746 1587 
L 2458 2592 
L 2445 2592 
L 2163 1587 
L 1702 0 
L 1082 0 
L 198 3302 
z
" transform="scale(0.015625)"/>
      </defs>
      <use xlink:href="#IBMPlexSans-Regular-4e"/>
      <use xlink:href="#IBMPlexSans-Regular-65" x="70.699982"/>
      <use xlink:href="#IBMPlexSans-Regular-77" x="125.599976"/>
      <use xlink:href="#IBMPlexSans-Regular-20" x="202.399963"/>
      <use xlink:href="#IBMPlexSans-Regular-4d" x="225.999954"/>
      <use xlink:href="#IBMPlexSans-Regular-65" x="307.199936"/>
      <use xlink:href="#IBMPlexSans-Regular-67" x="362.09993"/>
      <use xlink:href="#IBMPlexSans-Regular-61" x="414.899918"/>
      <use xlink:href="#IBMPlexSans-Regular-74" x="468.299911"/>
      <use xlink:href="#IBMPlexSans-Regular-72" x="503.399902"/>
      <use xlink:href="#IBMPlexSans-Regular-6f" x="540.099899"/>
      <use xlink:href="#IBMPlexSans-Regular-6e" x="596.099884"/>
      <use xlink:href="#IBMPlexSans-Regular-2d" x="652.899872"/>
      <use xlink:href="#IBMPlexSans-Regular-44" x="692.799866"/>
      <use xlink:href="#IBMPlexSans-Regular-53" x="759.899857"/>
     </g>
    </g>
   </g>
  </g>
  <g id="text_23">
   <!-- 33B -->
   <g style="fill: #838383" transform="translate(7.2 24.96) scale(0.24 -0.24)">
    <defs>
     <path id="IBMPlexSans-Bold-33" d="M 1677 2701 
Q 2035 2701 2198 2838 
Q 2362 2976 2362 3181 
L 2362 3226 
Q 2362 3469 2205 3616 
Q 2048 3763 1760 3763 
Q 1491 3763 1254 3625 
Q 1018 3488 851 3232 
L 250 3795 
Q 378 3962 525 4099 
Q 672 4237 857 4336 
Q 1043 4435 1273 4489 
Q 1504 4544 1792 4544 
Q 2150 4544 2441 4461 
Q 2733 4378 2941 4221 
Q 3149 4064 3261 3846 
Q 3373 3629 3373 3360 
Q 3373 3149 3305 2976 
Q 3238 2803 3120 2675 
Q 3002 2547 2848 2467 
Q 2694 2387 2522 2355 
L 2522 2317 
Q 2720 2278 2889 2192 
Q 3059 2106 3184 1971 
Q 3309 1837 3379 1654 
Q 3450 1472 3450 1242 
Q 3450 941 3328 697 
Q 3206 454 2982 281 
Q 2758 109 2444 16 
Q 2131 -77 1754 -77 
Q 1414 -77 1152 -6 
Q 890 64 694 182 
Q 499 301 355 454 
Q 211 608 102 781 
L 813 1331 
Q 960 1056 1174 880 
Q 1389 704 1754 704 
Q 2080 704 2262 867 
Q 2445 1030 2445 1312 
L 2445 1350 
Q 2445 1626 2237 1763 
Q 2029 1901 1664 1901 
L 1261 1901 
L 1261 2701 
L 1677 2701 
z
" transform="scale(0.015625)"/>
     <path id="IBMPlexSans-Bold-42" d="M 493 4467 
L 2662 4467 
Q 3219 4467 3529 4153 
Q 3840 3840 3840 3322 
Q 3840 3066 3773 2886 
Q 3706 2707 3594 2592 
Q 3482 2477 3331 2422 
Q 3181 2368 3008 2362 
L 3008 2323 
Q 3168 2323 3344 2265 
Q 3520 2208 3667 2083 
Q 3814 1958 3913 1760 
Q 4013 1562 4013 1274 
Q 4013 1011 3926 777 
Q 3840 544 3686 371 
Q 3533 198 3321 99 
Q 3110 0 2861 0 
L 493 0 
L 493 4467 
z
M 1466 819 
L 2586 819 
Q 2778 819 2890 924 
Q 3002 1030 3002 1222 
L 3002 1440 
Q 3002 1632 2890 1737 
Q 2778 1843 2586 1843 
L 1466 1843 
L 1466 819 
z
M 1466 2637 
L 2432 2637 
Q 2624 2637 2733 2745 
Q 2842 2854 2842 3046 
L 2842 3238 
Q 2842 3430 2733 3539 
Q 2624 3648 2432 3648 
L 1466 3648 
L 1466 2637 
z
" transform="scale(0.015625)"/>
    </defs>
    <use xlink:href="#IBMPlexSans-Bold-33"/>
    <use xlink:href="#IBMPlexSans-Bold-33" x="59.999985"/>
    <use xlink:href="#IBMPlexSans-Bold-42" x="119.999969"/>
   </g>
  </g>
 </g>
 <defs>
  <clipPath id="p504ffe0c10">
   <rect x="72" y="39.36" width="418.5" height="221.76"/>
  </clipPath>
 </defs>
</svg>
