<svg xmlns="http://www.w3.org/2000/svg" viewBox="0 0 300 104.82" width="300" height="104">
  <defs>
    <style>
      .cls-1{fill:none;}.cls-2{fill:#FFF;}.cls-3{fill:#007836;}.cls-4{fill:#0082ca;}.cls-5{fill:#0b1f8f;}.cls-6{fill:#a12b2f;}.cls-7{fill:#cd202c;}.cls-8{fill:#77b300;}.cls-hole{fill:#00000000}.cls-name{fill:#838383;}
    </style>
  </defs>
  <title>ANL_RGB_rev</title>
  <g id="boundary">
    <rect id="_Rectangle_" data-name="&lt;Rectangle&gt;" class="cls-1" width="300" height="104.82"/>
  </g>
  <g id="delta">
    <polygon class="cls-hole" points="243.27 51.86 254.19 32.95 265.11 51.86 243.27 51.86"/>
    <g id="_Group_" data-name="&lt;Group&gt;">
      <polygon id="_Path_" data-name="&lt;Path&gt;" class="cls-3" points="244.51 50.31 225.15 50.31 234.83 67.07 244.51 50.31"/>
      <path id="_Compound_Path_" data-name="&lt;Compound Path&gt;" class="cls-4" d="M263.87,50.31H244.51l-9.68,16.77h38.72Z"/>
      <polygon id="_Path_2" data-name="&lt;Path&gt;" class="cls-5" points="283.23 50.31 263.87 50.31 273.55 67.07 283.23 50.31"/>
      <polygon id="_Path_3" data-name="&lt;Path&gt;" class="cls-1" points="263.87 50.31 244.51 50.31 254.19 33.54 263.87 50.31"/>
      <polygon id="_Path_4" data-name="&lt;Path&gt;" class="cls-6" points="263.87 16.77 244.51 16.77 254.19 33.54 263.87 16.77"/>
      <polygon id="_Path_5" data-name="&lt;Path&gt;" class="cls-7" points="263.87 16.77 254.19 33.54 263.87 50.3 263.87 50.31 283.23 50.31 263.87 16.77"/>
      <path id="_Compound_Path_2" data-name="&lt;Compound Path&gt;" class="cls-8" d="M244.51,50.31l9.68-16.77-9.68-16.77L225.15,50.31Z"/>
    </g>
  </g>
  <g id="text">
    <path id="_Compound_Path_3" data-name="&lt;Compound Path&gt;" class="cls-name" d="M108.66,88.05l-2.94-5.12a23.2,23.2,0,0,1-1.09-2.18c.06.87.09,2.46.09,3.68v3.62h-1.87V77.92h2.51l2.8,4.83c.46.78.86,1.62,1.23,2.39-.07-1-.1-2.82-.1-4.07V77.92h1.87V88.05Z"/>
    <path id="_Compound_Path_4" data-name="&lt;Compound Path&gt;" class="cls-name" d="M120.4,88.05,119.7,86h-3.79l-.7,2.07h-1.95l3.51-10.13H119l3.58,10.13Zm-2.14-6.27a12.7,12.7,0,0,1-.46-1.62h0c-.12.53-.28,1.11-.48,1.7l-.91,2.58h2.8Z"/>
    <path id="_Compound_Path_5" data-name="&lt;Compound Path&gt;" class="cls-name" d="M127.92,79.59v8.46H126V79.59h-2.6V77.92h7.14v1.66Z"/>
    <path id="_Compound_Path_6" data-name="&lt;Compound Path&gt;" class="cls-name" d="M132.72,88.05V77.92h1.93V88.05Z"/>
    <path id="_Compound_Path_7" data-name="&lt;Compound Path&gt;" class="cls-name" d="M141.6,88.21c-3.07,0-4.57-2-4.57-5.1,0-3.35,2.22-5.36,4.91-5.36s4.57,1.62,4.57,5.09S144.32,88.21,141.6,88.21Zm.16-8.7c-1.39,0-2.66,1.11-2.66,3.39s.83,3.54,2.63,3.54c1.31,0,2.71-1,2.71-3.45C144.44,80.74,143.49,79.51,141.76,79.51Z"/>
    <path id="_Compound_Path_8" data-name="&lt;Compound Path&gt;" class="cls-name" d="M154.3,88.05l-2.95-5.12a24.18,24.18,0,0,1-1.09-2.18c.06.87.09,2.46.09,3.68v3.62h-1.87V77.92H151l2.8,4.83c.46.78.86,1.62,1.23,2.39-.07-1-.1-2.82-.1-4.07V77.92h1.87V88.05Z"/>
    <path id="_Compound_Path_9" data-name="&lt;Compound Path&gt;" class="cls-name" d="M166.14,88.05l-.7-2.07h-3.79l-.7,2.07H159l3.51-10.13h2.19l3.58,10.13ZM164,81.78a12.79,12.79,0,0,1-.46-1.62h0c-.12.53-.29,1.11-.48,1.7l-.91,2.58h2.8Z"/>
    <path id="_Compound_Path_10" data-name="&lt;Compound Path&gt;" class="cls-name" d="M170.48,88.05V77.92h1.93v8.42h3.26v1.71Z"/>
    <path id="_Compound_Path_11" data-name="&lt;Compound Path&gt;" class="cls-name" d="M181.93,88.05V77.92h1.93v8.42h3.26v1.71Z"/>
    <path id="_Compound_Path_12" data-name="&lt;Compound Path&gt;" class="cls-name" d="M196.47,88.05l-.7-2.07H192l-.7,2.07h-1.95l3.51-10.13H195l3.58,10.13Zm-2.14-6.27a13.22,13.22,0,0,1-.46-1.62h0a17.16,17.16,0,0,1-.48,1.7l-.91,2.58h2.8Z"/>
    <path id="_Compound_Path_13" data-name="&lt;Compound Path&gt;" class="cls-name" d="M203.69,88.08c-.61,0-1.67,0-2.93,0V77.94c.85,0,2.16-.08,3.39-.08,2.17,0,3.38.89,3.38,2.51a2.45,2.45,0,0,1-1.59,2.27v0a2.23,2.23,0,0,1,1.79,2.27C207.72,86.4,206.73,88.08,203.69,88.08Zm.13-8.64c-.4,0-.79,0-1.13,0v2.64c.24,0,.47,0,.79,0,1.32,0,2-.54,2-1.44C205.49,79.93,205,79.44,203.83,79.44Zm-.28,4.14c-.15,0-.64,0-.85,0v2.84a8.94,8.94,0,0,0,1.06.06c1.26,0,1.9-.6,1.9-1.51S204.81,83.58,203.54,83.58Z"/>
    <path id="_Compound_Path_14" data-name="&lt;Compound Path&gt;" class="cls-name" d="M214.33,88.21c-3.06,0-4.57-2-4.57-5.1,0-3.35,2.22-5.36,4.91-5.36s4.57,1.62,4.57,5.09S217.05,88.21,214.33,88.21Zm.16-8.7c-1.38,0-2.66,1.11-2.66,3.39s.83,3.54,2.63,3.54c1.31,0,2.71-1,2.71-3.45C217.17,80.74,216.22,79.51,214.5,79.51Z"/>
    <path id="_Compound_Path_15" data-name="&lt;Compound Path&gt;" class="cls-name" d="M226.19,88.05l-2.8-4.19h-.08v4.19h-1.93V77.92c.79,0,1.73-.06,2.88-.06,2.22,0,3.65.78,3.65,2.85a2.82,2.82,0,0,1-2.56,2.82c.28.38.57.77.82,1.11l2.41,3.41Zm-2.11-8.6a5.57,5.57,0,0,0-.76,0v2.93c.13,0,.4,0,.7,0,1.16,0,1.87-.6,1.87-1.55S225.3,79.45,224.08,79.45Z"/>
    <path id="_Compound_Path_16" data-name="&lt;Compound Path&gt;" class="cls-name" d="M252.67,88.21c-3.06,0-4.57-2-4.57-5.1,0-3.35,2.22-5.36,4.91-5.36s4.57,1.62,4.57,5.09S255.39,88.21,252.67,88.21Zm.16-8.7c-1.38,0-2.66,1.11-2.66,3.39s.83,3.54,2.63,3.54c1.31,0,2.71-1,2.71-3.45C255.51,80.74,254.56,79.51,252.84,79.51Z"/>
    <path id="_Compound_Path_17" data-name="&lt;Compound Path&gt;" class="cls-name" d="M264.42,88.05l-2.8-4.19h-.08v4.19h-1.93V77.92c.79,0,1.73-.06,2.88-.06,2.22,0,3.65.78,3.65,2.85a2.82,2.82,0,0,1-2.56,2.82l.82,1.11,2.41,3.41Zm-2.11-8.6a5.57,5.57,0,0,0-.76,0v2.93c.14,0,.4,0,.7,0,1.16,0,1.87-.6,1.87-1.55S263.53,79.45,262.31,79.45Z"/>
    <path id="_Compound_Path_18" data-name="&lt;Compound Path&gt;" class="cls-name" d="M237.21,88.05l-.7-2.07h-3.79l-.7,2.07h-1.95l3.51-10.13h2.19l3.59,10.13Zm-2.14-6.27a12.9,12.9,0,0,1-.46-1.62h0a17.5,17.5,0,0,1-.48,1.7l-.91,2.58H236Z"/>
    <path id="_Compound_Path_19" data-name="&lt;Compound Path&gt;" class="cls-name" d="M244.32,79.59v8.46h-1.93V79.59h-2.6V77.92h7.14v1.66Z"/>
    <path id="_Compound_Path_20" data-name="&lt;Compound Path&gt;" class="cls-name" d="M273.22,84.46v3.59h-1.93V84.48l-3.14-6.56h2.11l1.32,2.91c.27.6.49,1.15.68,1.68h0c.21-.59.51-1.23.8-1.88l1.27-2.71h2.05Z"/>
    <g id="_Group_2" data-name="&lt;Group&gt;" class="cls-name">
      <path id="_Compound_Path_21" data-name="&lt;Compound Path&gt;" class="cls-name" d="M46.2,66.6l-3.49-9.81H25L21.44,66.6H16.77L31.6,26.71h4.91L51.34,66.6ZM35.68,37.47a41.67,41.67,0,0,1-1.77-5.85h-.12A54.25,54.25,0,0,1,32,37.41L26.22,53.18H41.47Z"/>
      <path id="_Compound_Path_22" data-name="&lt;Compound Path&gt;" class="cls-name" d="M69.18,41.07C62.68,40,59.61,45,59.61,54.84V66.6H55.18V37.23h4.37a50.67,50.67,0,0,1-.65,7.39l.06.06c1.18-4.31,4.26-8.69,10.4-8Z"/>
      <path id="_Compound_Path_23" data-name="&lt;Compound Path&gt;" class="cls-name" d="M83,82c-7.45,0-12.23-3-12.23-8.63a8.79,8.79,0,0,1,5.08-7.8,4.63,4.63,0,0,1-3-4.25,5.26,5.26,0,0,1,3.25-4.78c-3-1.71-4.37-4.73-4.37-8.51,0-6.15,4.79-11.35,12.76-11.35a17.49,17.49,0,0,1,3,.23c.48.08,4.38.3,5.06.3H99v3.49h-3.5c-.29,0-2-.11-2-.11s0-.05.17.11a8.16,8.16,0,0,1,2.84,6.44c0,6.26-4.31,11-12.76,11a20.58,20.58,0,0,1-4-.41,2.92,2.92,0,0,0-2.19,2.66c0,1.71,1.65,2.48,5.32,2.48h5.73c6.38,0,9.87,3.13,9.87,8.27C98.46,77.41,92.08,82,83,82Zm4.31-15.25h-6c-.59,0-1.36,0-1.89-.06-2.54,1.3-4.2,3.43-4.2,5.91,0,3.78,3.66,5.79,8.57,5.79C90.24,78.42,94,75.7,94,71.8,94,68.67,91.84,66.78,87.35,66.78Zm-3-26.65c-5.08,0-8.1,3.13-8.1,7.45,0,4.79,2.9,7.33,7.86,7.33s8-2.6,8-7.33S89.18,40.12,84.34,40.12Z"/>
      <path id="_Compound_Path_24" data-name="&lt;Compound Path&gt;" class="cls-name" d="M113,67.13c-7.86,0-12.94-4.79-12.94-15.07,0-8.39,5.2-15.36,14-15.36,7.15,0,13,4,13,14.71C127,60.16,121.66,67.13,113,67.13Zm.65-26.77c-4.61,0-9,3.49-9,11.35,0,7.51,3.25,11.64,9,11.64,4.61,0,8.81-3.54,8.81-11.64C122.43,44.62,119.48,40.36,113.63,40.36Z"/>
      <path id="_Compound_Path_25" data-name="&lt;Compound Path&gt;" class="cls-name" d="M150.1,66.6v-19c0-4.61-1.24-7.27-5.5-7.27-5.26,0-9,5.2-9,12.17V66.6h-4.43V37.23h4.37a46.76,46.76,0,0,1-.47,6.5l.12.06a10.86,10.86,0,0,1,10.52-7.15c6.74,0,8.8,4.26,8.8,9.46V66.6Z"/>
      <path id="_Compound_Path_26" data-name="&lt;Compound Path&gt;" class="cls-name" d="M180.81,66.6v-19c0-4.61-1.24-7.27-5.5-7.27-5.26,0-9,5.2-9,12.17V66.6H161.9V37.23h4.37a46.94,46.94,0,0,1-.47,6.5l.12.06a10.86,10.86,0,0,1,10.52-7.15c6.74,0,8.8,4.26,8.8,9.46V66.6Z"/>
      <path id="_Compound_Path_27" data-name="&lt;Compound Path&gt;" class="cls-name" d="M213.68,51H194.06c-.3,8.8,3.19,12.47,9.75,12.47a19.86,19.86,0,0,0,8.51-1.89l.41,3.78A25.51,25.51,0,0,1,203,67.13c-8.86,0-13.59-4.79-13.59-15.07,0-8.8,4.73-15.36,12.88-15.36s11.46,5.61,11.46,12.11A16,16,0,0,1,213.68,51ZM202.09,40.07c-4.14,0-7.09,3-7.8,7.62h14.89C209.3,43.14,206.58,40.07,202.09,40.07Z"/>
    </g>
  </g>
</svg>
