<svg version="1.1" xmlns="http://www.w3.org/2000/svg" viewBox="0 0 191.94101211799216 146.813188167441" width="191.94101211799216" height="146.813188167441"><!-- svg-source:excalidraw --><metadata></metadata><defs><style class="style-fonts">
      </style></defs><rect x="0" y="0" width="191.94101211799216" height="146.813188167441" fill="rgba(0,0,0,0.0)"></rect><g transform="translate(61.376184883836686 56.63520266690807) rotate(0 -17.125394961278857 20.239103136056883)" stroke="none"><path fill="#838383" d="M -2.27,-2.15 Q -2.27,-2.15 0.16,-7.85 2.59,-13.55 4.54,-17.87 6.49,-22.20 7.14,-24.41 7.79,-26.62 4.90,-28.27 2.01,-29.92 -1.24,-28.46 -4.49,-26.99 -8.24,-23.04 -11.99,-19.09 -13.76,-14.42 -15.53,-9.76 -13.70,-5.10 -11.88,-0.44 -7.08,4.63 -2.28,9.72 3.78,16.43 9.85,23.14 14.22,32.40 18.59,41.66 17.54,51.97 16.49,62.29 9.66,69.83 2.82,77.38 -6.64,79.74 -16.12,82.09 -25.58,80.41 -35.04,78.74 -41.63,73.92 -48.22,69.09 -50.84,62.59 -53.46,56.09 -52.14,50.34 -50.82,44.58 -46.45,40.69 -42.09,36.80 -39.59,35.75 -37.08,34.70 -36.73,34.46 -36.37,34.23 -35.96,34.13 -35.55,34.02 -35.12,34.05 -34.70,34.08 -34.31,34.25 -33.92,34.41 -33.60,34.70 -33.28,34.98 -33.07,35.35 -32.86,35.71 -32.77,36.13 -32.69,36.55 -32.75,36.97 -32.80,37.39 -32.99,37.77 -33.17,38.15 -33.47,38.46 -33.77,38.76 -34.15,38.95 -34.53,39.14 -34.95,39.20 -35.37,39.26 -35.79,39.19 -36.20,39.11 -36.58,38.90 -36.95,38.70 -37.23,38.38 -37.52,38.07 -37.69,37.68 -37.86,37.29 -37.90,36.87 -37.94,36.44 -37.84,36.03 -37.74,35.62 -37.51,35.26 -37.28,34.90 -36.95,34.63 -36.63,34.36 -36.23,34.21 -35.83,34.06 -35.40,34.05 -34.98,34.03 -34.57,34.15 -34.17,34.28 -33.82,34.52 -33.47,34.77 -33.22,35.11 -32.97,35.45 -32.84,35.86 -32.72,36.27 -32.72,36.69 -32.73,37.11 -32.88,37.51 -33.02,37.91 -33.28,38.25 -33.55,38.58 -33.55,38.58 -33.55,38.58 -34.60,40.76 -35.65,42.95 -37.55,45.62 -39.44,48.29 -40.21,50.60 -40.97,52.91 -40.08,55.92 -39.18,58.92 -35.39,61.72 -31.61,64.52 -25.07,66.03 -18.54,67.54 -12.50,66.85 -6.46,66.16 -2.06,62.34 2.33,58.52 3.49,52.61 4.65,46.71 1.58,39.92 -1.48,33.14 -7.66,26.33 -13.84,19.51 -19.95,11.73 -26.06,3.95 -27.79,-4.81 -29.51,-13.57 -25.95,-21.53 -22.39,-29.49 -15.70,-35.25 -9.02,-41.01 -1.41,-42.37 6.19,-43.72 12.04,-40.31 17.89,-36.89 20.08,-31.04 22.27,-25.19 21.16,-20.32 20.04,-15.45 16.78,-9.45 13.51,-3.45 7.89,-0.65 2.27,2.15 1.98,2.39 1.69,2.63 1.35,2.79 1.01,2.96 0.64,3.03 0.27,3.11 -0.10,3.10 -0.48,3.09 -0.84,2.98 -1.20,2.88 -1.53,2.70 -1.86,2.51 -2.13,2.25 -2.41,1.99 -2.61,1.67 -2.81,1.36 -2.93,1.00 -3.06,0.64 -3.09,0.27 -3.12,-0.10 -3.06,-0.47 -3.01,-0.85 -2.86,-1.19 -2.72,-1.54 -2.49,-1.84 -2.27,-2.15 -2.27,-2.15 L -2.27,-2.15 Z"></path></g><g transform="translate(108.66735633907138 30.935330222548828) rotate(0 30.530689907883698 38.381438741339366)" stroke="none"><path fill="#838383" d="M 3.05,0.67 Q 3.05,0.67 3.36,5.48 3.67,10.28 2.48,20.28 1.29,30.28 0.21,42.48 -0.85,54.69 -1.62,64.89 -2.39,75.09 -2.25,81.15 -2.11,87.21 -1.69,90.18 -1.27,93.15 -1.34,93.83 -1.40,94.51 -1.62,95.16 -1.84,95.81 -2.22,96.39 -2.59,96.96 -3.09,97.43 -3.59,97.91 -4.19,98.24 -4.78,98.58 -5.45,98.76 -6.11,98.95 -6.79,98.97 -7.48,98.99 -8.15,98.85 -8.82,98.70 -9.44,98.40 -10.06,98.10 -10.58,97.66 -11.11,97.22 -11.52,96.67 -11.92,96.12 -12.19,95.48 -12.45,94.85 -12.55,94.17 -12.66,93.49 -10.94,90.69 -9.23,87.88 -8.95,84.21 -8.67,80.54 -9.30,73.75 -9.93,66.97 -12.05,57.94 -14.17,48.91 -15.79,39.13 -17.40,29.36 -16.99,20.47 -16.57,11.58 -11.50,3.42 -6.43,-4.73 3.85,-10.96 14.15,-17.20 24.56,-20.49 34.97,-23.79 43.47,-24.93 51.98,-26.08 57.84,-25.31 63.71,-24.55 68.31,-20.09 72.91,-15.63 73.22,-15.33 73.53,-15.04 73.72,-14.67 73.92,-14.29 73.99,-13.87 74.06,-13.45 73.99,-13.03 73.92,-12.61 73.72,-12.24 73.52,-11.86 73.22,-11.57 72.91,-11.28 72.52,-11.10 72.14,-10.92 71.71,-10.88 71.29,-10.83 70.88,-10.92 70.46,-11.01 70.10,-11.23 69.73,-11.45 69.46,-11.77 69.18,-12.10 69.03,-12.49 68.87,-12.89 68.85,-13.31 68.82,-13.74 68.94,-14.15 69.05,-14.56 69.29,-14.91 69.53,-15.26 69.87,-15.52 70.21,-15.77 70.61,-15.91 71.01,-16.04 71.44,-16.04 71.86,-16.04 72.26,-15.91 72.67,-15.77 73.00,-15.51 73.34,-15.26 73.58,-14.91 73.82,-14.55 73.93,-14.14 74.05,-13.73 74.02,-13.31 74.00,-12.89 73.84,-12.49 73.68,-12.10 73.41,-11.77 73.13,-11.45 72.77,-11.23 72.41,-11.01 71.99,-10.92 71.57,-10.83 71.15,-10.88 70.73,-10.92 70.34,-11.10 69.96,-11.28 69.96,-11.28 69.96,-11.28 66.24,-11.28 62.51,-11.29 58.18,-11.17 53.85,-11.05 46.62,-10.17 39.39,-9.30 30.48,-6.65 21.57,-4.01 13.54,0.17 5.51,4.37 1.69,8.95 -2.11,13.53 -2.53,20.46 -2.96,27.38 -1.84,37.11 -0.72,46.83 0.05,56.55 0.84,66.28 1.14,74.10 1.44,81.92 0.08,87.53 -1.27,93.15 -1.34,93.83 -1.40,94.51 -1.62,95.16 -1.84,95.81 -2.22,96.39 -2.59,96.96 -3.09,97.43 -3.59,97.91 -4.19,98.24 -4.78,98.58 -5.44,98.76 -6.11,98.95 -6.79,98.97 -7.48,98.99 -8.15,98.85 -8.82,98.70 -9.44,98.40 -10.05,98.10 -10.58,97.66 -11.11,97.22 -11.52,96.67 -11.92,96.12 -12.19,95.49 -12.45,94.85 -12.55,94.17 -12.66,93.49 -13.41,90.55 -14.16,87.60 -14.40,80.92 -14.65,74.24 -13.98,63.90 -13.30,53.57 -12.16,41.06 -11.02,28.55 -9.35,18.16 -7.68,7.76 -5.37,3.54 -3.05,-0.67 -2.92,-1.03 -2.80,-1.39 -2.59,-1.70 -2.38,-2.02 -2.11,-2.27 -1.83,-2.53 -1.50,-2.71 -1.17,-2.89 -0.81,-2.99 -0.44,-3.09 -0.07,-3.10 0.30,-3.11 0.67,-3.03 1.04,-2.95 1.38,-2.78 1.71,-2.61 2.00,-2.37 2.29,-2.12 2.51,-1.82 2.73,-1.51 2.87,-1.16 3.02,-0.81 3.07,-0.44 3.12,-0.07 3.09,0.30 3.05,0.67 3.05,0.67 L 3.05,0.67 Z"></path></g><g transform="translate(103.28166991508056 79.02075542412172) rotate(0 27.041468204125522 -2.180763564848803)" stroke="none"><path fill="#838383" d="M -0.18,-3.12 Q -0.18,-3.12 3.97,-5.17 8.12,-7.22 14.33,-8.34 20.54,-9.45 27.45,-10.33 34.36,-11.21 40.12,-9.66 45.89,-8.11 46.32,-8.07 46.74,-8.04 47.13,-7.87 47.52,-7.70 47.83,-7.41 48.15,-7.13 48.36,-6.75 48.56,-6.38 48.64,-5.97 48.72,-5.55 48.66,-5.13 48.60,-4.71 48.41,-4.33 48.22,-3.95 47.92,-3.65 47.62,-3.35 47.23,-3.16 46.85,-2.98 46.43,-2.92 46.01,-2.86 45.59,-2.95 45.18,-3.03 44.81,-3.24 44.44,-3.45 44.16,-3.77 43.87,-4.09 43.71,-4.48 43.54,-4.87 43.51,-5.29 43.48,-5.72 43.58,-6.13 43.69,-6.54 43.92,-6.90 44.15,-7.25 44.48,-7.52 44.81,-7.78 45.21,-7.93 45.61,-8.07 46.04,-8.08 46.46,-8.09 46.87,-7.96 47.27,-7.84 47.62,-7.59 47.96,-7.34 48.21,-6.99 48.45,-6.64 48.58,-6.24 48.70,-5.83 48.68,-5.41 48.67,-4.98 48.52,-4.58 48.37,-4.19 48.11,-3.86 47.84,-3.53 47.48,-3.30 47.12,-3.07 46.71,-2.97 46.29,-2.87 46.29,-2.87 46.29,-2.87 41.26,-0.49 36.23,1.88 29.52,2.95 22.81,4.01 15.87,5.11 8.92,6.22 4.55,4.67 0.18,3.12 -0.19,3.10 -0.56,3.07 -0.92,2.96 -1.28,2.85 -1.61,2.65 -1.93,2.45 -2.20,2.19 -2.46,1.92 -2.66,1.60 -2.85,1.27 -2.96,0.91 -3.07,0.55 -3.10,0.18 -3.12,-0.19 -3.05,-0.56 -2.98,-0.93 -2.83,-1.27 -2.67,-1.62 -2.44,-1.91 -2.20,-2.21 -1.91,-2.44 -1.61,-2.68 -1.26,-2.83 -0.92,-2.98 -0.55,-3.05 -0.18,-3.12 -0.18,-3.12 L -0.18,-3.12 Z"></path></g></svg>
