<?xml version="1.0" encoding="utf-8" standalone="no"?>
<!DOCTYPE svg PUBLIC "-//W3C//DTD SVG 1.1//EN"
  "http://www.w3.org/Graphics/SVG/1.1/DTD/svg11.dtd">
<svg xmlns:xlink="http://www.w3.org/1999/xlink" width="223.65pt" height="174.26pt" viewBox="0 0 223.65 174.26" xmlns="http://www.w3.org/2000/svg" version="1.1">
 <metadata>
  <rdf:RDF xmlns:dc="http://purl.org/dc/elements/1.1/" xmlns:cc="http://creativecommons.org/ns#" xmlns:rdf="http://www.w3.org/1999/02/22-rdf-syntax-ns#">
   <cc:Work>
    <dc:type rdf:resource="http://purl.org/dc/dcmitype/StillImage"/>
    <dc:date>2025-07-24T17:02:10.144796</dc:date>
    <dc:format>image/svg+xml</dc:format>
    <dc:creator>
     <cc:Agent>
      <dc:title>Matplotlib v3.10.1, https://matplotlib.org/</dc:title>
     </cc:Agent>
    </dc:creator>
   </cc:Work>
  </rdf:RDF>
 </metadata>
 <defs>
  <style type="text/css">*{stroke-linejoin: round; stroke-linecap: butt}</style>
 </defs>
 <g id="figure_1">
  <g id="patch_1">
   <path d="M 0 174.26 
L 223.65 174.26 
L 223.65 0 
L 0 0 
L 0 174.26 
z
" style="fill: none"/>
  </g>
  <g id="axes_1">
   <g id="patch_2">
    <path d="M 7.2 48.78 
L 216.45 48.78 
L 216.45 7.2 
L 7.2 7.2 
L 7.2 48.78 
z
" style="fill: none"/>
   </g>
   <g id="matplotlib.axis_1">
    <g id="xtick_1"/>
    <g id="xtick_2"/>
    <g id="xtick_3"/>
    <g id="xtick_4"/>
   </g>
   <g id="matplotlib.axis_2"/>
   <g id="line2d_1">
    <path d="M 7.2 48.78 
L 216.45 48.78 
" style="fill: none; stroke: #482475; stroke-opacity: 0.9; stroke-linecap: round"/>
   </g>
   <g id="text_1">
    <!-- 0 -->
    <g style="fill: #482475" transform="translate(7.2 47.862) scale(0.12 -0.12)">
     <defs>
      <path id="IBMPlexSans-Bold-30" d="M 1920 -77 
Q 1043 -77 620 531 
Q 198 1139 198 2234 
Q 198 3328 620 3936 
Q 1043 4544 1920 4544 
Q 2797 4544 3219 3936 
Q 3642 3328 3642 2234 
Q 3642 1139 3219 531 
Q 2797 -77 1920 -77 
z
M 1920 736 
Q 2304 736 2451 1017 
Q 2598 1299 2598 1811 
L 2598 2656 
Q 2598 3168 2451 3449 
Q 2304 3731 1920 3731 
Q 1536 3731 1389 3449 
Q 1242 3168 1242 2656 
L 1242 1811 
Q 1242 1299 1389 1017 
Q 1536 736 1920 736 
z
" transform="scale(0.015625)"/>
     </defs>
     <use xlink:href="#IBMPlexSans-Bold-30"/>
    </g>
   </g>
  </g>
  <g id="axes_2">
   <g id="patch_3">
    <path d="M 7.2 59.175 
L 216.45 59.175 
L 216.45 17.595 
L 7.2 17.595 
L 7.2 59.175 
z
" style="fill: none"/>
   </g>
   <g id="matplotlib.axis_3">
    <g id="xtick_5"/>
    <g id="xtick_6"/>
    <g id="xtick_7"/>
    <g id="xtick_8"/>
   </g>
   <g id="matplotlib.axis_4"/>
   <g id="FillBetweenPolyCollection_1">
    <defs>
     <path id="mca34e0981e" d="M 41.026301 -117.076664 
L 41.026301 -115.085 
L 41.260013 -115.085 
L 41.493725 -115.085 
L 41.727437 -115.085 
L 41.961149 -115.085 
L 42.19486 -115.085 
L 42.428572 -115.085 
L 42.662284 -115.085 
L 42.895996 -115.085 
L 43.129708 -115.085 
L 43.36342 -115.085 
L 43.597132 -115.085 
L 43.830844 -115.085 
L 44.064556 -115.085 
L 44.298268 -115.085 
L 44.53198 -115.085 
L 44.765692 -115.085 
L 44.999404 -115.085 
L 45.233116 -115.085 
L 45.466828 -115.085 
L 45.70054 -115.085 
L 45.934252 -115.085 
L 46.167963 -115.085 
L 46.401675 -115.085 
L 46.635387 -115.085 
L 46.869099 -115.085 
L 47.102811 -115.085 
L 47.336523 -115.085 
L 47.570235 -115.085 
L 47.803947 -115.085 
L 48.037659 -115.085 
L 48.271371 -115.085 
L 48.505083 -115.085 
L 48.738795 -115.085 
L 48.972507 -115.085 
L 49.206219 -115.085 
L 49.439931 -115.085 
L 49.673643 -115.085 
L 49.907355 -115.085 
L 50.141067 -115.085 
L 50.374778 -115.085 
L 50.60849 -115.085 
L 50.842202 -115.085 
L 51.075914 -115.085 
L 51.309626 -115.085 
L 51.543338 -115.085 
L 51.77705 -115.085 
L 52.010762 -115.085 
L 52.244474 -115.085 
L 52.478186 -115.085 
L 52.711898 -115.085 
L 52.94561 -115.085 
L 53.179322 -115.085 
L 53.413034 -115.085 
L 53.646746 -115.085 
L 53.880458 -115.085 
L 54.11417 -115.085 
L 54.347881 -115.085 
L 54.581593 -115.085 
L 54.815305 -115.085 
L 55.049017 -115.085 
L 55.282729 -115.085 
L 55.516441 -115.085 
L 55.750153 -115.085 
L 55.983865 -115.085 
L 56.217577 -115.085 
L 56.451289 -115.085 
L 56.685001 -115.085 
L 56.918713 -115.085 
L 57.152425 -115.085 
L 57.386137 -115.085 
L 57.619849 -115.085 
L 57.853561 -115.085 
L 58.087273 -115.085 
L 58.320985 -115.085 
L 58.554696 -115.085 
L 58.788408 -115.085 
L 59.02212 -115.085 
L 59.255832 -115.085 
L 59.489544 -115.085 
L 59.723256 -115.085 
L 59.956968 -115.085 
L 60.19068 -115.085 
L 60.424392 -115.085 
L 60.658104 -115.085 
L 60.891816 -115.085 
L 61.125528 -115.085 
L 61.35924 -115.085 
L 61.592952 -115.085 
L 61.826664 -115.085 
L 62.060376 -115.085 
L 62.294088 -115.085 
L 62.527799 -115.085 
L 62.761511 -115.085 
L 62.995223 -115.085 
L 63.228935 -115.085 
L 63.462647 -115.085 
L 63.696359 -115.085 
L 63.930071 -115.085 
L 64.163783 -115.085 
L 64.397495 -115.085 
L 64.631207 -115.085 
L 64.864919 -115.085 
L 65.098631 -115.085 
L 65.332343 -115.085 
L 65.566055 -115.085 
L 65.799767 -115.085 
L 66.033479 -115.085 
L 66.267191 -115.085 
L 66.500903 -115.085 
L 66.734614 -115.085 
L 66.968326 -115.085 
L 67.202038 -115.085 
L 67.43575 -115.085 
L 67.669462 -115.085 
L 67.903174 -115.085 
L 68.136886 -115.085 
L 68.370598 -115.085 
L 68.60431 -115.085 
L 68.838022 -115.085 
L 69.071734 -115.085 
L 69.305446 -115.085 
L 69.539158 -115.085 
L 69.77287 -115.085 
L 70.006582 -115.085 
L 70.240294 -115.085 
L 70.474006 -115.085 
L 70.707717 -115.085 
L 70.941429 -115.085 
L 71.175141 -115.085 
L 71.408853 -115.085 
L 71.642565 -115.085 
L 71.876277 -115.085 
L 72.109989 -115.085 
L 72.343701 -115.085 
L 72.577413 -115.085 
L 72.811125 -115.085 
L 73.044837 -115.085 
L 73.278549 -115.085 
L 73.512261 -115.085 
L 73.745973 -115.085 
L 73.979685 -115.085 
L 74.213397 -115.085 
L 74.447109 -115.085 
L 74.680821 -115.085 
L 74.914532 -115.085 
L 75.148244 -115.085 
L 75.381956 -115.085 
L 75.615668 -115.085 
L 75.84938 -115.085 
L 76.083092 -115.085 
L 76.316804 -115.085 
L 76.550516 -115.085 
L 76.784228 -115.085 
L 77.01794 -115.085 
L 77.251652 -115.085 
L 77.485364 -115.085 
L 77.719076 -115.085 
L 77.952788 -115.085 
L 78.1865 -115.085 
L 78.420212 -115.085 
L 78.653924 -115.085 
L 78.887635 -115.085 
L 79.121347 -115.085 
L 79.355059 -115.085 
L 79.588771 -115.085 
L 79.822483 -115.085 
L 80.056195 -115.085 
L 80.289907 -115.085 
L 80.523619 -115.085 
L 80.757331 -115.085 
L 80.991043 -115.085 
L 81.224755 -115.085 
L 81.458467 -115.085 
L 81.692179 -115.085 
L 81.925891 -115.085 
L 82.159603 -115.085 
L 82.393315 -115.085 
L 82.627027 -115.085 
L 82.860739 -115.085 
L 83.09445 -115.085 
L 83.328162 -115.085 
L 83.561874 -115.085 
L 83.795586 -115.085 
L 84.029298 -115.085 
L 84.26301 -115.085 
L 84.496722 -115.085 
L 84.730434 -115.085 
L 84.964146 -115.085 
L 85.197858 -115.085 
L 85.43157 -115.085 
L 85.665282 -115.085 
L 85.898994 -115.085 
L 86.132706 -115.085 
L 86.366418 -115.085 
L 86.60013 -115.085 
L 86.833842 -115.085 
L 87.067553 -115.085 
L 87.301265 -115.085 
L 87.534977 -115.085 
L 87.534977 -116.110598 
L 87.534977 -116.110598 
L 87.301265 -116.214401 
L 87.067553 -116.323524 
L 86.833842 -116.437679 
L 86.60013 -116.55653 
L 86.366418 -116.679708 
L 86.132706 -116.806815 
L 85.898994 -116.937437 
L 85.665282 -117.071152 
L 85.43157 -117.207541 
L 85.197858 -117.346199 
L 84.964146 -117.486744 
L 84.730434 -117.628823 
L 84.496722 -117.772126 
L 84.26301 -117.916384 
L 84.029298 -118.06138 
L 83.795586 -118.206948 
L 83.561874 -118.352972 
L 83.328162 -118.499393 
L 83.09445 -118.646198 
L 82.860739 -118.793421 
L 82.627027 -118.941137 
L 82.393315 -119.089456 
L 82.159603 -119.238514 
L 81.925891 -119.388465 
L 81.692179 -119.539474 
L 81.458467 -119.691707 
L 81.224755 -119.845318 
L 80.991043 -120.000446 
L 80.757331 -120.157195 
L 80.523619 -120.315634 
L 80.289907 -120.475781 
L 80.056195 -120.637599 
L 79.822483 -120.800983 
L 79.588771 -120.965762 
L 79.355059 -121.131689 
L 79.121347 -121.298442 
L 78.887635 -121.465625 
L 78.653924 -121.632777 
L 78.420212 -121.799375 
L 78.1865 -121.964855 
L 77.952788 -122.12862 
L 77.719076 -122.290071 
L 77.485364 -122.448625 
L 77.251652 -122.603747 
L 77.01794 -122.754983 
L 76.784228 -122.901988 
L 76.550516 -123.044563 
L 76.316804 -123.182685 
L 76.083092 -123.31654 
L 75.84938 -123.446544 
L 75.615668 -123.573371 
L 75.381956 -123.69796 
L 75.148244 -123.821528 
L 74.914532 -123.945564 
L 74.680821 -124.071817 
L 74.447109 -124.202278 
L 74.213397 -124.339148 
L 73.979685 -124.484799 
L 73.745973 -124.641723 
L 73.512261 -124.812486 
L 73.278549 -124.999658 
L 73.044837 -125.205761 
L 72.811125 -125.433198 
L 72.577413 -125.684193 
L 72.343701 -125.960735 
L 72.109989 -126.264519 
L 71.876277 -126.596905 
L 71.642565 -126.958878 
L 71.408853 -127.351023 
L 71.175141 -127.773511 
L 70.941429 -128.226094 
L 70.707717 -128.708115 
L 70.474006 -129.218529 
L 70.240294 -129.755932 
L 70.006582 -130.318602 
L 69.77287 -130.904547 
L 69.539158 -131.511553 
L 69.305446 -132.137247 
L 69.071734 -132.779146 
L 68.838022 -133.434719 
L 68.60431 -134.101433 
L 68.370598 -134.776806 
L 68.136886 -135.458444 
L 67.903174 -136.144077 
L 67.669462 -136.831583 
L 67.43575 -137.519006 
L 67.202038 -138.204564 
L 66.968326 -138.886654 
L 66.734614 -139.563843 
L 66.500903 -140.234865 
L 66.267191 -140.898598 
L 66.033479 -141.554058 
L 65.799767 -142.200373 
L 65.566055 -142.836772 
L 65.332343 -143.462565 
L 65.098631 -144.077128 
L 64.864919 -144.679889 
L 64.631207 -145.270321 
L 64.397495 -145.847926 
L 64.163783 -146.412235 
L 63.930071 -146.962795 
L 63.696359 -147.499165 
L 63.462647 -148.020911 
L 63.228935 -148.527598 
L 62.995223 -149.018781 
L 62.761511 -149.494004 
L 62.527799 -149.952783 
L 62.294088 -150.394602 
L 62.060376 -150.818906 
L 61.826664 -151.225094 
L 61.592952 -151.612512 
L 61.35924 -151.98046 
L 61.125528 -152.328189 
L 60.891816 -152.654912 
L 60.658104 -152.959817 
L 60.424392 -153.242087 
L 60.19068 -153.500919 
L 59.956968 -153.73555 
L 59.723256 -153.945287 
L 59.489544 -154.129533 
L 59.255832 -154.28781 
L 59.02212 -154.419788 
L 58.788408 -154.525292 
L 58.554696 -154.604321 
L 58.320985 -154.657041 
L 58.087273 -154.683778 
L 57.853561 -154.685 
L 57.619849 -154.661288 
L 57.386137 -154.613296 
L 57.152425 -154.541711 
L 56.918713 -154.4472 
L 56.685001 -154.330362 
L 56.451289 -154.191677 
L 56.217577 -154.031464 
L 55.983865 -153.849837 
L 55.750153 -153.646682 
L 55.516441 -153.421641 
L 55.282729 -153.174109 
L 55.049017 -152.903249 
L 54.815305 -152.608018 
L 54.581593 -152.287215 
L 54.347881 -151.93953 
L 54.11417 -151.563615 
L 53.880458 -151.158153 
L 53.646746 -150.721938 
L 53.413034 -150.253946 
L 53.179322 -149.753412 
L 52.94561 -149.219894 
L 52.711898 -148.653323 
L 52.478186 -148.054047 
L 52.244474 -147.422854 
L 52.010762 -146.760979 
L 51.77705 -146.070094 
L 51.543338 -145.352284 
L 51.309626 -144.609999 
L 51.075914 -143.846004 
L 50.842202 -143.06331 
L 50.60849 -142.265097 
L 50.374778 -141.454643 
L 50.141067 -140.635235 
L 49.907355 -139.810101 
L 49.673643 -138.982334 
L 49.439931 -138.154831 
L 49.206219 -137.330241 
L 48.972507 -136.510929 
L 48.738795 -135.698946 
L 48.505083 -134.896021 
L 48.271371 -134.103561 
L 48.037659 -133.322665 
L 47.803947 -132.554149 
L 47.570235 -131.798582 
L 47.336523 -131.056325 
L 47.102811 -130.327576 
L 46.869099 -129.612422 
L 46.635387 -128.910881 
L 46.401675 -128.222948 
L 46.167963 -127.548638 
L 45.934252 -126.88802 
L 45.70054 -126.241243 
L 45.466828 -125.608553 
L 45.233116 -124.990311 
L 44.999404 -124.386988 
L 44.765692 -123.799167 
L 44.53198 -123.227525 
L 44.298268 -122.672819 
L 44.064556 -122.135862 
L 43.830844 -121.617496 
L 43.597132 -121.118562 
L 43.36342 -120.639875 
L 43.129708 -120.182193 
L 42.895996 -119.74619 
L 42.662284 -119.33243 
L 42.428572 -118.941354 
L 42.19486 -118.573255 
L 41.961149 -118.228274 
L 41.727437 -117.906389 
L 41.493725 -117.607414 
L 41.260013 -117.331005 
L 41.026301 -117.076664 
z
" style="stroke: #414487; stroke-width: 1.25"/>
    </defs>
    <g>
     <use xlink:href="#mca34e0981e" x="0" y="174.26" style="fill: #414487; fill-opacity: 0.7; stroke: #414487; stroke-width: 1.25"/>
    </g>
   </g>
   <g id="line2d_2">
    <path d="M 7.2 59.175 
L 216.45 59.175 
" style="fill: none; stroke: #414487; stroke-opacity: 0.9; stroke-linecap: round"/>
   </g>
   <g id="text_2">
    <!-- 1 -->
    <g style="fill: #414487" transform="translate(7.2 58.257) scale(0.12 -0.12)">
     <defs>
      <path id="IBMPlexSans-Bold-31" d="M 602 0 
L 602 774 
L 1805 774 
L 1805 3770 
L 1747 3770 
L 838 2579 
L 224 3059 
L 1293 4467 
L 2765 4467 
L 2765 774 
L 3712 774 
L 3712 0 
L 602 0 
z
" transform="scale(0.015625)"/>
     </defs>
     <use xlink:href="#IBMPlexSans-Bold-31"/>
    </g>
   </g>
  </g>
  <g id="axes_3">
   <g id="patch_4">
    <path d="M 7.2 69.57 
L 216.45 69.57 
L 216.45 27.99 
L 7.2 27.99 
L 7.2 69.57 
z
" style="fill: none"/>
   </g>
   <g id="matplotlib.axis_5">
    <g id="xtick_9"/>
    <g id="xtick_10"/>
    <g id="xtick_11"/>
    <g id="xtick_12"/>
   </g>
   <g id="matplotlib.axis_6"/>
   <g id="FillBetweenPolyCollection_2">
    <defs>
     <path id="m09ff750e0f" d="M 32.421283 -105.711335 
L 32.421283 -104.69 
L 32.896722 -104.69 
L 33.372161 -104.69 
L 33.847599 -104.69 
L 34.323038 -104.69 
L 34.798477 -104.69 
L 35.273916 -104.69 
L 35.749354 -104.69 
L 36.224793 -104.69 
L 36.700232 -104.69 
L 37.175671 -104.69 
L 37.65111 -104.69 
L 38.126548 -104.69 
L 38.601987 -104.69 
L 39.077426 -104.69 
L 39.552865 -104.69 
L 40.028303 -104.69 
L 40.503742 -104.69 
L 40.979181 -104.69 
L 41.45462 -104.69 
L 41.930059 -104.69 
L 42.405497 -104.69 
L 42.880936 -104.69 
L 43.356375 -104.69 
L 43.831814 -104.69 
L 44.307253 -104.69 
L 44.782691 -104.69 
L 45.25813 -104.69 
L 45.733569 -104.69 
L 46.209008 -104.69 
L 46.684446 -104.69 
L 47.159885 -104.69 
L 47.635324 -104.69 
L 48.110763 -104.69 
L 48.586202 -104.69 
L 49.06164 -104.69 
L 49.537079 -104.69 
L 50.012518 -104.69 
L 50.487957 -104.69 
L 50.963395 -104.69 
L 51.438834 -104.69 
L 51.914273 -104.69 
L 52.389712 -104.69 
L 52.865151 -104.69 
L 53.340589 -104.69 
L 53.816028 -104.69 
L 54.291467 -104.69 
L 54.766906 -104.69 
L 55.242344 -104.69 
L 55.717783 -104.69 
L 56.193222 -104.69 
L 56.668661 -104.69 
L 57.1441 -104.69 
L 57.619538 -104.69 
L 58.094977 -104.69 
L 58.570416 -104.69 
L 59.045855 -104.69 
L 59.521294 -104.69 
L 59.996732 -104.69 
L 60.472171 -104.69 
L 60.94761 -104.69 
L 61.423049 -104.69 
L 61.898487 -104.69 
L 62.373926 -104.69 
L 62.849365 -104.69 
L 63.324804 -104.69 
L 63.800243 -104.69 
L 64.275681 -104.69 
L 64.75112 -104.69 
L 65.226559 -104.69 
L 65.701998 -104.69 
L 66.177436 -104.69 
L 66.652875 -104.69 
L 67.128314 -104.69 
L 67.603753 -104.69 
L 68.079192 -104.69 
L 68.55463 -104.69 
L 69.030069 -104.69 
L 69.505508 -104.69 
L 69.980947 -104.69 
L 70.456385 -104.69 
L 70.931824 -104.69 
L 71.407263 -104.69 
L 71.882702 -104.69 
L 72.358141 -104.69 
L 72.833579 -104.69 
L 73.309018 -104.69 
L 73.784457 -104.69 
L 74.259896 -104.69 
L 74.735334 -104.69 
L 75.210773 -104.69 
L 75.686212 -104.69 
L 76.161651 -104.69 
L 76.63709 -104.69 
L 77.112528 -104.69 
L 77.587967 -104.69 
L 78.063406 -104.69 
L 78.538845 -104.69 
L 79.014284 -104.69 
L 79.489722 -104.69 
L 79.965161 -104.69 
L 80.4406 -104.69 
L 80.916039 -104.69 
L 81.391477 -104.69 
L 81.866916 -104.69 
L 82.342355 -104.69 
L 82.817794 -104.69 
L 83.293233 -104.69 
L 83.768671 -104.69 
L 84.24411 -104.69 
L 84.719549 -104.69 
L 85.194988 -104.69 
L 85.670426 -104.69 
L 86.145865 -104.69 
L 86.621304 -104.69 
L 87.096743 -104.69 
L 87.572182 -104.69 
L 88.04762 -104.69 
L 88.523059 -104.69 
L 88.998498 -104.69 
L 89.473937 -104.69 
L 89.949375 -104.69 
L 90.424814 -104.69 
L 90.900253 -104.69 
L 91.375692 -104.69 
L 91.851131 -104.69 
L 92.326569 -104.69 
L 92.802008 -104.69 
L 93.277447 -104.69 
L 93.752886 -104.69 
L 94.228325 -104.69 
L 94.703763 -104.69 
L 95.179202 -104.69 
L 95.654641 -104.69 
L 96.13008 -104.69 
L 96.605518 -104.69 
L 97.080957 -104.69 
L 97.556396 -104.69 
L 98.031835 -104.69 
L 98.507274 -104.69 
L 98.982712 -104.69 
L 99.458151 -104.69 
L 99.93359 -104.69 
L 100.409029 -104.69 
L 100.884467 -104.69 
L 101.359906 -104.69 
L 101.835345 -104.69 
L 102.310784 -104.69 
L 102.786223 -104.69 
L 103.261661 -104.69 
L 103.7371 -104.69 
L 104.212539 -104.69 
L 104.687978 -104.69 
L 105.163416 -104.69 
L 105.638855 -104.69 
L 106.114294 -104.69 
L 106.589733 -104.69 
L 107.065172 -104.69 
L 107.54061 -104.69 
L 108.016049 -104.69 
L 108.491488 -104.69 
L 108.966927 -104.69 
L 109.442366 -104.69 
L 109.917804 -104.69 
L 110.393243 -104.69 
L 110.868682 -104.69 
L 111.344121 -104.69 
L 111.819559 -104.69 
L 112.294998 -104.69 
L 112.770437 -104.69 
L 113.245876 -104.69 
L 113.721315 -104.69 
L 114.196753 -104.69 
L 114.672192 -104.69 
L 115.147631 -104.69 
L 115.62307 -104.69 
L 116.098508 -104.69 
L 116.573947 -104.69 
L 117.049386 -104.69 
L 117.524825 -104.69 
L 118.000264 -104.69 
L 118.475702 -104.69 
L 118.951141 -104.69 
L 119.42658 -104.69 
L 119.902019 -104.69 
L 120.377457 -104.69 
L 120.852896 -104.69 
L 121.328335 -104.69 
L 121.803774 -104.69 
L 122.279213 -104.69 
L 122.754651 -104.69 
L 123.23009 -104.69 
L 123.705529 -104.69 
L 124.180968 -104.69 
L 124.656406 -104.69 
L 125.131845 -104.69 
L 125.607284 -104.69 
L 126.082723 -104.69 
L 126.558162 -104.69 
L 127.0336 -104.69 
L 127.0336 -105.129407 
L 127.0336 -105.129407 
L 126.558162 -105.175637 
L 126.082723 -105.224508 
L 125.607284 -105.275928 
L 125.131845 -105.329782 
L 124.656406 -105.385936 
L 124.180968 -105.444243 
L 123.705529 -105.504542 
L 123.23009 -105.566663 
L 122.754651 -105.630432 
L 122.279213 -105.695672 
L 121.803774 -105.762207 
L 121.328335 -105.829867 
L 120.852896 -105.898485 
L 120.377457 -105.967908 
L 119.902019 -106.03799 
L 119.42658 -106.108601 
L 118.951141 -106.179622 
L 118.475702 -106.250951 
L 118.000264 -106.322501 
L 117.524825 -106.394203 
L 117.049386 -106.466002 
L 116.573947 -106.537864 
L 116.098508 -106.609771 
L 115.62307 -106.681724 
L 115.147631 -106.753742 
L 114.672192 -106.82586 
L 114.196753 -106.898132 
L 113.721315 -106.970626 
L 113.245876 -107.043422 
L 112.770437 -107.11661 
L 112.294998 -107.190284 
L 111.819559 -107.264542 
L 111.344121 -107.339472 
L 110.868682 -107.415154 
L 110.393243 -107.491646 
L 109.917804 -107.568984 
L 109.442366 -107.647171 
L 108.966927 -107.726171 
L 108.491488 -107.805909 
L 108.016049 -107.886265 
L 107.54061 -107.967075 
L 107.065172 -108.048133 
L 106.589733 -108.129196 
L 106.114294 -108.209992 
L 105.638855 -108.290232 
L 105.163416 -108.369624 
L 104.687978 -108.447887 
L 104.212539 -108.52477 
L 103.7371 -108.600074 
L 103.261661 -108.673667 
L 102.786223 -108.745508 
L 102.310784 -108.815659 
L 101.835345 -108.884304 
L 101.359906 -108.951763 
L 100.884467 -109.018494 
L 100.409029 -109.085101 
L 99.93359 -109.152329 
L 99.458151 -109.22106 
L 98.982712 -109.292297 
L 98.507274 -109.367148 
L 98.031835 -109.446804 
L 97.556396 -109.532512 
L 97.080957 -109.625545 
L 96.605518 -109.727173 
L 96.13008 -109.838628 
L 95.654641 -109.961075 
L 95.179202 -110.09558 
L 94.703763 -110.243082 
L 94.228325 -110.40437 
L 93.752886 -110.580065 
L 93.277447 -110.770601 
L 92.802008 -110.97622 
L 92.326569 -111.196967 
L 91.851131 -111.432692 
L 91.375692 -111.683054 
L 90.900253 -111.947539 
L 90.424814 -112.225469 
L 89.949375 -112.516025 
L 89.473937 -112.818266 
L 88.998498 -113.131148 
L 88.523059 -113.453551 
L 88.04762 -113.7843 
L 87.572182 -114.12218 
L 87.096743 -114.465962 
L 86.621304 -114.814413 
L 86.145865 -115.166313 
L 85.670426 -115.520468 
L 85.194988 -115.875716 
L 84.719549 -116.230935 
L 84.24411 -116.585051 
L 83.768671 -116.93704 
L 83.293233 -117.285932 
L 82.817794 -117.630817 
L 82.342355 -117.970843 
L 81.866916 -118.305224 
L 81.391477 -118.633242 
L 80.916039 -118.954251 
L 80.4406 -119.267678 
L 79.965161 -119.573029 
L 79.489722 -119.869893 
L 79.014284 -120.157936 
L 78.538845 -120.436909 
L 78.063406 -120.706637 
L 77.587967 -120.967021 
L 77.112528 -121.218023 
L 76.63709 -121.459661 
L 76.161651 -121.691995 
L 75.686212 -121.915111 
L 75.210773 -122.129104 
L 74.735334 -122.334066 
L 74.259896 -122.530068 
L 73.784457 -122.717144 
L 73.309018 -122.895279 
L 72.833579 -123.064403 
L 72.358141 -123.224378 
L 71.882702 -123.375007 
L 71.407263 -123.516027 
L 70.931824 -123.647121 
L 70.456385 -123.767926 
L 69.980947 -123.87805 
L 69.505508 -123.977088 
L 69.030069 -124.064634 
L 68.55463 -124.140307 
L 68.079192 -124.20376 
L 67.603753 -124.254698 
L 67.128314 -124.292887 
L 66.652875 -124.318164 
L 66.177436 -124.330431 
L 65.701998 -124.329663 
L 65.226559 -124.31589 
L 64.75112 -124.289191 
L 64.275681 -124.24968 
L 63.800243 -124.197483 
L 63.324804 -124.132723 
L 62.849365 -124.055499 
L 62.373926 -123.965873 
L 61.898487 -123.863851 
L 61.423049 -123.749376 
L 60.94761 -123.622322 
L 60.472171 -123.482494 
L 59.996732 -123.329634 
L 59.521294 -123.163435 
L 59.045855 -122.983556 
L 58.570416 -122.789644 
L 58.094977 -122.581359 
L 57.619538 -122.358401 
L 57.1441 -122.120537 
L 56.668661 -121.867629 
L 56.193222 -121.599655 
L 55.717783 -121.316732 
L 55.242344 -121.019129 
L 54.766906 -120.707278 
L 54.291467 -120.381777 
L 53.816028 -120.043384 
L 53.340589 -119.693009 
L 52.865151 -119.3317 
L 52.389712 -118.960615 
L 51.914273 -118.581006 
L 51.438834 -118.19418 
L 50.963395 -117.80148 
L 50.487957 -117.404245 
L 50.012518 -117.003787 
L 49.537079 -116.601366 
L 49.06164 -116.19816 
L 48.586202 -115.795255 
L 48.110763 -115.393626 
L 47.635324 -114.99413 
L 47.159885 -114.597509 
L 46.684446 -114.204384 
L 46.209008 -113.815273 
L 45.733569 -113.430594 
L 45.25813 -113.050686 
L 44.782691 -112.675825 
L 44.307253 -112.306243 
L 43.831814 -111.942145 
L 43.356375 -111.583731 
L 42.880936 -111.231209 
L 42.405497 -110.884812 
L 41.930059 -110.544807 
L 41.45462 -110.211502 
L 40.979181 -109.885251 
L 40.503742 -109.566454 
L 40.028303 -109.255553 
L 39.552865 -108.953025 
L 39.077426 -108.65937 
L 38.601987 -108.375106 
L 38.126548 -108.100748 
L 37.65111 -107.836796 
L 37.175671 -107.583723 
L 36.700232 -107.34196 
L 36.224793 -107.11188 
L 35.749354 -106.89379 
L 35.273916 -106.687921 
L 34.798477 -106.494419 
L 34.323038 -106.313344 
L 33.847599 -106.144663 
L 33.372161 -105.988254 
L 32.896722 -105.843909 
L 32.421283 -105.711335 
z
" style="stroke: #355f8d; stroke-width: 1.25"/>
    </defs>
    <g>
     <use xlink:href="#m09ff750e0f" x="0" y="174.26" style="fill: #355f8d; fill-opacity: 0.7; stroke: #355f8d; stroke-width: 1.25"/>
    </g>
   </g>
   <g id="line2d_3">
    <path d="M 7.2 69.57 
L 216.45 69.57 
" style="fill: none; stroke: #355f8d; stroke-opacity: 0.9; stroke-linecap: round"/>
   </g>
   <g id="text_3">
    <!-- 2 -->
    <g style="fill: #355f8d" transform="translate(7.2 68.652) scale(0.12 -0.12)">
     <defs>
      <path id="IBMPlexSans-Bold-32" d="M 3526 0 
L 365 0 
L 365 877 
L 1741 2054 
Q 1926 2214 2054 2345 
Q 2182 2477 2262 2601 
Q 2342 2726 2377 2848 
Q 2413 2970 2413 3110 
L 2413 3200 
Q 2413 3328 2361 3424 
Q 2310 3520 2227 3584 
Q 2144 3648 2038 3680 
Q 1933 3712 1824 3712 
Q 1664 3712 1545 3661 
Q 1427 3610 1340 3523 
Q 1254 3437 1196 3325 
Q 1139 3213 1107 3085 
L 269 3405 
Q 346 3635 480 3843 
Q 614 4051 816 4208 
Q 1018 4365 1293 4454 
Q 1568 4544 1914 4544 
Q 2278 4544 2560 4441 
Q 2842 4339 3037 4160 
Q 3232 3981 3334 3734 
Q 3437 3488 3437 3200 
Q 3437 2912 3341 2675 
Q 3245 2438 3081 2230 
Q 2918 2022 2700 1836 
Q 2483 1651 2246 1459 
L 1414 806 
L 3526 806 
L 3526 0 
z
" transform="scale(0.015625)"/>
     </defs>
     <use xlink:href="#IBMPlexSans-Bold-32"/>
    </g>
   </g>
  </g>
  <g id="axes_4">
   <g id="patch_5">
    <path d="M 7.2 79.965 
L 216.45 79.965 
L 216.45 38.385 
L 7.2 38.385 
L 7.2 79.965 
z
" style="fill: none"/>
   </g>
   <g id="matplotlib.axis_7">
    <g id="xtick_13"/>
    <g id="xtick_14"/>
    <g id="xtick_15"/>
    <g id="xtick_16"/>
   </g>
   <g id="matplotlib.axis_8"/>
   <g id="FillBetweenPolyCollection_3">
    <defs>
     <path id="mc42efc766b" d="M 24.378631 -95.031932 
L 24.378631 -94.295 
L 25.095001 -94.295 
L 25.81137 -94.295 
L 26.52774 -94.295 
L 27.24411 -94.295 
L 27.960479 -94.295 
L 28.676849 -94.295 
L 29.393219 -94.295 
L 30.109588 -94.295 
L 30.825958 -94.295 
L 31.542328 -94.295 
L 32.258697 -94.295 
L 32.975067 -94.295 
L 33.691437 -94.295 
L 34.407806 -94.295 
L 35.124176 -94.295 
L 35.840546 -94.295 
L 36.556915 -94.295 
L 37.273285 -94.295 
L 37.989655 -94.295 
L 38.706024 -94.295 
L 39.422394 -94.295 
L 40.138764 -94.295 
L 40.855133 -94.295 
L 41.571503 -94.295 
L 42.287873 -94.295 
L 43.004242 -94.295 
L 43.720612 -94.295 
L 44.436982 -94.295 
L 45.153351 -94.295 
L 45.869721 -94.295 
L 46.586091 -94.295 
L 47.30246 -94.295 
L 48.01883 -94.295 
L 48.7352 -94.295 
L 49.451569 -94.295 
L 50.167939 -94.295 
L 50.884309 -94.295 
L 51.600678 -94.295 
L 52.317048 -94.295 
L 53.033417 -94.295 
L 53.749787 -94.295 
L 54.466157 -94.295 
L 55.182526 -94.295 
L 55.898896 -94.295 
L 56.615266 -94.295 
L 57.331635 -94.295 
L 58.048005 -94.295 
L 58.764375 -94.295 
L 59.480744 -94.295 
L 60.197114 -94.295 
L 60.913484 -94.295 
L 61.629853 -94.295 
L 62.346223 -94.295 
L 63.062593 -94.295 
L 63.778962 -94.295 
L 64.495332 -94.295 
L 65.211702 -94.295 
L 65.928071 -94.295 
L 66.644441 -94.295 
L 67.360811 -94.295 
L 68.07718 -94.295 
L 68.79355 -94.295 
L 69.50992 -94.295 
L 70.226289 -94.295 
L 70.942659 -94.295 
L 71.659029 -94.295 
L 72.375398 -94.295 
L 73.091768 -94.295 
L 73.808138 -94.295 
L 74.524507 -94.295 
L 75.240877 -94.295 
L 75.957247 -94.295 
L 76.673616 -94.295 
L 77.389986 -94.295 
L 78.106356 -94.295 
L 78.822725 -94.295 
L 79.539095 -94.295 
L 80.255465 -94.295 
L 80.971834 -94.295 
L 81.688204 -94.295 
L 82.404574 -94.295 
L 83.120943 -94.295 
L 83.837313 -94.295 
L 84.553683 -94.295 
L 85.270052 -94.295 
L 85.986422 -94.295 
L 86.702792 -94.295 
L 87.419161 -94.295 
L 88.135531 -94.295 
L 88.8519 -94.295 
L 89.56827 -94.295 
L 90.28464 -94.295 
L 91.001009 -94.295 
L 91.717379 -94.295 
L 92.433749 -94.295 
L 93.150118 -94.295 
L 93.866488 -94.295 
L 94.582858 -94.295 
L 95.299227 -94.295 
L 96.015597 -94.295 
L 96.731967 -94.295 
L 97.448336 -94.295 
L 98.164706 -94.295 
L 98.881076 -94.295 
L 99.597445 -94.295 
L 100.313815 -94.295 
L 101.030185 -94.295 
L 101.746554 -94.295 
L 102.462924 -94.295 
L 103.179294 -94.295 
L 103.895663 -94.295 
L 104.612033 -94.295 
L 105.328403 -94.295 
L 106.044772 -94.295 
L 106.761142 -94.295 
L 107.477512 -94.295 
L 108.193881 -94.295 
L 108.910251 -94.295 
L 109.626621 -94.295 
L 110.34299 -94.295 
L 111.05936 -94.295 
L 111.77573 -94.295 
L 112.492099 -94.295 
L 113.208469 -94.295 
L 113.924839 -94.295 
L 114.641208 -94.295 
L 115.357578 -94.295 
L 116.073948 -94.295 
L 116.790317 -94.295 
L 117.506687 -94.295 
L 118.223057 -94.295 
L 118.939426 -94.295 
L 119.655796 -94.295 
L 120.372166 -94.295 
L 121.088535 -94.295 
L 121.804905 -94.295 
L 122.521275 -94.295 
L 123.237644 -94.295 
L 123.954014 -94.295 
L 124.670383 -94.295 
L 125.386753 -94.295 
L 126.103123 -94.295 
L 126.819492 -94.295 
L 127.535862 -94.295 
L 128.252232 -94.295 
L 128.968601 -94.295 
L 129.684971 -94.295 
L 130.401341 -94.295 
L 131.11771 -94.295 
L 131.83408 -94.295 
L 132.55045 -94.295 
L 133.266819 -94.295 
L 133.983189 -94.295 
L 134.699559 -94.295 
L 135.415928 -94.295 
L 136.132298 -94.295 
L 136.848668 -94.295 
L 137.565037 -94.295 
L 138.281407 -94.295 
L 138.997777 -94.295 
L 139.714146 -94.295 
L 140.430516 -94.295 
L 141.146886 -94.295 
L 141.863255 -94.295 
L 142.579625 -94.295 
L 143.295995 -94.295 
L 144.012364 -94.295 
L 144.728734 -94.295 
L 145.445104 -94.295 
L 146.161473 -94.295 
L 146.877843 -94.295 
L 147.594213 -94.295 
L 148.310582 -94.295 
L 149.026952 -94.295 
L 149.743322 -94.295 
L 150.459691 -94.295 
L 151.176061 -94.295 
L 151.892431 -94.295 
L 152.6088 -94.295 
L 153.32517 -94.295 
L 154.04154 -94.295 
L 154.757909 -94.295 
L 155.474279 -94.295 
L 156.190649 -94.295 
L 156.907018 -94.295 
L 157.623388 -94.295 
L 158.339757 -94.295 
L 159.056127 -94.295 
L 159.772497 -94.295 
L 160.488866 -94.295 
L 161.205236 -94.295 
L 161.921606 -94.295 
L 162.637975 -94.295 
L 163.354345 -94.295 
L 164.070715 -94.295 
L 164.787084 -94.295 
L 165.503454 -94.295 
L 166.219824 -94.295 
L 166.936193 -94.295 
L 166.936193 -94.571628 
L 166.936193 -94.571628 
L 166.219824 -94.601445 
L 165.503454 -94.633087 
L 164.787084 -94.666507 
L 164.070715 -94.701645 
L 163.354345 -94.738422 
L 162.637975 -94.776749 
L 161.921606 -94.816523 
L 161.205236 -94.857629 
L 160.488866 -94.899947 
L 159.772497 -94.943346 
L 159.056127 -94.987692 
L 158.339757 -95.032848 
L 157.623388 -95.078672 
L 156.907018 -95.125027 
L 156.190649 -95.171776 
L 155.474279 -95.218786 
L 154.757909 -95.265931 
L 154.04154 -95.313094 
L 153.32517 -95.360167 
L 152.6088 -95.407055 
L 151.892431 -95.453678 
L 151.176061 -95.499972 
L 150.459691 -95.545894 
L 149.743322 -95.591418 
L 149.026952 -95.636543 
L 148.310582 -95.681289 
L 147.594213 -95.725702 
L 146.877843 -95.769848 
L 146.161473 -95.813818 
L 145.445104 -95.85772 
L 144.728734 -95.901681 
L 144.012364 -95.945839 
L 143.295995 -95.99034 
L 142.579625 -96.035332 
L 141.863255 -96.080956 
L 141.146886 -96.127341 
L 140.430516 -96.1746 
L 139.714146 -96.222815 
L 138.997777 -96.272039 
L 138.281407 -96.322287 
L 137.565037 -96.373534 
L 136.848668 -96.425711 
L 136.132298 -96.478708 
L 135.415928 -96.532377 
L 134.699559 -96.586533 
L 133.983189 -96.640967 
L 133.266819 -96.695451 
L 132.55045 -96.749752 
L 131.83408 -96.803645 
L 131.11771 -96.856925 
L 130.401341 -96.909425 
L 129.684971 -96.961028 
L 128.968601 -97.011681 
L 128.252232 -97.061407 
L 127.535862 -97.110315 
L 126.819492 -97.158608 
L 126.103123 -97.206587 
L 125.386753 -97.254648 
L 124.670383 -97.303287 
L 123.954014 -97.353087 
L 123.237644 -97.40471 
L 122.521275 -97.458885 
L 121.804905 -97.516393 
L 121.088535 -97.578045 
L 120.372166 -97.644669 
L 119.655796 -97.717085 
L 118.939426 -97.796089 
L 118.223057 -97.882427 
L 117.506687 -97.976785 
L 116.790317 -98.079767 
L 116.073948 -98.191884 
L 115.357578 -98.31354 
L 114.641208 -98.445026 
L 113.924839 -98.586514 
L 113.208469 -98.738054 
L 112.492099 -98.899577 
L 111.77573 -99.070895 
L 111.05936 -99.251706 
L 110.34299 -99.441606 
L 109.626621 -99.640091 
L 108.910251 -99.84657 
L 108.193881 -100.060377 
L 107.477512 -100.280774 
L 106.761142 -100.50697 
L 106.044772 -100.738126 
L 105.328403 -100.973364 
L 104.612033 -101.21178 
L 103.895663 -101.452452 
L 103.179294 -101.694448 
L 102.462924 -101.936837 
L 101.746554 -102.178697 
L 101.030185 -102.419125 
L 100.313815 -102.657249 
L 99.597445 -102.892234 
L 98.881076 -103.123298 
L 98.164706 -103.349718 
L 97.448336 -103.570843 
L 96.731967 -103.786102 
L 96.015597 -103.995012 
L 95.299227 -104.197188 
L 94.582858 -104.392343 
L 93.866488 -104.580294 
L 93.150118 -104.76096 
L 92.433749 -104.934358 
L 91.717379 -105.100594 
L 91.001009 -105.259857 
L 90.28464 -105.4124 
L 89.56827 -105.558528 
L 88.8519 -105.698576 
L 88.135531 -105.832893 
L 87.419161 -105.961819 
L 86.702792 -106.085666 
L 85.986422 -106.2047 
L 85.270052 -106.319125 
L 84.553683 -106.429066 
L 83.837313 -106.534564 
L 83.120943 -106.63557 
L 82.404574 -106.731941 
L 81.688204 -106.823443 
L 80.971834 -106.909764 
L 80.255465 -106.990517 
L 79.539095 -107.065263 
L 78.822725 -107.13352 
L 78.106356 -107.194785 
L 77.389986 -107.24855 
L 76.673616 -107.294322 
L 75.957247 -107.331635 
L 75.240877 -107.360069 
L 74.524507 -107.379256 
L 73.808138 -107.388889 
L 73.091768 -107.388725 
L 72.375398 -107.378586 
L 71.659029 -107.358357 
L 70.942659 -107.327976 
L 70.226289 -107.287431 
L 69.50992 -107.236747 
L 68.79355 -107.175975 
L 68.07718 -107.105189 
L 67.360811 -107.024466 
L 66.644441 -106.93389 
L 65.928071 -106.833538 
L 65.211702 -106.723484 
L 64.495332 -106.603794 
L 63.778962 -106.474531 
L 63.062593 -106.335761 
L 62.346223 -106.187558 
L 61.629853 -106.030012 
L 60.913484 -105.863241 
L 60.197114 -105.687397 
L 59.480744 -105.502679 
L 58.764375 -105.309335 
L 58.048005 -105.107672 
L 57.331635 -104.898056 
L 56.615266 -104.680915 
L 55.898896 -104.456736 
L 55.182526 -104.226061 
L 54.466157 -103.989477 
L 53.749787 -103.747611 
L 53.033417 -103.501115 
L 52.317048 -103.250655 
L 51.600678 -102.996901 
L 50.884309 -102.740511 
L 50.167939 -102.482121 
L 49.451569 -102.222335 
L 48.7352 -101.961717 
L 48.01883 -101.700787 
L 47.30246 -101.440012 
L 46.586091 -101.179813 
L 45.869721 -100.920561 
L 45.153351 -100.662581 
L 44.436982 -100.406165 
L 43.720612 -100.15157 
L 43.004242 -99.899035 
L 42.287873 -99.648787 
L 41.571503 -99.401049 
L 40.855133 -99.15605 
L 40.138764 -98.914038 
L 39.422394 -98.675275 
L 38.706024 -98.440054 
L 37.989655 -98.208693 
L 37.273285 -97.981539 
L 36.556915 -97.758965 
L 35.840546 -97.541369 
L 35.124176 -97.329165 
L 34.407806 -97.122777 
L 33.691437 -96.922632 
L 32.975067 -96.729149 
L 32.258697 -96.54273 
L 31.542328 -96.363752 
L 30.825958 -96.192554 
L 30.109588 -96.029435 
L 29.393219 -95.874639 
L 28.676849 -95.728354 
L 27.960479 -95.590706 
L 27.24411 -95.461759 
L 26.52774 -95.341508 
L 25.81137 -95.229884 
L 25.095001 -95.126756 
L 24.378631 -95.031932 
z
" style="stroke: #2a788e; stroke-width: 1.25"/>
    </defs>
    <g>
     <use xlink:href="#mc42efc766b" x="0" y="174.26" style="fill: #2a788e; fill-opacity: 0.7; stroke: #2a788e; stroke-width: 1.25"/>
    </g>
   </g>
   <g id="line2d_4">
    <path d="M 7.2 79.965 
L 216.45 79.965 
" style="fill: none; stroke: #2a788e; stroke-opacity: 0.9; stroke-linecap: round"/>
   </g>
   <g id="text_4">
    <!-- 3 -->
    <g style="fill: #2a788e" transform="translate(7.2 79.047) scale(0.12 -0.12)">
     <defs>
      <path id="IBMPlexSans-Bold-33" d="M 1677 2701 
Q 2035 2701 2198 2838 
Q 2362 2976 2362 3181 
L 2362 3226 
Q 2362 3469 2205 3616 
Q 2048 3763 1760 3763 
Q 1491 3763 1254 3625 
Q 1018 3488 851 3232 
L 250 3795 
Q 378 3962 525 4099 
Q 672 4237 857 4336 
Q 1043 4435 1273 4489 
Q 1504 4544 1792 4544 
Q 2150 4544 2441 4461 
Q 2733 4378 2941 4221 
Q 3149 4064 3261 3846 
Q 3373 3629 3373 3360 
Q 3373 3149 3305 2976 
Q 3238 2803 3120 2675 
Q 3002 2547 2848 2467 
Q 2694 2387 2522 2355 
L 2522 2317 
Q 2720 2278 2889 2192 
Q 3059 2106 3184 1971 
Q 3309 1837 3379 1654 
Q 3450 1472 3450 1242 
Q 3450 941 3328 697 
Q 3206 454 2982 281 
Q 2758 109 2444 16 
Q 2131 -77 1754 -77 
Q 1414 -77 1152 -6 
Q 890 64 694 182 
Q 499 301 355 454 
Q 211 608 102 781 
L 813 1331 
Q 960 1056 1174 880 
Q 1389 704 1754 704 
Q 2080 704 2262 867 
Q 2445 1030 2445 1312 
L 2445 1350 
Q 2445 1626 2237 1763 
Q 2029 1901 1664 1901 
L 1261 1901 
L 1261 2701 
L 1677 2701 
z
" transform="scale(0.015625)"/>
     </defs>
     <use xlink:href="#IBMPlexSans-Bold-33"/>
    </g>
   </g>
  </g>
  <g id="axes_5">
   <g id="patch_6">
    <path d="M 7.2 90.36 
L 216.45 90.36 
L 216.45 48.78 
L 7.2 48.78 
L 7.2 90.36 
z
" style="fill: none"/>
   </g>
   <g id="matplotlib.axis_9">
    <g id="xtick_17"/>
    <g id="xtick_18"/>
    <g id="xtick_19"/>
    <g id="xtick_20"/>
   </g>
   <g id="matplotlib.axis_10"/>
   <g id="FillBetweenPolyCollection_4">
    <defs>
     <path id="m865f6034de" d="M 16.711364 -84.500593 
L 16.711364 -83.9 
L 17.66728 -83.9 
L 18.623196 -83.9 
L 19.579111 -83.9 
L 20.535027 -83.9 
L 21.490943 -83.9 
L 22.446859 -83.9 
L 23.402775 -83.9 
L 24.358691 -83.9 
L 25.314607 -83.9 
L 26.270523 -83.9 
L 27.226439 -83.9 
L 28.182355 -83.9 
L 29.138271 -83.9 
L 30.094187 -83.9 
L 31.050103 -83.9 
L 32.006019 -83.9 
L 32.961935 -83.9 
L 33.917851 -83.9 
L 34.873767 -83.9 
L 35.829683 -83.9 
L 36.785598 -83.9 
L 37.741514 -83.9 
L 38.69743 -83.9 
L 39.653346 -83.9 
L 40.609262 -83.9 
L 41.565178 -83.9 
L 42.521094 -83.9 
L 43.47701 -83.9 
L 44.432926 -83.9 
L 45.388842 -83.9 
L 46.344758 -83.9 
L 47.300674 -83.9 
L 48.25659 -83.9 
L 49.212506 -83.9 
L 50.168422 -83.9 
L 51.124338 -83.9 
L 52.080254 -83.9 
L 53.036169 -83.9 
L 53.992085 -83.9 
L 54.948001 -83.9 
L 55.903917 -83.9 
L 56.859833 -83.9 
L 57.815749 -83.9 
L 58.771665 -83.9 
L 59.727581 -83.9 
L 60.683497 -83.9 
L 61.639413 -83.9 
L 62.595329 -83.9 
L 63.551245 -83.9 
L 64.507161 -83.9 
L 65.463077 -83.9 
L 66.418993 -83.9 
L 67.374909 -83.9 
L 68.330825 -83.9 
L 69.286741 -83.9 
L 70.242656 -83.9 
L 71.198572 -83.9 
L 72.154488 -83.9 
L 73.110404 -83.9 
L 74.06632 -83.9 
L 75.022236 -83.9 
L 75.978152 -83.9 
L 76.934068 -83.9 
L 77.889984 -83.9 
L 78.8459 -83.9 
L 79.801816 -83.9 
L 80.757732 -83.9 
L 81.713648 -83.9 
L 82.669564 -83.9 
L 83.62548 -83.9 
L 84.581396 -83.9 
L 85.537312 -83.9 
L 86.493228 -83.9 
L 87.449143 -83.9 
L 88.405059 -83.9 
L 89.360975 -83.9 
L 90.316891 -83.9 
L 91.272807 -83.9 
L 92.228723 -83.9 
L 93.184639 -83.9 
L 94.140555 -83.9 
L 95.096471 -83.9 
L 96.052387 -83.9 
L 97.008303 -83.9 
L 97.964219 -83.9 
L 98.920135 -83.9 
L 99.876051 -83.9 
L 100.831967 -83.9 
L 101.787883 -83.9 
L 102.743799 -83.9 
L 103.699714 -83.9 
L 104.65563 -83.9 
L 105.611546 -83.9 
L 106.567462 -83.9 
L 107.523378 -83.9 
L 108.479294 -83.9 
L 109.43521 -83.9 
L 110.391126 -83.9 
L 111.347042 -83.9 
L 112.302958 -83.9 
L 113.258874 -83.9 
L 114.21479 -83.9 
L 115.170706 -83.9 
L 116.126622 -83.9 
L 117.082538 -83.9 
L 118.038454 -83.9 
L 118.99437 -83.9 
L 119.950286 -83.9 
L 120.906201 -83.9 
L 121.862117 -83.9 
L 122.818033 -83.9 
L 123.773949 -83.9 
L 124.729865 -83.9 
L 125.685781 -83.9 
L 126.641697 -83.9 
L 127.597613 -83.9 
L 128.553529 -83.9 
L 129.509445 -83.9 
L 130.465361 -83.9 
L 131.421277 -83.9 
L 132.377193 -83.9 
L 133.333109 -83.9 
L 134.289025 -83.9 
L 135.244941 -83.9 
L 136.200857 -83.9 
L 137.156772 -83.9 
L 138.112688 -83.9 
L 139.068604 -83.9 
L 140.02452 -83.9 
L 140.980436 -83.9 
L 141.936352 -83.9 
L 142.892268 -83.9 
L 143.848184 -83.9 
L 144.8041 -83.9 
L 145.760016 -83.9 
L 146.715932 -83.9 
L 147.671848 -83.9 
L 148.627764 -83.9 
L 149.58368 -83.9 
L 150.539596 -83.9 
L 151.495512 -83.9 
L 152.451428 -83.9 
L 153.407344 -83.9 
L 154.363259 -83.9 
L 155.319175 -83.9 
L 156.275091 -83.9 
L 157.231007 -83.9 
L 158.186923 -83.9 
L 159.142839 -83.9 
L 160.098755 -83.9 
L 161.054671 -83.9 
L 162.010587 -83.9 
L 162.966503 -83.9 
L 163.922419 -83.9 
L 164.878335 -83.9 
L 165.834251 -83.9 
L 166.790167 -83.9 
L 167.746083 -83.9 
L 168.701999 -83.9 
L 169.657915 -83.9 
L 170.613831 -83.9 
L 171.569746 -83.9 
L 172.525662 -83.9 
L 173.481578 -83.9 
L 174.437494 -83.9 
L 175.39341 -83.9 
L 176.349326 -83.9 
L 177.305242 -83.9 
L 178.261158 -83.9 
L 179.217074 -83.9 
L 180.17299 -83.9 
L 181.128906 -83.9 
L 182.084822 -83.9 
L 183.040738 -83.9 
L 183.996654 -83.9 
L 184.95257 -83.9 
L 185.908486 -83.9 
L 186.864402 -83.9 
L 187.820317 -83.9 
L 188.776233 -83.9 
L 189.732149 -83.9 
L 190.688065 -83.9 
L 191.643981 -83.9 
L 192.599897 -83.9 
L 193.555813 -83.9 
L 194.511729 -83.9 
L 195.467645 -83.9 
L 196.423561 -83.9 
L 197.379477 -83.9 
L 198.335393 -83.9 
L 199.291309 -83.9 
L 200.247225 -83.9 
L 201.203141 -83.9 
L 202.159057 -83.9 
L 203.114973 -83.9 
L 204.070889 -83.9 
L 205.026804 -83.9 
L 205.98272 -83.9 
L 206.938636 -83.9 
L 206.938636 -84.104274 
L 206.938636 -84.104274 
L 205.98272 -84.126758 
L 205.026804 -84.150695 
L 204.070889 -84.176056 
L 203.114973 -84.202799 
L 202.159057 -84.230866 
L 201.203141 -84.260186 
L 200.247225 -84.290677 
L 199.291309 -84.322241 
L 198.335393 -84.354773 
L 197.379477 -84.388155 
L 196.423561 -84.422262 
L 195.467645 -84.456962 
L 194.511729 -84.492119 
L 193.555813 -84.527594 
L 192.599897 -84.563248 
L 191.643981 -84.598945 
L 190.688065 -84.634552 
L 189.732149 -84.669945 
L 188.776233 -84.705012 
L 187.820317 -84.739651 
L 186.864402 -84.773781 
L 185.908486 -84.807335 
L 184.95257 -84.840271 
L 183.996654 -84.872567 
L 183.040738 -84.904228 
L 182.084822 -84.935285 
L 181.128906 -84.965793 
L 180.17299 -84.995834 
L 179.217074 -85.025512 
L 178.261158 -85.054953 
L 177.305242 -85.084301 
L 176.349326 -85.113714 
L 175.39341 -85.143355 
L 174.437494 -85.173394 
L 173.481578 -85.203994 
L 172.525662 -85.235308 
L 171.569746 -85.267472 
L 170.613831 -85.3006 
L 169.657915 -85.334775 
L 168.701999 -85.37005 
L 167.746083 -85.406436 
L 166.790167 -85.443911 
L 165.834251 -85.482411 
L 164.878335 -85.521836 
L 163.922419 -85.562053 
L 162.966503 -85.602899 
L 162.010587 -85.644192 
L 161.054671 -85.685738 
L 160.098755 -85.72734 
L 159.142839 -85.768809 
L 158.186923 -85.809975 
L 157.231007 -85.8507 
L 156.275091 -85.890887 
L 155.319175 -85.930487 
L 154.363259 -85.969514 
L 153.407344 -86.008043 
L 152.451428 -86.046221 
L 151.495512 -86.084264 
L 150.539596 -86.12246 
L 149.58368 -86.161164 
L 148.627764 -86.200792 
L 147.671848 -86.241813 
L 146.715932 -86.284744 
L 145.760016 -86.330131 
L 144.8041 -86.378544 
L 143.848184 -86.43056 
L 142.892268 -86.48675 
L 141.936352 -86.547667 
L 140.980436 -86.613834 
L 140.02452 -86.68573 
L 139.068604 -86.763784 
L 138.112688 -86.848361 
L 137.156772 -86.939763 
L 136.200857 -87.038213 
L 135.244941 -87.143861 
L 134.289025 -87.256777 
L 133.333109 -87.376951 
L 132.377193 -87.504292 
L 131.421277 -87.638635 
L 130.465361 -87.779735 
L 129.509445 -87.927279 
L 128.553529 -88.080883 
L 127.597613 -88.240098 
L 126.641697 -88.404416 
L 125.685781 -88.573273 
L 124.729865 -88.746055 
L 123.773949 -88.922104 
L 122.818033 -89.100722 
L 121.862117 -89.281184 
L 120.906201 -89.46274 
L 119.950286 -89.644627 
L 118.99437 -89.826078 
L 118.038454 -90.006335 
L 117.082538 -90.184657 
L 116.126622 -90.360336 
L 115.170706 -90.532708 
L 114.21479 -90.701163 
L 113.258874 -90.865162 
L 112.302958 -91.024242 
L 111.347042 -91.178031 
L 110.391126 -91.326249 
L 109.43521 -91.468716 
L 108.479294 -91.605355 
L 107.523378 -91.736187 
L 106.567462 -91.861326 
L 105.611546 -91.980972 
L 104.65563 -92.095402 
L 103.699714 -92.204947 
L 102.743799 -92.309983 
L 101.787883 -92.410911 
L 100.831967 -92.50813 
L 99.876051 -92.602027 
L 98.920135 -92.692949 
L 97.964219 -92.78119 
L 97.008303 -92.866971 
L 96.052387 -92.950433 
L 95.096471 -93.03162 
L 94.140555 -93.110481 
L 93.184639 -93.186863 
L 92.228723 -93.260518 
L 91.272807 -93.331108 
L 90.316891 -93.398215 
L 89.360975 -93.461358 
L 88.405059 -93.520006 
L 87.449143 -93.573594 
L 86.493228 -93.621548 
L 85.537312 -93.663297 
L 84.581396 -93.698291 
L 83.62548 -93.726022 
L 82.669564 -93.74603 
L 81.713648 -93.757918 
L 80.757732 -93.761361 
L 79.801816 -93.756104 
L 78.8459 -93.741973 
L 77.889984 -93.718863 
L 76.934068 -93.686742 
L 75.978152 -93.645642 
L 75.022236 -93.595651 
L 74.06632 -93.536908 
L 73.110404 -93.469588 
L 72.154488 -93.393901 
L 71.198572 -93.31008 
L 70.242656 -93.218374 
L 69.286741 -93.119045 
L 68.330825 -93.012363 
L 67.374909 -92.898604 
L 66.418993 -92.778047 
L 65.463077 -92.650978 
L 64.507161 -92.517686 
L 63.551245 -92.378467 
L 62.595329 -92.233626 
L 61.639413 -92.083477 
L 60.683497 -91.928346 
L 59.727581 -91.768567 
L 58.771665 -91.604486 
L 57.815749 -91.436457 
L 56.859833 -91.264839 
L 55.903917 -91.089995 
L 54.948001 -90.912286 
L 53.992085 -90.732068 
L 53.036169 -90.549685 
L 52.080254 -90.365469 
L 51.124338 -90.179734 
L 50.168422 -89.992771 
L 49.212506 -89.80485 
L 48.25659 -89.616218 
L 47.300674 -89.427097 
L 46.344758 -89.237692 
L 45.388842 -89.048187 
L 44.432926 -88.858753 
L 43.47701 -88.669554 
L 42.521094 -88.480752 
L 41.565178 -88.29251 
L 40.609262 -88.105002 
L 39.653346 -87.918417 
L 38.69743 -87.732963 
L 37.741514 -87.548873 
L 36.785598 -87.366404 
L 35.829683 -87.185843 
L 34.873767 -87.007504 
L 33.917851 -86.831724 
L 32.961935 -86.658867 
L 32.006019 -86.489311 
L 31.050103 -86.323448 
L 30.094187 -86.161676 
L 29.138271 -86.00439 
L 28.182355 -85.851976 
L 27.226439 -85.704804 
L 26.270523 -85.563215 
L 25.314607 -85.427523 
L 24.358691 -85.298 
L 23.402775 -85.174874 
L 22.446859 -85.058327 
L 21.490943 -84.948485 
L 20.535027 -84.845423 
L 19.579111 -84.749162 
L 18.623196 -84.659669 
L 17.66728 -84.576857 
L 16.711364 -84.500593 
z
" style="stroke: #21918c; stroke-width: 1.25"/>
    </defs>
    <g>
     <use xlink:href="#m865f6034de" x="0" y="174.26" style="fill: #21918c; fill-opacity: 0.7; stroke: #21918c; stroke-width: 1.25"/>
    </g>
   </g>
   <g id="line2d_5">
    <path d="M 7.2 90.36 
L 216.45 90.36 
" style="fill: none; stroke: #21918c; stroke-opacity: 0.9; stroke-linecap: round"/>
   </g>
   <g id="text_5">
    <!-- 4 -->
    <g style="fill: #21918c" transform="translate(7.2 89.442) scale(0.12 -0.12)">
     <defs>
      <path id="IBMPlexSans-Bold-34" d="M 2157 0 
L 2157 858 
L 192 858 
L 192 1677 
L 1933 4467 
L 3072 4467 
L 3072 1600 
L 3635 1600 
L 3635 858 
L 3072 858 
L 3072 0 
L 2157 0 
z
M 960 1600 
L 2157 1600 
L 2157 3475 
L 2093 3475 
L 960 1600 
z
" transform="scale(0.015625)"/>
     </defs>
     <use xlink:href="#IBMPlexSans-Bold-34"/>
    </g>
   </g>
  </g>
  <g id="axes_6">
   <g id="patch_7">
    <path d="M 7.2 100.755 
L 216.45 100.755 
L 216.45 59.175 
L 7.2 59.175 
L 7.2 100.755 
z
" style="fill: none"/>
   </g>
   <g id="matplotlib.axis_11">
    <g id="xtick_21"/>
    <g id="xtick_22"/>
    <g id="xtick_23"/>
    <g id="xtick_24"/>
   </g>
   <g id="matplotlib.axis_12"/>
   <g id="line2d_6">
    <path d="M 7.2 100.755 
L 216.45 100.755 
" style="fill: none; stroke: #482475; stroke-opacity: 0.9; stroke-linecap: round"/>
   </g>
   <g id="text_6">
    <!-- 5 -->
    <g style="fill: #482475" transform="translate(7.2 99.837) scale(0.12 -0.12)">
     <defs>
      <path id="IBMPlexSans-Bold-35" d="M 3341 3629 
L 1312 3629 
L 1216 2214 
L 1267 2214 
Q 1331 2374 1411 2505 
Q 1491 2637 1600 2729 
Q 1709 2822 1862 2873 
Q 2016 2925 2227 2925 
Q 2515 2925 2764 2829 
Q 3014 2733 3200 2550 
Q 3386 2368 3494 2102 
Q 3603 1837 3603 1504 
Q 3603 1165 3491 873 
Q 3379 582 3158 371 
Q 2938 160 2618 41 
Q 2298 -77 1888 -77 
Q 1562 -77 1312 -6 
Q 1062 64 870 182 
Q 678 301 537 454 
Q 397 608 294 781 
L 992 1331 
Q 1139 1069 1344 886 
Q 1549 704 1894 704 
Q 2240 704 2416 902 
Q 2592 1101 2592 1427 
L 2592 1478 
Q 2592 1786 2413 1965 
Q 2234 2144 1920 2144 
Q 1658 2144 1488 2038 
Q 1318 1933 1229 1830 
L 442 1939 
L 608 4467 
L 3341 4467 
L 3341 3629 
z
" transform="scale(0.015625)"/>
     </defs>
     <use xlink:href="#IBMPlexSans-Bold-35"/>
    </g>
   </g>
  </g>
  <g id="axes_7">
   <g id="patch_8">
    <path d="M 7.2 111.15 
L 216.45 111.15 
L 216.45 69.57 
L 7.2 69.57 
L 7.2 111.15 
z
" style="fill: none"/>
   </g>
   <g id="matplotlib.axis_13">
    <g id="xtick_25"/>
    <g id="xtick_26"/>
    <g id="xtick_27"/>
    <g id="xtick_28"/>
   </g>
   <g id="matplotlib.axis_14"/>
   <g id="line2d_7">
    <path d="M 7.2 111.15 
L 216.45 111.15 
" style="fill: none; stroke: #482475; stroke-opacity: 0.9; stroke-linecap: round"/>
   </g>
   <g id="text_7">
    <!-- 6 -->
    <g style="fill: #482475" transform="translate(7.2 110.232) scale(0.12 -0.12)">
     <defs>
      <path id="IBMPlexSans-Bold-36" d="M 1946 -77 
Q 1549 -77 1235 48 
Q 922 173 707 406 
Q 493 640 381 966 
Q 269 1293 269 1696 
Q 269 2163 413 2582 
Q 557 3002 784 3357 
Q 1011 3712 1296 3993 
Q 1581 4275 1869 4467 
L 3194 4467 
Q 2784 4173 2457 3907 
Q 2131 3642 1891 3373 
Q 1651 3104 1494 2825 
Q 1338 2547 1274 2227 
L 1331 2208 
Q 1389 2336 1469 2457 
Q 1549 2579 1667 2672 
Q 1786 2765 1946 2822 
Q 2106 2880 2317 2880 
Q 2592 2880 2832 2781 
Q 3072 2682 3248 2502 
Q 3424 2323 3523 2064 
Q 3622 1805 3622 1491 
Q 3622 1146 3504 858 
Q 3386 570 3165 362 
Q 2944 154 2637 38 
Q 2330 -77 1946 -77 
z
M 1946 672 
Q 2266 672 2445 848 
Q 2624 1024 2624 1350 
L 2624 1466 
Q 2624 1792 2445 1968 
Q 2266 2144 1946 2144 
Q 1626 2144 1446 1968 
Q 1267 1792 1267 1466 
L 1267 1350 
Q 1267 1024 1446 848 
Q 1626 672 1946 672 
z
" transform="scale(0.015625)"/>
     </defs>
     <use xlink:href="#IBMPlexSans-Bold-36"/>
    </g>
   </g>
  </g>
  <g id="axes_8">
   <g id="patch_9">
    <path d="M 7.2 121.545 
L 216.45 121.545 
L 216.45 79.965 
L 7.2 79.965 
L 7.2 121.545 
z
" style="fill: none"/>
   </g>
   <g id="matplotlib.axis_15">
    <g id="xtick_29"/>
    <g id="xtick_30"/>
    <g id="xtick_31"/>
    <g id="xtick_32"/>
   </g>
   <g id="matplotlib.axis_16"/>
   <g id="line2d_8">
    <path d="M 7.2 121.545 
L 216.45 121.545 
" style="fill: none; stroke: #482475; stroke-opacity: 0.9; stroke-linecap: round"/>
   </g>
   <g id="text_8">
    <!-- 7 -->
    <g style="fill: #482475" transform="translate(7.2 120.627) scale(0.12 -0.12)">
     <defs>
      <path id="IBMPlexSans-Bold-37" d="M 1062 0 
L 2560 3686 
L 1165 3686 
L 1165 2874 
L 352 2874 
L 352 4467 
L 3514 4467 
L 3514 3635 
L 2074 0 
L 1062 0 
z
" transform="scale(0.015625)"/>
     </defs>
     <use xlink:href="#IBMPlexSans-Bold-37"/>
    </g>
   </g>
  </g>
  <g id="axes_9">
   <g id="patch_10">
    <path d="M 7.2 131.94 
L 216.45 131.94 
L 216.45 90.36 
L 7.2 90.36 
L 7.2 131.94 
z
" style="fill: none"/>
   </g>
   <g id="matplotlib.axis_17">
    <g id="xtick_33">
     <g id="text_9">
      <!-- 0 -->
      <g style="fill: #838383" transform="translate(46.500872 149.58) scale(0.11 -0.11)">
       <defs>
        <path id="IBMPlexSans-Regular-30" d="M 1920 -77 
Q 1120 -77 752 531 
Q 384 1139 384 2234 
Q 384 3328 752 3936 
Q 1120 4544 1920 4544 
Q 2720 4544 3088 3936 
Q 3456 3328 3456 2234 
Q 3456 1139 3088 531 
Q 2720 -77 1920 -77 
z
M 1920 390 
Q 2182 390 2368 499 
Q 2554 608 2669 806 
Q 2784 1005 2838 1273 
Q 2893 1542 2893 1869 
L 2893 2598 
Q 2893 2925 2838 3193 
Q 2784 3462 2669 3660 
Q 2554 3859 2368 3968 
Q 2182 4077 1920 4077 
Q 1658 4077 1472 3968 
Q 1286 3859 1171 3660 
Q 1056 3462 1001 3193 
Q 947 2925 947 2598 
L 947 1869 
Q 947 1542 1001 1273 
Q 1056 1005 1171 806 
Q 1286 608 1472 499 
Q 1658 390 1920 390 
z
" transform="scale(0.015625)"/>
       </defs>
       <use xlink:href="#IBMPlexSans-Regular-30"/>
      </g>
     </g>
    </g>
    <g id="xtick_34">
     <g id="text_10">
      <!-- 2 -->
      <g style="fill: #838383" transform="translate(89.848096 149.58) scale(0.11 -0.11)">
       <defs>
        <path id="IBMPlexSans-Regular-32" d="M 3411 0 
L 480 0 
L 480 550 
L 1939 1894 
Q 2253 2182 2464 2505 
Q 2675 2829 2675 3155 
L 2675 3232 
Q 2675 3603 2470 3833 
Q 2266 4064 1850 4064 
Q 1645 4064 1491 4006 
Q 1338 3949 1226 3846 
Q 1114 3744 1040 3606 
Q 966 3469 922 3309 
L 442 3494 
Q 506 3693 618 3881 
Q 730 4070 899 4217 
Q 1069 4365 1309 4454 
Q 1549 4544 1875 4544 
Q 2202 4544 2458 4448 
Q 2714 4352 2886 4179 
Q 3059 4006 3152 3769 
Q 3245 3533 3245 3245 
Q 3245 2982 3171 2758 
Q 3098 2534 2970 2332 
Q 2842 2131 2659 1939 
Q 2477 1747 2266 1555 
L 1062 474 
L 3411 474 
L 3411 0 
z
" transform="scale(0.015625)"/>
       </defs>
       <use xlink:href="#IBMPlexSans-Regular-32"/>
      </g>
     </g>
    </g>
    <g id="xtick_35">
     <g id="text_11">
      <!-- 4 -->
      <g style="fill: #838383" transform="translate(133.19532 149.58) scale(0.11 -0.11)">
       <defs>
        <path id="IBMPlexSans-Regular-34" d="M 2400 0 
L 2400 877 
L 243 877 
L 243 1350 
L 2112 4467 
L 2912 4467 
L 2912 1325 
L 3558 1325 
L 3558 877 
L 2912 877 
L 2912 0 
L 2400 0 
z
M 749 1325 
L 2400 1325 
L 2400 4051 
L 2368 4051 
L 749 1325 
z
" transform="scale(0.015625)"/>
       </defs>
       <use xlink:href="#IBMPlexSans-Regular-34"/>
      </g>
     </g>
    </g>
    <g id="xtick_36">
     <g id="text_12">
      <!-- 6 -->
      <g style="fill: #838383" transform="translate(176.542544 149.58) scale(0.11 -0.11)">
       <defs>
        <path id="IBMPlexSans-Regular-36" d="M 1926 -77 
Q 1581 -77 1302 41 
Q 1024 160 829 381 
Q 634 602 531 922 
Q 429 1242 429 1638 
Q 429 2138 576 2576 
Q 723 3014 956 3376 
Q 1190 3738 1472 4016 
Q 1754 4294 2022 4467 
L 2714 4467 
Q 2355 4205 2073 3955 
Q 1792 3706 1581 3434 
Q 1370 3162 1222 2851 
Q 1075 2541 986 2150 
L 1018 2138 
Q 1178 2413 1430 2595 
Q 1683 2778 2093 2778 
Q 2381 2778 2624 2682 
Q 2867 2586 3040 2406 
Q 3213 2227 3312 1971 
Q 3411 1715 3411 1402 
Q 3411 1075 3305 803 
Q 3200 531 3005 336 
Q 2810 141 2534 32 
Q 2259 -77 1926 -77 
z
M 1920 390 
Q 2362 390 2608 633 
Q 2854 877 2854 1331 
L 2854 1382 
Q 2854 1837 2608 2080 
Q 2362 2323 1920 2323 
Q 1478 2323 1232 2080 
Q 986 1837 986 1382 
L 986 1331 
Q 986 877 1232 633 
Q 1478 390 1920 390 
z
" transform="scale(0.015625)"/>
       </defs>
       <use xlink:href="#IBMPlexSans-Regular-36"/>
      </g>
     </g>
    </g>
    <g id="text_13">
     <!-- sldf -->
     <g style="fill: #262626" transform="translate(101.84625 164.66) scale(0.12 -0.12)">
      <defs>
       <path id="IBMPlexSans-Regular-73" d="M 1536 -77 
Q 1075 -77 764 99 
Q 454 275 230 570 
L 595 864 
Q 787 621 1024 489 
Q 1261 358 1574 358 
Q 1901 358 2083 499 
Q 2266 640 2266 896 
Q 2266 1088 2141 1225 
Q 2016 1363 1690 1414 
L 1427 1453 
Q 1197 1485 1005 1552 
Q 813 1619 669 1731 
Q 525 1843 445 2009 
Q 365 2176 365 2406 
Q 365 2650 454 2832 
Q 544 3014 701 3136 
Q 858 3258 1075 3318 
Q 1293 3379 1542 3379 
Q 1946 3379 2218 3238 
Q 2490 3098 2694 2848 
L 2355 2541 
Q 2246 2694 2035 2819 
Q 1824 2944 1504 2944 
Q 1184 2944 1021 2806 
Q 858 2669 858 2432 
Q 858 2189 1021 2080 
Q 1184 1971 1491 1920 
L 1747 1882 
Q 2298 1798 2528 1564 
Q 2758 1331 2758 954 
Q 2758 474 2432 198 
Q 2106 -77 1536 -77 
z
" transform="scale(0.015625)"/>
       <path id="IBMPlexSans-Regular-6c" d="M 1088 0 
Q 819 0 681 150 
Q 544 301 544 531 
L 544 4736 
L 1056 4736 
L 1056 448 
L 1542 448 
L 1542 0 
L 1088 0 
z
" transform="scale(0.015625)"/>
       <path id="IBMPlexSans-Regular-64" d="M 2656 538 
L 2630 538 
Q 2330 -77 1664 -77 
Q 1357 -77 1107 44 
Q 858 166 682 390 
Q 506 614 413 934 
Q 320 1254 320 1651 
Q 320 2048 413 2368 
Q 506 2688 682 2912 
Q 858 3136 1107 3257 
Q 1357 3379 1664 3379 
Q 2010 3379 2256 3228 
Q 2502 3078 2630 2765 
L 2656 2765 
L 2656 4736 
L 3168 4736 
L 3168 0 
L 2656 0 
L 2656 538 
z
M 1805 384 
Q 1978 384 2134 429 
Q 2291 474 2406 560 
Q 2522 646 2589 771 
Q 2656 896 2656 1056 
L 2656 2285 
Q 2656 2419 2589 2537 
Q 2522 2656 2406 2739 
Q 2291 2822 2134 2870 
Q 1978 2918 1805 2918 
Q 1370 2918 1120 2646 
Q 870 2374 870 1933 
L 870 1370 
Q 870 928 1120 656 
Q 1370 384 1805 384 
z
" transform="scale(0.015625)"/>
       <path id="IBMPlexSans-Regular-66" d="M 723 2854 
L 186 2854 
L 186 3302 
L 723 3302 
L 723 3968 
Q 723 4314 902 4525 
Q 1082 4736 1446 4736 
L 1946 4736 
L 1946 4288 
L 1235 4288 
L 1235 3302 
L 1946 3302 
L 1946 2854 
L 1235 2854 
L 1235 0 
L 723 0 
L 723 2854 
z
" transform="scale(0.015625)"/>
      </defs>
      <use xlink:href="#IBMPlexSans-Regular-73"/>
      <use xlink:href="#IBMPlexSans-Regular-6c" transform="translate(48.699997 0)"/>
      <use xlink:href="#IBMPlexSans-Regular-64" transform="translate(75.899994 0)"/>
      <use xlink:href="#IBMPlexSans-Regular-66" transform="translate(133.899979 0)"/>
     </g>
    </g>
   </g>
   <g id="matplotlib.axis_18"/>
   <g id="line2d_9">
    <path d="M 7.2 131.94 
L 216.45 131.94 
" style="fill: none; stroke: #482475; stroke-opacity: 0.9; stroke-linecap: round"/>
   </g>
   <g id="text_14">
    <!-- 8 -->
    <g style="fill: #482475" transform="translate(7.2 131.022) scale(0.12 -0.12)">
     <defs>
      <path id="IBMPlexSans-Bold-38" d="M 1920 -77 
Q 1523 -77 1212 22 
Q 902 122 691 294 
Q 480 467 368 704 
Q 256 941 256 1222 
Q 256 1651 493 1923 
Q 730 2195 1133 2304 
L 1133 2355 
Q 806 2477 598 2726 
Q 390 2976 390 3366 
Q 390 3622 489 3840 
Q 589 4058 784 4214 
Q 979 4371 1264 4457 
Q 1549 4544 1920 4544 
Q 2291 4544 2576 4457 
Q 2861 4371 3056 4214 
Q 3251 4058 3350 3840 
Q 3450 3622 3450 3366 
Q 3450 2976 3242 2726 
Q 3034 2477 2707 2355 
L 2707 2304 
Q 3110 2195 3347 1923 
Q 3584 1651 3584 1222 
Q 3584 941 3472 704 
Q 3360 467 3149 294 
Q 2938 122 2627 22 
Q 2317 -77 1920 -77 
z
M 1920 659 
Q 2240 659 2409 809 
Q 2579 960 2579 1229 
L 2579 1357 
Q 2579 1626 2409 1776 
Q 2240 1926 1920 1926 
Q 1600 1926 1430 1776 
Q 1261 1626 1261 1357 
L 1261 1229 
Q 1261 960 1430 809 
Q 1600 659 1920 659 
z
M 1920 2630 
Q 2227 2630 2387 2774 
Q 2547 2918 2547 3168 
L 2547 3270 
Q 2547 3520 2387 3664 
Q 2227 3808 1920 3808 
Q 1613 3808 1453 3664 
Q 1293 3520 1293 3270 
L 1293 3168 
Q 1293 2918 1453 2774 
Q 1613 2630 1920 2630 
z
" transform="scale(0.015625)"/>
     </defs>
     <use xlink:href="#IBMPlexSans-Bold-38"/>
    </g>
   </g>
  </g>
 </g>
</svg>
