<?xml version="1.0" encoding="utf-8" standalone="no"?>
<!DOCTYPE svg PUBLIC "-//W3C//DTD SVG 1.1//EN"
  "http://www.w3.org/Graphics/SVG/1.1/DTD/svg11.dtd">
<svg xmlns:xlink="http://www.w3.org/1999/xlink" width="223.65pt" height="174.26pt" viewBox="0 0 223.65 174.26" xmlns="http://www.w3.org/2000/svg" version="1.1">
 <metadata>
  <rdf:RDF xmlns:dc="http://purl.org/dc/elements/1.1/" xmlns:cc="http://creativecommons.org/ns#" xmlns:rdf="http://www.w3.org/1999/02/22-rdf-syntax-ns#">
   <cc:Work>
    <dc:type rdf:resource="http://purl.org/dc/dcmitype/StillImage"/>
    <dc:date>2025-07-24T17:02:10.191681</dc:date>
    <dc:format>image/svg+xml</dc:format>
    <dc:creator>
     <cc:Agent>
      <dc:title>Matplotlib v3.10.1, https://matplotlib.org/</dc:title>
     </cc:Agent>
    </dc:creator>
   </cc:Work>
  </rdf:RDF>
 </metadata>
 <defs>
  <style type="text/css">*{stroke-linejoin: round; stroke-linecap: butt}</style>
 </defs>
 <g id="figure_1">
  <g id="patch_1">
   <path d="M 0 174.26 
L 223.65 174.26 
L 223.65 0 
L 0 0 
L 0 174.26 
z
" style="fill: none"/>
  </g>
  <g id="axes_1">
   <g id="patch_2">
    <path d="M 7.2 48.78 
L 216.45 48.78 
L 216.45 7.2 
L 7.2 7.2 
L 7.2 48.78 
z
" style="fill: none"/>
   </g>
   <g id="matplotlib.axis_1">
    <g id="xtick_1"/>
    <g id="xtick_2"/>
    <g id="xtick_3"/>
    <g id="xtick_4"/>
   </g>
   <g id="matplotlib.axis_2"/>
   <g id="line2d_1">
    <path d="M 7.2 48.78 
L 216.45 48.78 
" style="fill: none; stroke: #21918c; stroke-opacity: 0.9; stroke-linecap: round"/>
   </g>
   <g id="text_1">
    <!-- 0 -->
    <g style="fill: #21918c" transform="translate(7.2 47.862) scale(0.12 -0.12)">
     <defs>
      <path id="IBMPlexSans-Bold-30" d="M 1920 -77 
Q 1043 -77 620 531 
Q 198 1139 198 2234 
Q 198 3328 620 3936 
Q 1043 4544 1920 4544 
Q 2797 4544 3219 3936 
Q 3642 3328 3642 2234 
Q 3642 1139 3219 531 
Q 2797 -77 1920 -77 
z
M 1920 736 
Q 2304 736 2451 1017 
Q 2598 1299 2598 1811 
L 2598 2656 
Q 2598 3168 2451 3449 
Q 2304 3731 1920 3731 
Q 1536 3731 1389 3449 
Q 1242 3168 1242 2656 
L 1242 1811 
Q 1242 1299 1389 1017 
Q 1536 736 1920 736 
z
" transform="scale(0.015625)"/>
     </defs>
     <use xlink:href="#IBMPlexSans-Bold-30"/>
    </g>
   </g>
  </g>
  <g id="axes_2">
   <g id="patch_3">
    <path d="M 7.2 59.175 
L 216.45 59.175 
L 216.45 17.595 
L 7.2 17.595 
L 7.2 59.175 
z
" style="fill: none"/>
   </g>
   <g id="matplotlib.axis_3">
    <g id="xtick_5"/>
    <g id="xtick_6"/>
    <g id="xtick_7"/>
    <g id="xtick_8"/>
   </g>
   <g id="matplotlib.axis_4"/>
   <g id="line2d_2">
    <path d="M 7.2 59.175 
L 216.45 59.175 
" style="fill: none; stroke: #21918c; stroke-opacity: 0.9; stroke-linecap: round"/>
   </g>
   <g id="text_2">
    <!-- 1 -->
    <g style="fill: #21918c" transform="translate(7.2 58.257) scale(0.12 -0.12)">
     <defs>
      <path id="IBMPlexSans-Bold-31" d="M 602 0 
L 602 774 
L 1805 774 
L 1805 3770 
L 1747 3770 
L 838 2579 
L 224 3059 
L 1293 4467 
L 2765 4467 
L 2765 774 
L 3712 774 
L 3712 0 
L 602 0 
z
" transform="scale(0.015625)"/>
     </defs>
     <use xlink:href="#IBMPlexSans-Bold-31"/>
    </g>
   </g>
  </g>
  <g id="axes_3">
   <g id="patch_4">
    <path d="M 7.2 69.57 
L 216.45 69.57 
L 216.45 27.99 
L 7.2 27.99 
L 7.2 69.57 
z
" style="fill: none"/>
   </g>
   <g id="matplotlib.axis_5">
    <g id="xtick_9"/>
    <g id="xtick_10"/>
    <g id="xtick_11"/>
    <g id="xtick_12"/>
   </g>
   <g id="matplotlib.axis_6"/>
   <g id="line2d_3">
    <path d="M 7.2 69.57 
L 216.45 69.57 
" style="fill: none; stroke: #21918c; stroke-opacity: 0.9; stroke-linecap: round"/>
   </g>
   <g id="text_3">
    <!-- 2 -->
    <g style="fill: #21918c" transform="translate(7.2 68.652) scale(0.12 -0.12)">
     <defs>
      <path id="IBMPlexSans-Bold-32" d="M 3526 0 
L 365 0 
L 365 877 
L 1741 2054 
Q 1926 2214 2054 2345 
Q 2182 2477 2262 2601 
Q 2342 2726 2377 2848 
Q 2413 2970 2413 3110 
L 2413 3200 
Q 2413 3328 2361 3424 
Q 2310 3520 2227 3584 
Q 2144 3648 2038 3680 
Q 1933 3712 1824 3712 
Q 1664 3712 1545 3661 
Q 1427 3610 1340 3523 
Q 1254 3437 1196 3325 
Q 1139 3213 1107 3085 
L 269 3405 
Q 346 3635 480 3843 
Q 614 4051 816 4208 
Q 1018 4365 1293 4454 
Q 1568 4544 1914 4544 
Q 2278 4544 2560 4441 
Q 2842 4339 3037 4160 
Q 3232 3981 3334 3734 
Q 3437 3488 3437 3200 
Q 3437 2912 3341 2675 
Q 3245 2438 3081 2230 
Q 2918 2022 2700 1836 
Q 2483 1651 2246 1459 
L 1414 806 
L 3526 806 
L 3526 0 
z
" transform="scale(0.015625)"/>
     </defs>
     <use xlink:href="#IBMPlexSans-Bold-32"/>
    </g>
   </g>
  </g>
  <g id="axes_4">
   <g id="patch_5">
    <path d="M 7.2 79.965 
L 216.45 79.965 
L 216.45 38.385 
L 7.2 38.385 
L 7.2 79.965 
z
" style="fill: none"/>
   </g>
   <g id="matplotlib.axis_7">
    <g id="xtick_13"/>
    <g id="xtick_14"/>
    <g id="xtick_15"/>
    <g id="xtick_16"/>
   </g>
   <g id="matplotlib.axis_8"/>
   <g id="line2d_4">
    <path d="M 7.2 79.965 
L 216.45 79.965 
" style="fill: none; stroke: #21918c; stroke-opacity: 0.9; stroke-linecap: round"/>
   </g>
   <g id="text_4">
    <!-- 3 -->
    <g style="fill: #21918c" transform="translate(7.2 79.047) scale(0.12 -0.12)">
     <defs>
      <path id="IBMPlexSans-Bold-33" d="M 1677 2701 
Q 2035 2701 2198 2838 
Q 2362 2976 2362 3181 
L 2362 3226 
Q 2362 3469 2205 3616 
Q 2048 3763 1760 3763 
Q 1491 3763 1254 3625 
Q 1018 3488 851 3232 
L 250 3795 
Q 378 3962 525 4099 
Q 672 4237 857 4336 
Q 1043 4435 1273 4489 
Q 1504 4544 1792 4544 
Q 2150 4544 2441 4461 
Q 2733 4378 2941 4221 
Q 3149 4064 3261 3846 
Q 3373 3629 3373 3360 
Q 3373 3149 3305 2976 
Q 3238 2803 3120 2675 
Q 3002 2547 2848 2467 
Q 2694 2387 2522 2355 
L 2522 2317 
Q 2720 2278 2889 2192 
Q 3059 2106 3184 1971 
Q 3309 1837 3379 1654 
Q 3450 1472 3450 1242 
Q 3450 941 3328 697 
Q 3206 454 2982 281 
Q 2758 109 2444 16 
Q 2131 -77 1754 -77 
Q 1414 -77 1152 -6 
Q 890 64 694 182 
Q 499 301 355 454 
Q 211 608 102 781 
L 813 1331 
Q 960 1056 1174 880 
Q 1389 704 1754 704 
Q 2080 704 2262 867 
Q 2445 1030 2445 1312 
L 2445 1350 
Q 2445 1626 2237 1763 
Q 2029 1901 1664 1901 
L 1261 1901 
L 1261 2701 
L 1677 2701 
z
" transform="scale(0.015625)"/>
     </defs>
     <use xlink:href="#IBMPlexSans-Bold-33"/>
    </g>
   </g>
  </g>
  <g id="axes_5">
   <g id="patch_6">
    <path d="M 7.2 90.36 
L 216.45 90.36 
L 216.45 48.78 
L 7.2 48.78 
L 7.2 90.36 
z
" style="fill: none"/>
   </g>
   <g id="matplotlib.axis_9">
    <g id="xtick_17"/>
    <g id="xtick_18"/>
    <g id="xtick_19"/>
    <g id="xtick_20"/>
   </g>
   <g id="matplotlib.axis_10"/>
   <g id="line2d_5">
    <path d="M 7.2 90.36 
L 216.45 90.36 
" style="fill: none; stroke: #21918c; stroke-opacity: 0.9; stroke-linecap: round"/>
   </g>
   <g id="text_5">
    <!-- 4 -->
    <g style="fill: #21918c" transform="translate(7.2 89.442) scale(0.12 -0.12)">
     <defs>
      <path id="IBMPlexSans-Bold-34" d="M 2157 0 
L 2157 858 
L 192 858 
L 192 1677 
L 1933 4467 
L 3072 4467 
L 3072 1600 
L 3635 1600 
L 3635 858 
L 3072 858 
L 3072 0 
L 2157 0 
z
M 960 1600 
L 2157 1600 
L 2157 3475 
L 2093 3475 
L 960 1600 
z
" transform="scale(0.015625)"/>
     </defs>
     <use xlink:href="#IBMPlexSans-Bold-34"/>
    </g>
   </g>
  </g>
  <g id="axes_6">
   <g id="patch_7">
    <path d="M 7.2 100.755 
L 216.45 100.755 
L 216.45 59.175 
L 7.2 59.175 
L 7.2 100.755 
z
" style="fill: none"/>
   </g>
   <g id="matplotlib.axis_11">
    <g id="xtick_21"/>
    <g id="xtick_22"/>
    <g id="xtick_23"/>
    <g id="xtick_24"/>
   </g>
   <g id="matplotlib.axis_12"/>
   <g id="FillBetweenPolyCollection_1">
    <defs>
     <path id="m5d2b1e0831" d="M 133.496266 -74.304283 
L 133.496266 -73.505 
L 133.743024 -73.505 
L 133.989782 -73.505 
L 134.23654 -73.505 
L 134.483298 -73.505 
L 134.730057 -73.505 
L 134.976815 -73.505 
L 135.223573 -73.505 
L 135.470331 -73.505 
L 135.717089 -73.505 
L 135.963847 -73.505 
L 136.210605 -73.505 
L 136.457363 -73.505 
L 136.704121 -73.505 
L 136.95088 -73.505 
L 137.197638 -73.505 
L 137.444396 -73.505 
L 137.691154 -73.505 
L 137.937912 -73.505 
L 138.18467 -73.505 
L 138.431428 -73.505 
L 138.678186 -73.505 
L 138.924944 -73.505 
L 139.171702 -73.505 
L 139.418461 -73.505 
L 139.665219 -73.505 
L 139.911977 -73.505 
L 140.158735 -73.505 
L 140.405493 -73.505 
L 140.652251 -73.505 
L 140.899009 -73.505 
L 141.145767 -73.505 
L 141.392525 -73.505 
L 141.639284 -73.505 
L 141.886042 -73.505 
L 142.1328 -73.505 
L 142.379558 -73.505 
L 142.626316 -73.505 
L 142.873074 -73.505 
L 143.119832 -73.505 
L 143.36659 -73.505 
L 143.613348 -73.505 
L 143.860106 -73.505 
L 144.106865 -73.505 
L 144.353623 -73.505 
L 144.600381 -73.505 
L 144.847139 -73.505 
L 145.093897 -73.505 
L 145.340655 -73.505 
L 145.587413 -73.505 
L 145.834171 -73.505 
L 146.080929 -73.505 
L 146.327688 -73.505 
L 146.574446 -73.505 
L 146.821204 -73.505 
L 147.067962 -73.505 
L 147.31472 -73.505 
L 147.561478 -73.505 
L 147.808236 -73.505 
L 148.054994 -73.505 
L 148.301752 -73.505 
L 148.548511 -73.505 
L 148.795269 -73.505 
L 149.042027 -73.505 
L 149.288785 -73.505 
L 149.535543 -73.505 
L 149.782301 -73.505 
L 150.029059 -73.505 
L 150.275817 -73.505 
L 150.522575 -73.505 
L 150.769333 -73.505 
L 151.016092 -73.505 
L 151.26285 -73.505 
L 151.509608 -73.505 
L 151.756366 -73.505 
L 152.003124 -73.505 
L 152.249882 -73.505 
L 152.49664 -73.505 
L 152.743398 -73.505 
L 152.990156 -73.505 
L 153.236915 -73.505 
L 153.483673 -73.505 
L 153.730431 -73.505 
L 153.977189 -73.505 
L 154.223947 -73.505 
L 154.470705 -73.505 
L 154.717463 -73.505 
L 154.964221 -73.505 
L 155.210979 -73.505 
L 155.457738 -73.505 
L 155.704496 -73.505 
L 155.951254 -73.505 
L 156.198012 -73.505 
L 156.44477 -73.505 
L 156.691528 -73.505 
L 156.938286 -73.505 
L 157.185044 -73.505 
L 157.431802 -73.505 
L 157.67856 -73.505 
L 157.925319 -73.505 
L 158.172077 -73.505 
L 158.418835 -73.505 
L 158.665593 -73.505 
L 158.912351 -73.505 
L 159.159109 -73.505 
L 159.405867 -73.505 
L 159.652625 -73.505 
L 159.899383 -73.505 
L 160.146142 -73.505 
L 160.3929 -73.505 
L 160.639658 -73.505 
L 160.886416 -73.505 
L 161.133174 -73.505 
L 161.379932 -73.505 
L 161.62669 -73.505 
L 161.873448 -73.505 
L 162.120206 -73.505 
L 162.366964 -73.505 
L 162.613723 -73.505 
L 162.860481 -73.505 
L 163.107239 -73.505 
L 163.353997 -73.505 
L 163.600755 -73.505 
L 163.847513 -73.505 
L 164.094271 -73.505 
L 164.341029 -73.505 
L 164.587787 -73.505 
L 164.834546 -73.505 
L 165.081304 -73.505 
L 165.328062 -73.505 
L 165.57482 -73.505 
L 165.821578 -73.505 
L 166.068336 -73.505 
L 166.315094 -73.505 
L 166.561852 -73.505 
L 166.80861 -73.505 
L 167.055369 -73.505 
L 167.302127 -73.505 
L 167.548885 -73.505 
L 167.795643 -73.505 
L 168.042401 -73.505 
L 168.289159 -73.505 
L 168.535917 -73.505 
L 168.782675 -73.505 
L 169.029433 -73.505 
L 169.276191 -73.505 
L 169.52295 -73.505 
L 169.769708 -73.505 
L 170.016466 -73.505 
L 170.263224 -73.505 
L 170.509982 -73.505 
L 170.75674 -73.505 
L 171.003498 -73.505 
L 171.250256 -73.505 
L 171.497014 -73.505 
L 171.743773 -73.505 
L 171.990531 -73.505 
L 172.237289 -73.505 
L 172.484047 -73.505 
L 172.730805 -73.505 
L 172.977563 -73.505 
L 173.224321 -73.505 
L 173.471079 -73.505 
L 173.717837 -73.505 
L 173.964596 -73.505 
L 174.211354 -73.505 
L 174.458112 -73.505 
L 174.70487 -73.505 
L 174.951628 -73.505 
L 175.198386 -73.505 
L 175.445144 -73.505 
L 175.691902 -73.505 
L 175.93866 -73.505 
L 176.185418 -73.505 
L 176.432177 -73.505 
L 176.678935 -73.505 
L 176.925693 -73.505 
L 177.172451 -73.505 
L 177.419209 -73.505 
L 177.665967 -73.505 
L 177.912725 -73.505 
L 178.159483 -73.505 
L 178.406241 -73.505 
L 178.653 -73.505 
L 178.899758 -73.505 
L 179.146516 -73.505 
L 179.393274 -73.505 
L 179.640032 -73.505 
L 179.88679 -73.505 
L 180.133548 -73.505 
L 180.380306 -73.505 
L 180.627064 -73.505 
L 180.873822 -73.505 
L 181.120581 -73.505 
L 181.367339 -73.505 
L 181.614097 -73.505 
L 181.860855 -73.505 
L 182.107613 -73.505 
L 182.354371 -73.505 
L 182.601129 -73.505 
L 182.601129 -76.303002 
L 182.601129 -76.303002 
L 182.354371 -76.650918 
L 182.107613 -77.027231 
L 181.860855 -77.4322 
L 181.614097 -77.865817 
L 181.367339 -78.327793 
L 181.120581 -78.81755 
L 180.873822 -79.334217 
L 180.627064 -79.876639 
L 180.380306 -80.443384 
L 180.133548 -81.032769 
L 179.88679 -81.642883 
L 179.640032 -82.271625 
L 179.393274 -82.91674 
L 179.146516 -83.575868 
L 178.899758 -84.246594 
L 178.653 -84.926494 
L 178.406241 -85.613198 
L 178.159483 -86.304433 
L 177.912725 -86.998077 
L 177.665967 -87.692204 
L 177.419209 -88.385127 
L 177.172451 -89.075423 
L 176.925693 -89.761965 
L 176.678935 -90.443937 
L 176.432177 -91.120833 
L 176.185418 -91.79246 
L 175.93866 -92.458922 
L 175.691902 -93.120594 
L 175.445144 -93.778093 
L 175.198386 -94.432236 
L 174.951628 -95.083998 
L 174.70487 -95.734456 
L 174.458112 -96.384742 
L 174.211354 -97.035981 
L 173.964596 -97.689241 
L 173.717837 -98.345471 
L 173.471079 -99.005459 
L 173.224321 -99.669773 
L 172.977563 -100.338724 
L 172.730805 -101.012326 
L 172.484047 -101.690263 
L 172.237289 -102.371863 
L 171.990531 -103.056081 
L 171.743773 -103.741487 
L 171.497014 -104.426264 
L 171.250256 -105.108214 
L 171.003498 -105.784771 
L 170.75674 -106.453023 
L 170.509982 -107.109745 
L 170.263224 -107.75144 
L 170.016466 -108.374386 
L 169.769708 -108.974696 
L 169.52295 -109.548381 
L 169.276191 -110.091427 
L 169.029433 -110.599864 
L 168.782675 -111.069858 
L 168.535917 -111.497786 
L 168.289159 -111.880326 
L 168.042401 -112.214535 
L 167.795643 -112.497924 
L 167.548885 -112.728531 
L 167.302127 -112.904971 
L 167.055369 -113.026486 
L 166.80861 -113.092974 
L 166.561852 -113.105 
L 166.315094 -113.063791 
L 166.068336 -112.971215 
L 165.821578 -112.829735 
L 165.57482 -112.642355 
L 165.328062 -112.41254 
L 165.081304 -112.14413 
L 164.834546 -111.841235 
L 164.587787 -111.508135 
L 164.341029 -111.149157 
L 164.094271 -110.768572 
L 163.847513 -110.370477 
L 163.600755 -109.958697 
L 163.353997 -109.536692 
L 163.107239 -109.107478 
L 162.860481 -108.673565 
L 162.613723 -108.236914 
L 162.366964 -107.798916 
L 162.120206 -107.360384 
L 161.873448 -106.921576 
L 161.62669 -106.482226 
L 161.379932 -106.041602 
L 161.133174 -105.598575 
L 160.886416 -105.1517 
L 160.639658 -104.699308 
L 160.3929 -104.239603 
L 160.146142 -103.770759 
L 159.899383 -103.291019 
L 159.652625 -102.798783 
L 159.405867 -102.292694 
L 159.159109 -101.771705 
L 158.912351 -101.235136 
L 158.665593 -100.682712 
L 158.418835 -100.114593 
L 158.172077 -99.531371 
L 157.925319 -98.934067 
L 157.67856 -98.324102 
L 157.431802 -97.703256 
L 157.185044 -97.07362 
L 156.938286 -96.43753 
L 156.691528 -95.797507 
L 156.44477 -95.156183 
L 156.198012 -94.516233 
L 155.951254 -93.880306 
L 155.704496 -93.250965 
L 155.457738 -92.630632 
L 155.210979 -92.021538 
L 154.964221 -91.42569 
L 154.717463 -90.844845 
L 154.470705 -90.28049 
L 154.223947 -89.733835 
L 153.977189 -89.205818 
L 153.730431 -88.697113 
L 153.483673 -88.208141 
L 153.236915 -87.739097 
L 152.990156 -87.289963 
L 152.743398 -86.860539 
L 152.49664 -86.450462 
L 152.249882 -86.059233 
L 152.003124 -85.686234 
L 151.756366 -85.33075 
L 151.509608 -84.991984 
L 151.26285 -84.669076 
L 151.016092 -84.36111 
L 150.769333 -84.067132 
L 150.522575 -83.786161 
L 150.275817 -83.517197 
L 150.029059 -83.259235 
L 149.782301 -83.011279 
L 149.535543 -82.772355 
L 149.288785 -82.541524 
L 149.042027 -82.3179 
L 148.795269 -82.100666 
L 148.548511 -81.889087 
L 148.301752 -81.682528 
L 148.054994 -81.480462 
L 147.808236 -81.282488 
L 147.561478 -81.08833 
L 147.31472 -80.897847 
L 147.067962 -80.711025 
L 146.821204 -80.527977 
L 146.574446 -80.348926 
L 146.327688 -80.174194 
L 146.080929 -80.00418 
L 145.834171 -79.839336 
L 145.587413 -79.680142 
L 145.340655 -79.527078 
L 145.093897 -79.380595 
L 144.847139 -79.241089 
L 144.600381 -79.108872 
L 144.353623 -78.984155 
L 144.106865 -78.867022 
L 143.860106 -78.757422 
L 143.613348 -78.655154 
L 143.36659 -78.55987 
L 143.119832 -78.471071 
L 142.873074 -78.388118 
L 142.626316 -78.310245 
L 142.379558 -78.236573 
L 142.1328 -78.166138 
L 141.886042 -78.097908 
L 141.639284 -78.030816 
L 141.392525 -77.963784 
L 141.145767 -77.895752 
L 140.899009 -77.825707 
L 140.652251 -77.752706 
L 140.405493 -77.675901 
L 140.158735 -77.594558 
L 139.911977 -77.508075 
L 139.665219 -77.415992 
L 139.418461 -77.318 
L 139.171702 -77.213946 
L 138.924944 -77.103831 
L 138.678186 -76.987808 
L 138.431428 -76.866169 
L 138.18467 -76.739339 
L 137.937912 -76.60786 
L 137.691154 -76.472373 
L 137.444396 -76.333604 
L 137.197638 -76.192339 
L 136.95088 -76.049412 
L 136.704121 -75.905682 
L 136.457363 -75.762013 
L 136.210605 -75.61926 
L 135.963847 -75.47825 
L 135.717089 -75.339771 
L 135.470331 -75.204555 
L 135.223573 -75.07327 
L 134.976815 -74.946513 
L 134.730057 -74.824804 
L 134.483298 -74.708577 
L 134.23654 -74.598184 
L 133.989782 -74.493894 
L 133.743024 -74.395892 
L 133.496266 -74.304283 
z
" style="stroke: #2a788e; stroke-width: 1.25"/>
    </defs>
    <g>
     <use xlink:href="#m5d2b1e0831" x="0" y="174.26" style="fill: #2a788e; fill-opacity: 0.7; stroke: #2a788e; stroke-width: 1.25"/>
    </g>
   </g>
   <g id="line2d_6">
    <path d="M 7.2 100.755 
L 216.45 100.755 
" style="fill: none; stroke: #2a788e; stroke-opacity: 0.9; stroke-linecap: round"/>
   </g>
   <g id="text_6">
    <!-- 5 -->
    <g style="fill: #2a788e" transform="translate(7.2 99.837) scale(0.12 -0.12)">
     <defs>
      <path id="IBMPlexSans-Bold-35" d="M 3341 3629 
L 1312 3629 
L 1216 2214 
L 1267 2214 
Q 1331 2374 1411 2505 
Q 1491 2637 1600 2729 
Q 1709 2822 1862 2873 
Q 2016 2925 2227 2925 
Q 2515 2925 2764 2829 
Q 3014 2733 3200 2550 
Q 3386 2368 3494 2102 
Q 3603 1837 3603 1504 
Q 3603 1165 3491 873 
Q 3379 582 3158 371 
Q 2938 160 2618 41 
Q 2298 -77 1888 -77 
Q 1562 -77 1312 -6 
Q 1062 64 870 182 
Q 678 301 537 454 
Q 397 608 294 781 
L 992 1331 
Q 1139 1069 1344 886 
Q 1549 704 1894 704 
Q 2240 704 2416 902 
Q 2592 1101 2592 1427 
L 2592 1478 
Q 2592 1786 2413 1965 
Q 2234 2144 1920 2144 
Q 1658 2144 1488 2038 
Q 1318 1933 1229 1830 
L 442 1939 
L 608 4467 
L 3341 4467 
L 3341 3629 
z
" transform="scale(0.015625)"/>
     </defs>
     <use xlink:href="#IBMPlexSans-Bold-35"/>
    </g>
   </g>
  </g>
  <g id="axes_7">
   <g id="patch_8">
    <path d="M 7.2 111.15 
L 216.45 111.15 
L 216.45 69.57 
L 7.2 69.57 
L 7.2 111.15 
z
" style="fill: none"/>
   </g>
   <g id="matplotlib.axis_13">
    <g id="xtick_25"/>
    <g id="xtick_26"/>
    <g id="xtick_27"/>
    <g id="xtick_28"/>
   </g>
   <g id="matplotlib.axis_14"/>
   <g id="FillBetweenPolyCollection_2">
    <defs>
     <path id="m0cd74ba2a2" d="M 93.523213 -63.538022 
L 93.523213 -63.11 
L 94.011987 -63.11 
L 94.500761 -63.11 
L 94.989534 -63.11 
L 95.478308 -63.11 
L 95.967082 -63.11 
L 96.455856 -63.11 
L 96.94463 -63.11 
L 97.433403 -63.11 
L 97.922177 -63.11 
L 98.410951 -63.11 
L 98.899725 -63.11 
L 99.388499 -63.11 
L 99.877272 -63.11 
L 100.366046 -63.11 
L 100.85482 -63.11 
L 101.343594 -63.11 
L 101.832368 -63.11 
L 102.321142 -63.11 
L 102.809915 -63.11 
L 103.298689 -63.11 
L 103.787463 -63.11 
L 104.276237 -63.11 
L 104.765011 -63.11 
L 105.253784 -63.11 
L 105.742558 -63.11 
L 106.231332 -63.11 
L 106.720106 -63.11 
L 107.20888 -63.11 
L 107.697653 -63.11 
L 108.186427 -63.11 
L 108.675201 -63.11 
L 109.163975 -63.11 
L 109.652749 -63.11 
L 110.141522 -63.11 
L 110.630296 -63.11 
L 111.11907 -63.11 
L 111.607844 -63.11 
L 112.096618 -63.11 
L 112.585391 -63.11 
L 113.074165 -63.11 
L 113.562939 -63.11 
L 114.051713 -63.11 
L 114.540487 -63.11 
L 115.02926 -63.11 
L 115.518034 -63.11 
L 116.006808 -63.11 
L 116.495582 -63.11 
L 116.984356 -63.11 
L 117.473129 -63.11 
L 117.961903 -63.11 
L 118.450677 -63.11 
L 118.939451 -63.11 
L 119.428225 -63.11 
L 119.916998 -63.11 
L 120.405772 -63.11 
L 120.894546 -63.11 
L 121.38332 -63.11 
L 121.872094 -63.11 
L 122.360867 -63.11 
L 122.849641 -63.11 
L 123.338415 -63.11 
L 123.827189 -63.11 
L 124.315963 -63.11 
L 124.804736 -63.11 
L 125.29351 -63.11 
L 125.782284 -63.11 
L 126.271058 -63.11 
L 126.759832 -63.11 
L 127.248605 -63.11 
L 127.737379 -63.11 
L 128.226153 -63.11 
L 128.714927 -63.11 
L 129.203701 -63.11 
L 129.692474 -63.11 
L 130.181248 -63.11 
L 130.670022 -63.11 
L 131.158796 -63.11 
L 131.64757 -63.11 
L 132.136343 -63.11 
L 132.625117 -63.11 
L 133.113891 -63.11 
L 133.602665 -63.11 
L 134.091439 -63.11 
L 134.580212 -63.11 
L 135.068986 -63.11 
L 135.55776 -63.11 
L 136.046534 -63.11 
L 136.535308 -63.11 
L 137.024081 -63.11 
L 137.512855 -63.11 
L 138.001629 -63.11 
L 138.490403 -63.11 
L 138.979177 -63.11 
L 139.46795 -63.11 
L 139.956724 -63.11 
L 140.445498 -63.11 
L 140.934272 -63.11 
L 141.423046 -63.11 
L 141.911819 -63.11 
L 142.400593 -63.11 
L 142.889367 -63.11 
L 143.378141 -63.11 
L 143.866915 -63.11 
L 144.355688 -63.11 
L 144.844462 -63.11 
L 145.333236 -63.11 
L 145.82201 -63.11 
L 146.310784 -63.11 
L 146.799557 -63.11 
L 147.288331 -63.11 
L 147.777105 -63.11 
L 148.265879 -63.11 
L 148.754653 -63.11 
L 149.243426 -63.11 
L 149.7322 -63.11 
L 150.220974 -63.11 
L 150.709748 -63.11 
L 151.198522 -63.11 
L 151.687295 -63.11 
L 152.176069 -63.11 
L 152.664843 -63.11 
L 153.153617 -63.11 
L 153.642391 -63.11 
L 154.131164 -63.11 
L 154.619938 -63.11 
L 155.108712 -63.11 
L 155.597486 -63.11 
L 156.08626 -63.11 
L 156.575033 -63.11 
L 157.063807 -63.11 
L 157.552581 -63.11 
L 158.041355 -63.11 
L 158.530129 -63.11 
L 159.018902 -63.11 
L 159.507676 -63.11 
L 159.99645 -63.11 
L 160.485224 -63.11 
L 160.973998 -63.11 
L 161.462771 -63.11 
L 161.951545 -63.11 
L 162.440319 -63.11 
L 162.929093 -63.11 
L 163.417867 -63.11 
L 163.90664 -63.11 
L 164.395414 -63.11 
L 164.884188 -63.11 
L 165.372962 -63.11 
L 165.861736 -63.11 
L 166.350509 -63.11 
L 166.839283 -63.11 
L 167.328057 -63.11 
L 167.816831 -63.11 
L 168.305605 -63.11 
L 168.794378 -63.11 
L 169.283152 -63.11 
L 169.771926 -63.11 
L 170.2607 -63.11 
L 170.749474 -63.11 
L 171.238247 -63.11 
L 171.727021 -63.11 
L 172.215795 -63.11 
L 172.704569 -63.11 
L 173.193343 -63.11 
L 173.682116 -63.11 
L 174.17089 -63.11 
L 174.659664 -63.11 
L 175.148438 -63.11 
L 175.637212 -63.11 
L 176.125985 -63.11 
L 176.614759 -63.11 
L 177.103533 -63.11 
L 177.592307 -63.11 
L 178.081081 -63.11 
L 178.569854 -63.11 
L 179.058628 -63.11 
L 179.547402 -63.11 
L 180.036176 -63.11 
L 180.52495 -63.11 
L 181.013723 -63.11 
L 181.502497 -63.11 
L 181.991271 -63.11 
L 182.480045 -63.11 
L 182.968819 -63.11 
L 183.457592 -63.11 
L 183.946366 -63.11 
L 184.43514 -63.11 
L 184.923914 -63.11 
L 185.412688 -63.11 
L 185.901461 -63.11 
L 186.390235 -63.11 
L 186.879009 -63.11 
L 187.367783 -63.11 
L 187.856557 -63.11 
L 188.34533 -63.11 
L 188.834104 -63.11 
L 189.322878 -63.11 
L 189.811652 -63.11 
L 190.300426 -63.11 
L 190.789199 -63.11 
L 190.789199 -64.483813 
L 190.789199 -64.483813 
L 190.300426 -64.654388 
L 189.811652 -64.83887 
L 189.322878 -65.037397 
L 188.834104 -65.249985 
L 188.34533 -65.476518 
L 187.856557 -65.716745 
L 187.367783 -65.970278 
L 186.879009 -66.236598 
L 186.390235 -66.515057 
L 185.901461 -66.804889 
L 185.412688 -67.105221 
L 184.923914 -67.41509 
L 184.43514 -67.733459 
L 183.946366 -68.059235 
L 183.457592 -68.391297 
L 182.968819 -68.728512 
L 182.480045 -69.069761 
L 181.991271 -69.413961 
L 181.502497 -69.760091 
L 181.013723 -70.107205 
L 180.52495 -70.454456 
L 180.036176 -70.80111 
L 179.547402 -71.146556 
L 179.058628 -71.490317 
L 178.569854 -71.832053 
L 178.081081 -72.17156 
L 177.592307 -72.50877 
L 177.103533 -72.84374 
L 176.614759 -73.176643 
L 176.125985 -73.507751 
L 175.637212 -73.837419 
L 175.148438 -74.166066 
L 174.659664 -74.494152 
L 174.17089 -74.822154 
L 173.682116 -75.150544 
L 173.193343 -75.479766 
L 172.704569 -75.810208 
L 172.215795 -76.142182 
L 171.727021 -76.475904 
L 171.238247 -76.81147 
L 170.749474 -77.14884 
L 170.2607 -77.487824 
L 169.771926 -77.828066 
L 169.283152 -78.169036 
L 168.794378 -78.510023 
L 168.305605 -78.850133 
L 167.816831 -79.188288 
L 167.328057 -79.523235 
L 166.839283 -79.853552 
L 166.350509 -80.177666 
L 165.861736 -80.493869 
L 165.372962 -80.800345 
L 164.884188 -81.095195 
L 164.395414 -81.376472 
L 163.90664 -81.642215 
L 163.417867 -81.890491 
L 162.929093 -82.11943 
L 162.440319 -82.327271 
L 161.951545 -82.512402 
L 161.462771 -82.673401 
L 160.973998 -82.809068 
L 160.485224 -82.918464 
L 159.99645 -83.000933 
L 159.507676 -83.056124 
L 159.018902 -83.084005 
L 158.530129 -83.084868 
L 158.041355 -83.059321 
L 157.552581 -83.00828 
L 157.063807 -82.932946 
L 156.575033 -82.834774 
L 156.08626 -82.71544 
L 155.597486 -82.576794 
L 155.108712 -82.420814 
L 154.619938 -82.249559 
L 154.131164 -82.065108 
L 153.642391 -81.869516 
L 153.153617 -81.664759 
L 152.664843 -81.452687 
L 152.176069 -81.234985 
L 151.687295 -81.013132 
L 151.198522 -80.788379 
L 150.709748 -80.561725 
L 150.220974 -80.333907 
L 149.7322 -80.105398 
L 149.243426 -79.876415 
L 148.754653 -79.646933 
L 148.265879 -79.416713 
L 147.777105 -79.185324 
L 147.288331 -78.952189 
L 146.799557 -78.716618 
L 146.310784 -78.477852 
L 145.82201 -78.235111 
L 145.333236 -77.987633 
L 144.844462 -77.734716 
L 144.355688 -77.475758 
L 143.866915 -77.210286 
L 143.378141 -76.937985 
L 142.889367 -76.658718 
L 142.400593 -76.372538 
L 141.911819 -76.07969 
L 141.423046 -75.780614 
L 140.934272 -75.475932 
L 140.445498 -75.166434 
L 139.956724 -74.853053 
L 139.46795 -74.536846 
L 138.979177 -74.218959 
L 138.490403 -73.900599 
L 138.001629 -73.583005 
L 137.512855 -73.267413 
L 137.024081 -72.95503 
L 136.535308 -72.647009 
L 136.046534 -72.344422 
L 135.55776 -72.048248 
L 135.068986 -71.759352 
L 134.580212 -71.478479 
L 134.091439 -71.206247 
L 133.602665 -70.943146 
L 133.113891 -70.689538 
L 132.625117 -70.445663 
L 132.136343 -70.211645 
L 131.64757 -69.9875 
L 131.158796 -69.77315 
L 130.670022 -69.568424 
L 130.181248 -69.37308 
L 129.692474 -69.186805 
L 129.203701 -69.009233 
L 128.714927 -68.839947 
L 128.226153 -68.678494 
L 127.737379 -68.524391 
L 127.248605 -68.377134 
L 126.759832 -68.236203 
L 126.271058 -68.101077 
L 125.782284 -67.971235 
L 125.29351 -67.846167 
L 124.804736 -67.725385 
L 124.315963 -67.608428 
L 123.827189 -67.494871 
L 123.338415 -67.384335 
L 122.849641 -67.276491 
L 122.360867 -67.171069 
L 121.872094 -67.067862 
L 121.38332 -66.966726 
L 120.894546 -66.867588 
L 120.405772 -66.770438 
L 119.916998 -66.675329 
L 119.428225 -66.582372 
L 118.939451 -66.491725 
L 118.450677 -66.403588 
L 117.961903 -66.318186 
L 117.473129 -66.235762 
L 116.984356 -66.156558 
L 116.495582 -66.080805 
L 116.006808 -66.00871 
L 115.518034 -65.940437 
L 115.02926 -65.876104 
L 114.540487 -65.815767 
L 114.051713 -65.759417 
L 113.562939 -65.70697 
L 113.074165 -65.658269 
L 112.585391 -65.613083 
L 112.096618 -65.571108 
L 111.607844 -65.531975 
L 111.11907 -65.495257 
L 110.630296 -65.460477 
L 110.141522 -65.427121 
L 109.652749 -65.394651 
L 109.163975 -65.362519 
L 108.675201 -65.330176 
L 108.186427 -65.297092 
L 107.697653 -65.262762 
L 107.20888 -65.226727 
L 106.720106 -65.188574 
L 106.231332 -65.147953 
L 105.742558 -65.104581 
L 105.253784 -65.058249 
L 104.765011 -65.008824 
L 104.276237 -64.956249 
L 103.787463 -64.900546 
L 103.298689 -64.841811 
L 102.809915 -64.78021 
L 102.321142 -64.715975 
L 101.832368 -64.649392 
L 101.343594 -64.580801 
L 100.85482 -64.510578 
L 100.366046 -64.439133 
L 99.877272 -64.366896 
L 99.388499 -64.294309 
L 98.899725 -64.221819 
L 98.410951 -64.149862 
L 97.922177 -64.078863 
L 97.433403 -64.009224 
L 96.94463 -63.94132 
L 96.455856 -63.875489 
L 95.967082 -63.812035 
L 95.478308 -63.751218 
L 94.989534 -63.693256 
L 94.500761 -63.638324 
L 94.011987 -63.58655 
L 93.523213 -63.538022 
z
" style="stroke: #355f8d; stroke-width: 1.25"/>
    </defs>
    <g>
     <use xlink:href="#m0cd74ba2a2" x="0" y="174.26" style="fill: #355f8d; fill-opacity: 0.7; stroke: #355f8d; stroke-width: 1.25"/>
    </g>
   </g>
   <g id="line2d_7">
    <path d="M 7.2 111.15 
L 216.45 111.15 
" style="fill: none; stroke: #355f8d; stroke-opacity: 0.9; stroke-linecap: round"/>
   </g>
   <g id="text_7">
    <!-- 6 -->
    <g style="fill: #355f8d" transform="translate(7.2 110.232) scale(0.12 -0.12)">
     <defs>
      <path id="IBMPlexSans-Bold-36" d="M 1946 -77 
Q 1549 -77 1235 48 
Q 922 173 707 406 
Q 493 640 381 966 
Q 269 1293 269 1696 
Q 269 2163 413 2582 
Q 557 3002 784 3357 
Q 1011 3712 1296 3993 
Q 1581 4275 1869 4467 
L 3194 4467 
Q 2784 4173 2457 3907 
Q 2131 3642 1891 3373 
Q 1651 3104 1494 2825 
Q 1338 2547 1274 2227 
L 1331 2208 
Q 1389 2336 1469 2457 
Q 1549 2579 1667 2672 
Q 1786 2765 1946 2822 
Q 2106 2880 2317 2880 
Q 2592 2880 2832 2781 
Q 3072 2682 3248 2502 
Q 3424 2323 3523 2064 
Q 3622 1805 3622 1491 
Q 3622 1146 3504 858 
Q 3386 570 3165 362 
Q 2944 154 2637 38 
Q 2330 -77 1946 -77 
z
M 1946 672 
Q 2266 672 2445 848 
Q 2624 1024 2624 1350 
L 2624 1466 
Q 2624 1792 2445 1968 
Q 2266 2144 1946 2144 
Q 1626 2144 1446 1968 
Q 1267 1792 1267 1466 
L 1267 1350 
Q 1267 1024 1446 848 
Q 1626 672 1946 672 
z
" transform="scale(0.015625)"/>
     </defs>
     <use xlink:href="#IBMPlexSans-Bold-36"/>
    </g>
   </g>
  </g>
  <g id="axes_8">
   <g id="patch_9">
    <path d="M 7.2 121.545 
L 216.45 121.545 
L 216.45 79.965 
L 7.2 79.965 
L 7.2 121.545 
z
" style="fill: none"/>
   </g>
   <g id="matplotlib.axis_15">
    <g id="xtick_29"/>
    <g id="xtick_30"/>
    <g id="xtick_31"/>
    <g id="xtick_32"/>
   </g>
   <g id="matplotlib.axis_16"/>
   <g id="FillBetweenPolyCollection_3">
    <defs>
     <path id="m37a07f219c" d="M 54.827503 -53.032938 
L 54.827503 -52.715 
L 55.551308 -52.715 
L 56.275112 -52.715 
L 56.998916 -52.715 
L 57.72272 -52.715 
L 58.446524 -52.715 
L 59.170328 -52.715 
L 59.894133 -52.715 
L 60.617937 -52.715 
L 61.341741 -52.715 
L 62.065545 -52.715 
L 62.789349 -52.715 
L 63.513153 -52.715 
L 64.236958 -52.715 
L 64.960762 -52.715 
L 65.684566 -52.715 
L 66.40837 -52.715 
L 67.132174 -52.715 
L 67.855978 -52.715 
L 68.579783 -52.715 
L 69.303587 -52.715 
L 70.027391 -52.715 
L 70.751195 -52.715 
L 71.474999 -52.715 
L 72.198803 -52.715 
L 72.922608 -52.715 
L 73.646412 -52.715 
L 74.370216 -52.715 
L 75.09402 -52.715 
L 75.817824 -52.715 
L 76.541628 -52.715 
L 77.265433 -52.715 
L 77.989237 -52.715 
L 78.713041 -52.715 
L 79.436845 -52.715 
L 80.160649 -52.715 
L 80.884453 -52.715 
L 81.608258 -52.715 
L 82.332062 -52.715 
L 83.055866 -52.715 
L 83.77967 -52.715 
L 84.503474 -52.715 
L 85.227278 -52.715 
L 85.951082 -52.715 
L 86.674887 -52.715 
L 87.398691 -52.715 
L 88.122495 -52.715 
L 88.846299 -52.715 
L 89.570103 -52.715 
L 90.293907 -52.715 
L 91.017712 -52.715 
L 91.741516 -52.715 
L 92.46532 -52.715 
L 93.189124 -52.715 
L 93.912928 -52.715 
L 94.636732 -52.715 
L 95.360537 -52.715 
L 96.084341 -52.715 
L 96.808145 -52.715 
L 97.531949 -52.715 
L 98.255753 -52.715 
L 98.979557 -52.715 
L 99.703362 -52.715 
L 100.427166 -52.715 
L 101.15097 -52.715 
L 101.874774 -52.715 
L 102.598578 -52.715 
L 103.322382 -52.715 
L 104.046187 -52.715 
L 104.769991 -52.715 
L 105.493795 -52.715 
L 106.217599 -52.715 
L 106.941403 -52.715 
L 107.665207 -52.715 
L 108.389012 -52.715 
L 109.112816 -52.715 
L 109.83662 -52.715 
L 110.560424 -52.715 
L 111.284228 -52.715 
L 112.008032 -52.715 
L 112.731837 -52.715 
L 113.455641 -52.715 
L 114.179445 -52.715 
L 114.903249 -52.715 
L 115.627053 -52.715 
L 116.350857 -52.715 
L 117.074661 -52.715 
L 117.798466 -52.715 
L 118.52227 -52.715 
L 119.246074 -52.715 
L 119.969878 -52.715 
L 120.693682 -52.715 
L 121.417486 -52.715 
L 122.141291 -52.715 
L 122.865095 -52.715 
L 123.588899 -52.715 
L 124.312703 -52.715 
L 125.036507 -52.715 
L 125.760311 -52.715 
L 126.484116 -52.715 
L 127.20792 -52.715 
L 127.931724 -52.715 
L 128.655528 -52.715 
L 129.379332 -52.715 
L 130.103136 -52.715 
L 130.826941 -52.715 
L 131.550745 -52.715 
L 132.274549 -52.715 
L 132.998353 -52.715 
L 133.722157 -52.715 
L 134.445961 -52.715 
L 135.169766 -52.715 
L 135.89357 -52.715 
L 136.617374 -52.715 
L 137.341178 -52.715 
L 138.064982 -52.715 
L 138.788786 -52.715 
L 139.512591 -52.715 
L 140.236395 -52.715 
L 140.960199 -52.715 
L 141.684003 -52.715 
L 142.407807 -52.715 
L 143.131611 -52.715 
L 143.855416 -52.715 
L 144.57922 -52.715 
L 145.303024 -52.715 
L 146.026828 -52.715 
L 146.750632 -52.715 
L 147.474436 -52.715 
L 148.198241 -52.715 
L 148.922045 -52.715 
L 149.645849 -52.715 
L 150.369653 -52.715 
L 151.093457 -52.715 
L 151.817261 -52.715 
L 152.541065 -52.715 
L 153.26487 -52.715 
L 153.988674 -52.715 
L 154.712478 -52.715 
L 155.436282 -52.715 
L 156.160086 -52.715 
L 156.88389 -52.715 
L 157.607695 -52.715 
L 158.331499 -52.715 
L 159.055303 -52.715 
L 159.779107 -52.715 
L 160.502911 -52.715 
L 161.226715 -52.715 
L 161.95052 -52.715 
L 162.674324 -52.715 
L 163.398128 -52.715 
L 164.121932 -52.715 
L 164.845736 -52.715 
L 165.56954 -52.715 
L 166.293345 -52.715 
L 167.017149 -52.715 
L 167.740953 -52.715 
L 168.464757 -52.715 
L 169.188561 -52.715 
L 169.912365 -52.715 
L 170.63617 -52.715 
L 171.359974 -52.715 
L 172.083778 -52.715 
L 172.807582 -52.715 
L 173.531386 -52.715 
L 174.25519 -52.715 
L 174.978995 -52.715 
L 175.702799 -52.715 
L 176.426603 -52.715 
L 177.150407 -52.715 
L 177.874211 -52.715 
L 178.598015 -52.715 
L 179.32182 -52.715 
L 180.045624 -52.715 
L 180.769428 -52.715 
L 181.493232 -52.715 
L 182.217036 -52.715 
L 182.94084 -52.715 
L 183.664644 -52.715 
L 184.388449 -52.715 
L 185.112253 -52.715 
L 185.836057 -52.715 
L 186.559861 -52.715 
L 187.283665 -52.715 
L 188.007469 -52.715 
L 188.731274 -52.715 
L 189.455078 -52.715 
L 190.178882 -52.715 
L 190.902686 -52.715 
L 191.62649 -52.715 
L 192.350294 -52.715 
L 193.074099 -52.715 
L 193.797903 -52.715 
L 194.521707 -52.715 
L 195.245511 -52.715 
L 195.969315 -52.715 
L 196.693119 -52.715 
L 197.416924 -52.715 
L 198.140728 -52.715 
L 198.864532 -52.715 
L 198.864532 -53.618377 
L 198.864532 -53.618377 
L 198.140728 -53.730393 
L 197.416924 -53.851576 
L 196.693119 -53.982034 
L 195.969315 -54.121799 
L 195.245511 -54.270818 
L 194.521707 -54.428955 
L 193.797903 -54.595985 
L 193.074099 -54.771599 
L 192.350294 -54.955405 
L 191.62649 -55.146935 
L 190.902686 -55.345649 
L 190.178882 -55.550948 
L 189.455078 -55.76218 
L 188.731274 -55.978653 
L 188.007469 -56.19965 
L 187.283665 -56.424443 
L 186.559861 -56.6523 
L 185.836057 -56.88251 
L 185.112253 -57.114388 
L 184.388449 -57.347291 
L 183.664644 -57.580631 
L 182.94084 -57.813882 
L 182.217036 -58.046591 
L 181.493232 -58.278386 
L 180.769428 -58.508974 
L 180.045624 -58.738149 
L 179.32182 -58.96579 
L 178.598015 -59.191854 
L 177.874211 -59.416378 
L 177.150407 -59.639467 
L 176.426603 -59.861283 
L 175.702799 -60.082042 
L 174.978995 -60.301993 
L 174.25519 -60.52141 
L 173.531386 -60.740578 
L 172.807582 -60.959774 
L 172.083778 -61.179257 
L 171.359974 -61.399252 
L 170.63617 -61.619934 
L 169.912365 -61.841415 
L 169.188561 -62.063733 
L 168.464757 -62.286839 
L 167.740953 -62.510588 
L 167.017149 -62.734727 
L 166.293345 -62.958896 
L 165.56954 -63.182617 
L 164.845736 -63.405295 
L 164.121932 -63.626221 
L 163.398128 -63.844573 
L 162.674324 -64.059425 
L 161.95052 -64.269758 
L 161.226715 -64.474471 
L 160.502911 -64.672399 
L 159.779107 -64.862333 
L 159.055303 -65.04304 
L 158.331499 -65.213284 
L 157.607695 -65.371859 
L 156.88389 -65.517606 
L 156.160086 -65.649444 
L 155.436282 -65.766394 
L 154.712478 -65.867602 
L 153.988674 -65.95236 
L 153.26487 -66.020127 
L 152.541065 -66.070539 
L 151.817261 -66.10342 
L 151.093457 -66.118793 
L 150.369653 -66.116871 
L 149.645849 -66.098059 
L 148.922045 -66.062943 
L 148.198241 -66.012272 
L 147.474436 -65.946943 
L 146.750632 -65.867977 
L 146.026828 -65.776493 
L 145.303024 -65.673677 
L 144.57922 -65.560761 
L 143.855416 -65.438985 
L 143.131611 -65.309571 
L 142.407807 -65.173696 
L 141.684003 -65.032468 
L 140.960199 -64.886897 
L 140.236395 -64.737884 
L 139.512591 -64.586201 
L 138.788786 -64.432483 
L 138.064982 -64.277219 
L 137.341178 -64.120756 
L 136.617374 -63.963298 
L 135.89357 -63.804917 
L 135.169766 -63.645563 
L 134.445961 -63.485083 
L 133.722157 -63.323233 
L 132.998353 -63.159707 
L 132.274549 -62.994153 
L 131.550745 -62.8262 
L 130.826941 -62.655478 
L 130.103136 -62.481644 
L 129.379332 -62.304398 
L 128.655528 -62.123505 
L 127.931724 -61.938809 
L 127.20792 -61.750244 
L 126.484116 -61.557846 
L 125.760311 -61.361754 
L 125.036507 -61.162211 
L 124.312703 -60.959565 
L 123.588899 -60.754257 
L 122.865095 -60.546817 
L 122.141291 -60.337847 
L 121.417486 -60.128009 
L 120.693682 -59.918009 
L 119.969878 -59.708582 
L 119.246074 -59.50047 
L 118.52227 -59.294412 
L 117.798466 -59.091124 
L 117.074661 -58.891286 
L 116.350857 -58.695532 
L 115.627053 -58.504433 
L 114.903249 -58.318497 
L 114.179445 -58.138154 
L 113.455641 -57.963761 
L 112.731837 -57.795591 
L 112.008032 -57.633838 
L 111.284228 -57.478619 
L 110.560424 -57.329973 
L 109.83662 -57.187869 
L 109.112816 -57.052207 
L 108.389012 -56.922829 
L 107.665207 -56.799519 
L 106.941403 -56.682016 
L 106.217599 -56.570019 
L 105.493795 -56.463193 
L 104.769991 -56.361178 
L 104.046187 -56.263599 
L 103.322382 -56.170071 
L 102.598578 -56.080206 
L 101.874774 -55.993626 
L 101.15097 -55.909965 
L 100.427166 -55.82888 
L 99.703362 -55.750057 
L 98.979557 -55.673215 
L 98.255753 -55.598113 
L 97.531949 -55.524555 
L 96.808145 -55.452391 
L 96.084341 -55.38152 
L 95.360537 -55.311889 
L 94.636732 -55.243492 
L 93.912928 -55.176368 
L 93.189124 -55.110595 
L 92.46532 -55.046287 
L 91.741516 -54.983583 
L 91.017712 -54.922643 
L 90.293907 -54.863638 
L 89.570103 -54.806742 
L 88.846299 -54.75212 
L 88.122495 -54.699925 
L 87.398691 -54.650283 
L 86.674887 -54.603293 
L 85.951082 -54.559015 
L 85.227278 -54.517469 
L 84.503474 -54.47863 
L 83.77967 -54.442427 
L 83.055866 -54.40874 
L 82.332062 -54.377408 
L 81.608258 -54.348223 
L 80.884453 -54.320941 
L 80.160649 -54.295285 
L 79.436845 -54.270948 
L 78.713041 -54.247606 
L 77.989237 -54.22492 
L 77.265433 -54.202546 
L 76.541628 -54.180145 
L 75.817824 -54.157384 
L 75.09402 -54.13395 
L 74.370216 -54.109553 
L 73.646412 -54.083933 
L 72.922608 -54.056865 
L 72.198803 -54.028164 
L 71.474999 -53.997685 
L 70.751195 -53.965331 
L 70.027391 -53.931048 
L 69.303587 -53.894831 
L 68.579783 -53.856719 
L 67.855978 -53.816793 
L 67.132174 -53.775179 
L 66.40837 -53.732035 
L 65.684566 -53.687558 
L 64.960762 -53.641968 
L 64.236958 -53.595513 
L 63.513153 -53.548455 
L 62.789349 -53.50107 
L 62.065545 -53.453641 
L 61.341741 -53.406448 
L 60.617937 -53.359771 
L 59.894133 -53.313874 
L 59.170328 -53.269012 
L 58.446524 -53.225418 
L 57.72272 -53.183303 
L 56.998916 -53.142852 
L 56.275112 -53.104226 
L 55.551308 -53.067554 
L 54.827503 -53.032938 
z
" style="stroke: #414487; stroke-width: 1.25"/>
    </defs>
    <g>
     <use xlink:href="#m37a07f219c" x="0" y="174.26" style="fill: #414487; fill-opacity: 0.7; stroke: #414487; stroke-width: 1.25"/>
    </g>
   </g>
   <g id="line2d_8">
    <path d="M 7.2 121.545 
L 216.45 121.545 
" style="fill: none; stroke: #414487; stroke-opacity: 0.9; stroke-linecap: round"/>
   </g>
   <g id="text_8">
    <!-- 7 -->
    <g style="fill: #414487" transform="translate(7.2 120.627) scale(0.12 -0.12)">
     <defs>
      <path id="IBMPlexSans-Bold-37" d="M 1062 0 
L 2560 3686 
L 1165 3686 
L 1165 2874 
L 352 2874 
L 352 4467 
L 3514 4467 
L 3514 3635 
L 2074 0 
L 1062 0 
z
" transform="scale(0.015625)"/>
     </defs>
     <use xlink:href="#IBMPlexSans-Bold-37"/>
    </g>
   </g>
  </g>
  <g id="axes_9">
   <g id="patch_10">
    <path d="M 7.2 131.94 
L 216.45 131.94 
L 216.45 90.36 
L 7.2 90.36 
L 7.2 131.94 
z
" style="fill: none"/>
   </g>
   <g id="matplotlib.axis_17">
    <g id="xtick_33">
     <g id="text_9">
      <!-- −6 -->
      <g style="fill: #838383" transform="translate(35.155887 149.58) scale(0.11 -0.11)">
       <defs>
        <path id="IBMPlexSans-Regular-2212" d="M 429 1734 
L 429 2170 
L 3411 2170 
L 3411 1734 
L 429 1734 
z
" transform="scale(0.015625)"/>
        <path id="IBMPlexSans-Regular-36" d="M 1926 -77 
Q 1581 -77 1302 41 
Q 1024 160 829 381 
Q 634 602 531 922 
Q 429 1242 429 1638 
Q 429 2138 576 2576 
Q 723 3014 956 3376 
Q 1190 3738 1472 4016 
Q 1754 4294 2022 4467 
L 2714 4467 
Q 2355 4205 2073 3955 
Q 1792 3706 1581 3434 
Q 1370 3162 1222 2851 
Q 1075 2541 986 2150 
L 1018 2138 
Q 1178 2413 1430 2595 
Q 1683 2778 2093 2778 
Q 2381 2778 2624 2682 
Q 2867 2586 3040 2406 
Q 3213 2227 3312 1971 
Q 3411 1715 3411 1402 
Q 3411 1075 3305 803 
Q 3200 531 3005 336 
Q 2810 141 2534 32 
Q 2259 -77 1926 -77 
z
M 1920 390 
Q 2362 390 2608 633 
Q 2854 877 2854 1331 
L 2854 1382 
Q 2854 1837 2608 2080 
Q 2362 2323 1920 2323 
Q 1478 2323 1232 2080 
Q 986 1837 986 1382 
L 986 1331 
Q 986 877 1232 633 
Q 1478 390 1920 390 
z
" transform="scale(0.015625)"/>
       </defs>
       <use xlink:href="#IBMPlexSans-Regular-2212"/>
       <use xlink:href="#IBMPlexSans-Regular-36" transform="translate(59.999985 0)"/>
      </g>
     </g>
    </g>
    <g id="xtick_34">
     <g id="text_10">
      <!-- −4 -->
      <g style="fill: #838383" transform="translate(79.373479 149.58) scale(0.11 -0.11)">
       <defs>
        <path id="IBMPlexSans-Regular-34" d="M 2400 0 
L 2400 877 
L 243 877 
L 243 1350 
L 2112 4467 
L 2912 4467 
L 2912 1325 
L 3558 1325 
L 3558 877 
L 2912 877 
L 2912 0 
L 2400 0 
z
M 749 1325 
L 2400 1325 
L 2400 4051 
L 2368 4051 
L 749 1325 
z
" transform="scale(0.015625)"/>
       </defs>
       <use xlink:href="#IBMPlexSans-Regular-2212"/>
       <use xlink:href="#IBMPlexSans-Regular-34" transform="translate(59.999985 0)"/>
      </g>
     </g>
    </g>
    <g id="xtick_35">
     <g id="text_11">
      <!-- −2 -->
      <g style="fill: #838383" transform="translate(123.591071 149.58) scale(0.11 -0.11)">
       <defs>
        <path id="IBMPlexSans-Regular-32" d="M 3411 0 
L 480 0 
L 480 550 
L 1939 1894 
Q 2253 2182 2464 2505 
Q 2675 2829 2675 3155 
L 2675 3232 
Q 2675 3603 2470 3833 
Q 2266 4064 1850 4064 
Q 1645 4064 1491 4006 
Q 1338 3949 1226 3846 
Q 1114 3744 1040 3606 
Q 966 3469 922 3309 
L 442 3494 
Q 506 3693 618 3881 
Q 730 4070 899 4217 
Q 1069 4365 1309 4454 
Q 1549 4544 1875 4544 
Q 2202 4544 2458 4448 
Q 2714 4352 2886 4179 
Q 3059 4006 3152 3769 
Q 3245 3533 3245 3245 
Q 3245 2982 3171 2758 
Q 3098 2534 2970 2332 
Q 2842 2131 2659 1939 
Q 2477 1747 2266 1555 
L 1062 474 
L 3411 474 
L 3411 0 
z
" transform="scale(0.015625)"/>
       </defs>
       <use xlink:href="#IBMPlexSans-Regular-2212"/>
       <use xlink:href="#IBMPlexSans-Regular-32" transform="translate(59.999985 0)"/>
      </g>
     </g>
    </g>
    <g id="xtick_36">
     <g id="text_12">
      <!-- 0 -->
      <g style="fill: #838383" transform="translate(171.108663 149.58) scale(0.11 -0.11)">
       <defs>
        <path id="IBMPlexSans-Regular-30" d="M 1920 -77 
Q 1120 -77 752 531 
Q 384 1139 384 2234 
Q 384 3328 752 3936 
Q 1120 4544 1920 4544 
Q 2720 4544 3088 3936 
Q 3456 3328 3456 2234 
Q 3456 1139 3088 531 
Q 2720 -77 1920 -77 
z
M 1920 390 
Q 2182 390 2368 499 
Q 2554 608 2669 806 
Q 2784 1005 2838 1273 
Q 2893 1542 2893 1869 
L 2893 2598 
Q 2893 2925 2838 3193 
Q 2784 3462 2669 3660 
Q 2554 3859 2368 3968 
Q 2182 4077 1920 4077 
Q 1658 4077 1472 3968 
Q 1286 3859 1171 3660 
Q 1056 3462 1001 3193 
Q 947 2925 947 2598 
L 947 1869 
Q 947 1542 1001 1273 
Q 1056 1005 1171 806 
Q 1286 608 1472 499 
Q 1658 390 1920 390 
z
" transform="scale(0.015625)"/>
       </defs>
       <use xlink:href="#IBMPlexSans-Regular-30"/>
      </g>
     </g>
    </g>
    <g id="text_13">
     <!-- sldb -->
     <g style="fill: #262626" transform="translate(100.310625 164.66) scale(0.12 -0.12)">
      <defs>
       <path id="IBMPlexSans-Regular-73" d="M 1536 -77 
Q 1075 -77 764 99 
Q 454 275 230 570 
L 595 864 
Q 787 621 1024 489 
Q 1261 358 1574 358 
Q 1901 358 2083 499 
Q 2266 640 2266 896 
Q 2266 1088 2141 1225 
Q 2016 1363 1690 1414 
L 1427 1453 
Q 1197 1485 1005 1552 
Q 813 1619 669 1731 
Q 525 1843 445 2009 
Q 365 2176 365 2406 
Q 365 2650 454 2832 
Q 544 3014 701 3136 
Q 858 3258 1075 3318 
Q 1293 3379 1542 3379 
Q 1946 3379 2218 3238 
Q 2490 3098 2694 2848 
L 2355 2541 
Q 2246 2694 2035 2819 
Q 1824 2944 1504 2944 
Q 1184 2944 1021 2806 
Q 858 2669 858 2432 
Q 858 2189 1021 2080 
Q 1184 1971 1491 1920 
L 1747 1882 
Q 2298 1798 2528 1564 
Q 2758 1331 2758 954 
Q 2758 474 2432 198 
Q 2106 -77 1536 -77 
z
" transform="scale(0.015625)"/>
       <path id="IBMPlexSans-Regular-6c" d="M 1088 0 
Q 819 0 681 150 
Q 544 301 544 531 
L 544 4736 
L 1056 4736 
L 1056 448 
L 1542 448 
L 1542 0 
L 1088 0 
z
" transform="scale(0.015625)"/>
       <path id="IBMPlexSans-Regular-64" d="M 2656 538 
L 2630 538 
Q 2330 -77 1664 -77 
Q 1357 -77 1107 44 
Q 858 166 682 390 
Q 506 614 413 934 
Q 320 1254 320 1651 
Q 320 2048 413 2368 
Q 506 2688 682 2912 
Q 858 3136 1107 3257 
Q 1357 3379 1664 3379 
Q 2010 3379 2256 3228 
Q 2502 3078 2630 2765 
L 2656 2765 
L 2656 4736 
L 3168 4736 
L 3168 0 
L 2656 0 
L 2656 538 
z
M 1805 384 
Q 1978 384 2134 429 
Q 2291 474 2406 560 
Q 2522 646 2589 771 
Q 2656 896 2656 1056 
L 2656 2285 
Q 2656 2419 2589 2537 
Q 2522 2656 2406 2739 
Q 2291 2822 2134 2870 
Q 1978 2918 1805 2918 
Q 1370 2918 1120 2646 
Q 870 2374 870 1933 
L 870 1370 
Q 870 928 1120 656 
Q 1370 384 1805 384 
z
" transform="scale(0.015625)"/>
       <path id="IBMPlexSans-Regular-62" d="M 544 4736 
L 1056 4736 
L 1056 2765 
L 1082 2765 
Q 1210 3078 1456 3228 
Q 1702 3379 2048 3379 
Q 2355 3379 2604 3257 
Q 2854 3136 3030 2912 
Q 3206 2688 3299 2368 
Q 3392 2048 3392 1651 
Q 3392 1254 3299 934 
Q 3206 614 3030 390 
Q 2854 166 2604 44 
Q 2355 -77 2048 -77 
Q 1376 -77 1082 538 
L 1056 538 
L 1056 0 
L 544 0 
L 544 4736 
z
M 1907 384 
Q 2342 384 2592 656 
Q 2842 928 2842 1370 
L 2842 1933 
Q 2842 2374 2592 2646 
Q 2342 2918 1907 2918 
Q 1734 2918 1577 2870 
Q 1421 2822 1305 2739 
Q 1190 2656 1123 2537 
Q 1056 2419 1056 2285 
L 1056 1056 
Q 1056 896 1123 771 
Q 1190 646 1305 560 
Q 1421 474 1577 429 
Q 1734 384 1907 384 
z
" transform="scale(0.015625)"/>
      </defs>
      <use xlink:href="#IBMPlexSans-Regular-73"/>
      <use xlink:href="#IBMPlexSans-Regular-6c" transform="translate(48.699997 0)"/>
      <use xlink:href="#IBMPlexSans-Regular-64" transform="translate(75.899994 0)"/>
      <use xlink:href="#IBMPlexSans-Regular-62" transform="translate(133.899979 0)"/>
     </g>
    </g>
   </g>
   <g id="matplotlib.axis_18"/>
   <g id="FillBetweenPolyCollection_4">
    <defs>
     <path id="m1e0f100420" d="M 16.711364 -42.566578 
L 16.711364 -42.32 
L 17.66728 -42.32 
L 18.623196 -42.32 
L 19.579111 -42.32 
L 20.535027 -42.32 
L 21.490943 -42.32 
L 22.446859 -42.32 
L 23.402775 -42.32 
L 24.358691 -42.32 
L 25.314607 -42.32 
L 26.270523 -42.32 
L 27.226439 -42.32 
L 28.182355 -42.32 
L 29.138271 -42.32 
L 30.094187 -42.32 
L 31.050103 -42.32 
L 32.006019 -42.32 
L 32.961935 -42.32 
L 33.917851 -42.32 
L 34.873767 -42.32 
L 35.829683 -42.32 
L 36.785598 -42.32 
L 37.741514 -42.32 
L 38.69743 -42.32 
L 39.653346 -42.32 
L 40.609262 -42.32 
L 41.565178 -42.32 
L 42.521094 -42.32 
L 43.47701 -42.32 
L 44.432926 -42.32 
L 45.388842 -42.32 
L 46.344758 -42.32 
L 47.300674 -42.32 
L 48.25659 -42.32 
L 49.212506 -42.32 
L 50.168422 -42.32 
L 51.124338 -42.32 
L 52.080254 -42.32 
L 53.036169 -42.32 
L 53.992085 -42.32 
L 54.948001 -42.32 
L 55.903917 -42.32 
L 56.859833 -42.32 
L 57.815749 -42.32 
L 58.771665 -42.32 
L 59.727581 -42.32 
L 60.683497 -42.32 
L 61.639413 -42.32 
L 62.595329 -42.32 
L 63.551245 -42.32 
L 64.507161 -42.32 
L 65.463077 -42.32 
L 66.418993 -42.32 
L 67.374909 -42.32 
L 68.330825 -42.32 
L 69.286741 -42.32 
L 70.242656 -42.32 
L 71.198572 -42.32 
L 72.154488 -42.32 
L 73.110404 -42.32 
L 74.06632 -42.32 
L 75.022236 -42.32 
L 75.978152 -42.32 
L 76.934068 -42.32 
L 77.889984 -42.32 
L 78.8459 -42.32 
L 79.801816 -42.32 
L 80.757732 -42.32 
L 81.713648 -42.32 
L 82.669564 -42.32 
L 83.62548 -42.32 
L 84.581396 -42.32 
L 85.537312 -42.32 
L 86.493228 -42.32 
L 87.449143 -42.32 
L 88.405059 -42.32 
L 89.360975 -42.32 
L 90.316891 -42.32 
L 91.272807 -42.32 
L 92.228723 -42.32 
L 93.184639 -42.32 
L 94.140555 -42.32 
L 95.096471 -42.32 
L 96.052387 -42.32 
L 97.008303 -42.32 
L 97.964219 -42.32 
L 98.920135 -42.32 
L 99.876051 -42.32 
L 100.831967 -42.32 
L 101.787883 -42.32 
L 102.743799 -42.32 
L 103.699714 -42.32 
L 104.65563 -42.32 
L 105.611546 -42.32 
L 106.567462 -42.32 
L 107.523378 -42.32 
L 108.479294 -42.32 
L 109.43521 -42.32 
L 110.391126 -42.32 
L 111.347042 -42.32 
L 112.302958 -42.32 
L 113.258874 -42.32 
L 114.21479 -42.32 
L 115.170706 -42.32 
L 116.126622 -42.32 
L 117.082538 -42.32 
L 118.038454 -42.32 
L 118.99437 -42.32 
L 119.950286 -42.32 
L 120.906201 -42.32 
L 121.862117 -42.32 
L 122.818033 -42.32 
L 123.773949 -42.32 
L 124.729865 -42.32 
L 125.685781 -42.32 
L 126.641697 -42.32 
L 127.597613 -42.32 
L 128.553529 -42.32 
L 129.509445 -42.32 
L 130.465361 -42.32 
L 131.421277 -42.32 
L 132.377193 -42.32 
L 133.333109 -42.32 
L 134.289025 -42.32 
L 135.244941 -42.32 
L 136.200857 -42.32 
L 137.156772 -42.32 
L 138.112688 -42.32 
L 139.068604 -42.32 
L 140.02452 -42.32 
L 140.980436 -42.32 
L 141.936352 -42.32 
L 142.892268 -42.32 
L 143.848184 -42.32 
L 144.8041 -42.32 
L 145.760016 -42.32 
L 146.715932 -42.32 
L 147.671848 -42.32 
L 148.627764 -42.32 
L 149.58368 -42.32 
L 150.539596 -42.32 
L 151.495512 -42.32 
L 152.451428 -42.32 
L 153.407344 -42.32 
L 154.363259 -42.32 
L 155.319175 -42.32 
L 156.275091 -42.32 
L 157.231007 -42.32 
L 158.186923 -42.32 
L 159.142839 -42.32 
L 160.098755 -42.32 
L 161.054671 -42.32 
L 162.010587 -42.32 
L 162.966503 -42.32 
L 163.922419 -42.32 
L 164.878335 -42.32 
L 165.834251 -42.32 
L 166.790167 -42.32 
L 167.746083 -42.32 
L 168.701999 -42.32 
L 169.657915 -42.32 
L 170.613831 -42.32 
L 171.569746 -42.32 
L 172.525662 -42.32 
L 173.481578 -42.32 
L 174.437494 -42.32 
L 175.39341 -42.32 
L 176.349326 -42.32 
L 177.305242 -42.32 
L 178.261158 -42.32 
L 179.217074 -42.32 
L 180.17299 -42.32 
L 181.128906 -42.32 
L 182.084822 -42.32 
L 183.040738 -42.32 
L 183.996654 -42.32 
L 184.95257 -42.32 
L 185.908486 -42.32 
L 186.864402 -42.32 
L 187.820317 -42.32 
L 188.776233 -42.32 
L 189.732149 -42.32 
L 190.688065 -42.32 
L 191.643981 -42.32 
L 192.599897 -42.32 
L 193.555813 -42.32 
L 194.511729 -42.32 
L 195.467645 -42.32 
L 196.423561 -42.32 
L 197.379477 -42.32 
L 198.335393 -42.32 
L 199.291309 -42.32 
L 200.247225 -42.32 
L 201.203141 -42.32 
L 202.159057 -42.32 
L 203.114973 -42.32 
L 204.070889 -42.32 
L 205.026804 -42.32 
L 205.98272 -42.32 
L 206.938636 -42.32 
L 206.938636 -42.978032 
L 206.938636 -42.978032 
L 205.98272 -43.060439 
L 205.026804 -43.149706 
L 204.070889 -43.245931 
L 203.114973 -43.349157 
L 202.159057 -43.459364 
L 201.203141 -43.576469 
L 200.247225 -43.700326 
L 199.291309 -43.830725 
L 198.335393 -43.967394 
L 197.379477 -44.110004 
L 196.423561 -44.258173 
L 195.467645 -44.411471 
L 194.511729 -44.569428 
L 193.555813 -44.731545 
L 192.599897 -44.897299 
L 191.643981 -45.066157 
L 190.688065 -45.237581 
L 189.732149 -45.411044 
L 188.776233 -45.586038 
L 187.820317 -45.762079 
L 186.864402 -45.938722 
L 185.908486 -46.115565 
L 184.95257 -46.292257 
L 183.996654 -46.468498 
L 183.040738 -46.64405 
L 182.084822 -46.818732 
L 181.128906 -46.992423 
L 180.17299 -47.165059 
L 179.217074 -47.33663 
L 178.261158 -47.507177 
L 177.305242 -47.676781 
L 176.349326 -47.845563 
L 175.39341 -48.013668 
L 174.437494 -48.181263 
L 173.481578 -48.348521 
L 172.525662 -48.515617 
L 171.569746 -48.682714 
L 170.613831 -48.849957 
L 169.657915 -49.017458 
L 168.701999 -49.18529 
L 167.746083 -49.35348 
L 166.790167 -49.521996 
L 165.834251 -49.690745 
L 164.878335 -49.859561 
L 163.922419 -50.028209 
L 162.966503 -50.19637 
L 162.010587 -50.363651 
L 161.054671 -50.529577 
L 160.098755 -50.693594 
L 159.142839 -50.855076 
L 158.186923 -51.013328 
L 157.231007 -51.167597 
L 156.275091 -51.317079 
L 155.319175 -51.460933 
L 154.363259 -51.598295 
L 153.407344 -51.728294 
L 152.451428 -51.850066 
L 151.495512 -51.962777 
L 150.539596 -52.065634 
L 149.58368 -52.157909 
L 148.627764 -52.23895 
L 147.671848 -52.3082 
L 146.715932 -52.36521 
L 145.760016 -52.409648 
L 144.8041 -52.441309 
L 143.848184 -52.46012 
L 142.892268 -52.466142 
L 141.936352 -52.45957 
L 140.980436 -52.440723 
L 140.02452 -52.410042 
L 139.068604 -52.368078 
L 138.112688 -52.315476 
L 137.156772 -52.252961 
L 136.200857 -52.18132 
L 135.244941 -52.101384 
L 134.289025 -52.01401 
L 133.333109 -51.92006 
L 132.377193 -51.820383 
L 131.421277 -51.715796 
L 130.465361 -51.607071 
L 129.509445 -51.494917 
L 128.553529 -51.379971 
L 127.597613 -51.262786 
L 126.641697 -51.143824 
L 125.685781 -51.023456 
L 124.729865 -50.901955 
L 123.773949 -50.779501 
L 122.818033 -50.656187 
L 121.862117 -50.53202 
L 120.906201 -50.406939 
L 119.950286 -50.280821 
L 118.99437 -50.153492 
L 118.038454 -50.024749 
L 117.082538 -49.894367 
L 116.126622 -49.762119 
L 115.170706 -49.627792 
L 114.21479 -49.491195 
L 113.258874 -49.352178 
L 112.302958 -49.210641 
L 111.347042 -49.066544 
L 110.391126 -48.919913 
L 109.43521 -48.770844 
L 108.479294 -48.619508 
L 107.523378 -48.466147 
L 106.567462 -48.31107 
L 105.611546 -48.154652 
L 104.65563 -47.997322 
L 103.699714 -47.839557 
L 102.743799 -47.681865 
L 101.787883 -47.524783 
L 100.831967 -47.368857 
L 99.876051 -47.214631 
L 98.920135 -47.062638 
L 97.964219 -46.913388 
L 97.008303 -46.767354 
L 96.052387 -46.624967 
L 95.096471 -46.486609 
L 94.140555 -46.352601 
L 93.184639 -46.223207 
L 92.228723 -46.098623 
L 91.272807 -45.978983 
L 90.316891 -45.864355 
L 89.360975 -45.754743 
L 88.405059 -45.650094 
L 87.449143 -45.550298 
L 86.493228 -45.455195 
L 85.537312 -45.364584 
L 84.581396 -45.278223 
L 83.62548 -45.195843 
L 82.669564 -45.117155 
L 81.713648 -45.041852 
L 80.757732 -44.969624 
L 79.801816 -44.900161 
L 78.8459 -44.833162 
L 77.889984 -44.768343 
L 76.934068 -44.70544 
L 75.978152 -44.644215 
L 75.022236 -44.584463 
L 74.06632 -44.526014 
L 73.110404 -44.468732 
L 72.154488 -44.412522 
L 71.198572 -44.357325 
L 70.242656 -44.303119 
L 69.286741 -44.249914 
L 68.330825 -44.197754 
L 67.374909 -44.146705 
L 66.418993 -44.096857 
L 65.463077 -44.048314 
L 64.507161 -44.001189 
L 63.551245 -43.955598 
L 62.595329 -43.911654 
L 61.639413 -43.86946 
L 60.683497 -43.829108 
L 59.727581 -43.790667 
L 58.771665 -43.754184 
L 57.815749 -43.719682 
L 56.859833 -43.687153 
L 55.903917 -43.656562 
L 54.948001 -43.627844 
L 53.992085 -43.600904 
L 53.036169 -43.575622 
L 52.080254 -43.551852 
L 51.124338 -43.529426 
L 50.168422 -43.508159 
L 49.212506 -43.48785 
L 48.25659 -43.46829 
L 47.300674 -43.44926 
L 46.344758 -43.430545 
L 45.388842 -43.411926 
L 44.432926 -43.393196 
L 43.47701 -43.374155 
L 42.521094 -43.354618 
L 41.565178 -43.334417 
L 40.609262 -43.313402 
L 39.653346 -43.291448 
L 38.69743 -43.268452 
L 37.741514 -43.244338 
L 36.785598 -43.219056 
L 35.829683 -43.192584 
L 34.873767 -43.164926 
L 33.917851 -43.136113 
L 32.961935 -43.106206 
L 32.006019 -43.075286 
L 31.050103 -43.043459 
L 30.094187 -43.010853 
L 29.138271 -42.977612 
L 28.182355 -42.943897 
L 27.226439 -42.909881 
L 26.270523 -42.875743 
L 25.314607 -42.841671 
L 24.358691 -42.80785 
L 23.402775 -42.774466 
L 22.446859 -42.741698 
L 21.490943 -42.709716 
L 20.535027 -42.678678 
L 19.579111 -42.648727 
L 18.623196 -42.619991 
L 17.66728 -42.592578 
L 16.711364 -42.566578 
z
" style="stroke: #482475; stroke-width: 1.25"/>
    </defs>
    <g>
     <use xlink:href="#m1e0f100420" x="0" y="174.26" style="fill: #482475; fill-opacity: 0.7; stroke: #482475; stroke-width: 1.25"/>
    </g>
   </g>
   <g id="line2d_9">
    <path d="M 7.2 131.94 
L 216.45 131.94 
" style="fill: none; stroke: #482475; stroke-opacity: 0.9; stroke-linecap: round"/>
   </g>
   <g id="text_14">
    <!-- 8 -->
    <g style="fill: #482475" transform="translate(7.2 131.022) scale(0.12 -0.12)">
     <defs>
      <path id="IBMPlexSans-Bold-38" d="M 1920 -77 
Q 1523 -77 1212 22 
Q 902 122 691 294 
Q 480 467 368 704 
Q 256 941 256 1222 
Q 256 1651 493 1923 
Q 730 2195 1133 2304 
L 1133 2355 
Q 806 2477 598 2726 
Q 390 2976 390 3366 
Q 390 3622 489 3840 
Q 589 4058 784 4214 
Q 979 4371 1264 4457 
Q 1549 4544 1920 4544 
Q 2291 4544 2576 4457 
Q 2861 4371 3056 4214 
Q 3251 4058 3350 3840 
Q 3450 3622 3450 3366 
Q 3450 2976 3242 2726 
Q 3034 2477 2707 2355 
L 2707 2304 
Q 3110 2195 3347 1923 
Q 3584 1651 3584 1222 
Q 3584 941 3472 704 
Q 3360 467 3149 294 
Q 2938 122 2627 22 
Q 2317 -77 1920 -77 
z
M 1920 659 
Q 2240 659 2409 809 
Q 2579 960 2579 1229 
L 2579 1357 
Q 2579 1626 2409 1776 
Q 2240 1926 1920 1926 
Q 1600 1926 1430 1776 
Q 1261 1626 1261 1357 
L 1261 1229 
Q 1261 960 1430 809 
Q 1600 659 1920 659 
z
M 1920 2630 
Q 2227 2630 2387 2774 
Q 2547 2918 2547 3168 
L 2547 3270 
Q 2547 3520 2387 3664 
Q 2227 3808 1920 3808 
Q 1613 3808 1453 3664 
Q 1293 3520 1293 3270 
L 1293 3168 
Q 1293 2918 1453 2774 
Q 1613 2630 1920 2630 
z
" transform="scale(0.015625)"/>
     </defs>
     <use xlink:href="#IBMPlexSans-Bold-38"/>
    </g>
   </g>
  </g>
 </g>
</svg>
