<?xml version="1.0" encoding="utf-8" standalone="no"?>
<!DOCTYPE svg PUBLIC "-//W3C//DTD SVG 1.1//EN"
  "http://www.w3.org/Graphics/SVG/1.1/DTD/svg11.dtd">
<svg xmlns:xlink="http://www.w3.org/1999/xlink" width="223.65pt" height="174.26pt" viewBox="0 0 223.65 174.26" xmlns="http://www.w3.org/2000/svg" version="1.1">
 <metadata>
  <rdf:RDF xmlns:dc="http://purl.org/dc/elements/1.1/" xmlns:cc="http://creativecommons.org/ns#" xmlns:rdf="http://www.w3.org/1999/02/22-rdf-syntax-ns#">
   <cc:Work>
    <dc:type rdf:resource="http://purl.org/dc/dcmitype/StillImage"/>
    <dc:date>2025-12-31T11:30:26.035613</dc:date>
    <dc:format>image/svg+xml</dc:format>
    <dc:creator>
     <cc:Agent>
      <dc:title>Matplotlib v3.10.5, https://matplotlib.org/</dc:title>
     </cc:Agent>
    </dc:creator>
   </cc:Work>
  </rdf:RDF>
 </metadata>
 <defs>
  <style type="text/css">*{stroke-linejoin: round; stroke-linecap: butt}</style>
 </defs>
 <g id="figure_1">
  <g id="patch_1">
   <path d="M 0 174.26 
L 223.65 174.26 
L 223.65 0 
L 0 0 
L 0 174.26 
z
" style="fill: none"/>
  </g>
  <g id="axes_1">
   <g id="patch_2">
    <path d="M 7.2 48.78 
L 216.45 48.78 
L 216.45 7.2 
L 7.2 7.2 
L 7.2 48.78 
z
" style="fill: none"/>
   </g>
   <g id="matplotlib.axis_1">
    <g id="xtick_1"/>
    <g id="xtick_2"/>
    <g id="xtick_3"/>
    <g id="xtick_4"/>
   </g>
   <g id="matplotlib.axis_2"/>
   <g id="line2d_1">
    <path d="M 7.2 48.78 
L 216.45 48.78 
" style="fill: none; stroke: #21918c; stroke-opacity: 0.9; stroke-linecap: round"/>
   </g>
   <g id="text_1">
    <!-- 0 -->
    <g style="fill: #21918c" transform="translate(7.2 47.862) scale(0.12 -0.12)">
     <defs>
      <path id="IBMPlexSans-Bold-30" d="M 1920 -77 
Q 1043 -77 620 531 
Q 198 1139 198 2234 
Q 198 3328 620 3936 
Q 1043 4544 1920 4544 
Q 2797 4544 3219 3936 
Q 3642 3328 3642 2234 
Q 3642 1139 3219 531 
Q 2797 -77 1920 -77 
z
M 1920 736 
Q 2304 736 2451 1017 
Q 2598 1299 2598 1811 
L 2598 2656 
Q 2598 3168 2451 3449 
Q 2304 3731 1920 3731 
Q 1536 3731 1389 3449 
Q 1242 3168 1242 2656 
L 1242 1811 
Q 1242 1299 1389 1017 
Q 1536 736 1920 736 
z
" transform="scale(0.015625)"/>
     </defs>
     <use xlink:href="#IBMPlexSans-Bold-30"/>
    </g>
   </g>
  </g>
  <g id="axes_2">
   <g id="patch_3">
    <path d="M 7.2 59.175 
L 216.45 59.175 
L 216.45 17.595 
L 7.2 17.595 
L 7.2 59.175 
z
" style="fill: none"/>
   </g>
   <g id="matplotlib.axis_3">
    <g id="xtick_5"/>
    <g id="xtick_6"/>
    <g id="xtick_7"/>
    <g id="xtick_8"/>
   </g>
   <g id="matplotlib.axis_4"/>
   <g id="FillBetweenPolyCollection_1">
    <defs>
     <path id="mcaa4e8b97e" d="M 107.106182 -115.608621 
L 107.106182 -115.085 
L 107.341506 -115.085 
L 107.57683 -115.085 
L 107.812155 -115.085 
L 108.047479 -115.085 
L 108.282803 -115.085 
L 108.518127 -115.085 
L 108.753451 -115.085 
L 108.988775 -115.085 
L 109.2241 -115.085 
L 109.459424 -115.085 
L 109.694748 -115.085 
L 109.930072 -115.085 
L 110.165396 -115.085 
L 110.400721 -115.085 
L 110.636045 -115.085 
L 110.871369 -115.085 
L 111.106693 -115.085 
L 111.342017 -115.085 
L 111.577342 -115.085 
L 111.812666 -115.085 
L 112.04799 -115.085 
L 112.283314 -115.085 
L 112.518638 -115.085 
L 112.753963 -115.085 
L 112.989287 -115.085 
L 113.224611 -115.085 
L 113.459935 -115.085 
L 113.695259 -115.085 
L 113.930583 -115.085 
L 114.165908 -115.085 
L 114.401232 -115.085 
L 114.636556 -115.085 
L 114.87188 -115.085 
L 115.107204 -115.085 
L 115.342529 -115.085 
L 115.577853 -115.085 
L 115.813177 -115.085 
L 116.048501 -115.085 
L 116.283825 -115.085 
L 116.51915 -115.085 
L 116.754474 -115.085 
L 116.989798 -115.085 
L 117.225122 -115.085 
L 117.460446 -115.085 
L 117.695771 -115.085 
L 117.931095 -115.085 
L 118.166419 -115.085 
L 118.401743 -115.085 
L 118.637067 -115.085 
L 118.872392 -115.085 
L 119.107716 -115.085 
L 119.34304 -115.085 
L 119.578364 -115.085 
L 119.813688 -115.085 
L 120.049012 -115.085 
L 120.284337 -115.085 
L 120.519661 -115.085 
L 120.754985 -115.085 
L 120.990309 -115.085 
L 121.225633 -115.085 
L 121.460958 -115.085 
L 121.696282 -115.085 
L 121.931606 -115.085 
L 122.16693 -115.085 
L 122.402254 -115.085 
L 122.637579 -115.085 
L 122.872903 -115.085 
L 123.108227 -115.085 
L 123.343551 -115.085 
L 123.578875 -115.085 
L 123.8142 -115.085 
L 124.049524 -115.085 
L 124.284848 -115.085 
L 124.520172 -115.085 
L 124.755496 -115.085 
L 124.99082 -115.085 
L 125.226145 -115.085 
L 125.461469 -115.085 
L 125.696793 -115.085 
L 125.932117 -115.085 
L 126.167441 -115.085 
L 126.402766 -115.085 
L 126.63809 -115.085 
L 126.873414 -115.085 
L 127.108738 -115.085 
L 127.344062 -115.085 
L 127.579387 -115.085 
L 127.814711 -115.085 
L 128.050035 -115.085 
L 128.285359 -115.085 
L 128.520683 -115.085 
L 128.756008 -115.085 
L 128.991332 -115.085 
L 129.226656 -115.085 
L 129.46198 -115.085 
L 129.697304 -115.085 
L 129.932629 -115.085 
L 130.167953 -115.085 
L 130.403277 -115.085 
L 130.638601 -115.085 
L 130.873925 -115.085 
L 131.109249 -115.085 
L 131.344574 -115.085 
L 131.579898 -115.085 
L 131.815222 -115.085 
L 132.050546 -115.085 
L 132.28587 -115.085 
L 132.521195 -115.085 
L 132.756519 -115.085 
L 132.991843 -115.085 
L 133.227167 -115.085 
L 133.462491 -115.085 
L 133.697816 -115.085 
L 133.93314 -115.085 
L 134.168464 -115.085 
L 134.403788 -115.085 
L 134.639112 -115.085 
L 134.874437 -115.085 
L 135.109761 -115.085 
L 135.345085 -115.085 
L 135.580409 -115.085 
L 135.815733 -115.085 
L 136.051057 -115.085 
L 136.286382 -115.085 
L 136.521706 -115.085 
L 136.75703 -115.085 
L 136.992354 -115.085 
L 137.227678 -115.085 
L 137.463003 -115.085 
L 137.698327 -115.085 
L 137.933651 -115.085 
L 138.168975 -115.085 
L 138.404299 -115.085 
L 138.639624 -115.085 
L 138.874948 -115.085 
L 139.110272 -115.085 
L 139.345596 -115.085 
L 139.58092 -115.085 
L 139.816245 -115.085 
L 140.051569 -115.085 
L 140.286893 -115.085 
L 140.522217 -115.085 
L 140.757541 -115.085 
L 140.992866 -115.085 
L 141.22819 -115.085 
L 141.463514 -115.085 
L 141.698838 -115.085 
L 141.934162 -115.085 
L 142.169486 -115.085 
L 142.404811 -115.085 
L 142.640135 -115.085 
L 142.875459 -115.085 
L 143.110783 -115.085 
L 143.346107 -115.085 
L 143.581432 -115.085 
L 143.816756 -115.085 
L 144.05208 -115.085 
L 144.287404 -115.085 
L 144.522728 -115.085 
L 144.758053 -115.085 
L 144.993377 -115.085 
L 145.228701 -115.085 
L 145.464025 -115.085 
L 145.699349 -115.085 
L 145.934674 -115.085 
L 146.169998 -115.085 
L 146.405322 -115.085 
L 146.640646 -115.085 
L 146.87597 -115.085 
L 147.111294 -115.085 
L 147.346619 -115.085 
L 147.581943 -115.085 
L 147.817267 -115.085 
L 148.052591 -115.085 
L 148.287915 -115.085 
L 148.52324 -115.085 
L 148.758564 -115.085 
L 148.993888 -115.085 
L 149.229212 -115.085 
L 149.464536 -115.085 
L 149.699861 -115.085 
L 149.935185 -115.085 
L 150.170509 -115.085 
L 150.405833 -115.085 
L 150.641157 -115.085 
L 150.876482 -115.085 
L 151.111806 -115.085 
L 151.34713 -115.085 
L 151.582454 -115.085 
L 151.817778 -115.085 
L 152.053103 -115.085 
L 152.288427 -115.085 
L 152.523751 -115.085 
L 152.759075 -115.085 
L 152.994399 -115.085 
L 153.229723 -115.085 
L 153.465048 -115.085 
L 153.700372 -115.085 
L 153.935696 -115.085 
L 153.935696 -117.937696 
L 153.935696 -117.937696 
L 153.700372 -118.297899 
L 153.465048 -118.685505 
L 153.229723 -119.099978 
L 152.994399 -119.540396 
L 152.759075 -120.005446 
L 152.523751 -120.493425 
L 152.288427 -121.002253 
L 152.053103 -121.529499 
L 151.817778 -122.072412 
L 151.582454 -122.627963 
L 151.34713 -123.1929 
L 151.111806 -123.763803 
L 150.876482 -124.337153 
L 150.641157 -124.909398 
L 150.405833 -125.477022 
L 150.170509 -126.036622 
L 149.935185 -126.584971 
L 149.699861 -127.119091 
L 149.464536 -127.636308 
L 149.229212 -128.134308 
L 148.993888 -128.611186 
L 148.758564 -129.065484 
L 148.52324 -129.496219 
L 148.287915 -129.902901 
L 148.052591 -130.285549 
L 147.817267 -130.644688 
L 147.581943 -130.981345 
L 147.346619 -131.297029 
L 147.111294 -131.593711 
L 146.87597 -131.873795 
L 146.640646 -132.140075 
L 146.405322 -132.3957 
L 146.169998 -132.64412 
L 145.934674 -132.889039 
L 145.699349 -133.134352 
L 145.464025 -133.384092 
L 145.228701 -133.642361 
L 144.993377 -133.913266 
L 144.758053 -134.200852 
L 144.522728 -134.50903 
L 144.287404 -134.841511 
L 144.05208 -135.20173 
L 143.816756 -135.592785 
L 143.581432 -136.017364 
L 143.346107 -136.477686 
L 143.110783 -136.975444 
L 142.875459 -137.511751 
L 142.640135 -138.087096 
L 142.404811 -138.701312 
L 142.169486 -139.353547 
L 141.934162 -140.042254 
L 141.698838 -140.765181 
L 141.463514 -141.519385 
L 141.22819 -142.30125 
L 140.992866 -143.106521 
L 140.757541 -143.930345 
L 140.522217 -144.767324 
L 140.286893 -145.61158 
L 140.051569 -146.456826 
L 139.816245 -147.296438 
L 139.58092 -148.123542 
L 139.345596 -148.931099 
L 139.110272 -149.711991 
L 138.874948 -150.459109 
L 138.639624 -151.165444 
L 138.404299 -151.824169 
L 138.168975 -152.428727 
L 137.933651 -152.972909 
L 137.698327 -153.450933 
L 137.463003 -153.857517 
L 137.227678 -154.187946 
L 136.992354 -154.43814 
L 136.75703 -154.604706 
L 136.521706 -154.685 
L 136.286382 -154.677165 
L 136.051057 -154.580173 
L 135.815733 -154.39386 
L 135.580409 -154.118941 
L 135.345085 -153.757023 
L 135.109761 -153.310609 
L 134.874437 -152.783078 
L 134.639112 -152.17866 
L 134.403788 -151.502396 
L 134.168464 -150.760079 
L 133.93314 -149.95818 
L 133.697816 -149.103762 
L 133.462491 -148.20438 
L 133.227167 -147.267964 
L 132.991843 -146.302698 
L 132.756519 -145.316883 
L 132.521195 -144.318805 
L 132.28587 -143.316591 
L 132.050546 -142.318073 
L 131.815222 -141.33066 
L 131.579898 -140.361211 
L 131.344574 -139.415931 
L 131.109249 -138.500277 
L 130.873925 -137.618885 
L 130.638601 -136.775521 
L 130.403277 -135.97305 
L 130.167953 -135.213436 
L 129.932629 -134.497758 
L 129.697304 -133.82625 
L 129.46198 -133.198369 
L 129.226656 -132.61287 
L 128.991332 -132.0679 
L 128.756008 -131.561107 
L 128.520683 -131.089752 
L 128.285359 -130.650818 
L 128.050035 -130.24113 
L 127.814711 -129.85746 
L 127.579387 -129.496624 
L 127.344062 -129.155572 
L 127.108738 -128.831458 
L 126.873414 -128.521698 
L 126.63809 -128.224012 
L 126.402766 -127.936447 
L 126.167441 -127.657383 
L 125.932117 -127.385529 
L 125.696793 -127.119902 
L 125.461469 -126.859798 
L 125.226145 -126.60475 
L 124.99082 -126.354486 
L 124.755496 -126.108881 
L 124.520172 -125.867907 
L 124.284848 -125.631584 
L 124.049524 -125.399941 
L 123.8142 -125.172972 
L 123.578875 -124.950606 
L 123.343551 -124.732685 
L 123.108227 -124.518943 
L 122.872903 -124.308999 
L 122.637579 -124.102358 
L 122.402254 -123.898419 
L 122.16693 -123.696488 
L 121.931606 -123.4958 
L 121.696282 -123.295543 
L 121.460958 -123.09489 
L 121.225633 -122.893029 
L 120.990309 -122.689195 
L 120.754985 -122.482703 
L 120.519661 -122.272977 
L 120.284337 -122.059575 
L 120.049012 -121.842217 
L 119.813688 -121.620795 
L 119.578364 -121.39539 
L 119.34304 -121.166273 
L 119.107716 -120.933905 
L 118.872392 -120.69893 
L 118.637067 -120.46216 
L 118.401743 -120.224554 
L 118.166419 -119.987195 
L 117.931095 -119.751263 
L 117.695771 -119.518001 
L 117.460446 -119.288686 
L 117.225122 -119.064591 
L 116.989798 -118.846956 
L 116.754474 -118.636956 
L 116.51915 -118.435672 
L 116.283825 -118.244063 
L 116.048501 -118.062947 
L 115.813177 -117.892982 
L 115.577853 -117.734654 
L 115.342529 -117.588267 
L 115.107204 -117.453942 
L 114.87188 -117.331613 
L 114.636556 -117.221041 
L 114.401232 -117.121813 
L 114.165908 -117.033366 
L 113.930583 -116.954993 
L 113.695259 -116.885872 
L 113.459935 -116.825079 
L 113.224611 -116.771617 
L 112.989287 -116.724437 
L 112.753963 -116.682463 
L 112.518638 -116.644616 
L 112.283314 -116.609839 
L 112.04799 -116.577119 
L 111.812666 -116.545505 
L 111.577342 -116.514131 
L 111.342017 -116.482225 
L 111.106693 -116.449128 
L 110.871369 -116.4143 
L 110.636045 -116.377324 
L 110.400721 -116.337911 
L 110.165396 -116.295897 
L 109.930072 -116.25124 
L 109.694748 -116.204009 
L 109.459424 -116.154377 
L 109.2241 -116.102607 
L 108.988775 -116.049036 
L 108.753451 -115.994064 
L 108.518127 -115.93813 
L 108.282803 -115.881705 
L 108.047479 -115.825269 
L 107.812155 -115.769297 
L 107.57683 -115.714252 
L 107.341506 -115.660562 
L 107.106182 -115.608621 
z
" style="stroke: #2a788e; stroke-width: 1.25"/>
    </defs>
    <g>
     <use xlink:href="#mcaa4e8b97e" x="0" y="174.26" style="fill: #2a788e; fill-opacity: 0.7; stroke: #2a788e; stroke-width: 1.25"/>
    </g>
   </g>
   <g id="line2d_2">
    <path d="M 7.2 59.175 
L 216.45 59.175 
" style="fill: none; stroke: #2a788e; stroke-opacity: 0.9; stroke-linecap: round"/>
   </g>
   <g id="text_2">
    <!-- 1 -->
    <g style="fill: #2a788e" transform="translate(7.2 58.257) scale(0.12 -0.12)">
     <defs>
      <path id="IBMPlexSans-Bold-31" d="M 602 0 
L 602 774 
L 1805 774 
L 1805 3770 
L 1747 3770 
L 838 2579 
L 224 3059 
L 1293 4467 
L 2765 4467 
L 2765 774 
L 3712 774 
L 3712 0 
L 602 0 
z
" transform="scale(0.015625)"/>
     </defs>
     <use xlink:href="#IBMPlexSans-Bold-31"/>
    </g>
   </g>
  </g>
  <g id="axes_3">
   <g id="patch_4">
    <path d="M 7.2 69.57 
L 216.45 69.57 
L 216.45 27.99 
L 7.2 27.99 
L 7.2 69.57 
z
" style="fill: none"/>
   </g>
   <g id="matplotlib.axis_5">
    <g id="xtick_9"/>
    <g id="xtick_10"/>
    <g id="xtick_11"/>
    <g id="xtick_12"/>
   </g>
   <g id="matplotlib.axis_6"/>
   <g id="FillBetweenPolyCollection_2">
    <defs>
     <path id="m3c5fd15e90" d="M 77.11603 -104.945237 
L 77.11603 -104.69 
L 77.58865 -104.69 
L 78.061269 -104.69 
L 78.533888 -104.69 
L 79.006508 -104.69 
L 79.479127 -104.69 
L 79.951747 -104.69 
L 80.424366 -104.69 
L 80.896985 -104.69 
L 81.369605 -104.69 
L 81.842224 -104.69 
L 82.314844 -104.69 
L 82.787463 -104.69 
L 83.260082 -104.69 
L 83.732702 -104.69 
L 84.205321 -104.69 
L 84.677941 -104.69 
L 85.15056 -104.69 
L 85.62318 -104.69 
L 86.095799 -104.69 
L 86.568418 -104.69 
L 87.041038 -104.69 
L 87.513657 -104.69 
L 87.986277 -104.69 
L 88.458896 -104.69 
L 88.931515 -104.69 
L 89.404135 -104.69 
L 89.876754 -104.69 
L 90.349374 -104.69 
L 90.821993 -104.69 
L 91.294613 -104.69 
L 91.767232 -104.69 
L 92.239851 -104.69 
L 92.712471 -104.69 
L 93.18509 -104.69 
L 93.65771 -104.69 
L 94.130329 -104.69 
L 94.602948 -104.69 
L 95.075568 -104.69 
L 95.548187 -104.69 
L 96.020807 -104.69 
L 96.493426 -104.69 
L 96.966045 -104.69 
L 97.438665 -104.69 
L 97.911284 -104.69 
L 98.383904 -104.69 
L 98.856523 -104.69 
L 99.329143 -104.69 
L 99.801762 -104.69 
L 100.274381 -104.69 
L 100.747001 -104.69 
L 101.21962 -104.69 
L 101.69224 -104.69 
L 102.164859 -104.69 
L 102.637478 -104.69 
L 103.110098 -104.69 
L 103.582717 -104.69 
L 104.055337 -104.69 
L 104.527956 -104.69 
L 105.000576 -104.69 
L 105.473195 -104.69 
L 105.945814 -104.69 
L 106.418434 -104.69 
L 106.891053 -104.69 
L 107.363673 -104.69 
L 107.836292 -104.69 
L 108.308911 -104.69 
L 108.781531 -104.69 
L 109.25415 -104.69 
L 109.72677 -104.69 
L 110.199389 -104.69 
L 110.672008 -104.69 
L 111.144628 -104.69 
L 111.617247 -104.69 
L 112.089867 -104.69 
L 112.562486 -104.69 
L 113.035106 -104.69 
L 113.507725 -104.69 
L 113.980344 -104.69 
L 114.452964 -104.69 
L 114.925583 -104.69 
L 115.398203 -104.69 
L 115.870822 -104.69 
L 116.343441 -104.69 
L 116.816061 -104.69 
L 117.28868 -104.69 
L 117.7613 -104.69 
L 118.233919 -104.69 
L 118.706539 -104.69 
L 119.179158 -104.69 
L 119.651777 -104.69 
L 120.124397 -104.69 
L 120.597016 -104.69 
L 121.069636 -104.69 
L 121.542255 -104.69 
L 122.014874 -104.69 
L 122.487494 -104.69 
L 122.960113 -104.69 
L 123.432733 -104.69 
L 123.905352 -104.69 
L 124.377971 -104.69 
L 124.850591 -104.69 
L 125.32321 -104.69 
L 125.79583 -104.69 
L 126.268449 -104.69 
L 126.741069 -104.69 
L 127.213688 -104.69 
L 127.686307 -104.69 
L 128.158927 -104.69 
L 128.631546 -104.69 
L 129.104166 -104.69 
L 129.576785 -104.69 
L 130.049404 -104.69 
L 130.522024 -104.69 
L 130.994643 -104.69 
L 131.467263 -104.69 
L 131.939882 -104.69 
L 132.412502 -104.69 
L 132.885121 -104.69 
L 133.35774 -104.69 
L 133.83036 -104.69 
L 134.302979 -104.69 
L 134.775599 -104.69 
L 135.248218 -104.69 
L 135.720837 -104.69 
L 136.193457 -104.69 
L 136.666076 -104.69 
L 137.138696 -104.69 
L 137.611315 -104.69 
L 138.083934 -104.69 
L 138.556554 -104.69 
L 139.029173 -104.69 
L 139.501793 -104.69 
L 139.974412 -104.69 
L 140.447032 -104.69 
L 140.919651 -104.69 
L 141.39227 -104.69 
L 141.86489 -104.69 
L 142.337509 -104.69 
L 142.810129 -104.69 
L 143.282748 -104.69 
L 143.755367 -104.69 
L 144.227987 -104.69 
L 144.700606 -104.69 
L 145.173226 -104.69 
L 145.645845 -104.69 
L 146.118465 -104.69 
L 146.591084 -104.69 
L 147.063703 -104.69 
L 147.536323 -104.69 
L 148.008942 -104.69 
L 148.481562 -104.69 
L 148.954181 -104.69 
L 149.4268 -104.69 
L 149.89942 -104.69 
L 150.372039 -104.69 
L 150.844659 -104.69 
L 151.317278 -104.69 
L 151.789898 -104.69 
L 152.262517 -104.69 
L 152.735136 -104.69 
L 153.207756 -104.69 
L 153.680375 -104.69 
L 154.152995 -104.69 
L 154.625614 -104.69 
L 155.098233 -104.69 
L 155.570853 -104.69 
L 156.043472 -104.69 
L 156.516092 -104.69 
L 156.988711 -104.69 
L 157.46133 -104.69 
L 157.93395 -104.69 
L 158.406569 -104.69 
L 158.879189 -104.69 
L 159.351808 -104.69 
L 159.824428 -104.69 
L 160.297047 -104.69 
L 160.769666 -104.69 
L 161.242286 -104.69 
L 161.714905 -104.69 
L 162.187525 -104.69 
L 162.660144 -104.69 
L 163.132763 -104.69 
L 163.605383 -104.69 
L 164.078002 -104.69 
L 164.550622 -104.69 
L 165.023241 -104.69 
L 165.495861 -104.69 
L 165.96848 -104.69 
L 166.441099 -104.69 
L 166.913719 -104.69 
L 167.386338 -104.69 
L 167.858958 -104.69 
L 168.331577 -104.69 
L 168.804196 -104.69 
L 169.276816 -104.69 
L 169.749435 -104.69 
L 170.222055 -104.69 
L 170.694674 -104.69 
L 171.167293 -104.69 
L 171.167293 -106.043055 
L 171.167293 -106.043055 
L 170.694674 -106.217262 
L 170.222055 -106.405308 
L 169.749435 -106.607024 
L 169.276816 -106.822049 
L 168.804196 -107.049827 
L 168.331577 -107.289602 
L 167.858958 -107.540423 
L 167.386338 -107.80115 
L 166.913719 -108.070471 
L 166.441099 -108.346915 
L 165.96848 -108.628882 
L 165.495861 -108.914666 
L 165.023241 -109.202484 
L 164.550622 -109.490518 
L 164.078002 -109.776942 
L 163.605383 -110.059965 
L 163.132763 -110.337863 
L 162.660144 -110.60902 
L 162.187525 -110.871958 
L 161.714905 -111.12537 
L 161.242286 -111.368149 
L 160.769666 -111.599409 
L 160.297047 -111.818506 
L 159.824428 -112.025052 
L 159.351808 -112.218925 
L 158.879189 -112.400271 
L 158.406569 -112.569506 
L 157.93395 -112.727306 
L 157.46133 -112.874599 
L 156.988711 -113.012549 
L 156.516092 -113.142538 
L 156.043472 -113.266139 
L 155.570853 -113.385097 
L 155.098233 -113.501293 
L 154.625614 -113.61672 
L 154.152995 -113.733444 
L 153.680375 -113.853575 
L 153.207756 -113.979229 
L 152.735136 -114.112493 
L 152.262517 -114.255391 
L 151.789898 -114.409847 
L 151.317278 -114.577652 
L 150.844659 -114.760428 
L 150.372039 -114.959602 
L 149.89942 -115.17637 
L 149.4268 -115.411676 
L 148.954181 -115.666186 
L 148.481562 -115.940267 
L 148.008942 -116.233973 
L 147.536323 -116.547032 
L 147.063703 -116.878838 
L 146.591084 -117.22845 
L 146.118465 -117.594594 
L 145.645845 -117.97567 
L 145.173226 -118.369763 
L 144.700606 -118.774662 
L 144.227987 -119.187881 
L 143.755367 -119.606681 
L 143.282748 -120.028107 
L 142.810129 -120.44901 
L 142.337509 -120.866091 
L 141.86489 -121.275936 
L 141.39227 -121.675051 
L 140.919651 -122.05991 
L 140.447032 -122.426989 
L 139.974412 -122.772814 
L 139.501793 -123.093998 
L 139.029173 -123.387286 
L 138.556554 -123.649594 
L 138.083934 -123.87805 
L 137.611315 -124.070032 
L 137.138696 -124.223205 
L 136.666076 -124.335559 
L 136.193457 -124.405437 
L 135.720837 -124.431568 
L 135.248218 -124.413091 
L 134.775599 -124.34958 
L 134.302979 -124.241057 
L 133.83036 -124.088007 
L 133.35774 -123.891377 
L 132.885121 -123.652582 
L 132.412502 -123.373487 
L 131.939882 -123.056395 
L 131.467263 -122.704017 
L 130.994643 -122.31944 
L 130.522024 -121.906081 
L 130.049404 -121.467641 
L 129.576785 -121.008042 
L 129.104166 -120.531372 
L 128.631546 -120.041808 
L 128.158927 -119.543552 
L 127.686307 -119.040758 
L 127.213688 -118.53746 
L 126.741069 -118.037505 
L 126.268449 -117.544487 
L 125.79583 -117.061695 
L 125.32321 -116.592058 
L 124.850591 -116.138109 
L 124.377971 -115.701957 
L 123.905352 -115.285267 
L 123.432733 -114.889257 
L 122.960113 -114.514704 
L 122.487494 -114.16196 
L 122.014874 -113.830983 
L 121.542255 -113.521369 
L 121.069636 -113.232402 
L 120.597016 -112.963101 
L 120.124397 -112.712272 
L 119.651777 -112.478567 
L 119.179158 -112.260535 
L 118.706539 -112.056679 
L 118.233919 -111.865499 
L 117.7613 -111.685539 
L 117.28868 -111.515422 
L 116.816061 -111.353879 
L 116.343441 -111.199771 
L 115.870822 -111.052102 
L 115.398203 -110.910024 
L 114.925583 -110.772838 
L 114.452964 -110.639984 
L 113.980344 -110.511031 
L 113.507725 -110.385658 
L 113.035106 -110.263636 
L 112.562486 -110.144804 
L 112.089867 -110.029053 
L 111.617247 -109.916296 
L 111.144628 -109.806454 
L 110.672008 -109.699438 
L 110.199389 -109.595129 
L 109.72677 -109.493372 
L 109.25415 -109.393965 
L 108.781531 -109.296654 
L 108.308911 -109.201137 
L 107.836292 -109.107059 
L 107.363673 -109.014026 
L 106.891053 -108.921611 
L 106.418434 -108.829366 
L 105.945814 -108.736834 
L 105.473195 -108.643565 
L 105.000576 -108.549135 
L 104.527956 -108.453154 
L 104.055337 -108.355287 
L 103.582717 -108.255265 
L 103.110098 -108.152897 
L 102.637478 -108.04808 
L 102.164859 -107.940803 
L 101.69224 -107.831156 
L 101.21962 -107.719324 
L 100.747001 -107.605592 
L 100.274381 -107.490332 
L 99.801762 -107.373999 
L 99.329143 -107.257117 
L 98.856523 -107.140268 
L 98.383904 -107.024074 
L 97.911284 -106.909185 
L 97.438665 -106.796258 
L 96.966045 -106.685938 
L 96.493426 -106.57885 
L 96.020807 -106.475573 
L 95.548187 -106.376634 
L 95.075568 -106.282492 
L 94.602948 -106.193526 
L 94.130329 -106.110034 
L 93.65771 -106.032219 
L 93.18509 -105.960195 
L 92.712471 -105.893979 
L 92.239851 -105.8335 
L 91.767232 -105.778597 
L 91.294613 -105.729033 
L 90.821993 -105.684494 
L 90.349374 -105.644609 
L 89.876754 -105.60895 
L 89.404135 -105.577055 
L 88.931515 -105.548429 
L 88.458896 -105.522565 
L 87.986277 -105.498952 
L 87.513657 -105.477087 
L 87.041038 -105.456486 
L 86.568418 -105.436696 
L 86.095799 -105.417301 
L 85.62318 -105.397932 
L 85.15056 -105.378269 
L 84.677941 -105.358051 
L 84.205321 -105.337075 
L 83.732702 -105.315194 
L 83.260082 -105.292325 
L 82.787463 -105.268436 
L 82.314844 -105.243552 
L 81.842224 -105.217742 
L 81.369605 -105.191122 
L 80.896985 -105.163837 
L 80.424366 -105.136064 
L 79.951747 -105.108 
L 79.479127 -105.079853 
L 79.006508 -105.05184 
L 78.533888 -105.024172 
L 78.061269 -104.997057 
L 77.58865 -104.970687 
L 77.11603 -104.945237 
z
" style="stroke: #355f8d; stroke-width: 1.25"/>
    </defs>
    <g>
     <use xlink:href="#m3c5fd15e90" x="0" y="174.26" style="fill: #355f8d; fill-opacity: 0.7; stroke: #355f8d; stroke-width: 1.25"/>
    </g>
   </g>
   <g id="line2d_3">
    <path d="M 7.2 69.57 
L 216.45 69.57 
" style="fill: none; stroke: #355f8d; stroke-opacity: 0.9; stroke-linecap: round"/>
   </g>
   <g id="text_3">
    <!-- 2 -->
    <g style="fill: #355f8d" transform="translate(7.2 68.652) scale(0.12 -0.12)">
     <defs>
      <path id="IBMPlexSans-Bold-32" d="M 3526 0 
L 365 0 
L 365 877 
L 1741 2054 
Q 1926 2214 2054 2345 
Q 2182 2477 2262 2601 
Q 2342 2726 2377 2848 
Q 2413 2970 2413 3110 
L 2413 3200 
Q 2413 3328 2361 3424 
Q 2310 3520 2227 3584 
Q 2144 3648 2038 3680 
Q 1933 3712 1824 3712 
Q 1664 3712 1545 3661 
Q 1427 3610 1340 3523 
Q 1254 3437 1196 3325 
Q 1139 3213 1107 3085 
L 269 3405 
Q 346 3635 480 3843 
Q 614 4051 816 4208 
Q 1018 4365 1293 4454 
Q 1568 4544 1914 4544 
Q 2278 4544 2560 4441 
Q 2842 4339 3037 4160 
Q 3232 3981 3334 3734 
Q 3437 3488 3437 3200 
Q 3437 2912 3341 2675 
Q 3245 2438 3081 2230 
Q 2918 2022 2700 1836 
Q 2483 1651 2246 1459 
L 1414 806 
L 3526 806 
L 3526 0 
z
" transform="scale(0.015625)"/>
     </defs>
     <use xlink:href="#IBMPlexSans-Bold-32"/>
    </g>
   </g>
  </g>
  <g id="axes_4">
   <g id="patch_5">
    <path d="M 7.2 79.965 
L 216.45 79.965 
L 216.45 38.385 
L 7.2 38.385 
L 7.2 79.965 
z
" style="fill: none"/>
   </g>
   <g id="matplotlib.axis_7">
    <g id="xtick_13"/>
    <g id="xtick_14"/>
    <g id="xtick_15"/>
    <g id="xtick_16"/>
   </g>
   <g id="matplotlib.axis_8"/>
   <g id="FillBetweenPolyCollection_3">
    <defs>
     <path id="mb6b1cd195e" d="M 46.773517 -94.462278 
L 46.773517 -94.295 
L 47.487537 -94.295 
L 48.201558 -94.295 
L 48.915578 -94.295 
L 49.629598 -94.295 
L 50.343619 -94.295 
L 51.057639 -94.295 
L 51.77166 -94.295 
L 52.48568 -94.295 
L 53.199701 -94.295 
L 53.913721 -94.295 
L 54.627741 -94.295 
L 55.341762 -94.295 
L 56.055782 -94.295 
L 56.769803 -94.295 
L 57.483823 -94.295 
L 58.197844 -94.295 
L 58.911864 -94.295 
L 59.625885 -94.295 
L 60.339905 -94.295 
L 61.053925 -94.295 
L 61.767946 -94.295 
L 62.481966 -94.295 
L 63.195987 -94.295 
L 63.910007 -94.295 
L 64.624028 -94.295 
L 65.338048 -94.295 
L 66.052068 -94.295 
L 66.766089 -94.295 
L 67.480109 -94.295 
L 68.19413 -94.295 
L 68.90815 -94.295 
L 69.622171 -94.295 
L 70.336191 -94.295 
L 71.050211 -94.295 
L 71.764232 -94.295 
L 72.478252 -94.295 
L 73.192273 -94.295 
L 73.906293 -94.295 
L 74.620314 -94.295 
L 75.334334 -94.295 
L 76.048355 -94.295 
L 76.762375 -94.295 
L 77.476395 -94.295 
L 78.190416 -94.295 
L 78.904436 -94.295 
L 79.618457 -94.295 
L 80.332477 -94.295 
L 81.046498 -94.295 
L 81.760518 -94.295 
L 82.474538 -94.295 
L 83.188559 -94.295 
L 83.902579 -94.295 
L 84.6166 -94.295 
L 85.33062 -94.295 
L 86.044641 -94.295 
L 86.758661 -94.295 
L 87.472681 -94.295 
L 88.186702 -94.295 
L 88.900722 -94.295 
L 89.614743 -94.295 
L 90.328763 -94.295 
L 91.042784 -94.295 
L 91.756804 -94.295 
L 92.470825 -94.295 
L 93.184845 -94.295 
L 93.898865 -94.295 
L 94.612886 -94.295 
L 95.326906 -94.295 
L 96.040927 -94.295 
L 96.754947 -94.295 
L 97.468968 -94.295 
L 98.182988 -94.295 
L 98.897008 -94.295 
L 99.611029 -94.295 
L 100.325049 -94.295 
L 101.03907 -94.295 
L 101.75309 -94.295 
L 102.467111 -94.295 
L 103.181131 -94.295 
L 103.895151 -94.295 
L 104.609172 -94.295 
L 105.323192 -94.295 
L 106.037213 -94.295 
L 106.751233 -94.295 
L 107.465254 -94.295 
L 108.179274 -94.295 
L 108.893295 -94.295 
L 109.607315 -94.295 
L 110.321335 -94.295 
L 111.035356 -94.295 
L 111.749376 -94.295 
L 112.463397 -94.295 
L 113.177417 -94.295 
L 113.891438 -94.295 
L 114.605458 -94.295 
L 115.319478 -94.295 
L 116.033499 -94.295 
L 116.747519 -94.295 
L 117.46154 -94.295 
L 118.17556 -94.295 
L 118.889581 -94.295 
L 119.603601 -94.295 
L 120.317622 -94.295 
L 121.031642 -94.295 
L 121.745662 -94.295 
L 122.459683 -94.295 
L 123.173703 -94.295 
L 123.887724 -94.295 
L 124.601744 -94.295 
L 125.315765 -94.295 
L 126.029785 -94.295 
L 126.743805 -94.295 
L 127.457826 -94.295 
L 128.171846 -94.295 
L 128.885867 -94.295 
L 129.599887 -94.295 
L 130.313908 -94.295 
L 131.027928 -94.295 
L 131.741948 -94.295 
L 132.455969 -94.295 
L 133.169989 -94.295 
L 133.88401 -94.295 
L 134.59803 -94.295 
L 135.312051 -94.295 
L 136.026071 -94.295 
L 136.740092 -94.295 
L 137.454112 -94.295 
L 138.168132 -94.295 
L 138.882153 -94.295 
L 139.596173 -94.295 
L 140.310194 -94.295 
L 141.024214 -94.295 
L 141.738235 -94.295 
L 142.452255 -94.295 
L 143.166275 -94.295 
L 143.880296 -94.295 
L 144.594316 -94.295 
L 145.308337 -94.295 
L 146.022357 -94.295 
L 146.736378 -94.295 
L 147.450398 -94.295 
L 148.164418 -94.295 
L 148.878439 -94.295 
L 149.592459 -94.295 
L 150.30648 -94.295 
L 151.0205 -94.295 
L 151.734521 -94.295 
L 152.448541 -94.295 
L 153.162562 -94.295 
L 153.876582 -94.295 
L 154.590602 -94.295 
L 155.304623 -94.295 
L 156.018643 -94.295 
L 156.732664 -94.295 
L 157.446684 -94.295 
L 158.160705 -94.295 
L 158.874725 -94.295 
L 159.588745 -94.295 
L 160.302766 -94.295 
L 161.016786 -94.295 
L 161.730807 -94.295 
L 162.444827 -94.295 
L 163.158848 -94.295 
L 163.872868 -94.295 
L 164.586888 -94.295 
L 165.300909 -94.295 
L 166.014929 -94.295 
L 166.72895 -94.295 
L 167.44297 -94.295 
L 168.156991 -94.295 
L 168.871011 -94.295 
L 169.585032 -94.295 
L 170.299052 -94.295 
L 171.013072 -94.295 
L 171.727093 -94.295 
L 172.441113 -94.295 
L 173.155134 -94.295 
L 173.869154 -94.295 
L 174.583175 -94.295 
L 175.297195 -94.295 
L 176.011215 -94.295 
L 176.725236 -94.295 
L 177.439256 -94.295 
L 178.153277 -94.295 
L 178.867297 -94.295 
L 179.581318 -94.295 
L 180.295338 -94.295 
L 181.009358 -94.295 
L 181.723379 -94.295 
L 182.437399 -94.295 
L 183.15142 -94.295 
L 183.86544 -94.295 
L 184.579461 -94.295 
L 185.293481 -94.295 
L 186.007502 -94.295 
L 186.721522 -94.295 
L 187.435542 -94.295 
L 188.149563 -94.295 
L 188.863583 -94.295 
L 188.863583 -95.136255 
L 188.863583 -95.136255 
L 188.149563 -95.246627 
L 187.435542 -95.36611 
L 186.721522 -95.494653 
L 186.007502 -95.632082 
L 185.293481 -95.778095 
L 184.579461 -95.93226 
L 183.86544 -96.094019 
L 183.15142 -96.262683 
L 182.437399 -96.437448 
L 181.723379 -96.617401 
L 181.009358 -96.801534 
L 180.295338 -96.988762 
L 179.581318 -97.17794 
L 178.867297 -97.367887 
L 178.153277 -97.557409 
L 177.439256 -97.74532 
L 176.725236 -97.930467 
L 176.011215 -98.111758 
L 175.297195 -98.288178 
L 174.583175 -98.458818 
L 173.869154 -98.622888 
L 173.155134 -98.779737 
L 172.441113 -98.928868 
L 171.727093 -99.069946 
L 171.013072 -99.202808 
L 170.299052 -99.327466 
L 169.585032 -99.444109 
L 168.871011 -99.553099 
L 168.156991 -99.654965 
L 167.44297 -99.750398 
L 166.72895 -99.840233 
L 166.014929 -99.925441 
L 165.300909 -100.007109 
L 164.586888 -100.086425 
L 163.872868 -100.164656 
L 163.158848 -100.243126 
L 162.444827 -100.323197 
L 161.730807 -100.406247 
L 161.016786 -100.493641 
L 160.302766 -100.586717 
L 159.588745 -100.686754 
L 158.874725 -100.794958 
L 158.160705 -100.912433 
L 157.446684 -101.040168 
L 156.732664 -101.17901 
L 156.018643 -101.329653 
L 155.304623 -101.49262 
L 154.590602 -101.668248 
L 153.876582 -101.85668 
L 153.162562 -102.057851 
L 152.448541 -102.271488 
L 151.734521 -102.497102 
L 151.0205 -102.733991 
L 150.30648 -102.981238 
L 149.592459 -103.237721 
L 148.878439 -103.50212 
L 148.164418 -103.772924 
L 147.450398 -104.048449 
L 146.736378 -104.326854 
L 146.022357 -104.606156 
L 145.308337 -104.884252 
L 144.594316 -105.158941 
L 143.880296 -105.427948 
L 143.166275 -105.688951 
L 142.452255 -105.939602 
L 141.738235 -106.177559 
L 141.024214 -106.400513 
L 140.310194 -106.606216 
L 139.596173 -106.79251 
L 138.882153 -106.957356 
L 138.168132 -107.098863 
L 137.454112 -107.215315 
L 136.740092 -107.305199 
L 136.026071 -107.367232 
L 135.312051 -107.400379 
L 134.59803 -107.403883 
L 133.88401 -107.377275 
L 133.169989 -107.320392 
L 132.455969 -107.23339 
L 131.741948 -107.116745 
L 131.027928 -106.971257 
L 130.313908 -106.798042 
L 129.599887 -106.598524 
L 128.885867 -106.374418 
L 128.171846 -106.127704 
L 127.457826 -105.860602 
L 126.743805 -105.575538 
L 126.029785 -105.275102 
L 125.315765 -104.962009 
L 124.601744 -104.639049 
L 123.887724 -104.309047 
L 123.173703 -103.974805 
L 122.459683 -103.63906 
L 121.745662 -103.304437 
L 121.031642 -102.973404 
L 120.317622 -102.648233 
L 119.603601 -102.330968 
L 118.889581 -102.023397 
L 118.17556 -101.72703 
L 117.46154 -101.443086 
L 116.747519 -101.17249 
L 116.033499 -100.915874 
L 115.319478 -100.673586 
L 114.605458 -100.445707 
L 113.891438 -100.232072 
L 113.177417 -100.032303 
L 112.463397 -99.845834 
L 111.749376 -99.671949 
L 111.035356 -99.509818 
L 110.321335 -99.358531 
L 109.607315 -99.217133 
L 108.893295 -99.084657 
L 108.179274 -98.960156 
L 107.465254 -98.842721 
L 106.751233 -98.731508 
L 106.037213 -98.625753 
L 105.323192 -98.524776 
L 104.609172 -98.427996 
L 103.895151 -98.334923 
L 103.181131 -98.24516 
L 102.467111 -98.158392 
L 101.75309 -98.074378 
L 101.03907 -97.992938 
L 100.325049 -97.913937 
L 99.611029 -97.837274 
L 98.897008 -97.762863 
L 98.182988 -97.690624 
L 97.468968 -97.62047 
L 96.754947 -97.552293 
L 96.040927 -97.485961 
L 95.326906 -97.421311 
L 94.612886 -97.358145 
L 93.898865 -97.296232 
L 93.184845 -97.235309 
L 92.470825 -97.175087 
L 91.756804 -97.115256 
L 91.042784 -97.055496 
L 90.328763 -96.995485 
L 89.614743 -96.934908 
L 88.900722 -96.873471 
L 88.186702 -96.810909 
L 87.472681 -96.746994 
L 86.758661 -96.681549 
L 86.044641 -96.61445 
L 85.33062 -96.545633 
L 84.6166 -96.475099 
L 83.902579 -96.402917 
L 83.188559 -96.329216 
L 82.474538 -96.254194 
L 81.760518 -96.178102 
L 81.046498 -96.101245 
L 80.332477 -96.023974 
L 79.618457 -95.946671 
L 78.904436 -95.869746 
L 78.190416 -95.793623 
L 77.476395 -95.71873 
L 76.762375 -95.645485 
L 76.048355 -95.574294 
L 75.334334 -95.50553 
L 74.620314 -95.439536 
L 73.906293 -95.376607 
L 73.192273 -95.316992 
L 72.478252 -95.260886 
L 71.764232 -95.208425 
L 71.050211 -95.159689 
L 70.336191 -95.114696 
L 69.622171 -95.073409 
L 68.90815 -95.035735 
L 68.19413 -95.001531 
L 67.480109 -94.970606 
L 66.766089 -94.94273 
L 66.052068 -94.917639 
L 65.338048 -94.895044 
L 64.624028 -94.874633 
L 63.910007 -94.856088 
L 63.195987 -94.839083 
L 62.481966 -94.823299 
L 61.767946 -94.808426 
L 61.053925 -94.794173 
L 60.339905 -94.780271 
L 59.625885 -94.76648 
L 58.911864 -94.752591 
L 58.197844 -94.738431 
L 57.483823 -94.723864 
L 56.769803 -94.708793 
L 56.055782 -94.693156 
L 55.341762 -94.67693 
L 54.627741 -94.660122 
L 53.913721 -94.642775 
L 53.199701 -94.624957 
L 52.48568 -94.606758 
L 51.77166 -94.588287 
L 51.057639 -94.569669 
L 50.343619 -94.551034 
L 49.629598 -94.532519 
L 48.915578 -94.514259 
L 48.201558 -94.496386 
L 47.487537 -94.479021 
L 46.773517 -94.462278 
z
" style="stroke: #414487; stroke-width: 1.25"/>
    </defs>
    <g>
     <use xlink:href="#mb6b1cd195e" x="0" y="174.26" style="fill: #414487; fill-opacity: 0.7; stroke: #414487; stroke-width: 1.25"/>
    </g>
   </g>
   <g id="line2d_4">
    <path d="M 7.2 79.965 
L 216.45 79.965 
" style="fill: none; stroke: #414487; stroke-opacity: 0.9; stroke-linecap: round"/>
   </g>
   <g id="text_4">
    <!-- 3 -->
    <g style="fill: #414487" transform="translate(7.2 79.047) scale(0.12 -0.12)">
     <defs>
      <path id="IBMPlexSans-Bold-33" d="M 1677 2701 
Q 2035 2701 2198 2838 
Q 2362 2976 2362 3181 
L 2362 3226 
Q 2362 3469 2205 3616 
Q 2048 3763 1760 3763 
Q 1491 3763 1254 3625 
Q 1018 3488 851 3232 
L 250 3795 
Q 378 3962 525 4099 
Q 672 4237 857 4336 
Q 1043 4435 1273 4489 
Q 1504 4544 1792 4544 
Q 2150 4544 2441 4461 
Q 2733 4378 2941 4221 
Q 3149 4064 3261 3846 
Q 3373 3629 3373 3360 
Q 3373 3149 3305 2976 
Q 3238 2803 3120 2675 
Q 3002 2547 2848 2467 
Q 2694 2387 2522 2355 
L 2522 2317 
Q 2720 2278 2889 2192 
Q 3059 2106 3184 1971 
Q 3309 1837 3379 1654 
Q 3450 1472 3450 1242 
Q 3450 941 3328 697 
Q 3206 454 2982 281 
Q 2758 109 2444 16 
Q 2131 -77 1754 -77 
Q 1414 -77 1152 -6 
Q 890 64 694 182 
Q 499 301 355 454 
Q 211 608 102 781 
L 813 1331 
Q 960 1056 1174 880 
Q 1389 704 1754 704 
Q 2080 704 2262 867 
Q 2445 1030 2445 1312 
L 2445 1350 
Q 2445 1626 2237 1763 
Q 2029 1901 1664 1901 
L 1261 1901 
L 1261 2701 
L 1677 2701 
z
" transform="scale(0.015625)"/>
     </defs>
     <use xlink:href="#IBMPlexSans-Bold-33"/>
    </g>
   </g>
  </g>
  <g id="axes_5">
   <g id="patch_6">
    <path d="M 7.2 90.36 
L 216.45 90.36 
L 216.45 48.78 
L 7.2 48.78 
L 7.2 90.36 
z
" style="fill: none"/>
   </g>
   <g id="matplotlib.axis_9">
    <g id="xtick_17"/>
    <g id="xtick_18"/>
    <g id="xtick_19"/>
    <g id="xtick_20"/>
   </g>
   <g id="matplotlib.axis_10"/>
   <g id="FillBetweenPolyCollection_4">
    <defs>
     <path id="m0c63d56601" d="M 16.711364 -84.031202 
L 16.711364 -83.9 
L 17.66728 -83.9 
L 18.623196 -83.9 
L 19.579111 -83.9 
L 20.535027 -83.9 
L 21.490943 -83.9 
L 22.446859 -83.9 
L 23.402775 -83.9 
L 24.358691 -83.9 
L 25.314607 -83.9 
L 26.270523 -83.9 
L 27.226439 -83.9 
L 28.182355 -83.9 
L 29.138271 -83.9 
L 30.094187 -83.9 
L 31.050103 -83.9 
L 32.006019 -83.9 
L 32.961935 -83.9 
L 33.917851 -83.9 
L 34.873767 -83.9 
L 35.829683 -83.9 
L 36.785598 -83.9 
L 37.741514 -83.9 
L 38.69743 -83.9 
L 39.653346 -83.9 
L 40.609262 -83.9 
L 41.565178 -83.9 
L 42.521094 -83.9 
L 43.47701 -83.9 
L 44.432926 -83.9 
L 45.388842 -83.9 
L 46.344758 -83.9 
L 47.300674 -83.9 
L 48.25659 -83.9 
L 49.212506 -83.9 
L 50.168422 -83.9 
L 51.124338 -83.9 
L 52.080254 -83.9 
L 53.036169 -83.9 
L 53.992085 -83.9 
L 54.948001 -83.9 
L 55.903917 -83.9 
L 56.859833 -83.9 
L 57.815749 -83.9 
L 58.771665 -83.9 
L 59.727581 -83.9 
L 60.683497 -83.9 
L 61.639413 -83.9 
L 62.595329 -83.9 
L 63.551245 -83.9 
L 64.507161 -83.9 
L 65.463077 -83.9 
L 66.418993 -83.9 
L 67.374909 -83.9 
L 68.330825 -83.9 
L 69.286741 -83.9 
L 70.242656 -83.9 
L 71.198572 -83.9 
L 72.154488 -83.9 
L 73.110404 -83.9 
L 74.06632 -83.9 
L 75.022236 -83.9 
L 75.978152 -83.9 
L 76.934068 -83.9 
L 77.889984 -83.9 
L 78.8459 -83.9 
L 79.801816 -83.9 
L 80.757732 -83.9 
L 81.713648 -83.9 
L 82.669564 -83.9 
L 83.62548 -83.9 
L 84.581396 -83.9 
L 85.537312 -83.9 
L 86.493228 -83.9 
L 87.449143 -83.9 
L 88.405059 -83.9 
L 89.360975 -83.9 
L 90.316891 -83.9 
L 91.272807 -83.9 
L 92.228723 -83.9 
L 93.184639 -83.9 
L 94.140555 -83.9 
L 95.096471 -83.9 
L 96.052387 -83.9 
L 97.008303 -83.9 
L 97.964219 -83.9 
L 98.920135 -83.9 
L 99.876051 -83.9 
L 100.831967 -83.9 
L 101.787883 -83.9 
L 102.743799 -83.9 
L 103.699714 -83.9 
L 104.65563 -83.9 
L 105.611546 -83.9 
L 106.567462 -83.9 
L 107.523378 -83.9 
L 108.479294 -83.9 
L 109.43521 -83.9 
L 110.391126 -83.9 
L 111.347042 -83.9 
L 112.302958 -83.9 
L 113.258874 -83.9 
L 114.21479 -83.9 
L 115.170706 -83.9 
L 116.126622 -83.9 
L 117.082538 -83.9 
L 118.038454 -83.9 
L 118.99437 -83.9 
L 119.950286 -83.9 
L 120.906201 -83.9 
L 121.862117 -83.9 
L 122.818033 -83.9 
L 123.773949 -83.9 
L 124.729865 -83.9 
L 125.685781 -83.9 
L 126.641697 -83.9 
L 127.597613 -83.9 
L 128.553529 -83.9 
L 129.509445 -83.9 
L 130.465361 -83.9 
L 131.421277 -83.9 
L 132.377193 -83.9 
L 133.333109 -83.9 
L 134.289025 -83.9 
L 135.244941 -83.9 
L 136.200857 -83.9 
L 137.156772 -83.9 
L 138.112688 -83.9 
L 139.068604 -83.9 
L 140.02452 -83.9 
L 140.980436 -83.9 
L 141.936352 -83.9 
L 142.892268 -83.9 
L 143.848184 -83.9 
L 144.8041 -83.9 
L 145.760016 -83.9 
L 146.715932 -83.9 
L 147.671848 -83.9 
L 148.627764 -83.9 
L 149.58368 -83.9 
L 150.539596 -83.9 
L 151.495512 -83.9 
L 152.451428 -83.9 
L 153.407344 -83.9 
L 154.363259 -83.9 
L 155.319175 -83.9 
L 156.275091 -83.9 
L 157.231007 -83.9 
L 158.186923 -83.9 
L 159.142839 -83.9 
L 160.098755 -83.9 
L 161.054671 -83.9 
L 162.010587 -83.9 
L 162.966503 -83.9 
L 163.922419 -83.9 
L 164.878335 -83.9 
L 165.834251 -83.9 
L 166.790167 -83.9 
L 167.746083 -83.9 
L 168.701999 -83.9 
L 169.657915 -83.9 
L 170.613831 -83.9 
L 171.569746 -83.9 
L 172.525662 -83.9 
L 173.481578 -83.9 
L 174.437494 -83.9 
L 175.39341 -83.9 
L 176.349326 -83.9 
L 177.305242 -83.9 
L 178.261158 -83.9 
L 179.217074 -83.9 
L 180.17299 -83.9 
L 181.128906 -83.9 
L 182.084822 -83.9 
L 183.040738 -83.9 
L 183.996654 -83.9 
L 184.95257 -83.9 
L 185.908486 -83.9 
L 186.864402 -83.9 
L 187.820317 -83.9 
L 188.776233 -83.9 
L 189.732149 -83.9 
L 190.688065 -83.9 
L 191.643981 -83.9 
L 192.599897 -83.9 
L 193.555813 -83.9 
L 194.511729 -83.9 
L 195.467645 -83.9 
L 196.423561 -83.9 
L 197.379477 -83.9 
L 198.335393 -83.9 
L 199.291309 -83.9 
L 200.247225 -83.9 
L 201.203141 -83.9 
L 202.159057 -83.9 
L 203.114973 -83.9 
L 204.070889 -83.9 
L 205.026804 -83.9 
L 205.98272 -83.9 
L 206.938636 -83.9 
L 206.938636 -84.494899 
L 206.938636 -84.494899 
L 205.98272 -84.573513 
L 205.026804 -84.658762 
L 204.070889 -84.750643 
L 203.114973 -84.849065 
L 202.159057 -84.953852 
L 201.203141 -85.064733 
L 200.247225 -85.181344 
L 199.291309 -85.303234 
L 198.335393 -85.42986 
L 197.379477 -85.560601 
L 196.423561 -85.694765 
L 195.467645 -85.831595 
L 194.511729 -85.970289 
L 193.555813 -86.110009 
L 192.599897 -86.2499 
L 191.643981 -86.389102 
L 190.688065 -86.526773 
L 189.732149 -86.662102 
L 188.776233 -86.794325 
L 187.820317 -86.922745 
L 186.864402 -87.046742 
L 185.908486 -87.165788 
L 184.95257 -87.279461 
L 183.996654 -87.387448 
L 183.040738 -87.489557 
L 182.084822 -87.585723 
L 181.128906 -87.676002 
L 180.17299 -87.760582 
L 179.217074 -87.839772 
L 178.261158 -87.914002 
L 177.305242 -87.983812 
L 176.349326 -88.04985 
L 175.39341 -88.112854 
L 174.437494 -88.173643 
L 173.481578 -88.233107 
L 172.525662 -88.292185 
L 171.569746 -88.351856 
L 170.613831 -88.413119 
L 169.657915 -88.476977 
L 168.701999 -88.544421 
L 167.746083 -88.616414 
L 166.790167 -88.693873 
L 165.834251 -88.777651 
L 164.878335 -88.868526 
L 163.922419 -88.967185 
L 162.966503 -89.074211 
L 162.010587 -89.190067 
L 161.054671 -89.315093 
L 160.098755 -89.449491 
L 159.142839 -89.593321 
L 158.186923 -89.746493 
L 157.231007 -89.908766 
L 156.275091 -90.079744 
L 155.319175 -90.258876 
L 154.363259 -90.445461 
L 153.407344 -90.638648 
L 152.451428 -90.837441 
L 151.495512 -91.040711 
L 150.539596 -91.2472 
L 149.58368 -91.455536 
L 148.627764 -91.66424 
L 147.671848 -91.871744 
L 146.715932 -92.076404 
L 145.760016 -92.27652 
L 144.8041 -92.470348 
L 143.848184 -92.656126 
L 142.892268 -92.832087 
L 141.936352 -92.99649 
L 140.980436 -93.147631 
L 140.02452 -93.283878 
L 139.068604 -93.403682 
L 138.112688 -93.505612 
L 137.156772 -93.588369 
L 136.200857 -93.650813 
L 135.244941 -93.691983 
L 134.289025 -93.711119 
L 133.333109 -93.707672 
L 132.377193 -93.681329 
L 131.421277 -93.632014 
L 130.465361 -93.559903 
L 129.509445 -93.465424 
L 128.553529 -93.349258 
L 127.597613 -93.212328 
L 126.641697 -93.055797 
L 125.685781 -92.881044 
L 124.729865 -92.689651 
L 123.773949 -92.483373 
L 122.818033 -92.264114 
L 121.862117 -92.033891 
L 120.906201 -91.794803 
L 119.950286 -91.548995 
L 118.99437 -91.298619 
L 118.038454 -91.045798 
L 117.082538 -90.792589 
L 116.126622 -90.54095 
L 115.170706 -90.292707 
L 114.21479 -90.04953 
L 113.258874 -89.812904 
L 112.302958 -89.584113 
L 111.347042 -89.364229 
L 110.391126 -89.1541 
L 109.43521 -88.954352 
L 108.479294 -88.765389 
L 107.523378 -88.587407 
L 106.567462 -88.420401 
L 105.611546 -88.264189 
L 104.65563 -88.11843 
L 103.699714 -87.982651 
L 102.743799 -87.856268 
L 101.787883 -87.738621 
L 100.831967 -87.62899 
L 99.876051 -87.526632 
L 98.920135 -87.430798 
L 97.964219 -87.340754 
L 97.008303 -87.255807 
L 96.052387 -87.17531 
L 95.096471 -87.098684 
L 94.140555 -87.025416 
L 93.184639 -86.955068 
L 92.228723 -86.887279 
L 91.272807 -86.821757 
L 90.316891 -86.758276 
L 89.360975 -86.696667 
L 88.405059 -86.636808 
L 87.449143 -86.578614 
L 86.493228 -86.522025 
L 85.537312 -86.466994 
L 84.581396 -86.413477 
L 83.62548 -86.361421 
L 82.669564 -86.310761 
L 81.713648 -86.26141 
L 80.757732 -86.213255 
L 79.801816 -86.166156 
L 78.8459 -86.119948 
L 77.889984 -86.074438 
L 76.934068 -86.029416 
L 75.978152 -85.984656 
L 75.022236 -85.939921 
L 74.06632 -85.894978 
L 73.110404 -85.849599 
L 72.154488 -85.803571 
L 71.198572 -85.756708 
L 70.242656 -85.708853 
L 69.286741 -85.659885 
L 68.330825 -85.609726 
L 67.374909 -85.558345 
L 66.418993 -85.505758 
L 65.463077 -85.452026 
L 64.507161 -85.397262 
L 63.551245 -85.341621 
L 62.595329 -85.285297 
L 61.639413 -85.228521 
L 60.683497 -85.171554 
L 59.727581 -85.114678 
L 58.771665 -85.05819 
L 57.815749 -85.002397 
L 56.859833 -84.947603 
L 55.903917 -84.894106 
L 54.948001 -84.842191 
L 53.992085 -84.792121 
L 53.036169 -84.744132 
L 52.080254 -84.698429 
L 51.124338 -84.655183 
L 50.168422 -84.614523 
L 49.212506 -84.576541 
L 48.25659 -84.541284 
L 47.300674 -84.508759 
L 46.344758 -84.478929 
L 45.388842 -84.451721 
L 44.432926 -84.427021 
L 43.47701 -84.404684 
L 42.521094 -84.384535 
L 41.565178 -84.366374 
L 40.609262 -84.349981 
L 39.653346 -84.335124 
L 38.69743 -84.321559 
L 37.741514 -84.309045 
L 36.785598 -84.297341 
L 35.829683 -84.286215 
L 34.873767 -84.275453 
L 33.917851 -84.264855 
L 32.961935 -84.254247 
L 32.006019 -84.24348 
L 31.050103 -84.232434 
L 30.094187 -84.221017 
L 29.138271 -84.209169 
L 28.182355 -84.196856 
L 27.226439 -84.184076 
L 26.270523 -84.170852 
L 25.314607 -84.157228 
L 24.358691 -84.143273 
L 23.402775 -84.129067 
L 22.446859 -84.114707 
L 21.490943 -84.100295 
L 20.535027 -84.085939 
L 19.579111 -84.071749 
L 18.623196 -84.057831 
L 17.66728 -84.044285 
L 16.711364 -84.031202 
z
" style="stroke: #482475; stroke-width: 1.25"/>
    </defs>
    <g>
     <use xlink:href="#m0c63d56601" x="0" y="174.26" style="fill: #482475; fill-opacity: 0.7; stroke: #482475; stroke-width: 1.25"/>
    </g>
   </g>
   <g id="line2d_5">
    <path d="M 7.2 90.36 
L 216.45 90.36 
" style="fill: none; stroke: #482475; stroke-opacity: 0.9; stroke-linecap: round"/>
   </g>
   <g id="text_5">
    <!-- 4 -->
    <g style="fill: #482475" transform="translate(7.2 89.442) scale(0.12 -0.12)">
     <defs>
      <path id="IBMPlexSans-Bold-34" d="M 2157 0 
L 2157 858 
L 192 858 
L 192 1677 
L 1933 4467 
L 3072 4467 
L 3072 1600 
L 3635 1600 
L 3635 858 
L 3072 858 
L 3072 0 
L 2157 0 
z
M 960 1600 
L 2157 1600 
L 2157 3475 
L 2093 3475 
L 960 1600 
z
" transform="scale(0.015625)"/>
     </defs>
     <use xlink:href="#IBMPlexSans-Bold-34"/>
    </g>
   </g>
  </g>
  <g id="axes_6">
   <g id="patch_7">
    <path d="M 7.2 100.755 
L 216.45 100.755 
L 216.45 59.175 
L 7.2 59.175 
L 7.2 100.755 
z
" style="fill: none"/>
   </g>
   <g id="matplotlib.axis_11">
    <g id="xtick_21"/>
    <g id="xtick_22"/>
    <g id="xtick_23"/>
    <g id="xtick_24"/>
   </g>
   <g id="matplotlib.axis_12"/>
   <g id="line2d_6">
    <path d="M 7.2 100.755 
L 216.45 100.755 
" style="fill: none; stroke: #21918c; stroke-opacity: 0.9; stroke-linecap: round"/>
   </g>
   <g id="text_6">
    <!-- 5 -->
    <g style="fill: #21918c" transform="translate(7.2 99.837) scale(0.12 -0.12)">
     <defs>
      <path id="IBMPlexSans-Bold-35" d="M 3341 3629 
L 1312 3629 
L 1216 2214 
L 1267 2214 
Q 1331 2374 1411 2505 
Q 1491 2637 1600 2729 
Q 1709 2822 1862 2873 
Q 2016 2925 2227 2925 
Q 2515 2925 2764 2829 
Q 3014 2733 3200 2550 
Q 3386 2368 3494 2102 
Q 3603 1837 3603 1504 
Q 3603 1165 3491 873 
Q 3379 582 3158 371 
Q 2938 160 2618 41 
Q 2298 -77 1888 -77 
Q 1562 -77 1312 -6 
Q 1062 64 870 182 
Q 678 301 537 454 
Q 397 608 294 781 
L 992 1331 
Q 1139 1069 1344 886 
Q 1549 704 1894 704 
Q 2240 704 2416 902 
Q 2592 1101 2592 1427 
L 2592 1478 
Q 2592 1786 2413 1965 
Q 2234 2144 1920 2144 
Q 1658 2144 1488 2038 
Q 1318 1933 1229 1830 
L 442 1939 
L 608 4467 
L 3341 4467 
L 3341 3629 
z
" transform="scale(0.015625)"/>
     </defs>
     <use xlink:href="#IBMPlexSans-Bold-35"/>
    </g>
   </g>
  </g>
  <g id="axes_7">
   <g id="patch_8">
    <path d="M 7.2 111.15 
L 216.45 111.15 
L 216.45 69.57 
L 7.2 69.57 
L 7.2 111.15 
z
" style="fill: none"/>
   </g>
   <g id="matplotlib.axis_13">
    <g id="xtick_25"/>
    <g id="xtick_26"/>
    <g id="xtick_27"/>
    <g id="xtick_28"/>
   </g>
   <g id="matplotlib.axis_14"/>
   <g id="line2d_7">
    <path d="M 7.2 111.15 
L 216.45 111.15 
" style="fill: none; stroke: #21918c; stroke-opacity: 0.9; stroke-linecap: round"/>
   </g>
   <g id="text_7">
    <!-- 6 -->
    <g style="fill: #21918c" transform="translate(7.2 110.232) scale(0.12 -0.12)">
     <defs>
      <path id="IBMPlexSans-Bold-36" d="M 1946 -77 
Q 1549 -77 1235 48 
Q 922 173 707 406 
Q 493 640 381 966 
Q 269 1293 269 1696 
Q 269 2163 413 2582 
Q 557 3002 784 3357 
Q 1011 3712 1296 3993 
Q 1581 4275 1869 4467 
L 3194 4467 
Q 2784 4173 2457 3907 
Q 2131 3642 1891 3373 
Q 1651 3104 1494 2825 
Q 1338 2547 1274 2227 
L 1331 2208 
Q 1389 2336 1469 2457 
Q 1549 2579 1667 2672 
Q 1786 2765 1946 2822 
Q 2106 2880 2317 2880 
Q 2592 2880 2832 2781 
Q 3072 2682 3248 2502 
Q 3424 2323 3523 2064 
Q 3622 1805 3622 1491 
Q 3622 1146 3504 858 
Q 3386 570 3165 362 
Q 2944 154 2637 38 
Q 2330 -77 1946 -77 
z
M 1946 672 
Q 2266 672 2445 848 
Q 2624 1024 2624 1350 
L 2624 1466 
Q 2624 1792 2445 1968 
Q 2266 2144 1946 2144 
Q 1626 2144 1446 1968 
Q 1267 1792 1267 1466 
L 1267 1350 
Q 1267 1024 1446 848 
Q 1626 672 1946 672 
z
" transform="scale(0.015625)"/>
     </defs>
     <use xlink:href="#IBMPlexSans-Bold-36"/>
    </g>
   </g>
  </g>
  <g id="axes_8">
   <g id="patch_9">
    <path d="M 7.2 121.545 
L 216.45 121.545 
L 216.45 79.965 
L 7.2 79.965 
L 7.2 121.545 
z
" style="fill: none"/>
   </g>
   <g id="matplotlib.axis_15">
    <g id="xtick_29"/>
    <g id="xtick_30"/>
    <g id="xtick_31"/>
    <g id="xtick_32"/>
   </g>
   <g id="matplotlib.axis_16"/>
   <g id="line2d_8">
    <path d="M 7.2 121.545 
L 216.45 121.545 
" style="fill: none; stroke: #21918c; stroke-opacity: 0.9; stroke-linecap: round"/>
   </g>
   <g id="text_8">
    <!-- 7 -->
    <g style="fill: #21918c" transform="translate(7.2 120.627) scale(0.12 -0.12)">
     <defs>
      <path id="IBMPlexSans-Bold-37" d="M 1062 0 
L 2560 3686 
L 1165 3686 
L 1165 2874 
L 352 2874 
L 352 4467 
L 3514 4467 
L 3514 3635 
L 2074 0 
L 1062 0 
z
" transform="scale(0.015625)"/>
     </defs>
     <use xlink:href="#IBMPlexSans-Bold-37"/>
    </g>
   </g>
  </g>
  <g id="axes_9">
   <g id="patch_10">
    <path d="M 7.2 131.94 
L 216.45 131.94 
L 216.45 90.36 
L 7.2 90.36 
L 7.2 131.94 
z
" style="fill: none"/>
   </g>
   <g id="matplotlib.axis_17">
    <g id="xtick_33">
     <g id="text_9">
      <!-- −5.0 -->
      <g style="fill: #838383" transform="translate(35.191963 149.58) scale(0.11 -0.11)">
       <defs>
        <path id="IBMPlexSans-Regular-2212" d="M 429 1734 
L 429 2170 
L 3411 2170 
L 3411 1734 
L 429 1734 
z
" transform="scale(0.015625)"/>
        <path id="IBMPlexSans-Regular-35" d="M 3187 3994 
L 1229 3994 
L 1101 2291 
L 1146 2291 
Q 1306 2515 1507 2649 
Q 1709 2784 2061 2784 
Q 2349 2784 2592 2688 
Q 2835 2592 3014 2416 
Q 3194 2240 3293 1984 
Q 3392 1728 3392 1402 
Q 3392 1075 3289 803 
Q 3187 531 2992 336 
Q 2797 141 2518 32 
Q 2240 -77 1888 -77 
Q 1606 -77 1392 -13 
Q 1178 51 1011 160 
Q 845 269 720 403 
Q 595 538 493 685 
L 896 992 
Q 979 858 1072 749 
Q 1165 640 1277 563 
Q 1389 486 1536 444 
Q 1683 403 1888 403 
Q 2349 403 2585 646 
Q 2822 890 2822 1331 
L 2822 1395 
Q 2822 1837 2585 2080 
Q 2349 2323 1888 2323 
Q 1581 2323 1405 2211 
Q 1229 2099 1088 1946 
L 634 2010 
L 794 4467 
L 3187 4467 
L 3187 3994 
z
" transform="scale(0.015625)"/>
        <path id="IBMPlexSans-Regular-2e" d="M 870 -77 
Q 666 -77 573 25 
Q 480 128 480 294 
L 480 378 
Q 480 544 573 646 
Q 666 749 870 749 
Q 1075 749 1168 646 
Q 1261 544 1261 378 
L 1261 294 
Q 1261 128 1168 25 
Q 1075 -77 870 -77 
z
" transform="scale(0.015625)"/>
        <path id="IBMPlexSans-Regular-30" d="M 1920 -77 
Q 1120 -77 752 531 
Q 384 1139 384 2234 
Q 384 3328 752 3936 
Q 1120 4544 1920 4544 
Q 2720 4544 3088 3936 
Q 3456 3328 3456 2234 
Q 3456 1139 3088 531 
Q 2720 -77 1920 -77 
z
M 1920 390 
Q 2182 390 2368 499 
Q 2554 608 2669 806 
Q 2784 1005 2838 1273 
Q 2893 1542 2893 1869 
L 2893 2598 
Q 2893 2925 2838 3193 
Q 2784 3462 2669 3660 
Q 2554 3859 2368 3968 
Q 2182 4077 1920 4077 
Q 1658 4077 1472 3968 
Q 1286 3859 1171 3660 
Q 1056 3462 1001 3193 
Q 947 2925 947 2598 
L 947 1869 
Q 947 1542 1001 1273 
Q 1056 1005 1171 806 
Q 1286 608 1472 499 
Q 1658 390 1920 390 
z
" transform="scale(0.015625)"/>
       </defs>
       <use xlink:href="#IBMPlexSans-Regular-2212"/>
       <use xlink:href="#IBMPlexSans-Regular-35" transform="translate(59.999985 0)"/>
       <use xlink:href="#IBMPlexSans-Regular-2e" transform="translate(119.999969 0)"/>
       <use xlink:href="#IBMPlexSans-Regular-30" transform="translate(147.199966 0)"/>
      </g>
     </g>
    </g>
    <g id="xtick_34">
     <g id="text_10">
      <!-- −2.5 -->
      <g style="fill: #838383" transform="translate(80.430824 149.58) scale(0.11 -0.11)">
       <defs>
        <path id="IBMPlexSans-Regular-32" d="M 3411 0 
L 480 0 
L 480 550 
L 1939 1894 
Q 2253 2182 2464 2505 
Q 2675 2829 2675 3155 
L 2675 3232 
Q 2675 3603 2470 3833 
Q 2266 4064 1850 4064 
Q 1645 4064 1491 4006 
Q 1338 3949 1226 3846 
Q 1114 3744 1040 3606 
Q 966 3469 922 3309 
L 442 3494 
Q 506 3693 618 3881 
Q 730 4070 899 4217 
Q 1069 4365 1309 4454 
Q 1549 4544 1875 4544 
Q 2202 4544 2458 4448 
Q 2714 4352 2886 4179 
Q 3059 4006 3152 3769 
Q 3245 3533 3245 3245 
Q 3245 2982 3171 2758 
Q 3098 2534 2970 2332 
Q 2842 2131 2659 1939 
Q 2477 1747 2266 1555 
L 1062 474 
L 3411 474 
L 3411 0 
z
" transform="scale(0.015625)"/>
       </defs>
       <use xlink:href="#IBMPlexSans-Regular-2212"/>
       <use xlink:href="#IBMPlexSans-Regular-32" transform="translate(59.999985 0)"/>
       <use xlink:href="#IBMPlexSans-Regular-2e" transform="translate(119.999969 0)"/>
       <use xlink:href="#IBMPlexSans-Regular-35" transform="translate(147.199966 0)"/>
      </g>
     </g>
    </g>
    <g id="xtick_35">
     <g id="text_11">
      <!-- 0.0 -->
      <g style="fill: #838383" transform="translate(128.969684 149.58) scale(0.11 -0.11)">
       <use xlink:href="#IBMPlexSans-Regular-30"/>
       <use xlink:href="#IBMPlexSans-Regular-2e" transform="translate(59.999985 0)"/>
       <use xlink:href="#IBMPlexSans-Regular-30" transform="translate(87.199982 0)"/>
      </g>
     </g>
    </g>
    <g id="xtick_36">
     <g id="text_12">
      <!-- 2.5 -->
      <g style="fill: #838383" transform="translate(174.208544 149.58) scale(0.11 -0.11)">
       <use xlink:href="#IBMPlexSans-Regular-32"/>
       <use xlink:href="#IBMPlexSans-Regular-2e" transform="translate(59.999985 0)"/>
       <use xlink:href="#IBMPlexSans-Regular-35" transform="translate(87.199982 0)"/>
      </g>
     </g>
    </g>
    <g id="text_13">
     <!-- sldf -->
     <g style="fill: #262626" transform="translate(101.84625 164.66) scale(0.12 -0.12)">
      <defs>
       <path id="IBMPlexSans-Regular-73" d="M 1536 -77 
Q 1075 -77 764 99 
Q 454 275 230 570 
L 595 864 
Q 787 621 1024 489 
Q 1261 358 1574 358 
Q 1901 358 2083 499 
Q 2266 640 2266 896 
Q 2266 1088 2141 1225 
Q 2016 1363 1690 1414 
L 1427 1453 
Q 1197 1485 1005 1552 
Q 813 1619 669 1731 
Q 525 1843 445 2009 
Q 365 2176 365 2406 
Q 365 2650 454 2832 
Q 544 3014 701 3136 
Q 858 3258 1075 3318 
Q 1293 3379 1542 3379 
Q 1946 3379 2218 3238 
Q 2490 3098 2694 2848 
L 2355 2541 
Q 2246 2694 2035 2819 
Q 1824 2944 1504 2944 
Q 1184 2944 1021 2806 
Q 858 2669 858 2432 
Q 858 2189 1021 2080 
Q 1184 1971 1491 1920 
L 1747 1882 
Q 2298 1798 2528 1564 
Q 2758 1331 2758 954 
Q 2758 474 2432 198 
Q 2106 -77 1536 -77 
z
" transform="scale(0.015625)"/>
       <path id="IBMPlexSans-Regular-6c" d="M 1088 0 
Q 819 0 681 150 
Q 544 301 544 531 
L 544 4736 
L 1056 4736 
L 1056 448 
L 1542 448 
L 1542 0 
L 1088 0 
z
" transform="scale(0.015625)"/>
       <path id="IBMPlexSans-Regular-64" d="M 2656 538 
L 2630 538 
Q 2330 -77 1664 -77 
Q 1357 -77 1107 44 
Q 858 166 682 390 
Q 506 614 413 934 
Q 320 1254 320 1651 
Q 320 2048 413 2368 
Q 506 2688 682 2912 
Q 858 3136 1107 3257 
Q 1357 3379 1664 3379 
Q 2010 3379 2256 3228 
Q 2502 3078 2630 2765 
L 2656 2765 
L 2656 4736 
L 3168 4736 
L 3168 0 
L 2656 0 
L 2656 538 
z
M 1805 384 
Q 1978 384 2134 429 
Q 2291 474 2406 560 
Q 2522 646 2589 771 
Q 2656 896 2656 1056 
L 2656 2285 
Q 2656 2419 2589 2537 
Q 2522 2656 2406 2739 
Q 2291 2822 2134 2870 
Q 1978 2918 1805 2918 
Q 1370 2918 1120 2646 
Q 870 2374 870 1933 
L 870 1370 
Q 870 928 1120 656 
Q 1370 384 1805 384 
z
" transform="scale(0.015625)"/>
       <path id="IBMPlexSans-Regular-66" d="M 723 2854 
L 186 2854 
L 186 3302 
L 723 3302 
L 723 3968 
Q 723 4314 902 4525 
Q 1082 4736 1446 4736 
L 1946 4736 
L 1946 4288 
L 1235 4288 
L 1235 3302 
L 1946 3302 
L 1946 2854 
L 1235 2854 
L 1235 0 
L 723 0 
L 723 2854 
z
" transform="scale(0.015625)"/>
      </defs>
      <use xlink:href="#IBMPlexSans-Regular-73"/>
      <use xlink:href="#IBMPlexSans-Regular-6c" transform="translate(48.699997 0)"/>
      <use xlink:href="#IBMPlexSans-Regular-64" transform="translate(75.899994 0)"/>
      <use xlink:href="#IBMPlexSans-Regular-66" transform="translate(133.899979 0)"/>
     </g>
    </g>
   </g>
   <g id="matplotlib.axis_18"/>
   <g id="line2d_9">
    <path d="M 7.2 131.94 
L 216.45 131.94 
" style="fill: none; stroke: #21918c; stroke-opacity: 0.9; stroke-linecap: round"/>
   </g>
   <g id="text_14">
    <!-- 8 -->
    <g style="fill: #21918c" transform="translate(7.2 131.022) scale(0.12 -0.12)">
     <defs>
      <path id="IBMPlexSans-Bold-38" d="M 1920 -77 
Q 1523 -77 1212 22 
Q 902 122 691 294 
Q 480 467 368 704 
Q 256 941 256 1222 
Q 256 1651 493 1923 
Q 730 2195 1133 2304 
L 1133 2355 
Q 806 2477 598 2726 
Q 390 2976 390 3366 
Q 390 3622 489 3840 
Q 589 4058 784 4214 
Q 979 4371 1264 4457 
Q 1549 4544 1920 4544 
Q 2291 4544 2576 4457 
Q 2861 4371 3056 4214 
Q 3251 4058 3350 3840 
Q 3450 3622 3450 3366 
Q 3450 2976 3242 2726 
Q 3034 2477 2707 2355 
L 2707 2304 
Q 3110 2195 3347 1923 
Q 3584 1651 3584 1222 
Q 3584 941 3472 704 
Q 3360 467 3149 294 
Q 2938 122 2627 22 
Q 2317 -77 1920 -77 
z
M 1920 659 
Q 2240 659 2409 809 
Q 2579 960 2579 1229 
L 2579 1357 
Q 2579 1626 2409 1776 
Q 2240 1926 1920 1926 
Q 1600 1926 1430 1776 
Q 1261 1626 1261 1357 
L 1261 1229 
Q 1261 960 1430 809 
Q 1600 659 1920 659 
z
M 1920 2630 
Q 2227 2630 2387 2774 
Q 2547 2918 2547 3168 
L 2547 3270 
Q 2547 3520 2387 3664 
Q 2227 3808 1920 3808 
Q 1613 3808 1453 3664 
Q 1293 3520 1293 3270 
L 1293 3168 
Q 1293 2918 1453 2774 
Q 1613 2630 1920 2630 
z
" transform="scale(0.015625)"/>
     </defs>
     <use xlink:href="#IBMPlexSans-Bold-38"/>
    </g>
   </g>
  </g>
 </g>
</svg>
