<?xml version="1.0" encoding="utf-8" standalone="no"?>
<!DOCTYPE svg PUBLIC "-//W3C//DTD SVG 1.1//EN"
  "http://www.w3.org/Graphics/SVG/1.1/DTD/svg11.dtd">
<svg xmlns:xlink="http://www.w3.org/1999/xlink" width="223.65pt" height="174.26pt" viewBox="0 0 223.65 174.26" xmlns="http://www.w3.org/2000/svg" version="1.1">
 <metadata>
  <rdf:RDF xmlns:dc="http://purl.org/dc/elements/1.1/" xmlns:cc="http://creativecommons.org/ns#" xmlns:rdf="http://www.w3.org/1999/02/22-rdf-syntax-ns#">
   <cc:Work>
    <dc:type rdf:resource="http://purl.org/dc/dcmitype/StillImage"/>
    <dc:date>2025-07-24T17:02:10.244705</dc:date>
    <dc:format>image/svg+xml</dc:format>
    <dc:creator>
     <cc:Agent>
      <dc:title>Matplotlib v3.10.1, https://matplotlib.org/</dc:title>
     </cc:Agent>
    </dc:creator>
   </cc:Work>
  </rdf:RDF>
 </metadata>
 <defs>
  <style type="text/css">*{stroke-linejoin: round; stroke-linecap: butt}</style>
 </defs>
 <g id="figure_1">
  <g id="patch_1">
   <path d="M 0 174.26 
L 223.65 174.26 
L 223.65 0 
L 0 0 
L 0 174.26 
z
" style="fill: none"/>
  </g>
  <g id="axes_1">
   <g id="patch_2">
    <path d="M 7.2 48.78 
L 216.45 48.78 
L 216.45 7.2 
L 7.2 7.2 
L 7.2 48.78 
z
" style="fill: none"/>
   </g>
   <g id="matplotlib.axis_1">
    <g id="xtick_1"/>
    <g id="xtick_2"/>
    <g id="xtick_3"/>
    <g id="xtick_4"/>
   </g>
   <g id="matplotlib.axis_2"/>
   <g id="line2d_1">
    <path d="M 7.2 48.78 
L 216.45 48.78 
" style="fill: none; stroke: #482475; stroke-opacity: 0.9; stroke-linecap: round"/>
   </g>
   <g id="text_1">
    <!-- 0 -->
    <g style="fill: #482475" transform="translate(7.2 47.862) scale(0.12 -0.12)">
     <defs>
      <path id="IBMPlexSans-Bold-30" d="M 1920 -77 
Q 1043 -77 620 531 
Q 198 1139 198 2234 
Q 198 3328 620 3936 
Q 1043 4544 1920 4544 
Q 2797 4544 3219 3936 
Q 3642 3328 3642 2234 
Q 3642 1139 3219 531 
Q 2797 -77 1920 -77 
z
M 1920 736 
Q 2304 736 2451 1017 
Q 2598 1299 2598 1811 
L 2598 2656 
Q 2598 3168 2451 3449 
Q 2304 3731 1920 3731 
Q 1536 3731 1389 3449 
Q 1242 3168 1242 2656 
L 1242 1811 
Q 1242 1299 1389 1017 
Q 1536 736 1920 736 
z
" transform="scale(0.015625)"/>
     </defs>
     <use xlink:href="#IBMPlexSans-Bold-30"/>
    </g>
   </g>
  </g>
  <g id="axes_2">
   <g id="patch_3">
    <path d="M 7.2 59.175 
L 216.45 59.175 
L 216.45 17.595 
L 7.2 17.595 
L 7.2 59.175 
z
" style="fill: none"/>
   </g>
   <g id="matplotlib.axis_3">
    <g id="xtick_5"/>
    <g id="xtick_6"/>
    <g id="xtick_7"/>
    <g id="xtick_8"/>
   </g>
   <g id="matplotlib.axis_4"/>
   <g id="FillBetweenPolyCollection_1">
    <defs>
     <path id="m1f9fe79888" d="M 41.026301 -116.291188 
L 41.026301 -115.085 
L 41.260013 -115.085 
L 41.493725 -115.085 
L 41.727437 -115.085 
L 41.961149 -115.085 
L 42.19486 -115.085 
L 42.428572 -115.085 
L 42.662284 -115.085 
L 42.895996 -115.085 
L 43.129708 -115.085 
L 43.36342 -115.085 
L 43.597132 -115.085 
L 43.830844 -115.085 
L 44.064556 -115.085 
L 44.298268 -115.085 
L 44.53198 -115.085 
L 44.765692 -115.085 
L 44.999404 -115.085 
L 45.233116 -115.085 
L 45.466828 -115.085 
L 45.70054 -115.085 
L 45.934252 -115.085 
L 46.167963 -115.085 
L 46.401675 -115.085 
L 46.635387 -115.085 
L 46.869099 -115.085 
L 47.102811 -115.085 
L 47.336523 -115.085 
L 47.570235 -115.085 
L 47.803947 -115.085 
L 48.037659 -115.085 
L 48.271371 -115.085 
L 48.505083 -115.085 
L 48.738795 -115.085 
L 48.972507 -115.085 
L 49.206219 -115.085 
L 49.439931 -115.085 
L 49.673643 -115.085 
L 49.907355 -115.085 
L 50.141067 -115.085 
L 50.374778 -115.085 
L 50.60849 -115.085 
L 50.842202 -115.085 
L 51.075914 -115.085 
L 51.309626 -115.085 
L 51.543338 -115.085 
L 51.77705 -115.085 
L 52.010762 -115.085 
L 52.244474 -115.085 
L 52.478186 -115.085 
L 52.711898 -115.085 
L 52.94561 -115.085 
L 53.179322 -115.085 
L 53.413034 -115.085 
L 53.646746 -115.085 
L 53.880458 -115.085 
L 54.11417 -115.085 
L 54.347881 -115.085 
L 54.581593 -115.085 
L 54.815305 -115.085 
L 55.049017 -115.085 
L 55.282729 -115.085 
L 55.516441 -115.085 
L 55.750153 -115.085 
L 55.983865 -115.085 
L 56.217577 -115.085 
L 56.451289 -115.085 
L 56.685001 -115.085 
L 56.918713 -115.085 
L 57.152425 -115.085 
L 57.386137 -115.085 
L 57.619849 -115.085 
L 57.853561 -115.085 
L 58.087273 -115.085 
L 58.320985 -115.085 
L 58.554696 -115.085 
L 58.788408 -115.085 
L 59.02212 -115.085 
L 59.255832 -115.085 
L 59.489544 -115.085 
L 59.723256 -115.085 
L 59.956968 -115.085 
L 60.19068 -115.085 
L 60.424392 -115.085 
L 60.658104 -115.085 
L 60.891816 -115.085 
L 61.125528 -115.085 
L 61.35924 -115.085 
L 61.592952 -115.085 
L 61.826664 -115.085 
L 62.060376 -115.085 
L 62.294088 -115.085 
L 62.527799 -115.085 
L 62.761511 -115.085 
L 62.995223 -115.085 
L 63.228935 -115.085 
L 63.462647 -115.085 
L 63.696359 -115.085 
L 63.930071 -115.085 
L 64.163783 -115.085 
L 64.397495 -115.085 
L 64.631207 -115.085 
L 64.864919 -115.085 
L 65.098631 -115.085 
L 65.332343 -115.085 
L 65.566055 -115.085 
L 65.799767 -115.085 
L 66.033479 -115.085 
L 66.267191 -115.085 
L 66.500903 -115.085 
L 66.734614 -115.085 
L 66.968326 -115.085 
L 67.202038 -115.085 
L 67.43575 -115.085 
L 67.669462 -115.085 
L 67.903174 -115.085 
L 68.136886 -115.085 
L 68.370598 -115.085 
L 68.60431 -115.085 
L 68.838022 -115.085 
L 69.071734 -115.085 
L 69.305446 -115.085 
L 69.539158 -115.085 
L 69.77287 -115.085 
L 70.006582 -115.085 
L 70.240294 -115.085 
L 70.474006 -115.085 
L 70.707717 -115.085 
L 70.941429 -115.085 
L 71.175141 -115.085 
L 71.408853 -115.085 
L 71.642565 -115.085 
L 71.876277 -115.085 
L 72.109989 -115.085 
L 72.343701 -115.085 
L 72.577413 -115.085 
L 72.811125 -115.085 
L 73.044837 -115.085 
L 73.278549 -115.085 
L 73.512261 -115.085 
L 73.745973 -115.085 
L 73.979685 -115.085 
L 74.213397 -115.085 
L 74.447109 -115.085 
L 74.680821 -115.085 
L 74.914532 -115.085 
L 75.148244 -115.085 
L 75.381956 -115.085 
L 75.615668 -115.085 
L 75.84938 -115.085 
L 76.083092 -115.085 
L 76.316804 -115.085 
L 76.550516 -115.085 
L 76.784228 -115.085 
L 77.01794 -115.085 
L 77.251652 -115.085 
L 77.485364 -115.085 
L 77.719076 -115.085 
L 77.952788 -115.085 
L 78.1865 -115.085 
L 78.420212 -115.085 
L 78.653924 -115.085 
L 78.887635 -115.085 
L 79.121347 -115.085 
L 79.355059 -115.085 
L 79.588771 -115.085 
L 79.822483 -115.085 
L 80.056195 -115.085 
L 80.289907 -115.085 
L 80.523619 -115.085 
L 80.757331 -115.085 
L 80.991043 -115.085 
L 81.224755 -115.085 
L 81.458467 -115.085 
L 81.692179 -115.085 
L 81.925891 -115.085 
L 82.159603 -115.085 
L 82.393315 -115.085 
L 82.627027 -115.085 
L 82.860739 -115.085 
L 83.09445 -115.085 
L 83.328162 -115.085 
L 83.561874 -115.085 
L 83.795586 -115.085 
L 84.029298 -115.085 
L 84.26301 -115.085 
L 84.496722 -115.085 
L 84.730434 -115.085 
L 84.964146 -115.085 
L 85.197858 -115.085 
L 85.43157 -115.085 
L 85.665282 -115.085 
L 85.898994 -115.085 
L 86.132706 -115.085 
L 86.366418 -115.085 
L 86.60013 -115.085 
L 86.833842 -115.085 
L 87.067553 -115.085 
L 87.301265 -115.085 
L 87.534977 -115.085 
L 87.534977 -115.706121 
L 87.534977 -115.706121 
L 87.301265 -115.768986 
L 87.067553 -115.835073 
L 86.833842 -115.904207 
L 86.60013 -115.976185 
L 86.366418 -116.050784 
L 86.132706 -116.127763 
L 85.898994 -116.20687 
L 85.665282 -116.28785 
L 85.43157 -116.37045 
L 85.197858 -116.454424 
L 84.964146 -116.53954 
L 84.730434 -116.625586 
L 84.496722 -116.712373 
L 84.26301 -116.799738 
L 84.029298 -116.88755 
L 83.795586 -116.975709 
L 83.561874 -117.064144 
L 83.328162 -117.152819 
L 83.09445 -117.241726 
L 82.860739 -117.330888 
L 82.627027 -117.420347 
L 82.393315 -117.510172 
L 82.159603 -117.600444 
L 81.925891 -117.691257 
L 81.692179 -117.782711 
L 81.458467 -117.874906 
L 81.224755 -117.967936 
L 80.991043 -118.061884 
L 80.757331 -118.156814 
L 80.523619 -118.252768 
L 80.289907 -118.349756 
L 80.056195 -118.447755 
L 79.822483 -118.546704 
L 79.588771 -118.646497 
L 79.355059 -118.746985 
L 79.121347 -118.847974 
L 78.887635 -118.949223 
L 78.653924 -119.050453 
L 78.420212 -119.151349 
L 78.1865 -119.251566 
L 77.952788 -119.350745 
L 77.719076 -119.448523 
L 77.485364 -119.544546 
L 77.251652 -119.638491 
L 77.01794 -119.730082 
L 76.784228 -119.819111 
L 76.550516 -119.905457 
L 76.316804 -119.989106 
L 76.083092 -120.070171 
L 75.84938 -120.148904 
L 75.615668 -120.225713 
L 75.381956 -120.301166 
L 75.148244 -120.376001 
L 74.914532 -120.45112 
L 74.680821 -120.527581 
L 74.447109 -120.60659 
L 74.213397 -120.689481 
L 73.979685 -120.77769 
L 73.745973 -120.872726 
L 73.512261 -120.976143 
L 73.278549 -121.089498 
L 73.044837 -121.214318 
L 72.811125 -121.352058 
L 72.577413 -121.504065 
L 72.343701 -121.671544 
L 72.109989 -121.855521 
L 71.876277 -122.05682 
L 71.642565 -122.276037 
L 71.408853 -122.513528 
L 71.175141 -122.769394 
L 70.941429 -123.043487 
L 70.707717 -123.335407 
L 70.474006 -123.644524 
L 70.240294 -123.969985 
L 70.006582 -124.310748 
L 69.77287 -124.665607 
L 69.539158 -125.033221 
L 69.305446 -125.412153 
L 69.071734 -125.800899 
L 68.838022 -126.197925 
L 68.60431 -126.6017 
L 68.370598 -127.010718 
L 68.136886 -127.42353 
L 67.903174 -127.838762 
L 67.669462 -128.255128 
L 67.43575 -128.671444 
L 67.202038 -129.086631 
L 66.968326 -129.499717 
L 66.734614 -129.909835 
L 66.500903 -130.316218 
L 66.267191 -130.718187 
L 66.033479 -131.115145 
L 65.799767 -131.506566 
L 65.566055 -131.891981 
L 65.332343 -132.270972 
L 65.098631 -132.643163 
L 64.864919 -133.008206 
L 64.631207 -133.365782 
L 64.397495 -133.715591 
L 64.163783 -134.057347 
L 63.930071 -134.390776 
L 63.696359 -134.715611 
L 63.462647 -135.03159 
L 63.228935 -135.338449 
L 62.995223 -135.635919 
L 62.761511 -135.923722 
L 62.527799 -136.201567 
L 62.294088 -136.469141 
L 62.060376 -136.726107 
L 61.826664 -136.972102 
L 61.592952 -137.206729 
L 61.35924 -137.429565 
L 61.125528 -137.640156 
L 60.891816 -137.838026 
L 60.658104 -138.022682 
L 60.424392 -138.19363 
L 60.19068 -138.350383 
L 59.956968 -138.49248 
L 59.723256 -138.619501 
L 59.489544 -138.731083 
L 59.255832 -138.826939 
L 59.02212 -138.906867 
L 58.788408 -138.970762 
L 58.554696 -139.018624 
L 58.320985 -139.050552 
L 58.087273 -139.066744 
L 57.853561 -139.067484 
L 57.619849 -139.053124 
L 57.386137 -139.024059 
L 57.152425 -138.980706 
L 56.918713 -138.923468 
L 56.685001 -138.852709 
L 56.451289 -138.768719 
L 56.217577 -138.671691 
L 55.983865 -138.561694 
L 55.750153 -138.43866 
L 55.516441 -138.302371 
L 55.282729 -138.152461 
L 55.049017 -137.988423 
L 54.815305 -137.809626 
L 54.581593 -137.615342 
L 54.347881 -137.404777 
L 54.11417 -137.177116 
L 53.880458 -136.931561 
L 53.646746 -136.667381 
L 53.413034 -136.383957 
L 53.179322 -136.080824 
L 52.94561 -135.757716 
L 52.711898 -135.41459 
L 52.478186 -135.051658 
L 52.244474 -134.669395 
L 52.010762 -134.268552 
L 51.77705 -133.85014 
L 51.543338 -133.415421 
L 51.309626 -132.96588 
L 51.075914 -132.50319 
L 50.842202 -132.029176 
L 50.60849 -131.545764 
L 50.374778 -131.054938 
L 50.141067 -130.55869 
L 49.907355 -130.058973 
L 49.673643 -129.557662 
L 49.439931 -129.056511 
L 49.206219 -128.557125 
L 48.972507 -128.060934 
L 48.738795 -127.569183 
L 48.505083 -127.082917 
L 48.271371 -126.602988 
L 48.037659 -126.130063 
L 47.803947 -125.664636 
L 47.570235 -125.207051 
L 47.336523 -124.757526 
L 47.102811 -124.316183 
L 46.869099 -123.883073 
L 46.635387 -123.458206 
L 46.401675 -123.041581 
L 46.167963 -122.633207 
L 45.934252 -122.233125 
L 45.70054 -121.841425 
L 45.466828 -121.458256 
L 45.233116 -121.083837 
L 44.999404 -120.718454 
L 44.765692 -120.362459 
L 44.53198 -120.016262 
L 44.298268 -119.680322 
L 44.064556 -119.355131 
L 43.830844 -119.041199 
L 43.597132 -118.739035 
L 43.36342 -118.449134 
L 43.129708 -118.171954 
L 42.895996 -117.907902 
L 42.662284 -117.657322 
L 42.428572 -117.420479 
L 42.19486 -117.197551 
L 41.961149 -116.988624 
L 41.727437 -116.793685 
L 41.493725 -116.61262 
L 41.260013 -116.445222 
L 41.026301 -116.291188 
z
" style="stroke: #355f8d; stroke-width: 1.25"/>
    </defs>
    <g>
     <use xlink:href="#m1f9fe79888" x="0" y="174.26" style="fill: #355f8d; fill-opacity: 0.7; stroke: #355f8d; stroke-width: 1.25"/>
    </g>
   </g>
   <g id="line2d_2">
    <path d="M 7.2 59.175 
L 216.45 59.175 
" style="fill: none; stroke: #355f8d; stroke-opacity: 0.9; stroke-linecap: round"/>
   </g>
   <g id="text_2">
    <!-- 1 -->
    <g style="fill: #355f8d" transform="translate(7.2 58.257) scale(0.12 -0.12)">
     <defs>
      <path id="IBMPlexSans-Bold-31" d="M 602 0 
L 602 774 
L 1805 774 
L 1805 3770 
L 1747 3770 
L 838 2579 
L 224 3059 
L 1293 4467 
L 2765 4467 
L 2765 774 
L 3712 774 
L 3712 0 
L 602 0 
z
" transform="scale(0.015625)"/>
     </defs>
     <use xlink:href="#IBMPlexSans-Bold-31"/>
    </g>
   </g>
  </g>
  <g id="axes_3">
   <g id="patch_4">
    <path d="M 7.2 69.57 
L 216.45 69.57 
L 216.45 27.99 
L 7.2 27.99 
L 7.2 69.57 
z
" style="fill: none"/>
   </g>
   <g id="matplotlib.axis_5">
    <g id="xtick_9"/>
    <g id="xtick_10"/>
    <g id="xtick_11"/>
    <g id="xtick_12"/>
   </g>
   <g id="matplotlib.axis_6"/>
   <g id="FillBetweenPolyCollection_2">
    <defs>
     <path id="m5998ee3ff0" d="M 32.421283 -105.308539 
L 32.421283 -104.69 
L 32.896722 -104.69 
L 33.372161 -104.69 
L 33.847599 -104.69 
L 34.323038 -104.69 
L 34.798477 -104.69 
L 35.273916 -104.69 
L 35.749354 -104.69 
L 36.224793 -104.69 
L 36.700232 -104.69 
L 37.175671 -104.69 
L 37.65111 -104.69 
L 38.126548 -104.69 
L 38.601987 -104.69 
L 39.077426 -104.69 
L 39.552865 -104.69 
L 40.028303 -104.69 
L 40.503742 -104.69 
L 40.979181 -104.69 
L 41.45462 -104.69 
L 41.930059 -104.69 
L 42.405497 -104.69 
L 42.880936 -104.69 
L 43.356375 -104.69 
L 43.831814 -104.69 
L 44.307253 -104.69 
L 44.782691 -104.69 
L 45.25813 -104.69 
L 45.733569 -104.69 
L 46.209008 -104.69 
L 46.684446 -104.69 
L 47.159885 -104.69 
L 47.635324 -104.69 
L 48.110763 -104.69 
L 48.586202 -104.69 
L 49.06164 -104.69 
L 49.537079 -104.69 
L 50.012518 -104.69 
L 50.487957 -104.69 
L 50.963395 -104.69 
L 51.438834 -104.69 
L 51.914273 -104.69 
L 52.389712 -104.69 
L 52.865151 -104.69 
L 53.340589 -104.69 
L 53.816028 -104.69 
L 54.291467 -104.69 
L 54.766906 -104.69 
L 55.242344 -104.69 
L 55.717783 -104.69 
L 56.193222 -104.69 
L 56.668661 -104.69 
L 57.1441 -104.69 
L 57.619538 -104.69 
L 58.094977 -104.69 
L 58.570416 -104.69 
L 59.045855 -104.69 
L 59.521294 -104.69 
L 59.996732 -104.69 
L 60.472171 -104.69 
L 60.94761 -104.69 
L 61.423049 -104.69 
L 61.898487 -104.69 
L 62.373926 -104.69 
L 62.849365 -104.69 
L 63.324804 -104.69 
L 63.800243 -104.69 
L 64.275681 -104.69 
L 64.75112 -104.69 
L 65.226559 -104.69 
L 65.701998 -104.69 
L 66.177436 -104.69 
L 66.652875 -104.69 
L 67.128314 -104.69 
L 67.603753 -104.69 
L 68.079192 -104.69 
L 68.55463 -104.69 
L 69.030069 -104.69 
L 69.505508 -104.69 
L 69.980947 -104.69 
L 70.456385 -104.69 
L 70.931824 -104.69 
L 71.407263 -104.69 
L 71.882702 -104.69 
L 72.358141 -104.69 
L 72.833579 -104.69 
L 73.309018 -104.69 
L 73.784457 -104.69 
L 74.259896 -104.69 
L 74.735334 -104.69 
L 75.210773 -104.69 
L 75.686212 -104.69 
L 76.161651 -104.69 
L 76.63709 -104.69 
L 77.112528 -104.69 
L 77.587967 -104.69 
L 78.063406 -104.69 
L 78.538845 -104.69 
L 79.014284 -104.69 
L 79.489722 -104.69 
L 79.965161 -104.69 
L 80.4406 -104.69 
L 80.916039 -104.69 
L 81.391477 -104.69 
L 81.866916 -104.69 
L 82.342355 -104.69 
L 82.817794 -104.69 
L 83.293233 -104.69 
L 83.768671 -104.69 
L 84.24411 -104.69 
L 84.719549 -104.69 
L 85.194988 -104.69 
L 85.670426 -104.69 
L 86.145865 -104.69 
L 86.621304 -104.69 
L 87.096743 -104.69 
L 87.572182 -104.69 
L 88.04762 -104.69 
L 88.523059 -104.69 
L 88.998498 -104.69 
L 89.473937 -104.69 
L 89.949375 -104.69 
L 90.424814 -104.69 
L 90.900253 -104.69 
L 91.375692 -104.69 
L 91.851131 -104.69 
L 92.326569 -104.69 
L 92.802008 -104.69 
L 93.277447 -104.69 
L 93.752886 -104.69 
L 94.228325 -104.69 
L 94.703763 -104.69 
L 95.179202 -104.69 
L 95.654641 -104.69 
L 96.13008 -104.69 
L 96.605518 -104.69 
L 97.080957 -104.69 
L 97.556396 -104.69 
L 98.031835 -104.69 
L 98.507274 -104.69 
L 98.982712 -104.69 
L 99.458151 -104.69 
L 99.93359 -104.69 
L 100.409029 -104.69 
L 100.884467 -104.69 
L 101.359906 -104.69 
L 101.835345 -104.69 
L 102.310784 -104.69 
L 102.786223 -104.69 
L 103.261661 -104.69 
L 103.7371 -104.69 
L 104.212539 -104.69 
L 104.687978 -104.69 
L 105.163416 -104.69 
L 105.638855 -104.69 
L 106.114294 -104.69 
L 106.589733 -104.69 
L 107.065172 -104.69 
L 107.54061 -104.69 
L 108.016049 -104.69 
L 108.491488 -104.69 
L 108.966927 -104.69 
L 109.442366 -104.69 
L 109.917804 -104.69 
L 110.393243 -104.69 
L 110.868682 -104.69 
L 111.344121 -104.69 
L 111.819559 -104.69 
L 112.294998 -104.69 
L 112.770437 -104.69 
L 113.245876 -104.69 
L 113.721315 -104.69 
L 114.196753 -104.69 
L 114.672192 -104.69 
L 115.147631 -104.69 
L 115.62307 -104.69 
L 116.098508 -104.69 
L 116.573947 -104.69 
L 117.049386 -104.69 
L 117.524825 -104.69 
L 118.000264 -104.69 
L 118.475702 -104.69 
L 118.951141 -104.69 
L 119.42658 -104.69 
L 119.902019 -104.69 
L 120.377457 -104.69 
L 120.852896 -104.69 
L 121.328335 -104.69 
L 121.803774 -104.69 
L 122.279213 -104.69 
L 122.754651 -104.69 
L 123.23009 -104.69 
L 123.705529 -104.69 
L 124.180968 -104.69 
L 124.656406 -104.69 
L 125.131845 -104.69 
L 125.607284 -104.69 
L 126.082723 -104.69 
L 126.558162 -104.69 
L 127.0336 -104.69 
L 127.0336 -104.956113 
L 127.0336 -104.956113 
L 126.558162 -104.984111 
L 126.082723 -105.013708 
L 125.607284 -105.044849 
L 125.131845 -105.077463 
L 124.656406 -105.111472 
L 124.180968 -105.146783 
L 123.705529 -105.183301 
L 123.23009 -105.220923 
L 122.754651 -105.259543 
L 122.279213 -105.299053 
L 121.803774 -105.339348 
L 121.328335 -105.380324 
L 120.852896 -105.421881 
L 120.377457 -105.463924 
L 119.902019 -105.506368 
L 119.42658 -105.549131 
L 118.951141 -105.592142 
L 118.475702 -105.635341 
L 118.000264 -105.678673 
L 117.524825 -105.722096 
L 117.049386 -105.765579 
L 116.573947 -105.8091 
L 116.098508 -105.852649 
L 115.62307 -105.896225 
L 115.147631 -105.93984 
L 114.672192 -105.983516 
L 114.196753 -106.027285 
L 113.721315 -106.071189 
L 113.245876 -106.115275 
L 112.770437 -106.159599 
L 112.294998 -106.204218 
L 111.819559 -106.24919 
L 111.344121 -106.294569 
L 110.868682 -106.340403 
L 110.393243 -106.386728 
L 109.917804 -106.433566 
L 109.442366 -106.480917 
L 108.966927 -106.528761 
L 108.491488 -106.577051 
L 108.016049 -106.625717 
L 107.54061 -106.674657 
L 107.065172 -106.723747 
L 106.589733 -106.77284 
L 106.114294 -106.821771 
L 105.638855 -106.870366 
L 105.163416 -106.918448 
L 104.687978 -106.965845 
L 104.212539 -107.012407 
L 103.7371 -107.058012 
L 103.261661 -107.102582 
L 102.786223 -107.14609 
L 102.310784 -107.188574 
L 101.835345 -107.230147 
L 101.359906 -107.271002 
L 100.884467 -107.311415 
L 100.409029 -107.351754 
L 99.93359 -107.392468 
L 99.458151 -107.434093 
L 98.982712 -107.477235 
L 98.507274 -107.522566 
L 98.031835 -107.570808 
L 97.556396 -107.622714 
L 97.080957 -107.679056 
L 96.605518 -107.740604 
L 96.13008 -107.808104 
L 95.654641 -107.88226 
L 95.179202 -107.963718 
L 94.703763 -108.053048 
L 94.228325 -108.150727 
L 93.752886 -108.257131 
L 93.277447 -108.372523 
L 92.802008 -108.49705 
L 92.326569 -108.630738 
L 91.851131 -108.773497 
L 91.375692 -108.925121 
L 90.900253 -109.085298 
L 90.424814 -109.253618 
L 89.949375 -109.429584 
L 89.473937 -109.612626 
L 88.998498 -109.802113 
L 88.523059 -109.997367 
L 88.04762 -110.197674 
L 87.572182 -110.402301 
L 87.096743 -110.610501 
L 86.621304 -110.821529 
L 86.145865 -111.034647 
L 85.670426 -111.249129 
L 85.194988 -111.464274 
L 84.719549 -111.679401 
L 84.24411 -111.89386 
L 83.768671 -112.107031 
L 83.293233 -112.318327 
L 82.817794 -112.527195 
L 82.342355 -112.733121 
L 81.866916 -112.935629 
L 81.391477 -113.134283 
L 80.916039 -113.328691 
L 80.4406 -113.518508 
L 79.965161 -113.703435 
L 79.489722 -113.883221 
L 79.014284 -114.057665 
L 78.538845 -114.226616 
L 78.063406 -114.389968 
L 77.587967 -114.547661 
L 77.112528 -114.699673 
L 76.63709 -114.846014 
L 76.161651 -114.986719 
L 75.686212 -115.121842 
L 75.210773 -115.25144 
L 74.735334 -115.375569 
L 74.259896 -115.494272 
L 73.784457 -115.607568 
L 73.309018 -115.71545 
L 72.833579 -115.817874 
L 72.358141 -115.914759 
L 71.882702 -116.005982 
L 71.407263 -116.091386 
L 70.931824 -116.170779 
L 70.456385 -116.243941 
L 69.980947 -116.310634 
L 69.505508 -116.370613 
L 69.030069 -116.423633 
L 68.55463 -116.469462 
L 68.079192 -116.50789 
L 67.603753 -116.538739 
L 67.128314 -116.561867 
L 66.652875 -116.577175 
L 66.177436 -116.584604 
L 65.701998 -116.584139 
L 65.226559 -116.575798 
L 64.75112 -116.559629 
L 64.275681 -116.5357 
L 63.800243 -116.504089 
L 63.324804 -116.464869 
L 62.849365 -116.418101 
L 62.373926 -116.363821 
L 61.898487 -116.302035 
L 61.423049 -116.232707 
L 60.94761 -116.155761 
L 60.472171 -116.071078 
L 59.996732 -115.978503 
L 59.521294 -115.87785 
L 59.045855 -115.768912 
L 58.570416 -115.651475 
L 58.094977 -115.525334 
L 57.619538 -115.390307 
L 57.1441 -115.246252 
L 56.668661 -115.093086 
L 56.193222 -114.930796 
L 55.717783 -114.759453 
L 55.242344 -114.579219 
L 54.766906 -114.390357 
L 54.291467 -114.193227 
L 53.816028 -113.98829 
L 53.340589 -113.776097 
L 52.865151 -113.557281 
L 52.389712 -113.332546 
L 51.914273 -113.102647 
L 51.438834 -112.868379 
L 50.963395 -112.630552 
L 50.487957 -112.389979 
L 50.012518 -112.147455 
L 49.537079 -111.903741 
L 49.06164 -111.659552 
L 48.586202 -111.415546 
L 48.110763 -111.172311 
L 47.635324 -110.93037 
L 47.159885 -110.690168 
L 46.684446 -110.452085 
L 46.209008 -110.216432 
L 45.733569 -109.983464 
L 45.25813 -109.753384 
L 44.782691 -109.526362 
L 44.307253 -109.302536 
L 43.831814 -109.082032 
L 43.356375 -108.864969 
L 42.880936 -108.651476 
L 42.405497 -108.441692 
L 41.930059 -108.235778 
L 41.45462 -108.033922 
L 40.979181 -107.836339 
L 40.503742 -107.64327 
L 40.028303 -107.454982 
L 39.552865 -107.271766 
L 39.077426 -107.093923 
L 38.601987 -106.921768 
L 38.126548 -106.755611 
L 37.65111 -106.595757 
L 37.175671 -106.442492 
L 36.700232 -106.296075 
L 36.224793 -106.156735 
L 35.749354 -106.024656 
L 35.273916 -105.899977 
L 34.798477 -105.782789 
L 34.323038 -105.673127 
L 33.847599 -105.57097 
L 33.372161 -105.476246 
L 32.896722 -105.388828 
L 32.421283 -105.308539 
z
" style="stroke: #21918c; stroke-width: 1.25"/>
    </defs>
    <g>
     <use xlink:href="#m5998ee3ff0" x="0" y="174.26" style="fill: #21918c; fill-opacity: 0.7; stroke: #21918c; stroke-width: 1.25"/>
    </g>
   </g>
   <g id="line2d_3">
    <path d="M 7.2 69.57 
L 216.45 69.57 
" style="fill: none; stroke: #21918c; stroke-opacity: 0.9; stroke-linecap: round"/>
   </g>
   <g id="text_3">
    <!-- 2 -->
    <g style="fill: #21918c" transform="translate(7.2 68.652) scale(0.12 -0.12)">
     <defs>
      <path id="IBMPlexSans-Bold-32" d="M 3526 0 
L 365 0 
L 365 877 
L 1741 2054 
Q 1926 2214 2054 2345 
Q 2182 2477 2262 2601 
Q 2342 2726 2377 2848 
Q 2413 2970 2413 3110 
L 2413 3200 
Q 2413 3328 2361 3424 
Q 2310 3520 2227 3584 
Q 2144 3648 2038 3680 
Q 1933 3712 1824 3712 
Q 1664 3712 1545 3661 
Q 1427 3610 1340 3523 
Q 1254 3437 1196 3325 
Q 1139 3213 1107 3085 
L 269 3405 
Q 346 3635 480 3843 
Q 614 4051 816 4208 
Q 1018 4365 1293 4454 
Q 1568 4544 1914 4544 
Q 2278 4544 2560 4441 
Q 2842 4339 3037 4160 
Q 3232 3981 3334 3734 
Q 3437 3488 3437 3200 
Q 3437 2912 3341 2675 
Q 3245 2438 3081 2230 
Q 2918 2022 2700 1836 
Q 2483 1651 2246 1459 
L 1414 806 
L 3526 806 
L 3526 0 
z
" transform="scale(0.015625)"/>
     </defs>
     <use xlink:href="#IBMPlexSans-Bold-32"/>
    </g>
   </g>
  </g>
  <g id="axes_4">
   <g id="patch_5">
    <path d="M 7.2 79.965 
L 216.45 79.965 
L 216.45 38.385 
L 7.2 38.385 
L 7.2 79.965 
z
" style="fill: none"/>
   </g>
   <g id="matplotlib.axis_7">
    <g id="xtick_13"/>
    <g id="xtick_14"/>
    <g id="xtick_15"/>
    <g id="xtick_16"/>
   </g>
   <g id="matplotlib.axis_8"/>
   <g id="FillBetweenPolyCollection_3">
    <defs>
     <path id="m5986a715ad" d="M 24.378631 -94.741299 
L 24.378631 -94.295 
L 25.095001 -94.295 
L 25.81137 -94.295 
L 26.52774 -94.295 
L 27.24411 -94.295 
L 27.960479 -94.295 
L 28.676849 -94.295 
L 29.393219 -94.295 
L 30.109588 -94.295 
L 30.825958 -94.295 
L 31.542328 -94.295 
L 32.258697 -94.295 
L 32.975067 -94.295 
L 33.691437 -94.295 
L 34.407806 -94.295 
L 35.124176 -94.295 
L 35.840546 -94.295 
L 36.556915 -94.295 
L 37.273285 -94.295 
L 37.989655 -94.295 
L 38.706024 -94.295 
L 39.422394 -94.295 
L 40.138764 -94.295 
L 40.855133 -94.295 
L 41.571503 -94.295 
L 42.287873 -94.295 
L 43.004242 -94.295 
L 43.720612 -94.295 
L 44.436982 -94.295 
L 45.153351 -94.295 
L 45.869721 -94.295 
L 46.586091 -94.295 
L 47.30246 -94.295 
L 48.01883 -94.295 
L 48.7352 -94.295 
L 49.451569 -94.295 
L 50.167939 -94.295 
L 50.884309 -94.295 
L 51.600678 -94.295 
L 52.317048 -94.295 
L 53.033417 -94.295 
L 53.749787 -94.295 
L 54.466157 -94.295 
L 55.182526 -94.295 
L 55.898896 -94.295 
L 56.615266 -94.295 
L 57.331635 -94.295 
L 58.048005 -94.295 
L 58.764375 -94.295 
L 59.480744 -94.295 
L 60.197114 -94.295 
L 60.913484 -94.295 
L 61.629853 -94.295 
L 62.346223 -94.295 
L 63.062593 -94.295 
L 63.778962 -94.295 
L 64.495332 -94.295 
L 65.211702 -94.295 
L 65.928071 -94.295 
L 66.644441 -94.295 
L 67.360811 -94.295 
L 68.07718 -94.295 
L 68.79355 -94.295 
L 69.50992 -94.295 
L 70.226289 -94.295 
L 70.942659 -94.295 
L 71.659029 -94.295 
L 72.375398 -94.295 
L 73.091768 -94.295 
L 73.808138 -94.295 
L 74.524507 -94.295 
L 75.240877 -94.295 
L 75.957247 -94.295 
L 76.673616 -94.295 
L 77.389986 -94.295 
L 78.106356 -94.295 
L 78.822725 -94.295 
L 79.539095 -94.295 
L 80.255465 -94.295 
L 80.971834 -94.295 
L 81.688204 -94.295 
L 82.404574 -94.295 
L 83.120943 -94.295 
L 83.837313 -94.295 
L 84.553683 -94.295 
L 85.270052 -94.295 
L 85.986422 -94.295 
L 86.702792 -94.295 
L 87.419161 -94.295 
L 88.135531 -94.295 
L 88.8519 -94.295 
L 89.56827 -94.295 
L 90.28464 -94.295 
L 91.001009 -94.295 
L 91.717379 -94.295 
L 92.433749 -94.295 
L 93.150118 -94.295 
L 93.866488 -94.295 
L 94.582858 -94.295 
L 95.299227 -94.295 
L 96.015597 -94.295 
L 96.731967 -94.295 
L 97.448336 -94.295 
L 98.164706 -94.295 
L 98.881076 -94.295 
L 99.597445 -94.295 
L 100.313815 -94.295 
L 101.030185 -94.295 
L 101.746554 -94.295 
L 102.462924 -94.295 
L 103.179294 -94.295 
L 103.895663 -94.295 
L 104.612033 -94.295 
L 105.328403 -94.295 
L 106.044772 -94.295 
L 106.761142 -94.295 
L 107.477512 -94.295 
L 108.193881 -94.295 
L 108.910251 -94.295 
L 109.626621 -94.295 
L 110.34299 -94.295 
L 111.05936 -94.295 
L 111.77573 -94.295 
L 112.492099 -94.295 
L 113.208469 -94.295 
L 113.924839 -94.295 
L 114.641208 -94.295 
L 115.357578 -94.295 
L 116.073948 -94.295 
L 116.790317 -94.295 
L 117.506687 -94.295 
L 118.223057 -94.295 
L 118.939426 -94.295 
L 119.655796 -94.295 
L 120.372166 -94.295 
L 121.088535 -94.295 
L 121.804905 -94.295 
L 122.521275 -94.295 
L 123.237644 -94.295 
L 123.954014 -94.295 
L 124.670383 -94.295 
L 125.386753 -94.295 
L 126.103123 -94.295 
L 126.819492 -94.295 
L 127.535862 -94.295 
L 128.252232 -94.295 
L 128.968601 -94.295 
L 129.684971 -94.295 
L 130.401341 -94.295 
L 131.11771 -94.295 
L 131.83408 -94.295 
L 132.55045 -94.295 
L 133.266819 -94.295 
L 133.983189 -94.295 
L 134.699559 -94.295 
L 135.415928 -94.295 
L 136.132298 -94.295 
L 136.848668 -94.295 
L 137.565037 -94.295 
L 138.281407 -94.295 
L 138.997777 -94.295 
L 139.714146 -94.295 
L 140.430516 -94.295 
L 141.146886 -94.295 
L 141.863255 -94.295 
L 142.579625 -94.295 
L 143.295995 -94.295 
L 144.012364 -94.295 
L 144.728734 -94.295 
L 145.445104 -94.295 
L 146.161473 -94.295 
L 146.877843 -94.295 
L 147.594213 -94.295 
L 148.310582 -94.295 
L 149.026952 -94.295 
L 149.743322 -94.295 
L 150.459691 -94.295 
L 151.176061 -94.295 
L 151.892431 -94.295 
L 152.6088 -94.295 
L 153.32517 -94.295 
L 154.04154 -94.295 
L 154.757909 -94.295 
L 155.474279 -94.295 
L 156.190649 -94.295 
L 156.907018 -94.295 
L 157.623388 -94.295 
L 158.339757 -94.295 
L 159.056127 -94.295 
L 159.772497 -94.295 
L 160.488866 -94.295 
L 161.205236 -94.295 
L 161.921606 -94.295 
L 162.637975 -94.295 
L 163.354345 -94.295 
L 164.070715 -94.295 
L 164.787084 -94.295 
L 165.503454 -94.295 
L 166.219824 -94.295 
L 166.936193 -94.295 
L 166.936193 -94.462531 
L 166.936193 -94.462531 
L 166.219824 -94.480588 
L 165.503454 -94.499751 
L 164.787084 -94.519992 
L 164.070715 -94.541272 
L 163.354345 -94.563545 
L 162.637975 -94.586756 
L 161.921606 -94.610844 
L 161.205236 -94.635739 
L 160.488866 -94.661367 
L 159.772497 -94.68765 
L 159.056127 -94.714507 
L 158.339757 -94.741854 
L 157.623388 -94.769606 
L 156.907018 -94.79768 
L 156.190649 -94.825992 
L 155.474279 -94.854462 
L 154.757909 -94.883014 
L 154.04154 -94.911576 
L 153.32517 -94.940084 
L 152.6088 -94.968481 
L 151.892431 -94.996716 
L 151.176061 -95.024753 
L 150.459691 -95.052564 
L 149.743322 -95.080134 
L 149.026952 -95.107463 
L 148.310582 -95.134562 
L 147.594213 -95.161459 
L 146.877843 -95.188195 
L 146.161473 -95.214824 
L 145.445104 -95.241412 
L 144.728734 -95.268036 
L 144.012364 -95.294778 
L 143.295995 -95.321729 
L 142.579625 -95.348977 
L 141.863255 -95.376607 
L 141.146886 -95.404699 
L 140.430516 -95.43332 
L 139.714146 -95.46252 
L 138.997777 -95.492331 
L 138.281407 -95.522762 
L 137.565037 -95.553798 
L 136.848668 -95.585397 
L 136.132298 -95.617494 
L 135.415928 -95.649996 
L 134.699559 -95.682794 
L 133.983189 -95.71576 
L 133.266819 -95.748757 
L 132.55045 -95.781643 
L 131.83408 -95.814281 
L 131.11771 -95.846549 
L 130.401341 -95.878344 
L 129.684971 -95.909596 
L 128.968601 -95.940272 
L 128.252232 -95.970387 
L 127.535862 -96.000007 
L 126.819492 -96.029254 
L 126.103123 -96.05831 
L 125.386753 -96.087417 
L 124.670383 -96.116874 
L 123.954014 -96.147033 
L 123.237644 -96.178297 
L 122.521275 -96.211107 
L 121.804905 -96.245934 
L 121.088535 -96.283272 
L 120.372166 -96.323621 
L 119.655796 -96.367478 
L 118.939426 -96.415323 
L 118.223057 -96.467611 
L 117.506687 -96.524756 
L 116.790317 -96.587124 
L 116.073948 -96.655024 
L 115.357578 -96.728701 
L 114.641208 -96.808332 
L 113.924839 -96.894019 
L 113.208469 -96.985795 
L 112.492099 -97.083616 
L 111.77573 -97.187369 
L 111.05936 -97.296872 
L 110.34299 -97.411879 
L 109.626621 -97.532085 
L 108.910251 -97.657133 
L 108.193881 -97.786617 
L 107.477512 -97.920094 
L 106.761142 -98.057083 
L 106.044772 -98.197075 
L 105.328403 -98.339539 
L 104.612033 -98.483929 
L 103.895663 -98.629684 
L 103.179294 -98.776241 
L 102.462924 -98.923036 
L 101.746554 -99.069511 
L 101.030185 -99.215119 
L 100.313815 -99.359331 
L 99.597445 -99.501642 
L 98.881076 -99.641579 
L 98.164706 -99.778703 
L 97.448336 -99.91262 
L 96.731967 -100.042985 
L 96.015597 -100.169505 
L 95.299227 -100.291946 
L 94.582858 -100.410135 
L 93.866488 -100.523962 
L 93.150118 -100.633377 
L 92.433749 -100.73839 
L 91.717379 -100.839065 
L 91.001009 -100.935518 
L 90.28464 -101.027901 
L 89.56827 -101.116398 
L 88.8519 -101.201214 
L 88.135531 -101.282559 
L 87.419161 -101.360639 
L 86.702792 -101.435643 
L 85.986422 -101.507732 
L 85.270052 -101.57703 
L 84.553683 -101.643612 
L 83.837313 -101.707504 
L 83.120943 -101.768675 
L 82.404574 -101.827039 
L 81.688204 -101.882454 
L 80.971834 -101.934732 
L 80.255465 -101.983638 
L 79.539095 -102.028905 
L 78.822725 -102.070243 
L 78.106356 -102.107346 
L 77.389986 -102.139907 
L 76.673616 -102.167627 
L 75.957247 -102.190225 
L 75.240877 -102.207445 
L 74.524507 -102.219065 
L 73.808138 -102.224898 
L 73.091768 -102.224799 
L 72.375398 -102.218659 
L 71.659029 -102.206408 
L 70.942659 -102.188009 
L 70.226289 -102.163454 
L 69.50992 -102.132758 
L 68.79355 -102.095954 
L 68.07718 -102.053084 
L 67.360811 -102.004197 
L 66.644441 -101.949343 
L 65.928071 -101.888568 
L 65.211702 -101.821917 
L 64.495332 -101.749431 
L 63.778962 -101.671147 
L 63.062593 -101.587105 
L 62.346223 -101.49735 
L 61.629853 -101.401938 
L 60.913484 -101.300938 
L 60.197114 -101.194444 
L 59.480744 -101.082575 
L 58.764375 -100.965483 
L 58.048005 -100.843352 
L 57.331635 -100.716405 
L 56.615266 -100.5849 
L 55.898896 -100.449133 
L 55.182526 -100.309432 
L 54.466157 -100.166153 
L 53.749787 -100.019674 
L 53.033417 -99.870391 
L 52.317048 -99.718709 
L 51.600678 -99.565031 
L 50.884309 -99.409756 
L 50.167939 -99.25327 
L 49.451569 -99.095939 
L 48.7352 -98.938104 
L 48.01883 -98.78008 
L 47.30246 -98.62215 
L 46.586091 -98.464569 
L 45.869721 -98.307561 
L 45.153351 -98.151324 
L 44.436982 -97.996033 
L 43.720612 -97.841846 
L 43.004242 -97.688906 
L 42.287873 -97.537351 
L 41.571503 -97.387316 
L 40.855133 -97.238941 
L 40.138764 -97.092374 
L 39.422394 -96.947775 
L 38.706024 -96.80532 
L 37.989655 -96.665204 
L 37.273285 -96.527635 
L 36.556915 -96.392841 
L 35.840546 -96.261061 
L 35.124176 -96.132546 
L 34.407806 -96.007554 
L 33.691437 -95.886342 
L 32.975067 -95.769165 
L 32.258697 -95.656266 
L 31.542328 -95.547874 
L 30.825958 -95.444194 
L 30.109588 -95.345406 
L 29.393219 -95.251658 
L 28.676849 -95.163065 
L 27.960479 -95.079704 
L 27.24411 -95.001611 
L 26.52774 -94.928784 
L 25.81137 -94.861183 
L 25.095001 -94.798727 
L 24.378631 -94.741299 
z
" style="stroke: #44bf70; stroke-width: 1.25"/>
    </defs>
    <g>
     <use xlink:href="#m5986a715ad" x="0" y="174.26" style="fill: #44bf70; fill-opacity: 0.7; stroke: #44bf70; stroke-width: 1.25"/>
    </g>
   </g>
   <g id="line2d_4">
    <path d="M 7.2 79.965 
L 216.45 79.965 
" style="fill: none; stroke: #44bf70; stroke-opacity: 0.9; stroke-linecap: round"/>
   </g>
   <g id="text_4">
    <!-- 3 -->
    <g style="fill: #44bf70" transform="translate(7.2 79.047) scale(0.12 -0.12)">
     <defs>
      <path id="IBMPlexSans-Bold-33" d="M 1677 2701 
Q 2035 2701 2198 2838 
Q 2362 2976 2362 3181 
L 2362 3226 
Q 2362 3469 2205 3616 
Q 2048 3763 1760 3763 
Q 1491 3763 1254 3625 
Q 1018 3488 851 3232 
L 250 3795 
Q 378 3962 525 4099 
Q 672 4237 857 4336 
Q 1043 4435 1273 4489 
Q 1504 4544 1792 4544 
Q 2150 4544 2441 4461 
Q 2733 4378 2941 4221 
Q 3149 4064 3261 3846 
Q 3373 3629 3373 3360 
Q 3373 3149 3305 2976 
Q 3238 2803 3120 2675 
Q 3002 2547 2848 2467 
Q 2694 2387 2522 2355 
L 2522 2317 
Q 2720 2278 2889 2192 
Q 3059 2106 3184 1971 
Q 3309 1837 3379 1654 
Q 3450 1472 3450 1242 
Q 3450 941 3328 697 
Q 3206 454 2982 281 
Q 2758 109 2444 16 
Q 2131 -77 1754 -77 
Q 1414 -77 1152 -6 
Q 890 64 694 182 
Q 499 301 355 454 
Q 211 608 102 781 
L 813 1331 
Q 960 1056 1174 880 
Q 1389 704 1754 704 
Q 2080 704 2262 867 
Q 2445 1030 2445 1312 
L 2445 1350 
Q 2445 1626 2237 1763 
Q 2029 1901 1664 1901 
L 1261 1901 
L 1261 2701 
L 1677 2701 
z
" transform="scale(0.015625)"/>
     </defs>
     <use xlink:href="#IBMPlexSans-Bold-33"/>
    </g>
   </g>
  </g>
  <g id="axes_5">
   <g id="patch_6">
    <path d="M 7.2 90.36 
L 216.45 90.36 
L 216.45 48.78 
L 7.2 48.78 
L 7.2 90.36 
z
" style="fill: none"/>
   </g>
   <g id="matplotlib.axis_9">
    <g id="xtick_17"/>
    <g id="xtick_18"/>
    <g id="xtick_19"/>
    <g id="xtick_20"/>
   </g>
   <g id="matplotlib.axis_10"/>
   <g id="FillBetweenPolyCollection_4">
    <defs>
     <path id="mc3895f812c" d="M 16.711364 -84.26373 
L 16.711364 -83.9 
L 17.66728 -83.9 
L 18.623196 -83.9 
L 19.579111 -83.9 
L 20.535027 -83.9 
L 21.490943 -83.9 
L 22.446859 -83.9 
L 23.402775 -83.9 
L 24.358691 -83.9 
L 25.314607 -83.9 
L 26.270523 -83.9 
L 27.226439 -83.9 
L 28.182355 -83.9 
L 29.138271 -83.9 
L 30.094187 -83.9 
L 31.050103 -83.9 
L 32.006019 -83.9 
L 32.961935 -83.9 
L 33.917851 -83.9 
L 34.873767 -83.9 
L 35.829683 -83.9 
L 36.785598 -83.9 
L 37.741514 -83.9 
L 38.69743 -83.9 
L 39.653346 -83.9 
L 40.609262 -83.9 
L 41.565178 -83.9 
L 42.521094 -83.9 
L 43.47701 -83.9 
L 44.432926 -83.9 
L 45.388842 -83.9 
L 46.344758 -83.9 
L 47.300674 -83.9 
L 48.25659 -83.9 
L 49.212506 -83.9 
L 50.168422 -83.9 
L 51.124338 -83.9 
L 52.080254 -83.9 
L 53.036169 -83.9 
L 53.992085 -83.9 
L 54.948001 -83.9 
L 55.903917 -83.9 
L 56.859833 -83.9 
L 57.815749 -83.9 
L 58.771665 -83.9 
L 59.727581 -83.9 
L 60.683497 -83.9 
L 61.639413 -83.9 
L 62.595329 -83.9 
L 63.551245 -83.9 
L 64.507161 -83.9 
L 65.463077 -83.9 
L 66.418993 -83.9 
L 67.374909 -83.9 
L 68.330825 -83.9 
L 69.286741 -83.9 
L 70.242656 -83.9 
L 71.198572 -83.9 
L 72.154488 -83.9 
L 73.110404 -83.9 
L 74.06632 -83.9 
L 75.022236 -83.9 
L 75.978152 -83.9 
L 76.934068 -83.9 
L 77.889984 -83.9 
L 78.8459 -83.9 
L 79.801816 -83.9 
L 80.757732 -83.9 
L 81.713648 -83.9 
L 82.669564 -83.9 
L 83.62548 -83.9 
L 84.581396 -83.9 
L 85.537312 -83.9 
L 86.493228 -83.9 
L 87.449143 -83.9 
L 88.405059 -83.9 
L 89.360975 -83.9 
L 90.316891 -83.9 
L 91.272807 -83.9 
L 92.228723 -83.9 
L 93.184639 -83.9 
L 94.140555 -83.9 
L 95.096471 -83.9 
L 96.052387 -83.9 
L 97.008303 -83.9 
L 97.964219 -83.9 
L 98.920135 -83.9 
L 99.876051 -83.9 
L 100.831967 -83.9 
L 101.787883 -83.9 
L 102.743799 -83.9 
L 103.699714 -83.9 
L 104.65563 -83.9 
L 105.611546 -83.9 
L 106.567462 -83.9 
L 107.523378 -83.9 
L 108.479294 -83.9 
L 109.43521 -83.9 
L 110.391126 -83.9 
L 111.347042 -83.9 
L 112.302958 -83.9 
L 113.258874 -83.9 
L 114.21479 -83.9 
L 115.170706 -83.9 
L 116.126622 -83.9 
L 117.082538 -83.9 
L 118.038454 -83.9 
L 118.99437 -83.9 
L 119.950286 -83.9 
L 120.906201 -83.9 
L 121.862117 -83.9 
L 122.818033 -83.9 
L 123.773949 -83.9 
L 124.729865 -83.9 
L 125.685781 -83.9 
L 126.641697 -83.9 
L 127.597613 -83.9 
L 128.553529 -83.9 
L 129.509445 -83.9 
L 130.465361 -83.9 
L 131.421277 -83.9 
L 132.377193 -83.9 
L 133.333109 -83.9 
L 134.289025 -83.9 
L 135.244941 -83.9 
L 136.200857 -83.9 
L 137.156772 -83.9 
L 138.112688 -83.9 
L 139.068604 -83.9 
L 140.02452 -83.9 
L 140.980436 -83.9 
L 141.936352 -83.9 
L 142.892268 -83.9 
L 143.848184 -83.9 
L 144.8041 -83.9 
L 145.760016 -83.9 
L 146.715932 -83.9 
L 147.671848 -83.9 
L 148.627764 -83.9 
L 149.58368 -83.9 
L 150.539596 -83.9 
L 151.495512 -83.9 
L 152.451428 -83.9 
L 153.407344 -83.9 
L 154.363259 -83.9 
L 155.319175 -83.9 
L 156.275091 -83.9 
L 157.231007 -83.9 
L 158.186923 -83.9 
L 159.142839 -83.9 
L 160.098755 -83.9 
L 161.054671 -83.9 
L 162.010587 -83.9 
L 162.966503 -83.9 
L 163.922419 -83.9 
L 164.878335 -83.9 
L 165.834251 -83.9 
L 166.790167 -83.9 
L 167.746083 -83.9 
L 168.701999 -83.9 
L 169.657915 -83.9 
L 170.613831 -83.9 
L 171.569746 -83.9 
L 172.525662 -83.9 
L 173.481578 -83.9 
L 174.437494 -83.9 
L 175.39341 -83.9 
L 176.349326 -83.9 
L 177.305242 -83.9 
L 178.261158 -83.9 
L 179.217074 -83.9 
L 180.17299 -83.9 
L 181.128906 -83.9 
L 182.084822 -83.9 
L 183.040738 -83.9 
L 183.996654 -83.9 
L 184.95257 -83.9 
L 185.908486 -83.9 
L 186.864402 -83.9 
L 187.820317 -83.9 
L 188.776233 -83.9 
L 189.732149 -83.9 
L 190.688065 -83.9 
L 191.643981 -83.9 
L 192.599897 -83.9 
L 193.555813 -83.9 
L 194.511729 -83.9 
L 195.467645 -83.9 
L 196.423561 -83.9 
L 197.379477 -83.9 
L 198.335393 -83.9 
L 199.291309 -83.9 
L 200.247225 -83.9 
L 201.203141 -83.9 
L 202.159057 -83.9 
L 203.114973 -83.9 
L 204.070889 -83.9 
L 205.026804 -83.9 
L 205.98272 -83.9 
L 206.938636 -83.9 
L 206.938636 -84.023712 
L 206.938636 -84.023712 
L 205.98272 -84.037329 
L 205.026804 -84.051826 
L 204.070889 -84.067185 
L 203.114973 -84.083381 
L 202.159057 -84.100378 
L 201.203141 -84.118135 
L 200.247225 -84.136601 
L 199.291309 -84.155717 
L 198.335393 -84.175419 
L 197.379477 -84.195635 
L 196.423561 -84.216291 
L 195.467645 -84.237306 
L 194.511729 -84.258598 
L 193.555813 -84.280083 
L 192.599897 -84.301675 
L 191.643981 -84.323294 
L 190.688065 -84.344858 
L 189.732149 -84.366293 
L 188.776233 -84.38753 
L 187.820317 -84.408508 
L 186.864402 -84.429178 
L 185.908486 -84.449499 
L 184.95257 -84.469445 
L 183.996654 -84.489004 
L 183.040738 -84.508179 
L 182.084822 -84.526988 
L 181.128906 -84.545464 
L 180.17299 -84.563657 
L 179.217074 -84.581631 
L 178.261158 -84.599461 
L 177.305242 -84.617234 
L 176.349326 -84.635047 
L 175.39341 -84.652999 
L 174.437494 -84.671191 
L 173.481578 -84.689722 
L 172.525662 -84.708687 
L 171.569746 -84.728166 
L 170.613831 -84.748229 
L 169.657915 -84.768926 
L 168.701999 -84.790289 
L 167.746083 -84.812325 
L 166.790167 -84.835021 
L 165.834251 -84.858337 
L 164.878335 -84.882214 
L 163.922419 -84.906569 
L 162.966503 -84.931307 
L 162.010587 -84.956315 
L 161.054671 -84.981476 
L 160.098755 -85.006671 
L 159.142839 -85.031785 
L 158.186923 -85.056716 
L 157.231007 -85.08138 
L 156.275091 -85.105717 
L 155.319175 -85.1297 
L 154.363259 -85.153336 
L 153.407344 -85.17667 
L 152.451428 -85.199791 
L 151.495512 -85.22283 
L 150.539596 -85.245963 
L 149.58368 -85.269402 
L 148.627764 -85.293401 
L 147.671848 -85.318245 
L 146.715932 -85.344244 
L 145.760016 -85.371732 
L 144.8041 -85.401052 
L 143.848184 -85.432554 
L 142.892268 -85.466583 
L 141.936352 -85.503476 
L 140.980436 -85.543547 
L 140.02452 -85.587089 
L 139.068604 -85.63436 
L 138.112688 -85.685582 
L 137.156772 -85.740936 
L 136.200857 -85.800559 
L 135.244941 -85.864542 
L 134.289025 -85.932926 
L 133.333109 -86.005705 
L 132.377193 -86.082825 
L 131.421277 -86.164185 
L 130.465361 -86.249639 
L 129.509445 -86.338994 
L 128.553529 -86.432019 
L 127.597613 -86.528443 
L 126.641697 -86.627957 
L 125.685781 -86.73022 
L 124.729865 -86.83486 
L 123.773949 -86.941478 
L 122.818033 -87.049653 
L 121.862117 -87.158944 
L 120.906201 -87.268897 
L 119.950286 -87.379051 
L 118.99437 -87.488941 
L 118.038454 -87.598108 
L 117.082538 -87.706103 
L 116.126622 -87.812498 
L 115.170706 -87.916889 
L 114.21479 -88.018909 
L 113.258874 -88.118229 
L 112.302958 -88.214572 
L 111.347042 -88.307709 
L 110.391126 -88.397472 
L 109.43521 -88.483753 
L 108.479294 -88.566504 
L 107.523378 -88.645738 
L 106.567462 -88.721524 
L 105.611546 -88.793985 
L 104.65563 -88.863285 
L 103.699714 -88.929628 
L 102.743799 -88.99324 
L 101.787883 -89.054363 
L 100.831967 -89.113241 
L 99.876051 -89.170107 
L 98.920135 -89.225171 
L 97.964219 -89.278611 
L 97.008303 -89.330562 
L 96.052387 -89.381108 
L 95.096471 -89.430276 
L 94.140555 -89.478036 
L 93.184639 -89.524294 
L 92.228723 -89.568901 
L 91.272807 -89.611651 
L 90.316891 -89.652293 
L 89.360975 -89.690534 
L 88.405059 -89.726051 
L 87.449143 -89.758506 
L 86.493228 -89.787547 
L 85.537312 -89.812831 
L 84.581396 -89.834024 
L 83.62548 -89.850818 
L 82.669564 -89.862936 
L 81.713648 -89.870136 
L 80.757732 -89.87222 
L 79.801816 -89.869037 
L 78.8459 -89.860479 
L 77.889984 -89.846483 
L 76.934068 -89.82703 
L 75.978152 -89.802139 
L 75.022236 -89.771864 
L 74.06632 -89.736288 
L 73.110404 -89.695518 
L 72.154488 -89.64968 
L 71.198572 -89.598916 
L 70.242656 -89.543377 
L 69.286741 -89.483222 
L 68.330825 -89.418614 
L 67.374909 -89.349719 
L 66.418993 -89.276708 
L 65.463077 -89.199752 
L 64.507161 -89.119028 
L 63.551245 -89.034714 
L 62.595329 -88.946996 
L 61.639413 -88.856064 
L 60.683497 -88.762113 
L 59.727581 -88.665348 
L 58.771665 -88.565978 
L 57.815749 -88.464216 
L 56.859833 -88.360281 
L 55.903917 -88.254393 
L 54.948001 -88.146769 
L 53.992085 -88.037625 
L 53.036169 -87.927171 
L 52.080254 -87.815606 
L 51.124338 -87.703122 
L 50.168422 -87.589893 
L 49.212506 -87.476085 
L 48.25659 -87.361846 
L 47.300674 -87.247311 
L 46.344758 -87.132604 
L 45.388842 -87.017836 
L 44.432926 -86.903111 
L 43.47701 -86.788529 
L 42.521094 -86.674187 
L 41.565178 -86.560184 
L 40.609262 -86.446626 
L 39.653346 -86.333627 
L 38.69743 -86.221313 
L 37.741514 -86.109824 
L 36.785598 -85.999318 
L 35.829683 -85.889967 
L 34.873767 -85.781961 
L 33.917851 -85.675506 
L 32.961935 -85.57082 
L 32.006019 -85.468134 
L 31.050103 -85.367684 
L 30.094187 -85.269712 
L 29.138271 -85.174457 
L 28.182355 -85.082153 
L 27.226439 -84.993022 
L 26.270523 -84.907274 
L 25.314607 -84.825096 
L 24.358691 -84.746654 
L 23.402775 -84.672087 
L 22.446859 -84.601504 
L 21.490943 -84.534981 
L 20.535027 -84.472565 
L 19.579111 -84.414268 
L 18.623196 -84.360069 
L 17.66728 -84.309917 
L 16.711364 -84.26373 
z
" style="stroke: #bddf26; stroke-width: 1.25"/>
    </defs>
    <g>
     <use xlink:href="#mc3895f812c" x="0" y="174.26" style="fill: #bddf26; fill-opacity: 0.7; stroke: #bddf26; stroke-width: 1.25"/>
    </g>
   </g>
   <g id="line2d_5">
    <path d="M 7.2 90.36 
L 216.45 90.36 
" style="fill: none; stroke: #bddf26; stroke-opacity: 0.9; stroke-linecap: round"/>
   </g>
   <g id="text_5">
    <!-- 4 -->
    <g style="fill: #bddf26" transform="translate(7.2 89.442) scale(0.12 -0.12)">
     <defs>
      <path id="IBMPlexSans-Bold-34" d="M 2157 0 
L 2157 858 
L 192 858 
L 192 1677 
L 1933 4467 
L 3072 4467 
L 3072 1600 
L 3635 1600 
L 3635 858 
L 3072 858 
L 3072 0 
L 2157 0 
z
M 960 1600 
L 2157 1600 
L 2157 3475 
L 2093 3475 
L 960 1600 
z
" transform="scale(0.015625)"/>
     </defs>
     <use xlink:href="#IBMPlexSans-Bold-34"/>
    </g>
   </g>
  </g>
  <g id="axes_6">
   <g id="patch_7">
    <path d="M 7.2 100.755 
L 216.45 100.755 
L 216.45 59.175 
L 7.2 59.175 
L 7.2 100.755 
z
" style="fill: none"/>
   </g>
   <g id="matplotlib.axis_11">
    <g id="xtick_21"/>
    <g id="xtick_22"/>
    <g id="xtick_23"/>
    <g id="xtick_24"/>
   </g>
   <g id="matplotlib.axis_12"/>
   <g id="FillBetweenPolyCollection_5">
    <defs>
     <path id="mfa746780c0" d="M 24.437225 -73.952006 
L 24.437225 -73.505 
L 25.15289 -73.505 
L 25.868556 -73.505 
L 26.584222 -73.505 
L 27.299888 -73.505 
L 28.015553 -73.505 
L 28.731219 -73.505 
L 29.446885 -73.505 
L 30.162551 -73.505 
L 30.878217 -73.505 
L 31.593882 -73.505 
L 32.309548 -73.505 
L 33.025214 -73.505 
L 33.74088 -73.505 
L 34.456545 -73.505 
L 35.172211 -73.505 
L 35.887877 -73.505 
L 36.603543 -73.505 
L 37.319209 -73.505 
L 38.034874 -73.505 
L 38.75054 -73.505 
L 39.466206 -73.505 
L 40.181872 -73.505 
L 40.897537 -73.505 
L 41.613203 -73.505 
L 42.328869 -73.505 
L 43.044535 -73.505 
L 43.760201 -73.505 
L 44.475866 -73.505 
L 45.191532 -73.505 
L 45.907198 -73.505 
L 46.622864 -73.505 
L 47.338529 -73.505 
L 48.054195 -73.505 
L 48.769861 -73.505 
L 49.485527 -73.505 
L 50.201193 -73.505 
L 50.916858 -73.505 
L 51.632524 -73.505 
L 52.34819 -73.505 
L 53.063856 -73.505 
L 53.779521 -73.505 
L 54.495187 -73.505 
L 55.210853 -73.505 
L 55.926519 -73.505 
L 56.642185 -73.505 
L 57.35785 -73.505 
L 58.073516 -73.505 
L 58.789182 -73.505 
L 59.504848 -73.505 
L 60.220514 -73.505 
L 60.936179 -73.505 
L 61.651845 -73.505 
L 62.367511 -73.505 
L 63.083177 -73.505 
L 63.798842 -73.505 
L 64.514508 -73.505 
L 65.230174 -73.505 
L 65.94584 -73.505 
L 66.661506 -73.505 
L 67.377171 -73.505 
L 68.092837 -73.505 
L 68.808503 -73.505 
L 69.524169 -73.505 
L 70.239834 -73.505 
L 70.9555 -73.505 
L 71.671166 -73.505 
L 72.386832 -73.505 
L 73.102498 -73.505 
L 73.818163 -73.505 
L 74.533829 -73.505 
L 75.249495 -73.505 
L 75.965161 -73.505 
L 76.680826 -73.505 
L 77.396492 -73.505 
L 78.112158 -73.505 
L 78.827824 -73.505 
L 79.54349 -73.505 
L 80.259155 -73.505 
L 80.974821 -73.505 
L 81.690487 -73.505 
L 82.406153 -73.505 
L 83.121818 -73.505 
L 83.837484 -73.505 
L 84.55315 -73.505 
L 85.268816 -73.505 
L 85.984482 -73.505 
L 86.700147 -73.505 
L 87.415813 -73.505 
L 88.131479 -73.505 
L 88.847145 -73.505 
L 89.562811 -73.505 
L 90.278476 -73.505 
L 90.994142 -73.505 
L 91.709808 -73.505 
L 92.425474 -73.505 
L 93.141139 -73.505 
L 93.856805 -73.505 
L 94.572471 -73.505 
L 95.288137 -73.505 
L 96.003803 -73.505 
L 96.719468 -73.505 
L 97.435134 -73.505 
L 98.1508 -73.505 
L 98.866466 -73.505 
L 99.582131 -73.505 
L 100.297797 -73.505 
L 101.013463 -73.505 
L 101.729129 -73.505 
L 102.444795 -73.505 
L 103.16046 -73.505 
L 103.876126 -73.505 
L 104.591792 -73.505 
L 105.307458 -73.505 
L 106.023123 -73.505 
L 106.738789 -73.505 
L 107.454455 -73.505 
L 108.170121 -73.505 
L 108.885787 -73.505 
L 109.601452 -73.505 
L 110.317118 -73.505 
L 111.032784 -73.505 
L 111.74845 -73.505 
L 112.464115 -73.505 
L 113.179781 -73.505 
L 113.895447 -73.505 
L 114.611113 -73.505 
L 115.326779 -73.505 
L 116.042444 -73.505 
L 116.75811 -73.505 
L 117.473776 -73.505 
L 118.189442 -73.505 
L 118.905107 -73.505 
L 119.620773 -73.505 
L 120.336439 -73.505 
L 121.052105 -73.505 
L 121.767771 -73.505 
L 122.483436 -73.505 
L 123.199102 -73.505 
L 123.914768 -73.505 
L 124.630434 -73.505 
L 125.3461 -73.505 
L 126.061765 -73.505 
L 126.777431 -73.505 
L 127.493097 -73.505 
L 128.208763 -73.505 
L 128.924428 -73.505 
L 129.640094 -73.505 
L 130.35576 -73.505 
L 131.071426 -73.505 
L 131.787092 -73.505 
L 132.502757 -73.505 
L 133.218423 -73.505 
L 133.934089 -73.505 
L 134.649755 -73.505 
L 135.36542 -73.505 
L 136.081086 -73.505 
L 136.796752 -73.505 
L 137.512418 -73.505 
L 138.228084 -73.505 
L 138.943749 -73.505 
L 139.659415 -73.505 
L 140.375081 -73.505 
L 141.090747 -73.505 
L 141.806412 -73.505 
L 142.522078 -73.505 
L 143.237744 -73.505 
L 143.95341 -73.505 
L 144.669076 -73.505 
L 145.384741 -73.505 
L 146.100407 -73.505 
L 146.816073 -73.505 
L 147.531739 -73.505 
L 148.247404 -73.505 
L 148.96307 -73.505 
L 149.678736 -73.505 
L 150.394402 -73.505 
L 151.110068 -73.505 
L 151.825733 -73.505 
L 152.541399 -73.505 
L 153.257065 -73.505 
L 153.972731 -73.505 
L 154.688396 -73.505 
L 155.404062 -73.505 
L 156.119728 -73.505 
L 156.835394 -73.505 
L 157.55106 -73.505 
L 158.266725 -73.505 
L 158.982391 -73.505 
L 159.698057 -73.505 
L 160.413723 -73.505 
L 161.129389 -73.505 
L 161.845054 -73.505 
L 162.56072 -73.505 
L 163.276386 -73.505 
L 163.992052 -73.505 
L 164.707717 -73.505 
L 165.423383 -73.505 
L 166.139049 -73.505 
L 166.854715 -73.505 
L 166.854715 -73.678815 
L 166.854715 -73.678815 
L 166.139049 -73.696912 
L 165.423383 -73.71602 
L 164.707717 -73.736102 
L 163.992052 -73.757109 
L 163.276386 -73.778991 
L 162.56072 -73.801687 
L 161.845054 -73.825135 
L 161.129389 -73.84927 
L 160.413723 -73.874022 
L 159.698057 -73.899325 
L 158.982391 -73.925111 
L 158.266725 -73.951313 
L 157.55106 -73.97787 
L 156.835394 -74.004721 
L 156.119728 -74.031812 
L 155.404062 -74.059093 
L 154.688396 -74.086518 
L 153.972731 -74.114048 
L 153.257065 -74.14165 
L 152.541399 -74.169295 
L 151.825733 -74.196965 
L 151.110068 -74.224645 
L 150.394402 -74.25233 
L 149.678736 -74.280022 
L 148.96307 -74.307731 
L 148.247404 -74.335476 
L 147.531739 -74.363283 
L 146.816073 -74.391189 
L 146.100407 -74.419235 
L 145.384741 -74.447472 
L 144.669076 -74.475952 
L 143.95341 -74.504735 
L 143.237744 -74.533879 
L 142.522078 -74.56344 
L 141.806412 -74.593469 
L 141.090747 -74.624011 
L 140.375081 -74.655095 
L 139.659415 -74.68674 
L 138.943749 -74.718944 
L 138.228084 -74.751686 
L 137.512418 -74.784922 
L 136.796752 -74.818588 
L 136.081086 -74.852597 
L 135.36542 -74.886843 
L 134.649755 -74.921202 
L 133.934089 -74.955539 
L 133.218423 -74.989712 
L 132.502757 -75.023578 
L 131.787092 -75.057002 
L 131.071426 -75.089867 
L 130.35576 -75.122076 
L 129.640094 -75.153566 
L 128.924428 -75.184315 
L 128.208763 -75.214345 
L 127.493097 -75.243733 
L 126.777431 -75.27261 
L 126.061765 -75.301167 
L 125.3461 -75.329654 
L 124.630434 -75.358375 
L 123.914768 -75.387691 
L 123.199102 -75.418009 
L 122.483436 -75.449773 
L 121.767771 -75.483462 
L 121.052105 -75.519571 
L 120.336439 -75.558606 
L 119.620773 -75.601068 
L 118.905107 -75.647445 
L 118.189442 -75.698198 
L 117.473776 -75.75375 
L 116.75811 -75.814478 
L 116.042444 -75.880704 
L 115.326779 -75.952689 
L 114.611113 -76.030626 
L 113.895447 -76.11464 
L 113.179781 -76.204782 
L 112.464115 -76.301034 
L 111.74845 -76.403304 
L 111.032784 -76.511436 
L 110.317118 -76.62521 
L 109.601452 -76.744343 
L 108.885787 -76.868502 
L 108.170121 -76.997301 
L 107.454455 -77.130315 
L 106.738789 -77.267076 
L 106.023123 -77.407087 
L 105.307458 -77.549824 
L 104.591792 -77.694739 
L 103.876126 -77.841269 
L 103.16046 -77.988841 
L 102.444795 -78.136877 
L 101.729129 -78.284797 
L 101.013463 -78.432031 
L 100.297797 -78.578021 
L 99.582131 -78.722227 
L 98.866466 -78.864139 
L 98.1508 -79.003279 
L 97.435134 -79.139211 
L 96.719468 -79.271547 
L 96.003803 -79.399951 
L 95.288137 -79.524146 
L 94.572471 -79.643918 
L 93.856805 -79.759115 
L 93.141139 -79.869652 
L 92.425474 -79.975503 
L 91.709808 -80.076705 
L 90.994142 -80.173344 
L 90.278476 -80.265553 
L 89.562811 -80.3535 
L 88.847145 -80.437376 
L 88.131479 -80.517386 
L 87.415813 -80.593735 
L 86.700147 -80.666617 
L 85.984482 -80.736203 
L 85.268816 -80.802631 
L 84.55315 -80.865999 
L 83.837484 -80.926359 
L 83.121818 -80.983711 
L 82.406153 -81.038007 
L 81.690487 -81.089147 
L 80.974821 -81.13699 
L 80.259155 -81.181352 
L 79.54349 -81.222023 
L 78.827824 -81.25877 
L 78.112158 -81.291348 
L 77.396492 -81.319514 
L 76.680826 -81.343032 
L 75.965161 -81.361682 
L 75.249495 -81.375271 
L 74.533829 -81.383633 
L 73.818163 -81.386636 
L 73.102498 -81.38418 
L 72.386832 -81.376198 
L 71.671166 -81.36265 
L 70.9555 -81.343523 
L 70.239834 -81.318822 
L 69.524169 -81.288563 
L 68.808503 -81.252769 
L 68.092837 -81.211465 
L 67.377171 -81.16467 
L 66.661506 -81.112392 
L 65.94584 -81.054633 
L 65.230174 -80.99138 
L 64.514508 -80.922611 
L 63.798842 -80.8483 
L 63.083177 -80.768417 
L 62.367511 -80.682935 
L 61.651845 -80.591839 
L 60.936179 -80.495133 
L 60.220514 -80.392844 
L 59.504848 -80.285031 
L 58.789182 -80.171791 
L 58.073516 -80.053263 
L 57.35785 -79.929627 
L 56.642185 -79.801111 
L 55.926519 -79.667986 
L 55.210853 -79.530563 
L 54.495187 -79.389191 
L 53.779521 -79.244247 
L 53.063856 -79.096134 
L 52.34819 -78.945267 
L 51.632524 -78.792072 
L 50.916858 -78.636968 
L 50.201193 -78.48037 
L 49.485527 -78.322673 
L 48.769861 -78.164252 
L 48.054195 -78.005455 
L 47.338529 -77.846599 
L 46.622864 -77.687974 
L 45.907198 -77.529838 
L 45.191532 -77.372419 
L 44.475866 -77.215923 
L 43.760201 -77.060533 
L 43.044535 -76.906418 
L 42.328869 -76.753736 
L 41.613203 -76.602639 
L 40.897537 -76.45328 
L 40.181872 -76.305819 
L 39.466206 -76.160423 
L 38.75054 -76.017272 
L 38.034874 -75.87656 
L 37.319209 -75.738496 
L 36.603543 -75.603302 
L 35.887877 -75.471214 
L 35.172211 -75.342473 
L 34.456545 -75.217331 
L 33.74088 -75.096034 
L 33.025214 -74.978828 
L 32.309548 -74.865947 
L 31.593882 -74.757609 
L 30.878217 -74.65401 
L 30.162551 -74.555324 
L 29.446885 -74.461689 
L 28.731219 -74.373214 
L 28.015553 -74.28997 
L 27.299888 -74.211989 
L 26.584222 -74.139264 
L 25.868556 -74.071753 
L 25.15289 -74.009373 
L 24.437225 -73.952006 
z
" style="stroke: #7ad151; stroke-width: 1.25"/>
    </defs>
    <g>
     <use xlink:href="#mfa746780c0" x="0" y="174.26" style="fill: #7ad151; fill-opacity: 0.7; stroke: #7ad151; stroke-width: 1.25"/>
    </g>
   </g>
   <g id="line2d_6">
    <path d="M 7.2 100.755 
L 216.45 100.755 
" style="fill: none; stroke: #7ad151; stroke-opacity: 0.9; stroke-linecap: round"/>
   </g>
   <g id="text_6">
    <!-- 5 -->
    <g style="fill: #7ad151" transform="translate(7.2 99.837) scale(0.12 -0.12)">
     <defs>
      <path id="IBMPlexSans-Bold-35" d="M 3341 3629 
L 1312 3629 
L 1216 2214 
L 1267 2214 
Q 1331 2374 1411 2505 
Q 1491 2637 1600 2729 
Q 1709 2822 1862 2873 
Q 2016 2925 2227 2925 
Q 2515 2925 2764 2829 
Q 3014 2733 3200 2550 
Q 3386 2368 3494 2102 
Q 3603 1837 3603 1504 
Q 3603 1165 3491 873 
Q 3379 582 3158 371 
Q 2938 160 2618 41 
Q 2298 -77 1888 -77 
Q 1562 -77 1312 -6 
Q 1062 64 870 182 
Q 678 301 537 454 
Q 397 608 294 781 
L 992 1331 
Q 1139 1069 1344 886 
Q 1549 704 1894 704 
Q 2240 704 2416 902 
Q 2592 1101 2592 1427 
L 2592 1478 
Q 2592 1786 2413 1965 
Q 2234 2144 1920 2144 
Q 1658 2144 1488 2038 
Q 1318 1933 1229 1830 
L 442 1939 
L 608 4467 
L 3341 4467 
L 3341 3629 
z
" transform="scale(0.015625)"/>
     </defs>
     <use xlink:href="#IBMPlexSans-Bold-35"/>
    </g>
   </g>
  </g>
  <g id="axes_7">
   <g id="patch_8">
    <path d="M 7.2 111.15 
L 216.45 111.15 
L 216.45 69.57 
L 7.2 69.57 
L 7.2 111.15 
z
" style="fill: none"/>
   </g>
   <g id="matplotlib.axis_13">
    <g id="xtick_25"/>
    <g id="xtick_26"/>
    <g id="xtick_27"/>
    <g id="xtick_28"/>
   </g>
   <g id="matplotlib.axis_14"/>
   <g id="FillBetweenPolyCollection_6">
    <defs>
     <path id="m668b4c4640" d="M 31.631483 -63.663231 
L 31.631483 -63.11 
L 32.115964 -63.11 
L 32.600445 -63.11 
L 33.084925 -63.11 
L 33.569406 -63.11 
L 34.053886 -63.11 
L 34.538367 -63.11 
L 35.022848 -63.11 
L 35.507328 -63.11 
L 35.991809 -63.11 
L 36.476289 -63.11 
L 36.96077 -63.11 
L 37.445251 -63.11 
L 37.929731 -63.11 
L 38.414212 -63.11 
L 38.898692 -63.11 
L 39.383173 -63.11 
L 39.867654 -63.11 
L 40.352134 -63.11 
L 40.836615 -63.11 
L 41.321095 -63.11 
L 41.805576 -63.11 
L 42.290057 -63.11 
L 42.774537 -63.11 
L 43.259018 -63.11 
L 43.743498 -63.11 
L 44.227979 -63.11 
L 44.71246 -63.11 
L 45.19694 -63.11 
L 45.681421 -63.11 
L 46.165901 -63.11 
L 46.650382 -63.11 
L 47.134863 -63.11 
L 47.619343 -63.11 
L 48.103824 -63.11 
L 48.588304 -63.11 
L 49.072785 -63.11 
L 49.557266 -63.11 
L 50.041746 -63.11 
L 50.526227 -63.11 
L 51.010707 -63.11 
L 51.495188 -63.11 
L 51.979669 -63.11 
L 52.464149 -63.11 
L 52.94863 -63.11 
L 53.43311 -63.11 
L 53.917591 -63.11 
L 54.402072 -63.11 
L 54.886552 -63.11 
L 55.371033 -63.11 
L 55.855513 -63.11 
L 56.339994 -63.11 
L 56.824475 -63.11 
L 57.308955 -63.11 
L 57.793436 -63.11 
L 58.277916 -63.11 
L 58.762397 -63.11 
L 59.246878 -63.11 
L 59.731358 -63.11 
L 60.215839 -63.11 
L 60.700319 -63.11 
L 61.1848 -63.11 
L 61.669281 -63.11 
L 62.153761 -63.11 
L 62.638242 -63.11 
L 63.122722 -63.11 
L 63.607203 -63.11 
L 64.091684 -63.11 
L 64.576164 -63.11 
L 65.060645 -63.11 
L 65.545125 -63.11 
L 66.029606 -63.11 
L 66.514087 -63.11 
L 66.998567 -63.11 
L 67.483048 -63.11 
L 67.967528 -63.11 
L 68.452009 -63.11 
L 68.93649 -63.11 
L 69.42097 -63.11 
L 69.905451 -63.11 
L 70.389931 -63.11 
L 70.874412 -63.11 
L 71.358893 -63.11 
L 71.843373 -63.11 
L 72.327854 -63.11 
L 72.812334 -63.11 
L 73.296815 -63.11 
L 73.781296 -63.11 
L 74.265776 -63.11 
L 74.750257 -63.11 
L 75.234737 -63.11 
L 75.719218 -63.11 
L 76.203699 -63.11 
L 76.688179 -63.11 
L 77.17266 -63.11 
L 77.65714 -63.11 
L 78.141621 -63.11 
L 78.626102 -63.11 
L 79.110582 -63.11 
L 79.595063 -63.11 
L 80.079543 -63.11 
L 80.564024 -63.11 
L 81.048505 -63.11 
L 81.532985 -63.11 
L 82.017466 -63.11 
L 82.501946 -63.11 
L 82.986427 -63.11 
L 83.470908 -63.11 
L 83.955388 -63.11 
L 84.439869 -63.11 
L 84.924349 -63.11 
L 85.40883 -63.11 
L 85.893311 -63.11 
L 86.377791 -63.11 
L 86.862272 -63.11 
L 87.346752 -63.11 
L 87.831233 -63.11 
L 88.315714 -63.11 
L 88.800194 -63.11 
L 89.284675 -63.11 
L 89.769155 -63.11 
L 90.253636 -63.11 
L 90.738117 -63.11 
L 91.222597 -63.11 
L 91.707078 -63.11 
L 92.191558 -63.11 
L 92.676039 -63.11 
L 93.16052 -63.11 
L 93.645 -63.11 
L 94.129481 -63.11 
L 94.613961 -63.11 
L 95.098442 -63.11 
L 95.582923 -63.11 
L 96.067403 -63.11 
L 96.551884 -63.11 
L 97.036364 -63.11 
L 97.520845 -63.11 
L 98.005326 -63.11 
L 98.489806 -63.11 
L 98.974287 -63.11 
L 99.458767 -63.11 
L 99.943248 -63.11 
L 100.427729 -63.11 
L 100.912209 -63.11 
L 101.39669 -63.11 
L 101.88117 -63.11 
L 102.365651 -63.11 
L 102.850132 -63.11 
L 103.334612 -63.11 
L 103.819093 -63.11 
L 104.303573 -63.11 
L 104.788054 -63.11 
L 105.272534 -63.11 
L 105.757015 -63.11 
L 106.241496 -63.11 
L 106.725976 -63.11 
L 107.210457 -63.11 
L 107.694937 -63.11 
L 108.179418 -63.11 
L 108.663899 -63.11 
L 109.148379 -63.11 
L 109.63286 -63.11 
L 110.11734 -63.11 
L 110.601821 -63.11 
L 111.086302 -63.11 
L 111.570782 -63.11 
L 112.055263 -63.11 
L 112.539743 -63.11 
L 113.024224 -63.11 
L 113.508705 -63.11 
L 113.993185 -63.11 
L 114.477666 -63.11 
L 114.962146 -63.11 
L 115.446627 -63.11 
L 115.931108 -63.11 
L 116.415588 -63.11 
L 116.900069 -63.11 
L 117.384549 -63.11 
L 117.86903 -63.11 
L 118.353511 -63.11 
L 118.837991 -63.11 
L 119.322472 -63.11 
L 119.806952 -63.11 
L 120.291433 -63.11 
L 120.775914 -63.11 
L 121.260394 -63.11 
L 121.744875 -63.11 
L 122.229355 -63.11 
L 122.713836 -63.11 
L 123.198317 -63.11 
L 123.682797 -63.11 
L 124.167278 -63.11 
L 124.651758 -63.11 
L 125.136239 -63.11 
L 125.62072 -63.11 
L 126.1052 -63.11 
L 126.589681 -63.11 
L 127.074161 -63.11 
L 127.558642 -63.11 
L 128.043123 -63.11 
L 128.043123 -63.384839 
L 128.043123 -63.384839 
L 127.558642 -63.410403 
L 127.074161 -63.436946 
L 126.589681 -63.464376 
L 126.1052 -63.492601 
L 125.62072 -63.521532 
L 125.136239 -63.551088 
L 124.651758 -63.581199 
L 124.167278 -63.611809 
L 123.682797 -63.642879 
L 123.198317 -63.674391 
L 122.713836 -63.706347 
L 122.229355 -63.738771 
L 121.744875 -63.77171 
L 121.260394 -63.805229 
L 120.775914 -63.839412 
L 120.291433 -63.874356 
L 119.806952 -63.91017 
L 119.322472 -63.946969 
L 118.837991 -63.984868 
L 118.353511 -64.023981 
L 117.86903 -64.064414 
L 117.384549 -64.106258 
L 116.900069 -64.149591 
L 116.415588 -64.194472 
L 115.931108 -64.240937 
L 115.446627 -64.289 
L 114.962146 -64.338654 
L 114.477666 -64.389866 
L 113.993185 -64.442583 
L 113.508705 -64.496731 
L 113.024224 -64.552219 
L 112.539743 -64.608937 
L 112.055263 -64.666763 
L 111.570782 -64.725562 
L 111.086302 -64.785188 
L 110.601821 -64.845487 
L 110.11734 -64.906299 
L 109.63286 -64.967456 
L 109.148379 -65.028784 
L 108.663899 -65.090106 
L 108.179418 -65.151243 
L 107.694937 -65.212011 
L 107.210457 -65.272229 
L 106.725976 -65.331718 
L 106.241496 -65.390304 
L 105.757015 -65.447826 
L 105.272534 -65.504139 
L 104.788054 -65.559119 
L 104.303573 -65.612672 
L 103.819093 -65.664739 
L 103.334612 -65.715306 
L 102.850132 -65.764408 
L 102.365651 -65.812136 
L 101.88117 -65.858644 
L 101.39669 -65.904152 
L 100.912209 -65.948948 
L 100.427729 -65.993388 
L 99.943248 -66.037892 
L 99.458767 -66.082945 
L 98.974287 -66.129085 
L 98.489806 -66.176898 
L 98.005326 -66.227005 
L 97.520845 -66.28005 
L 97.036364 -66.33669 
L 96.551884 -66.397578 
L 96.067403 -66.46335 
L 95.582923 -66.534612 
L 95.098442 -66.61193 
L 94.613961 -66.695813 
L 94.129481 -66.78671 
L 93.645 -66.885 
L 93.16052 -66.990986 
L 92.676039 -67.104895 
L 92.191558 -67.226872 
L 91.707078 -67.356989 
L 91.222597 -67.495238 
L 90.738117 -67.641542 
L 90.253636 -67.795758 
L 89.769155 -67.957681 
L 89.284675 -68.127048 
L 88.800194 -68.303546 
L 88.315714 -68.486816 
L 87.831233 -68.676451 
L 87.346752 -68.872008 
L 86.862272 -69.073001 
L 86.377791 -69.278907 
L 85.893311 -69.489166 
L 85.40883 -69.70318 
L 84.924349 -69.920316 
L 84.439869 -70.139903 
L 83.955388 -70.361238 
L 83.470908 -70.583586 
L 82.986427 -70.806184 
L 82.501946 -71.028249 
L 82.017466 -71.248982 
L 81.532985 -71.467577 
L 81.048505 -71.68323 
L 80.564024 -71.89515 
L 80.079543 -72.102566 
L 79.595063 -72.30474 
L 79.110582 -72.500977 
L 78.626102 -72.69063 
L 78.141621 -72.873111 
L 77.65714 -73.047895 
L 77.17266 -73.214522 
L 76.688179 -73.372604 
L 76.203699 -73.521819 
L 75.719218 -73.661912 
L 75.234737 -73.792694 
L 74.750257 -73.914036 
L 74.265776 -74.025863 
L 73.781296 -74.128153 
L 73.296815 -74.22093 
L 72.812334 -74.304259 
L 72.327854 -74.378247 
L 71.843373 -74.443039 
L 71.358893 -74.498814 
L 70.874412 -74.54579 
L 70.389931 -74.58422 
L 69.905451 -74.614395 
L 69.42097 -74.636642 
L 68.93649 -74.651324 
L 68.452009 -74.658839 
L 67.967528 -74.659613 
L 67.483048 -74.654097 
L 66.998567 -74.642756 
L 66.514087 -74.62606 
L 66.029606 -74.604473 
L 65.545125 -74.578431 
L 65.060645 -74.548334 
L 64.576164 -74.514526 
L 64.091684 -74.477277 
L 63.607203 -74.436771 
L 63.122722 -74.393091 
L 62.638242 -74.34621 
L 62.153761 -74.295982 
L 61.669281 -74.242144 
L 61.1848 -74.184316 
L 60.700319 -74.12201 
L 60.215839 -74.054644 
L 59.731358 -73.981556 
L 59.246878 -73.902031 
L 58.762397 -73.815319 
L 58.277916 -73.720671 
L 57.793436 -73.61736 
L 57.308955 -73.504713 
L 56.824475 -73.38214 
L 56.339994 -73.249154 
L 55.855513 -73.105397 
L 55.371033 -72.950656 
L 54.886552 -72.784874 
L 54.402072 -72.608159 
L 53.917591 -72.420782 
L 53.43311 -72.223176 
L 52.94863 -72.015923 
L 52.464149 -71.79974 
L 51.979669 -71.575463 
L 51.495188 -71.344018 
L 51.010707 -71.106407 
L 50.526227 -70.863674 
L 50.041746 -70.616882 
L 49.557266 -70.367094 
L 49.072785 -70.115341 
L 48.588304 -69.862611 
L 48.103824 -69.609826 
L 47.619343 -69.357833 
L 47.134863 -69.107394 
L 46.650382 -68.85918 
L 46.165901 -68.61377 
L 45.681421 -68.371654 
L 45.19694 -68.133239 
L 44.71246 -67.898858 
L 44.227979 -67.668775 
L 43.743498 -67.443202 
L 43.259018 -67.222308 
L 42.774537 -67.006232 
L 42.290057 -66.795093 
L 41.805576 -66.589001 
L 41.321095 -66.388065 
L 40.836615 -66.1924 
L 40.352134 -66.002131 
L 39.867654 -65.817397 
L 39.383173 -65.638349 
L 38.898692 -65.465152 
L 38.414212 -65.297978 
L 37.929731 -65.137007 
L 37.445251 -64.982415 
L 36.96077 -64.834374 
L 36.476289 -64.693041 
L 35.991809 -64.558555 
L 35.507328 -64.43103 
L 35.022848 -64.310546 
L 34.538367 -64.197152 
L 34.053886 -64.090856 
L 33.569406 -63.991625 
L 33.084925 -63.899384 
L 32.600445 -63.814016 
L 32.115964 -63.735364 
L 31.631483 -63.663231 
z
" style="stroke: #22a884; stroke-width: 1.25"/>
    </defs>
    <g>
     <use xlink:href="#m668b4c4640" x="0" y="174.26" style="fill: #22a884; fill-opacity: 0.7; stroke: #22a884; stroke-width: 1.25"/>
    </g>
   </g>
   <g id="line2d_7">
    <path d="M 7.2 111.15 
L 216.45 111.15 
" style="fill: none; stroke: #22a884; stroke-opacity: 0.9; stroke-linecap: round"/>
   </g>
   <g id="text_7">
    <!-- 6 -->
    <g style="fill: #22a884" transform="translate(7.2 110.232) scale(0.12 -0.12)">
     <defs>
      <path id="IBMPlexSans-Bold-36" d="M 1946 -77 
Q 1549 -77 1235 48 
Q 922 173 707 406 
Q 493 640 381 966 
Q 269 1293 269 1696 
Q 269 2163 413 2582 
Q 557 3002 784 3357 
Q 1011 3712 1296 3993 
Q 1581 4275 1869 4467 
L 3194 4467 
Q 2784 4173 2457 3907 
Q 2131 3642 1891 3373 
Q 1651 3104 1494 2825 
Q 1338 2547 1274 2227 
L 1331 2208 
Q 1389 2336 1469 2457 
Q 1549 2579 1667 2672 
Q 1786 2765 1946 2822 
Q 2106 2880 2317 2880 
Q 2592 2880 2832 2781 
Q 3072 2682 3248 2502 
Q 3424 2323 3523 2064 
Q 3622 1805 3622 1491 
Q 3622 1146 3504 858 
Q 3386 570 3165 362 
Q 2944 154 2637 38 
Q 2330 -77 1946 -77 
z
M 1946 672 
Q 2266 672 2445 848 
Q 2624 1024 2624 1350 
L 2624 1466 
Q 2624 1792 2445 1968 
Q 2266 2144 1946 2144 
Q 1626 2144 1446 1968 
Q 1267 1792 1267 1466 
L 1267 1350 
Q 1267 1024 1446 848 
Q 1626 672 1946 672 
z
" transform="scale(0.015625)"/>
     </defs>
     <use xlink:href="#IBMPlexSans-Bold-36"/>
    </g>
   </g>
  </g>
  <g id="axes_8">
   <g id="patch_9">
    <path d="M 7.2 121.545 
L 216.45 121.545 
L 216.45 79.965 
L 7.2 79.965 
L 7.2 121.545 
z
" style="fill: none"/>
   </g>
   <g id="matplotlib.axis_15">
    <g id="xtick_29"/>
    <g id="xtick_30"/>
    <g id="xtick_31"/>
    <g id="xtick_32"/>
   </g>
   <g id="matplotlib.axis_16"/>
   <g id="FillBetweenPolyCollection_7">
    <defs>
     <path id="m7fe78e83b4" d="M 37.191312 -53.274556 
L 37.191312 -52.715 
L 37.472633 -52.715 
L 37.753955 -52.715 
L 38.035276 -52.715 
L 38.316598 -52.715 
L 38.597919 -52.715 
L 38.879241 -52.715 
L 39.160562 -52.715 
L 39.441884 -52.715 
L 39.723205 -52.715 
L 40.004526 -52.715 
L 40.285848 -52.715 
L 40.567169 -52.715 
L 40.848491 -52.715 
L 41.129812 -52.715 
L 41.411134 -52.715 
L 41.692455 -52.715 
L 41.973777 -52.715 
L 42.255098 -52.715 
L 42.53642 -52.715 
L 42.817741 -52.715 
L 43.099062 -52.715 
L 43.380384 -52.715 
L 43.661705 -52.715 
L 43.943027 -52.715 
L 44.224348 -52.715 
L 44.50567 -52.715 
L 44.786991 -52.715 
L 45.068313 -52.715 
L 45.349634 -52.715 
L 45.630956 -52.715 
L 45.912277 -52.715 
L 46.193599 -52.715 
L 46.47492 -52.715 
L 46.756241 -52.715 
L 47.037563 -52.715 
L 47.318884 -52.715 
L 47.600206 -52.715 
L 47.881527 -52.715 
L 48.162849 -52.715 
L 48.44417 -52.715 
L 48.725492 -52.715 
L 49.006813 -52.715 
L 49.288135 -52.715 
L 49.569456 -52.715 
L 49.850778 -52.715 
L 50.132099 -52.715 
L 50.41342 -52.715 
L 50.694742 -52.715 
L 50.976063 -52.715 
L 51.257385 -52.715 
L 51.538706 -52.715 
L 51.820028 -52.715 
L 52.101349 -52.715 
L 52.382671 -52.715 
L 52.663992 -52.715 
L 52.945314 -52.715 
L 53.226635 -52.715 
L 53.507956 -52.715 
L 53.789278 -52.715 
L 54.070599 -52.715 
L 54.351921 -52.715 
L 54.633242 -52.715 
L 54.914564 -52.715 
L 55.195885 -52.715 
L 55.477207 -52.715 
L 55.758528 -52.715 
L 56.03985 -52.715 
L 56.321171 -52.715 
L 56.602493 -52.715 
L 56.883814 -52.715 
L 57.165135 -52.715 
L 57.446457 -52.715 
L 57.727778 -52.715 
L 58.0091 -52.715 
L 58.290421 -52.715 
L 58.571743 -52.715 
L 58.853064 -52.715 
L 59.134386 -52.715 
L 59.415707 -52.715 
L 59.697029 -52.715 
L 59.97835 -52.715 
L 60.259672 -52.715 
L 60.540993 -52.715 
L 60.822314 -52.715 
L 61.103636 -52.715 
L 61.384957 -52.715 
L 61.666279 -52.715 
L 61.9476 -52.715 
L 62.228922 -52.715 
L 62.510243 -52.715 
L 62.791565 -52.715 
L 63.072886 -52.715 
L 63.354208 -52.715 
L 63.635529 -52.715 
L 63.91685 -52.715 
L 64.198172 -52.715 
L 64.479493 -52.715 
L 64.760815 -52.715 
L 65.042136 -52.715 
L 65.323458 -52.715 
L 65.604779 -52.715 
L 65.886101 -52.715 
L 66.167422 -52.715 
L 66.448744 -52.715 
L 66.730065 -52.715 
L 67.011387 -52.715 
L 67.292708 -52.715 
L 67.574029 -52.715 
L 67.855351 -52.715 
L 68.136672 -52.715 
L 68.417994 -52.715 
L 68.699315 -52.715 
L 68.980637 -52.715 
L 69.261958 -52.715 
L 69.54328 -52.715 
L 69.824601 -52.715 
L 70.105923 -52.715 
L 70.387244 -52.715 
L 70.668566 -52.715 
L 70.949887 -52.715 
L 71.231208 -52.715 
L 71.51253 -52.715 
L 71.793851 -52.715 
L 72.075173 -52.715 
L 72.356494 -52.715 
L 72.637816 -52.715 
L 72.919137 -52.715 
L 73.200459 -52.715 
L 73.48178 -52.715 
L 73.763102 -52.715 
L 74.044423 -52.715 
L 74.325745 -52.715 
L 74.607066 -52.715 
L 74.888387 -52.715 
L 75.169709 -52.715 
L 75.45103 -52.715 
L 75.732352 -52.715 
L 76.013673 -52.715 
L 76.294995 -52.715 
L 76.576316 -52.715 
L 76.857638 -52.715 
L 77.138959 -52.715 
L 77.420281 -52.715 
L 77.701602 -52.715 
L 77.982923 -52.715 
L 78.264245 -52.715 
L 78.545566 -52.715 
L 78.826888 -52.715 
L 79.108209 -52.715 
L 79.389531 -52.715 
L 79.670852 -52.715 
L 79.952174 -52.715 
L 80.233495 -52.715 
L 80.514817 -52.715 
L 80.796138 -52.715 
L 81.07746 -52.715 
L 81.358781 -52.715 
L 81.640102 -52.715 
L 81.921424 -52.715 
L 82.202745 -52.715 
L 82.484067 -52.715 
L 82.765388 -52.715 
L 83.04671 -52.715 
L 83.328031 -52.715 
L 83.609353 -52.715 
L 83.890674 -52.715 
L 84.171996 -52.715 
L 84.453317 -52.715 
L 84.734639 -52.715 
L 85.01596 -52.715 
L 85.297281 -52.715 
L 85.578603 -52.715 
L 85.859924 -52.715 
L 86.141246 -52.715 
L 86.422567 -52.715 
L 86.703889 -52.715 
L 86.98521 -52.715 
L 87.266532 -52.715 
L 87.547853 -52.715 
L 87.829175 -52.715 
L 88.110496 -52.715 
L 88.391817 -52.715 
L 88.673139 -52.715 
L 88.95446 -52.715 
L 89.235782 -52.715 
L 89.517103 -52.715 
L 89.798425 -52.715 
L 90.079746 -52.715 
L 90.361068 -52.715 
L 90.642389 -52.715 
L 90.923711 -52.715 
L 91.205032 -52.715 
L 91.486354 -52.715 
L 91.767675 -52.715 
L 92.048996 -52.715 
L 92.330318 -52.715 
L 92.611639 -52.715 
L 92.892961 -52.715 
L 93.174282 -52.715 
L 93.174282 -53.040356 
L 93.174282 -53.040356 
L 92.892961 -53.076565 
L 92.611639 -53.115003 
L 92.330318 -53.155597 
L 92.048996 -53.198259 
L 91.767675 -53.242878 
L 91.486354 -53.28933 
L 91.205032 -53.337479 
L 90.923711 -53.387177 
L 90.642389 -53.438271 
L 90.361068 -53.490604 
L 90.079746 -53.544019 
L 89.798425 -53.598365 
L 89.517103 -53.653495 
L 89.235782 -53.709278 
L 88.95446 -53.765593 
L 88.673139 -53.822341 
L 88.391817 -53.879444 
L 88.110496 -53.93685 
L 87.829175 -53.994535 
L 87.547853 -54.05251 
L 87.266532 -54.11082 
L 86.98521 -54.16955 
L 86.703889 -54.228825 
L 86.422567 -54.288818 
L 86.141246 -54.349742 
L 85.859924 -54.411862 
L 85.578603 -54.475486 
L 85.297281 -54.540968 
L 85.01596 -54.608705 
L 84.734639 -54.679134 
L 84.453317 -54.752724 
L 84.171996 -54.82997 
L 83.890674 -54.911386 
L 83.609353 -54.997491 
L 83.328031 -55.088802 
L 83.04671 -55.185815 
L 82.765388 -55.288994 
L 82.484067 -55.398755 
L 82.202745 -55.515452 
L 81.921424 -55.639356 
L 81.640102 -55.770647 
L 81.358781 -55.909396 
L 81.07746 -56.055553 
L 80.796138 -56.208939 
L 80.514817 -56.369237 
L 80.233495 -56.535993 
L 79.952174 -56.708612 
L 79.670852 -56.886369 
L 79.389531 -57.068412 
L 79.108209 -57.253785 
L 78.826888 -57.441442 
L 78.545566 -57.630274 
L 78.264245 -57.819134 
L 77.982923 -58.006875 
L 77.701602 -58.192375 
L 77.420281 -58.374582 
L 77.138959 -58.552539 
L 76.857638 -58.725429 
L 76.576316 -58.892596 
L 76.294995 -59.05358 
L 76.013673 -59.208138 
L 75.732352 -59.356256 
L 75.45103 -59.498163 
L 75.169709 -59.634328 
L 74.888387 -59.765455 
L 74.607066 -59.892467 
L 74.325745 -60.016483 
L 74.044423 -60.138789 
L 73.763102 -60.260803 
L 73.48178 -60.384038 
L 73.200459 -60.510058 
L 72.919137 -60.64044 
L 72.637816 -60.776732 
L 72.356494 -60.920422 
L 72.075173 -61.072897 
L 71.793851 -61.23543 
L 71.51253 -61.409152 
L 71.231208 -61.595044 
L 70.949887 -61.793935 
L 70.668566 -62.0065 
L 70.387244 -62.23327 
L 70.105923 -62.474645 
L 69.824601 -62.730904 
L 69.54328 -63.002218 
L 69.261958 -63.288668 
L 68.980637 -63.590251 
L 68.699315 -63.906884 
L 68.417994 -64.238409 
L 68.136672 -64.584583 
L 67.855351 -64.945071 
L 67.574029 -65.319426 
L 67.292708 -65.707074 
L 67.011387 -66.107291 
L 66.730065 -66.519179 
L 66.448744 -66.941645 
L 66.167422 -67.373387 
L 65.886101 -67.812875 
L 65.604779 -68.258352 
L 65.323458 -68.70783 
L 65.042136 -69.159102 
L 64.760815 -69.609764 
L 64.479493 -70.057237 
L 64.198172 -70.498811 
L 63.91685 -70.931677 
L 63.635529 -71.352984 
L 63.354208 -71.759884 
L 63.072886 -72.149588 
L 62.791565 -72.519421 
L 62.510243 -72.866865 
L 62.228922 -73.189615 
L 61.9476 -73.485618 
L 61.666279 -73.753109 
L 61.384957 -73.990642 
L 61.103636 -74.197111 
L 60.822314 -74.371765 
L 60.540993 -74.514216 
L 60.259672 -74.624436 
L 59.97835 -74.702752 
L 59.697029 -74.749827 
L 59.415707 -74.766643 
L 59.134386 -74.75447 
L 58.853064 -74.714836 
L 58.571743 -74.64949 
L 58.290421 -74.56036 
L 58.0091 -74.44951 
L 57.727778 -74.319091 
L 57.446457 -74.171295 
L 57.165135 -74.008304 
L 56.883814 -73.832244 
L 56.602493 -73.645132 
L 56.321171 -73.448837 
L 56.03985 -73.245033 
L 55.758528 -73.035168 
L 55.477207 -72.820428 
L 55.195885 -72.601716 
L 54.914564 -72.379637 
L 54.633242 -72.15449 
L 54.351921 -71.926268 
L 54.070599 -71.694675 
L 53.789278 -71.459144 
L 53.507956 -71.218864 
L 53.226635 -70.972824 
L 52.945314 -70.719854 
L 52.663992 -70.458676 
L 52.382671 -70.18796 
L 52.101349 -69.906379 
L 51.820028 -69.612665 
L 51.538706 -69.30567 
L 51.257385 -68.984406 
L 50.976063 -68.648103 
L 50.694742 -68.296235 
L 50.41342 -67.928557 
L 50.132099 -67.545123 
L 49.850778 -67.146294 
L 49.569456 -66.732737 
L 49.288135 -66.305416 
L 49.006813 -65.865569 
L 48.725492 -65.414683 
L 48.44417 -64.954456 
L 48.162849 -64.486757 
L 47.881527 -64.013583 
L 47.600206 -63.537011 
L 47.318884 -63.059154 
L 47.037563 -62.582118 
L 46.756241 -62.107956 
L 46.47492 -61.638637 
L 46.193599 -61.176011 
L 45.912277 -60.721784 
L 45.630956 -60.277496 
L 45.349634 -59.844511 
L 45.068313 -59.424004 
L 44.786991 -59.016964 
L 44.50567 -58.624189 
L 44.224348 -58.246298 
L 43.943027 -57.883737 
L 43.661705 -57.536793 
L 43.380384 -57.205608 
L 43.099062 -56.890192 
L 42.817741 -56.59044 
L 42.53642 -56.306151 
L 42.255098 -56.037039 
L 41.973777 -55.782752 
L 41.692455 -55.542882 
L 41.411134 -55.316982 
L 41.129812 -55.104578 
L 40.848491 -54.905173 
L 40.567169 -54.718265 
L 40.285848 -54.543347 
L 40.004526 -54.379915 
L 39.723205 -54.227475 
L 39.441884 -54.085542 
L 39.160562 -53.953645 
L 38.879241 -53.831326 
L 38.597919 -53.718143 
L 38.316598 -53.613664 
L 38.035276 -53.51747 
L 37.753955 -53.429153 
L 37.472633 -53.348313 
L 37.191312 -53.274556 
z
" style="stroke: #2a788e; stroke-width: 1.25"/>
    </defs>
    <g>
     <use xlink:href="#m7fe78e83b4" x="0" y="174.26" style="fill: #2a788e; fill-opacity: 0.7; stroke: #2a788e; stroke-width: 1.25"/>
    </g>
   </g>
   <g id="line2d_8">
    <path d="M 7.2 121.545 
L 216.45 121.545 
" style="fill: none; stroke: #2a788e; stroke-opacity: 0.9; stroke-linecap: round"/>
   </g>
   <g id="text_8">
    <!-- 7 -->
    <g style="fill: #2a788e" transform="translate(7.2 120.627) scale(0.12 -0.12)">
     <defs>
      <path id="IBMPlexSans-Bold-37" d="M 1062 0 
L 2560 3686 
L 1165 3686 
L 1165 2874 
L 352 2874 
L 352 4467 
L 3514 4467 
L 3514 3635 
L 2074 0 
L 1062 0 
z
" transform="scale(0.015625)"/>
     </defs>
     <use xlink:href="#IBMPlexSans-Bold-37"/>
    </g>
   </g>
  </g>
  <g id="axes_9">
   <g id="patch_10">
    <path d="M 7.2 131.94 
L 216.45 131.94 
L 216.45 90.36 
L 7.2 90.36 
L 7.2 131.94 
z
" style="fill: none"/>
   </g>
   <g id="matplotlib.axis_17">
    <g id="xtick_33">
     <g id="text_9">
      <!-- 0 -->
      <g style="fill: #838383" transform="translate(46.500872 149.58) scale(0.11 -0.11)">
       <defs>
        <path id="IBMPlexSans-Regular-30" d="M 1920 -77 
Q 1120 -77 752 531 
Q 384 1139 384 2234 
Q 384 3328 752 3936 
Q 1120 4544 1920 4544 
Q 2720 4544 3088 3936 
Q 3456 3328 3456 2234 
Q 3456 1139 3088 531 
Q 2720 -77 1920 -77 
z
M 1920 390 
Q 2182 390 2368 499 
Q 2554 608 2669 806 
Q 2784 1005 2838 1273 
Q 2893 1542 2893 1869 
L 2893 2598 
Q 2893 2925 2838 3193 
Q 2784 3462 2669 3660 
Q 2554 3859 2368 3968 
Q 2182 4077 1920 4077 
Q 1658 4077 1472 3968 
Q 1286 3859 1171 3660 
Q 1056 3462 1001 3193 
Q 947 2925 947 2598 
L 947 1869 
Q 947 1542 1001 1273 
Q 1056 1005 1171 806 
Q 1286 608 1472 499 
Q 1658 390 1920 390 
z
" transform="scale(0.015625)"/>
       </defs>
       <use xlink:href="#IBMPlexSans-Regular-30"/>
      </g>
     </g>
    </g>
    <g id="xtick_34">
     <g id="text_10">
      <!-- 2 -->
      <g style="fill: #838383" transform="translate(89.848096 149.58) scale(0.11 -0.11)">
       <defs>
        <path id="IBMPlexSans-Regular-32" d="M 3411 0 
L 480 0 
L 480 550 
L 1939 1894 
Q 2253 2182 2464 2505 
Q 2675 2829 2675 3155 
L 2675 3232 
Q 2675 3603 2470 3833 
Q 2266 4064 1850 4064 
Q 1645 4064 1491 4006 
Q 1338 3949 1226 3846 
Q 1114 3744 1040 3606 
Q 966 3469 922 3309 
L 442 3494 
Q 506 3693 618 3881 
Q 730 4070 899 4217 
Q 1069 4365 1309 4454 
Q 1549 4544 1875 4544 
Q 2202 4544 2458 4448 
Q 2714 4352 2886 4179 
Q 3059 4006 3152 3769 
Q 3245 3533 3245 3245 
Q 3245 2982 3171 2758 
Q 3098 2534 2970 2332 
Q 2842 2131 2659 1939 
Q 2477 1747 2266 1555 
L 1062 474 
L 3411 474 
L 3411 0 
z
" transform="scale(0.015625)"/>
       </defs>
       <use xlink:href="#IBMPlexSans-Regular-32"/>
      </g>
     </g>
    </g>
    <g id="xtick_35">
     <g id="text_11">
      <!-- 4 -->
      <g style="fill: #838383" transform="translate(133.19532 149.58) scale(0.11 -0.11)">
       <defs>
        <path id="IBMPlexSans-Regular-34" d="M 2400 0 
L 2400 877 
L 243 877 
L 243 1350 
L 2112 4467 
L 2912 4467 
L 2912 1325 
L 3558 1325 
L 3558 877 
L 2912 877 
L 2912 0 
L 2400 0 
z
M 749 1325 
L 2400 1325 
L 2400 4051 
L 2368 4051 
L 749 1325 
z
" transform="scale(0.015625)"/>
       </defs>
       <use xlink:href="#IBMPlexSans-Regular-34"/>
      </g>
     </g>
    </g>
    <g id="xtick_36">
     <g id="text_12">
      <!-- 6 -->
      <g style="fill: #838383" transform="translate(176.542544 149.58) scale(0.11 -0.11)">
       <defs>
        <path id="IBMPlexSans-Regular-36" d="M 1926 -77 
Q 1581 -77 1302 41 
Q 1024 160 829 381 
Q 634 602 531 922 
Q 429 1242 429 1638 
Q 429 2138 576 2576 
Q 723 3014 956 3376 
Q 1190 3738 1472 4016 
Q 1754 4294 2022 4467 
L 2714 4467 
Q 2355 4205 2073 3955 
Q 1792 3706 1581 3434 
Q 1370 3162 1222 2851 
Q 1075 2541 986 2150 
L 1018 2138 
Q 1178 2413 1430 2595 
Q 1683 2778 2093 2778 
Q 2381 2778 2624 2682 
Q 2867 2586 3040 2406 
Q 3213 2227 3312 1971 
Q 3411 1715 3411 1402 
Q 3411 1075 3305 803 
Q 3200 531 3005 336 
Q 2810 141 2534 32 
Q 2259 -77 1926 -77 
z
M 1920 390 
Q 2362 390 2608 633 
Q 2854 877 2854 1331 
L 2854 1382 
Q 2854 1837 2608 2080 
Q 2362 2323 1920 2323 
Q 1478 2323 1232 2080 
Q 986 1837 986 1382 
L 986 1331 
Q 986 877 1232 633 
Q 1478 390 1920 390 
z
" transform="scale(0.015625)"/>
       </defs>
       <use xlink:href="#IBMPlexSans-Regular-36"/>
      </g>
     </g>
    </g>
    <g id="text_13">
     <!-- sld -->
     <g style="fill: #262626" transform="translate(103.790625 164.66) scale(0.12 -0.12)">
      <defs>
       <path id="IBMPlexSans-Regular-73" d="M 1536 -77 
Q 1075 -77 764 99 
Q 454 275 230 570 
L 595 864 
Q 787 621 1024 489 
Q 1261 358 1574 358 
Q 1901 358 2083 499 
Q 2266 640 2266 896 
Q 2266 1088 2141 1225 
Q 2016 1363 1690 1414 
L 1427 1453 
Q 1197 1485 1005 1552 
Q 813 1619 669 1731 
Q 525 1843 445 2009 
Q 365 2176 365 2406 
Q 365 2650 454 2832 
Q 544 3014 701 3136 
Q 858 3258 1075 3318 
Q 1293 3379 1542 3379 
Q 1946 3379 2218 3238 
Q 2490 3098 2694 2848 
L 2355 2541 
Q 2246 2694 2035 2819 
Q 1824 2944 1504 2944 
Q 1184 2944 1021 2806 
Q 858 2669 858 2432 
Q 858 2189 1021 2080 
Q 1184 1971 1491 1920 
L 1747 1882 
Q 2298 1798 2528 1564 
Q 2758 1331 2758 954 
Q 2758 474 2432 198 
Q 2106 -77 1536 -77 
z
" transform="scale(0.015625)"/>
       <path id="IBMPlexSans-Regular-6c" d="M 1088 0 
Q 819 0 681 150 
Q 544 301 544 531 
L 544 4736 
L 1056 4736 
L 1056 448 
L 1542 448 
L 1542 0 
L 1088 0 
z
" transform="scale(0.015625)"/>
       <path id="IBMPlexSans-Regular-64" d="M 2656 538 
L 2630 538 
Q 2330 -77 1664 -77 
Q 1357 -77 1107 44 
Q 858 166 682 390 
Q 506 614 413 934 
Q 320 1254 320 1651 
Q 320 2048 413 2368 
Q 506 2688 682 2912 
Q 858 3136 1107 3257 
Q 1357 3379 1664 3379 
Q 2010 3379 2256 3228 
Q 2502 3078 2630 2765 
L 2656 2765 
L 2656 4736 
L 3168 4736 
L 3168 0 
L 2656 0 
L 2656 538 
z
M 1805 384 
Q 1978 384 2134 429 
Q 2291 474 2406 560 
Q 2522 646 2589 771 
Q 2656 896 2656 1056 
L 2656 2285 
Q 2656 2419 2589 2537 
Q 2522 2656 2406 2739 
Q 2291 2822 2134 2870 
Q 1978 2918 1805 2918 
Q 1370 2918 1120 2646 
Q 870 2374 870 1933 
L 870 1370 
Q 870 928 1120 656 
Q 1370 384 1805 384 
z
" transform="scale(0.015625)"/>
      </defs>
      <use xlink:href="#IBMPlexSans-Regular-73"/>
      <use xlink:href="#IBMPlexSans-Regular-6c" transform="translate(48.699997 0)"/>
      <use xlink:href="#IBMPlexSans-Regular-64" transform="translate(75.899994 0)"/>
     </g>
    </g>
   </g>
   <g id="matplotlib.axis_18"/>
   <g id="FillBetweenPolyCollection_8">
    <defs>
     <path id="m323eab770b" d="M 34.756283 -42.813619 
L 34.756283 -42.32 
L 34.905262 -42.32 
L 35.05424 -42.32 
L 35.203219 -42.32 
L 35.352198 -42.32 
L 35.501176 -42.32 
L 35.650155 -42.32 
L 35.799134 -42.32 
L 35.948112 -42.32 
L 36.097091 -42.32 
L 36.24607 -42.32 
L 36.395048 -42.32 
L 36.544027 -42.32 
L 36.693006 -42.32 
L 36.841984 -42.32 
L 36.990963 -42.32 
L 37.139942 -42.32 
L 37.28892 -42.32 
L 37.437899 -42.32 
L 37.586878 -42.32 
L 37.735856 -42.32 
L 37.884835 -42.32 
L 38.033814 -42.32 
L 38.182792 -42.32 
L 38.331771 -42.32 
L 38.48075 -42.32 
L 38.629728 -42.32 
L 38.778707 -42.32 
L 38.927686 -42.32 
L 39.076665 -42.32 
L 39.225643 -42.32 
L 39.374622 -42.32 
L 39.523601 -42.32 
L 39.672579 -42.32 
L 39.821558 -42.32 
L 39.970537 -42.32 
L 40.119515 -42.32 
L 40.268494 -42.32 
L 40.417473 -42.32 
L 40.566451 -42.32 
L 40.71543 -42.32 
L 40.864409 -42.32 
L 41.013387 -42.32 
L 41.162366 -42.32 
L 41.311345 -42.32 
L 41.460323 -42.32 
L 41.609302 -42.32 
L 41.758281 -42.32 
L 41.907259 -42.32 
L 42.056238 -42.32 
L 42.205217 -42.32 
L 42.354195 -42.32 
L 42.503174 -42.32 
L 42.652153 -42.32 
L 42.801131 -42.32 
L 42.95011 -42.32 
L 43.099089 -42.32 
L 43.248067 -42.32 
L 43.397046 -42.32 
L 43.546025 -42.32 
L 43.695003 -42.32 
L 43.843982 -42.32 
L 43.992961 -42.32 
L 44.141939 -42.32 
L 44.290918 -42.32 
L 44.439897 -42.32 
L 44.588875 -42.32 
L 44.737854 -42.32 
L 44.886833 -42.32 
L 45.035811 -42.32 
L 45.18479 -42.32 
L 45.333769 -42.32 
L 45.482747 -42.32 
L 45.631726 -42.32 
L 45.780705 -42.32 
L 45.929683 -42.32 
L 46.078662 -42.32 
L 46.227641 -42.32 
L 46.376619 -42.32 
L 46.525598 -42.32 
L 46.674577 -42.32 
L 46.823555 -42.32 
L 46.972534 -42.32 
L 47.121513 -42.32 
L 47.270491 -42.32 
L 47.41947 -42.32 
L 47.568449 -42.32 
L 47.717427 -42.32 
L 47.866406 -42.32 
L 48.015385 -42.32 
L 48.164363 -42.32 
L 48.313342 -42.32 
L 48.462321 -42.32 
L 48.611299 -42.32 
L 48.760278 -42.32 
L 48.909257 -42.32 
L 49.058235 -42.32 
L 49.207214 -42.32 
L 49.356193 -42.32 
L 49.505171 -42.32 
L 49.65415 -42.32 
L 49.803129 -42.32 
L 49.952107 -42.32 
L 50.101086 -42.32 
L 50.250065 -42.32 
L 50.399043 -42.32 
L 50.548022 -42.32 
L 50.697001 -42.32 
L 50.845979 -42.32 
L 50.994958 -42.32 
L 51.143937 -42.32 
L 51.292915 -42.32 
L 51.441894 -42.32 
L 51.590873 -42.32 
L 51.739851 -42.32 
L 51.88883 -42.32 
L 52.037809 -42.32 
L 52.186787 -42.32 
L 52.335766 -42.32 
L 52.484745 -42.32 
L 52.633723 -42.32 
L 52.782702 -42.32 
L 52.931681 -42.32 
L 53.080659 -42.32 
L 53.229638 -42.32 
L 53.378617 -42.32 
L 53.527595 -42.32 
L 53.676574 -42.32 
L 53.825553 -42.32 
L 53.974532 -42.32 
L 54.12351 -42.32 
L 54.272489 -42.32 
L 54.421468 -42.32 
L 54.570446 -42.32 
L 54.719425 -42.32 
L 54.868404 -42.32 
L 55.017382 -42.32 
L 55.166361 -42.32 
L 55.31534 -42.32 
L 55.464318 -42.32 
L 55.613297 -42.32 
L 55.762276 -42.32 
L 55.911254 -42.32 
L 56.060233 -42.32 
L 56.209212 -42.32 
L 56.35819 -42.32 
L 56.507169 -42.32 
L 56.656148 -42.32 
L 56.805126 -42.32 
L 56.954105 -42.32 
L 57.103084 -42.32 
L 57.252062 -42.32 
L 57.401041 -42.32 
L 57.55002 -42.32 
L 57.698998 -42.32 
L 57.847977 -42.32 
L 57.996956 -42.32 
L 58.145934 -42.32 
L 58.294913 -42.32 
L 58.443892 -42.32 
L 58.59287 -42.32 
L 58.741849 -42.32 
L 58.890828 -42.32 
L 59.039806 -42.32 
L 59.188785 -42.32 
L 59.337764 -42.32 
L 59.486742 -42.32 
L 59.635721 -42.32 
L 59.7847 -42.32 
L 59.933678 -42.32 
L 60.082657 -42.32 
L 60.231636 -42.32 
L 60.380614 -42.32 
L 60.529593 -42.32 
L 60.678572 -42.32 
L 60.82755 -42.32 
L 60.976529 -42.32 
L 61.125508 -42.32 
L 61.274486 -42.32 
L 61.423465 -42.32 
L 61.572444 -42.32 
L 61.721422 -42.32 
L 61.870401 -42.32 
L 62.01938 -42.32 
L 62.168358 -42.32 
L 62.317337 -42.32 
L 62.466316 -42.32 
L 62.615294 -42.32 
L 62.764273 -42.32 
L 62.913252 -42.32 
L 63.06223 -42.32 
L 63.211209 -42.32 
L 63.360188 -42.32 
L 63.509166 -42.32 
L 63.658145 -42.32 
L 63.807124 -42.32 
L 63.956102 -42.32 
L 64.105081 -42.32 
L 64.25406 -42.32 
L 64.403038 -42.32 
L 64.403038 -43.821058 
L 64.403038 -43.821058 
L 64.25406 -43.985355 
L 64.105081 -44.157241 
L 63.956102 -44.335772 
L 63.807124 -44.519919 
L 63.658145 -44.708607 
L 63.509166 -44.900764 
L 63.360188 -45.095364 
L 63.211209 -45.291486 
L 63.06223 -45.48836 
L 62.913252 -45.685416 
L 62.764273 -45.882327 
L 62.615294 -46.079043 
L 62.466316 -46.275811 
L 62.317337 -46.473191 
L 62.168358 -46.672045 
L 62.01938 -46.873527 
L 61.870401 -47.079039 
L 61.721422 -47.290192 
L 61.572444 -47.508741 
L 61.423465 -47.736514 
L 61.274486 -47.975333 
L 61.125508 -48.226937 
L 60.976529 -48.492893 
L 60.82755 -48.774523 
L 60.678572 -49.072836 
L 60.529593 -49.388472 
L 60.380614 -49.721663 
L 60.231636 -50.072213 
L 60.082657 -50.439503 
L 59.933678 -50.822511 
L 59.7847 -51.219865 
L 59.635721 -51.629904 
L 59.486742 -52.050771 
L 59.337764 -52.480511 
L 59.188785 -52.91718 
L 59.039806 -53.358971 
L 58.890828 -53.804319 
L 58.741849 -54.252014 
L 58.59287 -54.7013 
L 58.443892 -55.151942 
L 58.294913 -55.604287 
L 58.145934 -56.05928 
L 57.996956 -56.518462 
L 57.847977 -56.983933 
L 57.698998 -57.458276 
L 57.55002 -57.944462 
L 57.401041 -58.445721 
L 57.252062 -58.965402 
L 57.103084 -59.506804 
L 56.954105 -60.073013 
L 56.805126 -60.666732 
L 56.656148 -61.290123 
L 56.507169 -61.944657 
L 56.35819 -62.630998 
L 56.209212 -63.348906 
L 56.060233 -64.097177 
L 55.911254 -64.873624 
L 55.762276 -65.675086 
L 55.613297 -66.497487 
L 55.464318 -67.335927 
L 55.31534 -68.184801 
L 55.166361 -69.037958 
L 55.017382 -69.888875 
L 54.868404 -70.730847 
L 54.719425 -71.557192 
L 54.570446 -72.36145 
L 54.421468 -73.137579 
L 54.272489 -73.880136 
L 54.12351 -74.584436 
L 53.974532 -75.246685 
L 53.825553 -75.864079 
L 53.676574 -76.434866 
L 53.527595 -76.958372 
L 53.378617 -77.434988 
L 53.229638 -77.866112 
L 53.080659 -78.254058 
L 52.931681 -78.601932 
L 52.782702 -78.913477 
L 52.633723 -79.192894 
L 52.484745 -79.444653 
L 52.335766 -79.673291 
L 52.186787 -79.883209 
L 52.037809 -80.078489 
L 51.88883 -80.262717 
L 51.739851 -80.438836 
L 51.590873 -80.609034 
L 51.441894 -80.774659 
L 51.292915 -80.93619 
L 51.143937 -81.09323 
L 50.994958 -81.24456 
L 50.845979 -81.388213 
L 50.697001 -81.521593 
L 50.548022 -81.641617 
L 50.399043 -81.744874 
L 50.250065 -81.827795 
L 50.101086 -81.886825 
L 49.952107 -81.918581 
L 49.803129 -81.92 
L 49.65415 -81.888453 
L 49.505171 -81.821839 
L 49.356193 -81.718637 
L 49.207214 -81.577924 
L 49.058235 -81.399364 
L 48.909257 -81.183159 
L 48.760278 -80.929979 
L 48.611299 -80.640864 
L 48.462321 -80.317127 
L 48.313342 -79.960238 
L 48.164363 -79.571721 
L 48.015385 -79.15306 
L 47.866406 -78.705621 
L 47.717427 -78.230596 
L 47.568449 -77.728973 
L 47.41947 -77.201531 
L 47.270491 -76.64886 
L 47.121513 -76.071406 
L 46.972534 -75.469526 
L 46.823555 -74.843566 
L 46.674577 -74.193935 
L 46.525598 -73.521188 
L 46.376619 -72.826092 
L 46.227641 -72.109691 
L 46.078662 -71.373344 
L 45.929683 -70.618749 
L 45.780705 -69.847947 
L 45.631726 -69.063296 
L 45.482747 -68.267436 
L 45.333769 -67.463226 
L 45.18479 -66.653677 
L 45.035811 -65.841871 
L 44.886833 -65.030877 
L 44.737854 -64.22367 
L 44.588875 -63.423059 
L 44.439897 -62.631618 
L 44.290918 -61.85164 
L 44.141939 -61.085098 
L 43.992961 -60.333633 
L 43.843982 -59.598546 
L 43.695003 -58.880816 
L 43.546025 -58.181126 
L 43.397046 -57.499898 
L 43.248067 -56.837336 
L 43.099089 -56.193477 
L 42.95011 -55.56823 
L 42.801131 -54.96143 
L 42.652153 -54.372869 
L 42.503174 -53.802329 
L 42.354195 -53.249609 
L 42.205217 -52.71454 
L 42.056238 -52.19699 
L 41.907259 -51.696865 
L 41.758281 -51.214107 
L 41.609302 -50.74868 
L 41.460323 -50.300559 
L 41.311345 -49.869717 
L 41.162366 -49.456112 
L 41.013387 -49.059675 
L 40.864409 -48.680301 
L 40.71543 -48.317842 
L 40.566451 -47.972108 
L 40.417473 -47.642861 
L 40.268494 -47.329825 
L 40.119515 -47.032683 
L 39.970537 -46.75109 
L 39.821558 -46.484673 
L 39.672579 -46.233041 
L 39.523601 -45.995786 
L 39.374622 -45.772489 
L 39.225643 -45.562717 
L 39.076665 -45.366029 
L 38.927686 -45.181967 
L 38.778707 -45.010053 
L 38.629728 -44.849791 
L 38.48075 -44.700652 
L 38.331771 -44.56208 
L 38.182792 -44.433483 
L 38.033814 -44.314232 
L 37.884835 -44.203664 
L 37.735856 -44.101088 
L 37.586878 -44.005784 
L 37.437899 -43.917019 
L 37.28892 -43.834056 
L 37.139942 -43.756164 
L 36.990963 -43.682635 
L 36.841984 -43.612799 
L 36.693006 -43.546034 
L 36.544027 -43.481782 
L 36.395048 -43.41956 
L 36.24607 -43.358964 
L 36.097091 -43.299681 
L 35.948112 -43.241484 
L 35.799134 -43.184236 
L 35.650155 -43.127882 
L 35.501176 -43.072443 
L 35.352198 -43.018006 
L 35.203219 -42.964712 
L 35.05424 -42.912742 
L 34.905262 -42.862304 
L 34.756283 -42.813619 
z
" style="stroke: #414487; stroke-width: 1.25"/>
    </defs>
    <g>
     <use xlink:href="#m323eab770b" x="0" y="174.26" style="fill: #414487; fill-opacity: 0.7; stroke: #414487; stroke-width: 1.25"/>
    </g>
   </g>
   <g id="line2d_9">
    <path d="M 7.2 131.94 
L 216.45 131.94 
" style="fill: none; stroke: #414487; stroke-opacity: 0.9; stroke-linecap: round"/>
   </g>
   <g id="text_14">
    <!-- 8 -->
    <g style="fill: #414487" transform="translate(7.2 131.022) scale(0.12 -0.12)">
     <defs>
      <path id="IBMPlexSans-Bold-38" d="M 1920 -77 
Q 1523 -77 1212 22 
Q 902 122 691 294 
Q 480 467 368 704 
Q 256 941 256 1222 
Q 256 1651 493 1923 
Q 730 2195 1133 2304 
L 1133 2355 
Q 806 2477 598 2726 
Q 390 2976 390 3366 
Q 390 3622 489 3840 
Q 589 4058 784 4214 
Q 979 4371 1264 4457 
Q 1549 4544 1920 4544 
Q 2291 4544 2576 4457 
Q 2861 4371 3056 4214 
Q 3251 4058 3350 3840 
Q 3450 3622 3450 3366 
Q 3450 2976 3242 2726 
Q 3034 2477 2707 2355 
L 2707 2304 
Q 3110 2195 3347 1923 
Q 3584 1651 3584 1222 
Q 3584 941 3472 704 
Q 3360 467 3149 294 
Q 2938 122 2627 22 
Q 2317 -77 1920 -77 
z
M 1920 659 
Q 2240 659 2409 809 
Q 2579 960 2579 1229 
L 2579 1357 
Q 2579 1626 2409 1776 
Q 2240 1926 1920 1926 
Q 1600 1926 1430 1776 
Q 1261 1626 1261 1357 
L 1261 1229 
Q 1261 960 1430 809 
Q 1600 659 1920 659 
z
M 1920 2630 
Q 2227 2630 2387 2774 
Q 2547 2918 2547 3168 
L 2547 3270 
Q 2547 3520 2387 3664 
Q 2227 3808 1920 3808 
Q 1613 3808 1453 3664 
Q 1293 3520 1293 3270 
L 1293 3168 
Q 1293 2918 1453 2774 
Q 1613 2630 1920 2630 
z
" transform="scale(0.015625)"/>
     </defs>
     <use xlink:href="#IBMPlexSans-Bold-38"/>
    </g>
   </g>
  </g>
 </g>
</svg>
