<?xml version="1.0" encoding="utf-8" standalone="no"?>
<!DOCTYPE svg PUBLIC "-//W3C//DTD SVG 1.1//EN"
  "http://www.w3.org/Graphics/SVG/1.1/DTD/svg11.dtd">
<svg xmlns:xlink="http://www.w3.org/1999/xlink" width="223.85802pt" height="174.26pt" viewBox="0 0 223.85802 174.26" xmlns="http://www.w3.org/2000/svg" version="1.1">
 <metadata>
  <rdf:RDF xmlns:dc="http://purl.org/dc/elements/1.1/" xmlns:cc="http://creativecommons.org/ns#" xmlns:rdf="http://www.w3.org/1999/02/22-rdf-syntax-ns#">
   <cc:Work>
    <dc:type rdf:resource="http://purl.org/dc/dcmitype/StillImage"/>
    <dc:date>2025-07-24T17:02:52.341451</dc:date>
    <dc:format>image/svg+xml</dc:format>
    <dc:creator>
     <cc:Agent>
      <dc:title>Matplotlib v3.10.1, https://matplotlib.org/</dc:title>
     </cc:Agent>
    </dc:creator>
   </cc:Work>
  </rdf:RDF>
 </metadata>
 <defs>
  <style type="text/css">*{stroke-linejoin: round; stroke-linecap: butt}</style>
 </defs>
 <g id="figure_1">
  <g id="patch_1">
   <path d="M 0 174.26 
L 223.85802 174.26 
L 223.85802 0 
L 0 0 
L 0 174.26 
z
" style="fill: none"/>
  </g>
  <g id="axes_1">
   <g id="patch_2">
    <path d="M 7.40802 48.78 
L 216.65802 48.78 
L 216.65802 7.2 
L 7.40802 7.2 
L 7.40802 48.78 
z
" style="fill: none"/>
   </g>
   <g id="matplotlib.axis_1">
    <g id="xtick_1"/>
    <g id="xtick_2"/>
    <g id="xtick_3"/>
    <g id="xtick_4"/>
   </g>
   <g id="matplotlib.axis_2"/>
   <g id="line2d_1">
    <path d="M 7.40802 48.78 
L 216.65802 48.78 
" style="fill: none; stroke: #21918c; stroke-opacity: 0.9; stroke-linecap: round"/>
   </g>
   <g id="text_1">
    <!-- 0 -->
    <g style="fill: #21918c" transform="translate(7.40802 47.862) scale(0.12 -0.12)">
     <defs>
      <path id="IBMPlexSans-Bold-30" d="M 1920 -77 
Q 1043 -77 620 531 
Q 198 1139 198 2234 
Q 198 3328 620 3936 
Q 1043 4544 1920 4544 
Q 2797 4544 3219 3936 
Q 3642 3328 3642 2234 
Q 3642 1139 3219 531 
Q 2797 -77 1920 -77 
z
M 1920 736 
Q 2304 736 2451 1017 
Q 2598 1299 2598 1811 
L 2598 2656 
Q 2598 3168 2451 3449 
Q 2304 3731 1920 3731 
Q 1536 3731 1389 3449 
Q 1242 3168 1242 2656 
L 1242 1811 
Q 1242 1299 1389 1017 
Q 1536 736 1920 736 
z
" transform="scale(0.015625)"/>
     </defs>
     <use xlink:href="#IBMPlexSans-Bold-30"/>
    </g>
   </g>
  </g>
  <g id="axes_2">
   <g id="patch_3">
    <path d="M 7.40802 59.175 
L 216.65802 59.175 
L 216.65802 17.595 
L 7.40802 17.595 
L 7.40802 59.175 
z
" style="fill: none"/>
   </g>
   <g id="matplotlib.axis_3">
    <g id="xtick_5"/>
    <g id="xtick_6"/>
    <g id="xtick_7"/>
    <g id="xtick_8"/>
   </g>
   <g id="matplotlib.axis_4"/>
   <g id="FillBetweenPolyCollection_1">
    <defs>
     <path id="m37982acb56" d="M 100.689571 -122.345853 
L 100.689571 -115.085 
L 100.898995 -115.085 
L 101.108419 -115.085 
L 101.317843 -115.085 
L 101.527267 -115.085 
L 101.736691 -115.085 
L 101.946115 -115.085 
L 102.155539 -115.085 
L 102.364963 -115.085 
L 102.574387 -115.085 
L 102.783811 -115.085 
L 102.993235 -115.085 
L 103.202659 -115.085 
L 103.412083 -115.085 
L 103.621507 -115.085 
L 103.830931 -115.085 
L 104.040355 -115.085 
L 104.249779 -115.085 
L 104.459203 -115.085 
L 104.668627 -115.085 
L 104.878051 -115.085 
L 105.087475 -115.085 
L 105.296899 -115.085 
L 105.506323 -115.085 
L 105.715747 -115.085 
L 105.925171 -115.085 
L 106.134595 -115.085 
L 106.344019 -115.085 
L 106.553443 -115.085 
L 106.762866 -115.085 
L 106.97229 -115.085 
L 107.181714 -115.085 
L 107.391138 -115.085 
L 107.600562 -115.085 
L 107.809986 -115.085 
L 108.01941 -115.085 
L 108.228834 -115.085 
L 108.438258 -115.085 
L 108.647682 -115.085 
L 108.857106 -115.085 
L 109.06653 -115.085 
L 109.275954 -115.085 
L 109.485378 -115.085 
L 109.694802 -115.085 
L 109.904226 -115.085 
L 110.11365 -115.085 
L 110.323074 -115.085 
L 110.532498 -115.085 
L 110.741922 -115.085 
L 110.951346 -115.085 
L 111.16077 -115.085 
L 111.370194 -115.085 
L 111.579618 -115.085 
L 111.789042 -115.085 
L 111.998466 -115.085 
L 112.20789 -115.085 
L 112.417314 -115.085 
L 112.626738 -115.085 
L 112.836162 -115.085 
L 113.045586 -115.085 
L 113.25501 -115.085 
L 113.464434 -115.085 
L 113.673857 -115.085 
L 113.883281 -115.085 
L 114.092705 -115.085 
L 114.302129 -115.085 
L 114.511553 -115.085 
L 114.720977 -115.085 
L 114.930401 -115.085 
L 115.139825 -115.085 
L 115.349249 -115.085 
L 115.558673 -115.085 
L 115.768097 -115.085 
L 115.977521 -115.085 
L 116.186945 -115.085 
L 116.396369 -115.085 
L 116.605793 -115.085 
L 116.815217 -115.085 
L 117.024641 -115.085 
L 117.234065 -115.085 
L 117.443489 -115.085 
L 117.652913 -115.085 
L 117.862337 -115.085 
L 118.071761 -115.085 
L 118.281185 -115.085 
L 118.490609 -115.085 
L 118.700033 -115.085 
L 118.909457 -115.085 
L 119.118881 -115.085 
L 119.328305 -115.085 
L 119.537729 -115.085 
L 119.747153 -115.085 
L 119.956577 -115.085 
L 120.166001 -115.085 
L 120.375425 -115.085 
L 120.584848 -115.085 
L 120.794272 -115.085 
L 121.003696 -115.085 
L 121.21312 -115.085 
L 121.422544 -115.085 
L 121.631968 -115.085 
L 121.841392 -115.085 
L 122.050816 -115.085 
L 122.26024 -115.085 
L 122.469664 -115.085 
L 122.679088 -115.085 
L 122.888512 -115.085 
L 123.097936 -115.085 
L 123.30736 -115.085 
L 123.516784 -115.085 
L 123.726208 -115.085 
L 123.935632 -115.085 
L 124.145056 -115.085 
L 124.35448 -115.085 
L 124.563904 -115.085 
L 124.773328 -115.085 
L 124.982752 -115.085 
L 125.192176 -115.085 
L 125.4016 -115.085 
L 125.611024 -115.085 
L 125.820448 -115.085 
L 126.029872 -115.085 
L 126.239296 -115.085 
L 126.44872 -115.085 
L 126.658144 -115.085 
L 126.867568 -115.085 
L 127.076992 -115.085 
L 127.286415 -115.085 
L 127.495839 -115.085 
L 127.705263 -115.085 
L 127.914687 -115.085 
L 128.124111 -115.085 
L 128.333535 -115.085 
L 128.542959 -115.085 
L 128.752383 -115.085 
L 128.961807 -115.085 
L 129.171231 -115.085 
L 129.380655 -115.085 
L 129.590079 -115.085 
L 129.799503 -115.085 
L 130.008927 -115.085 
L 130.218351 -115.085 
L 130.427775 -115.085 
L 130.637199 -115.085 
L 130.846623 -115.085 
L 131.056047 -115.085 
L 131.265471 -115.085 
L 131.474895 -115.085 
L 131.684319 -115.085 
L 131.893743 -115.085 
L 132.103167 -115.085 
L 132.312591 -115.085 
L 132.522015 -115.085 
L 132.731439 -115.085 
L 132.940863 -115.085 
L 133.150287 -115.085 
L 133.359711 -115.085 
L 133.569135 -115.085 
L 133.778559 -115.085 
L 133.987983 -115.085 
L 134.197406 -115.085 
L 134.40683 -115.085 
L 134.616254 -115.085 
L 134.825678 -115.085 
L 135.035102 -115.085 
L 135.244526 -115.085 
L 135.45395 -115.085 
L 135.663374 -115.085 
L 135.872798 -115.085 
L 136.082222 -115.085 
L 136.291646 -115.085 
L 136.50107 -115.085 
L 136.710494 -115.085 
L 136.919918 -115.085 
L 137.129342 -115.085 
L 137.338766 -115.085 
L 137.54819 -115.085 
L 137.757614 -115.085 
L 137.967038 -115.085 
L 138.176462 -115.085 
L 138.385886 -115.085 
L 138.59531 -115.085 
L 138.804734 -115.085 
L 139.014158 -115.085 
L 139.223582 -115.085 
L 139.433006 -115.085 
L 139.64243 -115.085 
L 139.851854 -115.085 
L 140.061278 -115.085 
L 140.270702 -115.085 
L 140.480126 -115.085 
L 140.68955 -115.085 
L 140.898974 -115.085 
L 141.108397 -115.085 
L 141.317821 -115.085 
L 141.527245 -115.085 
L 141.736669 -115.085 
L 141.946093 -115.085 
L 142.155517 -115.085 
L 142.364941 -115.085 
L 142.364941 -117.4685 
L 142.364941 -117.4685 
L 142.155517 -117.75887 
L 141.946093 -118.071616 
L 141.736669 -118.406475 
L 141.527245 -118.76285 
L 141.317821 -119.139778 
L 141.108397 -119.535915 
L 140.898974 -119.949521 
L 140.68955 -120.378453 
L 140.480126 -120.820168 
L 140.270702 -121.271741 
L 140.061278 -121.729883 
L 139.851854 -122.190977 
L 139.64243 -122.651129 
L 139.433006 -123.106215 
L 139.223582 -123.551954 
L 139.014158 -123.983978 
L 138.804734 -124.397915 
L 138.59531 -124.789477 
L 138.385886 -125.15455 
L 138.176462 -125.489283 
L 137.967038 -125.790185 
L 137.757614 -126.054206 
L 137.54819 -126.278821 
L 137.338766 -126.462104 
L 137.129342 -126.602787 
L 136.919918 -126.700313 
L 136.710494 -126.754869 
L 136.50107 -126.767406 
L 136.291646 -126.739644 
L 136.082222 -126.67406 
L 135.872798 -126.573854 
L 135.663374 -126.44291 
L 135.45395 -126.28573 
L 135.244526 -126.107365 
L 135.035102 -125.913328 
L 134.825678 -125.7095 
L 134.616254 -125.502028 
L 134.40683 -125.297223 
L 134.197406 -125.101449 
L 133.987983 -124.921018 
L 133.778559 -124.762091 
L 133.569135 -124.630577 
L 133.359711 -124.532045 
L 133.150287 -124.471651 
L 132.940863 -124.454063 
L 132.731439 -124.483414 
L 132.522015 -124.563256 
L 132.312591 -124.696536 
L 132.103167 -124.88558 
L 131.893743 -125.132095 
L 131.684319 -125.437177 
L 131.474895 -125.801335 
L 131.265471 -126.22452 
L 131.056047 -126.706167 
L 130.846623 -127.245233 
L 130.637199 -127.84025 
L 130.427775 -128.489365 
L 130.218351 -129.190393 
L 130.008927 -129.940854 
L 129.799503 -130.738016 
L 129.590079 -131.578922 
L 129.380655 -132.460416 
L 129.171231 -133.379159 
L 128.961807 -134.331636 
L 128.752383 -135.314156 
L 128.542959 -136.322842 
L 128.333535 -137.353621 
L 128.124111 -138.402204 
L 127.914687 -139.464065 
L 127.705263 -140.534427 
L 127.495839 -141.608236 
L 127.286415 -142.680162 
L 127.076992 -143.744584 
L 126.867568 -144.795603 
L 126.658144 -145.827061 
L 126.44872 -146.83257 
L 126.239296 -147.805562 
L 126.029872 -148.739345 
L 125.820448 -149.627185 
L 125.611024 -150.462386 
L 125.4016 -151.238392 
L 125.192176 -151.948894 
L 124.982752 -152.58794 
L 124.773328 -153.150046 
L 124.563904 -153.63031 
L 124.35448 -154.024511 
L 124.145056 -154.329206 
L 123.935632 -154.541806 
L 123.726208 -154.660642 
L 123.516784 -154.685 
L 123.30736 -154.615147 
L 123.097936 -154.452322 
L 122.888512 -154.198713 
L 122.679088 -153.857403 
L 122.469664 -153.432302 
L 122.26024 -152.928052 
L 122.050816 -152.349924 
L 121.841392 -151.703698 
L 121.631968 -150.995532 
L 121.422544 -150.231834 
L 121.21312 -149.419133 
L 121.003696 -148.563946 
L 120.794272 -147.672665 
L 120.584848 -146.751452 
L 120.375425 -145.806145 
L 120.166001 -144.842191 
L 119.956577 -143.864586 
L 119.747153 -142.877844 
L 119.537729 -141.885983 
L 119.328305 -140.892524 
L 119.118881 -139.900515 
L 118.909457 -138.912567 
L 118.700033 -137.930896 
L 118.490609 -136.957382 
L 118.281185 -135.993633 
L 118.071761 -135.041045 
L 117.862337 -134.100871 
L 117.652913 -133.174281 
L 117.443489 -132.262421 
L 117.234065 -131.366459 
L 117.024641 -130.487632 
L 116.815217 -129.627272 
L 116.605793 -128.786835 
L 116.396369 -127.967907 
L 116.186945 -127.172216 
L 115.977521 -126.401618 
L 115.768097 -125.658097 
L 115.558673 -124.943738 
L 115.349249 -124.260714 
L 115.139825 -123.611262 
L 114.930401 -122.997654 
L 114.720977 -122.422182 
L 114.511553 -121.887126 
L 114.302129 -121.394743 
L 114.092705 -120.947238 
L 113.883281 -120.546759 
L 113.673857 -120.195376 
L 113.464434 -119.895069 
L 113.25501 -119.64772 
L 113.045586 -119.455099 
L 112.836162 -119.318854 
L 112.626738 -119.240492 
L 112.417314 -119.221366 
L 112.20789 -119.262649 
L 111.998466 -119.365309 
L 111.789042 -119.530077 
L 111.579618 -119.75741 
L 111.370194 -120.047446 
L 111.16077 -120.399957 
L 110.951346 -120.814301 
L 110.741922 -121.289367 
L 110.532498 -121.823521 
L 110.323074 -122.414554 
L 110.11365 -123.059637 
L 109.904226 -123.755276 
L 109.694802 -124.497284 
L 109.485378 -125.280757 
L 109.275954 -126.100066 
L 109.06653 -126.948872 
L 108.857106 -127.820145 
L 108.647682 -128.706215 
L 108.438258 -129.598837 
L 108.228834 -130.489271 
L 108.01941 -131.368389 
L 107.809986 -132.226794 
L 107.600562 -133.05496 
L 107.391138 -133.843373 
L 107.181714 -134.582695 
L 106.97229 -135.263925 
L 106.762866 -135.878563 
L 106.553443 -136.418772 
L 106.344019 -136.877527 
L 106.134595 -137.24876 
L 105.925171 -137.527482 
L 105.715747 -137.709885 
L 105.506323 -137.793423 
L 105.296899 -137.776862 
L 105.087475 -137.660311 
L 104.878051 -137.445212 
L 104.668627 -137.134309 
L 104.459203 -136.73159 
L 104.249779 -136.242194 
L 104.040355 -135.672305 
L 103.830931 -135.029016 
L 103.621507 -134.320183 
L 103.412083 -133.554267 
L 103.202659 -132.740158 
L 102.993235 -131.887012 
L 102.783811 -131.004074 
L 102.574387 -130.100518 
L 102.364963 -129.185289 
L 102.155539 -128.266964 
L 101.946115 -127.353624 
L 101.736691 -126.452751 
L 101.527267 -125.571135 
L 101.317843 -124.714813 
L 101.108419 -123.889022 
L 100.898995 -123.098174 
L 100.689571 -122.345853 
z
" style="stroke: #2a788e; stroke-width: 1.25"/>
    </defs>
    <g>
     <use xlink:href="#m37982acb56" x="0" y="174.26" style="fill: #2a788e; fill-opacity: 0.7; stroke: #2a788e; stroke-width: 1.25"/>
    </g>
   </g>
   <g id="line2d_2">
    <path d="M 7.40802 59.175 
L 216.65802 59.175 
" style="fill: none; stroke: #2a788e; stroke-opacity: 0.9; stroke-linecap: round"/>
   </g>
   <g id="text_2">
    <!-- 1 -->
    <g style="fill: #2a788e" transform="translate(7.40802 58.257) scale(0.12 -0.12)">
     <defs>
      <path id="IBMPlexSans-Bold-31" d="M 602 0 
L 602 774 
L 1805 774 
L 1805 3770 
L 1747 3770 
L 838 2579 
L 224 3059 
L 1293 4467 
L 2765 4467 
L 2765 774 
L 3712 774 
L 3712 0 
L 602 0 
z
" transform="scale(0.015625)"/>
     </defs>
     <use xlink:href="#IBMPlexSans-Bold-31"/>
    </g>
   </g>
  </g>
  <g id="axes_3">
   <g id="patch_4">
    <path d="M 7.40802 69.57 
L 216.65802 69.57 
L 216.65802 27.99 
L 7.40802 27.99 
L 7.40802 69.57 
z
" style="fill: none"/>
   </g>
   <g id="matplotlib.axis_5">
    <g id="xtick_9"/>
    <g id="xtick_10"/>
    <g id="xtick_11"/>
    <g id="xtick_12"/>
   </g>
   <g id="matplotlib.axis_6"/>
   <g id="FillBetweenPolyCollection_2">
    <defs>
     <path id="mbaa573dc39" d="M 75.375573 -107.249842 
L 75.375573 -104.69 
L 75.82152 -104.69 
L 76.267467 -104.69 
L 76.713414 -104.69 
L 77.159361 -104.69 
L 77.605308 -104.69 
L 78.051255 -104.69 
L 78.497202 -104.69 
L 78.943149 -104.69 
L 79.389095 -104.69 
L 79.835042 -104.69 
L 80.280989 -104.69 
L 80.726936 -104.69 
L 81.172883 -104.69 
L 81.61883 -104.69 
L 82.064777 -104.69 
L 82.510724 -104.69 
L 82.956671 -104.69 
L 83.402618 -104.69 
L 83.848564 -104.69 
L 84.294511 -104.69 
L 84.740458 -104.69 
L 85.186405 -104.69 
L 85.632352 -104.69 
L 86.078299 -104.69 
L 86.524246 -104.69 
L 86.970193 -104.69 
L 87.41614 -104.69 
L 87.862087 -104.69 
L 88.308034 -104.69 
L 88.75398 -104.69 
L 89.199927 -104.69 
L 89.645874 -104.69 
L 90.091821 -104.69 
L 90.537768 -104.69 
L 90.983715 -104.69 
L 91.429662 -104.69 
L 91.875609 -104.69 
L 92.321556 -104.69 
L 92.767503 -104.69 
L 93.213449 -104.69 
L 93.659396 -104.69 
L 94.105343 -104.69 
L 94.55129 -104.69 
L 94.997237 -104.69 
L 95.443184 -104.69 
L 95.889131 -104.69 
L 96.335078 -104.69 
L 96.781025 -104.69 
L 97.226972 -104.69 
L 97.672919 -104.69 
L 98.118865 -104.69 
L 98.564812 -104.69 
L 99.010759 -104.69 
L 99.456706 -104.69 
L 99.902653 -104.69 
L 100.3486 -104.69 
L 100.794547 -104.69 
L 101.240494 -104.69 
L 101.686441 -104.69 
L 102.132388 -104.69 
L 102.578335 -104.69 
L 103.024281 -104.69 
L 103.470228 -104.69 
L 103.916175 -104.69 
L 104.362122 -104.69 
L 104.808069 -104.69 
L 105.254016 -104.69 
L 105.699963 -104.69 
L 106.14591 -104.69 
L 106.591857 -104.69 
L 107.037804 -104.69 
L 107.48375 -104.69 
L 107.929697 -104.69 
L 108.375644 -104.69 
L 108.821591 -104.69 
L 109.267538 -104.69 
L 109.713485 -104.69 
L 110.159432 -104.69 
L 110.605379 -104.69 
L 111.051326 -104.69 
L 111.497273 -104.69 
L 111.94322 -104.69 
L 112.389166 -104.69 
L 112.835113 -104.69 
L 113.28106 -104.69 
L 113.727007 -104.69 
L 114.172954 -104.69 
L 114.618901 -104.69 
L 115.064848 -104.69 
L 115.510795 -104.69 
L 115.956742 -104.69 
L 116.402689 -104.69 
L 116.848635 -104.69 
L 117.294582 -104.69 
L 117.740529 -104.69 
L 118.186476 -104.69 
L 118.632423 -104.69 
L 119.07837 -104.69 
L 119.524317 -104.69 
L 119.970264 -104.69 
L 120.416211 -104.69 
L 120.862158 -104.69 
L 121.308105 -104.69 
L 121.754051 -104.69 
L 122.199998 -104.69 
L 122.645945 -104.69 
L 123.091892 -104.69 
L 123.537839 -104.69 
L 123.983786 -104.69 
L 124.429733 -104.69 
L 124.87568 -104.69 
L 125.321627 -104.69 
L 125.767574 -104.69 
L 126.213521 -104.69 
L 126.659467 -104.69 
L 127.105414 -104.69 
L 127.551361 -104.69 
L 127.997308 -104.69 
L 128.443255 -104.69 
L 128.889202 -104.69 
L 129.335149 -104.69 
L 129.781096 -104.69 
L 130.227043 -104.69 
L 130.67299 -104.69 
L 131.118936 -104.69 
L 131.564883 -104.69 
L 132.01083 -104.69 
L 132.456777 -104.69 
L 132.902724 -104.69 
L 133.348671 -104.69 
L 133.794618 -104.69 
L 134.240565 -104.69 
L 134.686512 -104.69 
L 135.132459 -104.69 
L 135.578406 -104.69 
L 136.024352 -104.69 
L 136.470299 -104.69 
L 136.916246 -104.69 
L 137.362193 -104.69 
L 137.80814 -104.69 
L 138.254087 -104.69 
L 138.700034 -104.69 
L 139.145981 -104.69 
L 139.591928 -104.69 
L 140.037875 -104.69 
L 140.483821 -104.69 
L 140.929768 -104.69 
L 141.375715 -104.69 
L 141.821662 -104.69 
L 142.267609 -104.69 
L 142.713556 -104.69 
L 143.159503 -104.69 
L 143.60545 -104.69 
L 144.051397 -104.69 
L 144.497344 -104.69 
L 144.943291 -104.69 
L 145.389237 -104.69 
L 145.835184 -104.69 
L 146.281131 -104.69 
L 146.727078 -104.69 
L 147.173025 -104.69 
L 147.618972 -104.69 
L 148.064919 -104.69 
L 148.510866 -104.69 
L 148.956813 -104.69 
L 149.40276 -104.69 
L 149.848707 -104.69 
L 150.294653 -104.69 
L 150.7406 -104.69 
L 151.186547 -104.69 
L 151.632494 -104.69 
L 152.078441 -104.69 
L 152.524388 -104.69 
L 152.970335 -104.69 
L 153.416282 -104.69 
L 153.862229 -104.69 
L 154.308176 -104.69 
L 154.754122 -104.69 
L 155.200069 -104.69 
L 155.646016 -104.69 
L 156.091963 -104.69 
L 156.53791 -104.69 
L 156.983857 -104.69 
L 157.429804 -104.69 
L 157.875751 -104.69 
L 158.321698 -104.69 
L 158.767645 -104.69 
L 159.213592 -104.69 
L 159.659538 -104.69 
L 160.105485 -104.69 
L 160.551432 -104.69 
L 160.997379 -104.69 
L 161.443326 -104.69 
L 161.889273 -104.69 
L 162.33522 -104.69 
L 162.781167 -104.69 
L 163.227114 -104.69 
L 163.673061 -104.69 
L 164.119007 -104.69 
L 164.119007 -105.436404 
L 164.119007 -105.436404 
L 163.673061 -105.538953 
L 163.227114 -105.651492 
L 162.781167 -105.774319 
L 162.33522 -105.907626 
L 161.889273 -106.051489 
L 161.443326 -106.205843 
L 160.997379 -106.370473 
L 160.551432 -106.544999 
L 160.105485 -106.728865 
L 159.659538 -106.921331 
L 159.213592 -107.121466 
L 158.767645 -107.328155 
L 158.321698 -107.540095 
L 157.875751 -107.755809 
L 157.429804 -107.97366 
L 156.983857 -108.19187 
L 156.53791 -108.408543 
L 156.091963 -108.621697 
L 155.646016 -108.829297 
L 155.200069 -109.029292 
L 154.754122 -109.219657 
L 154.308176 -109.398434 
L 153.862229 -109.563779 
L 153.416282 -109.714004 
L 152.970335 -109.84762 
L 152.524388 -109.963378 
L 152.078441 -110.060303 
L 151.632494 -110.137732 
L 151.186547 -110.195333 
L 150.7406 -110.233129 
L 150.294653 -110.251508 
L 149.848707 -110.251228 
L 149.40276 -110.233412 
L 148.956813 -110.199536 
L 148.510866 -110.151409 
L 148.064919 -110.091145 
L 147.618972 -110.021128 
L 147.173025 -109.94397 
L 146.727078 -109.862467 
L 146.281131 -109.779552 
L 145.835184 -109.698239 
L 145.389237 -109.621571 
L 144.943291 -109.552573 
L 144.497344 -109.494196 
L 144.051397 -109.449274 
L 143.60545 -109.420476 
L 143.159503 -109.410273 
L 142.713556 -109.420905 
L 142.267609 -109.454353 
L 141.821662 -109.512322 
L 141.375715 -109.59623 
L 140.929768 -109.707198 
L 140.483821 -109.846058 
L 140.037875 -110.013355 
L 139.591928 -110.209357 
L 139.145981 -110.434076 
L 138.700034 -110.687279 
L 138.254087 -110.968513 
L 137.80814 -111.277124 
L 137.362193 -111.612274 
L 136.916246 -111.972963 
L 136.470299 -112.35804 
L 136.024352 -112.766218 
L 135.578406 -113.19608 
L 135.132459 -113.646086 
L 134.686512 -114.114572 
L 134.240565 -114.599745 
L 133.794618 -115.099677 
L 133.348671 -115.612298 
L 132.902724 -116.135385 
L 132.456777 -116.666548 
L 132.01083 -117.203227 
L 131.564883 -117.742684 
L 131.118936 -118.281996 
L 130.67299 -118.818064 
L 130.227043 -119.347621 
L 129.781096 -119.867244 
L 129.335149 -120.373386 
L 128.889202 -120.862401 
L 128.443255 -121.330586 
L 127.997308 -121.774231 
L 127.551361 -122.189668 
L 127.105414 -122.573329 
L 126.659467 -122.92181 
L 126.213521 -123.23193 
L 125.767574 -123.500791 
L 125.321627 -123.725841 
L 124.87568 -123.904922 
L 124.429733 -124.036318 
L 123.983786 -124.118791 
L 123.537839 -124.151607 
L 123.091892 -124.134552 
L 122.645945 -124.067935 
L 122.199998 -123.952575 
L 121.754051 -123.789784 
L 121.308105 -123.58133 
L 120.862158 -123.329397 
L 120.416211 -123.03653 
L 119.970264 -122.705582 
L 119.524317 -122.339645 
L 119.07837 -121.941989 
L 118.632423 -121.515995 
L 118.186476 -121.065095 
L 117.740529 -120.592708 
L 117.294582 -120.102189 
L 116.848635 -119.596785 
L 116.402689 -119.079592 
L 115.956742 -118.553529 
L 115.510795 -118.021317 
L 115.064848 -117.485466 
L 114.618901 -116.948271 
L 114.172954 -116.411821 
L 113.727007 -115.878002 
L 113.28106 -115.348519 
L 112.835113 -114.824912 
L 112.389166 -114.308579 
L 111.94322 -113.800799 
L 111.497273 -113.302754 
L 111.051326 -112.815553 
L 110.605379 -112.34025 
L 110.159432 -111.877859 
L 109.713485 -111.429373 
L 109.267538 -110.995771 
L 108.821591 -110.578026 
L 108.375644 -110.177108 
L 107.929697 -109.793987 
L 107.48375 -109.429632 
L 107.037804 -109.085006 
L 106.591857 -108.761063 
L 106.14591 -108.458745 
L 105.699963 -108.178972 
L 105.254016 -107.922639 
L 104.808069 -107.690613 
L 104.362122 -107.483725 
L 103.916175 -107.302765 
L 103.470228 -107.148482 
L 103.024281 -107.021573 
L 102.578335 -106.922686 
L 102.132388 -106.852408 
L 101.686441 -106.811264 
L 101.240494 -106.799702 
L 100.794547 -106.818091 
L 100.3486 -106.866701 
L 99.902653 -106.945693 
L 99.456706 -107.0551 
L 99.010759 -107.194806 
L 98.564812 -107.364525 
L 98.118865 -107.563779 
L 97.672919 -107.791871 
L 97.226972 -108.04786 
L 96.781025 -108.330541 
L 96.335078 -108.638416 
L 95.889131 -108.969683 
L 95.443184 -109.322215 
L 94.997237 -109.693555 
L 94.55129 -110.080911 
L 94.105343 -110.481164 
L 93.659396 -110.890877 
L 93.213449 -111.306322 
L 92.767503 -111.723512 
L 92.321556 -112.138239 
L 91.875609 -112.546127 
L 91.429662 -112.942689 
L 90.983715 -113.323397 
L 90.537768 -113.683749 
L 90.091821 -114.019348 
L 89.645874 -114.32598 
L 89.199927 -114.599691 
L 88.75398 -114.836868 
L 88.308034 -115.034308 
L 87.862087 -115.189284 
L 87.41614 -115.299606 
L 86.970193 -115.363663 
L 86.524246 -115.380464 
L 86.078299 -115.349656 
L 85.632352 -115.271535 
L 85.186405 -115.147035 
L 84.740458 -114.977715 
L 84.294511 -114.76572 
L 83.848564 -114.513733 
L 83.402618 -114.224923 
L 82.956671 -113.90287 
L 82.510724 -113.551495 
L 82.064777 -113.174979 
L 81.61883 -112.777676 
L 81.172883 -112.364031 
L 80.726936 -111.938498 
L 80.280989 -111.505459 
L 79.835042 -111.069149 
L 79.389095 -110.633594 
L 78.943149 -110.20255 
L 78.497202 -109.779455 
L 78.051255 -109.367393 
L 77.605308 -108.969064 
L 77.159361 -108.586769 
L 76.713414 -108.222403 
L 76.267467 -107.877457 
L 75.82152 -107.553028 
L 75.375573 -107.249842 
z
" style="stroke: #355f8d; stroke-width: 1.25"/>
    </defs>
    <g>
     <use xlink:href="#mbaa573dc39" x="0" y="174.26" style="fill: #355f8d; fill-opacity: 0.7; stroke: #355f8d; stroke-width: 1.25"/>
    </g>
   </g>
   <g id="line2d_3">
    <path d="M 7.40802 69.57 
L 216.65802 69.57 
" style="fill: none; stroke: #355f8d; stroke-opacity: 0.9; stroke-linecap: round"/>
   </g>
   <g id="text_3">
    <!-- 2 -->
    <g style="fill: #355f8d" transform="translate(7.40802 68.652) scale(0.12 -0.12)">
     <defs>
      <path id="IBMPlexSans-Bold-32" d="M 3526 0 
L 365 0 
L 365 877 
L 1741 2054 
Q 1926 2214 2054 2345 
Q 2182 2477 2262 2601 
Q 2342 2726 2377 2848 
Q 2413 2970 2413 3110 
L 2413 3200 
Q 2413 3328 2361 3424 
Q 2310 3520 2227 3584 
Q 2144 3648 2038 3680 
Q 1933 3712 1824 3712 
Q 1664 3712 1545 3661 
Q 1427 3610 1340 3523 
Q 1254 3437 1196 3325 
Q 1139 3213 1107 3085 
L 269 3405 
Q 346 3635 480 3843 
Q 614 4051 816 4208 
Q 1018 4365 1293 4454 
Q 1568 4544 1914 4544 
Q 2278 4544 2560 4441 
Q 2842 4339 3037 4160 
Q 3232 3981 3334 3734 
Q 3437 3488 3437 3200 
Q 3437 2912 3341 2675 
Q 3245 2438 3081 2230 
Q 2918 2022 2700 1836 
Q 2483 1651 2246 1459 
L 1414 806 
L 3526 806 
L 3526 0 
z
" transform="scale(0.015625)"/>
     </defs>
     <use xlink:href="#IBMPlexSans-Bold-32"/>
    </g>
   </g>
  </g>
  <g id="axes_4">
   <g id="patch_5">
    <path d="M 7.40802 79.965 
L 216.65802 79.965 
L 216.65802 38.385 
L 7.40802 38.385 
L 7.40802 79.965 
z
" style="fill: none"/>
   </g>
   <g id="matplotlib.axis_7">
    <g id="xtick_13"/>
    <g id="xtick_14"/>
    <g id="xtick_15"/>
    <g id="xtick_16"/>
   </g>
   <g id="matplotlib.axis_8"/>
   <g id="FillBetweenPolyCollection_3">
    <defs>
     <path id="m7a23760d44" d="M 46.604927 -95.193061 
L 46.604927 -94.295 
L 47.299135 -94.295 
L 47.993343 -94.295 
L 48.687551 -94.295 
L 49.381759 -94.295 
L 50.075967 -94.295 
L 50.770175 -94.295 
L 51.464382 -94.295 
L 52.15859 -94.295 
L 52.852798 -94.295 
L 53.547006 -94.295 
L 54.241214 -94.295 
L 54.935422 -94.295 
L 55.62963 -94.295 
L 56.323838 -94.295 
L 57.018045 -94.295 
L 57.712253 -94.295 
L 58.406461 -94.295 
L 59.100669 -94.295 
L 59.794877 -94.295 
L 60.489085 -94.295 
L 61.183293 -94.295 
L 61.877501 -94.295 
L 62.571709 -94.295 
L 63.265916 -94.295 
L 63.960124 -94.295 
L 64.654332 -94.295 
L 65.34854 -94.295 
L 66.042748 -94.295 
L 66.736956 -94.295 
L 67.431164 -94.295 
L 68.125372 -94.295 
L 68.81958 -94.295 
L 69.513787 -94.295 
L 70.207995 -94.295 
L 70.902203 -94.295 
L 71.596411 -94.295 
L 72.290619 -94.295 
L 72.984827 -94.295 
L 73.679035 -94.295 
L 74.373243 -94.295 
L 75.067451 -94.295 
L 75.761658 -94.295 
L 76.455866 -94.295 
L 77.150074 -94.295 
L 77.844282 -94.295 
L 78.53849 -94.295 
L 79.232698 -94.295 
L 79.926906 -94.295 
L 80.621114 -94.295 
L 81.315322 -94.295 
L 82.009529 -94.295 
L 82.703737 -94.295 
L 83.397945 -94.295 
L 84.092153 -94.295 
L 84.786361 -94.295 
L 85.480569 -94.295 
L 86.174777 -94.295 
L 86.868985 -94.295 
L 87.563192 -94.295 
L 88.2574 -94.295 
L 88.951608 -94.295 
L 89.645816 -94.295 
L 90.340024 -94.295 
L 91.034232 -94.295 
L 91.72844 -94.295 
L 92.422648 -94.295 
L 93.116856 -94.295 
L 93.811063 -94.295 
L 94.505271 -94.295 
L 95.199479 -94.295 
L 95.893687 -94.295 
L 96.587895 -94.295 
L 97.282103 -94.295 
L 97.976311 -94.295 
L 98.670519 -94.295 
L 99.364727 -94.295 
L 100.058934 -94.295 
L 100.753142 -94.295 
L 101.44735 -94.295 
L 102.141558 -94.295 
L 102.835766 -94.295 
L 103.529974 -94.295 
L 104.224182 -94.295 
L 104.91839 -94.295 
L 105.612598 -94.295 
L 106.306805 -94.295 
L 107.001013 -94.295 
L 107.695221 -94.295 
L 108.389429 -94.295 
L 109.083637 -94.295 
L 109.777845 -94.295 
L 110.472053 -94.295 
L 111.166261 -94.295 
L 111.860469 -94.295 
L 112.554676 -94.295 
L 113.248884 -94.295 
L 113.943092 -94.295 
L 114.6373 -94.295 
L 115.331508 -94.295 
L 116.025716 -94.295 
L 116.719924 -94.295 
L 117.414132 -94.295 
L 118.108339 -94.295 
L 118.802547 -94.295 
L 119.496755 -94.295 
L 120.190963 -94.295 
L 120.885171 -94.295 
L 121.579379 -94.295 
L 122.273587 -94.295 
L 122.967795 -94.295 
L 123.662003 -94.295 
L 124.35621 -94.295 
L 125.050418 -94.295 
L 125.744626 -94.295 
L 126.438834 -94.295 
L 127.133042 -94.295 
L 127.82725 -94.295 
L 128.521458 -94.295 
L 129.215666 -94.295 
L 129.909874 -94.295 
L 130.604081 -94.295 
L 131.298289 -94.295 
L 131.992497 -94.295 
L 132.686705 -94.295 
L 133.380913 -94.295 
L 134.075121 -94.295 
L 134.769329 -94.295 
L 135.463537 -94.295 
L 136.157745 -94.295 
L 136.851952 -94.295 
L 137.54616 -94.295 
L 138.240368 -94.295 
L 138.934576 -94.295 
L 139.628784 -94.295 
L 140.322992 -94.295 
L 141.0172 -94.295 
L 141.711408 -94.295 
L 142.405615 -94.295 
L 143.099823 -94.295 
L 143.794031 -94.295 
L 144.488239 -94.295 
L 145.182447 -94.295 
L 145.876655 -94.295 
L 146.570863 -94.295 
L 147.265071 -94.295 
L 147.959279 -94.295 
L 148.653486 -94.295 
L 149.347694 -94.295 
L 150.041902 -94.295 
L 150.73611 -94.295 
L 151.430318 -94.295 
L 152.124526 -94.295 
L 152.818734 -94.295 
L 153.512942 -94.295 
L 154.20715 -94.295 
L 154.901357 -94.295 
L 155.595565 -94.295 
L 156.289773 -94.295 
L 156.983981 -94.295 
L 157.678189 -94.295 
L 158.372397 -94.295 
L 159.066605 -94.295 
L 159.760813 -94.295 
L 160.455021 -94.295 
L 161.149228 -94.295 
L 161.843436 -94.295 
L 162.537644 -94.295 
L 163.231852 -94.295 
L 163.92606 -94.295 
L 164.620268 -94.295 
L 165.314476 -94.295 
L 166.008684 -94.295 
L 166.702892 -94.295 
L 167.397099 -94.295 
L 168.091307 -94.295 
L 168.785515 -94.295 
L 169.479723 -94.295 
L 170.173931 -94.295 
L 170.868139 -94.295 
L 171.562347 -94.295 
L 172.256555 -94.295 
L 172.950762 -94.295 
L 173.64497 -94.295 
L 174.339178 -94.295 
L 175.033386 -94.295 
L 175.727594 -94.295 
L 176.421802 -94.295 
L 177.11601 -94.295 
L 177.810218 -94.295 
L 178.504426 -94.295 
L 179.198633 -94.295 
L 179.892841 -94.295 
L 180.587049 -94.295 
L 181.281257 -94.295 
L 181.975465 -94.295 
L 182.669673 -94.295 
L 183.363881 -94.295 
L 184.058089 -94.295 
L 184.752297 -94.295 
L 184.752297 -94.895934 
L 184.752297 -94.895934 
L 184.058089 -94.97329 
L 183.363881 -95.057276 
L 182.669673 -95.147942 
L 181.975465 -95.245258 
L 181.281257 -95.349097 
L 180.587049 -95.459234 
L 179.892841 -95.575334 
L 179.198633 -95.696953 
L 178.504426 -95.823528 
L 177.810218 -95.954383 
L 177.11601 -96.08873 
L 176.421802 -96.225671 
L 175.727594 -96.364211 
L 175.033386 -96.503268 
L 174.339178 -96.641685 
L 173.64497 -96.778251 
L 172.950762 -96.91172 
L 172.256555 -97.040833 
L 171.562347 -97.164342 
L 170.868139 -97.281037 
L 170.173931 -97.389771 
L 169.479723 -97.48949 
L 168.785515 -97.579256 
L 168.091307 -97.658273 
L 167.397099 -97.725911 
L 166.702892 -97.781723 
L 166.008684 -97.825468 
L 165.314476 -97.857117 
L 164.620268 -97.876867 
L 163.92606 -97.885143 
L 163.231852 -97.882596 
L 162.537644 -97.870098 
L 161.843436 -97.848732 
L 161.149228 -97.819775 
L 160.455021 -97.784679 
L 159.760813 -97.745045 
L 159.066605 -97.702599 
L 158.372397 -97.659161 
L 157.678189 -97.616612 
L 156.983981 -97.576864 
L 156.289773 -97.541829 
L 155.595565 -97.513384 
L 154.901357 -97.493342 
L 154.20715 -97.483429 
L 153.512942 -97.485251 
L 152.818734 -97.50028 
L 152.124526 -97.529832 
L 151.430318 -97.575057 
L 150.73611 -97.636926 
L 150.041902 -97.716227 
L 149.347694 -97.813562 
L 148.653486 -97.929349 
L 147.959279 -98.063828 
L 147.265071 -98.217063 
L 146.570863 -98.388955 
L 145.876655 -98.579249 
L 145.182447 -98.787544 
L 144.488239 -99.013301 
L 143.794031 -99.255856 
L 143.099823 -99.514423 
L 142.405615 -99.788104 
L 141.711408 -100.075889 
L 141.0172 -100.376665 
L 140.322992 -100.689209 
L 139.628784 -101.012196 
L 138.934576 -101.34419 
L 138.240368 -101.683648 
L 137.54616 -102.028916 
L 136.851952 -102.378226 
L 136.157745 -102.7297 
L 135.463537 -103.08135 
L 134.769329 -103.431086 
L 134.075121 -103.776722 
L 133.380913 -104.115991 
L 132.686705 -104.446561 
L 131.992497 -104.766056 
L 131.298289 -105.072079 
L 130.604081 -105.362244 
L 129.909874 -105.634206 
L 129.215666 -105.885693 
L 128.521458 -106.114542 
L 127.82725 -106.318738 
L 127.133042 -106.496444 
L 126.438834 -106.646037 
L 125.744626 -106.766137 
L 125.050418 -106.855632 
L 124.35621 -106.913702 
L 123.662003 -106.939829 
L 122.967795 -106.933809 
L 122.273587 -106.895752 
L 121.579379 -106.826081 
L 120.885171 -106.725512 
L 120.190963 -106.595044 
L 119.496755 -106.435934 
L 118.802547 -106.249665 
L 118.108339 -106.037918 
L 117.414132 -105.802536 
L 116.719924 -105.545488 
L 116.025716 -105.268836 
L 115.331508 -104.974694 
L 114.6373 -104.665203 
L 113.943092 -104.342492 
L 113.248884 -104.008657 
L 112.554676 -103.665738 
L 111.860469 -103.315698 
L 111.166261 -102.960413 
L 110.472053 -102.601659 
L 109.777845 -102.241107 
L 109.083637 -101.880328 
L 108.389429 -101.520784 
L 107.695221 -101.163843 
L 107.001013 -100.810777 
L 106.306805 -100.462776 
L 105.612598 -100.120951 
L 104.91839 -99.786346 
L 104.224182 -99.459943 
L 103.529974 -99.142673 
L 102.835766 -98.83542 
L 102.141558 -98.539023 
L 101.44735 -98.254285 
L 100.753142 -97.981974 
L 100.058934 -97.722823 
L 99.364727 -97.477532 
L 98.670519 -97.246766 
L 97.976311 -97.031158 
L 97.282103 -96.831306 
L 96.587895 -96.647772 
L 95.893687 -96.481081 
L 95.199479 -96.331721 
L 94.505271 -96.200144 
L 93.811063 -96.08676 
L 93.116856 -95.991941 
L 92.422648 -95.916019 
L 91.72844 -95.859281 
L 91.034232 -95.82197 
L 90.340024 -95.80428 
L 89.645816 -95.806351 
L 88.951608 -95.82826 
L 88.2574 -95.87002 
L 87.563192 -95.931562 
L 86.868985 -96.012728 
L 86.174777 -96.113259 
L 85.480569 -96.232779 
L 84.786361 -96.370783 
L 84.092153 -96.526619 
L 83.397945 -96.699476 
L 82.703737 -96.888371 
L 82.009529 -97.092136 
L 81.315322 -97.309408 
L 80.621114 -97.538626 
L 79.926906 -97.778027 
L 79.232698 -98.025648 
L 78.53849 -98.279337 
L 77.844282 -98.536763 
L 77.150074 -98.795437 
L 76.455866 -99.052735 
L 75.761658 -99.30593 
L 75.067451 -99.552229 
L 74.373243 -99.788808 
L 73.679035 -100.012863 
L 72.984827 -100.22165 
L 72.290619 -100.412538 
L 71.596411 -100.583056 
L 70.902203 -100.730939 
L 70.207995 -100.854176 
L 69.513787 -100.951049 
L 68.81958 -101.020171 
L 68.125372 -101.060512 
L 67.431164 -101.071426 
L 66.736956 -101.052663 
L 66.042748 -101.004375 
L 65.34854 -100.927113 
L 64.654332 -100.821815 
L 63.960124 -100.689786 
L 63.265916 -100.532668 
L 62.571709 -100.352407 
L 61.877501 -100.15121 
L 61.183293 -99.931499 
L 60.489085 -99.695859 
L 59.794877 -99.446991 
L 59.100669 -99.187656 
L 58.406461 -98.920625 
L 57.712253 -98.648626 
L 57.018045 -98.374306 
L 56.323838 -98.100182 
L 55.62963 -97.828606 
L 54.935422 -97.561741 
L 54.241214 -97.301527 
L 53.547006 -97.049671 
L 52.852798 -96.807634 
L 52.15859 -96.576626 
L 51.464382 -96.357606 
L 50.770175 -96.151289 
L 50.075967 -95.958159 
L 49.381759 -95.778481 
L 48.687551 -95.612322 
L 47.993343 -95.459567 
L 47.299135 -95.319949 
L 46.604927 -95.193061 
z
" style="stroke: #414487; stroke-width: 1.25"/>
    </defs>
    <g>
     <use xlink:href="#m7a23760d44" x="0" y="174.26" style="fill: #414487; fill-opacity: 0.7; stroke: #414487; stroke-width: 1.25"/>
    </g>
   </g>
   <g id="line2d_4">
    <path d="M 7.40802 79.965 
L 216.65802 79.965 
" style="fill: none; stroke: #414487; stroke-opacity: 0.9; stroke-linecap: round"/>
   </g>
   <g id="text_4">
    <!-- 3 -->
    <g style="fill: #414487" transform="translate(7.40802 79.047) scale(0.12 -0.12)">
     <defs>
      <path id="IBMPlexSans-Bold-33" d="M 1677 2701 
Q 2035 2701 2198 2838 
Q 2362 2976 2362 3181 
L 2362 3226 
Q 2362 3469 2205 3616 
Q 2048 3763 1760 3763 
Q 1491 3763 1254 3625 
Q 1018 3488 851 3232 
L 250 3795 
Q 378 3962 525 4099 
Q 672 4237 857 4336 
Q 1043 4435 1273 4489 
Q 1504 4544 1792 4544 
Q 2150 4544 2441 4461 
Q 2733 4378 2941 4221 
Q 3149 4064 3261 3846 
Q 3373 3629 3373 3360 
Q 3373 3149 3305 2976 
Q 3238 2803 3120 2675 
Q 3002 2547 2848 2467 
Q 2694 2387 2522 2355 
L 2522 2317 
Q 2720 2278 2889 2192 
Q 3059 2106 3184 1971 
Q 3309 1837 3379 1654 
Q 3450 1472 3450 1242 
Q 3450 941 3328 697 
Q 3206 454 2982 281 
Q 2758 109 2444 16 
Q 2131 -77 1754 -77 
Q 1414 -77 1152 -6 
Q 890 64 694 182 
Q 499 301 355 454 
Q 211 608 102 781 
L 813 1331 
Q 960 1056 1174 880 
Q 1389 704 1754 704 
Q 2080 704 2262 867 
Q 2445 1030 2445 1312 
L 2445 1350 
Q 2445 1626 2237 1763 
Q 2029 1901 1664 1901 
L 1261 1901 
L 1261 2701 
L 1677 2701 
z
" transform="scale(0.015625)"/>
     </defs>
     <use xlink:href="#IBMPlexSans-Bold-33"/>
    </g>
   </g>
  </g>
  <g id="axes_5">
   <g id="patch_6">
    <path d="M 7.40802 90.36 
L 216.65802 90.36 
L 216.65802 48.78 
L 7.40802 48.78 
L 7.40802 90.36 
z
" style="fill: none"/>
   </g>
   <g id="matplotlib.axis_9">
    <g id="xtick_17"/>
    <g id="xtick_18"/>
    <g id="xtick_19"/>
    <g id="xtick_20"/>
   </g>
   <g id="matplotlib.axis_10"/>
   <g id="FillBetweenPolyCollection_4">
    <defs>
     <path id="m371f7827c2" d="M 16.919384 -84.342686 
L 16.919384 -83.9 
L 17.8753 -83.9 
L 18.831216 -83.9 
L 19.787131 -83.9 
L 20.743047 -83.9 
L 21.698963 -83.9 
L 22.654879 -83.9 
L 23.610795 -83.9 
L 24.566711 -83.9 
L 25.522627 -83.9 
L 26.478543 -83.9 
L 27.434459 -83.9 
L 28.390375 -83.9 
L 29.346291 -83.9 
L 30.302207 -83.9 
L 31.258123 -83.9 
L 32.214039 -83.9 
L 33.169955 -83.9 
L 34.125871 -83.9 
L 35.081787 -83.9 
L 36.037703 -83.9 
L 36.993618 -83.9 
L 37.949534 -83.9 
L 38.90545 -83.9 
L 39.861366 -83.9 
L 40.817282 -83.9 
L 41.773198 -83.9 
L 42.729114 -83.9 
L 43.68503 -83.9 
L 44.640946 -83.9 
L 45.596862 -83.9 
L 46.552778 -83.9 
L 47.508694 -83.9 
L 48.46461 -83.9 
L 49.420526 -83.9 
L 50.376442 -83.9 
L 51.332358 -83.9 
L 52.288274 -83.9 
L 53.244189 -83.9 
L 54.200105 -83.9 
L 55.156021 -83.9 
L 56.111937 -83.9 
L 57.067853 -83.9 
L 58.023769 -83.9 
L 58.979685 -83.9 
L 59.935601 -83.9 
L 60.891517 -83.9 
L 61.847433 -83.9 
L 62.803349 -83.9 
L 63.759265 -83.9 
L 64.715181 -83.9 
L 65.671097 -83.9 
L 66.627013 -83.9 
L 67.582929 -83.9 
L 68.538845 -83.9 
L 69.494761 -83.9 
L 70.450676 -83.9 
L 71.406592 -83.9 
L 72.362508 -83.9 
L 73.318424 -83.9 
L 74.27434 -83.9 
L 75.230256 -83.9 
L 76.186172 -83.9 
L 77.142088 -83.9 
L 78.098004 -83.9 
L 79.05392 -83.9 
L 80.009836 -83.9 
L 80.965752 -83.9 
L 81.921668 -83.9 
L 82.877584 -83.9 
L 83.8335 -83.9 
L 84.789416 -83.9 
L 85.745332 -83.9 
L 86.701248 -83.9 
L 87.657163 -83.9 
L 88.613079 -83.9 
L 89.568995 -83.9 
L 90.524911 -83.9 
L 91.480827 -83.9 
L 92.436743 -83.9 
L 93.392659 -83.9 
L 94.348575 -83.9 
L 95.304491 -83.9 
L 96.260407 -83.9 
L 97.216323 -83.9 
L 98.172239 -83.9 
L 99.128155 -83.9 
L 100.084071 -83.9 
L 101.039987 -83.9 
L 101.995903 -83.9 
L 102.951819 -83.9 
L 103.907734 -83.9 
L 104.86365 -83.9 
L 105.819566 -83.9 
L 106.775482 -83.9 
L 107.731398 -83.9 
L 108.687314 -83.9 
L 109.64323 -83.9 
L 110.599146 -83.9 
L 111.555062 -83.9 
L 112.510978 -83.9 
L 113.466894 -83.9 
L 114.42281 -83.9 
L 115.378726 -83.9 
L 116.334642 -83.9 
L 117.290558 -83.9 
L 118.246474 -83.9 
L 119.20239 -83.9 
L 120.158306 -83.9 
L 121.114221 -83.9 
L 122.070137 -83.9 
L 123.026053 -83.9 
L 123.981969 -83.9 
L 124.937885 -83.9 
L 125.893801 -83.9 
L 126.849717 -83.9 
L 127.805633 -83.9 
L 128.761549 -83.9 
L 129.717465 -83.9 
L 130.673381 -83.9 
L 131.629297 -83.9 
L 132.585213 -83.9 
L 133.541129 -83.9 
L 134.497045 -83.9 
L 135.452961 -83.9 
L 136.408877 -83.9 
L 137.364793 -83.9 
L 138.320708 -83.9 
L 139.276624 -83.9 
L 140.23254 -83.9 
L 141.188456 -83.9 
L 142.144372 -83.9 
L 143.100288 -83.9 
L 144.056204 -83.9 
L 145.01212 -83.9 
L 145.968036 -83.9 
L 146.923952 -83.9 
L 147.879868 -83.9 
L 148.835784 -83.9 
L 149.7917 -83.9 
L 150.747616 -83.9 
L 151.703532 -83.9 
L 152.659448 -83.9 
L 153.615364 -83.9 
L 154.571279 -83.9 
L 155.527195 -83.9 
L 156.483111 -83.9 
L 157.439027 -83.9 
L 158.394943 -83.9 
L 159.350859 -83.9 
L 160.306775 -83.9 
L 161.262691 -83.9 
L 162.218607 -83.9 
L 163.174523 -83.9 
L 164.130439 -83.9 
L 165.086355 -83.9 
L 166.042271 -83.9 
L 166.998187 -83.9 
L 167.954103 -83.9 
L 168.910019 -83.9 
L 169.865935 -83.9 
L 170.821851 -83.9 
L 171.777766 -83.9 
L 172.733682 -83.9 
L 173.689598 -83.9 
L 174.645514 -83.9 
L 175.60143 -83.9 
L 176.557346 -83.9 
L 177.513262 -83.9 
L 178.469178 -83.9 
L 179.425094 -83.9 
L 180.38101 -83.9 
L 181.336926 -83.9 
L 182.292842 -83.9 
L 183.248758 -83.9 
L 184.204674 -83.9 
L 185.16059 -83.9 
L 186.116506 -83.9 
L 187.072422 -83.9 
L 188.028338 -83.9 
L 188.984253 -83.9 
L 189.940169 -83.9 
L 190.896085 -83.9 
L 191.852001 -83.9 
L 192.807917 -83.9 
L 193.763833 -83.9 
L 194.719749 -83.9 
L 195.675665 -83.9 
L 196.631581 -83.9 
L 197.587497 -83.9 
L 198.543413 -83.9 
L 199.499329 -83.9 
L 200.455245 -83.9 
L 201.411161 -83.9 
L 202.367077 -83.9 
L 203.322993 -83.9 
L 204.278909 -83.9 
L 205.234824 -83.9 
L 206.19074 -83.9 
L 207.146656 -83.9 
L 207.146656 -84.306899 
L 207.146656 -84.306899 
L 206.19074 -84.360314 
L 205.234824 -84.418471 
L 204.278909 -84.481438 
L 203.322993 -84.549228 
L 202.367077 -84.621787 
L 201.411161 -84.698997 
L 200.455245 -84.780662 
L 199.499329 -84.866509 
L 198.543413 -84.956185 
L 197.587497 -85.049254 
L 196.631581 -85.145199 
L 195.675665 -85.243425 
L 194.719749 -85.343261 
L 193.763833 -85.443973 
L 192.807917 -85.544767 
L 191.852001 -85.644804 
L 190.896085 -85.743211 
L 189.940169 -85.839099 
L 188.984253 -85.931579 
L 188.028338 -86.019777 
L 187.072422 -86.102855 
L 186.116506 -86.180034 
L 185.16059 -86.250604 
L 184.204674 -86.313951 
L 183.248758 -86.36957 
L 182.292842 -86.417081 
L 181.336926 -86.456243 
L 180.38101 -86.486965 
L 179.425094 -86.509312 
L 178.469178 -86.523514 
L 177.513262 -86.52996 
L 176.557346 -86.529205 
L 175.60143 -86.521954 
L 174.645514 -86.509061 
L 173.689598 -86.49151 
L 172.733682 -86.470404 
L 171.777766 -86.446944 
L 170.821851 -86.422412 
L 169.865935 -86.398145 
L 168.910019 -86.375517 
L 167.954103 -86.355911 
L 166.998187 -86.340702 
L 166.042271 -86.331231 
L 165.086355 -86.328786 
L 164.130439 -86.334582 
L 163.174523 -86.349745 
L 162.218607 -86.375297 
L 161.262691 -86.412146 
L 160.306775 -86.461071 
L 159.350859 -86.522724 
L 158.394943 -86.597618 
L 157.439027 -86.686127 
L 156.483111 -86.788488 
L 155.527195 -86.904802 
L 154.571279 -87.035035 
L 153.615364 -87.179027 
L 152.659448 -87.336489 
L 151.703532 -87.507017 
L 150.747616 -87.69009 
L 149.7917 -87.885078 
L 148.835784 -88.091248 
L 147.879868 -88.307765 
L 146.923952 -88.533698 
L 145.968036 -88.76802 
L 145.01212 -89.009616 
L 144.056204 -89.257282 
L 143.100288 -89.509728 
L 142.144372 -89.765584 
L 141.188456 -90.023404 
L 140.23254 -90.281668 
L 139.276624 -90.538794 
L 138.320708 -90.793146 
L 137.364793 -91.043042 
L 136.408877 -91.286768 
L 135.452961 -91.522594 
L 134.497045 -91.748789 
L 133.541129 -91.963644 
L 132.585213 -92.165483 
L 131.629297 -92.352695 
L 130.673381 -92.523745 
L 129.717465 -92.677206 
L 128.761549 -92.811771 
L 127.805633 -92.926278 
L 126.849717 -93.019726 
L 125.893801 -93.091293 
L 124.937885 -93.140347 
L 123.981969 -93.166453 
L 123.026053 -93.169384 
L 122.070137 -93.149122 
L 121.114221 -93.105853 
L 120.158306 -93.039964 
L 119.20239 -92.952034 
L 118.246474 -92.842821 
L 117.290558 -92.713245 
L 116.334642 -92.564375 
L 115.378726 -92.397406 
L 114.42281 -92.213637 
L 113.466894 -92.014457 
L 112.510978 -91.801316 
L 111.555062 -91.575709 
L 110.599146 -91.339157 
L 109.64323 -91.093187 
L 108.687314 -90.839321 
L 107.731398 -90.579055 
L 106.775482 -90.313853 
L 105.819566 -90.045138 
L 104.86365 -89.774281 
L 103.907734 -89.502597 
L 102.951819 -89.231345 
L 101.995903 -88.961721 
L 101.039987 -88.694861 
L 100.084071 -88.43184 
L 99.128155 -88.173672 
L 98.172239 -87.921313 
L 97.216323 -87.675664 
L 96.260407 -87.437569 
L 95.304491 -87.207821 
L 94.348575 -86.987161 
L 93.392659 -86.776281 
L 92.436743 -86.575824 
L 91.480827 -86.386391 
L 90.524911 -86.208533 
L 89.568995 -86.042762 
L 88.613079 -85.889544 
L 87.657163 -85.749307 
L 86.701248 -85.622438 
L 85.745332 -85.509286 
L 84.789416 -85.410162 
L 83.8335 -85.32534 
L 82.877584 -85.255055 
L 81.921668 -85.199507 
L 80.965752 -85.158856 
L 80.009836 -85.133221 
L 79.05392 -85.122676 
L 78.098004 -85.127247 
L 77.142088 -85.146907 
L 76.186172 -85.181567 
L 75.230256 -85.231072 
L 74.27434 -85.295187 
L 73.318424 -85.373594 
L 72.362508 -85.465877 
L 71.406592 -85.571515 
L 70.450676 -85.689871 
L 69.494761 -85.820187 
L 68.538845 -85.961571 
L 67.582929 -86.112995 
L 66.627013 -86.273291 
L 65.671097 -86.441151 
L 64.715181 -86.61513 
L 63.759265 -86.793652 
L 62.803349 -86.975018 
L 61.847433 -87.157426 
L 60.891517 -87.338981 
L 59.935601 -87.517724 
L 58.979685 -87.691652 
L 58.023769 -87.85875 
L 57.067853 -88.01702 
L 56.111937 -88.164512 
L 55.156021 -88.299362 
L 54.200105 -88.41982 
L 53.244189 -88.524286 
L 52.288274 -88.611341 
L 51.332358 -88.679775 
L 50.376442 -88.728608 
L 49.420526 -88.757117 
L 48.46461 -88.764845 
L 47.508694 -88.751613 
L 46.552778 -88.717524 
L 45.596862 -88.662961 
L 44.640946 -88.588575 
L 43.68503 -88.495277 
L 42.729114 -88.384211 
L 41.773198 -88.256735 
L 40.817282 -88.114389 
L 39.861366 -87.958865 
L 38.90545 -87.791972 
L 37.949534 -87.615597 
L 36.993618 -87.431675 
L 36.037703 -87.242147 
L 35.081787 -87.04893 
L 34.125871 -86.853884 
L 33.169955 -86.658781 
L 32.214039 -86.465282 
L 31.258123 -86.274917 
L 30.302207 -86.089063 
L 29.346291 -85.908937 
L 28.390375 -85.735583 
L 27.434459 -85.569874 
L 26.478543 -85.412507 
L 25.522627 -85.264008 
L 24.566711 -85.124744 
L 23.610795 -84.994926 
L 22.654879 -84.874626 
L 21.698963 -84.763789 
L 20.743047 -84.662248 
L 19.787131 -84.569741 
L 18.831216 -84.485925 
L 17.8753 -84.410392 
L 16.919384 -84.342686 
z
" style="stroke: #482475; stroke-width: 1.25"/>
    </defs>
    <g>
     <use xlink:href="#m371f7827c2" x="0" y="174.26" style="fill: #482475; fill-opacity: 0.7; stroke: #482475; stroke-width: 1.25"/>
    </g>
   </g>
   <g id="line2d_5">
    <path d="M 7.40802 90.36 
L 216.65802 90.36 
" style="fill: none; stroke: #482475; stroke-opacity: 0.9; stroke-linecap: round"/>
   </g>
   <g id="text_5">
    <!-- 4 -->
    <g style="fill: #482475" transform="translate(7.40802 89.442) scale(0.12 -0.12)">
     <defs>
      <path id="IBMPlexSans-Bold-34" d="M 2157 0 
L 2157 858 
L 192 858 
L 192 1677 
L 1933 4467 
L 3072 4467 
L 3072 1600 
L 3635 1600 
L 3635 858 
L 3072 858 
L 3072 0 
L 2157 0 
z
M 960 1600 
L 2157 1600 
L 2157 3475 
L 2093 3475 
L 960 1600 
z
" transform="scale(0.015625)"/>
     </defs>
     <use xlink:href="#IBMPlexSans-Bold-34"/>
    </g>
   </g>
  </g>
  <g id="axes_6">
   <g id="patch_7">
    <path d="M 7.40802 100.755 
L 216.65802 100.755 
L 216.65802 59.175 
L 7.40802 59.175 
L 7.40802 100.755 
z
" style="fill: none"/>
   </g>
   <g id="matplotlib.axis_11">
    <g id="xtick_21"/>
    <g id="xtick_22"/>
    <g id="xtick_23"/>
    <g id="xtick_24"/>
   </g>
   <g id="matplotlib.axis_12"/>
   <g id="line2d_6">
    <path d="M 7.40802 100.755 
L 216.65802 100.755 
" style="fill: none; stroke: #21918c; stroke-opacity: 0.9; stroke-linecap: round"/>
   </g>
   <g id="text_6">
    <!-- 5 -->
    <g style="fill: #21918c" transform="translate(7.40802 99.837) scale(0.12 -0.12)">
     <defs>
      <path id="IBMPlexSans-Bold-35" d="M 3341 3629 
L 1312 3629 
L 1216 2214 
L 1267 2214 
Q 1331 2374 1411 2505 
Q 1491 2637 1600 2729 
Q 1709 2822 1862 2873 
Q 2016 2925 2227 2925 
Q 2515 2925 2764 2829 
Q 3014 2733 3200 2550 
Q 3386 2368 3494 2102 
Q 3603 1837 3603 1504 
Q 3603 1165 3491 873 
Q 3379 582 3158 371 
Q 2938 160 2618 41 
Q 2298 -77 1888 -77 
Q 1562 -77 1312 -6 
Q 1062 64 870 182 
Q 678 301 537 454 
Q 397 608 294 781 
L 992 1331 
Q 1139 1069 1344 886 
Q 1549 704 1894 704 
Q 2240 704 2416 902 
Q 2592 1101 2592 1427 
L 2592 1478 
Q 2592 1786 2413 1965 
Q 2234 2144 1920 2144 
Q 1658 2144 1488 2038 
Q 1318 1933 1229 1830 
L 442 1939 
L 608 4467 
L 3341 4467 
L 3341 3629 
z
" transform="scale(0.015625)"/>
     </defs>
     <use xlink:href="#IBMPlexSans-Bold-35"/>
    </g>
   </g>
  </g>
  <g id="axes_7">
   <g id="patch_8">
    <path d="M 7.40802 111.15 
L 216.65802 111.15 
L 216.65802 69.57 
L 7.40802 69.57 
L 7.40802 111.15 
z
" style="fill: none"/>
   </g>
   <g id="matplotlib.axis_13">
    <g id="xtick_25"/>
    <g id="xtick_26"/>
    <g id="xtick_27"/>
    <g id="xtick_28"/>
   </g>
   <g id="matplotlib.axis_14"/>
   <g id="line2d_7">
    <path d="M 7.40802 111.15 
L 216.65802 111.15 
" style="fill: none; stroke: #21918c; stroke-opacity: 0.9; stroke-linecap: round"/>
   </g>
   <g id="text_7">
    <!-- 6 -->
    <g style="fill: #21918c" transform="translate(7.40802 110.232) scale(0.12 -0.12)">
     <defs>
      <path id="IBMPlexSans-Bold-36" d="M 1946 -77 
Q 1549 -77 1235 48 
Q 922 173 707 406 
Q 493 640 381 966 
Q 269 1293 269 1696 
Q 269 2163 413 2582 
Q 557 3002 784 3357 
Q 1011 3712 1296 3993 
Q 1581 4275 1869 4467 
L 3194 4467 
Q 2784 4173 2457 3907 
Q 2131 3642 1891 3373 
Q 1651 3104 1494 2825 
Q 1338 2547 1274 2227 
L 1331 2208 
Q 1389 2336 1469 2457 
Q 1549 2579 1667 2672 
Q 1786 2765 1946 2822 
Q 2106 2880 2317 2880 
Q 2592 2880 2832 2781 
Q 3072 2682 3248 2502 
Q 3424 2323 3523 2064 
Q 3622 1805 3622 1491 
Q 3622 1146 3504 858 
Q 3386 570 3165 362 
Q 2944 154 2637 38 
Q 2330 -77 1946 -77 
z
M 1946 672 
Q 2266 672 2445 848 
Q 2624 1024 2624 1350 
L 2624 1466 
Q 2624 1792 2445 1968 
Q 2266 2144 1946 2144 
Q 1626 2144 1446 1968 
Q 1267 1792 1267 1466 
L 1267 1350 
Q 1267 1024 1446 848 
Q 1626 672 1946 672 
z
" transform="scale(0.015625)"/>
     </defs>
     <use xlink:href="#IBMPlexSans-Bold-36"/>
    </g>
   </g>
  </g>
  <g id="axes_8">
   <g id="patch_9">
    <path d="M 7.40802 121.545 
L 216.65802 121.545 
L 216.65802 79.965 
L 7.40802 79.965 
L 7.40802 121.545 
z
" style="fill: none"/>
   </g>
   <g id="matplotlib.axis_15">
    <g id="xtick_29"/>
    <g id="xtick_30"/>
    <g id="xtick_31"/>
    <g id="xtick_32"/>
   </g>
   <g id="matplotlib.axis_16"/>
   <g id="line2d_8">
    <path d="M 7.40802 121.545 
L 216.65802 121.545 
" style="fill: none; stroke: #21918c; stroke-opacity: 0.9; stroke-linecap: round"/>
   </g>
   <g id="text_8">
    <!-- 7 -->
    <g style="fill: #21918c" transform="translate(7.40802 120.627) scale(0.12 -0.12)">
     <defs>
      <path id="IBMPlexSans-Bold-37" d="M 1062 0 
L 2560 3686 
L 1165 3686 
L 1165 2874 
L 352 2874 
L 352 4467 
L 3514 4467 
L 3514 3635 
L 2074 0 
L 1062 0 
z
" transform="scale(0.015625)"/>
     </defs>
     <use xlink:href="#IBMPlexSans-Bold-37"/>
    </g>
   </g>
  </g>
  <g id="axes_9">
   <g id="patch_10">
    <path d="M 7.40802 131.94 
L 216.65802 131.94 
L 216.65802 90.36 
L 7.40802 90.36 
L 7.40802 131.94 
z
" style="fill: none"/>
   </g>
   <g id="matplotlib.axis_17">
    <g id="xtick_33">
     <g id="text_9">
      <!-- 4 -->
      <g style="fill: #838383" transform="translate(7.2 149.58) scale(0.11 -0.11)">
       <defs>
        <path id="IBMPlexSans-Regular-2212" d="M 429 1734 
L 429 2170 
L 3411 2170 
L 3411 1734 
L 429 1734 
z
" transform="scale(0.015625)"/>
        <path id="IBMPlexSans-Regular-34" d="M 2400 0 
L 2400 877 
L 243 877 
L 243 1350 
L 2112 4467 
L 2912 4467 
L 2912 1325 
L 3558 1325 
L 3558 877 
L 2912 877 
L 2912 0 
L 2400 0 
z
M 749 1325 
L 2400 1325 
L 2400 4051 
L 2368 4051 
L 749 1325 
z
" transform="scale(0.015625)"/>
       </defs>
       <use xlink:href="#IBMPlexSans-Regular-2212"/>
       <use xlink:href="#IBMPlexSans-Regular-34" transform="translate(59.999985 0)"/>
      </g>
     </g>
    </g>
    <g id="xtick_34">
     <g id="text_10">
      <!-- 2 -->
      <g style="fill: #838383" transform="translate(62.085408 149.58) scale(0.11 -0.11)">
       <defs>
        <path id="IBMPlexSans-Regular-32" d="M 3411 0 
L 480 0 
L 480 550 
L 1939 1894 
Q 2253 2182 2464 2505 
Q 2675 2829 2675 3155 
L 2675 3232 
Q 2675 3603 2470 3833 
Q 2266 4064 1850 4064 
Q 1645 4064 1491 4006 
Q 1338 3949 1226 3846 
Q 1114 3744 1040 3606 
Q 966 3469 922 3309 
L 442 3494 
Q 506 3693 618 3881 
Q 730 4070 899 4217 
Q 1069 4365 1309 4454 
Q 1549 4544 1875 4544 
Q 2202 4544 2458 4448 
Q 2714 4352 2886 4179 
Q 3059 4006 3152 3769 
Q 3245 3533 3245 3245 
Q 3245 2982 3171 2758 
Q 3098 2534 2970 2332 
Q 2842 2131 2659 1939 
Q 2477 1747 2266 1555 
L 1062 474 
L 3411 474 
L 3411 0 
z
" transform="scale(0.015625)"/>
       </defs>
       <use xlink:href="#IBMPlexSans-Regular-2212"/>
       <use xlink:href="#IBMPlexSans-Regular-32" transform="translate(59.999985 0)"/>
      </g>
     </g>
    </g>
    <g id="xtick_35">
     <g id="text_11">
      <!-- 0 -->
      <g style="fill: #838383" transform="translate(120.270817 149.58) scale(0.11 -0.11)">
       <defs>
        <path id="IBMPlexSans-Regular-30" d="M 1920 -77 
Q 1120 -77 752 531 
Q 384 1139 384 2234 
Q 384 3328 752 3936 
Q 1120 4544 1920 4544 
Q 2720 4544 3088 3936 
Q 3456 3328 3456 2234 
Q 3456 1139 3088 531 
Q 2720 -77 1920 -77 
z
M 1920 390 
Q 2182 390 2368 499 
Q 2554 608 2669 806 
Q 2784 1005 2838 1273 
Q 2893 1542 2893 1869 
L 2893 2598 
Q 2893 2925 2838 3193 
Q 2784 3462 2669 3660 
Q 2554 3859 2368 3968 
Q 2182 4077 1920 4077 
Q 1658 4077 1472 3968 
Q 1286 3859 1171 3660 
Q 1056 3462 1001 3193 
Q 947 2925 947 2598 
L 947 1869 
Q 947 1542 1001 1273 
Q 1056 1005 1171 806 
Q 1286 608 1472 499 
Q 1658 390 1920 390 
z
" transform="scale(0.015625)"/>
       </defs>
       <use xlink:href="#IBMPlexSans-Regular-30"/>
      </g>
     </g>
    </g>
    <g id="xtick_36">
     <g id="text_12">
      <!-- 2 -->
      <g style="fill: #838383" transform="translate(175.156225 149.58) scale(0.11 -0.11)">
       <use xlink:href="#IBMPlexSans-Regular-32"/>
      </g>
     </g>
    </g>
    <g id="text_13">
     <!-- sldf -->
     <g style="fill: #262626" transform="translate(102.05427 164.66) scale(0.12 -0.12)">
      <defs>
       <path id="IBMPlexSans-Regular-73" d="M 1536 -77 
Q 1075 -77 764 99 
Q 454 275 230 570 
L 595 864 
Q 787 621 1024 489 
Q 1261 358 1574 358 
Q 1901 358 2083 499 
Q 2266 640 2266 896 
Q 2266 1088 2141 1225 
Q 2016 1363 1690 1414 
L 1427 1453 
Q 1197 1485 1005 1552 
Q 813 1619 669 1731 
Q 525 1843 445 2009 
Q 365 2176 365 2406 
Q 365 2650 454 2832 
Q 544 3014 701 3136 
Q 858 3258 1075 3318 
Q 1293 3379 1542 3379 
Q 1946 3379 2218 3238 
Q 2490 3098 2694 2848 
L 2355 2541 
Q 2246 2694 2035 2819 
Q 1824 2944 1504 2944 
Q 1184 2944 1021 2806 
Q 858 2669 858 2432 
Q 858 2189 1021 2080 
Q 1184 1971 1491 1920 
L 1747 1882 
Q 2298 1798 2528 1564 
Q 2758 1331 2758 954 
Q 2758 474 2432 198 
Q 2106 -77 1536 -77 
z
" transform="scale(0.015625)"/>
       <path id="IBMPlexSans-Regular-6c" d="M 1088 0 
Q 819 0 681 150 
Q 544 301 544 531 
L 544 4736 
L 1056 4736 
L 1056 448 
L 1542 448 
L 1542 0 
L 1088 0 
z
" transform="scale(0.015625)"/>
       <path id="IBMPlexSans-Regular-64" d="M 2656 538 
L 2630 538 
Q 2330 -77 1664 -77 
Q 1357 -77 1107 44 
Q 858 166 682 390 
Q 506 614 413 934 
Q 320 1254 320 1651 
Q 320 2048 413 2368 
Q 506 2688 682 2912 
Q 858 3136 1107 3257 
Q 1357 3379 1664 3379 
Q 2010 3379 2256 3228 
Q 2502 3078 2630 2765 
L 2656 2765 
L 2656 4736 
L 3168 4736 
L 3168 0 
L 2656 0 
L 2656 538 
z
M 1805 384 
Q 1978 384 2134 429 
Q 2291 474 2406 560 
Q 2522 646 2589 771 
Q 2656 896 2656 1056 
L 2656 2285 
Q 2656 2419 2589 2537 
Q 2522 2656 2406 2739 
Q 2291 2822 2134 2870 
Q 1978 2918 1805 2918 
Q 1370 2918 1120 2646 
Q 870 2374 870 1933 
L 870 1370 
Q 870 928 1120 656 
Q 1370 384 1805 384 
z
" transform="scale(0.015625)"/>
       <path id="IBMPlexSans-Regular-66" d="M 723 2854 
L 186 2854 
L 186 3302 
L 723 3302 
L 723 3968 
Q 723 4314 902 4525 
Q 1082 4736 1446 4736 
L 1946 4736 
L 1946 4288 
L 1235 4288 
L 1235 3302 
L 1946 3302 
L 1946 2854 
L 1235 2854 
L 1235 0 
L 723 0 
L 723 2854 
z
" transform="scale(0.015625)"/>
      </defs>
      <use xlink:href="#IBMPlexSans-Regular-73"/>
      <use xlink:href="#IBMPlexSans-Regular-6c" transform="translate(48.699997 0)"/>
      <use xlink:href="#IBMPlexSans-Regular-64" transform="translate(75.899994 0)"/>
      <use xlink:href="#IBMPlexSans-Regular-66" transform="translate(133.899979 0)"/>
     </g>
    </g>
   </g>
   <g id="matplotlib.axis_18"/>
   <g id="line2d_9">
    <path d="M 7.40802 131.94 
L 216.65802 131.94 
" style="fill: none; stroke: #21918c; stroke-opacity: 0.9; stroke-linecap: round"/>
   </g>
   <g id="text_14">
    <!-- 8 -->
    <g style="fill: #21918c" transform="translate(7.40802 131.022) scale(0.12 -0.12)">
     <defs>
      <path id="IBMPlexSans-Bold-38" d="M 1920 -77 
Q 1523 -77 1212 22 
Q 902 122 691 294 
Q 480 467 368 704 
Q 256 941 256 1222 
Q 256 1651 493 1923 
Q 730 2195 1133 2304 
L 1133 2355 
Q 806 2477 598 2726 
Q 390 2976 390 3366 
Q 390 3622 489 3840 
Q 589 4058 784 4214 
Q 979 4371 1264 4457 
Q 1549 4544 1920 4544 
Q 2291 4544 2576 4457 
Q 2861 4371 3056 4214 
Q 3251 4058 3350 3840 
Q 3450 3622 3450 3366 
Q 3450 2976 3242 2726 
Q 3034 2477 2707 2355 
L 2707 2304 
Q 3110 2195 3347 1923 
Q 3584 1651 3584 1222 
Q 3584 941 3472 704 
Q 3360 467 3149 294 
Q 2938 122 2627 22 
Q 2317 -77 1920 -77 
z
M 1920 659 
Q 2240 659 2409 809 
Q 2579 960 2579 1229 
L 2579 1357 
Q 2579 1626 2409 1776 
Q 2240 1926 1920 1926 
Q 1600 1926 1430 1776 
Q 1261 1626 1261 1357 
L 1261 1229 
Q 1261 960 1430 809 
Q 1600 659 1920 659 
z
M 1920 2630 
Q 2227 2630 2387 2774 
Q 2547 2918 2547 3168 
L 2547 3270 
Q 2547 3520 2387 3664 
Q 2227 3808 1920 3808 
Q 1613 3808 1453 3664 
Q 1293 3520 1293 3270 
L 1293 3168 
Q 1293 2918 1453 2774 
Q 1613 2630 1920 2630 
z
" transform="scale(0.015625)"/>
     </defs>
     <use xlink:href="#IBMPlexSans-Bold-38"/>
    </g>
   </g>
  </g>
 </g>
</svg>
