<?xml version="1.0" encoding="utf-8" standalone="no"?>
<!DOCTYPE svg PUBLIC "-//W3C//DTD SVG 1.1//EN"
  "http://www.w3.org/Graphics/SVG/1.1/DTD/svg11.dtd">
<svg xmlns:xlink="http://www.w3.org/1999/xlink" width="229.735445pt" height="174.26pt" viewBox="0 0 229.735445 174.26" xmlns="http://www.w3.org/2000/svg" version="1.1">
 <metadata>
  <rdf:RDF xmlns:dc="http://purl.org/dc/elements/1.1/" xmlns:cc="http://creativecommons.org/ns#" xmlns:rdf="http://www.w3.org/1999/02/22-rdf-syntax-ns#">
   <cc:Work>
    <dc:type rdf:resource="http://purl.org/dc/dcmitype/StillImage"/>
    <dc:date>2025-12-31T11:31:01.182421</dc:date>
    <dc:format>image/svg+xml</dc:format>
    <dc:creator>
     <cc:Agent>
      <dc:title>Matplotlib v3.10.5, https://matplotlib.org/</dc:title>
     </cc:Agent>
    </dc:creator>
   </cc:Work>
  </rdf:RDF>
 </metadata>
 <defs>
  <style type="text/css">*{stroke-linejoin: round; stroke-linecap: butt}</style>
 </defs>
 <g id="figure_1">
  <g id="patch_1">
   <path d="M 0 174.26 
L 229.735445 174.26 
L 229.735445 0 
L 0 0 
L 0 174.26 
z
" style="fill: none"/>
  </g>
  <g id="axes_1">
   <g id="patch_2">
    <path d="M 13.285445 48.78 
L 222.535445 48.78 
L 222.535445 7.2 
L 13.285445 7.2 
L 13.285445 48.78 
z
" style="fill: none"/>
   </g>
   <g id="matplotlib.axis_1">
    <g id="xtick_1"/>
    <g id="xtick_2"/>
    <g id="xtick_3"/>
    <g id="xtick_4"/>
    <g id="xtick_5"/>
   </g>
   <g id="matplotlib.axis_2"/>
   <g id="line2d_1">
    <path d="M 13.285445 48.78 
L 222.535445 48.78 
" style="fill: none; stroke: #21918c; stroke-opacity: 0.9; stroke-linecap: round"/>
   </g>
   <g id="text_1">
    <!-- 0 -->
    <g style="fill: #21918c" transform="translate(13.285445 47.862) scale(0.12 -0.12)">
     <defs>
      <path id="IBMPlexSans-Bold-30" d="M 1920 -77 
Q 1043 -77 620 531 
Q 198 1139 198 2234 
Q 198 3328 620 3936 
Q 1043 4544 1920 4544 
Q 2797 4544 3219 3936 
Q 3642 3328 3642 2234 
Q 3642 1139 3219 531 
Q 2797 -77 1920 -77 
z
M 1920 736 
Q 2304 736 2451 1017 
Q 2598 1299 2598 1811 
L 2598 2656 
Q 2598 3168 2451 3449 
Q 2304 3731 1920 3731 
Q 1536 3731 1389 3449 
Q 1242 3168 1242 2656 
L 1242 1811 
Q 1242 1299 1389 1017 
Q 1536 736 1920 736 
z
" transform="scale(0.015625)"/>
     </defs>
     <use xlink:href="#IBMPlexSans-Bold-30"/>
    </g>
   </g>
  </g>
  <g id="axes_2">
   <g id="patch_3">
    <path d="M 13.285445 59.175 
L 222.535445 59.175 
L 222.535445 17.595 
L 13.285445 17.595 
L 13.285445 59.175 
z
" style="fill: none"/>
   </g>
   <g id="matplotlib.axis_3">
    <g id="xtick_6"/>
    <g id="xtick_7"/>
    <g id="xtick_8"/>
    <g id="xtick_9"/>
    <g id="xtick_10"/>
   </g>
   <g id="matplotlib.axis_4"/>
   <g id="line2d_2">
    <path d="M 13.285445 59.175 
L 222.535445 59.175 
" style="fill: none; stroke: #21918c; stroke-opacity: 0.9; stroke-linecap: round"/>
   </g>
   <g id="text_2">
    <!-- 1 -->
    <g style="fill: #21918c" transform="translate(13.285445 58.257) scale(0.12 -0.12)">
     <defs>
      <path id="IBMPlexSans-Bold-31" d="M 602 0 
L 602 774 
L 1805 774 
L 1805 3770 
L 1747 3770 
L 838 2579 
L 224 3059 
L 1293 4467 
L 2765 4467 
L 2765 774 
L 3712 774 
L 3712 0 
L 602 0 
z
" transform="scale(0.015625)"/>
     </defs>
     <use xlink:href="#IBMPlexSans-Bold-31"/>
    </g>
   </g>
  </g>
  <g id="axes_3">
   <g id="patch_4">
    <path d="M 13.285445 69.57 
L 222.535445 69.57 
L 222.535445 27.99 
L 13.285445 27.99 
L 13.285445 69.57 
z
" style="fill: none"/>
   </g>
   <g id="matplotlib.axis_5">
    <g id="xtick_11"/>
    <g id="xtick_12"/>
    <g id="xtick_13"/>
    <g id="xtick_14"/>
    <g id="xtick_15"/>
   </g>
   <g id="matplotlib.axis_6"/>
   <g id="line2d_3">
    <path d="M 13.285445 69.57 
L 222.535445 69.57 
" style="fill: none; stroke: #21918c; stroke-opacity: 0.9; stroke-linecap: round"/>
   </g>
   <g id="text_3">
    <!-- 2 -->
    <g style="fill: #21918c" transform="translate(13.285445 68.652) scale(0.12 -0.12)">
     <defs>
      <path id="IBMPlexSans-Bold-32" d="M 3526 0 
L 365 0 
L 365 877 
L 1741 2054 
Q 1926 2214 2054 2345 
Q 2182 2477 2262 2601 
Q 2342 2726 2377 2848 
Q 2413 2970 2413 3110 
L 2413 3200 
Q 2413 3328 2361 3424 
Q 2310 3520 2227 3584 
Q 2144 3648 2038 3680 
Q 1933 3712 1824 3712 
Q 1664 3712 1545 3661 
Q 1427 3610 1340 3523 
Q 1254 3437 1196 3325 
Q 1139 3213 1107 3085 
L 269 3405 
Q 346 3635 480 3843 
Q 614 4051 816 4208 
Q 1018 4365 1293 4454 
Q 1568 4544 1914 4544 
Q 2278 4544 2560 4441 
Q 2842 4339 3037 4160 
Q 3232 3981 3334 3734 
Q 3437 3488 3437 3200 
Q 3437 2912 3341 2675 
Q 3245 2438 3081 2230 
Q 2918 2022 2700 1836 
Q 2483 1651 2246 1459 
L 1414 806 
L 3526 806 
L 3526 0 
z
" transform="scale(0.015625)"/>
     </defs>
     <use xlink:href="#IBMPlexSans-Bold-32"/>
    </g>
   </g>
  </g>
  <g id="axes_4">
   <g id="patch_5">
    <path d="M 13.285445 79.965 
L 222.535445 79.965 
L 222.535445 38.385 
L 13.285445 38.385 
L 13.285445 79.965 
z
" style="fill: none"/>
   </g>
   <g id="matplotlib.axis_7">
    <g id="xtick_16"/>
    <g id="xtick_17"/>
    <g id="xtick_18"/>
    <g id="xtick_19"/>
    <g id="xtick_20"/>
   </g>
   <g id="matplotlib.axis_8"/>
   <g id="line2d_4">
    <path d="M 13.285445 79.965 
L 222.535445 79.965 
" style="fill: none; stroke: #21918c; stroke-opacity: 0.9; stroke-linecap: round"/>
   </g>
   <g id="text_4">
    <!-- 3 -->
    <g style="fill: #21918c" transform="translate(13.285445 79.047) scale(0.12 -0.12)">
     <defs>
      <path id="IBMPlexSans-Bold-33" d="M 1677 2701 
Q 2035 2701 2198 2838 
Q 2362 2976 2362 3181 
L 2362 3226 
Q 2362 3469 2205 3616 
Q 2048 3763 1760 3763 
Q 1491 3763 1254 3625 
Q 1018 3488 851 3232 
L 250 3795 
Q 378 3962 525 4099 
Q 672 4237 857 4336 
Q 1043 4435 1273 4489 
Q 1504 4544 1792 4544 
Q 2150 4544 2441 4461 
Q 2733 4378 2941 4221 
Q 3149 4064 3261 3846 
Q 3373 3629 3373 3360 
Q 3373 3149 3305 2976 
Q 3238 2803 3120 2675 
Q 3002 2547 2848 2467 
Q 2694 2387 2522 2355 
L 2522 2317 
Q 2720 2278 2889 2192 
Q 3059 2106 3184 1971 
Q 3309 1837 3379 1654 
Q 3450 1472 3450 1242 
Q 3450 941 3328 697 
Q 3206 454 2982 281 
Q 2758 109 2444 16 
Q 2131 -77 1754 -77 
Q 1414 -77 1152 -6 
Q 890 64 694 182 
Q 499 301 355 454 
Q 211 608 102 781 
L 813 1331 
Q 960 1056 1174 880 
Q 1389 704 1754 704 
Q 2080 704 2262 867 
Q 2445 1030 2445 1312 
L 2445 1350 
Q 2445 1626 2237 1763 
Q 2029 1901 1664 1901 
L 1261 1901 
L 1261 2701 
L 1677 2701 
z
" transform="scale(0.015625)"/>
     </defs>
     <use xlink:href="#IBMPlexSans-Bold-33"/>
    </g>
   </g>
  </g>
  <g id="axes_5">
   <g id="patch_6">
    <path d="M 13.285445 90.36 
L 222.535445 90.36 
L 222.535445 48.78 
L 13.285445 48.78 
L 13.285445 90.36 
z
" style="fill: none"/>
   </g>
   <g id="matplotlib.axis_9">
    <g id="xtick_21"/>
    <g id="xtick_22"/>
    <g id="xtick_23"/>
    <g id="xtick_24"/>
    <g id="xtick_25"/>
   </g>
   <g id="matplotlib.axis_10"/>
   <g id="line2d_5">
    <path d="M 13.285445 90.36 
L 222.535445 90.36 
" style="fill: none; stroke: #21918c; stroke-opacity: 0.9; stroke-linecap: round"/>
   </g>
   <g id="text_5">
    <!-- 4 -->
    <g style="fill: #21918c" transform="translate(13.285445 89.442) scale(0.12 -0.12)">
     <defs>
      <path id="IBMPlexSans-Bold-34" d="M 2157 0 
L 2157 858 
L 192 858 
L 192 1677 
L 1933 4467 
L 3072 4467 
L 3072 1600 
L 3635 1600 
L 3635 858 
L 3072 858 
L 3072 0 
L 2157 0 
z
M 960 1600 
L 2157 1600 
L 2157 3475 
L 2093 3475 
L 960 1600 
z
" transform="scale(0.015625)"/>
     </defs>
     <use xlink:href="#IBMPlexSans-Bold-34"/>
    </g>
   </g>
  </g>
  <g id="axes_6">
   <g id="patch_7">
    <path d="M 13.285445 100.755 
L 222.535445 100.755 
L 222.535445 59.175 
L 13.285445 59.175 
L 13.285445 100.755 
z
" style="fill: none"/>
   </g>
   <g id="matplotlib.axis_11">
    <g id="xtick_26"/>
    <g id="xtick_27"/>
    <g id="xtick_28"/>
    <g id="xtick_29"/>
    <g id="xtick_30"/>
   </g>
   <g id="matplotlib.axis_12"/>
   <g id="FillBetweenPolyCollection_1">
    <defs>
     <path id="mf30ce552ce" d="M 114.140593 -74.51646 
L 114.140593 -73.505 
L 114.379888 -73.505 
L 114.619183 -73.505 
L 114.858477 -73.505 
L 115.097772 -73.505 
L 115.337067 -73.505 
L 115.576361 -73.505 
L 115.815656 -73.505 
L 116.054951 -73.505 
L 116.294245 -73.505 
L 116.53354 -73.505 
L 116.772835 -73.505 
L 117.012129 -73.505 
L 117.251424 -73.505 
L 117.490719 -73.505 
L 117.730013 -73.505 
L 117.969308 -73.505 
L 118.208603 -73.505 
L 118.447897 -73.505 
L 118.687192 -73.505 
L 118.926487 -73.505 
L 119.165781 -73.505 
L 119.405076 -73.505 
L 119.644371 -73.505 
L 119.883665 -73.505 
L 120.12296 -73.505 
L 120.362255 -73.505 
L 120.601549 -73.505 
L 120.840844 -73.505 
L 121.080139 -73.505 
L 121.319433 -73.505 
L 121.558728 -73.505 
L 121.798023 -73.505 
L 122.037317 -73.505 
L 122.276612 -73.505 
L 122.515907 -73.505 
L 122.755201 -73.505 
L 122.994496 -73.505 
L 123.233791 -73.505 
L 123.473085 -73.505 
L 123.71238 -73.505 
L 123.951675 -73.505 
L 124.190969 -73.505 
L 124.430264 -73.505 
L 124.669559 -73.505 
L 124.908853 -73.505 
L 125.148148 -73.505 
L 125.387443 -73.505 
L 125.626737 -73.505 
L 125.866032 -73.505 
L 126.105327 -73.505 
L 126.344621 -73.505 
L 126.583916 -73.505 
L 126.823211 -73.505 
L 127.062505 -73.505 
L 127.3018 -73.505 
L 127.541095 -73.505 
L 127.780389 -73.505 
L 128.019684 -73.505 
L 128.258979 -73.505 
L 128.498273 -73.505 
L 128.737568 -73.505 
L 128.976863 -73.505 
L 129.216157 -73.505 
L 129.455452 -73.505 
L 129.694747 -73.505 
L 129.934041 -73.505 
L 130.173336 -73.505 
L 130.412631 -73.505 
L 130.651925 -73.505 
L 130.89122 -73.505 
L 131.130515 -73.505 
L 131.369809 -73.505 
L 131.609104 -73.505 
L 131.848399 -73.505 
L 132.087693 -73.505 
L 132.326988 -73.505 
L 132.566283 -73.505 
L 132.805577 -73.505 
L 133.044872 -73.505 
L 133.284167 -73.505 
L 133.523461 -73.505 
L 133.762756 -73.505 
L 134.002051 -73.505 
L 134.241345 -73.505 
L 134.48064 -73.505 
L 134.719935 -73.505 
L 134.959229 -73.505 
L 135.198524 -73.505 
L 135.437819 -73.505 
L 135.677113 -73.505 
L 135.916408 -73.505 
L 136.155703 -73.505 
L 136.394997 -73.505 
L 136.634292 -73.505 
L 136.873587 -73.505 
L 137.112881 -73.505 
L 137.352176 -73.505 
L 137.591471 -73.505 
L 137.830765 -73.505 
L 138.07006 -73.505 
L 138.309355 -73.505 
L 138.548649 -73.505 
L 138.787944 -73.505 
L 139.027239 -73.505 
L 139.266533 -73.505 
L 139.505828 -73.505 
L 139.745123 -73.505 
L 139.984417 -73.505 
L 140.223712 -73.505 
L 140.463007 -73.505 
L 140.702301 -73.505 
L 140.941596 -73.505 
L 141.180891 -73.505 
L 141.420185 -73.505 
L 141.65948 -73.505 
L 141.898775 -73.505 
L 142.138069 -73.505 
L 142.377364 -73.505 
L 142.616659 -73.505 
L 142.855953 -73.505 
L 143.095248 -73.505 
L 143.334543 -73.505 
L 143.573837 -73.505 
L 143.813132 -73.505 
L 144.052427 -73.505 
L 144.291721 -73.505 
L 144.531016 -73.505 
L 144.770311 -73.505 
L 145.009605 -73.505 
L 145.2489 -73.505 
L 145.488195 -73.505 
L 145.727489 -73.505 
L 145.966784 -73.505 
L 146.206079 -73.505 
L 146.445373 -73.505 
L 146.684668 -73.505 
L 146.923963 -73.505 
L 147.163257 -73.505 
L 147.402552 -73.505 
L 147.641847 -73.505 
L 147.881141 -73.505 
L 148.120436 -73.505 
L 148.359731 -73.505 
L 148.599025 -73.505 
L 148.83832 -73.505 
L 149.077615 -73.505 
L 149.316909 -73.505 
L 149.556204 -73.505 
L 149.795499 -73.505 
L 150.034793 -73.505 
L 150.274088 -73.505 
L 150.513383 -73.505 
L 150.752677 -73.505 
L 150.991972 -73.505 
L 151.231267 -73.505 
L 151.470561 -73.505 
L 151.709856 -73.505 
L 151.949151 -73.505 
L 152.188445 -73.505 
L 152.42774 -73.505 
L 152.667035 -73.505 
L 152.906329 -73.505 
L 153.145624 -73.505 
L 153.384919 -73.505 
L 153.624213 -73.505 
L 153.863508 -73.505 
L 154.102803 -73.505 
L 154.342097 -73.505 
L 154.581392 -73.505 
L 154.820687 -73.505 
L 155.059981 -73.505 
L 155.299276 -73.505 
L 155.538571 -73.505 
L 155.777865 -73.505 
L 156.01716 -73.505 
L 156.256455 -73.505 
L 156.495749 -73.505 
L 156.735044 -73.505 
L 156.974339 -73.505 
L 157.213633 -73.505 
L 157.452928 -73.505 
L 157.692223 -73.505 
L 157.931517 -73.505 
L 158.170812 -73.505 
L 158.410107 -73.505 
L 158.649401 -73.505 
L 158.888696 -73.505 
L 159.127991 -73.505 
L 159.367285 -73.505 
L 159.60658 -73.505 
L 159.845875 -73.505 
L 160.085169 -73.505 
L 160.324464 -73.505 
L 160.563759 -73.505 
L 160.803053 -73.505 
L 161.042348 -73.505 
L 161.281643 -73.505 
L 161.520937 -73.505 
L 161.760232 -73.505 
L 161.760232 -76.412208 
L 161.760232 -76.412208 
L 161.520937 -76.794064 
L 161.281643 -77.209749 
L 161.042348 -77.659923 
L 160.803053 -78.144939 
L 160.563759 -78.664816 
L 160.324464 -79.219211 
L 160.085169 -79.807398 
L 159.845875 -80.428251 
L 159.60658 -81.080231 
L 159.367285 -81.761383 
L 159.127991 -82.469336 
L 158.888696 -83.201315 
L 158.649401 -83.954152 
L 158.410107 -84.724313 
L 158.170812 -85.507928 
L 157.931517 -86.300829 
L 157.692223 -87.0986 
L 157.452928 -87.896629 
L 157.213633 -88.690169 
L 156.974339 -89.474409 
L 156.735044 -90.244551 
L 156.495749 -90.995885 
L 156.256455 -91.723879 
L 156.01716 -92.424268 
L 155.777865 -93.093139 
L 155.538571 -93.727026 
L 155.299276 -94.322994 
L 155.059981 -94.878717 
L 154.820687 -95.392559 
L 154.581392 -95.863633 
L 154.342097 -96.291852 
L 154.102803 -96.677963 
L 153.863508 -97.023567 
L 153.624213 -97.331116 
L 153.384919 -97.603884 
L 153.145624 -97.845928 
L 152.906329 -98.062019 
L 152.667035 -98.25755 
L 152.42774 -98.438428 
L 152.188445 -98.610948 
L 151.949151 -98.781652 
L 151.709856 -98.957175 
L 151.470561 -99.144082 
L 151.231267 -99.348709 
L 150.991972 -99.577 
L 150.752677 -99.834352 
L 150.513383 -100.125473 
L 150.274088 -100.454249 
L 150.034793 -100.82364 
L 149.795499 -101.235587 
L 149.556204 -101.69095 
L 149.316909 -102.189468 
L 149.077615 -102.729745 
L 148.83832 -103.309261 
L 148.599025 -103.924413 
L 148.359731 -104.570565 
L 148.120436 -105.242138 
L 147.881141 -105.932699 
L 147.641847 -106.635079 
L 147.402552 -107.341495 
L 147.163257 -108.04369 
L 146.923963 -108.733066 
L 146.684668 -109.400836 
L 146.445373 -110.038168 
L 146.206079 -110.636331 
L 145.966784 -111.186839 
L 145.727489 -111.681588 
L 145.488195 -112.112989 
L 145.2489 -112.474091 
L 145.009605 -112.7587 
L 144.770311 -112.961477 
L 144.531016 -113.078032 
L 144.291721 -113.105 
L 144.052427 -113.040103 
L 143.813132 -112.882192 
L 143.573837 -112.631276 
L 143.334543 -112.288525 
L 143.095248 -111.85626 
L 142.855953 -111.337914 
L 142.616659 -110.737982 
L 142.377364 -110.061945 
L 142.138069 -109.316177 
L 141.898775 -108.507836 
L 141.65948 -107.64474 
L 141.420185 -106.73523 
L 141.180891 -105.788026 
L 140.941596 -104.812072 
L 140.702301 -103.816388 
L 140.463007 -102.809912 
L 140.223712 -101.801353 
L 139.984417 -100.79905 
L 139.745123 -99.810841 
L 139.505828 -98.843945 
L 139.266533 -97.904856 
L 139.027239 -96.999262 
L 138.787944 -96.131967 
L 138.548649 -95.306853 
L 138.309355 -94.526836 
L 138.07006 -93.793864 
L 137.830765 -93.10892 
L 137.591471 -92.472047 
L 137.352176 -91.882395 
L 137.112881 -91.338275 
L 136.873587 -90.837239 
L 136.634292 -90.376165 
L 136.394997 -89.951359 
L 136.155703 -89.558664 
L 135.916408 -89.19358 
L 135.677113 -88.85138 
L 135.437819 -88.527246 
L 135.198524 -88.216382 
L 134.959229 -87.914146 
L 134.719935 -87.616161 
L 134.48064 -87.318422 
L 134.241345 -87.017396 
L 134.002051 -86.710102 
L 133.762756 -86.394176 
L 133.523461 -86.067927 
L 133.284167 -85.73036 
L 133.044872 -85.381195 
L 132.805577 -85.020855 
L 132.566283 -84.650442 
L 132.326988 -84.271697 
L 132.087693 -83.886939 
L 131.848399 -83.498991 
L 131.609104 -83.111102 
L 131.369809 -82.726854 
L 131.130515 -82.350064 
L 130.89122 -81.984685 
L 130.651925 -81.63471 
L 130.412631 -81.304072 
L 130.173336 -80.996555 
L 129.934041 -80.715711 
L 129.694747 -80.464779 
L 129.455452 -80.246626 
L 129.216157 -80.063685 
L 128.976863 -79.917912 
L 128.737568 -79.810749 
L 128.498273 -79.743106 
L 128.258979 -79.715337 
L 128.019684 -79.72724 
L 127.780389 -79.77806 
L 127.541095 -79.866497 
L 127.3018 -79.990726 
L 127.062505 -80.148419 
L 126.823211 -80.336778 
L 126.583916 -80.552571 
L 126.344621 -80.792168 
L 126.105327 -81.051594 
L 125.866032 -81.326577 
L 125.626737 -81.612601 
L 125.387443 -81.90497 
L 125.148148 -82.198871 
L 124.908853 -82.489438 
L 124.669559 -82.771823 
L 124.430264 -83.041269 
L 124.190969 -83.293181 
L 123.951675 -83.523197 
L 123.71238 -83.727256 
L 123.473085 -83.901668 
L 123.233791 -84.043171 
L 122.994496 -84.148986 
L 122.755201 -84.216865 
L 122.515907 -84.245123 
L 122.276612 -84.232666 
L 122.037317 -84.179006 
L 121.798023 -84.084256 
L 121.558728 -83.949126 
L 121.319433 -83.774893 
L 121.080139 -83.563369 
L 120.840844 -83.316851 
L 120.601549 -83.03807 
L 120.362255 -82.730122 
L 120.12296 -82.3964 
L 119.883665 -82.04052 
L 119.644371 -81.666248 
L 119.405076 -81.277421 
L 119.165781 -80.877875 
L 118.926487 -80.471381 
L 118.687192 -80.061575 
L 118.447897 -79.65191 
L 118.208603 -79.245603 
L 117.969308 -78.845603 
L 117.730013 -78.454556 
L 117.490719 -78.074789 
L 117.251424 -77.708301 
L 117.012129 -77.356755 
L 116.772835 -77.021487 
L 116.53354 -76.703517 
L 116.294245 -76.403567 
L 116.054951 -76.122077 
L 115.815656 -75.859236 
L 115.576361 -75.615004 
L 115.337067 -75.389141 
L 115.097772 -75.181237 
L 114.858477 -74.990736 
L 114.619183 -74.816963 
L 114.379888 -74.65915 
L 114.140593 -74.51646 
z
" style="stroke: #2a788e; stroke-width: 1.25"/>
    </defs>
    <g>
     <use xlink:href="#mf30ce552ce" x="0" y="174.26" style="fill: #2a788e; fill-opacity: 0.7; stroke: #2a788e; stroke-width: 1.25"/>
    </g>
   </g>
   <g id="line2d_6">
    <path d="M 13.285445 100.755 
L 222.535445 100.755 
" style="fill: none; stroke: #2a788e; stroke-opacity: 0.9; stroke-linecap: round"/>
   </g>
   <g id="text_6">
    <!-- 5 -->
    <g style="fill: #2a788e" transform="translate(13.285445 99.837) scale(0.12 -0.12)">
     <defs>
      <path id="IBMPlexSans-Bold-35" d="M 3341 3629 
L 1312 3629 
L 1216 2214 
L 1267 2214 
Q 1331 2374 1411 2505 
Q 1491 2637 1600 2729 
Q 1709 2822 1862 2873 
Q 2016 2925 2227 2925 
Q 2515 2925 2764 2829 
Q 3014 2733 3200 2550 
Q 3386 2368 3494 2102 
Q 3603 1837 3603 1504 
Q 3603 1165 3491 873 
Q 3379 582 3158 371 
Q 2938 160 2618 41 
Q 2298 -77 1888 -77 
Q 1562 -77 1312 -6 
Q 1062 64 870 182 
Q 678 301 537 454 
Q 397 608 294 781 
L 992 1331 
Q 1139 1069 1344 886 
Q 1549 704 1894 704 
Q 2240 704 2416 902 
Q 2592 1101 2592 1427 
L 2592 1478 
Q 2592 1786 2413 1965 
Q 2234 2144 1920 2144 
Q 1658 2144 1488 2038 
Q 1318 1933 1229 1830 
L 442 1939 
L 608 4467 
L 3341 4467 
L 3341 3629 
z
" transform="scale(0.015625)"/>
     </defs>
     <use xlink:href="#IBMPlexSans-Bold-35"/>
    </g>
   </g>
  </g>
  <g id="axes_7">
   <g id="patch_8">
    <path d="M 13.285445 111.15 
L 222.535445 111.15 
L 222.535445 69.57 
L 13.285445 69.57 
L 13.285445 111.15 
z
" style="fill: none"/>
   </g>
   <g id="matplotlib.axis_13">
    <g id="xtick_31"/>
    <g id="xtick_32"/>
    <g id="xtick_33"/>
    <g id="xtick_34"/>
    <g id="xtick_35"/>
   </g>
   <g id="matplotlib.axis_14"/>
   <g id="FillBetweenPolyCollection_2">
    <defs>
     <path id="m4a57fe4999" d="M 82.374873 -63.494914 
L 82.374873 -63.11 
L 82.860579 -63.11 
L 83.346285 -63.11 
L 83.831991 -63.11 
L 84.317696 -63.11 
L 84.803402 -63.11 
L 85.289108 -63.11 
L 85.774814 -63.11 
L 86.260519 -63.11 
L 86.746225 -63.11 
L 87.231931 -63.11 
L 87.717637 -63.11 
L 88.203342 -63.11 
L 88.689048 -63.11 
L 89.174754 -63.11 
L 89.66046 -63.11 
L 90.146165 -63.11 
L 90.631871 -63.11 
L 91.117577 -63.11 
L 91.603283 -63.11 
L 92.088988 -63.11 
L 92.574694 -63.11 
L 93.0604 -63.11 
L 93.546106 -63.11 
L 94.031811 -63.11 
L 94.517517 -63.11 
L 95.003223 -63.11 
L 95.488929 -63.11 
L 95.974635 -63.11 
L 96.46034 -63.11 
L 96.946046 -63.11 
L 97.431752 -63.11 
L 97.917458 -63.11 
L 98.403163 -63.11 
L 98.888869 -63.11 
L 99.374575 -63.11 
L 99.860281 -63.11 
L 100.345986 -63.11 
L 100.831692 -63.11 
L 101.317398 -63.11 
L 101.803104 -63.11 
L 102.288809 -63.11 
L 102.774515 -63.11 
L 103.260221 -63.11 
L 103.745927 -63.11 
L 104.231632 -63.11 
L 104.717338 -63.11 
L 105.203044 -63.11 
L 105.68875 -63.11 
L 106.174455 -63.11 
L 106.660161 -63.11 
L 107.145867 -63.11 
L 107.631573 -63.11 
L 108.117278 -63.11 
L 108.602984 -63.11 
L 109.08869 -63.11 
L 109.574396 -63.11 
L 110.060101 -63.11 
L 110.545807 -63.11 
L 111.031513 -63.11 
L 111.517219 -63.11 
L 112.002924 -63.11 
L 112.48863 -63.11 
L 112.974336 -63.11 
L 113.460042 -63.11 
L 113.945747 -63.11 
L 114.431453 -63.11 
L 114.917159 -63.11 
L 115.402865 -63.11 
L 115.888571 -63.11 
L 116.374276 -63.11 
L 116.859982 -63.11 
L 117.345688 -63.11 
L 117.831394 -63.11 
L 118.317099 -63.11 
L 118.802805 -63.11 
L 119.288511 -63.11 
L 119.774217 -63.11 
L 120.259922 -63.11 
L 120.745628 -63.11 
L 121.231334 -63.11 
L 121.71704 -63.11 
L 122.202745 -63.11 
L 122.688451 -63.11 
L 123.174157 -63.11 
L 123.659863 -63.11 
L 124.145568 -63.11 
L 124.631274 -63.11 
L 125.11698 -63.11 
L 125.602686 -63.11 
L 126.088391 -63.11 
L 126.574097 -63.11 
L 127.059803 -63.11 
L 127.545509 -63.11 
L 128.031214 -63.11 
L 128.51692 -63.11 
L 129.002626 -63.11 
L 129.488332 -63.11 
L 129.974037 -63.11 
L 130.459743 -63.11 
L 130.945449 -63.11 
L 131.431155 -63.11 
L 131.91686 -63.11 
L 132.402566 -63.11 
L 132.888272 -63.11 
L 133.373978 -63.11 
L 133.859684 -63.11 
L 134.345389 -63.11 
L 134.831095 -63.11 
L 135.316801 -63.11 
L 135.802507 -63.11 
L 136.288212 -63.11 
L 136.773918 -63.11 
L 137.259624 -63.11 
L 137.74533 -63.11 
L 138.231035 -63.11 
L 138.716741 -63.11 
L 139.202447 -63.11 
L 139.688153 -63.11 
L 140.173858 -63.11 
L 140.659564 -63.11 
L 141.14527 -63.11 
L 141.630976 -63.11 
L 142.116681 -63.11 
L 142.602387 -63.11 
L 143.088093 -63.11 
L 143.573799 -63.11 
L 144.059504 -63.11 
L 144.54521 -63.11 
L 145.030916 -63.11 
L 145.516622 -63.11 
L 146.002327 -63.11 
L 146.488033 -63.11 
L 146.973739 -63.11 
L 147.459445 -63.11 
L 147.94515 -63.11 
L 148.430856 -63.11 
L 148.916562 -63.11 
L 149.402268 -63.11 
L 149.887973 -63.11 
L 150.373679 -63.11 
L 150.859385 -63.11 
L 151.345091 -63.11 
L 151.830797 -63.11 
L 152.316502 -63.11 
L 152.802208 -63.11 
L 153.287914 -63.11 
L 153.77362 -63.11 
L 154.259325 -63.11 
L 154.745031 -63.11 
L 155.230737 -63.11 
L 155.716443 -63.11 
L 156.202148 -63.11 
L 156.687854 -63.11 
L 157.17356 -63.11 
L 157.659266 -63.11 
L 158.144971 -63.11 
L 158.630677 -63.11 
L 159.116383 -63.11 
L 159.602089 -63.11 
L 160.087794 -63.11 
L 160.5735 -63.11 
L 161.059206 -63.11 
L 161.544912 -63.11 
L 162.030617 -63.11 
L 162.516323 -63.11 
L 163.002029 -63.11 
L 163.487735 -63.11 
L 163.97344 -63.11 
L 164.459146 -63.11 
L 164.944852 -63.11 
L 165.430558 -63.11 
L 165.916263 -63.11 
L 166.401969 -63.11 
L 166.887675 -63.11 
L 167.373381 -63.11 
L 167.859086 -63.11 
L 168.344792 -63.11 
L 168.830498 -63.11 
L 169.316204 -63.11 
L 169.80191 -63.11 
L 170.287615 -63.11 
L 170.773321 -63.11 
L 171.259027 -63.11 
L 171.744733 -63.11 
L 172.230438 -63.11 
L 172.716144 -63.11 
L 173.20185 -63.11 
L 173.687556 -63.11 
L 174.173261 -63.11 
L 174.658967 -63.11 
L 175.144673 -63.11 
L 175.630379 -63.11 
L 176.116084 -63.11 
L 176.60179 -63.11 
L 177.087496 -63.11 
L 177.573202 -63.11 
L 178.058907 -63.11 
L 178.544613 -63.11 
L 179.030319 -63.11 
L 179.030319 -64.528652 
L 179.030319 -64.528652 
L 178.544613 -64.721159 
L 178.058907 -64.931371 
L 177.573202 -65.159669 
L 177.087496 -65.406263 
L 176.60179 -65.671182 
L 176.116084 -65.954252 
L 175.630379 -66.25509 
L 175.144673 -66.573093 
L 174.658967 -66.907429 
L 174.173261 -67.257041 
L 173.687556 -67.620645 
L 173.20185 -67.996739 
L 172.716144 -68.38361 
L 172.230438 -68.779356 
L 171.744733 -69.181895 
L 171.259027 -69.588998 
L 170.773321 -69.99831 
L 170.287615 -70.40738 
L 169.80191 -70.813702 
L 169.316204 -71.214745 
L 168.830498 -71.607997 
L 168.344792 -71.991005 
L 167.859086 -72.361421 
L 167.373381 -72.717046 
L 166.887675 -73.055873 
L 166.401969 -73.376133 
L 165.916263 -73.676337 
L 165.430558 -73.955314 
L 164.944852 -74.212248 
L 164.459146 -74.446706 
L 163.97344 -74.658663 
L 163.487735 -74.848515 
L 163.002029 -75.017089 
L 162.516323 -75.16564 
L 162.030617 -75.295836 
L 161.544912 -75.409735 
L 161.059206 -75.509752 
L 160.5735 -75.598616 
L 160.087794 -75.67931 
L 159.602089 -75.755013 
L 159.116383 -75.829028 
L 158.630677 -75.904705 
L 158.144971 -75.98536 
L 157.659266 -76.074196 
L 157.17356 -76.174219 
L 156.687854 -76.288161 
L 156.202148 -76.418407 
L 155.716443 -76.566928 
L 155.230737 -76.735227 
L 154.745031 -76.924289 
L 154.259325 -77.134553 
L 153.77362 -77.365886 
L 153.287914 -77.617578 
L 152.802208 -77.88835 
L 152.316502 -78.176369 
L 151.830797 -78.479285 
L 151.345091 -78.79427 
L 150.859385 -79.118075 
L 150.373679 -79.447089 
L 149.887973 -79.77741 
L 149.402268 -80.104918 
L 148.916562 -80.425354 
L 148.430856 -80.734397 
L 147.94515 -81.027746 
L 147.459445 -81.301194 
L 146.973739 -81.550707 
L 146.488033 -81.772491 
L 146.002327 -81.963058 
L 145.516622 -82.119285 
L 145.030916 -82.238466 
L 144.54521 -82.318351 
L 144.059504 -82.357188 
L 143.573799 -82.353742 
L 143.088093 -82.307316 
L 142.602387 -82.217755 
L 142.116681 -82.085447 
L 141.630976 -81.91131 
L 141.14527 -81.696771 
L 140.659564 -81.44374 
L 140.173858 -81.15457 
L 139.688153 -80.832013 
L 139.202447 -80.479172 
L 138.716741 -80.099444 
L 138.231035 -79.696461 
L 137.74533 -79.274025 
L 137.259624 -78.836044 
L 136.773918 -78.386468 
L 136.288212 -77.929224 
L 135.802507 -77.468152 
L 135.316801 -77.006949 
L 134.831095 -76.549107 
L 134.345389 -76.097871 
L 133.859684 -75.656186 
L 133.373978 -75.226668 
L 132.888272 -74.811564 
L 132.402566 -74.412735 
L 131.91686 -74.031636 
L 131.431155 -73.669314 
L 130.945449 -73.326399 
L 130.459743 -73.003119 
L 129.974037 -72.699316 
L 129.488332 -72.414461 
L 129.002626 -72.147694 
L 128.51692 -71.897851 
L 128.031214 -71.663513 
L 127.545509 -71.443049 
L 127.059803 -71.234665 
L 126.574097 -71.036462 
L 126.088391 -70.846487 
L 125.602686 -70.66279 
L 125.11698 -70.483479 
L 124.631274 -70.30677 
L 124.145568 -70.131037 
L 123.659863 -69.954855 
L 123.174157 -69.777037 
L 122.688451 -69.596664 
L 122.202745 -69.413108 
L 121.71704 -69.226045 
L 121.231334 -69.035461 
L 120.745628 -68.841648 
L 120.259922 -68.645194 
L 119.774217 -68.44696 
L 119.288511 -68.248054 
L 118.802805 -68.049803 
L 118.317099 -67.85371 
L 117.831394 -67.661414 
L 117.345688 -67.474648 
L 116.859982 -67.295195 
L 116.374276 -67.124841 
L 115.888571 -66.965335 
L 115.402865 -66.818345 
L 114.917159 -66.685425 
L 114.431453 -66.567977 
L 113.945747 -66.467224 
L 113.460042 -66.384183 
L 112.974336 -66.319647 
L 112.48863 -66.274168 
L 112.002924 -66.248042 
L 111.517219 -66.241308 
L 111.031513 -66.253741 
L 110.545807 -66.284853 
L 110.060101 -66.333898 
L 109.574396 -66.399878 
L 109.08869 -66.481557 
L 108.602984 -66.577473 
L 108.117278 -66.685955 
L 107.631573 -66.805146 
L 107.145867 -66.933021 
L 106.660161 -67.067418 
L 106.174455 -67.206063 
L 105.68875 -67.346606 
L 105.203044 -67.486648 
L 104.717338 -67.623782 
L 104.231632 -67.755627 
L 103.745927 -67.879863 
L 103.260221 -67.994274 
L 102.774515 -68.096778 
L 102.288809 -68.185469 
L 101.803104 -68.25864 
L 101.317398 -68.314822 
L 100.831692 -68.352801 
L 100.345986 -68.371641 
L 99.860281 -68.370699 
L 99.374575 -68.349631 
L 98.888869 -68.308397 
L 98.403163 -68.247251 
L 97.917458 -68.166739 
L 97.431752 -68.067674 
L 96.946046 -67.951116 
L 96.46034 -67.818349 
L 95.974635 -67.670846 
L 95.488929 -67.510234 
L 95.003223 -67.338262 
L 94.517517 -67.15676 
L 94.031811 -66.967605 
L 93.546106 -66.772682 
L 93.0604 -66.573852 
L 92.574694 -66.372921 
L 92.088988 -66.171609 
L 91.603283 -65.97153 
L 91.117577 -65.77417 
L 90.631871 -65.580871 
L 90.146165 -65.392822 
L 89.66046 -65.211052 
L 89.174754 -65.036428 
L 88.689048 -64.869652 
L 88.203342 -64.711273 
L 87.717637 -64.561689 
L 87.231931 -64.421157 
L 86.746225 -64.289805 
L 86.260519 -64.167645 
L 85.774814 -64.054588 
L 85.289108 -63.950452 
L 84.803402 -63.854981 
L 84.317696 -63.767857 
L 83.831991 -63.688709 
L 83.346285 -63.617129 
L 82.860579 -63.552682 
L 82.374873 -63.494914 
z
" style="stroke: #355f8d; stroke-width: 1.25"/>
    </defs>
    <g>
     <use xlink:href="#m4a57fe4999" x="0" y="174.26" style="fill: #355f8d; fill-opacity: 0.7; stroke: #355f8d; stroke-width: 1.25"/>
    </g>
   </g>
   <g id="line2d_7">
    <path d="M 13.285445 111.15 
L 222.535445 111.15 
" style="fill: none; stroke: #355f8d; stroke-opacity: 0.9; stroke-linecap: round"/>
   </g>
   <g id="text_7">
    <!-- 6 -->
    <g style="fill: #355f8d" transform="translate(13.285445 110.232) scale(0.12 -0.12)">
     <defs>
      <path id="IBMPlexSans-Bold-36" d="M 1946 -77 
Q 1549 -77 1235 48 
Q 922 173 707 406 
Q 493 640 381 966 
Q 269 1293 269 1696 
Q 269 2163 413 2582 
Q 557 3002 784 3357 
Q 1011 3712 1296 3993 
Q 1581 4275 1869 4467 
L 3194 4467 
Q 2784 4173 2457 3907 
Q 2131 3642 1891 3373 
Q 1651 3104 1494 2825 
Q 1338 2547 1274 2227 
L 1331 2208 
Q 1389 2336 1469 2457 
Q 1549 2579 1667 2672 
Q 1786 2765 1946 2822 
Q 2106 2880 2317 2880 
Q 2592 2880 2832 2781 
Q 3072 2682 3248 2502 
Q 3424 2323 3523 2064 
Q 3622 1805 3622 1491 
Q 3622 1146 3504 858 
Q 3386 570 3165 362 
Q 2944 154 2637 38 
Q 2330 -77 1946 -77 
z
M 1946 672 
Q 2266 672 2445 848 
Q 2624 1024 2624 1350 
L 2624 1466 
Q 2624 1792 2445 1968 
Q 2266 2144 1946 2144 
Q 1626 2144 1446 1968 
Q 1267 1792 1267 1466 
L 1267 1350 
Q 1267 1024 1446 848 
Q 1626 672 1946 672 
z
" transform="scale(0.015625)"/>
     </defs>
     <use xlink:href="#IBMPlexSans-Bold-36"/>
    </g>
   </g>
  </g>
  <g id="axes_8">
   <g id="patch_9">
    <path d="M 13.285445 121.545 
L 222.535445 121.545 
L 222.535445 79.965 
L 13.285445 79.965 
L 13.285445 121.545 
z
" style="fill: none"/>
   </g>
   <g id="matplotlib.axis_15">
    <g id="xtick_36"/>
    <g id="xtick_37"/>
    <g id="xtick_38"/>
    <g id="xtick_39"/>
    <g id="xtick_40"/>
   </g>
   <g id="matplotlib.axis_16"/>
   <g id="FillBetweenPolyCollection_3">
    <defs>
     <path id="mf31b82bec6" d="M 51.895745 -52.98699 
L 51.895745 -52.715 
L 52.621038 -52.715 
L 53.346331 -52.715 
L 54.071623 -52.715 
L 54.796916 -52.715 
L 55.522208 -52.715 
L 56.247501 -52.715 
L 56.972794 -52.715 
L 57.698086 -52.715 
L 58.423379 -52.715 
L 59.148672 -52.715 
L 59.873964 -52.715 
L 60.599257 -52.715 
L 61.324549 -52.715 
L 62.049842 -52.715 
L 62.775135 -52.715 
L 63.500427 -52.715 
L 64.22572 -52.715 
L 64.951012 -52.715 
L 65.676305 -52.715 
L 66.401598 -52.715 
L 67.12689 -52.715 
L 67.852183 -52.715 
L 68.577476 -52.715 
L 69.302768 -52.715 
L 70.028061 -52.715 
L 70.753353 -52.715 
L 71.478646 -52.715 
L 72.203939 -52.715 
L 72.929231 -52.715 
L 73.654524 -52.715 
L 74.379816 -52.715 
L 75.105109 -52.715 
L 75.830402 -52.715 
L 76.555694 -52.715 
L 77.280987 -52.715 
L 78.006279 -52.715 
L 78.731572 -52.715 
L 79.456865 -52.715 
L 80.182157 -52.715 
L 80.90745 -52.715 
L 81.632743 -52.715 
L 82.358035 -52.715 
L 83.083328 -52.715 
L 83.80862 -52.715 
L 84.533913 -52.715 
L 85.259206 -52.715 
L 85.984498 -52.715 
L 86.709791 -52.715 
L 87.435083 -52.715 
L 88.160376 -52.715 
L 88.885669 -52.715 
L 89.610961 -52.715 
L 90.336254 -52.715 
L 91.061547 -52.715 
L 91.786839 -52.715 
L 92.512132 -52.715 
L 93.237424 -52.715 
L 93.962717 -52.715 
L 94.68801 -52.715 
L 95.413302 -52.715 
L 96.138595 -52.715 
L 96.863887 -52.715 
L 97.58918 -52.715 
L 98.314473 -52.715 
L 99.039765 -52.715 
L 99.765058 -52.715 
L 100.490351 -52.715 
L 101.215643 -52.715 
L 101.940936 -52.715 
L 102.666228 -52.715 
L 103.391521 -52.715 
L 104.116814 -52.715 
L 104.842106 -52.715 
L 105.567399 -52.715 
L 106.292691 -52.715 
L 107.017984 -52.715 
L 107.743277 -52.715 
L 108.468569 -52.715 
L 109.193862 -52.715 
L 109.919154 -52.715 
L 110.644447 -52.715 
L 111.36974 -52.715 
L 112.095032 -52.715 
L 112.820325 -52.715 
L 113.545618 -52.715 
L 114.27091 -52.715 
L 114.996203 -52.715 
L 115.721495 -52.715 
L 116.446788 -52.715 
L 117.172081 -52.715 
L 117.897373 -52.715 
L 118.622666 -52.715 
L 119.347958 -52.715 
L 120.073251 -52.715 
L 120.798544 -52.715 
L 121.523836 -52.715 
L 122.249129 -52.715 
L 122.974422 -52.715 
L 123.699714 -52.715 
L 124.425007 -52.715 
L 125.150299 -52.715 
L 125.875592 -52.715 
L 126.600885 -52.715 
L 127.326177 -52.715 
L 128.05147 -52.715 
L 128.776762 -52.715 
L 129.502055 -52.715 
L 130.227348 -52.715 
L 130.95264 -52.715 
L 131.677933 -52.715 
L 132.403226 -52.715 
L 133.128518 -52.715 
L 133.853811 -52.715 
L 134.579103 -52.715 
L 135.304396 -52.715 
L 136.029689 -52.715 
L 136.754981 -52.715 
L 137.480274 -52.715 
L 138.205566 -52.715 
L 138.930859 -52.715 
L 139.656152 -52.715 
L 140.381444 -52.715 
L 141.106737 -52.715 
L 141.83203 -52.715 
L 142.557322 -52.715 
L 143.282615 -52.715 
L 144.007907 -52.715 
L 144.7332 -52.715 
L 145.458493 -52.715 
L 146.183785 -52.715 
L 146.909078 -52.715 
L 147.63437 -52.715 
L 148.359663 -52.715 
L 149.084956 -52.715 
L 149.810248 -52.715 
L 150.535541 -52.715 
L 151.260833 -52.715 
L 151.986126 -52.715 
L 152.711419 -52.715 
L 153.436711 -52.715 
L 154.162004 -52.715 
L 154.887297 -52.715 
L 155.612589 -52.715 
L 156.337882 -52.715 
L 157.063174 -52.715 
L 157.788467 -52.715 
L 158.51376 -52.715 
L 159.239052 -52.715 
L 159.964345 -52.715 
L 160.689637 -52.715 
L 161.41493 -52.715 
L 162.140223 -52.715 
L 162.865515 -52.715 
L 163.590808 -52.715 
L 164.316101 -52.715 
L 165.041393 -52.715 
L 165.766686 -52.715 
L 166.491978 -52.715 
L 167.217271 -52.715 
L 167.942564 -52.715 
L 168.667856 -52.715 
L 169.393149 -52.715 
L 170.118441 -52.715 
L 170.843734 -52.715 
L 171.569027 -52.715 
L 172.294319 -52.715 
L 173.019612 -52.715 
L 173.744905 -52.715 
L 174.470197 -52.715 
L 175.19549 -52.715 
L 175.920782 -52.715 
L 176.646075 -52.715 
L 177.371368 -52.715 
L 178.09666 -52.715 
L 178.821953 -52.715 
L 179.547245 -52.715 
L 180.272538 -52.715 
L 180.997831 -52.715 
L 181.723123 -52.715 
L 182.448416 -52.715 
L 183.173708 -52.715 
L 183.899001 -52.715 
L 184.624294 -52.715 
L 185.349586 -52.715 
L 186.074879 -52.715 
L 186.800172 -52.715 
L 187.525464 -52.715 
L 188.250757 -52.715 
L 188.976049 -52.715 
L 189.701342 -52.715 
L 190.426635 -52.715 
L 191.151927 -52.715 
L 191.87722 -52.715 
L 192.602512 -52.715 
L 193.327805 -52.715 
L 194.053098 -52.715 
L 194.77839 -52.715 
L 195.503683 -52.715 
L 196.228976 -52.715 
L 196.228976 -53.672267 
L 196.228976 -53.672267 
L 195.503683 -53.802464 
L 194.77839 -53.944584 
L 194.053098 -54.098856 
L 193.327805 -54.265392 
L 192.602512 -54.444174 
L 191.87722 -54.635047 
L 191.151927 -54.837714 
L 190.426635 -55.051727 
L 189.701342 -55.276491 
L 188.976049 -55.511257 
L 188.250757 -55.755135 
L 187.525464 -56.007093 
L 186.800172 -56.26597 
L 186.074879 -56.530487 
L 185.349586 -56.799261 
L 184.624294 -57.070822 
L 183.899001 -57.343631 
L 183.173708 -57.616101 
L 182.448416 -57.886617 
L 181.723123 -58.153562 
L 180.997831 -58.415337 
L 180.272538 -58.67039 
L 179.547245 -58.917239 
L 178.821953 -59.154497 
L 178.09666 -59.380898 
L 177.371368 -59.595321 
L 176.646075 -59.796813 
L 175.920782 -59.984613 
L 175.19549 -60.158171 
L 174.470197 -60.317161 
L 173.744905 -60.461504 
L 173.019612 -60.591369 
L 172.294319 -60.707185 
L 171.569027 -60.809637 
L 170.843734 -60.899667 
L 170.118441 -60.978457 
L 169.393149 -61.047418 
L 168.667856 -61.108161 
L 167.942564 -61.162475 
L 167.217271 -61.212288 
L 166.491978 -61.259627 
L 165.766686 -61.306577 
L 165.041393 -61.355232 
L 164.316101 -61.407645 
L 163.590808 -61.465778 
L 162.865515 -61.531451 
L 162.140223 -61.606297 
L 161.41493 -61.691712 
L 160.689637 -61.78882 
L 159.964345 -61.898437 
L 159.239052 -62.021041 
L 158.51376 -62.156756 
L 157.788467 -62.305341 
L 157.063174 -62.466188 
L 156.337882 -62.638328 
L 155.612589 -62.820447 
L 154.887297 -63.010914 
L 154.162004 -63.207807 
L 153.436711 -63.408956 
L 152.711419 -63.611986 
L 151.986126 -63.814366 
L 151.260833 -64.013458 
L 150.535541 -64.206573 
L 149.810248 -64.39102 
L 149.084956 -64.564165 
L 148.359663 -64.723472 
L 147.63437 -64.866557 
L 146.909078 -64.991225 
L 146.183785 -65.095511 
L 145.458493 -65.177707 
L 144.7332 -65.236392 
L 144.007907 -65.270451 
L 143.282615 -65.279086 
L 142.557322 -65.261822 
L 141.83203 -65.218514 
L 141.106737 -65.149335 
L 140.381444 -65.054771 
L 139.656152 -64.935605 
L 138.930859 -64.792897 
L 138.205566 -64.62796 
L 137.480274 -64.442335 
L 136.754981 -64.237763 
L 136.029689 -64.016149 
L 135.304396 -63.779533 
L 134.579103 -63.530053 
L 133.853811 -63.269913 
L 133.128518 -63.001344 
L 132.403226 -62.726574 
L 131.677933 -62.447789 
L 130.95264 -62.167109 
L 130.227348 -61.886552 
L 129.502055 -61.608006 
L 128.776762 -61.333212 
L 128.05147 -61.063731 
L 127.326177 -60.800938 
L 126.600885 -60.545997 
L 125.875592 -60.29986 
L 125.150299 -60.063253 
L 124.425007 -59.836679 
L 123.699714 -59.620417 
L 122.974422 -59.414531 
L 122.249129 -59.21888 
L 121.523836 -59.03313 
L 120.798544 -58.856775 
L 120.073251 -58.689157 
L 119.347958 -58.529491 
L 118.622666 -58.376891 
L 117.897373 -58.230399 
L 117.172081 -58.089016 
L 116.446788 -57.95173 
L 115.721495 -57.817548 
L 114.996203 -57.685525 
L 114.27091 -57.55479 
L 113.545618 -57.424574 
L 112.820325 -57.294228 
L 112.095032 -57.163245 
L 111.36974 -57.031273 
L 110.644447 -56.898123 
L 109.919154 -56.763777 
L 109.193862 -56.628388 
L 108.468569 -56.492271 
L 107.743277 -56.355902 
L 107.017984 -56.219898 
L 106.292691 -56.085004 
L 105.567399 -55.952074 
L 104.842106 -55.822046 
L 104.116814 -55.695921 
L 103.391521 -55.574738 
L 102.666228 -55.459546 
L 101.940936 -55.351384 
L 101.215643 -55.251253 
L 100.490351 -55.160095 
L 99.765058 -55.078774 
L 99.039765 -55.008053 
L 98.314473 -54.948583 
L 97.58918 -54.900885 
L 96.863887 -54.865341 
L 96.138595 -54.842182 
L 95.413302 -54.831486 
L 94.68801 -54.83317 
L 93.962717 -54.846994 
L 93.237424 -54.872552 
L 92.512132 -54.909285 
L 91.786839 -54.95648 
L 91.061547 -55.013277 
L 90.336254 -55.078681 
L 89.610961 -55.151571 
L 88.885669 -55.230713 
L 88.160376 -55.314775 
L 87.435083 -55.402345 
L 86.709791 -55.49195 
L 85.984498 -55.582071 
L 85.259206 -55.671175 
L 84.533913 -55.757725 
L 83.80862 -55.840215 
L 83.083328 -55.917184 
L 82.358035 -55.987248 
L 81.632743 -56.049115 
L 80.90745 -56.101612 
L 80.182157 -56.143701 
L 79.456865 -56.174499 
L 78.731572 -56.19329 
L 78.006279 -56.199538 
L 77.280987 -56.192894 
L 76.555694 -56.173201 
L 75.830402 -56.140492 
L 75.105109 -56.094986 
L 74.379816 -56.037083 
L 73.654524 -55.96735 
L 72.929231 -55.886508 
L 72.203939 -55.795412 
L 71.478646 -55.695033 
L 70.753353 -55.58644 
L 70.028061 -55.470768 
L 69.302768 -55.349206 
L 68.577476 -55.222966 
L 67.852183 -55.093263 
L 67.12689 -54.961295 
L 66.401598 -54.828223 
L 65.676305 -54.695154 
L 64.951012 -54.563123 
L 64.22572 -54.433086 
L 63.500427 -54.305907 
L 62.775135 -54.182349 
L 62.049842 -54.063074 
L 61.324549 -53.948641 
L 60.599257 -53.8395 
L 59.873964 -53.736004 
L 59.148672 -53.638406 
L 58.423379 -53.546867 
L 57.698086 -53.461464 
L 56.972794 -53.382198 
L 56.247501 -53.309001 
L 55.522208 -53.241744 
L 54.796916 -53.180248 
L 54.071623 -53.124292 
L 53.346331 -53.073621 
L 52.621038 -53.027954 
L 51.895745 -52.98699 
z
" style="stroke: #414487; stroke-width: 1.25"/>
    </defs>
    <g>
     <use xlink:href="#mf31b82bec6" x="0" y="174.26" style="fill: #414487; fill-opacity: 0.7; stroke: #414487; stroke-width: 1.25"/>
    </g>
   </g>
   <g id="line2d_8">
    <path d="M 13.285445 121.545 
L 222.535445 121.545 
" style="fill: none; stroke: #414487; stroke-opacity: 0.9; stroke-linecap: round"/>
   </g>
   <g id="text_8">
    <!-- 7 -->
    <g style="fill: #414487" transform="translate(13.285445 120.627) scale(0.12 -0.12)">
     <defs>
      <path id="IBMPlexSans-Bold-37" d="M 1062 0 
L 2560 3686 
L 1165 3686 
L 1165 2874 
L 352 2874 
L 352 4467 
L 3514 4467 
L 3514 3635 
L 2074 0 
L 1062 0 
z
" transform="scale(0.015625)"/>
     </defs>
     <use xlink:href="#IBMPlexSans-Bold-37"/>
    </g>
   </g>
  </g>
  <g id="axes_9">
   <g id="patch_10">
    <path d="M 13.285445 131.94 
L 222.535445 131.94 
L 222.535445 90.36 
L 13.285445 90.36 
L 13.285445 131.94 
z
" style="fill: none"/>
   </g>
   <g id="matplotlib.axis_17">
    <g id="xtick_41">
     <g id="text_9">
      <!-- −6 -->
      <g style="fill: #838383" transform="translate(7.2 149.58) scale(0.11 -0.11)">
       <defs>
        <path id="IBMPlexSans-Regular-2212" d="M 429 1734 
L 429 2170 
L 3411 2170 
L 3411 1734 
L 429 1734 
z
" transform="scale(0.015625)"/>
        <path id="IBMPlexSans-Regular-36" d="M 1926 -77 
Q 1581 -77 1302 41 
Q 1024 160 829 381 
Q 634 602 531 922 
Q 429 1242 429 1638 
Q 429 2138 576 2576 
Q 723 3014 956 3376 
Q 1190 3738 1472 4016 
Q 1754 4294 2022 4467 
L 2714 4467 
Q 2355 4205 2073 3955 
Q 1792 3706 1581 3434 
Q 1370 3162 1222 2851 
Q 1075 2541 986 2150 
L 1018 2138 
Q 1178 2413 1430 2595 
Q 1683 2778 2093 2778 
Q 2381 2778 2624 2682 
Q 2867 2586 3040 2406 
Q 3213 2227 3312 1971 
Q 3411 1715 3411 1402 
Q 3411 1075 3305 803 
Q 3200 531 3005 336 
Q 2810 141 2534 32 
Q 2259 -77 1926 -77 
z
M 1920 390 
Q 2362 390 2608 633 
Q 2854 877 2854 1331 
L 2854 1382 
Q 2854 1837 2608 2080 
Q 2362 2323 1920 2323 
Q 1478 2323 1232 2080 
Q 986 1837 986 1382 
L 986 1331 
Q 986 877 1232 633 
Q 1478 390 1920 390 
z
" transform="scale(0.015625)"/>
       </defs>
       <use xlink:href="#IBMPlexSans-Regular-2212"/>
       <use xlink:href="#IBMPlexSans-Regular-36" transform="translate(59.999985 0)"/>
      </g>
     </g>
    </g>
    <g id="xtick_42">
     <g id="text_10">
      <!-- −4 -->
      <g style="fill: #838383" transform="translate(50.855136 149.58) scale(0.11 -0.11)">
       <defs>
        <path id="IBMPlexSans-Regular-34" d="M 2400 0 
L 2400 877 
L 243 877 
L 243 1350 
L 2112 4467 
L 2912 4467 
L 2912 1325 
L 3558 1325 
L 3558 877 
L 2912 877 
L 2912 0 
L 2400 0 
z
M 749 1325 
L 2400 1325 
L 2400 4051 
L 2368 4051 
L 749 1325 
z
" transform="scale(0.015625)"/>
       </defs>
       <use xlink:href="#IBMPlexSans-Regular-2212"/>
       <use xlink:href="#IBMPlexSans-Regular-34" transform="translate(59.999985 0)"/>
      </g>
     </g>
    </g>
    <g id="xtick_43">
     <g id="text_11">
      <!-- −2 -->
      <g style="fill: #838383" transform="translate(94.510271 149.58) scale(0.11 -0.11)">
       <defs>
        <path id="IBMPlexSans-Regular-32" d="M 3411 0 
L 480 0 
L 480 550 
L 1939 1894 
Q 2253 2182 2464 2505 
Q 2675 2829 2675 3155 
L 2675 3232 
Q 2675 3603 2470 3833 
Q 2266 4064 1850 4064 
Q 1645 4064 1491 4006 
Q 1338 3949 1226 3846 
Q 1114 3744 1040 3606 
Q 966 3469 922 3309 
L 442 3494 
Q 506 3693 618 3881 
Q 730 4070 899 4217 
Q 1069 4365 1309 4454 
Q 1549 4544 1875 4544 
Q 2202 4544 2458 4448 
Q 2714 4352 2886 4179 
Q 3059 4006 3152 3769 
Q 3245 3533 3245 3245 
Q 3245 2982 3171 2758 
Q 3098 2534 2970 2332 
Q 2842 2131 2659 1939 
Q 2477 1747 2266 1555 
L 1062 474 
L 3411 474 
L 3411 0 
z
" transform="scale(0.015625)"/>
       </defs>
       <use xlink:href="#IBMPlexSans-Regular-2212"/>
       <use xlink:href="#IBMPlexSans-Regular-32" transform="translate(59.999985 0)"/>
      </g>
     </g>
    </g>
    <g id="xtick_44">
     <g id="text_12">
      <!-- 0 -->
      <g style="fill: #838383" transform="translate(141.465407 149.58) scale(0.11 -0.11)">
       <defs>
        <path id="IBMPlexSans-Regular-30" d="M 1920 -77 
Q 1120 -77 752 531 
Q 384 1139 384 2234 
Q 384 3328 752 3936 
Q 1120 4544 1920 4544 
Q 2720 4544 3088 3936 
Q 3456 3328 3456 2234 
Q 3456 1139 3088 531 
Q 2720 -77 1920 -77 
z
M 1920 390 
Q 2182 390 2368 499 
Q 2554 608 2669 806 
Q 2784 1005 2838 1273 
Q 2893 1542 2893 1869 
L 2893 2598 
Q 2893 2925 2838 3193 
Q 2784 3462 2669 3660 
Q 2554 3859 2368 3968 
Q 2182 4077 1920 4077 
Q 1658 4077 1472 3968 
Q 1286 3859 1171 3660 
Q 1056 3462 1001 3193 
Q 947 2925 947 2598 
L 947 1869 
Q 947 1542 1001 1273 
Q 1056 1005 1171 806 
Q 1286 608 1472 499 
Q 1658 390 1920 390 
z
" transform="scale(0.015625)"/>
       </defs>
       <use xlink:href="#IBMPlexSans-Regular-30"/>
      </g>
     </g>
    </g>
    <g id="xtick_45">
     <g id="text_13">
      <!-- 2 -->
      <g style="fill: #838383" transform="translate(185.120542 149.58) scale(0.11 -0.11)">
       <use xlink:href="#IBMPlexSans-Regular-32"/>
      </g>
     </g>
    </g>
    <g id="text_14">
     <!-- sldb -->
     <g style="fill: #262626" transform="translate(106.39607 164.66) scale(0.12 -0.12)">
      <defs>
       <path id="IBMPlexSans-Regular-73" d="M 1536 -77 
Q 1075 -77 764 99 
Q 454 275 230 570 
L 595 864 
Q 787 621 1024 489 
Q 1261 358 1574 358 
Q 1901 358 2083 499 
Q 2266 640 2266 896 
Q 2266 1088 2141 1225 
Q 2016 1363 1690 1414 
L 1427 1453 
Q 1197 1485 1005 1552 
Q 813 1619 669 1731 
Q 525 1843 445 2009 
Q 365 2176 365 2406 
Q 365 2650 454 2832 
Q 544 3014 701 3136 
Q 858 3258 1075 3318 
Q 1293 3379 1542 3379 
Q 1946 3379 2218 3238 
Q 2490 3098 2694 2848 
L 2355 2541 
Q 2246 2694 2035 2819 
Q 1824 2944 1504 2944 
Q 1184 2944 1021 2806 
Q 858 2669 858 2432 
Q 858 2189 1021 2080 
Q 1184 1971 1491 1920 
L 1747 1882 
Q 2298 1798 2528 1564 
Q 2758 1331 2758 954 
Q 2758 474 2432 198 
Q 2106 -77 1536 -77 
z
" transform="scale(0.015625)"/>
       <path id="IBMPlexSans-Regular-6c" d="M 1088 0 
Q 819 0 681 150 
Q 544 301 544 531 
L 544 4736 
L 1056 4736 
L 1056 448 
L 1542 448 
L 1542 0 
L 1088 0 
z
" transform="scale(0.015625)"/>
       <path id="IBMPlexSans-Regular-64" d="M 2656 538 
L 2630 538 
Q 2330 -77 1664 -77 
Q 1357 -77 1107 44 
Q 858 166 682 390 
Q 506 614 413 934 
Q 320 1254 320 1651 
Q 320 2048 413 2368 
Q 506 2688 682 2912 
Q 858 3136 1107 3257 
Q 1357 3379 1664 3379 
Q 2010 3379 2256 3228 
Q 2502 3078 2630 2765 
L 2656 2765 
L 2656 4736 
L 3168 4736 
L 3168 0 
L 2656 0 
L 2656 538 
z
M 1805 384 
Q 1978 384 2134 429 
Q 2291 474 2406 560 
Q 2522 646 2589 771 
Q 2656 896 2656 1056 
L 2656 2285 
Q 2656 2419 2589 2537 
Q 2522 2656 2406 2739 
Q 2291 2822 2134 2870 
Q 1978 2918 1805 2918 
Q 1370 2918 1120 2646 
Q 870 2374 870 1933 
L 870 1370 
Q 870 928 1120 656 
Q 1370 384 1805 384 
z
" transform="scale(0.015625)"/>
       <path id="IBMPlexSans-Regular-62" d="M 544 4736 
L 1056 4736 
L 1056 2765 
L 1082 2765 
Q 1210 3078 1456 3228 
Q 1702 3379 2048 3379 
Q 2355 3379 2604 3257 
Q 2854 3136 3030 2912 
Q 3206 2688 3299 2368 
Q 3392 2048 3392 1651 
Q 3392 1254 3299 934 
Q 3206 614 3030 390 
Q 2854 166 2604 44 
Q 2355 -77 2048 -77 
Q 1376 -77 1082 538 
L 1056 538 
L 1056 0 
L 544 0 
L 544 4736 
z
M 1907 384 
Q 2342 384 2592 656 
Q 2842 928 2842 1370 
L 2842 1933 
Q 2842 2374 2592 2646 
Q 2342 2918 1907 2918 
Q 1734 2918 1577 2870 
Q 1421 2822 1305 2739 
Q 1190 2656 1123 2537 
Q 1056 2419 1056 2285 
L 1056 1056 
Q 1056 896 1123 771 
Q 1190 646 1305 560 
Q 1421 474 1577 429 
Q 1734 384 1907 384 
z
" transform="scale(0.015625)"/>
      </defs>
      <use xlink:href="#IBMPlexSans-Regular-73"/>
      <use xlink:href="#IBMPlexSans-Regular-6c" transform="translate(48.699997 0)"/>
      <use xlink:href="#IBMPlexSans-Regular-64" transform="translate(75.899994 0)"/>
      <use xlink:href="#IBMPlexSans-Regular-62" transform="translate(133.899979 0)"/>
     </g>
    </g>
   </g>
   <g id="matplotlib.axis_18"/>
   <g id="FillBetweenPolyCollection_4">
    <defs>
     <path id="mdd425e6c04" d="M 22.796809 -42.55804 
L 22.796809 -42.32 
L 23.752725 -42.32 
L 24.70864 -42.32 
L 25.664556 -42.32 
L 26.620472 -42.32 
L 27.576388 -42.32 
L 28.532304 -42.32 
L 29.48822 -42.32 
L 30.444136 -42.32 
L 31.400052 -42.32 
L 32.355968 -42.32 
L 33.311884 -42.32 
L 34.2678 -42.32 
L 35.223716 -42.32 
L 36.179632 -42.32 
L 37.135548 -42.32 
L 38.091464 -42.32 
L 39.04738 -42.32 
L 40.003296 -42.32 
L 40.959211 -42.32 
L 41.915127 -42.32 
L 42.871043 -42.32 
L 43.826959 -42.32 
L 44.782875 -42.32 
L 45.738791 -42.32 
L 46.694707 -42.32 
L 47.650623 -42.32 
L 48.606539 -42.32 
L 49.562455 -42.32 
L 50.518371 -42.32 
L 51.474287 -42.32 
L 52.430203 -42.32 
L 53.386119 -42.32 
L 54.342035 -42.32 
L 55.297951 -42.32 
L 56.253867 -42.32 
L 57.209783 -42.32 
L 58.165698 -42.32 
L 59.121614 -42.32 
L 60.07753 -42.32 
L 61.033446 -42.32 
L 61.989362 -42.32 
L 62.945278 -42.32 
L 63.901194 -42.32 
L 64.85711 -42.32 
L 65.813026 -42.32 
L 66.768942 -42.32 
L 67.724858 -42.32 
L 68.680774 -42.32 
L 69.63669 -42.32 
L 70.592606 -42.32 
L 71.548522 -42.32 
L 72.504438 -42.32 
L 73.460354 -42.32 
L 74.41627 -42.32 
L 75.372185 -42.32 
L 76.328101 -42.32 
L 77.284017 -42.32 
L 78.239933 -42.32 
L 79.195849 -42.32 
L 80.151765 -42.32 
L 81.107681 -42.32 
L 82.063597 -42.32 
L 83.019513 -42.32 
L 83.975429 -42.32 
L 84.931345 -42.32 
L 85.887261 -42.32 
L 86.843177 -42.32 
L 87.799093 -42.32 
L 88.755009 -42.32 
L 89.710925 -42.32 
L 90.666841 -42.32 
L 91.622756 -42.32 
L 92.578672 -42.32 
L 93.534588 -42.32 
L 94.490504 -42.32 
L 95.44642 -42.32 
L 96.402336 -42.32 
L 97.358252 -42.32 
L 98.314168 -42.32 
L 99.270084 -42.32 
L 100.226 -42.32 
L 101.181916 -42.32 
L 102.137832 -42.32 
L 103.093748 -42.32 
L 104.049664 -42.32 
L 105.00558 -42.32 
L 105.961496 -42.32 
L 106.917412 -42.32 
L 107.873328 -42.32 
L 108.829243 -42.32 
L 109.785159 -42.32 
L 110.741075 -42.32 
L 111.696991 -42.32 
L 112.652907 -42.32 
L 113.608823 -42.32 
L 114.564739 -42.32 
L 115.520655 -42.32 
L 116.476571 -42.32 
L 117.432487 -42.32 
L 118.388403 -42.32 
L 119.344319 -42.32 
L 120.300235 -42.32 
L 121.256151 -42.32 
L 122.212067 -42.32 
L 123.167983 -42.32 
L 124.123899 -42.32 
L 125.079815 -42.32 
L 126.03573 -42.32 
L 126.991646 -42.32 
L 127.947562 -42.32 
L 128.903478 -42.32 
L 129.859394 -42.32 
L 130.81531 -42.32 
L 131.771226 -42.32 
L 132.727142 -42.32 
L 133.683058 -42.32 
L 134.638974 -42.32 
L 135.59489 -42.32 
L 136.550806 -42.32 
L 137.506722 -42.32 
L 138.462638 -42.32 
L 139.418554 -42.32 
L 140.37447 -42.32 
L 141.330386 -42.32 
L 142.286301 -42.32 
L 143.242217 -42.32 
L 144.198133 -42.32 
L 145.154049 -42.32 
L 146.109965 -42.32 
L 147.065881 -42.32 
L 148.021797 -42.32 
L 148.977713 -42.32 
L 149.933629 -42.32 
L 150.889545 -42.32 
L 151.845461 -42.32 
L 152.801377 -42.32 
L 153.757293 -42.32 
L 154.713209 -42.32 
L 155.669125 -42.32 
L 156.625041 -42.32 
L 157.580957 -42.32 
L 158.536873 -42.32 
L 159.492788 -42.32 
L 160.448704 -42.32 
L 161.40462 -42.32 
L 162.360536 -42.32 
L 163.316452 -42.32 
L 164.272368 -42.32 
L 165.228284 -42.32 
L 166.1842 -42.32 
L 167.140116 -42.32 
L 168.096032 -42.32 
L 169.051948 -42.32 
L 170.007864 -42.32 
L 170.96378 -42.32 
L 171.919696 -42.32 
L 172.875612 -42.32 
L 173.831528 -42.32 
L 174.787444 -42.32 
L 175.74336 -42.32 
L 176.699275 -42.32 
L 177.655191 -42.32 
L 178.611107 -42.32 
L 179.567023 -42.32 
L 180.522939 -42.32 
L 181.478855 -42.32 
L 182.434771 -42.32 
L 183.390687 -42.32 
L 184.346603 -42.32 
L 185.302519 -42.32 
L 186.258435 -42.32 
L 187.214351 -42.32 
L 188.170267 -42.32 
L 189.126183 -42.32 
L 190.082099 -42.32 
L 191.038015 -42.32 
L 191.993931 -42.32 
L 192.949846 -42.32 
L 193.905762 -42.32 
L 194.861678 -42.32 
L 195.817594 -42.32 
L 196.77351 -42.32 
L 197.729426 -42.32 
L 198.685342 -42.32 
L 199.641258 -42.32 
L 200.597174 -42.32 
L 201.55309 -42.32 
L 202.509006 -42.32 
L 203.464922 -42.32 
L 204.420838 -42.32 
L 205.376754 -42.32 
L 206.33267 -42.32 
L 207.288586 -42.32 
L 208.244502 -42.32 
L 209.200418 -42.32 
L 210.156333 -42.32 
L 211.112249 -42.32 
L 212.068165 -42.32 
L 213.024081 -42.32 
L 213.024081 -43.064885 
L 213.024081 -43.064885 
L 212.068165 -43.164921 
L 211.112249 -43.273943 
L 210.156333 -43.392098 
L 209.200418 -43.519445 
L 208.244502 -43.655946 
L 207.288586 -43.801457 
L 206.33267 -43.955727 
L 205.376754 -44.118395 
L 204.420838 -44.288988 
L 203.464922 -44.466922 
L 202.509006 -44.65151 
L 201.55309 -44.841962 
L 200.597174 -45.037396 
L 199.641258 -45.236849 
L 198.685342 -45.439283 
L 197.729426 -45.643604 
L 196.77351 -45.848671 
L 195.817594 -46.053314 
L 194.861678 -46.256347 
L 193.905762 -46.456589 
L 192.949846 -46.652876 
L 191.993931 -46.844081 
L 191.038015 -47.02913 
L 190.082099 -47.20702 
L 189.126183 -47.376835 
L 188.170267 -47.537764 
L 187.214351 -47.689113 
L 186.258435 -47.830325 
L 185.302519 -47.960986 
L 184.346603 -48.080845 
L 183.390687 -48.189815 
L 182.434771 -48.287987 
L 181.478855 -48.37563 
L 180.522939 -48.453195 
L 179.567023 -48.52131 
L 178.611107 -48.580777 
L 177.655191 -48.632556 
L 176.699275 -48.677758 
L 175.74336 -48.71762 
L 174.787444 -48.753484 
L 173.831528 -48.786772 
L 172.875612 -48.818956 
L 171.919696 -48.851524 
L 170.96378 -48.885946 
L 170.007864 -48.92364 
L 169.051948 -48.965936 
L 168.096032 -49.014043 
L 167.140116 -49.069012 
L 166.1842 -49.131715 
L 165.228284 -49.202812 
L 164.272368 -49.282737 
L 163.316452 -49.371678 
L 162.360536 -49.469572 
L 161.40462 -49.576102 
L 160.448704 -49.6907 
L 159.492788 -49.812558 
L 158.536873 -49.940645 
L 157.580957 -50.073727 
L 156.625041 -50.210395 
L 155.669125 -50.349094 
L 154.713209 -50.488157 
L 153.757293 -50.625837 
L 152.801377 -50.760347 
L 151.845461 -50.889891 
L 150.889545 -51.012702 
L 149.933629 -51.127073 
L 148.977713 -51.231384 
L 148.021797 -51.324137 
L 147.065881 -51.40397 
L 146.109965 -51.469682 
L 145.154049 -51.52025 
L 144.198133 -51.554836 
L 143.242217 -51.572801 
L 142.286301 -51.573704 
L 141.330386 -51.55731 
L 140.37447 -51.52358 
L 139.418554 -51.472673 
L 138.462638 -51.404937 
L 137.506722 -51.320896 
L 136.550806 -51.221243 
L 135.59489 -51.106825 
L 134.638974 -50.978623 
L 133.683058 -50.837744 
L 132.727142 -50.685393 
L 131.771226 -50.522863 
L 130.81531 -50.351509 
L 129.859394 -50.172728 
L 128.903478 -49.98794 
L 127.947562 -49.798565 
L 126.991646 -49.606006 
L 126.03573 -49.411623 
L 125.079815 -49.216716 
L 124.123899 -49.022509 
L 123.167983 -48.830131 
L 122.212067 -48.640605 
L 121.256151 -48.454828 
L 120.300235 -48.273572 
L 119.344319 -48.097466 
L 118.388403 -47.927002 
L 117.432487 -47.762523 
L 116.476571 -47.604234 
L 115.520655 -47.452202 
L 114.564739 -47.306362 
L 113.608823 -47.16653 
L 112.652907 -47.032413 
L 111.696991 -46.903626 
L 110.741075 -46.779705 
L 109.785159 -46.660127 
L 108.829243 -46.544326 
L 107.873328 -46.431716 
L 106.917412 -46.321708 
L 105.961496 -46.213728 
L 105.00558 -46.107236 
L 104.049664 -46.001744 
L 103.093748 -45.896828 
L 102.137832 -45.792147 
L 101.181916 -45.687444 
L 100.226 -45.582565 
L 99.270084 -45.477456 
L 98.314168 -45.37217 
L 97.358252 -45.266864 
L 96.402336 -45.161798 
L 95.44642 -45.057327 
L 94.490504 -44.953894 
L 93.534588 -44.852019 
L 92.578672 -44.752286 
L 91.622756 -44.65533 
L 90.666841 -44.561821 
L 89.710925 -44.47245 
L 88.755009 -44.387912 
L 87.799093 -44.308889 
L 86.843177 -44.236038 
L 85.887261 -44.169974 
L 84.931345 -44.111257 
L 83.975429 -44.060379 
L 83.019513 -44.017754 
L 82.063597 -43.983711 
L 81.107681 -43.958479 
L 80.151765 -43.94219 
L 79.195849 -43.934867 
L 78.239933 -43.936423 
L 77.284017 -43.946665 
L 76.328101 -43.965285 
L 75.372185 -43.991869 
L 74.41627 -44.025898 
L 73.460354 -44.066752 
L 72.504438 -44.113719 
L 71.548522 -44.166 
L 70.592606 -44.22272 
L 69.63669 -44.282936 
L 68.680774 -44.345654 
L 67.724858 -44.409835 
L 66.768942 -44.474414 
L 65.813026 -44.538313 
L 64.85711 -44.600455 
L 63.901194 -44.659781 
L 62.945278 -44.715266 
L 61.989362 -44.765932 
L 61.033446 -44.810865 
L 60.07753 -44.849229 
L 59.121614 -44.880278 
L 58.165698 -44.903368 
L 57.209783 -44.917966 
L 56.253867 -44.923661 
L 55.297951 -44.920167 
L 54.342035 -44.907325 
L 53.386119 -44.885108 
L 52.430203 -44.853618 
L 51.474287 -44.813081 
L 50.518371 -44.763844 
L 49.562455 -44.706362 
L 48.606539 -44.641194 
L 47.650623 -44.568985 
L 46.694707 -44.490455 
L 45.738791 -44.406388 
L 44.782875 -44.31761 
L 43.826959 -44.22498 
L 42.871043 -44.12937 
L 41.915127 -44.031652 
L 40.959211 -43.932684 
L 40.003296 -43.833294 
L 39.04738 -43.734274 
L 38.091464 -43.636361 
L 37.135548 -43.540236 
L 36.179632 -43.446512 
L 35.223716 -43.35573 
L 34.2678 -43.268359 
L 33.311884 -43.184788 
L 32.355968 -43.105331 
L 31.400052 -43.030229 
L 30.444136 -42.959648 
L 29.48822 -42.893688 
L 28.532304 -42.832385 
L 27.576388 -42.775719 
L 26.620472 -42.723619 
L 25.664556 -42.675969 
L 24.70864 -42.632617 
L 23.752725 -42.593376 
L 22.796809 -42.55804 
z
" style="stroke: #482475; stroke-width: 1.25"/>
    </defs>
    <g>
     <use xlink:href="#mdd425e6c04" x="0" y="174.26" style="fill: #482475; fill-opacity: 0.7; stroke: #482475; stroke-width: 1.25"/>
    </g>
   </g>
   <g id="line2d_9">
    <path d="M 13.285445 131.94 
L 222.535445 131.94 
" style="fill: none; stroke: #482475; stroke-opacity: 0.9; stroke-linecap: round"/>
   </g>
   <g id="text_15">
    <!-- 8 -->
    <g style="fill: #482475" transform="translate(13.285445 131.022) scale(0.12 -0.12)">
     <defs>
      <path id="IBMPlexSans-Bold-38" d="M 1920 -77 
Q 1523 -77 1212 22 
Q 902 122 691 294 
Q 480 467 368 704 
Q 256 941 256 1222 
Q 256 1651 493 1923 
Q 730 2195 1133 2304 
L 1133 2355 
Q 806 2477 598 2726 
Q 390 2976 390 3366 
Q 390 3622 489 3840 
Q 589 4058 784 4214 
Q 979 4371 1264 4457 
Q 1549 4544 1920 4544 
Q 2291 4544 2576 4457 
Q 2861 4371 3056 4214 
Q 3251 4058 3350 3840 
Q 3450 3622 3450 3366 
Q 3450 2976 3242 2726 
Q 3034 2477 2707 2355 
L 2707 2304 
Q 3110 2195 3347 1923 
Q 3584 1651 3584 1222 
Q 3584 941 3472 704 
Q 3360 467 3149 294 
Q 2938 122 2627 22 
Q 2317 -77 1920 -77 
z
M 1920 659 
Q 2240 659 2409 809 
Q 2579 960 2579 1229 
L 2579 1357 
Q 2579 1626 2409 1776 
Q 2240 1926 1920 1926 
Q 1600 1926 1430 1776 
Q 1261 1626 1261 1357 
L 1261 1229 
Q 1261 960 1430 809 
Q 1600 659 1920 659 
z
M 1920 2630 
Q 2227 2630 2387 2774 
Q 2547 2918 2547 3168 
L 2547 3270 
Q 2547 3520 2387 3664 
Q 2227 3808 1920 3808 
Q 1613 3808 1453 3664 
Q 1293 3520 1293 3270 
L 1293 3168 
Q 1293 2918 1453 2774 
Q 1613 2630 1920 2630 
z
" transform="scale(0.015625)"/>
     </defs>
     <use xlink:href="#IBMPlexSans-Bold-38"/>
    </g>
   </g>
  </g>
 </g>
</svg>
