<?xml version="1.0" encoding="utf-8" standalone="no"?>
<!DOCTYPE svg PUBLIC "-//W3C//DTD SVG 1.1//EN"
  "http://www.w3.org/Graphics/SVG/1.1/DTD/svg11.dtd">
<svg xmlns:xlink="http://www.w3.org/1999/xlink" width="313.95609pt" height="229.269865pt" viewBox="0 0 313.95609 229.269865" xmlns="http://www.w3.org/2000/svg" version="1.1">
 <metadata>
  <rdf:RDF xmlns:dc="http://purl.org/dc/elements/1.1/" xmlns:cc="http://creativecommons.org/ns#" xmlns:rdf="http://www.w3.org/1999/02/22-rdf-syntax-ns#">
   <cc:Work>
    <dc:type rdf:resource="http://purl.org/dc/dcmitype/StillImage"/>
    <dc:date>2025-12-31T11:30:26.492282</dc:date>
    <dc:format>image/svg+xml</dc:format>
    <dc:creator>
     <cc:Agent>
      <dc:title>Matplotlib v3.10.5, https://matplotlib.org/</dc:title>
     </cc:Agent>
    </dc:creator>
   </cc:Work>
  </rdf:RDF>
 </metadata>
 <defs>
  <style type="text/css">*{stroke-linejoin: round; stroke-linecap: butt}</style>
 </defs>
 <g id="figure_1">
  <g id="patch_1">
   <path d="M 0 229.269865 
L 313.95609 229.269865 
L 313.95609 0 
L 0 0 
L 0 229.269865 
z
" style="fill: none"/>
  </g>
  <g id="axes_1">
   <g id="patch_2">
    <path d="M 40.38 192.009865 
L 306.75609 192.009865 
L 306.75609 28.442513 
L 40.38 28.442513 
L 40.38 192.009865 
z
" style="fill: none"/>
   </g>
   <g id="matplotlib.axis_1">
    <g id="xtick_1">
     <g id="line2d_1">
      <path d="M 52.488004 192.009865 
L 52.488004 28.442513 
" clip-path="url(#pf51a02093d)" style="fill: none; stroke-dasharray: 1.48,0.64; stroke-dashoffset: 0; stroke: #838383; stroke-opacity: 0.25; stroke-width: 0.4"/>
     </g>
     <g id="text_1">
      <!-- 0 -->
      <g style="fill: #838383" transform="translate(48.888004 204.389865) scale(0.12 -0.12)">
       <defs>
        <path id="IBMPlexSans-Regular-30" d="M 1920 -77 
Q 1120 -77 752 531 
Q 384 1139 384 2234 
Q 384 3328 752 3936 
Q 1120 4544 1920 4544 
Q 2720 4544 3088 3936 
Q 3456 3328 3456 2234 
Q 3456 1139 3088 531 
Q 2720 -77 1920 -77 
z
M 1920 390 
Q 2182 390 2368 499 
Q 2554 608 2669 806 
Q 2784 1005 2838 1273 
Q 2893 1542 2893 1869 
L 2893 2598 
Q 2893 2925 2838 3193 
Q 2784 3462 2669 3660 
Q 2554 3859 2368 3968 
Q 2182 4077 1920 4077 
Q 1658 4077 1472 3968 
Q 1286 3859 1171 3660 
Q 1056 3462 1001 3193 
Q 947 2925 947 2598 
L 947 1869 
Q 947 1542 1001 1273 
Q 1056 1005 1171 806 
Q 1286 608 1472 499 
Q 1658 390 1920 390 
z
" transform="scale(0.015625)"/>
       </defs>
       <use xlink:href="#IBMPlexSans-Regular-30"/>
      </g>
     </g>
    </g>
    <g id="xtick_2">
     <g id="line2d_2">
      <path d="M 116.214341 192.009865 
L 116.214341 28.442513 
" clip-path="url(#pf51a02093d)" style="fill: none; stroke-dasharray: 1.48,0.64; stroke-dashoffset: 0; stroke: #838383; stroke-opacity: 0.25; stroke-width: 0.4"/>
     </g>
     <g id="text_2">
      <!-- 5 -->
      <g style="fill: #838383" transform="translate(112.614341 204.389865) scale(0.12 -0.12)">
       <defs>
        <path id="IBMPlexSans-Regular-35" d="M 3187 3994 
L 1229 3994 
L 1101 2291 
L 1146 2291 
Q 1306 2515 1507 2649 
Q 1709 2784 2061 2784 
Q 2349 2784 2592 2688 
Q 2835 2592 3014 2416 
Q 3194 2240 3293 1984 
Q 3392 1728 3392 1402 
Q 3392 1075 3289 803 
Q 3187 531 2992 336 
Q 2797 141 2518 32 
Q 2240 -77 1888 -77 
Q 1606 -77 1392 -13 
Q 1178 51 1011 160 
Q 845 269 720 403 
Q 595 538 493 685 
L 896 992 
Q 979 858 1072 749 
Q 1165 640 1277 563 
Q 1389 486 1536 444 
Q 1683 403 1888 403 
Q 2349 403 2585 646 
Q 2822 890 2822 1331 
L 2822 1395 
Q 2822 1837 2585 2080 
Q 2349 2323 1888 2323 
Q 1581 2323 1405 2211 
Q 1229 2099 1088 1946 
L 634 2010 
L 794 4467 
L 3187 4467 
L 3187 3994 
z
" transform="scale(0.015625)"/>
       </defs>
       <use xlink:href="#IBMPlexSans-Regular-35"/>
      </g>
     </g>
    </g>
    <g id="xtick_3">
     <g id="line2d_3">
      <path d="M 179.940679 192.009865 
L 179.940679 28.442513 
" clip-path="url(#pf51a02093d)" style="fill: none; stroke-dasharray: 1.48,0.64; stroke-dashoffset: 0; stroke: #838383; stroke-opacity: 0.25; stroke-width: 0.4"/>
     </g>
     <g id="text_3">
      <!-- 10 -->
      <g style="fill: #838383" transform="translate(172.740679 204.389865) scale(0.12 -0.12)">
       <defs>
        <path id="IBMPlexSans-Regular-31" d="M 563 0 
L 563 474 
L 1811 474 
L 1811 4070 
L 1766 4070 
L 640 3021 
L 326 3360 
L 1510 4467 
L 2349 4467 
L 2349 474 
L 3501 474 
L 3501 0 
L 563 0 
z
" transform="scale(0.015625)"/>
       </defs>
       <use xlink:href="#IBMPlexSans-Regular-31"/>
       <use xlink:href="#IBMPlexSans-Regular-30" transform="translate(59.999985 0)"/>
      </g>
     </g>
    </g>
    <g id="xtick_4">
     <g id="line2d_4">
      <path d="M 243.667016 192.009865 
L 243.667016 28.442513 
" clip-path="url(#pf51a02093d)" style="fill: none; stroke-dasharray: 1.48,0.64; stroke-dashoffset: 0; stroke: #838383; stroke-opacity: 0.25; stroke-width: 0.4"/>
     </g>
     <g id="text_4">
      <!-- 15 -->
      <g style="fill: #838383" transform="translate(236.467016 204.389865) scale(0.12 -0.12)">
       <use xlink:href="#IBMPlexSans-Regular-31"/>
       <use xlink:href="#IBMPlexSans-Regular-35" transform="translate(59.999985 0)"/>
      </g>
     </g>
    </g>
    <g id="text_5">
     <!-- draw -->
     <g style="fill: #838383" transform="translate(160.07367 219.669865) scale(0.12 -0.12)">
      <defs>
       <path id="IBMPlexSans-Regular-64" d="M 2656 538 
L 2630 538 
Q 2330 -77 1664 -77 
Q 1357 -77 1107 44 
Q 858 166 682 390 
Q 506 614 413 934 
Q 320 1254 320 1651 
Q 320 2048 413 2368 
Q 506 2688 682 2912 
Q 858 3136 1107 3257 
Q 1357 3379 1664 3379 
Q 2010 3379 2256 3228 
Q 2502 3078 2630 2765 
L 2656 2765 
L 2656 4736 
L 3168 4736 
L 3168 0 
L 2656 0 
L 2656 538 
z
M 1805 384 
Q 1978 384 2134 429 
Q 2291 474 2406 560 
Q 2522 646 2589 771 
Q 2656 896 2656 1056 
L 2656 2285 
Q 2656 2419 2589 2537 
Q 2522 2656 2406 2739 
Q 2291 2822 2134 2870 
Q 1978 2918 1805 2918 
Q 1370 2918 1120 2646 
Q 870 2374 870 1933 
L 870 1370 
Q 870 928 1120 656 
Q 1370 384 1805 384 
z
" transform="scale(0.015625)"/>
       <path id="IBMPlexSans-Regular-72" d="M 544 0 
L 544 3302 
L 1056 3302 
L 1056 2694 
L 1088 2694 
Q 1178 2931 1408 3116 
Q 1638 3302 2042 3302 
L 2240 3302 
L 2240 2790 
L 1939 2790 
Q 1523 2790 1289 2633 
Q 1056 2477 1056 2240 
L 1056 0 
L 544 0 
z
" transform="scale(0.015625)"/>
       <path id="IBMPlexSans-Regular-61" d="M 2944 0 
Q 2656 0 2531 153 
Q 2406 307 2374 538 
L 2342 538 
Q 2234 230 1984 76 
Q 1734 -77 1389 -77 
Q 864 -77 573 192 
Q 282 461 282 922 
Q 282 1389 624 1638 
Q 966 1888 1690 1888 
L 2342 1888 
L 2342 2214 
Q 2342 2566 2150 2752 
Q 1958 2938 1562 2938 
Q 1261 2938 1059 2803 
Q 858 2669 723 2445 
L 416 2733 
Q 550 3002 844 3190 
Q 1139 3379 1587 3379 
Q 2189 3379 2521 3084 
Q 2854 2790 2854 2266 
L 2854 448 
L 3232 448 
L 3232 0 
L 2944 0 
z
M 1472 358 
Q 1664 358 1824 403 
Q 1984 448 2099 531 
Q 2214 614 2278 723 
Q 2342 832 2342 960 
L 2342 1504 
L 1664 1504 
Q 1222 1504 1020 1376 
Q 819 1248 819 1005 
L 819 870 
Q 819 627 995 492 
Q 1171 358 1472 358 
z
" transform="scale(0.015625)"/>
       <path id="IBMPlexSans-Regular-77" d="M 198 3302 
L 698 3302 
L 1050 1875 
L 1402 429 
L 1414 429 
L 1818 1875 
L 2234 3302 
L 2688 3302 
L 3117 1875 
L 3526 429 
L 3539 429 
L 3878 1875 
L 4237 3302 
L 4717 3302 
L 3840 0 
L 3206 0 
L 2746 1587 
L 2458 2592 
L 2445 2592 
L 2163 1587 
L 1702 0 
L 1082 0 
L 198 3302 
z
" transform="scale(0.015625)"/>
      </defs>
      <use xlink:href="#IBMPlexSans-Regular-64"/>
      <use xlink:href="#IBMPlexSans-Regular-72" transform="translate(57.999985 0)"/>
      <use xlink:href="#IBMPlexSans-Regular-61" transform="translate(94.699982 0)"/>
      <use xlink:href="#IBMPlexSans-Regular-77" transform="translate(148.099976 0)"/>
     </g>
    </g>
   </g>
   <g id="matplotlib.axis_2">
    <g id="ytick_1">
     <g id="line2d_5">
      <path d="M 40.38 184.76712 
L 306.75609 184.76712 
" clip-path="url(#pf51a02093d)" style="fill: none; stroke-dasharray: 1.48,0.64; stroke-dashoffset: 0; stroke: #838383; stroke-opacity: 0.25; stroke-width: 0.4"/>
     </g>
     <g id="text_6">
      <!-- −6 -->
      <g style="fill: #838383" transform="translate(22.48 189.20712) scale(0.12 -0.12)">
       <defs>
        <path id="IBMPlexSans-Regular-2212" d="M 429 1734 
L 429 2170 
L 3411 2170 
L 3411 1734 
L 429 1734 
z
" transform="scale(0.015625)"/>
        <path id="IBMPlexSans-Regular-36" d="M 1926 -77 
Q 1581 -77 1302 41 
Q 1024 160 829 381 
Q 634 602 531 922 
Q 429 1242 429 1638 
Q 429 2138 576 2576 
Q 723 3014 956 3376 
Q 1190 3738 1472 4016 
Q 1754 4294 2022 4467 
L 2714 4467 
Q 2355 4205 2073 3955 
Q 1792 3706 1581 3434 
Q 1370 3162 1222 2851 
Q 1075 2541 986 2150 
L 1018 2138 
Q 1178 2413 1430 2595 
Q 1683 2778 2093 2778 
Q 2381 2778 2624 2682 
Q 2867 2586 3040 2406 
Q 3213 2227 3312 1971 
Q 3411 1715 3411 1402 
Q 3411 1075 3305 803 
Q 3200 531 3005 336 
Q 2810 141 2534 32 
Q 2259 -77 1926 -77 
z
M 1920 390 
Q 2362 390 2608 633 
Q 2854 877 2854 1331 
L 2854 1382 
Q 2854 1837 2608 2080 
Q 2362 2323 1920 2323 
Q 1478 2323 1232 2080 
Q 986 1837 986 1382 
L 986 1331 
Q 986 877 1232 633 
Q 1478 390 1920 390 
z
" transform="scale(0.015625)"/>
       </defs>
       <use xlink:href="#IBMPlexSans-Regular-2212"/>
       <use xlink:href="#IBMPlexSans-Regular-36" transform="translate(59.999985 0)"/>
      </g>
     </g>
    </g>
    <g id="ytick_2">
     <g id="line2d_6">
      <path d="M 40.38 152.394152 
L 306.75609 152.394152 
" clip-path="url(#pf51a02093d)" style="fill: none; stroke-dasharray: 1.48,0.64; stroke-dashoffset: 0; stroke: #838383; stroke-opacity: 0.25; stroke-width: 0.4"/>
     </g>
     <g id="text_7">
      <!-- −4 -->
      <g style="fill: #838383" transform="translate(22.48 156.834152) scale(0.12 -0.12)">
       <defs>
        <path id="IBMPlexSans-Regular-34" d="M 2400 0 
L 2400 877 
L 243 877 
L 243 1350 
L 2112 4467 
L 2912 4467 
L 2912 1325 
L 3558 1325 
L 3558 877 
L 2912 877 
L 2912 0 
L 2400 0 
z
M 749 1325 
L 2400 1325 
L 2400 4051 
L 2368 4051 
L 749 1325 
z
" transform="scale(0.015625)"/>
       </defs>
       <use xlink:href="#IBMPlexSans-Regular-2212"/>
       <use xlink:href="#IBMPlexSans-Regular-34" transform="translate(59.999985 0)"/>
      </g>
     </g>
    </g>
    <g id="ytick_3">
     <g id="line2d_7">
      <path d="M 40.38 120.021184 
L 306.75609 120.021184 
" clip-path="url(#pf51a02093d)" style="fill: none; stroke-dasharray: 1.48,0.64; stroke-dashoffset: 0; stroke: #838383; stroke-opacity: 0.25; stroke-width: 0.4"/>
     </g>
     <g id="text_8">
      <!-- −2 -->
      <g style="fill: #838383" transform="translate(22.48 124.461184) scale(0.12 -0.12)">
       <defs>
        <path id="IBMPlexSans-Regular-32" d="M 3411 0 
L 480 0 
L 480 550 
L 1939 1894 
Q 2253 2182 2464 2505 
Q 2675 2829 2675 3155 
L 2675 3232 
Q 2675 3603 2470 3833 
Q 2266 4064 1850 4064 
Q 1645 4064 1491 4006 
Q 1338 3949 1226 3846 
Q 1114 3744 1040 3606 
Q 966 3469 922 3309 
L 442 3494 
Q 506 3693 618 3881 
Q 730 4070 899 4217 
Q 1069 4365 1309 4454 
Q 1549 4544 1875 4544 
Q 2202 4544 2458 4448 
Q 2714 4352 2886 4179 
Q 3059 4006 3152 3769 
Q 3245 3533 3245 3245 
Q 3245 2982 3171 2758 
Q 3098 2534 2970 2332 
Q 2842 2131 2659 1939 
Q 2477 1747 2266 1555 
L 1062 474 
L 3411 474 
L 3411 0 
z
" transform="scale(0.015625)"/>
       </defs>
       <use xlink:href="#IBMPlexSans-Regular-2212"/>
       <use xlink:href="#IBMPlexSans-Regular-32" transform="translate(59.999985 0)"/>
      </g>
     </g>
    </g>
    <g id="ytick_4">
     <g id="line2d_8">
      <path d="M 40.38 87.648216 
L 306.75609 87.648216 
" clip-path="url(#pf51a02093d)" style="fill: none; stroke-dasharray: 1.48,0.64; stroke-dashoffset: 0; stroke: #838383; stroke-opacity: 0.25; stroke-width: 0.4"/>
     </g>
     <g id="text_9">
      <!-- 0 -->
      <g style="fill: #838383" transform="translate(29.68 92.088216) scale(0.12 -0.12)">
       <use xlink:href="#IBMPlexSans-Regular-30"/>
      </g>
     </g>
    </g>
    <g id="ytick_5">
     <g id="line2d_9">
      <path d="M 40.38 55.275248 
L 306.75609 55.275248 
" clip-path="url(#pf51a02093d)" style="fill: none; stroke-dasharray: 1.48,0.64; stroke-dashoffset: 0; stroke: #838383; stroke-opacity: 0.25; stroke-width: 0.4"/>
     </g>
     <g id="text_10">
      <!-- 2 -->
      <g style="fill: #838383" transform="translate(29.68 59.715248) scale(0.12 -0.12)">
       <use xlink:href="#IBMPlexSans-Regular-32"/>
      </g>
     </g>
    </g>
    <g id="text_11">
     <!-- sld -->
     <g style="fill: #838383" transform="translate(16.08 118.260564) rotate(-90) scale(0.12 -0.12)">
      <defs>
       <path id="IBMPlexSans-Regular-73" d="M 1536 -77 
Q 1075 -77 764 99 
Q 454 275 230 570 
L 595 864 
Q 787 621 1024 489 
Q 1261 358 1574 358 
Q 1901 358 2083 499 
Q 2266 640 2266 896 
Q 2266 1088 2141 1225 
Q 2016 1363 1690 1414 
L 1427 1453 
Q 1197 1485 1005 1552 
Q 813 1619 669 1731 
Q 525 1843 445 2009 
Q 365 2176 365 2406 
Q 365 2650 454 2832 
Q 544 3014 701 3136 
Q 858 3258 1075 3318 
Q 1293 3379 1542 3379 
Q 1946 3379 2218 3238 
Q 2490 3098 2694 2848 
L 2355 2541 
Q 2246 2694 2035 2819 
Q 1824 2944 1504 2944 
Q 1184 2944 1021 2806 
Q 858 2669 858 2432 
Q 858 2189 1021 2080 
Q 1184 1971 1491 1920 
L 1747 1882 
Q 2298 1798 2528 1564 
Q 2758 1331 2758 954 
Q 2758 474 2432 198 
Q 2106 -77 1536 -77 
z
" transform="scale(0.015625)"/>
       <path id="IBMPlexSans-Regular-6c" d="M 1088 0 
Q 819 0 681 150 
Q 544 301 544 531 
L 544 4736 
L 1056 4736 
L 1056 448 
L 1542 448 
L 1542 0 
L 1088 0 
z
" transform="scale(0.015625)"/>
      </defs>
      <use xlink:href="#IBMPlexSans-Regular-73"/>
      <use xlink:href="#IBMPlexSans-Regular-6c" transform="translate(48.699997 0)"/>
      <use xlink:href="#IBMPlexSans-Regular-64" transform="translate(75.899994 0)"/>
     </g>
    </g>
   </g>
   <g id="line2d_10">
    <path d="M 52.488004 87.648216 
L 65.233272 87.648216 
L 77.978539 87.648216 
L 90.723806 87.648216 
L 103.469074 87.648216 
L 116.214341 87.648216 
L 128.959609 87.648216 
L 141.704876 87.648216 
L 154.450144 87.648216 
L 167.195411 87.648216 
L 179.940679 87.648216 
L 192.685946 87.648216 
L 205.431213 87.648216 
L 218.176481 87.648216 
L 230.921748 87.648216 
L 243.667016 87.648216 
L 256.412283 87.648216 
L 269.157551 87.648216 
L 281.902818 87.648216 
L 294.648086 87.648216 
" clip-path="url(#pf51a02093d)" style="fill: none"/>
   </g>
   <g id="line2d_11">
    <path d="M 52.488004 87.648216 
L 65.233272 87.648216 
L 77.978539 87.648216 
L 90.723806 87.648216 
L 103.469074 87.648216 
L 116.214341 87.648216 
L 128.959609 87.648216 
L 141.704876 87.648216 
L 154.450144 87.648216 
L 167.195411 87.648216 
L 179.940679 87.648216 
L 192.685946 87.648216 
L 205.431213 87.648216 
L 218.176481 87.648216 
L 230.921748 87.648216 
L 243.667016 87.648216 
L 256.412283 87.648216 
L 269.157551 87.648216 
L 281.902818 87.648216 
L 294.648086 87.648216 
" clip-path="url(#pf51a02093d)" style="fill: none"/>
   </g>
   <g id="line2d_12">
    <path d="M 52.488004 87.648216 
L 65.233272 87.648216 
L 77.978539 87.648216 
L 90.723806 87.648216 
L 103.469074 87.648216 
L 116.214341 87.648216 
L 128.959609 87.648216 
L 141.704876 87.648216 
L 154.450144 87.648216 
L 167.195411 87.648216 
L 179.940679 87.648216 
L 192.685946 87.648216 
L 205.431213 87.648216 
L 218.176481 87.648216 
L 230.921748 87.648216 
L 243.667016 87.648216 
L 256.412283 87.648216 
L 269.157551 87.648216 
L 281.902818 87.648216 
L 294.648086 87.648216 
" clip-path="url(#pf51a02093d)" style="fill: none"/>
   </g>
   <g id="line2d_13">
    <path d="M 52.488004 87.648216 
L 65.233272 87.648216 
L 77.978539 87.648216 
L 90.723806 87.648216 
L 103.469074 87.648216 
L 116.214341 87.648216 
L 128.959609 87.648216 
L 141.704876 87.648216 
L 154.450144 87.648216 
L 167.195411 87.648216 
L 179.940679 87.648216 
L 192.685946 87.648216 
L 205.431213 87.648216 
L 218.176481 87.648216 
L 230.921748 87.648216 
L 243.667016 87.648216 
L 256.412283 87.648216 
L 269.157551 87.648216 
L 281.902818 87.648216 
L 294.648086 87.648216 
" clip-path="url(#pf51a02093d)" style="fill: none"/>
   </g>
   <g id="line2d_14">
    <path d="M 52.488004 87.648216 
L 65.233272 87.648216 
L 77.978539 87.648216 
L 90.723806 87.648216 
L 103.469074 87.648216 
L 116.214341 87.648216 
L 128.959609 87.648216 
L 141.704876 87.648216 
L 154.450144 87.648216 
L 167.195411 87.648216 
L 179.940679 87.648216 
L 192.685946 87.648216 
L 205.431213 87.648216 
L 218.176481 87.648216 
L 230.921748 87.648216 
L 243.667016 87.648216 
L 256.412283 87.648216 
L 269.157551 87.648216 
L 281.902818 87.648216 
L 294.648086 87.648216 
" clip-path="url(#pf51a02093d)" style="fill: none"/>
   </g>
   <g id="line2d_15">
    <path d="M 52.488004 87.648216 
L 65.233272 87.648216 
L 77.978539 87.648216 
L 90.723806 87.648216 
L 103.469074 87.648216 
L 116.214341 87.648216 
L 128.959609 87.648216 
L 141.704876 87.648216 
L 154.450144 87.648216 
L 167.195411 87.648216 
L 179.940679 87.648216 
L 192.685946 87.648216 
L 205.431213 87.648216 
L 218.176481 87.648216 
L 230.921748 87.648216 
L 243.667016 87.648216 
L 256.412283 87.648216 
L 269.157551 87.648216 
L 281.902818 87.648216 
L 294.648086 87.648216 
" clip-path="url(#pf51a02093d)" style="fill: none"/>
   </g>
   <g id="line2d_16">
    <path d="M 52.488004 87.648216 
L 65.233272 87.648216 
L 77.978539 87.648216 
L 90.723806 87.648216 
L 103.469074 87.648216 
L 116.214341 87.648216 
L 128.959609 87.648216 
L 141.704876 87.648216 
L 154.450144 87.648216 
L 167.195411 87.648216 
L 179.940679 87.648216 
L 192.685946 87.648216 
L 205.431213 87.648216 
L 218.176481 87.648216 
L 230.921748 87.648216 
L 243.667016 87.648216 
L 256.412283 87.648216 
L 269.157551 87.648216 
L 281.902818 87.648216 
L 294.648086 87.648216 
" clip-path="url(#pf51a02093d)" style="fill: none"/>
   </g>
   <g id="line2d_17">
    <path d="M 52.488004 87.648216 
L 65.233272 87.648216 
L 77.978539 87.648216 
L 90.723806 87.648216 
L 103.469074 87.648216 
L 116.214341 87.648216 
L 128.959609 87.648216 
L 141.704876 87.648216 
L 154.450144 87.648216 
L 167.195411 87.648216 
L 179.940679 87.648216 
L 192.685946 87.648216 
L 205.431213 87.648216 
L 218.176481 87.648216 
L 230.921748 87.648216 
L 243.667016 87.648216 
L 256.412283 87.648216 
L 269.157551 87.648216 
L 281.902818 87.648216 
L 294.648086 87.648216 
" clip-path="url(#pf51a02093d)" style="fill: none"/>
   </g>
   <g id="line2d_18">
    <path d="M 52.488004 87.648216 
L 65.233272 87.648216 
L 77.978539 87.648216 
L 90.723806 87.648216 
L 103.469074 87.648216 
L 116.214341 87.648216 
L 128.959609 87.648216 
L 141.704876 87.648216 
L 154.450144 87.648216 
L 167.195411 87.648216 
L 179.940679 87.648216 
L 192.685946 87.648216 
L 205.431213 87.648216 
L 218.176481 87.648216 
L 230.921748 87.648216 
L 243.667016 87.648216 
L 256.412283 87.648216 
L 269.157551 87.648216 
L 281.902818 87.648216 
L 294.648086 87.648216 
" clip-path="url(#pf51a02093d)" style="fill: none; stroke: #440154; stroke-width: 1.5; stroke-linecap: round"/>
   </g>
   <g id="line2d_19">
    <path d="M 52.488004 90.500277 
L 65.233272 85.981872 
L 77.978539 88.401084 
L 90.723806 89.384377 
L 103.469074 88.094152 
L 116.214341 86.073059 
L 128.959609 84.610872 
L 141.704876 99.788428 
L 154.450144 101.213069 
L 167.195411 95.855869 
L 179.940679 91.133165 
L 192.685946 90.610309 
L 205.431213 91.751761 
L 218.176481 96.851054 
L 230.921748 99.405705 
L 243.667016 97.381995 
L 256.412283 96.142533 
L 269.157551 95.833432 
L 281.902818 95.708826 
L 294.648086 101.380181 
" clip-path="url(#pf51a02093d)" style="fill: none"/>
   </g>
   <g id="line2d_20">
    <path d="M 52.488004 84.124098 
L 65.233272 90.363667 
L 77.978539 89.961494 
L 90.723806 91.287743 
L 103.469074 89.005331 
L 116.214341 86.932346 
L 128.959609 88.87621 
L 141.704876 86.629951 
L 154.450144 92.832569 
L 167.195411 92.650062 
L 179.940679 88.542816 
L 192.685946 89.172566 
L 205.431213 90.172959 
L 218.176481 90.79742 
L 230.921748 89.517034 
L 243.667016 89.653553 
L 256.412283 96.08028 
L 269.157551 98.668899 
L 281.902818 102.688133 
L 294.648086 106.502975 
" clip-path="url(#pf51a02093d)" style="fill: none"/>
   </g>
   <g id="line2d_21">
    <path d="M 52.488004 87.020228 
L 65.233272 84.499725 
L 77.978539 84.741371 
L 90.723806 86.634212 
L 103.469074 87.040582 
L 116.214341 83.065072 
L 128.959609 80.749395 
L 141.704876 76.903002 
L 154.450144 77.774472 
L 167.195411 75.732686 
L 179.940679 77.323234 
L 192.685946 80.675016 
L 205.431213 77.299125 
L 218.176481 78.33683 
L 230.921748 81.375332 
L 243.667016 75.895187 
L 256.412283 81.796239 
L 269.157551 87.654694 
L 281.902818 92.183808 
L 294.648086 98.420697 
" clip-path="url(#pf51a02093d)" style="fill: none"/>
   </g>
   <g id="line2d_22">
    <path d="M 52.488004 88.134252 
L 65.233272 88.834918 
L 77.978539 91.473933 
L 90.723806 92.185371 
L 103.469074 93.729263 
L 116.214341 89.573389 
L 128.959609 88.375538 
L 141.704876 90.434825 
L 154.450144 91.150509 
L 167.195411 89.775501 
L 179.940679 91.94912 
L 192.685946 86.002592 
L 205.431213 87.892062 
L 218.176481 87.568984 
L 230.921748 89.920278 
L 243.667016 95.784383 
L 256.412283 97.511087 
L 269.157551 102.938772 
L 281.902818 104.241812 
L 294.648086 110.057354 
" clip-path="url(#pf51a02093d)" style="fill: none"/>
   </g>
   <g id="line2d_23">
    <path d="M 52.488004 82.8431 
L 65.233272 91.051477 
L 77.978539 85.489887 
L 90.723806 83.189206 
L 103.469074 86.185714 
L 116.214341 86.717632 
L 128.959609 89.511465 
L 141.704876 88.135094 
L 154.450144 86.308241 
L 167.195411 87.526343 
L 179.940679 88.966774 
L 192.685946 90.560272 
L 205.431213 92.371085 
L 218.176481 92.685662 
L 230.921748 94.702195 
L 243.667016 98.170875 
L 256.412283 99.421681 
L 269.157551 102.3938 
L 281.902818 103.845878 
L 294.648086 111.806834 
" clip-path="url(#pf51a02093d)" style="fill: none"/>
   </g>
   <g id="line2d_24">
    <path d="M 52.488004 86.005987 
L 65.233272 86.011041 
L 77.978539 86.772929 
L 90.723806 88.389733 
L 103.469074 87.461416 
L 116.214341 81.9847 
L 128.959609 85.677984 
L 141.704876 89.30447 
L 154.450144 81.712536 
L 167.195411 76.422179 
L 179.940679 75.198468 
L 192.685946 75.877318 
L 205.431213 78.565256 
L 218.176481 80.208308 
L 230.921748 84.173057 
L 243.667016 83.674791 
L 256.412283 83.963709 
L 269.157551 86.750482 
L 281.902818 88.651175 
L 294.648086 95.392445 
" clip-path="url(#pf51a02093d)" style="fill: none"/>
   </g>
   <g id="line2d_25">
    <path d="M 52.488004 82.245788 
L 65.233272 85.24151 
L 77.978539 85.863217 
L 90.723806 87.636261 
L 103.469074 86.184057 
L 116.214341 85.682924 
L 128.959609 86.094735 
L 141.704876 83.552745 
L 154.450144 81.657722 
L 167.195411 78.519586 
L 179.940679 76.395687 
L 192.685946 78.171365 
L 205.431213 78.891588 
L 218.176481 79.45549 
L 230.921748 81.209171 
L 243.667016 84.637868 
L 256.412283 87.016666 
L 269.157551 89.804785 
L 281.902818 91.8246 
L 294.648086 95.593306 
" clip-path="url(#pf51a02093d)" style="fill: none"/>
   </g>
   <g id="line2d_26">
    <path d="M 52.488004 96.0021 
L 65.233272 89.646859 
L 77.978539 88.856843 
L 90.723806 88.330154 
L 103.469074 88.215579 
L 116.214341 90.420714 
L 128.959609 85.23965 
L 141.704876 79.663125 
L 154.450144 76.038091 
L 167.195411 77.404424 
L 179.940679 78.775334 
L 192.685946 80.199351 
L 205.431213 79.473818 
L 218.176481 79.82047 
L 230.921748 83.873023 
L 243.667016 89.209858 
L 256.412283 91.635646 
L 269.157551 93.902535 
L 281.902818 100.545509 
L 294.648086 103.343252 
" clip-path="url(#pf51a02093d)" style="fill: none"/>
   </g>
   <g id="line2d_27">
    <path d="M 52.488004 87.109479 
L 65.233272 87.703884 
L 77.978539 87.695095 
L 90.723806 88.379632 
L 103.469074 88.239512 
L 116.214341 86.30623 
L 128.959609 86.141981 
L 141.704876 86.801455 
L 154.450144 86.085901 
L 167.195411 84.235831 
L 179.940679 83.535575 
L 192.685946 83.908599 
L 205.431213 84.552207 
L 218.176481 85.715527 
L 230.921748 88.021974 
L 243.667016 89.301064 
L 256.412283 91.69598 
L 269.157551 94.743425 
L 281.902818 97.461217 
L 294.648086 102.812131 
" clip-path="url(#pf51a02093d)" style="fill: none; stroke: #472d7b; stroke-width: 1.5; stroke-linecap: round"/>
   </g>
   <g id="line2d_28">
    <path d="M 52.488004 92.815056 
L 65.233272 84.513059 
L 77.978539 88.730873 
L 90.723806 90.842198 
L 103.469074 88.64628 
L 116.214341 84.198015 
L 128.959609 81.410041 
L 141.704876 111.843107 
L 154.450144 114.739934 
L 167.195411 103.686868 
L 179.940679 94.303768 
L 192.685946 93.6302 
L 205.431213 95.996474 
L 218.176481 106.469647 
L 230.921748 112.731653 
L 243.667016 107.218256 
L 256.412283 105.133223 
L 269.157551 103.623464 
L 281.902818 103.916325 
L 294.648086 115.440686 
" clip-path="url(#pf51a02093d)" style="fill: none"/>
   </g>
   <g id="line2d_29">
    <path d="M 52.488004 80.135658 
L 65.233272 93.145682 
L 77.978539 92.482404 
L 90.723806 94.33434 
L 103.469074 90.585926 
L 116.214341 86.38185 
L 128.959609 90.056444 
L 141.704876 85.743166 
L 154.450144 98.437153 
L 167.195411 97.369534 
L 179.940679 89.244608 
L 192.685946 90.604746 
L 205.431213 93.017377 
L 218.176481 94.09312 
L 230.921748 91.580687 
L 243.667016 91.73351 
L 256.412283 104.230598 
L 269.157551 109.855296 
L 281.902818 118.435898 
L 294.648086 125.581237 
" clip-path="url(#pf51a02093d)" style="fill: none"/>
   </g>
   <g id="line2d_30">
    <path d="M 52.488004 86.629931 
L 65.233272 81.505521 
L 77.978539 82.422775 
L 90.723806 85.448085 
L 103.469074 86.82783 
L 116.214341 78.530973 
L 128.959609 73.557107 
L 141.704876 66.052615 
L 154.450144 68.442258 
L 167.195411 63.776004 
L 179.940679 67.281251 
L 192.685946 73.760693 
L 205.431213 66.396298 
L 218.176481 68.839358 
L 230.921748 74.888772 
L 243.667016 64.030688 
L 256.412283 76.093939 
L 269.157551 87.381696 
L 281.902818 96.445687 
L 294.648086 109.34009 
" clip-path="url(#pf51a02093d)" style="fill: none"/>
   </g>
   <g id="line2d_31">
    <path d="M 52.488004 88.786224 
L 65.233272 89.89258 
L 77.978539 95.337608 
L 90.723806 96.849187 
L 103.469074 99.868143 
L 116.214341 91.572887 
L 128.959609 89.286543 
L 141.704876 93.55822 
L 154.450144 94.756961 
L 167.195411 91.843169 
L 179.940679 96.307705 
L 192.685946 84.717722 
L 205.431213 88.501144 
L 218.176481 87.796862 
L 230.921748 91.942285 
L 243.667016 104.401348 
L 256.412283 107.363428 
L 269.157551 118.579221 
L 281.902818 121.355088 
L 294.648086 132.191759 
" clip-path="url(#pf51a02093d)" style="fill: none"/>
   </g>
   <g id="line2d_32">
    <path d="M 52.488004 77.873298 
L 65.233272 94.239072 
L 77.978539 82.923537 
L 90.723806 78.040515 
L 103.469074 84.765022 
L 116.214341 85.56726 
L 128.959609 91.625871 
L 141.704876 88.446611 
L 154.450144 85.147081 
L 167.195411 87.845408 
L 179.940679 90.030513 
L 192.685946 93.904268 
L 205.431213 97.363032 
L 218.176481 97.398907 
L 230.921748 101.373942 
L 243.667016 109.06825 
L 256.412283 111.108617 
L 269.157551 117.542501 
L 281.902818 119.638339 
L 294.648086 135.960381 
" clip-path="url(#pf51a02093d)" style="fill: none"/>
   </g>
   <g id="line2d_33">
    <path d="M 52.488004 84.191469 
L 65.233272 84.350514 
L 77.978539 86.07319 
L 90.723806 88.810336 
L 103.469074 87.298169 
L 116.214341 76.320094 
L 128.959609 83.692843 
L 141.704876 91.023531 
L 154.450144 75.949364 
L 167.195411 65.110744 
L 179.940679 62.457462 
L 192.685946 63.947767 
L 205.431213 69.103348 
L 218.176481 72.539335 
L 230.921748 80.390197 
L 243.667016 79.708262 
L 256.412283 80.384815 
L 269.157551 85.997429 
L 281.902818 90.254989 
L 294.648086 103.007617 
" clip-path="url(#pf51a02093d)" style="fill: none"/>
   </g>
   <g id="line2d_34">
    <path d="M 52.488004 77.034635 
L 65.233272 82.500125 
L 77.978539 83.705363 
L 90.723806 87.800072 
L 103.469074 85.181881 
L 116.214341 83.754801 
L 128.959609 84.423224 
L 141.704876 79.686154 
L 154.450144 75.395433 
L 167.195411 69.491224 
L 179.940679 65.054293 
L 192.685946 68.46202 
L 205.431213 69.745465 
L 218.176481 71.475445 
L 230.921748 74.845363 
L 243.667016 81.611418 
L 256.412283 86.094324 
L 269.157551 91.736861 
L 281.902818 96.166434 
L 294.648086 103.982748 
" clip-path="url(#pf51a02093d)" style="fill: none"/>
   </g>
   <g id="line2d_35">
    <path d="M 52.488004 103.720889 
L 65.233272 92.10904 
L 77.978539 90.350357 
L 90.723806 89.267001 
L 103.469074 88.591063 
L 116.214341 93.026613 
L 128.959609 82.629082 
L 141.704876 71.194253 
L 154.450144 64.75496 
L 167.195411 66.716192 
L 179.940679 69.575126 
L 192.685946 72.311055 
L 205.431213 71.182135 
L 218.176481 71.575133 
L 230.921748 80.26469 
L 243.667016 90.631996 
L 256.412283 95.506643 
L 269.157551 100.506324 
L 281.902818 113.744574 
L 294.648086 119.503691 
" clip-path="url(#pf51a02093d)" style="fill: none"/>
   </g>
   <g id="line2d_36">
    <path d="M 52.488004 86.398395 
L 65.233272 87.781949 
L 77.978539 87.753263 
L 90.723806 88.923967 
L 103.469074 88.970539 
L 116.214341 84.919062 
L 128.959609 84.585144 
L 141.704876 85.943457 
L 154.450144 84.702893 
L 167.195411 80.729893 
L 179.940679 79.281841 
L 192.685946 80.167309 
L 205.431213 81.413159 
L 218.176481 83.773476 
L 230.921748 88.502199 
L 243.667016 91.050466 
L 256.412283 95.739448 
L 269.157551 101.902849 
L 281.902818 107.494667 
L 294.648086 118.126026 
" clip-path="url(#pf51a02093d)" style="fill: none; stroke: #3b528b; stroke-width: 1.5; stroke-linecap: round"/>
   </g>
   <g id="line2d_37">
    <path d="M 52.488004 94.713233 
L 65.233272 83.441974 
L 77.978539 88.764714 
L 90.723806 92.156532 
L 103.469074 89.6739 
L 116.214341 81.874754 
L 128.959609 78.238791 
L 141.704876 124.027843 
L 154.450144 128.301045 
L 167.195411 110.974715 
L 179.940679 97.400642 
L 192.685946 96.801948 
L 205.431213 100.476315 
L 218.176481 116.455241 
L 230.921748 126.810473 
L 243.667016 116.93934 
L 256.412283 114.002541 
L 269.157551 111.617939 
L 281.902818 113.167119 
L 294.648086 129.683254 
" clip-path="url(#pf51a02093d)" style="fill: none"/>
   </g>
   <g id="line2d_38">
    <path d="M 52.488004 75.82883 
L 65.233272 96.086785 
L 77.978539 94.813308 
L 90.723806 97.160135 
L 103.469074 92.073873 
L 116.214341 85.95668 
L 128.959609 91.208096 
L 141.704876 84.796129 
L 154.450144 104.068767 
L 167.195411 102.087582 
L 179.940679 89.995591 
L 192.685946 92.130496 
L 205.431213 95.955851 
L 218.176481 97.551476 
L 230.921748 93.458213 
L 243.667016 94.118074 
L 256.412283 112.484555 
L 269.157551 121.246366 
L 281.902818 134.133715 
L 294.648086 144.596841 
" clip-path="url(#pf51a02093d)" style="fill: none"/>
   </g>
   <g id="line2d_39">
    <path d="M 52.488004 86.493242 
L 65.233272 78.493179 
L 77.978539 80.329035 
L 90.723806 84.176978 
L 103.469074 86.479069 
L 116.214341 74.190948 
L 128.959609 66.406381 
L 141.704876 55.094161 
L 154.450144 59.329352 
L 167.195411 51.143317 
L 179.940679 57.363202 
L 192.685946 67.093402 
L 205.431213 55.199989 
L 218.176481 59.582436 
L 230.921748 68.324843 
L 243.667016 52.266982 
L 256.412283 70.750727 
L 269.157551 87.473605 
L 281.902818 100.714692 
L 294.648086 120.067593 
" clip-path="url(#pf51a02093d)" style="fill: none"/>
   </g>
   <g id="line2d_40">
    <path d="M 52.488004 89.506398 
L 65.233272 91.281822 
L 77.978539 99.150768 
L 90.723806 101.677594 
L 103.469074 105.899039 
L 116.214341 93.409739 
L 128.959609 90.399432 
L 141.704876 96.85175 
L 154.450144 98.28908 
L 167.195411 93.929898 
L 179.940679 100.768067 
L 192.685946 83.638886 
L 205.431213 89.006462 
L 218.176481 88.41176 
L 230.921748 94.07631 
L 243.667016 113.185289 
L 256.412283 117.347161 
L 269.157551 134.286149 
L 281.902818 139.552875 
L 294.648086 154.517146 
" clip-path="url(#pf51a02093d)" style="fill: none"/>
   </g>
   <g id="line2d_41">
    <path d="M 52.488004 73.023539 
L 65.233272 97.246275 
L 77.978539 79.754076 
L 90.723806 72.389995 
L 103.469074 83.321375 
L 116.214341 84.445973 
L 128.959609 94.16347 
L 141.704876 88.608461 
L 154.450144 83.994609 
L 167.195411 88.493325 
L 179.940679 91.188387 
L 192.685946 97.726414 
L 205.431213 102.398208 
L 218.176481 101.746276 
L 230.921748 107.748689 
L 243.667016 119.690597 
L 256.412283 122.773103 
L 269.157551 132.67618 
L 281.902818 134.680879 
L 294.648086 160.407688 
" clip-path="url(#pf51a02093d)" style="fill: none"/>
   </g>
   <g id="line2d_42">
    <path d="M 52.488004 81.981161 
L 65.233272 82.715813 
L 77.978539 85.509708 
L 90.723806 89.000596 
L 103.469074 87.220934 
L 116.214341 70.819142 
L 128.959609 81.721276 
L 141.704876 92.582231 
L 154.450144 70.102958 
L 167.195411 53.358985 
L 179.940679 49.322216 
L 192.685946 52.141249 
L 205.431213 59.39198 
L 218.176481 64.516339 
L 230.921748 76.519072 
L 243.667016 75.476122 
L 256.412283 77.004588 
L 269.157551 85.630175 
L 281.902818 92.391309 
L 294.648086 110.569528 
" clip-path="url(#pf51a02093d)" style="fill: none"/>
   </g>
   <g id="line2d_43">
    <path d="M 52.488004 71.898141 
L 65.233272 79.754584 
L 77.978539 81.561583 
L 90.723806 87.927244 
L 103.469074 84.401185 
L 116.214341 81.705356 
L 128.959609 83.04503 
L 141.704876 76.149609 
L 154.450144 69.184306 
L 167.195411 60.72708 
L 179.940679 53.7769 
L 192.685946 58.66971 
L 205.431213 60.241824 
L 218.176481 64.301317 
L 230.921748 68.352626 
L 243.667016 78.818189 
L 256.412283 84.868372 
L 269.157551 93.582516 
L 281.902818 101.827831 
L 294.648086 113.112587 
" clip-path="url(#pf51a02093d)" style="fill: none"/>
   </g>
   <g id="line2d_44">
    <path d="M 52.488004 110.492075 
L 65.233272 94.749364 
L 77.978539 92.006788 
L 90.723806 90.129071 
L 103.469074 88.841235 
L 116.214341 95.207917 
L 128.959609 79.932363 
L 141.704876 62.681364 
L 154.450144 53.794704 
L 167.195411 55.491542 
L 179.940679 60.270819 
L 192.685946 64.320951 
L 205.431213 62.784599 
L 218.176481 63.386146 
L 230.921748 76.779216 
L 243.667016 92.055101 
L 256.412283 99.515516 
L 269.157551 107.56782 
L 281.902818 127.132285 
L 294.648086 136.055109 
" clip-path="url(#pf51a02093d)" style="fill: none"/>
   </g>
   <g id="line2d_45">
    <path d="M 52.488004 85.492077 
L 65.233272 87.971225 
L 77.978539 87.736248 
L 90.723806 89.327268 
L 103.469074 89.738826 
L 116.214341 83.451314 
L 128.959609 83.139355 
L 141.704876 85.098943 
L 154.450144 83.383103 
L 167.195411 77.025806 
L 179.940679 75.010728 
L 192.685946 76.565382 
L 205.431213 78.181903 
L 218.176481 81.993874 
L 230.921748 89.00868 
L 243.667016 92.818712 
L 256.412283 99.84332 
L 269.157551 109.260094 
L 281.902818 117.950088 
L 294.648086 133.626218 
" clip-path="url(#pf51a02093d)" style="fill: none; stroke: #2c728e; stroke-width: 1.5; stroke-linecap: round"/>
   </g>
   <g id="line2d_46">
    <path d="M 52.488004 96.453129 
L 65.233272 82.632584 
L 77.978539 88.616181 
L 90.723806 93.831084 
L 103.469074 91.367716 
L 116.214341 79.689349 
L 128.959609 75.210258 
L 141.704876 136.078214 
L 154.450144 142.266567 
L 167.195411 118.19662 
L 179.940679 100.450446 
L 192.685946 100.164879 
L 205.431213 105.054547 
L 218.176481 126.621587 
L 230.921748 140.868899 
L 243.667016 126.806717 
L 256.412283 122.62464 
L 269.157551 119.794237 
L 281.902818 123.723525 
L 294.648086 144.336734 
" clip-path="url(#pf51a02093d)" style="fill: none"/>
   </g>
   <g id="line2d_47">
    <path d="M 52.488004 71.267656 
L 65.233272 99.138806 
L 77.978539 96.700592 
L 90.723806 100.70696 
L 103.469074 93.550497 
L 116.214341 85.464999 
L 128.959609 92.314066 
L 141.704876 83.545077 
L 154.450144 109.570645 
L 167.195411 106.896045 
L 179.940679 90.901305 
L 192.685946 93.576007 
L 205.431213 98.658342 
L 218.176481 100.576642 
L 230.921748 95.299792 
L 243.667016 96.766446 
L 256.412283 121.048962 
L 269.157551 132.625941 
L 281.902818 150.165443 
L 294.648086 163.411514 
" clip-path="url(#pf51a02093d)" style="fill: none"/>
   </g>
   <g id="line2d_48">
    <path d="M 52.488004 86.971422 
L 65.233272 75.738601 
L 77.978539 77.777889 
L 90.723806 82.661654 
L 103.469074 86.103564 
L 116.214341 69.937207 
L 128.959609 58.926302 
L 141.704876 44.125345 
L 154.450144 50.28928 
L 167.195411 37.838244 
L 179.940679 47.148593 
L 192.685946 60.688201 
L 205.431213 43.653761 
L 218.176481 50.84568 
L 230.921748 61.593723 
L 243.667016 40.587512 
L 256.412283 65.64935 
L 269.157551 88.401934 
L 281.902818 104.858481 
L 294.648086 130.974027 
" clip-path="url(#pf51a02093d)" style="fill: none"/>
   </g>
   <g id="line2d_49">
    <path d="M 52.488004 89.888278 
L 65.233272 92.892685 
L 77.978539 102.831049 
L 90.723806 106.695323 
L 103.469074 111.900636 
L 116.214341 95.018974 
L 128.959609 91.472913 
L 141.704876 100.152051 
L 154.450144 101.859121 
L 167.195411 95.833267 
L 179.940679 105.312537 
L 192.685946 82.572418 
L 205.431213 89.598667 
L 218.176481 89.921584 
L 230.921748 96.871826 
L 243.667016 121.832077 
L 256.412283 127.210879 
L 269.157551 149.996444 
L 281.902818 158.711782 
L 294.648086 177.768994 
" clip-path="url(#pf51a02093d)" style="fill: none"/>
   </g>
   <g id="line2d_50">
    <path d="M 52.488004 68.545008 
L 65.233272 100.129408 
L 77.978539 76.30722 
L 90.723806 66.639046 
L 103.469074 81.686641 
L 116.214341 83.595555 
L 128.959609 97.103185 
L 141.704876 88.96239 
L 154.450144 83.316726 
L 167.195411 89.375248 
L 179.940679 92.577679 
L 192.685946 101.703075 
L 205.431213 107.391334 
L 218.176481 106.142505 
L 230.921748 114.314525 
L 243.667016 129.868139 
L 256.412283 134.675146 
L 269.157551 148.370558 
L 281.902818 149.232223 
L 294.648086 184.574985 
" clip-path="url(#pf51a02093d)" style="fill: none"/>
   </g>
   <g id="line2d_51">
    <path d="M 52.488004 79.553178 
L 65.233272 81.225129 
L 77.978539 85.077237 
L 90.723806 89.011305 
L 103.469074 86.954566 
L 116.214341 65.658462 
L 128.959609 79.447232 
L 141.704876 93.794898 
L 154.450144 63.956012 
L 167.195411 41.075025 
L 179.940679 35.877393 
L 192.685946 40.612583 
L 205.431213 49.784919 
L 218.176481 56.341705 
L 230.921748 72.63963 
L 243.667016 71.145691 
L 256.412283 72.967959 
L 269.157551 85.817153 
L 281.902818 94.985423 
L 294.648086 118.351867 
" clip-path="url(#pf51a02093d)" style="fill: none"/>
   </g>
   <g id="line2d_52">
    <path d="M 52.488004 66.676912 
L 65.233272 77.124824 
L 77.978539 79.476661 
L 90.723806 87.83598 
L 103.469074 83.963783 
L 116.214341 79.810759 
L 128.959609 81.993621 
L 141.704876 72.977095 
L 154.450144 63.449066 
L 167.195411 52.047253 
L 179.940679 42.533514 
L 192.685946 48.7576 
L 205.431213 50.505281 
L 218.176481 57.378324 
L 230.921748 61.393172 
L 243.667016 76.153812 
L 256.412283 83.705657 
L 269.157551 95.189975 
L 281.902818 107.621096 
L 294.648086 123.237969 
" clip-path="url(#pf51a02093d)" style="fill: none"/>
   </g>
   <g id="line2d_53">
    <path d="M 52.488004 116.899526 
L 65.233272 97.777958 
L 77.978539 93.874298 
L 90.723806 90.448995 
L 103.469074 88.792114 
L 116.214341 96.697184 
L 128.959609 77.498939 
L 141.704876 54.173997 
L 154.450144 42.724159 
L 167.195411 44.26708 
L 179.940679 51.120346 
L 192.685946 55.914304 
L 205.431213 54.016675 
L 218.176481 55.267532 
L 230.921748 73.637113 
L 243.667016 93.432318 
L 256.412283 103.382334 
L 269.157551 114.812208 
L 281.902818 140.744393 
L 294.648086 152.94654 
" clip-path="url(#pf51a02093d)" style="fill: none"/>
   </g>
   <g id="line2d_54">
    <path d="M 52.488004 84.531889 
L 65.233272 88.332499 
L 77.978539 87.582641 
L 90.723806 89.728793 
L 103.469074 90.53994 
L 116.214341 81.984061 
L 128.959609 81.745814 
L 141.704876 84.226133 
L 154.450144 82.178947 
L 167.195411 73.191098 
L 179.940679 70.740227 
L 192.685946 72.998633 
L 205.431213 74.832941 
L 218.176481 80.386945 
L 230.921748 89.577335 
L 243.667016 94.574089 
L 256.412283 103.908116 
L 269.157551 116.876056 
L 281.902818 128.755296 
L 294.648086 149.450329 
" clip-path="url(#pf51a02093d)" style="fill: none; stroke: #21918c; stroke-width: 1.5; stroke-linecap: round"/>
   </g>
   <g id="line2d_55">
    <path d="M 52.488004 95.101777 
L 65.233272 83.443985 
L 77.978539 88.892369 
L 90.723806 91.638252 
L 103.469074 89.531938 
L 116.214341 81.649769 
L 128.959609 78.00502 
L 141.704876 124.331108 
L 154.450144 128.18191 
L 167.195411 110.783167 
L 179.940679 96.925752 
L 192.685946 96.395951 
L 205.431213 100.568624 
L 218.176481 116.344538 
L 230.921748 127.105215 
L 243.667016 117.417353 
L 256.412283 114.03472 
L 269.157551 111.038199 
L 281.902818 112.70276 
L 294.648086 128.952092 
" clip-path="url(#pf51a02093d)" style="fill: none"/>
   </g>
   <g id="line2d_56">
    <path d="M 52.488004 76.108533 
L 65.233272 95.991039 
L 77.978539 94.798472 
L 90.723806 96.75557 
L 103.469074 91.866584 
L 116.214341 85.880691 
L 128.959609 91.44207 
L 141.704876 84.807852 
L 154.450144 104.145152 
L 167.195411 102.023138 
L 179.940679 90.114972 
L 192.685946 92.4955 
L 205.431213 96.145139 
L 218.176481 97.743598 
L 230.921748 92.882226 
L 243.667016 94.42779 
L 256.412283 112.90397 
L 269.157551 120.964882 
L 281.902818 133.81752 
L 294.648086 144.961211 
" clip-path="url(#pf51a02093d)" style="fill: none"/>
   </g>
   <g id="line2d_57">
    <path d="M 52.488004 86.064732 
L 65.233272 78.211425 
L 77.978539 80.297774 
L 90.723806 84.230953 
L 103.469074 86.16687 
L 116.214341 74.519845 
L 128.959609 66.610055 
L 141.704876 55.006878 
L 154.450144 59.47728 
L 167.195411 51.280525 
L 179.940679 57.16925 
L 192.685946 66.935028 
L 205.431213 55.110438 
L 218.176481 59.132759 
L 230.921748 68.490759 
L 243.667016 52.132373 
L 256.412283 70.581194 
L 269.157551 87.168766 
L 281.902818 100.997867 
L 294.648086 120.097013 
" clip-path="url(#pf51a02093d)" style="fill: none"/>
   </g>
   <g id="line2d_58">
    <path d="M 52.488004 89.70928 
L 65.233272 91.233258 
L 77.978539 99.202459 
L 90.723806 101.687235 
L 103.469074 105.711042 
L 116.214341 93.235263 
L 128.959609 90.267718 
L 141.704876 96.865946 
L 154.450144 98.28508 
L 167.195411 93.822425 
L 179.940679 100.548771 
L 192.685946 83.509713 
L 205.431213 88.751797 
L 218.176481 87.19239 
L 230.921748 93.57181 
L 243.667016 113.347419 
L 256.412283 117.714864 
L 269.157551 134.074229 
L 281.902818 139.471936 
L 294.648086 153.904201 
" clip-path="url(#pf51a02093d)" style="fill: none"/>
   </g>
   <g id="line2d_59">
    <path d="M 52.488004 72.75126 
L 65.233272 97.367757 
L 77.978539 79.918859 
L 90.723806 72.741658 
L 103.469074 83.302053 
L 116.214341 84.228715 
L 128.959609 93.867911 
L 141.704876 88.519928 
L 154.450144 83.445655 
L 167.195411 88.549749 
L 179.940679 90.947312 
L 192.685946 97.674152 
L 205.431213 102.423943 
L 218.176481 101.274026 
L 230.921748 107.651612 
L 243.667016 120.164269 
L 256.412283 122.624352 
L 269.157551 132.389985 
L 281.902818 135.067089 
L 294.648086 161.798678 
" clip-path="url(#pf51a02093d)" style="fill: none"/>
   </g>
   <g id="line2d_60">
    <path d="M 52.488004 82.294081 
L 65.233272 82.619892 
L 77.978539 85.456461 
L 90.723806 89.234372 
L 103.469074 87.370906 
L 116.214341 70.795409 
L 128.959609 82.232275 
L 141.704876 92.926289 
L 154.450144 69.955642 
L 167.195411 53.439825 
L 179.940679 49.437789 
L 192.685946 51.679556 
L 205.431213 59.426138 
L 218.176481 64.592927 
L 230.921748 76.498481 
L 243.667016 75.830144 
L 256.412283 77.335322 
L 269.157551 85.534515 
L 281.902818 92.155699 
L 294.648086 110.625319 
" clip-path="url(#pf51a02093d)" style="fill: none"/>
   </g>
   <g id="line2d_61">
    <path d="M 52.488004 71.897091 
L 65.233272 79.696894 
L 77.978539 81.651341 
L 90.723806 87.878066 
L 103.469074 84.12455 
L 116.214341 81.513374 
L 128.959609 82.772135 
L 141.704876 76.141538 
L 154.450144 68.825837 
L 167.195411 60.730482 
L 179.940679 53.959725 
L 192.685946 58.592364 
L 205.431213 60.22983 
L 218.176481 64.520987 
L 230.921748 68.474551 
L 243.667016 79.112544 
L 256.412283 84.906559 
L 269.157551 93.67445 
L 281.902818 102.388689 
L 294.648086 112.040736 
" clip-path="url(#pf51a02093d)" style="fill: none"/>
   </g>
   <g id="line2d_62">
    <path d="M 52.488004 110.479446 
L 65.233272 94.275929 
L 77.978539 91.907004 
L 90.723806 90.274376 
L 103.469074 89.328401 
L 116.214341 95.419358 
L 128.959609 79.49053 
L 141.704876 62.774501 
L 154.450144 53.958745 
L 167.195411 55.45274 
L 179.940679 60.160447 
L 192.685946 64.722075 
L 205.431213 63.15827 
L 218.176481 63.17489 
L 230.921748 76.846797 
L 243.667016 92.357557 
L 256.412283 99.076802 
L 269.157551 107.069696 
L 281.902818 126.934655 
L 294.648086 136.014481 
" clip-path="url(#pf51a02093d)" style="fill: none"/>
   </g>
   <g id="line2d_63">
    <path d="M 52.488004 85.550775 
L 65.233272 87.855022 
L 77.978539 87.765592 
L 90.723806 89.30506 
L 103.469074 89.675293 
L 116.214341 83.405303 
L 128.959609 83.085965 
L 141.704876 85.171755 
L 154.450144 83.284413 
L 167.195411 77.010256 
L 179.940679 74.908002 
L 192.685946 76.500542 
L 205.431213 78.226772 
L 218.176481 81.747014 
L 230.921748 88.940181 
L 243.667016 93.098681 
L 256.412283 99.897223 
L 269.157551 108.98934 
L 281.902818 117.942027 
L 294.648086 133.549216 
" clip-path="url(#pf51a02093d)" style="fill: none; stroke: #28ae80; stroke-width: 1.5; stroke-linecap: round"/>
   </g>
   <g id="line2d_64">
    <path d="M 52.488004 94.291837 
L 65.233272 84.448923 
L 77.978539 89.211136 
L 90.723806 89.017591 
L 103.469074 87.977405 
L 116.214341 83.35099 
L 128.959609 80.730562 
L 141.704876 113.06363 
L 154.450144 114.008059 
L 167.195411 102.987485 
L 179.940679 93.073313 
L 192.685946 92.525093 
L 205.431213 96.309526 
L 218.176481 105.923822 
L 230.921748 113.689514 
L 243.667016 108.91716 
L 256.412283 105.848922 
L 269.157551 102.190893 
L 281.902818 101.577257 
L 294.648086 113.358112 
" clip-path="url(#pf51a02093d)" style="fill: none"/>
   </g>
   <g id="line2d_65">
    <path d="M 52.488004 80.911582 
L 65.233272 92.670874 
L 77.978539 92.465899 
L 90.723806 92.901523 
L 103.469074 90.342448 
L 116.214341 85.629165 
L 128.959609 90.950232 
L 141.704876 85.73521 
L 154.450144 98.687842 
L 167.195411 97.486289 
L 179.940679 89.469426 
L 192.685946 91.564768 
L 205.431213 94.100126 
L 218.176481 94.793126 
L 230.921748 89.749722 
L 243.667016 91.945276 
L 256.412283 105.155213 
L 269.157551 108.99161 
L 281.902818 117.495612 
L 294.648086 126.807264 
" clip-path="url(#pf51a02093d)" style="fill: none"/>
   </g>
   <g id="line2d_66">
    <path d="M 52.488004 85.584261 
L 65.233272 80.727228 
L 77.978539 82.599609 
L 90.723806 85.461833 
L 103.469074 86.142789 
L 116.214341 79.194026 
L 128.959609 74.327906 
L 141.704876 65.73728 
L 154.450144 68.720148 
L 167.195411 64.119486 
L 179.940679 66.996556 
L 192.685946 73.010993 
L 205.431213 66.073521 
L 218.176481 67.494713 
L 230.921748 75.212629 
L 243.667016 62.932146 
L 256.412283 75.285414 
L 269.157551 85.597168 
L 281.902818 97.063078 
L 294.648086 109.455113 
" clip-path="url(#pf51a02093d)" style="fill: none"/>
   </g>
   <g id="line2d_67">
    <path d="M 52.488004 89.60874 
L 65.233272 89.691023 
L 77.978539 95.610244 
L 90.723806 96.862775 
L 103.469074 99.532942 
L 116.214341 91.266057 
L 128.959609 89.068184 
L 141.704876 93.282743 
L 154.450144 94.771789 
L 167.195411 91.614209 
L 179.940679 95.958417 
L 192.685946 84.320439 
L 205.431213 87.983981 
L 218.176481 83.909208 
L 230.921748 90.033422 
L 243.667016 105.263773 
L 256.412283 108.356846 
L 269.157551 118.201368 
L 281.902818 120.454202 
L 294.648086 129.257929 
" clip-path="url(#pf51a02093d)" style="fill: none"/>
   </g>
   <g id="line2d_68">
    <path d="M 52.488004 76.72819 
L 65.233272 94.35507 
L 77.978539 83.708821 
L 90.723806 79.119181 
L 103.469074 84.892717 
L 116.214341 84.959582 
L 128.959609 90.300488 
L 141.704876 88.266278 
L 154.450144 83.57706 
L 167.195411 87.793239 
L 179.940679 89.204182 
L 192.685946 93.798121 
L 205.431213 97.368472 
L 218.176481 96.162149 
L 230.921748 101.090965 
L 243.667016 110.853184 
L 256.412283 110.84648 
L 269.157551 116.850165 
L 281.902818 121.125142 
L 294.648086 139.732307 
" clip-path="url(#pf51a02093d)" style="fill: none"/>
   </g>
   <g id="line2d_69">
    <path d="M 52.488004 85.269094 
L 65.233272 83.834683 
L 77.978539 86.124248 
L 90.723806 89.584023 
L 103.469074 87.926427 
L 116.214341 75.938358 
L 128.959609 85.144816 
L 141.704876 92.093188 
L 154.450144 76.137925 
L 167.195411 65.487483 
L 179.940679 63.160301 
L 192.685946 62.548311 
L 205.431213 69.457144 
L 218.176481 73.229716 
L 230.921748 80.336581 
L 243.667016 80.807869 
L 256.412283 81.918429 
L 269.157551 85.024674 
L 281.902818 89.162608 
L 294.648086 103.081659 
" clip-path="url(#pf51a02093d)" style="fill: none"/>
   </g>
   <g id="line2d_70">
    <path d="M 52.488004 76.748715 
L 65.233272 82.27929 
L 77.978539 83.970885 
L 90.723806 87.547173 
L 103.469074 84.124609 
L 116.214341 82.942778 
L 128.959609 82.93023 
L 141.704876 79.299768 
L 154.450144 73.887881 
L 167.195411 69.602725 
L 179.940679 65.624546 
L 192.685946 68.198384 
L 205.431213 69.912459 
L 218.176481 71.532472 
L 230.921748 75.471831 
L 243.667016 82.659631 
L 256.412283 86.520866 
L 269.157551 92.413002 
L 281.902818 97.023038 
L 294.648086 100.199122 
" clip-path="url(#pf51a02093d)" style="fill: none"/>
   </g>
   <g id="line2d_71">
    <path d="M 52.488004 104.068154 
L 65.233272 90.550427 
L 77.978539 89.791088 
L 90.723806 90.055571 
L 103.469074 90.065129 
L 116.214341 93.879645 
L 128.959609 81.078438 
L 141.704876 71.347163 
L 154.450144 64.890376 
L 167.195411 67.067642 
L 179.940679 68.934222 
L 192.685946 73.570581 
L 205.431213 72.441194 
L 218.176481 70.694196 
L 230.921748 80.345049 
L 243.667016 91.394465 
L 256.412283 94.474412 
L 269.157551 98.95058 
L 281.902818 113.006935 
L 294.648086 118.987069 
" clip-path="url(#pf51a02093d)" style="fill: none"/>
   </g>
   <g id="line2d_72">
    <path d="M 52.488004 86.651322 
L 65.233272 87.31969 
L 77.978539 87.935241 
L 90.723806 88.818709 
L 103.469074 88.875558 
L 116.214341 84.645075 
L 128.959609 84.316357 
L 141.704876 86.103158 
L 154.450144 84.335135 
L 167.195411 80.76982 
L 179.940679 79.05262 
L 192.685946 79.942086 
L 205.431213 81.705803 
L 218.176481 82.967425 
L 230.921748 88.241214 
L 243.667016 91.846688 
L 256.412283 96.050823 
L 269.157551 101.027432 
L 281.902818 107.113484 
L 294.648086 117.609822 
" clip-path="url(#pf51a02093d)" style="fill: none; stroke: #5ec962; stroke-width: 1.5; stroke-linecap: round"/>
   </g>
   <g id="line2d_73">
    <path d="M 52.488004 93.744559 
L 65.233272 85.26232 
L 77.978539 89.7949 
L 90.723806 86.315475 
L 103.469074 86.749145 
L 116.214341 84.907172 
L 128.959609 83.722942 
L 141.704876 102.146529 
L 154.450144 99.674395 
L 167.195411 94.527562 
L 179.940679 89.180071 
L 192.685946 88.915049 
L 205.431213 92.06118 
L 218.176481 95.522111 
L 230.921748 100.476507 
L 243.667016 100.94963 
L 256.412283 98.396674 
L 269.157551 93.283341 
L 281.902818 89.803322 
L 294.648086 97.975646 
" clip-path="url(#pf51a02093d)" style="fill: none"/>
   </g>
   <g id="line2d_74">
    <path d="M 52.488004 85.950571 
L 65.233272 89.231533 
L 77.978539 89.776348 
L 90.723806 88.80049 
L 103.469074 89.198466 
L 116.214341 84.9611 
L 128.959609 91.062522 
L 141.704876 86.705389 
L 154.450144 93.063546 
L 167.195411 93.404728 
L 179.940679 88.832422 
L 192.685946 90.579161 
L 205.431213 92.455457 
L 218.176481 91.49081 
L 230.921748 86.583009 
L 243.667016 88.863588 
L 256.412283 97.738977 
L 269.157551 97.235175 
L 281.902818 101.400699 
L 294.648086 109.329824 
" clip-path="url(#pf51a02093d)" style="fill: none"/>
   </g>
   <g id="line2d_75">
    <path d="M 52.488004 85.735129 
L 65.233272 82.981421 
L 77.978539 84.749052 
L 90.723806 86.438187 
L 103.469074 85.842662 
L 116.214341 83.273194 
L 128.959609 82.196761 
L 141.704876 75.927584 
L 154.450144 78.224058 
L 167.195411 75.933169 
L 179.940679 76.692395 
L 192.685946 78.961599 
L 205.431213 76.865804 
L 218.176481 75.839767 
L 230.921748 81.842668 
L 243.667016 72.58115 
L 256.412283 79.628632 
L 269.157551 83.914853 
L 281.902818 93.180649 
L 294.648086 98.685125 
" clip-path="url(#pf51a02093d)" style="fill: none"/>
   </g>
   <g id="line2d_76">
    <path d="M 52.488004 89.574929 
L 65.233272 88.349113 
L 77.978539 92.090172 
L 90.723806 92.125281 
L 103.469074 93.35188 
L 116.214341 89.323014 
L 128.959609 88.000789 
L 141.704876 89.390366 
L 154.450144 91.255993 
L 167.195411 89.696021 
L 179.940679 91.711431 
L 192.685946 85.104415 
L 205.431213 87.644277 
L 218.176481 80.694968 
L 230.921748 86.610448 
L 243.667016 97.850672 
L 256.412283 98.851708 
L 269.157551 102.933436 
L 281.902818 101.595023 
L 294.648086 104.281381 
" clip-path="url(#pf51a02093d)" style="fill: none"/>
   </g>
   <g id="line2d_77">
    <path d="M 52.488004 80.157875 
L 65.233272 91.413157 
L 77.978539 87.609561 
L 90.723806 85.410595 
L 103.469074 86.337934 
L 116.214341 85.611366 
L 128.959609 86.766036 
L 141.704876 88.048887 
L 154.450144 83.270435 
L 167.195411 86.843211 
L 179.940679 87.365023 
L 192.685946 90.05763 
L 205.431213 92.173657 
L 218.176481 91.181088 
L 230.921748 94.367071 
L 243.667016 101.596791 
L 256.412283 99.452158 
L 269.157551 101.425217 
L 281.902818 107.259592 
L 294.648086 117.356591 
" clip-path="url(#pf51a02093d)" style="fill: none"/>
   </g>
   <g id="line2d_78">
    <path d="M 52.488004 88.365198 
L 65.233272 85.006789 
L 77.978539 87.250091 
L 90.723806 89.984231 
L 103.469074 88.480143 
L 116.214341 81.027925 
L 128.959609 87.914712 
L 141.704876 91.430688 
L 154.450144 82.609955 
L 167.195411 77.398432 
L 179.940679 76.737595 
L 192.685946 73.417715 
L 205.431213 79.49428 
L 218.176481 82.115146 
L 230.921748 84.625976 
L 243.667016 85.6597 
L 256.412283 87.367568 
L 269.157551 84.178831 
L 281.902818 86.016436 
L 294.648086 95.568736 
" clip-path="url(#pf51a02093d)" style="fill: none"/>
   </g>
   <g id="line2d_79">
    <path d="M 52.488004 81.032148 
L 65.233272 84.570973 
L 77.978539 86.183156 
L 90.723806 86.971028 
L 103.469074 83.902347 
L 116.214341 83.819627 
L 128.959609 82.743084 
L 141.704876 82.394208 
L 154.450144 78.541951 
L 167.195411 78.934565 
L 179.940679 77.213308 
L 192.685946 77.525262 
L 205.431213 79.119156 
L 218.176481 78.612319 
L 230.921748 82.86346 
L 243.667016 86.364376 
L 256.412283 88.835585 
L 269.157551 91.450642 
L 281.902818 91.106824 
L 294.648086 88.433901 
" clip-path="url(#pf51a02093d)" style="fill: none"/>
   </g>
   <g id="line2d_80">
    <path d="M 52.488004 97.828378 
L 65.233272 86.430908 
L 77.978539 87.339026 
L 90.723806 90.250645 
L 103.469074 90.899042 
L 116.214341 92.079513 
L 128.959609 82.261751 
L 141.704876 79.893184 
L 154.450144 75.888605 
L 167.195411 79.101135 
L 179.940679 77.466889 
L 192.685946 82.392378 
L 205.431213 81.544361 
L 218.176481 77.924096 
L 230.921748 83.817702 
L 243.667016 90.499267 
L 256.412283 90.601897 
L 269.157551 90.490153 
L 281.902818 98.929518 
L 294.648086 101.417327 
" clip-path="url(#pf51a02093d)" style="fill: none"/>
   </g>
   <g id="line2d_81">
    <path d="M 52.488004 87.798598 
L 65.233272 86.655777 
L 77.978539 88.099038 
L 90.723806 88.286992 
L 103.469074 88.095202 
L 116.214341 85.625364 
L 128.959609 85.583575 
L 141.704876 86.992104 
L 154.450144 85.316117 
L 167.195411 84.479853 
L 179.940679 83.149892 
L 192.685946 83.369151 
L 205.431213 85.169772 
L 218.176481 84.172538 
L 230.921748 87.648355 
L 243.667016 90.545647 
L 256.412283 92.60915 
L 269.157551 93.113956 
L 281.902818 96.161508 
L 294.648086 101.631066 
" clip-path="url(#pf51a02093d)" style="fill: none; stroke: #addc30; stroke-width: 1.5; stroke-linecap: round"/>
   </g>
   <g id="line2d_82">
    <path d="M 52.488004 93.495199 
L 65.233272 85.602977 
L 77.978539 90.437107 
L 90.723806 83.782975 
L 103.469074 85.6132 
L 116.214341 86.269903 
L 128.959609 86.808155 
L 141.704876 91.219093 
L 154.450144 85.622501 
L 167.195411 85.644673 
L 179.940679 85.36533 
L 192.685946 85.497392 
L 205.431213 87.441372 
L 218.176481 85.306416 
L 230.921748 87.637703 
L 243.667016 93.469342 
L 256.412283 91.668164 
L 269.157551 83.991454 
L 281.902818 77.766218 
L 294.648086 82.522814 
" clip-path="url(#pf51a02093d)" style="fill: none"/>
   </g>
   <g id="line2d_83">
    <path d="M 52.488004 91.448751 
L 65.233272 85.673568 
L 77.978539 86.69736 
L 90.723806 84.714608 
L 103.469074 88.211259 
L 116.214341 84.631105 
L 128.959609 91.562743 
L 141.704876 88.352063 
L 154.450144 87.168304 
L 167.195411 89.460102 
L 179.940679 88.003245 
L 192.685946 89.454069 
L 205.431213 90.935491 
L 218.176481 87.949038 
L 230.921748 83.553582 
L 243.667016 85.510185 
L 256.412283 90.931669 
L 269.157551 85.820351 
L 281.902818 85.52062 
L 294.648086 92.725142 
" clip-path="url(#pf51a02093d)" style="fill: none"/>
   </g>
   <g id="line2d_84">
    <path d="M 52.488004 85.822012 
L 65.233272 84.81249 
L 77.978539 86.29332 
L 90.723806 87.13707 
L 103.469074 85.744572 
L 116.214341 87.179988 
L 128.959609 90.176965 
L 141.704876 85.343262 
L 154.450144 88.083336 
L 167.195411 86.485675 
L 179.940679 86.341238 
L 192.685946 84.449512 
L 205.431213 87.345218 
L 218.176481 83.825227 
L 230.921748 88.388114 
L 243.667016 81.394144 
L 256.412283 83.84851 
L 269.157551 82.44011 
L 281.902818 89.309708 
L 294.648086 87.836577 
" clip-path="url(#pf51a02093d)" style="fill: none"/>
   </g>
   <g id="line2d_85">
    <path d="M 52.488004 89.370228 
L 65.233272 87.136317 
L 77.978539 88.782822 
L 90.723806 87.253212 
L 103.469074 87.253382 
L 116.214341 87.468112 
L 128.959609 86.924395 
L 141.704876 85.263001 
L 154.450144 87.612289 
L 167.195411 88.238285 
L 179.940679 87.787226 
L 192.685946 85.56477 
L 205.431213 87.220454 
L 218.176481 77.589019 
L 230.921748 82.720375 
L 243.667016 90.949652 
L 256.412283 89.1577 
L 269.157551 88.088967 
L 281.902818 83.017565 
L 294.648086 80.283137 
" clip-path="url(#pf51a02093d)" style="fill: none"/>
   </g>
   <g id="line2d_86">
    <path d="M 52.488004 82.88461 
L 65.233272 88.693854 
L 77.978539 91.514087 
L 90.723806 91.618754 
L 103.469074 87.637897 
L 116.214341 86.30163 
L 128.959609 83.404174 
L 141.704876 87.599676 
L 154.450144 82.405864 
L 167.195411 85.768702 
L 179.940679 85.606495 
L 192.685946 86.637689 
L 205.431213 86.910455 
L 218.176481 86.514071 
L 230.921748 87.689565 
L 243.667016 92.037933 
L 256.412283 88.155912 
L 269.157551 86.495256 
L 281.902818 93.366389 
L 294.648086 95.035359 
" clip-path="url(#pf51a02093d)" style="fill: none"/>
   </g>
   <g id="line2d_87">
    <path d="M 52.488004 91.464519 
L 65.233272 86.035384 
L 77.978539 88.673176 
L 90.723806 90.554382 
L 103.469074 88.825478 
L 116.214341 85.911342 
L 128.959609 90.640373 
L 141.704876 90.807565 
L 154.450144 88.967334 
L 167.195411 89.501753 
L 179.940679 89.831983 
L 192.685946 83.807979 
L 205.431213 89.202382 
L 218.176481 90.711891 
L 230.921748 89.624709 
L 243.667016 90.623812 
L 256.412283 93.653441 
L 269.157551 83.28208 
L 281.902818 82.612875 
L 294.648086 88.101253 
" clip-path="url(#pf51a02093d)" style="fill: none"/>
   </g>
   <g id="line2d_88">
    <path d="M 52.488004 84.816933 
L 65.233272 86.587157 
L 77.978539 88.287384 
L 90.723806 85.815156 
L 103.469074 83.890168 
L 116.214341 84.100918 
L 128.959609 83.192723 
L 141.704876 85.377596 
L 154.450144 83.158557 
L 167.195411 88.305481 
L 179.940679 88.298424 
L 192.685946 86.400168 
L 205.431213 87.635192 
L 218.176481 85.970235 
L 230.921748 90.772757 
L 243.667016 89.747235 
L 256.412283 91.462426 
L 269.157551 90.421921 
L 281.902818 85.010928 
L 294.648086 76.983305 
" clip-path="url(#pf51a02093d)" style="fill: none"/>
   </g>
   <g id="line2d_89">
    <path d="M 52.488004 92.079061 
L 65.233272 81.724586 
L 77.978539 84.713809 
L 90.723806 90.821093 
L 103.469074 91.82558 
L 116.214341 90.281063 
L 128.959609 83.216916 
L 141.704876 87.865514 
L 154.450144 87.180591 
L 167.195411 90.893182 
L 179.940679 86.065269 
L 192.685946 91.111808 
L 205.431213 90.33236 
L 218.176481 85.379589 
L 230.921748 87.254745 
L 243.667016 89.96687 
L 256.412283 87.559592 
L 269.157551 81.670593 
L 281.902818 84.69794 
L 294.648086 83.463207 
" clip-path="url(#pf51a02093d)" style="fill: none"/>
   </g>
   <g id="line2d_90">
    <path d="M 52.488004 88.922664 
L 65.233272 85.783291 
L 77.978539 88.174883 
L 90.723806 87.712156 
L 103.469074 87.375192 
L 116.214341 86.518008 
L 128.959609 86.990805 
L 141.704876 87.728471 
L 154.450144 86.274847 
L 167.195411 88.037232 
L 179.940679 87.162401 
L 192.685946 86.615423 
L 205.431213 88.377865 
L 218.176481 85.405686 
L 230.921748 87.205194 
L 243.667016 89.212397 
L 256.412283 89.554677 
L 269.157551 85.276342 
L 281.902818 85.16278 
L 294.648086 85.868849 
" clip-path="url(#pf51a02093d)" style="fill: none; stroke: #fde725; stroke-width: 1.5; stroke-linecap: round"/>
   </g>
   <g id="line2d_91">
    <path d="M 52.488004 87.648216 
L 65.233272 87.648216 
L 77.978539 87.648216 
L 90.723806 87.648216 
L 103.469074 87.648216 
L 116.214341 87.648216 
L 128.959609 87.648216 
L 141.704876 87.648216 
L 154.450144 87.648216 
L 167.195411 87.648216 
L 179.940679 87.648216 
L 192.685946 87.648216 
L 205.431213 87.648216 
L 218.176481 87.648216 
L 230.921748 87.648216 
L 243.667016 87.648216 
L 256.412283 87.648216 
L 269.157551 87.648216 
L 281.902818 87.648216 
L 294.648086 87.648216 
" clip-path="url(#pf51a02093d)" style="fill: none"/>
   </g>
   <g id="line2d_92">
    <path d="M 52.488004 87.648216 
L 65.233272 87.648216 
L 77.978539 87.648216 
L 90.723806 87.648216 
L 103.469074 87.648216 
L 116.214341 87.648216 
L 128.959609 87.648216 
L 141.704876 87.648216 
L 154.450144 87.648216 
L 167.195411 87.648216 
L 179.940679 87.648216 
L 192.685946 87.648216 
L 205.431213 87.648216 
L 218.176481 87.648216 
L 230.921748 87.648216 
L 243.667016 87.648216 
L 256.412283 87.648216 
L 269.157551 87.648216 
L 281.902818 87.648216 
L 294.648086 87.648216 
" clip-path="url(#pf51a02093d)" style="fill: none"/>
   </g>
   <g id="line2d_93">
    <path d="M 52.488004 87.648216 
L 65.233272 87.648216 
L 77.978539 87.648216 
L 90.723806 87.648216 
L 103.469074 87.648216 
L 116.214341 87.648216 
L 128.959609 87.648216 
L 141.704876 87.648216 
L 154.450144 87.648216 
L 167.195411 87.648216 
L 179.940679 87.648216 
L 192.685946 87.648216 
L 205.431213 87.648216 
L 218.176481 87.648216 
L 230.921748 87.648216 
L 243.667016 87.648216 
L 256.412283 87.648216 
L 269.157551 87.648216 
L 281.902818 87.648216 
L 294.648086 87.648216 
" clip-path="url(#pf51a02093d)" style="fill: none"/>
   </g>
   <g id="line2d_94">
    <path d="M 52.488004 87.648216 
L 65.233272 87.648216 
L 77.978539 87.648216 
L 90.723806 87.648216 
L 103.469074 87.648216 
L 116.214341 87.648216 
L 128.959609 87.648216 
L 141.704876 87.648216 
L 154.450144 87.648216 
L 167.195411 87.648216 
L 179.940679 87.648216 
L 192.685946 87.648216 
L 205.431213 87.648216 
L 218.176481 87.648216 
L 230.921748 87.648216 
L 243.667016 87.648216 
L 256.412283 87.648216 
L 269.157551 87.648216 
L 281.902818 87.648216 
L 294.648086 87.648216 
" clip-path="url(#pf51a02093d)" style="fill: none"/>
   </g>
   <g id="line2d_95">
    <path d="M 52.488004 87.648216 
L 65.233272 87.648216 
L 77.978539 87.648216 
L 90.723806 87.648216 
L 103.469074 87.648216 
L 116.214341 87.648216 
L 128.959609 87.648216 
L 141.704876 87.648216 
L 154.450144 87.648216 
L 167.195411 87.648216 
L 179.940679 87.648216 
L 192.685946 87.648216 
L 205.431213 87.648216 
L 218.176481 87.648216 
L 230.921748 87.648216 
L 243.667016 87.648216 
L 256.412283 87.648216 
L 269.157551 87.648216 
L 281.902818 87.648216 
L 294.648086 87.648216 
" clip-path="url(#pf51a02093d)" style="fill: none"/>
   </g>
   <g id="line2d_96">
    <path d="M 52.488004 87.648216 
L 65.233272 87.648216 
L 77.978539 87.648216 
L 90.723806 87.648216 
L 103.469074 87.648216 
L 116.214341 87.648216 
L 128.959609 87.648216 
L 141.704876 87.648216 
L 154.450144 87.648216 
L 167.195411 87.648216 
L 179.940679 87.648216 
L 192.685946 87.648216 
L 205.431213 87.648216 
L 218.176481 87.648216 
L 230.921748 87.648216 
L 243.667016 87.648216 
L 256.412283 87.648216 
L 269.157551 87.648216 
L 281.902818 87.648216 
L 294.648086 87.648216 
" clip-path="url(#pf51a02093d)" style="fill: none"/>
   </g>
   <g id="line2d_97">
    <path d="M 52.488004 87.648216 
L 65.233272 87.648216 
L 77.978539 87.648216 
L 90.723806 87.648216 
L 103.469074 87.648216 
L 116.214341 87.648216 
L 128.959609 87.648216 
L 141.704876 87.648216 
L 154.450144 87.648216 
L 167.195411 87.648216 
L 179.940679 87.648216 
L 192.685946 87.648216 
L 205.431213 87.648216 
L 218.176481 87.648216 
L 230.921748 87.648216 
L 243.667016 87.648216 
L 256.412283 87.648216 
L 269.157551 87.648216 
L 281.902818 87.648216 
L 294.648086 87.648216 
" clip-path="url(#pf51a02093d)" style="fill: none"/>
   </g>
   <g id="line2d_98">
    <path d="M 52.488004 87.648216 
L 65.233272 87.648216 
L 77.978539 87.648216 
L 90.723806 87.648216 
L 103.469074 87.648216 
L 116.214341 87.648216 
L 128.959609 87.648216 
L 141.704876 87.648216 
L 154.450144 87.648216 
L 167.195411 87.648216 
L 179.940679 87.648216 
L 192.685946 87.648216 
L 205.431213 87.648216 
L 218.176481 87.648216 
L 230.921748 87.648216 
L 243.667016 87.648216 
L 256.412283 87.648216 
L 269.157551 87.648216 
L 281.902818 87.648216 
L 294.648086 87.648216 
" clip-path="url(#pf51a02093d)" style="fill: none"/>
   </g>
   <g id="line2d_99">
    <path clip-path="url(#pf51a02093d)" style="fill: none"/>
   </g>
   <g id="line2d_100">
    <path d="M 52.488004 90.500277 
L 65.233272 85.981872 
L 77.978539 88.401084 
L 90.723806 89.384377 
L 103.469074 88.094152 
L 116.214341 86.073059 
L 128.959609 84.610872 
L 141.704876 99.788428 
L 154.450144 101.213069 
L 167.195411 95.855869 
L 179.940679 91.133165 
L 192.685946 90.610309 
L 205.431213 91.751761 
L 218.176481 96.851054 
L 230.921748 99.405705 
L 243.667016 97.381995 
L 256.412283 96.142533 
L 269.157551 95.833432 
L 281.902818 95.708826 
L 294.648086 101.380181 
" clip-path="url(#pf51a02093d)" style="fill: none"/>
   </g>
   <g id="line2d_101">
    <path d="M 52.488004 84.124098 
L 65.233272 90.363667 
L 77.978539 89.961494 
L 90.723806 91.287743 
L 103.469074 89.005331 
L 116.214341 86.932346 
L 128.959609 88.87621 
L 141.704876 86.629951 
L 154.450144 92.832569 
L 167.195411 92.650062 
L 179.940679 88.542816 
L 192.685946 89.172566 
L 205.431213 90.172959 
L 218.176481 90.79742 
L 230.921748 89.517034 
L 243.667016 89.653553 
L 256.412283 96.08028 
L 269.157551 98.668899 
L 281.902818 102.688133 
L 294.648086 106.502975 
" clip-path="url(#pf51a02093d)" style="fill: none"/>
   </g>
   <g id="line2d_102">
    <path d="M 52.488004 87.020228 
L 65.233272 84.499725 
L 77.978539 84.741371 
L 90.723806 86.634212 
L 103.469074 87.040582 
L 116.214341 83.065072 
L 128.959609 80.749395 
L 141.704876 76.903002 
L 154.450144 77.774472 
L 167.195411 75.732686 
L 179.940679 77.323234 
L 192.685946 80.675016 
L 205.431213 77.299125 
L 218.176481 78.33683 
L 230.921748 81.375332 
L 243.667016 75.895187 
L 256.412283 81.796239 
L 269.157551 87.654694 
L 281.902818 92.183808 
L 294.648086 98.420697 
" clip-path="url(#pf51a02093d)" style="fill: none"/>
   </g>
   <g id="line2d_103">
    <path d="M 52.488004 88.134252 
L 65.233272 88.834918 
L 77.978539 91.473933 
L 90.723806 92.185371 
L 103.469074 93.729263 
L 116.214341 89.573389 
L 128.959609 88.375538 
L 141.704876 90.434825 
L 154.450144 91.150509 
L 167.195411 89.775501 
L 179.940679 91.94912 
L 192.685946 86.002592 
L 205.431213 87.892062 
L 218.176481 87.568984 
L 230.921748 89.920278 
L 243.667016 95.784383 
L 256.412283 97.511087 
L 269.157551 102.938772 
L 281.902818 104.241812 
L 294.648086 110.057354 
" clip-path="url(#pf51a02093d)" style="fill: none"/>
   </g>
   <g id="line2d_104">
    <path d="M 52.488004 82.8431 
L 65.233272 91.051477 
L 77.978539 85.489887 
L 90.723806 83.189206 
L 103.469074 86.185714 
L 116.214341 86.717632 
L 128.959609 89.511465 
L 141.704876 88.135094 
L 154.450144 86.308241 
L 167.195411 87.526343 
L 179.940679 88.966774 
L 192.685946 90.560272 
L 205.431213 92.371085 
L 218.176481 92.685662 
L 230.921748 94.702195 
L 243.667016 98.170875 
L 256.412283 99.421681 
L 269.157551 102.3938 
L 281.902818 103.845878 
L 294.648086 111.806834 
" clip-path="url(#pf51a02093d)" style="fill: none"/>
   </g>
   <g id="line2d_105">
    <path d="M 52.488004 86.005987 
L 65.233272 86.011041 
L 77.978539 86.772929 
L 90.723806 88.389733 
L 103.469074 87.461416 
L 116.214341 81.9847 
L 128.959609 85.677984 
L 141.704876 89.30447 
L 154.450144 81.712536 
L 167.195411 76.422179 
L 179.940679 75.198468 
L 192.685946 75.877318 
L 205.431213 78.565256 
L 218.176481 80.208308 
L 230.921748 84.173057 
L 243.667016 83.674791 
L 256.412283 83.963709 
L 269.157551 86.750482 
L 281.902818 88.651175 
L 294.648086 95.392445 
" clip-path="url(#pf51a02093d)" style="fill: none"/>
   </g>
   <g id="line2d_106">
    <path d="M 52.488004 82.245788 
L 65.233272 85.24151 
L 77.978539 85.863217 
L 90.723806 87.636261 
L 103.469074 86.184057 
L 116.214341 85.682924 
L 128.959609 86.094735 
L 141.704876 83.552745 
L 154.450144 81.657722 
L 167.195411 78.519586 
L 179.940679 76.395687 
L 192.685946 78.171365 
L 205.431213 78.891588 
L 218.176481 79.45549 
L 230.921748 81.209171 
L 243.667016 84.637868 
L 256.412283 87.016666 
L 269.157551 89.804785 
L 281.902818 91.8246 
L 294.648086 95.593306 
" clip-path="url(#pf51a02093d)" style="fill: none"/>
   </g>
   <g id="line2d_107">
    <path d="M 52.488004 96.0021 
L 65.233272 89.646859 
L 77.978539 88.856843 
L 90.723806 88.330154 
L 103.469074 88.215579 
L 116.214341 90.420714 
L 128.959609 85.23965 
L 141.704876 79.663125 
L 154.450144 76.038091 
L 167.195411 77.404424 
L 179.940679 78.775334 
L 192.685946 80.199351 
L 205.431213 79.473818 
L 218.176481 79.82047 
L 230.921748 83.873023 
L 243.667016 89.209858 
L 256.412283 91.635646 
L 269.157551 93.902535 
L 281.902818 100.545509 
L 294.648086 103.343252 
" clip-path="url(#pf51a02093d)" style="fill: none"/>
   </g>
   <g id="line2d_108">
    <path clip-path="url(#pf51a02093d)" style="fill: none"/>
   </g>
   <g id="line2d_109">
    <path d="M 52.488004 92.815056 
L 65.233272 84.513059 
L 77.978539 88.730873 
L 90.723806 90.842198 
L 103.469074 88.64628 
L 116.214341 84.198015 
L 128.959609 81.410041 
L 141.704876 111.843107 
L 154.450144 114.739934 
L 167.195411 103.686868 
L 179.940679 94.303768 
L 192.685946 93.6302 
L 205.431213 95.996474 
L 218.176481 106.469647 
L 230.921748 112.731653 
L 243.667016 107.218256 
L 256.412283 105.133223 
L 269.157551 103.623464 
L 281.902818 103.916325 
L 294.648086 115.440686 
" clip-path="url(#pf51a02093d)" style="fill: none"/>
   </g>
   <g id="line2d_110">
    <path d="M 52.488004 80.135658 
L 65.233272 93.145682 
L 77.978539 92.482404 
L 90.723806 94.33434 
L 103.469074 90.585926 
L 116.214341 86.38185 
L 128.959609 90.056444 
L 141.704876 85.743166 
L 154.450144 98.437153 
L 167.195411 97.369534 
L 179.940679 89.244608 
L 192.685946 90.604746 
L 205.431213 93.017377 
L 218.176481 94.09312 
L 230.921748 91.580687 
L 243.667016 91.73351 
L 256.412283 104.230598 
L 269.157551 109.855296 
L 281.902818 118.435898 
L 294.648086 125.581237 
" clip-path="url(#pf51a02093d)" style="fill: none"/>
   </g>
   <g id="line2d_111">
    <path d="M 52.488004 86.629931 
L 65.233272 81.505521 
L 77.978539 82.422775 
L 90.723806 85.448085 
L 103.469074 86.82783 
L 116.214341 78.530973 
L 128.959609 73.557107 
L 141.704876 66.052615 
L 154.450144 68.442258 
L 167.195411 63.776004 
L 179.940679 67.281251 
L 192.685946 73.760693 
L 205.431213 66.396298 
L 218.176481 68.839358 
L 230.921748 74.888772 
L 243.667016 64.030688 
L 256.412283 76.093939 
L 269.157551 87.381696 
L 281.902818 96.445687 
L 294.648086 109.34009 
" clip-path="url(#pf51a02093d)" style="fill: none"/>
   </g>
   <g id="line2d_112">
    <path d="M 52.488004 88.786224 
L 65.233272 89.89258 
L 77.978539 95.337608 
L 90.723806 96.849187 
L 103.469074 99.868143 
L 116.214341 91.572887 
L 128.959609 89.286543 
L 141.704876 93.55822 
L 154.450144 94.756961 
L 167.195411 91.843169 
L 179.940679 96.307705 
L 192.685946 84.717722 
L 205.431213 88.501144 
L 218.176481 87.796862 
L 230.921748 91.942285 
L 243.667016 104.401348 
L 256.412283 107.363428 
L 269.157551 118.579221 
L 281.902818 121.355088 
L 294.648086 132.191759 
" clip-path="url(#pf51a02093d)" style="fill: none"/>
   </g>
   <g id="line2d_113">
    <path d="M 52.488004 77.873298 
L 65.233272 94.239072 
L 77.978539 82.923537 
L 90.723806 78.040515 
L 103.469074 84.765022 
L 116.214341 85.56726 
L 128.959609 91.625871 
L 141.704876 88.446611 
L 154.450144 85.147081 
L 167.195411 87.845408 
L 179.940679 90.030513 
L 192.685946 93.904268 
L 205.431213 97.363032 
L 218.176481 97.398907 
L 230.921748 101.373942 
L 243.667016 109.06825 
L 256.412283 111.108617 
L 269.157551 117.542501 
L 281.902818 119.638339 
L 294.648086 135.960381 
" clip-path="url(#pf51a02093d)" style="fill: none"/>
   </g>
   <g id="line2d_114">
    <path d="M 52.488004 84.191469 
L 65.233272 84.350514 
L 77.978539 86.07319 
L 90.723806 88.810336 
L 103.469074 87.298169 
L 116.214341 76.320094 
L 128.959609 83.692843 
L 141.704876 91.023531 
L 154.450144 75.949364 
L 167.195411 65.110744 
L 179.940679 62.457462 
L 192.685946 63.947767 
L 205.431213 69.103348 
L 218.176481 72.539335 
L 230.921748 80.390197 
L 243.667016 79.708262 
L 256.412283 80.384815 
L 269.157551 85.997429 
L 281.902818 90.254989 
L 294.648086 103.007617 
" clip-path="url(#pf51a02093d)" style="fill: none"/>
   </g>
   <g id="line2d_115">
    <path d="M 52.488004 77.034635 
L 65.233272 82.500125 
L 77.978539 83.705363 
L 90.723806 87.800072 
L 103.469074 85.181881 
L 116.214341 83.754801 
L 128.959609 84.423224 
L 141.704876 79.686154 
L 154.450144 75.395433 
L 167.195411 69.491224 
L 179.940679 65.054293 
L 192.685946 68.46202 
L 205.431213 69.745465 
L 218.176481 71.475445 
L 230.921748 74.845363 
L 243.667016 81.611418 
L 256.412283 86.094324 
L 269.157551 91.736861 
L 281.902818 96.166434 
L 294.648086 103.982748 
" clip-path="url(#pf51a02093d)" style="fill: none"/>
   </g>
   <g id="line2d_116">
    <path d="M 52.488004 103.720889 
L 65.233272 92.10904 
L 77.978539 90.350357 
L 90.723806 89.267001 
L 103.469074 88.591063 
L 116.214341 93.026613 
L 128.959609 82.629082 
L 141.704876 71.194253 
L 154.450144 64.75496 
L 167.195411 66.716192 
L 179.940679 69.575126 
L 192.685946 72.311055 
L 205.431213 71.182135 
L 218.176481 71.575133 
L 230.921748 80.26469 
L 243.667016 90.631996 
L 256.412283 95.506643 
L 269.157551 100.506324 
L 281.902818 113.744574 
L 294.648086 119.503691 
" clip-path="url(#pf51a02093d)" style="fill: none"/>
   </g>
   <g id="line2d_117">
    <path clip-path="url(#pf51a02093d)" style="fill: none"/>
   </g>
   <g id="line2d_118">
    <path d="M 52.488004 94.713233 
L 65.233272 83.441974 
L 77.978539 88.764714 
L 90.723806 92.156532 
L 103.469074 89.6739 
L 116.214341 81.874754 
L 128.959609 78.238791 
L 141.704876 124.027843 
L 154.450144 128.301045 
L 167.195411 110.974715 
L 179.940679 97.400642 
L 192.685946 96.801948 
L 205.431213 100.476315 
L 218.176481 116.455241 
L 230.921748 126.810473 
L 243.667016 116.93934 
L 256.412283 114.002541 
L 269.157551 111.617939 
L 281.902818 113.167119 
L 294.648086 129.683254 
" clip-path="url(#pf51a02093d)" style="fill: none"/>
   </g>
   <g id="line2d_119">
    <path d="M 52.488004 75.82883 
L 65.233272 96.086785 
L 77.978539 94.813308 
L 90.723806 97.160135 
L 103.469074 92.073873 
L 116.214341 85.95668 
L 128.959609 91.208096 
L 141.704876 84.796129 
L 154.450144 104.068767 
L 167.195411 102.087582 
L 179.940679 89.995591 
L 192.685946 92.130496 
L 205.431213 95.955851 
L 218.176481 97.551476 
L 230.921748 93.458213 
L 243.667016 94.118074 
L 256.412283 112.484555 
L 269.157551 121.246366 
L 281.902818 134.133715 
L 294.648086 144.596841 
" clip-path="url(#pf51a02093d)" style="fill: none"/>
   </g>
   <g id="line2d_120">
    <path d="M 52.488004 86.493242 
L 65.233272 78.493179 
L 77.978539 80.329035 
L 90.723806 84.176978 
L 103.469074 86.479069 
L 116.214341 74.190948 
L 128.959609 66.406381 
L 141.704876 55.094161 
L 154.450144 59.329352 
L 167.195411 51.143317 
L 179.940679 57.363202 
L 192.685946 67.093402 
L 205.431213 55.199989 
L 218.176481 59.582436 
L 230.921748 68.324843 
L 243.667016 52.266982 
L 256.412283 70.750727 
L 269.157551 87.473605 
L 281.902818 100.714692 
L 294.648086 120.067593 
" clip-path="url(#pf51a02093d)" style="fill: none"/>
   </g>
   <g id="line2d_121">
    <path d="M 52.488004 89.506398 
L 65.233272 91.281822 
L 77.978539 99.150768 
L 90.723806 101.677594 
L 103.469074 105.899039 
L 116.214341 93.409739 
L 128.959609 90.399432 
L 141.704876 96.85175 
L 154.450144 98.28908 
L 167.195411 93.929898 
L 179.940679 100.768067 
L 192.685946 83.638886 
L 205.431213 89.006462 
L 218.176481 88.41176 
L 230.921748 94.07631 
L 243.667016 113.185289 
L 256.412283 117.347161 
L 269.157551 134.286149 
L 281.902818 139.552875 
L 294.648086 154.517146 
" clip-path="url(#pf51a02093d)" style="fill: none"/>
   </g>
   <g id="line2d_122">
    <path d="M 52.488004 73.023539 
L 65.233272 97.246275 
L 77.978539 79.754076 
L 90.723806 72.389995 
L 103.469074 83.321375 
L 116.214341 84.445973 
L 128.959609 94.16347 
L 141.704876 88.608461 
L 154.450144 83.994609 
L 167.195411 88.493325 
L 179.940679 91.188387 
L 192.685946 97.726414 
L 205.431213 102.398208 
L 218.176481 101.746276 
L 230.921748 107.748689 
L 243.667016 119.690597 
L 256.412283 122.773103 
L 269.157551 132.67618 
L 281.902818 134.680879 
L 294.648086 160.407688 
" clip-path="url(#pf51a02093d)" style="fill: none"/>
   </g>
   <g id="line2d_123">
    <path d="M 52.488004 81.981161 
L 65.233272 82.715813 
L 77.978539 85.509708 
L 90.723806 89.000596 
L 103.469074 87.220934 
L 116.214341 70.819142 
L 128.959609 81.721276 
L 141.704876 92.582231 
L 154.450144 70.102958 
L 167.195411 53.358985 
L 179.940679 49.322216 
L 192.685946 52.141249 
L 205.431213 59.39198 
L 218.176481 64.516339 
L 230.921748 76.519072 
L 243.667016 75.476122 
L 256.412283 77.004588 
L 269.157551 85.630175 
L 281.902818 92.391309 
L 294.648086 110.569528 
" clip-path="url(#pf51a02093d)" style="fill: none"/>
   </g>
   <g id="line2d_124">
    <path d="M 52.488004 71.898141 
L 65.233272 79.754584 
L 77.978539 81.561583 
L 90.723806 87.927244 
L 103.469074 84.401185 
L 116.214341 81.705356 
L 128.959609 83.04503 
L 141.704876 76.149609 
L 154.450144 69.184306 
L 167.195411 60.72708 
L 179.940679 53.7769 
L 192.685946 58.66971 
L 205.431213 60.241824 
L 218.176481 64.301317 
L 230.921748 68.352626 
L 243.667016 78.818189 
L 256.412283 84.868372 
L 269.157551 93.582516 
L 281.902818 101.827831 
L 294.648086 113.112587 
" clip-path="url(#pf51a02093d)" style="fill: none"/>
   </g>
   <g id="line2d_125">
    <path d="M 52.488004 110.492075 
L 65.233272 94.749364 
L 77.978539 92.006788 
L 90.723806 90.129071 
L 103.469074 88.841235 
L 116.214341 95.207917 
L 128.959609 79.932363 
L 141.704876 62.681364 
L 154.450144 53.794704 
L 167.195411 55.491542 
L 179.940679 60.270819 
L 192.685946 64.320951 
L 205.431213 62.784599 
L 218.176481 63.386146 
L 230.921748 76.779216 
L 243.667016 92.055101 
L 256.412283 99.515516 
L 269.157551 107.56782 
L 281.902818 127.132285 
L 294.648086 136.055109 
" clip-path="url(#pf51a02093d)" style="fill: none"/>
   </g>
   <g id="line2d_126">
    <path clip-path="url(#pf51a02093d)" style="fill: none"/>
   </g>
   <g id="line2d_127">
    <path d="M 52.488004 96.453129 
L 65.233272 82.632584 
L 77.978539 88.616181 
L 90.723806 93.831084 
L 103.469074 91.367716 
L 116.214341 79.689349 
L 128.959609 75.210258 
L 141.704876 136.078214 
L 154.450144 142.266567 
L 167.195411 118.19662 
L 179.940679 100.450446 
L 192.685946 100.164879 
L 205.431213 105.054547 
L 218.176481 126.621587 
L 230.921748 140.868899 
L 243.667016 126.806717 
L 256.412283 122.62464 
L 269.157551 119.794237 
L 281.902818 123.723525 
L 294.648086 144.336734 
" clip-path="url(#pf51a02093d)" style="fill: none"/>
   </g>
   <g id="line2d_128">
    <path d="M 52.488004 71.267656 
L 65.233272 99.138806 
L 77.978539 96.700592 
L 90.723806 100.70696 
L 103.469074 93.550497 
L 116.214341 85.464999 
L 128.959609 92.314066 
L 141.704876 83.545077 
L 154.450144 109.570645 
L 167.195411 106.896045 
L 179.940679 90.901305 
L 192.685946 93.576007 
L 205.431213 98.658342 
L 218.176481 100.576642 
L 230.921748 95.299792 
L 243.667016 96.766446 
L 256.412283 121.048962 
L 269.157551 132.625941 
L 281.902818 150.165443 
L 294.648086 163.411514 
" clip-path="url(#pf51a02093d)" style="fill: none"/>
   </g>
   <g id="line2d_129">
    <path d="M 52.488004 86.971422 
L 65.233272 75.738601 
L 77.978539 77.777889 
L 90.723806 82.661654 
L 103.469074 86.103564 
L 116.214341 69.937207 
L 128.959609 58.926302 
L 141.704876 44.125345 
L 154.450144 50.28928 
L 167.195411 37.838244 
L 179.940679 47.148593 
L 192.685946 60.688201 
L 205.431213 43.653761 
L 218.176481 50.84568 
L 230.921748 61.593723 
L 243.667016 40.587512 
L 256.412283 65.64935 
L 269.157551 88.401934 
L 281.902818 104.858481 
L 294.648086 130.974027 
" clip-path="url(#pf51a02093d)" style="fill: none"/>
   </g>
   <g id="line2d_130">
    <path d="M 52.488004 89.888278 
L 65.233272 92.892685 
L 77.978539 102.831049 
L 90.723806 106.695323 
L 103.469074 111.900636 
L 116.214341 95.018974 
L 128.959609 91.472913 
L 141.704876 100.152051 
L 154.450144 101.859121 
L 167.195411 95.833267 
L 179.940679 105.312537 
L 192.685946 82.572418 
L 205.431213 89.598667 
L 218.176481 89.921584 
L 230.921748 96.871826 
L 243.667016 121.832077 
L 256.412283 127.210879 
L 269.157551 149.996444 
L 281.902818 158.711782 
L 294.648086 177.768994 
" clip-path="url(#pf51a02093d)" style="fill: none"/>
   </g>
   <g id="line2d_131">
    <path d="M 52.488004 68.545008 
L 65.233272 100.129408 
L 77.978539 76.30722 
L 90.723806 66.639046 
L 103.469074 81.686641 
L 116.214341 83.595555 
L 128.959609 97.103185 
L 141.704876 88.96239 
L 154.450144 83.316726 
L 167.195411 89.375248 
L 179.940679 92.577679 
L 192.685946 101.703075 
L 205.431213 107.391334 
L 218.176481 106.142505 
L 230.921748 114.314525 
L 243.667016 129.868139 
L 256.412283 134.675146 
L 269.157551 148.370558 
L 281.902818 149.232223 
L 294.648086 184.574985 
" clip-path="url(#pf51a02093d)" style="fill: none"/>
   </g>
   <g id="line2d_132">
    <path d="M 52.488004 79.553178 
L 65.233272 81.225129 
L 77.978539 85.077237 
L 90.723806 89.011305 
L 103.469074 86.954566 
L 116.214341 65.658462 
L 128.959609 79.447232 
L 141.704876 93.794898 
L 154.450144 63.956012 
L 167.195411 41.075025 
L 179.940679 35.877393 
L 192.685946 40.612583 
L 205.431213 49.784919 
L 218.176481 56.341705 
L 230.921748 72.63963 
L 243.667016 71.145691 
L 256.412283 72.967959 
L 269.157551 85.817153 
L 281.902818 94.985423 
L 294.648086 118.351867 
" clip-path="url(#pf51a02093d)" style="fill: none"/>
   </g>
   <g id="line2d_133">
    <path d="M 52.488004 66.676912 
L 65.233272 77.124824 
L 77.978539 79.476661 
L 90.723806 87.83598 
L 103.469074 83.963783 
L 116.214341 79.810759 
L 128.959609 81.993621 
L 141.704876 72.977095 
L 154.450144 63.449066 
L 167.195411 52.047253 
L 179.940679 42.533514 
L 192.685946 48.7576 
L 205.431213 50.505281 
L 218.176481 57.378324 
L 230.921748 61.393172 
L 243.667016 76.153812 
L 256.412283 83.705657 
L 269.157551 95.189975 
L 281.902818 107.621096 
L 294.648086 123.237969 
" clip-path="url(#pf51a02093d)" style="fill: none"/>
   </g>
   <g id="line2d_134">
    <path d="M 52.488004 116.899526 
L 65.233272 97.777958 
L 77.978539 93.874298 
L 90.723806 90.448995 
L 103.469074 88.792114 
L 116.214341 96.697184 
L 128.959609 77.498939 
L 141.704876 54.173997 
L 154.450144 42.724159 
L 167.195411 44.26708 
L 179.940679 51.120346 
L 192.685946 55.914304 
L 205.431213 54.016675 
L 218.176481 55.267532 
L 230.921748 73.637113 
L 243.667016 93.432318 
L 256.412283 103.382334 
L 269.157551 114.812208 
L 281.902818 140.744393 
L 294.648086 152.94654 
" clip-path="url(#pf51a02093d)" style="fill: none"/>
   </g>
   <g id="line2d_135">
    <path clip-path="url(#pf51a02093d)" style="fill: none"/>
   </g>
   <g id="line2d_136">
    <path d="M 52.488004 95.101777 
L 65.233272 83.443985 
L 77.978539 88.892369 
L 90.723806 91.638252 
L 103.469074 89.531938 
L 116.214341 81.649769 
L 128.959609 78.00502 
L 141.704876 124.331108 
L 154.450144 128.18191 
L 167.195411 110.783167 
L 179.940679 96.925752 
L 192.685946 96.395951 
L 205.431213 100.568624 
L 218.176481 116.344538 
L 230.921748 127.105215 
L 243.667016 117.417353 
L 256.412283 114.03472 
L 269.157551 111.038199 
L 281.902818 112.70276 
L 294.648086 128.952092 
" clip-path="url(#pf51a02093d)" style="fill: none"/>
   </g>
   <g id="line2d_137">
    <path d="M 52.488004 76.108533 
L 65.233272 95.991039 
L 77.978539 94.798472 
L 90.723806 96.75557 
L 103.469074 91.866584 
L 116.214341 85.880691 
L 128.959609 91.44207 
L 141.704876 84.807852 
L 154.450144 104.145152 
L 167.195411 102.023138 
L 179.940679 90.114972 
L 192.685946 92.4955 
L 205.431213 96.145139 
L 218.176481 97.743598 
L 230.921748 92.882226 
L 243.667016 94.42779 
L 256.412283 112.90397 
L 269.157551 120.964882 
L 281.902818 133.81752 
L 294.648086 144.961211 
" clip-path="url(#pf51a02093d)" style="fill: none"/>
   </g>
   <g id="line2d_138">
    <path d="M 52.488004 86.064732 
L 65.233272 78.211425 
L 77.978539 80.297774 
L 90.723806 84.230953 
L 103.469074 86.16687 
L 116.214341 74.519845 
L 128.959609 66.610055 
L 141.704876 55.006878 
L 154.450144 59.47728 
L 167.195411 51.280525 
L 179.940679 57.16925 
L 192.685946 66.935028 
L 205.431213 55.110438 
L 218.176481 59.132759 
L 230.921748 68.490759 
L 243.667016 52.132373 
L 256.412283 70.581194 
L 269.157551 87.168766 
L 281.902818 100.997867 
L 294.648086 120.097013 
" clip-path="url(#pf51a02093d)" style="fill: none"/>
   </g>
   <g id="line2d_139">
    <path d="M 52.488004 89.70928 
L 65.233272 91.233258 
L 77.978539 99.202459 
L 90.723806 101.687235 
L 103.469074 105.711042 
L 116.214341 93.235263 
L 128.959609 90.267718 
L 141.704876 96.865946 
L 154.450144 98.28508 
L 167.195411 93.822425 
L 179.940679 100.548771 
L 192.685946 83.509713 
L 205.431213 88.751797 
L 218.176481 87.19239 
L 230.921748 93.57181 
L 243.667016 113.347419 
L 256.412283 117.714864 
L 269.157551 134.074229 
L 281.902818 139.471936 
L 294.648086 153.904201 
" clip-path="url(#pf51a02093d)" style="fill: none"/>
   </g>
   <g id="line2d_140">
    <path d="M 52.488004 72.75126 
L 65.233272 97.367757 
L 77.978539 79.918859 
L 90.723806 72.741658 
L 103.469074 83.302053 
L 116.214341 84.228715 
L 128.959609 93.867911 
L 141.704876 88.519928 
L 154.450144 83.445655 
L 167.195411 88.549749 
L 179.940679 90.947312 
L 192.685946 97.674152 
L 205.431213 102.423943 
L 218.176481 101.274026 
L 230.921748 107.651612 
L 243.667016 120.164269 
L 256.412283 122.624352 
L 269.157551 132.389985 
L 281.902818 135.067089 
L 294.648086 161.798678 
" clip-path="url(#pf51a02093d)" style="fill: none"/>
   </g>
   <g id="line2d_141">
    <path d="M 52.488004 82.294081 
L 65.233272 82.619892 
L 77.978539 85.456461 
L 90.723806 89.234372 
L 103.469074 87.370906 
L 116.214341 70.795409 
L 128.959609 82.232275 
L 141.704876 92.926289 
L 154.450144 69.955642 
L 167.195411 53.439825 
L 179.940679 49.437789 
L 192.685946 51.679556 
L 205.431213 59.426138 
L 218.176481 64.592927 
L 230.921748 76.498481 
L 243.667016 75.830144 
L 256.412283 77.335322 
L 269.157551 85.534515 
L 281.902818 92.155699 
L 294.648086 110.625319 
" clip-path="url(#pf51a02093d)" style="fill: none"/>
   </g>
   <g id="line2d_142">
    <path d="M 52.488004 71.897091 
L 65.233272 79.696894 
L 77.978539 81.651341 
L 90.723806 87.878066 
L 103.469074 84.12455 
L 116.214341 81.513374 
L 128.959609 82.772135 
L 141.704876 76.141538 
L 154.450144 68.825837 
L 167.195411 60.730482 
L 179.940679 53.959725 
L 192.685946 58.592364 
L 205.431213 60.22983 
L 218.176481 64.520987 
L 230.921748 68.474551 
L 243.667016 79.112544 
L 256.412283 84.906559 
L 269.157551 93.67445 
L 281.902818 102.388689 
L 294.648086 112.040736 
" clip-path="url(#pf51a02093d)" style="fill: none"/>
   </g>
   <g id="line2d_143">
    <path d="M 52.488004 110.479446 
L 65.233272 94.275929 
L 77.978539 91.907004 
L 90.723806 90.274376 
L 103.469074 89.328401 
L 116.214341 95.419358 
L 128.959609 79.49053 
L 141.704876 62.774501 
L 154.450144 53.958745 
L 167.195411 55.45274 
L 179.940679 60.160447 
L 192.685946 64.722075 
L 205.431213 63.15827 
L 218.176481 63.17489 
L 230.921748 76.846797 
L 243.667016 92.357557 
L 256.412283 99.076802 
L 269.157551 107.069696 
L 281.902818 126.934655 
L 294.648086 136.014481 
" clip-path="url(#pf51a02093d)" style="fill: none"/>
   </g>
   <g id="line2d_144">
    <path clip-path="url(#pf51a02093d)" style="fill: none"/>
   </g>
   <g id="line2d_145">
    <path d="M 52.488004 94.291837 
L 65.233272 84.448923 
L 77.978539 89.211136 
L 90.723806 89.017591 
L 103.469074 87.977405 
L 116.214341 83.35099 
L 128.959609 80.730562 
L 141.704876 113.06363 
L 154.450144 114.008059 
L 167.195411 102.987485 
L 179.940679 93.073313 
L 192.685946 92.525093 
L 205.431213 96.309526 
L 218.176481 105.923822 
L 230.921748 113.689514 
L 243.667016 108.91716 
L 256.412283 105.848922 
L 269.157551 102.190893 
L 281.902818 101.577257 
L 294.648086 113.358112 
" clip-path="url(#pf51a02093d)" style="fill: none"/>
   </g>
   <g id="line2d_146">
    <path d="M 52.488004 80.911582 
L 65.233272 92.670874 
L 77.978539 92.465899 
L 90.723806 92.901523 
L 103.469074 90.342448 
L 116.214341 85.629165 
L 128.959609 90.950232 
L 141.704876 85.73521 
L 154.450144 98.687842 
L 167.195411 97.486289 
L 179.940679 89.469426 
L 192.685946 91.564768 
L 205.431213 94.100126 
L 218.176481 94.793126 
L 230.921748 89.749722 
L 243.667016 91.945276 
L 256.412283 105.155213 
L 269.157551 108.99161 
L 281.902818 117.495612 
L 294.648086 126.807264 
" clip-path="url(#pf51a02093d)" style="fill: none"/>
   </g>
   <g id="line2d_147">
    <path d="M 52.488004 85.584261 
L 65.233272 80.727228 
L 77.978539 82.599609 
L 90.723806 85.461833 
L 103.469074 86.142789 
L 116.214341 79.194026 
L 128.959609 74.327906 
L 141.704876 65.73728 
L 154.450144 68.720148 
L 167.195411 64.119486 
L 179.940679 66.996556 
L 192.685946 73.010993 
L 205.431213 66.073521 
L 218.176481 67.494713 
L 230.921748 75.212629 
L 243.667016 62.932146 
L 256.412283 75.285414 
L 269.157551 85.597168 
L 281.902818 97.063078 
L 294.648086 109.455113 
" clip-path="url(#pf51a02093d)" style="fill: none"/>
   </g>
   <g id="line2d_148">
    <path d="M 52.488004 89.60874 
L 65.233272 89.691023 
L 77.978539 95.610244 
L 90.723806 96.862775 
L 103.469074 99.532942 
L 116.214341 91.266057 
L 128.959609 89.068184 
L 141.704876 93.282743 
L 154.450144 94.771789 
L 167.195411 91.614209 
L 179.940679 95.958417 
L 192.685946 84.320439 
L 205.431213 87.983981 
L 218.176481 83.909208 
L 230.921748 90.033422 
L 243.667016 105.263773 
L 256.412283 108.356846 
L 269.157551 118.201368 
L 281.902818 120.454202 
L 294.648086 129.257929 
" clip-path="url(#pf51a02093d)" style="fill: none"/>
   </g>
   <g id="line2d_149">
    <path d="M 52.488004 76.72819 
L 65.233272 94.35507 
L 77.978539 83.708821 
L 90.723806 79.119181 
L 103.469074 84.892717 
L 116.214341 84.959582 
L 128.959609 90.300488 
L 141.704876 88.266278 
L 154.450144 83.57706 
L 167.195411 87.793239 
L 179.940679 89.204182 
L 192.685946 93.798121 
L 205.431213 97.368472 
L 218.176481 96.162149 
L 230.921748 101.090965 
L 243.667016 110.853184 
L 256.412283 110.84648 
L 269.157551 116.850165 
L 281.902818 121.125142 
L 294.648086 139.732307 
" clip-path="url(#pf51a02093d)" style="fill: none"/>
   </g>
   <g id="line2d_150">
    <path d="M 52.488004 85.269094 
L 65.233272 83.834683 
L 77.978539 86.124248 
L 90.723806 89.584023 
L 103.469074 87.926427 
L 116.214341 75.938358 
L 128.959609 85.144816 
L 141.704876 92.093188 
L 154.450144 76.137925 
L 167.195411 65.487483 
L 179.940679 63.160301 
L 192.685946 62.548311 
L 205.431213 69.457144 
L 218.176481 73.229716 
L 230.921748 80.336581 
L 243.667016 80.807869 
L 256.412283 81.918429 
L 269.157551 85.024674 
L 281.902818 89.162608 
L 294.648086 103.081659 
" clip-path="url(#pf51a02093d)" style="fill: none"/>
   </g>
   <g id="line2d_151">
    <path d="M 52.488004 76.748715 
L 65.233272 82.27929 
L 77.978539 83.970885 
L 90.723806 87.547173 
L 103.469074 84.124609 
L 116.214341 82.942778 
L 128.959609 82.93023 
L 141.704876 79.299768 
L 154.450144 73.887881 
L 167.195411 69.602725 
L 179.940679 65.624546 
L 192.685946 68.198384 
L 205.431213 69.912459 
L 218.176481 71.532472 
L 230.921748 75.471831 
L 243.667016 82.659631 
L 256.412283 86.520866 
L 269.157551 92.413002 
L 281.902818 97.023038 
L 294.648086 100.199122 
" clip-path="url(#pf51a02093d)" style="fill: none"/>
   </g>
   <g id="line2d_152">
    <path d="M 52.488004 104.068154 
L 65.233272 90.550427 
L 77.978539 89.791088 
L 90.723806 90.055571 
L 103.469074 90.065129 
L 116.214341 93.879645 
L 128.959609 81.078438 
L 141.704876 71.347163 
L 154.450144 64.890376 
L 167.195411 67.067642 
L 179.940679 68.934222 
L 192.685946 73.570581 
L 205.431213 72.441194 
L 218.176481 70.694196 
L 230.921748 80.345049 
L 243.667016 91.394465 
L 256.412283 94.474412 
L 269.157551 98.95058 
L 281.902818 113.006935 
L 294.648086 118.987069 
" clip-path="url(#pf51a02093d)" style="fill: none"/>
   </g>
   <g id="line2d_153">
    <path clip-path="url(#pf51a02093d)" style="fill: none"/>
   </g>
   <g id="line2d_154">
    <path d="M 52.488004 93.744559 
L 65.233272 85.26232 
L 77.978539 89.7949 
L 90.723806 86.315475 
L 103.469074 86.749145 
L 116.214341 84.907172 
L 128.959609 83.722942 
L 141.704876 102.146529 
L 154.450144 99.674395 
L 167.195411 94.527562 
L 179.940679 89.180071 
L 192.685946 88.915049 
L 205.431213 92.06118 
L 218.176481 95.522111 
L 230.921748 100.476507 
L 243.667016 100.94963 
L 256.412283 98.396674 
L 269.157551 93.283341 
L 281.902818 89.803322 
L 294.648086 97.975646 
" clip-path="url(#pf51a02093d)" style="fill: none"/>
   </g>
   <g id="line2d_155">
    <path d="M 52.488004 85.950571 
L 65.233272 89.231533 
L 77.978539 89.776348 
L 90.723806 88.80049 
L 103.469074 89.198466 
L 116.214341 84.9611 
L 128.959609 91.062522 
L 141.704876 86.705389 
L 154.450144 93.063546 
L 167.195411 93.404728 
L 179.940679 88.832422 
L 192.685946 90.579161 
L 205.431213 92.455457 
L 218.176481 91.49081 
L 230.921748 86.583009 
L 243.667016 88.863588 
L 256.412283 97.738977 
L 269.157551 97.235175 
L 281.902818 101.400699 
L 294.648086 109.329824 
" clip-path="url(#pf51a02093d)" style="fill: none"/>
   </g>
   <g id="line2d_156">
    <path d="M 52.488004 85.735129 
L 65.233272 82.981421 
L 77.978539 84.749052 
L 90.723806 86.438187 
L 103.469074 85.842662 
L 116.214341 83.273194 
L 128.959609 82.196761 
L 141.704876 75.927584 
L 154.450144 78.224058 
L 167.195411 75.933169 
L 179.940679 76.692395 
L 192.685946 78.961599 
L 205.431213 76.865804 
L 218.176481 75.839767 
L 230.921748 81.842668 
L 243.667016 72.58115 
L 256.412283 79.628632 
L 269.157551 83.914853 
L 281.902818 93.180649 
L 294.648086 98.685125 
" clip-path="url(#pf51a02093d)" style="fill: none"/>
   </g>
   <g id="line2d_157">
    <path d="M 52.488004 89.574929 
L 65.233272 88.349113 
L 77.978539 92.090172 
L 90.723806 92.125281 
L 103.469074 93.35188 
L 116.214341 89.323014 
L 128.959609 88.000789 
L 141.704876 89.390366 
L 154.450144 91.255993 
L 167.195411 89.696021 
L 179.940679 91.711431 
L 192.685946 85.104415 
L 205.431213 87.644277 
L 218.176481 80.694968 
L 230.921748 86.610448 
L 243.667016 97.850672 
L 256.412283 98.851708 
L 269.157551 102.933436 
L 281.902818 101.595023 
L 294.648086 104.281381 
" clip-path="url(#pf51a02093d)" style="fill: none"/>
   </g>
   <g id="line2d_158">
    <path d="M 52.488004 80.157875 
L 65.233272 91.413157 
L 77.978539 87.609561 
L 90.723806 85.410595 
L 103.469074 86.337934 
L 116.214341 85.611366 
L 128.959609 86.766036 
L 141.704876 88.048887 
L 154.450144 83.270435 
L 167.195411 86.843211 
L 179.940679 87.365023 
L 192.685946 90.05763 
L 205.431213 92.173657 
L 218.176481 91.181088 
L 230.921748 94.367071 
L 243.667016 101.596791 
L 256.412283 99.452158 
L 269.157551 101.425217 
L 281.902818 107.259592 
L 294.648086 117.356591 
" clip-path="url(#pf51a02093d)" style="fill: none"/>
   </g>
   <g id="line2d_159">
    <path d="M 52.488004 88.365198 
L 65.233272 85.006789 
L 77.978539 87.250091 
L 90.723806 89.984231 
L 103.469074 88.480143 
L 116.214341 81.027925 
L 128.959609 87.914712 
L 141.704876 91.430688 
L 154.450144 82.609955 
L 167.195411 77.398432 
L 179.940679 76.737595 
L 192.685946 73.417715 
L 205.431213 79.49428 
L 218.176481 82.115146 
L 230.921748 84.625976 
L 243.667016 85.6597 
L 256.412283 87.367568 
L 269.157551 84.178831 
L 281.902818 86.016436 
L 294.648086 95.568736 
" clip-path="url(#pf51a02093d)" style="fill: none"/>
   </g>
   <g id="line2d_160">
    <path d="M 52.488004 81.032148 
L 65.233272 84.570973 
L 77.978539 86.183156 
L 90.723806 86.971028 
L 103.469074 83.902347 
L 116.214341 83.819627 
L 128.959609 82.743084 
L 141.704876 82.394208 
L 154.450144 78.541951 
L 167.195411 78.934565 
L 179.940679 77.213308 
L 192.685946 77.525262 
L 205.431213 79.119156 
L 218.176481 78.612319 
L 230.921748 82.86346 
L 243.667016 86.364376 
L 256.412283 88.835585 
L 269.157551 91.450642 
L 281.902818 91.106824 
L 294.648086 88.433901 
" clip-path="url(#pf51a02093d)" style="fill: none"/>
   </g>
   <g id="line2d_161">
    <path d="M 52.488004 97.828378 
L 65.233272 86.430908 
L 77.978539 87.339026 
L 90.723806 90.250645 
L 103.469074 90.899042 
L 116.214341 92.079513 
L 128.959609 82.261751 
L 141.704876 79.893184 
L 154.450144 75.888605 
L 167.195411 79.101135 
L 179.940679 77.466889 
L 192.685946 82.392378 
L 205.431213 81.544361 
L 218.176481 77.924096 
L 230.921748 83.817702 
L 243.667016 90.499267 
L 256.412283 90.601897 
L 269.157551 90.490153 
L 281.902818 98.929518 
L 294.648086 101.417327 
" clip-path="url(#pf51a02093d)" style="fill: none"/>
   </g>
   <g id="line2d_162">
    <path clip-path="url(#pf51a02093d)" style="fill: none"/>
   </g>
  </g>
  <g id="text_12">
   <!-- Train -->
   <g style="fill: #838383" transform="translate(152.775781 17.856) scale(0.144 -0.144)">
    <defs>
     <path id="IBMPlexSans-Regular-54" d="M 2099 3994 
L 2099 0 
L 1562 0 
L 1562 3994 
L 141 3994 
L 141 4467 
L 3520 4467 
L 3520 3994 
L 2099 3994 
z
" transform="scale(0.015625)"/>
     <path id="IBMPlexSans-Regular-69" d="M 800 4077 
Q 634 4077 560 4157 
Q 486 4237 486 4365 
L 486 4448 
Q 486 4576 560 4656 
Q 634 4736 800 4736 
Q 966 4736 1040 4656 
Q 1114 4576 1114 4448 
L 1114 4365 
Q 1114 4237 1040 4157 
Q 966 4077 800 4077 
z
M 544 3302 
L 1056 3302 
L 1056 0 
L 544 0 
L 544 3302 
z
" transform="scale(0.015625)"/>
     <path id="IBMPlexSans-Regular-6e" d="M 544 0 
L 544 3302 
L 1056 3302 
L 1056 2765 
L 1082 2765 
Q 1203 3046 1424 3212 
Q 1645 3379 2016 3379 
Q 2528 3379 2825 3049 
Q 3123 2720 3123 2118 
L 3123 0 
L 2611 0 
L 2611 2029 
Q 2611 2918 1862 2918 
Q 1709 2918 1565 2880 
Q 1421 2842 1305 2765 
Q 1190 2688 1123 2569 
Q 1056 2451 1056 2291 
L 1056 0 
L 544 0 
z
" transform="scale(0.015625)"/>
    </defs>
    <use xlink:href="#IBMPlexSans-Regular-54"/>
    <use xlink:href="#IBMPlexSans-Regular-72" transform="translate(57.199997 0)"/>
    <use xlink:href="#IBMPlexSans-Regular-61" transform="translate(93.899994 0)"/>
    <use xlink:href="#IBMPlexSans-Regular-69" transform="translate(147.299988 0)"/>
    <use xlink:href="#IBMPlexSans-Regular-6e" transform="translate(172.299973 0)"/>
   </g>
  </g>
 </g>
 <defs>
  <clipPath id="pf51a02093d">
   <rect x="40.38" y="28.442513" width="266.37609" height="163.567352"/>
  </clipPath>
 </defs>
</svg>
