<?xml version="1.0" encoding="utf-8" standalone="no"?>
<!DOCTYPE svg PUBLIC "-//W3C//DTD SVG 1.1//EN"
  "http://www.w3.org/Graphics/SVG/1.1/DTD/svg11.dtd">
<svg xmlns:xlink="http://www.w3.org/1999/xlink" width="223.65pt" height="174.26pt" viewBox="0 0 223.65 174.26" xmlns="http://www.w3.org/2000/svg" version="1.1">
 <metadata>
  <rdf:RDF xmlns:dc="http://purl.org/dc/elements/1.1/" xmlns:cc="http://creativecommons.org/ns#" xmlns:rdf="http://www.w3.org/1999/02/22-rdf-syntax-ns#">
   <cc:Work>
    <dc:type rdf:resource="http://purl.org/dc/dcmitype/StillImage"/>
    <dc:date>2025-12-31T11:31:01.125410</dc:date>
    <dc:format>image/svg+xml</dc:format>
    <dc:creator>
     <cc:Agent>
      <dc:title>Matplotlib v3.10.5, https://matplotlib.org/</dc:title>
     </cc:Agent>
    </dc:creator>
   </cc:Work>
  </rdf:RDF>
 </metadata>
 <defs>
  <style type="text/css">*{stroke-linejoin: round; stroke-linecap: butt}</style>
 </defs>
 <g id="figure_1">
  <g id="patch_1">
   <path d="M 0 174.26 
L 223.65 174.26 
L 223.65 0 
L 0 0 
L 0 174.26 
z
" style="fill: none"/>
  </g>
  <g id="axes_1">
   <g id="patch_2">
    <path d="M 7.2 48.78 
L 216.45 48.78 
L 216.45 7.2 
L 7.2 7.2 
L 7.2 48.78 
z
" style="fill: none"/>
   </g>
   <g id="matplotlib.axis_1">
    <g id="xtick_1"/>
    <g id="xtick_2"/>
    <g id="xtick_3"/>
    <g id="xtick_4"/>
   </g>
   <g id="matplotlib.axis_2"/>
   <g id="line2d_1">
    <path d="M 7.2 48.78 
L 216.45 48.78 
" style="fill: none; stroke: #482475; stroke-opacity: 0.9; stroke-linecap: round"/>
   </g>
   <g id="text_1">
    <!-- 0 -->
    <g style="fill: #482475" transform="translate(7.2 47.862) scale(0.12 -0.12)">
     <defs>
      <path id="IBMPlexSans-Bold-30" d="M 1920 -77 
Q 1043 -77 620 531 
Q 198 1139 198 2234 
Q 198 3328 620 3936 
Q 1043 4544 1920 4544 
Q 2797 4544 3219 3936 
Q 3642 3328 3642 2234 
Q 3642 1139 3219 531 
Q 2797 -77 1920 -77 
z
M 1920 736 
Q 2304 736 2451 1017 
Q 2598 1299 2598 1811 
L 2598 2656 
Q 2598 3168 2451 3449 
Q 2304 3731 1920 3731 
Q 1536 3731 1389 3449 
Q 1242 3168 1242 2656 
L 1242 1811 
Q 1242 1299 1389 1017 
Q 1536 736 1920 736 
z
" transform="scale(0.015625)"/>
     </defs>
     <use xlink:href="#IBMPlexSans-Bold-30"/>
    </g>
   </g>
  </g>
  <g id="axes_2">
   <g id="patch_3">
    <path d="M 7.2 59.175 
L 216.45 59.175 
L 216.45 17.595 
L 7.2 17.595 
L 7.2 59.175 
z
" style="fill: none"/>
   </g>
   <g id="matplotlib.axis_3">
    <g id="xtick_5"/>
    <g id="xtick_6"/>
    <g id="xtick_7"/>
    <g id="xtick_8"/>
   </g>
   <g id="matplotlib.axis_4"/>
   <g id="FillBetweenPolyCollection_1">
    <defs>
     <path id="m2e574c9bd3" d="M 70.892514 -120.839507 
L 70.892514 -115.085 
L 71.106633 -115.085 
L 71.320752 -115.085 
L 71.534871 -115.085 
L 71.74899 -115.085 
L 71.963109 -115.085 
L 72.177228 -115.085 
L 72.391347 -115.085 
L 72.605466 -115.085 
L 72.819585 -115.085 
L 73.033704 -115.085 
L 73.247823 -115.085 
L 73.461942 -115.085 
L 73.676061 -115.085 
L 73.890179 -115.085 
L 74.104298 -115.085 
L 74.318417 -115.085 
L 74.532536 -115.085 
L 74.746655 -115.085 
L 74.960774 -115.085 
L 75.174893 -115.085 
L 75.389012 -115.085 
L 75.603131 -115.085 
L 75.81725 -115.085 
L 76.031369 -115.085 
L 76.245488 -115.085 
L 76.459607 -115.085 
L 76.673726 -115.085 
L 76.887845 -115.085 
L 77.101964 -115.085 
L 77.316083 -115.085 
L 77.530202 -115.085 
L 77.744321 -115.085 
L 77.95844 -115.085 
L 78.172559 -115.085 
L 78.386678 -115.085 
L 78.600797 -115.085 
L 78.814916 -115.085 
L 79.029035 -115.085 
L 79.243154 -115.085 
L 79.457273 -115.085 
L 79.671392 -115.085 
L 79.885511 -115.085 
L 80.09963 -115.085 
L 80.313749 -115.085 
L 80.527868 -115.085 
L 80.741987 -115.085 
L 80.956106 -115.085 
L 81.170224 -115.085 
L 81.384343 -115.085 
L 81.598462 -115.085 
L 81.812581 -115.085 
L 82.0267 -115.085 
L 82.240819 -115.085 
L 82.454938 -115.085 
L 82.669057 -115.085 
L 82.883176 -115.085 
L 83.097295 -115.085 
L 83.311414 -115.085 
L 83.525533 -115.085 
L 83.739652 -115.085 
L 83.953771 -115.085 
L 84.16789 -115.085 
L 84.382009 -115.085 
L 84.596128 -115.085 
L 84.810247 -115.085 
L 85.024366 -115.085 
L 85.238485 -115.085 
L 85.452604 -115.085 
L 85.666723 -115.085 
L 85.880842 -115.085 
L 86.094961 -115.085 
L 86.30908 -115.085 
L 86.523199 -115.085 
L 86.737318 -115.085 
L 86.951437 -115.085 
L 87.165556 -115.085 
L 87.379675 -115.085 
L 87.593794 -115.085 
L 87.807913 -115.085 
L 88.022032 -115.085 
L 88.23615 -115.085 
L 88.450269 -115.085 
L 88.664388 -115.085 
L 88.878507 -115.085 
L 89.092626 -115.085 
L 89.306745 -115.085 
L 89.520864 -115.085 
L 89.734983 -115.085 
L 89.949102 -115.085 
L 90.163221 -115.085 
L 90.37734 -115.085 
L 90.591459 -115.085 
L 90.805578 -115.085 
L 91.019697 -115.085 
L 91.233816 -115.085 
L 91.447935 -115.085 
L 91.662054 -115.085 
L 91.876173 -115.085 
L 92.090292 -115.085 
L 92.304411 -115.085 
L 92.51853 -115.085 
L 92.732649 -115.085 
L 92.946768 -115.085 
L 93.160887 -115.085 
L 93.375006 -115.085 
L 93.589125 -115.085 
L 93.803244 -115.085 
L 94.017363 -115.085 
L 94.231482 -115.085 
L 94.445601 -115.085 
L 94.65972 -115.085 
L 94.873839 -115.085 
L 95.087958 -115.085 
L 95.302077 -115.085 
L 95.516195 -115.085 
L 95.730314 -115.085 
L 95.944433 -115.085 
L 96.158552 -115.085 
L 96.372671 -115.085 
L 96.58679 -115.085 
L 96.800909 -115.085 
L 97.015028 -115.085 
L 97.229147 -115.085 
L 97.443266 -115.085 
L 97.657385 -115.085 
L 97.871504 -115.085 
L 98.085623 -115.085 
L 98.299742 -115.085 
L 98.513861 -115.085 
L 98.72798 -115.085 
L 98.942099 -115.085 
L 99.156218 -115.085 
L 99.370337 -115.085 
L 99.584456 -115.085 
L 99.798575 -115.085 
L 100.012694 -115.085 
L 100.226813 -115.085 
L 100.440932 -115.085 
L 100.655051 -115.085 
L 100.86917 -115.085 
L 101.083289 -115.085 
L 101.297408 -115.085 
L 101.511527 -115.085 
L 101.725646 -115.085 
L 101.939765 -115.085 
L 102.153884 -115.085 
L 102.368003 -115.085 
L 102.582121 -115.085 
L 102.79624 -115.085 
L 103.010359 -115.085 
L 103.224478 -115.085 
L 103.438597 -115.085 
L 103.652716 -115.085 
L 103.866835 -115.085 
L 104.080954 -115.085 
L 104.295073 -115.085 
L 104.509192 -115.085 
L 104.723311 -115.085 
L 104.93743 -115.085 
L 105.151549 -115.085 
L 105.365668 -115.085 
L 105.579787 -115.085 
L 105.793906 -115.085 
L 106.008025 -115.085 
L 106.222144 -115.085 
L 106.436263 -115.085 
L 106.650382 -115.085 
L 106.864501 -115.085 
L 107.07862 -115.085 
L 107.292739 -115.085 
L 107.506858 -115.085 
L 107.720977 -115.085 
L 107.935096 -115.085 
L 108.149215 -115.085 
L 108.363334 -115.085 
L 108.577453 -115.085 
L 108.791572 -115.085 
L 109.005691 -115.085 
L 109.21981 -115.085 
L 109.433929 -115.085 
L 109.648047 -115.085 
L 109.862166 -115.085 
L 110.076285 -115.085 
L 110.290404 -115.085 
L 110.504523 -115.085 
L 110.718642 -115.085 
L 110.932761 -115.085 
L 111.14688 -115.085 
L 111.360999 -115.085 
L 111.575118 -115.085 
L 111.789237 -115.085 
L 112.003356 -115.085 
L 112.217475 -115.085 
L 112.431594 -115.085 
L 112.645713 -115.085 
L 112.859832 -115.085 
L 113.073951 -115.085 
L 113.28807 -115.085 
L 113.502189 -115.085 
L 113.502189 -120.070126 
L 113.502189 -120.070126 
L 113.28807 -120.499332 
L 113.073951 -120.939207 
L 112.859832 -121.386545 
L 112.645713 -121.837793 
L 112.431594 -122.289091 
L 112.217475 -122.736326 
L 112.003356 -123.175195 
L 111.789237 -123.601272 
L 111.575118 -124.010092 
L 111.360999 -124.397233 
L 111.14688 -124.758404 
L 110.932761 -125.089539 
L 110.718642 -125.386883 
L 110.504523 -125.647082 
L 110.290404 -125.867265 
L 110.076285 -126.045114 
L 109.862166 -126.178934 
L 109.648047 -126.267702 
L 109.433929 -126.311103 
L 109.21981 -126.309561 
L 109.005691 -126.264238 
L 108.791572 -126.177035 
L 108.577453 -126.050558 
L 108.363334 -125.888087 
L 108.149215 -125.693514 
L 107.935096 -125.471278 
L 107.720977 -125.226281 
L 107.506858 -124.963801 
L 107.292739 -124.689389 
L 107.07862 -124.408766 
L 106.864501 -124.127716 
L 106.650382 -123.851973 
L 106.436263 -123.587115 
L 106.222144 -123.33846 
L 106.008025 -123.110963 
L 105.793906 -122.90913 
L 105.579787 -122.736927 
L 105.365668 -122.597715 
L 105.151549 -122.494187 
L 104.93743 -122.428317 
L 104.723311 -122.401331 
L 104.509192 -122.413679 
L 104.295073 -122.465038 
L 104.080954 -122.554312 
L 103.866835 -122.679658 
L 103.652716 -122.838522 
L 103.438597 -123.027684 
L 103.224478 -123.243325 
L 103.010359 -123.481095 
L 102.79624 -123.736198 
L 102.582121 -124.003481 
L 102.368003 -124.277534 
L 102.153884 -124.552793 
L 101.939765 -124.823649 
L 101.725646 -125.084553 
L 101.511527 -125.330126 
L 101.297408 -125.555264 
L 101.083289 -125.755237 
L 100.86917 -125.925787 
L 100.655051 -126.063204 
L 100.440932 -126.164411 
L 100.226813 -126.227017 
L 100.012694 -126.249372 
L 99.798575 -126.230604 
L 99.584456 -126.170635 
L 99.370337 -126.070194 
L 99.156218 -125.930805 
L 98.942099 -125.754771 
L 98.72798 -125.545139 
L 98.513861 -125.305657 
L 98.299742 -125.040718 
L 98.085623 -124.755298 
L 97.871504 -124.454891 
L 97.657385 -124.145428 
L 97.443266 -123.833206 
L 97.229147 -123.524806 
L 97.015028 -123.227013 
L 96.800909 -122.946739 
L 96.58679 -122.690944 
L 96.372671 -122.466562 
L 96.158552 -122.280427 
L 95.944433 -122.139203 
L 95.730314 -122.049313 
L 95.516195 -122.016878 
L 95.302077 -122.047647 
L 95.087958 -122.146937 
L 94.873839 -122.319568 
L 94.65972 -122.569801 
L 94.445601 -122.901274 
L 94.231482 -123.316945 
L 94.017363 -123.819025 
L 93.803244 -124.408921 
L 93.589125 -125.08718 
L 93.375006 -125.853434 
L 93.160887 -126.706352 
L 92.946768 -127.643601 
L 92.732649 -128.661813 
L 92.51853 -129.756567 
L 92.304411 -130.92238 
L 92.090292 -132.152717 
L 91.876173 -133.44002 
L 91.662054 -134.775745 
L 91.447935 -136.150433 
L 91.233816 -137.553788 
L 91.019697 -138.974783 
L 90.805578 -140.401778 
L 90.591459 -141.822662 
L 90.37734 -143.225006 
L 90.163221 -144.596231 
L 89.949102 -145.923781 
L 89.734983 -147.195311 
L 89.520864 -148.398868 
L 89.306745 -149.523077 
L 89.092626 -150.557318 
L 88.878507 -151.491894 
L 88.664388 -152.318184 
L 88.450269 -153.028782 
L 88.23615 -153.617615 
L 88.022032 -154.080034 
L 87.807913 -154.412887 
L 87.593794 -154.614561 
L 87.379675 -154.685 
L 87.165556 -154.625697 
L 86.951437 -154.439658 
L 86.737318 -154.131341 
L 86.523199 -153.706573 
L 86.30908 -153.172452 
L 86.094961 -152.537216 
L 85.880842 -151.810115 
L 85.666723 -151.001254 
L 85.452604 -150.121436 
L 85.238485 -149.181997 
L 85.024366 -148.194635 
L 84.810247 -147.171239 
L 84.596128 -146.123722 
L 84.382009 -145.063855 
L 84.16789 -144.003115 
L 83.953771 -142.952529 
L 83.739652 -141.922546 
L 83.525533 -140.922904 
L 83.311414 -139.962525 
L 83.097295 -139.049417 
L 82.883176 -138.190596 
L 82.669057 -137.392021 
L 82.454938 -136.65855 
L 82.240819 -135.993913 
L 82.0267 -135.400698 
L 81.812581 -134.88036 
L 81.598462 -134.433243 
L 81.384343 -134.058621 
L 81.170224 -133.754747 
L 80.956106 -133.518921 
L 80.741987 -133.347571 
L 80.527868 -133.236336 
L 80.313749 -133.180166 
L 80.09963 -133.173425 
L 79.885511 -133.209994 
L 79.671392 -133.283379 
L 79.457273 -133.386825 
L 79.243154 -133.513416 
L 79.029035 -133.656186 
L 78.814916 -133.808207 
L 78.600797 -133.962691 
L 78.386678 -134.113069 
L 78.172559 -134.253071 
L 77.95844 -134.376791 
L 77.744321 -134.478751 
L 77.530202 -134.553947 
L 77.316083 -134.597896 
L 77.101964 -134.606665 
L 76.887845 -134.576901 
L 76.673726 -134.505846 
L 76.459607 -134.391349 
L 76.245488 -134.231868 
L 76.031369 -134.026471 
L 75.81725 -133.774825 
L 75.603131 -133.477181 
L 75.389012 -133.134356 
L 75.174893 -132.747707 
L 74.960774 -132.319099 
L 74.746655 -131.850871 
L 74.532536 -131.345797 
L 74.318417 -130.807035 
L 74.104298 -130.238087 
L 73.890179 -129.642736 
L 73.676061 -129.025 
L 73.461942 -128.389064 
L 73.247823 -127.739226 
L 73.033704 -127.079836 
L 72.819585 -126.415231 
L 72.605466 -125.749679 
L 72.391347 -125.087322 
L 72.177228 -124.432124 
L 71.963109 -123.787819 
L 71.74899 -123.15787 
L 71.534871 -122.54543 
L 71.320752 -121.953317 
L 71.106633 -121.383983 
L 70.892514 -120.839507 
z
" style="stroke: #414487; stroke-width: 1.25"/>
    </defs>
    <g>
     <use xlink:href="#m2e574c9bd3" x="0" y="174.26" style="fill: #414487; fill-opacity: 0.7; stroke: #414487; stroke-width: 1.25"/>
    </g>
   </g>
   <g id="line2d_2">
    <path d="M 7.2 59.175 
L 216.45 59.175 
" style="fill: none; stroke: #414487; stroke-opacity: 0.9; stroke-linecap: round"/>
   </g>
   <g id="text_2">
    <!-- 1 -->
    <g style="fill: #414487" transform="translate(7.2 58.257) scale(0.12 -0.12)">
     <defs>
      <path id="IBMPlexSans-Bold-31" d="M 602 0 
L 602 774 
L 1805 774 
L 1805 3770 
L 1747 3770 
L 838 2579 
L 224 3059 
L 1293 4467 
L 2765 4467 
L 2765 774 
L 3712 774 
L 3712 0 
L 602 0 
z
" transform="scale(0.015625)"/>
     </defs>
     <use xlink:href="#IBMPlexSans-Bold-31"/>
    </g>
   </g>
  </g>
  <g id="axes_3">
   <g id="patch_4">
    <path d="M 7.2 69.57 
L 216.45 69.57 
L 216.45 27.99 
L 7.2 27.99 
L 7.2 69.57 
z
" style="fill: none"/>
   </g>
   <g id="matplotlib.axis_5">
    <g id="xtick_9"/>
    <g id="xtick_10"/>
    <g id="xtick_11"/>
    <g id="xtick_12"/>
   </g>
   <g id="matplotlib.axis_6"/>
   <g id="FillBetweenPolyCollection_2">
    <defs>
     <path id="m90a2401ee8" d="M 53.264666 -106.888187 
L 53.264666 -104.69 
L 53.711536 -104.69 
L 54.158406 -104.69 
L 54.605276 -104.69 
L 55.052145 -104.69 
L 55.499015 -104.69 
L 55.945885 -104.69 
L 56.392755 -104.69 
L 56.839625 -104.69 
L 57.286495 -104.69 
L 57.733365 -104.69 
L 58.180234 -104.69 
L 58.627104 -104.69 
L 59.073974 -104.69 
L 59.520844 -104.69 
L 59.967714 -104.69 
L 60.414584 -104.69 
L 60.861454 -104.69 
L 61.308323 -104.69 
L 61.755193 -104.69 
L 62.202063 -104.69 
L 62.648933 -104.69 
L 63.095803 -104.69 
L 63.542673 -104.69 
L 63.989542 -104.69 
L 64.436412 -104.69 
L 64.883282 -104.69 
L 65.330152 -104.69 
L 65.777022 -104.69 
L 66.223892 -104.69 
L 66.670762 -104.69 
L 67.117631 -104.69 
L 67.564501 -104.69 
L 68.011371 -104.69 
L 68.458241 -104.69 
L 68.905111 -104.69 
L 69.351981 -104.69 
L 69.798851 -104.69 
L 70.24572 -104.69 
L 70.69259 -104.69 
L 71.13946 -104.69 
L 71.58633 -104.69 
L 72.0332 -104.69 
L 72.48007 -104.69 
L 72.92694 -104.69 
L 73.373809 -104.69 
L 73.820679 -104.69 
L 74.267549 -104.69 
L 74.714419 -104.69 
L 75.161289 -104.69 
L 75.608159 -104.69 
L 76.055029 -104.69 
L 76.501898 -104.69 
L 76.948768 -104.69 
L 77.395638 -104.69 
L 77.842508 -104.69 
L 78.289378 -104.69 
L 78.736248 -104.69 
L 79.183118 -104.69 
L 79.629987 -104.69 
L 80.076857 -104.69 
L 80.523727 -104.69 
L 80.970597 -104.69 
L 81.417467 -104.69 
L 81.864337 -104.69 
L 82.311207 -104.69 
L 82.758076 -104.69 
L 83.204946 -104.69 
L 83.651816 -104.69 
L 84.098686 -104.69 
L 84.545556 -104.69 
L 84.992426 -104.69 
L 85.439296 -104.69 
L 85.886165 -104.69 
L 86.333035 -104.69 
L 86.779905 -104.69 
L 87.226775 -104.69 
L 87.673645 -104.69 
L 88.120515 -104.69 
L 88.567384 -104.69 
L 89.014254 -104.69 
L 89.461124 -104.69 
L 89.907994 -104.69 
L 90.354864 -104.69 
L 90.801734 -104.69 
L 91.248604 -104.69 
L 91.695473 -104.69 
L 92.142343 -104.69 
L 92.589213 -104.69 
L 93.036083 -104.69 
L 93.482953 -104.69 
L 93.929823 -104.69 
L 94.376693 -104.69 
L 94.823562 -104.69 
L 95.270432 -104.69 
L 95.717302 -104.69 
L 96.164172 -104.69 
L 96.611042 -104.69 
L 97.057912 -104.69 
L 97.504782 -104.69 
L 97.951651 -104.69 
L 98.398521 -104.69 
L 98.845391 -104.69 
L 99.292261 -104.69 
L 99.739131 -104.69 
L 100.186001 -104.69 
L 100.632871 -104.69 
L 101.07974 -104.69 
L 101.52661 -104.69 
L 101.97348 -104.69 
L 102.42035 -104.69 
L 102.86722 -104.69 
L 103.31409 -104.69 
L 103.76096 -104.69 
L 104.207829 -104.69 
L 104.654699 -104.69 
L 105.101569 -104.69 
L 105.548439 -104.69 
L 105.995309 -104.69 
L 106.442179 -104.69 
L 106.889049 -104.69 
L 107.335918 -104.69 
L 107.782788 -104.69 
L 108.229658 -104.69 
L 108.676528 -104.69 
L 109.123398 -104.69 
L 109.570268 -104.69 
L 110.017138 -104.69 
L 110.464007 -104.69 
L 110.910877 -104.69 
L 111.357747 -104.69 
L 111.804617 -104.69 
L 112.251487 -104.69 
L 112.698357 -104.69 
L 113.145226 -104.69 
L 113.592096 -104.69 
L 114.038966 -104.69 
L 114.485836 -104.69 
L 114.932706 -104.69 
L 115.379576 -104.69 
L 115.826446 -104.69 
L 116.273315 -104.69 
L 116.720185 -104.69 
L 117.167055 -104.69 
L 117.613925 -104.69 
L 118.060795 -104.69 
L 118.507665 -104.69 
L 118.954535 -104.69 
L 119.401404 -104.69 
L 119.848274 -104.69 
L 120.295144 -104.69 
L 120.742014 -104.69 
L 121.188884 -104.69 
L 121.635754 -104.69 
L 122.082624 -104.69 
L 122.529493 -104.69 
L 122.976363 -104.69 
L 123.423233 -104.69 
L 123.870103 -104.69 
L 124.316973 -104.69 
L 124.763843 -104.69 
L 125.210713 -104.69 
L 125.657582 -104.69 
L 126.104452 -104.69 
L 126.551322 -104.69 
L 126.998192 -104.69 
L 127.445062 -104.69 
L 127.891932 -104.69 
L 128.338802 -104.69 
L 128.785671 -104.69 
L 129.232541 -104.69 
L 129.679411 -104.69 
L 130.126281 -104.69 
L 130.573151 -104.69 
L 131.020021 -104.69 
L 131.466891 -104.69 
L 131.91376 -104.69 
L 132.36063 -104.69 
L 132.8075 -104.69 
L 133.25437 -104.69 
L 133.70124 -104.69 
L 134.14811 -104.69 
L 134.59498 -104.69 
L 135.041849 -104.69 
L 135.488719 -104.69 
L 135.935589 -104.69 
L 136.382459 -104.69 
L 136.829329 -104.69 
L 137.276199 -104.69 
L 137.723068 -104.69 
L 138.169938 -104.69 
L 138.616808 -104.69 
L 139.063678 -104.69 
L 139.510548 -104.69 
L 139.957418 -104.69 
L 140.404288 -104.69 
L 140.851157 -104.69 
L 141.298027 -104.69 
L 141.744897 -104.69 
L 142.191767 -104.69 
L 142.191767 -106.466309 
L 142.191767 -106.466309 
L 141.744897 -106.652381 
L 141.298027 -106.847878 
L 140.851157 -107.051836 
L 140.404288 -107.263076 
L 139.957418 -107.480206 
L 139.510548 -107.701631 
L 139.063678 -107.925566 
L 138.616808 -108.150057 
L 138.169938 -108.373007 
L 137.723068 -108.592209 
L 137.276199 -108.80538 
L 136.829329 -109.010203 
L 136.382459 -109.204374 
L 135.935589 -109.385645 
L 135.488719 -109.551876 
L 135.041849 -109.701079 
L 134.59498 -109.831469 
L 134.14811 -109.941507 
L 133.70124 -110.029937 
L 133.25437 -110.095827 
L 132.8075 -110.138591 
L 132.36063 -110.158015 
L 131.91376 -110.15427 
L 131.466891 -110.127915 
L 131.020021 -110.079896 
L 130.573151 -110.01153 
L 130.126281 -109.92449 
L 129.679411 -109.82077 
L 129.232541 -109.702652 
L 128.785671 -109.572666 
L 128.338802 -109.433538 
L 127.891932 -109.288142 
L 127.445062 -109.139441 
L 126.998192 -108.990436 
L 126.551322 -108.844105 
L 126.104452 -108.703348 
L 125.657582 -108.570934 
L 125.210713 -108.449447 
L 124.763843 -108.341243 
L 124.316973 -108.248403 
L 123.870103 -108.172698 
L 123.423233 -108.115557 
L 122.976363 -108.078046 
L 122.529493 -108.060843 
L 122.082624 -108.064233 
L 121.635754 -108.088103 
L 121.188884 -108.131944 
L 120.742014 -108.194862 
L 120.295144 -108.275597 
L 119.848274 -108.372544 
L 119.401404 -108.483786 
L 118.954535 -108.607129 
L 118.507665 -108.740142 
L 118.060795 -108.880207 
L 117.613925 -109.024564 
L 117.167055 -109.170367 
L 116.720185 -109.314739 
L 116.273315 -109.454828 
L 115.826446 -109.587862 
L 115.379576 -109.711207 
L 114.932706 -109.822419 
L 114.485836 -109.919295 
L 114.038966 -109.999919 
L 113.592096 -110.062703 
L 113.145226 -110.106423 
L 112.698357 -110.130248 
L 112.251487 -110.13376 
L 111.804617 -110.116967 
L 111.357747 -110.080315 
L 110.910877 -110.024679 
L 110.464007 -109.951361 
L 110.017138 -109.862067 
L 109.570268 -109.75889 
L 109.123398 -109.644281 
L 108.676528 -109.521009 
L 108.229658 -109.392129 
L 107.782788 -109.260939 
L 107.335918 -109.130931 
L 106.889049 -109.005748 
L 106.442179 -108.889134 
L 105.995309 -108.784884 
L 105.548439 -108.696798 
L 105.101569 -108.628627 
L 104.654699 -108.58403 
L 104.207829 -108.56652 
L 103.76096 -108.579422 
L 103.31409 -108.625825 
L 102.86722 -108.708538 
L 102.42035 -108.830046 
L 101.97348 -108.992472 
L 101.52661 -109.19753 
L 101.07974 -109.446498 
L 100.632871 -109.740172 
L 100.186001 -110.078844 
L 99.739131 -110.462271 
L 99.292261 -110.889651 
L 98.845391 -111.359609 
L 98.398521 -111.870187 
L 97.951651 -112.418841 
L 97.504782 -113.002444 
L 97.057912 -113.617308 
L 96.611042 -114.2592 
L 96.164172 -114.923386 
L 95.717302 -115.604667 
L 95.270432 -116.297443 
L 94.823562 -116.995771 
L 94.376693 -117.69344 
L 93.929823 -118.384059 
L 93.482953 -119.061137 
L 93.036083 -119.71818 
L 92.589213 -120.34879 
L 92.142343 -120.94676 
L 91.695473 -121.506172 
L 91.248604 -122.02149 
L 90.801734 -122.487652 
L 90.354864 -122.900151 
L 89.907994 -123.255108 
L 89.461124 -123.549336 
L 89.014254 -123.780389 
L 88.567384 -123.946604 
L 88.120515 -124.047121 
L 87.673645 -124.081899 
L 87.226775 -124.051707 
L 86.779905 -123.95811 
L 86.333035 -123.803436 
L 85.886165 -123.590731 
L 85.439296 -123.323708 
L 84.992426 -123.006677 
L 84.545556 -122.644474 
L 84.098686 -122.242374 
L 83.651816 -121.806011 
L 83.204946 -121.34128 
L 82.758076 -120.854248 
L 82.311207 -120.351054 
L 81.864337 -119.837825 
L 81.417467 -119.320575 
L 80.970597 -118.805126 
L 80.523727 -118.297024 
L 80.076857 -117.801465 
L 79.629987 -117.323229 
L 79.183118 -116.866622 
L 78.736248 -116.435427 
L 78.289378 -116.032868 
L 77.842508 -115.661578 
L 77.395638 -115.323586 
L 76.948768 -115.020308 
L 76.501898 -114.752553 
L 76.055029 -114.520534 
L 75.608159 -114.323893 
L 75.161289 -114.161733 
L 74.714419 -114.032657 
L 74.267549 -113.934811 
L 73.820679 -113.865942 
L 73.373809 -113.823445 
L 72.92694 -113.804429 
L 72.48007 -113.805771 
L 72.0332 -113.824177 
L 71.58633 -113.85624 
L 71.13946 -113.898502 
L 70.69259 -113.947501 
L 70.24572 -113.999824 
L 69.798851 -114.052156 
L 69.351981 -114.101316 
L 68.905111 -114.144298 
L 68.458241 -114.178301 
L 68.011371 -114.200755 
L 67.564501 -114.209346 
L 67.117631 -114.202029 
L 66.670762 -114.177045 
L 66.223892 -114.132929 
L 65.777022 -114.068518 
L 65.330152 -113.982949 
L 64.883282 -113.875663 
L 64.436412 -113.7464 
L 63.989542 -113.595194 
L 63.542673 -113.422361 
L 63.095803 -113.228494 
L 62.648933 -113.014441 
L 62.202063 -112.781298 
L 61.755193 -112.53038 
L 61.308323 -112.263207 
L 60.861454 -111.981477 
L 60.414584 -111.687041 
L 59.967714 -111.381873 
L 59.520844 -111.068041 
L 59.073974 -110.747678 
L 58.627104 -110.422946 
L 58.180234 -110.096011 
L 57.733365 -109.769003 
L 57.286495 -109.443993 
L 56.839625 -109.122963 
L 56.392755 -108.807775 
L 55.945885 -108.500155 
L 55.499015 -108.201669 
L 55.052145 -107.913705 
L 54.605276 -107.637468 
L 54.158406 -107.373964 
L 53.711536 -107.124001 
L 53.264666 -106.888187 
z
" style="stroke: #355f8d; stroke-width: 1.25"/>
    </defs>
    <g>
     <use xlink:href="#m90a2401ee8" x="0" y="174.26" style="fill: #355f8d; fill-opacity: 0.7; stroke: #355f8d; stroke-width: 1.25"/>
    </g>
   </g>
   <g id="line2d_3">
    <path d="M 7.2 69.57 
L 216.45 69.57 
" style="fill: none; stroke: #355f8d; stroke-opacity: 0.9; stroke-linecap: round"/>
   </g>
   <g id="text_3">
    <!-- 2 -->
    <g style="fill: #355f8d" transform="translate(7.2 68.652) scale(0.12 -0.12)">
     <defs>
      <path id="IBMPlexSans-Bold-32" d="M 3526 0 
L 365 0 
L 365 877 
L 1741 2054 
Q 1926 2214 2054 2345 
Q 2182 2477 2262 2601 
Q 2342 2726 2377 2848 
Q 2413 2970 2413 3110 
L 2413 3200 
Q 2413 3328 2361 3424 
Q 2310 3520 2227 3584 
Q 2144 3648 2038 3680 
Q 1933 3712 1824 3712 
Q 1664 3712 1545 3661 
Q 1427 3610 1340 3523 
Q 1254 3437 1196 3325 
Q 1139 3213 1107 3085 
L 269 3405 
Q 346 3635 480 3843 
Q 614 4051 816 4208 
Q 1018 4365 1293 4454 
Q 1568 4544 1914 4544 
Q 2278 4544 2560 4441 
Q 2842 4339 3037 4160 
Q 3232 3981 3334 3734 
Q 3437 3488 3437 3200 
Q 3437 2912 3341 2675 
Q 3245 2438 3081 2230 
Q 2918 2022 2700 1836 
Q 2483 1651 2246 1459 
L 1414 806 
L 3526 806 
L 3526 0 
z
" transform="scale(0.015625)"/>
     </defs>
     <use xlink:href="#IBMPlexSans-Bold-32"/>
    </g>
   </g>
  </g>
  <g id="axes_4">
   <g id="patch_5">
    <path d="M 7.2 79.965 
L 216.45 79.965 
L 216.45 38.385 
L 7.2 38.385 
L 7.2 79.965 
z
" style="fill: none"/>
   </g>
   <g id="matplotlib.axis_7">
    <g id="xtick_13"/>
    <g id="xtick_14"/>
    <g id="xtick_15"/>
    <g id="xtick_16"/>
   </g>
   <g id="matplotlib.axis_8"/>
   <g id="FillBetweenPolyCollection_3">
    <defs>
     <path id="mcf784b8e21" d="M 34.5168 -95.398563 
L 34.5168 -94.295 
L 35.218362 -94.295 
L 35.919924 -94.295 
L 36.621485 -94.295 
L 37.323047 -94.295 
L 38.024609 -94.295 
L 38.72617 -94.295 
L 39.427732 -94.295 
L 40.129294 -94.295 
L 40.830855 -94.295 
L 41.532417 -94.295 
L 42.233979 -94.295 
L 42.93554 -94.295 
L 43.637102 -94.295 
L 44.338664 -94.295 
L 45.040225 -94.295 
L 45.741787 -94.295 
L 46.443349 -94.295 
L 47.14491 -94.295 
L 47.846472 -94.295 
L 48.548034 -94.295 
L 49.249595 -94.295 
L 49.951157 -94.295 
L 50.652718 -94.295 
L 51.35428 -94.295 
L 52.055842 -94.295 
L 52.757403 -94.295 
L 53.458965 -94.295 
L 54.160527 -94.295 
L 54.862088 -94.295 
L 55.56365 -94.295 
L 56.265212 -94.295 
L 56.966773 -94.295 
L 57.668335 -94.295 
L 58.369897 -94.295 
L 59.071458 -94.295 
L 59.77302 -94.295 
L 60.474582 -94.295 
L 61.176143 -94.295 
L 61.877705 -94.295 
L 62.579267 -94.295 
L 63.280828 -94.295 
L 63.98239 -94.295 
L 64.683952 -94.295 
L 65.385513 -94.295 
L 66.087075 -94.295 
L 66.788637 -94.295 
L 67.490198 -94.295 
L 68.19176 -94.295 
L 68.893322 -94.295 
L 69.594883 -94.295 
L 70.296445 -94.295 
L 70.998007 -94.295 
L 71.699568 -94.295 
L 72.40113 -94.295 
L 73.102692 -94.295 
L 73.804253 -94.295 
L 74.505815 -94.295 
L 75.207377 -94.295 
L 75.908938 -94.295 
L 76.6105 -94.295 
L 77.312061 -94.295 
L 78.013623 -94.295 
L 78.715185 -94.295 
L 79.416746 -94.295 
L 80.118308 -94.295 
L 80.81987 -94.295 
L 81.521431 -94.295 
L 82.222993 -94.295 
L 82.924555 -94.295 
L 83.626116 -94.295 
L 84.327678 -94.295 
L 85.02924 -94.295 
L 85.730801 -94.295 
L 86.432363 -94.295 
L 87.133925 -94.295 
L 87.835486 -94.295 
L 88.537048 -94.295 
L 89.23861 -94.295 
L 89.940171 -94.295 
L 90.641733 -94.295 
L 91.343295 -94.295 
L 92.044856 -94.295 
L 92.746418 -94.295 
L 93.44798 -94.295 
L 94.149541 -94.295 
L 94.851103 -94.295 
L 95.552665 -94.295 
L 96.254226 -94.295 
L 96.955788 -94.295 
L 97.65735 -94.295 
L 98.358911 -94.295 
L 99.060473 -94.295 
L 99.762035 -94.295 
L 100.463596 -94.295 
L 101.165158 -94.295 
L 101.866719 -94.295 
L 102.568281 -94.295 
L 103.269843 -94.295 
L 103.971404 -94.295 
L 104.672966 -94.295 
L 105.374528 -94.295 
L 106.076089 -94.295 
L 106.777651 -94.295 
L 107.479213 -94.295 
L 108.180774 -94.295 
L 108.882336 -94.295 
L 109.583898 -94.295 
L 110.285459 -94.295 
L 110.987021 -94.295 
L 111.688583 -94.295 
L 112.390144 -94.295 
L 113.091706 -94.295 
L 113.793268 -94.295 
L 114.494829 -94.295 
L 115.196391 -94.295 
L 115.897953 -94.295 
L 116.599514 -94.295 
L 117.301076 -94.295 
L 118.002638 -94.295 
L 118.704199 -94.295 
L 119.405761 -94.295 
L 120.107323 -94.295 
L 120.808884 -94.295 
L 121.510446 -94.295 
L 122.212008 -94.295 
L 122.913569 -94.295 
L 123.615131 -94.295 
L 124.316693 -94.295 
L 125.018254 -94.295 
L 125.719816 -94.295 
L 126.421377 -94.295 
L 127.122939 -94.295 
L 127.824501 -94.295 
L 128.526062 -94.295 
L 129.227624 -94.295 
L 129.929186 -94.295 
L 130.630747 -94.295 
L 131.332309 -94.295 
L 132.033871 -94.295 
L 132.735432 -94.295 
L 133.436994 -94.295 
L 134.138556 -94.295 
L 134.840117 -94.295 
L 135.541679 -94.295 
L 136.243241 -94.295 
L 136.944802 -94.295 
L 137.646364 -94.295 
L 138.347926 -94.295 
L 139.049487 -94.295 
L 139.751049 -94.295 
L 140.452611 -94.295 
L 141.154172 -94.295 
L 141.855734 -94.295 
L 142.557296 -94.295 
L 143.258857 -94.295 
L 143.960419 -94.295 
L 144.661981 -94.295 
L 145.363542 -94.295 
L 146.065104 -94.295 
L 146.766666 -94.295 
L 147.468227 -94.295 
L 148.169789 -94.295 
L 148.871351 -94.295 
L 149.572912 -94.295 
L 150.274474 -94.295 
L 150.976035 -94.295 
L 151.677597 -94.295 
L 152.379159 -94.295 
L 153.08072 -94.295 
L 153.782282 -94.295 
L 154.483844 -94.295 
L 155.185405 -94.295 
L 155.886967 -94.295 
L 156.588529 -94.295 
L 157.29009 -94.295 
L 157.991652 -94.295 
L 158.693214 -94.295 
L 159.394775 -94.295 
L 160.096337 -94.295 
L 160.797899 -94.295 
L 161.49946 -94.295 
L 162.201022 -94.295 
L 162.902584 -94.295 
L 163.604145 -94.295 
L 164.305707 -94.295 
L 165.007269 -94.295 
L 165.70883 -94.295 
L 166.410392 -94.295 
L 167.111954 -94.295 
L 167.813515 -94.295 
L 168.515077 -94.295 
L 169.216639 -94.295 
L 169.9182 -94.295 
L 170.619762 -94.295 
L 171.321324 -94.295 
L 172.022885 -94.295 
L 172.724447 -94.295 
L 173.426009 -94.295 
L 174.12757 -94.295 
L 174.12757 -95.064908 
L 174.12757 -95.064908 
L 173.426009 -95.161239 
L 172.724447 -95.264982 
L 172.022885 -95.375979 
L 171.321324 -95.493941 
L 170.619762 -95.618445 
L 169.9182 -95.748924 
L 169.216639 -95.884663 
L 168.515077 -96.024804 
L 167.813515 -96.168343 
L 167.111954 -96.314141 
L 166.410392 -96.460938 
L 165.70883 -96.607364 
L 165.007269 -96.751961 
L 164.305707 -96.89321 
L 163.604145 -97.029549 
L 162.902584 -97.159413 
L 162.201022 -97.281258 
L 161.49946 -97.393596 
L 160.797899 -97.495029 
L 160.096337 -97.584281 
L 159.394775 -97.660229 
L 158.693214 -97.721933 
L 157.991652 -97.768659 
L 157.29009 -97.799904 
L 156.588529 -97.81541 
L 155.886967 -97.815176 
L 155.185405 -97.799466 
L 154.483844 -97.768805 
L 153.782282 -97.723976 
L 153.08072 -97.666008 
L 152.379159 -97.596157 
L 151.677597 -97.515885 
L 150.976035 -97.426833 
L 150.274474 -97.33079 
L 149.572912 -97.229658 
L 148.871351 -97.125422 
L 148.169789 -97.020105 
L 147.468227 -96.915735 
L 146.766666 -96.814307 
L 146.065104 -96.717748 
L 145.363542 -96.627879 
L 144.661981 -96.546386 
L 143.960419 -96.474789 
L 143.258857 -96.414417 
L 142.557296 -96.366385 
L 141.855734 -96.331576 
L 141.154172 -96.310624 
L 140.452611 -96.303908 
L 139.751049 -96.311543 
L 139.049487 -96.333381 
L 138.347926 -96.369011 
L 137.646364 -96.417769 
L 136.944802 -96.47875 
L 136.243241 -96.550821 
L 135.541679 -96.632643 
L 134.840117 -96.722696 
L 134.138556 -96.819305 
L 133.436994 -96.920669 
L 132.735432 -97.024899 
L 132.033871 -97.13005 
L 131.332309 -97.234163 
L 130.630747 -97.335298 
L 129.929186 -97.431579 
L 129.227624 -97.521231 
L 128.526062 -97.602616 
L 127.824501 -97.674274 
L 127.122939 -97.734952 
L 126.421377 -97.783636 
L 125.719816 -97.819578 
L 125.018254 -97.842315 
L 124.316693 -97.851687 
L 123.615131 -97.847846 
L 122.913569 -97.831263 
L 122.212008 -97.802722 
L 121.510446 -97.763321 
L 120.808884 -97.714448 
L 120.107323 -97.657774 
L 119.405761 -97.59522 
L 118.704199 -97.528936 
L 118.002638 -97.461264 
L 117.301076 -97.394708 
L 116.599514 -97.33189 
L 115.897953 -97.275512 
L 115.196391 -97.228317 
L 114.494829 -97.193041 
L 113.793268 -97.172373 
L 113.091706 -97.168911 
L 112.390144 -97.185119 
L 111.688583 -97.223285 
L 110.987021 -97.285484 
L 110.285459 -97.373532 
L 109.583898 -97.488961 
L 108.882336 -97.632975 
L 108.180774 -97.806429 
L 107.479213 -98.009796 
L 106.777651 -98.243151 
L 106.076089 -98.506151 
L 105.374528 -98.798024 
L 104.672966 -99.117562 
L 103.971404 -99.463127 
L 103.269843 -99.83265 
L 102.568281 -100.223655 
L 101.866719 -100.633273 
L 101.165158 -101.058278 
L 100.463596 -101.495117 
L 99.762035 -101.939958 
L 99.060473 -102.388738 
L 98.358911 -102.837218 
L 97.65735 -103.281046 
L 96.955788 -103.715818 
L 96.254226 -104.137145 
L 95.552665 -104.540725 
L 94.851103 -104.922404 
L 94.149541 -105.278251 
L 93.44798 -105.604617 
L 92.746418 -105.898192 
L 92.044856 -106.156066 
L 91.343295 -106.375772 
L 90.641733 -106.555324 
L 89.940171 -106.693255 
L 89.23861 -106.788631 
L 88.537048 -106.841069 
L 87.835486 -106.850742 
L 87.133925 -106.818366 
L 86.432363 -106.745188 
L 85.730801 -106.632963 
L 85.02924 -106.483916 
L 84.327678 -106.300707 
L 83.626116 -106.086377 
L 82.924555 -105.8443 
L 82.222993 -105.578121 
L 81.521431 -105.291696 
L 80.81987 -104.989029 
L 80.118308 -104.674203 
L 79.416746 -104.351318 
L 78.715185 -104.024423 
L 78.013623 -103.697456 
L 77.312061 -103.374185 
L 76.6105 -103.058151 
L 75.908938 -102.752619 
L 75.207377 -102.460537 
L 74.505815 -102.184493 
L 73.804253 -101.926692 
L 73.102692 -101.688928 
L 72.40113 -101.472573 
L 71.699568 -101.27857 
L 70.998007 -101.107434 
L 70.296445 -100.959263 
L 69.594883 -100.83375 
L 68.893322 -100.730212 
L 68.19176 -100.647613 
L 67.490198 -100.584603 
L 66.788637 -100.539552 
L 66.087075 -100.510594 
L 65.385513 -100.49567 
L 64.683952 -100.492569 
L 63.98239 -100.498977 
L 63.280828 -100.512519 
L 62.579267 -100.530801 
L 61.877705 -100.551449 
L 61.176143 -100.572149 
L 60.474582 -100.590676 
L 59.77302 -100.60493 
L 59.071458 -100.612956 
L 58.369897 -100.612971 
L 57.668335 -100.60338 
L 56.966773 -100.582792 
L 56.265212 -100.550029 
L 55.56365 -100.504137 
L 54.862088 -100.444385 
L 54.160527 -100.370271 
L 53.458965 -100.281519 
L 52.757403 -100.178074 
L 52.055842 -100.060096 
L 51.35428 -99.92795 
L 50.652718 -99.782196 
L 49.951157 -99.623575 
L 49.249595 -99.452995 
L 48.548034 -99.271509 
L 47.846472 -99.080305 
L 47.14491 -98.880674 
L 46.443349 -98.674 
L 45.741787 -98.461729 
L 45.040225 -98.245348 
L 44.338664 -98.026363 
L 43.637102 -97.806277 
L 42.93554 -97.586561 
L 42.233979 -97.368639 
L 41.532417 -97.153866 
L 40.830855 -96.943506 
L 40.129294 -96.738723 
L 39.427732 -96.540561 
L 38.72617 -96.349939 
L 38.024609 -96.167638 
L 37.323047 -95.994301 
L 36.621485 -95.83043 
L 35.919924 -95.676387 
L 35.218362 -95.532399 
L 34.5168 -95.398563 
z
" style="stroke: #2a788e; stroke-width: 1.25"/>
    </defs>
    <g>
     <use xlink:href="#mcf784b8e21" x="0" y="174.26" style="fill: #2a788e; fill-opacity: 0.7; stroke: #2a788e; stroke-width: 1.25"/>
    </g>
   </g>
   <g id="line2d_4">
    <path d="M 7.2 79.965 
L 216.45 79.965 
" style="fill: none; stroke: #2a788e; stroke-opacity: 0.9; stroke-linecap: round"/>
   </g>
   <g id="text_4">
    <!-- 3 -->
    <g style="fill: #2a788e" transform="translate(7.2 79.047) scale(0.12 -0.12)">
     <defs>
      <path id="IBMPlexSans-Bold-33" d="M 1677 2701 
Q 2035 2701 2198 2838 
Q 2362 2976 2362 3181 
L 2362 3226 
Q 2362 3469 2205 3616 
Q 2048 3763 1760 3763 
Q 1491 3763 1254 3625 
Q 1018 3488 851 3232 
L 250 3795 
Q 378 3962 525 4099 
Q 672 4237 857 4336 
Q 1043 4435 1273 4489 
Q 1504 4544 1792 4544 
Q 2150 4544 2441 4461 
Q 2733 4378 2941 4221 
Q 3149 4064 3261 3846 
Q 3373 3629 3373 3360 
Q 3373 3149 3305 2976 
Q 3238 2803 3120 2675 
Q 3002 2547 2848 2467 
Q 2694 2387 2522 2355 
L 2522 2317 
Q 2720 2278 2889 2192 
Q 3059 2106 3184 1971 
Q 3309 1837 3379 1654 
Q 3450 1472 3450 1242 
Q 3450 941 3328 697 
Q 3206 454 2982 281 
Q 2758 109 2444 16 
Q 2131 -77 1754 -77 
Q 1414 -77 1152 -6 
Q 890 64 694 182 
Q 499 301 355 454 
Q 211 608 102 781 
L 813 1331 
Q 960 1056 1174 880 
Q 1389 704 1754 704 
Q 2080 704 2262 867 
Q 2445 1030 2445 1312 
L 2445 1350 
Q 2445 1626 2237 1763 
Q 2029 1901 1664 1901 
L 1261 1901 
L 1261 2701 
L 1677 2701 
z
" transform="scale(0.015625)"/>
     </defs>
     <use xlink:href="#IBMPlexSans-Bold-33"/>
    </g>
   </g>
  </g>
  <g id="axes_5">
   <g id="patch_6">
    <path d="M 7.2 90.36 
L 216.45 90.36 
L 216.45 48.78 
L 7.2 48.78 
L 7.2 90.36 
z
" style="fill: none"/>
   </g>
   <g id="matplotlib.axis_9">
    <g id="xtick_17"/>
    <g id="xtick_18"/>
    <g id="xtick_19"/>
    <g id="xtick_20"/>
   </g>
   <g id="matplotlib.axis_10"/>
   <g id="FillBetweenPolyCollection_4">
    <defs>
     <path id="mc7df9afa51" d="M 16.711364 -84.718138 
L 16.711364 -83.9 
L 17.66728 -83.9 
L 18.623196 -83.9 
L 19.579111 -83.9 
L 20.535027 -83.9 
L 21.490943 -83.9 
L 22.446859 -83.9 
L 23.402775 -83.9 
L 24.358691 -83.9 
L 25.314607 -83.9 
L 26.270523 -83.9 
L 27.226439 -83.9 
L 28.182355 -83.9 
L 29.138271 -83.9 
L 30.094187 -83.9 
L 31.050103 -83.9 
L 32.006019 -83.9 
L 32.961935 -83.9 
L 33.917851 -83.9 
L 34.873767 -83.9 
L 35.829683 -83.9 
L 36.785598 -83.9 
L 37.741514 -83.9 
L 38.69743 -83.9 
L 39.653346 -83.9 
L 40.609262 -83.9 
L 41.565178 -83.9 
L 42.521094 -83.9 
L 43.47701 -83.9 
L 44.432926 -83.9 
L 45.388842 -83.9 
L 46.344758 -83.9 
L 47.300674 -83.9 
L 48.25659 -83.9 
L 49.212506 -83.9 
L 50.168422 -83.9 
L 51.124338 -83.9 
L 52.080254 -83.9 
L 53.036169 -83.9 
L 53.992085 -83.9 
L 54.948001 -83.9 
L 55.903917 -83.9 
L 56.859833 -83.9 
L 57.815749 -83.9 
L 58.771665 -83.9 
L 59.727581 -83.9 
L 60.683497 -83.9 
L 61.639413 -83.9 
L 62.595329 -83.9 
L 63.551245 -83.9 
L 64.507161 -83.9 
L 65.463077 -83.9 
L 66.418993 -83.9 
L 67.374909 -83.9 
L 68.330825 -83.9 
L 69.286741 -83.9 
L 70.242656 -83.9 
L 71.198572 -83.9 
L 72.154488 -83.9 
L 73.110404 -83.9 
L 74.06632 -83.9 
L 75.022236 -83.9 
L 75.978152 -83.9 
L 76.934068 -83.9 
L 77.889984 -83.9 
L 78.8459 -83.9 
L 79.801816 -83.9 
L 80.757732 -83.9 
L 81.713648 -83.9 
L 82.669564 -83.9 
L 83.62548 -83.9 
L 84.581396 -83.9 
L 85.537312 -83.9 
L 86.493228 -83.9 
L 87.449143 -83.9 
L 88.405059 -83.9 
L 89.360975 -83.9 
L 90.316891 -83.9 
L 91.272807 -83.9 
L 92.228723 -83.9 
L 93.184639 -83.9 
L 94.140555 -83.9 
L 95.096471 -83.9 
L 96.052387 -83.9 
L 97.008303 -83.9 
L 97.964219 -83.9 
L 98.920135 -83.9 
L 99.876051 -83.9 
L 100.831967 -83.9 
L 101.787883 -83.9 
L 102.743799 -83.9 
L 103.699714 -83.9 
L 104.65563 -83.9 
L 105.611546 -83.9 
L 106.567462 -83.9 
L 107.523378 -83.9 
L 108.479294 -83.9 
L 109.43521 -83.9 
L 110.391126 -83.9 
L 111.347042 -83.9 
L 112.302958 -83.9 
L 113.258874 -83.9 
L 114.21479 -83.9 
L 115.170706 -83.9 
L 116.126622 -83.9 
L 117.082538 -83.9 
L 118.038454 -83.9 
L 118.99437 -83.9 
L 119.950286 -83.9 
L 120.906201 -83.9 
L 121.862117 -83.9 
L 122.818033 -83.9 
L 123.773949 -83.9 
L 124.729865 -83.9 
L 125.685781 -83.9 
L 126.641697 -83.9 
L 127.597613 -83.9 
L 128.553529 -83.9 
L 129.509445 -83.9 
L 130.465361 -83.9 
L 131.421277 -83.9 
L 132.377193 -83.9 
L 133.333109 -83.9 
L 134.289025 -83.9 
L 135.244941 -83.9 
L 136.200857 -83.9 
L 137.156772 -83.9 
L 138.112688 -83.9 
L 139.068604 -83.9 
L 140.02452 -83.9 
L 140.980436 -83.9 
L 141.936352 -83.9 
L 142.892268 -83.9 
L 143.848184 -83.9 
L 144.8041 -83.9 
L 145.760016 -83.9 
L 146.715932 -83.9 
L 147.671848 -83.9 
L 148.627764 -83.9 
L 149.58368 -83.9 
L 150.539596 -83.9 
L 151.495512 -83.9 
L 152.451428 -83.9 
L 153.407344 -83.9 
L 154.363259 -83.9 
L 155.319175 -83.9 
L 156.275091 -83.9 
L 157.231007 -83.9 
L 158.186923 -83.9 
L 159.142839 -83.9 
L 160.098755 -83.9 
L 161.054671 -83.9 
L 162.010587 -83.9 
L 162.966503 -83.9 
L 163.922419 -83.9 
L 164.878335 -83.9 
L 165.834251 -83.9 
L 166.790167 -83.9 
L 167.746083 -83.9 
L 168.701999 -83.9 
L 169.657915 -83.9 
L 170.613831 -83.9 
L 171.569746 -83.9 
L 172.525662 -83.9 
L 173.481578 -83.9 
L 174.437494 -83.9 
L 175.39341 -83.9 
L 176.349326 -83.9 
L 177.305242 -83.9 
L 178.261158 -83.9 
L 179.217074 -83.9 
L 180.17299 -83.9 
L 181.128906 -83.9 
L 182.084822 -83.9 
L 183.040738 -83.9 
L 183.996654 -83.9 
L 184.95257 -83.9 
L 185.908486 -83.9 
L 186.864402 -83.9 
L 187.820317 -83.9 
L 188.776233 -83.9 
L 189.732149 -83.9 
L 190.688065 -83.9 
L 191.643981 -83.9 
L 192.599897 -83.9 
L 193.555813 -83.9 
L 194.511729 -83.9 
L 195.467645 -83.9 
L 196.423561 -83.9 
L 197.379477 -83.9 
L 198.335393 -83.9 
L 199.291309 -83.9 
L 200.247225 -83.9 
L 201.203141 -83.9 
L 202.159057 -83.9 
L 203.114973 -83.9 
L 204.070889 -83.9 
L 205.026804 -83.9 
L 205.98272 -83.9 
L 206.938636 -83.9 
L 206.938636 -84.367454 
L 206.938636 -84.367454 
L 205.98272 -84.42903 
L 205.026804 -84.495916 
L 204.070889 -84.568119 
L 203.114973 -84.645567 
L 202.159057 -84.728101 
L 201.203141 -84.81547 
L 200.247225 -84.907324 
L 199.291309 -85.003212 
L 198.335393 -85.102578 
L 197.379477 -85.204767 
L 196.423561 -85.309022 
L 195.467645 -85.414498 
L 194.511729 -85.520265 
L 193.555813 -85.625324 
L 192.599897 -85.728621 
L 191.643981 -85.829063 
L 190.688065 -85.92554 
L 189.732149 -86.016941 
L 188.776233 -86.102182 
L 187.820317 -86.180226 
L 186.864402 -86.250104 
L 185.908486 -86.310941 
L 184.95257 -86.361976 
L 183.996654 -86.402579 
L 183.040738 -86.43227 
L 182.084822 -86.450732 
L 181.128906 -86.457823 
L 180.17299 -86.453581 
L 179.217074 -86.438225 
L 178.261158 -86.412161 
L 177.305242 -86.37597 
L 176.349326 -86.330401 
L 175.39341 -86.276362 
L 174.437494 -86.214898 
L 173.481578 -86.147179 
L 172.525662 -86.074474 
L 171.569746 -85.99813 
L 170.613831 -85.91955 
L 169.657915 -85.840165 
L 168.701999 -85.761409 
L 167.746083 -85.684696 
L 166.790167 -85.611396 
L 165.834251 -85.54281 
L 164.878335 -85.480151 
L 163.922419 -85.424521 
L 162.966503 -85.376899 
L 162.010587 -85.33812 
L 161.054671 -85.308865 
L 160.098755 -85.289651 
L 159.142839 -85.280821 
L 158.186923 -85.282539 
L 157.231007 -85.294792 
L 156.275091 -85.317384 
L 155.319175 -85.349941 
L 154.363259 -85.391919 
L 153.407344 -85.442609 
L 152.451428 -85.501151 
L 151.495512 -85.566548 
L 150.539596 -85.637679 
L 149.58368 -85.713322 
L 148.627764 -85.792174 
L 147.671848 -85.872876 
L 146.715932 -85.954035 
L 145.760016 -86.034256 
L 144.8041 -86.112166 
L 143.848184 -86.186442 
L 142.892268 -86.255844 
L 141.936352 -86.319238 
L 140.980436 -86.375626 
L 140.02452 -86.424167 
L 139.068604 -86.464203 
L 138.112688 -86.495276 
L 137.156772 -86.517144 
L 136.200857 -86.529792 
L 135.244941 -86.533441 
L 134.289025 -86.528548 
L 133.333109 -86.515807 
L 132.377193 -86.496141 
L 131.421277 -86.470687 
L 130.465361 -86.440787 
L 129.509445 -86.407963 
L 128.553529 -86.373894 
L 127.597613 -86.340388 
L 126.641697 -86.309355 
L 125.685781 -86.282771 
L 124.729865 -86.262646 
L 123.773949 -86.250987 
L 122.818033 -86.249763 
L 121.862117 -86.260871 
L 120.906201 -86.286095 
L 119.950286 -86.327078 
L 118.99437 -86.385287 
L 118.038454 -86.46198 
L 117.082538 -86.558182 
L 116.126622 -86.674659 
L 115.170706 -86.811896 
L 114.21479 -86.970082 
L 113.258874 -87.149094 
L 112.302958 -87.348492 
L 111.347042 -87.567514 
L 110.391126 -87.805079 
L 109.43521 -88.059794 
L 108.479294 -88.329965 
L 107.523378 -88.613617 
L 106.567462 -88.908516 
L 105.611546 -89.212199 
L 104.65563 -89.522002 
L 103.699714 -89.835101 
L 102.743799 -90.148549 
L 101.787883 -90.459322 
L 100.831967 -90.76436 
L 99.876051 -91.060616 
L 98.920135 -91.345102 
L 97.964219 -91.614932 
L 97.008303 -91.867373 
L 96.052387 -92.099881 
L 95.096471 -92.310143 
L 94.140555 -92.496114 
L 93.184639 -92.656043 
L 92.228723 -92.788507 
L 91.272807 -92.892425 
L 90.316891 -92.967077 
L 89.360975 -93.012112 
L 88.405059 -93.027549 
L 87.449143 -93.013779 
L 86.493228 -92.971551 
L 85.537312 -92.901962 
L 84.581396 -92.806434 
L 83.62548 -92.68669 
L 82.669564 -92.544726 
L 81.713648 -92.382776 
L 80.757732 -92.203277 
L 79.801816 -92.008826 
L 78.8459 -91.802143 
L 77.889984 -91.586021 
L 76.934068 -91.36329 
L 75.978152 -91.136764 
L 75.022236 -90.909206 
L 74.06632 -90.683279 
L 73.110404 -90.461508 
L 72.154488 -90.246246 
L 71.198572 -90.039636 
L 70.242656 -89.843584 
L 69.286741 -89.659734 
L 68.330825 -89.489446 
L 67.374909 -89.333787 
L 66.418993 -89.193516 
L 65.463077 -89.069086 
L 64.507161 -88.960644 
L 63.551245 -88.868042 
L 62.595329 -88.790848 
L 61.639413 -88.728366 
L 60.683497 -88.679661 
L 59.727581 -88.643578 
L 58.771665 -88.618782 
L 57.815749 -88.603781 
L 56.859833 -88.596963 
L 55.903917 -88.596628 
L 54.948001 -88.601026 
L 53.992085 -88.608382 
L 53.036169 -88.616939 
L 52.080254 -88.624975 
L 51.124338 -88.630842 
L 50.168422 -88.632984 
L 49.212506 -88.629962 
L 48.25659 -88.620469 
L 47.300674 -88.60335 
L 46.344758 -88.577614 
L 45.388842 -88.542439 
L 44.432926 -88.497183 
L 43.47701 -88.441383 
L 42.521094 -88.374758 
L 41.565178 -88.297206 
L 40.609262 -88.208797 
L 39.653346 -88.10977 
L 38.69743 -88.000521 
L 37.741514 -87.88159 
L 36.785598 -87.753651 
L 35.829683 -87.617498 
L 34.873767 -87.474027 
L 33.917851 -87.324219 
L 32.961935 -87.169124 
L 32.006019 -87.00984 
L 31.050103 -86.847499 
L 30.094187 -86.683243 
L 29.138271 -86.518209 
L 28.182355 -86.353511 
L 27.226439 -86.190223 
L 26.270523 -86.029364 
L 25.314607 -85.871885 
L 24.358691 -85.718656 
L 23.402775 -85.570457 
L 22.446859 -85.427972 
L 21.490943 -85.291781 
L 20.535027 -85.162357 
L 19.579111 -85.040068 
L 18.623196 -84.925178 
L 17.66728 -84.817846 
L 16.711364 -84.718138 
z
" style="stroke: #21918c; stroke-width: 1.25"/>
    </defs>
    <g>
     <use xlink:href="#mc7df9afa51" x="0" y="174.26" style="fill: #21918c; fill-opacity: 0.7; stroke: #21918c; stroke-width: 1.25"/>
    </g>
   </g>
   <g id="line2d_5">
    <path d="M 7.2 90.36 
L 216.45 90.36 
" style="fill: none; stroke: #21918c; stroke-opacity: 0.9; stroke-linecap: round"/>
   </g>
   <g id="text_5">
    <!-- 4 -->
    <g style="fill: #21918c" transform="translate(7.2 89.442) scale(0.12 -0.12)">
     <defs>
      <path id="IBMPlexSans-Bold-34" d="M 2157 0 
L 2157 858 
L 192 858 
L 192 1677 
L 1933 4467 
L 3072 4467 
L 3072 1600 
L 3635 1600 
L 3635 858 
L 3072 858 
L 3072 0 
L 2157 0 
z
M 960 1600 
L 2157 1600 
L 2157 3475 
L 2093 3475 
L 960 1600 
z
" transform="scale(0.015625)"/>
     </defs>
     <use xlink:href="#IBMPlexSans-Bold-34"/>
    </g>
   </g>
  </g>
  <g id="axes_6">
   <g id="patch_7">
    <path d="M 7.2 100.755 
L 216.45 100.755 
L 216.45 59.175 
L 7.2 59.175 
L 7.2 100.755 
z
" style="fill: none"/>
   </g>
   <g id="matplotlib.axis_11">
    <g id="xtick_21"/>
    <g id="xtick_22"/>
    <g id="xtick_23"/>
    <g id="xtick_24"/>
   </g>
   <g id="matplotlib.axis_12"/>
   <g id="line2d_6">
    <path d="M 7.2 100.755 
L 216.45 100.755 
" style="fill: none; stroke: #482475; stroke-opacity: 0.9; stroke-linecap: round"/>
   </g>
   <g id="text_6">
    <!-- 5 -->
    <g style="fill: #482475" transform="translate(7.2 99.837) scale(0.12 -0.12)">
     <defs>
      <path id="IBMPlexSans-Bold-35" d="M 3341 3629 
L 1312 3629 
L 1216 2214 
L 1267 2214 
Q 1331 2374 1411 2505 
Q 1491 2637 1600 2729 
Q 1709 2822 1862 2873 
Q 2016 2925 2227 2925 
Q 2515 2925 2764 2829 
Q 3014 2733 3200 2550 
Q 3386 2368 3494 2102 
Q 3603 1837 3603 1504 
Q 3603 1165 3491 873 
Q 3379 582 3158 371 
Q 2938 160 2618 41 
Q 2298 -77 1888 -77 
Q 1562 -77 1312 -6 
Q 1062 64 870 182 
Q 678 301 537 454 
Q 397 608 294 781 
L 992 1331 
Q 1139 1069 1344 886 
Q 1549 704 1894 704 
Q 2240 704 2416 902 
Q 2592 1101 2592 1427 
L 2592 1478 
Q 2592 1786 2413 1965 
Q 2234 2144 1920 2144 
Q 1658 2144 1488 2038 
Q 1318 1933 1229 1830 
L 442 1939 
L 608 4467 
L 3341 4467 
L 3341 3629 
z
" transform="scale(0.015625)"/>
     </defs>
     <use xlink:href="#IBMPlexSans-Bold-35"/>
    </g>
   </g>
  </g>
  <g id="axes_7">
   <g id="patch_8">
    <path d="M 7.2 111.15 
L 216.45 111.15 
L 216.45 69.57 
L 7.2 69.57 
L 7.2 111.15 
z
" style="fill: none"/>
   </g>
   <g id="matplotlib.axis_13">
    <g id="xtick_25"/>
    <g id="xtick_26"/>
    <g id="xtick_27"/>
    <g id="xtick_28"/>
   </g>
   <g id="matplotlib.axis_14"/>
   <g id="line2d_7">
    <path d="M 7.2 111.15 
L 216.45 111.15 
" style="fill: none; stroke: #482475; stroke-opacity: 0.9; stroke-linecap: round"/>
   </g>
   <g id="text_7">
    <!-- 6 -->
    <g style="fill: #482475" transform="translate(7.2 110.232) scale(0.12 -0.12)">
     <defs>
      <path id="IBMPlexSans-Bold-36" d="M 1946 -77 
Q 1549 -77 1235 48 
Q 922 173 707 406 
Q 493 640 381 966 
Q 269 1293 269 1696 
Q 269 2163 413 2582 
Q 557 3002 784 3357 
Q 1011 3712 1296 3993 
Q 1581 4275 1869 4467 
L 3194 4467 
Q 2784 4173 2457 3907 
Q 2131 3642 1891 3373 
Q 1651 3104 1494 2825 
Q 1338 2547 1274 2227 
L 1331 2208 
Q 1389 2336 1469 2457 
Q 1549 2579 1667 2672 
Q 1786 2765 1946 2822 
Q 2106 2880 2317 2880 
Q 2592 2880 2832 2781 
Q 3072 2682 3248 2502 
Q 3424 2323 3523 2064 
Q 3622 1805 3622 1491 
Q 3622 1146 3504 858 
Q 3386 570 3165 362 
Q 2944 154 2637 38 
Q 2330 -77 1946 -77 
z
M 1946 672 
Q 2266 672 2445 848 
Q 2624 1024 2624 1350 
L 2624 1466 
Q 2624 1792 2445 1968 
Q 2266 2144 1946 2144 
Q 1626 2144 1446 1968 
Q 1267 1792 1267 1466 
L 1267 1350 
Q 1267 1024 1446 848 
Q 1626 672 1946 672 
z
" transform="scale(0.015625)"/>
     </defs>
     <use xlink:href="#IBMPlexSans-Bold-36"/>
    </g>
   </g>
  </g>
  <g id="axes_8">
   <g id="patch_9">
    <path d="M 7.2 121.545 
L 216.45 121.545 
L 216.45 79.965 
L 7.2 79.965 
L 7.2 121.545 
z
" style="fill: none"/>
   </g>
   <g id="matplotlib.axis_15">
    <g id="xtick_29"/>
    <g id="xtick_30"/>
    <g id="xtick_31"/>
    <g id="xtick_32"/>
   </g>
   <g id="matplotlib.axis_16"/>
   <g id="line2d_8">
    <path d="M 7.2 121.545 
L 216.45 121.545 
" style="fill: none; stroke: #482475; stroke-opacity: 0.9; stroke-linecap: round"/>
   </g>
   <g id="text_8">
    <!-- 7 -->
    <g style="fill: #482475" transform="translate(7.2 120.627) scale(0.12 -0.12)">
     <defs>
      <path id="IBMPlexSans-Bold-37" d="M 1062 0 
L 2560 3686 
L 1165 3686 
L 1165 2874 
L 352 2874 
L 352 4467 
L 3514 4467 
L 3514 3635 
L 2074 0 
L 1062 0 
z
" transform="scale(0.015625)"/>
     </defs>
     <use xlink:href="#IBMPlexSans-Bold-37"/>
    </g>
   </g>
  </g>
  <g id="axes_9">
   <g id="patch_10">
    <path d="M 7.2 131.94 
L 216.45 131.94 
L 216.45 90.36 
L 7.2 90.36 
L 7.2 131.94 
z
" style="fill: none"/>
   </g>
   <g id="matplotlib.axis_17">
    <g id="xtick_33">
     <g id="text_9">
      <!-- −2 -->
      <g style="fill: #838383" transform="translate(31.366655 149.58) scale(0.11 -0.11)">
       <defs>
        <path id="IBMPlexSans-Regular-2212" d="M 429 1734 
L 429 2170 
L 3411 2170 
L 3411 1734 
L 429 1734 
z
" transform="scale(0.015625)"/>
        <path id="IBMPlexSans-Regular-32" d="M 3411 0 
L 480 0 
L 480 550 
L 1939 1894 
Q 2253 2182 2464 2505 
Q 2675 2829 2675 3155 
L 2675 3232 
Q 2675 3603 2470 3833 
Q 2266 4064 1850 4064 
Q 1645 4064 1491 4006 
Q 1338 3949 1226 3846 
Q 1114 3744 1040 3606 
Q 966 3469 922 3309 
L 442 3494 
Q 506 3693 618 3881 
Q 730 4070 899 4217 
Q 1069 4365 1309 4454 
Q 1549 4544 1875 4544 
Q 2202 4544 2458 4448 
Q 2714 4352 2886 4179 
Q 3059 4006 3152 3769 
Q 3245 3533 3245 3245 
Q 3245 2982 3171 2758 
Q 3098 2534 2970 2332 
Q 2842 2131 2659 1939 
Q 2477 1747 2266 1555 
L 1062 474 
L 3411 474 
L 3411 0 
z
" transform="scale(0.015625)"/>
       </defs>
       <use xlink:href="#IBMPlexSans-Regular-2212"/>
       <use xlink:href="#IBMPlexSans-Regular-32" transform="translate(59.999985 0)"/>
      </g>
     </g>
    </g>
    <g id="xtick_34">
     <g id="text_10">
      <!-- 0 -->
      <g style="fill: #838383" transform="translate(83.926037 149.58) scale(0.11 -0.11)">
       <defs>
        <path id="IBMPlexSans-Regular-30" d="M 1920 -77 
Q 1120 -77 752 531 
Q 384 1139 384 2234 
Q 384 3328 752 3936 
Q 1120 4544 1920 4544 
Q 2720 4544 3088 3936 
Q 3456 3328 3456 2234 
Q 3456 1139 3088 531 
Q 2720 -77 1920 -77 
z
M 1920 390 
Q 2182 390 2368 499 
Q 2554 608 2669 806 
Q 2784 1005 2838 1273 
Q 2893 1542 2893 1869 
L 2893 2598 
Q 2893 2925 2838 3193 
Q 2784 3462 2669 3660 
Q 2554 3859 2368 3968 
Q 2182 4077 1920 4077 
Q 1658 4077 1472 3968 
Q 1286 3859 1171 3660 
Q 1056 3462 1001 3193 
Q 947 2925 947 2598 
L 947 1869 
Q 947 1542 1001 1273 
Q 1056 1005 1171 806 
Q 1286 608 1472 499 
Q 1658 390 1920 390 
z
" transform="scale(0.015625)"/>
       </defs>
       <use xlink:href="#IBMPlexSans-Regular-30"/>
      </g>
     </g>
    </g>
    <g id="xtick_35">
     <g id="text_11">
      <!-- 2 -->
      <g style="fill: #838383" transform="translate(133.18542 149.58) scale(0.11 -0.11)">
       <use xlink:href="#IBMPlexSans-Regular-32"/>
      </g>
     </g>
    </g>
    <g id="xtick_36">
     <g id="text_12">
      <!-- 4 -->
      <g style="fill: #838383" transform="translate(182.444802 149.58) scale(0.11 -0.11)">
       <defs>
        <path id="IBMPlexSans-Regular-34" d="M 2400 0 
L 2400 877 
L 243 877 
L 243 1350 
L 2112 4467 
L 2912 4467 
L 2912 1325 
L 3558 1325 
L 3558 877 
L 2912 877 
L 2912 0 
L 2400 0 
z
M 749 1325 
L 2400 1325 
L 2400 4051 
L 2368 4051 
L 749 1325 
z
" transform="scale(0.015625)"/>
       </defs>
       <use xlink:href="#IBMPlexSans-Regular-34"/>
      </g>
     </g>
    </g>
    <g id="text_13">
     <!-- sldf -->
     <g style="fill: #262626" transform="translate(101.84625 164.66) scale(0.12 -0.12)">
      <defs>
       <path id="IBMPlexSans-Regular-73" d="M 1536 -77 
Q 1075 -77 764 99 
Q 454 275 230 570 
L 595 864 
Q 787 621 1024 489 
Q 1261 358 1574 358 
Q 1901 358 2083 499 
Q 2266 640 2266 896 
Q 2266 1088 2141 1225 
Q 2016 1363 1690 1414 
L 1427 1453 
Q 1197 1485 1005 1552 
Q 813 1619 669 1731 
Q 525 1843 445 2009 
Q 365 2176 365 2406 
Q 365 2650 454 2832 
Q 544 3014 701 3136 
Q 858 3258 1075 3318 
Q 1293 3379 1542 3379 
Q 1946 3379 2218 3238 
Q 2490 3098 2694 2848 
L 2355 2541 
Q 2246 2694 2035 2819 
Q 1824 2944 1504 2944 
Q 1184 2944 1021 2806 
Q 858 2669 858 2432 
Q 858 2189 1021 2080 
Q 1184 1971 1491 1920 
L 1747 1882 
Q 2298 1798 2528 1564 
Q 2758 1331 2758 954 
Q 2758 474 2432 198 
Q 2106 -77 1536 -77 
z
" transform="scale(0.015625)"/>
       <path id="IBMPlexSans-Regular-6c" d="M 1088 0 
Q 819 0 681 150 
Q 544 301 544 531 
L 544 4736 
L 1056 4736 
L 1056 448 
L 1542 448 
L 1542 0 
L 1088 0 
z
" transform="scale(0.015625)"/>
       <path id="IBMPlexSans-Regular-64" d="M 2656 538 
L 2630 538 
Q 2330 -77 1664 -77 
Q 1357 -77 1107 44 
Q 858 166 682 390 
Q 506 614 413 934 
Q 320 1254 320 1651 
Q 320 2048 413 2368 
Q 506 2688 682 2912 
Q 858 3136 1107 3257 
Q 1357 3379 1664 3379 
Q 2010 3379 2256 3228 
Q 2502 3078 2630 2765 
L 2656 2765 
L 2656 4736 
L 3168 4736 
L 3168 0 
L 2656 0 
L 2656 538 
z
M 1805 384 
Q 1978 384 2134 429 
Q 2291 474 2406 560 
Q 2522 646 2589 771 
Q 2656 896 2656 1056 
L 2656 2285 
Q 2656 2419 2589 2537 
Q 2522 2656 2406 2739 
Q 2291 2822 2134 2870 
Q 1978 2918 1805 2918 
Q 1370 2918 1120 2646 
Q 870 2374 870 1933 
L 870 1370 
Q 870 928 1120 656 
Q 1370 384 1805 384 
z
" transform="scale(0.015625)"/>
       <path id="IBMPlexSans-Regular-66" d="M 723 2854 
L 186 2854 
L 186 3302 
L 723 3302 
L 723 3968 
Q 723 4314 902 4525 
Q 1082 4736 1446 4736 
L 1946 4736 
L 1946 4288 
L 1235 4288 
L 1235 3302 
L 1946 3302 
L 1946 2854 
L 1235 2854 
L 1235 0 
L 723 0 
L 723 2854 
z
" transform="scale(0.015625)"/>
      </defs>
      <use xlink:href="#IBMPlexSans-Regular-73"/>
      <use xlink:href="#IBMPlexSans-Regular-6c" transform="translate(48.699997 0)"/>
      <use xlink:href="#IBMPlexSans-Regular-64" transform="translate(75.899994 0)"/>
      <use xlink:href="#IBMPlexSans-Regular-66" transform="translate(133.899979 0)"/>
     </g>
    </g>
   </g>
   <g id="matplotlib.axis_18"/>
   <g id="line2d_9">
    <path d="M 7.2 131.94 
L 216.45 131.94 
" style="fill: none; stroke: #482475; stroke-opacity: 0.9; stroke-linecap: round"/>
   </g>
   <g id="text_14">
    <!-- 8 -->
    <g style="fill: #482475" transform="translate(7.2 131.022) scale(0.12 -0.12)">
     <defs>
      <path id="IBMPlexSans-Bold-38" d="M 1920 -77 
Q 1523 -77 1212 22 
Q 902 122 691 294 
Q 480 467 368 704 
Q 256 941 256 1222 
Q 256 1651 493 1923 
Q 730 2195 1133 2304 
L 1133 2355 
Q 806 2477 598 2726 
Q 390 2976 390 3366 
Q 390 3622 489 3840 
Q 589 4058 784 4214 
Q 979 4371 1264 4457 
Q 1549 4544 1920 4544 
Q 2291 4544 2576 4457 
Q 2861 4371 3056 4214 
Q 3251 4058 3350 3840 
Q 3450 3622 3450 3366 
Q 3450 2976 3242 2726 
Q 3034 2477 2707 2355 
L 2707 2304 
Q 3110 2195 3347 1923 
Q 3584 1651 3584 1222 
Q 3584 941 3472 704 
Q 3360 467 3149 294 
Q 2938 122 2627 22 
Q 2317 -77 1920 -77 
z
M 1920 659 
Q 2240 659 2409 809 
Q 2579 960 2579 1229 
L 2579 1357 
Q 2579 1626 2409 1776 
Q 2240 1926 1920 1926 
Q 1600 1926 1430 1776 
Q 1261 1626 1261 1357 
L 1261 1229 
Q 1261 960 1430 809 
Q 1600 659 1920 659 
z
M 1920 2630 
Q 2227 2630 2387 2774 
Q 2547 2918 2547 3168 
L 2547 3270 
Q 2547 3520 2387 3664 
Q 2227 3808 1920 3808 
Q 1613 3808 1453 3664 
Q 1293 3520 1293 3270 
L 1293 3168 
Q 1293 2918 1453 2774 
Q 1613 2630 1920 2630 
z
" transform="scale(0.015625)"/>
     </defs>
     <use xlink:href="#IBMPlexSans-Bold-38"/>
    </g>
   </g>
  </g>
 </g>
</svg>
