<?xml version="1.0" encoding="utf-8" standalone="no"?>
<!DOCTYPE svg PUBLIC "-//W3C//DTD SVG 1.1//EN"
  "http://www.w3.org/Graphics/SVG/1.1/DTD/svg11.dtd">
<svg xmlns:xlink="http://www.w3.org/1999/xlink" width="223.65pt" height="174.26pt" viewBox="0 0 223.65 174.26" xmlns="http://www.w3.org/2000/svg" version="1.1">
 <metadata>
  <rdf:RDF xmlns:dc="http://purl.org/dc/elements/1.1/" xmlns:cc="http://creativecommons.org/ns#" xmlns:rdf="http://www.w3.org/1999/02/22-rdf-syntax-ns#">
   <cc:Work>
    <dc:type rdf:resource="http://purl.org/dc/dcmitype/StillImage"/>
    <dc:date>2025-12-31T11:30:26.084878</dc:date>
    <dc:format>image/svg+xml</dc:format>
    <dc:creator>
     <cc:Agent>
      <dc:title>Matplotlib v3.10.5, https://matplotlib.org/</dc:title>
     </cc:Agent>
    </dc:creator>
   </cc:Work>
  </rdf:RDF>
 </metadata>
 <defs>
  <style type="text/css">*{stroke-linejoin: round; stroke-linecap: butt}</style>
 </defs>
 <g id="figure_1">
  <g id="patch_1">
   <path d="M 0 174.26 
L 223.65 174.26 
L 223.65 0 
L 0 0 
L 0 174.26 
z
" style="fill: none"/>
  </g>
  <g id="axes_1">
   <g id="patch_2">
    <path d="M 7.2 48.78 
L 216.45 48.78 
L 216.45 7.2 
L 7.2 7.2 
L 7.2 48.78 
z
" style="fill: none"/>
   </g>
   <g id="matplotlib.axis_1">
    <g id="xtick_1"/>
    <g id="xtick_2"/>
    <g id="xtick_3"/>
    <g id="xtick_4"/>
   </g>
   <g id="matplotlib.axis_2"/>
   <g id="line2d_1">
    <path d="M 7.2 48.78 
L 216.45 48.78 
" style="fill: none; stroke: #482475; stroke-opacity: 0.9; stroke-linecap: round"/>
   </g>
   <g id="text_1">
    <!-- 0 -->
    <g style="fill: #482475" transform="translate(7.2 47.862) scale(0.12 -0.12)">
     <defs>
      <path id="IBMPlexSans-Bold-30" d="M 1920 -77 
Q 1043 -77 620 531 
Q 198 1139 198 2234 
Q 198 3328 620 3936 
Q 1043 4544 1920 4544 
Q 2797 4544 3219 3936 
Q 3642 3328 3642 2234 
Q 3642 1139 3219 531 
Q 2797 -77 1920 -77 
z
M 1920 736 
Q 2304 736 2451 1017 
Q 2598 1299 2598 1811 
L 2598 2656 
Q 2598 3168 2451 3449 
Q 2304 3731 1920 3731 
Q 1536 3731 1389 3449 
Q 1242 3168 1242 2656 
L 1242 1811 
Q 1242 1299 1389 1017 
Q 1536 736 1920 736 
z
" transform="scale(0.015625)"/>
     </defs>
     <use xlink:href="#IBMPlexSans-Bold-30"/>
    </g>
   </g>
  </g>
  <g id="axes_2">
   <g id="patch_3">
    <path d="M 7.2 59.175 
L 216.45 59.175 
L 216.45 17.595 
L 7.2 17.595 
L 7.2 59.175 
z
" style="fill: none"/>
   </g>
   <g id="matplotlib.axis_3">
    <g id="xtick_5"/>
    <g id="xtick_6"/>
    <g id="xtick_7"/>
    <g id="xtick_8"/>
   </g>
   <g id="matplotlib.axis_4"/>
   <g id="line2d_2">
    <path d="M 7.2 59.175 
L 216.45 59.175 
" style="fill: none; stroke: #482475; stroke-opacity: 0.9; stroke-linecap: round"/>
   </g>
   <g id="text_2">
    <!-- 1 -->
    <g style="fill: #482475" transform="translate(7.2 58.257) scale(0.12 -0.12)">
     <defs>
      <path id="IBMPlexSans-Bold-31" d="M 602 0 
L 602 774 
L 1805 774 
L 1805 3770 
L 1747 3770 
L 838 2579 
L 224 3059 
L 1293 4467 
L 2765 4467 
L 2765 774 
L 3712 774 
L 3712 0 
L 602 0 
z
" transform="scale(0.015625)"/>
     </defs>
     <use xlink:href="#IBMPlexSans-Bold-31"/>
    </g>
   </g>
  </g>
  <g id="axes_3">
   <g id="patch_4">
    <path d="M 7.2 69.57 
L 216.45 69.57 
L 216.45 27.99 
L 7.2 27.99 
L 7.2 69.57 
z
" style="fill: none"/>
   </g>
   <g id="matplotlib.axis_5">
    <g id="xtick_9"/>
    <g id="xtick_10"/>
    <g id="xtick_11"/>
    <g id="xtick_12"/>
   </g>
   <g id="matplotlib.axis_6"/>
   <g id="line2d_3">
    <path d="M 7.2 69.57 
L 216.45 69.57 
" style="fill: none; stroke: #482475; stroke-opacity: 0.9; stroke-linecap: round"/>
   </g>
   <g id="text_3">
    <!-- 2 -->
    <g style="fill: #482475" transform="translate(7.2 68.652) scale(0.12 -0.12)">
     <defs>
      <path id="IBMPlexSans-Bold-32" d="M 3526 0 
L 365 0 
L 365 877 
L 1741 2054 
Q 1926 2214 2054 2345 
Q 2182 2477 2262 2601 
Q 2342 2726 2377 2848 
Q 2413 2970 2413 3110 
L 2413 3200 
Q 2413 3328 2361 3424 
Q 2310 3520 2227 3584 
Q 2144 3648 2038 3680 
Q 1933 3712 1824 3712 
Q 1664 3712 1545 3661 
Q 1427 3610 1340 3523 
Q 1254 3437 1196 3325 
Q 1139 3213 1107 3085 
L 269 3405 
Q 346 3635 480 3843 
Q 614 4051 816 4208 
Q 1018 4365 1293 4454 
Q 1568 4544 1914 4544 
Q 2278 4544 2560 4441 
Q 2842 4339 3037 4160 
Q 3232 3981 3334 3734 
Q 3437 3488 3437 3200 
Q 3437 2912 3341 2675 
Q 3245 2438 3081 2230 
Q 2918 2022 2700 1836 
Q 2483 1651 2246 1459 
L 1414 806 
L 3526 806 
L 3526 0 
z
" transform="scale(0.015625)"/>
     </defs>
     <use xlink:href="#IBMPlexSans-Bold-32"/>
    </g>
   </g>
  </g>
  <g id="axes_4">
   <g id="patch_5">
    <path d="M 7.2 79.965 
L 216.45 79.965 
L 216.45 38.385 
L 7.2 38.385 
L 7.2 79.965 
z
" style="fill: none"/>
   </g>
   <g id="matplotlib.axis_7">
    <g id="xtick_13"/>
    <g id="xtick_14"/>
    <g id="xtick_15"/>
    <g id="xtick_16"/>
   </g>
   <g id="matplotlib.axis_8"/>
   <g id="line2d_4">
    <path d="M 7.2 79.965 
L 216.45 79.965 
" style="fill: none; stroke: #482475; stroke-opacity: 0.9; stroke-linecap: round"/>
   </g>
   <g id="text_4">
    <!-- 3 -->
    <g style="fill: #482475" transform="translate(7.2 79.047) scale(0.12 -0.12)">
     <defs>
      <path id="IBMPlexSans-Bold-33" d="M 1677 2701 
Q 2035 2701 2198 2838 
Q 2362 2976 2362 3181 
L 2362 3226 
Q 2362 3469 2205 3616 
Q 2048 3763 1760 3763 
Q 1491 3763 1254 3625 
Q 1018 3488 851 3232 
L 250 3795 
Q 378 3962 525 4099 
Q 672 4237 857 4336 
Q 1043 4435 1273 4489 
Q 1504 4544 1792 4544 
Q 2150 4544 2441 4461 
Q 2733 4378 2941 4221 
Q 3149 4064 3261 3846 
Q 3373 3629 3373 3360 
Q 3373 3149 3305 2976 
Q 3238 2803 3120 2675 
Q 3002 2547 2848 2467 
Q 2694 2387 2522 2355 
L 2522 2317 
Q 2720 2278 2889 2192 
Q 3059 2106 3184 1971 
Q 3309 1837 3379 1654 
Q 3450 1472 3450 1242 
Q 3450 941 3328 697 
Q 3206 454 2982 281 
Q 2758 109 2444 16 
Q 2131 -77 1754 -77 
Q 1414 -77 1152 -6 
Q 890 64 694 182 
Q 499 301 355 454 
Q 211 608 102 781 
L 813 1331 
Q 960 1056 1174 880 
Q 1389 704 1754 704 
Q 2080 704 2262 867 
Q 2445 1030 2445 1312 
L 2445 1350 
Q 2445 1626 2237 1763 
Q 2029 1901 1664 1901 
L 1261 1901 
L 1261 2701 
L 1677 2701 
z
" transform="scale(0.015625)"/>
     </defs>
     <use xlink:href="#IBMPlexSans-Bold-33"/>
    </g>
   </g>
  </g>
  <g id="axes_5">
   <g id="patch_6">
    <path d="M 7.2 90.36 
L 216.45 90.36 
L 216.45 48.78 
L 7.2 48.78 
L 7.2 90.36 
z
" style="fill: none"/>
   </g>
   <g id="matplotlib.axis_9">
    <g id="xtick_17"/>
    <g id="xtick_18"/>
    <g id="xtick_19"/>
    <g id="xtick_20"/>
   </g>
   <g id="matplotlib.axis_10"/>
   <g id="line2d_5">
    <path d="M 7.2 90.36 
L 216.45 90.36 
" style="fill: none; stroke: #482475; stroke-opacity: 0.9; stroke-linecap: round"/>
   </g>
   <g id="text_5">
    <!-- 4 -->
    <g style="fill: #482475" transform="translate(7.2 89.442) scale(0.12 -0.12)">
     <defs>
      <path id="IBMPlexSans-Bold-34" d="M 2157 0 
L 2157 858 
L 192 858 
L 192 1677 
L 1933 4467 
L 3072 4467 
L 3072 1600 
L 3635 1600 
L 3635 858 
L 3072 858 
L 3072 0 
L 2157 0 
z
M 960 1600 
L 2157 1600 
L 2157 3475 
L 2093 3475 
L 960 1600 
z
" transform="scale(0.015625)"/>
     </defs>
     <use xlink:href="#IBMPlexSans-Bold-34"/>
    </g>
   </g>
  </g>
  <g id="axes_6">
   <g id="patch_7">
    <path d="M 7.2 100.755 
L 216.45 100.755 
L 216.45 59.175 
L 7.2 59.175 
L 7.2 100.755 
z
" style="fill: none"/>
   </g>
   <g id="matplotlib.axis_11">
    <g id="xtick_21"/>
    <g id="xtick_22"/>
    <g id="xtick_23"/>
    <g id="xtick_24"/>
   </g>
   <g id="matplotlib.axis_12"/>
   <g id="FillBetweenPolyCollection_1">
    <defs>
     <path id="m37c3d0fecb" d="M 69.987979 -75.486393 
L 69.987979 -73.505 
L 70.224914 -73.505 
L 70.461849 -73.505 
L 70.698784 -73.505 
L 70.935719 -73.505 
L 71.172654 -73.505 
L 71.409589 -73.505 
L 71.646525 -73.505 
L 71.88346 -73.505 
L 72.120395 -73.505 
L 72.35733 -73.505 
L 72.594265 -73.505 
L 72.8312 -73.505 
L 73.068136 -73.505 
L 73.305071 -73.505 
L 73.542006 -73.505 
L 73.778941 -73.505 
L 74.015876 -73.505 
L 74.252811 -73.505 
L 74.489747 -73.505 
L 74.726682 -73.505 
L 74.963617 -73.505 
L 75.200552 -73.505 
L 75.437487 -73.505 
L 75.674422 -73.505 
L 75.911357 -73.505 
L 76.148293 -73.505 
L 76.385228 -73.505 
L 76.622163 -73.505 
L 76.859098 -73.505 
L 77.096033 -73.505 
L 77.332968 -73.505 
L 77.569904 -73.505 
L 77.806839 -73.505 
L 78.043774 -73.505 
L 78.280709 -73.505 
L 78.517644 -73.505 
L 78.754579 -73.505 
L 78.991515 -73.505 
L 79.22845 -73.505 
L 79.465385 -73.505 
L 79.70232 -73.505 
L 79.939255 -73.505 
L 80.17619 -73.505 
L 80.413125 -73.505 
L 80.650061 -73.505 
L 80.886996 -73.505 
L 81.123931 -73.505 
L 81.360866 -73.505 
L 81.597801 -73.505 
L 81.834736 -73.505 
L 82.071672 -73.505 
L 82.308607 -73.505 
L 82.545542 -73.505 
L 82.782477 -73.505 
L 83.019412 -73.505 
L 83.256347 -73.505 
L 83.493283 -73.505 
L 83.730218 -73.505 
L 83.967153 -73.505 
L 84.204088 -73.505 
L 84.441023 -73.505 
L 84.677958 -73.505 
L 84.914894 -73.505 
L 85.151829 -73.505 
L 85.388764 -73.505 
L 85.625699 -73.505 
L 85.862634 -73.505 
L 86.099569 -73.505 
L 86.336504 -73.505 
L 86.57344 -73.505 
L 86.810375 -73.505 
L 87.04731 -73.505 
L 87.284245 -73.505 
L 87.52118 -73.505 
L 87.758115 -73.505 
L 87.995051 -73.505 
L 88.231986 -73.505 
L 88.468921 -73.505 
L 88.705856 -73.505 
L 88.942791 -73.505 
L 89.179726 -73.505 
L 89.416662 -73.505 
L 89.653597 -73.505 
L 89.890532 -73.505 
L 90.127467 -73.505 
L 90.364402 -73.505 
L 90.601337 -73.505 
L 90.838272 -73.505 
L 91.075208 -73.505 
L 91.312143 -73.505 
L 91.549078 -73.505 
L 91.786013 -73.505 
L 92.022948 -73.505 
L 92.259883 -73.505 
L 92.496819 -73.505 
L 92.733754 -73.505 
L 92.970689 -73.505 
L 93.207624 -73.505 
L 93.444559 -73.505 
L 93.681494 -73.505 
L 93.91843 -73.505 
L 94.155365 -73.505 
L 94.3923 -73.505 
L 94.629235 -73.505 
L 94.86617 -73.505 
L 95.103105 -73.505 
L 95.34004 -73.505 
L 95.576976 -73.505 
L 95.813911 -73.505 
L 96.050846 -73.505 
L 96.287781 -73.505 
L 96.524716 -73.505 
L 96.761651 -73.505 
L 96.998587 -73.505 
L 97.235522 -73.505 
L 97.472457 -73.505 
L 97.709392 -73.505 
L 97.946327 -73.505 
L 98.183262 -73.505 
L 98.420198 -73.505 
L 98.657133 -73.505 
L 98.894068 -73.505 
L 99.131003 -73.505 
L 99.367938 -73.505 
L 99.604873 -73.505 
L 99.841809 -73.505 
L 100.078744 -73.505 
L 100.315679 -73.505 
L 100.552614 -73.505 
L 100.789549 -73.505 
L 101.026484 -73.505 
L 101.263419 -73.505 
L 101.500355 -73.505 
L 101.73729 -73.505 
L 101.974225 -73.505 
L 102.21116 -73.505 
L 102.448095 -73.505 
L 102.68503 -73.505 
L 102.921966 -73.505 
L 103.158901 -73.505 
L 103.395836 -73.505 
L 103.632771 -73.505 
L 103.869706 -73.505 
L 104.106641 -73.505 
L 104.343577 -73.505 
L 104.580512 -73.505 
L 104.817447 -73.505 
L 105.054382 -73.505 
L 105.291317 -73.505 
L 105.528252 -73.505 
L 105.765187 -73.505 
L 106.002123 -73.505 
L 106.239058 -73.505 
L 106.475993 -73.505 
L 106.712928 -73.505 
L 106.949863 -73.505 
L 107.186798 -73.505 
L 107.423734 -73.505 
L 107.660669 -73.505 
L 107.897604 -73.505 
L 108.134539 -73.505 
L 108.371474 -73.505 
L 108.608409 -73.505 
L 108.845345 -73.505 
L 109.08228 -73.505 
L 109.319215 -73.505 
L 109.55615 -73.505 
L 109.793085 -73.505 
L 110.03002 -73.505 
L 110.266955 -73.505 
L 110.503891 -73.505 
L 110.740826 -73.505 
L 110.977761 -73.505 
L 111.214696 -73.505 
L 111.451631 -73.505 
L 111.688566 -73.505 
L 111.925502 -73.505 
L 112.162437 -73.505 
L 112.399372 -73.505 
L 112.636307 -73.505 
L 112.873242 -73.505 
L 113.110177 -73.505 
L 113.347113 -73.505 
L 113.584048 -73.505 
L 113.820983 -73.505 
L 114.057918 -73.505 
L 114.294853 -73.505 
L 114.531788 -73.505 
L 114.768724 -73.505 
L 115.005659 -73.505 
L 115.242594 -73.505 
L 115.479529 -73.505 
L 115.716464 -73.505 
L 115.953399 -73.505 
L 116.190334 -73.505 
L 116.42727 -73.505 
L 116.664205 -73.505 
L 116.90114 -73.505 
L 117.138075 -73.505 
L 117.138075 -74.122112 
L 117.138075 -74.122112 
L 116.90114 -74.182858 
L 116.664205 -74.245777 
L 116.42727 -74.310496 
L 116.190334 -74.376616 
L 115.953399 -74.443729 
L 115.716464 -74.511431 
L 115.479529 -74.579336 
L 115.242594 -74.647098 
L 115.005659 -74.714421 
L 114.768724 -74.781081 
L 114.531788 -74.846937 
L 114.294853 -74.911945 
L 114.057918 -74.976164 
L 113.820983 -75.039769 
L 113.584048 -75.103047 
L 113.347113 -75.1664 
L 113.110177 -75.230336 
L 112.873242 -75.295465 
L 112.636307 -75.362477 
L 112.399372 -75.432132 
L 112.162437 -75.505238 
L 111.925502 -75.582629 
L 111.688566 -75.66514 
L 111.451631 -75.753581 
L 111.214696 -75.84872 
L 110.977761 -75.95125 
L 110.740826 -76.061773 
L 110.503891 -76.18078 
L 110.266955 -76.308634 
L 110.03002 -76.445556 
L 109.793085 -76.591621 
L 109.55615 -76.746747 
L 109.319215 -76.910702 
L 109.08228 -77.083103 
L 108.845345 -77.263425 
L 108.608409 -77.45102 
L 108.371474 -77.645123 
L 108.134539 -77.844879 
L 107.897604 -78.049363 
L 107.660669 -78.257601 
L 107.423734 -78.468598 
L 107.186798 -78.681365 
L 106.949863 -78.894939 
L 106.712928 -79.108413 
L 106.475993 -79.320956 
L 106.239058 -79.531832 
L 106.002123 -79.740422 
L 105.765187 -79.946232 
L 105.528252 -80.148907 
L 105.291317 -80.348232 
L 105.054382 -80.544135 
L 104.817447 -80.736681 
L 104.580512 -80.926066 
L 104.343577 -81.112601 
L 104.106641 -81.296698 
L 103.869706 -81.478852 
L 103.632771 -81.659618 
L 103.395836 -81.839592 
L 103.158901 -82.01939 
L 102.921966 -82.199629 
L 102.68503 -82.380908 
L 102.448095 -82.5638 
L 102.21116 -82.748836 
L 101.974225 -82.936508 
L 101.73729 -83.12727 
L 101.500355 -83.321541 
L 101.263419 -83.519725 
L 101.026484 -83.722226 
L 100.789549 -83.929471 
L 100.552614 -84.14194 
L 100.315679 -84.360194 
L 100.078744 -84.584905 
L 99.841809 -84.816888 
L 99.604873 -85.057128 
L 99.367938 -85.306806 
L 99.131003 -85.567314 
L 98.894068 -85.840271 
L 98.657133 -86.127526 
L 98.420198 -86.431146 
L 98.183262 -86.753407 
L 97.946327 -87.096761 
L 97.709392 -87.463798 
L 97.472457 -87.857197 
L 97.235522 -88.279666 
L 96.998587 -88.733873 
L 96.761651 -89.222369 
L 96.524716 -89.747511 
L 96.287781 -90.311372 
L 96.050846 -90.915662 
L 95.813911 -91.561641 
L 95.576976 -92.250043 
L 95.34004 -92.981006 
L 95.103105 -93.75401 
L 94.86617 -94.567831 
L 94.629235 -95.420504 
L 94.3923 -96.309304 
L 94.155365 -97.230745 
L 93.91843 -98.180594 
L 93.681494 -99.153901 
L 93.444559 -100.145053 
L 93.207624 -101.147829 
L 92.970689 -102.155486 
L 92.733754 -103.160846 
L 92.496819 -104.156402 
L 92.259883 -105.13442 
L 92.022948 -106.087064 
L 91.786013 -107.006509 
L 91.549078 -107.885062 
L 91.312143 -108.715283 
L 91.075208 -109.490094 
L 90.838272 -110.202894 
L 90.601337 -110.847651 
L 90.364402 -111.418998 
L 90.127467 -111.912307 
L 89.890532 -112.323753 
L 89.653597 -112.650366 
L 89.416662 -112.89007 
L 89.179726 -113.041698 
L 88.942791 -113.105 
L 88.705856 -113.080635 
L 88.468921 -112.970143 
L 88.231986 -112.775913 
L 87.995051 -112.501123 
L 87.758115 -112.149689 
L 87.52118 -111.726182 
L 87.284245 -111.235758 
L 87.04731 -110.684063 
L 86.810375 -110.077149 
L 86.57344 -109.421376 
L 86.336504 -108.723322 
L 86.099569 -107.989688 
L 85.862634 -107.227212 
L 85.625699 -106.44258 
L 85.388764 -105.642353 
L 85.151829 -104.832886 
L 84.914894 -104.020269 
L 84.677958 -103.210269 
L 84.441023 -102.408276 
L 84.204088 -101.619263 
L 83.967153 -100.847749 
L 83.730218 -100.097774 
L 83.493283 -99.37287 
L 83.256347 -98.676052 
L 83.019412 -98.009801 
L 82.782477 -97.376062 
L 82.545542 -96.776235 
L 82.308607 -96.211184 
L 82.071672 -95.681242 
L 81.834736 -95.186216 
L 81.597801 -94.725408 
L 81.360866 -94.297635 
L 81.123931 -93.901246 
L 80.886996 -93.534163 
L 80.650061 -93.193906 
L 80.413125 -92.877643 
L 80.17619 -92.582233 
L 79.939255 -92.304277 
L 79.70232 -92.04018 
L 79.465385 -91.786208 
L 79.22845 -91.538557 
L 78.991515 -91.293418 
L 78.754579 -91.047047 
L 78.517644 -90.795831 
L 78.280709 -90.536357 
L 78.043774 -90.26547 
L 77.806839 -89.980332 
L 77.569904 -89.678474 
L 77.332968 -89.357838 
L 77.096033 -89.016811 
L 76.859098 -88.654247 
L 76.622163 -88.269487 
L 76.385228 -87.86236 
L 76.148293 -87.433174 
L 75.911357 -86.982707 
L 75.674422 -86.512176 
L 75.437487 -86.023203 
L 75.200552 -85.517779 
L 74.963617 -84.998212 
L 74.726682 -84.467074 
L 74.489747 -83.927148 
L 74.252811 -83.38137 
L 74.015876 -82.832766 
L 73.778941 -82.284399 
L 73.542006 -81.73931 
L 73.305071 -81.200465 
L 73.068136 -80.670709 
L 72.8312 -80.152717 
L 72.594265 -79.648961 
L 72.35733 -79.161676 
L 72.120395 -78.692835 
L 71.88346 -78.244131 
L 71.646525 -77.816964 
L 71.409589 -77.412438 
L 71.172654 -77.031358 
L 70.935719 -76.674242 
L 70.698784 -76.341329 
L 70.461849 -76.032596 
L 70.224914 -75.747778 
L 69.987979 -75.486393 
z
" style="stroke: #414487; stroke-width: 1.25"/>
    </defs>
    <g>
     <use xlink:href="#m37c3d0fecb" x="0" y="174.26" style="fill: #414487; fill-opacity: 0.7; stroke: #414487; stroke-width: 1.25"/>
    </g>
   </g>
   <g id="line2d_6">
    <path d="M 7.2 100.755 
L 216.45 100.755 
" style="fill: none; stroke: #414487; stroke-opacity: 0.9; stroke-linecap: round"/>
   </g>
   <g id="text_6">
    <!-- 5 -->
    <g style="fill: #414487" transform="translate(7.2 99.837) scale(0.12 -0.12)">
     <defs>
      <path id="IBMPlexSans-Bold-35" d="M 3341 3629 
L 1312 3629 
L 1216 2214 
L 1267 2214 
Q 1331 2374 1411 2505 
Q 1491 2637 1600 2729 
Q 1709 2822 1862 2873 
Q 2016 2925 2227 2925 
Q 2515 2925 2764 2829 
Q 3014 2733 3200 2550 
Q 3386 2368 3494 2102 
Q 3603 1837 3603 1504 
Q 3603 1165 3491 873 
Q 3379 582 3158 371 
Q 2938 160 2618 41 
Q 2298 -77 1888 -77 
Q 1562 -77 1312 -6 
Q 1062 64 870 182 
Q 678 301 537 454 
Q 397 608 294 781 
L 992 1331 
Q 1139 1069 1344 886 
Q 1549 704 1894 704 
Q 2240 704 2416 902 
Q 2592 1101 2592 1427 
L 2592 1478 
Q 2592 1786 2413 1965 
Q 2234 2144 1920 2144 
Q 1658 2144 1488 2038 
Q 1318 1933 1229 1830 
L 442 1939 
L 608 4467 
L 3341 4467 
L 3341 3629 
z
" transform="scale(0.015625)"/>
     </defs>
     <use xlink:href="#IBMPlexSans-Bold-35"/>
    </g>
   </g>
  </g>
  <g id="axes_7">
   <g id="patch_8">
    <path d="M 7.2 111.15 
L 216.45 111.15 
L 216.45 69.57 
L 7.2 69.57 
L 7.2 111.15 
z
" style="fill: none"/>
   </g>
   <g id="matplotlib.axis_13">
    <g id="xtick_25"/>
    <g id="xtick_26"/>
    <g id="xtick_27"/>
    <g id="xtick_28"/>
   </g>
   <g id="matplotlib.axis_14"/>
   <g id="FillBetweenPolyCollection_2">
    <defs>
     <path id="m05e793926c" d="M 51.914743 -64.009696 
L 51.914743 -63.11 
L 52.393659 -63.11 
L 52.872575 -63.11 
L 53.351491 -63.11 
L 53.830407 -63.11 
L 54.309323 -63.11 
L 54.788239 -63.11 
L 55.267155 -63.11 
L 55.746071 -63.11 
L 56.224987 -63.11 
L 56.703903 -63.11 
L 57.182819 -63.11 
L 57.661735 -63.11 
L 58.140651 -63.11 
L 58.619567 -63.11 
L 59.098483 -63.11 
L 59.577399 -63.11 
L 60.056315 -63.11 
L 60.535231 -63.11 
L 61.014147 -63.11 
L 61.493063 -63.11 
L 61.971979 -63.11 
L 62.450895 -63.11 
L 62.929811 -63.11 
L 63.408727 -63.11 
L 63.887643 -63.11 
L 64.366559 -63.11 
L 64.845475 -63.11 
L 65.324391 -63.11 
L 65.803307 -63.11 
L 66.282223 -63.11 
L 66.761139 -63.11 
L 67.240055 -63.11 
L 67.718971 -63.11 
L 68.197887 -63.11 
L 68.676803 -63.11 
L 69.155719 -63.11 
L 69.634635 -63.11 
L 70.113551 -63.11 
L 70.592467 -63.11 
L 71.071383 -63.11 
L 71.550299 -63.11 
L 72.029215 -63.11 
L 72.508131 -63.11 
L 72.987047 -63.11 
L 73.465963 -63.11 
L 73.944879 -63.11 
L 74.423795 -63.11 
L 74.902711 -63.11 
L 75.381627 -63.11 
L 75.860543 -63.11 
L 76.339459 -63.11 
L 76.818375 -63.11 
L 77.297291 -63.11 
L 77.776207 -63.11 
L 78.255123 -63.11 
L 78.734039 -63.11 
L 79.212955 -63.11 
L 79.691871 -63.11 
L 80.170787 -63.11 
L 80.649703 -63.11 
L 81.128619 -63.11 
L 81.607535 -63.11 
L 82.086451 -63.11 
L 82.565367 -63.11 
L 83.044283 -63.11 
L 83.523199 -63.11 
L 84.002115 -63.11 
L 84.481031 -63.11 
L 84.959947 -63.11 
L 85.438863 -63.11 
L 85.917779 -63.11 
L 86.396695 -63.11 
L 86.875611 -63.11 
L 87.354527 -63.11 
L 87.833443 -63.11 
L 88.312359 -63.11 
L 88.791275 -63.11 
L 89.270191 -63.11 
L 89.749107 -63.11 
L 90.228023 -63.11 
L 90.706939 -63.11 
L 91.185855 -63.11 
L 91.664771 -63.11 
L 92.143687 -63.11 
L 92.622603 -63.11 
L 93.101519 -63.11 
L 93.580435 -63.11 
L 94.059351 -63.11 
L 94.538267 -63.11 
L 95.017182 -63.11 
L 95.496098 -63.11 
L 95.975014 -63.11 
L 96.45393 -63.11 
L 96.932846 -63.11 
L 97.411762 -63.11 
L 97.890678 -63.11 
L 98.369594 -63.11 
L 98.84851 -63.11 
L 99.327426 -63.11 
L 99.806342 -63.11 
L 100.285258 -63.11 
L 100.764174 -63.11 
L 101.24309 -63.11 
L 101.722006 -63.11 
L 102.200922 -63.11 
L 102.679838 -63.11 
L 103.158754 -63.11 
L 103.63767 -63.11 
L 104.116586 -63.11 
L 104.595502 -63.11 
L 105.074418 -63.11 
L 105.553334 -63.11 
L 106.03225 -63.11 
L 106.511166 -63.11 
L 106.990082 -63.11 
L 107.468998 -63.11 
L 107.947914 -63.11 
L 108.42683 -63.11 
L 108.905746 -63.11 
L 109.384662 -63.11 
L 109.863578 -63.11 
L 110.342494 -63.11 
L 110.82141 -63.11 
L 111.300326 -63.11 
L 111.779242 -63.11 
L 112.258158 -63.11 
L 112.737074 -63.11 
L 113.21599 -63.11 
L 113.694906 -63.11 
L 114.173822 -63.11 
L 114.652738 -63.11 
L 115.131654 -63.11 
L 115.61057 -63.11 
L 116.089486 -63.11 
L 116.568402 -63.11 
L 117.047318 -63.11 
L 117.526234 -63.11 
L 118.00515 -63.11 
L 118.484066 -63.11 
L 118.962982 -63.11 
L 119.441898 -63.11 
L 119.920814 -63.11 
L 120.39973 -63.11 
L 120.878646 -63.11 
L 121.357562 -63.11 
L 121.836478 -63.11 
L 122.315394 -63.11 
L 122.79431 -63.11 
L 123.273226 -63.11 
L 123.752142 -63.11 
L 124.231058 -63.11 
L 124.709974 -63.11 
L 125.18889 -63.11 
L 125.667806 -63.11 
L 126.146722 -63.11 
L 126.625638 -63.11 
L 127.104554 -63.11 
L 127.58347 -63.11 
L 128.062386 -63.11 
L 128.541302 -63.11 
L 129.020218 -63.11 
L 129.499134 -63.11 
L 129.97805 -63.11 
L 130.456966 -63.11 
L 130.935882 -63.11 
L 131.414798 -63.11 
L 131.893714 -63.11 
L 132.37263 -63.11 
L 132.851546 -63.11 
L 133.330462 -63.11 
L 133.809378 -63.11 
L 134.288294 -63.11 
L 134.76721 -63.11 
L 135.246126 -63.11 
L 135.725042 -63.11 
L 136.203958 -63.11 
L 136.682874 -63.11 
L 137.16179 -63.11 
L 137.640706 -63.11 
L 138.119622 -63.11 
L 138.598538 -63.11 
L 139.077454 -63.11 
L 139.55637 -63.11 
L 140.035286 -63.11 
L 140.514202 -63.11 
L 140.993118 -63.11 
L 141.472034 -63.11 
L 141.95095 -63.11 
L 142.429866 -63.11 
L 142.908782 -63.11 
L 143.387698 -63.11 
L 143.866614 -63.11 
L 144.34553 -63.11 
L 144.824446 -63.11 
L 145.303362 -63.11 
L 145.782278 -63.11 
L 146.261194 -63.11 
L 146.74011 -63.11 
L 147.219026 -63.11 
L 147.219026 -63.374852 
L 147.219026 -63.374852 
L 146.74011 -63.401826 
L 146.261194 -63.429914 
L 145.782278 -63.458966 
L 145.303362 -63.488817 
L 144.824446 -63.519291 
L 144.34553 -63.550215 
L 143.866614 -63.581415 
L 143.387698 -63.612732 
L 142.908782 -63.644022 
L 142.429866 -63.675171 
L 141.95095 -63.706095 
L 141.472034 -63.736749 
L 140.993118 -63.767135 
L 140.514202 -63.797302 
L 140.035286 -63.827351 
L 139.55637 -63.857435 
L 139.077454 -63.88776 
L 138.598538 -63.91858 
L 138.119622 -63.950196 
L 137.640706 -63.982946 
L 137.16179 -64.017202 
L 136.682874 -64.053354 
L 136.203958 -64.091809 
L 135.725042 -64.132972 
L 135.246126 -64.177238 
L 134.76721 -64.224981 
L 134.288294 -64.276541 
L 133.809378 -64.332215 
L 133.330462 -64.392244 
L 132.851546 -64.45681 
L 132.37263 -64.526025 
L 131.893714 -64.599929 
L 131.414798 -64.678485 
L 130.935882 -64.761578 
L 130.456966 -64.849018 
L 129.97805 -64.940545 
L 129.499134 -65.035831 
L 129.020218 -65.134487 
L 128.541302 -65.236077 
L 128.062386 -65.340125 
L 127.58347 -65.446125 
L 127.104554 -65.55356 
L 126.625638 -65.661907 
L 126.146722 -65.770656 
L 125.667806 -65.87932 
L 125.18889 -65.987448 
L 124.709974 -66.094636 
L 124.231058 -66.200535 
L 123.752142 -66.304862 
L 123.273226 -66.407402 
L 122.79431 -66.508014 
L 122.315394 -66.606632 
L 121.836478 -66.703265 
L 121.357562 -66.797991 
L 120.878646 -66.890956 
L 120.39973 -66.982363 
L 119.920814 -67.072468 
L 119.441898 -67.161567 
L 118.962982 -67.249989 
L 118.484066 -67.338083 
L 118.00515 -67.426212 
L 117.526234 -67.514744 
L 117.047318 -67.604043 
L 116.568402 -67.694463 
L 116.089486 -67.786349 
L 115.61057 -67.880035 
L 115.131654 -67.975842 
L 114.652738 -68.074087 
L 114.173822 -68.175089 
L 113.694906 -68.279175 
L 113.21599 -68.386692 
L 112.737074 -68.498023 
L 112.258158 -68.613594 
L 111.779242 -68.733887 
L 111.300326 -68.859456 
L 110.82141 -68.990935 
L 110.342494 -69.129045 
L 109.863578 -69.274601 
L 109.384662 -69.428512 
L 108.905746 -69.591776 
L 108.42683 -69.765478 
L 107.947914 -69.950768 
L 107.468998 -70.148849 
L 106.990082 -70.360952 
L 106.511166 -70.588303 
L 106.03225 -70.832094 
L 105.553334 -71.093444 
L 105.074418 -71.373361 
L 104.595502 -71.672699 
L 104.116586 -71.992118 
L 103.63767 -72.332042 
L 103.158754 -72.692626 
L 102.679838 -73.073719 
L 102.200922 -73.474839 
L 101.722006 -73.895148 
L 101.24309 -74.333444 
L 100.764174 -74.788151 
L 100.285258 -75.257325 
L 99.806342 -75.738664 
L 99.327426 -76.229532 
L 98.84851 -76.726982 
L 98.369594 -77.227801 
L 97.890678 -77.728542 
L 97.411762 -78.225582 
L 96.932846 -78.715166 
L 96.45393 -79.193471 
L 95.975014 -79.656653 
L 95.496098 -80.100912 
L 95.017182 -80.522546 
L 94.538267 -80.918006 
L 94.059351 -81.283947 
L 93.580435 -81.617279 
L 93.101519 -81.915212 
L 92.622603 -82.175293 
L 92.143687 -82.395443 
L 91.664771 -82.573983 
L 91.185855 -82.709658 
L 90.706939 -82.801655 
L 90.228023 -82.849607 
L 89.749107 -82.8536 
L 89.270191 -82.814166 
L 88.791275 -82.732271 
L 88.312359 -82.609299 
L 87.833443 -82.447024 
L 87.354527 -82.247582 
L 86.875611 -82.013434 
L 86.396695 -81.747322 
L 85.917779 -81.452229 
L 85.438863 -81.131329 
L 84.959947 -80.787936 
L 84.481031 -80.425457 
L 84.002115 -80.047344 
L 83.523199 -79.657039 
L 83.044283 -79.257939 
L 82.565367 -78.853344 
L 82.086451 -78.446426 
L 81.607535 -78.040194 
L 81.128619 -77.637464 
L 80.649703 -77.240836 
L 80.170787 -76.852672 
L 79.691871 -76.475087 
L 79.212955 -76.109932 
L 78.734039 -75.758788 
L 78.255123 -75.422966 
L 77.776207 -75.103495 
L 77.297291 -74.801135 
L 76.818375 -74.516365 
L 76.339459 -74.2494 
L 75.860543 -74.000186 
L 75.381627 -73.76841 
L 74.902711 -73.55351 
L 74.423795 -73.354685 
L 73.944879 -73.170905 
L 73.465963 -73.00093 
L 72.987047 -72.843328 
L 72.508131 -72.696493 
L 72.029215 -72.558676 
L 71.550299 -72.428008 
L 71.071383 -72.302535 
L 70.592467 -72.180249 
L 70.113551 -72.059127 
L 69.634635 -71.937165 
L 69.155719 -71.81242 
L 68.676803 -71.683046 
L 68.197887 -71.547331 
L 67.718971 -71.40373 
L 67.240055 -71.250898 
L 66.761139 -71.087715 
L 66.282223 -70.913308 
L 65.803307 -70.727068 
L 65.324391 -70.528659 
L 64.845475 -70.318021 
L 64.366559 -70.095371 
L 63.887643 -69.861187 
L 63.408727 -69.616199 
L 62.929811 -69.361367 
L 62.450895 -69.097854 
L 61.971979 -68.826998 
L 61.493063 -68.550282 
L 61.014147 -68.269297 
L 60.535231 -67.985706 
L 60.056315 -67.701214 
L 59.577399 -67.417526 
L 59.098483 -67.13632 
L 58.619567 -66.859214 
L 58.140651 -66.587738 
L 57.661735 -66.323311 
L 57.182819 -66.067221 
L 56.703903 -65.820609 
L 56.224987 -65.584454 
L 55.746071 -65.359573 
L 55.267155 -65.146609 
L 54.788239 -64.946038 
L 54.309323 -64.758168 
L 53.830407 -64.583152 
L 53.351491 -64.420991 
L 52.872575 -64.271551 
L 52.393659 -64.134574 
L 51.914743 -64.009696 
z
" style="stroke: #355f8d; stroke-width: 1.25"/>
    </defs>
    <g>
     <use xlink:href="#m05e793926c" x="0" y="174.26" style="fill: #355f8d; fill-opacity: 0.7; stroke: #355f8d; stroke-width: 1.25"/>
    </g>
   </g>
   <g id="line2d_7">
    <path d="M 7.2 111.15 
L 216.45 111.15 
" style="fill: none; stroke: #355f8d; stroke-opacity: 0.9; stroke-linecap: round"/>
   </g>
   <g id="text_7">
    <!-- 6 -->
    <g style="fill: #355f8d" transform="translate(7.2 110.232) scale(0.12 -0.12)">
     <defs>
      <path id="IBMPlexSans-Bold-36" d="M 1946 -77 
Q 1549 -77 1235 48 
Q 922 173 707 406 
Q 493 640 381 966 
Q 269 1293 269 1696 
Q 269 2163 413 2582 
Q 557 3002 784 3357 
Q 1011 3712 1296 3993 
Q 1581 4275 1869 4467 
L 3194 4467 
Q 2784 4173 2457 3907 
Q 2131 3642 1891 3373 
Q 1651 3104 1494 2825 
Q 1338 2547 1274 2227 
L 1331 2208 
Q 1389 2336 1469 2457 
Q 1549 2579 1667 2672 
Q 1786 2765 1946 2822 
Q 2106 2880 2317 2880 
Q 2592 2880 2832 2781 
Q 3072 2682 3248 2502 
Q 3424 2323 3523 2064 
Q 3622 1805 3622 1491 
Q 3622 1146 3504 858 
Q 3386 570 3165 362 
Q 2944 154 2637 38 
Q 2330 -77 1946 -77 
z
M 1946 672 
Q 2266 672 2445 848 
Q 2624 1024 2624 1350 
L 2624 1466 
Q 2624 1792 2445 1968 
Q 2266 2144 1946 2144 
Q 1626 2144 1446 1968 
Q 1267 1792 1267 1466 
L 1267 1350 
Q 1267 1024 1446 848 
Q 1626 672 1946 672 
z
" transform="scale(0.015625)"/>
     </defs>
     <use xlink:href="#IBMPlexSans-Bold-36"/>
    </g>
   </g>
  </g>
  <g id="axes_8">
   <g id="patch_9">
    <path d="M 7.2 121.545 
L 216.45 121.545 
L 216.45 79.965 
L 7.2 79.965 
L 7.2 121.545 
z
" style="fill: none"/>
   </g>
   <g id="matplotlib.axis_15">
    <g id="xtick_29"/>
    <g id="xtick_30"/>
    <g id="xtick_31"/>
    <g id="xtick_32"/>
   </g>
   <g id="matplotlib.axis_16"/>
   <g id="FillBetweenPolyCollection_3">
    <defs>
     <path id="m9e8233a5a9" d="M 34.022614 -53.28483 
L 34.022614 -52.715 
L 34.744318 -52.715 
L 35.466021 -52.715 
L 36.187724 -52.715 
L 36.909427 -52.715 
L 37.63113 -52.715 
L 38.352834 -52.715 
L 39.074537 -52.715 
L 39.79624 -52.715 
L 40.517943 -52.715 
L 41.239646 -52.715 
L 41.961349 -52.715 
L 42.683053 -52.715 
L 43.404756 -52.715 
L 44.126459 -52.715 
L 44.848162 -52.715 
L 45.569865 -52.715 
L 46.291569 -52.715 
L 47.013272 -52.715 
L 47.734975 -52.715 
L 48.456678 -52.715 
L 49.178381 -52.715 
L 49.900085 -52.715 
L 50.621788 -52.715 
L 51.343491 -52.715 
L 52.065194 -52.715 
L 52.786897 -52.715 
L 53.5086 -52.715 
L 54.230304 -52.715 
L 54.952007 -52.715 
L 55.67371 -52.715 
L 56.395413 -52.715 
L 57.117116 -52.715 
L 57.83882 -52.715 
L 58.560523 -52.715 
L 59.282226 -52.715 
L 60.003929 -52.715 
L 60.725632 -52.715 
L 61.447336 -52.715 
L 62.169039 -52.715 
L 62.890742 -52.715 
L 63.612445 -52.715 
L 64.334148 -52.715 
L 65.055851 -52.715 
L 65.777555 -52.715 
L 66.499258 -52.715 
L 67.220961 -52.715 
L 67.942664 -52.715 
L 68.664367 -52.715 
L 69.386071 -52.715 
L 70.107774 -52.715 
L 70.829477 -52.715 
L 71.55118 -52.715 
L 72.272883 -52.715 
L 72.994587 -52.715 
L 73.71629 -52.715 
L 74.437993 -52.715 
L 75.159696 -52.715 
L 75.881399 -52.715 
L 76.603102 -52.715 
L 77.324806 -52.715 
L 78.046509 -52.715 
L 78.768212 -52.715 
L 79.489915 -52.715 
L 80.211618 -52.715 
L 80.933322 -52.715 
L 81.655025 -52.715 
L 82.376728 -52.715 
L 83.098431 -52.715 
L 83.820134 -52.715 
L 84.541838 -52.715 
L 85.263541 -52.715 
L 85.985244 -52.715 
L 86.706947 -52.715 
L 87.42865 -52.715 
L 88.150354 -52.715 
L 88.872057 -52.715 
L 89.59376 -52.715 
L 90.315463 -52.715 
L 91.037166 -52.715 
L 91.758869 -52.715 
L 92.480573 -52.715 
L 93.202276 -52.715 
L 93.923979 -52.715 
L 94.645682 -52.715 
L 95.367385 -52.715 
L 96.089089 -52.715 
L 96.810792 -52.715 
L 97.532495 -52.715 
L 98.254198 -52.715 
L 98.975901 -52.715 
L 99.697605 -52.715 
L 100.419308 -52.715 
L 101.141011 -52.715 
L 101.862714 -52.715 
L 102.584417 -52.715 
L 103.30612 -52.715 
L 104.027824 -52.715 
L 104.749527 -52.715 
L 105.47123 -52.715 
L 106.192933 -52.715 
L 106.914636 -52.715 
L 107.63634 -52.715 
L 108.358043 -52.715 
L 109.079746 -52.715 
L 109.801449 -52.715 
L 110.523152 -52.715 
L 111.244856 -52.715 
L 111.966559 -52.715 
L 112.688262 -52.715 
L 113.409965 -52.715 
L 114.131668 -52.715 
L 114.853371 -52.715 
L 115.575075 -52.715 
L 116.296778 -52.715 
L 117.018481 -52.715 
L 117.740184 -52.715 
L 118.461887 -52.715 
L 119.183591 -52.715 
L 119.905294 -52.715 
L 120.626997 -52.715 
L 121.3487 -52.715 
L 122.070403 -52.715 
L 122.792107 -52.715 
L 123.51381 -52.715 
L 124.235513 -52.715 
L 124.957216 -52.715 
L 125.678919 -52.715 
L 126.400622 -52.715 
L 127.122326 -52.715 
L 127.844029 -52.715 
L 128.565732 -52.715 
L 129.287435 -52.715 
L 130.009138 -52.715 
L 130.730842 -52.715 
L 131.452545 -52.715 
L 132.174248 -52.715 
L 132.895951 -52.715 
L 133.617654 -52.715 
L 134.339358 -52.715 
L 135.061061 -52.715 
L 135.782764 -52.715 
L 136.504467 -52.715 
L 137.22617 -52.715 
L 137.947873 -52.715 
L 138.669577 -52.715 
L 139.39128 -52.715 
L 140.112983 -52.715 
L 140.834686 -52.715 
L 141.556389 -52.715 
L 142.278093 -52.715 
L 142.999796 -52.715 
L 143.721499 -52.715 
L 144.443202 -52.715 
L 145.164905 -52.715 
L 145.886609 -52.715 
L 146.608312 -52.715 
L 147.330015 -52.715 
L 148.051718 -52.715 
L 148.773421 -52.715 
L 149.495124 -52.715 
L 150.216828 -52.715 
L 150.938531 -52.715 
L 151.660234 -52.715 
L 152.381937 -52.715 
L 153.10364 -52.715 
L 153.825344 -52.715 
L 154.547047 -52.715 
L 155.26875 -52.715 
L 155.990453 -52.715 
L 156.712156 -52.715 
L 157.43386 -52.715 
L 158.155563 -52.715 
L 158.877266 -52.715 
L 159.598969 -52.715 
L 160.320672 -52.715 
L 161.042375 -52.715 
L 161.764079 -52.715 
L 162.485782 -52.715 
L 163.207485 -52.715 
L 163.929188 -52.715 
L 164.650891 -52.715 
L 165.372595 -52.715 
L 166.094298 -52.715 
L 166.816001 -52.715 
L 167.537704 -52.715 
L 168.259407 -52.715 
L 168.981111 -52.715 
L 169.702814 -52.715 
L 170.424517 -52.715 
L 171.14622 -52.715 
L 171.867923 -52.715 
L 172.589626 -52.715 
L 173.31133 -52.715 
L 174.033033 -52.715 
L 174.754736 -52.715 
L 175.476439 -52.715 
L 176.198142 -52.715 
L 176.919846 -52.715 
L 177.641549 -52.715 
L 177.641549 -52.882824 
L 177.641549 -52.882824 
L 176.919846 -52.899888 
L 176.198142 -52.917635 
L 175.476439 -52.935964 
L 174.754736 -52.954762 
L 174.033033 -52.973913 
L 173.31133 -52.993297 
L 172.589626 -53.012797 
L 171.867923 -53.032303 
L 171.14622 -53.051715 
L 170.424517 -53.070952 
L 169.702814 -53.089953 
L 168.981111 -53.108683 
L 168.259407 -53.127137 
L 167.537704 -53.14534 
L 166.816001 -53.163356 
L 166.094298 -53.181281 
L 165.372595 -53.19925 
L 164.650891 -53.217431 
L 163.929188 -53.236027 
L 163.207485 -53.255266 
L 162.485782 -53.275404 
L 161.764079 -53.296716 
L 161.042375 -53.319486 
L 160.320672 -53.344005 
L 159.598969 -53.370562 
L 158.877266 -53.399433 
L 158.155563 -53.430879 
L 157.43386 -53.465131 
L 156.712156 -53.50239 
L 155.990453 -53.542815 
L 155.26875 -53.586521 
L 154.547047 -53.633573 
L 153.825344 -53.683986 
L 153.10364 -53.737718 
L 152.381937 -53.794675 
L 151.660234 -53.854709 
L 150.938531 -53.917624 
L 150.216828 -53.983176 
L 149.495124 -54.05108 
L 148.773421 -54.12102 
L 148.051718 -54.19265 
L 147.330015 -54.265608 
L 146.608312 -54.339521 
L 145.886609 -54.414014 
L 145.164905 -54.488724 
L 144.443202 -54.563302 
L 143.721499 -54.637423 
L 142.999796 -54.710798 
L 142.278093 -54.783176 
L 141.556389 -54.854349 
L 140.834686 -54.924159 
L 140.112983 -54.992499 
L 139.39128 -55.059314 
L 138.669577 -55.124602 
L 137.947873 -55.188409 
L 137.22617 -55.25083 
L 136.504467 -55.312002 
L 135.782764 -55.372099 
L 135.061061 -55.431329 
L 134.339358 -55.489921 
L 133.617654 -55.548128 
L 132.895951 -55.606214 
L 132.174248 -55.664449 
L 131.452545 -55.72311 
L 130.730842 -55.78247 
L 130.009138 -55.842802 
L 129.287435 -55.904374 
L 128.565732 -55.967452 
L 127.844029 -56.032303 
L 127.122326 -56.099195 
L 126.400622 -56.168406 
L 125.678919 -56.240229 
L 124.957216 -56.314975 
L 124.235513 -56.392987 
L 123.51381 -56.474639 
L 122.792107 -56.560349 
L 122.070403 -56.650581 
L 121.3487 -56.74585 
L 120.626997 -56.846725 
L 119.905294 -56.953824 
L 119.183591 -57.06782 
L 118.461887 -57.189425 
L 117.740184 -57.319387 
L 117.018481 -57.458474 
L 116.296778 -57.607459 
L 115.575075 -57.767102 
L 114.853371 -57.938126 
L 114.131668 -58.121193 
L 113.409965 -58.31688 
L 112.688262 -58.525653 
L 111.966559 -58.747836 
L 111.244856 -58.983594 
L 110.523152 -59.232901 
L 109.801449 -59.495528 
L 109.079746 -59.771021 
L 108.358043 -60.058694 
L 107.63634 -60.357618 
L 106.914636 -60.666626 
L 106.192933 -60.98431 
L 105.47123 -61.309042 
L 104.749527 -61.638982 
L 104.027824 -61.972101 
L 103.30612 -62.30621 
L 102.584417 -62.638986 
L 101.862714 -62.968007 
L 101.141011 -63.290783 
L 100.419308 -63.604797 
L 99.697605 -63.907535 
L 98.975901 -64.196529 
L 98.254198 -64.469386 
L 97.532495 -64.723827 
L 96.810792 -64.957714 
L 96.089089 -65.169085 
L 95.367385 -65.356175 
L 94.645682 -65.517446 
L 93.923979 -65.651607 
L 93.202276 -65.757627 
L 92.480573 -65.834757 
L 91.758869 -65.882536 
L 91.037166 -65.900798 
L 90.315463 -65.889677 
L 89.59376 -65.849603 
L 88.872057 -65.781296 
L 88.150354 -65.685755 
L 87.42865 -65.564242 
L 86.706947 -65.418263 
L 85.985244 -65.249545 
L 85.263541 -65.060005 
L 84.541838 -64.851721 
L 83.820134 -64.6269 
L 83.098431 -64.387843 
L 82.376728 -64.136908 
L 81.655025 -63.876476 
L 80.933322 -63.60892 
L 80.211618 -63.336568 
L 79.489915 -63.061675 
L 78.768212 -62.7864 
L 78.046509 -62.512778 
L 77.324806 -62.2427 
L 76.603102 -61.977903 
L 75.881399 -61.719948 
L 75.159696 -61.470217 
L 74.437993 -61.229904 
L 73.71629 -61.000011 
L 72.994587 -60.781341 
L 72.272883 -60.574505 
L 71.55118 -60.379915 
L 70.829477 -60.197788 
L 70.107774 -60.028152 
L 69.386071 -59.870844 
L 68.664367 -59.725517 
L 67.942664 -59.591651 
L 67.220961 -59.468552 
L 66.499258 -59.355369 
L 65.777555 -59.251105 
L 65.055851 -59.154629 
L 64.334148 -59.064699 
L 63.612445 -58.979975 
L 62.890742 -58.899047 
L 62.169039 -58.820461 
L 61.447336 -58.742741 
L 60.725632 -58.664421 
L 60.003929 -58.584077 
L 59.282226 -58.500347 
L 58.560523 -58.411971 
L 57.83882 -58.317808 
L 57.117116 -58.216866 
L 56.395413 -58.108321 
L 55.67371 -57.991531 
L 54.952007 -57.866055 
L 54.230304 -57.731655 
L 53.5086 -57.5883 
L 52.786897 -57.436167 
L 52.065194 -57.275627 
L 51.343491 -57.107238 
L 50.621788 -56.93173 
L 49.900085 -56.749977 
L 49.178381 -56.562984 
L 48.456678 -56.371857 
L 47.734975 -56.177775 
L 47.013272 -55.981967 
L 46.291569 -55.785682 
L 45.569865 -55.590166 
L 44.848162 -55.396633 
L 44.126459 -55.206247 
L 43.404756 -55.020098 
L 42.683053 -54.839189 
L 41.961349 -54.664419 
L 41.239646 -54.496574 
L 40.517943 -54.336318 
L 39.79624 -54.18419 
L 39.074537 -54.040605 
L 38.352834 -53.905851 
L 37.63113 -53.780098 
L 36.909427 -53.6634 
L 36.187724 -53.55571 
L 35.466021 -53.456883 
L 34.744318 -53.36669 
L 34.022614 -53.28483 
z
" style="stroke: #2a788e; stroke-width: 1.25"/>
    </defs>
    <g>
     <use xlink:href="#m9e8233a5a9" x="0" y="174.26" style="fill: #2a788e; fill-opacity: 0.7; stroke: #2a788e; stroke-width: 1.25"/>
    </g>
   </g>
   <g id="line2d_8">
    <path d="M 7.2 121.545 
L 216.45 121.545 
" style="fill: none; stroke: #2a788e; stroke-opacity: 0.9; stroke-linecap: round"/>
   </g>
   <g id="text_8">
    <!-- 7 -->
    <g style="fill: #2a788e" transform="translate(7.2 120.627) scale(0.12 -0.12)">
     <defs>
      <path id="IBMPlexSans-Bold-37" d="M 1062 0 
L 2560 3686 
L 1165 3686 
L 1165 2874 
L 352 2874 
L 352 4467 
L 3514 4467 
L 3514 3635 
L 2074 0 
L 1062 0 
z
" transform="scale(0.015625)"/>
     </defs>
     <use xlink:href="#IBMPlexSans-Bold-37"/>
    </g>
   </g>
  </g>
  <g id="axes_9">
   <g id="patch_10">
    <path d="M 7.2 131.94 
L 216.45 131.94 
L 216.45 90.36 
L 7.2 90.36 
L 7.2 131.94 
z
" style="fill: none"/>
   </g>
   <g id="matplotlib.axis_17">
    <g id="xtick_33">
     <g id="text_9">
      <!-- −2.5 -->
      <g style="fill: #838383" transform="translate(32.021767 149.58) scale(0.11 -0.11)">
       <defs>
        <path id="IBMPlexSans-Regular-2212" d="M 429 1734 
L 429 2170 
L 3411 2170 
L 3411 1734 
L 429 1734 
z
" transform="scale(0.015625)"/>
        <path id="IBMPlexSans-Regular-32" d="M 3411 0 
L 480 0 
L 480 550 
L 1939 1894 
Q 2253 2182 2464 2505 
Q 2675 2829 2675 3155 
L 2675 3232 
Q 2675 3603 2470 3833 
Q 2266 4064 1850 4064 
Q 1645 4064 1491 4006 
Q 1338 3949 1226 3846 
Q 1114 3744 1040 3606 
Q 966 3469 922 3309 
L 442 3494 
Q 506 3693 618 3881 
Q 730 4070 899 4217 
Q 1069 4365 1309 4454 
Q 1549 4544 1875 4544 
Q 2202 4544 2458 4448 
Q 2714 4352 2886 4179 
Q 3059 4006 3152 3769 
Q 3245 3533 3245 3245 
Q 3245 2982 3171 2758 
Q 3098 2534 2970 2332 
Q 2842 2131 2659 1939 
Q 2477 1747 2266 1555 
L 1062 474 
L 3411 474 
L 3411 0 
z
" transform="scale(0.015625)"/>
        <path id="IBMPlexSans-Regular-2e" d="M 870 -77 
Q 666 -77 573 25 
Q 480 128 480 294 
L 480 378 
Q 480 544 573 646 
Q 666 749 870 749 
Q 1075 749 1168 646 
Q 1261 544 1261 378 
L 1261 294 
Q 1261 128 1168 25 
Q 1075 -77 870 -77 
z
" transform="scale(0.015625)"/>
        <path id="IBMPlexSans-Regular-35" d="M 3187 3994 
L 1229 3994 
L 1101 2291 
L 1146 2291 
Q 1306 2515 1507 2649 
Q 1709 2784 2061 2784 
Q 2349 2784 2592 2688 
Q 2835 2592 3014 2416 
Q 3194 2240 3293 1984 
Q 3392 1728 3392 1402 
Q 3392 1075 3289 803 
Q 3187 531 2992 336 
Q 2797 141 2518 32 
Q 2240 -77 1888 -77 
Q 1606 -77 1392 -13 
Q 1178 51 1011 160 
Q 845 269 720 403 
Q 595 538 493 685 
L 896 992 
Q 979 858 1072 749 
Q 1165 640 1277 563 
Q 1389 486 1536 444 
Q 1683 403 1888 403 
Q 2349 403 2585 646 
Q 2822 890 2822 1331 
L 2822 1395 
Q 2822 1837 2585 2080 
Q 2349 2323 1888 2323 
Q 1581 2323 1405 2211 
Q 1229 2099 1088 1946 
L 634 2010 
L 794 4467 
L 3187 4467 
L 3187 3994 
z
" transform="scale(0.015625)"/>
       </defs>
       <use xlink:href="#IBMPlexSans-Regular-2212"/>
       <use xlink:href="#IBMPlexSans-Regular-32" transform="translate(59.999985 0)"/>
       <use xlink:href="#IBMPlexSans-Regular-2e" transform="translate(119.999969 0)"/>
       <use xlink:href="#IBMPlexSans-Regular-35" transform="translate(147.199966 0)"/>
      </g>
     </g>
    </g>
    <g id="xtick_34">
     <g id="text_10">
      <!-- 0.0 -->
      <g style="fill: #838383" transform="translate(79.803408 149.58) scale(0.11 -0.11)">
       <defs>
        <path id="IBMPlexSans-Regular-30" d="M 1920 -77 
Q 1120 -77 752 531 
Q 384 1139 384 2234 
Q 384 3328 752 3936 
Q 1120 4544 1920 4544 
Q 2720 4544 3088 3936 
Q 3456 3328 3456 2234 
Q 3456 1139 3088 531 
Q 2720 -77 1920 -77 
z
M 1920 390 
Q 2182 390 2368 499 
Q 2554 608 2669 806 
Q 2784 1005 2838 1273 
Q 2893 1542 2893 1869 
L 2893 2598 
Q 2893 2925 2838 3193 
Q 2784 3462 2669 3660 
Q 2554 3859 2368 3968 
Q 2182 4077 1920 4077 
Q 1658 4077 1472 3968 
Q 1286 3859 1171 3660 
Q 1056 3462 1001 3193 
Q 947 2925 947 2598 
L 947 1869 
Q 947 1542 1001 1273 
Q 1056 1005 1171 806 
Q 1286 608 1472 499 
Q 1658 390 1920 390 
z
" transform="scale(0.015625)"/>
       </defs>
       <use xlink:href="#IBMPlexSans-Regular-30"/>
       <use xlink:href="#IBMPlexSans-Regular-2e" transform="translate(59.999985 0)"/>
       <use xlink:href="#IBMPlexSans-Regular-30" transform="translate(87.199982 0)"/>
      </g>
     </g>
    </g>
    <g id="xtick_35">
     <g id="text_11">
      <!-- 2.5 -->
      <g style="fill: #838383" transform="translate(124.285049 149.58) scale(0.11 -0.11)">
       <use xlink:href="#IBMPlexSans-Regular-32"/>
       <use xlink:href="#IBMPlexSans-Regular-2e" transform="translate(59.999985 0)"/>
       <use xlink:href="#IBMPlexSans-Regular-35" transform="translate(87.199982 0)"/>
      </g>
     </g>
    </g>
    <g id="xtick_36">
     <g id="text_12">
      <!-- 5.0 -->
      <g style="fill: #838383" transform="translate(168.76669 149.58) scale(0.11 -0.11)">
       <use xlink:href="#IBMPlexSans-Regular-35"/>
       <use xlink:href="#IBMPlexSans-Regular-2e" transform="translate(59.999985 0)"/>
       <use xlink:href="#IBMPlexSans-Regular-30" transform="translate(87.199982 0)"/>
      </g>
     </g>
    </g>
    <g id="text_13">
     <!-- sldb -->
     <g style="fill: #262626" transform="translate(100.310625 164.66) scale(0.12 -0.12)">
      <defs>
       <path id="IBMPlexSans-Regular-73" d="M 1536 -77 
Q 1075 -77 764 99 
Q 454 275 230 570 
L 595 864 
Q 787 621 1024 489 
Q 1261 358 1574 358 
Q 1901 358 2083 499 
Q 2266 640 2266 896 
Q 2266 1088 2141 1225 
Q 2016 1363 1690 1414 
L 1427 1453 
Q 1197 1485 1005 1552 
Q 813 1619 669 1731 
Q 525 1843 445 2009 
Q 365 2176 365 2406 
Q 365 2650 454 2832 
Q 544 3014 701 3136 
Q 858 3258 1075 3318 
Q 1293 3379 1542 3379 
Q 1946 3379 2218 3238 
Q 2490 3098 2694 2848 
L 2355 2541 
Q 2246 2694 2035 2819 
Q 1824 2944 1504 2944 
Q 1184 2944 1021 2806 
Q 858 2669 858 2432 
Q 858 2189 1021 2080 
Q 1184 1971 1491 1920 
L 1747 1882 
Q 2298 1798 2528 1564 
Q 2758 1331 2758 954 
Q 2758 474 2432 198 
Q 2106 -77 1536 -77 
z
" transform="scale(0.015625)"/>
       <path id="IBMPlexSans-Regular-6c" d="M 1088 0 
Q 819 0 681 150 
Q 544 301 544 531 
L 544 4736 
L 1056 4736 
L 1056 448 
L 1542 448 
L 1542 0 
L 1088 0 
z
" transform="scale(0.015625)"/>
       <path id="IBMPlexSans-Regular-64" d="M 2656 538 
L 2630 538 
Q 2330 -77 1664 -77 
Q 1357 -77 1107 44 
Q 858 166 682 390 
Q 506 614 413 934 
Q 320 1254 320 1651 
Q 320 2048 413 2368 
Q 506 2688 682 2912 
Q 858 3136 1107 3257 
Q 1357 3379 1664 3379 
Q 2010 3379 2256 3228 
Q 2502 3078 2630 2765 
L 2656 2765 
L 2656 4736 
L 3168 4736 
L 3168 0 
L 2656 0 
L 2656 538 
z
M 1805 384 
Q 1978 384 2134 429 
Q 2291 474 2406 560 
Q 2522 646 2589 771 
Q 2656 896 2656 1056 
L 2656 2285 
Q 2656 2419 2589 2537 
Q 2522 2656 2406 2739 
Q 2291 2822 2134 2870 
Q 1978 2918 1805 2918 
Q 1370 2918 1120 2646 
Q 870 2374 870 1933 
L 870 1370 
Q 870 928 1120 656 
Q 1370 384 1805 384 
z
" transform="scale(0.015625)"/>
       <path id="IBMPlexSans-Regular-62" d="M 544 4736 
L 1056 4736 
L 1056 2765 
L 1082 2765 
Q 1210 3078 1456 3228 
Q 1702 3379 2048 3379 
Q 2355 3379 2604 3257 
Q 2854 3136 3030 2912 
Q 3206 2688 3299 2368 
Q 3392 2048 3392 1651 
Q 3392 1254 3299 934 
Q 3206 614 3030 390 
Q 2854 166 2604 44 
Q 2355 -77 2048 -77 
Q 1376 -77 1082 538 
L 1056 538 
L 1056 0 
L 544 0 
L 544 4736 
z
M 1907 384 
Q 2342 384 2592 656 
Q 2842 928 2842 1370 
L 2842 1933 
Q 2842 2374 2592 2646 
Q 2342 2918 1907 2918 
Q 1734 2918 1577 2870 
Q 1421 2822 1305 2739 
Q 1190 2656 1123 2537 
Q 1056 2419 1056 2285 
L 1056 1056 
Q 1056 896 1123 771 
Q 1190 646 1305 560 
Q 1421 474 1577 429 
Q 1734 384 1907 384 
z
" transform="scale(0.015625)"/>
      </defs>
      <use xlink:href="#IBMPlexSans-Regular-73"/>
      <use xlink:href="#IBMPlexSans-Regular-6c" transform="translate(48.699997 0)"/>
      <use xlink:href="#IBMPlexSans-Regular-64" transform="translate(75.899994 0)"/>
      <use xlink:href="#IBMPlexSans-Regular-62" transform="translate(133.899979 0)"/>
     </g>
    </g>
   </g>
   <g id="matplotlib.axis_18"/>
   <g id="FillBetweenPolyCollection_4">
    <defs>
     <path id="m3f2fbc9e64" d="M 16.711364 -42.743933 
L 16.711364 -42.32 
L 17.66728 -42.32 
L 18.623196 -42.32 
L 19.579111 -42.32 
L 20.535027 -42.32 
L 21.490943 -42.32 
L 22.446859 -42.32 
L 23.402775 -42.32 
L 24.358691 -42.32 
L 25.314607 -42.32 
L 26.270523 -42.32 
L 27.226439 -42.32 
L 28.182355 -42.32 
L 29.138271 -42.32 
L 30.094187 -42.32 
L 31.050103 -42.32 
L 32.006019 -42.32 
L 32.961935 -42.32 
L 33.917851 -42.32 
L 34.873767 -42.32 
L 35.829683 -42.32 
L 36.785598 -42.32 
L 37.741514 -42.32 
L 38.69743 -42.32 
L 39.653346 -42.32 
L 40.609262 -42.32 
L 41.565178 -42.32 
L 42.521094 -42.32 
L 43.47701 -42.32 
L 44.432926 -42.32 
L 45.388842 -42.32 
L 46.344758 -42.32 
L 47.300674 -42.32 
L 48.25659 -42.32 
L 49.212506 -42.32 
L 50.168422 -42.32 
L 51.124338 -42.32 
L 52.080254 -42.32 
L 53.036169 -42.32 
L 53.992085 -42.32 
L 54.948001 -42.32 
L 55.903917 -42.32 
L 56.859833 -42.32 
L 57.815749 -42.32 
L 58.771665 -42.32 
L 59.727581 -42.32 
L 60.683497 -42.32 
L 61.639413 -42.32 
L 62.595329 -42.32 
L 63.551245 -42.32 
L 64.507161 -42.32 
L 65.463077 -42.32 
L 66.418993 -42.32 
L 67.374909 -42.32 
L 68.330825 -42.32 
L 69.286741 -42.32 
L 70.242656 -42.32 
L 71.198572 -42.32 
L 72.154488 -42.32 
L 73.110404 -42.32 
L 74.06632 -42.32 
L 75.022236 -42.32 
L 75.978152 -42.32 
L 76.934068 -42.32 
L 77.889984 -42.32 
L 78.8459 -42.32 
L 79.801816 -42.32 
L 80.757732 -42.32 
L 81.713648 -42.32 
L 82.669564 -42.32 
L 83.62548 -42.32 
L 84.581396 -42.32 
L 85.537312 -42.32 
L 86.493228 -42.32 
L 87.449143 -42.32 
L 88.405059 -42.32 
L 89.360975 -42.32 
L 90.316891 -42.32 
L 91.272807 -42.32 
L 92.228723 -42.32 
L 93.184639 -42.32 
L 94.140555 -42.32 
L 95.096471 -42.32 
L 96.052387 -42.32 
L 97.008303 -42.32 
L 97.964219 -42.32 
L 98.920135 -42.32 
L 99.876051 -42.32 
L 100.831967 -42.32 
L 101.787883 -42.32 
L 102.743799 -42.32 
L 103.699714 -42.32 
L 104.65563 -42.32 
L 105.611546 -42.32 
L 106.567462 -42.32 
L 107.523378 -42.32 
L 108.479294 -42.32 
L 109.43521 -42.32 
L 110.391126 -42.32 
L 111.347042 -42.32 
L 112.302958 -42.32 
L 113.258874 -42.32 
L 114.21479 -42.32 
L 115.170706 -42.32 
L 116.126622 -42.32 
L 117.082538 -42.32 
L 118.038454 -42.32 
L 118.99437 -42.32 
L 119.950286 -42.32 
L 120.906201 -42.32 
L 121.862117 -42.32 
L 122.818033 -42.32 
L 123.773949 -42.32 
L 124.729865 -42.32 
L 125.685781 -42.32 
L 126.641697 -42.32 
L 127.597613 -42.32 
L 128.553529 -42.32 
L 129.509445 -42.32 
L 130.465361 -42.32 
L 131.421277 -42.32 
L 132.377193 -42.32 
L 133.333109 -42.32 
L 134.289025 -42.32 
L 135.244941 -42.32 
L 136.200857 -42.32 
L 137.156772 -42.32 
L 138.112688 -42.32 
L 139.068604 -42.32 
L 140.02452 -42.32 
L 140.980436 -42.32 
L 141.936352 -42.32 
L 142.892268 -42.32 
L 143.848184 -42.32 
L 144.8041 -42.32 
L 145.760016 -42.32 
L 146.715932 -42.32 
L 147.671848 -42.32 
L 148.627764 -42.32 
L 149.58368 -42.32 
L 150.539596 -42.32 
L 151.495512 -42.32 
L 152.451428 -42.32 
L 153.407344 -42.32 
L 154.363259 -42.32 
L 155.319175 -42.32 
L 156.275091 -42.32 
L 157.231007 -42.32 
L 158.186923 -42.32 
L 159.142839 -42.32 
L 160.098755 -42.32 
L 161.054671 -42.32 
L 162.010587 -42.32 
L 162.966503 -42.32 
L 163.922419 -42.32 
L 164.878335 -42.32 
L 165.834251 -42.32 
L 166.790167 -42.32 
L 167.746083 -42.32 
L 168.701999 -42.32 
L 169.657915 -42.32 
L 170.613831 -42.32 
L 171.569746 -42.32 
L 172.525662 -42.32 
L 173.481578 -42.32 
L 174.437494 -42.32 
L 175.39341 -42.32 
L 176.349326 -42.32 
L 177.305242 -42.32 
L 178.261158 -42.32 
L 179.217074 -42.32 
L 180.17299 -42.32 
L 181.128906 -42.32 
L 182.084822 -42.32 
L 183.040738 -42.32 
L 183.996654 -42.32 
L 184.95257 -42.32 
L 185.908486 -42.32 
L 186.864402 -42.32 
L 187.820317 -42.32 
L 188.776233 -42.32 
L 189.732149 -42.32 
L 190.688065 -42.32 
L 191.643981 -42.32 
L 192.599897 -42.32 
L 193.555813 -42.32 
L 194.511729 -42.32 
L 195.467645 -42.32 
L 196.423561 -42.32 
L 197.379477 -42.32 
L 198.335393 -42.32 
L 199.291309 -42.32 
L 200.247225 -42.32 
L 201.203141 -42.32 
L 202.159057 -42.32 
L 203.114973 -42.32 
L 204.070889 -42.32 
L 205.026804 -42.32 
L 205.98272 -42.32 
L 206.938636 -42.32 
L 206.938636 -42.448426 
L 206.938636 -42.448426 
L 205.98272 -42.461443 
L 205.026804 -42.474965 
L 204.070889 -42.488911 
L 203.114973 -42.503192 
L 202.159057 -42.517712 
L 201.203141 -42.532377 
L 200.247225 -42.547092 
L 199.291309 -42.561769 
L 198.335393 -42.576327 
L 197.379477 -42.5907 
L 196.423561 -42.60484 
L 195.467645 -42.618717 
L 194.511729 -42.632326 
L 193.555813 -42.645688 
L 192.599897 -42.658852 
L 191.643981 -42.671894 
L 190.688065 -42.684922 
L 189.732149 -42.69807 
L 188.776233 -42.711498 
L 187.820317 -42.725391 
L 186.864402 -42.739951 
L 185.908486 -42.755398 
L 184.95257 -42.77196 
L 183.996654 -42.789868 
L 183.040738 -42.809354 
L 182.084822 -42.830638 
L 181.128906 -42.853927 
L 180.17299 -42.879406 
L 179.217074 -42.907236 
L 178.261158 -42.937543 
L 177.305242 -42.97042 
L 176.349326 -43.005918 
L 175.39341 -43.044049 
L 174.437494 -43.084782 
L 173.481578 -43.128043 
L 172.525662 -43.173716 
L 171.569746 -43.221648 
L 170.613831 -43.271648 
L 169.657915 -43.323493 
L 168.701999 -43.376937 
L 167.746083 -43.431709 
L 166.790167 -43.487527 
L 165.834251 -43.544099 
L 164.878335 -43.601136 
L 163.922419 -43.65835 
L 162.966503 -43.71547 
L 162.010587 -43.772242 
L 161.054671 -43.828437 
L 160.098755 -43.883854 
L 159.142839 -43.938329 
L 158.186923 -43.99173 
L 157.231007 -44.043965 
L 156.275091 -44.094982 
L 155.319175 -44.144767 
L 154.363259 -44.193343 
L 153.407344 -44.240769 
L 152.451428 -44.287135 
L 151.495512 -44.33256 
L 150.539596 -44.377189 
L 149.58368 -44.421185 
L 148.627764 -44.464727 
L 147.671848 -44.508008 
L 146.715932 -44.551227 
L 145.760016 -44.594589 
L 144.8041 -44.638301 
L 143.848184 -44.682575 
L 142.892268 -44.727621 
L 141.936352 -44.773655 
L 140.980436 -44.820896 
L 140.02452 -44.86957 
L 139.068604 -44.919913 
L 138.112688 -44.972178 
L 137.156772 -45.026635 
L 136.200857 -45.08358 
L 135.244941 -45.143333 
L 134.289025 -45.206248 
L 133.333109 -45.272713 
L 132.377193 -45.34315 
L 131.421277 -45.418018 
L 130.465361 -45.497809 
L 129.509445 -45.583045 
L 128.553529 -45.674274 
L 127.597613 -45.772061 
L 126.641697 -45.876974 
L 125.685781 -45.98958 
L 124.729865 -46.110421 
L 123.773949 -46.240008 
L 122.818033 -46.378796 
L 121.862117 -46.52717 
L 120.906201 -46.685426 
L 119.950286 -46.853755 
L 118.99437 -47.032224 
L 118.038454 -47.22076 
L 117.082538 -47.419142 
L 116.126622 -47.626987 
L 115.170706 -47.843746 
L 114.21479 -48.068699 
L 113.258874 -48.300955 
L 112.302958 -48.539462 
L 111.347042 -48.78301 
L 110.391126 -49.030245 
L 109.43521 -49.279686 
L 108.479294 -49.529741 
L 107.523378 -49.77873 
L 106.567462 -50.024902 
L 105.611546 -50.266466 
L 104.65563 -50.501607 
L 103.699714 -50.728518 
L 102.743799 -50.945417 
L 101.787883 -51.150572 
L 100.831967 -51.342326 
L 99.876051 -51.519115 
L 98.920135 -51.67949 
L 97.964219 -51.822133 
L 97.008303 -51.945877 
L 96.052387 -52.04972 
L 95.096471 -52.132839 
L 94.140555 -52.194604 
L 93.184639 -52.234585 
L 92.228723 -52.252562 
L 91.272807 -52.248532 
L 90.316891 -52.222707 
L 89.360975 -52.175517 
L 88.405059 -52.107606 
L 87.449143 -52.019822 
L 86.493228 -51.913208 
L 85.537312 -51.788986 
L 84.581396 -51.648542 
L 83.62548 -51.493401 
L 82.669564 -51.325206 
L 81.713648 -51.145691 
L 80.757732 -50.956654 
L 79.801816 -50.759934 
L 78.8459 -50.557375 
L 77.889984 -50.350807 
L 76.934068 -50.142016 
L 75.978152 -49.932723 
L 75.022236 -49.72456 
L 74.06632 -49.519057 
L 73.110404 -49.317618 
L 72.154488 -49.121516 
L 71.198572 -48.931879 
L 70.242656 -48.74968 
L 69.286741 -48.575738 
L 68.330825 -48.410708 
L 67.374909 -48.255083 
L 66.418993 -48.109193 
L 65.463077 -47.973207 
L 64.507161 -47.847132 
L 63.551245 -47.730821 
L 62.595329 -47.623976 
L 61.639413 -47.526151 
L 60.683497 -47.436765 
L 59.727581 -47.355109 
L 58.771665 -47.280354 
L 57.815749 -47.21157 
L 56.859833 -47.147735 
L 55.903917 -47.087759 
L 54.948001 -47.030495 
L 53.992085 -46.974769 
L 53.036169 -46.919395 
L 52.080254 -46.863199 
L 51.124338 -46.805049 
L 50.168422 -46.743869 
L 49.212506 -46.678668 
L 48.25659 -46.608561 
L 47.300674 -46.532782 
L 46.344758 -46.450705 
L 45.388842 -46.361856 
L 44.432926 -46.265921 
L 43.47701 -46.16275 
L 42.521094 -46.05236 
L 41.565178 -45.93493 
L 40.609262 -45.810797 
L 39.653346 -45.680441 
L 38.69743 -45.544473 
L 37.741514 -45.403621 
L 36.785598 -45.258705 
L 35.829683 -45.110622 
L 34.873767 -44.960325 
L 33.917851 -44.808794 
L 32.961935 -44.657023 
L 32.006019 -44.505997 
L 31.050103 -44.356668 
L 30.094187 -44.209947 
L 29.138271 -44.066679 
L 28.182355 -43.927636 
L 27.226439 -43.793508 
L 26.270523 -43.664889 
L 25.314607 -43.542278 
L 24.358691 -43.426075 
L 23.402775 -43.316579 
L 22.446859 -43.213991 
L 21.490943 -43.118422 
L 20.535027 -43.029891 
L 19.579111 -42.94834 
L 18.623196 -42.873635 
L 17.66728 -42.805583 
L 16.711364 -42.743933 
z
" style="stroke: #21918c; stroke-width: 1.25"/>
    </defs>
    <g>
     <use xlink:href="#m3f2fbc9e64" x="0" y="174.26" style="fill: #21918c; fill-opacity: 0.7; stroke: #21918c; stroke-width: 1.25"/>
    </g>
   </g>
   <g id="line2d_9">
    <path d="M 7.2 131.94 
L 216.45 131.94 
" style="fill: none; stroke: #21918c; stroke-opacity: 0.9; stroke-linecap: round"/>
   </g>
   <g id="text_14">
    <!-- 8 -->
    <g style="fill: #21918c" transform="translate(7.2 131.022) scale(0.12 -0.12)">
     <defs>
      <path id="IBMPlexSans-Bold-38" d="M 1920 -77 
Q 1523 -77 1212 22 
Q 902 122 691 294 
Q 480 467 368 704 
Q 256 941 256 1222 
Q 256 1651 493 1923 
Q 730 2195 1133 2304 
L 1133 2355 
Q 806 2477 598 2726 
Q 390 2976 390 3366 
Q 390 3622 489 3840 
Q 589 4058 784 4214 
Q 979 4371 1264 4457 
Q 1549 4544 1920 4544 
Q 2291 4544 2576 4457 
Q 2861 4371 3056 4214 
Q 3251 4058 3350 3840 
Q 3450 3622 3450 3366 
Q 3450 2976 3242 2726 
Q 3034 2477 2707 2355 
L 2707 2304 
Q 3110 2195 3347 1923 
Q 3584 1651 3584 1222 
Q 3584 941 3472 704 
Q 3360 467 3149 294 
Q 2938 122 2627 22 
Q 2317 -77 1920 -77 
z
M 1920 659 
Q 2240 659 2409 809 
Q 2579 960 2579 1229 
L 2579 1357 
Q 2579 1626 2409 1776 
Q 2240 1926 1920 1926 
Q 1600 1926 1430 1776 
Q 1261 1626 1261 1357 
L 1261 1229 
Q 1261 960 1430 809 
Q 1600 659 1920 659 
z
M 1920 2630 
Q 2227 2630 2387 2774 
Q 2547 2918 2547 3168 
L 2547 3270 
Q 2547 3520 2387 3664 
Q 2227 3808 1920 3808 
Q 1613 3808 1453 3664 
Q 1293 3520 1293 3270 
L 1293 3168 
Q 1293 2918 1453 2774 
Q 1613 2630 1920 2630 
z
" transform="scale(0.015625)"/>
     </defs>
     <use xlink:href="#IBMPlexSans-Bold-38"/>
    </g>
   </g>
  </g>
 </g>
</svg>
