<?xml version="1.0" encoding="utf-8" standalone="no"?>
<!DOCTYPE svg PUBLIC "-//W3C//DTD SVG 1.1//EN"
  "http://www.w3.org/Graphics/SVG/1.1/DTD/svg11.dtd">
<svg xmlns:xlink="http://www.w3.org/1999/xlink" width="347.938089pt" height="229.269865pt" viewBox="0 0 347.938089 229.269865" xmlns="http://www.w3.org/2000/svg" version="1.1">
 <metadata>
  <rdf:RDF xmlns:dc="http://purl.org/dc/elements/1.1/" xmlns:cc="http://creativecommons.org/ns#" xmlns:rdf="http://www.w3.org/1999/02/22-rdf-syntax-ns#">
   <cc:Work>
    <dc:type rdf:resource="http://purl.org/dc/dcmitype/StillImage"/>
    <dc:date>2025-12-31T11:26:43.856320</dc:date>
    <dc:format>image/svg+xml</dc:format>
    <dc:creator>
     <cc:Agent>
      <dc:title>Matplotlib v3.10.5, https://matplotlib.org/</dc:title>
     </cc:Agent>
    </dc:creator>
   </cc:Work>
  </rdf:RDF>
 </metadata>
 <defs>
  <style type="text/css">*{stroke-linejoin: round; stroke-linecap: butt}</style>
 </defs>
 <g id="figure_1">
  <g id="patch_1">
   <path d="M 0 229.269865 
L 347.938089 229.269865 
L 347.938089 0 
L 0 0 
L 0 229.269865 
z
" style="fill: none"/>
  </g>
  <g id="axes_1">
   <g id="patch_2">
    <path d="M 69.18 192.009865 
L 335.55609 192.009865 
L 335.55609 28.442513 
L 69.18 28.442513 
L 69.18 192.009865 
z
" style="fill: none"/>
   </g>
   <g id="matplotlib.axis_1">
    <g id="xtick_1">
     <g id="line2d_1">
      <path d="M 81.288004 192.009865 
L 81.288004 28.442513 
" clip-path="url(#p4c62525ee6)" style="fill: none; stroke-dasharray: 1.48,0.64; stroke-dashoffset: 0; stroke: #838383; stroke-opacity: 0.25; stroke-width: 0.4"/>
     </g>
     <g id="text_1">
      <!-- 0 -->
      <g style="fill: #838383" transform="translate(77.688004 204.389865) scale(0.12 -0.12)">
       <defs>
        <path id="IBMPlexSans-Regular-30" d="M 1920 -77 
Q 1120 -77 752 531 
Q 384 1139 384 2234 
Q 384 3328 752 3936 
Q 1120 4544 1920 4544 
Q 2720 4544 3088 3936 
Q 3456 3328 3456 2234 
Q 3456 1139 3088 531 
Q 2720 -77 1920 -77 
z
M 1920 390 
Q 2182 390 2368 499 
Q 2554 608 2669 806 
Q 2784 1005 2838 1273 
Q 2893 1542 2893 1869 
L 2893 2598 
Q 2893 2925 2838 3193 
Q 2784 3462 2669 3660 
Q 2554 3859 2368 3968 
Q 2182 4077 1920 4077 
Q 1658 4077 1472 3968 
Q 1286 3859 1171 3660 
Q 1056 3462 1001 3193 
Q 947 2925 947 2598 
L 947 1869 
Q 947 1542 1001 1273 
Q 1056 1005 1171 806 
Q 1286 608 1472 499 
Q 1658 390 1920 390 
z
" transform="scale(0.015625)"/>
       </defs>
       <use xlink:href="#IBMPlexSans-Regular-30"/>
      </g>
     </g>
    </g>
    <g id="xtick_2">
     <g id="line2d_2">
      <path d="M 131.738021 192.009865 
L 131.738021 28.442513 
" clip-path="url(#p4c62525ee6)" style="fill: none; stroke-dasharray: 1.48,0.64; stroke-dashoffset: 0; stroke: #838383; stroke-opacity: 0.25; stroke-width: 0.4"/>
     </g>
     <g id="text_2">
      <!-- 10 -->
      <g style="fill: #838383" transform="translate(124.538021 204.389865) scale(0.12 -0.12)">
       <defs>
        <path id="IBMPlexSans-Regular-31" d="M 563 0 
L 563 474 
L 1811 474 
L 1811 4070 
L 1766 4070 
L 640 3021 
L 326 3360 
L 1510 4467 
L 2349 4467 
L 2349 474 
L 3501 474 
L 3501 0 
L 563 0 
z
" transform="scale(0.015625)"/>
       </defs>
       <use xlink:href="#IBMPlexSans-Regular-31"/>
       <use xlink:href="#IBMPlexSans-Regular-30" transform="translate(59.999985 0)"/>
      </g>
     </g>
    </g>
    <g id="xtick_3">
     <g id="line2d_3">
      <path d="M 182.188038 192.009865 
L 182.188038 28.442513 
" clip-path="url(#p4c62525ee6)" style="fill: none; stroke-dasharray: 1.48,0.64; stroke-dashoffset: 0; stroke: #838383; stroke-opacity: 0.25; stroke-width: 0.4"/>
     </g>
     <g id="text_3">
      <!-- 20 -->
      <g style="fill: #838383" transform="translate(174.988038 204.389865) scale(0.12 -0.12)">
       <defs>
        <path id="IBMPlexSans-Regular-32" d="M 3411 0 
L 480 0 
L 480 550 
L 1939 1894 
Q 2253 2182 2464 2505 
Q 2675 2829 2675 3155 
L 2675 3232 
Q 2675 3603 2470 3833 
Q 2266 4064 1850 4064 
Q 1645 4064 1491 4006 
Q 1338 3949 1226 3846 
Q 1114 3744 1040 3606 
Q 966 3469 922 3309 
L 442 3494 
Q 506 3693 618 3881 
Q 730 4070 899 4217 
Q 1069 4365 1309 4454 
Q 1549 4544 1875 4544 
Q 2202 4544 2458 4448 
Q 2714 4352 2886 4179 
Q 3059 4006 3152 3769 
Q 3245 3533 3245 3245 
Q 3245 2982 3171 2758 
Q 3098 2534 2970 2332 
Q 2842 2131 2659 1939 
Q 2477 1747 2266 1555 
L 1062 474 
L 3411 474 
L 3411 0 
z
" transform="scale(0.015625)"/>
       </defs>
       <use xlink:href="#IBMPlexSans-Regular-32"/>
       <use xlink:href="#IBMPlexSans-Regular-30" transform="translate(59.999985 0)"/>
      </g>
     </g>
    </g>
    <g id="xtick_4">
     <g id="line2d_4">
      <path d="M 232.638055 192.009865 
L 232.638055 28.442513 
" clip-path="url(#p4c62525ee6)" style="fill: none; stroke-dasharray: 1.48,0.64; stroke-dashoffset: 0; stroke: #838383; stroke-opacity: 0.25; stroke-width: 0.4"/>
     </g>
     <g id="text_4">
      <!-- 30 -->
      <g style="fill: #838383" transform="translate(225.438055 204.389865) scale(0.12 -0.12)">
       <defs>
        <path id="IBMPlexSans-Regular-33" d="M 1670 2573 
Q 2125 2573 2352 2781 
Q 2579 2989 2579 3315 
L 2579 3360 
Q 2579 3712 2358 3888 
Q 2138 4064 1779 4064 
Q 1434 4064 1216 3913 
Q 998 3763 858 3507 
L 461 3814 
Q 544 3949 662 4080 
Q 781 4211 941 4313 
Q 1101 4416 1312 4480 
Q 1523 4544 1792 4544 
Q 2074 4544 2323 4470 
Q 2573 4397 2755 4253 
Q 2938 4109 3043 3897 
Q 3149 3686 3149 3418 
Q 3149 3200 3081 3027 
Q 3014 2854 2899 2726 
Q 2784 2598 2627 2508 
Q 2470 2419 2291 2374 
L 2291 2349 
Q 2470 2310 2640 2224 
Q 2810 2138 2941 2000 
Q 3072 1862 3152 1667 
Q 3232 1472 3232 1222 
Q 3232 934 3123 694 
Q 3014 454 2816 284 
Q 2618 115 2336 19 
Q 2054 -77 1715 -77 
Q 1427 -77 1203 -13 
Q 979 51 806 160 
Q 634 269 502 403 
Q 371 538 269 685 
L 672 992 
Q 755 858 854 749 
Q 954 640 1075 563 
Q 1197 486 1350 444 
Q 1504 403 1709 403 
Q 2182 403 2425 617 
Q 2669 832 2669 1229 
L 2669 1280 
Q 2669 1677 2425 1891 
Q 2182 2106 1709 2106 
L 1184 2106 
L 1184 2573 
L 1670 2573 
z
" transform="scale(0.015625)"/>
       </defs>
       <use xlink:href="#IBMPlexSans-Regular-33"/>
       <use xlink:href="#IBMPlexSans-Regular-30" transform="translate(59.999985 0)"/>
      </g>
     </g>
    </g>
    <g id="xtick_5">
     <g id="line2d_5">
      <path d="M 283.088072 192.009865 
L 283.088072 28.442513 
" clip-path="url(#p4c62525ee6)" style="fill: none; stroke-dasharray: 1.48,0.64; stroke-dashoffset: 0; stroke: #838383; stroke-opacity: 0.25; stroke-width: 0.4"/>
     </g>
     <g id="text_5">
      <!-- 40 -->
      <g style="fill: #838383" transform="translate(275.888072 204.389865) scale(0.12 -0.12)">
       <defs>
        <path id="IBMPlexSans-Regular-34" d="M 2400 0 
L 2400 877 
L 243 877 
L 243 1350 
L 2112 4467 
L 2912 4467 
L 2912 1325 
L 3558 1325 
L 3558 877 
L 2912 877 
L 2912 0 
L 2400 0 
z
M 749 1325 
L 2400 1325 
L 2400 4051 
L 2368 4051 
L 749 1325 
z
" transform="scale(0.015625)"/>
       </defs>
       <use xlink:href="#IBMPlexSans-Regular-34"/>
       <use xlink:href="#IBMPlexSans-Regular-30" transform="translate(59.999985 0)"/>
      </g>
     </g>
    </g>
    <g id="xtick_6">
     <g id="line2d_6">
      <path d="M 333.538089 192.009865 
L 333.538089 28.442513 
" clip-path="url(#p4c62525ee6)" style="fill: none; stroke-dasharray: 1.48,0.64; stroke-dashoffset: 0; stroke: #838383; stroke-opacity: 0.25; stroke-width: 0.4"/>
     </g>
     <g id="text_6">
      <!-- 50 -->
      <g style="fill: #838383" transform="translate(326.338089 204.389865) scale(0.12 -0.12)">
       <defs>
        <path id="IBMPlexSans-Regular-35" d="M 3187 3994 
L 1229 3994 
L 1101 2291 
L 1146 2291 
Q 1306 2515 1507 2649 
Q 1709 2784 2061 2784 
Q 2349 2784 2592 2688 
Q 2835 2592 3014 2416 
Q 3194 2240 3293 1984 
Q 3392 1728 3392 1402 
Q 3392 1075 3289 803 
Q 3187 531 2992 336 
Q 2797 141 2518 32 
Q 2240 -77 1888 -77 
Q 1606 -77 1392 -13 
Q 1178 51 1011 160 
Q 845 269 720 403 
Q 595 538 493 685 
L 896 992 
Q 979 858 1072 749 
Q 1165 640 1277 563 
Q 1389 486 1536 444 
Q 1683 403 1888 403 
Q 2349 403 2585 646 
Q 2822 890 2822 1331 
L 2822 1395 
Q 2822 1837 2585 2080 
Q 2349 2323 1888 2323 
Q 1581 2323 1405 2211 
Q 1229 2099 1088 1946 
L 634 2010 
L 794 4467 
L 3187 4467 
L 3187 3994 
z
" transform="scale(0.015625)"/>
       </defs>
       <use xlink:href="#IBMPlexSans-Regular-35"/>
       <use xlink:href="#IBMPlexSans-Regular-30" transform="translate(59.999985 0)"/>
      </g>
     </g>
    </g>
    <g id="text_7">
     <!-- draw -->
     <g style="fill: #838383" transform="translate(188.87367 219.669865) scale(0.12 -0.12)">
      <defs>
       <path id="IBMPlexSans-Regular-64" d="M 2656 538 
L 2630 538 
Q 2330 -77 1664 -77 
Q 1357 -77 1107 44 
Q 858 166 682 390 
Q 506 614 413 934 
Q 320 1254 320 1651 
Q 320 2048 413 2368 
Q 506 2688 682 2912 
Q 858 3136 1107 3257 
Q 1357 3379 1664 3379 
Q 2010 3379 2256 3228 
Q 2502 3078 2630 2765 
L 2656 2765 
L 2656 4736 
L 3168 4736 
L 3168 0 
L 2656 0 
L 2656 538 
z
M 1805 384 
Q 1978 384 2134 429 
Q 2291 474 2406 560 
Q 2522 646 2589 771 
Q 2656 896 2656 1056 
L 2656 2285 
Q 2656 2419 2589 2537 
Q 2522 2656 2406 2739 
Q 2291 2822 2134 2870 
Q 1978 2918 1805 2918 
Q 1370 2918 1120 2646 
Q 870 2374 870 1933 
L 870 1370 
Q 870 928 1120 656 
Q 1370 384 1805 384 
z
" transform="scale(0.015625)"/>
       <path id="IBMPlexSans-Regular-72" d="M 544 0 
L 544 3302 
L 1056 3302 
L 1056 2694 
L 1088 2694 
Q 1178 2931 1408 3116 
Q 1638 3302 2042 3302 
L 2240 3302 
L 2240 2790 
L 1939 2790 
Q 1523 2790 1289 2633 
Q 1056 2477 1056 2240 
L 1056 0 
L 544 0 
z
" transform="scale(0.015625)"/>
       <path id="IBMPlexSans-Regular-61" d="M 2944 0 
Q 2656 0 2531 153 
Q 2406 307 2374 538 
L 2342 538 
Q 2234 230 1984 76 
Q 1734 -77 1389 -77 
Q 864 -77 573 192 
Q 282 461 282 922 
Q 282 1389 624 1638 
Q 966 1888 1690 1888 
L 2342 1888 
L 2342 2214 
Q 2342 2566 2150 2752 
Q 1958 2938 1562 2938 
Q 1261 2938 1059 2803 
Q 858 2669 723 2445 
L 416 2733 
Q 550 3002 844 3190 
Q 1139 3379 1587 3379 
Q 2189 3379 2521 3084 
Q 2854 2790 2854 2266 
L 2854 448 
L 3232 448 
L 3232 0 
L 2944 0 
z
M 1472 358 
Q 1664 358 1824 403 
Q 1984 448 2099 531 
Q 2214 614 2278 723 
Q 2342 832 2342 960 
L 2342 1504 
L 1664 1504 
Q 1222 1504 1020 1376 
Q 819 1248 819 1005 
L 819 870 
Q 819 627 995 492 
Q 1171 358 1472 358 
z
" transform="scale(0.015625)"/>
       <path id="IBMPlexSans-Regular-77" d="M 198 3302 
L 698 3302 
L 1050 1875 
L 1402 429 
L 1414 429 
L 1818 1875 
L 2234 3302 
L 2688 3302 
L 3117 1875 
L 3526 429 
L 3539 429 
L 3878 1875 
L 4237 3302 
L 4717 3302 
L 3840 0 
L 3206 0 
L 2746 1587 
L 2458 2592 
L 2445 2592 
L 2163 1587 
L 1702 0 
L 1082 0 
L 198 3302 
z
" transform="scale(0.015625)"/>
      </defs>
      <use xlink:href="#IBMPlexSans-Regular-64"/>
      <use xlink:href="#IBMPlexSans-Regular-72" transform="translate(57.999985 0)"/>
      <use xlink:href="#IBMPlexSans-Regular-61" transform="translate(94.699982 0)"/>
      <use xlink:href="#IBMPlexSans-Regular-77" transform="translate(148.099976 0)"/>
     </g>
    </g>
   </g>
   <g id="matplotlib.axis_2">
    <g id="ytick_1">
     <g id="line2d_7">
      <path d="M 69.18 174.131923 
L 335.55609 174.131923 
" clip-path="url(#p4c62525ee6)" style="fill: none; stroke-dasharray: 1.48,0.64; stroke-dashoffset: 0; stroke: #838383; stroke-opacity: 0.25; stroke-width: 0.4"/>
     </g>
     <g id="text_8">
      <!-- −60000 -->
      <g style="fill: #838383" transform="translate(22.48 178.571923) scale(0.12 -0.12)">
       <defs>
        <path id="IBMPlexSans-Regular-2212" d="M 429 1734 
L 429 2170 
L 3411 2170 
L 3411 1734 
L 429 1734 
z
" transform="scale(0.015625)"/>
        <path id="IBMPlexSans-Regular-36" d="M 1926 -77 
Q 1581 -77 1302 41 
Q 1024 160 829 381 
Q 634 602 531 922 
Q 429 1242 429 1638 
Q 429 2138 576 2576 
Q 723 3014 956 3376 
Q 1190 3738 1472 4016 
Q 1754 4294 2022 4467 
L 2714 4467 
Q 2355 4205 2073 3955 
Q 1792 3706 1581 3434 
Q 1370 3162 1222 2851 
Q 1075 2541 986 2150 
L 1018 2138 
Q 1178 2413 1430 2595 
Q 1683 2778 2093 2778 
Q 2381 2778 2624 2682 
Q 2867 2586 3040 2406 
Q 3213 2227 3312 1971 
Q 3411 1715 3411 1402 
Q 3411 1075 3305 803 
Q 3200 531 3005 336 
Q 2810 141 2534 32 
Q 2259 -77 1926 -77 
z
M 1920 390 
Q 2362 390 2608 633 
Q 2854 877 2854 1331 
L 2854 1382 
Q 2854 1837 2608 2080 
Q 2362 2323 1920 2323 
Q 1478 2323 1232 2080 
Q 986 1837 986 1382 
L 986 1331 
Q 986 877 1232 633 
Q 1478 390 1920 390 
z
" transform="scale(0.015625)"/>
       </defs>
       <use xlink:href="#IBMPlexSans-Regular-2212"/>
       <use xlink:href="#IBMPlexSans-Regular-36" transform="translate(59.999985 0)"/>
       <use xlink:href="#IBMPlexSans-Regular-30" transform="translate(119.999969 0)"/>
       <use xlink:href="#IBMPlexSans-Regular-30" transform="translate(179.999954 0)"/>
       <use xlink:href="#IBMPlexSans-Regular-30" transform="translate(239.999939 0)"/>
       <use xlink:href="#IBMPlexSans-Regular-30" transform="translate(299.999924 0)"/>
      </g>
     </g>
    </g>
    <g id="ytick_2">
     <g id="line2d_8">
      <path d="M 69.18 127.88165 
L 335.55609 127.88165 
" clip-path="url(#p4c62525ee6)" style="fill: none; stroke-dasharray: 1.48,0.64; stroke-dashoffset: 0; stroke: #838383; stroke-opacity: 0.25; stroke-width: 0.4"/>
     </g>
     <g id="text_9">
      <!-- −40000 -->
      <g style="fill: #838383" transform="translate(22.48 132.32165) scale(0.12 -0.12)">
       <use xlink:href="#IBMPlexSans-Regular-2212"/>
       <use xlink:href="#IBMPlexSans-Regular-34" transform="translate(59.999985 0)"/>
       <use xlink:href="#IBMPlexSans-Regular-30" transform="translate(119.999969 0)"/>
       <use xlink:href="#IBMPlexSans-Regular-30" transform="translate(179.999954 0)"/>
       <use xlink:href="#IBMPlexSans-Regular-30" transform="translate(239.999939 0)"/>
       <use xlink:href="#IBMPlexSans-Regular-30" transform="translate(299.999924 0)"/>
      </g>
     </g>
    </g>
    <g id="ytick_3">
     <g id="line2d_9">
      <path d="M 69.18 81.631377 
L 335.55609 81.631377 
" clip-path="url(#p4c62525ee6)" style="fill: none; stroke-dasharray: 1.48,0.64; stroke-dashoffset: 0; stroke: #838383; stroke-opacity: 0.25; stroke-width: 0.4"/>
     </g>
     <g id="text_10">
      <!-- −20000 -->
      <g style="fill: #838383" transform="translate(22.48 86.071377) scale(0.12 -0.12)">
       <use xlink:href="#IBMPlexSans-Regular-2212"/>
       <use xlink:href="#IBMPlexSans-Regular-32" transform="translate(59.999985 0)"/>
       <use xlink:href="#IBMPlexSans-Regular-30" transform="translate(119.999969 0)"/>
       <use xlink:href="#IBMPlexSans-Regular-30" transform="translate(179.999954 0)"/>
       <use xlink:href="#IBMPlexSans-Regular-30" transform="translate(239.999939 0)"/>
       <use xlink:href="#IBMPlexSans-Regular-30" transform="translate(299.999924 0)"/>
      </g>
     </g>
    </g>
    <g id="ytick_4">
     <g id="line2d_10">
      <path d="M 69.18 35.381105 
L 335.55609 35.381105 
" clip-path="url(#p4c62525ee6)" style="fill: none; stroke-dasharray: 1.48,0.64; stroke-dashoffset: 0; stroke: #838383; stroke-opacity: 0.25; stroke-width: 0.4"/>
     </g>
     <g id="text_11">
      <!-- 0 -->
      <g style="fill: #838383" transform="translate(58.48 39.821105) scale(0.12 -0.12)">
       <use xlink:href="#IBMPlexSans-Regular-30"/>
      </g>
     </g>
    </g>
    <g id="text_12">
     <!-- loss -->
     <g style="fill: #838383" transform="translate(16.08 121.062751) rotate(-90) scale(0.12 -0.12)">
      <defs>
       <path id="IBMPlexSans-Regular-6c" d="M 1088 0 
Q 819 0 681 150 
Q 544 301 544 531 
L 544 4736 
L 1056 4736 
L 1056 448 
L 1542 448 
L 1542 0 
L 1088 0 
z
" transform="scale(0.015625)"/>
       <path id="IBMPlexSans-Regular-6f" d="M 1792 -77 
Q 1459 -77 1184 44 
Q 909 166 713 393 
Q 518 621 409 937 
Q 301 1254 301 1651 
Q 301 2042 409 2362 
Q 518 2682 713 2909 
Q 909 3136 1184 3257 
Q 1459 3379 1792 3379 
Q 2125 3379 2397 3257 
Q 2669 3136 2867 2909 
Q 3066 2682 3174 2362 
Q 3283 2042 3283 1651 
Q 3283 1254 3174 937 
Q 3066 621 2867 393 
Q 2669 166 2397 44 
Q 2125 -77 1792 -77 
z
M 1792 378 
Q 2208 378 2470 634 
Q 2733 890 2733 1414 
L 2733 1888 
Q 2733 2413 2470 2669 
Q 2208 2925 1792 2925 
Q 1376 2925 1113 2669 
Q 851 2413 851 1888 
L 851 1414 
Q 851 890 1113 634 
Q 1376 378 1792 378 
z
" transform="scale(0.015625)"/>
       <path id="IBMPlexSans-Regular-73" d="M 1536 -77 
Q 1075 -77 764 99 
Q 454 275 230 570 
L 595 864 
Q 787 621 1024 489 
Q 1261 358 1574 358 
Q 1901 358 2083 499 
Q 2266 640 2266 896 
Q 2266 1088 2141 1225 
Q 2016 1363 1690 1414 
L 1427 1453 
Q 1197 1485 1005 1552 
Q 813 1619 669 1731 
Q 525 1843 445 2009 
Q 365 2176 365 2406 
Q 365 2650 454 2832 
Q 544 3014 701 3136 
Q 858 3258 1075 3318 
Q 1293 3379 1542 3379 
Q 1946 3379 2218 3238 
Q 2490 3098 2694 2848 
L 2355 2541 
Q 2246 2694 2035 2819 
Q 1824 2944 1504 2944 
Q 1184 2944 1021 2806 
Q 858 2669 858 2432 
Q 858 2189 1021 2080 
Q 1184 1971 1491 1920 
L 1747 1882 
Q 2298 1798 2528 1564 
Q 2758 1331 2758 954 
Q 2758 474 2432 198 
Q 2106 -77 1536 -77 
z
" transform="scale(0.015625)"/>
      </defs>
      <use xlink:href="#IBMPlexSans-Regular-6c"/>
      <use xlink:href="#IBMPlexSans-Regular-6f" transform="translate(27.199997 0)"/>
      <use xlink:href="#IBMPlexSans-Regular-73" transform="translate(83.199982 0)"/>
      <use xlink:href="#IBMPlexSans-Regular-73" transform="translate(131.899979 0)"/>
     </g>
    </g>
   </g>
   <g id="line2d_11">
    <path d="M 81.288004 184.574985 
L 86.333006 78.77127 
L 91.378007 56.845088 
L 96.423009 50.631788 
L 101.468011 43.57602 
L 106.513013 39.642062 
L 111.558014 40.909753 
L 116.603016 40.668789 
L 121.648018 38.39144 
L 126.693019 39.226152 
L 131.738021 38.553689 
L 136.783023 38.90363 
L 141.828024 37.433201 
L 146.873026 38.120722 
L 151.918028 38.631602 
L 156.96303 37.501205 
L 162.008031 38.373032 
L 167.053033 37.282913 
L 172.098035 36.459678 
L 177.143036 37.139181 
L 182.188038 37.155675 
L 187.23304 37.72794 
L 192.278041 36.427676 
L 197.323043 37.528349 
L 202.368045 36.016778 
L 207.413047 37.109788 
L 212.458048 36.939387 
L 217.50305 36.805196 
L 222.548052 36.663973 
L 227.593053 37.265958 
L 232.638055 37.076814 
L 237.683057 35.877393 
L 242.728058 37.184187 
L 247.77306 37.396972 
L 252.818062 37.043872 
L 257.863064 37.379906 
L 262.908065 37.39475 
L 267.953067 38.467014 
L 272.998069 36.861218 
L 278.04307 37.250589 
L 283.088072 36.161909 
L 288.133074 36.868912 
L 293.178075 36.418492 
L 298.223077 36.361606 
L 303.268079 35.918925 
L 308.31308 36.610096 
L 313.358082 36.023991 
L 318.403084 37.020644 
L 323.448086 36.783311 
" clip-path="url(#p4c62525ee6)" style="fill: none; stroke: #4caf50; stroke-width: 1.5; stroke-linecap: round"/>
   </g>
  </g>
  <g id="text_13">
   <!-- HMC -->
   <g style="fill: #838383" transform="translate(182.663656 17.856) scale(0.144 -0.144)">
    <defs>
     <path id="IBMPlexSans-Regular-48" d="M 3392 2022 
L 1133 2022 
L 1133 0 
L 595 0 
L 595 4467 
L 1133 4467 
L 1133 2496 
L 3392 2496 
L 3392 4467 
L 3930 4467 
L 3930 0 
L 3392 0 
L 3392 2022 
z
" transform="scale(0.015625)"/>
     <path id="IBMPlexSans-Regular-4d" d="M 4077 3763 
L 4045 3763 
L 3667 3014 
L 2598 1069 
L 1530 3014 
L 1152 3763 
L 1120 3763 
L 1120 0 
L 595 0 
L 595 4467 
L 1312 4467 
L 2592 2061 
L 2624 2061 
L 3910 4467 
L 4602 4467 
L 4602 0 
L 4077 0 
L 4077 3763 
z
" transform="scale(0.015625)"/>
     <path id="IBMPlexSans-Regular-43" d="M 2170 -77 
Q 1318 -77 844 502 
Q 371 1082 371 2208 
Q 371 3334 844 3939 
Q 1318 4544 2170 4544 
Q 2733 4544 3113 4288 
Q 3494 4032 3706 3565 
L 3270 3302 
Q 3136 3648 2861 3856 
Q 2586 4064 2170 4064 
Q 1882 4064 1654 3955 
Q 1427 3846 1270 3644 
Q 1114 3443 1030 3164 
Q 947 2886 947 2541 
L 947 1875 
Q 947 1184 1267 793 
Q 1587 403 2170 403 
Q 2598 403 2886 624 
Q 3174 845 3309 1210 
L 3738 941 
Q 3526 467 3129 195 
Q 2733 -77 2170 -77 
z
" transform="scale(0.015625)"/>
    </defs>
    <use xlink:href="#IBMPlexSans-Regular-48"/>
    <use xlink:href="#IBMPlexSans-Regular-4d" transform="translate(70.699982 0)"/>
    <use xlink:href="#IBMPlexSans-Regular-43" transform="translate(151.899963 0)"/>
   </g>
  </g>
 </g>
 <defs>
  <clipPath id="p4c62525ee6">
   <rect x="69.18" y="28.442513" width="266.37609" height="163.567352"/>
  </clipPath>
 </defs>
</svg>
