<?xml version="1.0" encoding="utf-8" standalone="no"?>
<!DOCTYPE svg PUBLIC "-//W3C//DTD SVG 1.1//EN"
  "http://www.w3.org/Graphics/SVG/1.1/DTD/svg11.dtd">
<svg xmlns:xlink="http://www.w3.org/1999/xlink" width="223.65pt" height="174.26pt" viewBox="0 0 223.65 174.26" xmlns="http://www.w3.org/2000/svg" version="1.1">
 <metadata>
  <rdf:RDF xmlns:dc="http://purl.org/dc/elements/1.1/" xmlns:cc="http://creativecommons.org/ns#" xmlns:rdf="http://www.w3.org/1999/02/22-rdf-syntax-ns#">
   <cc:Work>
    <dc:type rdf:resource="http://purl.org/dc/dcmitype/StillImage"/>
    <dc:date>2025-12-31T11:30:26.136792</dc:date>
    <dc:format>image/svg+xml</dc:format>
    <dc:creator>
     <cc:Agent>
      <dc:title>Matplotlib v3.10.5, https://matplotlib.org/</dc:title>
     </cc:Agent>
    </dc:creator>
   </cc:Work>
  </rdf:RDF>
 </metadata>
 <defs>
  <style type="text/css">*{stroke-linejoin: round; stroke-linecap: butt}</style>
 </defs>
 <g id="figure_1">
  <g id="patch_1">
   <path d="M 0 174.26 
L 223.65 174.26 
L 223.65 0 
L 0 0 
L 0 174.26 
z
" style="fill: none"/>
  </g>
  <g id="axes_1">
   <g id="patch_2">
    <path d="M 7.2 48.78 
L 216.45 48.78 
L 216.45 7.2 
L 7.2 7.2 
L 7.2 48.78 
z
" style="fill: none"/>
   </g>
   <g id="matplotlib.axis_1">
    <g id="xtick_1"/>
    <g id="xtick_2"/>
    <g id="xtick_3"/>
    <g id="xtick_4"/>
   </g>
   <g id="matplotlib.axis_2"/>
   <g id="line2d_1">
    <path d="M 7.2 48.78 
L 216.45 48.78 
" style="fill: none; stroke: #7ad151; stroke-opacity: 0.9; stroke-linecap: round"/>
   </g>
   <g id="text_1">
    <!-- 0 -->
    <g style="fill: #7ad151" transform="translate(7.2 47.862) scale(0.12 -0.12)">
     <defs>
      <path id="IBMPlexSans-Bold-30" d="M 1920 -77 
Q 1043 -77 620 531 
Q 198 1139 198 2234 
Q 198 3328 620 3936 
Q 1043 4544 1920 4544 
Q 2797 4544 3219 3936 
Q 3642 3328 3642 2234 
Q 3642 1139 3219 531 
Q 2797 -77 1920 -77 
z
M 1920 736 
Q 2304 736 2451 1017 
Q 2598 1299 2598 1811 
L 2598 2656 
Q 2598 3168 2451 3449 
Q 2304 3731 1920 3731 
Q 1536 3731 1389 3449 
Q 1242 3168 1242 2656 
L 1242 1811 
Q 1242 1299 1389 1017 
Q 1536 736 1920 736 
z
" transform="scale(0.015625)"/>
     </defs>
     <use xlink:href="#IBMPlexSans-Bold-30"/>
    </g>
   </g>
  </g>
  <g id="axes_2">
   <g id="patch_3">
    <path d="M 7.2 59.175 
L 216.45 59.175 
L 216.45 17.595 
L 7.2 17.595 
L 7.2 59.175 
z
" style="fill: none"/>
   </g>
   <g id="matplotlib.axis_3">
    <g id="xtick_5"/>
    <g id="xtick_6"/>
    <g id="xtick_7"/>
    <g id="xtick_8"/>
   </g>
   <g id="matplotlib.axis_4"/>
   <g id="FillBetweenPolyCollection_1">
    <defs>
     <path id="m7dc5c71db1" d="M 107.106182 -115.348084 
L 107.106182 -115.085 
L 107.341506 -115.085 
L 107.57683 -115.085 
L 107.812155 -115.085 
L 108.047479 -115.085 
L 108.282803 -115.085 
L 108.518127 -115.085 
L 108.753451 -115.085 
L 108.988775 -115.085 
L 109.2241 -115.085 
L 109.459424 -115.085 
L 109.694748 -115.085 
L 109.930072 -115.085 
L 110.165396 -115.085 
L 110.400721 -115.085 
L 110.636045 -115.085 
L 110.871369 -115.085 
L 111.106693 -115.085 
L 111.342017 -115.085 
L 111.577342 -115.085 
L 111.812666 -115.085 
L 112.04799 -115.085 
L 112.283314 -115.085 
L 112.518638 -115.085 
L 112.753963 -115.085 
L 112.989287 -115.085 
L 113.224611 -115.085 
L 113.459935 -115.085 
L 113.695259 -115.085 
L 113.930583 -115.085 
L 114.165908 -115.085 
L 114.401232 -115.085 
L 114.636556 -115.085 
L 114.87188 -115.085 
L 115.107204 -115.085 
L 115.342529 -115.085 
L 115.577853 -115.085 
L 115.813177 -115.085 
L 116.048501 -115.085 
L 116.283825 -115.085 
L 116.51915 -115.085 
L 116.754474 -115.085 
L 116.989798 -115.085 
L 117.225122 -115.085 
L 117.460446 -115.085 
L 117.695771 -115.085 
L 117.931095 -115.085 
L 118.166419 -115.085 
L 118.401743 -115.085 
L 118.637067 -115.085 
L 118.872392 -115.085 
L 119.107716 -115.085 
L 119.34304 -115.085 
L 119.578364 -115.085 
L 119.813688 -115.085 
L 120.049012 -115.085 
L 120.284337 -115.085 
L 120.519661 -115.085 
L 120.754985 -115.085 
L 120.990309 -115.085 
L 121.225633 -115.085 
L 121.460958 -115.085 
L 121.696282 -115.085 
L 121.931606 -115.085 
L 122.16693 -115.085 
L 122.402254 -115.085 
L 122.637579 -115.085 
L 122.872903 -115.085 
L 123.108227 -115.085 
L 123.343551 -115.085 
L 123.578875 -115.085 
L 123.8142 -115.085 
L 124.049524 -115.085 
L 124.284848 -115.085 
L 124.520172 -115.085 
L 124.755496 -115.085 
L 124.99082 -115.085 
L 125.226145 -115.085 
L 125.461469 -115.085 
L 125.696793 -115.085 
L 125.932117 -115.085 
L 126.167441 -115.085 
L 126.402766 -115.085 
L 126.63809 -115.085 
L 126.873414 -115.085 
L 127.108738 -115.085 
L 127.344062 -115.085 
L 127.579387 -115.085 
L 127.814711 -115.085 
L 128.050035 -115.085 
L 128.285359 -115.085 
L 128.520683 -115.085 
L 128.756008 -115.085 
L 128.991332 -115.085 
L 129.226656 -115.085 
L 129.46198 -115.085 
L 129.697304 -115.085 
L 129.932629 -115.085 
L 130.167953 -115.085 
L 130.403277 -115.085 
L 130.638601 -115.085 
L 130.873925 -115.085 
L 131.109249 -115.085 
L 131.344574 -115.085 
L 131.579898 -115.085 
L 131.815222 -115.085 
L 132.050546 -115.085 
L 132.28587 -115.085 
L 132.521195 -115.085 
L 132.756519 -115.085 
L 132.991843 -115.085 
L 133.227167 -115.085 
L 133.462491 -115.085 
L 133.697816 -115.085 
L 133.93314 -115.085 
L 134.168464 -115.085 
L 134.403788 -115.085 
L 134.639112 -115.085 
L 134.874437 -115.085 
L 135.109761 -115.085 
L 135.345085 -115.085 
L 135.580409 -115.085 
L 135.815733 -115.085 
L 136.051057 -115.085 
L 136.286382 -115.085 
L 136.521706 -115.085 
L 136.75703 -115.085 
L 136.992354 -115.085 
L 137.227678 -115.085 
L 137.463003 -115.085 
L 137.698327 -115.085 
L 137.933651 -115.085 
L 138.168975 -115.085 
L 138.404299 -115.085 
L 138.639624 -115.085 
L 138.874948 -115.085 
L 139.110272 -115.085 
L 139.345596 -115.085 
L 139.58092 -115.085 
L 139.816245 -115.085 
L 140.051569 -115.085 
L 140.286893 -115.085 
L 140.522217 -115.085 
L 140.757541 -115.085 
L 140.992866 -115.085 
L 141.22819 -115.085 
L 141.463514 -115.085 
L 141.698838 -115.085 
L 141.934162 -115.085 
L 142.169486 -115.085 
L 142.404811 -115.085 
L 142.640135 -115.085 
L 142.875459 -115.085 
L 143.110783 -115.085 
L 143.346107 -115.085 
L 143.581432 -115.085 
L 143.816756 -115.085 
L 144.05208 -115.085 
L 144.287404 -115.085 
L 144.522728 -115.085 
L 144.758053 -115.085 
L 144.993377 -115.085 
L 145.228701 -115.085 
L 145.464025 -115.085 
L 145.699349 -115.085 
L 145.934674 -115.085 
L 146.169998 -115.085 
L 146.405322 -115.085 
L 146.640646 -115.085 
L 146.87597 -115.085 
L 147.111294 -115.085 
L 147.346619 -115.085 
L 147.581943 -115.085 
L 147.817267 -115.085 
L 148.052591 -115.085 
L 148.287915 -115.085 
L 148.52324 -115.085 
L 148.758564 -115.085 
L 148.993888 -115.085 
L 149.229212 -115.085 
L 149.464536 -115.085 
L 149.699861 -115.085 
L 149.935185 -115.085 
L 150.170509 -115.085 
L 150.405833 -115.085 
L 150.641157 -115.085 
L 150.876482 -115.085 
L 151.111806 -115.085 
L 151.34713 -115.085 
L 151.582454 -115.085 
L 151.817778 -115.085 
L 152.053103 -115.085 
L 152.288427 -115.085 
L 152.523751 -115.085 
L 152.759075 -115.085 
L 152.994399 -115.085 
L 153.229723 -115.085 
L 153.465048 -115.085 
L 153.700372 -115.085 
L 153.935696 -115.085 
L 153.935696 -116.518288 
L 153.935696 -116.518288 
L 153.700372 -116.699265 
L 153.465048 -116.894011 
L 153.229723 -117.102256 
L 152.994399 -117.323536 
L 152.759075 -117.557192 
L 152.523751 -117.802369 
L 152.288427 -118.05802 
L 152.053103 -118.322926 
L 151.817778 -118.595703 
L 151.582454 -118.87483 
L 151.34713 -119.158673 
L 151.111806 -119.445513 
L 150.876482 -119.733583 
L 150.641157 -120.021097 
L 150.405833 -120.30629 
L 150.170509 -120.587451 
L 149.935185 -120.86296 
L 149.699861 -121.131319 
L 149.464536 -121.391185 
L 149.229212 -121.641397 
L 148.993888 -121.880996 
L 148.758564 -122.10925 
L 148.52324 -122.325665 
L 148.287915 -122.529996 
L 148.052591 -122.722251 
L 147.817267 -122.902694 
L 147.581943 -123.071841 
L 147.346619 -123.230451 
L 147.111294 -123.379514 
L 146.87597 -123.520237 
L 146.640646 -123.654025 
L 146.405322 -123.782459 
L 146.169998 -123.907274 
L 145.934674 -124.030329 
L 145.699349 -124.153582 
L 145.464025 -124.27906 
L 145.228701 -124.408822 
L 144.993377 -124.544934 
L 144.758053 -124.689426 
L 144.522728 -124.844265 
L 144.287404 -125.011314 
L 144.05208 -125.1923 
L 143.816756 -125.388779 
L 143.581432 -125.602101 
L 143.346107 -125.833382 
L 143.110783 -126.083472 
L 142.875459 -126.352929 
L 142.640135 -126.642002 
L 142.404811 -126.950604 
L 142.169486 -127.278308 
L 141.934162 -127.624337 
L 141.698838 -127.987559 
L 141.463514 -128.366495 
L 141.22819 -128.75933 
L 140.992866 -129.163924 
L 140.757541 -129.57784 
L 140.522217 -129.998365 
L 140.286893 -130.422548 
L 140.051569 -130.847226 
L 139.816245 -131.269075 
L 139.58092 -131.684639 
L 139.345596 -132.090382 
L 139.110272 -132.482727 
L 138.874948 -132.858104 
L 138.639624 -133.212989 
L 138.404299 -133.543954 
L 138.168975 -133.847704 
L 137.933651 -134.121119 
L 137.698327 -134.361294 
L 137.463003 -134.565574 
L 137.227678 -134.731593 
L 136.992354 -134.857298 
L 136.75703 -134.940987 
L 136.521706 -134.981329 
L 136.286382 -134.977392 
L 136.051057 -134.928661 
L 135.815733 -134.835051 
L 135.580409 -134.696922 
L 135.345085 -134.515083 
L 135.109761 -134.29079 
L 134.874437 -134.025741 
L 134.639112 -133.722062 
L 134.403788 -133.382285 
L 134.168464 -133.009321 
L 133.93314 -132.60642 
L 133.697816 -132.177133 
L 133.462491 -131.725254 
L 133.227167 -131.254768 
L 132.991843 -130.769787 
L 132.756519 -130.274482 
L 132.521195 -129.773015 
L 132.28587 -129.26947 
L 132.050546 -128.767782 
L 131.815222 -128.271674 
L 131.579898 -127.784591 
L 131.344574 -127.309652 
L 131.109249 -126.849597 
L 130.873925 -126.406757 
L 130.638601 -125.983024 
L 130.403277 -125.579836 
L 130.167953 -125.198181 
L 129.932629 -124.838601 
L 129.697304 -124.501214 
L 129.46198 -124.185746 
L 129.226656 -123.891572 
L 128.991332 -123.617762 
L 128.756008 -123.363133 
L 128.520683 -123.126308 
L 128.285359 -122.905774 
L 128.050035 -122.699933 
L 127.814711 -122.507165 
L 127.579387 -122.325869 
L 127.344062 -122.154513 
L 127.108738 -121.991668 
L 126.873414 -121.836034 
L 126.63809 -121.686467 
L 126.402766 -121.541985 
L 126.167441 -121.401774 
L 125.932117 -121.265186 
L 125.696793 -121.131726 
L 125.461469 -121.001042 
L 125.226145 -120.872897 
L 124.99082 -120.747157 
L 124.755496 -120.623757 
L 124.520172 -120.502683 
L 124.284848 -120.383947 
L 124.049524 -120.267562 
L 123.8142 -120.153525 
L 123.578875 -120.041802 
L 123.343551 -119.932311 
L 123.108227 -119.82492 
L 122.872903 -119.719437 
L 122.637579 -119.615614 
L 122.402254 -119.513149 
L 122.16693 -119.411692 
L 121.931606 -119.31086 
L 121.696282 -119.210244 
L 121.460958 -119.10943 
L 121.225633 -119.008008 
L 120.990309 -118.905595 
L 120.754985 -118.801847 
L 120.519661 -118.696473 
L 120.284337 -118.589254 
L 120.049012 -118.480046 
L 119.813688 -118.368796 
L 119.578364 -118.255545 
L 119.34304 -118.140429 
L 119.107716 -118.02368 
L 118.872392 -117.905621 
L 118.637067 -117.78666 
L 118.401743 -117.667279 
L 118.166419 -117.548022 
L 117.931095 -117.429482 
L 117.695771 -117.312284 
L 117.460446 -117.197069 
L 117.225122 -117.084476 
L 116.989798 -116.975129 
L 116.754474 -116.869619 
L 116.51915 -116.768487 
L 116.283825 -116.672216 
L 116.048501 -116.581217 
L 115.813177 -116.495822 
L 115.577853 -116.416272 
L 115.342529 -116.342723 
L 115.107204 -116.275233 
L 114.87188 -116.213772 
L 114.636556 -116.158216 
L 114.401232 -116.108361 
L 114.165908 -116.063922 
L 113.930583 -116.024546 
L 113.695259 -115.989817 
L 113.459935 -115.959272 
L 113.224611 -115.932411 
L 112.989287 -115.908707 
L 112.753963 -115.887617 
L 112.518638 -115.868602 
L 112.283314 -115.851129 
L 112.04799 -115.834689 
L 111.812666 -115.818805 
L 111.577342 -115.803042 
L 111.342017 -115.787011 
L 111.106693 -115.770383 
L 110.871369 -115.752884 
L 110.636045 -115.734306 
L 110.400721 -115.714503 
L 110.165396 -115.693394 
L 109.930072 -115.670957 
L 109.694748 -115.647226 
L 109.459424 -115.62229 
L 109.2241 -115.596279 
L 108.988775 -115.569363 
L 108.753451 -115.541743 
L 108.518127 -115.51364 
L 108.282803 -115.485291 
L 108.047479 -115.456935 
L 107.812155 -115.428813 
L 107.57683 -115.401157 
L 107.341506 -115.374181 
L 107.106182 -115.348084 
z
" style="stroke: #22a884; stroke-width: 1.25"/>
    </defs>
    <g>
     <use xlink:href="#m7dc5c71db1" x="0" y="174.26" style="fill: #22a884; fill-opacity: 0.7; stroke: #22a884; stroke-width: 1.25"/>
    </g>
   </g>
   <g id="line2d_2">
    <path d="M 7.2 59.175 
L 216.45 59.175 
" style="fill: none; stroke: #22a884; stroke-opacity: 0.9; stroke-linecap: round"/>
   </g>
   <g id="text_2">
    <!-- 1 -->
    <g style="fill: #22a884" transform="translate(7.2 58.257) scale(0.12 -0.12)">
     <defs>
      <path id="IBMPlexSans-Bold-31" d="M 602 0 
L 602 774 
L 1805 774 
L 1805 3770 
L 1747 3770 
L 838 2579 
L 224 3059 
L 1293 4467 
L 2765 4467 
L 2765 774 
L 3712 774 
L 3712 0 
L 602 0 
z
" transform="scale(0.015625)"/>
     </defs>
     <use xlink:href="#IBMPlexSans-Bold-31"/>
    </g>
   </g>
  </g>
  <g id="axes_3">
   <g id="patch_4">
    <path d="M 7.2 69.57 
L 216.45 69.57 
L 216.45 27.99 
L 7.2 27.99 
L 7.2 69.57 
z
" style="fill: none"/>
   </g>
   <g id="matplotlib.axis_5">
    <g id="xtick_9"/>
    <g id="xtick_10"/>
    <g id="xtick_11"/>
    <g id="xtick_12"/>
   </g>
   <g id="matplotlib.axis_6"/>
   <g id="FillBetweenPolyCollection_2">
    <defs>
     <path id="m5bb35ba45a" d="M 77.11603 -104.818239 
L 77.11603 -104.69 
L 77.58865 -104.69 
L 78.061269 -104.69 
L 78.533888 -104.69 
L 79.006508 -104.69 
L 79.479127 -104.69 
L 79.951747 -104.69 
L 80.424366 -104.69 
L 80.896985 -104.69 
L 81.369605 -104.69 
L 81.842224 -104.69 
L 82.314844 -104.69 
L 82.787463 -104.69 
L 83.260082 -104.69 
L 83.732702 -104.69 
L 84.205321 -104.69 
L 84.677941 -104.69 
L 85.15056 -104.69 
L 85.62318 -104.69 
L 86.095799 -104.69 
L 86.568418 -104.69 
L 87.041038 -104.69 
L 87.513657 -104.69 
L 87.986277 -104.69 
L 88.458896 -104.69 
L 88.931515 -104.69 
L 89.404135 -104.69 
L 89.876754 -104.69 
L 90.349374 -104.69 
L 90.821993 -104.69 
L 91.294613 -104.69 
L 91.767232 -104.69 
L 92.239851 -104.69 
L 92.712471 -104.69 
L 93.18509 -104.69 
L 93.65771 -104.69 
L 94.130329 -104.69 
L 94.602948 -104.69 
L 95.075568 -104.69 
L 95.548187 -104.69 
L 96.020807 -104.69 
L 96.493426 -104.69 
L 96.966045 -104.69 
L 97.438665 -104.69 
L 97.911284 -104.69 
L 98.383904 -104.69 
L 98.856523 -104.69 
L 99.329143 -104.69 
L 99.801762 -104.69 
L 100.274381 -104.69 
L 100.747001 -104.69 
L 101.21962 -104.69 
L 101.69224 -104.69 
L 102.164859 -104.69 
L 102.637478 -104.69 
L 103.110098 -104.69 
L 103.582717 -104.69 
L 104.055337 -104.69 
L 104.527956 -104.69 
L 105.000576 -104.69 
L 105.473195 -104.69 
L 105.945814 -104.69 
L 106.418434 -104.69 
L 106.891053 -104.69 
L 107.363673 -104.69 
L 107.836292 -104.69 
L 108.308911 -104.69 
L 108.781531 -104.69 
L 109.25415 -104.69 
L 109.72677 -104.69 
L 110.199389 -104.69 
L 110.672008 -104.69 
L 111.144628 -104.69 
L 111.617247 -104.69 
L 112.089867 -104.69 
L 112.562486 -104.69 
L 113.035106 -104.69 
L 113.507725 -104.69 
L 113.980344 -104.69 
L 114.452964 -104.69 
L 114.925583 -104.69 
L 115.398203 -104.69 
L 115.870822 -104.69 
L 116.343441 -104.69 
L 116.816061 -104.69 
L 117.28868 -104.69 
L 117.7613 -104.69 
L 118.233919 -104.69 
L 118.706539 -104.69 
L 119.179158 -104.69 
L 119.651777 -104.69 
L 120.124397 -104.69 
L 120.597016 -104.69 
L 121.069636 -104.69 
L 121.542255 -104.69 
L 122.014874 -104.69 
L 122.487494 -104.69 
L 122.960113 -104.69 
L 123.432733 -104.69 
L 123.905352 -104.69 
L 124.377971 -104.69 
L 124.850591 -104.69 
L 125.32321 -104.69 
L 125.79583 -104.69 
L 126.268449 -104.69 
L 126.741069 -104.69 
L 127.213688 -104.69 
L 127.686307 -104.69 
L 128.158927 -104.69 
L 128.631546 -104.69 
L 129.104166 -104.69 
L 129.576785 -104.69 
L 130.049404 -104.69 
L 130.522024 -104.69 
L 130.994643 -104.69 
L 131.467263 -104.69 
L 131.939882 -104.69 
L 132.412502 -104.69 
L 132.885121 -104.69 
L 133.35774 -104.69 
L 133.83036 -104.69 
L 134.302979 -104.69 
L 134.775599 -104.69 
L 135.248218 -104.69 
L 135.720837 -104.69 
L 136.193457 -104.69 
L 136.666076 -104.69 
L 137.138696 -104.69 
L 137.611315 -104.69 
L 138.083934 -104.69 
L 138.556554 -104.69 
L 139.029173 -104.69 
L 139.501793 -104.69 
L 139.974412 -104.69 
L 140.447032 -104.69 
L 140.919651 -104.69 
L 141.39227 -104.69 
L 141.86489 -104.69 
L 142.337509 -104.69 
L 142.810129 -104.69 
L 143.282748 -104.69 
L 143.755367 -104.69 
L 144.227987 -104.69 
L 144.700606 -104.69 
L 145.173226 -104.69 
L 145.645845 -104.69 
L 146.118465 -104.69 
L 146.591084 -104.69 
L 147.063703 -104.69 
L 147.536323 -104.69 
L 148.008942 -104.69 
L 148.481562 -104.69 
L 148.954181 -104.69 
L 149.4268 -104.69 
L 149.89942 -104.69 
L 150.372039 -104.69 
L 150.844659 -104.69 
L 151.317278 -104.69 
L 151.789898 -104.69 
L 152.262517 -104.69 
L 152.735136 -104.69 
L 153.207756 -104.69 
L 153.680375 -104.69 
L 154.152995 -104.69 
L 154.625614 -104.69 
L 155.098233 -104.69 
L 155.570853 -104.69 
L 156.043472 -104.69 
L 156.516092 -104.69 
L 156.988711 -104.69 
L 157.46133 -104.69 
L 157.93395 -104.69 
L 158.406569 -104.69 
L 158.879189 -104.69 
L 159.351808 -104.69 
L 159.824428 -104.69 
L 160.297047 -104.69 
L 160.769666 -104.69 
L 161.242286 -104.69 
L 161.714905 -104.69 
L 162.187525 -104.69 
L 162.660144 -104.69 
L 163.132763 -104.69 
L 163.605383 -104.69 
L 164.078002 -104.69 
L 164.550622 -104.69 
L 165.023241 -104.69 
L 165.495861 -104.69 
L 165.96848 -104.69 
L 166.441099 -104.69 
L 166.913719 -104.69 
L 167.386338 -104.69 
L 167.858958 -104.69 
L 168.331577 -104.69 
L 168.804196 -104.69 
L 169.276816 -104.69 
L 169.749435 -104.69 
L 170.222055 -104.69 
L 170.694674 -104.69 
L 171.167293 -104.69 
L 171.167293 -105.369819 
L 171.167293 -105.369819 
L 170.694674 -105.457346 
L 170.222055 -105.551826 
L 169.749435 -105.653175 
L 169.276816 -105.761211 
L 168.804196 -105.875654 
L 168.331577 -105.996125 
L 167.858958 -106.122145 
L 167.386338 -106.253143 
L 166.913719 -106.388459 
L 166.441099 -106.527353 
L 165.96848 -106.669023 
L 165.495861 -106.81261 
L 165.023241 -106.957219 
L 164.550622 -107.101937 
L 164.078002 -107.245845 
L 163.605383 -107.388045 
L 163.132763 -107.52767 
L 162.660144 -107.663908 
L 162.187525 -107.796017 
L 161.714905 -107.923339 
L 161.242286 -108.045319 
L 160.769666 -108.161512 
L 160.297047 -108.271593 
L 159.824428 -108.375369 
L 159.351808 -108.472777 
L 158.879189 -108.563891 
L 158.406569 -108.64892 
L 157.93395 -108.728204 
L 157.46133 -108.802209 
L 156.988711 -108.87152 
L 156.516092 -108.93683 
L 156.043472 -108.998931 
L 155.570853 -109.0587 
L 155.098233 -109.117081 
L 154.625614 -109.175075 
L 154.152995 -109.233721 
L 153.680375 -109.294078 
L 153.207756 -109.357211 
L 152.735136 -109.424167 
L 152.262517 -109.495964 
L 151.789898 -109.573568 
L 151.317278 -109.657878 
L 150.844659 -109.749711 
L 150.372039 -109.849782 
L 149.89942 -109.958694 
L 149.4268 -110.076919 
L 148.954181 -110.204793 
L 148.481562 -110.3425 
L 148.008942 -110.490068 
L 147.536323 -110.647359 
L 147.063703 -110.814069 
L 146.591084 -110.989725 
L 146.118465 -111.173688 
L 145.645845 -111.365153 
L 145.173226 -111.563158 
L 144.700606 -111.766593 
L 144.227987 -111.974207 
L 143.755367 -112.184626 
L 143.282748 -112.396364 
L 142.810129 -112.607839 
L 142.337509 -112.817395 
L 141.86489 -113.023314 
L 141.39227 -113.223843 
L 140.919651 -113.417208 
L 140.447032 -113.601641 
L 139.974412 -113.775394 
L 139.501793 -113.936768 
L 139.029173 -114.084125 
L 138.556554 -114.215917 
L 138.083934 -114.330701 
L 137.611315 -114.427159 
L 137.138696 -114.504118 
L 136.666076 -114.560568 
L 136.193457 -114.595677 
L 135.720837 -114.608806 
L 135.248218 -114.599523 
L 134.775599 -114.567613 
L 134.302979 -114.513088 
L 133.83036 -114.43619 
L 133.35774 -114.337397 
L 132.885121 -114.217418 
L 132.412502 -114.077192 
L 131.939882 -113.917875 
L 131.467263 -113.740829 
L 130.994643 -113.547604 
L 130.522024 -113.339919 
L 130.049404 -113.119633 
L 129.576785 -112.888716 
L 129.104166 -112.649221 
L 128.631546 -112.403248 
L 128.158927 -112.152908 
L 127.686307 -111.900288 
L 127.213688 -111.647415 
L 126.741069 -111.396221 
L 126.268449 -111.148513 
L 125.79583 -110.905942 
L 125.32321 -110.669981 
L 124.850591 -110.441903 
L 124.377971 -110.222766 
L 123.905352 -110.013407 
L 123.432733 -109.814439 
L 122.960113 -109.626251 
L 122.487494 -109.449021 
L 122.014874 -109.282727 
L 121.542255 -109.127167 
L 121.069636 -108.981981 
L 120.597016 -108.846675 
L 120.124397 -108.720651 
L 119.651777 -108.603229 
L 119.179158 -108.493683 
L 118.706539 -108.391259 
L 118.233919 -108.295204 
L 117.7613 -108.204786 
L 117.28868 -108.119314 
L 116.816061 -108.03815 
L 116.343441 -107.960721 
L 115.870822 -107.886527 
L 115.398203 -107.815143 
L 114.925583 -107.746216 
L 114.452964 -107.679466 
L 113.980344 -107.614675 
L 113.507725 -107.551684 
L 113.035106 -107.490376 
L 112.562486 -107.430671 
L 112.089867 -107.372514 
L 111.617247 -107.315861 
L 111.144628 -107.260673 
L 110.672008 -107.206905 
L 110.199389 -107.154496 
L 109.72677 -107.10337 
L 109.25415 -107.053425 
L 108.781531 -107.004533 
L 108.308911 -106.956542 
L 107.836292 -106.909274 
L 107.363673 -106.862531 
L 106.891053 -106.816099 
L 106.418434 -106.769752 
L 105.945814 -106.723261 
L 105.473195 -106.6764 
L 105.000576 -106.628955 
L 104.527956 -106.580731 
L 104.055337 -106.53156 
L 103.582717 -106.481305 
L 103.110098 -106.429872 
L 102.637478 -106.377209 
L 102.164859 -106.323309 
L 101.69224 -106.268219 
L 101.21962 -106.212031 
L 100.747001 -106.154889 
L 100.274381 -106.096978 
L 99.801762 -106.038528 
L 99.329143 -105.979803 
L 98.856523 -105.921094 
L 98.383904 -105.862715 
L 97.911284 -105.804991 
L 97.438665 -105.748252 
L 96.966045 -105.692824 
L 96.493426 -105.63902 
L 96.020807 -105.58713 
L 95.548187 -105.53742 
L 95.075568 -105.49012 
L 94.602948 -105.445421 
L 94.130329 -105.403471 
L 93.65771 -105.364375 
L 93.18509 -105.328187 
L 92.712471 -105.294918 
L 92.239851 -105.264532 
L 91.767232 -105.236947 
L 91.294613 -105.212044 
L 90.821993 -105.189666 
L 90.349374 -105.169626 
L 89.876754 -105.151711 
L 89.404135 -105.135685 
L 88.931515 -105.121303 
L 88.458896 -105.108308 
L 87.986277 -105.096444 
L 87.513657 -105.085458 
L 87.041038 -105.075108 
L 86.568418 -105.065164 
L 86.095799 -105.05542 
L 85.62318 -105.045688 
L 85.15056 -105.035809 
L 84.677941 -105.025651 
L 84.205321 -105.015111 
L 83.732702 -105.004118 
L 83.260082 -104.992627 
L 82.787463 -104.980625 
L 82.314844 -104.968122 
L 81.842224 -104.955155 
L 81.369605 -104.94178 
L 80.896985 -104.928071 
L 80.424366 -104.914117 
L 79.951747 -104.900017 
L 79.479127 -104.885875 
L 79.006508 -104.8718 
L 78.533888 -104.857899 
L 78.061269 -104.844275 
L 77.58865 -104.831026 
L 77.11603 -104.818239 
z
" style="stroke: #2a788e; stroke-width: 1.25"/>
    </defs>
    <g>
     <use xlink:href="#m5bb35ba45a" x="0" y="174.26" style="fill: #2a788e; fill-opacity: 0.7; stroke: #2a788e; stroke-width: 1.25"/>
    </g>
   </g>
   <g id="line2d_3">
    <path d="M 7.2 69.57 
L 216.45 69.57 
" style="fill: none; stroke: #2a788e; stroke-opacity: 0.9; stroke-linecap: round"/>
   </g>
   <g id="text_3">
    <!-- 2 -->
    <g style="fill: #2a788e" transform="translate(7.2 68.652) scale(0.12 -0.12)">
     <defs>
      <path id="IBMPlexSans-Bold-32" d="M 3526 0 
L 365 0 
L 365 877 
L 1741 2054 
Q 1926 2214 2054 2345 
Q 2182 2477 2262 2601 
Q 2342 2726 2377 2848 
Q 2413 2970 2413 3110 
L 2413 3200 
Q 2413 3328 2361 3424 
Q 2310 3520 2227 3584 
Q 2144 3648 2038 3680 
Q 1933 3712 1824 3712 
Q 1664 3712 1545 3661 
Q 1427 3610 1340 3523 
Q 1254 3437 1196 3325 
Q 1139 3213 1107 3085 
L 269 3405 
Q 346 3635 480 3843 
Q 614 4051 816 4208 
Q 1018 4365 1293 4454 
Q 1568 4544 1914 4544 
Q 2278 4544 2560 4441 
Q 2842 4339 3037 4160 
Q 3232 3981 3334 3734 
Q 3437 3488 3437 3200 
Q 3437 2912 3341 2675 
Q 3245 2438 3081 2230 
Q 2918 2022 2700 1836 
Q 2483 1651 2246 1459 
L 1414 806 
L 3526 806 
L 3526 0 
z
" transform="scale(0.015625)"/>
     </defs>
     <use xlink:href="#IBMPlexSans-Bold-32"/>
    </g>
   </g>
  </g>
  <g id="axes_4">
   <g id="patch_5">
    <path d="M 7.2 79.965 
L 216.45 79.965 
L 216.45 38.385 
L 7.2 38.385 
L 7.2 79.965 
z
" style="fill: none"/>
   </g>
   <g id="matplotlib.axis_7">
    <g id="xtick_13"/>
    <g id="xtick_14"/>
    <g id="xtick_15"/>
    <g id="xtick_16"/>
   </g>
   <g id="matplotlib.axis_8"/>
   <g id="FillBetweenPolyCollection_3">
    <defs>
     <path id="maaaf4b5492" d="M 46.773517 -94.379046 
L 46.773517 -94.295 
L 47.487537 -94.295 
L 48.201558 -94.295 
L 48.915578 -94.295 
L 49.629598 -94.295 
L 50.343619 -94.295 
L 51.057639 -94.295 
L 51.77166 -94.295 
L 52.48568 -94.295 
L 53.199701 -94.295 
L 53.913721 -94.295 
L 54.627741 -94.295 
L 55.341762 -94.295 
L 56.055782 -94.295 
L 56.769803 -94.295 
L 57.483823 -94.295 
L 58.197844 -94.295 
L 58.911864 -94.295 
L 59.625885 -94.295 
L 60.339905 -94.295 
L 61.053925 -94.295 
L 61.767946 -94.295 
L 62.481966 -94.295 
L 63.195987 -94.295 
L 63.910007 -94.295 
L 64.624028 -94.295 
L 65.338048 -94.295 
L 66.052068 -94.295 
L 66.766089 -94.295 
L 67.480109 -94.295 
L 68.19413 -94.295 
L 68.90815 -94.295 
L 69.622171 -94.295 
L 70.336191 -94.295 
L 71.050211 -94.295 
L 71.764232 -94.295 
L 72.478252 -94.295 
L 73.192273 -94.295 
L 73.906293 -94.295 
L 74.620314 -94.295 
L 75.334334 -94.295 
L 76.048355 -94.295 
L 76.762375 -94.295 
L 77.476395 -94.295 
L 78.190416 -94.295 
L 78.904436 -94.295 
L 79.618457 -94.295 
L 80.332477 -94.295 
L 81.046498 -94.295 
L 81.760518 -94.295 
L 82.474538 -94.295 
L 83.188559 -94.295 
L 83.902579 -94.295 
L 84.6166 -94.295 
L 85.33062 -94.295 
L 86.044641 -94.295 
L 86.758661 -94.295 
L 87.472681 -94.295 
L 88.186702 -94.295 
L 88.900722 -94.295 
L 89.614743 -94.295 
L 90.328763 -94.295 
L 91.042784 -94.295 
L 91.756804 -94.295 
L 92.470825 -94.295 
L 93.184845 -94.295 
L 93.898865 -94.295 
L 94.612886 -94.295 
L 95.326906 -94.295 
L 96.040927 -94.295 
L 96.754947 -94.295 
L 97.468968 -94.295 
L 98.182988 -94.295 
L 98.897008 -94.295 
L 99.611029 -94.295 
L 100.325049 -94.295 
L 101.03907 -94.295 
L 101.75309 -94.295 
L 102.467111 -94.295 
L 103.181131 -94.295 
L 103.895151 -94.295 
L 104.609172 -94.295 
L 105.323192 -94.295 
L 106.037213 -94.295 
L 106.751233 -94.295 
L 107.465254 -94.295 
L 108.179274 -94.295 
L 108.893295 -94.295 
L 109.607315 -94.295 
L 110.321335 -94.295 
L 111.035356 -94.295 
L 111.749376 -94.295 
L 112.463397 -94.295 
L 113.177417 -94.295 
L 113.891438 -94.295 
L 114.605458 -94.295 
L 115.319478 -94.295 
L 116.033499 -94.295 
L 116.747519 -94.295 
L 117.46154 -94.295 
L 118.17556 -94.295 
L 118.889581 -94.295 
L 119.603601 -94.295 
L 120.317622 -94.295 
L 121.031642 -94.295 
L 121.745662 -94.295 
L 122.459683 -94.295 
L 123.173703 -94.295 
L 123.887724 -94.295 
L 124.601744 -94.295 
L 125.315765 -94.295 
L 126.029785 -94.295 
L 126.743805 -94.295 
L 127.457826 -94.295 
L 128.171846 -94.295 
L 128.885867 -94.295 
L 129.599887 -94.295 
L 130.313908 -94.295 
L 131.027928 -94.295 
L 131.741948 -94.295 
L 132.455969 -94.295 
L 133.169989 -94.295 
L 133.88401 -94.295 
L 134.59803 -94.295 
L 135.312051 -94.295 
L 136.026071 -94.295 
L 136.740092 -94.295 
L 137.454112 -94.295 
L 138.168132 -94.295 
L 138.882153 -94.295 
L 139.596173 -94.295 
L 140.310194 -94.295 
L 141.024214 -94.295 
L 141.738235 -94.295 
L 142.452255 -94.295 
L 143.166275 -94.295 
L 143.880296 -94.295 
L 144.594316 -94.295 
L 145.308337 -94.295 
L 146.022357 -94.295 
L 146.736378 -94.295 
L 147.450398 -94.295 
L 148.164418 -94.295 
L 148.878439 -94.295 
L 149.592459 -94.295 
L 150.30648 -94.295 
L 151.0205 -94.295 
L 151.734521 -94.295 
L 152.448541 -94.295 
L 153.162562 -94.295 
L 153.876582 -94.295 
L 154.590602 -94.295 
L 155.304623 -94.295 
L 156.018643 -94.295 
L 156.732664 -94.295 
L 157.446684 -94.295 
L 158.160705 -94.295 
L 158.874725 -94.295 
L 159.588745 -94.295 
L 160.302766 -94.295 
L 161.016786 -94.295 
L 161.730807 -94.295 
L 162.444827 -94.295 
L 163.158848 -94.295 
L 163.872868 -94.295 
L 164.586888 -94.295 
L 165.300909 -94.295 
L 166.014929 -94.295 
L 166.72895 -94.295 
L 167.44297 -94.295 
L 168.156991 -94.295 
L 168.871011 -94.295 
L 169.585032 -94.295 
L 170.299052 -94.295 
L 171.013072 -94.295 
L 171.727093 -94.295 
L 172.441113 -94.295 
L 173.155134 -94.295 
L 173.869154 -94.295 
L 174.583175 -94.295 
L 175.297195 -94.295 
L 176.011215 -94.295 
L 176.725236 -94.295 
L 177.439256 -94.295 
L 178.153277 -94.295 
L 178.867297 -94.295 
L 179.581318 -94.295 
L 180.295338 -94.295 
L 181.009358 -94.295 
L 181.723379 -94.295 
L 182.437399 -94.295 
L 183.15142 -94.295 
L 183.86544 -94.295 
L 184.579461 -94.295 
L 185.293481 -94.295 
L 186.007502 -94.295 
L 186.721522 -94.295 
L 187.435542 -94.295 
L 188.149563 -94.295 
L 188.863583 -94.295 
L 188.863583 -94.717674 
L 188.863583 -94.717674 
L 188.149563 -94.773128 
L 187.435542 -94.833161 
L 186.721522 -94.897745 
L 186.007502 -94.966793 
L 185.293481 -95.040155 
L 184.579461 -95.117613 
L 183.86544 -95.198885 
L 183.15142 -95.283628 
L 182.437399 -95.371436 
L 181.723379 -95.46185 
L 181.009358 -95.554364 
L 180.295338 -95.648434 
L 179.581318 -95.743483 
L 178.867297 -95.838919 
L 178.153277 -95.934141 
L 177.439256 -96.028553 
L 176.725236 -96.121577 
L 176.011215 -96.212663 
L 175.297195 -96.301303 
L 174.583175 -96.387038 
L 173.869154 -96.469472 
L 173.155134 -96.548278 
L 172.441113 -96.623206 
L 171.727093 -96.694088 
L 171.013072 -96.760842 
L 170.299052 -96.823475 
L 169.585032 -96.88208 
L 168.871011 -96.93684 
L 168.156991 -96.988021 
L 167.44297 -97.035969 
L 166.72895 -97.081105 
L 166.014929 -97.123917 
L 165.300909 -97.16495 
L 164.586888 -97.204801 
L 163.872868 -97.244106 
L 163.158848 -97.283532 
L 162.444827 -97.323762 
L 161.730807 -97.365489 
L 161.016786 -97.409399 
L 160.302766 -97.456163 
L 159.588745 -97.506425 
L 158.874725 -97.56079 
L 158.160705 -97.619814 
L 157.446684 -97.683992 
L 156.732664 -97.75375 
L 156.018643 -97.829439 
L 155.304623 -97.911319 
L 154.590602 -97.99956 
L 153.876582 -98.094234 
L 153.162562 -98.195309 
L 152.448541 -98.302647 
L 151.734521 -98.416003 
L 151.0205 -98.535024 
L 150.30648 -98.659249 
L 149.592459 -98.788114 
L 148.878439 -98.920957 
L 148.164418 -99.057017 
L 147.450398 -99.19545 
L 146.736378 -99.33533 
L 146.022357 -99.47566 
L 145.308337 -99.615385 
L 144.594316 -99.753397 
L 143.880296 -99.888556 
L 143.166275 -100.019692 
L 142.452255 -100.145627 
L 141.738235 -100.265184 
L 141.024214 -100.377204 
L 140.310194 -100.480556 
L 139.596173 -100.574156 
L 138.882153 -100.65698 
L 138.168132 -100.728077 
L 137.454112 -100.786587 
L 136.740092 -100.831748 
L 136.026071 -100.862915 
L 135.312051 -100.879569 
L 134.59803 -100.881329 
L 133.88401 -100.867961 
L 133.169989 -100.839381 
L 132.455969 -100.795668 
L 131.741948 -100.737062 
L 131.027928 -100.663964 
L 130.313908 -100.576935 
L 129.599887 -100.476691 
L 128.885867 -100.364093 
L 128.171846 -100.240136 
L 127.457826 -100.105935 
L 126.743805 -99.96271 
L 126.029785 -99.811761 
L 125.315765 -99.654452 
L 124.601744 -99.492187 
L 123.887724 -99.326383 
L 123.173703 -99.158449 
L 122.459683 -98.98976 
L 121.745662 -98.821635 
L 121.031642 -98.655313 
L 120.317622 -98.491936 
L 119.603601 -98.332532 
L 118.889581 -98.177998 
L 118.17556 -98.029094 
L 117.46154 -97.886431 
L 116.747519 -97.750475 
L 116.033499 -97.621543 
L 115.319478 -97.499809 
L 114.605458 -97.385315 
L 113.891438 -97.277978 
L 113.177417 -97.177608 
L 112.463397 -97.08392 
L 111.749376 -96.996554 
L 111.035356 -96.915094 
L 110.321335 -96.839083 
L 109.607315 -96.76804 
L 108.893295 -96.70148 
L 108.179274 -96.638926 
L 107.465254 -96.579923 
L 106.751233 -96.524046 
L 106.037213 -96.470911 
L 105.323192 -96.420177 
L 104.609172 -96.371552 
L 103.895151 -96.324789 
L 103.181131 -96.279689 
L 102.467111 -96.236094 
L 101.75309 -96.193883 
L 101.03907 -96.152964 
L 100.325049 -96.113272 
L 99.611029 -96.074754 
L 98.897008 -96.037367 
L 98.182988 -96.001072 
L 97.468968 -95.965824 
L 96.754947 -95.93157 
L 96.040927 -95.898243 
L 95.326906 -95.86576 
L 94.612886 -95.834024 
L 93.898865 -95.802917 
L 93.184845 -95.772307 
L 92.470825 -95.742049 
L 91.756804 -95.711988 
L 91.042784 -95.681963 
L 90.328763 -95.651811 
L 89.614743 -95.621376 
L 88.900722 -95.590508 
L 88.186702 -95.559075 
L 87.472681 -95.526962 
L 86.758661 -95.49408 
L 86.044641 -95.460367 
L 85.33062 -95.425791 
L 84.6166 -95.390353 
L 83.902579 -95.354086 
L 83.188559 -95.317057 
L 82.474538 -95.279363 
L 81.760518 -95.241132 
L 81.046498 -95.202516 
L 80.332477 -95.163693 
L 79.618457 -95.124853 
L 78.904436 -95.086204 
L 78.190416 -95.047957 
L 77.476395 -95.010328 
L 76.762375 -94.973528 
L 76.048355 -94.937759 
L 75.334334 -94.90321 
L 74.620314 -94.870052 
L 73.906293 -94.838434 
L 73.192273 -94.808482 
L 72.478252 -94.780292 
L 71.764232 -94.753934 
L 71.050211 -94.729448 
L 70.336191 -94.706842 
L 69.622171 -94.686098 
L 68.90815 -94.66717 
L 68.19413 -94.649984 
L 67.480109 -94.634446 
L 66.766089 -94.620441 
L 66.052068 -94.607834 
L 65.338048 -94.596481 
L 64.624028 -94.586227 
L 63.910007 -94.576909 
L 63.195987 -94.568365 
L 62.481966 -94.560435 
L 61.767946 -94.552962 
L 61.053925 -94.545801 
L 60.339905 -94.538816 
L 59.625885 -94.531887 
L 58.911864 -94.524908 
L 58.197844 -94.517794 
L 57.483823 -94.510475 
L 56.769803 -94.502903 
L 56.055782 -94.495047 
L 55.341762 -94.486894 
L 54.627741 -94.478449 
L 53.913721 -94.469734 
L 53.199701 -94.460781 
L 52.48568 -94.451637 
L 51.77166 -94.442357 
L 51.057639 -94.433002 
L 50.343619 -94.42364 
L 49.629598 -94.414337 
L 48.915578 -94.405163 
L 48.201558 -94.396183 
L 47.487537 -94.387458 
L 46.773517 -94.379046 
z
" style="stroke: #414487; stroke-width: 1.25"/>
    </defs>
    <g>
     <use xlink:href="#maaaf4b5492" x="0" y="174.26" style="fill: #414487; fill-opacity: 0.7; stroke: #414487; stroke-width: 1.25"/>
    </g>
   </g>
   <g id="line2d_4">
    <path d="M 7.2 79.965 
L 216.45 79.965 
" style="fill: none; stroke: #414487; stroke-opacity: 0.9; stroke-linecap: round"/>
   </g>
   <g id="text_4">
    <!-- 3 -->
    <g style="fill: #414487" transform="translate(7.2 79.047) scale(0.12 -0.12)">
     <defs>
      <path id="IBMPlexSans-Bold-33" d="M 1677 2701 
Q 2035 2701 2198 2838 
Q 2362 2976 2362 3181 
L 2362 3226 
Q 2362 3469 2205 3616 
Q 2048 3763 1760 3763 
Q 1491 3763 1254 3625 
Q 1018 3488 851 3232 
L 250 3795 
Q 378 3962 525 4099 
Q 672 4237 857 4336 
Q 1043 4435 1273 4489 
Q 1504 4544 1792 4544 
Q 2150 4544 2441 4461 
Q 2733 4378 2941 4221 
Q 3149 4064 3261 3846 
Q 3373 3629 3373 3360 
Q 3373 3149 3305 2976 
Q 3238 2803 3120 2675 
Q 3002 2547 2848 2467 
Q 2694 2387 2522 2355 
L 2522 2317 
Q 2720 2278 2889 2192 
Q 3059 2106 3184 1971 
Q 3309 1837 3379 1654 
Q 3450 1472 3450 1242 
Q 3450 941 3328 697 
Q 3206 454 2982 281 
Q 2758 109 2444 16 
Q 2131 -77 1754 -77 
Q 1414 -77 1152 -6 
Q 890 64 694 182 
Q 499 301 355 454 
Q 211 608 102 781 
L 813 1331 
Q 960 1056 1174 880 
Q 1389 704 1754 704 
Q 2080 704 2262 867 
Q 2445 1030 2445 1312 
L 2445 1350 
Q 2445 1626 2237 1763 
Q 2029 1901 1664 1901 
L 1261 1901 
L 1261 2701 
L 1677 2701 
z
" transform="scale(0.015625)"/>
     </defs>
     <use xlink:href="#IBMPlexSans-Bold-33"/>
    </g>
   </g>
  </g>
  <g id="axes_5">
   <g id="patch_6">
    <path d="M 7.2 90.36 
L 216.45 90.36 
L 216.45 48.78 
L 7.2 48.78 
L 7.2 90.36 
z
" style="fill: none"/>
   </g>
   <g id="matplotlib.axis_9">
    <g id="xtick_17"/>
    <g id="xtick_18"/>
    <g id="xtick_19"/>
    <g id="xtick_20"/>
   </g>
   <g id="matplotlib.axis_10"/>
   <g id="FillBetweenPolyCollection_4">
    <defs>
     <path id="m7e060ffec0" d="M 16.711364 -83.96592 
L 16.711364 -83.9 
L 17.66728 -83.9 
L 18.623196 -83.9 
L 19.579111 -83.9 
L 20.535027 -83.9 
L 21.490943 -83.9 
L 22.446859 -83.9 
L 23.402775 -83.9 
L 24.358691 -83.9 
L 25.314607 -83.9 
L 26.270523 -83.9 
L 27.226439 -83.9 
L 28.182355 -83.9 
L 29.138271 -83.9 
L 30.094187 -83.9 
L 31.050103 -83.9 
L 32.006019 -83.9 
L 32.961935 -83.9 
L 33.917851 -83.9 
L 34.873767 -83.9 
L 35.829683 -83.9 
L 36.785598 -83.9 
L 37.741514 -83.9 
L 38.69743 -83.9 
L 39.653346 -83.9 
L 40.609262 -83.9 
L 41.565178 -83.9 
L 42.521094 -83.9 
L 43.47701 -83.9 
L 44.432926 -83.9 
L 45.388842 -83.9 
L 46.344758 -83.9 
L 47.300674 -83.9 
L 48.25659 -83.9 
L 49.212506 -83.9 
L 50.168422 -83.9 
L 51.124338 -83.9 
L 52.080254 -83.9 
L 53.036169 -83.9 
L 53.992085 -83.9 
L 54.948001 -83.9 
L 55.903917 -83.9 
L 56.859833 -83.9 
L 57.815749 -83.9 
L 58.771665 -83.9 
L 59.727581 -83.9 
L 60.683497 -83.9 
L 61.639413 -83.9 
L 62.595329 -83.9 
L 63.551245 -83.9 
L 64.507161 -83.9 
L 65.463077 -83.9 
L 66.418993 -83.9 
L 67.374909 -83.9 
L 68.330825 -83.9 
L 69.286741 -83.9 
L 70.242656 -83.9 
L 71.198572 -83.9 
L 72.154488 -83.9 
L 73.110404 -83.9 
L 74.06632 -83.9 
L 75.022236 -83.9 
L 75.978152 -83.9 
L 76.934068 -83.9 
L 77.889984 -83.9 
L 78.8459 -83.9 
L 79.801816 -83.9 
L 80.757732 -83.9 
L 81.713648 -83.9 
L 82.669564 -83.9 
L 83.62548 -83.9 
L 84.581396 -83.9 
L 85.537312 -83.9 
L 86.493228 -83.9 
L 87.449143 -83.9 
L 88.405059 -83.9 
L 89.360975 -83.9 
L 90.316891 -83.9 
L 91.272807 -83.9 
L 92.228723 -83.9 
L 93.184639 -83.9 
L 94.140555 -83.9 
L 95.096471 -83.9 
L 96.052387 -83.9 
L 97.008303 -83.9 
L 97.964219 -83.9 
L 98.920135 -83.9 
L 99.876051 -83.9 
L 100.831967 -83.9 
L 101.787883 -83.9 
L 102.743799 -83.9 
L 103.699714 -83.9 
L 104.65563 -83.9 
L 105.611546 -83.9 
L 106.567462 -83.9 
L 107.523378 -83.9 
L 108.479294 -83.9 
L 109.43521 -83.9 
L 110.391126 -83.9 
L 111.347042 -83.9 
L 112.302958 -83.9 
L 113.258874 -83.9 
L 114.21479 -83.9 
L 115.170706 -83.9 
L 116.126622 -83.9 
L 117.082538 -83.9 
L 118.038454 -83.9 
L 118.99437 -83.9 
L 119.950286 -83.9 
L 120.906201 -83.9 
L 121.862117 -83.9 
L 122.818033 -83.9 
L 123.773949 -83.9 
L 124.729865 -83.9 
L 125.685781 -83.9 
L 126.641697 -83.9 
L 127.597613 -83.9 
L 128.553529 -83.9 
L 129.509445 -83.9 
L 130.465361 -83.9 
L 131.421277 -83.9 
L 132.377193 -83.9 
L 133.333109 -83.9 
L 134.289025 -83.9 
L 135.244941 -83.9 
L 136.200857 -83.9 
L 137.156772 -83.9 
L 138.112688 -83.9 
L 139.068604 -83.9 
L 140.02452 -83.9 
L 140.980436 -83.9 
L 141.936352 -83.9 
L 142.892268 -83.9 
L 143.848184 -83.9 
L 144.8041 -83.9 
L 145.760016 -83.9 
L 146.715932 -83.9 
L 147.671848 -83.9 
L 148.627764 -83.9 
L 149.58368 -83.9 
L 150.539596 -83.9 
L 151.495512 -83.9 
L 152.451428 -83.9 
L 153.407344 -83.9 
L 154.363259 -83.9 
L 155.319175 -83.9 
L 156.275091 -83.9 
L 157.231007 -83.9 
L 158.186923 -83.9 
L 159.142839 -83.9 
L 160.098755 -83.9 
L 161.054671 -83.9 
L 162.010587 -83.9 
L 162.966503 -83.9 
L 163.922419 -83.9 
L 164.878335 -83.9 
L 165.834251 -83.9 
L 166.790167 -83.9 
L 167.746083 -83.9 
L 168.701999 -83.9 
L 169.657915 -83.9 
L 170.613831 -83.9 
L 171.569746 -83.9 
L 172.525662 -83.9 
L 173.481578 -83.9 
L 174.437494 -83.9 
L 175.39341 -83.9 
L 176.349326 -83.9 
L 177.305242 -83.9 
L 178.261158 -83.9 
L 179.217074 -83.9 
L 180.17299 -83.9 
L 181.128906 -83.9 
L 182.084822 -83.9 
L 183.040738 -83.9 
L 183.996654 -83.9 
L 184.95257 -83.9 
L 185.908486 -83.9 
L 186.864402 -83.9 
L 187.820317 -83.9 
L 188.776233 -83.9 
L 189.732149 -83.9 
L 190.688065 -83.9 
L 191.643981 -83.9 
L 192.599897 -83.9 
L 193.555813 -83.9 
L 194.511729 -83.9 
L 195.467645 -83.9 
L 196.423561 -83.9 
L 197.379477 -83.9 
L 198.335393 -83.9 
L 199.291309 -83.9 
L 200.247225 -83.9 
L 201.203141 -83.9 
L 202.159057 -83.9 
L 203.114973 -83.9 
L 204.070889 -83.9 
L 205.026804 -83.9 
L 205.98272 -83.9 
L 206.938636 -83.9 
L 206.938636 -84.198896 
L 206.938636 -84.198896 
L 205.98272 -84.238395 
L 205.026804 -84.281227 
L 204.070889 -84.327391 
L 203.114973 -84.376841 
L 202.159057 -84.42949 
L 201.203141 -84.4852 
L 200.247225 -84.543789 
L 199.291309 -84.60503 
L 198.335393 -84.668651 
L 197.379477 -84.73434 
L 196.423561 -84.801748 
L 195.467645 -84.870496 
L 194.511729 -84.940181 
L 193.555813 -85.010381 
L 192.599897 -85.080666 
L 191.643981 -85.150606 
L 190.688065 -85.219776 
L 189.732149 -85.28777 
L 188.776233 -85.354203 
L 187.820317 -85.418725 
L 186.864402 -85.481025 
L 185.908486 -85.540838 
L 184.95257 -85.597951 
L 183.996654 -85.652207 
L 183.040738 -85.70351 
L 182.084822 -85.751827 
L 181.128906 -85.797186 
L 180.17299 -85.839682 
L 179.217074 -85.87947 
L 178.261158 -85.916765 
L 177.305242 -85.95184 
L 176.349326 -85.98502 
L 175.39341 -86.016675 
L 174.437494 -86.047218 
L 173.481578 -86.077094 
L 172.525662 -86.106777 
L 171.569746 -86.136757 
L 170.613831 -86.167538 
L 169.657915 -86.199622 
L 168.701999 -86.233508 
L 167.746083 -86.26968 
L 166.790167 -86.308598 
L 165.834251 -86.35069 
L 164.878335 -86.396349 
L 163.922419 -86.445919 
L 162.966503 -86.499692 
L 162.010587 -86.557902 
L 161.054671 -86.620719 
L 160.098755 -86.688245 
L 159.142839 -86.76051 
L 158.186923 -86.837468 
L 157.231007 -86.919 
L 156.275091 -87.004904 
L 155.319175 -87.094906 
L 154.363259 -87.188653 
L 153.407344 -87.285716 
L 152.451428 -87.385596 
L 151.495512 -87.487726 
L 150.539596 -87.591473 
L 149.58368 -87.696147 
L 148.627764 -87.801007 
L 147.671848 -87.905263 
L 146.715932 -88.008092 
L 145.760016 -88.108636 
L 144.8041 -88.206022 
L 143.848184 -88.299363 
L 142.892268 -88.387771 
L 141.936352 -88.470372 
L 140.980436 -88.546311 
L 140.02452 -88.614766 
L 139.068604 -88.674959 
L 138.112688 -88.726172 
L 137.156772 -88.767752 
L 136.200857 -88.799126 
L 135.244941 -88.819811 
L 134.289025 -88.829425 
L 133.333109 -88.827694 
L 132.377193 -88.814458 
L 131.421277 -88.789681 
L 130.465361 -88.75345 
L 129.509445 -88.705981 
L 128.553529 -88.647615 
L 127.597613 -88.578817 
L 126.641697 -88.50017 
L 125.685781 -88.412369 
L 124.729865 -88.316207 
L 123.773949 -88.212566 
L 122.818033 -88.102403 
L 121.862117 -87.986731 
L 120.906201 -87.866606 
L 119.950286 -87.743104 
L 118.99437 -87.617307 
L 118.038454 -87.490281 
L 117.082538 -87.363061 
L 116.126622 -87.236629 
L 115.170706 -87.111904 
L 114.21479 -86.989724 
L 113.258874 -86.870835 
L 112.302958 -86.755883 
L 111.347042 -86.645406 
L 110.391126 -86.539831 
L 109.43521 -86.439471 
L 108.479294 -86.34453 
L 107.523378 -86.255106 
L 106.567462 -86.171197 
L 105.611546 -86.092711 
L 104.65563 -86.019477 
L 103.699714 -85.951257 
L 102.743799 -85.887758 
L 101.787883 -85.828648 
L 100.831967 -85.773566 
L 99.876051 -85.722138 
L 98.920135 -85.673988 
L 97.964219 -85.628747 
L 97.008303 -85.586067 
L 96.052387 -85.545623 
L 95.096471 -85.507123 
L 94.140555 -85.47031 
L 93.184639 -85.434966 
L 92.228723 -85.400906 
L 91.272807 -85.367986 
L 90.316891 -85.336091 
L 89.360975 -85.305136 
L 88.405059 -85.275061 
L 87.449143 -85.245823 
L 86.493228 -85.217391 
L 85.537312 -85.189742 
L 84.581396 -85.162852 
L 83.62548 -85.136698 
L 82.669564 -85.111245 
L 81.713648 -85.086449 
L 80.757732 -85.062254 
L 79.801816 -85.038591 
L 78.8459 -85.015374 
L 77.889984 -84.992509 
L 76.934068 -84.969888 
L 75.978152 -84.947399 
L 75.022236 -84.924923 
L 74.06632 -84.902342 
L 73.110404 -84.879542 
L 72.154488 -84.856416 
L 71.198572 -84.832871 
L 70.242656 -84.808827 
L 69.286741 -84.784223 
L 68.330825 -84.759022 
L 67.374909 -84.733207 
L 66.418993 -84.706785 
L 65.463077 -84.679789 
L 64.507161 -84.652273 
L 63.551245 -84.624317 
L 62.595329 -84.596018 
L 61.639413 -84.567492 
L 60.683497 -84.53887 
L 59.727581 -84.510294 
L 58.771665 -84.481912 
L 57.815749 -84.45388 
L 56.859833 -84.42635 
L 55.903917 -84.399471 
L 54.948001 -84.373388 
L 53.992085 -84.348231 
L 53.036169 -84.324119 
L 52.080254 -84.301157 
L 51.124338 -84.279428 
L 50.168422 -84.259 
L 49.212506 -84.239916 
L 48.25659 -84.222202 
L 47.300674 -84.20586 
L 46.344758 -84.190873 
L 45.388842 -84.177202 
L 44.432926 -84.164792 
L 43.47701 -84.15357 
L 42.521094 -84.143446 
L 41.565178 -84.134322 
L 40.609262 -84.126085 
L 39.653346 -84.11862 
L 38.69743 -84.111805 
L 37.741514 -84.105518 
L 36.785598 -84.099637 
L 35.829683 -84.094047 
L 34.873767 -84.08864 
L 33.917851 -84.083315 
L 32.961935 -84.077985 
L 32.006019 -84.072576 
L 31.050103 -84.067026 
L 30.094187 -84.06129 
L 29.138271 -84.055336 
L 28.182355 -84.04915 
L 27.226439 -84.042729 
L 26.270523 -84.036085 
L 25.314607 -84.02924 
L 24.358691 -84.022228 
L 23.402775 -84.015091 
L 22.446859 -84.007876 
L 21.490943 -84.000635 
L 20.535027 -83.993422 
L 19.579111 -83.986293 
L 18.623196 -83.9793 
L 17.66728 -83.972493 
L 16.711364 -83.96592 
z
" style="stroke: #482475; stroke-width: 1.25"/>
    </defs>
    <g>
     <use xlink:href="#m7e060ffec0" x="0" y="174.26" style="fill: #482475; fill-opacity: 0.7; stroke: #482475; stroke-width: 1.25"/>
    </g>
   </g>
   <g id="line2d_5">
    <path d="M 7.2 90.36 
L 216.45 90.36 
" style="fill: none; stroke: #482475; stroke-opacity: 0.9; stroke-linecap: round"/>
   </g>
   <g id="text_5">
    <!-- 4 -->
    <g style="fill: #482475" transform="translate(7.2 89.442) scale(0.12 -0.12)">
     <defs>
      <path id="IBMPlexSans-Bold-34" d="M 2157 0 
L 2157 858 
L 192 858 
L 192 1677 
L 1933 4467 
L 3072 4467 
L 3072 1600 
L 3635 1600 
L 3635 858 
L 3072 858 
L 3072 0 
L 2157 0 
z
M 960 1600 
L 2157 1600 
L 2157 3475 
L 2093 3475 
L 960 1600 
z
" transform="scale(0.015625)"/>
     </defs>
     <use xlink:href="#IBMPlexSans-Bold-34"/>
    </g>
   </g>
  </g>
  <g id="axes_6">
   <g id="patch_7">
    <path d="M 7.2 100.755 
L 216.45 100.755 
L 216.45 59.175 
L 7.2 59.175 
L 7.2 100.755 
z
" style="fill: none"/>
   </g>
   <g id="matplotlib.axis_11">
    <g id="xtick_21"/>
    <g id="xtick_22"/>
    <g id="xtick_23"/>
    <g id="xtick_24"/>
   </g>
   <g id="matplotlib.axis_12"/>
   <g id="FillBetweenPolyCollection_5">
    <defs>
     <path id="m2575c84e2e" d="M 45.21777 -73.580309 
L 45.21777 -73.505 
L 45.938962 -73.505 
L 46.660155 -73.505 
L 47.381347 -73.505 
L 48.10254 -73.505 
L 48.823732 -73.505 
L 49.544925 -73.505 
L 50.266117 -73.505 
L 50.98731 -73.505 
L 51.708502 -73.505 
L 52.429695 -73.505 
L 53.150887 -73.505 
L 53.87208 -73.505 
L 54.593273 -73.505 
L 55.314465 -73.505 
L 56.035658 -73.505 
L 56.75685 -73.505 
L 57.478043 -73.505 
L 58.199235 -73.505 
L 58.920428 -73.505 
L 59.64162 -73.505 
L 60.362813 -73.505 
L 61.084005 -73.505 
L 61.805198 -73.505 
L 62.52639 -73.505 
L 63.247583 -73.505 
L 63.968775 -73.505 
L 64.689968 -73.505 
L 65.41116 -73.505 
L 66.132353 -73.505 
L 66.853545 -73.505 
L 67.574738 -73.505 
L 68.29593 -73.505 
L 69.017123 -73.505 
L 69.738315 -73.505 
L 70.459508 -73.505 
L 71.1807 -73.505 
L 71.901893 -73.505 
L 72.623086 -73.505 
L 73.344278 -73.505 
L 74.065471 -73.505 
L 74.786663 -73.505 
L 75.507856 -73.505 
L 76.229048 -73.505 
L 76.950241 -73.505 
L 77.671433 -73.505 
L 78.392626 -73.505 
L 79.113818 -73.505 
L 79.835011 -73.505 
L 80.556203 -73.505 
L 81.277396 -73.505 
L 81.998588 -73.505 
L 82.719781 -73.505 
L 83.440973 -73.505 
L 84.162166 -73.505 
L 84.883358 -73.505 
L 85.604551 -73.505 
L 86.325743 -73.505 
L 87.046936 -73.505 
L 87.768128 -73.505 
L 88.489321 -73.505 
L 89.210513 -73.505 
L 89.931706 -73.505 
L 90.652899 -73.505 
L 91.374091 -73.505 
L 92.095284 -73.505 
L 92.816476 -73.505 
L 93.537669 -73.505 
L 94.258861 -73.505 
L 94.980054 -73.505 
L 95.701246 -73.505 
L 96.422439 -73.505 
L 97.143631 -73.505 
L 97.864824 -73.505 
L 98.586016 -73.505 
L 99.307209 -73.505 
L 100.028401 -73.505 
L 100.749594 -73.505 
L 101.470786 -73.505 
L 102.191979 -73.505 
L 102.913171 -73.505 
L 103.634364 -73.505 
L 104.355556 -73.505 
L 105.076749 -73.505 
L 105.797941 -73.505 
L 106.519134 -73.505 
L 107.240326 -73.505 
L 107.961519 -73.505 
L 108.682712 -73.505 
L 109.403904 -73.505 
L 110.125097 -73.505 
L 110.846289 -73.505 
L 111.567482 -73.505 
L 112.288674 -73.505 
L 113.009867 -73.505 
L 113.731059 -73.505 
L 114.452252 -73.505 
L 115.173444 -73.505 
L 115.894637 -73.505 
L 116.615829 -73.505 
L 117.337022 -73.505 
L 118.058214 -73.505 
L 118.779407 -73.505 
L 119.500599 -73.505 
L 120.221792 -73.505 
L 120.942984 -73.505 
L 121.664177 -73.505 
L 122.385369 -73.505 
L 123.106562 -73.505 
L 123.827754 -73.505 
L 124.548947 -73.505 
L 125.270139 -73.505 
L 125.991332 -73.505 
L 126.712525 -73.505 
L 127.433717 -73.505 
L 128.15491 -73.505 
L 128.876102 -73.505 
L 129.597295 -73.505 
L 130.318487 -73.505 
L 131.03968 -73.505 
L 131.760872 -73.505 
L 132.482065 -73.505 
L 133.203257 -73.505 
L 133.92445 -73.505 
L 134.645642 -73.505 
L 135.366835 -73.505 
L 136.088027 -73.505 
L 136.80922 -73.505 
L 137.530412 -73.505 
L 138.251605 -73.505 
L 138.972797 -73.505 
L 139.69399 -73.505 
L 140.415182 -73.505 
L 141.136375 -73.505 
L 141.857567 -73.505 
L 142.57876 -73.505 
L 143.299952 -73.505 
L 144.021145 -73.505 
L 144.742337 -73.505 
L 145.46353 -73.505 
L 146.184723 -73.505 
L 146.905915 -73.505 
L 147.627108 -73.505 
L 148.3483 -73.505 
L 149.069493 -73.505 
L 149.790685 -73.505 
L 150.511878 -73.505 
L 151.23307 -73.505 
L 151.954263 -73.505 
L 152.675455 -73.505 
L 153.396648 -73.505 
L 154.11784 -73.505 
L 154.839033 -73.505 
L 155.560225 -73.505 
L 156.281418 -73.505 
L 157.00261 -73.505 
L 157.723803 -73.505 
L 158.444995 -73.505 
L 159.166188 -73.505 
L 159.88738 -73.505 
L 160.608573 -73.505 
L 161.329765 -73.505 
L 162.050958 -73.505 
L 162.77215 -73.505 
L 163.493343 -73.505 
L 164.214536 -73.505 
L 164.935728 -73.505 
L 165.656921 -73.505 
L 166.378113 -73.505 
L 167.099306 -73.505 
L 167.820498 -73.505 
L 168.541691 -73.505 
L 169.262883 -73.505 
L 169.984076 -73.505 
L 170.705268 -73.505 
L 171.426461 -73.505 
L 172.147653 -73.505 
L 172.868846 -73.505 
L 173.590038 -73.505 
L 174.311231 -73.505 
L 175.032423 -73.505 
L 175.753616 -73.505 
L 176.474808 -73.505 
L 177.196001 -73.505 
L 177.917193 -73.505 
L 178.638386 -73.505 
L 179.359578 -73.505 
L 180.080771 -73.505 
L 180.801963 -73.505 
L 181.523156 -73.505 
L 182.244349 -73.505 
L 182.965541 -73.505 
L 183.686734 -73.505 
L 184.407926 -73.505 
L 185.129119 -73.505 
L 185.850311 -73.505 
L 186.571504 -73.505 
L 187.292696 -73.505 
L 188.013889 -73.505 
L 188.735081 -73.505 
L 188.735081 -73.939237 
L 188.735081 -73.939237 
L 188.013889 -73.996271 
L 187.292696 -74.057964 
L 186.571504 -74.124269 
L 185.850311 -74.195075 
L 185.129119 -74.270206 
L 184.407926 -74.349415 
L 183.686734 -74.432389 
L 182.965541 -74.51875 
L 182.244349 -74.60806 
L 181.523156 -74.699826 
L 180.801963 -74.793511 
L 180.080771 -74.888541 
L 179.359578 -74.984315 
L 178.638386 -75.08022 
L 177.917193 -75.175642 
L 177.196001 -75.269975 
L 176.474808 -75.362643 
L 175.753616 -75.453101 
L 175.032423 -75.540856 
L 174.311231 -75.625473 
L 173.590038 -75.706585 
L 172.868846 -75.783904 
L 172.147653 -75.857221 
L 171.426461 -75.926418 
L 170.705268 -75.991465 
L 169.984076 -76.052426 
L 169.262883 -76.109452 
L 168.541691 -76.162786 
L 167.820498 -76.212751 
L 167.099306 -76.259753 
L 166.378113 -76.304265 
L 165.656921 -76.346829 
L 164.935728 -76.388039 
L 164.214536 -76.428532 
L 163.493343 -76.468985 
L 162.77215 -76.510093 
L 162.050958 -76.552565 
L 161.329765 -76.597109 
L 160.608573 -76.644422 
L 159.88738 -76.695174 
L 159.166188 -76.75 
L 158.444995 -76.809486 
L 157.723803 -76.87416 
L 157.00261 -76.944475 
L 156.281418 -77.020809 
L 155.560225 -77.103446 
L 154.839033 -77.192576 
L 154.11784 -77.288284 
L 153.396648 -77.390545 
L 152.675455 -77.499223 
L 151.954263 -77.614068 
L 151.23307 -77.734712 
L 150.511878 -77.860679 
L 149.790685 -77.99138 
L 149.069493 -78.126121 
L 148.3483 -78.264111 
L 147.627108 -78.40447 
L 146.905915 -78.546234 
L 146.184723 -78.68837 
L 145.46353 -78.829786 
L 144.742337 -78.969343 
L 144.021145 -79.105868 
L 143.299952 -79.238166 
L 142.57876 -79.365038 
L 141.857567 -79.48529 
L 141.136375 -79.59775 
L 140.415182 -79.701282 
L 139.69399 -79.7948 
L 138.972797 -79.877282 
L 138.251605 -79.947783 
L 137.530412 -80.005451 
L 136.80922 -80.049539 
L 136.088027 -80.079417 
L 135.366835 -80.094582 
L 134.645642 -80.094673 
L 133.92445 -80.079473 
L 133.203257 -80.048925 
L 132.482065 -80.003127 
L 131.760872 -79.942344 
L 131.03968 -79.867003 
L 130.318487 -79.777689 
L 129.597295 -79.675145 
L 128.876102 -79.560259 
L 128.15491 -79.434052 
L 127.433717 -79.297665 
L 126.712525 -79.152339 
L 125.991332 -78.999399 
L 125.270139 -78.840227 
L 124.548947 -78.676242 
L 123.827754 -78.508874 
L 123.106562 -78.339539 
L 122.385369 -78.169615 
L 121.664177 -78.000419 
L 120.942984 -77.833185 
L 120.221792 -77.669045 
L 119.500599 -77.509011 
L 118.779407 -77.353966 
L 118.058214 -77.204651 
L 117.337022 -77.061661 
L 116.615829 -76.925442 
L 115.894637 -76.796297 
L 115.173444 -76.674387 
L 114.452252 -76.559744 
L 113.731059 -76.452282 
L 113.009867 -76.351809 
L 112.288674 -76.258047 
L 111.567482 -76.170645 
L 110.846289 -76.0892 
L 110.125097 -76.013271 
L 109.403904 -75.942399 
L 108.682712 -75.876117 
L 107.961519 -75.813969 
L 107.240326 -75.755515 
L 106.519134 -75.700348 
L 105.797941 -75.648091 
L 105.076749 -75.59841 
L 104.355556 -75.55101 
L 103.634364 -75.505635 
L 102.913171 -75.462072 
L 102.191979 -75.420138 
L 101.470786 -75.379685 
L 100.749594 -75.340585 
L 100.028401 -75.302733 
L 99.307209 -75.266033 
L 98.586016 -75.2304 
L 97.864824 -75.195747 
L 97.143631 -75.161986 
L 96.422439 -75.129023 
L 95.701246 -75.096754 
L 94.980054 -75.065066 
L 94.258861 -75.033835 
L 93.537669 -75.002928 
L 92.816476 -74.972204 
L 92.095284 -74.941518 
L 91.374091 -74.910722 
L 90.652899 -74.879673 
L 89.931706 -74.848233 
L 89.210513 -74.816277 
L 88.489321 -74.783694 
L 87.768128 -74.750394 
L 87.046936 -74.716312 
L 86.325743 -74.681406 
L 85.604551 -74.645665 
L 84.883358 -74.609108 
L 84.162166 -74.571784 
L 83.440973 -74.533771 
L 82.719781 -74.495176 
L 81.998588 -74.456132 
L 81.277396 -74.416796 
L 80.556203 -74.377342 
L 79.835011 -74.337958 
L 79.113818 -74.298845 
L 78.392626 -74.260205 
L 77.671433 -74.222243 
L 76.950241 -74.185155 
L 76.229048 -74.149129 
L 75.507856 -74.11434 
L 74.786663 -74.080943 
L 74.065471 -74.049071 
L 73.344278 -74.018836 
L 72.623086 -73.990324 
L 71.901893 -73.963593 
L 71.1807 -73.938676 
L 70.459508 -73.915579 
L 69.738315 -73.894284 
L 69.017123 -73.874747 
L 68.29593 -73.856905 
L 67.574738 -73.840673 
L 66.853545 -73.82595 
L 66.132353 -73.812622 
L 65.41116 -73.800564 
L 64.689968 -73.789642 
L 63.968775 -73.779718 
L 63.247583 -73.77065 
L 62.52639 -73.7623 
L 61.805198 -73.754531 
L 61.084005 -73.747212 
L 60.362813 -73.740221 
L 59.64162 -73.733444 
L 58.920428 -73.726779 
L 58.199235 -73.720137 
L 57.478043 -73.713442 
L 56.75685 -73.706632 
L 56.035658 -73.69966 
L 55.314465 -73.692494 
L 54.593273 -73.685114 
L 53.87208 -73.677515 
L 53.150887 -73.669704 
L 52.429695 -73.6617 
L 51.708502 -73.653532 
L 50.98731 -73.645237 
L 50.266117 -73.63686 
L 49.544925 -73.62845 
L 48.823732 -73.620061 
L 48.10254 -73.611747 
L 47.381347 -73.603564 
L 46.660155 -73.595563 
L 45.938962 -73.587796 
L 45.21777 -73.580309 
z
" style="stroke: #355f8d; stroke-width: 1.25"/>
    </defs>
    <g>
     <use xlink:href="#m2575c84e2e" x="0" y="174.26" style="fill: #355f8d; fill-opacity: 0.7; stroke: #355f8d; stroke-width: 1.25"/>
    </g>
   </g>
   <g id="line2d_6">
    <path d="M 7.2 100.755 
L 216.45 100.755 
" style="fill: none; stroke: #355f8d; stroke-opacity: 0.9; stroke-linecap: round"/>
   </g>
   <g id="text_6">
    <!-- 5 -->
    <g style="fill: #355f8d" transform="translate(7.2 99.837) scale(0.12 -0.12)">
     <defs>
      <path id="IBMPlexSans-Bold-35" d="M 3341 3629 
L 1312 3629 
L 1216 2214 
L 1267 2214 
Q 1331 2374 1411 2505 
Q 1491 2637 1600 2729 
Q 1709 2822 1862 2873 
Q 2016 2925 2227 2925 
Q 2515 2925 2764 2829 
Q 3014 2733 3200 2550 
Q 3386 2368 3494 2102 
Q 3603 1837 3603 1504 
Q 3603 1165 3491 873 
Q 3379 582 3158 371 
Q 2938 160 2618 41 
Q 2298 -77 1888 -77 
Q 1562 -77 1312 -6 
Q 1062 64 870 182 
Q 678 301 537 454 
Q 397 608 294 781 
L 992 1331 
Q 1139 1069 1344 886 
Q 1549 704 1894 704 
Q 2240 704 2416 902 
Q 2592 1101 2592 1427 
L 2592 1478 
Q 2592 1786 2413 1965 
Q 2234 2144 1920 2144 
Q 1658 2144 1488 2038 
Q 1318 1933 1229 1830 
L 442 1939 
L 608 4467 
L 3341 4467 
L 3341 3629 
z
" transform="scale(0.015625)"/>
     </defs>
     <use xlink:href="#IBMPlexSans-Bold-35"/>
    </g>
   </g>
  </g>
  <g id="axes_7">
   <g id="patch_8">
    <path d="M 7.2 111.15 
L 216.45 111.15 
L 216.45 69.57 
L 7.2 69.57 
L 7.2 111.15 
z
" style="fill: none"/>
   </g>
   <g id="matplotlib.axis_13">
    <g id="xtick_25"/>
    <g id="xtick_26"/>
    <g id="xtick_27"/>
    <g id="xtick_28"/>
   </g>
   <g id="matplotlib.axis_14"/>
   <g id="FillBetweenPolyCollection_6">
    <defs>
     <path id="m734ceca327" d="M 72.890307 -63.203317 
L 72.890307 -63.11 
L 73.383696 -63.11 
L 73.877084 -63.11 
L 74.370473 -63.11 
L 74.863862 -63.11 
L 75.35725 -63.11 
L 75.850639 -63.11 
L 76.344028 -63.11 
L 76.837417 -63.11 
L 77.330805 -63.11 
L 77.824194 -63.11 
L 78.317583 -63.11 
L 78.810971 -63.11 
L 79.30436 -63.11 
L 79.797749 -63.11 
L 80.291138 -63.11 
L 80.784526 -63.11 
L 81.277915 -63.11 
L 81.771304 -63.11 
L 82.264692 -63.11 
L 82.758081 -63.11 
L 83.25147 -63.11 
L 83.744859 -63.11 
L 84.238247 -63.11 
L 84.731636 -63.11 
L 85.225025 -63.11 
L 85.718413 -63.11 
L 86.211802 -63.11 
L 86.705191 -63.11 
L 87.19858 -63.11 
L 87.691968 -63.11 
L 88.185357 -63.11 
L 88.678746 -63.11 
L 89.172134 -63.11 
L 89.665523 -63.11 
L 90.158912 -63.11 
L 90.652301 -63.11 
L 91.145689 -63.11 
L 91.639078 -63.11 
L 92.132467 -63.11 
L 92.625855 -63.11 
L 93.119244 -63.11 
L 93.612633 -63.11 
L 94.106022 -63.11 
L 94.59941 -63.11 
L 95.092799 -63.11 
L 95.586188 -63.11 
L 96.079576 -63.11 
L 96.572965 -63.11 
L 97.066354 -63.11 
L 97.559743 -63.11 
L 98.053131 -63.11 
L 98.54652 -63.11 
L 99.039909 -63.11 
L 99.533297 -63.11 
L 100.026686 -63.11 
L 100.520075 -63.11 
L 101.013464 -63.11 
L 101.506852 -63.11 
L 102.000241 -63.11 
L 102.49363 -63.11 
L 102.987018 -63.11 
L 103.480407 -63.11 
L 103.973796 -63.11 
L 104.467185 -63.11 
L 104.960573 -63.11 
L 105.453962 -63.11 
L 105.947351 -63.11 
L 106.440739 -63.11 
L 106.934128 -63.11 
L 107.427517 -63.11 
L 107.920905 -63.11 
L 108.414294 -63.11 
L 108.907683 -63.11 
L 109.401072 -63.11 
L 109.89446 -63.11 
L 110.387849 -63.11 
L 110.881238 -63.11 
L 111.374626 -63.11 
L 111.868015 -63.11 
L 112.361404 -63.11 
L 112.854793 -63.11 
L 113.348181 -63.11 
L 113.84157 -63.11 
L 114.334959 -63.11 
L 114.828347 -63.11 
L 115.321736 -63.11 
L 115.815125 -63.11 
L 116.308514 -63.11 
L 116.801902 -63.11 
L 117.295291 -63.11 
L 117.78868 -63.11 
L 118.282068 -63.11 
L 118.775457 -63.11 
L 119.268846 -63.11 
L 119.762235 -63.11 
L 120.255623 -63.11 
L 120.749012 -63.11 
L 121.242401 -63.11 
L 121.735789 -63.11 
L 122.229178 -63.11 
L 122.722567 -63.11 
L 123.215956 -63.11 
L 123.709344 -63.11 
L 124.202733 -63.11 
L 124.696122 -63.11 
L 125.18951 -63.11 
L 125.682899 -63.11 
L 126.176288 -63.11 
L 126.669677 -63.11 
L 127.163065 -63.11 
L 127.656454 -63.11 
L 128.149843 -63.11 
L 128.643231 -63.11 
L 129.13662 -63.11 
L 129.630009 -63.11 
L 130.123398 -63.11 
L 130.616786 -63.11 
L 131.110175 -63.11 
L 131.603564 -63.11 
L 132.096952 -63.11 
L 132.590341 -63.11 
L 133.08373 -63.11 
L 133.577119 -63.11 
L 134.070507 -63.11 
L 134.563896 -63.11 
L 135.057285 -63.11 
L 135.550673 -63.11 
L 136.044062 -63.11 
L 136.537451 -63.11 
L 137.03084 -63.11 
L 137.524228 -63.11 
L 138.017617 -63.11 
L 138.511006 -63.11 
L 139.004394 -63.11 
L 139.497783 -63.11 
L 139.991172 -63.11 
L 140.484561 -63.11 
L 140.977949 -63.11 
L 141.471338 -63.11 
L 141.964727 -63.11 
L 142.458115 -63.11 
L 142.951504 -63.11 
L 143.444893 -63.11 
L 143.938282 -63.11 
L 144.43167 -63.11 
L 144.925059 -63.11 
L 145.418448 -63.11 
L 145.911836 -63.11 
L 146.405225 -63.11 
L 146.898614 -63.11 
L 147.392003 -63.11 
L 147.885391 -63.11 
L 148.37878 -63.11 
L 148.872169 -63.11 
L 149.365557 -63.11 
L 149.858946 -63.11 
L 150.352335 -63.11 
L 150.845724 -63.11 
L 151.339112 -63.11 
L 151.832501 -63.11 
L 152.32589 -63.11 
L 152.819278 -63.11 
L 153.312667 -63.11 
L 153.806056 -63.11 
L 154.299445 -63.11 
L 154.792833 -63.11 
L 155.286222 -63.11 
L 155.779611 -63.11 
L 156.272999 -63.11 
L 156.766388 -63.11 
L 157.259777 -63.11 
L 157.753165 -63.11 
L 158.246554 -63.11 
L 158.739943 -63.11 
L 159.233332 -63.11 
L 159.72672 -63.11 
L 160.220109 -63.11 
L 160.713498 -63.11 
L 161.206886 -63.11 
L 161.700275 -63.11 
L 162.193664 -63.11 
L 162.687053 -63.11 
L 163.180441 -63.11 
L 163.67383 -63.11 
L 164.167219 -63.11 
L 164.660607 -63.11 
L 165.153996 -63.11 
L 165.647385 -63.11 
L 166.140774 -63.11 
L 166.634162 -63.11 
L 167.127551 -63.11 
L 167.62094 -63.11 
L 168.114328 -63.11 
L 168.607717 -63.11 
L 169.101106 -63.11 
L 169.594495 -63.11 
L 170.087883 -63.11 
L 170.581272 -63.11 
L 171.074661 -63.11 
L 171.074661 -63.832011 
L 171.074661 -63.832011 
L 170.581272 -63.925895 
L 170.087883 -64.027075 
L 169.594495 -64.135382 
L 169.101106 -64.250536 
L 168.607717 -64.372142 
L 168.114328 -64.499696 
L 167.62094 -64.632583 
L 167.127551 -64.77009 
L 166.634162 -64.911415 
L 166.140774 -65.055683 
L 165.647385 -65.20196 
L 165.153996 -65.349275 
L 164.660607 -65.496638 
L 164.167219 -65.643066 
L 163.67383 -65.787599 
L 163.180441 -65.929327 
L 162.687053 -66.067411 
L 162.193664 -66.201099 
L 161.700275 -66.329746 
L 161.206886 -66.452831 
L 160.713498 -66.569965 
L 160.220109 -66.680902 
L 159.72672 -66.785549 
L 159.233332 -66.883963 
L 158.739943 -66.976352 
L 158.246554 -67.063079 
L 157.753165 -67.144644 
L 157.259777 -67.221687 
L 156.766388 -67.294972 
L 156.272999 -67.365372 
L 155.779611 -67.433859 
L 155.286222 -67.501486 
L 154.792833 -67.569367 
L 154.299445 -67.638658 
L 153.806056 -67.710538 
L 153.312667 -67.786184 
L 152.819278 -67.86675 
L 152.32589 -67.953344 
L 151.832501 -68.046999 
L 151.339112 -68.148656 
L 150.845724 -68.259134 
L 150.352335 -68.379112 
L 149.858946 -68.509106 
L 149.365557 -68.649451 
L 148.872169 -68.800289 
L 148.37878 -68.961551 
L 147.885391 -69.132958 
L 147.392003 -69.31401 
L 146.898614 -69.503994 
L 146.405225 -69.70199 
L 145.911836 -69.906881 
L 145.418448 -70.117371 
L 144.925059 -70.332003 
L 144.43167 -70.549186 
L 143.938282 -70.767217 
L 143.444893 -70.984313 
L 142.951504 -71.198636 
L 142.458115 -71.408319 
L 141.964727 -71.6115 
L 141.471338 -71.806341 
L 140.977949 -71.991057 
L 140.484561 -72.163933 
L 139.991172 -72.323345 
L 139.497783 -72.467776 
L 139.004394 -72.595831 
L 138.511006 -72.706246 
L 138.017617 -72.797904 
L 137.524228 -72.869836 
L 137.03084 -72.921237 
L 136.537451 -72.95147 
L 136.044062 -72.96007 
L 135.550673 -72.946755 
L 135.057285 -72.911427 
L 134.563896 -72.85418 
L 134.070507 -72.7753 
L 133.577119 -72.67527 
L 133.08373 -72.554765 
L 132.590341 -72.414655 
L 132.096952 -72.255994 
L 131.603564 -72.08001 
L 131.110175 -71.888098 
L 130.616786 -71.681801 
L 130.123398 -71.462786 
L 129.630009 -71.232832 
L 129.13662 -70.993793 
L 128.643231 -70.747579 
L 128.149843 -70.496125 
L 127.656454 -70.24136 
L 127.163065 -69.985181 
L 126.669677 -69.729422 
L 126.176288 -69.47583 
L 125.682899 -69.226037 
L 125.18951 -68.981546 
L 124.696122 -68.743707 
L 124.202733 -68.513706 
L 123.709344 -68.292558 
L 123.215956 -68.081096 
L 122.722567 -67.879976 
L 122.229178 -67.689675 
L 121.735789 -67.510499 
L 121.242401 -67.342592 
L 120.749012 -67.185945 
L 120.255623 -67.040414 
L 119.762235 -66.905729 
L 119.268846 -66.781513 
L 118.775457 -66.6673 
L 118.282068 -66.562544 
L 117.78868 -66.466642 
L 117.295291 -66.378943 
L 116.801902 -66.298763 
L 116.308514 -66.2254 
L 115.815125 -66.158142 
L 115.321736 -66.096277 
L 114.828347 -66.039103 
L 114.334959 -65.985936 
L 113.84157 -65.936114 
L 113.348181 -65.889002 
L 112.854793 -65.844002 
L 112.361404 -65.800548 
L 111.868015 -65.758119 
L 111.374626 -65.71623 
L 110.881238 -65.674444 
L 110.387849 -65.632368 
L 109.89446 -65.589655 
L 109.401072 -65.546004 
L 108.907683 -65.50116 
L 108.414294 -65.454915 
L 107.920905 -65.407105 
L 107.427517 -65.357612 
L 106.934128 -65.306361 
L 106.440739 -65.25332 
L 105.947351 -65.198497 
L 105.453962 -65.141939 
L 104.960573 -65.083731 
L 104.467185 -65.023992 
L 103.973796 -64.962877 
L 103.480407 -64.900568 
L 102.987018 -64.837276 
L 102.49363 -64.773235 
L 102.000241 -64.708698 
L 101.506852 -64.643935 
L 101.013464 -64.579224 
L 100.520075 -64.514849 
L 100.026686 -64.451093 
L 99.533297 -64.388232 
L 99.039909 -64.32653 
L 98.54652 -64.266233 
L 98.053131 -64.207562 
L 97.559743 -64.150714 
L 97.066354 -64.095851 
L 96.572965 -64.043105 
L 96.079576 -63.992572 
L 95.586188 -63.944313 
L 95.092799 -63.898356 
L 94.59941 -63.854699 
L 94.106022 -63.813311 
L 93.612633 -63.774141 
L 93.119244 -63.737119 
L 92.625855 -63.70216 
L 92.132467 -63.669177 
L 91.639078 -63.638078 
L 91.145689 -63.608773 
L 90.652301 -63.581179 
L 90.158912 -63.555223 
L 89.665523 -63.530841 
L 89.172134 -63.507979 
L 88.678746 -63.486595 
L 88.185357 -63.466655 
L 87.691968 -63.448129 
L 87.19858 -63.430993 
L 86.705191 -63.415219 
L 86.211802 -63.400778 
L 85.718413 -63.38763 
L 85.225025 -63.375727 
L 84.731636 -63.365008 
L 84.238247 -63.355396 
L 83.744859 -63.346803 
L 83.25147 -63.339122 
L 82.758081 -63.332238 
L 82.264692 -63.326022 
L 81.771304 -63.320341 
L 81.277915 -63.315056 
L 80.784526 -63.310029 
L 80.291138 -63.305129 
L 79.797749 -63.30023 
L 79.30436 -63.295221 
L 78.810971 -63.290008 
L 78.317583 -63.284512 
L 77.824194 -63.278678 
L 77.330805 -63.272469 
L 76.837417 -63.265873 
L 76.344028 -63.258895 
L 75.850639 -63.251562 
L 75.35725 -63.243916 
L 74.863862 -63.236015 
L 74.370473 -63.227927 
L 73.877084 -63.219727 
L 73.383696 -63.211497 
L 72.890307 -63.203317 
z
" style="stroke: #21918c; stroke-width: 1.25"/>
    </defs>
    <g>
     <use xlink:href="#m734ceca327" x="0" y="174.26" style="fill: #21918c; fill-opacity: 0.7; stroke: #21918c; stroke-width: 1.25"/>
    </g>
   </g>
   <g id="line2d_7">
    <path d="M 7.2 111.15 
L 216.45 111.15 
" style="fill: none; stroke: #21918c; stroke-opacity: 0.9; stroke-linecap: round"/>
   </g>
   <g id="text_7">
    <!-- 6 -->
    <g style="fill: #21918c" transform="translate(7.2 110.232) scale(0.12 -0.12)">
     <defs>
      <path id="IBMPlexSans-Bold-36" d="M 1946 -77 
Q 1549 -77 1235 48 
Q 922 173 707 406 
Q 493 640 381 966 
Q 269 1293 269 1696 
Q 269 2163 413 2582 
Q 557 3002 784 3357 
Q 1011 3712 1296 3993 
Q 1581 4275 1869 4467 
L 3194 4467 
Q 2784 4173 2457 3907 
Q 2131 3642 1891 3373 
Q 1651 3104 1494 2825 
Q 1338 2547 1274 2227 
L 1331 2208 
Q 1389 2336 1469 2457 
Q 1549 2579 1667 2672 
Q 1786 2765 1946 2822 
Q 2106 2880 2317 2880 
Q 2592 2880 2832 2781 
Q 3072 2682 3248 2502 
Q 3424 2323 3523 2064 
Q 3622 1805 3622 1491 
Q 3622 1146 3504 858 
Q 3386 570 3165 362 
Q 2944 154 2637 38 
Q 2330 -77 1946 -77 
z
M 1946 672 
Q 2266 672 2445 848 
Q 2624 1024 2624 1350 
L 2624 1466 
Q 2624 1792 2445 1968 
Q 2266 2144 1946 2144 
Q 1626 2144 1446 1968 
Q 1267 1792 1267 1466 
L 1267 1350 
Q 1267 1024 1446 848 
Q 1626 672 1946 672 
z
" transform="scale(0.015625)"/>
     </defs>
     <use xlink:href="#IBMPlexSans-Bold-36"/>
    </g>
   </g>
  </g>
  <g id="axes_8">
   <g id="patch_9">
    <path d="M 7.2 121.545 
L 216.45 121.545 
L 216.45 79.965 
L 7.2 79.965 
L 7.2 121.545 
z
" style="fill: none"/>
   </g>
   <g id="matplotlib.axis_15">
    <g id="xtick_29"/>
    <g id="xtick_30"/>
    <g id="xtick_31"/>
    <g id="xtick_32"/>
   </g>
   <g id="matplotlib.axis_16"/>
   <g id="FillBetweenPolyCollection_7">
    <defs>
     <path id="mcc175b8d05" d="M 100.793581 -52.892137 
L 100.793581 -52.715 
L 101.075874 -52.715 
L 101.358168 -52.715 
L 101.640461 -52.715 
L 101.922755 -52.715 
L 102.205049 -52.715 
L 102.487342 -52.715 
L 102.769636 -52.715 
L 103.051929 -52.715 
L 103.334223 -52.715 
L 103.616516 -52.715 
L 103.89881 -52.715 
L 104.181104 -52.715 
L 104.463397 -52.715 
L 104.745691 -52.715 
L 105.027984 -52.715 
L 105.310278 -52.715 
L 105.592571 -52.715 
L 105.874865 -52.715 
L 106.157159 -52.715 
L 106.439452 -52.715 
L 106.721746 -52.715 
L 107.004039 -52.715 
L 107.286333 -52.715 
L 107.568626 -52.715 
L 107.85092 -52.715 
L 108.133214 -52.715 
L 108.415507 -52.715 
L 108.697801 -52.715 
L 108.980094 -52.715 
L 109.262388 -52.715 
L 109.544681 -52.715 
L 109.826975 -52.715 
L 110.109269 -52.715 
L 110.391562 -52.715 
L 110.673856 -52.715 
L 110.956149 -52.715 
L 111.238443 -52.715 
L 111.520736 -52.715 
L 111.80303 -52.715 
L 112.085324 -52.715 
L 112.367617 -52.715 
L 112.649911 -52.715 
L 112.932204 -52.715 
L 113.214498 -52.715 
L 113.496791 -52.715 
L 113.779085 -52.715 
L 114.061379 -52.715 
L 114.343672 -52.715 
L 114.625966 -52.715 
L 114.908259 -52.715 
L 115.190553 -52.715 
L 115.472846 -52.715 
L 115.75514 -52.715 
L 116.037434 -52.715 
L 116.319727 -52.715 
L 116.602021 -52.715 
L 116.884314 -52.715 
L 117.166608 -52.715 
L 117.448901 -52.715 
L 117.731195 -52.715 
L 118.013489 -52.715 
L 118.295782 -52.715 
L 118.578076 -52.715 
L 118.860369 -52.715 
L 119.142663 -52.715 
L 119.424956 -52.715 
L 119.70725 -52.715 
L 119.989544 -52.715 
L 120.271837 -52.715 
L 120.554131 -52.715 
L 120.836424 -52.715 
L 121.118718 -52.715 
L 121.401011 -52.715 
L 121.683305 -52.715 
L 121.965599 -52.715 
L 122.247892 -52.715 
L 122.530186 -52.715 
L 122.812479 -52.715 
L 123.094773 -52.715 
L 123.377066 -52.715 
L 123.65936 -52.715 
L 123.941654 -52.715 
L 124.223947 -52.715 
L 124.506241 -52.715 
L 124.788534 -52.715 
L 125.070828 -52.715 
L 125.353121 -52.715 
L 125.635415 -52.715 
L 125.917709 -52.715 
L 126.200002 -52.715 
L 126.482296 -52.715 
L 126.764589 -52.715 
L 127.046883 -52.715 
L 127.329176 -52.715 
L 127.61147 -52.715 
L 127.893764 -52.715 
L 128.176057 -52.715 
L 128.458351 -52.715 
L 128.740644 -52.715 
L 129.022938 -52.715 
L 129.305231 -52.715 
L 129.587525 -52.715 
L 129.869819 -52.715 
L 130.152112 -52.715 
L 130.434406 -52.715 
L 130.716699 -52.715 
L 130.998993 -52.715 
L 131.281286 -52.715 
L 131.56358 -52.715 
L 131.845874 -52.715 
L 132.128167 -52.715 
L 132.410461 -52.715 
L 132.692754 -52.715 
L 132.975048 -52.715 
L 133.257341 -52.715 
L 133.539635 -52.715 
L 133.821929 -52.715 
L 134.104222 -52.715 
L 134.386516 -52.715 
L 134.668809 -52.715 
L 134.951103 -52.715 
L 135.233396 -52.715 
L 135.51569 -52.715 
L 135.797983 -52.715 
L 136.080277 -52.715 
L 136.362571 -52.715 
L 136.644864 -52.715 
L 136.927158 -52.715 
L 137.209451 -52.715 
L 137.491745 -52.715 
L 137.774038 -52.715 
L 138.056332 -52.715 
L 138.338626 -52.715 
L 138.620919 -52.715 
L 138.903213 -52.715 
L 139.185506 -52.715 
L 139.4678 -52.715 
L 139.750093 -52.715 
L 140.032387 -52.715 
L 140.314681 -52.715 
L 140.596974 -52.715 
L 140.879268 -52.715 
L 141.161561 -52.715 
L 141.443855 -52.715 
L 141.726148 -52.715 
L 142.008442 -52.715 
L 142.290736 -52.715 
L 142.573029 -52.715 
L 142.855323 -52.715 
L 143.137616 -52.715 
L 143.41991 -52.715 
L 143.702203 -52.715 
L 143.984497 -52.715 
L 144.266791 -52.715 
L 144.549084 -52.715 
L 144.831378 -52.715 
L 145.113671 -52.715 
L 145.395965 -52.715 
L 145.678258 -52.715 
L 145.960552 -52.715 
L 146.242846 -52.715 
L 146.525139 -52.715 
L 146.807433 -52.715 
L 147.089726 -52.715 
L 147.37202 -52.715 
L 147.654313 -52.715 
L 147.936607 -52.715 
L 148.218901 -52.715 
L 148.501194 -52.715 
L 148.783488 -52.715 
L 149.065781 -52.715 
L 149.348075 -52.715 
L 149.630368 -52.715 
L 149.912662 -52.715 
L 150.194956 -52.715 
L 150.477249 -52.715 
L 150.759543 -52.715 
L 151.041836 -52.715 
L 151.32413 -52.715 
L 151.606423 -52.715 
L 151.888717 -52.715 
L 152.171011 -52.715 
L 152.453304 -52.715 
L 152.735598 -52.715 
L 153.017891 -52.715 
L 153.300185 -52.715 
L 153.582478 -52.715 
L 153.864772 -52.715 
L 154.147066 -52.715 
L 154.429359 -52.715 
L 154.711653 -52.715 
L 154.993946 -52.715 
L 155.27624 -52.715 
L 155.558533 -52.715 
L 155.840827 -52.715 
L 156.123121 -52.715 
L 156.405414 -52.715 
L 156.687708 -52.715 
L 156.970001 -52.715 
L 156.970001 -53.195806 
L 156.970001 -53.195806 
L 156.687708 -53.271946 
L 156.405414 -53.357305 
L 156.123121 -53.452609 
L 155.840827 -53.558592 
L 155.558533 -53.675986 
L 155.27624 -53.805504 
L 154.993946 -53.947821 
L 154.711653 -54.103558 
L 154.429359 -54.273249 
L 154.147066 -54.45732 
L 153.864772 -54.656052 
L 153.582478 -54.869557 
L 153.300185 -55.097744 
L 153.017891 -55.340298 
L 152.735598 -55.59665 
L 152.453304 -55.865974 
L 152.171011 -56.147171 
L 151.888717 -56.438882 
L 151.606423 -56.739505 
L 151.32413 -57.047219 
L 151.041836 -57.360033 
L 150.759543 -57.675835 
L 150.477249 -57.992457 
L 150.194956 -58.307745 
L 149.912662 -58.619637 
L 149.630368 -58.926236 
L 149.348075 -59.225887 
L 149.065781 -59.517244 
L 148.783488 -59.799325 
L 148.501194 -60.071563 
L 148.218901 -60.333829 
L 147.936607 -60.586447 
L 147.654313 -60.830189 
L 147.37202 -61.066245 
L 147.089726 -61.296183 
L 146.807433 -61.521892 
L 146.525139 -61.745507 
L 146.242846 -61.969331 
L 145.960552 -62.195743 
L 145.678258 -62.42711 
L 145.395965 -62.665698 
L 145.113671 -62.913586 
L 144.831378 -63.17259 
L 144.549084 -63.444193 
L 144.266791 -63.729497 
L 143.984497 -64.029176 
L 143.702203 -64.343455 
L 143.41991 -64.672094 
L 143.137616 -65.01439 
L 142.855323 -65.369193 
L 142.573029 -65.734929 
L 142.290736 -66.109635 
L 142.008442 -66.491007 
L 141.726148 -66.876443 
L 141.443855 -67.2631 
L 141.161561 -67.647952 
L 140.879268 -68.027848 
L 140.596974 -68.399569 
L 140.314681 -68.759885 
L 140.032387 -69.105609 
L 139.750093 -69.433643 
L 139.4678 -69.741023 
L 139.185506 -70.024953 
L 138.903213 -70.282836 
L 138.620919 -70.512293 
L 138.338626 -70.711178 
L 138.056332 -70.877585 
L 137.774038 -71.009848 
L 137.491745 -71.106536 
L 137.209451 -71.166448 
L 136.927158 -71.188604 
L 136.644864 -71.172237 
L 136.362571 -71.116789 
L 136.080277 -71.021909 
L 135.797983 -70.887462 
L 135.51569 -70.713531 
L 135.233396 -70.500441 
L 134.951103 -70.24878 
L 134.668809 -69.959421 
L 134.386516 -69.633554 
L 134.104222 -69.272715 
L 133.821929 -68.878808 
L 133.539635 -68.454129 
L 133.257341 -68.00138 
L 132.975048 -67.523664 
L 132.692754 -67.024483 
L 132.410461 -66.507707 
L 132.128167 -65.97754 
L 131.845874 -65.438459 
L 131.56358 -64.895154 
L 131.281286 -64.352438 
L 130.998993 -63.815163 
L 130.716699 -63.288117 
L 130.434406 -62.77592 
L 130.152112 -62.282922 
L 129.869819 -61.813105 
L 129.587525 -61.369983 
L 129.305231 -60.956525 
L 129.022938 -60.575086 
L 128.740644 -60.227354 
L 128.458351 -59.914317 
L 128.176057 -59.636253 
L 127.893764 -59.392736 
L 127.61147 -59.182663 
L 127.329176 -59.004303 
L 127.046883 -58.855362 
L 126.764589 -58.733055 
L 126.482296 -58.6342 
L 126.200002 -58.555311 
L 125.917709 -58.492701 
L 125.635415 -58.442577 
L 125.353121 -58.401144 
L 125.070828 -58.364691 
L 124.788534 -58.329679 
L 124.506241 -58.292812 
L 124.223947 -58.2511 
L 123.941654 -58.201914 
L 123.65936 -58.143019 
L 123.377066 -58.072603 
L 123.094773 -57.989297 
L 122.812479 -57.892175 
L 122.530186 -57.780753 
L 122.247892 -57.654973 
L 121.965599 -57.515183 
L 121.683305 -57.362106 
L 121.401011 -57.196807 
L 121.118718 -57.020648 
L 120.836424 -56.835242 
L 120.554131 -56.642403 
L 120.271837 -56.444088 
L 119.989544 -56.242346 
L 119.70725 -56.039256 
L 119.424956 -55.836871 
L 119.142663 -55.637168 
L 118.860369 -55.441996 
L 118.578076 -55.253029 
L 118.295782 -55.071735 
L 118.013489 -54.89934 
L 117.731195 -54.736813 
L 117.448901 -54.584852 
L 117.166608 -54.443882 
L 116.884314 -54.314064 
L 116.602021 -54.195311 
L 116.319727 -54.08731 
L 116.037434 -53.989552 
L 115.75514 -53.901367 
L 115.472846 -53.82196 
L 115.190553 -53.750447 
L 114.908259 -53.685898 
L 114.625966 -53.627374 
L 114.343672 -53.573953 
L 114.061379 -53.524769 
L 113.779085 -53.479032 
L 113.496791 -53.436049 
L 113.214498 -53.395235 
L 112.932204 -53.356126 
L 112.649911 -53.318379 
L 112.367617 -53.281771 
L 112.085324 -53.246189 
L 111.80303 -53.211624 
L 111.520736 -53.178154 
L 111.238443 -53.145929 
L 110.956149 -53.115154 
L 110.673856 -53.08607 
L 110.391562 -53.05894 
L 110.109269 -53.034023 
L 109.826975 -53.011568 
L 109.544681 -52.991791 
L 109.262388 -52.974867 
L 108.980094 -52.96092 
L 108.697801 -52.950012 
L 108.415507 -52.942137 
L 108.133214 -52.937224 
L 107.85092 -52.935128 
L 107.568626 -52.935641 
L 107.286333 -52.938488 
L 107.004039 -52.94334 
L 106.721746 -52.94982 
L 106.439452 -52.957515 
L 106.157159 -52.965985 
L 105.874865 -52.974779 
L 105.592571 -52.983449 
L 105.310278 -52.991562 
L 105.027984 -52.998713 
L 104.745691 -53.00454 
L 104.463397 -53.008731 
L 104.181104 -53.011039 
L 103.89881 -53.011281 
L 103.616516 -53.009348 
L 103.334223 -53.005203 
L 103.051929 -52.998881 
L 102.769636 -52.990482 
L 102.487342 -52.980169 
L 102.205049 -52.968154 
L 101.922755 -52.954688 
L 101.640461 -52.940053 
L 101.358168 -52.924548 
L 101.075874 -52.908477 
L 100.793581 -52.892137 
z
" style="stroke: #44bf70; stroke-width: 1.25"/>
    </defs>
    <g>
     <use xlink:href="#mcc175b8d05" x="0" y="174.26" style="fill: #44bf70; fill-opacity: 0.7; stroke: #44bf70; stroke-width: 1.25"/>
    </g>
   </g>
   <g id="line2d_8">
    <path d="M 7.2 121.545 
L 216.45 121.545 
" style="fill: none; stroke: #44bf70; stroke-opacity: 0.9; stroke-linecap: round"/>
   </g>
   <g id="text_8">
    <!-- 7 -->
    <g style="fill: #44bf70" transform="translate(7.2 120.627) scale(0.12 -0.12)">
     <defs>
      <path id="IBMPlexSans-Bold-37" d="M 1062 0 
L 2560 3686 
L 1165 3686 
L 1165 2874 
L 352 2874 
L 352 4467 
L 3514 4467 
L 3514 3635 
L 2074 0 
L 1062 0 
z
" transform="scale(0.015625)"/>
     </defs>
     <use xlink:href="#IBMPlexSans-Bold-37"/>
    </g>
   </g>
  </g>
  <g id="axes_9">
   <g id="patch_10">
    <path d="M 7.2 131.94 
L 216.45 131.94 
L 216.45 90.36 
L 7.2 90.36 
L 7.2 131.94 
z
" style="fill: none"/>
   </g>
   <g id="matplotlib.axis_17">
    <g id="xtick_33">
     <g id="text_9">
      <!-- 5.0 -->
      <g style="fill: #838383" transform="translate(35.191963 149.58) scale(0.11 -0.11)">
       <defs>
        <path id="IBMPlexSans-Regular-2212" d="M 429 1734 
L 429 2170 
L 3411 2170 
L 3411 1734 
L 429 1734 
z
" transform="scale(0.015625)"/>
        <path id="IBMPlexSans-Regular-35" d="M 3187 3994 
L 1229 3994 
L 1101 2291 
L 1146 2291 
Q 1306 2515 1507 2649 
Q 1709 2784 2061 2784 
Q 2349 2784 2592 2688 
Q 2835 2592 3014 2416 
Q 3194 2240 3293 1984 
Q 3392 1728 3392 1402 
Q 3392 1075 3289 803 
Q 3187 531 2992 336 
Q 2797 141 2518 32 
Q 2240 -77 1888 -77 
Q 1606 -77 1392 -13 
Q 1178 51 1011 160 
Q 845 269 720 403 
Q 595 538 493 685 
L 896 992 
Q 979 858 1072 749 
Q 1165 640 1277 563 
Q 1389 486 1536 444 
Q 1683 403 1888 403 
Q 2349 403 2585 646 
Q 2822 890 2822 1331 
L 2822 1395 
Q 2822 1837 2585 2080 
Q 2349 2323 1888 2323 
Q 1581 2323 1405 2211 
Q 1229 2099 1088 1946 
L 634 2010 
L 794 4467 
L 3187 4467 
L 3187 3994 
z
" transform="scale(0.015625)"/>
        <path id="IBMPlexSans-Regular-2e" d="M 870 -77 
Q 666 -77 573 25 
Q 480 128 480 294 
L 480 378 
Q 480 544 573 646 
Q 666 749 870 749 
Q 1075 749 1168 646 
Q 1261 544 1261 378 
L 1261 294 
Q 1261 128 1168 25 
Q 1075 -77 870 -77 
z
" transform="scale(0.015625)"/>
        <path id="IBMPlexSans-Regular-30" d="M 1920 -77 
Q 1120 -77 752 531 
Q 384 1139 384 2234 
Q 384 3328 752 3936 
Q 1120 4544 1920 4544 
Q 2720 4544 3088 3936 
Q 3456 3328 3456 2234 
Q 3456 1139 3088 531 
Q 2720 -77 1920 -77 
z
M 1920 390 
Q 2182 390 2368 499 
Q 2554 608 2669 806 
Q 2784 1005 2838 1273 
Q 2893 1542 2893 1869 
L 2893 2598 
Q 2893 2925 2838 3193 
Q 2784 3462 2669 3660 
Q 2554 3859 2368 3968 
Q 2182 4077 1920 4077 
Q 1658 4077 1472 3968 
Q 1286 3859 1171 3660 
Q 1056 3462 1001 3193 
Q 947 2925 947 2598 
L 947 1869 
Q 947 1542 1001 1273 
Q 1056 1005 1171 806 
Q 1286 608 1472 499 
Q 1658 390 1920 390 
z
" transform="scale(0.015625)"/>
       </defs>
       <use xlink:href="#IBMPlexSans-Regular-2212"/>
       <use xlink:href="#IBMPlexSans-Regular-35" transform="translate(59.999985 0)"/>
       <use xlink:href="#IBMPlexSans-Regular-2e" transform="translate(119.999969 0)"/>
       <use xlink:href="#IBMPlexSans-Regular-30" transform="translate(147.199966 0)"/>
      </g>
     </g>
    </g>
    <g id="xtick_34">
     <g id="text_10">
      <!-- 2.5 -->
      <g style="fill: #838383" transform="translate(80.430824 149.58) scale(0.11 -0.11)">
       <defs>
        <path id="IBMPlexSans-Regular-32" d="M 3411 0 
L 480 0 
L 480 550 
L 1939 1894 
Q 2253 2182 2464 2505 
Q 2675 2829 2675 3155 
L 2675 3232 
Q 2675 3603 2470 3833 
Q 2266 4064 1850 4064 
Q 1645 4064 1491 4006 
Q 1338 3949 1226 3846 
Q 1114 3744 1040 3606 
Q 966 3469 922 3309 
L 442 3494 
Q 506 3693 618 3881 
Q 730 4070 899 4217 
Q 1069 4365 1309 4454 
Q 1549 4544 1875 4544 
Q 2202 4544 2458 4448 
Q 2714 4352 2886 4179 
Q 3059 4006 3152 3769 
Q 3245 3533 3245 3245 
Q 3245 2982 3171 2758 
Q 3098 2534 2970 2332 
Q 2842 2131 2659 1939 
Q 2477 1747 2266 1555 
L 1062 474 
L 3411 474 
L 3411 0 
z
" transform="scale(0.015625)"/>
       </defs>
       <use xlink:href="#IBMPlexSans-Regular-2212"/>
       <use xlink:href="#IBMPlexSans-Regular-32" transform="translate(59.999985 0)"/>
       <use xlink:href="#IBMPlexSans-Regular-2e" transform="translate(119.999969 0)"/>
       <use xlink:href="#IBMPlexSans-Regular-35" transform="translate(147.199966 0)"/>
      </g>
     </g>
    </g>
    <g id="xtick_35">
     <g id="text_11">
      <!-- 0.0 -->
      <g style="fill: #838383" transform="translate(128.969684 149.58) scale(0.11 -0.11)">
       <use xlink:href="#IBMPlexSans-Regular-30"/>
       <use xlink:href="#IBMPlexSans-Regular-2e" transform="translate(59.999985 0)"/>
       <use xlink:href="#IBMPlexSans-Regular-30" transform="translate(87.199982 0)"/>
      </g>
     </g>
    </g>
    <g id="xtick_36">
     <g id="text_12">
      <!-- 2.5 -->
      <g style="fill: #838383" transform="translate(174.208544 149.58) scale(0.11 -0.11)">
       <use xlink:href="#IBMPlexSans-Regular-32"/>
       <use xlink:href="#IBMPlexSans-Regular-2e" transform="translate(59.999985 0)"/>
       <use xlink:href="#IBMPlexSans-Regular-35" transform="translate(87.199982 0)"/>
      </g>
     </g>
    </g>
    <g id="text_13">
     <!-- sld -->
     <g style="fill: #262626" transform="translate(103.790625 164.66) scale(0.12 -0.12)">
      <defs>
       <path id="IBMPlexSans-Regular-73" d="M 1536 -77 
Q 1075 -77 764 99 
Q 454 275 230 570 
L 595 864 
Q 787 621 1024 489 
Q 1261 358 1574 358 
Q 1901 358 2083 499 
Q 2266 640 2266 896 
Q 2266 1088 2141 1225 
Q 2016 1363 1690 1414 
L 1427 1453 
Q 1197 1485 1005 1552 
Q 813 1619 669 1731 
Q 525 1843 445 2009 
Q 365 2176 365 2406 
Q 365 2650 454 2832 
Q 544 3014 701 3136 
Q 858 3258 1075 3318 
Q 1293 3379 1542 3379 
Q 1946 3379 2218 3238 
Q 2490 3098 2694 2848 
L 2355 2541 
Q 2246 2694 2035 2819 
Q 1824 2944 1504 2944 
Q 1184 2944 1021 2806 
Q 858 2669 858 2432 
Q 858 2189 1021 2080 
Q 1184 1971 1491 1920 
L 1747 1882 
Q 2298 1798 2528 1564 
Q 2758 1331 2758 954 
Q 2758 474 2432 198 
Q 2106 -77 1536 -77 
z
" transform="scale(0.015625)"/>
       <path id="IBMPlexSans-Regular-6c" d="M 1088 0 
Q 819 0 681 150 
Q 544 301 544 531 
L 544 4736 
L 1056 4736 
L 1056 448 
L 1542 448 
L 1542 0 
L 1088 0 
z
" transform="scale(0.015625)"/>
       <path id="IBMPlexSans-Regular-64" d="M 2656 538 
L 2630 538 
Q 2330 -77 1664 -77 
Q 1357 -77 1107 44 
Q 858 166 682 390 
Q 506 614 413 934 
Q 320 1254 320 1651 
Q 320 2048 413 2368 
Q 506 2688 682 2912 
Q 858 3136 1107 3257 
Q 1357 3379 1664 3379 
Q 2010 3379 2256 3228 
Q 2502 3078 2630 2765 
L 2656 2765 
L 2656 4736 
L 3168 4736 
L 3168 0 
L 2656 0 
L 2656 538 
z
M 1805 384 
Q 1978 384 2134 429 
Q 2291 474 2406 560 
Q 2522 646 2589 771 
Q 2656 896 2656 1056 
L 2656 2285 
Q 2656 2419 2589 2537 
Q 2522 2656 2406 2739 
Q 2291 2822 2134 2870 
Q 1978 2918 1805 2918 
Q 1370 2918 1120 2646 
Q 870 2374 870 1933 
L 870 1370 
Q 870 928 1120 656 
Q 1370 384 1805 384 
z
" transform="scale(0.015625)"/>
      </defs>
      <use xlink:href="#IBMPlexSans-Regular-73"/>
      <use xlink:href="#IBMPlexSans-Regular-6c" transform="translate(48.699997 0)"/>
      <use xlink:href="#IBMPlexSans-Regular-64" transform="translate(75.899994 0)"/>
     </g>
    </g>
   </g>
   <g id="matplotlib.axis_18"/>
   <g id="FillBetweenPolyCollection_8">
    <defs>
     <path id="m151cfbfecb" d="M 127.509127 -42.937374 
L 127.509127 -42.32 
L 127.623588 -42.32 
L 127.738049 -42.32 
L 127.852511 -42.32 
L 127.966972 -42.32 
L 128.081433 -42.32 
L 128.195895 -42.32 
L 128.310356 -42.32 
L 128.424817 -42.32 
L 128.539279 -42.32 
L 128.65374 -42.32 
L 128.768202 -42.32 
L 128.882663 -42.32 
L 128.997124 -42.32 
L 129.111586 -42.32 
L 129.226047 -42.32 
L 129.340508 -42.32 
L 129.45497 -42.32 
L 129.569431 -42.32 
L 129.683892 -42.32 
L 129.798354 -42.32 
L 129.912815 -42.32 
L 130.027277 -42.32 
L 130.141738 -42.32 
L 130.256199 -42.32 
L 130.370661 -42.32 
L 130.485122 -42.32 
L 130.599583 -42.32 
L 130.714045 -42.32 
L 130.828506 -42.32 
L 130.942968 -42.32 
L 131.057429 -42.32 
L 131.17189 -42.32 
L 131.286352 -42.32 
L 131.400813 -42.32 
L 131.515274 -42.32 
L 131.629736 -42.32 
L 131.744197 -42.32 
L 131.858658 -42.32 
L 131.97312 -42.32 
L 132.087581 -42.32 
L 132.202043 -42.32 
L 132.316504 -42.32 
L 132.430965 -42.32 
L 132.545427 -42.32 
L 132.659888 -42.32 
L 132.774349 -42.32 
L 132.888811 -42.32 
L 133.003272 -42.32 
L 133.117733 -42.32 
L 133.232195 -42.32 
L 133.346656 -42.32 
L 133.461118 -42.32 
L 133.575579 -42.32 
L 133.69004 -42.32 
L 133.804502 -42.32 
L 133.918963 -42.32 
L 134.033424 -42.32 
L 134.147886 -42.32 
L 134.262347 -42.32 
L 134.376808 -42.32 
L 134.49127 -42.32 
L 134.605731 -42.32 
L 134.720193 -42.32 
L 134.834654 -42.32 
L 134.949115 -42.32 
L 135.063577 -42.32 
L 135.178038 -42.32 
L 135.292499 -42.32 
L 135.406961 -42.32 
L 135.521422 -42.32 
L 135.635884 -42.32 
L 135.750345 -42.32 
L 135.864806 -42.32 
L 135.979268 -42.32 
L 136.093729 -42.32 
L 136.20819 -42.32 
L 136.322652 -42.32 
L 136.437113 -42.32 
L 136.551574 -42.32 
L 136.666036 -42.32 
L 136.780497 -42.32 
L 136.894959 -42.32 
L 137.00942 -42.32 
L 137.123881 -42.32 
L 137.238343 -42.32 
L 137.352804 -42.32 
L 137.467265 -42.32 
L 137.581727 -42.32 
L 137.696188 -42.32 
L 137.810649 -42.32 
L 137.925111 -42.32 
L 138.039572 -42.32 
L 138.154034 -42.32 
L 138.268495 -42.32 
L 138.382956 -42.32 
L 138.497418 -42.32 
L 138.611879 -42.32 
L 138.72634 -42.32 
L 138.840802 -42.32 
L 138.955263 -42.32 
L 139.069725 -42.32 
L 139.184186 -42.32 
L 139.298647 -42.32 
L 139.413109 -42.32 
L 139.52757 -42.32 
L 139.642031 -42.32 
L 139.756493 -42.32 
L 139.870954 -42.32 
L 139.985415 -42.32 
L 140.099877 -42.32 
L 140.214338 -42.32 
L 140.3288 -42.32 
L 140.443261 -42.32 
L 140.557722 -42.32 
L 140.672184 -42.32 
L 140.786645 -42.32 
L 140.901106 -42.32 
L 141.015568 -42.32 
L 141.130029 -42.32 
L 141.24449 -42.32 
L 141.358952 -42.32 
L 141.473413 -42.32 
L 141.587875 -42.32 
L 141.702336 -42.32 
L 141.816797 -42.32 
L 141.931259 -42.32 
L 142.04572 -42.32 
L 142.160181 -42.32 
L 142.274643 -42.32 
L 142.389104 -42.32 
L 142.503565 -42.32 
L 142.618027 -42.32 
L 142.732488 -42.32 
L 142.84695 -42.32 
L 142.961411 -42.32 
L 143.075872 -42.32 
L 143.190334 -42.32 
L 143.304795 -42.32 
L 143.419256 -42.32 
L 143.533718 -42.32 
L 143.648179 -42.32 
L 143.762641 -42.32 
L 143.877102 -42.32 
L 143.991563 -42.32 
L 144.106025 -42.32 
L 144.220486 -42.32 
L 144.334947 -42.32 
L 144.449409 -42.32 
L 144.56387 -42.32 
L 144.678331 -42.32 
L 144.792793 -42.32 
L 144.907254 -42.32 
L 145.021716 -42.32 
L 145.136177 -42.32 
L 145.250638 -42.32 
L 145.3651 -42.32 
L 145.479561 -42.32 
L 145.594022 -42.32 
L 145.708484 -42.32 
L 145.822945 -42.32 
L 145.937406 -42.32 
L 146.051868 -42.32 
L 146.166329 -42.32 
L 146.280791 -42.32 
L 146.395252 -42.32 
L 146.509713 -42.32 
L 146.624175 -42.32 
L 146.738636 -42.32 
L 146.853097 -42.32 
L 146.967559 -42.32 
L 147.08202 -42.32 
L 147.196481 -42.32 
L 147.310943 -42.32 
L 147.425404 -42.32 
L 147.539866 -42.32 
L 147.654327 -42.32 
L 147.768788 -42.32 
L 147.88325 -42.32 
L 147.997711 -42.32 
L 148.112172 -42.32 
L 148.226634 -42.32 
L 148.341095 -42.32 
L 148.455557 -42.32 
L 148.570018 -42.32 
L 148.684479 -42.32 
L 148.798941 -42.32 
L 148.913402 -42.32 
L 149.027863 -42.32 
L 149.142325 -42.32 
L 149.256786 -42.32 
L 149.371247 -42.32 
L 149.485709 -42.32 
L 149.60017 -42.32 
L 149.714632 -42.32 
L 149.829093 -42.32 
L 149.943554 -42.32 
L 150.058016 -42.32 
L 150.172477 -42.32 
L 150.286938 -42.32 
L 150.286938 -43.123151 
L 150.286938 -43.123151 
L 150.172477 -43.216257 
L 150.058016 -43.313138 
L 149.943554 -43.412783 
L 149.829093 -43.514016 
L 149.714632 -43.615522 
L 149.60017 -43.715868 
L 149.485709 -43.813543 
L 149.371247 -43.906995 
L 149.256786 -43.994675 
L 149.142325 -44.075089 
L 149.027863 -44.146847 
L 148.913402 -44.208709 
L 148.798941 -44.259638 
L 148.684479 -44.298838 
L 148.570018 -44.32579 
L 148.455557 -44.340283 
L 148.341095 -44.342426 
L 148.226634 -44.332659 
L 148.112172 -44.311747 
L 147.997711 -44.280765 
L 147.88325 -44.241074 
L 147.768788 -44.194286 
L 147.654327 -44.142222 
L 147.539866 -44.086868 
L 147.425404 -44.030323 
L 147.310943 -43.974748 
L 147.196481 -43.922321 
L 147.08202 -43.875189 
L 146.967559 -43.835431 
L 146.853097 -43.805022 
L 146.738636 -43.785816 
L 146.624175 -43.779522 
L 146.509713 -43.787704 
L 146.395252 -43.811779 
L 146.280791 -43.853026 
L 146.166329 -43.912599 
L 146.051868 -43.991547 
L 145.937406 -44.090833 
L 145.822945 -44.211353 
L 145.708484 -44.353956 
L 145.594022 -44.519463 
L 145.479561 -44.708672 
L 145.3651 -44.922368 
L 145.250638 -45.161316 
L 145.136177 -45.426258 
L 145.021716 -45.717891 
L 144.907254 -46.036848 
L 144.792793 -46.383664 
L 144.678331 -46.75875 
L 144.56387 -47.162346 
L 144.449409 -47.594493 
L 144.334947 -48.054988 
L 144.220486 -48.543356 
L 144.106025 -49.058821 
L 143.991563 -49.600283 
L 143.877102 -50.166311 
L 143.762641 -50.755149 
L 143.648179 -51.364729 
L 143.533718 -51.992703 
L 143.419256 -52.636494 
L 143.304795 -53.293355 
L 143.190334 -53.960448 
L 143.075872 -54.634931 
L 142.961411 -55.314056 
L 142.84695 -55.995269 
L 142.732488 -56.676314 
L 142.618027 -57.355327 
L 142.503565 -58.030924 
L 142.389104 -58.702269 
L 142.274643 -59.369124 
L 142.160181 -60.031864 
L 142.04572 -60.691474 
L 141.931259 -61.349507 
L 141.816797 -62.008007 
L 141.702336 -62.669403 
L 141.587875 -63.336381 
L 141.473413 -64.011723 
L 141.358952 -64.698135 
L 141.24449 -65.39807 
L 141.130029 -66.113549 
L 141.015568 -66.845996 
L 140.901106 -67.596095 
L 140.786645 -68.363678 
L 140.672184 -69.14765 
L 140.557722 -69.945957 
L 140.443261 -70.755602 
L 140.3288 -71.572705 
L 140.214338 -72.392608 
L 140.099877 -73.21002 
L 139.985415 -74.019183 
L 139.870954 -74.814069 
L 139.756493 -75.588578 
L 139.642031 -76.336729 
L 139.52757 -77.05285 
L 139.413109 -77.731722 
L 139.298647 -78.368709 
L 139.184186 -78.959837 
L 139.069725 -79.501832 
L 138.955263 -79.992117 
L 138.840802 -80.428776 
L 138.72634 -80.810478 
L 138.611879 -81.136378 
L 138.497418 -81.406015 
L 138.382956 -81.619192 
L 138.268495 -81.77588 
L 138.154034 -81.876127 
L 138.039572 -81.92 
L 137.925111 -81.90756 
L 137.810649 -81.838864 
L 137.696188 -81.714011 
L 137.581727 -81.533208 
L 137.467265 -81.296873 
L 137.352804 -81.005743 
L 137.238343 -80.660997 
L 137.123881 -80.264377 
L 137.00942 -79.818288 
L 136.894959 -79.325884 
L 136.780497 -78.791115 
L 136.666036 -78.218736 
L 136.551574 -77.614282 
L 136.437113 -76.983992 
L 136.322652 -76.334691 
L 136.20819 -75.673635 
L 136.093729 -75.008326 
L 135.979268 -74.346298 
L 135.864806 -73.694889 
L 135.750345 -73.061009 
L 135.635884 -72.450913 
L 135.521422 -71.869983 
L 135.406961 -71.322546 
L 135.292499 -70.811715 
L 135.178038 -70.339275 
L 135.063577 -69.905609 
L 134.949115 -69.509684 
L 134.834654 -69.149071 
L 134.720193 -68.820026 
L 134.605731 -68.517614 
L 134.49127 -68.235875 
L 134.376808 -67.968029 
L 134.262347 -67.706706 
L 134.147886 -67.444204 
L 134.033424 -67.17275 
L 133.918963 -66.884774 
L 133.804502 -66.573162 
L 133.69004 -66.231504 
L 133.575579 -65.854306 
L 133.461118 -65.437173 
L 133.346656 -64.976947 
L 133.232195 -64.471802 
L 133.117733 -63.921283 
L 133.003272 -63.326307 
L 132.888811 -62.689097 
L 132.774349 -62.013085 
L 132.659888 -61.302763 
L 132.545427 -60.56351 
L 132.430965 -59.801382 
L 132.316504 -59.022896 
L 132.202043 -58.234796 
L 132.087581 -57.443836 
L 131.97312 -56.656563 
L 131.858658 -55.879126 
L 131.744197 -55.117119 
L 131.629736 -54.375447 
L 131.515274 -53.658232 
L 131.400813 -52.968769 
L 131.286352 -52.309499 
L 131.17189 -51.682036 
L 131.057429 -51.087214 
L 130.942968 -50.525165 
L 130.828506 -49.995414 
L 130.714045 -49.496988 
L 130.599583 -49.028531 
L 130.485122 -48.588412 
L 130.370661 -48.174842 
L 130.256199 -47.785962 
L 130.141738 -47.419929 
L 130.027277 -47.074981 
L 129.912815 -46.749484 
L 129.798354 -46.441969 
L 129.683892 -46.151139 
L 129.569431 -45.87588 
L 129.45497 -45.615246 
L 129.340508 -45.368448 
L 129.226047 -45.134827 
L 129.111586 -44.913835 
L 128.997124 -44.705007 
L 128.882663 -44.507938 
L 128.768202 -44.322267 
L 128.65374 -44.147656 
L 128.539279 -43.98378 
L 128.424817 -43.830317 
L 128.310356 -43.686943 
L 128.195895 -43.553329 
L 128.081433 -43.429139 
L 127.966972 -43.31403 
L 127.852511 -43.207653 
L 127.738049 -43.109657 
L 127.623588 -43.019684 
L 127.509127 -42.937374 
z
" style="stroke: #bddf26; stroke-width: 1.25"/>
    </defs>
    <g>
     <use xlink:href="#m151cfbfecb" x="0" y="174.26" style="fill: #bddf26; fill-opacity: 0.7; stroke: #bddf26; stroke-width: 1.25"/>
    </g>
   </g>
   <g id="line2d_9">
    <path d="M 7.2 131.94 
L 216.45 131.94 
" style="fill: none; stroke: #bddf26; stroke-opacity: 0.9; stroke-linecap: round"/>
   </g>
   <g id="text_14">
    <!-- 8 -->
    <g style="fill: #bddf26" transform="translate(7.2 131.022) scale(0.12 -0.12)">
     <defs>
      <path id="IBMPlexSans-Bold-38" d="M 1920 -77 
Q 1523 -77 1212 22 
Q 902 122 691 294 
Q 480 467 368 704 
Q 256 941 256 1222 
Q 256 1651 493 1923 
Q 730 2195 1133 2304 
L 1133 2355 
Q 806 2477 598 2726 
Q 390 2976 390 3366 
Q 390 3622 489 3840 
Q 589 4058 784 4214 
Q 979 4371 1264 4457 
Q 1549 4544 1920 4544 
Q 2291 4544 2576 4457 
Q 2861 4371 3056 4214 
Q 3251 4058 3350 3840 
Q 3450 3622 3450 3366 
Q 3450 2976 3242 2726 
Q 3034 2477 2707 2355 
L 2707 2304 
Q 3110 2195 3347 1923 
Q 3584 1651 3584 1222 
Q 3584 941 3472 704 
Q 3360 467 3149 294 
Q 2938 122 2627 22 
Q 2317 -77 1920 -77 
z
M 1920 659 
Q 2240 659 2409 809 
Q 2579 960 2579 1229 
L 2579 1357 
Q 2579 1626 2409 1776 
Q 2240 1926 1920 1926 
Q 1600 1926 1430 1776 
Q 1261 1626 1261 1357 
L 1261 1229 
Q 1261 960 1430 809 
Q 1600 659 1920 659 
z
M 1920 2630 
Q 2227 2630 2387 2774 
Q 2547 2918 2547 3168 
L 2547 3270 
Q 2547 3520 2387 3664 
Q 2227 3808 1920 3808 
Q 1613 3808 1453 3664 
Q 1293 3520 1293 3270 
L 1293 3168 
Q 1293 2918 1453 2774 
Q 1613 2630 1920 2630 
z
" transform="scale(0.015625)"/>
     </defs>
     <use xlink:href="#IBMPlexSans-Bold-38"/>
    </g>
   </g>
  </g>
 </g>
</svg>
