<?xml version="1.0" encoding="utf-8" standalone="no"?>
<!DOCTYPE svg PUBLIC "-//W3C//DTD SVG 1.1//EN"
  "http://www.w3.org/Graphics/SVG/1.1/DTD/svg11.dtd">
<svg xmlns:xlink="http://www.w3.org/1999/xlink" width="223.65pt" height="174.26pt" viewBox="0 0 223.65 174.26" xmlns="http://www.w3.org/2000/svg" version="1.1">
 <metadata>
  <rdf:RDF xmlns:dc="http://purl.org/dc/elements/1.1/" xmlns:cc="http://creativecommons.org/ns#" xmlns:rdf="http://www.w3.org/1999/02/22-rdf-syntax-ns#">
   <cc:Work>
    <dc:type rdf:resource="http://purl.org/dc/dcmitype/StillImage"/>
    <dc:date>2025-07-24T17:02:52.447267</dc:date>
    <dc:format>image/svg+xml</dc:format>
    <dc:creator>
     <cc:Agent>
      <dc:title>Matplotlib v3.10.1, https://matplotlib.org/</dc:title>
     </cc:Agent>
    </dc:creator>
   </cc:Work>
  </rdf:RDF>
 </metadata>
 <defs>
  <style type="text/css">*{stroke-linejoin: round; stroke-linecap: butt}</style>
 </defs>
 <g id="figure_1">
  <g id="patch_1">
   <path d="M 0 174.26 
L 223.65 174.26 
L 223.65 0 
L 0 0 
L 0 174.26 
z
" style="fill: none"/>
  </g>
  <g id="axes_1">
   <g id="patch_2">
    <path d="M 7.2 48.78 
L 216.45 48.78 
L 216.45 7.2 
L 7.2 7.2 
L 7.2 48.78 
z
" style="fill: none"/>
   </g>
   <g id="matplotlib.axis_1">
    <g id="xtick_1"/>
    <g id="xtick_2"/>
    <g id="xtick_3"/>
    <g id="xtick_4"/>
   </g>
   <g id="matplotlib.axis_2"/>
   <g id="line2d_1">
    <path d="M 7.2 48.78 
L 216.45 48.78 
" style="fill: none; stroke: #482475; stroke-opacity: 0.9; stroke-linecap: round"/>
   </g>
   <g id="text_1">
    <!-- 0 -->
    <g style="fill: #482475" transform="translate(7.2 47.862) scale(0.12 -0.12)">
     <defs>
      <path id="IBMPlexSans-Bold-30" d="M 1920 -77 
Q 1043 -77 620 531 
Q 198 1139 198 2234 
Q 198 3328 620 3936 
Q 1043 4544 1920 4544 
Q 2797 4544 3219 3936 
Q 3642 3328 3642 2234 
Q 3642 1139 3219 531 
Q 2797 -77 1920 -77 
z
M 1920 736 
Q 2304 736 2451 1017 
Q 2598 1299 2598 1811 
L 2598 2656 
Q 2598 3168 2451 3449 
Q 2304 3731 1920 3731 
Q 1536 3731 1389 3449 
Q 1242 3168 1242 2656 
L 1242 1811 
Q 1242 1299 1389 1017 
Q 1536 736 1920 736 
z
" transform="scale(0.015625)"/>
     </defs>
     <use xlink:href="#IBMPlexSans-Bold-30"/>
    </g>
   </g>
  </g>
  <g id="axes_2">
   <g id="patch_3">
    <path d="M 7.2 59.175 
L 216.45 59.175 
L 216.45 17.595 
L 7.2 17.595 
L 7.2 59.175 
z
" style="fill: none"/>
   </g>
   <g id="matplotlib.axis_3">
    <g id="xtick_5"/>
    <g id="xtick_6"/>
    <g id="xtick_7"/>
    <g id="xtick_8"/>
   </g>
   <g id="matplotlib.axis_4"/>
   <g id="line2d_2">
    <path d="M 7.2 59.175 
L 216.45 59.175 
" style="fill: none; stroke: #482475; stroke-opacity: 0.9; stroke-linecap: round"/>
   </g>
   <g id="text_2">
    <!-- 1 -->
    <g style="fill: #482475" transform="translate(7.2 58.257) scale(0.12 -0.12)">
     <defs>
      <path id="IBMPlexSans-Bold-31" d="M 602 0 
L 602 774 
L 1805 774 
L 1805 3770 
L 1747 3770 
L 838 2579 
L 224 3059 
L 1293 4467 
L 2765 4467 
L 2765 774 
L 3712 774 
L 3712 0 
L 602 0 
z
" transform="scale(0.015625)"/>
     </defs>
     <use xlink:href="#IBMPlexSans-Bold-31"/>
    </g>
   </g>
  </g>
  <g id="axes_3">
   <g id="patch_4">
    <path d="M 7.2 69.57 
L 216.45 69.57 
L 216.45 27.99 
L 7.2 27.99 
L 7.2 69.57 
z
" style="fill: none"/>
   </g>
   <g id="matplotlib.axis_5">
    <g id="xtick_9"/>
    <g id="xtick_10"/>
    <g id="xtick_11"/>
    <g id="xtick_12"/>
   </g>
   <g id="matplotlib.axis_6"/>
   <g id="line2d_3">
    <path d="M 7.2 69.57 
L 216.45 69.57 
" style="fill: none; stroke: #482475; stroke-opacity: 0.9; stroke-linecap: round"/>
   </g>
   <g id="text_3">
    <!-- 2 -->
    <g style="fill: #482475" transform="translate(7.2 68.652) scale(0.12 -0.12)">
     <defs>
      <path id="IBMPlexSans-Bold-32" d="M 3526 0 
L 365 0 
L 365 877 
L 1741 2054 
Q 1926 2214 2054 2345 
Q 2182 2477 2262 2601 
Q 2342 2726 2377 2848 
Q 2413 2970 2413 3110 
L 2413 3200 
Q 2413 3328 2361 3424 
Q 2310 3520 2227 3584 
Q 2144 3648 2038 3680 
Q 1933 3712 1824 3712 
Q 1664 3712 1545 3661 
Q 1427 3610 1340 3523 
Q 1254 3437 1196 3325 
Q 1139 3213 1107 3085 
L 269 3405 
Q 346 3635 480 3843 
Q 614 4051 816 4208 
Q 1018 4365 1293 4454 
Q 1568 4544 1914 4544 
Q 2278 4544 2560 4441 
Q 2842 4339 3037 4160 
Q 3232 3981 3334 3734 
Q 3437 3488 3437 3200 
Q 3437 2912 3341 2675 
Q 3245 2438 3081 2230 
Q 2918 2022 2700 1836 
Q 2483 1651 2246 1459 
L 1414 806 
L 3526 806 
L 3526 0 
z
" transform="scale(0.015625)"/>
     </defs>
     <use xlink:href="#IBMPlexSans-Bold-32"/>
    </g>
   </g>
  </g>
  <g id="axes_4">
   <g id="patch_5">
    <path d="M 7.2 79.965 
L 216.45 79.965 
L 216.45 38.385 
L 7.2 38.385 
L 7.2 79.965 
z
" style="fill: none"/>
   </g>
   <g id="matplotlib.axis_7">
    <g id="xtick_13"/>
    <g id="xtick_14"/>
    <g id="xtick_15"/>
    <g id="xtick_16"/>
   </g>
   <g id="matplotlib.axis_8"/>
   <g id="line2d_4">
    <path d="M 7.2 79.965 
L 216.45 79.965 
" style="fill: none; stroke: #482475; stroke-opacity: 0.9; stroke-linecap: round"/>
   </g>
   <g id="text_4">
    <!-- 3 -->
    <g style="fill: #482475" transform="translate(7.2 79.047) scale(0.12 -0.12)">
     <defs>
      <path id="IBMPlexSans-Bold-33" d="M 1677 2701 
Q 2035 2701 2198 2838 
Q 2362 2976 2362 3181 
L 2362 3226 
Q 2362 3469 2205 3616 
Q 2048 3763 1760 3763 
Q 1491 3763 1254 3625 
Q 1018 3488 851 3232 
L 250 3795 
Q 378 3962 525 4099 
Q 672 4237 857 4336 
Q 1043 4435 1273 4489 
Q 1504 4544 1792 4544 
Q 2150 4544 2441 4461 
Q 2733 4378 2941 4221 
Q 3149 4064 3261 3846 
Q 3373 3629 3373 3360 
Q 3373 3149 3305 2976 
Q 3238 2803 3120 2675 
Q 3002 2547 2848 2467 
Q 2694 2387 2522 2355 
L 2522 2317 
Q 2720 2278 2889 2192 
Q 3059 2106 3184 1971 
Q 3309 1837 3379 1654 
Q 3450 1472 3450 1242 
Q 3450 941 3328 697 
Q 3206 454 2982 281 
Q 2758 109 2444 16 
Q 2131 -77 1754 -77 
Q 1414 -77 1152 -6 
Q 890 64 694 182 
Q 499 301 355 454 
Q 211 608 102 781 
L 813 1331 
Q 960 1056 1174 880 
Q 1389 704 1754 704 
Q 2080 704 2262 867 
Q 2445 1030 2445 1312 
L 2445 1350 
Q 2445 1626 2237 1763 
Q 2029 1901 1664 1901 
L 1261 1901 
L 1261 2701 
L 1677 2701 
z
" transform="scale(0.015625)"/>
     </defs>
     <use xlink:href="#IBMPlexSans-Bold-33"/>
    </g>
   </g>
  </g>
  <g id="axes_5">
   <g id="patch_6">
    <path d="M 7.2 90.36 
L 216.45 90.36 
L 216.45 48.78 
L 7.2 48.78 
L 7.2 90.36 
z
" style="fill: none"/>
   </g>
   <g id="matplotlib.axis_9">
    <g id="xtick_17"/>
    <g id="xtick_18"/>
    <g id="xtick_19"/>
    <g id="xtick_20"/>
   </g>
   <g id="matplotlib.axis_10"/>
   <g id="line2d_5">
    <path d="M 7.2 90.36 
L 216.45 90.36 
" style="fill: none; stroke: #482475; stroke-opacity: 0.9; stroke-linecap: round"/>
   </g>
   <g id="text_5">
    <!-- 4 -->
    <g style="fill: #482475" transform="translate(7.2 89.442) scale(0.12 -0.12)">
     <defs>
      <path id="IBMPlexSans-Bold-34" d="M 2157 0 
L 2157 858 
L 192 858 
L 192 1677 
L 1933 4467 
L 3072 4467 
L 3072 1600 
L 3635 1600 
L 3635 858 
L 3072 858 
L 3072 0 
L 2157 0 
z
M 960 1600 
L 2157 1600 
L 2157 3475 
L 2093 3475 
L 960 1600 
z
" transform="scale(0.015625)"/>
     </defs>
     <use xlink:href="#IBMPlexSans-Bold-34"/>
    </g>
   </g>
  </g>
  <g id="axes_6">
   <g id="patch_7">
    <path d="M 7.2 100.755 
L 216.45 100.755 
L 216.45 59.175 
L 7.2 59.175 
L 7.2 100.755 
z
" style="fill: none"/>
   </g>
   <g id="matplotlib.axis_11">
    <g id="xtick_21"/>
    <g id="xtick_22"/>
    <g id="xtick_23"/>
    <g id="xtick_24"/>
   </g>
   <g id="matplotlib.axis_12"/>
   <g id="FillBetweenPolyCollection_1">
    <defs>
     <path id="m1d9ad911dd" d="M 79.406712 -74.119269 
L 79.406712 -73.505 
L 79.644136 -73.505 
L 79.88156 -73.505 
L 80.118984 -73.505 
L 80.356408 -73.505 
L 80.593832 -73.505 
L 80.831256 -73.505 
L 81.06868 -73.505 
L 81.306104 -73.505 
L 81.543528 -73.505 
L 81.780952 -73.505 
L 82.018376 -73.505 
L 82.2558 -73.505 
L 82.493224 -73.505 
L 82.730648 -73.505 
L 82.968072 -73.505 
L 83.205496 -73.505 
L 83.44292 -73.505 
L 83.680344 -73.505 
L 83.917768 -73.505 
L 84.155192 -73.505 
L 84.392616 -73.505 
L 84.63004 -73.505 
L 84.867464 -73.505 
L 85.104888 -73.505 
L 85.342312 -73.505 
L 85.579736 -73.505 
L 85.81716 -73.505 
L 86.054584 -73.505 
L 86.292008 -73.505 
L 86.529432 -73.505 
L 86.766856 -73.505 
L 87.00428 -73.505 
L 87.241704 -73.505 
L 87.479128 -73.505 
L 87.716552 -73.505 
L 87.953976 -73.505 
L 88.1914 -73.505 
L 88.428824 -73.505 
L 88.666248 -73.505 
L 88.903672 -73.505 
L 89.141096 -73.505 
L 89.37852 -73.505 
L 89.615944 -73.505 
L 89.853368 -73.505 
L 90.090792 -73.505 
L 90.328216 -73.505 
L 90.56564 -73.505 
L 90.803064 -73.505 
L 91.040488 -73.505 
L 91.277912 -73.505 
L 91.515336 -73.505 
L 91.75276 -73.505 
L 91.990184 -73.505 
L 92.227608 -73.505 
L 92.465032 -73.505 
L 92.702457 -73.505 
L 92.939881 -73.505 
L 93.177305 -73.505 
L 93.414729 -73.505 
L 93.652153 -73.505 
L 93.889577 -73.505 
L 94.127001 -73.505 
L 94.364425 -73.505 
L 94.601849 -73.505 
L 94.839273 -73.505 
L 95.076697 -73.505 
L 95.314121 -73.505 
L 95.551545 -73.505 
L 95.788969 -73.505 
L 96.026393 -73.505 
L 96.263817 -73.505 
L 96.501241 -73.505 
L 96.738665 -73.505 
L 96.976089 -73.505 
L 97.213513 -73.505 
L 97.450937 -73.505 
L 97.688361 -73.505 
L 97.925785 -73.505 
L 98.163209 -73.505 
L 98.400633 -73.505 
L 98.638057 -73.505 
L 98.875481 -73.505 
L 99.112905 -73.505 
L 99.350329 -73.505 
L 99.587753 -73.505 
L 99.825177 -73.505 
L 100.062601 -73.505 
L 100.300025 -73.505 
L 100.537449 -73.505 
L 100.774873 -73.505 
L 101.012297 -73.505 
L 101.249721 -73.505 
L 101.487145 -73.505 
L 101.724569 -73.505 
L 101.961993 -73.505 
L 102.199417 -73.505 
L 102.436841 -73.505 
L 102.674265 -73.505 
L 102.911689 -73.505 
L 103.149113 -73.505 
L 103.386537 -73.505 
L 103.623961 -73.505 
L 103.861385 -73.505 
L 104.098809 -73.505 
L 104.336233 -73.505 
L 104.573657 -73.505 
L 104.811081 -73.505 
L 105.048505 -73.505 
L 105.285929 -73.505 
L 105.523353 -73.505 
L 105.760777 -73.505 
L 105.998201 -73.505 
L 106.235625 -73.505 
L 106.473049 -73.505 
L 106.710473 -73.505 
L 106.947897 -73.505 
L 107.185321 -73.505 
L 107.422745 -73.505 
L 107.660169 -73.505 
L 107.897593 -73.505 
L 108.135017 -73.505 
L 108.372441 -73.505 
L 108.609865 -73.505 
L 108.847289 -73.505 
L 109.084713 -73.505 
L 109.322137 -73.505 
L 109.559561 -73.505 
L 109.796985 -73.505 
L 110.034409 -73.505 
L 110.271833 -73.505 
L 110.509257 -73.505 
L 110.746681 -73.505 
L 110.984105 -73.505 
L 111.221529 -73.505 
L 111.458953 -73.505 
L 111.696377 -73.505 
L 111.933801 -73.505 
L 112.171225 -73.505 
L 112.408649 -73.505 
L 112.646073 -73.505 
L 112.883497 -73.505 
L 113.120921 -73.505 
L 113.358345 -73.505 
L 113.595769 -73.505 
L 113.833193 -73.505 
L 114.070617 -73.505 
L 114.308041 -73.505 
L 114.545465 -73.505 
L 114.782889 -73.505 
L 115.020313 -73.505 
L 115.257737 -73.505 
L 115.495161 -73.505 
L 115.732585 -73.505 
L 115.970009 -73.505 
L 116.207433 -73.505 
L 116.444857 -73.505 
L 116.682281 -73.505 
L 116.919705 -73.505 
L 117.157129 -73.505 
L 117.394553 -73.505 
L 117.631977 -73.505 
L 117.869401 -73.505 
L 118.106825 -73.505 
L 118.344249 -73.505 
L 118.581673 -73.505 
L 118.819097 -73.505 
L 119.056521 -73.505 
L 119.293945 -73.505 
L 119.531369 -73.505 
L 119.768793 -73.505 
L 120.006217 -73.505 
L 120.243641 -73.505 
L 120.481065 -73.505 
L 120.718489 -73.505 
L 120.955913 -73.505 
L 121.193337 -73.505 
L 121.430761 -73.505 
L 121.668185 -73.505 
L 121.905609 -73.505 
L 122.143033 -73.505 
L 122.380457 -73.505 
L 122.617881 -73.505 
L 122.855305 -73.505 
L 123.092729 -73.505 
L 123.330153 -73.505 
L 123.567577 -73.505 
L 123.805001 -73.505 
L 124.042425 -73.505 
L 124.279849 -73.505 
L 124.517273 -73.505 
L 124.754697 -73.505 
L 124.992121 -73.505 
L 125.229545 -73.505 
L 125.466969 -73.505 
L 125.704393 -73.505 
L 125.941817 -73.505 
L 126.179241 -73.505 
L 126.416665 -73.505 
L 126.654089 -73.505 
L 126.654089 -74.612412 
L 126.654089 -74.612412 
L 126.416665 -74.78518 
L 126.179241 -74.978208 
L 125.941817 -75.192781 
L 125.704393 -75.430109 
L 125.466969 -75.691301 
L 125.229545 -75.977335 
L 124.992121 -76.289032 
L 124.754697 -76.627031 
L 124.517273 -76.991759 
L 124.279849 -77.38341 
L 124.042425 -77.801918 
L 123.805001 -78.246938 
L 123.567577 -78.717828 
L 123.330153 -79.213634 
L 123.092729 -79.733083 
L 122.855305 -80.274575 
L 122.617881 -80.836182 
L 122.380457 -81.415658 
L 122.143033 -82.010449 
L 121.905609 -82.617706 
L 121.668185 -83.234311 
L 121.430761 -83.856903 
L 121.193337 -84.481908 
L 120.955913 -85.105578 
L 120.718489 -85.724025 
L 120.481065 -86.333264 
L 120.243641 -86.929255 
L 120.006217 -87.507945 
L 119.768793 -88.065307 
L 119.531369 -88.597387 
L 119.293945 -89.10034 
L 119.056521 -89.570467 
L 118.819097 -90.004255 
L 118.581673 -90.398408 
L 118.344249 -90.749885 
L 118.106825 -91.05593 
L 117.869401 -91.314106 
L 117.631977 -91.522325 
L 117.394553 -91.678889 
L 117.157129 -91.782513 
L 116.919705 -91.832367 
L 116.682281 -91.828109 
L 116.444857 -91.769914 
L 116.207433 -91.658511 
L 115.970009 -91.495205 
L 115.732585 -91.281905 
L 115.495161 -91.021135 
L 115.257737 -90.716046 
L 115.020313 -90.37041 
L 114.782889 -89.98861 
L 114.545465 -89.57561 
L 114.308041 -89.136917 
L 114.070617 -88.678531 
L 113.833193 -88.20688 
L 113.595769 -87.728742 
L 113.358345 -87.251167 
L 113.120921 -86.781375 
L 112.883497 -86.326668 
L 112.646073 -85.894324 
L 112.408649 -85.491498 
L 112.171225 -85.125126 
L 111.933801 -84.801834 
L 111.696377 -84.527846 
L 111.458953 -84.308916 
L 111.221529 -84.150254 
L 110.984105 -84.056471 
L 110.746681 -84.031536 
L 110.509257 -84.078737 
L 110.271833 -84.20066 
L 110.034409 -84.399171 
L 109.796985 -84.675408 
L 109.559561 -85.029784 
L 109.322137 -85.461994 
L 109.084713 -85.971023 
L 108.847289 -86.555167 
L 108.609865 -87.212051 
L 108.372441 -87.938654 
L 108.135017 -88.731336 
L 107.897593 -89.585866 
L 107.660169 -90.497459 
L 107.422745 -91.460813 
L 107.185321 -92.470146 
L 106.947897 -93.519248 
L 106.710473 -94.601527 
L 106.473049 -95.710069 
L 106.235625 -96.837697 
L 105.998201 -97.977034 
L 105.760777 -99.120579 
L 105.523353 -100.260779 
L 105.285929 -101.390101 
L 105.048505 -102.501118 
L 104.811081 -103.586575 
L 104.573657 -104.639473 
L 104.336233 -105.653129 
L 104.098809 -106.621247 
L 103.861385 -107.537967 
L 103.623961 -108.397914 
L 103.386537 -109.19623 
L 103.149113 -109.928596 
L 102.911689 -110.591246 
L 102.674265 -111.180964 
L 102.436841 -111.695079 
L 102.199417 -112.13144 
L 101.961993 -112.488397 
L 101.724569 -112.76477 
L 101.487145 -112.959818 
L 101.249721 -113.07321 
L 101.012297 -113.105 
L 100.774873 -113.055603 
L 100.537449 -112.925785 
L 100.300025 -112.716654 
L 100.062601 -112.429663 
L 99.825177 -112.066622 
L 99.587753 -111.629711 
L 99.350329 -111.121507 
L 99.112905 -110.545005 
L 98.875481 -109.903644 
L 98.638057 -109.201329 
L 98.400633 -108.442448 
L 98.163209 -107.631875 
L 97.925785 -106.774969 
L 97.688361 -105.877558 
L 97.450937 -104.945898 
L 97.213513 -103.986632 
L 96.976089 -103.006721 
L 96.738665 -102.013363 
L 96.501241 -101.013902 
L 96.263817 -100.01572 
L 96.026393 -99.026125 
L 95.788969 -98.052232 
L 95.551545 -97.100841 
L 95.314121 -96.178322 
L 95.076697 -95.290497 
L 94.839273 -94.442545 
L 94.601849 -93.638905 
L 94.364425 -92.883204 
L 94.127001 -92.178202 
L 93.889577 -91.525752 
L 93.652153 -90.926785 
L 93.414729 -90.381314 
L 93.177305 -89.888455 
L 92.939881 -89.446475 
L 92.702457 -89.052852 
L 92.465032 -88.704351 
L 92.227608 -88.397116 
L 91.990184 -88.126775 
L 91.75276 -87.888546 
L 91.515336 -87.677357 
L 91.277912 -87.487958 
L 91.040488 -87.315045 
L 90.803064 -87.153369 
L 90.56564 -86.997844 
L 90.328216 -86.843645 
L 90.090792 -86.686298 
L 89.853368 -86.521753 
L 89.615944 -86.346449 
L 89.37852 -86.157359 
L 89.141096 -85.952021 
L 88.903672 -85.728557 
L 88.666248 -85.485678 
L 88.428824 -85.222664 
L 88.1914 -84.939349 
L 87.953976 -84.636079 
L 87.716552 -84.313669 
L 87.479128 -83.973348 
L 87.241704 -83.616702 
L 87.00428 -83.245614 
L 86.766856 -82.862193 
L 86.529432 -82.468717 
L 86.292008 -82.06757 
L 86.054584 -81.661182 
L 85.81716 -81.251977 
L 85.579736 -80.842329 
L 85.342312 -80.434516 
L 85.104888 -80.03069 
L 84.867464 -79.63285 
L 84.63004 -79.242818 
L 84.392616 -78.862231 
L 84.155192 -78.492529 
L 83.917768 -78.134955 
L 83.680344 -77.790554 
L 83.44292 -77.46018 
L 83.205496 -77.144506 
L 82.968072 -76.844032 
L 82.730648 -76.559096 
L 82.493224 -76.289892 
L 82.2558 -76.036479 
L 82.018376 -75.798792 
L 81.780952 -75.576664 
L 81.543528 -75.369827 
L 81.306104 -75.177932 
L 81.06868 -75.000559 
L 80.831256 -74.837221 
L 80.593832 -74.687383 
L 80.356408 -74.550462 
L 80.118984 -74.425844 
L 79.88156 -74.312884 
L 79.644136 -74.210918 
L 79.406712 -74.119269 
z
" style="stroke: #414487; stroke-width: 1.25"/>
    </defs>
    <g>
     <use xlink:href="#m1d9ad911dd" x="0" y="174.26" style="fill: #414487; fill-opacity: 0.7; stroke: #414487; stroke-width: 1.25"/>
    </g>
   </g>
   <g id="line2d_6">
    <path d="M 7.2 100.755 
L 216.45 100.755 
" style="fill: none; stroke: #414487; stroke-opacity: 0.9; stroke-linecap: round"/>
   </g>
   <g id="text_6">
    <!-- 5 -->
    <g style="fill: #414487" transform="translate(7.2 99.837) scale(0.12 -0.12)">
     <defs>
      <path id="IBMPlexSans-Bold-35" d="M 3341 3629 
L 1312 3629 
L 1216 2214 
L 1267 2214 
Q 1331 2374 1411 2505 
Q 1491 2637 1600 2729 
Q 1709 2822 1862 2873 
Q 2016 2925 2227 2925 
Q 2515 2925 2764 2829 
Q 3014 2733 3200 2550 
Q 3386 2368 3494 2102 
Q 3603 1837 3603 1504 
Q 3603 1165 3491 873 
Q 3379 582 3158 371 
Q 2938 160 2618 41 
Q 2298 -77 1888 -77 
Q 1562 -77 1312 -6 
Q 1062 64 870 182 
Q 678 301 537 454 
Q 397 608 294 781 
L 992 1331 
Q 1139 1069 1344 886 
Q 1549 704 1894 704 
Q 2240 704 2416 902 
Q 2592 1101 2592 1427 
L 2592 1478 
Q 2592 1786 2413 1965 
Q 2234 2144 1920 2144 
Q 1658 2144 1488 2038 
Q 1318 1933 1229 1830 
L 442 1939 
L 608 4467 
L 3341 4467 
L 3341 3629 
z
" transform="scale(0.015625)"/>
     </defs>
     <use xlink:href="#IBMPlexSans-Bold-35"/>
    </g>
   </g>
  </g>
  <g id="axes_7">
   <g id="patch_8">
    <path d="M 7.2 111.15 
L 216.45 111.15 
L 216.45 69.57 
L 7.2 69.57 
L 7.2 111.15 
z
" style="fill: none"/>
   </g>
   <g id="matplotlib.axis_13">
    <g id="xtick_25"/>
    <g id="xtick_26"/>
    <g id="xtick_27"/>
    <g id="xtick_28"/>
   </g>
   <g id="matplotlib.axis_14"/>
   <g id="FillBetweenPolyCollection_2">
    <defs>
     <path id="maaf34c0fa8" d="M 57.789461 -63.393739 
L 57.789461 -63.11 
L 58.260735 -63.11 
L 58.732009 -63.11 
L 59.203283 -63.11 
L 59.674558 -63.11 
L 60.145832 -63.11 
L 60.617106 -63.11 
L 61.08838 -63.11 
L 61.559654 -63.11 
L 62.030929 -63.11 
L 62.502203 -63.11 
L 62.973477 -63.11 
L 63.444751 -63.11 
L 63.916026 -63.11 
L 64.3873 -63.11 
L 64.858574 -63.11 
L 65.329848 -63.11 
L 65.801122 -63.11 
L 66.272397 -63.11 
L 66.743671 -63.11 
L 67.214945 -63.11 
L 67.686219 -63.11 
L 68.157493 -63.11 
L 68.628768 -63.11 
L 69.100042 -63.11 
L 69.571316 -63.11 
L 70.04259 -63.11 
L 70.513865 -63.11 
L 70.985139 -63.11 
L 71.456413 -63.11 
L 71.927687 -63.11 
L 72.398961 -63.11 
L 72.870236 -63.11 
L 73.34151 -63.11 
L 73.812784 -63.11 
L 74.284058 -63.11 
L 74.755332 -63.11 
L 75.226607 -63.11 
L 75.697881 -63.11 
L 76.169155 -63.11 
L 76.640429 -63.11 
L 77.111703 -63.11 
L 77.582978 -63.11 
L 78.054252 -63.11 
L 78.525526 -63.11 
L 78.9968 -63.11 
L 79.468075 -63.11 
L 79.939349 -63.11 
L 80.410623 -63.11 
L 80.881897 -63.11 
L 81.353171 -63.11 
L 81.824446 -63.11 
L 82.29572 -63.11 
L 82.766994 -63.11 
L 83.238268 -63.11 
L 83.709542 -63.11 
L 84.180817 -63.11 
L 84.652091 -63.11 
L 85.123365 -63.11 
L 85.594639 -63.11 
L 86.065914 -63.11 
L 86.537188 -63.11 
L 87.008462 -63.11 
L 87.479736 -63.11 
L 87.95101 -63.11 
L 88.422285 -63.11 
L 88.893559 -63.11 
L 89.364833 -63.11 
L 89.836107 -63.11 
L 90.307381 -63.11 
L 90.778656 -63.11 
L 91.24993 -63.11 
L 91.721204 -63.11 
L 92.192478 -63.11 
L 92.663753 -63.11 
L 93.135027 -63.11 
L 93.606301 -63.11 
L 94.077575 -63.11 
L 94.548849 -63.11 
L 95.020124 -63.11 
L 95.491398 -63.11 
L 95.962672 -63.11 
L 96.433946 -63.11 
L 96.90522 -63.11 
L 97.376495 -63.11 
L 97.847769 -63.11 
L 98.319043 -63.11 
L 98.790317 -63.11 
L 99.261592 -63.11 
L 99.732866 -63.11 
L 100.20414 -63.11 
L 100.675414 -63.11 
L 101.146688 -63.11 
L 101.617963 -63.11 
L 102.089237 -63.11 
L 102.560511 -63.11 
L 103.031785 -63.11 
L 103.503059 -63.11 
L 103.974334 -63.11 
L 104.445608 -63.11 
L 104.916882 -63.11 
L 105.388156 -63.11 
L 105.85943 -63.11 
L 106.330705 -63.11 
L 106.801979 -63.11 
L 107.273253 -63.11 
L 107.744527 -63.11 
L 108.215802 -63.11 
L 108.687076 -63.11 
L 109.15835 -63.11 
L 109.629624 -63.11 
L 110.100898 -63.11 
L 110.572173 -63.11 
L 111.043447 -63.11 
L 111.514721 -63.11 
L 111.985995 -63.11 
L 112.457269 -63.11 
L 112.928544 -63.11 
L 113.399818 -63.11 
L 113.871092 -63.11 
L 114.342366 -63.11 
L 114.813641 -63.11 
L 115.284915 -63.11 
L 115.756189 -63.11 
L 116.227463 -63.11 
L 116.698737 -63.11 
L 117.170012 -63.11 
L 117.641286 -63.11 
L 118.11256 -63.11 
L 118.583834 -63.11 
L 119.055108 -63.11 
L 119.526383 -63.11 
L 119.997657 -63.11 
L 120.468931 -63.11 
L 120.940205 -63.11 
L 121.41148 -63.11 
L 121.882754 -63.11 
L 122.354028 -63.11 
L 122.825302 -63.11 
L 123.296576 -63.11 
L 123.767851 -63.11 
L 124.239125 -63.11 
L 124.710399 -63.11 
L 125.181673 -63.11 
L 125.652947 -63.11 
L 126.124222 -63.11 
L 126.595496 -63.11 
L 127.06677 -63.11 
L 127.538044 -63.11 
L 128.009319 -63.11 
L 128.480593 -63.11 
L 128.951867 -63.11 
L 129.423141 -63.11 
L 129.894415 -63.11 
L 130.36569 -63.11 
L 130.836964 -63.11 
L 131.308238 -63.11 
L 131.779512 -63.11 
L 132.250786 -63.11 
L 132.722061 -63.11 
L 133.193335 -63.11 
L 133.664609 -63.11 
L 134.135883 -63.11 
L 134.607157 -63.11 
L 135.078432 -63.11 
L 135.549706 -63.11 
L 136.02098 -63.11 
L 136.492254 -63.11 
L 136.963529 -63.11 
L 137.434803 -63.11 
L 137.906077 -63.11 
L 138.377351 -63.11 
L 138.848625 -63.11 
L 139.3199 -63.11 
L 139.791174 -63.11 
L 140.262448 -63.11 
L 140.733722 -63.11 
L 141.204996 -63.11 
L 141.676271 -63.11 
L 142.147545 -63.11 
L 142.618819 -63.11 
L 143.090093 -63.11 
L 143.561368 -63.11 
L 144.032642 -63.11 
L 144.503916 -63.11 
L 144.97519 -63.11 
L 145.446464 -63.11 
L 145.917739 -63.11 
L 146.389013 -63.11 
L 146.860287 -63.11 
L 147.331561 -63.11 
L 147.802835 -63.11 
L 148.27411 -63.11 
L 148.745384 -63.11 
L 149.216658 -63.11 
L 149.687932 -63.11 
L 150.159207 -63.11 
L 150.630481 -63.11 
L 151.101755 -63.11 
L 151.573029 -63.11 
L 151.573029 -63.8571 
L 151.573029 -63.8571 
L 151.101755 -63.962716 
L 150.630481 -64.078897 
L 150.159207 -64.206064 
L 149.687932 -64.344577 
L 149.216658 -64.49472 
L 148.745384 -64.656694 
L 148.27411 -64.830607 
L 147.802835 -65.016465 
L 147.331561 -65.214167 
L 146.860287 -65.423491 
L 146.389013 -65.644096 
L 145.917739 -65.875512 
L 145.446464 -66.117137 
L 144.97519 -66.368236 
L 144.503916 -66.627939 
L 144.032642 -66.895244 
L 143.561368 -67.16902 
L 143.090093 -67.448014 
L 142.618819 -67.73086 
L 142.147545 -68.016087 
L 141.676271 -68.302138 
L 141.204996 -68.587383 
L 140.733722 -68.870137 
L 140.262448 -69.148681 
L 139.791174 -69.421284 
L 139.3199 -69.686222 
L 138.848625 -69.941805 
L 138.377351 -70.186392 
L 137.906077 -70.418417 
L 137.434803 -70.636404 
L 136.963529 -70.838987 
L 136.492254 -71.024918 
L 136.02098 -71.193084 
L 135.549706 -71.342515 
L 135.078432 -71.472386 
L 134.607157 -71.582026 
L 134.135883 -71.670918 
L 133.664609 -71.7387 
L 133.193335 -71.785169 
L 132.722061 -71.810278 
L 132.250786 -71.814141 
L 131.779512 -71.797035 
L 131.308238 -71.759401 
L 130.836964 -71.701854 
L 130.36569 -71.625185 
L 129.894415 -71.530371 
L 129.423141 -71.418579 
L 128.951867 -71.291175 
L 128.480593 -71.149725 
L 128.009319 -70.996001 
L 127.538044 -70.831979 
L 127.06677 -70.659833 
L 126.595496 -70.481926 
L 126.124222 -70.300799 
L 125.652947 -70.119146 
L 125.181673 -69.939795 
L 124.710399 -69.765675 
L 124.239125 -69.599786 
L 123.767851 -69.445159 
L 123.296576 -69.304822 
L 122.825302 -69.181753 
L 122.354028 -69.078841 
L 121.882754 -68.998846 
L 121.41148 -68.944358 
L 120.940205 -68.917758 
L 120.468931 -68.921184 
L 119.997657 -68.956498 
L 119.526383 -69.025261 
L 119.055108 -69.128707 
L 118.583834 -69.267725 
L 118.11256 -69.442844 
L 117.641286 -69.654224 
L 117.170012 -69.901652 
L 116.698737 -70.184541 
L 116.227463 -70.501933 
L 115.756189 -70.85251 
L 115.284915 -71.234607 
L 114.813641 -71.646229 
L 114.342366 -72.085072 
L 113.871092 -72.548548 
L 113.399818 -73.033814 
L 112.928544 -73.537805 
L 112.457269 -74.057265 
L 111.985995 -74.588786 
L 111.514721 -75.128843 
L 111.043447 -75.673836 
L 110.572173 -76.220124 
L 110.100898 -76.764068 
L 109.629624 -77.302063 
L 109.15835 -77.830578 
L 108.687076 -78.346185 
L 108.215802 -78.84559 
L 107.744527 -79.325657 
L 107.273253 -79.783435 
L 106.801979 -80.216172 
L 106.330705 -80.621333 
L 105.85943 -80.996608 
L 105.388156 -81.339923 
L 104.916882 -81.649441 
L 104.445608 -81.923567 
L 103.974334 -82.160941 
L 103.503059 -82.360443 
L 103.031785 -82.521185 
L 102.560511 -82.642509 
L 102.089237 -82.723978 
L 101.617963 -82.765381 
L 101.146688 -82.76672 
L 100.675414 -82.728217 
L 100.20414 -82.650307 
L 99.732866 -82.533641 
L 99.261592 -82.379088 
L 98.790317 -82.187733 
L 98.319043 -81.960884 
L 97.847769 -81.700068 
L 97.376495 -81.407039 
L 96.90522 -81.083767 
L 96.433946 -80.732444 
L 95.962672 -80.355471 
L 95.491398 -79.95545 
L 95.020124 -79.535167 
L 94.548849 -79.097578 
L 94.077575 -78.645778 
L 93.606301 -78.182979 
L 93.135027 -77.712471 
L 92.663753 -77.237589 
L 92.192478 -76.761672 
L 91.721204 -76.288015 
L 91.24993 -75.819829 
L 90.778656 -75.360193 
L 90.307381 -74.912009 
L 89.836107 -74.477958 
L 89.364833 -74.06046 
L 88.893559 -73.661636 
L 88.422285 -73.28328 
L 87.95101 -72.926829 
L 87.479736 -72.593346 
L 87.008462 -72.28351 
L 86.537188 -71.997611 
L 86.065914 -71.735551 
L 85.594639 -71.496863 
L 85.123365 -71.28072 
L 84.652091 -71.085969 
L 84.180817 -70.911161 
L 83.709542 -70.754584 
L 83.238268 -70.614313 
L 82.766994 -70.488247 
L 82.29572 -70.374163 
L 81.824446 -70.269762 
L 81.353171 -70.172717 
L 80.881897 -70.080723 
L 80.410623 -69.99154 
L 79.939349 -69.903036 
L 79.468075 -69.813226 
L 78.9968 -69.720305 
L 78.525526 -69.622672 
L 78.054252 -69.518956 
L 77.582978 -69.408033 
L 77.111703 -69.289028 
L 76.640429 -69.161326 
L 76.169155 -69.024566 
L 75.697881 -68.878632 
L 75.226607 -68.723639 
L 74.755332 -68.559917 
L 74.284058 -68.387992 
L 73.812784 -68.208554 
L 73.34151 -68.022437 
L 72.870236 -67.830591 
L 72.398961 -67.63405 
L 71.927687 -67.433907 
L 71.456413 -67.231291 
L 70.985139 -67.027333 
L 70.513865 -66.823153 
L 70.04259 -66.619834 
L 69.571316 -66.418409 
L 69.100042 -66.219842 
L 68.628768 -66.025022 
L 68.157493 -65.834752 
L 67.686219 -65.649745 
L 67.214945 -65.47062 
L 66.743671 -65.297906 
L 66.272397 -65.132035 
L 65.801122 -64.973356 
L 65.329848 -64.822128 
L 64.858574 -64.678537 
L 64.3873 -64.542691 
L 63.916026 -64.414634 
L 63.444751 -64.294349 
L 62.973477 -64.181765 
L 62.502203 -64.076762 
L 62.030929 -63.979179 
L 61.559654 -63.888816 
L 61.08838 -63.805445 
L 60.617106 -63.728809 
L 60.145832 -63.658629 
L 59.674558 -63.594607 
L 59.203283 -63.536432 
L 58.732009 -63.483782 
L 58.260735 -63.436329 
L 57.789461 -63.393739 
z
" style="stroke: #355f8d; stroke-width: 1.25"/>
    </defs>
    <g>
     <use xlink:href="#maaf34c0fa8" x="0" y="174.26" style="fill: #355f8d; fill-opacity: 0.7; stroke: #355f8d; stroke-width: 1.25"/>
    </g>
   </g>
   <g id="line2d_7">
    <path d="M 7.2 111.15 
L 216.45 111.15 
" style="fill: none; stroke: #355f8d; stroke-opacity: 0.9; stroke-linecap: round"/>
   </g>
   <g id="text_7">
    <!-- 6 -->
    <g style="fill: #355f8d" transform="translate(7.2 110.232) scale(0.12 -0.12)">
     <defs>
      <path id="IBMPlexSans-Bold-36" d="M 1946 -77 
Q 1549 -77 1235 48 
Q 922 173 707 406 
Q 493 640 381 966 
Q 269 1293 269 1696 
Q 269 2163 413 2582 
Q 557 3002 784 3357 
Q 1011 3712 1296 3993 
Q 1581 4275 1869 4467 
L 3194 4467 
Q 2784 4173 2457 3907 
Q 2131 3642 1891 3373 
Q 1651 3104 1494 2825 
Q 1338 2547 1274 2227 
L 1331 2208 
Q 1389 2336 1469 2457 
Q 1549 2579 1667 2672 
Q 1786 2765 1946 2822 
Q 2106 2880 2317 2880 
Q 2592 2880 2832 2781 
Q 3072 2682 3248 2502 
Q 3424 2323 3523 2064 
Q 3622 1805 3622 1491 
Q 3622 1146 3504 858 
Q 3386 570 3165 362 
Q 2944 154 2637 38 
Q 2330 -77 1946 -77 
z
M 1946 672 
Q 2266 672 2445 848 
Q 2624 1024 2624 1350 
L 2624 1466 
Q 2624 1792 2445 1968 
Q 2266 2144 1946 2144 
Q 1626 2144 1446 1968 
Q 1267 1792 1267 1466 
L 1267 1350 
Q 1267 1024 1446 848 
Q 1626 672 1946 672 
z
" transform="scale(0.015625)"/>
     </defs>
     <use xlink:href="#IBMPlexSans-Bold-36"/>
    </g>
   </g>
  </g>
  <g id="axes_8">
   <g id="patch_9">
    <path d="M 7.2 121.545 
L 216.45 121.545 
L 216.45 79.965 
L 7.2 79.965 
L 7.2 121.545 
z
" style="fill: none"/>
   </g>
   <g id="matplotlib.axis_15">
    <g id="xtick_29"/>
    <g id="xtick_30"/>
    <g id="xtick_31"/>
    <g id="xtick_32"/>
   </g>
   <g id="matplotlib.axis_16"/>
   <g id="FillBetweenPolyCollection_3">
    <defs>
     <path id="mdcf30b0d6d" d="M 36.920904 -52.907179 
L 36.920904 -52.715 
L 37.633444 -52.715 
L 38.345985 -52.715 
L 39.058526 -52.715 
L 39.771067 -52.715 
L 40.483607 -52.715 
L 41.196148 -52.715 
L 41.908689 -52.715 
L 42.62123 -52.715 
L 43.333771 -52.715 
L 44.046311 -52.715 
L 44.758852 -52.715 
L 45.471393 -52.715 
L 46.183934 -52.715 
L 46.896474 -52.715 
L 47.609015 -52.715 
L 48.321556 -52.715 
L 49.034097 -52.715 
L 49.746637 -52.715 
L 50.459178 -52.715 
L 51.171719 -52.715 
L 51.88426 -52.715 
L 52.596801 -52.715 
L 53.309341 -52.715 
L 54.021882 -52.715 
L 54.734423 -52.715 
L 55.446964 -52.715 
L 56.159504 -52.715 
L 56.872045 -52.715 
L 57.584586 -52.715 
L 58.297127 -52.715 
L 59.009667 -52.715 
L 59.722208 -52.715 
L 60.434749 -52.715 
L 61.14729 -52.715 
L 61.85983 -52.715 
L 62.572371 -52.715 
L 63.284912 -52.715 
L 63.997453 -52.715 
L 64.709994 -52.715 
L 65.422534 -52.715 
L 66.135075 -52.715 
L 66.847616 -52.715 
L 67.560157 -52.715 
L 68.272697 -52.715 
L 68.985238 -52.715 
L 69.697779 -52.715 
L 70.41032 -52.715 
L 71.12286 -52.715 
L 71.835401 -52.715 
L 72.547942 -52.715 
L 73.260483 -52.715 
L 73.973024 -52.715 
L 74.685564 -52.715 
L 75.398105 -52.715 
L 76.110646 -52.715 
L 76.823187 -52.715 
L 77.535727 -52.715 
L 78.248268 -52.715 
L 78.960809 -52.715 
L 79.67335 -52.715 
L 80.38589 -52.715 
L 81.098431 -52.715 
L 81.810972 -52.715 
L 82.523513 -52.715 
L 83.236053 -52.715 
L 83.948594 -52.715 
L 84.661135 -52.715 
L 85.373676 -52.715 
L 86.086217 -52.715 
L 86.798757 -52.715 
L 87.511298 -52.715 
L 88.223839 -52.715 
L 88.93638 -52.715 
L 89.64892 -52.715 
L 90.361461 -52.715 
L 91.074002 -52.715 
L 91.786543 -52.715 
L 92.499083 -52.715 
L 93.211624 -52.715 
L 93.924165 -52.715 
L 94.636706 -52.715 
L 95.349247 -52.715 
L 96.061787 -52.715 
L 96.774328 -52.715 
L 97.486869 -52.715 
L 98.19941 -52.715 
L 98.91195 -52.715 
L 99.624491 -52.715 
L 100.337032 -52.715 
L 101.049573 -52.715 
L 101.762113 -52.715 
L 102.474654 -52.715 
L 103.187195 -52.715 
L 103.899736 -52.715 
L 104.612276 -52.715 
L 105.324817 -52.715 
L 106.037358 -52.715 
L 106.749899 -52.715 
L 107.46244 -52.715 
L 108.17498 -52.715 
L 108.887521 -52.715 
L 109.600062 -52.715 
L 110.312603 -52.715 
L 111.025143 -52.715 
L 111.737684 -52.715 
L 112.450225 -52.715 
L 113.162766 -52.715 
L 113.875306 -52.715 
L 114.587847 -52.715 
L 115.300388 -52.715 
L 116.012929 -52.715 
L 116.725469 -52.715 
L 117.43801 -52.715 
L 118.150551 -52.715 
L 118.863092 -52.715 
L 119.575633 -52.715 
L 120.288173 -52.715 
L 121.000714 -52.715 
L 121.713255 -52.715 
L 122.425796 -52.715 
L 123.138336 -52.715 
L 123.850877 -52.715 
L 124.563418 -52.715 
L 125.275959 -52.715 
L 125.988499 -52.715 
L 126.70104 -52.715 
L 127.413581 -52.715 
L 128.126122 -52.715 
L 128.838663 -52.715 
L 129.551203 -52.715 
L 130.263744 -52.715 
L 130.976285 -52.715 
L 131.688826 -52.715 
L 132.401366 -52.715 
L 133.113907 -52.715 
L 133.826448 -52.715 
L 134.538989 -52.715 
L 135.251529 -52.715 
L 135.96407 -52.715 
L 136.676611 -52.715 
L 137.389152 -52.715 
L 138.101692 -52.715 
L 138.814233 -52.715 
L 139.526774 -52.715 
L 140.239315 -52.715 
L 140.951856 -52.715 
L 141.664396 -52.715 
L 142.376937 -52.715 
L 143.089478 -52.715 
L 143.802019 -52.715 
L 144.514559 -52.715 
L 145.2271 -52.715 
L 145.939641 -52.715 
L 146.652182 -52.715 
L 147.364722 -52.715 
L 148.077263 -52.715 
L 148.789804 -52.715 
L 149.502345 -52.715 
L 150.214886 -52.715 
L 150.927426 -52.715 
L 151.639967 -52.715 
L 152.352508 -52.715 
L 153.065049 -52.715 
L 153.777589 -52.715 
L 154.49013 -52.715 
L 155.202671 -52.715 
L 155.915212 -52.715 
L 156.627752 -52.715 
L 157.340293 -52.715 
L 158.052834 -52.715 
L 158.765375 -52.715 
L 159.477915 -52.715 
L 160.190456 -52.715 
L 160.902997 -52.715 
L 161.615538 -52.715 
L 162.328079 -52.715 
L 163.040619 -52.715 
L 163.75316 -52.715 
L 164.465701 -52.715 
L 165.178242 -52.715 
L 165.890782 -52.715 
L 166.603323 -52.715 
L 167.315864 -52.715 
L 168.028405 -52.715 
L 168.740945 -52.715 
L 169.453486 -52.715 
L 170.166027 -52.715 
L 170.878568 -52.715 
L 171.591109 -52.715 
L 172.303649 -52.715 
L 173.01619 -52.715 
L 173.728731 -52.715 
L 174.441272 -52.715 
L 175.153812 -52.715 
L 175.866353 -52.715 
L 176.578894 -52.715 
L 177.291435 -52.715 
L 178.003975 -52.715 
L 178.716516 -52.715 
L 178.716516 -53.072788 
L 178.716516 -53.072788 
L 178.003975 -53.127459 
L 177.291435 -53.188223 
L 176.578894 -53.255409 
L 175.866353 -53.329313 
L 175.153812 -53.410199 
L 174.441272 -53.498288 
L 173.728731 -53.593754 
L 173.01619 -53.696717 
L 172.303649 -53.807242 
L 171.591109 -53.925328 
L 170.878568 -54.050909 
L 170.166027 -54.183844 
L 169.453486 -54.323919 
L 168.740945 -54.47084 
L 168.028405 -54.624229 
L 167.315864 -54.783627 
L 166.603323 -54.948487 
L 165.890782 -55.118178 
L 165.178242 -55.291985 
L 164.465701 -55.469109 
L 163.75316 -55.648675 
L 163.040619 -55.829738 
L 162.328079 -56.01129 
L 161.615538 -56.192269 
L 160.902997 -56.371577 
L 160.190456 -56.548088 
L 159.477915 -56.72067 
L 158.765375 -56.888197 
L 158.052834 -57.049572 
L 157.340293 -57.203743 
L 156.627752 -57.349721 
L 155.915212 -57.486595 
L 155.202671 -57.613551 
L 154.49013 -57.729879 
L 153.777589 -57.834987 
L 153.065049 -57.928404 
L 152.352508 -58.009784 
L 151.639967 -58.078906 
L 150.927426 -58.135671 
L 150.214886 -58.180092 
L 149.502345 -58.212291 
L 148.789804 -58.232487 
L 148.077263 -58.240986 
L 147.364722 -58.23817 
L 146.652182 -58.224493 
L 145.939641 -58.200467 
L 145.2271 -58.166663 
L 144.514559 -58.123703 
L 143.802019 -58.072266 
L 143.089478 -58.013083 
L 142.376937 -57.946948 
L 141.664396 -57.87472 
L 140.951856 -57.797331 
L 140.239315 -57.71579 
L 139.526774 -57.631196 
L 138.814233 -57.544736 
L 138.101692 -57.457689 
L 137.389152 -57.371431 
L 136.676611 -57.287422 
L 135.96407 -57.207211 
L 135.251529 -57.132414 
L 134.538989 -57.064705 
L 133.826448 -57.005797 
L 133.113907 -56.957421 
L 132.401366 -56.921297 
L 131.688826 -56.899112 
L 130.976285 -56.892492 
L 130.263744 -56.902966 
L 129.551203 -56.931944 
L 128.838663 -56.980685 
L 128.126122 -57.050269 
L 127.413581 -57.14157 
L 126.70104 -57.255239 
L 125.988499 -57.39168 
L 125.275959 -57.551039 
L 124.563418 -57.733191 
L 123.850877 -57.937735 
L 123.138336 -58.163998 
L 122.425796 -58.411035 
L 121.713255 -58.677644 
L 121.000714 -58.96238 
L 120.288173 -59.263576 
L 119.575633 -59.579365 
L 118.863092 -59.90771 
L 118.150551 -60.246435 
L 117.43801 -60.593252 
L 116.725469 -60.945795 
L 116.012929 -61.301655 
L 115.300388 -61.658403 
L 114.587847 -62.013621 
L 113.875306 -62.364929 
L 113.162766 -62.710003 
L 112.450225 -63.046594 
L 111.737684 -63.372544 
L 111.025143 -63.685793 
L 110.312603 -63.984393 
L 109.600062 -64.266509 
L 108.887521 -64.530425 
L 108.17498 -64.774546 
L 107.46244 -64.997401 
L 106.749899 -65.197645 
L 106.037358 -65.374062 
L 105.324817 -65.525569 
L 104.612276 -65.651224 
L 103.899736 -65.750229 
L 103.187195 -65.821941 
L 102.474654 -65.865879 
L 101.762113 -65.881735 
L 101.049573 -65.869384 
L 100.337032 -65.828894 
L 99.624491 -65.760529 
L 98.91195 -65.664763 
L 98.19941 -65.54228 
L 97.486869 -65.393977 
L 96.774328 -65.220965 
L 96.061787 -65.024561 
L 95.349247 -64.806284 
L 94.636706 -64.567843 
L 93.924165 -64.311121 
L 93.211624 -64.038159 
L 92.499083 -63.751135 
L 91.786543 -63.452338 
L 91.074002 -63.144142 
L 90.361461 -62.828977 
L 89.64892 -62.509299 
L 88.93638 -62.187557 
L 88.223839 -61.866159 
L 87.511298 -61.547442 
L 86.798757 -61.233637 
L 86.086217 -60.926838 
L 85.373676 -60.628977 
L 84.661135 -60.341791 
L 83.948594 -60.066803 
L 83.236053 -59.805302 
L 82.523513 -59.558325 
L 81.810972 -59.326646 
L 81.098431 -59.110773 
L 80.38589 -58.910944 
L 79.67335 -58.727128 
L 78.960809 -58.559039 
L 78.248268 -58.406149 
L 77.535727 -58.2677 
L 76.823187 -58.142732 
L 76.110646 -58.030108 
L 75.398105 -57.92854 
L 74.685564 -57.836624 
L 73.973024 -57.75287 
L 73.260483 -57.675737 
L 72.547942 -57.603667 
L 71.835401 -57.535116 
L 71.12286 -57.468589 
L 70.41032 -57.402666 
L 69.697779 -57.336027 
L 68.985238 -57.267481 
L 68.272697 -57.195975 
L 67.560157 -57.120616 
L 66.847616 -57.040677 
L 66.135075 -56.955601 
L 65.422534 -56.865005 
L 64.709994 -56.768672 
L 63.997453 -56.666546 
L 63.284912 -56.558723 
L 62.572371 -56.445433 
L 61.85983 -56.327026 
L 61.14729 -56.203958 
L 60.434749 -56.076769 
L 59.722208 -55.946064 
L 59.009667 -55.812499 
L 58.297127 -55.676762 
L 57.584586 -55.539554 
L 56.872045 -55.40158 
L 56.159504 -55.26353 
L 55.446964 -55.126075 
L 54.734423 -54.98985 
L 54.021882 -54.855454 
L 53.309341 -54.723439 
L 52.596801 -54.594312 
L 51.88426 -54.468525 
L 51.171719 -54.346482 
L 50.459178 -54.228531 
L 49.746637 -54.114972 
L 49.034097 -54.006053 
L 48.321556 -53.901973 
L 47.609015 -53.802886 
L 46.896474 -53.708901 
L 46.183934 -53.620087 
L 45.471393 -53.536473 
L 44.758852 -53.45805 
L 44.046311 -53.384777 
L 43.333771 -53.316582 
L 42.62123 -53.253362 
L 41.908689 -53.194989 
L 41.196148 -53.141314 
L 40.483607 -53.092163 
L 39.771067 -53.047347 
L 39.058526 -53.006661 
L 38.345985 -52.96989 
L 37.633444 -52.936807 
L 36.920904 -52.907179 
z
" style="stroke: #2a788e; stroke-width: 1.25"/>
    </defs>
    <g>
     <use xlink:href="#mdcf30b0d6d" x="0" y="174.26" style="fill: #2a788e; fill-opacity: 0.7; stroke: #2a788e; stroke-width: 1.25"/>
    </g>
   </g>
   <g id="line2d_8">
    <path d="M 7.2 121.545 
L 216.45 121.545 
" style="fill: none; stroke: #2a788e; stroke-opacity: 0.9; stroke-linecap: round"/>
   </g>
   <g id="text_8">
    <!-- 7 -->
    <g style="fill: #2a788e" transform="translate(7.2 120.627) scale(0.12 -0.12)">
     <defs>
      <path id="IBMPlexSans-Bold-37" d="M 1062 0 
L 2560 3686 
L 1165 3686 
L 1165 2874 
L 352 2874 
L 352 4467 
L 3514 4467 
L 3514 3635 
L 2074 0 
L 1062 0 
z
" transform="scale(0.015625)"/>
     </defs>
     <use xlink:href="#IBMPlexSans-Bold-37"/>
    </g>
   </g>
  </g>
  <g id="axes_9">
   <g id="patch_10">
    <path d="M 7.2 131.94 
L 216.45 131.94 
L 216.45 90.36 
L 7.2 90.36 
L 7.2 131.94 
z
" style="fill: none"/>
   </g>
   <g id="matplotlib.axis_17">
    <g id="xtick_33">
     <g id="text_9">
      <!-- −2 -->
      <g style="fill: #838383" transform="translate(46.891832 149.58) scale(0.11 -0.11)">
       <defs>
        <path id="IBMPlexSans-Regular-2212" d="M 429 1734 
L 429 2170 
L 3411 2170 
L 3411 1734 
L 429 1734 
z
" transform="scale(0.015625)"/>
        <path id="IBMPlexSans-Regular-32" d="M 3411 0 
L 480 0 
L 480 550 
L 1939 1894 
Q 2253 2182 2464 2505 
Q 2675 2829 2675 3155 
L 2675 3232 
Q 2675 3603 2470 3833 
Q 2266 4064 1850 4064 
Q 1645 4064 1491 4006 
Q 1338 3949 1226 3846 
Q 1114 3744 1040 3606 
Q 966 3469 922 3309 
L 442 3494 
Q 506 3693 618 3881 
Q 730 4070 899 4217 
Q 1069 4365 1309 4454 
Q 1549 4544 1875 4544 
Q 2202 4544 2458 4448 
Q 2714 4352 2886 4179 
Q 3059 4006 3152 3769 
Q 3245 3533 3245 3245 
Q 3245 2982 3171 2758 
Q 3098 2534 2970 2332 
Q 2842 2131 2659 1939 
Q 2477 1747 2266 1555 
L 1062 474 
L 3411 474 
L 3411 0 
z
" transform="scale(0.015625)"/>
       </defs>
       <use xlink:href="#IBMPlexSans-Regular-2212"/>
       <use xlink:href="#IBMPlexSans-Regular-32" transform="translate(59.999985 0)"/>
      </g>
     </g>
    </g>
    <g id="xtick_34">
     <g id="text_10">
      <!-- 0 -->
      <g style="fill: #838383" transform="translate(97.633587 149.58) scale(0.11 -0.11)">
       <defs>
        <path id="IBMPlexSans-Regular-30" d="M 1920 -77 
Q 1120 -77 752 531 
Q 384 1139 384 2234 
Q 384 3328 752 3936 
Q 1120 4544 1920 4544 
Q 2720 4544 3088 3936 
Q 3456 3328 3456 2234 
Q 3456 1139 3088 531 
Q 2720 -77 1920 -77 
z
M 1920 390 
Q 2182 390 2368 499 
Q 2554 608 2669 806 
Q 2784 1005 2838 1273 
Q 2893 1542 2893 1869 
L 2893 2598 
Q 2893 2925 2838 3193 
Q 2784 3462 2669 3660 
Q 2554 3859 2368 3968 
Q 2182 4077 1920 4077 
Q 1658 4077 1472 3968 
Q 1286 3859 1171 3660 
Q 1056 3462 1001 3193 
Q 947 2925 947 2598 
L 947 1869 
Q 947 1542 1001 1273 
Q 1056 1005 1171 806 
Q 1286 608 1472 499 
Q 1658 390 1920 390 
z
" transform="scale(0.015625)"/>
       </defs>
       <use xlink:href="#IBMPlexSans-Regular-30"/>
      </g>
     </g>
    </g>
    <g id="xtick_35">
     <g id="text_11">
      <!-- 2 -->
      <g style="fill: #838383" transform="translate(145.075342 149.58) scale(0.11 -0.11)">
       <use xlink:href="#IBMPlexSans-Regular-32"/>
      </g>
     </g>
    </g>
    <g id="xtick_36">
     <g id="text_12">
      <!-- 4 -->
      <g style="fill: #838383" transform="translate(192.517097 149.58) scale(0.11 -0.11)">
       <defs>
        <path id="IBMPlexSans-Regular-34" d="M 2400 0 
L 2400 877 
L 243 877 
L 243 1350 
L 2112 4467 
L 2912 4467 
L 2912 1325 
L 3558 1325 
L 3558 877 
L 2912 877 
L 2912 0 
L 2400 0 
z
M 749 1325 
L 2400 1325 
L 2400 4051 
L 2368 4051 
L 749 1325 
z
" transform="scale(0.015625)"/>
       </defs>
       <use xlink:href="#IBMPlexSans-Regular-34"/>
      </g>
     </g>
    </g>
    <g id="text_13">
     <!-- sldb -->
     <g style="fill: #262626" transform="translate(100.310625 164.66) scale(0.12 -0.12)">
      <defs>
       <path id="IBMPlexSans-Regular-73" d="M 1536 -77 
Q 1075 -77 764 99 
Q 454 275 230 570 
L 595 864 
Q 787 621 1024 489 
Q 1261 358 1574 358 
Q 1901 358 2083 499 
Q 2266 640 2266 896 
Q 2266 1088 2141 1225 
Q 2016 1363 1690 1414 
L 1427 1453 
Q 1197 1485 1005 1552 
Q 813 1619 669 1731 
Q 525 1843 445 2009 
Q 365 2176 365 2406 
Q 365 2650 454 2832 
Q 544 3014 701 3136 
Q 858 3258 1075 3318 
Q 1293 3379 1542 3379 
Q 1946 3379 2218 3238 
Q 2490 3098 2694 2848 
L 2355 2541 
Q 2246 2694 2035 2819 
Q 1824 2944 1504 2944 
Q 1184 2944 1021 2806 
Q 858 2669 858 2432 
Q 858 2189 1021 2080 
Q 1184 1971 1491 1920 
L 1747 1882 
Q 2298 1798 2528 1564 
Q 2758 1331 2758 954 
Q 2758 474 2432 198 
Q 2106 -77 1536 -77 
z
" transform="scale(0.015625)"/>
       <path id="IBMPlexSans-Regular-6c" d="M 1088 0 
Q 819 0 681 150 
Q 544 301 544 531 
L 544 4736 
L 1056 4736 
L 1056 448 
L 1542 448 
L 1542 0 
L 1088 0 
z
" transform="scale(0.015625)"/>
       <path id="IBMPlexSans-Regular-64" d="M 2656 538 
L 2630 538 
Q 2330 -77 1664 -77 
Q 1357 -77 1107 44 
Q 858 166 682 390 
Q 506 614 413 934 
Q 320 1254 320 1651 
Q 320 2048 413 2368 
Q 506 2688 682 2912 
Q 858 3136 1107 3257 
Q 1357 3379 1664 3379 
Q 2010 3379 2256 3228 
Q 2502 3078 2630 2765 
L 2656 2765 
L 2656 4736 
L 3168 4736 
L 3168 0 
L 2656 0 
L 2656 538 
z
M 1805 384 
Q 1978 384 2134 429 
Q 2291 474 2406 560 
Q 2522 646 2589 771 
Q 2656 896 2656 1056 
L 2656 2285 
Q 2656 2419 2589 2537 
Q 2522 2656 2406 2739 
Q 2291 2822 2134 2870 
Q 1978 2918 1805 2918 
Q 1370 2918 1120 2646 
Q 870 2374 870 1933 
L 870 1370 
Q 870 928 1120 656 
Q 1370 384 1805 384 
z
" transform="scale(0.015625)"/>
       <path id="IBMPlexSans-Regular-62" d="M 544 4736 
L 1056 4736 
L 1056 2765 
L 1082 2765 
Q 1210 3078 1456 3228 
Q 1702 3379 2048 3379 
Q 2355 3379 2604 3257 
Q 2854 3136 3030 2912 
Q 3206 2688 3299 2368 
Q 3392 2048 3392 1651 
Q 3392 1254 3299 934 
Q 3206 614 3030 390 
Q 2854 166 2604 44 
Q 2355 -77 2048 -77 
Q 1376 -77 1082 538 
L 1056 538 
L 1056 0 
L 544 0 
L 544 4736 
z
M 1907 384 
Q 2342 384 2592 656 
Q 2842 928 2842 1370 
L 2842 1933 
Q 2842 2374 2592 2646 
Q 2342 2918 1907 2918 
Q 1734 2918 1577 2870 
Q 1421 2822 1305 2739 
Q 1190 2656 1123 2537 
Q 1056 2419 1056 2285 
L 1056 1056 
Q 1056 896 1123 771 
Q 1190 646 1305 560 
Q 1421 474 1577 429 
Q 1734 384 1907 384 
z
" transform="scale(0.015625)"/>
      </defs>
      <use xlink:href="#IBMPlexSans-Regular-73"/>
      <use xlink:href="#IBMPlexSans-Regular-6c" transform="translate(48.699997 0)"/>
      <use xlink:href="#IBMPlexSans-Regular-64" transform="translate(75.899994 0)"/>
      <use xlink:href="#IBMPlexSans-Regular-62" transform="translate(133.899979 0)"/>
     </g>
    </g>
   </g>
   <g id="matplotlib.axis_18"/>
   <g id="FillBetweenPolyCollection_4">
    <defs>
     <path id="ma4fa3f787f" d="M 16.711364 -42.463725 
L 16.711364 -42.32 
L 17.66728 -42.32 
L 18.623196 -42.32 
L 19.579111 -42.32 
L 20.535027 -42.32 
L 21.490943 -42.32 
L 22.446859 -42.32 
L 23.402775 -42.32 
L 24.358691 -42.32 
L 25.314607 -42.32 
L 26.270523 -42.32 
L 27.226439 -42.32 
L 28.182355 -42.32 
L 29.138271 -42.32 
L 30.094187 -42.32 
L 31.050103 -42.32 
L 32.006019 -42.32 
L 32.961935 -42.32 
L 33.917851 -42.32 
L 34.873767 -42.32 
L 35.829683 -42.32 
L 36.785598 -42.32 
L 37.741514 -42.32 
L 38.69743 -42.32 
L 39.653346 -42.32 
L 40.609262 -42.32 
L 41.565178 -42.32 
L 42.521094 -42.32 
L 43.47701 -42.32 
L 44.432926 -42.32 
L 45.388842 -42.32 
L 46.344758 -42.32 
L 47.300674 -42.32 
L 48.25659 -42.32 
L 49.212506 -42.32 
L 50.168422 -42.32 
L 51.124338 -42.32 
L 52.080254 -42.32 
L 53.036169 -42.32 
L 53.992085 -42.32 
L 54.948001 -42.32 
L 55.903917 -42.32 
L 56.859833 -42.32 
L 57.815749 -42.32 
L 58.771665 -42.32 
L 59.727581 -42.32 
L 60.683497 -42.32 
L 61.639413 -42.32 
L 62.595329 -42.32 
L 63.551245 -42.32 
L 64.507161 -42.32 
L 65.463077 -42.32 
L 66.418993 -42.32 
L 67.374909 -42.32 
L 68.330825 -42.32 
L 69.286741 -42.32 
L 70.242656 -42.32 
L 71.198572 -42.32 
L 72.154488 -42.32 
L 73.110404 -42.32 
L 74.06632 -42.32 
L 75.022236 -42.32 
L 75.978152 -42.32 
L 76.934068 -42.32 
L 77.889984 -42.32 
L 78.8459 -42.32 
L 79.801816 -42.32 
L 80.757732 -42.32 
L 81.713648 -42.32 
L 82.669564 -42.32 
L 83.62548 -42.32 
L 84.581396 -42.32 
L 85.537312 -42.32 
L 86.493228 -42.32 
L 87.449143 -42.32 
L 88.405059 -42.32 
L 89.360975 -42.32 
L 90.316891 -42.32 
L 91.272807 -42.32 
L 92.228723 -42.32 
L 93.184639 -42.32 
L 94.140555 -42.32 
L 95.096471 -42.32 
L 96.052387 -42.32 
L 97.008303 -42.32 
L 97.964219 -42.32 
L 98.920135 -42.32 
L 99.876051 -42.32 
L 100.831967 -42.32 
L 101.787883 -42.32 
L 102.743799 -42.32 
L 103.699714 -42.32 
L 104.65563 -42.32 
L 105.611546 -42.32 
L 106.567462 -42.32 
L 107.523378 -42.32 
L 108.479294 -42.32 
L 109.43521 -42.32 
L 110.391126 -42.32 
L 111.347042 -42.32 
L 112.302958 -42.32 
L 113.258874 -42.32 
L 114.21479 -42.32 
L 115.170706 -42.32 
L 116.126622 -42.32 
L 117.082538 -42.32 
L 118.038454 -42.32 
L 118.99437 -42.32 
L 119.950286 -42.32 
L 120.906201 -42.32 
L 121.862117 -42.32 
L 122.818033 -42.32 
L 123.773949 -42.32 
L 124.729865 -42.32 
L 125.685781 -42.32 
L 126.641697 -42.32 
L 127.597613 -42.32 
L 128.553529 -42.32 
L 129.509445 -42.32 
L 130.465361 -42.32 
L 131.421277 -42.32 
L 132.377193 -42.32 
L 133.333109 -42.32 
L 134.289025 -42.32 
L 135.244941 -42.32 
L 136.200857 -42.32 
L 137.156772 -42.32 
L 138.112688 -42.32 
L 139.068604 -42.32 
L 140.02452 -42.32 
L 140.980436 -42.32 
L 141.936352 -42.32 
L 142.892268 -42.32 
L 143.848184 -42.32 
L 144.8041 -42.32 
L 145.760016 -42.32 
L 146.715932 -42.32 
L 147.671848 -42.32 
L 148.627764 -42.32 
L 149.58368 -42.32 
L 150.539596 -42.32 
L 151.495512 -42.32 
L 152.451428 -42.32 
L 153.407344 -42.32 
L 154.363259 -42.32 
L 155.319175 -42.32 
L 156.275091 -42.32 
L 157.231007 -42.32 
L 158.186923 -42.32 
L 159.142839 -42.32 
L 160.098755 -42.32 
L 161.054671 -42.32 
L 162.010587 -42.32 
L 162.966503 -42.32 
L 163.922419 -42.32 
L 164.878335 -42.32 
L 165.834251 -42.32 
L 166.790167 -42.32 
L 167.746083 -42.32 
L 168.701999 -42.32 
L 169.657915 -42.32 
L 170.613831 -42.32 
L 171.569746 -42.32 
L 172.525662 -42.32 
L 173.481578 -42.32 
L 174.437494 -42.32 
L 175.39341 -42.32 
L 176.349326 -42.32 
L 177.305242 -42.32 
L 178.261158 -42.32 
L 179.217074 -42.32 
L 180.17299 -42.32 
L 181.128906 -42.32 
L 182.084822 -42.32 
L 183.040738 -42.32 
L 183.996654 -42.32 
L 184.95257 -42.32 
L 185.908486 -42.32 
L 186.864402 -42.32 
L 187.820317 -42.32 
L 188.776233 -42.32 
L 189.732149 -42.32 
L 190.688065 -42.32 
L 191.643981 -42.32 
L 192.599897 -42.32 
L 193.555813 -42.32 
L 194.511729 -42.32 
L 195.467645 -42.32 
L 196.423561 -42.32 
L 197.379477 -42.32 
L 198.335393 -42.32 
L 199.291309 -42.32 
L 200.247225 -42.32 
L 201.203141 -42.32 
L 202.159057 -42.32 
L 203.114973 -42.32 
L 204.070889 -42.32 
L 205.026804 -42.32 
L 205.98272 -42.32 
L 206.938636 -42.32 
L 206.938636 -42.503001 
L 206.938636 -42.503001 
L 205.98272 -42.532953 
L 205.026804 -42.566658 
L 204.070889 -42.60439 
L 203.114973 -42.646418 
L 202.159057 -42.692995 
L 201.203141 -42.744358 
L 200.247225 -42.800719 
L 199.291309 -42.862263 
L 198.335393 -42.929144 
L 197.379477 -43.001477 
L 196.423561 -43.079334 
L 195.467645 -43.162742 
L 194.511729 -43.251679 
L 193.555813 -43.346066 
L 192.599897 -43.44577 
L 191.643981 -43.550596 
L 190.688065 -43.660289 
L 189.732149 -43.774529 
L 188.776233 -43.892932 
L 187.820317 -44.015051 
L 186.864402 -44.140374 
L 185.908486 -44.268326 
L 184.95257 -44.398276 
L 183.996654 -44.529534 
L 183.040738 -44.661366 
L 182.084822 -44.792993 
L 181.128906 -44.923603 
L 180.17299 -45.052365 
L 179.217074 -45.178433 
L 178.261158 -45.300966 
L 177.305242 -45.419139 
L 176.349326 -45.532158 
L 175.39341 -45.639276 
L 174.437494 -45.739804 
L 173.481578 -45.833129 
L 172.525662 -45.918723 
L 171.569746 -45.996153 
L 170.613831 -46.06509 
L 169.657915 -46.125312 
L 168.701999 -46.176706 
L 167.746083 -46.21927 
L 166.790167 -46.253102 
L 165.834251 -46.278399 
L 164.878335 -46.295444 
L 163.922419 -46.304598 
L 162.966503 -46.306285 
L 162.010587 -46.300981 
L 161.054671 -46.289203 
L 160.098755 -46.271496 
L 159.142839 -46.248427 
L 158.186923 -46.220574 
L 157.231007 -46.188524 
L 156.275091 -46.152869 
L 155.319175 -46.11421 
L 154.363259 -46.073156 
L 153.407344 -46.03033 
L 152.451428 -45.986377 
L 151.495512 -45.94197 
L 150.539596 -45.897818 
L 149.58368 -45.854673 
L 148.627764 -45.813337 
L 147.671848 -45.774665 
L 146.715932 -45.739569 
L 145.760016 -45.709014 
L 144.8041 -45.684018 
L 143.848184 -45.665642 
L 142.892268 -45.654977 
L 141.936352 -45.653135 
L 140.980436 -45.661227 
L 140.02452 -45.680346 
L 139.068604 -45.711539 
L 138.112688 -45.75579 
L 137.156772 -45.813988 
L 136.200857 -45.886906 
L 135.244941 -45.975176 
L 134.289025 -46.079267 
L 133.333109 -46.199461 
L 132.377193 -46.335844 
L 131.421277 -46.488288 
L 130.465361 -46.656445 
L 129.509445 -46.839748 
L 128.553529 -47.037411 
L 127.597613 -47.248441 
L 126.641697 -47.471647 
L 125.685781 -47.705665 
L 124.729865 -47.948976 
L 123.773949 -48.199932 
L 122.818033 -48.456786 
L 121.862117 -48.717717 
L 120.906201 -48.980861 
L 119.950286 -49.244336 
L 118.99437 -49.506269 
L 118.038454 -49.764815 
L 117.082538 -50.018179 
L 116.126622 -50.26463 
L 115.170706 -50.502513 
L 114.21479 -50.730256 
L 113.258874 -50.946376 
L 112.302958 -51.149485 
L 111.347042 -51.338287 
L 110.391126 -51.511585 
L 109.43521 -51.668274 
L 108.479294 -51.80735 
L 107.523378 -51.927909 
L 106.567462 -52.029152 
L 105.611546 -52.110389 
L 104.65563 -52.171048 
L 103.699714 -52.210683 
L 102.743799 -52.228982 
L 101.787883 -52.225778 
L 100.831967 -52.201057 
L 99.876051 -52.154967 
L 98.920135 -52.087823 
L 97.964219 -52.000113 
L 97.008303 -51.892502 
L 96.052387 -51.765825 
L 95.096471 -51.621089 
L 94.140555 -51.459463 
L 93.184639 -51.282267 
L 92.228723 -51.090961 
L 91.272807 -50.887126 
L 90.316891 -50.672448 
L 89.360975 -50.448695 
L 88.405059 -50.217698 
L 87.449143 -49.981324 
L 86.493228 -49.741455 
L 85.537312 -49.499962 
L 84.581396 -49.258681 
L 83.62548 -49.019389 
L 82.669564 -48.783779 
L 81.713648 -48.55344 
L 80.757732 -48.329833 
L 79.801816 -48.114277 
L 78.8459 -47.907926 
L 77.889984 -47.711756 
L 76.934068 -47.526556 
L 75.978152 -47.352913 
L 75.022236 -47.191209 
L 74.06632 -47.041622 
L 73.110404 -46.904119 
L 72.154488 -46.778468 
L 71.198572 -46.664244 
L 70.242656 -46.56084 
L 69.286741 -46.467488 
L 68.330825 -46.383276 
L 67.374909 -46.307171 
L 66.418993 -46.238045 
L 65.463077 -46.174704 
L 64.507161 -46.115916 
L 63.551245 -46.060437 
L 62.595329 -46.007046 
L 61.639413 -45.954569 
L 60.683497 -45.901904 
L 59.727581 -45.848044 
L 58.771665 -45.792097 
L 57.815749 -45.7333 
L 56.859833 -45.671029 
L 55.903917 -45.604807 
L 54.948001 -45.534303 
L 53.992085 -45.459332 
L 53.036169 -45.379845 
L 52.080254 -45.295921 
L 51.124338 -45.207754 
L 50.168422 -45.115637 
L 49.212506 -45.019945 
L 48.25659 -44.921122 
L 47.300674 -44.819659 
L 46.344758 -44.716079 
L 45.388842 -44.610926 
L 44.432926 -44.504745 
L 43.47701 -44.398077 
L 42.521094 -44.291444 
L 41.565178 -44.185346 
L 40.609262 -44.080251 
L 39.653346 -43.976595 
L 38.69743 -43.874778 
L 37.741514 -43.775161 
L 36.785598 -43.678071 
L 35.829683 -43.583798 
L 34.873767 -43.492595 
L 33.917851 -43.404682 
L 32.961935 -43.320249 
L 32.006019 -43.239452 
L 31.050103 -43.162419 
L 30.094187 -43.089246 
L 29.138271 -43.020005 
L 28.182355 -42.954739 
L 27.226439 -42.893462 
L 26.270523 -42.836166 
L 25.314607 -42.782816 
L 24.358691 -42.733352 
L 23.402775 -42.687692 
L 22.446859 -42.645734 
L 21.490943 -42.607353 
L 20.535027 -42.57241 
L 19.579111 -42.540749 
L 18.623196 -42.512202 
L 17.66728 -42.486589 
L 16.711364 -42.463725 
z
" style="stroke: #21918c; stroke-width: 1.25"/>
    </defs>
    <g>
     <use xlink:href="#ma4fa3f787f" x="0" y="174.26" style="fill: #21918c; fill-opacity: 0.7; stroke: #21918c; stroke-width: 1.25"/>
    </g>
   </g>
   <g id="line2d_9">
    <path d="M 7.2 131.94 
L 216.45 131.94 
" style="fill: none; stroke: #21918c; stroke-opacity: 0.9; stroke-linecap: round"/>
   </g>
   <g id="text_14">
    <!-- 8 -->
    <g style="fill: #21918c" transform="translate(7.2 131.022) scale(0.12 -0.12)">
     <defs>
      <path id="IBMPlexSans-Bold-38" d="M 1920 -77 
Q 1523 -77 1212 22 
Q 902 122 691 294 
Q 480 467 368 704 
Q 256 941 256 1222 
Q 256 1651 493 1923 
Q 730 2195 1133 2304 
L 1133 2355 
Q 806 2477 598 2726 
Q 390 2976 390 3366 
Q 390 3622 489 3840 
Q 589 4058 784 4214 
Q 979 4371 1264 4457 
Q 1549 4544 1920 4544 
Q 2291 4544 2576 4457 
Q 2861 4371 3056 4214 
Q 3251 4058 3350 3840 
Q 3450 3622 3450 3366 
Q 3450 2976 3242 2726 
Q 3034 2477 2707 2355 
L 2707 2304 
Q 3110 2195 3347 1923 
Q 3584 1651 3584 1222 
Q 3584 941 3472 704 
Q 3360 467 3149 294 
Q 2938 122 2627 22 
Q 2317 -77 1920 -77 
z
M 1920 659 
Q 2240 659 2409 809 
Q 2579 960 2579 1229 
L 2579 1357 
Q 2579 1626 2409 1776 
Q 2240 1926 1920 1926 
Q 1600 1926 1430 1776 
Q 1261 1626 1261 1357 
L 1261 1229 
Q 1261 960 1430 809 
Q 1600 659 1920 659 
z
M 1920 2630 
Q 2227 2630 2387 2774 
Q 2547 2918 2547 3168 
L 2547 3270 
Q 2547 3520 2387 3664 
Q 2227 3808 1920 3808 
Q 1613 3808 1453 3664 
Q 1293 3520 1293 3270 
L 1293 3168 
Q 1293 2918 1453 2774 
Q 1613 2630 1920 2630 
z
" transform="scale(0.015625)"/>
     </defs>
     <use xlink:href="#IBMPlexSans-Bold-38"/>
    </g>
   </g>
  </g>
 </g>
</svg>
